<?xml version="1.0" encoding="utf-8"?>
<!-- Generator: Adobe Illustrator 16.0.0, SVG Export Plug-In . SVG Version: 6.00 Build 0)  -->
<!DOCTYPE svg PUBLIC "-//W3C//DTD SVG 1.1//EN" "http://www.w3.org/Graphics/SVG/1.1/DTD/svg11.dtd">
<svg version="1.1" id="Layer_1" xmlns="http://www.w3.org/2000/svg" xmlns:xlink="http://www.w3.org/1999/xlink" x="0px" y="0px"
	 width="85px" height="85px" viewBox="0 0 85 85" enable-background="new 0 0 85 85" xml:space="preserve">
<g>
	<path fill="#FEFEFE" d="M7.094,60.974c0.474,0.176,0.972,0.161,1.466,0.161c5.465,0,10.93,0,16.395,0.001
		c0.39,0,0.784-0.028,1.162,0.097c0.582,0.193,0.903,0.603,0.932,1.214c0.008,0.177-0.021,0.347-0.082,0.502h15.757
		c-5.819-5.82-11.639-11.64-17.458-17.46c-0.258-0.257-0.522-0.508-0.762-0.784c-2.042-2.357-1.537-6.241,1.04-7.994
		c2.352-1.6,5.163-1.354,7.196,0.656c2.313,2.287,4.595,4.605,6.908,6.893c0.704,0.696,0.878,0.652,1.368-0.206
		c0.971-1.705,2.362-2.816,4.362-3.051c0.95-0.112,0.972-0.133,1.081-1.078c0.4-3.461,3.852-5.703,7.162-4.652
		c1.12,0.356,1.134,0.363,1.651-0.698c1.802-3.693,6.657-4.002,9.014-1.47c2.516,2.704,5.2,5.25,7.821,7.855
		c0.264,0.263,0.528,0.722,0.945,0.542c0.364-0.158,0.25-0.645,0.25-0.998c0.007-7.521,0.007-15.041,0.002-22.562
		c0-1.162-0.13-1.277-1.312-1.29c-0.104-0.001-0.209-0.001-0.312-0.001c-21.547,0-43.094,0-64.641,0
		c-1.626,0-1.638,0.012-1.638,1.663c0,13.22,0,26.439,0,39.659c0,0.286-0.015,0.574,0.016,0.858
		C5.528,59.893,6.098,60.603,7.094,60.974z"/>
	<path fill-rule="evenodd" clip-rule="evenodd" d="M71.676,2.508c0.22,0.281,0.566,0.157,0.848,0.251
		c2.272,0.76,3.678,2.751,3.679,5.316c0.005,9.993,0.002,19.985,0.002,29.978c0,2.03,0.009,4.06-0.008,6.089
		c-0.003,0.389,0.104,0.672,0.364,0.969c5.682,6.506,7.396,13.961,4.67,22.134c-2.731,8.187-8.634,13.092-17.065,14.841
		c-4.035,0.838-8.012,0.326-11.892-1.048c-4.912-1.74-9.843-3.43-14.76-5.158c-4.092-1.438-5.633-5.992-3.132-9.331
		c1.518-2.025,3.598-2.742,6.066-2.265c1.291,0.25,2.563,0.594,3.877,0.903c-0.019-0.43-0.312-0.562-0.502-0.752
		c-6.289-6.298-12.584-12.588-18.874-18.885c-2.054-2.056-2.524-4.696-1.279-7.045c1.794-3.384,6.309-4.13,9.093-1.448
		c2.323,2.238,4.576,4.55,6.854,6.835c0.256,0.257,0.475,0.55,0.787,0.915c0.421-0.876,0.777-1.61,1.347-2.211
		c1.047-1.104,2.31-1.76,3.837-1.829c0.448-0.02,0.604-0.115,0.636-0.607c0.249-3.94,4.22-6.432,7.904-4.958
		c0.473,0.189,0.605,0.144,0.797-0.336c1.55-3.887,6.363-4.955,9.375-2.044c2.75,2.658,5.423,5.396,8.123,8.105
		c0.177,0.177,0.291,0.417,0.467,0.676c0.264-0.4,0.187-0.637,0.188-0.856c0.005-7.703-0.007-15.405,0.022-23.108
		c0.002-0.684-0.204-0.777-0.819-0.777c-21.963,0.017-43.926,0.018-65.889-0.003c-0.672-0.001-0.784,0.187-0.783,0.812
		c0.02,13.506,0.015,27.011,0.015,40.518c0,1.948,0.781,2.723,2.747,2.723c5.595,0.001,11.189,0,16.785,0.001
		c0.26,0,0.523-0.017,0.78,0.015c0.792,0.093,1.382,0.753,1.389,1.53s-0.57,1.45-1.36,1.558c-0.256,0.035-0.52,0.02-0.78,0.02
		c-5.595,0.001-11.189,0.001-16.784,0c-3.138,0-4.874-1.279-5.795-4.266c-0.013-0.042-0.069-0.071-0.104-0.106
		c0-17.594,0-35.187,0-52.78C2.643,4.724,4.701,2.66,6.872,2.508C28.473,2.508,50.074,2.508,71.676,2.508z"/>
	<path fill-rule="evenodd" clip-rule="evenodd" d="M15.502,26.568c0.475,0.018,0.868,0.198,1.193,0.522
		c1.895,1.892,3.796,3.778,5.677,5.684c0.728,0.737,0.745,1.641,0.104,2.291c-0.622,0.63-1.585,0.617-2.292-0.083
		c-1.904-1.883-3.79-3.785-5.685-5.677c-0.515-0.514-0.66-1.124-0.391-1.784C14.354,26.917,14.866,26.625,15.502,26.568z"/>
	<path fill-rule="evenodd" clip-rule="evenodd" d="M26.686,29.239c0-0.597-0.026-1.195,0.007-1.79
		c0.043-0.784,0.618-1.354,1.381-1.432c0.768-0.078,1.502,0.355,1.62,1.137c0.209,1.384,0.21,2.793-0.001,4.178
		c-0.117,0.763-0.888,1.224-1.625,1.143c-0.757-0.083-1.331-0.661-1.374-1.446C26.659,30.434,26.686,29.836,26.686,29.239z"/>
	<path fill-rule="evenodd" clip-rule="evenodd" d="M16.669,42.37c-0.597,0-1.194,0.027-1.789-0.007
		c-0.842-0.048-1.418-0.63-1.466-1.42c-0.051-0.844,0.459-1.545,1.321-1.629c1.263-0.123,2.54-0.125,3.803,0.001
		c0.86,0.086,1.367,0.791,1.312,1.635c-0.051,0.79-0.627,1.366-1.472,1.415C17.812,42.396,17.24,42.37,16.669,42.37z"/>
	<path fill-rule="evenodd" clip-rule="evenodd" fill="#010101" d="M31.785,60.913c0.869,0.004,1.563,0.729,1.538,1.604
		c-0.024,0.844-0.714,1.518-1.552,1.514c-0.866-0.004-1.563-0.73-1.539-1.604C30.256,61.583,30.949,60.908,31.785,60.913z"/>
	<path fill-rule="evenodd" clip-rule="evenodd" fill="#FDD99A" d="M79.321,59.569c-0.008,10.462-7.408,18.6-17.232,19.645
		c-3.514,0.374-6.799-0.393-10.063-1.574c-4.513-1.633-9.065-3.156-13.594-4.747c-2.096-0.736-2.789-3.038-1.414-4.64
		c0.817-0.952,1.872-1.15,3.048-0.867c2.979,0.718,5.956,1.44,8.934,2.16c1.032,0.249,1.709,0.022,2.091-0.695
		c0.362-0.682,0.197-1.374-0.518-2.089c-7.802-7.805-15.602-15.608-23.411-23.405c-0.766-0.765-1.228-1.605-0.968-2.718
		c0.458-1.969,2.74-2.739,4.297-1.445c0.219,0.182,0.415,0.394,0.617,0.596c6.147,6.146,12.293,12.293,18.44,18.439
		c0.166,0.166,0.325,0.339,0.503,0.49c0.688,0.585,1.588,0.562,2.179-0.045c0.577-0.594,0.6-1.537-0.022-2.179
		c-1.304-1.346-2.64-2.658-3.964-3.984s-2.654-2.646-3.973-3.978c-1.174-1.186-1.231-2.809-0.154-3.893
		c1.084-1.09,2.703-1.049,3.89,0.131c2.693,2.68,5.376,5.37,8.062,8.059c0.391,0.391,0.78,0.761,1.391,0.763
		c0.602,0.002,1.065-0.24,1.367-0.746c0.319-0.533,0.32-1.099-0.021-1.623c-0.167-0.258-0.399-0.478-0.619-0.698
		c-2.666-2.671-5.341-5.332-8-8.011c-1.095-1.103-1.167-2.647-0.215-3.72c1.046-1.179,2.749-1.218,3.942-0.045
		c1.893,1.861,3.759,3.75,5.637,5.626c0.92,0.921,1.832,1.85,2.763,2.759c0.76,0.742,1.709,0.772,2.348,0.104
		c0.634-0.664,0.602-1.548-0.135-2.291c-1.978-1.998-3.967-3.983-5.96-5.964c-0.713-0.708-1.082-1.531-0.877-2.534
		c0.209-1.026,0.835-1.746,1.84-2.031c1.021-0.289,1.945-0.042,2.718,0.733c2.939,2.949,5.894,5.884,8.829,8.837
		c1.266,1.273,2.599,2.482,3.754,3.861C77.816,51.417,79.252,55.555,79.321,59.569z"/>
	<path fill-rule="evenodd" clip-rule="evenodd" fill="#9FE457" d="M39.358,13.751c-10.953,0-21.905-0.006-32.858,0.016
		c-0.69,0.001-0.925-0.141-0.896-0.875c0.062-1.611,0.012-3.226,0.021-4.838c0.009-1.542,0.878-2.42,2.423-2.42
		c20.865-0.004,41.729-0.004,62.595,0c1.55,0,2.426,0.872,2.436,2.408c0.012,1.639-0.03,3.279,0.02,4.917
		c0.02,0.647-0.148,0.812-0.803,0.81c-8.378-0.024-16.755-0.016-25.132-0.016C44.562,13.751,41.96,13.751,39.358,13.751z"/>
	<path fill-rule="evenodd" clip-rule="evenodd" d="M50.669,8.13c5.306,0,10.611-0.001,15.917,0.001c1.035,0,1.669,0.437,1.819,1.229
		c0.181,0.956-0.421,1.774-1.391,1.881c-0.181,0.02-0.364,0.011-0.546,0.011c-10.533,0-21.066,0-31.6,0
		c-1.129,0-1.789-0.457-1.916-1.309c-0.154-1.033,0.563-1.805,1.721-1.811c2.445-0.011,4.89-0.003,7.334-0.003
		C44.896,8.13,47.782,8.13,50.669,8.13z"/>
	<path fill-rule="evenodd" clip-rule="evenodd" fill="#010100" d="M19.083,9.71c-0.01,0.856-0.671,1.526-1.518,1.539
		c-0.854,0.012-1.592-0.726-1.58-1.578c0.012-0.827,0.714-1.528,1.541-1.538C18.406,8.125,19.093,8.82,19.083,9.71z"/>
	<path fill-rule="evenodd" clip-rule="evenodd" fill="#010100" d="M10.271,9.673c0.008-0.854,0.671-1.527,1.517-1.54
		c0.858-0.013,1.59,0.717,1.578,1.575c-0.011,0.832-0.707,1.528-1.537,1.54C10.953,11.26,10.263,10.562,10.271,9.673z"/>
	<path fill-rule="evenodd" clip-rule="evenodd" fill="#010100" d="M23.295,11.249c-0.853,0.006-1.59-0.736-1.574-1.585
		c0.016-0.821,0.729-1.522,1.552-1.528c0.838-0.006,1.535,0.667,1.56,1.506C24.859,10.515,24.164,11.242,23.295,11.249z"/>
</g>
</svg>
