<?xml version="1.0" encoding="utf-8"?>
<!-- Generator: Adobe Illustrator 16.0.0, SVG Export Plug-In . SVG Version: 6.00 Build 0)  -->
<!DOCTYPE svg PUBLIC "-//W3C//DTD SVG 1.1//EN" "http://www.w3.org/Graphics/SVG/1.1/DTD/svg11.dtd">
<svg version="1.1" id="Layer_1" xmlns="http://www.w3.org/2000/svg" xmlns:xlink="http://www.w3.org/1999/xlink" x="0px" y="0px"
	 width="85px" height="85px" viewBox="0 0 85 85" enable-background="new 0 0 85 85" xml:space="preserve">
<g>
	<path fill="#FAC546" d="M55.716,38.725L31.952,81.248l7.504-32.518L29.45,47.48L51.964,3.705l-7.506,33.77L55.716,38.725z"/>
	<path fill="#231C1C" d="M31.952,82.5c-0.125,0-0.25,0-0.5-0.125c-0.625-0.25-0.875-0.875-0.75-1.502l7.254-31.018l-8.63-1.125
		c-0.375,0-0.75-0.25-1-0.625s-0.25-0.75,0-1.125L50.839,3.205c0.25-0.5,1-0.875,1.502-0.625c0.625,0.25,0.875,0.875,0.75,1.5
		l-7.254,32.395l9.881,1.125c0.375,0,0.75,0.25,1,0.625s0.125,0.875,0,1.125L32.954,81.873C32.828,82.25,32.452,82.5,31.952,82.5
		L31.952,82.5z M31.327,46.479l8.254,1.002c0.375,0,0.625,0.25,0.875,0.5s0.25,0.625,0.25,1l-5.502,24.014l18.512-33.27l-9.381-1
		c-0.375,0-0.625-0.25-0.875-0.5s-0.25-0.625-0.25-1l5.377-24.264L31.327,46.479L31.327,46.479z"/>
</g>
</svg>
