<?xml version="1.0" encoding="utf-8"?>
<!-- Generator: Adobe Illustrator 16.0.0, SVG Export Plug-In . SVG Version: 6.00 Build 0)  -->
<!DOCTYPE svg PUBLIC "-//W3C//DTD SVG 1.1//EN" "http://www.w3.org/Graphics/SVG/1.1/DTD/svg11.dtd">
<svg version="1.1" id="Layer_1" xmlns="http://www.w3.org/2000/svg" xmlns:xlink="http://www.w3.org/1999/xlink" x="0px" y="0px"
	 width="85px" height="85px" viewBox="0 0 85 85" enable-background="new 0 0 85 85" xml:space="preserve">
<g>
	<path fill="#FBB03B" d="M50.002,79.397H18.734v-15.01h31.268c4.146,0,7.506,3.359,7.506,7.504l0,0
		C57.508,76.038,54.148,79.397,50.002,79.397z"/>
	<circle fill="#6EC0BB" cx="39.998" cy="71.892" r="3.752"/>
	<path fill="#F15A24" d="M50.002,64.343h-7.504c4.146,0,7.504,3.383,7.504,7.527s-3.357,7.525-7.504,7.525h7.504
		c4.146,0,7.506-3.381,7.506-7.525S54.148,64.343,50.002,64.343z"/>
	<rect x="3.727" y="5.604" fill="#84DCCF" width="77.545" height="48.778"/>
	<g>
		<polygon fill="#027EA8" points="26.24,54.382 21.236,54.382 51.254,5.604 56.256,5.604 		"/>
		<polygon fill="#027EA8" points="32.494,54.382 29.992,54.382 60.008,5.604 62.51,5.604 		"/>
		<polygon fill="#027EA8" points="17.484,54.382 3.727,54.382 3.727,5.604 47.502,5.604 		"/>
	</g>
	<rect x="3.727" y="49.38" fill="#FBB03B" width="77.545" height="5.002"/>
	<g>
		<rect x="67.535" y="48.146" fill="#F15A24" width="2.453" height="2.454"/>
		<rect x="71.297" y="48.146" fill="#F15A24" width="2.453" height="2.454"/>
		<rect x="75.061" y="48.146" fill="#F15A24" width="2.455" height="2.454"/>
	</g>
	<path d="M82.5,4.376h-80v51.232h8.748v3.826h2.455v-3.826h57.594v3.826h2.455v-3.826H82.5V4.376L82.5,4.376z M80.045,53.155H4.953
		v-2.557h60.125v-2.453H4.953V6.831h75.092V53.155L80.045,53.155z"/>
	<path d="M50.002,80.624H17.508V63.161h32.496c4.814,0,8.73,3.916,8.73,8.73C58.736,76.708,54.818,80.624,50.002,80.624z
		 M19.963,78.169h30.041c3.461,0,6.277-2.814,6.277-6.277c0-3.461-2.816-6.275-6.277-6.275H19.963V78.169L19.963,78.169z"/>
	<g>
		<rect x="22.537" y="70.562" fill="#FFFFFF" width="2.455" height="2.619"/>
		<rect x="22.537" y="74.325" fill="#FFFFFF" width="2.455" height="2.619"/>
		<rect x="26.301" y="70.562" fill="#FFFFFF" width="2.455" height="2.619"/>
		<rect x="26.301" y="74.325" fill="#FFFFFF" width="2.455" height="2.619"/>
		<rect x="22.537" y="66.962" fill="#FFFFFF" width="2.455" height="2.455"/>
		<rect x="26.301" y="66.962" fill="#FFFFFF" width="2.455" height="2.455"/>
		<rect x="30.064" y="70.562" fill="#FFFFFF" width="2.455" height="2.619"/>
	</g>
	<g>
		<rect x="30.064" y="74.325" fill="#025F7E" width="2.455" height="2.619"/>
		<rect x="30.064" y="66.962" fill="#025F7E" width="2.455" height="2.455"/>
	</g>
	<path d="M39.998,76.872c-2.746,0-4.979-2.234-4.979-4.98c0-2.744,2.232-4.979,4.979-4.979c2.744,0,4.979,2.232,4.979,4.979
		S42.744,76.872,39.998,76.872z M39.998,69.368c-1.393,0-2.525,1.133-2.525,2.523c0,1.395,1.133,2.525,2.525,2.525
		s2.525-1.133,2.525-2.525C42.523,70.501,41.391,69.368,39.998,69.368z"/>
	<rect x="38.736" y="70.562" fill="#027EA8" width="2.455" height="2.619"/>
	<rect x="46.262" y="66.962" fill="#FFFFFF" width="2.455" height="2.455"/>
	<rect x="46.262" y="70.562" fill="#027EA8" width="2.455" height="6.383"/>
	<g>
		<polygon fill="#FFFFFF" points="9.938,19.349 7.484,19.349 7.484,9.367 31.209,9.367 31.209,11.821 9.938,11.821 		"/>
		<rect x="33.664" y="9.367" fill="#FFFFFF" width="3.764" height="2.454"/>
	</g>
</g>
</svg>
