<?xml version="1.0" encoding="utf-8"?>
<!-- Generator: Adobe Illustrator 16.0.0, SVG Export Plug-In . SVG Version: 6.00 Build 0)  -->
<!DOCTYPE svg PUBLIC "-//W3C//DTD SVG 1.1//EN" "http://www.w3.org/Graphics/SVG/1.1/DTD/svg11.dtd">
<svg version="1.1" id="Layer_1" xmlns="http://www.w3.org/2000/svg" xmlns:xlink="http://www.w3.org/1999/xlink" x="0px" y="0px"
	 width="85px" height="85px" viewBox="0 0 85 85" enable-background="new 0 0 85 85" xml:space="preserve">
<g>
	<path fill="#2CC4FE" d="M63.487,38.359H21.523c-0.981,0-1.778-0.797-1.778-1.777V4.635c0-0.98,0.797-1.777,1.778-1.777h41.964
		c0.98,0,1.775,0.797,1.775,1.777v31.947C65.263,37.562,64.468,38.359,63.487,38.359z"/>
	<path fill="#515151" d="M63.487,38.715H21.523c-1.177,0-2.134-0.957-2.134-2.135V4.635c0-1.178,0.957-2.135,2.134-2.135h41.964
		c1.176,0,2.133,0.957,2.133,2.135V36.58C65.62,37.758,64.663,38.715,63.487,38.715z M21.523,3.213
		c-0.784,0-1.422,0.637-1.422,1.422V36.58c0,0.785,0.638,1.422,1.422,1.422h41.964c0.783,0,1.422-0.637,1.422-1.422V4.635
		c0-0.785-0.639-1.422-1.422-1.422H21.523L21.523,3.213z"/>
	<path fill="#2CC4FE" d="M63.478,82.145H21.515c-0.982,0-1.777-0.795-1.777-1.777v-40.23c0-0.98,0.795-1.777,1.777-1.777h41.963
		c0.98,0,1.777,0.797,1.777,1.777v40.23C65.255,81.35,64.46,82.145,63.478,82.145z"/>
	<path fill="#515151" d="M63.478,82.5H21.515c-1.178,0-2.135-0.957-2.135-2.133v-40.23c0-1.176,0.957-2.135,2.135-2.135h41.963
		c1.176,0,2.135,0.959,2.135,2.135v40.23C65.612,81.543,64.653,82.5,63.478,82.5z M21.515,38.715c-0.785,0-1.423,0.637-1.423,1.422
		v40.23c0,0.783,0.638,1.422,1.423,1.422h41.963c0.783,0,1.422-0.639,1.422-1.422v-40.23c0-0.785-0.639-1.422-1.422-1.422H21.515z"
		/>
	<path fill="#A1E4FD" d="M57.788,29.41H32.903c-0.982,0-1.777-0.797-1.777-1.779V13.584c0-0.982,0.795-1.777,1.777-1.777h24.885
		c0.982,0,1.777,0.795,1.777,1.777v14.047C59.565,28.613,58.771,29.41,57.788,29.41z"/>
	<path fill="#515151" d="M57.788,29.764H32.903c-1.177,0-2.134-0.957-2.134-2.133V13.584c0-1.178,0.957-2.135,2.134-2.135h24.885
		c1.176,0,2.133,0.957,2.133,2.135v14.047C59.921,28.807,58.964,29.764,57.788,29.764L57.788,29.764z M32.903,12.162
		c-0.785,0-1.423,0.637-1.423,1.422v14.047c0,0.783,0.638,1.422,1.423,1.422h24.883c0.785,0,1.424-0.639,1.424-1.422V13.584
		c0-0.785-0.639-1.422-1.424-1.422H32.903z"/>
	<path fill="#545454" d="M25.426,24.342c-0.196,0-0.354-0.16-0.354-0.355v-7.438c0-0.197,0.158-0.355,0.354-0.355
		s0.356,0.158,0.356,0.355v7.438C25.782,24.182,25.622,24.342,25.426,24.342z"/>
	<path fill="#D7F9FF" d="M33.995,21.855c-0.197,0-0.356-0.158-0.356-0.355c0-0.094,0.038-0.186,0.104-0.25l5.26-5.26
		c0.143-0.137,0.367-0.133,0.502,0.01c0.133,0.139,0.133,0.355,0,0.492l-5.26,5.26C34.18,21.818,34.089,21.855,33.995,21.855z
		 M34.745,26.053c-0.195,0-0.355-0.16-0.355-0.355c0-0.094,0.038-0.186,0.104-0.25l9.594-9.596c0.141-0.139,0.365-0.139,0.504,0
		c0.141,0.141,0.141,0.365,0,0.504l-9.594,9.594C34.931,26.016,34.841,26.053,34.745,26.053z"/>
	<path fill="#545454" d="M25.426,63.83c-0.196,0-0.354-0.158-0.354-0.355v-7.438c0-0.197,0.158-0.357,0.354-0.357
		s0.356,0.16,0.356,0.357v7.438C25.782,63.672,25.622,63.83,25.426,63.83z"/>
</g>
</svg>
