<?xml version="1.0" encoding="utf-8"?>
<!-- Generator: Adobe Illustrator 16.0.0, SVG Export Plug-In . SVG Version: 6.00 Build 0)  -->
<!DOCTYPE svg PUBLIC "-//W3C//DTD SVG 1.1//EN" "http://www.w3.org/Graphics/SVG/1.1/DTD/svg11.dtd">
<svg version="1.1" id="Layer_1" xmlns="http://www.w3.org/2000/svg" xmlns:xlink="http://www.w3.org/1999/xlink" x="0px" y="0px"
	 width="85px" height="85px" viewBox="0 0 85 85" enable-background="new 0 0 85 85" xml:space="preserve">
<g>
	<path fill="#E5B28F" d="M29.942,49.888c-0.443,0.018-0.889-0.059-1.328-0.039c-0.766,0.036-0.691-0.014-0.785,0.748
		c-0.02,0.151-0.035,0.304-0.051,0.456c-0.104,1.173-0.07,2.388-0.123,3.559c-0.01,0.181-0.006,0.358,0.002,0.541
		c0.066,1.191,0.457,2.374,0.283,3.562c-0.242,1.649-0.48,3.339-0.266,5.01c0.07,0.55,0.104,1.111,0.152,1.665
		c0.17,1.861,0.344,3.721,0.516,5.582c0.031,0.341,0.062,0.685,0.094,1.029l-0.123,1.152c-0.113,0.391-0.125,0.802-0.039,1.196
		c0.172,0.766-0.439,1.609-0.439,2.371c0,0.902,0.443,1.785,0.354,2.685c-0.068,0.678-0.703,1.401-0.105,2.046
		c0.502,0.534,2.789,0.743,3.258,0.089c0.141-0.194,0.135-0.548,0.098-0.906c-0.039-0.354-0.105-0.713-0.102-0.938
		c0.023-0.987,0.17-1.946,0.045-2.938c-0.131-0.988-0.035-1.988-0.188-3.007c-0.006-0.034-0.16-1.069-0.16-1.069
		s1.072-5.728,1.137-6.03c0.471-2.215,0.531-4.531,0.4-6.784c-0.033-0.548-0.072-1.096-0.113-1.643
		c-0.104-1.447-0.27-2.768,0.141-4.165c0.049-0.161,0.088-0.325,0.119-0.49c0.029-0.149,0.057-0.304,0.076-0.459
		c0.174-1.295,0.08-2.728,0.434-3.927C33.091,49.638,30.405,49.867,29.942,49.888L29.942,49.888z"/>
	<path fill="#42525E" d="M31.245,76.058c-0.076,3.539-0.172,2.772-0.447,3.859l-2.389-0.033l-0.17-1.804l0.105-2.892l-0.037-0.785
		c-0.055-0.001-0.51,1.603-0.51,1.603l0.055,1.033l0.193,1.703c-0.055,0.544-0.107,1.088-0.152,1.632
		c-0.023,0.292-0.232,1.116-0.055,1.38c0.152,0.218,0.627,0.385,0.852,0.516c0.768,0.447,1.494,0.128,2.328,0
		c0.131-0.02,0.689-0.854,0.674-0.98c-0.281-2.196-0.102-0.951-0.285-4.198L31.245,76.058L31.245,76.058z"/>
	<path fill="#E5B28F" d="M27.169,55.185c0.012-0.19,0.016-0.382,0.006-0.573c-0.053-1.209-0.02-2.462-0.141-3.671
		c-2.639-0.297-4.541,0.694-4.877,2.868c0.023,0.082,0.051,0.167,0.074,0.25c0.072,0.251,0.131,0.508,0.17,0.769
		c0.182,1.12,0.057,2.218-0.029,3.396c-0.041,0.547-0.078,1.094-0.111,1.642c-0.133,2.255-0.07,4.571,0.398,6.785
		c0.066,0.305,1.137,6.03,1.137,6.03s-0.156,1.035-0.158,1.07c-0.152,1.018-0.061,2.018-0.188,3.006
		c-0.127,0.991,0.02,1.95,0.043,2.938c0.006,0.228-0.064,0.586-0.1,0.938c-0.039,0.357-0.045,0.712,0.098,0.906
		c0.467,0.654,2.756,0.446,3.256-0.089c0.6-0.645-0.035-1.367-0.104-2.045c-0.092-0.898,0.354-1.781,0.354-2.686
		c0-0.762-0.611-1.605-0.441-2.37c0.088-0.396,0.074-0.808-0.037-1.197l-0.125-1.152c0.031-0.345,0.062-0.688,0.096-1.029
		c0.17-1.861,0.344-3.721,0.514-5.582c0.051-0.553,0.082-1.115,0.154-1.665c0.215-1.671-0.025-3.359-0.266-5.009
		C26.716,57.538,27.101,56.364,27.169,55.185L27.169,55.185z"/>
	<path fill="#42525E" d="M26.782,78.742l0.195-1.703l0.055-1.033c0,0-0.457-1.603-0.51-1.603l-0.039,0.785l0.105,2.892l-0.17,1.804
		l-2.389,0.033c-0.275-1.087-0.369-0.32-0.447-3.859l-0.16,1.033c-0.188,3.246-0.006,2.001-0.285,4.197
		c-0.018,0.128,0.543,0.962,0.674,0.98c0.834,0.128,1.559,0.447,2.326,0c0.227-0.131,0.699-0.298,0.854-0.516
		c0.178-0.264-0.031-1.087-0.055-1.38C26.89,79.83,26.839,79.286,26.782,78.742L26.782,78.742z"/>
	<path fill="#51301E" d="M31.384,11.865c-0.15-1.197-0.109-2.39-0.365-3.58c-0.127-0.586-0.262-1.354-0.631-1.836
		c-0.312-0.41-0.803-0.521-1.262-0.696c-0.436-0.167-0.822-0.454-1.264-0.599c-1.271-0.414-2.791,0.137-3.732,1.015
		c-1.061,0.991-1.617,2.438-1.77,3.885c-0.127,1.19,0.18,2.642,0.531,3.784c0.264,0.863,0.867,2.772,1.744,3.214
		c0.348,0.175,0.789,0.009,1.16-0.011c0.746-0.04,1.504-0.003,2.252-0.004c0.59-0.001,1.607,0.194,2.129-0.058
		c0.65-0.313,1.064-1.256,1.225-1.908c0.227-0.921,0.148-1.837,0.039-2.751C31.423,12.166,31.403,12.015,31.384,11.865z"/>
	<path fill="#E8E9EA" d="M27.034,50.94c-2.639-0.297-4.541,0.694-4.877,2.868c0.023,0.082,0.051,0.167,0.074,0.25
		c0.072,0.251,0.131,0.508,0.17,0.769c0.703,0.141,2.605,0.465,4.768,0.357c0.012-0.19,0.016-0.382,0.006-0.573
		C27.122,53.402,27.155,52.149,27.034,50.94L27.034,50.94z M27.778,51.053c-0.104,1.174-0.07,2.388-0.123,3.559
		c-0.01,0.181-0.006,0.359,0.002,0.541c1.721-0.136,3.559-0.563,5.059-1.585c0.131-0.086,0.256-0.177,0.377-0.272
		c-0.098-0.064-0.197-0.126-0.299-0.187C31.013,52.023,29.296,51.344,27.778,51.053L27.778,51.053z"/>
	<path fill="#42525E" d="M30.11,37.595l-2.896,0.589l-6.846-1.985c-0.031,0.136-0.062,0.271-0.096,0.408
		c-0.365,1.547-0.852,3.133-0.83,4.707c0.023,2.129,0.373,4.362,0.814,6.497c0.287,1.386,0.861,3.729,1.146,6.175
		c0.18,0.038,0.365,0.073,0.553,0.111c1.551,0.288,3.121,0.447,4.697,0.477c2.125,0.04,4.248-0.155,6.33-0.588
		c0.129-1.457,0.221-2.703,0.895-5.44c0.137-0.562,0.266-1.124,0.385-1.688c0.717-3.399,0.928-6.616-0.113-10.078L30.11,37.595
		L30.11,37.595z"/>
	<path fill="#E8E9EA" d="M30.11,37.595l-2.896,0.589l-6.846-1.985c-0.031,0.136-0.062,0.271-0.096,0.408
		c-0.365,1.547-0.852,3.133-0.83,4.707c0.023,2.129,0.373,4.362,0.814,6.497c0.287,1.386,0.861,3.729,1.146,6.175
		c0.18,0.038,0.365,0.073,0.553,0.111l-1.342-11.074c0,0,5.736-1.544,6.84-2.94c1.543,1.176,3.088,1.616,5.514,0.515
		C33.894,39.79,32.325,38.658,30.11,37.595z"/>
	<path fill="#E5B28F" d="M29.333,13.759c-0.043-0.167-0.076-0.336-0.115-0.504c-0.066-0.317,0.357-1.764,0.17-1.986
		c-0.156-0.186-0.75-0.074-1.309,0.047c-0.408,0.09-0.801,0.184-0.986,0.168l-2.061,0.079c0.006,0-0.053,2.431-0.105,2.635
		c-0.066,0.267-0.18,0.534-0.383,0.723c-0.35,0.324-1,0.268-1.588,0.483c-0.186,0.067-0.43,0.415-0.574,0.484
		c0,0,0.941,3.624,3.533,3.975c0.52,0.071,0.898-0.024,1.178-0.221c0.279,0.196,0.658,0.292,1.178,0.221
		c2.59-0.352,3.691-4.216,3.691-4.216l-1.842-0.494C29.544,14.875,29.479,14.336,29.333,13.759z"/>
	<path fill="#D6A483" d="M28.079,11.318c-0.408,0.09-0.801,0.184-0.986,0.168l-2.061,0.078c0.006,0-0.053,2.431-0.105,2.635
		c-0.049,0.19-0.121,0.38-0.23,0.541c1.309,0.255,2.699-0.119,3.758-0.924c0.721-0.865,0.707-1.719,0.641-1.779
		C28.769,11.736,28.427,11.496,28.079,11.318z"/>
	<path fill="#D2E9F9" d="M30.255,15.271c-0.234,0.921-0.48,1.866-1.031,2.642c-0.65,0.917-1.846,1.429-2.963,1
		c-1.549-0.598-1.451-2.173-2.039-3.456c-0.982,0.026-2.006,0.051-2.951,0.342c-0.25,0.078-2.504,1.21-2.1,1.662
		c0.846,0.942,1.045,2.129,1.666,3.229c0.117,0.207,0.197,0.429,0.256,0.656c0.031,0.112,0.057,0.229,0.074,0.347
		c0.049,0.274,0.076,0.558,0.105,0.837c0.002,0.003,0.002,0.007,0.002,0.01c0.043,0.444,0.092,0.886,0.227,1.289
		c0.566,1.67,1.111,3.295,0.971,5.161c-0.031,0.421-0.115,0.86-0.234,1.308c-0.109,0.642-0.318,1.259-0.564,1.865
		c-0.217,1.229-0.443,2.457-0.641,3.688c-0.078,0.487-0.154,0.979-0.248,1.463h13.072c-0.6-2.096-1.18-4.208-1.402-6.368
		c-0.133-0.462-0.227-0.933-0.244-1.424c0-0.009,0.004-0.016,0.004-0.022c-0.773-3.949,0.729-4.831,0.91-6.117
		c0.154-1.084-0.1-1.587,0.947-4.25c0.082-0.212,1.154-2.042,1.244-2.004c-0.896-0.387-1.75-0.896-2.697-1.153
		C31.812,15.75,31.04,15.572,30.255,15.271L30.255,15.271z"/>
	<path fill="#DDDDDD" d="M21.093,21.049c0.031,0.114,0.057,0.229,0.074,0.346c-0.01-0.127-0.016-0.255-0.02-0.383
		C21.128,21.024,21.112,21.035,21.093,21.049L21.093,21.049z"/>
	<path fill="#EFEFEF" d="M21.274,22.242c0.045,0.445,0.092,0.887,0.229,1.289c0.564,1.671,1.109,3.296,0.969,5.162
		c-0.119,1.603-1.004,3.493-1.619,4.945c-0.176,0.415-0.488,1.367-0.828,2.408c-0.096,0.292-0.191,0.592-0.289,0.889
		c0.42,0.272,0.746,0.482,1.104,0.694c0.902-2.527,2.371-6.845,2.371-8.229c0-2,2.473-4.12,2.473-4.12s-1.648,0-3.062-0.59
		C21.8,24.349,21.437,23.173,21.274,22.242z"/>
	<path fill="#A74214" d="M31.271,7.683c0.006-0.013,0-0.038-0.006-0.062C31.257,7.678,31.253,7.725,31.271,7.683z"/>
	<path fill="#F2C4A5" d="M29.011,4.347c-1.168-0.797-3.008-0.631-4.133,0.096c-2.043,1.316-1.562,4.43-0.887,6.42
		c0.23,0.678,0.281,1.416,0.895,1.912c0.068,0.055,0.135,0.109,0.201,0.166c0.396,0.332,0.801,0.68,1.314,0.857
		c0.213,0.073,0.408,0.093,0.596,0.084c0.012,0,0.021,0,0.031-0.001c0.211,0.016,0.424-0.013,0.625-0.083
		c0.549-0.19,0.971-0.571,1.393-0.921c0.043-0.035,0.092-0.06,0.125-0.101c0.963-1.271,1.617-2.891,1.395-4.742
		C30.429,6.916,30.015,5.031,29.011,4.347L29.011,4.347z"/>
	<path fill="#F2C4A5" d="M23.792,9.859c-0.01-0.066-0.016-0.131-0.01-0.203c-0.018-0.144-0.018-0.291-0.018-0.439
		c0-0.094,0.006-0.182,0.012-0.27c-0.062-0.058-0.139-0.098-0.221-0.117c-0.045-0.01-0.088-0.021-0.139-0.021
		c-0.121,0-0.258,0.028-0.334,0.126c-0.006,0.006-0.012,0.006-0.012,0.006c-0.076,0.104-0.072,0.247-0.021,0.368
		c0.004,0.007,0.004,0.017,0.012,0.022c0.043,0.109,0.115,0.209,0.158,0.318c0.021,0.045,0.033,0.094,0.043,0.139v0.005
		c0.039,0.143,0.051,0.286,0.072,0.429c0.033,0.193,0.088,0.391,0.23,0.521c0.006,0.006,0.012,0.012,0.018,0.012
		c0.049,0.044,0.104,0.07,0.158,0.099c0.066,0.027,0.32,0.156,0.387,0.167c0.006,0.006,0.02-0.023,0.023-0.023
		c-0.045-0.196-0.277-0.483-0.311-0.692C23.821,10.158,23.804,10.008,23.792,9.859L23.792,9.859z M30.521,9.086
		c-0.111,0.001-0.203,0.028-0.281,0.075c0.01,0.092,0.018,0.186,0.021,0.281c0.02,0.364,0.004,0.74-0.049,1.098
		c-0.027,0.213-0.074,0.424-0.135,0.631c0.109-0.031,0.213-0.076,0.297-0.153c0.145-0.13,0.199-0.331,0.229-0.522
		c0.029-0.19,0.041-0.39,0.115-0.568c0.051-0.118,0.127-0.223,0.172-0.342c0.049-0.12,0.061-0.266-0.02-0.369
		C30.792,9.113,30.649,9.083,30.521,9.086L30.521,9.086z"/>
	<path fill="#FFFFFF" d="M25.815,11.734c0.396,0.467,0.795,0.645,1.148,0.666c0.57,0.036,1.123-0.226,1.387-0.666
		c-0.4,0.053-0.807,0.081-1.213,0.084C26.694,11.82,26.253,11.792,25.815,11.734z"/>
	<path fill="#9B5F37" d="M29.292,7.77c-0.688-0.022-1.422,0.412-1.422,0.412l0.023,0.185c0,0,1.055-0.572,1.604-0.437
		c0.619,0.14,0.756,0.344,0.756,0.344S29.979,7.793,29.292,7.77L29.292,7.77z M23.761,8.304c0,0,0.137-0.207,0.756-0.344
		c0.551-0.139,1.604,0.436,1.604,0.436l0.023-0.184c0,0-0.734-0.436-1.422-0.413S23.761,8.304,23.761,8.304L23.761,8.304z"/>
	<path fill="#E0A575" d="M26.444,10.712l0.156,0.533l0.807,0.062l0.229-0.137l-0.779-0.139L26.444,10.712z"/>
	<path fill="#FFFFFF" d="M25.579,8.736c-0.23,0.07-0.764,0.201-0.93,0.367c-0.021,0.021,0.531,0.29,0.592,0.312
		c0.188,0.072,0.363,0.098,0.568,0.074c0.055-0.006,0.668-0.191,0.637-0.231C26.185,8.916,26.034,8.758,25.579,8.736z"/>
	<path fill="#A06350" d="M25.655,8.74c-0.205,0-0.371,0.166-0.371,0.371s0.166,0.371,0.371,0.371l0,0
		c0.203,0,0.369-0.166,0.369-0.371S25.858,8.74,25.655,8.74z"/>
	<path fill="#774A3E" d="M25.655,8.933c-0.1,0-0.178,0.079-0.178,0.178c0.004,0.096,0.086,0.172,0.184,0.168
		c0.092-0.002,0.166-0.076,0.17-0.168C25.831,9.012,25.753,8.933,25.655,8.933z"/>
	<path fill="#51301E" d="M25.999,8.73c-0.232-0.105-0.504-0.119-0.752-0.072c-0.383,0.073-0.699,0.219-1.092,0.258
		c0.043-0.004,0.283,0.191,0.379,0.207c0.168,0.029,0.27-0.021,0.418-0.074c0.508-0.18,1.154-0.34,1.492,0.199
		c-0.02-0.03-0.037-0.062-0.057-0.092C26.284,8.978,26.196,8.822,25.999,8.73z"/>
	<path fill="#FFFFFF" d="M27.597,9.164c-0.029,0.039,0.582,0.224,0.639,0.229c0.205,0.025,0.379-0.001,0.568-0.073
		c0.061-0.022,0.611-0.291,0.592-0.312c-0.166-0.167-0.699-0.296-0.932-0.368C28.009,8.662,27.86,8.822,27.597,9.164L27.597,9.164z"
		/>
	<path fill="#A06350" d="M28.39,8.644c-0.205,0-0.371,0.166-0.371,0.37c0,0.205,0.166,0.372,0.371,0.372
		c0.203,0,0.371-0.166,0.371-0.371S28.593,8.644,28.39,8.644z"/>
	<path fill="#774A3E" d="M28.39,8.838c-0.098,0-0.178,0.079-0.178,0.176c0,0.099,0.08,0.177,0.178,0.177s0.176-0.078,0.176-0.176
		S28.487,8.838,28.39,8.838z"/>
	<path fill="#51301E" d="M28.046,8.635c-0.199,0.09-0.285,0.248-0.393,0.426c-0.018,0.03-0.035,0.062-0.057,0.093
		c0.34-0.541,0.984-0.379,1.492-0.199c0.148,0.052,0.252,0.102,0.42,0.074c0.096-0.016,0.334-0.211,0.379-0.207
		c-0.393-0.041-0.709-0.186-1.094-0.259C28.548,8.515,28.276,8.529,28.046,8.635L28.046,8.635z"/>
	<path fill="#F2C4A5" d="M22.897,41.637c-0.273-0.073-0.729-0.06-1.006-0.016l0.072,0.546c0.277,0.047,0.57,0.013,0.828-0.1
		c0.08-0.035,0.291-0.11,0.301-0.197C23.104,41.751,23.011,41.668,22.897,41.637z"/>
	<path fill="#4F6678" d="M27.317,26.448c-0.102-0.141-0.203-0.281-0.309-0.429c-0.154-0.223-0.309-0.462-0.432-0.747
		c-0.281-0.646-0.633-1.456-0.988-2.336c-1.234-3.038-2.605-6.915-2.014-7.932v-0.003c-0.004-0.013-0.113,0.003-0.289,0.038
		c-0.43,0.085-1.266,0.303-1.986,0.556c-0.479,0.17-1.049,0.361-1.787,0.785c0.361,2.247,0.652,4.2,0.949,5.638
		c0.197,0.944,0.344,1.659,0.465,2.2c0.127,0.571,0.225,0.957,0.314,1.229c0.334,1.013,0.707,1.83,0.883,3.163
		c0.086,0.667,0.094,1.224,0.086,1.595c-1.656,3.621-1.896,6.094-2.602,9.753c-0.07,0.365-0.145,0.731-0.221,1.097
		c-0.047,0.226,1.746,0.415,1.924,0.447c0.271,0.044,0.551,0.076,0.836,0.094c0.205,0.015,0.418,0.02,0.629,0.017h0.01
		c1.354-0.022,2.75-0.388,3.723-1.306c0.201-0.188,0.381-0.396,0.537-0.624c0.244-0.365,0.402-0.724,0.508-1.088
		c0.219-0.753,0.209-1.523,0.299-2.374c0.131-1.297,0.271-2.567,0.252-3.882c-0.023-1.465-0.145-2.937-0.213-4.4
		C27.864,27.298,27.614,26.869,27.317,26.448L27.317,26.448z"/>
	<path fill="#465D6D" d="M26.278,23.794c-1.939-5.066-1.83-5.865-1.947-6.423c-0.117-0.556-0.096-1.108-0.053-1.668
		c0.041-0.534,0.229-0.751,0.479-1.236c-0.541,0.269-1.227,0.362-1.707,0.717c-0.479,0.354-0.945,0.729-1.42,1.088l1.127,1.09
		c0,0-1.711,0.068-1.555,0.239c0.215,0.236,0.307,0.723,0.43,1.01c0.352,0.817,0.75,1.613,1.197,2.382
		c1.25,2.139,2.812,3.78,4.525,5.556c-0.211-0.219,0.365-0.075,0.172-0.401C27.288,25.742,26.454,24.255,26.278,23.794
		L26.278,23.794z"/>
	<path fill="#E2E2E2" d="M21.272,22.527l-0.344,1.691c0.125,0.571,0.223,0.957,0.314,1.229c0.332,1.014,0.705,1.83,0.881,3.163
		c0.086,0.667,0.096,1.224,0.086,1.595c-1.656,3.621-1.896,6.094-2.6,9.753l1.703,1.544l-0.33-3.995l2.133-6.324l0.074-3.603
		l-0.98-2.036L21.272,22.527L21.272,22.527z"/>
	<g>
		<path fill="#4F6678" d="M32.603,30.478c-0.174-0.506-0.199-0.886-0.215-1.31v-0.005c-0.004-0.062-0.004-0.121-0.006-0.186
			c-0.039-1.421,0.414-2.3,0.809-3.53c0.088-0.272,0.137-0.448,0.178-0.649c0.061-0.299,0.107-0.664,0.262-1.509
			c0.064-0.379,0.152-0.856,0.273-1.468c0.246-1.271,0.426-3.117,0.953-5.355c0-0.003,0.002-0.009,0.002-0.012
			c0,0-4.326-1.892-4.266-1.791c1.014,1.735-3.357,11.668-3.357,11.668c-0.203,3.564-0.789,8.412,0.168,11.913
			c0.354,1.309,0.764,1.853,1.928,2.629c1.48,0.982,4.41,0.421,5.918-0.521c-0.426-2.047-0.734-3.427-1.09-4.768
			C33.7,33.864,33.183,32.161,32.603,30.478L32.603,30.478z"/>
		<path fill="#E2E2E2" d="M29.513,14.37c0.207,0.917,0.322,1.854,0.346,2.794c0.059,2.497-0.551,4.522-1.078,5.833
			C30.788,20.448,31.524,15.399,29.513,14.37z"/>
		<path fill="#465D6D" d="M32.735,16.272c-0.023,0.021-1.021-0.862-1.09-0.923c-0.619-0.523-1.354-1.126-2.182-1.273
			c0.225,0.502,0.582,1.104,0.65,1.649c0.203,1.616-0.26,3.256-0.762,4.776c-0.285,0.861-0.604,1.714-0.906,2.569
			c-0.154,0.438-0.307,0.876-0.447,1.318c-0.104,0.326-0.426,0.943-0.379,1.282c0.014,0.107-0.287,0.846-0.277,0.955
			c0.469-0.771,1.691-2.119,2.178-2.712c0.771-0.942,1.457-1.956,2.064-3.011c0.43-0.742,0.812-1.511,1.15-2.3
			c0.121-0.285,0.213-0.769,0.428-1.002c0.154-0.17-1.557-0.238-1.557-0.238L32.735,16.272L32.735,16.272z"/>
	</g>
	<path fill="#E2E2E2" d="M25.983,5.594c-0.162,0.069,2.752,2.069,3.41,3.413c0.658,1.343,1.492,5.852,1.541,5.999
		s0.637-5.979,0.49-5.979S29.073,4.271,25.983,5.594z"/>
	<path fill="#6D4429" d="M31.577,6.132c-1.066-1.86-2.713-3.659-5.061-3.314c-2.146,0.313-2.248,0.899-2.252,0.92
		c-0.633-0.074-1.051,0.434-1.32,0.904c-2.176,3.799-1.209,9.269,1.27,12.726c-0.121-1.285-0.205-2.425-0.701-3.614
		c-0.533-1.279-0.383-2.7-0.383-4.051c0.031-0.422-0.084-0.996,0.148-1.367c0.137,0.369,0.225,0.768,0.332,1.148
		c-0.16-0.572,0.062-1.664,0.229-2.225c0.203-0.688,0.809-1.301,1.215-1.893c-0.174,0.252,1.34,1.065,1.512,1.16
		c0.674,0.367,1.395,0.655,2.021,1.096c1.395,0.973,1.24,2.47,1.725,3.896c0.582,1.709,0.484,3.361,0.467,5.125
		c0-0.128,1.059-1.004,1.201-1.242c0.311-0.52,0.479-1.107,0.557-1.707c0.252-1.932,0.258-4.174-0.311-6.048
		C32.067,7.126,31.856,6.621,31.577,6.132L31.577,6.132z"/>
	<g>
		<path fill="#E5B28F" d="M37.044,43.233l-0.451,0.86c-0.143,0.231-0.248,0.5-0.166,0.77l0.043,0.185
			c0.051,0.038,0.098,0.079,0.146,0.115c0.035-0.007,0.068-0.016,0.104-0.021l1.24-1.516l-0.896-2.321L37.044,43.233L37.044,43.233z
			"/>
		<path fill="#F2C4A5" d="M38.042,35.445l-1.633-0.78l-0.336,2.69l-0.17,1.81c-0.195,0.776-0.729,2.107-0.607,2.923
			c0.117,0.796,0.055,1.126,0.027,2.075c-0.006,0.152,0.471-0.085,0.643-0.521c0.094-0.232,0.191-0.191,0.189-0.438
			c-0.002-0.432-0.006-0.864-0.01-1.295l0.402-0.067l0.992,1.792l-1.209,1.585c0.297,0.369,0.633,0.218,0.928-0.151l1.002-1.055
			l0.176-1.597l-0.684-2.846L38.042,35.445L38.042,35.445z"/>
		<path fill="#F2C4A5" d="M37.069,29.295c-0.152-0.543-0.225-1.423-0.254-2.401h-2.793l0.221,1.766l0.852,4.595l1.041,5.086
			l1.471,0.628c0.289-2.023,0.406-4.067,0.352-6.11C37.8,32.406,37.306,30.144,37.069,29.295L37.069,29.295z"/>
		<path fill="#4F6678" d="M36.425,19.53c-0.072-0.879-1.074-2.8-1.568-3.063c0-0.003-0.004-0.003-0.004-0.003
			c-0.225-0.118-0.348,0.82-0.389,1.044c-0.139,0.797-0.221,1.611-0.391,2.402c-0.355,1.632-0.646,2.089-0.811,3.503
			c0.021,0.284,0.045,0.6,0.07,0.932c0.012,0.147,0.021,0.297,0.033,0.453c0.121,1.642,0.256,3.618,0.361,4.965l0.23,1.592
			l1.238,8.506h2.748l0.193-7.55c0,0-0.295-1.566-0.883-4.214C36.765,25.869,36.567,21.215,36.425,19.53L36.425,19.53z"/>
		<path fill="#E2E2E2" d="M33.534,22.556c-0.504,1.479-0.688,3.48-1.717,4.559l0.568,2.049c-0.002-0.062-0.002-0.121-0.006-0.186
			c-0.037-1.421,0.414-2.3,0.811-3.53c0.088-0.272,0.135-0.448,0.176-0.649c0.121,1.642,0.256,3.618,0.363,4.965l0.23,1.592
			l0.111,0.124l0.367-4.191l-0.812-3.997L33.534,22.556L33.534,22.556z"/>
	</g>
	<g>
		<path fill="#F2C4A5" d="M20.149,37.117l-0.344-2.312l-0.945-2.537l-1.275,1.127c0.289,0.915,0.576,1.828,0.865,2.743
			c0.469,1.483,0.256,2.826,0.215,4.394c-0.004,0.176,0.193,0.742,0.24,0.911c0.039,0.14,0.084,0.241,0.143,0.326
			c0.084,0.121,0.193,0.222,0.318,0.298c0.299,0.186,0.658,0.185,1.373,0.233c0.723,0.05,0.842,0.085,1.164,0.037
			c0.223-0.034,0.439-0.091,0.648-0.172c-0.439-0.639-0.814-1.396-0.869-1.887c0.471,0.414,0.998,1.159,1.58,0.869
			c-0.488-0.776-1.381-1.803-1.789-2.562C21.04,37.777,20.067,37.385,20.149,37.117L20.149,37.117z"/>
	</g>
	<path fill="#4F6678" d="M21.384,23.114c-0.031,0.122-0.111,0.396-0.221,0.77c0.008,0.037,0.016,0.074,0.023,0.11
		C21.202,24.07,21.335,23.35,21.384,23.114z"/>
	<path fill="#4F6678" d="M19.999,18.25c-0.088-0.434-0.178-0.866-0.268-1.299c-0.061-0.287-0.059-0.541-0.207-0.58
		c-0.066-0.019-1.359,2.496-1.666,3.855c-0.371,1.652-0.84,3.387-1.336,5.613c-0.588,2.646-0.688,3.579-0.688,3.579
		c0.254,1.552,0.699,3.066,1.324,4.51c0.43,1.548,1.078,2.949,1.508,4.498c0.955-0.294,1.691-0.441,2.646-0.736
		c-0.303-1.228-0.561-2.466-0.771-3.713c-0.188-1.11-0.297-1.71-0.404-2.721c-0.105-0.266-0.248-1.042-0.332-1.397
		c-0.066-0.29-0.115-0.585-0.145-0.882c0.404-1.364,1.129-3.812,1.502-5.095C20.774,22.005,20.388,20.128,19.999,18.25z
		 M21.384,23.114c0.012-0.038,0.018-0.062,0.018-0.067C21.401,23.027,21.396,23.056,21.384,23.114z"/>
	<path fill="#465D6D" d="M27.087,25.766c0.285,1.101,0.727,3.8,0.588,5.785c-0.188,2.742,0.111,6.287-1.09,8.816
		c0.199-0.188,0.379-0.397,0.535-0.623c0.244-0.365,0.402-0.725,0.508-1.089c0.219-0.753,0.209-1.522,0.297-2.373
		c0.133-1.298,0.273-2.568,0.254-3.883c-0.023-1.465-0.168-2.935-0.213-4.399C27.897,25.655,27.495,26.354,27.087,25.766
		L27.087,25.766z"/>
	<path fill="#465D6D" d="M26.757,26.723c-0.305,0-0.553,0.247-0.553,0.551l0,0c0,0.305,0.248,0.552,0.551,0.552c0,0,0,0,0.002,0
		c0.305,0,0.551-0.246,0.551-0.552l0,0C27.31,26.97,27.062,26.723,26.757,26.723L26.757,26.723z M26.915,30.436
		c-0.305,0-0.551,0.247-0.551,0.551c0,0.306,0.246,0.553,0.551,0.553s0.551-0.248,0.551-0.554
		C27.466,30.683,27.22,30.436,26.915,30.436z M26.671,35.29c-0.305,0-0.553,0.247-0.553,0.551s0.248,0.552,0.553,0.552l0,0
		c0.305,0,0.551-0.248,0.551-0.552C27.222,35.536,26.976,35.29,26.671,35.29z"/>
	<g>
		<path fill="#CDBBB2" d="M59.231,80.173l-0.045,0.219c-0.121,0.599,0.104,1.213,0.584,1.588l0.125,0.1
			c0.26,0.204,0.578,0.32,0.908,0.336l1.953,0.085c0.119,0.005,0.238-0.01,0.355-0.03c0.256-0.208,0.498-0.449,0.676-0.596
			c0.105-0.085,0.205-0.176,0.305-0.264c-0.01-0.202-0.025-0.402-0.049-0.604L59.231,80.173L59.231,80.173z"/>
		<path fill="#303030" d="M63.646,79.869c-0.225-0.309-0.434-0.623-0.65-0.933c-0.168-0.239-0.336-0.606-0.568-0.8
			c-0.084-0.068-0.146-0.11-0.201-0.133c-0.227-0.094-0.266,0.153-0.674,0.25c-0.738,0.171-1.426-1.023-2.135-0.275
			c-0.322,0.343-0.145,1.054-0.131,1.47l-0.119,1.32l0.879,0.594c0.271,0.187,0.586,0.303,0.914,0.341l1.361,0.157
			c0.455,0.054,0.914-0.049,1.307-0.287c0.154-0.095,0.312-0.189,0.447-0.271c-0.023-0.288-0.059-0.576-0.105-0.861
			C63.862,80.248,63.741,80.062,63.646,79.869L63.646,79.869z"/>
		<path fill="#565656" d="M60.394,77.697l0.582,2.135c0,0,0.725-0.128,1.016-0.085c0,0,0-1.323-0.098-1.921
			C61.796,77.228,60.394,77.697,60.394,77.697z"/>
		<path fill="#444343" d="M61.7,78.808c0.338,0.384,1.791,1.365,1.791,1.365c0-0.684-1.162-2.049-1.162-2.049
			S62.038,78.252,61.7,78.808L61.7,78.808z M59.229,78.426l0.389,1.875l1.453-1.536l-0.969-0.982L59.229,78.426z"/>
		<path fill="#7E8287" d="M60.233,79.018l0.123,0.174c0.641-0.353,1.471-0.411,2.164-0.151l0.092-0.189
			C61.849,78.566,60.937,78.63,60.233,79.018z"/>
		<path fill="#7E8287" d="M60.321,79.381l0.115,0.178c0.627-0.314,1.406-0.378,2.09-0.167l0.076-0.193
			C61.858,78.968,61.007,79.036,60.321,79.381L60.321,79.381z M62.794,77.125c-0.24-0.124-0.588-0.096-0.832,0.062
			c-0.26,0.169-0.375,0.424-0.426,0.609c-0.062,0.226-0.064,0.456-0.066,0.68l-0.002,0.173l1.191-0.567
			c0.117-0.056,0.262-0.123,0.352-0.244c0.078-0.104,0.104-0.235,0.066-0.368C63.038,77.326,62.935,77.196,62.794,77.125z
			 M62.817,77.724c-0.061,0.079-0.17,0.132-0.27,0.179l-0.842,0.402c0.004-0.155,0.016-0.311,0.057-0.458
			c0.061-0.215,0.18-0.391,0.34-0.493c0.104-0.065,0.225-0.103,0.35-0.104c0.082,0,0.16,0.019,0.227,0.052
			c0.084,0.044,0.148,0.122,0.174,0.216C62.872,77.594,62.858,77.668,62.817,77.724L62.817,77.724z"/>
		<path fill="#7E8287" d="M60.562,77.057c-0.25-0.16-0.57-0.164-0.686,0.012c-0.105,0.164,0.02,0.349,0.061,0.408
			c0.35,0.512,0.916,0.914,1.557,1.105l0.203,0.061l-0.053-0.183C61.481,77.904,61.087,77.393,60.562,77.057L60.562,77.057z
			 M60.136,77.371c-0.062-0.093-0.082-0.162-0.057-0.2c0.006-0.011,0.021-0.035,0.086-0.035c0.072,0,0.178,0.035,0.26,0.087
			c0.418,0.268,0.746,0.658,0.922,1.09C60.851,78.117,60.415,77.782,60.136,77.371z"/>
		<path fill="#7E8287" d="M60.376,78.6l0.137,0.166c0.312-0.196,0.744-0.249,1.105-0.133l0.078-0.192
			C61.261,78.3,60.755,78.36,60.376,78.6L60.376,78.6z"/>
		<path fill="#CDBBB2" d="M56.042,80.029l-4.75,0.821c-0.02,0.26-0.041,0.52-0.059,0.778c0.195,0.16,0.404,0.309,0.598,0.473
			c0.088,0.074,0.176,0.148,0.264,0.226c0.111,0.023,0.229,0.037,0.346,0.031l2.105-0.091c0.279-0.012,0.549-0.112,0.771-0.285
			l0.408-0.319c0.342-0.271,0.504-0.709,0.418-1.138L56.042,80.029L56.042,80.029z"/>
		<path fill="#303030" d="M55.886,77.879c-0.693-0.762-1.402,0.421-2.139,0.236c-0.406-0.103-0.441-0.353-0.668-0.262
			c-0.055,0.022-0.121,0.062-0.203,0.129c-0.236,0.188-0.41,0.555-0.584,0.79c-0.283,0.389-0.547,0.793-0.852,1.168
			c0,0-0.016,0.018-0.035,0.045c-0.02,0.034-0.035,0.069-0.053,0.104c-0.029,0.362-0.059,0.725-0.088,1.086
			c0.119,0.076,0.248,0.157,0.375,0.237c0.371,0.234,0.811,0.34,1.246,0.297l1.414-0.14c0.314-0.03,0.617-0.138,0.881-0.311
			l0.906-0.589l-0.096-1.323C56.013,78.935,56.204,78.228,55.886,77.879L55.886,77.879z"/>
		<path fill="#565656" d="M53.378,77.682c-0.098,0.598-0.098,1.921-0.098,1.921c0.291-0.043,1.018,0.086,1.018,0.086l0.58-2.135
			C54.878,77.554,53.476,77.084,53.378,77.682L53.378,77.682z"/>
		<path fill="#444343" d="M52.942,77.98c0,0-1.162,1.366-1.162,2.049c0,0,1.451-0.98,1.791-1.365
			C53.233,78.109,52.942,77.98,52.942,77.98z M54.2,78.621l1.453,1.536l0.391-1.875l-0.875-0.644L54.2,78.621z"/>
		<path fill="#7E8287" d="M52.659,78.707l0.09,0.188c0.695-0.258,1.525-0.199,2.166,0.152l0.123-0.174
			C54.335,78.487,53.423,78.423,52.659,78.707L52.659,78.707z"/>
		<path fill="#7E8287" d="M52.669,79.056l0.078,0.193c0.68-0.212,1.461-0.148,2.086,0.167l0.117-0.179
			C54.265,78.893,53.413,78.823,52.669,79.056z M53.735,77.655c-0.051-0.186-0.168-0.44-0.428-0.609
			c-0.242-0.158-0.592-0.188-0.83-0.063c-0.141,0.071-0.246,0.2-0.283,0.347c-0.035,0.133-0.014,0.264,0.064,0.365
			c0.092,0.122,0.234,0.191,0.352,0.246l1.191,0.568L53.8,78.335C53.8,78.111,53.798,77.88,53.735,77.655z M52.722,77.759
			c-0.098-0.047-0.209-0.101-0.268-0.178c-0.043-0.058-0.055-0.132-0.033-0.208c0.025-0.093,0.088-0.17,0.174-0.215
			c0.064-0.033,0.145-0.052,0.227-0.052c0.121,0,0.25,0.037,0.35,0.104c0.16,0.104,0.279,0.277,0.34,0.493
			c0.039,0.146,0.053,0.303,0.057,0.459L52.722,77.759L52.722,77.759z"/>
		<path fill="#7E8287" d="M54.71,76.913c-0.525,0.337-0.92,0.849-1.082,1.402l-0.053,0.184l0.203-0.062
			c0.643-0.19,1.209-0.594,1.557-1.104c0.041-0.062,0.166-0.244,0.061-0.408C55.28,76.75,54.962,76.754,54.71,76.913z
			 M55.136,77.228c-0.279,0.412-0.713,0.746-1.213,0.941c0.178-0.433,0.506-0.821,0.924-1.09c0.082-0.053,0.188-0.087,0.262-0.087
			c0.062,0,0.078,0.023,0.086,0.034C55.218,77.066,55.198,77.136,55.136,77.228L55.136,77.228z"/>
		<path fill="#7E8287" d="M53.573,78.297l0.08,0.192c0.359-0.116,0.795-0.063,1.105,0.134l0.137-0.167
			C54.519,78.217,54.011,78.155,53.573,78.297L53.573,78.297z"/>
		<path fill="#1C3D51" d="M57.827,42.084l-7.949-0.46c-0.064,0.633-0.145,1.263-0.225,1.895l0.186,2.761
			c1.422,18.808,1.609,11.938,1.006,18.847c0.543,9.245,0.342,7.255,0.883,10.031c-0.309,1.977-0.547,2.287,0.195,3.471
			c1.787-0.719,3.971,0.966,3.971,0.966c0.943-3.836,0.279-0.554,0.879-6.232c-0.213-4.581-0.912-12.413,0.416-22.724
			c0.16-1.281,0.357-2.608,0.59-3.986c0.014-0.087,0.027-0.17,0.043-0.256c0.012,0.086,0.023,0.169,0.035,0.256
			c2.926,20.96,0.334,20.885,1.289,32.125c0,0,0.207-0.038,0.539-0.08c0.852-0.102,2.543-0.211,3.824,0.308
			c0.527-0.839,0.729-1.804,0.729-1.804l-0.318-2.038c0.543-2.777,0.295-0.698,1.162-10.55c-0.822-6.896-0.596-0.787,0.736-18.329
			l0.314-4.677l-7.678,0.443L57.827,42.084z"/>
		<path fill="#25485B" d="M57.817,46.396c0,0,1.621-3.607,1.621-4.5c-1.006-0.841-1.533-0.841-1.533-0.841L57.817,46.396
			L57.817,46.396z"/>
		<path fill="#E5B28F" d="M62.159,15.911l-1.258-0.495l-0.281-2.243l-2.523,0.345l-2.521-0.345l-0.016,0.108l-0.262,2.135
			l-0.752,0.294c-0.16,0.062-0.303,0.098-0.467,0.129c-0.078,0.017-0.154,0.046-0.225,0.087c-0.117,0.057-0.23,0.14-0.34,0.207
			c-0.07,0.046-0.146,0.092-0.193,0.165c-0.123,0.18,0.062,0.453,0.16,0.607c0.711,1.181,1.865,2.1,3.207,2.553
			c1.336,0.454,2.842,0.433,4.16-0.058c0.789-0.288,1.535-0.763,1.936-1.474S62.763,16.472,62.159,15.911L62.159,15.911z"/>
		<path fill="#D6A483" d="M55.298,15.416l-0.754,0.294c-0.158,0.062-0.301,0.098-0.465,0.129c-0.08,0.017-0.154,0.046-0.225,0.087
			c0.471,0.856,0.998,1.095,1.273,1.176c0.938,0.278,1.896-0.389,3.451-1.503c0.611-0.438,1.195-0.912,1.748-1.42l-4.771-0.896
			L55.298,15.416L55.298,15.416z"/>
		<g>
			<path fill="#E5B28F" d="M54.034,8.507l-0.031-0.02c-0.145-0.092-0.33-0.08-0.463,0.026l-0.107,0.085
				c-0.133,0.107-0.184,0.286-0.129,0.45c0.127,0.378,0.236,0.76,0.369,1.137c0.09,0.261,0.182,0.524,0.301,0.776
				c0.041,0.083,0.076,0.232,0.145,0.299c0.109,0.109,0.33,0.061,0.436,0.148l0.223,0.186c-0.225-0.975-0.324-1.852-0.562-2.838
				C54.19,8.654,54.124,8.564,54.034,8.507L54.034,8.507z"/>
			<path fill="#EDB996" d="M60.942,4.66c-0.393-0.004-0.994,0.381-1.375,0.523l-1.432-0.175c-0.783-0.095-1.703-0.371-2.479-0.368
				c-1.43,0.005-1.697,2.406-1.469,3.441l0.039,0.172l-0.055-0.042c0.266,1.307,0.363,2.446,0.6,3.723l0.473,1.519l2.119,1.26
				l0.748,0.046l0.746-0.046l1.988-1.358l0.4-1.381c0.186-1.319,0.596-2.642,0.564-3.961C61.796,7.223,62.286,4.671,60.942,4.66
				L60.942,4.66z"/>
			<path fill="#E5B28F" d="M61.999,8.406l-0.162,0.07l-0.021-0.042c0.029,1.065-0.381,2.129-0.564,3.193
				c0.01-0.062,0.256-0.095,0.305-0.106c0.414-0.093,0.379-0.311,0.479-0.604c0.105-0.309,0.215-0.617,0.32-0.924
				c0.096-0.272,0.277-0.61,0.291-0.896c0.01-0.182-0.07-0.34-0.207-0.456C62.384,8.596,62.054,8.382,61.999,8.406L61.999,8.406z"/>
		</g>
		<g>
			<path fill="#D6A483" d="M57.776,11.547l-0.441-0.347l0.156,0.605l0.949,0.161l0.428-0.505l-0.229,0.257L57.776,11.547z"/>
		</g>
		<g>
			<path fill="#FFFFFF" d="M58.872,9.763c0,0,0.674,0.596,1.424,0l0.023-0.089c-0.047-0.048-0.299-0.292-0.691-0.29
				C59.173,9.389,58.905,9.72,58.872,9.763z"/>
			<path fill="#6D4D46" d="M59.597,9.406c-0.182,0-0.326,0.14-0.326,0.312s0.145,0.314,0.326,0.314c0.18,0,0.326-0.142,0.326-0.314
				S59.776,9.406,59.597,9.406z"/>
			<g>
				<path fill="#5E413A" d="M58.823,9.641l0.049,0.122c0,0,0.58-0.559,1.527-0.089C60.507,9.333,59.423,9.141,58.823,9.641z"/>
			</g>
		</g>
		<path fill="#51372E" d="M59.595,9.566c-0.082,0-0.146,0.067-0.146,0.149s0.064,0.147,0.146,0.147c0.08,0,0.146-0.064,0.148-0.146
			V9.715C59.743,9.633,59.677,9.566,59.595,9.566z"/>
		<g>
			<path fill="#FFFFFF" d="M56.485,9.304c-0.393-0.004-0.645,0.24-0.691,0.289l0.023,0.089c0.799,0.64,1.424,0,1.424,0
				C57.208,9.638,56.94,9.308,56.485,9.304L56.485,9.304z"/>
			<path fill="#6D4D46" d="M56.519,9.324c-0.182,0-0.326,0.141-0.326,0.313s0.145,0.313,0.326,0.313s0.326-0.141,0.326-0.313
				S56.698,9.324,56.519,9.324z"/>
			<g>
				<path fill="#5E413A" d="M55.714,9.593c0.949-0.469,1.527,0.089,1.527,0.089l0.051-0.122C56.69,9.061,55.608,9.253,55.714,9.593
					L55.714,9.593z"/>
			</g>
		</g>
		<path fill="#51372E" d="M56.499,9.468c-0.082,0-0.146,0.066-0.146,0.148s0.064,0.148,0.146,0.148s0.146-0.066,0.146-0.148
			C56.647,9.535,56.581,9.468,56.499,9.468z"/>
		<g>
			<path fill="#5E413A" d="M58.935,8.617c-0.027,0.127-0.062,0.254-0.111,0.375l1.311-0.185l0.992,0.138l-0.979-0.473L58.935,8.617z
				"/>
		</g>
		<g>
			<path fill="#5E413A" d="M57.2,8.59l-1.295-0.163L54.999,8.9l1.051-0.078l1.445,0.201c0.004-0.051-0.025-0.1-0.062-0.146
				C57.339,8.791,57.257,8.691,57.2,8.59z"/>
		</g>
		<path fill="#F2F2F2" d="M68.097,23.455l-0.123-3.491l-1.916-3.638c-0.152-0.254-2.998-0.65-3.434-0.81
			c-0.168-0.062-1.428-0.501-1.428-0.604c-0.531,1.131-1.719,1.918-2.959,1.963c-1.242,0.044-2.482-0.656-3.092-1.748
			c-0.803,0.471-1.771,0.601-2.633,0.971c-0.975,0.419-1.992,0.634-2.992,0.993c0,0-0.418,2.425-0.518,2.722
			c-0.096,0.297-0.662,4.828-0.662,4.828l2.086-0.371l0.148,0.989l-0.143,2.766l-0.695,13.57L49.69,42.49l0.355,0.005l0.168,0.003
			l15.203,0.289c-0.256-12.613-0.021-9.641-0.844-16.021l0.363-2.572C66.245,23.472,66.911,23.763,68.097,23.455L68.097,23.455z"/>
		<g>
			<path fill="#CECECE" d="M57.825,42.086l-2.066-0.12c0.166-0.323,0.299-0.661,0.396-1.01c1.252-4.457,1.398-7.946,1.398-7.946
				l-4.568,2.822c0,0-1.805,3.053-2.855,5.808l-0.252-0.015c-0.066,0.637-0.145,1.271-0.227,1.907l0.184,2.748l0.736,9.708
				l0.629,5.063l-0.355,4.075l0.463,7.872l0.422,2.159l-0.314,2.038c0,0-0.014,0.595,0.514,1.433l0.078-1.257l-0.184-12.408
				l0.209-4.257L50.71,44.709c1.262-0.046,3.242-0.388,4.508-1.919l9.512-0.199c0,0-2.865-0.251-6.275-0.54L57.825,42.086
				L57.825,42.086z"/>
			<path fill="#A38B81" d="M55.271,14.74l-5.896,1.635l1.008,10.769c-0.037,1.952-0.053,3.247-0.072,4.286
				c-0.016,0.639-0.029,1.18-0.051,1.717c-0.082,2.029-0.268,4.012-0.875,10.882l1.98,0.048c2.854,0.07,5.211-3.102,5.328-5.923
				c0.283-1.656,0.482-3.326,0.598-5.003c0.057-0.829,0.096-1.685,0.109-2.566c0.006-0.276,0.01-0.56,0.01-0.841
				c0.002-1.588-0.072-3.174-0.221-4.753L55.271,14.74z"/>
			<path fill="#B29B93" d="M55.345,15.458l0.098-1.064l-2.703,1.362l1.5,0.99l-1.105,1.04l3.98,6.905l-0.736-3.713L55.345,15.458z"
				/>
		</g>
		<g>
			<path fill="#CECECE" d="M59.399,25.137c0,0-1.182,10.397-0.369,13.739c0.811,3.341,1.916,4.083,4.57,4.53
				C66.253,43.853,63.231,23.949,59.399,25.137L59.399,25.137z"/>
			<path fill="#A38B81" d="M61.536,14.988l-2.064,9.694c-0.641,4.668-0.615,9.404,0.072,14.065c0.006,0.338,0.064,2.268,1.627,3.772
				c0.982,0.948,2.424,1.982,3.887,1.917l1.539-0.066l-0.393-16.508l0.639-11.447L61.536,14.988L61.536,14.988z"/>
			<path fill="#B29B93" d="M60.726,14.345l0.098,1.188l-1.277,9.902l3.688-7.872l-0.959-0.891l1.031-0.965L60.726,14.345z"/>
		</g>
		<path fill="#EFEFEF" d="M58.071,30.484c-0.035,0.013-0.279,0.048-0.672,0.099c-1.486,0.189-5.072,0.611-7.092,0.847
			c-0.016,0.639-0.029,1.179-0.051,1.717c0.895-0.041,5.131-0.012,7.031,0.003c0.57,0.006,0.93,0.011,0.93,0.011l6.191-0.743
			C64.411,32.417,58.292,30.411,58.071,30.484L58.071,30.484z"/>
		<path fill="#D6A483" d="M57.481,32.537c1.318-0.026,2.197-0.344,2.271-0.344c0.156,0,4.348-0.672,4.348-0.802l-6.828-2.587
			C57.165,29.937,57.526,31.381,57.481,32.537L57.481,32.537z"/>
		<g>
			<path fill="#B29B93" d="M52.05,26.917l-0.002-0.016l-2.307-10.602l-0.424,0.113c-0.926,0.242-1.58,1.087-1.605,2.062
				l-0.158,6.969l-0.023,0.998l0.186,1.392l0.502,3.752l1.523,1.027l8.551,0.176l0.047-0.79l0.166-2.712l0.082-1.335l-6.523-1.03
				L52.05,26.917L52.05,26.917z"/>
		</g>
		<g>
			<path fill="#EFEFEF" d="M58.72,29.346c-0.07-0.02-0.145-0.041-0.215-0.062c-1.152-0.349-2.312-0.669-3.479-0.951
				c-0.805-0.194-1.738-0.192-2.451-0.664c-0.506-0.336-1.084-1.286-1.797-0.808c-0.217,0.146-0.326,0.412-0.344,0.671
				c-0.021,0.261,0.039,0.52,0.1,0.772c0.078,0.339,0.164,0.693,0.391,0.956c0.166,0.191,0.391,0.317,0.609,0.438
				c2.094,1.163,4.516,1.688,6.807,2.297c0.111,0.029,0.174,0.047,0.174,0.047l5.527,0.521l0.297-1.338
				c-0.139-0.05-0.277-0.1-0.416-0.151C62.204,30.449,60.468,29.875,58.72,29.346L58.72,29.346z"/>
			<path fill="#E5B28F" d="M58.729,28.252c-0.23,0-4.412-0.276-4.412-0.276l-2.326-2.305l-2.424-1.23l-1.576,0.219
				c-0.156,0.021-0.285,0.146-0.33,0.315c-0.047,0.173,0.076,0.345,0.236,0.327l1.65-0.179l0.785,0.398l0.426,0.325l-1.471-0.642
				l-1.531,0.236c-0.162,0.02-0.264,0.104-0.271,0.288c-0.014,0.24,0.172,0.431,0.381,0.394l1.322-0.233l1.145,0.713l0.023,0.186
				l-1.299-0.571l-1.434,0.455c-0.111,0.036-0.186,0.155-0.176,0.286c0.012,0.166,0.146,0.28,0.289,0.247l1.242-0.301l1.121,0.676
				c0,0,0.168,0.271-0.025,0.228c-0.191-0.044-0.912-0.307-1.066-0.307c-0.1,0-0.709,0.033-1,0.052
				c-0.15,0.01-0.264,0.16-0.25,0.332c0.012,0.156,0.312,0.089,0.449,0.09l0.754,0.198l1.059,0.645l0.357,0.345l2.242,0.913
				l2.861,0.433l4.992,0.757h3.383v-4.036l-2.131,0.45C61.726,27.679,58.958,28.252,58.729,28.252L58.729,28.252z"/>
			<path fill="#B29B93" d="M66.433,16.313l-1.666,7.621l-0.283,2.964l-8.797,0.438l0.121,3.967l9.576,1.048l3.383-0.79l0.398-5.124
				l-0.836-7.872C68.331,17.507,67.44,16.5,66.433,16.313L66.433,16.313z"/>
		</g>
		<g>
			<path fill="#E5B28F" d="M65.409,25.357l-0.227-0.007c0.027,0.001,0.195-0.244,0.207-0.272c0.064-0.184,0.016-0.288-0.209-0.35
				c-0.117-0.032-0.242-0.024-0.361-0.002c-0.621,0.119-1.309,0.527-1.738,0.981L62.136,27l2.369-0.14l1.336-0.958
				c0.137-0.079,0.193-0.226,0.143-0.363C65.903,25.332,65.618,25.24,65.409,25.357L65.409,25.357z"/>
		</g>
		<g>
			<path fill="#51372E" d="M54.804,4.565c-0.27,0.076-0.584,0.438-0.797,0.622l-0.41,0.984c-0.098,0.23-0.119,0.486-0.064,0.732
				l0.395,1.81l0.422,0.754c0.197-0.417,0.396-0.824,0.537-1.261c0.189-0.579,0.104-1.147,0.244-1.727
				c0.145-0.593,0.697-1.205,1.135-1.599c-0.318-0.087-0.779-0.3-1.158-0.336C54.995,4.535,54.896,4.539,54.804,4.565L54.804,4.565z
				 M60.649,4.623c-0.182,0.092-0.264,0.222-0.283,0.371c-0.061,0.482,0.373,0.85,0.559,1.246c0.205,0.438,0.316,0.912,0.447,1.375
				c0.105,0.377-0.027,0.722,0.076,1.08c0.07,0.24,0.268,0.424,0.24,0.686c0.162-0.329,0.418-0.686,0.516-1.037l0.344-1.255
				l-0.43-1.945C62.048,4.822,60.903,4.494,60.649,4.623L60.649,4.623z"/>
			<path fill="#5E413A" d="M62.276,4.597c-0.209-0.643-0.482-0.717-1.113-0.99c-1.455-0.63-2.561-1.457-4.232-0.951
				c-0.865,0.265-2.094,0.791-2.395,1.742c-0.023,0.076-0.035,0.155-0.035,0.234c-0.002,0.342,0.299,0.656,0.654,0.9
				c0.137,0.09,0.279,0.172,0.426,0.246c0.18,0.086,0.348,0.154,0.48,0.193c0.336,0.102,0.695,0.086,1.047,0.062
				c1.146-0.078,2.445-0.371,3.588-0.17c0.684,0.119,1.309,0.416,1.812,1.043c0.033,0.039,0.062,0.078,0.092,0.119
				c-0.051-0.068-0.031-0.343-0.01-0.619c0.004-0.054,0.01-0.106,0.014-0.157c0.002-0.052,0.008-0.101,0.012-0.146
				c0.006-0.092,0.012-0.172,0.008-0.229c0-0.019,0-0.033-0.002-0.046C62.565,5.393,62.409,5.012,62.276,4.597z"/>
			<path fill="#7C625D" d="M60.505,4.69c-0.025-0.002-0.057-0.008-0.082-0.012c-0.889-0.106-1.775,0.144-2.65,0.324
				c-0.902,0.188-1.881,0.294-2.713-0.11c0.334,0.419,0.834,0.695,1.361,0.754c0.9,0.102,1.746-0.4,2.633-0.578
				c0.438-0.087,0.883-0.087,1.318-0.01c0.729,0.127,1.422,0.467,1.973,0.962c0.086,0.075,0.168,0.156,0.248,0.241
				c0.002-0.053,0.01-0.107,0.012-0.157c0.004-0.052,0.01-0.102,0.012-0.146c-0.113-0.149-0.238-0.288-0.377-0.416
				C61.757,5.094,61.153,4.785,60.505,4.69L60.505,4.69z"/>
		</g>
		<path fill="#FFFFFF" d="M56.794,12.475c0.545,1.263,1.863,0.892,2.666,0.038C58.399,12.921,56.794,12.475,56.794,12.475z"/>
		<path fill="#EFEFEF" d="M57.188,50.638c0.16-1.281,0.357-2.608,0.59-3.987h-0.42L57.188,50.638z"/>
		<path fill="#CECECE" d="M59.423,46.65h-1.566c2.926,20.961,0.334,20.886,1.289,32.126c0,0,0.207-0.038,0.539-0.08
			c0.115-2.616,0.326-7.555,0.326-7.987c0-0.595,0.102-7.129,0.102-7.625S59.03,49.027,59.03,49.027L59.423,46.65z"/>
	</g>
</g>
</svg>
