<?xml version="1.0" encoding="utf-8"?>
<!-- Generator: Adobe Illustrator 16.0.0, SVG Export Plug-In . SVG Version: 6.00 Build 0)  -->
<!DOCTYPE svg PUBLIC "-//W3C//DTD SVG 1.1//EN" "http://www.w3.org/Graphics/SVG/1.1/DTD/svg11.dtd">
<svg version="1.1" id="Layer_1" xmlns="http://www.w3.org/2000/svg" xmlns:xlink="http://www.w3.org/1999/xlink" x="0px" y="0px"
	 width="85px" height="85px" viewBox="0 0 85 85" enable-background="new 0 0 85 85" xml:space="preserve">
<g>
	<path fill-rule="evenodd" clip-rule="evenodd" fill="#65B096" d="M45.479,82.3c-1.974,0.275-3.963,0.233-5.932,0.072
		c-7.749-0.631-14.681-3.431-20.777-8.214C10.58,67.732,5.459,59.396,3.882,49.067C2.27,38.507,4.32,28.66,10.42,19.816
		c6.134-8.893,14.496-14.57,25.155-16.621c7.655-1.473,15.148-0.601,22.256,2.543c13.157,5.82,20.652,16.137,23.289,30.133
		c0.344,1.82,0.531,3.676,0.489,5.54c-0.7-0.696-1.283-1.495-1.917-2.247c-3.608-4.281-7.186-8.589-10.719-12.933
		c-1.822-2.24-3.63-4.491-5.515-6.678c-0.174-0.16-0.275-0.388-0.489-0.509c-0.686-0.977-1.277-2.014-1.92-3.018
		c-0.236-0.773-0.85-1.259-1.377-1.811c-0.408-0.366-0.7-0.881-1.296-1.007c-0.317-0.113-0.552-0.347-0.806-0.55
		c-3.684-2.956-7.947-4.481-12.592-4.933c-5.099-0.496-9.947,0.435-14.457,2.93c-1.146,0.634-2.212,1.388-3.215,2.23
		c-0.211,0.178-0.406,0.377-0.674,0.471c-0.732,0.292-1.277,0.767-1.502,1.552c-1.312,1.659-2.506,3.391-3.337,5.349
		c-0.789,1.86-1.325,3.779-1.497,5.806c-0.199,2.335,0.033,4.653,0.15,6.977c0.003,0.075,0.011,0.15,0.012,0.226
		c0.007,1.057,0.138,1.562-1.289,0.934c-2.558-1.127-5.575,1.07-5.291,3.991c0.292,3.004,1.077,5.928,2.848,8.479
		c0.826,1.189,1.902,2.07,3.253,2.578c0.615,0.231,0.908,0.59,1.007,1.244c0.129,0.849,0.047,1.701,0.179,2.551
		c0.648,4.166,3.049,7.062,6.577,9.133c0.623,0.365,1.057,0.771,1.288,1.469c0.568,1.72,1.555,3.195,2.795,4.506
		c0.173,0.183,0.352,0.359,0.456,0.595c0.105,0.726,0.662,1.172,1.09,1.679c3.009,3.562,6.07,7.078,9.138,10.59
		c0.678,0.775,1.327,1.232,2.356,1.086C45.08,82.069,45.327,82.078,45.479,82.3z"/>
	<path fill-rule="evenodd" clip-rule="evenodd" fill="#539C83" d="M63.534,19.405c0.953,0.888,1.684,1.968,2.518,2.958
		c1.771,2.099,3.488,4.242,5.225,6.369c1.517,1.856,3.013,3.728,4.548,5.568c1.745,2.09,3.511,4.162,5.301,6.213
		c0.247,0.282,0.291,0.619,0.484,0.899c0.301,7.035-1.257,13.67-4.534,19.863c-5.357,10.127-13.588,16.767-24.638,19.858
		c-2.273,0.637-4.591,1.069-6.959,1.166c-1.885,0.392-2.877-0.781-3.896-2.088c-1.134-1.453-2.44-2.771-3.649-4.169
		c-1.845-2.131-3.672-4.278-5.5-6.424c-0.181-0.212-0.288-0.47-0.256-0.764c0.869,0.21,1.432,0.84,2.009,1.453
		c1.3,1.128,2.838,1.879,4.309,2.738c1.044,0.609,2.184,1.017,3.249,1.58c0.399,0.211,0.793,0.262,1.225,0.07
		c3.127-1.386,6.191-2.888,8.887-5.028c1.924-1.529,3.383-3.417,4.17-5.776c0.215-0.644,0.564-1.123,1.187-1.473
		c2.601-1.463,4.655-3.464,5.943-6.199c0.751-1.595,1.141-3.271,1.073-5.024c-0.037-0.948,0.245-1.5,1.162-1.914
		c2.287-1.032,3.581-2.98,4.476-5.243c0.62-1.568,1.051-3.197,1.386-4.839c0.599-2.932-1.279-5.108-3.79-5.507
		c-0.552-0.087-1.14,0.052-1.69,0.255c-0.66,0.243-0.799,0.135-0.779-0.586c0.042-1.553,0.049-3.105,0.122-4.66
		c0.137-2.857-0.378-5.639-1.448-8.308C63.54,20.084,63.298,19.771,63.534,19.405z"/>
	<path fill-rule="evenodd" clip-rule="evenodd" fill="#020202" d="M33.999,70.286c-0.608-0.477-1.215-0.954-1.823-1.431
		c-1.602-1.606-2.838-3.444-3.514-5.625c-0.123-0.396-0.422-0.522-0.728-0.691c-3.186-1.755-5.482-4.276-6.614-7.773
		c-0.469-1.449-0.45-2.972-0.556-4.473c-0.022-0.313-0.033-0.557-0.415-0.684c-2.581-0.858-4.117-2.761-5.092-5.197
		c-0.701-1.753-1.194-3.567-1.523-5.427c-0.33-1.862,0.27-3.387,1.754-4.514c1.415-1.074,2.932-1.021,4.451-0.169
		c0.062,0.035,0.136,0.045,0.241,0.078c0-0.609,0.012-1.196-0.002-1.781c-0.073-3.006-0.439-6.017,0.288-9.001
		c0.781-3.206,2.23-6.062,4.375-8.568c0.08-0.093,0.139-0.204,0.207-0.306c0.343-0.643,0.855-1.116,1.476-1.481
		c2.545-2.189,5.386-3.876,8.632-4.758c8.403-2.282,16.155-1.04,23.076,4.445c0.078,0.061,0.166,0.109,0.249,0.164
		c0.521,0.184,0.778,0.676,1.174,1.006c0.558,0.562,1.125,1.117,1.491,1.834c0.671,0.989,1.354,1.969,1.884,3.045
		c0.735,1.066,1.058,2.307,1.421,3.519c0.878,2.931,0.832,5.935,0.606,8.947c-0.057,0.751,0.024,1.506-0.046,2.258
		c-0.034,0.372,0.16,0.437,0.47,0.297c1.552-0.701,2.992-0.475,4.271,0.609c1.552,1.315,1.991,2.984,1.491,4.951
		c-0.487,1.921-0.92,3.857-1.808,5.646c-1,2.016-2.405,3.629-4.594,4.414c-0.411,0.147-0.472,0.445-0.486,0.829
		c-0.059,1.603-0.124,3.2-0.683,4.739c-1.128,3.108-3.207,5.41-6.023,7.046c-0.836,0.486-1.329,1.054-1.655,1.976
		c-0.859,2.427-2.456,4.349-4.514,5.874c-2.634,1.952-5.554,3.396-8.536,4.722c-0.278,0.124-0.558,0.194-0.868,0.054
		c-2.745-1.24-5.424-2.596-7.883-4.353C34.112,70.447,34.026,70.393,33.999,70.286z"/>
	<path fill-rule="evenodd" clip-rule="evenodd" fill="#619482" d="M33.999,70.286c2.506,1.733,5.19,3.146,7.959,4.402
		c0.283,0.129,0.526,0.204,0.848,0.06c2.893-1.291,5.728-2.683,8.315-4.53c2.446-1.747,4.211-4,5.061-6.91
		c0.133-0.455,0.466-0.613,0.817-0.808c3.098-1.709,5.431-4.091,6.623-7.491c0.525-1.496,0.55-3.056,0.617-4.606
		c0.021-0.489,0.134-0.738,0.637-0.92c2.219-0.802,3.596-2.488,4.563-4.554c0.945-2.015,1.519-4.156,1.848-6.338
		c0.249-1.652-0.429-3.07-1.784-4.073c-1.278-0.946-2.677-1.052-4.122-0.362c-0.13,0.062-0.265,0.116-0.416,0.182
		c0-1.043-0.053-2.037,0.01-3.023c0.224-3.532,0.165-7.027-1.146-10.387c-0.256-0.654-0.532-1.3-0.799-1.949
		c0.366-0.091,0.311,0.316,0.505,0.428c0.642,1.811,1.351,3.611,1.553,5.536c0.16,1.531,0.417,3.06,0.146,4.622
		c-0.135,0.781-0.029,1.603-0.042,2.405c-0.011,0.645,0.054,1.289-0.084,1.996c0.614-0.124,1.106-0.341,1.646-0.429
		c2.293-0.374,4.693,2.004,4.778,4.082c0.075,1.843-0.545,3.542-1.058,5.255c-0.444,1.487-1.059,2.907-2.032,4.161
		c-0.899,1.158-1.98,2.06-3.325,2.611c-0.506,0.208-0.705,0.475-0.682,1.002c0.144,3.108-0.797,5.875-2.734,8.288
		c-1.234,1.537-2.732,2.797-4.484,3.71c-0.526,0.275-0.789,0.658-0.956,1.17c-0.982,3.014-2.989,5.206-5.556,6.956
		c-2.431,1.657-5.051,2.955-7.731,4.145c-0.367,0.163-0.721,0.169-1.087,0.002c-2.574-1.177-5.088-2.463-7.42-4.081
		C34.255,70.69,34.04,70.568,33.999,70.286z"/>
	<path fill-rule="evenodd" clip-rule="evenodd" fill="#74A896" d="M61.146,15.932c-0.519-0.599-1.038-1.197-1.558-1.796
		c0.056-0.077,0.114-0.08,0.178-0.009c0.628,0.378,0.944,1.047,1.438,1.552C61.277,15.754,61.232,15.862,61.146,15.932z"/>
	<path fill-rule="evenodd" clip-rule="evenodd" fill="#75AB99" d="M26.524,13.242c-0.492,0.494-0.984,0.988-1.476,1.481
		C25.262,13.952,25.795,13.5,26.524,13.242z"/>
	<path fill-rule="evenodd" clip-rule="evenodd" fill="#74A997" d="M59.766,14.127c-0.06,0.003-0.119,0.006-0.178,0.009
		c-0.369-0.348-0.738-0.696-1.107-1.044C59.141,13.15,59.385,13.722,59.766,14.127z"/>
	<path fill-rule="evenodd" clip-rule="evenodd" fill="#FAC38A" d="M48.357,47.761c-0.286-0.703-0.729-1.294-1.277-1.812
		c-0.338-0.236-0.572-0.559-0.77-0.914c-0.905-1.633-1.896-3.218-2.685-4.68c0.237,1.107,0.527,2.403,0.78,3.706
		c0.187,0.959,0.476,1.903,0.479,2.895c0.008,1.852-1.187,3.107-3.059,3.214c-0.167,0-0.334,0.008-0.472-0.112
		c-0.505-0.346-1.086-0.581-1.671-0.542c-0.617,0.041-0.883-0.248-1.067-0.72c-0.197-0.509-0.126-0.978,0.292-1.373
		c0.164-0.155,0.408-0.208,0.52-0.423c0.4-0.648,0.077-0.977-0.524-1.182c0.025-0.041,0.058-0.074,0.097-0.101
		c-0.113-0.02-0.233-0.022-0.34-0.001c-0.066,0.013,0.04,0.056,0.04,0.097c-2.149,0.833-2.598,2.73-1.137,5.019
		c-1.351,0.225-2.548-0.108-3.636-0.824c-0.667-0.439-1.256-0.995-1.907-1.462c-0.341-0.245-0.738-0.411-1.109-0.613
		c-0.241-0.243-0.536-0.063-0.803-0.098c-0.097-0.013-0.149,0.043-0.049,0.028c0.01-0.002,0.027,0.035,0.041,0.055
		c-0.696,0.253-1.227,0.688-1.517,1.385c-0.207,0.482-0.147,0.955,0.045,1.426c0.007,0.185,0.091,0.348,0.187,0.486
		c0.326,0.468,0.304,0.895-0.005,1.378c-0.418,0.654-0.45,1.43-0.475,2.174c-0.049,1.474-0.123,2.948-0.091,4.425
		c0.006,0.283,0.124,0.661-0.226,0.802c-0.282,0.113-0.487-0.189-0.715-0.325c-0.188-0.11-0.294-0.351-0.557-0.343
		c-2.351-1.948-3.83-4.381-3.951-7.481c-0.312-7.951-0.592-15.905-0.848-23.859c-0.056-1.728,0.109-3.451,0.724-5.097
		c0.383-0.472,0.507-1.075,0.822-1.588c2.793-4.558,6.606-7.867,11.7-9.627c2.183-0.646,4.389-1.092,6.674-1.267
		c1.944-0.148,3.824,0.081,5.719,0.375c0.526,0.163,1.05,0.354,1.618,0.237c0.211-0.001,0.41,0.053,0.609,0.116
		c4.525,2.185,7.372,5.77,8.781,10.548c0.788,2.674,0.728,5.406,0.527,8.146c-0.014,0.175-0.05,0.35-0.043,0.525
		c0.085,2.186-0.122,4.366-0.193,6.546c-0.065,2.008-0.099,4.014-0.108,6.021c-0.007,1.254,0.24,2.501,0.145,3.759
		c-0.122,1.6-0.112,3.216-0.582,4.772c-0.32,1.064-0.729,2.086-1.501,2.921c-0.078,0.058-0.16,0.062-0.244,0.013
		c-0.156-0.783-0.3-1.576-0.779-2.24c-0.254-0.351,0.021-0.552,0.147-0.796c0.704-1.353,0.595-2.175-0.431-3.142
		c-0.407-0.388-0.916-0.392-1.429-0.382c-0.101,0.002-0.155,0.026-0.055,0.021c0.003,0,0.008,0.045,0.013,0.068
		c-0.733,0.219-1.269,0.743-1.849,1.199c-0.602,0.474-1.189,0.968-1.918,1.245c-0.245,0.068-0.446-0.007-0.595-0.205
		C49.151,49.414,48.584,48.683,48.357,47.761z"/>
	<path fill-rule="evenodd" clip-rule="evenodd" fill="#6B4230" d="M52.365,54.94c0.61-0.476,1.245-0.924,1.821-1.438
		c0.44-0.394,0.58-0.214,0.653,0.239c0.056,0.345,0.117,0.692,0.124,1.04c0.046,2.397,0.349,4.808-0.127,7.188
		c-0.598,2.993-2.401,5.191-4.813,6.935c-2.188,1.58-4.622,2.722-7.042,3.887c-0.31,0.148-0.599,0.204-0.931,0.038
		c-2.846-1.428-5.773-2.724-8.193-4.863c-2.157-1.907-3.598-4.169-3.841-7.152c-0.174-2.141,0.111-4.256,0.052-6.383
		c0-0.025-0.001-0.052,0.006-0.075c0.104-0.328,0.031-0.795,0.353-0.95c0.335-0.162,0.527,0.289,0.783,0.459
		c0.497,0.333,0.95,0.729,1.422,1.101c0.342,0.912,0.131,1.88,0.288,2.815c0.553,3.298,2.373,4.688,5.716,4.32
		c0.1-0.012,0.199-0.018,0.299-0.009c0.255,0.039,0.455,0.192,0.668,0.319c2.016,1.188,4.014,1.139,5.993-0.091
		c0.168-0.104,0.312-0.25,0.517-0.288c0.123,0.013,0.204,0.093,0.283,0.175c0.21,0.208,0.475,0.291,0.756,0.26
		c0.996-0.107,1.992-0.225,2.885-0.735c0.097-0.055,0.249-0.078,0.217-0.252c1.773-1.545,1.922-3.67,2.063-5.794
		C52.334,55.438,52.356,55.189,52.365,54.94z"/>
	<path fill-rule="evenodd" clip-rule="evenodd" fill="#6A4230" d="M36.711,54.807c-2.884-0.446-5.051-1.941-6.516-4.459
		c-0.184-0.314-0.309-0.671,0.061-0.938c0.381-0.273,0.584,0.085,0.813,0.298c1.708,1.59,3.634,2.667,6.054,2.562
		c0.397-0.018,0.828-0.026,1.179-0.184c0.906-0.404,1.762-0.439,2.725-0.133c1.224,0.391,2.483,0.202,3.698-0.182
		c0.323-0.103,0.642-0.18,0.951-0.038c2.436,1.111,4.641,0.505,6.73-0.904c0.476-0.32,0.912-0.702,1.352-1.073
		c0.286-0.241,0.547-0.608,0.962-0.298c0.458,0.342,0.15,0.728-0.04,1.064c-1.245,2.203-3.182,3.488-5.576,4.145
		c-0.311,0.085-0.64,0.099-0.96,0.146c-1.021-0.126-2.039,0.014-3.057,0.011c-2.57-0.009-5.141,0.1-7.709-0.062
		C37.157,54.747,36.928,54.722,36.711,54.807z"/>
	<path fill-rule="evenodd" clip-rule="evenodd" fill="#FAC38B" d="M18.904,35.867c1.132,0.614,1.39,1.685,1.484,2.841
		c-0.116,0.948-0.013,1.901-0.056,2.85c-0.011,0.255,0.125,0.568-0.219,0.729c-0.727-0.458-0.707-1.217-0.752-1.932
		c-0.041-0.642-0.109-1.252-0.655-1.691c-0.243-0.196-0.503-0.333-0.827-0.274c-0.516,0.095-0.718,0.556-0.342,0.915
		c0.408,0.389,0.46,0.817,0.488,1.339c0.08,1.458,0.725,2.59,2.116,3.194c0.269,0.116,0.474,0.206,0.467,0.566
		c-0.021,1.101-0.007,2.202-0.007,3.353c-0.549-0.142-1.026-0.53-1.484-0.937c-1.178-1.043-1.893-2.389-2.416-3.842
		c-0.483-1.343-0.842-2.723-1.085-4.131c0.072-0.451,0.098-0.901-0.012-1.351c0.147-0.966,0.705-1.551,1.648-1.778
		C17.807,35.727,18.359,35.761,18.904,35.867z"/>
	<path fill-rule="evenodd" clip-rule="evenodd" fill="#FAC38B" d="M52.365,54.94c0.643,1.942-0.394,5.219-2.109,6.674
		c-1.243,0.834-2.594,1.078-4.051,0.743c0.002-0.089,0.003-0.178,0.005-0.267c0.016-0.326,0.253-0.535,0.423-0.775
		c0.516-0.731,0.828-1.539,0.94-2.423c0.085-0.668-0.02-0.807-0.708-0.813c-1.725-0.02-3.45-0.007-5.176-0.008
		c-1.125,0-2.25-0.005-3.375,0.003c-0.344,0.003-0.713-0.05-0.955,0.294c-0.146,0.191-0.292,0.384-0.333,0.618
		c0.124-0.018,0.01-0.272,0.2-0.263c0.304,0.177,0.25,0.451,0.202,0.726c-0.234,0.497-0.505,0.498-0.653-0.021
		c-0.16-0.562-0.464-1.088-0.303-1.739c0.146-0.594-0.136-0.803-0.748-0.687c-0.466,0.089-1.601-0.406-1.832-0.801
		c-0.164-0.279-0.049-0.417,0.241-0.463c0.132-0.005,0.252,0.019,0.339,0.131c0.134,0.229,0.349,0.202,0.563,0.183
		c0.926,0.206,1.862,0.334,2.813,0.329c0.001,0.025,0.008,0.052,0.002,0.075c-0.083,0.298-0.692,0.261-0.495,0.712
		c0.179,0.408,0.599,0.3,0.933,0.301c2.808,0.01,5.616,0.014,8.424-0.005c0.354-0.003,0.962,0.184,0.944-0.408
		c-0.015-0.508-0.589-0.268-0.923-0.337c-0.422-0.088-0.951,0.216-1.243-0.343c1.001-0.021,2.01,0.029,3.001-0.079
		C49.877,56.147,51.159,55.634,52.365,54.94z"/>
	<path fill-rule="evenodd" clip-rule="evenodd" fill="#D18C4A" d="M68.921,40.806c-0.446,1.891-1.1,3.689-2.336,5.226
		c-0.583,0.724-1.288,1.293-2.126,1.715c0-1.226-0.003-2.39,0.001-3.555c0.002-0.307,0.265-0.311,0.47-0.392
		c1.301-0.512,1.978-1.513,2.069-2.867c0.047-0.688,0.036-1.34,0.632-1.823c0.078-0.063,0.072-0.229,0.105-0.348
		c-0.364-0.507-0.877-0.6-1.382-0.209c-0.483,0.373-0.718,0.881-0.712,1.501c0.004,0.581-0.083,1.148-0.331,1.68
		c-0.086,0.185-0.215,0.378-0.445,0.337c-0.282-0.051-0.191-0.312-0.196-0.495c-0.025-1.102,0.045-2.203,0.101-3.301
		c0.064-1.281,0.967-2.327,2.008-2.509c1.622-0.284,2.838,1.135,2.558,2.986C69.206,39.438,68.846,40.078,68.921,40.806z"/>
	<path fill-rule="evenodd" clip-rule="evenodd" fill="#FDFDFD" d="M35.044,11.887c-1.771,0.702-3.484,1.507-5.04,2.628
		c-2.958,2.13-5.322,4.765-6.962,8.034c-0.072,0.144-0.063,0.427-0.368,0.338c1.071-3.654,3.11-6.683,6.141-8.958
		c5.04-3.783,10.713-5.182,16.956-4.169c0.096,0.077,0.208,0.125,0.321,0.171c0.07,0.027,0.145,0.044,0.212,0.077
		c0.215,0.105,0.551,0.168,0.474,0.478c-0.088,0.352-0.417,0.171-0.639,0.142c-3.678-0.486-7.255-0.018-10.766,1.105
		C35.26,11.77,35.123,11.772,35.044,11.887z"/>
	<path fill-rule="evenodd" clip-rule="evenodd" fill="#FAC38B" d="M34.135,55.738c-0.066,0.098-0.208,0.221-0.186,0.29
		c0.113,0.347,1.456,0.929,1.763,0.763c0.262-0.142,0.636-0.273,0.731-0.024c0.12,0.315,0.622,0.594,0.234,1.058
		c-0.152,0.183,0.218,1.726,0.406,1.837c0.034,0.021,0.152-0.101,0.231-0.156c0.113-0.016,0.201,0.032,0.239,0.133
		c0.308,0.83,0.709,1.602,1.341,2.239c0.087,0.088,0.125,0.216,0.051,0.345c-3.495,0.773-5.944-1.115-6.29-4.892
		c-0.072-0.782-0.19-1.576-0.023-2.366C33.133,55.222,33.634,55.48,34.135,55.738z"/>
	<path fill-rule="evenodd" clip-rule="evenodd" fill="#D18D4B" d="M41.827,50.17c0.419-0.161,0.852-0.293,1.254-0.487
		c1.332-0.642,1.878-1.916,1.543-3.546c-0.436-2.121-0.871-4.242-1.17-6.423c1.209,2.079,2.417,4.157,3.626,6.236
		c-0.194-0.038-0.392-0.116-0.583-0.104c-0.355,0.025-0.724,0.125-0.856,0.498c-0.143,0.401,0.204,0.562,0.468,0.748
		c0.079,0.056,0.138,0.14,0.205,0.21c0.111,0.444,0.319,0.867,0.29,1.342c-0.159,0.733-0.593,1.034-1.361,1.091
		c-0.81,0.059-1.603,0.319-2.405,0.478C42.501,50.278,42.155,50.375,41.827,50.17z"/>
	<path fill-rule="evenodd" clip-rule="evenodd" fill="#FBFBFB" d="M45.493,56.376c0.556,0.225,1.135,0.048,1.7,0.105
		c0.359,0.036,0.826-0.173,0.831,0.522c0.004,0.676-0.38,0.699-0.873,0.698c-2.733-0.006-5.467-0.002-8.2-0.001
		c-0.376,0-0.754-0.021-1.128,0.006c-0.464,0.034-0.766-0.062-0.82-0.609c-0.059-0.601,0.291-0.645,0.728-0.639
		c0.04,0.001,0.081-0.051,0.12-0.078C40.398,56.379,42.945,56.378,45.493,56.376z"/>
	<path fill-rule="evenodd" clip-rule="evenodd" fill="#C49062" d="M56.598,54.384c0.049-0.005,0.098-0.011,0.146-0.017
		c0.215,0.187,0.225,0.447,0.213,0.695c-0.058,1.258,0.233,2.5,0.166,3.759c-0.012,0.211-0.096,0.499,0.151,0.61
		c0.203,0.092,0.359-0.131,0.512-0.253c2.341-1.874,3.802-4.222,4.049-7.279c0.091-1.13,0.097-2.255,0.13-3.384
		c0.108-3.785,0.252-7.57,0.412-11.354c0.062-1.453,0.243-2.903,0.185-4.36c-0.064-1.609,0.188-3.204,0.164-4.814
		c-0.062-4.141-1.319-7.838-3.927-11.069c-0.646-0.802-1.502-1.405-2.104-2.248c-0.006-0.145,0.022-0.261,0.207-0.243
		c3.364,2.77,5.302,6.352,6.034,10.618c0.438,2.551,0.159,5.114,0.079,7.669c-0.162,5.167-0.36,10.333-0.585,15.498
		c-0.08,1.827,0.051,3.678-0.412,5.473c-0.775,3.005-2.711,5.107-5.421,6.886C56.598,58.377,56.598,56.381,56.598,54.384z"/>
	<path fill-rule="evenodd" clip-rule="evenodd" fill="#C29062" d="M69.262,38.852c0.055-1.086-0.031-2.104-1.111-2.743
		c-1.239-0.733-2.903-0.036-3.199,1.803c-0.189,1.183-0.221,2.43-0.207,3.652c0.002,0.142-0.04,0.335,0.153,0.373
		c0.175,0.034,0.246-0.133,0.313-0.266c0.247-0.48,0.283-0.995,0.291-1.527c0.016-1.179,0.718-1.946,1.666-1.897
		c0.349,0.018,0.593,0.106,0.568,0.515c-0.825-0.648-1.782-0.185-1.954,0.96c-0.063,0.42-0.076,0.848-0.114,1.272
		c-0.028,0.303-0.115,0.59-0.271,0.852c-0.158,0.267-0.394,0.581-0.677,0.521c-0.338-0.071-0.15-0.467-0.152-0.711
		c-0.006-1.002,0.021-2.004,0.043-3.007c0.013-0.583,0.134-1.142,0.418-1.66c0.615-1.124,1.713-1.62,2.833-1.279
		c0.981,0.298,1.746,1.48,1.657,2.604c-0.028,0.345-0.062,0.7-0.246,1.013C69.156,39.171,69.164,39.012,69.262,38.852z"/>
	<path fill-rule="evenodd" clip-rule="evenodd" fill="#CC8C4E" d="M48.357,47.761c0.478,0.738,0.961,1.474,1.431,2.217
		c0.126,0.2,0.269,0.349,0.51,0.38c-0.854,0.468-1.757,0.626-2.875,0.481C48.24,49.892,48.436,48.861,48.357,47.761z"/>
	<path fill-rule="evenodd" clip-rule="evenodd" fill="#C78D54" d="M56.902,14.427c-0.051,0.051-0.102,0.102-0.153,0.152
		c-0.324,0.096-0.507-0.161-0.718-0.31c-1.902-1.347-3.908-2.486-6.132-3.234c-0.45-0.151-0.133,0.188-0.236,0.228
		c-0.15-0.049-0.3-0.097-0.45-0.146c-0.106,0.068-0.189,0.005-0.275-0.046c-0.218-0.184-0.48-0.228-0.754-0.245
		c-0.192-0.042-0.374-0.096-0.392-0.339c0.115-0.34,0.372-0.233,0.618-0.21c0.267,0.025,0.509,0.224,0.794,0.113
		C52.079,11.146,54.667,12.45,56.902,14.427z"/>
	<path fill-rule="evenodd" clip-rule="evenodd" fill="#68493B" d="M36.711,54.807c0.187-0.185,0.424-0.12,0.643-0.12
		c3.384-0.004,6.768-0.004,10.15,0c0.219,0,0.457-0.065,0.641,0.126C44.333,54.967,40.522,55.122,36.711,54.807z"/>
	<path fill-rule="evenodd" clip-rule="evenodd" fill="#EDC7A0" d="M26.749,59.325c0.428-0.238,0.532,0.252,0.791,0.38
		c0.368,0.183,0.599,0.336,0.563-0.255c-0.101-1.652,0.146-3.294,0.153-4.942c0.003-0.602,0.061-1.213,0.365-1.737
		c0.329-0.565,0.471-1.081,0.048-1.658c-0.093-0.127-0.081-0.332-0.117-0.502c-0.069-0.072-0.062-0.135,0.023-0.188
		c0.042,0.061,0.087,0.117,0.126,0.179c0.525,0.827,0.57,1.598,0.049,2.511c-0.449,0.784-0.301,1.761-0.33,2.662
		c-0.031,0.951-0.059,1.902-0.087,2.854c-0.041,0.472,0.06,0.95-0.068,1.417c0.121,0.286,0.167,0.493-0.252,0.257
		C27.544,60.037,27.125,59.709,26.749,59.325z"/>
	<path fill-rule="evenodd" clip-rule="evenodd" fill="#EBC5A0" d="M39.43,47c0.103,0.301-0.191,0.288-0.322,0.381
		c-0.483,0.343-0.539,0.814-0.402,1.323c0.141,0.525,0.499,0.728,1.06,0.717c0.596-0.011,1.17,0.151,1.59,0.637
		c-0.7-0.111-1.325-0.478-2.09-0.437c-0.493,0.027-0.738-0.535-0.83-1.028c-0.097-0.524,0.002-1.002,0.458-1.335
		C39.05,47.142,39.25,47.084,39.43,47z"/>
	<path fill-rule="evenodd" clip-rule="evenodd" fill="#C19061" d="M49.204,10.39c-0.201,0.186-0.41,0.103-0.63,0.035
		c-0.264-0.081-0.54-0.16-0.739,0.136c-0.801,0.236-1.271-0.504-1.939-0.657c-0.042-0.048-0.083-0.096-0.125-0.144
		C46.95,9.776,48.084,10.046,49.204,10.39z"/>
	<path fill-rule="evenodd" clip-rule="evenodd" fill="#F0CEA6" d="M20.113,42.288c0.296-0.615,0.082-1.271,0.15-1.903
		c0.061-0.558-0.145-1.135,0.124-1.677c0.157,1.167,0.004,2.339,0.071,3.509C20.484,42.661,20.254,42.377,20.113,42.288z"/>
	<path fill-rule="evenodd" clip-rule="evenodd" fill="#F2CAA1" d="M54.064,47.913c-0.047-0.015-0.093-0.029-0.14-0.044
		c0.312-0.327,1.364-0.106,1.61,0.337C55.058,48.043,54.582,47.871,54.064,47.913z"/>
	<path fill-rule="evenodd" clip-rule="evenodd" fill="#C89465" d="M69.262,38.852c0.003,0.158,0.007,0.317,0.011,0.475
		c-0.117,0.493-0.234,0.986-0.352,1.479C68.691,40.095,69.044,39.485,69.262,38.852z"/>
	<path fill-rule="evenodd" clip-rule="evenodd" fill="#EEC8A0" d="M18.904,35.867c-0.563,0.103-1.108-0.013-1.651-0.147
		C17.823,35.546,18.377,35.558,18.904,35.867z"/>
	<path fill-rule="evenodd" clip-rule="evenodd" fill="#C7966A" d="M46.604,48.644c-0.054-0.456-0.373-0.855-0.29-1.342
		C46.654,47.696,46.755,48.143,46.604,48.644z"/>
	<path fill-rule="evenodd" clip-rule="evenodd" fill="#F2CBA1" d="M28.575,50.422c-0.008,0.063-0.016,0.127-0.023,0.189
		c-0.263-0.435-0.146-0.895-0.09-1.351c0-0.005,0.045-0.011,0.065-0.004c0.022,0.009,0.04,0.03,0.059,0.046
		C28.582,49.676,28.579,50.049,28.575,50.422z"/>
	<path fill-rule="evenodd" clip-rule="evenodd" fill="#F7D1A7" d="M15.604,37.498c0.219,0.449,0.2,0.899,0.012,1.351
		C15.507,38.399,15.458,37.949,15.604,37.498z"/>
	<path fill-rule="evenodd" clip-rule="evenodd" fill="#F3CDA5" d="M30.103,47.918c-0.066-0.036-0.231-0.117-0.151-0.131
		c0.332-0.056,0.68-0.099,1.014,0.023c0.007,0.002,0.006,0.046-0.003,0.066c-0.009,0.021-0.032,0.037-0.049,0.056
		C30.643,47.928,30.373,47.923,30.103,47.918z"/>
	<path fill-rule="evenodd" clip-rule="evenodd" fill="#FAC38A" d="M28.266,60.044c0.025-0.472-0.099-0.951,0.068-1.417
		C28.352,59.102,28.44,59.579,28.266,60.044z"/>
	<path fill-rule="evenodd" clip-rule="evenodd" fill="#FAC38B" d="M35.037,56.052c-0.274,0.205-0.477,0.191-0.563-0.183
		C34.662,55.93,34.849,55.99,35.037,56.052z"/>
	<path fill-rule="evenodd" clip-rule="evenodd" fill="#FCD0A3" d="M38.703,45.813c-0.062-0.03-0.125-0.061-0.188-0.09
		c0.196-0.138,0.391-0.146,0.583,0.007c-0.064,0.029-0.128,0.059-0.192,0.088C38.838,45.816,38.77,45.815,38.703,45.813z"/>
	<path fill-rule="evenodd" clip-rule="evenodd" fill="#D18C4A" d="M49.663,11.263c-0.115-0.159-0.23-0.317-0.352-0.482
		c1.552,0.135,4.949,1.872,7.438,3.798c3.364,2.796,5.314,6.417,5.991,10.687c0.292,1.84,0.369,3.735,0.052,5.608
		c-0.041,0.245-0.016,0.501-0.01,0.752c0.064,3.282-0.285,6.55-0.345,9.83c-0.054,2.975-0.227,5.949-0.277,8.928
		c-0.033,1.98-0.309,3.93-1.351,5.695c-0.868,1.471-2.038,2.652-3.38,3.678c-0.327,0.251-0.525,0.194-0.535-0.287
		c-0.035-1.702-0.098-3.402-0.15-5.104c0.691-1.165,1.35-2.344,1.57-3.707c0.349-2.156,0.44-4.316,0.306-6.505
		c-0.131-2.126-0.128-4.264,0.027-6.395c0.017-0.225,0.045-0.449,0.051-0.673c0.061-2.307,0.053-4.617,0.201-6.918
		c0.09-1.405,0.167-2.81,0.102-4.208c-0.304-6.5-3.213-11.413-9.005-14.524C49.886,11.378,49.774,11.321,49.663,11.263z"/>
	<path fill-rule="evenodd" clip-rule="evenodd" fill="#030202" d="M56.287,34.336c0.116,0.129,0.243,0.251,0.348,0.39
		c0.256,0.339,0.377,0.718,0.196,1.126c-0.182,0.411-0.534,0.549-0.972,0.584c-1.95,0.156-3.891,0.398-5.814,0.76
		c-0.145,0.027-0.284,0.084-0.426,0.128c-0.315,0.166-0.637,0.312-1.008,0.199c-0.145,0.022-0.291,0.038-0.434,0.069
		c-1.011,0.222-1.291,0.048-1.66-1.037v-0.075c0.13-0.618,0.543-0.893,1.134-1.042c1.824-0.461,3.676-0.756,5.544-0.959
		c0.246-0.027,0.489-0.082,0.733-0.124C54.714,34.242,55.497,33.878,56.287,34.336z"/>
	<path fill-rule="evenodd" clip-rule="evenodd" fill="#030202" d="M29.807,34.305c2.646,0.166,5.075,0.529,7.463,1.154
		c0.854,0.223,1.204,0.693,1.043,1.359c-0.174,0.722-0.69,0.992-1.589,0.797c-2.432-0.528-4.877-0.957-7.365-1.116
		c-0.864-0.056-1.22-0.429-1.168-1.131c0.053-0.728,0.505-1.083,1.347-1.063C29.689,34.309,29.84,34.305,29.807,34.305z"/>
	<path fill-rule="evenodd" clip-rule="evenodd" fill="#070605" d="M47.864,42.316c-0.037-0.398,0.306-0.549,0.527-0.757
		c2.333-2.203,6.267-2.133,8.492,0.151c0.157,0.16,0.497,0.277,0.316,0.627c-0.295,0.2-0.631,0.13-0.95,0.131
		c-2.553,0.005-5.106,0.006-7.659-0.003C48.339,42.465,48.091,42.445,47.864,42.316z"/>
	<path fill-rule="evenodd" clip-rule="evenodd" fill="#060504" d="M27.36,42.296c2.063-3.024,7.286-3.133,9.419-0.193
		c0.041,0.057,0.043,0.14,0.064,0.211c-0.233,0.204-0.52,0.155-0.792,0.156c-2.61,0.004-5.22,0.004-7.83,0
		C27.926,42.469,27.613,42.521,27.36,42.296z"/>
	<path fill-rule="evenodd" clip-rule="evenodd" fill="#FCF9EE" d="M45.896,9.904c0.646,0.219,1.293,0.438,1.939,0.657
		c0.114,0.138,0.274,0.108,0.424,0.118c0.086,0.039,0.119,0.104,0.099,0.197c-0.189,0.254-0.427,0.174-0.663,0.093
		c-1.38-0.234-2.774-0.418-4.168-0.426c-2.153-0.012-4.288,0.256-6.38,0.797c-0.701,0.182-1.402,0.365-2.102,0.548
		c0.999-0.66,2.166-0.835,3.297-1.06c1.635-0.326,3.297-0.529,4.967-0.519c1.038,0.007,2.076,0.156,3.114,0.248
		c0.102,0.009,0.193,0.038,0.266-0.091C46.539,10.127,46.005,10.302,45.896,9.904z"/>
	<path fill-rule="evenodd" clip-rule="evenodd" fill="#F7C896" d="M27.36,42.296c3.161,0.006,6.322,0.012,9.483,0.018
		c-0.042,0.376-0.332,0.307-0.57,0.307c-2.746,0.004-5.492,0.002-8.238,0.003C27.756,42.623,27.473,42.638,27.36,42.296z"/>
	<path fill-rule="evenodd" clip-rule="evenodd" fill="#F8C895" d="M47.864,42.316c3.112,0.007,6.224,0.015,9.336,0.021
		c-0.05,0.323-0.299,0.284-0.521,0.284c-2.729,0-5.459,0.002-8.188-0.01c-0.215-0.001-0.43-0.107-0.643-0.168
		c-0.014-0.005-0.027-0.044-0.024-0.065S47.851,42.337,47.864,42.316z"/>
	<path fill-rule="evenodd" clip-rule="evenodd" fill="#F6CDA2" d="M56.287,34.336c-0.789-0.312-1.571,0.13-2.358,0.018
		c-0.218-0.022-0.435-0.045-0.652-0.067c0.854-0.058,1.68-0.342,2.534-0.255C56.01,34.052,56.338,33.908,56.287,34.336z"/>
	<path fill-rule="evenodd" clip-rule="evenodd" fill="#FBEED0" d="M47.694,10.968c0.211-0.038,0.462,0.067,0.618-0.17
		c0.291-0.105,0.51,0.067,0.741,0.192c0.053,0.042,0.105,0.084,0.159,0.126C48.666,11.479,48.189,11.133,47.694,10.968z"/>
	<path fill-rule="evenodd" clip-rule="evenodd" fill="#F0CBA4" d="M48.611,37.522c0.336-0.066,0.672-0.133,1.008-0.199
		c0.072,0.032,0.214,0.119,0.181,0.123C49.406,37.495,49.024,37.84,48.611,37.522z"/>
	<path fill-rule="evenodd" clip-rule="evenodd" fill="#FCD2A5" d="M28.032,35.209c0.081,0.175,0.098,0.335-0.015,0.504
		C27.929,35.538,27.915,35.378,28.032,35.209z"/>
	<path fill-rule="evenodd" clip-rule="evenodd" fill="#FCD2A6" d="M46.518,36.479l0.025,0.038l-0.025,0.037
		c-0.03,0.063-0.06,0.126-0.09,0.189c-0.122-0.151-0.122-0.303,0.002-0.453C46.459,36.354,46.488,36.417,46.518,36.479z"/>
	<path fill-rule="evenodd" clip-rule="evenodd" fill="#030202" d="M38.946,62.222c-0.774-0.768-1.301-1.684-1.631-2.717
		c-0.045-0.27-0.09-0.538-0.135-0.807c-0.138-0.068-0.104-0.154-0.026-0.245c-0.043-0.466,0.144-0.636,0.632-0.634
		c3.207,0.013,6.413,0.003,9.62-0.018c0.381-0.002,0.47,0.137,0.451,0.479c-0.08,1.476-0.486,2.805-1.646,3.811
		C44.49,63.682,41.371,64.112,38.946,62.222z"/>
	<path fill-rule="evenodd" clip-rule="evenodd" fill="#6E4225" d="M46.205,62.357c1.408,0.066,2.785-0.035,4.051-0.743
		c0.069,0.052,0.102,0.144,0.031,0.183c-1.202,0.666-2.471,0.995-3.849,0.726C46.354,62.506,46.282,62.414,46.205,62.357z"/>
	<path fill-rule="evenodd" clip-rule="evenodd" fill="#FAC38B" d="M37.153,58.453c0.009,0.081,0.018,0.163,0.026,0.245
		c-0.018,0.117-0.035,0.234-0.077,0.511C36.988,58.837,36.927,58.633,37.153,58.453z"/>
	<path fill-rule="evenodd" clip-rule="evenodd" fill="#C19061" d="M49.054,10.99c-0.247-0.064-0.494-0.128-0.741-0.192
		c-0.019-0.04-0.037-0.079-0.054-0.119C48.578,10.643,48.864,10.693,49.054,10.99z"/>
	<path fill-rule="evenodd" clip-rule="evenodd" fill="#6A4230" d="M46.004,59.942c-0.705,1.506-2.038,2.051-3.545,2.056
		c-1.551,0.005-2.757-0.765-3.466-2.202c0.024-0.345,0.254-0.364,0.531-0.364c1.98,0.008,3.961,0.016,5.941-0.006
		C45.873,59.422,46.001,59.586,46.004,59.942z"/>
	<path fill-rule="evenodd" clip-rule="evenodd" fill="#67493D" d="M46.004,59.942c-0.119-0.304-0.303-0.447-0.669-0.443
		c-1.899,0.021-3.801,0.016-5.701,0.004c-0.278-0.002-0.482,0.077-0.642,0.293c-0.226-0.312-0.296-0.521,0.238-0.514
		c2.116,0.027,4.233,0.045,6.349,0.039C46.099,59.32,46.294,59.438,46.004,59.942z"/>
</g>
</svg>
