<?xml version="1.0" encoding="utf-8"?>
<!-- Generator: Adobe Illustrator 16.0.0, SVG Export Plug-In . SVG Version: 6.00 Build 0)  -->
<!DOCTYPE svg PUBLIC "-//W3C//DTD SVG 1.1//EN" "http://www.w3.org/Graphics/SVG/1.1/DTD/svg11.dtd">
<svg version="1.1" id="Layer_1" xmlns="http://www.w3.org/2000/svg" xmlns:xlink="http://www.w3.org/1999/xlink" x="0px" y="0px"
	 width="85px" height="85px" viewBox="0 0 85 85" enable-background="new 0 0 85 85" xml:space="preserve">
<g>
	<path d="M72.49,53.113c0.398,0.637,0.336,1.221-0.174,1.771c-0.771,0.836-1.188,1.873-1.635,2.898
		c-3.854,8.846-10.609,13.77-20.164,14.902c-1.848,0.221-3.688,0.131-5.52-0.156c-0.387-0.062-0.684,0.01-0.986,0.285
		c-1.271,1.16-2.693,2.117-4.199,2.945c-0.936,0.516-1.555,1.258-1.865,2.285c-0.719,2.363-2.26,3.854-4.713,4.346
		c-0.037,0.008-0.062,0.072-0.092,0.109c-0.678,0-1.355,0-2.031,0c-0.998-0.16-1.975-0.416-2.943-0.699
		c-0.566-0.164-1.133-0.152-1.691,0.02c-0.99,0.303-1.996,0.535-3.021,0.68c-0.678,0-1.354,0-2.031,0
		c-2.578-0.393-4.09-1.988-4.838-4.379c-0.355-1.139-1.15-1.834-2.117-2.383c-1.98-1.129-3.764-2.508-5.373-4.117
		c-0.295-0.295-0.564-0.611-0.811-0.949c-0.633-0.871-0.612-1.221,0.123-2.047c0.873-0.373,1.479-0.277,2.094,0.434
		c1.621,1.873,3.557,3.35,5.717,4.529c1.504,0.822,2.424,2.092,2.969,3.672c0.285,0.826,0.645,1.598,1.422,2.086
		c0.93,0.58,1.934,0.852,2.977,0.414c2.627-1.1,5.219-0.975,7.811,0.09c1.65,0.373,3.322-0.311,3.834-1.895
		c0.783-2.434,2.33-4.057,4.568-5.141c0.537-0.26,0.965-0.705,1.494-0.979c-0.494-0.045-0.951-0.256-1.42-0.422
		c-3.322-1.193-6.121-3.199-8.639-5.619c-0.717-0.688-1.512-1.031-2.506-1.064c-3.686-0.123-6.215-2.74-6.266-6.422
		c-0.016-1.064,0.059-2.129-0.098-3.195c-0.117-0.799,0.35-1.373,1.314-1.676c1.764-0.555,3.557-1.008,5.332-1.516
		c5.607-1.598,11.223-3.164,16.828-4.764c0.535-0.104,1.055-0.289,1.584-0.412c0.463-0.109,0.506-0.312,0.332-0.723
		c-0.707-1.666-1.674-3.174-2.783-4.592c-1.129-1.443-2.461-2.682-3.926-3.775c-2.484-1.857-3.9-4.338-4.344-7.4
		c-0.225-1.549-0.537-3.068-1.49-4.389c-1.309-1.811-3.055-2.854-5.258-3.154c-0.236-0.002-0.469-0.002-0.705-0.002
		c-0.383-0.002-0.576,0.182-0.588,0.564c-0.01,0.342-0.074,0.672-0.248,0.975c-0.303,0.527-0.918,0.855-1.438,0.711
		c-0.602-0.166-0.986-0.545-1.061-1.203c-0.123-1.092-0.232-1.168-1.367-1.016c-2.943,0.391-5.525,2.758-6.17,5.674
		c-0.195,0.891-0.377,1.783-0.535,2.682c-0.465,2.643-1.816,4.771-3.922,6.363c-2.73,2.064-4.926,4.553-6.485,7.592
		c-1.212,2.361-1.928,4.877-2.216,7.521c-0.471,4.322,0.368,8.381,2.344,12.232c0.604,1.176,0.518,1.588-0.336,2.332
		c-0.975,0.312-1.531,0.104-2.027-0.863c-1.422-2.768-2.486-5.645-2.603-8.799c-0.004-0.104-0.004-0.205-0.081-0.287
		c0-0.469,0-0.939,0-1.406c0.125-0.469,0.125-0.938,0-1.406c0-0.209,0-0.418,0-0.625c0.117-0.156,0.117-0.312,0-0.469
		c0-0.262,0-0.521,0-0.781c0.173-2.35,0.695-4.613,1.592-6.793c1.66-4.041,4.19-7.43,7.684-10.053
		c1.893-1.42,3.066-3.209,3.453-5.543c0.215-1.307,0.404-2.621,0.918-3.867c1.469-3.549,5.123-6.326,9.182-6.299
		c0.33,0.002,0.717,0.078,0.914-0.287c0.172-0.32,0.357-0.734,0.213-1.039c-0.17-0.359-0.609-0.129-0.914-0.078
		c-1.828,0.303-3.641,0.58-5.5,0.166c-4.141-0.92-7.302-4.1-8.072-8.277c-0.279-1.508-0.594-3.02-0.607-4.562
		c-0.016-1.584,0.828-2.627,2.383-2.893c1.279-0.219,2.57-0.395,3.875-0.395c0.271-0.037,0.559,0.082,0.818-0.082
		c0.574,0,1.146,0,1.719,0c0.594,0.281,1.031,0.67,0.973,1.402c-0.053,0.764-0.438,1.158-1.318,1.145
		c-1.596-0.021-3.143,0.328-4.707,0.535c-0.955,0.127-1.008,0.229-0.873,1.217c0.119,1.088,0.273,2.168,0.482,3.24
		c0.6,3.074,3.066,5.422,6.143,6.006c1.436,0.271,2.791-0.08,4.178-0.223c0.232-0.023,0.459-0.088,0.695-0.094
		c1.721-0.254,1.516-0.156,1.273-1.711c-0.254-1.613-0.344-3.256-1.105-4.766c-0.568-1.125-1.443-1.959-2.35-2.781
		c-0.699-0.637-0.807-1.127-0.387-1.805c0.811-0.748,1.213-0.771,2.1-0.082c2.242,1.746,3.535,4.041,3.949,6.842
		c0.029,0.207,0.057,0.412,0.092,0.617c0.008,0.047,0.047,0.09,0.105,0.197c0.42-0.5,0.811-0.994,1.23-1.461
		c0.75-0.838,1.611-1.551,2.576-2.131c0.713-0.428,1.4-0.301,1.768,0.305c0.355,0.586,0.189,1.217-0.502,1.66
		c-3.314,2.119-4.693,5.422-5.562,9.041c-0.123,0.512,0.203,0.473,0.523,0.484c2.918,0.102,5.309,1.307,7.232,3.473
		c1.586,1.787,2.215,3.969,2.527,6.262c0.342,2.512,1.543,4.441,3.584,5.955c3.328,2.467,5.783,5.658,7.395,9.479
		c0.242,0.578,0.451,0.736,1.105,0.551c9.381-2.678,18.771-5.318,28.156-7.971c1.617-0.457,1.879-0.279,2.396,1.342
		c1.104,3.461,0.82,6.709-1.352,9.705c-1.182,1.629-2.797,2.689-4.605,3.484c-0.686,0.301-1.205,0.02-1.611-0.549
		c-0.393-0.711-0.203-1.311,0.6-1.775c0.785-0.455,1.639-0.787,2.336-1.402c2.188-1.93,3.102-4.301,2.566-7.197
		c-0.027-0.141-0.072-0.281-0.057-0.418c-0.328,2.992-1.688,5.299-4.449,6.676c-0.723,0.361-1.451,0.711-2.162,1.09
		c-2.48,1.32-4.086,3.355-5.109,5.961c-1.771,4.516-4.818,7.994-8.979,10.471c-3.473,2.064-7.215,3.102-11.297,3.082
		c-4.844-0.021-9.148-1.482-13.012-4.344c-0.773-0.572-1.525-1.182-2.174-1.898c-1.203-1.336-2.738-1.967-4.494-2.041
		c-1.037-0.045-1.938-0.324-2.695-1.068c0.047,1.83,1.793,2.971,3.145,2.959c2.191-0.018,3.855,0.975,5.373,2.449
		c3.486,3.389,7.689,5.254,12.527,5.713c5.627,0.535,10.662-1,15.154-4.355c3.072-2.297,5.273-5.293,6.742-8.826
		c0.521-1.256,1.059-2.49,1.93-3.553c0.385-0.467,0.832-0.783,1.463-0.762C72.047,52.643,72.371,52.711,72.49,53.113z"/>
	<path fill="#272727" d="M2.517,54.377c0.243,0.469,0.259,0.938,0,1.406C2.517,55.314,2.517,54.846,2.517,54.377z"/>
	<path fill="#545454" d="M17.646,2.635c0.016-0.043,0.023-0.088,0.025-0.133c0.262,0,0.521,0,0.781,0
		C18.213,2.717,17.934,2.695,17.646,2.635z"/>
	<path fill="#5D5D5D" d="M2.517,53.283c0.233,0.156,0.196,0.311,0,0.469C2.517,53.596,2.517,53.439,2.517,53.283z"/>
	<path fill="#FED150" d="M72.49,53.113c-0.885-0.549-1.354-0.479-2.02,0.309c-0.779,0.922-1.338,1.971-1.791,3.086
		c-3.012,7.41-8.439,12.029-16.273,13.533c-7.193,1.383-13.555-0.588-18.875-5.648c-1.449-1.381-3.004-2.217-5.041-2.246
		c-1.957-0.027-3.314-1.514-3.439-3.549c0.236-0.082,0.293,0.146,0.4,0.25c0.684,0.664,1.49,1.039,2.447,1.041
		c1.961,0.002,3.521,0.799,4.912,2.174c10.793,10.684,29.342,6.838,34.998-7.281c1.219-3.041,3.131-5.283,6.145-6.576
		c0.5-0.215,0.988-0.465,1.465-0.729c2.545-1.414,3.883-3.6,4.104-6.486c0.016-0.207,0.02-0.412,0.096-0.627
		c0.475,1.096,0.648,2.24,0.488,3.428c-0.4,2.986-2.043,5.039-4.746,6.301c-1.098,0.512-1.195,0.709-1.072,1.779
		C73.699,52.303,72.998,52.568,72.49,53.113z"/>
	<path fill="#00D7A1" d="M23.176,4.666c-0.18,0.619-0.154,1.182,0.43,1.594c2.16,1.533,3.146,3.705,3.426,6.27
		c0.088,0.824,0.182,1.652,0.355,2.459c0.137,0.627-0.111,0.789-0.66,0.803c-0.309,0.008-0.615,0.072-0.922,0.113
		c-0.34-0.348-0.326-0.807-0.385-1.24c-0.623-4.676-4.41-8-8.977-7.891c-0.576,0.014-1.133,0.174-1.707,0.18
		c-0.229,0.004-0.467,0.107-0.67-0.082c-0.031-0.072-0.076-0.141-0.09-0.215c-0.201-1.074-0.205-1.111,0.887-1.258
		c1.67-0.225,3.322-0.648,5.029-0.537c0.68,0.043,1.049-0.355,1.252-0.957C21.859,4.061,22.549,4.275,23.176,4.666z"/>
	<path fill="#FEE976" d="M8.451,68.75c-0.418-0.578-0.836-1.156-1.254-1.734c0.729-0.781,0.744-0.996,0.152-2.145
		c-4.457-8.66-2.789-18.904,4.189-25.666c0.541-0.521,1.109-1.029,1.723-1.463c2.656-1.885,4.146-4.447,4.572-7.66
		c0.262-1.965,0.811-3.812,2.262-5.273c1.5-1.51,3.297-2.309,5.434-2.346c0.396-0.008,0.604,0.016,0.586,0.521
		c-0.045,1.256,0.289,1.777,1.055,1.83c0.777,0.051,1.213-0.514,1.264-1.773c0.02-0.5,0.197-0.639,0.652-0.578
		c0.309,0.043,0.621,0.051,0.932,0.074c1.984,0.902,3.062,2.582,3.822,4.514c0.5,1.268,0.58,2.635,0.875,3.951
		c0.447,1.992,1.387,3.701,3.01,4.957c2.422,1.875,4.596,3.967,6.211,6.596c0.775,1.266,1.445,2.58,1.984,3.965
		c0.102,0.258,0.271,0.521,0.035,0.801c-4.041,1.154-8.082,2.311-12.127,3.459c-3.344,0.949-6.693,1.887-10.039,2.832
		c-1.121,0.314-1.33,0.684-1.139,1.877c0.139,0.852,0.051,1.713,0.043,2.57c-0.035,3.83,2.346,6.336,6.166,6.457
		c0.928,0.027,1.754,0.311,2.395,0.969c2.506,2.572,5.434,4.498,8.771,5.811c0.176,0.502-0.248,0.691-0.521,0.922
		c-1.207,1.027-2.508,1.926-3.893,2.691c-1.172,0.648-1.951,1.596-2.338,2.875c-0.211,0.699-0.527,1.35-0.996,1.918
		c-0.23,0.279-0.477,0.484-0.863,0.314c-0.949-0.258-1.895-0.535-2.85-0.768c-1.654-0.4-3.186,0.189-4.719,0.668
		c-0.928,0.287-1.832,0.344-2.736-0.053c-1.008-0.443-1.721-1.178-2.02-2.238c-0.525-1.859-1.658-3.174-3.354-4.088
		c-2.053-1.105-3.848-2.564-5.375-4.33C9.81,68.57,9.223,68.338,8.451,68.75z"/>
	<path fill="#FEF9CC" d="M77.17,41.076c-0.264,2.016-1.209,3.5-3.004,4.404c-0.695,0.352-1.391,0.699-2.09,1.045
		c-2.902,1.438-4.953,3.66-6.123,6.678c-2.119,5.469-5.848,9.414-11.369,11.377c-7.43,2.645-14.205,1.301-20.018-4.102
		c-1.857-1.727-3.859-2.859-6.422-2.934c-1.121-0.031-1.773-1.121-1.391-2.18c0.086-0.234,0.271-0.221,0.43-0.266
		c3.42-0.975,6.842-1.941,10.266-2.908c0.221-0.062,0.426-0.135,0.613,0.127c1.457,2.021,3.578,2.934,5.926,3.227
		c5.576,0.695,10.516-0.791,14.625-4.689c1.406-1.334,2.355-2.975,2.496-4.977c0.02-0.283,0.121-0.408,0.385-0.482
		c5.174-1.447,10.346-2.9,15.52-4.352C77.035,41.039,77.062,41.053,77.17,41.076z"/>
	<path fill="#6CE699" d="M14.064,6.869c3.463-0.764,6.549-0.09,9.092,2.471c1.455,1.465,2.211,3.295,2.48,5.332
		c0.057,0.41,0.111,0.82,0.166,1.23c-1.51,0.207-2.998,0.625-4.551,0.406c-3.637-0.514-6.303-3.123-6.846-6.742
		C14.273,8.67,14.178,7.77,14.064,6.869z"/>
	<path fill="#FEE44C" d="M45.955,47.32c-0.434-1.615-1.236-3.062-2.084-4.484c-1.668-2.803-4.018-4.947-6.553-6.957
		c-1.723-1.363-2.58-3.322-2.932-5.494c-0.293-1.814-0.613-3.613-1.682-5.193c-0.727-1.076-1.695-1.869-2.688-2.654
		c3.473,0.357,6.074,2.969,6.711,6.76c0.346,2.061,0.754,4.086,2.037,5.822c0.734,0.996,1.629,1.812,2.609,2.553
		c2.879,2.178,5.029,4.936,6.547,8.205c0.277,0.598,0.373,0.965-0.465,1.059C46.947,46.992,46.455,47.188,45.955,47.32z"/>
	<path fill="#CF7C62" d="M40.402,51.459c0.6-0.297,17.396-5.062,18.279-5.186c-0.137,0.807-0.512,1.471-0.984,2.076
		c-1.984,2.539-4.713,3.859-7.756,4.609c-2.277,0.562-4.578,0.662-6.861,0.002C42.08,52.672,41.139,52.26,40.402,51.459z"/>
	<path fill="#FEE44C" d="M31.416,80.018c0.711-0.025,0.859-0.666,1.166-1.105c0.434-0.621,0.525-1.396,0.844-2.074
		c0.572-1.223,1.658-1.871,2.768-2.498c1.193-0.676,2.271-1.516,3.334-2.377c0.215-0.174,0.461-0.35,0.498-0.668
		c0.48,0.16,0.963,0.32,1.516,0.502c-0.818,0.721-1.666,1.271-2.559,1.738c-1.707,0.891-2.812,2.221-3.369,4.078
		C35.051,79.494,33.186,80.512,31.416,80.018z"/>
	<path fill="#010000" d="M51.754,50.318c-0.01,0.807-0.688,1.016-1.381,1.203c-0.723,0.193-1.477,0.498-2.02-0.336
		c-0.377-0.578-0.164-1.352,0.49-1.631c0.518-0.221,1.074-0.379,1.631-0.471C51.164,48.975,51.744,49.525,51.754,50.318z"/>
</g>
</svg>
