<?xml version="1.0" encoding="utf-8"?>
<!-- Generator: Adobe Illustrator 16.0.2, SVG Export Plug-In . SVG Version: 6.00 Build 0)  -->
<!DOCTYPE svg PUBLIC "-//W3C//DTD SVG 1.1 Tiny//EN" "http://www.w3.org/Graphics/SVG/1.1/DTD/svg11-tiny.dtd">
<svg version="1.1" baseProfile="tiny" id="Layer_1" xmlns="http://www.w3.org/2000/svg" xmlns:xlink="http://www.w3.org/1999/xlink"
	 x="0px" y="0px" width="85px" height="85px" viewBox="0 0 85 85" xml:space="preserve">
<g>
	<path fill-rule="evenodd" d="M2.503,42.418c0-10.618-0.003-21.235,0.001-31.853c0.002-4.202,2.604-7.3,6.698-7.98
		c0.474-0.079,0.963-0.081,1.445-0.081C19.841,2.5,29.034,2.499,38.227,2.502c4.839,0.002,8.137,3.303,8.144,8.144
		c0.005,3.091,0.015,6.183-0.013,9.273c-0.004,0.528,0.136,0.668,0.66,0.659c1.801-0.034,3.603-0.043,5.403,0.004
		c0.557,0.015,0.699-0.2,0.827-0.675c1.595-5.886,6.725-9.749,12.795-9.66c6.476,0.094,11.868,5.162,12.546,11.788
		C79.23,28.3,74.764,34.388,68.56,35.73c-2.033,0.44-4.055,0.438-6.061-0.109c-0.525-0.144-0.659-0.06-0.656,0.507
		c0.022,4.542,0.013,9.085,0.012,13.628c-0.001,1.373-0.399,1.774-1.77,1.774c-4.327,0.001-8.655,0.013-12.982-0.015
		c-0.597-0.004-0.748,0.129-0.746,0.738c0.024,7.419,0.022,14.838,0.014,22.257c-0.006,3.765-2.233,6.737-5.75,7.716
		c-0.729,0.203-1.474,0.272-2.23,0.272c-9.3-0.004-18.601,0.005-27.901-0.006c-4.623-0.005-7.978-3.358-7.982-7.981
		C2.497,63.814,2.503,53.116,2.503,42.418z"/>
	<path fill-rule="evenodd" d="M67.017,67.468c0.009-4.892,3.977-8.556,8.395-8.174c4.389,0.378,7.67,4.601,7.001,8.967
		c-0.24,1.573-0.807,2.997-1.723,4.285c-1.557,2.188-3.115,4.373-4.683,6.551c-0.805,1.119-1.695,1.112-2.504-0.014
		c-1.567-2.181-3.127-4.365-4.686-6.55C67.646,70.891,67.035,69.063,67.017,67.468z"/>
	<path fill-rule="evenodd" d="M50.242,57.994c0,1.279,0,1.279-1.302,1.279c-1.278,0-1.278,0-1.278-1.304
		c0-1.277,0-1.277,1.303-1.277C50.242,56.692,50.242,56.692,50.242,57.994z"/>
	<path fill-rule="evenodd" d="M55.403,58.03c0,1.243,0,1.243-1.257,1.243c-1.323,0-1.323,0-1.323-1.339c0-1.242,0-1.242,1.257-1.242
		C55.403,56.692,55.403,56.692,55.403,58.03z"/>
	<path fill-rule="evenodd" d="M54.125,61.854c1.278,0,1.278,0,1.278,1.303c0,1.278,0,1.278-1.302,1.278
		c-1.278,0-1.278,0-1.278-1.304C52.823,61.854,52.823,61.854,54.125,61.854z"/>
	<path fill-rule="evenodd" d="M55.403,68.312c0,1.284,0,1.284-1.296,1.284c-1.284,0-1.284,0-1.284-1.298
		c0-1.283,0-1.283,1.297-1.283C55.403,67.015,55.403,67.015,55.403,68.312z"/>
	<path fill-rule="evenodd" d="M70.887,78.659c0,1.259,0,1.259-1.243,1.259c-1.337,0-1.337,0-1.337-1.324
		c0-1.257,0-1.257,1.242-1.257C70.887,77.337,70.887,77.337,70.887,78.659z"/>
	<path fill-rule="evenodd" d="M54.188,72.176c1.216,0,1.216,0,1.216,1.203c0,1.378,0,1.378-1.363,1.378
		c-1.217,0-1.217,0-1.217-1.204C52.823,72.176,52.823,72.176,54.188,72.176z"/>
	<path fill-rule="evenodd" d="M55.403,78.633c0,1.285,0,1.285-1.296,1.285c-1.284,0-1.284,0-1.284-1.298
		c0-1.283,0-1.283,1.297-1.283C55.403,77.337,55.403,77.337,55.403,78.633z"/>
	<path fill-rule="evenodd" d="M60.564,78.666c0,1.252,0,1.252-1.248,1.252c-1.332,0-1.332,0-1.332-1.33c0-1.251,0-1.251,1.249-1.251
		C60.564,77.337,60.564,77.337,60.564,78.666z"/>
	<path fill-rule="evenodd" d="M65.726,78.705c0,1.213,0,1.213-1.206,1.213c-1.374,0-1.374,0-1.374-1.369
		c0-1.212,0-1.212,1.207-1.212C65.726,77.337,65.726,77.337,65.726,78.705z"/>
	<path fill-rule="evenodd" fill="#C6E8F9" d="M5.112,59.107c-0.01-0.269-0.027-0.537-0.027-0.805
		C5.084,44.299,5.09,30.295,5.066,16.292c-0.001-0.734,0.183-0.907,0.909-0.906c10.026,0.026,20.051,0.018,30.077,0.019
		c0.268,0,0.536,0.016,0.804,0.024c0.485,0.362,0.346,0.918,0.441,1.403c0.182,0.925,0.076,1.873,0.248,2.799
		c0.059,0.315,0.043,0.646-0.209,0.905c-2.333,0.009-4.666,0.021-7,0.026c-1.715,0.005-2.029,0.309-2.029,1.992
		c0,8.557,0,17.115-0.001,25.673c0,0.294-0.018,0.589-0.027,0.883c-0.774,1.35-1.924,2.378-3.045,3.408
		c-2.288,2.102-4.817,3.86-7.721,5.03c-0.3,0.121-0.619,0.411-0.939,0.019c-0.271-0.572-1.495-0.91-2.012-0.556
		c-0.203,0.139-0.203,0.354-0.219,0.563c-0.025,0.339,0.017,0.691-0.201,0.992c-0.831,0.59-1.828,0.576-2.767,0.719
		c-1.805,0.273-3.624,0.359-5.443,0.078C5.646,59.32,5.34,59.341,5.112,59.107z"/>
	<path fill-rule="evenodd" fill="#87919F" d="M24.433,67.015c6.18,0,12.359,0.012,18.539-0.017c0.669-0.003,0.851,0.16,0.837,0.835
		c-0.046,2.257-0.007,4.514-0.02,6.771c-0.018,3.067-2.229,5.306-5.281,5.309c-9.377,0.012-18.754,0.012-28.131,0
		c-3.055-0.003-5.274-2.24-5.291-5.299c-0.012-2.257,0.024-4.514-0.019-6.771c-0.012-0.659,0.142-0.849,0.827-0.845
		C12.074,67.027,18.253,67.015,24.433,67.015z"/>
	<path fill-rule="evenodd" fill="#A1DAF6" d="M16.724,57.657c2.762-1.033,5.195-2.6,7.461-4.477c1.493-1.236,2.725-2.72,4.096-4.069
		c0.132,2.395,0.16,2.421,2.603,2.421c4.058,0,8.116,0.013,12.174-0.016c0.594-0.004,0.756,0.127,0.751,0.74
		c-0.032,3.816-0.031,7.633,0,11.449c0.005,0.605-0.148,0.743-0.748,0.742C30.644,64.43,18.227,64.43,5.811,64.449
		c-0.609,0.001-0.763-0.151-0.742-0.75c0.055-1.529,0.034-3.061,0.043-4.592c1.381,0.014,2.754,0.288,4.138,0.16
		c1.632-0.151,3.272-0.26,4.841-0.801c0.465,0.522,1.358,0.753,2.012,0.55c0.295-0.092,0.333-0.307,0.363-0.553
		C16.5,58.18,16.446,57.865,16.724,57.657z"/>
	<path fill-rule="evenodd" fill="#87919F" d="M24.445,12.823c-6.18,0-12.359-0.011-18.538,0.016c-0.667,0.003-0.9-0.152-0.835-0.833
		c0.09-0.932-0.07-1.875,0.132-2.809c0.512-2.37,2.506-4.098,4.92-4.103c9.538-0.022,19.076-0.025,28.614,0
		c2.773,0.007,4.995,2.267,5.04,5.045c0.014,0.874,0.386,2.016-0.162,2.546c-0.438,0.423-1.578,0.134-2.405,0.135
		C35.622,12.825,30.033,12.823,24.445,12.823z"/>
	<path fill-rule="evenodd" fill="#C0A490" d="M30.919,42.483c-0.01-5.024-0.02-10.049-0.029-15.074
		c-0.002-1.209,0.018-2.419-0.01-3.628c-0.01-0.461,0.068-0.656,0.603-0.65c2.606,0.03,5.213,0.034,7.82-0.002
		c0.59-0.008,0.629,0.237,0.627,0.706c-0.015,3.467-0.002,6.934-0.013,10.4c-0.002,0.702,0.03,1.361,0.787,1.693
		c0.807,0.354,1.314-0.134,1.819-0.648c0.696-0.71,1.419-1.393,2.101-2.117c0.315-0.335,0.524-0.442,0.888-0.037
		c0.699,0.777,1.454,1.504,2.186,2.252c0.063,0.312-0.145,0.502-0.327,0.695c-3.479,3.667-7.716,5.834-12.733,6.486
		c-0.936,0.121-1.87,0.179-2.811,0.153C31.508,42.703,31.17,42.757,30.919,42.483z"/>
	<path fill-rule="evenodd" fill="#966947" d="M30.919,42.483c5.515,0.245,10.389-1.431,14.632-4.937
		c0.782-0.646,1.521-1.357,2.146-2.168c0.318,0.235,0.574,0.559,0.993,0.645c0.8,0.166,1.514-0.413,1.546-1.302
		c0.033-0.907,0.024-1.815,0.033-2.722c0.509-1.441,1.359-2.725,1.917-4.147c0.3-0.764,0.378-1.608,0.836-2.312
		c0.538,2.428,1.571,4.6,3.299,6.419c0.742,0.784,1.551,1.488,2.474,2.044c0.371,0.224,0.493,0.479,0.49,0.906
		c-0.019,2.738-0.022,5.476,0.001,8.214c0.005,0.526-0.145,0.678-0.674,0.677c-9.02-0.016-18.039-0.016-27.06-0.006
		C30.358,43.796,31.076,42.944,30.919,42.483z"/>
	<path fill-rule="evenodd" fill="#BFDFB1" d="M57.628,29.459c-3.538-4.054-2.76-10.873,1.638-14.354
		c3.858-3.054,9.354-3.043,12.9,0.025c0.284,0.344,0.119,0.73,0.053,1.075c-0.215,1.111-0.213,2.293-0.982,3.237
		c-0.288,0.115-0.471-0.086-0.615-0.261c-0.48-0.582-0.852-0.4-1.307,0.065c-1.686,1.723-3.401,3.417-5.106,5.121
		c-0.171,0.17-0.345,0.337-0.516,0.508c-0.38,0.381-0.745,0.357-1.112-0.017c-0.132-0.134-0.268-0.263-0.401-0.394
		c-0.715-0.699-0.749-0.699-1.471,0.017c-0.843,0.835-0.843,0.835,0.014,1.695c0.473,0.474,0.955,0.939,1.416,1.424
		c0.193,0.203,0.481,0.375,0.383,0.738c-0.872,0.743-1.979,0.874-3.029,1.112C58.891,29.588,58.248,29.85,57.628,29.459z"/>
	<path fill-rule="evenodd" fill="#95CB7E" d="M57.628,29.459c1.577-0.016,3.051-0.493,4.518-1.001
		c0.16-0.055,0.283-0.147,0.357-0.301c0.961,0.055,1.637-0.438,2.221-1.132c0.203-0.241,0.435-0.465,0.726-0.609
		c0.279-0.099,0.5-0.283,0.709-0.486c1.148-0.906,2.184-1.917,2.967-3.164c0.369-0.635,0.931-1.105,1.463-1.583
		c0.56-0.503,0.955-0.987,0.499-1.75c0.635-0.971,0.695-2.109,0.925-3.196c0.076-0.363,0.104-0.736,0.154-1.105
		c3.179,2.628,4.461,6.025,3.655,10.026c-0.833,4.139-3.444,6.848-7.528,7.966C64.284,34.22,59.805,32.617,57.628,29.459z"/>
	<path fill-rule="evenodd" fill="#966947" d="M45.174,46.37c4.43,0,8.86,0.016,13.289-0.017c0.688-0.005,0.843,0.202,0.827,0.855
		c-0.04,1.741-0.009,1.742-1.776,1.742c-8.564,0-17.128-0.007-25.692,0.013c-0.683,0.002-0.985-0.098-0.954-0.894
		c0.067-1.698,0.018-1.7,1.743-1.7C36.798,46.37,40.986,46.37,45.174,46.37z"/>
	<path fill-rule="evenodd" fill="#F6D780" d="M42.501,31.434c0-2.603,0.009-5.207-0.008-7.81c-0.003-0.4,0.133-0.492,0.507-0.487
		c1.397,0.019,2.794,0.015,4.191,0.002c0.321-0.003,0.48,0.051,0.479,0.431c-0.015,2.625-0.008,5.25-0.008,8.116
		c-0.579-0.6-1.005-1.061-1.452-1.5c-0.831-0.815-1.442-0.811-2.275,0.027c-0.431,0.433-0.826,0.9-1.237,1.352
		C42.632,31.523,42.567,31.479,42.501,31.434z"/>
	<path fill-rule="evenodd" fill="#A1DAF6" d="M37.337,20.537c-0.116-1.707-0.159-3.42-0.48-5.108
		c2.149-0.008,4.298-0.008,6.446-0.034c0.385-0.004,0.504,0.106,0.498,0.495c-0.022,1.396-0.022,2.794,0,4.19
		c0.006,0.394-0.121,0.496-0.501,0.491C41.312,20.546,39.324,20.546,37.337,20.537z"/>
	<path fill-rule="evenodd" fill="#C0A490" d="M53.021,25.54c-0.128,1.347-0.692,2.552-1.26,3.748
		c-0.442,0.931-0.829,1.899-1.493,2.711c-0.009-2.782-0.012-5.565-0.032-8.347c-0.002-0.365,0.082-0.498,0.482-0.519
		c2.008-0.104,2.008-0.118,2.247,1.848C52.988,25.167,53.004,25.354,53.021,25.54z"/>
	<path fill-rule="evenodd" fill="#E58F95" d="M72.228,72.817c-1.11-1.476-2.28-2.904-2.571-4.832
		c-0.319-2.11,0.605-4.19,2.475-5.368c1.708-1.079,3.863-1.008,5.517,0.174c0.326,0.234,0.615,0.499,0.813,0.854
		c0.077,0.179,0.082,0.367,0.046,0.553c-0.676,3.479-2.208,6.429-5.262,8.42C72.945,72.813,72.636,73.11,72.228,72.817z"/>
	<path fill-rule="evenodd" fill="#DF747B" d="M72.228,72.817c1.243-0.279,2.072-1.173,2.893-2.032
		c1.786-1.873,2.749-4.16,3.192-6.687c0.027-0.155,0.097-0.304,0.147-0.454c1.289,1.094,1.558,2.553,1.413,4.123
		c-0.102,1.108-0.49,2.141-1.136,3.055c-1.206,1.707-2.429,3.402-3.633,5.109c-0.228,0.322-0.368,0.489-0.668,0.043
		C73.725,74.906,72.966,73.867,72.228,72.817z"/>
	<path fill-rule="evenodd" d="M23.158,30.786c-0.058,2.06-0.542,3.774-1.601,5.288c-1.646,2.354-3.318,4.689-5,7.018
		c-0.689,0.955-1.614,0.951-2.304-0.006c-1.695-2.353-3.423-4.683-5.038-7.089c-2.691-4.007-1.842-8.992,1.959-11.532
		c2.48-1.656,5.149-1.836,7.777-0.406C21.659,25.533,23.065,27.894,23.158,30.786z"/>
	<path fill-rule="evenodd" d="M15.464,48.951c-1.349,0-1.349,0-1.349-1.313c0-1.268,0-1.268,1.232-1.268
		c1.349,0,1.349,0,1.349,1.313C16.696,48.951,16.696,48.951,15.464,48.951z"/>
	<path fill-rule="evenodd" d="M16.696,52.854c0,1.258,0,1.258-1.243,1.258c-1.338,0-1.338,0-1.338-1.323
		c0-1.257,0-1.257,1.243-1.257C16.696,51.532,16.696,51.532,16.696,52.854z"/>
	<path fill-rule="evenodd" d="M16.724,57.657c-0.087,1.616-0.088,1.586-1.75,1.631c-0.646,0.019-1.006-0.096-0.883-0.821
		c0.111-0.573-0.235-1.305,0.164-1.688c0.269-0.26,0.977-0.02,1.473-0.098C16.546,56.553,16.839,56.876,16.724,57.657z"/>
	<path fill-rule="evenodd" d="M24.46,69.598c2.137,0.01,3.873,1.784,3.845,3.93c-0.027,2.097-1.785,3.816-3.892,3.807
		c-2.135-0.01-3.872-1.786-3.844-3.933C20.596,71.303,22.35,69.587,24.46,69.598z"/>
	<path fill-rule="evenodd" d="M20.57,56.692c1.288,0,1.288,0,1.288,1.293c0,1.288,0,1.288-1.293,1.288c-1.288,0-1.288,0-1.288-1.293
		C19.277,56.692,19.277,56.692,20.57,56.692z"/>
	<path fill-rule="evenodd" d="M24.438,57.904c0-1.212,0-1.212,1.208-1.212c1.373,0,1.373,0,1.373,1.368c0,1.213,0,1.213-1.208,1.213
		C24.438,59.273,24.438,59.273,24.438,57.904z"/>
	<path fill-rule="evenodd" d="M30.847,59.273c-1.248,0-1.248,0-1.248-1.253c0-1.328,0-1.328,1.333-1.328
		c1.248,0,1.248,0,1.248,1.252C32.179,59.273,32.179,59.273,30.847,59.273z"/>
	<path fill-rule="evenodd" d="M35.997,59.273c-1.237,0-1.237,0-1.237-1.264c0-1.317,0-1.317,1.344-1.317
		c1.237,0,1.237,0,1.237,1.264C37.34,59.273,37.34,59.273,35.997,59.273z"/>
	<path fill-rule="evenodd" d="M41.265,59.273c-1.344,0-1.344,0-1.344-1.317c0-1.264,0-1.264,1.237-1.264
		c1.344,0,1.344,0,1.344,1.317C42.501,59.273,42.501,59.273,41.265,59.273z"/>
	<path fill-rule="evenodd" d="M24.398,10.243c-1.074,0-2.149-0.028-3.221,0.012c-0.512,0.02-0.619-0.154-0.622-0.636
		c-0.015-1.956-0.032-1.956,1.949-1.956c1.718,0,3.437,0.021,5.155-0.013c0.54-0.011,0.663,0.163,0.663,0.677
		c0,1.916,0.019,1.916-1.909,1.916C25.741,10.243,25.07,10.243,24.398,10.243z"/>
	<path fill-rule="evenodd" d="M65.524,26.521c-0.417,0.399-0.851,0.784-1.246,1.202c-0.507,0.535-1.075,0.733-1.775,0.435
		c-0.84-0.825-1.669-1.662-2.526-2.47c-0.298-0.282-0.237-0.458,0.03-0.703c0.475-0.433,0.866-1.163,1.396-1.272
		c0.586-0.12,0.96,0.708,1.39,1.149c0.415,0.424,0.588,0.094,0.823-0.141c1.876-1.874,3.75-3.75,5.625-5.625
		c0.733-0.732,0.732-0.732,1.49,0.015c0.115,0.112,0.238,0.215,0.356,0.323c0.683,0.519,0.679,0.963-0.021,1.524
		c-0.66,0.53-1.206,1.202-1.802,1.811c-0.856,1.177-1.908,2.169-2.988,3.132C66.024,26.104,65.85,26.404,65.524,26.521z"/>
	<path fill-rule="evenodd" fill="#BADBAC" d="M66.193,25.85c1.024-1.028,2.047-2.055,3.071-3.083
		c-0.048,0.592-0.534,0.925-0.873,1.298c-0.66,0.726-1.277,1.526-2.179,1.998C66.135,25.998,66.129,25.927,66.193,25.85z"/>
	<path fill-rule="evenodd" fill="#B3D6A4" d="M66.193,25.85c0.006,0.071,0.013,0.142,0.02,0.213
		c-0.16,0.257-0.344,0.478-0.688,0.458C65.698,26.248,65.922,26.025,66.193,25.85z"/>
	<path fill-rule="evenodd" fill="#E58F95" d="M12.875,36.689c-1.109-1.476-2.28-2.904-2.571-4.831
		c-0.318-2.112,0.605-4.191,2.474-5.37c1.709-1.078,3.864-1.007,5.517,0.175c0.327,0.234,0.616,0.499,0.813,0.853
		c0.078,0.179,0.082,0.368,0.046,0.554c-0.676,3.479-2.208,6.427-5.261,8.419C13.593,36.685,13.284,36.982,12.875,36.689z"/>
	<path fill-rule="evenodd" fill="#DF747B" d="M12.875,36.689c1.243-0.279,2.073-1.172,2.893-2.032
		c1.786-1.873,2.749-4.161,3.192-6.687c0.027-0.155,0.097-0.303,0.147-0.454c1.291,1.093,1.558,2.553,1.414,4.124
		c-0.102,1.108-0.49,2.14-1.136,3.055c-1.206,1.707-2.428,3.401-3.633,5.109c-0.227,0.322-0.368,0.489-0.667,0.042
		C14.373,38.778,13.615,37.74,12.875,36.689z"/>
	<path fill-rule="evenodd" fill="#FBFBFB" d="M25.724,73.488c-0.013,0.693-0.596,1.266-1.289,1.264
		c-0.726-0.002-1.319-0.627-1.283-1.351c0.035-0.694,0.635-1.247,1.329-1.223S25.737,72.794,25.724,73.488z"/>
</g>
</svg>
