<?xml version="1.0" encoding="utf-8"?>
<!-- Generator: Adobe Illustrator 16.0.0, SVG Export Plug-In . SVG Version: 6.00 Build 0)  -->
<!DOCTYPE svg PUBLIC "-//W3C//DTD SVG 1.1//EN" "http://www.w3.org/Graphics/SVG/1.1/DTD/svg11.dtd">
<svg version="1.1" id="Layer_1" xmlns="http://www.w3.org/2000/svg" xmlns:xlink="http://www.w3.org/1999/xlink" x="0px" y="0px"
	 width="85px" height="85px" viewBox="0 0 85 85" enable-background="new 0 0 85 85" xml:space="preserve">
<g>
	<path d="M13.347,56.523c-0.899,0.395-1.299,0.303-1.88-0.455c-3.544-4.623-5.223-9.863-5.154-15.674
		c0.006-0.449-0.013-0.678-0.578-0.732c-0.978-0.092-1.445-0.93-1.982-1.627c-0.658-0.854-0.857-1.91-1.252-2.881
		c0-0.676,0-1.354,0-2.031c0.068-2.189,1.387-3.879,2.347-5.691c1.616-3.059,3.287-6.088,4.915-9.141
		c1.586-2.971,3.936-4.875,7.289-5.414c2.256-0.361,4.404,0,6.387,1.186c1.045,0.625,1.049,0.621,1.898-0.229
		c1.25-1.25,2.498-2.508,3.756-3.75c0.352-0.348,0.576-0.721,0.555-1.232c-0.08-1.953,0.719-3.535,2.1-4.854
		c0.574-0.549,1.021-1.262,1.848-1.498c0.262,0,0.521,0,0.781,0c1.029,0.785,1.07,1.338,0.184,2.291
		c-2.66,2.857-2.27,1.703-2.299,5.793c-0.012,1.639,0.018,3.279-0.014,4.916c-0.008,0.52,0.123,0.697,0.674,0.754
		c10.279,1.049,17.355,6.414,21.312,15.922c0.285,0.684,0.514,0.938,1.355,0.867c5.936-0.484,11.406,0.934,16.285,4.363
		c5.303,3.729,8.627,8.816,10.082,15.135c0.211,0.918,0.164,1.887,0.545,2.771c0,0.209,0,0.416,0,0.625
		c-0.104,0.094-0.074,0.219-0.08,0.334c0,0.09,0,0.18,0,0.27c0.006,0.117-0.021,0.24,0.08,0.334c0,0.678,0,1.354,0,2.031
		c-0.127,0.127-0.062,0.289-0.08,0.438c0.006,0.119-0.023,0.248,0.08,0.344c0,0.209,0,0.418,0,0.625
		c-0.217,2.369-0.736,4.668-1.686,6.85c-3.529,8.121-9.654,13.111-18.279,15.059C61.699,82.408,60.834,82.305,60,82.5
		c-0.156,0-0.312,0-0.469,0c-0.127-0.125-0.289-0.062-0.438-0.08c-0.119,0.008-0.248-0.023-0.346,0.08c-0.729,0-1.457,0-2.188,0
		c-0.104-0.098-0.207-0.098-0.312,0c-0.311,0-0.625,0-0.938,0c-0.936-0.387-1.953-0.363-2.924-0.592
		c-6.945-1.617-12.238-5.502-15.969-11.549c-0.818-1.328-1.496-2.736-1.986-4.217c-0.172-0.514-0.402-0.59-0.895-0.549
		c-6.844,0.582-12.951-1.268-18.293-5.604c-0.857-0.695-0.943-1.02-0.514-2.002c0.414-0.545,0.906-0.664,1.543-0.361
		c0.332,0.158,0.613,0.395,0.895,0.623c3.383,2.766,7.279,4.295,11.596,4.783c1.34,0.152,2.689,0.154,4.041,0.051
		c0.51-0.037,0.449-0.312,0.385-0.635c-0.391-1.922-0.5-3.867-0.43-5.822c0.113-3.133,0.842-6.127,2.104-8.986
		c1.338-3.035,3.195-5.723,5.604-8.008c2.27-2.152,4.869-3.811,7.738-5.049c0.992-0.316,1.959-0.703,2.965-0.98
		c0.783-0.215,0.811-0.275,0.521-1.02c-0.918-2.355-2.271-4.457-3.947-6.33c-2.803-3.133-6.201-5.375-10.246-6.588
		c-1.146-0.344-2.314-0.609-3.506-0.76c-0.104-0.014,0.025,0.006-0.078-0.01c-1.461-0.24-1.518-0.191-1.52,1.252
		c-0.002,0.574,0.027,1.146-0.018,1.717c-0.062,0.793-0.48,1.225-1.205,1.287c-0.727,0.062-1.193-0.285-1.41-1.061
		c-0.221-0.791-0.094-1.604-0.135-2.406c-0.014-0.297,0.105-0.695-0.291-0.807c-0.488-0.133-1-0.027-1.43,0.213
		c-0.221,0.123-0.051,0.434,0.01,0.652c0.49,1.771,0.504,3.531,0.02,5.314c-0.775,2.848-2.592,4.812-5.125,6.184
		c-4.188,2.268-8.365,4.549-12.583,6.756c-0.821,0.43-1.262,0.914-1.312,1.953c-0.256,5.203,1.213,9.854,4.205,14.066
		c0.209,0.297,0.459,0.568,0.627,0.895C14.078,55.547,13.955,56.027,13.347,56.523z"/>
	<path fill="#757575" d="M82.367,59.379c-0.02-0.176-0.082-0.363,0.133-0.475c0,0.156,0,0.311,0,0.469
		C82.459,59.439,82.414,59.441,82.367,59.379z"/>
	<path fill="#818181" d="M59.07,82.369c0.166,0.004,0.367-0.129,0.461,0.129c-0.156,0-0.312,0-0.469,0
		c-0.055-0.033-0.068-0.062-0.051-0.09C59.033,82.383,59.051,82.369,59.07,82.369z"/>
	<path fill="#848484" d="M82.369,56.242c-0.018-0.129-0.059-0.268,0.131-0.307c0,0.104,0,0.209,0,0.311
		C82.453,56.322,82.41,56.316,82.369,56.242z"/>
	<path fill="#6A6A6A" d="M82.369,56.242c0.043-0.002,0.088,0.002,0.131,0.006c0,0.104,0,0.207,0,0.312
		c-0.049,0.068-0.092,0.07-0.131-0.008C82.369,56.449,82.369,56.346,82.369,56.242z"/>
	<path fill="#515151" d="M82.369,56.553c0.043,0.002,0.088,0.006,0.131,0.008c0,0.104,0,0.209,0,0.312
		C82.354,56.811,82.342,56.688,82.369,56.553z"/>
	<path fill="#959595" d="M82.367,59.379c0.043-0.002,0.088-0.006,0.133-0.006c0,0.104,0,0.209,0,0.312
		C82.303,59.65,82.35,59.51,82.367,59.379z"/>
	<path fill="#575757" d="M56.25,82.498c0.104-0.199,0.209-0.176,0.312,0C56.459,82.498,56.355,82.498,56.25,82.498z"/>
	<path fill="#616161" d="M59.07,82.369c-0.002,0.043-0.006,0.086-0.008,0.129c-0.105,0-0.209,0-0.312,0
		C58.811,82.336,58.936,82.338,59.07,82.369z"/>
	<path fill="#FE8538" d="M13.347,56.523c0.577-0.676,0.437-1.301-0.071-1.961c-2.216-2.873-3.639-6.104-4.279-9.674
		c-0.355-1.984-0.396-3.98-0.254-5.986c0.031-0.418,0.334-0.49,0.596-0.631c4.414-2.381,8.82-4.781,13.252-7.131
		c2.811-1.49,4.668-3.682,5.316-6.828c0.336-1.641,0.244-3.27-0.314-4.848c-0.195-0.553-0.104-0.697,0.486-0.744
		c1.83-0.15,1.824-0.176,1.832,1.635c0.002,0.57,0,1.146,0.07,1.711c0.078,0.639,0.512,0.955,1.141,0.936
		c0.629-0.018,1.051-0.365,1.086-1.002c0.053-0.908,0.074-1.822,0.029-2.73c-0.031-0.613,0.178-0.791,0.754-0.684
		c0.355,0.066,0.73,0.01,1.074,0.166c2.527,0.879,4.74,2.303,6.803,3.979c0.219,0.178,0.441,0.373,0.441,0.697
		c-0.066,0.234-0.266,0.377-0.398,0.566c-0.398,0.562-0.32,1.32,0.168,1.67c0.484,0.346,0.924,0.203,1.402-0.465
		c0.092-0.129,0.17-0.262,0.346-0.283c0.902,0.316,1.328,1.146,1.828,1.834c1.559,2.148,2.799,4.479,3.607,7.02
		c0.102,0.314,0.266,0.633,0.037,0.965c-2.381,1.119-4.662,2.395-6.66,4.137c-4.822,4.211-7.688,9.475-8.506,15.83
		c-0.332,2.572-0.271,5.139,0.287,7.678c0.145,0.658,0.037,0.889-0.736,0.936c-6.016,0.359-11.332-1.373-15.986-5.176
		c-0.645-0.527-1.264-0.684-1.963-0.152C14.271,57.498,13.809,57.012,13.347,56.523z"/>
	<path fill="#FEB35A" d="M61.729,79.721c-3.379,0.736-6.748,0.568-10.025-0.424c-8.15-2.469-13.479-7.834-15.699-16.062
		c-2.744-10.162,2.357-21.043,11.83-25.648c4.043-1.967,8.283-2.66,12.734-2.115c0.283,0.033,0.561,0.111,0.84,0.168
		c2.35,0.652,4.365,1.939,6.242,3.428c3.857,3.061,6.486,6.988,7.988,11.676c0.111,0.348,0.23,0.695,0.268,1.059
		c0.021,0.234,0.113,0.557-0.314,0.559c-0.176-0.135-0.25-0.332-0.318-0.527c-0.344-0.965-1.041-1.518-2.012-1.787
		c-1.535-0.428-1.578-0.451-1.139-1.971c0.33-1.137,0.043-2.055-0.729-2.865c-2.617-2.738-5.748-4.609-9.439-5.521
		c-1.283-0.318-2.389-0.125-3.324,0.93c-0.824,0.93-0.941,0.918-1.775,0.021c-0.963-1.035-2.08-1.258-3.41-0.941
		c-3.77,0.891-6.902,2.836-9.518,5.66c-0.709,0.768-0.924,1.668-0.639,2.68c0.043,0.15,0.092,0.297,0.133,0.449
		c0.277,1.023,0.229,1.172-0.811,1.414c-1.475,0.344-2.293,1.197-2.689,2.684c-0.959,3.623-0.92,7.201,0.16,10.777
		c0.311,1.023,0.957,1.711,2.012,1.986c0.277,0.07,0.553,0.146,0.826,0.232c0.506,0.162,0.762,0.48,0.559,1.002
		c-0.844,2.156,0.268,3.521,1.795,4.84c2.352,2.029,4.979,3.463,7.977,4.275c1.434,0.391,2.59,0.127,3.639-0.91
		c0.844-0.836,0.896-0.828,1.736,0.045c0.922,0.959,1.963,1.211,3.264,0.908c3.744-0.873,6.871-2.742,9.469-5.564
		c0.85-0.922,1.064-1.896,0.719-3.084c-0.365-1.252-0.299-1.342,0.975-1.65c1.094-0.27,1.885-0.848,2.271-1.93
		c0.053-0.148,0.129-0.285,0.254-0.389c0.545,0.047,0.32,0.438,0.268,0.686c-0.186,0.863-0.473,1.705-0.801,2.521
		c-2.057,5.143-5.432,9.158-10.232,11.963C63.82,78.867,62.795,79.334,61.729,79.721z"/>
	<path fill="#8DE593" d="M22.838,16.764c-0.268,0.186-0.535,0.318-0.734,0.52c-2.916,2.902-5.824,5.812-8.73,8.723
		c-0.219,0.221-0.453,0.443-0.605,0.707c-0.271,0.475-0.225,0.969,0.164,1.361c0.409,0.416,0.91,0.508,1.418,0.18
		c0.258-0.168,0.482-0.395,0.703-0.613c2.947-2.943,5.902-5.881,8.828-8.846c0.443-0.449,0.604-0.42,0.916,0.119
		c1.941,3.332,0.895,7.697-2.506,9.664c-3.396,1.963-6.889,3.76-10.34,5.627c-1.715,0.926-3.448,1.82-5.139,2.789
		c-0.574,0.33-0.848,0.201-1.154-0.307c-1.055-1.74-1.049-3.477-0.084-5.252c1.896-3.494,3.771-7.002,5.658-10.502
		c0.432-0.801,0.838-1.619,1.325-2.385c2.104-3.305,6.622-4.266,9.882-2.121C22.523,16.482,22.594,16.557,22.838,16.764z"/>
	<path fill="#FE9B41" d="M61.729,79.721c0.875-0.654,1.922-0.98,2.859-1.525c3.699-2.148,6.613-5.045,8.746-8.754
		c1.057-1.838,1.814-3.783,2.365-5.822c0.049-0.182,0.117-0.346-0.049-0.5c-0.221-0.23-0.105-0.488-0.047-0.732
		c0.756-3.104,0.814-6.207,0-9.312c-0.064-0.24-0.18-0.502,0.057-0.729c0.301-0.449-0.016-0.863-0.131-1.254
		c-1.281-4.297-3.6-7.955-6.906-10.975c-2.123-1.936-4.609-3.309-7.215-4.479c1.754,0.158,3.418,0.689,5.002,1.402
		c7.236,3.252,11.816,8.746,13.324,16.553c2.158,11.178-4.49,22.121-15.355,25.533C63.52,79.396,62.65,79.693,61.729,79.721z"/>
	<path fill="#FE8336" d="M48.299,34.734c-0.455-2.121-1.443-4.016-2.498-5.883c-0.623-1.104-1.354-2.135-2.176-3.1
		c-0.248-0.291-0.492-0.604-0.859-0.77c-0.203-0.812-0.715-1.324-1.516-1.551c-0.992-1.15-2.307-1.873-3.537-2.713
		c-1.15-0.789-2.518-1.154-3.65-1.967c2.727,0.27,5.262,1.158,7.645,2.463c4.799,2.631,8.232,6.49,10.299,11.568
		c0.26,0.633,0.111,0.816-0.514,0.973C50.414,34.027,49.361,34.404,48.299,34.734z"/>
	<path fill="#FDFDFD" d="M26.062,16.58c1.252-1.305,2.414-2.514,3.576-3.725c0.086,0.035,0.172,0.07,0.258,0.105
		c0,1.012,0.006,2.023-0.004,3.035c-0.002,0.141-0.137,0.205-0.277,0.219C28.467,16.332,27.32,16.451,26.062,16.58z"/>
	<path fill="#020101" d="M34.365,24.156c-0.004-0.754,0.471-1.309,1.135-1.328c0.678-0.021,1.221,0.586,1.207,1.346
		c-0.014,0.732-0.531,1.293-1.186,1.287C34.855,25.455,34.369,24.906,34.365,24.156z"/>
	<path fill="#030101" d="M41.25,23.432c1.158,0.049,1.486,0.385,1.516,1.551c-0.143,0.602-0.473,1.041-1.123,1.078
		c-0.512,0.029-0.939-0.23-1.1-0.713c-0.205-0.615-0.205-1.236,0.395-1.689C41.039,23.582,41.146,23.506,41.25,23.432z"/>
	<path fill="#020101" d="M44.268,30.846c-0.01,0.754-0.496,1.293-1.162,1.287c-0.65-0.006-1.172-0.582-1.178-1.301
		c-0.004-0.773,0.523-1.336,1.229-1.311C43.838,29.545,44.277,30.066,44.268,30.846z"/>
	<path d="M75.66,52.346c1.023,3.592,1.006,7.184-0.01,10.773c-0.359,1.566-1.41,2.369-2.936,2.613
		c-0.586,0.096-0.818,0.289-0.564,0.914c0.66,1.617,0.215,2.92-1.031,4.141c-2.752,2.697-5.965,4.484-9.729,5.279
		c-1.229,0.258-2.154-0.299-2.965-1.176c-0.688-0.744-0.75-0.756-1.42-0.002c-1.014,1.145-2.193,1.414-3.656,1.035
		c-3.758-0.973-6.939-2.865-9.57-5.715c-0.879-0.953-0.961-2.014-0.621-3.191c0.312-1.088,0.305-1.145-0.729-1.357
		c-1.469-0.303-2.256-1.166-2.656-2.602c-1.049-3.74-1-7.438,0.135-11.145c0.4-1.309,1.332-1.961,2.592-2.168
		c0.797-0.131,1.047-0.408,0.73-1.195c-0.58-1.445-0.186-2.633,0.91-3.74c2.688-2.723,5.859-4.525,9.578-5.402
		c1.422-0.334,2.5,0.174,3.377,1.234c0.428,0.518,0.76,0.623,1.223,0.023c1.01-1.311,2.311-1.57,3.895-1.143
		c3.75,1.008,6.928,2.914,9.523,5.791c0.871,0.965,0.906,2.068,0.463,3.211c-0.295,0.76-0.121,1.102,0.719,1.219
		C74.422,49.955,75.314,50.881,75.66,52.346z"/>
	<path fill="#FE8538" d="M56.551,48.068c0,1.326-0.018,2.652,0.012,3.977c0.01,0.496-0.053,0.822-0.627,0.941
		c-0.48,0.102-0.943,0.357-1.281,0.711c-0.461,0.482-0.828,0.445-1.383,0.111c-2.066-1.248-4.158-2.457-6.273-3.619
		c-0.779-0.43-1.199-0.959-1.453-1.842c-0.277-0.963-0.107-1.572,0.6-2.246c2.252-2.146,4.854-3.617,7.877-4.354
		c0.502-0.123,0.848,0.01,1.258,0.344c1.012,0.818,1.451,1.779,1.297,3.096C56.461,46.135,56.551,47.107,56.551,48.068z"/>
	<path fill="#FE8538" d="M56.551,67.377c0,1.197-0.041,2.398,0.018,3.594c0.033,0.732-0.254,1.213-0.701,1.777
		c-0.809,1.02-1.668,1.057-2.795,0.686c-2.852-0.938-5.336-2.42-7.391-4.621c-0.322-0.346-0.342-0.654-0.277-1.117
		c0.184-1.322,0.855-2.129,2.053-2.746c2.078-1.068,4.07-2.307,6.088-3.49c0.336-0.195,0.568-0.234,0.875,0.068
		c0.463,0.465,1.041,0.787,1.674,0.963c0.381,0.105,0.471,0.305,0.467,0.67C56.541,64.566,56.551,65.973,56.551,67.377z"/>
	<path fill="#FE8538" d="M74.074,57.545c0.014,1.812-0.25,3.42-0.717,5c-0.135,0.451-0.375,0.654-0.809,0.826
		c-1.225,0.488-2.268,0.369-3.408-0.377c-1.912-1.25-3.934-2.334-5.932-3.445c-0.498-0.277-0.652-0.568-0.502-1.109
		c0.158-0.561,0.104-1.139-0.041-1.699c-0.092-0.363,0.029-0.566,0.354-0.752c2.436-1.391,4.867-2.793,7.287-4.213
		c0.338-0.199,0.625-0.092,0.957-0.068c1.631,0.111,2.299,1.064,2.48,2.592C73.881,55.434,74.104,56.559,74.074,57.545z"/>
	<path fill="#FE8538" d="M44.625,51.59c0.211-0.016,0.373,0.133,0.549,0.234c2.391,1.375,4.773,2.76,7.166,4.125
		c0.363,0.207,0.545,0.396,0.406,0.857c-0.174,0.574-0.164,1.193-0.008,1.773c0.117,0.436,0.02,0.646-0.369,0.867
		c-2.395,1.361-4.789,2.73-7.156,4.143c-0.604,0.361-1.096,0.014-1.643-0.037c-1.072-0.098-1.496-0.729-1.727-1.738
		c-0.672-2.955-0.654-5.871,0.172-8.793c0.174-0.613,0.467-0.924,1.088-1.025C43.613,51.914,44.107,51.732,44.625,51.59z"/>
	<path fill="#FE8538" d="M58.896,67.346c0-1.354,0.014-2.705-0.01-4.061c-0.006-0.441,0.072-0.707,0.564-0.838
		c0.578-0.152,1.115-0.465,1.533-0.895c0.33-0.344,0.574-0.283,0.938-0.068c2.24,1.312,4.48,2.631,6.754,3.889
		c0.623,0.348,0.885,0.811,1.137,1.447c0.467,1.188,0.102,1.947-0.795,2.754c-2.232,2.008-4.756,3.414-7.68,4.109
		c-0.459,0.107-0.754-0.012-1.121-0.297c-1.051-0.816-1.504-1.807-1.344-3.154C58.986,69.281,58.896,68.309,58.896,67.346z"/>
	<path fill="#FE8538" d="M60.977,41.674c1.236,0.221,2.416,0.625,3.551,1.15c1.979,0.918,3.723,2.168,5.209,3.775
		c0.314,0.34,0.361,0.645,0.297,1.111c-0.182,1.324-0.855,2.135-2.053,2.75c-2.055,1.059-4.025,2.279-6.021,3.449
		c-0.373,0.219-0.637,0.32-0.998-0.059c-0.432-0.453-0.998-0.75-1.607-0.916c-0.365-0.1-0.467-0.297-0.465-0.666
		c0.016-2.812,0.006-5.623,0.012-8.436c0-0.521,1.418-2.098,1.922-2.16C60.871,41.67,60.924,41.674,60.977,41.674z"/>
	<path fill="#FEB35A" d="M54.996,57.742c-0.016-1.506,1.199-2.742,2.701-2.75c1.504-0.008,2.748,1.227,2.748,2.721
		c-0.002,1.443-1.227,2.691-2.678,2.729C56.291,60.479,55.012,59.232,54.996,57.742z"/>
</g>
</svg>
