<?xml version="1.0" encoding="utf-8"?>
<!-- Generator: Adobe Illustrator 16.0.0, SVG Export Plug-In . SVG Version: 6.00 Build 0)  -->
<!DOCTYPE svg PUBLIC "-//W3C//DTD SVG 1.1//EN" "http://www.w3.org/Graphics/SVG/1.1/DTD/svg11.dtd">
<svg version="1.1" id="emoji" xmlns="http://www.w3.org/2000/svg" xmlns:xlink="http://www.w3.org/1999/xlink" x="0px" y="0px"
	 width="85px" height="85px" viewBox="0 0 85 85" enable-background="new 0 0 85 85" xml:space="preserve">
<g id="hair">
</g>
<g id="skin">
</g>
<g id="skin-shadow">
</g>
<g>
	<g id="color">
		<path fill="#9B9B9A" d="M65.26,82.5H19.741c-0.763,0-1.38-0.617-1.38-1.379V3.879c0-0.762,0.617-1.379,1.38-1.379H65.26
			c0.762,0,1.379,0.619,1.379,1.379v77.242C66.639,81.881,66.021,82.5,65.26,82.5z"/>
		<path fill="#D0CFCE" d="M59.1,69.031H25.902c-0.736,0-1.334-0.598-1.334-1.332V12.432c0-0.736,0.598-1.332,1.334-1.332H59.1
			c0.734,0,1.332,0.596,1.332,1.332v55.268C60.432,68.434,59.834,69.031,59.1,69.031z"/>
		<polygon fill="#FFFFFF" points="35.604,6.963 49.396,6.963 49.396,6.963 		"/>
	</g>
	<g id="line">
		<path fill="none" stroke="#000000" stroke-width="2" stroke-linecap="round" stroke-linejoin="round" stroke-miterlimit="10" d="
			M65.26,82.5H19.741c-0.763,0-1.38-0.617-1.38-1.379V3.879c0-0.762,0.617-1.379,1.38-1.379H65.26c0.762,0,1.379,0.619,1.379,1.379
			v77.242C66.639,81.881,66.021,82.5,65.26,82.5z"/>
		<path fill="none" stroke="#000000" stroke-width="2" stroke-linecap="round" stroke-linejoin="round" stroke-miterlimit="10" d="
			M59.1,69.031H25.902c-0.736,0-1.334-0.598-1.334-1.332V12.432c0-0.736,0.598-1.332,1.334-1.332H59.1
			c0.734,0,1.332,0.596,1.332,1.332v55.268C60.432,68.434,59.834,69.031,59.1,69.031z"/>
		<circle stroke="#000000" stroke-miterlimit="10" cx="42.5" cy="75.927" r="2.759"/>
		
			<polygon fill="none" stroke="#000000" stroke-width="2" stroke-linecap="round" stroke-linejoin="round" stroke-miterlimit="10" points="
			35.604,6.963 49.396,6.963 49.396,6.963 		"/>
	</g>
</g>
</svg>
