<?xml version="1.0" encoding="utf-8"?>
<!-- Generator: Adobe Illustrator 16.0.0, SVG Export Plug-In . SVG Version: 6.00 Build 0)  -->
<!DOCTYPE svg PUBLIC "-//W3C//DTD SVG 1.1//EN" "http://www.w3.org/Graphics/SVG/1.1/DTD/svg11.dtd">
<svg version="1.1" id="Layer_1" xmlns="http://www.w3.org/2000/svg" xmlns:xlink="http://www.w3.org/1999/xlink" x="0px" y="0px"
	 width="85px" height="85px" viewBox="0 0 85 85" enable-background="new 0 0 85 85" xml:space="preserve">
<g>
	<path fill="#6C686F" d="M28.724,54.739l1.521-4.299l4.032-11.389h4.912h15.544h12.17v-3.529h12.264v-7.449H66.903H43.466h-8.543
		h-8.545h-4.283h-9.276l-4.053,7.449c2.743,1.582,3.768,3.223,3.596,5.885c-0.131,2.006-0.94,4.594-2.209,8.178L4.326,66.042
		c-0.512,1.445,0.253,2.629,1.699,2.629h16.392c0.756,0,1.595-0.619,1.862-1.375l2.084-5.891L28.724,54.739z"/>
	<polygon fill="#2C5A7E" points="26.377,28.073 26.378,28.073 34.922,28.073 43.466,28.073 66.905,28.073 79.167,28.073 
		80.833,28.073 80.833,19.093 80.833,16.329 76.847,16.329 43.468,16.329 43.468,19.093 34.922,19.093 26.377,19.093 26.377,16.329 
		17.992,16.329 14.633,16.329 14.633,19.093 12.818,28.073 14.633,28.073 22.095,28.073 	"/>
</g>
<g>
	<path fill="#000003" d="M80.83,15.834h-2.32v-0.678c0-0.92-0.746-1.666-1.668-1.666c-0.92,0-1.666,0.746-1.666,1.666v0.678H43.465
		c-0.922,0-1.668,0.746-1.668,1.666v1.098H28.042V17.5c0-0.92-0.747-1.666-1.667-1.666h-6.72v-0.678c0-0.92-0.747-1.666-1.667-1.666
		s-1.667,0.746-1.667,1.666v0.678H14.63c-0.921,0-1.667,0.746-1.667,1.666v2.598l-1.73,8.572l-3.934,7.227
		c-0.432,0.793-0.152,1.789,0.631,2.24c1.976,1.141,2.877,2.135,2.774,4.248c-0.007,0.062-0.013,0.127-0.013,0.193c0,0,0,0,0,0.002
		c-0.125,1.672-0.84,4.021-2.113,7.619L2.753,66.656c-0.437,1.236-0.305,2.486,0.362,3.432c0.639,0.902,1.699,1.422,2.906,1.422
		h16.393c1.456,0,2.932-1.068,3.434-2.486l4.398-12.426c0.038-0.082,0.068-0.168,0.092-0.258l1.083-3.061h11.056
		c6.854,0,10.234-2.35,12.471-8.67l0.963-2.721h10.992c0.922,0,1.668-0.746,1.668-1.666v-1.863h10.596
		c0.922,0,1.668-0.746,1.668-1.666v-5.781c0.92,0,1.666-0.746,1.666-1.668V17.5C82.498,16.578,81.752,15.834,80.83,15.834z
		 M45.131,19.168h34.033v8.41H45.131V20.27c0-0.002,0-0.004,0-0.006V19.168z M36.586,27.578v-5.646h5.211v5.646H36.586z
		 M28.042,27.578v-5.646h5.21v5.646H28.042z M16.264,20.594c0.022-0.109,0.033-0.219,0.033-0.33v-1.096h8.411v1.096
		c0,0.004,0,0.008,0,0.014v7.301h-9.854L16.264,20.594z M51.805,43.496c-1.75,4.941-3.93,6.449-9.33,6.449H32.6l2.853-8.057h1.771
		c-0.017,1.975,0.731,4.273,2.516,6.078c0.326,0.33,0.756,0.496,1.186,0.496c0.424,0,0.848-0.16,1.172-0.482
		c0.656-0.646,0.66-1.703,0.014-2.357c-1.158-1.17-1.561-2.641-1.549-3.734h11.812L51.805,43.496z M65.234,38.555H39.17
		c-0.008,0-0.016,0-0.021,0h-4.873c-0.707,0-1.336,0.445-1.572,1.111l-5.16,14.578h-5.229c-0.92,0-1.668,0.746-1.668,1.666
		s0.746,1.668,1.668,1.668h4.047l-1.178,3.332H13.85c-0.92,0-1.666,0.746-1.666,1.666c0,0.922,0.746,1.668,1.666,1.668h10.152
		l-1.297,3.666c-0.034,0.092-0.207,0.238-0.311,0.266H6.023c-0.101,0-0.158-0.016-0.187-0.025c-0.01-0.053-0.012-0.182,0.06-0.381
		l5.824-16.457c0.959-2.711,1.74-5.037,2.098-7.066h3.707c0.922,0,1.668-0.746,1.668-1.668c0-0.92-0.748-1.666-1.668-1.666h-3.571
		c-0.249-1.83-1.146-3.383-2.993-4.768l2.846-5.23h51.43v5.781v1.859H65.234z M77.498,35.025h-8.93v-4.113h8.928L77.498,35.025
		L77.498,35.025z"/>
	<path fill="#000003" d="M17.525,34.244h-0.041c-0.92,0-1.666,0.746-1.666,1.666c0,0.922,0.746,1.668,1.666,1.668h0.041
		c0.92,0,1.666-0.748,1.666-1.668C19.193,34.99,18.445,34.244,17.525,34.244z"/>
	<path fill="#000003" d="M28.729,34.244h-6.414c-0.922,0-1.668,0.746-1.668,1.666c0,0.922,0.748,1.668,1.668,1.668h6.414
		c0.92,0,1.666-0.746,1.666-1.668C30.395,34.99,29.648,34.244,28.729,34.244z"/>
	<path fill="#000003" d="M17.525,54.244h-0.041c-0.92,0-1.666,0.746-1.666,1.666c0,0.922,0.746,1.668,1.666,1.668h0.041
		c0.92,0,1.666-0.746,1.666-1.668C19.191,54.99,18.445,54.244,17.525,54.244z"/>
</g>
</svg>
