<?xml version="1.0" encoding="utf-8"?>
<!-- Generator: Adobe Illustrator 16.0.0, SVG Export Plug-In . SVG Version: 6.00 Build 0)  -->
<!DOCTYPE svg PUBLIC "-//W3C//DTD SVG 1.1//EN" "http://www.w3.org/Graphics/SVG/1.1/DTD/svg11.dtd">
<svg version="1.1" id="Layer_1" xmlns="http://www.w3.org/2000/svg" xmlns:xlink="http://www.w3.org/1999/xlink" x="0px" y="0px"
	 width="85px" height="85px" viewBox="0 0 85 85" enable-background="new 0 0 85 85" xml:space="preserve">
<g>
	<g id="Layer_x0020_1">
		<g id="_171900416">
			<path id="_171901328" d="M56.873,42.641c-0.461,0-0.834,0.375-0.834,0.834s0.373,0.832,0.834,0.832h23.961v34.76H4.167v-34.76
				h23.931c0.459,0,0.832-0.373,0.832-0.832c0-0.461-0.373-0.834-0.832-0.834H3.333c-0.46,0-0.833,0.375-0.833,0.834V79.9
				c0,0.459,0.373,0.832,0.833,0.832h78.333c0.461,0,0.834-0.373,0.834-0.832V43.475c0-0.461-0.373-0.834-0.834-0.834H56.873
				L56.873,42.641z"/>
			<path id="_171901256" d="M27.339,79.9c0,0.459,0.373,0.832,0.833,0.832s0.833-0.373,0.833-0.832V37.236
				c0-0.461-0.373-0.834-0.833-0.834c-0.024,0-0.05,0.002-0.073,0.004l-3.623,0.004L42.5,18.387L60.523,36.41l-3.693-0.004v-0.004
				c-0.461,0-0.834,0.373-0.834,0.834l0,0l0,0V79.9c0,0.459,0.373,0.832,0.832,0.832c0.461,0,0.834-0.373,0.834-0.832V38.066
				l4.799,0.006c0.236,0.021,0.482-0.059,0.664-0.242c0.324-0.324,0.324-0.852,0-1.178l0,0L43.096,16.623l-0.006-0.006
				c-0.325-0.324-0.854-0.324-1.178,0l0,0L21.879,36.65c-0.151,0.15-0.247,0.361-0.247,0.592c0,0.459,0.374,0.832,0.834,0.832
				v-0.002l4.872-0.006L27.339,79.9L27.339,79.9z"/>
			<g>
				<path id="_171901160" d="M11.586,49.188h8.333c0.46,0,0.833,0.373,0.833,0.832v8.334c0,0.461-0.373,0.834-0.833,0.834h-8.333
					c-0.46,0-0.833-0.373-0.833-0.834V50.02C10.753,49.561,11.126,49.188,11.586,49.188z M19.086,50.854h-6.667v6.666h6.667V50.854z
					"/>
				<path id="_171901112" d="M11.586,64.188h8.333c0.46,0,0.833,0.373,0.833,0.832v8.334c0,0.461-0.373,0.834-0.833,0.834h-8.333
					c-0.46,0-0.833-0.373-0.833-0.834V65.02C10.753,64.561,11.126,64.188,11.586,64.188z M19.086,65.854h-6.667v6.666h6.667V65.854z
					"/>
			</g>
			<g>
				<path id="_171900968" d="M65.08,49.188h8.334c0.461,0,0.834,0.373,0.834,0.832v8.334c0,0.461-0.373,0.834-0.834,0.834H65.08
					c-0.459,0-0.832-0.373-0.832-0.834V50.02C64.248,49.561,64.621,49.188,65.08,49.188z M72.58,50.854h-6.666v6.666h6.666V50.854z"
					/>
				<path id="_171900920" d="M65.08,64.188h8.334c0.461,0,0.834,0.373,0.834,0.832v8.334c0,0.461-0.373,0.834-0.834,0.834H65.08
					c-0.459,0-0.832-0.373-0.832-0.834V65.02C64.248,64.561,64.621,64.188,65.08,64.188z M72.58,65.854h-6.666v6.666h6.666V65.854z"
					/>
			</g>
			<path id="_171900800" d="M42.501,28.475c1.754,0,3.342,0.711,4.491,1.861c1.15,1.148,1.861,2.736,1.861,4.49
				s-0.711,3.344-1.861,4.492c-1.148,1.15-2.736,1.861-4.491,1.861c-1.756,0-3.344-0.711-4.493-1.861
				c-1.149-1.148-1.86-2.738-1.86-4.492s0.711-3.342,1.86-4.49C39.158,29.186,40.746,28.475,42.501,28.475z M45.814,31.514
				c-0.848-0.85-2.02-1.373-3.313-1.373c-1.295,0-2.467,0.523-3.314,1.373c-0.848,0.848-1.373,2.02-1.373,3.312
				c0,1.295,0.524,2.467,1.373,3.314c0.848,0.848,2.02,1.373,3.314,1.373c1.295,0,2.467-0.525,3.313-1.373
				c0.85-0.848,1.373-2.02,1.373-3.314C47.188,33.533,46.662,32.361,45.814,31.514z"/>
			<path id="_171900728" d="M34.167,46.807h16.668c0.461,0,0.834,0.375,0.834,0.834v5c0,0.461-0.373,0.834-0.834,0.834H34.167
				c-0.46,0-0.833-0.373-0.833-0.834v-5C33.333,47.182,33.708,46.807,34.167,46.807L34.167,46.807z M50.002,48.475H35v3.332h15.001
				V48.475L50.002,48.475z"/>
			<path id="_171900656" d="M33.333,79.9c0,0.459,0.374,0.832,0.833,0.832c0.46,0,0.833-0.373,0.833-0.832V58.475h15V79.9
				c0,0.459,0.373,0.832,0.834,0.832s0.834-0.373,0.834-0.832v-22.26c0-0.459-0.373-0.834-0.834-0.834H34.166
				c-0.46,0-0.833,0.375-0.833,0.834L33.333,79.9L33.333,79.9z"/>
			<g>
				<path id="_171900536" d="M43.334,5.1c0-0.459-0.374-0.832-0.833-0.832c-0.461,0-0.834,0.373-0.834,0.832v12.092
					c0,0.461,0.373,0.834,0.834,0.834c0.459,0,0.833-0.373,0.833-0.834V5.1L43.334,5.1z"/>
				<path id="_171900560" d="M42.81,4.328c-0.426-0.17-0.91,0.037-1.082,0.463c-0.17,0.426,0.037,0.91,0.463,1.08l6.405,2.562
					l-6.405,2.562c-0.426,0.17-0.633,0.654-0.463,1.08c0.172,0.428,0.656,0.635,1.082,0.463l8.276-3.311
					c0.229-0.074,0.426-0.244,0.521-0.486c0.17-0.426-0.037-0.912-0.465-1.082v0.002L42.81,4.328L42.81,4.328z"/>
			</g>
		</g>
		<g>
			<path fill="#EEBC99" d="M60.525,36.41L42.501,18.387L24.478,36.41l3.621-0.004c0.024-0.002,0.049-0.002,0.074-0.002
				c0.46,0,0.833,0.373,0.833,0.832v41.83h4.328V57.643c0-0.461,0.374-0.834,0.833-0.834h16.668c0.461,0,0.834,0.373,0.834,0.834
				v21.424h4.326v-41.83l0,0c0-0.459,0.375-0.832,0.834-0.832v0.002L60.525,36.41L60.525,36.41z M48.854,34.826
				c0,1.754-0.711,3.344-1.859,4.492c-1.148,1.15-2.738,1.861-4.493,1.861c-1.754,0-3.344-0.711-4.492-1.861
				c-1.15-1.148-1.861-2.738-1.861-4.492s0.711-3.342,1.861-4.49c1.148-1.15,2.738-1.861,4.492-1.861
				c1.754,0,3.344,0.711,4.493,1.861C48.143,31.484,48.854,33.072,48.854,34.826z M34.167,46.807h16.668
				c0.459,0,0.834,0.375,0.834,0.834v5c0,0.461-0.375,0.834-0.834,0.834H34.167c-0.46,0-0.833-0.373-0.833-0.834v-5
				C33.333,47.182,33.708,46.807,34.167,46.807z"/>
			<path fill="#373435" d="M55.996,79.066h-4.328l-0.002-21.426c0-0.459-0.371-0.832-0.832-0.832H34.167
				c-0.459,0-0.833,0.373-0.833,0.832v21.426h-4.329v-41.83c0-0.459-0.374-0.834-0.833-0.834c-0.023,0-0.049,0.002-0.074,0.004
				l-3.621,0.004l0,0l0,0L42.5,18.387L60.525,36.41c-0.002,0-0.002,0-0.002,0l0,0c0.002,0,0.002,0,0.002,0s0,0-0.002,0l0,0l0,0l0,0
				l-3.693-0.004l-0.002-0.004l0,0c-0.459,0-0.832,0.373-0.832,0.832V79.066L55.996,79.066z M34.167,56.807h16.668
				c0.459,0,0.834,0.375,0.834,0.834v21.426h4.326v-41.83c0-0.459,0.375-0.834,0.834-0.834l0,0v0.004l3.693,0.004L42.501,18.387
				L24.478,36.41l3.621-0.004c0.025-0.002,0.051-0.004,0.074-0.004c0.459,0,0.833,0.375,0.833,0.834v41.83h4.328V57.641
				C33.333,57.182,33.708,56.807,34.167,56.807z M50.834,53.475H34.167c-0.459,0-0.833-0.375-0.833-0.834v-5
				c0-0.459,0.374-0.834,0.833-0.834h16.667c0.461,0,0.834,0.375,0.834,0.834v5C51.668,53.1,51.295,53.475,50.834,53.475z
				 M34.167,46.809c-0.459,0-0.833,0.373-0.833,0.832v5c0,0.459,0.374,0.832,0.833,0.832h16.668c0.459,0,0.832-0.373,0.832-0.832v-5
				c0-0.459-0.373-0.832-0.832-0.832H34.167z M42.501,41.182c-0.859,0-1.691-0.168-2.475-0.5c-0.756-0.32-1.436-0.777-2.02-1.361
				s-1.042-1.264-1.361-2.02c-0.332-0.783-0.5-1.615-0.5-2.475c0-0.857,0.168-1.688,0.5-2.473c0.319-0.756,0.777-1.436,1.361-2.02
				c0.584-0.582,1.264-1.041,2.02-1.361c0.783-0.332,1.615-0.5,2.475-0.5c0.856,0,1.688,0.168,2.473,0.5
				c0.756,0.32,1.436,0.779,2.02,1.361c0.584,0.584,1.041,1.264,1.361,2.02c0.332,0.783,0.5,1.615,0.5,2.473
				c0,0.859-0.168,1.691-0.5,2.475c-0.32,0.756-0.777,1.436-1.361,2.02c-0.584,0.582-1.264,1.041-2.02,1.361
				C44.191,41.014,43.359,41.182,42.501,41.182z M42.501,28.475c-0.859,0-1.689,0.168-2.475,0.5c-0.756,0.32-1.436,0.777-2.02,1.361
				s-1.042,1.264-1.361,2.02c-0.33,0.783-0.498,1.615-0.498,2.473s0.168,1.689,0.498,2.473c0.32,0.756,0.779,1.436,1.361,2.02
				c0.584,0.584,1.264,1.043,2.02,1.361c0.783,0.332,1.615,0.5,2.475,0.5c0.856,0,1.688-0.168,2.473-0.5
				c0.756-0.32,1.436-0.777,2.018-1.361c0.584-0.582,1.043-1.262,1.363-2.02c0.33-0.783,0.498-1.615,0.498-2.473
				s-0.168-1.689-0.498-2.473c-0.32-0.756-0.779-1.436-1.363-2.02c-0.582-0.582-1.262-1.041-2.018-1.361
				C44.191,28.643,43.359,28.475,42.501,28.475z"/>
		</g>
		<g>
			<path fill="#EEBC99" d="M80.834,44.307H57.662v34.76h23.172V44.307L80.834,44.307z M73.414,49.188
				c0.461,0,0.834,0.373,0.834,0.832v8.334c0,0.461-0.373,0.834-0.834,0.834h-8.332c-0.461,0-0.834-0.373-0.834-0.834V50.02
				c0-0.459,0.373-0.832,0.834-0.832H73.414L73.414,49.188z M65.082,64.188h8.332c0.461,0,0.834,0.373,0.834,0.832v8.334
				c0,0.461-0.373,0.834-0.834,0.834h-8.332c-0.461,0-0.834-0.373-0.834-0.834V65.02C64.248,64.561,64.621,64.188,65.082,64.188z"/>
			<path fill="#373435" d="M80.834,79.066H57.662v-34.76h23.172V79.066C80.836,79.066,80.834,79.066,80.834,79.066z M80.834,44.307
				l-23.172,0.002v34.758h23.172V44.307z M73.414,74.188h-8.332c-0.461,0-0.834-0.375-0.834-0.834V65.02
				c0-0.459,0.373-0.834,0.834-0.834h8.332c0.461,0,0.834,0.375,0.834,0.834v8.334C74.248,73.812,73.875,74.188,73.414,74.188z
				 M65.082,64.188c-0.461,0-0.834,0.373-0.834,0.832v8.334c0,0.459,0.373,0.832,0.834,0.832h8.332c0.459,0,0.834-0.373,0.834-0.832
				V65.02c0-0.459-0.375-0.832-0.834-0.832H65.082z M73.414,59.188h-8.332c-0.461,0-0.834-0.375-0.834-0.834V50.02
				c0-0.459,0.373-0.834,0.834-0.834h8.332c0.461,0,0.834,0.375,0.834,0.834v8.334C74.248,58.812,73.875,59.188,73.414,59.188z
				 M65.082,49.188c-0.461,0-0.834,0.373-0.834,0.832v8.334c0,0.459,0.373,0.832,0.834,0.832h8.332c0.459,0,0.834-0.373,0.834-0.832
				V50.02c0-0.459-0.375-0.832-0.834-0.832H65.082z"/>
		</g>
		<g>
			<path fill="#EEBC99" d="M27.339,79.066v-34.76H4.167v34.76H27.339z M20.753,50.02v8.334c0,0.461-0.373,0.834-0.833,0.834h-8.333
				c-0.46,0-0.833-0.373-0.833-0.834V50.02c0-0.459,0.373-0.832,0.833-0.832h8.333C20.38,49.188,20.753,49.561,20.753,50.02z
				 M11.586,64.188h8.333c0.46,0,0.833,0.373,0.833,0.832v8.334c0,0.461-0.373,0.834-0.833,0.834h-8.333
				c-0.46,0-0.833-0.373-0.833-0.834V65.02C10.753,64.561,11.126,64.188,11.586,64.188z"/>
			<path fill="#373435" d="M27.339,79.066H4.167v-34.76h23.172V79.066L27.339,79.066z M27.338,44.307L4.167,44.309v34.758h23.171
				V44.307z M19.919,74.188h-8.333c-0.46,0-0.834-0.375-0.834-0.834V65.02c0-0.459,0.374-0.834,0.834-0.834h8.333
				c0.46,0,0.834,0.375,0.834,0.834v8.334C20.753,73.812,20.379,74.188,19.919,74.188z M11.586,64.188
				c-0.459,0-0.833,0.373-0.833,0.832v8.334c0,0.459,0.374,0.832,0.833,0.832h8.333c0.459,0,0.833-0.373,0.833-0.832V65.02
				c0-0.459-0.374-0.832-0.833-0.832H11.586z M19.919,59.188h-8.333c-0.46,0-0.834-0.375-0.834-0.834V50.02
				c0-0.459,0.374-0.834,0.834-0.834h8.333c0.46,0,0.834,0.375,0.834,0.834v8.334C20.753,58.812,20.379,59.188,19.919,59.188z
				 M11.586,49.188c-0.459,0-0.833,0.373-0.833,0.832v8.334c0,0.459,0.374,0.832,0.833,0.832h8.333c0.459,0,0.833-0.373,0.833-0.832
				V50.02c0-0.459-0.374-0.832-0.833-0.832H11.586z"/>
		</g>
		<g>
			<polygon fill="#FF3D00" points="43.334,10.539 48.596,8.434 43.334,6.328 			"/>
			<path fill="#373435" d="M43.334,10.539L43.334,10.539V6.328l0,0l0,0l5.262,2.105c0.002,0,0.002,0,0.002,0s0,0-0.002,0
				L43.334,10.539L43.334,10.539z M43.336,6.33v4.207l5.26-2.104L43.336,6.33z"/>
		</g>
		<g>
			<path fill="#EDEAE3" d="M45.814,31.514c-0.848-0.848-2.02-1.373-3.313-1.373c-1.295,0-2.467,0.523-3.314,1.373
				c-0.848,0.848-1.373,2.02-1.373,3.312c0,1.295,0.524,2.467,1.373,3.314c0.85,0.848,2.02,1.373,3.314,1.373
				c1.295,0,2.467-0.523,3.313-1.373c0.85-0.848,1.373-2.02,1.373-3.314C47.188,33.533,46.662,32.361,45.814,31.514z"/>
			<path fill="#373435" d="M42.501,39.514c-0.635,0-1.248-0.123-1.826-0.367c-0.559-0.236-1.059-0.574-1.49-1.004
				c-0.43-0.432-0.768-0.932-1.004-1.49c-0.244-0.578-0.369-1.191-0.369-1.826c0-0.633,0.125-1.246,0.369-1.822
				c0.236-0.559,0.574-1.061,1.004-1.49c0.432-0.43,0.932-0.77,1.49-1.004c0.578-0.244,1.191-0.369,1.826-0.369
				c0.633,0,1.245,0.125,1.823,0.369c0.561,0.234,1.061,0.574,1.49,1.004s0.768,0.932,1.004,1.49
				c0.244,0.576,0.369,1.189,0.369,1.822c0,0.635-0.125,1.248-0.369,1.826c-0.236,0.559-0.574,1.059-1.004,1.49
				c-0.43,0.43-0.932,0.768-1.49,1.004C43.746,39.391,43.135,39.514,42.501,39.514z M42.501,30.143
				c-0.635,0-1.248,0.123-1.824,0.367c-0.559,0.236-1.061,0.574-1.49,1.004c-0.43,0.432-0.768,0.932-1.004,1.49
				c-0.244,0.578-0.367,1.191-0.367,1.824s0.123,1.246,0.367,1.824c0.236,0.559,0.574,1.059,1.004,1.49
				c0.43,0.43,0.932,0.768,1.49,1.004c0.578,0.244,1.189,0.367,1.824,0.367c0.633,0,1.245-0.123,1.823-0.367
				c0.559-0.236,1.061-0.574,1.49-1.004c0.43-0.432,0.768-0.932,1.004-1.49c0.244-0.578,0.367-1.191,0.367-1.824
				s-0.123-1.246-0.367-1.824c-0.236-0.559-0.574-1.059-1.004-1.49c-0.432-0.43-0.932-0.768-1.49-1.004
				C43.746,30.266,43.135,30.143,42.501,30.143z"/>
		</g>
		<g>
			<polygon fill="#EDEAE3" points="65.914,50.854 65.914,57.52 72.58,57.52 72.58,50.854 			"/>
			<path fill="#373435" d="M72.58,57.521h-6.666v-6.668h6.666V57.521C72.582,57.521,72.582,57.521,72.58,57.521z M72.58,50.854
				h-6.666v6.666h6.666V50.854z"/>
		</g>
		<g>
			<polygon fill="#EDEAE3" points="72.58,65.854 65.914,65.854 65.914,72.52 72.58,72.52 			"/>
			<path fill="#373435" d="M72.58,72.521h-6.666v-6.668h6.666V72.521C72.582,72.521,72.582,72.521,72.58,72.521z M72.58,65.854
				h-6.666v6.666h6.666V65.854z"/>
		</g>
		<g>
			<polygon fill="#EDEAE3" points="19.086,57.52 19.086,50.854 12.419,50.854 12.419,57.52 			"/>
			<path fill="#373435" d="M19.086,57.521h-6.667v-6.668h6.667V57.521L19.086,57.521z M19.085,50.854h-6.666v6.666h6.666V50.854z"/>
		</g>
		<g>
			<polygon fill="#EDEAE3" points="19.086,65.854 12.419,65.854 12.419,72.52 19.086,72.52 			"/>
			<path fill="#373435" d="M19.086,72.521h-6.667v-6.668h6.667V72.521L19.086,72.521z M19.085,65.854h-6.666v6.666h6.666V65.854z"/>
		</g>
		<g>
			<polygon fill="#EDEAE3" points="35,58.475 35,79.066 50.002,79.066 50.002,58.475 			"/>
			<path fill="#373435" d="M50.002,79.066H35V58.475h15.001V79.066L50.002,79.066z M50,58.475H35v20.592h15V58.475z"/>
		</g>
		<g>
			<polygon fill="#EDEAE3" points="35,51.807 50.002,51.807 50.002,48.475 35,48.475 			"/>
			<path fill="#373435" d="M50.002,51.809H35v-3.334h15.001V51.809L50.002,51.809z M50,48.475H35v3.332h15V48.475z"/>
		</g>
	</g>
</g>
</svg>
