<?xml version="1.0" encoding="utf-8"?>
<!-- Generator: Adobe Illustrator 16.0.0, SVG Export Plug-In . SVG Version: 6.00 Build 0)  -->
<!DOCTYPE svg PUBLIC "-//W3C//DTD SVG 1.1//EN" "http://www.w3.org/Graphics/SVG/1.1/DTD/svg11.dtd">
<svg version="1.1" id="Layer_1" xmlns="http://www.w3.org/2000/svg" xmlns:xlink="http://www.w3.org/1999/xlink" x="0px" y="0px"
	 width="85px" height="85px" viewBox="0 0 85 85" enable-background="new 0 0 85 85" xml:space="preserve">
<g>
	<path fill="#FFB67F" d="M43.648,45.07c0.232,1.433-0.9,2.396-1.097,2.561c-0.199,0.167-0.965,0.766-1.854,0.896
		c-0.891,0.137-0.541-0.332,0-0.63c0.541-0.3,0.758-1.396,0.791-1.928c0.033-0.533-0.531-0.333-0.531,0
		c0,0.33-0.266,1.197-0.635,1.495c-0.363,0.299-0.5-0.168-0.363-0.427c0.129-0.262,0.266-1.566,0.197-1.834
		c-0.068-0.267,0.406-0.82,0.535-1.101c0.123-0.271,0.217-0.878,0.234-1.179c0.061-1.017-0.264-3.247-0.568-4.035
		c-0.311-0.791-0.662-6.057-0.484-6.847c0.096-0.436-0.133-1.645-0.371-2.863H39.5c-0.191-0.992-0.389-1.988-0.42-2.579
		c-0.135,0.223-0.27,0.719-0.4,1.339c-0.377,1.813-0.693,4.723-0.693,5.245c0,0.249,0.156,1.333,0.363,2.694
		c0.076,0.51,0.16,1.06,0.246,1.62c0.119,0.772,0.244,1.565,0.354,2.296c0.199,1.316,0.359,2.439,0.395,2.914
		c0.014,0.141,0.018,0.373,0.014,0.677c0,0.156-0.004,0.336-0.006,0.529c-0.078,3.183-0.598,10.909-0.971,12.176
		c-0.008,0.021-0.012,0.043-0.018,0.062c-0.408,1.545,0.043,5.577,0.104,6.3c0.096,1.144,0.035,3.968-0.219,5.881
		c-0.115,0.881-0.516,5.522-0.305,7.151c0.051,0.404,0.125,2.019,0.217,2.369h-3.359c0.039-0.984,0.016-3.244-0.148-3.685
		c-0.309-0.833-1.316-7.679-1.361-8.38c-0.045-0.705,0.158-4.414,0.326-5.751c0.213-1.658-0.764-3.423-0.809-6.274
		c-0.016-1.099,0.045-3.379,0-3.993c-0.041-0.614-0.615-5.178-0.615-5.969c0,0.791-0.572,5.354-0.613,5.969
		c-0.045,0.614,0.018,2.896,0,3.993c-0.045,2.853-1.021,4.616-0.809,6.274c0.168,1.337,0.371,5.046,0.326,5.751
		c-0.047,0.701-1.057,7.547-1.361,8.38c-0.162,0.439-0.189,2.699-0.15,3.685h-3.355c0.088-0.352,0.164-1.965,0.215-2.369
		c0.211-1.629-0.191-6.271-0.307-7.151c-0.16-1.209-0.244-2.783-0.258-4.064c-0.01-0.747,0.002-1.395,0.039-1.814
		c0.025-0.295,0.115-1.139,0.186-2.139c0.016-0.215,0.029-0.437,0.041-0.664c0.033-0.578,0.051-1.181,0.045-1.738
		c-0.004-0.575-0.037-1.106-0.113-1.521c-0.018-0.102-0.041-0.203-0.07-0.303c-0.377-1.27-0.896-9.033-0.967-12.198
		c-0.002-0.041-0.004-0.078-0.004-0.115c-0.002-0.143-0.004-0.272-0.006-0.392c-0.002-0.084-0.002-0.159-0.002-0.231
		c0-0.192,0.002-0.346,0.012-0.444c0.033-0.411,0.158-1.304,0.32-2.392c0.119-0.799,0.26-1.703,0.395-2.594
		c0.006-0.035,0.014-0.072,0.02-0.107c0.055-0.371,0.111-0.737,0.166-1.091c0.023-0.153,0.049-0.307,0.07-0.454
		c0.221-1.45,0.391-2.626,0.391-2.886c0-0.702-0.572-5.706-1.094-6.584c-0.031,0.591-0.229,1.587-0.422,2.577
		c-0.236,1.22-0.469,2.43-0.373,2.864c0.094,0.421,0.041,2.099-0.076,3.7c-0.047,0.595-0.1,1.181-0.156,1.686
		c-0.01,0.102-0.021,0.203-0.035,0.305c-0.07,0.551-0.145,0.975-0.215,1.157c-0.039,0.098-0.078,0.218-0.115,0.356h-0.002
		c-0.264,0.933-0.521,2.656-0.459,3.599c0,0.028,0.004,0.055,0.006,0.079c0.004,0.041,0.01,0.117,0.02,0.21
		c0.01,0.062,0.018,0.133,0.027,0.21c0.039,0.275,0.102,0.604,0.188,0.759c0.271,0.471,0.602,0.834,0.533,1.101
		c-0.066,0.268,0.068,1.572,0.201,1.834c0.133,0.259,0,0.726-0.365,0.426c-0.369-0.297-0.631-1.164-0.631-1.494
		c0-0.333-0.566-0.533-0.533,0c0.035,0.532,0.248,1.628,0.791,1.928c0.539,0.298,0.887,0.767,0,0.63
		c-0.893-0.132-1.656-0.729-1.855-0.896c-0.199-0.166-1.33-1.128-1.098-2.561c0.166-1.015,0.137-1.846,0.135-1.923
		c-0.039-0.706-0.254-2.413-0.396-4.405c-0.049-0.665-0.088-1.364-0.105-2.068c0-0.001-0.004-0.003-0.004-0.007
		c-0.037-1.234-0.02-2.482,0.105-3.606c0.094-0.856,0.248-1.641,0.49-2.288c0.115-0.31,0.141-1.597,0.143-2.933
		c0.002-1.553-0.033-3.173-0.008-3.409c-0.09-0.438-0.182-4.364,1.047-5.637c1.688-1.746,3.799-2.271,4.459-2.532
		c0.27-0.109,0.75-0.358,1.242-0.632c0.033-0.018,0.066-0.035,0.1-0.053c0.676-0.375,1.354-0.771,1.525-0.872
		c0.107-0.061,0.482-1.123,0.496-1.22l0.004-0.031c0-0.008,0.004-0.015,0.004-0.022c0.01-0.078,0.02-0.147,0.027-0.213
		c0.004-0.032,0.01-0.062,0.012-0.091c0.004-0.014,0.006-0.025,0.006-0.038c0.002-0.029,0.006-0.054,0.008-0.079
		c0.002-0.008,0.002-0.014,0.002-0.021c0-0.009,0.002-0.017,0.004-0.025c0.004-0.037,0.006-0.059,0.006-0.059h4.303l0.016,0.106
		c0.002,0.024,0.004,0.049,0.008,0.079c0.002,0.013,0.004,0.025,0.006,0.039c0.002,0.027,0.006,0.058,0.01,0.09
		c0.008,0.054,0.018,0.111,0.025,0.175l0.004,0.038c0.004,0.02,0.006,0.035,0.01,0.055c0.006,0.059,0.359,1.146,0.492,1.22
		c0.148,0.087,0.68,0.396,1.26,0.722c0.609,0.341,1.273,0.699,1.609,0.834c0.664,0.262,2.771,0.786,4.457,2.532
		c0.018,0.016,0.033,0.032,0.047,0.053c1.181,1.322,1.089,5.151,1.007,5.584c0.021,0.239-0.014,1.905-0.012,3.477
		c0,1.315,0.029,2.561,0.141,2.865c1.041,2.798,0.188,9.647,0.016,12.704C43.4,44.161,43.617,44.886,43.648,45.07L43.648,45.07z"/>
	<path fill="#404040" d="M39.608,48.981c-0.354,3.392-0.326,11.749-0.287,12.193c-1.375,0.458-4.762,0.37-6.467,0.013
		c0.021-0.595-0.66-14.11-0.66-14.733c0,0.622-0.684,14.112-0.66,14.682c-1.629,0.38-5.008,0.507-6.475,0.11
		c0.045-0.455,0.361-5.105,0.264-6.344c-0.137-1.674-0.342-3.97-0.547-5.921c-0.135-1.303-0.07-3.162,0.074-5.096
		c0.004-0.034,0.006-0.073,0.01-0.108c0.016-0.203,0.029-0.404,0.047-0.607c0.08-0.966,0.178-1.937,0.275-2.851
		c0.105-0.962,0.391-1.862,0.48-2.632c0.004-0.034,0.01-0.068,0.01-0.099c0.053-0.409,0.102-0.819,0.146-1.229
		c0.016-0.131,0.029-0.254,0.041-0.365c0.023,0.021,0.076,0.049,0.148,0.076c0.918,0.372,5.369,1.208,6.184,1.208
		c0.488,0,2.277-0.36,3.83-0.737c0.473-0.113,0.941-0.235,1.41-0.365c0.402-0.115,0.727-0.218,0.914-0.295
		c0.08-0.034,0.135-0.063,0.16-0.088c0.035,0.411,0.098,0.98,0.176,1.661c0.076,0.687,0.346,1.485,0.441,2.343
		c0.143,1.296,0.291,2.73,0.4,4.12C39.674,45.855,39.743,47.705,39.608,48.981L39.608,48.981z"/>
	<path fill="#FFB67F" d="M35.358,5.449c-0.316-1.246-2.422-1.395-3.164-1.395s-2.85,0.148-3.166,1.395
		c-0.314,1.244,0.066,5.674,0.133,6.322c0.066,0.647,1.461,1.958,1.793,2.191c0.332,0.231,0.818,0.364,1.24,0.364
		c0.42,0,0.906-0.133,1.24-0.364c0.33-0.232,1.725-1.544,1.791-2.191C35.292,11.123,35.672,6.693,35.358,5.449L35.358,5.449z"/>
	<path fill="#FFB67F" d="M35.366,8.714c0.014-0.296,0.277-0.812,0.516-0.542s0.152,1.249,0.057,1.592s-0.535,1.105-0.711,1.088
		c0.027-0.357,0.064-0.966,0.094-1.295C35.348,9.229,35.356,8.961,35.366,8.714L35.366,8.714z"/>
	<path fill="#EC8940" d="M35.545,9.166C35.5,8.988,35.5,8.801,35.543,8.623c0.018-0.043,0.027-0.103,0.104-0.131
		c0.037-0.01,0.07,0.002,0.098,0.021c0.025,0.017,0.043,0.038,0.057,0.06c0.057,0.086,0.076,0.182,0.086,0.275
		c0.008,0.096-0.002,0.191-0.027,0.283c-0.029,0.087-0.066,0.171-0.113,0.25c-0.096,0.152-0.158,0.314-0.213,0.488
		c0.008-0.09,0.025-0.18,0.047-0.268c0.025-0.088,0.064-0.173,0.104-0.253c0.033-0.08,0.07-0.163,0.092-0.242
		c0.02-0.082,0.025-0.167,0.02-0.251c-0.006-0.083-0.025-0.169-0.066-0.234c-0.02-0.032-0.047-0.051-0.062-0.049
		c-0.012,0-0.039,0.039-0.053,0.075c-0.031,0.078-0.045,0.167-0.055,0.255C35.545,8.988,35.542,9.076,35.545,9.166L35.545,9.166z"/>
	<path fill="#FFB67F" d="M29.016,8.64c-0.014-0.295-0.275-0.812-0.516-0.542c-0.238,0.271-0.15,1.25-0.055,1.593
		c0.094,0.341,0.535,1.106,0.711,1.089c-0.029-0.358-0.064-0.967-0.094-1.295S29.028,8.888,29.016,8.64z"/>
	<path fill="#EC8940" d="M28.834,9.093c0.006-0.088,0-0.179-0.012-0.267c-0.008-0.088-0.023-0.176-0.053-0.254
		c-0.014-0.037-0.041-0.076-0.053-0.076c-0.016-0.004-0.043,0.017-0.062,0.049c-0.041,0.066-0.061,0.152-0.066,0.234
		c-0.008,0.084-0.002,0.168,0.02,0.25c0.02,0.082,0.059,0.164,0.092,0.244c0.039,0.08,0.078,0.166,0.1,0.254
		c0.023,0.086,0.041,0.176,0.051,0.266c-0.057-0.174-0.119-0.336-0.215-0.487c-0.047-0.08-0.084-0.165-0.113-0.253
		c-0.027-0.091-0.035-0.188-0.027-0.281c0.01-0.094,0.029-0.188,0.086-0.275c0.014-0.021,0.033-0.043,0.059-0.059
		c0.025-0.018,0.061-0.029,0.098-0.02c0.076,0.027,0.084,0.088,0.102,0.131C28.883,8.734,28.877,8.918,28.834,9.093L28.834,9.093z"
		/>
	<g>
		<path fill="#EC8940" d="M31.024,12.427c0.09,0.042,0.186,0.073,0.279,0.094c0.047,0.013,0.094,0.021,0.139,0.022
			c0.041,0,0.09-0.006,0.141-0.01c0.201-0.016,0.4-0.019,0.602-0.025c0.102-0.003,0.201-0.003,0.301-0.01l0.297-0.019
			c0.188-0.021,0.389-0.047,0.584-0.085c0.004-0.001,0.008,0,0.008,0.004c0,0.002,0,0.006-0.002,0.008
			c-0.084,0.062-0.18,0.102-0.277,0.137c-0.096,0.035-0.193,0.061-0.301,0.072c-0.109,0.006-0.201,0-0.305,0.002
			c-0.098,0.002-0.199,0.01-0.299,0.016c-0.201,0.012-0.4,0.025-0.602,0.027c-0.049,0-0.1,0.004-0.158-0.006
			c-0.053-0.012-0.105-0.026-0.154-0.049c-0.096-0.043-0.186-0.097-0.258-0.169c-0.002-0.004-0.002-0.008,0-0.01
			C31.018,12.427,31.02,12.425,31.024,12.427z M31.819,13.008c0.066,0.023,0.129,0.036,0.191,0.047
			c0.062,0.01,0.123,0.018,0.186,0.016c0.123,0.002,0.238-0.015,0.373-0.062c-0.031,0.066-0.092,0.115-0.158,0.148
			c-0.068,0.034-0.143,0.047-0.217,0.047c-0.076-0.002-0.148-0.017-0.215-0.051C31.913,13.121,31.852,13.074,31.819,13.008
			L31.819,13.008z"/>
	</g>
	<g>
		<path fill="#EC8940" d="M31.792,11.384c-0.037-0.011-0.076-0.019-0.113-0.031c-0.018-0.008-0.037-0.014-0.055-0.022
			c-0.01-0.004-0.02-0.008-0.029-0.015c-0.006-0.008-0.023-0.009-0.023-0.038c0.01-0.031,0.021-0.027,0.027-0.035
			c0.012-0.006,0.023-0.013,0.033-0.015c0.021-0.008,0.045-0.009,0.064-0.009c0.043,0.001,0.084,0.007,0.123,0.02
			c0.088,0.021,0.146,0.086,0.207,0.133c0.029,0.024,0.057,0.052,0.086,0.072c0.025,0.022,0.066,0.039,0.078,0.039
			c0.055-0.003,0.113-0.062,0.172-0.111c0.061-0.047,0.119-0.109,0.207-0.133c0.041-0.011,0.082-0.018,0.123-0.019
			c0.043,0.002,0.09,0,0.125,0.052c0,0.041-0.018,0.035-0.025,0.044c-0.008,0.007-0.018,0.011-0.027,0.015
			c-0.02,0.01-0.037,0.016-0.057,0.023c-0.037,0.012-0.074,0.021-0.113,0.03l0.105-0.052c0.018-0.008,0.035-0.018,0.051-0.028
			c0.008-0.005,0.016-0.009,0.021-0.015c0.006-0.002,0.008-0.021,0.008-0.002c-0.01-0.012-0.053-0.021-0.086-0.018
			c-0.037,0.006-0.072,0.014-0.105,0.028c-0.062,0.022-0.119,0.079-0.176,0.131c-0.059,0.049-0.111,0.119-0.215,0.135
			c-0.066-0.003-0.096-0.032-0.133-0.057c-0.033-0.024-0.062-0.052-0.09-0.078c-0.059-0.054-0.111-0.108-0.176-0.131
			c-0.033-0.015-0.068-0.022-0.105-0.028c-0.033-0.006-0.072,0.006-0.084,0.014c-0.006-0.01,0.016,0.015,0.029,0.021
			c0.016,0.011,0.033,0.021,0.051,0.028L31.792,11.384L31.792,11.384z M32.774,10.912c0.084,0.018,0.166,0.072,0.199,0.166
			c0.014,0.047,0.014,0.098-0.006,0.141c-0.02,0.042-0.047,0.077-0.084,0.102c0.021-0.086,0.035-0.154,0.014-0.217
			C32.877,11.039,32.825,10.982,32.774,10.912z M31.614,10.912c-0.053,0.069-0.104,0.127-0.123,0.19
			c-0.023,0.062-0.008,0.132,0.014,0.216c-0.037-0.023-0.066-0.06-0.084-0.101c-0.02-0.042-0.02-0.095-0.004-0.142
			C31.448,10.986,31.53,10.93,31.614,10.912z"/>
	</g>
	<path fill="#FFFFFF" d="M32.899,9.016c0.17-0.361,0.639-0.445,0.807-0.445c0.234,0,0.627,0.158,0.766,0.308
		c-0.164,0.317-0.494,0.456-0.717,0.489C33.53,9.398,33.122,9.281,32.899,9.016z"/>
	<path fill="#A35017" d="M34.03,8.947c0,0.213-0.174,0.387-0.387,0.387c-0.215,0-0.387-0.174-0.387-0.387s0.172-0.385,0.387-0.385
		C33.856,8.562,34.03,8.734,34.03,8.947z"/>
	<path d="M33.86,8.947c0,0.121-0.096,0.219-0.217,0.219s-0.219-0.098-0.219-0.217c0,0,0,0,0-0.002c0-0.119,0.098-0.218,0.219-0.218
		C33.762,8.73,33.86,8.828,33.86,8.947z"/>
	<path d="M32.899,9.016c0.043-0.146,0.156-0.273,0.291-0.355c0.135-0.086,0.289-0.133,0.447-0.148
		c0.162-0.02,0.326,0.032,0.467,0.088c0.139,0.066,0.281,0.139,0.383,0.266l0.008,0.012l-0.006,0.011
		c-0.027,0.041-0.061,0.08-0.096,0.114c0.021-0.045,0.043-0.088,0.061-0.133l0.004,0.021c-0.117-0.085-0.254-0.145-0.393-0.186
		c-0.143-0.043-0.277-0.082-0.418-0.068c-0.141,0.01-0.281,0.048-0.412,0.105C33.104,8.802,32.987,8.89,32.899,9.016z"/>
	<path fill="#D1160F" d="M32.745,8.084c-0.064-0.213,0.041-0.262,0.182-0.332c0.107-0.051,1.047-0.189,1.275-0.189
		s0.559,0.34,0.637,0.521c-0.15,0.011-0.361-0.119-0.59-0.144c-0.229-0.022-1.047,0.166-1.205,0.237
		C32.887,8.248,32.764,8.147,32.745,8.084L32.745,8.084z"/>
	<path fill="#FFFFFF" d="M31.487,9.016C31.319,8.654,30.85,8.57,30.68,8.57c-0.232,0-0.627,0.158-0.764,0.308
		c0.162,0.317,0.494,0.456,0.717,0.489C30.856,9.398,31.266,9.281,31.487,9.016z"/>
	<path fill="#A35017" d="M30.358,8.947c0.004,0.213,0.182,0.383,0.395,0.379c0.207-0.006,0.373-0.172,0.377-0.379
		c0-0.213-0.172-0.385-0.385-0.385l0,0C30.532,8.562,30.358,8.734,30.358,8.947L30.358,8.947L30.358,8.947z"/>
	<path d="M30.526,8.947c0,0.121,0.098,0.219,0.219,0.219s0.217-0.098,0.217-0.219c0-0.119-0.098-0.218-0.217-0.218
		C30.624,8.73,30.526,8.828,30.526,8.947z"/>
	<path d="M31.487,9.016c-0.043-0.146-0.156-0.273-0.291-0.355c-0.133-0.086-0.287-0.133-0.445-0.148
		c-0.164-0.02-0.326,0.032-0.467,0.088c-0.139,0.066-0.281,0.139-0.381,0.266l-0.01,0.012l0.006,0.011
		c0.027,0.042,0.059,0.08,0.096,0.114c-0.021-0.045-0.043-0.088-0.061-0.133l-0.002,0.021c0.113-0.085,0.252-0.145,0.391-0.186
		c0.143-0.043,0.277-0.082,0.418-0.068c0.141,0.01,0.283,0.048,0.412,0.105C31.284,8.802,31.399,8.89,31.487,9.016z"/>
	<path fill="#D1160F" d="M31.643,8.084c0.064-0.213-0.041-0.262-0.184-0.332c-0.105-0.051-1.047-0.189-1.273-0.189
		c-0.229,0-0.561,0.34-0.639,0.521c0.152,0.011,0.361-0.119,0.59-0.144c0.229-0.022,1.049,0.166,1.205,0.237
		C31.5,8.248,31.622,8.147,31.643,8.084z"/>
	<path fill="#83ABDD" d="M43.465,24.438c0.012,0.164,0.008,0.635,0,1.427c-0.008,0.532-0.01,1.222-0.01,1.915
		c-0.057,0.043-0.113,0.088-0.174,0.128c-1.158,0.826-2.904,1.271-3.781,1.271h-0.002c-0.061,0-0.121-0.001-0.174-0.006
		c-0.002-0.024-0.006-0.049-0.012-0.073c-0.125-0.634-0.244-1.248-0.322-1.756c-0.105,0.397-0.209,0.915-0.307,1.482v0.001
		c-0.047,0.272-0.09,0.547-0.131,0.821c-0.006,0.035-0.01,0.07-0.016,0.105c-0.021,0.145-0.043,0.289-0.061,0.433
		c-0.01,0.058-0.02,0.114-0.023,0.171c-0.021,0.138-0.039,0.274-0.057,0.41c-0.02,0.144-0.035,0.282-0.053,0.418
		c0,0.003-0.002,0.009-0.002,0.015c-0.008,0.07-0.016,0.141-0.023,0.208c-0.014,0.104-0.023,0.204-0.035,0.302
		c-0.012,0.094-0.021,0.188-0.029,0.283c-0.01,0.092-0.02,0.18-0.029,0.264c-0.004,0.054-0.01,0.107-0.014,0.163
		c-0.002,0.011-0.002,0.021-0.004,0.034c-0.004,0.057-0.01,0.112-0.016,0.17c0,0.019-0.002,0.039-0.004,0.058
		c-0.006,0.054-0.01,0.105-0.012,0.153c-0.002,0.008-0.002,0.018-0.002,0.025c-0.004,0.028-0.006,0.055-0.006,0.078v0.011
		c-0.002,0.022-0.004,0.048-0.004,0.067c-0.004,0.055-0.006,0.111-0.006,0.166c0,0.232,0.152,1.301,0.35,2.608
		c0.08,0.514,0.164,1.064,0.25,1.618c-0.023,0.015-0.047,0.027-0.072,0.042c-0.029,0.015-0.059,0.032-0.088,0.046
		c-0.838,0.443-1.916,0.742-3.1,0.923c-3.115,0.479-6.971,0.155-9.121-0.487c-0.209-0.062-0.416-0.132-0.619-0.211
		c-0.031-0.012-0.061-0.023-0.092-0.039c-0.023-0.008-0.047-0.019-0.07-0.029c0.004-0.027,0.01-0.057,0.016-0.088
		c0.062-0.417,0.127-0.832,0.189-1.235c0.234-1.546,0.434-2.886,0.434-3.148c0-0.573-0.404-4.217-0.834-5.839
		c-0.08,0.509-0.197,1.123-0.322,1.756c-0.006,0.026-0.01,0.051-0.018,0.078c-0.057,0.001-0.113,0.001-0.17,0
		c-0.93-0.031-2.666-0.498-3.783-1.341c-0.061-0.043-0.117-0.09-0.172-0.136v-0.002c0-0.655-0.004-1.303-0.01-1.808
		c-0.008-0.807-0.012-1.291,0-1.455c-0.094-0.567-0.178-4.443,1.1-5.767c1.465-1.514,3.205-2.112,4.137-2.437
		c0.154-0.053,0.283-0.096,0.379-0.135c0.262-0.106,0.807-0.221,1.309-0.473c0.033-0.019,0.066-0.035,0.1-0.054
		c0.738,1.551,2.246,2.47,4.078,2.47c1.893,0,3.447-0.987,4.152-2.62c0.607,0.339,1.344,0.545,1.674,0.676
		c0.098,0.039,0.225,0.082,0.381,0.134c0.932,0.324,2.674,0.922,4.137,2.438c0.033,0.034,0.064,0.067,0.094,0.105
		C43.629,20.185,43.557,23.887,43.465,24.438L43.465,24.438z"/>
	<g>
		<path fill="#404040" d="M42.225,81.638c-0.094,0.304-0.812,0.719-1.512,0.796c-0.699,0.074-2.342-0.114-2.721-0.341
			c-0.377-0.227-1.473-1.097-1.756-1.114c-0.285-0.02-1.473-0.34-1.621-0.565c-0.15-0.229-0.135-0.851,0.055-1.076
			c0.264,0.284,1.113,0.661,1.547,0.698s1.041,0.566,1.586,0.998c0.547,0.437,2.117,0.567,2.795,0.437
			c0.682-0.131,1.438-0.332,1.598-0.676C42.317,80.99,42.307,81.378,42.225,81.638L42.225,81.638z"/>
		<path fill="#C4C4C4" d="M42.198,80.793c-0.16,0.344-0.918,0.545-1.598,0.676c-0.68,0.132-2.248,0-2.795-0.437
			c-0.547-0.432-1.154-0.961-1.586-0.999c-0.436-0.036-1.285-0.414-1.549-0.697c-0.02-0.229-0.301-1.544,0.111-2.021
			c0.248,0.445,0.719,0.546,0.852,0.396c0.131-0.149,0.414-0.852,0.623-1.059c0.207-0.208,0.793-0.377,1.135-0.319
			c0.338,0.055,0.66,0.356,0.85,0.698c0.188,0.342,1.076,1.396,1.549,1.775c0.473,0.378,2.152,1.755,2.342,1.906
			C42.157,80.733,42.18,80.762,42.198,80.793L42.198,80.793z"/>
		<path fill="#E6E6E6" d="M37.463,79.062c-0.078,0-0.143-0.063-0.143-0.144l0,0c0-0.41,0.18-0.68,0.533-0.797
			c0.291-0.098,1.125-0.211,1.16-0.216c0.078-0.015,0.15,0.045,0.16,0.122c0.012,0.078-0.043,0.15-0.121,0.162
			c-0.01,0-0.842,0.114-1.109,0.203c-0.232,0.078-0.336,0.239-0.336,0.524C37.608,78.998,37.543,79.062,37.463,79.062L37.463,79.062
			z M38.012,79.611c-0.078,0-0.143-0.063-0.143-0.144l0,0c0-0.411,0.178-0.679,0.531-0.797c0.293-0.098,1.127-0.21,1.162-0.215
			c0.08-0.016,0.15,0.045,0.16,0.123c0.01,0.077-0.045,0.148-0.123,0.159c-0.008,0.001-0.842,0.114-1.109,0.203
			c-0.232,0.077-0.336,0.24-0.336,0.525C38.155,79.547,38.09,79.611,38.012,79.611L38.012,79.611z M38.657,80.046
			c-0.08,0-0.145-0.063-0.145-0.144v-0.001c0-0.41,0.18-0.679,0.533-0.797c0.293-0.097,1.125-0.21,1.16-0.214
			c0.08-0.015,0.152,0.044,0.162,0.122s-0.045,0.15-0.123,0.161c-0.008,0.001-0.842,0.114-1.109,0.203
			c-0.232,0.077-0.336,0.238-0.336,0.523C38.799,79.981,38.735,80.046,38.657,80.046L38.657,80.046z"/>
	</g>
	<g>
		<path fill="#404040" d="M22.127,81.688c0.096,0.304,0.814,0.719,1.514,0.796c0.697,0.075,2.342-0.113,2.719-0.341
			c0.377-0.226,1.475-1.097,1.758-1.113c0.283-0.02,1.473-0.341,1.621-0.565c0.148-0.229,0.135-0.852-0.053-1.078
			c-0.266,0.284-1.115,0.663-1.551,0.699c-0.432,0.037-1.037,0.565-1.586,1c-0.547,0.435-2.115,0.565-2.795,0.435
			c-0.682-0.132-1.436-0.332-1.598-0.676C22.038,81.041,22.047,81.427,22.127,81.688L22.127,81.688z"/>
		<path fill="#C4C4C4" d="M22.157,80.843c0.16,0.344,0.916,0.544,1.598,0.676c0.68,0.132,2.248,0,2.795-0.435
			c0.547-0.434,1.152-0.963,1.586-1c0.436-0.036,1.285-0.415,1.549-0.699c0.02-0.229,0.301-1.542-0.111-2.021
			c-0.246,0.446-0.719,0.548-0.852,0.396c-0.131-0.149-0.414-0.852-0.623-1.057c-0.207-0.209-0.795-0.379-1.135-0.32
			c-0.338,0.054-0.662,0.356-0.85,0.697c-0.189,0.342-1.076,1.397-1.549,1.774c-0.473,0.379-2.154,1.756-2.344,1.907
			C22.196,80.785,22.172,80.812,22.157,80.843L22.157,80.843z"/>
		<path fill="#E6E6E6" d="M26.889,79.112c0.078,0,0.143-0.062,0.145-0.142c0-0.001,0-0.001,0-0.001c0-0.411-0.18-0.68-0.533-0.797
			c-0.293-0.1-1.125-0.211-1.16-0.216c-0.08-0.016-0.15,0.044-0.162,0.122c-0.01,0.077,0.043,0.149,0.123,0.16l0,0
			c0.01,0.001,0.842,0.115,1.109,0.204c0.232,0.077,0.336,0.239,0.336,0.525C26.747,79.049,26.811,79.112,26.889,79.112
			L26.889,79.112z M26.34,79.661c0.08,0,0.145-0.063,0.145-0.144c0-0.412-0.18-0.68-0.533-0.797
			c-0.293-0.099-1.125-0.211-1.162-0.216c-0.078-0.016-0.148,0.044-0.16,0.123c-0.012,0.078,0.043,0.148,0.123,0.16
			c0.008,0.002,0.842,0.113,1.109,0.202c0.23,0.078,0.336,0.239,0.336,0.526C26.198,79.598,26.262,79.661,26.34,79.661L26.34,79.661
			z M25.698,80.097c0.078,0,0.143-0.064,0.143-0.144c0-0.411-0.18-0.681-0.533-0.798c-0.293-0.098-1.125-0.211-1.16-0.215
			c-0.08-0.015-0.15,0.044-0.162,0.122c-0.01,0.078,0.045,0.15,0.123,0.161c0.008,0.001,0.842,0.114,1.107,0.203
			c0.234,0.077,0.336,0.24,0.336,0.525C25.553,80.032,25.618,80.096,25.698,80.097L25.698,80.097z"/>
	</g>
	<path fill="#D1160F" d="M35.01,3.72c-0.443-1.078-2.645-1.22-3.119-1.22c-0.477,0-2.885,0.521-3.375,2.059
		c-0.49,1.536-0.205,2.534,0,3.247c0.207,0.712,0.334,1.664,0.555,1.913c0.016-1.458-0.062-2.482,0.062-2.674
		c0.127-0.19,0.604-0.729,1.348-0.855c-0.111,0.365-0.334,0.604-0.523,0.682c0.65,0,1.934-0.666,2.393-1.092
		c0.031,0.49-0.729,0.918-0.982,1.045c0.744,0.078,2.908-0.688,3.336-1.147c0.475,0.636,0.666,3.198,0.666,3.847
		c0.174-0.236,0.129-1.139,0.328-1.58c0.146-0.32,0.291-0.938,0.406-1.689C36.19,5.688,36.245,4.131,35.01,3.72z"/>
	<path fill="#D1160F" d="M34.194,12.195c-0.254,0.146-0.713,0.957-1.037,1.195c-0.324,0.24-0.68,0.129-0.988,0.166
		c-0.305-0.036-0.662,0.074-0.986-0.166c-0.322-0.238-0.781-1.049-1.037-1.195c-0.256-0.147-0.746-1.011-1.07-1.416
		c-0.016,0.424,0.1,1.231,0.184,1.416c0.086,0.184,0.971,1.416,1.107,1.729c0.135,0.312,1.02,1.215,1.803,1.215
		c0.781,0,1.666-0.902,1.803-1.215s1.021-1.546,1.105-1.729c0.086-0.185,0.244-0.918,0.227-1.343
		C34.983,11.258,34.45,12.047,34.194,12.195L34.194,12.195z"/>
	<g>
		<path fill="#A35017" d="M54.814,7.348c-0.639-1.145-2.922-0.968-4.227-0.167c-1.021,0.627-1.982,1.708-2.049,2.258
			s0.088,1.606-0.133,2.201s-0.945,1.474-0.99,2.024c-0.043,0.55,0.859,1.408,0.771,1.958s-0.945,1.629-1.166,2.047
			s2.066,1.541,3.234,1.65c1.166,0.109,6.689,0.44,7.24,0c0.549-0.439,0.99-0.902,1.121-1.431c0.133-0.528-0.219-0.903-0.219-1.32
			c0-0.418,0.482-0.638,0.482-1.035c0-0.396-0.9-0.748-1.057-1.298c-0.154-0.549,0.529-1.387,0.354-1.893
			c-0.176-0.507-0.812-0.519-0.988-1.157c-0.176-0.638,0.242-1.792-0.131-2.408C56.686,8.162,56.025,7.392,54.814,7.348z"/>
		<path fill="#404040" d="M50.855,81.443h-1.906c-0.441,0-0.756-0.469-0.441-1.316c0.086-0.233,0.295-0.614,0.414-1.13
			c-0.025,1.35,2.529,1.579,2.521,0c0.121,0.507,0.232,0.896,0.322,1.132C52.098,81.008,51.463,81.443,50.855,81.443L50.855,81.443z
			 M55.193,80.457c-0.584,0.412-1.785,0.447-2.422,0.231c-0.484-0.165-0.914-0.979-0.779-2.31c0.705,1.383,2.744,1.186,2.926,0.186
			c0.143,0.305,0.287,0.606,0.438,0.907C55.477,79.72,55.418,80.298,55.193,80.457L55.193,80.457z"/>
		<path fill="#FFC9A1" d="M47.459,19.323c-0.967-0.027-2.732,1.133-2.541,3.508c0.193,2.375,0.084,5.576-0.303,7.097
			c-0.387,1.518-1.105,4.003-1.712,5.136c-0.607,1.132-1.768,6.434-2.154,7.427c-0.387,0.994-0.414,2.562-0.689,3.171
			c-0.275,0.607-0.357,2.089,0.359,2.751c0.719,0.661,0.91,0.741,1.158,0.658c0.248-0.082,0.502-0.46-0.023-0.736
			c-0.523-0.276-0.387-1.448-0.191-1.891c0.275,0.223,0.188,1.48,0.41,1.729c0.221,0.248,0.469-0.309,0.357-0.707
			c-0.109-0.398,0.016-0.791,0-1.197c-0.041-1.12,0.139-2.039,0.139-2.508c0-0.47,1.632-5.354,2.878-6.953
			c1.248-1.598,2.312-3.403,2.561-8.565C47.912,23.959,47.762,20.622,47.459,19.323L47.459,19.323z"/>
		<path fill="#FFC9A1" d="M47.072,34.014c0.439-1.767,0.771-4.969,0.439-5.412c-0.648-4.064-0.328-8.78-0.055-9.277
			c0.664-0.111,2.65-0.663,3.094-1.215c0.33-0.413,0.689-1.07,0.85-1.792c0.057-0.246,0.088-0.497,0.088-0.749
			c0.498-0.055,1.422,0,1.422,0h1.555c-0.027,0.233-0.023,0.47,0.01,0.701c0.143,1.043,0.846,1.924,1.434,2.062
			c0.717,0.167,3.627,0.722,4.307,1.105c1.605,0.901,2.064,2.509,2.203,2.999c0.984,3.466,1.711,7.275,2.141,9.286
			c0.398,1.875-0.52,3.341-2.645,3.201c-2.127-0.14-7.186-0.717-7.924-0.626c-0.736,0.091-1.842,0.168-2.996,0.238
			c-0.332-0.19-0.369-0.433-0.6-0.849l0.391-2.189c0.303-0.422,0.533-0.801,0.863-0.75c0.732,0.108,1.645,0.77,2.367,1.276
			c0.725,0.507,6.215-0.452,7.062-0.602c-0.396-1.02-1.514-3.44-1.742-6.289c-0.496,1.931-2.697,7.653-3.182,8.993
			c-0.521,1.435-0.131,2.166,0.137,3.047c0.189,0.628,0.5,1.202,0.611,1.813c0.555,3.037,0.498,7.575,0.221,10.055
			c-0.273,2.479-2.264,9.661-2.264,10.433c0,0.774,0.604,2.907,0.605,3.535c0.029,5.481-1.516,11.196-1.516,12.411
			c0,0.869,0.438,2.004,0.969,3.147c-0.182,1-2.176,1.223-2.912,0.285c-0.037-0.616,0.002-1.29,0.092-1.874
			c0.221-1.436-0.717-9.497-0.994-11.21c-0.275-1.711,0.055-3.534,0-4.361c-0.055-0.828-0.828-3.094-0.553-4.859
			c0.275-1.767-0.449-8.836-0.059-11.431c-0.438-0.223-0.604-0.111-0.881-0.057c-0.109,1.159,0.553,11.156,0.553,12.979
			c0,1.82-0.273,4.085,0.057,5.3s0.33,6.02,0.439,9.498c0.082,2.542,0.455,4.79,0.783,6.161c0.008,1.579-2.549,1.349-2.521,0
			c0.184-0.795,0.305-1.824,0.305-2.627c0-1.326-2.1-4.694-3.039-10.382c-0.205-1.264,0-3.479,0-4.86
			c0-1.38-2.562-7.332-3.035-16.457C42.821,38.265,46.631,35.78,47.072,34.014L47.072,34.014z"/>
		<path fill="#132835" d="M48.299,73.936c-0.977-1.938-1.709-4.431-2.283-7.919c-0.146-0.883-0.094-2.217-0.047-3.394
			c0.021-0.546,0.043-1.062,0.043-1.495c0-0.393-0.236-1.235-0.562-2.404c-0.801-2.86-2.143-7.646-2.472-14.042
			c-0.139-2.673,0.542-4.847,1.82-7.033l0.143-0.104c0.816,1.12,3.318,1.761,6.863,1.761c1.852,0,3.789-0.188,5.059-0.49
			l0.143,0.146c0.58,3.16,0.553,7.803,0.295,10.095c-0.156,1.423-0.877,4.391-1.455,6.776c-0.414,1.71-0.807,3.325-0.807,3.638
			c0,0.391,0.172,1.196,0.324,1.907c0.145,0.674,0.281,1.312,0.283,1.625c0.02,3.761-0.688,7.564-1.154,10.084
			c-0.203,1.096-2.537,1.28-2.672,0.651c-0.289-1.346-0.615-6.262-0.887-7.945c-0.186-1.138-0.105-2.296-0.043-3.229
			c0.031-0.469,0.059-0.875,0.041-1.148c-0.018-0.239-0.1-0.624-0.195-1.069c-0.148-0.686-0.33-1.531-0.395-2.38v0.069
			c0,0.574-0.027,1.199-0.055,1.804c-0.057,1.299-0.115,2.642,0.105,3.45c0.254,0.931,0.316,3.886,0.379,6.744
			c0.02,0.943,0.154,1.926,0.068,2.796C50.719,74.004,48.572,74.48,48.299,73.936L48.299,73.936z M50.027,45.157
			c-0.078,0-0.152,0.02-0.236,0.04c-0.004,0.001-0.008,0.002-0.012,0.002c-0.035,0.9,0.146,4.304,0.309,7.322
			c0.098,1.829,0.189,3.581,0.23,4.672c0.006-0.229,0.025-0.456,0.061-0.675c0.121-0.788,0.039-2.714-0.049-4.753
			c-0.104-2.387-0.221-5.082-0.029-6.546C50.166,45.165,50.082,45.157,50.027,45.157L50.027,45.157z"/>
		<path fill="#EA6CB5" d="M44.795,37.649c1.697,2.32,9.312,2.039,12.207,1.313c-0.076-0.228-0.592-1.398-0.713-1.792
			c-0.25-0.822-0.604-1.515-0.227-2.771c0.023-0.088,0.057-0.179,0.09-0.273c0.143-0.394,0.43-1.154,0.779-2.091
			c0.846-2.269,2.053-5.536,2.402-6.904c-0.895-0.662-0.691-3.981-0.26-6.084c-0.6-0.159-1.318-0.317-1.934-0.45
			c-0.775,2.376-2.033,5.125-5.357,4.608c-1.68-0.258-2.234-2.394-2.469-4.403c-0.699,0.26-1.486,0.461-1.857,0.521
			c0.145,1.282,0.838,3.878-0.242,6.578v0.001c0.062,0.897,0.156,1.814,0.299,2.7c0.33,0.442,0,3.645-0.441,5.413
			C46.85,34.904,45.77,35.979,44.795,37.649z"/>
		<path fill="#CD509E" d="M56.062,34.398c0.023-0.088,0.057-0.179,0.09-0.273c0.143-0.394,0.43-1.154,0.779-2.092
			c0.846-2.268,2.053-5.535,2.404-6.903c-1.48,1.603-2.615,4.284-3.461,6.551c-0.35,0.938-0.637,1.699-0.779,2.092
			c-0.033,0.096-0.064,0.188-0.09,0.274c-0.379,1.257,0.83,2.762,0.461,3.73c-0.43,1.129-6.264,1.653-9.27,0.869
			c2.846,1.207,8.424,0.912,10.805,0.315c-0.078-0.228-0.594-1.398-0.713-1.792C56.039,36.348,55.686,35.656,56.062,34.398
			L56.062,34.398z"/>
		<path fill="#FFC9A1" d="M56.129,10.461c-0.084-0.912-0.928-2.444-3.219-2.444s-3.135,1.532-3.217,2.444
			c-0.082,0.91,0.041,3.644,0.539,4.39c0.496,0.746,2.152,2.112,2.678,2.112c0.527,0,2.184-1.366,2.68-2.112
			C56.088,14.104,56.211,11.371,56.129,10.461L56.129,10.461z"/>
		<path fill="#E33364" d="M53.932,15.216c-0.057,0.039-0.115,0.07-0.178,0.094c-0.086,0.033-0.18,0.051-0.256,0.04
			c-0.139-0.017-0.24-0.037-0.318-0.036c-0.062,0.001-0.152,0.052-0.27,0.052c-0.115,0-0.203-0.051-0.268-0.052
			c-0.078-0.001-0.182,0.02-0.318,0.036c-0.076,0.01-0.17-0.007-0.254-0.04c-0.064-0.022-0.123-0.055-0.178-0.094
			c0.061-0.062,0.193-0.175,0.326-0.213c0.156-0.043,0.377-0.058,0.439-0.062c0.059,0,0.188,0.046,0.252,0.045
			c0.064,0.001,0.193-0.045,0.252-0.045c0.062,0.004,0.283,0.019,0.439,0.062C53.734,15.041,53.809,15.162,53.932,15.216
			L53.932,15.216z"/>
		<path fill="#FFFFFF" d="M53.754,15.31c-0.07,0.033-0.133,0.058-0.189,0.083c-0.162,0.066-0.314,0.218-0.652,0.223
			c-0.34-0.005-0.49-0.156-0.652-0.223c-0.059-0.025-0.117-0.049-0.188-0.083c0.084,0.033,0.178,0.05,0.254,0.04
			c0.139-0.017,0.24-0.037,0.318-0.036c0.062,0.001,0.152,0.052,0.268,0.052c0.117,0,0.205-0.051,0.27-0.052
			c0.078-0.001,0.182,0.02,0.318,0.036C53.574,15.36,53.668,15.343,53.754,15.31L53.754,15.31z"/>
		<path fill="#F9437D" d="M53.932,15.216c-0.064,0.067-0.307,0.578-0.488,0.684c-0.166,0.11-0.463,0.15-0.531,0.146
			c-0.068,0.005-0.365-0.035-0.531-0.146c-0.184-0.105-0.424-0.616-0.486-0.684c0.064,0.04,0.123,0.07,0.178,0.094
			c0.07,0.033,0.131,0.058,0.188,0.083c0.162,0.066,0.312,0.218,0.652,0.223c0.338-0.005,0.49-0.156,0.652-0.223
			c0.059-0.025,0.119-0.049,0.189-0.083C53.814,15.282,53.873,15.251,53.932,15.216L53.932,15.216z"/>
		<path fill="#EC8940" d="M52.91,14.322c-0.182-0.057-0.375-0.066-0.562-0.029c0.193,0.016,0.381,0.079,0.527,0.182
			c0.021,0.015,0.051,0.016,0.072,0c0.148-0.104,0.334-0.167,0.529-0.182C53.287,14.256,53.094,14.266,52.91,14.322z"/>
		<path fill="#60100E" d="M53.422,11.818c-0.049-0.103,0.131-0.201,0.506-0.375c0.213-0.099,0.537-0.267,0.922-0.256
			c0.383,0.012,0.645,0.154,0.703,0.229c-0.275-0.034-0.684-0.102-0.871-0.038c-0.189,0.062-0.609,0.229-0.725,0.28
			C53.84,11.705,53.457,11.889,53.422,11.818L53.422,11.818z"/>
		<path fill="#FFFFFF" d="M53.414,12.539c0.156-0.271,0.32-0.57,0.826-0.639c0.281-0.039,0.711,0.217,0.826,0.293
			c-0.154,0.319-0.514,0.549-0.705,0.562C54.031,12.777,53.703,12.701,53.414,12.539z"/>
		<path fill="#5C9AE1" d="M54.674,12.328c0,0.238-0.193,0.433-0.434,0.433c-0.238,0-0.432-0.194-0.432-0.433
			c0-0.239,0.191-0.433,0.432-0.433S54.672,12.089,54.674,12.328L54.674,12.328L54.674,12.328z"/>
		<path d="M54.443,12.328c0,0.111-0.09,0.203-0.203,0.203c-0.111,0-0.203-0.092-0.203-0.203c0-0.113,0.092-0.203,0.203-0.203
			s0.203,0.09,0.203,0.201V12.328z"/>
		<path fill="#261113" d="M55.066,12.06c-0.16-0.032-0.266-0.088-0.418-0.151c-0.08-0.035-0.166-0.059-0.252-0.071
			c-0.045-0.007-0.09-0.011-0.141-0.007c-0.045,0.006-0.088,0.014-0.131,0.023c-0.17,0.036-0.336,0.122-0.455,0.25
			c-0.123,0.127-0.193,0.283-0.256,0.438c0.104-0.133,0.199-0.268,0.322-0.366c0.121-0.099,0.266-0.159,0.418-0.19
			c0.037-0.007,0.078-0.014,0.115-0.017c0.035-0.002,0.07,0,0.107,0.004c0.074,0.008,0.15,0.033,0.227,0.056
			c0.148,0.053,0.299,0.123,0.441,0.198l0.02,0.011l0.014-0.007c0.158-0.063,0.141-0.125,0.299-0.192
			C55.217,12.072,55.229,12.092,55.066,12.06L55.066,12.06z"/>
		<g>
			<path fill="#60100E" d="M52.4,11.818c0.049-0.103-0.131-0.201-0.506-0.375c-0.211-0.099-0.537-0.267-0.92-0.256
				c-0.383,0.012-0.646,0.154-0.705,0.229c0.275-0.034,0.684-0.102,0.871-0.038c0.188,0.062,0.609,0.229,0.727,0.28
				C51.982,11.705,52.365,11.889,52.4,11.818L52.4,11.818z"/>
			<path fill="#FFFFFF" d="M52.406,12.539c-0.154-0.271-0.32-0.57-0.824-0.639c-0.283-0.039-0.711,0.217-0.826,0.293
				c0.154,0.319,0.514,0.549,0.705,0.562S52.023,12.758,52.406,12.539z"/>
			<path fill="#5C9AE1" d="M51.148,12.328c0,0.238,0.193,0.433,0.434,0.433c0.238,0,0.434-0.194,0.434-0.433l0,0
				c0-0.239-0.193-0.433-0.434-0.433C51.344,11.896,51.15,12.089,51.148,12.328L51.148,12.328z"/>
			<path d="M51.379,12.328c0,0.111,0.09,0.203,0.203,0.203c0.111,0,0.203-0.092,0.203-0.203c0-0.112-0.092-0.203-0.203-0.203l0,0
				c-0.111,0-0.203,0.09-0.203,0.201V12.328z"/>
			<path fill="#261113" d="M50.756,12.06c0.16-0.032,0.266-0.088,0.418-0.151c0.08-0.035,0.166-0.059,0.252-0.071
				c0.047-0.007,0.09-0.011,0.143-0.007c0.043,0.006,0.086,0.014,0.127,0.023c0.172,0.036,0.338,0.122,0.459,0.25
				c0.121,0.127,0.191,0.283,0.254,0.438c-0.102-0.133-0.199-0.268-0.32-0.366s-0.266-0.159-0.42-0.19
				c-0.037-0.007-0.078-0.014-0.115-0.017c-0.035-0.002-0.07,0-0.105,0.004c-0.076,0.008-0.15,0.033-0.229,0.056
				c-0.148,0.053-0.299,0.123-0.441,0.198l-0.02,0.011l-0.014-0.007c-0.158-0.063-0.141-0.125-0.299-0.192
				C50.605,12.072,50.594,12.092,50.756,12.06z"/>
		</g>
		<path fill="#A35017" d="M53.514,9.395c-0.527,0.462-1.357,1.284-1.85,1.254c-1.451-0.088-1.752,1.893-1.994,2.002
			c-0.418-0.484-0.279-3.521,0.602-4.269c0.881-0.749,2.891-1.695,4.08-0.903c1.188,0.792,1.979,1.694,1.957,2.795
			c-0.021,1.102-0.111,3.165-0.375,3.518c0.088-0.924-0.4-2.039-0.557-2.281c-0.154-0.242-0.83-0.905-0.918-1.082
			c-0.064,0.55-0.176,0.572-0.107,0.814C53.998,11.045,53.58,9.9,53.514,9.395z M47.021,17.669c-0.242,0.595,0.109,1.146,0.309,1.52
			c0.197,0.374,0.088,1.276,0,1.452c0.551-0.11,1.012-1.233,1.078-1.386c0.242,0.396,0.287,0.748,0.154,1.144
			c0.682-0.109,0.695-1.294,1.252-1.804c-0.154-0.462,0.398-2.751,0.398-2.751l-0.814-0.946L47.021,17.669z M58.643,17.768
			c-0.133,0.781-0.639,1.446-0.572,1.774c0.064,0.328,0.064,1.142,0.373,1.45c-1.52,0-1.102-1.122-1.275-1.453
			c-0.133,0.483-0.264,0.683-0.309,0.902c-0.285-0.527-0.238-1.475-0.707-2.06C56.373,17.811,58.643,17.768,58.643,17.768
			L58.643,17.768z"/>
		<g>
			<path fill="#8EB9F0" d="M54.504,27.441c-0.184,0.311-0.363,0.622-0.541,0.938c-0.658,1.165-1.275,2.354-1.85,3.563
				c-0.666,1.479-0.137,3.293,1.08,4.011l0.867,0.51c1.217,0.715,3.061,0.296,4.027-1.004c0.779-1.089,1.52-2.206,2.219-3.35
				c0.188-0.307,0.373-0.616,0.555-0.928c0.822-1.403,1.582-2.841,2.279-4.311c0.666-1.478,0.137-3.292-1.08-4.01l-0.867-0.51
				c-1.217-0.716-3.062-0.296-4.027,1.004C56.219,24.679,55.332,26.042,54.504,27.441L54.504,27.441z"/>
			<path fill="#2F79BB" d="M58.494,22.301c-0.205,0.332-0.375,0.688-0.508,1.058c-0.129,0.373-0.215,0.764-0.236,1.162
				c-0.023,0.397,0.021,0.8,0.119,1.188c0.1,0.387,0.258,0.757,0.449,1.104c0.191,0.35,0.424,0.667,0.652,0.984
				c0.232,0.314,0.473,0.626,0.727,0.924c0.25,0.3,0.514,0.59,0.783,0.874c0.273,0.28,0.547,0.558,0.826,0.832
				c-0.494-0.605-1.008-1.193-1.482-1.808c-0.236-0.31-0.469-0.619-0.691-0.938c-0.223-0.318-0.447-0.633-0.631-0.969
				c-0.375-0.667-0.604-1.418-0.588-2.186C57.926,23.759,58.16,23.004,58.494,22.301L58.494,22.301z M60.301,32.064
				c-0.688,0.167-1.381,0.299-2.074,0.409c-0.697,0.106-1.396,0.187-2.1,0.229c-0.701,0.046-1.404,0.056-2.105,0.027
				c-0.703-0.031-1.404-0.097-2.104-0.213c0.682,0.196,1.383,0.319,2.092,0.376c0.709,0.063,1.422,0.063,2.133,0.02
				c0.709-0.049,1.416-0.139,2.111-0.278C58.949,32.497,59.637,32.311,60.301,32.064L60.301,32.064z"/>
			<path fill="#2F79BB" d="M58.742,27.297c0.377,0.12,0.766,0.2,1.162,0.243c0.395,0.045,0.795,0.048,1.193,0.008
				c0.396-0.043,0.793-0.132,1.162-0.289c0.371-0.155,0.717-0.376,0.988-0.663c-0.324,0.216-0.676,0.387-1.045,0.509
				c-0.367,0.119-0.744,0.195-1.129,0.233c-0.383,0.043-0.77,0.049-1.16,0.038C59.525,27.364,59.137,27.331,58.742,27.297
				L58.742,27.297z"/>
			
				<image overflow="visible" enable-background="new    " width="62" height="64" xlink:href="3C9A6734DF1A873F.png"  transform="matrix(0.0982 0 0 0.0982 57.4736 21.4355)">
			</image>
			<path fill="#43459C" d="M54.771,26.988c-0.186,0.311-0.365,0.623-0.543,0.938c1.719,1.819,3.918,3.113,6.344,3.73
				c0.188-0.308,0.375-0.616,0.557-0.929C58.697,30.109,56.492,28.812,54.771,26.988z"/>
			<path fill="#FFB67F" d="M58.414,23.789c0.57-0.833,1.912-1.325,2.934-0.659c0.029,0.018,0.141,0.083,0.17,0.099
				c1.078,0.569,1.301,1.982,0.85,2.886c-0.186,0.378-0.705,1.338-1.482,1.334c-0.775-0.003-1.516-0.21-1.756-0.352
				c-0.24-0.143-0.781-0.687-1.162-1.365C57.588,25.054,58.174,24.136,58.414,23.789L58.414,23.789z"/>
			<path fill="#D1160F" d="M60.301,23.834c-0.113-0.115-0.258-0.195-0.416-0.232c-0.154-0.037-0.314-0.02-0.457,0.032
				c-0.02,0.007-0.029,0.03-0.021,0.05l0,0c0.006,0.019,0.025,0.029,0.045,0.025c0.135-0.028,0.271-0.019,0.393,0.03
				c0.119,0.049,0.229,0.132,0.299,0.23c0.033,0.048,0.1,0.059,0.146,0.025l0,0c0.049-0.034,0.061-0.101,0.025-0.147l0,0
				c-0.004-0.004-0.006-0.009-0.012-0.013L60.301,23.834L60.301,23.834z"/>
			<path fill="#FFFFFF" d="M59.102,24.268c0.197-0.18,0.438-0.23,0.633-0.129c0.217,0.112,0.311,0.334,0.213,0.616
				c-0.223,0.071-0.391,0.06-0.557-0.038C59.205,24.609,59.133,24.445,59.102,24.268z"/>
			<path fill="#5C9AE1" d="M59.375,24.218c-0.105,0.129-0.086,0.318,0.043,0.424c0.127,0.105,0.318,0.086,0.422-0.043l0,0
				c0.105-0.128,0.086-0.317-0.041-0.422c0,0,0,0-0.002,0C59.67,24.07,59.48,24.09,59.375,24.218z"/>
			<path d="M59.48,24.305c-0.059,0.069-0.049,0.172,0.021,0.229v0.002c0.07,0.058,0.174,0.048,0.23-0.021c0,0,0-0.001,0.002-0.001
				c0.059-0.069,0.049-0.173-0.021-0.232c-0.066-0.059-0.172-0.05-0.23,0.02C59.482,24.302,59.482,24.304,59.48,24.305z"/>
			
				<image overflow="visible" enable-background="new    " width="3" height="3" xlink:href="3C9A6734DF1A873D.png"  transform="matrix(0.0982 0 0 0.0982 59.4375 24.0879)">
			</image>
			<path d="M59.102,24.268c0.094-0.054,0.186-0.1,0.281-0.119c0.098-0.02,0.193-0.018,0.279,0.017c0.09,0.032,0.17,0.09,0.227,0.167
				c0.057,0.075,0.084,0.176,0.092,0.282c0.037-0.106,0.029-0.225-0.021-0.324c-0.053-0.105-0.148-0.182-0.258-0.224
				c-0.111-0.04-0.23-0.037-0.34,0.006C59.256,24.111,59.166,24.18,59.102,24.268z"/>
			<g>
				<path fill="#D1160F" d="M61.41,24.485c0.156,0.044,0.297,0.132,0.406,0.251c0.105,0.118,0.172,0.269,0.191,0.416
					c0.004,0.021-0.01,0.041-0.031,0.044l0,0c-0.02,0.003-0.037-0.008-0.043-0.025c-0.041-0.133-0.117-0.248-0.219-0.329
					c-0.1-0.082-0.227-0.135-0.348-0.149c-0.057-0.006-0.1-0.058-0.094-0.115c0.008-0.059,0.061-0.101,0.117-0.095l0.018,0.002
					L61.41,24.485z"/>
				<path fill="#FFFFFF" d="M61.613,25.747c0.062-0.261-0.01-0.496-0.193-0.617c-0.203-0.134-0.443-0.109-0.643,0.114
					c0.047,0.229,0.139,0.369,0.305,0.469C61.266,25.82,61.443,25.805,61.613,25.747z"/>
				<path fill="#5C9AE1" d="M61.525,25.482c-0.062,0.154-0.236,0.23-0.391,0.169c-0.002,0-0.002,0-0.002,0
					c-0.154-0.057-0.234-0.229-0.178-0.386s0.23-0.235,0.387-0.178c0.004,0.001,0.01,0.003,0.014,0.005
					C61.51,25.153,61.586,25.327,61.525,25.482C61.525,25.481,61.525,25.482,61.525,25.482L61.525,25.482z"/>
				<path d="M61.398,25.432c-0.033,0.084-0.129,0.125-0.213,0.093c0,0,0,0-0.002,0c-0.084-0.032-0.125-0.127-0.094-0.211
					c0,0,0-0.001,0.002-0.001c0.033-0.084,0.129-0.126,0.215-0.093C61.391,25.253,61.432,25.348,61.398,25.432L61.398,25.432z"/>
				
					<image overflow="visible" enable-background="new    " width="2" height="3" xlink:href="3C9A6734DF1A873B.png"  transform="matrix(0.0982 0 0 0.0982 61.3047 25.168)">
				</image>
				<path d="M61.613,25.747c0.002-0.108-0.002-0.21-0.033-0.306c-0.029-0.093-0.078-0.177-0.148-0.236
					c-0.07-0.062-0.16-0.104-0.256-0.115c-0.094-0.012-0.193,0.011-0.291,0.057c0.074-0.085,0.182-0.135,0.295-0.139
					c0.117-0.006,0.23,0.043,0.32,0.117c0.088,0.077,0.145,0.184,0.16,0.299C61.676,25.533,61.66,25.646,61.613,25.747
					L61.613,25.747z"/>
			</g>
			<g>
				<path fill="#F08E44" d="M59.047,25.806c-0.1,0.272-0.062,0.651,0.324,0.879s0.736,0.076,0.924-0.145c0,0-0.25-0.114-0.451-0.218
					c-0.078-0.037-0.148-0.074-0.193-0.102c-0.002-0.001-0.002-0.001-0.004-0.002l-0.004-0.002
					c-0.062-0.039-0.125-0.079-0.186-0.122C59.27,25.969,59.047,25.806,59.047,25.806L59.047,25.806z"/>
				<path fill="#FFFFFF" d="M59.428,26.133c-0.043,0.071-0.029,0.156,0.023,0.188c0.055,0.031,0.135,0.001,0.176-0.069
					c0.008-0.013,0.012-0.023,0.016-0.033c-0.062-0.039-0.125-0.079-0.188-0.122C59.445,26.106,59.438,26.119,59.428,26.133z"/>
				<path fill="#FFFFFF" d="M59.627,26.251c-0.041,0.07-0.033,0.153,0.023,0.187c0.055,0.033,0.133,0.001,0.176-0.069
					c0.008-0.016,0.014-0.028,0.018-0.044c-0.078-0.037-0.148-0.074-0.193-0.102C59.643,26.229,59.635,26.239,59.627,26.251z"/>
			</g>
			<path fill="#EC8940" d="M60.205,25.938c0.004-0.047-0.221-0.13-0.293-0.173c-0.074-0.044-0.236-0.188-0.295-0.174
				c-0.045,0.075,0.117,0.227,0.225,0.292c0.057,0.031,0.113,0.055,0.178,0.063C60.08,25.959,60.172,25.996,60.205,25.938
				L60.205,25.938z"/>
			<path fill="#D1160F" d="M61.744,23.684c-0.344,0.123-0.83,0.122-1.078,0.038c0.271-0.096,0.355-0.202,0.418-0.294
				c-0.182,0.066-0.289,0.075-0.385,0.049c0.055-0.079,0.223-0.154,0.332-0.375c0.109-0.222,0.615-0.056,0.615-0.056L61.744,23.684z
				"/>
			<path fill="#758ED1" d="M57.996,23.582c-0.205,0.537-0.271,1.062-0.152,1.364c0.01,0.021,0.018,0.039,0.027,0.058
				c0.004-0.021,0.006-0.042,0.01-0.064c0.064-0.314,0.316-0.837,0.807-1.33c0.523-0.527,1.814-0.663,2.607-0.195
				c0.793,0.465,1.303,1.659,1.096,2.375c-0.201,0.697-0.557,1.146-0.807,1.375c-0.006,0.006-0.01,0.009-0.016,0.016
				c0.008-0.001,0.014-0.001,0.02-0.002c0.33-0.02,0.775-0.339,1.162-0.799c0.398-0.476,0.734-1.098,0.816-1.693
				c0.119-0.854-0.199-2.074-1.391-2.772c-1.189-0.701-2.408-0.387-3.1,0.133C58.6,22.406,58.217,23.003,57.996,23.582
				L57.996,23.582z"/>
			<path fill="#3F5CA8" d="M57.742,23.867c-0.139,0.49-0.037,0.991,0.104,1.261l0.035-0.188c0.064-0.314,0.316-0.837,0.807-1.33
				c0.521-0.528,1.814-0.663,2.607-0.195c0.791,0.465,1.303,1.66,1.096,2.375c-0.203,0.697-0.557,1.146-0.809,1.375l-0.158,0.126
				c0.305-0.007,0.838-0.192,1.199-0.551l0.039-0.098c0.031-0.089,0.062-0.177,0.088-0.263c0.689-2.253-0.578-3.156-1.146-3.491
				s-1.975-1.004-3.607,0.693c-0.062,0.066-0.127,0.135-0.188,0.205L57.742,23.867z"/>
			<g>
				<path fill="#3F5CA8" d="M58.252,29.406l-0.209,0.473l-0.061,0.14l-0.061,0.135l-0.064,0.15l-0.164,0.376l-0.002,0.001
					c0,0,0.012,0.013,0.033,0.037c0.191,0.215,1.201,1.304,1.68,1.198c0.426-0.095,0.904-0.98,0.975-1.61
					c0.008-0.06,0.012-0.12,0.01-0.174c0.002-0.002,0.002-0.004,0-0.007l0.002-0.001c-0.002-0.003,0-0.009-0.002-0.012
					c0.002-0.001,0.002-0.003-0.002-0.007c0-0.041-0.006-0.082-0.014-0.123c-0.002-0.013-0.006-0.025-0.01-0.039
					c-0.004-0.015-0.008-0.029-0.016-0.044c-0.008-0.021-0.018-0.043-0.027-0.062c-0.209-0.366-1.344-0.424-1.838-0.433
					C58.342,29.404,58.252,29.406,58.252,29.406z"/>
				
					<image overflow="visible" enable-background="new    " width="19" height="26" xlink:href="3C9A6734DF1A8735.png"  transform="matrix(0.0982 0 0 0.0982 58.5547 29.3896)">
				</image>
				
					<image overflow="visible" enable-background="new    " width="8" height="5" xlink:href="3C9A6734DF1A8737.png"  transform="matrix(0.0982 0 0 0.0982 58.8486 30.2734)">
				</image>
				<path fill="#3F5CA8" d="M54.57,29.072c0.141,0.469,1.582,0.822,1.863,0.886c0.029,0.008,0.049,0.011,0.049,0.011l0.002-0.001
					l0.246-0.327l0.1-0.129l0.09-0.119l0.404-0.532h-0.002c-0.008-0.016-0.047-0.089-0.109-0.193c0-0.004,0-0.006,0-0.006
					c-0.01-0.014-0.016-0.027-0.023-0.041c-0.26-0.446-0.838-1.353-1.246-1.356c-0.021,0-0.045,0.001-0.068,0.005
					c-0.016,0-0.029,0.004-0.045,0.009c-0.014,0.002-0.027,0.006-0.039,0.012c-0.039,0.012-0.078,0.026-0.113,0.045
					c-0.006,0-0.006,0.002-0.008,0.003s-0.006,0.003-0.01,0.004v0.002c-0.004,0.001-0.006,0.001-0.006,0.003
					c-0.049,0.024-0.102,0.057-0.148,0.092C54.988,27.806,54.445,28.654,54.57,29.072z"/>
				
					<image overflow="visible" enable-background="new    " width="21" height="28" xlink:href="3C9A6734DF1A872A.png"  transform="matrix(0.0982 0 0 0.0982 55.3125 27.2295)">
				</image>
				<path fill="#43459C" d="M55.732,27.864c0.221,0.225,0.801,0.531,1.277,0.809c0.105,0.06,0.209,0.123,0.312,0.188
					c-0.008-0.016-0.045-0.089-0.107-0.193c-0.002-0.003-0.002-0.006-0.002-0.006c-0.01-0.014-0.016-0.027-0.023-0.041
					c-0.262-0.446-0.838-1.353-1.246-1.356c-0.02,0-0.035,0-0.057,0.003c-0.074,0.005-0.146,0.028-0.211,0.068
					c-0.004,0-0.006,0.001-0.006,0.003c-0.002,0-0.006,0.003-0.01,0.004l-0.002,0.002c-0.002,0.001-0.004,0.002-0.006,0.003
					C55.498,27.448,55.521,27.651,55.732,27.864L55.732,27.864z"/>
				
					<image overflow="visible" enable-background="new    " width="19" height="17" xlink:href="3C9A6734DF1A872B.png"  transform="matrix(0.0982 0 0 0.0982 55.5107 27.2295)">
				</image>
				
					<image overflow="visible" enable-background="new    " width="6" height="7" xlink:href="3C9A6734DF1A872D.png"  transform="matrix(0.0982 0 0 0.0982 55.5088 28.2119)">
				</image>
				
					<image overflow="visible" enable-background="new    " width="6" height="7" xlink:href="3C9A6734DF1A872F.png"  transform="matrix(0.0982 0 0 0.0982 56.4912 28.8008)">
				</image>
				
					<image overflow="visible" enable-background="new    " width="8" height="3" xlink:href="3C9A6734DF1A8728.png"  transform="matrix(0.0982 0 0 0.0982 56.0986 29.3896)">
				</image>
				
					<image overflow="visible" enable-background="new    " width="8" height="4" xlink:href="3C9A6734DF1A874E.png"  transform="matrix(0.0982 0 0 0.0982 57.9648 29.7822)">
				</image>
				
					<image overflow="visible" enable-background="new    " width="6" height="7" xlink:href="3C9A6734DF1A874D.png"  transform="matrix(0.0982 0 0 0.0982 57.7676 30.0771)">
				</image>
				
					<image overflow="visible" enable-background="new    " width="10" height="14" xlink:href="3C9A6734DF1A874A.png"  transform="matrix(0.0982 0 0 0.0982 57.6699 29.3896)">
				</image>
				<path fill="#43459C" d="M58.252,29.406c0.1,0.054,0.205,0.116,0.316,0.183c0.475,0.284,1.023,0.641,1.328,0.725
					c0.287,0.081,0.477,0.002,0.492-0.183c0.002-0.001,0-0.004,0-0.007l0.002-0.002c-0.002-0.002-0.002-0.009-0.002-0.011
					s0.002-0.003-0.002-0.007c0.004-0.075-0.012-0.148-0.043-0.217c-0.006-0.018-0.016-0.035-0.023-0.051
					c-0.209-0.366-1.344-0.424-1.838-0.433C58.342,29.404,58.252,29.406,58.252,29.406z"/>
				
					<image overflow="visible" enable-background="new    " width="23" height="10" xlink:href="3C9A6734DF1A8745.png"  transform="matrix(0.0982 0 0 0.0982 58.1621 29.3896)">
				</image>
				
					<image overflow="visible" enable-background="new    " width="11" height="14" xlink:href="3C9A6734DF1A8746.png"  transform="matrix(0.0982 0 0 0.0982 56.2939 28.6045)">
				</image>
				<path fill="#6580C9" d="M56.52,30.037c0.328,0.273,0.695,0.491,1.096,0.644c0.105,0.042,0.262,0.006,0.338-0.079
					c0.244-0.27,0.432-0.586,0.547-0.93c0.037-0.108-0.008-0.261-0.096-0.334c-0.326-0.274-0.695-0.492-1.094-0.645
					c-0.107-0.041-0.264-0.005-0.34,0.08c-0.244,0.27-0.432,0.585-0.547,0.93C56.387,29.811,56.434,29.965,56.52,30.037z"/>
				
					<image overflow="visible" enable-background="new    " width="13" height="19" xlink:href="3C9A6734DF1A8744.png"  transform="matrix(0.0982 0 0 0.0982 57.0811 28.8008)">
				</image>
			</g>
		</g>
		<path fill="#FFC9A1" d="M50.785,31.494c0.301-0.423,0.531-0.802,0.863-0.75c0.732,0.109,1.643,0.771,2.367,1.276
			c0.316,0.226,1.557,0.163,2.916,0.013c1.736-0.191,3.67-0.527,4.145-0.613c-0.018-0.047-0.039-0.102-0.061-0.155
			c0.406,0.529,2,1.905,2.121,3.53c-0.35,0.11-0.758,0.159-1.227,0.129c-1.375-0.091-3.982-0.366-5.85-0.523
			c-1.016-0.086-1.812-0.137-2.072-0.104c-0.736,0.09-1.842,0.167-2.998,0.235c-0.33-0.189-0.367-0.432-0.6-0.848L50.785,31.494
			L50.785,31.494z"/>
	</g>
</g>
</svg>
