<?xml version="1.0" encoding="utf-8"?>
<!-- Generator: Adobe Illustrator 16.0.0, SVG Export Plug-In . SVG Version: 6.00 Build 0)  -->
<!DOCTYPE svg PUBLIC "-//W3C//DTD SVG 1.1//EN" "http://www.w3.org/Graphics/SVG/1.1/DTD/svg11.dtd">
<svg version="1.1" id="Layer_1" xmlns="http://www.w3.org/2000/svg" xmlns:xlink="http://www.w3.org/1999/xlink" x="0px" y="0px"
	 width="85px" height="85px" viewBox="0 0 85 85" enable-background="new 0 0 85 85" xml:space="preserve">
<g>
	<path fill="#F9EBCF" d="M24.156,81.274c-0.902,0-1.633-0.73-1.633-1.633V5.356c0-0.902,0.73-1.633,1.633-1.633h36.688
		c0.9,0,1.633,0.73,1.633,1.633v74.285c0,0.902-0.732,1.633-1.633,1.633H24.156L24.156,81.274z"/>
	<path opacity="0.1" enable-background="new    " d="M25.894,8.704c0-0.9,0.731-1.633,1.633-1.633h34.95V5.356
		c0-0.902-0.732-1.633-1.633-1.633H24.156c-0.902,0-1.633,0.73-1.633,1.633v74.285c0,0.902,0.73,1.633,1.633,1.633h1.738V8.704
		L25.894,8.704z"/>
	<path fill="#8C6239" d="M38.925,51.517v-8.596c0-0.992-0.822-1.795-1.835-1.795h-1.834c-1.014,0-1.835,0.805-1.835,1.795v14.111
		L38.925,51.517z"/>
	<path fill="#C5CCCC" d="M29.822,24.843v4.523c0,0.781,0.633,1.416,1.412,1.416h9.879c0.779,0,1.412-0.633,1.412-1.416v-4.523
		H29.822L29.822,24.843z"/>
	<path opacity="0.1" enable-background="new    " d="M33.193,29.366v-4.523h-3.371v4.523c0,0.781,0.633,1.416,1.412,1.416h3.371
		C33.825,30.78,33.193,30.147,33.193,29.366z"/>
	<path fill="#F7EEDF" d="M22.523,67.954v11.744c0,0.871,0.705,1.576,1.574,1.576h36.805c0.869,0,1.574-0.705,1.574-1.576V27.919
		L22.523,67.954z"/>
	<path fill="#C5CCCC" d="M55.178,35.231V22.813c0-7.779-3.943-12.941-8.809-12.941v34.186L55.178,35.231z"/>
	<path opacity="0.1" enable-background="new    " d="M27.642,79.698V62.825l-5.119,5.129v11.744c0,0.871,0.705,1.576,1.574,1.576
		h5.118C28.347,81.274,27.642,80.569,27.642,79.698z"/>
	<ellipse fill="#FFFFFF" cx="53.195" cy="62.676" rx="4.877" ry="4.886"/>
	<path opacity="0.1" enable-background="new    " d="M49.74,40.679v-29.91c-1.039-0.584-2.176-0.898-3.371-0.898v34.188
		L49.74,40.679z"/>
	<path d="M53.195,68.786c3.365,0,6.102-2.74,6.102-6.109c0-3.371-2.736-6.111-6.102-6.111s-6.1,2.742-6.1,6.111
		S49.83,68.786,53.195,68.786z M53.195,59.013c2.016,0,3.652,1.643,3.652,3.662s-1.639,3.662-3.652,3.662
		c-2.012,0-3.65-1.645-3.65-3.662C49.545,60.655,51.182,59.013,53.195,59.013z"/>
	<path d="M56.656,70.278h-6.922c-0.676,0-1.223,0.547-1.223,1.225s0.547,1.225,1.223,1.225h6.922c0.676,0,1.225-0.547,1.225-1.225
		S57.332,70.278,56.656,70.278z"/>
	<path d="M55.248,74.062h-4.105c-0.676,0-1.225,0.547-1.225,1.225c0,0.676,0.549,1.225,1.225,1.225h4.105
		c0.676,0,1.225-0.549,1.225-1.225C56.473,74.608,55.924,74.062,55.248,74.062z"/>
	<path d="M62.477,15.806c0.676,0,1.225-0.547,1.225-1.225V5.356c0-1.576-1.281-2.855-2.857-2.855H24.157
		c-1.575,0-2.857,1.281-2.857,2.855v74.285c0,1.576,1.282,2.857,2.857,2.857h36.687c1.576,0,2.857-1.281,2.857-2.857V19.806
		c0-0.676-0.549-1.225-1.225-1.225c-0.678,0-1.225,0.549-1.225,1.225v7.604L56.4,32.271v-9.459c0-4-0.969-7.49-2.803-10.092
		c-1.852-2.627-4.416-4.074-7.229-4.074c-0.678,0-1.225,0.549-1.225,1.225v33.68l-4.997,5.008v-5.635
		c0-1.564-1.209-2.854-2.752-3.006v-7.91h3.715c1.453,0,2.635-1.186,2.635-2.641V9.87c0-0.676-0.549-1.225-1.225-1.225
		c-0.676,0-1.225,0.549-1.225,1.225v13.746H39.47V9.87c0-0.676-0.547-1.225-1.225-1.225s-1.225,0.549-1.225,1.225v13.746h-1.703
		V9.87c0-0.676-0.547-1.225-1.225-1.225c-0.676,0-1.224,0.549-1.224,1.225v13.746h-1.827V9.87c0-0.676-0.548-1.225-1.225-1.225
		c-0.676,0-1.225,0.549-1.225,1.225v19.496c0,1.455,1.182,2.641,2.637,2.641h3.715v7.91c-1.543,0.152-2.752,1.441-2.752,3.006
		v13.604l-8.448,8.467V5.356c0-0.225,0.183-0.408,0.407-0.408H60.84c0.225,0,0.408,0.184,0.408,0.408v9.225
		C61.252,15.259,61.799,15.806,62.477,15.806z M47.596,11.235c1.52,0.35,2.91,1.346,4,2.896c1.52,2.156,2.355,5.24,2.355,8.682
		v11.912l-6.355,6.371V11.235L47.596,11.235z M31.234,29.558c-0.104,0-0.188-0.086-0.188-0.191v-3.301H41.3v3.301
		c0,0.105-0.084,0.191-0.188,0.191H31.234L31.234,29.558z M34.646,42.923c0-0.316,0.273-0.572,0.609-0.572h1.834
		c0.338,0,0.611,0.256,0.611,0.572v8.088l-3.055,3.062V42.923L34.646,42.923z M61.252,30.878v3.152l-28.28,28.338
		c-0.478,0.479-0.477,1.256,0.002,1.732c0.239,0.238,0.553,0.357,0.865,0.357c0.314,0,0.629-0.121,0.867-0.359l26.545-26.602v42.145
		c0,0.225-0.186,0.408-0.408,0.408H24.156c-0.225,0-0.408-0.184-0.408-0.408v-4.562l7.374-7.391c0.478-0.479,0.478-1.254-0.001-1.73
		c-0.479-0.479-1.254-0.479-1.732,0.002l-5.64,5.652V68.46L61.252,30.878z"/>
</g>
</svg>
