<?xml version="1.0" encoding="utf-8"?>
<!-- Generator: Adobe Illustrator 16.0.0, SVG Export Plug-In . SVG Version: 6.00 Build 0)  -->
<!DOCTYPE svg PUBLIC "-//W3C//DTD SVG 1.1//EN" "http://www.w3.org/Graphics/SVG/1.1/DTD/svg11.dtd">
<svg version="1.1" id="Layer_1" xmlns="http://www.w3.org/2000/svg" xmlns:xlink="http://www.w3.org/1999/xlink" x="0px" y="0px"
	 width="85px" height="85px" viewBox="0 0 85 85" enable-background="new 0 0 85 85" xml:space="preserve">
<title>Asset 16</title>
<g id="Layer_2">
	<g id="Layer_1-2">
		<polygon fill="#91DAFA" points="81.938,22.902 75.353,68.685 23.144,68.685 16.557,22.902 		"/>
		<path fill="#F2F2F2" d="M36.155,68.685c3.533,0,6.586,2.893,6.586,6.588c0,3.533-2.893,6.586-6.586,6.586
			c-3.535,0-6.586-2.893-6.586-6.586l0,0C29.729,71.577,32.62,68.685,36.155,68.685z M62.339,68.685
			c3.533,0,6.586,2.893,6.586,6.588c0,3.533-2.891,6.586-6.586,6.586c-3.535,0-6.586-2.893-6.586-6.586
			C55.753,71.577,58.646,68.685,62.339,68.685L62.339,68.685z M23.144,9.89H8.524l1.606,6.588h14.618L23.144,9.89L23.144,9.89z"/>
		<path d="M62.339,82.501L62.339,82.501c-4.016,0-7.391-3.373-7.391-7.391c0-2.248,1.125-4.338,2.73-5.621H40.813
			c1.605,1.283,2.73,3.373,2.73,5.621c0,4.018-3.213,7.391-7.391,7.391l0,0c-4.016,0-7.391-3.213-7.391-7.391
			c0-2.248,1.125-4.338,2.732-5.783h-8.514h-0.162h-6.265c-0.321,0-0.804-0.32-0.804-0.643L6.114,4.106h-2.57
			c-0.482,0-0.803-0.321-0.803-0.803c0-0.482,0.32-0.805,0.803-0.805h3.213c0.32,0,0.803,0.321,0.803,0.644l0.803,5.782l0,0h14.619
			l0,0l-0.803-4.818h-2.57c-0.482,0-0.803-0.321-0.803-0.803c0-0.482,0.32-0.805,0.803-0.805h3.213c0.32,0,0.803,0.321,0.803,0.644
			l2.732,18.956h55.1c0.16,0,0.482,0.16,0.643,0.32s0.16,0.481,0.16,0.644l-2.891,20.401c0,0.48-0.482,0.803-0.965,0.643
			c-0.48,0-0.805-0.482-0.643-0.964l0.482-3.052h-7.068l-1.445,14.617h6.586l0.32-1.768c0-0.48,0.482-0.803,0.965-0.643
			c0.48,0,0.805,0.482,0.643,0.963l-2.248,15.584c0,0.32-0.322,0.643-0.803,0.643h-8.516c0.16,0.16,0.32,0.32,0.643,0.48
			c1.445,1.447,2.09,3.213,2.09,5.143C69.569,79.288,66.356,82.501,62.339,82.501z M61.698,69.489
			c-2.895,0.32-5.141,2.73-5.141,5.623c0,1.605,0.643,3.051,1.604,4.016c1.125,1.125,2.57,1.605,4.018,1.768l0,0
			c3.213,0,5.783-2.57,5.783-5.783c0-2.893-2.25-5.463-5.141-5.783h-1.125v0.16H61.698z M35.513,69.489
			c-2.893,0.32-5.141,2.73-5.141,5.623c0,3.213,2.57,5.781,5.783,5.781l0,0c3.213,0,5.783-2.568,5.783-5.781
			c0-2.893-2.25-5.303-5.143-5.623H35.513z M68.767,67.882h5.941l1.607-11.566h-6.428L68.767,67.882z M23.786,67.882h5.943
			l-1.125-11.566h-6.426L23.786,67.882z M60.573,67.882h6.586l1.125-11.406h-7.068L60.573,67.882z M50.13,67.882h8.836l0.643-11.406
			H50.13V67.882z M39.528,67.882h8.996V56.476h-9.639L39.528,67.882z M36.155,67.882h1.766l-0.643-11.406H30.21l1.125,11.406H36.155
			L36.155,67.882z M17.36,67.882h4.979l-6.426-44.818c0-0.161,0-0.482,0.162-0.643c0.16-0.162,0.32-0.322,0.643-0.322h8.514
			l-0.803-4.979H10.132c-0.161,0-0.321,0-0.321-0.159L17.36,67.882z M61.376,54.71h7.068l1.445-14.619h-7.711L61.376,54.71z
			 M50.13,54.71h9.641l0.803-14.619H50.132V54.71H50.13z M38.886,54.71h9.639V40.091H37.921L38.886,54.71z M30.05,54.71h7.068
			l-0.803-14.619h-7.711L30.05,54.71z M22.019,54.71h6.586l-1.445-14.619h-7.068l0,0L22.019,54.71z M17.521,23.706l2.088,14.778
			h0.162h6.906l-1.445-14.778H17.521z M71.657,38.485h7.229l0,0l2.09-14.779h-7.873L71.657,38.485z M62.179,38.485h7.871
			l1.445-14.779h-8.514L62.179,38.485z M50.13,38.485h10.441l0.803-14.779H49.97v14.779H50.13z M37.921,38.485h10.604V23.706H36.958
			L37.921,38.485z M28.444,38.485h7.871l-0.803-14.779h-8.514L28.444,38.485z M8.686,10.533l0.804,5.142
			c0.16-0.162,0.32-0.321,0.643-0.321h14.137l-0.805-4.979c-0.16,0-0.16,0-0.32,0H8.686V10.533z M78.243,49.409L78.243,49.409
			c-0.48,0-0.803-0.482-0.803-0.965l0.16-0.803c0-0.481,0.48-0.805,0.965-0.643c0.48,0,0.803,0.48,0.643,0.963l-0.16,0.805
			C79.046,49.087,78.726,49.409,78.243,49.409z"/>
	</g>
</g>
</svg>
