<?xml version="1.0" encoding="utf-8"?>
<!-- Generator: Adobe Illustrator 16.0.2, SVG Export Plug-In . SVG Version: 6.00 Build 0)  -->
<!DOCTYPE svg PUBLIC "-//W3C//DTD SVG 1.1 Tiny//EN" "http://www.w3.org/Graphics/SVG/1.1/DTD/svg11-tiny.dtd">
<svg version="1.1" baseProfile="tiny" id="Layer_1" xmlns="http://www.w3.org/2000/svg" xmlns:xlink="http://www.w3.org/1999/xlink"
	 x="0px" y="0px" width="85px" height="85px" viewBox="0 0 85 85" xml:space="preserve">
<g>
	<path fill-rule="evenodd" d="M2.5,39.539c0.433-0.584,1.002-0.792,1.733-0.776c1.691,0.039,3.386-0.02,5.076,0.029
		c0.609,0.018,0.709-0.172,0.708-0.733C10,28.504,10.005,18.949,10.005,9.395c0-1.587,0.293-1.887,1.845-1.887
		c12.913,0,25.827,0,38.739,0c1.481,0,1.789,0.304,1.79,1.771c0.001,2.135-0.024,4.271,0.013,6.404
		c0.015,0.877-0.259,1.462-1.154,1.661c-0.738,0.015-1.125-0.266-1.354-0.991c-0.151-0.481-0.123-0.979-0.124-1.473
		c-0.004-1.301-0.016-2.603,0.005-3.904c0.01-0.617-0.2-0.893-0.854-0.891c-3.905,0.014-7.81,0.014-11.714,0.001
		c-0.646-0.002-0.869,0.269-0.865,0.888c0.011,2.238,0.006,4.477,0.003,6.716c0,0.338,0.014,0.678-0.037,1.014
		c-0.149,0.985-0.884,1.502-1.853,1.269c-0.759-0.183-1.493-0.458-2.227-0.723c-0.644-0.231-1.261-0.246-1.904-0.008
		c-0.659,0.243-1.327,0.464-2.001,0.665c-1.415,0.421-2.248-0.151-2.285-1.642c-0.056-2.238-0.014-4.477-0.019-6.715
		c-0.003-1.456-0.001-1.454-1.446-1.458c-2.369-0.006-4.737,0.018-7.106-0.011c-1.196,0.047-2.393,0.012-3.589,0.02
		c-1.257,0.008-1.271,0.014-1.271,1.25c-0.002,7.491-0.001,14.982-0.001,22.473c0,1.223-0.01,2.445,0.003,3.667
		c0.01,0.939,0.081,0.997,1.04,1.015c1.247,0.023,2.496-0.052,3.742,0.043c0.45,0.072,0.836,0.251,1.142,0.61
		c0.699,0.822,1.771,0.884,2.569,0.12c1.128-1.08,2.243-2.176,3.312-3.314c0.805-0.859,1.719-1.225,2.906-1.205
		c3.253,0.055,6.508,0,9.762,0.026c1.813,0.015,3.228,0.733,3.977,2.482c0.155,0.362,0.255,0.739,0.264,1.134
		c0.021,0.885,0.034,1.771-0.002,2.655c-0.039,0.968-0.555,1.48-1.526,1.51c-1.196,0.036-2.395,0.003-3.592,0.015
		c-0.252,0.003-0.516-0.065-0.86,0.12c1.308,0.988,2.299,2.178,4.223,2.14c2.359-0.047,4.586-0.188,6.634-1.51
		c0.802-0.518,1.756-0.802,2.729-0.887c0.668-0.059,0.868-0.41,0.862-1.036c-0.019-1.978-0.007-3.957-0.007-5.935
		c0-4.243-0.001-8.486,0.001-12.729c0-0.468-0.016-0.939,0.159-1.388c0.25-0.643,0.62-0.859,1.311-0.769
		c0.953,0.265,1.136,0.519,1.136,1.641c0.002,6.793,0.005,13.585-0.006,20.378c-0.001,0.487,0.076,0.882,0.435,1.262
		c0.471,0.498,0.678,1.152,0.789,1.831c0.136,0.829-0.159,1.375-0.936,1.751c-2.312,1.12-4.569,2.355-6.909,3.41
		c-1.845,0.833-3.905,1.068-5.791,1.79c-2.521,0.965-5.005,0.93-7.62,0.391c-3.662-0.754-7.373-1.276-11.068-1.856
		c-0.738-0.115-1.506-0.034-2.259-0.059c-0.294-0.01-0.442,0.084-0.413,0.396c0.013,0.129,0.003,0.26,0.002,0.39
		c-0.006,1.413-0.314,1.716-1.757,1.717c-1.536,0.001-3.071,0-4.607,0c-2.706,0-5.413-0.017-8.119,0.012
		C3.4,53.65,2.85,53.467,2.5,52.82c0-0.261,0-0.521,0-0.781c0.166-0.617,0.655-0.832,1.208-0.97C3.8,51.053,3.89,51.041,3.981,51.03
		c3.586-0.04,7.172-0.008,10.757-0.02c1.258-0.004,1.263-0.009,1.265-1.249c0.001-0.338-0.006-0.676,0.016-1.014
		c-0.042-1.898-0.005-3.797-0.019-5.696c-0.014-1.837,0.178-1.693-1.663-1.7c-3.512-0.013-7.023,0.021-10.534-0.016
		c-0.69-0.008-1.125-0.349-1.303-1.016C2.5,40.06,2.5,39.799,2.5,39.539z"/>
	<path fill-rule="evenodd" d="M82.5,74.07c-0.354,0.716-0.938,0.951-1.719,0.942c-2.422-0.027-4.847,0.077-7.264-0.03
		c-3.672-0.163-7.256,0.392-10.843,1.038c-2.865,0.517-5.741,0.969-8.612,1.452c-0.317,0.054-0.615-0.008-0.92-0.096
		c-2.77-0.794-5.542-1.578-8.312-2.372c-0.247-0.071-0.485-0.182-0.717-0.297c-2.277-1.133-4.555-2.268-6.829-3.407
		c-1.008-0.505-1.229-0.976-0.999-2.075c0.446-2.138,2.312-3.321,4.601-2.908c0.819,0.147,1.621,0.371,2.381,0.717
		c0.303,0.139,0.442,0.179,0.574-0.239c0.721-2.282,2.219-3.157,4.599-2.768c1.67,0.273,3.178,0.978,4.611,1.815
		c0.731,0.428,1.44,0.639,2.273,0.588c0.724-0.044,1.451-0.009,2.186-0.185c-0.375,0-0.752,0.016-1.127-0.003
		c-0.924-0.044-1.377-0.498-1.394-1.423c-0.016-0.832-0.022-1.667,0.01-2.499c0.075-1.948,1.597-3.53,3.548-3.556
		c3.774-0.05,7.551-0.018,11.325-0.028c0.546-0.001,0.924,0.274,1.283,0.636c1.321,1.33,2.656,2.646,3.971,3.983
		c0.274,0.278,0.549,0.403,0.949,0.397c1.588-0.025,3.178,0.019,4.765-0.022c0.789-0.021,1.336,0.245,1.659,0.964
		c0,0.261,0,0.521,0,0.781c-0.234,0.634-0.728,0.908-1.365,0.984c-1.898,0.046-3.797,0.008-5.695,0.022
		c-0.814,0.006-1.441-0.361-1.995-0.915c-1.159-1.158-2.324-2.311-3.473-3.479c-0.409-0.417-0.865-0.614-1.454-0.612
		c-3.095,0.013-6.189-0.002-9.284,0.011c-1.029,0.004-1.267,0.194-1.503,1.093c0.078,0.912,0.09,0.929,1.021,0.938
		c1.624,0.016,3.248-0.021,4.871,0.017c0.945,0.144,1.381,0.492,1.507,1.204c0.111,0.633-0.198,1.214-0.977,1.613
		c-1.735,0.889-3.551,1.605-5.325,2.41c-1.704,0.773-3.424,1.51-5.125,2.288c-0.603,0.276-1.215,0.429-1.881,0.424
		c-1.637-0.014-3.274-0.021-4.912,0.003c-0.699,0.011-1.32-0.135-1.916-0.516c-1.32-0.843-2.733-1.491-4.25-1.901
		c-0.43-0.106-0.852-0.145-1.264,0.089c0.115,0.34,0.397,0.387,0.616,0.497c1.624,0.824,3.234,1.677,4.889,2.435
		c1.756,0.806,3.695,1.074,5.498,1.737c2.219,0.817,4.401,0.87,6.719,0.395c3.539-0.727,7.126-1.221,10.691-1.817
		c0.334-0.056,0.668-0.108,1.007-0.108c4.084,0.002,8.168-0.019,12.251,0.009c0.689,0.005,1.135,0.343,1.35,0.992
		C82.5,73.55,82.5,73.81,82.5,74.07z"/>
	<path fill-rule="evenodd" fill="#FEDD7C" d="M17.484,9.879c2.757-0.008,5.514-0.003,8.27-0.038c0.513-0.006,0.517,0.23,0.516,0.609
		c-0.011,2.549-0.007,5.099-0.005,7.648c0.001,1.574,0.665,2.127,2.094,1.492c1.924-0.854,3.723-0.873,5.654-0.013
		c1.486,0.662,2.102,0.132,2.103-1.528c0.001-2.498,0.014-4.995-0.01-7.492c-0.005-0.505,0.067-0.722,0.656-0.718
		c4.215,0.027,8.429,0.023,12.643,0.002c0.516-0.003,0.651,0.141,0.642,0.647c-0.03,1.742-0.017,3.486-0.009,5.229
		c0.004,1.032,0.209,1.296,1.2,1.626c0.002,1.082,0.003,2.164,0.005,3.246c-0.972,0.23-1.206,0.545-1.206,1.675
		c-0.003,6.454-0.017,12.908,0.019,19.361c0.004,0.741-0.205,0.944-0.916,1.023c-1.87,0.208-3.505,1.086-5.104,2.014
		c-0.443,0.257-0.876,0.39-1.393,0.38c-1.404-0.027-2.81-0.007-4.215-0.013c-0.254-0.001-0.517,0.057-0.748-0.131
		c-0.982-0.797-1.971-1.587-3.14-2.526c1.563,0,2.9,0,4.237,0c2.301,0,2.343-0.042,2.343-2.379c0-0.391,0.007-0.781-0.003-1.171
		c-0.052-2.183-1.476-3.739-3.642-3.776c-3.694-0.063-7.391-0.019-11.086-0.022c-0.532,0-0.932,0.25-1.295,0.617
		c-1.337,1.35-2.683,2.69-4.027,4.032c-0.289,0.288-2.047,0.53-2.359,0.318c-0.07-0.047-0.111-0.162-0.132-0.253
		c-0.131-0.593-0.578-0.827-1.096-0.985c-0.225-0.257-0.228-0.575-0.229-0.887c-0.008-1.979-0.01-3.958,0.001-5.937
		c0.001-0.286,0.01-0.575,0.18-0.827c0.376-0.321,0.836-0.244,1.27-0.245c3.824-0.007,7.649-0.004,11.474-0.005
		c0.313,0,0.625,0.009,0.936-0.028c0.567-0.068,0.933-0.375,0.953-0.951c0.059-1.611,0.065-3.225-0.003-4.837
		c-0.025-0.606-0.413-0.927-1.007-1c-0.337-0.042-0.675-0.032-1.014-0.032c-3.772-0.001-7.545,0.003-11.317-0.004
		c-0.436,0-0.893,0.073-1.279-0.226c-0.222-0.321-0.195-0.691-0.196-1.052c-0.005-3.937-0.006-7.875,0.001-11.812
		C17.25,10.554,17.209,10.178,17.484,9.879z"/>
	<path fill-rule="evenodd" fill="#FEE8D5" d="M21.24,42.389c0.467-0.063,0.792-0.353,1.107-0.67c1.299-1.308,2.61-2.602,3.899-3.919
		c0.292-0.298,0.581-0.443,1.013-0.44c3.271,0.019,6.541,0.006,9.811,0.012c1.118,0.002,1.578,0.397,1.665,1.382
		c-0.3,0.276-0.675,0.239-1.035,0.242c-1.17,0.008-2.343,0.047-3.51-0.012c-0.832-0.042-1.488,0.064-1.695,1.007
		c-0.415,0.013-0.83,0.01-1.244,0.042c-0.529,0.04-0.94,0.27-1.138,0.797c-0.202,0.541-0.014,0.986,0.397,1.318
		c2.06,1.665,4.132,3.312,6.2,4.965c0.304,0.243,0.662,0.267,1.031,0.266c1.896-0.003,3.793-0.01,5.688,0.005
		c0.463,0.003,0.859-0.125,1.241-0.371c1.114-0.72,2.299-1.3,3.549-1.744c0.414-0.147,0.823-0.316,1.277-0.287
		c0.288-0.016,0.216,0.143,0.116,0.272c-0.181,0.234-0.46,0.332-0.708,0.472c-2.599,1.463-5.35,2.537-8.253,3.221
		c-0.506,0.119-1.021,0.235-1.498,0.431c-1.976,0.808-3.953,0.759-6.027,0.347c-3.543-0.704-7.126-1.201-10.687-1.823
		c-0.956-0.167-1.914-0.156-2.875-0.174c-0.834-0.017-0.89-0.083-0.892-0.886c-0.003-1.223,0.041-2.446-0.018-3.665
		c-0.031-0.654,0.21-0.789,0.796-0.757C20.046,42.451,20.646,42.484,21.24,42.389z"/>
	<path fill-rule="evenodd" fill="#FEC724" d="M17.484,9.879c0,4.62-0.001,9.24-0.001,13.859c-0.282,0.317-0.673,0.218-1.024,0.259
		c-0.889,0.104-1.203,0.407-1.221,1.302c-0.028,1.432-0.031,2.865,0.002,4.296c0.021,0.895,0.345,1.194,1.236,1.274
		c0.35,0.032,0.743-0.076,1.009,0.275c-0.002,2.536-0.003,5.072-0.005,7.608c-1.533,0.007-3.067-0.003-4.6,0.033
		c-0.477,0.011-0.539-0.186-0.539-0.592c0.009-9.255,0.01-18.51-0.001-27.765c0-0.414,0.073-0.597,0.544-0.585
		C14.417,9.88,15.951,9.871,17.484,9.879z"/>
	<path fill-rule="evenodd" fill="#FE8560" d="M3.607,51.265c0.009-3.375,0.018-6.75,0.027-10.125
		c4.034-0.005,8.068-0.006,12.103-0.025c0.414-0.002,0.532,0.13,0.527,0.534c-0.024,2.368-0.027,4.735-0.037,7.104
		c-0.37,0.335-0.831,0.249-1.263,0.25c-3.272,0.009-6.544,0.001-9.816,0.006c-1.105,0.002-1.125,0.031-1.151,1.133
		c-0.01,0.385,0.041,0.787-0.241,1.114C3.707,51.259,3.657,51.262,3.607,51.265z"/>
	<path fill-rule="evenodd" fill="#FED2AD" d="M21.24,42.389c-0.625,0.26-1.278,0.093-1.917,0.11
		c-0.441,0.013-0.59,0.164-0.583,0.599c0.02,1.274,0.02,2.549,0,3.823c-0.007,0.437,0.146,0.602,0.588,0.59
		c3.446-0.093,6.754,0.868,10.123,1.361c2.196,0.32,4.373,0.781,6.574,1.06c0.834,0.105,1.646-0.386,2.467-0.603
		c1.852-0.491,3.696-1.015,5.525-1.581c1.948-0.603,3.664-1.72,5.494-2.584c0.1-0.047,0.042-0.125-0.014-0.183
		c0.188-0.123,0.397-0.12,0.603-0.086c0.391,0.063,0.869,0.139,0.94,0.56c0.055,0.328-0.431,0.354-0.681,0.498
		c-3.896,2.241-8.099,3.666-12.417,4.866c-1.768,0.491-3.376,0.187-5.047-0.084c-3.821-0.618-7.634-1.29-11.456-1.897
		c-0.737-0.117-1.506-0.063-2.258-0.046c-0.41,0.009-0.6-0.06-0.593-0.54c0.027-1.77,0.019-3.539-0.003-5.309
		c-0.005-0.417,0.076-0.616,0.549-0.587C19.835,42.399,20.539,42.381,21.24,42.389z"/>
	<path fill-rule="evenodd" fill="#FEBC84" d="M33.768,17.159c-1.743-1.037-3.403-1.026-5.159,0.009c0-1.071,0-1.964,0-2.856
		c0-1.299,0.017-2.598-0.01-3.896c-0.009-0.432,0.1-0.585,0.556-0.576c1.376,0.029,2.754,0.021,4.13,0.003
		c0.362-0.004,0.494,0.089,0.491,0.474C33.759,12.523,33.768,14.73,33.768,17.159z"/>
	<path fill-rule="evenodd" fill="#FE6838" d="M3.756,51.255c-0.001-0.572,0.033-1.147-0.014-1.716
		c-0.051-0.608,0.15-0.803,0.779-0.798c3.902,0.027,7.805,0.012,11.706,0.011c0.01,0.674,0,1.348,0.037,2.02
		c0.023,0.418-0.136,0.524-0.533,0.521C11.739,51.271,7.748,51.266,3.756,51.255z"/>
	<path fill-rule="evenodd" fill="#FED2AD" d="M32.495,39.991c0.001-0.182,0.021-0.366-0.002-0.545
		c-0.069-0.553,0.172-0.709,0.709-0.702c1.844,0.027,3.688,0.01,5.533,0.009c0.095,1.271,0.095,1.275-1.111,1.271
		C35.914,40.017,34.205,40.002,32.495,39.991z"/>
	<path fill-rule="evenodd" fill="#FEE8D5" d="M81.251,66.272c-0.003,1.664-0.007,3.329-0.011,4.993
		c-0.333,0.282-0.737,0.216-1.122,0.217c-2.187,0.007-4.376,0.063-6.56-0.011c-3.402-0.115-6.75,0.225-10.088,0.857
		c-2.992,0.567-6.007,1.017-9.011,1.521c-0.525,0.089-1.023,0.062-1.538-0.087c-2.377-0.685-4.76-1.349-7.132-2.046
		c-1.762-0.518-3.314-1.503-4.943-2.313c-0.176-0.087-0.472-0.191-0.321-0.504c0.048-0.098,0.183-0.051,0.278-0.004
		c1.479,0.274,2.784,0.971,4.04,1.743c0.719,0.442,1.432,0.646,2.271,0.623c1.609-0.043,3.222-0.021,4.833-0.008
		c0.504,0.004,0.971-0.092,1.432-0.298c3.5-1.563,7.004-3.118,10.507-4.675c0.024-0.011,0.05-0.016,0.074-0.026
		c0.591-0.249,1.047-0.635,1.003-1.328c-0.046-0.722-0.519-1.094-1.212-1.205c-0.206-0.953-0.884-1.024-1.7-0.988
		c-1.165,0.053-2.334,0.019-3.501,0.011c-0.358-0.003-0.733,0.037-1.031-0.241c0.112-0.868,0.455-1.246,1.277-1.251
		c3.436-0.017,6.872-0.002,10.309-0.019c0.371-0.002,0.562,0.204,0.78,0.423c1.27,1.271,2.556,2.525,3.804,3.816
		c0.525,0.543,1.1,0.796,1.862,0.785C77.451,66.231,79.352,66.264,81.251,66.272z"/>
	<path fill-rule="evenodd" fill="#FED2AD" d="M40.804,68.896c-0.185,0.046-0.318,0.104-0.045,0.237
		c2.054,0.992,4.021,2.169,6.271,2.734c1.984,0.499,3.966,1.027,5.905,1.674c1.006,0.336,1.902,0.003,2.815-0.142
		c4.21-0.666,8.407-1.411,12.608-2.124c0.153-0.025,0.312-0.019,0.468-0.019c4.139,0.002,8.276,0.005,12.414,0.008
		c0.005,0.404,0.009,0.808,0.013,1.212c-2.888,0.007-5.778,0.099-8.663-0.001c-3.12-0.107-6.162,0.353-9.212,0.886
		c-3.07,0.537-6.151,1.019-9.224,1.549c-0.362,0.063-0.668-0.031-0.985-0.12c-2.322-0.657-4.641-1.328-6.964-1.983
		c-0.629-0.178-1.213-0.447-1.793-0.741c-1.826-0.923-3.66-1.829-5.552-2.771C39.452,68.607,40.109,68.66,40.804,68.896z"/>
	<path fill-rule="evenodd" fill="#FDD1AC" d="M57.52,62.504c1.656,0.001,3.313-0.004,4.969,0.005
		c1.463,0.008,1.23-0.161,1.264,1.214c-1.82,0.007-3.642-0.014-5.461,0.036c-0.63,0.018-0.934-0.116-0.809-0.79
		C57.511,62.817,57.508,62.659,57.52,62.504z"/>
	<path fill-rule="evenodd" fill="#FCD0AC" d="M46.397,66.99c0.433-0.622,0.983-0.625,1.526-0.523c1.7,0.32,3.197,1.117,4.764,2.042
		C50.166,69.436,48.387,67.925,46.397,66.99z"/>
	<path fill-rule="evenodd" d="M17.485,31.145c-0.39-0.011-0.779-0.015-1.169-0.032c-0.821-0.036-1.285-0.44-1.3-1.244
		c-0.03-1.613-0.028-3.228-0.001-4.841c0.014-0.77,0.458-1.194,1.222-1.255c0.414-0.033,0.831-0.025,1.247-0.035
		c4.346,0.009,8.691,0.019,13.037,0.026c1.527,0.003,1.839,0.308,1.84,1.81c0.001,1.249,0.001,2.499,0,3.748
		c-0.001,1.49-0.298,1.793-1.762,1.793c-4.086,0.001-8.172,0-12.258,0.002C18.056,31.117,17.771,31.135,17.485,31.145z"/>
	<path fill-rule="evenodd" fill="#EFEEEE" d="M23.619,28.769c-1.873,0-3.746-0.015-5.618,0.01c-0.478,0.006-0.726-0.072-0.657-0.623
		c0.084-0.661-0.284-1.548,0.157-1.932c0.376-0.327,1.235-0.109,1.882-0.11c3.329-0.004,6.659,0.007,9.988-0.012
		c0.487-0.003,0.716,0.091,0.654,0.629c-0.076,0.661,0.278,1.549-0.154,1.93c-0.371,0.327-1.235,0.103-1.882,0.105
		C26.532,28.772,25.076,28.769,23.619,28.769z"/>
</g>
</svg>
