<?xml version="1.0" encoding="utf-8"?>
<!-- Generator: Adobe Illustrator 16.0.0, SVG Export Plug-In . SVG Version: 6.00 Build 0)  -->
<!DOCTYPE svg PUBLIC "-//W3C//DTD SVG 1.1//EN" "http://www.w3.org/Graphics/SVG/1.1/DTD/svg11.dtd">
<svg version="1.1" id="Layer_1" xmlns="http://www.w3.org/2000/svg" xmlns:xlink="http://www.w3.org/1999/xlink" x="0px" y="0px"
	 width="85px" height="85px" viewBox="0 0 85 85" enable-background="new 0 0 85 85" xml:space="preserve">
<g>
	<path fill="#60100E" d="M49.879,7.259c-0.58-0.447-1.941-0.595-2.398,0.175l-0.039,1.471c0,0,0.344,0.068,1.1,1.258
		c0.754,1.188,0.725,3.564,0.258,5.631c-0.479,2.132-1.623,2.761-2.461,2.831c0.418,0.386,1.115,0.455,1.752,0.279
		c0.232-0.063,0.457-0.156,0.668-0.276c0.268,0.272,0.762,0.474,0.893,0.368c-0.189-0.33,0.039-0.756,0.266-1.512
		c0,0-0.23,0.721,0,0c0.336-1.039,0.801-2.258,1.145-3.86C51.59,11.148,51.555,8.553,49.879,7.259z"/>
	<path fill="#7F3323" d="M49.775,15.587c0.467-2.196,0.496-4.724-0.258-5.987c-0.6-1-1.639-1.623-2.047-1.84l-0.029,1.143
		c0,0,0.342,0.069,1.098,1.258s0.727,3.565,0.26,5.632c-0.48,2.132-1.625,2.761-2.463,2.831c0.238,0.219,0.568,0.334,0.924,0.36
		C48.107,18.769,49.332,17.679,49.775,15.587z"/>
	<path fill="#60100E" d="M35.44,7.259c0.578-0.447,1.941-0.595,2.398,0.175l0.037,1.471c0,0-0.342,0.068-1.098,1.258
		c-0.754,1.188-0.727,3.564-0.258,5.631c0.48,2.132,1.623,2.761,2.461,2.831c-0.418,0.386-1.115,0.455-1.752,0.279
		c-0.232-0.062-0.457-0.156-0.666-0.276c-0.268,0.272-0.764,0.474-0.896,0.368c0.193-0.33-0.039-0.756-0.264-1.512
		c0,0,0.232,0.721,0,0c-0.336-1.039-0.801-2.258-1.146-3.86C33.729,11.148,33.764,8.553,35.44,7.259L35.44,7.259z"/>
	<path fill="#7F3323" d="M35.542,15.587c-0.465-2.196-0.496-4.724,0.26-5.987c0.598-1,1.635-1.623,2.045-1.84l0.029,1.143
		c0,0-0.342,0.069-1.098,1.258s-0.727,3.565-0.26,5.632c0.48,2.132,1.625,2.761,2.463,2.831c-0.24,0.219-0.568,0.334-0.926,0.36
		C37.211,18.769,35.987,17.679,35.542,15.587L35.542,15.587z"/>
	<path fill="#FFB67F" d="M48.98,54.272c-0.287,1.182-0.645,2.32-1.08,3.377c-0.223,0.533-0.611,2.625-0.488,3.541
		s-0.234,5.74-1.154,8.367c-0.922,2.625-1.41,6.168-1.166,7.756c0,0.002,0.002,0.002,0.002,0.004
		c0.082,0.209,0.238,0.518,0.357,0.764c0.09,0.182,0.16,0.328,0.172,0.373c0.041,0.205-0.014,1.961-0.307,2.418
		c-0.584,0.91-1.689,0.639-1.936,0.506c-0.301-0.17-0.307-2.139-0.338-3.371c-0.004-0.184-0.01-0.361-0.02-0.543
		c-0.002-0.053-0.006-0.104-0.01-0.148c0,0-0.048-2.533-0.06-3.207c-0.061-3.115-0.336-8.52-0.031-10.139
		c0.16-0.848,0.365-1.646,0.306-2.596c-0.043-0.652-0.104-1.699-0.275-3.541c-0.078-0.832-0.117-1.857-0.129-2.961
		c-0.053-4.074,0.25-9.234,0.375-9.835c-0.212,0-0.55-0.029-0.55-0.029s-0.336,0.029-0.549,0.029
		c0.121,0.601,0.428,5.761,0.373,9.835c-0.012,1.104-0.051,2.129-0.129,2.961c-0.172,1.842-0.232,2.889-0.275,3.541
		c-0.061,0.947,0.146,1.748,0.307,2.596c0.305,1.619,0.029,7.021-0.031,10.139c-0.012,0.674-0.062,3.207-0.062,3.207
		c0,0.045-0.004,0.096-0.006,0.15c-0.004,0.154-0.002,0.344,0.002,0.557c0.021,1.295,0.113,3.441-0.84,3.596
		c-0.412,0.064-2.117,0.08-1.762-3.164c0.062-0.125,0.117-0.252,0.174-0.379c0.115-0.271,0.227-0.537,0.354-0.756
		c0-0.002,0.002-0.002,0.002-0.004c0.244-1.588-0.244-5.131-1.164-7.756c-0.922-2.627-1.279-7.451-1.156-8.369
		c0.121-0.914-0.266-3.006-0.488-3.541c-0.436-1.055-0.791-2.195-1.08-3.375c-1.01-4.146-1.16-8.748-0.873-11.647
		c0.133-1.363,0.494-3.378,0.857-5.205c0.268-1.342,0.551-2.683,0.852-4.018c0.305-1.342,0.184-3.969,0.123-5.923
		c-0.062-1.955-0.855-4.946-1.832-6.9c0.793-0.429,4.213-1.404,4.52-1.771c0.195-0.233,0.367-1.092,0.445-1.986
		c0.047-0.503,0.062-1.016,0.043-1.434h4.396c-0.021,0.418-0.004,0.931,0.041,1.434c0.082,0.896,0.254,1.753,0.449,1.986
		c0.305,0.367,3.725,1.343,4.52,1.771c-0.979,1.954-1.771,4.945-1.832,6.9c-0.062,1.955-0.186,4.581,0.121,5.923
		c0.148,0.661,0.502,2.25,0.85,4.018c0.365,1.827,0.727,3.842,0.861,5.205C50.143,45.525,49.99,50.127,48.98,54.272L48.98,54.272z"
		/>
	<path fill="#FFB67F" d="M47.127,6.898c-0.289-1.734-2.932-2.972-4.478-2.972c-1.547,0-4.189,1.237-4.48,2.972
		c-0.365,2.199-0.324,6.961,1.061,8.489c1.385,1.527,2.441,2.057,3.42,2.219c0.976-0.163,2.037-0.691,3.419-2.219
		C47.453,13.859,47.494,9.097,47.127,6.898z"/>
	<path fill="#FFB67F" d="M47.219,10.508c0.096-0.379,0.629-0.536,0.75-0.467c0.176,0.097,0.602,0.324,0.514,0.916
		s-0.209,1.097-0.625,1.476c-0.418,0.379-0.92,0.644-0.982,0.397C46.812,12.582,47.141,10.824,47.219,10.508z"/>
	<path fill="#EC8940" d="M48.223,11.002c-0.021-0.125-0.092-0.252-0.188-0.295c-0.047-0.022-0.096-0.018-0.145,0.004
		c-0.066,0.023-0.104,0.051-0.15,0.086c-0.182,0.146-0.262,0.389-0.328,0.63l-0.113-0.097c0.09-0.039,0.18-0.082,0.283-0.111
		c0.055-0.014,0.113-0.032,0.191-0.006c0.084,0.025,0.113,0.119,0.121,0.166c0.02,0.107,0.008,0.224-0.043,0.32
		c-0.049,0.092-0.121,0.168-0.211,0.221c0.064-0.077,0.121-0.157,0.143-0.248c0.021-0.088,0.018-0.178-0.01-0.264
		c-0.016-0.045-0.027-0.062-0.045-0.062c-0.02-0.004-0.062,0.003-0.102,0.02c-0.084,0.03-0.172,0.078-0.262,0.117l-0.154,0.067
		l0.039-0.164c0.029-0.128,0.07-0.259,0.133-0.382c0.061-0.124,0.15-0.241,0.271-0.323c0.057-0.037,0.137-0.073,0.195-0.085
		c0.07-0.023,0.164-0.016,0.229,0.029C48.203,10.724,48.238,10.873,48.223,11.002L48.223,11.002z"/>
	<path fill="#FFB67F" d="M38.077,10.508c-0.092-0.379-0.627-0.536-0.75-0.467c-0.174,0.097-0.6,0.324-0.51,0.916
		c0.088,0.592,0.209,1.097,0.625,1.476c0.414,0.379,0.918,0.644,0.979,0.397C38.485,12.582,38.157,10.824,38.077,10.508z"/>
	<path fill="#EC8940" d="M37.073,11.002c-0.014-0.129,0.021-0.278,0.145-0.375c0.064-0.045,0.156-0.055,0.23-0.03
		c0.059,0.013,0.137,0.048,0.195,0.086c0.119,0.081,0.209,0.198,0.271,0.322s0.102,0.254,0.133,0.382l0.037,0.164l-0.152-0.066
		c-0.092-0.041-0.18-0.088-0.262-0.117c-0.043-0.016-0.084-0.023-0.102-0.021c-0.018,0-0.031,0.017-0.045,0.062
		c-0.027,0.086-0.031,0.176-0.012,0.264c0.023,0.091,0.08,0.171,0.145,0.248c-0.088-0.053-0.162-0.129-0.211-0.221
		c-0.049-0.097-0.061-0.211-0.041-0.319c0.006-0.048,0.035-0.14,0.121-0.165c0.076-0.026,0.137-0.008,0.188,0.005
		c0.107,0.03,0.197,0.073,0.285,0.112l-0.115,0.096c-0.064-0.241-0.146-0.484-0.326-0.63c-0.049-0.036-0.084-0.063-0.148-0.087
		c-0.051-0.021-0.098-0.026-0.145-0.004C37.167,10.75,37.096,10.877,37.073,11.002L37.073,11.002z M43.82,15.127l-0.039-0.062
		l0.014-0.01c0.328-0.215,0.531-0.36,0.604-0.433l0.051,0.052c-0.113,0.114-0.49,0.36-0.615,0.441L43.82,15.127z"/>
	<path fill="#EC8940" d="M44.295,14.611c0.016-0.027,0.059-0.04,0.09-0.038c0.033,0,0.064,0.016,0.094,0.03
		c0.025,0.021,0.053,0.043,0.066,0.073c0.018,0.029,0.021,0.062,0.01,0.095c-0.018-0.027-0.035-0.045-0.055-0.062
		c-0.02-0.018-0.039-0.033-0.062-0.045c-0.02-0.016-0.041-0.026-0.064-0.037C44.35,14.619,44.328,14.606,44.295,14.611z
		 M41.407,15.09c-0.041-0.029-0.43-0.284-0.561-0.414l0.053-0.052c0.1,0.101,0.393,0.302,0.547,0.404L41.407,15.09z"/>
	<path fill="#F5835E" d="M42.649,15.239c-0.523-0.014-1.227-0.208-1.4-0.299c0.123,0.225,0.719,0.713,1.4,0.749
		c0.681-0.036,1.277-0.524,1.4-0.749C43.875,15.031,43.174,15.226,42.649,15.239z"/>
	<path fill="#EC8940" d="M41.002,14.611c-0.033-0.004-0.053,0.009-0.078,0.017c-0.021,0.011-0.047,0.021-0.064,0.037
		c-0.023,0.013-0.043,0.028-0.062,0.045c-0.018,0.017-0.039,0.035-0.055,0.062c-0.01-0.032-0.006-0.065,0.01-0.095
		c0.016-0.03,0.041-0.054,0.066-0.073c0.029-0.015,0.059-0.03,0.094-0.03C40.944,14.571,40.985,14.584,41.002,14.611L41.002,14.611z
		"/>
	<path fill="#D47026" d="M41.249,14.94c0.209,0.14,0.445,0.234,0.678,0.323c0.234,0.081,0.477,0.15,0.723,0.15
		c0.244,0,0.488-0.068,0.722-0.15c0.232-0.088,0.467-0.184,0.678-0.323c-0.193,0.161-0.424,0.276-0.656,0.375
		c-0.234,0.096-0.484,0.164-0.744,0.169c-0.26-0.005-0.51-0.073-0.744-0.169C41.672,15.217,41.444,15.102,41.249,14.94z"/>
	<g>
		<path fill="#EC8940" d="M42.19,13.025c0.059-0.066,0.125-0.123,0.199-0.171c0.074-0.047,0.154-0.087,0.256-0.093
			c0.096,0.008,0.178,0.043,0.256,0.087c0.074,0.045,0.144,0.103,0.193,0.177c-0.066-0.055-0.144-0.092-0.22-0.125
			c-0.076-0.031-0.156-0.064-0.232-0.064c-0.07-0.001-0.152,0.035-0.225,0.068C42.34,12.94,42.266,12.981,42.19,13.025L42.19,13.025
			z M41.899,13.104c-0.064,0.07-0.08,0.179-0.041,0.257c0.039,0.075,0.15,0.073,0.225,0.034c0.059-0.021,0.107-0.016,0.16-0.006
			c0.047,0.011,0.105,0.032,0.141,0.08c0.047,0.065,0.146,0.095,0.223,0.099c0.084-0.002,0.182-0.037,0.227-0.098
			c0.039-0.053,0.094-0.068,0.145-0.082c0.048-0.01,0.099-0.014,0.156,0.004c0.076,0.042,0.189,0.042,0.227-0.033
			c0.039-0.076,0.021-0.186-0.041-0.256c0.072,0.062,0.107,0.171,0.074,0.271c-0.049,0.111-0.193,0.107-0.277,0.07
			c-0.072-0.014-0.187,0.006-0.224,0.062c-0.072,0.094-0.176,0.124-0.279,0.134c-0.109-0.008-0.209-0.043-0.281-0.131
			c-0.041-0.061-0.156-0.076-0.225-0.064c-0.088,0.041-0.23,0.041-0.279-0.07C41.793,13.279,41.823,13.172,41.899,13.104z"/>
	</g>
	<path fill="#C9388D" d="M42.538,81.886c-0.105,0.254-0.387,0.613-0.725,0.613h-1.506c-0.213,0-0.668-0.238-0.76-0.74
		c-0.041-0.229-0.078-0.566-0.088-0.986c0.119,0.268,0.299,0.521,0.566,0.605c0.262,0.086,1.686,0.062,1.906-0.064
		c0.223-0.127,0.475-0.285,0.629-0.76C42.594,81.228,42.584,81.769,42.538,81.886z"/>
	<path fill="#EA6CB5" d="M42.561,80.552L42.561,80.552c-0.154,0.475-0.406,0.635-0.627,0.762c-0.223,0.127-1.646,0.148-1.908,0.062
		c-0.268-0.082-0.447-0.338-0.566-0.604c-0.016-0.627,0.031-1.432,0.217-2.32c0.105,0.422,0.168,1.037,0.4,1.164
		c0.234,0.129,1.295,0.148,1.59,0c0.297-0.146,0.594-0.826,0.615-1.506C42.428,78.796,42.524,79.761,42.561,80.552L42.561,80.552z"
		/>
	<path fill="#C9388D" d="M42.278,78.021c-0.307-0.203-0.893-0.395-1.398-0.365c-0.357,0.018-0.76,0.217-1.031,0.418
		c0.117-0.27,0.227-0.537,0.354-0.754c0.209-0.084,0.43-0.141,0.654-0.152c0.504-0.023,1.031,0.113,1.418,0.299
		C42.272,77.618,42.272,77.81,42.278,78.021L42.278,78.021z M45.836,80.776c-0.01,0.416-0.047,0.754-0.088,0.982
		c-0.092,0.502-0.547,0.74-0.76,0.74h-1.506c-0.338,0-0.621-0.359-0.724-0.613c-0.049-0.117-0.057-0.658-0.025-1.334
		c0.154,0.475,0.404,0.635,0.628,0.762c0.223,0.127,1.643,0.148,1.908,0.062C45.535,81.294,45.717,81.042,45.836,80.776
		L45.836,80.776z"/>
	<path fill="#EA6CB5" d="M45.836,80.772v0.004c-0.119,0.266-0.301,0.52-0.564,0.602c-0.268,0.086-1.688,0.062-1.908-0.064
		c-0.225-0.127-0.474-0.285-0.628-0.76v-0.002c0.037-0.787,0.164-1.754,0.312-2.439c0.021,0.68,0.283,1.357,0.58,1.508
		c0.297,0.146,1.355,0.127,1.592,0c0.232-0.127,0.295-0.744,0.402-1.166C45.805,79.343,45.852,80.147,45.836,80.772L45.836,80.772z"
		/>
	<path fill="#C9388D" d="M45.451,78.079c-0.273-0.207-0.672-0.406-1.037-0.424c-0.492-0.031-1.059,0.148-1.371,0.35
		c-0.004-0.182-0.01-0.361-0.02-0.541c0.387-0.186,0.912-0.32,1.418-0.297c0.221,0.012,0.443,0.068,0.65,0.15
		C45.174,77.526,45.33,77.833,45.451,78.079z"/>
	<path fill="#60100E" d="M43.533,9.008c0.018,0.122,0.191,0.109,0.492,0.109c0.299,0,1.621,0.142,2.291,0.73
		c-0.432-0.711-1.621-1.02-1.992-1.05C43.955,8.768,43.504,8.777,43.533,9.008z"/>
	<path fill="#FFFFFF" d="M43.709,11.59c0.062-0.663,0.363-1.337,1.006-1.409c0.729-0.082,1.082,0.414,1.379,0.671
		c-0.119,0.346-0.408,0.824-0.975,0.98C44.799,11.922,44.119,11.818,43.709,11.59z"/>
	<path fill="#5C9AE1" d="M45.576,10.979c-0.041,0.442-0.434,0.767-0.875,0.724l0,0c-0.443-0.041-0.768-0.433-0.727-0.875
		c0.043-0.441,0.436-0.767,0.877-0.725C45.295,10.145,45.619,10.537,45.576,10.979L45.576,10.979z"/>
	<path fill="#404040" d="M45.229,10.947c-0.021,0.25-0.244,0.434-0.492,0.41c-0.002,0-0.002,0-0.002,0
		c-0.25-0.023-0.436-0.246-0.41-0.496l0,0c0.018-0.25,0.236-0.438,0.486-0.421c0.25,0.019,0.438,0.236,0.42,0.487
		C45.23,10.934,45.23,10.94,45.229,10.947z"/>
	<path fill="#404040" d="M46.064,10.527c-0.096-0.006-0.25-0.06-0.396-0.158c-0.066-0.047-0.129-0.104-0.203-0.146
		c-0.084-0.051-0.334-0.136-0.336-0.129c-0.189-0.042-0.391-0.047-0.58-0.001c-0.324,0.084-0.568,0.345-0.689,0.623
		c-0.127,0.28-0.17,0.582-0.148,0.875c0.076-0.283,0.168-0.554,0.312-0.789c0.143-0.231,0.342-0.419,0.588-0.478
		c0.256-0.063,0.527-0.041,0.77,0.063c0.057,0.024,0.109,0.053,0.162,0.084c0.152,0.097,0.301,0.222,0.375,0.313
		c0.127,0.152,0.02,0.4-0.172,0.658C46.016,11.32,46.283,10.541,46.064,10.527L46.064,10.527z"/>
	<g>
		<path fill="#60100E" d="M41.762,9.008c-0.016,0.122-0.189,0.109-0.49,0.109s-1.621,0.142-2.291,0.73
			c0.43-0.711,1.621-1.02,1.99-1.05C41.342,8.768,41.792,8.777,41.762,9.008L41.762,9.008z"/>
		<path fill="#FFFFFF" d="M41.588,11.59c-0.061-0.663-0.361-1.337-1.002-1.409c-0.729-0.082-1.086,0.414-1.381,0.671
			c0.123,0.346,0.408,0.824,0.975,0.98C40.499,11.922,41.18,11.818,41.588,11.59z"/>
		<path fill="#5C9AE1" d="M39.723,10.979c0.041,0.441,0.432,0.765,0.873,0.724h0.002c0.441-0.041,0.766-0.431,0.727-0.873v-0.002
			c-0.043-0.441-0.434-0.767-0.875-0.726C40.006,10.144,39.68,10.537,39.723,10.979z"/>
		<path fill="#404040" d="M40.071,10.947c0.021,0.25,0.244,0.434,0.494,0.41c0,0,0,0,0.002,0c0.25-0.023,0.434-0.246,0.41-0.496
			s-0.246-0.435-0.498-0.412C40.231,10.475,40.047,10.697,40.071,10.947z"/>
		<path fill="#404040" d="M39.235,10.527c0.094-0.006,0.252-0.06,0.396-0.158c0.066-0.047,0.127-0.104,0.201-0.146
			c0.084-0.051,0.334-0.136,0.338-0.129c0.189-0.042,0.391-0.047,0.58-0.001c0.326,0.084,0.57,0.345,0.689,0.623
			c0.127,0.28,0.172,0.582,0.148,0.875c-0.076-0.283-0.168-0.554-0.312-0.789c-0.143-0.231-0.342-0.419-0.586-0.478
			c-0.318-0.078-0.654-0.024-0.934,0.147c-0.152,0.097-0.301,0.222-0.377,0.313c-0.125,0.152-0.018,0.4,0.174,0.658
			C39.252,11.328,39.016,10.541,39.235,10.527z"/>
	</g>
	<path fill="#60100E" d="M40.874,5.891c0.496,0.846,1.682,1.833,2.519,1.984c3.842,0.691,3.533,2.098,3.826,2.633
		c0.773-2.102,0.98-6.081-1.125-7.212c-1.463-0.787-3.648-1.173-4.982-0.285c-0.803,0.019-1.645,0.147-2.129,0.59
		c-1.59,1.448-1.971,4.188-0.998,6.735C38.709,8.031,39.739,6.551,40.874,5.891z"/>
	<path fill="#2F79BB" d="M49.102,36.917c-1.924,0.424-5.24,0.668-6.453,0.668c-1.211,0-4.529-0.244-6.451-0.668
		c0.188-0.678,0.355-1.651,0.496-2.732c0.133-1.019,0.244-2.133,0.33-3.18c0.145-1.788,0.209-3.392,0.184-4.016
		c-0.039-0.247-0.131-0.675-0.244-1.195c-0.393-1.767-1.104-4.614-1.316-5.3c-0.012-0.038-0.023-0.076-0.037-0.113
		c0.396-0.335,3.182-1.329,4.312-1.573c0.365,0.979,1.953,1.771,2.727,1.771c0.771,0,2.359-0.794,2.726-1.771
		c1.131,0.244,3.916,1.238,4.314,1.573c-0.191,0.503-1.844,5.511-1.6,6.609C48.031,28.365,48.428,34.507,49.102,36.917
		L49.102,36.917z"/>
	<path fill="#2868A1" d="M48.092,26.989c-0.477,3.991,0.215,7.77-0.246,8.792c-0.408,0.912-4.719,1.315-5.929,1.315
		c-1.055,0-3.699-0.185-5.635-0.513c-0.025,0.11-0.053,0.222-0.084,0.333c1.924,0.424,5.24,0.668,6.451,0.668
		c1.212,0,4.529-0.244,6.453-0.668C48.428,34.507,48.031,28.365,48.092,26.989L48.092,26.989z"/>
	<g>
		<path fill="#858839" d="M44.123,34.561c-0.445,0.169-5.015,0.532-5.541,0.553c-0.283,0.012-0.484-0.071-0.604-0.211
			c0.365,0.332,0.141-1.278-0.15-0.437l0.135-8.764l4.994-0.215c0.126-0.005,0.248-0.01,0.357-0.014
			c0.314-0.015,0.535-0.022,0.613-0.029C43.928,25.959,44.123,33.559,44.123,34.561L44.123,34.561z"/>
		<path fill="#F4CF84" d="M43.986,34.466c-1.953,0.218-5.642,0.77-6.009,0.437c-0.006-0.006-0.012-0.013-0.018-0.021
			c-0.09-0.113-0.133-0.258-0.133-0.417c0.291-0.842,2.789-0.671,5.289-0.779C43.232,34.24,43.736,34.347,43.986,34.466
			L43.986,34.466z"/>
		<path fill="#FFE1B3" d="M43.986,34.466c-0.252-0.118-0.754-0.226-0.871-0.779l-0.16-8.199l-0.008-0.443
			c0.097,0.163,0.22,0.308,0.365,0.43c0.148,0.123,0.307,0.2,0.424,0.167C43.736,26.258,44.025,34.331,43.986,34.466z"/>
		<path fill="#9FA24B" d="M43.26,33.797c-2.5,0.107-5.142-0.173-5.431,0.668c-0.098-0.519-0.33-7.193-0.395-9.109
			c0.387-0.233,5.508-0.656,5.508-0.656l0.006,0.342v0.002l0.01,0.443L43.26,33.797z"/>
	</g>
	<path fill="#FFB67F" d="M31.598,32.81c0,0.642,0.223,2.026,1.332,2.166c1.111,0.138,6.004-1.966,7.07-2.488
		c1.463-0.715,1.703-0.838,2.037-1.06c0.332-0.222,1.361-0.055,1.777,0.167s1.109-0.184,0.75-0.869
		c-0.361-0.687-1.439-1.432-1.777-1.603c-0.225-0.113-0.277-0.307-0.029-0.39c0.25-0.083,1.25-0.109,1.443-0.055
		c0.195,0.055,0.111-0.306-0.443-0.389c-0.555-0.084-1.22-0.194-1.472-0.112c-0.25,0.084-1.691,1.671-2.219,1.919
		c-0.527,0.251-4.076,0.833-4.564,1.016c0.064-0.637,1.592-5.802,1.592-5.802l-0.492-4.946c0,0-1.09-0.182-1.84,0.873
		C34.014,22.292,31.596,30.716,31.598,32.81L31.598,32.81z"/>
	<path fill="#F9437D" d="M49.102,36.915c-1.131,0.163-5.77,0.671-6.453,0.671c-0.686,0-5.385-0.529-6.451-0.671
		c-0.49,1.984-2.303,14.017-3.121,15.879c3.701,1.588,8.535,1.588,9.572,1.588c1.039,0,5.873,0,9.572-1.588
		C51.4,50.932,49.588,38.9,49.102,36.915z"/>
	<path fill="#E33364" d="M49.102,36.915c-0.156,0.021-0.387,0.052-0.658,0.085c0.576,2.726,2.961,13.381,2.305,14.846
		c-0.828,1.845-7.792,2.29-8.832,2.29c-0.904,0-4.68,0-8.084-1.046c3.574,1.29,7.848,1.29,8.816,1.29c1.039,0,5.873,0,9.572-1.587
		C51.4,50.932,49.588,38.9,49.102,36.915z"/>
	<path fill="#FFB67F" d="M49.873,20.579c0.748,0.507,1.166,1.167,1.406,2.571c0.145,0.857,0.268,2.561,0.299,3.053
		c0.094,1.401,0.15,4.905,0.271,5.443c0.117,0.539,1.383,8.942,1.449,9.809c0.094,1.166,0.193,3.416-0.045,4.374
		c-0.213,0.846-2.482,3.59-3.381,3.8c-0.896,0.209,0.539-1.377,0.717-1.887c0.182-0.508,0.957-1.912,0.48-1.912
		c-0.275,0-0.719,1.462-1.072,1.435c-0.393-0.029-0.244-1.69,0.146-2.468c0.389-0.777,0.717-1.212,0.957-1.84
		c0.238-0.629-0.031-1.886-0.301-2.753c-0.268-0.867-2.062-5.206-2.213-6.552c-0.15-1.347-0.326-5.574-0.477-6.825
		C47.957,25.574,48.707,20.638,49.873,20.579L49.873,20.579z"/>
	<path fill="#2F79BB" d="M49.648,20.382c1.52,0.808,2.527,2.67,1.945,5.937c-0.23,1.068-2.668,1.854-3.508,1.533
		c-0.137-0.718-0.309-1.105-0.309-1.747C47.779,25.464,48.404,20.888,49.648,20.382L49.648,20.382z M35.608,20.382
		c-0.574,0.189-2.67,1.988-2.324,4.975c0.641,1.056,2.461,1.771,3.246,1.896c0.795-0.536,0.846-1.942,0.867-2.383
		c0.02-0.442,0.867-4.035,0-4.487C36.53,19.928,36.385,20.124,35.608,20.382z"/>
	<path fill="#2868A1" d="M37.11,26.479c-0.02-0.298,0.01-0.593,0.047-0.884c0.035-0.291,0.088-0.578,0.143-0.864l0.182-0.853
		c0.059-0.284,0.119-0.567,0.168-0.857c0.053,0.292,0.045,0.592,0.02,0.886c-0.023,0.293-0.074,0.583-0.129,0.871
		C37.424,25.354,37.274,25.912,37.11,26.479L37.11,26.479z M48.088,27.852c-0.199-0.273-0.389-0.557-0.549-0.856
		c-0.164-0.301-0.303-0.612-0.416-0.934c-0.221-0.643-0.342-1.35-0.211-2.021c0.062,0.677,0.223,1.314,0.441,1.941
		C47.566,26.609,47.854,27.214,48.088,27.852L48.088,27.852z"/>
</g>
</svg>
