<?xml version="1.0" encoding="utf-8"?>
<!-- Generator: Adobe Illustrator 16.0.0, SVG Export Plug-In . SVG Version: 6.00 Build 0)  -->
<!DOCTYPE svg PUBLIC "-//W3C//DTD SVG 1.1//EN" "http://www.w3.org/Graphics/SVG/1.1/DTD/svg11.dtd">
<svg version="1.1" id="Layer_1" xmlns="http://www.w3.org/2000/svg" xmlns:xlink="http://www.w3.org/1999/xlink" x="0px" y="0px"
	 width="85px" height="85px" viewBox="0 0 85 85" enable-background="new 0 0 85 85" xml:space="preserve">
<title>Fashion</title>
<g>
	<rect x="10.059" y="16.618" fill="#46BCB6" width="70.588" height="9.412"/>
	<polygon fill="#FAF3CE" points="52.412,68.382 45.352,56.019 38.293,68.382 7.705,63.677 10.059,26.03 80.646,26.03 83,63.677 	"/>
	<path fill="#752323" d="M40.646,56.241c-7.039,0-12.764-5.727-12.764-12.766c0-0.553,0.447-1,1-1c0.551,0,1,0.447,1,1
		c0,5.938,4.828,10.766,10.764,10.766c5.938,0,10.766-4.828,10.766-10.766c0-0.553,0.447-1,1-1s1,0.447,1,1
		C53.412,50.517,47.686,56.241,40.646,56.241z"/>
	<rect x="5.352" y="25.03" fill="#752323" width="70.588" height="2"/>
	<path fill="#752323" d="M47.705,69.382c-0.355,0-0.688-0.188-0.867-0.504l-6.191-10.844l-6.189,10.844
		c-0.205,0.359-0.617,0.555-1.021,0.492L2.848,64.665c-0.512-0.078-0.877-0.535-0.846-1.051l2.354-37.646l-0.002-9.35
		c0-0.553,0.447-1,1-1h70.588c0.553,0,1,0.447,1,1v9.412l2.352,37.584c0.031,0.516-0.336,0.973-0.848,1.051L47.857,69.37
		C47.807,69.378,47.756,69.382,47.705,69.382z M4.055,62.827l29.006,4.463l6.717-11.768c0.355-0.623,1.381-0.623,1.736,0
		l6.719,11.768l29.006-4.463l-2.297-36.734l-0.002-8.475H6.352v8.412L4.055,62.827z"/>
</g>
</svg>
