<?xml version="1.0" encoding="utf-8"?>
<!-- Generator: Adobe Illustrator 16.0.0, SVG Export Plug-In . SVG Version: 6.00 Build 0)  -->
<!DOCTYPE svg PUBLIC "-//W3C//DTD SVG 1.1//EN" "http://www.w3.org/Graphics/SVG/1.1/DTD/svg11.dtd">
<svg version="1.1" id="Layer_1" xmlns="http://www.w3.org/2000/svg" xmlns:xlink="http://www.w3.org/1999/xlink" x="0px" y="0px"
	 width="85px" height="85px" viewBox="0 0 85 85" enable-background="new 0 0 85 85" xml:space="preserve">
<g>
	<path fill="#B8CBCD" d="M82.5,72.446c0,5.475-17.908,9.914-40,9.914C20.41,82.36,2.5,77.923,2.5,72.446
		c0-5.475,17.909-9.912,39.999-9.912C64.592,62.534,82.5,66.972,82.5,72.446z"/>
	<path fill="#FFFFFF" d="M68.977,10.612c0,3.014-11.939,5.455-26.667,5.455c-14.727,0-26.664-2.441-26.664-5.455
		c0-3.012,11.938-5.453,26.664-5.453C57.037,5.159,68.977,7.601,68.977,10.612z"/>
	<path fill="#B9E3ED" d="M15.646,10.612c0-3.012,11.938-5.453,26.664-5.453c14.729,0,26.667,2.441,26.667,5.453L61.24,67.257
		c0,3.012-4.201,5.453-18.93,5.453c-14.725,0-19.67-2.441-19.67-5.453L15.646,10.612z"/>
	<path fill="#E1F3FD" d="M65.885,37.886L61.24,67.255c0,3.012-4.203,5.453-18.93,5.453c-14.727,0-19.67-2.441-19.67-5.453
		l-3.902-29.369c0,0,6.184-5.875,23.959-5.875C58.928,32.011,65.885,37.886,65.885,37.886"/>
	<path fill="#324654" d="M35.226,56.347c0,1.389-1.125,2.518-2.518,2.518c-1.389,0-2.518-1.129-2.518-2.518
		c0-1.391,1.129-2.52,2.518-2.52C34.099,53.829,35.226,54.956,35.226,56.347z"/>
	<circle fill="#324654" cx="47.115" cy="53.409" r="2.098"/>
	<path fill="#324654" d="M45.016,63.06c0,0.926-0.752,1.678-1.678,1.678c-0.928,0-1.678-0.752-1.678-1.678
		c0-0.928,0.75-1.678,1.678-1.678C44.264,61.382,45.016,62.132,45.016,63.06z"/>
	<path fill="#FFFFFF" d="M36.736,71.679c-4.904-0.99-6.803-2.604-6.803-4.424l-7.314-56.643c0-1.432,2.82-2.734,7.436-3.707
		c0.01-0.283,0.037-0.559,0.076-0.826c-7.468,0.979-12.386,2.645-12.386,4.533l7.315,56.643c0,2.35,3.146,4.354,11.846,5.119
		C36.847,72.142,36.791,71.911,36.736,71.679z"/>
	<path fill="#324654" d="M42.31,75.228c-9.447,0-21.979-0.812-22.186-7.797l-6.979-56.51c-0.013-0.102-0.019-0.205-0.019-0.309
		c0-7.396,22.335-7.973,29.181-7.973c6.846,0,29.184,0.576,29.184,7.973c0,0.113-0.008,0.229-0.021,0.342l-7.715,56.492
		C63.549,74.337,52.205,75.228,42.31,75.228z M18.24,11.067l6.9,55.879c0.012,0.104,0.018,0.205,0.018,0.311
		c0,0.027,1.277,2.936,17.152,2.936c15.967,0,16.413-2.906,16.413-2.936c0-0.115,0.01-0.23,0.023-0.344l7.627-55.852
		C64.494,9.788,56.15,7.677,42.31,7.677C28.449,7.677,20.101,9.794,18.24,11.067z"/>
	<path fill="#324654" d="M42.31,17.745c-2.902,0-28.343-0.199-28.343-7.133c0-0.928,0.751-1.678,1.679-1.678
		c0.879,0,1.602,0.676,1.672,1.539c1.006,1.432,10.031,3.914,24.992,3.914c14.961,0,23.987-2.482,24.993-3.914
		c0.07-0.863,0.793-1.539,1.674-1.539c0.926,0,1.678,0.75,1.678,1.678C70.654,17.546,45.213,17.745,42.31,17.745z"/>
	<path fill="#324654" d="M65.885,37.886c-0.824,0-1.506-0.594-1.65-1.373c-1.252-1.18-9.705-3.242-22.458-3.242
		c-12.752,0-19.875,2.053-20.9,3.166c-0.113,0.818-0.814,1.449-1.664,1.449c-0.926,0-1.678-0.752-1.678-1.68
		c0-5.99,20.193-6.293,24.242-6.293c2.639,0,25.786,0.178,25.786,6.293C67.561,37.134,66.811,37.886,65.885,37.886z"/>
	<path fill="#324654" d="M43.322,44.179c-2.641,0-25.789-0.178-25.789-6.293c0-0.928,0.752-1.68,1.678-1.68
		c0.823,0,1.509,0.592,1.649,1.373c1.252,1.18,9.707,3.242,22.459,3.242c12.75,0,19.873-2.053,20.9-3.168
		c0.109-0.816,0.812-1.447,1.662-1.447c0.928,0,1.678,0.752,1.678,1.68C67.561,43.874,47.369,44.179,43.322,44.179z"/>
</g>
</svg>
