<?xml version="1.0" encoding="utf-8"?>
<!-- Generator: Adobe Illustrator 16.0.0, SVG Export Plug-In . SVG Version: 6.00 Build 0)  -->
<!DOCTYPE svg PUBLIC "-//W3C//DTD SVG 1.1//EN" "http://www.w3.org/Graphics/SVG/1.1/DTD/svg11.dtd">
<svg version="1.1" id="Layer_1" xmlns="http://www.w3.org/2000/svg" xmlns:xlink="http://www.w3.org/1999/xlink" x="0px" y="0px"
	 width="85px" height="85px" viewBox="382.695 382.695 85 85" enable-background="new 382.695 382.695 85 85" xml:space="preserve">
<g id="Layer_2">
	<g id="Layer_1-2">
		<path fill="#FE96BD" d="M452.948,420.915c0,0-3.218,1.531,1.226-1.38c3.984-2.758,4.903-8.273,2.146-12.257
			c-0.92-1.379-2.146-2.299-3.678-2.911l-2.145-0.92l-0.153,0.153c0.919-5.669-2.911-11.031-8.58-12.104l-2.759-0.459v0.306
			c-1.226-4.137-5.669-6.281-9.652-5.056c-0.766,0.307-1.379,0.612-2.146,1.072l-2.145,1.379l-1.992-1.379
			c-3.524-2.451-8.273-1.532-10.726,1.839c-0.46,0.612-0.766,1.379-1.072,2.145v-0.459l-2.911,0.459
			c-4.137,0.92-7.508,4.138-8.427,8.274c-0.307,1.226-0.307,2.604-0.153,3.83v-0.153l-1.992,1.073
			c-4.443,1.991-6.436,7.048-4.597,11.491c0.613,1.532,1.686,2.758,3.064,3.677c4.29,3.064,1.226,1.38,1.226,1.38l-2.911,3.83
			c-2.145,2.911-2.451,6.588-0.766,9.806c0.919,1.839,2.145,3.678,3.677,5.057c-1.226,2.451-0.766,5.362,1.072,7.354
			c1.839,1.991,5.822,2.298,5.822,2.298c-2.451,2.146-2.758,5.976-0.612,8.428c1.226,1.379,3.064,2.145,5.057,1.991l2.451-0.307
			c0.766,1.227,1.686,2.452,2.758,3.371c2.604,1.992,6.282,1.992,9.04,0.153l1.992-1.379l2.145,1.379
			c2.759,1.992,6.436,1.839,9.04-0.153c1.073-0.919,1.992-2.145,2.758-3.371l3.064,0.307c3.371,0.307,6.282-2.145,6.589-5.362
			c0.153-1.839-0.46-3.678-1.839-5.057h-0.153c3.831,0.307,7.049-2.451,7.508-6.281c0.153-1.073-0.153-2.299-0.612-3.371
			c1.072-1.686,2.145-3.371,3.064-5.057c1.532-3.218,1.226-6.895-0.767-9.806L452.948,420.915z"/>
		<path d="M425.062,462.284c-0.46,0-0.767-0.307-0.767-0.767v-72.626l0,0c0-0.153,0-0.153,0.153-0.307s0.153-0.307,0.153-0.307l0,0
			l2.146-1.532c1.839-1.379,4.137-1.838,6.281-1.379c2.299,0.46,4.138,1.686,5.517,3.524c1.532,2.146,1.991,4.903,1.072,7.508
			c-0.153,0.46-0.613,0.613-0.919,0.46c-0.46-0.153-0.613-0.613-0.46-0.92c0.613-2.145,0.307-4.29-0.919-6.129
			c-1.073-1.532-2.605-2.604-4.443-2.911c-1.839-0.306-3.678,0.153-5.21,1.227l-1.686,1.226v72.319
			C425.827,461.978,425.522,462.284,425.062,462.284z"/>
		<path d="M445.9,411.415c-0.307,0-0.46-0.153-0.613-0.307c-0.306-0.307-0.153-0.766,0.153-1.072
			c1.992-1.532,3.371-3.678,3.983-6.129c0.46-2.604,0-5.21-1.532-7.508c-1.531-2.298-3.677-3.678-6.281-4.29l-2.758-0.46
			c-0.46-0.153-0.767-0.46-0.613-0.919c0-0.46,0.46-0.767,0.919-0.613l2.759,0.46c3.064,0.612,5.669,2.298,7.354,4.903
			c1.685,2.604,2.298,5.669,1.685,8.58c-0.612,2.911-2.145,5.362-4.596,7.048C446.206,411.415,446.053,411.415,445.9,411.415z"/>
		<path d="M431.65,465.195c-1.685,0-3.37-0.46-4.902-1.532l-1.992-1.379c-0.307-0.307-0.46-0.767-0.153-1.073
			s0.767-0.459,1.072-0.153l1.992,1.379c1.532,1.073,3.371,1.532,5.21,1.227c1.838-0.307,3.37-1.379,4.443-2.911
			c1.226-1.839,1.532-4.138,0.919-6.129c-0.153-0.46,0.153-0.767,0.46-0.92c0.459-0.153,0.766,0.153,0.919,0.46
			c0.767,2.451,0.46,5.362-1.072,7.508c-1.379,1.839-3.218,3.064-5.517,3.524C432.57,465.195,432.11,465.195,431.65,465.195z
			 M447.125,450.026c-0.919,0-1.686-0.153-2.604-0.46l-5.363-1.839c-0.459-0.153-0.612-0.612-0.459-0.919
			c0.153-0.46,0.612-0.613,0.919-0.46l5.516,1.992c1.379,0.46,3.064,0.46,4.443-0.153c3.064-1.379,4.597-4.903,3.218-7.968
			c-0.153-0.153-0.153-0.459,0-0.612c-1.379,0.766-2.911,1.072-4.597,1.072H445.9c-0.46,0-0.767-0.307-0.767-0.766
			c0-0.46,0.307-0.767,0.767-0.767h2.298c3.218,0,6.129-1.839,7.661-4.75c0.153-0.307,0.613-0.459,1.072-0.307
			c0.307,0.153,0.46,0.613,0.307,1.073c-0.919,1.686-2.145,3.064-3.677,3.983c0.306,0,0.459,0.153,0.612,0.46
			c1.686,3.83-0.153,8.427-3.983,10.112C449.271,449.873,448.198,450.026,447.125,450.026z M456.931,427.81
			c-0.306,0-0.612-0.153-0.766-0.46c-0.307-0.766-0.613-1.379-1.072-1.991l-2.759-3.678l-5.975,4.137
			c-0.307,0.307-0.767,0.153-1.073-0.153c-0.306-0.306-0.153-0.766,0.153-1.072l8.121-5.669c1.226-0.767,2.145-1.992,2.758-3.371
			c1.839-3.983,0-8.733-4.137-10.572l-2.146-0.919c-0.46-0.153-0.613-0.613-0.46-1.072c0.153-0.46,0.613-0.613,1.073-0.46
			l2.298,1.072c4.75,2.146,7.048,7.814,4.903,12.564c-0.767,1.532-1.839,2.911-3.218,3.983l-0.767,0.613l2.605,3.677
			c0.612,0.767,0.919,1.532,1.379,2.451c0.153,0.46,0,0.767-0.46,0.92C457.238,427.81,457.084,427.81,456.931,427.81z"/>
		<path d="M442.682,460.599c-0.153,0-0.46,0-0.613,0l-3.064-0.307c-0.459,0-0.766-0.46-0.612-0.767c0-0.459,0.46-0.766,0.766-0.612
			l3.064,0.307c1.379,0.152,2.759-0.307,3.831-1.227c1.072-0.919,1.838-2.145,1.838-3.523c0.153-1.686-0.459-3.218-1.685-4.443
			c-0.307-0.307-0.307-0.767,0-1.073c0.306-0.306,0.766-0.306,1.072,0c1.532,1.379,2.298,3.524,2.146,5.67
			c-0.153,1.838-1.073,3.37-2.452,4.597C445.746,459.985,444.214,460.599,442.682,460.599z M411.272,396.859
			c-0.307,0-0.613-0.153-0.767-0.46c-0.766-2.604-0.459-5.362,1.073-7.508c2.758-3.83,7.967-4.75,11.798-2.146l1.992,1.38
			c0.306,0.306,0.459,0.766,0.153,1.072c-0.307,0.307-0.767,0.46-1.073,0.153l-1.992-1.379c-3.218-2.146-7.508-1.379-9.652,1.686
			c-1.226,1.838-1.532,3.983-0.92,6.128c0.153,0.46-0.152,0.767-0.459,0.92C411.425,396.859,411.272,396.859,411.272,396.859z"/>
		<path d="M404.224,411.415c-0.153,0-0.307,0-0.46-0.153c-2.299-1.686-3.983-4.137-4.597-7.048
			c-1.226-6.282,2.758-12.258,9.04-13.483l2.758-0.46c0.46,0,0.767,0.153,0.919,0.613c0.153,0.459-0.152,0.766-0.612,0.919
			l-2.758,0.307c-5.363,1.072-8.887,6.436-7.661,11.798c0.46,2.451,1.839,4.597,3.983,6.129c0.307,0.307,0.46,0.766,0.153,1.072
			C404.683,411.262,404.53,411.415,404.224,411.415z"/>
		<path d="M418.626,465.195c-2.758,0-5.362-1.227-7.048-3.678c-1.532-2.146-1.992-4.903-1.073-7.508
			c0.153-0.46,0.613-0.613,0.92-0.46c0.459,0.153,0.612,0.613,0.459,0.92c-0.612,1.991-0.306,4.29,0.92,6.129
			c2.145,3.218,6.588,3.983,9.652,1.686l1.992-1.38c0.307-0.306,0.767-0.152,1.073,0.153c0.306,0.307,0.152,0.767-0.153,1.073
			l-1.992,1.379C421.997,464.582,420.312,465.195,418.626,465.195z M403.304,450.026c-1.072,0-2.298-0.307-3.218-0.767
			c-1.838-0.919-3.064-2.451-3.677-4.29c-0.613-1.839-0.46-3.83,0.307-5.669c0-0.153,0.153-0.153,0.306-0.307
			c-1.685-0.919-3.063-2.451-3.83-4.137c-0.153-0.307,0-0.767,0.307-1.072c0.307-0.153,0.766,0,1.072,0.306
			c1.532,2.911,4.443,4.75,7.661,4.75l0,0h2.298c0.46,0,0.767,0.307,0.767,0.767c0,0.459-0.307,0.766-0.767,0.766h-2.451l0,0
			c-1.379,0-2.758-0.307-3.83-0.766c0,0.153,0,0.307-0.153,0.307c-0.767,1.379-0.767,3.064-0.307,4.443
			c0.46,1.531,1.532,2.758,2.911,3.37c1.379,0.767,3.064,0.767,4.597,0.307l5.209-1.839c0.46-0.153,0.767,0,0.92,0.46
			s0,0.766-0.46,0.919l-5.209,1.839C404.99,449.873,404.224,450.026,403.304,450.026z M393.192,427.81c-0.153,0-0.153,0-0.307,0
			c-0.459-0.153-0.612-0.613-0.459-0.92c0.306-0.919,0.766-1.685,1.379-2.451l2.758-3.677l-0.767-0.46
			c-1.379-0.919-2.604-2.299-3.218-3.983c-1.072-2.299-1.072-4.903-0.306-7.354c0.919-2.452,2.758-4.291,5.056-5.363l2.146-0.919
			c0.46-0.153,0.766,0,1.072,0.459c0.153,0.46,0,0.767-0.46,1.073l-2.145,0.919c-1.992,0.92-3.371,2.451-4.137,4.443
			c-0.767,1.992-0.613,4.137,0.153,6.129c0.612,1.379,1.531,2.451,2.758,3.218l8.12,5.669c0.307,0.307,0.46,0.767,0.153,1.072
			c-0.307,0.307-0.766,0.46-1.072,0.153l-6.129-4.29l-2.758,3.678c-0.46,0.612-0.767,1.379-1.072,1.991
			C393.805,427.656,393.498,427.81,393.192,427.81z"/>
		<path d="M408.207,460.445c-3.371,0-6.282-2.605-6.589-5.976c-0.153-2.146,0.613-4.29,2.299-5.669c0.307-0.307,0.766-0.307,1.072,0
			c0.307,0.306,0.307,0.766,0,1.072c-1.532,1.226-2.146,2.758-1.992,4.443c0.307,2.758,2.759,4.903,5.67,4.597l2.451-0.307
			c0.46,0,0.766,0.307,0.766,0.613c0,0.306-0.306,0.766-0.612,0.766l-2.451,0.307C408.667,460.445,408.361,460.445,408.207,460.445z
			 M431.956,425.971L431.956,425.971c-4.29,0-7.661-3.371-7.661-7.661c0-0.459,0.307-0.766,0.767-0.766l0,0
			c0.46,0,0.766,0.307,0.766,0.766c0,3.371,2.759,6.129,6.129,6.129c0.46,0,0.767,0.307,0.767,0.767
			C432.723,425.664,432.416,425.971,431.956,425.971z M440.996,409.116c-4.29,0-7.661-3.37-7.661-7.66
			c0-0.46,0.307-0.767,0.767-0.767c0.459,0,0.766,0.307,0.766,0.767c0,3.37,2.758,6.128,6.129,6.128c0.46,0,0.767,0.307,0.767,0.767
			S441.303,409.116,440.996,409.116z"/>
		<path d="M439.157,438.841c-4.137,0-7.661-3.37-7.661-7.661c0-0.459,0.307-0.766,0.767-0.766l0,0c0.46,0,0.766,0.307,0.766,0.766
			c0,3.371,2.912,6.129,6.129,6.129l0,0c0.46,0,0.767,0.307,0.767,0.767C439.924,438.534,439.617,438.841,439.157,438.841z
			 M429.045,414.173c-0.459,0-0.766-0.307-0.766-0.766c0-0.46,0.307-0.767,0.766-0.767c3.371,0,6.129-2.758,6.129-6.129
			c0-0.459,0.307-0.766,0.767-0.766l0,0c0.459,0,0.766,0.307,0.766,0.766C436.706,410.802,433.182,414.173,429.045,414.173
			L429.045,414.173z"/>
		<path d="M431.956,451.405h-0.766c0-1.686-0.613-3.218-1.839-4.29c-1.226-1.226-2.758-1.839-4.29-1.839l0,0l0,0
			c-0.46,0-0.767-0.307-0.767-0.767c0-0.459,0.307-0.766,0.767-0.766c1.992,0,3.983,0.766,5.362,2.298
			c1.379,1.379,2.299,3.371,2.299,5.363H431.956z M435.021,437.002c-0.46,0-0.766-0.306-0.766-0.766c0-4.29,3.37-7.661,7.661-7.661
			c0.459,0,0.766,0.307,0.766,0.767c0,0.459-0.307,0.766-0.766,0.766c-3.371,0-6.129,2.758-6.129,6.129
			C435.787,436.696,435.327,437.002,435.021,437.002z M418.166,425.971c-0.46,0-0.766-0.307-0.766-0.766
			c0-0.46,0.306-0.767,0.766-0.767c3.371,0,6.129-2.758,6.129-6.129c0-0.459,0.307-0.766,0.767-0.766s0.766,0.307,0.766,0.766
			C425.827,422.446,422.456,425.971,418.166,425.971z M409.28,409.116c-0.459,0-0.766-0.306-0.766-0.766s0.307-0.767,0.766-0.767
			l0,0c1.686,0,3.218-0.612,4.29-1.838c1.227-1.226,1.839-2.758,1.839-4.29c0-0.46,0.307-0.767,0.767-0.767l0,0
			c0.459,0,0.766,0.307,0.766,0.767C416.941,405.746,413.416,409.116,409.28,409.116z"/>
		<path d="M411.118,438.841c-0.46,0-0.767-0.307-0.767-0.766c0-0.46,0.307-0.767,0.767-0.767c3.371,0,6.129-2.758,6.129-6.129
			c0-0.459,0.307-0.766,0.766-0.766c0.46,0,0.767,0.307,0.767,0.766C418.78,435.317,415.255,438.841,411.118,438.841z
			 M421.231,414.173c-4.29,0-7.661-3.371-7.661-7.661c0-0.459,0.307-0.766,0.767-0.766s0.766,0.307,0.766,0.766
			c0,3.371,2.758,6.129,6.129,6.129c0.46,0,0.767,0.307,0.767,0.767C421.997,413.866,421.691,414.173,421.231,414.173z"/>
		<path d="M418.166,452.171c-0.46,0-0.766-0.306-0.766-0.766c0-4.29,3.37-7.661,7.661-7.661c0.46,0,0.766,0.307,0.766,0.766
			c0,0.46-0.306,0.767-0.766,0.767c-3.371,0-6.129,2.758-6.129,6.129C418.933,451.865,418.626,452.171,418.166,452.171z
			 M415.255,437.002L415.255,437.002c-0.459,0-0.766-0.306-0.766-0.766c0-1.686-0.613-3.218-1.839-4.29
			c-1.226-1.226-2.758-1.839-4.29-1.839c-0.46,0-0.767-0.307-0.767-0.766c0-0.46,0.307-0.767,0.767-0.767
			c2.145,0,3.983,0.767,5.362,2.299s2.299,3.37,2.299,5.362C416.022,436.696,415.715,437.002,415.255,437.002z"/>
	</g>
</g>
</svg>
