<?xml version="1.0" encoding="utf-8"?>
<!-- Generator: Adobe Illustrator 16.0.0, SVG Export Plug-In . SVG Version: 6.00 Build 0)  -->
<!DOCTYPE svg PUBLIC "-//W3C//DTD SVG 1.1//EN" "http://www.w3.org/Graphics/SVG/1.1/DTD/svg11.dtd">
<svg version="1.1" id="Layer_1" xmlns="http://www.w3.org/2000/svg" xmlns:xlink="http://www.w3.org/1999/xlink" x="0px" y="0px"
	 width="85px" height="85px" viewBox="0 0 85 85" enable-background="new 0 0 85 85" xml:space="preserve">
<g>
	<g>
		<polygon fill="#A7C6D1" points="78.281,63.244 44.932,82.5 6.72,60.434 40.069,41.182 		"/>
		<g>
			<g>
				<path fill="#6F5447" d="M29.901,64.41l0.014,4.635c0,0.377,0.131,0.643,0.348,0.766l0.689,0.398l0.219,0.127l1.568,0.914
					c-0.031-0.018-0.053-0.045-0.078-0.064c0.215,0.184,0.549,0.197,0.922-0.02l6.439-3.721c0.658-0.377,1.189-1.295,1.186-2.051
					l-0.012-4.635c0-0.375-0.133-0.637-0.348-0.76l-1.33-0.777l-0.312-0.182l-0.83-0.482c-0.221-0.123-0.52-0.105-0.848,0.084
					l-6.439,3.721C30.428,62.742,29.897,63.66,29.901,64.41z"/>
				<path fill="#3E2F27" d="M30.938,65.135l0.014,5.074l0.219,0.127l-0.014-5.201c-0.004-0.719,0.506-1.594,1.129-1.953l6.439-3.721
					c0.092-0.053,0.426-0.229,0.791-0.236l-0.312-0.182c-0.209,0.043-0.412,0.127-0.588,0.229l-6.439,3.717
					C31.491,63.389,30.934,64.35,30.938,65.135z"/>
				<g>
					<g>
						<path fill="#3E2F27" d="M33.563,63.803c-0.656,0.379-1.188,1.297-1.186,2.051l0.014,4.633c0.002,0.754,0.535,1.061,1.191,0.68
							l6.439-3.717c0.656-0.379,1.188-1.299,1.186-2.053l-0.014-4.637c-0.002-0.752-0.537-1.055-1.193-0.676L33.563,63.803z"/>
					</g>
					<g>
						<path fill="#3E2F27" d="M33.563,63.803c-0.656,0.379-1.188,1.297-1.186,2.051l0.014,4.633c0.002,0.754,0.535,1.061,1.191,0.68
							l6.439-3.717c0.656-0.379,1.188-1.299,1.186-2.053l-0.014-4.637c-0.002-0.752-0.537-1.055-1.193-0.676L33.563,63.803z"/>
					</g>
				</g>
				<polygon fill="#FFF3ED" points="31.897,62.406 33.379,63.264 34.174,62.803 32.692,61.947 				"/>
				<polygon fill="#FFF3ED" points="36.793,59.479 38.276,60.334 39.071,59.875 37.588,59.02 				"/>
			</g>
			<g>
				<g>
					<path fill="#333333" d="M36.887,60.611c0.23,0.049,0.547-0.115,0.416-0.457c-0.271-0.439-0.869-0.729-1.244-0.557l-1.48,0.859
						l0.094,0.662l1.422-0.902c0.16-0.1,0.369-0.07,0.496,0.066L36.887,60.611z"/>
					<path fill="#333333" d="M34.579,60.457c0.184,0.109,0.279,0.59,0.043,0.697c-0.377,0.25-0.355,0.564-0.459,1.059
						c-0.182,0.283-0.574,0.152-0.574-0.047C33.713,61.418,34.073,60.627,34.579,60.457z"/>
				</g>
			</g>
		</g>
		<g>
			<polygon fill="#A7C6D1" points="35.745,2.5 6.716,19.258 6.716,60.438 40.069,41.184 40.069,7.223 			"/>
			<polygon fill="#D5E4E8" points="35.745,2.5 40.069,7.223 40.065,41.184 78.283,63.246 78.281,29.281 73.957,24.564 			"/>
			<polygon fill="#A7C6D1" points="78.281,29.281 40.069,7.223 35.745,2.5 73.957,24.564 			"/>
		</g>
		<g>
			<g>
				
					<rect x="23.289" y="17.782" transform="matrix(0.8658 0.5004 -0.5004 0.8658 12.2447 -9.8522)" fill="#333333" width="2.4" height="0.236"/>
				<path fill="#333333" d="M27.477,17.494c-0.023,0.012-0.043,0.014-0.061,0.006l-2.844-1.643l-1.051,1.82l-0.119-0.066
					l1.111-1.924c0.031-0.059,0.086-0.088,0.117-0.068l2.846,1.641l1.051-1.82l0.119,0.066l-1.111,1.926
					C27.52,17.459,27.499,17.48,27.477,17.494z"/>
				<path fill="#333333" d="M24.573,19.17c-0.021,0.014-0.043,0.016-0.059,0.006l-1.111-0.643l0.119-0.203l1.051,0.607l2.844-4.928
					c0.033-0.057,0.086-0.088,0.119-0.068l1.111,0.643l-0.119,0.205l-1.051-0.607l-2.846,4.928
					C24.616,19.135,24.594,19.156,24.573,19.17z"/>
				<path fill="#333333" d="M26.508,18.053c-0.021,0.012-0.043,0.016-0.059,0.006l-2.848-1.645l0.117-0.205l2.789,1.611l2.02-3.5
					l0.119,0.068l-2.08,3.602C26.551,18.02,26.53,18.041,26.508,18.053z"/>
				
					<rect x="26.911" y="13.179" transform="matrix(0.8674 0.4977 -0.4977 0.8674 11.5538 -11.3016)" fill="#333333" width="0.137" height="5.693"/>
				<path fill="#333333" d="M23.719,19.568L23.602,19.5l2.848-4.932c0.033-0.057,0.086-0.086,0.119-0.068l2.078,1.201l-0.117,0.205
					l-2.021-1.166L23.719,19.568z"/>
				<path fill="#333333" d="M28.329,16.908l-2.787-1.609l-2.02,3.498l-0.119-0.066l2.08-3.602c0.033-0.057,0.084-0.088,0.117-0.068
					l2.848,1.645L28.329,16.908z"/>
			</g>
			<path fill="#587074" d="M28.586,16.947l-5.125,2.959c-0.123,0.072-0.223,0.014-0.223-0.129v-3.223c0-0.143,0.1-0.314,0.223-0.387
				l5.125-2.959c0.123-0.07,0.223-0.012,0.223,0.129v3.225C28.811,16.703,28.711,16.877,28.586,16.947z M23.686,19.264l4.68-2.701
				v-2.709l-4.68,2.703V19.264z"/>
		</g>
		<g>
			<g>
				
					<rect x="23.29" y="37.778" transform="matrix(0.866 0.5001 -0.5001 0.866 22.2328 -7.1685)" fill="#333333" width="2.402" height="0.235"/>
				<path fill="#333333" d="M27.477,37.49c-0.023,0.012-0.043,0.014-0.061,0.006l-2.844-1.643l-1.051,1.822l-0.119-0.068
					l1.111-1.924c0.031-0.057,0.086-0.086,0.117-0.068l2.846,1.643l1.051-1.822l0.119,0.068l-1.111,1.924
					C27.52,37.455,27.499,37.477,27.477,37.49z"/>
				<path fill="#333333" d="M24.573,39.166c-0.021,0.012-0.043,0.016-0.059,0.006l-1.111-0.643l0.119-0.205l1.051,0.607l2.844-4.928
					c0.033-0.055,0.086-0.086,0.119-0.066l1.111,0.641l-0.119,0.205l-1.051-0.607l-2.846,4.928
					C24.616,39.131,24.594,39.152,24.573,39.166z"/>
				<path fill="#333333" d="M26.508,38.049c-0.021,0.012-0.043,0.016-0.059,0.006l-2.848-1.645l0.117-0.205l2.789,1.611l2.02-3.5
					l0.119,0.068l-2.08,3.602C26.551,38.016,26.53,38.035,26.508,38.049z"/>
				
					<rect x="26.929" y="33.2" transform="matrix(0.87 0.493 -0.493 0.87 21.281 -8.6242)" fill="#333333" width="0.135" height="5.696"/>
				<path fill="#333333" d="M23.719,39.564l-0.117-0.068l2.848-4.932c0.033-0.057,0.086-0.086,0.119-0.068l2.078,1.201l-0.117,0.205
					l-2.021-1.168L23.719,39.564z"/>
				<path fill="#333333" d="M28.329,36.904l-2.787-1.611l-2.02,3.5l-0.119-0.068l2.08-3.602c0.033-0.057,0.084-0.086,0.117-0.066
					l2.848,1.643L28.329,36.904z"/>
			</g>
			<path fill="#587074" d="M28.586,36.943l-5.125,2.959c-0.123,0.072-0.223,0.014-0.223-0.127v-3.225c0-0.141,0.1-0.314,0.223-0.385
				l5.125-2.959c0.123-0.072,0.223-0.014,0.223,0.127v3.225C28.811,36.699,28.711,36.873,28.586,36.943z M23.686,39.26l4.68-2.701
				V33.85l-4.68,2.701V39.26z"/>
		</g>
		<g>
			<polygon fill="#587074" points="13.254,60.779 11.013,59.486 11.013,53.105 13.254,54.398 			"/>
			<polygon fill="#374645" points="26.434,53.172 13.254,60.779 13.254,54.398 26.434,46.791 			"/>
		</g>
		<g>
			<polygon fill="#587074" points="45.824,79.18 43.584,77.885 43.584,71.504 45.824,72.799 			"/>
			<polygon fill="#374645" points="75.939,61.984 45.824,79.18 45.824,72.799 75.939,55.604 			"/>
		</g>
		<g>
			<path fill="#374645" d="M52.93,36.17c-0.787-0.455-1.43-1.564-1.43-2.475l0.002-10.807c0-0.91,0.641-1.279,1.428-0.824
				l15.604,9.008c0.787,0.455,1.428,1.562,1.428,2.473v10.809c0,0.908-0.641,1.277-1.43,0.824L52.93,36.17z"/>
			<path fill="#9CD9E4" d="M68.531,44.648l-15.604-9.008c-0.533-0.311-0.969-1.061-0.969-1.68V23.154
				c0-0.617,0.436-0.867,0.969-0.561l15.605,9.01c0.533,0.309,0.969,1.059,0.969,1.678v10.807
				C69.502,44.705,69.066,44.957,68.531,44.648z"/>
		</g>
		<g>
			<g>
				<path fill="#837F7D" d="M44.023,33.01c-0.912-0.338-2.138-0.277-2.931,0.184L10.728,50.812
					c-0.456,0.266-0.683,0.611-0.683,0.959c0-0.002-0.004,1.334-0.004,1.334c-0.002,0.35,0.229,0.701,0.693,0.969l7.482,4.322
					c0.922,0.529,2.41,0.529,3.324,0l30.363-17.621c0.453-0.264,0.682-0.609,0.682-0.955l0.004-1.328
					C52.592,38.492,44.25,33.094,44.023,33.01z M52.58,38.613c0.006-0.039,0.002-0.078,0.004-0.117
					C52.59,38.533,52.588,38.574,52.58,38.613z"/>
				<g>
					<path fill="#EBE3DD" d="M41.092,33.193L10.728,50.812c-0.914,0.529-0.911,1.393,0.011,1.926l7.484,4.32
						c0.922,0.531,2.408,0.529,3.322,0L51.91,39.439c0.793-0.461,0.893-1.172,0.305-1.699c-0.146-0.131-8.191-4.73-8.191-4.73
						C43.111,32.672,41.883,32.732,41.092,33.193z"/>
				</g>
				<g>
					<path fill="#587074" d="M44.029,32.037l-0.131-0.076c-0.662-0.383-1.736-0.383-2.396,0
						c-5.58,3.244-25.211,14.629-30.363,17.621c-0.329,0.189-0.493,0.439-0.492,0.691c0-0.004-0.004,1.334-0.004,1.334
						c0,0.252,0.166,0.506,0.5,0.699l7.484,4.32c0.664,0.383,1.736,0.383,2.396,0c23.882-13.869,2.998-1.717,30.361-17.621
						c0.328-0.189,0.492-0.438,0.494-0.688l0.002-1.338c-0.014-0.354-0.258-0.555-0.547-0.727l-0.584-0.338L44.029,32.037z"/>
					<g>
						<path fill="#6F6B68" d="M51.383,36.283c0.664,0.383,0.668,1.004,0.008,1.387l-10.699,6.201c-0.66,0.383-1.732,0.383-2.396,0
							l-7.484-4.32c-0.664-0.385-0.666-1.006-0.008-1.389l10.701-6.201c0.66-0.383,1.732-0.383,2.396,0L51.383,36.283z"/>
					</g>
					<g>
						<path fill="#374645" d="M51.383,36.283c0.664,0.383,0.668,1.004,0.008,1.387L21.028,55.291c-0.66,0.383-1.732,0.383-2.396,0
							l-7.483-4.322c-0.663-0.383-0.667-1.004-0.008-1.387l30.364-17.621c0.658-0.383,1.732-0.383,2.394,0L51.383,36.283z"/>
					</g>
				</g>
				<path fill="#5B5856" d="M41.315,46.723l-4.416,2.551c-0.236,0.135-0.426,0.023-0.426-0.246c0-0.273,0.189-0.604,0.426-0.74
					l4.416-2.549c0.236-0.137,0.426-0.027,0.426,0.246C41.741,46.256,41.551,46.586,41.315,46.723z"/>
				<path fill="#5B5856" d="M30.627,52.988l-4.416,2.551c-0.234,0.137-0.426,0.025-0.426-0.246s0.191-0.604,0.426-0.738l4.416-2.551
					c0.236-0.137,0.426-0.025,0.426,0.246C31.053,52.523,30.864,52.854,30.627,52.988z"/>
			</g>
			<path fill="#FFFFFF" d="M38.221,35.73l6.783,4.422c0,0,3.43-2.062,4.523-3.336c0,0,0.475-1.426,0-1.779
				c-0.479-0.354-6.189-4.158-6.755-4.016C42.204,31.164,37.866,34.047,38.221,35.73z"/>
			<g>
				<path fill="#FBC8B4" d="M33.045,54.051l0.365,1.562c0,0,0.268,0.426,0,0.854c-0.268,0.426-0.117,0.896,0.119,1.006
					c0.236,0.107,0.543,0.404,0.631,0.59s0.393,0.447,0.6,0.514c0.209,0.066,0.416,0.295,0.984,0.371s1.18-0.109,1.016-0.447
					c-0.164-0.34-0.393-0.59-0.711-0.787c-0.316-0.195-0.988-1.061-1.133-1.334c-0.145-0.271-0.436-0.992-0.436-0.992l-0.553-1.334
					h-0.883V54.051z"/>
				<path fill="#2AAAE2" d="M33.938,47.826c-0.35,0.051-0.682,0.127-0.977,0.209c0.061,0.074,0.113,0.148,0.162,0.221
					c0.404,0.615,0.391,1.168,0.404,1.639c0.016,0.621,0.955,5.49,0.955,5.49c-0.246,0.273-0.492,0.348-0.689,0.344
					c-0.186-0.004-0.326-0.076-0.381-0.113c-0.463-1.078-0.568-1.312-1.131-2.311c-1.312-2.312-0.838-4.051-0.838-4.051
					s-3.883-1.246-5.49-2.723c-1.221-1.119-1.043-2.861-0.885-3.637c0.051-0.246,0.098-0.396,0.098-0.396
					c1.279,0.559,4.736-0.408,4.736-0.408c0.178,0.639,0.443,0.818,0.443,0.818c0.346,0.016,0.898,0.096,1.545,0.225
					c0.383,0.076,0.799,0.172,1.225,0.281c1.545,0.396,3.221,0.99,3.918,1.652c0.127,0.121,0.221,0.242,0.279,0.367
					C37.903,46.746,35.083,47.664,33.938,47.826z"/>
				<g>
					<polygon fill="#1A1A1A" points="36.292,44.486 30.627,47.732 27.083,45.699 27.083,45.527 32.745,42.455 					"/>
					<polygon fill="#4E4E4E" points="36.292,44.314 30.627,47.561 27.083,45.527 32.745,42.281 					"/>
					<g>
						<polygon fill="#989898" points="35.456,44.447 35.09,44.656 34.815,44.498 35.176,44.289 						"/>
						<polygon fill="#989898" points="35.032,44.689 34.668,44.898 34.391,44.74 34.754,44.531 						"/>
						<polygon fill="#989898" points="34.61,44.934 34.245,45.141 33.967,44.982 34.331,44.773 						"/>
						<polygon fill="#989898" points="34.186,45.174 33.823,45.383 33.545,45.225 33.909,45.018 						"/>
						<polygon fill="#989898" points="33.762,45.418 33.399,45.625 33.122,45.467 33.485,45.258 						"/>
						<polygon fill="#989898" points="33.34,45.66 32.977,45.867 32.7,45.709 33.063,45.5 						"/>
						<polygon fill="#989898" points="32.917,45.902 32.553,46.109 32.276,45.951 32.639,45.744 						"/>
						<polygon fill="#989898" points="32.495,46.145 32.129,46.354 31.854,46.193 32.215,45.984 						"/>
						<polygon fill="#989898" points="32.071,46.389 31.708,46.596 31.43,46.438 31.793,46.229 						"/>
						<polygon fill="#989898" points="31.649,46.629 31.286,46.838 31.006,46.678 31.372,46.471 						"/>
						<polygon fill="#989898" points="31.225,46.871 30.862,47.08 30.584,46.92 30.948,46.713 						"/>
						<polygon fill="#989898" points="34.958,44.162 34.594,44.371 34.317,44.213 34.68,44.004 						"/>
						<polygon fill="#989898" points="34.534,44.404 34.17,44.613 33.893,44.455 34.256,44.246 						"/>
						<polygon fill="#989898" points="34.112,44.648 33.749,44.857 33.469,44.697 33.834,44.488 						"/>
						<polygon fill="#989898" points="33.69,44.891 33.325,45.1 33.047,44.939 33.411,44.732 						"/>
						<polygon fill="#989898" points="33.266,45.133 32.903,45.34 32.624,45.182 32.989,44.975 						"/>
						<polygon fill="#989898" points="32.842,45.375 32.479,45.584 32.202,45.424 32.565,45.215 						"/>
						<polygon fill="#989898" points="32.42,45.617 32.057,45.824 31.778,45.666 32.143,45.457 						"/>
						<polygon fill="#989898" points="31.997,45.859 31.633,46.068 31.356,45.908 31.719,45.701 						"/>
						<polygon fill="#989898" points="31.573,46.102 31.209,46.311 30.934,46.15 31.295,45.943 						"/>
						<polygon fill="#989898" points="31.151,46.344 30.788,46.553 30.508,46.395 30.874,46.186 						"/>
						<polygon fill="#989898" points="30.729,46.586 30.364,46.795 30.086,46.637 30.45,46.428 						"/>
						<polygon fill="#989898" points="34.639,43.982 34.276,44.189 33.999,44.029 34.362,43.822 						"/>
						<polygon fill="#989898" points="34.215,44.223 33.854,44.432 33.575,44.273 33.94,44.064 						"/>
						<polygon fill="#989898" points="33.793,44.465 33.43,44.674 33.153,44.516 33.516,44.307 						"/>
						<polygon fill="#989898" points="33.37,44.707 33.006,44.916 32.731,44.758 33.092,44.549 						"/>
						<polygon fill="#989898" points="32.948,44.949 32.584,45.158 32.307,45 32.67,44.791 						"/>
						<polygon fill="#989898" points="32.524,45.191 32.161,45.4 31.883,45.242 32.247,45.033 						"/>
						<polygon fill="#989898" points="32.102,45.436 31.739,45.645 31.461,45.484 31.825,45.275 						"/>
						<polygon fill="#989898" points="31.678,45.678 31.315,45.885 31.038,45.729 31.401,45.52 						"/>
						<polygon fill="#989898" points="31.254,45.92 30.893,46.127 30.616,45.969 30.979,45.76 						"/>
						<polygon fill="#989898" points="30.833,46.162 30.469,46.371 30.192,46.211 30.555,46.002 						"/>
						<polygon fill="#989898" points="34.321,43.799 33.958,44.006 33.68,43.85 34.043,43.641 						"/>
						<polygon fill="#989898" points="33.899,44.041 33.536,44.248 33.256,44.09 33.622,43.881 						"/>
						<polygon fill="#989898" points="33.475,44.283 33.112,44.492 32.834,44.332 33.198,44.125 						"/>
						<polygon fill="#989898" points="33.051,44.525 32.69,44.734 32.413,44.574 32.776,44.367 						"/>
						<polygon fill="#989898" points="32.629,44.77 32.266,44.977 31.989,44.816 32.352,44.609 						"/>
						<polygon fill="#989898" points="32.206,45.01 31.842,45.219 31.565,45.061 31.928,44.852 						"/>
						<polygon fill="#989898" points="31.784,45.252 31.42,45.461 31.143,45.301 31.506,45.094 						"/>
						<polygon fill="#989898" points="31.36,45.494 30.997,45.703 30.719,45.545 31.083,45.336 						"/>
						<polygon fill="#989898" points="30.938,45.738 30.575,45.945 30.295,45.787 30.661,45.578 						"/>
						<polygon fill="#989898" points="30.411,46.404 30.09,46.223 30.514,45.98 30.237,45.82 29.815,46.064 29.708,46.123 
							29.452,46.271 29.688,46.406 29.729,46.432 30.045,46.613 						"/>
						<polygon fill="#989898" points="33.469,43.922 33.581,43.859 34.002,43.615 33.727,43.457 33.303,43.699 33.192,43.764 
							32.94,43.908 33.217,44.066 						"/>
						<polygon fill="#989898" points="33.157,44.102 32.793,44.311 32.516,44.15 32.879,43.941 						"/>
						<polygon fill="#989898" points="32.735,44.344 32.372,44.551 32.092,44.393 32.458,44.186 						"/>
						<polygon fill="#989898" points="32.313,44.586 31.948,44.793 31.67,44.635 32.034,44.426 						"/>
						<polygon fill="#989898" points="31.887,44.828 31.524,45.037 31.249,44.877 31.612,44.668 						"/>
						<polygon fill="#989898" points="31.465,45.07 31.102,45.279 30.825,45.119 31.188,44.912 						"/>
						<polygon fill="#989898" points="31.043,45.314 30.678,45.521 30.401,45.361 30.766,45.154 						"/>
						<polygon fill="#989898" points="30.62,45.557 30.256,45.764 29.979,45.605 30.342,45.396 						"/>
						<polygon fill="#989898" points="29.833,46.006 29.895,45.971 30.198,45.797 29.918,45.639 29.618,45.812 29.557,45.848 
							29.131,46.09 29.411,46.248 						"/>
						<polygon fill="#989898" points="33.686,43.436 33.323,43.643 33.045,43.482 33.409,43.275 						"/>
						<polygon fill="#989898" points="33.262,43.676 32.899,43.885 32.622,43.727 32.985,43.518 						"/>
						<polygon fill="#989898" points="32.838,43.918 32.477,44.127 32.198,43.967 32.563,43.76 						"/>
						<polygon fill="#989898" points="30.543,45.234 30.725,45.131 30.784,45.098 31.147,44.889 31.208,44.855 31.571,44.646 
							31.629,44.611 31.993,44.404 32.417,44.16 32.139,44.002 31.715,44.244 31.352,44.453 31.293,44.486 30.928,44.695 
							30.87,44.73 30.506,44.938 30.448,44.973 30.266,45.076 30.084,45.182 30.362,45.338 						"/>
						<polygon fill="#989898" points="30.301,45.373 29.938,45.58 29.661,45.422 30.024,45.213 						"/>
						<polygon fill="#989898" points="29.877,45.615 29.516,45.824 29.237,45.664 29.602,45.457 						"/>
						<polygon fill="#989898" points="29.456,45.857 29.092,46.066 28.815,45.906 29.178,45.699 						"/>
					</g>
					<polygon fill="#333333" points="31.661,44.021 30.118,44.906 29.331,44.455 30.874,43.57 					"/>
					<polygon fill="#1A1A1A" points="38.047,40.814 32.385,44.061 30.62,47.564 36.282,44.318 38.157,40.939 					"/>
					<polygon fill="#4E4E4E" points="38.157,40.939 32.495,44.186 30.729,47.689 36.391,44.443 					"/>
				</g>
				<path fill="#FBC8B4" d="M27.338,33.953c0.49,0.492,0.893,1.332,0.996,2.273v1.268c0,0,1.174,1.945,1.33,2.164
					c0.158,0.219,0.346,1.289,0.744,1.836c0.398,0.545,0.816,1.355,0.816,1.355l0.664-0.076c0,0-0.643-3.051-1.17-3.814
					c-0.525-0.766-1.314-2.922-1.443-3.322C28.995,34.762,28.366,33.932,27.338,33.953z"/>
				<path fill="#FBC8B4" d="M27.877,44.145c0,0,0.723,0.16,1.031,0.434c0.006,0.006,0.014,0.012,0.021,0.02
					c0.189,0.162,0.537,0.338,0.666,0.453c0.055,0.051,0.039,0.094,0.006,0.123l0.268,0.17l0.389,0.297
					c0.232,0.15,0.113,0.26-0.051,0.195l0.146,0.1c0.188,0.125,0.094,0.254-0.094,0.186l-0.48-0.244l0.242,0.191
					c0.172,0.121,0.086,0.285-0.133,0.162l-0.58-0.336l-0.256-0.104l0.303,0.26c0.172,0.146,0.057,0.248-0.111,0.141l-0.412-0.268
					c0,0-0.377-0.168-0.51-0.277s-0.574-0.574-0.637-0.742c-0.064-0.168-0.248-0.324-0.248-0.324l-0.449-0.691
					C26.987,43.904,27.877,44.145,27.877,44.145z"/>
				<path fill="#FBC8B4" d="M32.772,43.248c-0.246-0.23-1.062-0.709-1.062-0.709s-0.627-0.549-0.65-0.543l-0.006,0.391
					c0,0,0.195,0.6,0.266,0.736c0.068,0.139,0.186,0.287,0.189,0.385c0.012,0.176-0.02,0.314-0.02,0.314
					c-0.037,0.17,0.061,0.221,0.199,0.092c0.043-0.029,0.068-0.145,0.078-0.275c0.008-0.131,0.076-0.197,0.076-0.197
					c0.086,0.113,0.68,0.318,0.68,0.318l0.064,0.186l0.568-0.326C33.079,43.543,32.936,43.402,32.772,43.248z"/>
				<path fill="#FFFFFF" d="M30.086,42.566c-2.457,1.938-5.129,1.002-5.129,1.002l0.209-1.068c0.021-1.125-0.738-2.197-1.23-3.148
					c-0.035-0.068-0.07-0.143-0.105-0.225c-0.443-1.031-0.805-2.922-0.805-2.922c2.051-2.688,4.312-2.252,4.312-2.252
					c0.598,0.475,0.838,1.262,0.936,1.773c0.062,0.342,0.213,0.658,0.434,0.926c0.184,0.223,0.4,0.527,0.623,0.98
					c0.408,0.834-0.516,1.377-0.516,1.377c-0.023,0.328,0.424,1.932,0.424,1.932C29.77,41.479,30.086,42.566,30.086,42.566z"/>
				<path fill="#FBC8B4" d="M23.024,36.205c0,0-1.004,1.355-0.633,2.514s0.852,3.281,0.895,3.564s0.088,0.887,0.656,1.176
					c0.568,0.287,3.781,1.447,3.781,1.447l0.283-0.721c0,0-2.775-1.703-3.299-1.902c0,0-0.57-3.258-0.525-3.498
					C24.227,38.543,23.741,36.041,23.024,36.205z"/>
				<path fill="#FBC8B4" d="M24.444,35.4c0,0,2.357,1.82,2.639,2.459c0,0,0.059-2.623-0.527-3.705L24.444,35.4z"/>
				<path fill="#FBC8B4" d="M24.858,35.422c0,0,0.938,0.73,1.549,0.711c0,0,0.396-0.07,0.568-0.432l0.258-0.559
					c0,0,0.525-0.848,0.398-1.496c-0.125-0.65-0.703-2.064-1.838-1.92s-1.918,0.82-1.566,2.289S24.858,35.422,24.858,35.422z"/>
				<path fill="#010101" d="M25.209,36.566c0.025,0.008-0.027-0.666,0.631-0.883s1.541-1.447,1.559-2.08c0,0,0.215,0.115,0.232,0.5
					c0,0,0.461-0.447,0.191-1.158c-0.271-0.713-0.895-1.793-1.926-1.775s-1.912,0.613-2.193,1.641
					c-0.279,1.025-0.107,2.152,0.182,2.666C24.172,35.99,24.624,36.387,25.209,36.566z"/>
				<path fill="#FBC8B4" d="M32.243,48.287c-0.48,0.254-0.65,0.398-0.783,0.654c-0.131,0.26,0.121,0.684,0.328,1.021
					c0.209,0.338,0.416,0.83,0.395,1.018c-0.002,0.016-0.008,0.029-0.014,0.045c-0.066,0.15-0.377,0.201-0.686,0.146
					c-0.338-0.059-0.547-0.346-0.547-0.346s-0.1-0.121-0.361-0.318c-0.262-0.195-0.48-0.982-0.59-1.168s-0.469-0.326-0.666-0.732
					c-0.039-0.08-0.051-0.16-0.039-0.238c0.047-0.305,0.467-0.555,0.957-0.582c0.611-0.031,1.289-0.469,1.289-0.469
					C32.094,47.014,32.696,48.16,32.243,48.287z"/>
			</g>
		</g>
		<g>
			<path fill="#837F7D" d="M44.023,12.084c-0.912-0.338-2.138-0.277-2.931,0.184L10.728,29.889
				c-0.456,0.264-0.683,0.609-0.683,0.957c0-0.004-0.004,1.334-0.004,1.334c-0.002,0.352,0.229,0.701,0.693,0.969l7.482,4.322
				c0.922,0.531,2.41,0.529,3.324,0L51.904,19.85c0.453-0.264,0.682-0.609,0.682-0.955l0.004-1.328
				C52.592,17.566,44.25,12.17,44.023,12.084z M52.58,17.689c0.006-0.039,0.002-0.078,0.004-0.117
				C52.59,17.607,52.588,17.648,52.58,17.689z"/>
			<g>
				<path fill="#EBE3DD" d="M41.092,12.268L10.728,29.889c-0.914,0.529-0.911,1.393,0.011,1.924l7.484,4.32
					c0.922,0.533,2.408,0.531,3.322,0L51.91,18.516c0.793-0.461,0.893-1.174,0.305-1.699c-0.146-0.131-8.191-4.73-8.191-4.73
					C43.111,11.746,41.883,11.807,41.092,12.268z"/>
			</g>
			<g>
				<path fill="#374645" d="M44.029,11.111l-0.131-0.074c-0.662-0.383-1.736-0.383-2.396,0c-5.58,3.242-25.211,14.627-30.363,17.619
					c-0.329,0.191-0.493,0.441-0.492,0.691c0-0.002-0.004,1.334-0.004,1.334c0,0.254,0.166,0.506,0.5,0.699l7.484,4.32
					c0.664,0.383,1.736,0.383,2.396,0c23.882-13.869,2.998-1.717,30.361-17.619c0.328-0.189,0.492-0.439,0.494-0.689l0.002-1.336
					c-0.014-0.354-0.258-0.557-0.547-0.729l-0.584-0.336L44.029,11.111z"/>
				<g>
					<path fill="#6F6B68" d="M51.383,15.357c0.664,0.383,0.668,1.004,0.008,1.389l-10.699,6.201c-0.66,0.383-1.732,0.383-2.396,0
						l-7.484-4.322c-0.664-0.383-0.666-1.004-0.008-1.387l10.701-6.201c0.66-0.383,1.732-0.383,2.396,0L51.383,15.357z"/>
				</g>
				<g>
					<path fill="#587074" d="M51.383,15.357c0.664,0.383,0.668,1.004,0.008,1.389L21.028,34.365c-0.66,0.383-1.732,0.383-2.396,0
						l-7.483-4.32c-0.663-0.383-0.667-1.006-0.008-1.389l30.364-17.619c0.66-0.383,1.732-0.383,2.396,0L51.383,15.357z"/>
				</g>
			</g>
			<path fill="#5B5856" d="M41.315,25.797l-4.416,2.551c-0.236,0.135-0.426,0.023-0.426-0.246c0-0.273,0.189-0.604,0.426-0.74
				l4.416-2.549c0.236-0.137,0.426-0.027,0.426,0.246C41.741,25.33,41.551,25.66,41.315,25.797z"/>
			<path fill="#5B5856" d="M30.627,32.064l-4.416,2.549c-0.234,0.137-0.426,0.027-0.426-0.246c0-0.271,0.191-0.602,0.426-0.738
				l4.416-2.551c0.236-0.135,0.426-0.025,0.426,0.246C31.053,31.598,30.864,31.928,30.627,32.064z"/>
		</g>
		<path fill="#FFFFFF" d="M39.28,14.025l6.396,4.039c0,0,2.758-0.898,3.852-2.174c0,0,0.475-1.426,0-1.779
			c-0.477-0.354-6.188-4.158-6.753-4.016C42.204,10.238,38.922,12.344,39.28,14.025z"/>
		<polygon fill="#374645" points="12.298,39.865 11.013,39.123 11.013,32.742 17.225,36.328 		"/>
		<g>
			<g>
				<path fill="#837F7D" d="M69.533,47.738c-0.912-0.338-2.139-0.279-2.932,0.182L36.237,65.539
					c-0.455,0.266-0.684,0.613-0.682,0.959c0-0.002-0.004,1.334-0.004,1.334c-0.002,0.352,0.23,0.701,0.693,0.969l7.484,4.322
					c0.922,0.531,2.41,0.529,3.324,0l30.363-17.621c0.453-0.264,0.68-0.607,0.682-0.955l0.004-1.326
					C78.102,53.221,69.758,47.822,69.533,47.738z M78.09,53.342c0.006-0.039,0.002-0.078,0.004-0.117
					C78.1,53.26,78.096,53.301,78.09,53.342z"/>
				<g>
					<path fill="#EBE3DD" d="M66.602,47.92L36.239,65.539c-0.914,0.531-0.912,1.395,0.01,1.926l7.484,4.32
						c0.922,0.533,2.41,0.531,3.322,0L77.42,54.166c0.793-0.461,0.893-1.172,0.305-1.699c-0.146-0.129-8.191-4.729-8.191-4.729
						C68.621,47.4,67.395,47.459,66.602,47.92z"/>
				</g>
				<g>
					<path fill="#587074" d="M69.539,46.766l-0.131-0.076c-0.664-0.383-1.736-0.383-2.396,0
						c-5.578,3.244-25.21,14.629-30.363,17.621C36.321,64.5,36.157,64.75,36.157,65c0-0.002-0.004,1.336-0.004,1.336
						c0,0.252,0.166,0.504,0.5,0.697l7.484,4.322c0.664,0.383,1.736,0.383,2.396,0c23.883-13.869,2.998-1.717,30.363-17.621
						c0.328-0.189,0.49-0.439,0.49-0.688l0.006-1.338c-0.016-0.354-0.26-0.555-0.551-0.727l-0.584-0.338L69.539,46.766z"/>
					<g>
						<path fill="#6F6B68" d="M76.893,51.012c0.664,0.383,0.668,1.004,0.008,1.387L66.199,58.6c-0.658,0.383-1.732,0.383-2.396,0
							l-7.482-4.32c-0.664-0.385-0.666-1.006-0.008-1.389l10.699-6.201c0.66-0.383,1.732-0.383,2.396,0L76.893,51.012z"/>
					</g>
					<g>
						<path fill="#374645" d="M76.893,51.012c0.664,0.383,0.668,1.004,0.008,1.387L46.537,70.02c-0.66,0.383-1.73,0.383-2.395,0
							l-7.484-4.322c-0.664-0.383-0.668-1.004-0.008-1.387l30.361-17.621c0.66-0.383,1.732-0.383,2.396,0L76.893,51.012z"/>
					</g>
				</g>
			</g>
			<path fill="#FFFFFF" d="M63.73,50.457l6.783,4.424c0,0,3.43-2.062,4.523-3.338c0,0,0.475-1.426,0-1.777
				c-0.477-0.355-6.188-4.158-6.756-4.018C67.713,45.891,63.375,48.775,63.73,50.457z"/>
		</g>
		<g>
			<g>
				<path fill="#64CAF3" d="M21.424,53.994l3.18-2.125c0.26-0.172,0.389-0.391,0.387-0.609l0.002-0.699v-0.225l0.006-1.598
					c0,0.033-0.01,0.061-0.014,0.09c0.041-0.246-0.082-0.504-0.379-0.686l-6.08-3.785c-0.521-0.322-1.363-0.303-1.881,0.045
					l-3.178,2.125c-0.258,0.17-0.385,0.389-0.385,0.605l-0.006,1.357v0.316l-0.002,0.844c0.002,0.223,0.133,0.438,0.393,0.6
					l6.082,3.785C20.069,54.359,20.911,54.34,21.424,53.994z"/>
				<path fill="#28383E" d="M13.467,49.146c-0.141-0.086-0.277-0.199-0.391-0.338v-0.316c0.15,0.27,0.404,0.439,0.477,0.486
					l5.115,3.189v0.227L13.467,49.146z"/>
				<g>
					<g>
						<path fill="#28383E" d="M19.555,51.52c0.521,0.318,1.361,0.301,1.879-0.045l3.178-2.125c0.516-0.346,0.514-0.887-0.006-1.207
							l-6.08-3.785c-0.521-0.322-1.363-0.301-1.879,0.045l-3.18,2.125c-0.518,0.346-0.512,0.885,0.01,1.205L19.555,51.52z"/>
					</g>
					<g>
						<path fill="#2AAAE2" d="M19.555,51.52c0.521,0.318,1.361,0.301,1.879-0.045l3.178-2.125c0.516-0.346,0.514-0.887-0.006-1.207
							l-6.08-3.785c-0.521-0.322-1.363-0.301-1.879,0.045l-3.18,2.125c-0.518,0.346-0.512,0.885,0.01,1.205L19.555,51.52z"/>
					</g>
				</g>
			</g>
			<g>
				<g>
					<g>
						<g>
							<path fill="#47636F" d="M21.813,54.449l0.199-0.135c0.07-0.047,0.115-0.145,0.115-0.281c0-0.279-0.174-0.611-0.393-0.746
								c-0.109-0.066-0.207-0.072-0.279-0.021l-0.201,0.133c0.072-0.047,0.17-0.043,0.279,0.023
								c0.219,0.135,0.395,0.469,0.393,0.744C21.926,54.305,21.881,54.402,21.813,54.449z"/>
						</g>
						<g>
							<path fill="#47636F" d="M21.532,54.426c0.217,0.135,0.395,0.02,0.395-0.26c0-0.275-0.176-0.609-0.393-0.744
								c-0.219-0.135-0.396-0.02-0.396,0.26C21.137,53.959,21.315,54.291,21.532,54.426z"/>
						</g>
					</g>
					<g>
						<g>
							<g>
								<path fill="#010101" d="M21.813,54.449l0.199-0.135c0.07-0.047,0.115-0.145,0.115-0.281c0-0.279-0.174-0.611-0.393-0.746
									c-0.109-0.066-0.207-0.072-0.279-0.021l-0.201,0.133c0.072-0.047,0.17-0.043,0.279,0.023
									c0.219,0.135,0.395,0.469,0.393,0.744C21.926,54.305,21.881,54.402,21.813,54.449z"/>
							</g>
							<g>
								<path fill="#4E4E4E" d="M21.532,54.426c0.217,0.135,0.395,0.02,0.395-0.26c0-0.275-0.176-0.609-0.393-0.744
									c-0.219-0.135-0.396-0.02-0.396,0.26C21.137,53.959,21.315,54.291,21.532,54.426z"/>
							</g>
						</g>
					</g>
				</g>
				<g>
					<g>
						<path fill="#010101" d="M21.532,54.168c0.105,0.064,0.191,0.008,0.193-0.127c0-0.135-0.086-0.297-0.191-0.361
							s-0.191-0.008-0.191,0.127C21.34,53.939,21.426,54.104,21.532,54.168z"/>
					</g>
					<g>
						<path fill="#010101" d="M21.532,54.168c0.105,0.064,0.191,0.008,0.193-0.127c0-0.135-0.086-0.297-0.191-0.361
							s-0.191-0.008-0.191,0.127C21.34,53.939,21.426,54.104,21.532,54.168z"/>
					</g>
				</g>
			</g>
			<g>
				<g>
					<g>
						<g>
							<path fill="#47636F" d="M24.87,52.418l0.199-0.133c0.072-0.047,0.115-0.145,0.115-0.283c0-0.277-0.176-0.609-0.393-0.744
								c-0.109-0.066-0.209-0.072-0.281-0.023l-0.199,0.133c0.07-0.047,0.17-0.043,0.279,0.025c0.219,0.135,0.395,0.467,0.395,0.742
								C24.983,52.273,24.94,52.371,24.87,52.418z"/>
						</g>
						<g>
							<path fill="#47636F" d="M24.588,52.396c0.217,0.133,0.395,0.018,0.396-0.262c0-0.275-0.176-0.607-0.395-0.742
								c-0.217-0.135-0.393-0.02-0.395,0.258C24.196,51.928,24.37,52.26,24.588,52.396z"/>
						</g>
					</g>
					<g>
						<g>
							<g>
								<path fill="#010101" d="M24.87,52.418l0.199-0.133c0.072-0.047,0.115-0.145,0.115-0.283c0-0.277-0.176-0.609-0.393-0.744
									c-0.109-0.066-0.209-0.072-0.281-0.023l-0.199,0.133c0.07-0.047,0.17-0.043,0.279,0.025
									c0.219,0.135,0.395,0.467,0.395,0.742C24.983,52.273,24.94,52.371,24.87,52.418z"/>
							</g>
							<g>
								<path fill="#4E4E4E" d="M24.588,52.396c0.217,0.133,0.395,0.018,0.396-0.262c0-0.275-0.176-0.607-0.395-0.742
									c-0.217-0.135-0.393-0.02-0.395,0.258C24.196,51.928,24.37,52.26,24.588,52.396z"/>
							</g>
						</g>
					</g>
				</g>
				<g>
					<g>
						<path fill="#010101" d="M24.588,52.139c0.107,0.062,0.191,0.008,0.191-0.127s-0.084-0.297-0.189-0.361
							s-0.191-0.01-0.191,0.125S24.483,52.072,24.588,52.139z"/>
					</g>
					<g>
						<path fill="#010101" d="M24.588,52.139c0.107,0.062,0.191,0.008,0.191-0.127s-0.084-0.297-0.189-0.361
							s-0.191-0.01-0.191,0.125S24.483,52.072,24.588,52.139z"/>
					</g>
				</g>
			</g>
			<polygon fill="#28383E" points="18.67,53.473 18.67,50.994 18.481,50.877 18.481,53.355 			"/>
		</g>
		<g>
			<g>
				<polygon fill="#1A1A1A" points="49.457,56.727 55.279,60.469 59.146,58.508 59.156,58.324 53.322,54.766 				"/>
				<polygon fill="#4E4E4E" points="49.465,56.543 55.289,60.285 59.156,58.324 53.332,54.58 				"/>
				<g>
					<polygon fill="#989898" points="50.344,56.73 50.719,56.969 51.021,56.814 50.646,56.574 					"/>
					<polygon fill="#989898" points="50.779,57.008 51.154,57.248 51.455,57.096 51.082,56.855 					"/>
					<polygon fill="#989898" points="51.215,57.289 51.588,57.527 51.891,57.375 51.518,57.135 					"/>
					<polygon fill="#989898" points="51.65,57.568 52.023,57.809 52.326,57.654 51.953,57.414 					"/>
					<polygon fill="#989898" points="52.084,57.848 52.459,58.088 52.762,57.936 52.387,57.693 					"/>
					<polygon fill="#989898" points="52.52,58.127 52.895,58.367 53.195,58.213 52.822,57.975 					"/>
					<polygon fill="#989898" points="52.955,58.406 53.328,58.648 53.631,58.494 53.258,58.252 					"/>
					<polygon fill="#989898" points="53.391,58.688 53.764,58.926 54.066,58.773 53.691,58.533 					"/>
					<polygon fill="#989898" points="53.824,58.965 54.199,59.205 54.502,59.053 54.127,58.812 					"/>
					<polygon fill="#989898" points="54.26,59.246 54.635,59.486 54.936,59.332 54.562,59.092 					"/>
					<polygon fill="#989898" points="54.695,59.525 55.068,59.766 55.371,59.611 54.998,59.371 					"/>
					<polygon fill="#989898" points="50.887,56.453 51.26,56.693 51.562,56.541 51.189,56.301 					"/>
					<polygon fill="#989898" points="51.322,56.732 51.695,56.975 51.998,56.82 51.625,56.58 					"/>
					<polygon fill="#989898" points="51.758,57.014 52.131,57.252 52.434,57.102 52.059,56.859 					"/>
					<polygon fill="#989898" points="52.191,57.293 52.566,57.533 52.869,57.379 52.494,57.139 					"/>
					<polygon fill="#989898" points="52.627,57.572 53.002,57.812 53.303,57.658 52.93,57.418 					"/>
					<polygon fill="#989898" points="53.062,57.852 53.436,58.092 53.738,57.939 53.365,57.697 					"/>
					<polygon fill="#989898" points="53.496,58.131 53.871,58.371 54.174,58.219 53.799,57.979 					"/>
					<polygon fill="#989898" points="53.932,58.41 54.307,58.65 54.609,58.498 54.234,58.258 					"/>
					<polygon fill="#989898" points="54.367,58.689 54.74,58.932 55.043,58.777 54.67,58.537 					"/>
					<polygon fill="#989898" points="54.803,58.971 55.176,59.211 55.479,59.059 55.105,58.816 					"/>
					<polygon fill="#989898" points="55.236,59.25 55.611,59.49 55.914,59.336 55.539,59.098 					"/>
					<polygon fill="#989898" points="51.234,56.277 51.607,56.52 51.91,56.365 51.535,56.125 					"/>
					<polygon fill="#989898" points="51.668,56.559 52.043,56.797 52.346,56.645 51.971,56.404 					"/>
					<polygon fill="#989898" points="52.104,56.838 52.479,57.078 52.779,56.924 52.406,56.684 					"/>
					<polygon fill="#989898" points="52.539,57.117 52.912,57.357 53.215,57.203 52.842,56.963 					"/>
					<polygon fill="#989898" points="52.975,57.396 53.348,57.637 53.65,57.482 53.277,57.242 					"/>
					<polygon fill="#989898" points="53.408,57.676 53.783,57.916 54.086,57.764 53.711,57.523 					"/>
					<polygon fill="#989898" points="53.844,57.955 54.217,58.195 54.52,58.043 54.146,57.803 					"/>
					<polygon fill="#989898" points="54.279,58.234 54.652,58.477 54.955,58.322 54.582,58.082 					"/>
					<polygon fill="#989898" points="54.713,58.516 55.088,58.754 55.391,58.602 55.016,58.361 					"/>
					<polygon fill="#989898" points="55.148,58.795 55.523,59.035 55.824,58.881 55.451,58.641 					"/>
					<polygon fill="#989898" points="51.58,56.102 51.955,56.342 52.258,56.189 51.883,55.949 					"/>
					<polygon fill="#989898" points="52.016,56.381 52.389,56.621 52.691,56.469 52.318,56.229 					"/>
					<polygon fill="#989898" points="52.451,56.662 52.824,56.9 53.127,56.748 52.752,56.508 					"/>
					<polygon fill="#989898" points="52.885,56.941 53.26,57.182 53.562,57.027 53.188,56.787 					"/>
					<polygon fill="#989898" points="53.32,57.221 53.695,57.461 53.996,57.309 53.623,57.066 					"/>
					<polygon fill="#989898" points="53.756,57.5 54.129,57.74 54.432,57.586 54.059,57.348 					"/>
					<polygon fill="#989898" points="54.191,57.779 54.564,58.021 54.867,57.867 54.492,57.625 					"/>
					<polygon fill="#989898" points="54.625,58.061 55,58.299 55.303,58.146 54.928,57.906 					"/>
					<polygon fill="#989898" points="55.061,58.338 55.436,58.578 55.736,58.426 55.363,58.186 					"/>
					<polygon fill="#989898" points="55.584,59.074 55.93,58.898 55.496,58.619 55.799,58.465 56.232,58.744 56.342,58.814 
						56.607,58.984 56.35,59.115 56.305,59.139 55.957,59.314 					"/>
					<polygon fill="#989898" points="52.477,56.279 52.361,56.205 51.928,55.926 52.23,55.773 52.664,56.053 52.779,56.125 
						53.039,56.293 52.736,56.445 					"/>
					<polygon fill="#989898" points="52.797,56.484 53.172,56.727 53.473,56.572 53.1,56.332 					"/>
					<polygon fill="#989898" points="53.232,56.766 53.605,57.006 53.908,56.852 53.535,56.611 					"/>
					<polygon fill="#989898" points="53.668,57.045 54.041,57.285 54.344,57.131 53.969,56.893 					"/>
					<polygon fill="#989898" points="54.102,57.324 54.477,57.564 54.779,57.41 54.404,57.17 					"/>
					<polygon fill="#989898" points="54.537,57.604 54.91,57.844 55.213,57.689 54.84,57.449 					"/>
					<polygon fill="#989898" points="54.973,57.883 55.346,58.123 55.648,57.971 55.275,57.73 					"/>
					<polygon fill="#989898" points="55.408,58.162 55.781,58.402 56.084,58.25 55.709,58.01 					"/>
					<polygon fill="#989898" points="56.217,58.684 56.152,58.643 55.842,58.441 56.145,58.289 56.455,58.488 56.518,58.529 
						56.953,58.811 56.652,58.963 					"/>
					<polygon fill="#989898" points="52.273,55.75 52.648,55.99 52.951,55.838 52.576,55.598 					"/>
					<polygon fill="#989898" points="52.709,56.029 53.082,56.271 53.385,56.117 53.012,55.877 					"/>
					<polygon fill="#989898" points="53.145,56.311 53.518,56.549 53.82,56.396 53.445,56.156 					"/>
					<polygon fill="#989898" points="55.506,57.828 55.318,57.707 55.258,57.668 54.885,57.428 54.822,57.391 54.449,57.148 
						54.389,57.109 54.014,56.869 53.58,56.59 53.881,56.436 54.316,56.715 54.689,56.955 54.752,56.994 55.125,57.234 
						55.186,57.273 55.561,57.516 55.621,57.555 55.809,57.674 55.996,57.795 55.693,57.947 					"/>
					<polygon fill="#989898" points="55.754,57.986 56.127,58.229 56.43,58.074 56.057,57.834 					"/>
					<polygon fill="#989898" points="56.189,58.268 56.562,58.508 56.865,58.354 56.492,58.113 					"/>
					<polygon fill="#989898" points="56.625,58.547 56.998,58.787 57.301,58.633 56.926,58.395 					"/>
				</g>
				<polygon fill="#333333" points="54.387,56.482 55.975,57.502 56.834,57.066 55.244,56.047 				"/>
				<polygon fill="#1A1A1A" points="47.793,52.74 53.617,56.482 55.299,60.291 49.475,56.547 47.672,52.865 				"/>
				<polygon fill="#4E4E4E" points="47.672,52.865 53.496,56.609 55.178,60.418 49.354,56.674 				"/>
			</g>
			<path fill="#F8A483" d="M61.584,56.557c-0.369,0.207-0.869,2.047-1.322,2.363c-0.455,0.32-0.676,0.078-0.707-0.164
				c-0.012-0.086,0.039-0.268,0.111-0.475c0.131-0.373,0.326-0.828,0.34-0.965c0.02-0.209-0.098-0.979-0.098-0.979
				s-0.842-1.143-0.883-1.152l0.918-0.998l1.043,0.666c0,0,0.029,0.004,0.08,0.012c0.248,0.043,1.014,0.193,1.176,0.498
				C62.434,55.732,61.955,56.35,61.584,56.557z"/>
			<path fill="#F8A483" d="M60.846,57.787l-0.77,1.27c0,0-0.414,0.428-0.486,0.805c-0.074,0.377-0.52,0.479-0.611,0.867
				c-0.131,0.566,0.014,0.955,0.568,1.197c0.783,0.344,1.404-0.127,1.668-0.635c0.264-0.51,0.002-0.912,0.145-1.311
				c0.141-0.4,0.627-1.855,0.627-1.855L60.846,57.787z"/>
			<path fill="#2AAAE2" d="M65.062,52.973l-1.516,0.664l-0.104,0.047l-0.65,0.285l-0.584-0.35l-0.18-0.098l-0.953-0.508
				l-2.205-0.516c0.275,0.473,0.736,0.91,1.275,1.434c0.289,0.279,0.602,0.586,0.92,0.934c-0.555,0.383-0.941,0.895-1.146,1.555
				c0,0-0.42-0.277-1.02-0.693c-0.752-0.521-1.787-1.262-2.625-1.939c-0.207-0.168-0.404-0.332-0.58-0.49
				c-0.311-0.273-0.557-0.521-0.707-0.727c-0.012-0.016-0.023-0.031-0.033-0.045c-0.486-0.705-0.256-1.785,0.584-2.35
				c0.207-0.141,0.453-0.25,0.736-0.312c1.418-0.312,4.072-0.053,4.887,0.211l1.061-1.365l3.428,1.355L65.062,52.973z"/>
			<path fill="#F8A483" d="M59.279,48.002c-0.271,0.447-0.465,0.883-0.666,1.105c-0.832,0.924-3.064,2.668-3.203,2.775
				c-0.008,0.008-0.873-0.699-0.873-0.699l2.416-2.943c0,0,0.205-0.504,0.527-1.25c0.098,0.127,0.223,0.246,0.332,0.377
				c0.281,0.234,0.672,0.451,1.068,0.561C59.016,47.967,59.148,47.992,59.279,48.002z"/>
			<path fill="#EF4653" d="M61.053,45.117c0,0-0.352,0.568-0.797,1.291c-0.309,0.502-0.664,1.08-0.977,1.594
				c-0.131-0.01-0.264-0.035-0.398-0.072c-0.396-0.109-0.785-0.328-1.068-0.562c-0.109-0.129-0.234-0.25-0.332-0.377
				c0.234-0.543,0.529-1.213,0.855-1.912c0.77-1.662,2.057-1.646,2.057-1.646L61.053,45.117z"/>
			<path fill="#EF4653" d="M66.791,52.768c-0.205,0.611-0.432,0.9-0.588,0.641c-0.568-0.951-5.041-3.334-5.041-3.334
				s-0.002-0.438-0.15-1.062c-0.121-0.516-0.344-1.154-0.744-1.775c-0.883-1.373-0.301-3.576-0.301-3.576
				c0.615-1.697,4.732-0.506,6.504,1.932C67.754,47.357,67.336,51.164,66.791,52.768z"/>
			<path fill="#F8A483" d="M60.201,45.539l0.77,0.766c0,0,0.678,0.742,1.242-0.062c0.566-0.803,1.199-1.826,0.047-2.531
				c-1.014-0.621-0.105,0.34-0.977-0.064C60.414,43.238,60.201,45.539,60.201,45.539z"/>
			<path fill="#F8A483" d="M58.594,43.275c0,0-0.988,1.184-0.273,1.957c0.225,0.242,0.406,0.406,0.508,0.596
				c0.047,0.09,0.025,0.617,0.396,0.502c0.08-0.025,0.17,0.006,0.225,0.072c0.113,0.139,0.33,0.316,0.658,0.229
				c0.502-0.139,1.473-0.82,1.09-1.678c0,0,0.688-0.926,0.189-1.621C60.891,42.637,59.492,41.916,58.594,43.275z"/>
			<path fill="#010101" d="M57.971,43.459c-0.264,0.518-0.307,1.646,0.283,1.852c0.9,0.312,1.604-0.164,1.604-0.164l0.453-0.201
				l0.457,0.348l0.201-0.26l0.367-0.307l0.242,0.232c0,0,0.445-0.219,0.434-0.736s-0.371-1.844-1.602-2.037
				C58.643,41.906,58.236,42.941,57.971,43.459z"/>
			<path fill="#F8A483" d="M60.834,44.822c0.016-0.154,0.104-0.299,0.234-0.385c0.084-0.057,0.207-0.084,0.285-0.02
				c0.08,0.064,0.074,0.186,0.064,0.287c-0.014,0.141-0.031,0.285-0.104,0.406c-0.064,0.109-0.229,0.238-0.348,0.141
				C60.865,45.166,60.82,44.949,60.834,44.822z"/>
			<path fill="#F8A483" d="M62.033,49.531l-0.725,1.299l-3.926,2.178l0.24,0.979c0,0,4.324-0.934,4.994-1.82
				c0.281-0.371,0.77-0.959,1.287-1.6C63.418,50.031,62.756,49.648,62.033,49.531z"/>
			<path fill="#EF4653" d="M63.414,47.053l-1.381,2.479c0.723,0.115,1.385,0.5,1.873,1.035c0.721-0.896,1.498-1.893,1.846-2.543
				C66.529,46.562,64.471,44.773,63.414,47.053z"/>
			<path fill="#F8A483" d="M58.428,52.812l-1.043,0.195c0,0-1.043,0.383-1.285,0.621c-0.242,0.24-0.949,0.689-0.949,0.689
				l-0.361,0.377l-0.199,0.861c-0.062,0.273,0.191,0.277,0.262,0.062l0.074,0.422c0.031,0.174,0.258,0.162,0.27-0.068l-0.008-0.387
				l0.195-0.396l-0.104,0.562l0.072,0.391c0.037,0.199,0.299,0.143,0.279-0.111l-0.055-0.285l0.074-0.41l0.432-0.35l-0.318,0.561
				l0.039,0.404l0.121,0.324c0.078,0.182,0.26,0.096,0.223-0.156L56.1,55.943l0.008-0.359l0.361-0.432c0,0,0.723-0.148,1.158-1.166
				l1.209-0.715L58.428,52.812z"/>
			<g>
				<path fill="#F8A483" d="M55.455,50.5l-0.918,0.686c0,0-0.68,0.346-0.873,0.52c-0.195,0.176-0.705,0.641-0.705,0.641l-0.326,0.43
					l-0.172,0.484l-0.039,0.363c-0.02,0.195,0.174,0.271,0.234,0.055l0.08-0.375l0.188-0.396l0.113-0.111l-0.146,0.631l-0.055,0.49
					c-0.029,0.217,0.236,0.242,0.277,0l0.074-0.473l0.113-0.404l0.164-0.174l-0.102,0.283l-0.059,0.541l-0.031,0.416
					c-0.01,0.26,0.248,0.254,0.297,0.01l0.051-0.434l0.084-0.463l0.205-0.377l-0.107,0.43l-0.002,0.422l0.076,0.326
					c0.059,0.264,0.33,0.229,0.303-0.07l-0.039-0.359l-0.004-0.365l0.182-0.367c0,0,0.33-0.354,0.359,0.172l-0.154,0.301
					l-0.223,0.227c-0.143,0.201-0.061,0.416,0.107,0.322l0.424-0.258l0.459-0.617l0.111-1.113l0.617-0.924L55.455,50.5z"/>
			</g>
			<path fill="#2AAAE2" d="M64.594,54.99c0,0-2.246,3.822-2.914,4.363c-0.414,0.334-1.109,0.039-1.434-0.268
				c-0.125-0.119-0.195-0.238-0.168-0.324c0,0,2.01-6.377,3.336-7.592s2.227-0.123,2.512,0.475c0.123,0.26,0.213,0.643,0.275,0.996
				c0.078,0.459,0.111,0.861,0.111,0.861S66.023,55.119,64.594,54.99z"/>
		</g>
		<g>
			<path fill="#EBE3DD" d="M47.477,38.777c-0.211,0-0.381-0.17-0.381-0.379V36.26c0-1.135,0.77-2.469,1.754-3.035l9.777-5.646
				c0.541-0.311,1.068-0.35,1.486-0.109c0.418,0.242,0.645,0.719,0.645,1.342v2.137c0,0.211-0.17,0.381-0.379,0.381
				c-0.211,0-0.381-0.17-0.381-0.381v-2.137c0-0.334-0.098-0.584-0.268-0.682s-0.436-0.059-0.725,0.109l-9.779,5.645
				c-0.742,0.43-1.371,1.52-1.371,2.377v2.137C47.857,38.607,47.688,38.777,47.477,38.777z"/>
			<g>
				<path fill="#837F7D" d="M69.533,26.812c-0.912-0.338-2.139-0.277-2.932,0.184L36.237,44.615
					c-0.455,0.266-0.684,0.611-0.682,0.959c0-0.004-0.004,1.334-0.004,1.334c-0.002,0.35,0.23,0.701,0.693,0.969l7.484,4.32
					c0.922,0.533,2.41,0.531,3.324,0l30.363-17.619c0.453-0.264,0.68-0.607,0.682-0.955l0.004-1.328
					C78.102,32.295,69.758,26.898,69.533,26.812z M78.09,32.416c0.006-0.039,0.002-0.078,0.004-0.117
					C78.1,32.336,78.096,32.377,78.09,32.416z"/>
				<g>
					<path fill="#EBE3DD" d="M66.602,26.994L36.239,44.615c-0.914,0.529-0.912,1.393,0.01,1.924l7.484,4.322
						c0.922,0.531,2.41,0.529,3.322,0L77.42,33.24c0.793-0.459,0.893-1.17,0.305-1.699c-0.146-0.129-8.191-4.729-8.191-4.729
						C68.621,26.475,67.395,26.535,66.602,26.994z"/>
				</g>
				<g>
					<path fill="#374645" d="M69.539,25.84l-0.131-0.074c-0.664-0.385-1.736-0.385-2.396,0c-5.578,3.24-25.21,14.627-30.363,17.619
						c-0.328,0.189-0.492,0.439-0.492,0.691c0-0.004-0.004,1.334-0.004,1.334c0,0.252,0.166,0.506,0.5,0.697l7.484,4.322
						c0.664,0.383,1.736,0.383,2.396,0c23.883-13.869,2.998-1.719,30.363-17.619c0.328-0.191,0.49-0.439,0.49-0.689l0.006-1.338
						c-0.016-0.352-0.26-0.555-0.551-0.727l-0.584-0.336L69.539,25.84z"/>
					<g>
						<path fill="#6F6B68" d="M76.893,30.086c0.664,0.383,0.668,1.004,0.008,1.389l-10.701,6.199c-0.658,0.385-1.732,0.385-2.396,0
							l-7.482-4.32c-0.664-0.385-0.666-1.006-0.008-1.389l10.699-6.199c0.66-0.385,1.732-0.385,2.396,0L76.893,30.086z"/>
					</g>
					<g>
						<path fill="#587074" d="M76.893,30.086c0.664,0.383,0.668,1.004,0.008,1.389L46.537,49.094c-0.66,0.383-1.73,0.383-2.395,0
							l-7.484-4.322c-0.664-0.383-0.668-1.004-0.008-1.387l30.361-17.619c0.66-0.385,1.732-0.385,2.396,0L76.893,30.086z"/>
					</g>
				</g>
			</g>
			<path fill="#FFFFFF" d="M65.531,28.92l6.633,4.293c0,0,2.52-1.152,3.615-2.43c0,0,0.475-1.426,0-1.779
				c-0.479-0.352-6.189-4.156-6.756-4.014C68.453,25.133,65.174,27.24,65.531,28.92z"/>
		</g>
	</g>
	<g>
		<g>
			<path fill="#1A1A1A" d="M44.07,11.041c-1.216-0.914-2.097-0.656-2.507,0.084c-0.135,0.242-0.641,2.012-2.871,2.266
				c0.643,0.32,0.887,0.334,1.441,0.727c0.199,0.141,0.416,0.256,0.646,0.34c1.336-1.723,2-1.789,2.687-2.531
				C43.709,11.666,43.883,11.34,44.07,11.041z"/>
			<path fill="#F9B195" d="M39.182,13.904l2.291,1.084l0.486-0.479l0.559-0.547c-0.232-0.297-0.385-0.486-0.484-0.611
				c-0.025-0.035-0.049-0.066-0.07-0.088c-0.26-0.332,0.018,0.021-0.621-0.787c-0.062,0.035-0.414,0.396-0.607,0.578
				c-0.061,0.057-0.104,0.094-0.123,0.104c-0.006,0.002-0.162,0.088-0.369,0.193C39.823,13.574,39.194,13.904,39.182,13.904z"/>
			<path fill="#F9B195" d="M40.786,13.084c0.277,1.004,1.234,1.912,2.775,1.33c0,0,1.256-0.514,1.074-2.186
				c-0.18-1.674-1.884-1.475-2.242-1.377s-0.805,0.58-1.236,0.961C40.53,12.363,40.508,12.865,40.786,13.084z"/>
			<path fill="#1A1A1A" d="M42.631,10.809c1.197,0.215,0.375,1.639,0.279,2.252c-0.193,1.26-1.836,1.395-1.863,1.438
				c-0.186,0.301,1.398,1.059,1.186,1.197c0,0,0.547-0.918,1.091-1.072c0.543-0.154,1.486-0.695,1.539-1.812
				C44.957,10.857,42.899,10.412,42.631,10.809z"/>
			<path fill="#375586" d="M31.477,16.57c1.85,0.725,4.232,3.322,4.387,3.211c0.463-0.316,0.895-0.568,1.322-0.795
				c1.051-0.547,2.049-0.91,3.297-1.57c0.453-0.238,0.938-0.52,1.471-0.857L40.999,14.9c-0.002-0.002-0.877-0.936-0.877-0.936
				c-1.391-1.445-2.176-1.109-2.666-0.953c-0.564,0.18-1.025-0.111-1.523,0.035c-0.186,0.055-0.33,0.123-0.445,0.201
				c-0.045,0.033-0.088,0.066-0.131,0.104c-0.465,0.434-0.254,1.061-0.432,1.197c-0.066,0.055-0.133,0.105-0.199,0.152
				c-0.703,0.516-1.342,0.77-2.533,1.416c-0.238,0.129-0.461,0.307-0.707,0.447C31.483,16.566,31.481,16.566,31.477,16.57z"/>
			<path fill="#F9B195" d="M37.721,21.383l-0.893,1.088c0,0-0.164,0.598-0.586,0.996l-0.459,0.732
				c-0.09,0.18-0.287,0.121-0.223-0.062l0.236-0.664l-0.316,0.418l-0.326,0.529c-0.1,0.184-0.299,0.125-0.225-0.086l0.328-0.836
				l-0.373,0.254l-0.471,0.561c-0.129,0.141-0.314,0.045-0.205-0.176l0.479-0.709l-0.57,0.533c-0.221,0.184-0.35-0.008-0.223-0.191
				l0.955-1.076c0,0-0.547,0.145-0.68,0.234s-0.496,0.029-0.42-0.115c0.076-0.146,1.191-0.615,1.191-0.615l1.023-0.449l1.379-0.615
				L37.721,21.383z"/>
			<path fill="#375586" d="M35.965,21.746c0.602-0.049,0.863,0.727,0.863,0.727c0.719-0.16,4.371-2.35,4.371-2.35
				s1.457-2.859,1.633-4.32c0.104-0.867-0.379-0.758-3.908-2.516l1.473,2.947l-0.74,2.854L35.965,21.746z"/>
			<g>
				<path fill="#375586" d="M15.624,24.795c0.096-0.211,0.252-0.322,0.428-0.275c0.477,0.127,1.543,1.248,1.543,1.248
					s0.867,0.559,1.527,0.258c0.457,0.273,1.15,0.307,1.125,0.963c0,0-0.027,0.113-0.514,0.664
					c-0.486,0.549-0.035,0.984-0.902,1.051c0,0-0.268,0.102-1.012-0.715s-1.443-0.664-2.004-1.611
					C15.459,25.783,15.456,25.156,15.624,24.795z"/>
				<path fill="#DB4349" d="M19.76,26.893c0.074,0.17,0.131,0.35,0.164,0.531c-0.135,0.127-0.211,0.125-0.277,0.316
					c0,0,0.395,0.172,0.471-0.008c0.328-0.322,0.5-0.455,0.5-0.455c1.789-0.846,4.207-3.316,4.674-4.094
					c0.592-0.99,1.096,0,5.211-2.666c-1.135,1.033-1.932,1.803-3.01,3.109c0.027,0.008-0.375,0.35-0.961,0.832
					c-1.51,1.246-4.248,3.451-4.176,3.463c-0.031,0.021-0.062,0.047-0.09,0.07c-0.455,0.424-0.307,1.336,0.172,1.633
					c0.039,0.023,0.08,0.045,0.123,0.061c0.127,0.045,0.271,0.049,0.434-0.008c0.531-0.258,1.312-1.113,3.316-1.807
					c2.52-0.875,3.164-2.531,3.166-2.539c0.932-0.727,2.975-1.551,3.797-2.102c0.43-0.287,1.619-1.576,2.289-2.904
					c0.002-0.027,0.002-0.055,0.006-0.08c0.031-0.59,0.227-0.756,0.035-1.246c-0.031-0.076-0.064-0.15-0.098-0.229
					c-0.791-1.699-2.877-3.004-3.93-2.66c-0.422,0.246-0.957,0.604-1.473,0.795c-1.01,0.357-2.021,1.219-2.902,1.818
					c-0.318,0.215-0.604,0.475-0.922,0.658c-1.4,0.816-1.846,1.088-4.758,3.936c0,0-1.51,1.959-2.172,2.557
					c-0.074,0.066-0.15,0.113-0.23,0.15C19.374,26.176,19.604,26.506,19.76,26.893z"/>
			</g>
			<path fill="#375586" d="M31.577,16.113c0.562-0.074,1.316,0.656,2.117,1.416c0.436,0.414,0.834,0.863,1.131,1.26
				c0.168,0.225,0.301,0.43,0.391,0.607c0.758-0.232,2.076-0.701,2.332-1.75c0.021-0.084,0.033-0.168,0.037-0.256
				c0.078-1.004-0.996-2.486-2.658-2.842C33.52,15.258,33.284,15.521,31.577,16.113z"/>
			<path fill="#F9B195" d="M35.553,20.283c-0.008,0.018-0.004,0.033,0.01,0.043C35.559,20.312,35.559,20.297,35.553,20.283z"/>
			<path fill="#375586" d="M33.692,17.529c0.408,0.162,0.844,0.688,1.195,1.262c0.121,0.199,0.23,0.408,0.328,0.605
				c0.164,0.344,0.281,0.654,0.338,0.883c0.074-0.26,1.512-1.217,1.98-1.467c0.008-0.008,0.018-0.012,0.023-0.021
				c0.305-0.541,0.223-0.941,0.027-1.402c-0.174-0.408-0.434-0.859-0.584-1.492L33.692,17.529z"/>
			<path fill="#375586" d="M21.016,30.035c0.289,0.676,1.646-0.219,1.793-0.318c0.014-0.01,0.057-0.053,0.145-0.125
				c0.057-0.236,0.08-0.414,0.074-0.578c-0.004-0.193-0.053-0.375-0.133-0.619c-0.221-0.264-0.318-0.426-0.521-0.332
				c0.135-0.186-0.396-1.496-0.934-0.939c-0.076,0.078-0.131,0.154-0.158,0.244c-0.092,0.33,0.131,0.748,0.137,1.121
				C21.428,28.965,20.704,29.322,21.016,30.035z"/>
		</g>
	</g>
	<path fill="#EBE3DD" d="M31.77,31.068c-0.209,0-0.379-0.17-0.379-0.381v-2.139c0-1.135,0.77-2.469,1.752-3.035l9.777-5.646
		c0.541-0.311,1.068-0.35,1.486-0.109c0.418,0.242,0.646,0.719,0.646,1.342v2.137c0,0.211-0.17,0.381-0.379,0.381
		c-0.211,0-0.381-0.17-0.381-0.381V21.1c0-0.334-0.098-0.584-0.268-0.682s-0.436-0.059-0.727,0.109l-9.777,5.645
		c-0.744,0.43-1.373,1.518-1.373,2.377v2.137C32.151,30.898,31.981,31.068,31.77,31.068z"/>
</g>
</svg>
