<?xml version="1.0" encoding="utf-8"?>
<!-- Generator: Adobe Illustrator 16.0.0, SVG Export Plug-In . SVG Version: 6.00 Build 0)  -->
<!DOCTYPE svg PUBLIC "-//W3C//DTD SVG 1.1//EN" "http://www.w3.org/Graphics/SVG/1.1/DTD/svg11.dtd">
<svg version="1.1" id="Layer_1" xmlns="http://www.w3.org/2000/svg" xmlns:xlink="http://www.w3.org/1999/xlink" x="0px" y="0px"
	 width="85px" height="85px" viewBox="0 0 85 85" enable-background="new 0 0 85 85" xml:space="preserve">
<g>
	<path d="M42.511,82.5c-9.133,0-18.266,0-27.398,0c-1.545,0-1.932-0.379-1.934-1.893c0-1.471,0.014-2.943-0.008-4.414
		c-0.006-0.525,0.131-0.965,0.445-1.387c1.834-2.471,3.664-4.945,5.473-7.438c0.449-0.617,0.98-0.887,1.754-0.877
		c2.555,0.033,5.109-0.004,7.662,0.025c0.543,0.006,0.715-0.133,0.682-0.682c-0.051-0.773-0.088-1.561,0.006-2.328
		c0.104-0.863-0.178-1.242-1.045-1.311c-0.689-0.053-1.365-0.236-2.049-0.35c-3.463-0.574-5.34-2.949-4.871-6.4
		c0.311-2.273,0.828-4.521,1.297-6.771c0.121-0.59,0.32-1.195,0.633-1.703c0.625-1.021,0.703-2.1,0.699-3.254
		c-0.029-7.439-0.023-14.879-0.014-22.318c0.016-9.053,5.949-16.465,14.76-18.463c10.102-2.293,20.516,4.676,22.242,14.873
		c0.215,1.262,0.318,2.527,0.318,3.807c-0.006,7.967,0,15.936-0.01,23.902c0,0.482,0.086,0.914,0.307,1.35
		c0.85,1.691,1.035,3.549,1.301,5.385c0.301,2.086,0.596,4.172,0.893,6.258c0.334,2.35,0.109,4.711,0.162,7.066
		c0.012,0.596-0.041,1.086,0.83,0.951c0.502-0.08,0.863,0.299,1.154,0.693c1.893,2.566,3.783,5.135,5.678,7.701
		c0.26,0.35,0.354,0.73,0.352,1.166c-0.014,1.555-0.004,3.107-0.006,4.662c-0.004,1.303-0.445,1.746-1.748,1.746
		C60.888,82.5,51.698,82.5,42.511,82.5z"/>
	<path fill="#FEA21D" d="M33.194,41.203c-0.488-1.053-0.922-1.279-2.033-1c-1.662,0.416-3.16,1.176-4.514,2.225
		c-0.252-0.176-0.135-0.416-0.137-0.613c-0.006-6.857-0.023-13.715,0-20.574c0.031-9.258,7.588-16.43,16.857-16.029
		c8.098,0.35,14.975,7.258,15.094,15.354c0.109,7.273,0.029,14.549,0.031,21.824c0,0.098-0.018,0.197-0.035,0.402
		c-1.42-1.152-2.891-2.004-4.568-2.465c-1.129-0.311-1.516-0.146-2.074,0.904c-1.041,0.369-2.102,0.229-3.156,0.096
		c-0.377-0.24-0.107-0.416,0.078-0.561c0.369-0.293,0.785-0.521,1.17-0.793c3.654-2.582,5.518-6.145,5.684-10.582
		c0.08-2.189,0.021-4.383,0.012-6.576c-0.012-2.455-1.621-4.062-4.084-4.062c-2.469-0.002-4.936,0.076-7.354-0.611
		c-2.641-0.75-4.982-2.012-6.99-3.881c-1.166-1.088-1.562-1.1-2.697,0.029c-1.238,1.232-2.467,2.479-3.711,3.707
		c-0.939,0.93-1.393,2.027-1.377,3.359c0.029,2.553-0.057,5.107,0.023,7.658c0.152,4.863,2.275,8.662,6.373,11.326
		c0.256,0.166,0.535,0.301,0.756,0.516c0.156,0.152,0.244,0.312-0.012,0.461C35.411,41.453,34.292,41.633,33.194,41.203z"/>
	<path fill="#F1A6B0" d="M48.462,41.154c1.119,0.025,2.236,0.051,3.355,0.076c-0.018,0.783,0.295,1.35,1.074,1.58
		c4.264,1.252,6.496,4.178,7.055,8.51c0.283,2.199,0.578,4.398,0.934,6.586c0.098,0.604-0.121,0.617-0.576,0.611
		c-1.416-0.021-2.83-0.031-4.244,0.006c-0.488,0.012-0.666-0.168-0.807-0.605c-0.678-2.105-1.393-4.201-2.09-6.305
		c-0.211-0.637-0.6-1.072-1.303-1.09c-0.623-0.018-1.045,0.311-1.281,0.881c-0.176,0.42-0.033,0.816,0.098,1.213
		c0.721,2.152,1.41,4.314,2.172,6.453c0.277,0.783,0.324,1.561,0.318,2.365c-0.01,1.471-0.018,2.941,0.006,4.412
		c0.01,0.465-0.047,0.693-0.611,0.674c-1.322-0.047-2.646-0.014-4.191-0.014c1.01-1.004,1.887-1.865,2.754-2.736
		c0.969-0.973,0.967-1.557-0.006-2.531c-1.979-1.984-3.963-3.967-5.945-5.947c-1.062-1.062-1.656-1.117-2.629-0.006
		c-0.768,0.877-1.748,0.723-2.514,0.473c-2.1-0.682-4.123-1.594-6.209-2.428c0.199-0.338,0.385-0.607,0.527-0.898
		c0.326-0.678,0.152-1.268-0.443-1.678c-0.611-0.422-1.209-0.303-1.73,0.215c-0.018,0.018-0.029,0.045-0.051,0.062
		c-0.387,0.361-0.424,1.148-1.043,1.146c-0.49,0-0.982-0.334-1.471-0.527c-2.428-0.965-2.771-1.021-4.809-0.719
		c0.307-2.721,1.521-4.896,3.664-6.547c0.996-0.77,2.117-1.314,3.355-1.584c0.865-0.189,1.383-0.662,1.375-1.598
		c1.156-0.016,2.311-0.029,3.467-0.047c0.709-0.146,0.695,0.396,0.711,0.812c0.031,0.807,0.082,1.604,0.373,2.363
		c0.836,2.188,3.189,3.588,5.418,3.23c2.531-0.404,4.279-2.316,4.438-4.855c0.021-0.33-0.021-0.668,0.051-0.992
		C47.747,41.291,47.952,40.994,48.462,41.154z"/>
	<path fill="#FEA21D" d="M17.226,74.408c1.25-1.699,2.477-3.365,3.697-5.037c0.186-0.252,0.438-0.197,0.678-0.197
		c4.83-0.002,9.66,0.012,14.49-0.014c0.902-0.006,1.111,0.816,1.688,1.344c-0.748,0-1.496,0-2.244,0
		c-0.723,0-1.445-0.01-2.166,0.004c-0.928,0.016-1.504,0.514-1.523,1.295c-0.021,0.814,0.574,1.361,1.539,1.363
		c4.193,0.01,8.385,0.004,12.576,0.004c1.859,0,3.719,0.006,5.58-0.002c1.027-0.004,1.645-0.535,1.619-1.369
		c-0.025-0.807-0.613-1.289-1.613-1.291c-2.193-0.008-4.387-0.002-6.58-0.004c-0.127,0-0.254-0.012-0.449-0.02
		c0.629-0.891,1.275-1.359,2.408-1.346c5.412,0.072,10.824,0.041,16.238,0.021c0.553-0.002,0.9,0.148,1.229,0.615
		c1.092,1.557,2.24,3.074,3.395,4.641C66.894,74.535,18.05,74.529,17.226,74.408z"/>
	<path fill="#FEA21D" d="M42.438,79.834c-8.574,0-17.15-0.012-25.725,0.021c-0.764,0.004-0.906-0.215-0.887-0.918
		c0.049-1.768,0.014-1.77,1.762-1.77c16.873,0,33.744,0.008,50.615-0.02c0.828-0.002,1.002,0.221,0.973,1.002
		c-0.062,1.684-0.018,1.686-1.682,1.686C59.144,79.834,50.79,79.834,42.438,79.834z"/>
	<path fill="#FED2B5" d="M26.622,53.445c0.219-0.004,0.639,0.135,1.053,0.301c3.646,1.461,7.303,2.896,10.932,4.398
		c0.834,0.346,1.662,0.344,2.518,0.373c1.24,0.043,2.115,0.963,2.207,2.27c0.078,1.139-0.688,2.109-1.83,2.32
		c-0.516,0.094-1.057,0.035-1.426-0.295c-2.109-1.885-4.801-1.979-7.363-2.465c-2.203-0.42-4.418-0.785-6.623-1.205
		c-1.654-0.314-2.436-1.537-2.236-3.418C23.991,54.42,25.075,53.443,26.622,53.445z"/>
	<path fill="#F87777" d="M45.851,59.775c0.961,0.951,1.754,1.74,2.549,2.527c0.252,0.252,0.018,0.395-0.131,0.543
		c-2.252,2.258-4.516,4.51-6.76,6.775c-0.316,0.322-0.486,0.188-0.732-0.061c-1.326-1.342-2.664-2.672-4-4.006
		c-0.197-0.195-0.467-0.402-0.098-0.656c0.299-0.203,0.416-0.826,0.984-0.463c0.396,0.254,0.779,0.533,1.191,0.76
		c3.207,1.75,7.162-0.576,7.141-4.199C45.993,60.684,45.923,60.369,45.851,59.775z"/>
	<path fill="#FED2B5" d="M58.503,61.176c0.723,0,1.443,0.021,2.162-0.01c0.414-0.02,0.51,0.133,0.504,0.521
		c-0.021,1.439-0.021,2.883,0,4.324c0.008,0.412-0.133,0.508-0.52,0.504c-1.441-0.021-2.885-0.023-4.326,0
		c-0.41,0.008-0.508-0.133-0.502-0.521c0.02-1.439,0.021-2.883-0.002-4.324c-0.006-0.412,0.133-0.518,0.521-0.504
		C57.062,61.193,57.782,61.176,58.503,61.176z"/>
	<path fill="#F0A6B0" d="M34.298,63.373c-1.385,1.865-1.391,1.895-0.531,3.027c-0.033,0.033-0.066,0.092-0.104,0.092
		c-1.824,0.062-1.824,0.062-1.824-1.752c0-1.879,0-1.881,1.818-1.527C33.87,63.254,34.077,63.316,34.298,63.373z"/>
	<path d="M48.462,41.154c-0.809,0.072-0.623,0.682-0.629,1.178c-0.027,3.072-2.238,5.436-5.16,5.51
		c-3.061,0.078-5.455-2.291-5.518-5.414c-0.01-0.447,0.348-1.115-0.494-1.27c-3.355-1.881-5.736-4.572-6.881-8.287
		c-0.377-1.225-0.596-2.479-0.602-3.764c-0.008-2.693-0.002-5.385-0.008-8.076c-0.002-1.141,0.398-2.117,1.197-2.922
		c1.447-1.457,2.896-2.912,4.359-4.355c0.781-0.771,1.422-0.771,2.236,0.006c3.424,3.262,7.504,4.82,12.221,4.768
		c0.914-0.01,1.832-0.02,2.746,0.004c2,0.053,3.785,1.582,3.852,3.557c0.096,2.881,0.252,5.779-0.082,8.648
		c-0.533,4.559-2.92,7.93-6.9,10.189C48.683,40.992,48.575,41.078,48.462,41.154z"/>
	<path fill="#FED2B5" d="M53.163,26.557c-0.059,1.566,0.133,3.373-0.307,5.156c-1.221,4.953-5.736,8.346-10.883,8.127
		c-4.84-0.205-9.279-4.223-9.973-9.08c-0.377-2.65-0.002-5.33-0.191-7.982c-0.123-1.701,0.33-3,1.686-4.049
		c0.719-0.559,1.324-1.266,1.951-1.934c0.295-0.316,0.482-0.379,0.861-0.068c3.699,3.045,7.967,4.5,12.75,4.463
		c0.832-0.006,1.666-0.006,2.498,0.002c1.131,0.01,1.6,0.486,1.605,1.637C53.169,23.994,53.163,25.16,53.163,26.557z"/>
	<path fill="#FDD2B5" d="M40.306,42.307c1.516,0.283,2.9,0.289,4.273,0.029c0.609-0.113,0.639,0.146,0.562,0.605
		c-0.211,1.258-1.348,2.229-2.629,2.236c-1.277,0.008-2.43-0.951-2.645-2.211C39.794,42.529,39.729,42.072,40.306,42.307z"/>
	<path d="M42.62,36.896c-1.436,0.018-2.596-0.441-3.59-1.322c-0.664-0.588-0.76-1.398-0.258-1.98
		c0.488-0.566,1.24-0.602,1.932-0.088c1.262,0.939,2.176,0.963,3.498,0.092c0.76-0.502,1.531-0.418,1.979,0.217
		c0.451,0.639,0.291,1.377-0.432,1.955C44.804,36.518,43.731,36.904,42.62,36.896z"/>
	<path fill="#010101" d="M35.837,25.854c0-1.359,0.408-1.98,1.312-1.994c0.928-0.016,1.355,0.627,1.354,2.035
		c0,0.193,0.008,0.387-0.002,0.58c-0.049,0.832-0.6,1.387-1.352,1.375c-0.75-0.014-1.271-0.572-1.311-1.416
		C35.829,26.24,35.837,26.047,35.837,25.854z"/>
	<path fill="#010101" d="M49.165,25.855c0,1.355-0.412,1.979-1.312,1.994c-0.91,0.014-1.354-0.627-1.354-1.955
		c0-1.408,0.426-2.051,1.355-2.035C48.757,23.875,49.165,24.496,49.165,25.855z"/>
</g>
</svg>
