<?xml version="1.0" encoding="utf-8"?>
<!-- Generator: Adobe Illustrator 16.0.0, SVG Export Plug-In . SVG Version: 6.00 Build 0)  -->
<!DOCTYPE svg PUBLIC "-//W3C//DTD SVG 1.1//EN" "http://www.w3.org/Graphics/SVG/1.1/DTD/svg11.dtd">
<svg version="1.1" id="Capa_1" xmlns="http://www.w3.org/2000/svg" xmlns:xlink="http://www.w3.org/1999/xlink" x="0px" y="0px"
	 width="85px" height="85px" viewBox="0 0 85 85" enable-background="new 0 0 85 85" xml:space="preserve">
<g id="XMLID_39_">
	<g>
		<rect x="5.245" y="20.92" fill="#E55A42" width="2.289" height="7.875"/>
		<rect x="24.431" y="21.778" fill="#4785DD" width="3.85" height="36.308"/>
		<rect x="35.478" y="21.778" fill="#4785DD" width="3.852" height="36.308"/>
		<rect x="46.526" y="21.778" fill="#4785DD" width="3.85" height="36.308"/>
		<rect x="57.573" y="21.778" fill="#4785DD" width="3.85" height="36.308"/>
		<rect x="68.622" y="21.778" fill="#4785DD" width="3.848" height="36.308"/>
		<path fill="#E2C744" d="M75.724,65.795c1.98,0,3.594,1.613,3.594,3.596c0,1.984-1.613,3.596-3.594,3.596
			c-1.982,0-3.598-1.611-3.598-3.596C72.126,67.408,73.741,65.795,75.724,65.795z"/>
		<path fill="#E2C744" d="M19.29,65.795c1.982,0,3.596,1.613,3.596,3.596c0,1.984-1.613,3.596-3.596,3.596
			c-1.983,0-3.594-1.611-3.594-3.596C15.696,67.408,17.307,65.795,19.29,65.795z"/>
		<path d="M82.503,14.319v51.224c0,0.85-0.211,1.668-0.609,2.4c0.109,0.465,0.17,0.947,0.17,1.447c0,3.494-2.846,6.338-6.34,6.338
			s-6.34-2.844-6.34-6.338c0-2.307,1.24-4.33,3.088-5.438v-3.125h-3.85v6.164c0,1.984-1.615,3.598-3.6,3.598s-3.6-1.613-3.6-3.598
			v-6.164h-3.85v6.164c0,1.984-1.615,3.598-3.602,3.598c-1.982,0-3.598-1.613-3.598-3.598v-6.164h-3.85v6.164
			c0,1.984-1.615,3.598-3.6,3.598s-3.6-1.613-3.6-3.598v-6.164h-3.852v6.164c0,1.984-1.611,3.598-3.598,3.598
			c-1.984,0-3.6-1.613-3.6-3.598v-6.164h-4.176v4.443c0.949,1.109,1.525,2.547,1.525,4.117c0,3.496-2.844,6.338-6.34,6.338
			c-3.084,0-5.662-2.215-6.224-5.137h-0.483c-2.783,0-5.049-2.266-5.049-5.049V31.54H3.87c-0.758,0-1.373-0.615-1.373-1.371V19.547
			c0-0.756,0.615-1.371,1.373-1.371h3.66v-3.857c0-2.784,2.266-5.048,5.049-5.048h10.148c0.758,0,1.371,0.614,1.371,1.372v8.392
			h4.178v-6.166c0-1.981,1.613-3.598,3.6-3.598c1.984,0,3.598,1.614,3.598,3.598v6.166h3.852v-6.166c0-1.981,1.615-3.598,3.6-3.598
			c1.982,0,3.598,1.614,3.598,3.598v6.166h3.85v-6.166c0-1.981,1.615-3.598,3.6-3.598s3.6,1.614,3.6,3.598v6.166h3.85v-6.166
			c0-1.981,1.615-3.598,3.6-3.598s3.6,1.614,3.6,3.598v6.166h3.85v-8.392c0-0.758,0.613-1.372,1.373-1.372h3.611
			C80.237,9.271,82.503,11.535,82.503,14.319z M79.759,64.506V14.319c0-1.271-1.035-2.305-2.305-2.305h-2.24v51.06
			c0.166-0.014,0.338-0.023,0.51-0.023C77.255,63.051,78.661,63.598,79.759,64.506z M79.317,69.391c0-1.98-1.613-3.596-3.594-3.596
			c-1.982,0-3.598,1.613-3.598,3.596c0,1.984,1.613,3.596,3.598,3.596C77.704,72.986,79.317,71.373,79.317,69.391z M72.47,58.086
			V21.778h-3.85v36.308H72.47z M65.878,66.994V12.869c0-0.47-0.385-0.854-0.855-0.854s-0.854,0.385-0.854,0.854v54.125
			c0,0.473,0.383,0.854,0.854,0.854S65.878,67.465,65.878,66.994z M61.423,58.086V21.778h-3.85v36.308H61.423z M54.829,66.994
			V12.869c0-0.47-0.383-0.854-0.855-0.854c-0.471,0-0.854,0.385-0.854,0.854v54.125c0,0.473,0.385,0.854,0.854,0.854
			C54.446,67.848,54.829,67.465,54.829,66.994z M50.376,58.086V21.778h-3.85v36.308H50.376z M43.782,66.994V12.869
			c0-0.47-0.385-0.854-0.855-0.854s-0.855,0.385-0.855,0.854v54.125c0,0.473,0.385,0.854,0.855,0.854S43.782,67.465,43.782,66.994z
			 M39.327,58.086V21.778h-3.85v36.308H39.327z M32.733,66.994V12.869c0-0.47-0.385-0.854-0.854-0.854
			c-0.473,0-0.855,0.385-0.855,0.854v54.125c0,0.473,0.383,0.854,0.855,0.854C32.349,67.848,32.733,67.465,32.733,66.994z
			 M28.28,58.086V21.778h-3.85v36.308H28.28z M22.886,69.391c0-1.98-1.613-3.596-3.596-3.596c-1.983,0-3.594,1.613-3.594,3.596
			c0,1.984,1.61,3.596,3.594,3.596C21.272,72.986,22.886,71.373,22.886,69.391z M21.36,63.402V12.014h-8.777
			c-1.271,0-2.307,1.033-2.307,2.306v5.229v10.619v35.375c0,1.271,1.035,2.305,2.307,2.305h0.559
			c0.691-2.75,3.186-4.795,6.148-4.795C20.013,63.051,20.712,63.176,21.36,63.402z M7.534,28.797V20.92H5.245v7.877H7.534z"/>
	</g>
</g>
</svg>
