<?xml version="1.0" encoding="utf-8"?>
<!-- Generator: Adobe Illustrator 16.0.2, SVG Export Plug-In . SVG Version: 6.00 Build 0)  -->
<!DOCTYPE svg PUBLIC "-//W3C//DTD SVG 1.1 Tiny//EN" "http://www.w3.org/Graphics/SVG/1.1/DTD/svg11-tiny.dtd">
<svg version="1.1" baseProfile="tiny" id="Layer_1" xmlns="http://www.w3.org/2000/svg" xmlns:xlink="http://www.w3.org/1999/xlink"
	 x="0px" y="0px" width="85px" height="85px" viewBox="0 0 85 85" xml:space="preserve">
<g>
	<path d="M74.392,62.491c-0.003-0.814,0.312-1.167,1.047-1.471c3.625-1.495,4.848-5.968,2.565-9.146
		c-0.95-1.321-2.229-2.073-3.797-2.394c-0.377-0.077-0.83-0.102-0.853-0.63c-0.025-0.638-0.08-1.28,0.04-1.921
		c0.318,0.008,0.53,0.182,0.77,0.27c2.431,0.876,5.185-1.253,4.915-3.824c-0.313-2.983-1.161-5.806-2.564-8.465
		c-0.322-0.611-1.02-1.144-0.872-1.854c0.141-0.679,0.886-1.053,1.365-1.559c3.627-3.83,4.953-8.427,4.348-13.577
		c-0.507-4.298-2.563-7.823-5.872-10.597c-3.7-3.102-8.021-4.288-12.751-3.692c-5.758,0.725-10.016,3.82-12.678,8.934
		c-2.499,4.799-2.505,9.744-0.257,14.673c0.919,2.017,2.225,3.758,3.874,5.236c0.473,0.424,0.522,0.807,0.166,1.351
		c-0.843,1.29-1.461,2.699-1.987,4.144c-0.188,0.516-0.485,0.736-1.039,0.735c-4.062-0.011-8.123-0.011-12.183,0
		c-0.542,0.002-0.787-0.223-0.921-0.731c-0.27-1.014-0.743-1.939-1.35-2.799c-0.536-0.759-0.524-0.762,0.317-1.153
		C43.25,30.963,47.08,23.92,46.08,16.726c-0.797-5.741-3.938-9.913-9.022-12.645c-1.813-0.973-3.756-1.476-5.806-1.579
		c-1.146,0-2.292,0-3.437,0c-0.041,0.036-0.084,0.072-0.133,0.072c-2.658-0.008-4.985,1.029-7.149,2.416
		c-4.012,2.572-6.541,6.207-7.368,10.934c-0.703,4.013-0.097,7.829,1.961,11.375c1.736,2.989,4.153,5.243,7.289,6.724
		c0.845,0.399,0.835,0.419,0.314,1.162c-0.823,1.173-1.321,2.473-1.517,3.891c-0.214,1.553-0.203,3.116-0.16,4.675
		c0.05,1.828,0.195,3.646,1.198,5.264c0.053,0.084,0.104,0.186-0.017,0.29c-0.582,0.041-1.18,0.021-1.778,0.015
		c-0.861-0.009-1.113-0.183-1.314-1.025c-0.273-1.139-0.543-2.278-0.811-3.418c-0.97-4.131-1.906-8.27-2.93-12.388
		c-0.655-2.642-2.954-4.471-5.59-4.565c-4.093-0.147-7.062,3.513-6.139,7.599c1.113,4.926,2.307,9.834,3.388,14.767
		c0.819,3.741,2.488,6.877,5.755,9.025c0.354,0.232,0.479,0.505,0.351,0.922c-0.538,1.761-0.263,3.397,0.793,4.899
		c0.277,0.392,0.336,0.792,0.213,1.255c-0.315,1.183-0.625,2.366-0.886,3.563c-0.155,0.71-0.518,1.17-1.124,1.585
		c-1.944,1.334-2.974,3.203-2.785,5.589c0.193,2.438,2.008,5.049,5.001,5.377c0.625,0,1.25,0,1.875,0
		c2.216-0.132,3.789-1.274,4.649-3.251c0.419-0.962,0.942-1.223,1.932-1.219c13.926,0.027,27.853,0.02,41.778,0.02
		c0.232,0,0.468,0.008,0.703,0.004c0.411-0.008,0.673,0.153,0.831,0.555c0.838,2.134,2.264,3.579,4.636,3.892
		c0.677,0,1.354,0,2.031,0c0.442-0.152,0.92-0.082,1.365-0.237c2.41-0.845,4.201-3.905,3.771-6.46
		c-0.319-1.905-1.271-3.398-2.925-4.404c-0.506-0.309-0.789-0.703-0.919-1.277c-0.278-1.217-0.586-2.43-0.91-3.635
		c-0.14-0.521-0.071-0.955,0.258-1.39C74.035,64.331,74.396,63.439,74.392,62.491z M18.901,67.604
		c-0.273,1.105-0.545,2.213-0.818,3.32c-0.066,0.27-0.167,0.39-0.486,0.246c-0.351-0.156-0.74-0.313-1.113-0.317
		c-0.802-0.005-0.755-0.372-0.572-0.961c0.254-0.814,0.452-1.65,0.623-2.488c0.078-0.383,0.232-0.47,0.578-0.365
		c0.478,0.146,0.972,0.176,1.466,0.155C18.904,67.18,19,67.303,18.901,67.604z M67.205,73.133c-0.465,0.603-0.791,1.278-0.966,2.021
		c-0.111,0.474-0.498,0.293-0.771,0.293c-3.983,0.013-7.967,0.008-11.951,0.008c-3.28,0-6.562,0-9.842,0
		c-7.237,0-14.476-0.004-21.714,0.01c-0.535,0.002-0.882-0.066-0.963-0.689c-0.042-0.32-0.183-0.683-0.397-0.917
		c-0.652-0.721-0.512-1.479-0.284-2.299c0.346-1.251,0.655-2.513,0.941-3.779c0.104-0.463,0.312-0.593,0.785-0.593
		c14.424,0.015,28.848,0.015,43.274,0c0.476,0,0.674,0.133,0.782,0.599c0.353,1.545,0.747,3.08,1.133,4.614
		C67.295,72.652,67.402,72.88,67.205,73.133z M71.152,70.801c-0.254-0.002-0.511,0.083-0.763,0.148
		c-1.04,0.272-1.04,0.274-1.291-0.731c-0.21-0.829-0.407-1.662-0.626-2.489c-0.102-0.384-0.057-0.585,0.415-0.541
		c0.521,0.048,1.036-0.051,1.541-0.192c0.313-0.078,0.321,0.146,0.374,0.355c0.243,0.982,0.489,1.963,0.751,2.941
		C71.656,70.672,71.544,70.803,71.152,70.801z"/>
	<path fill="#EDECFE" d="M56.783,41.382c4.442,0.022,8.668,3.869,9.153,8.35c0.231,2.126,0.14,4.264,0.087,6.391
		c-0.04,1.718-1.395,3.03-3.053,2.854c-2.95-0.308-5.791,0.221-8.647,0.791c-2.104,0.418-4.226,0.53-6.358,0.206
		c-0.269-0.125-0.569,0.002-0.839-0.106l-0.03,0.002c-0.642,0.138-0.81-0.361-0.975-0.784c-0.413-1.054-0.431-2.186-0.564-3.292
		c-0.269-2.251-0.182-4.515-0.152-6.771c0.021-1.749,0.324-3.467,0.895-5.125c0.245-0.715,0.586-1.388,1.028-2.006
		c0.218-0.307,0.486-0.559,0.889-0.556C51.069,41.355,53.926,41.267,56.783,41.382z"/>
	<path fill="#FEDDCF" d="M24.11,14.041c0.526,0.274,1.026,0.225,1.558-0.031c1.43-0.687,2.828-1.429,4.128-2.337
		c0.639-0.445,1.202-0.461,1.854-0.018c3.397,2.305,7.123,3.814,11.169,4.517c0.387,0.067,0.625,0.152,0.699,0.627
		c1.207,7.599-4.031,14.718-11.355,16.034c-0.076,0.014-0.155,0.005-0.232,0.007c-0.443,0.05-0.801-0.166-1.162-0.37
		c-2.264-1.278-4.113-2.987-5.461-5.229c-2.284-3.794-2.951-7.838-1.9-12.146C23.507,14.69,23.471,14.119,24.11,14.041z"/>
	<path fill="#C1C1EF" d="M30.706,58.983c-4.112-0.069-8.076,0.217-12.016-0.131c-4.423-0.39-7.908-3.802-8.976-8.448
		c-1.176-5.114-2.35-10.228-3.529-15.341c-0.497-2.153,0.539-3.992,2.532-4.48c1.982-0.485,3.771,0.669,4.286,2.825
		c1.244,5.205,2.457,10.416,3.693,15.623c0.458,1.929,1.646,2.858,3.621,2.862c2.864,0.005,5.728,0.011,8.591-0.01
		c0.486-0.004,0.658,0.106,0.691,0.631c0.091,1.452,0.26,2.901,0.408,4.35C30.08,57.564,30.321,58.221,30.706,58.983z"/>
	<path fill="#FEDDCF" d="M57.875,17.314c0.875,0.6,1.735,1.22,2.748,1.594c1.667,0.618,3.826,0.546,4.777-1.331
		c0.217-0.427,0.431-0.105,0.614-0.002c1.313,0.748,2.664,1.405,4.15,1.729c1.026,0.224,2.059,0.301,3.051-0.184
		c0.307-0.15,0.656-0.317,0.787-0.615c0.355-0.81,0.736-0.608,1.287-0.186c0.956,0.733,2.067,1.191,3.233,1.48
		c0.356,0.088,0.448,0.236,0.445,0.578c-0.061,6.894-5.31,12.748-11.963,13.708c-0.076,0.011-0.154-0.001-0.231-0.003
		c-0.496,0.142-0.925-0.061-1.336-0.283c-3.345-1.798-5.701-4.489-7.076-8.012c-0.984-2.515-1.338-5.125-0.916-7.813
		C57.486,17.709,57.392,17.312,57.875,17.314z"/>
	<path fill="#D3D3FE" d="M56.783,41.382c-2.677,0.013-5.353,0.044-8.027,0.025c-0.626-0.005-0.995,0.219-1.33,0.729
		c-1.025,1.562-1.392,3.323-1.642,5.127c-0.3,2.17-0.18,4.354-0.129,6.528c0.036,1.567,0.268,3.137,0.508,4.688
		c0.083,0.54,0.193,1.219,0.933,1.389c-0.582,0.136-0.985,0.467-1.163,1.05c-0.831,0.174-1.614,0.093-2.318-0.427
		c-0.021-0.85-0.478-1.251-1.301-1.356c-2.052-0.26-4.102-0.305-6.148-0.007c-2.217,0.323-3.575-0.668-3.855-2.871
		c-0.299-2.352-0.541-4.705-0.354-7.087c0.311-0.129,0.49,0.128,0.695,0.238c2.73,1.478,5.652,2.038,8.731,1.826
		c1.842-0.126,3.295-1.735,3.25-3.556c-0.047-1.906-1.588-3.446-3.529-3.445c-1.333,0.001-2.648-0.015-3.923-0.477
		c-0.989-0.36-1.872-0.887-2.674-1.564c-0.411-0.345-0.304-0.494,0.141-0.647c0.451-0.156,0.91-0.225,1.378-0.225
		c6.767-0.008,13.535-0.011,20.302-0.01C56.479,41.312,56.63,41.357,56.783,41.382z"/>
	<path fill="#5B778D" d="M67.053,6.242c2.445,0.283,4.584,1.298,6.498,2.797c2.543,1.99,4.197,4.575,5.017,7.696
		c0.024,0.1,0.038,0.204,0.053,0.307c0.01,0.072,0.012,0.147,0.025,0.329c-1.114-0.302-2.007-0.878-2.825-1.592
		c-0.566-0.495-1.16-0.876-1.968-0.675c-0.713,0.177-1.261,0.583-1.423,1.294c-0.171,0.739-0.606,0.789-1.213,0.703
		c-1.689-0.24-3.152-1.021-4.573-1.896c-0.715-0.441-1.43-0.582-2.21-0.188c-0.471,0.239-0.771,0.625-0.927,1.106
		c-0.248,0.772-0.818,0.902-1.484,0.746c-1.389-0.323-2.491-1.124-3.43-2.172c-0.182-0.246-0.105-0.491,0.002-0.736
		c1.457-3.303,3.785-5.798,6.967-7.497C66.025,6.215,66.519,6.07,67.053,6.242z"/>
	<path fill="#FECBBE" d="M24.11,14.041c-0.64,0.7-0.656,1.625-0.793,2.467c-0.532,3.267-0.007,6.42,1.443,9.37
		c1.55,3.149,3.969,5.478,7.172,6.962c-3.079,0.627-6,0.102-8.77-1.293c-5.186-2.616-8.228-8.21-7.677-13.972
		c0.067-0.706,0.233-1.107,1.062-1.124c1.195-0.024,2.368-0.309,3.541-0.549c0.566-0.116,1.036-0.35,1.207-0.961
		c-0.017-0.576,0.248-0.932,0.823-1.037c0.546-0.101,1.023-0.549,1.634-0.319C23.871,13.735,23.991,13.888,24.11,14.041z"/>
	<path fill="#50E0CC" d="M43.614,60.493c0.773,0.141,1.546,0.286,2.317,0.427c0.181,1.041,0.465,1.27,1.622,1.404
		c2.686,0.317,5.356,0.207,7.984-0.415c2.763-0.655,5.547-0.695,8.365-0.589c2.414,0.092,4.837,0.026,7.256-0.023
		c0.665-0.015,0.782,0.236,0.747,0.811c-0.089,1.41-1.22,2.605-2.639,2.73c-0.207,0.02-0.415,0.016-0.625,0.016
		c-9.833,0.002-19.667,0.002-29.5,0c-0.181,0-0.363-0.02-0.544-0.028c-1.091-0.716-1.59-2.26-1.106-3.424
		c1.491-0.305,2.975-0.083,4.459,0.054C42.926,61.543,43.217,61.399,43.614,60.493z"/>
	<path fill="#FECBBE" d="M57.875,17.314c-0.384,0.479-0.324,1.084-0.351,1.615c-0.248,5.089,1.444,9.418,5.273,12.819
		c1.152,1.025,2.407,1.971,3.977,2.334c-2.727,0.455-5.356,0.076-7.814-1.13c-5.07-2.489-7.816-6.582-8.209-12.24
		c-0.04-0.587,0.099-0.858,0.709-1.017c1.883-0.485,3.481-1.498,4.769-2.949c0.414-0.465,0.661-0.529,1.04-0.031
		C57.438,16.94,57.67,17.116,57.875,17.314z"/>
	<path fill="#FE8896" d="M70.758,44.571c0,1.457-0.019,2.913,0.011,4.368c0.01,0.471-0.109,0.659-0.604,0.62
		c-0.592-0.05-1.3,0.157-1.756-0.102c-0.44-0.249-0.291-1.036-0.456-1.575c-1.286-4.168-3.963-6.987-8.122-8.344
		c-0.6-0.196-0.729-0.378-0.399-0.926c0.413-0.691,0.803-1.394,1.263-2.055c0.213-0.305,0.44-0.381,0.789-0.307
		c2.269,0.48,4.539,0.469,6.806-0.011c0.332-0.07,0.519,0.026,0.71,0.294c1.088,1.521,2.017,3.069,1.779,5.077
		C70.663,42.584,70.759,43.583,70.758,44.571z"/>
	<path fill="#00D5BB" d="M37.491,61.399c-0.152,1.311,0.278,2.432,1.106,3.425c-3.433,0.01-6.867,0.022-10.3,0.028
		c-3.304,0.004-6.607,0.018-9.912-0.01c-1.884-0.018-3.206-1.626-2.906-3.452c0.093-0.563,0.248-0.887,0.958-0.625
		c1.305,0.487,2.69,0.547,4.074,0.545c3.486-0.005,6.973-0.01,10.458,0.004c1.244,0.004,2.487-0.074,3.727,0.205
		C35.62,61.726,36.554,61.351,37.491,61.399z"/>
	<path fill="#00D6BC" d="M23.715,42.494c0-0.963-0.052-1.929,0.011-2.887c0.114-1.734,0.945-3.098,2.3-4.168
		c0.29-0.229,0.567-0.295,0.934-0.229c1.731,0.314,3.467,0.309,5.198,0.002c0.328-0.059,0.593-0.028,0.871,0.18
		c1.079,0.809,1.798,1.853,2.189,3.142c0.113,0.374,0.049,0.498-0.35,0.546c-0.675,0.081-1.287,0.569-1.902,0.611
		c-0.646,0.044-0.808-0.916-1.379-1.278c-1.332-0.841-3.106-0.805-4.297,0.188c-1.189,0.991-1.575,2.641-0.931,4.106
		c0.687,1.565,1.664,2.935,2.871,4.144c0.422,0.422,0.621,2.045,0.331,2.543c-0.125,0.216-0.312,0.149-0.479,0.151
		c-0.885,0.008-1.77-0.019-2.653,0.014c-0.422,0.016-0.682-0.211-0.941-0.464c-1.265-1.23-1.822-2.751-1.822-4.495
		c0-0.702,0-1.405,0-2.107C23.682,42.494,23.699,42.494,23.715,42.494z"/>
	<path fill="#FEB05A" d="M23.752,13.582c-0.54,0.175-1.071,0.387-1.623,0.512c-0.489,0.109-0.737,0.385-0.833,0.846
		c-0.068-1.193-0.54-1.559-1.708-1.341c-0.868,0.16-1.738,0.304-2.604,0.468c-0.606,0.117-0.657-0.09-0.428-0.599
		c1.866-4.167,4.982-6.903,9.374-8.135c2.019-0.566,4.083-0.701,6.153-0.207c-0.107,0.238-0.344,0.304-0.549,0.408
		c-2.517,1.285-4.517,3.131-5.998,5.536c-0.109,0.178-0.266,0.32-0.35,0.514c-0.15,0.091-0.291,0.212-0.453,0.268
		C23.894,12.145,23.562,12.712,23.752,13.582z"/>
	<path fill="#F7CF71" d="M25.186,11.585c-0.23-0.284,0.098-0.431,0.192-0.583c1.632-2.642,3.796-4.687,6.705-5.875
		c3.617,0.589,6.463,2.452,8.703,5.298c0.776,0.984,1.387,2.067,1.88,3.317c-1.9-0.33-3.658-0.91-5.366-1.645
		c-1.458-0.627-2.865-1.359-4.166-2.274c-1.595-1.12-3.15-1.146-4.764-0.02C27.374,10.499,26.336,11.149,25.186,11.585z"/>
	<path fill="#51697F" d="M67.053,6.242c-1.416,0.05-2.443,0.935-3.483,1.713c-2.128,1.592-3.742,3.619-4.804,6.073
		c-0.095,0.216-0.189,0.425-0.174,0.668c-0.17-0.157-0.344-0.313-0.511-0.472c-0.93-0.873-2.14-0.82-2.928,0.191
		c-0.945,1.216-2.061,2.195-3.502,2.765c-0.155,0.061-0.338,0.233-0.499,0.082c-0.147-0.139-0.039-0.343-0.001-0.517
		c1.136-5.197,5.984-9.717,11.264-10.499C63.961,6.013,65.507,5.932,67.053,6.242z"/>
	<path fill="#D3D3FE" d="M67.519,58.973c1.274-2.074,0.795-4.271,0.86-6.399c0.016-0.534,0.137-0.71,0.689-0.691
		c1.299,0.04,2.599-0.002,3.897,0.016c2.109,0.029,3.648,1.537,3.646,3.552c-0.002,1.988-1.483,3.471-3.582,3.516
		C71.241,59.002,69.452,58.973,67.519,58.973z"/>
	<path fill="#FEDDCF" d="M39.989,48.901c-4.966-0.242-8.877-2.267-11.297-6.762c-0.479-0.889-0.343-1.542,0.332-1.874
		c0.681-0.334,1.29-0.054,1.748,0.803c1.917,3.579,4.978,5.294,8.961,5.502c0.466,0.025,0.937-0.023,1.403,0.007
		c0.659,0.043,1.145,0.551,1.155,1.153c0.01,0.597-0.47,1.11-1.132,1.165C40.77,48.928,40.378,48.901,39.989,48.901z"/>
	<path fill="#8187CA" d="M18.957,76.639c-0.006,1.949-1.57,3.513-3.515,3.515c-1.927,0.002-3.529-1.587-3.543-3.51
		c-0.014-1.954,1.602-3.553,3.579-3.538C17.436,73.119,18.964,74.669,18.957,76.639z"/>
	<path fill="#8187CA" d="M68.402,76.584c0.015-1.964,1.56-3.486,3.531-3.481c1.937,0.006,3.525,1.592,3.523,3.516
		c-0.002,1.957-1.634,3.562-3.595,3.535C69.92,80.123,68.389,78.543,68.402,76.584z"/>
	<path fill="#FECBBE" d="M76.54,43.665c0.008,0.574-0.433,1.102-1.046,1.172c-0.646,0.073-1.188-0.342-1.281-1.073
		c-0.32-2.527-1.059-4.912-2.341-7.123c-0.242-0.417-0.804-0.832-0.652-1.239c0.118-0.316,0.815-0.381,1.187-0.651
		c0.613-0.444,0.91-0.283,1.281,0.343C75.25,37.725,76.209,40.546,76.54,43.665z"/>
	<path fill="#FDBAAD" d="M55.618,38.973c-1.456,0-1.456-0.001-0.942-1.211c0.447-1.052,0.989-2.053,1.588-3.026
		c0.192-0.312,0.352-0.373,0.669-0.187c0.533,0.309,1.088,0.581,1.634,0.868c-0.298,0.512-0.603,1.022-0.893,1.54
		c-0.179,0.315-0.396,0.626-0.488,0.97C56.938,38.83,56.407,39.205,55.618,38.973z"/>
	<path fill="#D3D3FE" d="M47.126,59.868c0.288-0.027,0.584-0.114,0.839,0.106C47.678,59.998,47.395,59.996,47.126,59.868z"/>
	<path d="M33.504,21.093c-0.584,0.911-0.155,2.045-0.04,3.216c0.153,1.552-1.246,2.884-2.749,2.881
		c-0.693-0.001-1.188-0.397-1.244-1.029c-0.06-0.667,0.272-1.105,0.901-1.27c0.361-0.094,0.766-0.094,0.77-0.586
		s-0.389-0.51-0.757-0.596c-0.602-0.139-0.941-0.556-0.922-1.182c0.018-0.588,0.358-0.98,0.93-1.096
		c0.379-0.076,0.752-0.116,0.747-0.604c-0.004-0.445-0.354-0.483-0.704-0.563c-0.668-0.15-1.03-0.588-0.962-1.295
		c0.063-0.666,0.568-1.032,1.332-1.007C32.291,18.011,33.501,19.309,33.504,21.093z"/>
	<path fill="#020201" d="M41.311,20.857c-0.007,1.011-0.389,1.508-1.164,1.509c-0.767,0-1.181-0.525-1.182-1.504
		c0-1.014,0.44-1.575,1.218-1.554C40.937,19.331,41.318,19.855,41.311,20.857z"/>
	<path d="M64.816,23.134c1.313,0.04,2.443,0.487,3.351,1.434c0.544,0.567,0.568,1.233,0.092,1.731
		c-0.473,0.496-1.111,0.475-1.728-0.054c-1.194-1.031-2.152-1.025-3.367,0.018c-0.601,0.516-1.259,0.524-1.73,0.021
		c-0.474-0.506-0.43-1.134,0.133-1.726C62.451,23.625,63.56,23.194,64.816,23.134z"/>
	<path fill="#010100" d="M75.78,23.483c-0.001,0.312,0.021,0.625-0.004,0.934c-0.056,0.67-0.541,1.118-1.171,1.113
		c-0.626-0.005-1.119-0.458-1.153-1.131c-0.032-0.648-0.034-1.3,0.002-1.948c0.038-0.667,0.543-1.118,1.17-1.113
		c0.632,0.005,1.105,0.457,1.153,1.131C75.801,22.806,75.781,23.146,75.78,23.483z"/>
	<path fill="#020201" d="M22.064,20.808c-0.008,0.91-0.354,1.403-1.04,1.486c-0.597,0.073-1.152-0.363-1.282-1.007
		c-0.203-1,0.144-1.832,0.847-2.033C21.46,19.005,22.077,19.653,22.064,20.808z"/>
	<path fill="#010101" d="M56.257,23.518c0,0.312,0.024,0.626-0.007,0.935c-0.065,0.665-0.456,1.043-1.117,1.067
		c-0.67,0.022-1.112-0.36-1.181-0.999c-0.076-0.719-0.076-1.459,0.002-2.177c0.069-0.642,0.52-1.02,1.187-0.991
		c0.661,0.027,1.052,0.411,1.11,1.075C56.282,22.789,56.257,23.154,56.257,23.518z"/>
	<path fill="#010202" d="M15.414,77.793c-0.637-0.02-1.185-0.613-1.142-1.24c0.042-0.624,0.569-1.104,1.197-1.09
		c0.664,0.014,1.156,0.551,1.123,1.225C16.562,77.309,16.022,77.815,15.414,77.793z"/>
	<path fill="#010102" d="M71.906,77.793c-0.648-0.01-1.166-0.566-1.139-1.229c0.025-0.63,0.538-1.113,1.17-1.104
		c0.624,0.011,1.149,0.524,1.159,1.139C73.107,77.236,72.543,77.803,71.906,77.793z"/>
</g>
</svg>
