<?xml version="1.0" encoding="utf-8"?>
<!-- Generator: Adobe Illustrator 16.0.0, SVG Export Plug-In . SVG Version: 6.00 Build 0)  -->
<!DOCTYPE svg PUBLIC "-//W3C//DTD SVG 1.1//EN" "http://www.w3.org/Graphics/SVG/1.1/DTD/svg11.dtd">
<svg version="1.1" id="Layer_1" xmlns="http://www.w3.org/2000/svg" xmlns:xlink="http://www.w3.org/1999/xlink" x="0px" y="0px"
	 width="85px" height="85px" viewBox="0 0 85 85" enable-background="new 0 0 85 85" xml:space="preserve">
<g>
	<path fill="#9E5737" d="M44.09,55.283l0.365,10.631c0.006,0.803,0.531,1.334,1.756,1.334c1.227,0,1.766-0.539,1.766-1.326
		l0.396-11.467L44.09,55.283L44.09,55.283z"/>
	<path fill="#9E5737" d="M47.732,14.598h-4.283L43.41,33.156l4.35-0.754L47.732,14.598z"/>
	<path fill="#F0AA6B" d="M45.402,2.525c-0.645,0.094-26.072,3.838-26.072,3.838c-1.043,0.201-1.893,1.15-1.898,2.369l0.014,0.525
		l2.82,3.326c0,0,8.047,6.498,8.646,6.383c0.6-0.113,21.218-15.008,21.218-15.008c-0.393-0.473-0.789-0.688-2.486-1.125
		C46.846,2.625,46.051,2.43,45.402,2.525L45.402,2.525z"/>
	<path fill="#9E5737" d="M20.449,24.193L20.16,10.342c0.006-1.205-0.337-1.709-1.03-2.066c-0.754-0.424-1.689,0.123-1.684,0.99
		L17.5,22.658c0,0.412-0.054,1.535,0.796,1.812l1.736,0.498v12.49l4.283-0.834V24.193H20.449L20.449,24.193z"/>
	<path fill="#9E5737" d="M38.489,50.912v-4.074c-1.631,0.203-2.412-0.053-2.412-0.053l-17.755-8.424v2.234
		c0,0.979,0,1.604,1.427,2.297l0.229,0.113l0.896,28.908c0.008,0.801,0.613,1.334,1.832,1.334c1.227,0,1.825-0.539,1.825-1.326
		l0.7-20.76l9.695,4.787l-0.242-5.213C35.868,51.316,37.182,51.08,38.489,50.912L38.489,50.912z"/>
	<path fill="#BA793E" d="M65.961,42.186l-28.234,5.447c-0.625,0.143-1.076,0.701-1.076,1.34v0.646c0,0.701,0.52,1.252,1.172,1.354
		c-1.104,0.033-2.25-0.182-3.244-0.68l0.994,30.873c0.008,0.801,0.58,1.334,1.799,1.334c1.227,0,1.812-0.539,1.812-1.326
		l0.842-24.867L60.307,52.4l0.713,22.773c0.008,0.801,0.602,1.332,1.818,1.332c1.227,0,1.791-0.537,1.791-1.326l1.018-29.445h0.006
		l0.498-0.094c0.822-0.154,1.414-0.877,1.414-1.711v-2.605L65.961,42.186z"/>
	<path fill="#F0AA6B" d="M66.797,42.105L38.629,47.5c-1.279,0.242-2.605,0.066-3.777-0.52l-16.039-7.959
		c-0.754-0.377-0.619-1.609,0.492-1.771l28.341-4.82c1.125-0.215,2.311-0.242,3.34,0.264l16.053,7.629
		C67.854,40.725,67.691,41.93,66.797,42.105L66.797,42.105z"/>
	<path fill="#BA793E" d="M48.689,3.898L21.514,7.932c-1.179,0.283-1.348,1.219-1.348,1.879l0.055,14.182
		c0,0.861,0.848,1.125,1.696,0.963l27.297-4.383c0.646-0.129,1.15-0.902,1.158-1.906L50.318,4.484
		C50.312,3.621,49.512,3.783,48.689,3.898z"/>
	<path fill="#9E5737" d="M40.018,50.637l20.113-3.852l0.066,1.912l-18.47,3.535l-0.498,3.838l-1.125,0.223L40.018,50.637z"/>
	<path fill="#77381F" d="M34.577,50.285L19.951,42.98c0,0,1.744,1.654,3.367,4.061c1.44,2.141,1.913,4.121,1.913,4.121l0.941,0.463
		v-3.621l8.451,4.195L34.577,50.285z"/>
	<path fill="#77381F" d="M44.109,55.518l0.129,3.859c0,0,0.652-1.186,1.73-2.008c1.043-0.801,2.344-0.982,2.344-0.982l0.061-1.689
		L44.109,55.518z"/>
</g>
</svg>
