<?xml version="1.0" encoding="utf-8"?>
<!-- Generator: Adobe Illustrator 16.0.0, SVG Export Plug-In . SVG Version: 6.00 Build 0)  -->
<!DOCTYPE svg PUBLIC "-//W3C//DTD SVG 1.1//EN" "http://www.w3.org/Graphics/SVG/1.1/DTD/svg11.dtd">
<svg version="1.1" id="Layer_1" xmlns="http://www.w3.org/2000/svg" xmlns:xlink="http://www.w3.org/1999/xlink" x="0px" y="0px"
	 width="85px" height="85px" viewBox="0 0 85 85" enable-background="new 0 0 85 85" xml:space="preserve">
<g>
	<path fill="#FDCD60" d="M70.016,20.082L64.301,18.5l5.715-1.496l1.582-5.713l1.582,5.713l5.627,1.496l-5.627,1.582l-1.582,5.715
		L70.016,20.082z M8.477,70.105l-3.604-0.881l3.604-0.879l0.791-3.604l0.879,3.604l3.604,0.879l-3.604,0.881l-0.879,3.604
		L8.477,70.105z"/>
	<path fill="#FDCD60" d="M76.785,26.061l-2.287-0.527l2.287-0.527l0.438-2.287l0.527,2.287l2.285,0.527l-2.285,0.527l-0.527,2.197
		L76.785,26.061z M7.51,40.389L5.4,39.951l2.109-0.529l0.439-2.109l0.527,2.109l2.109,0.529l-2.109,0.438L7.949,42.5L7.51,40.389z"
		/>
	<path fill="#5546CB" d="M6.807,23.598c0,0.439,0.354,0.793,0.791,0.793s0.791-0.354,0.791-0.793c0-0.436-0.354-0.791-0.791-0.791
		S6.807,23.162,6.807,23.598z"/>
	<path fill="#5546CB" d="M77.752,68.785c-1.215,0-2.199-0.984-2.199-2.197c0-1.215,0.984-2.199,2.199-2.199
		c1.213,0,2.197,0.984,2.197,2.199l0,0C79.949,67.801,78.965,68.785,77.752,68.785z M77.752,65.621
		c-0.486,0-0.879,0.393-0.879,0.879c0,0.484,0.393,0.879,0.879,0.879c0.484,0,0.879-0.395,0.879-0.879
		C78.631,66.014,78.236,65.621,77.752,65.621z"/>
	<path fill="#AFBCF3" d="M77.84,48.83c-1.672-1.32-3.957-2.461-6.857-3.518c-0.176,0.615-0.527,1.23-1.143,1.846v0.529
		c0.609,0.178,1.178,0.477,1.67,0.879c0.615,0.525,0.879,1.143,0.791,1.67c-0.088,0.525-0.615,0.967-1.406,1.229h-2.197
		c0.264,0.705,0.439,1.408,0.439,1.936s-0.352,1.406-0.881,1.67l-0.615,0.176c-0.438,0-0.879-0.176-1.316-0.527
		c-0.459-0.367-0.846-0.812-1.145-1.318l-0.703,0.176c-0.615,1.055-1.494,1.67-2.285,1.67h-0.615
		c-0.27-0.129-0.486-0.346-0.615-0.615c-4.047,0.994-8.16,1.699-12.309,2.109c-2.725,0.264-5.449,0.439-8.088,0.439
		c-7.999,0-15.561-1.23-22.416-3.691c-1.583-0.529-2.639-2.111-2.639-3.957v-4.834c-3.779,1.143-6.769,2.549-8.703,4.131
		c-1.934,1.584-2.725,2.99-2.725,4.66s0.879,3.252,2.725,4.66c1.847,1.404,4.924,2.988,8.703,4.131
		c7.121,2.199,16.617,3.43,26.727,3.43s19.604-1.23,26.727-3.43c3.867-1.143,6.768-2.549,8.703-4.131
		c1.934-1.584,2.725-2.99,2.725-4.66C80.389,51.818,79.598,50.236,77.84,48.83z"/>
	<path fill="#5546CB" d="M78.895,47.422c-2.021-1.67-5.012-3.076-8.879-4.307c0.352-8.791-1.23-15.385-4.66-19.957
		c-4.307-5.713-11.516-8.352-22.506-8.264c-9.758-0.088-17.055,2.461-21.625,7.561c-3.428,3.869-5.362,9.055-5.627,15.561
		c-0.057,1.613-0.027,3.227,0.088,4.836h-0.439c-4.044,1.23-7.121,2.727-9.318,4.396S2.5,51.115,2.5,53.314
		c0,2.197,1.143,4.219,3.428,6.064c2.287,1.846,5.274,3.166,9.318,4.396c7.297,2.285,16.967,3.516,27.254,3.516
		c10.285,0,19.955-1.23,27.252-3.516c4.045-1.23,7.121-2.727,9.318-4.396s3.43-3.867,3.43-6.064
		C82.5,51.115,81.18,49.268,78.895,47.422z M68.785,50.236l-1.145-0.439c0.232-0.373,0.383-0.793,0.439-1.23h1.055
		c0.615,0.176,1.143,0.439,1.582,0.703s0.352,0.439,0.352,0.527s-0.176,0.266-0.613,0.354
		C70.016,50.238,69.398,50.412,68.785,50.236z M68.08,53.49c0,0.438-0.088,0.615-0.264,0.703s-0.352,0-0.703-0.266
		c-0.352-0.264-0.791-0.791-1.055-1.406c-0.205-0.387-0.354-0.803-0.439-1.23c0.451-0.109,0.873-0.32,1.23-0.615h0.088
		c0.242,0.295,0.449,0.621,0.615,0.967c0.352,0.703,0.439,1.318,0.439,1.846h0.088V53.49z M62.277,54.193
		c-0.264-0.088-0.352-1.057,0.266-2.287c0.18-0.385,0.418-0.74,0.703-1.055c0.348,0.223,0.734,0.371,1.143,0.439
		c-0.072,0.461-0.221,0.906-0.439,1.318c-0.703,1.23-1.494,1.758-1.758,1.584H62.277z M61.84,48.566h0.088
		c0.057,0.436,0.205,0.855,0.439,1.23l-1.145,0.439c-0.615,0.176-1.23,0.176-1.67,0.088c-0.441-0.088-0.527-0.266-0.615-0.354
		s0.088-0.352,0.352-0.527s0.967-0.527,1.584-0.703L61.84,48.566z M60.168,44.609h0.705c0.438,0.088,1.055,0.352,1.494,0.791
		l0.613,0.615c-0.355,0.344-0.627,0.766-0.791,1.23l-0.791-0.527c-1.23-0.879-1.582-1.846-1.406-2.021L60.168,44.609z
		 M65.092,42.236c0.264,0,0.791,0.791,0.791,2.109c-0.006,0.268-0.035,0.531-0.088,0.791h-1.582
		c-0.053-0.26-0.082-0.523-0.088-0.791c0-1.143,0.527-2.021,0.791-2.021L65.092,42.236z M65.092,46.193
		c1.068,0,1.934,0.865,1.934,1.934s-0.865,1.934-1.934,1.934s-1.934-0.865-1.934-1.934c0.074-0.955,0.809-1.725,1.758-1.846
		L65.092,46.193z M68.785,46.543l-0.793,0.527c-0.164-0.465-0.436-0.889-0.791-1.23l0.615-0.615
		c0.527-0.439,1.057-0.703,1.494-0.791c0.439-0.088,0.615,0,0.703,0.088s-0.352,1.318-1.406,2.109L68.785,46.543z M22.543,23.686
		c4.219-4.746,11.076-7.119,20.307-6.943h0.439c10.197,0,16.791,2.373,20.66,7.561c2.373,3.076,3.691,7.207,4.219,12.396
		c-6.152,2.373-12.309,4.043-18.461,4.746c-5.078,0.627-10.211,0.656-15.297,0.088c-8.791-0.967-14.681-3.518-16.791-4.572h-0.264
		C17.883,31.422,19.553,26.939,22.543,23.686z M17.355,38.719c2.55,1.232,8.439,3.518,16.879,4.484
		c5.23,0.586,10.512,0.557,15.736-0.088c5.979-0.703,12.043-2.287,18.021-4.572v5.275l-0.969,0.615h-0.088
		c0-1.846-0.791-3.254-1.934-3.254c-1.145,0-1.936,1.408-1.936,3.254h-0.088c-0.615-0.527-1.316-0.879-2.02-1.055
		c-0.705-0.176-1.408,0-1.76,0.439s-0.088,2.375,1.318,3.604c-0.791,0.176-1.494,0.529-2.021,0.967
		c-0.527,0.439-0.879,1.145-0.791,1.67c0.088,0.527,0.615,0.969,1.406,1.23h0.967l1.23-0.176c-0.217,0.475-0.365,0.979-0.438,1.496
		c-4.02,0.996-8.104,1.699-12.221,2.109c-2.639,0.264-5.363,0.439-7.914,0.439c-7.734,0-15.12-1.23-21.801-3.605
		c-0.879-0.264-1.406-1.229-1.494-2.373L17.355,38.719z M77.84,58.148c-1.936,1.584-4.924,2.988-8.703,4.133
		c-7.121,2.197-16.615,3.428-26.727,3.428c-10.109,0-19.604-1.23-26.725-3.428c-3.868-1.145-6.77-2.549-8.704-4.133
		c-1.935-1.582-2.726-2.988-2.726-4.658s0.879-3.254,2.726-4.66c1.846-1.408,4.835-2.902,8.704-4.133v4.748
		c0,1.846,1.055,3.428,2.637,3.955c6.945,2.463,14.417,3.691,22.416,3.691c2.639,0,5.363-0.176,8.09-0.438
		c4.145-0.412,8.26-1.117,12.307-2.111c0.129,0.27,0.346,0.486,0.615,0.615h0.615c0.791,0,1.582-0.615,2.285-1.67l0.703-0.176
		c0.299,0.506,0.686,0.951,1.145,1.318c0.438,0.354,0.879,0.527,1.316,0.527l0.615-0.176c0.529-0.264,0.881-0.879,0.881-1.67
		s-0.176-1.318-0.439-1.934h2.021c0.791-0.176,1.318-0.615,1.406-1.23s-0.176-1.143-0.791-1.67c-0.492-0.402-1.061-0.701-1.67-0.879
		v-0.527c0.615-0.615,0.967-1.23,1.143-1.846c2.9,1.055,5.273,2.197,6.857,3.518c1.582,1.318,2.725,2.988,2.725,4.658
		C80.564,55.072,79.598,56.742,77.84,58.148z"/>
	<path fill="#FDCD60" d="M34.41,41.533c5.086,0.566,10.219,0.537,15.297-0.088c6.152-0.703,12.309-2.375,18.461-4.748
		c-0.439-5.188-1.846-9.318-4.219-12.396c-3.957-5.186-10.463-7.561-20.66-7.561H42.85c-9.229-0.088-16.088,2.287-20.307,6.945
		c-2.902,3.252-4.66,7.736-5.1,13.188h0.264C19.729,38.016,25.619,40.477,34.41,41.533z"/>
	<path fill="#F97744" d="M17.443,49.445c0,1.055,0.615,2.021,1.494,2.373c6.682,2.375,14.066,3.604,21.803,3.604
		c2.549,0,5.273-0.176,7.912-0.438c4.117-0.41,8.201-1.115,12.221-2.111c0.072-0.516,0.221-1.02,0.438-1.494l-1.23,0.176h-0.967
		c-0.791-0.176-1.318-0.615-1.406-1.23s0.176-1.143,0.791-1.67s1.23-0.791,2.021-0.967c-1.494-1.143-2.021-2.727-1.318-3.604
		c0.703-0.879,1.055-0.617,1.76-0.439c0.703,0.176,1.316,0.527,2.02,1.055h0.088c0-1.846,0.791-3.252,1.936-3.252
		c1.143,0,1.934,1.406,1.934,3.252h0.088l0.969-0.615v-5.451c-5.979,2.287-12.045,3.781-18.021,4.572
		c-5.225,0.645-10.506,0.674-15.736,0.088c-8.439-0.967-14.242-3.34-16.879-4.484L17.443,49.445z"/>
	<path fill="#FFFFFF" d="M62.016,47.158c0.164-0.465,0.436-0.887,0.791-1.23l-0.617-0.615c-0.525-0.439-1.055-0.703-1.492-0.791
		h-0.705c-0.176,0.176,0.176,1.143,1.145,1.934L62.016,47.158z M58.85,49.973c0,0.088,0.176,0.264,0.615,0.352s1.057,0.088,1.672,0
		l1.143-0.439c-0.232-0.373-0.383-0.793-0.439-1.23h-1.143c-0.615,0.176-1.145,0.439-1.582,0.703
		C58.674,49.621,58.762,49.885,58.85,49.973z M64.213,51.291c-0.406-0.068-0.795-0.219-1.145-0.439
		c-0.283,0.314-0.521,0.67-0.701,1.055c-0.615,1.23-0.439,2.199-0.266,2.287c0.176,0.088,1.057-0.354,1.67-1.584
		C63.992,52.197,64.141,51.752,64.213,51.291z M66.938,50.764H66.85c-0.357,0.295-0.779,0.506-1.23,0.615
		c0.088,0.43,0.234,0.844,0.439,1.23c0.264,0.615,0.703,1.143,1.055,1.406c0.352,0.266,0.615,0.266,0.703,0.266
		s0.264-0.266,0.264-0.703c0-0.441-0.176-1.145-0.439-1.758C67.455,51.438,67.219,51.082,66.938,50.764z M70.455,50.324
		c0.352-0.088,0.525-0.266,0.613-0.354c0.09-0.088-0.088-0.352-0.352-0.527s-0.967-0.527-1.582-0.703h-1.143
		c-0.059,0.438-0.207,0.857-0.439,1.23l1.143,0.439C69.398,50.412,70.016,50.412,70.455,50.324z M69.84,44.697
		c-0.088-0.088-0.264-0.088-0.703-0.088s-1.057,0.352-1.496,0.791l-0.615,0.615c0.357,0.344,0.627,0.766,0.791,1.23l0.793-0.527
		C69.664,45.84,70.016,44.873,69.84,44.697z M64.125,44.521c0.006,0.266,0.035,0.531,0.088,0.791h1.494
		c0.053-0.26,0.082-0.525,0.088-0.791c0-1.318-0.527-2.109-0.791-2.109S64.125,43.203,64.125,44.521z"/>
	<path fill="#FDCD60" d="M64.916,50.236c1.066,0,1.934-0.865,1.934-1.934s-0.865-1.934-1.934-1.934s-1.936,0.865-1.936,1.934
		C63.025,49.352,63.867,50.191,64.916,50.236z"/>
</g>
</svg>
