<?xml version="1.0" encoding="utf-8"?>
<!-- Generator: Adobe Illustrator 16.0.0, SVG Export Plug-In . SVG Version: 6.00 Build 0)  -->
<!DOCTYPE svg PUBLIC "-//W3C//DTD SVG 1.1//EN" "http://www.w3.org/Graphics/SVG/1.1/DTD/svg11.dtd">
<svg version="1.1" id="Layer_1" xmlns="http://www.w3.org/2000/svg" xmlns:xlink="http://www.w3.org/1999/xlink" x="0px" y="0px"
	 width="85px" height="85px" viewBox="0 0 85 85" enable-background="new 0 0 85 85" xml:space="preserve">
<g>
	<path fill="#F4F4F4" d="M20.805,8.768c0,2.445-1.982,4.43-4.428,4.43c-2.447,0-4.43-1.984-4.43-4.43v-0.59
		c0-2.443,1.982-4.428,4.43-4.428c2.445,0,4.428,1.984,4.428,4.428V8.768z"/>
	<path fill="#010101" d="M16.377,13.918c-2.84,0-5.15-2.311-5.15-5.15v-0.59c0-2.838,2.311-5.148,5.15-5.148
		s5.148,2.311,5.148,5.148v0.59C21.525,11.608,19.217,13.918,16.377,13.918z M16.377,4.471c-2.045,0-3.709,1.662-3.709,3.707v0.59
		c0,2.045,1.664,3.709,3.709,3.709s3.707-1.664,3.707-3.709v-0.59C20.084,6.133,18.422,4.471,16.377,4.471z"/>
	<polygon fill="#F0536D" points="68.135,11.92 54.408,8.633 50.592,11.049 60.957,16.461 	"/>
	<path fill="#010101" d="M60.957,17.182c-0.115,0-0.229-0.027-0.334-0.082l-10.365-5.412c-0.229-0.119-0.377-0.354-0.387-0.609
		c-0.01-0.258,0.117-0.502,0.334-0.639l3.818-2.414c0.164-0.105,0.363-0.137,0.553-0.092l13.727,3.285
		c0.281,0.066,0.496,0.297,0.543,0.582c0.049,0.287-0.08,0.572-0.324,0.729l-7.18,4.539C61.225,17.145,61.09,17.182,60.957,17.182z
		 M52.033,10.989l8.889,4.641l5.385-3.404l-11.77-2.818L52.033,10.989z"/>
	<path fill="#F4F4F4" d="M80.543,5.532c1.217,1.924-1.277,3.455-2.268,4.094c-4.064,2.605-15.619,9.879-21.312,13.48
		c-6.281,3.975-16.227,3.674-16.227,3.674l-6.291-5.311l2.832-1.793l6.332,2.916c0,0,22.949-15.154,27.17-17.824
		c1.715-1.084,3.395-1.547,4.908-1.547c1.266-0.018,2.396,0.295,3.297,0.838C79.646,4.446,80.176,4.95,80.543,5.532"/>
	<path fill="#010101" d="M41.221,27.506c-0.318,0-0.496-0.006-0.504-0.006c-0.162-0.004-0.318-0.064-0.443-0.168l-6.291-5.311
		c-0.176-0.148-0.271-0.371-0.254-0.602c0.016-0.229,0.139-0.436,0.332-0.559l2.834-1.793c0.205-0.131,0.465-0.148,0.688-0.047
		l5.967,2.75C46.4,19.889,66.496,6.625,70.396,4.161c1.713-1.084,3.543-1.656,5.289-1.658c1.355-0.018,2.625,0.309,3.674,0.941
		c0.744,0.438,1.367,1.027,1.795,1.705c0.674,1.064,0.562,2.242-0.311,3.312c-0.639,0.781-1.551,1.367-2.096,1.719l-0.082,0.053
		c-2.836,1.816-9.242,5.861-14.895,9.43c-2.432,1.533-4.695,2.963-6.42,4.053c-2.406,1.523-5.572,2.611-9.414,3.238
		C44.865,27.452,42.217,27.506,41.221,27.506z M41.006,26.065c0.062,0,0.133,0,0.215,0c1.623,0,9.99-0.172,15.357-3.568
		c1.727-1.09,3.99-2.52,6.422-4.055c5.65-3.566,12.057-7.609,14.887-9.422l0.08-0.053c1.969-1.266,2.537-2.148,1.969-3.049
		c-0.307-0.484-0.762-0.912-1.314-1.236c-0.826-0.5-1.832-0.754-2.92-0.738c-0.004,0-0.008,0-0.012,0
		c-1.477,0-3.039,0.496-4.523,1.434C67,8.014,44.238,23.043,44.008,23.196c-0.207,0.137-0.473,0.158-0.697,0.053l-5.977-2.752
		l-1.67,1.057L41.006,26.065z"/>
	<polygon fill="#F0536D" points="68.324,12.225 65.871,25.747 61.174,28.717 61.148,16.764 	"/>
	<path fill="#010101" d="M61.174,29.44c-0.119,0-0.238-0.029-0.348-0.09c-0.23-0.125-0.373-0.367-0.373-0.631l-0.025-11.953
		c-0.002-0.248,0.125-0.479,0.336-0.609l7.178-4.541c0.24-0.152,0.551-0.148,0.787,0.012s0.357,0.445,0.307,0.727l-2.453,13.521
		c-0.037,0.199-0.154,0.373-0.324,0.48l-4.697,2.971C61.441,29.401,61.309,29.44,61.174,29.44z M61.869,17.161l0.021,10.25
		l3.326-2.104l2.105-11.596L61.869,17.161z"/>
	<path fill="#50B4E6" d="M78.984,4.059l-4.104,2.594c-0.572,0.365-1.342,0.199-1.705-0.375c-0.365-0.582-0.188-1.346,0.387-1.709
		l2.127-1.346C76.955,3.204,78.086,3.516,78.984,4.059"/>
	<path fill="#010101" d="M74.219,7.567c-0.676,0-1.291-0.338-1.648-0.904c-0.576-0.914-0.305-2.125,0.605-2.703l2.127-1.348
		c0.113-0.07,0.242-0.109,0.375-0.111c1.355-0.02,2.631,0.307,3.68,0.941c0.215,0.129,0.346,0.357,0.35,0.607
		c0.002,0.25-0.125,0.484-0.336,0.617l-4.104,2.596C74.953,7.461,74.59,7.567,74.219,7.567z M75.898,3.942l-1.949,1.234
		c-0.242,0.152-0.314,0.475-0.162,0.715c0.092,0.146,0.254,0.232,0.432,0.232c0.1,0,0.193-0.029,0.277-0.08l2.961-1.873
		C76.967,4.03,76.443,3.952,75.898,3.942z"/>
	<path fill="#F0536D" d="M43.609,22.592l-1.871,1.438c0,0-1.105,0.637-1.5,2.326l-5.791-4.887l2.832-1.793L43.609,22.592z"/>
	<path fill="#010101" d="M40.238,27.077c-0.168,0-0.332-0.059-0.465-0.17l-5.791-4.887c-0.176-0.148-0.271-0.371-0.254-0.6
		c0.016-0.229,0.139-0.438,0.334-0.561l2.83-1.793c0.207-0.131,0.465-0.148,0.688-0.045l6.332,2.916
		c0.229,0.105,0.387,0.322,0.414,0.574s-0.076,0.498-0.277,0.652l-1.873,1.438c-0.023,0.02-0.051,0.037-0.078,0.053
		c-0.025,0.018-0.846,0.531-1.156,1.865c-0.059,0.246-0.236,0.441-0.477,0.521C40.393,27.065,40.316,27.077,40.238,27.077z
		 M35.664,21.551l4.242,3.58c0.504-1.047,1.217-1.562,1.418-1.693l0.898-0.691l-4.891-2.252L35.664,21.551z"/>
	<path fill="#010101" d="M72.986,20.899c-0.234,0-0.465-0.115-0.604-0.326c-0.219-0.332-0.127-0.779,0.207-0.998l7.887-5.174
		c0.334-0.217,0.779-0.125,0.998,0.209c0.219,0.332,0.125,0.779-0.207,0.998l-7.887,5.172C73.26,20.86,73.123,20.899,72.986,20.899z
		"/>
	<path fill="#010101" d="M44.506,19.067c-0.23,0-0.461-0.111-0.6-0.32c-0.221-0.33-0.133-0.779,0.199-1l4.992-3.342
		c0.332-0.223,0.779-0.133,1,0.197c0.223,0.332,0.135,0.777-0.197,1l-4.994,3.344C44.783,19.028,44.645,19.067,44.506,19.067z"/>
	<path fill="#010101" d="M52.83,30.889c-0.227,0-0.451-0.107-0.592-0.309c-0.229-0.326-0.148-0.773,0.178-1.002l4.83-3.383
		c0.326-0.229,0.775-0.148,1.004,0.178s0.148,0.775-0.178,1.004l-4.83,3.381C53.117,30.848,52.973,30.889,52.83,30.889z"/>
	<path fill="#010101" d="M40.771,30.555c-0.229,0-0.451-0.107-0.592-0.309c-0.229-0.326-0.146-0.775,0.18-1.004l7.148-4.994
		c0.326-0.229,0.775-0.148,1.004,0.178s0.148,0.775-0.178,1.002l-7.15,4.996C41.059,30.514,40.914,30.555,40.771,30.555z"/>
	<polygon fill="#F4F4F4" points="25.146,81.779 7.603,81.779 11.941,32.327 16.383,33.387 20.805,32.327 21.631,41.815 	"/>
	<path fill="#010101" d="M25.148,82.5h-0.002H7.603c-0.202,0-0.396-0.086-0.53-0.234c-0.138-0.148-0.205-0.348-0.188-0.551
		l4.34-49.451c0.02-0.207,0.127-0.398,0.297-0.521c0.17-0.121,0.385-0.164,0.59-0.117l4.271,1.021l4.254-1.021
		c0.203-0.049,0.42-0.006,0.59,0.117s0.277,0.312,0.297,0.521l0.826,9.486l3.51,39.912c0.006,0.037,0.01,0.076,0.01,0.117
		C25.869,82.176,25.545,82.5,25.148,82.5z M8.39,81.059h15.97l-3.445-39.181l-0.754-8.654l-3.607,0.865
		c-0.109,0.025-0.225,0.025-0.336,0l-3.628-0.865L8.39,81.059z"/>
	<path fill="#F4F4F4" d="M26.314,23.45c0,5.49-4.449,9.939-9.938,9.939c-5.489,0-9.94-4.451-9.94-9.939v-6.027
		c0-5.488,4.451-9.939,9.94-9.939c5.488,0,9.938,4.451,9.938,9.939V23.45z"/>
	<path fill="#010101" d="M16.375,34.11c-5.879,0-10.66-4.783-10.66-10.66v-6.027c0-5.879,4.781-10.662,10.66-10.662
		s10.66,4.783,10.66,10.662v6.027C27.035,29.329,22.254,34.11,16.375,34.11z M16.375,8.204c-5.084,0-9.219,4.135-9.219,9.219v6.027
		c0,5.082,4.135,9.219,9.219,9.219s9.219-4.135,9.219-9.219v-6.027C25.594,12.338,21.459,8.204,16.375,8.204z"/>
	<polyline fill="#50B4E6" points="14.609,16.696 29.33,16.696 29.33,24.295 3.423,24.295 3.423,16.696 10.684,16.696 	"/>
	<path fill="#010101" d="M29.33,25.016H3.423c-0.398,0-0.722-0.322-0.722-0.721v-7.6c0-0.398,0.322-0.721,0.722-0.721h7.261
		c0.396,0,0.721,0.322,0.721,0.721c0,0.396-0.322,0.721-0.721,0.721h-6.54v6.158h24.466v-6.158h-14
		c-0.398,0-0.723-0.324-0.723-0.721c0-0.398,0.324-0.721,0.723-0.721H29.33c0.398,0,0.721,0.322,0.721,0.721v7.6
		C30.051,24.694,29.729,25.016,29.33,25.016z"/>
	<path fill="#010101" d="M8.652,24.362c-0.398,0-0.722-0.322-0.722-0.721v-6.947c0-0.398,0.323-0.721,0.722-0.721
		c0.397,0,0.721,0.322,0.721,0.721v6.947C9.373,24.04,9.051,24.362,8.652,24.362z"/>
	<path fill="#010101" d="M16.377,24.362c-0.398,0-0.721-0.322-0.721-0.721v-6.947c0-0.398,0.322-0.721,0.721-0.721
		s0.721,0.322,0.721,0.721v6.947C17.098,24.04,16.775,24.362,16.377,24.362z"/>
	<path fill="#010101" d="M24.098,24.362c-0.396,0-0.721-0.322-0.721-0.721v-6.947c0-0.398,0.322-0.721,0.721-0.721
		c0.4,0,0.723,0.322,0.723,0.721v6.947C24.818,24.04,24.496,24.362,24.098,24.362z"/>
	<path fill="#F0536D" d="M81.58,48.055v4.119h-5.637v29.605h-6.527V52.662c-8.695-10.783-36.299-11.388-36.299-11.388
		c-0.555,0-1.125,0-1.748,0.018c-2.17,0.035-4.02,0.119-6.021,0.271c-0.068,0.018-0.133,0.018-0.188,0.018
		c-0.805,0.049-1.629,0.102-2.521,0.168c-0.199,0.016-0.402,0.033-0.57,0.033c-0.137,0.016-0.271,0.016-0.422,0.033l-0.842-9.488
		C20.805,32.327,62.639,31.368,81.58,48.055"/>
	<path fill="#010101" d="M75.943,82.5h-6.527c-0.396,0-0.721-0.324-0.721-0.721V52.922c-4.418-5.268-13.729-7.955-20.803-9.283
		c-7.723-1.453-14.516-1.636-14.783-1.644c-0.545,0-1.109,0-1.721,0.02c-2.129,0.033-3.959,0.113-5.939,0.264
		c-0.109,0.02-0.201,0.021-0.266,0.021c-0.891,0.055-1.656,0.105-2.492,0.168l-0.062,0.006c-0.174,0.014-0.354,0.025-0.52,0.027
		c-0.072,0.008-0.141,0.014-0.205,0.018c-0.059,0.002-0.115,0.006-0.178,0.014c-0.193,0.02-0.389-0.037-0.537-0.158
		c-0.15-0.123-0.244-0.303-0.262-0.496l-0.842-9.484c-0.002-0.021-0.002-0.043-0.002-0.064c0-0.029,0.008-0.709,0.791-0.723
		c0.055,0,0.137-0.002,0.246-0.002c0.215-0.002,0.533-0.006,0.947-0.006c3.951,0,14.414,0.221,26.178,2.268
		c6.748,1.174,12.846,2.771,18.121,4.744c6.434,2.406,11.711,5.402,15.688,8.906c0.156,0.137,0.244,0.334,0.244,0.541v4.119
		c0,0.396-0.32,0.721-0.721,0.721h-4.916v28.885C76.664,82.176,76.342,82.5,75.943,82.5z M70.137,81.059h5.086V52.174
		c0-0.398,0.322-0.721,0.723-0.721h4.916v-3.072C63.957,33.78,28.945,33.038,22.07,33.038c-0.178,0-0.336,0-0.479,0.002l0.711,8.01
		c0.068-0.004,0.143-0.01,0.213-0.016l0.066-0.004c0.854-0.064,1.629-0.115,2.535-0.17c0.02-0.002,0.039-0.002,0.062-0.002
		c0.004,0,0.008,0,0.012,0c0.033-0.008,0.066-0.014,0.102-0.016c2.029-0.152,3.898-0.236,6.064-0.271
		c0.625-0.018,1.203-0.018,1.76-0.018c0.006,0,0.012,0,0.016,0c0.07,0.002,7.055,0.17,15.008,1.662
		c4.686,0.88,8.795,2.041,12.211,3.451c4.326,1.787,7.566,3.988,9.627,6.543c0.104,0.129,0.158,0.289,0.158,0.453V81.059
		L70.137,81.059z"/>
	<path fill="#F4F4F4" d="M69.418,52.662v29.117H25.146l-2.104-23.834l-1.412-16.132c0.119-0.018,0.27-0.018,0.436-0.033
		c0.172,0,0.373-0.018,0.572-0.033c0.707-0.051,9.926-0.471,10.479-0.471c0,0,1.482,0.033,3.889,0.217
		c3.852,0.303,10.074,0.994,16.215,2.591C59.662,45.75,66.002,48.424,69.418,52.662"/>
	<path fill="#010101" d="M69.418,82.5H25.146c-0.373,0-0.686-0.285-0.719-0.658l-2.104-23.834l-1.41-16.13
		c-0.033-0.381,0.234-0.721,0.611-0.775c0.1-0.016,0.201-0.021,0.297-0.025c0.057-0.004,0.115-0.008,0.178-0.014
		c0.021-0.002,0.045-0.002,0.066-0.002c0.121,0,0.277-0.014,0.441-0.025l0.074-0.006c0.648-0.049,9.885-0.475,10.533-0.475
		c0.006,0,0.012,0,0.018,0.002c0.062,0,1.529,0.033,3.928,0.219c4.119,0.324,10.297,1.039,16.34,2.611
		c7.938,2.055,13.516,5.021,16.578,8.824c0.104,0.127,0.158,0.287,0.158,0.451v29.117C70.139,82.176,69.816,82.5,69.418,82.5z
		 M25.805,81.059h42.893V52.922c-2.9-3.465-8.166-6.201-15.658-8.141c-5.941-1.545-12.029-2.25-16.09-2.57
		c-2.26-0.174-3.715-0.211-3.838-0.215c-0.574,0.004-9.648,0.412-10.418,0.471l-0.07,0.006c-0.068,0.006-0.139,0.01-0.209,0.016
		l1.348,15.394L25.805,81.059z"/>
	<rect x="49.514" y="63.959" fill="#50B4E6" width="11.773" height="17.82"/>
	<path fill="#010101" d="M61.287,82.5H49.514c-0.396,0-0.721-0.324-0.721-0.721v-17.82c0-0.396,0.324-0.721,0.721-0.721h11.773
		c0.398,0,0.721,0.322,0.721,0.721v17.82C62.008,82.176,61.686,82.5,61.287,82.5z M50.234,81.059h10.332V64.682H50.234V81.059z"/>
	<rect x="30.73" y="63.959" fill="#50B4E6" width="11.775" height="17.82"/>
	<path fill="#010101" d="M42.506,82.5H30.73c-0.396,0-0.721-0.324-0.721-0.721v-17.82c0-0.396,0.322-0.721,0.721-0.721h11.775
		c0.396,0,0.721,0.322,0.721,0.721v17.82C43.227,82.176,42.902,82.5,42.506,82.5z M31.451,81.059h10.332V64.682H31.451V81.059z"/>
	<path fill="#F4F4F4" d="M37.004,41.493v16.453H23.041l-1.41-16.132c0.117-0.018,0.27-0.018,0.438-0.031
		c0.168,0,0.371-0.02,0.57-0.033c0.705-0.053,9.926-0.473,10.48-0.473C33.119,41.276,34.6,41.309,37.004,41.493"/>
	<path fill="#010101" d="M37.004,58.666H23.041c-0.373,0-0.686-0.285-0.717-0.658l-1.412-16.13
		c-0.033-0.381,0.234-0.721,0.611-0.775c0.102-0.016,0.203-0.021,0.301-0.025c0.055-0.004,0.115-0.008,0.178-0.014
		c0.021-0.002,0.043-0.002,0.066-0.002c0.119,0,0.285-0.014,0.443-0.025l0.07-0.006c0.648-0.047,9.885-0.475,10.535-0.475
		c0.006,0,0.012,0.002,0.018,0.002c0.062,0,1.535,0.035,3.926,0.219c0.375,0.027,0.664,0.342,0.664,0.719v16.451
		C37.727,58.344,37.402,58.666,37.004,58.666z M23.703,57.225h12.58V42.163c-1.889-0.133-3.049-0.162-3.172-0.166
		c-0.572,0.004-9.65,0.412-10.42,0.471l-0.064,0.006c-0.07,0.006-0.143,0.01-0.215,0.016L23.703,57.225z"/>
	<path fill="#F4F4F4" d="M53.219,44.084v13.861H37.004V41.495C40.855,41.797,47.078,42.487,53.219,44.084"/>
	<path fill="#010101" d="M53.219,58.666H37.004c-0.396,0-0.721-0.322-0.721-0.721V41.495c0-0.201,0.084-0.393,0.23-0.529
		c0.148-0.137,0.348-0.205,0.547-0.189c4.119,0.324,10.297,1.041,16.34,2.611c0.316,0.082,0.539,0.369,0.539,0.697v13.861
		C53.941,58.344,53.617,58.666,53.219,58.666z M37.727,57.225h14.771v-12.58c-5.398-1.357-10.865-2.033-14.771-2.367V57.225z"/>
	<path fill="#F4F4F4" d="M69.418,52.662v5.283H53.219V44.084C59.662,45.75,66.002,48.424,69.418,52.662"/>
	<path fill="#010101" d="M69.418,58.666H53.219c-0.396,0-0.721-0.322-0.721-0.721V44.084c0-0.223,0.105-0.434,0.279-0.568
		c0.178-0.139,0.406-0.186,0.623-0.129c7.938,2.055,13.516,5.021,16.578,8.824c0.104,0.127,0.158,0.287,0.158,0.451v5.283
		C70.139,58.344,69.816,58.666,69.418,58.666z M53.941,57.225h14.756v-4.303c-2.781-3.322-7.742-5.979-14.756-7.898V57.225z"/>
</g>
</svg>
