<?xml version="1.0" encoding="utf-8"?>
<!-- Generator: Adobe Illustrator 16.0.0, SVG Export Plug-In . SVG Version: 6.00 Build 0)  -->
<!DOCTYPE svg PUBLIC "-//W3C//DTD SVG 1.1//EN" "http://www.w3.org/Graphics/SVG/1.1/DTD/svg11.dtd">
<svg version="1.1" id="Layer_1" xmlns="http://www.w3.org/2000/svg" xmlns:xlink="http://www.w3.org/1999/xlink" x="0px" y="0px"
	 width="85px" height="85px" viewBox="0 0 85 85" enable-background="new 0 0 85 85" xml:space="preserve">
<g>
	<path fill="#7D593E" d="M78.354,60.49h-53.98c0-9.863,7.598-24.923,7.598-24.923c-0.134-0.668,0.666-1.6,1.465-1.6l16.928-7.865
		c0.398-0.533,1.732-0.398,1.998,0l16.928,7.865c0.801,0,1.602,0.932,1.467,1.6C70.756,35.567,78.354,50.76,78.354,60.49"/>
	<g>
		<path fill="#64892F" d="M47.432,73.951c0,0-9.063,1.602-11.197,0c-2.932-2.266,1.733-12.795,4.666-15.061
			c0,0,6.131-0.533,8.129,1.332C48.898,60.092,45.83,68.754,47.432,73.951"/>
		<path fill="#64892F" d="M64.225,74.619c0,0-7.197-0.4-8.529-2.133c-1.867-2.266,3.332-9.463,5.998-10.664
			c0,0,4.797,0.801,5.998,2.533C67.691,64.355,63.957,70.354,64.225,74.619"/>
	</g>
	<path fill="#4B662B" d="M7.445,23.971c0,0,11.33-11.33,13.596-2.268C21.174,21.571,11.311,33.168,7.445,23.971"/>
	<g>
		<path fill="#83BF4F" d="M32.637,8.643C24.771,0.112-6.55,8.51,5.046,21.838c0,0,5.065-2.666,14.528-2.533
			c-7.465,6.664-12.129,4.531-12.129,4.531c0,4.266,1.998,7.73,9.863,7.73c9.729,0-0.801,26.39,7.863,26.39
			c5.064,0,6.131-20.925,6.531-22.125C33.703,29.168,37.835,14.374,32.637,8.643"/>
		<path fill="#83BF4F" d="M81.02,56.357c1.6,2.133,1.732,7.465,1.199,8.664c-0.533,1.066-1.332-1.465-2.398-3.865
			c-1.867-4.131-5.465-4.932-2.934-6.529C77.953,53.826,80.219,55.293,81.02,56.357"/>
	</g>
	<g>
		<path fill="#C1875D" d="M51.297,35.7l-12.529,5.197l-2.398,13.462h29.988l-2.398-13.462L51.297,35.7z"/>
		<path fill="#C1875D" d="M69.289,33.967c-4.799-4.799-10.395-7.73-16.928-7.863v8.131l12.264,4.664L69.289,33.967"/>
		<path fill="#C1875D" d="M50.363,34.1v-8.131c-6.531,0.133-12.129,3.064-16.926,7.863l4.664,4.932L50.363,34.1"/>
		<path fill="#C1875D" d="M70.756,35.567l-5.197,5.33l2.666,13.462h11.328C78.221,47.029,75.021,40.499,70.756,35.567"/>
		<path fill="#C1875D" d="M37.168,40.897l-5.197-5.33c-2.133,2.398-4,6.529-6.798,7.462c-3.198,1.066-1.333,11.463,9.33,11.463
			L37.168,40.897"/>
	</g>
	<path fill="#FFD93B" d="M23.173,57.293h56.38c0,7.463-6.396,10.395-28.256,10.395S23.173,64.756,23.173,57.293"/>
	<g>
		<path fill="#AF921B" d="M39.967,57.293c0.133,1.064,0.4,1.998,0.668,2.932c0.266,0.934,0.666,1.865,1.199,2.666
			c0.533,0.799,1.066,1.6,1.732,2.398c0.666,0.801,1.465,1.467,2.133,2.266c-1.066-0.268-2-0.934-2.934-1.6
			c-0.799-0.666-1.6-1.6-2.131-2.531c-0.533-0.934-0.934-2-1.066-3.066C39.566,59.424,39.566,58.357,39.967,57.293"/>
		<path fill="#AF921B" d="M62.76,57.293c0.398,0.932,0.398,2.131,0.266,3.197s-0.533,2.133-1.064,3.064
			c-0.533,0.934-1.334,1.867-2.135,2.533c-0.799,0.666-1.863,1.199-2.932,1.6c0.801-0.799,1.467-1.467,2.133-2.266
			c0.666-0.801,1.199-1.602,1.732-2.398c0.533-0.801,0.934-1.734,1.199-2.666C62.359,59.291,62.625,58.357,62.76,57.293"/>
	</g>
	<circle fill="#3E4347" cx="19.441" cy="12.375" r="3.466"/>
	<path fill="#4B662B" d="M5.979,13.174l-0.933,0.4l0.399-1.066l0.934-0.533L5.979,13.174z"/>
	<path fill="#83BF4F" d="M39.566,78.35c0,0-11.861,2.533-14.793,0c-3.865-3.465,2.266-19.592,6.131-23.059c0,0,8.129-0.799,10.795,2
		C41.566,57.293,37.568,70.486,39.566,78.35"/>
	<path fill="#6EA03F" d="M28.505,78.35c-1.466-3.73-3.864-6.264-4.532-6.264c-0.8,0-2.398,2.266-2.398,6.664
		C21.707,80.217,29.305,80.217,28.505,78.35"/>
	<path fill="#83BF4F" d="M81.818,66.488c0,0-6.131,10.529-9.195,10.396c-4.133-0.268-13.062-9.996-9.598-21.061
		c0,0,7.465-1.064,10.529-0.533C73.555,55.158,71.422,64.621,81.818,66.488"/>
	<path fill="#6EA03F" d="M75.287,74.752c-2.666-1.732-5.465-2.266-5.863-1.865c-0.533,0.398-0.666,2.799,1.332,5.865
		C71.422,79.684,76.619,75.686,75.287,74.752"/>
</g>
</svg>
