<?xml version="1.0" encoding="utf-8"?>
<!-- Generator: Adobe Illustrator 16.0.0, SVG Export Plug-In . SVG Version: 6.00 Build 0)  -->
<!DOCTYPE svg PUBLIC "-//W3C//DTD SVG 1.1//EN" "http://www.w3.org/Graphics/SVG/1.1/DTD/svg11.dtd">
<svg version="1.1" id="Layer_1" xmlns="http://www.w3.org/2000/svg" xmlns:xlink="http://www.w3.org/1999/xlink" x="0px" y="0px"
	 width="85px" height="85px" viewBox="0 0 85 85" enable-background="new 0 0 85 85" xml:space="preserve">
<g>
	<g>
		<g>
			<path fill="#FB9110" d="M26.179,24.758c0.107-1.771,0.859-2.791,0.59-4.455c-0.173-1.071-0.193-2.038-0.148-2.839
				c-0.325,1.363-0.436,2.973-0.377,4.062c0.093,1.712-0.555,2.036-1.434-0.093c-0.542-1.339-0.398-2.922-0.209-3.942
				c-1.897,2.84-2.305,5.105-2.219,6.685c2.425,4.683,6.688,6.311,8.278,6.771c0.009-0.006,0.018-0.011,0.026-0.017
				C26.769,28.944,26.071,26.529,26.179,24.758z"/>
			<path fill="#5A2800" d="M30.646,31.052c-0.005,0-0.011,0-0.016-0.002c-1.701-0.493-5.92-2.144-8.344-6.824
				c-0.007-0.014-0.011-0.028-0.012-0.043c-0.114-2.086,0.638-4.358,2.236-6.751c0.028-0.042,0.083-0.059,0.13-0.04
				c0.047,0.019,0.074,0.069,0.065,0.119c-0.196,1.056-0.32,2.587,0.203,3.882c0.559,1.352,0.896,1.42,0.958,1.42
				c0.021,0,0.052-0.004,0.09-0.044c0.146-0.154,0.213-0.617,0.18-1.238c-0.051-0.941,0.018-2.577,0.379-4.092
				c0.013-0.054,0.064-0.091,0.12-0.081c0.055,0.008,0.095,0.057,0.091,0.112c-0.052,0.939-0.003,1.886,0.147,2.815
				c0.161,0.998-0.037,1.77-0.246,2.587c-0.147,0.575-0.299,1.169-0.343,1.892c-0.148,2.456,1.349,4.498,4.45,6.07
				c0.034,0.018,0.057,0.052,0.059,0.091s-0.017,0.075-0.05,0.096C30.723,31.035,30.678,31.052,30.646,31.052z M22.488,24.147
				c2.006,3.857,5.25,5.618,7.228,6.369c-2.558-1.54-3.783-3.476-3.644-5.765c0.045-0.743,0.2-1.348,0.349-1.932
				c0.204-0.795,0.396-1.546,0.242-2.5c-0.088-0.544-0.142-1.095-0.162-1.647c-0.16,1.106-0.187,2.163-0.15,2.847
				c0.027,0.494,0.007,1.138-0.238,1.396c-0.069,0.073-0.154,0.112-0.246,0.112l0,0c-0.342,0-0.731-0.523-1.157-1.554
				c-0.464-1.146-0.439-2.461-0.297-3.496C23.056,20.143,22.392,22.267,22.488,24.147z"/>
		</g>
		<g>
			<path fill="#FFC390" d="M48.785,23.809c-1.158-3.188-3.894-6.309-3.894-6.309s0.277,2.406-0.139,2.545s-1.48-0.925-2.129-2.73
				c-1.341,2.313-4.951,3.332-5.274,3.054c-0.324-0.277,0.555-1.157,1.62-3.979c-1.342,2.267-3.656,3.979-3.794,3.655
				s1.11-1.342,1.666-3.424c-1.527,2.36-5.646,4.997-6.108,4.812c-0.463-0.185-0.648-1.99,0.925-5.645
				c-2.406,2.637-3.471,6.617-3.841,6.108c-0.647-1.018-1.064-2.221-0.417-6.386c-0.337,0.472-0.593,1.173-0.78,1.954
				c-0.045,0.801-0.025,1.768,0.148,2.839c0.269,1.664-0.483,2.684-0.59,4.455c-0.107,1.771,0.59,4.186,4.508,6.172
				c-0.009,0.006-0.017,0.011-0.026,0.017c0.391,0.113,0.623,0.157,0.623,0.157c3.083,0.764,8.653,1.669,13.448-0.334
				C47.815,29.48,48.943,26.564,48.785,23.809z"/>
			<path fill="#5A2800" d="M38.068,32.093C38.068,32.093,38.068,32.093,38.068,32.093c-2.152,0-4.443-0.297-6.811-0.884
				c-0.004,0-0.235-0.045-0.627-0.158c-0.032-0.009-0.058-0.033-0.07-0.064c-3.132-1.609-4.643-3.707-4.489-6.235
				c0.045-0.743,0.2-1.348,0.349-1.932c0.204-0.795,0.396-1.546,0.242-2.5c-0.152-0.944-0.203-1.907-0.149-2.862
				c0.211-0.891,0.479-1.562,0.8-2.01c0.029-0.041,0.082-0.056,0.128-0.037c0.046,0.019,0.073,0.067,0.065,0.116
				c-0.654,4.204-0.211,5.346,0.393,6.299c0.131-0.085,0.426-0.7,0.71-1.295c0.625-1.306,1.568-3.28,2.968-4.814
				c0.035-0.039,0.093-0.046,0.137-0.018c0.044,0.029,0.061,0.084,0.041,0.133c-1.254,2.914-1.396,4.681-1.137,5.309
				c0.042,0.103,0.097,0.172,0.152,0.194c0,0,0,0,0,0c0.61,0,4.499-2.485,5.978-4.771c0.029-0.044,0.085-0.061,0.134-0.04
				s0.074,0.075,0.06,0.125c-0.342,1.283-0.936,2.156-1.329,2.733c-0.157,0.231-0.334,0.491-0.345,0.593
				c0.421-0.062,2.372-1.554,3.606-3.64c0.029-0.048,0.089-0.066,0.139-0.042c0.05,0.024,0.074,0.083,0.054,0.134
				c-0.51,1.354-0.98,2.267-1.292,2.871c-0.279,0.542-0.463,0.899-0.358,0.989l0,0c0,0,0.03,0.019,0.141,0.019
				c0.747,0,3.756-0.949,4.971-3.045c0.021-0.036,0.061-0.057,0.103-0.053c0.042,0.004,0.077,0.031,0.092,0.071
				c0.585,1.63,1.545,2.671,1.948,2.671c0.017,0,0.032-0.002,0.045-0.006c0.178-0.06,0.209-1.195,0.066-2.431
				c-0.006-0.046,0.021-0.091,0.062-0.11c0.043-0.019,0.094-0.008,0.125,0.027c0.027,0.031,2.762,3.172,3.914,6.343
				c0.003,0.01,0.005,0.02,0.006,0.031c0.187,3.268-1.354,5.91-4.12,7.065C42.829,31.681,40.573,32.093,38.068,32.093z
				 M30.774,30.868c0.33,0.092,0.527,0.13,0.529,0.13c2.356,0.584,4.631,0.879,6.765,0.879c2.477,0,4.705-0.406,6.623-1.208
				c2.674-1.118,4.164-3.674,3.988-6.84c-0.947-2.596-2.969-5.175-3.644-5.994c0.08,0.843,0.142,2.18-0.248,2.31
				c-0.035,0.012-0.073,0.018-0.113,0.018l0,0c-0.528,0-1.465-1.039-2.073-2.606c-1.256,1.926-4.104,2.962-5.041,2.963
				c-0.135,0-0.224-0.022-0.28-0.071c-0.234-0.2-0.064-0.529,0.307-1.25c0.229-0.444,0.544-1.057,0.898-1.89
				c-1.197,1.62-2.787,2.882-3.234,2.882l0,0c-0.117,0-0.162-0.073-0.175-0.104c-0.078-0.181,0.079-0.411,0.362-0.827
				c0.316-0.464,0.765-1.124,1.1-2.036c-1.685,2.129-5.076,4.325-5.747,4.325l0,0c-0.038,0-0.07-0.006-0.098-0.017
				c-0.113-0.045-0.205-0.15-0.271-0.312c-0.268-0.648-0.16-2.248,0.878-4.849c-1.142,1.42-1.944,3.098-2.495,4.25
				c-0.506,1.059-0.693,1.425-0.914,1.425c-0.043,0-0.106-0.016-0.16-0.089c-0.607-0.954-1.062-2.066-0.518-5.915
				c-0.187,0.385-0.35,0.869-0.488,1.445c-0.05,0.92,0,1.868,0.149,2.797c0.161,0.998-0.037,1.77-0.246,2.587
				c-0.147,0.575-0.299,1.169-0.343,1.892c-0.148,2.456,1.349,4.498,4.45,6.07C30.751,30.843,30.765,30.854,30.774,30.868z"/>
		</g>
	</g>
	<g>
		<g>
			<path fill="#52DCFA" d="M40.054,75.165c0,0-5.127-1.172-12.355-0.17c-6.512,1.073-8.086,4.437,0,4.222
				c-3.292,1.36-0.501,3.436,7.729,3.149c7.443-0.573,10.305-1.861,6.942-2.791C46.377,79.146,46.04,76.98,40.054,75.165z"/>
			<path fill="#5A2800" d="M33.934,82.5L33.934,82.5c-4.432,0-7.445-0.757-7.677-1.928c-0.063-0.319,0.066-0.776,0.939-1.239
				c-3.159,0.026-5.009-0.533-5.091-1.528c-0.093-1.142,2.252-2.367,5.577-2.916c1.947-0.27,3.919-0.406,5.865-0.406
				c3.957,0,6.505,0.571,6.531,0.577c4.7,1.426,5.099,2.731,5.052,3.228c-0.061,0.645-0.858,1.11-2.261,1.33
				c0.705,0.248,1.034,0.524,1.003,0.839c-0.083,0.863-3.237,1.617-8.436,2.017C34.92,82.491,34.417,82.5,33.934,82.5z
				 M27.699,79.109c0.051,0,0.095,0.036,0.105,0.085c0.01,0.051-0.017,0.103-0.064,0.122c-0.902,0.372-1.354,0.804-1.273,1.214
				c0.167,0.845,2.576,1.755,7.466,1.755h0c0.48,0,0.982-0.009,1.491-0.026c4.039-0.311,8.154-0.995,8.235-1.823
				c0.011-0.114-0.096-0.419-1.318-0.757c-0.049-0.014-0.082-0.062-0.078-0.112c0.004-0.052,0.044-0.093,0.096-0.099
				c1.569-0.168,2.501-0.605,2.558-1.201c0.067-0.712-1.183-1.874-4.893-2.999c-0.018-0.004-2.545-0.57-6.476-0.57
				c-1.936,0-3.898,0.136-5.833,0.404c-3.598,0.593-5.466,1.826-5.396,2.686c0.053,0.644,1.305,1.332,4.661,1.332
				c0.23,0,0.468-0.003,0.717-0.01C27.698,79.109,27.699,79.109,27.699,79.109z"/>
		</g>
		<g>
			<ellipse fill="#52DCFA" cx="48.847" cy="73.692" rx="1.176" ry="0.537"/>
			<path fill="#5A2800" d="M48.847,74.336c-0.731,0-1.282-0.276-1.282-0.644c0-0.366,0.551-0.644,1.282-0.644
				c0.732,0,1.284,0.277,1.284,0.644C50.131,74.06,49.579,74.336,48.847,74.336z M48.847,73.264c-0.611,0-1.068,0.227-1.068,0.429
				c0,0.203,0.457,0.43,1.068,0.43c0.612,0,1.069-0.227,1.069-0.43C49.916,73.49,49.459,73.264,48.847,73.264z"/>
		</g>
		<g>
			<ellipse fill="#52DCFA" cx="49.466" cy="80.459" rx="2.373" ry="0.99"/>
			<path fill="#5A2800" d="M49.466,81.557c-1.391,0-2.479-0.481-2.479-1.098c0-0.615,1.089-1.098,2.479-1.098s2.48,0.482,2.48,1.098
				C51.946,81.075,50.856,81.557,49.466,81.557z M49.466,79.576c-1.354,0-2.265,0.457-2.265,0.883c0,0.427,0.91,0.883,2.265,0.883
				c1.355,0,2.266-0.456,2.266-0.883C51.731,80.033,50.821,79.576,49.466,79.576z"/>
		</g>
		<g>
			<path fill="#52DCFA" d="M55.269,76.122c0,0-2.845-0.161-3.059-1.449c-0.215-1.288,5.742-2.146,9.714-1.825
				c3.972,0.322,3.006,2.47,0.752,2.63c4.508,0.913,5.903,3.006-0.054,3.865C56.664,80.201,47.486,78.215,55.269,76.122z"/>
			<path fill="#5A2800" d="M59.522,79.654c-3.419,0-7.2-0.695-7.349-1.819c-0.076-0.579,0.774-1.139,2.531-1.664
				c-0.864-0.122-2.435-0.48-2.602-1.48c-0.027-0.166,0.024-0.328,0.155-0.482c0.804-0.948,4.708-1.535,7.865-1.535
				c0.642,0,1.25,0.023,1.809,0.068c1.764,0.143,2.813,0.687,2.81,1.455c-0.002,0.575-0.619,1.092-1.482,1.3
				c2.157,0.513,3.459,1.299,3.437,2.096c-0.023,0.835-1.427,1.478-4.06,1.856C61.688,79.585,60.641,79.654,59.522,79.654z
				 M60.124,72.888c-3.504,0-7.031,0.668-7.701,1.459c-0.09,0.105-0.124,0.206-0.107,0.309c0.198,1.189,2.932,1.358,2.96,1.359
				c0.052,0.003,0.095,0.044,0.101,0.097c0.005,0.052-0.028,0.101-0.079,0.114c-2.621,0.705-2.948,1.293-2.91,1.581
				c0.114,0.87,3.449,1.634,7.136,1.634c1.107,0,2.146-0.069,3.084-0.204c3.47-0.5,3.866-1.321,3.875-1.65
				c0.021-0.73-1.517-1.535-3.827-2.003c-0.053-0.011-0.089-0.059-0.086-0.112c0.004-0.053,0.046-0.096,0.1-0.1
				c1.146-0.082,1.857-0.674,1.86-1.176c0.002-0.497-0.683-1.084-2.612-1.24C61.362,72.91,60.76,72.888,60.124,72.888z"/>
		</g>
		<g>
			<path fill="#52DCFA" d="M31.814,70.63c0,0-0.465-2.72,0.895-2.791C34.068,67.768,32.888,69.628,31.814,70.63z"/>
			<path fill="#5A2800" d="M31.814,70.737c-0.012,0-0.023-0.002-0.035-0.006c-0.037-0.013-0.065-0.045-0.071-0.084
				c-0.013-0.073-0.3-1.806,0.306-2.563c0.175-0.219,0.407-0.338,0.689-0.353c0.455-0.025,0.624,0.164,0.686,0.32
				c0.247,0.626-0.75,1.955-1.501,2.656C31.867,70.727,31.841,70.737,31.814,70.737z M32.783,67.944c-0.022,0-0.045,0-0.068,0.002
				c-0.221,0.012-0.395,0.101-0.532,0.271c-0.432,0.54-0.346,1.713-0.291,2.188c0.771-0.771,1.463-1.854,1.297-2.275
				C33.171,68.084,33.116,67.944,32.783,67.944z"/>
		</g>
		<g>
			<path fill="#52DCFA" d="M29.882,73.17c0,0-2.146-1.985-3.703-1.181S27.252,73.546,29.882,73.17z"/>
			<path fill="#5A2800" d="M28.467,73.377L28.467,73.377c-1.277,0-2.714-0.256-2.851-0.819c-0.057-0.234,0.115-0.458,0.513-0.664
				c0.262-0.135,0.556-0.204,0.874-0.204c1.42,0,2.89,1.345,2.952,1.401c0.03,0.028,0.042,0.071,0.029,0.111
				c-0.012,0.039-0.046,0.068-0.087,0.074C29.43,73.343,28.949,73.377,28.467,73.377z M27.003,71.904
				c-0.283,0-0.544,0.061-0.775,0.181c-0.29,0.149-0.433,0.3-0.403,0.422c0.077,0.315,1.109,0.655,2.643,0.655h0
				c0.389,0,0.779-0.022,1.161-0.067C29.197,72.742,28.062,71.904,27.003,71.904z"/>
		</g>
		<g>
			<path fill="#52DCFA" d="M30.473,69.896c0,0-1.02-3.489-2.845-3.006S28.326,69.682,30.473,69.896z"/>
			<path fill="#5A2800" d="M30.473,70.004c-0.004,0-0.007-0.001-0.011-0.001c-1.557-0.155-3.49-1.478-3.567-2.439
				c-0.017-0.216,0.051-0.604,0.706-0.776c0.124-0.033,0.249-0.05,0.372-0.05c1.669,0,2.566,3.001,2.604,3.129
				c0.01,0.034,0.002,0.071-0.021,0.099C30.535,69.989,30.504,70.004,30.473,70.004z M27.972,66.952
				c-0.104,0-0.211,0.014-0.317,0.042c-0.384,0.102-0.567,0.287-0.546,0.553c0.061,0.766,1.698,1.997,3.21,2.222
				C30.111,69.154,29.277,66.952,27.972,66.952z"/>
		</g>
	</g>
	<g>
		<path fill="#28588F" d="M61.926,62.578l-0.536,0.06c-2.054,0.535-3.661,0.744-3.661,0.744l-7.412,2.769
			c0,0,2.827,2.946,11.4-0.982c0,0,0.388-0.149,1.013-0.565C62.67,63.977,61.926,62.578,61.926,62.578z"/>
		<path fill="#5A2800" d="M54.001,67.318C54.001,67.318,54.001,67.318,54.001,67.318c-2.682,0-3.72-1.049-3.763-1.094
			c-0.024-0.026-0.035-0.063-0.027-0.099c0.009-0.035,0.033-0.063,0.067-0.076l7.412-2.769c0.008-0.003,0.016-0.005,0.023-0.006
			c0.017-0.002,1.625-0.214,3.648-0.742l0.551-0.062c0.045-0.004,0.086,0.018,0.107,0.057c0.03,0.058,0.755,1.426,0.815,2.064
			c0.004,0.039-0.015,0.077-0.048,0.1c-0.627,0.419-1.017,0.57-1.032,0.576C58.79,66.628,56.179,67.318,54.001,67.318z
			 M50.524,66.187c0.349,0.266,1.412,0.917,3.476,0.917c0.001,0,0.001,0,0.001,0c2.146,0,4.728-0.685,7.671-2.033
			c0.01-0.004,0.369-0.145,0.942-0.521c-0.085-0.544-0.611-1.587-0.75-1.856l-0.463,0.052c-1.929,0.504-3.492,0.722-3.647,0.742
			L50.524,66.187z"/>
	</g>
	<path fill="#28588F" d="M59.062,63.16c-0.818,0.154-1.333,0.222-1.333,0.222l-7.412,2.769c0,0,0.729,0.757,2.566,0.991
		C55.5,66.629,58.17,65.545,59.062,63.16z"/>
	<g>
		<g>
			<path fill="#FCE69C" d="M64.574,66.745c-0.332-0.234-1.266,0.313-1.869,0.718c0.17,0.291,0.353,0.577,0.544,0.853
				C63.878,67.854,64.938,67.001,64.574,66.745z"/>
			<path fill="#5A2800" d="M63.249,68.423c-0.006,0-0.012,0-0.018-0.001c-0.028-0.005-0.054-0.021-0.07-0.045
				c-0.194-0.28-0.379-0.569-0.549-0.86c-0.028-0.049-0.014-0.111,0.033-0.143c0.539-0.361,1.274-0.792,1.718-0.792
				c0.109,0,0.202,0.025,0.273,0.076c0.077,0.054,0.118,0.132,0.119,0.225c0.003,0.303-0.482,0.813-1.443,1.52
				C63.294,68.416,63.271,68.423,63.249,68.423z M62.85,67.496c0.134,0.225,0.275,0.448,0.425,0.667
				c0.935-0.696,1.269-1.116,1.267-1.278c0-0.02-0.005-0.035-0.028-0.052c-0.034-0.024-0.085-0.037-0.149-0.037
				C64.071,66.796,63.536,67.044,62.85,67.496z"/>
		</g>
		<g>
			<path fill="#FCE69C" d="M64.218,65.614c-0.31-0.574-1.534,0.161-2.147,0.58c0.152,0.365,0.333,0.73,0.533,1.09
				C63.329,66.896,64.511,66.159,64.218,65.614z"/>
			<path fill="#5A2800" d="M62.604,67.392c-0.037,0-0.074-0.021-0.094-0.056c-0.207-0.369-0.388-0.739-0.538-1.101
				c-0.021-0.047-0.004-0.101,0.038-0.13c0.541-0.369,1.292-0.81,1.805-0.81c0.292,0,0.432,0.146,0.497,0.268
				c0.065,0.12,0.076,0.254,0.034,0.396c-0.153,0.507-1.004,1.052-1.691,1.419C62.639,67.387,62.621,67.392,62.604,67.392z
				 M62.204,66.233c0.127,0.298,0.275,0.602,0.442,0.905c0.865-0.474,1.395-0.913,1.493-1.242c0.026-0.086,0.021-0.162-0.017-0.231
				c-0.036-0.066-0.106-0.154-0.309-0.154C63.359,65.511,62.638,65.942,62.204,66.233z"/>
		</g>
		<g>
			<path fill="#ED1C26" d="M63.384,61.625c-1.25-0.089-2.173,0.03-1.994,1.013l0.536-0.06c0,0,0.744,1.398,0.804,2.024
				c-0.625,0.416-1.013,0.565-1.013,0.565c0.089,0.337,0.209,0.682,0.354,1.026c0.613-0.419,1.838-1.154,2.147-0.58
				c0.293,0.545-0.889,1.281-1.614,1.67c0.033,0.06,0.067,0.119,0.102,0.179c0.604-0.404,1.537-0.952,1.869-0.718
				c0.363,0.256-0.696,1.108-1.325,1.57c1.245,1.795,2.864,3.176,3.767,2.984c0.06-0.013,0.111-0.039,0.159-0.071
				c-0.476-3.581-2.803-8.244-3.501-9.583C63.584,61.64,63.489,61.633,63.384,61.625z"/>
			<path fill="#5A2800" d="M66.839,71.425L66.839,71.425c-0.921,0-2.434-1.253-3.678-3.048c-0.033-0.048-0.022-0.113,0.024-0.147
				c1.002-0.736,1.357-1.178,1.355-1.345c0-0.02-0.005-0.035-0.028-0.052c-0.034-0.024-0.085-0.037-0.149-0.037
				c-0.304,0-0.871,0.269-1.599,0.756c-0.024,0.017-0.055,0.022-0.083,0.016c-0.029-0.007-0.055-0.024-0.069-0.051
				c-0.034-0.06-0.068-0.12-0.103-0.18c-0.014-0.025-0.018-0.056-0.009-0.083c0.008-0.027,0.026-0.051,0.052-0.064
				c0.921-0.493,1.484-0.952,1.587-1.293c0.026-0.086,0.021-0.162-0.017-0.231c-0.036-0.066-0.106-0.154-0.309-0.154
				c-0.481,0-1.262,0.484-1.684,0.772c-0.026,0.018-0.061,0.023-0.091,0.014c-0.031-0.009-0.057-0.031-0.068-0.062
				c-0.152-0.363-0.272-0.714-0.358-1.04c-0.014-0.053,0.015-0.108,0.065-0.128c0.003-0.001,0.362-0.142,0.936-0.519
				c-0.085-0.544-0.611-1.587-0.75-1.856l-0.463,0.052c-0.059,0.006-0.107-0.032-0.117-0.088c-0.059-0.321-0.009-0.58,0.149-0.77
				c0.224-0.268,0.651-0.393,1.348-0.393c0.18,0,0.379,0.008,0.61,0.024l0.289,0.02c0.037,0.003,0.07,0.024,0.088,0.058
				c0.703,1.348,3.035,6.023,3.513,9.619c0.005,0.04-0.013,0.08-0.047,0.103c-0.065,0.045-0.13,0.073-0.196,0.088
				C66.975,71.418,66.908,71.425,66.839,71.425z M63.397,68.34c1.177,1.668,2.614,2.87,3.441,2.87l0,0
				c0.054,0,0.106-0.005,0.154-0.016c0.021-0.004,0.043-0.012,0.065-0.022c-0.487-3.505-2.727-8.027-3.452-9.424l-0.23-0.016
				c-0.226-0.016-0.421-0.024-0.595-0.024c-0.619,0-1.006,0.104-1.183,0.316c-0.102,0.121-0.141,0.284-0.118,0.495l0.433-0.049
				c0.045-0.004,0.086,0.018,0.107,0.057c0.03,0.058,0.755,1.426,0.815,2.064c0.004,0.039-0.015,0.077-0.048,0.1
				c-0.46,0.308-0.793,0.471-0.943,0.538c0.071,0.255,0.163,0.523,0.274,0.802c0.529-0.352,1.217-0.735,1.695-0.735
				c0.292,0,0.432,0.146,0.497,0.268c0.065,0.12,0.076,0.254,0.034,0.396c-0.09,0.298-0.422,0.609-0.819,0.891
				c0.463-0.233,0.893-0.346,1.11-0.191c0.077,0.054,0.118,0.132,0.119,0.225C64.759,67.176,64.302,67.666,63.397,68.34z"/>
		</g>
		<g>
			<path fill="#2890BF" d="M65.557,63.411c-0.763-1.636-0.905-1.698-1.883-1.766c0.698,1.339,3.025,6.002,3.501,9.583
				C68.241,70.51,66.355,65.121,65.557,63.411z"/>
			<path fill="#5A2800" d="M67.175,71.336c-0.015,0-0.03-0.003-0.044-0.01c-0.034-0.015-0.058-0.047-0.062-0.083
				c-0.473-3.562-2.791-8.209-3.49-9.548c-0.018-0.035-0.016-0.076,0.006-0.108c0.021-0.033,0.059-0.053,0.097-0.049
				c1.027,0.071,1.203,0.178,1.974,1.828c0.651,1.396,2.778,7.145,1.58,7.951C67.217,71.33,67.195,71.336,67.175,71.336z
				 M63.857,61.767c0.774,1.503,2.871,5.8,3.392,9.223c0.594-1.039-0.891-5.606-1.789-7.532
				C64.754,61.945,64.602,61.826,63.857,61.767z"/>
		</g>
	</g>
	<g>
		<path fill="#28588F" d="M41.923,74.854c0.397,0.507,1.272,0.354,2.057-0.538c-0.427-5.064-0.52-10.055-0.52-10.055
			s-3.22-1.127-5.475,1.771c0,0,0.537,3.972,2.684,7.836C41.174,73.643,41.527,74.347,41.923,74.854z"/>
		<path fill="#5A2800" d="M42.543,75.249c-0.292,0-0.536-0.114-0.704-0.329c-0.074-0.095-0.147-0.196-0.22-0.298
			c-0.242-0.34-0.493-0.69-0.757-0.69c-0.048,0-0.097,0.012-0.148,0.034c-0.051,0.023-0.11,0.003-0.138-0.046
			c-2.132-3.838-2.69-7.834-2.696-7.874c-0.003-0.028,0.004-0.058,0.022-0.08c1.304-1.677,2.928-2.028,4.061-2.028
			c0.89,0,1.508,0.213,1.534,0.222c0.043,0.015,0.071,0.055,0.072,0.1c0.001,0.05,0.097,5.045,0.519,10.047
			c0.003,0.029-0.007,0.059-0.026,0.08C43.579,74.935,43.025,75.249,42.543,75.249z M40.862,73.718c0.375,0,0.658,0.396,0.932,0.779
			c0.071,0.099,0.142,0.198,0.214,0.291c0.126,0.161,0.311,0.246,0.535,0.246c0.411,0,0.894-0.275,1.327-0.756
			c-0.391-4.653-0.501-9.287-0.515-9.938c-0.184-0.054-0.709-0.188-1.393-0.188c-1.077,0-2.617,0.332-3.863,1.909
			c0.066,0.444,0.665,4.115,2.621,7.675C40.768,73.724,40.815,73.718,40.862,73.718z"/>
	</g>
	<path fill="#28588F" d="M41.873,68.667c0.582-0.033,1.16-0.098,1.736-0.182c-0.115-2.477-0.147-4.225-0.147-4.225
		s-3.22-1.127-5.475,1.771c0,0,0.125,0.914,0.49,2.291C39.554,68.686,40.763,68.73,41.873,68.667z"/>
	<g>
		<path fill="#2890BF" d="M39.722,78.645c-2.433,0.428-3.611,0.237-4.183-0.044c0.04,0.078,0.088,0.154,0.143,0.229
			c0.427,0.58,2.837,0.915,6.437-0.152c3.227-0.957,3.659-1.571,3.626-2.237C44.947,77.211,43.112,78.05,39.722,78.645z"/>
		<path fill="#5A2800" d="M37.895,79.48c-1.169,0-2.028-0.219-2.299-0.587c-0.062-0.084-0.112-0.164-0.152-0.244
			c-0.021-0.042-0.013-0.092,0.02-0.124c0.032-0.033,0.082-0.042,0.124-0.021c0.738,0.363,2.162,0.378,4.117,0.035
			c3.95-0.693,5.434-1.661,5.967-2.176c0.03-0.029,0.074-0.038,0.114-0.022c0.039,0.016,0.065,0.053,0.067,0.095
			c0.038,0.778-0.556,1.411-3.703,2.345C40.198,79.359,38.759,79.48,37.895,79.48z M35.824,78.827
			c0.233,0.214,0.885,0.438,2.071,0.438c0.85,0,2.267-0.119,4.194-0.691c2.824-0.837,3.431-1.4,3.533-1.881
			c-0.771,0.632-2.408,1.447-5.881,2.057C37.988,79.059,36.656,79.083,35.824,78.827z"/>
	</g>
	<g>
		<g>
			<path fill="#FCE69C" d="M41.243,76.462c0.156-0.339-0.931-1.247-1.533-1.715c-0.192,0.159-0.393,0.316-0.606,0.474
				c0.271,0.276,0.73,0.751,1.029,1.099C40.581,76.838,41.028,76.928,41.243,76.462z"/>
			<path fill="#5A2800" d="M40.842,76.872L40.842,76.872c-0.245,0-0.518-0.167-0.79-0.483c-0.302-0.35-0.772-0.835-1.025-1.093
				c-0.022-0.022-0.033-0.053-0.031-0.084s0.019-0.06,0.043-0.078c0.209-0.153,0.406-0.308,0.601-0.47
				c0.039-0.032,0.095-0.033,0.135-0.002c1.777,1.383,1.617,1.73,1.564,1.845C41.201,76.809,40.993,76.872,40.842,76.872z
				 M39.267,75.233c0.265,0.271,0.674,0.697,0.948,1.016c0.224,0.26,0.453,0.408,0.627,0.408c0.127,0,0.229-0.081,0.303-0.24
				c0.052-0.112-0.195-0.561-1.434-1.533C39.566,75.004,39.419,75.119,39.267,75.233z"/>
		</g>
		<g>
			<path fill="#FCE69C" d="M39.775,77.124c0.173-0.452-0.685-1.212-1.138-1.573c-0.204,0.138-0.42,0.278-0.651,0.422
				C38.876,76.911,39.564,77.678,39.775,77.124z"/>
			<path fill="#5A2800" d="M39.553,77.418L39.553,77.418c-0.346,0-0.835-0.517-1.512-1.23l-0.133-0.141
				c-0.022-0.023-0.033-0.056-0.028-0.088c0.004-0.032,0.022-0.061,0.05-0.077c0.231-0.144,0.449-0.285,0.647-0.42
				c0.039-0.027,0.09-0.025,0.127,0.005c0.636,0.507,1.356,1.214,1.172,1.695C39.795,77.374,39.656,77.418,39.553,77.418z
				 M38.154,75.994l0.043,0.045c0.567,0.599,1.103,1.164,1.356,1.164l0,0c0.025,0,0.078-0.001,0.122-0.117
				c0.1-0.263-0.298-0.797-1.043-1.402C38.481,75.785,38.321,75.889,38.154,75.994z"/>
		</g>
		<g>
			<path fill="#ED1C26" d="M45.72,76.207c-0.122-0.764-1.251-1.892-1.739-1.892c-0.785,0.893-1.66,1.045-2.057,0.538
				c-0.396-0.507-0.749-1.211-1.253-0.985c-0.312,0.312-0.624,0.599-0.96,0.879c0.602,0.468,1.689,1.376,1.533,1.715
				c-0.215,0.466-0.662,0.376-1.109-0.143c-0.299-0.348-0.758-0.822-1.029-1.099c-0.149,0.109-0.304,0.219-0.467,0.33
				c0.454,0.361,1.311,1.121,1.138,1.573c-0.211,0.554-0.899-0.213-1.79-1.151c-0.294,0.183-0.611,0.371-0.961,0.569
				c-1.594,0.903-1.753,1.529-1.485,2.059c0.572,0.281,1.75,0.472,4.183,0.044c3.39-0.595,5.225-1.434,6.023-2.204
				C45.741,76.363,45.731,76.285,45.72,76.207z"/>
			<path fill="#5A2800" d="M37.264,79.003C37.264,79.003,37.264,79.003,37.264,79.003c-0.764,0-1.36-0.104-1.772-0.306
				c-0.021-0.011-0.038-0.027-0.048-0.048c-0.363-0.718,0.109-1.396,1.528-2.201c0.345-0.195,0.658-0.381,0.958-0.566
				c0.043-0.027,0.099-0.02,0.134,0.017l0.134,0.142c0.566,0.599,1.102,1.163,1.356,1.163c0.025,0,0.077,0,0.122-0.117
				c0.103-0.27-0.32-0.826-1.105-1.452c-0.027-0.021-0.042-0.054-0.041-0.088c0.001-0.034,0.019-0.065,0.047-0.084
				c0.162-0.11,0.316-0.219,0.463-0.328c0.043-0.031,0.103-0.026,0.14,0.012c0.255,0.26,0.729,0.748,1.035,1.104
				c0.224,0.26,0.453,0.408,0.627,0.408c0.127,0,0.229-0.081,0.303-0.24c0.053-0.114-0.204-0.577-1.501-1.586
				c-0.026-0.02-0.041-0.05-0.042-0.083c0-0.032,0.014-0.063,0.039-0.084c0.32-0.266,0.632-0.551,0.953-0.872
				c0.009-0.009,0.02-0.017,0.032-0.022c0.078-0.034,0.157-0.052,0.235-0.052c0.375,0,0.658,0.396,0.932,0.779
				c0.071,0.099,0.142,0.198,0.214,0.291c0.126,0.161,0.311,0.246,0.535,0.246c0.421,0,0.916-0.288,1.356-0.79
				c0.021-0.023,0.05-0.036,0.081-0.036c0.539,0,1.714,1.165,1.845,1.981c0.014,0.083,0.023,0.165,0.027,0.246
				c0.002,0.03-0.01,0.061-0.032,0.082c-0.673,0.649-2.273,1.564-6.08,2.232C38.787,78.918,37.954,79.003,37.264,79.003z
				 M35.619,78.52c0.747,0.349,2.158,0.357,4.084,0.02c3.865-0.679,5.369-1.619,5.931-2.142c-0.005-0.058-0.012-0.115-0.021-0.174
				c-0.113-0.71-1.155-1.727-1.588-1.798c-0.474,0.523-1.012,0.823-1.482,0.823c-0.292,0-0.536-0.114-0.704-0.329
				c-0.074-0.095-0.147-0.196-0.22-0.298c-0.242-0.34-0.493-0.69-0.757-0.69c-0.043,0-0.086,0.009-0.13,0.026
				c-0.287,0.286-0.566,0.545-0.851,0.786c1.667,1.314,1.511,1.651,1.459,1.763c-0.139,0.302-0.347,0.365-0.498,0.365
				c-0.245,0-0.518-0.167-0.79-0.483c-0.278-0.321-0.698-0.758-0.96-1.026c-0.09,0.064-0.182,0.13-0.276,0.195
				c0.605,0.498,1.233,1.15,1.06,1.604c-0.081,0.212-0.22,0.256-0.323,0.256c-0.346,0-0.835-0.517-1.512-1.23l-0.074-0.077
				c-0.279,0.172-0.572,0.345-0.89,0.525C35.46,77.552,35.434,78.123,35.619,78.52z"/>
		</g>
	</g>
	<g>
		<circle fill="#3F1C08" cx="30.323" cy="24.934" r="0.859"/>
		<circle fill="#FFFFFF" cx="30.019" cy="24.57" r="0.242"/>
	</g>
	<g>
		<circle fill="#3F1C08" cx="38.793" cy="24.333" r="0.859"/>
		<circle fill="#FFFFFF" cx="38.489" cy="23.969" r="0.241"/>
	</g>
	<path fill="#3D1603" d="M28.431,23.101c0,0,1.025-1.469,2.355,0.028C30.62,21.938,29.235,21.162,28.431,23.101z"/>
	<path fill="#3D1603" d="M36.242,22.719c0,0,1.744-1.476,3.999-0.269C39.382,20.76,37.021,20.84,36.242,22.719z"/>
	<g>
		<path fill="#EC665E" d="M36.247,31.037c0.061,0,0.121,0.002,0.184,0.001c1.72-0.16,2.902-0.678,3.691-1.256
			C37.976,29.472,36.754,30.467,36.247,31.037z"/>
		<path fill="#FFFFFF" d="M41.421,27.764c-4.401,2.576-9.15,1.28-9.15,1.28s0.916,1.956,3.976,1.993
			c0.508-0.57,1.729-1.565,3.875-1.255C41.449,28.808,41.657,27.663,41.421,27.764z"/>
	</g>
	<g>
		<path fill="#FB9110" d="M24.277,33.245c-1.354,0.404-5.561,3.222-6.31,5.575C22.656,36.968,23.93,34.453,24.277,33.245z"/>
		<path fill="#5A2800" d="M17.967,38.927c-0.027,0-0.053-0.01-0.073-0.029c-0.03-0.028-0.042-0.071-0.029-0.111
			c0.746-2.345,4.912-5.207,6.381-5.646c0.038-0.011,0.079-0.001,0.106,0.026c0.028,0.028,0.039,0.068,0.027,0.106
			c-0.378,1.318-1.709,3.803-6.374,5.646C17.994,38.925,17.98,38.927,17.967,38.927z M24.111,33.416
			c-1.499,0.574-5.103,3.112-5.961,5.215C22.326,36.924,23.676,34.712,24.111,33.416z"/>
	</g>
	<g>
		<path fill="#3D1603" d="M34.927,11.304c-3.936-1.574-6.011-0.071-10.162,5.94c-0.058,0.083-0.109,0.165-0.165,0.247
			c-0.189,1.02-0.333,2.603,0.209,3.942c0.879,2.128,1.527,1.805,1.434,0.093c-0.092-1.712,0.231-4.72,1.157-6.016
			c-0.647,4.165-0.231,5.368,0.417,6.386c0.37,0.509,1.435-3.471,3.841-6.108c-1.573,3.655-1.388,5.46-0.925,5.645
			c0.462,0.185,4.581-2.452,6.108-4.812c-0.556,2.082-1.805,3.1-1.666,3.424s2.453-1.388,3.794-3.655
			c-1.064,2.822-1.943,3.702-1.62,3.979c0.324,0.278,3.933-0.74,5.274-3.054c0.648,1.805,1.713,2.869,2.129,2.73
			s0.139-2.545,0.139-2.545s2.735,3.121,3.894,6.309c-0.087-1.529-0.568-3.008-1.334-4.131
			C45.304,16.528,38.863,12.879,34.927,11.304z"/>
		<path fill="#5A2800" d="M48.785,23.916c-0.044,0-0.085-0.027-0.101-0.071c-0.945-2.601-2.974-5.188-3.649-6.008
			c0.08,0.843,0.142,2.18-0.248,2.31c-0.496,0.167-1.531-0.901-2.187-2.588c-1.257,1.926-4.104,2.963-5.041,2.963
			c-0.135,0-0.224-0.022-0.28-0.071c-0.234-0.2-0.064-0.529,0.307-1.25c0.229-0.444,0.544-1.057,0.898-1.89
			c-1.197,1.62-2.787,2.882-3.234,2.882c-0.117,0-0.162-0.073-0.175-0.104c-0.078-0.181,0.079-0.411,0.362-0.827
			c0.316-0.464,0.765-1.124,1.1-2.036c-1.686,2.129-5.077,4.325-5.747,4.325c-0.038,0-0.07-0.006-0.098-0.017
			c-0.113-0.045-0.205-0.15-0.271-0.312c-0.268-0.648-0.16-2.248,0.878-4.849c-1.142,1.42-1.944,3.098-2.495,4.25
			c-0.506,1.059-0.692,1.425-0.914,1.425c-0.043,0-0.106-0.016-0.16-0.089c-0.607-0.955-1.062-2.067-0.518-5.917
			c-0.709,1.454-0.94,4.019-0.862,5.478c0.027,0.494,0.007,1.138-0.238,1.397c-0.069,0.073-0.154,0.111-0.246,0.111
			c-0.342,0-0.731-0.523-1.157-1.554c-0.543-1.344-0.417-2.918-0.215-4.003c0.002-0.014,0.008-0.028,0.016-0.04l0.06-0.09
			c0.034-0.052,0.069-0.105,0.106-0.158c3.008-4.356,5.019-6.568,7.662-6.568c0.776,0,1.636,0.193,2.628,0.589
			c3.903,1.562,10.384,5.204,12.572,8.412c0.784,1.15,1.266,2.637,1.354,4.186c0.003,0.053-0.033,0.101-0.086,0.111
			C48.8,23.915,48.793,23.916,48.785,23.916z M44.892,17.393c0.03,0,0.061,0.013,0.081,0.037c0.025,0.029,2.368,2.72,3.631,5.634
			c-0.176-1.235-0.606-2.395-1.241-3.326c-1.302-1.909-6.033-5.757-12.475-8.333c-0.966-0.387-1.8-0.575-2.548-0.575
			c-2.548,0-4.521,2.181-7.485,6.476c-0.036,0.052-0.07,0.103-0.104,0.154l-0.048,0.073c-0.194,1.055-0.313,2.575,0.207,3.861
			c0.558,1.352,0.896,1.42,0.958,1.42c0.021,0,0.052-0.004,0.09-0.044c0.146-0.154,0.213-0.617,0.18-1.238
			c-0.09-1.663,0.222-4.747,1.177-6.083c0.029-0.041,0.082-0.056,0.128-0.037c0.046,0.019,0.073,0.067,0.065,0.116
			c-0.654,4.204-0.211,5.346,0.393,6.299c0.131-0.085,0.425-0.7,0.71-1.295c0.624-1.306,1.568-3.28,2.968-4.814
			c0.035-0.039,0.093-0.046,0.137-0.018c0.044,0.029,0.061,0.084,0.041,0.133c-1.254,2.914-1.396,4.681-1.137,5.309
			c0.042,0.103,0.097,0.172,0.152,0.194c0,0,0,0,0.001,0c0.61,0,4.498-2.484,5.977-4.771c0.029-0.044,0.085-0.061,0.134-0.04
			s0.074,0.075,0.06,0.125c-0.342,1.283-0.936,2.156-1.329,2.733c-0.157,0.231-0.334,0.491-0.345,0.593
			c0.421-0.062,2.372-1.554,3.606-3.64c0.029-0.048,0.089-0.066,0.139-0.042c0.05,0.024,0.074,0.083,0.054,0.134
			c-0.51,1.354-0.98,2.267-1.292,2.871c-0.279,0.542-0.463,0.899-0.358,0.989l0,0c0,0,0.03,0.019,0.141,0.019
			c0.747,0,3.756-0.949,4.971-3.045c0.021-0.036,0.061-0.057,0.103-0.053c0.042,0.004,0.077,0.031,0.092,0.071
			c0.585,1.63,1.545,2.671,1.948,2.671c0.017,0,0.032-0.002,0.045-0.006c0.178-0.06,0.209-1.195,0.066-2.431
			c-0.006-0.046,0.021-0.091,0.062-0.11C44.862,17.396,44.877,17.393,44.892,17.393z"/>
	</g>
	<path fill="#ED1C26" d="M43.029,32.838c-0.048,0-0.092-0.033-0.104-0.082c-0.014-0.058,0.021-0.116,0.079-0.13
		c6.68-1.656,7.779-5.308,7.789-5.344c0.017-0.057,0.075-0.091,0.133-0.074c0.057,0.016,0.09,0.075,0.074,0.132
		c-0.044,0.155-1.145,3.809-7.945,5.495C43.047,32.837,43.038,32.838,43.029,32.838z"/>
	<path fill="#ED1C26" d="M52.746,42.04c-0.036,0-0.071-0.018-0.092-0.052c-2.936-4.839-2.12-7.478-2.084-7.588
		c0.019-0.057,0.079-0.087,0.136-0.068c0.056,0.019,0.087,0.079,0.068,0.135c-0.009,0.026-0.814,2.666,2.063,7.41
		c0.031,0.051,0.015,0.117-0.036,0.147C52.784,42.035,52.766,42.04,52.746,42.04z"/>
	<g>
		<g>
			<path fill="#FFDF05" d="M53.605,31.521c1.181-1.825-1.503-0.966-1.503-0.966s6.87-9.875,2.898-17.819
				C51.028,4.792,44.052,1.894,36.645,2.752C26.51,3.928,19.112,16.743,21.975,23.327c0.128,0.295,0.266,0.576,0.408,0.85
				c-0.089-1.625,0.341-3.975,2.383-6.932c4.15-6.011,6.226-7.514,10.162-5.94c3.936,1.575,10.376,5.224,12.524,8.373
				c2.146,3.148,2.075,9.088-2.72,11.092c-4.795,2.003-10.365,1.099-13.448,0.334c-0.868,0.153-0.299,0.884-0.299,0.884
				s-1.295,0.777-3.023,2.461c-1.727,1.684-3.022,1.728-3.67-1.209c-0.004,0.001-0.01,0.003-0.015,0.005
				c-0.347,1.208-1.621,3.723-6.31,5.575c4.723,8.909,9.446,9.017,14.062,2.898c-1.825,8.695,0.537,24.474,0.537,24.474l9.661,0.752
				l0.215-2.684c0,0,0,0,1.288,2.791c9.876,0.322,14.491-3.864,14.491-3.864l-5.475-21.255l6.227,10.091
				c0,0,2.862-4.223,7.621-4.294C62.944,41.504,57.47,32.702,53.605,31.521z"/>
			<path fill="#5A2800" d="M44.805,67.177c-0.354,0-0.718-0.006-1.079-0.018c-0.04-0.002-0.077-0.026-0.094-0.062l-1.116-2.419
				l-0.182,2.275c-0.005,0.059-0.057,0.106-0.116,0.098L32.557,66.3c-0.05-0.004-0.09-0.042-0.098-0.091
				c-0.006-0.04-0.595-4.007-0.954-8.985c-0.32-4.446-0.514-10.604,0.329-15.077c-2.052,2.604-4.098,3.922-6.086,3.922
				c-2.694,0-5.344-2.422-7.876-7.198c-0.014-0.027-0.017-0.059-0.006-0.088c0.011-0.028,0.033-0.051,0.062-0.062
				c4.579-1.808,5.878-4.225,6.246-5.505c0.01-0.035,0.038-0.062,0.072-0.073c0.029-0.009,0.067-0.007,0.093,0.008
				s0.051,0.038,0.058,0.067c0.338,1.535,0.853,2.281,1.572,2.281c0.514,0,1.142-0.368,1.919-1.125
				c1.452-1.416,2.616-2.203,2.947-2.417c-0.08-0.134-0.195-0.384-0.109-0.606c0.07-0.182,0.252-0.3,0.54-0.351
				c0.014-0.003,0.03-0.002,0.044,0.001c2.351,0.583,4.625,0.878,6.759,0.878c2.477,0,4.705-0.406,6.623-1.208
				c2.328-0.973,3.29-2.774,3.688-4.113c0.658-2.222,0.251-4.962-1.016-6.819c-2.162-3.171-8.597-6.783-12.475-8.333
				c-0.966-0.387-1.8-0.575-2.548-0.575c-2.548,0-4.521,2.181-7.485,6.476c-1.677,2.428-2.473,4.728-2.366,6.836
				c0.004,0.011,0.006,0.023,0.006,0.035c0,0.06-0.045,0.103-0.109,0.107c-0.039,0.002-0.079-0.021-0.098-0.058
				c-0.165-0.318-0.295-0.591-0.411-0.856c-1.274-2.93-0.611-7.15,1.772-11.288c2.367-4.108,7.021-8.745,12.984-9.436
				C37.468,2.549,38.304,2.5,39.116,2.5c7.021,0,12.695,3.618,15.98,10.188c2.068,4.137,1.166,8.794,0.045,11.972
				c-0.995,2.821-2.334,5.009-2.791,5.715c0.236-0.059,0.585-0.129,0.897-0.129c0.365,0,0.604,0.097,0.708,0.29
				c0.116,0.214,0.055,0.518-0.188,0.926c3.835,1.329,9.199,9.871,12.918,16.215c0.02,0.032,0.02,0.073,0.001,0.106
				s-0.054,0.054-0.092,0.055c-4.649,0.07-7.506,4.205-7.534,4.247c-0.021,0.029-0.057,0.048-0.092,0.047
				c-0.036-0.001-0.07-0.021-0.089-0.051l-5.854-9.488l5.298,20.568c0.01,0.039-0.003,0.08-0.032,0.106
				C58.25,63.306,53.878,67.177,44.805,67.177z M43.799,66.946c0.337,0.011,0.675,0.016,1.006,0.016
				c8.475,0,12.797-3.396,13.296-3.812L52.643,41.96c-0.014-0.052,0.013-0.104,0.062-0.126c0.05-0.021,0.105-0.003,0.134,0.043
				l6.142,9.954c0.533-0.712,3.254-4.047,7.43-4.204c-3.739-6.369-9.095-14.861-12.836-16.003c-0.032-0.01-0.058-0.034-0.069-0.066
				s-0.007-0.067,0.011-0.095c0.314-0.486,0.312-0.717,0.252-0.825c-0.079-0.147-0.325-0.178-0.519-0.178
				c-0.492,0-1.107,0.195-1.113,0.197c-0.043,0.014-0.092-0.001-0.119-0.039c-0.027-0.037-0.028-0.087-0.002-0.125
				c0.018-0.024,1.726-2.5,2.928-5.91c1.105-3.137,1.997-7.731-0.037-11.799C51.658,6.291,46.051,2.715,39.116,2.715
				c-0.804,0-1.631,0.048-2.459,0.145c-5.885,0.682-10.482,5.267-12.823,9.33c-2.314,4.019-2.989,8.27-1.761,11.095
				c0.059,0.135,0.122,0.272,0.191,0.417c0.017-2.03,0.827-4.221,2.413-6.518c3.008-4.356,5.019-6.568,7.662-6.568
				c0.776,0,1.636,0.193,2.628,0.589c3.903,1.562,10.384,5.204,12.572,8.412c1.321,1.938,1.731,4.686,1.045,7.001
				c-0.411,1.384-1.405,3.245-3.812,4.25c-1.943,0.812-4.199,1.225-6.705,1.225c-2.144,0-4.428-0.296-6.788-0.879
				c-0.195,0.038-0.314,0.109-0.354,0.212c-0.065,0.169,0.082,0.415,0.144,0.496c0.019,0.024,0.026,0.055,0.021,0.085
				s-0.024,0.057-0.05,0.072c-0.013,0.008-1.306,0.792-3.003,2.446c-0.819,0.799-1.496,1.187-2.069,1.187
				c-0.774,0-1.332-0.688-1.698-2.101c-0.498,1.362-1.946,3.575-6.152,5.264c2.475,4.63,5.042,6.979,7.63,6.979
				c2.008,0,4.092-1.413,6.195-4.201c0.03-0.04,0.084-0.054,0.13-0.033c0.046,0.021,0.071,0.071,0.061,0.12
				c-0.94,4.479-0.744,10.883-0.414,15.467c0.329,4.569,0.853,8.285,0.94,8.886l9.468,0.736l0.206-2.577
				c0.004-0.049,0.04-0.089,0.089-0.097s0.096,0.017,0.116,0.061L43.799,66.946z"/>
		</g>
		<g>
			<path fill="#FB9110" d="M58.973,52.023c0,0,6.548,0.107,7.621-4.294C61.835,47.801,58.973,52.023,58.973,52.023z"/>
			<path fill="#5A2800" d="M59.014,52.131h-0.043c-0.04-0.001-0.075-0.023-0.094-0.058c-0.019-0.035-0.016-0.077,0.007-0.11
				c0.028-0.042,2.948-4.27,7.708-4.341c0.031,0.001,0.064,0.015,0.086,0.041c0.021,0.025,0.028,0.06,0.021,0.092
				C65.661,52.008,59.69,52.131,59.014,52.131z M66.454,47.841c-4.026,0.132-6.679,3.299-7.269,4.073
				c0.533-0.013,1.945-0.093,3.41-0.566C64.702,50.667,66,49.487,66.454,47.841z"/>
		</g>
	</g>
	<path fill="#5A2800" d="M32.029,41.826c-0.005,0-0.011-0.001-0.016-0.002c-0.059-0.009-0.099-0.063-0.09-0.122
		c0.022-0.144,0.547-3.54,1.262-5.039c0.025-0.054,0.089-0.076,0.143-0.051c0.053,0.025,0.076,0.089,0.051,0.143
		c-0.701,1.471-1.238,4.944-1.243,4.979C32.127,41.788,32.081,41.826,32.029,41.826z"/>
	<g>
		<g>
			<path fill="#FBC410" d="M38.147,31.965c0,0-2.416,4.157-2.528,7.865c-0.112,1.292,0.73,0.898,1.067-1.18
				c0.337-2.079,2.191-6.629,2.191-6.629L38.147,31.965z"/>
			<path fill="#5A2800" d="M35.829,40.68L35.829,40.68c-0.071,0-0.136-0.03-0.188-0.086c-0.148-0.161-0.151-0.51-0.128-0.773
				c0.111-3.686,2.518-7.868,2.542-7.91c0.021-0.036,0.058-0.057,0.101-0.053l0.73,0.056c0.034,0.003,0.065,0.021,0.083,0.051
				s0.021,0.065,0.008,0.097c-0.019,0.045-1.854,4.563-2.185,6.606C36.6,39.853,36.204,40.68,35.829,40.68z M38.207,32.077
				c-0.29,0.517-2.377,4.354-2.48,7.756c-0.032,0.363,0.017,0.556,0.072,0.616c0.015,0.016,0.025,0.016,0.03,0.016
				c0.154,0,0.544-0.553,0.752-1.833c0.302-1.864,1.832-5.741,2.143-6.516L38.207,32.077z"/>
		</g>
		<g>
			<path fill="#FBC410" d="M39.383,32.078c0,0,1.124,4.55,1.686,6.966c0.562,2.416,1.011,1.685,0.73-1.011
				c-0.281-2.696-1.629-6.124-1.629-6.124L39.383,32.078z"/>
			<path fill="#5A2800" d="M41.667,40.617c-0.094,0-0.343,0-0.703-1.549c-0.555-2.388-1.674-6.919-1.685-6.965
				c-0.007-0.028-0.002-0.058,0.013-0.083c0.016-0.024,0.04-0.042,0.068-0.048l0.787-0.168c0.052-0.012,0.103,0.017,0.123,0.065
				c0.013,0.034,1.357,3.472,1.636,6.151c0.053,0.51,0.204,2.198-0.092,2.526C41.761,40.605,41.705,40.617,41.667,40.617z
				 M39.514,32.159c0.173,0.704,1.151,4.677,1.659,6.86c0.257,1.106,0.441,1.333,0.49,1.375c0.085-0.115,0.192-0.791,0.029-2.351
				c-0.252-2.417-1.382-5.466-1.59-6.01L39.514,32.159z"/>
		</g>
		<g>
			<path fill="#FBC410" d="M35.649,41.985c-0.01,0-0.021-0.001-0.031-0.003c-0.117-0.017-0.199-0.125-0.182-0.243l0.177-1.239
				c0.017-0.118,0.125-0.199,0.243-0.182c0.118,0.017,0.199,0.125,0.182,0.243l-0.177,1.24
				C35.846,41.907,35.754,41.985,35.649,41.985z"/>
			<path fill="#5A2800" d="M35.649,42.092c-0.015,0-0.03-0.001-0.045-0.003c-0.176-0.025-0.299-0.188-0.273-0.364l0.177-1.239
				c0.024-0.172,0.186-0.299,0.364-0.273c0.176,0.025,0.298,0.188,0.273,0.364l-0.177,1.239
				C35.945,41.974,35.809,42.092,35.649,42.092z M35.839,40.425c-0.068,0-0.111,0.038-0.119,0.091l-0.177,1.239
				c-0.008,0.059,0.032,0.113,0.091,0.121l0.016,0.002c0.053,0,0.099-0.04,0.106-0.093l0.177-1.239
				c0.008-0.059-0.033-0.113-0.091-0.121C35.84,40.425,35.839,40.425,35.839,40.425z"/>
		</g>
		<g>
			<path fill="#FBC410" d="M41.845,41.867c-0.105,0-0.197-0.078-0.212-0.186l-0.157-1.141c-0.016-0.117,0.066-0.226,0.183-0.242
				c0.116-0.017,0.226,0.066,0.242,0.184l0.157,1.141c0.017,0.118-0.066,0.226-0.183,0.243
				C41.865,41.866,41.855,41.867,41.845,41.867z"/>
			<path fill="#5A2800" d="M41.845,41.975c-0.16,0-0.297-0.12-0.318-0.278l-0.158-1.141c-0.024-0.176,0.099-0.339,0.275-0.363
				c0.167-0.025,0.339,0.101,0.363,0.275l0.157,1.141c0.024,0.176-0.099,0.339-0.275,0.363
				C41.875,41.974,41.86,41.975,41.845,41.975z M41.689,40.404c-0.074,0.009-0.115,0.063-0.107,0.122l0.157,1.141
				c0.007,0.053,0.053,0.092,0.106,0.092l0.015-0.001c0.059-0.008,0.1-0.062,0.092-0.121l-0.158-1.141
				C41.787,40.444,41.741,40.404,41.689,40.404z"/>
		</g>
	</g>
	<g>
		<path fill="#FFC390" d="M21.294,36.995l-0.917-1.434c0,0-2.276,1.059-3.027-1.518c-0.939,0.268-2.066-1.664-1.127-1.878
			c0.322-1.664,0.886-1.879,1.342-1.583c0.59-1.288,1.583-1.208,2.013-0.751c0.563-0.671,1.771-0.295,2.228,0.966
			c0.966,0.134,1.315,1.154,0.832,2.093c-0.483,0.939-0.671,0.939-0.268,1.503c0.402,0.563,0.725,1.047,0.725,1.047
			S22.476,36.297,21.294,36.995z"/>
		<path fill="#5A2800" d="M21.294,37.103c-0.035,0-0.07-0.018-0.09-0.049l-0.869-1.358c-0.165,0.064-0.546,0.189-0.999,0.189
			c-0.697,0-1.613-0.301-2.061-1.715c-0.676,0.097-1.432-0.764-1.507-1.438c-0.037-0.328,0.094-0.562,0.362-0.651
			c0.23-1.139,0.599-1.717,1.096-1.717c0.097,0,0.194,0.023,0.292,0.069c0.326-0.646,0.81-1.013,1.34-1.013
			c0.266,0,0.521,0.093,0.715,0.259c0.191-0.183,0.443-0.283,0.72-0.283c0.545,0,1.241,0.404,1.591,1.306
			c0.41,0.074,0.734,0.307,0.917,0.661c0.233,0.45,0.208,1.04-0.069,1.578c-0.101,0.196-0.188,0.351-0.261,0.479
			c-0.272,0.481-0.295,0.521-0.016,0.912c0.399,0.559,0.724,1.045,0.727,1.05c0.025,0.037,0.024,0.086-0.002,0.122
			c-0.026,0.036-0.644,0.885-1.831,1.586C21.332,37.098,21.313,37.103,21.294,37.103z M20.377,35.454c0.036,0,0.07,0.018,0.09,0.05
			l0.861,1.346c0.92-0.563,1.477-1.218,1.632-1.415c-0.101-0.149-0.367-0.542-0.68-0.98c-0.346-0.484-0.29-0.625,0.003-1.143
			c0.071-0.126,0.158-0.279,0.257-0.471c0.245-0.477,0.271-0.992,0.069-1.381c-0.16-0.308-0.452-0.506-0.821-0.557
			c-0.039-0.005-0.073-0.032-0.086-0.07c-0.306-0.845-0.929-1.223-1.411-1.223c-0.255,0-0.474,0.1-0.633,0.29
			c-0.02,0.024-0.048,0.038-0.079,0.039c-0.03-0.001-0.06-0.011-0.081-0.034c-0.162-0.172-0.395-0.27-0.642-0.27
			c-0.276,0-0.8,0.129-1.195,0.993c-0.013,0.028-0.038,0.049-0.068,0.058c-0.03,0.009-0.062,0.004-0.088-0.013
			c-0.505-0.328-0.93,0.232-1.178,1.513c-0.008,0.042-0.04,0.075-0.082,0.084c-0.204,0.046-0.293,0.194-0.265,0.438
			c0.061,0.536,0.657,1.254,1.184,1.254c0.053,0,0.105-0.007,0.155-0.021c0.056-0.015,0.116,0.017,0.132,0.073
			c0.32,1.099,0.954,1.656,1.884,1.656c0.547,0,0.991-0.203,0.995-0.205C20.346,35.457,20.362,35.454,20.377,35.454z"/>
	</g>
	<path fill="#FFC390" d="M22.6,34.72c-0.321,0.674-0.72,1.248-1.562,1.529c-0.062,0.021-0.125,0.034-0.188,0.052l0.444,0.694
		c1.181-0.698,1.798-1.556,1.798-1.556S22.887,35.13,22.6,34.72z"/>
	<g>
		<path fill="#5A2800" d="M19.597,32.854c-0.282,0-0.493-0.096-0.627-0.237c-0.272-0.285-0.25-0.752,0.057-1.161
			c0.671-0.895,2.699-0.773,2.786-0.768c0.059,0.004,0.104,0.055,0.1,0.114s-0.055,0.102-0.114,0.1
			c-0.02-0.001-1.998-0.12-2.6,0.682c-0.241,0.322-0.271,0.677-0.073,0.884c0.224,0.233,0.788,0.298,1.645-0.286
			c0.049-0.033,0.116-0.021,0.149,0.028c0.034,0.049,0.021,0.116-0.028,0.149C20.365,32.719,19.931,32.854,19.597,32.854z"/>
		<path fill="#5A2800" d="M19.9,33.975c-0.205,0-0.452-0.044-0.684-0.201c-0.388-0.261-0.616-0.751-0.677-1.457
			c-0.146-1.685,0.926-2.537,0.972-2.572c0.047-0.037,0.114-0.028,0.15,0.019c0.037,0.047,0.028,0.114-0.019,0.15
			c-0.01,0.008-1.025,0.82-0.89,2.384c0.056,0.638,0.252,1.075,0.583,1.298c0.375,0.252,0.802,0.149,0.925,0.111
			c0.314-0.097,0.336-0.753,0.318-0.999c-0.004-0.059,0.04-0.11,0.099-0.115c0.06-0.005,0.111,0.04,0.115,0.099
			c0.008,0.108,0.062,1.057-0.469,1.22C20.253,33.935,20.096,33.975,19.9,33.975z"/>
		<path fill="#5A2800" d="M18.715,33.814c-0.313,0-0.576-0.096-0.786-0.288c-0.855-0.781-0.486-2.876-0.471-2.964
			c0.011-0.059,0.065-0.098,0.125-0.086c0.058,0.01,0.097,0.066,0.086,0.125c-0.004,0.021-0.364,2.067,0.404,2.768
			c0.262,0.239,0.637,0.293,1.117,0.16c0.057-0.015,0.117,0.018,0.132,0.075s-0.018,0.117-0.075,0.132
			C19.057,33.788,18.879,33.814,18.715,33.814z"/>
		<path fill="#5A2800" d="M17.578,33.938c-0.071,0-0.143-0.01-0.214-0.031c-0.789-0.225-1.226-1.651-1.244-1.712
			c-0.017-0.057,0.015-0.117,0.072-0.134c0.057-0.018,0.117,0.015,0.134,0.072c0.004,0.014,0.422,1.375,1.098,1.568
			c0.222,0.063,0.447-0.009,0.688-0.222c0.045-0.039,0.112-0.035,0.152,0.009c0.039,0.044,0.035,0.112-0.01,0.151
			C18.028,33.839,17.802,33.938,17.578,33.938z"/>
	</g>
	<g>
		<g>
			<circle fill="#FBC410" cx="38.505" cy="36.28" r="0.501"/>
			<path fill="#5A2800" d="M38.505,36.888c-0.335,0-0.608-0.272-0.608-0.608s0.273-0.608,0.608-0.608s0.608,0.273,0.608,0.608
				S38.841,36.888,38.505,36.888z M38.505,35.886c-0.217,0-0.394,0.176-0.394,0.394c0,0.217,0.176,0.394,0.394,0.394
				c0.217,0,0.394-0.177,0.394-0.394C38.899,36.062,38.722,35.886,38.505,35.886z"/>
		</g>
		<g>
			<circle fill="#FBC410" cx="38.505" cy="43.149" r="0.501"/>
			<path fill="#5A2800" d="M38.505,43.758c-0.335,0-0.608-0.272-0.608-0.608c0-0.335,0.273-0.607,0.608-0.607
				s0.608,0.272,0.608,0.607C39.114,43.485,38.841,43.758,38.505,43.758z M38.505,42.756c-0.217,0-0.394,0.177-0.394,0.394
				c0,0.218,0.176,0.394,0.394,0.394c0.217,0,0.394-0.176,0.394-0.394C38.899,42.933,38.722,42.756,38.505,42.756z"/>
		</g>
		<g>
			<circle fill="#FBC410" cx="38.863" cy="49.877" r="0.501"/>
			<path fill="#5A2800" d="M38.863,50.484c-0.335,0-0.608-0.272-0.608-0.607c0-0.336,0.273-0.608,0.608-0.608
				s0.608,0.272,0.608,0.608C39.471,50.212,39.199,50.484,38.863,50.484z M38.863,49.482c-0.217,0-0.394,0.177-0.394,0.395
				c0,0.217,0.176,0.394,0.394,0.394c0.217,0,0.394-0.177,0.394-0.394C39.257,49.659,39.08,49.482,38.863,49.482z"/>
		</g>
		<g>
			<circle fill="#FBC410" cx="39.722" cy="56.818" r="0.501"/>
			<path fill="#5A2800" d="M39.722,57.426c-0.335,0-0.608-0.272-0.608-0.607c0-0.336,0.273-0.608,0.608-0.608
				s0.608,0.272,0.608,0.608C40.33,57.153,40.058,57.426,39.722,57.426z M39.722,56.424c-0.217,0-0.394,0.177-0.394,0.395
				c0,0.217,0.176,0.394,0.394,0.394c0.217,0,0.394-0.177,0.394-0.394C40.116,56.601,39.939,56.424,39.722,56.424z"/>
		</g>
		<g>
			<circle fill="#FBC410" cx="40.867" cy="62.472" r="0.501"/>
			<path fill="#5A2800" d="M40.867,63.08c-0.335,0-0.608-0.273-0.608-0.608c0-0.336,0.273-0.608,0.608-0.608
				c0.335,0,0.608,0.272,0.608,0.608C41.475,62.807,41.202,63.08,40.867,63.08z M40.867,62.078c-0.217,0-0.394,0.176-0.394,0.394
				c0,0.217,0.177,0.394,0.394,0.394c0.217,0,0.393-0.177,0.393-0.394C41.26,62.254,41.084,62.078,40.867,62.078z"/>
		</g>
	</g>
	<g>
		<path fill="#FFC390" d="M61.343,49.635c0,0,0.521,0.757,0.865,1.236s-0.719,1.872-0.719,2.711s0.824,0.314,1.662-1.033
			c0.869,1.723,2.112,2.936,2.562,2.711s-1.108-2.801-1.108-2.801s2.306,2.486,2.845,2.172s-1.527-3.011-1.527-3.011
			s2.576,2.052,3.025,1.528c0.449-0.524-2.411-2.292-2.411-2.292s2.472,0.719,2.591,0.135c0.12-0.584-2.65-1.153-4.134-1.258
			c-1.048,0.03-1.407-0.599-1.872-1.168C63.121,48.565,62.35,48.922,61.343,49.635z"/>
		<path fill="#5A2800" d="M65.59,55.394c-0.597,0-1.675-1.165-2.448-2.63c-0.537,0.825-1.071,1.33-1.413,1.33l0,0
			c-0.104,0-0.347-0.05-0.347-0.512c0-0.398,0.218-0.895,0.429-1.375c0.229-0.521,0.465-1.059,0.311-1.273
			c-0.342-0.475-0.861-1.23-0.867-1.238c-0.033-0.048-0.021-0.114,0.026-0.148c1.004-0.71,1.788-1.075,1.796-1.079
			c0.044-0.021,0.098-0.009,0.129,0.029c0.052,0.064,0.103,0.13,0.153,0.194c0.379,0.481,0.736,0.936,1.564,0.936l0.067-0.001
			c1.267,0.089,3.73,0.539,4.17,1.119c0.083,0.108,0.085,0.205,0.072,0.268c-0.064,0.314-0.529,0.314-0.682,0.314
			c-0.422,0-0.978-0.105-1.404-0.203c0.722,0.485,1.873,1.331,1.951,1.831c0.016,0.102-0.008,0.191-0.068,0.263
			c-0.07,0.082-0.175,0.123-0.31,0.123c-0.537,0-1.607-0.708-2.277-1.193c0.519,0.732,1.287,1.915,1.196,2.377
			c-0.022,0.112-0.086,0.17-0.135,0.199c-0.048,0.027-0.104,0.042-0.168,0.042c-0.495,0-1.542-0.953-2.215-1.62
			c0.385,0.705,0.867,1.696,0.765,2.053c-0.027,0.092-0.083,0.136-0.125,0.157C65.71,55.381,65.652,55.394,65.59,55.394z
			 M63.151,52.441c0.002,0,0.004,0,0.005,0c0.039,0.002,0.074,0.024,0.091,0.059c0.837,1.66,1.929,2.679,2.343,2.679
			c0.029,0,0.055-0.005,0.075-0.016c0.007-0.003,0.012-0.016,0.015-0.025c0.099-0.342-0.663-1.79-1.167-2.623
			c-0.028-0.047-0.017-0.108,0.027-0.142s0.105-0.027,0.143,0.013c0.56,0.603,2.124,2.165,2.653,2.165
			c0.024,0,0.045-0.004,0.06-0.013c0.008-0.004,0.024-0.015,0.032-0.055c0.082-0.419-0.933-1.938-1.591-2.798
			c-0.033-0.043-0.029-0.104,0.01-0.142c0.038-0.039,0.1-0.042,0.142-0.008c0.556,0.442,2.129,1.59,2.731,1.59
			c0.104,0,0.136-0.036,0.146-0.048c0.013-0.016,0.027-0.04,0.02-0.09c-0.078-0.503-1.764-1.644-2.406-2.04
			c-0.046-0.028-0.063-0.086-0.041-0.135c0.021-0.05,0.075-0.074,0.128-0.06c0.012,0.003,1.243,0.359,1.984,0.359
			c0.281,0,0.452-0.053,0.471-0.144c0.003-0.01,0.009-0.041-0.032-0.095c-0.349-0.461-2.634-0.938-4.003-1.034l-0.063,0.001
			c-0.933,0-1.34-0.518-1.732-1.018c-0.033-0.042-0.065-0.084-0.099-0.125c-0.209,0.104-0.832,0.427-1.601,0.962
			c0.147,0.214,0.533,0.771,0.804,1.147c0.226,0.313-0.013,0.856-0.288,1.485c-0.202,0.459-0.41,0.935-0.41,1.288
			c0,0.136,0.022,0.297,0.132,0.297c0.226,0,0.739-0.434,1.332-1.387C63.08,52.461,63.115,52.441,63.151,52.441z"/>
	</g>
	<path fill="#FFC390" d="M63.704,49.255c-0.214-0.206-0.39-0.452-0.583-0.689c0,0-0.771,0.356-1.778,1.069
		c0,0,0.233,0.339,0.491,0.707C62.304,49.832,62.965,49.488,63.704,49.255z"/>
	
		<ellipse transform="matrix(0.9998 -0.0175 0.0175 0.9998 -0.4641 0.5061)" opacity="0.5" fill="#F38395" cx="28.697" cy="26.776" rx="1.395" ry="0.537"/>
	
		<ellipse transform="matrix(0.9998 -0.0177 0.0177 0.9998 -0.4403 0.737)" opacity="0.5" fill="#F38395" cx="41.484" cy="25.285" rx="1.395" ry="0.537"/>
	<path fill="#FFFFFF" d="M32.351,5.078c0,0-9.017,5.295-10.162,15.458C21.331,15.669,25.481,7.94,32.351,5.078z"/>
	<g>
		<path fill="#FFDF05" d="M52.103,30.555c0,0,6.87-9.875,2.898-17.819C51.028,4.792,44.052,1.894,36.645,2.752
			c-0.542,0.063-1.077,0.161-1.603,0.288C42.565,4.03,57.29,8.724,52.103,30.555z"/>
	</g>
	<g>
		<path fill="#FFDF05" d="M35.127,31.808c-1.48-0.173-2.804-0.446-3.843-0.704c-0.868,0.153-0.299,0.884-0.299,0.884
			s-1.295,0.777-3.023,2.461c-1.727,1.684-3.022,1.728-3.67-1.209c-0.004,0.001-0.01,0.003-0.015,0.005
			c-0.347,1.208-1.621,3.723-6.31,5.575c4.723,8.909,9.446,9.017,14.062,2.898c-0.097,0.461-0.181,0.943-0.255,1.44
			c0.077-0.261,0.139-0.545,0.179-0.857C32.224,40.187,33.427,35.586,35.127,31.808z"/>
	</g>
	<g>
		<path fill="#FFDF05" d="M54.217,31.768c-2.753-0.533-2.807,2.429-2.7,5.313c0.071,1.911,0.717,3.854,1.354,5.336l-0.125-0.484
			l6.227,10.091c0,0,2.862-4.223,7.621-4.294C63.132,41.825,58.03,33.607,54.217,31.768z"/>
	</g>
	<path fill="#FFFFFF" d="M20.186,39.071c0,0,3.148,8.373,9.518,4.007c-3.363,3.578-7.228,2.72-10.52-3.578
		C19.899,39.214,20.186,39.071,20.186,39.071z"/>
	<g opacity="0.5">
		<path fill="#3D1603" d="M48.785,23.809c-0.087-1.529-0.568-3.008-1.334-4.131c-2.147-3.149-8.588-6.798-12.524-8.373
			c-3.936-1.574-6.011-0.071-10.162,5.94c-0.058,0.083-0.109,0.165-0.165,0.247c-0.084,0.453-0.159,1.017-0.169,1.621
			c1.163-2.3,3.639-6.102,7.402-6.349c4.247-0.278,8.329,1.79,10.451,5.049c0.124-0.159,0.238-0.324,0.339-0.498
			c0.648,1.805,1.713,2.869,2.129,2.73s0.139-2.545,0.139-2.545S47.627,20.621,48.785,23.809z"/>
	</g>
	<g>
		<path fill="#FFC390" d="M48.785,23.809c-1.158-3.188-3.894-6.309-3.894-6.309s0.277,2.406-0.139,2.545s-1.48-0.925-2.129-2.73
			c-0.075,0.13-0.158,0.255-0.247,0.377c1.261,2.167,6.704,12.522-3.339,14.271c1.889-0.083,3.849-0.422,5.693-1.193
			C47.815,29.48,48.943,26.564,48.785,23.809z"/>
	</g>
</g>
</svg>
