<?xml version="1.0" encoding="utf-8"?>
<!-- Generator: Adobe Illustrator 16.0.0, SVG Export Plug-In . SVG Version: 6.00 Build 0)  -->
<!DOCTYPE svg PUBLIC "-//W3C//DTD SVG 1.1//EN" "http://www.w3.org/Graphics/SVG/1.1/DTD/svg11.dtd">
<svg version="1.1" id="Layer_1" xmlns="http://www.w3.org/2000/svg" xmlns:xlink="http://www.w3.org/1999/xlink" x="0px" y="0px"
	 width="85px" height="85px" viewBox="0 0 85 85" enable-background="new 0 0 85 85" xml:space="preserve">
<g id="XMLID_344_">
	<g id="XMLID_38_">
		<g id="XMLID_39_">
			<path id="XMLID_635_" fill="#FFFFFF" d="M31.613,80.054c-0.035,0.441,0.157,1.31,0.736,1.793
				c0.453,0.378,2.388,0.846,4.474,0.437s3.207-0.926,4.377-0.546c1.169,0.38,3.509,0.604,3.869-0.215
				c0.361-0.818,0.215-1.83,0.215-1.83l-7.477-0.47L31.613,80.054z"/>
			<path id="XMLID_676_" fill="#DDDDDD" d="M45.284,79.692l-6.923-0.436c-1.287,1.96-4.14,3.143-6.328,2.239
				c0.089,0.129,0.193,0.248,0.315,0.351c0.453,0.378,2.388,0.846,4.474,0.437s3.207-0.926,4.377-0.546
				c1.169,0.38,3.509,0.604,3.869-0.215C45.431,80.704,45.284,79.692,45.284,79.692z"/>
			<path id="XMLID_636_" fill="#757575" d="M35.172,82.5c-1.405,0-2.531-0.333-2.86-0.608c-0.583-0.487-0.794-1.371-0.757-1.843
				l0.004-0.047l6.241-0.838l7.535,0.473l0.007,0.047c0.007,0.042,0.145,1.038-0.219,1.862c-0.387,0.878-2.771,0.627-3.941,0.247
				c-0.836-0.272-1.632-0.08-2.837,0.209c-0.441,0.106-0.941,0.228-1.51,0.339C36.259,82.453,35.696,82.5,35.172,82.5z
				 M31.669,80.104c-0.019,0.457,0.186,1.253,0.718,1.697c0.438,0.365,2.343,0.833,4.425,0.424c0.566-0.111,1.065-0.231,1.505-0.337
				c1.181-0.284,2.033-0.489,2.9-0.207c1.146,0.372,3.46,0.586,3.798-0.183c0.307-0.694,0.239-1.545,0.217-1.752l-7.429-0.466
				L31.669,80.104z"/>
		</g>
		<g id="XMLID_25_">
			<path id="XMLID_631_" fill="#EF0F0F" d="M38.373,76.356c-0.877,0.683-2.495,2.262-3.451,2.32c-0.955,0.059-1.891-0.01-2.69,0.282
				c-0.799,0.293-0.75,1.336-0.273,1.726c0.381,0.312,2.398,0.945,4.25,0.604c0.877-0.186,3.461-0.984,4.718-0.741
				c1.258,0.244,4.025,0.215,4.289-0.575c0.263-0.789,0.073-2.529-0.264-2.909C41.137,76.684,38.373,76.356,38.373,76.356z"/>
			<path id="XMLID_675_" fill="#B20000" d="M44.952,77.063c-0.366-0.036-0.723-0.072-1.068-0.107
				c1.107,0.844,0.854,2.676,0.23,2.948c-1.481,0.565-2.793,0.026-4.588,0.207c-1.05,0.105-1.846,0.292-3.21,0.722
				c-1.29,0.322-3.549,0.25-4.629-0.543c0.06,0.158,0.152,0.297,0.272,0.395c0.381,0.312,2.398,0.945,4.25,0.604
				c0.877-0.186,3.461-0.984,4.718-0.741c1.258,0.244,4.025,0.215,4.289-0.575C45.479,79.184,45.289,77.443,44.952,77.063z"/>
			<path id="XMLID_632_" fill="#4F0000" d="M35.096,81.443c-1.455,0-2.832-0.435-3.174-0.714c-0.273-0.223-0.418-0.654-0.351-1.049
				c0.062-0.372,0.29-0.648,0.641-0.776c0.603-0.221,1.271-0.238,1.978-0.258c0.238-0.007,0.485-0.014,0.729-0.028
				c0.726-0.044,1.894-1.031,2.746-1.752c0.246-0.208,0.479-0.405,0.672-0.556l0.02-0.015l0.023,0.003
				c0.027,0.003,2.807,0.331,6.578,0.706l0.023,0.003l0.015,0.017c0.369,0.417,0.533,2.191,0.275,2.967
				c-0.284,0.853-3.165,0.846-4.355,0.614c-0.987-0.191-2.852,0.281-3.966,0.563c-0.294,0.075-0.548,0.139-0.729,0.177
				C35.852,81.414,35.471,81.443,35.096,81.443z M38.391,76.418c-0.188,0.146-0.413,0.337-0.65,0.537
				c-0.913,0.772-2.049,1.733-2.814,1.78c-0.247,0.015-0.494,0.021-0.734,0.028c-0.697,0.019-1.355,0.036-1.94,0.251
				c-0.417,0.152-0.534,0.495-0.566,0.686c-0.06,0.355,0.067,0.741,0.31,0.939c0.351,0.286,2.341,0.936,4.203,0.592
				c0.177-0.037,0.43-0.102,0.723-0.176c1.196-0.303,3.003-0.761,4.017-0.565c1.3,0.252,3.977,0.199,4.222-0.536
				c0.259-0.774,0.07-2.443-0.237-2.835C41.348,76.763,38.67,76.45,38.391,76.418z"/>
		</g>
		<g id="XMLID_336_">
			<g id="XMLID_366_">
				<path id="XMLID_627_" fill="#FFFFFF" d="M37.825,79.571c0.529-0.337-0.18-1.521-0.999-1.938
					c-0.284,0.225-0.573,0.438-0.851,0.612C37.117,78.749,37.152,79.999,37.825,79.571z"/>
				<path id="XMLID_702_" fill="#757575" d="M36.853,77.582l-0.033-0.018l-0.029,0.023c-0.323,0.255-0.599,0.453-0.846,0.608
					l-0.093,0.059l0.101,0.045c0.522,0.229,0.806,0.62,1.034,0.934c0.191,0.263,0.353,0.485,0.583,0.485
					c0.085,0,0.179-0.029,0.287-0.099c0.146-0.093,0.219-0.249,0.209-0.452C38.04,78.639,37.474,77.897,36.853,77.582z
					 M37.793,79.521c-0.297,0.189-0.434,0.027-0.712-0.357c-0.222-0.305-0.495-0.681-0.984-0.926
					c0.219-0.144,0.462-0.319,0.737-0.535c0.565,0.304,1.093,0.995,1.115,1.471C37.956,79.334,37.904,79.451,37.793,79.521z"/>
			</g>
			<g id="XMLID_544_">
				<path id="XMLID_623_" fill="#FFFFFF" d="M39.025,78.431c0.403-0.393-0.312-1.358-1.082-1.723
					c-0.227,0.189-0.477,0.403-0.737,0.619C38.277,77.698,38.488,78.954,39.025,78.431z"/>
				<path id="XMLID_624_" fill="#757575" d="M38.776,78.615c-0.005,0-0.009,0-0.014,0c-0.189-0.009-0.346-0.191-0.543-0.423
					c-0.244-0.286-0.548-0.642-1.033-0.81l-0.098-0.034l0.08-0.066c0.172-0.143,0.34-0.285,0.5-0.42l0.266-0.224l0.034,0.016
					c0.595,0.283,1.143,0.898,1.222,1.371c0.03,0.184-0.013,0.339-0.124,0.447l0,0C38.968,78.568,38.873,78.615,38.776,78.615z
					 M37.32,77.309c0.459,0.188,0.751,0.53,0.988,0.808c0.18,0.21,0.321,0.376,0.459,0.382c0.066,0.005,0.139-0.032,0.217-0.109l0,0
					c0.085-0.082,0.115-0.197,0.091-0.344c-0.07-0.424-0.58-0.997-1.123-1.269l-0.208,0.176
					C37.608,77.066,37.466,77.187,37.32,77.309z"/>
			</g>
		</g>
	</g>
	<g id="XMLID_40_">
		<g id="XMLID_41_">
			<path id="XMLID_619_" fill="#FFFFFF" d="M55.87,80.136c0.033,0.707,0.399,3.024,5.117,2.05c4.23-0.853,2.762-3.333,2.762-3.333
				l-1.065,0.02L55.87,80.136z"/>
			<path id="XMLID_670_" fill="#DDDDDD" d="M63.749,78.853l-1.065,0.02l-0.429,0.079c0.196,1.087-0.189,1.819-1.248,2.455
				c-1.18,0.786-2.525,0.992-3.827,0.691c0.753,0.343,1.938,0.475,3.808,0.088C65.218,81.333,63.749,78.853,63.749,78.853z"/>
			<path id="XMLID_620_" fill="#757575" d="M58.941,82.48c-0.981,0-1.746-0.209-2.283-0.625c-0.656-0.51-0.822-1.215-0.847-1.717
				l-0.002-0.052l0.05-0.009l6.813-1.264l1.109-0.021l0.018,0.029c0.02,0.034,0.491,0.848,0.103,1.72
				c-0.361,0.813-1.339,1.386-2.903,1.701C60.232,82.401,59.545,82.48,58.941,82.48z M55.932,80.184
				c0.031,0.474,0.199,1.114,0.799,1.579c0.839,0.651,2.268,0.774,4.245,0.366c1.525-0.309,2.475-0.858,2.82-1.635
				c0.324-0.729-0.003-1.433-0.081-1.583l-1.03,0.02L55.932,80.184z"/>
		</g>
		<g id="XMLID_42_">
			<path id="XMLID_615_" fill="#EF0F0F" d="M56.068,76.922c0.684,0.96-0.729,2.982,0,3.567c0.728,0.585,2.789,0.745,5.191,0.215
				c1.501-0.331,2.832-1.379,2.423-2.022c-0.41-0.643-2.403-1.506-2.423-2.345C59.252,76.728,56.068,76.922,56.068,76.922z"/>
			<path id="XMLID_672_" fill="#B20000" d="M63.683,78.682c-0.41-0.643-2.403-1.506-2.423-2.345c-0.21,0.041-0.434,0.08-0.665,0.116
				c0.311,1.147,1.84,1.423,2.05,2.263c0.186,0.991-0.614,1.622-1.668,2.048c0.094-0.02,0.188-0.039,0.283-0.06
				C62.761,80.373,64.092,79.325,63.683,78.682z"/>
			<path id="XMLID_616_" fill="#4F0000" d="M58.486,81.086c-1.108,0-2.002-0.187-2.455-0.551c-0.388-0.312-0.221-0.974-0.044-1.674
				c0.179-0.708,0.364-1.44,0.033-1.905l-0.062-0.086l0.105-0.007c0.031-0.002,3.203-0.199,5.185-0.583l0.068-0.014l0.001,0.069
				c0.012,0.477,0.742,0.991,1.387,1.445c0.441,0.311,0.858,0.604,1.026,0.869c0.103,0.16,0.111,0.354,0.026,0.559
				c-0.258,0.619-1.349,1.302-2.485,1.552C60.286,80.979,59.324,81.086,58.486,81.086z M56.17,76.974
				c0.287,0.507,0.106,1.223-0.069,1.917c-0.167,0.662-0.325,1.289,0.004,1.554c0.649,0.521,2.624,0.759,5.143,0.202
				c1.104-0.243,2.158-0.895,2.402-1.482c0.071-0.171,0.065-0.322-0.017-0.45c-0.156-0.246-0.563-0.533-0.995-0.837
				c-0.67-0.472-1.362-0.959-1.431-1.47C59.415,76.747,56.718,76.938,56.17,76.974z"/>
		</g>
		<g id="XMLID_43_">
			<path id="XMLID_611_" fill="#FFFFFF" d="M58.276,79.036c-0.228-0.286,0.145-0.825,1.167-1.006
				c0.995-0.176,1.541,0.115,1.476,0.532c-0.055,0.347-0.566-0.087-1.389,0.119C58.85,78.853,58.55,79.381,58.276,79.036z"/>
			<path id="XMLID_612_" fill="#757575" d="M58.478,79.208c-0.087,0-0.169-0.037-0.247-0.136l0,0
				c-0.083-0.104-0.1-0.237-0.048-0.374c0.1-0.262,0.48-0.59,1.251-0.726c0.649-0.114,1.163-0.042,1.408,0.199
				c0.112,0.11,0.159,0.248,0.135,0.399c-0.011,0.068-0.037,0.117-0.081,0.148c-0.088,0.063-0.219,0.042-0.399,0.012
				c-0.235-0.039-0.557-0.092-0.952,0.008c-0.268,0.066-0.479,0.193-0.648,0.295C58.745,79.125,58.606,79.208,58.478,79.208z
				 M58.322,79c0.125,0.158,0.241,0.098,0.514-0.065c0.176-0.106,0.396-0.238,0.68-0.31c0.419-0.104,0.754-0.05,0.999-0.009
				c0.147,0.024,0.265,0.043,0.312,0.009c0.006-0.005,0.025-0.019,0.034-0.072c0.018-0.114-0.017-0.214-0.102-0.298
				c-0.215-0.211-0.703-0.273-1.306-0.167c-0.724,0.128-1.078,0.431-1.161,0.651C58.255,78.838,58.266,78.928,58.322,79L58.322,79z"
				/>
		</g>
		<g id="XMLID_44_">
			<path id="XMLID_607_" fill="#FFFFFF" d="M58.12,77.976c-0.198-0.249,0.127-0.719,1.018-0.876
				c0.866-0.152,1.342,0.101,1.285,0.464c-0.048,0.302-0.493-0.075-1.21,0.104C58.62,77.816,58.359,78.276,58.12,77.976z"/>
			<path id="XMLID_608_" fill="#757575" d="M58.295,78.135c-0.077,0-0.15-0.034-0.221-0.122c-0.073-0.093-0.089-0.212-0.042-0.334
				c0.087-0.229,0.421-0.518,1.095-0.637c0.568-0.1,1.018-0.036,1.233,0.176c0.1,0.098,0.141,0.22,0.12,0.354
				c-0.01,0.062-0.034,0.105-0.074,0.135c-0.078,0.057-0.194,0.037-0.354,0.011c-0.204-0.033-0.483-0.079-0.826,0.007
				c-0.232,0.058-0.415,0.168-0.562,0.257C58.531,78.061,58.409,78.135,58.295,78.135z M59.617,77.113
				c-0.144,0-0.301,0.015-0.47,0.044c-0.627,0.11-0.934,0.373-1.006,0.562c-0.022,0.059-0.036,0.144,0.024,0.22
				c0.102,0.128,0.19,0.09,0.438-0.059c0.154-0.093,0.346-0.208,0.595-0.271c0.366-0.091,0.659-0.043,0.873-0.008
				c0.122,0.021,0.228,0.037,0.267,0.01c0.005-0.004,0.02-0.015,0.026-0.059c0.016-0.097-0.014-0.182-0.086-0.253
				C60.152,77.178,59.918,77.113,59.617,77.113z"/>
		</g>
	</g>
	<g id="XMLID_629_">
		<g id="XMLID_48_">
			<path id="XMLID_647_" fill="#F9C89F" d="M65.373,33.644c0,0,1.872,2.3,2.554,4.191c0.391,3.587,0.391,3.587,0.391,3.587
				l-2.515,2.803c0,0-4.504-1.514-6.448-4.489c-0.906-2.573-0.668-3.441-0.668-3.441l5.595-2.827L65.373,33.644z"/>
			<path id="XMLID_557_" fill="#ECA77F" d="M67.927,37.835c-0.682-1.891-2.554-4.191-2.554-4.191l-1.092-0.175l-0.479,0.242
				c1.977,2.269,3.3,5.199,4.177,8.089l0.339-0.378C68.317,41.422,68.317,41.422,67.927,37.835z"/>
			<path id="XMLID_648_" fill="#87402C" d="M65.82,44.292l-0.037-0.012c-0.045-0.016-4.544-1.555-6.478-4.513l-0.007-0.012
				c-0.901-2.562-0.679-3.44-0.669-3.476l0.008-0.025l0.022-0.012l5.612-2.835l1.132,0.182l0.015,0.018
				c0.019,0.023,1.886,2.33,2.563,4.208l0.003,0.014l0.393,3.613L65.82,44.292z M59.407,39.709c1.821,2.78,5.947,4.295,6.378,4.447
				l2.471-2.754l-0.386-3.554c-0.643-1.773-2.355-3.935-2.528-4.15l-1.051-0.169l-5.553,2.806
				C58.711,36.49,58.604,37.425,59.407,39.709z"/>
		</g>
		<g id="XMLID_47_">
			<path id="XMLID_643_" fill="#F9C89F" d="M25.053,33.142c-2.281,1.988-4.264,4.635-4.264,4.635l4.893,5.982l4.445-3.448
				l0.663-5.186l-2.464-2.609L25.053,33.142z"/>
			<path id="XMLID_653_" fill="#ECA77F" d="M30.413,34.727c-1.725,2.659-3.508,5.496-6.334,7.072l1.604,1.96l4.445-3.448
				l0.663-5.186L30.413,34.727z"/>
			<path id="XMLID_644_" fill="#87402C" d="M25.673,43.841l-4.958-6.062l0.028-0.037c0.02-0.027,2.013-2.674,4.272-4.644
				l0.012-0.011l3.319-0.635l2.505,2.653l-0.669,5.237L25.673,43.841z M20.863,37.775l4.828,5.902l4.38-3.398l0.656-5.134
				l-2.423-2.566l-3.226,0.617C22.979,35.031,21.111,37.45,20.863,37.775z"/>
		</g>
		<g id="XMLID_30_">
			<path id="XMLID_639_" fill="#F9C89F" d="M28.326,53.212c1.246,3.148,1.684,4.099,5.076,6.555s15.966,4.211,21.171,1.521
				s7.954-7.311,7.954-8.422c0-1.11-13.92,0-13.92,0L28.326,53.212z"/>
			<path id="XMLID_660_" fill="#ECA77F" d="M57.886,52.381c-0.561,2.47-3.419,4.766-5.418,5.865
				c-5.602,2.931-16.38,2.024-20.478-0.354c4.395,5.933,18.132,5.696,22.583,3.396c5.205-2.69,7.954-7.311,7.954-8.422
				C62.527,52.436,60.441,52.339,57.886,52.381z"/>
			<path id="XMLID_640_" fill="#87402C" d="M46.977,62.7c-1.161,0-2.393-0.061-3.675-0.185c-4.352-0.423-8.251-1.483-9.934-2.701
				c-3.355-2.43-3.826-3.37-5.097-6.581l-0.031-0.078l0.084-0.002l20.282-0.347c0.523-0.041,12.908-1.019,13.9-0.103
				c0.053,0.049,0.079,0.103,0.079,0.161c0,1.117-2.746,5.766-7.985,8.474C52.872,62.232,50.191,62.7,46.977,62.7z M28.411,53.27
				c1.237,3.122,1.724,4.06,5.025,6.45c1.642,1.188,5.611,2.265,9.877,2.679c4.806,0.467,8.9,0.043,11.233-1.163
				c5.198-2.687,7.922-7.271,7.922-8.37c0-0.024-0.014-0.05-0.041-0.075c-0.955-0.882-13.687,0.124-13.815,0.134L28.411,53.27z"/>
		</g>
		<g id="XMLID_335_">
			<g id="XMLID_31_">
				<path id="XMLID_597_" fill="#004E9B" d="M29.698,56.18c3.509,2.963,8.89,5.926,17.312,4.64
					c8.421-1.287,13.334-4.289,14.894-7.447c0.579-0.245,0.697-0.195,0.697-0.195s1.038,4.465-0.366,9.424
					c0.526,3.073,0.475,6.25,0.293,8.561c0,0,0.351,4.942-1.111,5.644c-1.462,0.702-5.146,0.936-5.498,0.438
					c-0.351-0.497-0.468-2.368-0.906-3.012c-1.228-1.286-4.24-6.784-5.293-8.743c-0.721,0.292-1.959,0.321-1.959,0.321
					s-1.608,5.888-2.076,8.227c-0.468,2.34-0.156,2.827-0.585,3.158c-0.429,0.332-5.79,0.878-6.882-0.429
					c-0.487-0.507-0.409-2.846-0.409-2.846C34.25,68.237,31.722,62.72,29.698,56.18z"/>
				<path id="XMLID_668_" fill="#003F72" d="M62.234,62.601c1.404-4.959,0.366-9.424,0.366-9.424s-0.118-0.05-0.697,0.195
					c-0.271,0.548-0.645,1.091-1.117,1.62c0.669,2.515,1.02,6.295-0.578,11.306c0.468-0.117,1.247-0.526,1.385,0.365
					c0.454,2.948,0.046,6.983-1.166,8.631c0.214,0.146,1.197-0.212,1.121,0.161c-0.146,1.167-2.788,1.78-4.102,2.053
					c1.292-0.011,3.061-0.267,3.97-0.703c1.462-0.701,1.111-5.644,1.111-5.644C62.709,68.851,62.761,65.674,62.234,62.601z"/>
				<path id="XMLID_665_" fill="#003F72" d="M43.579,65.015c0.687,0.469,1.407,0.528,2.091,0.698
					c0.832,2.446-0.834,6.956-1.469,10.114c-0.267,1.333-2.957,1.639-4.297,1.641c1.989,0.319,4.884-0.033,5.194-0.273
					c0.429-0.331,0.117-0.818,0.585-3.158c0.468-2.339,2.076-8.227,2.076-8.227s1.238-0.029,1.959-0.321
					c0.849-0.282,1.16-0.592,1.547-0.896C48.974,65.387,45.896,65.381,43.579,65.015z"/>
				<path id="XMLID_604_" fill="#001828" d="M41.801,77.659c-1.518,0-3.088-0.209-3.629-0.855c-0.479-0.498-0.43-2.633-0.423-2.868
					c-3.58-5.721-6.092-11.179-8.118-17.726c-0.03-0.085,0.017-0.138,0.105-0.075c4.901,4.14,10.548,5.652,17.264,4.627
					c4.004-0.612,7.368-1.627,10.002-3.016c2.368-1.249,4.044-2.771,4.849-4.399l0.01-0.02l0.021-0.009
					c0.559-0.236,0.709-0.209,0.742-0.195l0.027,0.012l0.007,0.029c0.011,0.045,1.023,4.528-0.362,9.439
					c0.546,3.198,0.459,6.421,0.29,8.562c0.015,0.194,0.337,4.98-1.144,5.691c-1.434,0.688-5.182,0.971-5.57,0.42
					c-0.174-0.245-0.289-0.796-0.41-1.378c-0.135-0.643-0.273-1.306-0.497-1.635c-1.251-1.31-4.319-6.932-5.271-8.703
					c-0.657,0.249-1.663,0.298-1.888,0.306c-0.145,0.533-1.622,5.974-2.063,8.181c-0.216,1.077-0.266,1.763-0.298,2.216
					c-0.039,0.538-0.058,0.783-0.309,0.978C44.884,77.435,43.371,77.658,41.801,77.659z M29.813,56.352
					c2.014,6.459,4.5,11.875,8.044,17.537l0.01,0.015l-0.001,0.019c-0.001,0.022-0.071,2.32,0.394,2.804
					c1.073,1.284,6.417,0.722,6.804,0.423c0.21-0.162,0.225-0.361,0.263-0.893c0.033-0.457,0.083-1.146,0.3-2.23
					c0.463-2.314,2.062-8.172,2.077-8.231l0.012-0.042l0.044-0.001c0.012,0,1.235-0.032,1.938-0.317l0.049-0.02l0.024,0.047
					c0.922,1.715,4.026,7.413,5.283,8.73c0.244,0.355,0.385,1.031,0.521,1.684c0.119,0.57,0.231,1.109,0.391,1.335
					c0.329,0.466,3.949,0.251,5.425-0.458c1.41-0.677,1.082-5.538,1.078-5.587c0.169-2.146,0.255-5.364-0.292-8.555l-0.002-0.014
					l0.004-0.013c1.312-4.639,0.471-8.896,0.373-9.354c-0.057,0.003-0.222,0.026-0.605,0.188c-0.819,1.644-2.51,3.176-4.89,4.432
					c-2.645,1.396-6.022,2.414-10.039,3.027C40.337,61.897,34.707,60.417,29.813,56.352z"/>
			</g>
			<g id="XMLID_32_">
				<path id="XMLID_603_" fill="#001828" d="M56.374,75.418c-0.602-0.396-1.29-0.944-1.651-1.43l0.094-0.07
					c0.615,0.827,2.154,1.79,2.565,1.909C57.382,75.827,56.782,75.686,56.374,75.418z"/>
			</g>
			<g id="XMLID_33_">
				<path id="XMLID_602_" fill="#001828" d="M61.235,74.865c0.291-0.134,1.006-1.255,1.233-3.709l0.116,0.011
					c-0.106,1.154-0.329,2.058-0.576,2.696C61.636,74.812,61.235,74.865,61.235,74.865z"/>
			</g>
			<g id="XMLID_34_">
				<path id="XMLID_601_" fill="#001828" d="M60.986,65.063c0.008-0.013,0.805-1.279,1.192-2.479l0.111,0.036
					c-0.149,0.462-0.358,0.933-0.56,1.341C61.401,64.624,60.986,65.063,60.986,65.063z"/>
			</g>
			<g id="XMLID_35_">
				<path id="XMLID_600_" fill="#001828" d="M49.738,65.543l-0.039-0.109c0.696-0.248,1.558-0.836,1.566-0.842
					c0,0-0.387,0.405-0.899,0.671C50.16,65.37,49.942,65.471,49.738,65.543z"/>
			</g>
			<g id="XMLID_36_">
				<path id="XMLID_599_" fill="#001828" d="M47.76,65.868c-1.27,0-2.218-0.077-2.963-0.252c-0.751-0.206-1.218-0.602-1.218-0.602
					c0.857,0.523,2.068,0.736,4.181,0.736V65.868z"/>
			</g>
			<g id="XMLID_37_">
				<path id="XMLID_598_" fill="#001828" d="M38.24,74.525c-0.186-0.19-0.372-0.406-0.504-0.611l0.099-0.063
					c0.345,0.539,1.111,1.169,1.118,1.176C38.953,75.026,38.553,74.848,38.24,74.525z"/>
			</g>
		</g>
		<g id="XMLID_24_">
			<path id="XMLID_589_" fill="#58A00D" d="M36.429,27.756c-5.132,1.169-8.934,3.353-11.375,5.385
				c2.042,0.965,4.255,4.557,4.372,5.259c-0.857,2.553-2.69,9.67-2.027,15.167c2.339,2.456,9.127,4.067,15.479,4.25
				c8.413,0.241,17.503-2.33,20.002-4.64c0.293-2.769-1.638-10.333-3.197-13.218c1.17-2.457,4.484-5.771,5.692-6.316
				c-1.754-2.183-7.446-5.498-9.436-5.341C53.949,28.458,36.429,27.756,36.429,27.756z"/>
			<path id="XMLID_654_" fill="#488206" d="M59.842,29.604c1.746,1.4,3.373,3.215,4.485,4.753c0.42-0.344,0.783-0.595,1.046-0.714
				C64.356,32.378,62.017,30.733,59.842,29.604z"/>
			<path id="XMLID_652_" fill="#488206" d="M28.782,37.083c0.251,0.411,0.536,1.061,0.643,1.317c0.849-2.008,1.85-3.938,3.334-5.521
				C31.326,33.73,29.815,35.698,28.782,37.083z"/>
			<path id="XMLID_651_" fill="#488206" d="M30.989,55.7c3.178,1.229,7.63,1.995,11.887,2.117c8.413,0.241,17.503-2.33,20.002-4.64
				c0.293-2.769-1.638-10.333-3.197-13.218c0.039-0.081-1.91-3.665-3.353-5.458c0.865,1.676,5.229,12.338,0.517,17.195
				C51.361,57.346,36.281,57.069,30.989,55.7z"/>
			<g id="XMLID_594_">
				<path id="XMLID_139_" fill="#022100" d="M43.996,57.892c-0.376,0-0.749-0.005-1.121-0.016
					c-6.934-0.199-13.316-1.954-15.52-4.269l-0.013-0.014l-0.002-0.02c-0.641-5.313,1.042-12.243,2.025-15.178
					c-0.137-0.688-2.322-4.25-4.336-5.202l-0.083-0.039l0.071-0.059c1.729-1.439,5.51-4.055,11.399-5.397l0.007-0.002l0.008,0
					c0.175,0.007,17.54,0.7,19.503,0.546c2.1-0.165,7.772,3.232,9.485,5.363l0.047,0.059l-0.068,0.031
					c-1.244,0.562-4.495,3.86-5.651,6.262c1.52,2.834,3.489,10.393,3.19,13.225l-0.003,0.021l-0.016,0.016
					C60.443,55.508,52.008,57.892,43.996,57.892z M27.453,53.541c2.197,2.286,8.533,4.02,15.425,4.218
					c3.879,0.111,8.212-0.372,12.203-1.361c3.602-0.893,6.492-2.105,7.741-3.248c0.286-2.841-1.683-10.368-3.192-13.162
					l-0.015-0.026l0.013-0.027c1.134-2.381,4.343-5.657,5.653-6.312c-1.848-2.234-7.468-5.413-9.339-5.263
					c-1.953,0.153-19.058-0.527-19.508-0.545c-5.783,1.319-9.522,3.87-11.274,5.314c2.08,1.048,4.21,4.585,4.323,5.262l0.002,0.015
					l-0.004,0.014C28.502,41.334,26.82,48.241,27.453,53.541z"/>
			</g>
		</g>
		<g id="XMLID_26_">
			<path id="XMLID_593_" fill="#022100" d="M29.48,38.42l-0.11-0.04c0.749-2.034,2.037-3.942,2.855-5.001
				c0.431-0.589,0.777-0.736,0.777-0.736C32.631,32.985,30.526,35.578,29.48,38.42z"/>
		</g>
		<g id="XMLID_27_">
			<path id="XMLID_137_" fill="#022100" d="M59.627,39.981c-0.922-2.305-3.746-5.915-3.774-5.951c0,0,0.364,0.275,0.752,0.802
				c0.902,1.226,2.482,3.483,3.131,5.105L59.627,39.981z"/>
		</g>
		<g id="XMLID_28_">
			<path id="XMLID_553_" fill="#488206" d="M35.026,43.816c-1.292,0-2.688-0.32-3.828-1.098c-0.47-0.322-0.737-0.772-0.737-0.772
				c2.193,1.367,4.266,1.629,6.453,1.505c0,0-0.5,0.271-1.47,0.353C35.307,43.812,35.167,43.816,35.026,43.816z"/>
		</g>
		<g id="XMLID_551_">
			<path id="XMLID_135_" fill="#022100" d="M35.026,43.816c-1.292,0-2.688-0.32-3.828-1.098c-0.47-0.322-0.737-0.772-0.737-0.772
				c1.73,1.792,4.558,2.037,6.453,1.505c0,0-0.5,0.271-1.47,0.353C35.307,43.812,35.167,43.816,35.026,43.816z"/>
		</g>
		<g id="XMLID_555_">
			<path id="XMLID_556_" fill="#488206" d="M50.334,43.491c-0.448,0-0.89-0.034-1.309-0.107c-0.963-0.168-1.355-0.562-1.355-0.562
				c2.343,0.551,5.52,0.102,7.211-0.874c0,0-0.195,0.444-1.009,0.825C52.91,43.219,51.598,43.491,50.334,43.491z"/>
		</g>
		<g id="XMLID_29_">
			<path id="XMLID_590_" fill="#022100" d="M50.334,43.491c-0.448,0-0.89-0.034-1.309-0.107c-0.963-0.168-1.355-0.562-1.355-0.562
				c2.086,1.107,6.017,0.435,7.211-0.874c0,0-0.195,0.444-1.009,0.825C52.91,43.219,51.598,43.491,50.334,43.491z"/>
		</g>
		<g id="XMLID_46_">
			<path id="XMLID_585_" fill="#ECA77F" d="M39.309,30.524c0.02,0.078-0.116,2.905,2.418,3.119s4.29-0.871,4.775-1.248
				c-0.936-0.877-0.936-0.877-0.936-0.877L39.309,30.524z"/>
			<path id="XMLID_586_" d="M42.379,33.73c-0.213,0-0.432-0.009-0.657-0.028c-1.521-0.128-2.42-1.263-2.469-3.112
				c0-0.028-0.001-0.047-0.002-0.055l-0.021-0.085l0.089,0.018l6.275,0.997l0.999,0.937l-0.055,0.042
				C46.355,32.583,44.801,33.73,42.379,33.73z M39.37,30.593c0.029,1.048,0.375,2.824,2.361,2.992
				c2.581,0.217,4.313-0.926,4.681-1.194l-0.872-0.817L39.37,30.593z"/>
		</g>
		<g id="XMLID_45_">
			<path id="XMLID_581_" fill="#FFFFFF" d="M38.51,30.754c0.253,1.486,1.141,3.265,3.782,3.494c2.75,0.239,4.288-0.994,5.146-2.203
				c-1.385-0.078-1.385-0.078-1.385-0.078s-1.778,1.525-3.631,1.328c-1.835-0.195-2.371-1.3-2.371-1.923
				C39.133,31.003,38.51,30.754,38.51,30.754z"/>
			<path id="XMLID_677_" fill="#DDDDDD" d="M46.054,31.967c0,0-0.638,0.546-1.547,0.943c-0.22,0.327-0.427,0.602-0.724,0.82
				c-0.43,0.322-0.893,0.508-1.415,0.523c2.702,0.209,4.221-1.011,5.07-2.208C46.054,31.967,46.054,31.967,46.054,31.967z"/>
			<path id="XMLID_582_" fill="#757575" d="M42.976,34.337c-0.225,0-0.454-0.01-0.689-0.031c-2.71-0.235-3.581-2.056-3.834-3.542
				l-0.018-0.103l1.676,0.671v0.04c0,0.56,0.484,1.67,2.319,1.865c1.805,0.192,3.568-1.299,3.586-1.314l0.019-0.016l1.513,0.085
				l-0.061,0.086C46.421,33.579,44.906,34.337,42.976,34.337z M38.586,30.847c0.269,1.426,1.138,3.119,3.711,3.343
				c2.178,0.189,3.87-0.515,5.031-2.092l-1.254-0.071c-0.195,0.16-1.901,1.514-3.657,1.327c-1.875-0.2-2.4-1.335-2.423-1.942
				L38.586,30.847z"/>
		</g>
	</g>
	<g id="XMLID_630_">
		<g id="XMLID_55_">
			<path id="XMLID_331_" fill="#E90101" d="M63.375,38.449l1.735,11.648c0,0.274,1.342,0.497,2.997,0.497s2.997-0.223,2.997-0.497
				l1.789-11.924L63.375,38.449z"/>
			<path id="XMLID_388_" fill="#FF5C5C" d="M65.101,39.96c0.292,3.416,0.526,6.473,0.804,9.952c0,0,0.29,0.074,0.812-0.004
				c0.062-4.197,0.256-6.751,0.256-9.807C66.236,40.145,65.648,40.111,65.101,39.96z"/>
			<path id="XMLID_390_" fill="#C9000A" d="M71.162,38.224c-0.146,3.565-0.478,6.834-1.266,10.724
				c-0.484,1.453-2.442,1.323-3.777,1.521c0.528,0.078,1.225,0.126,1.988,0.126c1.655,0,2.997-0.223,2.997-0.497l1.789-11.924
				L71.162,38.224z"/>
			<g id="XMLID_332_">
				<path id="XMLID_133_" fill="#72000B" d="M68.107,50.653c-1.229,0-3.056-0.148-3.056-0.556l-1.744-11.705l9.654-0.28
					l-1.799,11.994C71.163,50.505,69.336,50.653,68.107,50.653z M63.442,38.506l1.726,11.583c0.001,0.191,1.119,0.447,2.939,0.447
					c1.821,0,2.938-0.256,2.938-0.438l1.779-11.864L63.442,38.506z"/>
			</g>
		</g>
		<g id="XMLID_53_">
			<path id="XMLID_327_" fill="#FFFFFF" d="M62.97,37.23l0.107,1.521c0,0.506,2.267,0.916,5.062,0.916
				c2.796,0,5.062-0.41,5.062-0.916l0.107-1.521H62.97z"/>
			<path id="XMLID_392_" fill="#DDDDDD" d="M72.029,37.23c0.601,0.751,0.245,1.657-0.495,1.804
				c-2.766,0.545-7.274,0.368-8.456-0.278c0.015,0.503,2.274,0.911,5.061,0.911c2.796,0,5.062-0.41,5.062-0.916l0.107-1.521H72.029z
				"/>
			<path id="XMLID_328_" fill="#757575" d="M68.139,39.726c-2.482,0-5.12-0.342-5.12-0.975l-0.1-1.579h10.439l-0.1,1.583
				C73.259,39.384,70.621,39.726,68.139,39.726z M63.032,37.289l0.104,1.458c0,0.41,2.055,0.862,5.003,0.862
				s5.003-0.452,5.003-0.858l0.104-1.462H63.032z"/>
		</g>
		<g id="XMLID_49_">
			<ellipse id="XMLID_323_" fill="#DDDDDD" cx="68.139" cy="37.23" rx="5.169" ry="0.936"/>
			<path id="XMLID_324_" fill="#757575" d="M68.139,38.225c-2.534,0-5.228-0.349-5.228-0.995c0-0.646,2.693-0.994,5.228-0.994
				s5.228,0.349,5.228,0.994C73.366,37.876,70.673,38.225,68.139,38.225z M68.139,36.354c-3.012,0-5.11,0.462-5.11,0.877
				c0,0.415,2.099,0.877,5.11,0.877s5.11-0.462,5.11-0.877C73.249,36.816,71.15,36.354,68.139,36.354z"/>
		</g>
		<g id="XMLID_50_">
			<ellipse id="XMLID_319_" fill="#FFFFFF" cx="68.108" cy="37.348" rx="4.937" ry="0.819"/>
			<path id="XMLID_320_" fill="#757575" d="M68.107,38.225c-2.422,0-4.995-0.308-4.995-0.877s2.573-0.877,4.995-0.877
				s4.996,0.308,4.996,0.877S70.529,38.225,68.107,38.225z M68.107,36.587c-2.875,0-4.879,0.401-4.879,0.76s2.004,0.76,4.879,0.76
				s4.879-0.401,4.879-0.76S70.982,36.587,68.107,36.587z"/>
		</g>
		<g id="XMLID_51_">
			<ellipse id="XMLID_315_" fill="#F9C89F" cx="64.233" cy="44.602" rx="1.14" ry="1.168"/>
			<path id="XMLID_532_" fill="#ECA77F" d="M64.536,43.478c0.615,0.73,0.177,2.056-0.41,2.286c0.035,0.004,0.071,0.006,0.107,0.006
				c0.63,0,1.14-0.522,1.14-1.168C65.373,44.064,65.019,43.613,64.536,43.478z"/>
			<path id="XMLID_316_" fill="#87402C" d="M64.232,45.828c-0.661,0-1.198-0.55-1.198-1.227c0-0.676,0.537-1.226,1.198-1.226
				c0.662,0,1.199,0.55,1.199,1.226C65.432,45.278,64.895,45.828,64.232,45.828z M64.232,43.493c-0.596,0-1.081,0.497-1.081,1.108
				c0,0.612,0.485,1.109,1.081,1.109c0.597,0,1.082-0.497,1.082-1.109C65.314,43.99,64.829,43.493,64.232,43.493z"/>
		</g>
		<g id="XMLID_52_">
			<path id="XMLID_311_" fill="#F9C89F" d="M73.717,41.159c0,0.512-0.624,0.926-1.394,0.926s-1.394-0.415-1.394-0.926
				c0-0.511,0.624-0.838,1.394-0.838S73.717,40.647,73.717,41.159z"/>
			<path id="XMLID_538_" fill="#ECA77F" d="M73.717,41.159c0-0.427-0.436-0.725-1.027-0.811c0.618,0.509,0.75,1.503-0.766,1.679
				C73.001,42.28,73.717,41.583,73.717,41.159z"/>
			<path id="XMLID_312_" fill="#87402C" d="M72.323,42.144c-0.801,0-1.452-0.442-1.452-0.985c0-0.52,0.61-0.896,1.452-0.896
				s1.452,0.377,1.452,0.896C73.775,41.702,73.124,42.144,72.323,42.144z M72.323,40.379c-0.773,0-1.335,0.328-1.335,0.78
				c0,0.479,0.599,0.868,1.335,0.868s1.336-0.389,1.336-0.868C73.659,40.707,73.097,40.379,72.323,40.379z"/>
		</g>
		<g id="XMLID_54_">
			<path id="XMLID_307_" fill="#F9C89F" d="M73.542,43.128c0.042,0.499-0.916,0.965-1.743,0.965c-0.801,0-1.337-0.23-1.337-0.73
				c0-0.501,0.758-1.141,1.584-1.141S73.48,42.397,73.542,43.128z"/>
			<path id="XMLID_539_" fill="#ECA77F" d="M73.542,43.128c-0.052-0.609-0.483-0.832-1.104-0.89
				c0.692,0.543,0.485,1.582-1.143,1.815C72.541,44.259,73.579,43.568,73.542,43.128z"/>
			<path id="XMLID_308_" fill="#87402C" d="M71.8,44.151c-0.901,0-1.396-0.28-1.396-0.789c0-0.529,0.773-1.2,1.643-1.2
				c0.686,0,1.482,0.109,1.555,0.96c0.012,0.144-0.049,0.293-0.177,0.431C73.111,43.895,72.412,44.151,71.8,44.151z M72.046,42.28
				c-0.786,0-1.526,0.609-1.526,1.083c0,0.585,0.802,0.672,1.28,0.672c0.583,0,1.245-0.24,1.538-0.56
				c0.106-0.115,0.155-0.23,0.146-0.342l0,0C73.434,42.535,73.003,42.28,72.046,42.28z"/>
		</g>
		<g id="XMLID_56_">
			<path id="XMLID_303_" fill="#F9C89F" d="M70.642,45.453c0.112,0.454,0.614,0.665,1.375,0.453c0.873-0.244,1.067-0.737,0.95-1.305
				s-1.038-0.479-1.331-0.377C71.344,44.327,70.503,44.89,70.642,45.453z"/>
			<path id="XMLID_540_" fill="#ECA77F" d="M72.967,44.602c-0.062-0.296-0.341-0.412-0.636-0.442
				c0.333,0.377,0.153,0.91-0.096,1.221c-0.282,0.376-0.79,0.524-1.344,0.447c0.239,0.174,0.626,0.218,1.125,0.079
				C72.89,45.662,73.084,45.169,72.967,44.602z"/>
			<path id="XMLID_304_" fill="#87402C" d="M71.466,46.048c-0.212,0-0.396-0.044-0.545-0.131c-0.172-0.1-0.288-0.256-0.336-0.45l0,0
				c-0.157-0.637,0.778-1.209,1.032-1.297c0.225-0.079,0.786-0.146,1.129,0.049c0.151,0.085,0.244,0.21,0.277,0.371
				c0.143,0.688-0.191,1.149-0.991,1.373C71.827,46.02,71.638,46.048,71.466,46.048z M70.698,45.438
				c0.041,0.166,0.136,0.293,0.281,0.378c0.238,0.139,0.601,0.15,1.021,0.033c0.741-0.206,1.038-0.61,0.909-1.236
				c-0.026-0.126-0.101-0.225-0.221-0.293c-0.306-0.174-0.832-0.11-1.033-0.04C71.389,44.373,70.569,44.917,70.698,45.438
				L70.698,45.438z"/>
		</g>
		<g id="XMLID_57_">
			<path id="XMLID_299_" fill="#F9C89F" d="M70.87,47.529c-0.316-0.49,0.184-1.05,0.812-1.274c0.627-0.225,0.941-0.057,1.08,0.251
				c0.139,0.307-0.051,0.928-0.658,1.169C71.497,47.916,70.989,47.713,70.87,47.529z"/>
			<path id="XMLID_541_" fill="#ECA77F" d="M72.762,46.506c-0.1-0.221-0.29-0.368-0.621-0.352c0.493,0.425,0.007,1.351-0.882,1.597
				c0.224,0.055,0.52,0.054,0.845-0.076C72.711,47.434,72.9,46.812,72.762,46.506z"/>
			<path id="XMLID_300_" fill="#87402C" d="M71.549,47.844c-0.355,0-0.631-0.134-0.728-0.283c-0.112-0.174-0.137-0.37-0.07-0.567
				c0.11-0.323,0.467-0.635,0.91-0.793c0.73-0.262,1.031,0.009,1.154,0.281c0.072,0.159,0.063,0.384-0.024,0.6
				c-0.068,0.171-0.247,0.482-0.665,0.648C71.922,47.811,71.726,47.844,71.549,47.844z M72.188,46.21
				c-0.139,0-0.302,0.033-0.487,0.1c-0.411,0.147-0.74,0.431-0.839,0.722c-0.056,0.164-0.036,0.321,0.058,0.466l0,0
				c0.107,0.168,0.589,0.352,1.162,0.124c0.379-0.15,0.539-0.43,0.601-0.583c0.074-0.185,0.084-0.379,0.026-0.509
				C72.612,46.317,72.438,46.21,72.188,46.21z"/>
		</g>
		<g id="XMLID_94_">
			<g id="XMLID_59_">
				<path id="XMLID_292_" fill="#FFE210" d="M67.596,37.511c0.674,0.166,1.226-0.076,1.226-0.076L67.85,30.22
					c0,0,0.059-0.329-0.22-0.577l0.073,0.016l-0.497-0.272c0,0-2.456-1.72-4.25-2.753c-0.272,1.15-0.272,1.15-0.272,1.15
					s2.986,1.572,3.738,2.225c0.036-0.043,0.062-0.066,0.062-0.066l0.059,0.21l0.132-0.049l-0.022,0.129l0.115,0.024L67.596,37.511z
					"/>
				<path id="XMLID_543_" fill="#EFB706" d="M67.859,30.291c0.109,2.339,0.593,5.15,0.765,7.188
					c0.165-0.043,0.197-0.045,0.197-0.045L67.859,30.291z"/>
				<path id="XMLID_542_" fill="#EFB706" d="M62.75,27.479l-0.066,0.305c0,0,2.799,1.533,3.732,2.144
					C65.728,29.258,63.982,28.211,62.75,27.479z"/>
				<path id="XMLID_296_" fill="#B78B00" d="M68.044,37.622c-0.146,0-0.303-0.015-0.462-0.054l-0.04-0.01l-0.004-0.041l-0.824-7.213
					l-0.128-0.027l0.014-0.084l-0.096,0.036l-0.048-0.17l-0.027,0.034l-0.046-0.039c-0.738-0.642-3.697-2.202-3.727-2.218
					l-0.041-0.021l0.302-1.271l0.068,0.039c1.775,1.023,4.229,2.739,4.254,2.756l0.49,0.321l0,0
					c0.209,0.234,0.187,0.504,0.179,0.561l0.965,7.173c0,0-0.049-0.056,0,0l0,0C68.902,37.466,68.528,37.622,68.044,37.622z
					 M67.649,37.463c0.537,0.118,0.947-0.042,1.092-0.098l-0.951-7.146l0.002-0.009c0.002-0.012,0.048-0.301-0.201-0.524
					l-0.065-0.058l0.036-0.018l-0.38-0.17c-0.033-0.022-2.422-1.693-4.187-2.717l-0.245,1.03c0.366,0.193,2.897,1.541,3.666,2.175
					c0.018-0.019,0.03-0.029,0.03-0.03l0.07-0.059l0.065,0.236l0.167-0.062l-0.029,0.174l0.101,0.021L67.649,37.463z"/>
			</g>
			<g id="XMLID_60_">
				<path id="XMLID_295_" fill="#B78B00" d="M66.528,29.98l-0.088-0.077c0.206-0.238,0.713-0.554,0.734-0.567l0.062,0.099
					C67.231,29.439,66.723,29.756,66.528,29.98z"/>
			</g>
			<g id="XMLID_61_">
				<path id="XMLID_294_" fill="#B78B00" d="M66.704,30.154l-0.059-0.102c0.28-0.161,0.933-0.451,0.961-0.463l0.047,0.107
					C67.646,29.699,66.979,29.996,66.704,30.154z"/>
			</g>
			<g id="XMLID_62_">
				<path id="XMLID_293_" fill="#B78B00" d="M66.769,30.315l-0.003-0.117c0.267-0.007,1.082-0.036,1.082-0.036l0.004,0.117
					C67.852,30.278,67.036,30.308,66.769,30.315z"/>
			</g>
		</g>
	</g>
	<g id="XMLID_684_">
		<g id="XMLID_76_">
			<path id="XMLID_288_" fill="#F29430" d="M12.631,44.625c-0.049,0.774-0.096,1.642,0.984,2.49
				c1.092,0.857,4.679,1.306,7.271,1.325s5.771-0.717,6.336-1.423c0.565-0.707,0.877-2.382,0.37-2.926
				C23.108,44.164,12.631,44.625,12.631,44.625z"/>
			<path id="XMLID_343_" fill="#DD7C1B" d="M27.592,44.092c-0.304,0.005-0.636,0.012-0.99,0.02c0.377,1.029,0.342,2.521-0.628,2.848
				c-3.646,1.229-7.301,1.045-11.512,0.109c-0.485-0.162-1.53-0.499-1.793-1.351c0.1,0.459,0.352,0.931,0.945,1.397
				c1.092,0.857,4.679,1.306,7.271,1.325s5.771-0.717,6.336-1.423C27.788,46.311,28.099,44.636,27.592,44.092z"/>
			<g id="XMLID_289_">
				<path id="XMLID_131_" fill="#7C1D00" d="M20.986,48.499c-0.034,0-0.067,0-0.101,0c-2.743-0.021-6.236-0.497-7.307-1.338
					c-1.112-0.874-1.053-1.798-1.006-2.54l0.003-0.053l0.052-0.002c0.105-0.005,10.529-0.461,14.963-0.533h0.026l0.018,0.019
					c0.518,0.557,0.223,2.265-0.368,3.002C26.688,47.779,23.542,48.499,20.986,48.499z M12.686,44.681
					c-0.046,0.739-0.074,1.571,0.965,2.388c1.05,0.826,4.512,1.293,7.236,1.313c2.498,0.018,5.73-0.701,6.29-1.401
					c0.545-0.682,0.841-2.299,0.39-2.83C23.283,44.222,13.494,44.646,12.686,44.681z"/>
			</g>
		</g>
		<g id="XMLID_92_">
			<g id="XMLID_72_">
				<ellipse id="XMLID_284_" fill="#C60000" cx="20.389" cy="46.091" rx="2.369" ry="0.927"/>
				<g id="XMLID_285_">
					<path id="XMLID_231_" fill="#540000" d="M20.389,47.076c-1.361,0-2.427-0.433-2.427-0.985c0-0.552,1.066-0.984,2.427-0.984
						s2.427,0.433,2.427,0.984C22.816,46.644,21.75,47.076,20.389,47.076z M20.389,45.224c-1.252,0-2.31,0.397-2.31,0.867
						c0,0.471,1.058,0.868,2.31,0.868s2.31-0.397,2.31-0.868C22.699,45.621,21.642,45.224,20.389,45.224z"/>
				</g>
			</g>
			<g id="XMLID_70_">
				<ellipse id="XMLID_280_" fill="#FA2517" cx="20.389" cy="45.947" rx="2.369" ry="0.782"/>
				<g id="XMLID_281_">
					<path id="XMLID_129_" fill="#540000" d="M20.389,46.788c-1.361,0-2.427-0.369-2.427-0.841c0-0.471,1.066-0.841,2.427-0.841
						s2.427,0.37,2.427,0.841C22.816,46.419,21.75,46.788,20.389,46.788z M20.389,45.224c-1.382,0-2.31,0.374-2.31,0.724
						s0.928,0.724,2.31,0.724s2.31-0.374,2.31-0.724S21.771,45.224,20.389,45.224z"/>
				</g>
			</g>
		</g>
		<g id="XMLID_97_">
			<g id="XMLID_99_">
				
					<ellipse id="XMLID_276_" transform="matrix(0.9721 0.2345 -0.2345 0.9721 11.1052 -2.3006)" fill="#C60000" cx="15.226" cy="45.545" rx="2.199" ry="0.926"/>
				<g id="XMLID_277_">
					<path id="XMLID_223_" fill="#540000" d="M16.098,46.642c-0.343,0-0.72-0.047-1.103-0.14c-1.23-0.297-2.093-0.95-1.963-1.486
						c0.129-0.537,1.195-0.725,2.425-0.428s2.093,0.95,1.963,1.486l0,0c-0.063,0.266-0.357,0.453-0.827,0.53
						C16.44,46.629,16.274,46.642,16.098,46.642z M14.358,44.567c-0.651,0-1.139,0.171-1.212,0.476
						c-0.11,0.457,0.749,1.073,1.877,1.346c0.563,0.136,1.114,0.171,1.552,0.1c0.414-0.067,0.681-0.229,0.732-0.441l0,0
						c0.11-0.457-0.75-1.073-1.877-1.345C15.053,44.61,14.685,44.567,14.358,44.567z"/>
				</g>
			</g>
			<g id="XMLID_98_">
				
					<ellipse id="XMLID_272_" transform="matrix(0.9721 0.2345 -0.2345 0.9721 11.0734 -2.3124)" fill="#FA2517" cx="15.26" cy="45.405" rx="2.199" ry="0.783"/>
				<g id="XMLID_273_">
					<path id="XMLID_127_" fill="#540000" d="M16.302,46.383c-0.364,0-0.79-0.052-1.239-0.16c-1.23-0.297-2.108-0.889-1.997-1.347
						c0.11-0.459,1.161-0.585,2.392-0.288s2.107,0.889,1.997,1.347C17.384,46.226,16.935,46.383,16.302,46.383z M14.218,44.544
						c-0.596,0-0.986,0.144-1.038,0.359c-0.082,0.339,0.666,0.905,1.911,1.205c1.245,0.301,2.168,0.139,2.25-0.201
						s-0.667-0.905-1.911-1.205C14.975,44.592,14.562,44.544,14.218,44.544z"/>
				</g>
			</g>
		</g>
		<g id="XMLID_77_">
			<path id="XMLID_268_" fill="#F9C89F" d="M17.085,49.138c-0.78,0.063-1.381-0.583-1.345-1.463c0.039-0.945,0.541-1.669,1.287-1.5
				c0.366,0.083,0.522,0.776,0.585,1.472C17.676,48.368,17.63,49.093,17.085,49.138z"/>
			<path id="XMLID_384_" fill="#ECA77F" d="M17.611,47.646c-0.01-0.107-0.022-0.214-0.037-0.319c-0.098,0.4-0.258,1.064-0.709,1.113
				c-0.658,0.103-0.96-0.206-1.125-0.657c0.015,0.823,0.597,1.415,1.345,1.354C17.63,49.093,17.676,48.368,17.611,47.646z"/>
			<path id="XMLID_269_" fill="#87402C" d="M16.98,49.2c-0.326,0-0.629-0.121-0.863-0.346c-0.296-0.284-0.455-0.716-0.436-1.182
				c0.025-0.611,0.244-1.133,0.584-1.393c0.223-0.171,0.49-0.227,0.773-0.162c0.334,0.076,0.546,0.588,0.63,1.522
				c0.062,0.694-0.001,1.127-0.2,1.363c-0.096,0.114-0.224,0.179-0.38,0.191C17.053,49.198,17.017,49.2,16.98,49.2z M16.812,46.209
				c-0.173,0-0.332,0.055-0.475,0.164c-0.313,0.239-0.515,0.728-0.539,1.305c-0.018,0.433,0.128,0.831,0.4,1.093
				c0.235,0.226,0.547,0.335,0.882,0.309l0,0c0.125-0.01,0.223-0.06,0.3-0.15c0.175-0.208,0.232-0.626,0.173-1.277
				c-0.077-0.854-0.269-1.357-0.54-1.419C16.944,46.217,16.877,46.209,16.812,46.209z"/>
		</g>
		<g id="XMLID_75_">
			<path id="XMLID_264_" fill="#F9C89F" d="M19.036,49.47c-0.724,0.062-1.282-0.565-1.248-1.42c0.036-0.918,0.502-1.621,1.194-1.456
				c0.339,0.08,0.484,0.753,0.542,1.428C19.585,48.723,19.542,49.427,19.036,49.47z"/>
			<path id="XMLID_383_" fill="#ECA77F" d="M18.969,48.776c-0.62,0.127-0.949-0.173-1.181-0.696c-0.019,0.838,0.533,1.45,1.248,1.39
				c0.455-0.039,0.535-0.612,0.502-1.237C19.472,48.425,19.183,48.705,18.969,48.776z"/>
			<path id="XMLID_265_" fill="#87402C" d="M18.94,49.532c-0.293,0-0.568-0.11-0.783-0.315c-0.29-0.276-0.445-0.703-0.427-1.169
				c0.023-0.608,0.234-1.119,0.562-1.368c0.204-0.154,0.448-0.204,0.704-0.143c0.312,0.073,0.509,0.571,0.587,1.479
				c0.059,0.683-0.002,1.106-0.194,1.334c-0.089,0.105-0.206,0.165-0.348,0.177l0,0C19.007,49.53,18.973,49.532,18.94,49.532z
				 M18.783,46.628c-0.152,0-0.293,0.049-0.421,0.146c-0.3,0.228-0.493,0.706-0.516,1.279c-0.017,0.433,0.125,0.826,0.391,1.08
				c0.215,0.205,0.497,0.304,0.793,0.278c0.111-0.01,0.199-0.054,0.269-0.137c0.167-0.198,0.222-0.606,0.167-1.248
				c-0.071-0.828-0.248-1.316-0.498-1.376C18.905,46.636,18.843,46.628,18.783,46.628z"/>
		</g>
		<g id="XMLID_78_">
			<path id="XMLID_260_" fill="#F9C89F" d="M20.748,49.474c-0.592,0.056-0.963-0.462-0.936-1.244c0.03-0.84,0.333-1.458,0.898-1.308
				c0.277,0.074,0.465,0.648,0.513,1.267C21.272,48.83,21.161,49.434,20.748,49.474z"/>
			<path id="XMLID_387_" fill="#ECA77F" d="M21.221,48.167c-0.225,0.846-1.264,0.729-1.409,0.069
				c-0.025,0.778,0.346,1.293,0.936,1.237c0.414-0.04,0.524-0.644,0.475-1.285C21.222,48.182,21.221,48.174,21.221,48.167z"/>
			<path id="XMLID_261_" fill="#87402C" d="M20.661,49.536c-0.213,0-0.404-0.074-0.556-0.217c-0.244-0.229-0.369-0.617-0.352-1.092
				c0.021-0.621,0.183-1.074,0.453-1.274c0.149-0.11,0.323-0.139,0.518-0.087c0.343,0.091,0.514,0.767,0.556,1.317
				c0.063,0.818-0.129,1.31-0.528,1.348l0,0C20.722,49.534,20.691,49.536,20.661,49.536z M20.546,46.958
				c-0.099,0-0.189,0.03-0.27,0.089c-0.238,0.177-0.386,0.608-0.406,1.186c-0.016,0.439,0.097,0.795,0.315,1.002
				c0.147,0.139,0.34,0.202,0.556,0.181c0.476-0.045,0.444-0.947,0.422-1.223c-0.049-0.644-0.247-1.154-0.469-1.214
				C20.643,46.965,20.593,46.958,20.546,46.958z"/>
		</g>
		<g id="XMLID_79_">
			<path id="XMLID_256_" fill="#F9C89F" d="M22.003,49.364c0.573,0.153,1.021-0.236,1.116-0.929
				c0.103-0.744-0.098-1.341-0.678-1.308c-0.285,0.017-0.56,0.488-0.704,1.023C21.588,48.707,21.602,49.257,22.003,49.364z"/>
			<path id="XMLID_386_" fill="#ECA77F" d="M21.697,48.32c-0.102,0.494-0.054,0.947,0.306,1.044c0.566,0.152,1.01-0.228,1.112-0.905
				C22.733,49.021,21.89,48.913,21.697,48.32z"/>
			<path id="XMLID_257_" fill="#87402C" d="M22.246,49.456c-0.083,0-0.17-0.012-0.258-0.035l0,0
				c-0.129-0.034-0.229-0.111-0.296-0.229c-0.175-0.304-0.082-0.793-0.011-1.057c0.129-0.479,0.404-1.046,0.757-1.066
				c0.215-0.012,0.39,0.054,0.521,0.196c0.214,0.232,0.292,0.65,0.219,1.179c-0.055,0.397-0.225,0.709-0.478,0.877
				C22.564,49.411,22.411,49.456,22.246,49.456z M22.486,47.186c-0.014,0-0.027,0-0.042,0.001c-0.231,0.013-0.499,0.416-0.651,0.979
				c-0.113,0.42-0.113,0.772,0,0.968c0.052,0.091,0.125,0.147,0.225,0.174l0,0c0.228,0.062,0.441,0.032,0.617-0.084
				c0.225-0.149,0.376-0.432,0.427-0.796c0.067-0.485-0.002-0.88-0.189-1.082C22.775,47.239,22.645,47.186,22.486,47.186z"/>
		</g>
		<g id="XMLID_93_">
			<g id="XMLID_74_">
				
					<ellipse id="XMLID_252_" transform="matrix(0.9647 -0.2634 0.2634 0.9647 -10.9775 8.3702)" fill="#C60000" cx="25.734" cy="45.133" rx="2.034" ry="0.926"/>
				<g id="XMLID_253_">
					<path id="XMLID_215_" fill="#540000" d="M24.937,46.233c-0.15,0-0.294-0.01-0.427-0.032c-0.44-0.071-0.723-0.255-0.794-0.517
						c-0.072-0.263,0.078-0.563,0.421-0.85c0.331-0.274,0.806-0.506,1.338-0.651c1.132-0.309,2.133-0.134,2.278,0.398l0,0
						c0.146,0.533-0.627,1.192-1.759,1.501C25.628,46.183,25.265,46.233,24.937,46.233z M26.526,44.152
						c-0.312,0-0.663,0.046-1.021,0.145c-0.517,0.141-0.976,0.364-1.294,0.629c-0.306,0.254-0.442,0.513-0.383,0.728
						c0.059,0.216,0.307,0.369,0.7,0.433c0.409,0.066,0.918,0.025,1.434-0.115c1.033-0.282,1.801-0.903,1.677-1.357l0,0
						C27.559,44.317,27.113,44.152,26.526,44.152z"/>
				</g>
			</g>
			<g id="XMLID_73_">
				
					<ellipse id="XMLID_248_" transform="matrix(0.9647 -0.2634 0.2634 0.9647 -10.9435 8.3565)" fill="#FA2517" cx="25.696" cy="44.995" rx="2.034" ry="0.782"/>
				<g id="XMLID_249_">
					<path id="XMLID_125_" fill="#540000" d="M24.733,45.979c-0.57,0-0.979-0.151-1.056-0.434c-0.062-0.227,0.098-0.494,0.451-0.753
						c0.337-0.248,0.815-0.465,1.346-0.609c1.132-0.309,2.116-0.194,2.24,0.26l0,0c0.124,0.455-0.666,1.054-1.797,1.362
						C25.488,45.923,25.081,45.979,24.733,45.979z M26.667,44.128c-0.341,0-0.746,0.055-1.161,0.169
						c-0.518,0.141-0.982,0.351-1.308,0.59c-0.306,0.226-0.455,0.454-0.407,0.628c0.104,0.379,1.063,0.46,2.096,0.179
						c1.033-0.282,1.818-0.841,1.715-1.219C27.54,44.249,27.172,44.128,26.667,44.128z"/>
				</g>
			</g>
		</g>
		<g id="XMLID_71_">
			<path id="XMLID_244_" fill="#B8421E" d="M12.562,43.229c-0.136,0.981-0.117,1.508,0.682,2.034s4.27,1.345,8.344,0.965
				c3.755-0.351,5.72-1.021,6.093-1.758c0.373-0.737,0.223-1.664-0.284-1.937S12.562,43.229,12.562,43.229z"/>
			<path id="XMLID_360_" fill="#9F2D09" d="M27.397,42.533c-0.051-0.028-0.248-0.042-0.555-0.047
				c0.608,0.681,0.503,1.758-0.035,2.081c-2.062,0.979-6.214,1.358-9.723,1.241c-1.881-0.221-3.383-0.406-4.501-1.297
				c0.101,0.278,0.302,0.515,0.661,0.751c0.799,0.526,4.27,1.345,8.344,0.965c3.755-0.351,5.72-1.021,6.093-1.758
				C28.054,43.732,27.904,42.806,27.397,42.533z"/>
			<g id="XMLID_245_">
				<path id="XMLID_122_" fill="#4F1100" d="M19.487,46.383c-3.096,0-5.587-0.618-6.275-1.071c-0.853-0.562-0.836-1.165-0.708-2.091
					l0.007-0.047l0.047-0.003c1.468-0.1,14.36-0.962,14.867-0.689c0.546,0.294,0.693,1.254,0.308,2.014
					c-0.417,0.823-2.598,1.459-6.14,1.79C20.871,46.354,20.165,46.383,19.487,46.383z M12.613,43.284
					c-0.129,0.952-0.097,1.429,0.663,1.93c0.826,0.544,4.309,1.329,8.306,0.956c3.45-0.322,5.654-0.951,6.046-1.727
					c0.352-0.694,0.226-1.598-0.259-1.858C27.01,42.391,18.367,42.896,12.613,43.284z"/>
			</g>
		</g>
		<g id="XMLID_69_">
			<path id="XMLID_240_" fill="#FEE212" d="M13.81,43.759c1.55,0.568,5.056,1.533,6.198,2.469c0.47-0.936,4.066-2.699,4.066-2.699
				l-3.918-0.817L13.81,43.759z"/>
			<path id="XMLID_357_" fill="#D8B801" d="M19.931,45.92c-0.403-0.135-0.709-0.247-1.091-0.362c0.485,0.221,0.894,0.446,1.167,0.67
				c0.47-0.936,4.066-2.699,4.066-2.699l-0.692-0.066C22.196,44.128,20.916,44.936,19.931,45.92z"/>
			<g id="XMLID_241_">
				<path id="XMLID_120_" fill="#B26500" d="M20.027,46.319l-0.057-0.046c-0.852-0.698-3.1-1.436-4.742-1.973
					c-0.566-0.187-1.056-0.347-1.438-0.486l-0.208-0.076l6.575-1.087l4.096,0.854L24.1,43.581c-0.036,0.018-3.584,1.766-4.04,2.673
					L20.027,46.319z M14.042,43.78c0.344,0.121,0.757,0.257,1.223,0.409c1.707,0.559,3.823,1.252,4.726,1.95
					c0.523-0.851,3.225-2.246,3.906-2.589l-3.743-0.781L14.042,43.78z"/>
			</g>
		</g>
		<g id="XMLID_68_">
			<path id="XMLID_236_" fill="#B0DC01" d="M12.669,42.207c-0.951,0.146-1.711,0.775-1.121,1.224
				c0.454,0.345,1.282-0.244,1.75,0.399s1.842-0.073,2.281,0.292c0.439,0.366,0.614,0.387,1.287,0.164
				c0.672-0.223,0.793,0.817,1.71,0.274c0.917-0.542,2.308,0.193,3.056-0.453c0.748-0.646,1.17,0.497,2.091-0.146
				c0.921-0.644,1.948,0.216,2.457-0.499c0.509-0.714,2.642-0.189,1.502-1.549C26.238,41.388,12.669,42.207,12.669,42.207z"/>
			<path id="XMLID_378_" fill="#D7FF31" d="M11.669,42.719c-0.054,0.067-0.14,0.248-0.014,0.407c0.232,0.217,0.556,0.09,0.947,0.055
				C11.971,43.183,11.565,43.106,11.669,42.719z"/>
			<path id="XMLID_517_" fill="#D7FF31" d="M17.085,43.814c-0.534,0.2-0.79,0.174-1.185,0
				C16.176,44.092,16.653,44.203,17.085,43.814z"/>
			<path id="XMLID_389_" fill="#D7FF31" d="M13.517,43.47c0.292,0.587,1.053,0.272,1.521,0.155
				C14.601,43.734,13.835,43.814,13.517,43.47z"/>
			<path id="XMLID_350_" fill="#8BA303" d="M27.681,41.914c-0.254-0.093-0.886-0.144-1.753-0.165
				c-0.042,0.831-0.58,1.642-1.298,1.642c-0.424,0.042-0.775,0.133-1.185,0.302c-0.746,0.307-1.189-0.459-2.432,0.283
				c-0.709,0.422-1.713-0.085-2.452,0.174c-0.726,0.255-0.889-0.148-1.245-0.237c-0.297-0.074-0.543,0.226-0.831,0.214
				c-0.412-0.017-0.711-0.419-1.287-0.404c-0.459,0.012-1.087,0.268-1.414,0.122c-0.167-0.075-0.424-0.61-0.94-0.619
				c-0.367-0.007-0.734,0.107-1.097,0.044c-0.258-0.068-0.253-0.5-0.097-0.666c-0.334,0.251-0.442,0.568-0.103,0.827
				c0.454,0.345,1.282-0.244,1.75,0.399s1.842-0.073,2.281,0.292c0.439,0.366,0.614,0.387,1.287,0.164
				c0.672-0.223,0.793,0.817,1.71,0.274c0.917-0.542,2.308,0.193,3.056-0.453c0.748-0.646,1.17,0.497,2.091-0.146
				c0.921-0.644,1.948,0.216,2.457-0.499C26.688,42.749,28.821,43.273,27.681,41.914z"/>
			<g id="XMLID_237_">
				<path id="XMLID_117_" fill="#495100" d="M18.087,44.778c-0.245,0-0.42-0.132-0.582-0.254c-0.192-0.145-0.358-0.27-0.622-0.183
					c-0.69,0.229-0.891,0.202-1.342-0.175c-0.172-0.143-0.531-0.098-0.911-0.05c-0.514,0.064-1.096,0.138-1.38-0.253
					c-0.248-0.341-0.596-0.309-0.965-0.276c-0.275,0.025-0.56,0.051-0.773-0.111c-0.239-0.182-0.25-0.373-0.217-0.503
					c0.094-0.371,0.668-0.718,1.364-0.825l0.005,0c0.555-0.034,13.597-0.814,15.036-0.289l0.015,0.005l0.01,0.012
					c0.287,0.342,0.391,0.59,0.326,0.779c-0.086,0.252-0.455,0.331-0.844,0.416c-0.375,0.081-0.8,0.173-0.981,0.426
					c-0.276,0.389-0.696,0.345-1.139,0.299c-0.419-0.043-0.893-0.093-1.331,0.214c-0.494,0.345-0.859,0.2-1.182,0.072
					c-0.302-0.12-0.563-0.225-0.905,0.07c-0.405,0.35-0.969,0.313-1.566,0.275c-0.526-0.034-1.071-0.068-1.498,0.184
					C18.401,44.732,18.232,44.778,18.087,44.778z M17.052,44.195c0.211,0,0.37,0.12,0.524,0.236c0.25,0.188,0.485,0.366,0.971,0.079
					c0.458-0.271,1.021-0.235,1.565-0.199c0.572,0.036,1.113,0.071,1.482-0.248c0.395-0.341,0.715-0.214,1.024-0.091
					c0.309,0.123,0.628,0.25,1.071-0.06c0.474-0.33,0.971-0.279,1.41-0.233c0.427,0.045,0.795,0.083,1.032-0.25
					c0.207-0.291,0.656-0.388,1.052-0.473c0.356-0.077,0.693-0.15,0.758-0.339c0.048-0.14-0.051-0.36-0.295-0.653
					c-1.484-0.503-14.716,0.286-14.971,0.301c-0.63,0.097-1.186,0.421-1.266,0.738c-0.035,0.138,0.023,0.266,0.174,0.381
					c0.177,0.134,0.427,0.111,0.692,0.088c0.367-0.033,0.783-0.07,1.07,0.324c0.244,0.334,0.766,0.269,1.271,0.205
					c0.406-0.051,0.789-0.1,1,0.076c0.423,0.353,0.572,0.371,1.231,0.153C16.921,44.206,16.989,44.195,17.052,44.195z"/>
			</g>
		</g>
		<g id="XMLID_63_">
			<path id="XMLID_232_" fill="#B8421E" d="M12.679,39.542c-0.501,0.306-0.877,1.376-0.489,2.445
				c0.186,0.511,2.027,1.567,7.745,1.54c5.536-0.025,7.754-0.732,8.008-1.964s-0.721-2.149-0.721-2.149l-4.601-0.682L12.679,39.542z
				"/>
			<path id="XMLID_348_" fill="#9F2D09" d="M27.201,39.348l-0.963,0.04c1.111,0.537,1.463,2.132,0.628,2.6
				c-1.233,0.691-3.869,1.014-6.019,1.053c-2.417,0.044-4.938-0.134-7.352-0.753c-0.639-0.183-1.396-0.487-1.444-1.737
				c-0.076,0.411-0.056,0.891,0.118,1.371c0.186,0.511,2.027,1.567,7.746,1.54c5.536-0.026,7.754-0.732,8.008-1.964
				C28.176,40.264,27.201,39.348,27.201,39.348z"/>
			<g id="XMLID_233_">
				<path id="XMLID_115_" fill="#4F1100" d="M19.722,43.587c-5.541,0-7.386-1.029-7.586-1.58c-0.386-1.062-0.04-2.178,0.513-2.515
					l0.012-0.007l0.014-0.001l9.949-0.811l0.007,0.001l4.619,0.685l0.013,0.013c0.01,0.009,0.996,0.953,0.738,2.203
					c-0.277,1.348-2.839,1.987-8.064,2.011C19.864,43.587,19.792,43.587,19.722,43.587z M12.698,39.599
					c-0.449,0.287-0.835,1.316-0.453,2.368c0.155,0.427,1.839,1.529,7.69,1.502c5.16-0.024,7.687-0.634,7.951-1.918
					c0.228-1.109-0.58-1.97-0.691-2.082l-4.575-0.679L12.698,39.599z"/>
			</g>
		</g>
		<g id="XMLID_67_">
			<path id="XMLID_228_" fill="#FEE212" d="M16.52,41.366c1.852,1.069,3.606,3.331,3.762,3.799c0.468-1.033,2.554-3.528,3.139-3.665
				c-1.033-1.169-1.248-1.228-1.248-1.228h-2.827L16.52,41.366z"/>
			<path id="XMLID_380_" fill="#FFF4C7" d="M17.509,41.791c0.309,0.236,0.783,0.706,1.173,1.108
				c0.322,0.331,0.582,0.636,0.691,0.568C19.494,43.232,18.164,42.107,17.509,41.791z"/>
			<path id="XMLID_354_" fill="#D8B801" d="M20.229,44.596c-0.37-0.52-0.831-0.915-1.275-1.194c0.733,0.793,1.247,1.521,1.328,1.764
				c0.468-1.033,2.554-3.528,3.139-3.665c-0.108-0.123-0.208-0.233-0.298-0.332C22.312,41.615,21.037,43.326,20.229,44.596z"/>
			<g id="XMLID_229_">
				<path id="XMLID_113_" fill="#B26500" d="M20.274,45.325l-0.047-0.142c-0.161-0.481-1.939-2.729-3.736-3.767l-0.106-0.061
					l2.962-1.143l2.842,0.002c0.023,0.006,0.26,0.096,1.276,1.246l0.065,0.073l-0.095,0.022c-0.532,0.124-2.617,2.568-3.099,3.632
					L20.274,45.325z M16.653,41.377c1.695,1.021,3.292,2.987,3.631,3.649c0.532-1.038,2.361-3.237,3.036-3.552
					c-0.857-0.964-1.116-1.123-1.159-1.144h-2.804L16.653,41.377z"/>
			</g>
		</g>
		<g id="XMLID_65_">
			<path id="XMLID_224_" fill="#FA2517" d="M14.375,40.096c0.59,1.497,2.671,2.32,4.64,0.936c-0.429-0.936-0.429-0.936-0.429-0.936
				H14.375z"/>
			<path id="XMLID_385_" fill="#FFA9A9" d="M15.754,40.991c0.636,0.317,1.725,0.356,2.325,0.061
				C17.172,41.25,16.325,41.115,15.754,40.991z"/>
			<path id="XMLID_345_" fill="#C60000" d="M16.09,41.168c-0.522-0.104-1.138-0.49-1.262-1.072h-0.453
				c0.59,1.497,2.671,2.32,4.64,0.936c-0.071-0.154-0.129-0.281-0.178-0.389C18.127,41.247,17.109,41.474,16.09,41.168z"/>
			<g id="XMLID_225_">
				<path id="XMLID_111_" fill="#540000" d="M16.933,41.8c-0.294,0-0.586-0.042-0.87-0.127c-0.802-0.24-1.454-0.822-1.742-1.555
					l-0.032-0.08h4.334l0.465,1.014l-0.04,0.028C18.372,41.556,17.644,41.8,16.933,41.8z M14.463,40.155
					c0.291,0.663,0.896,1.185,1.634,1.406c0.92,0.276,1.928,0.081,2.845-0.549l-0.393-0.857H14.463z"/>
			</g>
		</g>
		<g id="XMLID_66_">
			<path id="XMLID_220_" fill="#FA2517" d="M19.81,40.408c0.843,1.229,2.909,1.677,4.683,1.189c1.774-0.487,2.612-1.521,2.729-1.891
				C24.805,39.765,19.81,40.408,19.81,40.408z"/>
			<path id="XMLID_381_" fill="#FFA9A9" d="M25.448,40.818c-0.953,0.423-2.413,0.64-3.258,0.624
				C23.09,41.662,24.962,41.249,25.448,40.818z"/>
			<path id="XMLID_340_" fill="#C60000" d="M26.345,39.745c-0.348,0.678-0.838,1.385-2.183,1.657
				c-1.427,0.292-3.154,0.241-4.011-1.037c-0.217,0.027-0.341,0.043-0.341,0.043c0.843,1.229,2.909,1.677,4.683,1.189
				c1.774-0.487,2.612-1.521,2.729-1.891C26.957,39.713,26.662,39.727,26.345,39.745z"/>
			<g id="XMLID_221_">
				<path id="XMLID_109_" fill="#540000" d="M23.034,41.852c-1.383,0-2.66-0.518-3.272-1.411l-0.054-0.079l0.095-0.012
					c0.05-0.006,5.026-0.644,7.418-0.702l0.082-0.002l-0.024,0.078c-0.126,0.401-1,1.443-2.77,1.93
					C24.02,41.788,23.52,41.852,23.034,41.852z M19.915,40.454c0.835,1.111,2.772,1.579,4.563,1.087
					c1.616-0.444,2.459-1.348,2.658-1.774C24.907,39.833,20.615,40.366,19.915,40.454z"/>
			</g>
		</g>
		<g id="XMLID_64_">
			<path id="XMLID_216_" fill="#B0DC01" d="M12.698,38.137c-1.228,0.312-1.735,0.945-1.208,1.472s2.027-0.039,2.3,0.487
				s0.936,1.326,2.086,0.741c1.15-0.585,1.365-0.741,1.95-0.117s2.164,0.917,2.593,0.322c0.429-0.595,1.462,0.458,2.066,0.126
				c0.604-0.331,0.936-0.721,1.754-0.565c0.819,0.156,1.638-0.058,2.066-0.351c0.429-0.292,2.105-0.098,2.028-0.917
				c-0.078-0.819-1.209-1.618-1.209-1.618L12.698,38.137z"/>
			<path id="XMLID_375_" fill="#D7FF31" d="M11.646,39.414c0.129,0.064,0.257,0.093,0.386,0.106
				c-0.289-0.09-0.669-0.373-0.413-0.727C11.439,38.942,11.302,39.217,11.646,39.414z"/>
			<path id="XMLID_339_" fill="#D7FF31" d="M22.758,40.233c-0.431,0.362-0.934,0.314-1.399,0.236
				C21.899,40.757,22.521,40.693,22.758,40.233z"/>
			<path id="XMLID_522_" fill="#D7FF31" d="M18.256,40.342c0.315,0.577,1.508,0.708,2.04-0.036
				C19.415,40.749,18.693,40.749,18.256,40.342z"/>
			<path id="XMLID_382_" fill="#D7FF31" d="M14.311,39.984c0.292,0.796,1.546,0.508,2.014,0.015
				C15.67,40.388,14.771,40.444,14.311,39.984z"/>
			<path id="XMLID_342_" fill="#8BA303" d="M28.333,39.336c-0.078-0.819-1.209-1.618-1.209-1.618l-0.275,0.008
				c0.021,0.674,1.199,1.057,0.87,1.654c-0.258,0.468-1.131,0.15-1.93,0.662c-0.911,0.416-1.162,0.119-1.857,0.132
				c-0.48,0.009-0.882,0.094-1.364,0.415c-0.919,0.61-1.487-0.575-2.305,0.01c-0.351,0.351-0.653,0.458-1.126,0.365
				c-1.208-0.238-1.254-1.25-2.403-0.901c-0.578,0.165-1.031,0.61-1.608,0.614c-0.705,0.005-0.94-0.638-1.236-0.875
				c-0.645-0.516-2.017,0.294-2.6-0.565c0.016,0.126,0.08,0.252,0.2,0.373c0.526,0.526,2.027-0.039,2.3,0.487
				s0.936,1.326,2.086,0.741c1.15-0.585,1.365-0.741,1.95-0.117s2.164,0.917,2.593,0.322c0.429-0.595,1.462,0.458,2.066,0.126
				c0.604-0.331,0.936-0.721,1.754-0.565c0.819,0.156,1.638-0.058,2.066-0.351C26.735,39.96,28.411,40.155,28.333,39.336z"/>
			<g id="XMLID_217_">
				<path id="XMLID_108_" fill="#495100" d="M19.545,41.425c-0.649,0-1.4-0.278-1.762-0.665c-0.527-0.562-0.709-0.469-1.721,0.048
					l-0.159,0.081c-1.262,0.642-1.934-0.322-2.165-0.766c-0.119-0.23-0.546-0.222-0.999-0.212c-0.496,0.01-1.01,0.021-1.292-0.261
					c-0.192-0.192-0.262-0.408-0.203-0.624c0.109-0.397,0.634-0.742,1.439-0.946l0.013-0.001l14.446-0.42l0.016,0.011
					c0.047,0.033,1.154,0.824,1.233,1.66c0.056,0.592-0.702,0.701-1.311,0.79c-0.311,0.045-0.605,0.087-0.742,0.181
					c-0.421,0.287-1.261,0.521-2.11,0.36c-0.622-0.119-0.946,0.085-1.356,0.344c-0.113,0.071-0.229,0.144-0.359,0.215
					c-0.303,0.167-0.688,0.019-1.061-0.125c-0.402-0.154-0.782-0.301-0.986-0.018c-0.145,0.201-0.416,0.32-0.783,0.344
					C19.638,41.423,19.592,41.425,19.545,41.425z M17.15,40.263c0.241,0,0.445,0.126,0.718,0.417
					c0.367,0.391,1.161,0.666,1.807,0.624c0.231-0.015,0.539-0.078,0.696-0.296c0.257-0.356,0.697-0.187,1.123-0.022
					c0.348,0.134,0.707,0.272,0.963,0.132c0.127-0.069,0.242-0.142,0.353-0.211c0.415-0.261,0.773-0.487,1.441-0.36
					c0.817,0.155,1.621-0.068,2.022-0.342c0.159-0.108,0.452-0.151,0.791-0.2c0.589-0.085,1.257-0.182,1.211-0.663
					c-0.069-0.731-1.034-1.465-1.168-1.565l-14.4,0.419c-0.749,0.191-1.253,0.513-1.349,0.862c-0.048,0.175,0.01,0.347,0.173,0.51
					c0.246,0.246,0.734,0.236,1.206,0.226c0.49-0.01,0.952-0.019,1.105,0.275c0.214,0.414,0.838,1.31,2.007,0.716l0.159-0.081
					C16.545,40.43,16.872,40.263,17.15,40.263z"/>
			</g>
		</g>
		<g id="XMLID_58_">
			<path id="XMLID_212_" fill="#F29430" d="M20.067,32.601c5.322-0.005,7.798,3.597,7.603,5.849
				c-0.097,0.77-3.784,1.671-7.934,1.516c-4.309-0.161-7.623-0.473-7.545-2.072C12.27,36.295,14.488,32.606,20.067,32.601z"/>
			<path id="XMLID_363_" fill="#FFD6A2" d="M16.137,33.51c-1.209,0.562-2.848,1.606-3.245,3.202c2.866-4.888,9.555-2.77,9.761-3.44
				C21.851,32.529,17.729,32.71,16.137,33.51z"/>
			<path id="XMLID_341_" fill="#DD7C1B" d="M26.736,35.584c0.759,1.319-0.066,2.501-0.469,2.838
				c-1.853,1.751-11.819,0.918-12.994,0.368c-0.507-0.2-1.135-0.468-0.99-1.442c-0.053,0.199-0.084,0.383-0.092,0.545
				c-0.078,1.599,3.236,1.911,7.545,2.072c4.15,0.155,7.837-0.746,7.934-1.516C27.744,37.598,27.436,36.554,26.736,35.584z"/>
			<g id="XMLID_213_">
				<path id="XMLID_153_" fill="#7C1D00" d="M20.704,40.042c-0.32,0-0.643-0.006-0.97-0.018c-3.885-0.146-6.463-0.421-7.308-1.342
					c-0.209-0.228-0.308-0.494-0.293-0.792c0.041-0.832,0.642-2.17,1.895-3.285c1.056-0.94,2.961-2.061,6.04-2.064l0,0
					c0.004,0,0.008,0,0.011,0c2.581,0,4.798,0.867,6.244,2.441c0.977,1.064,1.502,2.362,1.406,3.471
					C27.631,39.227,24.47,40.042,20.704,40.042z M20.079,32.659c-0.004,0-0.007,0-0.011,0c-5.77,0.005-7.749,3.841-7.817,5.237
					c-0.013,0.269,0.073,0.5,0.262,0.707c0.906,0.987,4.066,1.186,7.226,1.304c4.224,0.158,7.787-0.773,7.874-1.465
					c0.093-1.075-0.421-2.339-1.376-3.379C24.813,33.513,22.626,32.659,20.079,32.659z"/>
			</g>
		</g>
		<g id="XMLID_80_">
			<path id="XMLID_208_" fill="#F3C087" d="M18.942,34.93c-0.112-0.824,0.352-1.404,0.724-1.13
				C20.116,34.131,19.354,34.833,18.942,34.93z"/>
			<g id="XMLID_209_">
				<path id="XMLID_154_" fill="#A74D00" d="M18.893,35.002l-0.009-0.064c-0.084-0.622,0.14-1.061,0.385-1.207
					c0.144-0.085,0.297-0.078,0.432,0.021c0.132,0.097,0.185,0.233,0.152,0.392c-0.071,0.351-0.561,0.763-0.897,0.843L18.893,35.002
					z M19.471,33.79c-0.047,0-0.095,0.014-0.142,0.042c-0.21,0.125-0.388,0.512-0.337,1.022c0.292-0.104,0.69-0.456,0.747-0.733
					c0.023-0.115-0.012-0.205-0.107-0.275C19.58,33.809,19.525,33.79,19.471,33.79z"/>
			</g>
		</g>
		<g id="XMLID_86_">
			<path id="XMLID_204_" fill="#F3C087" d="M17.152,34.2c-0.386,0.736-1.101,0.94-1.245,0.502
				C15.731,34.17,16.759,34.04,17.152,34.2z"/>
			<g id="XMLID_205_">
				<path id="XMLID_156_" fill="#A74D00" d="M16.231,34.989c-0.014,0-0.027,0-0.041-0.001c-0.167-0.014-0.287-0.109-0.339-0.267
					c-0.052-0.156-0.016-0.297,0.103-0.408c0.261-0.245,0.9-0.296,1.22-0.167l0.06,0.024l-0.03,0.057
					C16.926,34.757,16.515,34.989,16.231,34.989z M16.75,34.194c-0.271,0-0.572,0.068-0.716,0.204
					c-0.085,0.08-0.109,0.173-0.072,0.286c0.037,0.113,0.12,0.178,0.238,0.188c0.246,0.021,0.613-0.193,0.867-0.638
					C16.978,34.207,16.866,34.194,16.75,34.194z"/>
			</g>
		</g>
		<g id="XMLID_87_">
			<path id="XMLID_200_" fill="#F3C087" d="M15.55,37.108c-0.343-0.757-0.064-1.446,0.37-1.291
				C16.447,36.007,15.918,36.897,15.55,37.108z"/>
			<g id="XMLID_201_">
				<path id="XMLID_157_" fill="#A74D00" d="M15.524,37.191l-0.027-0.059c-0.259-0.572-0.169-1.057,0.024-1.267
					c0.113-0.123,0.262-0.16,0.419-0.103c0.154,0.055,0.244,0.17,0.258,0.332c0.032,0.356-0.32,0.892-0.619,1.064L15.524,37.191z
					 M15.8,35.854c-0.072,0-0.138,0.031-0.193,0.091c-0.166,0.18-0.225,0.602-0.03,1.076c0.25-0.183,0.531-0.634,0.505-0.916
					c-0.01-0.116-0.07-0.192-0.181-0.232C15.866,35.861,15.833,35.854,15.8,35.854z"/>
			</g>
		</g>
		<g id="XMLID_90_">
			<path id="XMLID_196_" fill="#F3C087" d="M18.423,37.678c-0.343-0.757-0.064-1.446,0.37-1.291
				C19.32,36.576,18.79,37.467,18.423,37.678z"/>
			<g id="XMLID_197_">
				<path id="XMLID_158_" fill="#A74D00" d="M18.396,37.761l-0.027-0.059c-0.259-0.571-0.169-1.057,0.024-1.267
					c0.113-0.123,0.262-0.159,0.419-0.103c0.155,0.056,0.244,0.17,0.259,0.332c0.032,0.356-0.32,0.892-0.619,1.064L18.396,37.761z
					 M18.673,36.424c-0.072,0-0.138,0.03-0.193,0.091c-0.166,0.18-0.225,0.602-0.03,1.076c0.25-0.183,0.531-0.634,0.505-0.916
					c-0.01-0.117-0.07-0.192-0.181-0.232C18.739,36.43,18.705,36.424,18.673,36.424z"/>
			</g>
		</g>
		<g id="XMLID_91_">
			<path id="XMLID_192_" fill="#F3C087" d="M20.789,39.305c-0.343-0.757-0.064-1.446,0.37-1.29
				C21.686,38.203,21.157,39.093,20.789,39.305z"/>
			<g id="XMLID_193_">
				<path id="XMLID_159_" fill="#A74D00" d="M20.763,39.388l-0.027-0.059c-0.259-0.572-0.169-1.057,0.024-1.267
					c0.113-0.123,0.262-0.16,0.419-0.103c0.154,0.055,0.244,0.17,0.258,0.332c0.032,0.356-0.32,0.892-0.619,1.064L20.763,39.388z
					 M21.039,38.051c-0.072,0-0.138,0.031-0.193,0.091c-0.166,0.18-0.225,0.602-0.03,1.076c0.25-0.183,0.531-0.634,0.505-0.916
					c-0.01-0.116-0.069-0.192-0.181-0.232C21.105,38.057,21.071,38.051,21.039,38.051z"/>
			</g>
		</g>
		<g id="XMLID_88_">
			<path id="XMLID_188_" fill="#F3C087" d="M16.781,37.125c0.42,0.717,0.215,1.431-0.232,1.322
				C16.005,38.314,16.438,37.373,16.781,37.125z"/>
			<g id="XMLID_189_">
				<path id="XMLID_161_" fill="#A74D00" d="M16.638,38.517c-0.033,0-0.068-0.004-0.104-0.013c-0.159-0.039-0.26-0.144-0.292-0.303
					c-0.069-0.351,0.225-0.92,0.504-1.123l0.052-0.038l0.033,0.056c0.317,0.542,0.279,1.034,0.109,1.262
					C16.863,38.461,16.758,38.517,16.638,38.517z M16.764,37.214c-0.23,0.208-0.461,0.687-0.407,0.964
					c0.023,0.115,0.09,0.184,0.205,0.212c0.115,0.028,0.214-0.007,0.285-0.103C16.993,38.091,17.007,37.665,16.764,37.214z"/>
			</g>
		</g>
		<g id="XMLID_89_">
			<path id="XMLID_184_" fill="#F3C087" d="M13.886,36.953c0.053,0.83-0.452,1.375-0.803,1.076
				C12.657,37.665,13.467,37.02,13.886,36.953z"/>
			<g id="XMLID_185_">
				<path id="XMLID_174_" fill="#A74D00" d="M13.292,38.17c-0.087,0-0.172-0.033-0.248-0.097c-0.125-0.106-0.168-0.246-0.124-0.402
					c0.097-0.344,0.615-0.721,0.956-0.776l0.063-0.01l0.004,0.064c0.04,0.626-0.216,1.049-0.471,1.176
					C13.413,38.155,13.352,38.17,13.292,38.17z M13.831,37.024c-0.299,0.083-0.721,0.405-0.797,0.678
					c-0.032,0.112-0.003,0.205,0.087,0.282s0.194,0.089,0.3,0.036C13.64,37.911,13.844,37.537,13.831,37.024z"/>
			</g>
		</g>
		<g id="XMLID_81_">
			<path id="XMLID_180_" fill="#F3C087" d="M21.351,34.181c0.367,0.746,0.109,1.443-0.33,1.301
				C20.488,35.31,20.99,34.403,21.351,34.181z"/>
			<g id="XMLID_181_">
				<path id="XMLID_167_" fill="#A74D00" d="M21.133,35.559c-0.042,0-0.086-0.007-0.13-0.021c-0.156-0.05-0.249-0.163-0.269-0.324
					c-0.043-0.355,0.292-0.901,0.585-1.083l0.055-0.034l0.028,0.058c0.276,0.563,0.202,1.051,0.016,1.267
					C21.34,35.512,21.242,35.559,21.133,35.559z M21.327,34.269c-0.245,0.19-0.511,0.65-0.477,0.931
					c0.014,0.116,0.076,0.19,0.189,0.227c0.113,0.037,0.213,0.008,0.292-0.082C21.49,35.16,21.536,34.737,21.327,34.269z"/>
			</g>
		</g>
		<g id="XMLID_82_">
			<path id="XMLID_176_" fill="#F3C087" d="M22.652,36.188c-0.398,0.729-1.116,0.921-1.253,0.481
				C21.232,36.135,22.263,36.021,22.652,36.188z"/>
			<g id="XMLID_177_">
				<path id="XMLID_112_" fill="#A74D00" d="M21.727,36.961c-0.017,0-0.033,0-0.049-0.002c-0.167-0.016-0.285-0.113-0.335-0.272
					c-0.049-0.157-0.011-0.297,0.11-0.406c0.265-0.24,0.904-0.282,1.222-0.146l0.059,0.025l-0.031,0.057
					C22.42,36.736,22.01,36.961,21.727,36.961z M22.224,36.175c-0.263,0-0.55,0.063-0.692,0.191
					c-0.086,0.079-0.111,0.172-0.076,0.285s0.116,0.179,0.234,0.191c0.245,0.024,0.616-0.183,0.878-0.624
					C22.471,36.19,22.35,36.175,22.224,36.175z"/>
			</g>
		</g>
		<g id="XMLID_83_">
			<path id="XMLID_172_" fill="#F3C087" d="M23.718,37.022c0.478,0.68,0.333,1.409-0.123,1.337
				C23.042,38.271,23.397,37.298,23.718,37.022z"/>
			<g id="XMLID_173_">
				<path id="XMLID_106_" fill="#A74D00" d="M23.657,38.422c-0.023,0-0.046-0.002-0.071-0.006c-0.162-0.026-0.271-0.122-0.315-0.278
					c-0.098-0.344,0.148-0.936,0.41-1.161l0.049-0.042l0.037,0.053c0.361,0.513,0.363,1.007,0.212,1.249
					C23.903,38.358,23.791,38.422,23.657,38.422z M23.709,37.112c-0.212,0.227-0.403,0.722-0.326,0.994
					c0.032,0.112,0.104,0.176,0.222,0.194s0.212-0.025,0.275-0.125C24.009,37.968,23.988,37.542,23.709,37.112z"/>
			</g>
		</g>
		<g id="XMLID_84_">
			<path id="XMLID_168_" fill="#F3C087" d="M25.625,36.452c0.8,0.223,1.149,0.879,0.751,1.112
				C25.894,37.847,25.551,36.87,25.625,36.452z"/>
			<g id="XMLID_169_">
				<path id="XMLID_103_" fill="#A74D00" d="M26.205,37.674c-0.075,0-0.148-0.025-0.219-0.074c-0.293-0.205-0.479-0.818-0.418-1.158
					l0.011-0.063l0.062,0.017c0.604,0.168,0.919,0.549,0.956,0.832c0.021,0.166-0.046,0.303-0.19,0.388
					C26.339,37.654,26.271,37.674,26.205,37.674z M25.675,36.528c-0.021,0.31,0.145,0.814,0.377,0.976
					c0.096,0.067,0.192,0.07,0.294,0.01c0.103-0.06,0.149-0.154,0.133-0.272C26.449,37,26.163,36.684,25.675,36.528z"/>
			</g>
		</g>
		<g id="XMLID_85_">
			<path id="XMLID_100_" fill="#F3C087" d="M24.066,35.613c-0.674-0.486-0.774-1.223-0.32-1.304
				C24.296,34.211,24.28,35.247,24.066,35.613z"/>
			<g id="XMLID_165_">
				<path id="XMLID_96_" fill="#A74D00" d="M24.084,35.698l-0.052-0.038c-0.509-0.367-0.672-0.833-0.609-1.111
					c0.037-0.163,0.148-0.269,0.312-0.298c0.162-0.029,0.296,0.026,0.389,0.16c0.205,0.293,0.167,0.933-0.008,1.231L24.084,35.698z
					 M23.817,34.361c-0.02,0-0.04,0.002-0.061,0.006c-0.117,0.021-0.192,0.093-0.219,0.209c-0.055,0.238,0.104,0.634,0.508,0.949
					c0.127-0.284,0.146-0.814-0.017-1.046C23.974,34.4,23.904,34.361,23.817,34.361z"/>
			</g>
		</g>
	</g>
	<g id="XMLID_628_">
		<g id="XMLID_12_">
			<g id="XMLID_10_">
				<path id="XMLID_575_" fill="#F9C89F" d="M34.542,16.485c-0.468-1.73-0.355-2.591-1.496-2.59c-1.174,0-2.656,3.159-0.746,5.108
					c1.126,0.989,2.066-0.117,2.066-0.215C34.367,18.691,34.542,16.485,34.542,16.485z"/>
				<path id="XMLID_680_" fill="#ECA77F" d="M34.289,18.516c-1.491,0.995-2.495-0.248-2.882-1.396
					c0.076,0.659,0.343,1.321,0.894,1.883c1.126,0.989,2.066-0.117,2.066-0.215c0-0.021,0.008-0.135,0.02-0.301
					C34.354,18.496,34.32,18.505,34.289,18.516z"/>
				<path id="XMLID_687_" fill="#ECA77F" d="M33.208,15.438c-0.552-0.409-1.082,0.523-1.024,1.323
					c0.117-0.468,0.472-1.133,0.877-0.947c0.234,0.117,0.292,0.947,0.292,1.298c-0.527-0.105-0.819,0.333-0.588,0.815
					c-0.036-0.493,0.3-0.603,0.437-0.544c0.199,0.085,0.373,0.329,0.482,0.585C33.615,17.085,33.807,15.92,33.208,15.438z"/>
				<path id="XMLID_578_" fill="#87402C" d="M33.257,19.47c-0.292,0-0.632-0.105-0.995-0.423c-1.159-1.182-1.085-2.76-0.631-3.842
					c0.343-0.818,0.912-1.368,1.415-1.368c0,0,0.001,0,0.001,0c0.945,0,1.077,0.588,1.316,1.657
					c0.064,0.288,0.137,0.613,0.235,0.977l0.002,0.01l0,0.01c-0.049,0.613-0.175,2.221-0.175,2.298c0,0.092-0.273,0.4-0.631,0.562
					C33.646,19.417,33.464,19.47,33.257,19.47z M33.048,13.953c0,0-0.001,0-0.001,0c-0.457,0-0.982,0.521-1.307,1.297
					c-0.44,1.048-0.513,2.574,0.604,3.712c0.394,0.346,0.805,0.464,1.22,0.349c0.452-0.126,0.731-0.48,0.747-0.531
					c-0.001-0.088,0.16-2.107,0.174-2.289c-0.098-0.363-0.17-0.687-0.234-0.973C34.009,14.444,33.899,13.953,33.048,13.953z"/>
			</g>
			<g id="XMLID_11_">
				<path id="XMLID_577_" fill="#87402C" d="M33.689,18.479l-0.116-0.013c0.077-0.664,0.09-2.43-0.236-2.837
					c-0.141-0.176-0.34-0.251-0.52-0.195c-0.158,0.049-0.534,0.283-0.614,1.392c0,0-0.089-0.322,0-0.729
					c0.155-0.551,0.413-0.723,0.579-0.774c0.227-0.07,0.474,0.02,0.646,0.234C33.797,16.016,33.765,17.833,33.689,18.479z"/>
			</g>
			<g id="XMLID_13_">
				<path id="XMLID_576_" fill="#87402C" d="M32.656,17.346c0.057-0.13,0.151-0.224,0.26-0.271c0.214-0.091,0.555-0.025,0.812,0.463
					l-0.104,0.055c-0.22-0.417-0.495-0.482-0.663-0.41c-0.193,0.083-0.323,0.365-0.197,0.744
					C32.766,17.927,32.53,17.716,32.656,17.346z"/>
			</g>
		</g>
		<g id="XMLID_2_">
			<path id="XMLID_571_" fill="#F9C89F" d="M34.376,12.589c0,2.105-0.78,4.055-1.56,5.926s-1.676,3.665-1.403,5.731
				s2.69,6.219,10.352,8.208c5.497,1.462,15.03-1.696,16.609-5.498c1.15-3.763-0.839-9.67-2.105-13.276
				c-5.322-6.024-8.188-6.2-8.188-6.2L37.964,6.897L34.376,12.589z"/>
			<path id="XMLID_666_" fill="#ECA77F" d="M36.995,26.735c0.296,3.714,5.114,4.411,7.731,3.892c1.868-0.371,3.561-1.37,4.091-3.203
				C46.81,31.431,38.096,30.992,36.995,26.735z"/>
			<path id="XMLID_145_" opacity="0.7" fill="#ECA77F" d="M36.938,21.136c-0.232,2.113,1.91,3.152,5.21,3.38
				c3.291,0.228,5.669-0.617,5.932-2.469c-0.576,1.67-3.237,1.946-5.835,1.799C39.085,23.667,37.191,22.834,36.938,21.136z"/>
			<path id="XMLID_683_" fill="#ECA77F" d="M40.808,21.306c1.638,0.585,3.229,0.305,4.16-0.651c-2.521,1.01-5.376,0.47-4.906-1.837
				C39.284,19.773,39.911,21.007,40.808,21.306z"/>
			<path id="XMLID_678_" fill="#ECA77F" d="M56.913,18.594c0.584,3.392,0.772,7.446-1.755,9.708
				c-2.223,1.989-5.293,3.216-8.326,3.665c-2.594,0.383-7.484,0.548-13.43-4.133c-0.099-0.078-0.202-0.146-0.301-0.219
				c1.517,1.788,4.2,3.681,8.665,4.84c5.497,1.462,15.03-1.696,16.609-5.498c0.719-2.354,0.211-5.546-0.581-8.49
				C57.505,18.518,57.213,18.563,56.913,18.594z"/>
			<path id="XMLID_572_" fill="#87402C" d="M44.894,32.879c-1.149,0-2.215-0.121-3.144-0.368
				c-7.605-1.974-10.112-6.119-10.395-8.256c-0.247-1.866,0.437-3.475,1.161-5.177c0.083-0.194,0.166-0.389,0.247-0.584
				c0.693-1.663,1.555-3.732,1.555-5.904v-0.017l0.009-0.014l3.605-5.722l10.152,0.587c0.118,0.007,2.951,0.246,8.229,6.219
				l0.011,0.02c1.072,3.051,3.303,9.398,2.106,13.312c-0.75,1.806-3.318,3.584-6.873,4.761
				C49.279,32.489,46.953,32.879,44.894,32.879z M34.435,12.606c-0.004,2.189-0.869,4.264-1.564,5.932
				c-0.082,0.196-0.165,0.391-0.247,0.585c-0.717,1.688-1.395,3.281-1.152,5.116c0.278,2.108,2.763,6.2,10.309,8.158
				c2.57,0.684,6.212,0.395,9.741-0.774c3.522-1.167,6.064-2.919,6.799-4.689c1.183-3.867-1.033-10.181-2.103-13.224
				c-5.24-5.928-8.111-6.169-8.14-6.171L37.995,6.957L34.435,12.606z"/>
		</g>
		<g id="XMLID_3_">
			<path id="XMLID_567_" fill="#7F4016" d="M32.193,11.38c0.585-3.275,4.016-6.433,7.563-6.901
				c-0.584-0.351-1.988-1.092-1.988-1.092s3.432-0.78,6.083,0.936c-0.078-0.702-0.976-1.754-0.976-1.754s1.95-0.273,3.042,1.754
				c0.975-1.248,3.274-1.364,3.274-1.364s-1.442,1.287-1.676,1.715c1.949-1.287,5.107-0.546,6.472,0.546
				C52.39,5.025,50.479,6,50.479,6s4.172-1.053,6.277,3.353c-1.599-1.56-3.354-1.91-3.354-1.91s4.952,3.041,4.367,8.694
				c-1.014-1.248-1.91,0.117-2.027,0.585c0-1.911-2.027-5.264-4.017-6.199c0.469,1.715-0.233,2.846-0.233,2.846
				s-1.209-3.743-3.354-4.133c0.858,1.364,0.585,2.456,0.585,2.456s-1.754-2.183-3.197-3.158c0.234,1.793-1.637,4.133-1.637,4.133
				s0.233-3.002-0.976-3.899c-0.077,2.184-1.754,3.548-1.754,3.548s0.662-2.457,0.194-4.289c-0.896,0.234-1.949,2.066-1.793,2.573
				c-0.624-1.091,0.117-2.417,0.117-2.417s-6.044,3.86-5.897,7.515c-0.907-1.433-0.936-3.948,0.292-5.615
				C33.373,10.143,32.193,11.38,32.193,11.38z"/>
			<path fill="#723411" d="M53.403,7.443c0,0,1.755,0.351,3.354,1.91c-0.798-1.669-1.893-2.555-2.944-3.011
				c0.262,0.21,0.807,0.645,0.964,0.959c-1.161-0.464-2.189-0.461-3.143-0.342c1.803,0.819,3.009,2.725,3.336,4.929
				c-1.43-2.025-2.129-2.77-4.512-3.366c0.119,0.357,0.055,0.635,0.174,0.992c-1.072-0.953-2.254-1.96-3.564-2.317
				c0,0.357,0.05,0.993-0.069,1.469c-0.596-0.834-1.271-0.983-2.104-1.579c0.119,0.953-0.076,1.541-0.434,2.375
				c0-0.953-0.619-2.047-1.165-2.871c-0.278,0.874-0.765,1.539-1.003,2.015c-0.477-0.477-0.2-1.376-0.319-1.853
				c-0.685,0.06-1.11,0.651-1.626,1.167c0-0.596,0.258-1.165,0.923-1.559c-2.502,0.596-3.971,1.847-6.135,4.289
				c0.106-0.798,0.754-2.323,1.796-3.216c-0.337-0.258-1.729,0.571-2.709,1.013c1.807-2.552,4.588-3.602,6.691-3.971
				c-1.16-0.725-3.144-1.089-3.144-1.089s1.404,0.741,1.988,1.092c-3.548,0.468-6.979,3.626-7.563,6.901
				c0,0,1.179-1.238,1.881-1.296c-1.229,1.667-1.199,4.182-0.292,5.615c-0.146-3.655,5.897-7.515,5.897-7.515
				s-0.741,1.326-0.117,2.417c-0.156-0.507,0.896-2.339,1.793-2.573c0.468,1.833-0.194,4.289-0.194,4.289s1.677-1.365,1.754-3.548
				c1.209,0.897,0.976,3.899,0.976,3.899s1.871-2.339,1.637-4.133c1.443,0.975,3.197,3.158,3.197,3.158s0.273-1.092-0.585-2.456
				c2.145,0.39,3.354,4.133,3.354,4.133s0.702-1.131,0.233-2.846c1.989,0.936,4.017,4.289,4.017,6.199
				c0.117-0.468,1.014-1.833,2.027-0.585C58.355,10.484,53.403,7.443,53.403,7.443z"/>
			<g id="XMLID_568_">
				<path id="XMLID_4_" fill="#2B0E00" d="M55.685,17.197v-0.475c0-1.792-1.896-5.073-3.869-6.09
					c0.404,1.65-0.244,2.722-0.272,2.768l-0.066,0.107l-0.039-0.12c-0.012-0.037-1.172-3.56-3.177-4.065
					c0.775,1.314,0.532,2.34,0.521,2.384l-0.028,0.114l-0.073-0.092c-0.018-0.021-1.682-2.083-3.081-3.074
					c0.137,1.776-1.588,3.955-1.663,4.049l-0.118,0.148l0.015-0.189c0.002-0.029,0.206-2.83-0.864-3.776
					c-0.132,2.118-1.753,3.462-1.77,3.476l-0.141,0.114l0.047-0.175c0.007-0.024,0.64-2.41,0.209-4.2
					c-0.488,0.165-1.031,0.819-1.362,1.413c-0.26,0.465-0.39,0.885-0.333,1.07l0.155,0.504l-0.262-0.458
					c-0.497-0.869-0.161-1.864,0.021-2.279c-0.996,0.675-5.822,4.118-5.693,7.345l0.009,0.218l-0.116-0.184
					c-0.846-1.336-0.991-3.814,0.211-5.563c-0.681,0.183-1.697,1.243-1.708,1.254l-0.134,0.141l0.034-0.191
					c0.58-3.249,3.968-6.383,7.448-6.925c-0.636-0.369-1.829-0.999-1.843-1.006l-0.14-0.074l0.154-0.035
					c0.034-0.008,3.39-0.745,6.015,0.873c-0.155-0.671-0.931-1.587-0.938-1.597l-0.069-0.081l0.105-0.015
					c0.02-0.003,1.952-0.249,3.059,1.708c1.007-1.19,3.17-1.314,3.263-1.319l0.166-0.008l-0.124,0.11
					c-0.012,0.011-1.056,0.944-1.499,1.473c1.994-1.1,4.957-0.369,6.293,0.699l0.16,0.129l-0.204-0.025
					c-1.132-0.138-2.439,0.326-3.08,0.595c1.135-0.126,4.208-0.103,5.908,3.455l0.142,0.297l-0.235-0.229
					C55.555,8.262,54.3,7.77,53.72,7.589c1.051,0.763,4.608,3.727,4.108,8.554l-0.014,0.141l-0.09-0.109
					c-0.314-0.387-0.64-0.547-0.968-0.474c-0.526,0.117-0.893,0.779-0.957,1.036L55.685,17.197z M51.638,10.416l0.114,0.054
					c1.95,0.918,3.858,4.074,4.036,5.977c0.168-0.336,0.506-0.763,0.943-0.86c0.341-0.076,0.676,0.061,0.994,0.409
					c0.481-5.466-4.304-8.473-4.353-8.502l-0.279-0.172l0.321,0.064c0.017,0.003,1.617,0.336,3.143,1.702
					c-2.103-3.976-6.023-3.041-6.064-3.03l-0.502,0.127l0.462-0.236c0.019-0.009,1.783-0.899,3.336-0.804
					c-1.412-0.998-4.4-1.635-6.24-0.42l-0.196,0.129l0.112-0.206c0.196-0.361,1.197-1.286,1.56-1.615
					c-0.548,0.057-2.267,0.312-3.061,1.328L45.908,4.43l-0.042-0.079c-0.914-1.697-2.453-1.751-2.873-1.732
					c0.218,0.27,0.85,1.098,0.916,1.698l0.014,0.123l-0.104-0.067c-2.277-1.474-5.17-1.083-5.877-0.959
					c0.376,0.2,1.377,0.735,1.845,1.016l0.144,0.086l-0.166,0.022c-3.424,0.451-6.799,3.479-7.477,6.665
					c0.335-0.329,1.202-1.128,1.782-1.176l0.128-0.011l-0.076,0.104c-1.206,1.637-1.143,3.992-0.399,5.362
					c0.095-3.581,5.866-7.309,5.925-7.347l0.196-0.125L39.73,8.212c-0.007,0.012-0.617,1.126-0.229,2.125
					c0.038-0.232,0.158-0.54,0.348-0.88c0.33-0.592,0.919-1.336,1.492-1.486l0.058-0.015l0.014,0.057
					c0.392,1.534-0.007,3.521-0.149,4.132c0.4-0.384,1.531-1.619,1.595-3.379l0.004-0.111l0.089,0.066
					c1.055,0.783,1.039,3.071,1.01,3.758c0.401-0.545,1.704-2.448,1.51-3.937l-0.017-0.129l0.107,0.073
					c1.257,0.849,2.764,2.629,3.128,3.07c0.04-0.319,0.071-1.223-0.598-2.289L48.02,9.155l0.131,0.024
					c1.952,0.355,3.116,3.366,3.354,4.042c0.157-0.328,0.536-1.324,0.166-2.683L51.638,10.416z"/>
			</g>
		</g>
		<g id="XMLID_8_">
			<g id="XMLID_7_">
				<path id="XMLID_559_" fill="#F9C89F" d="M56.308,16.6c-0.287-1.625,0.332-2.821,1.989-2.841
					c1.256,0.176,1.346,2.086,1.229,3.412c-0.176,1.969-2.115,3.368-2.636,1.695L56.308,16.6z"/>
				<path id="XMLID_674_" fill="#ECA77F" d="M57.117,15.606c-0.196,0.393-0.3,0.977-0.167,1.522
					c0.276-0.739,0.946-0.132,1.054,0.405c0.002-0.91-0.532-1.151-0.642-1.228c0-0.351,0.581-0.889,0.99-0.574
					c0.289,0.245,0.533,0.878-0.02,1.807c0.671-0.671,0.666-1.46,0.334-2.103C58.328,14.778,57.469,15.021,57.117,15.606z"/>
				<path id="XMLID_679_" fill="#ECA77F" d="M58.939,14.076c0.522,1.508,0.555,2.687-0.038,3.933
					c-0.458,1.082-1.316,1.375-2.014,0.851l0.002,0.005c0.521,1.673,2.46,0.274,2.636-1.695
					C59.618,16.122,59.581,14.708,58.939,14.076z"/>
				<path id="XMLID_562_" fill="#87402C" d="M57.687,19.661c-0.163,0-0.313-0.044-0.446-0.13c-0.356-0.265-0.351-0.666-0.351-0.666
					c0.188,0.488,0.514,0.727,0.915,0.67c0.695-0.098,1.548-1.095,1.662-2.37c0.084-0.946,0.138-3.165-1.178-3.349
					c-0.639,0.008-1.14,0.205-1.479,0.584c-0.423,0.471-0.596,1.231-0.502,2.199c0,0-0.159-0.283-0.134-0.76
					c0.04-0.64,0.226-1.156,0.549-1.517c0.363-0.405,0.893-0.614,1.573-0.622c1.425,0.198,1.375,2.496,1.287,3.475
					c-0.12,1.35-1.008,2.369-1.762,2.475C57.775,19.657,57.73,19.661,57.687,19.661z"/>
			</g>
			<g id="XMLID_6_">
				<path id="XMLID_561_" fill="#87402C" d="M58.333,17.539c0.492-0.491,0.578-1.32,0.41-1.85c-0.106-0.334-0.303-0.542-0.554-0.585
					c-0.263-0.045-0.552,0.049-0.772,0.253c-0.265,0.244-0.56,0.752-0.466,1.79c0,0-0.175-0.355-0.077-0.987
					c0.094-0.45,0.285-0.724,0.463-0.889c0.247-0.228,0.572-0.333,0.872-0.282c0.296,0.051,0.525,0.288,0.646,0.666
					c0.113,0.357,0.117,0.843-0.029,1.284C58.658,17.376,58.333,17.539,58.333,17.539z"/>
			</g>
			<g id="XMLID_9_">
				<path id="XMLID_560_" fill="#87402C" d="M58.004,17.534c-0.018-0.451-0.268-0.923-0.596-1.124
					c-0.115-0.07-0.291-0.136-0.476-0.05l-0.049-0.106c0.183-0.085,0.386-0.066,0.586,0.057c0.156,0.095,0.296,0.247,0.406,0.427
					C58.09,17.124,58.004,17.534,58.004,17.534z"/>
			</g>
		</g>
		<g>
			<g id="XMLID_662_" opacity="0.5">
				<path id="XMLID_664_" fill="#ECA77F" d="M50.53,17.888c-0.389-0.511-2.441-1.646-3.882-0.823c0-2.502,0.68-4.093,2.027-3.713
					C49.85,13.683,50.939,14.841,50.53,17.888z"/>
			</g>
			<g id="XMLID_14_">
				<g id="XMLID_337_">
					<path fill="#7F4016" d="M50.689,15.149c-0.664-1.718-1.931-2.662-2.7-2.462c-0.455,0.119-0.822,0.705-0.822,1.072
						C48.576,12.707,50.689,15.149,50.689,15.149z"/>
					<path fill="#723411" d="M47.167,13.759c1.409-1.052,3.522,1.39,3.522,1.39c-0.222-0.572-0.273-0.738-0.587-1.125
						c-1.224-1.235-2.66-0.728-2.59-1.024C47.304,13.231,47.167,13.535,47.167,13.759z"/>
					<path fill="#2B0E00" d="M50.868,15.446l-0.225-0.258c-0.014-0.017-1.427-1.633-2.677-1.633c-0.284,0-0.541,0.084-0.765,0.251
						l-0.095,0.071v-0.119c0-0.407,0.399-1.008,0.867-1.129c0.072-0.019,0.15-0.028,0.23-0.028c0.759,0,1.906,0.885,2.54,2.526
						L50.868,15.446z M47.967,13.436c1.011,0,2.081,0.964,2.539,1.43c-0.695-1.543-1.841-2.293-2.501-2.122
						c-0.368,0.096-0.7,0.544-0.767,0.894C47.457,13.504,47.701,13.436,47.967,13.436z"/>
				</g>
			</g>
			<g id="XMLID_18_">
				<path id="XMLID_549_" d="M50.742,18.172c-0.389-0.511-2.892-1.798-4.332-0.975c0,0,0.443-0.387,0.963-0.503
					c0.836-0.131,1.736,0.151,2.388,0.491C50.404,17.526,50.742,18.172,50.742,18.172z"/>
			</g>
			<g id="XMLID_148_">
				<path id="XMLID_149_" fill="#87402C" d="M50.335,17.009c-0.33-0.511-2.046-1.562-3.295-0.823c0,0,0.174-0.255,0.614-0.371
					c0.71-0.131,1.475,0.151,2.027,0.491C50.228,16.647,50.335,17.009,50.335,17.009z"/>
			</g>
		</g>
		<g>
			<g id="XMLID_143_" opacity="0.5">
				<path id="XMLID_144_" fill="#ECA77F" d="M35.229,16.985c0.396-0.436,2.297-1.231,3.432-0.231
					c0.308-2.409-0.08-4.038-1.283-3.867C36.329,13.035,35.252,13.993,35.229,16.985z"/>
			</g>
			<g id="XMLID_17_">
				<g id="XMLID_142_">
					<path fill="#7F4016" d="M35.429,14.326c0.78-1.558,1.983-2.284,2.619-1.979c0.376,0.18,0.619,0.797,0.574,1.15
						C37.542,12.28,35.429,14.326,35.429,14.326z"/>
					<path fill="#723411" d="M36.09,13.302c-0.318,0.327-0.4,0.503-0.661,1.024c0,0,2.113-2.046,3.193-0.829
						c0.023-0.187,0.001-0.671-0.391-1.018C38.311,12.875,36.842,12.756,36.09,13.302z"/>
					<path fill="#2B0E00" d="M35.219,14.611l0.157-0.312c0.716-1.429,1.721-2.08,2.352-2.08c0.127,0,0.243,0.024,0.346,0.074
						c0.387,0.185,0.657,0.821,0.607,1.211l-0.017,0.13l-0.087-0.098c-0.216-0.243-0.493-0.366-0.823-0.366
						c-1.033,0-2.271,1.187-2.283,1.198L35.219,14.611z M37.728,12.338c-0.552,0-1.413,0.541-2.088,1.721
						c0.424-0.356,1.311-1.008,2.114-1.008c0.317,0,0.59,0.103,0.812,0.305c-0.021-0.345-0.246-0.813-0.545-0.956
						C37.936,12.358,37.837,12.338,37.728,12.338z"/>
				</g>
			</g>
			<g id="XMLID_1_">
				<path id="XMLID_15_" d="M34.957,17.197c0.396-0.436,2.756-1.163,3.915-0.31c0,0-0.356-0.409-0.788-0.596
					c-0.701-0.247-1.508-0.105-2.108,0.128C35.381,16.655,34.957,17.197,34.957,17.197z"/>
			</g>
			<g id="XMLID_146_">
				<path id="XMLID_147_" fill="#87402C" d="M35.331,16.326c0.365-0.44,2.098-1.261,3.112-0.278c0,0-0.127-0.273-0.516-0.453
					c-0.632-0.236-1.364-0.084-1.912,0.157C35.474,15.995,35.331,16.326,35.331,16.326z"/>
			</g>
		</g>
		<g id="XMLID_16_">
			<path id="XMLID_548_" fill="#87402C" d="M42.396,21.665c-0.484,0-0.944-0.077-1.336-0.211c-0.756-0.258-1.256-0.71-1.37-1.24
				c-0.133-0.798,0.189-1.391,0.709-1.752c0.338-0.234,0.762-0.344,1.211-0.326c0.597,0.029,0.979,0.364,0.979,0.364
				c-0.751-0.352-1.564-0.329-2.123,0.058c-0.483,0.336-0.806,0.869-0.66,1.639c0.104,0.481,0.576,0.901,1.293,1.146
				c1.08,0.369,2.695,0.299,3.869-0.689c0,0-0.242,0.403-0.86,0.666C43.549,21.562,42.956,21.665,42.396,21.665z"/>
		</g>
		<g id="XMLID_20_">
			<path id="XMLID_547_" fill="#87402C" d="M43.433,23.956c-1.849,0-3.636-0.327-4.348-0.569c-1.204-0.411-1.949-1.163-2.211-2.234
				l0.114-0.028c0.253,1.03,0.971,1.754,2.136,2.151c1.133,0.387,5.021,0.989,7.477,0.117c1.238-0.527,1.481-1.44,1.483-1.45
				l0.113,0.028c-0.01,0.04-0.256,0.978-1.554,1.53C45.702,23.835,44.556,23.956,43.433,23.956z"/>
		</g>
		<g id="XMLID_21_">
			<path id="XMLID_546_" fill="#87402C" d="M37.396,21.382c-0.083-0.125-0.284-0.195-0.514-0.181
				c-0.194,0.012-0.356,0.082-0.402,0.175c0,0,0.032-0.257,0.395-0.292C37.309,21.042,37.396,21.382,37.396,21.382z"/>
		</g>
		<g id="XMLID_22_">
			<path id="XMLID_545_" fill="#87402C" d="M48.489,22.333c-0.054-0.113-0.183-0.215-0.337-0.267
				c-0.169-0.056-0.345-0.046-0.482,0.027c0,0,0.195-0.229,0.519-0.138C48.489,22.04,48.489,22.333,48.489,22.333z"/>
		</g>
		<g id="XMLID_23_">
			<path id="XMLID_391_" fill="#87402C" d="M42.636,25.507c-0.588,0-1.208-0.078-1.722-0.259c-0.584-0.212-0.726-0.555-0.726-0.555
				c0.988,0.988,3.81,0.751,4.286,0.31c0,0-0.202,0.331-0.994,0.448C43.22,25.488,42.932,25.507,42.636,25.507z"/>
		</g>
		<g id="XMLID_19_">
			<path id="XMLID_338_" fill="#87402C" d="M43.189,30.811c-0.268,0-0.542-0.011-0.822-0.033c-3.388-0.265-4.761-1.664-5.264-3.069
				c-0.229-0.643-0.108-0.974-0.108-0.974c0.197,1.614,1.291,3.606,5.382,3.926c4.609,0.36,6.039-2.144,6.439-3.237
				c0,0,0,0.432-0.33,0.937C47.493,29.931,45.604,30.811,43.189,30.811z"/>
		</g>
	</g>
</g>
</svg>
