<?xml version="1.0" encoding="utf-8"?>
<!-- Generator: Adobe Illustrator 16.0.0, SVG Export Plug-In . SVG Version: 6.00 Build 0)  -->
<!DOCTYPE svg PUBLIC "-//W3C//DTD SVG 1.1//EN" "http://www.w3.org/Graphics/SVG/1.1/DTD/svg11.dtd">
<svg version="1.1" id="Layer_1" xmlns="http://www.w3.org/2000/svg" xmlns:xlink="http://www.w3.org/1999/xlink" x="0px" y="0px"
	 width="85px" height="85px" viewBox="0 0 85 85" enable-background="new 0 0 85 85" xml:space="preserve">
<g>
	<path fill="#9DD7F7" d="M41.812,8.34c20.889,0,37.82,16.933,37.82,37.82c0,12.52-6.086,23.615-15.457,30.5H19.447
		c-9.371-6.885-15.455-17.98-15.455-30.5c0-4.212,0.689-8.263,1.961-12.047c5.926-2.281,6.635,2.117,11.943,0.637
		c2.18-0.608,3.344-3.53,5.582-3.865c2.359-0.354,4.496,2.235,6.871,2.004c1.922-0.188,5.457-1.31,4.865-3.148
		c-0.633-1.973-4.291,0.047-6.154-0.858c-1.76-0.855-2.256-3.669-4.15-4.151c-1.684-0.427-3.158,2.166-4.867,1.861
		c-1.471-0.263-1.949-2.279-3.094-3.247l-3.648-2.03C20.232,13.365,30.438,8.34,41.812,8.34z"/>
	<path fill="#3A4F63" d="M4.57,72.517h74.48c1.143,0,2.072,0.933,2.072,2.071c0,1.14-0.932,2.071-2.072,2.071H4.57
		c-1.141,0-2.07-0.933-2.07-2.071C2.5,73.448,3.432,72.517,4.57,72.517z"/>
	<g>
		<path fill="#3A4F63" d="M61.727,49.074c3.752,5.612,5.844,12.367,5.906,20.517c-1.088-3.295-3.262-5.701-6.297-7.401
			c3.291,2.507,5.35,5.931,5.842,10.519l0.533,0.44h2.693C73.4,67.41,77.393,63.029,82.5,60.177
			c-4.688,1.072-8.945,4.337-12.596,10.712c-0.076-7.169,2.264-12.89,5.646-17.982c-3.314,3.186-5.611,7.271-6.967,12.184
			C67.564,57.81,65.283,52.317,61.727,49.074L61.727,49.074z"/>
		<path fill="#3A4F63" d="M59.496,73.01c0.674-0.421,1.23-1.2,2.025-1.262c0.873-0.069,1.629,1.174,2.465,0.908
			c0.998-0.314,1.045-2.234,2.084-2.348c1.318-0.144,2.258,1.663,3.582,1.731c1.178,0.061,2.049-1.836,3.221-1.689
			c1.246,0.155,1.857,1.887,3.082,2.173c0.707,0.165,1.408-1.496,1.938-0.998l1.469,1.38L59.496,73.01L59.496,73.01z"/>
	</g>
	<path fill="#88BADC" d="M32.465,30.854c2.223-0.07,4.266,2.255,6.521,2.035c0.572-0.056,1.287-0.194,1.994-0.411
		c0.127,0.438,0.189,0.893,0.189,1.349v0.59l-0.061-0.026c4.145,1.779,7.066,5.907,7.066,10.685v12.53h0.055l0.074,0.001l0,0
		l0.076,0.003l0.076,0.005l0,0l0.074,0.008l0,0l0.074,0.008l0,0l0.074,0.011l0,0l0.072,0.012l0,0l0.072,0.016l0,0l0.072,0.016l0,0
		l0.07,0.018l0,0l0.072,0.02l0,0l0.068,0.021l0.068,0.022l0.07,0.024l0.066,0.025l0.066,0.027l0,0l0.066,0.029l0.064,0.029l0,0
		l0.064,0.032l0,0l0.062,0.033l0,0l0.062,0.035l0.062,0.036l0.061,0.038l0,0l0.061,0.039l0.061,0.041L50,58.195l0.059,0.044
		l0.055,0.046l0.055,0.045l0.053,0.048l0.055,0.049l0,0l0.051,0.05l0.049,0.052l0,0l0.049,0.054l0.049,0.053l0,0l0.047,0.055
		l0.045,0.057l0,0l0.043,0.057l0,0l0.043,0.058l0,0l0.041,0.061l0.039,0.06l0,0l0.037,0.062l0.035,0.062h0.002l0.033,0.063h0.002
		l0.033,0.062l0,0l0.031,0.064l0,0l0.031,0.064l0,0l0.027,0.066l0,0l0.027,0.065l0,0l0.027,0.068l0.021,0.068h0.002l0.021,0.068
		l0.021,0.07l0,0l0.02,0.07l0,0l0.018,0.07l0,0l0.016,0.072l0,0l0.016,0.073l0.012,0.073l0,0l0.012,0.072l0,0l0.008,0.074l0,0
		l0.008,0.075l0,0l0.004,0.075l0.004,0.076v0.076l0,0l0,0v0.076l-0.004,0.075v0.001c0,0.024-0.002,0.05-0.004,0.075l0,0
		c-0.002,0.025-0.004,0.05-0.008,0.074l0,0l-0.008,0.075l0,0l-0.012,0.072l0,0l-0.012,0.073c-0.004,0.024-0.01,0.049-0.016,0.073
		l0,0l-0.016,0.072l0,0l-0.018,0.07l0,0l-0.02,0.07l0,0l-0.021,0.07l0,0l-0.021,0.068h-0.002l-0.021,0.068l-0.027,0.067l0,0
		l-0.027,0.066l0,0l-0.027,0.066l0,0l-0.031,0.064l0,0l-0.031,0.064l0,0l-0.033,0.062h-0.002l-0.033,0.062h-0.002l-0.035,0.062
		v0.001l-0.037,0.062l0,0l-0.039,0.06l-0.041,0.06v0.001l-0.043,0.058l0,0l-0.043,0.057l0,0l-0.045,0.057l0,0l-0.047,0.055l0,0
		l-0.049,0.054l-0.049,0.053l0,0l-0.049,0.051l-0.051,0.05l0,0l-0.055,0.049l-0.053,0.048l-0.055,0.046l-0.055,0.046l0,0L50,62.953
		l0,0l-0.057,0.042l-0.061,0.041l-0.061,0.039l0,0l-0.061,0.037l-0.062,0.037l-0.062,0.035l0,0
		c-0.043,0.022-0.086,0.045-0.129,0.065l0,0c-0.043,0.021-0.086,0.041-0.131,0.06l0,0l-0.066,0.027l-0.068,0.025l-0.068,0.024
		c-0.045,0.016-0.092,0.029-0.139,0.043l0,0l-0.07,0.021l0,0c-0.049,0.012-0.096,0.022-0.145,0.032l0,0l-0.072,0.015l0,0
		l-0.072,0.013h-0.002l-0.072,0.011l0,0l-0.074,0.008l0,0l-0.074,0.008l0,0l-0.076,0.006l-0.076,0.003l0,0
		c-0.023,0-0.051,0.001-0.074,0.001h-6.811v0.54c0,2.606-2.08,4.752-4.664,4.857h-0.004l-0.004,0.001H36.74h-0.01l-0.006,0.001
		h-0.014h-0.004h-0.002l-0.006,0.001h-0.027l-0.004,0.001h-0.014l-0.088,0.002h-0.01c-0.037,0-0.076-0.002-0.113-0.002l-0.049-0.002
		l-0.07-0.003l-0.051-0.002l-0.062-0.004l-0.053-0.005l-0.072-0.006l-0.039-0.004l-0.078-0.009l-0.041-0.007l-0.1-0.014l-0.01-0.002
		l-0.111-0.019l-0.008-0.001l-0.014-0.004l-0.094-0.018l-0.043-0.01l-0.07-0.017l-0.045-0.01l-0.062-0.016l-0.045-0.012
		l-0.066-0.019l-0.045-0.014l-0.061-0.019l-0.053-0.016l-0.02-0.007c-0.057-0.019-0.111-0.036-0.166-0.057l-0.014-0.005
		l-0.057-0.021l-0.053-0.021l-0.053-0.021l-0.045-0.02l-0.057-0.022l-0.055-0.024l-0.043-0.02l-0.049-0.022l-0.061-0.027
		l-0.002-0.002l-0.086-0.043l-0.006-0.003l-0.09-0.048l-0.074-0.042l-0.018-0.01l-0.064-0.037l-0.029-0.018l-0.059-0.035
		l-0.039-0.024l-0.055-0.035l-0.027-0.02l-0.066-0.045l-0.002-0.001c-0.109-0.075-0.215-0.154-0.316-0.237l-0.01-0.007l-0.055-0.046
		l-0.035-0.03l-0.049-0.041l-0.025-0.022l-0.061-0.056l-0.008-0.006c-0.047-0.045-0.096-0.09-0.141-0.136l-0.07-0.072
		c-0.043-0.045-0.086-0.091-0.127-0.137L32.9,67.279l-0.053-0.06l-0.014-0.018l-0.057-0.066l-0.008-0.01
		c-0.041-0.052-0.08-0.103-0.119-0.154l-0.061-0.081l-0.002-0.002l-0.057-0.082l0,0l-0.045-0.068l-0.016-0.021l-0.037-0.059
		l-0.021-0.037l-0.037-0.062l-0.014-0.021l-0.041-0.071l-0.016-0.023l-0.035-0.062l-0.004-0.007l-0.045-0.086l-0.002-0.005
		l-0.045-0.092l-0.039-0.082l-0.006-0.012l-0.031-0.069l-0.016-0.036l-0.023-0.056l-0.021-0.052l-0.021-0.05l-0.02-0.053
		l-0.021-0.055l-0.018-0.05l-0.02-0.054v-0.004l-0.031-0.1l-0.002-0.003l-0.029-0.096v-0.005l-0.014-0.049L31.84,65.3l-0.008-0.033
		l-0.02-0.077l-0.008-0.036l-0.008-0.032l0,0c-0.076-0.344-0.113-0.692-0.113-1.044v-0.54h-6.811c-1.635,0-2.973-1.338-2.973-2.974
		c0-1.635,1.338-2.973,2.973-2.973h0.055V45.06c0-0.098,0.002-0.196,0.004-0.294v-0.021c0.002-0.087,0.006-0.173,0.012-0.261
		l0.002-0.058c0.006-0.076,0.01-0.153,0.016-0.229l0.004-0.06c0.006-0.073,0.014-0.146,0.021-0.22l0.006-0.068
		c0.008-0.075,0.018-0.15,0.025-0.226l0.006-0.053c0.025-0.188,0.055-0.375,0.088-0.561l0.002-0.007
		c0.016-0.089,0.031-0.178,0.051-0.267l0.01-0.045c0.016-0.072,0.031-0.147,0.049-0.222l0.016-0.067
		c0.016-0.065,0.031-0.132,0.049-0.197l0.02-0.073c0.02-0.071,0.037-0.143,0.059-0.213l0.014-0.046
		c0.051-0.18,0.105-0.355,0.166-0.531v-0.002c0.029-0.086,0.061-0.171,0.092-0.256l0.016-0.04c0.025-0.072,0.055-0.145,0.082-0.215
		l0.02-0.055c0.025-0.062,0.053-0.127,0.078-0.189l0.033-0.077c0.021-0.054,0.047-0.108,0.07-0.161l0.039-0.089
		c0.029-0.062,0.059-0.124,0.088-0.185l0.023-0.052c0.035-0.071,0.07-0.145,0.107-0.216l0.014-0.025l0,0l0.018-0.035
		c0.035-0.066,0.07-0.134,0.105-0.199l0.041-0.074l0.086-0.153l0.057-0.097l0.076-0.129l0.061-0.097
		c0.027-0.046,0.057-0.093,0.086-0.139l0.053-0.083l0.088-0.134l0.062-0.094l0.092-0.131l0.057-0.082l0.002-0.002
		c0.047-0.065,0.094-0.13,0.143-0.195l0,0l0.086-0.111l0.076-0.101l0.086-0.105l0.072-0.094l0.096-0.112l0.07-0.085l0.098-0.11
		l0.076-0.088l0.092-0.102l0.092-0.1c0.031-0.031,0.061-0.062,0.09-0.094l0.002-0.003c0.055-0.058,0.111-0.114,0.168-0.173
		c0.049-0.048,0.096-0.095,0.146-0.142l0.029-0.03c0.045-0.044,0.092-0.087,0.141-0.131l0.047-0.044
		c0.045-0.041,0.09-0.081,0.135-0.122l0.053-0.048c0.047-0.04,0.094-0.081,0.141-0.121l0.055-0.045l0.135-0.112l0.062-0.052
		c0.227-0.183,0.459-0.356,0.697-0.521l0.035-0.023c0.057-0.037,0.109-0.073,0.164-0.109l0.049-0.033
		c0.057-0.034,0.109-0.07,0.166-0.104l0.041-0.026c0.059-0.036,0.115-0.07,0.176-0.105l0.031-0.021
		c0.262-0.154,0.527-0.301,0.801-0.436v-0.822C31.443,32.709,31.826,31.677,32.465,30.854L32.465,30.854z M31.58,34.582l0.096-0.045
		l0.027-0.015L31.58,34.582z M31.801,34.479l0.096-0.042l0.041-0.018l0.051-0.022C31.926,34.424,31.863,34.451,31.801,34.479
		L31.801,34.479z M32.127,34.338c0.611-0.255,1.244-0.456,1.893-0.603l0,0l-0.006,0.001c-0.07,0.017-0.143,0.032-0.213,0.052
		l-0.041,0.01c-0.064,0.016-0.131,0.033-0.195,0.051l-0.061,0.016c-0.066,0.02-0.133,0.037-0.199,0.058l-0.021,0.007
		c-0.379,0.111-0.75,0.243-1.115,0.394L32.127,34.338L32.127,34.338z M36.857,33.458c-0.102-0.003-0.199-0.004-0.299-0.004l0,0
		L36.857,33.458L36.857,33.458z"/>
	<path fill="#EBB350" d="M33.662,33.454c6.391,0,11.619,5.229,11.619,11.618v13.823H22.043V45.072
		C22.043,38.683,27.273,33.454,33.662,33.454z"/>
	<path fill="#F0C86E" d="M40.201,56.375H27.355v1.229h-5.312V45.072c0-5.519,3.9-10.171,9.078-11.337
		c5.18,1.166,9.08,5.818,9.08,11.337V56.375z"/>
	<path fill="#F0C86E" d="M33.412,28.962c2.676,0,4.863,2.188,4.863,4.862v0.591c-1.455-0.636-3.025-0.963-4.613-0.961l0,0
		c-1.773-0.002-3.523,0.406-5.113,1.192v-0.822C28.549,31.15,30.736,28.962,33.412,28.962z"/>
	<path fill="#EBB350" d="M38.525,63.549v0.54c0,2.676-2.188,4.863-4.863,4.863s-4.863-2.188-4.863-4.863v-0.54H38.525z"/>
	<path fill="#F0C86E" d="M33.953,68.943c-0.096,0.006-0.193,0.011-0.291,0.011c-2.318,0-4.27-1.643-4.75-3.82h6.312v0.54
		C35.227,66.93,34.742,68.078,33.953,68.943L33.953,68.943z"/>
	<path fill="#F5DB95" d="M27.297,58.896h-4.031V45.524c0-5.69,4.285-10.43,9.789-11.146c-3.43,1.931-5.758,5.606-5.758,9.802V58.896
		z"/>
	<path fill="#F4DB97" d="M21.988,57.604h23.348c1.635,0,2.973,1.337,2.973,2.972c0,1.636-1.338,2.974-2.973,2.974H21.988
		c-1.635,0-2.971-1.338-2.971-2.974C19.018,58.941,20.355,57.604,21.988,57.604z"/>
	<path fill="#EBB350" d="M27.27,57.604h18.064c1.637,0,2.975,1.337,2.975,2.972c0,1.636-1.338,2.974-2.975,2.974H27.27
		c-1.635,0-2.973-1.338-2.973-2.974C24.297,58.941,25.635,57.604,27.27,57.604z"/>
	<path fill="#F0C86E" d="M27.27,57.604h13.506c1.635,0,2.973,1.337,2.973,2.972c0,1.636-1.338,2.974-2.973,2.974H27.27
		c-1.635,0-2.973-1.338-2.973-2.974C24.297,58.941,25.635,57.604,27.27,57.604z"/>
	<path fill="#FFFFFF" d="M25.135,43.49c0.453,0,0.824,0.37,0.824,0.823v1.753c0,0.453-0.371,0.823-0.824,0.823
		s-0.822-0.37-0.822-0.823v-1.753C24.312,43.86,24.682,43.49,25.135,43.49z M25.135,48.324c0.453,0,0.824,0.371,0.824,0.823v6.482
		c0,0.453-0.371,0.823-0.824,0.823s-0.822-0.37-0.822-0.823v-6.482C24.312,48.695,24.682,48.324,25.135,48.324z"/>
	<path fill="#3A4F63" d="M4.197,72.589c0.721-0.449,1.314-1.28,2.16-1.347c0.934-0.073,1.74,1.253,2.633,0.971
		c1.062-0.337,1.113-2.386,2.225-2.506c1.406-0.153,2.408,1.774,3.82,1.848c1.258,0.064,2.188-1.959,3.436-1.803
		c1.332,0.166,1.984,2.013,3.289,2.317c0.756,0.178,1.504-1.596,2.068-1.064l1.566,1.473L4.197,72.589L4.197,72.589z M40.594,72.589
		c0.723-0.449,1.316-1.28,2.162-1.347c0.934-0.073,1.74,1.253,2.633,0.971c1.064-0.337,1.113-2.386,2.223-2.506
		c1.408-0.153,2.41,1.774,3.824,1.848c1.256,0.064,2.186-1.959,3.434-1.803c1.332,0.166,1.984,2.013,3.289,2.317
		c0.756,0.178,1.504-1.596,2.068-1.064l1.566,1.473L40.594,72.589L40.594,72.589z"/>
	<g>
		<path fill="#FCEE21" d="M59.354,24.381c0,3.347-2.715,6.061-6.062,6.061c-3.346,0-6.061-2.714-6.061-6.061
			c0-3.349,2.715-6.062,6.061-6.062C56.639,18.319,59.354,21.033,59.354,24.381z"/>
		<path fill="none" stroke="#FCEE21" stroke-width="3.5263" stroke-linecap="round" stroke-miterlimit="10" d="M44.791,24.381
			h17.002 M53.291,32.882V15.88 M47.281,30.392L59.303,18.37 M47.281,18.369l12.021,12.021"/>
	</g>
</g>
</svg>
