<?xml version="1.0" encoding="utf-8"?>
<!-- Generator: Adobe Illustrator 16.0.2, SVG Export Plug-In . SVG Version: 6.00 Build 0)  -->
<!DOCTYPE svg PUBLIC "-//W3C//DTD SVG 1.1//EN" "http://www.w3.org/Graphics/SVG/1.1/DTD/svg11.dtd">
<svg version="1.1" id="Layer_1" xmlns="http://www.w3.org/2000/svg" xmlns:xlink="http://www.w3.org/1999/xlink" x="0px" y="0px"
	 width="85px" height="85px" viewBox="0 0 85 85" enable-background="new 0 0 85 85" xml:space="preserve">
<g>
	<g>
		<path d="M21.877,16.264c0.191-0.854,0.732-1.14,1.59-1.138c12.938,0.016,25.875,0.008,38.813,0.014
			c2.4,0.001,3.936,1.547,3.938,3.967c0.01,6.43,0.004,12.859,0.002,19.288c0,0.13,0.008,0.261-0.006,0.392
			c-0.043,0.402-0.094,0.805-0.141,1.207c0.465,0.021,0.928,0.057,1.393,0.057c3.904,0.006,7.811,0.002,11.713,0.004
			c1.91,0.002,2.697,0.547,3.322,2.293c0,0.363,0,0.729,0,1.092c-0.406,2.201-1.219,4.283-1.898,6.4
			c-0.291,0.908-0.318,1.762,0,2.664c0.527,1.494,0.932,3.029,1.467,4.521c0.236,0.66,0.264,1.365,0.432,2.039
			c0,0.416,0,0.834,0,1.25c-0.762,1.627-2.084,2.055-3.799,2.018c-3.764-0.082-7.529-0.031-11.293-0.021
			c-0.803,0.002-1.361-0.271-1.504-1.127c-0.123-0.709,0.141-1.154,0.805-1.342c0.383-0.107,0.775-0.082,1.166-0.082
			c3.488-0.002,6.979-0.002,10.465-0.002c0.105,0,0.209,0,0.314,0c1.23-0.014,1.289-0.117,0.914-1.32
			c-0.596-1.914-1.232-3.814-1.813-5.734c-0.318-1.059-0.303-2.092,0.025-3.145c0.594-1.914,1.234-3.814,1.813-5.734
			c0.324-1.072,0.229-1.234-0.91-1.232c-5.65,0.01-11.299-0.029-16.947-0.025c-11.145,0.006-22.285-0.016-33.428,0.012
			c-0.385,0.008-0.566,0.203-0.561,0.586c0.002,0.131-0.006,0.26-0.006,0.391c0,4.842,0.004,9.684-0.006,14.523
			c0,0.74,0.145,1.35,0.951,1.582c0.322,0.141,0.664,0.121,1,0.121c9.943,0.002,19.889,0.002,29.832,0
			c0.729,0,1.457-0.084,2.184,0.002c0.824,0.096,1.197,0.559,1.123,1.338c-0.164,0.857-0.691,1.195-1.551,1.193
			c-10.775-0.012-21.551-0.002-32.324-0.012c-2.264-0.002-3.82-1.563-3.824-3.836c-0.014-6.531-0.004-13.064-0.008-19.598
			c0-0.496,0.074-0.979,0.211-1.519c-0.295,0-0.551,0-0.809,0c-5.023,0-10.045,0.015-15.068-0.017
			c-0.68-0.004-0.854,0.146-0.852,0.844c0.021,14.209,0.014,28.418,0.027,42.629c0.002,0.736-0.127,1.33-0.816,1.693
			c-0.262,0-0.521,0-0.781,0c-0.701-0.16-0.939-0.672-1.004-1.316c-0.047-0.467-0.029-0.936-0.029-1.404
			c-0.002-21.756,0-43.512-0.002-65.268c0-2.174,0.143-1.887-1.863-1.914C3.432,12.587,2.75,12.56,2.5,11.72
			c0-0.313,0-0.625,0-0.938c0.686-0.781,0.125-1.563,0-2.345c0-0.677,0-1.354,0-2.03c0.473-2.219,1.791-3.559,4.063-3.906
			c0.572,0,1.146,0,1.719,0c0.176,0.25,0.471,0.158,0.705,0.234c2.83,0.939,4.219,4.108,2.953,6.821
			c-0.166,0.356-0.293,0.59,0.121,0.886c0.398,0.283,0.422,0.766,0.27,1.211c-0.156,0.459-0.508,0.725-0.996,0.74
			c-0.727,0.023-1.455,0.032-2.182,0.014c-0.391-0.011-0.572,0.092-0.541,0.521c0.033,0.465,0.049,0.938-0.002,1.401
			c-0.072,0.631,0.117,0.836,0.787,0.826c2.648-0.041,5.299-0.006,7.947-0.022c0.748-0.005,1.256,0.25,1.441,1.008
			c0.186,0.726-0.045,1.183-0.742,1.462c-0.396,0.16-0.816,0.148-1.232,0.15c-2.293,0.004-4.584-0.004-6.873,0.004
			c-1.045,0.003-1.09,0.049-1.09,1.113c-0.004,4.869-0.002,9.738-0.002,14.606c0,1.271,0.004,1.272,1.33,1.272
			c11.77,0,23.537,0,35.307,0c0.52,0,1.041-0.008,1.561,0.006c0.492,0.046,0.988-0.006,1.482,0.031
			c0.914,0.071,1.314,0.396,1.619,1.303c0.01,0.099,0.004,0.195-0.016,0.293c-0.273,1.05-1.064,1.212-1.996,1.211
			c-6.064-0.008-12.131-0.006-18.197-0.003c-0.363,0-0.73-0.021-1.092,0.042c-0.693,0.119-1.088,0.555-1.047,1.141
			c0.039,0.572,0.414,0.896,1.121,0.965c0.285,0.027,0.572,0.018,0.859,0.018c10.594,0,21.189,0,31.785,0
			c0.338,0,0.678,0.016,1.014-0.037c0.553-0.088,0.902-0.414,0.984-0.959c0.074-0.486-0.348-0.969-0.912-1.105
			c-0.332-0.08-0.674-0.063-1.012-0.063c-2.344-0.004-4.686,0.015-7.027-0.01c-1.104-0.012-1.492-0.34-1.691-1.323
			c0.111-0.997,0.576-1.442,1.641-1.486c1.225-0.05,2.447-0.022,3.672-0.014c1.588,0.011,3.178-0.067,4.764,0.052
			c0.49,0.037,0.66-0.164,0.662-0.615c0.008-1.041,0.004-2.082,0.004-3.125c0.002-3.646,0.002-7.291,0.002-10.936
			c0-0.313,0.01-0.625-0.016-0.938c-0.082-0.992-0.49-1.402-1.482-1.438c-0.963-0.035-1.926-0.008-2.891-0.012
			c-2.475-0.01-4.945,0.022-7.42-0.016c-1.59,0.049-3.178,0.02-4.766,0.02c-7.629,0.005-15.26,0.002-22.889,0.002
			c-0.467,0-0.939,0.027-1.395-0.118C22.086,17.403,21.799,16.974,21.877,16.264z"/>
		<path fill="#62DAFA" d="M28.305,42.386c16.918,0.004,33.838,0.006,50.756,0.01c1.174,0,1.227,0.074,0.869,1.193
			c-0.619,1.953-1.215,3.918-1.867,5.859c-0.391,1.158-0.396,2.275-0.01,3.434c0.68,2.045,1.313,4.104,1.955,6.16
			c0.246,0.781,0.15,0.916-0.684,0.916c-3.98,0.004-7.963-0.002-11.945,0.004c-0.992,0.002-1.297,0.271-1.475,1.221
			c-1.023-0.148-2.053-0.035-3.078-0.064c-0.344-1.033-0.52-1.156-1.723-1.156c-10.543,0.002-21.084,0.004-31.627,0.002
			c-0.305,0-0.625,0.084-0.916-0.084c0.375-0.402,0.873-0.271,1.324-0.273c7.105-0.008,14.211-0.006,21.318-0.006
			c2.473,0,4.945-0.021,7.418,0.014c0.822,0.012,1.363-0.285,1.801-0.973c0.557-0.879,1.102-1.768,1.721-2.604
			c0.371-0.328,4.887-10.451,5.018-10.949c0.154-0.553,0.336-1.096,0.469-1.652c0.115-0.475-0.064-0.688-0.545-0.686
			c-0.26,0.002-0.52-0.002-0.781-0.002c-12.195,0-24.395,0.002-36.592-0.012C29.234,42.735,28.656,42.96,28.305,42.386z"/>
		<path fill="#98E5FB" d="M21.877,16.264c0.303,1.021,0.566,1.216,1.68,1.216c9.154,0.002,18.311,0,27.465,0.002
			c0.283,0,0.568,0.02,0.854,0.031c0.289,0.33,0.236,0.732,0.211,1.114c-0.221,3.433-0.934,6.769-2.012,10.028
			c-0.09,0.272-0.195,0.539-0.439,0.717c0,0.996-0.814,2.209-0.857,2.349c-0.361,1.166-0.773,2.31-1.586,3.257
			c-0.262,0.01-0.52,0.026-0.779,0.026c-12.305,0.001-24.611-0.005-36.916,0.017c-0.697,0.002-0.9-0.152-0.895-0.879
			c0.035-5.281,0.035-10.563,0-15.843c-0.006-0.722,0.211-0.843,0.865-0.834c2.627,0.038,5.256,0.021,7.885,0.013
			c0.975-0.003,1.334-0.354,1.436-1.34C19.807,16.411,20.848,16.19,21.877,16.264z"/>
		<path fill="#98E5FB" d="M28.305,42.386c0.307,0.223,0.658,0.113,0.984,0.113c12.625,0.006,25.25,0.006,37.875,0.006
			c0.969,0,0.99,0.008,0.709,0.961c-0.186,0.633-0.205,1.328-0.676,1.857c-0.281,0.199-4.697,10.277-4.814,10.566
			c-0.6,1.301-1.49,2.422-2.275,3.605c-0.256,0.389-0.658,0.346-1.053,0.346c-8.111-0.002-16.225-0.004-24.336,0
			c-2.053,0.004-4.105,0.025-6.158,0.037c-0.871-0.262-1.092-0.572-1.094-1.605c-0.002-4.889,0-9.775,0-14.664
			c0-0.439,0-0.879,0-1.395C27.779,42.278,28.041,42.333,28.305,42.386z"/>
		<path fill="#62DAFA" d="M47.191,34.978c0.404-1.169,2.293-4.792,2.326-5.563c0.896-2.221,1.461-4.534,1.881-6.883
			c0.295-1.658,0.49-3.33,0.477-5.021c3.537-0.011,7.074-0.03,10.611-0.021c0.889,0.002,1.373,0.56,1.385,1.535
			c0.02,1.403,0.006,2.809,0.006,4.213c0,3.771-0.006,7.543,0.008,11.313c0.002,0.487-0.061,0.747-0.633,0.558
			c-0.266-0.088-0.563-0.101-0.846-0.102c-2.629-0.007-5.254-0.01-7.881-0.002c-0.949,0.002-1.271,0.287-1.475,1.242
			c-0.084,0.041-0.172,0.06-0.264,0.06c-0.668-0.003-1.338,0-2.006-0.002c-0.285-0.001-0.568-0.006-0.797-0.214
			c-0.236-0.827-0.793-1.152-1.635-1.094C47.967,35.026,47.578,34.987,47.191,34.978z"/>
		<path fill="#01BFF9" d="M52.943,36.215c0.037,0.008,0.072,0.021,0.107,0.036c0.164,0.783,0.645,1.111,1.447,1.105
			c2.604-0.02,5.205-0.018,7.809-0.003c1.15,0.007,1.826,0.884,1.449,1.833c-0.186,0.471-0.521,0.773-1.035,0.834
			c-0.258,0.029-0.52,0.027-0.779,0.027c-10.854,0.002-21.705,0.002-32.561,0c-0.232,0-0.469,0.008-0.701-0.018
			c-0.691-0.072-1.154-0.547-1.201-1.211c-0.051-0.697,0.369-1.285,1.059-1.428c0.275-0.059,0.568-0.042,0.855-0.042
			c6.322-0.002,12.648-0.012,18.973,0.011c0.852,0.002,1.404-0.269,1.619-1.113C50.971,36.104,51.957,36.17,52.943,36.215z"/>
		<path fill="#FEE076" d="M10.064,7.485c-0.016,1.459-1.195,2.605-2.654,2.577c-1.455-0.028-2.598-1.221-2.563-2.674
			c0.033-1.407,1.207-2.546,2.621-2.543C8.914,4.849,10.08,6.032,10.064,7.485z"/>
		<path fill="#78DEFA" d="M52.943,36.215c-0.986,0.011-1.973,0.022-2.957,0.034c-0.002-0.053-0.002-0.104-0.002-0.156
			C50.969,36.163,51.967,35.95,52.943,36.215z"/>
		<path fill="#96E2F8" d="M55.957,48.438c-0.08,0.469-0.414,0.801-0.986,0.764c-0.57-0.037-0.887-0.408-0.893-0.979
			c-0.006-0.543,0.488-0.947,1.045-0.898C55.645,47.372,56.004,47.806,55.957,48.438z"/>
		<path fill="#98E4FA" d="M45.064,47.321c0.994-0.004,1.799,0.795,1.791,1.773c-0.01,0.973-0.838,1.775-1.816,1.758
			c-0.949-0.02-1.732-0.801-1.748-1.744C43.275,48.126,44.07,47.323,45.064,47.321z"/>
	</g>
	<text transform="matrix(1 0 0 1 10.0991 32.9126)" font-family="'00327'" font-size="18.0704">2024</text>
	<text transform="matrix(1 0 0 1 30.6841 57.5742)" font-family="'00327'" font-size="18.0704">1988</text>
</g>
</svg>
