<?xml version="1.0" encoding="utf-8"?>
<!-- Generator: Adobe Illustrator 16.0.0, SVG Export Plug-In . SVG Version: 6.00 Build 0)  -->
<!DOCTYPE svg PUBLIC "-//W3C//DTD SVG 1.1//EN" "http://www.w3.org/Graphics/SVG/1.1/DTD/svg11.dtd">
<svg version="1.1" id="Layer_1" xmlns="http://www.w3.org/2000/svg" xmlns:xlink="http://www.w3.org/1999/xlink" x="0px" y="0px"
	 width="85px" height="85px" viewBox="0 0 85 85" enable-background="new 0 0 85 85" xml:space="preserve">
<g>
	<polygon fill="#B27214" points="75.674,42.499 75.674,52.801 68.984,52.801 68.984,42.499 68.984,32.199 75.674,32.199 	"/>
	<polygon fill="#B27214" points="53.67,42.499 53.67,52.801 46.98,52.801 46.98,42.499 46.98,32.199 53.67,32.199 	"/>
	<polygon fill="#B27214" points="31.666,42.499 31.666,52.801 24.976,52.801 24.976,42.499 24.976,32.199 31.666,32.199 	"/>
	<path fill="#F95428" d="M64.67,42.499v4.176c0,1.847-1.496,3.345-3.344,3.345s-3.344-1.498-3.344-3.345v-8.348
		c0-1.849,1.496-3.345,3.344-3.345c0.924,0,1.76,0.375,2.365,0.979c0.604,0.604,0.979,1.441,0.979,2.365V42.499L64.67,42.499z"/>
	<path fill="#9AD14B" d="M42.667,42.499v4.176c0,1.847-1.497,3.345-3.343,3.345c-1.848,0-3.346-1.498-3.346-3.345v-8.348
		c0-1.849,1.498-3.345,3.346-3.345c0.924,0,1.759,0.375,2.363,0.979s0.979,1.441,0.979,2.365L42.667,42.499L42.667,42.499z"/>
	<path fill="#333333" d="M81.164,41.162H77.01v-8.963c0-0.739-0.598-1.338-1.338-1.338h-6.688c-0.738,0-1.338,0.599-1.338,1.338
		v8.963H66.01v-2.836c0-2.582-2.102-4.684-4.684-4.684s-4.682,2.102-4.682,4.684v2.836h-1.639v-8.963
		c0-0.739-0.598-1.338-1.338-1.338H46.98c-0.738,0-1.338,0.599-1.338,1.338v8.963h-1.639v-2.836c0-2.582-2.1-4.684-4.682-4.684
		s-4.684,2.102-4.684,4.684v2.836h-1.637v-8.963c0-0.739-0.6-1.338-1.338-1.338h-6.689c-0.738,0-1.338,0.599-1.338,1.338v8.963
		h-4.014c-0.739,0-1.338,0.6-1.338,1.338c0,3.613-2.941,6.557-6.557,6.557c-3.613,0-6.554-2.941-6.554-6.557s2.94-6.555,6.554-6.555
		c0.739,0,1.338-0.598,1.338-1.338c0-0.738-0.599-1.338-1.338-1.338C6.64,33.27,2.5,37.411,2.5,42.5c0,5.09,4.141,9.23,9.229,9.23
		c4.637,0,8.485-3.436,9.135-7.894h2.772v8.964c0,0.739,0.599,1.338,1.339,1.338h6.688c0.739,0,1.338-0.599,1.338-1.338v-8.964
		h1.637v2.837c0,2.582,2.101,4.684,4.683,4.684s4.684-2.102,4.684-4.684v-2.837h1.637v8.964c0,0.739,0.6,1.338,1.338,1.338h6.689
		c0.738,0,1.338-0.599,1.338-1.338v-8.964h1.637v2.837c0,2.582,2.102,4.684,4.684,4.684s4.682-2.102,4.682-4.684v-2.837h1.639v8.964
		c0,0.739,0.598,1.338,1.338,1.338h6.688c0.738,0,1.338-0.599,1.338-1.338v-8.964h4.152c0.74,0,1.338-0.601,1.338-1.338
		C82.502,41.76,81.904,41.162,81.164,41.162z M30.328,51.464h-4.014V33.537h4.014V51.464z M39.324,48.682
		c-1.106,0-2.008-0.9-2.008-2.008v-8.349c0-1.106,0.9-2.007,2.008-2.007s2.007,0.9,2.007,2.007v8.349
		C41.33,47.781,40.429,48.682,39.324,48.682z M52.332,51.464h-4.014V33.537h4.014V51.464L52.332,51.464z M61.326,48.682
		c-1.105,0-2.006-0.9-2.006-2.008v-8.349c0-1.106,0.9-2.007,2.006-2.007c1.107,0,2.008,0.9,2.008,2.007v8.349
		C63.334,47.781,62.434,48.682,61.326,48.682z M74.334,51.464h-4.012V33.537h4.012V51.464z"/>
	<circle fill="#FFFFFF" cx="28.588" cy="35.259" r="1.338"/>
	<circle fill="#FFFFFF" cx="39.56" cy="38.291" r="1.338"/>
	<circle fill="#FFFFFF" cx="61.68" cy="38.291" r="1.338"/>
	<circle fill="#FFFFFF" cx="50.619" cy="35.259" r="1.338"/>
	<circle fill="#FFFFFF" cx="72.967" cy="35.259" r="1.338"/>
</g>
</svg>
