<?xml version="1.0" encoding="utf-8"?>
<!-- Generator: Adobe Illustrator 16.0.2, SVG Export Plug-In . SVG Version: 6.00 Build 0)  -->
<!DOCTYPE svg PUBLIC "-//W3C//DTD SVG 1.1//EN" "http://www.w3.org/Graphics/SVG/1.1/DTD/svg11.dtd">
<svg version="1.1" id="Layer_1" xmlns="http://www.w3.org/2000/svg" xmlns:xlink="http://www.w3.org/1999/xlink" x="0px" y="0px"
	 width="85px" height="85px" viewBox="0 0 85 85" enable-background="new 0 0 85 85" xml:space="preserve">
<g>
	<path d="M48.929,2.503c1.191,0.3,2.41,0.473,3.568,0.927c5.148,2.022,8.623,6.92,8.752,12.458c0.014,0.537,0.219,0.689,0.672,0.793
		c2.254,0.516,4.5,1.055,6.75,1.583c2.467,0.58,4.086,2.635,3.83,4.86c-0.277,2.428-2.348,4.326-4.822,4.367
		c-1.926,0.033-3.854,0.027-5.777-0.002c-0.51-0.008-0.645,0.125-0.643,0.637c0.025,3.516,0.094,7.033-0.01,10.545
		c-0.105,3.637-1.691,6.482-4.979,8.242c-0.791,0.424-1.658,0.615-2.557,0.58c-0.404-0.016-0.652,0.094-0.879,0.459
		c-2.117,3.416-4.971,6.053-8.541,7.902c-0.398,0.207-0.541,0.438-0.533,0.887c0.029,1.666,0.031,3.334,0.002,4.998
		c-0.014,0.813,0.307,1.289,1.076,1.592c4.391,1.734,8.77,3.502,13.15,5.258c3.219,1.289,4.533,3.23,4.533,6.688
		c0,1.066-0.021,2.137,0.006,3.203c0.018,0.74-0.285,1.209-0.959,1.525c-2.631,1.242-5.377,2.053-8.275,2.342
		c-0.123,0.012-0.266-0.021-0.303,0.154c-0.156,0-0.314,0-0.469,0c-0.086-0.096-0.203-0.076-0.314-0.08
		c-0.109,0.004-0.225-0.016-0.313,0.08c-9.582,0-19.166,0-28.75,0c-0.086-0.096-0.201-0.076-0.313-0.08
		c-0.109,0.004-0.227-0.016-0.313,0.08c-0.262,0-0.521,0-0.781,0c-0.635-0.4-1.383-0.305-2.072-0.447
		c-2.146-0.439-4.207-1.119-6.189-2.051c-0.479-0.225-0.916-0.518-0.928-1.055c-0.031-1.766-0.193-3.549,0.07-5.301
		c0.357-2.379,1.771-3.99,3.994-4.883c4.43-1.777,8.861-3.547,13.293-5.316c1.25-0.5,1.363-0.66,1.363-2.016
		c0-1.59-0.01-3.178,0.006-4.766c0.004-0.371-0.061-0.598-0.457-0.768c-0.998-0.426-1.9-1.045-2.938-1.42
		c-0.895-0.322-1.584-0.979-2.104-1.791c-1.119-1.754-2.729-3.141-3.74-4.975c-0.145-0.26-0.387-0.217-0.617-0.215
		c-2.068,0.02-3.715-0.898-5.059-2.383c-1.707-1.881-2.598-4.102-2.596-6.666c0.006-7.263,0.066-14.525-0.016-21.789
		C13.664,9.005,19.398,3.323,25.787,2.624c0.061-0.006,0.113-0.082,0.17-0.125C33.617,2.503,41.273,2.503,48.929,2.503z"/>
	<path fill="#686868" d="M22.523,82.501c0.045-0.174,0.176-0.145,0.301-0.127c0.059,0.021,0.08,0.049,0.064,0.08
		c-0.018,0.031-0.033,0.047-0.053,0.047C22.732,82.501,22.626,82.501,22.523,82.501z"/>
	<path fill="#464646" d="M22.835,82.501c-0.004-0.043-0.008-0.086-0.012-0.127c0.135-0.027,0.258-0.021,0.324,0.127
		C23.044,82.501,22.941,82.501,22.835,82.501z"/>
	<path fill="#464646" d="M51.897,82.501c0.066-0.146,0.189-0.15,0.324-0.129c0.041,0.033,0.055,0.063,0.037,0.09
		s-0.033,0.039-0.049,0.039C52.106,82.501,52.001,82.501,51.897,82.501z"/>
	<path fill="#686868" d="M52.21,82.501c0.002-0.043,0.006-0.086,0.012-0.129c0.127-0.02,0.258-0.047,0.301,0.129
		C52.419,82.501,52.315,82.501,52.21,82.501z"/>
	<path fill="#EEB559" d="M22.509,6.22c1.436-0.801,2.992-1.191,4.615-1.199c6.922-0.027,13.844-0.059,20.763,0.002
		c5.729,0.051,10.635,4.891,10.863,10.613c0.057,1.352,0,2.704-0.004,4.057c-0.354,0.609-0.965,0.549-1.521,0.553
		c-2.91,0.02-5.82,0.008-8.73,0.008c-0.832,0.002-1.664,0.009-2.494-0.004c-0.336-0.004-0.684,0.02-0.953-0.248
		c-0.26-2.453-1.699-3.745-4.183-3.748c-2.178-0.002-4.357,0.047-6.535-0.016c-1.648-0.045-2.92,0.537-3.846,1.893
		c-0.404,0.229-0.707-0.053-0.994-0.237c-3.203-2.062-5.418-4.884-6.512-8.549C22.673,8.327,22.339,7.31,22.509,6.22z"/>
	<path fill="#196053" d="M22.542,69.085c3.082-1.24,6.166-2.473,9.238-3.734c0.336-0.139,0.492-0.064,0.729,0.154
		c2.951,2.742,7.064,2.734,10.043-0.014c0.205-0.188,0.346-0.295,0.662-0.164c4.568,1.857,9.145,3.697,13.721,5.533
		c2.441,0.98,3.09,1.914,3.088,4.523c0,0.393-0.01,0.781-0.016,1.17c-0.16,0.363-0.484,0.531-0.82,0.682
		c-0.848,0.379-1.74,0.51-2.662,0.51c-9.424-0.002-18.847-0.035-28.269,0.018c-3.41,0.02-6.113-2.594-5.979-6.004
		c0.023-0.57,0.002-1.145,0.006-1.717C22.285,69.7,22.298,69.362,22.542,69.085z"/>
	<path fill="#F8CEBA" d="M54.999,27.973c0.086,4.22,0.164,8.438-1.223,12.517c-1.826,5.373-4.869,9.813-9.873,12.699
		c-3.269,1.885-6.726,2.377-10.509,1.082c1.457-0.453,2.816-0.789,4.107-1.307c1.34-0.535,2.779-0.629,4.127-1.09
		c2.513-0.857,4.384-2.438,5.484-4.881c0.676-1.496,0.619-2.969-0.426-4.258c-1.061-1.309-2.512-1.77-4.136-1.34
		c-3.074,0.813-6.143,1.057-9.24,0.17c-0.17-0.047-0.361-0.039-0.475-0.213c3.99-2.924,3.979-7.191,2.561-9.855
		c-1.623-3.049-5.139-4.629-8.465-3.776c-3.443,0.884-5.754,3.969-5.658,7.563c0.098,3.756,2.627,6.334,7.178,7.279
		c-0.771,0.918-1.033,1.975-0.912,3.135c0.02,0.189,0.006,0.352-0.186,0.465c-0.826,0.482-1.432,1.186-1.916,2.064
		c-2.539-3.355-4.158-7.025-4.953-11.07c-0.6-3.043-0.463-6.115-0.439-9.186c0.236-0.33,0.605-0.383,0.961-0.456
		c2.957-0.61,5.945-0.983,8.957-1.214c3.166-0.241,6.332-0.329,9.504-0.281c0.377,0.006,0.857-0.146,1.043,0.402
		c-2.002,2.723-2.381,5.611-0.697,8.6c1.959,3.477,6.341,4.729,9.88,2.917c3.563-1.825,5.064-6.142,3.41-9.797
		c-0.098-0.211-0.188-0.424-0.279-0.636C53.622,27.319,54.354,27.44,54.999,27.973z"/>
	<path fill="#0A2F2D" d="M22.542,69.085c0.029,1.375-0.15,2.752,0.119,4.121c0.467,2.379,2.578,4.277,4.969,4.283
		c9.814,0.025,19.628,0.016,29.445,0.004c1.061-0.002,2.029-0.391,2.932-0.939c0.045,1.412,0.037,1.395-1.27,1.924
		c-2.607,1.055-5.326,1.514-8.119,1.518c-8.871,0.016-17.742,0.031-26.611-0.008c-2.953-0.014-5.805-0.646-8.525-1.83
		c-0.355-0.154-0.465-0.348-0.461-0.699c0.012-1.014-0.047-2.033,0.02-3.043c0.092-1.424,0.77-2.541,2.104-3.121
		C18.925,70.521,20.742,69.819,22.542,69.085z"/>
	<path fill="#F08C48" d="M22.509,6.22c0.283,0.965,0.326,1.973,0.613,2.945c1.109,3.752,3.363,6.601,6.646,8.668
		c0.215,0.137,0.475,0.199,0.713,0.295c-0.438,0.893-0.529,1.845-0.451,2.813c0.041,0.503-0.137,0.65-0.631,0.692
		c-3.447,0.298-6.887,0.67-10.258,1.49c-0.807,0.197-1.604,0.44-2.395,0.691c-0.299,0.096-0.49,0.165-0.479-0.271
		c0.086-3.041-0.285-6.108,0.186-9.125C17.041,10.689,19.117,7.939,22.509,6.22z"/>
	<path fill="#F4F4FB" d="M29.248,30.051c-1.592,1.034-2.055,2.22-1.451,3.509c0.527,1.121,1.764,1.686,2.924,1.33
		c1.354-0.413,1.957-1.529,1.723-3.189c1.59,1.59,1.771,4.227,0.424,6.153c-1.391,1.989-3.949,2.694-6.158,1.696
		c-2.229-1.008-3.383-3.426-2.773-5.824C24.517,31.417,26.697,29.872,29.248,30.051z"/>
	<path fill="#F4F4FB" d="M46.294,26.253c2.754,0.005,4.994,2.271,4.977,5.039c-0.02,2.762-2.283,4.98-5.061,4.959
		c-2.717-0.021-4.941-2.273-4.935-5C41.281,28.479,43.521,26.249,46.294,26.253z"/>
	<path fill="#E89A82" d="M40.511,26.424c-0.227-0.259-0.531-0.162-0.805-0.163c-1.74-0.008-3.482-0.068-5.219,0.012
		c-4.854,0.223-9.693,0.57-14.441,1.7c-0.008-0.623,0.021-1.251-0.035-1.869c-0.051-0.545,0.189-0.692,0.676-0.786
		c5.785-1.123,11.623-1.662,17.516-1.557c1.912,0.033,3.824,0.111,5.769,0.264C42.615,24.564,41.486,25.386,40.511,26.424z"/>
	<path fill="#842630" d="M45.022,45.2c0.031,0.262-0.061,0.529-0.188,0.791c-0.867,1.811-2.263,3.004-4.179,3.609
		c-0.477,0.15-0.689,0.031-0.977-0.406c-1.723-2.629-4.033-4.744-8.063-4.059c-0.332,0.057-0.67,0.076-1.006,0.117
		c-0.176,0.023-0.385,0.131-0.51-0.037c-0.15-0.203-0.08-0.443,0.02-0.664c0.287-0.625,1.045-0.939,1.873-0.736
		c1.313,0.32,2.631,0.568,3.973,0.75c2.188,0.295,4.289-0.123,6.396-0.578c0.404-0.086,0.812-0.213,1.22-0.223
		C44.425,43.751,45.022,44.364,45.022,45.2z"/>
	<path fill="#F08C48" d="M45.048,19.999c4.094,0.002,8.188-0.002,12.279,0.01c0.504,0.001,0.973-0.09,1.42-0.314
		c0,1.395,0,2.79,0,4.266c-1.965-0.695-3.932-1.135-5.926-1.465c-2.281-0.377-4.572-0.682-6.879-0.812
		c-0.766-0.043-1.066-0.308-0.924-1.063C45.056,20.419,45.038,20.208,45.048,19.999z"/>
	<path fill="#F8CEBA" d="M41.248,58.757c0.01,1.24,0.031,2.48,0.027,3.723c-0.002,0.725-0.336,1.311-0.924,1.705
		c-1.197,0.801-2.512,1.02-3.914,0.658c-0.125-0.133-0.271-0.268-0.289-0.449c-0.145-1.393-0.273-2.789,0.113-4.16
		c0.154-0.539,0.533-0.977,1.018-1.236C38.554,58.312,39.896,58.36,41.248,58.757z"/>
	<path fill="#F08C48" d="M69.673,23.751c-0.469,0.857-1.225,1.238-2.172,1.246c-1.895,0.014-3.791,0.004-5.686,0.006
		c-0.293,0-0.557,0.043-0.553-0.411c0.021-1.815,0.01-3.63,0.01-5.527c1.041,0.269,2.012,0.517,2.982,0.767
		c0.004,1.172,0.678,1.982,1.521,2.652c0.893,0.708,1.938,1.073,3.094,1.074C69.149,23.558,69.448,23.514,69.673,23.751z"/>
	<path fill="#E89A82" d="M41.248,58.757c-0.803-0.002-1.605-0.012-2.41-0.004c-1.506,0.018-2.563,1.043-2.557,2.535
		c0.004,1.186-0.129,2.381,0.156,3.555c-1.756-0.168-2.676-1.172-2.666-2.893c0.008-1.482,0.002-2.967,0.002-4.449
		c0-0.268-0.049-0.529,0.395-0.414c2.342,0.6,4.688,0.523,7.08-0.063C41.248,57.628,41.248,58.192,41.248,58.757z"/>
	<path fill="#E89A82" d="M54.62,44.8c0.717-1.566,1.354-3.117,1.787-4.736c0.287-1.076,0.543-2.166,0.729-3.264
		c0.105-0.616,0.383-0.633,0.844-0.448c0.424,0.169,0.711,0.485,0.76,0.919c0.326,2.822-0.723,5.648-3.127,7.174
		C55.337,44.616,55.054,44.81,54.62,44.8z"/>
	<path fill="#E89A82" d="M20.359,44.931c-2.563-1.227-3.752-3.227-4.068-5.82c-0.063-0.514-0.016-1.039-0.016-1.561
		c-0.002-0.48,0.199-0.859,0.605-1.111c0.578-0.359,0.93-0.236,1.031,0.381c0.447,2.682,1.234,5.256,2.389,7.717
		C20.332,44.599,20.324,44.679,20.359,44.931z"/>
	<path fill="#EEB559" d="M69.673,23.751c-1.473,0.111-2.822-0.207-4.031-1.092c-0.836-0.609-1.258-1.49-1.648-2.396
		c-0.113-0.261,0.01-0.392,0.264-0.435c1.438,0.326,2.887,0.602,4.305,0.994C69.774,21.159,70.478,22.743,69.673,23.751z"/>
	<path fill="#F8CEBA" d="M42.498,20.317c0.008,0.182,0.002,0.365,0.029,0.545c0.066,0.448-0.113,0.565-0.557,0.545
		c-1.533-0.074-3.068-0.137-4.604-0.145c-1.25-0.006-2.498,0.068-3.746,0.115c-1.129,0.043-1.129,0.049-1.072-1.063
		c0.236-0.474,0.691-0.529,1.129-0.535c2.564-0.039,5.127-0.039,7.691,0C41.808,19.786,42.263,19.844,42.498,20.317z"/>
	<path fill="#E89A82" d="M42.498,20.317c-0.447-0.232-0.918-0.322-1.426-0.32c-2.365,0.014-4.732,0.014-7.098,0
		c-0.51-0.002-0.98,0.088-1.428,0.319c-0.016-1.116,0.404-1.559,1.518-1.562c2.307-0.008,4.609-0.008,6.916,0
		C42.091,18.758,42.513,19.2,42.498,20.317z"/>
	<path fill="#E89A82" d="M54.999,27.973c-0.725-0.155-1.449-0.31-2.176-0.465c-0.729-1.039-1.547-1.989-2.646-2.661
		c-0.016-0.296,0.162-0.232,0.334-0.18c1.387,0.137,2.742,0.44,4.105,0.697c0.301,0.057,0.426,0.2,0.412,0.523
		C54.999,26.581,55.007,27.276,54.999,27.973z"/>
	<path fill="#DD5262" d="M34.25,47.737c-1.191,0.379-2.387,0.705-3.518,1.223c-0.945,0.434-1.852,0.936-2.697,1.539
		c-0.365,0.262-0.486,0.152-0.51-0.262c-0.049-0.865,0.537-1.879,1.516-2.131C30.738,47.667,32.468,47.302,34.25,47.737z"/>
	<path fill="#1C5E52" d="M17.507,28.61c0.008,1.535-0.016,3.071,0.037,4.604c0.027,0.771-0.58,0.542-0.92,0.635
		c-0.496,0.138-0.342-0.33-0.344-0.563c-0.014-1.405-0.002-2.812,0-4.217C16.582,28.63,16.958,28.393,17.507,28.61z"/>
	<path fill="#1C5E52" d="M58.763,29.071c0.004,1.377,0.021,2.756-0.004,4.135c-0.004,0.238,0.23,0.75-0.34,0.646
		c-0.375-0.068-0.959,0.074-0.92-0.719c0.072-1.506,0.033-3.016,0.039-4.523C58.087,28.393,58.462,28.63,58.763,29.071z"/>
	<path fill="#F06A7A" d="M29.833,52.405c2.127-1.498,4.496-2.232,7.059-2.387c0.189-0.012,0.396,0,0.461,0.201
		c0.096,0.297-0.193,0.254-0.336,0.299c-2.059,0.637-4.119,1.264-6.18,1.895C30.509,52.517,30.179,52.503,29.833,52.405z"/>
	<path fill="#0B2C2C" d="M17.507,28.61c-0.438,0.073-0.842,0.24-1.227,0.459c-0.002-0.464-0.008-0.928-0.008-1.392
		c0-1.147,0-1.147,1.232-1.455C17.507,27.026,17.507,27.819,17.507,28.61z"/>
	<path fill="#0B2C2C" d="M58.763,29.071c-0.383-0.223-0.785-0.388-1.225-0.461c0-0.791,0-1.584,0-2.389
		c1.234,0.309,1.234,0.309,1.234,1.456C58.772,28.143,58.767,28.607,58.763,29.071z"/>
	<path fill="#966454" d="M50.513,24.667c-0.113,0.057-0.275,0.021-0.334,0.18c-0.131-0.061-0.26-0.119-0.441-0.204
		C50.048,24.46,50.282,24.526,50.513,24.667z"/>
	<path d="M47.521,31.229c0.012,1.386-1.129,2.529-2.514,2.521c-1.348-0.006-2.472-1.127-2.482-2.476
		c-0.012-1.394,1.121-2.526,2.511-2.521C46.388,28.762,47.509,29.876,47.521,31.229z"/>
</g>
</svg>
