<?xml version="1.0" encoding="utf-8"?>
<!-- Generator: Adobe Illustrator 16.0.0, SVG Export Plug-In . SVG Version: 6.00 Build 0)  -->
<!DOCTYPE svg PUBLIC "-//W3C//DTD SVG 1.1//EN" "http://www.w3.org/Graphics/SVG/1.1/DTD/svg11.dtd">
<svg version="1.1" id="Layer_1" xmlns="http://www.w3.org/2000/svg" xmlns:xlink="http://www.w3.org/1999/xlink" x="0px" y="0px"
	 width="85px" height="85px" viewBox="0 0 85 85" enable-background="new 0 0 85 85" xml:space="preserve">
<g>
	<path fill="#FDD2B4" d="M66.338,39.325c-2.508,6.967-6.408,24.801-6.408,24.801s5.324,11.449,5.822,17.95H20.225
		c0.447-9.136,1.529-16.278,1.529-16.278l5.016-14.771c0,0-3.623-7.802-3.344-19.227c0.277-11.425,0.836-17.556,0.836-17.556
		s-1.561-4.516-3.43-11.312h47.58l-1.795,8.524l2.229,11.981C68.846,23.441,68.846,32.358,66.338,39.325L66.338,39.325z"/>
	<path fill="#EEBD9C" d="M36.141,22.593c-1.463-0.206-2.906,0.719-3.703,1.962c-0.799,1.242-1.062,2.747-1.205,4.217
		c-0.426,4.321,0.072,8.832,2.119,12.662c2.045,3.83,5.789,6.882,10.096,7.437c-2.535-0.152-5.076-0.236-7.615-0.254
		c-1.408,4.393,0.871,9.029,3.082,13.074c-2.223-1.746-3.973-4.089-5.018-6.716c-0.596-1.496-0.986-3.119-1.994-4.374
		c-1.008-1.256-2.924-1.998-4.252-1.09c-0.943,0.646-1.271,1.862-1.529,2.975c-0.6,2.588-1.201,5.177-1.803,7.764
		c0.779-2.776,1.566-5.628,1.312-8.5c-0.186-2.114-0.926-4.134-1.512-6.175c-2.816-9.824-2.014-20.352,0.076-30.356
		c1.109,5.257,7.463,8.691,12.467,6.739L36.141,22.593L36.141,22.593z M54.742,82.077h-2.518
		c-0.324-6.599,0.043-13.242,0.709-19.805c0.348-3.415,2.682-10.126-0.369-12.925c-2.129-1.952-6.352-1.215-8.639,0.074
		c3.062-1.728,5.855-3.889,8.299-6.416c0.598-0.619,1.193-1.304,1.361-2.147c0.287-1.442-0.752-2.781-1.725-3.888
		c-2.359-2.688-4.719-5.374-7.08-8.062l0.158-0.634c1.674,4.149,6.537,5.832,10.848,7.039c0.881,0.246,1.898,0.474,2.654-0.043
		c0.555-0.381,0.807-1.063,1.014-1.705c1.576-4.841,2.689-9.82,3.32-14.873c1.744,11.154-1.406,22.403-3.738,33.451
		C56.957,62.014,55.531,72.019,54.742,82.077L54.742,82.077z M61.58,82.077h-5.031c0.678-4.095,1.352-8.188,2.025-12.281
		l-0.594,3.735c0.711-2.11,1.064-4.325,1.049-6.554C59.994,71.962,60.885,77.008,61.58,82.077z M24.604,82.077h-4.871
		c0.414-7.836,1.803-15.619,4.166-23.103c-0.055,4-0.109,7.999-0.162,11.999l1.371,0.406C24.807,74.948,24.648,78.514,24.604,82.077
		L24.604,82.077z"/>
	<path fill="#FEE3CE" d="M56.004,2.935c-0.396,6.706-1.041,13.394-1.887,20.022c-6.488-5.38-12.977-10.759-19.465-16.138
		c-1.504-1.248-3.021-2.513-4.41-3.885H56.004L56.004,2.935z M36.244,24.513c-2.086-0.145-3.32,2.385-3.346,4.477
		c-0.064,5.363,3.684,9.92,7.225,13.949c0.625,0.713,1.326,1.469,2.26,1.635c0.703,0.125,1.42-0.111,2.084-0.38
		c1.533-0.618,2.99-1.416,4.338-2.375c0.742-0.527,1.516-1.228,1.537-2.14c0.029-1.182-1.158-1.956-2.082-2.695
		c-2.48-1.985-3.721-5.088-5.391-7.793s-4.328-5.305-7.498-5.087L36.244,24.513L36.244,24.513z M39.832,51.389
		c-0.982-0.953-2.537-1.263-3.809-0.762c0.611,2.81,2.051,5.433,4.092,7.459c0.824,0.816,1.801,1.564,2.949,1.742
		c2.689,0.415,4.723-2.291,6.08-4.65c0.797-1.384,1.568-3.217,0.557-4.452c-1.002-1.221-2.934-0.846-4.416-0.304
		c-1.443,0.528-2.928,1.121-4.461,1c-1.531-0.122-3.115-1.224-3.193-2.757L39.832,51.389z M26.977,82.077
		c-0.174-3.707-0.338-7.412-0.562-11.105c-0.197-3.256-0.852-9.979,2.072-12.349c3.035-2.46,5.133-0.032,8.031,1.601
		c0.873,0.492,10.891,3.623,10.818,3.086c0.84,6.229,1.418,12.492,1.75,18.769L26.977,82.077L26.977,82.077z"/>
	<g>
		<path fill="#AF7B6E" d="M21.406,2.935c0.783,2.645,1.629,5.27,2.547,7.859c3.041,8.586,3.102,11.273,12.797,11.136
			c0.314-0.004,0.312,0.478,0,0.489c-2.256,0.081-7.018,0.525-9.078-0.81c-3.094-2.006-5.527-12.803-6.576-15.942
			c-0.303-0.907-0.59-1.819-0.873-2.733L21.406,2.935L21.406,2.935z M67.867,23.366c-0.518-5.455-2.42-10.65-3.057-16.094
			c-0.168-1.443-0.318-2.89-0.453-4.337h1.654c0.359,4.126,0.871,8.237,1.688,12.316c1.9,9.515,2.047,18.621-2.826,27.316
			c-0.045,0.08-0.18,0.025-0.148-0.062C66.908,36.234,68.506,30.105,67.867,23.366z"/>
		<path fill="#AF7B6E" d="M68.545,2.935c-0.646,3.048-1.264,6.096-1.818,9.143c-0.023,0.129-0.246,0.1-0.23-0.029
			c0.4-3.049,0.887-6.084,1.424-9.113H68.545L68.545,2.935z M27.646,20.988c1.119,10.831,1.986,22.575,13.551,27.528
			c0.422,0.181,0.801-0.42,0.369-0.634c-11.133-5.497-11.928-16.111-13.662-26.929C27.881,20.808,27.629,20.841,27.646,20.988z
			 M44.109,48.618c2.916-0.912,5.699-1.338,7.832-3.721c2.117-2.368,3.518-5.588,3.676-8.762c0.006-0.131-0.203-0.161-0.23-0.031
			c-0.668,3.221-1.676,6.364-4.016,8.803c-2.004,2.09-4.721,2.539-7.309,3.545C43.961,48.49,44,48.651,44.109,48.618L44.109,48.618z
			 M24.07,14.43c-2.051,12.682-3.164,25.461,1.459,37.699c0.365,0.967,1.922,0.564,1.57-0.434
			c-4.447-12.621-2.439-24.173-2.211-37.154C24.896,14.084,24.146,13.957,24.07,14.43L24.07,14.43z M64.576,82.077
			c-0.773-6.247-2.455-12.374-5.264-18.348c-0.221-0.462,0.43-0.859,0.691-0.405c3.449,5.938,5.205,12.251,5.885,18.753H64.576
			L64.576,82.077z"/>
		<path fill="#AF7B6E" d="M57.752,72.17c3.674-11.578,7.082-23.484,9.592-35.374c0.107-0.504-0.621-0.711-0.773-0.213
			c-3.605,11.607-6.43,23.668-8.865,35.573C57.697,72.188,57.742,72.203,57.752,72.17L57.752,72.17z M20.979,82.077h-1.74
			c0.297-10.378,2.15-20.646,6.408-30.557c0.346-0.805,1.74-0.209,1.414,0.597C23.037,62.031,21.273,72.04,20.979,82.077z"/>
		<path fill="#AF7B6E" d="M56.693,82.077h-1.109c0.98-5.912,2.16-11.783,3.537-17.584c0.213-0.892,1.605-0.511,1.375,0.38
			C59.021,70.611,57.77,76.338,56.693,82.077z M25.057,71.658c-0.191-3.26-0.285-6.551,0.055-9.806
			c0.34-3.257,1.643-6.397,1.715-9.654c0.01-0.472-0.664-0.654-0.893-0.24c-2.975,5.374-2.246,13.91-1.316,19.761
			C24.656,71.968,25.072,71.909,25.057,71.658z M45.002,28.07c1.848,2.317,3.652,4.221,6.201,5.802
			c2.043,1.268,4.771,2.825,7.229,2.863c0.396,0.006,0.564-0.565,0.205-0.759c-2.215-1.186-4.729-1.644-6.941-2.948
			c-2.311-1.361-4.689-3.17-6.492-5.159C45.078,27.729,44.893,27.931,45.002,28.07z M38.369,59.638
			c-1.105-0.976-1.947-2.104-2.842-3.266c-0.281-0.363-1.973-2.756-1.678-2.025c0.43,1.066,0.527,0.999,0.416-0.181
			c-0.174-1.854-1.104-3.728-1.303-5.667c-0.396-3.854-1.064-7.465-1.914-11.255c-0.045-0.2-0.369-0.158-0.359,0.049
			c0.168,3.532,1.027,6.993,1.361,10.518c0.273,2.865,0.707,5.412,2.271,7.868c0.217,0.34,0.836,0.128,0.684-0.288
			c-0.225-0.613-0.451-1.228-0.674-1.842c-0.158-0.43-0.842-0.254-0.695,0.189c0.875,2.65,2.225,4.58,4.496,6.202
			C38.312,60.067,38.531,59.78,38.369,59.638L38.369,59.638z"/>
	</g>
	<path fill="#333333" d="M82.5,82.403h-80V2.597h80V82.403L82.5,82.403z M3.301,81.601h78.396V3.399H3.301V81.601z"/>
</g>
</svg>
