<?xml version="1.0" encoding="utf-8"?>
<!-- Generator: Adobe Illustrator 16.0.0, SVG Export Plug-In . SVG Version: 6.00 Build 0)  -->
<!DOCTYPE svg PUBLIC "-//W3C//DTD SVG 1.1//EN" "http://www.w3.org/Graphics/SVG/1.1/DTD/svg11.dtd">
<svg version="1.1" id="Layer_1" xmlns="http://www.w3.org/2000/svg" xmlns:xlink="http://www.w3.org/1999/xlink" x="0px" y="0px"
	 width="85px" height="85px" viewBox="0 0 85 85" enable-background="new 0 0 85 85" xml:space="preserve">
<g>
	<path d="M28.637,12.841c-0.551-1.6-1.867-2.521-3.586-2.582c-3.309-0.113-5.783-2.275-6.354-5.529
		c-0.256-1.461,0.203-2.258,1.828-2.229c3.572,0.066,7.146,0.018,10.721,0.023c3.264,0.004,5.434,2.188,5.443,5.465
		c0.006,1.396,0.021,2.795-0.01,4.191c-0.012,0.5,0.088,0.684,0.643,0.676c1.646-0.021,1.949,0.314,1.949,1.98
		c0,1.344,0.002,2.688-0.002,4.031c-0.002,1.277-0.424,1.768-1.666,1.689c-0.816-0.051-0.959,0.223-0.932,0.969
		c0.061,1.631,0.02,1.602,1.689,1.641c2.252,0.053,4.516-0.209,6.754,0.195c0.312,0.055,0.439-0.088,0.596-0.277
		c1.473-1.777,3.369-2.547,5.666-2.516c3.197,0.043,6.396,0.006,9.594,0.012c3.178,0.006,5.502,1.701,6.594,4.689
		c1.99,5.455,3.537,11.012,4.242,16.795c0.953,7.836,1.42,15.676,0.488,23.545c-0.494,4.189-1.396,8.303-2.535,12.359
		c-0.768,2.73-3.135,4.508-5.969,4.52c-5.158,0.02-10.318,0.008-15.477,0.004c-1.477-0.002-2.799-0.471-3.934-1.412
		c-0.312-0.26-0.494-0.342-0.861-0.049c-1.282,1.023-2.776,1.467-4.415,1.465c-5.051-0.006-10.104,0.01-15.154-0.006
		c-3.9-0.01-6.725-2.668-7.117-6.562c-0.707-7.023-1.467-14.047-2.193-21.068c-0.727-7.023-1.443-14.049-2.156-21.074
		c-0.154-1.518-0.455-3.023-0.166-4.568c0.621-3.34,3.588-5.957,6.994-6.039c2.148-0.053,4.299-0.031,6.449-0.006
		c0.488,0.006,0.701-0.104,0.613-0.613c-0.025-0.156-0.002-0.322-0.004-0.482c-0.002-0.457,0.156-1.014-0.051-1.344
		c-0.234-0.375-0.836-0.104-1.275-0.152c-0.75-0.084-1.232-0.547-1.244-1.322c-0.023-1.691-0.023-3.385,0-5.078
		c0.01-0.842,0.52-1.318,1.385-1.334C26.313,12.827,27.442,12.841,28.637,12.841z"/>
	<path fill="#D26839" d="M18.313,25.946c0.514-0.186,1.047-0.209,1.588-0.209c7.76,0.004,15.521-0.002,23.284,0.004
		c3.314,0.004,5.451,2.549,5.057,5.83c-0.473,3.914-0.826,7.842-1.232,11.766c-0.459,4.428-0.924,8.857-1.383,13.287
		c-0.398,3.842-0.793,7.686-1.189,11.527c-0.275,2.668-0.494,5.344-0.844,8.002c-0.223,1.688-1.176,2.906-2.854,3.455
		c-0.391,0.146-0.74-0.002-1.078-0.164c-2.348-1.145-4.582-2.475-6.611-4.125c-0.25-0.203-0.633-0.352-0.562-0.797
		c0.184-0.266,0.477-0.338,0.76-0.416c4.406-1.205,7.727-5.199,8.055-10.088c0.129-1.898,0.371-3.785,0.34-5.697
		c-0.07-4.23-1.309-8.072-3.719-11.547c-2.422-3.494-5.727-4.672-9.83-3.781c-1.053,0.229-2.082,0.541-3.076,0.945
		c-3.998,1.629-4.816,6.158-1.631,9.049c0.436,0.395,0.578,0.832,0.637,1.4c0.195,1.924-0.502,3.645-1.125,5.387
		c-0.086,0.236-0.176,0.529-0.541,0.484c-0.307-0.227-0.373-0.582-0.484-0.906c-1.023-2.996-1.441-6.102-1.713-9.238
		c-0.303-3.5-0.584-7.002-0.902-10.5c-0.25-2.752-0.475-5.504-0.703-8.258c-0.125-1.496-0.291-2.99-0.387-4.488
		C18.147,26.544,18.077,26.226,18.313,25.946z"/>
	<path fill="#EE7F59" d="M56.683,69.618c4.445-0.459,7.811-2.578,9.811-6.613c2.324-4.689,1.135-10.244-2.85-13.779
		c-3.793-3.365-9.5-3.783-13.844-1.014c-0.197,0.127-0.393,0.26-0.736,0.49c0.15-1.545,0.283-2.939,0.426-4.334
		c0.303-2.938,0.627-5.871,0.898-8.811c0.057-0.6,0.207-0.809,0.852-0.805c5.318,0.027,10.637,0.021,15.955,0.006
		c0.51-0.002,0.719,0.102,0.832,0.66c1.6,7.816,2.359,15.711,2.17,23.686c-0.137,5.766-1.1,11.42-2.596,16.984
		c-0.014,0.047-0.061,0.086-0.092,0.129c-0.254,0.203-0.51,0.105-0.76,0.002c-3.537-1.484-6.799-3.424-9.711-5.932
		C56.841,70.118,56.616,69.938,56.683,69.618z"/>
	<path fill="#D05213" d="M18.313,25.946c0.207,2.148,0.42,4.299,0.615,6.449c0.131,1.436,0.225,2.875,0.35,4.311
		c0.203,2.338,0.426,4.676,0.623,7.014c0.129,1.518,0.223,3.037,0.344,4.555c0.314,3.916,0.658,7.826,2.047,11.553
		c0.055,0.146,0.139,0.279,0.207,0.42c0.289,0.412,0.303,0.957,0.645,1.344c1.32,3.111,3.051,5.973,5.193,8.586
		c0.473,0.576,1.129,1.014,1.363,1.773c0.016,0.314-0.189,0.543-0.312,0.807c-0.471,1.018-0.027,1.732,1.104,1.781
		c0.375,0.016,0.742-0.033,1.111-0.092c0.312-0.049,0.639-0.117,0.898,0.154c2.215,1.926,4.701,3.428,7.332,4.709
		c0.289,0.141,0.568,0.307,0.904,0.301c-0.486,0.266-1.016,0.307-1.555,0.307c-5.104,0-10.207,0.008-15.312-0.006
		c-2.434-0.006-4.205-1.686-4.451-4.096c-0.611-5.979-1.258-11.953-1.877-17.93c-0.512-4.938-0.998-9.877-1.508-14.812
		c-0.4-3.869-0.797-7.738-1.234-11.604C14.506,28.862,15.856,26.692,18.313,25.946z"/>
	<path fill="#EEC4A4" d="M65.065,57.993c-0.002,4.168-2.834,7.738-6.955,8.77c-3.92,0.98-8.148-0.961-10.064-4.605
		c-0.219-0.42-0.307-0.828-0.254-1.307c0.279-2.51,0.537-5.021,0.783-7.533c0.035-0.369,0.18-0.656,0.4-0.938
		c2.377-3.002,6.4-4.182,9.998-2.928C62.622,50.728,65.067,54.155,65.065,57.993z"/>
	<path fill="#F39981" d="M56.683,69.618c1.584,1.602,3.43,2.859,5.348,4.012c1.535,0.922,3.135,1.721,4.791,2.402
		c0.219,0.088,0.457,0.125,0.688,0.186c-0.289,2.422-1.709,3.697-4.125,3.697c-4.914,0.002-9.828-0.002-14.742,0.004
		c-0.598,0-1.174-0.059-1.729-0.299c-1.252-0.543-1.344-0.791-0.998-2.066c0.527-1.953,0.52-3.984,0.764-5.979
		c0.217-1.758,0.359-3.523,0.543-5.285c0.018-0.178,0.078-0.35,0.143-0.617C49.931,68.394,53.026,69.681,56.683,69.618z"/>
	<path fill="#495760" d="M58.929,32.19c-2.5,0-4.998-0.006-7.496,0.004c-0.477,0.002-0.688-0.014-0.615-0.652
		c0.281-2.564-0.521-4.777-2.484-6.486c-0.551-0.479-0.443-0.74,0.076-1.059c0.252-0.152,0.494-0.326,0.758-0.455
		c1.531-0.742,2.012-0.539,2.539,1.035c0.875,2.602,0.59,2.471,3.398,2.453c1.129-0.006,2.258-0.008,3.387,0.002
		c0.711,0.006,1.17-0.324,1.396-0.988c0.248-0.736,0.531-1.467,0.719-2.219c0.152-0.621,0.52-0.742,1.061-0.652
		c1.613,0.268,2.795,1.113,3.354,2.668c0.688,1.918,1.293,3.867,1.955,5.793c0.178,0.516-0.029,0.566-0.471,0.562
		C63.979,32.181,61.452,32.19,58.929,32.19z"/>
	<path fill="#29343D" d="M26.899,5.103c1.504,0,3.008-0.008,4.512,0.002c1.621,0.008,2.686,1.059,2.697,2.662
		c0.012,1.477-0.012,2.955,0.012,4.432c0.008,0.484-0.148,0.621-0.639,0.66c-1.275,0.105-2.115-0.055-2.697-1.535
		c-0.957-2.439-3.08-3.539-5.676-3.635c-1.5-0.055-2.582-0.75-3.383-1.979c-0.299-0.455-0.178-0.615,0.34-0.611
		C23.676,5.108,25.288,5.103,26.899,5.103z"/>
	<path fill="#6E7C83" d="M31.497,18.001c-1.502,0-3.004-0.02-4.504,0.01c-0.496,0.012-0.627-0.139-0.633-0.631
		c-0.021-1.959-0.041-1.959,1.951-1.959c2.572,0,5.146,0.016,7.719-0.012c0.527-0.004,0.674,0.148,0.676,0.674
		c0.004,1.918,0.023,1.918-1.912,1.918C33.694,18.001,32.596,18.001,31.497,18.001z"/>
	<path fill="#495760" d="M31.459,23.159c-0.643,0-1.287-0.023-1.93,0.008c-0.467,0.023-0.576-0.166-0.59-0.604
		c-0.059-1.982-0.072-1.982,1.939-1.982c0.857,0,1.715,0.018,2.57-0.008c0.453-0.012,0.662,0.078,0.674,0.605
		c0.047,1.982,0.068,1.98-1.941,1.98C31.942,23.159,31.7,23.159,31.459,23.159z"/>
	<path fill="#29343C" d="M58.013,23.159c-0.199,1.291-0.199,1.291-1.385,1.291c-0.562,0-1.123-0.002-1.684,0
		c-0.273,0-0.508-0.014-0.662-0.322c-0.404-0.805-0.312-0.967,0.609-0.969C55.929,23.159,56.966,23.159,58.013,23.159z"/>
	<path d="M32.502,74.601c-0.641,0.051-1.279,0.131-1.922,0.145c-1.438,0.031-1.996-0.902-1.318-2.164
		c0.125-0.234,0.236-0.479,0.354-0.717c-0.047-0.436,0.217-0.764,0.389-1.119c0.871-1.787,1.537-3.645,1.963-5.623
		c-0.285,0.023-0.457,0.205-0.662,0.309c-2.35,1.199-5.178,0.166-6.105-2.312c-0.271-0.721-0.553-1.17-1.389-1.07
		c-0.334,0.041-0.619-0.129-0.811-0.422c-0.383-0.381-0.543-0.844-0.5-1.379c0.715-1.957,1.541-3.887,1.309-6.057
		c-0.043-0.408-0.145-0.666-0.473-0.932c-3.271-2.65-2.697-7.488,1.117-9.281c2.521-1.186,5.17-1.793,7.969-1.305
		c2.164,0.379,3.838,1.574,5.168,3.295c3.414,4.43,4.639,9.469,4.189,14.973c-0.139,1.709-0.152,3.441-0.58,5.107
		c-1.088,4.242-3.746,7.016-7.945,8.295C33,74.419,32.711,74.397,32.502,74.601z"/>
	<path d="M31.5,38.638c-2.066,0-4.135,0.008-6.203,0c-2.328-0.01-4.078-1.668-4.084-3.857c-0.004-2.193,1.744-3.873,4.062-3.877
		c4.162-0.008,8.324-0.008,12.486,0c2.332,0.004,4.078,1.662,4.084,3.854c0.006,2.197-1.738,3.871-4.062,3.881
		C35.69,38.646,33.596,38.638,31.5,38.638z"/>
	<path fill="#D26839" d="M22.999,61.624c0.176,0.068,0.367,0.221,0.523,0.189c1.285-0.256,1.598,0.525,2.033,1.539
		c0.992,2.32,3.846,3.053,6,1.701c0.217-0.135,0.377-0.379,0.736-0.395c-0.547,2.551-1.348,4.973-2.676,7.203
		C26.758,68.872,24.522,65.479,22.999,61.624z"/>
	<path fill="#662814" d="M37.504,68.159c-0.607,1.113-1.449,1.996-2.586,2.582c-0.332-0.504-0.107-1.049-0.066-1.562
		c0.209-2.527,0.418-5.057,0.473-7.594c0.002-0.086,0.037-0.154,0.066-0.229c0.004-1.449-0.018-2.9,0.018-4.35
		c0.021-0.842-0.301-1.369-1.117-1.635c-0.455-0.146-0.875-0.404-1.309-0.611c-0.553-0.375-0.838-0.969-1.193-1.498
		c-1.191-1.779-2.707-3.094-4.883-3.514c-0.748-0.145-1.496-0.076-2.244-0.1c-0.393-0.014-0.756-0.053-0.854-0.529
		c-0.045-0.594,0.068-1.145,0.445-1.623c0.826-0.826,1.938-0.73,2.949-0.832c3.037-0.307,5.422,0.859,7.215,3.334
		c3.092,4.266,4.23,9.021,3.67,14.221c-0.08,0.746-0.072,1.496-0.16,2.244C37.856,67.06,37.766,67.624,37.504,68.159z"/>
	<path fill="#542210" d="M37.504,68.159c0.273-2.332,0.523-4.666,0.477-7.02c-0.084-4.109-1.385-7.797-3.824-11.104
		c-1.213-1.646-2.736-2.801-4.777-3.098c-1.738-0.252-3.463-0.055-5.125,0.561c0.115-0.453,0.449-0.748,0.824-0.939
		c2.16-1.107,4.414-1.74,6.877-1.332c1.711,0.281,2.891,1.316,3.855,2.654c2.855,3.959,3.869,8.379,3.348,13.211
		c-0.166,1.539-0.17,3.096-0.535,4.607C38.411,66.587,38.114,67.448,37.504,68.159z"/>
	<path fill="#EEC4A4" d="M25.581,59.233c0.564-1.434,1.021-2.828,0.707-4.479c1.807,0.771,3.449,1.473,5.092,2.172
		c1.443,0.617,1.359,0.625,1.469,2.225c0.09,1.291-0.268,2.205-1.432,2.812c-0.445,0.232-0.811,0.615-1.24,0.887
		c-1.123,0.701-2.412,0.033-2.51-1.283c-0.006-0.08-0.004-0.16-0.004-0.24C27.627,59.567,27.432,59.358,25.581,59.233z"/>
	<path fill="#542210" d="M23.809,49.122c0.572,0.615,1.311,0.277,1.969,0.305c1.662,0.066,3.148,0.574,4.402,1.658
		c1.186,1.027,2.023,2.332,2.803,3.678c-2.553-1.086-5.113-2.152-7.65-3.271C24.34,51.054,23.905,50.177,23.809,49.122z"/>
	<path fill="#532210" d="M35.391,61.358c0.082,3.141-0.035,6.27-0.473,9.385c-0.594,0.59-1.371,0.789-2.186,1.043
		c0.01-0.623,0.373-1.074,0.568-1.58c1.055-2.734,1.854-5.527,1.953-8.482C35.26,61.601,35.344,61.479,35.391,61.358z"/>
	<path fill="#29343D" d="M31.481,36.06c-2.043,0-4.084,0.004-6.127-0.002c-1.018-0.002-1.578-0.484-1.561-1.318
		c0.02-0.801,0.562-1.256,1.539-1.258c4.139-0.004,8.277-0.004,12.416,0c0.967,0.002,1.514,0.473,1.52,1.277
		c0.006,0.809-0.543,1.295-1.498,1.299C35.672,36.065,33.577,36.06,31.481,36.06z"/>
</g>
</svg>
