<?xml version="1.0" encoding="utf-8"?>
<!-- Generator: Adobe Illustrator 16.0.0, SVG Export Plug-In . SVG Version: 6.00 Build 0)  -->
<!DOCTYPE svg PUBLIC "-//W3C//DTD SVG 1.1//EN" "http://www.w3.org/Graphics/SVG/1.1/DTD/svg11.dtd">
<svg version="1.1" id="Layer_1" xmlns="http://www.w3.org/2000/svg" xmlns:xlink="http://www.w3.org/1999/xlink" x="0px" y="0px"
	 width="85px" height="85px" viewBox="0 0 85 85" enable-background="new 0 0 85 85" xml:space="preserve">
<g>
	<g>
		<path d="M79.152,62.76c-1.047-0.938-2.108-1.858-3.158-2.793c-1.535-1.368-2.416-1.462-4.194-0.435
			c-0.889-1.756-1.022-1.92-2.703-2.709c-0.415-0.195-0.244-0.43-0.206-0.688c0.359-2.437-1.084-4.447-3.515-4.848
			c-0.358-0.06-0.516-0.117-0.548-0.538c-0.146-1.931-1.393-3.368-3.264-3.768c-0.467-0.1-0.66-0.216-0.692-0.76
			c-0.084-1.404-0.754-2.521-1.971-3.266c-1.635-1.001-3.506-0.779-5.108,0.575c-0.188,0.158-0.318,0.537-0.695,0.275
			c-0.86-0.596-1.869-0.728-2.909-0.854c0.762-2.352,1.189-4.729,1.452-7.13c0.084-0.766,0.253-0.896,1.005-0.67
			c1.87,0.561,3.951-0.394,4.825-2.101c0.96-1.873,0.609-3.695-0.954-4.962c-0.716-0.58-1.382-0.596-1.852-0.044
			c-0.474,0.557-0.367,1.187,0.366,1.801c0.511,0.428,0.726,0.931,0.598,1.582c-0.165,0.84-0.951,1.509-1.819,1.547
			c-0.989,0.044-1.721-0.482-1.96-1.424c-0.31-1.22-0.026-2.364,0.446-3.488c0.939-2.231,2.331-4.223,3.365-6.407
			c1.805-3.812,1.821-7.552-0.24-11.275c-1.259-2.275-3.042-4.142-4.66-6.141C50.09,3.412,49.33,2.766,48.282,2.5
			c-0.364,0-0.729,0-1.094,0c-0.493,0.258-1.051,0.374-1.488,0.76c-1.317,1.162-2.127,2.589-2.442,4.323
			c-0.19,1.049-0.01,2.076,0.051,3.112c0.035,0.615-0.041,1.189-0.417,1.704c-0.201,0.275-0.347,0.314-0.579,0.019
			c-0.466-0.593-0.955-1.169-1.455-1.734c-0.196-0.222-0.147-0.338,0.021-0.566c0.737-1.001,0.696-1.868-0.092-2.836
			c-0.411-0.505-0.838-0.996-1.254-1.496c-1.188-1.422-2.254-1.516-3.663-0.332c-4.781,4.021-9.563,8.039-14.345,12.059
			c-3.965,3.333-7.93,6.666-11.893,10.001C8.27,28.66,8.186,29.76,9.344,31.131c0.42,0.498,0.835,0.999,1.26,1.491
			c0.822,0.954,1.634,1.149,2.762,0.601c0.304-0.147,0.457-0.11,0.651,0.129c0.458,0.567,0.915,1.137,1.407,1.672
			c0.332,0.361,0.174,0.494-0.181,0.652c-0.838,0.374-1.632,0.102-2.429-0.134c-2.336-0.692-4.526-0.426-6.527,1.01
			c-1.812,1.3-2.09,3.276-0.671,4.998c1.208,1.466,2.425,2.929,3.719,4.319c3.744,4.02,8.219,5.49,13.563,3.728
			c1.848-0.609,3.677-1.275,5.533-1.857c1.353-0.424,2.734-0.634,4.132-0.122c0.798,0.292,1.247,0.853,1.285,1.683
			c0.037,0.814-0.311,1.464-1.055,1.858c-0.97,0.514-1.656,0.293-2.344-0.747c-0.442-0.668-0.997-0.873-1.579-0.584
			c-0.56,0.278-0.792,0.916-0.555,1.529c0.61,1.581,2.396,2.596,4.091,2.325c2.468-0.395,3.997-2.356,3.702-4.815
			c-0.068-0.571,0.126-0.646,0.612-0.592c1.792,0.199,3.587,0.143,5.381-0.003c0.214-0.018,0.444-0.138,0.715,0.056
			c-0.678,0.759-1.014,1.687-1.385,2.594c-1.365,3.338-2.724,6.678-4.066,10.025c-0.181,0.451-0.436,0.79-0.824,1.088
			c-7.843,6.019-15.678,12.05-23.514,18.078c-1.133,0.871-1.149,1.56-0.057,2.389c9.479,0,18.958,0,28.437,0
			c0.749-0.526,1.327-1.232,1.962-1.877c0.455-0.463,0.51-1.002,0.17-1.567c-0.381-0.621-0.86-0.792-1.485-0.525
			c-0.316,0.135-0.587,0.347-0.8,0.606c-0.525,0.64-1.188,0.815-1.998,0.804c-2.152-0.032-4.304-0.029-6.458,0.001
			c-5.102,0.028-10.202,0.006-15.429,0.019c7.011-5.403,13.918-10.686,20.807-15.992c0.678-0.522,1.179-1.138,1.495-1.948
			c1.334-3.42,2.769-6.8,4.134-10.207c0.35-0.872,0.704-1.772,1.413-2.405c1.126-1.007,2.123-2.152,3.313-3.081
			c1.473-1.148,2.645-1.084,3.934,0.269c1.363,1.431,2.693,2.895,4.046,4.336c1.057,1.127,1.037,1.765-0.144,2.798
			c-0.667,0.584-1.283,0.59-1.947,0.003c-0.431-0.381-0.793-0.824-1.161-1.264c-1.278-1.521-3.107-1.979-4.686-1.18
			c-0.771,0.391-1.269,0.964-1.276,1.893c-0.012,1.274-0.301,2.476-1.066,3.529c-0.138,0.19-0.235,0.405-0.285,0.638
			c-0.144,0.66,0.092,1.211,0.653,1.532c0.563,0.322,1.049,0.157,1.5-0.234c0.237-0.207,0.426-0.455,0.604-0.714
			c0.483-0.701,0.494-0.706,0.998-0.027c1.894,2.551,3.744,5.133,5.638,7.683c0.969,1.386,1.993,2.731,2.976,4.108
			c0.31,0.435,0.25,0.722-0.16,1.047c-0.964,0.764-2.028,1.315-3.261,1.362c-1.767,0.067-3.52,0.297-5.287,0.362
			c-0.744,0.027-1.551-0.008-2.183,0.459c-0.773,0.57-1.457,1.264-2.033,2.036c-0.477,0.64-0.406,1.166,0.114,1.727
			c0.972,0.501,1.249,0.454,2.041-0.35c0.273-0.277,0.562-0.544,0.812-0.842c0.271-0.322,0.587-0.459,1.009-0.482
			c1.741-0.098,3.485-0.173,5.217-0.367c0.808-0.091,1.115,0.091,1.487,0.869c0.746,1.562,1.738,3.009,2.662,4.482
			c1.053,1.682,2.792,1.973,4.313,0.698c5.367-4.492,10.724-8.997,16.071-13.513C80.673,65.873,80.668,64.119,79.152,62.76z
			 M20.864,47.728c-3.479,0.808-6.394-0.224-8.944-2.575c-1.688-1.557-3.066-3.392-4.542-5.137c-0.527-0.623-0.415-1.08,0.267-1.56
			c1.369-0.964,2.854-1.147,4.444-0.682c1.31,0.383,2.624,0.655,3.955,0.078c0.047-0.021,0.099-0.029,0.149-0.043
			c0.395-0.112,0.704-0.655,1.072-0.494c0.365,0.16,0.603,0.622,0.879,0.966c2.358,2.927,5.117,5.372,8.486,7.089
			c0.128,0.065,0.311,0.091,0.371,0.362C24.948,46.39,22.97,47.239,20.864,47.728z M47.83,19.331
			c-0.967-1.516-2.099-2.906-3.288-4.247c-0.374-0.42-0.379-0.667,0.01-1.083c1.172-1.256,1.206-2.804,1.008-4.393
			c-0.212-1.703,0.235-3.182,1.48-4.397c0.438-0.428,0.952-0.571,1.364-0.087c1.913,2.251,4.021,4.361,5.33,7.069
			c1.296,2.681,1.216,5.361,0.013,8.045c-0.836,1.867-1.932,3.591-2.987,5.582C50.017,23.382,49.076,21.287,47.83,19.331z"/>
	</g>
	<path fill-rule="evenodd" clip-rule="evenodd" fill="#F3C18B" d="M43.539,79.056c-0.774-0.636-1.327-0.686-1.933,0.08
		c-0.714,0.899-1.564,1.083-2.638,1.045c-2.101-0.075-4.206-0.037-6.31-0.046c-0.062-0.376,0.226-0.565,0.441-0.773
		c3.048-2.949,5.927-6.065,8.88-9.106c1.042-1.071,2.161-1.501,3.554-1.542c1.609-0.047,3.216-0.167,4.818-0.326
		c1.74-0.172,3.136-1.031,4.368-2.214c0.242-0.232,0.427-0.529,0.744-0.679c1.098,1.481,2.186,2.972,3.299,4.441
		c0.265,0.35,0.129,0.467-0.149,0.729c-1.771,1.667-4.001,1.691-6.211,1.825c-1.325,0.081-2.647,0.205-3.972,0.281
		c-0.503,0.028-0.895,0.214-1.231,0.575c-0.444,0.476-0.891,0.951-1.365,1.396c-0.616,0.576-0.756,1.208-0.329,1.947
		c-0.493,0.529-0.986,1.059-1.481,1.587C43.811,78.503,43.602,78.733,43.539,79.056z"/>
	<path fill-rule="evenodd" clip-rule="evenodd" fill="#FDD8A7" d="M55.465,65.494c-0.976,1.541-2.428,2.437-4.134,2.915
		c-0.763,0.213-1.576,0.27-2.372,0.331c-1.7,0.131-3.404,0.223-5.107,0.318c-0.254,0.015-0.444,0.106-0.615,0.281
		c-3.525,3.6-7.052,7.197-10.578,10.795c-5.181,0.008-10.361,0.016-15.542,0.021c-0.042,0-0.083-0.039-0.199-0.096
		c1.875-1.443,3.717-2.864,5.561-4.282c5.281-4.06,10.56-8.122,15.849-12.171c0.471-0.361,0.8-0.782,1.021-1.333
		c1.454-3.612,2.94-7.212,4.385-10.827c0.415-1.039,1.012-1.917,1.84-2.663c0.891-0.801,1.738-1.648,2.623-2.456
		c1.502-1.372,3.056-1.316,4.441,0.157c1.427,1.517,2.844,3.044,4.26,4.571c0.913,0.985,0.857,1.664-0.2,2.656
		c-1.007,0.943-1.689,0.939-2.602-0.018c-0.557-0.584-1.076-1.209-1.675-1.745c-1.235-1.108-3.005-1.132-4.304-0.133
		c-0.424,0.325-0.66,0.705-0.632,1.258c0.068,1.369-0.304,2.611-1.081,3.748c-0.521,0.761-0.43,1.453,0.177,1.845
		c0.611,0.395,1.229,0.199,1.765-0.581c0.264-0.385,0.495-0.791,0.811-1.299C51.28,59.719,53.373,62.606,55.465,65.494z"/>
	<path fill-rule="evenodd" clip-rule="evenodd" fill="#FDD030" d="M20.142,26.1c0.824,0.536,1.177,0.521,1.939-0.118
		c3.876-3.254,7.749-6.512,11.625-9.767c0.197-0.165,0.41-0.312,0.615-0.467c0.323-0.097,0.475,0.142,0.636,0.338
		c2.01,2.449,4.121,4.813,6.093,7.293c0.211,0.265,0.403,0.543,0.573,0.835c0.126,0.217,0.315,0.442,0.062,0.7
		c-0.808,0.031-1.478,0.386-2.145,0.819c-0.829,0.538-1.682,1.042-2.522,1.565c-0.443,0.275-0.847,0.296-1.323,0.085
		c-1.143-0.505-2.285-1.013-3.438-1.496c-0.503-0.211-1.007-0.33-1.478,0.037c-0.481,0.375-0.45,0.908-0.357,1.434
		c0.212,1.207,0.541,2.388,0.851,3.571c0.152,0.582,0.076,1.034-0.337,1.501c-0.742,0.837-1.493,1.667-2.227,2.511
		c-0.103,0.118-0.213,0.228-0.308,0.354c-0.746,0.991-0.325,2.04,0.918,2.114c0.96,0.057,1.914,0.211,2.878,0.2
		c1.091-0.013,1.944,0.312,2.463,1.403c0.434,0.912,0.972,1.783,1.532,2.631c0.314,0.477,0.684,0.851,1.33,0.785
		c0.628-0.064,0.852-0.534,1.062-1.02c0.446-1.027,0.898-2.053,1.269-3.109c0.249-0.709,0.664-1.101,1.431-1.24
		c1.125-0.206,2.244-0.462,3.362-0.712c0.324-0.072,0.662-0.189,0.983,0.03c0.194,0.206,0.211,0.466,0.223,0.725
		c0.117,2.599-0.095,5.167-0.723,7.697c-0.075,0.305-0.164,0.601-0.443,0.791c-4.611,0.759-9.163,0.667-13.633-0.861
		c-3.977-1.359-7.376-3.572-10.115-6.768c-1.676-1.956-3.306-3.953-4.994-5.898c-0.4-0.462-0.339-0.701,0.116-1.024
		c0.444-0.315,0.827-0.715,1.261-1.046c0.65-0.497,0.838-1.092,0.473-1.839c-0.022-0.048-0.051-0.114-0.024-0.145
		C18.433,27.215,19.158,26.496,20.142,26.1z"/>
	<path fill-rule="evenodd" clip-rule="evenodd" fill="#F6BB14" d="M44.687,45.592c0.805-2.863,1.059-5.785,0.94-8.747
		c-0.008-0.188-0.027-0.363-0.206-0.473c-0.016-0.167,0.082-0.288,0.164-0.417c0.473-0.741,0.432-1.233-0.162-1.842
		c-0.144-0.147-0.305-0.275-0.36-0.486c-0.456-2.637-1.397-5.101-2.656-7.452c-0.047-0.537-0.587-0.821-0.685-1.332
		c-0.48-1.171-1.388-2.041-2.162-2.997c-1.558-1.926-3.178-3.803-4.778-5.695c-0.131-0.154-0.307-0.27-0.462-0.404
		c1.403-1.196,2.81-2.389,4.206-3.593c0.217-0.188,0.354-0.227,0.554,0.027c2.384,3.015,5.203,5.693,7.166,9.031
		c3.129,5.321,3.87,11.057,2.757,17.076c-0.325,1.765-0.892,3.467-1.401,5.183C47.347,44.33,45.653,45.535,44.687,45.592z"/>
	<path fill-rule="evenodd" clip-rule="evenodd" fill="#FEB025" d="M73.441,68.874c-3.936,3.323-7.872,6.644-11.802,9.973
		c-0.418,0.354-0.697,0.336-0.987-0.15c-0.772-1.294-1.565-2.576-2.364-3.854c-0.229-0.366-0.233-0.642,0.126-0.941
		c3.557-2.961,7.105-5.934,10.656-8.902c0.301-0.202,0.483,0.035,0.677,0.192c1.17,0.953,2.245,2.014,3.409,2.974
		C73.361,68.333,73.643,68.52,73.441,68.874z"/>
	<path fill-rule="evenodd" clip-rule="evenodd" fill="#FEB025" d="M20.142,26.1c-0.762,0.707-1.658,1.262-2.347,2.054
		c-0.83-0.599-1.205-0.591-1.999,0.069c-1.019,0.848-2.042,1.691-3.036,2.567c-0.315,0.277-0.464,0.227-0.725-0.066
		c-1.116-1.251-1.122-1.236,0.166-2.319c6.763-5.685,13.522-11.373,20.285-17.057c0.197-0.166,0.413-0.31,0.62-0.464
		c0.518,0.476,1.009,0.972,1.301,1.628c-2.518,2.139-5.032,4.281-7.554,6.414c-2.087,1.765-4.187,3.516-6.273,5.281
		C19.792,24.873,19.737,25.167,20.142,26.1z"/>
	<path fill-rule="evenodd" clip-rule="evenodd" fill="#FE8F1D" d="M73.441,68.874c-0.238-0.752-1.004-0.989-1.493-1.498
		c-0.777-0.81-1.675-1.504-2.529-2.238c-0.091-0.077-0.231-0.095-0.349-0.14c1.384-1.181,2.771-2.357,4.148-3.545
		c0.336-0.289,0.619-0.297,0.954,0.006c1.142,1.027,2.291,2.046,3.449,3.054c0.35,0.305,0.412,0.557,0.021,0.878
		C76.236,66.545,74.841,67.712,73.441,68.874z"/>
	<path fill-rule="evenodd" clip-rule="evenodd" fill="#F6BB14" d="M62.001,67.751c-1.085,1.194-1.086,1.195-1.996-0.049
		c-3.266-4.467-6.533-8.933-9.789-13.407c-0.162-0.223-0.589-0.491-0.282-0.771c0.289-0.266,0.728-0.074,0.977,0.206
		c0.876,0.985,1.926,1.811,2.649,2.938c0.683,1.063,1.673,1.685,2.922,1.872c0.334,0.051,0.533,0.093,0.565,0.535
		c0.125,1.74,1.041,2.942,2.652,3.607c0.271,0.111,0.523,0.166,0.432,0.578C59.704,65.186,60.45,66.642,62.001,67.751z"/>
	<path fill-rule="evenodd" clip-rule="evenodd" fill="#F3C18B" d="M66.556,55.156c0.205,0.728-0.153,1.266-0.638,1.722
		c-1.172,1.104-2.353,2.2-3.557,3.27c-0.891,0.79-2.046,0.581-2.705-0.442c0.165-0.497,0.58-0.799,0.944-1.114
		c1.158-0.999,2.157-2.177,3.402-3.074C64.771,54.962,65.628,54.733,66.556,55.156z"/>
	<path fill-rule="evenodd" clip-rule="evenodd" fill="#F3C18B" d="M69.537,60.625c0.104,0.605-0.154,1.032-0.615,1.41
		c-1.388,1.139-2.754,2.304-4.13,3.455c-0.819,0.686-1.431,0.584-2.107-0.341c0.454-0.91,1.28-1.49,1.986-2.165
		c0.581-0.555,1.196-1.077,1.769-1.645c0.592-0.587,1.297-0.952,2.132-1.038C68.935,60.265,69.311,60.232,69.537,60.625z"/>
	<path fill-rule="evenodd" clip-rule="evenodd" fill="#FDD8A7" d="M69.537,60.625c-1.184-0.412-2.12,0.074-2.954,0.848
		c-1.31,1.214-2.6,2.45-3.898,3.677c-0.517-0.809-0.512-1.567,0.189-2.256c1.262-1.24,2.574-2.429,3.898-3.603
		c0.509-0.45,1.164-0.478,1.765-0.188C69.147,59.398,69.594,59.862,69.537,60.625z"/>
	<path fill-rule="evenodd" clip-rule="evenodd" fill="#FE8F1D" d="M34.407,12.513c-0.521-0.473-1.03-0.956-1.301-1.628
		c1.379-1.179,2.762-2.354,4.135-3.539c0.216-0.187,0.373-0.234,0.57,0.021c0.287,0.369,0.587,0.728,0.904,1.071
		c0.21,0.227,0.184,0.372-0.05,0.562C37.241,10.165,35.825,11.341,34.407,12.513z"/>
	<path fill-rule="evenodd" clip-rule="evenodd" fill="#FDD8A7" d="M66.556,55.156c-1.511-0.232-2.605,0.476-3.619,1.499
		c-1.05,1.06-2.184,2.037-3.28,3.05c-0.456-0.791-0.416-1.57,0.218-2.185c1.23-1.191,2.465-2.383,3.762-3.498
		C64.758,53.058,66.33,53.704,66.556,55.156z"/>
	<path fill-rule="evenodd" clip-rule="evenodd" fill="#F2C18B" d="M61.718,49.572c0.796,0.623,1.02,1.44,0.614,2.25
		c-0.25,0.5-2.616,2.699-3.396,3.065c0.854-1.255,1.127-2.475,0.767-3.791c0.541-0.178,0.877-0.617,1.265-0.989
		C61.192,49.893,61.42,49.684,61.718,49.572z"/>
	<path fill-rule="evenodd" clip-rule="evenodd" fill="#FBD6A6" d="M56.098,46.718c-0.133-0.122-0.273-0.234-0.396-0.365
		c-0.758-0.81-0.69-1.097,0.354-1.535c1.017-0.427,2.056,0.116,2.398,1.256c0.053,0.206-0.093,0.311-0.239,0.315
		C57.494,46.413,56.822,46.734,56.098,46.718z"/>
	<path fill-rule="evenodd" clip-rule="evenodd" fill="#F0BF8A" d="M56.098,46.718c0.564-0.304,1.147-0.527,1.808-0.471
		c0.2,0.017,0.411,0.024,0.549-0.174c0.196,0.803-0.117,1.614-0.727,2.045c-0.271,0.191-0.369,0.013-0.5-0.131
		C56.847,47.568,56.474,47.142,56.098,46.718z"/>
	<path fill-rule="evenodd" clip-rule="evenodd" fill="#FBD6A6" d="M61.718,49.572c-0.49,0.502-0.984,1-1.47,1.507
		c-0.185,0.192-0.359,0.127-0.545,0.018c-0.026-0.044-0.075-0.086-0.076-0.131c-0.017-0.406-0.702-0.686-0.316-1.121
		c0.48-0.542,1.13-0.777,1.876-0.554C61.382,49.35,61.582,49.4,61.718,49.572z"/>
	<path fill-rule="evenodd" clip-rule="evenodd" fill="#BA946B" d="M58.306,55.672c-0.07,0.229-0.229,0.326-0.658,0.368
		C57.902,55.763,57.965,55.537,58.306,55.672z"/>
	<path fill-rule="evenodd" clip-rule="evenodd" d="M41.722,24.844c0.442,0.307,0.758,0.695,0.805,1.255
		c0.283,0.688,0.027,1.383-0.006,2.069c-0.03,0.616-0.055,1.247-0.173,1.848c-0.13,0.661,0.116,1.048,0.574,1.469
		c0.756,0.694,1.71,1.18,2.247,2.107c0.202,0.194,0.418,0.376,0.603,0.585c0.603,0.68,0.477,1.442-0.351,2.195
		c-1.471,0.325-2.938,0.669-4.416,0.962c-0.445,0.088-0.663,0.304-0.818,0.704c-0.47,1.209-0.974,2.406-1.456,3.61
		c-0.24,0.6-0.618,1.029-1.303,1.064c-0.646,0.033-1.059-0.319-1.368-0.858c-0.66-1.149-1.349-2.281-2.002-3.434
		c-0.186-0.327-0.398-0.484-0.786-0.506c-1.272-0.07-2.542-0.187-3.814-0.272c-0.683-0.046-1.312-0.195-1.591-0.905
		c-0.273-0.699,0.046-1.245,0.518-1.756c0.847-0.918,1.658-1.869,2.504-2.787c0.27-0.293,0.372-0.542,0.254-0.962
		c-0.345-1.224-0.619-2.468-0.921-3.704c-0.154-0.629-0.22-1.249,0.332-1.733c0.574-0.505,1.188-0.377,1.82-0.092
		c1.16,0.522,2.338,1.004,3.491,1.541c0.377,0.175,0.655,0.145,0.996-0.075c1.07-0.69,2.168-1.336,3.239-2.023
		C40.61,24.819,41.129,24.67,41.722,24.844z"/>
	<path fill-rule="evenodd" clip-rule="evenodd" fill="#FCD030" d="M45.169,33.592c-0.94-0.778-1.87-1.57-2.829-2.326
		c-0.304-0.24-0.297-0.5-0.263-0.822c0.156-1.448,0.301-2.897,0.449-4.346C43.863,28.436,44.875,30.887,45.169,33.592z"/>
	<path fill-rule="evenodd" clip-rule="evenodd" fill="#FEFEFE" d="M42.685,34.599c-1.078,0.23-1.963,0.444-2.857,0.604
		c-0.803,0.143-1.28,0.585-1.55,1.347c-0.301,0.845-0.672,1.666-1.071,2.641c-0.534-0.913-1.022-1.697-1.458-2.509
		c-0.385-0.715-0.937-1.051-1.755-1.067c-0.899-0.018-1.796-0.124-2.852-0.203c0.651-0.733,1.179-1.398,1.781-1.986
		c0.69-0.675,0.89-1.397,0.587-2.328c-0.261-0.803-0.402-1.645-0.629-2.609c0.991,0.434,1.846,0.791,2.686,1.181
		c0.672,0.312,1.282,0.284,1.911-0.136c0.794-0.529,1.623-1.009,2.522-1.562c-0.107,1.022-0.179,1.928-0.303,2.827
		c-0.115,0.828,0.129,1.456,0.806,1.969C41.218,33.31,41.884,33.921,42.685,34.599z"/>
</g>
</svg>
