<?xml version="1.0" encoding="utf-8"?>
<!-- Generator: Adobe Illustrator 16.0.0, SVG Export Plug-In . SVG Version: 6.00 Build 0)  -->
<!DOCTYPE svg PUBLIC "-//W3C//DTD SVG 1.1//EN" "http://www.w3.org/Graphics/SVG/1.1/DTD/svg11.dtd">
<svg version="1.1" id="Layer_1" xmlns="http://www.w3.org/2000/svg" xmlns:xlink="http://www.w3.org/1999/xlink" x="0px" y="0px"
	 width="85px" height="85px" viewBox="0 0 85 85" enable-background="new 0 0 85 85" xml:space="preserve">
<g>
	<path opacity="0.5" fill="#FFFFFF" enable-background="new    " d="M13.422,14.727l13.729,3.139l26.676,0.787l16.383-2.65
		l4.363-4.457l0.609,2.83L46.916,42.646l-1.68,3.131l-0.072,18.033c0,0,0.609,4.279,2.369,5.119s8.025,1.607,10.547,3.518
		c2.52,1.91,1.377,3.748,1.377,3.748l-4.508,3.359l-12.758,1.988l-14.059-1.451c0,0-5.257-3.242-5.257-4.391
		c0,0-0.21-2.211,2.507-3.785c2.396-1.393,8.512-1.674,9.936-2.75c2.83-2.141,2.98-4.43,2.98-4.43l0.229-18.947l-3.896-4.508
		c0,0-18.186-16.887-20.705-19.637c-2.521-2.75-3.668-4.279-4.738-5.887c-2.619-3.924-0.223-6.549-0.223-6.549L13.422,14.727z"/>
	<path opacity="0.7" fill="#E0E0E0" enable-background="new    " d="M11.465,8.723l11.768-2.986L43.25,5.127l20.633,2.447
		l10.697,3.971l0.609,2.83L46.918,42.646l-1.682,3.131l-0.07,18.033c0,0,0.609,4.279,2.367,5.119
		c1.76,0.84,8.027,1.607,10.547,3.518c2.521,1.91,1.379,3.748,1.379,3.748l-4.51,3.359l-12.758,1.988l-14.057-1.451
		c0,0-5.258-3.242-5.258-4.391c0,0-0.21-2.211,2.508-3.785c2.395-1.393,8.512-1.674,9.936-2.75c2.828-2.141,2.98-4.43,2.98-4.43
		l0.229-18.947l-3.898-4.508c0,0-18.185-16.887-20.705-19.637c-2.52-2.75-3.668-4.279-4.738-5.887
		c-2.618-3.924-0.223-6.549-0.223-6.549L11.465,8.723z"/>
	<path fill="#FEF9E5" d="M16.27,18.213c0,0,7.73-3.977,25.797-3.742c18.068,0.236,25.162,5.238,25.162,5.238l-10.199,7.055
		l-27.411-1.279L16.27,18.213z"/>
	<path fill="#E5DDA0" d="M42.525,22.635c-16.787-0.398-26.532-4.396-26.532-4.396l19.983,19.74c0,0,2.369,2.98,5.408,2.98
		c3.037,0,4.18-1.301,5.223-2.1c1.037-0.803,20.646-19.145,20.646-19.145S56.754,22.971,42.525,22.635z"/>
	<path fill="#9E9E9E" d="M73.783,14.635l-1.043,1.457c0,0-22.754,22.064-27.104,26.16c-1.785,1.68-2.396,2.953-2.324,4.941
		c0.066,1.824-1.174,11.092-1.174,11.092l1.221,10.23c0,0,0.584,1.666,1.922,2.67c1.34,1.004,4.596,1.418,4.596,1.418
		s-2.586-1.521-3.506-3.904s-0.795-3.359-0.795-4.777V46.518c0-1.168,1.42-2.711,2.424-3.676
		c1.004-0.957,24.537-24.078,25.455-25.082c1.779-1.941,2.338-3.229,2.416-4.232c0.086-1.006-0.217-2.363-0.598-1.693
		C74.9,12.51,73.783,14.635,73.783,14.635z"/>
	<path fill="#9E9E9E" d="M32.926,72.105c0,0,2.959-1.59,3.752-3.846c0.795-2.258,1.043-3.709,1.084-6.676
		c0.039-2.965,0-14.273,0-15.605c0-1.607-1.996-3.215-2.896-4.449c-0.156-0.217,1.189,0.223,2.508,1.023
		c1.607,0.979,3.209,1.896,3.059,4.273c-0.15,2.309,0.145,7.994,0.145,7.994l-0.104,10.275c0,0,0.045,4.143-2.508,5.564
		C35.766,71.881,32.926,72.105,32.926,72.105L32.926,72.105z"/>
	<path fill="#9E9E9E" d="M22.864,75.418c-0.079,0.217-0.125,2.363,1.502,3.406c1.168,0.748,4.791,3.637,16.819,3.676
		c13.939,0.039,17.805-4.273,18.277-5.467c0.545-1.379,0.229-2.736,0.111-2.703c-0.086,0.025-0.359,0.74-0.734,1.152
		c-0.373,0.422-3.045,3.592-10.311,4.426c-7.266,0.832-14.732,0.42-19.53-1.004C24.203,77.479,22.903,75.314,22.864,75.418
		L22.864,75.418z"/>
	<path fill="#FFFFFF" d="M24.741,74.316c-0.36,0.592-0.151,1.568,1.293,2.461c2.087,1.293,6.806,2.377,9.392,2.252
		s2.631-1.791,0.295-2.174c-2.336-0.373-5.592-0.668-8.434-2.211C26.533,74.244,25.325,73.359,24.741,74.316z"/>
	<path fill="#FFFFFF" d="M39.186,74.029c0.092,1.174,1.877,0.918,2.756,0.918c0.881,0,2.049-0.086,2.002-1.043
		c-0.039-0.959-1.627-0.873-2.297-0.834C40.854,73.109,39.1,72.938,39.186,74.029L39.186,74.029z"/>
	<path fill="#FFFFFF" d="M41.811,45.316c-1.365,0.02-1.936,0.584-1.949,5.086c-0.012,3.754-0.176,17.449-0.387,18.205
		s-0.795,2.252-0.67,2.967c0.125,0.709,0.959,1.004,2.672,1.004s2.586-0.795,2.631-1.791c0.039-1.004-0.334-1.418-0.459-2.213
		c-0.125-0.793-0.104-14.246-0.104-17.961C43.543,47.705,43.576,45.283,41.811,45.316L41.811,45.316z"/>
	<path fill="#FFFFFF" d="M15.166,17.549c-0.826,0.828,7.975,9.326,11.354,12.705C29.9,33.635,37.9,40.846,38.635,40.059
		s-8.236-9.004-11.269-12.002C22.688,23.436,16.014,16.703,15.166,17.549z"/>
	<path fill="#BFBFBF" d="M8.321,10.848C8.223,9.287,9.588,3.34,42.723,3.734c32.643,0.387,33.135,7.797,33.035,9.162
		s-2.92-0.584-2.92-0.584s-6.465-5.828-30.432-5.92c-23.973-0.098-30.372,2.705-30.568,4.168c-0.195,1.463-0.387,2.631-0.387,2.631
		L8.321,10.848z"/>
	<path fill="#F8C977" d="M50.297,22.477c6.396-5.117,19.701-15.729,20.744-16.551c1.438-1.129,5.604-3.754,5.965-3.393
		s-2.467,3.959-4.318,5.709c-1.135,1.07-10.314,8.609-16.615,13.717C52.082,25.195,47.867,24.42,50.297,22.477z"/>
	<path fill="#E3C08F" d="M45.9,26.186l4.396-3.715c0,0,1.449-0.059,2.82-0.17c1.182-0.098,2.939-0.328,2.939-0.328l-8.15,6.779
		L45.9,26.186z"/>
	<path fill="#919F50" d="M49.141,25.826c-1.961-2.391-6.332-2.16-8.943,0.203c-2.725,2.467-3.189,6.115-1.084,8.531
		c2.107,2.414,5.5,2.67,8.689-0.158C50.99,31.58,50.578,27.57,49.141,25.826z"/>
	<path fill="#E8DE9F" d="M40.145,29.473c0.721,0.873,1.744,0.514,2.572-0.156c0.807-0.656,1.311-1.635,0.721-2.363
		c-0.668-0.82-1.744-0.414-2.467,0.158C40.248,27.682,39.533,28.74,40.145,29.473L40.145,29.473z"/>
	<path fill="#EF3E24" d="M38.936,31.416c-0.918,0.584-0.072,2.16,0.441,2.822c0.365,0.473,1.43,1.688,2.27,0.99
		c0.84-0.695,0-2.014-0.584-2.893C40.693,31.791,39.881,30.812,38.936,31.416L38.936,31.416z"/>
	<path fill="#BFBFBF" d="M42.002,20.213c13.734,0.225,28.553-0.912,32.379-4.711c3.381-3.355-0.289-5.867-0.289-5.867l-1.26,2.664
		l-1.969,2.271l-5.775,1.727l-5.906,0.859l-12.141,0.662l-12.738-0.334l-9.687-1.518l-7.501-1.529l-5.04-2.65l-1.261-2.322
		c0,0-2.447,0.637-2.486,1.182c-0.064,0.879,0.381,1.799,1.023,2.6C10.579,14.773,17.247,19.82,42.002,20.213z"/>
	<path fill="#FEFEFE" d="M47.33,18.146c-1.568,0-3.229-0.02-4.98-0.059c-21.926-0.479-28.941-3.596-30.977-6.129
		c-0.801-0.998-0.695-1.766-0.669-1.91c0.071-0.354,0.42-0.584,0.774-0.512c0.348,0.064,0.57,0.393,0.518,0.742
		c0,0.039,0.007,0.432,0.525,1.01c1.666,1.844,7.764,5.008,29.846,5.486c22.832,0.498,28.324-2.539,29.625-3.871
		c0.473-0.48,0.459-0.803,0.459-0.803c-0.072-0.354,0.164-0.682,0.52-0.748c0.354-0.07,0.701,0.186,0.773,0.539
		c0.025,0.131,0.117,0.832-0.609,1.707C71.361,15.725,65.357,18.146,47.33,18.146z"/>
</g>
</svg>
