<?xml version="1.0" encoding="utf-8"?>
<!-- Generator: Adobe Illustrator 16.0.0, SVG Export Plug-In . SVG Version: 6.00 Build 0)  -->
<!DOCTYPE svg PUBLIC "-//W3C//DTD SVG 1.1//EN" "http://www.w3.org/Graphics/SVG/1.1/DTD/svg11.dtd">
<svg version="1.1" id="Layer_1" xmlns="http://www.w3.org/2000/svg" xmlns:xlink="http://www.w3.org/1999/xlink" x="0px" y="0px"
	 width="85px" height="85px" viewBox="0 0 85 85" enable-background="new 0 0 85 85" xml:space="preserve">
<g>
	<path fill="#2B3990" d="M2.5,2.5h80v80h-80V2.5z"/>
	<circle fill="#1C75BC" cx="42.5" cy="42.5" r="26.6"/>
	<g>
		<path fill="#553729" d="M63.584,52.145c0.316-1.202,1.189-2.239,2.369-1.541c1.035,0.613,1.344,1.986,0.73,2.479
			c-0.615,0.493-2.008,0.596-2.008,0.596S63.736,53.179,63.584,52.145z"/>
		<path fill="#FCB549" d="M63.584,52.145l-0.383,0.174c0,0,0.182,1.577,1.285,1.813l0.189-0.453
			C64.676,53.68,63.814,53.099,63.584,52.145L63.584,52.145z M71.064,72.688c0,2.272-1.844,4.115-4.115,4.115
			c-2.273,0-4.115-1.843-4.115-4.115s1.842-4.116,4.115-4.116C69.221,68.572,71.064,70.416,71.064,72.688z"/>
		<path fill="#DB8546" d="M48.389,56.513c0.605,1.377,0.578,3.749,0.682,6.698s0.148,4.766,0.111,5.082
			c-0.248,2.101-0.482,5.027-0.6,7.077c-0.113,2.048,0.197,2.324,1.201,2.487c1.004,0.162,4.131,0.482,4.301,0.203
			s-0.338-0.678-1.438-1.068c-1.1-0.392-2.205-0.613-2.188-0.979c0.02-0.366,0.936-6.202,1.025-7.224s0.814-7.027,1.459-9.907
			C53.586,56.005,48.389,56.513,48.389,56.513L48.389,56.513z"/>
		<path fill="#FCB549" d="M50.461,76.014c0.018-0.366,0.936-6.202,1.025-7.224c0.039-0.457,0.186-1.741,0.416-3.474
			c-0.422,0.018-1.809,0.059-2.773-0.328c0,0,0.01,0.306,0,0c0.064,2.006,0.082,3.051,0.053,3.305
			c-0.248,2.101-0.482,5.027-0.6,7.077c-0.061,1.127,0.01,1.708,0.25,2.037C48.854,77.35,49.152,76.56,50.461,76.014L50.461,76.014z
			"/>
		<path fill="#DB8546" d="M59.625,54.388l-2.385-0.543c0,0-1.781,0.182-1.963,0c-0.182-0.181-1.146-1.727-2.16-2.402
			c-1.016-0.677-1.07-2.945-0.877-4.251c0.191-1.305,1.158-1.982,1.158-1.982s2.727,1.597,5.576-0.818c0,0,1.244-3.235,0.289-5.458
			c0,0-0.4-0.098-0.547-0.017c-1.051,0.586-3.76,1.555-6.953-0.61c0,0-4.334,3.042-5.443,5.94c-1.111,2.896-1.463,6.087-0.158,9.562
			c1.303,3.477,4.299,5.507,4.299,5.507l4.781,0.757c0,0,0.434-2.229,0.387-2.894c0,0,1.326-0.421,1.943,0.446L59.625,54.388
			L59.625,54.388z"/>
		<path fill="#DB8546" d="M50.461,59.314c0.725,1.305,0.941,2.462,1.303,5.36c0.363,2.897,0.568,4.685,0.561,4.999
			c-0.062,2.028-0.039,4.999,0.027,7.027c0.064,2.028,0.568,2.267,1.582,2.34c1.016,0.071,3.988,0.124,4.135-0.166
			c0.145-0.29-0.312-0.535-1.443-0.825c-1.129-0.29-2.295-0.696-2.309-1.06c-0.016-0.361,0.348-6.013,0.348-7.026
			c0-1.015,0.193-6.999,0.578-9.894C55.629,57.179,50.461,59.314,50.461,59.314L50.461,59.314z"/>
		<path fill="#DB8546" d="M50.461,59.314c0.725,1.305,0.941,2.462,1.303,5.36c0.363,2.897,0.568,4.685,0.561,4.999
			c-0.062,2.028-0.039,4.999,0.027,7.027c0.064,2.028,0.568,2.267,1.582,2.34c1.016,0.071,3.988,0.124,4.135-0.166
			c0.145-0.29-0.312-0.535-1.443-0.825c-1.129-0.29-2.295-0.696-2.309-1.06c-0.016-0.361,0.348-6.013,0.348-7.026
			c0-1.015,0.193-6.999,0.578-9.894C55.629,57.179,50.461,59.314,50.461,59.314L50.461,59.314z"/>
		<path fill="#DB8546" d="M58.977,44.213c1.191,1.401,7.494,5.729,9.234,6.474c0,0,0.506,0.259,0.361,1.028
			c-0.146,0.77-0.918,2.312,0.191,6.938c0.689,2.872,2.533,6.576,1.334,8.944c-0.254,0.5-0.506,0.682-0.605,1.23
			c-0.164,0.896,0.357,0.956,0.844,1.945c0.645,1.308-0.033,4.052,0.873,3.998c0.422-0.024,1.061-4.776,0.986-8.281
			c-0.072-3.505-0.037-12.038,0.01-14.107c0.072-3.104,0.053-3.822-1.604-5.084c-2.223-1.692-5.643-6.377-9.547-8.153
			c-0.471-0.214-1.789-0.213-1.789-0.213L58.977,44.213L58.977,44.213z"/>
		<path fill="#DB8546" d="M51.764,38.305c0.219-2.826,0.82-9.417,0.785-11.449c-0.049-2.843-0.072-6.791,2.797-6.146
			c2.057,0.461,11.271,3.22,12.938,3.872c1.666,0.651,7.027,1.158,8.043,1.23c1.014,0.073,0.869,1.087-1.088,1.45
			c-1.955,0.363-3.043,0.797-3.479,1.304s-1.811,0.29-2.246-0.29c-0.434-0.58-0.65-1.448-2.68-1.521
			c-2.029-0.073-7.674-0.26-10.252-1.782c0,0,2.059,11.238,2.137,13.941c0.098,3.386-5.289,1.635-5.289,1.635L51.764,38.305
			L51.764,38.305z"/>
		<path fill="#372620" d="M56.492,53.906c0.561-0.194,0.404-1.898,2.648-3.062c2.242-1.163,3.033-0.683,4.443-0.089
			c1.809,0.761,2.693,4.656,1.25,6.068l-5.959-2.373L56.492,53.906L56.492,53.906z"/>
		<path fill="#372620" d="M64.172,57.684c0.344,0.063,1.172-0.853,1.336-2.072c0.164-1.219-1.523,2.054-1.523,2.054L64.172,57.684z"
			/>
		<path fill="#DB8546" d="M58.51,54.52c-2.037,0.009-1.793,3.21-1.525,4.355c0.271,1.185,0.701,1.177,1.066,0.98
			c0.367-0.195,0.615-0.146,0.693,0.036c0.078,0.186,0.406,0.181,0.529-0.044c0,0,0.316,0.2,0.49-0.064
			c0.176-0.264,0.381-0.121,0.477-0.089c0.096,0.033,0.406,0.527,0.674,0.426c0.266-0.104,0.115-0.563,0.459-0.897
			c0.346-0.334,0.41-0.49,0.812-0.572c0.4-0.081,0.738-0.068,1.514-0.598c0.777-0.529,1.299-1.396,1.391-1.86
			c0.092-0.465-0.832-2.475-2.018-2.797c-1.186-0.321-2.797,0.863-2.797,0.863s0.447-1.02-0.66-0.836
			c-0.246,0.041-0.461,0.268-0.615,0.336C58.229,54.098,58.51,54.52,58.51,54.52L58.51,54.52z"/>
		<path fill="#372620" d="M64.836,56.824c0,0-1.119,0.937-2.174,0c-1.055-0.936-1.594-2.748-2.389-2.564
			c0,0,1.104-1.915,1.748-2.036c1.6-0.3,3.371,3.409,3.371,3.409l-0.33,0.811L64.836,56.824L64.836,56.824z"/>
		<path fill="#FCB549" d="M55.277,53.845c-0.182-0.181-1.146-1.727-2.16-2.402c-1.016-0.677-1.07-2.946-0.877-4.251
			s1.158-1.982,1.158-1.982s2.727,1.597,5.576-0.818c0,0,1.244-3.235,0.289-5.458c0,0-0.4-0.098-0.547-0.017
			c-1.049,0.586-3.76,1.555-6.953-0.61c0,0-4.332,3.042-5.443,5.94c-1.111,2.896-1.463,6.087-0.158,9.562
			c1.303,3.477,4.299,5.507,4.299,5.507s1.869-1.226,5.041-0.76c0,0,0.113-0.304,0.141-0.707c0.025-0.399-0.014-0.67-0.014-0.67
			S54.197,55.474,55.277,53.845L55.277,53.845z M51.924,65.961c0.262,2.131,0.406,3.449,0.398,3.714
			c-0.062,2.028-0.039,4.999,0.027,7.027c0.029,0.935,0.158,1.478,0.381,1.812c0.002-0.021,0.104-0.807,1.584-1.521
			c-0.016-0.362,0.348-6.014,0.348-7.027c0-0.496,0.047-2.186,0.139-4.115C53.588,66.139,52.605,66.091,51.924,65.961z"/>
		<path fill="#553729" d="M61.02,52.567c-0.965-0.787-1.492-1.938-0.424-2.795c0.965-0.771,2.365-0.402,2.561,0.36
			c0.195,0.764-0.287,2.072-0.287,2.072S62.023,52.854,61.02,52.567L61.02,52.567z"/>
		<path fill="#FCB549" d="M61.02,52.567v0.419c0,0,1.512,0.487,2.184-0.419l-0.334-0.361C62.867,52.206,61.982,52.752,61.02,52.567z
			"/>
		<path fill="#F0502D" d="M51.252,48.025c0,0-3.688,3.661-3.598,8.485c0.416,0.561,0.873,1.088,1.371,1.578
			C49.023,58.076,48.107,52.369,51.252,48.025z M50.232,47.562c0,0-2.865,0.986-4.545,4.672c0.125,0.52,0.273,1.042,0.475,1.574
			c0.117,0.315,0.254,0.613,0.396,0.905C46.557,54.602,46.514,49.924,50.232,47.562z M50.461,46.804c0,0-2.551-0.681-4.93,0.305
			c-0.121,0.695-0.188,1.399-0.191,2.105C46.291,48.145,47.984,46.887,50.461,46.804z M50.869,45.785
			c-0.934-0.957-2.955-1.869-4.15-2.354c-0.154,0.271-0.295,0.544-0.396,0.814c-0.094,0.242-0.174,0.491-0.256,0.738
			C48.314,44.973,50.869,45.785,50.869,45.785z M51.252,44.835c0,0-1.018-2.942-1.762-4.675c-0.385,0.353-0.758,0.72-1.115,1.1
			C49.281,42.026,50.627,43.343,51.252,44.835z"/>
		<path fill="#F0502D" d="M50.395,39.393c0,0,1.211,1.915,1.369,3.675c0,0-0.109-2.853-0.764-4.137L50.395,39.393z M52.057,67.058
			c0,0,0.164,1.175,2.512,5.123l-2.244-2.507L52.057,67.058L52.057,67.058z M52.754,67.826l1.631,3.057
			C54.385,70.883,54.469,69.422,52.754,67.826z M52.754,70.883l1.363,1.807C54.117,72.688,53.52,72.751,52.754,70.883z
			 M49.166,66.198l0.016,2.096l1.893,2.23C51.072,70.524,49.635,67.899,49.166,66.198L49.166,66.198z M49.578,69.354
			c0,0,0.814,1.087,1.291,1.528C50.869,70.883,50.326,71.053,49.578,69.354L49.578,69.354z M49.781,67.058l1.291,2.562
			C51.072,69.62,51.143,68.19,49.781,67.058z"/>
		<g>
			<path fill="#FBB67F" d="M23.693,43.536c0.604,3.756,1.172,9.792,0.93,10.397c-0.244,0.605-1.289,3.55-1.059,6.318
				c0.256,3.106,0.857,7.127,1.002,8.872c0.145,1.743-1.172,1.929-1.027,3.674c0.109,1.33,1.234,0.828,1.865,2.071
				c1.062,2.096,0.816,3.013,3.725,2.771c2.309-0.191,1.127-0.536-0.168-2.039c-1.295-1.502-2.037-4.867-1.945-8.547
				c0.076-3.076,1.551-9.496,1.682-11.556c0.129-2.061,2.65-9.67,2.65-9.67L23.693,43.536L23.693,43.536z"/>
			<circle fill="#F0502D" cx="22.127" cy="17.131" r="4.215"/>
			<path fill="#D44527" d="M22.127,12.916c-0.092,0-0.178,0.021-0.27,0.027c1.904,0.141,3.412,1.712,3.412,3.652
				c0,2.032-1.648,3.68-3.68,3.68c-1.939,0-3.514-1.507-3.652-3.412c-0.006,0.092-0.027,0.178-0.027,0.27
				c0,2.328,1.887,4.215,4.217,4.215c2.328,0,4.215-1.887,4.215-4.215S24.455,12.916,22.127,12.916z"/>
			<path fill="#FBB67F" d="M22.355,35.06c-3.547,0-9.885-2.491-9.812-2.706c0.074-0.213,1.367-2.34,2.611-5.474
				c1.246-3.134,1.375-5.812,2.326-6.024c0.951-0.214,2.096-0.424,1.656-1.707c-0.439-1.28-1.039-1.383-0.6-3.164
				c0.439-1.78,1.848-2.502,1.199-2.66c-0.744-0.178-2.324,1.576-2.848,3.08c-0.496,1.438-0.785,2.899-1.811,4.401
				s-4.617,7.943-5.654,9.796c-2.027,3.624-1.223,3.413,0.021,4.695s6.127,4.304,15.352,6.013
				C24.797,41.311,24.502,35.06,22.355,35.06L22.355,35.06z"/>
			<path fill="#FBB67F" d="M31,20.634c1.75,2.423-2.043,4.805-2.043,7.261c0,2.457,0.336,1.425,0.689,3.176
				c0.352,1.751-0.961,4.402-2.857,3.382c-1.895-1.021-6.479-0.438-6.479-0.438s-0.729,2.334,0,3.793
				c0.729,1.458,2.627,1.201,1.752,3.681c-0.877,2.48,2.178,5.251,3.787,5.106c1.607-0.147,2.531,1.896,5.861,2.041
				c0,0-0.021-7.147,2.895-9.773c3.188-2.867,4.234-6.571,3.854-9.31c-0.525-3.764-2.061-3.577-3.229-5.182
				c-1.166-1.605-0.695-2.194-0.695-2.194L31,20.634z"/>
			<path fill="#FBB67F" d="M34.977,23.946c1.256-0.806,4.594-4.308,4.951-4.845c0.357-0.538,1.396-7.531,2.279-9.035
				c1.213-2.056,2.527-3.316,2.887-4.031c0.357-0.717,0.984-0.181,0.807,1.164c-0.18,1.344-0.482,1.181-0.695,1.771
				c-0.27,0.737-1.463,1.138-1.643,1.854s-0.588,8.099-0.768,8.994c-0.18,0.896-4.201,6.558-4.648,7.723
				c-0.449,1.166,0.895,1.237,0,3.209c-0.896,1.971-8.246,0.447-8.246,0.447s-1.262-1.561-2.516-2.188
				c-1.256-0.627-5.258-2.025-7.328-3.854c-3.734-3.299-5.328-6.651-6.875-6.61c-1.393,0.038-4.406-0.836-3.6-1.374
				c0.805-0.538,4.273-0.454,4.812-0.275c0.537,0.181,2.697,2.184,3.057,2.541c0.357,0.359,3.385,3.248,4.143,3.765
				c0.896,0.608,3.189,1.026,4.488,1.14c1.623,0.141,3.117-0.236,4.637,0.355C32.148,25.256,33.723,24.753,34.977,23.946
				L34.977,23.946z"/>
			<path fill="#F0502D" d="M38.277,20.925c-1.189,1.262-2.445,2.472-3.301,3.021c-0.816,1.599-2.703,1.395-4.172,0.308
				c-0.037-0.028-0.086-0.049-0.129-0.075c-0.084,0.142-0.17,0.282-0.26,0.424c-1.416-0.438-2.82-0.13-4.336-0.261
				c-0.365-0.032-0.811-0.09-1.279-0.167h-0.004c0,0-3.488,1.972-4.115,1.477c2.168,1.584,5.562,2.789,6.701,3.358
				c0.887,0.442,1.766,1.342,2.211,1.838c0.018,0.07,0.033,0.141,0.051,0.223c0.354,1.75-0.959,4.402-2.855,3.382
				c-1.896-1.021-6.479-0.438-6.479-0.438s-0.73,2.334,0,3.793c0.729,1.458,2.625,1.201,1.75,3.681
				c-0.875,2.48,2.18,5.251,3.787,5.106c1.609-0.147,2.531,1.896,5.863,2.041c0,0-0.023-7.147,2.895-9.773
				c3.18-2.861,4.229-6.558,3.854-9.293c0.004-0.233-0.039-0.425-0.1-0.595c-0.082-0.438-0.182-0.82-0.291-1.146
				c0.014-0.099,0.039-0.194,0.076-0.286c0.447-1.165,4.471-6.826,4.648-7.723C42.795,19.818,40.914,21.166,38.277,20.925
				L38.277,20.925z"/>
			<path fill="#010101" d="M31,19.987c0.418,0.549,0.984,3.372-0.195,4.268c-1.178,0.894-0.699,1.582-0.699,1.582
				s-0.662-0.398-0.506-1.422c0,0,0.176,0.926-0.359,1.652c-0.537,0.729-0.121,1.248-0.121,1.248s-1.115-1.029-0.801-2.397
				c0,0-0.049,0.228-0.656,0.591c0,0,0.365-0.792-0.059-1.523c-0.426-0.73-0.559-1.207-0.486-1.562c0,0-0.516-1.237,0.061-2.022
				c0.576-0.786,1.535-1.162,1.973-1.222C29.586,19.117,31,19.987,31,19.987L31,19.987z"/>
			<path fill="#FBB784" d="M31.209,12.924c1.621-0.577,3.893,0.173,4.791,2.362c0.9,2.188,0.225,1.729,0.711,2.369
				c0.488,0.641-0.141,2.635-0.791,4.296c-0.67,1.711-5.004-0.17-5.324-0.844c0,0-0.451,0.307-0.867-0.186
				c-0.416-0.49-0.984-1.591,0.07-1.59c0,0-0.785,0.322-1.186-0.542C28.213,17.925,27.324,14.308,31.209,12.924z"/>
			<path fill="#010101" d="M30.311,14.703c1.006,0.919,3.25,0.362,3.779,1.349c0,0-0.387-1.149-1.486-1.198
				c0,0,2.145-0.225,2.758,1.264c0.609,1.487,2.086,1.454,2.086,1.454s-0.744-0.631-0.5-1.922c0.246-1.291-0.92-2.675-1.766-2.718
				c0,0-0.354-0.814-1.15-0.818c-0.795-0.004-2.049-0.772-3.434-0.211s-1.557,1.469-1.557,1.469s-2.189,1.07-1.686,3.878
				c0.508,2.807,1.963,3.028,1.963,3.028s-0.281-0.56-0.002-0.8c0.355-0.307,0.637,0.031,0.688,0.006
				c0.104-0.049-0.174-0.901,0.545-1.592c0.721-0.69,0.986-1.738,0.584-2.182C30.732,15.263,30.311,14.703,30.311,14.703
				L30.311,14.703z"/>
			<path fill="#F0502D" d="M43.293,8.437c-0.354,0.479-0.723,1.015-1.086,1.63c-0.52,0.885-1.092,3.666-1.549,5.918
				c0.656,0.697,1.855,2.495,2.137,3.833c0.182-0.896,0.588-8.276,0.768-8.995C42.918,9.367,43.283,8.459,43.293,8.437z
				 M14.395,19.106c1.229,1.046,2.76,3.402,5.367,5.779c0.551,0.463,0.922,0.764,0.922,0.765l0,0c0,0-1.207-1.717-0.965-4.07
				c-1.014-0.934-2.064-1.941-2.268-2.144c-0.359-0.357-2.52-2.362-3.057-2.541C14.395,16.896,14.939,18.104,14.395,19.106
				L14.395,19.106z"/>
			<path fill="#FCB549" d="M35.229,24.881c0.928,2.166,1.785,5.351,0.223,7.32c-1.562,1.969-3.531,1.401-5.434,2.433
				s-3.229-0.183-3.229-0.183s0.219,1.824,2.471,1.553s1.596-1.37,5.035-1.37C37.445,34.634,38.475,29.278,35.229,24.881z"/>
			<path fill="#FCB549" d="M29.428,34.227c0.699-0.878,1.479-2.114,3.107-1.743s3.627-3.278,2.783-5.644
				c0,0,0.904,1.646,0.494,3.336c-0.412,1.688-1.896,3.172-2.967,2.966C31.775,32.937,30.988,32.547,29.428,34.227z"/>
			<path fill="#FCB549" d="M29.26,36.603c2.354,0,2.051-1.271,4.426-1.153c2.553,0.127,4.461-2.127,4.119-5.726
				C37.805,29.724,39.518,38.71,29.26,36.603z M32.441,31.94c0.723,0.065,0.805-1.376,1.422-1.541
				c0.619-0.165,0.865-2.265,0.865-2.265S34.85,31.945,32.441,31.94L32.441,31.94z"/>
			<path fill="#FCB549" d="M29.428,37.295c0.93,0.543,4.375,0.726,5.445-0.372c0,0-0.475,1.151-2.037,1.355
				s-1.494-0.271-2.039-0.169C30.254,38.212,29.428,37.295,29.428,37.295L29.428,37.295z"/>
			<path fill="#D44527" d="M28.234,47.562c-0.287-1.144,1.645-6.734,1.645-6.734s-3.334,5.837-4.031,5.766
				C26.686,46.516,27.336,47.03,28.234,47.562z M26.789,38.331c0,0-3.996,1.286-5.717,0.362c0.785,0.629,1.629,0.979,0.988,2.794
				C23.088,41.574,26.789,38.331,26.789,38.331L26.789,38.331z M42.408,20.638c-1.531,1.613-4.504,4.716-4.742,5.53
				c-0.098,0.332,0.402,1.659,0.402,1.659c0.016-0.099,0.041-0.194,0.076-0.286C38.52,26.571,41.359,22.498,42.408,20.638z
				 M27.385,29.01c0.887,0.441,1.766,1.342,2.211,1.838c0.018,0.07,0.033,0.141,0.051,0.223c0,0-0.213-1.727-0.617-2.165
				c-1.248-1.347-4.197-1.452-6.902-2.339C24.137,27.697,26.479,28.556,27.385,29.01z"/>
		</g>
	</g>
</g>
</svg>
