<?xml version="1.0" encoding="utf-8"?>
<!-- Generator: Adobe Illustrator 16.0.0, SVG Export Plug-In . SVG Version: 6.00 Build 0)  -->
<!DOCTYPE svg PUBLIC "-//W3C//DTD SVG 1.1//EN" "http://www.w3.org/Graphics/SVG/1.1/DTD/svg11.dtd">
<svg version="1.1" id="Layer_1" xmlns="http://www.w3.org/2000/svg" xmlns:xlink="http://www.w3.org/1999/xlink" x="0px" y="0px"
	 width="85px" height="85px" viewBox="0 0 85 85" enable-background="new 0 0 85 85" xml:space="preserve">
<g>
	<path fill="#E84649" d="M55.599,49.674V76.79c0,0.865-0.703,1.568-1.57,1.568H7.501c-0.867,0-1.57-0.703-1.57-1.568V49.674
		c0-5.335,3.215-9.922,7.812-11.926c1.59-0.694,3.346-1.079,5.193-1.079h23.658c0.711,0,1.408,0.057,2.09,0.168
		c1.068,0.172,2.109,0.478,3.104,0.911C52.384,39.752,55.599,44.339,55.599,49.674L55.599,49.674z"/>
	<path fill="#C47A4A" d="M30.765,54.581c-4.271,0-7.734-3.464-7.734-7.735V36.67h15.471v10.176
		C38.501,51.117,35.036,54.581,30.765,54.581z"/>
	<path fill="#D73337" d="M55.599,49.674V76.79c0,0.865-0.703,1.568-1.57,1.568h-9.346V36.837c1.068,0.172,2.111,0.478,3.104,0.911
		C52.384,39.752,55.599,44.339,55.599,49.674z"/>
	<path fill="#D68A5A" d="M55.599,49.674V76.79c0,0.866-0.703,1.568-1.57,1.568h-6.242v-40.61
		C52.384,39.752,55.599,44.339,55.599,49.674z"/>
	<path fill="#C47A4A" d="M55.599,49.674V76.79c0,0.865-0.703,1.568-1.57,1.568h-3.303c0.867,0,1.57-0.703,1.57-1.568V49.674
		c0-3.934-1.75-7.462-4.51-9.847v-2.079C52.384,39.752,55.599,44.339,55.599,49.674z"/>
	<path fill="#D68A5A" d="M13.743,37.748v40.61H7.501c-0.867,0-1.57-0.702-1.57-1.568V49.674
		C5.931,44.339,9.146,39.752,13.743,37.748z"/>
	<path fill="#FBCC85" d="M71.05,81.172H46.608c-0.867,0-1.568-0.702-1.568-1.569v-5.688c0-0.866,0.701-1.569,1.568-1.569H71.05
		c0.867,0,1.57,0.703,1.57,1.569v5.688C72.62,80.47,71.917,81.172,71.05,81.172L71.05,81.172z"/>
	<path fill="#D8AA64" d="M72.62,73.915v5.688c0,0.866-0.703,1.569-1.568,1.569h-3.395c0.865,0,1.568-0.703,1.568-1.569v-5.688
		c0-0.866-0.703-1.569-1.568-1.569h3.395C71.917,72.346,72.62,73.049,72.62,73.915z"/>
	<path fill="#2EA8FC" d="M62.476,56.688c-1.389,0-2.512-1.124-2.512-2.511V28.214c0-1.388,1.123-2.512,2.512-2.512
		c1.387,0,2.512,1.124,2.512,2.512v25.964C64.987,55.564,63.862,56.688,62.476,56.688L62.476,56.688z"/>
	<path fill="#FBCC85" d="M59.964,31.606h5.021v8.954h-5.021V31.606z"/>
	<path fill="#FFF5F5" d="M17.729,81.173H7.026c-1.854,0-3.355-1.501-3.355-3.354V60.865h17.412v16.953
		C21.083,79.672,19.581,81.173,17.729,81.173L17.729,81.173z"/>
	<path fill="#E0D3CE" d="M21.083,60.865v16.953c0,1.853-1.502,3.354-3.354,3.354h-3.047c1.852,0,3.354-1.502,3.354-3.354V60.865
		H21.083z"/>
	<path fill="#2EA8FC" d="M18.931,58.715H5.886c-1.16,0-2.156,0.891-2.211,2.049C3.616,62,4.603,63.021,5.825,63.021h4.275
		c0.756,0,1.367,0.612,1.367,1.368v4.293c0,1.224,0.941,2.277,2.164,2.335c1.307,0.062,2.385-0.979,2.385-2.271v-4.357
		c0-0.756,0.611-1.368,1.367-1.368h1.484c1.16,0,2.158-0.892,2.211-2.049C21.138,59.735,20.153,58.715,18.931,58.715L18.931,58.715z
		"/>
	<circle fill="#2EA8FC" cx="38.306" cy="62.055" r="3.111"/>
	<circle fill="#FBCC85" cx="29.903" cy="67.915" r="3.111"/>
	<circle fill="#C47A4A" cx="46.731" cy="24.106" r="3.632"/>
	<circle fill="#C47A4A" cx="14.798" cy="24.106" r="3.632"/>
	<path fill="#D68A5A" d="M30.765,44.151c-7.389,0-13.482-5.783-13.869-13.161l-0.941-17.996h29.621L44.634,30.99
		C44.247,38.367,38.153,44.151,30.765,44.151z"/>
	<path fill="#756F6F" d="M14.569,13.602v3.842c0,2.998,2.43,5.431,5.43,5.431h4.588c0.477,0,0.863-0.388,0.863-0.864v-3.395
		c0.537,2.436,2.707,4.259,5.303,4.259h4.588c0.477,0,0.863-0.388,0.863-0.864v-3.395c0.537,2.436,2.707,4.259,5.303,4.259h4.588
		c0.479,0,0.863-0.388,0.863-0.864v-8.407c0-5.399-4.377-9.778-9.777-9.778H24.349C18.948,3.824,14.569,8.201,14.569,13.602
		L14.569,13.602z"/>
	<path fill="#5B5555" d="M46.96,13.602v8.406c0,0.478-0.387,0.864-0.863,0.864h-3.484c0.479,0,0.865-0.388,0.865-0.864v-8.406
		c0-5.4-4.379-9.777-9.779-9.777h3.482C42.581,3.824,46.96,8.201,46.96,13.602z"/>
	<g>
		<path d="M77.888,61.275H65.542c-1.055,0-1.912-0.857-1.912-1.913v-1.688c1.467-0.485,2.527-1.868,2.527-3.496V28.215
			c0-2.031-1.652-3.684-3.684-3.684c-2.029,0-3.684,1.651-3.684,3.684v25.964c0,1.614,1.045,2.989,2.494,3.485v1.698
			c0,2.348,1.91,4.258,4.256,4.258h12.346c1.252,0,2.27,1.017,2.27,2.268v7.668c0,1.25-1.018,2.269-2.27,2.269H73.79v-1.907
			c0-1.513-1.229-2.741-2.742-2.741h-7.475c-0.648,0-1.172,0.523-1.172,1.172s0.523,1.172,1.172,1.172h7.475
			c0.221,0,0.398,0.178,0.398,0.397v5.688c0,0.22-0.178,0.397-0.398,0.397H46.608c-0.221,0-0.398-0.179-0.398-0.397v-5.688
			c0-0.221,0.178-0.397,0.398-0.397h11.379c0.646,0,1.172-0.523,1.172-1.172s-0.525-1.172-1.172-1.172h-1.219V59.668
			c0-0.647-0.523-1.172-1.172-1.172c-0.646,0-1.172,0.523-1.172,1.172v11.508h-5.469V39.707c3.295,2.111,5.469,5.808,5.469,9.97
			v4.405c0,0.646,0.525,1.172,1.172,1.172s1.172-0.525,1.172-1.172v-4.405c0-7.013-5.15-12.925-11.945-14.001
			c0.566-1.479,0.896-3.04,0.979-4.623l0.115-2.212c0.27,0.046,0.539,0.071,0.812,0.071c2.648,0,4.803-2.155,4.803-4.805
			c0-2.148-1.396-3.99-3.402-4.597v-5.908c0-6.038-4.912-10.95-10.951-10.95H24.347c-6.037,0-10.949,4.912-10.949,10.95v3.842
			c0,0.692,0.107,1.359,0.307,1.987c-2.123,0.497-3.709,2.404-3.709,4.676c0,2.648,2.156,4.805,4.803,4.805
			c0.275,0,0.545-0.023,0.812-0.068l0.115,2.209c0.082,1.583,0.412,3.145,0.98,4.623C9.909,36.752,4.759,42.665,4.759,49.677v8.06
			c-1.266,0.438-2.189,1.586-2.256,2.975c0,0.026,0.002,0.054,0,0.081c0,0.024-0.002,0.051-0.002,0.077v16.952
			c0,2.495,2.029,4.525,4.525,4.525h10.703c2.496,0,4.525-2.03,4.525-4.525v-5.027c0-0.647-0.523-1.172-1.172-1.172
			c-0.646,0-1.172,0.523-1.172,1.172v5.028c0,1.202-0.979,2.182-2.182,2.182H7.026c-1.203,0-2.184-0.979-2.184-2.182V64.045
			c0.316,0.098,0.646,0.149,0.982,0.149h4.275c0.107,0,0.195,0.089,0.195,0.196v4.293c0,1.879,1.441,3.419,3.281,3.506
			c0.055,0.003,0.111,0.004,0.168,0.004c0.889,0,1.727-0.335,2.375-0.951c0.68-0.651,1.066-1.553,1.066-2.493v-4.357
			c0-0.107,0.088-0.197,0.197-0.197h1.484c0.363,0,0.713-0.058,1.041-0.16v3.174c0,0.646,0.523,1.172,1.172,1.172
			s1.172-0.524,1.172-1.172V60.87c0-0.03-0.002-0.061-0.004-0.089c-0.02-0.826-0.338-1.603-0.914-2.205
			c-0.629-0.656-1.496-1.028-2.406-1.029h-4.016V38.549c0.926-0.334,1.889-0.551,2.867-0.645c1.041,1.763,2.426,3.296,4.076,4.508
			v4.438c0,4.911,3.996,8.907,8.906,8.907c4.912,0,8.908-3.996,8.908-8.907v-4.438c1.65-1.212,3.037-2.745,4.076-4.508
			c0.98,0.094,1.941,0.311,2.867,0.645v32.629h-0.006c-1.514,0-2.742,1.229-2.742,2.741v5.688c0,1.513,1.229,2.741,2.742,2.741
			H71.05c1.51,0,2.74-1.229,2.74-2.741v-1.436h4.096c2.543,0,4.613-2.069,4.613-4.612v-7.668
			C82.501,63.344,80.431,61.275,77.888,61.275L77.888,61.275z M61.136,32.778h2.68v6.61h-2.68V32.778z M62.476,26.874
			c0.738,0,1.34,0.601,1.34,1.34v2.221h-2.68v-2.221C61.136,27.475,61.737,26.874,62.476,26.874z M61.136,41.732h2.68v12.445
			c0,0.738-0.602,1.339-1.34,1.339s-1.34-0.601-1.34-1.339V41.732L61.136,41.732z M19.64,60.19c0.188,0.194,0.285,0.457,0.271,0.727
			c-0.025,0.514-0.492,0.933-1.041,0.933h-1.484c-1.4,0-2.541,1.139-2.541,2.54v4.357c0.002,0.301-0.123,0.59-0.342,0.797
			c-0.217,0.21-0.514,0.318-0.814,0.303c-0.576-0.026-1.047-0.549-1.047-1.164V64.39c0-1.401-1.139-2.541-2.539-2.541H5.827
			c-0.27,0.002-0.525-0.107-0.711-0.304c-0.188-0.194-0.283-0.457-0.27-0.727c0.023-0.514,0.49-0.932,1.041-0.932h13.043
			C19.198,59.886,19.456,59.995,19.64,60.19z M12.571,57.543H7.103v-7.868c0-4.161,2.174-7.856,5.469-9.969V57.543z M49.19,24.106
			c0,1.356-1.105,2.46-2.461,2.46c-0.236,0-0.467-0.032-0.688-0.098l0.127-2.428c1.064-0.039,1.922-0.897,1.957-1.963
			C48.776,22.524,49.19,23.27,49.19,24.106L49.19,24.106z M15.741,13.602c0-4.746,3.861-8.605,8.605-8.605h12.832
			c4.746,0,8.607,3.859,8.607,8.605v8.101h-4.281c-1.982,0-3.73-1.404-4.156-3.34c-0.129-0.584-0.678-0.978-1.271-0.912
			c-0.594,0.063-1.045,0.565-1.045,1.165v3.087h-4.279c-1.982,0-3.732-1.404-4.158-3.339c-0.127-0.585-0.678-0.979-1.27-0.913
			c-0.594,0.063-1.045,0.565-1.045,1.165v3.087h-4.281c-2.348,0-4.258-1.91-4.258-4.259V13.602L15.741,13.602z M14.798,26.566
			c-1.355,0-2.459-1.104-2.459-2.46c0-1.355,1.104-2.459,2.459-2.459c0.041,0,0.08,0.004,0.119,0.006
			c0.107,0.128,0.219,0.253,0.334,0.371l0.234,4.441C15.263,26.531,15.032,26.565,14.798,26.566z M37.329,46.846
			c0,3.619-2.945,6.563-6.564,6.563S24.2,50.465,24.2,46.846V43.82c1.988,0.964,4.215,1.504,6.564,1.504s4.576-0.54,6.564-1.504
			V46.846z M30.765,42.979c-6.768,0-12.346-5.294-12.697-12.052l-0.383-7.304c0.74,0.277,1.523,0.421,2.314,0.421h4.588
			c0.945,0,1.74-0.646,1.971-1.521c1.154,0.953,2.627,1.521,4.195,1.521h4.588c0.943,0,1.74-0.646,1.971-1.521
			c1.154,0.953,2.627,1.521,4.195,1.521h2.316l-0.359,6.883C43.11,37.686,37.532,42.979,30.765,42.979L30.765,42.979z"/>
		<path d="M38.306,57.771c-2.361,0-4.283,1.922-4.283,4.283s1.922,4.282,4.283,4.282s4.283-1.921,4.283-4.282
			S40.667,57.771,38.306,57.771z M38.306,63.993c-1.068,0-1.939-0.869-1.939-1.938s0.871-1.938,1.939-1.938s1.939,0.869,1.939,1.938
			S39.374,63.993,38.306,63.993z M29.903,63.632c-2.361,0-4.283,1.921-4.283,4.282s1.92,4.282,4.283,4.282
			c2.361,0,4.283-1.921,4.283-4.282S32.265,63.632,29.903,63.632z M29.903,69.854c-1.07,0-1.939-0.87-1.939-1.938
			s0.869-1.938,1.939-1.938c1.068,0,1.938,0.87,1.938,1.938S30.972,69.854,29.903,69.854z M24.29,27.607
			c-0.646,0-1.172,0.524-1.172,1.172l0,0v0.018c0,0.646,0.525,1.172,1.172,1.172c0.648,0,1.172-0.524,1.172-1.172v-0.018
			C25.462,28.132,24.938,27.607,24.29,27.607L24.29,27.607z M37.239,27.607c-0.648,0-1.172,0.524-1.172,1.172l0,0v0.018
			c0,0.646,0.523,1.172,1.172,1.172c0.646,0,1.17-0.524,1.17-1.172v-0.018C38.409,28.132,37.886,27.607,37.239,27.607L37.239,27.607
			z M34.706,32.955c-0.623-0.18-1.271,0.181-1.451,0.803l0,0c-0.316,1.104-1.342,1.877-2.49,1.877s-2.174-0.771-2.49-1.877
			c-0.18-0.622-0.828-0.981-1.451-0.803c-0.621,0.18-0.98,0.828-0.801,1.449c0.604,2.104,2.555,3.573,4.742,3.573
			c2.189,0,4.141-1.47,4.744-3.573C35.688,33.783,35.327,33.135,34.706,32.955z"/>
	</g>
</g>
</svg>
