<?xml version="1.0" encoding="utf-8"?>
<!-- Generator: Adobe Illustrator 16.0.0, SVG Export Plug-In . SVG Version: 6.00 Build 0)  -->
<!DOCTYPE svg PUBLIC "-//W3C//DTD SVG 1.1//EN" "http://www.w3.org/Graphics/SVG/1.1/DTD/svg11.dtd">
<svg version="1.1" id="Layer_1" xmlns="http://www.w3.org/2000/svg" xmlns:xlink="http://www.w3.org/1999/xlink" x="0px" y="0px"
	 width="85px" height="85px" viewBox="0 0 85 85" enable-background="new 0 0 85 85" xml:space="preserve">
<g>
	<path fill="#E6E6E6" d="M31.049,49H19.02v-8.609h48.42V49H40.947"/>
	<path fill="#DD852C" d="M56.818,49h-2.83v-8.609h13.451V49h-8.291"/>
	<path fill="#FFCA6C" d="M20.152,49H19.02v-8.609h4.303V49h-2.239"/>
	<path fill="#FC583D" d="M42.498,3.844C21.15,3.844,3.845,21.152,3.845,42.5S21.15,81.154,42.498,81.154
		c21.35,0,38.656-17.307,38.656-38.654C81.154,21.15,63.848,3.844,42.498,3.844L42.498,3.844z M42.498,10.844
		c7.189-0.012,14.164,2.438,19.771,6.936L17.777,62.271c-4.498-5.607-6.945-12.582-6.936-19.771
		C10.844,25.016,25.016,10.844,42.498,10.844z M42.498,74.154c-7.188,0.012-14.165-2.438-19.771-6.936l44.494-44.492
		c4.498,5.607,6.945,12.582,6.936,19.771C74.156,59.982,59.982,74.154,42.498,74.154z"/>
	<path d="M75.943,20.547c-4.162-6.34-10.041-11.369-16.951-14.5C58.305,5.768,57.518,6.1,57.24,6.789
		c-0.264,0.65,0.018,1.393,0.643,1.709c6.445,2.92,11.93,7.611,15.812,13.527c4,6.078,6.125,13.197,6.113,20.473
		c0,20.574-16.736,37.311-37.311,37.311c-20.572,0-37.309-16.734-37.309-37.311c0-20.572,16.736-37.311,37.309-37.311
		c3.842,0,7.627,0.582,11.254,1.729c0.707,0.223,1.463-0.17,1.688-0.877c0.223-0.709-0.17-1.463-0.877-1.688
		C50.66,3.121,46.592,2.496,42.5,2.5c-10.684,0-20.729,4.16-28.284,11.715S2.5,31.814,2.5,42.498
		c0,10.686,4.16,20.729,11.716,28.285C21.771,78.338,31.816,82.5,42.5,82.5s20.729-4.16,28.285-11.717
		C78.34,63.229,82.5,53.184,82.5,42.498C82.512,34.697,80.23,27.064,75.943,20.547L75.943,20.547z"/>
	<path d="M72.811,42.498c0,16.715-13.598,30.311-30.312,30.311c-1.107,0-2.227-0.061-3.322-0.18
		c-0.742-0.053-1.387,0.508-1.438,1.248c-0.049,0.703,0.449,1.324,1.146,1.428c1.199,0.131,2.406,0.195,3.613,0.195
		c18.197,0,33.002-14.805,33.002-33c0-7.58-2.5-14.707-7.23-20.613c-0.463-0.58-1.311-0.674-1.891-0.211
		c-0.037,0.031-0.074,0.064-0.109,0.102L21.777,66.27c-0.525,0.523-0.527,1.373-0.004,1.898c0.037,0.035,0.074,0.07,0.114,0.104
		c3.402,2.73,7.315,4.758,11.511,5.957c0.723,0.176,1.449-0.27,1.625-0.992c0.164-0.682-0.221-1.373-0.885-1.594
		c-3.365-0.963-6.537-2.506-9.371-4.559l25.346-25.348h2.531v5.918h-6.303c-0.742,0.035-1.316,0.666-1.279,1.408
		c0.033,0.693,0.588,1.246,1.279,1.279h7.641l0.006,0.002l0.008-0.002h13.443c0.742,0,1.346-0.6,1.346-1.344v-8.607
		c0-0.742-0.602-1.346-1.346-1.346H52.803l14.279-14.281C70.834,29.943,72.811,36.043,72.811,42.498z M66.094,47.654H55.332v-5.918
		h10.762V47.654z M63.111,16.727C57.205,11.998,50.078,9.498,42.5,9.498c-18.197,0-33.002,14.805-33.002,33
		c0,7.58,2.501,14.707,7.23,20.613c0.239,0.299,0.594,0.48,0.977,0.502l0.074,0.002c0.354,0,0.697-0.143,0.951-0.395l44.49-44.492
		c0.525-0.521,0.527-1.373,0.006-1.898C63.189,16.793,63.152,16.76,63.111,16.727L63.111,16.727z M20.365,47.654v-5.918h1.613v5.918
		H20.365z M24.668,41.736H36.41l-5.916,5.918h-5.825L24.668,41.736L24.668,41.736z M39.102,39.045H19.02
		c-0.744,0-1.346,0.604-1.346,1.346V49c0,0.742,0.602,1.344,1.346,1.344h8.783l-9.887,9.889c-3.752-5.18-5.727-11.277-5.727-17.732
		c0-16.713,13.596-30.311,30.311-30.311c6.455,0,12.555,1.975,17.732,5.727L39.102,39.045z"/>
	<path d="M26.166,23.066c0-0.742-0.602-1.346-1.346-1.346c-0.742,0-1.346,0.602-1.346,1.346l0,0c0,0.643-0.141,0.9-0.373,1.328
		c-0.297,0.545-0.703,1.287-0.703,2.617c0,1.328,0.406,2.074,0.703,2.615c0.232,0.428,0.373,0.686,0.373,1.33
		c0,0.643-0.141,0.9-0.373,1.328c-0.297,0.545-0.703,1.287-0.703,2.617c0,0.744,0.603,1.346,1.346,1.346
		c0.742,0,1.345-0.602,1.346-1.344c0,0,0,0,0-0.002c0-0.643,0.141-0.9,0.374-1.328c0.296-0.543,0.703-1.287,0.703-2.615
		c0-1.33-0.406-2.074-0.703-2.617c-0.231-0.428-0.374-0.686-0.374-1.33c0-0.643,0.141-0.9,0.374-1.328
		C25.76,25.139,26.166,24.395,26.166,23.066z"/>
</g>
</svg>
