<?xml version="1.0" encoding="utf-8"?>
<!-- Generator: Adobe Illustrator 16.0.0, SVG Export Plug-In . SVG Version: 6.00 Build 0)  -->
<!DOCTYPE svg PUBLIC "-//W3C//DTD SVG 1.1//EN" "http://www.w3.org/Graphics/SVG/1.1/DTD/svg11.dtd">
<svg version="1.1" id="Layer_1" xmlns="http://www.w3.org/2000/svg" xmlns:xlink="http://www.w3.org/1999/xlink" x="0px" y="0px"
	 width="85px" height="85px" viewBox="0 0 85 85" enable-background="new 0 0 85 85" xml:space="preserve">
<g>
	<path fill="#DAC382" d="M4.201,16.758h62.654v45.703H4.201V16.758z"/>
	<path fill="#3A9C9B" d="M7.91,20.468h55.236v38.284H7.91V20.468z"/>
	<path fill="#FDE398" d="M2.5,60.555h66.059v1.906H2.5V60.555z"/>
	<path fill="#F3F3F3" d="M23.291,59.506c0,0.566-0.396,1.025-0.889,1.025h-5.564c-0.49,0-0.889-0.459-0.889-1.025
		c0-0.564,0.396-1.023,0.889-1.023h5.564C22.895,58.482,23.291,58.941,23.291,59.506z"/>
	<path fill="#89D1E3" d="M25.326,56.125h8.656v3.594h-8.656V56.125z"/>
	<path fill="#7B7A83" d="M25.326,59.719h8.656v0.812h-8.656V59.719z"/>
	<g>
		<path fill="#F58020" d="M82.477,65.346h0.021v2.895H42.406v-2.895c0-2.885-0.713-10.172,5.811-12.535h0.012l0.027-0.006
			c0.012,0,0.012-0.018,0.021-0.018l0.873-0.314l3.326-1.242c0,0,0.006,0,0,0h0.006l2.154-0.797
			c0.037,0.123,0.082,0.244,0.137,0.365c1.045,2.42,4.078,4.16,7.67,4.16c0,0.033,0,0.066,0.004,0.094
			c0,0.027,0.006,0.055,0.014,0.078c-0.008-0.055-0.008-0.117-0.008-0.172c3.498-0.006,6.465-1.658,7.576-3.982
			c0.072-0.156,0.143-0.32,0.199-0.479l2.176,0.77c0,0,0.006-0.004,0,0l0.006-0.004l4.264,1.514v0.033
			C83.195,55.174,82.477,62.463,82.477,65.346L82.477,65.346z"/>
		<path fill="#FFFFFF" d="M62.441,54.961c0,4.797-9.244,5.131-9.967-3.729l2.154-0.801c0.041,0.125,0.086,0.246,0.143,0.367
			C55.814,53.217,58.85,54.961,62.441,54.961z M72.402,51.268c-0.74,8.824-9.961,8.482-9.961,3.693c3.5,0,6.475-1.658,7.582-3.988
			c0.07-0.154,0.145-0.316,0.201-0.48L72.402,51.268z"/>
		<path fill="#E9C5A7" d="M70.023,50.973c-1.107,2.33-4.082,3.988-7.582,3.988c-3.594,0-6.629-1.744-7.67-4.162l2.943-1.041v-4.045
			h9.271v4.045L70.023,50.973z"/>
		<path fill="#F3D2B2" d="M70.492,39.66c0,0.549-0.039,1.084-0.111,1.604c-0.061,0.486-0.152,0.955-0.273,1.414
			c-0.57,2.154-1.736,3.988-3.262,5.215c-1.293,1.039-2.834,1.643-4.496,1.643c-1.617,0-3.123-0.57-4.387-1.553
			c-1.58-1.227-2.791-3.102-3.377-5.316c-0.123-0.463-0.217-0.934-0.275-1.408c-0.043-0.311-0.078-0.625-0.094-0.945
			c-0.012-0.217-0.018-0.436-0.018-0.652c0-0.227,0.006-0.453,0.021-0.674c2.416-0.01,5.77-1.332,7.205-1.961
			c1.99-0.795,3.752-2.199,4.855-4.055c0.812,1.547,2.283,3.414,3.891,3.95c0.021,0.088,0.043,0.183,0.066,0.274
			c0.016,0.096,0.033,0.184,0.049,0.271v0.006C70.424,38.195,70.492,38.928,70.492,39.66L70.492,39.66z"/>
		<path fill="#9C6239" d="M57.961,47.979c-2.117-1.639-3.568-4.443-3.744-7.668c-0.014-0.219-0.018-0.432-0.018-0.652
			c0-0.227,0.004-0.451,0.021-0.67c2.412-0.012,5.768-1.336,7.203-1.964c1.99-0.795,3.756-2.195,4.861-4.056
			c0.809,1.551,2.277,3.416,3.887,3.952c0.043,0.185,0.084,0.368,0.117,0.552c0.137,0.703,0.205,1.439,0.205,2.188
			c0,3.439-1.453,6.467-3.65,8.236c3.176,1.666,5.32-2.094,6.066-4.084c0.76-2.018,0.711-3.922,0-6.879
			c-0.961-2.78-1.578-3.766-3.027-5.534c-1.988-2.428-4.754-3.78-7.873-3.78c-2.727,0-5.521,1.641-7.227,3.896
			c-1.604,2.134-3.102,5.089-3.439,7.611C50.678,43.885,53.414,50.734,57.961,47.979L57.961,47.979z"/>
		<path fill="#A3CDD7" d="M48.512,68.242v-6.588l1.289,5.615l3.773,0.973H48.512L48.512,68.242z M76.594,68.242v-6.588l-1.287,5.615
			l-3.775,0.973H76.594L76.594,68.242z"/>
		<path fill="#F3F3F3" d="M54.586,42.666c-0.07,0.027-0.148,0.039-0.227,0.039c-0.398,0-0.725-0.326-0.725-0.729
			c0-0.381,0.299-0.697,0.676-0.719C54.369,41.732,54.463,42.205,54.586,42.666z M71.018,41.977c0,0.402-0.324,0.729-0.729,0.729
			h-0.002c-0.066,0-0.127-0.012-0.182-0.027c0.123-0.465,0.217-0.938,0.275-1.414C70.74,41.303,71.018,41.611,71.018,41.977z"/>
	</g>
	<polygon opacity="0.2" fill="#FFFFFF" enable-background="new    " points="35.75,39.893 9.104,58.234 9.104,21.761 61.525,21.761 
			"/>
	<rect x="7.854" y="20.44" fill="#B3B5B6" width="55.27" height="1.945"/>
	<rect x="7.854" y="21.69" fill="#B3B5B6" width="1.943" height="37.03"/>
</g>
</svg>
