<?xml version="1.0" encoding="utf-8"?>
<!-- Generator: Adobe Illustrator 16.0.0, SVG Export Plug-In . SVG Version: 6.00 Build 0)  -->
<!DOCTYPE svg PUBLIC "-//W3C//DTD SVG 1.1//EN" "http://www.w3.org/Graphics/SVG/1.1/DTD/svg11.dtd">
<svg version="1.1" id="Layer_1" xmlns="http://www.w3.org/2000/svg" xmlns:xlink="http://www.w3.org/1999/xlink" x="0px" y="0px"
	 width="85px" height="85px" viewBox="0 0 85 85" enable-background="new 0 0 85 85" xml:space="preserve">
<g>
	<path fill-rule="evenodd" clip-rule="evenodd" d="M74.462,77.535c1.073,0.439,1.353,0.974,1.068,2.121
		c-0.391,1.574-1.488,2.421-2.984,2.844c-0.213,0-0.426,0-0.639,0c-0.243-0.196-0.564,0.025-0.811-0.151
		c-0.995-0.235-1.85-0.79-2.738-1.252c-1.068-0.554-2.067-0.585-3.194-0.099c-2.468,1.063-4.784,0.697-6.84-1.052
		c-1.794-1.525-2.945-1.692-5.077-0.628c-1.309,0.653-2.592,1.346-4.125,1.311c-1.031-0.023-2.042-0.176-2.899-0.733
		c-0.812-0.529-1.354-0.447-2.079,0.209c-1.949,1.763-4.994,0.688-5.517-1.885c-0.243-1.192,0.125-1.735,1.329-1.962
		c0.752-0.133,1.044,0.358,1.26,0.938c0.384,1.031,0.751,1.132,1.613,0.434c1.383-1.12,2.726-1.271,4.283-0.384
		c1.267,0.721,2.516,0.747,3.813,0.148c0.556-0.256,1.099-0.538,1.648-0.808c2.48-1.212,5.236-0.869,7.27,1.007
		c1.358,1.254,2.837,1.508,4.481,0.77c1.767-0.792,3.464-0.622,5.151,0.207c0.621,0.305,1.229,0.637,1.857,0.926
		c0.832,0.382,1.229,0.203,1.484-0.677c0.13-0.449,0.317-0.85,0.7-1.128C73.801,77.485,74.099,77.289,74.462,77.535z"/>
	<path fill-rule="evenodd" clip-rule="evenodd" fill="#434343" d="M71.097,82.349c0.286-0.038,0.571-0.062,0.811,0.151
		c-0.267,0-0.533,0-0.8,0C71.104,82.449,71.101,82.398,71.097,82.349z"/>
	<path fill-rule="evenodd" clip-rule="evenodd" fill="#FEC530" d="M41.118,26.91c0.026-0.583,0.051-1.166,0.077-1.749
		c0.882-0.681,0.93-1.619,0.923-2.64c-0.031-4.926-0.018-9.852-0.009-14.777c0.001-0.491-0.137-1.083,0.408-1.372
		c0.588-0.313,1.007,0.168,1.414,0.483c1.246,0.967,2.519,1.21,3.89,0.258c0.547-0.379,1.008-0.218,1.363,0.308
		c0.418,0.618,0.791,1.264,1.164,1.909c1.156,1.999,3.248,2.354,4.822,0.654c0.92-0.994,1.331-0.921,2.154,0.151
		c0.162,0.211,0.316,0.428,0.481,0.637c1.377,1.737,3.642,1.587,4.773-0.331c0.691-1.169,1.345-2.359,2.026-3.534
		c0.703-1.211,1.171-1.233,2.046-0.105c0.276,0.358,0.54,0.727,0.867,1.042c1.128,1.088,2.555,1.122,3.729,0.087
		c0.279-0.247,0.518-0.54,0.822-0.756c0.579-0.411,1.03-0.234,1.152,0.458c0.07,0.394,0.037,0.797,0.037,1.196
		c0.001,15.896,0.001,31.792,0.001,47.687c0,0.187,0.016,0.374-0.003,0.559c-0.108,1.105,0.095,2.063,1.204,2.604
		c-0.001,0.938-0.001,1.874-0.002,2.812c-0.231,0.298-0.53,0.165-0.808,0.116c-5.55-0.971-9.987-3.742-13.111-8.422
		c-4.149-6.214-8.145-12.529-12.202-18.804c-1.155-1.786-2.293-3.585-3.496-5.339c-0.798-1.165-1.812-2.076-3.129-2.633
		C41.481,27.313,41.121,27.305,41.118,26.91z"/>
	<path fill-rule="evenodd" clip-rule="evenodd" d="M41.118,26.91c2.001,0.748,3.388,2.154,4.532,3.935
		c5.056,7.874,10.079,15.771,15.292,23.541c3.186,4.748,7.821,7.39,13.518,8.106c1.085,0.106,2.182,0.144,3.252,0.333
		c2.839,0.505,4.861,2.886,5.016,5.809c0.145,2.722-1.678,5.209-4.4,6.048c-1.263,0.39-2.554,0.483-3.861,0.48
		c-0.241,0.194-0.507,0.097-0.768,0.062c-2.265-0.309-4.247-1.244-5.866-2.842c-2.009-1.982-4.114-3.864-6.084-5.887
		c-1.532-1.573-3.318-1.497-4.779,0.129c-1.862,2.074-5.01,2.646-7.207,1.355c-0.092-0.055-0.19-0.097-0.285-0.146
		c-1.413-0.726-1.914-0.527-2.432,0.961c-0.21,0.604-0.381,1.22-0.678,1.792c-0.994,1.915-3.505,3.146-5.507,2.705
		c-0.293-0.064-0.561-0.158-0.789-0.355c-1.541-0.646-2.584-0.36-3.543,0.971c-0.109,0.151-0.212,0.307-0.321,0.457
		c-1.729,2.373-4.871,2.342-6.493-0.111c-2.068-3.126-4.083-6.288-6.12-9.436c-3.078-4.754-6.134-9.522-9.243-14.257
		c-1.689-2.572-1.928-5.192-0.683-8.018c0.876-1.988,1.948-3.92,2.426-6.053c1.218-5.427-0.797-9.681-4.954-13.097
		c-0.888-0.729-1.906-1.255-2.897-1.825c-4.222-2.426-6.588-7.35-5.843-12.12c0.85-5.443,6.738-8.515,11.941-6.133
		c4.657,2.132,6.852,5.933,7.236,10.976c0.356,4.664,3.208,10.28,9.537,11.874c1.726,0.435,3.487,0.37,5.242,0.39
		C37.952,26.575,39.554,26.488,41.118,26.91z"/>
	<path fill-rule="evenodd" clip-rule="evenodd" d="M74.462,59.681c-1.111-0.173-1.404-0.546-1.404-1.812
		c-0.001-9.478-0.001-18.955-0.001-28.432c0-7.082,0-14.163,0-21.244c0-0.187-0.004-0.373-0.001-0.559
		c0.004-0.224-0.03-0.438-0.265-0.528c-0.241-0.092-0.402,0.075-0.556,0.224c-0.247,0.242-0.484,0.495-0.737,0.731
		c-1.334,1.248-3.188,1.151-4.372-0.241c-0.379-0.445-0.72-0.923-1.068-1.393c-0.366-0.495-0.669-0.435-0.958,0.075
		c-0.748,1.318-1.497,2.634-2.255,3.946c-1.34,2.317-3.736,2.454-5.366,0.31c-0.193-0.254-0.384-0.51-0.576-0.765
		c-0.566-0.75-0.659-0.771-1.327-0.061c-0.836,0.889-1.746,1.563-3.06,1.359c-0.959-0.149-1.665-0.666-2.162-1.481
		c-0.471-0.772-0.944-1.542-1.391-2.328c-0.272-0.478-0.531-0.558-1.006-0.208c-1.326,0.978-2.549,0.946-3.883-0.032
		c-0.236-0.173-0.473-0.345-0.704-0.524c-0.231-0.179-0.46-0.434-0.775-0.265c-0.312,0.167-0.226,0.511-0.227,0.796
		c-0.002,5.431-0.01,10.862,0.006,16.292c0.003,0.868-0.295,1.438-1.18,1.622c-1.031-0.174-1.381-0.557-1.382-1.591
		c-0.006-5.539-0.007-11.078,0.001-16.617c0.002-1.239,0.496-2.231,1.639-2.798c1.131-0.561,2.215-0.41,3.221,0.343
		c0.127,0.096,0.271,0.175,0.383,0.286c0.598,0.592,1.092,0.708,1.886,0.117c1.269-0.944,3.083-0.458,3.978,0.904
		c0.539,0.821,1.028,1.676,1.522,2.526c0.286,0.49,0.59,0.566,0.991,0.132c0.253-0.273,0.52-0.536,0.794-0.788
		c1.332-1.217,3.226-1.079,4.371,0.323c0.337,0.412,0.64,0.851,0.966,1.271c0.451,0.581,0.669,0.576,1.036-0.054
		c0.749-1.285,1.479-2.582,2.221-3.871c1.339-2.328,3.74-2.484,5.362-0.35c1.123,1.478,1.118,1.473,2.534,0.271
		c0.936-0.794,1.992-0.99,3.121-0.491c1.122,0.496,1.716,1.385,1.768,2.62c0.008,0.187,0.008,0.373,0.008,0.559
		c0,16.644,0,33.287,0,49.931C75.614,59.097,75.456,59.337,74.462,59.681z"/>
	<path fill-rule="evenodd" clip-rule="evenodd" fill="#FEC530" d="M40.071,72.937c3.297,0.73,5.606-0.588,6.654-3.798
		c0.024-0.075,0.054-0.149,0.077-0.226c0.632-1.975,1.066-2.148,2.893-1.154c2.374,1.292,5.23,0.797,7.048-1.222
		c1.636-1.818,3.407-1.88,5.162-0.177c1.68,1.63,3.408,3.212,5.021,4.904c2.079,2.183,4.52,3.578,7.54,3.897
		c-0.001,0.79-0.003,1.582-0.004,2.373c-0.867,0.083-1.311,0.551-1.434,1.425c-0.12,0.853-0.796,1.187-1.596,0.824
		c-0.798-0.36-1.571-0.774-2.359-1.155c-1.526-0.737-3.079-0.782-4.62-0.084c-1.777,0.807-3.323,0.546-4.757-0.787
		c-1.937-1.801-4.559-2.163-6.963-1.031c-0.672,0.316-1.327,0.671-2.002,0.979c-1.164,0.532-2.314,0.491-3.443-0.126
		c-1.892-1.035-3.014-0.919-4.636,0.469c-0.685,0.586-1.415,0.405-1.536-0.446c-0.107-0.746-0.497-1.137-1.161-1.345
		C39.994,75.15,40.032,74.044,40.071,72.937z"/>
	<path fill-rule="evenodd" clip-rule="evenodd" d="M67.938,30.958c0,3.063,0.003,6.126-0.001,9.189
		c-0.002,1.048-0.434,1.595-1.243,1.607c-0.837,0.012-1.311-0.568-1.311-1.643c-0.004-6.153,0-12.306-0.006-18.459
		c0-0.627,0.139-1.165,0.736-1.479c0.444-0.234,0.878-0.173,1.284,0.098c0.479,0.32,0.545,0.807,0.544,1.336
		C67.936,24.725,67.938,27.841,67.938,30.958z"/>
	<path fill-rule="evenodd" clip-rule="evenodd" d="M60.268,23.846c0,2.451,0.003,4.901-0.001,7.352
		c-0.003,1.048-0.434,1.595-1.244,1.607c-0.836,0.013-1.31-0.567-1.311-1.642c-0.004-4.875-0.005-9.749,0.001-14.624
		c0.001-1.235,0.853-1.927,1.806-1.495c0.592,0.269,0.755,0.762,0.752,1.37C60.262,18.891,60.268,21.369,60.268,23.846z"/>
	<path fill-rule="evenodd" clip-rule="evenodd" fill="#010000" d="M67.937,48.17c0,0.825,0.016,1.651-0.005,2.478
		c-0.02,0.794-0.488,1.299-1.189,1.334c-0.736,0.037-1.326-0.465-1.344-1.272c-0.037-1.704-0.036-3.41,0-5.113
		c0.016-0.751,0.609-1.277,1.283-1.271c0.719,0.006,1.232,0.549,1.251,1.369C67.952,46.519,67.938,47.344,67.937,48.17z"/>
	<path fill-rule="evenodd" clip-rule="evenodd" fill="#010100" d="M60.259,37.924c0.001,0.45,0.024,0.901-0.005,1.35
		c-0.046,0.707-0.448,1.128-1.147,1.19c-0.706,0.063-1.221-0.301-1.326-0.982c-0.158-1.019-0.15-2.064-0.006-3.083
		c0.096-0.679,0.622-1.065,1.316-1.007c0.679,0.057,1.118,0.465,1.162,1.183C60.28,37.023,60.258,37.474,60.259,37.924z"/>
	<path fill-rule="evenodd" clip-rule="evenodd" fill="#FED698" d="M75.251,72.594c-2.104-0.039-3.966-0.723-5.496-2.184
		c-2.002-1.912-4.03-3.803-5.946-5.8c-2.765-2.881-6.825-2.466-8.973,0.188c-1.077,1.331-2.692,1.46-4.173,0.55
		c-2.571-1.582-5.173-0.614-6.122,2.276c-0.979,2.983-1.495,3.256-4.577,2.566c-2.195-0.491-4.078,0.156-5.313,2.014
		c-1.115,1.677-2.133,1.869-3.333-0.114c-1.636-2.707-3.406-5.332-5.146-7.975c-0.272-0.413-0.253-0.651,0.095-0.992
		c0.647-0.632,1.256-1.304,1.854-1.983c0.352-0.4,0.708-0.472,1.199-0.263c0.634,0.271,1.29,0.493,1.947,0.703
		c2.414,0.769,4.588-1.188,4.07-3.66c-0.125-0.598-0.301-1.184-0.438-1.778c-0.173-0.748,0.174-1.063,0.911-0.814
		c0.78,0.263,1.535,0.592,2.398,0.396c1.397-0.319,2.343-1.32,2.531-2.732c0.117-0.875,0.296-0.991,1.145-0.717
		c1.036,0.335,2.065,0.691,3.105,1.013c2.376,0.733,4.465-1.003,4.186-3.466c-0.258-2.265-0.258-2.265,1.864-3.006
		c1.541-0.539,1.528-0.53,2.432,0.832c2.028,3.058,3.811,6.286,6.083,9.17c3.88,4.924,9.005,7.667,15.25,8.289
		c0.636,0.063,1.273,0.097,1.911,0.138c1.84,0.117,3.217,1.436,3.433,3.289c0.193,1.662-0.888,3.215-2.612,3.72
		C76.792,72.47,76.033,72.609,75.251,72.594z"/>
	<path fill-rule="evenodd" clip-rule="evenodd" fill="#CFBCB5" d="M15.421,46.213c0.009-0.981,0.188-1.665,0.467-2.34
		c0.882-2.134,2.042-4.169,2.604-6.417c1.534-6.134-0.392-11.2-4.955-15.392c-1.204-1.105-2.609-1.914-4.022-2.72
		c-3.239-1.848-5.075-5.573-4.604-9.236c0.478-3.72,4.224-6.042,7.758-4.702c4.105,1.557,5.923,4.708,6.369,9.001
		c0.673,6.494,3.773,11.373,10.092,13.813c1.581,0.611,3.242,0.824,4.927,0.857c1.57,0.031,3.142,0.017,4.712,0.053
		c2.085,0.049,3.54,1.11,4.57,2.869c0.29,0.495-0.128,0.544-0.352,0.69c-2.65,1.73-5.308,3.45-7.965,5.169
		c-5.806,3.757-11.622,7.499-17.406,11.289c-0.697,0.456-0.978,0.353-1.354-0.322C15.761,47.924,15.402,47.004,15.421,46.213z"/>
	<path fill-rule="evenodd" clip-rule="evenodd" fill="#6E5F5C" d="M32.267,56.043c0.01,0.557,0.346,1.354,0.522,2.183
		c0.064,0.303,0.143,0.572-0.124,0.804c-0.258,0.223-0.542,0.162-0.827,0.057c-0.673-0.249-1.337-0.528-2.022-0.738
		c-1.242-0.38-2.375-0.162-3.309,0.775c-0.601,0.604-1.17,1.238-1.74,1.871c-0.272,0.303-0.442,0.274-0.66-0.069
		c-0.826-1.303-1.652-2.608-2.525-3.879c-0.361-0.526,0.039-0.644,0.331-0.833c2.9-1.885,5.804-3.765,8.708-5.644
		c5.606-3.629,11.219-7.248,16.813-10.896c0.513-0.333,0.73-0.272,1.034,0.231c0.742,1.229,1.53,2.433,2.333,3.624
		c0.278,0.413,0.281,0.605-0.242,0.752c-0.664,0.186-1.305,0.454-1.964,0.662c-1.283,0.406-2.448,1.726-2.144,3.56
		c0.078,0.472,0.104,0.95,0.162,1.425c0.099,0.816-0.227,1.117-1.015,0.873c-1.016-0.315-2.017-0.678-3.027-1.008
		c-2.163-0.706-3.991,0.393-4.368,2.618c-0.141,0.829-0.322,0.95-1.117,0.657c-0.833-0.308-1.646-0.566-2.557-0.292
		C33.223,53.167,32.281,54.362,32.267,56.043z"/>
	<path fill-rule="evenodd" clip-rule="evenodd" fill="#93350F" d="M46.589,37.031c-0.04,0.326-0.34,0.392-0.544,0.525
		c-4.153,2.693-8.311,5.377-12.467,8.064c-4.335,2.803-8.676,5.598-12.997,8.422c-0.525,0.343-0.801,0.343-1.089-0.242
		c-0.233-0.475-0.538-0.922-0.867-1.338c-0.382-0.481-0.332-0.741,0.213-1.091c4.638-2.972,9.253-5.978,13.876-8.973
		c3.863-2.502,7.735-4.992,11.583-7.518c0.547-0.359,0.796-0.288,1.082,0.267c0.279,0.541,0.655,1.032,0.988,1.545
		C46.44,36.804,46.514,36.916,46.589,37.031z"/>
	<path fill-rule="evenodd" clip-rule="evenodd" d="M15.594,11.964c0.012,2.274-1.889,4.181-4.162,4.174
		c-2.337-0.007-4.249-1.899-4.238-4.194c0.01-2.256,1.86-4.1,4.122-4.108C13.695,7.827,15.582,9.648,15.594,11.964z"/>
	<path fill-rule="evenodd" clip-rule="evenodd" fill="#FDFDFD" d="M9.853,11.994c-0.007-0.89,0.661-1.581,1.536-1.588
		c0.879-0.008,1.563,0.669,1.57,1.553c0.006,0.874-0.687,1.599-1.538,1.61C10.57,13.581,9.86,12.868,9.853,11.994z"/>
</g>
</svg>
