<?xml version="1.0" encoding="utf-8"?>
<!-- Generator: Adobe Illustrator 16.0.0, SVG Export Plug-In . SVG Version: 6.00 Build 0)  -->
<!DOCTYPE svg PUBLIC "-//W3C//DTD SVG 1.1//EN" "http://www.w3.org/Graphics/SVG/1.1/DTD/svg11.dtd">
<svg version="1.1" id="Layer_1" xmlns="http://www.w3.org/2000/svg" xmlns:xlink="http://www.w3.org/1999/xlink" x="0px" y="0px"
	 width="85px" height="85px" viewBox="0 0 85 85" enable-background="new 0 0 85 85" xml:space="preserve">
<g>
	<path fill="#E1F4FD" d="M2.5,2.627h80v32.945h-80V2.627z"/>
	<g opacity="0.6" enable-background="new    ">
		<g>
			<path fill="#7883BF" d="M13.719,6.387c-0.472,0-0.905,0.17-1.239,0.454c-0.323-0.781-1.092-1.331-1.99-1.331
				c-0.943,0-1.744,0.606-2.036,1.449C8.416,6.956,8.376,6.955,8.337,6.955c-0.74,0-1.38,0.419-1.701,1.032h8.973
				C15.457,7.079,14.67,6.387,13.719,6.387z"/>
			<path fill="#7883BF" d="M15.574,8.936c0.303,0,0.582,0.109,0.796,0.292c0.208-0.502,0.702-0.856,1.28-0.856
				c0.606,0,1.122,0.39,1.31,0.932C18.985,9.301,19.01,9.3,19.036,9.3c0.476,0,0.888,0.27,1.094,0.664h-5.771
				C14.456,9.38,14.962,8.936,15.574,8.936z"/>
			<path fill="#7883BF" d="M21.816,6.868c-0.097,0-0.19,0.016-0.277,0.045c-0.168-0.313-0.5-0.526-0.88-0.526
				c-0.362,0-0.681,0.193-0.854,0.483c-0.39,0.025-0.718,0.273-0.859,0.618h3.706C22.542,7.129,22.209,6.868,21.816,6.868z"/>
			<path fill="#7883BF" d="M7.713,12.75c-0.097,0-0.19,0.016-0.276,0.045c-0.168-0.313-0.5-0.526-0.88-0.526
				c-0.362,0-0.681,0.193-0.854,0.483c-0.39,0.025-0.718,0.273-0.859,0.618h3.706C8.439,13.011,8.106,12.75,7.713,12.75z"/>
			<path fill="#7883BF" d="M18.212,15.63c-0.077,0-0.151,0.013-0.219,0.036c-0.134-0.249-0.396-0.417-0.698-0.417
				c-0.288,0-0.54,0.153-0.678,0.383c-0.309,0.02-0.569,0.216-0.682,0.49h2.939C18.788,15.837,18.524,15.63,18.212,15.63z"/>
			<path fill="#7883BF" d="M20.724,14.298c-0.454,0-0.864,0.177-1.171,0.464h2.342C21.588,14.475,21.177,14.298,20.724,14.298z"/>
		</g>
		<path fill="#7883BF" d="M59.562,9.375c0.304,0,0.582,0.11,0.797,0.292c0.208-0.502,0.702-0.856,1.28-0.856
			c0.606,0,1.121,0.39,1.31,0.932c0.024-0.002,0.05-0.003,0.075-0.003c0.476,0,0.888,0.27,1.094,0.664h-5.771
			C58.445,9.82,58.951,9.375,59.562,9.375z"/>
		<path fill="#7883BF" d="M67.123,10.821c-0.098,0-0.19,0.016-0.277,0.045c-0.168-0.313-0.5-0.526-0.88-0.526
			c-0.362,0-0.681,0.193-0.854,0.483c-0.39,0.024-0.718,0.273-0.859,0.618h3.705C67.849,11.083,67.517,10.821,67.123,10.821z"/>
		<path fill="#7883BF" d="M75.825,14.303c-0.076,0-0.148,0.012-0.216,0.035c-0.132-0.245-0.391-0.411-0.688-0.411
			c-0.283,0-0.531,0.15-0.667,0.377c-0.304,0.019-0.561,0.213-0.671,0.482h2.893C76.392,14.506,76.133,14.303,75.825,14.303z"/>
		<g>
			<path fill="#7883BF" d="M15.288,20.6c-0.472,0-0.905,0.17-1.239,0.454c-0.323-0.781-1.092-1.331-1.99-1.331
				c-0.943,0-1.745,0.606-2.036,1.45c-0.039-0.004-0.078-0.005-0.118-0.005c-0.74,0-1.38,0.419-1.701,1.032h8.973
				C17.026,21.292,16.239,20.6,15.288,20.6z"/>
			<path fill="#7883BF" d="M17.143,23.148c0.304,0,0.582,0.11,0.797,0.292c0.208-0.502,0.702-0.856,1.28-0.856
				c0.606,0,1.122,0.39,1.31,0.932c0.025-0.002,0.05-0.003,0.076-0.003c0.476,0,0.888,0.27,1.093,0.664h-5.771
				C16.025,23.594,16.531,23.148,17.143,23.148z"/>
			<path fill="#7883BF" d="M23.385,21.081c-0.097,0-0.19,0.016-0.277,0.045c-0.168-0.313-0.5-0.526-0.88-0.526
				c-0.362,0-0.681,0.193-0.854,0.483c-0.39,0.024-0.718,0.273-0.859,0.618h3.706C24.111,21.342,23.778,21.081,23.385,21.081z"/>
			<path fill="#7883BF" d="M9.282,26.963c-0.097,0-0.19,0.016-0.276,0.045c-0.168-0.313-0.5-0.526-0.88-0.526
				c-0.362,0-0.681,0.193-0.854,0.483c-0.39,0.024-0.718,0.273-0.859,0.618h3.706C10.008,27.224,9.675,26.963,9.282,26.963z"/>
			<path fill="#7883BF" d="M19.781,29.843c-0.077,0-0.151,0.013-0.22,0.036c-0.133-0.249-0.396-0.417-0.698-0.417
				c-0.288,0-0.54,0.153-0.678,0.383c-0.309,0.02-0.569,0.217-0.682,0.49h2.939C20.356,30.05,20.093,29.843,19.781,29.843z"/>
			<path fill="#7883BF" d="M22.292,28.511c-0.454,0-0.864,0.177-1.171,0.464h2.342C23.157,28.688,22.746,28.511,22.292,28.511z"/>
		</g>
		<path fill="#7883BF" d="M43.4,20.318c-0.472,0-0.904,0.17-1.238,0.454c-0.323-0.781-1.092-1.331-1.99-1.331
			c-0.943,0-1.745,0.606-2.036,1.45c-0.039-0.004-0.078-0.005-0.118-0.005c-0.74,0-1.38,0.419-1.701,1.032h8.973
			C45.139,21.01,44.352,20.318,43.4,20.318z"/>
		<path fill="#7883BF" d="M45.256,22.866c0.303,0,0.581,0.11,0.797,0.292c0.207-0.502,0.702-0.856,1.279-0.856
			c0.606,0,1.122,0.39,1.31,0.932c0.024-0.002,0.05-0.003,0.075-0.003c0.477,0,0.889,0.27,1.094,0.664H44.04
			C44.138,23.312,44.644,22.866,45.256,22.866z"/>
		<path fill="#7883BF" d="M51.497,20.799c-0.097,0-0.189,0.016-0.276,0.045c-0.168-0.313-0.5-0.526-0.88-0.526
			c-0.362,0-0.681,0.193-0.854,0.483c-0.39,0.024-0.718,0.273-0.859,0.617h3.705C52.224,21.06,51.892,20.799,51.497,20.799z"/>
		<path fill="#7883BF" d="M38.512,28.619c-0.077,0-0.151,0.013-0.219,0.036c-0.134-0.249-0.396-0.417-0.698-0.417
			c-0.288,0-0.54,0.153-0.678,0.383c-0.309,0.02-0.569,0.217-0.682,0.49h2.939C39.088,28.827,38.824,28.619,38.512,28.619z"/>
		<path fill="#7883BF" d="M35.188,30.268c-0.453,0-0.864,0.177-1.171,0.464h2.342C36.053,30.445,35.642,30.268,35.188,30.268z"/>
		<path fill="#7883BF" d="M42.303,8.238c-0.472,0-0.905,0.17-1.239,0.454c-0.323-0.781-1.092-1.331-1.99-1.331
			c-0.943,0-1.745,0.606-2.036,1.45C37,8.807,36.96,8.806,36.92,8.806c-0.74,0-1.38,0.419-1.701,1.032h8.973
			C44.04,8.93,43.254,8.238,42.303,8.238z"/>
		<path fill="#7883BF" d="M44.157,10.787c0.304,0,0.582,0.109,0.797,0.292c0.208-0.503,0.702-0.856,1.279-0.856
			c0.607,0,1.122,0.39,1.31,0.933c0.025-0.002,0.051-0.003,0.076-0.003c0.476,0,0.888,0.27,1.094,0.664h-5.771
			C43.04,11.232,43.546,10.787,44.157,10.787z"/>
		<path fill="#7883BF" d="M50.399,8.719c-0.097,0-0.19,0.016-0.276,0.045c-0.169-0.313-0.5-0.526-0.881-0.526
			c-0.362,0-0.68,0.193-0.854,0.482c-0.39,0.025-0.718,0.273-0.859,0.618h3.706C51.125,8.98,50.793,8.719,50.399,8.719z"/>
		<path fill="#7883BF" d="M36.912,14.469c-0.077,0-0.151,0.013-0.22,0.036c-0.133-0.249-0.396-0.417-0.698-0.417
			c-0.288,0-0.54,0.153-0.678,0.383c-0.309,0.02-0.569,0.217-0.682,0.49h2.939C37.488,14.676,37.224,14.469,36.912,14.469z"/>
		<path fill="#7883BF" d="M33.588,16.118c-0.454,0-0.864,0.177-1.171,0.464h2.342C34.452,16.295,34.041,16.118,33.588,16.118z"/>
		<path fill="#7883BF" d="M56.869,15.616c-0.454,0-0.865,0.177-1.172,0.464h2.343C57.733,15.793,57.322,15.616,56.869,15.616z"/>
		<path fill="#7883BF" d="M72.328,15.369c-0.453,0-0.864,0.177-1.171,0.464H73.5C73.192,15.546,72.781,15.369,72.328,15.369z"/>
		<path fill="#7883BF" d="M75.436,7.334c-0.434,0-0.842,0.1-1.196,0.275c-0.267-0.594-0.861-1.008-1.555-1.008
			c-0.687,0-1.276,0.407-1.547,0.991c-0.184-0.068-0.382-0.106-0.589-0.106c-0.129,0-0.253,0.015-0.374,0.042
			c-0.27-0.585-0.86-0.992-1.547-0.992c-0.754,0-1.393,0.49-1.617,1.169c-0.136-0.043-0.281-0.068-0.433-0.068
			c-0.661,0-1.207,0.45-1.301,1.036h12.434C77.335,7.886,76.458,7.334,75.436,7.334z"/>
		<path fill="#7883BF" d="M61.208,23.551c0.304,0,0.582,0.109,0.797,0.292c0.208-0.502,0.702-0.856,1.28-0.856
			c0.606,0,1.121,0.39,1.309,0.933c0.025-0.002,0.051-0.003,0.076-0.003c0.476,0,0.888,0.269,1.094,0.664h-5.771
			C60.091,23.996,60.597,23.551,61.208,23.551z"/>
		<path fill="#7883BF" d="M68.768,24.998c-0.097,0-0.189,0.016-0.276,0.045c-0.168-0.313-0.5-0.526-0.88-0.526
			c-0.362,0-0.681,0.193-0.854,0.482c-0.39,0.025-0.718,0.273-0.859,0.618h3.705C69.494,25.259,69.162,24.998,68.768,24.998z"/>
		<path fill="#7883BF" d="M77.471,28.479c-0.076,0-0.148,0.013-0.216,0.036c-0.132-0.245-0.391-0.411-0.688-0.411
			c-0.283,0-0.531,0.151-0.667,0.377c-0.305,0.02-0.561,0.213-0.671,0.482h2.893C78.037,28.683,77.777,28.479,77.471,28.479z"/>
		<path fill="#7883BF" d="M58.514,29.792c-0.453,0-0.864,0.177-1.171,0.464h2.343C59.379,29.969,58.968,29.792,58.514,29.792z"/>
		<path fill="#7883BF" d="M73.974,29.545c-0.453,0-0.864,0.177-1.171,0.464h2.342C74.838,29.723,74.427,29.545,73.974,29.545z"/>
		<path fill="#7883BF" d="M77.081,21.511c-0.434,0-0.842,0.1-1.196,0.274c-0.267-0.594-0.861-1.008-1.555-1.008
			c-0.687,0-1.276,0.406-1.547,0.991c-0.184-0.068-0.382-0.107-0.589-0.107c-0.129,0-0.254,0.016-0.374,0.042
			c-0.27-0.585-0.86-0.992-1.547-0.992c-0.754,0-1.393,0.49-1.617,1.169c-0.136-0.043-0.281-0.068-0.433-0.068
			c-0.661,0-1.207,0.45-1.301,1.036h12.434C78.98,22.062,78.104,21.511,77.081,21.511z"/>
	</g>
	<path fill="#91776F" d="M2.5,36.398h80v45.975h-80V36.398z"/>
	<path fill="#9E827B" d="M2.5,41.023h80v1.031h-80V41.023z"/>
	<g>
		<path fill="#7D625C" d="M65.282,74.482c0,0.191,0.156,0.348,0.348,0.348h3.719v-0.695H65.63
			C65.438,74.137,65.283,74.291,65.282,74.482z"/>
		<path fill="#7D625C" d="M73.665,74.135h-5.284v0.695h5.284c0.19,0,0.347-0.156,0.347-0.348S73.856,74.137,73.665,74.135z
			 M75.26,74.125c-0.189,0.002-0.343,0.154-0.344,0.344c0.001,0.189,0.154,0.344,0.344,0.344s0.344-0.154,0.344-0.344
			S75.449,74.127,75.26,74.125z"/>
	</g>
	<path fill="#7D625C" d="M49.447,63.236H28.053c-0.281,0-0.511,0.229-0.511,0.51s0.23,0.512,0.511,0.512h21.395
		c0.28,0,0.511-0.23,0.511-0.512S49.728,63.236,49.447,63.236z M79.306,53.652H57.912c-0.281,0-0.511,0.229-0.511,0.51
		s0.229,0.512,0.511,0.512h21.394c0.281,0,0.511-0.23,0.511-0.512S79.587,53.652,79.306,53.652z M78.608,75.486H55.119
		c-0.281,0-0.511,0.229-0.511,0.51s0.229,0.512,0.511,0.512h23.489c0.281,0,0.511-0.23,0.511-0.512S78.89,75.486,78.608,75.486z
		 M53.503,45.566h-23.49c-0.281,0-0.511,0.23-0.511,0.512c0,0.279,0.23,0.51,0.511,0.51h23.49c0.28,0,0.51-0.23,0.51-0.51
		C54.013,45.797,53.783,45.566,53.503,45.566z M2.5,80.064h79.909v2.309H2.5V80.064z"/>
	<path fill="#83BF64" d="M2.5,35.302h80v5.721h-80V35.302z"/>
	<path fill="#73A954" d="M2.5,38.524h80v2.499h-80V38.524z"/>
	<path fill="#7D625C" d="M52.13,47.404h-3.097c-0.191,0-0.348,0.156-0.348,0.346c0,0.191,0.156,0.348,0.348,0.348h3.097
		c0.191,0,0.348-0.156,0.348-0.348C52.478,47.561,52.321,47.404,52.13,47.404z M47.75,47.404h-4.979
		c-0.191,0-0.348,0.156-0.348,0.346c0,0.191,0.156,0.348,0.348,0.348h4.979c0.191,0,0.348-0.156,0.348-0.348
		C48.098,47.561,47.941,47.404,47.75,47.404z"/>
	<g>
		<path fill="#7D625C" d="M16.018,57.428c0,0.193,0.156,0.348,0.348,0.348h6.188v-0.693h-6.188
			C16.174,57.082,16.019,57.236,16.018,57.428z"/>
		<path fill="#7D625C" d="M24.918,57.082h-4.494v0.693h4.494c0.191,0,0.347-0.156,0.347-0.348
			C25.265,57.238,25.109,57.082,24.918,57.082z M14.558,57.082H11.46c-0.191,0-0.347,0.154-0.347,0.346
			c0,0.193,0.156,0.348,0.347,0.348h3.097c0.192,0,0.347-0.154,0.348-0.348C14.904,57.236,14.75,57.082,14.558,57.082z
			 M9.889,57.086c-0.189,0-0.343,0.152-0.343,0.342c0,0.191,0.154,0.344,0.343,0.344c0.19,0,0.343-0.154,0.344-0.344
			C10.232,57.238,10.079,57.086,9.889,57.086z"/>
	</g>
	<g>
		<path fill="#7D625C" d="M23.445,55.129H5.424c-0.281,0-0.511,0.23-0.511,0.512s0.23,0.51,0.511,0.51h18.021
			c0.281,0,0.511-0.229,0.511-0.51S23.726,55.129,23.445,55.129L23.445,55.129z M8.023,53.734c-0.189,0.002-0.343,0.154-0.344,0.344
			c0,0.189,0.155,0.344,0.344,0.344s0.343-0.154,0.343-0.344C8.366,53.889,8.213,53.736,8.023,53.734z M6.781,53.734
			c-0.189,0.002-0.343,0.154-0.344,0.344c0,0.189,0.154,0.344,0.344,0.344s0.343-0.154,0.344-0.344
			C7.124,53.889,6.97,53.736,6.781,53.734z"/>
	</g>
	<g>
		<path fill="#7883C0" d="M61.852,33.275h17.184v0.467H61.852V33.275z"/>
		<path fill="#FDD8CD" d="M65.434,33.275h2.818v0.467h-2.818V33.275z M71.722,33.275h2.631v0.467h-2.631V33.275z"/>
		<path fill="#7883C0" d="M61.852,35.069h17.184v0.467H61.852V35.069z"/>
		<path fill="#FDD8CD" d="M65.434,35.069h2.818v0.467h-2.818V35.069z M71.722,35.069h2.631v0.467h-2.631V35.069z"/>
		<path fill="#7883C0" d="M61.852,36.863h17.184v0.467H61.852V36.863z"/>
		<path fill="#FDD8CD" d="M65.434,36.863h2.818v0.467h-2.818V36.863z M71.722,36.863h2.631v0.467h-2.631V36.863z"/>
		<path fill="#7883C0" d="M79.12,33.275h3.38v0.467h-3.38V33.275z M79.12,35.069h3.38v0.467h-3.38V35.069z"/>
		<g>
			<path fill="#7883C0" d="M79.12,36.863h3.38v0.467h-3.38V36.863z"/>
		</g>
		<g>
			<path fill="#7883C0" d="M44.43,33.275h17.184v0.467H44.43V33.275z"/>
			<path fill="#FDD8CD" d="M48.013,33.275h2.817v0.467h-2.817V33.275z M54.301,33.275h2.631v0.467h-2.631V33.275z"/>
		</g>
		<g>
			<path fill="#7883C0" d="M44.43,35.069h17.184v0.467H44.43V35.069z"/>
			<path fill="#FDD8CD" d="M48.013,35.069h2.817v0.467h-2.817V35.069z M54.301,35.069h2.631v0.467h-2.631V35.069z"/>
		</g>
		<g>
			<path fill="#7883C0" d="M44.43,36.863h17.184v0.467H44.43V36.863z"/>
			<path fill="#FDD8CD" d="M48.013,36.863h2.817v0.467h-2.817V36.863z M54.301,36.863h2.631v0.467h-2.631V36.863z"/>
		</g>
		<g>
			<path fill="#FDD8CD" d="M61.521,32.235h0.466v8.578h-0.466V32.235z"/>
			<path fill="#EEB4A8" d="M61.753,32.235h0.233v8.578h-0.233V32.235z M60.371,40.854l1.149-0.847v-0.432l-1.769,1.238
				L60.371,40.854z"/>
			<path fill="#D3968D" d="M61.986,40.007l1.149,0.847l0.618-0.041l-1.768-1.238V40.007z"/>
			<path fill="#F3B79F" d="M59.417,40.813h4.672v0.248h-4.672V40.813z"/>
		</g>
		<g>
			<path fill="#FDD8CD" d="M78.802,32.235h0.466v8.578h-0.466V32.235z"/>
			<path fill="#EEB4A8" d="M79.035,32.235h0.232v8.578h-0.232V32.235z M77.653,40.854l1.148-0.847v-0.432l-1.768,1.238
				L77.653,40.854z"/>
			<path fill="#D3968D" d="M79.268,40.007l1.149,0.847l0.619-0.041l-1.769-1.238V40.007z"/>
			<path fill="#F3B79F" d="M76.699,40.813h4.672v0.248h-4.672V40.813z"/>
		</g>
		<g>
			<path fill="#7883C0" d="M9.812,33.275h17.184v0.467H9.812V33.275z"/>
			<path fill="#FDD8CD" d="M13.395,33.275h2.818v0.467h-2.818V33.275z M19.683,33.275h2.631v0.467h-2.631V33.275z"/>
			<path fill="#7883C0" d="M9.812,35.069h17.184v0.467H9.812V35.069z"/>
			<path fill="#FDD8CD" d="M13.395,35.069h2.818v0.467h-2.818V35.069z M19.683,35.069h2.631v0.467h-2.631V35.069z"/>
			<path fill="#7883C0" d="M9.812,36.863h17.184v0.467H9.812V36.863z"/>
			<path fill="#FDD8CD" d="M13.395,36.863h2.818v0.467h-2.818V36.863z M19.683,36.863h2.631v0.467h-2.631V36.863z"/>
			<path fill="#7883C0" d="M27.081,33.275h17.184v0.467H27.081V33.275z"/>
			<path fill="#FDD8CD" d="M30.664,33.275h2.818v0.467h-2.818V33.275z M36.952,33.275h2.631v0.467h-2.631V33.275z"/>
			<g>
				<path fill="#7883C0" d="M27.081,35.069h17.184v0.467H27.081V35.069z"/>
				<path fill="#FDD8CD" d="M30.664,35.069h2.818v0.467h-2.818V35.069z M36.952,35.069h2.631v0.467h-2.631V35.069z"/>
			</g>
			<g>
				<path fill="#7883C0" d="M27.081,36.863h17.184v0.467H27.081V36.863z"/>
				<path fill="#FDD8CD" d="M30.664,36.863h2.818v0.467h-2.818V36.863z M36.952,36.863h2.631v0.467h-2.631V36.863z"/>
			</g>
			<g>
				<path fill="#7883C0" d="M2.5,33.275h7.074v0.467H2.5V33.275z"/>
				<path fill="#FDD8CD" d="M2.5,33.275h2.393v0.467H2.5V33.275z"/>
			</g>
			<g>
				<path fill="#7883C0" d="M2.5,35.069h7.074v0.467H2.5V35.069z"/>
				<path fill="#FDD8CD" d="M2.5,35.069h2.393v0.467H2.5V35.069z"/>
			</g>
			<g>
				<path fill="#7883C0" d="M2.5,36.863h7.074v0.467H2.5V36.863z"/>
				<path fill="#FDD8CD" d="M2.5,36.863h2.393v0.467H2.5V36.863z"/>
			</g>
			<g>
				<path fill="#FDD8CD" d="M9.481,32.235h0.466v8.578H9.481V32.235z"/>
				<path fill="#EEB4A8" d="M9.714,32.235h0.233v8.578H9.714V32.235z M8.332,40.854l1.149-0.847v-0.432l-1.768,1.238L8.332,40.854z"
					/>
				<path fill="#D3968D" d="M9.947,40.007l1.149,0.847l0.619-0.041l-1.768-1.238V40.007z"/>
				<path fill="#F3B79F" d="M7.378,40.813h4.672v0.248H7.378V40.813z"/>
			</g>
			<g>
				<path fill="#FDD8CD" d="M44.099,32.235h0.466v8.578h-0.466V32.235z"/>
				<path fill="#EEB4A8" d="M44.331,32.235h0.233v8.578h-0.233V32.235z M42.949,40.854l1.149-0.847v-0.432l-1.769,1.238
					L42.949,40.854z"/>
				<path fill="#D3968D" d="M44.564,40.007l1.149,0.847l0.619-0.041l-1.769-1.238V40.007z"/>
				<path fill="#F3B79F" d="M41.996,40.813h4.671v0.248h-4.671V40.813z"/>
			</g>
			<g>
				<path fill="#FDD8CD" d="M26.763,32.235h0.466v8.578h-0.466V32.235z"/>
				<path fill="#EEB4A8" d="M26.996,32.235h0.233v8.578h-0.233V32.235z M25.614,40.854l1.149-0.847v-0.432l-1.769,1.238
					L25.614,40.854z"/>
				<path fill="#D3968D" d="M27.229,40.007l1.149,0.847l0.619-0.041l-1.768-1.238V40.007z"/>
				<path fill="#F3B79F" d="M24.66,40.813h4.672v0.248H24.66V40.813z"/>
			</g>
		</g>
	</g>
	<g>
		<path fill="#616161" d="M78.628,43.209c-1.642-1.376-3.631,0.602-3.631,0.602s0.043,0.613,0.59,0.246
			c0.546-0.367,1.25-0.686,1.821,0c0.347,0.416,0.483,1.719,1.648,2.023c1.166,0.305,0.979,1.385,0.979,1.385s0.562-0.387,0.362-1.1
			c-0.137-0.488-1.006-0.936-1.006-0.936s1.006,0.283,1.665-0.199c0.632-0.459,0.58-1.537,0.58-1.537S80.269,44.582,78.628,43.209
			L78.628,43.209z"/>
		<path fill="#C16628" d="M63.456,40.422l0.127,0.417c0,0,0.987,0.601,1.528,0.537s0.652-0.254,0.652-0.254l-0.652-0.645
			L63.456,40.422L63.456,40.422z"/>
		<path fill="#C16628" d="M65.117,38.901c0,0-0.374,0.451-0.31,1.01c0.065,0.559,0.347,1.052,0.405,1.195
			c0.058,0.143,0.624,0.191,0.624,0.191S66.094,39.639,65.117,38.901z"/>
		<g>
			<path fill="#878787" d="M65.5,47.045c-0.121-0.457-0.552-1.643-0.552-1.643s-2.081,0.453-1.96,0.988
				c0.488,2.162,0.344,3.438,0.265,4.127c-0.078,0.689,0.438,0.863,0.705,0.922c0.068,0.014,0.199,0.027,0.365,0.041
				c0.182-0.238,0.44-0.527,0.764-0.756l-0.511-0.082C64.576,50.643,65.622,47.5,65.5,47.045z"/>
			<path fill="#878787" d="M66.044,50.881c-0.242,0.002-0.957-0.156-0.957-0.156c-0.323,0.229-0.582,0.518-0.764,0.756
				c0.479,0.039,1.251,0.066,1.644,0.166c0.908,0.227,1.647-0.201,1.647-0.201l-0.884-0.783
				C66.73,50.662,66.424,50.875,66.044,50.881L66.044,50.881z"/>
		</g>
		<g>
			<path fill="#878787" d="M73.802,46.543l-2.061,0.588c0,0-0.42,1.391,0.405,2.066c0.885,0.727,2.158,0.043,2.158,0.043
				s-0.064,0.246-0.147,0.611c0.234,0.203,0.442,0.434,0.621,0.686c0.002-0.002,0.002-0.006,0.003-0.01
				c0.116-0.35,0.402-0.938,0.621-1.209c0.292-0.359,0.721-0.562,0.511-1.045C75.545,47.426,73.802,46.543,73.802,46.543
				L73.802,46.543z"/>
			<path fill="#878787" d="M74.861,52.184c0-0.371-0.443-0.539-0.083-1.646c-0.179-0.252-0.387-0.482-0.621-0.686
				c-0.184,0.811-0.459,2.211-0.328,2.811c0.188,0.873,0.522,1.312,0.522,1.312l0.732-0.9l-0.318-0.287
				C74.766,52.787,74.861,52.555,74.861,52.184L74.861,52.184z"/>
		</g>
		<path fill="#878787" d="M62.762,39.911c-1.245-0.473-2.818,0-2.818,0l0.338,0.582l2.479,0.741c0,0,2.983,1.572,2.608,1.036
			C64.993,41.735,64.315,40.5,62.762,39.911L62.762,39.911z"/>
		<path fill="#616161" d="M59.682,39.468c-0.268,0.478-0.15,0.89-0.15,0.89l0.268,0.12c0,0,0.16-0.186,0.354-0.631
			c0.193-0.445-0.07-0.945-0.07-0.945S59.948,38.99,59.682,39.468z"/>
		<path fill="#C0BFC2" d="M73.795,42.762c-1.379-0.655-2.983,0.117-4.212,0.285c-0.962,0.131-3.005-0.187-3.958-0.629
			c-0.829-0.385-1.68-1.715-2.914-2.208c-0.443-0.177-1.399-0.228-2.241-0.074c-0.763,0.14-1.436,0.458-1.564,1.044
			c0,0-0.012,0.02-0.028,0.056c0.149-0.009,0.268,0.006,0.268,0.006s-0.04,0.616-0.064,0.97c-0.025,0.354,0.302,1.395,0.331,1.963
			c0.016,0.324-0.164,0.379-0.303,0.527c0.018,0.135,0.056,0.438,0.068,0.516c0.078,0.467,0.7,0.41,0.846,0.293
			c0.125,0.1,0.344,0.082,0.461-0.074c0.116-0.156,0.17-0.373,0.17-0.684c0-0.312,0.258-0.506,0.412-1.166
			c0.084-0.357,0.17-0.665,0.17-0.895c0.311,0.229,0.684,0.959,0.738,1.256c0.128,0.695,0.201,1.125,0.388,1.775
			c0.35,1.223,0.971,1.67,0.971,1.67c1.01,0.666,3.185,1.084,4.815,1.145s2.754-0.211,3.456-0.479
			c0.621-0.236,2.136,0.418,2.835,0.227c0.698-0.193,1.017-0.871,1.619-2.385C76.535,44.701,75.331,43.49,73.795,42.762
			L73.795,42.762z"/>
		<path fill="#FFFFFF" d="M59.08,42.213c0.024-0.354,0.064-0.97,0.064-0.97s-0.118-0.016-0.268-0.006
			c-0.053,0.108-0.158,0.362-0.158,0.632c0,0.358,0.056,0.345,0.148,0.83c0.061,0.317,0.158,1.339,0.241,2.005
			c0.139-0.148,0.318-0.203,0.302-0.527C59.382,43.607,59.055,42.567,59.08,42.213L59.08,42.213z"/>
		<path fill="#B0B0B0" d="M63.305,46.391c-0.345-0.486-0.709-1.926-1.001-2.803c-0.292-0.875-1.01-1.318-1.01-1.318l-0.059,0.423
			c0.68,0.663,0.694,1.502,1.028,2.672c0.354,1.24,0.623,1.748,1.146,2.078c0.521,0.33,1.047,0.445,1.047,0.445l0.031-0.826
			C64.487,47.062,63.771,47.051,63.305,46.391L63.305,46.391z M65.343,47.432l-0.13,0.693c0,0,1.642,0.48,4.096,0.4
			c0.229-0.008,0.694-0.051,1.155-0.145c0.523-0.109,1.032-0.271,1.032-0.271l0.429-1.258c0,0-0.889,0.594-3.043,0.885
			C67.439,47.93,65.343,47.432,65.343,47.432L65.343,47.432z"/>
		<path fill="#C0BFC2" d="M63.931,45.881c-1.06,1.945-2.01,2.807-2.524,3.273c-0.514,0.467-0.242,0.938-0.079,1.158
			c0.042,0.057,0.132,0.152,0.247,0.271c0.295-0.059,0.679-0.104,1.072-0.062l-0.329-0.4c0,0,2.771-1.727,3.069-2.092
			c0.759-0.932,0.668-1.598,0.668-1.598S64.193,45.398,63.931,45.881L63.931,45.881z"/>
		<path fill="#878787" d="M63.264,51.27c-0.185-0.158-0.617-0.748-0.617-0.748c-0.394-0.041-0.778,0.004-1.072,0.062
			c0.333,0.346,0.896,0.877,1.125,1.209c0.533,0.771,1.371,0.938,1.371,0.938l-0.147-1.172
			C63.923,51.559,63.552,51.518,63.264,51.27L63.264,51.27z M59.363,42.362c-0.138,0.117-0.065,0.312-0.065,0.312
			s0.253,0.047,0.4-0.081c0.146-0.128,0.061-0.38,0.061-0.38S59.539,42.213,59.363,42.362z M59.72,40.133
			c-0.15,0.031-0.46,0.173-0.64,0.402c-0.253,0.321-0.289,0.917-0.289,0.917l1.664,0.147l-0.199-1.508
			C60.256,40.091,60.129,40.05,59.72,40.133z"/>
		<path fill="#312C36" d="M59.778,44.424c-0.36,0.014-0.698,0.139-0.698,0.139l0.034,0.227c0,0,0.461-0.125,0.778-0.125
			s0.762,0.074,0.762,0.074l0.051-0.242C60.705,44.496,60.273,44.406,59.778,44.424L59.778,44.424z M58.811,41.077
			c-0.245,0.381-0.092,0.792-0.092,0.792s0.158,0.068,0.922-0.25c0.321-0.134,0.814-0.019,0.814-0.019v-0.448
			C60.455,41.151,58.9,40.937,58.811,41.077L58.811,41.077z"/>
		<path fill="#FFFFFF" d="M60.283,44.18c-0.185,0-0.335,0.15-0.335,0.334c0,0.186,0.15,0.334,0.335,0.334
			c0.184,0,0.334-0.148,0.334-0.334C60.617,44.33,60.467,44.18,60.283,44.18z M60.283,44.732c-0.12-0.002-0.218-0.098-0.218-0.219
			c0-0.119,0.098-0.217,0.218-0.217s0.217,0.098,0.217,0.217C60.5,44.635,60.403,44.73,60.283,44.732z"/>
		<path fill="#312C36" d="M60.281,40.493c0.013,0.358,0.076,0.846,0.073,1.466c-0.002,0.667-0.202,2.4-0.202,2.4h0.258
			c0,0,0.154-1.509,0.228-2.283c0.062-0.667-0.124-1.649-0.356-1.86C60.254,40.347,60.281,40.493,60.281,40.493z M64.068,40.686
			c-1.252,1.498-3.589,3.736-3.589,3.736l0.02,0.127c0,0,2.435-2.119,3.716-3.741C64.168,40.74,64.127,40.736,64.068,40.686
			L64.068,40.686z"/>
		<path fill="#878787" d="M60.129,39.458c-0.32,0.45-0.345,1.199-0.345,1.199s0.164,0.372,0.555,0.062
			c0.317-0.378,0.278-1.741,0.278-1.741S60.448,39.008,60.129,39.458z"/>
		<path fill="#312C36" d="M68.805,48.203c-0.135-0.1-0.493-0.137-0.567-0.236c-0.225-0.307,0.041-1.834,0.041-1.834l-0.758-0.053
			c0,0-0.057,0.975-0.228,1.52c-0.171,0.543-0.438,0.83-0.438,0.83s0.865,0.092,1.156,0.107c0.252,0.012,1.016,0.002,1.016,0.002
			S69,48.346,68.805,48.203L68.805,48.203z"/>
		<path fill="#5E3F3E" d="M69.998,42.448c-0.341,0.045-1.942,0.229-2.698,0.115c-0.757-0.114-1.932-0.293-1.932-0.293
			s-0.176,1.133,0.032,2.547c0.209,1.414,1.454,1.77,2.878,1.791c1.424,0.023,1.436,0.031,1.862,0.008
			c0.426-0.021,0.8-0.158,0.807-1.043c0.006-0.723,0.001-2.346-0.134-2.812C70.542,42.42,70.338,42.402,69.998,42.448L69.998,42.448
			z"/>
		<g>
			<path fill="#C0BFC2" d="M72.159,46.555c0,0-0.259,0.369-0.663,1.555c-0.315,0.928,0.637,1.859,1.047,2.775
				c0,0-0.059,0.094-0.149,0.227c0.355,0.068,0.733,0.193,0.986,0.414c0.402-0.277,0.687-0.26,0.642-0.627
				c-0.049-0.383-0.669-1.516-0.717-1.74c-0.047-0.223,1.099-0.295,1.91-1.465C75.633,47.092,72.159,46.555,72.159,46.555
				L72.159,46.555z"/>
			<path fill="#878787" d="M71.635,51.996c-0.436,0.322-0.883,0.709-1.074,1.17c-0.246,0.592-0.069,1.17-0.069,1.17l1.024-0.59
				l-0.061-0.619c0,0,0.542-0.053,0.848-0.574c0.316-0.541,0.597-0.676,1.026-0.992c0.018-0.014,0.034-0.023,0.051-0.035
				c-0.253-0.221-0.631-0.344-0.986-0.414C72.21,51.377,71.894,51.807,71.635,51.996L71.635,51.996z"/>
		</g>
		<path fill="#EA8B48" d="M67.673,42.069c-0.718-0.023-1.824-0.271-1.824-0.271s-0.033,0.342,0.011,0.546
			c0.058,0.273,0.258,0.41,0.199,0.865c-0.104,0.793-0.222,1.869,0.409,2.355c0.367,0.283,1.293,0.311,1.861,0.188
			c0.698-0.15,0.585-1.855,0.585-2.191s-0.143-0.791,0.113-1.012c0.362-0.314,0.25-0.606,0.25-0.606S68.425,42.093,67.673,42.069z"
			/>
		<path fill="#EDAA98" d="M64.493,39.024c0.344,0.091,0.718,0.466,0.718,0.466l0.422-0.788l-1.292-0.581
			C64.341,38.122,64.451,38.816,64.493,39.024L64.493,39.024z"/>
		<g>
			<path fill="#FABEAA" d="M63.762,37.953c-0.293,0.127-0.37,0.261-0.253,0.689c0.099,0.36,0.326,0.544,0.513,0.661
				c0.169,0.105,0.47,0.169,0.549,0.082c0.134-0.15,0.223-0.663,0.046-1.071C64.438,37.906,64.055,37.825,63.762,37.953
				L63.762,37.953z"/>
			<path fill="#514855" d="M64.364,37.659c-0.198-0.146-0.543-0.056-0.781,0.17c-0.52,0.494-0.217,0.63-0.116,0.766
				c0.064,0.087,0.205-0.162,0.391-0.125c0.186,0.037,0.343,0.018,0.343,0.018s0.005-0.163,0.052-0.204s0.147-0.002,0.205,0.056
				c0.058,0.057,0.268,0.195,0.435,0.011C64.759,38.223,64.75,37.943,64.364,37.659z"/>
		</g>
		<path fill="#FDD8CD" d="M64.926,38.885c0.012,0.232,0.194,0.332,0.194,0.332l0.379-0.586l-0.28-0.311
			C65.219,38.32,64.918,38.74,64.926,38.885L64.926,38.885z"/>
		<path fill="#8F5252" d="M67.415,43.68c-0.047-0.041-0.22-0.018-0.22-0.018s0.733,1.688,1.058,1.973
			c0.382,0.332,0.126-0.049,0.126-0.049S67.726,44.668,67.415,43.68L67.415,43.68z"/>
		<path fill="#FDD8CD" d="M68.463,40.021c0,0-0.936,0.897-1.272,1.254c-0.517,0.548-0.536,1.009-0.585,1.279
			c-0.05,0.27,0.21,0.544,0.21,0.544l0.731-0.187c0,0,0.406-0.497,0.865-0.728c0.459-0.232,0.931-0.656,0.536-1.61
			C68.683,39.93,68.463,40.021,68.463,40.021L68.463,40.021z"/>
		<path fill="#312C36" d="M68.362,43.502c-0.177-0.357-0.489-0.657-0.916-0.8c-0.173-0.058-0.484-0.177-0.881,0.208
			c0.132,0.384,0.576,0.861,0.95,1.324c0.258,0.318,0.956,1.012,1,1.078c0.103,0.156,0.019,0.402-0.106,0.584
			c-0.124,0.182-0.262,0.33-0.326,0.457c-0.065,0.127,0.037,0.27,0.037,0.27s0.441-0.115,0.656-0.342
			c0.215-0.225,0.374-0.467,0.421-0.445s0.346-0.275,0.346-0.275s-0.216-0.363-0.386-0.594
			C68.988,44.736,68.538,43.859,68.362,43.502L68.362,43.502z"/>
		<path fill="#FDD8CD" d="M68.32,45.408l-0.201,0.166c0,0,0.201,0.219,0.338,0.383c0.124,0.146,0.287,0.408,0.287,0.408l0.298-0.258
			C69.042,46.107,68.791,45.516,68.32,45.408z"/>
		<path fill="#EA8B48" d="M67.829,39.217c-0.55-0.473-1.562-1.023-2.196-0.897c-0.225,0.045-0.337,0.137-0.454,0.401
			c-0.094,0.212-0.215,0.817-0.188,1.04c0.027,0.223,0.627,0.842,0.757,0.994c0.129,0.152,1.024,0.114,1.161,0.156
			c0.216,0.065,0.016,0.187,0,0.322c-0.017,0.154,0.097,0.263,0.097,0.263s0.393-0.397,0.937-0.561
			c0.777-0.233,0.889-0.644,0.889-0.644S68.573,39.858,67.829,39.217L67.829,39.217z"/>
		<path fill="#644040" d="M64.068,40.579c-0.241,0.001-0.366,0.17-0.401,0.264c-0.07,0.187,0.051,0.25,0.051,0.25
			s0.085-0.081,0.137-0.063c0.176,0.061,0.017,0.194,0.017,0.194s0.172,0.063,0.344,0.01s0.657-0.192,0.657-0.192l-0.175-0.411
			C64.697,40.63,64.31,40.577,64.068,40.579L64.068,40.579z"/>
		<path fill="#D37531" d="M65.688,38.51c0,0-0.337,0.071-0.354,0.421c-0.017,0.349,0.463,0.831,0.623,0.98
			c0.16,0.149,0.29,0.305,0.29,0.305s-1.487,0.313-1.734,0.363c-0.021,0.26,0,0.408,0.098,0.644
			c0.339-0.068,1.031-0.026,1.477-0.124c0.651-0.143,0.95-0.255,1.061-0.415c0.109-0.16,0.071-0.665-0.2-1.196
			C66.708,39.022,66.147,38.47,65.688,38.51L65.688,38.51z"/>
		<path fill="#FFFFFF" d="M65.577,39.165l0.613,0.619l0.409-0.386l-0.622-0.629L65.577,39.165z"/>
		<path fill="#312C36" d="M65.98,39.165l-0.076-0.064l0.134-0.129l-0.084-0.07l-0.19,0.192l0.187,0.183c0,0,0.212-0.114,0.307,0.038
			c0.101,0.16-0.106,0.273-0.106,0.273l0.082,0.065c0,0,0.273-0.208,0.131-0.402C66.184,39.003,65.98,39.165,65.98,39.165z"/>
		<path fill="#FFFFFF" d="M70.086,44.629l-0.041-0.207l0.396-0.037l-0.047-0.23l-0.573,0.066l0.065,0.553
			c0,0,0.505,0.094,0.46,0.475c-0.048,0.398-0.544,0.311-0.544,0.311l0.05,0.221c0,0,0.731,0.02,0.756-0.494
			C70.64,44.633,70.086,44.629,70.086,44.629L70.086,44.629z"/>
		<g>
			<path fill="#EA8B48" d="M63.414,37.632c-0.493,0.418-0.049,0.987-0.049,0.987s-0.258,0.158-0.115,0.344
				c0,0,1.01-0.546,1.212-0.622c0.248-0.093,0.603-0.05,0.284-0.621C64.428,37.148,63.831,37.277,63.414,37.632z"/>
			<path fill="#312C36" d="M64.206,38.459l-0.16,0.102l0.665,0.604c0,0,0.171-0.049-0.051-0.279
				C64.515,38.736,64.363,38.594,64.206,38.459z"/>
			<path fill="#312C36" d="M64.303,37.35l-0.257,1.211l0.154-0.08c0,0,0.151-0.624,0.252-1.071
				C64.434,37.374,64.303,37.35,64.303,37.35L64.303,37.35z M64.401,38.787l0.091,0.077l0.146-0.574l-0.124,0.03L64.401,38.787z"/>
		</g>
	</g>
	<g>
		<path fill="#312C36" d="M21.743,48.225c-0.161-0.457,0.382-1.492,0.382-1.492l-2.242-0.9c0,0-1.159,0.713-1.11,1.707
			c0.048,0.992,0.577,1.533,0.906,1.723c0.329,0.189,1.22,0.43,1.22,0.43s-1.648,1.209-1.805,1.885
			c-0.118,0.506,0.163,0.992,0.163,0.992l0.747-0.412l-0.134-0.67c0,0,0.2-0.016,0.347-0.207c0.112-0.146-0.057-0.227,0.968-0.742
			c1.024-0.518,1.421-0.773,1.511-0.92c0.09-0.148,0.18-0.557,0.075-0.697C22.547,48.619,21.853,48.539,21.743,48.225L21.743,48.225
			z"/>
		<g>
			<path fill="#312C36" d="M13.015,47.621c-0.048-0.434-0.279-1.578-0.279-1.578s-1.966,0.127-1.929,0.635
				c0.148,2.043-0.16,3.189-0.328,3.809c-0.167,0.621,0.281,0.852,0.518,0.941c0.061,0.023,0.179,0.053,0.328,0.088
				c0.199-0.193,0.476-0.42,0.803-0.586l-0.456-0.145C11.673,50.785,13.063,48.055,13.015,47.621L13.015,47.621z"/>
			<path fill="#312C36" d="M12.982,51.205c-0.222-0.031-0.854-0.273-0.854-0.273c-0.327,0.164-0.604,0.391-0.803,0.584
				c0.432,0.104,1.135,0.234,1.48,0.379c0.8,0.334,1.535,0.045,1.535,0.045L13.64,51.1C13.64,51.1,13.331,51.254,12.982,51.205
				L12.982,51.205z"/>
		</g>
		<path fill="#EDAA98" d="M13.717,42.25c0,0-0.441-0.022-0.546,0.145c-0.104,0.167,0.035,0.35,0.035,0.35l0.676,0.135
			C13.882,42.878,13.862,42.335,13.717,42.25z"/>
		<path fill="#312C36" d="M27.798,46.174c-0.296,0.055-1.517,0.379-2.913-1.172c-1.396-1.553-2.697-0.299-2.697-0.299l0.119,0.461
			c0,0,1.11,0.006,1.483,0.189s0.438,1.963,1.605,2.348c1.167,0.383,2.612-0.223,3.039-0.762c0.712-0.896,0.157-1.586,0.157-1.586
			S28.61,46.023,27.798,46.174L27.798,46.174z M12.818,42.416c-0.66-0.366-1.881-0.96-2.995-1.24
			c-0.524-0.132-1.202-0.114-1.56-0.005c-0.225,0.562-0.378,0.89-0.378,0.89s0.721,0.411,2.63,0.856
			c0.777,0.18,3.626,0.499,3.626,0.499S13.702,42.905,12.818,42.416L12.818,42.416z"/>
		<path fill="#443C48" d="M6.837,40.459c0,0,0.075,0.907,0.242,1.265c0.167,0.358,0.549,0,0.549,0S7.383,40.793,6.837,40.459z"/>
		<path fill="#514855" d="M19.727,44.07c-4.162,0.564-5.077-0.6-6.192-0.947c-0.685-0.214-2.885-1.292-3.651-1.476
			c-1.538-0.369-2.909,0.13-2.909,0.13s-1.497,1.781-1.78,2.062c-0.284,0.281-0.769,0.721-0.891,0.805
			c-0.121,0.084-0.144,0.328,0,0.539c0.139,0.203,0.445,0.25,0.445,0.25s-0.018,0.264,0.144,0.295
			c0.162,0.031,0.415-0.059,0.465-0.367c0.322,0.014,1.446-0.295,1.85-0.514c0.515-0.279,0.606-0.668,0.606-0.668l0.22-0.494
			c0,0,1.241,0.186,1.877,1.188s1.496,2.547,1.496,2.547l-0.678,0.281c0.092,0.172,0.17,0.312,0.226,0.4
			c0.34,0.369,0.726,0.658,1.144,0.883l0.732-0.586c0,0,1.235,0.221,2.446,0.203c2.398-0.037,3.138-0.57,3.83-0.506
			c0.859,0.078,1.481,0.717,1.481,0.717c0.365,0.033,0.453,0.061,0.952,0.061c0.23,0,0.816-0.104,1.451-0.646
			c0.634-0.541,0.785-1.998,0.212-2.709C22.344,44.018,21.463,43.836,19.727,44.07L19.727,44.07z"/>
		<path fill="#443C48" d="M15.277,48.602c-1.211,0.018-2.446-0.203-2.446-0.203l-0.732,0.586c0.193,0.104,0.393,0.195,0.598,0.271
			c1.047,0.27,1.885,0.258,2.58,0.258c1.921,0,3.211-0.529,3.943-0.713c0.357-0.09,0.791-0.041,1.368,0.012
			c0,0-0.623-0.639-1.481-0.717C18.415,48.033,17.675,48.564,15.277,48.602L15.277,48.602z M8.034,43.686l-0.22,0.494
			c0,0,0.9,0.223,1.386,0.73c0.285,0.297,1.079,1.943,1.529,2.791l0.678-0.281c0,0-0.859-1.543-1.496-2.547
			C9.275,43.871,8.034,43.686,8.034,43.686z"/>
		<path fill="#EA8B48" d="M7.862,41.511c0,0-1.007-0.059-1.235,0.444c-0.229,0.503-1.462,1.921-1.462,1.921l0.558,1.447
			c0,0,1.51,0.012,2.308-1.08c0.008-0.172,0.221-1.39,0.09-2.728L7.862,41.511z M6.944,43.248c-0.126,0.203-0.393,0.35-0.63,0.254
			c-0.185-0.074-0.26-0.283-0.216-0.469c0.043-0.184,0.359-0.458,0.615-0.359C6.97,42.773,7.082,43.025,6.944,43.248z M7.742,42.065
			c-0.069,0.154-0.265,0.271-0.427,0.175C7.19,42.166,7.158,41.996,7.2,41.865c0.051-0.16,0.202-0.233,0.361-0.189
			c0.026,0.007,0.043,0.023,0.054,0.042c0.052,0.012,0.1,0.041,0.128,0.087C7.792,41.884,7.779,41.984,7.742,42.065z"/>
		<path fill="#514855" d="M7.127,40.271c0,0-0.057,1.145,0.166,1.775c0.001,0.003,0.002,0.005,0.003,0.008
			c0.113,0.083,0.27,0.108,0.36-0.024c0.006-0.008,0.013-0.014,0.02-0.02C7.8,41.724,8.059,40.871,7.127,40.271L7.127,40.271z"/>
		<path fill="#EA8B48" d="M14.525,43.33c0,0-0.863,2.357,0.146,2.938c0.854,0.488,2.986,0.812,3.58,0.611
			c0.856-0.291,0.65-2.336,0.649-2.77C17.802,43.998,15.24,43.592,14.525,43.33L14.525,43.33z"/>
		<path fill="#FFFFFF" d="M18.143,46.182c-0.194,0.23-1.409,0.115-2.286-0.131c-0.861-0.244-0.927-0.346-1.071-0.732
			c-0.19-0.508,0.205-1.783,0.208-1.795l-0.091-0.029c-0.017,0.053-0.408,1.318-0.208,1.857c0.161,0.432,0.276,0.547,1.135,0.789
			c0.504,0.143,1.199,0.262,1.717,0.262c0.32,0,0.572-0.045,0.668-0.158c0.226-0.268,0.346-1.979,0.359-2.174l-0.095-0.006
			C18.445,44.584,18.317,45.977,18.143,46.182L18.143,46.182z"/>
		<path fill="#C0BFC2" d="M16.879,48.762c-0.318-0.148-0.746-0.346-0.691-0.867c0.055-0.523,0.389-3.021,0.389-3.021h-0.604
			c0,0-0.271,1.639-0.366,2.34c-0.095,0.699-0.33,2.301-0.33,2.301s0.938,0,1.801-0.16C17.07,49.238,17.198,48.91,16.879,48.762z"/>
		<path fill="#644040" d="M17.484,43.514c-0.156-0.018-0.333-0.037-0.515-0.061c-0.094,0.344-0.222,0.787-0.326,1.047
			c-0.148,0.369-1.529,0.207-1.529-0.273c0-0.404,0.193-1.184,0.292-1.559c-0.135-0.148-0.329-0.093-0.368-0.006
			c-0.07,0.158-0.143,0.504-0.179,0.668c-0.082,0.369-0.363,1.23,0.406,1.557c0.656,0.277,1.36,0.369,1.599,0.082
			c0.239-0.285,0.363-1.006,0.363-1.006l1.301,0.105c0,0,0.118-0.596,0-0.738C18.357,43.125,18.116,43.586,17.484,43.514
			L17.484,43.514z"/>
		<path fill="#312C36" d="M15.444,42.714c-0.012-0.019-0.025-0.033-0.038-0.047c-0.099,0.375-0.292,1.155-0.292,1.559
			c0,0.48,1.381,0.643,1.529,0.273c0.104-0.26,0.232-0.703,0.326-1.047c-0.338-0.043-0.69-0.104-0.94-0.215
			C15.73,43.107,15.537,42.862,15.444,42.714z M6.312,43.342c0.227,0.102,0.43-0.234,0.43-0.234l-0.568-0.15
			C6.174,42.958,6.161,43.273,6.312,43.342z M5.165,43.877l-0.208,0.197c0,0,0.036,0.064,0.208,0.467
			c0.079,0.182,0.272,0.812,0.272,0.812l0.286-0.029c0,0-0.079-0.34-0.292-0.877C5.369,44.291,5.165,43.877,5.165,43.877
			L5.165,43.877z"/>
		<path fill="#FFFFFF" d="M5.499,44.541c-0.184,0-0.333,0.148-0.334,0.332c0,0.186,0.15,0.334,0.334,0.336
			c0.185-0.002,0.334-0.15,0.334-0.336C5.833,44.689,5.684,44.541,5.499,44.541z M5.499,45.092c-0.12,0-0.217-0.098-0.217-0.219
			c0-0.119,0.098-0.217,0.217-0.217c0.12,0,0.218,0.098,0.218,0.217C5.717,44.994,5.619,45.092,5.499,45.092z"/>
		<path fill="#312C36" d="M7.192,43.453c-0.487,0.693-1.567,1.244-1.567,1.244l0.088,0.211c0,0,1.106-0.516,1.592-1.209
			c0.651-0.931,0.815-2.183,0.815-2.183l-0.258-0.005C7.862,41.511,7.56,42.932,7.192,43.453L7.192,43.453z"/>
		<path fill="#312C36" d="M13.92,42.958c-2.031,1.187-8.21,1.863-8.21,1.863l-0.034,0.182c0,0,6.398-0.66,8.271-1.842
			C13.947,43.16,14.015,42.979,13.92,42.958z"/>
		<path fill="#443C48" d="M11.407,47.42c-0.237-0.42-0.733,0-0.733,0l0.055,0.281c0,0,0.254,0.57,0.641,0.92
			c0.386,0.35,1.046,0.588,1.046,0.588l-0.214-0.895C12.202,48.314,11.644,47.842,11.407,47.42L11.407,47.42z"/>
		<path fill="#514855" d="M15.673,53.18c-0.005-0.203-0.372-0.355-0.747-0.969c-0.4-0.654-0.979-2.367-1.061-2.748
			c-0.262-1.213-0.674-1.83-0.674-1.83s-1.886-0.648-1.784-0.213c0.27,1.154,0.511,1.42,1.635,3.211
			c0.291,0.463,0.684,1.186,1.04,1.869c0.426,0.814,0.634,1.066,0.845,1.393c0.681,1.051,1.261,1.393,1.261,1.393v-1.393
			C16.187,53.893,15.693,53.918,15.673,53.18z"/>
		<path fill="#443C48" d="M7.345,40.702c0,0-0.06,0.208,0,0.554s0.119,0.7,0.119,0.7s0.173-0.283,0.165-0.652
			C7.619,40.933,7.345,40.702,7.345,40.702L7.345,40.702z"/>
		<path fill="#EDAA98" d="M12.961,40.368c0.343,0.091,0.718,0.466,0.718,0.466l0.421-0.788l-0.584-0.262
			C13.516,39.784,12.918,40.161,12.961,40.368z"/>
		<g>
			<path fill="#FABEAA" d="M12.99,39.021c-0.315-0.05-0.453,0.021-0.584,0.446c-0.11,0.356-0.018,0.634,0.078,0.833
				c0.085,0.179,0.306,0.395,0.419,0.363c0.193-0.054,0.543-0.439,0.613-0.878C13.586,39.345,13.306,39.071,12.99,39.021
				L12.99,39.021z"/>
			<path fill="#514855" d="M13.656,39.097c-0.089-0.229-0.428-0.339-0.75-0.276c-0.705,0.138-0.522,0.415-0.51,0.583
				c0.008,0.108,0.26-0.026,0.396,0.104c0.137,0.131,0.279,0.199,0.279,0.199s0.092-0.134,0.153-0.144
				c0.062-0.01,0.125,0.078,0.144,0.157c0.018,0.08,0.135,0.231,0.375,0.166C13.7,39.707,13.829,39.543,13.656,39.097L13.656,39.097
				z"/>
		</g>
		<path fill="#8F5252" d="M15.236,44.229c-0.032-0.055-0.203-0.088-0.203-0.088s0.156,1.834,0.373,2.207
			c0.255,0.438,0.135-0.006,0.135-0.006S15.214,45.264,15.236,44.229z"/>
		<path fill="#5C3A3A" d="M16.189,44.361c-0.006-0.041-0.014-0.084-0.023-0.125c-0.367,0.105-0.635,0.135-0.988,0.277
			c0.024,0.062,0.048,0.125,0.071,0.186c0.143,0.385,0.487,1.35,0.508,1.428c0.047,0.182-0.111,0.385-0.287,0.52
			c-0.176,0.133-0.354,0.229-0.456,0.328c-0.102,0.1-0.05,0.268-0.05,0.268s0.455,0.031,0.73-0.113
			c0.275-0.146,0.503-0.324,0.541-0.289s0.416-0.15,0.416-0.15s-0.088-0.412-0.175-0.686C16.389,45.73,16.242,44.758,16.189,44.361
			L16.189,44.361z"/>
		<path fill="#FDD8CD" d="M15.542,46.154l-0.243,0.094c0,0,0.12,0.271,0.198,0.469c0.07,0.18,0.141,0.48,0.141,0.48l0.365-0.15
			C16.003,47.047,15.954,46.408,15.542,46.154z"/>
		<path fill="#C16628" d="M13.572,42.164c-0.073,0.087,0.119,0.069,0.19,0.287c0.071,0.218,1.139-0.015,1.139-0.015V42.06
			l-0.755-0.358C14.146,41.702,13.645,42.077,13.572,42.164L13.572,42.164z"/>
		<path fill="#514855" d="M21.419,48.76c-0.066-0.48,0.671-1.389,0.671-1.389l-2.019-1.328c0,0-1.277,0.471-1.427,1.453
			s0.261,1.617,0.546,1.869c0.284,0.252,1.109,0.662,1.109,0.662s-1.854,0.857-2.143,1.488c-0.216,0.475-0.038,1.004-0.038,1.004
			l0.814-0.254l0.002-0.682c0,0,0.199,0.023,0.381-0.135c0.139-0.121-0.011-0.234,1.096-0.537c1.107-0.301,1.546-0.473,1.664-0.6
			s0.287-0.51,0.212-0.67C22.129,49.305,21.465,49.088,21.419,48.76z"/>
		<path fill="#EA8B48" d="M12.708,38.598c-0.636,0.112-0.54,0.828-0.54,0.828s-0.302,0.006-0.273,0.238c0,0,1.148,0.038,1.36,0.074
			c0.261,0.045,0.545,0.261,0.559-0.393S13.247,38.502,12.708,38.598L12.708,38.598z"/>
		<path fill="#312C36" d="M12.974,39.711l-0.189,0.007l0.27,0.857c0,0,0.172,0.044,0.097-0.267
			C13.076,39.998,12.974,39.711,12.974,39.711z"/>
		<path fill="#312C36" d="M13.618,38.803l-0.833,0.916l0.173,0.009c0,0,0.446-0.462,0.758-0.798
			C13.719,38.89,13.618,38.803,13.618,38.803z M12.978,40.093l0.04,0.112l0.416-0.421l-0.123-0.037L12.978,40.093z"/>
		<path fill="#FABEAA" d="M13.856,42.396c0,0-0.367,0.029-0.486,0.077s-0.016,0.111,0,0.195c0.016,0.083,0.01,0.131,0.096,0.259
			c0.085,0.126,0.22,0.166,0.22,0.166l0.432-0.238C14.117,42.854,14.167,42.36,13.856,42.396z"/>
		<path fill="#FFFFFF" d="M17.252,41.329l-1.25,1.072c0,0-0.782,0.377-1.118,0.596c-0.191,0.125-0.328,0.429-0.246,0.689
			c0.106,0.336,0.246,0.693,0.286,0.785c0.067,0.154,0.581,1.572,0.581,1.572s0.145,0,0.497-0.07
			c0.209-0.043,0.604-0.279,0.604-0.279s-0.148-0.408-0.174-0.549c-0.024-0.133,0.056-0.357-0.052-0.441
			c-0.108-0.086-0.194-0.227-0.194-0.418c0-0.082,0-0.238-0.127-0.328c-0.146-0.107-0.143-0.176-0.143-0.176
			s1.388-0.324,1.598-0.572c0.209-0.248,0.557-0.451,0.39-1.002C17.738,41.655,17.252,41.329,17.252,41.329L17.252,41.329z"/>
		<path fill="#EA8B48" d="M17.437,41.278c-0.23,0.033-0.828-0.745-1.484-1.072c-0.655-0.327-2.162-0.37-2.162-0.37
			s0.003,0.065-0.164,0.473c-0.167,0.408-0.002,0.792,0.082,0.969c0.085,0.176,0.232,0.584,1.149,0.87
			c0.917,0.285,0.937,0.461,1.104,0.554c0.166,0.093,0.414-0.235,0.603-0.372c0.188-0.137,0.696-0.352,0.872-0.614
			C17.613,41.454,17.667,41.245,17.437,41.278L17.437,41.278z"/>
		<path fill="#D37531" d="M14.875,40.248c-0.274-0.204-0.479-0.271-0.694-0.042c-0.205,0.218-0.104,0.689,0,0.877
			c0.104,0.188,0.631,0.8,0.631,0.8s-0.783,0.312-0.93,0.487c0.196,0.111,0.192,0.385,0.121,0.587
			c0.179,0.019,0.676-0.066,1.03-0.115c0.294-0.041,0.688-0.124,0.769-0.481c0.026-0.116,0.047-0.41,0-0.575
			C15.667,41.319,15.215,40.5,14.875,40.248L14.875,40.248z"/>
		<path fill="#FFFFFF" d="M14.181,40.666l0.458,0.7l0.577-0.389l-0.475-0.706L14.181,40.666z"/>
		<path fill="#312C36" d="M14.516,40.578v0.312h0.123v-0.188l0.217,0.381l0.122-0.09l-0.338-0.501L14.516,40.578z M17.362,44.758
			l0.051,0.168l0.42-0.154l-0.127,1.061h0.243l0.194-1.344h-0.256L17.362,44.758z"/>
	</g>
	<g>
		<path fill="#9E9E9E" d="M50.461,54.945c-1.477,1.236-1.131-1.609-3.173-1.371c-1.969,0.229-2.294,1.328-2.294,1.328l0.095,0.477
			c0,0,0.817-0.795,1.257-0.758c0.438,0.037,1.727,0.576,1.884,1.535s0.959,1.184,1.353,1.027c-0.425-0.266-0.66-0.896-0.66-0.896
			s2.062,0.709,2.188-0.598s1.362-1.307,1.362-1.307S51.938,53.709,50.461,54.945L50.461,54.945z M44.684,58.469
			c-0.16-0.457,0.382-1.494,0.382-1.494l-2.242-0.9c0,0-1.159,0.715-1.11,1.707s0.577,1.533,0.906,1.725
			c0.329,0.189,1.219,0.428,1.219,0.428s-1.647,1.211-1.804,1.885c-0.118,0.508,0.163,0.992,0.163,0.992l0.747-0.412L42.81,61.73
			c0,0,0.2-0.016,0.348-0.209c0.112-0.145-0.058-0.227,0.967-0.742s1.422-0.771,1.512-0.92c0.09-0.146,0.18-0.557,0.075-0.697
			C45.488,58.863,44.793,58.781,44.684,58.469z"/>
		<g>
			<path fill="#9E9E9E" d="M35.966,57.84c-0.166-0.404-0.7-1.441-0.7-1.441s-1.856,0.662-1.682,1.139
				c0.703,1.924,0.721,3.111,0.729,3.754c0.009,0.641,0.503,0.74,0.755,0.762c0.065,0.006,0.187,0.002,0.34-0.004
				c0.139-0.24,0.342-0.535,0.612-0.783l-0.479-0.016C35.542,61.25,36.132,58.242,35.966,57.84L35.966,57.84z"/>
			<path fill="#9E9E9E" d="M36.917,61.295c-0.222,0.031-0.896-0.029-0.896-0.029c-0.27,0.248-0.473,0.543-0.612,0.783
				c0.444-0.021,1.156-0.086,1.528-0.043c0.86,0.102,1.488-0.377,1.488-0.377l-0.903-0.615
				C37.521,61.014,37.266,61.246,36.917,61.295z"/>
		</g>
		<path fill="#EDAA98" d="M36.658,52.492c0,0-0.441-0.021-0.545,0.145c-0.104,0.166,0.035,0.35,0.035,0.35l0.676,0.135
			C36.824,53.121,36.803,52.578,36.658,52.492z"/>
		<path fill="#878787" d="M35.76,52.658c-0.66-0.365-1.881-0.959-2.995-1.24c-0.523-0.131-1.202-0.113-1.56-0.004
			c-0.224,0.562-0.378,0.891-0.378,0.891s0.721,0.41,2.63,0.855c0.777,0.182,3.626,0.5,3.626,0.5S36.643,53.148,35.76,52.658
			L35.76,52.658z M29.779,50.701c0,0,0.074,0.908,0.242,1.266c0.167,0.357,0.549,0,0.549,0S30.324,51.035,29.779,50.701z"/>
		<path fill="#C0BFC2" d="M42.668,54.314c-4.163,0.562-5.077-0.6-6.192-0.947c-0.685-0.215-2.885-1.293-3.651-1.477
			c-1.537-0.369-2.909,0.131-2.909,0.131s-1.497,1.781-1.78,2.062s-0.769,0.719-0.89,0.803s-0.144,0.328,0,0.541
			c0.138,0.203,0.445,0.25,0.445,0.25s-0.018,0.262,0.144,0.293c0.162,0.031,0.415-0.059,0.466-0.367
			c0.321,0.016,1.446-0.293,1.849-0.512c0.515-0.281,0.606-0.67,0.606-0.67l0.219-0.494c0,0,1.241,0.188,1.877,1.189
			c0.637,1.002,1.496,2.547,1.496,2.547l-0.678,0.279c0.092,0.174,0.17,0.314,0.226,0.402c0.34,0.367,0.726,0.656,1.144,0.883
			l0.732-0.586c0,0,1.235,0.221,2.447,0.201c2.398-0.037,3.138-0.568,3.83-0.506c0.859,0.08,1.481,0.717,1.482,0.717
			c0.364,0.033,0.452,0.062,0.951,0.062c0.23,0,0.816-0.105,1.451-0.646c0.634-0.543,0.785-2,0.212-2.711
			C45.285,54.26,44.404,54.08,42.668,54.314z"/>
		<path fill="#B0B0B0" d="M38.218,58.844c-1.211,0.02-2.447-0.201-2.447-0.201l-0.732,0.584c0.193,0.105,0.393,0.195,0.599,0.273
			c1.047,0.27,1.885,0.256,2.58,0.256c1.92,0,3.211-0.529,3.943-0.713c0.357-0.09,0.791-0.039,1.369,0.012
			c-0.001,0-0.623-0.637-1.482-0.717C41.356,58.275,40.616,58.807,38.218,58.844L38.218,58.844z M30.975,53.928l-0.22,0.494
			c0,0,0.9,0.225,1.386,0.73c0.285,0.297,1.079,1.945,1.529,2.791l0.678-0.279c0,0-0.859-1.545-1.496-2.547
			C32.216,54.115,30.975,53.928,30.975,53.928L30.975,53.928z"/>
		<path fill="#7883C0" d="M30.803,51.754c0,0-1.007-0.059-1.235,0.445c-0.228,0.502-1.462,1.92-1.462,1.92l0.558,1.447
			c0,0,1.51,0.012,2.308-1.078c0.008-0.174,0.221-1.391,0.09-2.729L30.803,51.754L30.803,51.754z M29.886,53.49
			c-0.127,0.205-0.393,0.352-0.63,0.256c-0.185-0.076-0.26-0.283-0.216-0.469s0.359-0.459,0.615-0.359
			C29.911,53.016,30.023,53.27,29.886,53.49L29.886,53.49z M30.683,52.309c-0.069,0.152-0.265,0.271-0.427,0.174
			c-0.125-0.072-0.157-0.244-0.115-0.373c0.051-0.16,0.202-0.234,0.361-0.189c0.023,0.006,0.042,0.02,0.054,0.041
			c0.052,0.012,0.1,0.041,0.128,0.088C30.733,52.127,30.72,52.227,30.683,52.309L30.683,52.309z"/>
		<path fill="#9E9E9E" d="M30.068,50.514c0,0-0.057,1.145,0.166,1.775c0.001,0.004,0.002,0.006,0.003,0.008
			c0.113,0.084,0.27,0.107,0.36-0.023c0.006-0.008,0.013-0.014,0.021-0.02C30.741,51.967,31,51.115,30.068,50.514L30.068,50.514z"/>
		<path fill="#7883C0" d="M37.466,53.574c0,0-0.863,2.357,0.146,2.936c0.854,0.49,2.987,0.814,3.58,0.613
			c0.856-0.293,0.65-2.338,0.65-2.77C40.744,54.242,38.181,53.834,37.466,53.574z"/>
		<path fill="#FFFFFF" d="M41.084,56.426c-0.194,0.229-1.409,0.115-2.286-0.133c-0.861-0.244-0.928-0.344-1.072-0.73
			c-0.189-0.51,0.205-1.783,0.209-1.797l-0.091-0.029c-0.017,0.055-0.409,1.318-0.208,1.859c0.161,0.43,0.276,0.545,1.135,0.789
			c0.503,0.143,1.199,0.262,1.717,0.262c0.32,0,0.572-0.047,0.667-0.16c0.226-0.266,0.346-1.979,0.359-2.172l-0.095-0.006
			C41.386,54.828,41.258,56.221,41.084,56.426L41.084,56.426z"/>
		<path fill="#312C36" d="M39.821,59.004c-0.318-0.148-0.746-0.344-0.691-0.867c0.055-0.521,0.389-3.02,0.389-3.02h-0.605
			c0,0-0.271,1.639-0.366,2.338c-0.096,0.701-0.33,2.301-0.33,2.301s0.937,0,1.8-0.158C40.012,59.482,40.139,59.152,39.821,59.004
			L39.821,59.004z"/>
		<path fill="#644040" d="M40.425,53.756c-0.156-0.018-0.334-0.035-0.516-0.059c-0.093,0.344-0.221,0.785-0.326,1.045
			c-0.148,0.369-1.529,0.209-1.529-0.271c0-0.406,0.193-1.186,0.292-1.561c-0.134-0.148-0.329-0.094-0.368-0.006
			c-0.07,0.158-0.143,0.504-0.179,0.67c-0.082,0.367-0.363,1.229,0.406,1.555c0.656,0.277,1.36,0.369,1.599,0.084
			c0.239-0.287,0.363-1.006,0.363-1.006l1.301,0.104c0,0,0.118-0.594,0-0.736C41.298,53.369,41.058,53.828,40.425,53.756
			L40.425,53.756z"/>
		<path fill="#312C36" d="M38.385,52.957c-0.012-0.018-0.025-0.031-0.038-0.047c-0.099,0.375-0.292,1.154-0.292,1.561
			c0,0.48,1.381,0.641,1.529,0.271c0.104-0.26,0.232-0.701,0.326-1.045c-0.338-0.043-0.69-0.105-0.94-0.215
			C38.671,53.352,38.479,53.105,38.385,52.957z"/>
		<path fill="#878787" d="M29.253,53.586c0.226,0.102,0.43-0.234,0.43-0.234l-0.568-0.15C29.115,53.201,29.102,53.518,29.253,53.586
			L29.253,53.586z"/>
		<path fill="#312C36" d="M28.106,54.119l-0.208,0.199c0,0,0.035,0.062,0.208,0.465c0.079,0.184,0.272,0.812,0.272,0.812
			l0.286-0.029c0,0-0.08-0.34-0.292-0.877C28.31,54.533,28.106,54.119,28.106,54.119z"/>
		<path fill="#FFFFFF" d="M28.44,54.783c-0.185,0-0.334,0.15-0.334,0.334s0.149,0.334,0.334,0.334c0.184,0,0.333-0.15,0.334-0.334
			C28.774,54.934,28.625,54.783,28.44,54.783z M28.44,55.334c-0.12,0-0.218-0.096-0.218-0.217c0-0.119,0.098-0.217,0.218-0.217
			s0.217,0.098,0.217,0.217S28.561,55.334,28.44,55.334z"/>
		<path fill="#312C36" d="M30.134,53.697c-0.488,0.691-1.567,1.242-1.567,1.242l0.088,0.213c0,0,1.106-0.518,1.592-1.211
			c0.651-0.93,0.815-2.182,0.815-2.182l-0.258-0.006C30.803,51.754,30.501,53.176,30.134,53.697L30.134,53.697z"/>
		<path fill="#312C36" d="M36.861,53.201c-2.031,1.188-8.21,1.861-8.21,1.861l-0.034,0.182c0,0,6.398-0.66,8.271-1.842
			C36.888,53.402,36.957,53.223,36.861,53.201L36.861,53.201z"/>
		<path fill="#B0B0B0" d="M34.348,57.664c-0.237-0.422-0.733,0-0.733,0l0.055,0.279c0,0,0.254,0.57,0.641,0.922
			c0.386,0.35,1.046,0.586,1.046,0.586l-0.214-0.893C35.143,58.559,34.585,58.086,34.348,57.664L34.348,57.664z"/>
		<path fill="#878787" d="M30.286,50.945c0,0-0.06,0.207,0,0.553c0.06,0.346,0.119,0.701,0.119,0.701s0.174-0.283,0.165-0.652
			C30.561,51.176,30.286,50.945,30.286,50.945z"/>
		<path fill="#EDAA98" d="M35.902,50.611c0.343,0.092,0.718,0.465,0.718,0.465l0.422-0.787l-0.584-0.262
			C36.458,50.027,35.859,50.404,35.902,50.611z"/>
		<g>
			<path fill="#FABEAA" d="M35.931,49.264c-0.315-0.051-0.453,0.021-0.584,0.445c-0.11,0.357-0.017,0.635,0.078,0.834
				c0.085,0.178,0.306,0.395,0.419,0.363c0.193-0.055,0.544-0.439,0.614-0.879S36.247,49.314,35.931,49.264L35.931,49.264z"/>
			<path fill="#514855" d="M36.597,49.34c-0.089-0.229-0.428-0.34-0.75-0.275c-0.704,0.137-0.521,0.414-0.51,0.582
				c0.007,0.109,0.259-0.025,0.396,0.105c0.137,0.131,0.279,0.199,0.279,0.199s0.092-0.135,0.154-0.145
				c0.062-0.01,0.125,0.078,0.143,0.158c0.018,0.078,0.135,0.23,0.375,0.164C36.642,49.949,36.77,49.787,36.597,49.34L36.597,49.34z
				"/>
		</g>
		<path fill="#8F5252" d="M38.177,54.471c-0.032-0.055-0.203-0.088-0.203-0.088s0.156,1.836,0.373,2.207
			c0.255,0.438,0.135-0.006,0.135-0.006S38.156,55.508,38.177,54.471L38.177,54.471z"/>
		<path fill="#5C3A3A" d="M39.13,54.605c-0.006-0.043-0.014-0.084-0.023-0.127c-0.366,0.105-0.635,0.135-0.988,0.279
			c0.024,0.062,0.048,0.123,0.07,0.186c0.143,0.385,0.488,1.348,0.508,1.426c0.047,0.182-0.111,0.387-0.287,0.52
			c-0.176,0.133-0.354,0.23-0.455,0.33c-0.102,0.1-0.05,0.268-0.05,0.268s0.455,0.031,0.73-0.115
			c0.275-0.146,0.503-0.322,0.541-0.287c0.038,0.033,0.416-0.152,0.416-0.152s-0.088-0.412-0.176-0.684
			C39.33,55.975,39.184,55,39.13,54.605L39.13,54.605z"/>
		<path fill="#FDD8CD" d="M38.483,56.396l-0.243,0.096c0,0,0.121,0.27,0.198,0.469c0.07,0.18,0.141,0.479,0.141,0.479l0.365-0.148
			C38.944,57.291,38.895,56.65,38.483,56.396L38.483,56.396z"/>
		<path fill="#475CA6" d="M36.513,52.406c-0.073,0.088,0.118,0.068,0.189,0.287c0.072,0.219,1.14-0.016,1.14-0.016v-0.375
			l-0.756-0.357C37.086,51.945,36.586,52.32,36.513,52.406L36.513,52.406z"/>
		<path fill="#C0BFC2" d="M44.36,59.002c-0.065-0.479,0.672-1.387,0.672-1.387l-2.02-1.328c0,0-1.277,0.469-1.427,1.451
			s0.261,1.617,0.545,1.869s1.11,0.664,1.11,0.664s-1.855,0.857-2.143,1.488c-0.216,0.473-0.038,1.004-0.038,1.004l0.814-0.256
			l0.002-0.682c0,0,0.199,0.025,0.381-0.135c0.139-0.119-0.011-0.232,1.096-0.535s1.547-0.475,1.664-0.602
			c0.118-0.125,0.287-0.51,0.212-0.668C45.07,59.549,44.406,59.332,44.36,59.002L44.36,59.002z"/>
		<path fill="#5D6EB4" d="M35.649,48.842c-0.636,0.111-0.54,0.828-0.54,0.828s-0.302,0.006-0.273,0.238c0,0,1.148,0.037,1.36,0.074
			c0.261,0.045,0.545,0.26,0.559-0.395C36.769,48.936,36.188,48.746,35.649,48.842z"/>
		<path fill="#312C36" d="M35.916,49.955l-0.189,0.006l0.27,0.857c0,0,0.172,0.045,0.097-0.266
			C36.018,50.24,35.916,49.955,35.916,49.955L35.916,49.955z"/>
		<path fill="#312C36" d="M36.559,49.047l-0.833,0.914l0.174,0.01c0,0,0.446-0.463,0.758-0.799
			C36.66,49.133,36.559,49.047,36.559,49.047z M35.919,50.336l0.04,0.113l0.416-0.422l-0.124-0.037L35.919,50.336z"/>
		<path fill="#FABEAA" d="M36.798,52.639c0,0-0.367,0.029-0.486,0.076c-0.12,0.049-0.016,0.113,0,0.195
			c0.016,0.084,0.01,0.131,0.096,0.26c0.085,0.127,0.219,0.166,0.219,0.166l0.432-0.238C37.059,53.098,37.107,52.604,36.798,52.639
			L36.798,52.639z"/>
		<path fill="#FFFFFF" d="M40.193,51.572l-1.25,1.072c0,0-0.782,0.375-1.118,0.596c-0.192,0.125-0.328,0.428-0.246,0.688
			c0.106,0.336,0.246,0.695,0.286,0.787c0.067,0.154,0.581,1.572,0.581,1.572s0.145,0,0.497-0.072
			c0.209-0.041,0.604-0.279,0.604-0.279s-0.148-0.406-0.174-0.549c-0.024-0.131,0.056-0.355-0.053-0.441
			c-0.107-0.084-0.194-0.225-0.194-0.416c0-0.082,0-0.238-0.126-0.33c-0.146-0.105-0.143-0.174-0.143-0.174s1.388-0.324,1.598-0.572
			c0.21-0.248,0.557-0.451,0.39-1.004C40.679,51.898,40.193,51.572,40.193,51.572L40.193,51.572z"/>
		<path fill="#7883C0" d="M40.378,51.521c-0.23,0.033-0.828-0.746-1.483-1.072c-0.656-0.328-2.162-0.371-2.162-0.371
			s0.002,0.066-0.165,0.475c-0.167,0.408-0.002,0.793,0.083,0.969c0.084,0.176,0.232,0.584,1.148,0.869
			c0.917,0.285,0.938,0.461,1.104,0.555c0.167,0.092,0.415-0.234,0.603-0.371c0.189-0.137,0.696-0.352,0.872-0.615
			C40.554,51.697,40.608,51.488,40.378,51.521L40.378,51.521z"/>
		<path fill="#5D6EB4" d="M37.817,50.49c-0.275-0.203-0.479-0.271-0.694-0.041c-0.205,0.217-0.104,0.689,0,0.877
			c0.104,0.188,0.631,0.799,0.631,0.799s-0.783,0.314-0.93,0.488c0.195,0.111,0.191,0.385,0.12,0.588
			c0.18,0.018,0.676-0.068,1.03-0.115c0.293-0.041,0.688-0.125,0.769-0.482c0.026-0.115,0.047-0.41,0-0.574
			C38.608,51.562,38.156,50.742,37.817,50.49L37.817,50.49z"/>
		<path fill="#FFFFFF" d="M37.123,50.908l0.458,0.701l0.577-0.389l-0.475-0.707L37.123,50.908z"/>
		<g>
			<path fill="#C0BFC2" d="M34.553,57.166c-0.875,1.854-1.707,2.699-2.157,3.158c-0.45,0.457-0.174,0.879-0.011,1.072
				c0.042,0.051,0.129,0.135,0.242,0.238c0.269-0.07,0.622-0.133,0.987-0.115l-0.325-0.352c0,0,2.552-1.693,2.723-2.096
				c0.171-0.4,0.532-1.51,0.532-1.51S34.77,56.707,34.553,57.166L34.553,57.166z"/>
			<path fill="#C0BFC2" d="M34.223,62.178c-0.178-0.137-0.609-0.658-0.609-0.658c-0.366-0.018-0.719,0.045-0.987,0.115
				c0.326,0.303,0.874,0.762,1.104,1.057c0.533,0.684,1.315,0.793,1.315,0.793l-0.198-1.074
				C34.848,62.41,34.503,62.391,34.223,62.178z"/>
		</g>
		<path fill="#312C36" d="M37.717,51.242c0,0,0.018-0.164,0.016-0.242c-0.004-0.135,0.02-0.248-0.176-0.248
			c-0.077,0-0.241,0.131-0.241,0.131l0.076,0.105c0,0,0.159-0.148,0.208-0.094c0.037,0.041,0.021,0.113,0.009,0.199
			c-0.016,0.109-0.035,0.232-0.035,0.232l0.083,0.125l0.363-0.246l-0.092-0.129L37.717,51.242L37.717,51.242z M40.895,55.498
			c0.13-0.182,0.235-0.307,0.016-0.508c-0.095-0.088-0.455-0.07-0.455-0.07l-0.004,0.217c0,0,0.361-0.037,0.371,0.084
			c0.007,0.092-0.087,0.172-0.191,0.275C40.5,55.625,40.35,55.77,40.35,55.77l-0.013,0.215l0.693,0.121l0.042-0.23l-0.483-0.076
			C40.588,55.799,40.817,55.605,40.895,55.498z"/>
	</g>
	<g>
		<path fill="#312C36" d="M54.813,38.073c-1.013,0.085-1.645-0.666-2.981-1.84c-1.337-1.174-3.323-0.078-3.517,0
			c0,0-0.337,0.53,0.312,0.377c1.163-0.273,2.349,0.954,2.938,1.62s1.278,2.263,3.362,1.372c1.016-0.434,0.826-2.159,0.826-2.159
			S55.563,38.01,54.813,38.073L54.813,38.073z M37.916,33.881c-0.66-0.365-1.881-0.959-2.995-1.24
			c-1.113-0.28-2.195,0.047-2.195,0.047s0.978,1.249,2.887,1.694c0.777,0.181,3.588,0.414,3.588,0.414S38.799,34.371,37.916,33.881
			L37.916,33.881z"/>
		<path fill="#3E2328" d="M31.935,31.925c0,0,0.075,0.907,0.242,1.265s0.549,0,0.549,0S32.48,32.259,31.935,31.925z"/>
		<path fill="#312C36" d="M52.843,40.842c-0.159,0.01-0.238,0.223-0.557,0.137s-1.178-1.633-1.56-2.086
			c-0.382-0.454-0.572,0.135-1.233,0.358c-0.662,0.223-0.962-0.573-0.962-0.573s-0.318,1.623-0.19,1.708
			c0.127,0.085,1.988-0.229,1.988-0.229s0.878,1.204,1.734,1.655c0.907,0.477,1.527,0.032,1.527,0.032S53.002,40.832,52.843,40.842
			L52.843,40.842z"/>
		<path fill="#3E2328" d="M32.65,38.827c-0.123,0.019-0.246,0.119-0.37,0.263c0.108,0.256,0.241,0.597,0.333,0.928
			c0.059-0.075,0.118-0.136,0.177-0.173c0.122-0.075,1.389,0.453,3.012,0.098c0.408-0.089,0.205-1.599,0.205-1.599
			S33.096,38.759,32.65,38.827L32.65,38.827z"/>
		<path fill="#312C36" d="M31.329,40.581c-0.366,0.496-0.656,0.78-0.991,1.353c-0.334,0.573-0.334,0.99-0.334,0.99l0.951-0.276
			c0,0,0.051-0.459,0.242-0.619c0.191-0.16,0.501-0.12,0.716-0.545c0.096-0.189,0.384-1.058,0.701-1.465
			c-0.092-0.331-0.225-0.672-0.333-0.928C31.954,39.472,31.628,40.174,31.329,40.581L31.329,40.581z"/>
		<path fill="#5E3F3E" d="M45.302,35.69c-4.196,0.186-5.555-0.753-6.67-1.102c-0.685-0.214-2.885-1.292-3.651-1.476
			c-1.538-0.369-2.909,0.13-2.909,0.13s-1.497,1.781-1.78,2.062c-0.283,0.282-0.769,0.72-0.89,0.804
			c-0.121,0.084-0.144,0.328,0,0.54c0.139,0.204,0.445,0.25,0.445,0.25s-0.019,0.263,0.144,0.294
			c0.162,0.031,0.415-0.059,0.465-0.368c0.321,0.015,1.446-0.293,1.85-0.513c0.514-0.279,0.606-0.668,0.606-0.668l0.22-0.495
			c0,0,1.241,0.187,1.877,1.189c0.637,1.002,1.496,2.547,1.496,2.547l-0.677,0.28c0.092,0.173,0.17,0.313,0.226,0.401
			c0.34,0.369,0.726,0.658,1.144,0.882l0.731-0.585c0,0,1.236,0.221,2.447,0.202c2.397-0.037,3.138-0.569,3.83-0.506
			c0.858,0.079,1.481,0.717,1.481,0.717c0.365,0.033,0.787,0.067,1.286,0.067c0.23,0,0.893,0.011,1.527-0.531
			c0.635-0.542,1.358-2.125,0.785-2.835C48.425,35.478,46.733,35.627,45.302,35.69L45.302,35.69z"/>
		<path fill="#4D2F33" d="M40.374,40.067c-1.211,0.019-2.446-0.202-2.446-0.202l-0.732,0.585c0.193,0.104,0.393,0.195,0.598,0.272
			c1.047,0.269,1.885,0.257,2.58,0.257c1.92,0,3.212-0.529,3.943-0.713c0.357-0.09,0.791-0.04,1.368,0.012
			c0,0-0.623-0.638-1.481-0.717C43.512,39.498,42.772,40.03,40.374,40.067z M33.131,35.151l-0.22,0.494c0,0,0.9,0.223,1.386,0.73
			c0.285,0.297,1.079,1.944,1.529,2.792l0.677-0.28c0,0-0.859-1.544-1.496-2.547C34.372,35.337,33.131,35.151,33.131,35.151
			L33.131,35.151z"/>
		<path fill="#D64E4D" d="M32.959,32.989c0,0-1.007-0.059-1.235,0.444c-0.228,0.503-1.461,1.921-1.461,1.921l0.511,1.439
			c0,0,1.557,0.02,2.355-1.071c0.008-0.173,0.221-1.39,0.089-2.728L32.959,32.989L32.959,32.989z M32.042,34.725
			c-0.127,0.205-0.393,0.351-0.63,0.255c-0.185-0.075-0.26-0.283-0.216-0.469c0.043-0.184,0.359-0.458,0.614-0.359
			C32.066,34.25,32.179,34.503,32.042,34.725z M33.08,33.745c-0.069,0.154-0.288,0.11-0.45,0.014
			c-0.125-0.074-0.157-0.245-0.116-0.375c0.051-0.161,0.203-0.233,0.362-0.189c0.026,0.007,0.043,0.023,0.054,0.042
			C32.982,33.249,33.117,33.664,33.08,33.745z M41.992,35.57c-0.909-0.065-2.791-0.773-2.791-0.773s-0.117,1.153-0.131,1.917
			c-0.014,0.764,0.428,0.927,1.397,1.18c0.969,0.252,2.866,0.408,3.538,0.307s0.72-0.742,0.733-1.308c0.014-0.605,0-1.178,0-1.178
			S42.901,35.635,41.992,35.57z"/>
		<path fill="#5E3F3E" d="M49.034,39.135c0.058-0.493-3.971,0.505-3.971,0.505s0.636,0.651,1.304,1.339
			c0.669,0.688,1.367,0.818,2.45,0.562c0.342-0.081,0.803-0.287,1.033-0.399c0.192-0.812,0.06-1.255-0.101-1.53
			C49.336,39.696,48.973,39.656,49.034,39.135L49.034,39.135z"/>
		<path fill="#312C36" d="M51.745,41.991c-0.191-0.255-0.573-1.914-0.764-2.351c-0.191-0.437-0.407-0.265-0.827-0.134
			c-0.132,0.041-0.527,0.113-0.661,0.14c0.168,0.369,0.257,0.942,0.215,1.57c0.225-0.11,0.685-0.511,0.685-0.511
			s0.266,1.473,0.893,2.046c0.523,0.478,1.558,0.447,1.558,0.447s0-0.828-0.334-1.207C52.366,41.83,51.936,42.246,51.745,41.991
			L51.745,41.991z M31.781,33.147l0.941,1.222l0.11-0.22l-0.835-1.127L31.781,33.147z"/>
		<path fill="#312C36" d="M31.048,33.238c0,0,0.262,0.556,0.838,0.462c0.395-0.063,0.839-0.511,0.839-0.511l-0.153-0.423
			C32.572,32.766,31.634,32.977,31.048,33.238z"/>
		<path fill="#5E3F3E" d="M32.409,31.738c0,0-0.057,1.145,0.166,1.775c0.222,0.631,0.843,0,0.843,0S32.976,32.196,32.409,31.738z
			 M36.937,38.499c0,0-2.112,1.015-3.257,1.42c-0.706,0.25-0.84,0.489-0.954,0.785c0.155,0.097,0.396,0.328,0.562,0.856
			c0.079-0.143,0.149-0.239,0.201-0.257c0.41-0.147,2.125-0.059,3.402-0.599c0.209-0.088,0.87-0.438,1.538-1.149
			C38.867,39.089,36.937,38.499,36.937,38.499L36.937,38.499z"/>
		<path fill="#312C36" d="M32.726,40.705c-0.033,0.086-0.064,0.177-0.107,0.274c-0.191,0.433-1.07,2.246-1.353,2.701
			c-0.284,0.455-0.208,1.256-0.208,1.256l0.91-0.396c0,0-0.182-0.547,0.04-0.631s0.413-0.098,0.604-0.688
			c0.142-0.439,0.446-1.246,0.676-1.66C33.122,41.032,32.881,40.801,32.726,40.705L32.726,40.705z M39.622,34.796
			c0,0-0.478,1.161,0.286,1.782s2.682,0.668,3.302,0.581c0.621-0.087,0.593-1.171,0.593-1.604
			C42.705,35.443,40.337,35.057,39.622,34.796z"/>
		<path fill="#312C36" d="M41.977,40.227c-0.318-0.149-0.746-0.345-0.691-0.867s0.389-3.021,0.389-3.021H41.07
			c0,0-0.271,1.639-0.366,2.339c-0.095,0.7-0.33,2.301-0.33,2.301s0.938,0,1.801-0.16C42.167,40.705,42.294,40.375,41.977,40.227z"
			/>
		<path fill="#FDD8CD" d="M42.581,34.979c-0.156-0.018-0.334-0.036-0.516-0.06c-0.093,0.343-0.221,0.786-0.326,1.046
			c-0.148,0.369-1.529,0.207-1.529-0.273c0-0.406,0.193-1.185,0.292-1.56c-0.134-0.148-0.329-0.094-0.368-0.006
			c-0.07,0.158-0.143,0.504-0.179,0.669c-0.082,0.368-0.363,1.23,0.406,1.555c0.656,0.277,1.36,0.37,1.599,0.083
			c0.239-0.286,0.363-1.006,0.363-1.006l1.3,0.104c0,0,0.118-0.595,0-0.737C43.454,34.591,43.214,35.051,42.581,34.979
			L42.581,34.979z"/>
		<path fill="#EEB4A8" d="M40.541,34.18c-0.012-0.018-0.025-0.032-0.038-0.046c-0.099,0.375-0.292,1.153-0.292,1.559
			c0,0.48,1.381,0.642,1.529,0.273c0.104-0.26,0.232-0.703,0.326-1.046c-0.338-0.043-0.69-0.105-0.94-0.215
			C40.827,34.574,40.634,34.328,40.541,34.18L40.541,34.18z"/>
		<path fill="#312C36" d="M31.409,34.808c0.226,0.102,0.43-0.234,0.43-0.234l-0.567-0.15C31.271,34.424,31.258,34.74,31.409,34.808z
			 M30.262,35.342l-0.208,0.198c0,0,0.035,0.063,0.208,0.465c0.079,0.184,0.272,0.813,0.272,0.813l0.286-0.03
			c0,0-0.079-0.339-0.292-0.876C30.466,35.756,30.262,35.342,30.262,35.342L30.262,35.342z"/>
		<g>
			<path fill="#FFFFFF" d="M30.596,36.006c-0.184,0-0.334,0.15-0.334,0.334s0.15,0.334,0.334,0.334s0.334-0.15,0.334-0.334
				S30.78,36.006,30.596,36.006z M30.596,36.558c-0.12,0-0.217-0.098-0.218-0.218c0-0.12,0.098-0.217,0.218-0.218
				c0.12,0,0.217,0.098,0.218,0.218C30.813,36.46,30.716,36.557,30.596,36.558z"/>
		</g>
		<path fill="#312C36" d="M32.29,34.919c-0.488,0.692-1.567,1.243-1.567,1.243l0.088,0.211c0,0,1.106-0.516,1.592-1.21
			c0.651-0.93,1.068-2.177,1.068-2.177l-0.248,0.018C33.223,33.004,32.657,34.398,32.29,34.919L32.29,34.919z"/>
		<path fill="#312C36" d="M34.708,34.748c-0.391,0.152-3.901,1.537-3.901,1.537l-0.034,0.182c0,0,3.052-1.229,4.255-1.64
			c1.754-0.598,2.196-0.694,2.542-0.625c0,0,0.228-0.031,0.187-0.069C37.391,33.794,35.626,34.39,34.708,34.748L34.708,34.748z"/>
		<g>
			<path fill="#EDAA98" d="M38.342,31.645c0.343,0.091,0.729,0.294,0.729,0.294l0.241-0.516l-0.414-0.363
				C38.897,31.061,38.299,31.437,38.342,31.645L38.342,31.645z"/>
			<path fill="#FABEAA" d="M38.371,30.297c-0.316-0.05-0.453,0.021-0.584,0.446c-0.11,0.356-0.017,0.634,0.078,0.833
				c0.086,0.179,0.207,0.289,0.319,0.257c0.193-0.054,0.562-0.21,0.632-0.649S38.687,30.348,38.371,30.297z"/>
			<path fill="#FDD8CD" d="M38.92,31.614c0.026,0.143,0.182,0.224,0.182,0.224l0.209-0.628l-0.316-0.063
				C38.995,31.146,38.894,31.472,38.92,31.614z"/>
			<path fill="#514855" d="M39.037,30.374c-0.089-0.229-0.428-0.339-0.75-0.276c-0.705,0.138-0.522,0.415-0.51,0.583
				c0.008,0.108,0.26-0.026,0.396,0.104c0.137,0.131,0.279,0.199,0.279,0.199s0.092-0.134,0.154-0.144
				c0.062-0.01,0.125,0.078,0.143,0.157c0.018,0.08,0.12,0.308,0.36,0.243C39.066,31.061,39.21,30.82,39.037,30.374L39.037,30.374z"
				/>
			<path fill="#312C36" d="M37.951,30.051c-0.245,0.119-0.322,0.635-0.322,0.635l-0.305,0.011l0,0.112c0,0,0.459,0.053,0.849-0.024
				c0.229-0.045,0.423-0.004,0.657,0.077c0.234,0.081,0.385,0.036,0.385,0.036s-0.024-0.605-0.263-0.819
				C38.714,29.866,38.147,29.956,37.951,30.051z"/>
			<path fill="#312C36" d="M38.708,31.159c-0.193,0.184-0.305,0.002-0.292-0.249c0.009-0.182,0.018-0.304,0.018-0.304l-0.144-0.046
				c0,0-0.047,0.417,0,0.66c0.048,0.242,0.399,0.28,0.578,0.045c0.095-0.125,0.233-0.444,0.233-0.444l-0.185-0.078
				C38.917,30.743,38.868,31.008,38.708,31.159z"/>
			<path fill="#312C36" d="M38.374,31.255c0,0,0.006,0.198,0,0.317s-0.032,0.203-0.032,0.203l0.168-0.097
				c0,0,0.102-0.296,0.049-0.375C38.533,31.265,38.374,31.255,38.374,31.255z"/>
			<path fill="#FDD8CD" d="M42.394,32.312c0,0-0.277,0.614-0.482,0.884c-0.56,0.74-1.314,1.486-1.408,1.718
				c-0.162,0.399,0.263,0.757,0.263,0.757l0.883-0.405c0,0,1.098-0.578,1.527-1.21c0.288-0.424,0.37-0.933,0-1.312
				C42.887,32.444,42.394,32.312,42.394,32.312z"/>
			<path fill="#D64E4D" d="M40.213,31.373c-0.496-0.242-0.998-0.121-0.998-0.121l-0.091,0.171c0,0,0.234,0.901,0.33,1.164
				c0.095,0.263,0.478,0.485,0.478,0.485s0.548,0.052,0.811,0.201c0.263,0.149,0.683,0.521,0.683,0.521s0.37-0.422,0.566-0.715
				c0.509-0.312,0.732-0.767,0.732-0.767s-0.956-0.276-1.242-0.373C41.196,31.843,40.709,31.615,40.213,31.373z"/>
			<path fill="#FDD8CD" d="M37.367,34.131c-0.155,0.072-0.06,0.203,0,0.322c0.06,0.119,0.179,0.244,0.31,0.289
				s0.553-0.212,0.553-0.212l-0.23-0.399C37.999,34.131,37.521,34.06,37.367,34.131z"/>
			<path fill="#C54241" d="M39.764,31.656c-0.143-0.268-0.438-0.346-0.639-0.233s-0.136,0.593-0.057,0.997
				c0.025,0.125,0.142,0.761,0.194,0.9l-1.377,0.833c-0.04,0.238,0.063,0.403,0.226,0.504c0.127-0.045,0.521-0.192,0.849-0.38
				c0.345-0.198,0.672-0.375,0.876-0.49c0.102-0.058,0.134-0.342,0.127-0.875C39.96,32.654,39.843,31.805,39.764,31.656
				L39.764,31.656z"/>
			<path fill="#8F5252" d="M41.168,35.831c-0.042-0.048-0.227-0.118-0.227-0.118s0.577,1.766,0.859,2.091
				c0.332,0.383,0.131-0.031,0.131-0.031S41.363,36.771,41.168,35.831L41.168,35.831z"/>
			<path fill="#5C3A3A" d="M41.888,35.67c-0.176-0.357-0.183-0.521-0.61-0.664c-0.173-0.058-0.154,0.139-0.416,0.139
				c-0.316,0-0.521,0.121-0.521,0.121s0.578,0.669,0.952,1.131c0.258,0.319,0.704,1.017,0.748,1.083
				c0.103,0.157,0.019,0.401-0.106,0.583s-0.262,0.331-0.327,0.458c-0.064,0.127,0.038,0.27,0.038,0.27s0.441-0.115,0.656-0.341
				c0.215-0.226,0.374-0.467,0.421-0.446s0.346-0.276,0.346-0.276s-0.216-0.362-0.386-0.593
				C42.515,36.903,42.064,36.027,41.888,35.67z"/>
			<path fill="#FDD8CD" d="M41.847,37.575l-0.201,0.167c0,0,0.201,0.218,0.338,0.382c0.124,0.147,0.286,0.409,0.286,0.409
				l0.298-0.258C42.568,38.274,42.317,37.684,41.847,37.575z"/>
			<path fill="#514855" d="M40.342,31.255c-0.115-0.061-0.35-0.285-0.696-0.345c-0.346-0.059-0.65,0.236-0.65,0.236
				s0,0.132,0.402,0.109c0.291-0.017,0.535,0.24,0.813,0.26s0.438-0.294,0.438-0.294S40.457,31.316,40.342,31.255z"/>
		</g>
		<g>
			<path fill="#FFFFFF" d="M39.07,31.939l0.133,0.76l0.612-0.099l-0.125-0.763L39.07,31.939z"/>
			<path fill="#312C36" d="M39.489,32.195l0.007,0.113l-0.107,0.006l-0.027-0.272l-0.093,0.006l0.021,0.353l0.21-0.013l0.008,0.136
				l0.109-0.006l-0.02-0.326L39.489,32.195z M44.281,37.3l-0.228-0.042l0.085-0.583l-0.198-0.037l-0.138,0.749l0.447,0.083
				l-0.054,0.29l0.231,0.042l0.128-0.692l-0.23-0.05L44.281,37.3z"/>
		</g>
	</g>
	<g>
		<path fill="#312C36" d="M78.155,66.215c-0.296,0.055-1.517,0.381-2.913-1.172c-1.396-1.551-2.697-0.299-2.697-0.299l0.12,0.463
			c0,0,1.11,0.004,1.483,0.189c0.373,0.184,0.438,1.963,1.605,2.348c1.167,0.383,2.611-0.225,3.039-0.762
			c0.712-0.896,0.156-1.586,0.156-1.586S78.967,66.066,78.155,66.215z"/>
		<path fill="#3E2328" d="M61.665,67.662c0,0-0.051,0.637,0.367,2.709c0.108,0.537,0.221,1.352,0.313,2.115
			c0.368,0,0.796-0.006,1.104-0.014c0.012-0.463,0.02-0.975,0.022-1.461c0.007-1.24-0.005-2.637-0.005-2.637L61.665,67.662
			L61.665,67.662z M62.109,75.137c-0.414,0.244-0.446,0.678-0.446,0.678h1.271c0,0,0.054-0.387,0.396-0.717
			c-0.233-0.09-0.554-0.211-0.795-0.303C62.495,74.9,62.384,74.977,62.109,75.137z"/>
		<path fill="#EEB4A8" d="M63.383,73.996c0.024-0.203,0.049-0.805,0.066-1.523c-0.308,0.008-0.735,0.016-1.104,0.014
			c0.11,0.914,0.191,1.754,0.202,1.963c0.009,0.166,0.02,0.264-0.012,0.346c0.241,0.092,0.562,0.213,0.794,0.303
			c0.019-0.018,0.033-0.035,0.053-0.053C63.631,74.83,63.345,74.33,63.383,73.996L63.383,73.996z"/>
		<path fill="#3E2328" d="M74.433,67.861c-0.736,0.188-6.271-0.193-6.271-0.193s0.566,1.049,1.499,1.697
			c1.359,0.947,3.71,0.371,4.381,0.197c0.329-0.086,0.659,0.035,0.969,0.234l0.841-0.766C75.383,68.275,75.201,67.668,74.433,67.861
			L74.433,67.861z M77.937,71.004l-0.318,0.779c0.664,0.322,1.085,0.35,1.085,0.35l-0.302-0.971
			C78.401,71.162,78.163,71.211,77.937,71.004L77.937,71.004z"/>
		<path fill="#EEB4A8" d="M77.129,70.504c-0.575-0.422-0.867-0.822-1.244-1.418c-0.012-0.02-0.022-0.037-0.034-0.055l-0.841,0.766
			c0.32,0.207,0.619,0.5,0.875,0.746c0.661,0.631,1.259,1.012,1.733,1.24l0.318-0.779c-0.054-0.049-0.101-0.105-0.139-0.166
			C77.689,70.668,77.41,70.709,77.129,70.504L77.129,70.504z"/>
		<path fill="#644040" d="M60.66,61.252c-0.188,0.084,0.397,0.381,0.397,0.381l0.612-0.104l-0.215-0.445
			C61.455,61.084,60.848,61.168,60.66,61.252L60.66,61.252z"/>
		<path fill="#312C36" d="M62.072,61.988c-0.66-0.365-1.882-0.959-2.995-1.24c-1.113-0.279-2.195,0.047-2.195,0.047
			s0.979,1.25,2.888,1.695c0.776,0.182,3.588,0.414,3.588,0.414S62.955,62.479,62.072,61.988L62.072,61.988z"/>
		<path fill="#3E2328" d="M56.091,60.031c0,0,0.075,0.906,0.242,1.266c0.167,0.357,0.549,0,0.549,0S56.637,60.365,56.091,60.031z"/>
		<path fill="#5E3F3E" d="M69.458,63.797c-4.196,0.186-5.556-0.752-6.67-1.102c-0.685-0.213-2.885-1.291-3.651-1.475
			c-1.537-0.369-2.908,0.129-2.908,0.129s-1.497,1.781-1.78,2.062s-0.769,0.721-0.891,0.805c-0.121,0.084-0.144,0.328,0,0.539
			c0.139,0.205,0.445,0.25,0.445,0.25s-0.019,0.264,0.144,0.295s0.415-0.059,0.466-0.367c0.321,0.016,1.445-0.293,1.849-0.514
			c0.515-0.279,0.606-0.668,0.606-0.668l0.22-0.494c0,0,1.241,0.186,1.877,1.189c0.637,1.002,1.496,2.547,1.496,2.547l-0.678,0.279
			c0.092,0.174,0.17,0.312,0.226,0.4c0.34,0.369,0.727,0.658,1.144,0.883l0.732-0.584c0,0,1.235,0.219,2.446,0.201
			c2.398-0.037,3.138-0.568,3.83-0.506c0.858,0.078,1.481,0.717,1.481,0.717c0.365,0.033,0.788,0.066,1.286,0.066
			c0.23,0,0.894,0.012,1.527-0.531c0.635-0.541,1.358-2.125,0.785-2.834C72.582,63.586,70.89,63.734,69.458,63.797L69.458,63.797z"
			/>
		<path fill="#4D2F33" d="M64.53,68.174c-1.211,0.018-2.446-0.201-2.446-0.201l-0.731,0.584c0.192,0.105,0.393,0.195,0.598,0.273
			c1.048,0.268,1.885,0.256,2.58,0.256c1.921,0,3.212-0.529,3.943-0.713c0.357-0.09,0.791-0.039,1.368,0.012
			c0,0-0.623-0.639-1.481-0.717C67.668,67.605,66.929,68.137,64.53,68.174L64.53,68.174z M57.287,63.258l-0.22,0.494
			c0,0,0.9,0.223,1.386,0.73c0.285,0.297,1.079,1.943,1.529,2.791l0.678-0.279c0,0-0.859-1.545-1.496-2.547
			C58.528,63.443,57.287,63.258,57.287,63.258L57.287,63.258z"/>
		<path fill="#83BF64" d="M56.99,61.133c0,0-1.007-0.059-1.235,0.445c-0.228,0.502-1.337,1.871-1.337,1.871l0.559,1.447
			c0,0,1.582,0,2.183-1.029c0.009-0.174,0.221-1.391,0.09-2.729L56.99,61.133L56.99,61.133z M56.073,62.869
			c-0.127,0.205-0.393,0.352-0.63,0.256c-0.185-0.076-0.26-0.283-0.216-0.469c0.043-0.186,0.359-0.459,0.614-0.359
			C56.099,62.395,56.211,62.648,56.073,62.869L56.073,62.869z M57.222,61.818c-0.069,0.154-0.178,0.264-0.34,0.166
			c-0.125-0.074-0.344-0.336-0.207-0.557c0.089-0.143,0.074-0.133,0.233-0.088c0.022,0.006,0.042,0.021,0.054,0.041
			C57.014,61.393,57.258,61.738,57.222,61.818L57.222,61.818z"/>
		<path fill="#312C36" d="M55.938,61.254l0.941,1.223l0.11-0.219l-0.836-1.129L55.938,61.254z"/>
		<path fill="#312C36" d="M55.204,61.346c0,0,0.262,0.555,0.839,0.463c0.395-0.064,0.839-0.512,0.839-0.512l-0.153-0.424
			C56.729,60.873,55.791,61.084,55.204,61.346z"/>
		<path fill="#5E3F3E" d="M56.565,59.846c0,0-0.057,1.145,0.165,1.775c0.223,0.631,0.843,0,0.843,0S57.132,60.303,56.565,59.846
			L56.565,59.846z"/>
		<path fill="#83BF64" d="M63.778,62.904c0,0-0.863,2.357,0.146,2.936c0.854,0.488,2.987,0.814,3.58,0.611
			c0.856-0.291,0.649-2.336,0.649-2.768C67.056,63.572,64.493,63.164,63.778,62.904L63.778,62.904z"/>
		<path fill="#5E3F3E" d="M67.396,65.756c-0.194,0.229-1.409,0.115-2.285-0.133c-0.861-0.244-0.928-0.344-1.072-0.73
			c-0.189-0.51,0.205-1.785,0.209-1.797l-0.091-0.029c-0.017,0.055-0.408,1.318-0.207,1.859c0.16,0.43,0.275,0.545,1.135,0.789
			c0.504,0.143,1.199,0.262,1.717,0.262c0.319,0,0.571-0.047,0.668-0.16c0.226-0.268,0.346-1.979,0.358-2.172l-0.095-0.008
			C67.698,64.156,67.57,65.549,67.396,65.756L67.396,65.756z"/>
		<path fill="#312C36" d="M66.133,68.334c-0.318-0.148-0.746-0.344-0.691-0.867s0.389-3.02,0.389-3.02h-0.604
			c0,0-0.271,1.639-0.365,2.338c-0.096,0.699-0.33,2.301-0.33,2.301s0.938,0,1.801-0.16C66.324,68.812,66.451,68.482,66.133,68.334
			L66.133,68.334z"/>
		<path fill="#644040" d="M66.737,63.086c-0.156-0.018-0.334-0.035-0.516-0.059c-0.093,0.342-0.221,0.785-0.325,1.045
			c-0.148,0.369-1.529,0.207-1.529-0.273c0-0.404,0.192-1.184,0.292-1.559c-0.135-0.148-0.329-0.094-0.368-0.006
			c-0.069,0.158-0.143,0.504-0.179,0.668c-0.081,0.369-0.363,1.23,0.405,1.557c0.656,0.277,1.36,0.369,1.6,0.082
			c0.238-0.285,0.363-1.006,0.363-1.006l1.3,0.105c0,0,0.118-0.596,0-0.738C67.61,62.697,67.37,63.158,66.737,63.086L66.737,63.086z
			"/>
		<path fill="#312C36" d="M64.697,62.287c-0.012-0.02-0.025-0.033-0.038-0.047c-0.1,0.375-0.292,1.154-0.292,1.559
			c0,0.48,1.381,0.643,1.529,0.273c0.104-0.26,0.232-0.703,0.325-1.045c-0.338-0.045-0.689-0.105-0.939-0.215
			C64.983,62.68,64.791,62.434,64.697,62.287L64.697,62.287z M55.565,62.914c0.227,0.102,0.43-0.232,0.43-0.232l-0.567-0.15
			C55.428,62.531,55.414,62.848,55.565,62.914L55.565,62.914z M54.418,63.449l-0.207,0.197c0,0,0.035,0.064,0.207,0.467
			c0.079,0.184,0.272,0.812,0.272,0.812l0.286-0.029c0,0-0.079-0.34-0.292-0.877C54.622,63.863,54.418,63.449,54.418,63.449
			L54.418,63.449z"/>
		<g>
			<path fill="#FFFFFF" d="M54.753,64.113c-0.185,0-0.335,0.148-0.335,0.334c0,0.184,0.15,0.334,0.335,0.334
				c0.184,0,0.334-0.15,0.334-0.334C55.087,64.262,54.937,64.113,54.753,64.113z M54.753,64.664c-0.12,0-0.218-0.098-0.218-0.217
				c0-0.121,0.098-0.219,0.218-0.219s0.217,0.098,0.218,0.219C54.971,64.566,54.873,64.664,54.753,64.664L54.753,64.664z"/>
		</g>
		<path fill="#312C36" d="M56.445,63.027c-0.487,0.691-1.566,1.242-1.566,1.242l0.088,0.211c0,0,1.106-0.516,1.592-1.209
			c0.651-0.93,1.068-2.178,1.068-2.178l-0.248,0.018C57.379,61.111,56.813,62.506,56.445,63.027z"/>
		<path fill="#312C36" d="M54.963,64.393l-0.034,0.182c0,0,4.374-2.166,6.079-3.121c0,0-0.117-0.072-0.212-0.094
			C58.765,62.545,54.963,64.393,54.963,64.393L54.963,64.393z"/>
		<g>
			<path fill="#5E3F3E" d="M74.041,69.562c-0.428-0.637-0.45-0.986-0.312-2.244c0.139-1.256-0.208-1.945-0.208-1.945l-5.161,2.295
				c0,0,0.917,1.148,2.532,2.02c1.447,0.781,1.8,0.621,3.001,1.389c0.231,0.148,0.501,0.445,0.812,0.795l0.827-0.625
				c-0.123-0.203-0.244-0.408-0.36-0.615C74.819,70.006,74.227,69.84,74.041,69.562L74.041,69.562z M77.816,73.236
				c-0.104,0.262-0.238,0.535-0.341,0.734c0.669,0.225,1.228,0.287,1.228,0.287l-0.418-0.965
				C78.285,73.293,78.021,73.324,77.816,73.236L77.816,73.236z"/>
			<path fill="#FDD8CD" d="M77.618,73.064c-0.269-0.525-0.459,0.012-1.146-0.561c-0.277-0.232-0.62-0.732-0.939-1.258l-0.827,0.625
				c0.407,0.457,0.887,1.006,1.448,1.432c0.406,0.311,0.887,0.523,1.321,0.668c0.103-0.199,0.237-0.471,0.341-0.734
				C77.734,73.201,77.661,73.148,77.618,73.064L77.618,73.064z"/>
		</g>
		<g>
			<path fill="#5E3F3E" d="M54.151,72.367l1.033,0.506c0,0,0.237-0.354,0.466-0.434c-0.221-0.275-0.419-0.598-0.552-0.83
				C54.338,71.994,54.151,72.367,54.151,72.367L54.151,72.367z M58.734,68.242c-0.339,0.301-0.88,0.865-1.441,1.443
				c0.321,0.215,0.654,0.453,0.875,0.613c0.05-0.039,0.101-0.078,0.152-0.117c0.67-0.492,1.941-1.197,2.046-1.271
				s2.328-1.338,2.328-1.338l-1.958-1.412C60.736,66.16,59.556,67.512,58.734,68.242z"/>
			<path fill="#FDD8CD" d="M55.295,71.516c-0.069,0.031-0.135,0.062-0.196,0.094c0.133,0.232,0.331,0.555,0.552,0.83
				c0.041-0.014,0.082-0.021,0.121-0.014c0.258,0.045,0.518,0.135,0.707-0.314c0.176-0.416,1.032-1.293,1.689-1.812
				c-0.221-0.16-0.554-0.398-0.876-0.613C56.496,70.506,55.659,71.352,55.295,71.516L55.295,71.516z"/>
		</g>
		<g>
			<path fill="#DEA095" d="M62.858,60.465c-0.573,0.279-1.403,0.619-1.403,0.619l0.214,0.445c0,0,1.109-0.27,1.512-0.436
				c0.401-0.166,1.601-0.748,1.601-0.748l-0.612-0.604C64.169,59.742,63.189,60.303,62.858,60.465L62.858,60.465z"/>
			<path fill="#EDAA98" d="M63.448,59.379c0.343,0.092,0.718,0.467,0.718,0.467l0.422-0.789l-0.585-0.262
				C64.003,58.795,63.405,59.172,63.448,59.379L63.448,59.379z"/>
			<path fill="#FABEAA" d="M63.478,58.031c-0.316-0.049-0.453,0.021-0.585,0.447c-0.109,0.355-0.017,0.633,0.078,0.832
				c0.085,0.18,0.306,0.395,0.419,0.363c0.193-0.055,0.544-0.439,0.613-0.879C64.073,58.355,63.793,58.082,63.478,58.031
				L63.478,58.031z"/>
			<path fill="#514855" d="M64.143,58.107c-0.089-0.229-0.428-0.338-0.749-0.275c-0.705,0.137-0.522,0.414-0.511,0.584
				c0.008,0.107,0.26-0.027,0.396,0.104c0.138,0.131,0.279,0.199,0.279,0.199s0.092-0.135,0.154-0.145
				c0.062-0.01,0.125,0.078,0.143,0.158s0.12,0.309,0.36,0.242C64.172,58.795,64.315,58.555,64.143,58.107L64.143,58.107z"/>
			<path fill="#FDD8CD" d="M64.014,59.24c0.013,0.232,0.194,0.332,0.194,0.332l0.38-0.586l-0.28-0.311
				C64.307,58.676,64.007,59.096,64.014,59.24L64.014,59.24z"/>
			<path fill="#8F5252" d="M65.341,65.115c-0.048-0.043-0.221-0.02-0.221-0.02s0.733,1.689,1.058,1.973
				c0.382,0.334,0.126-0.049,0.126-0.049S65.65,66.104,65.341,65.115L65.341,65.115z"/>
			<path fill="#FDD8CD" d="M66.7,61.455c0,0-1.248,0.896-1.584,1.254c-0.518,0.549-0.536,1.01-0.586,1.279
				c-0.049,0.27,0.21,0.545,0.21,0.545l0.731-0.188c0,0,0.55-0.578,1.009-0.811c0.459-0.23,1.06-0.541,0.665-1.496
				C66.88,61.396,66.7,61.455,66.7,61.455L66.7,61.455z"/>
			<path fill="#5C3A3A" d="M66.287,64.938c-0.177-0.357-0.489-0.656-0.916-0.801c-0.173-0.059-0.484-0.176-0.881,0.209
				c0.132,0.385,0.576,0.861,0.95,1.322c0.258,0.318,0.956,1.012,1,1.08c0.103,0.156,0.019,0.4-0.106,0.582
				c-0.124,0.184-0.262,0.332-0.326,0.459c-0.065,0.127,0.038,0.27,0.038,0.27s0.44-0.115,0.655-0.342s0.374-0.467,0.421-0.445
				c0.047,0.02,0.346-0.277,0.346-0.277s-0.216-0.361-0.386-0.592C66.913,66.172,66.463,65.295,66.287,64.938L66.287,64.938z"/>
			<path fill="#FDD8CD" d="M66.245,66.842l-0.2,0.168c0,0,0.2,0.217,0.337,0.381c0.124,0.148,0.287,0.408,0.287,0.408l0.299-0.258
				C66.968,67.541,66.716,66.951,66.245,66.842L66.245,66.842z"/>
			<path fill="#83BF64" d="M65.294,59.062c-1.21-0.479-1.118,0.484-1.299,0.629c0.021,0.443,0.267,0.891,0.697,1.299
				c0.307,0.291,0.327,0.428,0.482,0.643c0.154,0.215-0.091,0.551-0.075,0.814l0.017,0.262c0,0,0.877-0.184,1.156-0.234l0.279-0.053
				l0.271-0.564l0.239,0.539l0.371,0.098C67.433,62.494,67.049,59.756,65.294,59.062z"/>
			<path fill="#FDD8CD" d="M61.629,61.227v-0.002C61.626,61.225,61.626,61.227,61.629,61.227z"/>
			<path fill="#FDD8CD" d="M64.418,59.145c-0.356,0.014-0.552,0.998-0.751,1.186c-0.117,0.109-0.47,0.268-0.714,0.387
				c-0.68,0.332-1.288,0.506-1.324,0.508l-0.108,0.424c0,0,1.027,0.018,1.663-0.189c0.637-0.205,0.699-0.277,0.98-0.465
				c0.357-0.238,0.853-0.625,1.031-0.928c0.066-0.113,0.108-0.387-0.063-0.625C64.993,59.246,64.814,59.131,64.418,59.145
				L64.418,59.145z"/>
			<path fill="#73A954" d="M64.405,59.064c-0.253,0.01-0.435,0.568-0.59,0.957c0.355-0.041,0.645,0.344,0.83,0.699
				c0.278-0.219,0.554-0.471,0.669-0.666c0.066-0.111,0.043-0.416-0.129-0.656C65.047,59.203,64.803,59.049,64.405,59.064
				L64.405,59.064z"/>
			<path fill="#644040" d="M60.216,61.689c0,0,0.096,0.275,0.444,0.211s0.86-0.252,0.86-0.252s0.144-0.1,0.162-0.436
				c0,0-0.928,0.041-1.167,0.146C60.275,61.463,60.216,61.689,60.216,61.689L60.216,61.689z"/>
			<path fill="#FFFFFF" d="M64.707,59.199l-0.498,0.693c0,0,0.191,0.076,0.52,0.443c0.173-0.197,0.434-0.49,0.52-0.594
				C65.191,59.32,64.707,59.199,64.707,59.199L64.707,59.199z"/>
			<path fill="#312C36" d="M64.729,59.49v0.082c0,0,0.167-0.049,0.173,0.057c0.005,0.07-0.173,0.066-0.173,0.066
				s0.109,0.197-0.024,0.227c-0.106,0.023-0.206-0.148-0.206-0.148l-0.091,0.033c0,0,0.114,0.273,0.321,0.225
				c0.207-0.047,0.13-0.264,0.13-0.264s0.193-0.039,0.129-0.195C64.924,59.416,64.729,59.49,64.729,59.49z"/>
			<path fill="#FFFFFF" d="M67.303,65.025c0,0,0.218-0.197,0.016-0.348s-0.396,0.094-0.396,0.094l0.064,0.105
				c0,0,0.174-0.191,0.265-0.061c0.06,0.086-0.17,0.219-0.17,0.219s0.291,0.166,0.144,0.307c-0.118,0.111-0.377-0.031-0.377-0.031
				l-0.091,0.113c0,0,0.356,0.26,0.584,0.039C67.568,65.242,67.303,65.025,67.303,65.025L67.303,65.025z"/>
		</g>
		<g>
			<path fill="#73A954" d="M63.251,57.607c-0.632,0.135-0.509,0.848-0.509,0.848s-0.303,0.018-0.266,0.248
				c0,0,1.149-0.004,1.362,0.025c0.263,0.035,0.555,0.24,0.544-0.414C64.373,57.66,63.786,57.492,63.251,57.607L63.251,57.607z"/>
			<path fill="#312C36" d="M63.558,58.711l-0.189,0.014l0.301,0.846c0,0,0.174,0.039,0.088-0.27
				C63.67,58.992,63.558,58.711,63.558,58.711z"/>
			<path fill="#312C36" d="M64.168,57.779l-0.8,0.945l0.174,0.002c0,0,0.43-0.479,0.729-0.824
				C64.271,57.861,64.168,57.779,64.168,57.779L64.168,57.779z M63.575,59.092l0.044,0.111l0.4-0.438l-0.124-0.031L63.575,59.092z"
				/>
		</g>
	</g>
</g>
</svg>
