<?xml version="1.0" encoding="utf-8"?>
<!-- Generator: Adobe Illustrator 16.0.0, SVG Export Plug-In . SVG Version: 6.00 Build 0)  -->
<!DOCTYPE svg PUBLIC "-//W3C//DTD SVG 1.1//EN" "http://www.w3.org/Graphics/SVG/1.1/DTD/svg11.dtd">
<svg version="1.1" id="Layer_1" xmlns="http://www.w3.org/2000/svg" xmlns:xlink="http://www.w3.org/1999/xlink" x="0px" y="0px"
	 width="85px" height="85px" viewBox="0 0 85 85" enable-background="new 0 0 85 85" xml:space="preserve">
<g>
	<path fill="#C9C9C9" d="M21.947,54.902c-1.082-0.054-2.303-0.094-3.312-0.073l0.004-0.062c0.002-0.051-0.037-0.095-0.088-0.098l0,0
		c-0.051-0.003-0.094,0.036-0.098,0.088l-0.004,0.073l-0.109-0.002l-0.016-0.084c-0.012-0.052-0.061-0.085-0.109-0.074
		c-0.051,0.01-0.084,0.059-0.074,0.108l0.01,0.046c-1.068-0.012-2.338,0.036-3.422,0.095c-0.277-0.938-0.326-1.986,0.172-2.807
		c0.568-0.936,1.727-1.408,3.441-1.408c1.627,0,2.791,0.497,3.363,1.439C22.211,52.979,22.193,54,21.947,54.902z M14.857,51.568
		c0.627-0.979,1.801-1.478,3.484-1.478c1.613,0,2.754,0.506,3.393,1.502c0.1,0.156,0.182,0.321,0.252,0.49
		c-0.016-0.027-0.029-0.057-0.045-0.083c-0.438-0.72-1.416-1.575-3.602-1.575c-1.82,0-3.059,0.519-3.68,1.543
		c-0.023,0.036-0.041,0.073-0.061,0.11C14.67,51.9,14.756,51.729,14.857,51.568z"/>
	<path fill="#50B012" d="M21.23,55.67l-0.248-0.129c0.555-1.065,0.889-2.626,0.168-3.812c-0.572-0.94-1.736-1.439-3.363-1.439
		c-1.715,0-2.873,0.474-3.441,1.408c-0.695,1.146-0.328,2.735,0.246,3.844l-0.248,0.129c-0.611-1.175-0.992-2.874-0.236-4.117
		c0.621-1.023,1.861-1.543,3.68-1.543c2.186,0,3.166,0.855,3.602,1.575C22.168,52.869,21.818,54.537,21.23,55.67z"/>
	<path fill="#FF6F00" d="M11.734,54.665c0,0,3.787-0.312,6.207-0.248C16.887,55.688,12.604,55.688,11.734,54.665L11.734,54.665z"/>
	<path fill="#EEFF41" d="M17.941,54.416v6.828h-3.578c-0.254,0-0.5-0.078-0.705-0.222c-0.092-0.062-0.176-0.139-0.248-0.226
		l-0.02-0.021l-0.137-0.165c0,0-0.203-0.754-0.459-1.725c-0.469-1.765-1.119-4.248-1.062-4.222c0.32,0.146,0.68,0.243,1.062,0.305
		c0.277,0.044,0.568,0.068,0.863,0.077c0.311,0.009,0.627,0.001,0.938-0.021c0.293-0.02,0.584-0.05,0.863-0.088
		c0.385-0.051,0.77-0.115,1.15-0.194c0.289-0.06,0.576-0.126,0.863-0.198C17.766,54.469,17.941,54.416,17.941,54.416z"/>
	<path fill="#FF6F00" d="M24.148,54.665c0,0-3.787-0.312-6.207-0.248C18.996,55.688,23.279,55.688,24.148,54.665z"/>
	<path fill="#EEFF41" d="M23.086,58.891c-0.256,0.969-0.459,1.721-0.459,1.721l-0.156,0.188c-0.072,0.087-0.154,0.162-0.248,0.226
		c-0.207,0.145-0.453,0.222-0.703,0.222h-3.58v-6.828c0,0,0.176,0.055,0.471,0.13c0.225,0.058,0.52,0.13,0.861,0.199
		c0.344,0.069,0.736,0.141,1.15,0.194c0.279,0.037,0.57,0.066,0.863,0.087c0.312,0.021,0.627,0.028,0.938,0.021
		c0.293-0.009,0.584-0.033,0.863-0.078c0.377-0.06,0.73-0.155,1.049-0.299c0.002-0.001,0.008-0.003,0.012-0.005
		C24.205,54.639,23.555,57.125,23.086,58.891L23.086,58.891z"/>
	<path fill="#AEEA00" d="M13.658,55.047v5.977c-0.092-0.062-0.176-0.139-0.248-0.226l-0.02-0.021l-0.137-0.165
		c0,0-0.203-0.754-0.459-1.725V54.97C13.074,55.014,13.365,55.038,13.658,55.047z"/>
	<path fill="#FFAB00" d="M15.459,54.939v6.306h-0.863v-6.218C14.889,55.008,15.18,54.978,15.459,54.939z"/>
	<path fill="#AEEA00" d="M17.473,54.546v6.698h-0.863v-6.499C16.898,54.686,17.186,54.619,17.473,54.546z"/>
	<path fill="#FFAB00" d="M19.271,54.745v6.499H18.41v-6.698C18.697,54.619,18.982,54.686,19.271,54.745z"/>
	<path fill="#AEEA00" d="M21.287,55.027v6.218h-0.863V54.94C20.703,54.978,20.994,55.008,21.287,55.027z"/>
	<path fill="#FFAB00" d="M23.086,54.969v3.922c-0.256,0.969-0.459,1.721-0.459,1.721l-0.156,0.188
		c-0.072,0.087-0.154,0.162-0.248,0.226v-5.977C22.518,55.038,22.809,55.014,23.086,54.969L23.086,54.969z"/>
	<g>
		<path fill="#64DD17" d="M21.375,55.99l-0.254-0.116c0.592-1.284,0.963-3.283,0.061-4.695c-0.639-0.996-1.781-1.502-3.395-1.502
			c-1.684,0-2.855,0.497-3.482,1.478c-0.869,1.357-0.494,3.328,0.148,4.721l-0.254,0.116c-0.674-1.459-1.061-3.534-0.131-4.987
			c0.682-1.064,1.934-1.605,3.719-1.605c1.689,0,2.945,0.564,3.627,1.631C22.381,52.533,21.998,54.643,21.375,55.99L21.375,55.99z"
			/>
	</g>
	<g>
		<path fill="#F57F17" d="M14.146,55.142l-0.268,0.367l0.291,1.285l0.668-0.15l-0.291-1.286L14.146,55.142z"/>
	</g>
	<g>
		<path fill="#F57F17" d="M21.43,55.142l0.27,0.367l-0.291,1.285l-0.67-0.15l0.291-1.286L21.43,55.142z"/>
	</g>
	<g>
		<path fill="#8D6E63" d="M17.25,58.296c-0.049,0-0.09-0.039-0.094-0.089c-0.057-1.082,0.373-1.964,0.391-2.001l0.186-0.375
			c-0.055-0.319-0.008-0.595,0.008-0.67l-0.154-0.798c-0.01-0.05,0.023-0.099,0.074-0.107s0.1,0.022,0.109,0.073l0.158,0.814
			c0.002,0.013,0.002,0.026,0,0.039c-0.002,0.003-0.07,0.303-0.004,0.644c0.004,0.021,0,0.04-0.008,0.06l-0.201,0.403
			c-0.004,0.008-0.426,0.877-0.371,1.907c0.002,0.053-0.037,0.097-0.088,0.1H17.25L17.25,58.296z"/>
	</g>
	<g>
		<path fill="#8D6E63" d="M18.273,57.621c-0.043,0-0.08-0.029-0.09-0.071l-0.363-1.466c-0.002-0.01-0.004-0.019-0.002-0.026
			l0.031-0.805l0.051-0.911c0.002-0.051,0.047-0.09,0.098-0.088c0.051,0.003,0.09,0.047,0.088,0.099l-0.051,0.909l-0.031,0.79
			l0.361,1.453c0.012,0.05-0.02,0.101-0.068,0.112C18.289,57.62,18.281,57.621,18.273,57.621L18.273,57.621z"/>
	</g>
	<g>
		<circle fill="#F57F17" cx="17.762" cy="55.736" r="0.512"/>
	</g>
	<g>
		<path fill="#8D6E63" d="M18.004,55.875h-0.469c-0.051,0-0.094-0.042-0.094-0.094s0.043-0.094,0.094-0.094h0.469
			c0.051,0.003,0.09,0.046,0.088,0.099C18.09,55.834,18.053,55.873,18.004,55.875z"/>
	</g>
	<g>
		<g>
			<path fill="#FFFFFF" d="M79.533,21.729c-0.059,0-0.113,0.006-0.166,0.016c-0.146-0.372-0.504-0.636-0.928-0.636
				c-0.32,0-0.605,0.153-0.787,0.391c-0.104-0.046-0.213-0.07-0.324-0.07c-0.398,0-0.727,0.292-0.785,0.673c-0.002,0-0.006,0-0.01,0
				c-0.438,0-0.795,0.355-0.795,0.794l0,0c0,0.439,0.355,0.794,0.795,0.795l0,0c0.396,0,2.576,0.024,3,0.024
				c0.549,0,0.992-0.444,0.992-0.993C80.525,22.175,80.08,21.729,79.533,21.729z M60.676,20.399c-0.051,0-0.102,0.005-0.15,0.015
				c-0.129-0.334-0.451-0.571-0.832-0.571c-0.289,0-0.545,0.138-0.709,0.351c-0.092-0.042-0.189-0.062-0.291-0.062
				c-0.357,0-0.652,0.263-0.705,0.604c-0.004,0-0.008,0-0.01,0c-0.395,0-0.715,0.32-0.715,0.716c0,0.395,0.32,0.714,0.715,0.714
				c0.357,0,2.316,0.021,2.697,0.021c0.492,0,0.893-0.398,0.893-0.893l0,0C61.568,20.801,61.17,20.399,60.676,20.399z
				 M64.984,26.117c-0.064,0-0.129,0.006-0.191,0.017c-0.164-0.427-0.578-0.73-1.062-0.73c-0.369,0-0.695,0.177-0.904,0.448
				c-0.117-0.053-0.244-0.08-0.373-0.08c-0.457,0-0.834,0.336-0.9,0.774c-0.004,0-0.008,0-0.012,0c-0.504,0-0.912,0.408-0.912,0.913
				s0.408,0.913,0.912,0.913c0.457,0,2.961,0.027,3.445,0.027c0.631,0,1.141-0.511,1.141-1.141S65.615,26.117,64.984,26.117
				L64.984,26.117z"/>
		</g>
		<path fill="#FCE2AA" d="M72.713,20.867c0,2.163-1.754,3.918-3.918,3.918s-3.918-1.755-3.918-3.918
			c0-2.164,1.754-3.919,3.918-3.919S72.713,18.704,72.713,20.867L72.713,20.867z"/>
		<circle fill="#FFE167" cx="68.795" cy="20.867" r="2.938"/>
		<g>
			<path fill="#2BB3C9" d="M72.531,31.244h6.82c0.23,0,0.418-0.121,0.418-0.271v-0.254H59.021v0.029c0,0.148,0.188,0.27,0.418,0.27
				h2.846c0.229,0,0.416,0.122,0.416,0.271v0.066c0,0.149-0.188,0.271-0.416,0.271H51.293c-0.23,0-0.416,0.121-0.416,0.27v0.599
				c0,0.149,0.186,0.271,0.416,0.271h1.902c0.23,0,0.418,0.121,0.418,0.27v0.232c0,0.149-0.188,0.271-0.418,0.271h-3.406
				c-0.172,0-0.32,0.067-0.383,0.163v0.464c0.062,0.097,0.211,0.165,0.383,0.165h7.145c0.271,0,0.441,0.152,0.414,0.302h3.1
				c0.295,0,0.533,0.191,0.533,0.429s-0.238,0.428-0.533,0.428h-8.904c-0.295,0-0.535-0.19-0.535-0.428c0-0.004,0-0.008,0-0.012
				h-0.285c-0.23,0-0.418,0.121-0.418,0.27v0.521c0,0.148,0.188,0.27,0.418,0.27h10.312c0.229,0,0.416,0.121,0.416,0.271v0.171
				c0,0.148-0.188,0.27-0.416,0.27h-6.482c-0.229,0-0.418,0.121-0.418,0.271v0.216h26.85c-0.072-0.082-0.205-0.137-0.361-0.137
				h-6.68c-0.23,0-0.416-0.121-0.416-0.271v-0.125c0-0.148,0.186-0.27,0.416-0.27h4.734c0.23,0,0.416-0.121,0.416-0.271v-0.391
				c0-0.086-0.062-0.162-0.16-0.212h-3.525c-0.295,0-0.535-0.191-0.535-0.428s0.24-0.429,0.535-0.429h0.969
				c0.033-0.006,0.068-0.01,0.104-0.01h4.965c0.229,0,0.414-0.121,0.414-0.271V34.15c0-0.148-0.186-0.271-0.414-0.271h-3.145
				c-0.143,0-0.268-0.046-0.344-0.117c-0.1,0.096-0.246,0.156-0.412,0.156h-8.904c-0.295,0-0.535-0.192-0.535-0.429
				s0.24-0.429,0.535-0.429h8.904c0.129,0,0.246,0.037,0.338,0.097l0,0c0-0.148,0.188-0.271,0.418-0.271h3.674
				c0.23,0,0.418-0.121,0.418-0.271v-0.562c0-0.149-0.188-0.271-0.418-0.271h-9.441c-0.23,0-0.418-0.121-0.418-0.271
				C72.115,31.362,72.301,31.244,72.531,31.244L72.531,31.244z M55.994,33.919c-0.295,0-0.533-0.192-0.533-0.429
				s0.238-0.429,0.533-0.429h8.904c0.295,0,0.533,0.192,0.533,0.429s-0.238,0.429-0.533,0.429H55.994z M72.201,34.775
				c0.295,0,0.533,0.192,0.533,0.43c0,0.236-0.238,0.428-0.533,0.428h-8.904c-0.295,0-0.535-0.192-0.535-0.428
				c0-0.237,0.24-0.43,0.535-0.43H72.201z"/>
			<path fill="#FCE2AA" d="M54.133,37.597c0,0.149,0.189,0.271,0.418,0.271h3.592c0.23,0,0.418,0.121,0.418,0.271v0.255
				c0,0.149-0.188,0.271-0.418,0.271h-0.979c-0.232,0-0.418,0.121-0.418,0.27v0.703c0,0.148,0.186,0.27,0.418,0.27h22.188
				c0.23,0,0.418-0.121,0.418-0.27v-0.479c0-0.148-0.188-0.271-0.418-0.271h-1.447c-0.23,0-0.416-0.122-0.416-0.271v-0.185
				c0-0.149,0.186-0.27,0.416-0.27h2.717c0.23,0,0.418-0.121,0.418-0.271v-0.452c0-0.048-0.021-0.093-0.057-0.133h-26.85V37.597z"/>
			<path fill="#71C2E2" d="M51.541,35.49h8.904c0.297,0,0.533-0.191,0.533-0.429c0-0.235-0.236-0.428-0.533-0.428h-3.098
				c-0.012,0.056-0.049,0.112-0.121,0.159l-0.273,0.178c-0.078,0.051-0.186,0.08-0.295,0.08h-5.65c0,0.004,0,0.008,0,0.012
				C51.008,35.299,51.246,35.49,51.541,35.49z M68.639,33.062c-0.297,0-0.535,0.192-0.535,0.429s0.238,0.429,0.535,0.429h8.902
				c0.168,0,0.314-0.062,0.414-0.156c-0.047-0.044-0.074-0.097-0.074-0.153v-0.45c-0.092-0.061-0.211-0.097-0.34-0.097
				L68.639,33.062L68.639,33.062z M74.871,35.205c0,0.235,0.238,0.428,0.533,0.428h3.525c-0.07-0.036-0.158-0.06-0.256-0.06h-2.197
				c-0.229,0-0.416-0.12-0.416-0.271v-0.267c0-0.125,0.133-0.23,0.312-0.262h-0.969C75.109,34.775,74.871,34.969,74.871,35.205
				L74.871,35.205z M62.762,35.205c0,0.235,0.238,0.428,0.533,0.428h8.904c0.295,0,0.533-0.192,0.533-0.428
				c0-0.237-0.238-0.43-0.533-0.43h-8.904C63,34.775,62.762,34.969,62.762,35.205z M65.432,33.49c0-0.236-0.238-0.429-0.533-0.429
				h-8.904c-0.295,0-0.533,0.192-0.533,0.429s0.238,0.429,0.533,0.429h8.904C65.193,33.919,65.432,33.727,65.432,33.49z"/>
		</g>
	</g>
	<g>
		<path fill="#E7B088" d="M46.746,27.53c0.131-0.133,0.355-0.107,0.494-0.213c0.219-0.169,0.303-0.518,0.262-0.779
			c1.393,0.039,2.785-0.076,4.152-0.342c-0.234,0.046-0.041,0.991,0.082,1.125c0.195,0.215,0.58,0.312,0.82,0.482
			c-0.488,0.829-0.975,1.66-1.463,2.49l-3.873-0.554c0,0-1.502-0.118-1.424-0.236c0.297-0.458,0.492-1.014,0.725-1.506
			C46.582,27.867,46.641,27.642,46.746,27.53z"/>
		<path fill="#FFE082" d="M52.025,27.438c-0.619,0.74-1.662,1.161-2.592,1.139c-0.879-0.021-2.053-0.372-2.223-1.296l-0.473,0.253
			c0,0-0.861,1.852-0.941,1.971c-0.078,0.118,1.424,0.236,1.424,0.236l3.875,0.554l1.463-2.491L52.025,27.438L52.025,27.438z"/>
		<path fill="#8D6E63" d="M45.545,71.329c0.477-0.007,1.047,0.032,1.531,0.042c0.332,0.007,0.652-0.117,0.893-0.347l0.688-0.796
			l-0.092-1.184l-2.244,0.258l-1.049,0.956c-0.139,0.189-0.252,0.459-0.27,0.692l-0.004-0.146
			C44.98,71.061,45.289,71.333,45.545,71.329L45.545,71.329z M53.646,71.391c-0.477-0.007-1.047,0.032-1.531,0.042
			c-0.332,0.006-0.652-0.118-0.893-0.347l-0.686-0.796l0.09-1.185l2.246,0.258l1.047,0.956c0.139,0.19,0.252,0.459,0.268,0.693
			l0.006-0.146C54.211,71.121,53.902,71.394,53.646,71.391L53.646,71.391z"/>
		<path fill="#F2C4A5" d="M42.398,46.989c0.004,0.559-0.057,1.123-0.086,1.669l0.789,1.003l1.275,0.12l0.092-0.363l-0.639-0.729
			l0.061-0.637l0.334,0.485l0.152,0.575l0.121-0.029l0.061-1.001l-0.545-1.062c-0.27-0.539-0.312-1.225-0.297-1.813
			c-0.49,0.208-1.018,0.312-1.549,0.308C42.342,45.986,42.396,46.485,42.398,46.989L42.398,46.989z"/>
		<path fill="#FFD54F" d="M49.355,29.124c-0.748-0.033-1.574-0.269-2.125-0.805c-0.188-0.185-0.4-0.481-0.49-0.784
			c-1.326,0.658-4.229,2.103-4.018,2.021c-0.672,0.801-1.619,6.68-2.141,8.36c-0.035,0.115,1.486,8.498,1.396,8.498
			c-0.092,0,2.215-0.305,2.215-0.305c-0.348-9.479-1.018-5.465,0.496-10.635c-0.115,6.694,0.277,6.464,0.277,7.274l4.506,0.052
			V29.123C49.434,29.123,49.391,29.125,49.355,29.124z"/>
		<path fill="#D7CCC8" d="M49.246,42.615v13.518c-0.256,5.138-0.564,13.251-0.564,13.353c0,0.103-0.863,0.02-1.625-0.071
			c-0.607-0.077-1.145-0.157-1.145-0.157s-0.689-11.08-1.139-13.67c-0.432-2.454-0.375-9.607-0.363-10.185v-0.047l0.012-0.048
			l0.699-2.811l1.273,0.04l0.176,0.003l0.699,0.019L49.246,42.615L49.246,42.615z"/>
		<path fill="#A1887F" d="M46.57,42.539c-0.447,1.026-1.697,2.319-2.148,2.768l0.699-2.811l1.273,0.039L46.57,42.539L46.57,42.539z"
			/>
		<path fill="#BCAAA4" d="M49.641,42.574L47.27,42.56l-0.215,26.854c0.766,0.091,1.629,0.175,1.629,0.072
			c0-0.104,0.307-8.217,0.562-13.354l0.279-6.981L49.641,42.574L49.641,42.574z"/>
		<path fill="#E7BB9D" d="M59.543,45.294c0.67,0.93,1.416,2.085,1,2.604c-0.145,0.182-1.193,1.916-1.6,1.335
			c-0.018-0.024-0.02-0.059-0.02-0.089c0.006-0.522,0.504-1.33,0.236-1.833c-0.182-0.346-0.549-0.153-0.621,0.2l-0.16,0.774
			l-0.271-0.16l-0.092-0.843c-0.021-0.916-0.357-1.797-0.713-2.662c0.504-0.139,0.979-0.369,1.396-0.681
			C58.588,44.025,59.043,44.597,59.543,45.294L59.543,45.294z"/>
		<path fill="#FFCA28" d="M57.334,37.84c0,0-0.076-6.768-0.957-8.148c-0.049-0.079-2.877-1.506-4.174-2.158
			c-0.049,0.989-1.889,1.565-2.73,1.588v13.678l4.508-0.131c0-0.097-0.029-0.164-0.023-0.225c0.119-1.259,0.092-2.669,0.033-3.924
			c0.055,0.299,0.125,0.571,0.219,0.791c0.506,1.696,2.531,5.036,3.262,6.244c0,0,2.168-0.46,2.164-0.479
			C59.635,45.078,57.896,38.9,57.334,37.84z"/>
		<g>
			<path fill="#90A4AE" d="M46.205,24.184c0,0-0.535-2.112-0.051-2.932c0.486-0.819,0.697-1.12,1.26-1.301
				c0.484-0.396,1.775-0.896,3.25-0.524c1.023,0.258,2.205,1.418,2.117,2.717c-0.014,0.19,0,1.509,0,1.509l-0.426,0.972h-3.551
				L46.205,24.184z"/>
			<path fill="#F2C4A5" d="M46.637,22.925l-0.182,0.551c0,0-0.908-0.429-0.705,1.027c0.447,1.152,1.109,1.369,1.109,1.369
				l0.506,0.968l0.756,0.838c0.092,0.107,0.209,0.188,0.342,0.233l0.668,0.232h0.283v-7.572
				C48.018,19.892,46.4,21.528,46.637,22.925z"/>
			<path fill="#E7BB9D" d="M52.553,23.476l-0.18-0.551c0.24-1.427-1.645-2.07-2.869-2.312c-0.029-0.017-0.061-0.025-0.09-0.041
				v7.572h0.463l0.67-0.232c0.133-0.047,0.25-0.126,0.34-0.233l0.666-0.838l0.596-0.968c0,0,0.664-0.216,1.111-1.369
				C53.463,23.046,52.553,23.476,52.553,23.476z"/>
			<path fill="#90A4AE" d="M47.414,20.613c-0.031,0.262,0.965,1.2,1.906,1.528V21.65c0.195,0.167,0.404,0.319,0.623,0.455
				c0.303,0.188,0.623,0.347,0.957,0.471l-0.213-0.562l0.562,0.759c0.205,0.183,0.557,0.391,0.68,0.642
				c0.121,0.251,0.115,0.667,0.109,0.939l0.188-0.03c0,0,0.129-0.521,0.189-0.663c0.068-0.157,0.205-0.185,0.273-0.342
				c0,0-0.279-2.019-0.342-2.113c-0.059-0.097-2.117-1.072-2.162-1.104C50.143,20.072,47.506,19.855,47.414,20.613L47.414,20.613z"
				/>
			<path fill="#90A4AE" d="M47.592,20.613c0,0-0.033,1.39-0.545,2.009c-0.08,0.1-0.084,0.404-0.113,0.536
				c-0.027,0.134-0.059,0.267-0.09,0.399c-0.055,0.233-0.086,0.427-0.086,0.671c-0.061,0-0.119,0-0.178,0.001
				c-0.021-0.354-0.188-0.638-0.262-0.971c-0.045-0.195-0.273-1.117-0.273-1.117l0.334-0.461L47.592,20.613z M47.023,23.676
				c0,0,0.312-0.141,0.531-0.189c0.16-0.034,0.322-0.053,0.484-0.053c0.164,0,1.293,0.02,1.07,0.384
				c-0.102,0.167-0.502-0.02-0.502-0.02l-0.568-0.083l-0.49-0.02L47.023,23.676z M51.986,23.652c0,0-0.311-0.141-0.531-0.188
				c-0.158-0.036-0.322-0.054-0.484-0.053c-0.164,0-1.293,0.02-1.07,0.384c0.102,0.167,0.502-0.021,0.502-0.021l0.568-0.083
				l0.49-0.019L51.986,23.652z"/>
			<circle fill="#37474F" cx="48.162" cy="24.194" r="0.182"/>
			<path fill="#DDAA87" d="M47.6,24.193c0,0,0.547-0.205,1.115,0.045C48.625,24.033,48.033,23.783,47.6,24.193z"/>
			<circle fill="#37474F" cx="50.734" cy="24.194" r="0.182"/>
			<path fill="#DDAA87" d="M51.297,24.193c0,0-0.549-0.205-1.117,0.045C50.271,24.033,50.865,23.783,51.297,24.193z M49.902,25.516
				h-0.646l-0.24-0.102l0.24,0.227h0.717l0.113-0.227L49.902,25.516z"/>
			<g>
				<path fill="#DDAA87" d="M48.76,26.536l0.256,0.129c0,0,0.656-0.114,0.959,0c0.115-0.062,0.197-0.129,0.197-0.129l-0.086,0.31
					c0,0-0.811-0.158-1.113-0.007C48.844,26.726,48.76,26.536,48.76,26.536z"/>
			</g>
			<g>
				<path fill="#879AA3" d="M50.613,26.263c-0.283-0.339-0.756-0.485-1.199-0.454v0.445c0.02-0.001,0.033-0.006,0.055-0.006
					c0.488,0,0.842,0.289,0.924,0.677c0.027,0.123,0.008,0.329-0.111,0.396c-0.072,0.042-0.164,0.041-0.244,0.014
					s-0.148-0.077-0.213-0.131c-0.053-0.043-0.104-0.092-0.164-0.117c-0.074-0.031-0.158-0.027-0.238-0.021
					c-0.002,0-0.004,0.001-0.006,0.001v1.312c0.023,0.004,0.051,0.01,0.076,0.014c0.344-0.045,0.777-0.235,0.787-0.247
					c0.113-0.137,0.334-0.137,0.443-0.541S50.916,26.627,50.613,26.263L50.613,26.263z"/>
			</g>
			<g>
				<path fill="#90A4AE" d="M49.227,27.104c-0.066,0.026-0.123,0.072-0.188,0.104c-0.01,0.005-0.021,0.01-0.033,0.015
					c-0.113,0.046-0.309,0.077-0.398-0.005c-0.082-0.074-0.078-0.279-0.045-0.371c0.139-0.373,0.398-0.576,0.854-0.592V25.81
					c-0.141,0.01-0.275,0.037-0.402,0.082c-0.211,0.074-0.424,0.183-0.568,0.357c-0.305,0.363-0.297,0.952-0.186,1.355
					c0.109,0.404,0.428,0.525,0.449,0.541c0.014,0.008,0.379,0.174,0.707,0.233v-1.312C49.35,27.072,49.287,27.08,49.227,27.104
					L49.227,27.104z"/>
			</g>
			<g>
				<path fill="#E7B088" d="M45.893,24.015c0.074-0.168,0.266-0.271,0.41-0.074c0.197,0.269,0.439,0.92,0.365,1.193
					c-0.305-0.062-0.518-0.267-0.404-0.671c-0.002-0.107,0.012-0.375-0.098-0.445c-0.076-0.05-0.303,0.034-0.307,0.137
					C45.863,24.105,45.873,24.058,45.893,24.015L45.893,24.015z M53.068,24.015c-0.074-0.168-0.264-0.271-0.408-0.074
					c-0.197,0.269-0.441,0.92-0.365,1.193c0.305-0.062,0.516-0.267,0.402-0.671c0.002-0.107-0.01-0.375,0.098-0.445
					c0.078-0.05,0.305,0.034,0.307,0.137C53.1,24.105,53.088,24.059,53.068,24.015L53.068,24.015z"/>
			</g>
			<g>
				<path fill="#78909C" d="M51.166,22.203c-0.055-0.104-0.076,0.319,0.428,0.593c0.506,0.272,0.574,1.091,0.574,1.091
					s0.271-0.431,0.521-0.567c-0.115-0.809,0.387-1.935-0.844-2.64c0.203,0.347,0.57,0.751,0.617,1.161
					c-0.184-0.184-0.418-0.684-0.869-0.82c0.254,0.296,0.594,0.621,0.688,1.263c-0.205-0.283-0.688-0.738-0.688-0.738
					s0.594,0.85,0.688,1.115c-0.318-0.205-0.688-0.554-0.688-0.554l0.459,0.69C52.053,22.796,51.416,22.68,51.166,22.203
					L51.166,22.203z"/>
			</g>
			<g>
				<path fill="#78909C" d="M47.467,20.051c0,0-0.133,0.417,0.115,0.732c-0.092,0.236-0.172,0.896-0.318,1.216
					c-0.023-0.183,0.158-1.161,0.158-1.161s-0.455,0.41-0.488,0.842c-0.035-0.296,0.146-0.882,0.432-1.067
					c-0.182-0.07-0.547,0.26-0.547,0.26s0.205-0.521,0.49-0.523c-0.092-0.091-0.422,0.011-0.422,0.011S47.205,20.049,47.467,20.051
					L47.467,20.051z"/>
			</g>
		</g>
		<g>
			<path fill="#34495E" d="M53.172,69.412h0.004C53.172,69.437,53.172,69.437,53.172,69.412z"/>
			<path fill="#BCAAA4" d="M54.268,55.585c-0.434,2.495-1.07,13.35-1.096,13.827c-0.055,0.007-0.576,0.075-1.146,0.147
				c-0.766,0.092-1.668,0.025-1.668-0.076c0-0.101-0.307-8.215-0.564-13.353V42.613l1.979-0.058l0.855-0.022h0.02l1.275-0.038
				l0.666,2.688l0.045,0.171V45.4C54.639,45.978,54.689,53.131,54.268,55.585L54.268,55.585z"/>
			<path fill="#D7CCC8" d="M49.551,42.688l2.219,0.008l0.215,26.854c-0.766,0.091-1.629,0.175-1.629,0.073
				c0-0.106-0.305-8.218-0.562-13.354l-0.287-6.937L49.551,42.688L49.551,42.688z"/>
		</g>
		<g>
			<path fill="#A1887F" d="M54.588,45.184c-0.965-0.579-1.688-1.963-1.963-2.646h0.021l1.273-0.04L54.588,45.184L54.588,45.184z"/>
		</g>
		<g>
			<path fill="#BCAAA4" d="M44.982,42.194l-0.029,0.941l4.521,0.015v-0.956H44.982L44.982,42.194z"/>
			<path fill="#BCAAA4" d="M53.943,42.164l-4.469,0.029v0.956l4.605-0.008L53.943,42.164z"/>
		</g>
		<path fill="#373434" d="M49.764,23.834c-0.143,0.021-0.277,0.027-0.352,0.03c-0.002,0-0.006,0-0.008,0
			c-0.115-0.004-0.232-0.014-0.348-0.029c-1.473-0.663-2.732-0.102-2.748-0.082c-0.084,0.105,0,0.261,0,0.262
			c0.002,0.005,0.066,0.021,0.074,0.025c0.062,0.028,0.158,0.079,0.188,0.141c0.029,0.065,0.021,0.171,0.031,0.243
			c0.02,0.134,0.043,0.269,0.086,0.398c0.057,0.167,0.16,0.354,0.32,0.452c0.332,0.206,1.031,0.179,1.377,0.089
			c0.383-0.124,0.709-0.857,0.744-1.085c0.025-0.139,0.182-0.171,0.273-0.177c0.002,0,0.006,0,0.008,0
			c0.092,0.005,0.254,0.035,0.279,0.177c0.037,0.228,0.361,0.961,0.744,1.085c0.348,0.09,1.045,0.117,1.379-0.089
			c0.158-0.099,0.264-0.285,0.318-0.452c0.043-0.13,0.066-0.265,0.088-0.398c0.01-0.072,0-0.178,0.029-0.243
			c0.031-0.062,0.127-0.112,0.188-0.141c0.01-0.003,0.07-0.021,0.074-0.025c0,0,0.084-0.156,0-0.262
			C52.498,23.732,51.238,23.172,49.764,23.834L49.764,23.834z M47.74,25.313c-0.26-0.028-0.6-0.084-0.771-0.292
			c-0.072-0.087-0.111-0.191-0.143-0.299c-0.053-0.182-0.104-0.46-0.025-0.668c0.023-0.064,0.059-0.122,0.109-0.167
			c0.205-0.183,0.555-0.196,0.814-0.189c0.598,0.017,1.172,0.091,1.219,0.531C48.928,24.49,48.703,25.424,47.74,25.313L47.74,25.313
			z M51.996,24.723c-0.029,0.106-0.07,0.211-0.143,0.299c-0.172,0.208-0.514,0.262-0.771,0.292c-0.963,0.11-1.188-0.823-1.203-1.084
			c0.047-0.44,0.621-0.515,1.219-0.531c0.262-0.007,0.611,0.007,0.814,0.189c0.053,0.045,0.088,0.103,0.109,0.167
			C52.1,24.263,52.049,24.541,51.996,24.723L51.996,24.723z"/>
		<g>
			<path fill="#C6B3AF" d="M51.102,18.79c-0.402-0.217-0.865-0.286-1.328-0.166c-0.465,0.121-1.068,0.219-1.834,0.239
				c-1.014,0.028-1.881,0.89-2.055,2.027l-0.049,0.561C47.848,21.282,50.158,20.333,51.102,18.79L51.102,18.79z"/>
			<path fill="#BCAAA4" d="M52.74,21.138l-0.764-1.451c-0.211-0.4-0.52-0.706-0.875-0.896c-0.943,1.543-3.254,2.491-5.266,2.661
				l-0.078,0.937L52.74,21.138L52.74,21.138z"/>
			<path fill="#D7CCC8" d="M44.586,23.056c-0.209,0-0.404-0.135-0.463-0.342c-0.07-0.244,0.059-0.498,0.299-0.578
				s6.145-0.988,9.645-1.522c0.262-0.037,0.502,0.14,0.541,0.398s-0.139,0.5-0.396,0.54l0,0c-3.641,0.556-9.178,1.411-9.514,1.491
				C44.662,23.052,44.623,23.056,44.586,23.056L44.586,23.056z"/>
		</g>
		<g>
			<path fill="#34495E" d="M66.199,69.236c-0.195,0-0.375-0.122-0.447-0.316L58.41,48.471c-0.092-0.25,0.037-0.528,0.281-0.62
				c0.246-0.092,0.52,0.036,0.609,0.287l7.342,20.449c0.09,0.251-0.035,0.527-0.281,0.621
				C66.307,69.227,66.252,69.236,66.199,69.236L66.199,69.236z"/>
			<path fill="#FF4081" d="M70.881,55.256l-1.189,0.452c-0.211,0.081-0.203,0.641,0.02,1.25l3.008,8.226
				c0.223,0.609,0.574,1.038,0.787,0.957l1.189-0.453c0.213-0.081,0.203-0.641-0.02-1.25l-3.006-8.225
				C71.449,55.604,71.094,55.175,70.881,55.256L70.881,55.256z"/>
			<path fill="#F50057" d="M68.855,51.567l5.102,13.952c0.375,1.029,0.023,2.119-0.785,2.427l-4.545,1.729
				c-0.809,0.308-1.773-0.28-2.15-1.311l-5.1-13.951c-0.375-1.029-0.023-2.119,0.785-2.428l4.545-1.729
				C67.514,49.951,68.48,50.538,68.855,51.567z"/>
			<path fill="#455A64" d="M64.789,50.987l6.465,17.688l-1.336,0.509l-6.465-17.688L64.789,50.987z"/>
			<path fill="#34495E" d="M69.713,70.024c0.17,0.466-0.062,0.984-0.52,1.157c-0.455,0.174-0.965-0.062-1.135-0.528
				c-0.17-0.466,0.062-0.982,0.52-1.156C69.033,69.322,69.541,69.56,69.713,70.024L69.713,70.024z M73.475,68.593
				c0.17,0.466-0.061,0.983-0.518,1.157s-0.965-0.062-1.135-0.528s0.062-0.983,0.52-1.157
				C72.797,67.891,73.305,68.127,73.475,68.593z"/>
			<g>
				<path fill="#F50057" d="M59.912,51.507c-0.189,0-0.367-0.116-0.441-0.308l-1.186-3.086c-0.098-0.249,0.023-0.529,0.268-0.628
					c0.246-0.098,0.52,0.024,0.615,0.273l1.186,3.087c0.098,0.249-0.023,0.529-0.268,0.627
					C60.031,51.495,59.971,51.507,59.912,51.507z"/>
			</g>
		</g>
		<g>
			<path fill="#0489A8" d="M29.303,22.968c-0.299,0.185-0.604,0.374-0.83,0.644c-0.227,0.271-0.363,0.641-0.268,0.979
				c0.143,0.513,0.734,0.757,1.266,0.798c0.824,0.065,1.516-0.338,2.316-0.382c0.777-0.042,1.547,0.178,2.307,0.311
				c0.393,0.068,0.799,0.113,1.188,0.02c0.389-0.093,0.756-0.35,0.889-0.726c0.168-0.47-0.072-1.002-0.438-1.342
				c-0.363-0.341-0.834-0.539-1.273-0.771c-0.316-0.166-0.625-0.354-0.965-0.458c-0.301-0.093-0.619-0.118-0.934-0.115
				C31.398,21.939,30.283,22.365,29.303,22.968z"/>
			<path fill="#90A4AE" d="M29.523,24.564c0,0-0.771-1.921,0.025-3.04c0.793-1.118,1.588-0.994,1.59-0.994
				c0.041,0.007,0.223-0.141,0.266-0.161c0.248-0.125,0.52-0.204,0.793-0.244c0.959-0.143,2.002,0.094,2.67,0.821
				c0.443,0.485,0.791,1.126,0.828,1.785c0.039,0.648-0.043,1.25-0.201,1.876c-0.064,0.25-0.268,0.796-0.516,0.941
				c-0.09,0.052-0.158,0.102-0.258,0.11c-0.291,0.024-0.582,0.049-0.873,0.073c-0.738,0.062-1.475,0.125-2.211,0.188l-1.541-0.546
				L29.523,24.564z"/>
			<path fill="#E7B088" d="M34.094,26.728c-0.043,0.033-0.09,0.062-0.139,0.085c-0.006-0.146-0.027-0.316-0.154-0.391
				c-0.139-0.082-0.312,0.006-0.455,0.082c-0.309,0.165-0.645,0.275-0.99,0.334c-0.346-0.059-0.682-0.17-0.99-0.334
				c-0.143-0.076-0.314-0.163-0.453-0.082c-0.127,0.074-0.148,0.245-0.156,0.391c-0.047-0.023-0.094-0.053-0.137-0.085
				c0.107,0.585,0.172,1.026-0.207,1.478c-0.365,0.432-0.445,0.777-0.359,1.375c0.156,1.07,0.861,2.061,1.842,2.524
				c0.271,0.128,0.568,0.22,0.867,0.204c0.361-0.019,0.701-0.191,0.984-0.418c0.482-0.384,0.838-0.935,0.947-1.542
				c0.141-0.765,0.086-1.417-0.381-1.956C34.057,28.097,33.779,26.96,34.094,26.728z"/>
			<path fill="#D6A07C" d="M34.094,26.728c-0.043,0.033-0.09,0.062-0.139,0.085c-0.006-0.146-0.027-0.316-0.154-0.391
				c-0.139-0.082-0.312,0.006-0.455,0.082c-0.309,0.165-0.645,0.275-0.99,0.334c-0.346-0.059-0.682-0.17-0.99-0.334
				c-0.143-0.076-0.314-0.163-0.453-0.082c-0.127,0.074-0.148,0.245-0.156,0.391c-0.047-0.023-0.094-0.053-0.137-0.085
				c0.02,0.109,0.039,0.221,0.055,0.333c0.027,0.191,0.611,0.517,0.766,0.613c0.293,0.182,0.605,0.331,0.93,0.441
				c0.322,0.111,0.658,0.188,0.998,0.234c0.303,0.041,0.584-0.013,0.887-0.015c-0.152-0.184-0.229-0.448-0.248-0.68
				C33.994,27.505,33.963,26.823,34.094,26.728z"/>
			<path fill="#F2C4A5" d="M31.891,21.185c-0.199,0.033-1.025,0.331-1.025,0.331s-0.266,0.265-0.398,0.332
				c-0.281,0.142-0.385,1.072-0.5,1.349c-0.117,0.286-0.189,0.604-0.221,0.935c0,0.014,0,0.029,0,0.044
				c-0.203-0.053-0.436-0.012-0.562,0.166c-0.107,0.147-0.119,0.37,0.07,0.623c0.238,0.318,0.18,0.935,0.518,1.169
				c0.102,0.07,0.23,0.075,0.352,0.039c0.139,0.293,0.324,0.55,0.561,0.785c0.248,0.247,0.59,0.381,0.846,0.622
				c0.002,0.002,0.004,0.004,0.006,0.007c0.227,0.211,0.523,0.316,0.82,0.316v-6.69C32.143,21.188,31.963,21.174,31.891,21.185
				L31.891,21.185z"/>
			<path fill="#E5B798" d="M35.527,24.341c-0.129-0.178-0.359-0.219-0.562-0.166c-0.002-0.015,0-0.03-0.002-0.044
				c-0.031-0.331-0.104-0.648-0.221-0.935c-0.113-0.276-0.219-1.207-0.498-1.349c-0.135-0.066-0.398-0.332-0.398-0.332
				s-0.828-0.298-1.027-0.331c-0.07-0.012-0.252,0.002-0.465,0.027v6.69c0.297,0,0.596-0.104,0.822-0.316
				c0.002-0.002,0.004-0.004,0.006-0.007c0.256-0.241,0.598-0.375,0.846-0.622c0.236-0.235,0.422-0.492,0.561-0.785
				c0.121,0.036,0.25,0.031,0.352-0.039c0.336-0.234,0.279-0.852,0.518-1.169C35.645,24.711,35.635,24.489,35.527,24.341
				L35.527,24.341z M24.438,45.106c-0.088,0.07-0.289,0.434-0.459,0.755c-0.176,0.336-0.201,0.73-0.072,1.087l0.201,0.558
				c0.102,0.279,0.344,0.482,0.637,0.535l0.652,0.114l0.066-0.364l-0.529-0.364l-0.1-0.795l0.365-0.364l0.125,0.237
				c0.111,0.211,0.148,0.453,0.104,0.688l-0.031,0.168l0.299,0.033l0.365-0.861l-0.266-0.993l-0.066-0.695L24.438,45.106
				L24.438,45.106z"/>
			<path fill="#E5B798" d="M25,37.817c-0.066-0.099-0.611,6.225-0.611,7.714c0.564,0.199,1.246,0.061,1.246,0.061l1.918-7.044
				l0.4-1.537c-0.824-0.416-1.648-1.046-2.473-1.537C25.234,36.792,25.025,37.855,25,37.817z"/>
			<path fill="#F2C4A5" d="M29.076,57.134l-0.281,5.549c-0.012,0.146-0.006,0.294,0.018,0.438l0.908,5.646l-0.744,1.739l2.037,0.447
				l0.598-1.095l-0.148-1.191l0.248-6.015c0,0,0-6.266-0.1-6.415C31.512,56.09,29.076,57.339,29.076,57.134L29.076,57.134z"/>
			<path fill="#FF4081" d="M30.518,28.057c-0.525,0.214-2.783,1.174-2.783,1.174v0.001c-0.338,0.14-0.631,0.261-0.812,0.335
				c-0.836,1.252-1.666,4.556-1.881,5.705c0.824,0.491,2.26,1.402,3.084,1.818l0.275-1.938c0.199,0.715,0.01,5.444-0.131,5.772
				h3.748c0.113,0.088,0.225,0.17,0.338,0.239v-10.52C32.021,30.677,29.727,29.797,30.518,28.057L30.518,28.057z"/>
			<path fill="#4DD0E1" d="M32.357,40.928v3.7l-0.014,2.847l-0.004,1.082l-0.57,14.588h-3.48c-0.105-2.932-1.32-17.149-1.168-18.469
				c0.043-0.366,0.109-0.731,0.205-1.087c0.217-0.916,0.572-1.809,0.943-2.661H32.357L32.357,40.928z"/>
			<path fill="#B2EBF2" d="M29.256,69.886l-0.119,0.577c0,0,1.236,0.057,1.461,0.168c0.285-0.087,0.863-0.969,0.863-1
				s0.025-0.665,0.031-0.685c0.006-0.019,0.287,0.776,0.287,0.776l-0.062,0.615l-0.803,1.094l-2.092-0.044
				c0,0-0.062-0.348-0.037-0.565C28.787,70.793,29.256,69.886,29.256,69.886L29.256,69.886z"/>
			<g>
				<path fill="#E5B798" d="M40.273,45.106c0.09,0.07,0.289,0.434,0.459,0.755c0.176,0.336,0.201,0.73,0.072,1.087l-0.201,0.558
					c-0.102,0.279-0.344,0.482-0.637,0.535l-0.654,0.114l-0.064-0.364l0.529-0.364l0.035-0.283c0.041-0.323-0.07-0.646-0.299-0.876
					l-0.299,0.563l0.1,0.528l-0.297,0.033l-0.365-0.861l0.266-0.993l0.064-0.695L40.273,45.106z"/>
				<path fill="#E5B798" d="M39.711,37.818c-0.039,0-0.326-1.511-0.629-3.147c-0.83,0.72-1.549,1.501-2.426,1.943l0.41,1.577
					l0.092,0.354l0.027,0.123l0.105,0.505l0.104,0.489l1.703,5.985c0,0,0.799,0.08,1.363-0.119
					C40.461,44.053,39.791,37.818,39.711,37.818z"/>
			</g>
			<path fill="#E5B798" d="M35.635,57.134l0.281,5.549c0.012,0.146,0.006,0.294-0.018,0.438l-0.908,5.646l0.744,1.739l-2.037,0.447
				L33.1,69.858l0.15-1.191L33,62.652c0,0,0-6.266,0.1-6.415C33.201,56.089,35.635,57.339,35.635,57.134L35.635,57.134z"/>
			<path fill="#F50057" d="M36.656,36.615c0.877-0.442,2.105-0.78,2.936-1.501c-0.162-0.88-0.945-4.262-1.801-5.545
				c-0.012-0.005-0.803-0.334-0.816-0.339c0,0,0-0.002,0.002-0.003c-0.125-0.045-2.674-1.085-2.832-1.148
				c0.584,1.936-1.475,2.601-1.809,2.568c0,4.445,0.02,6.074,0.02,10.521c0.189-0.118,0.207-0.145,0.334-0.241h3.771
				c-0.146-0.315-0.52-5.175-0.311-5.812L36.656,36.615L36.656,36.615z"/>
			<path fill="#26C6DA" d="M36.404,63.145h-3.449l-0.502-15.537l-0.109-0.133l-0.025-0.028c-0.027-2.05,0.039-2.817,0.039-2.817
				v-3.7h4.104c0.285,0.616,0.555,1.243,0.746,1.897c0.051,0.181,0.094,0.389,0.133,0.62C38.051,47.735,36.594,60.146,36.404,63.145
				L36.404,63.145z"/>
			<path fill="#9FDEE2" d="M35.455,69.886l0.119,0.577c0,0-1.236,0.057-1.461,0.168c-0.285-0.087-0.863-0.969-0.863-1
				s-0.025-0.665-0.031-0.685c-0.006-0.019-0.287,0.776-0.287,0.776l0.062,0.615l0.803,1.094l2.092-0.044
				c0,0,0.062-0.348,0.037-0.565C35.924,70.793,35.455,69.886,35.455,69.886L35.455,69.886z"/>
			<path fill="#90A4AE" d="M34.709,21.5c-0.117-0.051-1.59-0.613-1.658-0.629c-0.066-0.018-1.723-0.631-2.137,0.115l-0.066,0.033
				c0.018,0.05,0.25,1.441,1.857,1.656c1.342,0.53,2.348,1.769,2.348,1.769l0.27-1.154C35.322,23.289,34.824,21.55,34.709,21.5z"/>
			<path fill="#90A4AE" d="M31.443,21.633c-0.049,0-1.535,0.986-1.406,2.204c-0.051,0.431-0.133,0.562-0.133,0.562l-0.447-0.431
				l-0.107-0.99l0.225-1.098c0,0,0.43-0.795,0.514-0.845C30.168,20.986,31.443,21.633,31.443,21.633z"/>
			<path fill="#E5A488" d="M32.43,26.83c0.584-0.051,0.809-0.211,0.809-0.211c-1.094,0.136-1.678-0.051-1.678-0.051
				S31.822,26.805,32.43,26.83L32.43,26.83z"/>
			<g>
				<path fill="#90A4AE" d="M30.281,24.022c0,0,0.844-0.31,1.789,0.062c0.1,0.137-0.037,0.298-0.037,0.298
					S31.238,24.06,30.281,24.022z M34.727,24.021c0,0-0.844-0.311-1.789,0.062c-0.1,0.137,0.037,0.298,0.037,0.298
					C32.949,24.396,33.719,24.086,34.727,24.021L34.727,24.021z"/>
			</g>
			<path fill="#546E7A" d="M35.168,24.143c-0.08,0.004-1.969,0.102-2.291,0.186c-0.033,0.009-0.061,0.034-0.07,0.067v0.001
				c-0.215-0.067-0.441-0.076-0.66-0.02c-0.014-0.023-0.033-0.042-0.059-0.049c-0.322-0.084-2.211-0.182-2.291-0.186
				c-0.062-0.007-0.102,0.039-0.104,0.094c-0.004,0.056,0.039,0.102,0.094,0.104l0.041,0.002c0.004,0.059,0.041,0.332,0.211,0.688
				c0.117,0.243,0.326,0.424,0.59,0.506c0.203,0.063,0.383,0.09,0.541,0.09c0.506,0,0.797-0.271,0.938-0.466
				c0.105-0.145,0.143-0.391,0.113-0.574c0.172-0.043,0.354-0.036,0.521,0.021c-0.023,0.176,0.016,0.414,0.115,0.551
				c0.143,0.194,0.434,0.467,0.939,0.467c0.158,0,0.336-0.026,0.539-0.09c0.264-0.083,0.475-0.263,0.59-0.506
				c0.172-0.355,0.207-0.63,0.213-0.688l0.039-0.002c0.055-0.003,0.098-0.049,0.094-0.104l0,0
				C35.268,24.182,35.23,24.136,35.168,24.143L35.168,24.143z M31.93,25.035c-0.059,0.104-0.143,0.192-0.246,0.257
				c-0.299,0.186-0.67,0.157-0.994,0.056c-0.211-0.066-0.379-0.208-0.471-0.402c-0.234-0.489,0.062-0.579,0.506-0.55
				c0.266,0.018,0.529,0.007,0.791,0.051c0.107,0.019,0.33,0.039,0.402,0.135C32.029,24.728,32.01,24.894,31.93,25.035L31.93,25.035
				z M34.746,24.945c-0.092,0.193-0.26,0.336-0.471,0.402c-0.324,0.102-0.695,0.129-0.994-0.056
				c-0.096-0.06-0.189-0.151-0.248-0.257c-0.078-0.142-0.1-0.308,0.012-0.453c0.072-0.096,0.295-0.116,0.402-0.135
				c0.264-0.044,0.527-0.033,0.793-0.051C34.684,24.367,34.98,24.456,34.746,24.945z"/>
			<path fill="#D6AA8B" d="M32.107,26.06c0,0,0.459,0.111,0.707,0.012C32.703,26.271,32.268,26.32,32.107,26.06z"/>
			<circle fill="#546E7A" cx="31.287" cy="24.731" r="0.187"/>
			<circle fill="#546E7A" cx="33.709" cy="24.743" r="0.187"/>
			<path fill="#DDAA87" d="M30.783,24.614c0,0,0.611-0.083,0.91,0.134C31.727,24.631,31.279,24.383,30.783,24.614z"/>
			<path fill="#D3A484" d="M34.23,24.631c0,0-0.611-0.083-0.91,0.133C33.287,24.647,33.734,24.398,34.23,24.631z"/>
			<path fill="#78909C" d="M34.891,21.4c0.166,0.447,0.381,0.812,0.363,1.31c0,0-0.264-0.432-0.48-0.563
				c0.135,0.314,0.383,0.779,0.383,0.779s-0.945-0.712-1.26-0.812c0.695,0.58,0.928,1.109,0.928,1.109l-1.426-0.514
				c0,0,1.078,1.044,1.492,1.227c0.414,0.182,0.646,0.298,0.646,0.298S35.686,22.229,34.891,21.4L34.891,21.4z M30.281,20.916
				c0,0,0.223-0.312,0.732-0.273c0.049,0.348-0.025,0.919,0.123,1.106c-0.707,0.373-1.104,1.403-1.229,1.813
				c-0.1-1.031,0.932-1.802,0.932-1.802s-0.547,0.211-0.771,0.459c0.111-0.323,0.758-0.745,0.758-0.745s-0.334-0.025-0.473,0.05
				c0.287-0.261,0.486-0.359,0.486-0.359s-0.385,0-0.51,0.125c0.137-0.138,0.471-0.411,0.471-0.411S30.617,20.742,30.281,20.916z"/>
			<path fill="#27B1D1" d="M29.543,40.928c-0.432,1.409-1.531,2.277-2.219,2.661c0.217-0.916,0.572-1.809,0.943-2.661H29.543z"/>
			<path fill="#12A9C1" d="M37.338,43.446c-0.682-0.436-1.594-1.262-1.982-2.519h1.105c0.285,0.616,0.555,1.243,0.744,1.896
				C37.258,43.005,37.301,43.214,37.338,43.446z"/>
			<path fill="#4DD0E1" d="M31.898,21.862c-0.873,0.007-1.879,0.228-2.535,0.836c-0.066-0.063-0.08-0.165-0.086-0.257
				c-0.074-1.358,0.914-2.335,2.16-2.682c0.625-0.173,1.281-0.204,1.918-0.091c1.127,0.202,2.031,1.07,2.232,2.214
				c0.016,0.09-0.061,0.908-0.074,0.897c-0.436-0.367-0.979-0.364-1.51-0.489c-0.25-0.06-0.488-0.154-0.732-0.229
				C32.828,21.925,32.363,21.859,31.898,21.862L31.898,21.862z"/>
			<path fill="#27B1D1" d="M35.441,25.254c2.08-1.729-3.381-4.444-6.158-1.889c-0.537,0.495-0.822,1.557-0.012,1.98
				c-0.193-0.102-0.426,0.004-0.643-0.136c-0.246-0.16-0.436-0.42-0.584-0.67c-1.572-2.647,5.186-3.688,7.656-2.292
				C37.525,23.278,36.574,25.172,35.441,25.254L35.441,25.254z"/>
			<g>
				<path fill="#404040" d="M34.535,33.671c0.002-0.13-0.109-0.238-0.25-0.24l-3.959-0.054c-0.141-0.002-0.254,0.102-0.258,0.231
					l-0.014,1.118l4.465,0.062L34.535,33.671L34.535,33.671z"/>
				<path fill="#303030" d="M30.053,34.727l-0.016,1.189c-0.002,0.103,0.109,0.187,0.25,0.188l3.959,0.056
					c0.141,0.002,0.256-0.08,0.256-0.184l0.018-1.188L30.053,34.727z"/>
				<path fill="#D13F4A" d="M30.959,33.558l-0.004,0.244l-0.691-0.009l0.004-0.244L30.959,33.558z"/>
				<path fill="#303030" d="M34.301,33.533c0-0.001,0-0.001,0-0.002v-0.104c0-0.062-0.047-0.111-0.109-0.112l-0.584-0.008
					c-0.061,0-0.111,0.048-0.111,0.109l-0.002,0.104v0.001L34.301,33.533L34.301,33.533z"/>
				<path fill="#505050" d="M34.531,33.851h-0.018l-0.01,0.682h0.018c0.061,0,0.111-0.04,0.111-0.092l0.008-0.495
					C34.641,33.895,34.592,33.852,34.531,33.851L34.531,33.851z M30.037,34.55h0.018l0.008-0.683h-0.016
					c-0.062-0.001-0.111,0.04-0.113,0.093l-0.006,0.495C29.928,34.507,29.977,34.549,30.037,34.55L30.037,34.55z"/>
				<path fill="#404040" d="M33.037,32.875l-1.143-0.017c-0.07-0.001-0.17,0.127-0.248,0.324l1.629,0.022
					C33.203,33.007,33.107,32.876,33.037,32.875L33.037,32.875z"/>
				<path fill="#303030" d="M33.275,33.206l-1.629-0.022c-0.016,0.039-0.029,0.079-0.041,0.12c-0.096,0.321-0.092,0.638,0.031,0.64
					l1.629,0.022c0.123,0.002,0.135-0.315,0.047-0.639C33.303,33.286,33.291,33.246,33.275,33.206L33.275,33.206z"/>
				<circle fill="#505050" cx="32.383" cy="35.044" r="1.714"/>
				<path fill="#414042" d="M33.828,35.063c-0.012,0.798-0.666,1.438-1.465,1.425c-0.799-0.011-1.436-0.667-1.426-1.465
					c0.012-0.798,0.668-1.436,1.465-1.425C33.201,33.609,33.838,34.266,33.828,35.063z"/>
				<circle fill="#7C8A98" cx="32.383" cy="35.045" r="1.091"/>
				<path fill="#6C7A88" d="M32.883,34.316l-1.035,1.425c0.146,0.112,0.324,0.183,0.523,0.186c0.486,0.007,0.887-0.383,0.895-0.871
					C33.27,34.761,33.125,34.483,32.883,34.316z"/>
				<path fill="#4D5A68" d="M32.395,34.162c-0.486-0.007-0.889,0.383-0.895,0.869c-0.004,0.29,0.135,0.547,0.348,0.71l1.035-1.425
					C32.738,34.218,32.568,34.164,32.395,34.162z"/>
				
					<image overflow="visible" enable-background="new    " width="9" height="8" xlink:href="33D169F3BA6A6815.png"  transform="matrix(0.0963 0 0 0.0963 31.9551 34.6709)">
				</image>
				<circle fill="#FCE2AA" cx="30.506" cy="34.135" r="0.148"/>
			</g>
			<path fill="#404040" d="M30.586,28.018c-0.039,0.167-0.074,0.335-0.098,0.51c-0.041,0.309-0.078,0.616-0.113,0.926
				c-0.068,0.608-0.123,1.22-0.162,1.832c-0.037,0.555-0.043,1.104-0.043,1.659c0.006,0.214,0.023,0.426,0.055,0.636
				c0.031,0.138,0.049,0.217,0.049,0.217l0.012,0.047c0.029,0.127-0.051,0.254-0.178,0.283c-0.127,0.028-0.254-0.051-0.285-0.187
				c-0.057-0.287-0.051-0.59-0.051-0.881c0-0.454,0.021-0.909,0.047-1.362c0.057-0.953,0.137-1.912,0.301-2.854
				c0.037-0.215,0.055-0.438,0.135-0.645c0.084-0.216,0.254-0.301,0.4-0.465C30.631,27.828,30.607,27.923,30.586,28.018
				L30.586,28.018z M34.607,34.189c-0.363-0.048-0.148-0.126-0.133-1.19c0.031-1.252-0.094-2.514-0.229-3.757
				c-0.053-0.477-0.1-0.95-0.209-1.415c-0.01-0.039-0.018-0.082-0.002-0.119l0.236,0.309c0.189,0.246,0.184,0.687,0.23,0.986
				c0.064,0.423,0.125,0.846,0.182,1.271c0.117,0.891,0.225,1.789,0.236,2.688C34.922,33.146,34.99,34.242,34.607,34.189
				L34.607,34.189z"/>
		</g>
	</g>
	<g>
		<path fill="#90A4AE" d="M21.486,25.782c0,0-0.779,0.27-1.646-0.276c0.125-1.117,0.18-1.562,0.18-1.562s1.035,0.012,1.656,0.19
			C21.729,24.932,21.486,25.782,21.486,25.782L21.486,25.782z"/>
		<path fill="#546E7A" d="M21.188,24.914c-0.051,0.455,0.082,0.844,0.299,0.868c0.217,0.025,0.436-0.323,0.488-0.778
			c0.051-0.455-0.082-0.843-0.299-0.869C21.459,24.109,21.24,24.459,21.188,24.914z"/>
		<path fill="#E4F4FF" d="M18.088,13.854l0.066,0.312l2.344,2.845c0.078-0.065,0.154-0.131,0.232-0.195L18.088,13.854z"/>
		<path fill="#9EE4EF" d="M22.719,15.515l-3.322-1.851c-0.158-0.102-0.354-0.124-0.531-0.064l-0.777,0.255l2.645,2.961
			C21.375,16.294,22.033,15.827,22.719,15.515z"/>
		<path fill="#90A4AE" d="M23.229,23.247c0,0-0.598,0.206-1.26-0.212c0.096-0.854,0.137-1.193,0.137-1.193s0.793,0.008,1.268,0.146
			C23.412,22.597,23.229,23.247,23.229,23.247L23.229,23.247z"/>
		<path fill="#546E7A" d="M23,22.583c-0.041,0.348,0.061,0.646,0.229,0.665c0.166,0.019,0.332-0.248,0.373-0.597
			c0.039-0.348-0.062-0.645-0.229-0.664C23.207,21.969,23.039,22.234,23,22.583z"/>
		<path fill="#9EE4EF" d="M22.719,15.516c-0.688,0.312-1.344,0.778-1.986,1.301c-0.078,0.064-0.154,0.13-0.234,0.195
			c-0.014,0.011-0.029,0.025-0.049,0.04c0.973,0.037,2.939-0.228,5.111-1.764C24.547,14.965,23.607,15.11,22.719,15.516
			L22.719,15.516z"/>
		<path fill="#A6DAE8" d="M27.977,16.046l-1.059-0.122c-0.189-0.021-0.373-0.091-0.539-0.203c-0.012-0.007-0.023-0.016-0.037-0.023
			c-0.035-0.021-0.072-0.045-0.113-0.07c-0.119-0.076-0.273-0.165-0.469-0.269c-0.066-0.024-0.133-0.048-0.201-0.069
			c-2.172,1.537-4.139,1.801-5.111,1.764c-0.562,0.45-3.533,2.607-5.074,2.988c-0.91-0.024-2.381-1.15-3.408-1.984l-1.012,0.127
			c0.092,0.122,0.188,0.247,0.291,0.373c0,0.001,0.002,0.003,0.002,0.004c0.039,0.047,0.078,0.095,0.119,0.144l0.014,0.017
			c0.045,0.053,0.09,0.105,0.135,0.158c0.037,0.041,0.072,0.082,0.109,0.124c0.012,0.012,0.021,0.022,0.033,0.036
			c0.035,0.037,0.068,0.075,0.105,0.113c0.014,0.016,0.027,0.029,0.041,0.043c0.033,0.035,0.066,0.071,0.102,0.106
			c0.018,0.017,0.033,0.033,0.051,0.05c0.031,0.033,0.064,0.066,0.098,0.099l0.059,0.057c0.031,0.031,0.062,0.062,0.096,0.092
			c0.021,0.021,0.043,0.041,0.064,0.061c0.031,0.028,0.062,0.057,0.094,0.085c0.023,0.021,0.051,0.045,0.074,0.066
			c0.029,0.025,0.059,0.051,0.09,0.077c0.025,0.021,0.053,0.045,0.08,0.068c0.029,0.023,0.059,0.048,0.09,0.071
			c0.027,0.023,0.057,0.046,0.086,0.068c0.027,0.022,0.057,0.046,0.086,0.068c0.031,0.023,0.062,0.047,0.094,0.069
			c0.029,0.021,0.057,0.042,0.084,0.062c0.033,0.022,0.068,0.046,0.102,0.069c0.027,0.02,0.055,0.039,0.082,0.058
			c0.035,0.022,0.07,0.046,0.105,0.067c0.029,0.019,0.055,0.036,0.084,0.055c0.035,0.021,0.072,0.044,0.109,0.065
			c0.027,0.018,0.055,0.034,0.084,0.05c0.037,0.021,0.074,0.042,0.113,0.062c0.027,0.016,0.057,0.032,0.084,0.046
			c0.039,0.021,0.078,0.04,0.117,0.06c0.029,0.015,0.057,0.029,0.084,0.044c0.041,0.019,0.08,0.036,0.121,0.055
			c0.029,0.013,0.059,0.026,0.086,0.04c0.041,0.018,0.084,0.034,0.125,0.051c0.029,0.012,0.059,0.024,0.088,0.035
			c0.041,0.017,0.084,0.031,0.129,0.046c0.029,0.011,0.059,0.022,0.088,0.032c0.045,0.015,0.092,0.028,0.137,0.042
			c0.029,0.008,0.057,0.018,0.084,0.025c0.049,0.015,0.098,0.026,0.146,0.038c0.027,0.007,0.053,0.016,0.08,0.021
			c0.076,0.018,0.152,0.034,0.229,0.048c0.828,0.152,1.74,0.093,2.729-0.289c1.717-0.664,3.402-1.209,4.93-1.739
			c0.301-0.104,0.602-0.211,0.902-0.318c0.076-0.028,0.152-0.057,0.229-0.084c0.066-0.025,0.137-0.052,0.205-0.076
			c0.854-0.32,1.637-0.647,2.32-1.003c0,0,0,0,0.002-0.001c0.1-0.053,0.197-0.105,0.291-0.158c0.016-0.008,0.029-0.016,0.043-0.023
			c0.082-0.046,0.16-0.094,0.24-0.142c0.025-0.016,0.051-0.03,0.076-0.046c0.066-0.04,0.127-0.081,0.189-0.122
			c0.035-0.024,0.074-0.047,0.109-0.071c0.049-0.034,0.096-0.068,0.145-0.104c0.045-0.032,0.092-0.064,0.135-0.098
			c0.039-0.028,0.072-0.058,0.107-0.087c0.051-0.041,0.104-0.08,0.15-0.121c0.029-0.023,0.055-0.049,0.082-0.072
			c0.053-0.048,0.107-0.096,0.158-0.144c0.02-0.021,0.039-0.042,0.059-0.062c0.055-0.055,0.107-0.109,0.16-0.166
			C28.426,16.189,28.209,16.072,27.977,16.046L27.977,16.046z"/>
		<path fill="#9EE4EF" d="M10.955,18.184l1.012-0.128c-0.381-0.31-0.703-0.58-0.91-0.738c-0.133-0.102-0.297-0.13-0.455-0.082
			l-0.252,0.078l0.021,0.034c0,0,0,0,0.002,0C10.557,17.635,10.752,17.913,10.955,18.184L10.955,18.184z"/>
		<path fill="#44BFD3" d="M28.582,16.39c-1.771,1.974-6.062,2.901-10.523,4.628c-2.834,1.093-5.27-0.396-7.104-2.833l-0.828,0.104
			c4.857,6.352,6.107,5.831,11.281,3.988c6.811-2.062,7.223-4.017,7.457-5.103C28.914,16.941,28.678,16.285,28.582,16.39z"/>
		<path fill="#A6DAE8" d="M10.373,17.348c-0.014-0.021-0.039-0.03-0.062-0.021l-0.627,0.188c-0.051,0.016-0.068,0.093-0.035,0.136
			c0,0,0.18,0.248,0.479,0.639l0.828-0.104C10.75,17.913,10.557,17.634,10.373,17.348L10.373,17.348z"/>
		<path fill="#90A4AE" d="M27.791,16.024c-0.004,0.039-0.021,0.075-0.045,0.104c-0.781,1.113-1.77,1.291-2.402,1.288
			c-0.328-0.001-0.812-0.226-1.016-0.448c-0.043-0.046-0.078-0.104-0.064-0.174c0.012-0.072,0.062-0.124,0.121-0.13
			c0.926-0.101,1.547-0.449,1.846-1.037c0.041,0.025,0.078,0.049,0.113,0.07c0.012,0.009,0.025,0.017,0.037,0.024
			c0.166,0.111,0.348,0.181,0.539,0.203L27.791,16.024z"/>
		<g>
			<path fill="#E4F4FF" d="M25.564,18.854L19.4,25.717c-0.334,0.372-0.781,0.54-1.209,0.456l-0.721-0.144l0.213,0.317l0.646,0.087
				c0.406,0.055,0.822-0.112,1.139-0.458l6.246-6.831L25.564,18.854L25.564,18.854z"/>
			<path fill="#8AD1E2" d="M25.564,18.854l-4.258,1.276l-3.836,5.899l0.846,0.167c0.352,0.069,0.715-0.067,0.986-0.37L25.564,18.854
				L25.564,18.854z"/>
		</g>
		<g>
			<path fill="#DDE5ED" d="M24.389,16.822c0.688,0.427,1.613,0.48,2.551-0.168l-0.598-0.957
				C26.107,16.166,25.598,16.692,24.389,16.822z"/>
			<path fill="#E4F4FF" d="M27.664,16.01l-0.746-0.086c-0.189-0.021-0.373-0.091-0.537-0.203c-0.012-0.007-0.025-0.016-0.039-0.023
				l0.598,0.957C27.182,16.487,27.424,16.276,27.664,16.01L27.664,16.01z"/>
		</g>
		<path fill="#14B0BF" d="M18.6,23.218c-1.717,0.48-2.865,0.262-3.703-0.13c-0.453-0.211-0.971-0.606-1.5-1.09
			C14.467,21.729,17.305,22.003,18.6,23.218z"/>
		<g>
			<path fill="#90A4AE" d="M17.502,20.242l-0.014-0.136c-0.021-0.21-0.176-0.353-0.346-0.316l-0.023,0.009
				c-0.17,0.035-0.293,0.236-0.273,0.446l0.018,0.161l0.016,0.144c0.02,0.21,0.174,0.354,0.344,0.318l0.025-0.01
				c0.168-0.036,0.291-0.236,0.271-0.446L17.502,20.242z M18.73,19.798l-0.012-0.101c-0.023-0.209-0.182-0.347-0.35-0.307
				l-0.051,0.018c-0.168,0.041-0.287,0.245-0.264,0.454l0.025,0.187l0.02,0.16c0.023,0.208,0.182,0.347,0.352,0.306l0.049-0.018
				c0.17-0.041,0.289-0.245,0.264-0.454L18.73,19.798L18.73,19.798z M20.035,19.229l-0.012-0.068
				c-0.027-0.208-0.188-0.342-0.355-0.297l-0.074,0.027c-0.168,0.045-0.283,0.252-0.256,0.46l0.027,0.179l0.031,0.207
				c0.027,0.208,0.188,0.342,0.355,0.296l0.076-0.026c0.168-0.045,0.281-0.253,0.254-0.46L20.035,19.229z M21.32,18.608l-0.02-0.11
				c-0.031-0.207-0.195-0.335-0.361-0.285l-0.1,0.036c-0.168,0.05-0.279,0.261-0.248,0.468l0.039,0.231l0.033,0.194
				c0.033,0.207,0.193,0.335,0.361,0.285l0.102-0.036c0.166-0.05,0.279-0.261,0.246-0.468L21.32,18.608z M22.455,18.024
				l-0.043-0.241c-0.037-0.205-0.201-0.328-0.369-0.272l-0.125,0.045c-0.166,0.055-0.273,0.269-0.238,0.475l0.066,0.362l0.018,0.104
				c0.037,0.206,0.201,0.329,0.369,0.273l0.125-0.046c0.166-0.055,0.273-0.269,0.238-0.475L22.455,18.024L22.455,18.024z"/>
			<path fill="#90A4AE" d="M17.615,20.08c-0.023-0.245-0.178-0.433-0.373-0.454c-0.039-0.004-0.076-0.002-0.113,0.005
				c-0.004,0.001-0.01,0.002-0.014,0.004l-0.02,0.007c-0.236,0.055-0.404,0.335-0.377,0.632l0.033,0.303
				c0.021,0.245,0.176,0.433,0.373,0.455c0.037,0.004,0.076,0.003,0.111-0.005c0.006-0.001,0.012-0.002,0.016-0.004l0.02-0.007
				c0.236-0.055,0.404-0.335,0.377-0.633L17.615,20.08z M18.846,19.667c-0.027-0.238-0.18-0.419-0.371-0.441
				c-0.041-0.004-0.082-0.002-0.135,0.011l-0.039,0.016c-0.115,0.026-0.217,0.109-0.289,0.23c-0.07,0.122-0.102,0.268-0.084,0.414
				l0.045,0.342c0.027,0.238,0.18,0.419,0.371,0.441c0.041,0.005,0.082,0.002,0.135-0.011l0.039-0.016
				c0.24-0.058,0.408-0.346,0.373-0.646L18.846,19.667z M20.15,19.126c-0.029-0.235-0.18-0.407-0.369-0.43
				c-0.045-0.005-0.09-0.001-0.143,0.014l-0.066,0.023c-0.115,0.031-0.217,0.116-0.285,0.24c-0.068,0.123-0.096,0.271-0.076,0.416
				l0.059,0.382c0.031,0.234,0.182,0.406,0.371,0.429c0.043,0.006,0.088,0.001,0.143-0.013l0.064-0.023
				c0.115-0.031,0.217-0.116,0.285-0.24c0.07-0.124,0.096-0.271,0.078-0.416L20.15,19.126z M21.428,18.459
				c-0.033-0.229-0.182-0.396-0.369-0.416c-0.049-0.005-0.102,0-0.148,0.015l-0.094,0.034c-0.115,0.035-0.215,0.123-0.281,0.248
				c-0.066,0.128-0.09,0.273-0.068,0.417l0.072,0.423c0.035,0.228,0.182,0.395,0.369,0.416c0.047,0.005,0.096,0.001,0.148-0.015
				l0.094-0.034c0.113-0.035,0.215-0.123,0.279-0.248c0.068-0.128,0.092-0.274,0.07-0.417L21.428,18.459z M22.537,17.742
				c-0.037-0.22-0.186-0.383-0.367-0.402c-0.053-0.006-0.105,0-0.156,0.018l-0.123,0.044c-0.113,0.038-0.211,0.129-0.275,0.256
				c-0.064,0.13-0.086,0.275-0.061,0.417l0.084,0.465c0.037,0.221,0.186,0.383,0.367,0.403l0,0c0.051,0.006,0.102,0,0.156-0.018
				l0.123-0.044c0.236-0.078,0.387-0.379,0.336-0.673L22.537,17.742z M23.814,17.672l-0.135-0.701
				c-0.043-0.214-0.188-0.371-0.365-0.392c-0.057-0.007-0.111,0-0.164,0.02L23,16.652c-0.234,0.086-0.381,0.392-0.324,0.683
				l0.135,0.701c0.041,0.213,0.189,0.37,0.365,0.391c0.055,0.006,0.111,0,0.164-0.021l0.15-0.055
				c0.113-0.041,0.211-0.135,0.271-0.264C23.824,17.959,23.842,17.812,23.814,17.672L23.814,17.672z"/>
			<path fill="#90A4AE" d="M23.689,17.718l-0.062-0.324l-0.072-0.377c-0.041-0.205-0.209-0.323-0.375-0.263l-0.15,0.054
				c-0.166,0.062-0.27,0.277-0.23,0.482l0.098,0.5l0.039,0.2c0.039,0.205,0.207,0.323,0.373,0.264l0.15-0.056
				C23.625,18.139,23.729,17.922,23.689,17.718L23.689,17.718z"/>
		</g>
		<g>
			<path fill="#E4F4FF" d="M17.217,19.717l-0.025,0.009c-0.17,0.035-0.293,0.236-0.271,0.447l0.016,0.162
				c0.162-0.032,0.369-0.083,0.641-0.165l-0.016-0.136C17.541,19.824,17.387,19.681,17.217,19.717z"/>
			<path fill="#DDE5ED" d="M16.953,20.478c0.02,0.21,0.174,0.354,0.344,0.317l0.025-0.009c0.168-0.036,0.291-0.236,0.271-0.446
				l-0.02-0.17c-0.27,0.082-0.479,0.133-0.639,0.165L16.953,20.478z M18.174,20.136c0.023,0.209,0.18,0.347,0.35,0.307l0.051-0.019
				c0.168-0.04,0.287-0.245,0.264-0.453l-0.033-0.246c-0.217,0.088-0.434,0.172-0.652,0.251L18.174,20.136L18.174,20.136z"/>
			<path fill="#E4F4FF" d="M18.441,19.317l-0.051,0.019c-0.168,0.041-0.287,0.245-0.264,0.454l0.023,0.186
				c0.221-0.079,0.438-0.163,0.652-0.251l-0.012-0.1C18.768,19.415,18.609,19.277,18.441,19.317z M19.742,18.791l-0.076,0.026
				c-0.168,0.045-0.283,0.252-0.256,0.46l0.027,0.18c0.225-0.099,0.447-0.199,0.67-0.303l-0.012-0.068
				C20.07,18.879,19.91,18.746,19.742,18.791z"/>
			<path fill="#DDE5ED" d="M19.469,19.665c0.029,0.208,0.189,0.341,0.357,0.295l0.074-0.027c0.168-0.045,0.283-0.252,0.256-0.461
				l-0.049-0.316c-0.221,0.104-0.443,0.204-0.67,0.303L19.469,19.665z"/>
			<path fill="#E4F4FF" d="M21.014,18.139l-0.102,0.037c-0.166,0.05-0.277,0.261-0.246,0.468l0.039,0.232
				c0.229-0.112,0.459-0.226,0.688-0.34l-0.018-0.111C21.344,18.218,21.18,18.09,21.014,18.139z"/>
			<path fill="#DDE5ED" d="M20.738,19.069c0.029,0.207,0.193,0.335,0.359,0.285l0.102-0.037c0.168-0.05,0.279-0.261,0.248-0.467
				l-0.055-0.313c-0.229,0.114-0.457,0.228-0.688,0.339L20.738,19.069L20.738,19.069z M21.838,18.424
				c0.035,0.206,0.201,0.329,0.367,0.273l0.125-0.045c0.168-0.056,0.273-0.269,0.238-0.475l-0.041-0.227
				c-0.236,0.124-0.473,0.247-0.711,0.368L21.838,18.424z"/>
			<path fill="#E4F4FF" d="M22.117,17.438l-0.125,0.045c-0.168,0.056-0.275,0.27-0.24,0.476l0.066,0.361
				c0.238-0.122,0.475-0.243,0.709-0.367l-0.043-0.241C22.449,17.506,22.283,17.383,22.117,17.438z"/>
			<path fill="#DDE5ED" d="M23.701,17.32c-0.244,0.134-0.488,0.267-0.732,0.396l0.039,0.201c0.041,0.204,0.209,0.322,0.375,0.263
				l0.15-0.055c0.166-0.061,0.27-0.277,0.229-0.482L23.701,17.32z"/>
			<path fill="#E4F4FF" d="M23.627,16.943c-0.039-0.205-0.207-0.322-0.375-0.263l-0.15,0.054c-0.166,0.062-0.27,0.277-0.229,0.482
				l0.096,0.5c0.244-0.131,0.488-0.263,0.73-0.396L23.627,16.943z"/>
		</g>
		<g>
			<path fill="#E4F4FF" d="M16.494,22.149l0.088,0.248l-2.133,2.247c-0.143,0.151-0.326,0.229-0.506,0.209
				c-0.09-0.01-0.176-0.034-0.258-0.072l-0.367-0.121l-0.096-0.205L16.494,22.149z"/>
			<path fill="#8AD1E2" d="M16.494,22.149l-2.1,2.315c-0.131,0.144-0.297,0.222-0.465,0.212c-0.086-0.004-0.168-0.019-0.225-0.038
				l-0.482-0.184l1.744-2.351L16.494,22.149z"/>
		</g>
	</g>
	<g>
		<path fill="#BCCAD8" d="M73.242,28.06v2.521h6.469V28.06c0-0.458-0.371-0.83-0.83-0.83h-4.809
			C73.613,27.23,73.242,27.602,73.242,28.06L73.242,28.06z"/>
		<path fill="#C5D3E1" d="M78.996,27.255c0-0.06-0.006-0.118-0.02-0.176c-0.033-0.191-0.119-0.37-0.244-0.519
			c-0.188-0.23-0.461-0.376-0.738-0.376h-2.822c-0.381,0-0.699,0.146-0.91,0.376c-0.135,0.146-0.225,0.324-0.262,0.519
			c-0.012,0.057-0.018,0.115-0.02,0.176H78.996z"/>
		<g>
			<path fill="#27B1D1" d="M77.639,27.637c-0.18,0-0.326,0.082-0.326,0.183v0.303c0,0.101,0.146,0.183,0.326,0.183
				s0.324-0.082,0.324-0.183v-0.303C77.963,27.719,77.818,27.637,77.639,27.637z M78.76,27.637c-0.18,0-0.326,0.082-0.326,0.183
				v0.303c0,0.101,0.146,0.183,0.326,0.183c0.178,0,0.324-0.082,0.324-0.183v-0.303C79.084,27.719,78.939,27.637,78.76,27.637z
				 M74.277,27.637c-0.18,0-0.324,0.082-0.324,0.183v0.303c0,0.101,0.145,0.183,0.324,0.183s0.324-0.082,0.324-0.183v-0.303
				C74.602,27.719,74.455,27.637,74.277,27.637z M75.396,27.637c-0.18,0-0.324,0.082-0.324,0.183v0.303
				c0,0.101,0.146,0.183,0.324,0.183c0.18,0,0.326-0.082,0.326-0.183v-0.303C75.723,27.719,75.578,27.637,75.396,27.637z
				 M76.518,27.637c-0.18,0-0.324,0.082-0.324,0.183v0.303c0,0.101,0.146,0.183,0.324,0.183c0.18,0,0.324-0.082,0.324-0.183v-0.303
				C76.842,27.719,76.697,27.637,76.518,27.637z"/>
		</g>
		<path fill="#BCCAD8" d="M74.959,25.767h1.037v0.513h-1.037V25.767z"/>
		<path fill="#D13F4A" d="M74.959,25.255h1.037v0.513h-1.037V25.255z"/>
		<path fill="#BCCAD8" d="M74.959,24.742h1.037v0.513h-1.037V24.742z"/>
		<path fill="#D13F4A" d="M74.959,24.229h1.037v0.514h-1.037V24.229z"/>
		<path fill="#587B98" d="M76.506,28.163l-5.783,2.359c-0.252,0.104-0.285,0.449-0.053,0.594c0.672,0.42,1.758,1.287,2.539,2.846
			h3.297V28.163L76.506,28.163z"/>
		<path fill="#E74C3C" d="M73.209,33.962c0.238,0.474,0.449,1.011,0.609,1.619h2.688v-1.619H73.209z"/>
		<path fill="#435F7A" d="M82.289,30.522l-5.783-2.359v5.799h3.297c0.783-1.56,1.869-2.426,2.541-2.845
			C82.576,30.972,82.543,30.626,82.289,30.522z"/>
		<path fill="#C0392B" d="M76.506,33.962v1.619h2.688c0.162-0.608,0.371-1.146,0.609-1.619H76.506z"/>
		<g>
			<path fill="#344E62" d="M76.123,30.08c0,0.244-0.152,0.443-0.34,0.443c-0.189,0-0.344-0.199-0.344-0.443
				c0-0.246,0.154-0.445,0.344-0.445C75.971,29.636,76.123,29.835,76.123,30.08z M77.672,30.08c0,0.244-0.152,0.443-0.342,0.443
				s-0.342-0.199-0.342-0.443c0-0.246,0.152-0.445,0.342-0.445C77.52,29.636,77.672,29.835,77.672,30.08z"/>
		</g>
		<g>
			<path fill="none" d="M74.855,30.28c-0.002,0-0.002,0-0.004,0c-0.094,0.007-0.168,0.088-0.162,0.184
				c0.006,0.091,0.08,0.162,0.174,0.163h0.002c0.094-0.002,0.17-0.081,0.168-0.176c0,0,0,0,0-0.002
				C75.029,30.354,74.951,30.277,74.855,30.28L74.855,30.28L74.855,30.28z M74.869,30.914L74.869,30.914l-0.004-0.104L74.869,30.914
				z"/>
			<path fill="#BDC3C7" d="M76.219,32.466c0.014,0,0.021-0.018,0.014-0.028l-0.469-0.559c-0.006-0.007-0.016-0.008-0.023-0.002
				c-0.002,0.003-0.006,0.007-0.006,0.011c-0.016,0.129-0.043,0.256-0.08,0.38c-0.033,0.104-0.068,0.204-0.109,0.303
				c-0.004,0.01,0,0.02,0.008,0.022c0.004,0.002,0.008,0.002,0.012,0.001c0.021-0.006,0.043-0.012,0.072-0.021
				c0.039-0.01,0.084-0.021,0.135-0.032c-0.004,0.024-0.012,0.051-0.023,0.076c-0.029,0.06-0.09,0.118-0.203,0.168
				c-0.084,0.035-0.43,0.083-0.463-0.128c-0.057-0.349-0.055-0.785-0.029-1.117c0.018-0.239,0.229-0.439,0.467-0.446h0.031
				l-0.006-0.198l-0.303,0.008c-0.096,0.002-0.176-0.073-0.18-0.17l-0.002-0.049c0.07-0.06,0.109-0.147,0.107-0.24
				c-0.004-0.17-0.146-0.304-0.316-0.3H74.85c-0.17,0.006-0.303,0.147-0.299,0.316c0.004,0.092,0.047,0.177,0.119,0.233l0.002,0.05
				c0.002,0.096-0.074,0.176-0.17,0.179l-0.303,0.008l0.006,0.197l0.031-0.001c0.238-0.006,0.459,0.183,0.488,0.421
				c0.043,0.331,0.068,0.767,0.029,1.118c-0.021,0.213-0.369,0.184-0.455,0.151c-0.113-0.043-0.176-0.098-0.211-0.153
				c-0.014-0.024-0.023-0.051-0.027-0.077c0.006,0.001,0.016,0.002,0.021,0.003c0.008,0.001,0.016,0.003,0.021,0.004
				c0.057,0.009,0.109,0.021,0.164,0.034c0.008,0.002,0.02-0.003,0.021-0.014c0-0.003,0-0.008-0.002-0.011
				c-0.047-0.097-0.088-0.196-0.125-0.297c-0.047-0.122-0.08-0.248-0.102-0.375c-0.004-0.015-0.021-0.019-0.029-0.007l-0.439,0.583
				c-0.006,0.007-0.004,0.018,0.004,0.022c0.002,0.003,0.006,0.005,0.01,0.005c0.047-0.002,0.119,0.005,0.199,0.015
				c0.006,0,0.014,0.001,0.021,0.002c-0.002,0.021-0.002,0.042-0.002,0.062c0.002,0.133,0.037,0.26,0.129,0.366
				c0.156,0.188,0.389,0.214,0.594,0.323c0.137,0.073,0.273,0.188,0.395,0.288c0.115-0.106,0.246-0.229,0.379-0.308
				c0.199-0.12,0.43-0.16,0.576-0.354c0.086-0.112,0.115-0.241,0.109-0.375c0-0.02-0.002-0.04-0.004-0.06
				c0.004-0.001,0.006-0.001,0.01-0.002C76.096,32.478,76.172,32.468,76.219,32.466L76.219,32.466z M74.865,30.626h-0.004
				c-0.096,0.002-0.174-0.073-0.178-0.168c-0.002-0.096,0.074-0.175,0.168-0.178c0.002,0,0.002,0,0.004,0
				c0.096-0.002,0.174,0.073,0.178,0.168l0,0C75.035,30.544,74.959,30.623,74.865,30.626L74.865,30.626z"/>
		</g>
		<g>
			<path fill="#27B1D1" d="M76.367,26.561v0.519h-2.365c0.035-0.194,0.127-0.373,0.26-0.519H76.367z M78.979,27.079h-2.316v-0.519
				h2.072C78.859,26.709,78.943,26.888,78.979,27.079z"/>
		</g>
		<g>
			<path fill="#3C556E" d="M74.857,30.593c-0.025,0-0.053-0.007-0.074-0.022c-0.064-0.042-0.084-0.126-0.043-0.19
				c0.021-0.04,0.26-0.385,1.033-0.439c0.074-0.006,0.145,0.054,0.15,0.131c0.004,0.078-0.055,0.146-0.131,0.15
				c-0.629,0.044-0.814,0.306-0.816,0.309C74.949,30.57,74.904,30.593,74.857,30.593z"/>
		</g>
	</g>
	<g>
		<path fill="#7C5135" d="M12.461,31.806H11.52c-0.867,5.995,2.166,9.933,2.166,9.933s0.211,0.424,0.846-0.053
			C12.291,37.673,12.176,34.081,12.461,31.806z"/>
		<path fill="#FCE2AA" d="M6.871,44.594c0,0,0.518-2.986,6.361-2.986s8.959,3.116,8.959,3.116L6.871,44.594z"/>
		<path fill="#349444" d="M12.096,32.283c0,0-2.162-2.759-5.363,1.094c2.436-1.066,4.137,0.098,5.021-0.443
			C12.639,32.391,12.096,32.283,12.096,32.283L12.096,32.283z"/>
		<path fill="#3BA449" d="M8.365,28.774c1.543,2.35,4.125,4.058,4.125,4.058l0.377-0.088C12.453,30.13,10.662,28.698,8.365,28.774z"
			/>
		<path fill="#349444" d="M15.105,28.733c-2.953-0.394-4.115,3.825-4.115,3.825C12.768,33.033,13.064,30.507,15.105,28.733z"/>
		<path fill="#3BA449" d="M11.613,33.064c2.436-0.285,0.371-0.46,4.66-2.659C11.291,29.797,11.613,33.064,11.613,33.064z"/>
		<path fill="#349444" d="M11.73,33.195c3.398-0.404,1.463-0.092,4.701,0.063C12.59,29.737,11.73,33.195,11.73,33.195L11.73,33.195z
			"/>
		<path fill="#8E5E3D" d="M18.012,29.529c-5.178,4.491-4.938,11.163-4.52,12.57c0.5,0.059,1.006,0.136,1.502,0.187
			c-0.516-10.162,3.395-12.064,3.395-12.064S19.756,30.163,18.012,29.529z"/>
		<path fill="#36A53E" d="M17.848,30.791c0,0,1.877-3.393-3.08-5.586c0.814,1.661,2.281,4.38,2.246,5.424
			C16.979,31.663,17.848,30.791,17.848,30.791z"/>
		<path fill="#39B54A" d="M19.504,25.013c-1.584,2.416-1.949,5.48-1.949,5.48l0.293,0.298
			C20.309,29.269,20.816,27.036,19.504,25.013z"/>
		<path fill="#36A53E" d="M23.768,28.514c-4.039-1.158-6.504,1.682-6.504,1.682C19.625,31.124,20.186,29.486,23.768,28.514z"/>
		<path fill="#39B54A" d="M17.148,30.265c2.391,1.381,1.807,0.108,7.266,1.263C20.408,27.805,17.148,30.265,17.148,30.265z"/>
		<path fill="#36A53E" d="M17.029,30.448c1.635,0.73,2.92,1.203,4.633,3.533C21.74,28.662,17.029,30.448,17.029,30.448z"/>
		<path fill="#39B54A" d="M18.051,31.211c0,0-0.916-4.381-7.324-2.424C14.086,29.314,13.857,29.164,18.051,31.211z"/>
		<ellipse fill="#7C564E" cx="11.871" cy="32.551" rx="0.486" ry="0.633"/>
		<ellipse fill="#8E6862" cx="12.391" cy="32.847" rx="0.396" ry="0.633"/>
		<ellipse fill="#7C564E" cx="17.367" cy="30.279" rx="0.49" ry="0.656"/>
		<path fill="#7C564E" d="M17.98,31.222c0,0.362-0.219,0.656-0.49,0.656c-0.273,0-0.492-0.293-0.492-0.656s0.219-0.656,0.492-0.656
			C17.762,30.565,17.98,30.858,17.98,31.222z"/>
		<path fill="#8E6862" d="M18.596,30.729c0,0.476-0.219,0.861-0.492,0.861c-0.271,0-0.49-0.386-0.49-0.861s0.219-0.86,0.49-0.86
			C18.377,29.869,18.596,30.254,18.596,30.729z"/>
	</g>
	<g>
		<path fill="#F57F17" d="M13.355,46.551c0,2.534-1.738,4.663-4.086,5.26c-0.439,0.111-0.891,0.168-1.342,0.168
			c-2.998,0-5.428-2.431-5.428-5.428c0-1.509,0.615-2.873,1.607-3.856c0.178-0.177,0.369-0.341,0.57-0.49
			c0.938-0.703,2.078-1.082,3.25-1.08c1.189,0,2.289,0.383,3.182,1.03c0.205,0.147,0.4,0.311,0.582,0.485
			c0.008,0.007,0.016,0.015,0.021,0.021C12.725,43.647,13.355,45.025,13.355,46.551L13.355,46.551z"/>
		<circle fill="#EEFF41" cx="7.928" cy="46.551" r="4.691"/>
		<path fill="#F57F17" d="M11.916,46.551c0,2.203-1.785,3.988-3.988,3.988s-3.99-1.785-3.99-3.988s1.787-3.989,3.99-3.989
			S11.916,44.348,11.916,46.551z"/>
		<circle fill="#EEFF41" cx="7.928" cy="46.551" r="3.448"/>
		<path fill="#F9A825" d="M3.082,41.134c0,0,3.094,2.626,4.846,2.626c-0.594-0.281-4.346-3.073-4.346-3.073l0.072,0.572
			L3.082,41.134L3.082,41.134z"/>
		<path fill="#DD9521" d="M12.773,41.134c0,0-3.096,2.626-4.846,2.626c0.594-0.281,4.346-3.073,4.346-3.073l-0.072,0.572
			L12.773,41.134z"/>
		<path fill="#F9A825" d="M8.037,43.666c0,0-0.656-1.375-1.955-1.75C6.582,42.666,6.834,43.291,8.037,43.666z"/>
		<path fill="#FFEA00" d="M6.082,41.916l-0.406,0.5c0,0,0.689,1.469,2.127,1.469c0.219-0.062,0.234-0.219,0.234-0.219
			S6.582,42.9,6.082,41.916z"/>
		<path fill="#DD9521" d="M8.037,43.666c0,0,0.658-1.375,1.955-1.75C9.492,42.666,9.24,43.291,8.037,43.666z"/>
		<path fill="#E3D000" d="M9.992,41.916l0.406,0.5c0,0-0.688,1.469-2.127,1.469c-0.219-0.062-0.234-0.219-0.234-0.219
			S9.492,42.9,9.992,41.916z"/>
		<circle fill="#F9A825" cx="8.037" cy="43.666" r="0.219"/>
		<g>
			<path fill="#E65100" d="M10.768,46.843c0,1.536-1.268,2.781-2.832,2.781s-2.832-1.245-2.832-2.781c0-1.535,1.268-2.78,2.832-2.78
				S10.768,45.308,10.768,46.843z"/>
			<circle fill="#F57F17" cx="7.936" cy="46.515" r="2.597"/>
			<path fill="#F9A825" d="M9.621,46.516c0,0.93-0.754,1.684-1.686,1.684c-0.93,0-1.684-0.754-1.684-1.684
				c0-0.931,0.754-1.685,1.684-1.685C8.867,44.831,9.621,45.585,9.621,46.516z"/>
		</g>
	</g>
	<g>
		<path fill="#C9C9C9" d="M18.18,45.811c-0.287-0.019-0.572-0.034-0.857-0.048c0.293,0.009,0.584,0.021,0.867,0.037
			C18.186,45.803,18.182,45.808,18.18,45.811z M20.037,48.169c0.352-0.049,0.703-0.188,1.004-0.401
			C20.74,47.98,20.389,48.12,20.037,48.169z"/>
		<path fill="#93CBD8" d="M11.844,45.308c0-0.386,10.324-0.286,10.322,1.073c0,0.265-0.248,0.438-0.523,0.379
			c-0.307-0.064-0.389-0.423-1.252-0.66c-3.098-0.851-8.479-0.462-8.547-0.453V45.308z"/>
		<path fill="#A4D7E7" d="M21.295,45.253c0.029-0.384-10.271-1.089-10.375,0.265c-0.021,0.266,0.213,0.456,0.492,0.42
			c0.312-0.041,0.42-0.392,1.301-0.562c3.152-0.606,8.488,0.201,8.555,0.216L21.295,45.253L21.295,45.253z"/>
		<path fill="#616161" d="M16.531,45.479c-0.09,0.021-0.307,0.055-0.611-0.013c-0.68-0.771-1.246-0.951-2.469-0.996
			c-0.908,0.03-1.584,0.313-1.934,0.499c-0.168,0.09-0.252,0.283-0.205,0.47c0.018,0.071,0.037,0.144,0.059,0.213
			c0.32,1.091,0.928,2.097,2.102,2.309c1.111,0.201,1.99-0.181,2.447-1.145c0.215-0.456,0.502-0.566,0.611-0.594V45.479z
			 M15.242,47.141c-0.967,1.012-3.129,0.227-3.26-1.378c-0.031-0.398,0.279-0.632,0.605-0.76c0.498-0.193,1.184-0.143,1.605-0.052
			c0.451,0.097,0.992,0.258,1.318,0.615C15.977,46.081,15.654,46.709,15.242,47.141L15.242,47.141z"/>
		
			<image overflow="visible" enable-background="new    " width="40" height="30" xlink:href="33D169F3BA6A6817.png"  transform="matrix(0.0963 0 0 0.0963 11.9229 44.7832)">
		</image>
		
			<image overflow="visible" enable-background="new    " width="23" height="26" xlink:href="33D169F3BA6A6812.png"  transform="matrix(0.0963 0 0 0.0963 12.4043 44.9766)">
		</image>
		<g>
			<path fill="#616161" d="M16.531,45.479c0.088,0.021,0.305,0.055,0.609-0.013c0.68-0.771,1.246-0.951,2.469-0.996
				c0.91,0.03,1.584,0.313,1.934,0.499c0.168,0.09,0.252,0.283,0.205,0.47c-0.018,0.071-0.037,0.144-0.059,0.213
				c-0.32,1.091-0.928,2.097-2.102,2.309c-1.111,0.201-1.99-0.181-2.447-1.145c-0.215-0.456-0.502-0.566-0.609-0.594V45.479z
				 M17.816,47.141c0.969,1.012,3.131,0.227,3.262-1.378c0.031-0.398-0.279-0.632-0.607-0.76c-0.496-0.193-1.184-0.143-1.604-0.052
				c-0.453,0.097-0.992,0.258-1.318,0.615C17.082,46.081,17.406,46.709,17.816,47.141L17.816,47.141z"/>
			
				<image overflow="visible" enable-background="new    " width="40" height="30" xlink:href="33D169F3BA6A6813.png"  transform="matrix(0.0963 0 0 0.0963 17.3164 44.7832)">
			</image>
			
				<image overflow="visible" enable-background="new    " width="25" height="26" xlink:href="33D169F3BA6A681D.png"  transform="matrix(0.0963 0 0 0.0963 17.5088 44.9775)">
			</image>
		</g>
	</g>
</g>
</svg>
