<?xml version="1.0" encoding="utf-8"?>
<!-- Generator: Adobe Illustrator 16.0.0, SVG Export Plug-In . SVG Version: 6.00 Build 0)  -->
<!DOCTYPE svg PUBLIC "-//W3C//DTD SVG 1.1//EN" "http://www.w3.org/Graphics/SVG/1.1/DTD/svg11.dtd">
<svg version="1.1" id="Layer_1" xmlns="http://www.w3.org/2000/svg" xmlns:xlink="http://www.w3.org/1999/xlink" x="0px" y="0px"
	 width="85px" height="85px" viewBox="0 0 85 85" enable-background="new 0 0 85 85" xml:space="preserve">
<g>
	<path fill="#010101" d="M29.302,60.619H54.56v1.533H29.302V60.619z"/>
	<path fill="#232324" d="M49.886,56.588c0,2.229-1.805,4.031-4.031,4.031h-7.535c-2.227,0-4.031-1.804-4.031-4.031l-3.176-0.681
		c0-2.229,3.617-5.696,5.844-5.696h10.109c2.227,0,5.838,2.977,5.838,5.204L49.886,56.588z"/>
	<path fill="#424143" d="M32.856,30.842l0.012,21.395c0,0,6.855,1.209,9.141,1.209c2.262,0,9.041-1.209,9.041-1.209l0.012-21.395
		c0,0,0.002-0.363,0.336-0.646c0.158-0.139,0.596-0.329,0.775-0.293c1.205,0.229,2.074-1.93,2.074-2.413
		c0-2.942-3.646-5.474-7.883-6.629h-8.549c-4.24,1.156-7.885,3.687-7.885,6.629C29.931,28.194,32.856,30.842,32.856,30.842z"/>
	<path fill="#676667" d="M45.903,20.832l2.307,5.008l-3.695,2.847l1.162,1.115l-3.719,10.438l0.029-9.39L45.903,20.832z
		 M38.011,20.704l-2.303,5.008l3.693,2.845l-1.162,1.118l3.719,10.438l-0.033-9.392L38.011,20.704z"/>
	<path fill="#C4C4C4" d="M45.903,20.832l-3.916,10.02l-3.91-10.02H45.903z"/>
	<path fill="#FDD196" d="M49.187,12.191c-0.029-0.005-0.061,0-0.094,0.004c0.152-1.63,0.053-5.767-2.436-8.074L42.087,2.5
		l-4.564,1.621c-2.49,2.309-2.592,6.444-2.441,8.074c-0.031-0.004-0.059-0.01-0.088-0.004c-0.396,0.063-0.611,0.75-0.486,1.538
		c0.129,0.787,0.553,1.373,0.943,1.309c0.115-0.02,0.213-0.095,0.293-0.208c0.693,1.666,1.861,3.393,2.691,4.347
		c0,0,1.818,1.761,3.654,1.702c1.838,0.06,3.654-1.702,3.654-1.702c0.832-0.954,1.998-2.681,2.691-4.347
		c0.082,0.113,0.18,0.188,0.293,0.208c0.395,0.063,0.814-0.521,0.941-1.309C49.794,12.941,49.579,12.255,49.187,12.191z"/>
	<path fill="#764E2A" d="M36.308,9.24c0,0-0.008,0.021-0.02,0.055C36.298,9.275,36.298,9.26,36.308,9.24z"/>
	<path fill="#EF4237" d="M42.843,21.816h-1.512l-0.396,0.938l0.795,1.081h0.717l0.797-1.081L42.843,21.816z"/>
	<path fill="#764E2A" d="M36.308,9.24c0,0-0.008,0.021-0.02,0.055C36.298,9.275,36.298,9.26,36.308,9.24z"/>
	<path fill="#EE2424" d="M43.019,21.214h-2.057l-0.543,1.272l1.084,1.474h0.973l1.086-1.474L43.019,21.214z"/>
	<path fill="#EE2424" d="M41.987,30.851l0.777-1.981l-0.229-5.054h-1.082l-0.232,5.067L41.987,30.851z"/>
	<path fill="#736759" d="M42.087,2.5c-6.932,0-7.219,7.383-7.006,9.695c0,0,0.459-1.623,0.613-1.994
		c0.152-0.369,0.613-0.961,0.613-0.961c-0.09,0.426,0.09,0.766,0.391,1.022c0.506,0.304,1.773,1.12,3.688,0.11
		c0.326-0.172,0.988-0.528,1.701-0.9c0.512-0.266,1.045-0.536,1.5-0.749c0.027-0.014,0.051-0.024,0.074-0.036
		c0.08-0.037,0.158-0.074,0.234-0.105c0.029-0.012,0.062-0.026,0.09-0.041c0.064-0.028,0.127-0.051,0.186-0.075
		c0.031-0.013,0.062-0.026,0.09-0.038c0.053-0.02,0.104-0.038,0.154-0.055c0.021-0.008,0.045-0.016,0.062-0.023
		c0.064-0.02,0.121-0.033,0.166-0.04c0.547-0.151,1.125-0.208,1.746-0.173c0.131,0.004,0.246,0.008,0.342,0.021
		c0,0,1.896-0.283,2.361,4.035C49.308,9.883,49.024,2.5,42.087,2.5L42.087,2.5z"/>
	<path fill="#E7E7E7" d="M39.216,24.12l-1.139-3.289l0.203-1.191l3.441,1.528L39.216,24.12z M42.257,21.169l3.443-1.528l0.203,1.191
		l-0.939,3.289L42.257,21.169z"/>
	<g>
		
			<linearGradient id="SVGID_1_" gradientUnits="userSpaceOnUse" x1="-209.7739" y1="-11.4468" x2="-208.8937" y2="-26.4087" gradientTransform="matrix(1 0 0 1 238.3896 58.999)">
			<stop  offset="0" style="stop-color:#6B6B6B"/>
			<stop  offset="0.537" style="stop-color:#535253"/>
			<stop  offset="1" style="stop-color:#424143"/>
		</linearGradient>
		<path fill="url(#SVGID_1_)" d="M28.974,45.028l3.576-2.874l0.658-10.782l2.568-9.17c-7.307,0-7.307,8.257-7.307,8.257
			l-1.008,8.774c0,0-3.158,1.599-3.883,2.745c-0.352,0.562-0.939,2.912,0.707,2.912C26.763,44.89,28.974,45.028,28.974,45.028
			L28.974,45.028z"/>
		<path fill="#EABC86" d="M30.595,44.274c-0.148,0.393-0.688,0.554-1.205,0.356c-0.518-0.193-0.814-0.668-0.67-1.062
			c0.148-0.391,0.689-0.551,1.205-0.354C30.442,43.406,30.741,43.883,30.595,44.274z"/>
		<path fill="#ED1C24" d="M29.899,43.945c0,0.962-1.414,0.944-3.16,0.944c-1.744,0-3.16,0.018-3.16-0.944
			c0-0.965,1.416-2.415,3.16-2.415C28.485,41.53,29.899,42.98,29.899,43.945z"/>
		<path fill="#FDD196" d="M29.29,42.326c0.195,0.865-0.418,1.367-1.99,1.719c-1.568,0.352-3.502,0.421-3.695-0.448
			c-0.193-0.866,0.789-2.456,2.357-2.807C27.534,40.438,29.097,41.46,29.29,42.326L29.29,42.326z"/>
	</g>
	<path fill="#A1A0A0" d="M58.722,42.165c0,0.911-0.736,1.646-1.646,1.646h-22.34c-0.91,0-1.648-0.734-1.648-1.646v-17.15
		c0-0.909,0.738-1.647,1.648-1.647h22.34c0.91,0,1.646,0.737,1.646,1.647V42.165L58.722,42.165z"/>
	<path fill="#919191" d="M59.462,44.121c0,0.5-0.408,0.907-0.91,0.907H33.267c-0.504,0-0.908-0.407-0.908-0.907
		c0-0.503,0.404-0.911,0.908-0.911h25.285C59.054,43.21,59.462,43.617,59.462,44.121z"/>
	<path fill="#303030" d="M9.241,45.067h66.518v2.241H9.241V45.067z"/>
	<g>
		<path fill="#3E3015" d="M33.962,77.976v-0.452h5.611v4.393H29.001C29.001,81.916,30.815,78.165,33.962,77.976L33.962,77.976z"/>
		<g>
			<path fill="#010101" d="M35.601,82.5h-6.6v-0.584h7.955L35.601,82.5z M37.065,81.916h2.508V82.5h-2.508V81.916z"/>
		</g>
	</g>
	<path fill="#3A3B3B" d="M40.083,56.917c0-2.196-1.779-3.977-3.975-3.977c-5.514,0-5.111,4.062-5.111,4.062l1.217,20.551h7.869
		V56.917L40.083,56.917z"/>
	<g>
		<path fill="#3E3015" d="M50.21,77.976v-0.452h-5.609v4.393h10.572C55.173,81.916,53.362,78.165,50.21,77.976z"/>
		<g>
			<path fill="#010101" d="M48.573,82.5h6.6v-0.584h-7.955L48.573,82.5z M44.601,81.916h2.508V82.5h-2.508V81.916z"/>
		</g>
	</g>
	<path fill="#3A3B3B" d="M44.091,56.917c0-2.196,1.779-3.977,3.977-3.977c5.512,0,5.109,4.062,5.109,4.062l-1.219,20.551h-7.869
		L44.091,56.917z"/>
	<path fill="#232324" d="M14.708,47.309h54.637v3.839H14.708V47.309z M13.095,47.309h1.613v35.19h-1.613V47.309z"/>
	<path fill="#232324" d="M69.345,47.309h1.613v35.19h-1.613V47.309z"/>
</g>
</svg>
