<?xml version="1.0" encoding="utf-8"?>
<!-- Generator: Adobe Illustrator 16.0.2, SVG Export Plug-In . SVG Version: 6.00 Build 0)  -->
<!DOCTYPE svg PUBLIC "-//W3C//DTD SVG 1.1 Tiny//EN" "http://www.w3.org/Graphics/SVG/1.1/DTD/svg11-tiny.dtd">
<svg version="1.1" baseProfile="tiny" id="Layer_1" xmlns="http://www.w3.org/2000/svg" xmlns:xlink="http://www.w3.org/1999/xlink"
	 x="0px" y="0px" width="85.039px" height="85.039px" viewBox="0 0 85.039 85.039" xml:space="preserve">
<g>
	<g>
		<path fill="#FAF392" d="M74.798,47.938c-0.531-0.273-1.061-0.553-1.592-0.828c0.996,0.223,1.691-1.145,0.72-1.787
			c-0.577-0.383-1.161-0.76-1.745-1.139c0.09-0.369-0.014-0.783-0.434-1.039c-0.215-0.132-0.431-0.261-0.646-0.394
			c0.966,0.104,1.647-1.211,0.646-1.785c-9.257-5.305-19.069-9.941-27.691-16.258c8.347,4.504,16.265,9.803,24.523,14.465
			c1.107,0.625,2.047-1.01,0.99-1.693c-4.437-2.859-8.986-5.537-13.494-8.281c4.66,2.764,9.249,5.682,14.246,7.797
			c1.159,0.488,2.021-0.932,0.995-1.689c1.053,0.438,1.893-1.1,0.867-1.748c-0.033-0.021-0.068-0.041-0.101-0.061
			c0.633-0.318,0.908-1.258,0.101-1.684c-0.322-0.168-0.646-0.334-0.971-0.5c0.632-0.318,0.908-1.248,0.099-1.678
			c-0.4-0.213-0.803-0.42-1.204-0.631c0.479-0.391,0.613-1.16-0.104-1.549c-0.096-0.053-0.191-0.102-0.289-0.152
			c0.411-0.42,0.473-1.238-0.146-1.592c-1.046-0.598-2.09-1.199-3.129-1.807c0.091-0.15,0.145-0.316,0.15-0.482
			c0.593,0.207,1.187,0.412,1.785,0.596c1.142,0.35,1.594-1.17,0.756-1.793c-0.743-0.551-1.47-1.063-2.219-1.52
			c-0.102-0.387-0.397-0.732-0.891-0.793c-0.336-0.041-0.678-0.117-1.018-0.207c-0.563-0.246-1.147-0.459-1.772-0.629
			c-0.523-0.143-0.977,0.199-1.162,0.631c-0.627-0.221-1.254-0.438-1.889-0.631c-1.142-0.352-1.593,1.168-0.756,1.791
			c0.025,0.02,0.054,0.037,0.078,0.057c-0.063,0.135-0.101,0.281-0.103,0.428c-0.603-0.201-1.21-0.385-1.836-0.533
			c-0.066-0.016-0.13-0.023-0.192-0.027c-1.35-0.648-2.729-1.236-4.165-1.715c-0.746-0.25-1.438,0.619-1.21,1.275
			c-0.355,0.035-0.65,0.285-0.803,0.6c-0.774-0.348-1.554-0.686-2.345-1.004c-0.904-0.363-1.633,0.967-0.982,1.607
			c-0.226,0.275-0.327,0.658-0.216,0.984c-1.455-0.643-2.938-1.229-4.468-1.721c-0.606-0.193-1.019,0.158-1.145,0.621
			c-1.556-0.789-3.126-1.549-4.723-2.266c-0.955-0.428-2.058,0.725-1.187,1.541c0.641,0.602,1.295,1.188,1.957,1.76
			c-1.837-0.986-3.689-1.947-5.563-2.865c-0.712-0.348-1.544,0.281-1.517,0.934c-0.658-0.309-1.31-0.629-1.971-0.934
			c-0.689-0.314-1.259,0.072-1.402,0.6c-0.113-0.055-0.227-0.109-0.341-0.162c-0.938-0.445-2.104,0.783-1.188,1.539
			c0.344,0.283,0.693,0.557,1.039,0.838c-1.973-0.961-3.953-1.902-5.951-2.814c-1.168-0.531-1.988,0.93-0.99,1.693
			c0.063,0.049,0.127,0.096,0.191,0.145c-1.187-0.611-2.37-1.229-3.56-1.838c-1.146-0.586-1.995,0.955-0.991,1.693
			c0.028,0.02,0.057,0.041,0.084,0.061c-0.172,0.406-0.111,0.924,0.354,1.248c1.641,1.145,3.294,2.271,4.953,3.391
			c-2.049-1.113-4.096-2.227-6.143-3.34c-0.81-0.441-1.514,0.281-1.441,0.977c-0.826-0.471-1.652-0.945-2.48-1.414
			c-1.117-0.633-2.004,0.973-0.988,1.695c2.985,2.119,5.955,4.289,8.924,6.467c-0.84-0.123-1.551,0.961-0.844,1.66
			c1.016,1,2.058,1.965,3.112,2.912c-2.78-1.412-5.594-2.764-8.461-4.018c-0.933-0.408-2.119,0.77-1.188,1.541
			c0.799,0.662,1.605,1.316,2.412,1.971c-0.513,0.289-0.771,0.986-0.231,1.516c0.937,0.918,1.897,1.805,2.881,2.662
			c-0.802-0.066-1.313,1.111-0.703,1.695c0.066,0.063,0.134,0.121,0.198,0.186c-0.538-0.291-1.079-0.576-1.625-0.854
			c-0.973-0.496-2.004,0.729-1.188,1.539c0.959,0.955,1.936,1.904,2.924,2.847c-0.793-0.352-1.594-0.689-2.406-0.998
			c-0.95-0.361-1.614,0.984-0.954,1.639c1.095,1.084,2.214,2.148,3.349,3.203c-0.072-0.014-0.143-0.035-0.216-0.049
			c-0.932-0.172-1.683,0.896-0.954,1.639c1.494,1.52,3.053,2.951,4.651,4.332c-1.367-0.561-2.742-1.104-4.134-1.611
			c-0.983-0.359-1.563,0.967-0.953,1.639c0.861,0.953,1.787,1.832,2.756,2.666c-0.262,0.021-0.48,0.166-0.629,0.375
			c-0.819-0.271-1.645-0.525-2.48-0.758c-0.93-0.26-1.679,0.957-0.953,1.639c1.25,1.178,2.545,2.293,3.871,3.369
			c-0.39-0.078-0.779-0.15-1.175-0.215c-0.89-0.145-1.745,0.912-0.954,1.639c0.208,0.191,0.424,0.371,0.635,0.559
			c-0.612-0.166-1.231-0.318-1.859-0.451c-0.902-0.191-1.729,0.938-0.954,1.639c0.25,0.225,0.508,0.438,0.763,0.658
			c-0.313-0.053-0.623-0.113-0.941-0.154c-1.063-0.135-1.201,1.336-0.494,1.828c0.199,0.137,0.406,0.262,0.605,0.396
			c-0.603,0.238-0.938,1.139-0.369,1.627c0.772,0.666,1.578,1.281,2.399,1.867c-0.619-0.172-1.245-0.33-1.88-0.455
			c-1.121-0.223-1.66,1.143-0.756,1.791c0.002,0.002,0.004,0.004,0.006,0.006c-0.529,0.34-0.645,1.314-0.006,1.738
			c0.188,0.125,0.376,0.248,0.564,0.373c-0.808-0.025-1.494,0.998-0.764,1.652c0.238,0.217,0.48,0.42,0.727,0.619
			c-0.238,0.463-0.096,1.104,0.578,1.377c0.584,0.236,1.057,0.314,1.519,0.313c0.217,0.047,0.437,0.092,0.661,0.123
			c0.392,0.061,0.744-0.102,0.975-0.354c0.064-0.014,0.135-0.025,0.203-0.039c0.766,0.271,1.537,0.541,2.309,0.83
			c0.391,0.145,0.7,0.043,0.904-0.174c0.057,0.023,0.111,0.049,0.168,0.072c0.705,0.299,1.363-0.201,1.479-0.766
			c0.742,0.303,1.486,0.598,2.242,0.865c1.06,0.375,1.719-1.266,0.756-1.791c-0.256-0.141-0.514-0.279-0.771-0.416
			c1.726,0.801,3.459,1.574,5.244,2.207c0.812,0.285,1.372-0.586,1.177-1.26c0.54,0.248,1.083,0.488,1.63,0.719
			c0.003,0.002,0.007,0.004,0.009,0.006l0,0c0.08,0.031,0.156,0.066,0.234,0.1c0.944,0.393,1.496-0.848,1.012-1.543
			c1.211,0.607,2.416,1.219,3.608,1.848c0.56,0.313,1.12,0.615,1.683,0.902c1.12,0.576,2.104-1.08,0.989-1.691
			c-0.581-0.318-1.168-0.631-1.757-0.939c-0.798-0.443-1.589-0.904-2.38-1.373c0.69,0.334,1.383,0.668,2.075,1
			c2.677,1.512,5.408,2.898,8.279,3.977c1.043,0.393,1.745-1.301,0.755-1.793c-2.848-1.414-5.765-2.773-8.674-4.168
			c-2.035-1.154-4.041-2.377-6.049-3.588c5.37,2.99,10.944,5.656,16.475,8.295c1.367,0.721,2.753,1.389,4.16,1.992
			c0.023,0.012,0.049,0.021,0.072,0.035c0-0.002,0-0.002,0.001-0.004c0.078,0.033,0.154,0.068,0.232,0.102
			c0.979,0.412,1.681-1.16,0.873-1.719c1.441,0.467,2.893,0.906,4.354,1.283c0.574,0.146,1.062-0.271,1.208-0.754
			c1.739,0.764,3.512,1.461,5.329,2.063c1.097,0.361,1.657-1.209,0.757-1.793c-0.563-0.361-1.132-0.711-1.705-1.053
			c0.383,0.188,0.77,0.377,1.15,0.566c0.884,0.439,1.681-0.496,1.437-1.199c1.628,0.604,3.26,1.189,4.899,1.732
			c1.066,0.355,1.713-1.25,0.755-1.791c-0.008-0.004-0.017-0.008-0.023-0.014c0.558-0.326,0.68-1.289,0.023-1.729
			c-3.14-2.113-6.383-4.045-9.672-5.898c1.294,0.648,2.592,1.291,3.889,1.926c1.155,0.566,1.99-0.943,0.989-1.691
			c-1.407-1.055-2.853-2.043-4.325-2.986c1.596,0.656,3.216,1.246,4.877,1.727c1.051,0.305,1.771-1.303,0.755-1.793
			c-2.771-1.334-5.473-2.797-8.134-4.328c2.72,1.242,5.471,2.418,8.25,3.508c1.072,0.42,1.662-1.229,0.757-1.793
			c-1.886-1.176-3.771-2.346-5.662-3.512c1.551,0.879,3.104,1.744,4.673,2.592c1.111,0.598,2.088-1.063,0.989-1.693
			c-0.841-0.484-1.686-0.963-2.53-1.441c1.088,0.479,2.183,0.939,3.281,1.391c0,0,0.001,0,0.002,0l0,0
			c0.078,0.033,0.156,0.066,0.234,0.1c1.077,0.438,1.636-1.215,0.756-1.793c-0.848-0.555-1.701-1.094-2.551-1.643
			c0.823-0.07,1.183-1.352,0.371-1.844c-2.952-1.789-5.898-3.588-8.843-5.391c3.647,1.793,7.356,3.473,11.139,5.004
			c0.635,0.258,1.157-0.314,1.227-0.896c0.026,0.008,0.054,0.018,0.08,0.023c1.071,0.299,1.728-1.238,0.758-1.791
			c-1.044-0.592-2.091-1.178-3.134-1.766c0.791,0.316,1.581,0.639,2.376,0.941c1.038,0.396,1.674-1.189,0.804-1.76
			c0.82-0.133,1.308-1.264,0.389-1.775c-1.941-1.082-3.882-2.16-5.824-3.238c2.04,0.941,4.088,1.859,6.143,2.754
			C74.939,50.124,75.946,48.528,74.798,47.938z M42.518,39.794c0.976,0.615,1.952,1.23,2.928,1.848
			c1.043,0.658,2.082,1.33,3.12,2.009c-2.562-1.404-5.11-2.832-7.654-4.273c-1.931-1.182-3.854-2.379-5.766-3.592
			C37.604,37.121,40.063,38.457,42.518,39.794z M33.76,38.607c-0.391-0.273-0.781-0.549-1.17-0.824
			c1.59,0.957,3.178,1.916,4.764,2.879C36.158,39.976,34.959,39.291,33.76,38.607z M26.506,36.744
			c0.738,0.418,1.477,0.836,2.215,1.254c1.473,1.152,2.957,2.295,4.461,3.418c-0.826-0.48-1.649-0.959-2.48-1.432
			C29.277,38.941,27.881,37.855,26.506,36.744z M32.385,43.579c-3.679-2.035-7.379-4.035-11.108-5.98
			c-0.638-0.488-1.276-0.973-1.908-1.467c3.485,1.742,6.909,3.596,10.296,5.52C30.563,42.308,31.471,42.947,32.385,43.579z
			 M18.549,47.204c1.047,0.531,2.08,1.092,3.104,1.674c0.484,0.434,0.973,0.861,1.464,1.287c-0.799-0.379-1.61-0.725-2.437-1.037
			C19.96,48.497,19.254,47.849,18.549,47.204z M40.742,63.63c2.155,1.428,4.345,2.799,6.567,4.105
			c-6.764-3.715-13.257-7.957-19.353-12.645c3.885,2.479,7.592,5.338,11.347,7.67C39.778,63.056,40.262,63.339,40.742,63.63z
			 M61.296,72.728c-6.696-3.596-13.412-7.164-19.941-11.035c-0.363-0.24-0.724-0.486-1.084-0.732c0.33,0.205,0.656,0.41,0.986,0.609
			c6.772,4.08,13.871,7.574,20.743,11.465C61.767,72.933,61.531,72.831,61.296,72.728z M19.333,50.726
			c0.117,0.041,0.233,0.086,0.352,0.127c2.52,2.199,5.129,4.313,7.809,6.346c-0.154-0.074-0.311-0.146-0.466-0.223
			C24.354,55.04,21.776,52.97,19.333,50.726z M36.209,69.571c-2.156-1.334-4.332-2.629-6.55-3.807
			c-1.914-1.213-3.772-2.51-5.563-3.889c7.361,3.479,14.227,8.057,21.276,12.234c-2.655-1.184-5.264-2.473-7.829-3.82
			C37.098,70.058,36.655,69.812,36.209,69.571z M36.723,65.519c-5.653-2.924-11.762-5.602-16.778-9.564
			c2.022,0.84,4.022,1.729,6.003,2.66C29.401,61.11,33.014,63.386,36.723,65.519z M20.893,67.081
			c-0.787-0.338-1.584-0.652-2.394-0.932c-0.116-0.084-0.229-0.17-0.345-0.252c0.813,0.293,1.615,0.611,2.408,0.953
			C20.672,66.927,20.784,67.003,20.893,67.081z M21.518,65.142c-0.654-0.469-1.297-0.955-1.932-1.451
			c0.654,0.186,1.301,0.393,1.943,0.611c1.744,1.238,3.529,2.418,5.354,3.543C25.127,66.868,23.348,65.948,21.518,65.142z
			 M45.917,70.679c-1.071-0.627-2.141-1.25-3.214-1.867c2.325,1.227,4.669,2.416,7.026,3.584
			C48.452,71.831,47.18,71.261,45.917,70.679z M22.992,47.446c-0.847-0.75-1.683-1.504-2.511-2.264
			c1.416,0.859,2.814,1.744,4.207,2.645c1.863,1.484,3.763,2.926,5.697,4.318C27.954,50.517,25.504,48.917,22.992,47.446z
			 M41.135,56.089c-5.174-2.996-10.078-6.412-15.078-9.674c-1.414-1.125-2.797-2.285-4.162-3.466c0.26,0.123,0.521,0.24,0.781,0.367
			c5.358,3.926,11.08,7.375,16.67,10.959c2.578,1.654,5.158,3.396,7.77,5.111C45.105,58.313,43.104,57.228,41.135,56.089z
			 M33.832,46.618c7.331,4.102,14.574,8.357,21.758,12.717C48.088,55.593,40.825,51.302,33.832,46.618z M40,31.767
			c-2.37-1.27-4.741-2.533-7.116-3.789c-0.963-0.645-1.922-1.295-2.873-1.953c2.108,1.063,4.205,2.148,6.295,3.25
			C37.526,30.121,38.754,30.955,40,31.767z"/>
		<path fill="#FFD758" d="M48.203,4.707c-0.252-0.18-0.545-0.262-0.83-0.242c-0.168-0.01-0.335,0.006-0.492,0.055
			c-0.047-0.021-0.092-0.043-0.142-0.059c-0.284-0.1-0.575-0.172-0.873-0.219c-0.117-0.025-0.229-0.029-0.333-0.027
			c-0.31-0.063-0.662,0.025-0.932,0.217c-0.2-0.168-0.401-0.34-0.591-0.527c-0.569-0.563-1.43-0.379-1.851,0.15
			c-0.218-0.314-0.564-0.533-0.978-0.51c-0.658,0.037-1.136,0.275-1.708,0.602c-0.416,0.238-0.689,0.807-0.6,1.297
			c-0.008,0.004-0.016,0.008-0.023,0.012c-0.002-0.016-0.005-0.029-0.008-0.043c-0.043-0.35-0.088-0.699-0.138-1.049
			c-0.002-0.01-0.003-0.02-0.003-0.029l0,0c-0.015-0.107-0.027-0.219-0.043-0.326c-0.2-1.369-2.505-1.043-2.408,0.326
			c0.015,0.189,0.034,0.377,0.056,0.563c-0.027,0.098-0.049,0.197-0.056,0.311c-0.198,3.408-0.581,6.801-0.768,10.207
			c-0.347,2.23-0.425,4.477-0.104,6.764c0,0.008,0,0.016,0,0.025c0.002,0,0.002,0,0.004,0c0.016,0.107,0.022,0.217,0.039,0.324
			c0.016,0.088,0.036,0.17,0.064,0.244c-0.018,0.234-0.023,0.469-0.018,0.705c-0.146,0.947-0.264,1.898-0.309,2.867
			c-0.021,0.5,0.387,1.094,0.9,1.182c1.436,0.244,2.389-0.131,3.04-0.844c0.29,0.102,0.624,0.078,0.954-0.152
			c0.464-0.32,0.857-0.641,1.203-0.979c0.119,2.314,2.17,2.938,4.293,2.703c0.525,0.938,2.283,0.738,2.303-0.604
			c0.021-1.568,0.106-3.135,0.198-4.701c0.185-2.053,0.243-4.109,0.259-6.17c0.001-0.082,0.002-0.164,0.002-0.246
			c0.013-2.031-0.018-4.063-0.023-6.096c0-0.008-0.003-0.016-0.003-0.021c0-0.193,0.002-0.385,0.002-0.576
			c0.146-0.738,0.308-1.475,0.479-2.209c0.062-0.104,0.108-0.217,0.133-0.354c0.052-0.367,0.125-0.73,0.219-1.09
			C49.303,5.41,48.798,4.861,48.203,4.707z"/>
	</g>
	<g>
		<path fill="#4361AD" d="M12.309,78.966c-0.063,0.266,0.064,0.564,0.41,0.553c1.625-0.063,3.273,0.033,4.928,0.184
			c-1.359,0.203-2.6,0.229-4.002,0.188c-0.489-0.014-0.524,0.736-0.034,0.76c1.31,0.064,2.548,0.055,3.813-0.092
			c0.055,0.035,0.116,0.064,0.196,0.07c3.89,0.35,7.78,0.377,11.681,0.357c-0.179,0.23-0.031,0.643,0.301,0.646
			c1.607,0.025,3.211-0.068,4.814-0.121c0.045,0.191,0.217,0.369,0.469,0.34c0.609-0.014,1.199-0.129,1.771-0.336
			c0.593-0.129,1.183-0.258,1.782-0.367c-0.008,0.205,0.13,0.422,0.362,0.416c1.182-0.023,2.812,0.105,3.851-0.527
			c-0.356,0.217-0.162,0.742,0.247,0.676c0.894-0.146,3.613-1.277,2.005,0.197c-0.266,0.242-0.026,0.674,0.316,0.605
			c0.731-0.145,1.461-0.301,2.179-0.512c-0.02,0.193,0.203,0.393,0.416,0.371c1.295-0.135,2.559-0.352,3.843-0.559
			c0.234-0.037,1.091-0.4,1.501-0.525c0.064,0.006,0.132,0.01,0.195,0.016c-0.042,0.045-0.138,0.121-0.321,0.244
			c-0.244,0.162-0.205,0.574,0.128,0.586c0.275,0.01,0.585,0.031,0.89,0.037c0.021,0.168,0.15,0.314,0.36,0.248
			c0.244-0.078,0.481-0.146,0.725-0.215c0.019-0.004,0.042-0.012,0.065-0.021c0.887-0.246,1.762-0.43,2.643-0.553
			c4.415,0.301,8.829,0.508,13.229,0.32c0.195,0.189,0.609,0.125,0.63-0.232c0.425-7.871,0.364-15.752,0.367-23.633
			c0.002-4.127-0.074-8.311,0.484-12.406c0.488-3.595,1.622-7.123,1.556-10.777c0-0.02-0.016-0.029-0.021-0.047
			c-0.002-0.014,0.004-0.025-0.006-0.041c-0.028-0.055-0.063-0.107-0.095-0.16c-1.158-2.408-1.769-4.957-3.072-7.313
			c-1.575-2.844-3.101-5.65-3.829-8.846c-0.041-0.17-0.222-0.186-0.326-0.1c-5.532-0.674-11.238-0.787-16.807-0.646
			c-0.406,0.01-0.813,0.025-1.22,0.047c0.021-0.543,0.046-1.086,0.075-1.627c0.197-3.645,0.582-7.391,0.373-11.039
			c0.102-0.059,0.148-0.195,0.018-0.27c-0.01-0.008-0.021-0.012-0.031-0.018c-0.001-0.025-0.001-0.051-0.002-0.076
			c-0.004-0.061-0.084-0.063-0.094-0.004c-0.002,0.008-0.002,0.014-0.004,0.021c-0.972-0.555-2.119-1.201-3.237-1.246
			C44.786,3.5,44.433,3.847,43.98,2.769c-0.06-0.141-0.244-0.143-0.348-0.061c-0.988,0.777-1.134,1.002-2.02-0.111
			c-0.104-0.129-0.311-0.092-0.396,0.035c-0.149,0.221-0.531,1.041-0.492,0.887c0.057-0.225-0.175-0.479-0.404-0.34
			c-1.479,0.891-1,0.629-2.047-0.221c-0.617-0.5-1.635-0.381-2.344-0.246c-0.25,0.047-0.272,0.361-0.119,0.5
			c-0.826,4.791-1.131,9.686-1.297,14.578c-3.185-0.061-6.397,0.09-9.563-0.133c-2.949-0.209-5.669-0.932-8.557-0.012
			c-0.051,0.018-0.086,0.043-0.116,0.076c-0.116-0.039-0.255,0.004-0.267,0.164c-1.106,19.074-2.427,38.13-3.359,57.212
			c-0.055-3.021,0.04-6.006,0.246-9.088c0.337-5.041-0.336-10.223,0.76-15.188c0.032-0.146-0.186-0.223-0.225-0.072
			c-1.315,4.979-0.756,10.141-1.207,15.23c-0.354,4.008-1.387,8.988,0.013,12.881C12.258,78.907,12.282,78.938,12.309,78.966z
			 M35.422,18.837c0.992-0.016,1.985-0.033,2.979-0.053c0.061,0.063,0.125,0.127,0.18,0.193c0.415,0.5,0.731,1.045,0.903,1.676
			c0.071,0.254,0.414,0.16,0.388-0.088c-0.063-0.664-0.329-1.264-0.725-1.799c0.174-0.004,0.349-0.008,0.523-0.012
			c0.139,0.23,0.251,0.475,0.319,0.748c0.067,0.273,0.481,0.18,0.426-0.096c-0.047-0.227-0.121-0.449-0.214-0.664
			c0.099-0.004,0.199-0.004,0.298-0.008c0.023,0.037,0.046,0.07,0.068,0.105c0.1,0.158,0.331,0.045,0.276-0.113
			c2.394-0.053,4.782-0.105,7.17-0.152c-0.026,0.367-0.059,0.736-0.09,1.105c-0.021,0.01-0.044,0.021-0.063,0.043
			c-0.069,0.084-0.121,0.205-0.053,0.311c0.023,0.035,0.055,0.066,0.076,0.104c-0.02,0.246-0.039,0.49-0.06,0.736
			c-0.03,0.025-0.052,0.061-0.054,0.102c-0.004,0.063,0.013,0.121,0.029,0.178c-0.017,0.203-0.032,0.406-0.049,0.609
			c-0.069-0.021-0.144-0.014-0.211,0.049c-0.159,0.146-0.005,0.396,0.159,0.604c-0.023,0.34-0.048,0.68-0.069,1.02
			c-0.011-0.002-0.02-0.008-0.026-0.012c-0.114-0.021-0.194,0.053-0.186,0.17c0.013,0.135,0.087,0.258,0.177,0.375
			c-0.086,1.438-0.133,2.875-0.086,4.307c0,0.006,0.001,0.01,0.001,0.016c-1.761-0.133-3.494-0.428-5.255-0.553
			c-0.353-0.662-0.709-1.326-0.748-2.094c-0.004-0.1-0.063-0.166-0.164-0.18c-0.021-0.037-0.043-0.076-0.062-0.113
			c-0.023-0.143-0.249-0.188-0.318-0.055c-0.467,0.895-1.215,1.469-2,2.066c-1.286-0.148-2.587-0.396-3.883-0.432
			C35.225,24.232,35.329,21.535,35.422,18.837z M48.07,17.833c-2.46,0.143-4.952,0.402-7.438,0.512
			c-0.173-0.295-0.35-0.588-0.557-0.859c-0.221-0.287-0.519-0.717-0.896-0.785c-0.1-0.02-0.19,0.066-0.142,0.168
			c0.156,0.33,0.539,0.572,0.768,0.861c0.161,0.205,0.309,0.416,0.451,0.631c-0.082,0.004-0.166,0.006-0.25,0.01
			c-0.094-0.156-0.198-0.307-0.321-0.439c-0.311-0.332-0.81-0.859-1.298-0.805c-0.09,0.01-0.117,0.117-0.086,0.186
			c0.086,0.195,0.254,0.293,0.422,0.418c0.215,0.162,0.416,0.336,0.597,0.535c0.035,0.037,0.054,0.08,0.085,0.119
			c-0.185,0.004-0.365,0.008-0.548,0.008c-0.313-0.375-0.702-0.746-1.164-0.828c-0.075-0.014-0.156,0.084-0.128,0.156
			c0.094,0.254,0.266,0.469,0.457,0.672c-0.598-0.008-1.191-0.033-1.783-0.076c0.018-0.236-0.124-0.475-0.444-0.486
			c-0.11-0.006-0.225-0.008-0.336-0.01c0.167-4.846,0.324-9.688,0.665-14.537c0.934,0.01,2.094,0.02,2.268,1.334
			c0.043,0.305,0.416,0.344,0.616,0.193c0.619-0.465,1.26-0.705,1.205-1.09c0.017,0.107,0.123,0.178,0.224,0.186
			c0.155,0.018,0.313,0.027,0.47,0.031c0.122,0.006,0.199-0.068,0.247-0.172c0.43-0.904,0.913,0.023,1.216,0.402
			c0.106,0.137,0.306,0.088,0.397-0.033c0.562-1.086,0.97-1.09,1.222-0.014c0.039,0.127,0.184,0.221,0.313,0.145
			c1.384-0.814,3.486,0.285,4.716,0.879c0.005,0,0.005,0,0.005,0c-0.619,4.027-0.65,8.209-0.925,12.27
			C48.089,17.554,48.079,17.693,48.07,17.833z M72.244,32.119c-0.419-0.518-0.856-1.023-1.306-1.516
			c0.015-0.021,0.018-0.045,0.021-0.07c0-0.008,0.004-0.012,0.003-0.02c0.001-0.023-0.009-0.045-0.021-0.068
			c-0.005-0.01-0.008-0.018-0.017-0.027c-0.008-0.01-0.005-0.021-0.017-0.031c-0.133-0.105-0.288-0.207-0.452-0.307
			c-0.492-0.531-0.991-1.051-1.473-1.563c-1.45-1.531-3.594-4.164-5.744-4.723c1.251-1.553,2.539-3.068,3.54-4.805
			c0.642,3.141,2.31,5.715,3.678,8.594C71.162,29.062,71.695,30.591,72.244,32.119z M54.333,81.378
			c0.29,0.021,0.577,0.043,0.867,0.063c-1.31,0.25-1.641,0.49-0.914-0.016C54.303,81.413,54.318,81.396,54.333,81.378z
			 M49.094,81.421c0.152-0.094,0.171-0.287,0.103-0.416c0.564,0.037,1.13,0.076,1.696,0.117
			C50.015,81.208,49.281,81.306,49.094,81.421z M46.857,81.083c0.063-0.059,0.094-0.139,0.102-0.223
			c0.564,0.033,1.127,0.07,1.69,0.107C47.515,81.392,45.176,82.622,46.857,81.083z M18.698,79.806
			c0.697,0.07,1.395,0.146,2.093,0.221c-0.687-0.037-1.375-0.094-2.063-0.146C18.719,79.854,18.709,79.829,18.698,79.806z
			 M31.21,80.55c2.009,0.02,4.017,0.027,6.024,0.041c-0.156,0.033-0.313,0.064-0.467,0.1c-0.018-0.004-0.03-0.01-0.049-0.01
			c-1.865-0.031-3.728,0.098-5.592,0.137C31.184,80.737,31.209,80.644,31.21,80.55z M41.36,80.638
			c0.098,0.002,0.198,0.006,0.296,0.008c-0.347,0.021-0.693,0.043-1.04,0.064c0.013-0.025,0.018-0.055,0.022-0.08
			C40.879,80.634,41.119,80.634,41.36,80.638z M43.89,80.813c-0.007-0.037-0.021-0.07-0.037-0.104
			c0.175,0.008,0.35,0.016,0.523,0.021C44.215,80.759,44.053,80.786,43.89,80.813z M12.784,78.583
			c-0.009-0.178-0.014-0.348-0.021-0.523c0.295,0.174,0.769,0.061,0.787-0.387c0.432-9.869,0.783-19.738,1.454-29.596
			c0.675-9.935,1.579-19.935,1.423-29.904c0.027,0.002,0.055,0.002,0.088-0.006c3.154-0.873,6.4,0.197,9.588,0.363
			c2.576,0.135,5.156,0.15,7.732,0.211c0.061,0.074,0.15,0.123,0.264,0.121c0.129-0.002,0.256-0.006,0.387-0.008
			c-0.083,2.715-0.135,5.426-0.217,8.115c-0.008,0.254,0.178,0.391,0.371,0.406c0.041,0.086,0.121,0.154,0.246,0.166
			c1.346,0.141,2.709,0.361,4.064,0.387c0.116,0.084,0.273,0.109,0.396-0.023c0.683-0.715,1.323-1.311,1.777-2.174
			c0.017,0.012,0.029,0.025,0.047,0.035c-0.019,0.75,0.214,1.383,0.59,2.004c-0.199,0.148-0.157,0.545,0.164,0.566
			c2.116,0.137,4.283,0.666,6.402,0.404c0.227-0.027,0.183-0.383-0.036-0.393c-0.057-0.002-0.112-0.01-0.17-0.012
			c0.002-0.014,0.01-0.021,0.01-0.033c0.061-0.465,0.111-0.934,0.154-1.402c0.03,0.043,0.06,0.086,0.08,0.129
			c0.146,0.299,0.601,0.059,0.453-0.238c-0.118-0.244-0.287-0.445-0.47-0.646c0.015-0.148,0.025-0.297,0.036-0.447
			c0.19,0.143,0.375,0.285,0.55,0.449c0.216,0.205,0.536-0.082,0.343-0.313c-0.258-0.305-0.543-0.574-0.839-0.834
			c0.004-0.057,0.006-0.113,0.009-0.168c0.113,0.107,0.225,0.217,0.335,0.324c0.163,0.158,0.402-0.061,0.262-0.238
			c-0.187-0.23-0.367-0.465-0.558-0.693c0.015-0.27,0.029-0.541,0.042-0.813c0.099,0.117,0.195,0.234,0.303,0.346
			c0.178,0.184,0.452-0.07,0.29-0.264c-0.203-0.248-0.382-0.514-0.563-0.777c0.007-0.158,0.018-0.316,0.021-0.475
			c0.097,0.117,0.18,0.246,0.285,0.355c0.196,0.207,0.506-0.08,0.327-0.299c-0.219-0.264-0.393-0.555-0.586-0.834
			c0.007-0.154,0.013-0.309,0.018-0.461c0.257,0.271,0.515,0.543,0.729,0.855c0.144,0.213,0.496,0.043,0.359-0.189
			c-0.294-0.508-0.688-0.939-1.063-1.389c0.007-0.178,0.013-0.355,0.018-0.533c0.549,0.557,1.172,1.053,1.613,1.701
			c0.172,0.252,0.592,0.051,0.43-0.227c-0.488-0.838-1.228-1.527-1.927-2.189c-0.026-0.023-0.06-0.031-0.09-0.049
			c0.005-0.113,0.009-0.225,0.013-0.338c0.228,0.393,0.689,0.711,1.004,1.012c0.387,0.371,0.758,0.754,1.13,1.139
			c0.192,0.201,0.499-0.08,0.317-0.289c-0.385-0.445-0.765-0.904-1.185-1.316c-0.211-0.207-0.436-0.453-0.686-0.641
			c0.28-0.006,0.561-0.012,0.841-0.018c-0.034,0.021-0.074,0.039-0.099,0.078c-0.027,0.047-0.041,0.086-0.045,0.145
			c-0.013,0.137,0.083,0.234,0.199,0.287c0.724,0.322,1.365,0.695,1.84,1.35c0.157,0.215,0.499-0.039,0.378-0.264
			c-0.417-0.777-1.097-1.355-1.946-1.6c0.206-0.004,0.412-0.004,0.618-0.008c0.265,0.26,0.59,0.482,0.87,0.695
			c0.496,0.377,1.023,0.707,1.578,0.998c0.2,0.105,0.394-0.176,0.194-0.301c-0.533-0.332-1.021-0.713-1.514-1.098
			c-0.122-0.096-0.243-0.199-0.364-0.305c0.299-0.002,0.596-0.006,0.896-0.01c0.271,0.254,0.6,0.461,0.894,0.674
			c0.448,0.328,0.899,0.656,1.299,1.047c0.13,0.127,0.328-0.053,0.209-0.191c-0.351-0.396-0.746-0.736-1.172-1.049
			c-0.214-0.156-0.427-0.326-0.646-0.486c0.337-0.004,0.675-0.01,1.01-0.012c0.004,0.006,0.004,0.016,0.01,0.021
			c0.669,0.615,1.594,0.963,2.343,1.475c0.019,0.014,0.033-0.014,0.019-0.025c-0.619-0.488-1.231-1.15-1.975-1.475
			c3.901-0.023,7.806,0.018,11.716,0.178c-1.085,1.863-2.48,3.604-4.03,5.102c-0.347,0.334,0.188,0.809,0.502,0.447
			c0,0.002,0,0.004,0.001,0.004c0.324,0.424,0.712,0.826,1.134,1.211c-0.397-0.109-0.816-0.125-1.225-0.023
			c-0.462,0.117-1.237,0.355-1.361,0.881c-0.025,0.109,0.055,0.184,0.159,0.176c0.373-0.035,0.697-0.385,1.045-0.535
			c0.403-0.174,0.806-0.254,1.211-0.188c-0.208,0.15-0.426,0.285-0.667,0.379c-0.271,0.107-0.584,0.164-0.82,0.344
			c-0.146,0.111-0.032,0.326,0.123,0.34c0.327,0.029,0.722-0.156,1.002-0.311c0.307-0.168,0.577-0.369,0.829-0.607h0.002
			c0.003,0,0.01,0.002,0.015,0.004c0.067,0.033,0.132,0.01,0.18-0.029c0.248,0.207,0.5,0.412,0.759,0.611
			c-0.864-0.139-2.025-0.129-2.452,0.547c-0.047,0.074-0.018,0.205,0.079,0.223c0.413,0.084,0.737-0.125,1.134-0.24
			c0.447-0.129,0.869-0.189,1.311-0.145c-0.247,0.133-0.505,0.24-0.776,0.318c-0.29,0.084-0.63,0.115-0.821,0.359
			c-0.061,0.076-0.006,0.186,0.079,0.215c0.333,0.123,0.817-0.121,1.125-0.266c0.323-0.152,0.617-0.336,0.882-0.576
			c0.004,0,0.009,0,0.014,0c0.328,0.244,0.658,0.488,0.983,0.729c-0.699-0.139-1.491-0.082-1.914,0.43
			c-0.08,0.096,0.035,0.213,0.135,0.197c0.378-0.059,0.687-0.313,1.065-0.381c0.314-0.059,0.613-0.037,0.901,0.037
			c-0.19,0.049-0.379,0.127-0.554,0.234c-0.254,0.158-0.671,0.396-0.678,0.725c-0.003,0.082,0.059,0.148,0.139,0.154
			c0.288,0.02,0.512-0.279,0.718-0.447c0.272-0.223,0.562-0.371,0.909-0.402c0.332,0.256,0.658,0.51,0.953,0.768
			c0.245,0.217,0.476,0.449,0.716,0.674c-0.494-0.068-0.974,0.029-1.327,0.467c-0.072,0.09,0.032,0.211,0.132,0.189
			c0.526-0.119,0.955-0.434,1.527-0.277c0.04,0.01,0.076,0.025,0.113,0.039c0.096,0.094,0.2,0.182,0.292,0.275
			c-0.169,0.002-0.339,0.014-0.51,0.064c-0.278,0.084-0.65,0.188-0.679,0.52c-0.006,0.076,0.058,0.135,0.129,0.141
			c0.188,0.02,0.22-0.057,0.388-0.139c0.154-0.074,0.313-0.125,0.481-0.154c0.174-0.027,0.353-0.049,0.531-0.064
			c0.256,0.27,0.508,0.541,0.756,0.818c-0.07-0.033-0.145-0.063-0.227-0.076c-0.396-0.063-0.906,0.033-1.128,0.396
			c-0.049,0.076,0,0.195,0.098,0.193c0.508-0.01,1.132-0.484,1.432,0.1c-0.286,0.135-0.864,0.166-0.864,0.508
			c0,0.049,0.027,0.102,0.077,0.113c0.193,0.049,0.372-0.092,0.559-0.145c0.207-0.061,0.392-0.123,0.563-0.256
			c0.067-0.053,0.079-0.119,0.058-0.18c0.395,0.477,0.781,0.959,1.15,1.455c0.187,0.488,0.378,0.973,0.585,1.455
			c0.068,0.164,0.209,0.215,0.347,0.191c-0.292,3.934-1.501,7.693-1.893,11.613c-0.374,3.73-0.66,7.436-0.7,11.186
			c-0.082,7.799,0.126,15.59-0.147,23.389c-10.331-0.342-20.609-1.566-30.949-1.695c-5.003-0.064-10.015-0.012-15.015-0.227
			C20.988,79.337,16.797,78.438,12.784,78.583z"/>
		<path fill="#4361AD" d="M69.522,76.44c-0.349-0.131-0.872-0.586-0.845-0.984c0.006-0.07,0.076-0.133,0.147-0.105
			c0.458,0.186,0.826,1.197,1.389,0.623c-0.303-0.428-0.897-0.67-1.051-1.17c-0.028-0.096,0.079-0.188,0.17-0.154
			c0.284,0.104,0.497,0.369,0.709,0.58c0.192,0.193,0.354,0.404,0.471,0.646c0.075,0.045,0.118,0.133,0.047,0.223
			C70.291,76.442,69.947,76.601,69.522,76.44z"/>
		<path fill="#4361AD" d="M69.729,77.698c0.188,0.146-0.012,0.463-0.205,0.314c-0.351-0.266-0.646-0.572-0.914-0.922
			c-0.264-0.342-0.565-0.738-0.647-1.168c-0.017-0.082,0.083-0.174,0.158-0.113c0.284,0.229,0.458,0.561,0.658,0.855
			C69.04,77.056,69.356,77.411,69.729,77.698z"/>
		<path fill="#4361AD" d="M67.434,76.649c-0.063-0.121,0.056-0.229,0.173-0.203c0.414,0.088,0.754,0.469,1.05,0.754
			c0.392,0.381,0.749,0.799,1.108,1.205c0.2,0.225-0.137,0.529-0.343,0.313c-0.337-0.357-0.679-0.717-1.028-1.063
			C68.077,77.345,67.644,77.044,67.434,76.649z"/>
		<path fill="#4361AD" d="M66.91,77.534c-0.022-0.096,0.055-0.166,0.144-0.172c0.438-0.02,0.816,0.475,1.088,0.762
			c0.354,0.375,0.652,0.793,0.903,1.244c0.147,0.26-0.239,0.443-0.398,0.207c-0.265-0.389-0.573-0.75-0.897-1.094
			C67.477,78.194,67.005,77.935,66.91,77.534z"/>
		<path fill="#4361AD" d="M66.206,77.735c-0.006-0.066,0.021-0.141,0.096-0.152c0.412-0.068,0.775,0.455,0.991,0.746
			c0.28,0.379,0.46,0.82,0.582,1.275c0.074,0.281-0.348,0.367-0.437,0.098c-0.136-0.406-0.338-0.781-0.588-1.131
			C66.66,78.312,66.243,78.062,66.206,77.735z"/>
		<path fill="#4361AD" d="M65.298,78.003c0.355-0.188,0.689,0.41,0.852,0.633c0.307,0.422,0.545,0.912,0.695,1.41
			c0.049,0.158-0.161,0.24-0.265,0.139C66.363,79.972,64.833,78.247,65.298,78.003z"/>
		<path fill="#4361AD" d="M64.651,79.147c0.33,0.109,0.521,0.391,0.888,0.441c0.256,0.035,0.248,0.416-0.019,0.406
			c-0.436-0.016-0.935-0.221-1.045-0.686C64.45,79.208,64.551,79.114,64.651,79.147z"/>
		<path fill="#4361AD" d="M31.805,77.655c-0.086-0.107,0.006-0.27,0.147-0.229c0.554,0.162,1.011,0.58,1.458,0.926
			c0.389,0.303,0.791,0.529,1.232,0.674c-0.327-0.27-0.655-0.541-0.959-0.83c-0.078-0.072-0.004-0.195,0.091-0.193
			c0.762,0.012,1.323,0.65,1.735,1.232c0.121,0.17-0.019,0.34-0.178,0.314C34.067,79.446,32.585,78.661,31.805,77.655z"/>
		<path fill="#4361AD" d="M30.389,77.323c-0.037-0.084,0.02-0.211,0.125-0.193c0.4,0.063,0.717,0.385,0.992,0.66
			c0.314,0.311,0.547,0.713,0.732,1.109c0.082,0.18-0.161,0.373-0.292,0.205c-0.238-0.307-0.481-0.611-0.751-0.895
			C30.932,77.937,30.555,77.671,30.389,77.323z"/>
		<path fill="#4361AD" d="M29.405,76.878c0.643,0.33,0.972,1.139,1.417,1.678c0.159,0.191-0.112,0.439-0.287,0.26
			c-0.481-0.504-1.045-1.127-1.297-1.787C29.198,76.917,29.297,76.821,29.405,76.878z"/>
		<path fill="#4361AD" d="M28.397,77.019c0.332,0.043,0.531,0.385,0.709,0.641c0.234,0.342,0.423,0.721,0.58,1.105
			c0.106,0.258-0.26,0.461-0.389,0.205c-0.156-0.307-0.346-0.588-0.531-0.875c-0.181-0.277-0.521-0.59-0.521-0.938
			C28.244,77.083,28.32,77.009,28.397,77.019z"/>
		<path fill="#4361AD" d="M27.678,78.237c0.183,0.129,0.279,0.313,0.394,0.49c0.067-0.115,0.101-0.24,0.116-0.393
			c0.02-0.191,0.298-0.18,0.298,0.014c0.002,0.338-0.058,0.576-0.291,0.828c-0.065,0.068-0.208,0.063-0.265-0.014
			c-0.188-0.248-0.254-0.529-0.379-0.813C27.518,78.276,27.6,78.181,27.678,78.237z"/>
		<path fill="#4361AD" d="M24.461,76.435c0.383,0.227,0.629,0.621,0.879,0.979c0.072,0.104,0.131,0.215,0.201,0.32
			c0.102-0.203,0.337-0.32,0.555-0.451c-0.123-0.219-0.24-0.439-0.34-0.67c-0.033-0.074,0.063-0.154,0.12-0.086
			c0.157,0.188,0.319,0.375,0.479,0.563c0.019-0.018,0.041-0.029,0.058-0.049c0.035-0.064,0.147-0.088,0.185-0.006
			c0.082,0.191,0.123,0.381,0.17,0.559c0.209,0.264,0.408,0.537,0.568,0.834c0.122,0.219-0.177,0.404-0.343,0.242
			c-0.183-0.178-0.317-0.369-0.406-0.6c-0.131-0.193-0.255-0.393-0.374-0.592c-0.072,0.051-0.142,0.104-0.219,0.15
			c-0.107,0.063-0.23,0.125-0.279,0.25c-0.016,0.041-0.006,0.094,0.006,0.143c0.125,0.203,0.264,0.402,0.381,0.611
			c0.104,0.182-0.174,0.318-0.281,0.146c-0.232-0.361-0.452-0.73-0.695-1.086c-0.258-0.379-0.607-0.717-0.797-1.137
			C24.288,76.472,24.377,76.386,24.461,76.435z"/>
		<path fill="#4361AD" d="M23.547,76.351c0.637,0.4,0.838,1.551,0.969,2.234c0.043,0.223-0.299,0.369-0.385,0.143
			c-0.148-0.393-0.272-0.797-0.432-1.188c-0.141-0.35-0.355-0.693-0.374-1.076C23.322,76.353,23.461,76.296,23.547,76.351z"/>
		<path fill="#4361AD" d="M21.916,75.813c0.341,0.221,0.5,0.635,0.681,0.984c0.246,0.482,0.478,0.971,0.748,1.441
			c0.142,0.25-0.244,0.445-0.392,0.205c-0.254-0.416-0.479-0.846-0.708-1.273c-0.208-0.393-0.5-0.801-0.538-1.25
			C21.699,75.813,21.84,75.761,21.916,75.813z"/>
		<path fill="#4361AD" d="M21.422,76.263c0.396,0.334,0.557,0.992,0.762,1.455c0.115,0.256-0.271,0.461-0.385,0.201
			c-0.125-0.279-0.25-0.561-0.373-0.842c-0.102-0.229-0.217-0.453-0.207-0.709C21.223,76.278,21.344,76.198,21.422,76.263z"/>
		<path fill="#4361AD" d="M19.76,75.921c0.555,0.146,0.854,1.008,1.043,1.486c0.114,0.281-0.285,0.506-0.422,0.223
			c-0.129-0.258-0.254-0.516-0.396-0.762c-0.143-0.252-0.379-0.48-0.42-0.77C19.549,75.981,19.643,75.888,19.76,75.921z"/>
		<path fill="#4361AD" d="M17.928,76.188c0.08,0.271,0.113,0.633,0.342,0.822c0.177,0.141,0.416,0.186,0.648,0.207
			c-0.029-0.184-0.076-0.357-0.15-0.537c-0.059-0.15-0.143-0.264-0.145-0.43c0-0.1,0.1-0.143,0.182-0.125
			c0.498,0.094,0.612,0.939,0.605,1.34c-0.002,0.158-0.131,0.227-0.254,0.209c-0.41-0.025-0.896-0.074-1.208-0.377
			c-0.308-0.301-0.375-0.719-0.231-1.117C17.753,76.075,17.9,76.087,17.928,76.188z"/>
		<path fill="#4361AD" d="M43.775,6.001c-0.063-0.094,0.052-0.191,0.143-0.168c0.689,0.182,1.424,0.684,2.008,1.123
			c0.16-0.162,0.271-0.332,0.318-0.564c-0.138-0.139-0.274-0.273-0.431-0.395c-0.188-0.145-0.45-0.188-0.601-0.365
			c-0.046-0.053-0.056-0.148,0.008-0.195c0.471-0.35,1.117,0.398,1.396,0.717c0.078,0.088,0.065,0.188,0.014,0.26
			c-0.063,0.393-0.247,0.67-0.549,0.953c-0.067,0.063-0.17,0.07-0.246,0.021C45.184,6.958,44.229,6.664,43.775,6.001z"/>
		<path fill="#4361AD" d="M42.927,6.183c0.399,0,0.778,0.332,1.101,0.541c0.328,0.213,0.646,0.443,0.911,0.736
			c0.225,0.252-0.146,0.58-0.386,0.35c-0.281-0.271-0.623-0.459-0.967-0.646c-0.341-0.189-0.722-0.365-0.854-0.748
			C42.69,6.292,42.814,6.183,42.927,6.183z"/>
		<path fill="#4361AD" d="M37.249,19.396c-0.053-0.123,0.046-0.236,0.176-0.207c0.478,0.111,0.903,0.668,1.21,1.027
			c0.379,0.441,0.685,0.943,0.916,1.477c0.095,0.213-0.218,0.381-0.32,0.168c-0.244-0.496-0.552-0.938-0.921-1.348
			C37.988,20.156,37.44,19.835,37.249,19.396z"/>
		<path fill="#4361AD" d="M36.713,21.017c-0.035-0.061-0.01-0.154,0.057-0.184c0.431-0.189,0.933,0.246,1.211,0.541
			c0.324,0.346,0.519,0.801,0.643,1.252c0.077,0.281-0.35,0.369-0.436,0.1c-0.123-0.381-0.303-0.723-0.575-1.016
			C37.356,21.435,36.899,21.337,36.713,21.017z"/>
		<path fill="#4361AD" d="M36.727,22.466c0.229-0.051,0.371,0.061,0.558,0.191c0.248,0.172,0.485,0.354,0.747,0.506
			c0.261,0.15,0.005,0.545-0.255,0.393c-0.231-0.133-0.445-0.285-0.659-0.441c-0.202-0.148-0.417-0.232-0.494-0.482
			C36.6,22.56,36.658,22.482,36.727,22.466z"/>
		<path fill="#4361AD" d="M36.358,25.535c0.248-0.08,0.516-0.094,0.755-0.199c0.208-0.092,0.348-0.271,0.45-0.471
			c-0.323-0.264-0.817-0.416-0.997-0.783c-0.056-0.109,0.026-0.205,0.135-0.213c0.446-0.041,1.021,0.434,1.319,0.738
			c0.121,0.123,0.068,0.273-0.038,0.352c-0.304,0.602-0.931,1.08-1.634,0.805C36.234,25.718,36.248,25.57,36.358,25.535z"/>
		<path fill="#4361AD" d="M67.528,28.544c0.373-0.023,0.708,0.27,0.962,0.527c0.015,0.002,0.034,0,0.045,0.002
			c0.203,0.016,0.183,0.297-0.013,0.309c-0.28,0.018-0.536,0.102-0.785,0.229c-0.146,0.076-0.239,0.195-0.413,0.174
			c-0.075-0.012-0.135-0.064-0.133-0.145c0.019-0.402,0.634-0.537,1.064-0.563c-0.185-0.17-0.387-0.307-0.647-0.314
			c-0.364-0.012-0.607,0.34-0.915,0.467c-0.093,0.039-0.185-0.051-0.131-0.143C66.751,28.759,67.154,28.568,67.528,28.544z"/>
	</g>
	<text transform="matrix(1 0 0 1 23.5439 54.5801)" fill="#ED1C24" font-family="'ArialMT'" font-size="20.2212">TUE</text>
</g>
</svg>
