<?xml version="1.0" encoding="utf-8"?>
<!-- Generator: Adobe Illustrator 16.0.0, SVG Export Plug-In . SVG Version: 6.00 Build 0)  -->
<!DOCTYPE svg PUBLIC "-//W3C//DTD SVG 1.1//EN" "http://www.w3.org/Graphics/SVG/1.1/DTD/svg11.dtd">
<svg version="1.1" id="Layer_1" xmlns="http://www.w3.org/2000/svg" xmlns:xlink="http://www.w3.org/1999/xlink" x="0px" y="0px"
	 width="85px" height="85px" viewBox="0 0 85 85" enable-background="new 0 0 85 85" xml:space="preserve">
<g>
	<polygon fill="#FBB429" points="4.093,75.728 42.499,9.272 80.907,75.728 	"/>
	<g>
		<circle fill="#1FCFC1" cx="42.499" cy="64.616" r="4.338"/>
		<path fill="#1FCFC1" d="M40.051,55.437h4.899c1.043,0,1.891-0.846,1.891-1.889V31.8c0-1.043-0.848-1.891-1.891-1.891h-4.899
			c-1.043,0-1.889,0.848-1.889,1.891v21.748C38.162,54.593,39.008,55.437,40.051,55.437z"/>
	</g>
	<g>
		<path fill="#4D4D4D" d="M80.907,77.321H4.094c-0.57,0-1.097-0.305-1.381-0.799c-0.283-0.492-0.285-1.1,0-1.594L41.12,8.474
			c0.285-0.492,0.812-0.795,1.379-0.795c0.571,0,1.096,0.303,1.381,0.795l38.406,66.455c0.285,0.494,0.285,1.102,0,1.594
			C82.003,77.017,81.476,77.321,80.907,77.321z M6.856,74.134h71.29L42.499,12.458L6.856,74.134z"/>
		<path fill="#4D4D4D" d="M24.915,52.38c-0.271,0-0.544-0.068-0.796-0.213c-0.763-0.441-1.022-1.416-0.582-2.178l0.646-1.115
			c0.439-0.764,1.416-1.023,2.176-0.582c0.763,0.439,1.023,1.414,0.584,2.176l-0.646,1.117C26,52.095,25.465,52.38,24.915,52.38z"/>
		<path fill="#4D4D4D" d="M13.495,72.142c-0.271,0-0.544-0.07-0.797-0.215c-0.762-0.441-1.021-1.416-0.582-2.178l7.828-13.547
			c0.44-0.762,1.416-1.021,2.178-0.582c0.762,0.441,1.023,1.416,0.583,2.178l-7.829,13.547
			C14.581,71.854,14.045,72.142,13.495,72.142z"/>
		<path fill="#4D4D4D" d="M42.499,70.548c-3.27,0-5.932-2.66-5.932-5.932s2.662-5.934,5.932-5.934c3.272,0,5.934,2.662,5.934,5.934
			C48.433,67.886,45.772,70.548,42.499,70.548z M42.499,61.87c-1.512,0-2.742,1.232-2.742,2.746s1.23,2.744,2.742,2.744
			c1.516,0,2.747-1.23,2.747-2.744S44.015,61.87,42.499,61.87z"/>
		<path fill="#4D4D4D" d="M44.948,57.03h-4.897c-1.921,0-3.484-1.561-3.484-3.482V31.8c0-1.92,1.562-3.484,3.484-3.484h4.897
			c1.922,0,3.482,1.562,3.482,3.484v21.748C48.433,55.468,46.87,57.03,44.948,57.03z M40.051,31.503
			c-0.162,0-0.295,0.133-0.295,0.297v21.748c0,0.164,0.133,0.297,0.295,0.297h4.899c0.162,0,0.295-0.133,0.295-0.297V31.8
			c0-0.164-0.133-0.297-0.295-0.297H40.051z"/>
	</g>
</g>
</svg>
