<?xml version="1.0" encoding="utf-8"?>
<!-- Generator: Adobe Illustrator 16.0.0, SVG Export Plug-In . SVG Version: 6.00 Build 0)  -->
<!DOCTYPE svg PUBLIC "-//W3C//DTD SVG 1.1//EN" "http://www.w3.org/Graphics/SVG/1.1/DTD/svg11.dtd">
<svg version="1.1" id="Layer_1" xmlns="http://www.w3.org/2000/svg" xmlns:xlink="http://www.w3.org/1999/xlink" x="0px" y="0px"
	 width="85px" height="85px" viewBox="0 0 85 85" enable-background="new 0 0 85 85" xml:space="preserve">
<g id="Layer_2">
	<g id="OBJECT">
		<path fill="#ACD980" d="M40.599,3.377h38.025c1.609,0,2.926,1.316,2.926,2.925v62.742c0,1.608-1.316,2.925-2.926,2.925H40.599
			c-1.609,0-2.925-1.316-2.925-2.925V6.303C37.674,4.694,38.99,3.377,40.599,3.377z"/>
		<path fill="#9267CC" d="M4.036,80.745L4.036,80.745c-1.024-1.024-1.024-2.779,0-3.949l27.203-27.203l3.949,3.803L7.984,80.599
			C6.961,81.915,5.206,81.915,4.036,80.745z"/>
		<circle fill="#9267CC" cx="39.575" cy="45.352" r="21.938"/>
		<circle fill="#F6F6F6" cx="39.575" cy="45.352" r="17.843"/>
		<path fill="#F6F6F6" d="M46.01,8.789h27.203c0.878,0,1.463,0.585,1.463,1.463v2.632c0,0.877-0.585,1.462-1.463,1.462H46.01
			c-0.877,0-1.462-0.585-1.462-1.462v-2.632C44.548,9.52,45.133,8.789,46.01,8.789z"/>
		<path d="M39.575,68.021c-1.17,0-2.34-0.146-3.657-0.292c-12.285-2.048-20.768-13.602-18.72-26.033l0.731,0.146l-0.731-0.146
			C19.246,29.41,30.8,20.928,43.231,22.975c5.996,1.024,11.262,4.242,14.771,9.068c3.51,4.973,4.973,10.969,3.948,16.965
			C60.196,60.123,50.544,68.021,39.575,68.021z M39.575,23.999c-10.238,0-19.306,7.459-20.915,17.843l0,0
			C16.76,53.396,24.657,64.365,36.211,66.12c11.553,1.9,22.523-5.997,24.278-17.551c1.901-11.554-5.996-22.523-17.551-24.278
			C41.915,24.146,40.745,23.999,39.575,23.999z"/>
		<path d="M5.937,82.5H5.791c-0.877,0-1.755-0.438-2.34-1.17s-0.877-1.608-0.877-2.486s0.438-1.755,1.17-2.34l18.135-18.136
			c0.146-0.146,0.292-0.292,0.585-0.146c0.146,0,0.438,0.146,0.585,0.293c1.17,1.316,2.34,2.633,3.803,3.656
			c0.146,0.146,0.292,0.293,0.292,0.585c0,0.293,0,0.438-0.146,0.585L8.862,81.477c0,0-0.146,0.146-0.292,0.292
			C7.692,82.062,6.814,82.5,5.937,82.5z M22.171,59.831l-17.55,17.55c-0.438,0.438-0.731,0.878-0.731,1.463s0.146,1.023,0.585,1.462
			c0.292,0.439,0.877,0.585,1.462,0.731c0.585,0,1.024-0.146,1.462-0.585l0.146-0.146l17.55-17.696
			C24.072,61.732,23.048,60.854,22.171,59.831z"/>
		<path d="M78.771,72.701H40.453c-1.901,0-3.51-1.609-3.51-3.511v-2.047c0-0.146,0.146-0.438,0.292-0.585
			c0.146-0.146,0.439-0.146,0.585-0.146c0.585,0.146,1.17,0.146,1.901,0.146c11.701,0,21.207-9.507,21.207-21.207
			c0-11.7-9.506-21.206-21.207-21.206c-0.292,0-0.585,0-0.877,0s-0.731,0-1.024,0c-0.438,0-0.731-0.293-0.731-0.731V6.01
			c0-1.901,1.462-3.51,3.364-3.51h38.464c1.901,0,3.51,1.609,3.51,3.51v63.181C82.28,71.093,80.672,72.701,78.771,72.701z
			 M38.405,67.875v1.315c0,1.171,0.878,2.048,2.048,2.048h38.318c1.023,0,2.048-0.877,2.048-2.048V6.01
			c0-1.17-0.878-2.048-2.048-2.048H40.306c-1.023,0-1.901,0.877-1.901,2.048v16.526h0.146c0.292,0,0.731,0,1.024,0
			c12.432,0,22.669,10.237,22.669,22.669c0,12.431-10.237,22.669-22.669,22.669C39.283,67.875,38.844,67.875,38.405,67.875z"/>
		<path d="M39.575,63.926c-1.463,0-2.779-0.146-4.242-0.438c-4.826-1.17-8.921-4.095-11.554-8.337
			c-2.632-4.241-3.364-9.214-2.34-14.04c1.17-4.826,4.095-8.921,8.336-11.554c4.241-2.633,9.213-3.364,14.04-2.34
			c9.945,2.34,16.234,12.286,13.894,22.376C55.663,58.076,48.058,63.926,39.575,63.926z M39.575,28.24
			c-3.218,0-6.289,0.878-8.921,2.633c-3.949,2.34-6.582,6.143-7.605,10.676l0,0c-1.023,4.387-0.292,9.068,2.048,12.87
			c2.34,3.803,6.143,6.582,10.676,7.605c9.214,2.194,18.428-3.51,20.621-12.724c2.194-9.214-3.51-18.428-12.724-20.622
			C42.207,28.387,40.891,28.24,39.575,28.24z"/>
		<path d="M47.765,40.818c-0.146,0-0.438,0-0.585-0.146c-0.292-0.292-0.292-0.731,0-1.024l0.146-0.146
			c0.293-0.292,0.731-0.292,1.024,0c0.292,0.292,0.292,0.731,0,1.023l-0.146,0.146C48.204,40.672,47.911,40.818,47.765,40.818z"/>
		<path d="M37.089,51.494c-0.146,0-0.439,0-0.585-0.146l-5.85-5.851c-0.293-0.292-0.293-0.731,0-1.023
			c0.292-0.293,0.731-0.293,1.023,0l5.412,5.411l8.336-8.336c0.293-0.292,0.731-0.292,1.024,0c0.292,0.292,0.292,0.731,0,1.024
			l-8.775,8.775C37.527,51.349,37.381,51.494,37.089,51.494z"/>
		<path d="M73.213,15.078H46.01c-1.17,0-2.193-1.024-2.193-2.194v-2.632c0-1.17,1.023-2.194,2.193-2.194h27.203
			c1.17,0,2.194,1.024,2.194,2.194v2.632C75.407,14.054,74.383,15.078,73.213,15.078z M46.01,9.52c-0.438,0-0.731,0.292-0.731,0.731
			v2.632c0,0.439,0.293,0.731,0.731,0.731h27.203c0.438,0,0.731-0.292,0.731-0.731v-2.632c0-0.439-0.293-0.731-0.731-0.731H46.01z"
			/>
		<path d="M70.58,20.635h-0.292c-0.438,0-0.731-0.292-0.731-0.731c0-0.438,0.293-0.731,0.731-0.731h0.292
			c0.439,0,0.731,0.292,0.731,0.731C71.312,20.343,71.02,20.635,70.58,20.635z"/>
		<path d="M67.07,20.635H48.643c-0.438,0-0.731-0.292-0.731-0.731c0-0.438,0.293-0.731,0.731-0.731H67.07
			c0.438,0,0.731,0.292,0.731,0.731C67.802,20.343,67.363,20.635,67.07,20.635z"/>
	</g>
</g>
</svg>
