<?xml version="1.0" encoding="utf-8"?>
<!-- Generator: Adobe Illustrator 16.0.0, SVG Export Plug-In . SVG Version: 6.00 Build 0)  -->
<!DOCTYPE svg PUBLIC "-//W3C//DTD SVG 1.1//EN" "http://www.w3.org/Graphics/SVG/1.1/DTD/svg11.dtd">
<svg version="1.1" id="Layer_1" xmlns="http://www.w3.org/2000/svg" xmlns:xlink="http://www.w3.org/1999/xlink" x="0px" y="0px"
	 width="85px" height="85px" viewBox="0 0 85 85" enable-background="new 0 0 85 85" xml:space="preserve">
<g>
	<g>
		<path fill="#242222" d="M82.485,41.399c-0.079-0.699-0.629-1.198-1.294-1.189c-0.666,0.008-1.197,0.512-1.265,1.219
			c-0.023,0.24-0.01,0.483-0.01,0.725c0,6.02,0.004,12.041-0.003,18.06c-0.002,1.816-1.054,3.314-2.691,3.787
			c-1.351,0.391-2.733,0.128-4.255,0.221c3.721-3.411,4.63-6.731,4.532-11.081c-0.091-4.029-0.047-8.062-0.008-12.093
			c0.019-1.864-0.426-3.503-1.864-4.801c0.327-0.284,0.642-0.534,0.931-0.811c2.214-2.129,2.652-5.433,1.074-8.043
			c-1.556-2.572-4.698-3.777-7.549-2.815c-2.341,0.79-3.845,2.426-4.352,4.855c-0.529,2.538,0.281,4.675,2.253,6.328
			c0.479,0.402,0.499,0.565,0.067,0.994c-0.721,0.716-1.305,1.647-1.244,2.632c0.089,1.453-0.789,2.011-1.803,2.582
			c-0.257,0.145-0.516,0.295-0.742,0.481c-0.526,0.432-1.113,0.549-1.789,0.544c-3.602-0.025-7.203-0.019-10.805-0.009
			c-2.122,0.006-3.688,1.221-4.106,3.155c-0.151,0.693-0.05,1.38,0.11,2.083c-3.465,0-6.892,0-10.329,0
			c0.792-3.189-1.503-5.38-4.446-5.271c-3.543,0.131-7.094,0.031-10.642,0.03c-0.345,0-0.68,0.021-1.001-0.197
			c-0.844-0.572-1.708-1.114-2.57-1.659c-0.245-0.155-0.385-0.324-0.375-0.643c0.053-1.683-0.608-3.074-1.823-4.248
			c0.246-0.207,0.473-0.394,0.694-0.586c2.335-2.04,2.922-5.366,1.423-8.057c-1.489-2.674-4.677-3.973-7.599-3.032
			c-2.391,0.771-3.919,2.431-4.427,4.88c-0.523,2.523,0.29,4.667,2.258,6.336c0.373,0.316,0.58,0.463,0.122,0.922
			c-1.014,1.016-1.431,2.312-1.432,3.735c-0.006,4.81-0.029,9.622,0.008,14.432c0.025,3.229,1.204,6.016,3.459,8.336
			c0.293,0.302,0.607,0.583,1.042,0.998c-1.001,0-1.808,0.001-2.613,0c-2.797-0.003-4.335-1.54-4.336-4.335
			C5.087,53.816,5.09,47.77,5.084,41.723c0-0.939-0.52-1.522-1.301-1.513c-0.754,0.009-1.272,0.575-1.273,1.459
			c-0.005,6.289-0.027,12.578,0.013,18.867c0.02,3.097,2.376,5.719,5.458,6.13c2.083,0.278,4.187,0.093,6.281,0.094
			c0.666,0.001,0.84,0.155,0.835,0.832c-0.034,4.435-0.02,8.869-0.016,13.304c0.001,1.138,0.423,1.577,1.534,1.594
			c0.994,0.014,1.989,0.015,2.983-0.001c1.061-0.016,1.494-0.458,1.504-1.539c0.013-1.316,0.003-2.633,0.003-3.95
			c0-3.172-0.004-6.343,0.007-9.515c0.001-0.234-0.156-0.547,0.21-0.693c1.142-0.455,2.419,0.125,2.823,1.29
			c0.053,0.152,0.102,0.305,0.147,0.458c1.229,4.165,2.458,8.329,3.684,12.494c0.379,1.288,0.593,1.458,1.921,1.458
			c8.413,0.002,16.825,0.002,25.237,0c1.273,0,1.527-0.198,1.883-1.407c1.231-4.191,2.464-8.383,3.701-12.572
			c0.49-1.66,0.596-1.698,2.266-1.748c0.717-0.022,0.941,0.148,0.935,0.91c-0.041,4.354-0.021,8.708-0.019,13.062
			c0.001,1.385,0.375,1.751,1.774,1.756c0.86,0.004,1.721,0.007,2.58,0c1.27-0.01,1.669-0.417,1.669-1.704
			c0.002-4.434,0.011-8.869-0.012-13.304c-0.003-0.551,0.115-0.732,0.697-0.719c1.665,0.042,3.332,0.017,4.999,0.015
			c4.187-0.006,6.887-2.715,6.889-6.916c0.002-5.94,0-11.88,0-17.819C82.497,41.828,82.51,41.611,82.485,41.399z M31.545,63.589
			c-0.06,0.017-0.12,0.034-0.18,0.051c-0.225-0.445-0.441-0.895-0.675-1.334c-1.606-3.011-3.811-5.303-7.29-6.069
			c-1.166-0.257-2.345-0.247-3.527-0.248c-1.144-0.001-1.551-0.411-1.555-1.55c-0.005-1.368-0.001-2.736-0.001-4.209
			c1.472,0.864,3.026,0.58,4.538,0.591c0.591,0.004,0.888,0.097,0.801,0.77c-0.062,0.476-0.019,0.966-0.01,1.449
			c0.018,1.064,0.466,1.524,1.521,1.529c1.88,0.01,3.761,0.021,5.641-0.008c0.563-0.009,0.751,0.173,0.747,0.734
			C31.534,58.06,31.545,60.824,31.545,63.589z M66.672,54.821c-0.019,0.746-0.529,1.156-1.363,1.164
			c-1.235,0.014-2.47-0.021-3.69,0.246c-2.935,0.643-5.033,2.406-6.615,4.881c-0.602,0.941-1.05,1.965-1.67,2.933
			c0-3.021,0.006-6.041-0.005-9.062c-0.002-0.478,0.303-0.411,0.593-0.411c1.908-0.001,3.817,0.002,5.725-0.002
			c1.31-0.002,1.698-0.413,1.719-1.746c0.01-0.639-0.271-1.467,0.112-1.862c0.388-0.399,1.221-0.115,1.856-0.118
			c1.127-0.005,2.256,0.046,3.35-0.635C66.683,51.827,66.708,53.324,66.672,54.821z"/>
	</g>
	<path fill-rule="evenodd" clip-rule="evenodd" fill="#242222" d="M55.324,2.502c2.9,0,5.801-0.003,8.702,0.001
		c2.558,0.003,4.12,1.556,4.122,4.104c0.004,5.022,0.005,10.044,0,15.067c-0.003,2.457-1.458,3.98-3.909,4.048
		c-0.527,0.014-0.698,0.149-0.675,0.683c0.042,0.938,0.01,1.879,0.012,2.819c0.002,0.663-0.167,1.222-0.854,1.491
		c-0.659,0.258-1.133-0.042-1.568-0.497c-1.28-1.339-2.576-2.665-3.844-4.016c-0.319-0.34-0.647-0.479-1.118-0.476
		c-3.195,0.02-6.392,0.014-9.587,0.009c-2.726-0.004-4.223-1.51-4.224-4.247c-0.003-4.915-0.004-9.83,0-14.745
		c0.002-2.712,1.535-4.241,4.242-4.243C49.523,2.501,52.424,2.502,55.324,2.502z"/>
	<path fill-rule="evenodd" clip-rule="evenodd" fill="#242222" d="M28.355,2.502c2.928,0,5.856-0.004,8.784,0.001
		c2.522,0.004,4.086,1.547,4.09,4.05c0.008,5.05,0.007,10.101,0,15.151c-0.003,2.48-1.528,4.017-4.013,4.03
		c-3.17,0.016-6.34,0.027-9.51-0.014c-0.688-0.009-1.141,0.209-1.593,0.702c-1.16,1.268-2.375,2.485-3.563,3.728
		c-0.447,0.468-0.917,0.84-1.622,0.57c-0.729-0.279-0.873-0.86-0.856-1.559c0.022-0.94-0.013-1.881,0.014-2.82
		c0.012-0.428-0.079-0.597-0.563-0.618c-2.694-0.113-4.042-1.543-4.044-4.246c-0.005-4.889-0.004-9.778,0-14.667
		c0.002-2.826,1.498-4.307,4.334-4.308C22.66,2.502,25.508,2.502,28.355,2.502z"/>
	<path fill-rule="evenodd" clip-rule="evenodd" fill="#A69AA6" d="M50.715,67.299c0,3.923-0.017,7.847,0.016,11.77
		c0.005,0.683-0.203,0.854-0.863,0.85c-4.944-0.025-9.89-0.026-14.833,0.002c-0.66,0.004-0.792-0.207-0.79-0.819
		c0.019-7.9,0.021-15.801-0.002-23.701c-0.002-0.665,0.174-0.85,0.845-0.846c4.944,0.028,9.889,0.026,14.833,0.002
		c0.637-0.004,0.813,0.175,0.81,0.812C50.7,59.345,50.715,63.321,50.715,67.299z"/>
	<path fill-rule="evenodd" clip-rule="evenodd" fill="#89C8FD" d="M69.422,39.55c0.476-1.416,1.706-2.225,2.988-2.042
		c1.473,0.209,2.467,1.34,2.476,2.908c0.02,3.411,0.025,6.822-0.001,10.233c-0.014,1.797,0.131,3.599-0.108,5.392
		c-0.618,4.623-4.458,8.053-9.15,8.154c-0.993,0.022-1.987,0.004-2.981,0.005c-2.343,0.001-3.507,0.797-4.232,3.044
		c-0.675,2.09-1.262,4.209-1.883,6.317c-0.561,1.902-1.156,3.796-1.65,5.715c-0.189,0.737-0.653,0.646-1.149,0.629
		c-0.664-0.022-0.369-0.545-0.385-0.849c-0.039-0.804,0.029-1.613-0.02-2.416c-0.293-4.778,1.408-9.063,3.381-13.24
		c1.562-3.307,4.243-5.033,8.01-4.835c0.479,0.025,0.973,0.011,1.442-0.078c1.84-0.347,3.075-1.808,3.102-3.68
		c0.025-1.88,0.021-3.761-0.003-5.641c-0.005-0.451,0.113-0.736,0.519-0.97c0.72-0.415,1.41-0.883,2.1-1.347
		c1.566-1.054,2.207-2.679,1.747-4.391c-0.449-1.667-1.888-2.773-3.752-2.883C69.739,39.568,69.608,39.561,69.422,39.55z"/>
	<path fill-rule="evenodd" clip-rule="evenodd" fill="#89C8FD" d="M15.573,39.543c-0.698,0.037-1.363,0.1-1.983,0.371
		c-2.762,1.203-3.183,4.957-0.741,6.735c0.736,0.536,1.511,1.025,2.296,1.487c0.443,0.261,0.619,0.557,0.607,1.088
		c-0.039,1.772-0.021,3.546-0.014,5.318c0.009,2.444,1.584,4.007,4.043,4.031c0.778,0.008,1.563-0.016,2.333,0.074
		c2.775,0.324,4.635,1.971,5.962,4.3c1.786,3.135,2.782,6.588,3.472,10.072c0.41,2.068,0.077,4.283,0.093,6.432
		c0.003,0.381-0.207,0.464-0.504,0.452c-0.372-0.016-0.776,0.146-0.941-0.457c-0.538-1.964-1.14-3.911-1.715-5.864
		c-0.591-2.006-1.181-4.011-1.771-6.017c-0.198-0.674-0.47-1.313-0.884-1.885c-0.689-0.951-1.603-1.461-2.8-1.484
		c-1.556-0.03-3.115,0.106-4.668-0.099c-4.694-0.618-8.184-4.448-8.232-9.156c-0.05-4.835-0.021-9.671-0.008-14.505
		c0.004-1.522,0.889-2.599,2.297-2.888c1.253-0.258,2.547,0.433,3.086,1.652C15.542,39.292,15.545,39.401,15.573,39.543z"/>
	<path fill-rule="evenodd" clip-rule="evenodd" fill="#5FB6FE" d="M57.947,48.257c-2.068,0-4.136,0.004-6.204-0.002
		c-1.055-0.003-1.661-0.497-1.664-1.333c-0.004-0.836,0.604-1.358,1.645-1.36c3.867-0.009,7.735-0.011,11.603,0.004
		c0.587,0.002,1.091-0.13,1.584-0.46c1.315-0.88,2.652-1.729,3.987-2.579c0.844-0.537,1.59-0.444,2.051,0.23
		c0.478,0.7,0.258,1.44-0.63,2.021c-1.596,1.042-3.203,2.064-4.799,3.106c-0.422,0.275-0.866,0.378-1.368,0.373
		c-2.068-0.016-4.136-0.007-6.204-0.007C57.947,48.253,57.947,48.255,57.947,48.257z"/>
	<path fill-rule="evenodd" clip-rule="evenodd" fill="#5FB6FE" d="M26.998,48.25c-2.068,0-4.136-0.006-6.204,0.006
		c-0.444,0.003-0.845-0.076-1.222-0.32c-1.666-1.081-3.337-2.153-5.006-3.23c-0.512-0.33-0.836-0.777-0.727-1.409
		c0.1-0.579,0.471-0.951,1.044-1.104c0.46-0.123,0.839,0.082,1.206,0.318c1.286,0.827,2.584,1.638,3.851,2.495
		c0.581,0.394,1.172,0.567,1.877,0.563c3.76-0.024,7.52-0.01,11.28-0.013c0.379-0.001,0.764-0.013,1.101,0.175
		c0.579,0.323,0.855,0.84,0.69,1.486c-0.182,0.718-0.718,1.036-1.444,1.037c-2.148,0.003-4.297,0.001-6.446,0.001
		C26.998,48.254,26.998,48.253,26.998,48.25z"/>
	<path fill-rule="evenodd" clip-rule="evenodd" fill="#F5DBCC" d="M68.155,30.688c0.034-2.161,1.862-3.917,4.021-3.86
		c2.124,0.056,3.875,1.879,3.824,3.981c-0.051,2.137-1.83,3.88-3.946,3.866C69.896,34.662,68.121,32.847,68.155,30.688z"/>
	<path fill-rule="evenodd" clip-rule="evenodd" fill="#F5DBCC" d="M16.844,30.759c-0.006,2.123-1.769,3.897-3.889,3.917
		c-2.141,0.02-3.963-1.795-3.954-3.938c0.009-2.155,1.822-3.938,3.975-3.911C15.102,26.854,16.85,28.632,16.844,30.759z"/>
	<path fill-rule="evenodd" clip-rule="evenodd" fill="#817481" d="M42.417,51.963c-5.132,0-10.264,0-15.395-0.001
		c-0.392,0-0.805,0.107-0.818-0.554c-0.013-0.66,0.384-0.572,0.787-0.572c10.344,0.001,20.688,0.001,31.032-0.001
		c0.412,0,0.794-0.068,0.777,0.582c-0.017,0.669-0.442,0.544-0.826,0.544C52.788,51.963,47.603,51.963,42.417,51.963z"/>
	<path fill-rule="evenodd" clip-rule="evenodd" fill="#8C9BA7" d="M17.666,73.341c0-1.961-0.003-3.922,0.003-5.883
		c0.001-0.296-0.121-0.677,0.418-0.676c0.536,0.002,0.42,0.381,0.421,0.678c0.005,3.922,0.005,7.844,0,11.766
		c0,0.299,0.111,0.678-0.423,0.678c-0.538-0.001-0.416-0.383-0.417-0.68C17.663,77.263,17.666,75.302,17.666,73.341z"/>
	<path fill-rule="evenodd" clip-rule="evenodd" fill="#8C9BA7" d="M66.492,73.258c0-1.935-0.003-3.868,0.003-5.803
		c0.001-0.3-0.108-0.676,0.426-0.673c0.54,0.003,0.414,0.386,0.414,0.68c0.005,3.923,0.005,7.845,0,11.767
		c0,0.298,0.117,0.679-0.421,0.675c-0.535-0.004-0.417-0.386-0.418-0.682C66.489,77.233,66.492,75.245,66.492,73.258z"/>
	<path fill-rule="evenodd" clip-rule="evenodd" fill="#FEE077" d="M60.993,26.084c-0.789-0.739-1.568-1.396-2.258-2.138
		c-0.541-0.582-1.139-0.807-1.919-0.801c-3.385,0.024-6.769,0.012-10.153,0.009c-1.357-0.001-1.703-0.352-1.703-1.727
		c-0.002-4.889-0.003-9.777,0-14.666c0.001-1.299,0.385-1.679,1.688-1.68c5.748-0.002,11.496-0.002,17.244,0
		c1.306,0,1.673,0.369,1.673,1.676c0.002,4.915,0.002,9.831,0,14.746c0,1.305-0.351,1.646-1.682,1.651
		c-0.483,0.002-0.968-0.017-1.45,0.006c-0.974,0.047-1.401,0.485-1.437,1.463C60.979,25.102,60.993,25.581,60.993,26.084z"/>
	<path fill-rule="evenodd" clip-rule="evenodd" fill="#6CF4C1" d="M22.683,24.415c-0.326-1.002-0.642-1.244-1.672-1.261
		c-0.562-0.009-1.124,0.001-1.686-0.007c-0.325-0.005-0.646-0.037-0.852-0.346c-0.241-0.547-0.327-1.118-0.327-1.717
		c0.008-4.604,0.01-9.209-0.002-13.814c-0.002-0.627,0.083-1.223,0.316-1.8c0.277-0.368,0.678-0.39,1.087-0.39
		c5.856,0,11.713-0.002,17.569,0.003c1.144,0.001,1.533,0.405,1.534,1.567c0.003,4.97,0.003,9.94,0,14.91
		c0,1.229-0.353,1.59-1.57,1.592c-3.358,0.005-6.716,0.024-10.074-0.013c-0.9-0.01-1.601,0.206-2.194,0.914
		c-0.548,0.655-1.2,1.223-1.806,1.829C22.6,25.458,23.036,24.85,22.683,24.415z"/>
	<path fill-rule="evenodd" clip-rule="evenodd" fill="#00E398" d="M18.46,5.47c-0.284,5.378-0.055,10.76-0.12,16.14
		c-0.005,0.396,0.086,0.794,0.133,1.191c-0.45-0.303-0.422-0.787-0.423-1.229c-0.01-4.982-0.009-9.963-0.002-14.945
		C18.048,6.203,18.053,5.759,18.46,5.47z"/>
	<path fill-rule="evenodd" clip-rule="evenodd" fill="#07E49B" d="M22.683,24.415c0.631,0.374,0.143,0.994,0.323,1.466
		c-0.112,0.109-0.266,0.522-0.331,0.007C22.616,25.405,22.676,24.907,22.683,24.415z"/>
	<path fill-rule="evenodd" clip-rule="evenodd" fill="#242222" d="M53.833,17.66c0.034-1.943,0.948-3.351,2.713-4.279
		c1.078-0.567,1.496-1.612,1.287-2.797c-0.171-0.97-0.977-1.794-1.967-2.011c-1.079-0.236-2.125,0.171-2.749,1.075
		c-0.297,0.43-0.431,0.908-0.47,1.431c-0.061,0.809-0.628,1.369-1.317,1.35c-0.752-0.021-1.258-0.616-1.258-1.477
		c0.004-2.606,2.14-4.81,4.902-5.056c2.481-0.222,4.988,1.726,5.422,4.211c0.383,2.195-0.473,4.32-2.361,5.393
		c-1.077,0.611-1.624,1.345-1.638,2.603c-0.011,1.076-1.104,1.626-1.946,1.076C53.919,18.833,53.78,18.303,53.833,17.66z"/>
	<path fill-rule="evenodd" clip-rule="evenodd" fill="#262323" d="M56.436,21.053c0.007,0.731-0.577,1.359-1.28,1.375
		c-0.669,0.015-1.286-0.575-1.313-1.256c-0.028-0.739,0.609-1.363,1.38-1.35C55.895,19.834,56.429,20.375,56.436,21.053z"/>
	<path fill-rule="evenodd" clip-rule="evenodd" fill="#242222" d="M28.34,10.537c-1.824,0-3.648,0.006-5.473-0.002
		c-0.946-0.004-1.506-0.504-1.493-1.299c0.013-0.757,0.563-1.27,1.459-1.273c3.675-0.013,7.351-0.012,11.026-0.001
		c0.912,0.002,1.528,0.568,1.51,1.321c-0.018,0.77-0.602,1.249-1.557,1.252C31.989,10.542,30.165,10.537,28.34,10.537z"/>
	<path fill-rule="evenodd" clip-rule="evenodd" fill="#242222" d="M28.332,15.402c-1.797,0-3.594,0.005-5.391-0.002
		c-1.017-0.004-1.585-0.488-1.566-1.305c0.017-0.775,0.587-1.267,1.549-1.269c3.621-0.011,7.242-0.011,10.863,0
		c0.979,0.002,1.604,0.553,1.584,1.334c-0.019,0.766-0.598,1.236-1.567,1.24C31.98,15.407,30.156,15.402,28.332,15.402z"/>
	<path fill-rule="evenodd" clip-rule="evenodd" fill="#242222" d="M28.397,17.721c1.796,0,3.593-0.007,5.39,0.003
		c0.979,0.005,1.549,0.462,1.581,1.228c0.034,0.782-0.575,1.34-1.565,1.344c-3.62,0.014-7.24,0.014-10.86,0
		c-1.023-0.004-1.587-0.517-1.568-1.328c0.019-0.805,0.578-1.239,1.633-1.244C24.804,17.715,26.601,17.721,28.397,17.721z"/>
</g>
</svg>
