<?xml version="1.0" encoding="utf-8"?>
<!-- Generator: Adobe Illustrator 16.0.0, SVG Export Plug-In . SVG Version: 6.00 Build 0)  -->
<!DOCTYPE svg PUBLIC "-//W3C//DTD SVG 1.1//EN" "http://www.w3.org/Graphics/SVG/1.1/DTD/svg11.dtd">
<svg version="1.1" id="Layer_1" xmlns="http://www.w3.org/2000/svg" xmlns:xlink="http://www.w3.org/1999/xlink" x="0px" y="0px"
	 width="85px" height="85px" viewBox="0 0 85 85" enable-background="new 0 0 85 85" xml:space="preserve">
<g>
	<path fill="#E03B39" d="M3.295,16.365h78.41v52.271H3.295V16.365z"/>
	<path fill="#E9E4F2" d="M9.83,22.899H42.5v32.669H9.83V22.899z M42.5,22.899h32.67v32.669H42.5V22.899z"/>
	<path fill="#010101" d="M81.705,69.432H3.295c-0.438,0-0.795-0.357-0.795-0.797V16.364c0-0.439,0.355-0.796,0.795-0.796h32.672
		c0.439,0,0.795,0.356,0.795,0.796s-0.355,0.797-0.795,0.797H4.092V67.84h76.816V17.161H49.035c-0.439,0-0.797-0.356-0.797-0.797
		c0-0.439,0.355-0.796,0.797-0.796h32.67c0.439,0,0.795,0.356,0.795,0.796v52.271C82.5,69.074,82.145,69.432,81.705,69.432z
		 M55.568,62.898H29.434c-0.439,0-0.797-0.356-0.797-0.797c0-0.439,0.355-0.795,0.797-0.795h26.135c0.439,0,0.797,0.355,0.797,0.795
		C56.365,62.542,56.008,62.898,55.568,62.898z M75.17,56.363H9.83c-0.439,0-0.797-0.354-0.797-0.795V22.899
		c0-0.439,0.357-0.796,0.797-0.796h65.34c0.439,0,0.795,0.356,0.795,0.796v32.669C75.965,56.009,75.609,56.363,75.17,56.363z
		 M43.297,54.771h31.076V23.695H43.297V54.771z M10.625,54.771h31.08V23.695h-31.08V54.771L10.625,54.771z M65.289,46.562
		L65.289,46.562h-3.186c-0.439,0-0.797-0.354-0.797-0.795s0.355-0.797,0.797-0.797h3.186l0,0c0.682,0,1.322-0.266,1.805-0.746
		c0.482-0.482,0.748-1.125,0.748-1.806c0-0.63-0.256-1.246-0.699-1.693c-0.443-0.441-1.061-0.696-1.688-0.696h-3.352
		c-0.439,0-0.797-0.355-0.797-0.796v-6.534c0-0.438,0.355-0.796,0.797-0.796h6.533c0.439,0,0.795,0.356,0.795,0.796
		c0,0.44-0.355,0.797-0.795,0.797h-5.738v4.941h2.557c1.045,0,2.07,0.424,2.812,1.163c0.74,0.746,1.166,1.771,1.166,2.815
		c0,1.109-0.432,2.15-1.215,2.934C67.438,46.134,66.396,46.562,65.289,46.562z M55.568,46.562h-6.533
		c-0.439,0-0.797-0.354-0.797-0.795s0.355-0.797,0.797-0.797h2.469V33.495h-2.469c-0.439,0-0.797-0.356-0.797-0.797
		c0-0.439,0.355-0.796,0.797-0.796h3.266c0.439,0,0.795,0.356,0.795,0.796v12.272h2.475c0.438,0,0.795,0.356,0.795,0.797
		S56.008,46.562,55.568,46.562z M32.699,46.562c-2.24,0-4.062-1.822-4.062-4.062v-6.535c0-2.24,1.822-4.062,4.062-4.062
		s4.062,1.822,4.062,4.062v6.535C36.762,44.74,34.939,46.562,32.699,46.562z M32.699,33.495c-1.361,0-2.471,1.107-2.471,2.471v6.535
		c0,1.362,1.107,2.47,2.471,2.47s2.471-1.107,2.471-2.47v-6.535C35.17,34.604,34.062,33.495,32.699,33.495z M22.898,46.562
		c-0.439,0-0.795-0.354-0.795-0.795v-5.739h-5.74c-0.32,0-0.611-0.192-0.734-0.49s-0.055-0.641,0.172-0.867l6.535-6.534
		c0.229-0.229,0.57-0.296,0.867-0.173c0.299,0.123,0.492,0.414,0.492,0.734v6.521c0,0.005,0,0.009,0,0.013s0,0.009,0,0.013v6.522
		C23.695,46.208,23.338,46.562,22.898,46.562z M18.285,38.438h3.818v-3.816L18.285,38.438z M43.316,17.161h-1.633
		c-0.439,0-0.797-0.356-0.797-0.797c0-0.439,0.355-0.796,0.797-0.796h1.633c0.439,0,0.797,0.356,0.797,0.796
		C44.113,16.805,43.756,17.161,43.316,17.161z"/>
</g>
</svg>
