<?xml version="1.0" encoding="utf-8"?>
<!-- Generator: Adobe Illustrator 16.0.2, SVG Export Plug-In . SVG Version: 6.00 Build 0)  -->
<!DOCTYPE svg PUBLIC "-//W3C//DTD SVG 1.1 Tiny//EN" "http://www.w3.org/Graphics/SVG/1.1/DTD/svg11-tiny.dtd">
<svg version="1.1" baseProfile="tiny" id="Layer_1" xmlns="http://www.w3.org/2000/svg" xmlns:xlink="http://www.w3.org/1999/xlink"
	 x="0px" y="0px" width="85px" height="85px" viewBox="0 0 85 85" xml:space="preserve">
<g>
	<path fill-rule="evenodd" d="M82.487,43.912c-0.009-1.436-0.479-2.826-0.448-4.279c0.014-0.67-0.329-1.311-0.737-1.861
		c-1.479-1.994-2.953-3.991-4.467-5.958c-0.784-1.02-1.878-1.487-3.165-1.53c-0.752-0.025-1.808,0.336-2.175-0.151
		c-0.385-0.51-0.11-1.508-0.148-2.292c-0.02-0.401,0.075-0.561,0.533-0.632c1.032-0.161,1.753-0.957,1.637-1.929
		c-0.094-0.785,0.203-1.323,0.576-1.931c0.87-1.418,0.896-2.907,0.029-4.324c-0.85-1.388-2.191-2.19-3.778-1.891
		c-1.52,0.286-2.903-0.024-4.325-0.308c-1.284-0.256-2.364,0.061-3.178,1.076c-0.816,1.019-0.955,2.194-0.311,3.323
		c0.587,1.03,0.774,2.086,0.693,3.236c-0.038,0.534,0.004,1.073-0.009,1.609c-0.041,1.758,0.632,3.063,2.336,3.719
		c0.16,0.062,0.366,0.1,0.354,0.301c-0.021,0.316-0.299,0.189-0.464,0.19c-1.271,0.011-2.542,0.016-3.813,0.004
		c-1.424-0.013-2.566,0.537-3.451,1.65c-1.123,1.415-2.293,2.793-3.367,4.244c-0.505,0.682-1.067,0.844-1.888,0.926
		c-2.074,0.208-3.792-0.568-5.462-1.605c-1.221-0.758-2.438-1.522-3.646-2.3c-0.596-0.384-1.024-0.319-1.379,0.336
		c-0.537,0.99-1.09,1.974-1.693,2.925c-0.413,0.653-0.301,1.074,0.361,1.44c1.134,0.627,2.251,1.284,3.373,1.933
		c0.261,0.152,0.495,0.292,0.63,0.627c0.818,2.031,0.832,2.026,3.075,2.026c1.045,0,2.091,0.021,3.135-0.004
		c1.827-0.045,3.661,0.15,5.595-0.171c-0.283,0.797-0.184,1.534-0.156,2.255c0.02,0.539-0.147,0.65-0.66,0.645
		c-2.484-0.028-4.97-0.028-7.454-0.007c-2.32,0.02-4.063,1.758-4.1,4.068c-0.018,1.129-0.033,2.26,0.009,3.388
		c0.02,0.523-0.121,0.758-0.639,0.969c-2.176,0.885-2.799,3.608-1.2,5.319c0.458,0.489,0.461,0.85,0.235,1.389
		c-0.314,0.752-0.567,1.529-0.842,2.297c-0.115,0.322-0.242,0.642-0.532,0.844c-0.957,0.665-1.273,1.579-1.11,2.708
		c0.047,0.331,0.028,0.679,0.002,1.016c-0.058,0.766,0.281,1.062,1.045,1.053c2.4-0.025,4.801-0.009,7.2-0.01
		c1.164-0.001,1.228-0.087,1.254-1.261c0.036-1.672-0.18-3.338,0.648-4.956c0.98-1.914,0.881-1.965,3.031-1.908
		c0.046,0.002,0.092,0.038,0.193,0.081c-0.514,1.054-0.503,2.393-1.396,3.193c-0.951,0.852-1.275,1.779-1.131,2.973
		c0.034,0.279,0.024,0.566,0.002,0.847c-0.063,0.776,0.302,1.049,1.056,1.041c2.429-0.025,4.857-0.007,7.286-0.011
		c1.031-0.001,1.218-0.13,1.137-1.186c-0.174-2.275,0.168-4.416,1.29-6.43c0.209-0.375,0.382-0.529,0.813-0.527
		c3.162,0.019,6.325,0.024,9.487-0.005c0.544-0.005,0.645,0.157,0.638,0.662c-0.027,2.174,0,4.349-0.019,6.522
		c-0.005,0.682,0.271,0.982,0.957,0.97c1.13-0.021,2.26-0.035,3.388,0.004c0.808,0.028,1.107-0.294,1.096-1.097
		c-0.032-2.146-0.014-4.292-0.007-6.438c0.001-0.274-0.122-0.549,0.389-0.646c2.504-0.47,3.672-1.929,3.674-4.474
		C82.496,51.705,82.51,47.809,82.487,43.912z M60.308,40.813c-0.008,0.264-0.137,0.33-0.37,0.324
		c-0.415-0.008-0.832-0.002-1.412-0.002c0.686-0.842,1.263-1.55,1.903-2.338C60.551,39.562,60.326,40.181,60.308,40.813z
		 M74.719,40.666c-0.047-0.367,0.013-0.709,0.135-1.149C75.703,40.318,75.703,40.318,74.719,40.666z"/>
	<path fill-rule="evenodd" d="M39.116,48.826c0.001-0.638-0.272-0.931-0.917-0.923c-0.315,0.004-0.683,0.144-0.922-0.228
		c-0.515-0.795-1.04-1.583-1.627-2.476c0.287,0,0.445,0.002,0.605,0c2.01-0.025,2.857-0.885,2.858-2.908
		c0.001-5.815,0.004-11.63-0.002-17.446c-0.001-1.738-0.934-2.689-2.646-2.69c-10.445-0.005-20.891-0.005-31.336,0
		c-1.669,0.001-2.608,0.955-2.616,2.635c-0.009,2.061-0.002,4.122-0.002,6.183c0,3.867-0.006,7.735,0.003,11.603
		c0.003,1.67,0.951,2.601,2.629,2.624c0.226,0.003,0.451,0,0.837,0c-0.541,0.817-1.027,1.501-1.457,2.22
		c-0.233,0.391-0.507,0.551-0.957,0.497c-0.75-0.089-1.068,0.246-1.065,1.022c0.019,4.743,0.015,9.485,0.003,14.229
		c-0.001,0.649,0.195,1.061,0.908,1.005c0.387-0.029,0.471,0.122,0.462,0.477C3.85,65.524,3.883,66.4,3.859,67.274
		c-0.019,0.677,0.257,0.996,0.948,0.977c0.706-0.021,1.413-0.034,2.117,0.005c0.62,0.034,0.922-0.244,1.094-0.812
		c0.278-0.915,0.639-1.806,0.893-2.727c0.126-0.457,0.348-0.547,0.774-0.546c7.424,0.011,14.85,0.012,22.274-0.002
		c0.446-0.001,0.633,0.136,0.758,0.568c0.272,0.946,0.641,1.863,0.929,2.804c0.159,0.52,0.459,0.726,0.989,0.71
		c0.733-0.022,1.468-0.018,2.202-0.002c0.639,0.014,0.934-0.272,0.924-0.915c-0.014-0.875,0.01-1.751-0.01-2.626
		c-0.009-0.365,0.026-0.579,0.486-0.539c0.657,0.058,0.882-0.326,0.881-0.946C39.109,58.425,39.109,53.626,39.116,48.826z
		 M9.931,47.844c0.538-0.812,1.06-1.568,1.545-2.347c0.187-0.299,0.432-0.3,0.719-0.3c5.751,0.004,11.502,0.006,17.253-0.004
		c0.345-0.001,0.567,0.087,0.757,0.391c0.459,0.739,0.957,1.454,1.492,2.26C24.425,47.844,17.222,47.844,9.931,47.844z"/>
	<path fill-rule="evenodd" fill="#4E955A" d="M72.714,41.69c-0.109-0.421,0.004-0.829,0.066-1.244
		c0.243-1.615-0.45-2.988-1.894-3.714c-0.285-0.144-0.517-0.327-0.745-0.54c-1.361-1.271-3.163-1.337-4.608-0.155
		c-0.292,0.239-0.591,0.405-0.95,0.513c-1.684,0.505-2.618,2.075-2.338,3.796c0.377,2.307,0.704,4.623,1.072,6.932
		c0.076,0.481-0.048,0.66-0.556,0.64c-2.066-0.088-1.922,0.436-1.665-1.781c0.36-3.107,0.695-6.217,1.039-9.327
		c0.045-0.405,0.061-0.814-0.387-1.024c-0.47-0.219-0.739,0.105-0.992,0.417c-0.534,0.657-1.083,1.303-1.582,1.987
		c-0.291,0.4-0.514,0.492-0.802,0.032c-0.015-0.024-0.035-0.044-0.052-0.067c-0.503-0.712-1.468-1.289-1.499-2.082
		c-0.031-0.804,0.954-1.386,1.459-2.091c0.312-0.435,0.667-0.839,1.005-1.255c0.608-0.753,1.395-1.092,2.366-1.089
		c3.953,0.013,7.906,0.012,11.858,0.001c0.974-0.002,1.769,0.343,2.355,1.111c0.941,1.233,1.847,2.496,2.799,3.72
		c0.314,0.405,0.261,0.594-0.186,0.812c-0.658,0.322-1.312,0.666-1.922,1.068c-0.478,0.315-0.729,0.15-1.043-0.228
		c-0.357-0.429-0.575-1.191-1.312-1.001c-0.81,0.209-0.513,1.043-0.643,1.6c-0.172,0.736-0.172,1.51-0.279,2.264
		C73.235,41.301,73.223,41.699,72.714,41.69z"/>
	<path fill-rule="evenodd" fill="#7A4922" d="M66.363,53.334c-3.226,0.072-2.335-0.526-3.625,2.378
		c-0.949,2.139-1.868,4.291-2.77,6.451c-0.199,0.478-0.43,0.694-0.982,0.676c-1.325-0.046-2.653-0.024-3.979-0.01
		c-0.444,0.005-0.696-0.019-0.486-0.588c1.383-3.756,2.716-7.53,4.126-11.275c0.409-1.087,1.311-1.686,2.507-1.692
		c2.372-0.017,4.744,0.007,7.115-0.017c0.511-0.005,0.701,0.14,0.68,0.668c-0.037,0.93-0.032,1.864-0.002,2.795
		c0.017,0.487-0.162,0.645-0.636,0.621C67.663,53.311,67.013,53.334,66.363,53.334z"/>
	<path fill-rule="evenodd" fill="#5B3719" d="M58.063,49.281c-0.838,1.137-1.094,2.393-1.562,3.561
		c-0.151,0.376-0.345,0.52-0.745,0.501c-0.619-0.031-1.242,0.011-1.862-0.015c-0.714-0.028-1.129,0.263-1.411,0.943
		c-1.102,2.653-2.266,5.28-3.379,7.931c-0.189,0.451-0.407,0.65-0.922,0.634c-1.325-0.038-2.653-0.029-3.979-0.004
		c-0.514,0.01-0.726-0.066-0.512-0.646c1.373-3.727,2.708-7.468,4.091-11.189c0.359-0.962,1.129-1.658,2.149-1.688
		C52.598,49.228,55.269,49.281,58.063,49.281z"/>
	<path fill-rule="evenodd" fill="#E32A3C" d="M75.722,53.334c-1.606,0-3.213-0.017-4.819,0.011
		c-0.479,0.007-0.632-0.134-0.619-0.616c0.032-1.184-0.015-2.369,0.021-3.551c0.043-1.43,1.169-2.587,2.594-2.608
		c2.564-0.037,5.129-0.007,7.693-0.02c0.373-0.002,0.561,0.068,0.556,0.503c-0.02,1.916-0.022,3.833,0.003,5.749
		c0.006,0.486-0.211,0.543-0.608,0.538C78.935,53.325,77.328,53.334,75.722,53.334z"/>
	<path fill-rule="evenodd" fill="#E32A3C" d="M74.431,54.689c2.005,0,4.011,0.02,6.016-0.013c0.555-0.009,0.705,0.152,0.706,0.706
		c0.01,2.346-0.977,3.374-3.315,3.374c-3.134,0.001-6.27,0.013-9.403-0.006c-1.648-0.009-2.679-1.497-2.007-2.878
		c0.394-0.811,1.083-1.188,1.989-1.185C70.421,54.695,72.426,54.689,74.431,54.689z"/>
	<path fill-rule="evenodd" fill="#FCC8A5" d="M74.054,45.2c-0.601,0.039-1.302-0.054-2.002,0.128
		c-1.033,0.266-1.813,0.847-2.438,1.695c-0.21,0.285-0.202,0.801-0.596,0.854c-0.608,0.083-1.237,0.026-1.857,0.029
		c-0.169,0.001-0.251-0.089-0.252-0.257c-0.001-0.141-0.006-0.281-0.003-0.423c0.014-0.644-0.198-1.448,0.109-1.885
		c0.298-0.421,1.152-0.107,1.761-0.136c0.297-0.013,0.545-0.118,0.794-0.248c2.369-1.234,4.736-2.472,7.105-3.704
		c0.587-0.306,1.054-0.645,0.468-1.35c-0.226-0.272,0.045-0.34,0.188-0.422c0.733-0.418,1.485-0.804,2.209-1.236
		c0.383-0.229,0.477,0.04,0.633,0.27c1.09,1.604,0.714,3.817-0.849,4.978C77.979,44.494,75.839,45.2,74.054,45.2z"/>
	<path fill-rule="evenodd" fill="#FCC8A5" d="M67.315,23.183c0.48,0,0.96,0.012,1.44-0.003c0.656-0.02,1.369-0.185,1.319,0.891
		c-0.014,0.291,0.297,0.458,0.617,0.464c0.282,0.006,0.566-0.01,0.846,0.017c0.433,0.042,0.669,0.293,0.642,0.734
		c-0.024,0.402-0.267,0.603-0.669,0.607c-0.198,0.001-0.396,0.004-0.593,0.001c-0.641-0.012-0.925,0.319-0.923,0.94
		c0.003,0.96-0.018,1.92,0.009,2.88c0.012,0.423-0.084,0.63-0.553,0.58c-0.335-0.036-0.68-0.036-1.015-0.001
		c-0.753,0.078-1.332,0.042-1.179-1c0.069-0.474-0.34-0.63-0.779-0.701c-1.219-0.197-1.85-0.887-1.896-2.102
		c-0.036-0.931,0.008-1.864-0.018-2.794c-0.012-0.421,0.156-0.532,0.548-0.52C65.847,23.201,66.581,23.184,67.315,23.183z"/>
	<path fill-rule="evenodd" fill="#FCC8A5" d="M51.402,41.133c-1.323,0-2.647-0.02-3.971,0.011c-0.487,0.012-0.796-0.082-0.888-0.618
		c-0.057-0.328-0.208-0.64-0.313-0.959c-0.512-1.55-0.507-1.539,0.961-2.212c0.315-0.145,0.578-0.194,0.861,0.016
		c1.909,1.41,4.121,1.021,6.262,1.05c0.583,0.008,0.8-0.48,1.074-0.848c0.283-0.381,0.456-0.379,0.736,0
		c0.452,0.61,0.927,1.207,1.438,1.769c0.336,0.371,0.236,0.625-0.066,0.923c-0.567,0.56-1.233,0.87-2.037,0.87
		C54.106,41.132,52.755,41.132,51.402,41.133z"/>
	<path fill-rule="evenodd" fill="#794922" d="M73.356,21.234c0.071,0.596-0.255,1.131-0.569,1.669
		c-0.187,0.319-0.4,0.495-0.827,0.358c-0.372-0.12-0.662-0.173-0.645-0.683c0.022-0.64-0.441-0.761-0.981-0.759
		c-1.693,0.008-3.388,0.003-5.081,0.003c-0.981,0-1.822-1.049-1.731-2.159c0.079-0.961,1.04-1.712,2.048-1.552
		c0.833,0.132,1.665,0.292,2.481,0.503c0.691,0.179,1.326,0.038,1.991-0.116C71.769,18.1,73.36,19.397,73.356,21.234z"/>
	<path fill-rule="evenodd" fill="#CCCBC7" d="M67.516,41.133c0.96,0,1.92-0.017,2.88,0.011c0.302,0.008,0.841-0.191,0.867,0.166
		c0.038,0.502,0.115,1.145-0.49,1.493c-1.154,0.666-2.311,1.188-3.729,1.069c-1.487-0.124-1.495-0.028-1.495,1.495
		c0,0.705-0.002,1.411,0,2.117c0.001,0.235,0.017,0.452-0.337,0.433c-0.276-0.016-0.461-0.029-0.518-0.386
		c-0.313-1.978-0.649-3.951-0.992-5.923c-0.065-0.376,0.047-0.489,0.425-0.482C65.256,41.146,66.386,41.133,67.516,41.133z"/>
	<path fill-rule="evenodd" fill="#7A4922" d="M77.072,63.501c-0.001,0.93-0.014,1.858,0.006,2.788
		c0.008,0.41-0.094,0.588-0.558,0.613c-2.16,0.121-2.16,0.137-2.16-2.048c0-1.381,0.011-2.761-0.005-4.141
		c-0.006-0.41,0.094-0.588,0.557-0.613c2.161-0.119,2.16-0.136,2.16,2.049C77.072,62.6,77.072,63.051,77.072,63.501z"/>
	<path fill-rule="evenodd" fill="#E32A3C" d="M45.894,51.771c0-0.845-0.02-1.69,0.004-2.535c0.043-1.516,1.183-2.657,2.71-2.673
		c2.509-0.023,5.018,0.013,7.526-0.021c0.591-0.009,0.601,0.262,0.617,0.708c0.018,0.504-0.112,0.686-0.652,0.675
		c-1.747-0.035-3.495-0.015-5.243-0.013c-2.453,0.001-3.726,0.893-4.581,3.207c-0.085,0.229-0.165,0.459-0.247,0.688
		C45.982,51.795,45.938,51.782,45.894,51.771z"/>
	<path fill-rule="evenodd" fill="#5CA3D8" d="M55.976,66.891c-0.929,0-1.857-0.017-2.785,0.008c-0.4,0.011-0.491-0.122-0.537-0.52
		c-0.164-1.438,0.592-2.355,2.131-2.224c1.341,0.115,2.7,0.042,4.051,0.015c0.462-0.01,0.617,0.108,0.626,0.6
		c0.043,2.121,0.061,2.121-2.05,2.121C56.933,66.891,56.454,66.891,55.976,66.891z"/>
	<path fill-rule="evenodd" fill="#5CA3D8" d="M45.177,66.891c-0.957,0-1.914-0.013-2.871,0.007
		c-0.358,0.007-0.453-0.106-0.496-0.472c-0.174-1.469,0.582-2.396,2.083-2.271c1.369,0.115,2.756,0.038,4.135,0.016
		c0.421-0.006,0.573,0.09,0.588,0.552c0.072,2.169,0.09,2.168-2.088,2.168C46.077,66.891,45.627,66.891,45.177,66.891z"/>
	<path fill-rule="evenodd" fill="#D68D0C" d="M67.491,39.777c-1.152,0-2.306-0.017-3.459,0.008c-0.499,0.01-0.57-0.163-0.417-0.598
		c0.254-0.725,0.737-1.225,1.473-1.365c0.525-0.101,0.909-0.299,1.285-0.686c0.787-0.809,2.003-0.787,2.789,0.027
		c0.34,0.353,0.683,0.635,1.152,0.8c0.249,0.087,0.466,0.31,0.657,0.509c0.298,0.312,0.584,0.738,0.445,1.125
		c-0.139,0.385-0.639,0.16-0.973,0.169C69.461,39.795,68.476,39.777,67.491,39.777z"/>
	<path fill-rule="evenodd" fill="#85292E" d="M59.38,42.488c0.63-0.113,0.771,0.127,0.649,0.842
		c-0.22,1.273-0.332,2.571-0.401,3.863c-0.037,0.707-0.411,0.711-0.941,0.732c-0.605,0.024-0.604-0.312-0.599-0.743
		c0.014-1.158,0.002-2.315,0.005-3.473C58.096,42.61,58.223,42.485,59.38,42.488z"/>
	<path fill-rule="evenodd" fill="#85292E" d="M53.344,58.757c-1.404,0.005-1.346,0.075-0.813-1.114
		c0.322-0.721,0.618-1.452,0.936-2.176c0.289-0.659,1.466-1.076,2.081-0.753c0.264,0.138,0.146,0.327,0.084,0.503
		c-0.371,1.035-0.76,2.063-1.118,3.103C54.281,58.996,53.724,58.673,53.344,58.757z"/>
	<path fill-rule="evenodd" fill="#5BA2D7" d="M46.14,36.277c-0.678,0.671-1.911,0.532-1.957,1.78
		c-0.135-0.059-0.235-0.093-0.327-0.144c-1.905-1.061-1.895-1.056-0.708-2.911c0.211-0.33,0.354-0.422,0.704-0.183
		C44.591,35.322,45.358,35.783,46.14,36.277z"/>
	<path fill-rule="evenodd" fill="#84292D" d="M65.409,54.752c-0.727,1.888-0.727,2.044-0.012,3.93
		c-0.019,0.016-0.037,0.043-0.058,0.044c-2.573,0.241-2.572,0.241-1.541-2.066c0.206-0.461,0.434-0.918,0.59-1.397
		C64.566,54.713,64.891,54.565,65.409,54.752z"/>
	<path fill-rule="evenodd" fill="#82282D" d="M43.77,58.05c-1.064-1.341-0.518-2.885,1.168-3.275
		C44.541,55.887,44.171,56.927,43.77,58.05z"/>
	<path fill-rule="evenodd" fill="#82282D" d="M79.276,45.15c0.721-0.455,1.26-0.875,1.751-1.432
		C81.3,45.267,81.273,45.289,79.276,45.15z"/>
	<path fill-rule="evenodd" fill="#CCCBC7" d="M20.849,23.509c5.14,0,10.279-0.001,15.419,0c1.2,0,1.488,0.291,1.488,1.499
		c0.001,5.79,0.001,11.579,0,17.368c0,1.156-0.303,1.465-1.437,1.467c-2.033,0.005-4.066-0.014-6.1,0.013
		c-0.48,0.006-0.616-0.135-0.608-0.611c0.028-1.722,0.016-3.445,0.01-5.167c-0.006-1.571-0.778-2.362-2.325-2.364
		c-4.321-0.007-8.642-0.006-12.962,0c-1.547,0.002-2.327,0.796-2.333,2.357c-0.007,1.723-0.017,3.445,0.009,5.167
		c0.007,0.468-0.11,0.625-0.601,0.618c-2.09-0.026-4.18-0.004-6.27-0.015c-0.924-0.004-1.271-0.354-1.271-1.287
		c-0.005-5.902-0.005-11.804,0-17.706c0-1.018,0.337-1.336,1.393-1.337C10.456,23.508,15.652,23.509,20.849,23.509z"/>
	<path fill-rule="evenodd" fill="#7A4922" d="M20.852,49.267c5.307,0,10.613,0.021,15.92-0.021c0.848-0.008,1.011,0.248,1.003,1.04
		c-0.042,3.896-0.031,7.791-0.006,11.686c0.004,0.633-0.121,0.87-0.825,0.869c-10.754-0.024-21.509-0.021-32.264-0.006
		c-0.597,0.001-0.837-0.103-0.832-0.776c0.032-4.008,0.032-8.017,0-12.023c-0.005-0.67,0.228-0.783,0.828-0.78
		C10.069,49.275,15.46,49.267,20.852,49.267z"/>
	<path fill-rule="evenodd" fill="#ADACA9" d="M20.725,43.844c-2.229,0-4.458-0.019-6.687,0.014
		c-0.558,0.008-0.696-0.154-0.706-0.702c-0.011-0.589,0.207-0.7,0.728-0.677c0.845,0.037,1.693,0.005,2.539,0.011
		c0.464,0.003,0.791-0.185,0.798-0.667s-0.307-0.69-0.775-0.688c-0.903,0.002-1.809-0.045-2.708,0.014
		c-0.662,0.044-0.535-0.357-0.566-0.742c-0.037-0.449,0.063-0.666,0.583-0.64c0.844,0.043,1.692,0.002,2.539,0.015
		c0.51,0.007,0.941-0.111,0.927-0.709c-0.014-0.542-0.42-0.661-0.898-0.654c-0.818,0.013-1.637,0.017-2.455-0.003
		c-0.286-0.007-0.72,0.195-0.697-0.416c0.018-0.474,0.126-0.84,0.656-0.92c0.166-0.025,0.337-0.012,0.507-0.012
		c4.204,0,8.409-0.001,12.612,0.002c0.303,0,0.622-0.065,0.89,0.168c0.299,0.261,0.293,0.609,0.243,0.939
		c-0.068,0.446-0.45,0.226-0.686,0.234c-0.76,0.029-1.523,0.018-2.285,0.008c-0.502-0.005-1.046-0.005-1.056,0.66
		c-0.01,0.73,0.574,0.704,1.099,0.7c0.818-0.006,1.638,0.03,2.454-0.011c0.641-0.033,0.468,0.395,0.484,0.728
		c0.017,0.338,0.078,0.674-0.479,0.648c-0.901-0.041-1.805-0.004-2.708-0.013c-0.49-0.006-0.866,0.155-0.854,0.695
		c0.011,0.543,0.405,0.673,0.886,0.665c0.847-0.012,1.695,0.036,2.539-0.017c0.567-0.035,0.643,0.203,0.633,0.684
		c-0.01,0.449-0.023,0.711-0.615,0.702C25.353,43.822,23.039,43.844,20.725,43.844z"/>
	<path fill-rule="evenodd" fill="#ACABA8" d="M35.658,47.834c-2.221,0.305-2.53,0.107-3.949-2.517
		C33.72,44.862,34.512,45.366,35.658,47.834z"/>
	<path fill-rule="evenodd" fill="#ACABA8" d="M5.824,47.912c0.278-0.428,0.498-0.689,0.635-0.989
		c0.683-1.49,1.752-2.177,3.502-1.585c-0.521,0.778-1.063,1.604-1.624,2.415c-0.194,0.282-0.519,0.145-0.785,0.154
		C7.027,47.925,6.5,47.912,5.824,47.912z"/>
	<path fill-rule="evenodd" fill="#CCCBC7" d="M5.22,65.509c0-1.329,0-1.329,1.372-1.329c0.224,0,0.449,0.011,0.672-0.002
		c0.333-0.019,0.373,0.135,0.276,0.409c-0.205,0.58-0.45,1.151-0.584,1.748c-0.213,0.944-0.932,0.509-1.428,0.53
		c-0.58,0.025-0.214-0.503-0.296-0.772C5.176,65.914,5.22,65.704,5.22,65.509z"/>
	<path fill-rule="evenodd" fill="#CCCBC7" d="M33.993,64.245c0.126-0.033,0.179-0.059,0.234-0.061
		c2.239-0.098,2.243-0.098,2.168,2.117c-0.007,0.21,0.16,0.601-0.253,0.57c-0.462-0.035-1.096,0.314-1.362-0.262
		C34.435,65.861,34.249,65.038,33.993,64.245z"/>
</g>
</svg>
