<?xml version="1.0" encoding="utf-8"?>
<!-- Generator: Adobe Illustrator 16.0.0, SVG Export Plug-In . SVG Version: 6.00 Build 0)  -->
<!DOCTYPE svg PUBLIC "-//W3C//DTD SVG 1.1//EN" "http://www.w3.org/Graphics/SVG/1.1/DTD/svg11.dtd">
<svg version="1.1" id="Layer_1" xmlns="http://www.w3.org/2000/svg" xmlns:xlink="http://www.w3.org/1999/xlink" x="0px" y="0px"
	 width="85px" height="85px" viewBox="0 0 85 85" enable-background="new 0 0 85 85" xml:space="preserve">
<g>
	<path fill="#010101" d="M41.407,2.5c0.729,0,1.457,0,2.188,0c1.059,0.078,2.02,0.412,2.852,1.086
		c0.314,0.254,0.668,0.238,1.039,0.156c2.547-0.578,4.662,0.23,6.445,2.047c0.256,0.26,0.525,0.381,0.885,0.416
		c3.547,0.348,6.262,3.602,5.959,7.146c-0.035,0.422,0.086,0.76,0.283,1.105c1.717,3.033,1.275,6.092-1.229,8.518
		c-0.193,0.188-0.35,0.379-0.383,0.654c-0.324,2.639-1.85,4.191-4.377,4.836c2.395,1.271,4.58,2.816,6.586,4.66
		c5.312,4.893,9.898,10.391,13.852,16.418c2.111,3.223,4,6.582,5.994,9.877c0.631,1.045,0.898,2.193,1,3.395c0,0.885,0,1.77,0,2.656
		c-0.311,2.992-1.939,5.123-4.389,6.721c-0.457,0.299-0.898,0.625-1.367,0.9c-0.453,0.268-0.535,0.51-0.209,0.982
		c1.365,1.98,1.369,4.027,0.158,6.082c-0.836,1.416-2.094,2.182-3.727,2.344c-20.363,0-40.729,0-61.094,0
		c-3.756-0.438-5.766-5.15-3.455-8.359c0.382-0.531,0.279-0.779-0.225-1.096c-0.925-0.578-1.865-1.148-2.683-1.875
		c-1.667-1.48-2.74-3.299-3.013-5.545c0-0.988,0-1.979,0-2.969c0.086-1.611,0.811-2.979,1.636-4.314
		c2.063-3.346,3.963-6.793,6.179-10.047c2.539-3.727,5.348-7.236,8.412-10.553c1.982-2.146,4.043-4.199,6.283-6.07
		c1.521-1.27,3.197-2.32,4.982-3.207c-2.127-0.465-3.68-1.664-4.223-3.818c-0.238-0.949-0.662-1.658-1.266-2.396
		c-1.967-2.408-2.104-5.182-0.506-7.918c0.162-0.277,0.266-0.549,0.238-0.883c-0.35-4.297,3.145-7.141,6.014-7.252
		c0.336-0.012,0.574-0.166,0.811-0.398c1.799-1.781,3.896-2.645,6.453-2.059c0.369,0.086,0.725,0.102,1.039-0.154
		C39.386,2.912,40.349,2.578,41.407,2.5z"/>
	<path fill="#FCD770" d="M37.341,40.811c-0.365-0.135-0.652-0.236-0.938-0.346c-1.182-0.451-1.182-0.451-1.664,0.746
		c-0.484,1.209-0.482,1.201,0.744,1.691c9.43,3.77,18.861,7.543,28.291,11.312c1.139,0.455,1.842,1.258,1.918,2.504
		c0.072,1.174-0.453,2.072-1.471,2.641c-5.918,3.297-11.711,6.822-17.742,9.906c-5.48,2.801-11.322,4.457-17.443,5.137
		c-1.762,0.195-3.523,0.326-5.293,0.311c-0.469-0.004-0.619,0.129-0.625,0.615c-0.031,2.078-0.047,2.09,2.078,1.994
		c9.053-0.4,17.535-2.807,25.424-7.281c4.877-2.768,9.75-5.537,14.641-8.281c2.145-1.203,3.229-2.998,3-5.445
		c-0.215-2.293-1.58-3.75-3.691-4.588c-5.998-2.385-11.986-4.789-17.979-7.186c-0.145-0.059-0.281-0.123-0.555-0.242
		c1.451-0.58,2.793-1.133,4.146-1.646c0.443-0.17,0.547-0.363,0.33-0.799c-0.289-0.576-0.365-1.432-0.814-1.699
		c-0.334-0.199-1.109,0.342-1.689,0.549c-0.092,0.033-0.191,0.045-0.35,0.082c0-0.822,0.021-1.6-0.008-2.373
		c-0.018-0.467,0.354-0.543,0.627-0.691c2.027-1.121,3.688-2.607,4.717-4.725c0.227-0.465,0.447-0.939,0.592-1.434
		c0.141-0.479,0.301-0.539,0.742-0.297c2.111,1.156,4.018,2.584,5.77,4.23c6.518,6.123,11.879,13.146,16.32,20.891
		c0.814,1.418,1.693,2.801,2.518,4.215c1.852,3.178,1.01,6.926-2.025,9.006c-1.266,0.865-2.455,2.012-3.857,2.455
		c-1.354,0.428-2.939,0.117-4.422,0.121c-2.891,0.004-5.779,0.02-8.67-0.016c-0.592-0.006-0.736,0.154-0.729,0.736
		c0.027,1.875,0.002,1.875,1.861,1.875c3.723,0,7.445,0,11.17,0c1.465,0.002,2.365,0.816,2.449,2.217
		c0.092,1.484-0.879,2.713-2.268,2.863c-0.258,0.029-0.52,0.031-0.779,0.031c-19.451,0.002-38.9-0.021-58.352,0.029
		c-2.272,0.006-3.592-1.924-2.834-3.771c0.27-0.658,0.772-1.094,1.396-1.406c0.709-0.352,1.416-0.707,2.23-1.113
		c-1.676-1.121-3.272-2.18-4.861-3.252c-0.646-0.436-1.315-0.85-1.901-1.357c-2.321-2.006-2.994-5.43-1.452-8.084
		c3.695-6.359,7.4-12.721,12.252-18.309c2.971-3.422,6.018-6.773,9.641-9.537c0.93-0.711,1.945-1.293,2.967-1.861
		c0.4-0.223,0.521-0.092,0.639,0.271c0.863,2.676,2.559,4.682,5.021,6c0.748,0.4,1.059,0.871,0.941,1.705
		C37.286,39.707,37.341,40.227,37.341,40.811z"/>
	<path fill="#F0D0B5" d="M51.542,25.18c-0.066,1.223,0.105,2.707-0.104,4.188c-0.312,2.23-1.391,3.996-3.209,5.305
		c-0.504,0.361-1.043,0.682-1.588,0.98c-1.088,0.598-1.602,1.506-1.584,2.74c0.014,0.988,0.006,1.979,0,2.967
		c0,0.201,0.078,0.488-0.154,0.561c-1.086,0.336-2.006,1.271-3.346,0.631c-1.578-0.754-1.615-0.674-1.615-2.404
		c0-0.6-0.006-1.197,0-1.795c0.01-1.201-0.496-2.088-1.551-2.68c-0.748-0.418-1.498-0.838-2.15-1.4
		c-1.818-1.568-2.738-3.572-2.773-5.955c-0.039-2.732-0.018-5.465-0.006-8.199c0.006-1.418,0.756-2.211,2.191-2.111
		c0.975,0.066,1.461-0.273,1.779-1.143c0.287-0.789,0.799-1.387,1.752-1.426c0.98-0.039,1.473,0.547,1.92,1.316
		c1.451,2.498,3.676,3.732,6.539,3.832c0.963,0.035,1.926-0.002,2.889,0.01c1.188,0.012,1-0.158,1.01,1.047
		C51.552,22.734,51.542,23.828,51.542,25.18z"/>
	<path fill="#666E79" d="M51.233,17.961c-1.406,0-2.74,0.098-4.059-0.023c-1.736-0.158-3.033-1.076-3.91-2.625
		c-1.488-2.629-4.473-3.404-6.652-1.527c-1.08,0.928-2.068,1.811-3.459,2.207c-0.395,0.113-0.844,0.438-1.033,0.791
		c-0.512,0.963-1.309,1.229-2.311,1.342c-1.188,0.133-2.139,0.803-2.871,1.727c-0.4,0.504-0.545,0.326-0.77-0.117
		c-0.75-1.484-0.512-3.215,0.707-4.465c0.391-0.4,0.52-0.73,0.342-1.295c-0.873-2.77,1.498-5.41,4.236-4.932
		c0.549,0.096,0.893-0.055,1.193-0.572c1.211-2.084,3.381-2.668,5.482-1.469c0.537,0.309,0.793,0.279,1.189-0.229
		c1.752-2.258,4.619-2.246,6.381,0.018c0.361,0.465,0.609,0.531,1.123,0.238c2.154-1.229,4.256-0.67,5.543,1.469
		c0.289,0.48,0.613,0.645,1.131,0.547c2.744-0.51,5.211,2.141,4.26,5.033c-0.174,0.527,0.006,0.805,0.338,1.152
		c1.395,1.455,1.537,3.309,0.414,4.99c-0.316-0.107-0.455-0.412-0.664-0.631c-0.9-0.947-2.004-1.49-3.293-1.592
		c-0.459-0.035-0.584-0.207-0.719-0.605c-0.85-2.551-2.643-4.035-5.268-4.539c-0.602-0.115-1.055-0.061-0.91,0.738
		c0.01,0.051,0.002,0.104,0.002,0.156c0.006,0.494-0.113,1.037,0.053,1.469c0.184,0.477,0.822,0.232,1.238,0.418
		C50.009,16.107,50.839,16.762,51.233,17.961z"/>
	<path fill="#EECEB4" d="M30.896,23.148c0,0.699-0.016,1.4,0.006,2.1c0.014,0.408-0.146,0.465-0.516,0.41
		c-1.133-0.174-2.109-1.348-2.086-2.551c0.025-1.184,1-2.34,2.08-2.482c0.342-0.045,0.539,0.004,0.523,0.424
		C30.876,21.748,30.896,22.447,30.896,23.148z"/>
	<path fill="#EECEB4" d="M56.7,23.17c-0.016,1.148-0.918,2.252-1.994,2.473c-0.406,0.082-0.623,0.059-0.609-0.457
		c0.029-1.348,0.033-2.697-0.002-4.043c-0.016-0.566,0.248-0.59,0.664-0.492C55.847,20.902,56.716,22.033,56.7,23.17z"/>
	<path fill="#010101" d="M56.29,56.967c-2.449-0.926-4.795-1.822-7.148-2.689c-0.465-0.17-0.721-0.305-0.426-0.855
		c0.301-0.561,0.271-1.486,0.793-1.682c0.445-0.164,1.143,0.34,1.723,0.555c1.869,0.695,3.729,1.408,5.604,2.084
		c1.104,0.398,1.922,1.031,2.07,2.271c0.154,1.309-0.521,2.137-1.586,2.787c-4.537,2.77-9.064,5.557-13.58,8.365
		c-0.477,0.297-0.684,0.232-0.92-0.23c-0.279-0.551-0.926-1.131-0.842-1.596c0.098-0.547,0.969-0.748,1.512-1.084
		c4.08-2.527,8.17-5.037,12.258-7.553C55.897,57.246,56.04,57.141,56.29,56.967z"/>
	<path fill="#010101" d="M7.657,64.01c0-0.717,0.191-1.389,0.556-1.998c1.94-3.252,3.901-6.492,5.831-9.754
		c0.232-0.391,0.404-0.346,0.705-0.135c0.551,0.385,1.457,0.551,1.611,1.117c0.143,0.518-0.543,1.111-0.875,1.666
		c-1.607,2.697-3.229,5.387-4.839,8.082c-0.653,1.092-0.495,1.791,0.567,2.502c3.17,2.121,6.34,4.248,9.529,6.342
		c0.459,0.299,0.557,0.508,0.189,0.932c-0.422,0.482-0.6,1.395-1.162,1.461c-0.477,0.055-1.035-0.596-1.553-0.939
		c-2.873-1.916-5.746-3.83-8.612-5.756C8.29,66.645,7.647,65.457,7.657,64.01z"/>
	<path fill="#010101" d="M42.501,56.725c0,1.264-0.002,1.291-1.264,1.236c-4.279-0.184-8.199-1.479-11.75-3.871
		c-1.596-1.074-3.152-2.205-4.752-3.271c-1.484-0.99-3.078-1.738-4.9-1.828c-0.465-0.021-0.666-0.178-0.594-0.654
		c0.031-0.205,0.006-0.416,0.006-0.625c0-1.48,0.031-1.492,1.52-1.262c2.209,0.342,4.133,1.326,5.953,2.564
		c1.869,1.27,3.65,2.672,5.625,3.785c2.736,1.545,5.666,2.412,8.812,2.539C42.501,55.395,42.501,55.398,42.501,56.725z"/>
	<path fill="#0B0903" d="M56.714,73.488c0,1.289,0,1.289-1.312,1.289c-1.316,0-1.316,0-1.316-1.291c0-1.305,0-1.305,1.281-1.305
		c0.025,0,0.051,0,0.076,0C56.714,72.184,56.714,72.184,56.714,73.488z"/>
	<path fill="#020201" d="M42.448,33.469c-2.076-0.057-3.641-1.002-4.725-2.785c-0.209-0.346-0.275-0.598,0.201-0.744
		c0.172-0.055,0.324-0.162,0.486-0.244c0.395-0.197,0.775-0.514,1.188-0.561c0.516-0.059,0.531,0.588,0.824,0.881
		c1.264,1.266,3.432,1.127,4.406-0.389c0.361-0.564,0.645-0.588,1.131-0.258c0.234,0.16,0.508,0.258,0.762,0.385
		c0.875,0.439,0.887,0.447,0.35,1.244C45.974,32.625,44.433,33.441,42.448,33.469z"/>
	<path fill="#040303" d="M38.61,23.168c-0.01,0.736-0.559,1.264-1.297,1.25c-0.732-0.012-1.258-0.562-1.244-1.303
		c0.014-0.742,0.553-1.26,1.297-1.248C38.103,21.881,38.62,22.424,38.61,23.168z"/>
	<path fill="#040303" d="M46.392,23.125c0.01-0.742,0.543-1.264,1.285-1.256c0.738,0.008,1.262,0.545,1.256,1.291
		c-0.006,0.732-0.555,1.268-1.289,1.26C46.909,24.41,46.38,23.865,46.392,23.125z"/>
</g>
</svg>
