<?xml version="1.0" encoding="utf-8"?>
<!-- Generator: Adobe Illustrator 16.0.2, SVG Export Plug-In . SVG Version: 6.00 Build 0)  -->
<!DOCTYPE svg PUBLIC "-//W3C//DTD SVG 1.1 Tiny//EN" "http://www.w3.org/Graphics/SVG/1.1/DTD/svg11-tiny.dtd">
<svg version="1.1" baseProfile="tiny" id="Layer_1" xmlns="http://www.w3.org/2000/svg" xmlns:xlink="http://www.w3.org/1999/xlink"
	 x="0px" y="0px" width="85px" height="85px" viewBox="0 0 85 85" xml:space="preserve">
<g>
	<path fill-rule="evenodd" d="M71.992,52.773c-1.307-0.178-2.89-0.379-4.467-0.612c-1.367-0.202-1.783,0.014-2.311,1.29
		c-0.567,1.371-1.122,2.748-1.706,4.111c-0.911,2.123-3.084,2.706-4.928,1.317c-1.212-0.91-2.397-1.854-3.6-2.776
		c-0.982-0.752-1.458-0.741-2.452,0.027c-1.177,0.911-2.347,1.83-3.533,2.728c-1.871,1.418-4.071,0.829-4.986-1.333
		c-0.515-1.218-0.997-2.448-1.505-3.669c-0.496-1.194-1.204-1.476-2.382-0.935c-2.942,1.351-5.884,2.704-8.82,4.07
		c-0.865,0.402-1.71,0.478-2.554-0.025c-1.159-0.691-1.541-1.99-0.936-3.32c1.329-2.923,2.68-5.837,4.024-8.754
		c0.647-1.406,0.392-2.063-1.043-2.65c-1.174-0.48-2.357-0.938-3.522-1.437c-2.117-0.906-2.695-3.096-1.305-4.937
		c0.93-1.229,1.89-2.437,2.829-3.661c0.664-0.865,0.67-1.398,0.012-2.26c-0.935-1.227-1.896-2.434-2.829-3.662
		c-1.418-1.873-0.827-4.051,1.347-4.972c1.367-0.579,2.743-1.136,4.114-1.703c1.22-0.505,1.442-0.938,1.246-2.265
		c-0.214-1.444-0.438-2.89-0.582-4.342c-0.241-2.429,1.333-3.929,3.749-3.614c1.368,0.179,2.733,0.376,4.098,0.577
		c1.464,0.215,1.862-0.002,2.422-1.367c0.542-1.323,1.073-2.652,1.627-3.97c0.929-2.203,3.127-2.778,5.038-1.323
		c1.185,0.901,2.355,1.819,3.533,2.729c0.952,0.734,1.449,0.741,2.389,0.018c1.201-0.923,2.391-1.862,3.597-2.779
		c1.867-1.42,4.058-0.835,4.975,1.334c0.601,1.417,1.16,2.849,1.751,4.27c0.403,0.971,0.834,1.248,1.887,1.127
		c1.424-0.164,2.846-0.355,4.262-0.578c2.743-0.433,4.417,1.226,3.99,3.955c-0.226,1.442-0.42,2.892-0.583,4.342
		c-0.114,1.003,0.17,1.44,1.1,1.826c1.396,0.58,2.802,1.128,4.196,1.709c2.304,0.962,2.876,3.141,1.356,5.131
		c-0.87,1.139-1.752,2.27-2.628,3.406c-0.812,1.052-0.814,1.479-0.021,2.512c0.909,1.179,1.828,2.348,2.728,3.534
		c1.416,1.869,0.833,4.071-1.329,4.987c-1.416,0.601-2.851,1.158-4.271,1.745c-0.981,0.406-1.252,0.821-1.128,1.883
		c0.171,1.477,0.385,2.949,0.601,4.421C75.773,51.163,74.415,52.847,71.992,52.773z"/>
	<path fill-rule="evenodd" fill="#72C1E8" d="M4.329,65.981c0.475-0.269,0.656-0.849,1.155-1.09
		c0.669-0.095,1.297-0.297,1.912-0.591c0.636-0.303,1.333-0.425,2.047-0.426c2.808-0.001,5.617-0.009,8.425,0.005
		c1.136,0.003,1.295,0.177,1.312,1.329c0.009,0.729,0.025,1.459-0.01,2.188c-0.039,0.808-0.222,1-1.033,1.021
		c-1.377,0.037-2.755,0.009-4.132,0.014c-0.271,0.001-0.541-0.008-0.811,0.008c-0.326,0.02-0.688,0.024-0.82,0.394
		c-0.141,0.396,0.204,0.564,0.457,0.758c0.592,0.638,1.412,0.978,2.049,1.561c0.14,0.504,0.089,1.021,0.091,1.532
		c0.004,2.595,0.007,5.19-0.003,7.784c-0.002,0.421,0.086,0.879-0.285,1.22c-3.453-0.001-6.906-0.003-10.358-0.003
		c-0.351-0.351-0.264-0.804-0.264-1.225c-0.01-3.127-0.021-6.253,0.005-9.381c0.006-0.763-0.099-1.439-0.691-1.969
		c0.106-0.527,0.212-1.055,0.318-1.582C4.732,67.001,4.738,66.986,4.329,65.981z"/>
	<path fill-rule="evenodd" d="M12.923,69.827c-0.575-0.072-1.027-0.318-0.933-0.969c0.086-0.603,0.572-0.692,1.109-0.687
		c1.729,0.015,3.459-0.008,5.189,0.015c0.447,0.006,0.624-0.108,0.607-0.584c-0.032-0.972-0.022-1.944-0.003-2.917
		c0.007-0.389-0.057-0.59-0.521-0.584c-3.108,0.02-6.217,0.004-9.326,0.028c-0.795,0.007-1.546,0.277-2.21,0.709
		c-0.464,0.302-0.888,0.342-1.35,0.053C5.136,64.221,5.378,63.785,6,63.433c1.083-0.614,2.226-0.952,3.474-0.949
		c2.87,0.004,5.74-0.017,8.609,0.015c0.61,0.007,0.839-0.113,0.82-0.784c-0.052-1.758-0.03-3.52-0.014-5.279
		c0.016-1.932,1.286-3.263,3.071-3.248c1.753,0.014,2.99,1.336,3.014,3.225c0.006,0.434-0.016,0.868,0.005,1.3
		c0.029,0.604-0.196,0.992-0.827,1.08c-0.748,0.124-0.921-0.402-1.027-0.948c-0.092-0.478-0.019-0.971-0.051-1.456
		c-0.058-0.835-0.475-1.277-1.172-1.254c-0.657,0.022-1.066,0.452-1.084,1.258c-0.042,1.997-0.012,3.994-0.015,5.993
		c-0.003,1.457-0.019,2.916,0.009,4.373c0.009,0.457-0.237,1.097,0.591,1.177c0.833,0.08,1.522-0.355,1.64-1.098
		c0.101-0.641,0.018-1.294,0.054-1.94c0.024-0.443,0.118-0.858,0.466-1.169c0.17-0.152,0.359-0.242,0.587-0.114
		c0.609,0.111,0.855,0.479,0.83,1.092c-0.026,0.677,0.006,1.354-0.01,2.03c-0.043,1.772-1.323,3.038-3.112,3.057
		c-1.625,0.02-3.25,0.029-4.874-0.008c-0.537-0.013-0.664,0.144-0.661,0.667c0.023,3.656,0.009,7.313,0.016,10.968
		c0.001,0.5-0.084,0.95-0.649,1.059c-0.6,0.115-0.901-0.234-1.006-0.79c-0.001-3.578-0.002-7.154-0.003-10.733
		c-0.166-0.631-0.492-1.039-1.229-0.946C13.27,70.029,13.093,69.911,12.923,69.827z"/>
	<path fill-rule="evenodd" d="M16.334,56.061c0,0.947,0.017,1.896-0.004,2.841c-0.027,1.295-0.845,2.092-2.129,2.175
		c-2.648,0.168-5.022-0.374-6.705-2.622c-1.563-2.087-1.791-4.449-1.04-6.857c0.725-2.324,3.15-3.648,5.596-3.264
		c2.38,0.375,4.188,2.394,4.271,4.806c0.034,0.973,0.005,1.949,0.005,2.922C16.33,56.061,16.333,56.061,16.334,56.061z"/>
	<path fill-rule="evenodd" fill="#FEB59E" d="M24.15,63.612c-0.594,0.149-0.82,0.545-0.806,1.139
		c0.018,0.703,0.037,1.41-0.017,2.109c-0.079,1.047-1.841,1.862-2.687,1.272c-0.193-0.135-0.126-0.342-0.127-0.521
		c-0.003-3.76-0.01-7.521,0.005-11.281c0.004-0.949,0.582-1.522,1.428-1.514c0.84,0.01,1.372,0.592,1.398,1.548
		c0.012,0.433,0.016,0.866,0,1.299c-0.02,0.589,0.191,0.997,0.805,1.127c-0.001,0.522-0.001,1.047-0.001,1.569
		c-0.671,0.847-0.671,0.847,0.001,1.682C24.15,62.565,24.15,63.089,24.15,63.612z"/>
	<path fill-rule="evenodd" d="M16.381,45.452c0.074-0.231,0.139-0.438,0.206-0.642c1.218-3.71,2.437-7.421,3.655-11.131
		c0.042-0.128,0.092-0.253,0.137-0.38c0.181-0.501,0.511-0.782,1.052-0.586c0.521,0.189,0.645,0.585,0.471,1.112
		c-0.755,2.276-1.496,4.556-2.245,6.833c-0.555,1.688-1.113,3.375-1.67,5.063c-0.157,0.475-0.476,0.737-0.979,0.619
		C16.556,46.232,16.361,45.891,16.381,45.452z"/>
	<path fill-rule="evenodd" d="M42.15,69.019c-1.707-0.335-3.509-0.687-5.311-1.042c-2.146-0.426-4.291-0.854-6.436-1.281
		c-0.158-0.033-0.318-0.071-0.47-0.124c-0.447-0.156-0.666-0.483-0.555-0.941c0.11-0.453,0.457-0.7,0.915-0.61
		c4.082,0.798,8.161,1.61,12.238,2.428c0.488,0.099,0.765,0.426,0.675,0.938C43.117,68.903,42.748,69.082,42.15,69.019z"/>
	<path fill-rule="evenodd" fill="#000101" d="M3.375,69.109c0.809,0.037,0.922,0.571,0.921,1.233
		c-0.009,3.484-0.005,6.969-0.002,10.453c0,0.295,0.02,0.592,0.032,0.888c-0.146,0.516-0.409,0.912-1.018,0.796
		c-0.626-0.117-0.646-0.617-0.645-1.128c0.006-3.692,0.008-7.385-0.002-11.076C2.66,69.721,2.722,69.243,3.375,69.109z"/>
	<path fill-rule="evenodd" fill="#070605" d="M24.151,62.042c-0.443-0.086-0.762-0.338-0.784-0.794
		c-0.023-0.507,0.323-0.765,0.782-0.888c0.459,0.103,0.817,0.309,0.815,0.847C24.964,61.741,24.628,61.965,24.151,62.042z"/>
	<path fill-rule="evenodd" fill="#060607" d="M4.329,65.981c0.438,0.239,0.619,0.61,0.445,1.075
		c-0.184,0.498-0.627,0.527-1.082,0.471c-0.332-0.3-0.63-0.619-0.379-1.112C3.527,65.995,3.879,65.866,4.329,65.981z"/>
	<path fill-rule="evenodd" fill="#FB5D3D" d="M71.999,51.137c-1.303-0.176-2.806-0.356-4.304-0.587
		c-2.003-0.308-3.177,0.335-3.964,2.232c-0.569,1.372-1.124,2.751-1.708,4.118c-0.498,1.168-1.458,1.431-2.473,0.669
		c-1.19-0.894-2.357-1.818-3.538-2.725c-1.604-1.231-2.899-1.225-4.485,0.008c-1.133,0.879-2.267,1.758-3.407,2.627
		c-1.165,0.888-2.104,0.629-2.673-0.735c-0.509-1.223-0.987-2.457-1.508-3.675c-0.783-1.837-2.515-2.519-4.339-1.689
		c-2.928,1.33-5.844,2.688-8.763,4.037c-0.477,0.22-0.956,0.473-1.42,0.013c-0.465-0.46-0.216-0.941,0.004-1.417
		c1.305-2.821,2.606-5.644,3.908-8.466c1.015-2.201,0.376-3.854-1.849-4.772c-1.123-0.463-2.253-0.912-3.376-1.377
		c-1.364-0.563-1.629-1.504-0.744-2.668c0.885-1.163,1.788-2.312,2.677-3.473c1.17-1.528,1.176-2.829,0.012-4.357
		c-0.902-1.184-1.828-2.35-2.726-3.537c-0.831-1.099-0.576-2.049,0.687-2.577c1.396-0.584,2.8-1.145,4.196-1.729
		c1.718-0.719,2.384-1.966,2.103-3.822c-0.219-1.443-0.428-2.89-0.583-4.342c-0.154-1.444,0.518-2.069,1.965-1.881
		c1.395,0.181,2.787,0.384,4.178,0.586c2.002,0.292,3.18-0.377,3.956-2.263c0.557-1.349,1.099-2.704,1.667-4.047
		c0.532-1.257,1.485-1.5,2.586-0.665c1.143,0.867,2.275,1.748,3.409,2.625c1.667,1.291,2.922,1.285,4.61-0.021
		c1.135-0.878,2.265-1.761,3.408-2.626c1.057-0.801,2.014-0.556,2.527,0.653c0.592,1.393,1.152,2.798,1.735,4.194
		c0.72,1.725,1.843,2.393,3.709,2.168c1.369-0.165,2.735-0.363,4.098-0.571c1.801-0.276,2.497,0.42,2.222,2.213
		c-0.212,1.363-0.403,2.729-0.568,4.098c-0.229,1.902,0.446,3.01,2.232,3.747c1.373,0.567,2.753,1.121,4.12,1.704
		c1.217,0.519,1.467,1.468,0.668,2.525c-0.913,1.21-1.854,2.398-2.775,3.602c-1.131,1.476-1.124,2.81,0.014,4.289
		c0.876,1.137,1.756,2.269,2.63,3.406c0.994,1.294,0.75,2.172-0.781,2.809c-1.273,0.529-2.547,1.052-3.821,1.578
		c-1.925,0.795-2.567,1.953-2.262,4.03c0.213,1.444,0.434,2.889,0.593,4.341C73.975,50.559,73.346,51.19,71.999,51.137z"/>
	<path fill-rule="evenodd" fill="#C4E4FD" d="M5.931,71.716c0-0.785,0.011-1.569-0.003-2.354c-0.011-0.55,0.301-0.811,0.785-0.832
		c0.469-0.021,0.806,0.313,0.816,0.741c0.038,1.677,0.04,3.355-0.005,5.033C7.51,74.797,7.104,75.048,6.6,75
		c-0.5-0.047-0.673-0.383-0.67-0.849C5.935,73.34,5.931,72.527,5.931,71.716z"/>
	<path fill-rule="evenodd" fill="#C3E4FD" d="M5.947,77.979c0-0.216-0.026-0.436,0.006-0.646c0.055-0.353,0.275-0.602,0.627-0.655
		c0.35-0.055,0.659,0.107,0.804,0.424c0.268,0.587,0.299,1.212-0.01,1.788C7.19,79.235,6.806,79.314,6.447,79.2
		C5.823,79.005,5.936,78.458,5.947,77.979z"/>
	<path fill-rule="evenodd" fill="#4BA4C7" d="M12.923,69.827c0.243-0.009,0.486-0.022,0.729-0.023
		c1.095-0.003,1.095-0.002,1.028,1.149C13.823,71.001,13.388,70.392,12.923,69.827z"/>
	<path fill-rule="evenodd" fill="#FEB59E" d="M14.709,55.904c0,0.947-0.001,1.892,0.002,2.838c0.001,0.354-0.052,0.663-0.49,0.695
		c-2.109,0.155-4.072-0.125-5.444-1.974c-1.205-1.624-1.34-3.463-0.792-5.323c0.448-1.518,2.12-2.462,3.636-2.243
		c1.72,0.247,2.993,1.567,3.074,3.249c0.044,0.918,0.007,1.839,0.007,2.758C14.706,55.904,14.708,55.904,14.709,55.904z"/>
	<path fill-rule="evenodd" fill="#B15035" d="M53.103,50.648c-1.097-0.105-2.218-0.106-3.215-0.669
		c-1.837-1.037-2.504-2.677-2.333-4.703c0.064-0.776,0.23-1.543,0.344-2.315c0.26-1.778,1.141-3.119,2.845-3.928
		c-1.473-0.763-2.523-1.803-2.816-3.417c-0.134-0.739-0.183-1.498-0.216-2.25c-0.127-2.884-0.214-5.771-0.352-8.655
		c-0.134-2.799-0.328-5.597-0.469-8.396c-0.132-2.625,2.244-4.89,4.688-4.708c1.508,0.113,3.031,0.058,4.546,0.013
		c2.642-0.079,4.802,2.3,4.527,5c-0.14,1.372-0.122,2.744-0.235,4.115c-0.234,2.848-0.252,5.713-0.381,8.57
		c-0.086,1.939-0.162,3.88-0.334,5.812c-0.156,1.784-1.147,3.042-2.811,3.872c0.545,0.558,1.281,0.832,1.753,1.466
		c1.049,1.416,0.995,3.088,1.293,4.69c0.285,1.538-0.154,2.8-1.167,3.944c-1.042,1.179-2.424,1.424-3.874,1.531
		c-0.188,0.014-0.377,0.014-0.567,0.02C53.921,50.938,53.513,50.932,53.103,50.648z"/>
	<path fill-rule="evenodd" fill="#FECAC2" d="M53.103,50.648c0.409-0.002,0.817-0.004,1.226-0.007
		c2.207,0.279,3.8,1.694,5.497,3.055c0.369-0.893,0.707-1.712,1.048-2.531c1.17-2.818,4.021-4.378,7.028-3.857
		c0.558,0.097,1.126,0.139,1.685,0.236c0.597,0.105,0.78-0.119,0.673-0.698c-0.171-0.93-0.339-1.863-0.32-2.814
		c0.054-2.701,1.338-4.61,3.755-5.768c0.682-0.326,1.389-0.606,2.097-0.871c0.476-0.178,0.599-0.356,0.22-0.788
		c-0.481-0.547-0.914-1.139-1.341-1.731c-1.794-2.496-1.716-5.443,0.193-7.888c0.382-0.49,0.736-1.007,1.15-1.468
		c0.392-0.436,0.249-0.603-0.233-0.771c-0.586-0.205-1.147-0.479-1.723-0.715c-2.988-1.234-4.503-3.858-4.071-7.066
		c0.148-1.097,0.318-2.191,0.459-3.289c0.074-0.558,0.313-0.947,0.923-0.898c0.645,0.052,0.765,0.525,0.697,1.063
		c-0.126,1.018-0.247,2.037-0.42,3.048c-0.451,2.639,0.604,4.601,3.085,5.662c0.994,0.424,2.001,0.818,2.992,1.252
		c0.91,0.4,1.017,0.826,0.415,1.624c-0.618,0.82-1.25,1.631-1.892,2.435c-1.631,2.048-1.66,4.255-0.073,6.314
		c0.676,0.878,1.367,1.748,2.022,2.641c0.532,0.724,0.402,1.141-0.433,1.5c-0.993,0.427-1.99,0.848-2.992,1.252
		c-2.454,0.989-3.576,3.017-3.131,5.638c0.162,0.958,0.294,1.921,0.413,2.886c0.125,1.031-0.163,1.339-1.223,1.236
		c-1.021-0.1-2.038-0.244-3.049-0.415c-2.361-0.399-4.386,0.639-5.368,2.821c-0.476,1.061-0.893,2.146-1.343,3.219
		c-0.415,0.987-0.863,1.091-1.721,0.423c-0.918-0.715-1.823-1.446-2.768-2.123c-1.654-1.186-3.406-1.281-5.183-0.296
		c-0.518,0.286-1.006,0.438-1.337-0.118c-0.348-0.58-0.005-0.99,0.535-1.312C51.378,51.062,52.255,50.905,53.103,50.648z"/>
	<path fill-rule="evenodd" fill="#FEC9C0" d="M48.947,54.361c-0.01,0.499-1.112,1.497-1.604,1.44
		c-0.481-0.056-0.784-0.35-0.774-0.86c0.01-0.49,1.12-1.414,1.628-1.357C48.669,53.636,48.873,53.963,48.947,54.361z"/>
	<path fill-rule="evenodd" fill="#EEEEEE" d="M49.861,30.458c-0.016-0.523-0.031-1.047-0.047-1.569
		c0.685-0.871,0.685-0.871-0.116-1.681c-0.016-0.522-0.031-1.044-0.047-1.567c0.449-0.626,0.472-1.309,0.435-2.067
		c-0.109-2.213-0.177-4.428-0.352-6.638c-0.021-0.269-0.014-0.542,0.022-0.81c0.132-0.996,0.778-1.613,1.791-1.636
		c1.461-0.034,2.923-0.042,4.382,0.002c1.267,0.037,1.976,0.847,1.893,2.124c-0.199,3.074-0.309,6.152-0.479,9.227
		c-0.161,2.912-0.25,5.829-0.473,8.738c-0.088,1.151-0.727,1.797-1.856,1.831c-0.865,0.025-1.731,0.035-2.597-0.006
		c-1.03-0.048-1.599-0.578-1.691-1.606c-0.065-0.726-0.232-1.447-0.183-2.18C50.599,31.802,50.446,31.066,49.861,30.458z"/>
	<path fill-rule="evenodd" d="M49.861,30.458c0.653,0.093,0.892,0.502,0.912,1.128c0.033,1.053,0.091,2.107,0.158,3.158
		c0.06,0.925,0.572,1.432,1.499,1.459c0.892,0.027,1.785,0.027,2.677,0c0.954-0.029,1.476-0.561,1.524-1.531
		c0.28-5.535,0.554-11.07,0.831-16.606c0.024-0.512,0.069-1.024,0.098-1.538c0.064-1.227-0.479-1.832-1.692-1.843
		c-1.325-0.013-2.65-0.006-3.975-0.002c-1.461,0.003-1.969,0.514-1.899,1.954c0.125,2.564,0.261,5.129,0.413,7.693
		c0.036,0.626-0.035,1.143-0.756,1.309c-0.59-0.058-0.824-0.394-0.854-0.976c-0.135-2.755-0.323-5.508-0.432-8.265
		c-0.079-2.017,1.219-3.313,3.236-3.329c1.489-0.011,2.979-0.016,4.467,0.002c1.839,0.024,3.207,1.375,3.124,3.215
		c-0.205,4.594-0.479,9.184-0.72,13.775c-0.079,1.513-0.153,3.027-0.21,4.541c-0.075,2.001-1.287,3.202-3.292,3.222
		c-0.921,0.009-1.842,0.021-2.762-0.012c-1.543-0.054-2.776-1.234-2.887-2.765c-0.083-1.133-0.103-2.271-0.184-3.403
		C49.099,31.056,49.266,30.639,49.861,30.458z"/>
	<path fill-rule="evenodd" d="M53.809,40.212c3.306,0,3.986,0.577,4.481,3.841c0.137,0.899,0.435,1.784,0.167,2.721
		c-0.357,1.253-1.278,2.107-2.569,2.26c-1.346,0.157-2.7,0.157-4.046,0.015c-1.903-0.203-3.043-1.639-2.822-3.541
		c0.105-0.91,0.258-1.817,0.43-2.718c0.301-1.578,1.477-2.554,3.061-2.576C52.942,40.208,53.375,40.212,53.809,40.212z"/>
	<path fill-rule="evenodd" fill="#070504" d="M49.698,27.207c0.47,0.07,0.837,0.3,0.873,0.793c0.037,0.497-0.283,0.778-0.757,0.888
		c-0.434-0.043-0.756-0.224-0.827-0.695C48.903,27.634,49.242,27.377,49.698,27.207z"/>
	<path fill-rule="evenodd" fill="#EEEEEE" d="M53.713,47.44c-0.595,0-1.193,0.049-1.781-0.012c-0.863-0.089-1.376-0.688-1.297-1.55
		c0.088-0.966,0.243-1.929,0.425-2.881c0.146-0.758,0.657-1.155,1.438-1.163c0.838-0.009,1.677-0.008,2.515-0.002
		c0.813,0.006,1.337,0.4,1.484,1.205c0.169,0.929,0.328,1.863,0.431,2.802c0.092,0.829-0.436,1.494-1.271,1.582
		c-0.642,0.067-1.295,0.014-1.942,0.014C53.713,47.437,53.713,47.438,53.713,47.44z"/>
</g>
</svg>
