<?xml version="1.0" encoding="utf-8"?>
<!-- Generator: Adobe Illustrator 16.0.0, SVG Export Plug-In . SVG Version: 6.00 Build 0)  -->
<!DOCTYPE svg PUBLIC "-//W3C//DTD SVG 1.1//EN" "http://www.w3.org/Graphics/SVG/1.1/DTD/svg11.dtd">
<svg version="1.1" id="Layer_1" xmlns="http://www.w3.org/2000/svg" xmlns:xlink="http://www.w3.org/1999/xlink" x="0px" y="0px"
	 width="85px" height="85px" viewBox="0 0 85 85" enable-background="new 0 0 85 85" xml:space="preserve">
<g>
	<path fill-rule="evenodd" clip-rule="evenodd" d="M21.584,9.622c1.858-0.017,3.17,0.634,4.298,1.767
		c3.988,4.006,7.999,7.99,11.981,12.002c0.465,0.469,0.919,0.697,1.6,0.681c2.028-0.048,4.058-0.049,6.086,0
		c0.687,0.017,1.132-0.23,1.594-0.695c4.035-4.062,8.066-8.127,12.148-12.142c2.953-2.904,7.732-1.756,8.938,2.124
		c0.675,2.176,0.068,4.056-1.529,5.651c-4.002,3.993-7.98,8.009-12.01,11.974c-0.771,0.759-1.119,1.503-1.116,2.623
		c0.045,14.06,0.034,28.121,0.026,42.181c-0.002,3.532-2.114,6.074-5.498,6.602c-1.857,0.29-3.521-0.245-4.938-1.458
		c-0.459-0.394-0.699-0.574-1.284-0.067c-2.015,1.746-4.341,2.121-6.77,0.995c-2.459-1.14-3.716-3.152-3.718-5.877
		c-0.01-14.277-0.011-28.556,0.012-42.833c0.001-0.749-0.208-1.27-0.737-1.794c-4.196-4.158-8.391-8.317-12.532-12.528
		c-3.042-3.093-1.642-8.064,2.508-9.075C21.027,9.658,21.429,9.643,21.584,9.622z"/>
	<path fill-rule="evenodd" clip-rule="evenodd" d="M42.445,20.777c-5.041-0.023-9.095-4.104-9.086-9.147
		c0.009-5.01,4.128-9.127,9.133-9.13c5.048-0.002,9.168,4.159,9.14,9.232C51.604,16.754,47.493,20.801,42.445,20.777z"/>
	<path fill-rule="evenodd" clip-rule="evenodd" fill="#E2334F" d="M34.597,42.551c0-3.478-0.018-6.957,0.012-10.435
		c0.008-0.936-0.292-1.645-0.962-2.308c-4.35-4.309-8.668-8.651-13.004-12.976c-0.616-0.615-1.086-1.286-0.925-2.203
		c0.298-1.702,2.305-2.396,3.617-1.22c0.997,0.894,1.911,1.881,2.858,2.829c3.382,3.381,6.773,6.754,10.138,10.154
		c0.602,0.609,1.24,0.899,2.109,0.886c2.681-0.041,5.362-0.043,8.043,0.001c0.906,0.015,1.576-0.275,2.209-0.913
		c4.21-4.245,8.438-8.472,12.676-12.689c1.403-1.396,3.389-0.979,3.86,0.784c0.27,1.009-0.239,1.732-0.91,2.403
		c-4.181,4.172-8.329,8.376-12.55,12.507c-0.983,0.962-1.414,1.947-1.401,3.332c0.06,6.811,0.009,13.623,0.048,20.436
		c0.006,0.914-0.256,1.138-1.148,1.129c-4.492-0.046-8.985-0.048-13.478,0c-0.92,0.009-1.239-0.169-1.22-1.173
		C34.64,49.581,34.597,46.066,34.597,42.551z"/>
	<path fill-rule="evenodd" clip-rule="evenodd" fill="#E2334F" d="M50.384,67.332c0,2.969,0.031,5.938-0.013,8.906
		c-0.022,1.496-1.125,2.704-2.548,2.973c-1.409,0.267-2.881-0.523-3.452-1.866c-0.229-0.54-0.302-1.113-0.302-1.697
		c0-5.757,0.012-11.514-0.016-17.27c-0.003-0.72,0.212-0.931,0.923-0.905c1.482,0.052,2.97,0.054,4.452,0
		c0.744-0.027,0.995,0.174,0.983,0.953c-0.045,2.969-0.019,5.938-0.019,8.906C50.391,67.332,50.387,67.332,50.384,67.332z"/>
	<path fill-rule="evenodd" clip-rule="evenodd" fill="#E2334F" d="M40.821,67.334c0,2.896,0.011,5.792-0.004,8.688
		c-0.01,1.903-1.274,3.214-3.062,3.225c-1.75,0.01-3.129-1.315-3.14-3.179c-0.033-5.937-0.007-11.874-0.03-17.812
		c-0.002-0.639,0.229-0.792,0.821-0.778c1.483,0.033,2.969,0.049,4.452-0.006c0.747-0.027,0.993,0.179,0.981,0.956
		C40.795,61.396,40.821,64.365,40.821,67.334z"/>
	<path fill-rule="evenodd" clip-rule="evenodd" fill="#F3D1B0" d="M48.416,11.663c-0.002,3.285-2.662,5.952-5.929,5.944
		c-3.271-0.007-5.916-2.673-5.913-5.96c0.003-3.302,2.629-5.925,5.93-5.922C45.801,5.728,48.418,8.355,48.416,11.663z"/>
</g>
</svg>
