<?xml version="1.0" encoding="utf-8"?>
<!-- Generator: Adobe Illustrator 16.0.0, SVG Export Plug-In . SVG Version: 6.00 Build 0)  -->
<!DOCTYPE svg PUBLIC "-//W3C//DTD SVG 1.1//EN" "http://www.w3.org/Graphics/SVG/1.1/DTD/svg11.dtd">
<svg version="1.1" id="Layer_1" xmlns="http://www.w3.org/2000/svg" xmlns:xlink="http://www.w3.org/1999/xlink" x="0px" y="0px"
	 width="85px" height="85px" viewBox="0 0 85 85" enable-background="new 0 0 85 85" xml:space="preserve">
<g>
	<path fill-rule="evenodd" clip-rule="evenodd" d="M79.486,71.129c0.989-0.523,1.508-0.334,2.514,0.926
		c0.681,0.852,0.679,1.891-0.08,2.691c-0.949,1.002-1.946,1.957-2.924,2.932c-0.83,0.826-1.66,1.654-2.491,2.479
		c-1.216,1.205-2.267,1.201-3.497-0.021c-1.423-1.412-2.849-2.82-4.257-4.248c-0.298-0.301-0.601-0.5-1.02-0.355
		c-0.476,0.164-0.222,0.578-0.234,0.873c-0.036,0.832,0,1.666-0.016,2.498c-0.024,1.301-0.778,2.072-2.076,2.148
		c-0.182,0.01-0.364,0.004-0.547,0.004c-15.83,0-31.661,0-47.491,0c-0.493,0-0.991,0.021-1.453-0.207
		c-0.598-0.295-1.063-0.758-1.077-1.424c-0.059-2.803-0.351-5.625,0.531-8.367c1.671-5.193,6.48-8.725,12.014-8.803
		c2.395-0.033,4.791-0.023,7.186,0.006c0.557,0.008,0.766-0.09,0.746-0.709c-0.046-1.408-0.046-1.32-1.35-1.869
		c-1.293-0.545-2.562-0.643-3.931-0.48c-1.575,0.188-3.166,0.232-4.751,0.324c-0.311,0.02-0.463,0.113-0.637,0.418
		c-0.588,1.027-1.48,1.805-2.421,2.496c-0.51,0.375-1.171,0.398-1.705,0.064c-0.455-0.283-0.681-0.09-0.981,0.18
		c-3.87,3.484-7.744,6.963-11.617,10.441c-0.174,0.156-0.364,0.301-0.518,0.475c-1.462,1.648-3.88,1.594-4.901-0.914
		c0-0.416,0-0.832,0-1.25c0.342-0.832,0.977-1.445,1.566-2.092c3.5-3.854,6.999-7.709,10.512-11.549
		c0.316-0.346,0.413-0.578,0.181-1.049c-0.345-0.703-0.217-1.463,0.354-2.021c0.773-0.756,1.388-1.707,2.451-2.127
		c0.264-0.105,0.223-0.314,0.236-0.516c0.109-1.715,0.212-3.428,0.332-5.143c0.028-0.406-0.042-0.729-0.333-1.057
		c-0.62-0.701-0.945-1.549-0.951-2.494c-0.009-1.38-0.018-2.76,0-4.139c0.02-1.459,0.677-2.61,1.868-3.413
		c0.417-0.281,0.491-0.575,0.498-1.02c0.039-2.442-0.158-4.89,0.28-7.321c1.015-5.625,4.138-9.708,9.066-12.472
		c0.48-0.269,0.706-0.571,0.793-1.108C30.3,8.104,35.32,3.905,41.244,3.944c5.827,0.038,10.805,4.34,11.69,10.133
		c0.062,0.404,0.192,0.629,0.554,0.83c6.372,3.537,9.52,8.982,9.565,16.247c0.009,1.275,0.016,2.551-0.007,3.826
		c-0.006,0.381,0.113,0.606,0.438,0.818c1.217,0.793,1.863,1.957,1.924,3.39c0.06,1.403,0.019,2.811,0.007,4.215
		c-0.003,0.258,0,0.561-0.125,0.764c-0.594,0.967-0.224,1.836,0.135,2.762c0.388,1.006,0.416,2.084,0.339,3.158
		c-0.017,0.227-0.085,0.453,0.118,0.656c1.13,1.143,2.251,2.291,3.466,3.531c0.114-0.494,0.163-0.826,0.268-1.137
		c0.508-1.52,2.013-2.408,3.631-2.16c1.479,0.227,2.656,1.553,2.677,3.105c0.029,2.133,0.016,4.268,0.005,6.402
		c-0.002,0.451,0.081,0.852,0.274,1.27c0.694,1.492,0.98,3.062,0.726,4.705c-0.042,0.268-0.07,0.498,0.168,0.709
		c0.584,0.516,0.569,1.119,0.199,1.754c-0.438,0.553-0.986,0.656-1.621,0.307c-1.139-0.625-1.567-1.508-1.302-2.783
		c0.278-1.336,0.032-2.592-0.558-3.785c-0.298-0.602-0.437-1.207-0.429-1.875c0.02-1.873,0.007-3.746,0.007-5.621
		c0-0.207,0.001-0.416-0.003-0.623c-0.009-0.477-0.108-0.934-0.674-0.975c-0.645-0.047-0.743,0.479-0.786,0.951
		c-0.062,0.701-0.015,1.404-0.022,2.107c-0.003,0.26,0.019,0.523-0.033,0.779c-0.18,0.895-1.175,1.312-1.939,0.818
		c-0.197-0.127-0.364-0.293-0.529-0.459c-2.42-2.438-4.986-4.723-7.367-7.201c-0.223-0.23-0.415-0.549-0.877-0.514
		c-0.062,0.408,0.269,0.586,0.482,0.801c1.778,1.791,3.566,3.572,5.35,5.359c0.258,0.258,0.529,0.506,0.685,0.846
		c0.346,0.75-0.021,1.299-0.531,1.801c-0.591,0.582-1.131,1.289-2.127,0.947c-0.251-0.086-0.421-0.299-0.613-0.475
		c-2.68-2.432-5.175-5.051-7.756-7.582c-0.227-0.223-0.473-0.777-0.816-0.459c-0.238,0.221,0.243,0.557,0.47,0.785
		c2.459,2.473,4.928,4.934,7.393,7.4c0.503,0.504,1.097,1.035,0.745,1.816c-0.39,0.867-1.044,1.561-1.993,1.854
		c-0.535,0.166-0.928-0.16-1.309-0.512c-2.66-2.451-5.181-5.045-7.75-7.59c-0.241-0.238-0.578-0.785-0.822-0.523
		c-0.321,0.344,0.258,0.629,0.503,0.875c2.361,2.387,4.74,4.756,7.113,7.129c1.595,1.596,1.157,3.193-1.072,3.924
		c-0.611,0.045-1.019-0.316-1.411-0.709c-1.804-1.801-3.598-3.611-5.415-5.398c-0.263-0.26-0.583-0.865-0.97-0.447
		c-0.323,0.348,0.276,0.623,0.533,0.877c3.416,3.389,6.821,6.787,10.204,10.209c1.727,1.746,3.725,2.498,6.151,1.951
		c0.725-0.162,1.255,0.123,1.742,0.613c1.375,1.383,2.757,2.76,4.137,4.139c0.679,0.68,0.678,0.68,1.363-0.012
		c0.128-0.129,0.252-0.262,0.381-0.391c1.163-1.135,2.288-2.309,3.461-3.434c0.323-0.311,0.366-0.506,0.078-0.889
		C78.838,72.254,78.916,71.645,79.486,71.129z"/>
	<path fill-rule="evenodd" clip-rule="evenodd" fill="#FEC886" d="M59.056,66.305c0.856-0.254,1.379-0.928,1.848-1.6
		c0.414-0.594,0.066-1.125-0.396-1.582c-2.533-2.51-5.059-5.027-7.587-7.541c-0.166-0.164-0.329-0.334-0.497-0.496
		c-0.261-0.252-0.49-0.531-0.141-0.854c0.319-0.295,0.571-0.041,0.799,0.184c1.479,1.467,2.955,2.934,4.433,4.4
		c1.219,1.211,2.435,2.426,3.659,3.629c0.805,0.793,1.313,0.783,2.127-0.008c0.131-0.129,0.259-0.258,0.388-0.387
		c0.902-0.906,0.908-1.396,0.014-2.289c-2.582-2.572-5.166-5.141-7.749-7.709c-0.147-0.148-0.306-0.287-0.431-0.451
		c-0.157-0.209-0.167-0.439,0.034-0.631c0.204-0.197,0.426-0.168,0.629,0.006c0.157,0.137,0.305,0.283,0.452,0.43
		c2.567,2.549,5.133,5.1,7.7,7.648C65.291,60,65.742,60,66.688,59.066c0.148-0.146,0.3-0.291,0.444-0.441
		c0.705-0.732,0.71-1.283-0.02-2.012c-1.876-1.879-3.763-3.746-5.646-5.617c-0.11-0.111-0.224-0.219-0.332-0.33
		c-0.24-0.248-0.538-0.523-0.17-0.85c0.334-0.295,0.614-0.041,0.867,0.211c2.547,2.533,5.097,5.062,7.644,7.594
		c0.298,0.297,0.59,0.598,1.036,0.645c0.662,0.066,1.22-0.443,1.247-1.197c0.031-0.857,0.012-1.717,0.012-2.576
		c0-0.629,0.139-1.164,0.907-1.195c0.604-0.023,0.907,0.377,0.909,1.182c0.004,2.211,0.005,4.424-0.002,6.637
		c-0.001,0.396,0.035,0.773,0.237,1.125c0.841,1.467,1.057,3.029,0.655,4.668c-0.274,1.123,0.627,1.57,1.25,2.135
		c0.494,0.447,1.067,0.248,1.566-0.121c0.675,0.791,1.43,1.504,2.191,2.207c-0.519,0.701-0.443,1.346,0.208,1.908
		c0.282,0.244,0.268,0.402-0.003,0.662c-1.264,1.213-2.506,2.449-3.756,3.678c-0.415,0.084-0.6-0.254-0.827-0.479
		c-1.459-1.443-2.917-2.887-4.349-4.355c-0.407-0.418-0.81-0.537-1.387-0.438c-2.635,0.457-4.93-0.316-6.901-2.07
		c-1.065-0.947-1.977-2.061-3.097-2.957C59.154,66.902,58.846,66.691,59.056,66.305z"/>
	<path fill-rule="evenodd" clip-rule="evenodd" d="M17.986,29.211c-0.028,0.7-0.371,1.234-1.048,1.471
		c-1.604,0.561-2.693,1.593-3.227,3.23c-0.221,0.677-0.781,1.052-1.495,1.061c-0.749,0.01-1.32-0.376-1.558-1.083
		c-0.537-1.594-1.573-2.645-3.167-3.185c-0.705-0.239-1.096-0.775-1.091-1.542c0.004-0.769,0.41-1.288,1.112-1.53
		c1.556-0.538,2.602-1.55,3.124-3.124c0.235-0.708,0.775-1.124,1.525-1.132c0.785-0.009,1.339,0.412,1.589,1.153
		c0.518,1.538,1.536,2.548,3.068,3.076C17.547,27.857,17.971,28.381,17.986,29.211z"/>
	<path fill-rule="evenodd" clip-rule="evenodd" d="M72.148,34.913c-0.735-0.011-1.267-0.381-1.491-1.047
		c-0.546-1.62-1.596-2.679-3.219-3.222c-0.668-0.224-1.04-0.754-1.051-1.488c-0.012-0.77,0.369-1.321,1.067-1.556
		c1.623-0.546,2.663-1.614,3.209-3.23c0.227-0.669,0.778-1.036,1.501-1.04c0.722-0.004,1.285,0.351,1.512,1.021
		c0.556,1.646,1.627,2.718,3.27,3.277c0.673,0.229,1.021,0.777,1.021,1.506c0,0.732-0.365,1.277-1.031,1.502
		c-1.65,0.555-2.707,1.637-3.266,3.28C73.443,34.583,72.882,34.923,72.148,34.913z"/>
	<path fill-rule="evenodd" clip-rule="evenodd" d="M18.664,16.299c-0.471-0.022-0.968-0.328-1.187-0.952
		c-0.442-1.261-1.25-2.107-2.537-2.532c-0.655-0.216-0.984-0.774-0.971-1.457c0.013-0.646,0.335-1.17,0.962-1.384
		c1.271-0.434,2.104-1.261,2.543-2.529c0.228-0.657,0.761-0.988,1.447-0.978c0.653,0.01,1.169,0.341,1.382,0.961
		c0.437,1.271,1.262,2.099,2.534,2.54c0.646,0.224,0.976,0.753,0.963,1.456c-0.011,0.667-0.338,1.181-0.951,1.387
		c-1.279,0.432-2.089,1.264-2.544,2.527C20.057,16.032,19.528,16.315,18.664,16.299z"/>
	<path fill-rule="evenodd" clip-rule="evenodd" fill="#FEE1B7" d="M29.827,32.871c0.383-0.163,0.697-0.394,0.816-0.819
		c0.472-0.78,2.772-0.779,3.24,0.001c0.152,0.461,0.46,0.795,0.948,0.799c1.87,0.014,3.756,0.23,5.6-0.209
		c1.878-0.448,3.439-1.454,4.643-2.969c0.284-0.358,0.391-0.484,0.754-0.036c1.722,2.12,3.962,3.224,6.71,3.243
		c1.405,0.01,2.812,0.018,4.217-0.003c0.428-0.007,0.587,0.099,0.583,0.56c-0.021,2.395-0.031,4.789,0.006,7.183
		c0.009,0.547-0.275,0.559-0.649,0.612c-4.041,0.571-6.803,3.386-7.248,7.394c-0.146,1.32,0.096,2.592,0.601,3.811
		c0.138,0.33,0.172,0.58-0.005,0.928c-0.41,0.809-0.412,1.674,0.034,2.469c0.221,0.393,0.095,0.51-0.229,0.68
		c-1.748,0.922-3.605,1.553-5.572,1.605c-2.724,0.074-5.465,0.299-8.17-0.266c-0.633-0.133-1.247-0.361-1.876-0.516
		c-0.567-0.139-0.67-0.426-0.588-1.008c0.53-3.748-0.365-7.062-3.115-9.777c-1.014-1.002-2.238-1.67-3.514-2.262
		c-0.233-0.312-0.234-0.676-0.234-1.041c-0.003-3.055-0.008-6.111,0.002-9.167c0.003-1.123,0.049-1.144,1.19-1.159
		C28.589,32.914,29.211,32.993,29.827,32.871z"/>
	<path fill-rule="evenodd" clip-rule="evenodd" fill="#B47A4E" d="M33.883,32.053c-0.14-0.141-0.227-0.326-0.489-0.319
		c-0.753,0.019-1.508,0.019-2.261,0c-0.262-0.007-0.351,0.177-0.49,0.318c0.021-1.136-0.354-1.512-1.522-1.524
		c-1.269-0.012-2.538-0.022-3.807-0.033c-0.244-0.256-0.208-0.576-0.184-0.884c0.32-4.137,1.823-7.784,4.762-10.722
		c1.917-1.915,4.144-3.442,6.825-4.16c2.208-0.486,4.442-0.49,6.676-0.311c3.627,0.292,7.063,1.231,10.146,3.229
		c4.436,2.875,6.822,6.96,7.106,12.243c0.081,1.506,0.05,3.017,0.084,4.525c0.01,0.387-0.03,0.626-0.529,0.628
		c-0.493,0.002-0.553-0.219-0.534-0.615c0.023-0.493,0.011-0.989,0.005-1.483c-0.019-1.515-0.85-2.386-2.36-2.412
		c-1.562-0.027-3.124-0.015-4.686-0.005c-2.228,0.014-3.96-0.923-5.247-2.714c-1.114-1.55-2.706-1.561-3.827-0.006
		c-1.292,1.792-3.022,2.729-5.245,2.726c-0.989-0.001-1.978-0.005-2.967,0.002C34.228,30.546,33.863,30.932,33.883,32.053z"/>
	<path fill-rule="evenodd" clip-rule="evenodd" fill="#FE6666" d="M49.37,70.525c0.955,0.291,1.278,0.18,1.828-0.652
		c0.702-1.062,1.415-2.119,2.078-3.205c0.281-0.461,0.444-0.471,0.823-0.088c2.084,2.109,4.205,4.184,6.295,6.287
		c1.2,1.207,2.579,2.098,4.25,2.469c0.441,0.1,0.517,0.318,0.503,0.707c-0.022,0.674-0.042,1.354,0.005,2.027
		c0.037,0.529-0.159,0.66-0.658,0.656c-2.107-0.023-4.214-0.01-6.321-0.01c-4.188,0-8.374,0-12.624,0
		c0.137-0.574,0.527-0.963,0.804-1.406c0.494-0.795,1.021-1.568,1.524-2.357c0.537-0.842,0.5-1.178-0.185-1.92
		C48.062,72.07,48.576,71.205,49.37,70.525z"/>
	<path fill-rule="evenodd" clip-rule="evenodd" fill="#FE6666" d="M27.618,64.703c1.755,2.662,3.514,5.32,5.265,7.984
		c1.154,1.756,2.302,3.514,3.442,5.279c0.132,0.205,0.371,0.371,0.327,0.666c-0.221,0.117-0.46,0.062-0.69,0.062
		c-4.764,0.004-9.527,0.004-14.291,0.002c-0.88,0-0.972-0.049-0.954-0.908c0.035-1.766-0.204-3.545,0.194-5.293
		c0.701-3.078,2.303-5.553,4.973-7.287C26.402,64.873,26.936,64.516,27.618,64.703z"/>
	<path fill-rule="evenodd" clip-rule="evenodd" fill="#F7D4AA" d="M36.859,64.068c0.839-0.812,0.842-1.857,0.77-2.904
		c-0.037-0.535,0.099-0.693,0.669-0.68c1.897,0.047,3.798,0.043,5.696,0c0.542-0.012,0.694,0.15,0.638,0.646
		c-0.026,0.23-0.005,0.469-0.004,0.701c0.007,1.824,0.642,2.562,2.533,2.82c-1.684,2.549-3.339,5.055-4.994,7.561
		c-0.437,0.059-0.574-0.303-0.745-0.57c-1.425-2.23-2.9-4.43-4.334-6.652C36.911,64.715,36.658,64.443,36.859,64.068z"/>
	<path fill-rule="evenodd" clip-rule="evenodd" fill="#9A5729" d="M22.502,45.982c4.942-0.307,8.902,3.291,8.911,8.221
		c0.005,3.027,0.213,2.555-2.545,2.719c-1.703,0.104-3.404,0.232-5.164,0.174c1.238-0.732,2.476-1.467,3.715-2.199
		c0.361-0.213,0.742-0.422,0.853-0.861c0.122-0.48,0.064-0.947-0.359-1.273c-0.438-0.34-0.92-0.332-1.389-0.059
		c-1.281,0.746-2.555,1.506-3.834,2.254c-0.169,0.098-0.311,0.295-0.609,0.176c0.797-1.338,1.587-2.662,2.379-3.988
		c0.533-0.893,0.494-1.504-0.123-1.92c-0.669-0.453-1.248-0.256-1.858,0.635c-0.205,0.012-0.288-0.143-0.3-0.291
		C22.079,48.355,22.138,47.154,22.502,45.982z"/>
	<path fill-rule="evenodd" clip-rule="evenodd" fill="#B4794E" d="M41.09,6.31c5.002-0.11,8.706,3.861,9.243,7.163
		c-1.505-0.467-2.998-0.877-4.535-1.118c-3.108-0.489-6.212-0.504-9.32-0.002c-0.178,0.029-0.362,0.024-0.544,0.035
		c-0.228-0.349-0.017-0.659,0.117-0.951c0.907-1.981,2.246-3.595,4.103-4.766C40.449,6.485,40.776,6.425,41.09,6.31z"/>
	<path fill-rule="evenodd" clip-rule="evenodd" fill="#9A5729" d="M36.717,14.729c-1.809,0.834-3.594,1.708-5.162,2.963
		c-3.223,2.579-5.242,5.873-5.938,9.957c-0.161,0.942-0.324,1.884-0.304,2.845c-0.624,0.036-1.252,0.055-1.789,0.443
		c-0.56,0.404-0.897,0.93-0.9,1.64c-0.002,0.677-0.019,1.354-0.006,2.03c0.008,0.438-0.271,0.419-0.571,0.423
		c-0.294,0.004-0.501-0.036-0.498-0.411c0.025-3.036-0.212-6.093,0.83-9.038c1.793-5.071,5.488-8.142,10.416-9.901
		C34.063,15.229,35.354,14.819,36.717,14.729z"/>
	<path fill-rule="evenodd" clip-rule="evenodd" fill="#DDF8FE" d="M49.37,70.525c-0.56,0.836-1.118,1.672-1.678,2.508
		c-0.781-0.322-1.333-0.068-1.774,0.633c-0.804,1.273-1.625,2.537-2.476,3.781c-1.191,1.74-3.474,1.762-4.635,0.008
		c-2.752-4.16-5.462-8.348-8.188-12.525c-0.052-0.08-0.08-0.176-0.152-0.34c0.35,0,0.63,0.033,0.9-0.006
		c0.643-0.096,1.018,0.154,1.375,0.711c2.299,3.588,4.643,7.146,6.971,10.715c1.034,1.584,1.771,1.594,2.792,0.029
		c2.245-3.438,4.539-6.844,6.702-10.332c0.651-1.049,1.388-1.303,2.575-1.031c-0.774,1.195-1.53,2.359-2.285,3.523
		c-0.155,0.24-0.324,0.473-0.46,0.723C48.7,69.543,48.879,70.07,49.37,70.525z"/>
	<path fill-rule="evenodd" clip-rule="evenodd" fill="#FD3745" d="M27.618,64.703c-1.245,0.137-2.132,0.957-2.969,1.732
		c-2.431,2.254-3.757,5.041-3.719,8.41c0.012,0.988,0.041,1.979-0.012,2.965c-0.035,0.66,0.194,0.826,0.835,0.824
		c4.759-0.025,9.518-0.014,14.276-0.014c0.208,0,0.416,0.008,0.624,0.012c-0.203,0.182-0.449,0.09-0.671,0.09
		c-6.013,0.004-12.026-0.01-18.04,0.012c-0.642,0.002-0.863-0.158-0.829-0.82c0.087-1.711-0.116-3.434,0.224-5.137
		c0.917-4.598,5.284-8.199,9.938-8.188C27.402,64.59,27.537,64.562,27.618,64.703z"/>
	<path fill-rule="evenodd" clip-rule="evenodd" fill="#FEAE68" d="M59.056,66.305c0.01,0.051,0.001,0.123,0.032,0.148
		c1.773,1.529,3.129,3.537,5.259,4.658c1.653,0.869,3.414,1.207,5.248,0.762c0.532-0.131,0.808,0.037,1.137,0.369
		c1.55,1.57,3.114,3.125,4.677,4.682c0.164,0.162,0.352,0.303,0.527,0.453c-1.082,1.328-1.083,1.328-2.263,0.154
		c-1.309-1.301-2.621-2.6-3.922-3.908c-0.449-0.453-0.897-0.664-1.589-0.508c-2.364,0.531-4.387-0.148-6.097-1.857
		c-3.531-3.527-7.079-7.039-10.618-10.559c-0.147-0.146-0.306-0.289-0.424-0.457c-0.147-0.209-0.15-0.441,0.049-0.633
		c0.195-0.188,0.417-0.205,0.629-0.033c0.182,0.146,0.352,0.307,0.518,0.471c1.882,1.869,3.767,3.734,5.641,5.609
		C58.2,65.998,58.554,66.279,59.056,66.305z"/>
	<path fill-rule="evenodd" clip-rule="evenodd" fill="#FE98A2" d="M56.569,43.645c2.854-0.761,6.424,1.598,6.655,4.395
		c-2.214-1.342-3.728-0.797-4.829,1.74c-2.022-1.602-2.893-1.697-4.523-0.504c-0.313-0.07-0.309-0.328-0.283-0.551
		C53.828,46.59,54.672,44.807,56.569,43.645z"/>
	<path fill-rule="evenodd" clip-rule="evenodd" fill="#FEC886" d="M29.827,32.871c-0.673,0.294-1.382,0.121-2.069,0.116
		c-0.595-0.004-0.743,0.192-0.74,0.764c0.018,3.513,0.001,7.026-0.005,10.538c-0.199-0.057-0.398-0.111-0.597-0.172
		c-1.479-0.449-1.479-0.449-1.479-1.954c0-2.864,0.012-5.728-0.011-8.592c-0.004-0.527,0.118-0.727,0.685-0.71
		C27.015,32.9,28.421,32.872,29.827,32.871z"/>
	<path fill-rule="evenodd" clip-rule="evenodd" fill="#9A5729" d="M41.09,6.31c-2.087,1.188-3.746,2.788-4.767,4.992
		c-0.161,0.348-0.261,0.723-0.389,1.086c-1.32,0.349-2.665,0.607-3.965,1.098C32.234,10.516,35.941,6.231,41.09,6.31z"/>
	<path fill-rule="evenodd" clip-rule="evenodd" fill="#FDE1B7" d="M22.592,40.476c0,0.882-0.012,1.765,0.005,2.646
		c0.007,0.365-0.118,0.508-0.492,0.504c-0.782-0.01-1.551,0.143-2.298,0.35c-0.373,0.102-0.56,0.039-0.578-0.324
		c-0.077-1.606-0.145-3.219,0.033-4.817c0.085-0.765,0.913-1.363,1.739-1.442c0.36-0.035,0.728,0.009,1.088-0.026
		c0.434-0.042,0.52,0.156,0.509,0.542C22.577,38.763,22.592,39.619,22.592,40.476z"/>
	<path fill-rule="evenodd" clip-rule="evenodd" fill="#E9BF91" d="M36.859,64.068c0.072,0.191,0.112,0.404,0.221,0.574
		c1.545,2.383,3.097,4.762,4.656,7.137c0.109,0.166,0.286,0.291,0.431,0.434c-0.325,0.523-0.65,1.047-1.036,1.668
		c-2.035-3.115-4.016-6.148-6.06-9.279C35.821,64.629,36.356,64.395,36.859,64.068z"/>
	<path fill-rule="evenodd" clip-rule="evenodd" fill="#FDE1B7" d="M63.093,43.238c-1.027-0.833-2.012-1.4-3.119-1.728
		c-0.247-0.073-0.31-0.209-0.308-0.449c0.01-1.092,0.005-2.185,0.004-3.276c0-0.21-0.023-0.396,0.297-0.42
		c1.819-0.133,3.215,0.344,3.133,2.605C63.062,41.002,63.093,42.037,63.093,43.238z"/>
	<path fill-rule="evenodd" clip-rule="evenodd" fill="#C6C7C9" d="M17.31,59.57c1.085,0.982,1.091,0.99-0.005,1.971
		c-2.941,2.631-5.888,5.256-8.832,7.883c-0.141,0.066-0.208-0.018-0.261-0.129c0.197-0.805,0.881-1.266,1.385-1.824
		c2.05-2.275,4.136-4.518,6.165-6.814c0.275-0.311,0.57-0.605,0.882-0.881C16.827,59.615,17.006,59.369,17.31,59.57z"/>
	<path fill-rule="evenodd" clip-rule="evenodd" fill="#FD6565" d="M56.569,43.645c-1.107,1.104-2.227,2.209-2.549,3.826
		c-0.118,0.588-0.424,1.178-0.147,1.805c-0.477,0.568-0.817,1.188-0.812,1.961c0.002,0.195,0.158,0.498-0.238,0.531
		c-0.343,0.029-0.575-0.057-0.703-0.436c-0.348-1.027-0.456-2.057-0.257-3.133C52.291,45.891,54.3,43.932,56.569,43.645z"/>
	<path fill-rule="evenodd" clip-rule="evenodd" fill="#7E441C" d="M22.502,45.982c0.098,1.057-0.169,2.094-0.156,3.146
		c0.003,0.246-0.092,0.52,0.131,0.73c-0.74,1.258-1.479,2.516-2.219,3.773c-0.086-0.021-0.173-0.041-0.26-0.062
		c0.203-0.955,0.126-1.914,0.197-2.871c0.089-1.186,0.265-2.371,0.242-3.555c-0.016-0.838,0.35-1.1,1.056-1.146
		C21.829,45.975,22.166,45.986,22.502,45.982z"/>
	<path fill-rule="evenodd" clip-rule="evenodd" fill="#A6A8AB" d="M17.31,59.57c-0.683,0.225-1.047,0.832-1.494,1.312
		c-2.023,2.186-4.012,4.402-6.009,6.611c-0.52,0.576-1.022,1.168-1.532,1.752c-0.099,0.375-0.499,0.543-0.622,0.902
		c-0.703,0.65-1.403,1.307-2.112,1.951c-0.161,0.146-0.335,0.408-0.585,0.158c-0.255-0.256,0.022-0.422,0.166-0.58
		c3.756-4.137,7.517-8.27,11.272-12.408C16.948,58.66,17.018,59.436,17.31,59.57z"/>
	<path fill-rule="evenodd" clip-rule="evenodd" fill="#898B8D" d="M19.361,56.287c0.889,0.871,1.77,1.748,2.669,2.607
		c0.493,0.469-0.077,0.605-0.261,0.822c-0.179,0.211-0.349,0.637-0.767,0.191c-0.903-0.963-1.841-1.893-2.765-2.836
		C18.512,56.668,18.686,56.117,19.361,56.287z"/>
	<path fill-rule="evenodd" clip-rule="evenodd" fill="#FDFDFD" d="M49.725,62.246c-0.922,0-1.621-0.014-2.319,0.008
		c-0.338,0.01-0.483-0.102-0.438-0.441c0.011-0.076,0.002-0.154,0.001-0.232c-0.014-1.537-0.014-1.537,1.593-1.922
		C48.539,60.629,48.862,61.465,49.725,62.246z"/>
	<path fill-rule="evenodd" clip-rule="evenodd" fill="#6A6B6E" d="M19.361,56.287c-0.527,0.043-0.667,0.643-1.124,0.785
		c-0.211-0.188-0.408-0.395-0.636-0.561c-0.491-0.354-0.405-0.623-0.005-1.031c0.411-0.418,0.675-0.455,1.03,0.016
		C18.843,55.781,19.115,56.025,19.361,56.287z"/>
	<path fill-rule="evenodd" clip-rule="evenodd" fill="#B6B7B9" d="M7.654,70.148c-0.159-0.553,0.377-0.627,0.622-0.902
		c0.065,0.061,0.131,0.119,0.197,0.178C8.243,69.713,7.994,69.982,7.654,70.148z"/>
	<path fill-rule="evenodd" clip-rule="evenodd" fill="#FDCA00" d="M10.787,28.513c0.524-0.494,0.976-1.049,1.391-1.751
		c0.653,1.029,1.377,1.853,2.451,2.384c-0.664,0.437-1.224,0.852-1.709,1.357c-0.04,0.038-0.105,0.084-0.132,0.062
		C12.047,29.953,11.272,29.373,10.787,28.513z"/>
	<path fill-rule="evenodd" clip-rule="evenodd" fill="#FCAD10" d="M10.787,28.513c0.711,0.664,1.422,1.327,2.133,1.991
		c-0.679,0.999-0.687,1.005-1.435,0.071c-0.458-0.572-1.064-0.962-1.695-1.411C10.145,28.932,10.466,28.722,10.787,28.513z"/>
	<path fill-rule="evenodd" clip-rule="evenodd" fill="#FDAD10" d="M70.772,28.469c0.504-0.515,0.982-1.052,1.396-1.758
		c0.622,1.035,1.394,1.815,2.432,2.418c-0.711,0.412-1.249,0.889-1.766,1.392c-0.105,0.045-0.208,0.027-0.277-0.057
		c-0.506-0.61-1.012-1.218-1.689-1.654C70.761,28.741,70.716,28.607,70.772,28.469z"/>
	<path fill-rule="evenodd" clip-rule="evenodd" fill="#F09400" d="M70.772,28.469c0.772,0.598,1.482,1.259,2.062,2.052
		c-0.193,0.304-0.388,0.607-0.654,1.026c-0.619-1.009-1.337-1.838-2.378-2.353C70.101,28.842,70.449,28.674,70.772,28.469z"/>
	<path fill-rule="evenodd" clip-rule="evenodd" fill="#EE9300" d="M19.695,11.917c-0.248,0.294-0.454,0.769-0.754,0.838
		c-0.373,0.086-0.475-0.515-0.784-0.735c-0.25-0.178-0.473-0.394-0.75-0.627c0.302-0.253,0.587-0.493,0.873-0.733
		C18.995,10.805,19.328,11.38,19.695,11.917z"/>
	<path fill-rule="evenodd" clip-rule="evenodd" fill="#F9AB0F" d="M19.695,11.917c-0.472-0.419-0.943-0.838-1.415-1.257
		c0.186-0.238,0.372-0.476,0.587-0.752c0.471,0.527,0.91,1.053,1.536,1.486C20.137,11.591,19.916,11.754,19.695,11.917z"/>
	<path fill-rule="evenodd" clip-rule="evenodd" d="M41.033,53.232c-2.21-0.023-4.228-0.783-5.92-2.359
		c-0.641-0.598-0.714-1.23-0.228-1.771c0.47-0.523,1.147-0.51,1.795,0.037c2.82,2.381,6.023,2.365,8.892-0.039
		c0.664-0.557,1.316-0.568,1.794-0.033c0.465,0.521,0.38,1.203-0.235,1.777C45.442,52.424,43.429,53.195,41.033,53.232z"/>
	<path fill-rule="evenodd" clip-rule="evenodd" d="M31.889,41.138c-1.58-0.037-3.002-0.584-4.201-1.687
		c-0.592-0.545-0.671-1.19-0.229-1.717c0.44-0.525,1.11-0.552,1.733-0.069c1.975,1.529,3.632,1.53,5.569,0.005
		c0.608-0.479,1.304-0.455,1.732,0.06c0.406,0.487,0.351,1.18-0.176,1.675C35.089,40.561,33.618,41.122,31.889,41.138z"/>
	<path fill-rule="evenodd" clip-rule="evenodd" d="M49.813,41.131c-1.185-0.018-2.632-0.567-3.846-1.699
		c-0.591-0.551-0.654-1.191-0.195-1.715c0.449-0.513,1.114-0.528,1.736-0.039c1.933,1.521,3.592,1.513,5.565-0.026
		c0.573-0.447,1.25-0.433,1.681,0.036c0.449,0.488,0.385,1.196-0.158,1.735C53.538,40.475,51.884,41.13,49.813,41.131z"/>
	<path fill-rule="evenodd" clip-rule="evenodd" d="M40.902,42.484c0.007,1.541,0.007,1.541,1.52,1.617
		c0.768,0.039,1.286,0.521,1.273,1.189c-0.012,0.645-0.505,1.123-1.229,1.146c-0.649,0.021-1.3,0.029-1.948-0.006
		c-1.101-0.061-1.899-0.854-1.936-1.951c-0.036-1.064-0.028-2.131-0.007-3.196c0.014-0.694,0.462-1.155,1.088-1.192
		c0.632-0.038,1.172,0.443,1.233,1.146C40.932,41.65,40.902,42.069,40.902,42.484z"/>
</g>
</svg>
