<?xml version="1.0" encoding="utf-8"?>
<!-- Generator: Adobe Illustrator 16.0.0, SVG Export Plug-In . SVG Version: 6.00 Build 0)  -->
<!DOCTYPE svg PUBLIC "-//W3C//DTD SVG 1.1//EN" "http://www.w3.org/Graphics/SVG/1.1/DTD/svg11.dtd">
<svg version="1.1" id="Layer_1" xmlns="http://www.w3.org/2000/svg" xmlns:xlink="http://www.w3.org/1999/xlink" x="0px" y="0px"
	 width="85px" height="85px" viewBox="0 0 85 85" enable-background="new 0 0 85 85" xml:space="preserve">
<g>
	<path fill="#9F9F9F" d="M4.871,69.11h75.258c1.311,0,2.371,1.062,2.371,2.371c0,1.312-1.062,2.372-2.371,2.372H4.871
		c-1.311,0-2.371-1.062-2.371-2.372C2.5,70.173,3.562,69.11,4.871,69.11z"/>
	<g>
		<path fill="#1C202A" d="M44.562,67.483h2.809v3.586h-2.809V67.483z M12.57,67.483h2.809v3.586H12.57V67.483z"/>
	</g>
	<path fill="#0DB4A5" d="M51.436,61.222v5.828c0,1.072-0.867,1.941-1.941,1.941H10.449c-1.072,0-1.943-0.869-1.943-1.941v-5.828
		H51.436z"/>
	<path fill="#01A193" d="M51.436,61.222v1.476c-0.67,0.607-1.561,0.979-2.537,0.979H11.119c-0.975,0.002-1.912-0.376-2.613-1.053
		v-1.401L51.436,61.222L51.436,61.222z M18.934,37.431H41.01c4.891,0,8.854,3.964,8.854,8.855v6.631H10.076v-6.631
		C10.076,41.395,14.041,37.431,18.934,37.431L18.934,37.431z"/>
	<path fill="#35BDB1" d="M48.898,62.532H11.119c-2.084,0-3.775-1.688-3.775-3.772v-2.194c0-2.084,1.691-3.772,3.775-3.772h37.779
		c2.084,0,3.773,1.688,3.773,3.772v2.194C52.672,60.844,50.982,62.532,48.898,62.532z"/>
	<circle fill="#35BDB1" cx="47.588" cy="52.917" r="4.027"/>
	<circle fill="#35BDB1" cx="12.43" cy="52.917" r="4.027"/>
	<g>
		<path fill="#F2C099" d="M75.73,60.207l-1.734-4.832c-0.498-1.393-1.828-2.326-3.307-2.326v-1.32c2.033,0,3.861,1.286,4.549,3.201
			l1.734,4.832L75.73,60.207z"/>
		<path fill="#F05148" d="M73.996,55.375c-0.5-1.393-1.828-2.326-3.307-2.326v-1.32c2.033,0,3.861,1.286,4.549,3.201L73.996,55.375z
			"/>
		<path fill="#F2C099" d="M71.066,53.049h-3.988c-1.297,0.001-2.547-0.483-3.506-1.358l-2.07-1.888l0.891-0.976l2.068,1.888
			c0.717,0.651,1.65,1.015,2.617,1.014h3.988V53.049L71.066,53.049z"/>
		<path fill="#F05148" d="M67.078,51.728h3.988v1.32h-3.988V51.728z"/>
		<path fill="#081E2A" d="M76.381,47.673c0-0.305-0.199-0.574-0.49-0.663c0.365-0.112,0.572-0.5,0.461-0.866
			c-0.082-0.267-0.316-0.459-0.594-0.487c0.285-0.085,0.496-0.35,0.496-0.663c0-0.385-0.311-0.694-0.693-0.693
			c-0.047,0-0.092,0.004-0.137,0.013c0.197-0.128,0.314-0.346,0.314-0.58c0-0.383-0.311-0.692-0.693-0.692
			c-0.15,0-0.291,0.049-0.404,0.132c0.068-0.11,0.104-0.236,0.104-0.365c0-0.383-0.311-0.693-0.693-0.693
			c-0.209,0-0.408,0.096-0.539,0.26c0.008-0.042,0.014-0.087,0.014-0.132c0-0.384-0.312-0.693-0.693-0.693l0,0
			c-0.342,0-0.625,0.248-0.684,0.573h-0.012v-0.005c0-0.384-0.311-0.694-0.691-0.694c-0.383,0-0.693,0.311-0.693,0.694
			c0,0.002,0,0.003,0,0.005H70.74c-0.057-0.325-0.342-0.573-0.682-0.573c-0.385,0-0.693,0.311-0.693,0.694
			c0,0.044,0.004,0.088,0.012,0.132c-0.131-0.164-0.33-0.26-0.541-0.26c-0.383,0-0.691,0.312-0.691,0.694
			c0,0.134,0.039,0.259,0.104,0.365c-0.117-0.086-0.26-0.132-0.404-0.132c-0.383,0-0.693,0.311-0.693,0.692
			c0,0.234,0.119,0.452,0.312,0.58c-0.375-0.074-0.738,0.17-0.814,0.545c-0.008,0.045-0.014,0.091-0.014,0.137
			c0,0.307,0.201,0.575,0.496,0.664c-0.381,0.038-0.658,0.379-0.619,0.76c0.027,0.277,0.221,0.512,0.486,0.594
			c-0.291,0.089-0.49,0.358-0.49,0.663c0,0.303,0.197,0.57,0.486,0.661c-0.26,0.101-0.443,0.352-0.443,0.646
			c0,0.382,0.311,0.693,0.693,0.693l0,0c0.098,0,0.193-0.021,0.283-0.062c0.004,0.009,0.008,0.017,0.014,0.023
			c-0.137,0.13-0.213,0.31-0.213,0.498c0,0.383,0.312,0.693,0.693,0.693c0.121,0,0.238-0.031,0.344-0.093
			c0.047,0.339,0.336,0.601,0.686,0.601c0.385,0,0.693-0.312,0.693-0.693l0,0c0-0.018,0-0.035-0.002-0.053h3.404
			c0,0.018-0.002,0.035-0.002,0.053c0,0.383,0.311,0.693,0.691,0.693c0.002,0,0.002,0,0.002,0c0.352,0,0.641-0.262,0.686-0.601
			c0.104,0.062,0.223,0.093,0.344,0.093c0.383,0,0.693-0.312,0.693-0.693l0,0c0-0.188-0.076-0.368-0.211-0.498
			c0.004-0.008,0.008-0.015,0.014-0.022c0.088,0.039,0.184,0.062,0.281,0.062c0.383,0,0.693-0.312,0.693-0.693
			c0-0.295-0.184-0.546-0.441-0.646C76.186,48.243,76.381,47.975,76.381,47.673L76.381,47.673z"/>
		<circle fill="#F2C099" cx="67.518" cy="47.68" r="0.683"/>
		<circle fill="#EA937F" cx="67.518" cy="47.68" r="0.328"/>
		<circle fill="#F2C099" cx="74.992" cy="47.68" r="0.683"/>
		<circle fill="#EA937F" cx="74.992" cy="47.68" r="0.328"/>
		<path fill="#F2C099" d="M74.805,46.047v1.835c0,2.064-1.676,3.738-3.736,3.738c-2.066,0-3.738-1.674-3.738-3.738v-1.835
			c0-0.296,0.033-0.582,0.1-0.857c0.158-0.677,0.504-1.295,0.994-1.786c0.678-0.675,1.609-1.094,2.645-1.094
			c1.768,0,3.252,1.229,3.639,2.88C74.771,45.471,74.805,45.758,74.805,46.047L74.805,46.047z"/>
		<circle fill="#313131" cx="68.75" cy="47.479" r="0.512"/>
		<circle fill="#313131" cx="72.061" cy="47.479" r="0.517"/>
		<path fill="#EA937F" d="M70.404,48.929c0.266,0,0.48-0.216,0.48-0.48l0,0v-0.182h-0.961v0.182
			C69.924,48.713,70.139,48.928,70.404,48.929L70.404,48.929z"/>
		<path fill="#31353E" d="M69.262,49.392c0,0.146,0.027,0.286,0.08,0.416c0.08,0.209,0.221,0.389,0.404,0.518
			c0.191,0.138,0.422,0.211,0.658,0.209c0.246,0,0.473-0.076,0.66-0.209c0.182-0.129,0.322-0.31,0.402-0.518
			c0.053-0.13,0.08-0.27,0.08-0.416H69.262L69.262,49.392z"/>
		<path fill="#FFFFFD" d="M71.547,49.392c0,0.146-0.027,0.286-0.08,0.416h-1.359c-0.045,0-0.084-0.037-0.084-0.083l0,0v-0.333
			h-0.275v0.333c0,0.046-0.037,0.083-0.084,0.083l0,0h-0.322c-0.053-0.133-0.08-0.273-0.08-0.416H71.547L71.547,49.392z"/>
		<path fill="#F05148" d="M69.746,50.325c0.191,0.138,0.422,0.211,0.658,0.209c0.246,0,0.473-0.076,0.66-0.209
			c-0.145-0.159-0.387-0.264-0.66-0.264S69.889,50.166,69.746,50.325z"/>
		<path fill="#0E3354" d="M69.906,61.163h2.32c0.658,0,1.193-0.535,1.193-1.194v-1.854h-4.709v1.854
			C68.711,60.628,69.246,61.163,69.906,61.163L69.906,61.163z"/>
		<path fill="#F05148" d="M71.006,51.819h0.121c1.268,0,2.293,1.026,2.293,2.292v4.003c-1.484,0.725-3.223,0.725-4.709,0v-4.003
			C68.711,52.847,69.738,51.819,71.006,51.819L71.006,51.819z"/>
		<path fill="#F2C099" d="M71.066,52.577c0.293,0,0.529-0.237,0.529-0.529v-0.985h-1.061v0.985
			C70.537,52.34,70.773,52.577,71.066,52.577L71.066,52.577z"/>
		<path fill="#F26A50" d="M68.711,53.849h4.709v0.794h-4.709V53.849z M68.711,55.123h4.709v0.793h-4.709V55.123z"/>
		<path fill="#081E2A" d="M75.193,46.318c-0.203,0.312-0.613,0.471-0.973,0.379s-0.604-0.407-0.635-0.776
			c-0.193,0.271-0.58,0.385-0.891,0.262c-0.312-0.122-0.504-0.44-0.463-0.771c-0.311,0.064-0.631,0.131-0.939,0.057
			c-0.309-0.075-0.59-0.313-0.59-0.631c-0.246,0.169-0.594,0.171-0.842,0.005c-0.246-0.166-0.363-0.486-0.301-0.777
			c-0.287,0.224-0.729,0.216-1.012-0.014c-0.279-0.23-0.375-0.662-0.215-0.988c0,0,2.631-1.747,4.717-0.381
			C75.139,44.047,75.193,46.318,75.193,46.318L75.193,46.318z"/>
		<circle fill="#F2C099" cx="76.666" cy="60.173" r="0.989"/>
		<path fill="#0E3354" d="M68.93,59.691h1.887v10.523H68.93V59.691z M71.256,59.691h1.887v10.523h-1.887V59.691z"/>
		<path fill="#0F6F92" d="M68.834,69.592c0.436-0.001,0.824,0.181,1.102,0.472h0.877v1.034h-0.461l-3.021,0.01
			C67.326,70.272,68,69.595,68.834,69.592z"/>
		<path fill="#0F7A9F" d="M71.209,69.592c0.434-0.001,0.822,0.181,1.1,0.472h0.877v1.034h-0.461l-3.021,0.01
			C69.699,70.272,70.373,69.595,71.209,69.592L71.209,69.592z"/>
		<path fill="#5FBDC3" d="M56.639,67.871h2.557v2.557h-2.557V67.871z"/>
		<path fill="#229094" d="M59.152,67.871h0.727v2.557h-0.727V67.871z"/>
		<g>
			<path fill="#F16070" d="M57.229,65.348h2.559v2.558h-2.559V65.348z"/>
			<path fill="#EF4655" d="M59.744,65.348h0.727v2.558h-0.727V65.348z"/>
		</g>
		<g>
			<path fill="#F9BB16" d="M56.98,62.829h2.559v2.557H56.98V62.829z"/>
			<path fill="#FCCF52" d="M56.295,62.829h0.729v2.557h-0.729V62.829z"/>
		</g>
		<g>
			<path fill="#764A9E" d="M57.188,60.301h2.557v2.557h-2.557V60.301z"/>
			<path fill="#9168AD" d="M56.502,60.301h0.727v2.557h-0.727V60.301z"/>
		</g>
		<g>
			<path fill="#764A9E" d="M59.691,46.834h2.557v2.558h-2.557V46.834z"/>
			<path fill="#9168AD" d="M59.006,46.834h0.729v2.558h-0.729V46.834z"/>
		</g>
		<g>
			<path fill="#F16070" d="M54.18,68.633h2.559v2.557H54.18V68.633z"/>
			<path fill="#EF4655" d="M56.695,68.633h0.727v2.557h-0.727V68.633z"/>
		</g>
		<circle fill="#F2C099" cx="61.617" cy="49.102" r="0.989"/>
	</g>
	<g>
		<g>
			<path fill="#31353E" d="M32.633,30.018c4.195,0,7.598-3.401,7.598-7.596v-3.679c0-4.194-3.4-7.597-7.598-7.597
				c-4.195,0-7.596,3.401-7.596,7.597v3.679C25.037,26.616,28.439,30.018,32.633,30.018z"/>
			<circle fill="#31353E" cx="24.217" cy="23.667" r="2.127"/>
			<circle fill="#31353E" cx="39.098" cy="25.782" r="2.127"/>
			<circle fill="#31353E" cx="25.701" cy="27.073" r="2.676"/>
			<circle fill="#31353E" cx="36.725" cy="28.64" r="2.676"/>
			<path fill="#31353E" d="M30.535,32.616c-1.025,0.596-2.355,0.522-3.32-0.279c-1.236-1.027-1.406-2.862-0.379-4.1
				c1.027-1.236,2.861-1.405,4.1-0.379c0.086,0.072,0.168,0.148,0.244,0.229c0.098-0.057,0.195-0.106,0.299-0.151
				c1.475-0.642,3.189,0.033,3.832,1.507c0.641,1.475-0.033,3.189-1.508,3.831C32.652,33.774,31.355,33.473,30.535,32.616
				L30.535,32.616z"/>
		</g>
		<path fill="#F2C099" d="M26.822,45.632l-0.541-0.247c-1.557-0.712-2.463-2.393-2.203-4.084l0.758-4.916
			c0.504-3.283,3.281-5.665,6.604-5.665h1.193v2.463h-1.193c-2.098,0-3.852,1.504-4.17,3.577l-0.756,4.916
			c-0.094,0.608,0.232,1.214,0.793,1.471l0.539,0.247L26.822,45.632L26.822,45.632z"/>
		<path fill="#E5E5E5" d="M27.352,36.771l-2.598-0.399c0.512-3.323,3.322-5.734,6.686-5.734h1.193v2.627h-1.193
			C29.383,33.264,27.664,34.738,27.352,36.771z"/>
		<path fill="#F2C099" d="M42.842,70.656l-2.564-0.567l3.561-16.069c0.092-0.4,0-0.808-0.25-1.123
			c-0.25-0.312-0.629-0.496-1.027-0.495h-8.184v-2.627h8.184c1.207,0,2.33,0.542,3.082,1.486c0.752,0.943,1.027,2.16,0.76,3.337
			L42.842,70.656z"/>
		<path fill="#71C3E0" d="M43.076,68.973c-0.613-0.002-1.166,0.256-1.557,0.668h-1.242v1.464h0.652l4.277,0.014
			C45.211,69.937,44.258,68.976,43.076,68.973z"/>
		<path fill="#165986" d="M40.395,68.054h3.336l2.811-13.537c0.441-2.131-0.928-4.218-3.059-4.66
			c-0.264-0.055-0.531-0.082-0.801-0.082h-8.135c-0.85,0-1.537,0.688-1.537,1.536c0,0.833,0.66,1.515,1.492,1.543
			c2.096,0.07,5.836,0.205,7.424,0.263c0.396,0.016,0.693,0.373,0.635,0.768L40.395,68.054z"/>
		<circle fill="#F2C099" cx="25.449" cy="22.202" r="1.313"/>
		<circle fill="#EA937F" cx="25.449" cy="22.202" r="0.629"/>
		<circle fill="#F2C099" cx="39.816" cy="22.202" r="1.313"/>
		<circle fill="#EA937F" cx="39.816" cy="22.202" r="0.629"/>
		<path fill="#F2C099" d="M32.633,29.774c3.969,0,7.184-3.216,7.184-7.183v-3.53c0-3.967-3.215-7.184-7.184-7.184
			c-3.967,0-7.184,3.217-7.184,7.184v3.53C25.449,26.559,28.666,29.774,32.633,29.774z"/>
		<g>
			<circle fill="#313131" cx="30.564" cy="21.801" r="0.821"/>
			<circle fill="#313131" cx="36.926" cy="21.801" r="0.821"/>
		</g>
		<path fill="#EA937F" d="M33.746,24.964c0.412,0,0.748-0.335,0.748-0.748v-0.283h-1.496v0.283
			C32.998,24.629,33.332,24.964,33.746,24.964L33.746,24.964z"/>
		<path fill="#31353E" d="M35.76,25.832l0.002,0.355c0.004,0.587-0.252,1.147-0.695,1.531c-0.363,0.315-0.83,0.491-1.312,0.492
			c-0.482,0.002-0.949-0.168-1.316-0.482c-0.432-0.369-0.705-0.916-0.707-1.525v-0.356L35.76,25.832L35.76,25.832z"/>
		<path fill="#F05148" d="M35.064,27.72c-0.363,0.316-0.828,0.491-1.312,0.492c-0.48,0.002-0.949-0.168-1.314-0.482
			c0.227-0.409,0.729-0.691,1.311-0.693C34.332,27.032,34.836,27.312,35.064,27.72z"/>
		<path fill="#FFFFFF" d="M35.762,26.289l-4.031,0.015l-0.002-0.457l4.031-0.014L35.762,26.289z"/>
		<path fill="#31353E" d="M37.41,13.319c0,0-3.426,7.508-12.373,7.508c0,0-1.062-9.231,7.596-9.231
			C32.633,11.596,34.824,11.431,37.41,13.319L37.41,13.319z"/>
		<path fill="#31353E" d="M34.66,13.319c0,0,3.857,1.844,5.377,7.264c0,0,0.697-5.786-3.203-7.879L34.66,13.319z"/>
		<path fill="#E5E5E5" d="M37.145,42.404c-0.148-2.32-0.098-4.602,0.178-6.84c0.055-0.461,0.045-0.931-0.062-1.382
			c-0.496-2.105-2.387-3.658-4.627-3.658s-4.131,1.551-4.627,3.658c-0.105,0.452-0.117,0.921-0.061,1.382
			c0.273,2.238,0.328,4.52,0.176,6.84c0,0.026-0.002,0.052-0.004,0.077h9.031C37.148,42.456,37.146,42.431,37.145,42.404
			L37.145,42.404z"/>
		<path fill="#1A6BA1" d="M37.857,47.927c-0.02-0.104-0.039-0.208-0.059-0.312c-0.318-1.731-0.539-3.442-0.65-5.133h-9.031
			c-0.088,1.309-0.238,2.625-0.449,3.957c-0.061,0.394-0.129,0.785-0.203,1.176c-0.018,0.104-0.037,0.208-0.057,0.312
			c-0.039,0.201-0.062,0.403-0.07,0.606c-0.033,0.755,0.135,1.501,0.494,2.147c0.215,0.395,0.5,0.747,0.842,1.041
			c0.258,0.223,0.543,0.41,0.85,0.559c0.523,0.257,1.113,0.398,1.74,0.398h2.738c0.627,0,1.217-0.143,1.742-0.398
			c0.305-0.148,0.59-0.337,0.848-0.559c0.342-0.294,0.627-0.646,0.844-1.041c0.357-0.646,0.525-1.394,0.492-2.147
			C37.918,48.33,37.896,48.128,37.857,47.927L37.857,47.927z"/>
		<path fill="#F2C099" d="M32.633,31.95c0.604,0,1.092-0.488,1.092-1.091v-2.028h-2.182v2.028
			C31.543,31.462,32.031,31.95,32.633,31.95L32.633,31.95z M38.209,70.656l-2.564-0.567l3.561-16.069c0.094-0.4,0-0.808-0.25-1.123
			c-0.25-0.312-0.629-0.496-1.029-0.495h-8.182v-2.627h8.182c1.207,0,2.332,0.542,3.084,1.486s1.029,2.16,0.76,3.337L38.209,70.656
			L38.209,70.656z"/>
		<path fill="#79D0EE" d="M38.443,68.973c-0.613-0.002-1.166,0.256-1.557,0.668h-1.24v1.464h0.65l4.277,0.014
			C40.578,69.937,39.625,68.976,38.443,68.973L38.443,68.973z"/>
		<path fill="#1A6BA1" d="M35.762,68.054h3.336l2.811-13.537c0.264-1.271-0.115-2.594-1.016-3.531
			c-0.744-0.772-1.771-1.211-2.844-1.211h-8.135c-0.85,0-1.537,0.688-1.537,1.536c0,0.833,0.66,1.515,1.492,1.543
			c2.098,0.07,5.836,0.205,7.424,0.263c0.398,0.016,0.693,0.373,0.633,0.768L35.762,68.054L35.762,68.054z"/>
		<path fill="#E5E5E5" d="M33.273,49.773c-1.812-0.002-4.439,1.646-6.074,0.743c-0.033-0.719-0.105-1.461-0.049-2.174
			c0.154-2.021,0.832-3.995,0.967-6.025h9.006c0.135,2.03,0.812,4.004,0.969,6.025c0.055,0.713-0.01,0.712-0.043,1.431
			C35.953,49.829,35.082,49.771,33.273,49.773z"/>
		<g>
			<path fill="#F2C099" d="M32.264,40.17c0.004,0.26,0.02,0.512,0.051,0.751c0.129,0.959,0.494,1.756,1.092,2.374
				c1.213,1.252,2.971,1.321,3.35,1.321c0.039,0,0.062,0,0.07-0.002l-0.035-1.028c-0.018,0.002-1.637,0.037-2.648-1.017
				c-0.469-0.48-0.742-1.131-0.82-1.936c-0.014-0.151-0.023-0.304-0.025-0.456c-0.002-0.274-0.207-0.501-0.479-0.521
				c-0.01,0-0.023-0.002-0.033-0.002C32.502,39.656,32.262,39.883,32.264,40.17z M42.086,38.741
				c0.086,0.236,0.158,0.479,0.213,0.723c0.213,0.943,0.146,1.817-0.203,2.604c-0.707,1.595-2.332,2.269-2.688,2.397
				c-0.037,0.014-0.057,0.021-0.066,0.021l-0.322-0.979c0.018-0.004,1.549-0.53,2.137-1.868c0.271-0.612,0.305-1.317,0.1-2.099
				c-0.037-0.147-0.082-0.293-0.133-0.438c-0.094-0.258,0.021-0.542,0.271-0.654c0.01-0.003,0.02-0.01,0.029-0.013
				C41.688,38.342,41.99,38.473,42.086,38.741L42.086,38.741z"/>
			<path fill="#EF4C83" d="M35.795,48.697h4v-3.619c0-1.07-0.867-1.938-1.936-1.938h-0.127c-1.07,0-1.938,0.866-1.938,1.938V48.697
				L35.795,48.697z"/>
			<path fill="#F2C099" d="M36.822,43.125v0.837c0,0.562,0.457,1.021,1.021,1.021s1.021-0.457,1.021-1.021v-0.837H36.822
				L36.822,43.125z"/>
			<path fill="#EA937F" d="M36.822,43.125v0.808c0.336,0.08,0.678,0.121,1.021,0.12c0.346,0.001,0.688-0.04,1.021-0.12v-0.808
				H36.822L36.822,43.125z"/>
			<circle fill="#F2C099" cx="34.551" cy="40.497" r="0.533"/>
			<circle fill="#EA937F" cx="34.551" cy="40.498" r="0.327"/>
			<circle fill="#F2C099" cx="41.047" cy="40.497" r="0.533"/>
			<circle fill="#EA937F" cx="41.047" cy="40.498" r="0.327"/>
			<path fill="#F2C099" d="M34.545,39.37v1.106c0,1.75,1.344,3.256,3.092,3.339c1.869,0.088,3.41-1.399,3.41-3.248v-1.199
				c0-1.614-1.309-2.925-2.924-2.925h-0.654C35.855,36.445,34.545,37.755,34.545,39.37L34.545,39.37z"/>
			<path fill="#FFFFFF" d="M38.732,41.67c0,0.517-0.42,0.936-0.938,0.936c-0.516,0-0.934-0.419-0.934-0.936H38.732z"/>
			<circle fill="#352337" cx="39.467" cy="39.963" r="0.43"/>
			<circle fill="#352337" cx="36.125" cy="39.963" r="0.43"/>
			<path fill="#EA937F" d="M38.137,40.575v0.159c0,0.188-0.152,0.34-0.342,0.34c-0.188,0-0.34-0.151-0.34-0.34v-0.159H38.137z"/>
			<g>
				<path fill="#8C3537" d="M37.734,36.827l0.045,0.002c0.031,0.002,0.066,0,0.117-0.002c0.143-0.012,0.279-0.047,0.408-0.104
					c0.158-0.071,0.334-0.199,0.412-0.398c0.014-0.023,0.018-0.05,0.025-0.076l0.004-0.021c0-0.001,0.002-0.01,0.002-0.006
					l0.002-0.011l0.006-0.044c0.002-0.054,0-0.104-0.016-0.158c-0.029-0.105-0.104-0.2-0.199-0.263c-0.189-0.13-0.467-0.13-0.645,0
					c-0.086,0.063-0.145,0.163-0.148,0.262c-0.006,0.095,0.037,0.186,0.113,0.241c0.07,0.052,0.16,0.052,0.223,0.02
					c0.064-0.032,0.094-0.093,0.092-0.145c0.002-0.04-0.012-0.079-0.037-0.109c-0.02-0.021-0.031-0.026-0.031-0.026l0.008-0.015
					c0,0,0.016,0.006,0.037,0.029c0.021,0.021,0.047,0.062,0.049,0.122c0.004,0.057-0.029,0.133-0.104,0.171
					c-0.068,0.04-0.176,0.044-0.26-0.015c-0.082-0.054-0.145-0.159-0.141-0.275s0.062-0.231,0.162-0.31
					c0.195-0.154,0.502-0.167,0.729-0.025c0.113,0.067,0.209,0.178,0.25,0.308c0.021,0.062,0.027,0.134,0.025,0.2l-0.004,0.045
					l-0.002,0.011c0,0.012-0.002,0.011-0.002,0.016l-0.006,0.022c-0.008,0.031-0.014,0.063-0.025,0.092
					c-0.041,0.12-0.115,0.223-0.197,0.302c-0.078,0.073-0.166,0.135-0.264,0.182c-0.143,0.07-0.295,0.115-0.453,0.133
					c-0.061,0.005-0.107,0.008-0.135,0.007H37.73c-0.045-0.018-0.066-0.067-0.047-0.111C37.693,36.853,37.713,36.835,37.734,36.827
					L37.734,36.827z"/>
			</g>
			<g>
				<path fill="#EF4C83" d="M37.248,50.245h2.547v-1.723h-4v0.27C35.795,49.595,36.447,50.245,37.248,50.245z"/>
			</g>
			<g>
				<path fill="#E6B38C" d="M41.586,50.667l0.256-1.118l-1.867-0.428c-0.311-0.064-0.613,0.134-0.68,0.442
					c-0.062,0.303,0.125,0.603,0.424,0.675L41.586,50.667z"/>
			</g>
			<g>
				<path fill="#E6B38C" d="M37.998,51.639l0.848-0.772l-1.291-1.416c-0.211-0.236-0.572-0.259-0.809-0.048
					c-0.238,0.21-0.26,0.572-0.049,0.81c0.004,0.004,0.006,0.008,0.01,0.012L37.998,51.639z"/>
			</g>
			<g>
				<path fill="#E6B38C" d="M41.533,52.768l1.129-0.208l-0.479-2.575c-0.059-0.312-0.355-0.518-0.668-0.46l0,0
					c-0.312,0.059-0.518,0.356-0.461,0.668l0,0L41.533,52.768z"/>
				<path fill="#E6B38C" d="M43.367,53.224l-1.188,0.22c-0.277,0.053-0.545-0.132-0.598-0.409c0-0.001,0-0.001,0-0.001l-0.049-0.265
					l1.184-0.22c0.354-0.065,0.691,0.167,0.758,0.521C43.486,53.141,43.439,53.211,43.367,53.224z"/>
			</g>
			<g>
				<path fill="#E6B38C" d="M38.111,53.886l1.141-0.127l-0.293-2.604c-0.035-0.313-0.316-0.541-0.633-0.506
					c-0.314,0.035-0.541,0.319-0.506,0.634l0,0L38.111,53.886L38.111,53.886z"/>
				<path fill="#E6B38C" d="M39.908,54.472l-1.201,0.134c-0.281,0.032-0.533-0.17-0.564-0.451l0,0l-0.029-0.269l1.195-0.134
					c0.355-0.04,0.678,0.217,0.719,0.572C40.033,54.396,39.982,54.463,39.908,54.472z"/>
			</g>
		</g>
		<g>
			<path fill="#F2C099" d="M27.846,43.391l6.711,3.069l-1.023,2.239l-6.711-3.068L27.846,43.391z"/>
		</g>
		<circle fill="#F2C099" cx="35.064" cy="47.581" r="1.876"/>
		<circle fill="#F2C099" cx="39.898" cy="46.553" r="1.876"/>
	</g>
</g>
</svg>
