<?xml version="1.0" encoding="utf-8"?>
<!-- Generator: Adobe Illustrator 16.0.0, SVG Export Plug-In . SVG Version: 6.00 Build 0)  -->
<!DOCTYPE svg PUBLIC "-//W3C//DTD SVG 1.1//EN" "http://www.w3.org/Graphics/SVG/1.1/DTD/svg11.dtd">
<svg version="1.1" id="Layer_1" xmlns="http://www.w3.org/2000/svg" xmlns:xlink="http://www.w3.org/1999/xlink" x="0px" y="0px"
	 width="85px" height="85px" viewBox="0 0 85 85" enable-background="new 0 0 85 85" xml:space="preserve">
<g>
	<path d="M78.603,39.575c0.779,0.652,1.676,0.879,2.508,1.234c1.605,0.688,1.795,1.367,0.691,2.742
		c-1.121,1.398-2.482,2.518-4.121,3.254c-0.459,0.205-0.66,0.484-0.783,0.941c-0.441,1.629-1.25,3.057-2.48,4.223
		c-0.236,0.225-0.348,0.461-0.393,0.779c-0.357,2.6,0.359,4.973,1.502,7.256c1.473,2.941,3.469,5.566,5.123,8.398
		c1.814,3.113,2.008,6.357,0.711,9.699c-0.445,1.145-1.115,2.156-2.039,2.979c-0.898,0.797-1.924,1.223-3.158,1.221
		C52.761,82.29,29.358,82.29,5.956,82.308c-0.998,0.002-1.562-0.361-1.942-1.285c-2.797-6.768-1.403-15.584,5.14-20.947
		c0.59-0.482,0.59-0.73,0.104-1.299c-2.613-3.047-4.679-6.41-5.629-10.365c-1.041-4.328-0.319-8.488,1.225-12.566
		c1.279-3.381,3.038-6.543,4.488-9.844c0.968-2.203,1.819-4.441,1.956-6.881c0.16-2.887-0.607-5.451-2.682-7.553
		c-1.23-1.248-2.588-2.316-4.166-3.094C4.13,8.315,3.811,8.147,3.507,7.96c-1.333-0.816-1.348-1.73-0.006-2.578
		c1.766-1.113,3.691-1.863,5.744-2.227c5.842-1.033,11.152,0.154,15.703,4.051c3.518,3.016,5.229,6.979,5.514,11.553
		c0.408,6.531-1.729,12.193-5.984,17.113c-1.969,2.277-4.125,4.387-5.98,6.768c-1.469,1.885-2.717,3.889-3.18,6.283
		c-0.439,2.283-0.043,4.439,1,6.498c0.121,0.24,0.217,0.428,0.549,0.336c1.932-0.52,3.895-0.287,5.852-0.219
		c2.346,0.084,4.695,0.23,7.018-0.266c2.049-0.438,3.717-1.369,4.463-3.488c0.17-0.48,0.172-0.836-0.197-1.262
		c-0.83-0.957-1.266-2.129-1.527-3.354c-0.121-0.561-0.33-0.717-0.932-0.666c-1.588,0.131-3.133-0.174-4.625-0.727
		c-0.49-0.182-0.963-0.422-1.348-0.789c-0.713-0.68-0.613-1.658,0.244-2.15c0.889-0.508,1.764-1.02,2.479-1.773
		c0.336-0.354,0.436-0.584-0.01-0.982c-0.863-0.779-1.594-1.689-2.066-2.77c-0.629-1.438-0.096-2.271,1.449-2.244
		c2.133,0.041,4.027-0.516,5.605-2.02c0.336-0.318,0.465-0.6,0.344-1.068c-1.688-6.479-2.135-13.062-1.623-19.719
		c0.197-2.561,0.545-5.104,0.986-7.633c0.07-0.402,0.215-0.801,0.377-1.178c0.182-0.416,0.457-0.783,0.98-0.756
		c0.521,0.027,1.021,0.213,1.213,0.721c1.639,4.389,4.697,7.895,7.24,11.719c2.344,3.527,4.428,7.18,5.471,11.33
		c0.215,0.855,0.383,1.723,0.529,2.592c0.066,0.389,0.158,0.561,0.611,0.496c3.99-0.568,7.984-0.492,11.977-0.006
		c0.293,0.035,0.662,0.209,0.648-0.396c-0.086-3.771,1.238-7.121,3.119-10.307c1.924-3.258,4.283-6.225,6.285-9.432
		c1.125-1.801,2.166-3.645,2.836-5.678c0.189-0.574,0.598-0.91,1.199-1.006c0.623-0.098,0.898,0.342,1.143,0.775
		c1.041,1.865,1.443,3.93,1.748,6c1.129,7.701,0.754,15.307-1.643,22.752c-0.166,0.518-0.021,0.742,0.373,0.998
		c0.896,0.584,1.918,0.82,2.924,1.105c0.424,0.119,0.857,0.211,1.27,0.365c1.008,0.377,1.156,0.867,0.541,1.764
		c-0.555,0.805-1.295,1.432-2.021,2.07C79.423,38.882,79.044,39.198,78.603,39.575z"/>
	<path fill="#F88700" d="M34.446,44.155c-0.508-0.65-1.18-0.711-1.938-0.582c-1.01,0.174-2.016,0.545-3.143,0.176
		c0.555-0.615,1.076-1.172,1.572-1.752c0.27-0.312,0.521-0.646,0.73-1c0.492-0.836,0.408-1.244-0.33-1.859
		c-0.547-0.455-1.195-0.791-1.686-1.449c0.518-0.131,1.004-0.205,1.451-0.379c2.941-1.139,5.395-2.881,6.781-5.816
		c0.289-0.609,0.482-0.639,0.98-0.246c0.865,0.686,1.781,1.307,2.799,1.75c0.527,0.23,1.119,0.502,1.643,0.086
		c0.512-0.408,0.449-1.037,0.354-1.617c-0.377-2.266-1.088-4.438-1.893-6.578c-0.705-1.881-1.451-3.744-2.18-5.617
		c0.396-0.266,0.736,0.004,1.072,0.139c0.463,0.184,0.732,0.166,0.713-0.43c-0.01-0.236-0.016-0.5,0.238-0.654
		c2.465,3.824,4.26,7.902,4.752,12.479c0.17,1.572,0.463,1.789,2.111,1.535c3.012-0.461,6.035-0.689,9.08-0.453
		c1.705,0.135,3.404,0.344,5.111,0.463c2.078,0.146,2.281-0.051,2.092-2.098c-0.191-2.068-0.018-4.072,0.812-5.994
		c0.783-1.613,1.865-3.031,2.932-4.463c0.42-0.312,0.848-0.604,1.41-0.369c-1.164,3.016-2.121,6.084-2.402,9.326
		c-0.096,1.104-0.15,2.205,0.104,3.293c0.312,1.348,1.178,1.686,2.299,0.887c0.719-0.512,1.432-1.033,2.115-1.588
		c0.396-0.32,0.588-0.246,0.766,0.199c0.133,0.33,0.359,0.623,0.486,0.955c0.752,1.979,2.252,3.141,4.16,3.873
		c0.145,0.057,0.277,0.143,0.461,0.238c-0.674,0.562-1.338,1.059-1.877,1.689c-0.939,1.104-0.887,1.902,0.207,2.83
		c0.676,0.572,1.453,0.998,2.227,1.418c0.33,0.182,0.389,0.326,0.074,0.582c-0.492,0.404-1.002,0.777-1.562,1.076
		c-0.146,0.076-0.295,0.197-0.447,0.047c-0.705-0.689-1.354-0.352-1.996,0.102c-0.27,0.062-0.484-0.07-0.695-0.197
		c-3.305-1.998-6.465-1.568-9.523,0.561c-0.316,0.223-0.619,0.463-0.936,0.684c-1.477,0.207-2.684,0.898-3.73,1.951
		c-0.857,0.861-1.455,1.74-0.723,2.969c-0.367,0.979-0.963,1.846-1.365,2.809c-0.436,1.039-0.812,2.1-1.137,3.18
		c-0.094,0.311-0.119,0.658-0.441,0.852c-1.09-0.137-2.18-0.133-3.268,0.01c-0.213-0.115-0.295-0.32-0.352-0.535
		c-0.562-2.137-1.459-4.133-2.527-6.059c-0.039-0.072-0.053-0.156-0.064-0.236c0.732-1.264,0.121-2.158-0.77-3.035
		c-1.039-1.021-2.227-1.693-3.674-1.896c-0.98-0.721-1.977-1.4-3.107-1.885c-2.322-0.99-4.568-0.828-6.787,0.303
		C35.122,43.979,34.853,44.282,34.446,44.155z"/>
	<path fill="#F88700" d="M10.239,62.72c0.578-0.713,1.33-1.215,2.096-1.697c1.062-0.67,1.182-1.303,0.392-2.297
		c-0.799-1.01-1.793-1.855-2.478-2.963c-0.652-1.551-0.711-3.209-0.905-4.848c-0.304-2.57-0.093-5.115,0.269-7.658
		c0.635-4.49,2.239-8.629,4.549-12.514c0.678-1.137,1.328-2.289,1.955-3.457c1.24-2.318,2.02-4.766,2.18-7.4
		c0-0.518-0.008-1.033-0.006-1.549c0.051-1.352-0.021-2.705,0.012-4.057c0.025-1.033,0.234-1.18,1.205-0.807
		c1.521,0.58,3.023,1.209,4.539,1.809c0.852,0.336,0.877,0.314,0.883-0.576c0.004-0.801-0.01-1.602,0.006-2.402
		c0.006-0.322-0.043-0.672,0.256-0.92c1.795,2.221,2.438,4.852,2.607,7.611c0.367,5.975-1.691,11.088-5.645,15.504
		c-1.822,2.037-3.674,4.049-5.441,6.133c-2.021,2.385-3.625,5.004-4.055,8.191c-0.444,3.303,0.16,6.367,2.086,9.131
		c0.463,0.666,1.074,0.986,1.852,0.68c1.924-0.762,3.908-0.553,5.893-0.459c2.453,0.113,4.908,0.24,7.346-0.23
		c1.646-0.316,3.17-0.912,4.58-1.967c0.098,0.564-0.115,0.988-0.23,1.42c-0.635,2.318-1.822,4.365-3.145,6.346
		c-0.844,1.262-1.713,2.508-2.52,3.791c-1.248,1.986-2.1,4.111-2.016,6.625c-1.5-1.021-3.045-1.633-4.74-1.854
		c-0.076-0.348,0.223-0.486,0.369-0.693c1.018-1.432,1.668-2.98,1.561-4.775c-0.02-0.326-0.076-0.66-0.18-0.971
		c-0.193-0.582-0.52-1.111-1.232-0.969c-0.691,0.139-1.191,0.562-1.248,1.344c-0.043,0.604,0.076,1.209-0.088,1.811
		c-0.359,1.33-1.092,2.41-2.18,3.234c-0.725,0.549-1.492,1.037-2.242,1.553c-0.855,0.748-1.924,1.057-2.965,1.414
		c-1.626,0.559-1.781,0.959-0.913,2.441c-0.247,0.992-0.462,1.994-0.903,2.926c-0.441-0.002-0.885-0.006-1.326-0.01
		c-0.235-0.164-0.359-0.402-0.451-0.666c-0.786-2.264-1.342-4.568-1.28-6.986c0.013-0.73,0.009-1.463,0-2.193
		c-0.104-2.088,0.486-4.059,1.013-6.039C9.794,63.349,10.046,63.05,10.239,62.72z"/>
	<path fill="#F88700" d="M51.22,72.313c-2.873-0.572-5.6,0.441-8.428,0.867c0.15-0.824,0.465-1.492,0.76-2.168
		c0.363-0.83,0.162-1.465-0.559-1.811c-0.717-0.342-1.371-0.119-1.809,0.635c-0.361,0.625-0.564,1.312-0.795,1.992
		c-0.26,0.754-0.527,1.506-0.82,2.248c-0.547,1.383-0.014,2.188,1.447,2.074c0.877-0.066,1.744-0.246,2.617-0.375
		c0.344,0.162,0.23,0.459,0.203,0.721c-0.035,0.33-0.068,0.658,0.043,0.98c-0.016,0.734,0.475,1.391,0.338,2.145
		c-3.645-0.002-7.289-0.004-10.934-0.006c-0.449-0.156-0.707-0.512-0.932-0.9c-1.01-1.74-1.309-3.621-1.025-5.592
		c0.434-3.033,1.543-5.863,2.686-8.68c0.084-0.203,0.18-0.402,0.246-0.613c1.307-2.426,2.443-4.916,2.9-7.662
		c0.227-1.361,0.381-2.725,0.023-4.312c1.586,1.252,3.127,2.176,4.686,3.074c0.562,0.738,0.732,1.65,1.082,2.482
		c1.309,3.111,3.145,5.928,4.896,8.789c0.979,1.596,1.98,3.176,2.895,4.811C50.968,71.417,51.239,71.813,51.22,72.313z"/>
	<path fill="#F88700" d="M66.753,54.938c1.523-1.025,3.148-1.904,4.674-3.285c-0.059,1.156-0.209,2.117-0.107,3.088
		c0.305,2.988,1.334,5.73,2.746,8.352c0.129,0.24,0.24,0.492,0.359,0.738c0.951,2.121,1.66,4.328,2.348,6.543
		c0.688,2.227,1.008,4.482,0.262,6.758c-0.314,0.963-0.617,1.969-1.633,2.484c-3.254,0.01-6.506,0.02-9.758,0.025
		c-0.18,0-0.404,0.061-0.461-0.219c0.064-0.695,0.363-1.324,0.574-1.979c0.264-0.824,0.293-1.682,0.35-2.533
		c0.039-0.182,0.133-0.324,0.295-0.418c1.527,0.354,3.059,0.699,4.584,1.064c1.738,0.418,2.418-0.238,2.035-1.992
		c-0.195-0.896-0.574-1.723-0.979-2.539c-0.324-0.652-0.814-1.008-1.531-0.793c-0.703,0.211-0.939,0.801-0.912,1.498
		c0.01,0.234,0.066,0.471,0.113,0.781c-3.775-0.828-7.414-2.035-11.191-2.623c2.297-3.695,4.707-7.324,6.666-11.225
		C65.792,57.458,66.138,56.142,66.753,54.938z"/>
	<path fill="#ECE5D5" d="M66.753,54.938c-0.129,1.229-0.711,2.301-1.211,3.393c-1.705,3.719-4.023,7.084-6.139,10.568
		c-0.229,0.375-0.293,0.928-0.885,0.992c-1.184-0.08-2.361-0.146-3.543,0.078c-1.562,0.301-2.775,1.129-3.758,2.344
		c-2.451-4.615-5.604-8.826-7.869-13.547c-0.596-1.236-1.188-2.479-1.48-3.836c2.109,0.947,4.211,1.908,6.33,2.836
		c1.412,0.617,2.041,1.658,2.213,3.197c0.156,1.402,0.859,2.682,1.805,3.736c0.756,0.842,4.072,0.51,4.654-0.453
		c0.664-1.102,1.357-2.229,1.455-3.561c0.098-1.355,0.76-2.213,1.98-2.793C62.44,56.876,64.573,55.858,66.753,54.938z"/>
	<path fill="#E1710C" d="M18.511,19.921c-0.135,3.611-1.645,6.74-3.469,9.746c-2.225,3.668-4.043,7.506-4.889,11.738
		c-0.518,2.586-0.863,5.211-0.707,7.848c0.113,1.932,0.215,3.885,0.739,5.773c0.063,0.232,0.044,0.49,0.062,0.736
		c-4.338-5.496-5.631-11.533-3.241-18.23c0.946-2.656,2.187-5.182,3.468-7.682c1.895-3.691,3.326-7.506,3.566-11.691
		c0.121-0.096,0.258-0.088,0.387-0.041c1.277,0.475,2.549,0.975,3.799,1.518C18.356,19.69,18.435,19.808,18.511,19.921z"/>
	<path fill="#F1F1F1" d="M49.837,50.239c1.367,2.139,2.248,4.479,2.873,6.928c-0.418,0.27-0.717,0.244-1.1-0.17
		c-0.99-1.068-2.293-1.68-3.611-2.248c-2.572-1.107-5.168-2.164-7.506-3.746c-1.98-1.34-3.688-2.955-5.125-4.863
		c-0.455-0.602-0.812-1.23-0.922-1.984c3.674-2.363,7.174-2.002,10.998,1.119c-0.188,0.328-0.527,0.244-0.812,0.279
		c-1.086,0.139-1.979,0.65-2.73,1.416c-0.598,0.605-0.664,1.188-0.236,1.68c0.377,0.436,0.818,0.525,1.328,0.248
		c0.096-0.055,0.193-0.111,0.268-0.191c1.445-1.559,3.328-1.102,4.582,0.715C48.384,50.202,49.065,50.231,49.837,50.239z"/>
	<path fill="#F1F1F1" d="M63.239,45.274c2.039-1.637,4.236-2.857,6.975-2.613c1.6,0.145,3.01,0.789,4.314,1.691
		c-1.66,2.092-3.283,4.197-5.449,5.838c-2.463,1.865-5.199,3.189-8.012,4.396c-1.547,0.662-3.094,1.334-4.23,2.652
		c-0.338,0.391-0.576-0.029-0.859-0.082c0.627-2.443,1.498-4.785,2.873-6.918c1.006,0.113,1.609-0.363,2.25-1.146
		c1.17-1.434,2.693-1.896,4.221-0.484c0.609,0.562,1.145,0.562,1.611,0.115c0.477-0.457,0.477-1.076-0.08-1.693
		c-0.746-0.828-1.689-1.316-2.801-1.477C63.769,45.515,63.427,45.604,63.239,45.274z"/>
	<path fill="#ECE5D5" d="M25.188,11.384c-0.008,0.744-0.02,1.486-0.023,2.23s0,1.486,0,2.355c-2.229-0.883-4.383-1.736-6.66-2.641
		c0,1.73,0,3.346,0,4.963c-0.404-0.055-0.311-0.398-0.352-0.645c-0.369-2.318-1.453-4.287-2.783-6.193
		c-0.854-1.227-1.969-2.115-3.17-2.842c-1.252-0.756-2.607-1.416-4.097-1.684C7.825,6.88,7.288,7.038,7.43,6.403
		C13.458,3.938,21.69,6.247,25.188,11.384z"/>
	<path fill="#ECE5D5" d="M75.89,12.179c0.883,5.818,0.363,11.506-1.129,17.275c-0.268-0.453-0.436-0.787-0.648-1.088
		c-0.574-0.805-1.152-0.92-1.982-0.389c-0.348,0.223-0.656,0.506-0.996,0.74c-0.311,0.213-0.557,0.533-1.082,0.637
		C70.71,23.146,73.718,17.808,75.89,12.179z"/>
	<path fill="#EB7A07" d="M8.917,72.019c-0.077,2.645,0.672,5.127,1.496,7.594c-1.101,0.01-2.205-0.041-3.301,0.049
		c-0.758,0.062-1-0.283-1.16-0.918c-0.61-2.408-0.604-4.838-0.402-7.297c0.293-3.607,2.234-6.297,4.689-8.727
		c-0.403,1.42-0.795,2.838-1.09,4.287c-0.183,0.9-0.224,1.787-0.232,2.689C8.778,70.47,8.778,71.243,8.917,72.019z"/>
	<path fill="#DCD1BB" d="M7.431,6.403c0.029,0.25,0.206,0.264,0.411,0.301c2.101,0.387,3.874,1.41,5.649,2.576
		c1.697,1.117,2.576,2.793,3.553,4.375c0.783,1.27,1.303,2.77,1.336,4.346c0.002,0.098,0.082,0.195,0.125,0.291
		c0.002,0.543,0.004,1.084,0.006,1.627c-1.488-0.586-2.979-1.174-4.469-1.762c-0.053-4.977-2.688-8.395-6.646-11.014
		C7.237,7.036,7.079,6.927,6.921,6.817c-0.021-0.016-0.036-0.041-0.066-0.08C6.946,6.462,7.217,6.478,7.431,6.403z"/>
	<path fill="#ECE5D5" d="M34.769,14.007c1.129,3.629,2.732,7.076,4.072,10.625c0.523,1.383,1.061,2.76,1.457,4.316
		c-0.727-0.459-1.326-0.881-1.965-1.232c-1.465-0.803-2.193-0.402-2.395,1.268c-0.018,0.125-0.051,0.25-0.15,0.375
		c-1.168-4.832-1.496-9.734-1.314-14.686C34.667,14.495,34.317,14.075,34.769,14.007z"/>
	<path fill="#35495E" d="M11.739,79.62c0.041-1.049,0.435-2.004,0.812-2.961c-0.019-0.658,0.338-1.062,0.897-1.33
		c2.061-0.1,4.066,0.084,5.92,1.098c0.891,0.486,1.611,1.152,2.105,2.039c0.193,0.35,0.455,0.711,0.217,1.152
		C18.372,79.618,15.058,79.62,11.739,79.62z"/>
	<path fill="#475D71" d="M21.69,79.618c-0.572-2.463-3.127-3.652-5.301-3.939c-1.006-0.135-2.027-0.137-3.044-0.197
		c0.663-0.814,1.538-1.164,2.571-1.168c0.646,0.922,1.057,1.053,2.35,0.764c2.182-0.488,4.26-0.268,6.182,0.936
		c1.117,0.699,1.691,1.76,1.979,3.018c0.111,0.498-0.053,0.631-0.527,0.621C24.495,79.622,23.093,79.626,21.69,79.618z"/>
	<path fill="#2E4251" d="M44.22,79.622c-0.229-0.678-0.547-1.336-0.506-2.08c-0.152-0.463,0.135-0.697,0.494-0.797
		c1.895-0.52,3.826-0.781,5.791-0.803c0.195-0.002,0.375,0.084,0.523,0.219c0.848,2.744,2.646,3.188,4.34,3.115
		c1.104-0.047,2.146-0.424,3.133-0.938c0.363,0.354,0.814,0.66,0.662,1.279C53.845,79.62,49.032,79.62,44.22,79.622z"/>
	<path fill="#F66E00" d="M34.261,63.831c-0.25,1.414-0.855,2.715-1.318,4.062c-0.742,2.158-1.477,4.318-1.469,6.637
		c0.004,1.898,0.531,3.633,1.811,5.086c-1.232,0.279-2.053-0.396-2.77-1.24c-1.514-1.783-1.611-3.848-1.113-6.01
		c0.428-1.85,1.246-3.525,2.33-5.07C32.554,66.126,33.417,64.985,34.261,63.831z"/>
	<path fill="#F66F00" d="M75.399,79.616c1.604-1.918,2.035-4.121,1.707-6.561c-0.381-2.84-1.537-5.434-2.424-8.113
		c-0.121-0.363-0.32-0.707-0.258-1.113c1.387,2.176,3.254,4.037,4.215,6.488c0.701,1.793,1.16,3.617,0.748,5.562
		c-0.312,1.475-1.111,2.607-2.322,3.488C76.534,79.755,75.968,79.628,75.399,79.616z"/>
	<path fill="#617688" d="M53.358,75.991c-0.602-1.135-0.152-2.361,1.113-2.988c1.365-0.678,2.818-0.768,4.275-0.443
		c1.744,0.389,3.469,0.865,5.203,1.307c0.018,0.184-0.113,0.244-0.248,0.303c-1.123,0.064-2.242-0.133-3.369-0.004
		c-0.541,0.062-1.092,0.027-1.623,0.186c-1.209,0.57-2.463,1.035-3.713,1.504C54.485,76.044,53.938,76.356,53.358,75.991z"/>
	<path fill="#475D71" d="M58.644,74.333c1.338-0.377,2.688-0.598,4.086-0.381c0.348,0.055,0.707,0.041,1.061,0.059
		c0.861,0.186,1.799,0.143,2.496,0.824c0.066,1.635-0.334,3.156-1.104,4.588c-0.387-2.584-3.443-5.553-6.33-5.07
		C58.776,74.407,58.708,74.399,58.644,74.333z"/>
	<path fill="#35495D" d="M41.614,18.327c0,0.52,0,1.039,0,1.625c-0.734-0.248-1.379-0.463-2.023-0.68
		c-0.943-2.086-1.709-4.24-2.439-6.406c-0.156-0.459-0.256-0.939-0.311-1.445C38.595,13.62,40.274,15.854,41.614,18.327z"/>
	<path fill="#35495D" d="M50.522,76.161c-2.031-0.021-4.023,0.303-6.004,0.713c-0.354,0.074-0.795,0.137-0.805,0.668
		c-0.297-0.576,0.068-1.182-0.08-1.766c1.824-0.359,3.613-0.924,5.494-0.951C50.401,74.804,50.438,74.849,50.522,76.161z"/>
	<path fill="#35485D" d="M69.917,19.427c-0.479,0.07-0.916,0.25-1.33,0.498c-0.334,0.25-0.408-0.031-0.477-0.252
		c-0.074-0.234,0.059-0.473,0.035-0.713c1.432-2.32,3-4.545,4.771-6.656C71.917,14.677,70.917,17.052,69.917,19.427z"/>
	<path fill="#35495D" d="M58.657,79.618c-0.082-0.5-0.594-0.775-0.662-1.279c0.424-0.299,0.912-0.539,1.258-0.912
		c0.459-0.494,0.859-0.447,1.359-0.123c0.699,0.457,1.291,1.002,1.672,1.764c0.199,0.4,0.184,0.596-0.34,0.582
		C60.851,79.62,59.753,79.626,58.657,79.618z"/>
	<path fill="#F56E00" d="M15.917,74.313c-0.895,0.307-1.777,0.635-2.57,1.168c-0.408,0.295-0.477,0.82-0.796,1.178
		c-0.556-0.303-0.743-0.777-0.638-1.381c0.1-0.578,0.455-0.895,1.02-1.043c1.248-0.33,2.402-0.902,3.59-1.396
		C16.147,73.259,15.757,73.673,15.917,74.313z"/>
	<path fill="#35485D" d="M54.345,59.749c0.449,0.002,1.1,0.766,1.115,1.309c0.018,0.561-0.672,1.359-1.16,1.344
		c-0.424-0.014-1.09-0.85-1.072-1.348C53.245,60.507,53.896,59.749,54.345,59.749z"/>
	<path fill="#465C71" d="M58.644,74.333c0.068,0.006,0.139,0.012,0.209,0.02c-0.635,0.482-1.258,0.979-1.902,1.445
		c-0.703,0.508-1.465,0.883-2.361,0.865c-0.521-0.01-0.973-0.166-1.229-0.672c1.293-0.053,2.396-0.701,3.57-1.129
		C57.491,74.655,58.036,74.396,58.644,74.333z"/>
	<path fill="#DE6F0C" d="M68.147,18.96c0.324,0.24-0.236,0.885,0.439,0.965c-1.004,1.445-2.008,2.891-3.012,4.334
		C66.149,22.356,67.146,20.655,68.147,18.96z"/>
	<path fill="#586C7E" d="M66.286,74.835c-0.777-0.439-1.686-0.482-2.496-0.824c0.055-0.049,0.107-0.098,0.162-0.146
		c0.828,0.164,1.656,0.324,2.449,0.627C66.362,74.606,66.325,74.722,66.286,74.835z"/>
	<path fill="#6B6861" d="M34.769,14.007c-0.316,0.127-0.1,0.488-0.295,0.666c-0.012-0.238-0.035-0.479-0.027-0.717
		c0.004-0.113-0.066-0.322,0.123-0.314C34.749,13.649,34.798,13.831,34.769,14.007z"/>
	<path fill="#35495E" d="M49.837,50.239c-1.084,0.395-1.428,0.293-2.08-0.658c-0.316-0.463-0.725-0.826-1.18-1.139
		c-1.07-0.74-2.027-0.658-2.967,0.248c-0.762,0.732-1.498,0.812-2.082,0.223c-0.59-0.598-0.521-1.344,0.213-2.105
		c1.01-1.049,2.262-1.523,3.703-1.533c1.979,0.188,3.381,1.309,4.502,2.838C50.571,48.962,50.513,49.382,49.837,50.239z"/>
	<path fill="#35495E" d="M63.239,45.274c1.631,0.021,3.008,0.598,4.018,1.912c0.453,0.592,0.371,1.33-0.164,1.779
		c-0.561,0.471-1.152,0.477-1.727,0.016c-1.857-1.492-3.109-1.309-4.484,0.672c-0.602,0.865-0.977,0.975-2.031,0.586
		c-0.676-0.855-0.734-1.279-0.111-2.127C59.86,46.585,61.261,45.46,63.239,45.274z"/>
	<path fill="#EC7C06" d="M8.917,72.019c-0.266-0.773-0.266-1.549,0-2.32C8.917,70.47,8.917,71.243,8.917,72.019z"/>
</g>
</svg>
