<?xml version="1.0" encoding="utf-8"?>
<!-- Generator: Adobe Illustrator 16.0.0, SVG Export Plug-In . SVG Version: 6.00 Build 0)  -->
<!DOCTYPE svg PUBLIC "-//W3C//DTD SVG 1.1//EN" "http://www.w3.org/Graphics/SVG/1.1/DTD/svg11.dtd">
<svg version="1.1" id="emoji" xmlns="http://www.w3.org/2000/svg" xmlns:xlink="http://www.w3.org/1999/xlink" x="0px" y="0px"
	 width="85px" height="85px" viewBox="0 0 85 85" enable-background="new 0 0 85 85" xml:space="preserve">
<g>
	<g id="color">
		<path fill="#92D3F5" d="M42.814,10.406c-18.84,0-34.125,15.285-34.125,34.127c0,18.84,15.285,34.127,34.125,34.127
			s34.127-15.287,34.127-34.127C76.92,25.691,61.656,10.42,42.814,10.406z"/>
		<path fill="#FFFFFF" d="M8.191,44.945c-1.076,2.48-1.604,5.166-1.549,7.871c0.233,6.75,1.791,13.391,4.584,19.537
			c0.389,0.818,1.019,0.818,1.407,0c2.792-6.152,4.351-12.793,4.587-19.553l0,0c-0.002-6.133-2.375-11.123-5.291-11.123
			c-1.41-0.004-2.738,1.152-3.738,3.256V44.945z"/>
		<path fill="#FFFFFF" d="M69.332,44.945c-1.074,2.48-1.604,5.166-1.547,7.871c0.232,6.75,1.791,13.391,4.584,19.537
			c0.391,0.818,1.02,0.818,1.408,0c2.791-6.152,4.352-12.793,4.584-19.553l0,0c0-6.133-2.373-11.123-5.289-11.123
			c-1.41-0.004-2.736,1.152-3.736,3.256L69.332,44.945z"/>
		<path fill="#FFFFFF" d="M21.997,67.598c-0.769,1.258-1.162,2.709-1.132,4.184c0.216,3.693,1.369,7.27,3.352,10.393
			c0.133,0.283,0.473,0.406,0.756,0.271c0.121-0.057,0.217-0.152,0.273-0.271c1.982-3.125,3.135-6.701,3.354-10.395
			c-0.002-3.262-1.736-5.914-3.867-5.914C23.583,65.934,22.55,66.588,21.997,67.598L21.997,67.598z"/>
		<path fill="#FFFFFF" d="M58.969,67.598c-0.771,1.258-1.164,2.709-1.133,4.184c0.217,3.693,1.369,7.27,3.352,10.393
			c0.133,0.283,0.473,0.406,0.756,0.271c0.121-0.057,0.217-0.152,0.273-0.271c1.98-3.125,3.135-6.701,3.352-10.395
			c0-3.262-1.734-5.914-3.867-5.914C60.553,65.934,59.52,66.588,58.969,67.598L58.969,67.598z"/>
		<path fill="#FFFFFF" d="M54.9,63.402H30.729c-3.137-0.01-5.679-2.551-5.688-5.688c0.009-3.139,2.551-5.682,5.688-5.689H54.9
			c3.137,0.01,5.68,2.553,5.689,5.689C60.578,60.852,58.037,63.393,54.9,63.402z"/>
		<path fill="#FFFFFF" d="M60.361,17.232c1.131-0.236,2.164-1.258,2.367-3.98c0.426-5.672-12.797-5.688-12.797-5.688
			s-4.268,0-12.798-4.266c-8.532-4.268-17.063,9.953-17.063,9.953s-4.266,8.531-7.108,7.109s-7.11,2.844-4.267,8.531
			c0,0,1.423,9.955,8.533,2.844c7.109-7.107,4.266-11.375,14.219-9.953c9.953,1.42,15.641,0,15.641-2.844s7.109-5.688,9.955-2.844
			C57.887,17.008,59.135,17.436,60.361,17.232"/>
	</g>
	<g id="line">
		<path fill="none" stroke="#000000" stroke-width="2" stroke-linecap="round" stroke-miterlimit="10" d="M53.934,75.303
			c-6.705,2.412-14.012,2.578-20.816,0.477"/>
		<path fill="none" stroke="#000000" stroke-width="2" stroke-linecap="round" stroke-miterlimit="10" d="M64.016,19.635
			c5.43,4.621,9.199,10.889,10.734,17.846"/>
		<path fill="none" stroke="#000000" stroke-width="2" stroke-linecap="round" stroke-miterlimit="10" d="M10.906,37.309
			c0.22-0.969,0.48-1.92,0.779-2.85"/>
		<path fill="none" stroke="#000000" stroke-width="2" stroke-miterlimit="10" d="M8.191,44.945
			c-1.076,2.48-1.604,5.166-1.549,7.871c0.233,6.75,1.791,13.391,4.584,19.537c0.389,0.818,1.019,0.818,1.407,0
			c2.792-6.152,4.351-12.793,4.587-19.553l0,0c-0.002-6.133-2.375-11.123-5.291-11.123c-1.41-0.004-2.738,1.152-3.738,3.256V44.945z
			"/>
		<path fill="none" stroke="#000000" stroke-width="2" stroke-miterlimit="10" d="M69.332,44.945
			c-1.074,2.48-1.604,5.166-1.547,7.871c0.232,6.75,1.791,13.391,4.584,19.537c0.391,0.818,1.02,0.818,1.408,0
			c2.791-6.152,4.352-12.793,4.584-19.553l0,0c0-6.133-2.373-11.123-5.289-11.123c-1.41-0.004-2.736,1.152-3.736,3.256
			L69.332,44.945z"/>
		<path fill="none" stroke="#000000" stroke-width="2" stroke-miterlimit="10" d="M21.997,67.598
			c-0.769,1.258-1.162,2.709-1.132,4.184c0.216,3.693,1.369,7.27,3.352,10.393c0.133,0.283,0.473,0.406,0.756,0.271
			c0.121-0.057,0.217-0.152,0.273-0.271c1.982-3.125,3.135-6.701,3.354-10.395c-0.002-3.262-1.736-5.914-3.867-5.914
			C23.583,65.934,22.55,66.588,21.997,67.598L21.997,67.598z"/>
		<path fill="none" stroke="#000000" stroke-width="2" stroke-miterlimit="10" d="M58.969,67.598
			c-0.771,1.258-1.164,2.709-1.133,4.184c0.217,3.693,1.369,7.27,3.352,10.393c0.133,0.283,0.473,0.406,0.756,0.271
			c0.121-0.057,0.217-0.152,0.273-0.271c1.98-3.125,3.135-6.701,3.352-10.395c0-3.262-1.734-5.914-3.867-5.914
			C60.553,65.934,59.52,66.588,58.969,67.598L58.969,67.598z"/>
		<path fill="none" stroke="#000000" stroke-width="2" stroke-miterlimit="2" d="M54.9,63.402H30.729
			c-3.137-0.01-5.679-2.551-5.688-5.688c0.009-3.139,2.551-5.682,5.688-5.689H54.9c3.137,0.01,5.68,2.553,5.689,5.689
			C60.578,60.852,58.037,63.393,54.9,63.402z"/>
		
			<line fill="none" stroke="#000000" stroke-width="2" stroke-linecap="round" stroke-linejoin="round" x1="31.439" y1="52.736" x2="31.439" y2="62.691"/>
		
			<line fill="none" stroke="#000000" stroke-width="2" stroke-linecap="round" stroke-linejoin="round" x1="38.549" y1="52.736" x2="38.549" y2="62.691"/>
		
			<line fill="none" stroke="#000000" stroke-width="2" stroke-linecap="round" stroke-linejoin="round" x1="45.658" y1="52.736" x2="45.658" y2="62.691"/>
		
			<line fill="none" stroke="#000000" stroke-width="2" stroke-linecap="round" stroke-linejoin="round" x1="52.768" y1="52.736" x2="52.768" y2="62.691"/>
		<path fill="none" stroke="#000000" stroke-width="2" stroke-miterlimit="10" d="M60.361,17.232
			c1.131-0.236,2.164-1.258,2.367-3.98c0.426-5.672-12.797-5.688-12.797-5.688s-4.268,0-12.798-4.266
			c-8.532-4.268-17.063,9.953-17.063,9.953s-4.266,8.531-7.108,7.109s-7.11,2.844-4.267,8.531c0,0,1.423,9.955,8.533,2.844
			c7.109-7.107,4.266-11.375,14.219-9.953c9.953,1.42,15.641,0,15.641-2.844s7.109-5.688,9.955-2.844
			C57.887,17.008,59.135,17.436,60.361,17.232"/>
		<path d="M34.283,37.424c0,2.355-1.913,4.266-4.266,4.266c-2.354,0-4.267-1.91-4.267-4.266s1.913-4.268,4.267-4.268
			C32.37,33.156,34.283,35.07,34.283,37.424"/>
		<path d="M59.879,37.424c0,2.355-1.914,4.266-4.268,4.266s-4.266-1.91-4.266-4.266s1.912-4.268,4.266-4.268
			S59.879,35.07,59.879,37.424"/>
	</g>
</g>
</svg>
