<?xml version="1.0" encoding="utf-8"?>
<!-- Generator: Adobe Illustrator 16.0.2, SVG Export Plug-In . SVG Version: 6.00 Build 0)  -->
<!DOCTYPE svg PUBLIC "-//W3C//DTD SVG 1.1 Tiny//EN" "http://www.w3.org/Graphics/SVG/1.1/DTD/svg11-tiny.dtd">
<svg version="1.1" baseProfile="tiny" id="Layer_1" xmlns="http://www.w3.org/2000/svg" xmlns:xlink="http://www.w3.org/1999/xlink"
	 x="0px" y="0px" width="85px" height="85px" viewBox="0 0 85 85" xml:space="preserve">
<g>
	<path fill-rule="evenodd" d="M55.721,2.578c13.521,0.03,24.785,9.916,26.548,23.1c1.844,13.788-7.521,26.93-21.132,29.527
		c-7.865,1.502-15.041-0.21-21.442-5.043c-0.422-0.318-0.666-0.353-1.027,0.06c-0.506,0.578-1.063,1.114-1.626,1.638
		c-1.119,1.04-2.761,1.021-3.797-0.02c-1.05-1.054-1.07-2.67-0.025-3.794c0.524-0.563,1.061-1.119,1.636-1.627
		c0.388-0.344,0.432-0.568,0.088-1.008c-2.872-3.661-4.707-7.808-5.294-12.414C28.456,23.668,31.3,15.715,38.26,9.363
		C43.241,4.816,49.222,2.672,55.721,2.578z"/>
	<path fill-rule="evenodd" d="M23.213,49.833c0.126-0.259,0.345-0.412,0.617-0.445c4.26-0.523,6.488,2.063,6.41,5.11
		c-0.046,1.829,0.001,3.661-0.016,5.492c-0.004,0.406,0.078,0.589,0.529,0.68c2.298,0.459,3.889,2.387,3.907,4.661
		c0.018,2.293-1.586,4.268-3.933,4.716c-0.64,0.121-0.49,0.498-0.495,0.859c-0.086,5.431-3.934,10.166-9.153,11.254
		c-7.195,1.501-13.821-3.619-14.145-10.963c-0.032-0.717-0.124-1.064-0.95-1.264c-2.221-0.534-3.577-2.548-3.48-4.882
		c0.087-2.117,1.659-3.946,3.837-4.375c0.498-0.099,0.57-0.31,0.566-0.739c-0.018-1.778-0.012-3.556-0.006-5.333
		c0.007-2.376,1.071-4.098,3.002-4.878c1.935-0.781,3.875-0.28,5.512,1.463c0.265,0.282,0.373,0.258,0.575-0.028
		c0.278-0.393,0.65-0.695,1.047-0.965c0.448-0.305,0.877-0.357,1.267,0.099c0.501,0.439,0.329,0.909-0.082,1.213
		c-1.282,0.951-1.56,2.245-1.466,3.73c0.055,0.871,0.023,1.748,0.005,2.622c-0.011,0.554,0.173,0.824,0.775,0.822
		c3.365-0.014,6.729-0.008,10.094-0.006c0.535,0,0.768-0.223,0.764-0.759c-0.009-1.245,0.039-2.491-0.016-3.734
		c-0.077-1.73-1.269-2.889-3.012-2.986c-0.423-0.022-0.849,0.013-1.271-0.028C23.217,51.083,22.986,50.727,23.213,49.833z"/>
	<path fill-rule="evenodd" fill="#868686" d="M23.213,49.833c-0.05,0.947,0.107,1.109,1.051,1.133
		c0.659,0.015,1.322-0.066,1.977,0.117c1.404,0.392,2.361,1.557,2.389,3.014c0.027,1.404-0.006,2.811,0.017,4.216
		c0.007,0.435-0.102,0.602-0.571,0.6c-3.66-0.018-7.319-0.021-10.979,0.002c-0.534,0.003-0.602-0.217-0.595-0.661
		c0.022-1.325,0.015-2.651,0.006-3.978c-0.007-1.144,0.426-2.062,1.369-2.717c0.467-0.324,0.731-0.691,0.426-1.264
		c0.525-0.046,1.049-0.091,1.574-0.137c0.133,0.029,0.218,0.126,0.314,0.213c0.554,0.498,0.735,0.471,1.106-0.161
		c0.052-0.09,0.097-0.181,0.192-0.232C22.088,50.207,22.685,50.422,23.213,49.833z"/>
	<path fill-rule="evenodd" d="M42.45,60.012c0.42-0.006,0.711,0.177,0.838,0.585c0.119,0.379,0.212,0.765,0.34,1.142
		c0.352,1.038,0.995,1.794,2.083,2.108c0.483,0.141,0.917,0.347,0.903,0.941c-0.013,0.55-0.417,0.753-0.873,0.887
		c-1.115,0.325-1.783,1.09-2.125,2.17c-0.121,0.378-0.213,0.765-0.343,1.14c-0.127,0.364-0.421,0.555-0.793,0.551
		c-0.369-0.004-0.658-0.193-0.785-0.562c-0.068-0.2-0.119-0.407-0.161-0.614c-0.275-1.323-1.001-2.25-2.316-2.675
		c-0.445-0.145-0.854-0.351-0.862-0.905c-0.008-0.554,0.376-0.787,0.837-0.911c1.451-0.39,2.029-1.494,2.355-2.822
		C41.669,60.557,41.779,60.035,42.45,60.012z"/>
	<path fill-rule="evenodd" d="M11.579,42.861c0.001-0.462,0.238-0.746,0.676-0.855c1.506-0.379,2.182-1.481,2.511-2.88
		c0.127-0.54,0.275-1.069,0.967-1.052c0.646,0.016,0.796,0.541,0.906,1.039c0.32,1.453,1.05,2.526,2.573,2.917
		c0.407,0.104,0.628,0.416,0.62,0.823c-0.008,0.406-0.237,0.699-0.646,0.804c-1.525,0.396-2.232,1.492-2.555,2.937
		c-0.113,0.502-0.27,1.014-0.925,1.009c-0.7-0.006-0.825-0.543-0.934-1.082c-0.278-1.38-1.013-2.357-2.405-2.785
		C11.951,43.605,11.579,43.39,11.579,42.861z"/>
	<path fill-rule="evenodd" fill="#050505" d="M21.491,49.978c0.029,0.464-0.071,0.864-0.598,0.966
		c-0.615,0.118-0.833-0.32-1.015-0.785c0.046-0.495,0.396-0.717,0.816-0.766C21.086,49.347,21.383,49.568,21.491,49.978z"/>
	<path fill-rule="evenodd" fill="#EFBF20" d="M80.884,28.842c0.022,12.876-9.382,23.585-21.897,25.09
		c-7.09,0.853-13.439-1.054-18.998-5.551c-0.832-0.674-1.035-0.672-1.803,0.092c-0.696,0.693-1.38,1.396-2.083,2.083
		c-0.602,0.586-1.281,0.627-1.75,0.131c-0.453-0.478-0.406-1.11,0.155-1.687c0.703-0.723,1.426-1.427,2.137-2.143
		c0.719-0.724,0.729-0.956,0.078-1.74c-3.275-3.953-5.229-8.491-5.649-13.59c-0.683-8.298,2.013-15.4,8.229-20.963
		C53.594-2.221,76.197,5.16,80.344,23.912C80.723,25.624,80.921,27.365,80.884,28.842z"/>
	<path fill-rule="evenodd" fill="#FEB59E" d="M18.579,60.494c3.104,0,6.207,0.013,9.311-0.012c0.545-0.004,0.776,0.061,0.768,0.709
		c-0.04,3.209-0.001,6.419-0.023,9.628c-0.037,5.354-4.095,9.593-9.557,10.016c-4.956,0.384-9.657-3.436-10.47-8.522
		c-0.088-0.548-0.105-1.111-0.106-1.666c-0.01-3.156,0.009-6.313-0.02-9.47c-0.005-0.566,0.161-0.7,0.708-0.695
		C12.319,60.508,15.449,60.494,18.579,60.494z"/>
	<path fill-rule="evenodd" fill="#868686" d="M11.688,58.902c-0.848,0-1.696-0.022-2.542,0.009c-0.473,0.018-0.656-0.12-0.645-0.62
		c0.029-1.377-0.013-2.755,0.019-4.132c0.042-1.793,1.368-3.141,3.091-3.192c1.69-0.051,3.186,1.265,3.283,3.017
		c0.082,1.479,0.011,2.966,0.031,4.449c0.005,0.411-0.188,0.479-0.535,0.475C13.489,58.893,12.588,58.902,11.688,58.902z"/>
	<path fill-rule="evenodd" fill="#FCB49D" d="M6.903,65.394c0,0.872-0.019,1.745,0.008,2.616c0.014,0.467-0.169,0.536-0.57,0.428
		c-1.289-0.353-2.261-1.688-2.251-3.114c0.011-1.386,0.985-2.7,2.241-3.04c0.382-0.103,0.595-0.069,0.58,0.415
		C6.883,63.596,6.903,64.495,6.903,65.394z"/>
	<path fill-rule="evenodd" fill="#FDB59E" d="M30.231,65.328c0-0.875,0.023-1.75-0.009-2.623c-0.018-0.471,0.163-0.53,0.558-0.428
		c1.244,0.324,2.261,1.662,2.288,3.033c0.026,1.378-0.993,2.762-2.271,3.126c-0.483,0.139-0.589-0.031-0.574-0.485
		C30.252,67.077,30.231,66.202,30.231,65.328z"/>
	<path fill-rule="evenodd" fill="#ECBD1F" d="M42.464,63.403c0.088,0.062,0.114,0.071,0.129,0.09
		c0.347,0.442,0.957,0.883,0.961,1.328c0.003,0.401-0.658,0.809-1.034,1.223c-0.024-0.008-0.089-0.009-0.118-0.042
		c-0.375-0.425-0.745-0.855-1.115-1.284C41.75,64.364,42.1,63.906,42.464,63.403z"/>
	<path fill-rule="evenodd" fill="#ECBD1F" d="M14.432,42.87c0.5-0.45,0.916-0.857,1.214-1.419c0.375,0.417,0.708,0.813,1.07,1.18
		c0.185,0.188,0.133,0.283-0.027,0.446c-0.314,0.32-0.548,0.869-0.906,0.958c-0.419,0.104-0.56-0.592-0.936-0.819
		C14.715,43.134,14.604,43.015,14.432,42.87z"/>
	<path fill-rule="evenodd" fill="#E7A51E" d="M74.028,22.21c-0.032,3.145-1.391,5.455-4.332,6.744
		c-0.236,0.104-0.438,0.186-0.44,0.479c-0.005,0.389,0.34,0.391,0.563,0.443c2.793,0.66,4.414,3.359,4.363,5.894
		c-0.051,2.549-2.371,5.159-4.916,5.456c-0.463,0.054-0.688,0.234-0.854,0.665c-1.911,4.976-5.429,8.235-10.63,9.424
		c-5.122,1.172-9.667-0.153-13.514-3.76c-1.628-1.527-2.842-3.331-3.585-5.444c-0.181-0.514-0.453-0.791-1.107-0.917
		c-4.448-0.854-6.028-5.869-3.64-9.125c0.747-1.018,1.706-1.695,2.836-2.065c0.846-0.276,1.009-0.788,1.008-1.519
		c-0.002-2.016-0.009-4.032,0.002-6.048c0.013-2.423,1.133-4.311,2.933-5.822c1.475-1.238,3.265-1.854,5.135-1.758
		c1.801,0.092,3.598,0.079,5.395,0.08c0.938,0.001,1.902-0.035,2.815-0.329c1.83-0.59,3.113-2.314,3.145-4.241
		c0.026-1.715,0.723-3.029,2.291-3.769c1.454-0.686,2.872-0.522,4.211,0.381c4.488,3.026,7.176,7.226,8.128,12.534
		C73.991,20.391,74.126,21.291,74.028,22.21z"/>
	<path fill-rule="evenodd" fill="#FEE4AD" d="M56.684,6.648c-0.036,0.579-0.492,0.668-1.051,0.678
		c-3.362,0.063-6.575,0.799-9.554,2.363c-6.053,3.177-9.889,8.101-11.421,14.784c-0.244,1.062-0.563,1.477-1.139,1.296
		c-0.858-0.27-0.582-0.929-0.444-1.519c1.883-8.107,6.702-13.73,14.368-16.912c2.621-1.087,5.384-1.556,8.216-1.605
		C56.385,5.722,56.694,5.996,56.684,6.648z"/>
	<path fill-rule="evenodd" fill="#FEE3AB" d="M32.578,28.665c0.014-0.238-0.008-0.484,0.048-0.711
		c0.106-0.427,0.454-0.622,0.845-0.542c0.662,0.134,0.742,0.685,0.705,1.242c-0.036,0.554-0.036,1.172-0.791,1.262
		c-0.426,0.051-0.711-0.186-0.78-0.617c-0.033-0.207-0.005-0.422-0.005-0.634C32.592,28.665,32.585,28.665,32.578,28.665z"/>
	<path fill-rule="evenodd" d="M18.522,76.805c-2.531-0.021-4.664-2.065-4.734-4.517c-0.016-0.544,0.111-0.991,0.704-1.045
		c0.588-0.055,0.816,0.353,0.89,0.893c0.263,1.933,1.464,3.08,3.194,3.075c1.732-0.006,2.986-1.202,3.192-3.089
		c0.063-0.569,0.316-0.935,0.888-0.875c0.579,0.061,0.733,0.506,0.71,1.052C23.264,74.786,21.079,76.825,18.522,76.805z"/>
	<path fill-rule="evenodd" fill="#010101" d="M19.375,67.219c0,0.74,0.002,1.479,0,2.219c-0.002,0.536-0.183,0.96-0.793,0.97
		c-0.611,0.01-0.804-0.387-0.801-0.941c0.006-1.505,0.006-3.011,0-4.516c-0.002-0.516,0.176-0.907,0.733-0.935
		c0.596-0.031,0.848,0.356,0.858,0.906C19.385,65.688,19.375,66.454,19.375,67.219z"/>
	<path fill-rule="evenodd" fill="#040303" d="M13.848,65.493c0,0.211,0.016,0.423-0.003,0.633c-0.039,0.439-0.334,0.674-0.732,0.698
		c-0.407,0.022-0.739-0.208-0.794-0.626c-0.062-0.468-0.067-0.95-0.03-1.421c0.037-0.476,0.316-0.795,0.831-0.768
		c0.512,0.028,0.734,0.356,0.741,0.849c0.003,0.212,0,0.423,0,0.635C13.856,65.493,13.852,65.493,13.848,65.493z"/>
	<path fill-rule="evenodd" fill="#040302" d="M24.838,65.38c-0.001,0.629,0.128,1.436-0.795,1.424c-0.9-0.01-0.797-0.807-0.799-1.44
		c0-0.158-0.007-0.318,0.003-0.477c0.036-0.508,0.259-0.881,0.815-0.875c0.558,0.006,0.778,0.369,0.775,0.894
		C24.838,65.063,24.839,65.223,24.838,65.38z"/>
	<path fill-rule="evenodd" d="M69.746,14.366c0.598-0.128,0.937,0.152,1.182,0.677c1.113,2.391,1.722,4.89,1.683,7.534
		c-0.037,2.483-1.678,4.628-4.077,5.261c-0.525,0.139-0.809,0.321-0.695,0.891c0.011,0.051,0.001,0.105,0.001,0.159
		c0.002,0.637-0.172,1.347,0.053,1.891c0.271,0.652,1.115,0.286,1.688,0.469c2.008,0.642,3.381,2.652,3.139,4.711
		c-0.261,2.217-1.969,3.828-4.294,3.934c-0.693,0.032-0.961,0.216-1.164,0.906c-1.654,5.604-6.972,9.514-12.818,9.492
		c-5.865-0.021-11.11-3.956-12.737-9.593c-0.164-0.57-0.364-0.78-0.995-0.798c-2.538-0.076-4.4-1.911-4.442-4.277
		c-0.042-2.465,1.707-4.36,4.265-4.525c0.586-0.038,0.624-0.271,0.621-0.724c-0.012-2.361,0.079-4.726-0.021-7.083
		c-0.16-3.761,2.654-7.084,6.959-7.001c2.041,0.04,4.085,0.011,6.128,0.005c3.728-0.01,6.194-2.343,6.405-6.05
		c0.124-2.187,2.271-3.317,4.138-2.157c0.605,0.376,1.15,0.849,1.732,1.264c0.485,0.346,0.619,0.768,0.34,1.306
		c-0.336,0.623-0.813,0.469-1.284,0.21c-0.488-0.269-0.886-0.673-1.358-0.97c-1.094-0.689-1.591-0.464-1.748,0.799
		c-0.454,3.613-2.307,6.077-5.861,7.155c-0.489,0.149-0.983,0.2-1.49,0.2c-2.043-0.002-4.086,0.009-6.128-0.006
		c-0.803-0.006-1.591,0.093-2.371,0.239c-1.923,0.361-3.499,2.214-3.557,4.165c-0.026,0.928-0.012,1.857-0.004,2.786
		c0.007,0.884,0.078,0.958,0.95,0.963c1.325,0.009,2.652,0.002,3.978,0.002c3.636,0,7.27-0.027,10.903,0.017
		c1.12,0.014,1.801-0.483,2.256-1.421c0.551-1.134,0.664-2.337,0.517-3.572c-0.114-0.947-0.16-1.903-0.358-2.84
		c-0.022-0.104-0.029-0.21-0.029-0.316c0.002-0.539,0.214-0.936,0.776-1.043c0.547-0.104,0.924,0.132,1.13,0.647
		c0.221,0.55,0.259,1.137,0.337,1.713c0.289,2.144,0.472,4.28-0.494,6.328c-0.226,0.479,0.095,0.508,0.415,0.43
		c1.247-0.306,2.1-1.073,2.582-2.263c0.526-1.3,0.258-2.615,0.071-3.926c-0.104-0.736-0.305-1.454-0.506-2.169
		c-0.064-0.23-0.141-0.457-0.161-0.697c-0.047-0.563,0.12-1.016,0.717-1.161c0.578-0.141,0.991,0.114,1.197,0.659
		c0.396,1.046,0.665,2.132,0.807,3.237c0.168,1.31,0.396,2.623,0.058,3.952c-0.211,0.829-0.626,1.56-1.021,2.317
		c1.789,0.213,3.541-1.471,3.605-3.445c0.07-2.182-0.345-4.273-1.23-6.271c-0.129-0.291-0.28-0.575-0.35-0.887
		C69.067,14.968,69.144,14.532,69.746,14.366z"/>
	<path fill-rule="evenodd" fill="#FB5D3D" d="M69.746,14.366c-0.559,0.416-0.499,0.892-0.221,1.465
		c1.017,2.083,1.483,4.299,1.49,6.612c0.008,2.424-1.903,4.162-4.402,3.96c2.464-3.126,1.391-6.423,0.508-9.705
		c-0.145-0.537-0.535-0.821-1.091-0.615c-0.584,0.216-0.562,0.714-0.395,1.202c0.572,1.67,0.878,3.388,0.874,5.15
		c-0.006,2.281-1.733,4.055-3.854,4.01c-0.071-0.001-0.143-0.035-0.276-0.069c1.651-2.688,1.093-5.528,0.67-8.362
		c-0.09-0.595-0.376-0.961-1.007-0.826c-0.604,0.13-0.65,0.61-0.563,1.13c0.295,1.753,0.581,3.508,0.288,5.293
		c-0.109,0.664-0.352,1.278-0.737,1.827c-0.469,0.668-1.075,1.029-1.941,1.025c-5.2-0.022-10.4-0.021-15.602,0.002
		c-0.587,0.002-0.787-0.141-0.756-0.747c0.055-1.085-0.016-2.177,0.043-3.262c0.129-2.382,1.979-4.359,4.363-4.484
		c2.435-0.129,4.879-0.056,7.318-0.088c3.741-0.048,6.678-2.333,7.532-5.875c0.136-0.562,0.162-1.152,0.229-1.73
		c0.107-0.92,0.865-1.341,1.659-0.867c0.543,0.324,1.048,0.722,1.538,1.126c0.463,0.383,0.908,0.527,1.42,0.119
		c0.33,0.383,0.661,0.765,0.991,1.147c0.081,1.083,0.081,1.083,1.083,1.264C69.109,13.554,69.413,13.97,69.746,14.366z"/>
	<path fill-rule="evenodd" fill="#060301" d="M68.91,13.07c-0.4,0.193-0.799,0.261-1.122-0.125c-0.318-0.378-0.189-0.766,0.039-1.14
		c0.406-0.189,0.812-0.266,1.144,0.121C69.304,12.314,69.17,12.702,68.91,13.07z"/>
	<path fill-rule="evenodd" fill="#FEB59E" d="M54.524,28.048c2.521,0,5.044,0.044,7.563-0.025c0.854-0.023,1.021,0.253,0.965,1.015
		c-0.064,0.871-0.022,1.75-0.013,2.626c0.021,1.807,0.983,3.195,2.674,3.851c0.303,0.118,0.525,0.189,0.549,0.623
		c0.31,5.913-3.64,11.104-9.382,12.293c-7.041,1.458-13.7-3.646-14.114-10.819c-0.011-0.185-0.008-0.372-0.026-0.556
		c-0.082-0.827,0.008-1.389,0.999-1.784c1.501-0.599,2.169-1.959,2.218-3.572c0.028-0.954,0.041-1.912-0.006-2.865
		c-0.03-0.605,0.121-0.813,0.773-0.803C49.323,28.072,51.924,28.048,54.524,28.048z"/>
	<path fill-rule="evenodd" fill="#FDB49E" d="M41.184,35.572c0,0.74-0.028,1.482,0.011,2.22c0.021,0.41-0.067,0.56-0.507,0.544
		c-1.489-0.054-2.726-1.174-2.823-2.598c-0.106-1.552,0.945-2.831,2.495-3.055c0.535-0.077,0.85-0.003,0.796,0.667
		c-0.058,0.736-0.013,1.48-0.013,2.221C41.157,35.572,41.17,35.572,41.184,35.572z"/>
	<path fill-rule="evenodd" fill="#FDB59E" d="M67.84,35.434c0-0.767,0.011-1.534-0.005-2.301c-0.006-0.329,0.092-0.46,0.446-0.475
		c1.508-0.064,2.892,1.317,2.864,2.888c-0.027,1.562-1.462,2.892-2.967,2.795c-0.424-0.027-0.368-0.26-0.366-0.527
		c0.005-0.793,0.002-1.586,0.002-2.38C67.823,35.434,67.831,35.434,67.84,35.434z"/>
	<path fill-rule="evenodd" fill="#FA5C3D" d="M66.246,31.024c0,0.793,0.007,1.586-0.005,2.38c-0.004,0.166,0.104,0.399-0.13,0.485
		c-0.196,0.073-0.35-0.097-0.488-0.202c-0.603-0.456-0.958-1.07-0.979-1.823c-0.031-1.11,0.007-2.222-0.021-3.332
		c-0.018-0.713,0.495-0.461,0.828-0.475c0.354-0.016,0.834-0.184,0.803,0.508C66.217,29.383,66.246,30.204,66.246,31.024z"/>
	<path fill-rule="evenodd" fill="#F95C3C" d="M44.371,30.22c0,0.476,0.006,0.951-0.002,1.427c-0.01,0.54-0.149,1.045-0.463,1.489
		c-0.248,0.35-0.591,0.819-0.96,0.726c-0.424-0.107-0.188-0.679-0.194-1.04c-0.027-1.399,0.017-2.801-0.022-4.2
		c-0.022-0.797,0.523-0.538,0.917-0.574c0.421-0.038,0.797-0.04,0.734,0.587C44.331,29.16,44.372,29.692,44.371,30.22z"/>
	<path fill-rule="evenodd" fill="#FECAC2" d="M50.722,21.052c-0.874,0-1.748-0.013-2.622,0.003
		c-1.557,0.029-2.137,0.631-2.148,2.183c-0.003,0.368,0.051,0.743-0.102,1.099c-0.138,0.322-0.365,0.511-0.728,0.511
		c-0.361,0-0.685-0.173-0.708-0.513c-0.092-1.314-0.255-2.646,0.777-3.752c0.79-0.846,1.781-1.104,2.866-1.118
		c1.748-0.021,3.496-0.007,5.243-0.003c0.184,0,0.368,0.029,0.55,0.06c0.458,0.08,0.725,0.372,0.692,0.822
		c-0.033,0.449-0.324,0.706-0.804,0.704c-1.005-0.003-2.012-0.001-3.018-0.001C50.722,21.048,50.722,21.05,50.722,21.052z"/>
	<path fill-rule="evenodd" fill="#FEC8BF" d="M57.445,21.084c-0.3-0.039-0.608-0.021-0.866-0.126
		c-0.36-0.147-0.487-0.492-0.381-0.861c0.164-0.568,0.645-0.645,1.142-0.638c0.529,0.007,1.096-0.021,1.314,0.627
		c0.128,0.381-0.031,0.708-0.365,0.864C58.039,21.067,57.726,21.045,57.445,21.084z"/>
	<path fill-rule="evenodd" fill="#010000" d="M59.058,40.377c-0.049,0.13-0.104,0.337-0.199,0.522
		c-0.895,1.739-2.341,2.679-4.28,2.666c-1.902-0.015-3.322-0.948-4.201-2.663c-0.269-0.525-0.377-1.063,0.253-1.358
		c0.572-0.268,0.922,0.088,1.171,0.615c0.563,1.194,1.552,1.823,2.851,1.812c1.265-0.011,2.223-0.651,2.78-1.803
		c0.234-0.483,0.521-0.821,1.098-0.661C58.901,39.612,59.069,39.91,59.058,40.377z"/>
	<path fill-rule="evenodd" fill="#010101" d="M55.402,35.191c0,0.608,0,1.216,0,1.824c0,0.528-0.226,0.882-0.785,0.882
		c-0.559,0-0.796-0.368-0.801-0.881c-0.014-1.243-0.017-2.486,0.002-3.728c0.007-0.521,0.281-0.863,0.837-0.842
		c0.512,0.019,0.744,0.343,0.746,0.84C55.403,33.922,55.401,34.556,55.402,35.191z"/>
	<path fill-rule="evenodd" fill="#050303" d="M60.359,33.237c0,0.21,0.019,0.422-0.004,0.631c-0.048,0.427-0.311,0.661-0.731,0.682
		c-0.429,0.021-0.729-0.209-0.787-0.62c-0.063-0.438-0.063-0.893-0.025-1.335c0.036-0.449,0.329-0.737,0.784-0.727
		c0.493,0.012,0.758,0.318,0.775,0.817c0.007,0.184,0.001,0.369,0.001,0.553C60.368,33.237,60.363,33.237,60.359,33.237z"/>
	<path fill-rule="evenodd" fill="#050303" d="M50.179,33.222c0,0.184,0.011,0.369-0.002,0.552c-0.03,0.456-0.265,0.748-0.731,0.773
		c-0.512,0.027-0.786-0.28-0.834-0.757C48.572,33.4,48.577,33,48.614,32.609c0.042-0.448,0.318-0.743,0.775-0.741
		c0.493,0.002,0.765,0.302,0.788,0.802C50.187,32.853,50.179,33.038,50.179,33.222z"/>
</g>
</svg>
