<?xml version="1.0" encoding="utf-8"?>
<!-- Generator: Adobe Illustrator 16.0.2, SVG Export Plug-In . SVG Version: 6.00 Build 0)  -->
<!DOCTYPE svg PUBLIC "-//W3C//DTD SVG 1.1//EN" "http://www.w3.org/Graphics/SVG/1.1/DTD/svg11.dtd">
<svg version="1.1" id="Layer_1" xmlns="http://www.w3.org/2000/svg" xmlns:xlink="http://www.w3.org/1999/xlink" x="0px" y="0px"
	 width="85px" height="85px" viewBox="0 0 85 85" enable-background="new 0 0 85 85" xml:space="preserve">
<g>
	<g>
		<path fill="#F3C07E" d="M12.103,35c-0.02,0.06-0.117,18.583-0.117,18.583l14.09,12.252L64.81,55.563l-1.213-25.878l-36.054,7.133
			L12.509,24.588C12.511,24.588,13.234,31.459,12.103,35z"/>
		<g>
			<g>
				<g>
					<path fill="#F3C07E" d="M18.744,23.966c10.344-1.927,20.592-4.542,31.113-5.333l-0.998-1.46L41.773,2.555L8.189,7.899
						l6.41,17.625L18.744,23.966z"/>
					<path fill="#EBA865" d="M14.189,25.524l36.962-5.873c-0.096-0.09,4.184,2.863,6.416,4.431c1.043,0.729,2.088,1.464,2.988,2.362
						c0.902,0.898,1.711,1.994,2.912,2.412c0,0,3.697,0.518-4.328,1.709c-8.025,1.19-29.203,5.504-29.203,5.504l-16.08-10.383"/>
					<g>
						<path fill="#010101" d="M21.935,32.79c1.574,1.205,3.156,2.395,4.752,3.57c0.328,0.244,0.645-0.308,0.32-0.547
							c-1.596-1.176-3.18-2.365-4.752-3.57c-0.137-0.105-0.354-0.021-0.434,0.113C21.726,32.52,21.798,32.684,21.935,32.79
							L21.935,32.79z"/>
					</g>
					<g>
						<path fill="#010101" d="M26.486,36.991c1.582-0.129,3.152-0.391,4.717-0.641c1.58-0.252,3.158-0.502,4.734-0.769
							c3.15-0.533,6.301-1.065,9.451-1.599c2.676-0.453,5.35-0.922,8.023-1.385c1.322-0.229,2.645-0.459,3.965-0.688
							c1.354-0.234,2.717-0.43,4.059-0.715c-0.1-0.356-0.197-0.715-0.297-1.072c-0.232,0.063-0.465,0.125-0.697,0.188
							c-0.26,0.07-0.512,0.197-0.762,0.297c-0.174,0.072-0.305,0.201-0.305,0.401c0,0.214,0.189,0.433,0.414,0.416
							c0.561-0.042,1.096-0.12,1.646-0.229c0.297-0.06,0.465-0.407,0.389-0.684c-0.088-0.32-0.385-0.432-0.686-0.389
							c-1.576,0.225-3.146,0.557-4.713,0.84c-1.57,0.284-3.141,0.566-4.711,0.852c-3.141,0.566-6.279,1.139-9.416,1.717
							c-2.637,0.488-5.271,0.974-7.906,1.459c-1.316,0.244-2.629,0.513-3.943,0.768c-1.344,0.262-2.689,0.525-4.008,0.891
							C26.257,36.701,26.287,37.006,26.486,36.991L26.486,36.991z"/>
					</g>
					<g>
						<path fill="#010101" d="M25.353,40.723c-0.359,6.357-0.326,12.744-0.191,19.109c0.021,1.014-0.01,2.049,0.096,3.057
							c0.029,0.287,0.219,0.531,0.531,0.531c0.299,0,0.518-0.242,0.531-0.531c0.014-0.322,0.004-0.627-0.023-0.949
							c-0.029-0.316-0.012-0.631-0.039-0.947c-0.025-0.275-0.396-0.34-0.486-0.066c-0.1,0.301-0.154,0.609-0.254,0.91
							c-0.104,0.303-0.18,0.598-0.24,0.912c0.348,0.047,0.695,0.094,1.043,0.141c0.029-0.791-0.041-1.594-0.066-2.389
							s-0.051-1.592-0.072-2.387c-0.045-1.594-0.088-3.186-0.119-4.777c-0.063-3.184-0.102-6.369-0.115-9.555
							c-0.004-1.021-0.043-2.039-0.063-3.058C25.875,40.381,25.373,40.385,25.353,40.723L25.353,40.723z"/>
					</g>
				</g>
				<path fill="#F3C07E" d="M66.565,39.475c-0.67-2.959-1.645-5.766-1.766-8.813L28.748,37.77c3.359,3.402,6.719,6.8,10.078,10.203
					c0.445,0.451,0.912,0.916,1.512,1.123c0.619,0.217,1.297,0.127,1.943,0.033c8.583-1.252,17.056-3.248,25.306-5.928
					C67.112,41.995,66.841,40.682,66.565,39.475z"/>
			</g>
		</g>
		<g>
			<path fill="#010101" d="M26.339,39.241c0.191,0.338,0.473,0.639,0.693,0.963c0.246,0.361,0.477,0.734,0.691,1.117
				c0.469,0.836,0.869,1.712,1.248,2.593c0.74,1.727,1.316,3.516,1.84,5.314c0.313,1.082,0.561,2.182,0.877,3.262
				c0.184,0.633,1.1,0.365,0.977-0.27c-0.211-1.08-0.57-2.154-0.904-3.201c-0.578-1.814-1.246-3.609-2.02-5.35
				c-0.406-0.914-0.861-1.804-1.385-2.656c-0.24-0.391-0.496-0.77-0.771-1.133c-0.26-0.346-0.549-0.74-0.91-0.977
				C26.46,38.768,26.222,39.034,26.339,39.241L26.339,39.241z"/>
		</g>
		<g>
			<path fill="#010101" d="M32.925,53.742c1.539,0.172,3.125-0.223,4.615-0.564c1.549-0.357,3.092-0.729,4.635-1.104
				c3.095-0.752,6.189-1.514,9.283-2.279c1.768-0.439,3.533-0.881,5.301-1.322c0.801-0.201,1.607-0.383,2.391-0.646
				c0.373-0.127,0.74-0.279,1.092-0.457c0.166-0.082,0.326-0.178,0.482-0.277c0.242-0.154,0.336-0.348,0.434-0.604
				c0.088-0.229-0.141-0.537-0.389-0.512c-0.178,0.02-0.383,0.012-0.537,0.113c-0.133,0.088-0.27,0.17-0.408,0.248
				c-0.285,0.158-0.586,0.281-0.893,0.391c-0.654,0.23-1.332,0.387-2.004,0.555c-1.551,0.387-3.1,0.771-4.648,1.162
				c-3.09,0.779-6.18,1.559-9.268,2.354c-1.695,0.436-3.39,0.875-5.082,1.322c-0.844,0.227-1.688,0.434-2.533,0.637
				c-0.838,0.201-1.691,0.336-2.533,0.52C32.58,53.338,32.677,53.715,32.925,53.742L32.925,53.742z"/>
		</g>
		<g>
			<path fill="#010101" d="M17.21,34.112c-0.168,0.377-0.299,0.744-0.373,1.152c-0.037,0.201-0.063,0.405-0.088,0.609
				c-0.025,0.229-0.07,0.48,0.02,0.699c0.072,0.172,0.355,0.283,0.457,0.06c0.16-0.358,0.094-0.819,0.129-1.208
				c0.039-0.413,0.08-0.828,0.129-1.238C17.5,34.043,17.267,33.981,17.21,34.112L17.21,34.112z"/>
		</g>
		<g>
			<path fill="#010101" d="M16.32,38.87c-0.188,1.35-0.182,2.729-0.238,4.088c-0.059,1.404-0.1,2.81-0.146,4.216
				c-0.096,2.775-0.17,5.557-0.256,8.334c-0.018,0.553,0.844,0.553,0.855,0c0.063-2.746,0.135-5.492,0.189-8.238
				c0.025-1.373,0.063-2.748,0.078-4.121c0.018-1.398,0.107-2.82-0.012-4.214C16.771,38.684,16.359,38.584,16.32,38.87L16.32,38.87z
				"/>
		</g>
		<g>
			<path fill="#010101" d="M47.198,60.738c0.701-0.063,1.396-0.287,2.072-0.477c0.736-0.205,1.471-0.416,2.205-0.627
				c1.438-0.414,2.875-0.826,4.313-1.238c1.439-0.412,2.877-0.826,4.314-1.244c0.732-0.213,1.467-0.426,2.201-0.639
				c0.365-0.107,0.732-0.217,1.104-0.313c0.355-0.09,0.744-0.135,1.018-0.396c0.139-0.131,0.082-0.408-0.117-0.445
				c-0.354-0.068-0.652,0.07-0.984,0.182c-0.361,0.121-0.727,0.23-1.094,0.342c-0.732,0.221-1.463,0.438-2.195,0.658
				c-1.434,0.43-2.867,0.863-4.299,1.299c-1.432,0.438-2.863,0.871-4.295,1.305c-0.732,0.221-1.463,0.443-2.193,0.672
				c-0.701,0.217-1.441,0.41-2.094,0.754C47.073,60.609,47.106,60.748,47.198,60.738L47.198,60.738z"/>
		</g>
		<g>
			<path fill="#010101" d="M50.495,19.932c-0.182,0.43-0.168,0.939-0.182,1.399c-0.014,0.508-0.02,1.017-0.02,1.524
				c0,1.016,0.014,2.031,0.035,3.047c0.023,0.983,0.057,1.967,0.1,2.949c0.021,0.508,0.049,1.016,0.076,1.521
				c0.014,0.253,0.027,0.507,0.045,0.76c0.008,0.141,0.016,0.279,0.033,0.418c0.02,0.131,0.08,0.23,0.119,0.354
				c0.109,0.351,0.709,0.418,0.777,0c0.039-0.237,0.09-0.43,0.072-0.676c-0.02-0.254-0.035-0.508-0.053-0.761
				c-0.031-0.507-0.063-1.014-0.09-1.521c-0.053-0.983-0.096-1.967-0.127-2.95s-0.053-1.968-0.063-2.952
				c-0.006-0.508-0.006-1.016-0.016-1.523c-0.006-0.254-0.01-0.508-0.021-0.762c-0.014-0.25-0.014-0.516-0.105-0.751
				C50.993,19.788,50.616,19.647,50.495,19.932L50.495,19.932z"/>
		</g>
		<g>
			<path fill="#010101" d="M29.105,22.965c1.568,0.096,3.121-0.047,4.678-0.242c1.563-0.197,3.121-0.436,4.67-0.709
				c3.127-0.552,6.251-1.127,9.375-1.699c0.471-0.086,0.939-0.172,1.408-0.258c0.49-0.091,1.064-0.113,1.492-0.38
				c0.297-0.185,0.285-0.722-0.105-0.796c-0.223-0.042-0.4-0.048-0.627-0.006c-0.188,0.036-0.375,0.072-0.563,0.107
				c-0.406,0.076-0.813,0.154-1.217,0.231c-0.781,0.149-1.563,0.298-2.344,0.447c-1.563,0.298-3.123,0.594-4.683,0.899
				c-3.082,0.602-6.158,1.262-9.271,1.69c-0.953,0.131-1.902,0.276-2.852,0.437C28.902,22.716,28.955,22.957,29.105,22.965
				L29.105,22.965z"/>
		</g>
		<g>
			<path fill="#010101" d="M52.616,20.868c0.648,0.438,1.246,0.929,1.844,1.432c0.285,0.24,0.561,0.49,0.842,0.734
				c0.291,0.255,0.58,0.568,0.936,0.73c0.227,0.104,0.447-0.105,0.334-0.334c-0.17-0.352-0.5-0.625-0.785-0.882
				c-0.299-0.267-0.617-0.512-0.938-0.753c-0.639-0.48-1.328-0.896-2.016-1.3C52.593,20.354,52.388,20.714,52.616,20.868
				L52.616,20.868z"/>
		</g>
		<g>
			<path fill="#010101" d="M60.788,27.051c0.25,0.318,0.572,0.592,0.883,0.85c0.314,0.261,0.631,0.522,0.945,0.783
				c0.316,0.262,0.639,0.518,0.959,0.772c0.324,0.256,0.639,0.534,0.982,0.761c0.387,0.254,0.846-0.335,0.496-0.641
				c-0.615-0.537-1.328-0.996-1.998-1.461c-0.672-0.467-1.348-1.026-2.105-1.342C60.776,26.703,60.7,26.94,60.788,27.051
				L60.788,27.051z"/>
		</g>
		<g>
			<path fill="#010101" d="M33.074,4.044c1.195,0.006,2.398-0.188,3.586-0.31c1.197-0.121,2.393-0.239,3.588-0.367
				c0.443-0.047,0.92-0.139,1.367-0.069c0.146,0.022,0.301,0.065,0.414,0.166c0.164,0.147,0.154,0.399,0.156,0.601
				c0.006,0.514,0.063,1.006,0.24,1.492c0.158,0.434,0.447,1.012,0.896,1.204c0.234,0.101,0.521-0.062,0.447-0.343
				c-0.066-0.247-0.217-0.473-0.342-0.693c-0.121-0.217-0.209-0.451-0.281-0.687c-0.158-0.515-0.078-1.043-0.195-1.562
				c-0.254-1.107-1.568-1.031-2.428-0.912c-1.252,0.176-2.504,0.355-3.756,0.537c-1.242,0.178-2.523,0.283-3.74,0.594
				C32.83,3.745,32.873,4.043,33.074,4.044L33.074,4.044z"/>
		</g>
		<g>
			<path fill="#010101" d="M43.655,7.68c0.152,0.002,0.213,0.229,0.262,0.334c0.076,0.172,0.148,0.348,0.23,0.52
				c0.15,0.313,0.295,0.626,0.455,0.933c0.16,0.306,0.32,0.612,0.48,0.918c0.146,0.276,0.303,0.599,0.576,0.765
				c0.143,0.084,0.311-0.026,0.316-0.183c0.014-0.378-0.246-0.755-0.426-1.073c-0.197-0.356-0.393-0.716-0.602-1.065
				c-0.209-0.351-0.424-0.697-0.645-1.041c-0.146-0.226-0.404-0.419-0.68-0.319C43.513,7.507,43.526,7.678,43.655,7.68L43.655,7.68z
				"/>
		</g>
		<g>
			<path fill="#010101" d="M13.505,24.563c-0.158-0.685-0.396-1.34-0.621-2.004c-0.234-0.693-0.471-1.387-0.705-2.08
				c-0.473-1.388-0.961-2.769-1.443-4.15c-0.961-2.768-1.867-5.553-2.852-8.311c-0.1,0.174-0.199,0.35-0.299,0.524
				c3.127-0.597,6.266-1.138,9.396-1.717c1.547-0.287,3.094-0.619,4.656-0.818c1.539-0.196,3.092-0.271,4.631-0.479
				c1.58-0.213,3.145-0.528,4.686-0.94c0.443-0.119,0.256-0.801-0.189-0.688c-1.484,0.379-2.99,0.666-4.508,0.861
				c-1.535,0.196-3.082,0.241-4.619,0.404c-1.58,0.168-3.143,0.486-4.703,0.771c-1.566,0.287-3.131,0.576-4.695,0.871
				c-1.627,0.305-3.252,0.621-4.881,0.911C7.138,7.758,6.99,8.039,7.06,8.244c0.953,2.772,1.98,5.517,2.955,8.282
				c0.486,1.381,0.965,2.767,1.461,4.146c0.25,0.688,0.498,1.379,0.746,2.067c0.248,0.686,0.48,1.371,0.795,2.027
				C13.152,25.052,13.572,24.846,13.505,24.563L13.505,24.563z"/>
		</g>
		<g>
			<path fill="#010101" d="M64.175,30.171c-0.033,0.588,0.031,1.192,0.088,1.776c0.059,0.627,0.143,1.248,0.238,1.869
				c0.186,1.211,0.432,2.412,0.717,3.604c0.578,2.418,1.406,4.736,2.299,7.052c0.08-0.197,0.16-0.396,0.24-0.594
				c-1.697,0.84-3.461,1.467-5.33,1.795c-0.283,0.049-0.439,0.393-0.369,0.65c0.082,0.299,0.367,0.418,0.65,0.369
				c1.934-0.33,3.859-0.953,5.578-1.908c0.268-0.146,0.309-0.463,0.189-0.719c-1.02-2.166-1.762-4.488-2.395-6.792
				c-0.322-1.18-0.598-2.371-0.84-3.569c-0.117-0.583-0.223-1.169-0.332-1.755c-0.111-0.607-0.188-1.233-0.348-1.831
				C64.503,29.895,64.185,29.954,64.175,30.171L64.175,30.171z"/>
		</g>
	</g>
	<g>
		<path fill="#FFFFFF" d="M37.699,55.57c-1.334-0.609-2.918-0.471-4.285,0.068c-0.621,0.244-1.242,0.602-1.561,1.188
			c-0.172,0.322-0.242,0.689-0.293,1.051c-0.107,0.734-0.156,1.479-0.148,2.221c0.004,0.309,0.021,0.635,0.186,0.896
			c0.148,0.242,0.4,0.4,0.645,0.545c1.213,0.725,2.461,1.393,3.738,1.998c0.197,0.094,0.412,0.201,0.502,0.402
			c0.063,0.146,0.049,0.313,0.033,0.469c-0.121,1.193-0.24,2.389-0.361,3.58c-0.039,0.391-0.063,0.828,0.197,1.119
			c0.154,0.174,0.385,0.264,0.615,0.297c0.768,0.115,1.504-0.303,2.18-0.688c5.449-3.127,11.49-5.215,17.707-6.115
			c-0.961-2.211-2.105-4.344-3.414-6.369c-0.613-0.945-1.293-1.896-2.271-2.457c-0.83-0.477-1.805-0.625-2.754-0.738
			c-2.066-0.244-4.168-0.354-6.222-0.029c-2.055,0.324-4.074,1.102-5.646,2.467"/>
		<path fill="#FBBC92" d="M59.7,79.537c0.137,0.125,0.271,0.252,0.406,0.377c-3.912-1.512-7.836-2.994-11.768-4.451l-2.688-1.344
			l6.121-3.762l2.199,0.41c0,0,6.281,2.762,8.125,3.693c0.084,0.043,0.176,0.096,0.193,0.188c0.021,0.09-0.104,0.189-0.164,0.117"/>
		<path fill="#FFFFFF" d="M57.433,78.609c-0.865-1.98-0.088-5.576,2.072-5.479c0.238,0.012,7.482,2.168,7.482,2.168l-1.385,6.115
			l-7.838-1.938L57.433,78.609z"/>
		<path fill="#FBBC92" d="M65.583,68.721c-0.59-0.332-5.086-1.834-5.086-1.834s-2.293,1.883-3,3.049
			c-0.707,1.164,10.838,5.363,10.838,5.363"/>
		<path fill="#FBBC92" d="M35.472,56.402c-1.932-0.039-3.67-1.119-5.262-2.213c-1.252-0.861-2.502-1.77-3.439-2.967
			c-1.447-1.842-2.037-4.215-2.291-6.543c-0.646-5.958,0.867-12.35,5.01-16.682c5.303-5.546,14.511-6.667,21.177-2.866
			c6.664,3.801,10.379,12.012,9.203,19.595c-0.215,1.381-0.578,2.752-1.244,3.979c-1.514,2.787-4.414,4.547-7.365,5.705
			c-6.207,2.436-13.23,2.738-19.626,0.846"/>
		<path fill="#FBBC92" d="M33.095,61.826c-0.561-0.234-1.115-0.488-1.691-0.699c-0.104-0.037-0.201-0.086-0.299-0.131
			c-0.133,2.205-0.266,4.412-0.398,6.617c-0.008,0.139-0.02,0.283-0.104,0.393c-0.111,0.146-0.316,0.178-0.498,0.199
			c-2.131,0.271-4.217,0.895-6.146,1.84c-0.451,0.221-0.959,0.77-0.607,1.129c0.166,0.172,0.439,0.166,0.676,0.135
			c0.801-0.098,1.588-0.316,2.326-0.645c-0.813,0.316-1.441,1.064-1.613,1.918c1.535-0.021,3.053-0.629,4.178-1.674
			c-0.377,0.568-0.752,1.137-1.127,1.705c-0.16,0.242-0.318,0.576-0.131,0.797c0.203,0.242,0.596,0.1,0.865-0.066
			c0.828-0.512,1.625-1.068,2.385-1.672c0.361,0.287-0.371,0.816-0.244,1.262c0.086,0.305,0.502,0.342,0.814,0.291
			c2.059-0.332,3.871-1.885,4.516-3.867c0.484-1.492,0.344-3.145,0.926-4.6l-0.643-1.09C35.228,63.043,34.189,62.371,33.095,61.826z
			"/>
		<g>
			<path fill="#010101" d="M37.541,64.748c0.389-0.557-0.32-1.043-0.777-1.195c-0.627-0.209-1.246-0.432-1.852-0.703
				c-1.197-0.539-2.332-1.213-3.381-2.002c0.076,0.1,0.15,0.197,0.227,0.295c0.039,0.283,0.006,0.027-0.002-0.039
				c-0.016-0.148-0.025-0.295-0.033-0.443c-0.029-0.479-0.027-0.963,0.006-1.441c0.008-0.139,0.021-0.275,0.037-0.412
				c0.004-0.035,0.008-0.07,0.014-0.105c-0.02,0.148-0.004,0.025,0-0.004c0.012-0.082,0.025-0.166,0.041-0.248
				c0.051-0.297,0.123-0.59,0.215-0.879c0.023-0.066,0.047-0.137,0.072-0.205c0.014-0.037,0.102-0.252,0.039-0.107
				c0.061-0.143,0.131-0.279,0.207-0.414c0.068-0.121,0.146-0.24,0.229-0.354c0.074-0.1-0.074,0.094,0.002-0.002
				c0.021-0.025,0.045-0.053,0.068-0.08c0.053-0.061,0.109-0.119,0.168-0.176c0.033-0.031,0.068-0.063,0.104-0.094
				c0.018-0.016,0.035-0.029,0.053-0.045c0.096-0.08-0.098,0.072,0.002-0.002c0.094-0.07,0.197-0.135,0.301-0.191
				c0.041-0.023,0.086-0.045,0.129-0.064c0.145-0.068-0.074,0.025,0.076-0.031c0.121-0.045,0.246-0.08,0.373-0.109
				c0.053-0.012,0.107-0.021,0.162-0.031c0.063-0.01,0.055-0.008-0.023,0.002c0.043-0.006,0.086-0.01,0.129-0.014
				c0.15-0.014,0.305-0.014,0.455-0.01s0.299,0.021,0.447,0.035c0.088,0.006,0.176,0.014,0.264,0.023
				c-0.053-0.008-0.045-0.006,0.023,0.004c0.057,0.008,0.113,0.018,0.17,0.027c0.283,0.049,0.566-0.07,0.648-0.367
				c0.076-0.279-0.092-0.57-0.367-0.648c-0.814-0.23-1.693-0.281-2.502,0c-0.678,0.234-1.217,0.68-1.627,1.262
				c-0.715,1.014-0.898,2.361-0.934,3.57c-0.018,0.619,0.016,1.242,0.104,1.855c0.035,0.244,0.383,0.412,0.566,0.543
				c0.252,0.176,0.51,0.344,0.771,0.504c0.523,0.324,1.064,0.615,1.621,0.881c0.563,0.27,1.15,0.496,1.742,0.697
				c0.291,0.1,0.584,0.189,0.879,0.271c0.133,0.035,0.279,0.055,0.404,0.109c0.051,0.021,0.109,0.047,0.152,0.082
				c0.121,0.098,0.014,0.031,0.02,0.016C36.861,64.867,37.343,65.033,37.541,64.748L37.541,64.748z"/>
		</g>
		<path fill="#8CA5BB" d="M53.276,66.957c1.006,0.971,2.014,1.938,3.021,2.906c0.346,0.332,0.719,0.816,0.49,1.236
			c-2.395-0.031-4.795,0.639-6.828,1.906c-1.061,0.66-2.094,1.605-2.236,2.848c-3.457-1.322-6.927-2.658-10.179-4.424
			c-1.076-0.584-0.842-3.473,4.854-5.064c5.697-1.594,12.947-2.992,12.947-2.992l1.387,1.031c2.342,0.938,4.682,1.877,7.021,2.814
			c-2.07,0.021-4.115,0.969-5.477,2.533"/>
		<path fill="#8CA5BB" d="M63.351,81.398c-0.924-0.328-1.604-1.16-1.943-2.08c-0.342-0.918-0.381-1.922-0.334-2.898
			c0.086-1.803,0.467-3.631,1.412-5.166c0.947-1.537,2.52-2.75,4.309-2.971c0.904-0.109,1.896,0.064,2.543,0.705
			c0.891,0.883,0.859,2.307,0.768,3.559c-0.111,1.516-0.223,3.031-0.334,4.549c-0.078,1.066-0.166,2.168-0.652,3.121
			c-1.035,2.025-3.965,2.777-5.846,1.502"/>
		<path fill="#8CA5BB" d="M71.06,72.727c0.205-1.498,0.725-2.951,1.514-4.238c0.463-0.756,1.047-1.479,1.846-1.865
			c0.797-0.389,1.846-0.363,2.484,0.25c0.379,0.365,0.57,0.879,0.709,1.385c0.611,2.205,0.428,4.656-0.691,6.65
			c-1.119,1.992-3.219,3.459-5.498,3.623"/>
		<g>
			<path fill="#010101" d="M62.026,74.041c0.285,0.1,0.625-0.061,0.904-0.119c0.365-0.078,0.729-0.225,1.086-0.342
				c0.689-0.227,1.375-0.471,2.063-0.713c0.686-0.244,1.369-0.49,2.057-0.736c0.355-0.129,0.715-0.258,1.072-0.385
				c0.326-0.117,0.762-0.195,0.879-0.564c0.037-0.123-0.025-0.252-0.129-0.316c-0.305-0.191-0.658,0.016-0.961,0.123
				c-0.355,0.129-0.711,0.266-1.066,0.398c-0.684,0.254-1.367,0.51-2.049,0.764c-0.684,0.256-1.367,0.516-2.043,0.787
				c-0.354,0.143-0.703,0.295-1.057,0.443c-0.271,0.111-0.66,0.252-0.816,0.514C61.931,73.951,61.966,74.021,62.026,74.041
				L62.026,74.041z"/>
		</g>
		<g>
			<path fill="#010101" d="M63.058,75.369c1.107-0.008,2.244-0.363,3.268-0.783c0.527-0.217,1.041-0.465,1.541-0.738
				c0.441-0.242,0.836-0.471,1.355-0.436c0.189,0.014,0.285-0.211,0.207-0.361c-0.299-0.572-0.988-0.369-1.451-0.137
				c-0.523,0.264-1.012,0.59-1.541,0.846c-0.535,0.26-1.086,0.482-1.648,0.678c-0.59,0.203-1.193,0.369-1.777,0.582
				C62.827,75.086,62.847,75.369,63.058,75.369L63.058,75.369z"/>
		</g>
		<g>
			<path fill="#010101" d="M62.649,78.928c0.305-0.043,0.615-0.152,0.91-0.242c0.301-0.09,0.6-0.18,0.896-0.279
				c0.627-0.209,1.252-0.418,1.873-0.639c0.594-0.211,1.184-0.426,1.771-0.643c0.295-0.107,0.59-0.219,0.883-0.328
				c0.322-0.121,0.715-0.205,0.828-0.566c0.045-0.141-0.027-0.311-0.156-0.383c-0.309-0.172-0.602,0.006-0.898,0.123
				c-0.293,0.115-0.582,0.238-0.875,0.355c-0.613,0.248-1.229,0.492-1.846,0.732c-0.586,0.229-1.172,0.463-1.76,0.689
				c-0.295,0.113-0.586,0.234-0.879,0.354c-0.307,0.125-0.641,0.238-0.926,0.404C62.229,78.65,62.405,78.963,62.649,78.928
				L62.649,78.928z"/>
		</g>
		<g>
			<path fill="#010101" d="M72.546,73.721c0.338-0.018,0.666-0.152,0.99-0.234c0.361-0.09,0.711-0.256,1.053-0.404
				s0.674-0.313,0.996-0.5c0.258-0.146,0.781-0.4,0.639-0.781c-0.143-0.379-0.582-0.205-0.83-0.057
				c-0.318,0.189-0.646,0.367-0.977,0.539c-0.328,0.172-0.666,0.322-1.004,0.477c-0.326,0.148-0.699,0.258-1.008,0.439
				C72.175,73.336,72.263,73.734,72.546,73.721L72.546,73.721z"/>
		</g>
		<g>
			<path fill="#010101" d="M72.929,75.248c0.58-0.193,1.146-0.416,1.695-0.684c0.266-0.129,0.521-0.266,0.773-0.416
				c0.244-0.145,0.533-0.336,0.619-0.619c0.043-0.141-0.072-0.25-0.201-0.264c-0.268-0.029-0.549,0.146-0.77,0.281
				c-0.25,0.15-0.502,0.301-0.758,0.443c-0.506,0.287-1.021,0.561-1.553,0.801C72.478,74.908,72.663,75.338,72.929,75.248
				L72.929,75.248z"/>
		</g>
		<g>
			<path fill="#010101" d="M52.079,45.998c0.529,0.141,1.057,0.105,1.504,0.477c0.334,0.275,0.508,0.729,0.422,1.104
				c-0.092,0.389-0.484,0.646-0.85,0.764c-0.646,0.207-1.277-0.025-1.928-0.061c-0.682-0.035-0.76,0.947-0.154,1.145
				c0.414,0.133,0.9,0.162,1.334,0.174c0.4,0.01,0.814-0.045,1.189-0.184c0.717-0.264,1.354-0.826,1.482-1.609
				c0.123-0.74-0.188-1.494-0.75-1.98c-0.295-0.256-0.65-0.424-1.027-0.523s-0.855-0.15-1.223,0.002
				C51.772,45.43,51.702,45.898,52.079,45.998L52.079,45.998z"/>
		</g>
		<g>
			<path fill="#010101" d="M41.49,47.637c-0.096,0.012-0.16,0.008-0.248-0.033c-0.021-0.01-0.043-0.023-0.059-0.039
				c-0.002-0.006-0.057-0.141-0.047-0.072c-0.004-0.027,0.004-0.145,0.004-0.145c0.016-0.035,0.09-0.088,0.021-0.078
				c-0.014-0.004-0.025-0.01-0.037-0.02c0.084,0.037,0.031,0.029,0.016,0.008c-0.006-0.035-0.002-0.025,0.01,0.025
				c-0.016-0.055,0.002-0.092,0.043-0.139c0.018-0.02,0.039-0.033,0.063-0.043c0.029-0.01,0.135,0.012,0.043-0.014
				c0.023,0.008,0.1,0.078,0.033,0.014c0.043,0.041,0.059,0.238,0.066,0.117c-0.076,0.133-0.152,0.266-0.229,0.398
				c0.08-0.041,0.156-0.061,0.246-0.063c-0.148-0.115-0.299-0.229-0.447-0.342c0.021,0.078,0.025,0.063,0.01-0.051
				c0.016-0.072,0.088-0.098,0.154-0.104c0.068-0.006,0.141,0.072,0.068-0.004c-0.063-0.064-0.146-0.104-0.232-0.121
				c0.061,0.035,0.121,0.07,0.182,0.104c-0.037-0.045-0.08-0.143-0.156-0.188c-0.119-0.068-0.281-0.041-0.377,0.055
				c-0.256,0.26-0.223,0.596,0.008,0.871c0.223,0.266,0.664,0.275,0.93,0.082c0.277-0.201,0.43-0.559,0.313-0.895
				c-0.066-0.189-0.232-0.354-0.449-0.342c-0.416,0.021-0.91,0.148-0.947,0.635c-0.023,0.326,0.26,0.607,0.547,0.701
				c0.715,0.234,1.266-0.52,0.889-1.148c-0.178-0.295-0.521-0.451-0.857-0.395c-0.342,0.061-0.582,0.342-0.668,0.664
				c-0.18,0.662,0.521,1.107,1.109,1.029C41.787,48.07,41.791,47.596,41.49,47.637L41.49,47.637z"/>
		</g>
		<g>
			<path fill="#010101" d="M57.601,44.988c0.01-0.045,0.055-0.27,0.021-0.111c0.012-0.053,0.021-0.104,0.039-0.152
				c-0.025,0.063-0.027,0.07-0.006,0.025c0.025-0.043,0.021-0.037-0.02,0.018c0.014-0.016,0.027-0.031,0.045-0.045
				c-0.082,0.076-0.021,0.021,0.012,0.008c-0.232-0.135-0.465-0.268-0.695-0.4c0.002,0.025,0.002,0.051-0.002,0.074
				c0.01-0.061,0.008-0.064-0.006-0.014c0.023-0.053,0.021-0.057-0.004-0.01c0.035-0.043,0.035-0.047,0-0.01
				c-0.178,0.178-0.176,0.475,0,0.65c0.18,0.18,0.471,0.174,0.65,0c0.188-0.18,0.293-0.432,0.287-0.691
				c-0.006-0.166-0.088-0.316-0.23-0.4c-0.154-0.09-0.311-0.068-0.467,0c-0.463,0.205-0.652,0.854-0.307,1.24
				C57.12,45.393,57.534,45.279,57.601,44.988L57.601,44.988z"/>
		</g>
		<g>
			<path fill="#010101" d="M37.564,63.332c0.039-0.258-0.033-0.51-0.107-0.758c-0.078-0.271-0.145-0.545-0.191-0.826
				c-0.092-0.551-0.09-1.127-0.002-1.68c-0.221-0.029-0.441-0.061-0.662-0.09c0.098,1.154,0.334,2.291,0.719,3.385
				c0.125,0.354,0.551,0.32,0.688,0c0.383-0.918,0.666-1.869,0.844-2.848c-0.244-0.033-0.486-0.064-0.73-0.098
				c-0.031,0.441-0.066,0.883-0.1,1.324c-0.037,0.475-0.088,0.945-0.025,1.416c0.047,0.35,0.572,0.301,0.654,0
				c0.115-0.426,0.119-0.883,0.141-1.32c0.023-0.475,0.047-0.947,0.072-1.42c0.023-0.414-0.656-0.514-0.729-0.1
				c-0.168,0.979-0.441,1.936-0.814,2.854c0.229,0,0.457,0,0.686,0c-0.377-1.029-0.627-2.102-0.73-3.195
				c-0.014-0.15-0.094-0.281-0.248-0.324c-0.162-0.045-0.389,0.053-0.416,0.236c-0.094,0.625-0.096,1.238-0.008,1.867
				c0.041,0.309,0.123,0.609,0.217,0.904c0.094,0.287,0.234,0.605,0.502,0.768C37.406,63.479,37.548,63.438,37.564,63.332
				L37.564,63.332z"/>
		</g>
		<path fill="#FBBC92" d="M27.07,46.93c-0.604-0.613-1.451-1.18-2.27-0.918c-0.656,0.209-1.055,0.896-1.166,1.574
			c-0.207,1.266,0.439,2.627,1.553,3.26c1.113,0.635,2.615,0.5,3.596-0.324"/>
		<g>
			<path fill="#010101" d="M27.322,46.859c-0.07-0.293-0.342-0.557-0.57-0.744c-0.266-0.219-0.549-0.377-0.869-0.504
				c-0.615-0.24-1.313-0.109-1.826,0.293c-0.945,0.744-1.098,2.143-0.775,3.229c0.338,1.148,1.227,2.064,2.361,2.439
				c1.164,0.383,2.432,0.105,3.418-0.578c0.246-0.17,0.357-0.479,0.197-0.75c-0.182-0.311-0.607-0.355-0.863-0.111
				c-0.6,0.578-1.572,0.725-2.355,0.531c-0.811-0.197-1.467-0.822-1.771-1.592c-0.293-0.738-0.314-1.709,0.244-2.336
				c0.301-0.338,0.715-0.389,1.135-0.268c0.24,0.066,0.465,0.203,0.674,0.336c0.211,0.135,0.436,0.316,0.68,0.377
				C27.197,47.23,27.369,47.057,27.322,46.859L27.322,46.859z"/>
		</g>
		<g>
			<path fill="#010101" d="M42.107,33.225c0.068,0.369,0.332,0.635,0.631,0.842c0.371,0.254,0.814,0.445,1.228,0.617
				c0.859,0.354,1.744,0.484,2.611,0.092c0.754-0.34,1.246-1.115,1.133-1.941c-0.113-0.852-0.84-1.469-1.523-1.898
				c-0.121,0.289-0.242,0.576-0.363,0.862c0.828,0.349,1.744,0.483,2.641,0.419c0.791-0.057,1.914-0.225,2.369-0.961
				c0.547-0.879-0.447-1.763-1.072-2.238c-0.344-0.26-0.725-0.5-1.15-0.586c-0.453-0.092-0.988-0.048-1.252,0.375
				c-0.1,0.159-0.014,0.443,0.191,0.473c0.271,0.037,0.539-0.004,0.807,0.076c0.309,0.092,0.586,0.273,0.844,0.461
				c0.205,0.148,1.092,0.789,0.691,1.059c-0.236,0.16-0.549,0.221-0.82,0.286c-0.336,0.079-0.678,0.112-1.021,0.116
				c-0.682,0.012-1.346-0.135-1.975-0.389c-0.51-0.205-0.807,0.596-0.363,0.861c0.463,0.277,0.961,0.641,1.104,1.188
				c0.137,0.519-0.318,0.918-0.734,1.119c-0.563,0.27-1.264,0.092-1.822-0.096c-0.336-0.113-0.672-0.247-0.992-0.395
				c-0.232-0.105-0.501-0.238-0.576-0.502C42.583,32.684,42.037,32.848,42.107,33.225L42.107,33.225z"/>
		</g>
		<g>
			<path fill="#010101" d="M64.71,68.832c-0.545,0.309-0.99,0.799-1.426,1.242c-0.449,0.461-0.84,0.977-1.188,1.516
				c-0.695,1.082-1.129,2.32-1.26,3.598c-0.156,1.514,0.215,3.049,0.719,4.465c0.242,0.68,0.574,1.279,1.152,1.729
				c0.555,0.43,1.213,0.779,1.875,1.002c0.281,0.094,0.594,0.133,0.889,0.111c0.35-0.025,0.561-0.168,0.756-0.449
				c0.092-0.133-0.027-0.348-0.189-0.332c-0.148,0.016-0.293-0.02-0.441,0.004c-0.131,0.02-0.27,0.016-0.398-0.006
				c-0.357-0.061-0.68-0.268-0.982-0.453c-0.553-0.334-1.131-0.635-1.475-1.203c-0.166-0.277-0.27-0.588-0.373-0.895
				c-0.127-0.373-0.246-0.75-0.352-1.131c-0.195-0.721-0.332-1.461-0.365-2.207c-0.055-1.307,0.32-2.541,0.926-3.686
				c0.301-0.566,0.668-1.09,1.051-1.604c0.186-0.252,0.387-0.488,0.6-0.719c0.217-0.234,0.467-0.451,0.646-0.717
				c0.016-0.021,0.029-0.039,0.045-0.061C65.013,68.91,64.831,68.764,64.71,68.832L64.71,68.832z"/>
		</g>
		<g>
			<path fill="#010101" d="M73.511,77.977c-0.586,0.289-1.191-0.01-1.703-0.313c-0.262-0.152-0.564-0.305-0.727-0.57
				c-0.16-0.268-0.15-0.662-0.158-0.961c-0.016-0.682,0.131-1.365,0.408-1.984c0.273-0.609,0.684-1.145,0.92-1.771
				c0.238-0.633,0.23-1.32,0.313-1.984c0.064-0.525,0.227-1.047,0.459-1.521c0.238-0.488,0.566-0.926,0.949-1.309
				c0.186-0.186,0.387-0.369,0.602-0.52c0.221-0.152,0.441-0.266,0.604-0.482c0.063-0.086-0.004-0.219-0.1-0.244
				c-0.523-0.135-1.162,0.293-1.555,0.604c-0.463,0.363-0.824,0.842-1.113,1.352c-0.291,0.518-0.494,1.088-0.607,1.67
				c-0.137,0.686-0.076,1.395-0.266,2.07c-0.184,0.658-0.539,1.256-0.811,1.879c-0.287,0.656-0.434,1.357-0.445,2.072
				c-0.012,0.666,0.064,1.408,0.621,1.846c0.502,0.393,1.154,0.748,1.801,0.785c0.373,0.021,0.742-0.092,1.014-0.352
				C73.858,78.102,73.677,77.895,73.511,77.977L73.511,77.977z"/>
		</g>
		<g>
			<path fill="#010101" d="M70.841,69.629c0.295-0.703,0.66-1.32,1.24-1.828c0.289-0.252,0.623-0.447,0.967-0.611
				c0.17-0.082,0.342-0.16,0.512-0.242c0.168-0.082,0.32-0.123,0.395-0.303c0.025-0.063-0.018-0.125-0.064-0.16
				c-0.15-0.111-0.355-0.041-0.525-0.002c-0.213,0.047-0.404,0.125-0.6,0.221c-0.408,0.199-0.785,0.469-1.121,0.773
				c-0.584,0.533-1.063,1.305-1.117,2.109C70.511,69.783,70.776,69.781,70.841,69.629L70.841,69.629z"/>
		</g>
		<g>
			<path fill="#010101" d="M58.56,79.646c0.27,0.186,0.6,0.285,0.904,0.404c0.352,0.139,0.709,0.264,1.063,0.393
				c0.355,0.129,0.711,0.256,1.064,0.385c0.324,0.119,0.695,0.322,1.045,0.33c0.24,0.006,0.27-0.287,0.109-0.41
				c-0.25-0.191-0.639-0.262-0.934-0.363c-0.357-0.125-0.713-0.25-1.068-0.373c-0.355-0.125-0.711-0.256-1.068-0.371
				c-0.34-0.109-0.682-0.246-1.039-0.279C58.472,79.346,58.444,79.568,58.56,79.646L58.56,79.646z"/>
		</g>
		<g>
			<path fill="#010101" d="M59.831,73.568c0.188,0.209,0.527,0.432,0.818,0.367c0.076-0.016,0.125-0.123,0.078-0.188
				c-0.172-0.236-0.545-0.326-0.822-0.357C59.808,73.381,59.778,73.508,59.831,73.568L59.831,73.568z"/>
		</g>
		<g>
			<path fill="#010101" d="M48.179,75.596c0.299-0.672,0.684-1.314,1.193-1.848c0.535-0.555,1.17-0.984,1.859-1.326
				c0.77-0.383,1.623-0.594,2.469-0.729c0.398-0.063,0.805-0.104,1.207-0.123c0.438-0.02,0.807,0.047,1.217,0.191
				c0.525,0.184,0.828-0.607,0.369-0.877c-0.832-0.492-1.98-0.283-2.883-0.152c-0.963,0.141-1.898,0.42-2.775,0.842
				c-1.506,0.727-2.91,2.186-3.043,3.916C47.776,75.691,48.097,75.785,48.179,75.596L48.179,75.596z"/>
		</g>
		<g>
			<path fill="#010101" d="M58.188,71.018c0.396-0.939,0.896-1.766,1.695-2.414c0.4-0.328,0.889-0.559,1.381-0.713
				c0.248-0.076,0.508-0.133,0.766-0.164c0.27-0.033,0.537-0.008,0.805-0.033c0.381-0.035,0.521-0.615,0.096-0.709
				c-0.592-0.131-1.295,0.004-1.867,0.172c-0.602,0.178-1.166,0.479-1.656,0.865c-0.889,0.701-1.58,1.791-1.635,2.938
				C57.759,71.223,58.103,71.221,58.188,71.018L58.188,71.018z"/>
		</g>
		<g>
			<path fill="#010101" d="M53.493,67.414c0.234-0.045,0.457-0.184,0.678-0.275c0.23-0.1,0.576-0.131,0.736-0.334
				c0.125-0.162,0.086-0.377-0.117-0.447c-0.277-0.096-0.605,0.109-0.848,0.238c-0.246,0.129-0.518,0.301-0.658,0.547
				C53.196,67.291,53.339,67.443,53.493,67.414L53.493,67.414z"/>
		</g>
		<g>
			<path fill="#010101" d="M57.024,72.053c0.523-0.137,0.66-0.832,0.65-1.295c-0.016-0.598-0.359-1.119-0.768-1.529
				c-0.447-0.447-1.018-0.768-1.557-1.086c-0.266-0.154-0.521-0.322-0.762-0.514c-0.123-0.1-0.238-0.203-0.367-0.295
				c-0.162-0.115-0.338-0.105-0.521-0.072c-0.154,0.027-0.223,0.18-0.24,0.314c-0.039,0.307,0.143,0.512,0.361,0.695
				c0.23,0.195,0.475,0.373,0.727,0.539c0.467,0.307,0.979,0.539,1.441,0.854c0.357,0.244,0.686,0.584,0.836,0.996
				c0.07,0.193,0.094,0.381,0.08,0.584c-0.014,0.207-0.117,0.402-0.141,0.611C56.753,71.99,56.907,72.082,57.024,72.053
				L57.024,72.053z"/>
		</g>
		<g>
			<path fill="#010101" d="M51.513,53.924c0.23,0.359,0.439,0.732,0.682,1.088c0.26,0.381,0.525,0.756,0.777,1.139
				c0.508,0.77,1.008,1.541,1.482,2.33c0.479,0.789,0.928,1.594,1.352,2.41c0.414,0.797,0.848,1.607,1.17,2.447
				c0.174-0.229,0.348-0.457,0.521-0.686c-1.451,0.004-2.916,0.203-4.35,0.416c-1.42,0.211-2.826,0.5-4.219,0.855
				c-2.805,0.713-5.533,1.711-8.148,2.945c-0.467,0.223-0.928,0.451-1.387,0.689c-0.48,0.248-0.955,0.48-1.369,0.832
				c-0.422,0.355,0.025,1.086,0.533,0.918c0.695-0.23,1.332-0.646,1.984-0.977c0.643-0.322,1.291-0.627,1.947-0.918
				c1.289-0.572,2.611-1.07,3.951-1.514c2.699-0.889,5.494-1.523,8.313-1.881c0.912-0.117,1.828-0.182,2.742-0.285
				c0.41-0.047,0.67-0.424,0.469-0.814c-0.424-0.816-0.801-1.658-1.234-2.471s-0.896-1.609-1.381-2.393
				c-0.486-0.783-0.998-1.555-1.549-2.293c-0.279-0.375-0.566-0.746-0.857-1.113c-0.305-0.381-0.654-0.719-0.994-1.064
				C51.729,53.365,51.341,53.654,51.513,53.924L51.513,53.924z"/>
		</g>
		<g>
			<path fill="#010101" d="M72.901,71c0.672-0.186,1.328-0.41,1.984-0.648c0.307-0.113,0.611-0.23,0.926-0.322
				c0.146-0.045,0.301-0.078,0.453-0.098c0.158-0.021,0.313,0.004,0.465-0.043c0.16-0.049,0.141-0.248,0-0.305
				c-0.25-0.1-0.594,0.01-0.842,0.078c-0.34,0.096-0.666,0.236-0.992,0.367c-0.688,0.273-1.367,0.557-2.031,0.885
				C72.815,70.938,72.851,71.014,72.901,71L72.901,71z"/>
		</g>
	</g>
</g>
</svg>
