<?xml version="1.0" encoding="utf-8"?>
<!-- Generator: Adobe Illustrator 16.0.0, SVG Export Plug-In . SVG Version: 6.00 Build 0)  -->
<!DOCTYPE svg PUBLIC "-//W3C//DTD SVG 1.1//EN" "http://www.w3.org/Graphics/SVG/1.1/DTD/svg11.dtd">
<svg version="1.1" id="Layer_1" xmlns="http://www.w3.org/2000/svg" xmlns:xlink="http://www.w3.org/1999/xlink" x="0px" y="0px"
	 width="85px" height="85px" viewBox="0 0 85 85" enable-background="new 0 0 85 85" xml:space="preserve">
<g>
	<path fill="#FFFFFF" d="M42.558,64.143c-1.459-3.248-2.748-6.568-3.861-9.951c-1.514-4.486-2.727-9.07-3.631-13.719l0.203-0.146
		c-0.171-0.462,0.05-1.104,0.352-1.453c0.512-0.593,1.158-1.451,1.681-2.037c0.223,0.18,4.757,3.755,5.101,3.999H43.2
		c0.344-0.244,4.879-3.818,5.101-3.999c0.523,0.586,1.169,1.443,1.681,2.037c0.302,0.349,0.523,0.99,0.353,1.453l0.117,0.085
		c-0.968,4.609-2.116,9.384-3.657,13.75c-1.274,3.611-2.097,6.281-3.741,9.98H42.558z"/>
	<path fill="#FFFFFF" d="M54.126,21.495c0.348-0.321,0.809-0.489,1.28-0.469c0.605-0.02,1.173,0.296,1.477,0.82
		c0.501,0.87,0.479,2.472,0.144,3.464c-0.238,0.702-0.629,1.776-1.57,2.546c-0.419,0.349-0.965,0.506-1.505,0.435l-0.145-0.023
		c-0.143,0.479-0.315,0.949-0.519,1.405c-0.374,1.013-2.4,4.513-4.988,5.998v1.166c-0.222,0.18-4.757,3.755-5.101,3.999h-0.798
		c-0.344-0.244-4.878-3.818-5.101-3.999v-1.187c-1.14-0.664-2.147-1.534-2.969-2.566c-1.172-1.416-2.042-3.056-2.555-4.82
		c-0.577,0.123-1.178-0.027-1.629-0.406c-0.943-0.771-1.332-1.845-1.571-2.547c-0.336-0.992-0.357-2.594,0.144-3.464
		c0.303-0.524,0.87-0.839,1.476-0.82c0.472-0.021,0.933,0.147,1.28,0.468c0,0-2.369-11.343,11.325-11.343
		S54.126,21.495,54.126,21.495"/>
	<path fill="#B3B3B3" d="M43.053,64.143c1.644-3.699,2.468-6.369,3.742-9.98c1.721-4.875,2.951-10.262,3.99-15.356
		c0.389,0.095,1.779,0.433,1.779,0.433c0.656,0.376,1.255,0.844,1.778,1.389c2.42,0.858,4.768,1.905,7.023,3.13
		c0.985,0.594,1.827,1.398,2.465,2.357c0.837,1.215,1.424,2.584,1.729,4.029c0.398,1.783,0.78,5.947,0.855,8.51
		c0.149,5.217,0.132,8.607-0.512,13.021c-0.253,1.738-0.633,3.9-1.341,5.508c-0.599,1.469-1.677,2.693-3.06,3.473
		c-2.873,1.662-6.847,1.154-10.007,0.898c-3.051-0.307-6.038-1.07-8.861-2.266c-1.955,0.635-3.943,1.166-5.956,1.586
		c-2.868,0.523-6.339,1.375-9.224,0.957c-2.884-0.418-5.412-1.703-6.83-4.246c-1.188-2.135-1.685-5.115-1.827-7.553
		c-0.22-3.811-0.246-7.17-0.155-11.195c0.075-3.445,0.323-7.178,1.07-9.611c0.387-1.303,1.019-2.521,1.862-3.588
		c0.911-1.08,2.048-1.947,3.331-2.541c2.151-0.931,4.242-1.741,6.439-2.555c0.503-0.508,1.072-0.946,1.691-1.302l1.79-0.064
		c0.92,5.093,2.214,10.113,3.871,15.015c1.114,3.383,2.402,6.703,3.861,9.951H43.053z"/>
	<path fill="#85807F" d="M55.04,10.298c-0.532-0.854-1.188-1.625-1.948-2.286l-1.809-1.608C48.938,3.792,45.822,3.07,42.75,3.07
		c-3.108-0.044-6.141,0.953-8.617,2.832c-0.923,0.726-1.74,1.577-2.427,2.529c-1.574,1.541-2.83,4.907-2.736,8.245
		c-0.011,1.511,0.174,3.017,0.55,4.48c0.216-0.081,0.444-0.125,0.675-0.13c0.472-0.021,0.933,0.148,1.28,0.468l0.507,0.355
		c0.037-0.682,0.111-1.361,0.221-2.035c0.236-1.43,1.721-2.09,2.35-3.366c0.363-0.736,0.58-1.595,1.202-2.119
		c0.468-0.394,1.092-0.528,1.695-0.591c0.933-0.098,4.089,0.042,5.145,0.237c0.894,0.05,1.759,0.229,3.032,0.391
		c0.69,0.088,1.972,0.314,2.462,0.413c1.927,0.443,2.665,0.924,3.633,2.235c0.371,0.503,0.766,1.42,1.132,2.613l1.272,1.867
		c0.347-0.321,0.808-0.489,1.28-0.469c0.214,0.005,0.425,0.043,0.627,0.112c0.408-1.451,0.589-2.957,0.534-4.463
		C56.442,13.727,55.957,11.817,55.04,10.298"/>
	<path fill="#211715" d="M31.307,8.031c-1.12,1.112-1.817,2.627-2.275,4.116c-0.521,1.797-0.724,3.671-0.598,5.539
		c0.05,1.164,0.216,2.319,0.496,3.45c0.18,0.705,1.271,0.406,1.091-0.3c-0.437-1.771-0.591-3.601-0.458-5.421
		c0.105-1.651,0.536-3.266,1.269-4.75c0.324-0.675,0.755-1.294,1.275-1.833c0.519-0.514-0.283-1.314-0.8-0.8V8.031z"/>
	<path fill="#211715" d="M51.683,6.005c-2.04-2.251-4.885-3.292-7.868-3.469c-3.017-0.18-6.151,0.306-8.782,1.853
		c-0.779,0.442-1.497,0.986-2.134,1.616c-0.619,0.666-1.181,1.382-1.68,2.142c-0.155,0.27-0.064,0.614,0.203,0.774
		c0.271,0.151,0.612,0.062,0.773-0.203c0.413-0.624,0.871-1.216,1.37-1.773c0.485-0.508,1.031-0.953,1.626-1.325
		c1.184-0.754,2.49-1.296,3.86-1.603c1.389-0.301,2.811-0.426,4.23-0.371c1.282,0.021,2.554,0.233,3.772,0.63
		c1.472,0.502,2.79,1.374,3.829,2.531C51.373,7.346,52.171,6.543,51.683,6.005L51.683,6.005z"/>
	<path fill="#211715" d="M56.616,21.137c0.306-1.171,0.482-2.373,0.527-3.582c0.014-1.144-0.067-2.286-0.241-3.416
		c-0.236-1.62-0.726-3.224-1.669-4.579c-0.505-0.712-1.09-1.365-1.741-1.946c-0.538-0.488-1.341,0.31-0.8,0.8
		c1.034,0.939,1.899,1.991,2.413,3.265c0.685,1.7,0.884,3.6,0.908,5.418c-0.003,1.262-0.167,2.519-0.488,3.739
		C55.353,21.542,56.442,21.844,56.616,21.137L56.616,21.137z"/>
	<path fill="#211715" d="M42.745,13.432c-0.929-0.146-1.867-0.229-2.807-0.25c-0.86-0.068-1.724-0.066-2.583,0.003
		c-0.723,0.084-1.435,0.261-2,0.746c-0.485,0.417-0.757,1.006-1.001,1.583c-0.186,0.501-0.452,0.969-0.787,1.385
		c-0.363,0.416-0.778,0.785-1.125,1.213c-0.431,0.504-0.714,1.118-0.818,1.773c-0.113,0.736-0.169,1.474-0.227,2.215
		c0.002,0.312,0.254,0.563,0.565,0.566c0.31-0.006,0.56-0.256,0.566-0.566c0.081-1.028,0.016-2.257,0.662-3.121
		c0.623-0.834,1.481-1.433,1.929-2.404c0.232-0.504,0.404-1.053,0.727-1.511c0.334-0.475,0.869-0.652,1.421-0.736
		c0.786-0.083,1.578-0.093,2.366-0.028c0.552,0.021,1.104,0.051,1.654,0.094c0.239,0.019,0.477,0.04,0.715,0.066
		c0.047,0.005,0.285,0.035,0.176,0.02c0.089,0.012,0.178,0.026,0.268,0.042c0.3,0.074,0.605-0.1,0.696-0.395
		C43.221,13.827,43.045,13.517,42.745,13.432"/>
	<path fill="#211715" d="M47.938,15.326c0.562,0.118,1.109,0.29,1.638,0.514c0.216,0.106,0.424,0.229,0.621,0.367
		c0.107,0.074-0.004-0.008,0.073,0.055c0.041,0.033,0.081,0.067,0.121,0.102c0.094,0.083,0.186,0.171,0.273,0.261
		c0.354,0.352,0.653,0.756,0.887,1.198c0.312,0.627,0.564,1.282,0.756,1.956c0.214,0.693,1.307,0.398,1.091-0.301
		c-0.222-0.768-0.513-1.513-0.87-2.227c-0.285-0.523-0.643-1.004-1.063-1.427c-0.875-0.902-2.026-1.311-3.226-1.589
		C47.53,14.069,47.229,15.16,47.938,15.326L47.938,15.326z"/>
	<path fill="#211715" d="M46.242,13.998c-0.176-0.749-0.762-1.388-1.352-1.847c-0.98-0.733-2.141-1.188-3.358-1.318
		c-0.312,0.002-0.564,0.254-0.566,0.566c0.008,0.309,0.257,0.558,0.566,0.565c0.532,0.075,1.052,0.215,1.549,0.418
		c-0.082-0.034,0.064,0.028,0.079,0.036c0.061,0.027,0.12,0.056,0.18,0.085c0.106,0.053,0.211,0.109,0.314,0.168
		c0.098,0.057,0.193,0.117,0.288,0.18c0.049,0.032,0.097,0.065,0.145,0.1c0.021,0.015,0.138,0.103,0.042,0.029
		c0.155,0.121,0.303,0.252,0.441,0.393c0.058,0.06,0.114,0.121,0.169,0.184c0.03,0.035,0.058,0.073,0.089,0.107
		c0.026,0.033,0.017,0.02-0.029-0.039c0.015,0.021,0.03,0.041,0.044,0.061c0.086,0.121,0.163,0.248,0.23,0.38
		c0.008,0.015,0.045,0.072,0.039,0.083c0,0-0.047-0.141-0.014-0.027c0.018,0.059,0.039,0.116,0.053,0.177
		c0.083,0.301,0.395,0.478,0.695,0.395C46.148,14.61,46.325,14.299,46.242,13.998"/>
	<path fill="#211715" d="M31.875,21.094c-0.755-0.673-1.842-0.824-2.751-0.379c-0.64,0.351-1.087,0.971-1.218,1.689
		c-0.355,1.69-0.005,3.453,0.971,4.878c0.685,1.001,1.663,1.725,2.924,1.553c0.3-0.084,0.476-0.395,0.395-0.695
		c-0.09-0.296-0.396-0.47-0.696-0.395c-0.888,0.121-1.574-0.832-1.935-1.51c-0.362-0.657-0.584-1.382-0.653-2.129
		c-0.038-0.414-0.021-0.831,0.049-1.24c0.032-0.185,0.081-0.367,0.148-0.542c0.033-0.078,0.072-0.153,0.118-0.225
		c0.012-0.021,0.118-0.169,0.04-0.071c0.466-0.528,1.269-0.587,1.808-0.134C31.615,22.381,32.417,21.583,31.875,21.094
		L31.875,21.094z"/>
	<path fill="#211715" d="M54.526,21.896c0.304-0.261,0.712-0.364,1.104-0.281c0.28,0.04,0.533,0.189,0.704,0.415
		c-0.078-0.099,0.027,0.049,0.04,0.071c0.045,0.072,0.085,0.147,0.118,0.225c0.066,0.176,0.116,0.357,0.147,0.542
		c0.071,0.409,0.088,0.826,0.05,1.239c-0.069,0.747-0.291,1.472-0.652,2.13c-0.362,0.679-1.047,1.631-1.936,1.51
		c-0.3-0.072-0.604,0.101-0.695,0.395c-0.081,0.301,0.095,0.611,0.395,0.696c2.062,0.282,3.261-1.748,3.795-3.446
		c0.255-0.862,0.312-1.771,0.165-2.658c-0.114-0.738-0.42-1.446-1.048-1.881c-0.937-0.601-2.159-0.502-2.986,0.243
		c-0.542,0.489,0.261,1.287,0.8,0.8V21.896z"/>
	<path fill="#211715" d="M53.475,27.286c-0.186,0.803-0.444,1.587-0.773,2.344c0.067-0.165,0.009-0.021-0.009,0.019
		c-0.021,0.047-0.043,0.093-0.064,0.139c-0.058,0.121-0.118,0.24-0.181,0.358c-0.138,0.259-0.283,0.513-0.436,0.763
		c-0.806,1.372-1.837,2.598-3.052,3.626c-0.653,0.558-1.425,0.959-2.258,1.172c-0.709,0.164-0.409,1.254,0.301,1.091
		c1.723-0.398,3.155-1.659,4.279-2.968c0.962-1.084,1.766-2.3,2.387-3.61c0.028-0.064,0.056-0.128,0.083-0.193
		c0.007-0.016,0.095-0.225,0.06-0.146c-0.037,0.086,0.012-0.023,0.021-0.042c0.032-0.072,0.062-0.146,0.094-0.219
		c0.047-0.111,0.091-0.223,0.134-0.336c0.213-0.552,0.383-1.119,0.508-1.697c0.074-0.3-0.1-0.606-0.396-0.696
		C53.871,26.811,53.562,26.987,53.475,27.286L53.475,27.286z"/>
	<path fill="#211715" d="M31.004,27.546c0.376,1.675,1.053,3.267,1.998,4.7c1.025,1.542,2.375,2.987,4.008,3.891
		c0.829,0.461,1.734,0.769,2.672,0.909c0.3,0.073,0.604-0.1,0.696-0.395c0.081-0.301-0.096-0.611-0.395-0.696
		c-3.352-0.495-5.848-3.387-7.132-6.357c-0.324-0.759-0.577-1.547-0.755-2.353C31.934,26.536,30.843,26.836,31.004,27.546
		L31.004,27.546z"/>
	<path fill="#211715" d="M54.306,41.212c2.174,0.753,4.281,1.681,6.303,2.778c1.654,0.918,2.954,2.363,3.693,4.105
		c0.716,1.561,0.946,3.301,1.152,4.99c0.227,1.861,0.404,3.736,0.467,5.611c0.142,4.227,0.064,8.439-0.535,12.631
		c-0.318,2.225-0.762,4.594-2.054,6.482c-1.144,1.672-2.951,2.6-4.894,3.016c-2.041,0.436-4.166,0.365-6.236,0.219
		c-2.327-0.18-4.62-0.676-6.812-1.479c-0.501-0.18-0.998-0.369-1.491-0.57c-0.301-0.082-0.611,0.096-0.695,0.395
		c-0.075,0.301,0.099,0.607,0.395,0.695c2.244,0.947,4.601,1.6,7.012,1.941c2.181,0.307,4.389,0.352,6.579,0.135
		c2.169-0.246,4.33-0.9,5.959-2.416c1.703-1.584,2.518-3.871,2.983-6.096c0.437-2.201,0.721-4.428,0.851-6.668
		c0.148-2.188,0.157-4.381,0.114-6.572c-0.04-2.049-0.159-4.086-0.375-6.125c-0.188-1.793-0.362-3.645-0.905-5.373
		c-0.324-1.02-0.784-1.992-1.368-2.889c-0.605-0.9-1.363-1.689-2.239-2.332c-0.818-0.584-1.693-1.086-2.61-1.5
		c-1.068-0.524-2.157-1.003-3.268-1.434c-0.57-0.223-1.146-0.433-1.723-0.636c-0.302-0.083-0.613,0.094-0.696,0.395
		S54.005,41.128,54.306,41.212L54.306,41.212z"/>
	<path fill="#FFFFFF" d="M49.461,74.293c-0.546,0.004-1.09-0.076-1.61-0.238c-0.555-2.355-1.264-4.67-2.125-6.93
		c-0.025-0.064-0.058-0.129-0.094-0.188l0.398-0.178c1.527-0.678,2.408-0.918,4.002-1.377c1.427-0.414,2.951-0.842,4.917-0.846
		c0.886,0.037,1.761,0.213,2.591,0.525c-0.609,3.137-1.396,6.422-2.175,8.971l-0.057,0.006
		C53.367,74.252,51.414,74.336,49.461,74.293"/>
	<path fill="#FFFFFF" d="M26.104,63.93c-0.155-0.186-0.285-0.391-0.386-0.611c-0.155-0.352-0.095-0.76,0.154-1.051
		c0.292-0.303,0.716-0.443,1.131-0.371l0.225,0.037L27,61.451c-0.218-0.443-0.146-0.975,0.184-1.344
		c0.321-0.287,0.753-0.418,1.18-0.357c0.496,0.07,0.959,0.287,1.331,0.623c1.935,1.713,5.495,5.186,7.294,7l0.574,0.543
		c-3.058,0.727-6.191,1.459-8.926,2.131l-0.184-0.197c-0.828-0.773-1.599-1.604-2.308-2.486c-0.211-0.238-0.38-0.51-0.499-0.805
		c-0.104-0.344-0.042-0.715,0.168-1.006c0.4-0.445,0.924-0.359,1.641-0.232C26.972,64.805,26.47,64.381,26.104,63.93"/>
	<path fill="#211715" d="M27.885,70.814c3.287-0.818,6.587-1.584,9.882-2.367c1.658-0.395,3.315-0.797,4.97-1.203
		c0.395-0.098,0.79-0.195,1.184-0.295c0.294-0.074,0.573-0.176,0.866-0.045c0.259,0.143,0.444,0.389,0.512,0.676
		c0.145,0.379,0.283,0.76,0.416,1.143c0.583,1.674,1.07,3.383,1.497,5.104c0.101,0.408,0.198,0.816,0.291,1.225
		c0.104,0.379,0.188,0.76,0.252,1.146c0.078,0.688-0.573,0.887-1.089,1.088c-2.718,1.059-5.5,1.939-8.33,2.643
		c-1.29,0.322-2.599,0.553-3.904,0.803c-1.708,0.326-3.434,0.631-5.178,0.646c-2.822,0.025-5.93-0.926-7.648-3.303
		c-0.926-1.283-1.406-2.822-1.732-4.354c-0.319-1.637-0.521-3.295-0.605-4.961c-0.254-3.713-0.305-7.436-0.152-11.152
		c0.062-1.787,0.229-3.57,0.5-5.338c0.242-1.508,0.568-3.031,1.232-4.416c0.726-1.521,1.872-2.807,3.304-3.697
		c0.765-0.457,1.566-0.85,2.395-1.176c0.819-0.35,1.65-0.671,2.483-0.983c0.853-0.321,1.708-0.632,2.562-0.947
		c0.296-0.09,0.47-0.396,0.396-0.696c-0.085-0.3-0.395-0.476-0.696-0.395c-1.815,0.67-3.636,1.324-5.416,2.086
		c-0.857,0.341-1.683,0.757-2.467,1.244c-0.779,0.504-1.489,1.111-2.11,1.801c-2.321,2.637-2.822,6.387-3.132,9.754
		c-0.317,3.877-0.371,7.77-0.159,11.654c0.083,1.83,0.189,3.67,0.431,5.488c0.193,1.74,0.628,3.445,1.294,5.066
		c0.628,1.451,1.648,2.701,2.946,3.605c1.286,0.859,2.744,1.428,4.272,1.664c1.807,0.309,3.621,0.174,5.425-0.092
		c1.649-0.244,3.301-0.562,4.934-0.902c2.863-0.631,5.677-1.463,8.423-2.486c0.684-0.248,1.377-0.492,2.04-0.791
		c0.79-0.371,1.234-1.227,1.084-2.086c-0.14-0.852-0.369-1.701-0.578-2.537c-0.227-0.91-0.473-1.814-0.738-2.713
		c-0.256-0.863-0.53-1.723-0.832-2.572c-0.277-0.781-0.492-1.686-1.239-2.152c-0.783-0.486-1.616-0.188-2.435,0.016
		c-0.832,0.209-1.665,0.412-2.498,0.613c-3.529,0.855-7.067,1.674-10.596,2.527c-0.786,0.191-1.571,0.383-2.357,0.578
		c-0.707,0.176-0.407,1.268,0.301,1.092L27.885,70.814z"/>
	<path fill="#211715" d="M55.74,74.732c1.274-4.117,2.24-8.324,2.89-12.586c0.176-1.098,0.33-2.201,0.446-3.309
		c-0.002-0.312-0.255-0.564-0.566-0.566c-0.31,0.008-0.559,0.256-0.565,0.566c-0.435,4.168-1.316,8.322-2.373,12.373
		c-0.282,1.08-0.584,2.156-0.922,3.221C54.429,75.127,55.521,75.426,55.74,74.732L55.74,74.732z"/>
	<path fill="#211715" d="M47.53,74.527c0.475,0.195,0.981,0.299,1.494,0.307c0.695,0.053,1.395,0.051,2.091,0.037
		c1.399-0.025,2.804-0.105,4.193-0.266c0.309-0.008,0.557-0.256,0.565-0.564c-0.002-0.312-0.254-0.564-0.565-0.566
		c-1.339,0.154-2.691,0.232-4.039,0.264c-0.688,0.016-1.377,0.018-2.063-0.023c-0.137-0.01-0.273-0.02-0.41-0.033
		c-0.063-0.006-0.126-0.012-0.188-0.02c-0.043-0.006-0.034-0.004,0.023,0.004c-0.031-0.006-0.063-0.01-0.094-0.016
		c-0.099-0.018-0.197-0.033-0.294-0.059c-0.047-0.012-0.092-0.029-0.139-0.041c-0.147-0.035,0.07,0.037-0.004,0
		c-0.271-0.148-0.611-0.059-0.774,0.203C47.173,74.025,47.263,74.369,47.53,74.527L47.53,74.527z"/>
	<path fill="#211715" d="M46.315,67.248c1.677-0.703,3.408-1.266,5.179-1.682c0.913-0.24,1.849-0.389,2.792-0.445
		c0.527-0.039,1.057-0.016,1.579,0.07c0.522,0.104,1.037,0.246,1.54,0.422c0.691,0.234,0.987-0.859,0.301-1.09
		c-1.062-0.385-2.185-0.568-3.312-0.539c-1.051,0.053-2.093,0.209-3.112,0.469c-1.894,0.447-3.745,1.057-5.535,1.818
		c-0.269,0.16-0.358,0.504-0.203,0.775C45.705,67.309,46.046,67.398,46.315,67.248L46.315,67.248z"/>
	<path fill="#211715" d="M37.389,66.971c-1.902-1.916-3.84-3.799-5.813-5.645c-0.443-0.414-0.888-0.826-1.34-1.229
		c-0.587-0.525-1.312-0.959-2.13-0.922c-0.811,0.035-1.54,0.486-1.742,1.307c-0.223,0.902,0.32,1.645,0.933,2.24
		c1.202,1.164,2.39,2.342,3.592,3.506c0.523,0.508,1.324-0.291,0.8-0.799c-0.935-0.906-1.859-1.82-2.787-2.732
		c-0.266-0.262-0.538-0.516-0.806-0.775c-0.261-0.211-0.472-0.479-0.615-0.781c-0.21-0.602,0.365-0.904,0.882-0.826
		c0.558,0.084,0.968,0.488,1.367,0.85c0.431,0.389,0.859,0.783,1.283,1.184c0.934,0.877,1.859,1.762,2.776,2.658
		c0.94,0.914,1.874,1.836,2.8,2.766C37.104,68.289,37.903,67.488,37.389,66.971L37.389,66.971z"/>
	<path fill="#211715" d="M27.003,61.33c-0.728-0.102-1.441,0.266-1.782,0.916c-0.369,0.795,0.026,1.543,0.544,2.156
		c0.506,0.6,1.098,1.139,1.645,1.701c0.558,0.57,1.123,1.135,1.716,1.668c0.541,0.484,1.343-0.312,0.8-0.801
		c-0.957-0.857-1.833-1.799-2.735-2.711c-0.212-0.217-0.432-0.426-0.626-0.656c-0.171-0.174-0.296-0.387-0.363-0.621
		c-0.073-0.459,0.464-0.566,0.801-0.521c0.312-0.002,0.564-0.254,0.565-0.564C27.561,61.586,27.312,61.338,27.003,61.33"/>
	<path fill="#211715" d="M28.854,69.447c-0.752-0.68-1.449-1.42-2.084-2.211c-0.129-0.154-0.259-0.311-0.375-0.477
		c-0.083-0.107-0.151-0.227-0.202-0.352c-0.006-0.018-0.032-0.168-0.023-0.086c-0.006-0.064-0.006-0.131,0-0.195
		c-0.005,0.057,0.023-0.105,0.025-0.107c0.032-0.111-0.021,0,0.041-0.092c-0.05,0.074,0.054-0.055,0.072-0.068
		c-0.056,0.043,0.069-0.039,0.083-0.047c-0.083,0.039,0.062-0.016,0.082-0.02c0.108-0.025-0.021-0.012,0.086-0.01
		c0.157,0.002,0.313,0.012,0.468,0.031c0.312-0.002,0.564-0.254,0.565-0.566c-0.007-0.309-0.256-0.559-0.565-0.564
		c-0.704-0.094-1.492,0.078-1.824,0.781c-0.173,0.371-0.215,0.791-0.118,1.189c0.135,0.398,0.352,0.766,0.636,1.076
		c0.697,0.91,1.478,1.754,2.333,2.518c0.224,0.213,0.576,0.213,0.8,0C29.072,70.025,29.072,69.67,28.854,69.447L28.854,69.447z"/>
	<path fill="#3D8DCC" d="M44.614,60.334c0.504-1.336,0.948-2.621,1.423-3.996c-0.045-0.305-0.081-0.525-0.094-0.547
		c-0.497-4.262-1.155-9.34-1.155-9.488c0.011-0.27,0.051-0.535,0.122-0.795c0.03-0.119,0.058-0.238,0.082-0.357
		c0.132-0.592-0.021,0.035,0.132-0.592c0,0,0.183-0.961,0.193-1.014c-0.724-0.975-1.587-2.114-2.117-2.71h-0.798
		c-0.545,0.613-1.444,1.802-2.18,2.794c0.039,0.082,0.064,0.135,0.064,0.135c0.157,0.395,0.283,0.801,0.374,1.217
		c0.165,0.453,0.265,0.928,0.296,1.408c0.004,0.246-0.665,4.898-1.296,9.35l-0.148,0.807c0.889,2.502,1.81,4.846,3.048,7.596h0.495
		C43.665,62.766,44.164,61.529,44.614,60.334"/>
	<path fill="#211715" d="M44.613,45.277c-1.182,0-2.363-0.023-3.545-0.025c-0.312,0-0.566,0.254-0.566,0.566
		s0.253,0.564,0.566,0.564c1.182,0,2.363,0.023,3.545,0.025c0.312,0,0.565-0.252,0.565-0.564S44.926,45.277,44.613,45.277"/>
	<path fill="#211715" d="M44.753,43.48c-0.111,0.471-0.186,0.945-0.285,1.418c-0.097,0.459-0.263,0.939-0.246,1.412
		c0.012,0.316,0.073,0.639,0.112,0.953c0.205,1.666,0.416,3.332,0.62,4.998c0.144,1.176,0.285,2.354,0.424,3.529
		c0.009,0.309,0.257,0.557,0.565,0.566c0.312-0.002,0.563-0.254,0.565-0.566c-0.233-1.998-0.476-3.994-0.728-5.99
		c-0.141-1.139-0.339-2.285-0.422-3.432c0.005-0.332,0.059-0.662,0.159-0.979c0.118-0.535,0.199-1.076,0.326-1.609
		C46.014,43.074,44.923,42.771,44.753,43.48L44.753,43.48z"/>
	<path fill="#211715" d="M40.205,55.891c0.285-2.01,0.57-4.02,0.855-6.029c0.103-0.729,0.203-1.455,0.303-2.184
		c0.054-0.402,0.129-0.811,0.154-1.217c0.004-0.428-0.062-0.852-0.198-1.256c-0.139-0.588-0.321-1.164-0.544-1.725
		c-0.159-0.268-0.504-0.359-0.774-0.203c-0.264,0.162-0.353,0.502-0.203,0.773c0.17,0.457,0.309,0.924,0.415,1.4
		c0.112,0.316,0.171,0.65,0.175,0.986c-0.006,0.121-0.026,0.244-0.041,0.365c-0.011,0.092-0.023,0.184-0.035,0.273l-0.023,0.174
		c-0.011,0.084-0.018,0.133-0.017,0.127c-0.213,1.584-0.441,3.166-0.666,4.75c-0.164,1.154-0.328,2.309-0.492,3.463
		c-0.072,0.301,0.101,0.605,0.395,0.697C39.809,56.367,40.119,56.191,40.205,55.891L40.205,55.891z"/>
	<path fill="#211715" d="M41.275,31.43c0.083-0.044,0.167-0.086,0.251-0.126c0.02-0.009,0.109-0.043,0.021-0.01
		c-0.094,0.036,0.019-0.006,0.03-0.01c0.062-0.022,0.123-0.043,0.186-0.063c0.169-0.05,0.341-0.089,0.516-0.116
		c-0.083,0.014,0.014-0.001,0.047-0.005c0.051-0.005,0.102-0.01,0.152-0.014c0.123-0.009,0.246-0.014,0.37-0.014
		c0.115,0,0.229,0.002,0.344,0.008c0.053,0.003,0.106,0.007,0.159,0.012c0,0,0.188,0.024,0.084,0.008
		c0.173,0.025,0.343,0.063,0.51,0.115c0.07,0.022,0.142,0.05,0.21,0.075c-0.133-0.049,0.002,0.003,0.054,0.03
		c0.043,0.024,0.085,0.047,0.126,0.073c0.048,0.029,0.19,0.139,0.02,0.006c0.225,0.211,0.575,0.211,0.8,0
		c0.219-0.222,0.219-0.578,0-0.8c-0.651-0.461-1.438-0.692-2.234-0.658c-0.77-0.017-1.532,0.159-2.217,0.513
		c-0.27,0.158-0.36,0.504-0.203,0.774C40.658,31.497,41.004,31.588,41.275,31.43L41.275,31.43z"/>
	<path fill="#211715" d="M42.639,25.822c0.103,0.37,0.185,0.745,0.246,1.123l-0.021-0.15c0.007,0.051,0.009,0.103,0.004,0.155
		l0.02-0.15c-0.003,0.024-0.009,0.048-0.017,0.07l0.057-0.135c-0.007,0.016-0.015,0.031-0.024,0.045l0.088-0.115
		c-0.011,0.014-0.023,0.025-0.037,0.036l0.114-0.088c-0.028,0.018-0.058,0.034-0.088,0.047l0.134-0.057
		c-0.048,0.021-0.098,0.035-0.149,0.044l0.15-0.021c-0.047,0.005-0.095,0.005-0.141,0l0.15,0.021
		c-0.053-0.008-0.105-0.021-0.158-0.028c-0.073-0.023-0.151-0.027-0.226-0.01c-0.075,0.003-0.147,0.027-0.21,0.067
		c-0.27,0.158-0.361,0.504-0.203,0.773v0c0.073,0.129,0.195,0.223,0.338,0.259c0.12,0.016,0.236,0.047,0.358,0.052
		c0.183,0.001,0.364-0.042,0.527-0.125c0.208-0.094,0.363-0.278,0.42-0.5c0.038-0.178,0.036-0.362-0.005-0.539
		c-0.062-0.362-0.145-0.721-0.238-1.076c-0.083-0.301-0.395-0.478-0.695-0.395C42.732,25.209,42.555,25.521,42.639,25.822
		L42.639,25.822z"/>
	<path fill="#211715" d="M36.667,22.644c-0.188,0.61-0.065,2.012,1.089,2.131c1.526-0.009,1.607-1.704,1.094-2.501
		C38.429,21.622,37.192,21.35,36.667,22.644"/>
	<path fill="#211715" d="M48.935,22.644c0.188,0.61,0.065,2.012-1.089,2.131c-1.526-0.009-1.607-1.704-1.094-2.501
		C47.172,21.621,48.409,21.35,48.935,22.644"/>
	<path fill="#FFFFFF" d="M37.301,36.837c-0.523,0.586-1.169,1.443-1.681,2.037c-0.302,0.349-0.523,0.99-0.352,1.453
		c0.197,0.393,2.372,3.88,3.837,4.82c0.462-0.617,2.38-3.278,3.297-4.31C42.058,40.593,37.523,37.018,37.301,36.837"/>
	<path fill="#FFFFFF" d="M48.301,36.837c0.523,0.586,1.169,1.443,1.681,2.037c0.302,0.349,0.523,0.99,0.353,1.453
		c-0.197,0.393-2.372,3.88-3.837,4.82c-0.463-0.617-2.38-3.278-3.297-4.31C43.544,40.593,48.078,37.018,48.301,36.837"/>
	<path fill="#211715" d="M36.901,36.438c-0.325,0.367-0.631,0.75-0.938,1.131c-0.303,0.377-0.651,0.739-0.923,1.139
		c-0.45,0.611-0.509,1.426-0.152,2.096c0.669,1.13,1.426,2.208,2.263,3.22c0.472,0.617,1.035,1.16,1.669,1.611
		c0.271,0.148,0.611,0.061,0.774-0.203c1.053-1.406,2.043-2.877,3.208-4.196c0.219-0.23,0.21-0.595-0.02-0.815
		c-0.029-0.028-0.061-0.052-0.095-0.073c-0.073-0.052-0.143-0.107-0.214-0.161l-0.083-0.063c0.065,0.05,0.069,0.054,0.008,0.006
		l-0.236-0.183c-0.396-0.308-0.791-0.617-1.185-0.927c-0.867-0.68-1.733-1.361-2.597-2.044c-0.227-0.179-0.456-0.357-0.681-0.539
		C37.476,36.225,37.125,36.225,36.901,36.438c-0.219,0.221-0.219,0.577,0,0.799c1.444,1.165,2.913,2.302,4.376,3.441
		c0.278,0.217,0.552,0.441,0.839,0.646l-0.114-0.889c-1.229,1.391-2.274,2.94-3.386,4.424l0.774-0.203
		c-0.198-0.133-0.382-0.285-0.549-0.453c-0.23-0.223-0.448-0.459-0.656-0.701c-0.438-0.515-0.852-1.052-1.236-1.61
		c-0.319-0.453-0.626-0.916-0.919-1.387c-0.082-0.133-0.172-0.267-0.242-0.407c-0.008-0.015-0.019-0.03-0.025-0.046
		c0.047,0.118,0.013-0.041,0.012-0.079c0-0.169,0.041-0.336,0.118-0.487c0.186-0.384,0.542-0.71,0.808-1.041
		c0.328-0.408,0.653-0.817,1-1.209C38.183,36.696,37.385,35.892,36.901,36.438"/>
	<path fill="#211715" d="M47.901,37.238c0.578,0.652,1.161,1.336,1.681,2.037c0.087,0.119,0.153,0.252,0.196,0.393
		c0.023,0.073,0.039,0.148,0.047,0.225c0.004,0.049-0.009,0.219,0,0.186c0.016-0.054-0.029,0.055-0.045,0.082
		c-0.04,0.071-0.082,0.138-0.123,0.207c-0.612,1.02-1.298,1.995-2.053,2.914c-0.231,0.279-0.471,0.553-0.729,0.809
		c-0.118,0.119-0.239,0.234-0.366,0.344c-0.091,0.084-0.191,0.16-0.299,0.225l0.774,0.203c-1.111-1.484-2.157-3.034-3.386-4.424
		l-0.114,0.889c0.647-0.463,1.265-0.977,1.891-1.468c0.877-0.688,1.752-1.377,2.627-2.067c0.232-0.183,0.467-0.366,0.697-0.552
		c0.22-0.222,0.22-0.578,0-0.8c-0.224-0.214-0.576-0.214-0.8,0c-1.426,1.15-2.875,2.272-4.321,3.399l-0.271,0.212l-0.118,0.092
		c-0.102,0.079,0.08-0.061-0.015,0.011c-0.087,0.066-0.172,0.133-0.259,0.197c-0.271,0.167-0.355,0.522-0.188,0.793
		c0.021,0.034,0.045,0.066,0.073,0.095c1.165,1.318,2.155,2.79,3.209,4.196c0.161,0.264,0.503,0.354,0.773,0.203
		c1.205-0.789,2.098-2.094,2.908-3.256c0.331-0.477,0.653-0.961,0.953-1.458c0.102-0.15,0.185-0.312,0.247-0.481
		c0.123-0.487,0.062-1.002-0.169-1.447c-0.212-0.46-0.612-0.839-0.929-1.23c-0.358-0.446-0.713-0.896-1.093-1.324
		C48.218,35.892,47.419,36.695,47.901,37.238"/>
	<path fill="#211715" d="M36.036,19.303c-0.128,0.157-0.273,0.299-0.433,0.423l0.115-0.088c-0.181,0.139-0.379,0.255-0.589,0.345
		l0.135-0.057c-0.06,0.025-0.121,0.047-0.183,0.069c-0.14,0.042-0.261,0.134-0.338,0.259c-0.158,0.27-0.067,0.616,0.203,0.774h0
		c0.131,0.077,0.289,0.098,0.436,0.057c0.567-0.186,1.071-0.526,1.455-0.982c0.102-0.109,0.161-0.251,0.165-0.401
		c-0.001-0.15-0.06-0.293-0.165-0.4c-0.106-0.105-0.25-0.165-0.4-0.165c-0.15-0.002-0.295,0.058-0.401,0.165L36.036,19.303z"/>
	<path fill="#211715" d="M43.542,64.428c1.316-2.971,2.375-6.031,3.442-9.098c1.149-3.305,2.143-6.639,2.958-10.045
		c0.464-1.938,0.886-3.884,1.287-5.836c0.075-0.3-0.099-0.606-0.396-0.695c-0.301-0.08-0.609,0.096-0.695,0.395
		c-0.709,3.443-1.479,6.878-2.438,10.261c-0.897,3.168-2.007,6.279-3.118,9.377c-0.615,1.713-1.281,3.406-2.018,5.07
		c-0.148,0.271-0.059,0.611,0.203,0.773C43.037,64.787,43.383,64.695,43.542,64.428"/>
	<path fill="#211715" d="M34.373,39.838c1.231,6.584,3.068,13.041,5.487,19.289c0.684,1.789,1.425,3.555,2.21,5.303
		c0.159,0.268,0.503,0.357,0.773,0.203c0.263-0.164,0.353-0.504,0.203-0.775c-2.706-6.061-4.851-12.359-6.407-18.812
		c-0.444-1.824-0.835-3.66-1.176-5.507c-0.085-0.299-0.395-0.475-0.696-0.395C34.471,39.231,34.297,39.538,34.373,39.838
		L34.373,39.838z"/>
	<path fill="#211715" d="M47.792,63.793c1.311-2.213,2.576-4.453,3.85-6.689c1.551-2.721,3.104-5.438,4.484-8.25
		c0.231-0.473,0.571-0.979,0.605-1.512c0.035-0.549-0.285-0.947-0.634-1.328c-0.685-0.758-1.48-1.406-2.36-1.924v0.977
		c0.376-0.23,0.757-0.453,1.142-0.666c0.385-0.211,0.799-0.383,1.174-0.607c0.373-0.211,0.543-0.658,0.405-1.064
		c-0.147-0.355-0.334-0.693-0.559-1.006c-0.764-1.221-1.81-2.241-3.049-2.973c-0.629-0.371-1.198,0.606-0.571,0.977
		c0.976,0.567,1.812,1.344,2.451,2.273c0.168,0.246,0.324,0.499,0.472,0.758c0.03,0.054,0.061,0.106,0.09,0.16
		c0.022,0.041,0.045,0.082,0.066,0.124c0.023,0.061,0.032,0.053,0.023-0.023l0.101-0.201l-0.1,0.048
		c-0.085,0.034-0.167,0.075-0.246,0.123c-0.672,0.338-1.328,0.706-1.97,1.102c-0.27,0.162-0.355,0.514-0.191,0.785
		c0.048,0.078,0.113,0.143,0.191,0.191c0.709,0.416,1.356,0.932,1.924,1.527c0.188,0.193,0.575,0.471,0.497,0.775
		c-0.07,0.193-0.158,0.381-0.265,0.557c-0.106,0.221-0.214,0.439-0.322,0.66c-0.808,1.631-1.659,3.238-2.558,4.822
		c-1.248,2.195-2.5,4.389-3.754,6.582c-0.62,1.08-1.239,2.16-1.874,3.232C46.444,63.85,47.422,64.42,47.792,63.793L47.792,63.793z"
		/>
	<path fill="#211715" d="M32.751,38.75c-1.239,0.733-2.285,1.752-3.049,2.973c-0.223,0.313-0.41,0.65-0.558,1.006
		c-0.139,0.406,0.031,0.853,0.405,1.064c0.358,0.217,0.757,0.381,1.125,0.582c0.403,0.219,0.799,0.449,1.19,0.691V44.09
		c-0.764,0.447-1.464,0.996-2.083,1.631c-0.321,0.326-0.696,0.676-0.846,1.117c-0.163,0.484,0.007,0.918,0.217,1.354
		c0.851,1.76,1.744,3.5,2.7,5.205c1.311,2.34,2.649,4.664,3.983,6.992c0.653,1.137,1.305,2.275,1.973,3.404
		c0.371,0.627,1.349,0.059,0.977-0.57c-1.242-2.098-2.443-4.221-3.65-6.338c-1.441-2.529-2.902-5.047-4.21-7.648
		c-0.236-0.469-0.468-0.939-0.698-1.412c-0.12-0.17-0.198-0.365-0.229-0.572c0.01-0.162,0.168-0.289,0.271-0.402
		c0.625-0.703,1.355-1.305,2.165-1.783c0.27-0.164,0.355-0.516,0.191-0.785c-0.047-0.078-0.113-0.145-0.191-0.191
		c-0.626-0.385-1.267-0.744-1.921-1.078c-0.082-0.041-0.164-0.082-0.246-0.123l-0.099-0.049c-0.108-0.065-0.091-0.006,0.051,0.177
		l0.002,0.064c0.022-0.041,0.044-0.083,0.066-0.124c0.037-0.067,0.075-0.135,0.112-0.201c0.147-0.259,0.304-0.512,0.472-0.758
		c0.639-0.929,1.476-1.706,2.451-2.273C33.949,39.357,33.38,38.379,32.751,38.75L32.751,38.75z"/>
</g>
</svg>
