<?xml version="1.0" encoding="utf-8"?>
<!-- Generator: Adobe Illustrator 16.0.0, SVG Export Plug-In . SVG Version: 6.00 Build 0)  -->
<!DOCTYPE svg PUBLIC "-//W3C//DTD SVG 1.1//EN" "http://www.w3.org/Graphics/SVG/1.1/DTD/svg11.dtd">
<svg version="1.1" id="Layer_1" xmlns="http://www.w3.org/2000/svg" xmlns:xlink="http://www.w3.org/1999/xlink" x="0px" y="0px"
	 width="85px" height="85px" viewBox="0 0 85 85" enable-background="new 0 0 85 85" xml:space="preserve">
<g>
	<path d="M25.147,82.5c-0.365,0-0.729,0-1.094,0c-0.672-0.095-1.166-0.466-1.639-0.94c-5.585-5.605-11.186-11.197-16.78-16.795
		c-1.423-1.424-1.429-2.758-0.026-4.189c0.401-0.409,0.784-0.841,1.22-1.208c0.556-0.468,0.67-0.956,0.401-1.647
		c-0.806-2.072-1.243-4.239-1.54-6.439c-0.739-5.479-0.076-10.792,1.883-15.95c1.68-4.424,4.196-8.327,7.579-11.617
		c5.397-5.249,11.84-8.425,19.361-9.231c5.115-0.549,10.131-0.053,14.975,1.783c0.753,0.285,0.784,0.275,0.759-0.547
		c-0.092-2.948,0.361-5.808,1.344-8.587c0.568-1.606,1.296-2.066,2.962-1.781c1.139,0.194,2.166-0.131,3.182-0.556
		c1.129-0.473,2.23-1.006,3.349-1.501c0.934-0.413,1.894-0.727,2.932-0.712c0.272-0.038,0.56,0.083,0.819-0.081
		c0.312,0,0.625,0,0.938,0c0.26,0.164,0.549,0.043,0.822,0.081c1.369-0.017,2.587,0.524,3.797,1.066
		c1.021,0.458,2.028,0.943,3.067,1.358c0.912,0.363,1.843,0.493,2.829,0.326c1.42-0.239,2.282,0.297,2.744,1.685
		c0.767,2.305,1.209,4.661,1.358,7.101c0.266,4.344-0.554,8.443-2.531,12.292c-1.854,3.608-4.56,6.495-7.889,8.802
		c-0.946,0.656-0.947,0.647-0.586,1.767c1.205,3.726,1.748,7.553,1.575,11.456c-0.139,3.13-0.681,6.207-1.759,9.161
		c-0.282,0.774-0.196,1.325,0.439,1.854c0.498,0.413,0.942,0.896,1.381,1.377c1.021,1.12,1.054,2.568-0.001,3.652
		c-2.213,2.275-4.469,4.51-6.73,6.737c-0.498,0.489-1.08,0.727-1.77,0.368c-0.89-0.832-0.919-1.483-0.044-2.371
		c1.947-1.976,3.921-3.926,5.88-5.891c0.662-0.664,0.66-0.669-0.018-1.35c-0.935-0.936-1.868-1.873-2.809-2.802
		c-0.576-0.601-1.202-1.155-1.751-1.779c-0.447-0.507-0.77-0.439-1.193,0.024c-0.612,0.673-1.28,1.295-1.924,1.939
		c-4.654,4.654-9.309,9.309-13.963,13.963c-0.742,0.742-0.742,0.745-0.025,1.463c1.525,1.528,3.064,3.044,4.573,4.589
		c0.404,0.414,0.687,0.432,1.08,0c0.578-0.634,1.212-1.216,1.808-1.834c1.33-1.313,2.634-2.652,3.97-3.957
		c0.843-0.823,1.396-0.826,2.292-0.064c0.375,0.788,0.319,1.23-0.318,1.89c-1.121,1.16-2.276,2.287-3.417,3.43
		c-0.919,0.921-1.856,1.824-2.753,2.768c-0.444,0.468-0.932,0.805-1.573,0.898c-0.364,0-0.729,0-1.094,0
		c-0.671-0.096-1.18-0.446-1.64-0.937c-0.748-0.796-1.548-1.542-2.307-2.328c-0.361-0.373-0.737-0.521-1.256-0.376
		c-3.427,0.96-6.94,0.993-10.453,0.856c-1.659-0.065-3.316-0.333-4.92-0.791c-0.755-0.215-1.277-0.059-1.791,0.518
		c-0.656,0.737-1.401,1.396-2.082,2.111C26.331,82.037,25.811,82.386,25.147,82.5z"/>
	<path fill-rule="evenodd" clip-rule="evenodd" fill="#515151" d="M66.553,2.5c-0.017,0.05-0.009,0.097,0.021,0.139
		c-0.284,0.05-0.563,0.074-0.803-0.139C66.031,2.5,66.292,2.5,66.553,2.5z"/>
	<path fill-rule="evenodd" clip-rule="evenodd" fill="#616161" d="M64.033,2.639c0.029-0.043,0.035-0.089,0.02-0.139
		c0.26,0,0.521,0,0.781,0C64.592,2.689,64.317,2.691,64.033,2.639z"/>
	<path fill-rule="evenodd" clip-rule="evenodd" fill="#D78955" d="M30.144,51.593c1.728-0.388,2.946-1.377,3.52-3.07
		c0.143-0.421,0.299-0.403,0.668-0.307c3.35,0.883,6.097-1.438,5.842-4.916c-0.02-0.275-0.114-0.514,0.315-0.646
		c2.715-0.833,3.769-2.402,3.562-5.217c-0.006-0.077-0.005-0.155-0.007-0.233c-0.171-0.367-0.001-0.651,0.243-0.9
		c0.866-0.886,1.743-1.76,2.626-2.629c0.388-0.381,0.643-0.356,0.72,0.23c0.68,0.93,1.179,1.015,2.066,0.351
		c0.993-0.743,2.173-0.715,2.979,0.07c0.827,0.806,0.867,2.001,0.103,3.041c-0.53,0.721-0.55,1.254-0.062,1.737
		c0.463,0.461,1.07,0.435,1.749-0.076c1.021-0.768,2.137-0.744,2.973,0.062c0.849,0.816,0.898,1.991,0.129,3.031
		c-0.522,0.707-0.551,1.27-0.088,1.743c0.487,0.498,1.043,0.468,1.797-0.097c0.969-0.725,2.188-0.67,2.976,0.134
		c0.768,0.782,0.804,2.065,0.072,2.992c-0.177,0.224-0.385,0.423-0.587,0.625c-2.572,2.576-5.148,5.148-7.72,7.727
		c-0.71,0.711-0.743,1.016-0.258,1.919c-0.595,0.876-1.307,1.632-2.218,2.186c-0.439-0.557-0.983-0.789-1.637-0.414
		c-1.898,1.09-3.955,1.148-6.059,1.003c-3.21-0.223-5.989,0.778-8.308,3.019c-0.916,0.885-1.82,1.781-2.729,2.673
		c-0.38,0.219-0.586-0.087-0.793-0.292c-2.031-2.016-4.081-4.014-6.063-6.077c-1.322-1.376-1.293-3.236,0.011-4.635
		c0.833-0.894,1.746-1.713,2.577-2.608C29.014,51.509,29.612,51.732,30.144,51.593z"/>
	<path fill-rule="evenodd" clip-rule="evenodd" fill="#D7EBFD" d="M34.992,17.021c2.387-0.354,4.775-0.254,7.155,0.042
		c2.772,0.346,5.438,1.11,8.011,2.203c0.391,0.166,0.587,0.373,0.678,0.825c1.592,8.003,6.512,13.387,13.527,17.109
		c0.618,0.327,1.252,0.367,1.86,0.015c0.362-0.21,0.51-0.167,0.644,0.244c2.073,6.391,2.077,12.777-0.018,19.162
		c-0.013,0.04-0.058,0.069-0.19,0.22c-0.557-0.588-1.092-1.181-1.657-1.743c-1.18-1.174-2.346-1.217-3.562-0.115
		c-0.283,0.257-0.447,0.347-0.734,0.016c-0.374-0.432-0.784-0.837-1.213-1.215c-0.32-0.281-0.271-0.454,0.014-0.733
		c1.467-1.441,2.939-2.879,4.36-4.365c2.343-2.45,1.485-6.355-1.606-7.513c-0.569-0.214-1.352-0.016-1.689-0.379
		c-0.339-0.364-0.164-1.132-0.392-1.694c-0.709-1.757-2.012-2.739-3.875-2.952c-0.429-0.049-0.609-0.114-0.657-0.603
		c-0.233-2.376-1.832-3.946-4.197-4.155c-0.376-0.033-0.507-0.108-0.548-0.525c-0.328-3.332-3.374-5.131-6.469-3.831
		c-0.307,0.128-0.476,0.144-0.719-0.131c-0.938-1.053-2.139-1.505-3.545-1.49c-1.875,0.021-3.75,0.007-5.624,0.004
		c-0.581-0.001-1.151,0.055-1.65,0.375c-0.245,0.157-0.487,0.133-0.748,0.122c-2.708-0.121-4.627,1.51-4.923,4.229
		c-0.045,0.411-0.165,0.479-0.541,0.514c-2.381,0.224-3.992,1.848-4.211,4.242c-0.036,0.387-0.136,0.513-0.539,0.554
		c-3.063,0.31-4.815,2.809-4.068,5.815c0.094,0.379,0.033,0.475-0.306,0.602c-3.463,1.296-4.296,5.092-1.701,7.713
		c0.806,0.814,1.614,1.626,2.433,2.427c0.251,0.246,0.398,0.412,0.051,0.736c-0.855,0.8-1.676,1.638-2.488,2.482
		c-0.26,0.271-0.433,0.294-0.676,0c-0.352-0.425-0.799-0.732-1.3-0.963c-0.329-0.407-0.359-0.915-0.447-1.396
		c-1.067-5.822-0.562-11.521,1.53-17.046c1.365-3.604,3.333-6.864,5.912-9.765c3.373-3.794,7.427-6.564,12.116-8.451
		C33.643,17.343,34.326,17.219,34.992,17.021z"/>
	<path fill-rule="evenodd" clip-rule="evenodd" fill="#C3E1FE" d="M34.992,17.021c-1.432,0.659-2.937,1.139-4.352,1.847
		c-2.446,1.225-4.689,2.728-6.77,4.503c-2.309,1.97-4.25,4.254-5.851,6.812c-2.248,3.592-3.812,7.456-4.454,11.678
		c-0.312,2.056-0.509,4.109-0.448,6.186c0.058,1.94,0.315,3.858,0.719,5.757c0.032,0.15,0.03,0.308,0.043,0.461
		c-1.073-0.208-1.94,0.143-2.644,0.959c-0.489,0.567-0.991,1.124-1.581,1.791c-1.376-3.989-1.911-7.834-1.651-11.767
		c0.494-7.477,3.336-13.951,8.572-19.32c4.849-4.973,10.763-7.896,17.639-8.87C34.471,17.021,34.733,17.032,34.992,17.021z"/>
	<path fill-rule="evenodd" clip-rule="evenodd" fill="#FDD302" d="M59.054,7.051c1.249-0.636,2.521-1.218,3.829-1.723
		c1.707-0.659,3.391-0.586,5.09,0.079c1.74,0.682,3.373,1.61,5.156,2.189c0.979,0.317,1.978,0.499,2.995,0.342
		c0.463-0.072,0.581,0.119,0.69,0.479c2.521,8.323,0.833,17.413-6.809,23.56c-0.241,0.193-0.499,0.364-0.75,0.546
		c-0.23,0.105-0.396-0.045-0.569-0.149c-1.928-1.164-3.521-2.717-5.053-4.341c-0.146-0.155-0.364-0.33-0.17-0.6
		c0.215-0.137,0.447-0.104,0.682-0.076c3.957,0.465,7.469-1.455,9.295-4.951c0.469-0.898,0.254-1.508-0.304-2.166
		c-0.005-1.064,0.05-2.126,0.141-3.186c0.848-0.903,0.882-1.137,0.364-2.266c-1.55-3.38-4.194-5.252-7.883-5.487
		c-2.55-0.162-4.779,0.791-6.709,2.462c-0.233,0.202-0.422,0.671-0.883,0.333C58.161,10.361,58.196,8.634,59.054,7.051z"/>
	<path fill-rule="evenodd" clip-rule="evenodd" fill="#F9C500" d="M59.054,7.051c-0.424,1.708-0.714,3.436-0.756,5.198
		c0.133,0.368-0.146,0.59-0.322,0.825c-2.507,3.345-2.277,8.253,0.728,11.498c1.101,1.188,2.458,1.989,4.014,2.459
		c0.267,0.08,0.65,0.043,0.712,0.464c1.697,1.96,3.599,3.685,5.827,5.028c-1.089,0.937-2.336,1.632-3.574,2.341
		c-0.259,0.148-0.457,0.146-0.717,0.004c-5.99-3.301-10.31-7.943-11.761-14.823c-0.826-3.917-0.566-7.807,0.639-11.628
		c0.069-0.219,0.032-0.566,0.447-0.496C55.983,8.211,57.517,7.619,59.054,7.051z"/>
	<path fill-rule="evenodd" clip-rule="evenodd" fill="#D7EBFD" d="M44.803,76.521c-4.435,0.981-8.803,0.979-13.258-0.01
		c0.328-0.349,0.622-0.635,0.885-0.945c0.81-0.958,0.798-2.179-0.04-3.117c-0.381-0.426-0.789-0.83-1.208-1.218
		c-0.247-0.229-0.254-0.372-0.006-0.617c2.129-2.102,4.248-4.213,6.36-6.33c0.353-0.354,0.594-0.412,0.993-0.004
		c2.092,2.137,4.212,4.247,6.342,6.349c0.343,0.338,0.406,0.521,0.025,0.904C42.793,73.65,42.792,74.133,44.803,76.521z"/>
	<path fill-rule="evenodd" clip-rule="evenodd" fill="#FD646F" d="M62.404,71.29c-0.802,0.678-1.545,1.415-2.219,2.22
		c-0.773-0.563-1.2-0.536-1.891,0.141c-1.363,1.337-2.721,2.68-4.08,4.02c-1.202-0.837-2.14-1.952-3.119-3.016
		c-0.347-0.377-0.223-0.885,0.014-1.322c0.138-0.255,0.347-0.453,0.549-0.655c4.373-4.375,8.747-8.75,13.126-13.118
		c0.226-0.225,0.405-0.568,0.821-0.492c1.109,1.089,2.203,2.195,3.336,3.26c0.404,0.38,0.131,0.551-0.11,0.791
		c-2.096,2.09-4.19,4.18-6.279,6.276C61.863,70.084,61.839,70.52,62.404,71.29z"/>
	<path fill-rule="evenodd" clip-rule="evenodd" fill="#96D629" d="M15.64,59.05c1.221,1.203,2.449,2.4,3.663,3.611
		c3.627,3.621,7.241,7.255,10.883,10.859c0.422,0.418,0.419,0.63-0.006,1.024c-1.084,1.007-2.122,2.066-3.178,3.104
		c-0.471,0.245-0.657-0.188-0.887-0.414c-1.873-1.846-3.726-3.711-5.585-5.571c-2.467-2.467-4.935-4.934-7.401-7.401
		c-1.31-1.311-1.305-1.75,0.025-3.082c0.589-0.59,1.172-1.186,1.771-1.764C15.12,59.229,15.286,58.946,15.64,59.05z"/>
	<path fill-rule="evenodd" clip-rule="evenodd" fill="#FC4755" d="M65.605,59.066c-0.194,0.171-0.398,0.331-0.582,0.514
		c-4.418,4.415-8.835,8.832-13.251,13.25c-0.944,0.944-0.937,1.368,0.003,2.321c0.82,0.832,1.627,1.679,2.439,2.519
		c-0.706,0.726-1.42,1.443-2.111,2.183c-0.245,0.262-0.392,0.205-0.618-0.022c-1.814-1.83-3.631-3.658-5.471-5.463
		c-0.463-0.454-0.026-0.622,0.196-0.845c3.713-3.724,7.433-7.44,11.15-11.159c1.786-1.785,3.581-3.562,5.349-5.364
		c0.347-0.354,0.548-0.403,0.897-0.008C64.243,57.709,64.937,58.377,65.605,59.066z"/>
	<path fill-rule="evenodd" clip-rule="evenodd" fill="#8AC627" d="M15.64,59.05c-1.09,0.892-2.026,1.941-3.007,2.944
		c-0.438,0.448-0.396,0.993-0.005,1.489c0.096,0.121,0.214,0.227,0.324,0.337c4.454,4.454,8.907,8.908,13.364,13.359
		c0.196,0.196,0.352,0.467,0.686,0.47c-0.633,0.651-1.292,1.28-1.89,1.963c-0.395,0.451-0.637,0.465-1.077,0.018
		c-2.646-2.69-5.325-5.347-7.994-8.016c-2.796-2.797-5.58-5.608-8.402-8.38c-0.481-0.472-0.436-0.702,0.019-1.143
		c1.72-1.665,3.411-3.36,5.078-5.079c0.395-0.406,0.605-0.375,0.957,0.02C14.314,57.729,14.988,58.38,15.64,59.05z"/>
	<path fill-rule="evenodd" clip-rule="evenodd" fill="#C47A44" d="M30.144,51.593c-1.148-0.003-1.768,0.843-2.437,1.565
		c-0.82,0.887-1.885,1.56-2.333,2.775c-0.449,1.217-0.146,2.29,0.686,3.154c2.037,2.119,4.144,4.171,6.222,6.251
		c0.15,0.149,0.3,0.291,0.53,0.291c-1.057,1.074-2.139,2.126-3.16,3.234c-0.412,0.447-0.61,0.229-0.912-0.074
		c-2.627-2.638-5.263-5.267-7.896-7.898c-1.086-1.086-2.154-2.191-3.266-3.25c-0.365-0.348-0.327-0.532,0.012-0.852
		c0.832-0.786,1.64-1.601,2.431-2.428c0.296-0.311,0.539-0.344,0.949-0.187c2.527,0.975,4.943-0.096,5.999-2.627
		c0.1-0.24,0.099-0.532,0.502-0.319C28.312,51.672,29.231,51.628,30.144,51.593z"/>
	<path fill-rule="evenodd" clip-rule="evenodd" fill="#FEE4C1" d="M51.544,59.35c0.739-0.729,1.479-1.457,2.218-2.186
		c0.725,0.489,1.346,0.362,1.925-0.273c0.453-0.499,0.963-0.946,1.423-1.439c0.256-0.275,0.437-0.376,0.733-0.033
		c0.473,0.545,1.327,1.013,1.388,1.58c0.049,0.45-0.838,1.015-1.331,1.507c-2.278,2.271-4.563,4.534-6.847,6.801
		c-0.22,0.19-0.398,0.038-0.543-0.099c-0.885-0.836-1.748-1.695-2.582-2.583c-0.104-0.112-0.191-0.25-0.121-0.422
		c1.015-0.303,2.043-0.564,2.979-1.089C51.639,60.636,51.805,60.278,51.544,59.35z"/>
	<path fill-rule="evenodd" clip-rule="evenodd" fill="#FDD1A3" d="M47.807,62.202c1.051,1.067,1.975,2.268,3.246,3.104
		c-1.259,1.275-2.521,2.55-3.776,3.829c-0.182,0.185-0.31,0.301-0.559,0.05c-2.122-2.141-4.256-4.269-6.447-6.46
		C42.789,61.785,45.346,62.648,47.807,62.202z"/>
	<path fill-rule="evenodd" clip-rule="evenodd" fill="#FDD1A3" d="M37.446,45.155c-0.899,1.116-2.255,1.307-3.256,0.326
		c-2.958-2.897-5.878-5.834-8.789-8.777c-0.734-0.743-0.803-1.833-0.286-2.666c0.521-0.84,1.436-1.194,2.404-0.931
		c-0.448,0.271-0.515,0.649-0.369,1.131c0.192,0.635,0.489,1.193,0.961,1.665c2.826,2.823,5.653,5.646,8.472,8.478
		C36.857,44.656,37.229,44.819,37.446,45.155z"/>
	<path fill-rule="evenodd" clip-rule="evenodd" fill="#C47944" d="M47.633,33.905c-0.168-0.058-0.108-0.608-0.505-0.195
		c-0.933,0.971-1.895,1.914-2.853,2.86c-0.186,0.183-0.223,0.398-0.231,0.634c-0.374-1.499-1.504-2.447-2.545-3.451
		c-0.33-0.319-0.389-0.501-0.024-0.85c1.108-1.058,2.165-2.169,3.262-3.237c0.954-0.929,2.168-0.991,3.078-0.195
		c0.919,0.802,1.029,2.022,0.218,3.065C47.702,32.961,47.581,33.395,47.633,33.905z"/>
	<path fill-rule="evenodd" clip-rule="evenodd" fill="#FDD1A3" d="M31.06,48.434c-0.866,1.019-2.205,1.217-3.136,0.313
		c-2.494-2.421-4.941-4.889-7.375-7.37c-0.608-0.62-0.725-1.441-0.366-2.246c0.346-0.776,0.918-1.309,1.842-1.307
		c0.052,0.059,0.124,0.122,0.124,0.194c0,1.585,0.957,2.617,2.011,3.634c1.668,1.607,3.284,3.27,4.923,4.907
		C29.726,47.201,30.353,47.859,31.06,48.434z"/>
	<path fill-rule="evenodd" clip-rule="evenodd" fill="#FEE4C1" d="M37.446,45.155c-0.351-0.058-0.612-0.262-0.856-0.506
		c-2.923-2.927-5.849-5.852-8.774-8.777c-0.557-0.556-0.804-1.259-0.943-2.008c-0.093-0.501,0.067-0.814,0.646-0.757
		c0.451,0.013,0.774,0.283,1.066,0.575c2.867,2.856,5.733,5.714,8.583,8.588C38.04,43.148,38.106,44.128,37.446,45.155z"/>
	<path fill-rule="evenodd" clip-rule="evenodd" fill="#FDD1A3" d="M41.283,39.553c-0.943,1.104-2.289,1.165-3.396,0.1
		c-1.236-1.189-2.435-2.42-3.649-3.634c-1.325-1.324-2.667-2.631-3.967-3.979c-1.136-1.179-0.851-2.964,0.526-3.604
		c0.348-0.162,0.528-0.22,0.552,0.309c0.157,3.422,1.357,4.857,4.761,5.767C37.822,36.206,39.437,37.998,41.283,39.553z"/>
	<path fill-rule="evenodd" clip-rule="evenodd" fill="#FEE4C1" d="M37.786,32.182c-0.719-0.033-1.211,0.015-1.702-0.091
		c-1.734-0.375-2.649-1.838-2.373-3.794c0.059-0.417,0.366-0.534,0.738-0.534c2.027,0.002,4.053,0.004,6.08,0.009
		c0.345,0.001,0.663,0.108,0.959,0.284c0.811,0.479,0.838,0.688,0.171,1.354c-0.606,0.606-1.252,1.18-1.81,1.828
		C39.229,31.961,38.554,32.425,37.786,32.182z"/>
	<path fill-rule="evenodd" clip-rule="evenodd" fill="#FEE4C1" d="M31.06,48.434c-0.449-0.048-0.73-0.358-1.023-0.652
		c-2.216-2.218-4.415-4.456-6.661-6.643c-0.955-0.93-1.455-1.983-1.351-3.314c0.741-0.147,1.324,0.165,1.822,0.661
		c2.34,2.329,4.681,4.657,7.001,7.006C31.741,46.396,31.786,47.41,31.06,48.434z"/>
	<path fill-rule="evenodd" clip-rule="evenodd" fill="#FDD1A3" d="M24.342,51.399c-0.906,0.973-2.155,1.109-3.093,0.228
		c-1.362-1.282-2.676-2.618-3.973-3.968c-0.629-0.654-0.763-1.478-0.394-2.314c0.346-0.788,0.936-1.296,1.859-1.284
		c0.068,0.08,0.148,0.162,0.148,0.268c-0.004,1.452,0.817,2.438,1.799,3.386C21.933,48.914,23.184,50.112,24.342,51.399z"/>
	<path fill-rule="evenodd" clip-rule="evenodd" fill="#FEE4C1" d="M24.342,51.399c-0.345-0.143-0.61-0.386-0.869-0.646
		c-1.119-1.128-2.218-2.276-3.375-3.362c-0.978-0.918-1.458-1.994-1.356-3.33c0.712-0.145,1.277,0.154,1.757,0.627
		c1.244,1.224,2.486,2.449,3.7,3.702C25.1,49.321,25.128,50.398,24.342,51.399z"/>
	<path fill-rule="evenodd" clip-rule="evenodd" fill="#FEE4C1" d="M41.283,39.553c-0.345-0.051-0.628-0.216-0.872-0.46
		c-1.386-1.388-2.775-2.771-4.155-4.165c-0.099-0.1-0.374-0.185-0.144-0.416c0.025-0.004,0.051-0.011,0.077-0.011
		c2.957-0.019,2.957-0.019,4.934,2.173C41.922,37.56,41.978,38.568,41.283,39.553z"/>
	<path fill-rule="evenodd" clip-rule="evenodd" d="M63.429,27.495c-2.015-0.567-3.803-1.505-5.177-3.136
		c-2.818-3.345-2.948-8.099-0.309-11.602c0.124-0.165,0.236-0.339,0.354-0.509c2.002-2.08,4.407-3.244,7.333-3.16
		c3.824,0.109,7.191,2.597,8.43,6.188c0.313,0.908,0.171,1.291-0.667,1.792c-0.769,0.222-1.129,0.081-1.55-0.61
		c-0.271-0.446-0.4-0.959-0.661-1.412c-1.052-1.833-2.643-2.891-4.693-3.297c-3.911-0.796-7.762,2.418-7.881,6.416
		c-0.099,3.282,2.427,6.659,6.407,6.931c0.497,0.034,0.986-0.006,1.469-0.124c2.308-0.443,3.952-1.738,4.992-3.838
		c0.479-0.967,0.896-1.143,1.772-0.843c0.848,0.625,0.935,0.95,0.507,1.908c-1.66,3.729-5.63,5.911-9.708,5.34
		C63.844,27.511,63.635,27.509,63.429,27.495z"/>
	<path fill-rule="evenodd" clip-rule="evenodd" fill="#96D629" d="M66.552,11.579c2.614,0.457,4.339,1.997,5.277,4.43
		c0.295,0.767,0.727,1.173,1.564,1.06c0.07,1.08,0.023,2.154-0.145,3.223c-0.814-0.148-1.293,0.2-1.642,0.944
		c-1.013,2.152-2.671,3.512-5.057,3.905c-0.875-0.22-1.304-0.992-1.891-1.559c-0.429-0.415-0.732-0.947-1.002-1.482
		c-0.117-0.232-0.34-0.511,0.033-0.739c1.017,0.622,1.773,0.256,2.517-0.554c1.021-1.111,2.124-2.146,3.191-3.215
		c0.202-0.202,0.418-0.396,0.558-0.65c0.266-0.485,0.293-0.957-0.18-1.331c-0.444-0.351-0.876-0.243-1.261,0.127
		c-0.827,0.793-1.626,1.614-2.438,2.423c-1.261,1.257-1.26,1.259-2.526-0.038c-0.235-0.241-0.499-0.464-0.59-0.812
		c-0.018-1.685,0.725-3.065,1.793-4.283C65.262,12.45,65.75,11.809,66.552,11.579z"/>
	<path fill-rule="evenodd" clip-rule="evenodd" fill="#8AC627" d="M66.552,11.579c-0.877,0.802-1.798,1.554-2.421,2.601
		c-0.595,0.998-0.993,2.045-1.038,3.213c-0.388,0.002-0.566-0.328-0.825-0.526c-0.613-0.471-1.028-0.509-1.454-0.114
		c-0.421,0.39-0.437,0.949,0.052,1.527c0.768,0.909,1.648,1.712,2.502,2.542c0.161,0.157,0.503,0.236,0.33,0.59
		c-0.038,0.852,0.587,1.386,1.034,1.959c0.517,0.66,1.205,1.187,1.819,1.771c-3.614,0.896-7.585-1.951-8.102-5.805
		c-0.567-4.243,2.757-7.989,7.026-7.907C65.835,11.436,66.193,11.527,66.552,11.579z"/>
	<path fill-rule="evenodd" clip-rule="evenodd" d="M63.697,21.411c-0.962-0.974-1.929-1.943-2.885-2.924
		c-0.646-0.661-0.723-1.325-0.236-1.841c0.529-0.561,1.188-0.5,1.892,0.171c0.205,0.195,0.417,0.384,0.625,0.575
		c0.548,0.549,1.039,1.445,1.659,1.546c0.6,0.098,1.078-0.903,1.62-1.41c0.662-0.62,1.278-1.289,1.935-1.917
		c0.587-0.563,1.224-0.587,1.724-0.102c0.483,0.468,0.486,1.175-0.062,1.733c-1.417,1.445-2.846,2.878-4.293,4.292
		C65.044,22.152,64.545,22.095,63.697,21.411z"/>
</g>
</svg>
