<?xml version="1.0" encoding="utf-8"?>
<!-- Generator: Adobe Illustrator 16.0.0, SVG Export Plug-In . SVG Version: 6.00 Build 0)  -->
<!DOCTYPE svg PUBLIC "-//W3C//DTD SVG 1.1//EN" "http://www.w3.org/Graphics/SVG/1.1/DTD/svg11.dtd">
<svg version="1.1" id="Layer_1" xmlns="http://www.w3.org/2000/svg" xmlns:xlink="http://www.w3.org/1999/xlink" x="0px" y="0px"
	 width="85px" height="85px" viewBox="0 0 85 85" enable-background="new 0 0 85 85" xml:space="preserve">
<g>
	<g>
		<path fill="#1E2F3F" d="M78.306,54.761c0.894-0.489,1.772-1.006,2.65-1.522c0.898-0.529,1.073-0.928,0.792-1.888
			c-0.629-2.144-1.267-4.285-1.914-6.424c-0.354-1.169-0.881-1.424-2.037-1.021c-3.597,1.258-6.83,3.143-9.716,5.627
			c-0.893,0.769-0.934,1.354-0.125,2.216c1.261,1.344,2.515,2.696,3.81,4.009c1.537,1.559,1.197,1.958,3.522,0.855
			c0,3.573,0,7.142,0,10.771c-1.563-0.559-3.064-1.062-4.611-1.386c-0.668-0.14-0.976-0.404-0.915-1.108
			c0.134-1.582-0.708-2.611-1.977-3.393c-1.241-0.765-2.598-1.249-3.985-1.651c-3.552-1.028-7.194-1.534-10.864-1.879
			c-0.376-0.035-0.819,0.077-1.052-0.38c-1.101-2.169-2.467-4.213-3.35-6.479c-1.507-3.873-2.878-7.799-4.296-11.706
			c-0.082-0.228-0.258-0.447-0.155-0.727c0.845-2.303,1.686-4.606,2.575-7.042c0.779,0.878,1.228,1.73,1.64,2.594
			c1.317,2.756,2.606,5.526,3.923,8.282c0.365,0.764,0.71,1.547,1.269,2.201c1.284,1.502,2.906,1.817,4.455,0.875
			c1.64-0.999,2.269-2.806,1.486-4.558c-2.097-4.701-4.21-9.395-6.366-14.068c-1.057-2.291-2.835-3.854-5.213-4.721
			c-0.193-0.071-0.386-0.146-0.601-0.227c2.36-2.799,2.595-5.795,0.7-8.273c-1.731-2.265-4.834-3.016-7.407-1.793
			c-2.944,1.4-3.958,4.089-3.034,8.056c-0.051,0.017-0.105,0.056-0.152,0.047c-1.847-0.339-3.553-1.127-5.333-1.678
			c-0.205-0.063-0.247-0.195-0.247-0.379c0.002-0.845,0.001-1.689,0.001-2.529c0.099-0.005,0.128-0.013,0.156-0.008
			c2.443,0.439,4.401-0.583,5.126-2.677c0.719-2.077-0.152-4.062-2.322-5.211c-0.321-0.17-0.332-0.314-0.283-0.643
			c0.162-1.109-0.297-1.956-1.327-2.397c-1.507-0.646-3.027-1.265-4.562-1.84c-1.297-0.485-2.358-0.005-2.928,1.254
			c-0.175,0.386-0.367,0.778-0.449,1.187c-0.085,0.428-0.25,0.479-0.635,0.373c-1.118-0.309-2.247-0.575-3.37-0.868
			c-2.107-0.548-2.163-0.524-3.071,1.471c-0.481,1.057-0.335,1.52,0.69,2.067c1.598,0.853,3.184,1.731,4.814,2.515
			c0.65,0.312,0.75,0.688,0.634,1.323c-0.427,2.321-0.538,4.675-0.562,7.027c-0.024,2.354,0.831,4.144,3.271,4.982
			c1.733,0.596,3.384,1.43,5.073,2.157c1.836,0.791,2.562,2.513,1.864,4.44c-0.857,2.366-1.724,4.729-2.573,7.098
			c-0.209,0.584-0.471,1.156-0.534,1.786c-0.182,1.833-0.359,3.666-0.548,5.499c-0.432,4.2-0.882,8.399-1.288,12.602
			c-0.056,0.576-0.264,0.725-0.802,0.792c-1.263,0.158-2.523,0.368-3.77,0.625c-2.607,0.539-5.208,1.121-7.516,2.545
			c-1.303,0.804-2.106,1.898-1.828,3.523c0.098,0.574-0.119,0.786-0.67,0.903c-1.328,0.283-2.642,0.644-3.899,1.159
			c-0.651,0.267-0.848,0.213-0.837-0.558c0.04-3.005,0.016-6.012,0.016-9.019c0-0.323,0-0.646,0-1.062
			c0.271,0.139,0.422,0.207,0.564,0.288c1.18,0.674,1.434,0.645,2.35-0.317c1.524-1.603,3.053-3.202,4.562-4.819
			c0.698-0.746,0.664-1.37-0.106-2.04c-2.983-2.595-6.337-4.552-10.097-5.796c-0.808-0.268-1.427,0.012-1.672,0.81
			c-0.705,2.299-1.38,4.606-2.05,6.915c-0.209,0.723,0.05,1.261,0.72,1.63c0.892,0.491,1.75,1.048,2.655,1.513
			c0.494,0.253,0.677,0.547,0.673,1.114c-0.027,3.999-0.027,7.998,0,11.997c0.004,0.562-0.169,0.866-0.656,1.131
			c-0.698,0.38-1.305,0.902-1.821,1.516c-1.251,1.485-1.249,3.228,0.003,4.712c0.668,0.791,1.501,1.375,2.398,1.873
			c1.818,1.008,3.768,1.683,5.763,2.229c7.148,1.958,14.474,2.681,21.842,3.036c9.822,0.474,19.616,0.144,29.348-1.354
			c4.06-0.625,8.079-1.448,11.896-3.039c1.552-0.646,3.034-1.414,4.166-2.705c1.219-1.393,1.303-3.059,0.23-4.509
			c-0.564-0.764-1.293-1.354-2.112-1.819c-0.382-0.218-0.556-0.46-0.553-0.933c0.021-4.084,0.022-8.168-0.001-12.252
			C77.749,55.214,77.92,54.973,78.306,54.761z M37.465,57.614c-0.634,0.008-0.417-0.413-0.382-0.695
			c0.235-1.912,0.495-3.821,0.746-5.73c0.117-0.889,0.232-1.776,0.379-2.902c1.612,3.184,3.11,6.144,4.719,9.32
			C41.014,57.606,39.239,57.593,37.465,57.614z"/>
	</g>
	<path fill-rule="evenodd" clip-rule="evenodd" fill="#1E2F3F" d="M16.79,23.652c-0.065,0.578-0.344,0.993-0.941,1.154
		c-2.272,0.611-3.632,2.083-4.11,4.376c-0.136,0.654-0.556,0.995-1.187,1c-0.641,0.006-1.07-0.365-1.196-1
		c-0.458-2.317-1.843-3.752-4.1-4.379c-0.591-0.164-0.9-0.552-0.905-1.172c-0.005-0.63,0.333-1.022,0.908-1.178
		c2.272-0.616,3.633-2.063,4.101-4.372c0.126-0.623,0.53-0.989,1.2-0.981c0.661,0.008,1.043,0.351,1.181,0.995
		c0.49,2.286,1.837,3.76,4.12,4.361C16.444,22.61,16.742,23.036,16.79,23.652z"/>
	<path fill-rule="evenodd" clip-rule="evenodd" fill="#1E2F3F" d="M64.044,12.606c-0.052,0.552-0.272,0.99-0.843,1.148
		c-2.05,0.566-3.312,1.851-3.724,3.964c-0.115,0.591-0.556,0.928-1.165,0.928c-0.603,0-1.048-0.307-1.17-0.913
		c-0.423-2.098-1.658-3.414-3.718-3.974c-0.567-0.155-0.849-0.578-0.854-1.133c-0.005-0.599,0.315-1.016,0.913-1.178
		c1.996-0.542,3.2-1.833,3.632-3.847c0.138-0.644,0.523-1.001,1.176-1.007c0.7-0.007,1.094,0.398,1.221,1.065
		c0.276,1.453,1.063,2.55,2.335,3.28c0.41,0.236,0.882,0.376,1.336,0.526C63.746,11.65,63.986,12.053,64.044,12.606z"/>
	<path fill-rule="evenodd" clip-rule="evenodd" fill="#1E2F3F" d="M72.778,25.732c-0.044,0.673-0.365,1.094-0.986,1.262
		c-1.973,0.532-3.142,1.819-3.569,3.795c-0.147,0.687-0.548,1.035-1.245,1.02c-0.67-0.015-1.024-0.404-1.157-1.031
		c-0.421-1.988-1.607-3.252-3.57-3.788c-0.584-0.16-0.943-0.555-0.953-1.156c-0.011-0.637,0.342-1.044,0.971-1.223
		c1.948-0.552,3.146-1.815,3.556-3.808c0.131-0.639,0.523-1.017,1.17-1.025c0.679-0.008,1.088,0.355,1.234,1.045
		c0.42,1.984,1.623,3.25,3.577,3.791C72.401,24.78,72.687,25.182,72.778,25.732z"/>
	<path fill-rule="evenodd" clip-rule="evenodd" fill="#1F2F3F" d="M67.786,45.585c-0.333,0.025-0.646-0.149-0.912-0.424
		c-0.925-0.956-1.856-1.903-2.765-2.874c-0.576-0.615-0.583-1.311-0.067-1.805c0.525-0.503,1.198-0.476,1.802,0.131
		c0.958,0.961,1.894,1.946,2.828,2.93c0.36,0.381,0.477,0.826,0.236,1.324C68.695,45.312,68.362,45.578,67.786,45.585z"/>
	<path fill-rule="evenodd" clip-rule="evenodd" fill="#1F2F3F" d="M21.332,41.347c-0.032,0.419-0.217,0.724-0.483,0.997
		c-0.888,0.911-1.761,1.838-2.657,2.741c-0.622,0.628-1.35,0.672-1.864,0.149c-0.512-0.521-0.49-1.165,0.104-1.797
		c0.911-0.969,1.833-1.926,2.767-2.873c0.382-0.387,0.838-0.557,1.387-0.318C21.09,40.465,21.288,40.868,21.332,41.347z"/>
	<path fill-rule="evenodd" clip-rule="evenodd" fill="#1E2F3F" d="M11.52,42.312c-0.791-0.016-1.38-0.634-1.205-1.378
		c0.349-1.482,0.769-2.951,1.244-4.398c0.216-0.657,0.844-0.847,1.477-0.633c0.599,0.202,0.932,0.708,0.77,1.338
		c-0.374,1.448-0.8,2.883-1.237,4.313C12.41,42.072,11.967,42.27,11.52,42.312z"/>
	<path fill-rule="evenodd" clip-rule="evenodd" fill="#1E2F3F" d="M73.477,42.313c-0.493-0.042-0.923-0.292-1.087-0.84
		c-0.412-1.379-0.81-2.763-1.183-4.153c-0.184-0.681,0.138-1.17,0.757-1.425c0.605-0.25,1.297,0.055,1.509,0.722
		c0.443,1.398,0.857,2.809,1.199,4.234C74.862,41.645,74.289,42.297,73.477,42.313z"/>
	<path fill-rule="evenodd" clip-rule="evenodd" fill="#B2B2B2" d="M29.376,16.318c0,0.681-0.026,1.362,0.006,2.042
		c0.057,1.23,0.556,1.803,1.699,2.262c4.61,1.852,9.498,2.557,14.331,3.473c2.764,0.523,4.661,1.971,5.795,4.556
		c1.899,4.33,3.88,8.625,5.825,12.934c0.127,0.282,0.281,0.553,0.286,0.88c0.008,0.56-0.314,0.877-0.767,1.123
		c-0.495,0.268-0.812-0.052-1.112-0.346c-0.414-0.403-0.62-0.943-0.869-1.451c-1.544-3.152-2.856-6.417-4.564-9.491
		c-0.413-0.745-0.849-1.475-1.404-2.123c-1.3-1.516-3.028-1.357-4.042,0.371c-0.462,0.787-0.694,1.671-1.01,2.519
		c-0.614,1.644-1.183,3.305-1.806,4.945c-0.215,0.564-0.215,1.069-0.005,1.637c1.573,4.247,2.986,8.559,4.725,12.736
		c1.149,2.759,2.757,5.327,4.16,7.981c0.304,0.575,0.622,1.145,0.912,1.728c0.465,0.93,0.255,1.776-0.523,2.198
		c-0.79,0.428-1.619,0.153-2.121-0.787c-2.321-4.348-4.712-8.658-6.887-13.082c-1.062-2.16-2.155-4.305-3.213-6.467
		c-0.312-0.636-0.685-1.122-1.478-1.001c-0.77,0.116-0.969,0.699-1.053,1.351c-0.476,3.707-0.944,7.415-1.422,11.122
		c-0.319,2.471-0.644,4.941-0.981,7.409c-0.111,0.814-0.604,1.262-1.43,1.295c-0.942,0.038-1.585-0.609-1.508-1.632
		c0.152-2.005,0.362-4.006,0.568-6.006c0.424-4.113,0.968-8.218,1.258-12.34c0.228-3.234,0.938-6.304,2.18-9.28
		c0.468-1.122,0.827-2.29,1.26-3.427c0.656-1.725,0.423-3.398-0.285-5.033c-0.433-1-1.181-1.713-2.193-2.147
		c-2.082-0.893-4.145-1.831-6.245-2.677c-0.87-0.35-1.244-0.954-1.292-1.802c-0.133-2.33,0.116-4.642,0.37-6.953
		c0.041-0.37,0.175-0.502,0.546-0.293c0.617,0.347,1.243,0.681,1.881,0.986c0.342,0.164,0.416,0.407,0.407,0.75
		c-0.017,0.68-0.005,1.361-0.005,2.041C29.371,16.318,29.374,16.318,29.376,16.318z"/>
	<path fill-rule="evenodd" clip-rule="evenodd" fill="#F96E84" d="M42.652,80.091c-8.566-0.096-16.874-0.561-25.075-2.203
		c-2.611-0.522-5.19-1.176-7.654-2.211c-1.073-0.451-2.125-0.948-2.987-1.757c-0.916-0.859-0.908-1.414,0.041-2.256
		c0.792-0.703,1.729-1.178,2.69-1.603c1.558-0.689,3.186-1.167,4.821-1.629c0.516-0.146,0.781-0.042,0.734,0.517
		c-0.176,2.106,1.1,3.212,2.774,4.041c2.621,1.298,5.454,1.863,8.303,2.345c6.847,1.157,13.755,1.396,20.676,1.146
		c5.836-0.21,11.65-0.702,17.297-2.341c1.58-0.459,3.123-1.026,4.436-2.073c0.954-0.76,1.47-1.71,1.264-2.964
		c-0.093-0.565-0.045-0.846,0.684-0.633c1.822,0.533,3.643,1.059,5.347,1.912c0.505,0.253,1.004,0.53,1.465,0.854
		c1.696,1.195,1.694,2.029-0.047,3.201c-2.125,1.431-4.557,2.134-6.999,2.76c-5.311,1.361-10.731,2.006-16.188,2.424
		C50.301,79.923,46.365,80.028,42.652,80.091z"/>
	<path fill-rule="evenodd" clip-rule="evenodd" fill="#FEE077" d="M53.46,60.533c1.532,0.014,3,0.274,4.467,0.511
		c2.49,0.402,4.957,0.9,7.304,1.866c0.552,0.228,1.088,0.482,1.562,0.85c0.656,0.509,0.658,0.692-0.032,1.19
		c-0.906,0.654-1.948,1.032-3.001,1.365c-3.722,1.178-7.569,1.667-11.435,2.032c-4.806,0.454-9.626,0.525-14.445,0.334
		c-5.667-0.224-11.311-0.688-16.784-2.339c-1.086-0.328-2.148-0.725-3.091-1.373c-0.723-0.498-0.735-0.746-0.004-1.245
		c1.452-0.99,3.124-1.438,4.799-1.867c1.73-0.443,3.486-0.747,5.251-1.005c0.414-0.061,0.575,0.019,0.513,0.463
		c-0.059,0.42-0.078,0.848-0.089,1.272c-0.054,2.055,1.42,3.709,3.537,3.979c1.895,0.24,3.812-1.139,4.19-3.07
		c0.185-0.943,0.278-1.904,0.39-2.861c0.051-0.432,0.211-0.619,0.69-0.622c2.097-0.012,4.195-0.05,6.292-0.118
		c0.514-0.017,0.754,0.194,0.97,0.618c0.67,1.311,1.373,2.604,2.07,3.9c1.252,2.331,3.548,3.144,5.608,1.99
		C54.262,65.263,54.783,62.882,53.46,60.533z"/>
	<path fill-rule="evenodd" clip-rule="evenodd" fill="#87C7FD" d="M42.134,74.153c-6.01-0.082-12.427-0.404-18.731-1.874
		c-1.627-0.38-3.237-0.833-4.704-1.672c-0.944-0.54-1.372-1.628-1.088-2.656c0.108-0.394,0.317-0.209,0.509-0.126
		c3.179,1.37,6.544,1.987,9.944,2.451c5.77,0.786,11.566,1.036,17.388,0.873c4.566-0.128,9.112-0.451,13.616-1.241
		c2.597-0.455,5.168-1.013,7.588-2.105c0.633-0.286,0.855-0.1,0.873,0.588c0.041,1.644-0.024,1.822-1.532,2.513
		c-2.706,1.24-5.605,1.77-8.518,2.216C52.539,73.876,47.56,74.124,42.134,74.153z"/>
	<path fill-rule="evenodd" clip-rule="evenodd" fill="#FBD3A8" d="M46.781,17.425c0.011,2.059-1.594,3.676-3.646,3.678
		c-2.036,0.001-3.696-1.654-3.679-3.668c0.016-1.977,1.649-3.623,3.63-3.659C45.101,13.739,46.771,15.388,46.781,17.425z"/>
	<path fill-rule="evenodd" clip-rule="evenodd" fill="#87C7FD" d="M79.17,51.231c0.07,0.27-0.159,0.33-0.317,0.423
		c-1.489,0.866-2.989,1.714-4.469,2.595c-0.373,0.222-0.59,0.146-0.863-0.148c-0.902-0.976-1.816-1.94-2.753-2.882
		c-0.349-0.35-0.321-0.527,0.073-0.827c1.946-1.477,4.038-2.687,6.284-3.647c0.525-0.225,0.72-0.144,0.865,0.424
		c0.316,1.229,0.713,2.437,1.075,3.653C79.105,50.957,79.135,51.095,79.17,51.231z"/>
	<path fill-rule="evenodd" clip-rule="evenodd" fill="#87C7FD" d="M14.586,50.771c-0.126,0.155-0.224,0.292-0.339,0.413
		c-0.934,0.984-1.879,1.959-2.801,2.954c-0.256,0.277-0.463,0.316-0.795,0.12c-1.483-0.876-2.975-1.738-4.479-2.578
		c-0.349-0.194-0.381-0.396-0.272-0.745c0.403-1.293,0.8-2.588,1.155-3.895c0.124-0.456,0.28-0.513,0.705-0.338
		c2.341,0.963,4.504,2.223,6.496,3.78C14.362,50.566,14.46,50.662,14.586,50.771z"/>
	<path fill-rule="evenodd" clip-rule="evenodd" fill="#F86D84" d="M24.145,7.927c1.762,0.173,3.212,1.193,4.81,1.809
		c1.331,0.513,2.554,0.812,3.879,0.004c0.545-0.332,1.112,0.018,1.526,0.431c0.528,0.527,0.644,1.187,0.375,1.882
		c-0.469,1.214-2.037,1.54-2.917,0.556c-0.453-0.507-0.984-0.83-1.559-1.133c-2.15-1.134-4.3-2.27-6.45-3.405
		C23.812,7.769,23.994,7.884,24.145,7.927z"/>
	<path fill-rule="evenodd" clip-rule="evenodd" fill="#FAD2A8" d="M30.696,7.807c-0.844-0.351-1.886-0.722-2.865-1.216
		c-0.55-0.277-0.346-0.826-0.138-1.28c0.253-0.554,0.597-0.112,0.844-0.023c0.93,0.333,1.845,0.711,2.75,1.108
		c0.253,0.111,0.786,0.036,0.6,0.594C31.729,7.463,31.514,7.9,30.696,7.807z"/>
	<path fill-rule="evenodd" clip-rule="evenodd" fill="#75485B" d="M23.452,7.934c-0.138-0.067-0.275-0.134-0.449-0.219
		c0.271-0.19,0.452-0.106,0.626,0.032C23.626,7.863,23.525,7.885,23.452,7.934z"/>
	<path fill-rule="evenodd" clip-rule="evenodd" fill="#BF5D72" d="M23.452,7.934c0.059-0.062,0.119-0.125,0.178-0.187
		c0.184,0.026,0.378,0.021,0.516,0.18c-0.112,0.048-0.224,0.096-0.335,0.144C23.69,8.025,23.571,7.979,23.452,7.934z"/>
	<path fill-rule="evenodd" clip-rule="evenodd" fill="#F86D84" d="M10.579,25.694c-0.59-0.691-1.085-1.312-1.726-1.784
		c-0.3-0.221-0.244-0.401,0.03-0.578c0.688-0.444,1.11-1.584,1.726-1.553c0.526,0.026,1.01,1.104,1.65,1.578
		c0.291,0.216,0.279,0.36-0.008,0.563C11.599,24.381,11.091,24.989,10.579,25.694z"/>
	<path fill-rule="evenodd" clip-rule="evenodd" fill="#19CDB8" d="M59.929,12.662c-0.237,0.196-0.463,0.359-0.66,0.549
		c-0.322,0.31-0.598,0.853-0.947,0.9c-0.389,0.053-0.552-0.635-0.931-0.866c-0.748-0.455-0.656-0.861,0.028-1.277
		c0.377-0.229,0.505-0.911,0.943-0.839c0.33,0.054,0.58,0.57,0.874,0.873C59.431,12.202,59.641,12.388,59.929,12.662z"/>
	<path fill-rule="evenodd" clip-rule="evenodd" fill="#86C5FB" d="M68.554,25.834c-0.314,0.314-0.688,0.589-0.932,0.951
		c-0.447,0.667-0.799,0.63-1.187-0.028c-0.237-0.403-0.944-0.564-0.872-1.019c0.057-0.355,0.648-0.595,0.897-0.958
		c0.42-0.611,0.723-0.596,1.132,0.005C67.854,25.169,68.222,25.479,68.554,25.834z"/>
</g>
</svg>
