<?xml version="1.0" encoding="utf-8"?>
<!-- Generator: Adobe Illustrator 16.0.0, SVG Export Plug-In . SVG Version: 6.00 Build 0)  -->
<!DOCTYPE svg PUBLIC "-//W3C//DTD SVG 1.1//EN" "http://www.w3.org/Graphics/SVG/1.1/DTD/svg11.dtd">
<svg version="1.1" id="Layer_1" xmlns="http://www.w3.org/2000/svg" xmlns:xlink="http://www.w3.org/1999/xlink" x="0px" y="0px"
	 width="85px" height="85px" viewBox="0 0 85 85" enable-background="new 0 0 85 85" xml:space="preserve">
<g>
	<circle fill="#5559A7" cx="43.122" cy="43.499" r="39.001"/>
	<circle fill="#DE5E26" cx="12.243" cy="52.546" r="1.999"/>
	<circle fill="#BEC8E6" cx="75.19" cy="29.241" r="1.352"/>
	<circle fill="#FFFFFF" cx="51.151" cy="77.521" r="1.353"/>
	<g>
		<path fill="#FFFFFF" d="M73.839,48.643l-0.883,1.443l-11.424-6.988l0.883-1.442L73.839,48.643z M77.923,38.713l0.129,1.687
			l-9.373,0.715l-0.129-1.687L77.923,38.713z"/>
	</g>
	<g>
		<path fill="#F0C82C" d="M17.343,76.691l1.477,0.828l6.549-11.68l-1.477-0.828L17.343,76.691z M9.64,71.561l-0.713-1.535
			l8.529-3.957l0.711,1.535L9.64,71.561z"/>
	</g>
	<path fill="#F0C82C" d="M39.487,13.487l16.846-3.695L51.399,2.5l-2.004,5.035l-4.688-4.323l-1.236,5.634L39.214,5.62L39.487,13.487
		z"/>
	<path fill="#8FBA42" d="M5.524,37.414l2.371,1.526l-2.51,1.292l-2.508,1.292l0.135-2.818l0.139-2.819L5.524,37.414z"/>
	<path fill="#DE5E26" d="M68.542,15.239l-4.543,0.885l-0.883-4.543l4.541-0.883L68.542,15.239z"/>
	<path fill="#8FBA42" d="M44.548,68.213c1.383,3.482-0.324,7.441-3.807,8.826c-3.484,1.385-7.441-0.322-8.826-3.807
		c-1.385-3.48,0.324-7.441,3.805-8.826C39.204,63.023,43.163,64.73,44.548,68.213L44.548,68.213z M33.688,72.529
		c0.994,2.504,3.844,3.732,6.35,2.736c2.506-0.994,3.732-3.844,2.736-6.348c-0.996-2.506-3.844-3.734-6.35-2.738
		S32.692,70.023,33.688,72.529L33.688,72.529z"/>
	<g>
		<path fill="#222221" d="M75.513,75.93c-0.324-0.402-0.869-0.482-1.309-0.508c-0.357-0.021-0.713-0.035-1.07-0.051
			c-0.66-0.029-1.344-0.061-2.008-0.119c-2.992-0.271-5.631-1.609-8.066-4.098c-0.684-0.695-1.164-1.418-1.473-2.203
			c-0.023-0.062-0.035-0.104-0.041-0.133c0.037-0.012,0.074-0.021,0.111-0.025c1.043-0.166,1.928-0.438,2.867-0.875
			c0.01-0.004,0.02-0.01,0.027-0.016l0.176-0.096c0.189-0.102,0.447-0.24,0.699-0.4c2.416-1.533,3.543-4.51,2.742-7.238
			c-0.59-2.008-2.533-3.398-4.621-3.309c-1.332,0.059-2.502,0.605-3.479,1.623c-1.486,1.555-2.258,3.529-2.354,6.039
			c-0.01,0.221,0.004,0.436,0.016,0.643c0.008,0.115,0.014,0.23,0.018,0.348c-0.086-0.037-0.17-0.08-0.252-0.123
			c-0.062-0.033-0.127-0.064-0.191-0.096c-1.441-0.695-2.688-1.691-3.719-2.574l-0.141-0.121c-0.219-0.189-0.438-0.379-0.666-0.555
			c-0.285-0.221-0.652-0.244-0.959-0.068c-0.332,0.191-0.566,0.514-0.645,0.883c-0.07,0.344,0,0.686,0.203,0.959
			c0.191,0.258,0.422,0.52,0.725,0.82c1.6,1.598,3.416,2.791,5.395,3.549c0.619,0.234,0.975,0.568,1.189,1.113
			c0.27,0.688,0.539,1.227,0.844,1.691c2.49,3.811,6.082,6.148,10.674,6.947c1.348,0.234,2.738,0.252,3.936,0.252
			c0.281-0.002,0.562-0.025,0.842-0.074c0.4-0.07,0.682-0.369,0.75-0.803C75.8,76.881,75.837,76.332,75.513,75.93L75.513,75.93z
			 M60.997,66.15c-0.42,0.01-0.432-0.068-0.467-0.326c-0.254-1.793,0.023-3.32,0.852-4.672c0.287-0.469,0.658-0.861,1.104-1.168
			c0.336-0.229,0.68-0.367,1.02-0.418c0.363-0.051,0.723,0,1.055,0.16c0.672,0.318,1.131,1.031,1.197,1.857
			c0.082,1.006-0.193,1.916-0.82,2.705c-0.504,0.633-1.062,1.09-1.617,1.318c-0.006,0.002-0.01,0.004-0.016,0.006
			C62.54,65.965,61.806,66.135,60.997,66.15L60.997,66.15z"/>
		<path fill="#8889C3" d="M55.175,36.347c-0.152-0.23-0.336-0.442-0.566-0.605L14.946,13.527c-4.109-1.903-5.947,2.365-4.146,4.345
			l32.172,31.339l9.061,8.41c1.377,1.516,3.623,0.424,3.623-1.623l-0.092-18.421C55.562,37.131,55.415,36.71,55.175,36.347z"/>
		<path fill="#BEC8E6" d="M63.265,22.866L12.206,9.959c-3.834-1.282-7.277,2.754-5.41,6.338l15.805,43.119
			c1.336,2.561,4.711,3.215,6.906,1.334l14.072-11.979c1.463-1.246,1.426-3.52-0.078-4.719L11.323,17.638
			c-1.799-1.978,0.754-4.877,2.943-3.342l40.707,23.536c0.232,0.163,0.416,0.375,0.568,0.604l9.219-7.899
			C67.413,28.266,66.573,23.972,63.265,22.866L63.265,22.866z"/>
		<g>
			<path fill="#FFFFFF" d="M63.46,26.517c-0.787-1.146-1.719-1.885-2.93-2.252c-1.129-0.342-2.012-0.053-2.371,0.721
				c-0.367,0.788-0.012,1.548,1.072,2.139c0.898,0.488,1.875,0.838,2.588,1.629c0.428,0.475,1.047,0.66,1.652,0.294
				c0.699-0.42,0.656-1.072,0.408-1.723C63.755,26.998,63.554,26.695,63.46,26.517L63.46,26.517z M56.581,23.473
				c-0.457-0.524-1.662-0.562-2.244-0.093c-0.439,0.355-0.498,0.794-0.133,1.229c0.449,0.532,1.621,0.56,2.193,0.064
				C56.815,24.313,56.89,23.895,56.581,23.473L56.581,23.473z"/>
			<path fill="#FFFFFF" d="M26.433,59.539c0.316,0.121,1.119-0.193,1.262-1.109c0.182-1.193-3.066-5.48-4.117-4.996
				C22.079,54.127,23.892,58.564,26.433,59.539z"/>
		</g>
	</g>
</g>
</svg>
