<?xml version="1.0" encoding="utf-8"?>
<!-- Generator: Adobe Illustrator 16.0.0, SVG Export Plug-In . SVG Version: 6.00 Build 0)  -->
<!DOCTYPE svg PUBLIC "-//W3C//DTD SVG 1.1//EN" "http://www.w3.org/Graphics/SVG/1.1/DTD/svg11.dtd">
<svg version="1.1" id="Layer_1" xmlns="http://www.w3.org/2000/svg" xmlns:xlink="http://www.w3.org/1999/xlink" x="0px" y="0px"
	 width="85px" height="85px" viewBox="0 0 85 85" enable-background="new 0 0 85 85" xml:space="preserve">
<g>
	<path fill="#3E5266" d="M15.348,80.612c0,0-1.49-4.927-1.375-8.249c0.115-3.321,0.344-5.271,0.344-5.271l-3.094,3.208l-1.26,1.604
		l-0.115,4.469c0,0-2.979-1.489-5.156-9.624C2.516,58.613,5.15,51.626,5.15,51.626s2.52-6.073,5.27-9.854s7.447-10.427,7.447-10.427
		s3.324-4.926,3.553-6.188c0.229-1.26,0.688-3.667,0.688-3.667s2.404-5.154,5.957-8.02s7.334-4.696,7.334-4.696
		s6.188-2.521,12.26-1.604s10.885,5.958,10.885,5.958l0.229,1.375c0,0,3.551-2.178,7.332,1.26
		c3.781,3.438,3.668,13.176,3.668,13.176l-0.689,5.5c0,0,1.146,4.012,3.781,7.562c2.635,3.552,5.5,7.677,5.5,7.677
		s3.322,4.468,3.438,9.51c0.113,5.04-3.779,9.395-3.779,9.395l-4.812,4.928l-3.668,1.719l-2.52,0.458c0,0,0.803-1.719-1.719-3.552
		s-5.385-0.802-5.385-0.802l-2.178,0.229L15.348,80.612L15.348,80.612z"/>
	<path fill="#FDD2B4" d="M56.822,23.783c0,0-3.207,4.24-8.021,6.99c-4.811,2.749-7.447,2.635-7.447,2.635s1.375-1.719,1.949-2.75
		c0.572-1.029,0.457-1.719,0.457-1.719s-4.238,2.406-6.76,2.979c-2.52,0.571-2.061,0.229-2.061,0.229s1.719-2.291,1.832-2.749
		c0.115-0.459-0.113-1.146-0.113-1.146s-1.031-0.115-4.469,1.832s-4.355,3.78-4.355,3.78s-0.916,4.47-0.801,6.302
		c0.115,1.834,0.457,4.125,0.457,4.125l-1.375-1.261l-1.031-2.177l-1.145,2.177l0.801,4.354c0,0,0.803,3.438,1.834,4.01
		c1.031,0.573,1.947,0.344,1.947,0.344s2.863,5.844,4.012,7.22c1.145,1.375,2.52,2.635,2.52,2.635s4.238,4.239,7.562,5.729
		c3.322,1.49,7.789-0.343,7.789-0.343s3.668-3.095,5.041-4.583c1.377-1.49,3.781-7.219,3.781-7.219l1.262-5.385
		c0,0,1.604,1.375,2.291,0s0.916-3.438,0.916-3.438s0.115-2.864-0.229-4.695c-0.344-1.835-0.688-3.095-0.688-3.095
		s-1.49,0.917-1.49,2.062s-0.113,4.011-0.113,4.011s-1.031-4.239-0.803-6.53c0.23-2.293,0.115-4.01-0.115-6.303
		c-0.229-2.291-1.832-5.384-1.832-5.384L56.822,23.783L56.822,23.783z"/>
	<path fill="#FFEDDD" d="M32.807,40.722c0,0-0.529,0.561-0.316,1.175c0.211,0.612,0.527,1.175,1.162,1.43
		c0.635,0.257,2.695,0.664,3.436,0.613s1.977-0.878,2.178-1.282c0.201-0.402,0.402-1.568-0.121-2.06
		C38.619,40.108,35.078,39.547,32.807,40.722L32.807,40.722z"/>
	<path fill="#FDD2B4" d="M76.58,81.837c-3.125-2.106-7.154-3.401-7.154-3.401l-3.551,0.229l-3.668-1.489
		c0,0-1.834-1.146-2.635-2.406s-2.863-5.957-2.863-5.957l-1.146-6.875l-5.041,4.583c0,0-1.375,2.178-7.105,0.802
		c-5.729-1.375-8.363-5.729-8.363-5.729l0.229,4.125c0,0,0,2.521-0.916,5.729s-3.094,4.928-3.094,4.928s-5.729,1.604-7.676,2.177
		s-2.75-0.115-2.75-0.115s-1.834,0.459-3.438,1.031c-1.088,0.389-2.961,1.617-4.059,2.37L76.58,81.837L76.58,81.837z"/>
	<path fill="#2D3F50" d="M25.092,38.161c0.01,0.723,0.053,1.45-0.072,2.161c-0.123,0.715-0.412,1.387-0.619,2.078
		c-0.668,2.226-0.48,4.692,0.514,6.791c0.301,0.638,0.68,1.248,1.213,1.707c0.412,0.354,0.9,0.604,1.338,0.923
		c0.918,0.667,1.598,1.604,2.262,2.526c2.131,2.961,4.326,6.067,4.893,9.672c0.404,2.563-0.061,5.202-0.908,7.655
		c-0.771,2.233-2.031,4.523-4.211,5.436c-2.277,0.95-4.887,0.142-7.336,0.434c-1.559,0.186-3.025,0.815-4.465,1.438
		c-1.992-5.854-1.424-12.227-0.836-18.381c-1.6,4.025-3.934,7.758-6.85,10.96c0.551-3.282,1.562-6.38,2.996-9.385
		c-1.779,1.991-3.471,4.062-5.062,6.208c-0.533-6.268,0.193-12.629,2.049-18.635c0.904-2.929,2-6.052,3.615-8.672
		c1.252-2.034,3.166-3.981,4.697-5.822c2.518-3.028,5.311-6.197,9.121-7.188C25.91,31.073,25.051,34.806,25.092,38.161
		L25.092,38.161z M58.971,15.064c0.215,2.719-0.445,5.499-1.857,7.831c2.729,5.692,3.98,12.084,3.605,18.385
		c0.465-1.184,1.148-2.27,2.016-3.199c0.564,1.45,0.877,2.987,0.924,4.544c0.537-2.235,1.498-4.367,2.82-6.247
		c0.045,0.649,0.09,1.302,0.135,1.954c1.91-3.478,2.967-7.473,2.664-11.427c-0.301-3.953-2.021-7.846-4.984-10.479
		c-1.594-1.418-3.762-2.489-5.824-1.941c0.217,0.553,0.578,1.033,1.051,1.393L58.971,15.064L58.971,15.064z M64.117,46.083
		c-0.047,1.773,0.832,3.45,1.92,4.853s2.404,2.62,3.453,4.051c3.648,4.976,3.391,12.442-0.592,17.153
		c1.314-0.074,2.535-0.697,3.648-1.402c3.9-2.469,7.039-6.131,8.879-10.364c0.027,2.153-1.219,4.102-2.506,5.829
		c-1.377,1.851-2.854,3.623-4.424,5.312c-1.982,2.133-4.438,4.266-7.352,4.21c0.23-1.575-0.629-3.204-1.965-4.071
		c-1.334-0.868-3.061-1.02-4.596-0.597c-0.668,0.185-1.344,0.474-2.025,0.357c-1.398-0.238-1.951-1.914-2.227-3.308
		c-0.406-2.042-0.807-4.186-0.189-6.176c0.381-1.229,1.119-2.305,1.756-3.424c1.537-2.709,2.479-5.756,2.736-8.862
		c0.703,0.933,2.311,0.259,2.791-0.808c0.48-1.063,0.332-2.305,0.617-3.438L64.117,46.083L64.117,46.083z"/>
	<path fill="#4F6881" d="M57.434,13.069c-0.285-0.266-0.594-0.507-0.908-0.734c-0.754-0.541-2.361-1.258-2.787-2.053
		c0.953,1.779,1.793,3.695,1.814,5.715c0.031,3.179-1.588,6.466-3.832,8.672c-0.686,0.673-1.688,1.105-2.617,0.863
		c-0.93-0.241-1.633-1.323-1.256-2.208c-2.182,1.716-4.818,2.844-7.566,3.234l0.559-2.416c-3.342,0.596-6.535,2.009-9.223,4.08
		c-1.242,0.957-2.422,2.125-2.869,3.628c2.182-3.309,6.473-4.318,9.938-6.246c-0.439,1.741-1.219,3.396-2.279,4.843
		c3.502-0.534,6.49-2.739,9.318-4.875c-0.469,2.081-0.717,3.95-2,5.696c0.244-0.333,1.873-0.575,2.309-0.741
		c0.758-0.286,1.496-0.612,2.217-0.979c1.406-0.719,2.775-1.631,4.031-2.567c2.473-1.845,4.412-4.735,5.709-7.503
		c0.67-1.431,1.195-3.071,0.695-4.569C58.439,14.175,57.982,13.58,57.434,13.069L57.434,13.069z M5.119,52.509
		c-1.26,4.315-1.176,9.015,0.238,13.283c0.082-1.193,0.369-2.363,0.852-3.458c0.168,2.168,0.682,4.295,1.521,6.3
		c-0.922-6.706,0.484-13.491,1.965-20.096c-1.688,2.798-2.863,5.875-3.469,9.086c-0.025-4.11,0.834-8.227,2.506-11.981
		c-2.873,3.286-4.496,7.637-4.48,12.001L5.119,52.509z M68.578,49.181c0.502,0.734,1.094,1.402,1.764,1.986
		c-0.178-0.712-0.354-1.424-0.531-2.135c1.912,1.551,3.824,3.101,5.738,4.651c-0.879-4.246-2.09-8.416-3.621-12.472
		c1.941,3.916,5.455,6.882,7.4,10.795c0.578,1.158,1.008,2.384,1.283,3.647c0.742,3.419,0.246,7.205-1.842,10.013
		c1.436-3.398,1.549-7.333,0.312-10.81c0.139,1.362,0.135,2.735-0.012,4.099c0.039-0.948-0.332-1.908-1.002-2.581
		c0.475,3.666-1.734,7.104-4.01,10.02c1.752-3.683,1.332-8.304-1.055-11.609c0.355,1.566,0.387,3.189,0.1,4.771
		c0.062-1.308-0.584-2.55-1.381-3.59c-0.795-1.04-1.756-1.952-2.477-3.045c-1.484-2.248-1.83-5.038-2.123-7.716
		c0.463,2.217,1.426,4.325,2.801,6.127L68.578,49.181L68.578,49.181z"/>
	<path fill="#EEBD9C" d="M62.035,38.868c0.053-0.066,0.113-0.129,0.186-0.18c1.104-0.784,1.395,3.535,1.43,4.172
		c0.111,1.941-0.088,3.902-0.604,5.779c-0.121,0.439-0.268,0.892-0.582,1.223s-0.844,0.502-1.24,0.275
		c-0.148-0.084-0.273-0.218-0.439-0.249c-0.414-0.078-0.633,0.467-0.701,0.883c-0.695,4.346-2.928,8.341-5.184,12.066
		c-0.902,1.493-1.979,3.042-3.621,3.635c0.59-0.213,1.393-1.824,1.738-2.346c0.539-0.812,1.037-1.647,1.492-2.51
		c0.936-1.771,1.691-3.633,2.254-5.556s0.932-3.896,1.098-5.895c0.117-1.412,0.76-3.521-0.232-4.747
		c-0.645-0.798-1.768-0.966-2.734-0.816c-0.582,0.089-2.492,0.321-2.824,0.812c0.186-0.274,0.01-0.677-0.277-0.846
		c-0.285-0.168-0.637-0.168-0.969-0.164c1.396-0.229,2.717-0.316,3.922-1.085c0.994-0.635,1.773-2.056,0.322-2.706
		c-0.965-0.433-2.174-0.383-3.209-0.381c-1.785,0.004-3.574,0.432-5.148,1.277c0.854-1.307,2.418-1.968,3.949-2.269
		c1.531-0.299,3.111-0.311,4.627-0.685c3.398-0.842-1.211-2.477-1.318-1.66c0.301-2.285,0.166-4.605-0.393-6.843
		c0.172,0.686-5.523,2.657-6.232,2.825c-1.908,0.45-3.869,0.648-5.83,0.592c1.17-0.231,2.344-0.464,3.48-0.831
		c2.363-0.761,4.27-2.22,6.303-3.548c2.084-1.361,4.111-3.292,5.564-5.312c1.143,0.647,1.672,1.938,2,3.145
		c0.398,1.465,1.025,2.929,1.248,4.45c0.098,0.663,0.117,1.337,0.139,2.008c0.104,3.396,0.031,6.711,0.82,10.034
		c0.082-1.36,0.189-2.728,0.689-4.001C61.83,39.228,61.912,39.028,62.035,38.868L62.035,38.868z"/>
	<path fill="#EEBD9C" d="M42.508,49.552c0.549,0.536,1.109,1.081,1.799,1.418c0.688,0.337,1.539,0.438,2.213,0.068
		c0.266-0.146,0.49-0.355,0.691-0.582c0.369-0.416,0.666-0.892,0.879-1.404c-1.684,0.879-3.684,1.132-5.531,0.7L42.508,49.552
		L42.508,49.552z M43.275,31.141c-3.723,1.474-7.578,2.582-11.516,3.308c0.119,0.838,0.336,1.656,0.65,2.44
		c1.826-0.726,3.949-0.672,5.736,0.146c-1.662-0.026-3.33,0.338-4.828,1.056c-0.129,0.396-0.164,0.816-0.104,1.229
		c2.037-0.468,4.273,0.021,5.928,1.3c-2.314-0.438-5.125-0.606-7.395,0.116c0.023,1.024-0.201,1.439,0.734,2.18
		c0.814,0.645,1.555,0.612,2.514,0.717c-0.34-0.036-1.057-0.175-1.352,0.076c-1.08,0.922,1.002,1.042,1.449,1.117
		c1.137,0.194,2.293,0.197,3.447,0.198c-1.088,0.396-2.293,0.172-3.447,0.266c-0.568,0.045-1.129,0.168-1.686,0.292
		c-0.445,0.097-0.904,0.2-1.277,0.465c-1.199,0.849-1.084,2.539-0.941,3.811c0.213,1.91,0.881,3.734,1.662,5.479
		c1.314,2.937,2.871,5.781,4.867,8.313c-0.688-0.871-1.99-1.529-2.805-2.331c-0.906-0.892-1.732-1.859-2.471-2.896
		c-1.527-2.143-2.328-4.637-3.74-6.838c-0.82-1.28-2.469-1.41-3.125-3.148c-0.703-1.856-1.154-3.801-1.346-5.777
		c-0.059-0.603,0.178-1.463,0.77-1.346c0.229,0.045,0.391,0.237,0.533,0.418c0.562,0.715,1.096,1.453,1.596,2.212
		c-0.059-2.963,0.146-5.925,0.613-8.851c0.068-0.421,0.145-0.854,0.363-1.217c0.207-0.346,0.525-0.606,0.838-0.857
		c1.994-1.6,4.053-3.113,6.176-4.535c0.549-0.368,1.309-0.727,1.822-0.308c-0.391,1.407-0.992,2.747-1.787,3.973
		c3.01,0.298,5.631-2.008,8.59-2.628c-0.258,0.815-0.686,1.566-1.256,2.205c-0.178-0.339-0.354-0.678-0.529-1.016L43.275,31.141
		L43.275,31.141z"/>
	<path fill="#EEBD9C" d="M46.312,38.761c-0.928,2.461-1.084,5.205-0.445,7.756c0.08,0.319,0.172,0.657,0.072,0.971
		c-0.148,0.462-0.654,0.697-1.119,0.836c-0.701,0.208-1.428,0.316-2.158,0.321c-0.102,0.114-0.131,0.284-0.076,0.426
		c1.357,0.254,2.742,0.304,4.113,0.146c0.408-0.047,0.875-0.156,1.049-0.528c0.188-0.402-0.082-0.856-0.305-1.244
		c-1.596-2.773-0.791-6.684,1.771-8.603c0.984-0.736,2.201-1.227,2.912-2.229c-2.072,0.507-4.057,1.322-5.885,2.424L46.312,38.761z
		 M39.443,39.743c-0.285,0.231-0.646,0.347-0.998,0.455c0.562,0.746,1.154,1.679,0.818,2.551c-0.254,0.658-0.949,1.018-1.588,1.316
		c0.854-0.192,1.705-0.389,2.559-0.583c0.18-0.042,0.371-0.082,0.545-0.021c0.195,0.067,0.324,0.252,0.434,0.428
		c0.535,0.861,0.908,1.812,1.102,2.807c0.139-1.188,0.221-2.381,0.248-3.575c0.035-1.604-0.471-3.361,1.311-4.271
		c-2.402-0.411-4.457-1.863-6.875-2.296C37.926,36.854,40.852,38.596,39.443,39.743L39.443,39.743z M44.818,60.718
		c-0.709,0.129-1.367,0.535-1.799,1.114c0.525-0.529,1.398-0.387,2.123-0.203c0.547,0.138,1.092,0.272,1.639,0.412
		c0.291,0.071,0.623,0.139,0.869-0.033c0.355-0.251,0.246-0.854-0.102-1.12c-0.346-0.267-0.812-0.29-1.25-0.303
		c1.021-1.452,2.443-2.619,4.066-3.337c-0.346-0.28-0.854-0.279-1.271-0.124c-0.416,0.154-0.77,0.439-1.129,0.701
		c-1.402,1.021-3.242,1.743-4.854,1.108c0.564,0.068,1.1,0.371,1.451,0.819c0.188,0.243,0.328,0.555,0.256,0.854
		c-0.074,0.299-0.436,0.528-0.703,0.375L44.818,60.718L44.818,60.718z"/>
	<path fill="#EEBD9C" d="M36.861,62.724c4.436,3.792,11.424,4.207,16.275,0.966c0.773-0.517,1.494-1.112,2.152-1.769
		c-1.26,1.583-2.539,3.182-4.143,4.415c-1.605,1.23-3.596,2.081-5.613,1.938c-2.604-0.186-4.793-1.934-6.799-3.604
		c-0.898-0.749-1.795-1.498-2.695-2.246L36.861,62.724L36.861,62.724z"/>
	<path fill="#EEBD9C" d="M42.799,74.19c0.516-0.346,1.709,0.539,2.061,0.855c1.014,0.92,2.27,2.568,1.373,3.915
		c-0.086,0.098-0.326,0.074-0.252-0.031c0.787-0.087,1.686-0.241,2.092-0.92c0.17-0.281,0.225-0.615,0.344-0.921
		c0.422-1.066,1.459-1.317,2.428-1.663c0.678-0.241,1.406-0.293,2.125-0.286c1.197,0.012,2.391,0.178,3.545,0.494
		c0.389-1.856-1.271-3.875-1.799-5.592c-0.412-1.353-1.467-5.021-0.619-6.328c-2.396,3.693-7.598,5.259-11.637,3.501
		c-1.695-0.738-2.59-1.963-4.041-2.897c-1.398-0.901-2.525-2.158-3.635-3.399c0.836,0.937,0.021,3.148,0.322,4.252
		c0.334,1.237,1.236,2.063,1.805,3.184c0.59,1.158,1.078,2.454,1.268,3.747c-0.107-0.744-0.217-1.488-0.326-2.23
		c-0.219-1.511,0.896-0.536,1.562-0.099c0.736,0.484,0.613,1.045,0.834,1.784c0.227,0.756,0.682,1.476,0.959,2.224
		c0.562,1.521,1.215,2.989,1.805,4.485c-0.412-1.052-0.586-2.184-0.504-3.312c0.018-0.23,0.051-0.473,0.188-0.658
		C42.723,74.255,42.758,74.22,42.799,74.19L42.799,74.19z M16.189,81.837c1.953-1.3,4.049-2.387,6.25-3.204
		c-3.197,0.1-6.254,1.341-8.877,3.204H16.189z"/>
	<path fill="#EEBD9C" d="M23.621,80.219c0.15,0.057,2.26-1.203,2.654-1.307c1.033-0.274,2.053-0.285,3.107-0.164
		c2.328,0.266,4.482,1.313,6.762,1.843c1.414,0.326,2.896,0.062,4.238,0.42c0.721,0.191,1.43,0.48,2.109,0.826h5.85
		c1.109-0.793,2.395-1.354,3.715-1.719c1.848-0.509,3.768-0.677,5.676-0.842c-2.318-0.193-4.461-0.021-6.748,0.326
		c-1.016,0.153-2.08,0.33-2.879,0.974c-0.172,0.139-0.332,0.299-0.537,0.375c-0.654,0.243-1.445-0.443-2.037-0.077
		c-0.23,0.143-0.369,0.421-0.629,0.499c-0.332,0.101-0.648-0.183-0.879-0.442c-1.029-1.168-2.207-2.275-3.139-3.512
		c-1.293-1.719-1.631-3.481-2.406-5.449c-0.789-2.006-1.502-3.974-2.219-5.991c-0.473-1.334-0.857-2.696-1.154-4.08
		c0.068,1.024,0.139,2.054,0.121,3.081c-0.057,2.99-0.773,5.747-1.961,8.479c-1.123,2.585-3.539,4.004-6.234,4.517
		c-3.922,0.743-8.5-0.146-11.148,3.57c1.223-0.562,2.455-1.125,3.764-1.438C20.955,79.796,22.359,79.751,23.621,80.219
		L23.621,80.219z"/>
	<path fill="#FFEDDD" d="M52.971,40.331c-1.338-0.145-4.639-0.383-4.188,1.81c0.145,0.707,0.74,1.299,1.381,1.581
		c0.75,0.332,1.617,0.321,2.412,0.122c0.795-0.2,1.533-0.578,2.252-0.969c0.252-0.138,0.508-0.278,0.684-0.502
		c0.328-0.409,0.297-1.062-0.068-1.438c-0.354-0.359-0.895-0.433-1.395-0.487C53.689,40.408,53.33,40.371,52.971,40.331
		L52.971,40.331z"/>
	<path fill="#5B2711" d="M53.824,41.15c0,0,0.334,0.403,0.168,1.211c-0.168,0.809-0.547,1.094-0.547,1.094l-0.594,0.309l-1.33-0.167
		c0,0-0.57-0.38-0.783-0.878c-0.213-0.499-0.119-1.283-0.119-1.283l0.498-0.926l1.592-0.166
		C52.709,40.345,53.707,40.557,53.824,41.15L53.824,41.15z"/>
	<path fill="#803E25" d="M52.895,43.659c0.311-0.15,0.707-0.438,0.859-0.715c0.145-0.26,0.334-0.657,0.047-0.89
		c-0.137-0.111-0.338-0.134-0.496-0.056c-0.201,0.1-0.305,0.324-0.449,0.497c-0.162,0.191-0.414,0.325-0.662,0.281
		c-0.15-0.025-0.295-0.116-0.447-0.089s-0.262,0.177-0.281,0.33c-0.074,0.61,0.891,0.868,1.326,0.688
		C52.822,43.692,52.857,43.678,52.895,43.659L52.895,43.659z"/>
	<path fill="#49200F" d="M50.662,41.681c0.074-0.272,0.258-0.668,0.68-0.981c0.412-0.312,1.102-0.489,1.771-0.25
		c0.332,0.114,0.646,0.333,0.867,0.632c0.227,0.28,0.346,0.698,0.35,1.03c-0.008,0.399-0.123,0.758-0.35,1.059
		c-0.223,0.299-0.535,0.516-0.869,0.631c-0.34,0.117-0.67,0.136-0.982,0.083c-0.309-0.055-0.576-0.18-0.785-0.333
		c-0.422-0.312-0.605-0.708-0.682-0.981c-0.07-0.277-0.057-0.442-0.057-0.442S50.59,41.96,50.662,41.681L50.662,41.681z
		 M50.676,42.563c0.072,0.271,0.299,0.654,0.73,0.895c0.23,0.123,0.486,0.192,0.748,0.204c0.264,0.01,0.568-0.052,0.811-0.182
		c0.252-0.132,0.463-0.331,0.615-0.564c0.145-0.235,0.232-0.524,0.229-0.778c0.002-0.32-0.082-0.549-0.229-0.803
		c-0.154-0.237-0.365-0.434-0.615-0.565c-0.512-0.269-1.137-0.216-1.559,0.022c-0.434,0.238-0.658,0.623-0.73,0.893
		c-0.08,0.274-0.07,0.44-0.07,0.44S50.596,42.291,50.676,42.563L50.676,42.563z"/>
	<path fill="#231F20" d="M51.438,42.118c0.039,0.496,0.475,0.867,0.973,0.828c0.498-0.041,0.869-0.477,0.828-0.974
		c-0.039-0.497-0.477-0.868-0.975-0.829C51.768,41.185,51.396,41.621,51.438,42.118L51.438,42.118z"/>
	<path fill="#FFFFFF" d="M50.385,41.146c0,0.354,0.367,0.64,0.82,0.64c0.451,0,0.82-0.285,0.82-0.64c0-0.353-0.369-0.638-0.82-0.638
		C50.752,40.51,50.385,40.795,50.385,41.146L50.385,41.146z M50.801,42.153c0,0.156,0.189,0.284,0.424,0.284
		c0.232,0,0.422-0.128,0.422-0.284s-0.189-0.285-0.422-0.285C50.99,41.868,50.801,41.996,50.801,42.153z"/>
	<path fill="#A75337" d="M52.691,43.046c0,0.08,0.096,0.144,0.211,0.144c0.119,0,0.213-0.062,0.213-0.144
		c0-0.078-0.094-0.144-0.213-0.144C52.787,42.902,52.691,42.968,52.691,43.046z"/>
	<path fill="#5B2711" d="M37.529,41.049c0,0,0.33,0.399,0.166,1.198c-0.166,0.799-0.541,1.08-0.541,1.08l-0.586,0.305l-1.316-0.164
		c0,0-0.562-0.375-0.773-0.868s-0.119-1.269-0.119-1.269l0.494-0.915l1.572-0.164C36.426,40.252,37.414,40.462,37.529,41.049
		L37.529,41.049z"/>
	<path fill="#803E25" d="M36.607,43.529c0.309-0.149,0.701-0.434,0.852-0.706c0.143-0.258,0.332-0.65,0.045-0.881
		c-0.135-0.107-0.334-0.131-0.488-0.055c-0.201,0.098-0.301,0.322-0.445,0.492c-0.16,0.189-0.41,0.322-0.654,0.277
		c-0.148-0.025-0.293-0.115-0.441-0.088c-0.152,0.027-0.262,0.176-0.279,0.327c-0.074,0.604,0.881,0.859,1.311,0.679
		C36.539,43.562,36.572,43.548,36.607,43.529L36.607,43.529z"/>
	<path fill="#49200F" d="M34.402,41.572c0.072-0.271,0.256-0.659,0.672-0.971c0.408-0.309,1.09-0.484,1.75-0.247
		c0.33,0.112,0.639,0.328,0.857,0.624c0.225,0.278,0.342,0.692,0.346,1.021c-0.008,0.394-0.121,0.747-0.348,1.044
		c-0.219,0.296-0.527,0.512-0.855,0.624c-0.338,0.115-0.664,0.135-0.975,0.083c-0.305-0.056-0.57-0.179-0.775-0.33
		c-0.418-0.311-0.602-0.699-0.674-0.971c-0.07-0.274-0.057-0.438-0.057-0.438S34.332,41.848,34.402,41.572L34.402,41.572z
		 M34.416,42.447c0.072,0.268,0.293,0.646,0.723,0.884c0.229,0.122,0.48,0.189,0.738,0.2c0.264,0.01,0.564-0.05,0.803-0.178
		c0.248-0.131,0.459-0.328,0.609-0.561c0.141-0.231,0.229-0.519,0.225-0.77c0.002-0.315-0.082-0.543-0.227-0.795
		c-0.152-0.234-0.361-0.427-0.607-0.559c-0.506-0.267-1.125-0.214-1.541,0.022c-0.428,0.235-0.65,0.615-0.723,0.882
		c-0.08,0.271-0.07,0.437-0.07,0.437S34.336,42.177,34.416,42.447L34.416,42.447z"/>
	<path fill="#231F20" d="M35.168,42.006c0.039,0.491,0.471,0.857,0.963,0.818c0.492-0.038,0.857-0.471,0.818-0.963
		c-0.039-0.491-0.471-0.857-0.961-0.817C35.494,41.083,35.129,41.514,35.168,42.006z"/>
	<path fill="#FFFFFF" d="M34.127,41.047c0,0.349,0.363,0.631,0.812,0.631c0.447,0,0.811-0.282,0.811-0.631
		c0-0.35-0.363-0.631-0.811-0.631C34.49,40.416,34.127,40.697,34.127,41.047z M34.541,42.041c0,0.154,0.188,0.28,0.416,0.28
		c0.23,0,0.418-0.126,0.418-0.28c0-0.155-0.188-0.282-0.418-0.282C34.729,41.759,34.541,41.886,34.541,42.041z"/>
	<path fill="#A75337" d="M36.41,42.924c0,0.078,0.092,0.141,0.209,0.141c0.115,0,0.209-0.062,0.209-0.141s-0.094-0.143-0.209-0.143
		C36.502,42.781,36.41,42.845,36.41,42.924z"/>
	<path fill="#FEE3CE" d="M32.814,49.836c-0.082,0.296-0.141,0.597-0.156,0.904c-0.072,1.374,0.018,3.32,0.615,4.585
		c-0.785-1.666-1.543-3.389-1.844-5.219c-0.17-1.034-0.404-3.357,0.744-3.982c0.74-0.401,1.527,0.068,1.457,0.908
		C33.549,48.013,33.068,48.898,32.814,49.836L32.814,49.836z M45.434,43.913c-0.055,0.924,0.182,1.863,0.666,2.652
		c0.125,0.203,0.268,0.398,0.344,0.627c0.074,0.227,0.072,0.495-0.078,0.682c-0.1,0.124-0.25,0.193-0.396,0.255
		c-1.039,0.429-2.197,0.562-3.309,0.38c0.391-0.326,0.863-0.543,1.35-0.702c0.502-0.161,1.102-0.333,1.271-0.832
		c0.049-0.143,0.055-0.296,0.059-0.447c0.027-1.052,0.006-2.104-0.062-3.153L45.434,43.913L45.434,43.913z M52.322,37.098
		c-0.408,0.014-0.76,0.275-1.082,0.525c-0.227,0.175-0.449,0.35-0.674,0.522c-0.059,0.046-0.119,0.093-0.164,0.152
		c-0.057,0.073-0.084,0.16-0.113,0.248c-0.094,0.271-0.186,0.543-0.277,0.813c0.521-0.212,1.094-0.263,1.654-0.311
		c0.4-0.034,0.803-0.067,1.203-0.104c0.145-0.012,0.301-0.027,0.41-0.126c0.113-0.101,0.145-0.26,0.174-0.408
		c0.061-0.348,0.125-0.694,0.189-1.04c0.008-0.048,0.014-0.101-0.02-0.135c-0.02-0.02-0.049-0.025-0.076-0.031
		c-0.801-0.162-1.662,0-2.352,0.438L52.322,37.098L52.322,37.098z M33.955,34.304c-0.389,0.07-0.781,0.143-1.17,0.213
		c-0.07,0.013-0.145,0.029-0.189,0.083c-0.049,0.059-0.047,0.144-0.041,0.219c0.043,0.533,0.18,1.057,0.404,1.542
		c2.195-0.174,4.404-0.013,6.549,0.479c-0.475-0.388-0.762-0.955-1.035-1.503c-0.338-0.683-0.676-1.361-1.014-2.042
		c-1.219,0.586-2.529,0.962-3.873,1.114L33.955,34.304L33.955,34.304z"/>
	<path fill="#EEBD9C" d="M43.869,54.532c-0.369-0.254-0.926,0.127-0.938,0.574c-0.01,0.448,0.373,0.827,0.801,0.961
		c0.428,0.136,0.889,0.081,1.332,0.025c0.807-0.102,1.799-0.362,1.955-1.161c0.842,0.844,2.178,1.151,3.303,0.76
		c0.311-0.106,0.615-0.266,0.945-0.256c0.326,0.009,0.68,0.277,0.625,0.602c-0.064,0.392-0.578,0.472-0.973,0.52
		c-1.803,0.218-3.238,1.645-4.996,2.096c0.307-0.15,0.586-0.352,0.828-0.592c0.164-0.161,0.307-0.44,0.139-0.596
		c-0.064-0.061-0.156-0.077-0.244-0.092c-1.303-0.209-2.621-0.29-3.939-0.239c-0.141,0.005-0.322,0.044-0.346,0.185
		c-0.016,0.083,0.037,0.161,0.088,0.229c0.25,0.343,0.5,0.686,0.752,1.026c-1.076-0.973-2.543-1.503-3.992-1.44
		c-0.379,0.016-0.887-0.023-0.951-0.396c-0.041-0.229,0.152-0.447,0.375-0.525c0.221-0.077,0.461-0.055,0.695-0.044
		c1.748,0.072,3.51-0.762,4.562-2.16L43.869,54.532L43.869,54.532z"/>
	<path fill="#B78482" d="M47.84,55.394c-0.35-0.18-0.469-0.49-0.754-0.734c-0.297-0.259-0.842-0.201-1.188-0.1
		c-0.215,0.064-0.664,0.229-0.773,0.423c-0.209-0.312-0.578-0.504-0.953-0.525c-0.377-0.023-0.754,0.111-1.051,0.346
		c-0.348,0.272-0.609,0.487-1.002,0.69c-0.311,0.159-0.615,0.185-0.965,0.231c-0.117,0.017-0.258,0.056-0.279,0.171
		c-0.014,0.073,0.033,0.146,0.088,0.193c0.127,0.113,0.307,0.152,0.477,0.142c0.219-0.018,0.41-0.088,0.629-0.099
		c0.307-0.016,0.609-0.038,0.916-0.048c0.617-0.02,1.234-0.009,1.852,0.042c0.033,0.002,0.07,0.007,0.094,0.028
		c0.023,0.02,0.033,0.05,0.041,0.076c0.041,0.138,0.082,0.274,0.123,0.412c-0.006-0.139,0.002-0.278,0.025-0.415
		c0.775-0.464,1.459-0.387,2.316-0.279c0.617,0.078,1.346,0.152,1.963,0.055c0.049-0.009,0.1-0.019,0.139-0.05
		c0.039-0.029,0.062-0.088,0.039-0.131c-0.02-0.037-0.062-0.053-0.1-0.062c-0.164-0.043-0.338-0.033-0.506-0.049
		c-0.234-0.021-0.465-0.091-0.691-0.159c-0.133-0.04-0.268-0.08-0.395-0.14C47.869,55.408,47.855,55.4,47.84,55.394L47.84,55.394z"
		/>
	<path fill="#B78482" d="M42.77,57.917c0.959,0.78,2.365,1.207,3.504,0.596c0.611-0.327,1.223-0.655,1.834-0.983
		c0.301-0.161,0.65-0.917,0.057-0.937c-0.65-0.022-1.299,0.039-1.932,0.183c-0.191,0.043-0.775,0.049-0.904,0.187
		c-0.021,0.021-0.023,0.052-0.025,0.081c-0.012,0.232,0,0.469,0.041,0.698c-0.059-0.25-0.117-0.5-0.176-0.75
		c-0.471,0.117-1.055-0.006-1.52-0.121c-0.824-0.206-1.424-0.274-2.281-0.328c-0.092-0.006-0.215,0.008-0.234,0.099
		c-0.012,0.054,0.021,0.105,0.055,0.146c0.211,0.259,0.514,0.281,0.777,0.446C42.258,57.417,42.502,57.698,42.77,57.917
		L42.77,57.917z"/>
	<path fill="#DDA2AB" d="M44.816,54.441c-0.611-0.47-1.449-0.037-1.809,0.531c-0.066,0.108-0.125,0.232-0.109,0.359
		c0.004,0.021,0.01,0.046,0.027,0.058c0.02,0.013,0.043,0.01,0.064,0.007c0.129-0.02,0.26-0.033,0.389-0.018
		c0.156,0.018,0.303,0.078,0.451,0.126c0.236,0.073,0.49,0.114,0.729,0.054c0.238-0.06,0.461-0.241,0.514-0.481
		C45.127,54.843,45.008,54.589,44.816,54.441z M45.518,54.485c-0.076,0.044-0.154,0.093-0.203,0.166
		c-0.047,0.073-0.055,0.182,0.008,0.242c0.084,0.084,0.225,0.037,0.336-0.006c0.432-0.167,0.906-0.19,1.354-0.07
		c0.061,0.017,0.154,0.008,0.146-0.054c-0.004-0.017-0.014-0.029-0.025-0.042c-0.23-0.275-0.586-0.443-0.945-0.447
		c-0.359-0.005-0.721,0.155-0.957,0.425L45.518,54.485L45.518,54.485z M43.281,57.604c0,0.118,0.002,0.235,0.004,0.354
		c0.037-0.03,0.086-0.046,0.135-0.043c0.002,0.062,0.037,0.124,0.092,0.157c0.205,0.115,0.42,0.213,0.643,0.288
		c0.271,0.094,0.551,0.155,0.83,0.206c0.244,0.043,0.494,0.078,0.738,0.037c0.316-0.051,0.6-0.222,0.867-0.396
		c0.41-0.271,0.807-0.56,1.189-0.865c-0.287-0.061-0.543,0.205-0.836,0.234c-0.291,0.03-0.562-0.179-0.857-0.187
		c-0.242-0.005-0.48,0.142-0.588,0.36c-0.074-0.095-0.115-0.209-0.119-0.329c-0.051,0.077-0.1,0.151-0.15,0.229
		c-0.029-0.052-0.059-0.104-0.088-0.157c-0.029,0.065-0.1,0.105-0.166,0.134c-0.322,0.132-0.689,0.081-1.033,0.013
		c-0.555-0.109-1.102-0.26-1.633-0.449c0.391,0.084,0.762,0.269,1.066,0.53L43.281,57.604L43.281,57.604z"/>
	<path fill="#733B46" d="M40.928,56.204c1.217-0.127,2.438-0.202,3.66-0.229c0.168-0.003,0.396,0.049,0.395,0.218
		c0.004-0.056,0.008-0.109,0.012-0.166c0.631-0.144,1.285-0.109,1.93-0.078c0.357,0.02,0.713,0.036,1.07,0.057
		c0.609,0.03,1.246,0.069,1.768,0.388c-0.773-0.079-1.557-0.159-2.326-0.058c-0.703,0.094-1.389,0.336-2.098,0.345
		c-0.586,0.006-1.16-0.147-1.734-0.261c-0.92-0.184-1.863-0.264-2.799-0.181L40.928,56.204L40.928,56.204z"/>
	<path fill="#BB9584" d="M24.428,45.331c0.191,0.805,0.359,1.613,0.545,2.416c0.172,0.734,0.631,1.644,0.631,2.393
		c0.006-0.662,0.854-3.043,1.742-2.771c0.043-2.246-1.119-4.703-2.502-6.419c-0.527,0.558-0.75,1.349-0.76,2.113
		C24.072,43.83,24.25,44.585,24.428,45.331z M60.266,39.923c0.229,2.734,0.262,5.482,0.102,8.223
		c0.553-0.232,1.154-0.324,1.752-0.265c0.012,0.446-0.023,0.895-0.102,1.335c1.367-3.44,1.588-7.326,0.615-10.9
		c-0.74,0.555-1.174,1.441-1.361,2.349c-0.188,0.904-0.152,1.841-0.117,2.765c-0.348-1.4-0.561-2.83-0.637-4.271L60.266,39.923
		L60.266,39.923z M35.264,66.465c1.842,0.843,3.758,1.514,5.721,2.007c1.625,0.406,3.303,0.69,4.971,0.54
		c1.666-0.15,3.336-0.771,4.51-1.966c-1.848,1.05-4.131,1.304-6.162,0.685c-0.635-0.192-1.24-0.467-1.84-0.756
		c-2.855-1.386-5.51-3.155-7.889-5.26c0.613,1.668,0.875,3.443,0.768,5.218L35.264,66.465L35.264,66.465z"/>
	<path fill="#FEE3CE" d="M56.463,47.204c-0.039-0.589-0.234-1.115,0.195-1.593c0.105-0.118,0.24-0.223,0.396-0.25
		c2.191-0.383-0.432,9.944-0.721,11.05c0.436-1.663,0.26-3.818,0.291-5.536C56.648,49.649,56.545,48.42,56.463,47.204L56.463,47.204
		z M45.953,65.094c0.381,0.075,0.793,0.086,1.137-0.094c0.303-0.158,0.514-0.443,0.697-0.73c0.318-0.496,0.584-1.023,0.795-1.575
		c0.031-0.084,0.062-0.174,0.049-0.264c-0.016-0.104-0.088-0.186-0.158-0.263c-0.229-0.257-0.461-0.515-0.752-0.695
		c-1.051-0.659-3.424-0.593-4.307,0.382C42.344,63.033,44.738,64.852,45.953,65.094z M44.299,37.892
		c1.236,0.331,2.439-0.512,3.592-1.067c1.096-0.527,2.299-0.82,3.355-1.421c1.059-0.601,1.996-1.633,1.998-2.85
		c0.396,0.816,0.594,1.715,0.574,2.622c-0.004,0.139-0.014,0.282-0.078,0.406c-0.062,0.113-0.166,0.199-0.271,0.274
		c-1.139,0.81-2.678,0.693-4.006,1.124c-0.721,0.233-1.379,0.628-2.09,0.885c-1.102,0.396-2.289,0.446-3.457,0.491
		c-0.449,0.019-0.963,0.01-1.26-0.327c0.764,0.083,1.541,0.046,2.293-0.113L44.299,37.892L44.299,37.892z M22.529,81.837
		c-1.447-1.556-3.441-1.141-5.408,0H22.529z"/>
	<path fill="#FEE3CE" d="M20.861,81.837h10.391c-0.109-0.463-0.533-0.801-0.965-1.025c-2.154-1.123-4.738-0.856-7.148-0.562
		c-0.844,0.103-1.713,0.215-2.445,0.642c-0.121,0.07-0.242,0.158-0.285,0.29C20.32,81.454,20.617,81.682,20.861,81.837
		L20.861,81.837z M42.867,81.837c-0.73-0.505-1.613-0.807-2.498-0.938c-1.254-0.186-2.527-0.09-3.793-0.086l0.344-0.256
		c-0.639-0.04-1.289,0.232-1.707,0.717c0.619,0.127,1.219,0.328,1.807,0.562H42.867z M53.027,81.837
		c1.594-1.216,3.357-2.209,5.232-2.923L56.998,78.9c-2.684,0.727-5.289,1.709-7.783,2.937H53.027L53.027,81.837z M67.096,81.837
		h6.945c-1.105-0.738-2.238-1.438-3.424-2.04c-0.426-0.217-0.875-0.432-1.355-0.434c-0.479-0.002-0.99,0.27-1.111,0.732l0.199-0.437
		C67.871,80.346,67.395,81.063,67.096,81.837L67.096,81.837z"/>
	<path fill="#AF7B6E" d="M34.527,61.202c0.203,2.694,0.424,5.351-0.139,8.021c-0.543,2.591-1.854,4.658-3.031,6.97
		c-0.125,0.247,0.176,0.487,0.383,0.297c3.93-3.604,4.084-10.495,3.369-15.366C35.061,60.797,34.502,60.871,34.527,61.202
		L34.527,61.202z"/>
	<path fill="#AF7B6E" d="M22.143,79.114c2.184-0.428,4.379-0.819,6.549-1.312c1.389-0.315,2.703-0.672,3.678-1.762
		c0.371-0.413-0.201-0.991-0.609-0.61c-1.332,1.245-3.051,1.442-4.75,1.842c-1.682,0.397-3.357,0.824-5.035,1.236
		C21.578,78.604,21.748,79.191,22.143,79.114z"/>
	<path fill="#BA967C" d="M69.197,78.854c2.387,0.689,4.434,1.72,6.244,2.981h1.68c-2.393-1.85-5.016-3.158-7.75-3.613
		C68.963,78.154,68.783,78.735,69.197,78.854z"/>
	<g>
		<path fill="#BA967C" d="M44.482,81.837c-2.416-2.316-6.35-0.837-9.307-1.449c-0.023-0.006-0.033,0.028-0.01,0.037
			c2.482,0.81,5,0.478,7.34,1.412H44.482L44.482,81.837z M48.814,81.837c0.844-0.635,1.691-1.173,2.869-1.496
			c1.607-0.442,3.305-0.711,4.932-1.089c0.074-0.018,0.053-0.122-0.016-0.127c-2.209-0.161-3.857,0.344-5.945,1.059
			c-1.109,0.379-2.572,0.705-3.342,1.653H48.814L48.814,81.837z M40.02,70.272c0.51,2.232,1.125,4.592,1.951,6.731
			c0.389,1.004,0.91,1.966,2.049,2.114c0.266,0.036,0.33-0.358,0.129-0.479c-1.566-0.935-1.885-2.597-2.475-4.207
			c-0.514-1.402-0.99-2.819-1.584-4.189C40.072,70.202,40.01,70.231,40.02,70.272z M48.127,77.677
			c0.344-0.333,0.793-0.869,0.535-1.357c-0.029-0.054-0.115-0.054-0.146,0c-0.229,0.421-0.133,0.87-0.463,1.284
			C48.014,77.652,48.078,77.723,48.127,77.677L48.127,77.677z"/>
	</g>
	<path fill="#AF7B6E" d="M68.934,78.363c-1.686-0.186-3.209-0.065-4.826-0.764c-3.533-1.521-5.174-4.275-6.473-7.772
		c-1.008-2.714-1.473-5.593-1.725-8.465c-0.023-0.257-0.379-0.257-0.398,0c-0.428,5.109,1.439,10.905,4.824,14.764
		c0.066,0.073,0.139,0.104,0.209,0.113c0.006,0.014,0.002,0.026,0.012,0.04c1.475,2.238,6.053,3.491,8.477,2.456
		C69.238,78.647,69.104,78.383,68.934,78.363L68.934,78.363z"/>
	<path fill="#AF7B6E" d="M27.68,48.996c0.229,1.013,0.447,1.952,0.844,2.9c1.654,3.954,3.76,7.51,6.768,10.607
		c2.709,2.793,6.197,5.427,10.16,5.963c1.957,0.266,3.885-0.282,5.541-1.319c2.914-1.825,4.996-4.853,6.547-7.855
		c0.795-1.538,1.467-3.137,2.01-4.778c0.244-0.735,0.461-1.48,0.645-2.233c0.145-0.609,0.627-1.643,0.391-2.205
		c-0.123-0.293-0.328-0.549-0.438-0.847c-0.506,2.915-1.252,5.734-2.523,8.432c-2.879,6.11-8.955,12.535-16.131,8.562
		c-3.215-1.779-5.998-4.386-8.291-7.237C30.746,55.929,29.299,52.519,27.68,48.996L27.68,48.996z M30.014,37.618
		c0,0,0.164-0.101,0.498-0.276c0.346-0.188,0.826-0.406,1.434-0.614c1.203-0.419,2.908-0.683,4.572-0.461
		c1.666,0.202,3.195,0.88,4.281,1.421c1.092,0.552,1.795,0.954,1.795,0.954s-0.738-0.342-1.865-0.797
		c-1.125-0.448-2.67-0.977-4.26-1.031c-1.582-0.075-3.139,0.31-4.193,0.779c-0.529,0.23-0.957,0.474-1.223,0.647
		c-0.279,0.182-0.453,0.308-0.453,0.308c-0.246,0.179-0.59,0.126-0.768-0.12c-0.18-0.245-0.125-0.589,0.119-0.77
		c0.012-0.008,0.025-0.016,0.035-0.022L30.014,37.618L30.014,37.618z M58.375,38.547c0,0-0.17-0.126-0.445-0.308
		c-0.26-0.174-0.682-0.416-1.199-0.646c-1.039-0.472-2.572-0.856-4.135-0.78c-1.566,0.057-3.09,0.584-4.199,1.032
		c-1.111,0.455-1.838,0.795-1.838,0.795s0.691-0.4,1.768-0.951c1.068-0.541,2.576-1.22,4.223-1.423
		c1.643-0.223,3.328,0.044,4.518,0.463c0.6,0.208,1.072,0.427,1.414,0.614c0.328,0.178,0.488,0.278,0.488,0.278
		c0.283,0.176,0.361,0.514,0.201,0.771s-0.498,0.337-0.756,0.177C58.398,38.562,58.387,38.555,58.375,38.547L58.375,38.547z"/>
	<path fill="#BA967C" d="M42.146,49.486c1.883,0.687,4.145,0.899,6.012,0.033c0.146-0.067,0.043-0.303-0.109-0.259
		c-1.961,0.562-3.893,0.775-5.877,0.133C42.111,49.375,42.088,49.467,42.146,49.486z"/>
	<path fill="#162332" d="M57.361,21.266c-2.424,6.325-9.549,10.477-15.914,12.048c-0.195,0.048-0.16,0.378,0.049,0.36
		c3.689-0.318,7.332-2.678,10.328-4.712c2.725-1.849,5.191-4.282,5.816-7.62C57.676,21.157,57.428,21.092,57.361,21.266
		L57.361,21.266z"/>
	<path fill="#162332" d="M41.312,33.394c1.408-1.411,2.627-2.8,2.836-4.836c0.02-0.188-0.229-0.2-0.316-0.086
		c-1.018,1.327-5.824,3.265-7.486,3.166c-1.275-0.077-0.709-0.066-0.049-1.263c0.43-0.781,0.748-1.569,1.061-2.4
		c0.055-0.147-0.111-0.296-0.252-0.253c-3.611,1.091-7.012,2.947-9.365,5.961c-0.131,0.164,0.076,0.39,0.236,0.236
		c1.705-1.638,3.416-3.209,5.52-4.33c1.092-0.583,3.381-2.519,2.686,0.124c-0.238,0.91-1.137,1.864-1.682,2.585
		c-0.111,0.146,0.074,0.36,0.236,0.308c2.479-0.821,5.248-1.425,7.604-2.557c-0.086,0.041,1.504-0.692,1.326-0.793
		c0.682,0.385-2.465,4.102-2.432,4.062C41.189,33.371,41.26,33.445,41.312,33.394L41.312,33.394z"/>
	<path fill="#162332" d="M27.773,33.778c-1.016,3.071-1.215,7.113-0.572,10.271c0.035,0.177,0.307,0.132,0.309-0.042
		c0.018-1.72-0.182-3.425-0.102-5.149c0.078-1.699,0.43-3.362,0.535-5.056C27.949,33.699,27.801,33.688,27.773,33.778z"/>
	<path fill="#162332" d="M25.115,40.547c0.355,1.378,1.309,3.187,2.523,3.996c0.104,0.068,0.229-0.065,0.166-0.167
		c-0.389-0.662-1.008-1.188-1.43-1.84c-0.426-0.654-0.723-1.377-1.107-2.056C25.221,40.397,25.09,40.455,25.115,40.547
		L25.115,40.547z"/>
	<path fill="#AF7B6E" d="M28.467,51.49c-1.771,0.294-2.623-1.424-3.082-2.843c-0.367-1.147-0.754-2.302-0.967-3.494
		c-0.172-0.966-0.383-2.7,0.07-3.607c0.18-0.358,0.672-0.589,0.998-0.354c-0.156-0.047-0.229-0.22-0.301-0.362
		c-0.074-0.146-0.217-0.297-0.371-0.249c-0.08,0.023-0.135,0.095-0.184,0.163c-1.395,2.014-0.637,4.569-0.129,6.742
		c0.447,1.912,1.508,5.14,4.09,4.465C28.896,51.872,28.764,51.442,28.467,51.49L28.467,51.49z"/>
	<path fill="#162332" d="M13.254,61.411c-1.621,2.617-2.73,5.322-3.291,8.369c-0.166,0.91-0.268,1.824-0.334,2.743
		c-0.133,1.863,0.646,3.267-1.352,1.819c-2.643-1.915-3.752-8.775-4.039-11.787c-0.326-3.402-0.004-6.871,0.996-10.142
		c3.479-11.38,15.504-18.725,17.18-30.809c0.039-0.276-0.359-0.408-0.434-0.119C19.01,32.888,9.189,39.972,5.184,50.756
		c-3.348,9.01-1.328,19.029,4.594,26.442c0.133,0.167,0.443,0.03,0.428-0.178c-0.455-5.706,0.676-10.427,3.145-15.556
		C13.379,61.402,13.293,61.351,13.254,61.411z"/>
	<path fill="#162332" d="M22.334,21.627C28.596,8.243,46.799,1.733,58.15,13.29c0.215,0.222,0.541-0.109,0.336-0.336
		C47.59,0.823,27.83,7.888,22.061,21.468C21.984,21.65,22.246,21.813,22.334,21.627L22.334,21.627z"/>
	<path fill="#162332" d="M58.207,13.122c-0.018,0.606,0.119,1.142,0.242,1.733c0.148,0.716,0.188,1.406,0.195,2.133
		c0.004,0.163,0.221,0.18,0.271,0.037c0.445-1.191-0.115-2.786-0.49-3.934C58.389,12.973,58.209,12.993,58.207,13.122z"/>
	<path fill="#162332" d="M58.895,14.695c6.551-3.585,9.924,5.653,10.307,10.347c0.293,3.57-0.312,7.055-0.434,10.605
		c-0.006,0.171,0.27,0.215,0.305,0.041c0.994-5.087,1.377-11.377-0.623-16.274c-1.525-3.738-5.561-7.448-9.705-4.975
		C58.58,14.538,58.727,14.787,58.895,14.695z"/>
	<path fill="#162332" d="M69.18,34.489c1.531,6.784,6.777,11.355,9.957,17.317c3.203,6.003,2.984,11.549-1.621,16.628
		c-2.637,2.905-6.402,6.302-10.268,7.286c-0.188,0.048-0.145,0.333,0.047,0.335c5.953,0.058,13.6-8.856,14.59-14.457
		c1.83-10.334-9.787-17.984-12.408-27.192C69.422,34.216,69.135,34.296,69.18,34.489L69.18,34.489z"/>
	<path fill="#162332" d="M69.061,71.381c3.057-1.396,3.359-8.493,2.82-11.239c-0.418-2.122-1.316-3.782-2.619-5.502
		c-2.324-3.068-3.959-5.551-5.262-9.253c-0.092-0.258-0.459-0.154-0.41,0.114c0.541,2.956,1.689,5.148,3.52,7.485
		c2.395,3.062,4.234,4.616,4.518,8.989c0.158,2.417-0.52,7.679-2.633,9.287C68.924,71.315,68.98,71.418,69.061,71.381z
		 M10.332,71.973c0.82-0.977,2.232-3.353,3.408-3.831c0.756-0.309,0.137-0.194,0.156,0.696c-0.008-0.29-0.266,2.321-0.244,2.038
		c-0.248,3.302,0.178,6.729,1.412,9.811c0.102,0.251,0.496,0.158,0.416-0.114c-1.336-4.562-1.771-8.865-0.701-13.545
		c0.053-0.233-0.236-0.426-0.416-0.24c-1.52,1.558-2.979,3.175-4.373,4.847C9.793,71.868,10.131,72.212,10.332,71.973L10.332,71.973
		z M60.236,38.522c1.234-5.11-0.115-11.04-3.1-15.325c-0.211-0.301-0.697-0.028-0.5,0.293c2.973,4.858,3.848,9.374,3.473,15.017
		C60.105,38.58,60.219,38.594,60.236,38.522z M60.43,71.31c1.475-0.137,3.17-0.191,4.471,0.626c1.43,0.901,2.055,2.327,1.979,3.979
		c-0.006,0.164,0.262,0.205,0.293,0.04c0.287-1.534-0.289-3.08-1.52-4.054c-1.588-1.255-3.381-1.005-5.238-0.706
		C60.352,71.207,60.365,71.315,60.43,71.31L60.43,71.31z"/>
	<path fill="#AF7B6E" d="M29.107,40.587c0.604,0.229,1.193,0.519,1.82,0.68c0.029,0.008,0.051-0.036,0.021-0.05
		c-0.584-0.283-1.223-0.443-1.834-0.656C29.098,40.554,29.09,40.58,29.107,40.587L29.107,40.587z"/>
	<path fill="#BA967C" d="M31.564,42.06c1.539,1.758,6.975,3.367,8.027,0.242c0.018-0.051-0.061-0.097-0.098-0.054
		c-2.207,2.561-5.514,1.464-7.902-0.225C31.57,42.01,31.549,42.043,31.564,42.06L31.564,42.06z"/>
	<path fill="#BA967C" d="M39.453,42.855c0.482-0.253,1.016-0.46,1.414-0.84c0.066-0.062-0.002-0.195-0.094-0.162
		c-0.521,0.191-0.939,0.578-1.377,0.901C39.334,42.8,39.385,42.891,39.453,42.855L39.453,42.855z"/>
	<path fill="#AF7B6E" d="M30.953,40.216c0.326,0.293,0.744,0.54,1.18,0.594c0.064,0.008,0.092-0.097,0.033-0.122
		c-0.395-0.177-0.807-0.297-1.201-0.488L30.953,40.216z M32.332,39.764c0.34,0.413,0.91,0.702,1.451,0.671
		c0.074-0.004,0.094-0.11,0.018-0.131c-0.529-0.143-0.973-0.264-1.438-0.58C32.338,39.705,32.314,39.741,32.332,39.764
		L32.332,39.764z M34.133,39.533c0.221,0.315,0.564,0.514,0.953,0.495c0.088-0.005,0.098-0.117,0.021-0.146
		c-0.324-0.124-0.641-0.215-0.953-0.369C34.141,39.507,34.123,39.519,34.133,39.533z M58.705,40.631
		c-0.611,0.201-1.248,0.349-1.836,0.619c-0.027,0.014-0.006,0.057,0.021,0.05c0.629-0.147,1.219-0.423,1.82-0.643
		C58.73,40.651,58.725,40.626,58.705,40.631z"/>
	<path fill="#BA967C" d="M56.23,42.096c-2.391,1.744-5.695,2.879-7.902,0.229c-0.037-0.045-0.115,0.005-0.098,0.058
		c1.051,3.232,6.488,1.566,8.025-0.252C56.271,42.111,56.25,42.079,56.23,42.096z"/>
	<path fill="#BA967C" d="M48.426,42.756c-0.438-0.323-0.859-0.71-1.379-0.901c-0.092-0.032-0.16,0.1-0.094,0.162
		c0.398,0.381,0.932,0.587,1.414,0.84C48.436,42.891,48.484,42.8,48.426,42.756L48.426,42.756z"/>
	<path fill="#AF7B6E" d="M56.854,40.292c-0.396,0.179-0.807,0.288-1.199,0.457c-0.061,0.024-0.031,0.13,0.033,0.122
		c0.43-0.047,0.854-0.285,1.18-0.563L56.854,40.292z M55.457,39.843c-0.469,0.297-0.914,0.406-1.438,0.544
		c-0.076,0.02-0.057,0.127,0.018,0.132c0.531,0.034,1.105-0.237,1.449-0.636C55.506,39.86,55.482,39.824,55.457,39.843z
		 M53.666,39.644c-0.314,0.145-0.631,0.226-0.951,0.345c-0.078,0.029-0.066,0.143,0.02,0.146c0.383,0.021,0.729-0.165,0.955-0.471
		C53.697,39.65,53.68,39.639,53.666,39.644z"/>
	<path fill="#9B6C6A" d="M40.877,55.833c0.678,0.075,1.283-0.131,1.807-0.575c0.342-0.29,0.561-0.648,1.002-0.81
		c0.553-0.2,0.941,0.022,1.402,0.297c0.08,0.047,0.154-0.045,0.119-0.119c-0.234-0.495-0.926-0.571-1.41-0.459
		c-0.287,0.065-0.543,0.207-0.766,0.4c-0.693,0.614-1.145,1.079-2.154,1.123C40.783,55.694,40.787,55.821,40.877,55.833
		L40.877,55.833z"/>
	<path fill="#6B3641" d="M40.709,56.352c1.469-0.074,2.828,0.306,4.271,0.424c0.059,0.005,0.059-0.076,0.012-0.096
		c-1.25-0.5-2.973-0.564-4.289-0.359C40.688,56.322,40.691,56.353,40.709,56.352L40.709,56.352z"/>
	<path fill="#9B6C6A" d="M40.125,56.961c1.094-0.049,1.75,0.891,2.545,1.477c0.717,0.529,1.553,0.68,2.426,0.713
		c0.182,0.007,0.184-0.277,0-0.282c-1.416-0.034-2.143-0.584-3.207-1.385c-0.566-0.427-1.062-0.652-1.766-0.547L40.125,56.961z"/>
	<path fill="#9B6C6A" d="M50.039,56.936c-0.703-0.105-1.197,0.12-1.766,0.547c-1.068,0.804-1.789,1.351-3.207,1.384
		c-0.184,0.006-0.184,0.29,0,0.283c0.875-0.033,1.705-0.186,2.426-0.713c0.801-0.585,1.441-1.524,2.545-1.477L50.039,56.936z"/>
	<path fill="#AF7B6E" d="M40.893,56.371c-0.705-0.096-1.418-0.164-2.125-0.296c-0.523-0.098-0.527,0.726,0,0.627
		c0.705-0.131,1.42-0.199,2.125-0.295C40.912,56.405,40.912,56.373,40.893,56.371z"/>
	<path fill="#9B6C6A" d="M49.404,55.69c-0.938-0.04-1.449-0.415-2.082-1.043c-0.24-0.236-0.508-0.403-0.838-0.48
		c-0.484-0.112-1.176-0.036-1.412,0.459c-0.035,0.075,0.039,0.166,0.119,0.119c0.391-0.23,0.752-0.451,1.23-0.355
		c0.541,0.108,0.789,0.539,1.174,0.868c0.523,0.446,1.129,0.651,1.809,0.575C49.492,55.821,49.498,55.694,49.404,55.69L49.404,55.69
		z"/>
	<path fill="#6B3641" d="M49.576,56.32c-1.318-0.205-3.035-0.141-4.289,0.359c-0.047,0.02-0.047,0.101,0.012,0.096
		c1.443-0.118,2.805-0.498,4.273-0.424C49.59,56.353,49.594,56.322,49.576,56.32L49.576,56.32z"/>
	<path fill="#AF7B6E" d="M49.387,56.407c0.707,0.097,1.422,0.164,2.127,0.295c0.523,0.098,0.525-0.725,0-0.627
		c-0.705,0.133-1.422,0.2-2.127,0.296C49.369,56.373,49.369,56.405,49.387,56.407z"/>
	<path fill="#162332" d="M61.293,45.3c0.006-1.756-0.422-3.503-0.582-5.253c-0.141-1.525-0.096-3.07-0.363-4.578
		c-0.031-0.183-0.289-0.121-0.303,0.04c-0.148,1.746,0.176,3.555,0.389,5.291c0.186,1.511,0.314,3.072,0.842,4.503L61.293,45.3
		L61.293,45.3z"/>
	<path fill="#162332" d="M61.295,44.653c0.066-0.922,0.043-1.836,0.086-2.757c0.053-1.145,0.355-2.017,0.818-3.051
		c0.055-0.121-0.098-0.211-0.178-0.104c-1.252,1.677-0.916,3.965-0.824,5.912C61.201,44.716,61.291,44.715,61.295,44.653
		L61.295,44.653z"/>
	<path fill="#BA967C" d="M42.502,48.473c-0.174,0.183-0.271,0.357-0.387,0.582c-0.137,0.27,0.266,0.507,0.404,0.237
		c0.115-0.227,0.209-0.411,0.256-0.659C42.805,48.48,42.621,48.347,42.502,48.473L42.502,48.473z M47.008,47.137
		c0.242,0.419,0.502,0.82,0.67,1.277c0.135,0.36,0.18,0.751,0.332,1.103c0.041,0.096,0.174,0.036,0.18-0.048
		c0.057-0.811-0.559-1.843-1.141-2.363C47.027,47.086,46.992,47.109,47.008,47.137L47.008,47.137z M44.676,61.009
		c0.434-0.463,1.012-0.052,1.477,0.068c0.086,0.021,0.189-0.062,0.154-0.154c-0.262-0.687-1.357-0.491-1.734-0.02
		C44.512,60.976,44.607,61.08,44.676,61.009L44.676,61.009z M14.488,81.837c1.812-1.263,3.857-2.292,6.246-2.981
		c0.422,0.048,0.814,0.176,1.203,0.058c0.188-0.059,0.207-0.295,0.051-0.399c-0.322-0.222-0.717-0.213-1.098-0.268
		c-0.041-0.007-0.068,0.019-0.104,0.024c-0.062-0.037-0.137-0.062-0.227-0.047c-2.734,0.455-5.355,1.765-7.748,3.613H14.488
		L14.488,81.837z"/>
	<path fill="#AF7B6E" d="M61.201,40.892c-0.021,0.255-0.021,0.51,0.006,0.765c0.092-0.362,0.748-2.96,1.336-2.768
		c0.439,0.145,0.68,2.957,0.713,3.226c0.145,1.173,0.195,2.349,0.104,3.525c-0.059,0.738-0.148,1.484-0.307,2.208
		c-0.111,0.517-1.182,4.256-2.627,1.384c-0.072-0.145-0.338-0.083-0.316,0.086c0.232,1.962,2.146,1.802,2.967,0.247
		c1.117-2.122,1.15-4.7,0.838-7.023c-0.16-1.185-0.422-2.352-0.785-3.488c-0.502-1.578-1.408-0.802-1.689,0.481
		C61.338,39.981,61.238,40.436,61.201,40.892L61.201,40.892z M30.98,41.408c3.207-0.896,6.74-2.217,9.373,0.704
		c0.357,0.399,0.963-0.199,0.59-0.591c-2.627-2.744-7.062-1.836-10.078-0.384C30.713,41.212,30.82,41.453,30.98,41.408L30.98,41.408
		z M56.955,41.17c-2.994-1.373-7.436-2.264-10.078,0.353c-0.385,0.379,0.217,0.98,0.59,0.592c2.672-2.78,6.186-1.499,9.373-0.674
		C56.996,41.479,57.111,41.241,56.955,41.17L56.955,41.17z"/>
	<path fill="#FEE3CE" d="M34.322,45.392c-0.223-0.034-0.371,0.283-0.256,0.477s0.373,0.257,0.596,0.232
		c0.256-0.023,0.541-0.199,0.523-0.455c-0.018-0.212-0.25-0.354-0.461-0.351c-0.213,0.005-0.408,0.116-0.592,0.223L34.322,45.392
		L34.322,45.392z"/>
	<path fill="#333333" d="M82.5,82.403h-80V2.597h80V82.403z M3.301,81.601h78.396V3.398H3.301V81.601L3.301,81.601z"/>
</g>
</svg>
