<?xml version="1.0" encoding="utf-8"?>
<!-- Generator: Adobe Illustrator 16.0.0, SVG Export Plug-In . SVG Version: 6.00 Build 0)  -->
<!DOCTYPE svg PUBLIC "-//W3C//DTD SVG 1.1//EN" "http://www.w3.org/Graphics/SVG/1.1/DTD/svg11.dtd">
<svg version="1.1" id="Layer_1" xmlns="http://www.w3.org/2000/svg" xmlns:xlink="http://www.w3.org/1999/xlink" x="0px" y="0px"
	 width="85px" height="85px" viewBox="0 0 85 85" enable-background="new 0 0 85 85" xml:space="preserve">
<g>
	<path fill="#FFFFFF" d="M54.631,9.007l-12.264,6.229l0.197,0.133l-0.197-0.133L29.45,8.614L3.154,24.286l12.197,7.016v29.049
		l27.016-14.359L68.99,60.351V31.302l12.854-7.41L54.631,9.007z"/>
	<path fill="#6A576D" d="M15.351,61.007c-0.131,0-0.262,0-0.328-0.066c-0.196-0.131-0.328-0.326-0.328-0.59V31.63L2.827,24.81
		c-0.196-0.064-0.328-0.328-0.328-0.523c0-0.197,0.131-0.459,0.328-0.59L29.122,8.024c0.196-0.131,0.459-0.131,0.655,0l12.656,6.492
		l11.87-6.1c0.197-0.131,0.395-0.064,0.59,0l27.215,14.885c0.195,0.131,0.326,0.328,0.326,0.59c0,0.264-0.131,0.459-0.326,0.59
		l-12.525,7.215v28.721c0,0.262-0.131,0.459-0.326,0.59c-0.197,0.131-0.459,0.131-0.656,0L42.369,46.712L15.681,60.94
		C15.548,61.007,15.482,61.007,15.351,61.007L15.351,61.007z M4.466,24.286l11.213,6.426c0.197,0.131,0.328,0.328,0.328,0.59v28
		l26.033-13.902c0.197-0.131,0.459-0.131,0.59,0l25.641,13.902v-28c0-0.262,0.131-0.459,0.326-0.59l11.936-6.818l-25.967-14.1
		l-11.41,5.771c0,0.066-0.064,0.066-0.064,0.131c-0.198,0.328-0.592,0.395-0.918,0.197l-0.133-0.131h-0.064L29.452,9.337
		L4.466,24.286z"/>
	<path fill="#121519" d="M42.367,15.235L68.99,31.302v29.049L42.367,45.991V15.235z"/>
	<path fill="#121519" d="M42.367,15.235L15.351,31.302v29.049l27.016-14.359V15.235z"/>
	<path fill="#6A576D" d="M68.99,61.007c-0.131,0-0.195,0-0.328-0.066L42.039,46.515c-0.195-0.131-0.326-0.328-0.326-0.59V15.235
		c0-0.262,0.131-0.459,0.326-0.59c0.197-0.131,0.459-0.131,0.656,0l26.624,16.066c0.197,0.131,0.328,0.328,0.328,0.59v29.115
		c0,0.262-0.131,0.459-0.328,0.59H68.99z M43.025,45.597l25.312,13.705V31.63L43.025,16.417V45.597z"/>
	<path fill="#6A576D" d="M15.351,61.007c-0.131,0-0.262,0-0.328-0.066c-0.196-0.131-0.328-0.326-0.328-0.59V31.302
		c0-0.262,0.132-0.459,0.328-0.59l27.018-16.064c0.197-0.131,0.459-0.131,0.656,0s0.329,0.328,0.329,0.59v30.754
		c0,0.262-0.131,0.459-0.329,0.59L15.679,61.007H15.351L15.351,61.007z M16.007,31.63v27.672l25.705-13.705v-29.18L16.007,31.63z"/>
	<path fill="#D6AB7F" d="M42.367,45.663l-11.344-4.459l-15.672-9.967v29.115l27.016,16.064L68.99,60.353V31.237l-12,8.918
		L42.367,45.663z"/>
	<path fill="#6A576D" d="M42.367,77.073c-0.131,0-0.262,0-0.328-0.066L15.023,60.942c-0.197-0.131-0.328-0.326-0.328-0.59V31.237
		c0-0.262,0.131-0.459,0.328-0.59s0.459-0.131,0.656,0l15.672,9.967l11.082,4.393l14.295-5.441l11.867-8.854
		c0.197-0.131,0.459-0.195,0.656-0.064c0.195,0.131,0.328,0.328,0.328,0.59v29.115c0,0.264-0.133,0.459-0.328,0.59L42.628,77.009
		C42.63,77.007,42.5,77.073,42.367,77.073L42.367,77.073z M16.007,60.022l26.359,15.674l25.969-15.674V32.548l-10.951,8.131
		c-0.064,0.066-0.131,0.066-0.131,0.066L42.63,46.317c-0.131,0.066-0.328,0.066-0.459,0L30.828,41.86
		c-0.064,0-0.064-0.066-0.131-0.066l-14.688-9.312L16.007,60.022L16.007,60.022z"/>
	<path fill="#121519" d="M42.367,76.417L68.99,60.351V31.235l-13.9,9.902l-12.723,4.525V76.417L42.367,76.417z"/>
	<path fill="#6A576D" d="M42.367,77.073c-0.131,0-0.195,0-0.328-0.066c-0.195-0.131-0.326-0.326-0.326-0.59V45.663
		c0-0.264,0.195-0.523,0.459-0.59l12.655-4.525l13.771-9.836c0.197-0.131,0.459-0.131,0.656-0.064
		c0.195,0.131,0.326,0.328,0.326,0.59v29.115c0,0.264-0.131,0.459-0.326,0.59L42.63,77.009C42.63,77.007,42.5,77.073,42.367,77.073
		L42.367,77.073z M43.025,46.122v29.113l25.312-15.213V32.548l-12.854,9.115c-0.064,0.064-0.133,0.064-0.133,0.064L43.025,46.122z"
		/>
	<path fill="#121519" d="M21.253,50.056l21.115,11.936V45.663l-12.064-4.066L15.353,31.237L21.253,50.056z"/>
	<path fill="#FFFFFF" d="M3.156,38.253l12.197-7.018l27.016,14.428l-12.982,7.41L3.156,38.253z"/>
	<path fill="#121519" d="M54.566,57.399l14.426-7.408V31.302l-11.736,8.656l-14.69,5.574l-0.197,0.131L54.566,57.399z"/>
	<path fill="#FFFFFF" d="M42.367,45.663l12.198,7.018l27.279-14.033L68.99,31.304L42.367,45.663z"/>
	<path fill="#6A576D" d="M29.384,53.728c-0.131,0-0.197,0-0.328-0.064L2.827,38.843c-0.196-0.131-0.328-0.328-0.328-0.59
		s0.131-0.459,0.328-0.59l12.196-6.951c0.197-0.131,0.459-0.131,0.656,0L42.697,45.14c0.197,0.131,0.329,0.326,0.329,0.59
		s-0.131,0.459-0.329,0.59l-12.983,7.346C29.646,53.728,29.515,53.728,29.384,53.728z M4.466,38.253l24.918,14.098l11.605-6.623
		L15.351,32.022L4.466,38.253z"/>
	<path fill="#6A576D" d="M54.566,53.335c-0.133,0-0.197,0-0.328-0.066l-12.198-7.016c-0.197-0.131-0.328-0.328-0.328-0.59
		c0-0.264,0.131-0.459,0.328-0.59l26.624-14.428c0.197-0.131,0.459-0.131,0.656,0l12.854,7.41c0.195,0.131,0.328,0.328,0.328,0.59
		s-0.133,0.459-0.328,0.59L54.895,53.269C54.762,53.335,54.697,53.335,54.566,53.335z M43.744,45.663l10.887,6.229l25.9-13.311
		l-11.605-6.559L43.744,45.663z"/>
</g>
</svg>
