<?xml version="1.0" encoding="utf-8"?>
<!-- Generator: Adobe Illustrator 16.0.0, SVG Export Plug-In . SVG Version: 6.00 Build 0)  -->
<!DOCTYPE svg PUBLIC "-//W3C//DTD SVG 1.1//EN" "http://www.w3.org/Graphics/SVG/1.1/DTD/svg11.dtd">
<svg version="1.1" id="Layer_1" xmlns="http://www.w3.org/2000/svg" xmlns:xlink="http://www.w3.org/1999/xlink" x="0px" y="0px"
	 width="85px" height="85px" viewBox="0 0 85 85" enable-background="new 0 0 85 85" xml:space="preserve">
<g>
	<path fill-rule="evenodd" clip-rule="evenodd" d="M21.928,65.08c-0.84-1.042-0.837-1.039,0.26-1.922
		c3.216-2.589,6.915-4.093,10.93-4.897c0.743-0.149,1.404-0.377,2.046-0.905c1.212-0.995,2.598-1.777,3.905-2.657
		c0.696-0.468,1.343-0.219,1.931,0.171c0.647,0.43,0.935,0.215,1.2-0.429c0.453-1.098,0.282-2.234,0.31-3.36
		c0.009-0.358-0.332-0.334-0.533-0.419c-5.429-2.299-8.713-6.344-9.875-12.115c-0.275-1.37-0.261-1.373-1.593-1.395
		c-3.329-0.055-5.965-2.353-6.544-5.703c-0.52-3.008,1.359-6.12,4.353-7.216c0.202-0.074,0.451-0.048,0.618-0.319
		c-0.985-0.745-1.611-1.823-2.411-2.755l0.029,0.03c-0.492-1.309-1.123-2.575-1.239-4c-0.164-2.019-0.225-4.054-0.012-6.056
		c0.242-2.271,1.581-3.881,3.752-4.642c2.13-0.747,4.11-0.335,5.79,1.184c0.984,0.89,2.038,1.296,3.336,0.883
		c0.542-0.172,0.972-0.511,1.368-0.907c0.861-0.862,1.709-1.739,2.599-2.572c1.772-1.66,3.896-2.506,6.32-2.495
		c1.849,0.008,3.718-0.223,5.54,0.269c3.77,1.015,6.071,3.462,6.937,7.25c0.096,0.416,0.24,0.582,0.638,0.707
		c3.097,0.971,4.862,3.387,4.874,6.63c0.007,1.967,0.014,3.934-0.009,5.9c-0.004,0.438,0.076,0.659,0.552,0.81
		c3.218,1.021,5.205,4.073,4.73,7.19c-0.529,3.47-3.239,5.823-6.79,5.79c-0.896-0.008-1.198,0.149-1.37,1.135
		c-1.017,5.825-4.282,9.956-9.718,12.318c-0.549,0.238-0.733,0.493-0.708,1.071c0.044,1.02-0.06,2.05,0.432,3.006
		c0.198,0.386,0.396,0.666,0.865,0.315c1.034-0.77,1.973-0.558,2.928,0.218c1.173,0.953,2.552,1.61,3.699,2.634
		c0.493,0.44,1.4,0.441,2.13,0.587c10.812,2.156,18.142,10.861,19.097,21.63c0.066,0.742,0.413,1.697,0.021,2.17
		c-0.404,0.486-1.4,0.104-2.136,0.157c-0.137,0.01-0.275-0.014-0.414-0.022c-0.407-0.734-0.282-1.562-0.363-2.343
		c-0.534-5.12-2.544-9.547-6.159-13.21c-1.564-1.585-3.398-2.834-5.414-3.802c-0.149-0.071-0.299-0.146-0.462-0.185
		c-0.056-0.014-0.107-0.006-0.212,0.06c0.207,1.782,0.497,3.581,0.751,5.385c0.242,1.72-0.291,2.357-2.043,2.367
		c-0.582,0.004-1.164,0.015-1.745-0.002c-0.527-0.015-0.625,0.196-0.437,0.659c0.471,1.154,0.936,2.311,1.387,3.473
		c0.495,1.271,0.267,1.843-0.904,2.534c-2.431,1.438-4.919,2.775-7.347,4.219c-0.388,0.231-0.727,0.498-1.008,0.845
		c-0.877,0.005-1.754,0.009-2.632,0.014c-0.488-0.827-0.264-1.737-0.213-2.593c0.2-3.345,0.576-6.672,1.291-9.953
		c0.224-1.023,0.501-2.034,0.688-3.07c-0.032,0.014-0.065,0.017-0.081,0.035c-1.46,1.619-2.106,1.606-3.467-0.088
		c-1.023-1.274-2.06-2.538-3.054-3.834c-0.375-0.489-0.639-0.481-1.012,0.002c-1.067,1.38-2.166,2.736-3.266,4.091
		c-1.101,1.355-1.95,1.355-3.089,0.014c-0.07-0.082-0.122-0.188-0.271-0.226c0.704,2.834,1.286,5.678,1.608,8.567
		c0.224,2.006,0.419,4.018,0.425,6.04c0.001,0.352,0.065,0.73-0.241,1.015c-0.877-0.005-1.754-0.009-2.632-0.014
		c-0.592-0.827-1.538-1.157-2.365-1.638c-2.032-1.181-4.08-2.336-6.119-3.505c-0.998-0.571-1.243-1.218-0.84-2.286
		c0.42-1.112,0.879-2.21,1.319-3.315c0.385-0.966,0.374-0.98-0.706-0.983c-0.581-0.002-1.162,0.015-1.743-0.006
		c-1.248-0.045-1.869-0.767-1.691-2.016c0.243-1.697,0.478-3.395,0.729-5.091c0.034-0.229,0.197-0.524-0.057-0.687
		c-0.193-0.123-0.424,0.061-0.614,0.158c-1.409,0.719-2.72,1.591-3.957,2.575C22.807,66.362,22.515,66.29,21.928,65.08z"/>
	<path fill-rule="evenodd" clip-rule="evenodd" d="M22.56,82.348c-0.881,0-1.763,0-2.644,0c-0.341-0.367-0.266-0.828-0.267-1.263
		c-0.008-3.181-0.003-6.362-0.004-9.544c0-0.332,0.014-0.665-0.023-0.995c-0.086-0.792-0.422-1.138-1.22-1.189
		c-0.828-0.055-1.659-0.019-2.489-0.02c-2.822-0.003-5.644-0.004-8.465,0c-1.614,0.003-1.9,0.28-1.904,1.872
		c-0.007,3.292,0.002,6.584-0.006,9.876C5.535,81.52,5.611,81.98,5.27,82.348c-0.854-0.005-1.944,0.305-2.493-0.106
		c-0.521-0.39-0.146-1.55-0.151-2.369c-0.019-3.047,0.006-6.094-0.013-9.142c-0.011-1.771,0.699-3.114,2.288-3.91
		c0.458-0.23,0.375-0.545,0.375-0.881c0.004-4.128,0.001-8.255,0.003-12.383c0.001-2.821,1.605-4.463,4.418-4.412
		c0.786,0.015,0.946-0.228,0.918-0.952c-0.056-1.438-0.028-2.881-0.014-4.32c0.023-2.283,1.751-4.045,3.958-4.058
		c2.25-0.013,3.995,1.752,4.015,4.084c0.015,1.634,0.011,3.269-0.002,4.902c-0.003,0.364,0.078,0.57,0.445,0.761
		c1.484,0.768,2.207,2.031,2.22,3.7c0.006,0.804,0.011,1.606-0.001,2.41c-0.024,1.633-0.74,2.869-2.187,3.637
		c-0.336,0.179-0.477,0.354-0.491,0.739c-0.035,0.976-0.286,1.912-0.706,2.795c-0.275,0.58-0.486,1.178-0.573,1.812
		c-0.228,1.671-0.204,1.7,1.452,1.759c0.536,0.019,1.028,0.193,1.528,0.35c0.382-0.022,0.689,0.127,0.972,0.377
		c1.004,0.888,1.584,1.973,1.587,3.334c0.007,3.619,0.005,7.24,0,10.859C22.816,81.689,22.842,82.06,22.56,82.348z"/>
	<path fill-rule="evenodd" clip-rule="evenodd" fill="#396794" d="M55.81,82.348c-0.062-0.423,0.166-0.629,0.518-0.828
		c2.576-1.454,5.139-2.934,7.708-4.401c1.145-0.654,1.308-1.088,0.831-2.291c-0.499-1.259-0.976-2.527-1.516-3.769
		c-0.257-0.59-0.082-0.689,0.477-0.665c0.773,0.035,1.55,0.016,2.324,0.008c1.276-0.012,1.776-0.646,1.576-1.926
		c-0.269-1.719-0.52-3.44-0.747-5.165c-0.036-0.276-0.253-0.668,0.021-0.84c0.253-0.159,0.562,0.143,0.825,0.273
		c5.945,2.949,9.632,7.709,11.256,14.105c0.458,1.801,0.668,3.639,0.684,5.498c-6.659,0.009-13.318,0.019-19.978,0.024
		C58.462,82.372,57.136,82.356,55.81,82.348z"/>
	<path fill-rule="evenodd" clip-rule="evenodd" d="M22.565,22.958c-0.035,1.645-0.727,3.493-2.185,5.023
		c-0.323,0.339-0.466,0.495-0.052,0.943c1.628,1.758,1.005,4.426-1.218,5.322c-0.397,0.16-0.513,0.334-0.572,0.743
		c-0.299,2.068-1.972,3.507-3.99,3.491c-1.977-0.016-3.637-1.456-3.904-3.486c-0.064-0.484-0.268-0.617-0.65-0.778
		c-2.126-0.893-2.757-3.522-1.203-5.222c0.449-0.491,0.339-0.669-0.041-1.073c-2.462-2.611-2.839-6.532-0.959-9.584
		c1.862-3.023,5.508-4.452,8.917-3.495C20.187,15.818,22.56,18.922,22.565,22.958z"/>
	<path fill-rule="evenodd" clip-rule="evenodd" fill="#C3D3DF" d="M42.498,82.361c0.068-5.51-0.819-10.896-2.013-16.306
		c0.293,0.351,0.579,0.708,0.879,1.053c0.747,0.856,1.592,0.864,2.308-0.015c1.276-1.565,2.54-3.141,3.782-4.732
		c0.304-0.39,0.455-0.405,0.768-0.003c1.205,1.552,2.444,3.076,3.676,4.606c0.843,1.048,1.638,1.045,2.522,0.021
		c0.263-0.305,0.451-0.689,0.944-0.921c-1.367,5.402-2.26,10.787-2.187,16.297C49.618,82.361,46.058,82.361,42.498,82.361z"/>
	<path fill-rule="evenodd" clip-rule="evenodd" fill="#396794" d="M5.27,82.348c0.002-3.819,0.004-7.64,0.008-11.461
		c0.001-1.413,0.405-1.812,1.833-1.813c3.682-0.001,7.364-0.002,11.045,0.001c1.313,0,1.749,0.43,1.75,1.73
		c0.005,3.848,0.006,7.695,0.009,11.543C15.034,82.348,10.151,82.348,5.27,82.348z"/>
	<path fill-rule="evenodd" clip-rule="evenodd" fill="#396794" d="M22.56,82.348c0.002-3.867-0.014-7.735,0.017-11.603
		c0.015-1.812-0.758-3.113-2.318-3.982c0.557-0.561,1.114-1.122,1.67-1.683c0.965,0.904,0.956,0.893,2.007,0.09
		c1.469-1.121,3.001-2.139,4.893-2.845c-0.246,1.735-0.471,3.338-0.698,4.939c-0.074,0.519-0.176,1.035-0.225,1.557
		c-0.087,0.939,0.44,1.55,1.384,1.573c1.048,0.026,2.098,0.007,3.273,0.007c-0.607,1.533-1.184,2.983-1.756,4.434
		c-0.467,1.182-0.31,1.623,0.771,2.24c2.567,1.467,5.131,2.941,7.702,4.402c0.355,0.202,0.671,0.391,0.587,0.87
		C34.097,82.348,28.328,82.348,22.56,82.348z"/>
	<path fill-rule="evenodd" clip-rule="evenodd" d="M15.917,11.953c0,1.26,0,1.26-1.234,1.26c-1.426,0-1.426,0-1.426-1.401
		c0-1.259,0-1.259,1.235-1.259C15.917,10.552,15.917,10.552,15.917,11.953z"/>
	<path fill-rule="evenodd" clip-rule="evenodd" d="M3.913,23.853c-1.296,0-1.296,0-1.296-1.281c0-1.379,0-1.379,1.365-1.379
		c1.295,0,1.295,0,1.295,1.281C5.277,23.853,5.277,23.853,3.913,23.853z"/>
	<path fill-rule="evenodd" clip-rule="evenodd" d="M26.526,21.158c0.01,0.743,0.006,1.486,0.038,2.229
		c0.015,0.35-0.078,0.526-0.454,0.466c-0.054-0.009-0.11-0.002-0.165-0.001c-2.23,0.04-2.257,0.001-2.059-2.257
		c0.029-0.329,0.125-0.416,0.436-0.409c0.744,0.017,1.488,0.004,2.232,0.002C26.555,21.188,26.526,21.158,26.526,21.158z"/>
	<path fill-rule="evenodd" clip-rule="evenodd" fill="#010101" d="M22.104,13.147c0.182,0.168,0.342,0.309,0.493,0.458
		c1.415,1.388,1.395,1.369,0.054,2.765c-0.421,0.438-0.67,0.498-1.063,0c-0.39-0.494-1.19-0.92-1.198-1.385
		c-0.007-0.446,0.772-0.906,1.209-1.356C21.75,13.473,21.913,13.329,22.104,13.147z"/>
	<path fill-rule="evenodd" clip-rule="evenodd" fill="#010101" d="M8.949,14.917c-0.111,0.146-0.177,0.233-0.243,0.319
		c-1.368,1.783-1.538,1.78-3.096,0.211c-0.367-0.37-0.343-0.546,0.011-0.899c1.453-1.453,1.438-1.465,2.878-0.003
		C8.633,14.681,8.794,14.791,8.949,14.917z"/>
	<path fill-rule="evenodd" clip-rule="evenodd" fill="#F3CDAE" d="M40.345,27.842c0.727,0,1.304,0.005,1.882-0.001
		c0.928-0.009,1.48-0.398,1.603-1.119c0.12-0.707-0.306-1.262-1.179-1.538c-0.069-0.022-0.135-0.056-0.256-0.106
		c4.25-1.21,8.448-2.398,12.638-3.612c0.373-0.108,0.609-0.047,0.894,0.184c1.612,1.307,3.233,2.604,4.864,3.888
		c0.271,0.214,0.354,0.443,0.354,0.775c-0.013,3.268,0.032,6.537-0.023,9.804c-0.095,5.568-3.757,10.517-9.033,12.307
		c-1.484,0.504-1.591,0.648-1.59,2.179c0.002,1.903-0.19,3.838,0.874,5.573c0.201,0.326-0.067,0.364-0.252,0.457
		c-0.987,0.496-1.982,0.978-2.959,1.493c-0.266,0.141-0.461,0.086-0.69-0.031c-0.96-0.489-1.911-0.995-2.889-1.446
		c-0.406-0.188-0.356-0.357-0.179-0.677c1.114-2.01,0.764-4.203,0.723-6.344c-0.014-0.688-0.673-0.953-1.276-1.143
		c-3.348-1.054-5.87-3.139-7.605-6.17c-1.091-1.906-1.667-3.977-1.691-6.172c-0.034-3.018-0.017-6.037-0.006-9.056
		c0-0.206-0.155-0.617,0.193-0.586c0.379,0.033,0.938-0.309,1.145,0.288c0.299,0.862,0.917,1.102,1.749,1.06
		c0.524-0.026,1.051-0.005,1.722-0.005c-0.416,0.371-0.764,0.677-0.814,1.158c-0.05,0.476,0.108,0.875,0.47,1.183
		c0.562,0.48,1.384,0.404,1.857-0.159C41.401,29.387,41.264,28.667,40.345,27.842z"/>
	<path fill-rule="evenodd" clip-rule="evenodd" fill="#AC7D4D" d="M63.798,20.114c0,0.969,0.016,1.938-0.01,2.907
		c-0.007,0.271,0.189,0.666-0.188,0.796c-0.336,0.117-0.681,0.038-0.999-0.224c-1.326-1.089-2.676-2.149-4.017-3.22
		c-0.238-0.19-0.469-0.39-0.717-0.566c-0.469-0.332-0.77-0.691-0.751-1.349c0.02-0.723-0.473-1.162-1.201-1.243
		c-0.687-0.077-1.304,0.38-1.391,1.132c-0.053,0.467-0.274,0.586-0.646,0.691c-5.315,1.508-10.616,3.074-15.948,4.523
		c-5.08,1.381-9.991-2.42-10.04-7.682c-0.012-1.301-0.012-2.603,0-3.904c0.012-1.307,0.575-2.324,1.774-2.859
		c1.21-0.541,2.37-0.369,3.399,0.524c2.83,2.452,5.915,2.339,8.563-0.302c0.706-0.704,1.41-1.41,2.117-2.113
		c1.342-1.335,2.963-2.018,4.854-1.986c1.546,0.025,3.101-0.155,4.638,0.153c2.644,0.531,4.824,2.873,5.177,5.526
		c0.042,0.318-0.034,0.53-0.257,0.73c-0.185,0.167-0.359,0.345-0.528,0.529c-0.609,0.666-0.633,1.45-0.066,1.991
		c0.545,0.521,1.291,0.486,1.935-0.087c1.021-0.91,1.495-0.946,2.603-0.134c1.068,0.782,1.662,1.84,1.692,3.176
		c0.022,0.997,0.005,1.994,0.005,2.991C63.796,20.114,63.797,20.114,63.798,20.114z"/>
	<path fill-rule="evenodd" clip-rule="evenodd" fill="#265079" d="M55.979,78.661c0.067-1.928,0.289-3.646,0.569-5.355
		c0.63-3.842,1.662-7.598,2.477-11.399c0.28-1.306,0.748-1.579,2.02-1.271c0.831,0.201,1.657,0.426,2.495,0.595
		c0.371,0.074,0.517,0.275,0.562,0.605c0.245,1.804,0.466,3.611,0.747,5.409c0.075,0.478-0.108,0.505-0.466,0.502
		c-0.969-0.01-1.937-0.008-2.905-0.002c-1.424,0.009-1.975,0.802-1.458,2.104c0.631,1.593,1.267,3.183,1.91,4.77
		c0.122,0.301,0.224,0.53-0.161,0.746C59.892,76.414,58.029,77.49,55.979,78.661z"/>
	<path fill-rule="evenodd" clip-rule="evenodd" fill="#26507A" d="M39.574,78.572c-1.474-0.833-2.941-1.643-4.387-2.486
		c-1.643-0.957-1.639-0.971-0.943-2.723c0.479-1.207,0.979-2.405,1.452-3.615c0.452-1.157-0.107-1.983-1.355-2.002
		c-1.023-0.015-2.048-0.015-3.071,0.002c-0.402,0.007-0.503-0.095-0.436-0.526c0.272-1.771,0.494-3.552,0.732-5.328
		c0.048-0.36,0.184-0.585,0.594-0.671c1.053-0.219,2.086-0.537,3.142-0.737c0.836-0.158,1.094,0.522,1.248,1.13
		c0.46,1.817,0.856,3.652,1.292,5.476c0.822,3.438,1.5,6.9,1.818,10.425C39.688,77.833,39.77,78.165,39.574,78.572z"/>
	<path fill-rule="evenodd" clip-rule="evenodd" fill="#F1C093" d="M31.877,30.443c0,1.162,0.007,2.325-0.006,3.486
		c-0.002,0.209,0.136,0.477-0.27,0.571c-2.393,0.561-4.947-1.361-5.039-3.815c-0.1-2.645,2.347-4.676,5.002-4.184
		c0.403,0.075,0.307,0.315,0.309,0.538C31.882,28.174,31.877,29.309,31.877,30.443z"/>
	<path fill-rule="evenodd" clip-rule="evenodd" fill="#F1C093" d="M63.798,30.464c0-1.134-0.006-2.269,0.006-3.403
		c0.002-0.213-0.125-0.472,0.285-0.559c2.6-0.547,5.113,1.522,5.024,4.162c-0.084,2.469-2.544,4.336-5.019,3.838
		c-0.41-0.082-0.289-0.337-0.291-0.552C63.792,32.788,63.798,31.626,63.798,30.464z"/>
	<path fill-rule="evenodd" clip-rule="evenodd" fill="#A5B1BB" d="M39.941,57.323c0.21,0.098,0.362,0.164,0.51,0.237
		c1.583,0.789,3.162,1.588,4.751,2.363c0.388,0.189,0.58,0.317,0.215,0.75c-0.893,1.057-1.748,2.147-2.595,3.241
		c-0.262,0.34-0.404,0.324-0.671-0.003c-1.313-1.608-2.646-3.201-3.986-4.787c-0.246-0.291-0.304-0.461,0.079-0.687
		C38.835,58.093,39.393,57.688,39.941,57.323z"/>
	<path fill-rule="evenodd" clip-rule="evenodd" fill="#A5B1BB" d="M53.21,64.255c-0.111-0.106-0.219-0.188-0.301-0.29
		c-0.902-1.122-1.794-2.253-2.706-3.366c-0.241-0.294-0.213-0.438,0.129-0.606c1.687-0.829,3.369-1.666,5.04-2.525
		c0.471-0.241,0.723,0.1,1.024,0.297c1.448,0.948,1.445,0.954,0.36,2.258c-1.046,1.256-2.093,2.51-3.139,3.764
		C53.494,63.934,53.365,64.076,53.21,64.255z"/>
	<path fill-rule="evenodd" clip-rule="evenodd" fill="#F3CDAE" d="M7.938,59.506c0-2.022-0.004-4.045,0.001-6.067
		c0.004-1.19,0.466-1.651,1.662-1.654c2.438-0.005,4.876-0.005,7.313,0c1.192,0.003,1.653,0.467,1.663,1.656
		c0.005,0.748,0.017,1.496-0.005,2.243c-0.023,0.817-0.514,1.359-1.233,1.412c-0.713,0.052-1.276-0.437-1.415-1.229
		c-0.181-1.031-0.764-1.553-1.569-1.403c-0.805,0.149-1.231,0.878-1.059,1.867c0.227,1.303,0.887,2.34,2.081,2.929
		c0.52,0.256,0.608,0.57,0.491,1.04c-0.107,0.429-0.19,0.874-0.377,1.268c-0.641,1.352-0.996,2.757-0.896,4.256
		c0.031,0.467-0.116,0.607-0.59,0.601c-1.828-0.027-3.657-0.027-5.485,0c-0.477,0.008-0.598-0.139-0.592-0.602
		C7.951,63.717,7.938,61.611,7.938,59.506z"/>
	<path fill-rule="evenodd" clip-rule="evenodd" fill="#F3CDAE" d="M15.917,46.236c0,0.775-0.021,1.552,0.009,2.326
		c0.016,0.415-0.081,0.562-0.538,0.573c-2.132,0.059-2.131,0.076-2.131-2.046c0-1.052-0.013-2.104,0.005-3.156
		c0.015-0.898,0.568-1.475,1.354-1.456c0.753,0.018,1.274,0.576,1.296,1.433C15.932,44.686,15.917,45.461,15.917,46.236z"/>
	<path fill-rule="evenodd" clip-rule="evenodd" fill="#EDDB99" d="M11.137,26.467c-2.245-1.623-2.512-5.179-0.558-7.443
		c2.012-2.332,5.664-2.434,7.818-0.219c2.131,2.191,1.984,5.768-0.444,7.764c0.196-1.014,0.365-1.905,0.542-2.794
		c0.234-1.179-0.308-1.871-1.521-1.883c-1.604-0.017-3.208-0.019-4.812,0.001c-1.166,0.014-1.713,0.714-1.494,1.841
		c0.173,0.892,0.341,1.785,0.509,2.678C11.18,26.427,11.151,26.449,11.137,26.467z"/>
	<path fill-rule="evenodd" clip-rule="evenodd" fill="#A5B1BB" d="M14.527,31.833c-0.997,0-1.993-0.008-2.989,0.003
		c-0.496,0.006-0.926-0.096-0.917-0.687c0.007-0.532,0.4-0.652,0.871-0.65c2.075,0.008,4.151,0.007,6.227,0.001
		c0.482-0.001,0.848,0.157,0.835,0.685c-0.013,0.531-0.4,0.656-0.872,0.651C16.63,31.825,15.579,31.833,14.527,31.833z"/>
	<path fill-rule="evenodd" clip-rule="evenodd" fill="#EAD897" d="M14.618,24.546c0.993,0,0.994,0,0.815,0.939
		c-0.119,0.625-0.249,1.248-0.356,1.874c-0.053,0.31-0.149,0.502-0.521,0.492c-0.341-0.01-0.405-0.209-0.454-0.472
		c-0.111-0.598-0.234-1.193-0.347-1.791C13.559,24.546,13.561,24.545,14.618,24.546z"/>
	<path fill-rule="evenodd" clip-rule="evenodd" fill="#E9BA32" d="M14.546,35.82c-0.318-0.008-0.596-0.129-0.828-0.335
		c-0.252-0.225-0.512-0.526-0.404-0.85c0.104-0.31,0.481-0.118,0.733-0.137c0.385-0.029,0.774-0.025,1.16-0.001
		c0.226,0.014,0.552-0.146,0.657,0.134c0.101,0.267-0.109,0.529-0.291,0.736C15.306,35.671,14.958,35.825,14.546,35.82z"/>
	<path fill-rule="evenodd" clip-rule="evenodd" d="M43.852,42.341c0.043-0.636-0.084-1.439,0.139-2.233
		c0.529-1.894,2.328-3.144,4.273-2.938c1.929,0.204,3.479,1.83,3.552,3.776c0.038,0.996,0.034,1.995,0.003,2.991
		c-0.066,2.155-1.845,3.858-3.991,3.854c-2.145-0.005-3.904-1.718-3.974-3.875C43.838,43.445,43.852,42.974,43.852,42.341z"/>
	<path fill-rule="evenodd" clip-rule="evenodd" d="M56.341,27.842c0.922,0.87,1.029,1.678,0.39,2.287
		c-0.532,0.506-1.359,0.489-1.867-0.041c-0.597-0.622-0.472-1.405,0.47-2.247c-0.767,0-1.408,0.014-2.05-0.003
		c-0.895-0.024-1.472-0.577-1.45-1.362c0.021-0.752,0.58-1.279,1.438-1.288c1.689-0.017,3.379-0.016,5.067-0.001
		c0.902,0.008,1.479,0.562,1.465,1.347c-0.014,0.78-0.592,1.288-1.509,1.306C57.686,27.852,57.076,27.842,56.341,27.842z"/>
	<path fill-rule="evenodd" clip-rule="evenodd" fill="#010000" d="M50.507,34.327c-0.043,0.807-0.371,1.263-0.992,1.44
		c-0.631,0.179-1.241-0.026-1.471-0.622c-0.564-1.465-1.066-2.959-1.501-4.468c-0.177-0.614,0.188-1.127,0.795-1.387
		c0.617-0.264,1.246-0.133,1.53,0.428C49.63,31.221,49.992,32.876,50.507,34.327z"/>
	<path fill-rule="evenodd" clip-rule="evenodd" fill="#E6989A" d="M49.163,42.44c0,0.469,0.026,0.938-0.007,1.405
		c-0.054,0.771-0.63,1.299-1.35,1.281c-0.688-0.017-1.252-0.527-1.283-1.26c-0.039-0.936-0.041-1.875,0.002-2.81
		c0.033-0.729,0.611-1.233,1.301-1.239c0.687-0.006,1.239,0.499,1.333,1.217c0.007,0.055,0.007,0.11,0.007,0.165
		c0,0.414,0,0.827,0,1.241C49.165,42.44,49.164,42.44,49.163,42.44z"/>
</g>
</svg>
