<?xml version="1.0" encoding="utf-8"?>
<!-- Generator: Adobe Illustrator 16.0.0, SVG Export Plug-In . SVG Version: 6.00 Build 0)  -->
<!DOCTYPE svg PUBLIC "-//W3C//DTD SVG 1.1//EN" "http://www.w3.org/Graphics/SVG/1.1/DTD/svg11.dtd">
<svg version="1.1" id="Layer_1" xmlns="http://www.w3.org/2000/svg" xmlns:xlink="http://www.w3.org/1999/xlink" x="0px" y="0px"
	 width="85px" height="85px" viewBox="0 0 85 85" enable-background="new 0 0 85 85" xml:space="preserve">
<g>
	<path d="M2.5,55.444c0.32-0.431,0.29-0.968,0.433-1.45c1.623-5.473,7.059-8.73,12.711-7.6c5.334,1.068,9.119,6.248,8.546,11.737
		c-0.221,2.113-0.978,4.033-2.342,5.673c-0.349,0.42-0.277,0.651,0.023,1.035c5.03,6.404,1.634,15.721-6.332,17.42
		c-0.285,0.062-0.625-0.081-0.857,0.203c-0.104,0-0.208,0-0.312,0c-0.26-0.128-0.521-0.128-0.781,0c-0.572,0-1.145,0-1.718,0
		c-2.274-0.198-4.233-1.123-5.894-2.656c-1.901-1.756-3.222-3.837-3.397-6.505c-0.005-0.081-0.028-0.149-0.08-0.21
		c0-0.625,0-1.249,0-1.874c0.176-0.732,0.704-0.981,1.39-0.99c1.457-0.019,2.914-0.031,4.369,0.004
		c1.027,0.024,1.485,0.459,1.639,1.512c0.217,1.481,0.915,2.585,2.377,3.099c1.342,0.471,2.55,0.154,3.52-0.817
		c1.023-1.024,1.292-2.299,0.771-3.674c-0.499-1.32-1.504-2.028-2.888-2.171c-0.775-0.08-1.56-0.002-2.339-0.029
		c-1.2-0.043-1.705-0.549-1.714-1.734c-0.012-1.431-0.02-2.861,0.003-4.291c0.018-1.13,0.441-1.545,1.568-1.583
		c0.702-0.024,1.405,0.024,2.106-0.021c2.294-0.145,3.811-1.952,3.451-4.096c-0.244-1.452-1.483-2.646-2.882-2.778
		c-1.765-0.166-3.148,0.648-3.719,2.189c-0.146,0.394-0.202,0.805-0.268,1.217c-0.139,0.864-0.559,1.319-1.436,1.375
		c-1.557,0.099-3.12,0.082-4.678,0.006c-0.601-0.03-1.093-0.315-1.271-0.96C2.5,56.798,2.5,56.121,2.5,55.444z"/>
	<path d="M82.463,35.61c-0.386,0.591-0.917,0.828-1.633,0.787c-0.852-0.049-1.709-0.026-2.563-0.007
		c-0.815,0.018-1.341-0.307-1.492-1.14c-0.09-0.762,0.291-1.268,1.07-1.396c0.438-0.072,0.882-0.042,1.323-0.04
		c0.479,0.003,0.734-0.192,0.716-0.693c-0.006-0.156-0.01-0.313,0.004-0.467c0.059-0.629-0.207-0.887-0.852-0.879
		c-1.61,0.019-3.222,0.018-4.831,0.002c-0.779-0.049-1.56-0.021-2.34-0.026c-0.711-0.005-1.353-0.147-1.718-0.844
		c-0.365-0.699-0.002-1.257,0.385-1.792c2.467-3.416,4.913-6.846,7.383-10.26c1.17-1.618,2.021-3.353,1.994-5.391
		c-0.041-3.266-1.51-5.782-4.337-7.357c-2.97-1.655-5.952-1.403-8.774,0.482c-1.672,1.117-2.696,2.711-3.235,4.629
		c-0.193,0.687-0.139,0.748,0.592,0.763c1.257,0.026,1.257,0.026,1.759-1.126c1.447-3.328,5.383-4.65,8.666-2.914
		c3.104,1.642,4.199,5.691,2.286,8.678c-1.571,2.454-3.364,4.755-5.061,7.123c-1.983,2.77-3.953,5.55-5.965,8.3
		c-0.234,0.375-0.505,0.724-0.751,1.088c-0.122,0.18-0.395,0.351-0.251,0.595c0.113,0.193,0.383,0.097,0.583,0.097
		c2.151,0.005,4.303,0.002,6.454,0.004c0.363,0,0.729-0.012,1.077,0.115c0.613,0.224,0.845,0.625,0.758,1.305
		c-0.203,0.843-0.746,1.153-1.599,1.147c-3.276-0.024-6.553-0.014-9.83-0.006c-0.573,0.001-1.102-0.069-1.405-0.628
		c-0.325-0.596-0.059-1.084,0.293-1.573c4.397-6.115,8.791-12.233,13.182-18.352c1.357-1.892,1.196-3.981-0.43-5.292
		c-1.149-0.926-2.446-1.13-3.801-0.53c-1.314,0.583-2.058,1.627-2.188,3.073c-0.102,1.125-0.436,1.449-1.57,1.452
		c-1.378,0.004-2.756,0.004-4.135,0c-1.142-0.003-1.515-0.401-1.491-1.565c0.102-5.085,4.115-9.621,9.135-10.329
		c0.143-0.02,0.319,0.038,0.41-0.142c0.885,0,1.77,0,2.654,0c1.823,0.122,3.49,0.699,4.965,1.773
		c2.35,1.712,3.959,3.919,4.461,6.845c0.052,0.303-0.078,0.623,0.102,0.909c0,0.676,0,1.354,0,2.03
		c-0.164,0.257-0.043,0.542-0.081,0.812c0.025,1.682-0.6,3.158-1.513,4.515c-1.933,2.872-4.028,5.629-6.023,8.457
		c-0.233,0.331-0.495,0.648-0.661,1.024c0.325,0.209,0.618,0.129,0.894,0.131c1.979,0.009,3.956,0.014,5.934,0
		c0.737-0.006,1.271,0.218,1.451,0.992C82.463,31.861,82.463,33.736,82.463,35.61z"/>
	<path d="M73.561,82.463c-0.612-0.429-0.741-1.033-0.737-1.748c0.021-4.008-0.009-8.016,0.028-12.023
		c0.006-0.674-0.191-0.794-0.817-0.788c-3.462,0.032-6.923,0.017-10.384,0.015c-1.443-0.001-1.88-0.56-1.508-1.952
		c1.513-5.666,3.029-11.332,4.547-16.996c0.309-1.149,0.781-1.407,1.959-1.095c1.279,0.339,2.559,0.677,3.838,1.02
		c1.195,0.32,1.474,0.799,1.155,1.99c-0.839,3.133-1.683,6.266-2.522,9.398c-0.032,0.121-0.051,0.247-0.09,0.442
		c1.156,0,2.268-0.018,3.378,0.007c0.525,0.012,0.424-0.332,0.425-0.628c0.003-1.691-0.003-3.383,0.003-5.074
		c0.004-1.21,0.39-1.601,1.58-1.604c2.134-0.004,4.269,0.021,6.402-0.015c0.714-0.012,1.253,0.192,1.646,0.782
		c0,9.163,0,18.325,0,27.487c-0.098,0.423-0.357,0.684-0.781,0.781C78.975,82.463,76.268,82.463,73.561,82.463z"/>
	<path d="M10.901,18.826c-0.814-0.127-1.135-0.629-1.118-1.422c0.017-0.779-0.015-1.56,0.011-2.339
		c0.014-0.402-0.105-0.548-0.524-0.536c-0.961,0.028-1.924,0.014-2.886,0.007c-1.03-0.007-1.439-0.383-1.45-1.385
		c-0.017-1.482-0.019-2.964,0.001-4.446c0.013-0.95,0.441-1.344,1.411-1.356C7.048,7.34,7.75,7.357,8.452,7.344
		C9.31,7.328,9.741,6.917,9.78,6.057C9.808,5.46,9.822,4.858,9.777,4.264C9.724,3.55,9.906,2.959,10.465,2.5
		c2.707,0,5.414,0,8.121,0c0.646,0.352,0.812,0.903,0.811,1.619c-0.019,7.775-0.012,15.55-0.012,23.325
		c0,1.407,0.342,1.748,1.746,1.75c0.65,0.001,1.301-0.018,1.95,0.007c0.704,0.027,1.128,0.419,1.139,1.123
		c0.026,1.638,0.026,3.276,0,4.914c-0.012,0.707-0.469,1.115-1.22,1.139c-0.806,0.026-1.612,0.008-2.418,0.008
		c-4.655,0-9.309,0-13.964,0c-1.345,0-1.686-0.347-1.688-1.715c-0.002-1.353-0.011-2.705,0.003-4.057
		c0.011-1.03,0.4-1.408,1.415-1.417c0.676-0.006,1.353,0.009,2.028-0.004c0.945-0.019,1.391-0.441,1.404-1.384
		c0.021-1.482,0.018-2.964,0.001-4.446c-0.008-0.793,0.304-1.295,1.12-1.42c0.746-0.093,1.28,0.15,1.354,0.897
		c0.219,2.214,0.487,4.472-0.257,6.625c-0.551,1.595-1.922,2.216-3.555,2.318c-0.306,0.019-0.779-0.228-0.861,0.366
		c-0.002,1.775-0.141,1.661,1.629,1.662c3.772,0.002,7.544,0.003,11.316-0.001c0.989-0.001,1.476-0.83,1.028-1.725
		c-0.164-0.328-0.473-0.283-0.746-0.292c-0.796-0.027-1.544-0.206-2.224-0.633c-1.207-0.772-1.704-1.927-1.774-3.309
		c-0.014-0.281,0.002-0.563-0.02-0.846c-0.036-6.779-0.007-13.557-0.016-20.334c-0.002-1.57-0.001-1.57-1.576-1.577
		c-0.233-0.001-0.467,0.01-0.699-0.019c-0.467,0.003-0.936,0.004-1.404-0.002c-0.446-0.006-0.682,0.178-0.687,0.64
		c-0.003,0.287-0.052,0.569-0.105,0.851c-0.409,2.15-1.683,3.255-3.865,3.35c-0.818,0.036-0.882,0.116-0.869,1.087
		c0.012,0.859,0.087,0.942,0.93,0.955c0.702,0.011,1.405-0.021,2.107,0.013c1.113,0.053,1.689,0.565,1.767,1.68
		c0.088,1.271,0.091,2.55-0.003,3.821C12.294,18.491,11.77,18.93,10.901,18.826z"/>
	<path fill="#ECECEC" d="M81.682,82.463c0.261-0.261,0.521-0.521,0.781-0.781C82.603,82.343,82.343,82.603,81.682,82.463z"/>
	<path fill="#4E4E4E" d="M82.463,14.838c-0.044,0.015-0.09,0.023-0.136,0.026c-0.058-0.286-0.093-0.569,0.136-0.807
		C82.463,14.317,82.463,14.578,82.463,14.838z"/>
	<path fill="#1B1B1B" d="M13.588,82.463c0.261-0.211,0.521-0.255,0.781,0C14.109,82.463,13.849,82.463,13.588,82.463z"/>
	<path d="M31.792,55.265c-1.831,0.146-2.264-0.266-2.132-1.564c0.301-2.947,0.631-5.892,0.944-8.837
		c0.055-0.518,0.315-0.876,0.793-1.058c0.462-0.176,0.874-0.03,1.218,0.291c0.361,0.337,0.745,0.663,1.04,1.053
		c0.429,0.565,0.7,0.396,1.127-0.033c5.023-5.053,10.067-10.086,15.106-15.125c1.108-1.108,1.473-1.112,2.565-0.021
		c0.902,0.9,1.806,1.799,2.703,2.704c0.858,0.866,0.855,1.359-0.021,2.235c-5.092,5.095-10.177,10.198-15.293,15.267
		c-0.513,0.507-0.487,0.778,0.028,1.185c0.325,0.255,0.591,0.584,0.888,0.875c0.38,0.372,0.59,0.802,0.394,1.331
		c-0.191,0.516-0.594,0.745-1.136,0.803C37.097,54.68,34.178,55.004,31.792,55.265z"/>
	<path d="M38.076,14.643c3.278,0,6.557-0.014,9.835,0.014c0.554,0.004,0.727-0.152,0.679-0.694c-0.045-0.516-0.034-1.041-0.003-1.56
		c0.064-1.043,1.08-1.572,1.896-0.931c2.454,1.927,4.88,3.891,7.292,5.869c0.607,0.498,0.611,1.267,0.005,1.765
		c-2.412,1.979-4.838,3.942-7.29,5.87c-0.818,0.644-1.835,0.123-1.902-0.921c-0.034-0.519-0.049-1.044,0.004-1.56
		c0.057-0.565-0.157-0.672-0.688-0.67c-6.426,0.019-12.854,0.013-19.28,0.012c-1.579,0-1.88-0.298-1.88-1.858
		c0-1.275-0.006-2.55,0.001-3.825c0.007-1.119,0.389-1.507,1.496-1.509C31.519,14.639,34.797,14.643,38.076,14.643z"/>
	<path d="M33.279,69.175c-0.166,0.813-0.648,1.177-1.491,1.153c-1.195-0.033-2.393-0.001-3.589-0.011
		c-1.054-0.008-1.445-0.403-1.453-1.474c-0.01-1.378-0.007-2.757-0.001-4.135c0.005-1.193,0.396-1.582,1.605-1.583
		c6.477-0.003,12.954-0.01,19.43,0.014c0.62,0.002,0.904-0.099,0.812-0.783c-0.062-0.46-0.016-0.936-0.01-1.403
		c0.006-0.512,0.227-0.906,0.693-1.127c0.441-0.208,0.872-0.128,1.243,0.169c2.414,1.935,4.831,3.865,7.225,5.823
		c0.641,0.523,0.649,1.3,0.015,1.82c-2.414,1.977-4.837,3.941-7.293,5.864c-0.813,0.637-1.82,0.085-1.879-0.965
		c-0.028-0.519-0.046-1.045,0.005-1.56c0.058-0.576-0.178-0.674-0.701-0.671c-3.355,0.023-6.71,0.016-10.066,0.01
		c-0.964-0.001-1.225-0.215-1.472-1.143c-0.248-0.688,0.188-1.014,0.698-1.271c0.431-0.216,0.91-0.192,1.379-0.192
		c3.484-0.001,6.968-0.004,10.453,0.001c1.629,0.003,1.936,0.241,2.371,1.863c1.115-0.857,2.176-1.723,3.236-2.588
		c0.21-0.172,0.168-0.371-0.024-0.526c-1.044-0.844-2.079-1.699-3.134-2.501c-0.258,0.214-0.188,0.445-0.251,0.635
		c-0.197,0.599-0.591,0.967-1.227,1.047c-0.336,0.042-0.675,0.025-1.013,0.025c-6.136,0.001-12.273-0.001-18.409,0.001
		c-1.046,0-1.535,0.785-1.097,1.737c0.14,0.304,0.407,0.287,0.661,0.298c0.649,0.027,1.302-0.035,1.949,0.038
		C32.889,67.849,33.339,68.347,33.279,69.175z"/>
	<path fill="#E43950" d="M10.901,18.826c0.937-0.195,1.221-0.519,1.232-1.486c0.015-1.222,0.018-2.445-0.001-3.667
		c-0.017-1.051-0.443-1.465-1.479-1.476c-0.91-0.009-1.822-0.03-2.731,0.009c-0.525,0.022-0.713-0.167-0.638-0.667
		c0.004-0.025,0-0.052,0-0.078c0.014-0.544-0.163-1.216,0.092-1.601c0.287-0.432,1.008-0.129,1.538-0.176
		c1.815-0.159,3.124-1.611,3.222-3.602c0.061-1.241,0.061-1.242,1.295-1.239c0.312,0.001,0.623,0.018,0.935,0.027
		c0.352,0.397,0.244,0.886,0.245,1.342c0.007,5.946,0.004,11.892,0.005,17.838c0,0.337-0.016,0.676,0.025,1.012
		c0.114,0.921,0.633,1.51,1.504,1.796c0.292,0.096,0.625,0.081,0.863,0.321c-0.035,1.488,0.293,2.823,1.577,3.756
		c0.189,0.57-0.247,0.795-0.604,1.028c-0.453,0.295-0.985,0.299-1.509,0.299c-2.678,0.002-5.356,0.003-8.034-0.001
		c-0.388,0-0.787,0.03-1.12-0.238c-0.072-0.312,0-0.506,0.371-0.487c0.232,0.012,0.466,0.003,0.699,0
		c2.191-0.026,3.67-1.426,3.738-3.616c0.048-1.526,0.025-3.056,0.004-4.583c-0.012-0.894-0.321-1.212-1.229-1.396
		C10.966,20.903,10.968,19.864,10.901,18.826z"/>
	<path fill="#01BFF9" d="M33.279,69.175c-0.294-0.959-0.579-1.185-1.545-1.197c-0.703-0.009-1.418,0.081-2.105-0.021
		c-1.187-0.176-0.312-1.119-0.517-1.678c-0.118-0.321-0.207-0.856,0.522-0.823c0.987,0.045,1.978,0.011,2.966,0.011
		c5.361,0,10.722,0,16.083,0c2.087,0,2.087,0,2.308-2.086c1.412,1.136,2.777,2.233,4.175,3.358
		c-1.408,1.132-2.761,2.219-4.113,3.306c-0.065-0.081-0.117-0.115-0.119-0.15c-0.055-1.703-0.275-1.919-1.971-1.919
		c-3.669,0-7.338-0.002-11.008,0.002c-1.061,0.001-1.369,0.241-1.603,1.197C35.328,69.175,34.304,69.175,33.279,69.175z"/>
	<path fill="#FD850A" d="M73.71,35.248c-0.307-1.025-0.537-1.203-1.587-1.205c-2.356-0.002-4.713,0-7.068,0
		c-0.248,0-0.496,0-0.904,0c0.598-0.802,1.101-1.477,1.604-2.152c0.35-0.128,0.714-0.111,1.076-0.112
		c1.997-0.003,3.994,0.003,5.991,0.009c0.419,0.001,0.829-0.023,1.21-0.221c1.864-0.009,3.729-0.006,5.592-0.038
		c0.437-0.008,0.495,0.167,0.506,0.545c0.054,1.951,0.064,1.951-1.87,1.969c-0.978,0.009-1.274,0.251-1.484,1.208
		C75.753,35.249,74.731,35.248,73.71,35.248z"/>
	<path fill="#F3D802" d="M15.309,48.76c3.17,0.774,5.285,2.748,6.21,5.836c0.957,3.191,0.185,6.06-2.129,8.477
		c-1.031,1.077-1.044,1.417,0.021,2.492c3.155,3.184,3.328,8.211,0.399,11.603c-2.903,3.361-7.862,3.923-11.472,1.296
		c-0.144-0.104-0.265-0.242-0.396-0.364c1.014-0.422,2.121-0.521,3.143-0.916c3.426,1.242,6.125-0.452,7.327-2.3
		c1.697-2.611,1.127-6.1-1.325-8.03c-0.182-0.144-0.364-0.284-0.546-0.427c-0.275-0.385-0.39-0.839-0.523-1.279
		c-0.25-0.827-0.691-1.543-1.209-2.22c1.837-0.591,3.268-1.662,4.071-3.463c1.105-2.479,0.399-5.368-1.729-7.109
		c-0.199-0.163-0.401-0.321-0.601-0.482C16.106,50.847,15.661,49.821,15.309,48.76z"/>
	<path fill="#FDE803" d="M15.309,48.76c0.655,0.941,1.09,1.97,1.241,3.112c-2.047-1.059-4.109-1.211-6.165-0.049
		c-1.369,0.774-2.306,1.928-2.743,3.442c-0.14,0.484-0.352,0.681-0.858,0.617c-0.384-0.047-0.782-0.043-1.167-0.001
		c-0.6,0.064-0.695-0.181-0.579-0.715c0.848-3.899,4.486-6.753,8.502-6.641C14.135,48.543,14.736,48.551,15.309,48.76z"/>
	<path fill="#FDE803" d="M11.084,77.183c-0.922,0.737-2.039,0.804-3.143,0.916c-1.571-1.21-2.449-2.845-2.922-4.735
		c-0.123-0.492,0.035-0.679,0.529-0.596c0.025,0.004,0.052,0.003,0.078,0c1.151-0.154,1.963-0.008,2.37,1.393
		C8.424,75.633,9.703,76.529,11.084,77.183z"/>
	<path fill="#FDE803" d="M14.808,62.926c0.557,0.084,0.678,0.59,0.886,0.974c0.426,0.787,0.755,1.62,0.846,2.526
		c-1.188-0.636-2.451-0.953-3.801-0.845c-0.469,0.038-0.652-0.112-0.617-0.598c0.042-0.592-0.18-1.313,0.088-1.747
		c0.274-0.444,1.05-0.09,1.599-0.188C14.139,62.989,14.475,62.966,14.808,62.926z"/>
	<path fill="#FD9638" d="M74.031,31.566c-0.222,0.335-0.555,0.45-0.934,0.451c-2.331,0.004-4.661,0.005-6.991-0.002
		c-0.117,0-0.235-0.081-0.353-0.124c2.672-3.743,5.342-7.486,8.016-11.227c0.861-1.206,1.739-2.399,2.592-3.61
		c1.522-2.16,1.733-4.442,0.39-6.732c-1.257-2.142-3.241-3.165-5.702-2.929c-2.663,0.256-4.425,1.789-5.242,4.341
		c-0.125,0.393-0.291,0.487-0.643,0.464c-0.259-0.016-0.521-0.003-0.78-0.003c-1.356,0-1.396-0.014-0.94-1.336
		c1.188-3.439,3.599-5.526,7.207-5.938c3.444-0.395,6.249,0.962,8.107,3.9c1.909,3.02,1.941,6.209-0.049,9.178
		c-2.518,3.755-5.238,7.373-7.871,11.049c-0.045,0.063-0.089,0.128-0.137,0.19c-0.367,0.487-0.729,0.981-0.394,1.631
		c0.327,0.635,0.919,0.678,1.541,0.672C72.576,31.534,73.304,31.556,74.031,31.566z"/>
	<path fill="#00C17A" d="M76.538,55.795c0.987-0.009,1.976,0.012,2.961-0.039c0.548-0.028,0.633,0.196,0.63,0.676
		c-0.018,3.301-0.009,6.603-0.009,9.903c0,4.342-0.012,8.683,0.014,13.024c0.004,0.603-0.14,0.803-0.766,0.775
		c-1.193-0.052-2.392-0.034-3.587-0.005c-0.468,0.011-0.628-0.121-0.625-0.608c0.021-4.314,0.018-8.63,0.022-12.944
		c0.466,0.258,0.334,0.716,0.336,1.102c0.016,2.675,0.007,5.349,0.011,8.023c0.001,0.229-0.054,0.463,0.052,0.726
		c0.584-0.717,0.711-1.525,0.71-2.392c-0.008-5.635-0.007-11.269,0.001-16.903C76.289,56.678,76.178,56.188,76.538,55.795z"/>
	<path fill="#46CB8C" d="M76.538,55.795c0,6.213-0.006,12.425,0.004,18.638c0.001,1.051-0.447,1.871-1.146,2.673
		c-0.186-0.276-0.119-0.512-0.119-0.728c-0.006-2.989-0.001-5.979-0.009-8.968c0-0.278,0.089-0.573-0.09-0.834
		c-0.185-0.764-0.7-1.009-1.446-1.006c-3.408,0.015-6.816-0.01-10.225,0.02c-0.697,0.007-0.81-0.156-0.625-0.831
		c1.249-4.558,2.465-9.124,3.66-13.695c0.156-0.596,0.392-0.714,0.963-0.557c1.677,0.461,1.68,0.44,1.234,2.103
		c-0.758,2.835-1.512,5.67-2.266,8.506c-0.372,1.402,0.053,1.953,1.511,1.954c1.874,0.003,3.747,0.004,5.62,0
		c1.172-0.003,1.557-0.376,1.562-1.526c0.007-1.612,0.059-3.229-0.022-4.838c-0.042-0.844,0.261-1.06,1.004-0.938
		C76.277,55.787,76.409,55.786,76.538,55.795z"/>
	<path fill="#C92E43" d="M17.007,27.179c-1.488,0.241-2.691-1.068-2.672-2.669c0.079-6.545,0.031-13.093,0.03-19.64
		c0.855-0.032,1.936-0.353,2.498,0.104c0.549,0.445,0.167,1.562,0.169,2.381c0.016,6.297,0.009,12.594,0.007,18.89
		C17.039,26.557,17.018,26.868,17.007,27.179z"/>
	<path fill="#C92E43" d="M7.317,32.023c3.167-0.001,6.333-0.004,9.5-0.004c0.812,0,1.473-0.242,1.767-1.084
		c0.832,0.496,1.738,0.679,2.693,0.597c0.477-0.041,0.617,0.125,0.624,0.609c0.027,1.902,0.045,1.901-1.824,1.901
		c-3.982,0-7.965-0.019-11.946,0.018c-0.7,0.006-0.938-0.189-0.848-0.869C7.334,32.807,7.309,32.413,7.317,32.023z"/>
	<path fill="#01BFF9" d="M32.659,47.63c0.075-0.011,0.111-0.027,0.125-0.017c1.563,1.226,1.563,1.227,2.975-0.186
		c4.966-4.965,9.937-9.925,14.885-14.908c0.433-0.435,0.649-0.434,1.066,0.001c1.229,1.28,1.249,1.262,0.021,2.49
		c-4.708,4.708-9.417,9.417-14.125,14.125c-1.47,1.469-1.47,1.469-0.218,3.163c-1.604,0.171-3.168,0.322-4.729,0.513
		c-0.512,0.062-0.549-0.156-0.501-0.565C32.338,50.704,32.495,49.16,32.659,47.63z"/>
	<path fill="#01BFF9" d="M50.992,14.875c1.332,1.066,2.618,2.104,3.915,3.128c0.256,0.203,0.149,0.312-0.038,0.463
		c-1.273,1.019-2.543,2.043-3.807,3.059c-0.221-0.147-0.132-0.319-0.135-0.456c-0.023-1.232-0.355-1.572-1.578-1.573
		c-6.477-0.002-12.955-0.014-19.431,0.017c-0.704,0.003-0.87-0.188-0.851-0.866c0.048-1.659,0.013-1.66,1.676-1.66
		c5.983,0,11.966,0,17.948,0C50.704,16.987,50.762,16.936,50.992,14.875z"/>
</g>
</svg>
