<?xml version="1.0" encoding="utf-8"?>
<!-- Generator: Adobe Illustrator 16.0.0, SVG Export Plug-In . SVG Version: 6.00 Build 0)  -->
<!DOCTYPE svg PUBLIC "-//W3C//DTD SVG 1.1//EN" "http://www.w3.org/Graphics/SVG/1.1/DTD/svg11.dtd">
<svg version="1.1" id="Layer_1" xmlns="http://www.w3.org/2000/svg" xmlns:xlink="http://www.w3.org/1999/xlink" x="0px" y="0px"
	 width="85px" height="85px" viewBox="0 0 85 85" enable-background="new 0 0 85 85" xml:space="preserve">
<g>
	<g>
		<path d="M82.49,10.282c-0.004-1.503-1.1-2.583-2.595-2.615c-0.833-0.018-1.666-0.014-2.499-0.001
			c-1.294,0.021-2.319,0.772-2.557,2.02c-0.108,0.57-0.356,0.645-0.829,0.663c-2.31,0.088-4.617,0.199-6.927,0.303
			c-4.134,0.187-8.268,0.371-12.401,0.564c-0.39,0.018-0.607,0.033-0.6-0.515c0.069-4.832-3.249-8.19-8.062-8.198
			C42.501,2.498,38.979,2.505,35.459,2.5c-1.105-0.001-2.201,0.071-3.284,0.293C25.741,4.114,21.229,7.83,19.027,13.983
			c-2.219,6.196-1.022,11.945,3.153,17.046c1.165,1.422,2.651,2.509,3.998,3.742c0.708,0.648,1.742,1.116,2.053,1.974
			c0.311,0.855,0.041,1.912,0.092,2.876c0.026,0.481-0.166,0.637-0.582,0.761c-4.742,1.41-8.556,4.148-11.497,8.11
			c-0.253,0.341-0.511,0.462-0.928,0.471c-1.66,0.036-3.012,0.737-3.993,2.066c-0.295,0.399-0.584,0.521-1.055,0.511
			c-1.316-0.031-2.635-0.03-3.951-0.005c-2.108,0.041-3.797,1.695-3.803,3.803c-0.02,7.795-0.021,15.59,0.002,23.384
			c0.006,2.062,1.695,3.751,3.76,3.759c6.935,0.026,13.869,0.024,20.804,0.002c2.107-0.007,3.756-1.695,3.802-3.806
			c0.023-1.048,0.041-2.099-0.007-3.145c-0.027-0.604,0.112-0.801,0.768-0.797c5.537,0.03,11.074,0.009,16.61,0.03
			c0.548,0.002,0.72-0.106,0.713-0.689c-0.033-3.01-0.016-6.021-0.016-9.03c0-2.98,0-5.961,0-9.022
			c0.677,0.27,1.293,0.513,1.908,0.76c2.806,1.13,5.7,1.528,8.683,0.939c7.571-1.496,12.62-7.654,12.632-15.373
			c0.006-4.085,0.001-8.171,0.001-12.256c0-2.102-0.001-2.093,2.08-1.878c0.343,0.036,0.468,0.113,0.545,0.492
			c0.282,1.402,1.254,2.162,2.679,2.177c0.806,0.009,1.613,0.016,2.419-0.002c1.493-0.034,2.589-1.116,2.593-2.618
			C82.503,22.27,82.503,16.276,82.49,10.282z M61.709,39.866c-0.666,3.787-4.487,6.112-8.147,4.883
			c-4.008-1.346-7.957-2.862-11.936-4.291c-0.299-0.107-0.438-0.23-0.421-0.561c0.026-0.507,0.007-1.017,0.007-1.59
			c4.203,1.227,7.3-1.562,7.665-4.607c0.14-1.167,0.198-2.379,0.04-3.535c-0.201-1.468,0.838-2.077,1.627-2.899
			c0.153-0.16,0.354-0.096,0.534-0.088c2.575,0.109,5.151,0.229,7.728,0.33c0.327,0.013,0.509,0.081,0.471,0.452
			c-0.182,1.758,0.672,3.042,1.942,4.108c0.493,0.415,0.682,0.876,0.648,1.527C61.762,35.684,62.074,37.795,61.709,39.866z"/>
	</g>
	<path fill-rule="evenodd" clip-rule="evenodd" fill="#FBD670" d="M37.445,72.172c1.227-1.532,2.319-2.93,3.454-4.29
		c0.333-0.398,0.388-0.766,0.276-1.246c-1.199-5.145-2.383-10.292-3.572-15.438c-0.137-0.59,0.362-1.863,0.837-2.196
		c0.26-0.184,0.404,0.039,0.565,0.133c0.969,0.563,1.928,1.146,2.925,1.743c0.696-2.092,1.383-4.093,2.018-6.111
		c0.173-0.55,0.367-0.608,0.889-0.412c2.482,0.936,4.975,1.844,7.477,2.725c5.224,1.84,10.618-1.067,11.89-6.4
		c0.397-1.667,0.181-3.371,0.23-5.059c0.021-0.692-0.218-1.602,0.132-2.017c0.368-0.438,1.309-0.113,1.999-0.131
		c0.859-0.023,1.72-0.001,2.579-0.008c0.265-0.002,0.466,0,0.455,0.369c-0.096,3.623,0.271,7.264-0.193,10.869
		c-0.681,5.282-5.381,9.824-10.637,10.556c-2.729,0.379-5.282-0.112-7.767-1.192c-0.662-0.288-1.586-0.385-1.927-0.885
		c-0.343-0.502-0.106-1.397-0.123-2.121c-0.002-0.08,0.005-0.161-0.002-0.241c-0.046-0.607,0.271-1.529-0.129-1.749
		c-0.561-0.308-1.401-0.101-2.122-0.122c-0.239-0.007-0.341,0.091-0.329,0.329c0.01,0.188,0.001,0.376,0.001,0.564
		c0,7.175-0.011,14.35,0.018,21.523c0.002,0.679-0.17,0.835-0.834,0.825C42.906,72.147,40.255,72.172,37.445,72.172z"/>
	<path fill-rule="evenodd" clip-rule="evenodd" fill="#EFCFB3" d="M30.889,33.225c0-2.284-0.017-4.568,0.013-6.852
		c0.007-0.531-0.14-0.697-0.666-0.658c-0.615,0.045-1.235,0.02-1.854,0.008c-1.509-0.029-2.644-1.131-2.652-2.563
		c-0.008-1.44,1.119-2.56,2.622-2.592c0.618-0.014,1.24-0.045,1.853,0.009c0.58,0.051,0.736-0.15,0.693-0.709
		c-0.129-1.694,0.473-3.045,1.96-3.949c0.538-0.327,0.884-0.407,1.293,0.303c0.707,1.226,1.903,1.762,3.322,1.763
		c2.714,0.001,5.429,0.025,8.142-0.018c0.661-0.01,0.795,0.201,0.767,0.803c-0.113,2.378,0.462,4.576,1.848,6.533
		c0.188,0.265,0.237,0.462-0.052,0.657c-1.588,1.073-2.118,2.578-1.807,4.425c0.079,0.464-0.172,0.522-0.556,0.508
		c-0.671-0.025-1.344,0.005-2.015-0.011c-1.244-0.031-2.248-0.776-2.498-1.993c-0.111-0.54-0.334-0.628-0.782-0.587
		c-0.24,0.022-0.483,0.004-0.725,0.004c-1.33,0-1.33,0-0.994,1.321c0.542,2.13,2.527,3.742,4.744,3.829
		c0.725,0.028,1.452,0.04,2.176,0.001c0.607-0.033,0.59,0.195,0.396,0.647c-0.62,1.452-2.159,2.268-3.694,1.805
		c-2.206-0.666-4.393-1.396-6.566-2.159c-0.601-0.211-0.77-0.055-0.942,0.493c-0.546,1.73-0.567,1.724,1.158,2.305
		c0.051,0.017,0.102,0.036,0.152,0.054c0.782,0.272,1.908,0.326,2.255,0.873c0.406,0.639,0.113,1.71,0.158,2.593
		c0.019,0.368-0.117,0.595-0.402,0.803c-1.041,0.761-2.077,1.527-3.095,2.318c-0.284,0.22-0.466,0.232-0.757,0.006
		c-1.017-0.792-2.05-1.563-3.095-2.317c-0.324-0.233-0.411-0.499-0.409-0.881C30.898,37.739,30.889,35.482,30.889,33.225z"/>
	<path fill-rule="evenodd" clip-rule="evenodd" fill="#B17946" d="M28.309,33.165c-2.456-2.063-4.778-3.989-6.176-6.802
		c-4.51-9.071,1.192-19.821,11.237-21.151c1.396-0.185,2.789-0.113,4.183-0.123c2.875-0.019,5.749-0.013,8.624-0.004
		c3.055,0.01,5.353,2.232,5.353,5.159c0,2.922-2.301,5.148-5.354,5.158c-2.901,0.01-5.803,0.01-8.705-0.003
		c-0.875-0.004-1.431-0.546-1.415-1.311c0.015-0.736,0.551-1.226,1.386-1.262c0.161-0.007,0.326-0.022,0.483,0.001
		c0.56,0.085,0.803-0.129,0.708-0.701c-0.018-0.104-0.003-0.214-0.003-0.322c0-1.771-0.002-1.792-1.774-1.533
		c-1.302,0.19-2.308,0.877-2.9,2.061c-0.214,0.428-0.486,0.618-0.93,0.749c-2.219,0.655-3.706,2.095-4.416,4.303
		c-0.126,0.392-0.258,0.586-0.74,0.634c-2.68,0.266-4.65,2.369-4.717,4.954c-0.068,2.667,1.729,4.837,4.458,5.265
		c0.602,0.094,0.728,0.282,0.711,0.837C28.282,30.385,28.309,31.697,28.309,33.165z"/>
	<path fill-rule="evenodd" clip-rule="evenodd" fill="#B3DC7F" d="M10.452,56.689c-0.761,0-1.408,0.042-2.045-0.013
		c-0.597-0.051-0.76,0.126-0.756,0.74c0.028,4.783,0.016,9.567,0.016,14.351c0,1.64,0.012,3.279-0.008,4.918
		c-0.005,0.44,0.034,0.663,0.586,0.661c5.644-0.023,11.287-0.021,16.931-0.003c0.483,0.001,0.562-0.174,0.562-0.603
		c-0.012-6.477-0.013-12.953,0.002-19.43c0.001-0.481-0.1-0.718-0.614-0.623c-0.052,0.01-0.107,0.002-0.161,0.001
		c-0.642-0.017-1.284-0.033-1.926-0.051c0.037-0.738,0.086-1.477,0.106-2.216c0.009-0.326,0.209-0.314,0.431-0.314
		c1.156,0.003,2.312-0.021,3.466,0.014c0.786,0.024,1.247,0.545,1.261,1.379c0.02,1.155,0.006,2.312,0.006,3.467
		c0,6.369,0,12.738,0,19.107c0,1.467-0.377,1.838-1.87,1.838c-6.504,0-13.007,0-19.511,0c-1.472-0.001-1.842-0.375-1.842-1.864
		c0-7.363,0-14.727,0-22.09c0-1.48,0.37-1.849,1.856-1.85c0.914-0.001,1.829,0.025,2.741-0.011c0.47-0.019,0.601,0.146,0.571,0.592
		C10.211,55.333,10.238,55.977,10.452,56.689z"/>
	<path fill-rule="evenodd" clip-rule="evenodd" fill="#E5E8EC" d="M23.148,67.01c0,2.364-0.016,4.729,0.013,7.094
		c0.006,0.523-0.131,0.665-0.659,0.661c-3.869-0.023-7.738-0.023-11.607,0c-0.525,0.003-0.664-0.132-0.661-0.659
		c0.021-4.729,0.021-9.458,0-14.187c-0.002-0.523,0.13-0.665,0.658-0.662c3.869,0.023,7.738,0.023,11.607,0.001
		c0.524-0.003,0.668,0.131,0.661,0.659C23.131,62.28,23.148,64.646,23.148,67.01z"/>
	<path fill-rule="evenodd" clip-rule="evenodd" fill="#A9B1BC" d="M67.109,13.227c2.386-0.106,4.772-0.201,7.158-0.33
		c0.416-0.022,0.494,0.115,0.493,0.485c-0.009,3.919-0.011,7.838,0.002,11.757c0.001,0.422-0.107,0.6-0.547,0.503
		c-0.181-0.04-0.375-0.05-0.561-0.038c-1.048,0.071-1.894-0.069-2.527-1.144c-0.547-0.928-1.625-1.29-2.724-1.305
		c-1.799-0.023-3.598-0.027-5.396,0.001c-1.165,0.019-2.114,0.54-2.854,1.434c-0.175,0.21-0.325,0.44-0.65,0.358
		c-0.413-0.104-0.221-0.441-0.222-0.666c-0.014-3.355,0.001-6.711-0.021-10.066c-0.003-0.479,0.111-0.641,0.609-0.659
		c2.414-0.087,4.826-0.215,7.238-0.329C67.109,13.229,67.109,13.228,67.109,13.227z"/>
	<path fill-rule="evenodd" clip-rule="evenodd" fill="#FE816E" d="M38.48,66.504c0.042,0.248-0.127,0.398-0.26,0.564
		c-1.04,1.3-2.094,2.589-3.114,3.905c-0.289,0.373-0.427,0.336-0.697-0.012c-1.021-1.314-2.063-2.612-3.12-3.899
		c-0.234-0.285-0.267-0.55-0.188-0.887c1.088-4.675,2.164-9.352,3.26-14.023c0.052-0.22-0.049-0.591,0.364-0.618
		c0.482-0.031,0.381,0.393,0.437,0.629c1.096,4.673,2.173,9.35,3.254,14.025C38.441,66.293,38.459,66.398,38.48,66.504z"/>
	<path fill-rule="evenodd" clip-rule="evenodd" fill="#A9B1BC" d="M56.692,19.325c0,1.585-0.021,3.172,0.012,4.757
		c0.012,0.56-0.054,0.796-0.725,0.737c-1.497-0.131-3.005-0.16-4.509-0.209c-0.344-0.011-0.596-0.09-0.827-0.372
		c-1.561-1.897-1.813-4.125-1.695-6.46c0.016-0.295,0.229-0.337,0.414-0.415c1.535-0.646,2.735-1.686,3.602-3.101
		c0.194-0.318,0.425-0.436,0.78-0.441c0.806-0.011,1.614-0.022,2.417-0.089c0.435-0.036,0.546,0.088,0.541,0.514
		C56.68,15.938,56.692,17.631,56.692,19.325z"/>
	<path fill-rule="evenodd" clip-rule="evenodd" fill="#FBD670" d="M19.083,49.044c1.667-2.015,3.64-3.545,5.877-4.76
		c0.478-0.26,0.473,0.111,0.553,0.348c0.69,2.053,1.369,4.108,2.079,6.248c1.007-0.604,1.975-1.169,2.925-1.764
		c0.333-0.209,0.506-0.196,0.771,0.144c0.594,0.764,0.867,1.507,0.541,2.501c-0.372,1.133-0.57,2.323-0.852,3.52
		c-0.73-2.82-1.884-3.751-4.615-3.751c-1.02-0.001-2.042-0.025-3.061,0.009c-0.573,0.02-0.972-0.096-1.329-0.623
		C21.306,49.931,20.285,49.387,19.083,49.044z"/>
	<path fill-rule="evenodd" clip-rule="evenodd" fill="#CBD0D8" d="M77.336,19.189c0-2.766,0.015-5.533-0.013-8.298
		c-0.006-0.529,0.14-0.664,0.663-0.662c1.93,0.009,1.93-0.012,1.93,1.879c0,5.157-0.011,10.313,0.017,15.469
		c0.003,0.606-0.147,0.755-0.747,0.744c-1.85-0.034-1.85-0.006-1.85-1.881C77.336,24.023,77.336,21.606,77.336,19.189z"/>
	<path fill-rule="evenodd" clip-rule="evenodd" fill="#EFCFB3" d="M66.596,30.886c-0.403,0-0.819-0.066-1.207,0.012
		c-1.409,0.284-2.317-0.453-3.133-1.438c-0.495-0.597-0.596-2.612-0.136-3.215c0.261-0.34,0.612-0.516,1.043-0.517
		c1.692-0.002,3.384-0.017,5.076,0.005c0.847,0.011,1.332,0.515,1.349,1.374c0.022,1.101-0.012,2.203,0.016,3.304
		c0.01,0.407-0.142,0.493-0.511,0.482C68.261,30.87,67.428,30.886,66.596,30.886z"/>
	<path fill-rule="evenodd" clip-rule="evenodd" fill="#EFCFB3" d="M16.62,56.689c-0.805-0.001-1.611,0.016-2.416-0.006
		c-0.856-0.022-1.338-0.505-1.373-1.352c-0.019-0.455-0.022-0.914,0.003-1.368c0.076-1.322,1.122-2.372,2.449-2.424
		c0.938-0.037,1.879-0.036,2.817-0.001c1.324,0.05,2.412,1.099,2.451,2.417c0.057,1.98,0.307,2.901-2.564,2.737
		C17.534,56.667,17.076,56.689,16.62,56.689z"/>
	<path fill-rule="evenodd" clip-rule="evenodd" fill="#FDC629" d="M32.441,44.963c-1.179,0.707-2.268,1.361-3.41,2.047
		c-0.411-1.22-0.803-2.374-1.188-3.53c-0.058-0.176-0.122-0.396,0.134-0.466c0.664-0.18,1.289-0.603,1.994,0.056
		C30.703,43.754,31.564,44.302,32.441,44.963z"/>
	<path fill-rule="evenodd" clip-rule="evenodd" fill="#FDC629" d="M40.49,47.008c-1.165-0.698-2.239-1.342-3.422-2.051
		c1.013-0.757,1.926-1.539,2.941-2.151c0.48-0.29,1.071,0.161,1.541,0.397c0.38,0.192,0.005,0.58-0.076,0.851
		C41.184,45.022,40.839,45.976,40.49,47.008z"/>
	<path fill-rule="evenodd" clip-rule="evenodd" fill="#F96D50" d="M34.769,48.949c-0.489,0.001-1.463-0.884-1.468-1.333
		c-0.002-0.186,1.25-1.042,1.486-0.946c0.532,0.215,1.155,0.402,1.409,0.944C36.362,47.968,35.243,48.948,34.769,48.949z"/>
	<path fill-rule="evenodd" clip-rule="evenodd" fill="#F4D06C" d="M30.921,70.769c0.157,0.174,0.228,0.246,0.292,0.325
		c0.251,0.312,0.5,0.625,0.753,0.943C30.841,72.365,30.841,72.365,30.921,70.769z"/>
	<path fill-rule="evenodd" clip-rule="evenodd" d="M40.766,23.004c-0.307-0.225-0.614-0.4-0.86-0.639
		c-0.906-0.88-0.898-0.889-0.022-1.765c0.952-0.951,0.952-0.951,1.886-0.017c0.739,0.739,1.466,1.49,2.223,2.21
		c0.279,0.267,0.283,0.428,0.003,0.7c-0.945,0.912-1.875,1.839-2.784,2.786c-0.303,0.316-0.514,0.303-0.755-0.025
		c-0.016-0.021-0.038-0.038-0.057-0.057c-0.429-0.441-1.129-0.835-1.215-1.335c-0.093-0.543,0.74-0.873,1.117-1.342
		C40.398,23.399,40.508,23.29,40.766,23.004z"/>
	<path fill-rule="evenodd" clip-rule="evenodd" d="M13.871,66.03c0.28,0.348,0.566,0.667,0.814,1.015
		c0.484,0.679,0.882,0.655,1.451,0.022c0.965-1.075,2.047-2.045,3.045-3.093c0.353-0.37,0.552-0.41,0.937-0.021
		c1.372,1.385,1.389,1.368,0.009,2.748c-1.44,1.44-2.891,2.87-4.312,4.329c-0.323,0.331-0.502,0.322-0.815-0.006
		c-0.888-0.93-1.8-1.838-2.729-2.728c-0.313-0.3-0.288-0.488,0.018-0.759c0.4-0.355,0.762-0.754,1.144-1.13
		C13.522,66.317,13.625,66.239,13.871,66.03z"/>
</g>
</svg>
