<?xml version="1.0" encoding="utf-8"?>
<!-- Generator: Adobe Illustrator 16.0.2, SVG Export Plug-In . SVG Version: 6.00 Build 0)  -->
<!DOCTYPE svg PUBLIC "-//W3C//DTD SVG 1.1 Tiny//EN" "http://www.w3.org/Graphics/SVG/1.1/DTD/svg11-tiny.dtd">
<svg version="1.1" baseProfile="tiny" id="Layer_1" xmlns="http://www.w3.org/2000/svg" xmlns:xlink="http://www.w3.org/1999/xlink"
	 x="0px" y="0px" width="85px" height="85px" viewBox="0 0 85 85" xml:space="preserve">
<g>
	<path fill-rule="evenodd" d="M15.392,49.121c0.106-0.838-0.048-1.617,0.154-2.387c0.68-2.585,3.566-3.754,5.807-2.307
		c0.386,0.249,0.62,0.294,1.025,0.014c1.12-0.771,2.347-0.849,3.596-0.311c0.285,0.123,0.502,0.22,0.804-0.004
		c2.542-1.893,5.474-2.903,8.507-3.643c0.749-0.182,1.102-0.522,1.259-1.276c0.342-1.635,0.371-1.612-1.048-2.437
		c-3.09-1.799-5.246-4.384-6.392-7.778c-0.173-0.511-0.373-0.725-0.94-0.689c-0.69,0.043-1.39,0.078-2.081-0.109
		c-1.532-0.415-2.665-1.656-2.892-3.216c-0.218-1.491,0.5-3.079,1.883-3.795c0.602-0.312,0.674-0.676,0.677-1.245
		c0.012-2.276-0.144-4.558,0.447-6.808C27.807,7.009,33.375,2.589,39.692,2.55c2.468-0.016,4.941-0.161,7.405,0.134
		c6.039,0.723,11.293,6,12.026,12.044c0.219,1.798,0.111,3.595,0.13,5.392c0.006,0.473,0.098,0.738,0.565,0.98
		c1.559,0.803,2.319,2.559,1.915,4.21c-0.425,1.741-1.871,3.07-3.622,2.964c-1.472-0.088-2.106,0.351-2.654,1.776
		c-1.247,3.247-3.613,5.604-6.754,7.131c-0.512,0.249-0.538,0.492-0.489,1.032c0.143,1.613,1.024,2.205,2.536,2.568
		c6.345,1.529,11.104,5.182,14.085,11.034c1.473,2.892,2.168,5.984,2.168,9.231c-0.002,6.017,0.012,12.034-0.02,18.052
		c-0.003,0.684,0.177,0.82,0.834,0.815c4.646-0.031,9.294-0.003,13.941-0.033c0.621-0.004,0.742,0.17,0.731,0.753
		c-0.033,1.843-0.007,1.843-1.881,1.843c-25.708,0-51.415-0.005-77.123,0.022c-0.837,0.001-1.006-0.225-0.975-1.004
		c0.064-1.596,0.02-1.598,1.646-1.598c7.763,0,15.527-0.013,23.291,0.021c0.766,0.004,0.894-0.23,0.887-0.925
		c-0.035-3.544-0.016-7.09-0.016-10.619c-0.23-0.191-0.365,0.027-0.515,0.092c-3.729,1.607-7.583,1.729-11.274,0.224
		c-3.998-1.63-6.07-4.893-6.247-9.241c-0.081-1.985,0.103-3.983-0.045-5.96C10.033,50.748,12.221,48.315,15.392,49.121z"/>
	<path fill-rule="evenodd" fill="#4FC0E8" d="M28.32,52.202c0-1.358,0.001-2.64,0-3.921c0-0.322,0.083-0.683-0.031-0.96
		c-0.371-0.905,0.14-1.28,0.818-1.677c1.069-0.622,2.172-1.161,3.318-1.624c0.535-0.216,0.825-0.2,1.06,0.429
		c0.459,1.227,0.968,2.439,1.78,3.5c4.105,5.356,12.436,4.546,15.408-1.512c0.329-0.673,0.626-1.365,0.891-2.066
		c0.173-0.459,0.355-0.617,0.872-0.412c6.298,2.484,10.198,7.012,11.657,13.626c0.272,1.235,0.349,2.495,0.34,3.763
		c-0.003,0.375-0.096,0.511-0.493,0.507c-2.255-0.017-4.512-0.011-6.769-0.004c-0.308,0.002-0.493-0.03-0.491-0.421
		c0.018-2.599-0.209-5.227,0.994-7.666c0.142-0.288,0.095-0.436-0.188-0.556c-0.271-0.115-0.53-0.255-0.795-0.386
		c-1.217-0.606-1.223-0.609-1.71,0.699c-0.597,1.601-0.878,3.255-0.876,4.964c0.009,6.851-0.007,13.699,0.02,20.549
		c0.003,0.684-0.127,0.889-0.859,0.884c-7.198-0.032-14.397-0.027-21.596-0.004c-0.637,0.002-0.79-0.167-0.785-0.792
		c0.028-4.136,0.021-8.273,0.006-12.409c-0.002-0.46,0.131-0.807,0.413-1.165c1.403-1.787,2.125-3.835,2.165-6.105
		c0.03-1.718,0.019-3.438,0.007-5.157c-0.012-1.857-1.429-3.026-3.266-2.71C29.578,51.685,28.985,51.92,28.32,52.202z"/>
	<path fill-rule="evenodd" fill="#EFCFB3" d="M43.302,13.987c3.192,1.439,6.375,2.901,9.584,4.301
		c0.892,0.389,1.28,0.932,1.233,1.904c-0.114,2.325,0.207,4.669-0.333,6.977c-1.266,5.402-6.303,9.145-11.96,8.875
		c-5.389-0.256-10.072-4.52-10.778-9.89c-0.354-2.695-0.178-5.417-0.11-8.121c0.051-2.027,2.266-3.184,4.167-2.274
		c2.101,1.005,4.181,2.055,6.249,3.125c0.478,0.247,0.645,0.156,0.87-0.303c0.85-1.731,0.865-1.719-0.886-2.602
		c-1.218-0.614-2.43-1.238-3.645-1.858c0.021-0.342,0.304-0.357,0.526-0.366c1.528-0.06,3.057-0.064,4.585,0
		C42.994,13.765,43.174,13.828,43.302,13.987z"/>
	<path fill-rule="evenodd" fill="#656D78" d="M43.302,13.987c-1.664,0.007-3.328,0.011-4.992,0.023
		c-0.208,0.002-0.433-0.045-0.617,0.111c-0.876-0.322-1.645-0.892-2.569-1.104c-2.878-0.659-5.526,0.799-6.523,3.596
		c-0.052,0.146-0.112,0.288-0.183,0.468c-0.266-1.612,0.244-4.042,1.331-5.916c2.25-3.882,5.632-5.961,10.134-6.035
		c2.329-0.038,4.666-0.159,6.994,0.128c4.751,0.585,9.07,4.922,9.675,9.679c0.157,1.234,0.108,2.461,0.074,3.758
		c-0.579-2.059-2.364-2.618-4.012-3.347c-2.573-1.139-5.149-2.273-7.715-3.429c-0.418-0.188-0.655-0.217-0.83,0.297
		C43.861,12.824,43.561,13.398,43.302,13.987z"/>
	<path fill-rule="evenodd" fill="#EFCFB3" d="M30.899,57.331c-0.031,1.273,0.093,2.67-0.299,4.042
		c-0.916,3.207-3.831,5.546-7.16,5.61c-1.629,0.03-3.27,0.18-4.884-0.266c-3.294-0.91-5.637-3.845-5.697-7.255
		c-0.038-2.147-0.017-4.296-0.008-6.445c0.003-0.896,0.492-1.456,1.246-1.481c0.784-0.025,1.316,0.556,1.327,1.482
		c0.012,1.021,0.032,2.042-0.01,3.062c-0.02,0.5,0.124,0.626,0.622,0.621c3.007-0.024,6.016-0.017,9.023-0.001
		c0.223,0.001,0.564-0.207,0.675,0.189c0.099,0.357-0.158,0.519-0.417,0.687c-0.788,0.511-1.556,1.051-2.351,1.55
		c-0.377,0.237-0.513,0.399-0.208,0.854c1.116,1.667,1.093,1.683,2.756,0.564c0.668-0.448,1.309-0.947,2.015-1.327
		c0.661-0.355,0.857-0.83,0.808-1.547c-0.05-0.713-0.11-1.449,0.262-2.128c0.184-0.335,0.395-0.646,0.701-0.869
		c0.438-0.318,0.97-0.705,1.46-0.493c0.355,0.152,0.111,0.772,0.132,1.182C30.921,55.978,30.899,56.597,30.899,57.331z"/>
	<path fill-rule="evenodd" fill="#EFCFB3" d="M64.423,72.162c0,2.36-0.016,4.724,0.014,7.085c0.006,0.523-0.129,0.672-0.66,0.665
		c-2.146-0.032-4.294-0.032-6.441-0.001c-0.528,0.008-0.662-0.138-0.66-0.662c0.021-4.724,0.021-9.448,0-14.173
		c-0.002-0.522,0.129-0.671,0.658-0.663c2.148,0.03,4.296,0.03,6.442,0c0.528-0.008,0.667,0.137,0.661,0.663
		C64.407,67.438,64.423,69.8,64.423,72.162z"/>
	<path fill-rule="evenodd" fill="#EFCFB3" d="M42.736,43.791c-1.741,0.006-3.656-1.381-3.92-2.777
		c-0.119-0.631,0.283-1.241,0.371-1.875c0.087-0.633,0.263-0.889,1.028-0.717c1.583,0.353,3.206,0.31,4.796-0.032
		c0.505-0.11,0.694,0.012,0.736,0.5c0.018,0.211,0.063,0.433,0.157,0.622c0.559,1.131,0.135,2.03-0.604,2.904
		C44.563,43.291,43.65,43.752,42.736,43.791z"/>
	<path fill-rule="evenodd" fill="#EFCFB3" d="M20.583,50.71c0,0.966-0.015,1.934,0.007,2.899c0.008,0.368-0.081,0.494-0.481,0.513
		c-2.105,0.096-2.105,0.108-2.105-1.943c0-1.424-0.006-2.846,0.002-4.269c0.006-0.95,0.495-1.524,1.277-1.532
		c0.786-0.006,1.288,0.569,1.298,1.513C20.591,48.831,20.583,49.771,20.583,50.71z"/>
	<path fill-rule="evenodd" fill="#EFCFB3" d="M23.162,50.656c0-0.938-0.01-1.88,0.003-2.818c0.013-0.889,0.512-1.448,1.268-1.46
		c0.759-0.011,1.296,0.55,1.303,1.424c0.014,1.933-0.01,3.866,0.016,5.798c0.006,0.454-0.164,0.513-0.558,0.521
		c-2.033,0.044-2.032,0.057-2.032-1.933C23.162,51.677,23.162,51.166,23.162,50.656z"/>
	<path fill-rule="evenodd" fill="#EECEB3" d="M28.322,24.583c-0.202,0.355,0.55,1.239-0.674,1.176
		c-1.283-0.065-1.907-0.432-1.902-1.314c0.004-0.804,0.587-1.271,1.597-1.282C28.309,23.154,28.309,23.154,28.322,24.583z"/>
	<path fill-rule="evenodd" fill="#EECEB3" d="M57.398,25.744c-0.604,0.155-0.853-0.117-0.724-0.789
		c0.029-0.155-0.011-0.323,0.014-0.479c0.089-0.563-0.414-1.449,0.86-1.332c1.114,0.103,1.736,0.5,1.712,1.347
		c-0.023,0.798-0.603,1.245-1.626,1.254C57.58,25.744,57.526,25.744,57.398,25.744z"/>
	<path fill-rule="evenodd" fill="#3BAED8" d="M41.214,48.781c-1.014-0.168-1.833-0.591-2.611-1.12
		c-0.329-0.224-0.359-0.415-0.048-0.676c0.204-0.17,0.43-0.345,0.562-0.567c0.523-0.883,1.187-0.492,1.854-0.256
		c0.236,0.084,0.245,0.241,0.244,0.435C41.212,47.313,41.214,48.027,41.214,48.781z"/>
	<path fill-rule="evenodd" fill="#3BAED8" d="M43.792,48.791c0-0.737,0.006-1.427-0.003-2.115c-0.003-0.256,0.002-0.515,0.325-0.529
		c0.444-0.019,0.814-0.605,1.313-0.176c0.101,0.087,0.189,0.188,0.284,0.281c1.25,1.243,1.249,1.259-0.341,2.023
		C44.893,48.506,44.396,48.69,43.792,48.791z"/>
	<path fill-rule="evenodd" fill="#3AACD6" d="M36.594,45.186c-0.235-0.538-0.48-1.062-0.69-1.599
		c-0.071-0.184-0.371-0.453-0.006-0.586c0.332-0.123,0.711-0.47,1.074-0.024c0.017,0.02,0.027,0.046,0.043,0.066
		C37.878,44.102,37.851,44.258,36.594,45.186z"/>
	<path fill-rule="evenodd" fill="#3AACD6" d="M48.397,45.236c-0.181-0.156-0.283-0.237-0.377-0.328
		c-0.756-0.729-0.729-1.392,0.097-2.024c0.366-0.281,0.719-0.003,1.033,0.13c0.296,0.125,0.034,0.37-0.033,0.539
		C48.901,44.095,48.661,44.627,48.397,45.236z"/>
	<path fill-rule="evenodd" d="M46.371,29.001c0.223,3.033-2.093,4.524-3.936,4.479c-2-0.048-3.689-1.65-3.79-3.65
		c-0.027-0.535-0.027-1.073-0.002-1.608c0.06-1.363,1.114-2.416,2.48-2.472c0.669-0.027,1.34-0.007,2.01-0.007
		C45.489,25.743,46.372,26.632,46.371,29.001z"/>
	<path fill-rule="evenodd" fill="#020202" d="M38.631,21.909c-0.02,0.693-0.608,1.26-1.301,1.251
		c-0.726-0.009-1.312-0.637-1.269-1.361c0.042-0.696,0.644-1.241,1.338-1.21C38.094,20.62,38.65,21.216,38.631,21.909z"/>
	<path fill-rule="evenodd" fill="#020202" d="M47.675,20.589c0.695,0.008,1.268,0.584,1.271,1.279
		c0.003,0.725-0.619,1.324-1.34,1.292c-0.695-0.031-1.249-0.626-1.231-1.321C46.396,21.142,46.978,20.582,47.675,20.589z"/>
	<path fill-rule="evenodd" fill="#ED7284" d="M42.491,28.311c0.588,0.101,1.439-0.376,1.324,0.856
		c-0.104,1.125-0.492,1.748-1.339,1.729c-0.84-0.019-1.196-0.623-1.28-1.783C41.103,27.825,42.046,28.508,42.491,28.311z"/>
</g>
</svg>
