<?xml version="1.0" encoding="utf-8"?>
<!-- Generator: Adobe Illustrator 16.0.2, SVG Export Plug-In . SVG Version: 6.00 Build 0)  -->
<!DOCTYPE svg PUBLIC "-//W3C//DTD SVG 1.1//EN" "http://www.w3.org/Graphics/SVG/1.1/DTD/svg11.dtd">
<svg version="1.1" id="Layer_1" xmlns="http://www.w3.org/2000/svg" xmlns:xlink="http://www.w3.org/1999/xlink" x="0px" y="0px"
	 width="85px" height="85px" viewBox="0 0 85 85" enable-background="new 0 0 85 85" xml:space="preserve">
<g>
	<path fill="#80C683" d="M77.1,82.5c-0.098-2.236,0.002-4.475-0.111-6.713c-0.385-7.684-2.98-14.527-7.814-20.488
		c-5.527-6.814-12.672-10.979-21.293-12.596c-0.969-0.182-1.961-0.234-2.938-0.375c-0.521-0.074-0.674,0.109-0.668,0.625
		c0.023,2.109,0.01,4.219,0.01,6.328c0,0.252,0,0.506,0,0.943c-1.158-1-2.196-1.889-3.221-2.785
		C34.191,41.42,27.32,35.4,20.447,29.381c-0.744-0.652-1.48-1.313-2.242-1.943c-0.35-0.29-0.348-0.482-0.002-0.783
		c3.828-3.334,7.645-6.679,11.465-10.02c4.408-3.854,8.816-7.708,13.227-11.561c0.411-0.359,0.825-0.715,1.239-1.072
		c0.273,0.143,0.146,0.377,0.146,0.556c0.012,2.108,0.002,4.218,0.01,6.327c0.004,1.13-0.135,1.018,0.982,1.02
		c2.969,0.006,5.938-0.019,8.904,0.006c6.168,0.053,11.801,1.793,16.732,5.537c6.156,4.67,9.82,10.84,10.908,18.514
		c0.197,1.395,0.279,2.793,0.279,4.199c-0.002,14.113,0.002,28.225,0.006,42.336C80.434,82.5,78.768,82.5,77.1,82.5z"/>
	<path fill="#439F47" d="M30.068,2.5c0.977,1.109,1.939,2.229,2.936,3.32c0.287,0.316,0.328,0.486-0.027,0.789
		c-0.988,0.844-1.949,1.721-2.896,2.61c-0.33,0.31-0.533,0.364-0.863-0.024c-0.838-0.992-1.715-1.955-2.604-2.902
		c-0.303-0.322-0.285-0.5,0.039-0.795c1.09-0.995,2.256-1.91,3.26-2.998C29.964,2.5,30.017,2.5,30.068,2.5z"/>
	<path fill="#439F47" d="M33.337,47.865c-0.113,0.137-0.207,0.256-0.307,0.369c-0.852,0.949-1.73,1.877-2.547,2.854
		c-0.369,0.441-0.584,0.459-1.02,0.063c-3.193-2.91-6.416-5.791-9.627-8.684c-5.535-4.98-11.059-9.973-16.611-14.934
		c-0.48-0.431-0.396-0.601,0.02-0.972c3.785-3.384,7.555-6.782,11.314-10.194c0.361-0.328,0.543-0.311,0.855,0.056
		c0.828,0.97,1.684,1.918,2.564,2.839c0.363,0.38,0.301,0.581-0.068,0.908c-2.375,2.107-4.721,4.248-7.102,6.352
		c-0.457,0.405-0.49,0.617-0.01,1.047c7.328,6.568,14.639,13.156,21.953,19.74C32.947,47.482,33.128,47.666,33.337,47.865z"/>
	<path fill="#439F47" d="M22.017,16.375c-0.098-0.152-0.178-0.323-0.297-0.457c-0.863-0.971-1.721-1.949-2.613-2.893
		c-0.32-0.34-0.25-0.521,0.064-0.796c1-0.87,1.988-1.755,2.955-2.661c0.307-0.287,0.471-0.248,0.73,0.049
		c0.887,1.02,1.803,2.015,2.705,3.021c0.148,0.167,0.373,0.312,0.084,0.567c-1.09,0.967-2.168,1.945-3.252,2.916
		C22.32,16.188,22.23,16.232,22.017,16.375z"/>
</g>
</svg>
