<?xml version="1.0" encoding="utf-8"?>
<!-- Generator: Adobe Illustrator 16.0.0, SVG Export Plug-In . SVG Version: 6.00 Build 0)  -->
<!DOCTYPE svg PUBLIC "-//W3C//DTD SVG 1.1//EN" "http://www.w3.org/Graphics/SVG/1.1/DTD/svg11.dtd">
<svg version="1.1" id="Layer_1" xmlns="http://www.w3.org/2000/svg" xmlns:xlink="http://www.w3.org/1999/xlink" x="0px" y="0px"
	 width="85px" height="85px" viewBox="0 0 85 85" enable-background="new 0 0 85 85" xml:space="preserve">
<g>
	<path fill="#4D4D4D" d="M43.566,23.516c0,9.039-13.538,44.641-18.217,56.68c-0.559,1.434-2.582,1.434-3.141,0
		C17.529,68.156,3.99,32.555,3.99,23.516c0-10.93,8.859-19.788,19.789-19.788C34.707,3.728,43.566,12.588,43.566,23.516z"/>
	<path fill="#666666" d="M36.705,8.555c3,3.47,4.826,7.979,4.826,12.927c0,9.039-13.537,44.642-18.219,56.681
		c-0.266,0.684-0.865,1.031-1.48,1.061c0.129,0.336,0.258,0.668,0.377,0.975c0.557,1.434,2.582,1.434,3.139,0
		c4.682-12.039,18.219-47.643,18.219-56.681C43.566,17.533,40.9,12.184,36.705,8.555z"/>
	<path fill="#333333" d="M11.185,8.555c-3,3.47-4.826,7.979-4.826,12.927c0,9.039,13.539,44.642,18.219,56.681
		c0.266,0.684,0.865,1.031,1.48,1.061c-0.131,0.336-0.258,0.668-0.377,0.975c-0.559,1.434-2.582,1.434-3.139,0
		C17.861,68.158,4.324,32.555,4.324,23.517C4.324,17.533,6.99,12.184,11.185,8.555z"/>
	<path fill="#4D4D4D" d="M81.084,61.482c0-9.037-13.539-44.641-18.219-56.68c-0.559-1.434-2.582-1.434-3.141,0
		c-4.68,12.039-18.219,47.643-18.219,56.68c0,10.93,8.86,19.789,19.79,19.789C72.223,81.271,81.084,72.412,81.084,61.482z"/>
	<path fill="#666666" d="M74.221,76.445c3-3.471,4.826-7.98,4.826-12.926c0-9.041-13.537-44.643-18.219-56.682
		c-0.266-0.684-0.865-1.031-1.48-1.062c0.131-0.335,0.26-0.667,0.379-0.973c0.557-1.434,2.58-1.434,3.139,0
		c4.68,12.039,18.219,47.643,18.219,56.682C81.084,67.465,78.418,72.816,74.221,76.445z"/>
	<path fill="#F7931E" d="M69.961,62.504c0,4.834-3.92,8.754-8.754,8.754l0,0c-4.836,0-8.754-3.92-8.754-8.754V47.496
		c0-4.834,3.918-8.754,8.754-8.754l0,0c4.834,0,8.754,3.92,8.754,8.754v6.254"/>
	<path fill="#F15A24" d="M54.885,65.004V49.998c0-4.834,3.953-8.754,8.787-8.754c1.777,0,3.447,0.533,4.826,1.443
		c-1.562-2.375-4.256-3.944-7.312-3.944c-4.834,0-8.758,3.919-8.758,8.755v15.006c0,3.057,1.549,5.746,3.924,7.311
		C55.441,68.434,54.885,66.783,54.885,65.004z"/>
	<path fill="#333333" d="M48.703,76.445c-3-3.471-4.828-7.98-4.828-12.926c0-9.041,13.539-44.643,18.219-56.682
		c0.268-0.684,0.867-1.031,1.482-1.062c-0.131-0.335-0.26-0.667-0.379-0.973c-0.557-1.434-2.58-1.434-3.139,0
		c-4.682,12.039-18.219,47.643-18.219,56.682C41.839,67.465,44.506,72.816,48.703,76.445z"/>
	<path fill="#999999" d="M43.188,26.236c-3.893-6.729-11.167-11.254-19.499-11.254S8.083,19.51,4.191,26.237l2.166,7.503
		c3.459-5.98,9.926-10.004,17.332-10.004c7.533,0,14.094,4.162,17.506,10.312L43.188,26.236z"/>
	<path fill="#808080" d="M23.689,14.982c-8.332,0-15.605,4.527-19.498,11.255l2.166,7.503c3.459-5.98,9.926-10.004,17.332-10.004"/>
	<path d="M61.207,72.486c-5.504,0-9.98-4.479-9.98-9.982V47.498c0-5.504,4.477-9.981,9.98-9.981c5.502,0,9.982,4.478,9.982,9.981
		v6.252h-2.457v-6.252c0-4.149-3.377-7.525-7.525-7.525s-7.525,3.376-7.525,7.525v15.006c0,4.15,3.377,7.525,7.525,7.525
		s7.525-3.375,7.525-7.525h2.457C71.189,68.008,66.711,72.486,61.207,72.486z"/>
	<path fill="#FFFFFF" d="M57.432,47.493h-2.455c0-3.438,2.855-6.227,6.295-6.227v2.456C59.143,43.723,57.432,45.364,57.432,47.493z"
		/>
	<g>
		<rect x="68.639" y="58.791" fill="#C7B299" width="2.455" height="2.455"/>
		<rect x="68.639" y="55.025" fill="#C7B299" width="2.455" height="2.455"/>
	</g>
	<circle fill="#FFFFFF" cx="63.707" cy="63.753" r="2.501"/>
	<path d="M63.707,67.482c-2.055,0-3.729-1.672-3.729-3.729c0-2.055,1.674-3.729,3.729-3.729c2.059,0,3.73,1.674,3.73,3.729
		C67.438,65.811,65.764,67.482,63.707,67.482z M63.707,62.48c-0.701,0-1.271,0.572-1.271,1.273s0.57,1.273,1.271,1.273
		c0.703,0,1.273-0.572,1.273-1.273S64.41,62.48,63.707,62.48z"/>
	<g>
		<rect x="17.388" y="57.645" fill="#FFFFFF" width="2.619" height="2.457"/>
		<rect x="20.007" y="53.715" fill="#FFFFFF" width="2.457" height="2.457"/>
		<rect x="22.464" y="58.791" fill="#FFFFFF" width="2.455" height="2.455"/>
		<rect x="54.883" y="27.518" fill="#FFFFFF" width="2.457" height="2.455"/>
		<rect x="61.271" y="31.283" fill="#FFFFFF" width="2.455" height="2.456"/>
	</g>
	<path d="M63.936,4.358C63.496,3.229,62.432,2.5,61.223,2.5l0,0c-1.211,0-2.275,0.729-2.717,1.857
		c-5.502,14.154-18.301,48.055-18.301,57.125c0,11.59,9.428,21.018,21.018,21.018c11.588,0,21.016-9.428,21.016-21.018
		C82.238,52.412,69.439,18.512,63.936,4.358z M78.287,68.779c-0.168,0.389-0.346,0.771-0.539,1.146h-2.723v2.455h1.209
		c-3.377,4.641-8.85,7.664-15.014,7.664c-7.646,0-14.225-4.648-17.064-11.266h0.904v-2.455h-1.758
		c-0.117-0.432-0.219-0.869-0.305-1.312h3.208v-2.455h-3.512c-0.021-0.354-0.033-0.713-0.033-1.074c0-2.57,1.264-9.312,7.288-26.814
		c3.529-10.256,7.521-20.807,10.012-27.262V17.53h2.457V7.238c1.605,4.156,3.854,10.062,6.203,16.514h-3.584v2.457h4.473
		c1.004,2.78,2.014,5.631,2.986,8.459c6.021,17.502,7.287,24.244,7.287,26.814c0,1.676-0.227,3.297-0.643,4.842h-2.807v2.455H78.287
		L78.287,68.779z"/>
	<path d="M23.779,2.5c-11.588,0-21.017,9.428-21.017,21.016c0,9.07,12.799,42.971,18.302,57.125
		c0.439,1.129,1.504,1.857,2.715,1.857c1.209,0,2.273-0.729,2.713-1.857c5.504-14.154,18.303-48.055,18.303-57.125
		C44.795,11.928,35.367,2.5,23.779,2.5z M23.779,4.955c9.99,0,18.162,7.937,18.543,17.836c-4.465-5.643-11.336-9.037-18.633-9.037
		c-7.195,0-13.978,3.301-18.447,8.803C5.742,12.768,13.865,4.955,23.779,4.955z M38.109,41.107h-3.201v2.456h2.412
		c-0.156,0.479-0.318,0.973-0.482,1.474h-5.531v2.456h4.711c-0.309,0.914-0.629,1.856-0.967,2.839
		C31.464,60.75,27.402,71.477,24.919,77.9V67.469h-2.455v9.988c-2.496-6.469-6.455-16.943-9.959-27.125
		c-0.848-2.465-1.602-4.714-2.27-6.77h0.93v-2.456H9.447c-0.271-0.856-0.525-1.675-0.765-2.456h6.25v-2.456H7.945
		c-0.188-0.642-0.363-1.256-0.529-1.842l0.004,0.002c3.352-5.793,9.584-9.392,16.27-9.392c6.793,0,13.062,3.678,16.389,9.604
		C39.546,36.453,38.896,38.621,38.109,41.107z M40.943,31.364c-0.355-0.495-0.729-0.974-1.123-1.433v-3.725h-2.455V27.5
		c-3.465-2.914-7.818-4.685-12.445-4.953v-1.252h-2.455v1.252c-2.631,0.152-5.182,0.795-7.532,1.861V22.44h-2.456v3.28
		c-2.277,1.416-4.291,3.265-5.908,5.463c-0.504-1.989-0.836-3.551-1.045-4.779c0.182-0.298,0.371-0.592,0.567-0.879v0.682h2.456
		v-3.66c1.844-1.861,4.013-3.367,6.386-4.44v0.567h2.456v-1.502c2.016-0.627,4.137-0.961,6.301-0.961
		c1.305,0,2.592,0.123,3.852,0.356v3.417h2.455v-2.811c0.838,0.263,1.66,0.574,2.457,0.936v4.332h2.457V19.42
		c2.865,1.777,5.312,4.234,7.084,7.215C41.777,27.863,41.441,29.412,40.943,31.364z"/>
</g>
</svg>
