<?xml version="1.0" encoding="utf-8"?>
<!-- Generator: Adobe Illustrator 16.0.0, SVG Export Plug-In . SVG Version: 6.00 Build 0)  -->
<!DOCTYPE svg PUBLIC "-//W3C//DTD SVG 1.1//EN" "http://www.w3.org/Graphics/SVG/1.1/DTD/svg11.dtd">
<svg version="1.1" id="Layer_1" xmlns="http://www.w3.org/2000/svg" xmlns:xlink="http://www.w3.org/1999/xlink" x="0px" y="0px"
	 width="85px" height="85px" viewBox="0 0 85 85" enable-background="new 0 0 85 85" xml:space="preserve">
<g>
	<path fill="#4F5760" d="M9.724,65.473V19.53h65.553v45.943H68.72V26.085H16.278v39.387H9.724z"/>
	<path fill="#010101" d="M81.829,66.141H3.167c-0.369,0-0.668-0.299-0.668-0.668c0-0.371,0.299-0.67,0.668-0.67h5.885V19.529
		c0-0.091,0.02-0.178,0.053-0.257c0.031-0.078,0.08-0.151,0.145-0.216c0.062-0.063,0.137-0.111,0.213-0.145
		c0.08-0.033,0.168-0.053,0.26-0.053h26.221c0.371,0,0.67,0.3,0.67,0.669c0,0.37-0.301,0.67-0.67,0.67H11.337l5.414,5.412
		c0.26,0.263,0.26,0.687,0,0.947c-0.262,0.261-0.686,0.261-0.947,0l-5.412-5.413v43.657h5.215v-5.885c0-0.371,0.301-0.67,0.67-0.67
		c0.371,0,0.67,0.299,0.67,0.67v5.885h5.217V53.029h-5.887c-0.369,0-0.67-0.299-0.67-0.67c0-0.369,0.301-0.67,0.67-0.67h5.887
		v-5.215h-5.887c-0.369,0-0.67-0.301-0.67-0.67c0-0.371,0.301-0.67,0.67-0.67h5.887v-5.215h-5.887c-0.369,0-0.67-0.301-0.67-0.669
		c0-0.37,0.301-0.671,0.67-0.671h5.887v-5.217h-5.887c-0.369,0-0.67-0.3-0.67-0.669c0-0.37,0.301-0.67,0.67-0.67h5.887v-5.94
		c0-0.37,0.299-0.671,0.668-0.671c0.371,0,0.67,0.301,0.67,0.671v5.94h5.215v-5.94c0-0.37,0.301-0.671,0.67-0.671
		s0.67,0.301,0.67,0.671v5.94h5.217v-5.94c0-0.37,0.299-0.671,0.668-0.671s0.67,0.301,0.67,0.671v5.94h5.215v-5.94
		c0-0.37,0.299-0.671,0.668-0.671c0.371,0,0.67,0.301,0.67,0.671v5.94h5.217v-5.94c0-0.37,0.301-0.671,0.67-0.671
		s0.67,0.301,0.67,0.671v5.94h5.217v-5.94c0-0.37,0.299-0.671,0.67-0.671c0.369,0,0.668,0.301,0.668,0.671v5.94h5.217v-5.94
		c0-0.37,0.299-0.671,0.67-0.671c0.369,0,0.668,0.301,0.668,0.671v5.94h5.889c0.367,0,0.668,0.3,0.668,0.67
		c0,0.369-0.301,0.669-0.668,0.669h-5.889v5.217h5.889c0.367,0,0.668,0.301,0.668,0.671c0,0.368-0.301,0.669-0.668,0.669h-5.889
		v5.215h5.889c0.367,0,0.668,0.299,0.668,0.67c0,0.369-0.301,0.67-0.668,0.67h-5.889v5.215h5.889c0.367,0,0.668,0.301,0.668,0.67
		c0,0.371-0.301,0.67-0.668,0.67h-5.889v11.771h5.217v-5.885c0-0.371,0.301-0.67,0.672-0.67c0.367,0,0.668,0.299,0.668,0.67v5.885
		h5.217V21.144l-5.412,5.413c-0.262,0.261-0.686,0.261-0.947,0c-0.262-0.262-0.262-0.686,0-0.947l5.414-5.412H49.054
		c-0.369,0-0.67-0.3-0.67-0.67c0-0.369,0.301-0.669,0.67-0.669h26.223c0.088,0,0.174,0.019,0.25,0.049
		c0.082,0.032,0.156,0.082,0.223,0.147c0.064,0.062,0.111,0.138,0.146,0.216c0,0.001,0,0.001,0,0.002l0,0
		c0.031,0.078,0.051,0.165,0.051,0.255v45.273h5.885c0.369,0,0.67,0.301,0.67,0.67C82.499,65.842,82.198,66.141,81.829,66.141z
		 M56.278,64.803h5.215V53.031h-5.215V64.803z M49.724,64.803h5.217V53.031h-5.217V64.803z M43.167,64.803h5.217V53.031h-5.217
		V64.803z M36.612,64.803h5.215V53.031h-5.215V64.803z M30.058,64.803h5.217V53.031h-5.217V64.803z M23.503,64.803h5.215V53.031
		h-5.215V64.803z M56.278,51.691h5.215v-5.217h-5.215V51.691z M49.724,51.691h5.217v-5.217h-5.217V51.691z M43.167,51.691h5.217
		v-5.217h-5.217V51.691z M36.612,51.691h5.215v-5.217h-5.215V51.691z M30.058,51.691h5.217v-5.217h-5.217V51.691z M23.503,51.691
		h5.215v-5.217h-5.215V51.691z M56.278,45.137h5.215v-5.215h-5.215V45.137z M49.724,45.137h5.217v-5.215h-5.217V45.137z
		 M43.167,45.137h5.217v-5.215h-5.217V45.137z M36.612,45.137h5.215v-5.215h-5.215V45.137z M30.058,45.137h5.217v-5.215h-5.217
		V45.137z M23.503,45.137h5.215v-5.215h-5.215V45.137z M56.278,38.583h5.215v-5.218h-5.215V38.583z M49.724,38.583h5.217v-5.218
		h-5.217V38.583z M43.167,38.583h5.217v-5.218h-5.217V38.583z M36.612,38.583h5.215v-5.218h-5.215V38.583z M30.058,38.583h5.217
		v-5.218h-5.217V38.583z M23.503,38.583h5.215v-5.218h-5.215V38.583z M43.317,20.199h-1.639c-0.369,0-0.67-0.3-0.67-0.67
		c0-0.369,0.301-0.669,0.67-0.669h1.639c0.369,0,0.67,0.3,0.67,0.669C43.987,19.899,43.688,20.199,43.317,20.199z"/>
	<path fill="#010101" d="M68.72,59.588H16.278c-0.369,0-0.67-0.301-0.67-0.67V26.084c0-0.369,0.301-0.669,0.67-0.669H68.72
		c0.369,0,0.668,0.3,0.668,0.669v32.833C69.388,59.287,69.089,59.588,68.72,59.588z M16.946,58.248H68.05V26.754H16.946V58.248z"/>
</g>
</svg>
