<?xml version="1.0" encoding="utf-8"?>
<!-- Generator: Adobe Illustrator 16.0.0, SVG Export Plug-In . SVG Version: 6.00 Build 0)  -->
<!DOCTYPE svg PUBLIC "-//W3C//DTD SVG 1.1//EN" "http://www.w3.org/Graphics/SVG/1.1/DTD/svg11.dtd">
<svg version="1.1" id="Layer_1" xmlns="http://www.w3.org/2000/svg" xmlns:xlink="http://www.w3.org/1999/xlink" x="0px" y="0px"
	 width="85px" height="85px" viewBox="0 0 85 85" enable-background="new 0 0 85 85" xml:space="preserve">
<g>
	<path fill="#F76D57" d="M79.998,40c0,16.57-13.432,30-29.998,30c-13.587,0-25.06-9.037-28.749-21.428L20.948,47.5
		c-0.617-2.396-0.946-4.912-0.946-7.5V27.502h58.752c0.689,0.004,1.244,0.559,1.244,1.25V40z"/>
	<polygon fill="#F9EBB2" points="64.998,40.518 68.748,44.268 68.748,52.5 61.248,52.5 61.248,44.268 	"/>
	<g>
		<path fill="#394240" d="M79.998,25.002H18.751h-1.25h-10c-2.761,0-5,2.238-5,5v10l0.011,0.002H2.501
			C2.502,48.285,9.217,55,17.501,55h3.672C26.593,65.396,37.464,72.5,50,72.5c17.947,0,32.498-14.553,32.498-32.5V27.502
			C82.498,26.119,81.379,25.002,79.998,25.002z M18.382,47.5h-0.88c-4.141,0-7.499-3.357-7.5-7.498V32.5h7.5V40
			C17.502,42.582,17.811,45.09,18.382,47.5z M17.502,52.5c-6.902,0-12.499-5.596-12.5-12.498V30c0-1.381,1.12-2.5,2.5-2.5h10V30
			h-8.75c-0.691,0-1.25,0.559-1.25,1.25V40l0.012,0.002H7.502c0.001,5.521,4.477,9.998,10,9.998h1.575
			c0.274,0.848,0.58,1.682,0.92,2.5H17.502z M79.998,40c0,16.57-13.432,30-29.998,30c-13.587,0-25.06-9.037-28.749-21.428
			L20.948,47.5c-0.617-2.396-0.946-4.912-0.946-7.5V27.502h43.747v10.732l-4.633,4.633c-0.234,0.234-0.367,0.551-0.367,0.883v10
			c0,0.691,0.561,1.25,1.25,1.25h10c0.691,0,1.25-0.559,1.25-1.25v-10c0-0.332-0.131-0.65-0.365-0.883l-4.635-4.633V27.502h12.506
			c0.689,0.004,1.244,0.559,1.244,1.25V40L79.998,40z M64.998,40.518l3.75,3.75V52.5h-7.5v-8.232L64.998,40.518z"/>
		<path fill="#394240" d="M50,14.377c0,2.357-1.281,3.307-1.318,3.334c-0.576,0.385-0.73,1.158-0.346,1.734
			c0.238,0.359,0.637,0.557,1.039,0.557c0.238,0,0.48-0.07,0.693-0.211c0.098-0.066,2.43-1.662,2.43-5.414
			c0-2-0.842-3.049-1.521-3.895C50.41,9.775,50,9.264,50,8.127c0-2.303,1.271-3.299,1.352-3.361
			c0.555-0.395,0.689-1.164,0.299-1.729c-0.393-0.568-1.172-0.707-1.738-0.314C49.814,2.791,47.5,4.443,47.5,8.127
			c0,2.016,0.85,3.072,1.529,3.92C49.613,12.775,50,13.256,50,14.377z"/>
		<path fill="#394240" d="M64.998,14.377c0,2.357-1.279,3.307-1.318,3.334c-0.574,0.385-0.729,1.158-0.346,1.734
			c0.24,0.359,0.639,0.557,1.041,0.557c0.236,0,0.479-0.07,0.691-0.211c0.1-0.066,2.432-1.662,2.432-5.414
			c0-2-0.844-3.049-1.521-3.895c-0.566-0.707-0.979-1.219-0.979-2.355c0-2.303,1.271-3.299,1.352-3.361
			c0.557-0.395,0.691-1.164,0.301-1.729c-0.395-0.568-1.172-0.707-1.74-0.314c-0.098,0.068-2.41,1.721-2.41,5.404
			c0,2.016,0.85,3.072,1.529,3.92C64.613,12.775,64.998,13.256,64.998,14.377z"/>
		<path fill="#394240" d="M35.001,14.377c0,2.357-1.28,3.307-1.319,3.334c-0.574,0.385-0.729,1.158-0.346,1.734
			c0.24,0.359,0.637,0.557,1.041,0.557c0.238,0,0.479-0.07,0.693-0.211c0.099-0.066,2.431-1.662,2.431-5.414
			c0-2-0.843-3.049-1.522-3.895c-0.566-0.707-0.977-1.219-0.977-2.355c0-2.303,1.271-3.299,1.352-3.361
			c0.555-0.395,0.69-1.164,0.299-1.729c-0.394-0.568-1.172-0.707-1.739-0.314c-0.099,0.068-2.411,1.721-2.411,5.404
			c0,2.016,0.85,3.072,1.529,3.92C34.616,12.775,35.001,13.256,35.001,14.377z"/>
		<path fill="#394240" d="M81.248,74.998H18.751c-0.69,0-1.25,0.559-1.25,1.25V77.5c0,2.76,2.237,5,5,5v-0.002h54.997V82.5
			c2.762,0,5-2.24,5-5v-1.252C82.498,75.557,81.939,74.998,81.248,74.998z M79.998,77.5c0,1.381-1.119,2.5-2.5,2.5v-0.002H22.501V80
			c-1.38,0-2.5-1.119-2.5-2.5v-0.002h59.997V77.5z"/>
	</g>
	<g>
		<path fill="#B4CCB9" d="M17.502,50c-5.521,0-9.999-4.479-10-9.998h0.012L7.502,40v-8.75c0-0.691,0.559-1.25,1.25-1.25h8.75v-2.5
			h-10c-1.38,0-2.5,1.119-2.5,2.5v10.002C5.003,46.904,10.6,52.5,17.502,52.5h2.495c-0.34-0.818-0.646-1.652-0.92-2.5H17.502z"/>
		<path fill="#B4CCB9" d="M20.001,77.498V77.5c0,1.381,1.12,2.5,2.5,2.5v-0.002h54.997V80c1.381,0,2.5-1.119,2.5-2.5v-0.002H20.001z
			"/>
	</g>
</g>
</svg>
