<?xml version="1.0" encoding="utf-8"?>
<!-- Generator: Adobe Illustrator 16.0.2, SVG Export Plug-In . SVG Version: 6.00 Build 0)  -->
<!DOCTYPE svg PUBLIC "-//W3C//DTD SVG 1.1 Tiny//EN" "http://www.w3.org/Graphics/SVG/1.1/DTD/svg11-tiny.dtd">
<svg version="1.1" baseProfile="tiny" id="Layer_1" xmlns="http://www.w3.org/2000/svg" xmlns:xlink="http://www.w3.org/1999/xlink"
	 x="0px" y="0px" width="85px" height="85px" viewBox="0 0 85 85" xml:space="preserve">
<g>
	<path fill-rule="evenodd" d="M28.027,81.347c-0.138,0.845-0.667,1.154-1.485,1.153c-5.827-0.009-11.654-0.002-17.482-0.007
		c-0.892-0.001-1.384-0.362-1.41-1.11c-0.114-3.232-0.067-6.447,1.262-9.493c0.572-1.313,1.274-2.547,2.175-3.782
		c-0.936-0.162-1.812-0.274-2.623-0.62c-3.145-1.338-5.083-3.671-5.783-7.025c-0.034-0.161,0.061-0.38-0.179-0.465
		c0-0.104,0-0.209,0-0.313c0.131-0.417,0.131-0.834,0-1.25c0-0.261,0-0.521,0-0.781c0.218-0.846,0.247-1.727,0.637-2.545
		c0.674-1.415,1.595-2.616,2.824-3.576c0.437-0.341,0.519-0.7,0.371-1.221c-1.309-4.592-0.929-9.061,1.092-13.373
		c1.174-2.505,2.861-4.638,4.99-6.409c0.705-0.586,1.263-0.524,2.071,0.172c0.387,0.843,0.337,1.228-0.304,1.889
		c-1.121,1.157-2.301,2.251-3.191,3.624c-1.919,2.961-2.748,6.207-2.644,9.708c0.038,1.265,0.083,1.28,1.185,0.821
		c0.734-0.307,1.488-0.452,2.286-0.379c0.24,0.022,0.551,0.188,0.708-0.119c0.158-0.311,0.017-0.609-0.194-0.862
		c-0.233-0.28-0.516-0.516-0.744-0.8c-0.246-0.306-0.471-0.621-0.519-1.03c-0.122-1.054,0.858-1.794,1.835-1.383
		c0.544,0.229,0.93,0.659,1.333,1.064c1.76,1.77,3.843,3.003,6.22,3.748c0.953,0.298,1,0.263,1.058-0.719
		c0.074-1.275,0.914-1.874,2.066-1.386c4.1,1.736,8.256,1.627,12.456,0.453c0.276-0.076,0.547-0.167,0.833-0.205
		c0.721-0.096,1.317,0.11,1.605,0.81c0.316,0.77,1.08,0.854,1.683,1.149c0.367,0.18,0.353-0.294,0.368-0.51
		c0.077-1.064,0.121-2.137-0.004-3.196c-0.438-3.713-1.909-6.963-4.557-9.622c-3.033-3.044-6.711-4.659-11.024-4.803
		c-2.138-0.072-4.191,0.292-6.196,1.021c-1.203,0.438-1.745,0.271-2.296-0.582c-0.146-1.017,0.024-1.392,0.918-1.813
		c1.717-0.809,3.56-1.191,5.428-1.346c1.655-0.138,3.326-0.104,4.972,0.241c1.051,0.221,1.069,0.201,1.214-0.877
		c0.409-3.047,1.291-5.95,2.723-8.667c3.281-6.224,8.213-10.573,14.832-13.016c2.087-0.771,4.234-1.193,6.433-1.416
		c0.26,0,0.521,0,0.781,0c0.094,0.103,0.219,0.074,0.334,0.08c0.09,0,0.18,0,0.27,0c0.117-0.006,0.24,0.021,0.334-0.08
		c0.729,0,1.459,0,2.188,0c0.104,0.098,0.209,0.098,0.313,0c0.209,0,0.416,0,0.625,0c1.592,0.148,3.18,0.275,4.739,0.686
		c3.175,0.834,6.075,2.226,8.751,4.106c1.012,0.711,1.2,1.219,0.835,2.126c-0.729,0.77-1.317,0.852-2.268,0.211
		c-1.645-1.109-3.343-2.118-5.192-2.843c-3.164-1.241-6.453-1.923-9.846-1.715c-8.872,0.542-15.697,4.547-20.23,12.273
		c-1.603,2.73-2.523,5.695-2.906,8.833c-0.162,1.292-0.167,1.302,0.97,1.853c2.057,0.997,3.878,2.322,5.477,3.948
		c0.415,0.422,0.851,0.612,1.441,0.613c5.148,0.014,10.296-0.004,15.443,0.005c0.286,0,0.572-0.013,0.859,0.008
		c0.77,0.268,1.156,0.737,1.137,1.38c-0.02,0.634-0.481,1.127-1.236,1.317c-0.254,0.064-0.513,0.09-0.773,0.091
		c-4.364,0.001-8.729,0.028-13.095-0.013c-0.129,0.002-0.26,0.002-0.387,0.02c-0.211,0.029-0.545-0.115-0.585,0.2
		c-0.038,0.298,0.209,0.536,0.49,0.63c0.448,0.15,0.923,0.109,1.388,0.11c4.329,0.005,8.659-0.001,12.988,0.002
		c0.807,0.231,1.226,0.717,1.205,1.392c-0.02,0.637-0.475,1.123-1.23,1.316c-0.254,0.064-0.512,0.09-0.771,0.09
		c-3.813,0.001-7.626,0.031-11.438-0.013c-0.128,0.006-0.259,0.017-0.387,0.003c-0.609-0.063-0.707,0.212-0.545,0.744
		c0.583,1.928,0.76,3.903,0.71,5.913c-0.025,0.991-0.148,1.962-0.329,2.93c-0.194,1.041-0.201,1.04,0.733,1.598
		c2.564,1.523,5.348,2.463,8.284,2.867c6.759,0.93,12.933-0.589,18.368-4.752c4.31-3.303,7.158-7.616,8.622-12.865
		c0.587-2.105,0.88-4.251,0.849-6.397c-0.087-5.987-2.048-11.317-6.018-15.854c-0.607-0.695-0.871-1.409-0.351-2.263
		c0.872-0.64,1.476-0.591,2.232,0.244c2.296,2.533,4.001,5.421,5.206,8.621c0.904,2.4,1.398,4.874,1.545,7.426
		c0,0.156,0,0.312,0,0.468c-0.098,0.104-0.098,0.208,0,0.313c0,0.156,0,0.313,0,0.469c-0.131,0.416-0.131,0.833,0,1.25
		c0,0.469,0,0.938,0,1.406c-0.328,0.761-0.306,1.59-0.443,2.386c-1.172,6.804-4.479,12.346-9.856,16.644
		c-4.021,3.211-8.638,5.068-13.739,5.598c-4.3,0.446-8.507-0.101-12.55-1.707c-0.279-0.111-0.541-0.316-0.941-0.223
		c1.679,2.934,1.993,5.968,0.462,8.998c-1.521,3.01-4.034,4.743-7.498,5.136c0.547,0.913,1.101,1.743,1.56,2.623
		c1.3,2.492,1.849,5.17,1.854,7.97c0.001,0.833,0.025,1.668-0.01,2.499c-0.037,0.877-0.466,1.313-1.312,1.317
		c-2.759,0.016-5.52,0.008-8.28,0.005c-0.767-0.001-1.207-0.396-1.333-1.147c-0.088-0.747,0.296-1.229,1.108-1.369
		c0.438-0.075,0.883-0.048,1.325-0.041c0.5,0.008,0.701-0.222,0.691-0.711c-0.013-0.65-0.005-1.302-0.001-1.952
		c0.002-0.287,0.006-0.573,0.089-0.852c0.227-0.765,0.794-1.202,1.475-1.134c0.665,0.066,1.162,0.63,1.198,1.413
		c0.039,0.832,0.021,1.666,0.009,2.498c-0.008,0.533,0.219,0.724,0.747,0.744c1.87,0.073,1.89-0.007,1.723-1.869
		c-0.159-1.773-0.383-3.513-1.081-5.167c-1.368-3.243-3.597-5.683-6.743-7.284c-0.558-0.284-0.755-0.12-0.928,0.439
		c-1.24,4.026-5.716,5.481-9.099,2.976c-1.027-0.761-1.612-1.817-1.998-3.004c-0.233-0.718-0.299-0.77-0.964-0.397
		c-4.069,2.277-6.641,5.662-7.561,10.265c-0.221,1.109-0.176,2.227-0.187,3.345c-0.005,0.506,0.238,0.668,0.717,0.694
		c1.648,0.09,1.662,0.088,1.666-1.542c0.001-0.572-0.041-1.147,0.034-1.717c0.121-0.908,0.701-1.445,1.48-1.398
		c0.721,0.043,1.222,0.639,1.253,1.522c0.025,0.702,0.003,1.405,0.008,2.108c0.007,0.979,0.041,1.019,1.006,1.021
		c3.201,0.003,6.402,0,9.604,0.002c0.364,0,0.731-0.021,1.087,0.072C27.794,80.198,28.11,80.644,28.027,81.347z"/>
	<path fill-rule="evenodd" fill="#696969" d="M82.498,29.842c-0.231-0.417-0.25-0.834,0-1.25
		C82.498,29.008,82.498,29.425,82.498,29.842z"/>
	<path fill-rule="evenodd" fill="#707070" d="M2.502,58.435c0.209,0.416,0.265,0.833,0,1.25C2.502,59.268,2.502,58.851,2.502,58.435
		z"/>
	<path fill-rule="evenodd" fill="#8C8C8C" d="M54.056,2.63c-0.129,0.02-0.268,0.061-0.307-0.13c0.104,0,0.209,0,0.313,0
		c0.053,0.031,0.068,0.061,0.05,0.089C54.093,2.616,54.075,2.63,54.056,2.63z"/>
	<path fill-rule="evenodd" fill="#747474" d="M54.056,2.63c0.003-0.043,0.005-0.087,0.006-0.13c0.104,0,0.209,0,0.313,0
		c0.053,0.031,0.068,0.062,0.049,0.09c-0.018,0.027-0.037,0.041-0.056,0.041C54.263,2.631,54.159,2.631,54.056,2.63z"/>
	<path fill-rule="evenodd" fill="#5B5B5B" d="M54.367,2.631c0.003-0.044,0.006-0.087,0.007-0.131c0.104,0,0.209,0,0.313,0
		C54.625,2.652,54.503,2.657,54.367,2.631z"/>
	<path fill-rule="evenodd" fill="#595959" d="M57.187,2.5c-0.104,0.2-0.209,0.177-0.313,0C56.978,2.5,57.083,2.5,57.187,2.5z"/>
	<path fill-rule="evenodd" fill="#BABABA" d="M82.498,28.124c-0.223-0.104-0.234-0.209,0-0.313
		C82.498,27.915,82.498,28.019,82.498,28.124z"/>
	<path fill-rule="evenodd" fill="#FE5D49" d="M28.027,81.347c-0.224-0.935-0.537-1.191-1.522-1.192
		c-3.515-0.006-7.029-0.021-10.542,0.014c-0.667,0.007-0.839-0.191-0.797-0.828c0.057-0.854,0.026-1.717,0.009-2.576
		c-0.016-0.805-0.462-1.299-1.14-1.305c-0.682-0.007-1.161,0.47-1.189,1.275c-0.035,0.962-0.026,1.926-0.002,2.889
		c0.01,0.397-0.102,0.524-0.52,0.54c-2.399,0.091-2.458,0.1-2.324-2.295c0.324-5.805,3.201-9.965,8.309-12.643
		c0.39-0.204,0.651-0.339,0.763,0.313c0.451,2.617,2.691,4.483,5.377,4.546c2.559,0.059,4.882-1.804,5.457-4.373
		c0.051-0.226,0.099-0.452,0.16-0.733c2.165,0.877,3.965,2.2,5.459,3.945c2.644,3.088,3.593,6.728,3.492,10.715
		c-0.011,0.42-0.152,0.546-0.547,0.518c-0.749-0.054-1.7,0.3-2.192-0.132c-0.469-0.411-0.106-1.376-0.146-2.096
		c-0.023-0.415,0.009-0.833-0.011-1.249c-0.037-0.752-0.482-1.218-1.14-1.221c-0.649-0.003-1.139,0.447-1.178,1.204
		c-0.048,0.935-0.049,1.875-0.006,2.81c0.025,0.549-0.14,0.747-0.691,0.688c-0.412-0.044-0.832-0.016-1.249-0.007
		c-0.91,0.019-1.228,0.284-1.445,1.193C29.617,81.284,28.822,81.284,28.027,81.347z"/>
	<path fill-rule="evenodd" fill="#FEBE00" d="M71.944,9.496c0.575,0.538,1.149,1.076,1.726,1.615
		c-0.492,0.73-0.285,1.348,0.258,1.962c2.887,3.26,4.801,7.017,5.649,11.291c1.178,5.937,0.337,11.59-2.647,16.863
		c-3.1,5.477-7.667,9.279-13.647,11.216c-6.705,2.17-13.222,1.538-19.444-1.822c-0.043-0.023-0.074-0.07-0.111-0.106
		c-0.207-0.323-0.092-0.653-0.018-0.98c0.754-3.309,0.651-6.597-0.225-9.867c-0.066-0.248-0.172-0.496-0.043-0.757
		c3.748-0.013,7.497-0.026,11.244-0.039c0.261-0.001,0.521,0.008,0.781-0.003c0.692-0.028,1.257-0.29,1.347-1.036
		c0.089-0.731-0.332-1.163-1.043-1.313c-2.264-0.087-4.526-0.021-6.79-0.035c-1.978-0.012-3.956,0.003-5.934-0.005
		c-0.86-0.004-1.231-0.434-1.172-1.32c4.303-0.011,8.608-0.021,12.91-0.032c0.233-0.001,0.467,0.007,0.7-0.004
		c0.692-0.03,1.245-0.306,1.33-1.045c0.084-0.729-0.337-1.157-1.045-1.306c-0.88-0.093-1.764-0.036-2.646-0.037
		c-4.155-0.008-8.312-0.003-12.467-0.005c-0.887,0-1.376-0.407-1.621-1.33c0.377-0.323,0.838-0.232,1.271-0.233
		c4.736-0.007,9.473-0.003,14.208-0.005c0.442-0.001,0.89,0.022,1.312-0.141c0.424-0.164,0.725-0.44,0.661-0.935
		c-0.062-0.482-0.38-0.715-0.853-0.759c-0.207-0.019-0.415-0.021-0.623-0.021c-5.126-0.001-10.253,0-15.379-0.003
		c-0.614-0.001-1.206,0.027-1.604,0.591c-0.48,0.441-0.818,0.024-1.138-0.23c-1.198-0.955-2.485-1.764-3.848-2.458
		c-0.347-0.176-0.72-0.288-1.065-0.464c-0.276-0.141-0.584-0.278-0.441-0.693c0.224-2.704,1.044-5.249,2.254-7.647
		c3.118-6.177,7.981-10.42,14.603-12.429c7.263-2.205,14.183-1.244,20.622,2.848c0.373,0.237,0.735,0.492,1.094,0.752
		C70.745,10.032,71.353,10.027,71.944,9.496z"/>
	<path fill-rule="evenodd" fill="#0D5783" d="M14.371,30.769c0.737-0.46,1.474-0.921,2.21-1.381
		c0.498,0.749,1.171,0.752,1.918,0.458c2.235-0.881,4.555-1.245,6.95-1.094c3.646,0.231,6.872,1.526,9.645,3.91
		c3.261,2.803,5.116,6.375,5.628,10.624c0.17,1.412,0.177,2.853-0.147,4.313c-0.644-0.303-1.185-0.784-1.893-0.898
		c-0.185-0.029-0.215-0.177-0.272-0.331c-0.401-1.083-0.792-1.29-1.888-0.957c-2.279,0.693-4.603,1.078-6.988,0.978
		c-1.983-0.084-3.923-0.397-5.756-1.215c-1.378-0.614-2.061-0.153-2.065,1.378c-0.003,1.021-0.009,1.038-1.028,0.73
		c-2.454-0.74-4.631-1.964-6.474-3.762c-0.408-0.398-0.771-0.85-1.277-1.142c-0.533-0.307-1.006-0.199-1.408,0.229
		c-0.389,0.413-0.422,0.912-0.114,1.357c0.292,0.424,0.68,0.783,1.036,1.161c0.197,0.21,0.383,0.397,0.388,0.728
		c0.01,0.576,0.066,0.986-0.813,0.775c-1.157-0.277-2.271,0.072-3.237,0.781c-0.328,0.241-0.456,0.271-0.509-0.203
		c-0.594-5.381,0.978-10.003,4.812-13.842c0.294-0.294,0.59-0.59,0.909-0.856C14.584,32.021,14.686,31.444,14.371,30.769z"/>
	<path fill-rule="evenodd" fill="#FEC096" d="M15.211,47.401c0.867,0.441,1.68,0.882,2.517,1.273c1.419,0.664,2.913,1.1,4.465,1.307
		c1.422,0.188,1.83-0.189,1.861-1.639c0.003-0.154,0.022-0.308,0.036-0.499c2.083,0.609,4.173,0.954,6.322,0.92
		c0.965-0.016,1.92-0.112,2.875-0.223c0.215-0.025,0.507-0.178,0.492,0.232c-0.089,2.377,0.321,4.791-0.541,7.11
		c-1.492,4.016-5.639,6.625-9.684,6.09c-4.674-0.618-8.003-4.034-8.322-8.689C15.1,51.352,15.211,49.402,15.211,47.401z"/>
	<path fill-rule="evenodd" fill="#0D5783" d="M16.871,63.271c-1.109,0.674-2.157,1.446-3.25,2.134
		c-1.029,0.647-2.281,0.434-3.423,0.148c-3.217-0.801-5.223-3.374-5.291-6.686c-0.035-1.693,0.521-3.277,1.795-4.513
		c0.297-0.068,0.405,0.186,0.556,0.344c1.136,1.182,2.515,1.82,4.158,1.811c0.621-0.004,0.934,0.262,1.148,0.818
		c0.83,2.15,2.131,3.964,3.947,5.398C16.682,62.861,16.926,62.975,16.871,63.271z"/>
	<path fill-rule="evenodd" fill="#0D5783" d="M42.2,54.328c1.324,1.262,1.867,2.866,1.839,4.633
		c-0.049,3.191-2.119,5.752-5.213,6.564c-1.014,0.267-2.044,0.351-3.075,0.078c-0.196-0.053-0.414-0.118-0.562-0.246
		c-0.929-0.803-2.006-1.382-3.026-2.047c-0.092-0.372,0.232-0.485,0.43-0.663c1.701-1.527,3.128-3.249,3.887-5.446
		c0.142-0.411,0.399-0.672,0.849-0.669c1.788,0.013,3.284-0.628,4.475-1.97C41.908,54.445,42.04,54.358,42.2,54.328z"/>
	<path fill-rule="evenodd" fill="#07496A" d="M16.871,63.271c-2.092-1.542-3.609-3.524-4.532-5.955
		c-0.15-0.396-0.32-0.625-0.82-0.614c-1.996,0.045-3.587-0.792-4.817-2.347c0.118-0.137,0.242-0.27,0.353-0.412
		c0.411-0.527,0.708-0.516,1.195,0.02c1.141,1.253,2.61,1.602,4.255,1.209c0.286-0.067,0.564-0.266,0.688,0.255
		c0.726,3.041,2.49,5.365,5.074,7.143C17.851,62.973,17.336,63.074,16.871,63.271z"/>
	<path fill-rule="evenodd" fill="#07496A" d="M42.2,54.328c-1.114,1.566-2.647,2.358-4.553,2.372
		c-0.582,0.005-0.868,0.165-1.063,0.737c-0.768,2.248-2.27,3.979-4.042,5.499c-0.137,0.117-0.3,0.199-0.378,0.374
		c-0.475-0.199-0.949-0.399-1.528-0.643c0.443-0.354,0.81-0.652,1.183-0.943c2.025-1.574,3.278-3.657,3.921-6.106
		c0.146-0.555,0.364-0.561,0.8-0.445c1.562,0.414,2.925-0.011,4.103-1.063C41.449,53.391,41.481,53.378,42.2,54.328z"/>
	<path fill-rule="evenodd" fill="#FE9D5C" d="M27.698,64.565c-0.093,1.79-1.374,3.082-3.087,3.168
		c-1.65,0.083-3.097-1.174-3.315-2.88c-0.092-0.722,0.087-0.917,0.817-0.758c1.655,0.361,3.305,0.347,4.94-0.056
		C27.663,63.89,27.8,64.077,27.698,64.565z"/>
	<path fill-rule="evenodd" fill="#F69700" d="M39.064,31.412c0.597,0.952,1.394,1.294,2.57,1.271
		c4.436-0.082,8.875-0.034,13.312-0.028c0.275,0,0.574-0.094,0.823,0.116c-5.609,0.006-11.219,0.007-16.83,0.026
		c-0.34,0.002-0.524-0.155-0.72-0.366c-1.805-1.948-3.909-3.481-6.365-4.507c-0.447-0.187-0.583-0.434-0.471-0.887
		c0.08-0.322-0.019-0.677,0.153-0.989c0.039,0.349,0.324,0.448,0.583,0.55c1.941,0.757,3.646,1.896,5.258,3.194
		c0.115,0.092,0.266,0.14,0.4,0.208C38.023,30.637,38.521,31.045,39.064,31.412z"/>
	<path fill-rule="evenodd" fill="#F69700" d="M43.441,38.909c0.576,1.541,0.834,3.139,0.945,4.776
		c0.156,2.318-0.09,4.586-0.66,6.828c-1.158-0.567-1.152-0.566-0.93-1.742c0.57-3.005,0.475-5.98-0.385-8.927
		c-0.292-1-0.548-0.971,0.722-0.972C43.236,38.873,43.339,38.896,43.441,38.909z"/>
	<path fill-rule="evenodd" fill="#FD9D5B" d="M36.134,50.959c0-0.183,0-0.364,0-0.547c0-1.061,0.569-1.596,1.636-1.496
		c0.854,0.079,1.436,0.565,1.762,1.342c0.316,0.752,0.12,1.441-0.393,2.026c-0.539,0.614-1.246,0.848-2.042,0.637
		c-0.62-0.164-1.102-0.48-0.968-1.261C36.167,51.433,36.134,51.192,36.134,50.959z"/>
	<path fill-rule="evenodd" fill="#FE9D5C" d="M12.835,50.95c0,0.078,0,0.156,0,0.234c0,1.331-0.211,1.652-1.164,1.78
		c-0.973,0.13-1.972-0.486-2.263-1.397c-0.385-1.206,0.527-2.557,1.793-2.656C12.414,48.815,12.835,49.343,12.835,50.95z"/>
	<path fill-rule="evenodd" fill="#F09400" d="M41.875,35.158c0.262,0.888,0.744,1.291,1.78,1.271
		c3.763-0.075,7.527-0.032,11.292-0.025c0.275,0,0.574-0.094,0.824,0.115c-4.725,0.004-9.45,0.004-14.175,0.015
		c-0.913,0.002-0.805-0.855-1.301-1.375C40.914,35.158,41.394,35.158,41.875,35.158z"/>
	<path fill-rule="evenodd" d="M64.642,26.852c-1.211,0.832-2.486,1.044-3.809,0.307c-1.173-0.656-1.715-1.724-1.703-3.038
		c0.012-1.236,0.329-2.415,0.919-3.512c1.434-2.668,4.62-4.34,7.388-4.01c3.887,0.464,6.308,3.232,6.87,6.167
		c0.627,3.27-0.771,6.408-3.595,8.065c-0.355,0.209-0.553,0.438-0.646,0.872c-0.397,1.84-1.999,2.931-3.812,2.66
		c-1.68-0.251-2.88-1.789-2.8-3.588c0.064-1.451,0.613-2.721,1.445-3.885c0.131-0.364,0.429-0.601,0.665-0.885
		c0.438-0.41,0.949-0.709,1.467-1.006c0.324-0.188,0.605-0.449,0.469-0.878c-0.108-0.337-0.34-0.614-0.729-0.586
		c-0.452,0.033-0.679,0.378-0.749,0.778c-0.098,0.56-0.137,1.131-0.444,1.632C65.276,26.259,65.095,26.695,64.642,26.852z"/>
	<path fill-rule="evenodd" d="M39.064,31.412c-0.794-0.138-1.333-0.509-1.286-1.412c0.206-0.76,0.744-0.976,1.476-0.975
		c5.357,0.011,10.714,0.004,16.071,0.008c0.972,0,1.533,0.448,1.52,1.177c-0.014,0.729-0.57,1.162-1.557,1.163
		c-5.096,0.006-10.193,0.002-15.291,0.004C39.687,31.376,39.375,31.4,39.064,31.412z"/>
	<path fill-rule="evenodd" d="M47.343,25.285c2.575,0,5.151,0,7.728,0.001c0.233,0,0.47-0.004,0.702,0.018
		c0.642,0.061,1.006,0.462,1.051,1.063c0.047,0.608-0.278,1.048-0.9,1.186c-0.275,0.062-0.565,0.073-0.85,0.073
		c-5.177,0.004-10.355,0.004-15.534,0.001c-0.259,0-0.523,0.001-0.775-0.051c-0.646-0.131-1.013-0.529-0.966-1.208
		c0.047-0.672,0.452-1.025,1.113-1.07c0.363-0.025,0.728-0.013,1.092-0.013C42.451,25.285,44.896,25.285,47.343,25.285z"/>
	<path fill-rule="evenodd" d="M66.819,35.124c1.869,0.009,3.333,1.504,3.335,3.403c0.001,1.889-1.474,3.401-3.333,3.418
		c-1.876,0.017-3.398-1.541-3.377-3.455C63.465,36.595,64.95,35.114,66.819,35.124z"/>
	<path fill-rule="evenodd" d="M50.783,19.682c1.533-0.001,3.065-0.007,4.6,0.002c0.916,0.005,1.461,0.447,1.464,1.16
		c0.003,0.715-0.542,1.176-1.454,1.178c-3.118,0.009-6.236,0.01-9.355,0c-0.904-0.003-1.422-0.471-1.402-1.207
		c0.019-0.706,0.516-1.125,1.393-1.13C47.612,19.674,49.197,19.682,50.783,19.682z"/>
	<path fill-rule="evenodd" fill="#010000" d="M40.139,22.015c-0.416,0-0.833,0.032-1.245-0.007
		c-0.688-0.065-1.113-0.542-1.106-1.176c0.007-0.631,0.45-1.109,1.138-1.138c0.829-0.033,1.663-0.04,2.491,0.006
		c0.646,0.035,1.054,0.411,1.101,1.087c0.044,0.637-0.377,1.139-1.056,1.213c-0.436,0.048-0.881,0.01-1.322,0.01
		C40.139,22.012,40.139,22.013,40.139,22.015z"/>
	<path fill-rule="evenodd" fill="#E7AD00" d="M65.651,26.105c-0.25,0.262-0.5,0.522-0.751,0.784
		c-0.087-0.013-0.173-0.025-0.259-0.038c0.265-0.322,0.529-0.644,0.795-0.966C65.556,25.912,65.626,25.987,65.651,26.105z"/>
	<path fill-rule="evenodd" fill="#010000" d="M24.467,59.849c-1.029,0.009-1.934-0.355-2.748-0.953
		c-0.542-0.397-0.672-1.063-0.349-1.584c0.333-0.535,0.973-0.755,1.558-0.371c1.071,0.701,2.051,0.678,3.115-0.014
		c0.563-0.366,1.238-0.125,1.556,0.403c0.32,0.53,0.182,1.167-0.382,1.577C26.401,59.5,25.495,59.861,24.467,59.849z"/>
	<path fill-rule="evenodd" fill="#020201" d="M19.042,52.545c0-0.745,0.476-1.285,1.142-1.296c0.684-0.012,1.221,0.586,1.199,1.334
		c-0.02,0.714-0.553,1.273-1.201,1.262C19.512,53.832,19.043,53.297,19.042,52.545z"/>
	<path fill-rule="evenodd" fill="#020101" d="M30.2,52.506c0.015,0.76-0.429,1.298-1.101,1.335c-0.68,0.037-1.239-0.549-1.237-1.298
		c0.001-0.72,0.507-1.283,1.162-1.294C29.692,51.237,30.186,51.766,30.2,52.506z"/>
	<path fill-rule="evenodd" fill="#0099F1" d="M66.688,18.936c2.43-0.068,4.582,1.551,5.26,3.956
		c0.638,2.266-0.381,4.798-2.475,5.953c-0.958,0.528-1.607,1.171-1.694,2.324c-0.045,0.592-0.472,0.928-1.091,0.86
		c-0.625-0.066-0.916-0.499-0.888-1.084c0.073-1.568,0.774-2.789,2.163-3.556c1.127-0.623,1.951-1.426,2.09-2.797
		c0.18-1.789-1.051-3.369-2.883-3.626c-1.635-0.229-3.297,0.994-3.598,2.652c-0.042,0.229-0.074,0.462-0.107,0.693
		c-0.094,0.65-0.483,0.995-1.121,0.915c-0.65-0.083-0.892-0.554-0.856-1.185C61.647,21.195,63.866,19.016,66.688,18.936z"/>
	<path fill-rule="evenodd" fill="#FBBC00" d="M65.651,26.105c-0.071-0.073-0.143-0.146-0.215-0.22
		c0.197-0.507,0.351-1.019,0.391-1.57c0.039-0.535,0.309-0.954,0.895-1.008c0.504-0.046,0.844,0.232,0.988,0.705
		c0.177,0.581-0.15,0.915-0.617,1.187C66.603,25.483,66.131,25.802,65.651,26.105z"/>
	<path fill-rule="evenodd" fill="#0098EE" d="M66.774,37.474c0.581-0.012,1.021,0.423,1.035,1.027
		c0.014,0.601-0.411,1.066-0.985,1.08c-0.576,0.015-1.022-0.431-1.035-1.03C65.776,37.949,66.2,37.485,66.774,37.474z"/>
</g>
</svg>
