<?xml version="1.0" encoding="utf-8"?>
<!-- Generator: Adobe Illustrator 16.0.0, SVG Export Plug-In . SVG Version: 6.00 Build 0)  -->
<!DOCTYPE svg PUBLIC "-//W3C//DTD SVG 1.1//EN" "http://www.w3.org/Graphics/SVG/1.1/DTD/svg11.dtd">
<svg version="1.1" id="Layer_1" xmlns="http://www.w3.org/2000/svg" xmlns:xlink="http://www.w3.org/1999/xlink" x="0px" y="0px"
	 width="85px" height="85px" viewBox="0 0 85 85" enable-background="new 0 0 85 85" xml:space="preserve">
<g>
	<path fill="#F3C899" d="M40.52,48.301l-1.488,1.237c-0.799-0.932-1.574-1.885-2.383-2.809l1.439-1.199l-0.096-0.336
		c-0.123-0.599-0.012-1.215,0.336-1.695c0.092-0.126,1.391-1.602,1.451-1.67v-0.002l0.586,0.741L42,41.208
		c1.343,1.489,2.177,2.593,3.296,4.053l-1.729,1.7C42.249,48.219,41.479,48.462,40.52,48.301L40.52,48.301z"/>
	<path fill="#F3C899" d="M41.079,43.422c-0.312,0.269-0.84,0.244-1.107-0.066l-0.09-0.104c-0.129-0.149-0.193-0.344-0.178-0.541
		c0.014-0.197,0.105-0.381,0.256-0.51l5.472-4.196c0.291-0.251,0.73-0.218,0.98,0.073l0.066,0.07
		c0.232,0.271,0.203,0.683-0.068,0.917L41.079,43.422z"/>
	<path fill="#FED2A1" d="M42.825,43.83c-0.148,0.131-0.342,0.202-0.531,0.199c-0.191-0.003-0.367-0.082-0.484-0.219l-0.082-0.094
		C41.485,43.438,41.536,43,41.84,42.73l1.425-1.257c0.141-0.123,0.318-0.189,0.498-0.188c0.18,0.003,0.342,0.076,0.451,0.203
		l0.168,0.192c0.211,0.243,0.166,0.626-0.1,0.861L42.825,43.83L42.825,43.83z"/>
	<path fill="#FED2A1" d="M43.639,45.026c-0.311,0.269-0.763,0.255-1.009-0.026l-0.08-0.096c-0.119-0.135-0.172-0.315-0.148-0.503
		c0.021-0.188,0.119-0.363,0.27-0.493l1.144-0.98c0.291-0.25,0.715-0.238,0.943,0.026l0.168,0.191
		c0.104,0.118,0.148,0.276,0.129,0.439s-0.104,0.316-0.234,0.43L43.639,45.026L43.639,45.026z"/>
	<path fill="#FED2A1" d="M44.477,45.967c-0.238,0.206-0.605,0.175-0.818-0.07l-0.07-0.081C43.377,45.57,43.4,45.206,43.639,45
		l0.879-0.755c0.223-0.192,0.564-0.163,0.764,0.064l0.145,0.168c0.186,0.214,0.166,0.532-0.043,0.712L44.477,45.967L44.477,45.967z
		 M41.651,43.38l-0.771-0.016c-0.127-0.003-0.248,0.052-0.332,0.146l-0.168,0.199c0,0,1.057,1.899-0.891,3.194L40.52,48.3
		l-1.309,1.441c-0.877-1.009-1.715-2.049-2.6-3.054l0.871-0.668l0.605-0.49l-0.096-0.336c-0.123-0.599-0.012-1.216,0.336-1.695
		c0.092-0.126,1.391-1.602,1.451-1.67v-0.001c0.1-0.086,0.227-0.132,0.357-0.128l1.238,0.028l0.83,0.021
		c0.262,0.005,0.473,0.221,0.469,0.48l-0.002,0.157c-0.002,0.268-0.109,0.522-0.303,0.708C42.178,43.281,41.918,43.385,41.651,43.38
		L41.651,43.38z"/>
	<path fill="#EDEDED" d="M38.487,50.94l-2.949-4.009l2.207-1.707l3.053,4.015L38.487,50.94z"/>
	<path fill="#065C6B" d="M32.008,50.384c-0.477-2.291-1.064-8.745-1.684-10.634c-0.459-1.399-0.5-1.584-1.484-2.684
		c-0.439-0.494-0.971-0.893-1.562-1.188c-0.006-0.005-0.014-0.009-0.021-0.013c-0.311-0.158-0.637-0.285-0.975-0.378
		c-0.529-0.152-1.078-0.221-1.629-0.201c-3.342,3.476-2.857,7.512-1.521,11.924c0.061,0.209,0.125,0.413,0.193,0.621
		c0.008,0.021,0.012,0.045,0.02,0.066c0.041,0.135,0.088,0.27,0.131,0.405c0.576,1.788,1.26,3.635,1.848,5.524
		c0.371,1.192,0.963,1.713,1.955,2.158l4.783-5.594C32.045,50.39,32.024,50.387,32.008,50.384z"/>
	<path fill="#065C6B" d="M40.073,50.138c-0.01,0.025-0.072,0.077-0.17,0.163c-1.074,0.886-6.91,4.97-9.57,6.729
		c-0.682,0.452-1.156,0.747-1.289,0.799c-0.24,0.088-0.463,0.167-0.678,0.23l-0.088-4.898l-0.047-2.459
		c1.766-1.066,6.791-3.695,8.629-5.086C38.26,47.416,39.2,48.853,40.073,50.138z"/>
	<polygon fill="#004A55" points="28.756,43.328 28.278,53.161 30.333,57.03 39.903,50.302 31.588,54.242 	"/>
	<path fill="#FFFFFF" d="M7.579,66.344h24.236c-0.32-3.724-6.328-30.226-6.328-30.226l-2.635-0.42l-7.926-1.273
		C14.926,34.423,7.526,62.972,7.579,66.344L7.579,66.344z"/>
	<path fill="#065C6B" d="M14.926,34.423l-6.693,3.179c-0.193,2.133-0.309,4.289-0.5,6.604c-0.832,10.178-1.26,18.766-1.207,22.138
		h12.689c-0.141-13.241-0.578-25.821-3.938-31.864L14.926,34.423L14.926,34.423z M28.653,38.049l-0.408-0.247l-2.756-1.686
		l-0.379-0.06l0.791,30.287h5.914C31.495,62.62,28.698,39.941,28.653,38.049z"/>
	<polygon fill="#004A55" points="12.858,44.361 9.891,54.207 6.688,60.04 6.528,66.361 28.333,66.361 11.577,53.565 	"/>
	<path fill="#FED2A1" d="M32.87,59.576l0.02-0.009l5.289-1.803c0.166-0.068,0.281-0.198,0.344-0.354
		c0.059-0.152,0.062-0.327-0.01-0.489L38.51,56.91c-0.141-0.327-0.162-0.619-0.488-0.48c-0.857,0.438-4.484,1.595-5.514,1.923
		c-0.527,0.15-0.619,0.572-0.486,0.876l0.004,0.012C32.165,59.566,32.543,59.717,32.87,59.576L32.87,59.576z"/>
	<path fill="#FED2A1" d="M31.995,61.205c0.158,0.316,0.545,0.445,0.863,0.286l4.674-2.334c0.316-0.157,0.447-0.544,0.289-0.86
		c0-0.001,0-0.001,0-0.001l-0.006-0.011c-0.158-0.318-0.545-0.446-0.863-0.289l-4.674,2.335c-0.316,0.157-0.447,0.544-0.287,0.861
		l0,0L31.995,61.205z"/>
	<path fill="#FED2A1" d="M38.377,59.408l-0.006-0.012c-0.17-0.312-0.559-0.427-0.871-0.257l-4.158,2.264
		c-0.311,0.171-0.426,0.562-0.256,0.872l0,0l0.006,0.013c0.17,0.312,0.561,0.427,0.871,0.257l4.158-2.265
		C38.434,60.11,38.547,59.721,38.377,59.408L38.377,59.408z"/>
	<path fill="#FED2A1" d="M38.881,60.432l-0.006-0.01c-0.174-0.264-0.529-0.335-0.793-0.16l-2.857,1.892
		c-0.264,0.175-0.336,0.528-0.16,0.791l0,0l0.006,0.011c0.174,0.263,0.527,0.335,0.791,0.16l0,0l2.857-1.893
		C38.983,61.05,39.055,60.695,38.881,60.432C38.881,60.433,38.881,60.433,38.881,60.432L38.881,60.432z"/>
	<path fill="#F3C899" d="M41.926,59.385l2.585-0.915l-0.939-3.038l-2.214,0.907c-0.361-0.573-3.57-0.144-3.57-0.144
		c-0.535,0.155-1.061,0.582-1.814,1.018c0.318,1.805,1.25,3.348,2.143,4.411c0,0,1.229-0.393,1.631-0.54
		C41.213,60.543,41.678,59.905,41.926,59.385L41.926,59.385z"/>
	<path fill="#FED2A1" d="M34.774,55.634v0.014c0,0.375,0.303,0.562,0.676,0.6c0.477,0.048,1.596-0.018,2.166-0.056
		c-0.01,0.02,0.936,2.471,2.678,2.274c0.004-0.001,0.004-0.002,0.008-0.003l4.037-0.881l-0.979-2.464l-2.402,0.755
		c-0.609-0.931-2.232-1.092-2.508-1.098c-0.545-0.012-1.678,0.281-2.795,0.193C34.872,54.906,34.772,55.259,34.774,55.634
		L34.774,55.634z"/>
	<path fill="#585857" d="M53.012,50.367c0.477-2.29,1.066-8.745,1.686-10.635c0.459-1.398,0.5-1.584,1.482-2.683
		c0.439-0.493,0.971-0.893,1.562-1.188c0.006-0.005,0.014-0.009,0.021-0.011c0.312-0.159,0.639-0.285,0.977-0.378
		c0.529-0.153,1.078-0.221,1.629-0.202c3.342,3.478,2.857,7.514,1.521,11.923c-0.061,0.209-0.125,0.414-0.193,0.621
		c-0.008,0.022-0.012,0.046-0.021,0.068c-0.041,0.134-0.086,0.269-0.129,0.405c-0.578,1.788-1.26,3.634-1.848,5.523
		c-0.371,1.192-0.965,1.713-1.955,2.158l-4.783-5.593C52.977,50.375,52.996,50.371,53.012,50.367L53.012,50.367z"/>
	<path fill="#EDEDED" d="M44.857,59.647l-1.322-4.798l-2.707,0.677l1.262,4.885L44.857,59.647z"/>
	<path fill="#585857" d="M43.244,60.396c0.027,0.007,0.105-0.01,0.232-0.032c1.361-0.296,8.182-2.35,11.213-3.35
		c0.775-0.255,1.301-0.446,1.422-0.517c0.219-0.136,0.42-0.261,0.602-0.391l-0.777-4.95l-2.924-0.791
		c-1.93,0.727-9.098,4.123-11.328,4.705C42.229,57.289,42.776,58.917,43.244,60.396z"/>
	<path fill="#FFFFFF" d="M44.012,59.117c0.113,0.19,0.359,0.256,0.553,0.144c0.189-0.112,0.256-0.358,0.143-0.55l0,0
		c-0.111-0.192-0.357-0.257-0.551-0.146C43.965,58.678,43.9,58.926,44.012,59.117L44.012,59.117z M45.375,58.782
		c0.113,0.191,0.359,0.257,0.551,0.146c0-0.001,0-0.001,0-0.001c0.191-0.112,0.258-0.358,0.145-0.55l0,0
		c-0.111-0.191-0.357-0.257-0.549-0.146c0,0,0,0-0.002,0.001C45.328,58.345,45.264,58.592,45.375,58.782L45.375,58.782
		L45.375,58.782z"/>
	<path fill="#FFFFFF" d="M77.441,66.329H53.205c0.32-3.726,6.326-30.228,6.326-30.228l2.637-0.419l7.926-1.275
		C70.094,34.407,77.494,62.956,77.441,66.329L77.441,66.329z"/>
	<path fill="#F3C899" d="M68.443,33.228l-0.652-6.604c-2.818,0.333-6.598,0.713-7.266,0.664c0,0,0.436,4.805,0.441,6.886
		C60.523,39.582,66.777,39.378,68.443,33.228L68.443,33.228z"/>
	<path fill="#585857" d="M70.094,34.407l6.693,3.181c0.193,2.132,0.307,4.288,0.5,6.602c0.832,10.178,1.26,18.767,1.205,22.14
		H65.803c0.143-13.243,0.578-25.823,3.939-31.865L70.094,34.407z M56.369,38.032l0.406-0.245l2.756-1.685l0.379-0.061l-0.789,30.288
		h-5.916C53.525,62.604,56.324,39.925,56.369,38.032L56.369,38.032z"/>
	<path fill="#E75025" d="M63.684,40.574l-1.707-0.177l-0.564-3.393l2.863,0.108L63.684,40.574z"/>
	<path fill="#DBDADA" d="M62.623,37.034l-2.354,2.698c-0.359-1.64-0.83-2.987-0.645-3.985l1.357-1.474
		C60.846,35.413,61.42,36.657,62.623,37.034z M62.623,37.034l2.906,3.363c1.984-1.949,4.047-4.113,4.564-5.99l-1.721-1.887
		C68.375,34.209,64.869,37.125,62.623,37.034L62.623,37.034z"/>
	<path fill="#CF4827" d="M63.684,40.574l-1.707-0.177l-0.873,15.661l1.74,2.735l1.861-2.208L63.684,40.574z"/>
	<path fill="#3D3D3C" d="M66.111,54.12c1.451-5.174,5.035-14.708,5.035-14.708s-2.281-1.186-2.121-1.366l2.506,0.089l-0.453-3.259
		l-2.301-1.912C66.965,38.955,65.959,47.507,66.111,54.12z M59.418,53.96c-1.451-5.172-2.373-14.862-2.373-14.862
		s2.154-0.794,1.994-0.975l-1.818-0.222l1.396-2.386l1.908-0.745C59.91,40.75,59.57,47.347,59.418,53.96L59.418,53.96z"/>
	<g>
		<path fill="#FED2A1" d="M68.943,28.581c0.65-1.243,0.699-1.811,0.883-3.219c0.438-6.458-3.342-5.927-5.729-6.164
			c-2.803-0.154-5.936,0.771-6.201,5.736c0.062,0.271,0.141,0.536,0.232,0.796l-1.086,1.787c-0.189,0.379-0.178,1.193,0.641,1.547
			l-0.055,1.892c0,1.771,1.014,3.385,2.479,3.396c3.461-0.429,5.309-1.752,5.381-5.464C66.518,28.87,68.465,29.493,68.943,28.581
			L68.943,28.581z"/>
		<path fill="#3D3D3C" d="M69.445,23.056l-3.855-0.172c-0.883-0.04-1.637,0.623-1.711,1.502c-0.07,0.812-0.096,1.754-0.164,2.677
			c0.637,0.114,2.729,0.136,2.729,0.136s-0.93,3.851,1.812,3.583c2.291-0.319,2.047-5.559,1.92-7.031
			C70.143,23.368,69.828,23.074,69.445,23.056L69.445,23.056z"/>
		<path fill="#FED2A1" d="M67.174,27.34c-0.104,1.008-1.076,2.084-1.734,2.016c-0.658-0.066-0.627-0.92-0.531-1.93
			c0.061-0.667,0.115-1.591,0.859-1.728C66.418,25.581,67.326,25.861,67.174,27.34z"/>
	</g>
	<path fill="#585857" d="M82.498,56.194c-0.75-4.307-1.852-10.321-2.818-14.727c-0.279-1.27-1.123-2.625-2.1-3.423
		c-1.283-1.048-2.791-0.651-3.914,0.584c-1.125,1.234-1.824,2.896-1.695,4.603c0.061,0.782,3.557,13.155,3.557,13.155
		s-1.768,8.941-2.006,9.941l6.436,0.015C80.049,66.073,82.543,56.451,82.498,56.194z"/>
	<path fill="#FFFFFF" d="M38.592,49.949c0.08,0.206-0.021,0.438-0.227,0.521h-0.002c-0.207,0.081-0.439-0.021-0.521-0.228v-0.001
		c-0.082-0.206,0.021-0.438,0.229-0.521l0,0c0.207-0.081,0.439,0.021,0.521,0.227C38.59,49.948,38.592,49.948,38.592,49.949
		L38.592,49.949z M37.485,50.812c0.082,0.208-0.021,0.441-0.229,0.522s-0.439-0.022-0.52-0.229c-0.082-0.207,0.02-0.439,0.229-0.521
		C37.17,50.505,37.405,50.605,37.485,50.812z"/>
	<path fill="#F3C899" d="M16.577,33.245l0.652-6.605c2.818,0.333,6.598,0.712,7.268,0.663c0,0-0.436,4.806-0.443,6.885
		C24.497,39.597,18.243,39.394,16.577,33.245L16.577,33.245z"/>
	<path fill="#E75025" d="M21.336,40.59l1.707-0.176l0.566-3.395l-2.865,0.109L21.336,40.59z"/>
	<path fill="#DBDADA" d="M22.399,37.049l2.352,2.699c0.359-1.641,0.83-2.988,0.645-3.986l-1.357-1.473
		C24.174,35.428,23.602,36.672,22.399,37.049L22.399,37.049z M22.399,37.049l-2.908,3.365c-1.984-1.95-4.047-4.113-4.564-5.99
		l1.723-1.888C16.645,34.226,20.151,37.141,22.399,37.049z"/>
	<path fill="#CF4827" d="M21.336,40.59l1.707-0.176l0.873,15.66l-1.74,2.734l-1.861-2.207L21.336,40.59z"/>
	<path fill="#077082" d="M18.911,54.136c-1.453-5.173-5.037-14.708-5.037-14.708s2.281-1.186,2.121-1.366l-2.504,0.088l0.453-3.259
		l2.299-1.911C18.055,38.969,19.063,47.521,18.911,54.136L18.911,54.136z M25.602,53.976c1.451-5.173,2.375-14.862,2.375-14.862
		s-2.154-0.794-1.994-0.975l1.816-0.22l-1.395-2.388l-1.908-0.744C25.11,40.764,25.45,47.361,25.602,53.976L25.602,53.976z"/>
	<g>
		<path fill="#FED2A1" d="M16.145,28.214c-0.51-1.309-0.494-1.875-0.52-3.296c0.283-6.466,3.98-5.519,6.377-5.488
			c2.801,0.157,5.428,2.083,5.525,6.39c-0.146,0.421-0.32,0.766-0.32,0.766l0.895,2.417c0.146,0.397-0.094,0.834-0.51,0.921
			l-0.621,0.162c-0.018,0.434,0.014,2.294,0.014,2.294c-0.055,1.095-0.549,2.796-2.008,2.646c-4.199-0.439-5.775-2.422-5.434-6.12
			C18.524,28.771,16.518,29.174,16.145,28.214z"/>
		<path fill="#3D3D3C" d="M16.821,31.142c3.316,0.939,1.963-4.022,1.963-4.022s0.898,1.005,1.246,1.449
			c0.711,0,0.781,0.093,1.424,0.051c0.273-4.245-0.721-7.487,5.324-6.136c1.197-0.19,0.137-4.07-5.406-3.835
			c-3.236,0.139-5.941,1.773-6.402,4.979C14.68,25.641,14.522,28.319,16.821,31.142z"/>
		<path fill="#FED2A1" d="M18.042,27.178c-0.01,1.014,0.836,2.191,1.498,2.197c0.664,0.006,0.725-0.846,0.746-1.859
			c0.012-0.67,0.061-1.593-0.664-1.811C18.987,25.514,18.053,25.691,18.042,27.178z"/>
	</g>
	<g>
		<path fill="#F3C899" d="M20.75,60.577c0-0.006,0-0.011-0.002-0.017c-0.061-0.419,0.264-0.777,0.705-0.815
			c1.697-0.171,3.314-0.518,4.828-1.012c0.396-0.124,0.82,0.084,0.967,0.473c0.002,0.006,0.002,0.01,0.004,0.015
			c0.148,0.391-0.055,0.824-0.475,0.957c-1.588,0.527-3.283,0.9-5.057,1.092C21.254,61.314,20.813,60.997,20.75,60.577L20.75,60.577
			z"/>
		<path fill="#FED2A1" d="M21.809,60.303l-0.734,4.021l-3.67-0.669l0.732-4.021L21.809,60.303z"/>
		<path fill="#F3C899" d="M22.864,60.594l0.002-0.014c0.068-0.379,0.432-0.631,0.811-0.562l0,0l5.553,1.012
			c0.379,0.069,0.631,0.434,0.561,0.812l-0.002,0.015c-0.068,0.378-0.432,0.63-0.811,0.562l-5.553-1.013
			C23.045,61.336,22.793,60.972,22.864,60.594z"/>
		<path fill="#F3C899" d="M24.59,62.336l0.002-0.015c0.07-0.379,0.434-0.63,0.812-0.562l2.557,0.466
			c0.379,0.07,0.631,0.435,0.562,0.812l-0.002,0.014c-0.068,0.379-0.434,0.631-0.812,0.562l-2.557-0.467
			C24.774,63.079,24.522,62.716,24.59,62.336L24.59,62.336z"/>
		<path fill="#F3C899" d="M23.622,63.552l0.002-0.014c0.068-0.38,0.432-0.631,0.811-0.562l2.145,0.392
			c0.379,0.069,0.629,0.433,0.561,0.812v0.001l-0.002,0.014c-0.068,0.379-0.432,0.63-0.812,0.562l-2.145-0.392
			C23.803,64.294,23.551,63.931,23.622,63.552L23.622,63.552L23.622,63.552z M23.381,64.859l0.002-0.013
			c0.062-0.336,0.385-0.56,0.723-0.498l1.902,0.348c0.336,0.062,0.561,0.384,0.498,0.721l0,0l-0.002,0.013
			c-0.061,0.337-0.383,0.561-0.721,0.499l-1.904-0.348C23.545,65.519,23.321,65.196,23.381,64.859L23.381,64.859z"/>
		<path fill="#FED2A1" d="M19.631,62.72l0.248-1.352c0.203-1.116,1.271-1.855,2.389-1.651l1.65,0.301l-0.982,5.391l-1.652-0.301
			C20.168,64.903,19.428,63.835,19.631,62.72L19.631,62.72z"/>
		<path fill="#FED2A1" d="M22.686,65.362l1.227,0.225c0.336,0.062,0.66-0.162,0.721-0.499l0.002-0.012
			c0.062-0.338-0.16-0.66-0.498-0.722l0.225,0.041c0.379,0.068,0.742-0.183,0.811-0.562l0.002-0.015
			c0.07-0.379-0.182-0.741-0.561-0.812l0,0l0.207,0.037c0.379,0.068,0.742-0.183,0.811-0.561c0-0.001,0-0.001,0-0.001l0.002-0.015
			c0.07-0.379-0.182-0.741-0.561-0.812l0,0c0.379,0.068,0.742-0.183,0.811-0.562l0.004-0.014c0.068-0.38-0.182-0.742-0.561-0.812
			l-1.66-0.302L22.686,65.362z"/>
	</g>
	<g>
		<path fill="#EDEDED" d="M16.52,63.722l1.545-4.729l2.674,0.804l-1.49,4.817L16.52,63.722z"/>
	</g>
	<g>
		<path fill="#065C6B" d="M9.959,53.984c0,0,4.664,2.736,9.738,5.497l-1.664,5.41c-6.711-1.634-16.031-5.699-15.512-8.683
			c0.752-4.305,1.854-10.32,2.82-14.726c0.279-1.269,1.123-2.625,2.1-3.422c1.283-1.048,2.791-0.65,3.914,0.583
			c1.125,1.235,1.826,2.896,1.695,4.603C12.92,44.957,9.959,53.984,9.959,53.984z"/>
		<path fill="#FFFFFF" d="M17.217,63.707c-0.121,0.186-0.371,0.237-0.557,0.116l0,0c-0.186-0.12-0.238-0.369-0.117-0.557
			c0.121-0.187,0.371-0.238,0.557-0.117S17.338,63.52,17.217,63.707L17.217,63.707z M15.872,63.309
			c-0.121,0.188-0.371,0.238-0.557,0.117l0,0c-0.184-0.124-0.232-0.375-0.107-0.559c0.121-0.181,0.363-0.23,0.547-0.115
			C15.94,62.874,15.993,63.123,15.872,63.309z"/>
	</g>
	<polygon fill="#4C4C4E" points="57.061,66.242 73.521,66.242 75.527,56.388 72.141,44.396 73.947,56.622 72.562,64.435 	"/>
	<polygon fill="#4C4C4E" points="43.385,60.4 54.215,57.17 55.967,42.255 53.613,54.73 	"/>
</g>
</svg>
