<?xml version="1.0" encoding="utf-8"?>
<!-- Generator: Adobe Illustrator 16.0.2, SVG Export Plug-In . SVG Version: 6.00 Build 0)  -->
<!DOCTYPE svg PUBLIC "-//W3C//DTD SVG 1.1//EN" "http://www.w3.org/Graphics/SVG/1.1/DTD/svg11.dtd">
<svg version="1.1" id="Layer_1" xmlns="http://www.w3.org/2000/svg" xmlns:xlink="http://www.w3.org/1999/xlink" x="0px" y="0px"
	 width="85px" height="85px" viewBox="0 0 85 85" enable-background="new 0 0 85 85" xml:space="preserve">
<g>
	<path d="M76.718,82.5c-22.863,0-45.729,0-68.594,0c-2.871-0.688-4.307-2.52-4.307-5.527C3.815,53.99,3.819,31.01,3.812,8.029
		C3.81,6.265,4.358,4.789,5.673,3.572C6.431,2.869,7.325,2.646,8.282,2.5c22.813,0,45.625,0,68.438,0
		c2.906,0.566,4.463,2.449,4.463,5.451c0.004,23.033,0,46.066,0.006,69.1c0.002,1.736-0.57,3.182-1.859,4.379
		C78.569,82.131,77.675,82.355,76.718,82.5z"/>
	<path fill="#908190" d="M41.269,65.789c-0.012-1.092-0.344-1.43-1.447-1.432c-4.686-0.002-9.369-0.004-14.053,0.002
		c-1.531,0-2.217,0.697-2.225,2.254c-0.01,1.639-0.021,3.279,0.008,4.918c0.012,0.535-0.139,0.713-0.695,0.713
		c-1.936,0.004-2.5,0.602-2.502,2.529c0,1.588-0.016,3.176,0.01,4.764c0.006,0.457-0.098,0.646-0.602,0.631
		c-1.143-0.037-2.291-0.033-3.434-0.002c-0.475,0.012-0.557-0.168-0.525-0.594c0.402-5.289,0.787-10.58,1.184-15.871
		c0.135-1.813,0.098-3.648,0.5-5.43c0.791-3.498,3.479-5.604,7.072-5.604c2.707-0.002,5.412,0.023,8.119-0.018
		c0.682-0.012,0.873,0.17,0.895,0.854c0.09,2.971,1.328,5.248,4.143,6.498c0.67,0.299,1.379,0.496,2.105,0.541
		c2,0.125,4.012,0.27,5.99-0.119c3.314-0.648,5.42-3.258,5.545-6.877c0.025-0.793,0.281-0.936,0.988-0.895
		c1.143,0.061,2.287,0.023,3.434,0.031c0.785,0.074,1.313,0.568,1.805,1.113c1.576,1.754,2.342,3.844,2.479,6.168
		c0.066,1.166,0.197,2.326,0.217,3.496c0.012,0.803,0.02,0.83-0.797,0.832c-4.389,0.002-8.777-0.002-13.166,0.004
		c-0.283,0-0.572-0.057-0.85,0.055c-0.654,0.09-0.904,0.572-1.092,1.117c-0.254,0.229-0.566,0.23-0.875,0.227
		C42.751,65.682,42.009,65.721,41.269,65.789z"/>
	<path fill="#FDD0A2" d="M38.245,48.455c-2.084-0.686-3.854-1.906-5.463-3.352c-2.801-2.516-4.918-5.486-5.809-9.207
		c-0.504-2.1-0.227-4.242-0.24-6.367c0.277-0.254,0.625-0.226,0.961-0.226c8.879-0.003,17.76-0.006,26.639,0.001
		c1.201,0.001,1.488,0.326,1.299,1.529c-0.139,0.88-0.092,1.765-0.18,2.646c-0.434,4.393-2.693,7.693-6.092,10.314
		c-2.906,2.242-6.168,3.762-9.736,4.619C39.167,48.525,38.71,48.641,38.245,48.455z"/>
	<path fill="#F9F7F8" d="M52.331,10.63c-3.33-2.128-6.973-3.194-10.926-3.104c-3.506,0.077-6.77,1.014-9.703,2.975
		c-0.297,0.199-0.584,0.281-0.938,0.281c-7.914-0.008-15.83-0.012-23.744,0.008c-0.537,0-0.648-0.17-0.625-0.656
		c0.037-0.805,0.002-1.614,0.012-2.421c0.016-1.737,1.148-2.863,2.904-2.866c3.879-0.007,7.76-0.002,11.639-0.002
		c16.766,0,33.535,0,50.301,0.001c0.313,0,0.623,0.019,0.936,0.026c0.813,0.466,1.061,1.269,1.146,2.105
		c0.105,0.982,0.049,1.977,0.023,2.967c-0.012,0.465-0.148,0.769-0.73,0.766c-6.666-0.014-13.33-0.008-19.996-0.008
		C52.524,10.701,52.425,10.684,52.331,10.63z"/>
	<path fill="#F9F7F8" d="M41.269,65.789c0.164-0.283,0.424-0.309,0.723-0.305c0.793,0.01,1.588-0.008,2.383-0.016
		c0.346,1.039,0.596,1.225,1.676,1.23c2.723,0.01,5.445,0.02,8.168,0.031c0.275,0.295,0.25,0.668,0.252,1.027
		c0.021,3.834-0.031,7.666-0.02,11.5c0.002,0.311,0.02,0.629-0.234,0.871c-5.199,0.01-10.4,0.02-15.602,0.025
		c-2.211,0.002-4.422-0.031-6.631,0.02c-0.684,0.018-0.801-0.199-0.781-0.82c0.047-1.455,0.025-2.912,0.012-4.367
		c-0.014-1.699-1.016-2.709-2.715-2.744c-0.729-0.016-1.457-0.018-2.184,0.002c-0.34,0.01-0.451-0.107-0.447-0.447
		c0.014-1.561,0.021-3.121-0.002-4.68c-0.01-0.615,0.414-0.41,0.695-0.412c4.395-0.01,8.789-0.01,13.184-0.002
		C40.452,66.703,41.04,66.561,41.269,65.789z"/>
	<path fill="#C5CFD9" d="M28.991,44.582c-0.396,0-0.625,0-0.855,0c-6.977,0-13.953-0.01-20.932,0.016
		c-0.633,0.002-0.83-0.125-0.816-0.795c0.045-2.473,0.043-4.947,0.002-7.419c-0.012-0.644,0.195-0.754,0.781-0.751
		c4.479,0.023,8.957,0.013,13.434,0.012c0.311,0,0.602-0.003,0.879,0.215c0.824,0.648,1.787,0.932,2.824,0.988
		c0.256,0.014,0.477-0.016,0.582,0.348C25.675,39.9,27.085,42.275,28.991,44.582z"/>
	<path fill="#685D68" d="M45.466,64.354c0.273-0.227,0.602-0.125,0.902-0.125c4.314-0.006,8.629-0.014,12.943,0.004
		c0.594,0.004,0.813-0.02,0.74-0.789c-0.146-1.541-0.131-3.105-0.377-4.637c-0.414-2.588-1.559-4.744-3.896-6.123
		c1.77-0.006,3.541-0.049,5.309-0.006c3.105,0.078,5.881,2.623,6.396,5.938c0.262,1.691,0.34,3.412,0.469,5.121
		c0.369,4.951,0.715,9.902,1.088,14.854c0.119,1.568,0.146,1.566-1.406,1.566c-0.52,0-1.043-0.029-1.561,0.01
		c-0.492,0.037-0.621-0.152-0.613-0.623c0.027-1.51,0.014-3.021,0.01-4.529c-0.004-1.652-0.861-2.637-2.523-2.77
		c-0.555-0.043-0.625-0.256-0.619-0.713c0.018-1.641,0.012-3.281,0.004-4.922c-0.006-1.512-0.773-2.24-2.26-2.238
		C55.202,64.375,50.333,64.359,45.466,64.354z"/>
	<path fill="#C5CFD9" d="M28.649,13.119c-1.438,1.666-2.477,3.388-3.16,5.312c-0.119,0.332-0.322,0.347-0.596,0.351
		c-0.52,0.008-1.047-0.023-1.555,0.062c-1.322,0.222-2.145,1.185-2.191,2.625c-0.018,0.507-0.18,0.581-0.629,0.58
		c-4.5-0.017-9-0.021-13.498,0.004c-0.539,0.003-0.629-0.177-0.625-0.658c0.021-2.549,0.01-5.098,0.01-7.647
		c0-0.332-0.084-0.639,0.477-0.639C14.085,13.125,21.286,13.119,28.649,13.119z"/>
	<path fill="#F9F7F8" d="M18.925,46.926c3.828,0,7.656,0.016,11.484-0.014c0.643-0.004,1.164,0.117,1.607,0.592
		c0.211,0.227,0.459,0.457,0.736,0.57c0.943,0.379,0.777,1.166,0.773,1.908c-0.002,0.498-0.375,0.334-0.619,0.336
		c-2.787,0.01-5.574,0.016-8.359,0.004c-3.852-0.018-6.668,1.693-8.482,5.068c-0.203,0.379-0.434,0.49-0.85,0.486
		c-2.732-0.018-5.469-0.02-8.201,0c-0.463,0.004-0.627-0.09-0.621-0.592c0.025-2.578,0.027-5.156-0.002-7.734
		c-0.006-0.535,0.168-0.639,0.658-0.635C11.009,46.936,14.968,46.926,18.925,46.926z"/>
	<path fill="#E6A461" d="M40.489,26.715c0.082-1.219-0.26-1.585-1.504-1.585c-4.865-0.003-9.729-0.015-14.592,0.013
		c-0.707,0.004-1.018-0.173-0.932-0.916c0.117-0.99-0.18-2.006,0.166-2.986c0.248-0.121,0.512-0.063,0.77-0.063
		c11.369-0.003,22.738-0.003,34.107-0.002c1.043,0,1.102,0.052,1.121,1.084c0.014,0.599,0.016,1.196-0.002,1.795
		c-0.023,0.951-0.098,1.021-1.02,1.021c-4.346,0.002-8.689,0-13.035,0.002c-0.285,0-0.572-0.041-0.854,0.043
		c-0.658,0.174-0.98,0.607-0.992,1.281c-0.449,0.164-0.912,0.062-1.365,0.061C41.72,26.461,41.089,26.469,40.489,26.715z"/>
	<path fill="#E6A461" d="M28.579,17.361c1.582-3.041,4.049-5.103,7.195-6.343c3.707-1.46,7.477-1.563,11.266-0.278
		c2.404,1.389,4.145,3.422,5.543,5.771c0.467,0.784,0.232,1.17-0.67,1.211c-0.754,0.035-1.51,0.011-2.264,0.011
		c-6.613,0-13.227,0.006-19.838-0.011C29.39,17.722,28.853,17.938,28.579,17.361z"/>
	<path fill="#C5CFD9" d="M73.13,44.545c-2.264,0.014-4.527,0.031-6.791,0.035c-3.693,0.006-7.389,0.002-11.066,0.002
		c-0.109-0.229,0.064-0.313,0.154-0.42c1.676-2.053,3.01-4.295,3.771-6.849c0.1-0.327,0.23-0.467,0.584-0.472
		c1.125-0.014,2.131-0.4,3.037-1.057c0.139-0.104,0.299-0.08,0.453-0.08c3.098,0,6.195,0.016,9.295-0.014
		c0.607-0.006,0.795,0.268,0.799,0.784c0.025,2.446,0.021,4.896,0.002,7.343C73.366,44.084,73.308,44.336,73.13,44.545z"/>
	<path fill="#FEBB84" d="M40.489,26.715c0.164-0.307,0.352-0.526,0.77-0.475c0.816,0.101,1.658-0.152,2.465,0.16
		c0.18,0.855,0.775,1.076,1.563,1.074c3.797-0.009,7.594,0.012,11.391-0.02c0.637-0.006,0.842,0.135,0.822,0.801
		c-0.059,1.949,0.053,3.906-0.072,5.849c-0.207,3.175-1.646,5.872-3.619,8.29c-2.643,3.234-5.865,5.625-9.975,6.717
		c-1.969,0.521-3.793,0.141-5.586-0.658c1.809-0.266,3.533-0.826,5.211-1.521c3.104-1.289,5.9-3.051,8.189-5.541
		c1.986-2.16,3.18-4.682,3.541-7.626c0.129-1.058,0.033-2.118,0.254-3.171c0.189-0.917-0.008-1.063-0.986-1.063
		c-9.242,0-18.482,0-27.723,0c-0.131-2.06-0.131-2.06,1.898-2.06c3.453,0,6.906-0.006,10.361,0.006
		C39.642,27.479,40.167,27.318,40.489,26.715z"/>
	<path fill="#C5CFD9" d="M73.12,22.014c-3.199,0.007-6.398,0.01-9.6,0.031c-0.404,0.003-0.516-0.113-0.533-0.524
		c-0.084-1.788-1.105-2.813-2.896-2.71c-1.104,0.063-1.635-0.261-2.025-1.311c-0.598-1.6-1.635-2.977-2.848-4.356
		c6.063,0,11.982,0,17.902,0c0.279,0.293,0.252,0.667,0.252,1.025c0.008,2.272,0.008,4.548,0,6.821
		C73.372,21.347,73.401,21.721,73.12,22.014z"/>
	<path fill="#F9F7F8" d="M19.503,33.301c-0.23,0-0.457,0-0.682,0c-3.902,0-7.807-0.014-11.709,0.016
		c-0.58,0.004-0.73-0.132-0.721-0.72c0.035-2.522,0.025-5.047,0.004-7.571c-0.004-0.479,0.08-0.662,0.623-0.658
		c4.5,0.024,9.002,0.01,13.504,0.021c0.195,0,0.576-0.159,0.57,0.172c-0.006,0.418,0.402,0.9,0.002,1.247
		c-2.354,2.034-2.393,4.556-1.592,7.269C19.517,33.123,19.503,33.177,19.503,33.301z"/>
	<path fill="#F9F7F8" d="M69.106,55.775c-0.834-1.518-1.826-2.898-3.287-3.887c-1.529-1.033-3.217-1.559-5.061-1.563
		c-2.889-0.01-5.775-0.021-8.664,0.014c-0.592,0.008-0.811-0.148-0.703-0.727c0.014-0.076,0.016-0.158,0-0.232
		c-0.242-1.145,0.301-1.859,1.27-2.35c0.242-0.141,0.51-0.074,0.764-0.074c6.301-0.004,12.598-0.004,18.896-0.002
		c0.955,0,1.043,0.063,1.051,0.992c0.021,2.289,0.021,4.58,0.002,6.871c-0.008,0.979-0.09,1.055-1.084,1.033
		C71.229,55.826,70.163,55.953,69.106,55.775z"/>
	<path fill="#F9F7F8" d="M10.351,69.492c1.117,0,2.234,0.018,3.352-0.01c0.424-0.01,0.518,0.127,0.484,0.535
		c-0.254,3.211-0.496,6.424-0.717,9.637c-0.027,0.4-0.139,0.52-0.541,0.512c-1.271-0.025-2.547,0.008-3.818-0.018
		c-1.514-0.029-2.678-1.164-2.695-2.666c-0.029-2.494,0-4.99-0.02-7.484c-0.002-0.414,0.117-0.523,0.523-0.516
		C8.063,69.51,9.206,69.492,10.351,69.492z"/>
	<path fill="#F9F7F8" d="M73.124,33.271c-2.678,0.011-5.354,0.011-8.029,0.038c-0.521,0.005-0.441-0.207-0.332-0.561
		c0.443-1.42,0.504-2.855,0.08-4.295c-0.283-0.967-0.766-1.813-1.561-2.457c-0.227-0.184-0.488-0.33-0.293-0.686
		c-0.051-0.759,0.332-0.886,1.029-0.875c2.826,0.046,5.654,0.036,8.482,0.006c0.611-0.006,0.861,0.215,0.865,0.793
		c0.02,2.438,0.018,4.877,0,7.315C73.364,32.813,73.319,33.07,73.124,33.271z"/>
	<path fill="#C5CFD9" d="M6.405,62.654c0-1.275,0.018-2.549-0.008-3.824c-0.01-0.445,0.064-0.635,0.582-0.629
		c2.496,0.029,4.994,0.021,7.49,0.006c0.42-0.002,0.584,0.07,0.543,0.553c-0.225,2.592-0.43,5.184-0.592,7.777
		c-0.035,0.537-0.229,0.625-0.701,0.621c-2.236-0.021-4.473-0.023-6.709,0.002c-0.477,0.004-0.629-0.115-0.615-0.604
		C6.429,65.256,6.405,63.955,6.405,62.654z"/>
	<path fill="#E4E0E4" d="M73.124,69.527c1.662-0.012,3.326-0.016,4.986-0.043c0.365-0.006,0.494,0.082,0.492,0.473
		c-0.02,2.521,0.012,5.041-0.021,7.563c-0.02,1.43-1.156,2.58-2.576,2.623c-1.271,0.039-2.545-0.006-3.816-0.014
		c-0.074-0.217-0.012-0.42,0.102-0.594c0.568-0.871,0.613-1.84,0.604-2.838c-0.021-2.02-0.012-4.039-0.004-6.059
		C72.89,70.256,72.843,69.855,73.124,69.527z"/>
	<path fill="#F4A86C" d="M35.956,53.91c-0.164-1.086-0.037-2.18-0.086-3.27c-0.025-0.531,0.158-0.553,0.586-0.35
		c1.225,0.584,2.512,0.98,3.838,1.258c2.354,0.494,4.529-0.166,6.672-1.021c0.67-0.268,1.314-0.598,2.084-0.951
		c-0.074,1.867,0.234,3.676-0.295,5.443c-0.41,1.369-1.236,2.385-2.643,2.844c-0.332-0.314-0.217-0.727-0.234-1.104
		c-0.035-0.699,0.074-1.406-0.111-2.096c-0.156-0.58-0.398-0.707-0.902-0.381c-2.494,1.613-5.084,1.32-7.707,0.428
		C36.696,54.557,36.206,54.4,35.956,53.91z"/>
	<path fill="#E4E0E4" d="M69.106,55.775c1.143-0.006,2.287-0.023,3.432-0.008c0.426,0.006,0.6-0.123,0.596-0.574
		c-0.016-2.521-0.023-5.043,0.006-7.564c0.008-0.688-0.418-0.58-0.824-0.58c-5.721-0.002-11.439,0-17.158-0.002
		c-0.832,0-1.664-0.01-2.496-0.014c0.217-0.225,0.492-0.111,0.738-0.113c8.141-0.002,16.281,0.008,24.422-0.006
		c0.572,0,0.803,0.09,0.791,0.746c-0.045,2.521-0.02,5.045-0.02,7.568c0.002,0.334,0.086,0.654-0.475,0.65
		c-2.912-0.02-5.824-0.002-8.738-0.004C69.288,55.877,69.198,55.811,69.106,55.775z"/>
	<path fill="#E4E0E4" d="M73.124,33.271c0-2.651-0.016-5.304,0.016-7.956c0.008-0.605-0.152-0.806-0.783-0.798
		c-2.729,0.033-5.459,0.035-8.189-0.001c-0.641-0.008-1.1,0.063-1.178,0.796c-0.131-0.709,0.09-0.965,0.877-0.958
		c4.682,0.042,9.363,0.033,14.045,0.016c0.523-0.002,0.705,0.094,0.697,0.664c-0.033,2.549-0.029,5.099-0.002,7.646
		c0.006,0.523-0.15,0.646-0.648,0.633C76.347,33.271,74.735,33.281,73.124,33.271z"/>
	<path fill="#9FA9B6" d="M73.13,44.545c0-2.674-0.016-5.348,0.014-8.021c0.006-0.576-0.154-0.758-0.742-0.753
		c-3.193,0.027-6.387,0.015-9.58,0.015c0.195-0.262,0.479-0.152,0.721-0.152c4.783-0.001,9.566,0.013,14.35,0.001
		c0.51-0.001,0.727,0.075,0.719,0.662c-0.035,2.546-0.027,5.095-0.004,7.642c0.004,0.502-0.125,0.668-0.645,0.654
		C76.351,44.549,74.739,44.559,73.13,44.545z"/>
	<path fill="#9FA9B6" d="M69.89,58.289c0.164-0.195,0.389-0.104,0.582-0.104c2.496,0.006,4.992,0.035,7.486,0.021
		c0.52-0.004,0.65,0.15,0.646,0.654c-0.023,2.549-0.025,5.096,0.002,7.645c0.006,0.514-0.137,0.66-0.648,0.656
		c-2.262-0.021-4.523-0.02-6.787,0.021c-0.619,0.01-0.787-0.225-0.678-0.777c0.541,0.354,1.135,0.438,1.77,0.385
		c0.416-0.035,0.611-0.229,0.615-0.639c0.018-2.338,0.014-4.678,0.002-7.018c-0.002-0.424-0.221-0.604-0.629-0.609
		c-0.494-0.008-0.988,0.006-1.48-0.01C70.46,58.504,70.138,58.539,69.89,58.289z"/>
	<path fill="#9FA9B6" d="M73.12,22.014c0-2.957,0-5.914,0-8.871c1.664-0.008,3.33-0.006,4.994-0.029
		c0.373-0.006,0.488,0.109,0.486,0.483c-0.016,2.653-0.016,5.31,0,7.962c0.002,0.375-0.113,0.49-0.486,0.484
		C76.45,22.02,74.786,22.021,73.12,22.014z"/>
	<path fill="#E18424" d="M28.579,17.361c0.238,0.233,0.541,0.143,0.816,0.143c7.457,0.004,14.914,0.004,22.371,0.003
		c1.041,0,1.08-0.072,0.576-0.961c-1.168-2.062-2.807-3.701-4.615-5.191c-0.236-0.194-0.459-0.409-0.688-0.616
		c3.691,0.871,7.732,4.445,8.996,8.037c-0.328,0-0.623,0-0.92,0c-8.715,0-17.43,0-26.145,0c-1.16,0-1.162-0.002-0.645-1.033
		C28.396,17.609,28.493,17.488,28.579,17.361z"/>
	<path fill="#E4E0E4" d="M54.216,80.131c0-4.467,0-8.934,0.002-13.4c1.766-0.012,3.529-0.012,5.293-0.037
		c0.379-0.006,0.484,0.121,0.48,0.49c-0.02,1.506-0.027,3.012,0.004,4.518c0.008,0.477-0.18,0.557-0.592,0.547
		c-0.883-0.023-1.768-0.02-2.648-0.006c-1.422,0.025-2.092,0.699-2.098,2.117c-0.01,1.74-0.002,3.479-0.004,5.219
		C54.651,79.869,54.761,80.264,54.216,80.131z"/>
	<path fill="#E4E0E4" d="M52.331,10.63c6.611-0.001,13.225-0.019,19.834,0.017c0.818,0.004,1.068-0.236,0.971-1.008
		c-0.053-0.41-0.043-0.835-0.002-1.248c0.123-1.296-0.145-2.477-0.945-3.52c1.273-0.008,2.551-0.053,3.822-0.014
		c1.422,0.043,2.527,1.196,2.574,2.633c0.029,0.91-0.016,1.824,0.02,2.733c0.016,0.442-0.119,0.567-0.563,0.563
		c-1.77-0.022-3.539-0.004-5.311-0.004c-6.533,0-13.066,0.002-19.602-0.006C52.864,10.775,52.556,10.91,52.331,10.63z"/>
	<path fill="#FEBB84" d="M35.956,53.91c2.164,1.225,4.477,1.531,6.9,1.082c0.703-0.131,1.295-0.508,1.877-0.9
		c0.791-0.531,1.02-0.436,1.248,0.52c0.258,1.074,0.025,2.17,0.131,3.252c-0.268,0.092-0.527,0.229-0.803,0.264
		c-1.914,0.256-3.846,0.316-5.746-0.014C37.452,57.746,36.056,56.041,35.956,53.91z"/>
	<path fill="#FDD0A2" d="M62.026,80.129c-1.529,0.01-3.061,0.018-4.588,0.029c-0.252,0.002-0.455,0.002-0.443-0.354
		c0.049-1.705-0.082-3.414,0.072-5.119c1.545-0.17,3.096-0.027,4.643-0.074c0.277-0.008,0.48,0.121,0.496,0.385
		c0.088,1.674,0.217,3.348-0.08,5.018C62.118,80.057,62.062,80.09,62.026,80.129z"/>
	<path fill="#FDD0A2" d="M27.339,80.129c-1.375,0.01-2.752,0.021-4.127,0.023c-0.213,0-0.516,0.086-0.504-0.293
		c0.059-1.727-0.141-3.455,0.107-5.178c1.395-0.158,2.795-0.025,4.191-0.072c0.322-0.01,0.516,0.154,0.531,0.445
		c0.082,1.605,0.135,3.213-0.031,4.816C27.497,79.975,27.415,80.057,27.339,80.129z"/>
	<path fill="#C5CFD9" d="M69.89,58.289c0.881,0.006,1.762,0.025,2.643,0.01c0.414-0.008,0.611,0.094,0.607,0.559
		c-0.018,2.541-0.016,5.082-0.004,7.623c0.004,0.398-0.137,0.566-0.543,0.543c-0.387-0.021-0.783-0.049-1.164,0.008
		c-0.531,0.078-0.809-0.141-0.936-0.625C70.292,63.699,70.089,60.994,69.89,58.289z"/>
	<path fill="#F9F7F8" d="M73.124,69.527c0.002,2.363-0.045,4.729,0.021,7.09c0.037,1.295-0.158,2.471-0.957,3.512
		c-0.396,0.051-0.738,0.143-0.777-0.494c-0.191-3.166-0.42-6.328-0.66-9.49c-0.037-0.484,0.029-0.715,0.584-0.662
		C71.929,69.539,72.528,69.518,73.124,69.527z"/>
	<path fill="#F3A86B" d="M24.364,31.01c0,0.988-0.025,1.977,0.012,2.963c0.02,0.498-0.139,0.559-0.576,0.439
		c-0.633-0.17-1.152-0.494-1.514-1.025c-0.98-1.456-1.18-3.031-0.566-4.673c0.385-1.027,1.254-1.438,2.324-1.249
		c0.357,0.063,0.311,0.277,0.313,0.504c0.002,1.014,0,2.027,0,3.042C24.36,31.01,24.362,31.01,24.364,31.01z"/>
	<path fill="#F4A86B" d="M59.825,30.977c0-0.963,0.02-1.928-0.01-2.891c-0.016-0.454,0.078-0.637,0.59-0.629
		c1.217,0.02,1.752,0.357,2.133,1.533c0.467,1.445,0.254,2.821-0.484,4.129c-0.191,0.344-0.459,0.631-0.777,0.863
		c-0.408,0.297-0.914,0.618-1.355,0.428c-0.32-0.139-0.078-0.713-0.09-1.09C59.808,32.539,59.825,31.758,59.825,30.977z"/>
	<path fill="#E08324" d="M44.716,25.121c0.252-0.207,0.553-0.11,0.828-0.111c4.322-0.006,8.646-0.02,12.967,0.011
		c0.678,0.005,0.939-0.151,0.881-0.862c-0.063-0.75-0.041-1.511-0.006-2.265c0.025-0.526-0.184-0.709-0.682-0.651
		c-0.18,0.021-0.363,0.002-0.547,0.002c-11.51,0-23.021-0.002-34.531-0.002c0.184-0.226,0.438-0.127,0.656-0.127
		c11.816-0.002,23.631,0.01,35.445-0.012c0.777-0.001,0.992,0.248,0.939,0.98c-0.059,0.803-0.031,1.613-0.008,2.418
		c0.016,0.48-0.182,0.636-0.645,0.635C54.915,25.123,49.815,25.123,44.716,25.121z"/>
	<path fill="#FCBA83" d="M27.339,80.129c0-1.557-0.029-3.115,0.018-4.672c0.02-0.645-0.211-0.789-0.805-0.771
		c-1.244,0.033-2.492,0.002-3.736-0.002c1.07-0.252,2.16-0.057,3.238-0.104c0.676-0.029,1.355,0.033,2.029-0.01
		c0.598-0.037,0.83,0.123,0.807,0.773c-0.053,1.352-0.051,2.707,0,4.061c0.021,0.619-0.16,0.852-0.773,0.758
		C27.862,80.123,27.599,80.139,27.339,80.129z"/>
	<path fill="#FDBB84" d="M62.026,80.129c0-1.604-0.012-3.209,0.01-4.813c0.006-0.471-0.145-0.637-0.623-0.629
		c-1.447,0.02-2.896,0.002-4.346-0.002c0.781-0.244,1.582-0.08,2.373-0.104c1.041-0.031,2.082,0.012,3.121-0.01
		c0.445-0.008,0.582,0.152,0.572,0.59c-0.023,1.328-0.008,2.654-0.008,3.98C63.126,80.189,63.126,80.189,62.026,80.129z"/>
	<path fill="#010000" d="M41.983,41.264c0.678,0,1.354-0.018,2.027,0.004c0.771,0.023,1.287,0.516,1.281,1.182
		c-0.006,0.668-0.52,1.145-1.299,1.152c-1.352,0.014-2.705,0.016-4.057,0c-0.781-0.01-1.285-0.492-1.279-1.17
		c0.004-0.666,0.52-1.145,1.299-1.164C40.632,41.248,41.31,41.264,41.983,41.264z"/>
	<path fill="#010100" d="M51.632,31.906c0.727,0.082,1.148,0.387,1.256,1.004c0.102,0.584-0.15,1.092-0.697,1.246
		c-1.146,0.323-2.314,0.582-3.488,0.778c-0.559,0.093-1.02-0.245-1.178-0.813c-0.164-0.588,0-1.178,0.594-1.359
		C49.306,32.4,50.53,32.168,51.632,31.906z"/>
	<path fill="#010101" d="M36.073,34.974c-1.109-0.261-2.336-0.495-3.525-0.854c-0.537-0.162-0.771-0.703-0.625-1.281
		c0.152-0.602,0.6-0.988,1.201-0.891c1.176,0.191,2.346,0.453,3.494,0.775c0.545,0.152,0.805,0.66,0.705,1.245
		C37.218,34.586,36.792,34.888,36.073,34.974z"/>
	<path fill="#010101" d="M35.909,73.82c0-0.676-0.016-1.352,0.006-2.025c0.023-0.756,0.459-1.197,1.143-1.203
		c0.666-0.004,1.162,0.441,1.182,1.184c0.033,1.4,0.033,2.807,0,4.209c-0.02,0.775-0.547,1.244-1.24,1.209
		c-0.65-0.035-1.07-0.508-1.088-1.268C35.897,75.227,35.909,74.523,35.909,73.82z"/>
	<path fill="#010101" d="M50.813,73.914c0,0.703,0.02,1.404-0.006,2.105c-0.027,0.699-0.469,1.146-1.1,1.172
		c-0.637,0.025-1.184-0.389-1.205-1.068c-0.051-1.479-0.049-2.963-0.006-4.441c0.021-0.688,0.543-1.102,1.186-1.09
		c0.682,0.014,1.104,0.451,1.127,1.219c0.021,0.701,0.006,1.402,0.006,2.104C50.813,73.914,50.813,73.914,50.813,73.914z"/>
	<path d="M44.532,73.984c0,0.648,0.016,1.299-0.002,1.949c-0.021,0.773-0.5,1.27-1.184,1.26c-0.654-0.008-1.139-0.486-1.148-1.215
		c-0.021-1.404-0.023-2.809,0-4.211c0.014-0.725,0.516-1.188,1.182-1.178c0.664,0.008,1.125,0.475,1.148,1.209
		C44.55,72.527,44.532,73.256,44.532,73.984z"/>
</g>
</svg>
