<?xml version="1.0" encoding="utf-8"?>
<!-- Generator: Adobe Illustrator 16.0.2, SVG Export Plug-In . SVG Version: 6.00 Build 0)  -->
<!DOCTYPE svg PUBLIC "-//W3C//DTD SVG 1.1 Tiny//EN" "http://www.w3.org/Graphics/SVG/1.1/DTD/svg11-tiny.dtd">
<svg version="1.1" baseProfile="tiny" id="Layer_1" xmlns="http://www.w3.org/2000/svg" xmlns:xlink="http://www.w3.org/1999/xlink"
	 x="0px" y="0px" width="85px" height="85px" viewBox="0 0 85 85" xml:space="preserve">
<g>
	<path d="M82.497,52.186c0,5.365,0,10.729,0,16.093c-0.492,3.253-2.383,5.313-5.455,6.329c-0.583,0.192-0.745,0.52-0.739,1.087
		c0.02,1.921,0.01,3.842,0.004,5.764c-0.001,0.358,0.055,0.734-0.216,1.039c-6.874,0-13.748,0-20.623,0
		c-0.251-0.281-0.221-0.627-0.221-0.964c-0.004-4.841-0.004-9.682-0.002-14.523c0-1.044,0.293-2.009,0.834-2.889
		c0.271-0.438,0.243-0.772-0.04-1.203c-1.093-1.669-1.136-3.367,0.01-5.036c0.309-0.45,0.46-0.916,0.449-1.459
		c-0.018-0.885-0.02-1.771,0-2.654c0.013-0.62-0.231-0.848-0.866-0.907c-2.382-0.217-4.785-0.214-7.146-0.607
		c-4.485-0.749-7.805-3.133-9.827-7.248c-0.521-1.062-0.533-1.07-1.464-0.319c-2.323,1.873-4.926,3.202-7.807,3.965
		c-0.639,0.17-0.899,0.478-0.892,1.139c0.023,2.237,0.012,4.478,0.007,6.717c-0.001,0.486,0.142,0.904,0.407,1.313
		c1.26,1.95,1.186,3.667-0.253,5.462c-0.307,0.383-0.348,0.709-0.116,1.13c0.93,1.683,1.263,3.482,1.232,5.408
		c-0.061,3.825-0.017,7.652-0.021,11.479c0,0.409,0.081,0.84-0.222,1.198c-6.874,0-13.748,0-20.624,0
		c-0.251-0.281-0.22-0.628-0.22-0.964c-0.004-4.005-0.025-8.009,0.01-12.013c0.015-1.763,0.407-3.464,1.26-5.021
		c0.299-0.544,0.262-0.909-0.163-1.374c-1.295-1.421-1.433-3.44-0.324-5.032c0.458-0.66,0.648-1.319,0.631-2.108
		c-0.034-1.611-0.032-3.224,0-4.835c0.015-0.667-0.217-1.017-0.858-1.271c-3.112-1.245-5.288-3.424-6.385-6.625
		c-0.213-0.622-0.274-1.266-0.276-1.917c-0.039-0.288,0.085-0.591-0.082-0.867c0-1.406,0-2.813,0-4.219
		c0.118-1.729,1.046-3.007,2.316-4.073c0.423-0.353,0.487-0.687,0.332-1.218c-0.491-1.678-0.221-3.208,1.147-4.408
		c0.417-0.367,0.498-0.744,0.36-1.247c-0.288-1.057-0.475-2.122-0.47-3.233c0.023-5.177,4.271-9.449,9.461-9.469
		c2.369-0.01,4.738-0.008,7.108,0c5.454,0.016,9.756,4.421,9.64,9.871c-0.021,0.997-0.255,1.961-0.524,2.914
		c-0.138,0.486-0.025,0.817,0.345,1.17c1.815,1.732,1.936,3.825,0.358,5.766c-0.232,0.286-0.431,0.55-0.103,0.876
		c0.368,0.367,0.604,0.031,0.849-0.185c1.166-1.03,1.771-2.353,2.021-3.865c0.074-0.453-0.059-0.745-0.476-0.946
		c-1.167-0.562-1.625-1.558-1.636-2.796c-0.014-1.458-0.16-2.938,0.041-4.368c0.204-1.446,0.111-2.677-0.732-3.924
		c-0.515-0.761-0.6-1.758-0.569-2.718c0.03-0.91,0-1.823,0.009-2.733c0.016-1.615,0.687-2.874,2.104-3.668
		c0.459-0.258,0.613-0.546,0.544-1.063c-0.204-1.516,0.341-2.737,1.492-3.74c0.503-0.439,1.103-0.532,1.694-0.695
		c2.239,0,4.479,0,6.719,0c2.127,0.403,3.319,1.828,3.332,4.033c0.016,2.733,0.02,5.467-0.003,8.2
		c-0.011,1.323-0.385,2.572-0.938,3.762c-0.302,0.653-0.46,1.286-0.349,2.029c0.13,0.87,0.077,1.768,0.019,2.651
		c-0.049,0.75-0.351,1.418-0.893,1.946c-0.342,0.334-0.457,0.711-0.503,1.178c-0.141,1.475-0.151,2.96-0.317,4.434
		c-0.049,0.426,0.03,0.824,0.189,1.22c1.088,2.705,2.179,5.41,3.241,8.124c0.256,0.659,0.615,0.802,1.308,0.728
		c2.868-0.308,5.736-0.62,8.614-0.855c0.77-0.063,1.413-0.273,1.881-0.926c0.307-0.429,0.332-0.808-0.075-1.17
		c-1.839-1.631-2.987-3.649-3.397-6.078c-0.073-0.436-0.318-0.628-0.75-0.623c-0.391,0.007-0.777-0.049-1.163-0.126
		c-3.051-0.615-4.395-3.862-2.573-6.377c0.476-0.657,0.506-1.09,0.089-1.776c-1.866-3.072-0.866-7.386,2.564-9.532
		c0.604-0.379,1.108-0.827,1.6-1.34c2.519-2.628,5.558-3.753,9.192-3.047c1.403,0.272,2.798,0.558,4.249,0.542
		c1.525-0.018,3.015-0.188,4.446-0.715c0.695-0.257,1.174-0.131,1.604,0.491c0.871,1.264,1.912,2.409,2.709,3.724
		c1.937,3.201,1.96,6.507,0.418,9.851c-0.296,0.639-0.369,1.068,0.156,1.654c1.729,1.93,1.04,5.691-2.222,6.465
		c-0.458,0.108-0.918,0.199-1.39,0.185c-0.435-0.013-0.68,0.18-0.753,0.614c-0.39,2.348-1.534,4.28-3.216,5.938
		c-0.751,0.74-0.371,1.806,0.773,2.231c0.536,0.199,1.103,0.323,1.633,0.534c4.229,1.668,6.986,4.687,8.246,9.053
		c0.158,0.546,0.172,1.129,0.162,1.702C82.458,51.541,82.329,51.877,82.497,52.186z"/>
	<path fill="#5F5F5F" d="M82.365,51.224c0.049-0.014,0.093-0.006,0.134,0.024c0,0.313,0,0.626,0,0.938
		C82.277,51.892,82.317,51.558,82.365,51.224z"/>
	<path fill="#545454" d="M2.635,41.277l-0.069,0.001L2.502,41.25c0-0.261,0-0.521,0-0.782C2.714,40.709,2.695,40.991,2.635,41.277z"
		/>
	<path fill="#4FC0E8" d="M23.969,42.842c0.537,0.229,1.032,0.439,1.527,0.652c0.362,0.155,0.24,0.483,0.24,0.747
		c0.006,4.479,0.015,8.954-0.007,13.43c-0.003,0.586,0.112,1.039,0.578,1.431c0.566,0.479,0.924,1.074,0.583,1.857
		c-0.334,0.764-0.982,0.908-1.736,0.906c-3.929-0.012-7.859-0.012-11.789,0c-0.762,0.002-1.413-0.17-1.715-0.938
		c-0.289-0.732-0.001-1.336,0.57-1.795c0.494-0.396,0.618-0.868,0.615-1.488c-0.023-5.231-0.017-10.462-0.008-15.692
		c0-0.317-0.182-0.814,0.46-0.725c0.436,0.061,1.053-0.317,1.14,0.594c0.108,1.135,0.369,2.255,0.563,3.382
		c0.386,2.254,2.099,3.735,4.312,3.728c2.191-0.007,3.919-1.527,4.288-3.771C23.711,44.397,23.839,43.635,23.969,42.842z"/>
	<path fill="#E5E8EC" d="M43.485,35.546c0.896,2.229,1.733,4.325,2.585,6.414c0.137,0.336,0.15,0.621-0.044,0.944
		c-0.225,0.377-0.373,0.801-0.602,1.177c-0.206,0.336-0.136,0.521,0.222,0.633c0.024,0.008,0.046,0.026,0.069,0.037
		c0.557,0.279,1.138,0.816,1.664,0.768c0.598-0.056,0.627-0.954,0.933-1.47c0.154-0.26,0.342-0.354,0.614-0.382
		c3.288-0.328,6.575-0.655,9.858-0.998c0.384-0.041,0.505,0.073,0.484,0.454c-0.019,0.36-0.003,0.731,0.058,1.087
		c0.231,1.345,1.362,2.234,2.723,2.16c0.784-0.043,1.532-0.241,2.243-0.579c0.221,0.21,0.127,0.456,0.127,0.668
		c0.006,4.892-0.004,9.784,0.018,14.676c0.003,0.563-0.103,0.768-0.716,0.743c-1.352-0.052-2.705-0.02-4.06-0.015
		c-0.709,0.003-1.269-0.233-1.561-0.928c-0.284-0.677-0.063-1.258,0.453-1.677c0.615-0.498,0.742-1.091,0.725-1.842
		c-0.045-2.055-0.01-4.112-0.019-6.167c-0.005-0.879,0.106-1.719,0.708-2.408c0.222-0.254,0.117-0.393-0.076-0.571
		c-0.286-0.267-0.555-0.549-0.83-0.825c-0.778-0.777-0.782-0.78-1.398,0.168c-0.4,0.615-0.682,1.279-0.817,2.006
		c-0.043,0.227,0,0.563-0.416,0.512c-2.991-0.362-6.069-0.108-8.978-0.978c-3.753-1.121-6.072-3.743-7.071-7.532
		c-0.055-0.205-0.097-0.385,0.058-0.583C41.698,39.405,42.674,37.609,43.485,35.546z"/>
	<path fill="#E5E8EC" d="M67.021,45.779c3.566,1.27,4.803,0.557,5.218-2.921c3.935,0.874,7.365,4.85,7.594,8.985
		c0.221,4.026,0.041,8.064,0.087,12.097c0.004,0.368-0.106,0.5-0.485,0.494c-1.249-0.019-2.498-0.032-3.745,0.003
		c-0.608,0.018-0.67-0.503-0.923-0.818c-0.246-0.308,0.16-0.437,0.303-0.607c1.28-1.532,1.321-3.597,0.041-5.153
		c-0.269-0.33-0.37-0.644-0.368-1.055c0.017-1.925-0.002-3.852,0.011-5.776c0.01-1.399-0.361-2.662-1.219-3.78
		c-0.282-0.368-0.53-0.569-0.872-0.077c-0.073,0.104-0.181,0.186-0.273,0.277c-0.33,0.333-0.774,0.612-0.959,1.011
		c-0.198,0.428,0.391,0.709,0.514,1.126c0.144,0.479,0.241,0.951,0.239,1.451c-0.007,2.236,0.012,4.475-0.015,6.713
		c-0.006,0.529,0.089,0.94,0.519,1.291c0.599,0.487,0.987,1.098,0.657,1.908c-0.33,0.808-1.027,0.935-1.805,0.921
		c-1.326-0.021-2.652-0.017-3.979,0.002c-0.379,0.006-0.549-0.057-0.548-0.499C67.027,56.193,67.021,51.016,67.021,45.779z"/>
	<path fill="#B17946" d="M63.555,11.538c1.708,0.029,3.201,0.553,4.757,0.704c1.786,0.171,3.533,0.045,5.266-0.355
		c0.491-0.113,0.81-0.079,1.104,0.38c0.435,0.677,0.97,1.29,1.417,1.96c1.725,2.586,1.644,5.835-0.188,8.338
		c-0.123,0.167-0.24,0.377-0.412,0.463c-0.409,0.202-0.764,0.266-0.867-0.393c-0.222-1.393-0.987-2.49-1.991-3.452
		c-0.342-0.33-0.564-0.419-0.923-0.01c-0.532,0.606-1.151,1.132-1.694,1.729c-0.317,0.348-0.526,0.386-0.86,0.016
		c-0.559-0.618-1.188-1.171-1.753-1.782c-0.295-0.316-0.487-0.354-0.799-0.013c-0.561,0.615-1.19,1.167-1.751,1.782
		c-0.322,0.354-0.522,0.365-0.862,0.011c-0.97-1.018-2.002-1.975-2.963-3c-0.393-0.42-0.609-0.372-0.962,0.022
		c-0.73,0.813-1.542,1.552-2.252,2.38c-0.53,0.617-0.816,1.38-0.97,2.188c-0.131,0.698-0.594,0.865-1.136,0.429
		c-2.523-2.029-1.97-6.173,1.017-7.433c0.556-0.234,0.948-0.543,1.297-1.03C59.408,12.538,61.321,11.587,63.555,11.538z"/>
	<path fill="#959EA9" d="M73.454,74.765c0,1.51-0.019,3.019,0.01,4.528c0.01,0.477-0.127,0.627-0.611,0.621
		c-1.743-0.026-3.487-0.026-5.23,0c-0.482,0.008-0.614-0.145-0.61-0.619c0.02-2.784,0.033-5.57-0.009-8.354
		c-0.01-0.609,0.367-0.723,0.746-0.913c1.13-0.568,1.13-0.566,0.573-1.679c-0.597-1.19-0.654-1.278-1.759-0.577
		c-0.913,0.582-1.524,0.042-2.194-0.312c-0.501-0.264-0.801-0.285-0.959,0.315c-0.008,0.024-0.022,0.047-0.034,0.07
		c-0.241,0.515-0.721,1.063-0.654,1.537c0.063,0.465,0.854,0.554,1.328,0.805c0.303,0.161,0.376,0.37,0.374,0.685
		c-0.008,2.81-0.017,5.622,0.005,8.434c0.004,0.49-0.17,0.613-0.63,0.605c-1.743-0.021-3.487-0.024-5.23,0.002
		c-0.498,0.008-0.604-0.174-0.601-0.632c0.018-3.045,0.018-6.09,0-9.135c-0.003-0.436,0.136-0.561,0.566-0.608
		c2.476-0.274,4.263-2.068,4.571-4.578c0.046-0.379,0.116-0.551,0.539-0.545c1.379,0.022,2.759,0.017,4.138,0.004
		c0.342-0.004,0.475,0.081,0.546,0.458c0.55,2.9,1.773,4.107,4.738,4.673c0.435,0.083,0.386,0.33,0.386,0.611
		C73.455,71.693,73.454,73.23,73.454,74.765z"/>
	<path fill="#EFCFB3" d="M71.92,22.612c0.256,0.446,0.261,0.83,0.261,1.214c0,2.108,0.027,4.215-0.009,6.322
		c-0.044,2.468-1.05,4.493-3.067,5.924c-0.633,0.448-0.929,0.898-0.811,1.641c0.113,0.714-0.035,1.224-0.876,1.397
		c-0.498,0.104-0.947,0.436-1.315,0.807c-0.291,0.292-0.484,0.25-0.768-0.011c-0.5-0.464-1.098-0.801-1.755-0.977
		c-0.402-0.106-0.498-0.329-0.441-0.675c0.181-1.101-0.234-1.801-1.16-2.492c-1.863-1.386-2.679-3.399-2.71-5.705
		c-0.028-2.054-0.006-4.11-0.008-6.165c0-0.952,0.302-1.774,0.966-2.475c0.257-0.271,0.408-0.266,0.664-0.003
		c1.034,1.062,2.109,2.086,3.129,3.16c0.345,0.364,0.53,0.328,0.844-0.016c0.58-0.633,1.22-1.209,1.808-1.834
		c0.259-0.272,0.428-0.277,0.685-0.003c0.554,0.587,1.161,1.123,1.699,1.723c0.381,0.426,0.641,0.535,1.065,0.027
		C70.664,23.822,71.298,23.246,71.92,22.612z"/>
	<path fill="#656D78" d="M29.565,22.355c0.073,0.944-0.33,1.951-0.551,2.99c-0.043,0.201-0.122,0.406-0.396,0.405
		c-0.261-0.001-0.513,0.027-0.66-0.281c-0.897-1.881-2.481-2.435-4.44-2.341c-3.331,0.161-6.38-0.708-9.109-2.638
		c-0.332-0.235-0.548-0.247-0.843,0.072c-0.655,0.704-1.35,1.374-2.036,2.047c-0.732,0.718-1.211,1.551-1.249,2.602
		c-0.008,0.229,0.011,0.494-0.323,0.527c-0.215,0.021-0.336-0.093-0.397-0.292c-0.795-2.557-1.007-5.062,0.762-7.345
		c1.279-1.65,2.958-2.615,5.071-2.65c2.523-0.042,5.048-0.042,7.57-0.008C26.721,15.496,29.57,18.439,29.565,22.355z"/>
	<path fill="#959EA9" d="M11.546,71.203c0.06-0.971-0.108-2.146,0.142-3.307c0.104-0.486,0.242-0.956,0.433-1.412
		c0.812-1.935,1.005-2.063,3.091-2.063c3.072,0,6.142,0.014,9.213-0.015c0.562-0.005,0.904,0.181,1.215,0.636
		c0.86,1.262,1.34,2.642,1.37,4.162c0.033,1.638-0.004,3.278,0.021,4.918c0.007,0.459-0.103,0.642-0.601,0.634
		c-1.769-0.028-3.539-0.021-5.309-0.006c-0.392,0.003-0.558-0.105-0.549-0.526c0.021-1.119,0.043-2.24-0.007-3.357
		c-0.028-0.633,0.45-0.687,0.815-0.874c1.046-0.541,1.051-0.533,0.519-1.596c-0.622-1.243-0.665-1.315-1.808-0.618
		c-0.769,0.469-1.335,0.188-1.912-0.191c-0.661-0.434-1.006-0.385-1.351,0.405c-0.63,1.441-0.689,1.427,0.706,2.162
		c0.309,0.163,0.461,0.337,0.453,0.709c-0.025,1.116-0.024,2.236-0.001,3.355c0.009,0.41-0.13,0.537-0.534,0.532
		c-1.795-0.018-3.592-0.018-5.388,0c-0.418,0.005-0.535-0.146-0.525-0.544C11.562,73.273,11.546,72.336,11.546,71.203z"/>
	<path fill="#EFCFB3" d="M42.291,27.968c-0.084,2.675-0.534,5.274-1.655,7.724c-2.341,5.113-6.222,8.475-11.57,10.186
		c-0.698,0.222-0.806,0.04-0.784-0.622c0.046-1.386,0.012-1.387,1.313-1.874c2.295-0.862,3.862-2.989,3.829-5.447
		c-0.015-1.049,0.24-1.691,1.144-2.335c2.427-1.729,3.438-4.288,3.688-7.181c0.04-0.458,0.183-0.752,0.597-0.989
		c0.687-0.393,1.231-0.965,1.606-1.665c0.192-0.359,0.361-0.446,0.77-0.296c1.147,0.415,1.156,0.388,1.106,1.641
		C42.323,27.396,42.306,27.682,42.291,27.968z"/>
	<path fill="#EFCFB3" d="M12.492,33.458c1.197,0,2.395,0.018,3.593-0.011c0.454-0.01,0.646,0.08,0.632,0.592
		c-0.037,1.354-0.028,2.708-0.003,4.061c0.007,0.424-0.141,0.526-0.538,0.52c-1.354-0.02-2.708,0.021-4.062-0.019
		c-0.777-0.023-1.393-0.537-2.051-0.882c-0.435-0.228-0.651-0.182-0.799,0.269c-0.024,0.073-0.062,0.142-0.097,0.213
		c-0.243,0.515-0.737,1.075-0.655,1.532c0.076,0.421,0.875,0.538,1.356,0.786c0.258,0.133,0.386,0.292,0.384,0.6
		c-0.012,1.875-0.018,3.751,0.002,5.626c0.006,0.532-0.207,0.473-0.557,0.301c-2.597-1.278-4.135-3.341-4.535-6.209
		c-0.169-1.213-0.121-2.445-0.057-3.667c0.112-2.137,1.715-3.661,3.869-3.707C10.149,33.438,11.321,33.458,12.492,33.458z"/>
	<path fill="#EFCFB3" d="M19.226,30.899c-1.923,0-3.846-0.018-5.77,0.011c-0.511,0.008-0.661-0.137-0.648-0.652
		c0.034-1.506,0.039-3.015,0.003-4.522c-0.024-1.058,0.806-1.506,1.4-2.124c0.151-0.158,0.339,0.011,0.494,0.096
		c2.831,1.556,5.885,2.096,9.08,2.04c1.629-0.029,1.953,0.32,1.954,1.953c0,0.78-0.043,1.562,0.014,2.338
		c0.047,0.66-0.112,0.9-0.837,0.878C23.02,30.861,21.123,30.899,19.226,30.899z"/>
	<path fill="#FE816E" d="M45.089,13.083c0.021,1.281,0.006,2.809-0.65,4.257c-0.205,0.454-0.416,0.695-0.967,0.649
		c-1.392-0.114-2.708,0.1-3.726,1.188c-0.223,0.238-0.362,0.051-0.521-0.07c-0.672-0.513-1.472-0.723-2.242-1.031
		c-1.227-0.492-1.922-1.549-2.143-2.85c-0.201-1.186-0.077-2.391-0.081-3.585c-0.002-0.624,0.263-1.129,0.899-1.313
		c0.574-0.167,1.106-0.035,1.444,0.489c0.357,0.549,0.442,1.253-0.038,1.664c-0.807,0.69-0.402,1.078,0.164,1.532
		c0.021,0.016,0.038,0.035,0.056,0.055c1.067,1.066,1.253,1.041,2.071-0.297c0.56-0.913,0.658-1.912,0.476-2.935
		c-0.074-0.417-0.071-0.586,0.437-0.593c1.506-0.019,3.02,0.151,4.518-0.135c0.376-0.072,0.295,0.198,0.298,0.379
		C45.095,11.263,45.089,12.044,45.089,13.083z"/>
	<path fill="#FE816D" d="M26.347,33.458c0.13,0,0.261,0.008,0.39-0.002c3.043-0.241,4.764,1.924,4.014,5.243
		c-0.304,1.349-1.264,2.176-2.644,2.439c-1.367,0.26-2.503-0.154-3.407-1.217c-0.237-0.278-0.283-0.591-0.28-0.941
		c0.008-1.61,0.023-3.22-0.008-4.83c-0.012-0.535,0.128-0.762,0.69-0.703C25.513,33.493,25.932,33.458,26.347,33.458z"/>
	<path fill="#EFCFB3" d="M19.37,41.222c0.597,0,1.196,0.017,1.792-0.006c0.356-0.014,0.454,0.119,0.393,0.454
		c-0.198,1.098-0.352,2.204-0.584,3.295c-0.187,0.884-0.897,1.424-1.716,1.411c-0.814-0.013-1.531-0.583-1.701-1.447
		c-0.211-1.07-0.343-2.153-0.543-3.224c-0.072-0.386,0.014-0.508,0.411-0.491C18.07,41.242,18.721,41.222,19.37,41.222z"/>
	<path fill="#FE816E" d="M41.25,7.658c-0.83,0-1.661,0.011-2.491-0.002c-0.844-0.015-1.385-0.501-1.411-1.237
		c-0.027-0.764,0.52-1.307,1.402-1.316c1.634-0.02,3.269-0.02,4.904,0c0.898,0.011,1.426,0.527,1.403,1.307
		c-0.02,0.767-0.567,1.237-1.471,1.248C42.806,7.664,42.029,7.658,41.25,7.658z"/>
	<path fill="#EFCFB3" d="M23.826,77.342c0.884,0,1.768,0.023,2.651-0.009c0.452-0.019,0.551,0.14,0.557,0.569
		c0.03,2.008,0.044,2.006-1.931,2.006c-1.301,0-2.6-0.014-3.899,0.01c-0.441,0.008-0.633-0.067-0.641-0.584
		c-0.029-1.992-0.051-1.992,1.938-1.992C22.942,77.342,23.383,77.342,23.826,77.342z"/>
	<path fill="#EFCFB3" d="M14.767,79.908c-0.883,0-1.768-0.021-2.649,0.01c-0.427,0.014-0.575-0.092-0.585-0.551
		c-0.042-2.025-0.058-2.025,1.979-2.025c1.299,0,2.599,0.017,3.898-0.008c0.416-0.008,0.575,0.075,0.583,0.54
		c0.036,2.036,0.054,2.034-1.976,2.034C15.6,79.908,15.184,79.908,14.767,79.908z"/>
	<path fill="#EFCFB3" d="M76.061,69.25c0.066-0.64-0.334-1.663,0.146-2.098c0.419-0.381,1.425-0.111,2.172-0.129
		c0.053-0.001,0.104,0,0.155,0c1.549,0,1.632,0.097,1.129,1.574c-0.501,1.472-1.48,2.519-2.913,3.151
		c-0.492,0.218-0.749,0.237-0.699-0.432C76.097,70.673,76.061,70.022,76.061,69.25z"/>
	<path fill="#FA6D50" d="M21.866,36.073c0,0.65-0.034,1.303,0.01,1.95c0.034,0.503-0.164,0.596-0.624,0.602
		c-1.993,0.023-1.992,0.039-1.992-1.96c0-0.859,0.029-1.717-0.011-2.575c-0.025-0.53,0.173-0.644,0.671-0.645
		c1.945-0.004,1.945-0.022,1.945,1.927C21.866,35.604,21.866,35.838,21.866,36.073z"/>
	<path fill="#FB6D51" d="M38.612,23.162c-0.005,1.196-0.83,2.224-1.958,2.485c-0.42,0.099-0.611,0.059-0.6-0.446
		c0.028-1.347,0.039-2.696-0.003-4.042c-0.02-0.63,0.276-0.616,0.712-0.497C37.843,20.958,38.617,22.003,38.612,23.162z"/>
	<path fill="#ECCDB1" d="M28.27,29.572c0.162-0.521-0.408-1.397,0.821-1.299c1.141,0.092,1.772,0.46,1.8,1.287
		c0.028,0.856-0.63,1.278-1.807,1.357C27.768,31.005,28.499,30.035,28.27,29.572z"/>
	<path fill="#ECCCB1" d="M10.276,29.617c-0.193,0.478,0.444,1.384-0.8,1.302c-1.179-0.079-1.827-0.485-1.813-1.342
		c0.015-0.831,0.642-1.215,1.772-1.303C10.708,28.177,10.1,29.098,10.276,29.617z"/>
	<path fill="#EDCDB1" d="M74.747,26.931c0.101-0.472-0.383-1.307,0.821-1.209c1.164,0.095,1.765,0.448,1.767,1.292
		c0.003,0.843-0.599,1.295-1.759,1.278C74.593,28.275,74.767,28.501,74.747,26.931z"/>
	<path fill="#EECEB2" d="M56.709,27.023c-0.067,0.603,0.34,1.395-0.839,1.292c-1.141-0.1-1.77-0.477-1.759-1.313
		c0.009-0.835,0.617-1.191,1.786-1.278C57.202,25.626,56.526,26.577,56.709,27.023z"/>
	<path fill="#FB6D51" d="M43.8,21.909c-0.129,0.529,0.364,1.335-0.796,1.249c-1.208-0.088-1.794-0.451-1.772-1.343
		c0.02-0.852,0.583-1.188,1.78-1.252C44.323,20.491,43.555,21.469,43.8,21.909z"/>
	<path fill="#959EA8" d="M61.862,42.548c0-0.113-0.015-0.171,0.002-0.217c0.135-0.355-0.334-0.937,0.325-1.073
		c0.565-0.117,1.938,0.744,1.99,1.18c0.014,0.105-0.065,0.247-0.144,0.334c-0.154,0.174-0.32,0.347-0.511,0.477
		c-0.455,0.31-1.004,0.68-1.501,0.452C61.629,43.519,61.945,42.901,61.862,42.548z"/>
	<path fill="#959DA8" d="M69.581,42.488c0.002,0.026,0.005,0.053,0,0.077c-0.066,0.389,0.219,0.939-0.172,1.14
		c-0.414,0.214-0.917-0.075-1.293-0.343c-0.358-0.258-0.992-0.423-0.763-1.055c0.196-0.541,1.649-1.215,2.052-1.054
		c0.198,0.079,0.168,0.237,0.172,0.383C69.586,41.919,69.581,42.204,69.581,42.488z"/>
	<path fill="#C8CDD5" d="M71.362,64.424c0.858-0.008,2.16,1.547,2.04,2.377c-0.034,0.238-0.18,0.198-0.334,0.189
		c-0.947-0.068-2.032-1.146-2.145-2.095C70.878,64.495,71.03,64.372,71.362,64.424z"/>
	<path fill="#C9CED5" d="M60.101,64.424c0.421-0.065,0.479,0.144,0.399,0.545c-0.188,0.961-1.081,1.858-2.032,1.996
		c-0.172,0.025-0.349,0.111-0.396-0.184C57.936,65.946,59.223,64.412,60.101,64.424z"/>
	<path fill="#030303" d="M69.557,51.537c-0.687-0.023-1.278-0.651-1.256-1.332c0.021-0.691,0.646-1.281,1.33-1.259
		c0.69,0.022,1.28,0.647,1.258,1.331C70.864,50.969,70.239,51.56,69.557,51.537z"/>
	<path fill="#030303" d="M69.571,56.696c-0.685-0.016-1.285-0.637-1.271-1.318c0.014-0.688,0.633-1.286,1.317-1.271
		c0.688,0.013,1.287,0.638,1.271,1.318C70.873,56.116,70.254,56.712,69.571,56.696z"/>
	<path d="M65.802,34.741c-1.236,0.014-2.233-0.413-3.104-1.183c-0.35-0.309-0.509-0.562-0.042-0.898
		c0.187-0.135,0.346-0.314,0.496-0.492c0.484-0.571,0.88-1.05,1.693-0.286c0.588,0.553,1.481,0.393,2.122-0.226
		c0.404-0.389,0.61-0.28,0.898,0.068c0.198,0.238,0.437,0.442,0.659,0.663c0.77,0.768,0.773,0.772-0.115,1.454
		C67.622,34.445,66.73,34.75,65.802,34.741z"/>
	<path fill="#020202" d="M69.589,28.292c-0.706-0.003-1.289-0.583-1.287-1.28c0.001-0.705,0.579-1.268,1.296-1.267
		c0.715,0.001,1.295,0.573,1.289,1.273C70.883,27.718,70.294,28.295,69.589,28.292z"/>
	<path fill="#010101" d="M61.89,28.291c-0.726,0.019-1.285-0.515-1.305-1.238c-0.017-0.732,0.511-1.289,1.235-1.303
		c0.73-0.016,1.293,0.516,1.309,1.233C63.146,27.702,62.606,28.271,61.89,28.291z"/>
</g>
</svg>
