<?xml version="1.0" encoding="utf-8"?>
<!-- Generator: Adobe Illustrator 16.0.0, SVG Export Plug-In . SVG Version: 6.00 Build 0)  -->
<!DOCTYPE svg PUBLIC "-//W3C//DTD SVG 1.1//EN" "http://www.w3.org/Graphics/SVG/1.1/DTD/svg11.dtd">
<svg version="1.1" id="Color" xmlns="http://www.w3.org/2000/svg" xmlns:xlink="http://www.w3.org/1999/xlink" x="0px" y="0px"
	 width="85px" height="85px" viewBox="0 0 85 85" enable-background="new 0 0 85 85" xml:space="preserve">
<g id="Layer_copy">
</g>
<g id="Layer_6_copy">
</g>
<g id="Layer_4_copy">
	<g id="Layer_7_copy">
	</g>
</g>
<g id="Layer_8_copy">
</g>
<g id="Layer_10_copy">
</g>
<g id="Layer_11_copy">
</g>
<g id="Layer_9_copy">
</g>
<g id="Layer_12_copy">
</g>
<g id="Layer_13_copy">
</g>
<g id="Layer_14_copy">
</g>
<g id="Layer_5_copy">
</g>
<g id="Layer_15_copy">
</g>
<g id="Layer_16_copy">
</g>
<g id="Layer_17_copy">
</g>
<g id="Layer_18_copy">
</g>
<g id="Layer_19_copy">
</g>
<g id="Layer_20_copy_2_00000120537884136381431390000009169741791805370520_">
</g>
<g id="Layer_21_copy">
</g>
<g id="Layer_22_copy">
</g>
<g id="Layer_24_copy">
</g>
<g id="Layer_25_copy">
</g>
<g id="Layer_26_copy">
</g>
<g>
	<g id="Layer_20_copy_2">
		<path fill="#FFFFFF" d="M80.511,29.94c-0.914-2.836-2.174-5.547-3.781-7.973c-0.535-0.819-1.135-1.607-1.764-2.363
			c-3.059-2.678-7.312-5.293-12.857-6.239c-2.553-0.22-5.42-0.188-8.602,0.222c-8.887,1.197-21.49,5.86-30.977,9.768
			c-3.654,1.64-6.773,3.152-9.074,4.285c-0.189,0.096-0.347,0.222-0.536,0.315c-0.347,0.222-0.692,0.44-1.04,0.63
			c-0.062,0.031-0.126,0.063-0.189,0.127c-0.219,0.157-0.473,0.282-0.692,0.44c-1.04,0.662-1.922,1.544-2.836,2.396
			c-4.001,3.687-5.86,10.524-5.767,16.004c0.127,9.266,5.673,18.246,12.699,23.57c7.217,5.482,14.842,9.832,23.791,10.775
			c6.43,0.662,12.951-0.346,18.906-2.803c0.158-0.062,0.283-0.127,0.441-0.189c0.787-0.348,1.574-0.693,2.363-1.104
			c3.213-1.639,6.207-3.688,8.887-6.145c0.283-0.252,0.598-0.535,0.881-0.818c2.807-2.711,5.23-5.83,7.121-9.297
			c0.127-0.221,0.223-0.41,0.348-0.631l-6.02,0.127h-0.031c-0.094,0-0.188,0.031-0.252,0.094l-0.914,0.883
			c-1.479,1.387-3.057,2.678-4.727,3.844c-0.062,0.064-0.125,0.127-0.125,0.223c0,0.094,0,0.188,0.061,0.252l3.908,4.758
			l-6.648-3.277c-0.096-0.062-0.188-0.029-0.283,0c-2.236,1.293-4.602,2.363-7.027,3.184c-0.156,0.062-0.252,0.221-0.188,0.379
			l1.701,6.145l-4.662-5.42c-0.064-0.062-0.158-0.096-0.254-0.096c-0.031,0-0.062,0-0.062,0c-3.182,0.789-6.459,1.166-9.768,1.166
			c-10.146,0-19.854-3.748-27.385-10.523l-1.008-0.914c-0.062-0.031-0.062-0.127,0-0.156l1.893-2.111l1.102,0.977
			c6.965,6.303,16.008,9.77,25.398,9.77c9.736,0,19-3.688,26.059-10.367l0.914-0.852c0.031,0,0.031-0.031,0.031-0.031l0.031-0.031
			l0.031-0.031l8.383,1.701c0.094-0.188,0.188-0.377,0.314-0.566c0.283-0.566,0.566-1.135,0.818-1.732
			c1.229-2.805,2.111-5.83,2.68-8.949c0.031-0.221,0.061-0.41,0.094-0.631H66.521c0.125-0.566,0.189-1.229,0.189-1.922
			c0-0.691-0.064-1.322-0.189-1.922h15.408c0.189,0,0.314-0.127,0.314-0.314v1.322C82.685,40.56,82.149,35.013,80.511,29.94z
			 M66.017,46.86c0,1.953-0.473,3.371-1.48,4.348c-2.08,2.08-6.334,2.049-11.281,2.018c-0.629,0-1.26,0-1.922,0
			c-8.129,0-14.652-3.467-14.652-6.365c0-2.867,6.553-6.363,14.652-6.363c0.662,0,1.293,0,1.922,0c0.6,0,1.197,0,1.766,0
			c4.158,0,7.688,0.189,9.518,2.018C65.544,43.489,66.017,44.937,66.017,46.86z M75.122,49.413c-1.166,2.898-2.898,5.703-4.82,7.719
			c-0.062,0.062-0.094,0.158-0.094,0.254c-1.576-3.152-5.736-5.326-5.736-5.326c0.158-0.127,0.316-0.252,0.473-0.41
			c0.6-0.598,1.041-1.354,1.324-2.236H75.122L75.122,49.413z M66.3,44.308c-0.283-0.883-0.693-1.636-1.324-2.236
			c-2.268-2.27-6.646-2.236-11.721-2.205c-0.631,0-1.262,0-1.922,0c-8.762,0-15.283,3.685-15.283,6.994
			c0,0.156,0.031,0.314,0.062,0.473H25.366c0.285,0,0.348-0.283,0.285-0.473c0,0,0,0,0-0.031c-0.062-0.064-0.127-0.127-0.252-0.127
			c-1.104,0.031-2.207,0.031-3.277,0.062l0.189-0.346l0.031,0.031c0.031,0.031,0.094,0.031,0.158,0.031
			c0.125,0,0.221-0.062,0.283-0.158c0,0,0.41-0.693,1.262-1.795c1.322-1.671,3.75-4.316,7.594-6.837
			c5.766-3.813,15.975-8.161,31.826-7.153c5.262,0.348,9.043,1.891,11.219,4.602c1.826,2.299,2.52,5.452,1.953,9.137H66.302v0.031
			H66.3z"/>
		<path fill="#E8EEFE" d="M25.62,46.86l-3.781,0.346l-1.166,0.096l-1.922,1.135l-2.773,3.623l0,0c0,0,0,0-0.033,0c0,0,0,0-0.029,0
			c-0.631-0.094-9.107-1.324-8.068-7.059c0.978-5.48,6.775-5.355,12.037-3.212c1.545,0.631,2.711,1.478,3.592,2.33
			c0.158,0.158,0.316,0.314,0.441,0.441c-0.852,1.07-1.229,1.766-1.26,1.795c-0.062,0.096-0.156,0.158-0.283,0.158
			c-0.064,0-0.096,0-0.158-0.031c0,0-0.031,0-0.031-0.031l-0.189,0.348c1.104-0.033,2.205-0.062,3.277-0.062
			C25.493,46.702,25.556,46.765,25.62,46.86L25.62,46.86z"/>
		<g>
			<g>
				<path fill="#37383C" d="M15.978,59.37c-0.033,0-0.096,0-0.127-0.031c-0.158-0.062-0.221-0.252-0.158-0.41
					c1.734-3.623,3.498-6.459,3.529-6.49c0.094-0.158,0.285-0.189,0.441-0.096c0.158,0.096,0.189,0.283,0.096,0.441
					c-0.033,0.031-1.766,2.836-3.498,6.428C16.196,59.306,16.071,59.37,15.978,59.37z"/>
			</g>
			<g>
				<path fill="#37383C" d="M13.802,65.294c-0.031,0-0.031,0-0.062,0l-2.174-0.475c-0.631-0.127-1.104-0.535-1.26-1.135
					c-0.189-0.662,0.062-1.418,0.662-1.953l3.15-2.932c0.126-0.125,0.314-0.125,0.441,0c0.125,0.127,0.125,0.316,0,0.441
					l-3.151,2.932c-0.41,0.377-0.599,0.883-0.474,1.322c0.096,0.348,0.379,0.6,0.789,0.662l2.174,0.473
					c0.156,0.031,0.283,0.189,0.252,0.379C14.054,65.2,13.929,65.294,13.802,65.294z"/>
			</g>
		</g>
		<g>
			<g>
				<path fill="#37383C" d="M25.366,47.333c-0.725,0-1.449,0.031-2.205,0.031c-0.473,0-0.945,0-1.418,0.031
					c-0.127,0-0.283,0-0.41,0.031c-0.977,0.094-1.891,0.629-2.521,1.387c-0.221,0.283-0.473,0.566-0.691,0.852
					c-0.631,0.756-1.262,1.543-1.893,2.301c-0.062,0.094-0.156,0.125-0.221,0.094h-0.031c0,0,0,0-0.031,0
					c-0.189-0.062-0.348-0.314-0.189-0.535c0.285-0.348,0.566-0.693,0.852-1.041c0.408-0.504,0.818-1.008,1.26-1.512
					c0.283-0.348,0.535-0.693,0.852-0.977c0.787-0.758,1.859-1.166,2.961-1.197c0.127,0,0.252,0,0.379,0
					c1.104-0.033,2.205-0.062,3.277-0.062c0.125,0,0.221,0.062,0.252,0.125c0,0,0,0,0,0.031
					C25.714,47.048,25.649,47.333,25.366,47.333z"/>
			</g>
		</g>
		<g>
			<path fill="#37383C" d="M78.937,60.22l-0.693-0.158l-8.539-1.764c-0.221-0.062-0.475,0.031-0.631,0.221l-0.031,0.031
				l-0.914,0.883c-6.963,6.586-16.039,10.209-25.617,10.209c-9.264,0-18.119-3.402-24.988-9.609l-1.166-1.041l-0.189-0.156
				c-0.062-0.064-0.158-0.096-0.221-0.096c-0.094,0-0.156,0.031-0.221,0.096l-0.031,0.031l-2.08,2.301
				c-0.284,0.312-0.252,0.787,0.062,1.07l1.008,0.912c7.625,6.902,17.521,10.684,27.793,10.684c3.277,0,6.555-0.377,9.736-1.135
				l5.451,6.334c0.031,0.031,0.062,0.062,0.096,0.062c0.031,0.031,0.094,0.031,0.125,0.031c0.062,0,0.096,0,0.158-0.031
				s0.127-0.094,0.156-0.188c0.031-0.064,0.031-0.127,0-0.189l-2.016-7.217c2.33-0.818,4.6-1.826,6.711-3.057l6.523,3.215
				l1.291,0.631c0.127,0.061,0.283,0.029,0.379-0.096c0.094-0.127,0.094-0.283,0-0.408L70.3,70.808l-3.812-4.602
				c1.607-1.135,3.121-2.395,4.539-3.719l0.818-0.787l5.607-0.125l1.355-0.031c0.348,0,0.631-0.252,0.662-0.6
				c0-0.031,0-0.031,0-0.062C79.472,60.567,79.251,60.284,78.937,60.22z M78.81,60.913l-1.008,0.031l-6.02,0.127h-0.031
				c-0.096,0-0.189,0.031-0.252,0.096l-0.914,0.881c-1.48,1.387-3.057,2.68-4.727,3.846c-0.062,0.062-0.127,0.125-0.127,0.221
				c0,0.094,0,0.188,0.062,0.252l3.906,4.758l-6.646-3.277c-0.096-0.061-0.189-0.031-0.283,0c-2.238,1.293-4.602,2.363-7.027,3.184
				c-0.156,0.062-0.252,0.221-0.189,0.379l1.703,6.145l-4.664-5.42c-0.062-0.062-0.158-0.094-0.252-0.094c-0.031,0-0.062,0-0.062,0
				c-3.184,0.787-6.461,1.166-9.77,1.166c-10.146,0-19.852-3.75-27.383-10.525l-1.008-0.914c-0.062-0.031-0.062-0.125,0-0.158
				l1.891-2.109l1.104,0.977c6.963,6.303,16.006,9.77,25.398,9.77c9.734,0,19-3.688,26.059-10.367l0.914-0.852
				c0.031,0,0.031-0.031,0.031-0.031l0.031-0.031l0.031-0.031l8.383,1.701l0.852,0.189c0.031,0,0.031,0.031,0.031,0.031
				L78.81,60.913z"/>
			<path fill="#BBC8F4" d="M78.81,60.851l-0.852-0.189l-8.383-1.701c-0.029,0-0.029,0-0.029,0.031l-0.031,0.031
				c0,0-0.031,0-0.031,0.031l-0.914,0.852c-7.059,6.68-16.322,10.367-26.061,10.367c-9.391,0-18.434-3.467-25.398-9.77l-1.102-0.977
				l-1.892,2.111c-0.031,0.062-0.031,0.125,0,0.156l1.009,0.914c7.529,6.773,17.236,10.523,27.383,10.523
				c3.309,0,6.586-0.408,9.768-1.166c0.031,0,0.062,0,0.062,0c0.096,0,0.189,0.031,0.252,0.096l4.664,5.42l-1.701-6.145
				c-0.031-0.158,0.031-0.314,0.188-0.379c2.428-0.852,4.822-1.922,7.027-3.182c0.094-0.064,0.189-0.064,0.283,0l6.648,3.275
				l-3.938-4.82c-0.064-0.062-0.096-0.158-0.064-0.252c0-0.096,0.064-0.158,0.127-0.223c1.672-1.166,3.246-2.457,4.729-3.844
				l0.912-0.883c0.062-0.062,0.158-0.094,0.252-0.094h0.033l6.018-0.127l1.008-0.031C78.81,60.882,78.81,60.882,78.81,60.851
				S78.81,60.851,78.81,60.851z"/>
		</g>
		<g>
			<g>
				<path fill="#37383C" d="M76.981,21.558C72.823,8.103,64.976,2.589,49.882,2.589c-12.635,0-34,9.389-42.603,13.422
					c-0.945,0.441-1.64,1.262-1.954,2.237c-0.314,0.978-0.189,2.08,0.348,2.962l3.245,5.547c0.662,1.103,1.796,1.764,3.025,1.827
					c0.063,0,0.126,0,0.188,0c0.567,0,1.104-0.126,1.639-0.378c8.855-4.38,30.852-14.589,44.115-14.589
					c8.887,0,15.031,4.476,18.623,8.224c0.062,0.063,0.189,0.127,0.283,0.096c0.031,0,0.062-0.032,0.096-0.032
					C76.95,21.841,77.013,21.685,76.981,21.558z M62.108,13.365c-1.354-0.22-2.773-0.347-4.285-0.347
					c-9.959,0-24.736,5.673-35.293,10.367c-3.654,1.607-6.773,3.121-9.074,4.254h-0.031c-1.449,0.726-3.184,0.189-4.002-1.196
					l-3.214-5.546c-0.44-0.725-0.536-1.639-0.284-2.459c0.252-0.818,0.852-1.512,1.639-1.858c8.541-4.002,29.811-13.36,42.32-13.36
					c14.273,0,21.932,5.01,26.09,17.269c-0.314-0.315-0.66-0.599-1.008-0.914C71.94,16.927,67.653,14.279,62.108,13.365z"/>
				<path fill="#E8EEFE" d="M49.882,3.22c-12.508,0-33.779,9.326-42.351,13.359c-0.788,0.378-1.386,1.04-1.638,1.859
					c-0.252,0.818-0.158,1.701,0.283,2.457l3.246,5.547c0.819,1.387,2.553,1.922,4.002,1.197h0.031
					c2.27-1.135,5.42-2.646,9.074-4.254c10.588-4.728,25.334-10.367,35.293-10.367c1.512,0,2.932,0.125,4.285,0.346
					c5.545,0.914,9.799,3.561,12.855,6.238c0.348,0.316,0.693,0.6,1.008,0.914C71.813,8.261,64.155,3.22,49.882,3.22z"/>
			</g>
		</g>
		<g>
			<path fill="#37383C" d="M75.88,49.286c-0.031,0.031-0.031,0.096-0.064,0.127c-1.195,3.057-3.023,6.049-5.041,8.16
				c-0.062,0.062-0.158,0.096-0.221,0.096s-0.158-0.031-0.221-0.096c-0.062-0.062-0.096-0.125-0.096-0.188
				c-0.029-0.096,0-0.189,0.096-0.254c1.891-2.016,3.623-4.82,4.82-7.719c0.062-0.127,0.096-0.252,0.127-0.348
				c0.062-0.156,0.252-0.252,0.408-0.189C75.849,48.938,75.94,49.128,75.88,49.286z"/>
		</g>
		<g>
			<path fill="#37383C" d="M77.202,44.308c-0.031,0.094-0.031,0.221-0.062,0.314c-0.031,0.158-0.188,0.283-0.348,0.252
				c-0.156-0.031-0.283-0.189-0.252-0.379c0-0.062,0.031-0.156,0.031-0.221c0.535-3.685-0.125-6.835-1.953-9.137
				c-2.174-2.742-5.955-4.285-11.219-4.601c-15.816-1.008-26.027,3.341-31.826,7.154c-3.811,2.521-6.238,5.164-7.594,6.835
				c-0.85,1.07-1.229,1.766-1.26,1.797c-0.062,0.094-0.156,0.156-0.283,0.156c-0.062,0-0.094,0-0.158-0.031c0,0-0.031,0-0.031-0.031
				c-0.125-0.094-0.158-0.252-0.096-0.41c0.033-0.062,0.475-0.818,1.355-1.922c1.355-1.699,3.812-4.347,7.658-6.898
				c5.859-3.877,16.195-8.32,32.234-7.28c5.451,0.348,9.391,1.984,11.691,4.854C77.013,37.22,77.737,40.496,77.202,44.308z"/>
		</g>
		<path fill="#BBC8F4" d="M25.62,46.86c-0.064-0.062-0.127-0.127-0.254-0.127c-1.102,0.031-2.205,0.031-3.275,0.062l0.188-0.346
			l0.031,0.031c0.033,0.029,0.096,0.029,0.158,0.029c0.127,0,0.221-0.061,0.285-0.156c0,0,0.41-0.693,1.26-1.797
			C25.052,45.726,25.556,46.702,25.62,46.86z"/>
		<line fill="none" x1="22.343" y1="46.229" x2="22.247" y2="46.45"/>
		<polyline fill="none" points="22.058,46.796 21.87,47.206 21.743,47.427 19.097,52.626 19.065,52.626 19.003,52.815 		"/>
		<path fill="#1E4CE0" d="M82.181,44.622v4.475c0,0.189-0.125,0.316-0.314,0.316H66.142c-0.188,0-0.314-0.127-0.314-0.316
			c0-0.156,0.127-0.312,0.314-0.312h0.316c0.125-0.568,0.188-1.23,0.188-1.924s-0.062-1.322-0.188-1.922h-0.316
			c-0.188,0-0.314-0.127-0.314-0.314c0-0.158,0.127-0.314,0.314-0.314h15.725C82.056,44.308,82.181,44.464,82.181,44.622z"/>
		<g>
			<path fill="#37383C" d="M66.458,44.937c-0.031-0.221-0.096-0.439-0.158-0.629c-0.283-0.883-0.693-1.636-1.324-2.236
				c-2.268-2.27-6.646-2.236-11.721-2.205c-0.631,0-1.262,0-1.922,0c-8.762,0-15.283,3.685-15.283,6.994
				c0,0.156,0.031,0.314,0.062,0.473c0.6,3.182,6.9,6.521,15.25,6.521c0.662,0,1.293,0,1.922,0c0.6,0,1.197,0,1.766,0
				c3.971,0,7.406-0.188,9.484-1.797c0.158-0.125,0.314-0.252,0.475-0.408c0.598-0.6,1.039-1.355,1.322-2.236
				c0.062-0.189,0.127-0.41,0.156-0.631c0.127-0.566,0.189-1.229,0.189-1.922C66.646,46.167,66.583,45.536,66.458,44.937z
				 M64.534,51.208c-2.078,2.08-6.334,2.049-11.279,2.018c-0.631,0-1.262,0-1.922,0c-8.131,0-14.654-3.467-14.654-6.365
				c0-2.867,6.555-6.363,14.654-6.363c0.66,0,1.291,0,1.922,0c0.598,0,1.195,0,1.764,0c4.16,0,7.689,0.189,9.518,2.018
				c0.977,0.976,1.48,2.394,1.48,4.347C66.017,48.813,65.544,50.231,64.534,51.208z"/>
			<path fill="#E8EEFE" d="M66.017,46.86c0,1.953-0.473,3.371-1.48,4.348c-2.08,2.08-6.334,2.049-11.281,2.018
				c-0.629,0-1.26,0-1.922,0c-8.129,0-14.652-3.467-14.652-6.365c0-2.867,6.553-6.363,14.652-6.363c0.662,0,1.293,0,1.922,0
				c0.6,0,1.197,0,1.766,0c4.158,0,7.688,0.189,9.518,2.018C65.544,43.489,66.017,44.937,66.017,46.86z"/>
		</g>
		<path fill="#BBC8F4" d="M76.54,44.308H66.3c-0.283-0.883-0.693-1.636-1.324-2.236c-2.268-2.27-6.646-2.236-11.721-2.205
			c-0.631,0-1.262,0-1.922,0c-8.762,0-15.283,3.685-15.283,6.994c0,0.156,0.031,0.314,0.062,0.473H25.366
			c0.285,0,0.348-0.283,0.285-0.473c0,0,0,0,0-0.031c-0.062-0.158-0.566-1.135-1.67-2.27c1.324-1.669,3.75-4.316,7.594-6.835
			c5.768-3.814,15.977-8.163,31.826-7.154c5.264,0.347,9.043,1.892,11.217,4.601C76.415,37.472,77.108,40.623,76.54,44.308z"/>
		<path fill="#BBC8F4" d="M75.122,49.413c-1.166,2.898-2.898,5.703-4.82,7.719c-0.062,0.062-0.094,0.158-0.094,0.254
			c-1.576-3.152-5.736-5.326-5.736-5.326c0.158-0.127,0.316-0.252,0.473-0.41c0.6-0.598,1.041-1.354,1.324-2.236H75.122
			L75.122,49.413z"/>
		<path fill="none" d="M70.333,57.573c-0.031-0.062-0.062-0.125-0.096-0.188"/>
	</g>
	<g id="Layer_27_copy">
	</g>
</g>
</svg>
