<?xml version="1.0" encoding="utf-8"?>
<!-- Generator: Adobe Illustrator 16.0.0, SVG Export Plug-In . SVG Version: 6.00 Build 0)  -->
<!DOCTYPE svg PUBLIC "-//W3C//DTD SVG 1.1//EN" "http://www.w3.org/Graphics/SVG/1.1/DTD/svg11.dtd">
<svg version="1.1" id="Capa_1" xmlns="http://www.w3.org/2000/svg" xmlns:xlink="http://www.w3.org/1999/xlink" x="0px" y="0px"
	 width="85px" height="85px" viewBox="0 0 85 85" enable-background="new 0 0 85 85" xml:space="preserve">
<g>
	<path fill="#60E2BD" d="M64.865,35.1v40.854c0,3.615-2.934,6.547-6.549,6.547H26.684c-3.615,0-6.549-2.932-6.549-6.547V35.1
		c0-3.615,2.934-6.547,6.549-6.547h4.689h22.256h4.688C61.932,28.553,64.865,31.484,64.865,35.1z"/>
	<path fill="#F7F09A" d="M53.418,44.141v22.771c0,0.748-0.604,1.354-1.352,1.354H32.932c-0.746,0-1.352-0.605-1.352-1.354V44.141
		c0-0.748,0.605-1.354,1.352-1.354h19.135C52.814,42.787,53.418,43.393,53.418,44.141z"/>
	<path fill="#F7F09A" d="M42.502,2.5c5.709,0,10.338,4.631,10.338,10.342s-4.629,10.34-10.338,10.34
		c-5.713,0-10.342-4.629-10.342-10.34C32.159,7.131,36.788,2.5,42.502,2.5z"/>
	<path fill="#58D6AF" d="M53.629,21.617v6.936H31.373v-6.936c0-0.928,0.752-1.68,1.68-1.68H42.5h9.449
		C52.877,19.938,53.629,20.689,53.629,21.617z"/>
</g>
</svg>
