<?xml version="1.0" encoding="utf-8"?>
<!-- Generator: Adobe Illustrator 16.0.2, SVG Export Plug-In . SVG Version: 6.00 Build 0)  -->
<!DOCTYPE svg PUBLIC "-//W3C//DTD SVG 1.1 Tiny//EN" "http://www.w3.org/Graphics/SVG/1.1/DTD/svg11-tiny.dtd">
<svg version="1.1" baseProfile="tiny" id="Layer_1" xmlns="http://www.w3.org/2000/svg" xmlns:xlink="http://www.w3.org/1999/xlink"
	 x="0px" y="0px" width="85px" height="85px" viewBox="0 0 85 85" xml:space="preserve">
<g>
	<path fill-rule="evenodd" d="M73.414,27.242c0.804-0.069,1.611-0.016,2.416-0.03c0.999-0.018,1.971-0.183,2.875-0.616
		c2.082-0.995,3.414-2.569,3.725-4.912c0-0.676,0-1.352,0-2.028c-0.131-1.031-0.333-2.024-0.963-2.906
		c-1.457-2.036-3.49-2.887-5.91-2.917c-2.754-0.034-5.51-0.001-8.266-0.015c-0.396-0.002-0.945,0.193-1.145-0.228
		c-0.186-0.392,0.313-0.666,0.561-0.941c1.006-1.119,1.607-2.397,1.744-3.911c0.225-2.481-1.502-5.966-5.207-6.24
		c-9.982,0-19.965,0-29.947,0C31.4,2.652,29.671,3.285,28.06,4.288c-4.71,2.934-7.132,8.298-6.172,13.716
		c0.237,1.34,0.684,2.617,1.25,3.846c0.318,0.691,0.285,1.212-0.219,1.837c-0.909,1.128-1.371,2.459-1.132,3.929
		c0.415,2.557,1.938,4.143,4.498,4.632c0.681,0.13,0.942,0.432,1.101,1.068c1.043,4.197,3.522,7.341,7.139,9.646
		c0.941,0.601,1.977,0.996,3.095,1.448c-0.811,0.557-1.609,0.962-2.184,1.63c-0.38,0.442-0.731,0.465-1.221,0.213
		c-1.434-0.734-2.876-1.452-4.321-2.166c-0.961-0.476-1.097-0.436-1.567,0.498c-0.786,1.561-0.987,1.623,0.741,2.43
		c0.536,0.249,0.692,0.554,0.376,1.094c-0.998,1.704-1.964,3.427-2.947,5.14c-0.287,0.499-0.713,0.604-1.194,0.472
		c-0.554-0.151-0.263-0.606-0.216-0.919c0.689-4.598,1.418-9.19,2.103-13.791c0.235-1.582-0.32-2.879-1.628-3.792
		c-2.219-1.549-6.371-0.817-6.806,3.085c-0.543,4.878-1.293,9.731-1.895,14.602c-0.081,0.655-0.382,0.89-1.022,0.867
		c-1.09-0.04-2.179-0.01-3.264,0.15c-2.947,0.439-5.409,1.763-7.355,4.018c-1.494,1.729-2.445,3.71-2.648,6.014
		c0,2.911,0,5.823,0,8.735c0.126,0.498,0.232,0.987,0.659,1.363c0.604,0.532,1.28,0.736,2.072,0.734
		c3.691-0.014,7.382-0.007,11.074-0.006c1.466,0,1.427,0.014,1.928,1.394c1.903,5.241,6.358,7.243,11.475,5.938
		c3.172-0.812,5.195-3.138,6.149-6.307c0.305-1.015,0.289-1.023,1.309-1.023c3.509-0.003,7.019-0.003,10.528,0
		c1.029,0,1.004,0.013,1.311,1.022c1.635,5.396,6.799,7.927,12.193,6.11c2.829-0.952,4.604-3.112,5.506-5.961
		c0.369-1.169,0.359-1.173,1.617-1.173c3.796-0.001,7.592,0.007,11.387-0.004c1.495-0.005,2.305-0.657,2.652-2.088
		c0-2.86,0-5.72,0-8.579c-0.07-0.086-0.076-0.187-0.08-0.291c-0.137-2.799-1.521-4.994-3.475-6.843
		c-2.42-2.291-5.389-3.24-8.695-3.232c-4.106,0.011-8.214-0.001-12.32,0.007c-0.559,0.001-0.953-0.069-0.948-0.786
		c0.019-3.171,0.013-6.343,0.003-9.515c-0.002-0.558,0.203-0.829,0.775-0.796c0.232,0.013,0.468,0,0.701,0
		c4.965,0,9.93,0.005,14.895-0.002c2.004-0.003,3.745-0.708,5.065-2.205c1.745-1.979,2.177-4.331,1.276-6.776
		c-0.904-2.454-2.764-3.903-5.4-4.262c-0.31-0.042-0.62-0.083-0.922-0.158c-0.607-0.154-0.947-0.567-0.889-1.099
		C72.48,27.567,72.865,27.29,73.414,27.242z M29.387,53.976c0.084-0.452,0.363-0.794,0.573-1.165c0.736-1.305,1.482-2.604,2.234-3.9
		c0.097-0.165,0.139-0.542,0.473-0.286c0.357,0.273,1.176,0.215,1.042,0.81c-0.349,1.541-0.254,3.021,0.273,4.542
		C32.416,53.976,30.921,53.976,29.387,53.976z"/>
	<path fill-rule="evenodd" fill="#B17946" d="M54.167,39.83c0.597-0.856,1.137-1.552,1.593-2.301
		c1.506-2.475,2.258-5.164,2.235-8.071c-0.021-2.521,0.004-5.042-0.006-7.563c-0.013-3.187-1.97-5.275-5.151-5.485
		c-3.344-0.221-6.688-0.429-10.032-0.628c-3.606-0.214-6.617-1.653-8.968-4.395c-0.458-0.534-0.785-0.619-1.26-0.122
		c-0.071,0.074-0.16,0.132-0.243,0.195c-1.173,0.879-1.174,0.879-0.149,1.994c0.969,1.054,0.969,1.055-0.361,1.632
		c-0.356,0.154-0.711,0.316-1.074,0.457c-2.538,0.982-3.744,2.851-3.657,5.549c0.018,0.552-0.098,0.843-0.708,0.772
		c-0.183-0.021-0.285-0.102-0.354-0.25c-1.447-3.104-2.181-6.271-0.899-9.633c1.598-4.191,5.401-6.865,9.914-6.875
		C44.09,5.086,53.135,5.1,62.18,5.1c0.053,0,0.104,0.001,0.156,0c1.455-0.01,2.507,0.659,3.074,1.976
		c0.584,1.359,0.264,2.589-0.761,3.643c-0.181,0.187-0.371,0.364-0.549,0.553c-0.931,0.994-1.295,2.132-0.756,3.432
		c0.545,1.313,1.591,1.963,2.994,1.972c3.223,0.021,6.446-0.003,9.669,0.012c1.933,0.009,3.57,1.438,3.784,3.259
		c0.243,2.062-0.919,3.852-2.857,4.322c-0.968,0.234-1.968,0.089-2.952,0.105c-0.602,0.01-1.195,0.037-1.77,0.225
		c-1.729,0.565-2.861,2.305-2.631,4.038c0.268,2.015,1.751,3.394,3.758,3.492c2.254,0.11,3.871,1.639,3.936,3.722
		c0.07,2.251-1.666,3.973-4.054,3.977c-5.952,0.011-11.904,0.003-17.856,0.003C55.007,39.83,54.647,39.83,54.167,39.83z"/>
	<path fill-rule="evenodd" fill="#EFCFB3" d="M29.687,25.875c0-1.946,0.013-3.557-0.004-5.168c-0.014-1.296,0.574-2.16,1.763-2.656
		c1.243-0.518,2.475-1.063,3.712-1.595c0.233-0.1,0.45-0.239,0.726-0.071c2.933,1.786,6.223,1.999,9.528,2.17
		c2.541,0.132,5.081,0.304,7.621,0.473c1.283,0.086,2.377,1.069,2.379,2.352c0.002,3.375,0.259,6.761-0.141,10.123
		c-0.637,5.377-5.432,10.11-10.801,10.777c-7.388,0.918-13.595-3.764-14.685-11.134C29.512,29.293,29.737,27.408,29.687,25.875z"/>
	<path fill-rule="evenodd" fill="#FB6E51" d="M25.043,56.605c0.346,0,0.597,0,0.849,0c9.975,0.003,19.951,0.014,29.926-0.011
		c0.734-0.002,0.896,0.213,0.877,0.903c-0.048,1.657-0.015,1.658-1.669,1.658c-0.987,0-1.975,0.016-2.961-0.007
		c-0.397-0.009-0.528,0.11-0.548,0.523c-0.096,2.087-0.108,2.086,1.932,2.086c0.883,0,1.767,0.019,2.649-0.008
		c0.419-0.012,0.618,0.08,0.589,0.551c-0.039,0.647,0.17,1.379-0.068,1.926c-0.245,0.563-1.094,0.397-1.658,0.618
		c-1.027,0.399-1.994,0.896-2.809,1.633c-0.382,0.345-0.768,0.443-1.258,0.442c-5.611-0.013-11.222-0.012-16.833,0
		c-0.464,0-0.823-0.102-1.187-0.422c-1.277-1.123-2.78-1.794-4.459-2.062c-0.236-0.038-0.458-0.041-0.562-0.32
		C26.933,61.645,26.005,59.173,25.043,56.605z"/>
	<path fill-rule="evenodd" fill="#FE816E" d="M78.918,61.76c-0.977,0-1.877-0.007-2.779,0.001c-2.383,0.02-3.99,1.636-4.009,4.026
		c-0.001,0.208-0.021,0.418,0.005,0.623c0.055,0.435-0.154,0.513-0.54,0.51c-2.313-0.015-4.626-0.011-6.938-0.002
		c-0.28,0.001-0.481-0.09-0.689-0.274c-1.209-1.07-2.594-1.811-4.192-2.097c-0.462-0.082-0.558-0.305-0.554-0.74
		c0.021-2.183,0.024-4.366,0-6.55c-0.006-0.502,0.124-0.66,0.648-0.656c3.769,0.024,7.539-0.061,11.305,0.039
		c3.386,0.089,5.891,1.775,7.575,4.696C78.81,61.441,78.841,61.564,78.918,61.76z"/>
	<path fill-rule="evenodd" fill="#FE816E" d="M6.002,61.763c1.694-3.101,4.115-4.904,7.482-5.104
		c2.768-0.165,5.554-0.039,8.331-0.061c0.382-0.003,0.537,0.146,0.661,0.485c0.848,2.31,1.708,4.613,2.585,6.913
		c0.14,0.367,0.152,0.521-0.299,0.634c-1.404,0.355-2.653,1.032-3.727,2.011c-0.206,0.187-0.408,0.278-0.688,0.277
		c-2.311-0.009-4.622-0.018-6.932,0.005c-0.458,0.005-0.572-0.149-0.556-0.578c0.021-0.566,0.039-1.136-0.117-1.7
		c-0.466-1.685-1.891-2.839-3.63-2.878C8.13,61.745,7.147,61.763,6.002,61.763z"/>
	<path fill-rule="evenodd" fill="#959EA9" d="M27.055,79.766c-3.581,0.005-6.436-2.851-6.431-6.431
		c0.004-3.545,2.842-6.406,6.369-6.421c3.581-0.016,6.462,2.832,6.474,6.397C33.48,76.893,30.63,79.762,27.055,79.766z"/>
	<path fill-rule="evenodd" fill="#959EA9" d="M57.924,79.766c-3.576-0.018-6.41-2.889-6.392-6.473
		c0.019-3.56,2.911-6.401,6.495-6.379c3.524,0.021,6.352,2.89,6.349,6.441C64.373,76.932,61.502,79.784,57.924,79.766z"/>
	<path fill-rule="evenodd" fill="#FBD670" d="M44.605,54.011c-1.221,0-2.443-0.01-3.664,0.006c-0.388,0.004-0.493-0.07-0.349-0.481
		c0.752-2.151,1.439-4.327,2.219-6.47c0.549-1.508,1.979-2.258,3.557-1.991c1.447,0.245,2.527,1.529,2.549,3.099
		c0.025,1.741-0.016,3.483,0.022,5.223c0.012,0.547-0.194,0.636-0.671,0.625C47.049,53.992,45.827,54.011,44.605,54.011z"/>
	<path fill-rule="evenodd" fill="#A9B1BC" d="M20.758,54.01c-1.273,0-1.254,0.003-1.081-1.286c0.64-4.727,1.263-9.454,1.898-14.181
		c0.145-1.075,0.676-1.419,1.882-1.255c0.766,0.104,1.091,0.631,0.937,1.646c-0.637,4.203-1.291,8.401-1.939,12.601
		c-0.063,0.409-0.133,0.817-0.199,1.228C22.057,54.01,22.058,54.01,20.758,54.01z"/>
	<path fill-rule="evenodd" fill="#CBD0D7" d="M42.494,69.466c2.206,0,4.412,0.01,6.619-0.008c0.512-0.004,0.758,0.065,0.453,0.627
		c-0.121,0.224-0.168,0.488-0.242,0.736c-0.366,1.239-0.365,1.239-1.641,1.239c-3.686,0-7.371-0.013-11.057,0.015
		c-0.515,0.003-0.75-0.135-0.804-0.641c-0.03-0.28-0.118-0.558-0.202-0.829c-0.356-1.141-0.359-1.14,0.878-1.14
		C38.497,69.466,40.496,69.466,42.494,69.466z"/>
	<path fill-rule="evenodd" fill="#CBD0D8" d="M12.061,69.466c2.052,0,4.104,0.015,6.156-0.01c0.561-0.007,0.721,0.121,0.433,0.642
		c-0.099,0.179-0.138,0.391-0.2,0.588c-0.428,1.375-0.428,1.375-1.927,1.375c-3.532,0-7.064-0.011-10.597,0.012
		c-0.568,0.004-0.81-0.084-0.796-0.742c0.039-1.863,0.005-1.864,1.866-1.864C8.685,69.466,10.373,69.466,12.061,69.466z"/>
	<path fill-rule="evenodd" fill="#CBD0D8" d="M73.018,69.466c2.026,0,4.053,0.016,6.078-0.011c0.541-0.008,0.779,0.078,0.771,0.708
		c-0.02,1.897,0.011,1.897-1.885,1.897c-3.48,0-6.962-0.013-10.441,0.015c-0.514,0.004-0.752-0.116-0.797-0.64
		c-0.027-0.305-0.141-0.605-0.236-0.9c-0.346-1.07-0.349-1.069,0.822-1.069C69.227,69.466,71.122,69.466,73.018,69.466z"/>
	<path fill-rule="evenodd" fill="#A9B1BC" d="M51.528,48.282c0-1.763,0.013-3.526-0.009-5.29c-0.006-0.429,0.105-0.566,0.555-0.575
		c2.005-0.039,2.004-0.055,2.004,1.92c0,2.981-0.014,5.964,0.014,8.945c0.005,0.564-0.117,0.751-0.719,0.743
		c-1.844-0.025-1.845,0.003-1.845-1.854C51.528,50.875,51.528,49.578,51.528,48.282z"/>
	<path fill-rule="evenodd" fill="#FBD66F" d="M40.342,46.254c-0.871,2.564-1.688,4.952-2.486,7.348
		c-0.099,0.298-0.231,0.414-0.542,0.417c-0.321,0.004-0.503-0.094-0.666-0.393c-1.236-2.281-0.456-5.118,1.8-6.411
		C39.007,46.895,39.597,46.63,40.342,46.254z"/>
	<path fill-rule="evenodd" fill="#FAD56F" d="M77.209,66.913c-0.439,0-0.898,0.078-1.314-0.021c-0.406-0.098-1.12,0.49-1.197-0.444
		c-0.11-1.357,0.271-2.038,1.244-2.107c0.876-0.063,1.76-0.021,2.639-0.021c1.216-0.002,1.216-0.001,1.264,1.247
		c0.053,1.348,0.053,1.348-1.314,1.348C78.09,66.913,77.65,66.913,77.209,66.913z"/>
	<path fill-rule="evenodd" fill="#FAD56F" d="M7.748,66.913c-0.622,0-1.248-0.049-1.862,0.014c-0.65,0.065-0.757-0.21-0.749-0.783
		c0.027-1.825,0.006-1.826,1.79-1.826c0.621,0,1.243-0.014,1.863,0.004c1.205,0.034,1.981,1.293,1.504,2.402
		c-0.102,0.236-0.282,0.186-0.45,0.187C9.146,66.917,8.447,66.913,7.748,66.913z"/>
	<path fill-rule="evenodd" fill="#EFCFB3" d="M27.085,26.998c0,0.674-0.022,1.349,0.008,2.022c0.02,0.425-0.113,0.544-0.533,0.473
		c-1.142-0.194-2.046-1.335-2.021-2.594c0.025-1.219,0.947-2.276,2.092-2.453c0.351-0.054,0.466,0.02,0.458,0.374
		C27.074,25.545,27.085,26.271,27.085,26.998z"/>
	<path fill-rule="evenodd" d="M37.052,32.161c3.697,0,7.322,0,11.022,0c-0.422,1.622-0.749,3.226-1.264,4.766
		c-0.617,1.846-2.483,2.994-4.432,2.911c-2.005-0.085-3.693-1.383-4.228-3.313C37.757,35.105,37.428,33.668,37.052,32.161z"/>
	<path fill-rule="evenodd" d="M33.545,26.983c-1.377,0-1.377,0-1.303-1.365c0.12-2.205,1.787-3.809,3.937-3.786
		c2.119,0.022,3.757,1.706,3.81,3.915c0.029,1.237,0.029,1.237-1.197,1.237c-0.104,0-0.208,0-0.312,0c-1.071,0-1.071,0-1.091-1.039
		c-0.018-0.961-0.488-1.535-1.263-1.543c-0.777-0.009-1.272,0.575-1.288,1.519C34.821,26.983,34.821,26.983,33.545,26.983z"/>
	<path fill-rule="evenodd" d="M51.563,26.983c-0.027,0-0.053,0-0.078,0c-1.146,0-1.146,0-1.195-1.156
		c-0.034-0.835-0.52-1.392-1.242-1.425c-0.754-0.034-1.291,0.522-1.349,1.398c-0.079,1.183-0.079,1.183-1.253,1.183
		c-1.336,0-1.336,0-1.303-1.358c0.051-2.098,1.699-3.76,3.76-3.792c2.105-0.033,3.792,1.517,3.932,3.611
		c0.004,0.078,0.01,0.156,0.013,0.233C52.896,26.983,52.896,26.983,51.563,26.983z"/>
	<path fill-rule="evenodd" d="M27.064,77.207c-2.12,0.01-3.876-1.725-3.891-3.841c-0.015-2.105,1.731-3.872,3.848-3.893
		c2.096-0.021,3.882,1.742,3.896,3.849C30.931,75.425,29.172,77.198,27.064,77.207z"/>
	<path fill-rule="evenodd" d="M57.929,77.207c-2.107-0.012-3.866-1.791-3.847-3.892c0.02-2.11,1.808-3.869,3.902-3.842
		c2.119,0.026,3.861,1.795,3.842,3.898C61.809,75.488,60.048,77.22,57.929,77.207z"/>
	<path fill-rule="evenodd" fill="#FB806C" d="M42.548,34.693c0.571,0,1.142-0.005,1.713,0.003c0.191,0.003,0.414-0.06,0.436,0.28
		c0.049,0.782-0.643,1.855-1.424,2.158c-0.864,0.335-1.795,0.052-2.348-0.705c-0.253-0.346-0.326-0.756-0.448-1.151
		c-0.125-0.405-0.078-0.631,0.437-0.594C41.456,34.723,42.003,34.693,42.548,34.693z"/>
	<path fill-rule="evenodd" fill="#CACFD7" d="M28.315,73.321c0.011,0.719-0.532,1.278-1.251,1.289
		c-0.722,0.011-1.279-0.531-1.287-1.25c-0.008-0.726,0.532-1.286,1.248-1.296C27.735,72.055,28.304,72.608,28.315,73.321z"/>
	<path fill-rule="evenodd" fill="#CACFD7" d="M59.223,73.364c-0.008,0.716-0.57,1.259-1.291,1.246
		c-0.719-0.013-1.26-0.575-1.246-1.293c0.013-0.715,0.58-1.265,1.293-1.253S59.232,72.642,59.223,73.364z"/>
</g>
</svg>
