<?xml version="1.0" encoding="utf-8"?>
<!-- Generator: Adobe Illustrator 16.0.0, SVG Export Plug-In . SVG Version: 6.00 Build 0)  -->
<!DOCTYPE svg PUBLIC "-//W3C//DTD SVG 1.1//EN" "http://www.w3.org/Graphics/SVG/1.1/DTD/svg11.dtd">
<svg version="1.1" id="Layer_1" xmlns="http://www.w3.org/2000/svg" xmlns:xlink="http://www.w3.org/1999/xlink" x="0px" y="0px"
	 width="85px" height="85px" viewBox="0 0 85 85" enable-background="new 0 0 85 85" xml:space="preserve">
<g>
	<path d="M58.879,78.614c0.119,1.113-0.016,1.361-1.059,1.775c-2.572,1.021-5.254,1.609-7.99,1.969
		c-0.121,0.016-0.264-0.023-0.318,0.141c-0.312,0-0.625,0-0.938,0c-0.365-0.129-0.73-0.129-1.094,0c-0.365,0-0.73,0-1.096,0
		c-1.188-0.129-2.34-0.396-3.409-0.955c-0.543-0.283-1.02-0.014-1.482,0.209c-0.928,0.447-1.895,0.701-2.93,0.666
		c-0.244,0-0.486,0-0.729,0c-0.273,0.037-0.562-0.084-0.824,0.08c-0.625,0-1.25,0-1.875,0c-1.242-0.443-2.562-0.533-3.84-0.814
		c-5.555-1.225-10.086-4.184-13.926-8.26c-5.799-6.156-9.092-13.516-10.226-21.861c-0.995-7.338,0.122-14.312,3.853-20.756
		c4.494-7.77,11.213-12.287,20.139-13.486c2.301-0.309,4.598-0.396,6.783-0.066c0-1.283,0.021-2.555-0.004-3.822
		c-0.041-2.266-0.074-4.527,0.162-6.785c0.213-2.02,1.436-3.477,3.383-3.998c0.102-0.027,0.203-0.027,0.238-0.148
		c0.572,0,1.145,0,1.719,0c0.068,0.195,0.254,0.137,0.393,0.18c2.215,0.697,3.465,2.58,3.223,4.896
		c-0.105,1.006-0.266,2.006-0.398,2.998c0.275,0.094,0.381-0.096,0.521-0.189c4.09-2.693,8.352-3.053,12.781-0.914
		c1.025,0.496,1.287,1.027,1.154,2.135c-0.27,2.232-1.201,4.174-2.615,5.9c-0.162,0.197-0.322,0.396-0.539,0.66
		c1.199,0.338,2.332,0.678,3.414,1.156c7.043,3.109,11.73,8.463,14.547,15.504c3.184,7.963,2.867,16.033,0.264,24.057
		c-2.377,7.324-6.471,13.514-12.666,18.211c-0.797,0.604-1.131,0.588-1.934-0.029c-0.492-0.574-0.457-1.168,0.127-1.76
		c0.402-0.408,0.902-0.701,1.34-1.072c5.744-4.842,9.359-10.998,11.332-18.195c1.045-3.809,1.453-7.688,1.164-11.598
		c-0.453-6.102-2.564-11.596-6.539-16.322c-2.389-2.838-5.262-5.012-8.67-6.48c-0.359-0.156-0.729-0.277-1.102-0.396
		c-0.928-0.344-1.869-0.641-2.85-0.809c-0.371-0.064-0.727-0.076-1.057,0.125c-1.574,0.957-3.25,1.637-5.074,1.838
		c-0.096,0.295,0.129,0.35,0.246,0.461c1.154,1.09,2.346,2.146,3.311,3.416c0.568,0.748,0.557,1.107,0.053,1.91
		c-0.951,0.66-1.543,0.533-2.379-0.461c-1.787-2.125-3.875-3.896-6.289-5.277c-2.459-1.375-5.065-2.334-7.877-2.611
		c-1.918-0.188-3.85-0.209-5.762,0.074c-2.373,0.348-4.725,0.812-6.943,1.771c-3.305,1.428-6.104,3.531-8.457,6.26
		c-3.426,3.973-5.494,8.582-6.355,13.715c-0.846,5.031-0.406,10.014,0.978,14.914c1.509,5.342,4.036,10.154,7.714,14.318
		c4.424,5.008,9.873,8.156,16.602,8.912c0.959,0.107,1.91,0.252,2.871,0.033c1.676-0.129,3.199-0.748,4.598-1.615
		c2.301-1.428,4.549-2.934,6.436-4.92c2.74-2.891,4.783-6.217,6.293-9.889c1.564-3.812,2.494-7.766,2.822-11.875
		c0.465-5.828-0.217-11.479-2.4-16.924c-0.281-0.703-0.678-1.352-0.967-2.047c-0.416-1.006-0.232-1.508,0.727-2.059
		c0.947-0.119,1.357,0.084,1.852,1.043c0.955,1.857,1.652,3.816,2.242,5.818c1.293,4.395,1.656,8.902,1.4,13.441
		c-0.371,6.568-2.18,12.746-5.508,18.445c-2.33,3.994-5.361,7.34-9.244,9.889c-0.164,0.105-0.387,0.168-0.453,0.486
		c0.93,0.236,1.865,0.387,2.82,0.299c2.443-0.223,4.834-0.717,7.17-1.475c0.543-0.156,1.045-0.42,1.584-0.586
		C58.076,77.628,58.604,77.892,58.879,78.614z"/>
	<path fill="#1E1E1E" d="M47.48,82.499c0.365-0.248,0.729-0.244,1.094,0C48.209,82.499,47.844,82.499,47.48,82.499z"/>
	<path fill="#111111" d="M37.011,82.499c0.232-0.258,0.531-0.131,0.807-0.141c0.045,0.057,0.035,0.104-0.025,0.141
		C37.533,82.499,37.271,82.499,37.011,82.499z"/>
	<path fill="#575757" d="M37.792,82.499c0.002-0.047,0.01-0.094,0.025-0.141c0.258,0.002,0.518,0.002,0.777,0.004
		c-0.029,0.041-0.035,0.088-0.021,0.137C38.314,82.499,38.052,82.499,37.792,82.499z"/>
	<path fill="#FD850A" d="M59.201,21.028c3.801,1.27,6.945,3.529,9.555,6.52c4.75,5.441,7.082,11.838,7.023,19.029
		c-0.088,10.488-3.828,19.48-11.438,26.779c-0.711,0.684-1.496,1.293-2.285,1.887c-0.666,0.5-0.861,1.07-0.494,1.82
		c-0.869,0.562-1.746,1.109-2.686,1.551c-0.51-0.674-1.129-0.803-1.891-0.426c-0.385,0.191-0.783,0.389-1.23,0.416
		c-0.014-0.412,0.355-0.471,0.604-0.615c2.48-1.457,4.781-3.16,6.754-5.258c4.994-5.309,8.15-11.578,9.617-18.707
		c0.541-2.631,0.875-5.297,0.779-7.979c-0.256-7.172-2.477-13.633-7.27-19.078c-1.885-2.139-4.041-3.977-6.568-5.346
		C59.449,21.501,59.096,21.435,59.201,21.028z"/>
	<path fill="#FD9638" d="M37.941,80.013c-1.439,0.348-2.842-0.008-4.248-0.232c-8.652-1.387-14.594-6.574-19.021-13.756
		c-4.041-6.553-6.023-13.742-5.424-21.434c0.754-9.668,4.846-17.641,13.654-22.25c7.113-3.725,14.625-4.178,22.01-0.27
		c0.135,0.07,0.252,0.172,0.379,0.26c3.273,2.248,5.639,5.285,7.516,8.732c1.543,2.836,2.473,5.889,3.145,9.039
		c0.748,3.496,0.842,7.049,0.6,10.57c-0.535,7.783-2.979,14.924-7.801,21.152c-2.498,3.229-5.695,5.611-9.209,7.611
		C39.039,79.722,38.468,79.81,37.941,80.013z"/>
	<path fill="#FD9638" d="M59.201,21.028c0.818,0.535,1.648,1.053,2.453,1.607c3.387,2.338,6.041,5.334,8.094,8.9
		c1.893,3.283,3.059,6.809,3.623,10.521c0.428,2.818,0.404,5.65,0.096,8.512c-0.568,5.295-2.199,10.219-4.734,14.861
		c-1.256,2.303-2.812,4.4-4.531,6.396c-2.402,2.791-5.316,4.906-8.441,6.777c-3.445,1.131-6.92,1.984-10.734,1.131
		c1.254-0.922,2.393-1.689,3.455-2.553c4.424-3.584,7.404-8.223,9.4-13.473c3.816-10.039,4.061-20.135,0.082-30.215
		c-0.256-0.652-0.605-1.266-0.877-1.91c-0.316-0.75-0.836-1.102-1.654-0.955c-0.094,0.064-0.213,0.1-0.283,0.02
		c-0.613-0.697-1.143-1.451-1.5-2.312c-0.027-0.064,0.029-0.148,0.068-0.215c0.496-0.674,0.379-1.264-0.154-1.883
		c-1.188-1.377-2.475-2.646-3.932-3.842c0.396-0.289,0.824-0.205,1.201-0.281c1.592-0.322,3.084-0.877,4.439-1.777
		c0.279-0.188,0.557-0.248,0.877-0.17C57.176,20.419,58.223,20.606,59.201,21.028z"/>
	<path fill="#FD850A" d="M53.715,28.122c0.463,0.91,0.953,1.803,1.715,2.508c-0.82,0.646-0.934,1-0.508,1.854
		c3.041,6.088,3.932,12.551,3.363,19.266c-0.512,6.055-2.297,11.695-5.457,16.906c-2.707,4.467-6.51,7.732-11.034,10.217
		c-1.188,0.652-2.469,1.1-3.854,1.141c1.531-0.764,2.99-1.639,4.418-2.582c3.901-2.578,6.803-6.027,9.104-10.059
		c2.229-3.9,3.57-8.105,4.404-12.484c0.65-3.412,0.684-6.881,0.477-10.322c-0.225-3.707-1.055-7.326-2.477-10.779
		c-1.174-2.852-2.766-5.445-4.803-7.779c-1.029-1.182-2.16-2.23-3.377-3.205c-0.158-0.127-0.268-0.312-0.398-0.471
		c2.514,1.338,4.582,3.211,6.42,5.359C52.432,28.532,52.777,28.606,53.715,28.122z"/>
	<path fill="#00C17A" d="M45.934,19.216c-0.039-1.486,0.154-2.959,0.283-4.436c0.014-0.148,0.066-0.305,0.146-0.43
		c1.961-3.115,7.412-4.811,10.965-3.418c0.254,0.33,0.084,0.654-0.047,0.955c-1.773,4.039-4.775,6.568-9.154,7.373
		C47.4,19.394,46.654,19.628,45.934,19.216z"/>
	<path fill="#C76D36" d="M41.853,4.997c1.604-0.518,3.053,0.617,2.842,2.303c-0.332,2.656-0.668,5.312-0.883,7.98
		c-0.092,1.139-0.172,2.279-0.264,3.512c-0.653-0.242-1.254-0.463-1.854-0.686c-0.215-0.234-0.215-0.518-0.191-0.809
		c0.262-3.074,0.49-6.154,0.98-9.207C42.662,6.979,42.613,5.917,41.853,4.997z"/>
	<path fill="#D67E4A" d="M41.853,4.997c0.828,0.24,0.865,0.965,0.93,1.621c0.119,1.225-0.246,2.414-0.359,3.621
		c-0.121,1.285-0.289,2.564-0.406,3.85c-0.125,1.338-0.215,2.678-0.32,4.018c-1.199-0.285-1.197-0.285-1.281-1.51
		c-0.227-3.262-0.334-6.521,0.004-9.781C40.511,5.915,40.941,5.261,41.853,4.997z"/>
	<path fill="#08B765" d="M45.934,19.216c4.93,0.193,9.334-2.986,11.135-7.311c0.129-0.311,0.27-0.623,0.26-0.971
		c1.498,0.344,1.572,0.471,1.111,1.904c-1.551,4.824-6.99,8.01-11.916,6.963C46.234,19.739,45.773,19.769,45.934,19.216z"/>
</g>
</svg>
