<?xml version="1.0" encoding="utf-8"?>
<!-- Generator: Adobe Illustrator 16.0.0, SVG Export Plug-In . SVG Version: 6.00 Build 0)  -->
<!DOCTYPE svg PUBLIC "-//W3C//DTD SVG 1.1//EN" "http://www.w3.org/Graphics/SVG/1.1/DTD/svg11.dtd">
<svg version="1.1" id="Layer_1" xmlns="http://www.w3.org/2000/svg" xmlns:xlink="http://www.w3.org/1999/xlink" x="0px" y="0px"
	 width="85px" height="85px" viewBox="0 0 85 85" enable-background="new 0 0 85 85" xml:space="preserve">
<g>
	<path fill-rule="evenodd" clip-rule="evenodd" d="M50.624,82.5c-0.575-0.377-0.91-0.926-1.196-1.542
		c-1.924-4.14-3.875-8.267-5.806-12.403c-1.547-3.314-1.301-6.497,0.757-9.527c1.605-2.364,3.217-4.725,4.837-7.079
		c0.244-0.354,0.383-0.703,0.381-1.147c-0.015-4.008-0.021-8.016,0.006-12.022c0.004-0.57-0.172-0.678-0.695-0.668
		c-0.88,0.018-1.765,0.091-2.643-0.115c-2.153-0.506-3.748-2.378-3.753-4.591c-0.021-8.718-0.019-17.435-0.003-26.152
		c0.004-2.021,1.307-3.764,3.201-4.468c0.231-0.086,0.526-0.042,0.695-0.284c9.219,0,18.438,0,27.656,0
		c2.828,0.542,4.282,2.328,4.287,5.274c0.003,1.997,0.021,3.995-0.008,5.992c-0.019,1.305-0.576,1.9-1.844,2.059
		c-1.199-0.232-1.701-0.792-1.725-2.029c-0.036-1.926-0.004-3.852-0.014-5.778c-0.008-1.622-0.531-2.15-2.16-2.151
		C64.4,5.861,56.201,5.861,48.003,5.867c-1.585,0.001-2.135,0.539-2.136,2.101c-0.008,8.225-0.009,16.449,0,24.674
		c0.002,1.743,1.402,2.675,3.057,2.075c0.402-0.146,0.354-0.476,0.361-0.773c0.026-1.014-0.01-2.025,0.146-3.037
		c0.446-2.882,2.885-4.871,5.848-4.73c2.7,0.127,4.979,2.48,5.104,5.283c0.035,0.806,0.027,1.614,0.005,2.42
		c-0.018,0.614,0.187,0.894,0.849,0.891c3.878-0.019,7.757,0.005,11.635-0.017c1.286-0.007,1.86-0.586,1.88-1.871
		c0.03-2.004-0.014-4.008,0.019-6.012c0.02-1.253,0.493-1.805,1.686-2.069c1.251,0.135,1.854,0.722,1.876,1.95
		c0.039,2.236,0.07,4.476-0.006,6.711c-0.094,2.748-2.314,4.855-5.105,4.878c-3.876,0.029-7.752,0.006-11.628,0.008
		c-1.212,0.001-1.212,0.003-1.214,1.207c-0.002,0.703,0.01,1.405-0.004,2.107c-0.009,0.435,0.105,0.624,0.592,0.492
		c1.634-0.442,3.152-0.129,4.531,0.817c0.453,0.312,0.804,0.226,1.204-0.048c0.832-0.569,1.743-0.916,2.764-0.956
		c2.103-0.082,3.744,0.763,4.901,2.498c0.345,0.517,0.666,0.66,1.282,0.493c2.233-0.604,4.148-0.029,5.741,1.666
		c0.737,0.784,0.999,1.729,1.109,2.75c0,4.896,0,9.792,0,14.688c-0.128,0.312-0.128,0.626,0,0.938c0,0.468,0,0.937,0,1.406
		c-0.211,1.012-0.147,2.051-0.309,3.071c-0.361,2.289-1.028,4.498-1.721,6.699c-0.505,1.607-1.008,3.216-1.516,4.822
		c-0.219,0.694-0.518,1.303-1.299,1.5c-0.365,0-0.729,0-1.095,0c-0.696-0.202-1.074-0.667-1.141-1.389
		c-0.06-0.559,0.086-1.082,0.254-1.606c0.723-2.256,1.442-4.513,2.118-6.783c0.928-3.114,1.348-6.305,1.351-9.552
		c0.004-4.062,0.001-8.123,0-12.185c0-0.416,0.016-0.834-0.094-1.242c-0.222-0.83-0.896-1.369-1.76-1.405
		c-0.832-0.036-1.52,0.411-1.827,1.198c-0.183,0.468-0.232,0.958-0.233,1.457c-0.001,1.146,0.013,2.291-0.005,3.437
		c-0.019,1.256-0.632,1.986-1.682,2.03c-1.045,0.044-1.824-0.722-1.872-1.966c-0.075-1.925-0.017-3.853-0.026-5.779
		c-0.002-0.364,0.007-0.729-0.004-1.094c-0.034-1.278-0.731-2.041-1.865-2.048c-1.139-0.006-1.868,0.757-1.883,2.026
		c-0.022,1.979-0.005,3.957-0.007,5.937c-0.001,0.39,0.018,0.781-0.035,1.17c-0.159,1.161-0.875,1.816-1.906,1.751
		c-0.989-0.062-1.619-0.771-1.634-1.918c-0.028-2.057-0.007-4.113-0.01-6.171c-0.001-0.443-0.012-0.885-0.131-1.316
		c-0.256-0.931-1.058-1.539-1.947-1.479c-0.873,0.059-1.65,0.786-1.799,1.688c-0.052,0.31-0.037,0.623-0.038,0.936
		c-0.004,2.083,0.021,4.166-0.011,6.248c-0.018,1.171-0.552,1.858-1.474,1.995c-1.027,0.152-1.821-0.419-2.041-1.476
		c-0.085-0.411-0.059-0.83-0.059-1.246c-0.001-7.056-0.001-14.111-0.002-21.166c0-0.391,0.022-0.783-0.047-1.169
		c-0.17-0.948-0.899-1.576-1.846-1.599c-0.889-0.021-1.637,0.567-1.868,1.467c-0.145,0.561-0.154,1.132-0.154,1.706
		c0.002,8.644,0.001,17.288,0.001,25.931c0,0.339,0.012,0.678-0.013,1.016c-0.069,0.944-0.674,1.612-1.527,1.696
		c-0.851,0.083-1.617-0.45-1.89-1.316c-0.119-0.377-0.149-0.765-0.154-1.157c-0.005-0.39,0.012-0.78-0.013-1.326
		c-1.043,1.531-2.152,2.874-2.86,4.461c-0.737,1.652-0.515,3.324,0.242,4.915c1.788,3.761,3.537,7.54,5.315,11.306
		c0.395,0.837,0.932,1.642,0.874,2.635c-0.075,0.796-0.511,1.255-1.298,1.383C51.249,82.5,50.937,82.5,50.624,82.5z"/>
	<path fill-rule="evenodd" clip-rule="evenodd" d="M34.062,2.5c0.182,0.24,0.476,0.151,0.712,0.23
		c1.959,0.656,3.336,2.448,3.341,4.53c0.017,8.696,0.021,17.393-0.002,26.089c-0.007,2.644-2.135,4.734-4.785,4.769
		c-2.16,0.027-4.321,0.011-6.482,0.006c-1.143-0.003-1.617-0.407-1.869-1.561c-0.134-0.692,0.099-1.18,0.725-1.531
		c0.45-0.253,0.941-0.276,1.439-0.277c1.849-0.004,3.697,0.01,5.546-0.005c1.516-0.013,2.062-0.56,2.063-2.094
		c0.007-8.227,0.008-16.454-0.001-24.682c-0.002-1.568-0.542-2.099-2.135-2.1c-8.201-0.007-16.402-0.007-24.604,0
		c-1.593,0.001-2.134,0.53-2.136,2.099c-0.008,8.228-0.007,16.455,0,24.683c0.001,1.56,0.549,2.086,2.141,2.095
		c1.849,0.011,3.697,0,5.546,0.005c0.5,0.001,1.004,0.023,1.426,0.319c0.508,0.356,0.93,0.776,0.66,1.488
		c-0.261,1.181-0.727,1.559-1.94,1.561c-2,0.004-4,0.003-6,0.001c-2.624-0.004-4.269-1.218-5.07-3.733
		c-0.021-0.065-0.091-0.115-0.137-0.173c0-9.271,0-18.542,0-27.812C2.897,4.2,4.199,2.897,6.406,2.5
		C15.625,2.5,24.844,2.5,34.062,2.5z"/>
	<path fill-rule="evenodd" clip-rule="evenodd" fill="#272727" d="M82.5,65.001c-0.259-0.312-0.224-0.626,0-0.938
		C82.5,64.375,82.5,64.688,82.5,65.001z"/>
	<path fill-rule="evenodd" clip-rule="evenodd" fill="#FE5D5D" d="M15.647,36.563c-0.262-1.185-0.724-1.56-1.946-1.562
		c-2.004-0.003-4.009,0.003-6.014-0.002c-1.407-0.003-2.061-0.646-2.062-2.041c-0.003-8.435-0.003-16.869,0-25.304
		c0.001-1.36,0.653-2.026,1.996-2.027c8.46-0.004,16.921-0.004,25.381,0c1.341,0.001,1.995,0.668,1.995,2.028
		c0.003,8.435,0.003,16.869,0,25.303c0,1.396-0.654,2.038-2.062,2.041c-2.004,0.005-4.009-0.001-6.013,0.002
		c-1.225,0.003-1.688,0.379-1.946,1.562c-1.026,0-2.053,0-3.079,0c-0.224-0.126-0.267-0.372-0.371-0.574
		c-0.265-0.512-0.691-0.779-1.253-0.765c-0.526,0.014-0.929,0.279-1.176,0.765c-0.103,0.203-0.146,0.448-0.371,0.574
		C17.7,36.563,16.674,36.563,15.647,36.563z"/>
	<path fill-rule="evenodd" clip-rule="evenodd" fill="#010101" d="M18.727,36.563c0.227-1.028,0.732-1.538,1.547-1.559
		c0.845-0.021,1.39,0.501,1.624,1.559c-0.235,1.054-0.783,1.579-1.624,1.558C19.461,38.1,18.955,37.591,18.727,36.563z"/>
	<path fill-rule="evenodd" clip-rule="evenodd" fill="#FBCC9C" d="M75.572,81.214c-0.175-0.292-0.457-0.278-0.746-0.278
		c-7.126,0.003-14.252,0.003-21.378,0c-0.291,0-0.57-0.006-0.75,0.276c0.019-0.478-0.107-0.909-0.312-1.345
		c-1.973-4.181-3.91-8.378-5.896-12.552c-1.108-2.329-0.956-4.514,0.531-6.621c0.817-1.158,1.601-2.339,2.571-3.468
		c0,0.868-0.031,1.737,0.008,2.604c0.045,0.978,0.689,1.599,1.569,1.593c0.886-0.006,1.486-0.634,1.537-1.616
		c0.012-0.234,0.005-0.469,0.005-0.703c0-6.979,0-13.957,0-20.935c0-2.083-0.015-4.166,0.006-6.249
		c0.015-1.444,0.861-2.378,2.116-2.399c1.159-0.021,2.099,0.828,2.19,1.991c0.022,0.284,0.012,0.572,0.012,0.858
		c0,7.343-0.001,14.686,0.001,22.028c0.001,1.006,0.394,1.637,1.125,1.837c1.07,0.294,1.988-0.449,1.995-1.653
		c0.014-2.344-0.006-4.687,0.01-7.03c0.008-1.081,0.617-1.887,1.575-2.169c0.854-0.253,1.815,0.091,2.341,0.836
		c0.347,0.492,0.418,1.052,0.417,1.634c-0.003,2.266-0.015,4.531,0.006,6.796c0.012,1.156,0.928,1.868,1.974,1.588
		c0.708-0.19,1.137-0.821,1.141-1.754c0.01-2.213,0.002-4.426,0.005-6.64c0.001-0.362-0.017-0.728,0.107-1.081
		c0.341-0.977,1.297-1.572,2.327-1.441c1.019,0.13,1.814,0.939,1.832,2.012c0.04,2.343,0.022,4.687,0.023,7.029
		c0,0.533,0.061,1.042,0.451,1.449c0.466,0.483,1.05,0.6,1.651,0.387c0.641-0.227,1.01-0.724,1.015-1.429
		c0.01-1.458-0.007-2.916,0.015-4.374c0.017-1.132,0.584-1.957,1.488-2.244c1.373-0.436,2.833,0.503,2.814,1.959
		c-0.076,5.932,0.354,11.874-0.302,17.793c-0.357,3.224-1.474,6.262-2.405,9.344C76.247,78.557,75.639,79.813,75.572,81.214z"/>
	<path fill-rule="evenodd" clip-rule="evenodd" fill="#72D7FE" d="M76.563,21.898c0,1.026,0,2.052,0,3.078
		c-1.183,0.257-1.562,0.722-1.563,1.943c-0.003,2.029,0.005,4.06-0.002,6.089c-0.006,1.311-0.664,1.986-1.954,1.989
		c-4.086,0.007-8.172-0.008-12.258,0.015c-0.521,0.003-0.635-0.151-0.64-0.649c-0.013-1.271,0.157-2.553-0.116-3.813
		c-0.566-2.606-2.813-4.282-5.541-4.149c-2.467,0.121-4.589,2.142-4.831,4.691c-0.105,1.109-0.075,2.235-0.061,3.353
		c0.006,0.444-0.123,0.595-0.566,0.564c-0.519-0.036-1.041,0.001-1.562-0.011c-1.148-0.027-1.832-0.707-1.841-1.864
		c-0.015-1.77-0.004-3.54-0.004-5.31c0-6.662-0.001-13.324,0-19.986c0-1.622,0.587-2.212,2.201-2.212
		c8.327-0.001,16.655-0.001,24.983,0c1.604,0,2.188,0.594,2.189,2.223c0.002,1.952-0.002,3.904,0.001,5.855
		c0.003,1.221,0.38,1.684,1.563,1.944c0,1.026,0,2.052,0,3.078c-0.126,0.225-0.372,0.268-0.574,0.372
		c-0.512,0.265-0.78,0.691-0.766,1.253c0.015,0.526,0.279,0.93,0.765,1.176C76.191,21.63,76.438,21.674,76.563,21.898z"/>
	<path fill-rule="evenodd" clip-rule="evenodd" fill="#010101" d="M76.563,21.898c-1.056-0.233-1.581-0.78-1.56-1.626
		c0.021-0.813,0.532-1.32,1.56-1.546c1.025,0.227,1.537,0.735,1.557,1.546C78.141,21.113,77.613,21.664,76.563,21.898z"/>
	<path fill-rule="evenodd" clip-rule="evenodd" d="M27.354,14.844c0.003,0.577-0.325,0.974-0.701,1.349
		c-1.217,1.214-2.415,2.447-3.656,3.636c-0.403,0.386-0.375,0.605,0.011,0.978c1.293,1.248,2.567,2.516,3.812,3.811
		c0.883,0.919,0.638,2.198-0.461,2.625c-0.728,0.283-1.314,0.021-1.832-0.498c-1.25-1.254-2.516-2.493-3.748-3.765
		c-0.348-0.358-0.551-0.396-0.921-0.012c-1.264,1.312-2.563,2.592-3.861,3.871c-0.559,0.55-1.224,0.701-1.928,0.314
		c-0.605-0.333-0.861-0.886-0.782-1.576c0.054-0.467,0.345-0.801,0.663-1.117c1.235-1.232,2.452-2.483,3.711-3.69
		c0.386-0.37,0.343-0.576-0.015-0.922c-1.253-1.214-2.479-2.455-3.706-3.695c-0.808-0.815-0.887-1.734-0.231-2.41
		c0.673-0.693,1.623-0.615,2.467,0.221c1.202,1.19,2.413,2.375,3.584,3.596c0.404,0.421,0.646,0.496,1.091,0.025
		c1.235-1.304,2.524-2.557,3.805-3.817c0.51-0.501,1.116-0.651,1.79-0.347C27.056,13.695,27.324,14.196,27.354,14.844z"/>
	<path fill-rule="evenodd" clip-rule="evenodd" d="M59.485,24.232c-0.453,0.021-0.821-0.15-1.13-0.457
		c-1.438-1.435-2.883-2.861-4.305-4.311c-0.663-0.677-0.668-1.628-0.068-2.238c0.645-0.654,1.557-0.643,2.293,0.07
		c0.936,0.905,1.867,1.816,2.756,2.767c0.364,0.391,0.553,0.322,0.891-0.02c2.342-2.371,4.707-4.719,7.058-7.081
		c0.358-0.36,0.734-0.684,1.258-0.714c0.614-0.036,1.125,0.201,1.444,0.746c0.315,0.537,0.31,1.095-0.014,1.627
		c-0.119,0.196-0.29,0.367-0.454,0.531c-2.796,2.801-5.596,5.598-8.394,8.397C60.445,23.927,60.055,24.263,59.485,24.232z"/>
</g>
</svg>
