<?xml version="1.0" encoding="utf-8"?>
<!-- Generator: Adobe Illustrator 16.0.0, SVG Export Plug-In . SVG Version: 6.00 Build 0)  -->
<!DOCTYPE svg PUBLIC "-//W3C//DTD SVG 1.1//EN" "http://www.w3.org/Graphics/SVG/1.1/DTD/svg11.dtd">
<svg version="1.1" id="Layer_1" xmlns="http://www.w3.org/2000/svg" xmlns:xlink="http://www.w3.org/1999/xlink" x="0px" y="0px"
	 width="85px" height="85px" viewBox="0 0 85 85" enable-background="new 0 0 85 85" xml:space="preserve">
<g>
	<g>
		<path fill="#89664C" d="M14.576,11.141c0,0,2.937-2.803,7.206-2.67l-0.801,2.002c0,0,3.336-0.936,7.605,0.668l-1.867,1.334
			c0,0,4.536,1.201,5.871,2.936l-2.535,0.268c0,0,4.002,1.602,5.471,4.004l-1.868,0.398c0,0,4.003,2.535,4.67,5.473l-2.402-0.4
			c0,0,2.269,3.336,2.536,6.139l-1.334-0.666l0.268,1.867L14.576,11.141"/>
		<path fill="#89664C" d="M81.029,38.764c3.471-5.338-10.541-8.143-16.145-0.535v1.734c0,0,11.475-3.336,8.807,3.203
			c-2.936,7.34,8.809,13.346,8.809,13.346S76.227,46.369,81.029,38.764"/>
		<path fill="#89664C" d="M12.174,12.074c0,0-0.934-2.002-0.4-5.604c0,0,2.67,1.867,4.537,6.004L12.174,12.074"/>
	</g>
	<path fill="#574137" d="M16.844,74.66l0.801-5.873c0,0-1.201,0-2.401-0.266c-0.399,1.066-0.802,2.936-1.201,5.203
		C15.51,74.525,16.844,74.66,16.844,74.66"/>
	<path fill="#89664C" d="M36.194,59.848c-0.934,0.666-2.002,1.602-2.801,2.4l-4.672-1.334c0,0,4.271-6.537,14.279-10.809
		c0,0-11.342-4.137-15.212,1.334c0,0-5.071,7.605-6.807,9.342c-1.734,1.867,0.135,3.469,0.935,3.736
		c0.801,0.266,12.944,1.334,12.944,1.334s1.601-1.334,3.736-2.27C37.795,61.717,36.862,60.514,36.194,59.848"/>
	<path fill="#574137" d="M37.928,58.514c0,0-0.801,0.533-1.869,1.334c0.668,0.666,1.603,1.867,2.537,3.736
		c0.934-0.4,2.135-0.668,3.068-0.533C41.799,63.051,40.198,59.715,37.928,58.514"/>
	<path fill="#89664C" d="M51.006,44.367l-1.068,7.74c0,0,10.543,1.734,14.947,0.133c0,0,3.869,9.609,11.209,15.613
		c0.533-0.934,1.201-2.535,1.602-4.803c-2.803-1.736-7.207-5.873-9.209-14.412C68.486,48.506,59.945,49.572,51.006,44.367"/>
	<path fill="#574137" d="M76.094,67.854c0.934,0.801,2.002,1.602,3.068,2.27c0,0,1.066-2.67,1.201-5.738
		c0,0-1.066-0.268-2.535-1.334C77.295,65.318,76.627,66.92,76.094,67.854"/>
	<g>
		<path fill="#B7805C" d="M59.68,33.158c-10.676,1.334-20.951,4.004-22.818-1.869c-7.74-23.885-22.285-20.148-22.285-20.148
			c-2.535-3.068-5.071-3.469-5.071-3.469c-0.267,2.936,0.935,5.471,0.935,5.471c-0.801,3.869-7.207,16.146-7.873,17.748
			c-0.668,1.734,3.869,4.537,3.869,4.537c0.935-0.133,1.201-1.734,3.203-1.602c0.534,0-0.934,1.867-0.399,2.135
			c1.067,0.4,2.269-2.668,4.536-3.869c8.141-4.404,5.472-7.34,5.472-7.34c3.336,2.27,1.468,7.34,0,10.008
			c-3.336,6.271,0.134,15.348,0.134,15.348c-3.336,2.535-10.542,4.002-10.542,4.002c-2.534,13.078,2.003,17.883,5.205,19.617
			c0.399-2.27,0.802-4.137,1.201-5.205c-1.201-0.266-2.536-1.066-3.069-2.4c-0.934-2.803,0.934-9.074,0.934-9.074
			c8.675,1.066,14.013-1.602,20.285-3.203c6.137-1.467,12.142-0.4,18.148,0.535C74.225,58.381,71.289,31.689,59.68,33.158"/>
		<path fill="#B7805C" d="M50.205,53.441c5.871,13.346,18.682,6.006,18.682,6.006c-2.936,8.141-0.801,13.744,1.068,16.682
			c1.602-0.803,2.535-2.67,3.068-3.736c-4.137-4.672-1.201-10.809-0.4-13.211c0.936-2.67-0.398-4.404-0.398-4.404
			c-3.605-0.801-5.605,1.602-9.875-3.869C58.078,45.568,50.205,53.441,50.205,53.441"/>
	</g>
	<g>
		<path fill="#574137" d="M71.822,78.529c2.002-0.133,2.67-4.67,2.67-4.67c-0.533-0.4-1.068-0.934-1.469-1.334
			c-0.533,1.066-1.469,2.936-3.068,3.736C70.889,77.729,71.822,78.529,71.822,78.529"/>
		<path fill="#574137" d="M45.4,46.637c0,0,0.4,2.936-1.602,6.938c0,0,1.602,0,2.938,0.133c0,0,1.201-1.334,1.602-6.805L45.4,46.637
			"/>
	</g>
	<path fill="#8CC63E" d="M37.528,32.49c0,0,3.203,3.471,1.201,6.406c-2.668,4.004,5.472,11.477,14.679,7.34
		c6.539-2.936,0.268-10.275,3.203-12.943C56.477,33.293,45.533,35.693,37.528,32.49"/>
	<g>
		<path fill="#333333" d="M7.104,29.555l-0.668-0.666c7.606-7.072,9.342-10.01,9.342-10.01l0.801,0.533
			C16.578,19.414,14.842,22.482,7.104,29.555"/>
		<path fill="#333333" d="M17.512,20.215c-1.068-1.602-2.402-3.068-3.738-4.404c-1.334-1.334-2.801-2.135-3.469-2.668
			c0,0-0.134,0.668-0.267,1.068c0.534,0.531,1.868,1.199,3.069,2.4c1.867,1.867,4.27,5.205,6.404,10.008
			c0.268-0.133,0.668-0.801,0.801-0.801C19.38,23.816,18.712,21.949,17.512,20.215"/>
		<path fill="#333333" d="M8.971,33.959c0.268-0.133,0.934,0,0.934,0c-1.602-4.27-4.137-7.072-5.07-7.605l-0.4,0.934
			c0.268,0.135,0.668,0.4,1.201,1.068C6.436,29.154,8.038,31.424,8.971,33.959"/>
	</g>
	<path fill="#574137" d="M9.639,21.016c0,0,1.334,0.533,2.269-0.535c0.935-1.066,0.399-3.869,0.399-3.869S10.44,17.945,9.639,21.016
		"/>
	<path fill="#89664C" d="M3.766,30.49c0,0,1.735-0.268,1.201,1.867C4.301,34.359,3.633,31.156,3.766,30.49"/>
</g>
</svg>
