<?xml version="1.0" encoding="utf-8"?>
<!-- Generator: Adobe Illustrator 16.0.0, SVG Export Plug-In . SVG Version: 6.00 Build 0)  -->
<!DOCTYPE svg PUBLIC "-//W3C//DTD SVG 1.1//EN" "http://www.w3.org/Graphics/SVG/1.1/DTD/svg11.dtd">
<svg version="1.1" id="Layer_1" xmlns="http://www.w3.org/2000/svg" xmlns:xlink="http://www.w3.org/1999/xlink" x="0px" y="0px"
	 width="85px" height="85px" viewBox="0 0 85 85" enable-background="new 0 0 85 85" xml:space="preserve">
<g>
	<g>
		<g id="af">
			<circle fill="#8FD7F8" cx="13.189" cy="30.85" r="10.032"/>
			<circle fill="#DCC7F0" cx="33.254" cy="30.85" r="10.032"/>
			<path fill="#F0F3F5" d="M39.662,29.062c0,2.7-2.18,4.882-4.881,4.882c-2.699,0-4.881-2.182-4.881-4.882s2.182-4.882,4.881-4.882
				C37.482,24.18,39.662,26.361,39.662,29.062z"/>
			<path fill="#F0F3F5" d="M19.588,29.062c0,2.7-2.182,4.882-4.881,4.882c-2.701,0-4.883-2.182-4.883-4.882s2.182-4.882,4.883-4.882
				C17.406,24.18,19.588,26.361,19.588,29.062z"/>
			<path fill="#F5E680" d="M28.236,22.162c-4.805,2.777-10.936,1.134-13.703-3.671C11.756,13.687,13.4,7.556,18.205,4.778
				s10.936-1.124,13.703,3.671C34.686,13.254,33.041,19.385,28.236,22.162L28.236,22.162z"/>
			<path fill="#F0F3F5" d="M29.631,11.678c0,2.7-2.182,4.882-4.883,4.882c-2.699,0-4.881-2.182-4.881-4.882s2.182-4.882,4.881-4.882
				C27.439,6.796,29.631,8.978,29.631,11.678z"/>
			<path fill="#CAAEE9" d="M33.254,20.817c-0.25,0.01-0.5,0.019-0.74,0.047c5.121,0.529,9.014,4.844,9.014,9.984
				c-0.02,5.189-3.988,9.514-9.148,9.976c0.289,0.028,0.586,0.048,0.885,0.058c5.543,0,10.031-4.487,10.031-10.033
				C43.295,25.305,38.799,20.817,33.254,20.817L33.254,20.817z"/>
			<path fill="#75CDF8" d="M13.189,20.817c-0.25,0.01-0.51,0.028-0.76,0.047c5.111,0.529,9.004,4.844,9.004,9.984
				c-0.02,5.189-3.979,9.504-9.139,9.966c0.299,0.038,0.596,0.058,0.895,0.067c5.543,0,10.031-4.487,10.031-10.033
				C23.221,25.305,18.723,20.817,13.189,20.817L13.189,20.817L13.189,20.817z"/>
			<path fill="#F2D865" d="M23.691,3.452c-0.527-0.02-1.047,0-1.576,0.058c3.229,0.308,6.111,2.152,7.736,4.949
				c2.777,4.805,1.133,10.936-3.672,13.703c-1.199,0.692-2.545,1.134-3.92,1.278c2.076,0.211,4.16-0.24,5.977-1.278
				c4.805-2.777,6.449-8.908,3.672-13.703C30.197,5.499,27.104,3.615,23.691,3.452L23.691,3.452z"/>
			<path d="M33.254,20.077c-0.576,0-1.125,0.086-1.672,0.173c1.527-1.894,2.41-4.276,2.41-6.774c0-1.884-0.498-3.758-1.439-5.392
				c-2.971-5.15-9.582-6.919-14.723-3.95c-3.326,1.923-5.391,5.497-5.391,9.342c0,1.883,0.5,3.757,1.441,5.391
				c0.277,0.49,0.613,0.941,0.971,1.384c-0.549-0.087-1.096-0.173-1.662-0.173c-5.949,0-10.783,4.833-10.783,10.781
				S7.24,41.641,13.189,41.641c4.582,0,8.484-2.883,10.031-6.929c1.557,4.036,5.459,6.929,10.033,6.929
				c5.947,0,10.781-4.834,10.781-10.782C44.035,24.9,39.201,20.077,33.254,20.077L33.254,20.077z M18.57,5.422
				c1.461-0.836,3.055-1.239,4.631-1.239c3.211,0,6.344,1.662,8.062,4.642c0.818,1.412,1.24,3.018,1.24,4.642
				c0,3.306-1.777,6.39-4.641,8.043l0,0c-1.414,0.817-3.018,1.249-4.643,1.249c-3.305,0-6.391-1.787-8.053-4.642
				c-0.816-1.412-1.24-3.017-1.24-4.641C13.928,10.16,15.707,7.075,18.57,5.422z M24.922,24.094
				c-0.701,0.865-1.297,1.835-1.701,2.902c-0.412-1.067-1-2.027-1.701-2.902c0.559,0.086,1.135,0.145,1.701,0.145
				C23.787,24.248,24.365,24.18,24.922,24.094z M13.189,40.142c-5.123,0-9.293-4.171-9.293-9.293c0-5.121,4.17-9.292,9.293-9.292
				c5.121,0,9.291,4.171,9.291,9.292C22.48,35.971,18.311,40.142,13.189,40.142z M33.254,40.142c-5.123,0-9.293-4.171-9.293-9.293
				c0-5.121,4.17-9.292,9.293-9.292c5.121,0,9.291,4.171,9.291,9.292C42.545,35.971,38.375,40.142,33.254,40.142z"/>
			<path d="M34.781,23.431c-3.104,0-5.631,2.527-5.631,5.631c0,3.104,2.527,5.632,5.631,5.632s5.631-2.527,5.631-5.632
				C40.402,25.958,37.875,23.431,34.781,23.431z M34.781,33.204c-2.277,0-4.143-1.855-4.143-4.143c0-2.286,1.855-4.142,4.143-4.142
				s4.143,1.855,4.143,4.142C38.924,31.349,37.059,33.204,34.781,33.204z"/>
			<path d="M14.707,23.431c-3.104,0-5.631,2.527-5.631,5.631c0,3.104,2.527,5.632,5.631,5.632s5.631-2.527,5.631-5.632
				C20.338,25.958,17.811,23.431,14.707,23.431z M14.707,33.204c-2.277,0-4.143-1.855-4.143-4.143c0-2.286,1.855-4.142,4.143-4.142
				c2.277,0,4.141,1.855,4.141,4.142C18.848,31.349,16.994,33.204,14.707,33.204z"/>
			<path d="M11.266,37.028c0,0-0.729-0.145-1.604-0.634c-0.355-0.202-0.809-0.077-1.01,0.288c-0.201,0.355-0.076,0.807,0.289,1.009
				c1.096,0.605,2.018,0.788,2.057,0.798c0.047,0.009,0.086,0.019,0.135,0.019c0.346,0,0.662-0.249,0.729-0.604
				C11.93,37.509,11.67,37.114,11.266,37.028L11.266,37.028L11.266,37.028z"/>
			<path d="M6.395,30.455c0-0.413-0.365-0.73-0.76-0.73c-0.412,0-0.74,0.347-0.73,0.76c0.039,2.114,0.635,3.901,1.77,5.313
				c0.143,0.183,0.365,0.279,0.576,0.279c0.162,0,0.326-0.049,0.471-0.164c0.316-0.259,0.375-0.729,0.115-1.047
				C6.914,33.723,6.424,32.232,6.395,30.455L6.395,30.455z"/>
			<path d="M24.74,17.31c3.104,0,5.631-2.527,5.631-5.632c0-3.104-2.527-5.621-5.631-5.621c-3.105,0-5.633,2.527-5.633,5.631
				C19.117,14.782,21.645,17.31,24.74,17.31z M24.74,7.536c2.277,0,4.141,1.854,4.141,4.142s-1.854,4.142-4.141,4.142
				c-2.277,0-4.143-1.854-4.143-4.142C20.607,9.391,22.463,7.536,24.74,7.536z"/>
			<path d="M21.289,20.942c0.049,0.009,0.086,0.019,0.135,0.019c0.346,0,0.664-0.25,0.73-0.605c0.076-0.403-0.184-0.788-0.586-0.875
				c0,0-0.73-0.144-1.605-0.634c-0.355-0.201-0.807-0.076-1.008,0.288c-0.203,0.355-0.078,0.808,0.287,1.01
				C20.338,20.769,21.25,20.942,21.289,20.942L21.289,20.942L21.289,20.942z"/>
			<path d="M17.551,18.53c0.164,0,0.328-0.049,0.471-0.164c0.318-0.26,0.375-0.73,0.115-1.048c-0.922-1.144-1.412-2.633-1.441-4.41
				c0-0.413-0.355-0.711-0.758-0.73c-0.414,0-0.74,0.346-0.73,0.759c0.039,2.114,0.635,3.901,1.768,5.314
				C17.119,18.434,17.33,18.53,17.551,18.53L17.551,18.53z"/>
			<path d="M31.533,37.028c0,0-0.73-0.145-1.605-0.634c-0.355-0.202-0.807-0.077-1.008,0.288c-0.203,0.355-0.068,0.807,0.287,1.009
				c1.096,0.605,2.018,0.788,2.057,0.798c0.049,0.009,0.086,0.019,0.135,0.019c0.346,0,0.664-0.249,0.73-0.604
				C32.197,37.509,31.938,37.114,31.533,37.028L31.533,37.028L31.533,37.028z"/>
			<path d="M26.66,30.455c0-0.413-0.373-0.73-0.758-0.73c-0.414,0-0.74,0.347-0.73,0.76c0.039,2.114,0.635,3.901,1.768,5.313
				c0.145,0.183,0.365,0.279,0.578,0.279c0.162,0,0.326-0.049,0.469-0.164c0.318-0.259,0.375-0.729,0.117-1.047
				C27.17,33.713,26.689,32.232,26.66,30.455L26.66,30.455z"/>
		</g>
		<g id="af_1_">
			<circle fill="#ECA8C5" cx="64.543" cy="13.475" r="10.032"/>
			<circle fill="#B9DB51" cx="44.469" cy="13.475" r="10.032"/>
			<path fill="#F0F3F5" d="M45.996,20.153c-2.701,0-4.883-2.181-4.883-4.882c0-2.699,2.182-4.881,4.883-4.881
				c2.699,0,4.883,2.182,4.883,4.881C50.879,17.963,48.695,20.153,45.996,20.153z"/>
			<path fill="#F0F3F5" d="M66.07,20.153c-2.701,0-4.881-2.181-4.881-4.882c0-2.699,2.18-4.881,4.881-4.881s4.881,2.182,4.881,4.881
				C70.951,17.963,68.762,20.153,66.07,20.153z"/>
			<path fill="#F5B70B" d="M63.83,27.149c2.047,5.151-0.471,10.984-5.619,13.031c-5.152,2.037-10.984-0.472-13.031-5.622
				s0.471-10.983,5.621-13.03C55.961,19.48,61.783,21.999,63.83,27.149L63.83,27.149z"/>
			<path fill="#F0F3F5" d="M51.561,37.038c-2.115-1.672-2.471-4.747-0.799-6.861s4.748-2.47,6.861-0.798
				c2.115,1.672,2.471,4.747,0.799,6.861C56.748,38.354,53.674,38.71,51.561,37.038z"/>
			<path fill="#85B645" d="M44.469,23.507c5.545,0,10.031-4.487,10.031-10.031c0-5.546-4.486-10.033-10.031-10.033
				c-0.299,0.01-0.598,0.029-0.885,0.058c5.17,0.462,9.139,4.786,9.148,9.976c0,5.141-3.893,9.455-9.014,9.984
				C43.979,23.488,44.229,23.498,44.469,23.507L44.469,23.507z"/>
			<path fill="#DF91C4" d="M64.533,23.507L64.533,23.507c5.545,0,10.031-4.487,10.031-10.031c0-5.546-4.486-10.033-10.031-10.033
				c-0.299,0.01-0.596,0.029-0.895,0.067c5.17,0.462,9.129,4.776,9.139,9.966c0,5.141-3.893,9.455-9.004,9.984
				C64.033,23.479,64.293,23.498,64.533,23.507L64.533,23.507z"/>
			<path fill="#F59608" d="M48.668,38.998c2.775,1.999,6.371,2.432,9.543,1.173c5.148-2.047,7.666-7.87,5.619-13.031
				c-0.777-1.94-2.131-3.584-3.891-4.708c0.99,0.97,1.768,2.152,2.287,3.44c2.047,5.15-0.471,10.983-5.621,13.03
				c-3.018,1.191-6.42,0.846-9.139-0.923C47.842,38.354,48.234,38.7,48.668,38.998L48.668,38.998z"/>
			<path d="M44.469,24.257c0.576,0,1.123-0.086,1.672-0.173c-1.529,1.894-2.412,4.276-2.412,6.774c0,1.884,0.5,3.758,1.441,5.392
				c2.969,5.15,9.58,6.909,14.721,3.949c3.326-1.922,5.393-5.496,5.393-9.341c0-1.883-0.5-3.757-1.443-5.391
				c-0.277-0.49-0.613-0.941-0.969-1.384c0.547,0.087,1.105,0.173,1.662,0.173c5.947,0,10.781-4.833,10.781-10.781
				c0.01-5.948-4.824-10.782-10.771-10.782c-4.584,0-8.486,2.883-10.033,6.929c-1.557-4.036-5.457-6.929-10.041-6.929
				c-5.949,0-10.783,4.834-10.783,10.782C33.695,19.424,38.529,24.257,44.469,24.257L44.469,24.257z M59.152,38.902
				c-1.461,0.836-3.057,1.239-4.633,1.239c-3.209,0-6.342-1.662-8.062-4.642c-0.816-1.412-1.24-3.018-1.24-4.642
				c0-3.306,1.779-6.39,4.643-8.043l0,0c1.412-0.816,3.018-1.249,4.641-1.249c3.307,0,6.391,1.788,8.053,4.642
				c0.816,1.412,1.24,3.018,1.24,4.641C63.803,34.164,62.025,37.249,59.152,38.902z M52.809,20.23
				c0.701-0.874,1.299-1.835,1.701-2.902c0.414,1.067,1,2.028,1.701,2.902c-0.557-0.086-1.135-0.145-1.701-0.145
				C53.934,20.086,53.367,20.145,52.809,20.23z M64.543,4.183c5.121,0,9.293,4.171,9.293,9.293c0,5.121-4.172,9.292-9.293,9.292
				c-5.123,0-9.293-4.171-9.293-9.292C55.25,8.354,59.42,4.183,64.543,4.183z M44.469,4.183c5.121,0,9.291,4.171,9.291,9.293
				c0,5.121-4.17,9.292-9.291,9.292c-5.123,0-9.293-4.171-9.293-9.292C35.176,8.354,39.346,4.183,44.469,4.183z"/>
			<path d="M51.627,15.263c0-3.104-2.527-5.632-5.631-5.632s-5.631,2.527-5.631,5.632c0,3.104,2.518,5.631,5.631,5.631
				C49.1,20.894,51.627,18.366,51.627,15.263z M50.137,15.263c0,2.277-1.854,4.142-4.141,4.142c-2.277,0-4.143-1.854-4.143-4.142
				c0-2.278,1.855-4.142,4.143-4.142S50.137,12.976,50.137,15.263z"/>
			<path d="M71.691,15.263c0-3.104-2.527-5.632-5.631-5.632s-5.631,2.527-5.631,5.632c0,3.104,2.518,5.631,5.631,5.631
				C69.164,20.894,71.691,18.366,71.691,15.263z M70.213,15.263c0,2.277-1.855,4.142-4.143,4.142c-2.277,0-4.141-1.854-4.141-4.142
				c0-2.278,1.854-4.142,4.141-4.142C68.348,11.121,70.213,12.976,70.213,15.263z"/>
			<path d="M62.621,7.286c0.404-0.086,0.662-0.471,0.586-0.874c-0.068-0.355-0.375-0.605-0.73-0.605c-0.049,0-0.086,0.01-0.135,0.02
				c-0.039,0.01-0.951,0.183-2.047,0.798c-0.365,0.201-0.49,0.653-0.289,1.009c0.203,0.365,0.654,0.49,1.01,0.288
				C61.9,7.44,62.621,7.296,62.621,7.286L62.621,7.286L62.621,7.286z"/>
			<path d="M57.748,13.869c0.029-1.777,0.52-3.268,1.441-4.411c0.26-0.316,0.213-0.788-0.115-1.047
				c-0.143-0.115-0.307-0.164-0.471-0.164c-0.211,0-0.432,0.087-0.576,0.279c-1.135,1.412-1.73,3.199-1.77,5.313
				c-0.008,0.413,0.318,0.76,0.73,0.76C57.383,14.6,57.748,14.272,57.748,13.869L57.748,13.869z"/>
			<path d="M50.176,29.715c-1.922,2.432-1.508,5.978,0.924,7.909c2.43,1.932,5.977,1.509,7.908-0.923
				c1.922-2.431,1.518-5.977-0.924-7.908C55.654,26.871,52.098,27.284,50.176,29.715z M51.34,30.638
				c1.412-1.787,4.025-2.095,5.812-0.683c1.787,1.413,2.096,4.027,0.682,5.814c-1.412,1.787-4.025,2.095-5.812,0.682
				C50.225,35.039,49.926,32.435,51.34,30.638z"/>
			<path d="M57.633,23.786c-0.039-0.02-0.855-0.451-2.104-0.653c-0.414-0.067-0.789,0.212-0.855,0.614
				c-0.068,0.414,0.211,0.788,0.615,0.856c0.988,0.162,1.652,0.499,1.652,0.499c0.365,0.183,0.807,0.048,1-0.317
				c0.172-0.316,0.076-0.711-0.203-0.922C57.711,23.844,57.662,23.815,57.633,23.786L57.633,23.786z"/>
			<path d="M53.193,23.373c-0.172-0.135-0.395-0.202-0.625-0.144c-1.768,0.402-3.344,1.44-4.689,3.074
				c-0.26,0.317-0.221,0.798,0.096,1.048c0.328,0.24,0.799,0.221,1.049-0.096c1.123-1.375,2.43-2.24,3.863-2.566
				c0.402-0.086,0.652-0.49,0.566-0.894C53.424,23.613,53.328,23.47,53.193,23.373L53.193,23.373z"/>
			<path d="M42.758,7.286C43.16,7.2,43.42,6.815,43.344,6.412c-0.068-0.355-0.375-0.605-0.73-0.605c-0.049,0-0.086,0.01-0.135,0.02
				c-0.039,0.01-0.951,0.183-2.047,0.798c-0.355,0.201-0.49,0.653-0.289,1.009c0.203,0.365,0.654,0.49,1.01,0.288
				C42.027,7.44,42.758,7.296,42.758,7.286L42.758,7.286L42.758,7.286z"/>
			<path d="M37.875,13.869c0.029-1.777,0.51-3.258,1.441-4.411c0.26-0.316,0.213-0.788-0.115-1.047
				c-0.145-0.115-0.307-0.164-0.471-0.164c-0.211,0-0.432,0.087-0.576,0.279c-1.135,1.412-1.73,3.199-1.768,5.313
				c-0.01,0.413,0.316,0.76,0.73,0.76C37.51,14.6,37.875,14.272,37.875,13.869L37.875,13.869z"/>
		</g>
		<g id="af_3_">
			<circle fill="#4F8733" cx="20.271" cy="71.595" r="10.032"/>
			<circle fill="#DC79B0" cx="40.346" cy="71.595" r="10.032"/>
			<path fill="#F0F3F5" d="M46.756,69.807c0,2.701-2.182,4.882-4.883,4.882c-2.699,0-4.881-2.181-4.881-4.882
				c0-2.7,2.182-4.881,4.881-4.881C44.564,64.926,46.756,67.106,46.756,69.807z"/>
			<path fill="#F0F3F5" d="M26.68,69.807c0,2.701-2.182,4.882-4.881,4.882c-2.701,0-4.883-2.181-4.883-4.882
				c0-2.7,2.182-4.881,4.883-4.881C24.498,64.926,26.68,67.106,26.68,69.807z"/>
			<path fill="#F52100" d="M35.33,62.907c-4.807,2.777-10.938,1.134-13.705-3.671c-2.777-4.805-1.133-10.936,3.672-13.703
				c4.805-2.778,10.936-1.124,13.703,3.671S40.125,60.139,35.33,62.907L35.33,62.907z"/>
			<path fill="#F0F3F5" d="M36.713,52.423c0,2.7-2.182,4.882-4.881,4.882c-2.701,0-4.883-2.182-4.883-4.882
				c0-2.699,2.182-4.882,4.883-4.882C34.531,47.541,36.713,49.732,36.713,52.423z"/>
			<path fill="#C14EA6" d="M40.346,61.562c-0.25,0.009-0.5,0.019-0.74,0.048c5.121,0.528,9.004,4.844,9.004,9.983
				c-0.018,5.19-3.988,9.515-9.148,9.976c0.289,0.028,0.586,0.048,0.885,0.058c5.545,0,10.033-4.488,10.033-10.033
				C50.379,66.05,45.891,61.562,40.346,61.562L40.346,61.562z"/>
			<path fill="#4F6432" d="M20.271,61.562c-0.25,0.009-0.51,0.028-0.76,0.048c5.111,0.528,9.004,4.844,9.004,9.983
				c-0.02,5.19-3.979,9.505-9.139,9.966c0.299,0.038,0.596,0.058,0.895,0.067c5.543,0,10.031-4.488,10.031-10.033
				C30.303,66.05,25.807,61.562,20.271,61.562L20.271,61.562L20.271,61.562L20.271,61.562z"/>
			<path fill="#CA2100" d="M30.783,44.197c-0.527-0.02-1.047,0-1.576,0.058c3.23,0.308,6.113,2.153,7.736,4.949
				c2.777,4.805,1.135,10.935-3.672,13.703c-1.199,0.692-2.545,1.134-3.92,1.278c2.076,0.212,4.16-0.241,5.979-1.278
				c4.805-2.776,6.447-8.908,3.67-13.703C37.289,46.253,34.195,44.36,30.783,44.197L30.783,44.197L30.783,44.197z"/>
			<path d="M40.346,60.822c-0.576,0-1.125,0.086-1.672,0.173c1.527-1.893,2.41-4.276,2.41-6.774c0-1.885-0.498-3.758-1.439-5.392
				c-2.971-5.15-9.582-6.909-14.723-3.949c-3.324,1.922-5.391,5.496-5.391,9.341c0,1.883,0.5,3.757,1.441,5.391
				c0.277,0.49,0.615,0.941,0.971,1.384c-0.549-0.087-1.105-0.173-1.662-0.173c-5.949,0-10.783,4.834-10.783,10.781
				c0,5.949,4.834,10.782,10.783,10.782c4.574,0,8.484-2.883,10.031-6.929c1.557,4.036,5.459,6.929,10.033,6.929
				c5.949,0,10.781-4.833,10.781-10.782C51.119,65.656,46.295,60.822,40.346,60.822L40.346,60.822z M25.662,46.168
				c1.461-0.837,3.055-1.24,4.631-1.24c3.211,0,6.344,1.662,8.062,4.641c0.818,1.414,1.24,3.018,1.24,4.643
				c0,3.306-1.777,6.391-4.641,8.043l0,0c-1.414,0.816-3.018,1.249-4.643,1.249c-3.305,0-6.391-1.788-8.053-4.641
				c-0.816-1.413-1.24-3.019-1.24-4.642C21.02,50.914,22.789,47.83,25.662,46.168z M32.014,64.839
				c-0.701,0.874-1.297,1.836-1.701,2.901c-0.412-1.065-1-2.027-1.701-2.901c0.559,0.087,1.135,0.144,1.701,0.144
				C30.879,64.992,31.457,64.926,32.014,64.839z M20.271,80.888c-5.123,0-9.293-4.172-9.293-9.294s4.17-9.292,9.293-9.292
				c5.121,0,9.291,4.17,9.291,9.292S25.393,80.888,20.271,80.888z M40.346,80.888c-5.123,0-9.293-4.172-9.293-9.294
				s4.17-9.292,9.293-9.292c5.121,0,9.291,4.17,9.291,9.292S45.467,80.888,40.346,80.888z"/>
			<path d="M41.863,64.176c-3.104,0-5.631,2.527-5.631,5.631c0,3.104,2.527,5.632,5.631,5.632s5.631-2.527,5.631-5.632
				C47.494,66.703,44.967,64.176,41.863,64.176z M41.863,73.958c-2.277,0-4.141-1.854-4.141-4.142c0-2.277,1.854-4.142,4.141-4.142
				c2.277,0,4.143,1.854,4.143,4.142C46.006,72.094,44.15,73.958,41.863,73.958z"/>
			<path d="M21.799,64.176c-3.104,0-5.631,2.527-5.631,5.631c0,3.104,2.527,5.632,5.631,5.632s5.631-2.527,5.631-5.632
				C27.42,66.703,24.893,64.176,21.799,64.176z M21.799,73.958c-2.277,0-4.143-1.854-4.143-4.142c0-2.277,1.855-4.142,4.143-4.142
				c2.277,0,4.141,1.854,4.141,4.142C25.939,72.094,24.076,73.958,21.799,73.958z"/>
			<path d="M18.359,77.773c0,0-0.73-0.145-1.605-0.635c-0.355-0.201-0.807-0.076-1.01,0.288c-0.201,0.356-0.076,0.808,0.289,1.01
				c1.096,0.605,2.018,0.788,2.057,0.797c0.047,0.01,0.086,0.02,0.135,0.02c0.346,0,0.662-0.25,0.73-0.605
				C19.012,78.254,18.752,77.859,18.359,77.773L18.359,77.773L18.359,77.773z"/>
			<path d="M13.477,71.2c0-0.414-0.365-0.729-0.758-0.729c-0.414,0-0.742,0.345-0.732,0.759c0.039,2.113,0.635,3.901,1.77,5.314
				c0.145,0.182,0.365,0.278,0.576,0.278c0.162,0,0.326-0.048,0.471-0.164c0.318-0.26,0.375-0.73,0.115-1.048
				C13.996,74.468,13.506,72.979,13.477,71.2L13.477,71.2z"/>
			<path d="M31.832,58.055c3.104,0,5.631-2.527,5.631-5.632c0-3.104-2.527-5.631-5.631-5.631c-3.105,0-5.633,2.527-5.633,5.631
				C26.199,55.527,28.727,58.055,31.832,58.055z M31.832,48.281c2.277,0,4.141,1.854,4.141,4.142c0,2.277-1.855,4.143-4.141,4.143
				c-2.277,0-4.143-1.855-4.143-4.143S29.555,48.281,31.832,48.281z"/>
			<path d="M28.371,61.687c0.049,0.01,0.086,0.02,0.135,0.02c0.346,0,0.664-0.25,0.73-0.605c0.076-0.404-0.182-0.788-0.586-0.875
				c0,0-0.73-0.144-1.605-0.634c-0.355-0.202-0.807-0.077-1.008,0.289c-0.203,0.354-0.078,0.807,0.287,1.009
				C27.42,61.514,28.334,61.687,28.371,61.687L28.371,61.687L28.371,61.687z"/>
			<path d="M24.633,59.274c0.164,0,0.328-0.048,0.473-0.162c0.316-0.26,0.373-0.731,0.115-1.048
				c-0.924-1.145-1.414-2.634-1.443-4.411c0-0.413-0.355-0.711-0.758-0.73c-0.414,0-0.74,0.347-0.73,0.759
				c0.039,2.115,0.635,3.902,1.768,5.314C24.201,59.188,24.422,59.274,24.633,59.274L24.633,59.274z"/>
			<path d="M38.625,77.773c0,0-0.73-0.145-1.605-0.635c-0.355-0.201-0.807-0.076-1.008,0.288c-0.203,0.356-0.068,0.808,0.287,1.01
				c1.096,0.605,2.02,0.788,2.057,0.797c0.049,0.01,0.086,0.02,0.135,0.02c0.346,0,0.664-0.25,0.73-0.605
				C39.289,78.254,39.029,77.859,38.625,77.773L38.625,77.773L38.625,77.773z"/>
			<path d="M33.752,71.2c0-0.414-0.373-0.729-0.758-0.729c-0.414,0-0.74,0.345-0.73,0.759c0.039,2.113,0.635,3.901,1.768,5.314
				c0.145,0.182,0.365,0.278,0.578,0.278c0.162,0,0.326-0.048,0.471-0.164c0.316-0.26,0.373-0.73,0.115-1.048
				C34.262,74.458,33.781,72.979,33.752,71.2L33.752,71.2z"/>
		</g>
		<g id="af_2_">
			<circle fill="#9D70C5" cx="71.635" cy="54.22" r="10.032"/>
			<path fill="#298AEF" d="M41.527,54.221c0-5.545,4.488-10.033,10.033-10.033s10.031,4.498,10.031,10.033
				c0,5.544-4.496,10.031-10.031,10.031C46.016,64.252,41.527,59.765,41.527,54.221z"/>
			<path fill="#F0F3F5" d="M53.088,60.898c-2.701,0-4.881-2.182-4.881-4.881c0-2.701,2.18-4.882,4.881-4.882
				c2.699,0,4.883,2.181,4.883,4.882C57.971,58.708,55.779,60.898,53.088,60.898z"/>
			<path fill="#F0F3F5" d="M73.152,60.898c-2.699,0-4.881-2.182-4.881-4.881c0-2.701,2.182-4.882,4.881-4.882
				c2.701,0,4.881,2.181,4.881,4.882C78.033,58.708,75.854,60.898,73.152,60.898z"/>
			<path fill="#FFF100" d="M70.922,67.895c2.049,5.15-0.469,10.983-5.619,13.03c-5.152,2.037-10.984-0.471-13.031-5.621
				s0.471-10.983,5.621-13.031C63.043,60.226,68.877,62.743,70.922,67.895L70.922,67.895z"/>
			<path fill="#F0F3F5" d="M58.652,77.783c-2.115-1.673-2.471-4.747-0.799-6.861s4.748-2.47,6.861-0.798
				c2.115,1.672,2.471,4.747,0.799,6.861C63.83,79.1,60.766,79.455,58.652,77.783z"/>
			<path fill="#2962E7" d="M51.561,64.252c5.545,0,10.031-4.487,10.031-10.031c0-5.545-4.486-10.033-10.031-10.033
				c-0.299,0.01-0.596,0.029-0.885,0.058c5.17,0.461,9.139,4.785,9.148,9.976c0,5.141-3.893,9.456-9.014,9.983
				C51.061,64.233,51.311,64.252,51.561,64.252L51.561,64.252z"/>
			<path fill="#9D51C8" d="M71.625,64.252L71.625,64.252c5.545,0,10.031-4.487,10.031-10.031c0-5.545-4.486-10.033-10.031-10.033
				c-0.299,0.01-0.596,0.029-0.895,0.067c5.172,0.461,9.129,4.775,9.139,9.966c0,5.141-3.893,9.456-9.004,9.983
				C71.125,64.224,71.375,64.252,71.625,64.252L71.625,64.252L71.625,64.252z"/>
			<path fill="#CBBE13" d="M55.76,79.743c2.777,1.999,6.371,2.431,9.543,1.172c5.15-2.046,7.668-7.87,5.619-13.03
				c-0.777-1.94-2.131-3.584-3.891-4.709c0.99,0.972,1.768,2.153,2.287,3.44c2.047,5.151-0.471,10.984-5.621,13.03
				c-3.018,1.192-6.42,0.846-9.139-0.922C54.934,79.1,55.326,79.445,55.76,79.743L55.76,79.743z"/>
			<path d="M51.561,65.002c0.576,0,1.123-0.076,1.672-0.173c-1.529,1.893-2.412,4.276-2.412,6.774c0,1.884,0.5,3.758,1.441,5.392
				c2.969,5.151,9.58,6.909,14.723,3.949c3.324-1.922,5.391-5.497,5.391-9.341c0-1.883-0.5-3.757-1.443-5.391
				c-0.277-0.49-0.613-0.942-0.969-1.384c0.547,0.087,1.105,0.173,1.662,0.173c5.947,0,10.781-4.834,10.781-10.781
				c0-5.949-4.834-10.782-10.781-10.782c-4.584,0-8.486,2.883-10.033,6.928c-1.557-4.036-5.457-6.928-10.031-6.928
				c-5.949,0-10.783,4.833-10.783,10.782C40.777,60.168,45.611,65.002,51.561,65.002L51.561,65.002z M66.244,79.646
				c-1.461,0.837-3.057,1.241-4.633,1.241c-3.209,0-6.342-1.663-8.062-4.643c-0.816-1.413-1.24-3.017-1.24-4.642
				c0-3.306,1.779-6.391,4.643-8.043l0,0c1.412-0.817,3.018-1.249,4.641-1.249c3.307,0,6.391,1.787,8.053,4.642
				c0.816,1.412,1.24,3.018,1.24,4.641C70.885,74.909,69.107,77.994,66.244,79.646z M59.891,60.976
				c0.701-0.874,1.299-1.836,1.701-2.901c0.414,1.065,1,2.027,1.701,2.901c-0.557-0.086-1.133-0.144-1.701-0.144
				C61.025,60.832,60.449,60.89,59.891,60.976z M71.635,44.928c5.121,0,9.293,4.17,9.293,9.293c0,5.122-4.172,9.292-9.293,9.292
				c-5.123,0-9.293-4.17-9.293-9.292C62.342,49.098,66.512,44.928,71.635,44.928z M51.561,44.928c5.121,0,9.291,4.17,9.291,9.293
				c0,5.122-4.17,9.292-9.291,9.292c-5.123,0-9.293-4.17-9.293-9.292C42.268,49.098,46.438,44.928,51.561,44.928z"/>
			<path d="M58.709,56.008c0-3.104-2.527-5.632-5.631-5.632s-5.631,2.527-5.631,5.632s2.518,5.631,5.631,5.631
				C56.182,61.639,58.709,59.112,58.709,56.008z M57.219,56.008c0,2.277-1.854,4.141-4.141,4.141s-4.143-1.854-4.143-4.141
				s1.855-4.143,4.143-4.143S57.219,53.721,57.219,56.008z"/>
			<path d="M78.783,56.008c0-3.104-2.527-5.632-5.631-5.632s-5.631,2.527-5.631,5.632s2.518,5.631,5.631,5.631
				C76.256,61.639,78.783,59.112,78.783,56.008z M77.295,56.008c0,2.277-1.855,4.141-4.143,4.141c-2.277,0-4.141-1.854-4.141-4.141
				s1.854-4.143,4.141-4.143S77.295,53.721,77.295,56.008z"/>
			<path d="M69.713,48.031c0.404-0.086,0.664-0.471,0.586-0.864c-0.068-0.356-0.375-0.605-0.73-0.605
				c-0.049,0-0.086,0.009-0.135,0.019c-0.039,0.01-0.951,0.183-2.047,0.798c-0.365,0.202-0.49,0.653-0.289,1.009
				c0.203,0.365,0.654,0.49,1.01,0.289C68.982,48.186,69.713,48.041,69.713,48.031L69.713,48.031L69.713,48.031z"/>
			<path d="M64.84,54.614c0.029-1.778,0.52-3.268,1.441-4.411c0.26-0.317,0.213-0.788-0.115-1.047
				c-0.143-0.116-0.307-0.163-0.471-0.163c-0.211,0-0.432,0.086-0.576,0.277c-1.135,1.413-1.73,3.201-1.768,5.314
				c-0.01,0.414,0.316,0.759,0.729,0.759C64.475,55.344,64.84,55.027,64.84,54.614L64.84,54.614z"/>
			<path d="M57.268,70.461c-1.922,2.431-1.508,5.977,0.924,7.907c2.43,1.923,5.977,1.51,7.908-0.922
				c1.922-2.431,1.518-5.977-0.924-7.909C62.736,67.616,59.189,68.028,57.268,70.461z M58.432,71.383
				c1.412-1.787,4.025-2.096,5.812-0.682c1.789,1.412,2.096,4.026,0.684,5.813c-1.414,1.787-4.027,2.095-5.814,0.682
				C57.316,75.784,57.008,73.18,58.432,71.383z"/>
			<path d="M64.715,64.531c-0.037-0.02-0.855-0.451-2.104-0.653c-0.414-0.067-0.789,0.211-0.855,0.614
				c-0.066,0.414,0.211,0.788,0.615,0.856c0.988,0.162,1.652,0.499,1.652,0.499c0.365,0.183,0.807,0.049,1-0.317
				c0.172-0.317,0.076-0.711-0.203-0.922C64.793,64.589,64.754,64.56,64.715,64.531L64.715,64.531z"/>
			<path d="M60.285,64.118c-0.172-0.135-0.395-0.201-0.625-0.145c-1.768,0.404-3.344,1.442-4.689,3.075
				c-0.26,0.317-0.221,0.798,0.096,1.048c0.328,0.24,0.799,0.221,1.049-0.097c1.123-1.374,2.43-2.239,3.863-2.565
				c0.402-0.087,0.652-0.489,0.566-0.894C60.508,64.358,60.41,64.214,60.285,64.118L60.285,64.118z"/>
			<path d="M49.84,48.031c0.404-0.086,0.662-0.471,0.586-0.864c-0.066-0.356-0.375-0.605-0.73-0.605
				c-0.049,0-0.086,0.009-0.135,0.019c-0.037,0.01-0.951,0.183-2.047,0.798c-0.355,0.202-0.49,0.653-0.287,1.009
				c0.201,0.365,0.652,0.49,1.008,0.289C49.109,48.186,49.84,48.041,49.84,48.031L49.84,48.031L49.84,48.031z"/>
			<path d="M44.967,54.614c0.029-1.778,0.51-3.258,1.441-4.411c0.26-0.317,0.213-0.788-0.113-1.047
				c-0.145-0.116-0.309-0.163-0.471-0.163c-0.213,0-0.434,0.086-0.578,0.277c-1.133,1.413-1.73,3.201-1.768,5.314
				c-0.01,0.414,0.316,0.759,0.73,0.759C44.594,55.344,44.967,55.027,44.967,54.614L44.967,54.614z"/>
		</g>
		<g id="ax_2_">
		</g>
	</g>
	<g enable-background="new    ">
		<path d="M26.219,13.956h-0.537v-3.44c-0.135,0.125-0.299,0.25-0.51,0.374c-0.211,0.125-0.404,0.222-0.566,0.279V10.65
			c0.297-0.145,0.566-0.318,0.787-0.52c0.23-0.201,0.385-0.394,0.48-0.586h0.346V13.956L26.219,13.956z"/>
	</g>
	<g enable-background="new    ">
		<path d="M15.707,30.733v0.52h-2.902c0-0.135,0.02-0.26,0.066-0.375c0.078-0.201,0.193-0.394,0.355-0.586
			c0.164-0.192,0.395-0.413,0.701-0.663c0.48-0.395,0.799-0.701,0.971-0.933c0.164-0.23,0.25-0.441,0.25-0.653
			c0-0.211-0.076-0.394-0.23-0.538c-0.154-0.144-0.355-0.221-0.596-0.221c-0.26,0-0.471,0.077-0.625,0.23
			c-0.152,0.153-0.23,0.375-0.24,0.644L12.9,28.101c0.039-0.413,0.182-0.729,0.432-0.941c0.25-0.222,0.576-0.327,1-0.327
			c0.422,0,0.76,0.115,1,0.355c0.25,0.23,0.365,0.529,0.365,0.865c0,0.173-0.039,0.346-0.105,0.519
			c-0.068,0.174-0.193,0.347-0.355,0.539c-0.164,0.191-0.443,0.441-0.838,0.778c-0.326,0.269-0.527,0.451-0.623,0.558
			c-0.098,0.096-0.164,0.191-0.23,0.287H15.707L15.707,30.733z"/>
	</g>
	<g enable-background="new    ">
		<path d="M33.369,30.09l0.537-0.067c0.059,0.308,0.164,0.529,0.318,0.663c0.152,0.135,0.326,0.202,0.547,0.202
			c0.25,0,0.471-0.086,0.645-0.26c0.172-0.173,0.26-0.394,0.26-0.653c0-0.25-0.078-0.451-0.24-0.615
			c-0.164-0.163-0.365-0.24-0.615-0.24c-0.105,0-0.23,0.02-0.385,0.059l0.057-0.472c0.039,0,0.068,0.01,0.088,0.01
			c0.23,0,0.432-0.058,0.625-0.183c0.182-0.115,0.277-0.308,0.277-0.558c0-0.201-0.066-0.364-0.201-0.489
			c-0.135-0.135-0.309-0.193-0.52-0.193s-0.385,0.068-0.527,0.203c-0.145,0.134-0.232,0.326-0.27,0.595l-0.539-0.096
			c0.068-0.365,0.211-0.644,0.451-0.846c0.232-0.202,0.529-0.298,0.875-0.298c0.24,0,0.461,0.048,0.664,0.154
			c0.201,0.105,0.355,0.24,0.461,0.422c0.105,0.184,0.162,0.365,0.162,0.567c0,0.192-0.047,0.365-0.152,0.52
			c-0.105,0.153-0.25,0.278-0.451,0.374c0.258,0.058,0.461,0.183,0.604,0.375c0.145,0.192,0.213,0.423,0.213,0.711
			c0,0.385-0.145,0.711-0.424,0.98c-0.277,0.269-0.633,0.403-1.057,0.403c-0.385,0-0.701-0.115-0.961-0.346
			C33.551,30.753,33.406,30.455,33.369,30.09z"/>
	</g>
	<g enable-background="new    ">
		<path d="M45.197,17.338v-1.057h-1.902v-0.49l2.008-2.845h0.443v2.845h0.596v0.49h-0.596v1.057H45.197z M45.197,15.791v-1.979
			l-1.373,1.979H45.197z"/>
	</g>
	<g enable-background="new    ">
		<path d="M64.244,16.194l0.568-0.048c0.037,0.278,0.143,0.48,0.287,0.625c0.154,0.135,0.336,0.211,0.557,0.211
			c0.26,0,0.48-0.096,0.664-0.298c0.184-0.192,0.27-0.451,0.27-0.778c0-0.308-0.086-0.548-0.26-0.73s-0.404-0.269-0.684-0.269
			c-0.172,0-0.326,0.038-0.471,0.115c-0.143,0.077-0.248,0.183-0.326,0.308l-0.51-0.067l0.424-2.259h2.191v0.52h-1.76l-0.24,1.182
			c0.26-0.183,0.539-0.278,0.828-0.278c0.383,0,0.711,0.134,0.969,0.403c0.26,0.27,0.395,0.605,0.395,1.028
			c0,0.394-0.115,0.74-0.346,1.028c-0.279,0.355-0.664,0.538-1.154,0.538c-0.402,0-0.729-0.115-0.979-0.337
			C64.418,16.867,64.283,16.56,64.244,16.194z"/>
	</g>
	<g enable-background="new    ">
		<path d="M55.184,32.137l-0.539,0.039c-0.049-0.212-0.115-0.365-0.203-0.462c-0.143-0.153-0.324-0.23-0.537-0.23
			c-0.174,0-0.326,0.048-0.451,0.145c-0.174,0.125-0.307,0.308-0.404,0.538c-0.096,0.24-0.143,0.576-0.152,1.019
			c0.133-0.202,0.287-0.346,0.48-0.442c0.191-0.096,0.383-0.144,0.586-0.144c0.355,0,0.662,0.134,0.922,0.394
			s0.375,0.605,0.375,1.028c0,0.278-0.059,0.528-0.184,0.769c-0.115,0.24-0.277,0.423-0.488,0.548
			c-0.213,0.125-0.443,0.192-0.711,0.192c-0.453,0-0.818-0.163-1.105-0.5c-0.289-0.326-0.424-0.874-0.424-1.634
			c0-0.846,0.154-1.47,0.471-1.854c0.279-0.336,0.645-0.499,1.105-0.499c0.346,0,0.625,0.096,0.846,0.288
			C55,31.531,55.135,31.801,55.184,32.137z M52.973,34.04c0,0.183,0.039,0.364,0.115,0.538c0.078,0.173,0.191,0.298,0.326,0.384
			c0.145,0.087,0.289,0.135,0.443,0.135c0.23,0,0.422-0.096,0.584-0.278c0.164-0.184,0.25-0.433,0.25-0.75
			c0-0.308-0.076-0.548-0.24-0.721c-0.162-0.173-0.363-0.259-0.613-0.259c-0.24,0-0.451,0.086-0.625,0.259
			C53.059,33.521,52.973,33.751,52.973,34.04z"/>
	</g>
	<g enable-background="new    ">
		<path d="M30.178,50.924v-0.519h2.846v0.423c-0.279,0.298-0.559,0.692-0.836,1.191c-0.279,0.49-0.49,1-0.635,1.528
			c-0.105,0.364-0.174,0.768-0.213,1.211h-0.547c0.01-0.347,0.076-0.76,0.201-1.249c0.135-0.49,0.318-0.962,0.559-1.414
			c0.24-0.451,0.5-0.835,0.777-1.152h-2.152V50.924z"/>
	</g>
	<g enable-background="new    ">
		<path d="M20.627,69.663c-0.221-0.087-0.395-0.202-0.5-0.356c-0.105-0.153-0.164-0.335-0.164-0.548
			c0-0.316,0.115-0.585,0.346-0.806c0.23-0.223,0.539-0.327,0.914-0.327c0.383,0,0.691,0.114,0.922,0.336s0.355,0.49,0.355,0.816
			c0,0.202-0.057,0.385-0.162,0.528c-0.107,0.145-0.27,0.27-0.492,0.347c0.27,0.087,0.473,0.23,0.617,0.423
			c0.143,0.191,0.211,0.433,0.211,0.701c0,0.375-0.135,0.692-0.404,0.952c-0.27,0.259-0.615,0.384-1.047,0.384
			c-0.434,0-0.789-0.125-1.049-0.384c-0.268-0.26-0.402-0.577-0.402-0.962c0-0.288,0.076-0.527,0.221-0.721
			C20.146,69.864,20.357,69.73,20.627,69.663z M20.338,70.777c0,0.154,0.039,0.308,0.105,0.452c0.078,0.144,0.184,0.26,0.328,0.336
			c0.143,0.077,0.297,0.115,0.461,0.115c0.258,0,0.471-0.087,0.633-0.25c0.164-0.163,0.25-0.375,0.25-0.635
			c0-0.259-0.086-0.471-0.26-0.643c-0.172-0.173-0.393-0.26-0.652-0.26c-0.25,0-0.461,0.087-0.635,0.25
			C20.424,70.315,20.338,70.527,20.338,70.777z M20.512,68.749c0,0.213,0.066,0.376,0.201,0.51c0.135,0.135,0.307,0.202,0.52,0.202
			c0.211,0,0.373-0.067,0.508-0.192c0.135-0.135,0.203-0.288,0.203-0.48c0-0.202-0.068-0.365-0.203-0.5
			c-0.135-0.134-0.307-0.201-0.508-0.201c-0.203,0-0.375,0.067-0.51,0.201C20.588,68.404,20.512,68.558,20.512,68.749z"/>
	</g>
	<g enable-background="new    ">
		<path d="M40.25,71.026l0.518-0.047c0.049,0.24,0.125,0.423,0.25,0.528s0.279,0.163,0.48,0.163c0.164,0,0.309-0.038,0.434-0.115
			c0.125-0.076,0.23-0.173,0.307-0.307c0.076-0.126,0.145-0.299,0.201-0.52c0.059-0.212,0.078-0.433,0.078-0.663
			c0-0.02,0-0.059,0-0.105c-0.105,0.173-0.26,0.307-0.443,0.423c-0.182,0.105-0.393,0.163-0.605,0.163
			c-0.365,0-0.672-0.135-0.922-0.394c-0.25-0.26-0.375-0.616-0.375-1.048c0-0.442,0.135-0.808,0.395-1.077
			c0.26-0.269,0.596-0.402,0.99-0.402c0.287,0,0.547,0.077,0.787,0.23s0.414,0.375,0.539,0.662c0.125,0.289,0.182,0.702,0.182,1.24
			c0,0.557-0.057,1.009-0.182,1.346c-0.125,0.336-0.309,0.586-0.549,0.759s-0.518,0.26-0.846,0.26c-0.346,0-0.625-0.096-0.846-0.289
			C40.422,71.643,40.297,71.373,40.25,71.026z M42.459,69.086c0-0.308-0.086-0.558-0.25-0.739c-0.162-0.183-0.365-0.27-0.596-0.27
			c-0.24,0-0.451,0.097-0.625,0.298c-0.172,0.202-0.268,0.451-0.268,0.759c0,0.279,0.086,0.51,0.248,0.683
			c0.174,0.174,0.375,0.26,0.625,0.26s0.453-0.086,0.615-0.26C42.383,69.644,42.459,69.394,42.459,69.086z"/>
	</g>
	<g enable-background="new    ">
		<path d="M52.291,58.131h-0.539v-3.439c-0.135,0.125-0.299,0.249-0.51,0.375c-0.211,0.124-0.402,0.221-0.566,0.277v-0.519
			c0.297-0.144,0.566-0.316,0.787-0.519c0.23-0.202,0.385-0.395,0.48-0.586h0.348V58.131z"/>
		<path d="M53.674,55.969c0-0.519,0.057-0.941,0.164-1.259c0.105-0.317,0.27-0.558,0.48-0.729c0.211-0.174,0.48-0.26,0.797-0.26
			c0.24,0,0.441,0.048,0.625,0.144c0.184,0.097,0.326,0.23,0.441,0.414c0.115,0.182,0.213,0.394,0.27,0.652
			c0.066,0.26,0.096,0.606,0.096,1.038c0,0.52-0.059,0.933-0.162,1.249c-0.107,0.318-0.27,0.558-0.471,0.73
			c-0.203,0.173-0.48,0.26-0.799,0.26c-0.424,0-0.758-0.153-0.998-0.451C53.818,57.391,53.674,56.796,53.674,55.969z M54.23,55.969
			c0,0.721,0.088,1.201,0.25,1.441c0.174,0.24,0.375,0.356,0.625,0.356s0.451-0.116,0.625-0.356s0.25-0.721,0.25-1.441
			c0-0.72-0.086-1.2-0.25-1.44c-0.174-0.24-0.375-0.356-0.635-0.356c-0.25,0-0.441,0.106-0.596,0.317
			C54.328,54.749,54.23,55.249,54.23,55.969z"/>
	</g>
	<g enable-background="new    ">
		<path d="M73.854,58.131h-0.537v-3.439c-0.135,0.125-0.299,0.249-0.51,0.375c-0.211,0.124-0.402,0.221-0.566,0.277v-0.519
			c0.297-0.144,0.566-0.316,0.787-0.519c0.23-0.202,0.385-0.395,0.48-0.586h0.346V58.131z"/>
		<path d="M76.814,58.131h-0.539v-3.439c-0.135,0.125-0.299,0.249-0.51,0.375c-0.211,0.124-0.402,0.221-0.566,0.277v-0.519
			c0.299-0.144,0.566-0.316,0.787-0.519c0.23-0.202,0.385-0.395,0.48-0.586h0.348V58.131z"/>
	</g>
	<g enable-background="new    ">
		<path d="M60.832,76.255h-0.537v-3.44c-0.135,0.125-0.297,0.25-0.51,0.375c-0.211,0.124-0.402,0.221-0.566,0.279v-0.529
			c0.297-0.145,0.566-0.317,0.787-0.519c0.232-0.202,0.385-0.394,0.482-0.587h0.344V76.255z"/>
		<path d="M65.053,75.736v0.519H62.15c0-0.135,0.02-0.259,0.066-0.375c0.076-0.201,0.191-0.394,0.355-0.586s0.395-0.413,0.701-0.663
			c0.48-0.394,0.797-0.701,0.971-0.932c0.164-0.23,0.25-0.442,0.25-0.654c0-0.211-0.076-0.394-0.23-0.537
			c-0.154-0.145-0.355-0.223-0.596-0.223c-0.26,0-0.471,0.078-0.625,0.232c-0.154,0.153-0.23,0.374-0.24,0.643l-0.557-0.058
			c0.037-0.413,0.182-0.729,0.432-0.941c0.25-0.221,0.578-0.327,1-0.327s0.76,0.116,1,0.356c0.25,0.23,0.365,0.528,0.365,0.864
			c0,0.174-0.039,0.346-0.107,0.519c-0.066,0.174-0.191,0.347-0.355,0.538c-0.162,0.193-0.441,0.443-0.836,0.779
			c-0.326,0.269-0.527,0.451-0.625,0.557c-0.094,0.097-0.162,0.192-0.23,0.289H65.053L65.053,75.736z"/>
	</g>
</g>
</svg>
