<?xml version="1.0" encoding="utf-8"?>
<!-- Generator: Adobe Illustrator 16.0.0, SVG Export Plug-In . SVG Version: 6.00 Build 0)  -->
<!DOCTYPE svg PUBLIC "-//W3C//DTD SVG 1.1//EN" "http://www.w3.org/Graphics/SVG/1.1/DTD/svg11.dtd">
<svg version="1.1" id="Layer_1" xmlns="http://www.w3.org/2000/svg" xmlns:xlink="http://www.w3.org/1999/xlink" x="0px" y="0px"
	 width="85px" height="85px" viewBox="0 0 85 85" enable-background="new 0 0 85 85" xml:space="preserve">
<g>
	<path fill="#306BB1" d="M62.161,62.122H39.005V43.284c0-0.785,0.637-1.422,1.422-1.422h20.314c0.785,0,1.422,0.637,1.422,1.422
		L62.161,62.122L62.161,62.122z"/>
	<path fill="#6AC6F0" d="M21.095,31.356c0,3.154-2.559,5.711-5.711,5.711c-3.154,0-5.711-2.557-5.711-5.711
		c0-3.152,2.557-5.709,5.711-5.709S21.095,28.204,21.095,31.356z"/>
	<path fill="#A1DEF9" d="M50.583,29.134c0,2.459-1.992,4.455-4.453,4.455s-4.455-1.994-4.455-4.455s1.994-4.455,4.455-4.455
		S50.583,26.673,50.583,29.134z"/>
	<path fill="#67C7E5" d="M46.13,24.679c-0.57,0-1.115,0.111-1.617,0.307c1.66,0.648,2.84,2.26,2.84,4.148s-1.18,3.5-2.84,4.146
		c0.502,0.195,1.047,0.309,1.617,0.309c2.461,0,4.453-1.994,4.453-4.455S48.591,24.679,46.13,24.679z"/>
	<path fill="#A1DEF9" d="M38.38,14.212c0,3.684-2.986,6.67-6.67,6.67s-6.67-2.986-6.67-6.67s2.986-6.67,6.67-6.67
		S38.38,10.528,38.38,14.212z"/>
	<path fill="#67C7E5" d="M31.71,7.542c-0.559,0-1.098,0.076-1.615,0.205c2.9,0.725,5.053,3.34,5.053,6.465s-2.152,5.74-5.053,6.463
		c0.518,0.131,1.057,0.207,1.615,0.207c3.684,0,6.67-2.986,6.67-6.67S35.394,7.542,31.71,7.542z"/>
	<path fill="#295AA1" d="M59.784,41.862h-3.23c1.311,0,2.377,1.064,2.377,2.379V62.12h3.232V44.241
		C62.161,42.927,61.097,41.862,59.784,41.862z"/>
	<path fill="#FFFFFF" d="M62.161,51.46v10.662H39.005V51.46H9.675l5.445,16.934c0.623,1.936,1.988,3.477,3.719,4.354v3.49
		c0,1.705,1.395,3.102,3.102,3.102c1.705,0,3.102-1.396,3.102-3.102V73.55h35.037v2.688c0,1.705,1.395,3.102,3.102,3.102
		c1.705,0,3.102-1.396,3.102-3.102v-3.557c1.674-0.887,2.992-2.395,3.602-4.287l5.445-16.934H62.161L62.161,51.46z"/>
	<g>
		<polygon fill="#D8D8D8" points="75.327,51.46 62.161,51.46 62.161,54.69 74.288,54.69 		"/>
		<polygon fill="#D8D8D8" points="39.005,54.69 39.005,51.46 9.675,51.46 10.714,54.69 		"/>
		<rect x="39.005" y="62.122" fill="#D8D8D8" width="23.156" height="3.23"/>
	</g>
	<path fill="#A1DEF9" d="M21.095,31.356c0,3.154-2.559,5.711-5.711,5.711c-3.154,0-5.711-2.557-5.711-5.711
		c0-3.152,2.557-5.709,5.711-5.709S21.095,28.204,21.095,31.356z"/>
	<path fill="#67C7E5" d="M15.384,25.647c-0.562,0-1.104,0.084-1.615,0.234c2.367,0.697,4.094,2.883,4.094,5.475
		s-1.727,4.777-4.094,5.477c0.512,0.15,1.055,0.234,1.615,0.234c3.154,0,5.711-2.557,5.711-5.711
		C21.095,28.204,18.538,25.647,15.384,25.647z"/>
	<path fill="#FFFFFF" d="M39.005,45.146H6.87c-1.736,0-3.157,1.42-3.157,3.156s1.421,3.156,3.157,3.156h32.137L39.005,45.146
		L39.005,45.146z"/>
	<path fill="#FFFFFF" d="M78.132,45.146H62.161v6.312h15.971c1.736,0,3.156-1.42,3.156-3.156S79.868,45.146,78.132,45.146z"/>
	<rect x="35.772" y="45.146" fill="#D8D8D8" width="3.232" height="6.312"/>
	<path fill="#D8D8D8" d="M78.132,45.146h-3.232c1.736,0,3.158,1.42,3.158,3.156s-1.422,3.156-3.158,3.156h3.232
		c1.736,0,3.156-1.42,3.156-3.156S79.868,45.146,78.132,45.146z"/>
	<g>
		<path fill="#2F2F31" d="M15.384,38.278c3.816,0,6.924-3.104,6.924-6.922c0-3.816-3.107-6.922-6.924-6.922
			s-6.922,3.105-6.922,6.922C8.461,35.175,11.565,38.278,15.384,38.278z M15.384,26.858c2.48,0,4.5,2.018,4.5,4.498
			s-2.02,4.498-4.5,4.498s-4.498-2.018-4.498-4.498S12.903,26.858,15.384,26.858z"/>
		<path fill="#2F2F31" d="M46.13,34.8c3.125,0,5.666-2.543,5.666-5.666c0-3.125-2.541-5.668-5.666-5.668s-5.666,2.543-5.666,5.668
			S43.005,34.8,46.13,34.8z M46.13,25.892c1.787,0,3.242,1.455,3.242,3.242s-1.455,3.242-3.242,3.242
			c-1.789,0-3.242-1.455-3.242-3.242C42.888,27.345,44.341,25.892,46.13,25.892z"/>
		<path fill="#2F2F31" d="M31.71,22.095c4.346,0,7.883-3.537,7.883-7.883s-3.537-7.881-7.883-7.881s-7.883,3.535-7.883,7.881
			S27.364,22.095,31.71,22.095z M31.71,8.755c3.01,0,5.459,2.449,5.459,5.457c0,3.01-2.449,5.457-5.459,5.457
			s-5.457-2.447-5.457-5.457C26.253,11.204,28.7,8.755,31.71,8.755z"/>
		<path fill="#2F2F31" d="M78.134,43.933H74.69V12.771c0-4.588-3.73-8.32-8.318-8.32s-8.32,3.732-8.32,8.32v2.67
			c0,0.67,0.543,1.213,1.211,1.213c0.67,0,1.213-0.543,1.213-1.213v-2.67c0-3.25,2.646-5.895,5.896-5.895s5.896,2.645,5.896,5.895
			v31.162h-8.924c-0.158-1.832-1.686-3.281-3.559-3.281H41.384c-1.873,0-3.398,1.449-3.559,3.281H6.87
			c-2.41,0-4.369,1.961-4.369,4.369c0,2.41,1.959,4.369,4.369,4.369h1.92l5.178,16.096c0.633,1.967,1.92,3.607,3.658,4.688v2.783
			c0,2.379,1.936,4.312,4.312,4.312s4.312-1.936,4.312-4.312v-1.475h32.613v1.475c0,2.379,1.936,4.312,4.312,4.312
			c2.379,0,4.312-1.936,4.312-4.312v-2.861c1.682-1.08,2.928-2.695,3.543-4.609l5.178-16.094h1.92c2.41,0,4.369-1.959,4.369-4.369
			C82.501,45.894,80.542,43.933,78.134,43.933z M40.218,44.241c0-0.643,0.521-1.166,1.166-1.166h18.4
			c0.643,0,1.166,0.523,1.166,1.166v0.902v6.314v9.451H40.218v-9.451v-6.314V44.241L40.218,44.241z M4.925,48.302
			c0-1.072,0.872-1.945,1.944-1.945h30.925v3.891H9.673H6.869C5.797,50.247,4.925,49.376,4.925,48.302z M68.728,68.022
			c-0.498,1.547-1.57,2.822-3.016,3.588c-0.396,0.209-0.645,0.621-0.645,1.07v3.557c0,1.041-0.848,1.889-1.891,1.889
			c-1.041,0-1.889-0.848-1.889-1.889V73.55c0-0.67-0.543-1.213-1.213-1.213H25.038c-0.67,0-1.213,0.543-1.213,1.213v2.688
			c0,1.041-0.848,1.889-1.889,1.889s-1.889-0.848-1.889-1.889v-3.492c0-0.457-0.256-0.873-0.664-1.08
			c-1.494-0.758-2.6-2.053-3.111-3.643l-4.939-15.352H37.79v9.449c0,0.67,0.543,1.213,1.211,1.213h23.158
			c0.67,0,1.211-0.543,1.211-1.213v-9.449h10.291L68.728,68.022z M78.134,50.247h-2.807H63.374v-3.891h14.76
			c1.07,0,1.943,0.873,1.943,1.945C80.077,49.376,79.204,50.247,78.134,50.247z"/>
	</g>
</g>
</svg>
