<?xml version="1.0" encoding="utf-8"?>
<!-- Generator: Adobe Illustrator 16.0.0, SVG Export Plug-In . SVG Version: 6.00 Build 0)  -->
<!DOCTYPE svg PUBLIC "-//W3C//DTD SVG 1.1//EN" "http://www.w3.org/Graphics/SVG/1.1/DTD/svg11.dtd">
<svg version="1.1" id="Layer_1" xmlns="http://www.w3.org/2000/svg" xmlns:xlink="http://www.w3.org/1999/xlink" x="0px" y="0px"
	 width="85px" height="85px" viewBox="0 0 85 85" enable-background="new 0 0 85 85" xml:space="preserve">
<g>
	<g>
		<path d="M81.947,6.392c-1.318-1.689-2.98-2.275-5.207-1.582c-0.734,0.229-1.443,0.377-2.207,0.377
			c-7.941-0.01-15.883-0.01-23.824,0c-0.764,0-1.48-0.105-2.209-0.367c-2.938-1.062-5.993,1.219-5.825,4.336
			c0.031,0.584-0.033,1.137-0.176,1.695c-0.836,3.279-1.699,6.553-2.523,9.834c-0.172,0.686-0.496,0.936-1.189,0.914
			c-1.223-0.037-2.449-0.049-3.67,0.006c-1.09,0.049-1.588,0.514-1.725,1.52c0.23,0.93,0.678,1.311,1.701,1.404
			c0.752,0.07,1.51,0.012,2.264,0.035c0.227,0.008,0.477-0.023,0.625,0.221c0.389,0.641-0.035,1.461-0.768,1.48
			c-0.26,0.008-0.52,0.002-0.779,0.002c-7.076,0.002-14.152,0-21.209,0.002c0.328-0.191,0.592-0.49,0.754-0.836
			c0.336-0.723,0.891-0.895,1.643-0.889c3.461,0.029,6.922,0.016,10.383,0.014c0.469,0,0.938,0.002,1.395-0.127
			c0.654-0.184,1.119-0.543,1.199-1.268c-0.227-1.164-0.691-1.559-1.945-1.564c-3.279-0.018-6.562-0.002-9.842-0.008
			c-0.992-0.002-1.023-0.061-0.633-0.945c0.703-1.596,1.428-3.184,2.084-4.799c0.631-1.561,0.707-3.113,0.227-4.734
			c-1.094-3.701-5.043-5.912-8.737-4.936c-3.913,1.035-6.746,5.572-4.823,9.979c0.969,2.219,1.943,4.438,2.943,6.641
			c0.228,0.5,0.267,0.965,0.1,1.502c-0.667,2.154,0.539,4.221,2.727,4.744c0.638,0.152,1.283,0.193,1.938,0.193
			c7.316-0.004,14.635-0.004,21.951-0.002c1.143,0,1.162,0.025,0.877,1.15c-0.766,3.027-1.561,6.051-2.328,9.078
			c-0.164,0.646-0.461,0.9-1.129,0.891c-1.873-0.029-3.748-0.016-5.623-0.006c-0.555,0.002-1.082-0.076-1.605-0.268
			c-1.041-0.381-2.096-0.375-3.135,0.016c-0.498,0.188-1.004,0.25-1.529,0.25C18,40.341,13.886,40.339,9.771,40.347
			c-0.554,0-1.082-0.076-1.604-0.275c-2.354-0.896-5.366,0.492-5.667,3.311c0,0.572,0,1.146,0,1.719
			c0.118,0.033,0.13,0.135,0.167,0.232c1.017,2.699,3.449,3.689,6.029,2.436c0.301-0.146,0.594-0.156,0.902-0.156
			c3.801,0.002,7.602,0.02,11.402-0.016c0.648-0.008,0.744,0.207,0.742,0.781c-0.02,5.938-0.01,11.871-0.016,17.807
			c0,0.311-0.012,0.627-0.072,0.932c-0.445,2.254,0.941,4.359,3.164,4.898c0.854,0.207,1.652-0.066,2.477-0.066
			c7.186,0,14.369,0.004,21.555-0.012c0.459,0,0.676,0.145,0.857,0.562c0.92,2.117,1.869,4.223,2.818,6.326
			c0.469,1.041,1.275,1.635,2.432,1.65c1.154,0.014,2.006-0.535,2.475-1.582c1.371-3.053,2.771-6.094,4.051-9.186
			c1.305-3.16,0.293-6.391-2.514-8.395c-0.346-0.246-0.441-0.51-0.434-0.906c0.021-1.119,0.053-2.24-0.01-3.355
			c-0.037-0.656,0.213-0.746,0.785-0.742c3.148,0.025,6.299,0.016,9.449,0.01c1.045,0,1.365-0.252,1.604-1.203
			c0.225-0.6-0.117-0.938-0.576-1.197c-0.516-0.291-1.094-0.311-1.67-0.311c-2.656-0.002-5.312-0.012-7.969,0.008
			c-0.711,0.006-0.768-0.355-0.789-0.928c-0.021-0.598,0.209-0.809,0.762-0.783c0.234,0.01,0.471,0,0.703,0
			c4.689,0,9.375,0,14.062-0.002c2.098,0,2.539-0.436,2.539-2.5c0.002-4.244,0-8.488,0.002-12.732c0-0.262-0.014-0.521,0.02-0.779
			c0.023-0.184,0.055-0.355,0.262-0.439c0.885-0.359,1.576,0.082,1.576,1.027c0.004,4.428,0.002,8.854,0,13.281
			c0,0.338-0.01,0.676-0.068,1.012c-0.334,1.822-1.498,2.811-3.354,2.836c-0.547,0.008-1.096,0.006-1.617,0.211
			c-0.646,0.258-0.838,0.615-0.73,1.332c0.092,0.686,0.48,1.068,1.164,1.16c4.027,0.545,7.188-2.199,7.191-6.254
			c0.004-5.309,0.016-10.613-0.014-15.92c-0.004-0.812,0.248-1.494,0.641-2.162c0-0.521,0-1.041,0-1.562
			c-0.529-1.111-0.652-2.277-0.643-3.508c0.041-4.959,0.031-9.92,0.002-14.881c-0.004-0.832,0.234-1.545,0.641-2.236
			c0-0.52,0-1.041,0-1.561C82.354,7.603,82.375,6.94,81.947,6.392z M51.451,39.854c0,3.332-0.004,6.664,0.004,9.996
			c0.002,0.447-0.068,0.855-0.258,1.275c-0.492,1.098-0.486,2.225,0.016,3.322c0.168,0.365,0.246,0.723,0.244,1.123
			c-0.014,1.615-0.016,3.229,0.002,4.842c0.004,0.42-0.08,0.705-0.467,0.967c-1.102,0.744-1.908,1.76-2.416,2.988
			c-0.15,0.363-0.344,0.496-0.746,0.496c-6.145-0.014-12.288-0.014-18.43,0c-0.484,0.002-0.613-0.146-0.611-0.621
			c0.016-5.336,0.018-10.672-0.002-16.008c-0.002-0.533,0.172-0.643,0.666-0.635c2.16,0.023,4.32,0.018,6.48,0.01
			c2.807-0.012,5.061-1.732,5.771-4.453c1.17-4.469,2.321-8.945,3.448-13.426c0.152-0.604,0.359-0.842,1.027-0.814
			c1.531,0.062,3.07,0.047,4.605,0.006c0.566-0.016,0.68,0.168,0.676,0.701C51.439,33.032,51.451,36.442,51.451,39.854z
			 M74.818,28.224c0,0.369-0.062,0.699-0.227,1.047c-0.555,1.168-0.555,2.369-0.008,3.541c0.16,0.344,0.234,0.67,0.234,1.043
			c-0.006,4.867-0.014,9.734,0.01,14.604c0.002,0.588-0.115,0.793-0.758,0.789c-4.92-0.029-9.84-0.031-14.76,0.002
			c-0.689,0.006-0.785-0.223-0.783-0.834c0.021-6.768,0.02-13.535,0.012-20.305c-0.004-3.041-1.678-5.309-4.424-6.043
			c-0.633-0.17-1.279-0.213-1.932-0.211c-1.637,0.004-3.273,0.002-4.975,0.002c0.789-3.068,1.562-6.055,2.32-9.045
			c0.074-0.289,0.225-0.383,0.498-0.359c0.129,0.012,0.26,0.002,0.391,0.002c7.861,0,15.723,0.008,23.584-0.014
			c0.621-0.002,0.834,0.105,0.83,0.787C74.801,18.228,74.814,23.226,74.818,28.224z"/>
	</g>
	<path fill="#E43950" d="M70.363,55.116c-0.25-0.973-0.557-1.205-1.688-1.209c-2.938-0.006-5.879-0.018-8.818,0.012
		c-0.631,0.006-0.947-0.104-0.738-0.803c0.043-0.145,0.037-0.309,0.029-0.463c-0.055-1.025-0.059-1.025,1.008-1.025
		c5.074,0,10.146,0,15.221,0c1.459-0.002,1.805-0.342,1.807-1.779c0-4.684,0.01-9.367-0.014-14.051
		c-0.004-0.584,0.111-0.832,0.727-0.635c0.168,0.055,0.359,0.055,0.541,0.049c1.072-0.037,1.072-0.039,1.072,1.016
		c0,4.58-0.045,9.16,0.02,13.736c0.029,2.219-1.465,4.096-3.982,3.957c-1.535-0.082-1.809,0.154-2.029,1.23
		C72.465,55.14,71.414,55.126,70.363,55.116z"/>
	<path fill="#0AB59E" d="M56.137,37.8c0,3.361-0.014,6.721,0.012,10.078c0.004,0.604-0.064,0.973-0.785,0.779
		c-0.477-0.129-1.146,0.279-1.398-0.09c-0.248-0.361-0.104-1-0.104-1.518c-0.004-6.225-0.002-12.447-0.004-18.672
		c0-1.494-0.346-1.838-1.85-1.84c-1.613,0-3.229-0.008-4.844,0.006c-0.436,0.004-0.777,0.008-0.609-0.604
		c0.143-0.523-0.256-1.234,0.135-1.566c0.398-0.34,1.1-0.1,1.666-0.105c1.303-0.018,2.604-0.008,3.906-0.004
		c2.506,0.01,3.869,1.359,3.875,3.85C56.143,31.343,56.137,34.571,56.137,37.8z"/>
	<path fill="#0AB59E" d="M30.423,23.091c1.049-0.01,2.096-0.02,3.145-0.029c0.121,0.846,0.654,1.193,1.461,1.199
		c0.938,0.008,1.873,0.014,2.809-0.002c0.402-0.006,0.633,0.025,0.506,0.553c-0.094,0.393-0.072,0.838,0.01,1.234
		c0.082,0.406-0.021,0.498-0.402,0.498c-7.748-0.014-15.496-0.018-23.242-0.025c-0.02,0-0.037-0.023-0.139-0.094
		c0.816-0.385,1.279-1.047,1.586-1.822c0.174-0.441,0.535-0.336,0.854-0.336c3.9-0.004,7.801,0,11.701-0.006
		C29.867,24.259,30.148,24.058,30.423,23.091z"/>
	<path fill="#FDC064" d="M62.65,10.087c-3.592,0-7.184-0.014-10.771,0.014c-0.615,0.006-0.951-0.064-0.723-0.781
		c0.061-0.189,0.041-0.414,0.025-0.619c-0.068-0.938-0.072-0.938,0.904-0.938c7.129,0,14.258,0.008,21.387-0.014
		c0.594-0.002,0.949,0.043,0.74,0.758c-0.043,0.145-0.021,0.311-0.016,0.467c0.018,0.354,0.047,0.707,0.07,1.061
		c-0.387,0.02-0.773,0.053-1.16,0.053C69.623,10.089,66.137,10.087,62.65,10.087z"/>
	<path fill="#FDC065" d="M29.396,42.923c1.977,0,4.027,0.002,6.078,0c1.27,0,1.508-0.184,1.828-1.428
		c1.004-3.895,2.014-7.787,2.998-11.688c0.129-0.512,0.273-0.795,0.838-0.479c0.152,0.086,0.344,0.115,0.521,0.146
		c1.088,0.191,1.088,0.189,0.805,1.281c-0.984,3.818-1.971,7.639-2.959,11.457c-0.537,2.082-1.768,3.033-3.928,3.033
		c-1.82,0.002-3.641-0.016-5.461,0.01c-0.551,0.01-0.873-0.031-0.738-0.732C29.472,44.03,29.396,43.503,29.396,42.923z"/>
	<path fill="#3691BB" d="M38.98,69.53c-2.838,0-5.676-0.012-8.514,0.01c-0.602,0.004-1-0.047-0.674-0.787
		c0.029-0.068,0.023-0.152,0.039-0.229c0.088-0.4-0.184-0.973,0.137-1.176c0.32-0.205,0.852-0.094,1.289-0.094
		c5.285-0.004,10.57,0.006,15.856-0.014c0.576-0.002,0.973,0.043,0.879,0.758c-0.016,0.121,0.045,0.254,0.074,0.381
		c0.273,1.15,0.273,1.15-0.887,1.15C44.447,69.53,41.712,69.53,38.98,69.53z"/>
	<path fill="#3691BB" d="M24.099,56.147c0-2.42,0.016-4.84-0.012-7.26c-0.006-0.559,0.141-0.768,0.703-0.617
		c0.197,0.053,0.412,0.064,0.617,0.057c1.012-0.045,1.012-0.051,1.012,1.002c0,4.58-0.01,9.158,0.014,13.738
		c0.002,0.584-0.104,0.877-0.758,0.762c-0.246-0.045-0.543-0.037-0.77,0.057c-0.799,0.328-0.824-0.096-0.816-0.715
		C24.113,60.829,24.099,58.487,24.099,56.147z"/>
	<path fill="#EA5569" d="M12.521,22.29c-1.103-2.484-2.271-4.943-3.293-7.461c-1.267-3.117,1.299-6.486,4.686-6.254
		c0.844,0.248,1.303,0.904,1.701,1.617c0.102,0.18,0.18,0.387-0.018,0.572c-0.338,0.061-0.596-0.146-0.879-0.264
		c-1.215-0.502-2.723-0.143-3.471,0.834c-0.832,1.08-0.883,2.555-0.125,3.557c0.873,1.15,2.33,1.562,3.619,1.025
		c0.238-0.098,0.445-0.275,0.723-0.271c0.414,0.168,0.234,0.469,0.131,0.711c-0.779,1.834-1.605,3.648-2.423,5.467
		C13.061,22.073,12.963,22.452,12.521,22.29z"/>
	<path fill="#5A5A5A" d="M54.064,76.347c-1.221-2.525-2.406-5.068-3.408-7.688c-1.203-3.145,1.371-6.404,4.807-6.184
		c0.662,0.305,1.115,0.834,1.498,1.428c0.148,0.23,0.324,0.529-0.141,0.662c-0.631-0.123-1.227-0.383-1.896-0.367
		c-1.309,0.029-2.168,0.699-2.641,1.836c-0.455,1.09-0.264,2.156,0.531,3.047c0.82,0.922,2.092,1.199,3.207,0.795
		c0.326-0.119,0.604-0.443,1.01-0.283c0.236,0.373,0.012,0.701-0.127,1.021c-0.762,1.754-1.531,3.506-2.342,5.236
		C54.461,76.069,54.42,76.374,54.064,76.347z"/>
	<path fill="#E43950" d="M77.184,19.944c0-2.105,0.012-4.211-0.012-6.316c-0.006-0.539,0.041-0.871,0.705-0.641
		c0.211,0.072,0.486,0.096,0.691,0.027c0.848-0.281,0.963,0.084,0.957,0.85c-0.035,4.133-0.025,8.266-0.006,12.4
		c0.004,0.559-0.092,0.852-0.719,0.68c-0.148-0.041-0.311-0.047-0.465-0.047c-1.154,0-1.154,0.002-1.154-1.184
		C77.184,23.792,77.184,21.868,77.184,19.944z"/>
	<path fill="#444444" d="M54.064,76.347c0.887-1.625,1.553-3.354,2.314-5.035c0.252-0.557,0.592-1.092,0.645-1.729
		c-0.039-0.268,0.156-0.426,0.285-0.615c0.895-1.314,0.854-2.58-0.117-3.811c-0.158-0.197-0.389-0.361-0.344-0.666
		c0.303-0.438-0.146-0.643-0.324-0.883c-0.307-0.414-0.701-0.76-1.061-1.133c3.02,0.332,4.959,3.242,3.912,6.049
		c-1.162,3.113-2.631,6.102-4.006,9.125c-0.074,0.162-0.129,0.365-0.346,0.383c-0.273,0.021-0.328-0.225-0.41-0.404
		C54.42,77.206,54.246,76.774,54.064,76.347z"/>
	<path fill="#E43950" d="M15.615,10.759c-0.23-0.99-0.955-1.596-1.701-2.184c3.174,0.318,5.117,3.342,3.92,6.281
		c-1.227,3.004-2.604,5.945-3.914,8.914c-0.082,0.189-0.146,0.414-0.412,0.398c-0.225-0.01-0.271-0.223-0.344-0.381
		c-0.221-0.496-0.43-0.998-0.643-1.498c0.768-0.555,0.842-1.498,1.229-2.258c0.645-1.264,1.164-2.59,1.738-3.889
		c0.061-0.143,0.162-0.275,0.008-0.418c-0.133-0.289,0.145-0.406,0.264-0.576c0.965-1.357,0.998-2.385,0.107-3.771
		C15.746,11.19,15.566,11.022,15.615,10.759z"/>
	<path fill="#FDC064" d="M10.643,42.925c3.472,0,6.847,0.006,10.222-0.008c0.398,0,0.398,0.172,0.348,0.479
		c-0.061,0.355-0.164,0.752-0.066,1.076c0.234,0.801-0.174,0.793-0.764,0.789c-3.014-0.021-6.027-0.021-9.041,0
		c-0.5,0.004-0.68-0.09-0.574-0.631C10.869,44.097,10.798,43.544,10.643,42.925z"/>
	<path fill="#FDC064" d="M46.975,13.267c-0.35,1.336-0.68,2.588-1.006,3.844c-0.355,1.381-0.729,2.758-1.053,4.146
		c-0.113,0.482-0.232,0.715-0.742,0.383c-0.211-0.139-0.482-0.262-0.725-0.26c-0.981,0.016-0.856-0.484-0.67-1.17
		c0.633-2.328,1.225-4.666,1.799-7.008c0.137-0.555,0.258-0.82,0.877-0.463c0.344,0.199,0.789,0.227,1.191,0.32
		C46.809,13.099,47.051,13.034,46.975,13.267z"/>
	<path fill="#FCE6C6" d="M6.689,45.931c-0.992,0.016-1.81-0.77-1.82-1.748c-0.01-0.947,0.756-1.742,1.711-1.775
		c1.002-0.035,1.822,0.721,1.853,1.705C8.462,45.095,7.678,45.913,6.689,45.931z"/>
	<path fill="#DEF5FB" d="M27.039,44.179c-0.006,0.992-0.801,1.77-1.797,1.754c-0.959-0.016-1.729-0.781-1.748-1.738
		c-0.018-0.982,0.777-1.785,1.773-1.789C26.265,42.399,27.046,43.183,27.039,44.179z"/>
	<path fill="#FCE7C6" d="M48.803,8.907c0.01,0.986-0.793,1.803-1.77,1.803c-0.98-0.002-1.768-0.811-1.76-1.807
		c0.008-0.963,0.77-1.74,1.725-1.762C47.973,7.12,48.793,7.925,48.803,8.907z"/>
	<path fill="#F6A4AE" d="M78.363,32.806c-0.998,0.012-1.797-0.764-1.801-1.752c-0.006-0.984,0.791-1.773,1.787-1.77
		c0.957,0.006,1.742,0.766,1.773,1.717C80.156,31.972,79.355,32.794,78.363,32.806z"/>
	<path fill="#F6A4AE" d="M78.359,7.106c0.994,0.01,1.795,0.828,1.766,1.803c-0.025,0.939-0.83,1.727-1.77,1.734
		c-0.98,0.008-1.795-0.803-1.793-1.779C76.564,7.872,77.359,7.095,78.359,7.106z"/>
	<path fill="#FCE6C6" d="M44.217,25.437c-0.016,0.988-0.822,1.754-1.823,1.729c-0.959-0.023-1.732-0.807-1.736-1.756
		c-0.002-0.975,0.811-1.773,1.801-1.768C43.453,23.647,44.234,24.442,44.217,25.437z"/>
	<path fill="#89BAD4" d="M25.722,66.185c0.994,0.002,1.787,0.805,1.771,1.791c-0.014,0.969-0.865,1.789-1.822,1.762
		c-0.932-0.027-1.736-0.848-1.742-1.771C23.923,66.989,24.736,66.183,25.722,66.185z"/>
	<path fill="#DEF5FC" d="M54.961,51.009c1.006-0.016,1.789,0.746,1.797,1.744c0.01,0.998-0.771,1.785-1.766,1.783
		c-0.967-0.002-1.734-0.75-1.758-1.713C53.209,51.817,53.965,51.024,54.961,51.009z"/>
	<path fill="#0AB59E" d="M53.877,58.483c0-0.49-0.164-1.066,0.039-1.451c0.268-0.506,0.877,0.059,1.326-0.105
		c0.793-0.287,0.979,0.068,0.906,0.807c-0.059,0.562-0.012,1.137-0.012,1.705c0,0.129,0.049,0.305-0.018,0.381
		c-0.521,0.615-1.229,0.098-1.836,0.273c-0.35,0.102-0.438-0.139-0.428-0.443c0.01-0.389,0.002-0.777,0.002-1.164
		C53.865,58.483,53.871,58.483,53.877,58.483z"/>
	<path d="M15.615,10.759c1.51,1.756,1.473,3.346-0.117,4.971c-2.314,1.52-4.555,0.072-5.02-1.711
		c-0.328-1.264,0.119-2.58,1.151-3.33c1.12-0.814,2.306-0.85,3.521-0.211C15.31,10.562,15.46,10.665,15.615,10.759z"/>
	<path d="M56.848,64.491c1.393,1.496,1.674,2.768,0.887,4.18c-0.188,0.332-0.471,0.609-0.709,0.914
		c-1.117,0.729-2.289,0.967-3.516,0.305c-1.488-0.805-2.082-2.578-1.395-4.064c0.725-1.564,2.418-2.266,4.033-1.666
		C56.391,64.249,56.615,64.38,56.848,64.491z"/>
	<path fill="#EEADB5" d="M14.341,13.19c-0.072,0.467-0.311,0.793-0.795,0.793c-0.475,0-0.771-0.279-0.771-0.775
		c-0.002-0.486,0.266-0.77,0.76-0.777C14.037,12.423,14.253,12.747,14.341,13.19z"/>
	<path fill="#B5D1DF" d="M55.789,67.073c-0.039,0.488-0.303,0.797-0.771,0.809s-0.781-0.271-0.795-0.76
		c-0.014-0.484,0.262-0.771,0.754-0.789C55.473,66.317,55.717,66.608,55.789,67.073z"/>
</g>
</svg>
