<?xml version="1.0" encoding="utf-8"?>
<!-- Generator: Adobe Illustrator 16.0.0, SVG Export Plug-In . SVG Version: 6.00 Build 0)  -->
<!DOCTYPE svg PUBLIC "-//W3C//DTD SVG 1.1//EN" "http://www.w3.org/Graphics/SVG/1.1/DTD/svg11.dtd">
<svg version="1.1" id="Layer_1" xmlns="http://www.w3.org/2000/svg" xmlns:xlink="http://www.w3.org/1999/xlink" x="0px" y="0px"
	 width="85px" height="85px" viewBox="0 0 85 85" enable-background="new 0 0 85 85" xml:space="preserve">
<g>
	<path fill-rule="evenodd" clip-rule="evenodd" d="M65.537,49.182c0.72,0.973,1.104,2.066,0.944,3.27
		c-0.29,2.186,0.363,4.035,1.667,5.783c1.074,1.441,1.965,3.02,2.906,4.557c2.612,4.266,0.741,9.545-3.988,11.209
		c-0.501,0.178-0.575,0.428-0.586,0.891c-0.036,1.521,0.169,3.053-0.128,4.566c-0.085,0.436,0.195,0.359,0.432,0.361
		c1.138,0.002,2.276,0,3.415,0c3.858,0,7.718,0.016,11.577-0.014c0.594-0.004,0.73,0.158,0.723,0.734
		c-0.023,1.945,0.002,1.945-1.912,1.945c-25.709,0-51.418-0.004-77.127,0.016c-0.727,0-0.987-0.135-0.957-0.926
		c0.067-1.754,0.021-1.756,1.775-1.756c4.497,0,8.995,0,13.492,0c0.3,0,0.599,0,0.909,0c-0.299-1.674-0.134-3.285-0.148-4.891
		c-0.004-0.51-0.108-0.756-0.634-0.938c-4.632-1.617-6.544-6.902-4.005-11.094c1.365-2.252,2.793-4.465,4.22-6.68
		c0.302-0.467,0.432-0.926,0.413-1.475c-0.031-0.943-0.019-1.889-0.007-2.832c0.029-2.336,1.722-4.068,4.05-4.053
		c0.659,0.006,0.983-0.232,1.301-0.754c1.082-1.774,2.187-3.537,3.335-5.27c0.322-0.486,0.275-0.79-0.051-1.231
		c-1.204-1.627-2.364-3.288-3.545-4.933c-1.778-2.479-1.946-5.05-0.452-7.721c0.947-1.693,1.873-3.397,2.835-5.082
		c0.237-0.416,0.286-0.764,0.115-1.231c-2.047-5.576,0.274-10.979,5.748-13.398c0.304-0.134,0.49-0.317,0.663-0.58
		c2.25-3.417,5.436-5.05,9.517-5.151c3.564-0.088,6.758,0.778,9.146,3.514c1.138,1.303,2.283,2.443,3.847,3.24
		c1.372,0.7,2.345,1.93,3.163,3.243c0.336,0.02,0.204-0.187,0.167-0.347c-0.363-3.172,0.832-5.81,2.822-8.165
		c1.403-1.662,3.954-1.869,5.597-0.431c0.771,0.675,1.511,1.399,2.179,2.175c1.096,1.271,1.287,2.734,0.622,4.273
		c-0.351,0.812-0.77,1.597-1.185,2.379c-0.176,0.33-0.218,0.555,0.095,0.856c1.121,1.077,2.219,2.179,3.299,3.297
		c0.271,0.281,0.482,0.264,0.787,0.104c0.785-0.411,1.573-0.818,2.377-1.19c1.562-0.723,3.224-0.453,4.472,0.722
		c0.626,0.589,1.237,1.198,1.828,1.823c1.71,1.81,1.499,4.463-0.448,6.004c-2.05,1.622-4.267,2.781-6.982,2.686
		c-2.188-0.077-4.188-0.734-5.771-2.232c-2.56-2.422-5.014-4.957-7.491-7.464c-0.364-0.369-0.613-0.851-0.915-1.281
		c-0.081-0.062-0.142-0.137-0.16-0.241c-0.038,0.129-0.067,0.258-0.007,0.389c0.373,2.015,0.169,3.974-0.609,5.865
		c-0.169,0.41-0.078,0.72,0.123,1.076c0.979,1.735,1.943,3.478,2.903,5.224c1.438,2.614,1.274,5.143-0.44,7.571
		c-1.198,1.697-2.405,3.388-3.629,5.066c-0.272,0.374-0.363,0.641-0.07,1.085c1.217,1.851,2.388,3.731,3.555,5.613
		c0.213,0.344,0.436,0.516,0.854,0.482c1.131-0.09,2.116,0.303,3.005,0.979C65.361,48.867,65.489,48.984,65.537,49.182z"/>
	<path fill-rule="evenodd" clip-rule="evenodd" d="M18.517,35.867c0,2.581,0.007,5.162-0.002,7.744
		c-0.01,2.542-1.685,4.214-4.231,4.224c-2.526,0.008-5.052,0.01-7.577-0.002c-2.484-0.012-4.174-1.703-4.179-4.19
		c-0.009-5.19-0.008-10.38-0.001-15.57c0.004-2.539,1.688-4.214,4.231-4.222c2.525-0.008,5.051-0.01,7.576,0
		c2.487,0.01,4.169,1.697,4.18,4.19C18.525,30.649,18.517,33.257,18.517,35.867z"/>
	<path fill-rule="evenodd" clip-rule="evenodd" d="M17.184,11.943c0,2.523,0.007,5.046-0.002,7.569
		c-0.006,1.523-1.008,2.081-2.325,1.295c-1.807-1.077-3.612-2.156-5.402-3.26c-0.445-0.274-0.89-0.375-1.404-0.375
		c-0.855,0-1.716,0.101-2.563-0.135c-1.688-0.469-2.897-1.948-2.952-3.696c-0.03-0.997-0.034-1.997,0.001-2.994
		c0.074-2.083,1.78-3.883,3.864-3.78c1.823,0.09,3.323-0.436,4.781-1.436c1.207-0.828,2.498-1.537,3.764-2.278
		c1.226-0.718,2.229-0.15,2.235,1.27C17.193,6.73,17.184,9.337,17.184,11.943z"/>
	<path fill-rule="evenodd" clip-rule="evenodd" d="M65.984,44.049c-1.443-0.237-1.449-0.239-0.896-1.602
		c0.702-1.729,1.927-2.946,3.64-3.679c0.456-0.196,0.911-0.396,1.471-0.64c-1.441-1.609-1.083-3.543-0.996-5.382
		c0.098-2.033,1.956-3.588,4.007-3.566c2.01,0.021,3.757,1.583,3.914,3.589c0.08,1.019,0.051,2.052,0.002,3.076
		c-0.042,0.848-0.462,1.576-0.983,2.278c0.388,0.172,0.735,0.34,1.093,0.484c2.592,1.044,4.078,2.935,4.457,5.716
		c0.187,1.371,0.423,2.736,0.69,4.094c0.091,0.459-0.021,0.607-0.456,0.613c-0.715,0.01-1.397,0.521-2.14,0.145
		c-0.262-0.246-0.311-0.572-0.366-0.904c-0.215-1.285-0.438-2.568-0.643-3.854c-0.217-1.372-0.985-2.336-2.196-2.941
		c-0.892-0.446-1.831-0.792-2.744-1.195c-0.43-0.19-0.853-0.183-1.288,0.002c-0.867,0.369-1.746,0.711-2.607,1.095
		c-0.997,0.443-1.732,1.17-2.201,2.171C67.301,44.49,66.895,44.595,65.984,44.049z"/>
	<path fill-rule="evenodd" clip-rule="evenodd" fill="#5790D5" d="M65.984,44.049c0.827,0.239,1.411,0.197,1.716-0.845
		c0.26-0.891,1.027-1.493,1.884-1.895c0.501-0.234,1.005-0.468,1.526-0.648c0.769-0.266,1.507-1.053,2.298-0.734
		c1.598,0.643,3.353,1.033,4.616,2.352c0.754,0.787,0.944,1.791,1.107,2.807c0.219,1.363,0.437,2.727,0.654,4.09
		c-4.749,0.002-9.499,0.004-14.249,0.006c-0.164-0.08-0.302-0.186-0.37-0.361C65.528,47.244,65.751,45.646,65.984,44.049z"/>
	<path fill-rule="evenodd" clip-rule="evenodd" d="M81.965,9.881c0.065,0.209-0.038,0.307-0.228,0.354
		c-0.107,0.027-0.209,0.072-0.315,0.103c-0.583,0.17-1.206,0.552-1.739,0.452c-0.601-0.113-0.556-0.974-0.852-1.479
		c-0.975-1.663-2.321-2.888-4.12-3.566c-0.529-0.199-0.644-0.406-0.411-0.888c0.095-0.196,0.128-0.422,0.189-0.634
		c0.395-1.346,0.401-1.362,1.647-0.798c2.7,1.223,4.583,3.229,5.665,5.986C81.862,9.566,81.911,9.725,81.965,9.881z"/>
	<path fill-rule="evenodd" clip-rule="evenodd" d="M22.524,11.402c-0.016,1.944-0.474,3.245-1.313,4.43
		c-0.245,0.346-0.447,0.459-0.757,0.094c-0.106-0.125-0.248-0.22-0.371-0.331c-0.371-0.332-0.871-0.6-1.074-1.014
		c-0.21-0.429,0.369-0.767,0.528-1.188c0.507-1.345,0.387-2.61-0.411-3.786c-0.222-0.327-0.238-0.497,0.076-0.726
		c0.245-0.178,0.456-0.402,0.684-0.603c1.086-0.956,1.088-0.956,1.806,0.36C22.244,9.651,22.54,10.729,22.524,11.402z"/>
	<path fill-rule="evenodd" clip-rule="evenodd" d="M75.791,13.173c-0.249,0-0.5-0.016-0.747,0.004
		c-0.356,0.028-0.502-0.066-0.582-0.472c-0.236-1.196-0.993-1.934-2.201-2.184c-0.128-0.026-0.278,0.021-0.372-0.118
		c-0.07-0.103-0.072-2.377,0.004-2.468c0.128-0.156,0.303-0.087,0.459-0.087c2.309,0.011,4.747,2.452,4.82,4.782
		c0.014,0.456-0.127,0.59-0.552,0.548C76.347,13.151,76.067,13.173,75.791,13.173z"/>
	<path fill-rule="evenodd" clip-rule="evenodd" fill="#BFBFCA" d="M58.357,12.156c0.123,0.206,0.252,0.439,0.042,0.628
		c-0.068,0.061-0.18-0.149-0.209-0.281C58.246,12.387,58.302,12.271,58.357,12.156z"/>
	<path fill-rule="evenodd" clip-rule="evenodd" fill="#7F7F95" d="M59.476,15.859c-0.15-0.162-0.272-0.358-0.052-0.514
		c0.058-0.041,0.19,0.208,0.219,0.366C59.587,15.761,59.531,15.81,59.476,15.859z"/>
	<path fill-rule="evenodd" clip-rule="evenodd" fill="#DEDEDE" d="M42.521,50.5c6.493,0,12.986,0,19.479,0.002
		c1.415,0,1.826,0.412,1.826,1.832c0.002,8.547,0.001,17.094,0,25.641c0,1.426-0.412,1.844-1.817,1.844
		c-13.015,0.002-26.028,0.002-39.043,0c-1.359,0-1.783-0.428-1.783-1.793c-0.001-8.574-0.001-17.148,0-25.723
		c0-1.373,0.422-1.801,1.774-1.801C29.479,50.5,35.999,50.5,42.521,50.5z"/>
	<path fill-rule="evenodd" clip-rule="evenodd" fill="#FBD5DF" d="M51.833,23.294c-0.049,1.997,0.183,4.196-0.479,6.339
		c-0.364,1.179-0.847,2.263-1.711,3.182c-0.835,0.887-1.565,1.871-2.371,2.787c-0.637,0.722-1.577,1.014-2.336,1.557
		c-1.621,1.159-3.126,1.184-4.808,0.044c-1.1-0.744-2.304-1.302-3.094-2.439c-0.362-0.521-0.784-1.012-1.238-1.457
		c-2.004-1.967-2.585-4.453-2.615-7.13c-0.027-2.413,0.011-4.827-0.018-7.24c-0.007-0.551,0.109-0.809,0.695-0.978
		c3.377-0.973,6.738-2.001,10.101-3.023c0.394-0.12,0.677-0.181,1.004,0.215c1.63,1.978,3.764,3.059,6.299,3.322
		c0.471,0.049,0.59,0.19,0.58,0.641C51.815,20.445,51.833,21.777,51.833,23.294z"/>
	<path fill-rule="evenodd" clip-rule="evenodd" fill="#F3C26E" d="M30.511,19.246c-0.713-0.679-1.325-0.916-2.136-0.491
		c-0.464,0.243-0.332-0.294-0.342-0.496c-0.116-2.447,0.746-4.505,2.544-6.16c0.741-0.682,1.6-1.196,2.571-1.484
		c0.649-0.193,1.071-0.575,1.418-1.171c1.608-2.761,4.04-4.179,7.238-4.25c1.107-0.024,2.221-0.062,3.311,0.211
		c2.322,0.583,4.112,1.896,5.293,3.98c0.352,0.621,0.792,0.996,1.467,1.232c3.211,1.126,5.235,4.129,5.113,7.497
		c-0.017,0.465,0.055,0.941-0.695,0.517c-0.652-0.369-1.199,0.079-1.795,0.604c0-0.693,0.007-1.235-0.001-1.777
		c-0.015-1.134-0.485-1.638-1.634-1.597c-2.193,0.078-4.111-0.515-5.627-2.156c-0.337-0.365-0.617-0.783-0.908-1.187
		c-0.425-0.59-0.963-0.784-1.668-0.571c-4.348,1.308-8.697,2.609-13.046,3.911c-0.771,0.23-1.13,0.742-1.106,1.545
		C30.523,17.956,30.511,18.51,30.511,19.246z"/>
	<path fill-rule="evenodd" clip-rule="evenodd" fill="#FEC6D2" d="M55.604,22.148c1.451,2.655,2.934,5.222,4.267,7.864
		c0.674,1.335,0.353,2.708-0.515,3.925c-1.448,2.033-2.875,4.082-4.359,6.088c-0.584,0.79-0.587,1.452-0.048,2.265
		c1.175,1.773,2.279,3.592,3.408,5.387c-0.214,0.254-0.45,0.15-0.651,0.152c-1.804,0.01-3.608-0.002-5.411,0.01
		c-0.387,0.004-0.653-0.027-0.825-0.475c-0.823-2.146-1.736-4.257-2.53-6.414c-0.557-1.515-0.429-2.929,0.967-4.04
		c0.739-0.588,1.371-1.316,1.858-2.122c0.984-1.626,2.262-3.013,3.494-4.437c0.475-0.548,0.656-1.097,0.474-1.828
		c-0.277-1.1-0.479-2.221-0.678-3.339C54.872,24.151,54.928,23.144,55.604,22.148z"/>
	<path fill-rule="evenodd" clip-rule="evenodd" fill="#FEC6D2" d="M26.55,47.834c0.98-1.553,1.883-2.967,2.771-4.392
		c1.575-2.528,1.664-2.046-0.12-4.529c-1.134-1.576-2.237-3.174-3.389-4.736c-1.18-1.601-1.304-3.225-0.315-4.965
		c1.313-2.311,2.587-4.644,3.916-7.036c0.685,0.988,0.722,2.006,0.529,3.052c-0.21,1.144-0.441,2.285-0.693,3.42
		c-0.123,0.556-0.06,1.048,0.32,1.478c1.471,1.662,2.877,3.371,4.104,5.227c0.393,0.593,0.907,1.138,1.464,1.584
		c1.338,1.072,1.488,2.456,0.975,3.899c-0.787,2.217-1.726,4.379-2.597,6.566c-0.096,0.242-0.183,0.439-0.51,0.438
		C30.908,47.83,28.812,47.834,26.55,47.834z"/>
	<path fill-rule="evenodd" clip-rule="evenodd" fill="#31C191" d="M74.467,24.026c-2.248,0.006-3.821-0.673-5.12-1.946
		c-2.158-2.116-4.3-4.25-6.413-6.412c-2.323-2.377-2.601-5.771-0.747-8.532c0.278-0.414,0.566-0.822,0.869-1.218
		c0.605-0.792,1.401-0.884,2.148-0.214c0.557,0.5,1.076,1.042,1.592,1.585c0.507,0.534,0.642,1.116,0.265,1.815
		c-0.553,1.024-1.026,2.09-1.574,3.116c-0.426,0.797-0.345,1.437,0.321,2.083c1.671,1.623,3.313,3.275,4.944,4.939
		c0.592,0.604,1.195,0.711,1.94,0.323c1.057-0.551,2.146-1.04,3.193-1.607c0.694-0.377,1.279-0.269,1.817,0.239
		c0.545,0.514,1.082,1.038,1.586,1.59c0.576,0.629,0.627,1.45,0.053,1.933C77.816,23.004,76.187,24.093,74.467,24.026z"/>
	<path fill-rule="evenodd" clip-rule="evenodd" fill="#689BD9" d="M48.782,47.795c-4.229,0-8.344,0-12.552,0
		c0.436-1.086,0.842-2.109,1.255-3.129c0.281-0.694,0.56-0.134,0.775,0.036c2.232,1.759,5.133,2.019,7.544,0.639
		c0.405-0.232,0.776-0.528,1.149-0.814c0.295-0.227,0.449-0.208,0.592,0.173C47.923,45.705,48.34,46.697,48.782,47.795z"/>
	<path fill-rule="evenodd" clip-rule="evenodd" fill="#FEC6D2" d="M66.531,71.285c0-3.488,0-6.963,0-10.654
		c0.739,1.162,1.379,2.188,2.04,3.201c0.57,0.873,0.957,1.799,0.986,2.859C69.614,68.77,68.355,70.715,66.531,71.285z"/>
	<path fill-rule="evenodd" clip-rule="evenodd" fill="#FEC6D2" d="M18.485,60.568c0,3.744,0,7.223,0,10.809
		c-1.613-0.719-2.58-1.879-2.93-3.514c-0.229-1.074-0.163-2.176,0.391-3.148C16.708,63.377,17.55,62.086,18.485,60.568z"/>
	<path fill-rule="evenodd" clip-rule="evenodd" fill="#FECEDD" d="M39.082,39.625c0.89,0.442,1.74,0.837,2.564,1.281
		c0.596,0.32,1.141,0.309,1.733-0.009c0.823-0.442,1.673-0.835,2.562-1.273c0.03,0.18,0.073,0.285,0.061,0.383
		c-0.075,0.591,0.554,1.251,0.095,1.724c-0.824,0.849-1.751,1.611-3.02,1.79c-1.772,0.249-3.009-0.699-4.207-1.776
		c-0.189-0.171-0.108-0.335-0.069-0.526C38.899,40.73,38.976,40.237,39.082,39.625z"/>
	<path fill-rule="evenodd" clip-rule="evenodd" fill="#5790D5" d="M15.852,35.866c0,2.552,0.004,5.104-0.002,7.656
		c-0.003,1.193-0.463,1.645-1.673,1.647c-2.44,0.005-4.881,0.006-7.322,0c-1.204-0.003-1.662-0.456-1.663-1.655
		c-0.004-5.104-0.003-10.208,0-15.312c0.001-1.25,0.446-1.686,1.713-1.688c2.44-0.004,4.882-0.006,7.322,0.001
		c1.152,0.003,1.619,0.466,1.622,1.612C15.856,30.707,15.852,33.286,15.852,35.866z"/>
	<path fill-rule="evenodd" clip-rule="evenodd" fill="#31C191" d="M14.501,6.227c0,3.802,0,7.453,0,11.255
		c-1.317-0.795-2.558-1.541-3.796-2.292c-0.269-0.163-0.18-0.443-0.181-0.68c-0.007-1.771,0.002-3.543-0.009-5.314
		c-0.002-0.354,0.043-0.626,0.393-0.828C12.076,7.692,13.228,6.988,14.501,6.227z"/>
	<path fill-rule="evenodd" clip-rule="evenodd" fill="#00B277" d="M7.854,11.859c0,0.722-0.011,1.443,0.004,2.165
		c0.007,0.348-0.115,0.484-0.479,0.501c-1.384,0.064-2.305-0.124-2.196-1.971c0.04-0.692-0.005-1.388,0.015-2.082
		C5.214,9.926,5.48,9.512,5.996,9.31c0.56-0.22,1.15-0.164,1.719-0.056c0.199,0.038,0.137,0.335,0.138,0.523
		C7.858,10.471,7.855,11.165,7.854,11.859z"/>
	<path fill-rule="evenodd" clip-rule="evenodd" fill="#5790D5" d="M74.484,34.313c0,0.387,0.024,0.777-0.006,1.162
		c-0.053,0.661-0.698,1.327-1.27,1.348c-0.615,0.022-1.335-0.631-1.371-1.328c-0.041-0.8-0.041-1.606,0.002-2.406
		c0.039-0.739,0.602-1.234,1.306-1.239c0.702-0.005,1.262,0.488,1.328,1.22c0.038,0.412,0.007,0.83,0.007,1.245
		C74.481,34.313,74.483,34.313,74.484,34.313z"/>
	<path fill-rule="evenodd" clip-rule="evenodd" fill="#2C2C51" d="M42.463,71.82c-3.672-0.021-6.635-3.02-6.62-6.701
		c0.014-3.664,3.03-6.646,6.699-6.621c3.707,0.027,6.663,3.057,6.623,6.787C49.126,68.896,46.106,71.84,42.463,71.82z"/>
	<path fill-rule="evenodd" clip-rule="evenodd" d="M42.891,24.523c0.611,0.424,1.279,0.866,1.918,1.347
		c0.159,0.121-0.033,0.298-0.117,0.43c-0.238,0.373-0.486,0.74-0.725,1.114c-0.356,0.559-0.355,1.132,0.114,1.594
		c0.314,0.309,0.27,0.541,0.089,0.861c-0.203,0.361-0.425,0.725-0.549,1.115c-0.272,0.853-0.663,0.638-1.164,0.21
		c-1.421-1.217-1.83-3.25-0.935-4.899c0.276-0.509,0.623-0.98,0.945-1.464C42.555,24.7,42.614,24.524,42.891,24.523z"/>
	<path fill-rule="evenodd" clip-rule="evenodd" d="M42.509,32.057c1.195,0.05,2.277,0.407,3.227,1.154
		c0.308,0.243,0.361,0.444,0.036,0.715c-0.234,0.193-0.46,0.407-0.645,0.646c-0.484,0.626-0.933,0.914-1.753,0.382
		c-0.645-0.417-1.472-0.287-2.125,0.171c-0.423,0.296-0.67,0.205-0.96-0.146c-0.228-0.277-0.501-0.517-0.755-0.772
		c-0.709-0.712-0.708-0.718,0.154-1.291C40.543,32.35,41.495,32.102,42.509,32.057z"/>
	<path fill-rule="evenodd" clip-rule="evenodd" d="M49.643,22.18c0.068,0.285-0.16,0.325-0.322,0.407
		c-1.502,0.755-3.01,1.498-4.504,2.269c-0.332,0.171-0.455,0.082-0.624-0.214c-1.101-1.92-1.108-1.916,0.847-2.895
		c0.987-0.495,1.991-0.958,2.956-1.492c0.469-0.259,0.658-0.158,0.848,0.303C49.073,21.117,49.376,21.646,49.643,22.18z"/>
	<path fill-rule="evenodd" clip-rule="evenodd" d="M36.548,20.063c0.099,0.047,0.174,0.083,0.248,0.12
		c1.527,0.766,3.053,1.538,4.586,2.293c0.297,0.146,0.302,0.286,0.186,0.58c-0.827,2.092-0.819,2.096-2.79,1.109
		c-0.962-0.481-1.899-1.02-2.89-1.433c-0.628-0.262-0.625-0.547-0.327-1.045c0.254-0.425,0.444-0.888,0.677-1.326
		C36.307,20.23,36.343,20.03,36.548,20.063z"/>
	<path fill-rule="evenodd" clip-rule="evenodd" fill="#2C2C51" d="M10.446,42.504c-1.259,0-1.259,0-1.259-1.531
		c0.001-1.135,0.001-1.135,1.573-1.134c1.093,0,1.093,0,1.093,1.614C11.853,42.504,11.853,42.504,10.446,42.504z"/>
	<path fill-rule="evenodd" clip-rule="evenodd" fill="#F3F3F3" d="M42.485,61.168c2.213-0.01,4.015,1.793,4.014,4.016
		c-0.001,2.164-1.81,3.971-3.974,3.971c-2.219,0-4.024-1.807-4.015-4.018C38.521,62.965,40.312,61.176,42.485,61.168z"/>
</g>
</svg>
