<?xml version="1.0" encoding="utf-8"?>
<!-- Generator: Adobe Illustrator 16.0.2, SVG Export Plug-In . SVG Version: 6.00 Build 0)  -->
<!DOCTYPE svg PUBLIC "-//W3C//DTD SVG 1.1 Tiny//EN" "http://www.w3.org/Graphics/SVG/1.1/DTD/svg11-tiny.dtd">
<svg version="1.1" baseProfile="tiny" id="Layer_1" xmlns="http://www.w3.org/2000/svg" xmlns:xlink="http://www.w3.org/1999/xlink"
	 x="0px" y="0px" width="85px" height="85px" viewBox="0 0 85 85" xml:space="preserve">
<g>
	<path fill-rule="evenodd" d="M82.5,37.767c0,0.625,0,1.25,0,1.875c-0.666,2.82-2.536,4.287-5.471,4.291
		c-0.521,0-1.043,0.024-1.562-0.006c-0.659-0.038-0.983,0.24-1.146,0.886c-0.626,2.509-1.752,4.788-3.322,6.835
		c-1.732,2.258-3.823,4.112-6.351,5.452c-0.752,0.398-0.754,0.443-0.108,0.979c1.77,1.472,2.689,3.384,2.704,5.661
		c0.04,5.884,0.017,11.768,0.011,17.652c0,1.125-0.023,1.138-1.116,1.138c-6.301,0-12.602,0-18.902,0
		c-0.987,0-1.042-0.048-1.055-1.057c-0.015-1.042-0.019-2.084,0.001-3.125c0.012-0.598-0.219-0.854-0.827-0.829
		c-0.675,0.029-1.355,0.037-2.03-0.002c-0.664-0.038-0.998,0.236-1.155,0.877c-0.384,1.568-1.268,2.765-2.7,3.562
		c-0.808,0.449-1.669,0.569-2.557,0.57c-7.811,0.007-15.622-0.004-23.433,0.019c-0.659,0.003-0.892-0.223-0.892-0.839
		c-0.001-3.749-0.127-7.503,0.044-11.246c0.141-3.08,1.319-5.816,3.551-8.032c0.16-0.159,0.378-0.292,0.372-0.624
		c-1.062-0.284-2.147-0.563-3.154-1.054c-4.766-2.321-7.627-6.064-8.434-11.333c-0.055-0.362-0.039-0.729-0.039-1.093
		c-0.001-3.645-0.012-7.29,0.01-10.935c0.004-0.7-0.125-1.148-0.889-1.402c-0.888-0.295-1.416-1.012-1.55-1.97c0-1.25,0-2.5,0-3.75
		c0.135-1.111,0.803-1.785,1.83-2.082c0.629-0.182,0.704-0.651,0.732-1.14c0.068-1.196,0.189-2.38,0.474-3.549
		c1.04-4.273,3.362-7.679,6.912-10.253c0.794-0.576,0.931-0.488,0.523-1.542c-0.828-2.138-0.106-4.539,1.72-5.938
		c0.313-0.24,0.607-0.475,0.768-0.857c0.563-1.333,1.521-2.199,2.979-2.452c0.625,0,1.25,0,1.875,0c1.094,0.51,2.188,0.323,3.281,0
		c0.521,0,1.042,0,1.563,0c1.495,0.156,2.458,1.005,3.015,2.351c0.191,0.461,0.553,0.744,0.91,1.043
		c1.663,1.395,2.351,3.15,1.813,5.274c-0.183,0.72-0.038,1.108,0.607,1.438c0.858,0.44,1.62,1.039,2.34,1.677
		c0.325,0.289,0.554,0.307,0.832-0.047c0.668-0.854,1.552-1.442,2.474-1.993c4.913-2.934,9.814-5.885,14.72-8.827
		c0.811-0.485,1.633-0.928,2.625-0.836c0.533-0.047,1.076,0.098,1.602-0.081c0.053,0,0.104,0,0.156,0
		c1.264,0.06,2.316,0.661,3.363,1.29c4.861,2.919,9.699,5.875,14.594,8.737c2.574,1.504,4.207,4.857,2.825,8.069
		c-0.171,0.396-0.166,0.745,0.077,1.103c0.349,0.515,0.453,1.095,0.443,1.708c-0.012,0.728,0.025,1.458-0.011,2.185
		c-0.065,1.309-0.631,2.307-1.915,2.756c-0.524,0.184-0.75,0.469-0.738,1.024c0.023,1.04,0.021,2.081,0.002,3.121
		c-0.01,0.533,0.203,0.745,0.738,0.742c0.959-0.006,1.924-0.073,2.871,0.171c1.686,0.434,2.941,1.375,3.684,2.982
		C82.398,36.807,82.346,37.305,82.5,37.767z"/>
	<path fill-rule="evenodd" fill="#404040" d="M54.352,2.595c0.038-0.042,0.046-0.089,0.023-0.141c0.572,0,1.146,0,1.719,0
		C55.531,2.729,54.934,2.57,54.352,2.595z"/>
	<path fill-rule="evenodd" fill="#EFCFB3" d="M66.199,34.545c2.262-0.986,4.175-2.265,5.855-3.902
		c0.229,0.211,0.119,0.458,0.121,0.67c0.008,2.786,0.012,5.573,0.004,8.359c-0.023,8.129-5.352,14.792-13.271,16.601
		c-9.084,2.076-18.509-4.269-20.019-13.45c-0.349-2.125-0.252-4.256-0.27-6.388c-0.015-1.901-0.003-3.802-0.003-5.891
		c1.815,1.699,3.726,3.041,5.979,3.992c-1.043,0.83-1.481,1.926-1.856,3.081c-0.157,0.483-0.035,0.642,0.399,0.763
		c0.576,0.159,1.187,0.593,1.693,0.487c0.574-0.12,0.475-0.977,0.732-1.485c0.442-0.874,1.113-1.354,2.098-1.354
		c0.986,0,1.674,0.478,2.09,1.361c0.033,0.07,0.059,0.145,0.091,0.215c0.208,0.441,0.212,1.292,0.557,1.283
		c0.72-0.018,1.437-0.395,2.142-0.656c0.295-0.109,0.109-0.359,0.055-0.534c-0.172-0.54-0.365-1.072-0.564-1.647
		c2.256,0,4.462,0,6.734,0c-0.189,0.566-0.342,1.109-0.556,1.626c-0.157,0.38-0.099,0.589,0.315,0.667
		c0.076,0.015,0.152,0.036,0.227,0.061c0.541,0.18,1.15,0.604,1.607,0.477c0.506-0.14,0.436-0.971,0.681-1.476
		c0.427-0.879,1.097-1.368,2.081-1.378c1.024-0.011,1.709,0.505,2.148,1.405c0.24,0.494,0.143,1.303,0.678,1.447
		c0.438,0.119,1.008-0.336,1.539-0.444c0.652-0.133,0.738-0.392,0.52-1.012C67.626,36.352,67.207,35.333,66.199,34.545z"/>
	<path fill-rule="evenodd" fill="#EFCFB3" d="M28.794,59.212c-0.579,0-1.063,0-1.548,0c-2.655,0-5.31,0.007-7.965-0.002
		c-3.506-0.011-6.401-1.386-8.74-3.971c-0.592-0.654-0.576-0.686,0.31-0.924c1.64-0.443,3.2-0.221,4.662,0.619
		c0.479,0.275,0.753,0.206,0.906-0.321c0.007-0.025,0.023-0.048,0.035-0.07c0.895-1.772,0.901-1.787-1.003-2.488
		c-2.058-0.758-4.129-0.765-6.166,0.069c-0.523,0.213-0.697,0.1-0.873-0.405c-0.449-1.288-0.746-2.599-0.749-3.965
		c-0.008-3.696-0.004-7.393-0.004-11.089c0-0.322-0.106-0.658,0.463-0.655c4.867,0.019,9.733,0.011,14.645,0.011
		c-0.242,0.584-0.458,1.129-0.692,1.667c-0.164,0.377-0.045,0.58,0.344,0.664c0.152,0.032,0.298,0.088,0.446,0.136
		c0.469,0.153,0.981,0.502,1.394,0.409c0.411-0.093,0.365-0.792,0.589-1.199c0.67-1.216,2.056-1.889,3.429-1.639
		c0.402,0.073,0.636,0.145,0.416,0.68c-0.721,1.755-0.462,3.43,0.68,4.923c0.364,0.476,0.215,0.636-0.201,0.842
		c-0.93,0.461-1.844,0.958-2.788,1.388c-0.489,0.223-0.661,0.506-0.66,1.057c0.004,4.719,0.948,9.237,2.802,13.571
		C28.605,58.705,28.672,58.895,28.794,59.212z"/>
	<path fill-rule="evenodd" fill="#A9B1BC" d="M55.311,20.53c-5.881,0-11.764-0.009-17.646,0.014
		c-0.602,0.003-0.925-0.152-1.184-0.72c-0.873-1.916-0.372-3.764,1.439-4.856c5.186-3.127,10.382-6.236,15.575-9.349
		c1.278-0.766,2.559-0.754,3.835,0.011c5.192,3.116,10.39,6.222,15.573,9.352c1.908,1.151,2.375,3.307,1.231,5.215
		c-0.237,0.395-0.544,0.331-0.866,0.331c-4.92,0.003-9.838,0.002-14.758,0.002C57.445,20.53,56.378,20.53,55.311,20.53z"/>
	<path fill-rule="evenodd" fill="#E5E8EC" d="M24.222,61.893c-0.886,1.455-1.307,2.99-0.957,4.686
		c0.199,0.962,0.607,1.814,1.181,2.602c2.359,3.238,4.714,6.479,7.07,9.719c0.196,0.271,0.386,0.544,0.592,0.834
		c-0.19,0.207-0.408,0.13-0.595,0.13c-5.129,0.005-10.259,0.003-15.389,0.006c-0.401,0-0.736,0.064-0.727-0.57
		c0.044-2.838-0.072-5.682,0.063-8.514c0.197-4.12,2.334-7.003,6.05-8.736C22.147,61.75,22.916,61.725,24.222,61.893z"/>
	<path fill-rule="evenodd" fill="#75B0F1" d="M49.488,74.707c-1.664,0-3.331-0.027-4.995,0.015
		c-0.603,0.016-0.748-0.179-0.729-0.752c0.042-1.273,0.033-2.55,0.003-3.824c-0.011-0.482,0.145-0.622,0.62-0.618
		c2.472,0.02,4.943,0.015,7.416,0.003c0.34-0.002,0.602,0.088,0.822,0.344c0.151,0.178,0.326,0.335,0.492,0.501
		c1.552,1.551,1.545,1.545,2.942-0.17c0.203-0.249,0.171-0.374-0.033-0.57c-0.47-0.449-0.902-0.94-1.392-1.367
		c-0.325-0.285-0.36-0.565-0.258-0.958c0.402-1.532,0.756-3.077,1.168-4.605c0.633-2.344,2.699-3.751,4.972-3.422
		c2.375,0.344,3.936,2.217,3.899,4.68c-0.086,5.702-4.613,10.421-10.322,10.704c-1.531,0.076-3.07,0.012-4.605,0.012
		C49.488,74.688,49.488,74.697,49.488,74.707z"/>
	<path fill-rule="evenodd" fill="#FEFEFE" d="M40.924,52.722c3.541,3.427,5.975,4.897,9.685,5.882
		c0.072,0.277-0.184,0.342-0.322,0.465c-2.045,1.821-3.248,4.083-3.581,6.805c-0.136,1.107-0.14,1.091-1.214,1.11
		c-2.598,0.047-5.2-0.129-7.795,0.104c-0.338,0.03-0.391-0.196-0.499-0.383c-0.676-1.168-1.352-2.336-2.009-3.515
		c-0.508-0.911-1.032-1.806-1.921-2.533C36.873,59.014,39.402,56.396,40.924,52.722z"/>
	<path fill-rule="evenodd" fill="#A9B1BC" d="M70.746,28.297c-2.568,2.673-5.541,4.459-9.08,4.859
		c-4.34,0.49-8.734,0.582-13.072-0.099c-3.166-0.496-5.845-2.099-8.128-4.344c-0.105-0.104-0.192-0.226-0.352-0.416
		C50.34,28.297,60.471,28.297,70.746,28.297z"/>
	<path fill-rule="evenodd" fill="#656D78" d="M28.348,46.418c-0.121-0.543,0.167-0.703,0.49-0.859
		c1.052-0.506,2.134-0.966,2.957-1.841c0.114-0.121,0.25-0.195,0.417-0.154c1.231,0.305,2.484,0.124,3.727,0.152
		c0.455,0.01,0.55,0.245,0.635,0.61c0.455,1.963,1.222,3.8,2.271,5.521c0.147,0.241,0.31,0.47,0.187,0.792
		c-1.213,3.188-3.054,5.854-6.237,7.353c-1.741,0.818-1.318,0.81-1.987-0.736C29.297,53.768,28.503,50.104,28.348,46.418z"/>
	<path fill-rule="evenodd" fill="#CBD0D8" d="M55.386,25.697c-6.143,0-12.285-0.01-18.428,0.014
		c-0.676,0.003-0.943-0.115-0.917-0.872c0.061-1.747,0.017-1.748,1.731-1.748c12.025,0,24.049,0.008,36.075-0.02
		c0.771-0.002,0.947,0.205,0.924,0.943c-0.056,1.681-0.016,1.682-1.661,1.682C67.202,25.697,61.294,25.697,55.386,25.697z"/>
	<path fill-rule="evenodd" fill="#FB6E51" d="M23.136,20.492c0-2.237,0-4.475,0-6.712c0-0.97,0-0.959,0.932-0.883
		c1.254,0.102,2.45,0.44,3.634,0.841c0.418,0.142,0.61,0.341,0.607,0.833c-0.022,4.345-0.021,8.689-0.002,13.034
		c0.002,0.501-0.121,0.67-0.643,0.655c-1.3-0.037-2.602-0.038-3.902,0c-0.535,0.016-0.641-0.176-0.636-0.666
		C23.149,25.227,23.136,22.859,23.136,20.492z"/>
	<path fill-rule="evenodd" fill="#FA6D50" d="M20.467,33.411c-4.839,0-9.679-0.012-14.518,0.014
		c-0.647,0.003-0.905-0.098-0.881-0.833c0.058-1.736,0.014-1.738,1.762-1.738c9.418,0,18.837,0.009,28.255-0.016
		c0.749-0.002,1.042,0.12,1.001,0.959c-0.079,1.611-0.022,1.614-1.648,1.614C29.782,33.411,25.125,33.411,20.467,33.411z"/>
	<path fill-rule="evenodd" fill="#FE816D" d="M20.578,20.578c0,2.342-0.013,4.684,0.011,7.025c0.005,0.506-0.128,0.673-0.652,0.657
		c-1.3-0.038-2.602-0.03-3.903-0.003c-0.455,0.009-0.632-0.085-0.63-0.592c0.021-4.164,0.019-8.327,0.001-12.49
		c-0.001-0.441,0.175-0.65,0.541-0.827c1.271-0.611,2.591-1.056,3.978-1.331c0.529-0.105,0.671-0.014,0.666,0.534
		C20.563,15.894,20.578,18.235,20.578,20.578z"/>
	<path fill-rule="evenodd" fill="#E5E8EC" d="M25.743,65.511c0.007-1.662,0.976-3.013,2.388-3.5
		c1.473-0.509,3.205-0.065,4.041,1.219c1.019,1.564,1.891,3.224,2.839,4.834c0.138,0.234,0.056,0.355-0.098,0.525
		c-1.192,1.314-1.718,2.834-1.3,4.596c0.121,0.511-0.242,0.627-0.514,0.833c-1.256,0.95-1.257,0.946-2.167-0.307
		c-1.451-1.999-2.9-3.999-4.358-5.992C26.052,67.006,25.708,66.241,25.743,65.511z"/>
	<path fill-rule="evenodd" fill="#75B0F1" d="M64.42,71.755c0,2.693-0.004,5.211,0.004,7.729c0.002,0.479-0.332,0.376-0.597,0.377
		c-1.927,0.006-3.853,0.003-5.78,0.003c-2.785,0-5.57-0.013-8.355,0.011c-0.545,0.005-0.778-0.085-0.771-0.712
		c0.023-1.863-0.008-1.873,1.854-1.861c2.473,0.017,4.943,0.073,7.319-0.821C60.422,75.604,62.101,74.389,64.42,71.755z"/>
	<path fill-rule="evenodd" fill="#FB6E51" d="M28.294,9.655c-0.012,1.325-0.188,1.456-1.169,1.187
		c-3.543-0.974-7.053-0.858-10.496,0.425c-0.659,0.246-0.874,0.03-1.068-0.51c-0.384-1.071-0.007-2.243,0.966-2.874
		c0.304-0.197,0.629-0.373,0.964-0.507c0.364-0.145,0.527-0.356,0.491-0.761c-0.057-0.652,0.151-1.223,0.797-1.459
		c0.649-0.237,1.264-0.134,1.785,0.408c0.409,0.425,0.804,1.174,1.288,1.134c0.465-0.039,0.895-0.714,1.304-1.145
		c0.519-0.546,1.143-0.632,1.789-0.392c0.608,0.227,0.842,0.784,0.78,1.396c-0.061,0.598,0.324,0.746,0.736,0.929
		C27.534,7.961,28.289,8.678,28.294,9.655z"/>
	<path fill-rule="evenodd" fill="#FB6E51" d="M12.818,16.656c0,0.495,0,1.002,0,1.51c0,3.145-0.01,6.29,0.011,9.435
		c0.003,0.492-0.106,0.675-0.636,0.66c-1.299-0.04-2.599-0.02-3.899-0.009c-0.335,0.003-0.512-0.042-0.503-0.459
		c0.09-4.302,1.544-8.016,4.693-11.01c0.056-0.053,0.12-0.099,0.184-0.143C12.683,16.63,12.714,16.644,12.818,16.656z"/>
	<path fill-rule="evenodd" fill="#FE816E" d="M35.163,28.247c-1.287,0-2.575-0.012-3.862,0.005
		c-0.542,0.007-0.394-0.371-0.395-0.646c-0.008-2.109-0.005-4.218-0.005-6.327c0-1.874,0-3.747,0-5.89
		c1.049,1.107,2.445,1.516,2.625,3.208c0.153,1.449,0.758,2.779,0.015,4.322c-0.397,0.823-0.13,2.001-0.051,3.01
		C33.573,26.986,34.197,27.727,35.163,28.247z"/>
	<path fill-rule="evenodd" fill="#EFCFB3" d="M74.752,38.582c0-0.703,0.011-1.406-0.005-2.108c-0.008-0.329,0.101-0.467,0.444-0.458
		c0.781,0.019,1.563-0.018,2.342,0.019c1.25,0.058,2.237,1.039,2.355,2.289c0.12,1.267-0.635,2.409-1.842,2.728
		c-0.996,0.263-2.02,0.079-3.031,0.124c-0.377,0.017-0.305-0.257-0.305-0.485c0.002-0.703,0.001-1.405,0.001-2.107
		C74.725,38.582,74.738,38.582,74.752,38.582z"/>
	<path fill-rule="evenodd" fill="#EFCFB3" d="M36.062,38.662c0,0.338-0.001,0.677,0,1.015c0.009,1.5,0.01,1.5-1.534,1.5
		c-0.391,0-0.783,0.02-1.171-0.011c-1.484-0.117-2.5-1.245-2.451-2.7c0.047-1.397,1.132-2.418,2.61-2.443
		c0.676-0.012,1.354,0.019,2.03-0.01c0.418-0.018,0.539,0.14,0.523,0.541C36.042,37.255,36.062,37.958,36.062,38.662z"/>
	<path fill-rule="evenodd" fill="#EFCFB3" d="M41.223,72.152c0,0.7-0.012,1.401,0.005,2.102c0.008,0.334-0.114,0.467-0.449,0.458
		c-0.83-0.022-1.665,0.023-2.489-0.051c-1.245-0.112-2.177-1.163-2.221-2.404c-0.046-1.314,0.785-2.396,2.049-2.638
		c0.9-0.171,1.813-0.046,2.719-0.082c0.392-0.017,0.391,0.234,0.388,0.513C41.219,70.75,41.223,71.451,41.223,72.152z"/>
	<path fill-rule="evenodd" fill="#74B0F1" d="M54.07,59.707c-1.234,2.104-1.459,4.277-2.003,6.345
		c-0.193,0.736-0.463,1.073-1.219,0.93c-0.024-0.005-0.052-0.001-0.077-0.001c-1.739,0-1.766-0.007-1.357-1.682
		C50.031,62.763,51.541,60.943,54.07,59.707z"/>
	<path fill-rule="evenodd" fill="#EFCFB3" d="M39.54,77.272c-0.23,1.31-0.85,2.196-2.062,2.496
		c-1.233,0.306-2.251-0.113-2.988-1.168c-0.074-0.106-0.157-0.207-0.233-0.313c-0.986-1.36-0.985-1.357,0.444-2.244
		c0.185-0.115,0.319-0.227,0.541-0.034C36.448,77.057,37.879,77.412,39.54,77.272z"/>
	<path fill-rule="evenodd" d="M62.219,46.342c-0.308,1.2-0.541,2.319-0.885,3.405c-0.836,2.642-3.258,4.342-6.037,4.302
		c-2.728-0.04-5.087-1.803-5.871-4.427c-0.275-0.92-0.451-1.869-0.713-2.793c-0.104-0.372-0.07-0.496,0.352-0.495
		C53.408,46.346,57.754,46.342,62.219,46.342z"/>
	<path fill-rule="evenodd" d="M17.33,40.827c0.014,0.24-0.166,0.284-0.285,0.365c-0.494,0.336-0.99,0.671-1.496,0.988
		c-0.315,0.198-0.321,0.348-0.001,0.547c0.507,0.317,0.992,0.669,1.501,0.981c0.28,0.172,0.313,0.306,0.137,0.609
		c-1.087,1.872-1.077,1.877-2.854,0.691c-1.125-0.751-2.241-1.514-3.379-2.242c-0.392-0.251-0.388-0.373,0-0.626
		c1.546-1.006,3.083-2.031,4.604-3.074c0.351-0.24,0.51-0.184,0.715,0.162C16.603,39.787,16.986,40.313,17.33,40.827z"/>
	<path fill-rule="evenodd" d="M50.275,9.421c0.844,0.419,1.604,0.796,2.365,1.174c1.046,0.52,1.379,0.493,2.186-0.378
		c0.414-0.449,0.66-0.552,1.125-0.035c0.835,0.927,1.14,0.941,2.245,0.4c0.63-0.308,1.259-0.619,1.882-0.941
		c0.318-0.164,0.521-0.219,0.504,0.271c-0.053,1.612,0.107,3.23-0.088,4.837c-0.322,2.66-2.598,4.548-5.326,4.454
		c-2.602-0.091-4.755-2.146-4.879-4.763C50.212,12.809,50.275,11.171,50.275,9.421z"/>
	<path fill-rule="evenodd" fill="#FD816D" d="M58.811,48.888c-0.307,1.451-1.721,2.549-3.306,2.606
		c-1.425,0.052-3.098-1.026-3.47-2.214c-0.104-0.336,0.01-0.398,0.318-0.396C54.502,48.892,56.651,48.888,58.811,48.888z"/>
	<path fill-rule="evenodd" fill="#FBD66F" d="M53.645,13.602c1.188-0.707,2.518-0.118,3.848-0.112
		c0.463,0.002,0.488,0.131,0.49,0.492c0.008,1.443-1.066,2.608-2.484,2.672c-1.352,0.061-2.557-1.025-2.674-2.404
		C52.78,13.748,52.738,13.261,53.645,13.602z"/>
</g>
</svg>
