<?xml version="1.0" encoding="utf-8"?>
<!-- Generator: Adobe Illustrator 16.0.0, SVG Export Plug-In . SVG Version: 6.00 Build 0)  -->
<!DOCTYPE svg PUBLIC "-//W3C//DTD SVG 1.1//EN" "http://www.w3.org/Graphics/SVG/1.1/DTD/svg11.dtd">
<svg version="1.1" id="Layer_1" xmlns="http://www.w3.org/2000/svg" xmlns:xlink="http://www.w3.org/1999/xlink" x="0px" y="0px"
	 width="85px" height="85px" viewBox="0 0 85 85" enable-background="new 0 0 85 85" xml:space="preserve">
<g>
	<g>
		<path d="M81.644,2.581c-0.252,0-0.504-0.001-0.756,0c-0.564,0.03-1.044,0.299-1.531,0.546c-4.403,2.229-8.994,3.978-13.724,5.376
			c-0.681,0.201-1.298,0.295-1.932-0.137c-0.345-0.234-0.776-0.292-1.2-0.297c-0.833-0.01-1.666-0.018-2.499,0.002
			c-1.298,0.029-2.249,0.612-2.74,1.831c-0.19,0.475-0.505,0.677-0.981,0.758c-3.749,0.634-7.526,1.032-11.325,1.137
			c-3.094,0.085-6.187,0.021-9.277-0.27c-2.308-0.216-4.601-0.514-6.891-0.855c-0.498-0.074-0.851-0.262-1.056-0.776
			c-0.486-1.221-1.445-1.797-2.742-1.825c-0.833-0.018-1.666-0.012-2.499-0.001c-0.451,0.006-0.898,0.088-1.271,0.333
			c-0.561,0.368-1.106,0.319-1.713,0.141C14.7,7.128,10.037,5.35,5.562,3.087C5.098,2.852,4.637,2.605,4.1,2.581
			c-0.251-0.001-0.502,0-0.753,0C2.813,2.512,2.638,2.874,2.5,3.281c0,0.261,0,0.521,0,0.781C2.752,4.47,3.115,4.73,3.542,4.948
			c4.911,2.507,10.002,4.569,15.314,6.049c0.88,0.245,1.116,0.598,1.083,1.472c-0.065,1.766-0.08,3.544,0.059,5.303
			c0.052,0.653-0.094,0.945-0.565,1.302c-4.67,3.523-9.326,7.066-13.981,10.609c-1.331,1.013-1.507,2.255-0.525,3.583
			c0.479,0.648,0.979,1.282,1.45,1.936c0.46,0.638,1.022,0.852,1.757,0.503c0.701-0.359,0.864-1.04,0.396-1.805
			c-0.324-0.529-0.711-1.022-1.11-1.497c-0.381-0.453-0.379-0.779,0.123-1.145c1.718-1.249,3.382-2.569,5.089-3.833
			c2.44-1.822,4.899-3.627,7.249-5.562c1.579-1.301,3.192-2.12,5.305-1.845c1.105,0.144,1.934-0.47,2.445-1.477
			c0.319-0.628,0.402-0.631,0.782-0.033c0.979,1.537,1.93,3.093,2.884,4.645c3.004,4.887,8.359,7.273,13.844,6.095
			c3.719-0.799,6.479-2.958,8.457-6.174c0.941-1.53,1.875-3.065,2.843-4.579c0.43-0.672,0.574-0.676,0.908,0.001
			c0.515,1.044,1.344,1.55,2.499,1.548c0.442-0.001,0.89,0.037,1.327-0.007c0.914-0.092,1.659,0.201,2.365,0.782
			c0.924,0.761,1.891,1.472,2.873,2.157c0.829,0.579,1.56,0.443,1.943-0.307c0.37-0.733,0.143-1.292-0.489-1.752
			c-0.547-0.397-1.055-0.851-1.621-1.215c-0.897-0.579-1.438-1.125-1.227-2.431c0.271-1.672,0.103-3.422,0.047-5.136
			c-0.021-0.651,0.195-0.881,0.8-1.049c5.385-1.497,10.547-3.567,15.527-6.1C81.84,4.76,82.231,4.492,82.5,4.062
			c0-0.26,0-0.521,0-0.781C82.362,2.867,82.178,2.511,81.644,2.581z M57.318,13.58c-0.016,0.128-0.003,0.26-0.003,0.39
			c0.001,1.157,0,1.15-1.085,1.388c-0.697,0.153-1.249,0.534-1.568,1.179c-0.264,0.532-0.68,0.785-1.233,0.96
			c-3.597,1.142-7.272,1.752-11.05,1.737c-3.826-0.007-7.555-0.616-11.188-1.821c-0.396-0.131-0.689-0.309-0.885-0.684
			c-0.47-0.9-1.188-1.428-2.242-1.412c-0.148,0.002-0.36,0.035-0.366-0.18c-0.018-0.624-0.043-1.252,0.02-1.87
			c0.028-0.271,0.353-0.135,0.532-0.103c3.36,0.6,6.748,0.944,10.155,1.117c4.639,0.235,9.264,0.089,13.873-0.477
			c1.521-0.187,3.038-0.423,4.554-0.657C57.213,13.089,57.368,13.189,57.318,13.58z"/>
	</g>
	<path fill-rule="evenodd" clip-rule="evenodd" fill="#222222" d="M23.438,82.5c-0.024-0.04-0.038-0.085-0.042-0.133
		c0.408-0.4,0.931-0.273,1.409-0.273c8.906-0.009,17.812-0.006,26.718-0.006c2.891,0,5.78-0.006,8.671,0.005
		c0.431,0.002,0.897-0.095,1.254,0.275c-0.004,0.047-0.017,0.092-0.041,0.132C48.75,82.5,36.094,82.5,23.438,82.5z"/>
	<path fill-rule="evenodd" clip-rule="evenodd" fill="#4F4F4F" d="M81.718,2.5c-0.001,0.048,0.007,0.094,0.023,0.138
		c-0.277-0.001-0.555-0.002-0.831-0.003c0.011-0.044,0.02-0.089,0.027-0.135C81.197,2.5,81.458,2.5,81.718,2.5z"/>
	<path fill-rule="evenodd" clip-rule="evenodd" fill="#4E4E4E" d="M3.257,2.638C3.273,2.593,3.28,2.547,3.281,2.5
		c0.26,0,0.521,0,0.781,0c0.005,0.046,0.014,0.091,0.026,0.136C3.812,2.637,3.534,2.637,3.257,2.638z"/>
	<path fill-rule="evenodd" clip-rule="evenodd" fill="#FC7F86" d="M12.49,27.329c3.158-2.415,6.319-4.828,9.472-7.252
		c0.254-0.194,0.515-0.209,0.803-0.207c0.807,0.004,1.613,0.014,2.42-0.003c1.225-0.026,1.995-0.596,2.414-1.733
		c0.062-0.171-0.029-0.45,0.294-0.469c0.306-0.018,0.385,0.231,0.503,0.421c1.057,1.699,2.099,3.408,3.163,5.104
		c2.349,3.737,5.73,5.872,10.131,6.11c4.685,0.252,8.469-1.614,11.16-5.482c1.26-1.812,2.354-3.737,3.528-5.609
		c0.158-0.253,0.247-0.577,0.667-0.551c0.452,0.028,0.316,0.421,0.413,0.642c0.414,0.95,1.106,1.48,2.142,1.561
		c0.052,0.004,0.105,0.016,0.155,0.007c2.162-0.392,3.875,0.458,5.387,1.915c0.391,0.376,0.859,0.673,1.298,0.998
		c0.752,0.56,1.216,0.53,1.917-0.111c0.621,0.631,1.32,1.159,2.087,1.599c-0.192,1.01,0.309,1.613,1.102,2.174
		c2.061,1.454,4.019,3.05,6.044,4.554c0.786,0.583,0.816,0.745,0.233,1.506c-2.976,3.88-5.875,7.817-8.829,11.714
		c-0.554,0.729-0.766,0.751-1.557,0.253c-1.783-1.12-3.521-2.312-5.308-3.428c-0.435-0.271-0.865-0.657-1.427-0.338
		c-0.541,0.308-0.654,0.847-0.656,1.414c-0.008,2.341,0.015,4.682-0.013,7.022c-0.01,0.847,0.494,1.319,1.052,1.796
		c0.049,0.769-0.103,1.546,0.095,2.31c-0.094,0.195-0.288,0.206-0.462,0.236c-0.603,0.104-1.05,0.426-1.354,0.951
		c-0.561,0.965-1.351,1.685-2.283,2.293c-1.461,0.954-1.383,2.557,0.168,3.391c0.95,0.511,1.698,1.182,2.152,2.164
		c0.236,0.51,0.642,0.797,1.174,0.937c0.19,0.05,0.428,0.033,0.516,0.28c-0.001,0.762-0.003,1.524-0.004,2.286
		c-0.931,0.71-1.031,1.693-1.016,2.776c0.041,2.802,0.017,5.605,0.012,8.408c-0.001,0.386,0.046,0.782-0.163,1.141
		c-0.292,0.292-0.671,0.247-1.029,0.247c-8.224,0.006-16.448,0.021-24.672-0.004c-3.401-0.011-5.696-2.376-5.698-5.809
		c-0.007-11.426-0.002-22.852-0.003-34.277c0-0.416,0.026-0.834-0.051-1.246c-0.205-1.095-1.152-1.57-2.102-0.996
		c-1.157,0.699-2.29,1.441-3.418,2.188c-1.392,0.922-2.035,0.826-3.032-0.494c-2.401-3.177-4.778-6.371-7.173-9.553
		C12.56,27.921,12.304,27.688,12.49,27.329z"/>
	<path fill-rule="evenodd" clip-rule="evenodd" d="M59.85,78.125c0.014-3.574,0.025-7.148,0.043-10.723
		c0.005-1.036,0.209-1.303,1.193-1.621c0.849,0.179,1.166,0.703,1.162,1.562c-0.022,4.537-0.012,9.075-0.01,13.612
		c0.001,0.623-0.056,1.205-0.791,1.412c-0.338-0.008-0.675-0.022-1.012-0.022c-12.166-0.002-24.331-0.002-36.496-0.001
		c-0.182,0-0.362,0.016-0.544,0.022c-0.562-0.149-0.778-0.562-0.782-1.097c-0.011-1.422-0.009-2.844-0.002-4.267
		c0.003-0.75,0.455-1.107,1.14-1.241c0.747-0.112,1.249,0.276,1.428,1.137c0.127,0.615,0.062,1.244,0.07,1.866
		c0.015,1.094,0.049,1.14,1.146,1.14c10.683,0.003,21.366,0.003,32.049,0c1.055,0,1.058-0.009,1.158-1.06
		C59.627,78.583,59.662,78.329,59.85,78.125z"/>
	<path fill-rule="evenodd" clip-rule="evenodd" d="M61.085,50.934c-0.989-0.325-1.189-0.588-1.191-1.634
		c-0.006-2.447,0-4.895-0.004-7.342c-0.001-0.595,0.062-1.152,0.658-1.476c0.578-0.313,1.045-0.033,1.516,0.272
		c1.896,1.234,3.809,2.444,5.687,3.705c0.465,0.312,0.675,0.224,0.982-0.189c3.003-4.024,6.018-8.04,9.052-12.041
		c0.334-0.44,0.288-0.632-0.145-0.953c-2.274-1.693-4.524-3.42-6.778-5.141c-0.779-0.596-0.855-0.978-0.418-1.869
		c0.606-0.535,1.2-0.486,1.825-0.008c2.394,1.83,4.806,3.638,7.194,5.477c1.268,0.975,1.421,2.245,0.451,3.538
		c-3.181,4.241-6.366,8.478-9.558,12.71c-1.035,1.372-2.13,1.558-3.569,0.63c-1.478-0.951-2.95-1.909-4.55-2.945
		c0,1.942-0.034,3.749,0.015,5.554C62.275,50.124,62.007,50.725,61.085,50.934z"/>
	<path fill-rule="evenodd" clip-rule="evenodd" d="M61.09,63.495c-0.946-0.033-1.602-0.483-2.008-1.342
		c-0.401-0.851-1.049-1.472-1.905-1.862c-0.8-0.363-1.302-0.959-1.336-1.844c-0.034-0.884,0.411-1.516,1.183-1.945
		c0.876-0.487,1.604-1.142,2.082-2.037c0.446-0.834,1.12-1.264,2.075-1.222c0.758,0.086,1.287,0.493,1.655,1.149
		c0.534,0.95,1.293,1.671,2.215,2.256c1.475,0.935,1.434,2.751-0.085,3.595c-0.892,0.495-1.612,1.136-2.093,2.031
		C62.484,62.996,61.899,63.401,61.09,63.495z"/>
	<path fill-rule="evenodd" clip-rule="evenodd" d="M73.35,72.381c-0.774-0.015-1.345-0.376-1.685-1.061
		c-0.422-0.848-1.059-1.437-1.9-1.877c-1.479-0.772-1.519-2.567-0.082-3.444c0.843-0.513,1.508-1.158,2.021-2.004
		c0.811-1.334,2.49-1.349,3.323-0.027c0.552,0.876,1.224,1.586,2.098,2.152c1.336,0.865,1.257,2.583-0.144,3.37
		c-0.796,0.447-1.421,1.025-1.86,1.825C74.743,72.004,74.161,72.393,73.35,72.381z"/>
	<path fill-rule="evenodd" clip-rule="evenodd" fill="#FD646F" d="M59.85,78.125c0.17,2.02,0.17,2.02-1.798,2.02
		c-10.694,0-21.389,0.002-32.084-0.002c-1.16-0.001-0.999,0.173-1.015-1.05c-0.007-0.599,0.006-1.197-0.003-1.795
		c-0.014-0.973-0.251-1.27-1.199-1.535c0-0.869,0-1.738,0-2.607c0.902-0.569,1.043-1.422,1.041-2.422
		c-0.025-9.313-0.015-18.627-0.016-27.941c0-0.39,0.025-0.782-0.059-1.167c-0.204-0.927-0.873-1.252-1.677-0.75
		c-1.191,0.743-2.381,1.492-3.544,2.28c-0.689,0.467-1.39,0.917-2.103,1.348c-0.772,0.467-1.018,0.437-1.571-0.287
		c-1.313-1.715-2.614-3.438-3.888-5.182c-0.563-0.771-1.161-1.397-2.22-1.253c-0.488-0.722-0.985-1.438-1.584-2.077
		c0.636-0.717,0.667-1.168,0.115-1.92c-0.43-0.586-0.857-1.174-1.313-1.738c-0.214-0.266-0.193-0.41,0.081-0.613
		c1.831-1.359,3.651-2.733,5.476-4.104c0.612,1.114,1.476,2.05,2.222,3.067c1.793,2.443,3.638,4.849,5.449,7.278
		c0.818,1.098,1.335,1.205,2.469,0.465c1.108-0.723,2.234-1.42,3.326-2.167c0.621-0.426,1.242-0.694,1.945-0.278
		c0.672,0.397,0.854,1.045,0.854,1.801c-0.008,11.714-0.006,23.427-0.005,35.14c0,3.226,2.261,5.488,5.487,5.489
		C42.775,78.125,51.312,78.125,59.85,78.125z"/>
	<path fill-rule="evenodd" clip-rule="evenodd" d="M9.716,37.781c0.92-0.414,1.268-0.345,1.871,0.45
		c1.508,1.989,3.019,3.977,4.49,5.993c0.359,0.493,0.606,0.521,1.104,0.186c1.854-1.248,3.742-2.444,5.613-3.666
		c0.473-0.309,0.943-0.573,1.516-0.253c0.557,0.312,0.643,0.837,0.643,1.407c-0.001,9.911,0.001,19.822-0.004,29.733
		c0,0.983-0.262,1.291-1.198,1.523c-0.967-0.266-1.145-0.512-1.145-1.633c-0.002-8.948-0.001-17.897-0.001-26.847
		c0-0.28,0-0.561,0-0.856c-0.36-0.03-0.549,0.216-0.774,0.36c-1.291,0.825-2.567,1.673-3.86,2.494
		c-1.324,0.843-2.468,0.647-3.405-0.589c-1.633-2.154-3.243-4.325-4.878-6.479C9.206,38.972,9.195,38.382,9.716,37.781z"/>
	<path fill-rule="evenodd" clip-rule="evenodd" d="M18.12,61.673c-0.062,0.779-0.383,1.421-1.086,1.783
		c-1.123,0.58-1.942,1.428-2.584,2.516c-0.904,1.535-2.867,1.476-3.713-0.103c-0.576-1.072-1.369-1.855-2.456-2.408
		c-1.586-0.806-1.675-2.793-0.161-3.712c1.117-0.678,2.009-1.521,2.683-2.651c0.849-1.423,2.725-1.421,3.601-0.004
		c0.699,1.13,1.545,2.075,2.697,2.754C17.778,60.246,18.085,60.893,18.12,61.673z"/>
	<path fill-rule="evenodd" clip-rule="evenodd" fill="#FD646F" d="M32.586,20.285c6.597,1.731,13.097,1.714,19.662,0.013
		c-2.016,4.036-5.021,6.515-9.569,6.692C38.419,27.157,34.858,24.78,32.586,20.285z"/>
	<path fill-rule="evenodd" clip-rule="evenodd" fill="#E3DFE3" d="M25.34,14.101c0,0.96-0.023,1.921,0.01,2.881
		c0.016,0.452-0.14,0.591-0.571,0.552c-0.817-0.072-1.865,0.34-2.393-0.171c-0.457-0.441-0.111-1.48-0.122-2.255
		c-0.019-1.298,0.01-2.596-0.014-3.894c-0.008-0.445,0.144-0.593,0.584-0.568c0.798,0.045,1.839-0.253,2.333,0.145
		c0.523,0.421,0.121,1.505,0.169,2.298C25.356,13.424,25.34,13.763,25.34,14.101z"/>
	<path fill-rule="evenodd" clip-rule="evenodd" fill="#E3DFE3" d="M62.741,14.092c0,0.961-0.021,1.922,0.009,2.881
		c0.015,0.454-0.146,0.598-0.58,0.562c-0.818-0.069-1.887,0.338-2.385-0.171c-0.395-0.404-0.119-1.474-0.124-2.248
		c-0.008-1.298,0.014-2.597-0.011-3.894c-0.008-0.434,0.11-0.617,0.565-0.573c0.815,0.078,1.857-0.342,2.389,0.175
		c0.467,0.453,0.1,1.482,0.134,2.256C62.753,13.416,62.741,13.754,62.741,14.092z"/>
	<path fill-rule="evenodd" clip-rule="evenodd" fill="#FCE703" d="M61.005,55.904c0.657,1.024,1.44,1.809,2.425,2.501
		c-0.979,0.618-1.762,1.365-2.391,2.354c-0.664-0.993-1.416-1.826-2.507-2.408C59.523,57.683,60.326,56.914,61.005,55.904z"/>
	<path fill-rule="evenodd" clip-rule="evenodd" fill="#FCE703" d="M75.321,67.74c-0.799,0.511-1.357,1.155-1.932,1.831
		c-0.48-0.639-0.946-1.229-1.595-1.63c-0.336-0.208-0.273-0.362,0.008-0.558c0.604-0.419,1.078-0.969,1.556-1.607
		C73.932,66.494,74.52,67.168,75.321,67.74z"/>
	<path fill-rule="evenodd" clip-rule="evenodd" fill="#FDE803" d="M9.685,61.552c1.209-0.791,2.159-1.663,2.91-2.905
		c0.78,1.21,1.705,2.193,2.913,2.967c-1.199,0.706-2.109,1.606-2.868,2.803C11.902,63.21,10.996,62.255,9.685,61.552z"/>
</g>
</svg>
