<?xml version="1.0" encoding="utf-8"?>
<!-- Generator: Adobe Illustrator 16.0.2, SVG Export Plug-In . SVG Version: 6.00 Build 0)  -->
<!DOCTYPE svg PUBLIC "-//W3C//DTD SVG 1.1 Tiny//EN" "http://www.w3.org/Graphics/SVG/1.1/DTD/svg11-tiny.dtd">
<svg version="1.1" baseProfile="tiny" id="Layer_1" xmlns="http://www.w3.org/2000/svg" xmlns:xlink="http://www.w3.org/1999/xlink"
	 x="0px" y="0px" width="85px" height="85px" viewBox="0 0 85 85" xml:space="preserve">
<g>
	<path fill-rule="evenodd" d="M54.111,82.482c-8.84,0-17.679,0-26.518,0c-1.491,0-1.863-0.368-1.865-1.838
		c-0.001-0.913-0.018-1.827,0.008-2.74c0.012-0.416-0.047-0.609-0.546-0.605c-3.09,0.024-6.18,0.022-9.269,0.001
		c-0.448-0.003-0.537,0.152-0.519,0.55c0.033,0.724,0.029,1.446-0.264,2.138c-0.65,1.538-1.819,2.36-3.462,2.467
		c-0.936,0.062-1.881,0.041-2.82,0.006c-2.117-0.077-3.717-1.731-3.764-3.851c-0.003-0.161-0.026-0.326,0.002-0.482
		c0.131-0.716-0.156-1.1-0.795-1.493c-2.503-1.541-2.362-5.119,0.235-6.559c0.45-0.25,0.564-0.502,0.57-0.983
		c0.022-1.959-0.137-3.922,0.093-5.876c0.088-0.752,0.296-1.479,0.671-2.136c0.28-0.489,0.103-0.583-0.37-0.688
		C3.69,59.994,2.489,58.453,2.5,56.619c0.011-1.816,1.257-3.377,3.059-3.734c0.571-0.114,1.18-0.111,1.764-0.067
		c0.621,0.046,0.868-0.089,0.911-0.787c0.089-1.443,0.062-2.901,0.385-4.326c0.843-3.717,4.1-6.451,7.907-6.481
		c6.125-0.046,12.251-0.048,18.376,0c4.241,0.033,7.724,3.337,8.104,7.561c0.061,0.669,0.124,1.339,0.134,2.01
		c0.006,0.419,0.154,0.511,0.53,0.405c0.542-0.149,1.103-0.243,1.632-0.428c0.364-0.126,0.98,0.05,1.038-0.496
		c0.069-0.651,0.169-1.3-0.543-1.858c-1.765-1.384-2.997-3.204-3.767-5.315c-0.156-0.428-0.325-0.614-0.827-0.623
		c-2.78-0.049-4.977-2.11-5.145-4.77c-0.176-2.777,1.75-5.139,4.563-5.481c0.588-0.072,0.595-0.303,0.592-0.741
		c-0.014-2.096,0.076-4.195-0.024-6.286c-0.202-4.229,2.275-8.107,7.136-9.167c4.411-0.961,8.797-1.008,13.099,0.486
		C64.82,17.7,66.968,20.804,67,24.403c0.02,2.364,0.013,4.729-0.002,7.093c-0.003,0.451,0.029,0.661,0.602,0.732
		c2.781,0.347,4.691,2.662,4.556,5.41c-0.134,2.7-2.332,4.783-5.157,4.844c-0.446,0.009-0.649,0.127-0.801,0.552
		c-0.789,2.228-2.138,4.068-3.958,5.569c-0.322,0.268-0.584,1.53-0.355,1.837c0.165,0.223,0.472,0.205,0.722,0.269
		c3.608,0.918,7.241,1.752,10.824,2.761c5.138,1.446,8.934,6.355,9.021,11.689c0.087,5.291,0.032,10.585,0.027,15.877
		c-0.001,1.022-0.521,1.445-1.69,1.445C71.896,82.483,63.003,82.482,54.111,82.482z"/>
	<path fill-rule="evenodd" d="M21.859,30.942c0.107,1.811-0.127,3.535-1.26,5.038c-1.259,1.671-2.938,2.546-5.017,2.635
		c-0.885,0.038-1.773,0.033-2.659,0.004c-1.21-0.038-1.751-1.057-1.103-2.085c0.615-0.975,1.283-1.917,1.911-2.883
		c0.556-0.857,0.504-1.651-0.118-2.271c-0.617-0.614-1.406-0.654-2.27-0.092c-0.944,0.614-1.879,1.241-2.815,1.867
		c-0.454,0.304-0.922,0.432-1.436,0.161c-0.539-0.284-0.734-0.754-0.711-1.335c0.045-1.205-0.104-2.415,0.129-3.616
		c0.573-2.946,3.123-5.125,6.123-5.211c0.269-0.008,0.544-0.046,0.805,0.001c1.991,0.36,3.373-0.483,4.715-1.933
		c2.699-2.914,5.582-5.66,8.404-8.458c0.33-0.328,0.47-0.646,0.475-1.115c0.014-1.313-0.132-2.63,0.121-3.937
		c0.565-2.912,3.098-5.096,6.055-5.19c0.885-0.028,1.772,0,2.659-0.014c0.588-0.008,1.044,0.195,1.327,0.728
		c0.275,0.519,0.125,0.985-0.173,1.434c-0.625,0.938-1.258,1.869-1.872,2.813c-0.558,0.858-0.509,1.651,0.114,2.269
		c0.622,0.617,1.413,0.664,2.272,0.105c0.944-0.614,1.876-1.246,2.812-1.873c0.452-0.303,0.918-0.435,1.434-0.16
		c0.535,0.285,0.739,0.747,0.716,1.332c-0.048,1.206,0.101,2.415-0.133,3.616c-0.573,2.948-3.115,5.122-6.122,5.212
		c-0.188,0.006-0.381,0.033-0.563,0.001c-2.157-0.375-3.679,0.49-5.132,2.102c-2.46,2.729-5.145,5.26-7.782,7.826
		c-0.663,0.646-1.062,1.29-0.912,2.226C21.894,30.399,21.859,30.673,21.859,30.942z"/>
	<path fill-rule="evenodd" fill="#3B97DF" d="M40.889,54.604c0.491-0.229,1.015-0.322,1.607-0.408c0,1.502,0,2.978,0,4.451
		c0,2.661-0.002,5.32,0.001,7.98c0.001,1.22,0.437,1.665,1.636,1.666c6.637,0.003,13.273,0.002,19.91,0
		c1.248-0.001,1.669-0.436,1.67-1.714c0.002-3.896,0.02-7.792-0.016-11.688c-0.008-0.679,0.192-0.755,0.758-0.574
		c0.713,0.228,1.627,0.209,2.11,0.662c0.49,0.46,0.31,1.406,0.403,2.143c0.625,4.926,1.348,9.843,1.832,14.782
		c0.246,2.502,0.059,5.047,0.076,7.572c0.002,0.297-0.077,0.462-0.404,0.428c-0.106-0.011-0.215-0.001-0.322-0.001
		c-10.346,0-20.69,0-31.036-0.001c-0.161,0-0.321-0.016-0.482-0.025c-0.33-0.358-0.229-0.806-0.253-1.228
		c-0.287-5.185,0.44-10.289,1.181-15.396c0.377-2.604,0.681-5.22,1.055-7.825C40.658,55.136,40.664,54.834,40.889,54.604z"/>
	<path fill-rule="evenodd" fill="#F8C286" d="M45.253,37.003c1.412,0.475,2.782,0.315,4.171-0.167
		c3.208-1.112,6.439-1.051,9.625,0.073c1.896,0.669,3.624,0.526,5.25-0.684c1.038,6.564-2.958,11.597-8.445,12.559
		c-2.317,0.406-4.534,0.093-6.591-1.107c-3.204-2.48-4.513-5.815-4.391-9.783C44.882,37.581,44.681,37.105,45.253,37.003z"/>
	<path fill-rule="evenodd" fill="#CACACA" d="M54.111,65.714c-2.793,0-5.586-0.013-8.379,0.012
		c-0.515,0.005-0.673-0.117-0.669-0.655c0.025-3.652,0.044-7.306-0.007-10.956c-0.013-0.934,0.675-0.684,1.114-0.887
		c0.462-0.214,0.678-0.04,0.914,0.404c1.492,2.794,3.848,4.316,7.015,4.318c3.168,0.001,5.524-1.518,7.021-4.309
		c0.231-0.433,0.441-0.642,0.908-0.416c0.435,0.207,1.138-0.06,1.125,0.877c-0.047,3.652-0.029,7.305-0.007,10.956
		c0.003,0.519-0.122,0.674-0.657,0.668C59.697,65.699,56.904,65.714,54.111,65.714z"/>
	<path fill-rule="evenodd" fill="#41A4EE" d="M13.477,48.973c3.761-0.009,7.522-0.022,11.284-0.026
		c4.971-0.004,9.942,0.014,14.913-0.018c0.635-0.004,0.806,0.202,0.852,0.79c0.176,2.232,0.192,2.231-1.942,2.755
		c-0.365,0.09-0.732,0.169-1.093,0.27c-0.294,0.082-0.558,0.131-0.827-0.1c-2.906-2.494-8.035-0.839-8.384,3.878
		c-0.195,0.133-0.417,0.077-0.626,0.077c-4.668,0.004-9.337,0.005-14.005,0.002c-0.773-0.001-0.937-0.136-0.866-0.874
		c0.19-1.976,0.188-3.964,0.425-5.934C13.242,49.502,13.241,49.198,13.477,48.973z"/>
	<path fill-rule="evenodd" fill="#CACACA" d="M71.403,55.646c4.061,0.503,7.72,4.17,8.339,8.314c0.084,0.555,0.151,1.119,0.152,1.68
		c0.013,4.536,0,9.073,0.021,13.61c0.002,0.521-0.128,0.675-0.66,0.665c-1.743-0.034-3.49-0.028-5.234-0.003
		c-0.457,0.007-0.593-0.126-0.577-0.581c0.032-0.992-0.032-1.988,0.017-2.979c0.191-3.831-0.425-7.597-0.895-11.373
		C72.18,61.873,71.793,58.768,71.403,55.646z"/>
	<path fill-rule="evenodd" fill="#CACACA" d="M36.524,55.697c0.455-0.169,0.252,0.168,0.233,0.322
		c-0.302,2.504-0.567,5.014-0.929,7.51c-0.748,5.16-1.317,10.33-1.058,15.556c0.033,0.664-0.133,0.882-0.819,0.834
		c-1.016-0.071-2.04-0.033-3.059-0.043c-0.272-0.282-0.236-0.644-0.237-0.987c-0.004-4.53-0.079-9.063,0.022-13.592
		c0.08-3.604,1.682-6.54,4.443-8.845C35.536,56.104,36.054,55.945,36.524,55.697z"/>
	<path fill-rule="evenodd" fill="#E1513A" d="M11.707,67.021c3.122-0.175,4.354-3.079,3.377-5.16
		c-0.418-0.891-1.095-1.509-1.998-1.888c-0.367-0.153-0.734-0.31-1.105-0.467c0.459-0.301,13.468-0.449,15.419-0.171
		c-0.769,1.494-1.365,3.033-1.538,4.703c-0.039,0.381-0.304,0.376-0.584,0.375c-0.992-0.002-1.985,0.022-2.978-0.005
		c-2.584-0.071-4.415,1.061-5.519,3.391c-0.08,0.169-0.184,0.325-0.278,0.488c-0.368,0.302-0.809,0.244-1.229,0.223
		c-1.053-0.057-2.055-0.325-2.989-0.816C12.015,67.551,11.673,67.439,11.707,67.021z"/>
	<path fill-rule="evenodd" fill="#41A4EE" d="M48.946,25.269c0.068-0.988-0.132-2.173,0.157-3.34
		c0.554-2.231,2.98-4.082,5.125-3.897c2.842,0.246,4.956,2.296,5.023,4.933c0.045,1.716-0.006,3.434,0.024,5.151
		c0.008,0.497-0.168,0.574-0.604,0.509c-3.044-0.456-6.092-0.456-9.136,0.001c-0.443,0.066-0.621-0.022-0.6-0.514
		C48.974,27.228,48.946,26.341,48.946,25.269z"/>
	<path fill-rule="evenodd" fill="#E1513A" d="M16.537,43.813c6.175-0.005,12.351-0.046,18.525,0.008
		c1.808,0.015,3.257,0.921,4.321,2.373c-0.097,0.228-0.25,0.169-0.369,0.169c-8.136,0.003-16.271,0.003-24.408,0.002
		c-0.107,0-0.214-0.016-0.321-0.023C14.27,45.396,15.459,44.06,16.537,43.813z"/>
	<path fill-rule="evenodd" fill="#B1B1B1" d="M36.524,55.697c-1.57,1.13-2.987,2.396-4,4.084c-1.016,1.692-1.589,3.524-1.614,5.465
		c-0.061,4.877-0.018,9.754-0.017,14.63c-0.828-0.005-1.88,0.294-2.419-0.104c-0.515-0.38-0.154-1.499-0.157-2.292
		c-0.016-3.945-0.031-7.891,0-11.836c0.037-4.71,3.177-8.701,7.731-9.891C36.2,55.713,36.364,55.715,36.524,55.697z"/>
	<path fill-rule="evenodd" fill="#2975B8" d="M44.455,32.665c6.447-2.435,12.852-2.42,19.303-0.009
		c-1.017,2-2.013,2.433-4.016,1.761c-3.763-1.261-7.517-1.261-11.278,0C46.46,35.09,45.463,34.656,44.455,32.665z"/>
	<path fill-rule="evenodd" fill="#2976B8" d="M40.889,54.604c-0.011,1.583-0.36,3.128-0.538,4.692
		c-0.258,2.277-0.606,4.546-0.918,6.817c-0.254,1.849-0.518,3.696-0.767,5.546c-0.042,0.317-0.038,0.643-0.038,0.964
		c-0.001,2.418,0.002,4.836,0.005,7.253c-0.08,0.009-0.16,0.023-0.24,0.023c-1.308-0.005-1.032,0.1-1.053-1.067
		c-0.016-0.886,0.038-1.774-0.01-2.658c-0.197-3.672,0.442-7.274,0.876-10.895c0.371-3.087,0.771-6.173,1.178-9.257
		C39.549,54.774,39.572,54.777,40.889,54.604z"/>
	<path fill-rule="evenodd" fill="#475961" d="M25.701,73.446c0.009,0.134,0.007,0.269,0.028,0.401c0.11,0.68-0.117,0.91-0.856,0.906
		c-6.008-0.033-12.015-0.021-18.023-0.015c-0.467,0.001-0.922-0.025-1.289-0.341c-0.422-0.362-0.598-0.831-0.398-1.371
		c0.296-0.806,0.949-0.943,1.704-0.853c0.92,0.798,1.986,1.051,3.199,1.042c4.774-0.038,9.55-0.019,14.325-0.012
		C24.837,73.206,25.313,73.108,25.701,73.446z"/>
	<path fill-rule="evenodd" fill="#F8C286" d="M50.418,51.027c3.762,0.677,3.762,0.677,8.796-0.481
		c0.306,3.193-3.628,5.768-6.884,4.506c-1.229-0.7-1.861-1.826-2.19-3.146C50.062,51.597,49.847,51.165,50.418,51.027z"/>
	<path fill-rule="evenodd" fill="#3185CC" d="M60.682,18.984c1.975,0.872,3.075,2.217,3.575,4.083
		c0.154,0.575,0.173,1.164,0.171,1.757c-0.008,1.61-0.011,3.22,0.003,4.83c0.004,0.394-0.073,0.578-0.484,0.355
		c-0.024-0.013-0.048-0.024-0.073-0.033c-0.651-0.237-1.519-0.297-1.896-0.758c-0.413-0.505-0.112-1.389-0.127-2.107
		c-0.021-0.939-0.005-1.878-0.005-2.818C61.846,21.755,61.846,21.755,60.682,18.984z"/>
	<path fill-rule="evenodd" fill="#586D79" d="M25.701,73.446c-5.514,0.002-11.028,0.021-16.542-0.009
		c-0.938-0.006-1.87-0.225-2.292-1.263c6.087-0.008,12.174-0.016,18.262-0.02C26.273,72.154,25.513,73.015,25.701,73.446z"/>
	<path fill-rule="evenodd" fill="#3B97DF" d="M13.477,48.973c-0.162,2.23-0.19,4.47-0.481,6.689
		c-0.087,0.661,0.125,0.879,0.816,0.874c4.823-0.027,9.645-0.015,14.468-0.015c-0.181,0.314-0.479,0.148-0.715,0.149
		c-4.854,0.01-9.708,0.01-14.562,0.001c-0.675-0.001-1.352,0.013-1.989,0.22c-0.518,0.166-0.513-0.034-0.487-0.438
		c0.148-2.247,0.291-4.494,0.401-6.744c0.03-0.604,0.238-0.845,0.862-0.775C12.347,48.997,12.914,48.964,13.477,48.973z"/>
	<path fill-rule="evenodd" fill="#C33D32" d="M11.707,67.021c1.032,0.899,2.3,1.137,3.599,1.267c0.396,0.039,0.798,0.002,1.198,0
		c-0.257,0.971-0.79,1.378-1.886,1.317c-2.054-0.11-4.12-0.05-6.18-0.02c-0.563,0.009-0.794-0.089-0.786-0.731
		c0.025-1.859-0.007-1.863,1.889-1.858C10.264,66.996,10.985,67.012,11.707,67.021z"/>
	<path fill-rule="evenodd" fill="#475961" d="M22.18,67.021c0.986-0.008,1.972,0,2.956-0.032c0.446-0.014,0.625,0.131,0.599,0.59
		c-0.034,0.61-0.018,1.225-0.024,1.837c-1.378,0.194-2.763,0.035-4.145,0.082c-0.506,0.017-1.015,0.013-1.521-0.002
		c-0.224-0.007-0.515,0.113-0.646-0.171c-0.128-0.275,0.034-0.52,0.195-0.733C20.248,67.728,21.07,67.137,22.18,67.021z"/>
	<path fill-rule="evenodd" fill="#2975B8" d="M45.256,29.61c-0.462,0.186-0.925,0.372-1.492,0.602
		c0.128-2.446-0.219-4.78,0.194-7.082c0.34-1.888,1.87-3.575,3.494-4.01c0.017,0.239-0.091,0.394-0.244,0.533
		c-1.173,1.329-1.852,2.866-1.9,4.649C45.258,26.069,45.364,27.841,45.256,29.61z"/>
	<path fill-rule="evenodd" fill="#F1AC72" d="M45.253,37.003c-0.365,0.985-0.228,2.007-0.104,2.993
		c0.362,2.898,1.656,5.335,3.831,7.297c0.116,0.104,0.189,0.254,0.282,0.383c-3.404-1.817-5.147-4.711-5.455-8.503
		c-0.077-0.957-0.012-1.927-0.012-2.987C44.313,36.477,44.783,36.74,45.253,37.003z"/>
	<path fill-rule="evenodd" fill="#283237" d="M7.685,77.979c-0.084-0.472,0.071-0.68,0.591-0.669
		c1.312,0.028,2.624,0.028,3.935-0.001c0.512-0.011,0.622,0.197,0.628,0.664c0.021,1.438-0.434,1.926-1.883,1.926
		c-0.508,0-1.017-0.01-1.525-0.015C8.462,79.604,7.866,78.982,7.685,77.979z"/>
	<path fill-rule="evenodd" fill="#3185CC" d="M45.256,29.61c-0.279-0.227-0.173-0.542-0.175-0.822
		c-0.01-1.494-0.01-2.988-0.003-4.482c0.007-1.753,0.718-3.242,1.761-4.6c0.091-0.118,0.212-0.273,0.369-0.055
		c-0.68,1.439-0.907,2.955-0.852,4.539c0.049,1.369-0.056,2.744,0.033,4.109C46.449,29.21,46.102,29.577,45.256,29.61z"/>
	<path fill-rule="evenodd" fill="#F0AC72" d="M67.005,37.336c0-0.697,0.029-1.396-0.01-2.09c-0.028-0.493,0.175-0.525,0.569-0.435
		c1.169,0.269,2.04,1.369,2.018,2.577c-0.022,1.177-0.897,2.229-2.041,2.477c-0.389,0.084-0.599,0.063-0.565-0.438
		c0.045-0.694,0.011-1.393,0.011-2.09C66.993,37.336,66.999,37.336,67.005,37.336z"/>
	<path fill-rule="evenodd" fill="#F1AC72" d="M41.225,37.35c0,0.697-0.029,1.396,0.011,2.091c0.023,0.421-0.117,0.51-0.501,0.443
		c-1.18-0.204-2.124-1.353-2.104-2.591c0.018-1.208,0.958-2.315,2.107-2.504c0.335-0.056,0.49,0.003,0.477,0.389
		c-0.025,0.724-0.008,1.448-0.008,2.172C41.212,37.35,41.219,37.35,41.225,37.35z"/>
	<path fill-rule="evenodd" fill="#F6D64A" d="M8.935,61.138c1.25,0.24,2.365,0.838,3.466,1.421c0.691,0.366,0.539,1.202-0.214,1.706
		c-0.816,0.164-1.642,0.045-2.463,0.07c-0.418,0.015-0.613-0.274-0.728-0.623C8.713,62.861,8.557,62.005,8.935,61.138z"/>
	<path fill-rule="evenodd" fill="#C23C32" d="M6.967,55.385c1.08-0.001,1.08-0.001,0.986,1.094
		c-0.009,0.105-0.024,0.211-0.038,0.317c-0.155,1.247-0.155,1.247-1.427,1.167c-0.856-0.055-1.417-0.595-1.393-1.342
		c0.024-0.728,0.559-1.204,1.391-1.235C6.646,55.38,6.807,55.385,6.967,55.385z"/>
	<path fill-rule="evenodd" fill="#C23C31" d="M16.537,43.813c-1.074,0.555-1.759,1.456-2.251,2.528c-0.714,0-1.429,0-2.314,0
		C13.173,44.72,14.641,43.892,16.537,43.813z"/>
	<path fill-rule="evenodd" fill="#EFAB72" d="M50.418,51.027c-0.302,0.273-0.146,0.573-0.079,0.888
		c0.279,1.294,1.115,2.228,1.991,3.137c-2.08-0.703-3.533-2.674-3.32-4.572C49.488,50.666,49.953,50.847,50.418,51.027z"/>
	<path fill-rule="evenodd" fill="#EEBE40" d="M8.935,61.138c0.045,0.851-0.01,1.706,0.278,2.539
		c0.146,0.426,0.351,0.608,0.803,0.592c0.723-0.026,1.447-0.005,2.171-0.004c-0.741,0.319-1.518,0.088-2.276,0.149
		c-0.318,0.025-0.639,0-0.959-0.001c-1.461-0.002-1.507-0.046-1.074-1.438C8.091,62.294,8.36,61.622,8.935,61.138z"/>
	<path fill-rule="evenodd" fill="#38464C" d="M22.18,67.021c-0.884,0.391-1.74,0.818-2.354,1.607
		c-0.149,0.192-0.37,0.397-0.303,0.625c0.089,0.301,0.415,0.163,0.635,0.164c1.851,0.009,3.702,0.001,5.553-0.002
		c-0.062,0.149-0.192,0.17-0.329,0.17c-2.142,0.001-4.284,0.001-6.434,0.001C19.259,67.884,20.454,66.951,22.18,67.021z"/>
	<path fill-rule="evenodd" fill="#37444A" d="M7.685,77.979c0.373,0.828,1.014,1.408,1.746,1.905
		C8.089,79.92,7.641,79.431,7.685,77.979z"/>
	<path fill-rule="evenodd" fill="#B1B1B1" d="M33.312,11.527c0.617,0.522,1.262,0.977,2.072,1.175c0.81,0.198,1.593,0.155,2.38-0.08
		c0.778-0.232,1.368-0.819,2.109-1.16c0.07,2.112-1.564,3.868-3.668,3.935c-1.234,0.039-2.47,0.027-3.705,0.004
		c-0.577-0.011-1.029,0.167-1.438,0.576c-3.733,3.747-7.474,7.487-11.22,11.22c-0.41,0.409-0.582,0.864-0.571,1.439
		c0.022,1.234,0.036,2.471-0.004,3.705c-0.069,2.099-1.836,3.738-4.007,3.656c1.729-2.176,2.083-4.362,0.139-6.557
		c0.069-0.345,0.351-0.532,0.575-0.755c5.525-5.531,11.053-11.059,16.583-16.583C32.781,11.879,32.968,11.597,33.312,11.527z"/>
	<path fill-rule="evenodd" fill="#CACACA" d="M33.312,11.527c-0.153,0.184-0.293,0.381-0.462,0.55
		c-5.632,5.636-11.266,11.27-16.901,16.902c-0.169,0.168-0.366,0.309-0.55,0.463c-2.184-1.759-4.3-1.371-6.372,0.301
		c-0.157-2.13,1.55-3.95,3.689-4.006c1.207-0.032,2.416-0.027,3.622,0c0.607,0.014,1.078-0.176,1.506-0.605
		c3.711-3.727,7.43-7.445,11.156-11.156c0.43-0.428,0.619-0.899,0.605-1.506c-0.027-1.207-0.03-2.416,0-3.622
		c0.055-2.139,1.871-3.843,4.007-3.69C31.941,7.228,31.553,9.344,33.312,11.527z"/>
	<path fill-rule="evenodd" d="M54.146,74.743c3.601,0,7.201,0.01,10.802-0.011c0.548-0.004,0.799,0.055,0.786,0.717
		c-0.037,1.873-0.001,1.874-1.876,1.874c-6.852,0-13.703-0.012-20.555,0.017c-0.686,0.003-0.84-0.186-0.824-0.845
		c0.045-1.751,0.013-1.752,1.752-1.752C47.536,74.743,50.842,74.743,54.146,74.743z"/>
	<path fill-rule="evenodd" d="M54.143,25.726c-1.409,0.016-2.582-1.106-2.614-2.502c-0.033-1.454,1.099-2.637,2.539-2.654
		c1.445-0.017,2.617,1.14,2.616,2.581C56.683,24.559,55.546,25.71,54.143,25.726z"/>
</g>
</svg>
