<?xml version="1.0" encoding="utf-8"?>
<!-- Generator: Adobe Illustrator 16.0.0, SVG Export Plug-In . SVG Version: 6.00 Build 0)  -->
<!DOCTYPE svg PUBLIC "-//W3C//DTD SVG 1.1//EN" "http://www.w3.org/Graphics/SVG/1.1/DTD/svg11.dtd">
<svg version="1.1" id="Layer_1" xmlns="http://www.w3.org/2000/svg" xmlns:xlink="http://www.w3.org/1999/xlink" x="0px" y="0px"
	 width="85px" height="85px" viewBox="0 0 85 85" enable-background="new 0 0 85 85" xml:space="preserve">
<g>
	<g enable-background="new    ">
		<path fill="#EC008C" d="M2.979,21.48v-6.601h36.232v5.35c-3.563,3.797-7.093,8.835-10.588,15.123s-6.199,12.754-8.108,19.389
			c-1.374,4.68-2.256,9.807-2.636,15.38h-7.059c0.078-4.4,0.938-9.718,2.591-15.961c1.653-6.232,4.032-12.252,7.115-18.038
			c3.094-5.786,6.377-10.667,9.873-14.643H2.979L2.979,21.48z"/>
	</g>
	<g enable-background="new    ">
		<path d="M18.325,70.6h-7.993l0.009-0.487c0.079-4.43,0.956-9.838,2.607-16.074c1.651-6.226,4.059-12.329,7.155-18.141
			c2.904-5.431,6.013-10.114,9.251-13.939H2.5V14.4h37.189v6.018l-0.13,0.138c-3.524,3.756-7.063,8.812-10.519,15.028
			c-3.46,6.223-6.174,12.713-8.067,19.29c-1.363,4.643-2.244,9.782-2.618,15.279L18.325,70.6z M11.31,69.643h6.123
			c0.396-5.398,1.278-10.455,2.623-15.036c1.912-6.644,4.654-13.2,8.149-19.487c3.451-6.208,6.993-11.28,10.528-15.079v-4.682H3.458
			v5.644h27.999l-0.699,0.794c-3.437,3.909-6.737,8.805-9.811,14.552c-3.062,5.746-5.442,11.781-7.074,17.935
			C12.302,60.217,11.44,65.381,11.31,69.643z"/>
	</g>
	<g enable-background="new    ">
		<path fill="#EC008C" d="M45.532,42.522c0-6.612,0.682-11.94,2.044-15.972c1.363-4.032,3.385-7.148,6.064-9.337
			c2.681-2.189,6.065-3.284,10.131-3.284c3.004,0,5.64,0.603,7.907,1.81c2.268,1.206,4.133,2.949,5.607,5.227
			c1.474,2.278,2.636,5.048,3.473,8.321c0.838,3.272,1.263,7.684,1.263,13.224c0,6.567-0.67,11.862-2.021,15.905
			c-1.352,4.032-3.362,7.147-6.054,9.348c-2.681,2.201-6.076,3.307-10.175,3.307c-5.395,0-9.628-1.933-12.711-5.808
			C47.375,60.616,45.532,53.032,45.532,42.522z M52.591,42.522c0,9.192,1.072,15.302,3.229,18.339
			c2.155,3.038,4.803,4.558,7.963,4.558c3.161,0,5.808-1.53,7.964-4.579c2.155-3.05,3.228-9.159,3.228-18.329
			c0-9.214-1.072-15.335-3.228-18.362c-2.156-3.027-4.825-4.546-8.03-4.546c-3.161,0-5.674,1.34-7.562,4.01
			C53.775,27.031,52.591,33.331,52.591,42.522z"/>
	</g>
	<g enable-background="new    ">
		<path d="M63.771,71.549c-5.522,0-9.925-2.015-13.085-5.988c-3.738-4.712-5.633-12.463-5.633-23.038
			c0-6.637,0.696-12.062,2.069-16.125c1.387-4.104,3.479-7.319,6.215-9.555c2.756-2.25,6.267-3.392,10.434-3.392
			c3.069,0,5.806,0.627,8.132,1.866c2.324,1.236,4.271,3.049,5.784,5.389c1.504,2.324,2.693,5.171,3.535,8.462
			c0.848,3.311,1.277,7.8,1.277,13.343c0,6.592-0.688,11.994-2.046,16.056c-1.378,4.109-3.465,7.328-6.205,9.567
			C71.489,70.4,67.964,71.549,63.771,71.549z M63.771,14.408c-3.941,0-7.247,1.069-9.828,3.176c-2.595,2.12-4.585,5.188-5.914,9.12
			c-1.339,3.964-2.019,9.286-2.019,15.818c0,10.354,1.825,17.904,5.426,22.442c2.969,3.733,7.119,5.627,12.335,5.627
			c3.965,0,7.286-1.076,9.871-3.197c2.599-2.125,4.584-5.196,5.903-9.131C80.871,54.3,81.543,49,81.543,42.511
			c0-5.463-0.42-9.873-1.247-13.105c-0.817-3.191-1.965-5.943-3.412-8.179c-1.425-2.202-3.251-3.906-5.43-5.065
			C69.268,14.999,66.683,14.408,63.771,14.408z M63.782,65.897c-3.303,0-6.113-1.601-8.354-4.759
			c-2.231-3.145-3.316-9.234-3.316-18.616c0-9.381,1.193-15.655,3.649-19.183c1.978-2.798,4.653-4.215,7.954-4.215
			c3.344,0,6.177,1.597,8.42,4.747c2.231,3.134,3.316,9.231,3.316,18.64c0,9.363-1.084,15.449-3.315,18.604
			C69.894,64.289,67.083,65.897,63.782,65.897z M63.716,20.083c-3.014,0-5.359,1.245-7.171,3.807
			c-2.306,3.312-3.475,9.582-3.475,18.633c0,9.049,1.056,15.126,3.139,18.062c2.08,2.931,4.557,4.355,7.573,4.355
			c3.014,0,5.49-1.432,7.573-4.377c2.083-2.947,3.14-9.021,3.14-18.052c0-9.075-1.057-15.159-3.139-18.084
			C69.274,21.503,66.774,20.083,63.716,20.083z"/>
	</g>
</g>
</svg>
