<?xml version="1.0" encoding="utf-8"?>
<!-- Generator: Adobe Illustrator 16.0.0, SVG Export Plug-In . SVG Version: 6.00 Build 0)  -->
<!DOCTYPE svg PUBLIC "-//W3C//DTD SVG 1.1//EN" "http://www.w3.org/Graphics/SVG/1.1/DTD/svg11.dtd">
<svg version="1.1" id="Layer_1" xmlns="http://www.w3.org/2000/svg" xmlns:xlink="http://www.w3.org/1999/xlink" x="0px" y="0px"
	 width="85px" height="85px" viewBox="0 0 85 85" enable-background="new 0 0 85 85" xml:space="preserve">
<g>
	<path fill="#2B3990" d="M2.5,2.5h80v80h-80V2.5z"/>
	<circle fill="#1C75BC" cx="42.5" cy="42.5" r="26.6"/>
	<g>
		<path fill="#DAE3E6" d="M14.271,31.702c-0.027-0.596,1.824-3.37,3.637-3.873l-0.078,1.504c0,0-1.693,2.253-1.74,2.278
			c-0.047,0.026-1.457,0.636-1.457,0.636L14.271,31.702z"/>
		<path fill="#FFD7A3" d="M12.469,56.818c0.105,0.934-0.422,2.885-0.361,4.767c0.053,1.649,0.6,1.737,0.621,2.278
			c0.029,0.674-0.311,1.088-1.969,0.881c-1.656-0.207-4.092,0.21-4.299-0.104c-0.123-0.186-0.076-0.632,0.355-0.884
			c0.295-0.174,0.609-0.039,1.35-0.188c1.812-0.361,2.398-0.74,2.451-1.415C10.668,61.479,9,55.006,9,55.006L12.469,56.818
			L12.469,56.818z M39.059,54.298c1.051,1.033,4.494,5.232,5.609,6.11c1.041,0.818,2.078,1.492,3.463,1.764
			c1.383,0.27,1.229,0.417,1.016,0.719s-0.922,0.529-2.85,0.132s-2.658,0.317-3.191-0.003c-0.533-0.318-0.221-1.758-0.498-2.236
			s-4.828-3.534-5.533-4.5L39.059,54.298L39.059,54.298z"/>
		<path fill="#F3F3F3" d="M26.791,45.953c0,0,2.707,2.214,4.285,3.281c1.76,1.19,4.078,2.198,5.943,3.337
			c1.863,1.141,2.85,1.97,2.85,1.97s-1.037,3.572-3.834,5.074c0,0-2.566-1.14-3.535-2.122c-0.971-0.984-4.803-2.693-5.527-3.107
			c-0.727-0.415-3.449-0.808-5.584-0.663c-2.135,0.146-2.756,0.453-4.207,1.023c-1.449,0.568-3.469,1.658-3.676,1.865
			s-0.621,1.762-0.621,1.762s-2.539-0.362-4.559-2.021c0,0,0-3.626,0.777-4.401c0.775-0.777,5.754-2.717,8.078-5.343L26.791,45.953
			L26.791,45.953z"/>
		<path fill="#E7E7E7" d="M26.791,45.953L26.791,45.953l-9.607,0.656c-0.336,0.377-0.729,0.739-1.152,1.087h0.004
			c7.973,0.098,10.543-0.729,11.242-1.35C26.979,46.104,26.791,45.953,26.791,45.953z"/>
		<path fill="#FFD7A3" d="M17.908,27.829c0,0,1.82-0.058,4.609-1.112c2.787-1.055,2.641,0.114,5.281-0.353
			c2.643-0.466,2.279-0.827,0-1.346c-2.277-0.518-1.688,0.316-3.504,0.149c-1.814-0.168-8.422,0.477-8.811,1.07
			c-0.254,0.389-0.318,2.855,0.545,6.01l2.246-3.003L17.908,27.829z"/>
		<path fill="#F0502D" d="M26.793,45.188c0,0,0.443,0.868,0.287,1.146c-0.154,0.276-2.795,0.71-4.74,0.631s-4.795-0.079-5.156-0.355
			c0,0-0.053-0.945,0.775-1.46C18.789,44.637,26.793,45.188,26.793,45.188L26.793,45.188z"/>
		<path fill="#FFD7A3" d="M33.742,38.164c1.402-0.168,3.018,0.095,4.48,0.046c1.377-0.046,2.072-0.241,2.979-0.187
			c0.74,0.044,0.418,1.017,1.969,0.795c1.549-0.221,2.738-0.182,1.195,0.44c-0.695,0.279-1.094,0.778-1.797,0.751
			c-0.861-0.031-1.533-0.6-1.824-0.573c-0.531,0.049-7.002,1.044-7.002,1.044V38.164L33.742,38.164z"/>
		<path fill="#F3F3F3" d="M22.52,34.007c0.207,0.235,1.967,0.438,3.986,0.438s3.619,2.035,5.283,2.85
			c1.139,0.558,3.572,0.451,3.572,0.71s0.623,2.915-2.277,4.778c0,0-3.574-0.982-5.594-2.899c0,0-0.027,2.273-0.697,5.386
			c0,0-0.219,0.467-2.713,0.57c-2.494,0.103-3.531-0.622-4.67-0.363c-1.141,0.26-1.812,0.155-1.812,0.155s-0.479-0.588-0.416-1.368
			c0.207-2.549-0.818-6.915-1.553-8.887C14.646,32.733,14.27,31.7,14.27,31.7s0.27-0.009,0.607-0.148
			c1.242-0.511,2.855-2.49,3.031-3.724c0,0,1.307,3.197,1.617,3.724s0.529,1.227,1.543,1.58
			C22.561,33.652,22.52,34.007,22.52,34.007L22.52,34.007z"/>
		<path fill="#FFD7A3" d="M23.781,37.731c-0.604-0.5-2.256-3.778-2.256-3.778l0.992,0.054l2.324,0.391l0.469,0.771l-1.094,2.562
			L23.781,37.731L23.781,37.731z"/>
		<path fill="#DAE3E6" d="M24.57,34.007c0.924,0.258,1.061,0.36,1.061,0.36s-0.117,2.614-1.035,3.822l-0.812-0.458
			c0,0,1.344-1.925,1.066-2.825L24.57,34.007L24.57,34.007z"/>
		<path fill="#E7E7E7" d="M27.463,42.157c-0.002-0.001-0.002-0.002-0.002-0.003c-0.197-0.632-1.256-2.685-2.865-3.964
			c-1.609-1.28-2.898-4.225-2.898-4.225l0.508-0.312l0.014-0.009l-0.355-0.544h-0.377c-0.035,0-0.223,0.029-0.33,0.089
			c-0.27,0.149-0.982,0.396-1.1,0.475c-0.02,0.014,2.498,3.975,4.041,5.238c1.631,1.333,3.064,3.412,3.074,4.373
			c0,0.001,0,0.003,0,0.005C27.17,43.279,27.656,42.787,27.463,42.157z"/>
		<path fill="#FFD7A3" d="M21.588,31.553c0.195,0.66,0.291,2.035,0.109,2.413c-0.064,0.132,0.926,0.938,1.885,1.128
			c0.654,0.13,1.232,0.11,1.266-0.188c0.031-0.279-0.516-1.141-0.266-1.41c0.248-0.271-2.611-1.931-2.611-1.931L21.588,31.553
			L21.588,31.553z"/>
		<path fill="#46342B" d="M25.789,28.477c0.238,0.238,1.1,0.298,1.133,0.793c0,0,0.203-0.115,0.217-0.25
			c0.014-0.136-0.062-0.721-0.129-1.011c-0.066-0.289-0.57-0.745-0.922-1.162c-0.35-0.417-1.258-0.763-1.945-1.033
			c-0.689-0.27-2.285-0.083-2.752,0.871c0,0-1.1,0.214-1.297,1.578s0.445,2.967,0.982,3.521c0.537,0.554,1.02,0.455,1.02,0.455
			s2.248-3.192,2.289-3.228C24.424,28.978,25.789,28.477,25.789,28.477z"/>
		<path fill="#FFD7A3" d="M22.621,30.966c-0.236-0.318-0.635-0.549-0.91-0.319c-0.273,0.231-0.281,0.555-0.123,0.906
			c0.332,0.733,0.787,0.899,1.041,0.845c0,0,0.059,0.449,0.557,0.776c0.496,0.328,1.836,0.961,2.229,0.976
			c0.391,0.016,0.633-0.318,0.641-0.603c0.008-0.283,0.17-0.206,0.299-0.392c0.127-0.184-0.033-0.259-0.033-0.259
			s0.271-0.063,0.229-0.168c-0.043-0.104-0.146-0.397-0.057-0.45c0.092-0.051,0.457-0.127,0.391-0.343
			c-0.066-0.215-0.402-0.756-0.367-1.039c0.031-0.282,0.35-0.521,0.404-0.661c0.059-0.142,0.045-0.942-0.061-1.315
			c0,0-0.607-1.144-2.232-0.356C23,29.352,22.621,30.966,22.621,30.966L22.621,30.966z"/>
		<path fill="#46342B" d="M26.922,29.27c-0.062-0.349-0.404-0.492-0.695-0.855c0,0-0.062,0.599-0.834,0.835
			c-1.188,0.361-2.646,1.094-2.771,1.717c0,0-0.381-1.845,0.32-2.648s2.135-1.146,2.838-1.09c0.703,0.058,1.236,1.301,1.236,1.301
			L26.922,29.27z"/>
		<path fill="#E7E7E7" d="M19.037,44.153c0,0.942-0.471,1.322-0.982,1.226c-0.428-0.081-0.773-0.857-0.848-1.738
			c-0.002,0.216-0.01,0.426-0.023,0.623c-0.064,0.78,0.414,1.368,0.414,1.368s0.57,0.143,1.725-0.05
			c0.861-0.145,1.527-0.029,2.602,0.136c-0.746-0.104-1.541-0.301-2.172-0.397C19.111,45.222,19.037,44.153,19.037,44.153
			L19.037,44.153z"/>
		<path fill="#D44527" d="M27.08,46.334c0.082-0.145,0.002-0.444-0.096-0.702c-0.002,0-1.666,0.65-2.537,0.632
			c0,0,0.871,0.131,2.344-0.311c0,0-0.688,1.467-9.607,0.656c0.361,0.275,3.211,0.275,5.156,0.354
			C24.285,47.044,26.926,46.609,27.08,46.334L27.08,46.334z"/>
		<path fill="#E7E7E7" d="M23.143,45.839c0.242,0.01,0.506,0.009,0.781,0.001c0.287-0.438-0.143-1.654-0.143-1.654
			C23.871,45.541,23.633,45.792,23.143,45.839z M13.369,55.947c-0.578,0.601-0.842,1.611-0.961,1.563
			c-0.121-0.048-2.883-0.771-4.076-1.563c-0.002,0.137-0.006,0.271-0.006,0.405c2.02,1.657,4.559,2.021,4.559,2.021
			s0.414-1.555,0.621-1.762c0.207-0.206,2.227-1.297,3.678-1.865c1.449-0.57,2.07-0.879,4.205-1.023
			C18.045,53.598,13.945,55.348,13.369,55.947L13.369,55.947z"/>
		<path fill="#F0502D" d="M22.115,46.841c0.984,2.238,1.145,11.991,1.303,11.95s1.289-2.126,1.303-2.332
			c0.016-0.207-1.15-8.69-1.82-9.606C22.229,45.937,22.115,46.841,22.115,46.841L22.115,46.841z M20.68,46.879
			c-0.465,0.429-0.947,8.99-1.096,9.663c-0.146,0.673,1.369,1.554,1.369,1.554s-0.139-10.344,0.562-11.421L20.68,46.879
			L20.68,46.879z"/>
		<path fill="#D44527" d="M22.436,47.964L22.436,47.964c0.727,1.671,1.332,9.739,1.332,9.739s0.506-0.597,0.953-1.244
			c0,0,0.004-0.023,0,0c-0.014,0.206-1.143,2.291-1.303,2.332C23.279,58.826,23.148,51.46,22.436,47.964L22.436,47.964z
			 M20.15,50.134c-0.004,0.062-0.305,6.306-0.305,6.455s0.781,1.021,1.084,0.959c0.014,0.345,0.021,0.548,0.021,0.548
			s-1.516-0.881-1.367-1.554C19.674,56.131,19.889,52.778,20.15,50.134L20.15,50.134z"/>
		<path fill="#E7E7E7" d="M36.035,59.615c2.797-1.501,3.832-5.074,3.832-5.074c-1.357,2.25-3.975,3.832-3.975,3.832
			c-2.279-1.582-7.512-3.699-8.922-3.987c0.727,0.414,4.559,2.123,5.527,3.106C33.467,58.477,36.035,59.615,36.035,59.615
			L36.035,59.615z M35.395,39.251c-0.012,0.017-1.627,2.628-2.402,2.474c-0.777-0.155-3.041-0.521-5.502-1.842
			c2.02,1.917,5.594,2.899,5.594,2.899C34.832,41.66,35.297,40.251,35.395,39.251L35.395,39.251z M31.789,37.294
			c0,0-0.438,1.546-1.254,1.956c0,0,1.045-0.244,1.684-1.792L31.789,37.294L31.789,37.294z"/>
		<path fill="#E7E7E7" d="M31.377,37.067c0,0-0.354,0.807-1.053,1.204c0,0,0.934-0.229,1.465-0.978L31.377,37.067L31.377,37.067z"/>
		<g>
			<path fill="#FBB784" d="M41.607,27.466c-1.83-1.269-4.508-2.747-4.084-3.24c0.422-0.494,1.689-0.986,2.604-0.563
				c0.916,0.423,1.27,1.249,1.902,1.821c0.635,0.573,1.338,1.207,1.338,1.207L41.607,27.466L41.607,27.466z M57.656,61.283
				c0.205,0.614-0.316,2.047,0.252,2.388c0.568,0.342,1.385,0.614,2.307,1.228c0.922,0.614,3.375,0.955,2.559,0
				c-0.818-0.954-2.66-2.112-3.205-3.613C59.021,59.783,57.656,61.283,57.656,61.283L57.656,61.283z"/>
			<path fill="#F3F3F3" d="M58.652,35.424L42.59,25.484c0,0-1.633,1.961-1.863,2.285c0,0,8.078,6.61,9.865,8.089
				c1.787,1.479,4.039,3.958,4.506,4.777c0.467,0.82,0.855,5.248,0.934,6.258s0.854,14.527,0.854,14.527s2.33,0.933,3.768,0
				c0,0,0.193-11.964,0.428-12.975s0.947-4.786,0.947-4.786l-3.055-7.852C58.912,35.649,58.799,35.514,58.652,35.424L58.652,35.424z
				"/>
			<path fill="#46342B" d="M59.959,34.725c-0.959,0.155-1.801,0.661-1.801,1.604c0,0.62,0.643,4.815,1.24,5.902
				c0.594,1.088,1.826,2.527,4.168,1.484L59.959,34.725z"/>
			<path fill="#F3F3F3" d="M73.975,33.113c0.375,0.84,1.34,2.564,1.34,3.216c0,0.396-5.811,3.857-6.564,4.22
				s-4.482,4.091-5.984,2.952c-1.502-1.14-4.402-4.3-3.365-8.65c0,0,1.295-0.228,3.729-1.149c2.436-0.922,4.553-3.771,4.553-3.771
				s1.959,0.718,2.949,1.266S73.975,33.113,73.975,33.113L73.975,33.113z"/>
			<path fill="#FBB784" d="M69.922,32.642l-2.242,3.217l5.02-1.971l0.881-0.982l-1.283-0.438L69.922,32.642z"/>
			<path fill="#8A5E3C" d="M73.395,31.433c0.039-0.462,1.791-0.864,2.24-2.79c0.451-1.926-0.002-3.183-0.922-3.948
				c-1.02-0.848-3.916-0.587-4.709,0.779L73.395,31.433z"/>
			<path fill="#DAE3E6" d="M67.68,35.858l3.41-4.032l-1.627-1.054l-2.518,5.356L67.68,35.858z"/>
			<path fill="#8A5E3C" d="M69.48,26.143c-0.115-0.249,0.422-1.052,1.314-1.412c0.893-0.358-1.264,1.551-1.264,1.551L69.48,26.143z"
				/>
			<path fill="#FBB784" d="M70.375,31.387c0.357,0.059,0.33,1.206-0.336,1.681c0,0,0.633,0.418,1.314,0.42
				c0.852,0.003,2.465,0.146,2.156-1.23c-0.029-0.136-0.178-0.926-0.139-1.484c0.066-0.936,1.051-2.116-0.918-1.825
				C70.291,29.267,70.375,31.387,70.375,31.387L70.375,31.387z"/>
			<path fill="#FBB784" d="M72.906,30.415c0.021,1.181-2.027,1.391-2.947,1.409c-0.951,0.021-1.027-0.307-0.949-0.621
				c0.078-0.315-0.008-0.495-0.162-0.52c-0.152-0.023-0.215-0.273-0.068-0.41c0,0-0.213-0.202-0.045-0.385s0.02-0.312-0.023-0.378
				c-0.043-0.066-0.367-0.146-0.34-0.368c0.025-0.222,0.293-0.257,0.48-0.583s0.293-0.405,0.277-0.726s-0.09-0.573,0.162-1.264
				c0.252-0.688,0.809-1.253,1.145-1.412c0.334-0.158,2.035,0.155,2.51,0.993c0.471,0.837,0.184,2.749,0.184,2.749
				s0.293-0.429,0.729-0.102c0.285,0.215-0.021,0.799-0.146,1.097c-0.123,0.297-0.119,0.66-0.516,0.684
				C72.898,30.597,72.906,30.415,72.906,30.415L72.906,30.415z"/>
			<path fill="#8A5E3C" d="M75.381,25.679c-0.096-0.197-0.295-1.153,1.141-1.477s3.057,0.918,2.619,2.017s-0.521,3.048,0.684,3.159
				c1.207,0.111,0.602,1.479-0.604,2.21c-1.201,0.73,0.201,1.716,0.201,1.716s-1.789,0.251-1.896-0.477
				c-0.158-1.074,1.172-1.899,0.436-2.344c-0.736-0.442-1.688-0.722-1.719-1.056c-0.031-0.333,0.83-4.609-0.709-3.389L75.381,25.679
				L75.381,25.679z M70.004,25.474c0,0-0.018,0.562,0.895,1.182c0.914,0.621,2.217,1.607,2.23,2.245c0,0,1.25-0.953,0.906-2.179
				s-3.234-1.9-3.234-1.9l-0.551,0.405L70.004,25.474z"/>
			<path fill="#F3F3F3" d="M67.68,29.932c-0.928-0.156-8.229,0.061-9.076,0.84c-1.227,1.127,0.371,3.065,1.355,3.953
				c0.986,0.889,6.986-2.877,6.986-2.877L67.68,29.932L67.68,29.932z"/>
			<path fill="#DAE3E6" d="M73.51,32.257c0.07,0.647-0.812,1.631-0.812,1.631l-4.719,1.861l-1.582,0.58c0,0,6.561-0.814,6.973-1.007
				c0.414-0.191,0.83-1.983,0.85-2.177S73.51,32.257,73.51,32.257z M65.043,38.426c0.221-0.359,0.803-0.572,1.211-0.611
				s2.252-0.822,2.496-0.684c0,0-1.582,1.849-1.699,1.849h-1.516L65.043,38.426L65.043,38.426z"/>
			<path fill="#F3F3F3" d="M75.314,36.329c0.555,0.697-3.631,7.689-4.127,8.208c-0.498,0.518-1.562,1.194-4.242-2.614L75.314,36.329
				L75.314,36.329z"/>
			<path fill="#FBB784" d="M68.27,37.643c0.102-1.867-1.725-1.807-2.502-0.904c-0.365,0.405,0.041,1.1,0.146,1.027
				c0.533-0.365,0.111-0.639,0.398-0.527c0.072,0.045,0.131,0.093,0.145,0.156c0.061,0.303-0.33,0.804-0.049,1.107
				C66.408,38.502,68.17,39.511,68.27,37.643z"/>
			<path fill="#DAE3E6" d="M66.027,34.293c0.059,0.271-2.039,3.431-3.314,2.814c-1.008-0.485,0.588-2.647,0.588-2.647L66.027,34.293
				L66.027,34.293z"/>
			<path fill="#FBB784" d="M63.303,35.716c0.137,0.392,0.762,0.28,1,0.477c0.23,0.188-0.188,1.02,0.256,0.917
				c1.162-0.266,2.07-1.85,0.375-2.636C63.234,33.688,63.303,35.716,63.303,35.716z"/>
			<path fill="#E7E7E7" d="M70.004,40.093c-0.375-0.807-0.676-2.033-0.928-2.538c-0.18-0.36-0.301-0.375-0.326-0.424
				c-0.133-0.259-2.049,1.812-3.707,1.295c0,0,0.916,2.206,1.902,3.499c2.678,3.809,3.734,3.124,4.24,2.614
				C71.643,44.078,70.766,41.731,70.004,40.093L70.004,40.093z M58.604,30.771c-0.896,0.243-1.484,2.999,4.109,6.336
				c0,0,1.264-2.815,3.314-2.815c0,0,0-0.52-2.744-1.409C61.477,32.298,60.086,30.37,58.604,30.771L58.604,30.771z"/>
			<path fill="#8A5E3C" d="M70.004,25.228c-0.209,0.125-0.521-0.009-0.668,0.138c-0.324,0.324-0.33,0.969-0.102,1.37
				c0.334,0.584,2.338,0.851,2.533,2.014c0,0,0.576-1.422-0.588-2.342C69.832,25.342,70.004,25.228,70.004,25.228L70.004,25.228z"/>
			<path fill="#FBB784" d="M64.559,37.109c-0.527,0.135-0.951-0.552-0.838-0.611c0.582-0.306,0.617,0.22,0.654-0.117
				c0.035-0.337,0.781-0.266,0.781-0.266L64.559,37.109L64.559,37.109z"/>
			<path fill="#E7E7E7" d="M60.908,51.097c-1.773,0.55-2.883,0.391-2.883,0.391s1.018,0.396,2.523,0.237
				c0,0-0.918,0.462-1.764,0.345c0,0,0.49,0.322,2.076,0.317L60.908,51.097L60.908,51.097z"/>
			<path fill="#46342B" d="M59.689,40.673c0.18,1.753-0.297,5.016-0.164,7.403c0.135,2.386-0.635,4.338-0.635,4.338
				s1.002,0.125,1.658-0.688c0,0-0.162-3.305-0.152-5.889C60.408,42.27,59.689,40.673,59.689,40.673L59.689,40.673z M59.066,39.442
				c-0.35,2.076-0.861,8.124-0.861,8.124l0.855,0.545l0.307-9.134L59.066,39.442L59.066,39.442z"/>
			<path fill="#E7E7E7" d="M60.662,60.888c-1.592,0.621-3.029,0-3.029,0s-1.268-8.437-1.398-10.676
				c0.256,4.309,0.65,11.209,0.65,11.209s2.33,0.933,3.77,0L60.662,60.888z M47.971,33.127c-0.619-0.415-6.779-5.942-6.779-5.942
				c-0.221,0.271-0.398,0.494-0.465,0.585c0,0,8.078,6.61,9.865,8.089c1.207,0.999,2.625,2.452,3.562,3.543
				C53.344,37.597,48.592,33.541,47.971,33.127z"/>
		</g>
	</g>
</g>
</svg>
