<?xml version="1.0" encoding="utf-8"?>
<!-- Generator: Adobe Illustrator 16.0.0, SVG Export Plug-In . SVG Version: 6.00 Build 0)  -->
<!DOCTYPE svg PUBLIC "-//W3C//DTD SVG 1.1//EN" "http://www.w3.org/Graphics/SVG/1.1/DTD/svg11.dtd">
<svg version="1.1" id="Layer_1" xmlns="http://www.w3.org/2000/svg" xmlns:xlink="http://www.w3.org/1999/xlink" x="0px" y="0px"
	 width="85px" height="85px" viewBox="0 0 85 85" enable-background="new 0 0 85 85" xml:space="preserve">
<g>
	<path fill-rule="evenodd" clip-rule="evenodd" fill="#009FC7" d="M20.67,8.241c0.327-0.01,0.653-0.028,0.98-0.028
		c16.124-0.001,32.249-0.001,48.374-0.001c2.483,0,3.501,1.026,3.501,3.529c0.001,5.415,0.006,10.829-0.003,16.244
		c-0.002,1.896-1.17,3.079-3.052,3.08c-16.452,0.006-32.904,0.003-49.356,0.002c-0.147,0-0.296-0.019-0.444-0.028
		c-0.327-0.337-0.283-0.769-0.284-1.18c-0.008-6.812-0.008-13.625,0-20.437C20.387,9.01,20.343,8.578,20.67,8.241z"/>
	<path fill-rule="evenodd" clip-rule="evenodd" fill="#EFC79F" d="M42.609,55.387c1.641,0.52,2.193,1.216,2.347,2.96
		c0.013,0.149,0.024,0.291,0.165,0.382c0.227,0.189,0.061,0.704,0.569,0.666c0.474-0.036,0.522-0.416,0.646-0.742
		c0.355-0.944,0.949-1.632,1.988-1.837c1.703,0.541,2.345,1.414,2.346,3.207c0.002,4.522,0.002,9.044,0,13.565
		c-0.001,1.73-0.667,2.676-2.315,3.134c-0.453,0.127-0.552,0.311-0.548,0.724c0.018,1.457-0.008,2.915,0.015,4.372
		c0.008,0.487-0.131,0.685-0.651,0.683c-5.979-0.021-11.958-0.024-17.938-0.033c-0.288-0.314-0.249-0.71-0.253-1.088
		c-0.012-1.118-0.001-2.236-0.006-3.354c-0.001-0.46-0.033-0.898-0.589-1.044c-0.229-0.063-0.406-0.246-0.647-0.285
		c-3.007-0.491-4.521-3.532-4.47-5.851c0.032-1.482,0.001-2.966,0.01-4.449c0.002-0.381-0.04-0.778,0.231-1.106
		c0.594-0.317,1.224-0.19,1.847-0.152c0.572,0.124,0.891,0.556,1.181,1.006c0.728,1.133,1.212,2.364,1.46,3.688
		c0.02,0.148,0.022,0.298,0.042,0.445c0.036,0.275,0.185,0.427,0.471,0.43c0.313,0.003,0.396-0.211,0.434-0.464
		c0.047-0.325,0.029-0.653,0.029-0.98c0.002-5.92,0.008-11.84-0.003-17.761c-0.003-1.632,0.633-2.811,2.197-3.415
		c1.429,0.119,2.564,1.331,2.61,2.857c0.049,1.626,0.012,3.254,0.007,4.88c0.006,0.948-0.021,1.898,0.009,2.848
		c0.009,0.296,0.024,0.637,0.44,0.646c0.416,0.008,0.449-0.32,0.463-0.624c0.028-0.683-0.021-1.367,0.027-2.048
		c0.098-1.402,0.842-2.312,2.173-2.686c1.641,0.519,2.193,1.214,2.347,2.96c0.013,0.148,0.024,0.29,0.165,0.381
		c0.297,0.444,0.014,0.921,0.074,1.379c0.039,0.293-0.004,0.639,0.412,0.666c0.45,0.03,0.526-0.302,0.53-0.651
		c0.007-0.595,0.033-1.185,0.291-1.735C41.099,56.137,41.682,55.553,42.609,55.387z"/>
	<path fill-rule="evenodd" clip-rule="evenodd" fill="#0A5078" d="M27.804,69.6c-0.464-1.097-0.688-2.298-1.426-3.275
		c-0.265-0.351-0.47-0.753-0.854-1.002c-0.187-0.087-0.397-0.139-0.546-0.286c-1.286-1.273-2.867-1.938-4.618-2.259
		c-0.201-0.037-0.407-0.081-0.564-0.234c-1.033-0.017-2.066-0.039-3.101-0.048c-1.876-0.018-2.934-0.96-3.187-2.852
		c-0.394-0.957-0.393-1.915-0.001-2.872c0.008-5.355,0.015-10.71,0.024-16.065c0-0.356,0.019-0.712,0.028-1.069
		c0.277-0.282,0.641-0.279,0.991-0.281c2.182-0.014,4.362-0.01,6.544-0.002c0.354,0.001,0.712,0.009,1.007,0.254
		c0.943,0.01,1.889,0.01,2.832,0.032c1.643,0.04,2.834,1.222,2.876,2.862c0.024,0.944,0.016,1.89,0.021,2.835
		c0.486,0.916,0.187,1.899,0.246,2.853c0.064,0.74-0.064,1.481,0.021,2.222c0.014,5.976,0.008,11.951,0.002,17.927
		C28.1,68.775,28.167,69.242,27.804,69.6z"/>
	<path fill-rule="evenodd" clip-rule="evenodd" fill="#F9B300" d="M16.386,31.038c0.001-6.924,0-13.848,0.002-20.771
		c0.001-0.326,0.019-0.652,0.028-0.979c0.869-0.035,1.744,0.195,2.611-0.063c0.194-0.058,0.318,0.104,0.394,0.28
		c0.113,0.314,0.109,0.643,0.11,0.968c0.005,6.467,0.004,12.933-0.001,19.4c0,0.412,0.029,0.836-0.222,1.206
		C18.329,31.479,17.354,31.541,16.386,31.038z"/>
	<path fill-rule="evenodd" clip-rule="evenodd" fill="#C70A50" d="M16.386,31.038c0.953,0.001,1.906,0.001,2.858,0.002
		c0.248-0.16,0.485-0.186,0.7,0.057c1.581,0.621,2.263,1.778,2.168,3.47c-0.068,1.212-0.031,2.431-0.041,3.646
		c-0.281,0.283-0.647,0.275-1.002,0.277c-2.169,0.013-4.339,0.013-6.508,0c-0.354-0.002-0.722,0.005-1.002-0.277
		c-0.02-1.429-0.039-2.859-0.059-4.288c-0.361-0.947-0.414-1.89,0.029-2.829C14.482,31.077,15.434,31.057,16.386,31.038z"/>
	<path fill-rule="evenodd" clip-rule="evenodd" fill="#009FC7" d="M33.537,55.887c-0.003-1.546-0.005-3.092-0.009-4.638
		c-0.004-1.614-0.749-2.573-2.331-3.002c-0.419,0.088-0.827,0.237-1.266,0.212c-0.278-0.025-0.563-0.035-0.771-0.268
		c-0.263-0.944-0.378-1.886,0.081-2.811c1.885-0.159,3.674,0.053,5.164,1.369c1.238,1.094,1.907,2.476,1.968,4.126
		c0.037,1.006,0.01,2.015,0.011,3.021C35.181,54.197,34.419,55.127,33.537,55.887z"/>
	<path fill-rule="evenodd" clip-rule="evenodd" fill="#0081A9" d="M19.944,31.096c-0.233-0.019-0.467-0.038-0.7-0.057
		c0-6.924,0-13.847-0.002-20.771c0-0.326-0.019-0.652-0.028-0.979c-0.261-0.375-0.275-0.737,0.06-1.079
		c0.466,0.01,0.932,0.02,1.396,0.029c0,7.599,0,15.198,0,22.796C20.429,31.057,20.187,31.077,19.944,31.096z"/>
	<path fill-rule="evenodd" clip-rule="evenodd" fill="#C70A50" d="M16.4,7.87c-2.229-1.531-1.601-4.105,0.012-5.002
		c1.251-0.696,2.795-0.38,3.667,0.758c0.873,1.139,0.774,2.709-0.243,3.729c-0.188,0.188-0.404,0.347-0.606,0.52
		C18.396,8.668,17.225,8.666,16.4,7.87z"/>
	<path fill-rule="evenodd" clip-rule="evenodd" fill="#C70A50" d="M19.795,62.543c2.29,0.143,4.219,1.028,5.729,2.779
		c-0.662,0.019-1.325,0.038-1.987,0.057c-0.482,0.31-0.966,0.306-1.447-0.004c-0.445-0.008-0.891-0.031-1.335-0.02
		c-0.868,0.021-1.363,0.475-1.506,1.333c-0.179,1.069-0.763,1.611-1.604,1.505c-0.877-0.11-1.392-0.878-1.228-1.933
		C16.725,64.291,17.926,63.106,19.795,62.543z"/>
	<path fill-rule="evenodd" clip-rule="evenodd" fill="#D1A982" d="M22.089,65.375c0.482,0.002,0.965,0.003,1.447,0.004
		c-0.002,1.874-0.01,3.747-0.006,5.622c0.007,2.828,1.824,5.038,4.609,5.626c0.078,0.017,0.144,0.099,0.214,0.149
		c-0.183,0.163-0.369,0.14-0.557,0.008c-3.31-0.087-5.687-2.507-5.696-5.8C22.096,69.115,22.093,67.245,22.089,65.375z"/>
	<path fill-rule="evenodd" clip-rule="evenodd" fill="#9F0028" d="M13.56,38.213c2.837,0,5.675,0,8.512,0
		c0.01,0.465,0.02,0.931,0.03,1.396c-2.848,0.01-5.694,0.019-8.542,0.029C13.56,39.163,13.56,38.688,13.56,38.213z"/>
	<path fill-rule="evenodd" clip-rule="evenodd" fill="#D1A982" d="M33.537,55.887c0.628-1.123,1.434-1.991,2.847-1.989
		c0.171,0.021,0.341,0.041,0.512,0.062c-1.484,0.772-2.125,1.986-1.945,3.652c0.045,0.411-0.021,0.834,0.013,1.248
		c0.045,0.556-0.122,0.792-0.734,0.796c-0.651,0.006-0.722-0.308-0.707-0.825C33.549,57.85,33.534,56.868,33.537,55.887z"/>
	<path fill-rule="evenodd" clip-rule="evenodd" fill="#D1A982" d="M27.797,76.784c0.186-0.002,0.371-0.005,0.557-0.007
		c0.69-0.106,0.931,0.159,0.906,0.878c-0.057,1.603-0.023,3.208-0.027,4.812c-0.088,0.008-0.176,0.02-0.264,0.021
		c-1.153,0.022-1.151,0.022-1.154-1.106C27.811,79.85,27.803,78.316,27.797,76.784z"/>
	<path fill-rule="evenodd" clip-rule="evenodd" fill="#01A0C7" d="M13.507,56.771c0.001,0.957,0.001,1.915,0.001,2.872
		c-0.503-0.005-1.009,0.021-1.509-0.022c-0.783-0.07-1.32-0.67-1.32-1.413c0-0.742,0.539-1.345,1.319-1.413
		C12.498,56.751,13.004,56.776,13.507,56.771z"/>
	<path fill-rule="evenodd" clip-rule="evenodd" fill="#01335A" d="M13.53,31.096c-0.01,0.943-0.02,1.886-0.029,2.829
		c-0.475-0.001-0.952,0.022-1.425-0.01c-0.838-0.056-1.407-0.657-1.397-1.436c0.009-0.778,0.581-1.36,1.429-1.404
		C12.58,31.051,13.056,31.087,13.53,31.096z"/>
	<path fill-rule="evenodd" clip-rule="evenodd" fill="#D1AA82" d="M42.609,55.387c-1.421,0.754-2.128,1.9-1.938,3.536
		c0.062,0.53-0.146,0.737-0.697,0.728c-0.504-0.01-0.767-0.114-0.744-0.69c0.022-0.561,0.027-1.116,0.177-1.66
		C39.954,55.856,40.917,55.281,42.609,55.387z"/>
	<path fill-rule="evenodd" clip-rule="evenodd" fill="#0081A9" d="M29.241,45.381c0,0.933-0.001,1.865-0.001,2.798
		c-0.458,0.402-0.931,0.356-1.411,0.044c0.001-0.961,0.001-1.924,0.001-2.886C28.301,45.352,28.771,45.367,29.241,45.381z"/>
	<path fill-rule="evenodd" clip-rule="evenodd" fill="#DB9500" d="M16.4,7.87c0.942,0.452,1.886,0.447,2.829,0.004
		c0.015,0.113,0.029,0.225,0.044,0.337c-0.02,0.36-0.04,0.719-0.06,1.079c-0.933,0.474-1.865,0.479-2.798-0.003
		C16.411,8.815,16.406,8.342,16.4,7.87z"/>
	<path fill-rule="evenodd" clip-rule="evenodd" fill="#D2AA82" d="M48.324,56.815c-0.875,0.526-1.708,1.122-1.869,2.212
		c-0.118,0.79-0.656,0.647-1.114,0.59c-0.729-0.091-0.115-0.596-0.22-0.889C45.668,57.285,46.632,56.709,48.324,56.815z"/>
	<path fill-rule="evenodd" clip-rule="evenodd" fill="#0A5078" d="M24.602,19.638c-0.001-1.398-0.012-2.797,0.002-4.195
		c0.017-1.734,1.189-2.927,2.908-2.942c1.994-0.017,3.987-0.018,5.98,0c1.674,0.015,2.855,1.203,2.891,2.871
		c0.011,0.505,0.029,1.014-0.011,1.517c-0.062,0.792-0.65,1.318-1.415,1.318s-1.335-0.527-1.423-1.316
		c-0.171-1.537-0.171-1.537-1.749-1.537c-1.22,0-2.44,0.018-3.659-0.008c-0.493-0.01-0.682,0.143-0.677,0.657
		c0.02,2.439,0.019,4.879,0.001,7.318c-0.003,0.477,0.182,0.614,0.632,0.609c1.606-0.018,3.214-0.025,4.819,0.003
		c0.544,0.009,0.635-0.233,0.639-0.699c0.005-0.499-0.085-0.804-0.678-0.746c-0.384,0.038-0.774,0.025-1.16-0.001
		c-0.844-0.057-1.396-0.644-1.384-1.443c0.011-0.765,0.539-1.362,1.339-1.391c1.129-0.041,2.262-0.041,3.391,0
		c0.797,0.029,1.303,0.577,1.327,1.397c0.031,1.011,0.04,2.024,0,3.034c-0.059,1.465-1.238,2.655-2.707,2.682
		c-2.111,0.04-4.225,0.04-6.337,0.001c-1.517-0.028-2.688-1.234-2.722-2.758C24.577,22.554,24.603,21.096,24.602,19.638z"/>
	<path fill-rule="evenodd" clip-rule="evenodd" fill="#0A5078" d="M39.242,19.596c0-1.368-0.008-2.735,0.002-4.103
		c0.014-1.792,1.177-2.979,2.945-2.993c1.844-0.014,3.688-0.014,5.53,0c1.773,0.013,2.94,1.196,2.948,2.99
		c0.01,2.765,0.01,5.53,0,8.295c-0.007,1.796-1.172,2.98-2.945,2.994c-1.844,0.014-3.688,0.014-5.53,0
		c-1.775-0.014-2.935-1.196-2.948-2.991C39.234,22.391,39.242,20.993,39.242,19.596z"/>
	<path fill-rule="evenodd" clip-rule="evenodd" fill="#0A5078" d="M56.384,17.545c0,1.13,0.013,2.26-0.004,3.39
		c-0.016,0.974-0.59,1.572-1.451,1.556c-0.828-0.015-1.389-0.594-1.395-1.521c-0.017-2.319-0.018-4.639,0-6.958
		c0.007-0.923,0.574-1.501,1.403-1.511c0.862-0.01,1.429,0.587,1.442,1.565C56.396,15.226,56.384,16.386,56.384,17.545z"/>
	<path fill-rule="evenodd" clip-rule="evenodd" fill="#0A5078" d="M62.097,17.464c0.001,1.16,0.015,2.32-0.004,3.479
		c-0.015,0.973-0.595,1.569-1.458,1.548c-0.827-0.019-1.382-0.599-1.388-1.529c-0.016-2.319-0.017-4.639,0.001-6.958
		c0.007-0.92,0.582-1.498,1.412-1.503c0.832-0.005,1.412,0.57,1.431,1.484C62.115,15.145,62.097,16.305,62.097,17.464z"/>
	<path fill-rule="evenodd" clip-rule="evenodd" fill="#0A5078" d="M67.812,17.544c0,1.13,0.013,2.26-0.004,3.39
		c-0.015,0.975-0.589,1.573-1.45,1.557c-0.828-0.014-1.39-0.593-1.396-1.52c-0.017-2.319-0.018-4.639,0-6.958
		c0.007-0.924,0.573-1.501,1.402-1.512c0.862-0.011,1.43,0.586,1.443,1.564C67.824,15.225,67.812,16.385,67.812,17.544z"/>
	<path fill-rule="evenodd" clip-rule="evenodd" fill="#0A5178" d="M66.406,26.778c-0.796,0.012-1.424-0.586-1.447-1.379
		c-0.025-0.832,0.614-1.482,1.445-1.47c0.796,0.012,1.403,0.627,1.403,1.424C67.809,26.147,67.201,26.766,66.406,26.778z"/>
	<path fill-rule="evenodd" clip-rule="evenodd" fill="#0A5178" d="M60.703,23.928c0.796,0.018,1.397,0.64,1.391,1.437
		c-0.006,0.829-0.674,1.456-1.503,1.413c-0.79-0.042-1.375-0.686-1.346-1.481C59.274,24.504,59.907,23.911,60.703,23.928z"/>
	<path fill-rule="evenodd" clip-rule="evenodd" fill="#0A5178" d="M56.38,25.355c-0.001,0.795-0.61,1.412-1.405,1.422
		c-0.83,0.011-1.47-0.641-1.443-1.472c0.024-0.794,0.652-1.391,1.449-1.377C55.776,23.942,56.382,24.559,56.38,25.355z"/>
	<path fill-rule="evenodd" clip-rule="evenodd" fill="#D1A982" d="M29.909,48.238c0.43,0.003,0.858,0.006,1.288,0.009
		c-1.451,0.741-1.996,1.901-1.979,3.546c0.063,6.146,0.026,12.295,0.023,18.441c0,0.779-0.362,1.034-1.117,0.816
		c-0.392-0.113-0.478-0.406-0.44-0.759c0.024-0.232,0.079-0.462,0.12-0.692c0.003-6.136,0.007-12.271,0.012-18.406
		c0.001-0.296,0.021-0.591,0.031-0.887C28.02,49.104,28.71,48.417,29.909,48.238z"/>
	<path fill-rule="evenodd" clip-rule="evenodd" fill="#009FC7" d="M24.944,53.043c-0.024,1.01,0.148,2.029-0.163,3.022
		c-0.024,0.707-0.559,0.902-1.092,0.93c-2.01,0.104-4.024,0.104-6.034,0c-0.533-0.027-1.066-0.223-1.093-0.929
		c-0.31-0.994-0.138-2.014-0.162-3.022c0.276-0.058,0.43,0.158,0.626,0.279c0.987,0.607,1.84,0.188,1.935-0.983
		c0.069-0.857,0.02-1.721,0.023-2.582c0.004-1.099-0.005-2.197,0.004-3.296c0.003-0.382-0.038-0.781,0.266-1.093
		c0.945,0,1.891,0,2.837,0c0.325,0.34,0.263,0.772,0.265,1.182c0.01,1.782,0,3.564,0.007,5.346c0.001,0.416-0.001,0.838,0.238,1.206
		c0.339,0.52,0.971,0.644,1.572,0.321C24.426,53.288,24.599,52.989,24.944,53.043z"/>
	<path fill-rule="evenodd" clip-rule="evenodd" fill="#0082A9" d="M19.254,45.369c-0.004,2.228-0.022,4.456-0.002,6.684
		c0.008,0.804-0.115,1.507-0.973,1.796c-0.843,0.284-1.416-0.153-1.879-0.805c-0.004-1.988-0.013-3.977-0.012-5.965
		c0-1.25,0.47-1.72,1.708-1.727C18.482,45.351,18.868,45.363,19.254,45.369z"/>
	<path fill-rule="evenodd" clip-rule="evenodd" fill="#0082A9" d="M24.944,53.043c-0.463,0.651-1.036,1.09-1.879,0.806
		c-0.857-0.289-0.98-0.991-0.973-1.796c0.021-2.228,0.001-4.456-0.002-6.684c2.745-0.086,2.868,0.031,2.866,2.778
		C24.956,49.779,24.949,51.411,24.944,53.043z"/>
	<path fill-rule="evenodd" clip-rule="evenodd" fill="#00325A" d="M16.562,56.066c0.361,0.555,0.888,0.726,1.528,0.719
		c1.721-0.018,3.441-0.018,5.162,0c0.642,0.007,1.167-0.165,1.528-0.72c0.441,1.232-0.1,2.121-1.343,2.137
		c-1.844,0.022-3.688,0.021-5.532,0C16.664,58.187,16.122,57.299,16.562,56.066z"/>
	<path fill-rule="evenodd" clip-rule="evenodd" fill="#FDFCFB" d="M29.909,48.238c-0.988,0.39-1.681,1.075-2.062,2.068
		c-0.006-0.694-0.012-1.389-0.018-2.083c0.471-0.015,0.94-0.03,1.411-0.045C29.463,48.198,29.687,48.219,29.909,48.238z"/>
	<g>
		<path fill="#009FC7" d="M73.125,70.469c-0.781-0.421-1.371-0.825-1.061-1.871c0.121-0.405,0.073-0.904-0.037-1.324
			c-0.138-0.529,0.07-0.76,0.496-0.965c0.374-0.18,0.729-0.4,1.079-0.625c0.457-0.291,0.717-0.703,0.688-1.477
			c-0.159-0.817-0.834-1.604-1.315-2.479c-0.738-1.345-1.313-1.481-2.669-0.729c-0.444,0.246-0.884,0.514-1.425,0.386
			c-1.551-0.364-2.425-1.435-2.498-3.051c-0.045-0.997-0.565-1.523-1.567-1.549c-0.743-0.02-1.487-0.007-2.231-0.004
			c-1.46,0.004-1.911,0.45-1.91,1.92c0,0.545-0.013,1.07-0.431,1.491c-1.156,1.165-2.379,1.366-3.812,0.623
			c-0.957-0.496-1.612-0.322-2.181,0.611c-0.433,0.71-0.852,1.43-1.248,2.161c-0.5,0.924-0.334,1.702,0.621,2.165
			c1.068,0.519,1.424,1.141,1.421,2.414c-0.003,1.281-0.297,1.97-1.426,2.501c-0.956,0.451-1.114,1.239-0.615,2.165
			c0.338,0.628,0.707,1.238,1.066,1.854c0.774,1.332,1.322,1.481,2.676,0.731c0.443-0.247,0.882-0.516,1.424-0.389
			c1.549,0.362,2.432,1.439,2.501,3.048c0.043,0.998,0.561,1.526,1.562,1.553c0.743,0.021,1.488,0.007,2.231,0.005
			c1.461-0.005,1.912-0.45,1.915-1.918c0.001-0.544,0.009-1.073,0.427-1.494c1.15-1.161,2.385-1.364,3.812-0.625
			c0.953,0.494,1.615,0.317,2.184-0.608c0.373-0.607,0.718-1.232,1.072-1.852C74.623,71.834,74.47,71.192,73.125,70.469z
			 M63.538,73.918c-3.154,0.006-5.727-2.567-5.723-5.722c0.005-3.121,2.541-5.678,5.654-5.7c3.164-0.023,5.753,2.524,5.768,5.677
			C69.252,71.33,66.689,73.914,63.538,73.918z"/>
		<path fill="#F9B300" d="M55.036,56.772c0.742,0.025,1.486,0.008,2.23,0.007c1.527-0.003,1.967-0.431,1.971-1.951
			c0.001-0.546,0.023-1.07,0.451-1.483c1.208-1.167,2.332-1.34,3.815-0.585c0.909,0.464,1.589,0.29,2.131-0.576
			c0.331-0.528,0.625-1.08,0.936-1.621c0.969-1.681,0.861-2.157-0.848-3.1c-0.632-0.348-1.046-0.661-0.811-1.486
			c0.125-0.438,0.103-0.966-0.009-1.415c-0.153-0.614,0.028-0.938,0.582-1.172c0.353-0.149,0.678-0.371,1.001-0.581
			c0.425-0.276,0.675-0.663,0.667-1.158c0.019-0.402-0.119-0.725-0.304-1.038c-0.332-0.563-0.656-1.13-0.984-1.696
			c-0.807-1.394-1.321-1.538-2.731-0.758c-0.444,0.246-0.886,0.502-1.428,0.36c-1.591-0.418-2.376-1.398-2.467-3.075
			c-0.051-0.95-0.564-1.482-1.511-1.514c-0.742-0.025-1.486-0.007-2.23-0.006c-1.528,0.003-1.967,0.43-1.966,1.952
			c0,0.548-0.028,1.069-0.455,1.481c-1.211,1.17-2.327,1.342-3.815,0.584c-0.911-0.465-1.589-0.294-2.127,0.579
			c-0.438,0.708-0.848,1.432-1.249,2.161c-0.53,0.965-0.377,1.773,0.626,2.229c1.13,0.514,1.357,1.213,1.382,2.433
			c0.026,1.292-0.316,1.963-1.443,2.49c-0.944,0.441-1.085,1.24-0.575,2.176c0.327,0.6,0.685,1.183,1.027,1.773
			c0.813,1.4,1.322,1.544,2.73,0.765c0.444-0.246,0.885-0.505,1.427-0.363c1.59,0.417,2.384,1.404,2.469,3.073
			C53.578,56.207,54.089,56.74,55.036,56.772z M50.673,45.341c0.005-3.155,2.582-5.714,5.743-5.701
			c3.115,0.013,5.664,2.561,5.679,5.675c0.015,3.158-2.547,5.742-5.698,5.747C53.241,51.067,50.669,48.496,50.673,45.341z"/>
	</g>
	<path fill-rule="evenodd" clip-rule="evenodd" fill="#009FC7" d="M42.1,19.586c0-1.19,0.019-2.381-0.009-3.571
		c-0.011-0.501,0.157-0.679,0.664-0.67c1.458,0.025,2.917,0.022,4.375,0.001c0.476-0.007,0.697,0.108,0.692,0.642
		c-0.021,2.44-0.018,4.88-0.002,7.32c0.003,0.46-0.151,0.63-0.618,0.624c-1.488-0.021-2.977-0.025-4.464,0.002
		c-0.527,0.01-0.656-0.206-0.646-0.688C42.115,22.026,42.1,20.806,42.1,19.586z"/>
</g>
</svg>
