<?xml version="1.0" encoding="utf-8"?>
<!-- Generator: Adobe Illustrator 16.0.2, SVG Export Plug-In . SVG Version: 6.00 Build 0)  -->
<!DOCTYPE svg PUBLIC "-//W3C//DTD SVG 1.1 Tiny//EN" "http://www.w3.org/Graphics/SVG/1.1/DTD/svg11-tiny.dtd">
<svg version="1.1" baseProfile="tiny" id="Layer_1" xmlns="http://www.w3.org/2000/svg" xmlns:xlink="http://www.w3.org/1999/xlink"
	 x="0px" y="0px" width="85px" height="85px" viewBox="0 0 85 85" xml:space="preserve">
<g>
	<path fill-rule="evenodd" d="M82.499,56.405c-0.336,0.398-0.262,0.912-0.371,1.371c-0.566,2.377-1.656,4.475-3.33,6.251
		C78.446,64.4,78.382,64.597,78.782,65c2.327,2.344,3.463,5.205,3.504,8.493c0.029,2.498,0.012,4.998,0.004,7.496
		c-0.004,1.104-0.414,1.507-1.512,1.507c-10.724,0.002-21.446,0.002-32.171,0c-1.061,0-1.465-0.395-1.468-1.451
		c-0.007-2.629-0.03-5.259,0.014-7.887c0.054-3.218,1.274-5.965,3.547-8.229c0.374-0.373,0.413-0.553,0.036-0.964
		c-2.326-2.531-3.574-5.527-3.586-8.977c-0.025-7.34-0.042-14.681,0.006-22.02c0.031-4.89,2.534-8.458,6.358-11.213
		c8.201-5.907,19.422-4.479,25.922,3.271c1.611,1.922,2.543,4.144,2.904,6.616c0.021,0.139-0.053,0.323,0.158,0.388
		c0,0.313,0,0.625,0,0.937c-0.174,0.892-0.035,1.792-0.08,2.688c0.025,0.785-0.463,1.075-1.141,1.182
		c-0.963-0.204-1.278-0.56-1.32-1.521c-0.045-1.062,0.012-2.121-0.131-3.184c-0.259-1.929-0.932-3.669-2.145-5.185
		c-1.938-2.424-4.318-4.246-7.283-5.254c-6.629-2.188-12.487-0.838-17.505,3.957c-2.115,2.021-3.167,4.58-3.156,7.564
		c0.026,7.366-0.003,14.731,0.016,22.098c0.006,2.588,1.023,4.805,2.695,6.736c0.573,0.661,0.73,0.656,1.447,0.198
		c2.388-1.526,4.249-3.499,5.262-6.193c0.307-0.816,0.283-0.829-0.492-1.256c-4.898-2.698-7.539-6.794-7.627-12.438
		c-0.028-1.796-0.016-3.592,0-5.388c0.011-1.347,0.484-1.791,1.835-1.881c1.767-0.118,3.526-0.31,5.246-0.749
		c2.026-0.519,3.852-1.373,5.299-2.965c1.053-1.157,1.826-1.083,2.846,0.093c1.512,1.741,3.552,2.487,5.707,2.995
		c1.625,0.383,3.283,0.544,4.947,0.632c0.49,0.025,0.926,0.128,1.256,0.519c0.32,0.359,0.344,0.801,0.344,1.247
		c0.004,2.209,0.004,4.419,0,6.628c0,0.656-0.148,1.289-0.284,1.923c-0.61,2.498-1.735,4.734-3.535,6.584
		c-1.146,1.178-2.469,2.146-3.967,2.856c-0.833,0.396-0.823,0.407-0.481,1.284c1.039,2.676,2.889,4.653,5.293,6.156
		c0.885,0.479,0.922,0.464,1.574-0.26c1.941-2.16,2.777-4.74,2.801-7.593c0.034-4.165,0.009-8.331,0.01-12.497
		c0-0.26-0.006-0.521,0.006-0.781c0.056-1.146,0.453-1.521,1.602-1.516c0.619,0.124,0.916,0.499,0.883,1.132
		c0,4.514-0.002,9.026,0.004,13.539c0,0.279-0.076,0.571,0.076,0.839C82.499,55.571,82.499,55.988,82.499,56.405z"/>
	<path fill-rule="evenodd" d="M2.501,67.654c0.155-0.057,0.135-0.198,0.162-0.32C3.041,65.567,4,64.21,5.511,63.219
		c2.499-1.639,4.987-3.293,7.474-4.949c2.19-1.458,3.624-3.458,4.31-6.004c0.163-0.603,0.129-0.912-0.566-1.204
		c-4.06-1.708-6.882-4.655-8.463-8.772c-0.138-0.359-0.261-0.573-0.734-0.611c-2.579-0.206-4.568-2.167-4.719-4.577
		c-0.165-2.633,1.407-4.781,4.003-5.357c0.546-0.121,0.492-0.404,0.49-0.768c-0.015-4.088-0.039-8.175-0.038-12.263
		c0.001-2.995,1.549-5.354,4.116-6.281c2.204-0.797,4.243-0.392,6.127,0.94c0.254,0.18,0.487,0.391,0.724,0.594
		c0.974,0.839,0.952,0.813,1.963-0.003c3.285-2.651,6.883-2.72,10.644-1.21c1.506,0.605,2.849,1.502,4.127,2.486
		c1.774,1.366,3.625,2.61,5.563,3.733c1.914,1.11,2.191,2.759,0.785,4.483c-0.794,0.975-1.692,1.84-2.771,2.495
		c-0.326,0.198-0.456,0.42-0.451,0.809c0.02,1.458,0.01,2.916-0.008,4.374c-0.005,0.364,0.075,0.515,0.483,0.609
		c2.565,0.595,4.153,2.749,3.968,5.306c-0.18,2.485-2.095,4.411-4.662,4.63c-0.437,0.037-0.612,0.172-0.767,0.57
		c-1.654,4.273-4.598,7.299-8.868,8.983c-0.57,0.226-0.501,0.541-0.397,0.946c0.672,2.606,2.139,4.643,4.387,6.124
		c2.43,1.602,4.846,3.227,7.283,4.816c2.116,1.382,3.124,3.329,3.117,5.842c-0.011,3.957-0.001,7.914-0.003,11.871
		c0,1.303-0.364,1.664-1.67,1.664c-12.261,0.001-24.523,0-36.785,0.003c-0.646,0-1.267-0.018-1.524-0.771
		c-0.152-1.884-0.025-3.771-0.067-5.656c-0.029-0.579,0.228-0.952,0.795-1.101c1.222-0.06,1.658,0.33,1.704,1.555
		c0.031,0.807-0.001,1.614,0.013,2.422c0.015,0.867,0.086,0.945,0.933,0.955c1.224,0.014,2.447,0.012,3.671,0.001
		c0.901-0.008,0.987-0.087,0.991-0.983c0.01-2.968,0.002-5.936,0.004-8.904c0-0.364-0.017-0.729,0.044-1.091
		c0.12-0.713,0.654-1.21,1.309-1.23c0.626-0.021,1.169,0.398,1.375,1.066c0.124,0.404,0.106,0.824,0.106,1.24
		c0.002,2.941-0.003,5.884,0.003,8.826c0.002,1.02,0.055,1.076,1.045,1.077c5.337,0.005,10.674,0.004,16.011,0
		c0.997,0,1.039-0.046,1.041-1.073c0.005-2.994,0-5.988,0.003-8.982c0-0.442-0.005-0.888,0.185-1.304
		c0.268-0.586,0.733-0.896,1.365-0.838c0.626,0.057,1.049,0.428,1.208,1.055c0.091,0.356,0.075,0.724,0.075,1.088
		c0.002,2.994-0.003,5.988,0.003,8.982c0.002,1.012,0.06,1.063,1.052,1.073c0.911,0.01,1.822-0.013,2.732,0.013
		c2.169,0.052,1.832,0.175,1.844-1.779c0.018-2.936-0.017-5.871,0.013-8.807c0.019-1.84-0.651-3.261-2.237-4.256
		c-2.333-1.464-4.609-3.013-6.901-4.538c-0.759-0.505-1.498-1.035-2.153-1.668c-0.358-0.346-0.722-0.467-1.197-0.283
		c-0.534,0.205-1.101,0.303-1.652,0.454c-2.839,0.663-5.633,0.439-8.389-0.443c-0.427-0.137-0.793-0.169-1.147,0.181
		c-0.913,0.902-1.993,1.586-3.055,2.292c-2.146,1.427-4.273,2.879-6.438,4.276c-1.288,0.832-1.822,2.016-1.882,3.478
		c-0.025,0.598,0.013,1.197-0.013,1.796c-0.041,0.956-0.344,1.304-1.318,1.552c-0.715-0.076-1.177-0.396-1.144-1.19
		c-0.048-1.005,0.1-2.015-0.081-3.016C2.501,67.862,2.501,67.758,2.501,67.654z"/>
	<path fill-rule="evenodd" d="M52.656,2.5c2.141,0.532,3.732,1.729,4.582,3.81c0.896,2.195,0.407,4.232-0.749,6.174
		c-1.113,1.868-2.708,3.283-4.427,4.566c-1.25,0.934-2.529,1.829-3.787,2.751c-0.521,0.381-1.027,0.443-1.581,0.067
		c-2.524-1.712-4.977-3.511-7.055-5.766c-1.374-1.489-2.358-3.185-2.447-5.259c-0.123-2.854,1.703-5.347,4.437-6.164
		c0.141-0.043,0.322,0.002,0.402-0.179c0.625,0,1.25,0,1.875,0c1.209,0.087,2.24,0.588,3.124,1.39
		c0.323,0.292,0.573,0.273,0.868-0.007c0.852-0.811,1.865-1.274,3.039-1.383C51.51,2.5,52.084,2.5,52.656,2.5z"/>
	<path fill-rule="evenodd" fill="#464646" d="M82.368,40.59c0.054-0.027,0.098-0.016,0.131,0.034c0,4.844,0,9.688,0,14.531
		c-0.17-0.091-0.156-0.254-0.155-0.407C82.351,50.028,82.359,45.31,82.368,40.59z"/>
	<path fill-rule="evenodd" fill="#474747" d="M2.501,75.936l0.054-0.057l0.075,0.02c0.006,1.943,0.013,3.887,0.019,5.83
		C2.6,81.725,2.55,81.721,2.501,81.717C2.501,79.789,2.501,77.862,2.501,75.936z"/>
	<path fill-rule="evenodd" fill="#474747" d="M2.625,71.134c-0.041-0.014-0.083-0.028-0.124-0.042c0-1.042,0-2.084,0-3.125
		C2.83,69.011,2.601,70.077,2.625,71.134z"/>
	<path fill-rule="evenodd" fill="#484848" d="M82.499,35.78c-0.042,0.013-0.084,0.026-0.126,0.04
		c0.028-0.952-0.202-1.915,0.126-2.853C82.499,33.905,82.499,34.843,82.499,35.78z"/>
	<path fill-rule="evenodd" fill="#5A5A5A" d="M77.979,35.611c-0.926-0.556-1.977-0.313-2.965-0.435
		c-2.494-0.306-4.936-0.739-7.132-2.053c-0.79-0.473-1.448-1.089-2.024-1.81c-0.598-0.747-1.412-0.825-1.993-0.112
		c-2.043,2.506-4.887,3.321-7.89,3.782c-1.152,0.178-2.325,0.225-3.489,0.322c-0.746,0.063-1.236,0.448-1.228,1.147
		c0.033,2.652-0.233,5.322,0.152,7.953c0.701,4.781,3.352,8.202,7.666,10.316c0.626,0.307,0.618,0.577,0.421,1.117
		c-1.122,3.081-3.251,5.277-6.004,6.943c-0.292,0.177-0.486,0.178-0.739-0.079c-1.895-1.928-3.162-4.225-3.195-6.922
		c-0.095-7.837-0.105-15.676,0.003-23.511c0.041-3.01,1.604-5.448,3.832-7.42c3.444-3.048,7.477-4.544,12.083-4.362
		c1.713,0.067,3.408,0.336,4.994,1.063c4.184,2.22,7.05,5.438,7.776,10.274c0.163,1.087,0.071,2.182,0.062,3.275
		C78.308,35.308,78.335,35.602,77.979,35.611z"/>
	<path fill-rule="evenodd" fill="#FD76A7" d="M75.646,67.845c-0.667,1.516-1.467,2.972-1.895,4.593
		c-0.6,2.277-0.479,4.594-0.461,6.903c0.005,0.609-0.087,0.836-0.779,0.832c-5.203-0.034-10.403-0.032-15.606-0.003
		c-0.664,0.004-0.801-0.19-0.798-0.824c0.014-2.334,0.155-4.677-0.475-6.977c-0.548-2-1.542-3.793-2.489-5.608
		c-0.273-0.523-0.214-0.825,0.274-1.12c0.489-0.295,0.945-0.643,1.426-0.951c1.447-0.931,2.845-1.92,3.98-3.239
		c0.36,0.193,0.499,0.552,0.731,0.822c2.57,2.991,6.661,3.279,9.64,0.67c0.057-0.05,0.127-0.085,0.191-0.127
		c0.074-0.028,0.162-0.047,0.223-0.002c1.874,1.374,3.962,2.455,5.628,4.111C75.483,67.171,75.817,67.401,75.646,67.845z"/>
	<path fill-rule="evenodd" fill="#FDD1A3" d="M68.122,53.113c-4.123,1.599-9.563-0.157-12.353-3.985
		c-1.42-1.949-2.17-4.117-2.166-6.539c0.002-1.405,0.025-2.812-0.037-4.214c-0.027-0.651,0.184-0.833,0.809-0.87
		c2.268-0.132,4.481-0.557,6.6-1.401c1.266-0.505,2.438-1.161,3.435-2.104c0.217-0.205,0.37-0.375,0.692-0.075
		c2.356,2.189,5.308,2.946,8.372,3.417c0.202,0.031,0.4,0.082,0.602,0.124c0.15,0.195,0.201,0.421,0.195,0.661
		c-0.053,2.079,0.164,4.166-0.156,6.237c-0.478,3.086-1.959,5.619-4.268,7.691C69.337,52.512,68.704,52.772,68.122,53.113z"/>
	<path fill-rule="evenodd" fill="#444444" d="M77.979,35.611c0.319-1.114,0.205-2.265,0.109-3.375
		c-0.193-2.282-1.018-4.366-2.443-6.185c-1.289-1.645-2.852-2.981-4.633-4.07c-0.194-0.119-0.361-0.285-0.541-0.429
		c1.842,0.495,3.413,1.5,4.857,2.693c2.033,1.681,3.692,3.645,4.394,6.274c0.393,1.471,0.488,2.967,0.409,4.472
		c-0.049,0.909,0.238,1.513,1.148,1.75c0.006,0.79,0.016,1.578,0.012,2.367c-0.002,0.286-0.02,0.563,0.285,0.722
		c-1.171,0.003-1.432,0.27-1.433,1.484c-0.002,4.161-0.031,8.322,0.009,12.483c0.031,3.242-0.783,6.147-3.026,8.58
		c-0.716,0.775-0.702,0.809-1.817-0.036c1.334-1.752,2.162-3.717,2.496-5.894c0.066-0.439,0.09-0.879,0.09-1.321
		c0-2.522,0.017-5.046-0.012-7.568c-0.008-0.647,0.165-1.279,0.098-1.926c0.586-3.039,0.194-6.112,0.321-9.168
		C78.317,36.122,78.138,35.877,77.979,35.611z"/>
	<path fill-rule="evenodd" fill="#5A5A5A" d="M77.981,45.634c0.244,0.235,0.138,0.539,0.139,0.812
		c0.008,2.88,0.01,5.759,0.003,8.639c-0.007,2.51-0.843,4.757-2.208,6.83c-0.146,0.223-0.307,0.423-0.605,0.429
		c-2.672-1.595-4.469-3.892-5.516-6.812c-0.173-0.481,0.121-0.516,0.398-0.641c3.127-1.413,5.445-3.653,6.91-6.765
		C77.479,47.325,77.726,46.478,77.981,45.634z"/>
	<path fill-rule="evenodd" fill="#FDD1A3" d="M51.11,68.103c2.149,3.162,2.909,6.635,2.687,10.382
		c-0.099,1.665-0.016,1.67-1.711,1.67c-0.676,0-1.352-0.02-2.025,0.007c-0.404,0.016-0.598-0.056-0.591-0.534
		c0.036-2.338-0.013-4.678,0.066-7.014C49.593,70.958,50.174,69.443,51.11,68.103z"/>
	<path fill-rule="evenodd" fill="#FDD1A3" d="M67.673,61.124c-2.172,2.21-6.251,1.278-7.157-1.626
		c-0.088-0.28,0.049-0.449,0.156-0.641c0.457-0.814,0.865-1.654,1.107-2.554c0.135-0.497,0.374-0.604,0.829-0.492
		c0.324,0.08,0.662,0.108,0.994,0.16c0.099,0.041,0.201,0.043,0.306,0.045c1.483,0.032,1.474,0.037,2.025,1.371
		c0.427,1.031,0.897,2.042,1.539,2.964C67.633,60.582,67.844,60.806,67.673,61.124z"/>
	<path fill-rule="evenodd" fill="#FEBC85" d="M68.122,53.113c0.705-0.683,1.588-1.139,2.274-1.857
		c2.38-2.491,3.646-5.426,3.664-8.882c0.009-1.637,0.01-3.272,0.015-4.909c1.938,0.078,1.967,0.079,1.91,1.978
		c-0.059,1.969,0.208,3.969-0.369,5.897C74.459,49.212,72.042,51.894,68.122,53.113z"/>
	<path fill-rule="evenodd" fill="#FDBC85" d="M77.198,70.153c0.321-0.677,0.643-1.354,1.018-2.144c0.955,1.313,1.47,2.698,1.621,4.2
		c0.252,2.488,0.058,4.989,0.121,7.483c0.01,0.402-0.163,0.483-0.511,0.465c-0.492-0.025-0.986-0.021-1.479-0.029
		c-0.28-0.297-0.234-0.673-0.235-1.03c-0.009-1.604-0.06-3.211,0.013-4.813C77.81,72.864,77.513,71.513,77.198,70.153z"/>
	<path fill-rule="evenodd" fill="#FDD1A3" d="M77.198,70.153c0.566,0.79,0.746,1.709,0.758,2.641
		c0.035,2.444,0.012,4.89,0.012,7.335c-0.75-0.003-1.724,0.278-2.189-0.087c-0.495-0.388-0.122-1.406-0.155-2.148
		c-0.115-2.575,0.152-5.083,1.373-7.412C77.056,70.368,77.13,70.263,77.198,70.153z"/>
	<path fill-rule="evenodd" fill="#FD5693" d="M75.646,67.845c-0.25-0.728-0.869-1.135-1.42-1.583
		c-1.16-0.943-2.432-1.731-3.674-2.56c-0.406-0.27-0.778-0.59-1.166-0.887c0.377-0.457,0.754-0.915,1.166-1.416
		c1.504,1.817,3.514,2.942,5.41,4.206c0.516,0.344,0.656,0.639,0.287,1.162C76.014,67.103,75.845,67.483,75.646,67.845z"/>
	<path fill-rule="evenodd" fill="#FEBC85" d="M67.673,61.124c-0.451-0.836-1.035-1.597-1.404-2.48
		c-0.259-0.62-0.587-1.216-0.784-1.854c-0.166-0.536-0.417-0.762-0.983-0.701c-0.293,0.031-0.624,0.104-0.898-0.117
		c1.143-0.003,2.29,0.09,3.418-0.162c0.326-0.072,0.459,0.046,0.551,0.353c0.293,0.973,0.703,1.898,1.213,2.775
		c0.149,0.256,0.168,0.465,0.016,0.72C68.479,60.191,68.191,60.745,67.673,61.124z"/>
	<path fill-rule="evenodd" fill="#A5E6EF" d="M3.311,75.128c0.322-0.161,0.465-0.388,0.445-0.781
		c-0.04-0.769-0.009-1.541-0.008-2.313c0.839-0.204,1.178-0.729,1.138-1.595c-0.038-0.802-0.026-1.613,0.058-2.411
		c0.127-1.206,0.77-2.13,1.775-2.797c2.313-1.535,4.627-3.069,6.946-4.595c1-0.657,1.974-1.347,2.802-2.22
		c0.187-0.196,0.333-0.331,0.659-0.206c2.867,1.098,5.812,1.243,8.809,0.675c0.376-0.146,0.658,0.014,0.891,0.29
		c0.578,0.684,1.299,1.191,2.036,1.68c2.557,1.69,5.073,3.444,7.67,5.073c1.509,0.947,2.052,2.405,2.094,4.043
		c0.08,3.142,0.027,6.287,0.021,9.431c0,0.261-0.007,0.524-0.216,0.725c-1.197,0.009-2.396-0.013-3.591,0.04
		c-0.555,0.025-0.622-0.198-0.619-0.67c0.018-3.229,0.009-6.457,0.009-9.687c0-0.183,0.003-0.364,0-0.547
		c-0.017-0.859-0.442-1.375-1.144-1.389c-0.72-0.014-1.188,0.533-1.196,1.428c-0.009,1.119-0.002,2.239-0.002,3.358
		c0,2.266-0.015,4.531,0.011,6.797c0.006,0.507-0.066,0.713-0.654,0.711c-5.781-0.024-11.562-0.021-17.343-0.003
		c-0.51,0.001-0.646-0.132-0.642-0.642c0.023-3.308,0.013-6.614,0.011-9.922c0-0.26,0.026-0.53-0.034-0.777
		c-0.146-0.6-0.553-0.964-1.175-0.938c-0.649,0.028-1.055,0.402-1.124,1.075c-0.021,0.206-0.009,0.416-0.009,0.624
		c0,3.308-0.01,6.614,0.01,9.922c0.003,0.488-0.095,0.671-0.63,0.658c-1.613-0.037-3.229-0.032-4.843-0.002
		c-0.488,0.01-0.623-0.133-0.604-0.613c0.038-0.988,0.016-1.979,0.01-2.968C4.866,75.405,4.473,75.043,3.311,75.128z"/>
	<path fill-rule="evenodd" fill="#FDD1A3" d="M26.731,49.257c-4.469,1.765-10.352,0.207-13.779-3.654
		c-2.233-2.517-3.333-5.47-3.343-8.829c-0.009-2.783,0.006-5.566-0.013-8.348c-0.003-0.447,0.088-0.613,0.579-0.663
		c3.01-0.308,5.872-1.077,8.349-2.913c0.378-0.28,0.625-0.063,0.911,0.084c2.771,1.423,5.68,2.4,8.778,2.806
		c1.79,0.234,3.578,0.2,5.369,0.062c0.397,0.005,0.37,0.333,0.366,0.561c-0.054,3.632,0.342,7.287-0.196,10.891
		c-0.555,3.718-2.453,6.743-5.423,9.077C27.838,48.715,27.247,48.919,26.731,49.257z"/>
	<path fill-rule="evenodd" fill="#5A5A5A" d="M36.105,24.555c-1.751,0.96-3.673,1.104-5.596,1.027
		c-3.334-0.132-6.524-0.918-9.509-2.446c-0.485-0.248-0.971-0.506-1.42-0.813c-0.634-0.434-1.201-0.396-1.769,0.104
		c-2.208,1.94-4.906,2.627-7.722,3.01c-0.379,0.052-0.528-0.124-0.52-0.482c0.053-2.34-0.14-4.685,0.103-7.019
		c0.161-1.548,0.971-2.674,2.424-3.268c1.453-0.593,2.805-0.296,4.041,0.61c0.376,0.275,0.716,0.602,1.073,0.904
		c1.32,1.12,2.889,1.084,4.144-0.113c1.193-1.138,2.582-1.816,4.25-1.868c0.787-0.222,1.477,0.096,2.164,0.401
		c1.149,0.511,2.188,1.214,3.184,1.965c1.831,1.381,3.696,2.701,5.692,3.839c1.162,0.662,1.531,1.624,0.985,2.508
		c-0.352,0.569-0.751,1.129-1.345,1.495C36.217,24.452,36.152,24.492,36.105,24.555z"/>
	<path fill-rule="evenodd" fill="#6BD8E6" d="M38.431,80.127c0.001-3.281,0.025-6.563-0.005-9.844
		c-0.018-1.893-0.682-3.362-2.426-4.457c-2.944-1.847-5.861-3.749-8.668-5.81c-0.487-0.358-0.617-1.153-1.396-1.131
		c0.714-0.228,1.43-0.447,2.139-0.688c0.194-0.065,0.334-0.071,0.489,0.082c2.373,2.346,5.373,3.813,8.048,5.734
		c0.548,0.394,1.12,0.755,1.689,1.119c1.341,0.855,1.983,2.091,1.986,3.664c0.006,3.563-0.011,7.128,0.016,10.692
		c0.004,0.563-0.17,0.732-0.702,0.672C39.213,80.117,38.82,80.136,38.431,80.127z"/>
	<path fill-rule="evenodd" fill="#FEBC85" d="M26.731,49.257c1.1-0.899,2.295-1.677,3.258-2.748
		c1.981-2.206,3.264-4.743,3.594-7.691c0.396-3.524,0.078-7.067,0.164-10.601c0.004-0.161-0.027-0.311-0.166-0.416
		c0.603-0.145,1.206-0.285,1.807-0.434c0.458-0.113,0.368,0.216,0.369,0.456c0,1.247-0.001,2.493-0.012,3.74
		c-0.019,2.103-0.026,4.207-0.073,6.31C35.563,42.814,31.341,48.177,26.731,49.257z"/>
	<path fill-rule="evenodd" fill="#FDD1A3" d="M24.539,56.69c-1.961,0.364-3.877,0.149-5.782-0.394
		c-0.481-0.138-0.5-0.287-0.276-0.677c0.559-0.976,0.917-2.035,1.158-3.129c0.073-0.332,0.141-0.513,0.54-0.426
		c1.073,0.233,2.169,0.216,3.26,0.258c0.239,0.112,0.313,0.33,0.358,0.564c0.211,1.068,0.567,2.092,0.975,3.1
		C24.892,56.283,25.024,56.592,24.539,56.69z"/>
	<path fill-rule="evenodd" fill="#444444" d="M36.105,24.555c0.354-0.442,0.694-0.896,1.063-1.325
		c0.791-0.922,0.702-1.829-0.355-2.47c-1.927-1.167-3.827-2.368-5.609-3.75c-1.148-0.891-2.364-1.675-3.671-2.324
		c-0.619-0.308-1.232-0.531-1.928-0.484c1.324-0.303,2.567,0.085,3.786,0.503c1.77,0.606,3.267,1.701,4.729,2.831
		c1.65,1.274,3.395,2.402,5.202,3.435c0.561,0.319,0.646,0.574,0.167,1.045C38.471,23.013,37.549,24.129,36.105,24.555z"/>
	<path fill-rule="evenodd" fill="#FDBC85" d="M24.539,56.69c0.063-0.121,0.284-0.163,0.18-0.369
		c-0.636-1.266-0.948-2.635-1.28-3.998c0.561-0.077,1.124-0.141,1.681-0.238c0.307-0.055,0.331,0.121,0.38,0.34
		c0.264,1.162,0.653,2.281,1.241,3.322c0.188,0.333,0.088,0.437-0.244,0.523C25.85,56.439,25.211,56.641,24.539,56.69z"/>
	<path fill-rule="evenodd" fill="#F4A86B" d="M7.39,36.691c0,0.727-0.041,1.457,0.015,2.18c0.035,0.453-0.162,0.405-0.446,0.331
		c-1.004-0.266-1.815-1.408-1.813-2.556c0.002-1.125,0.79-2.237,1.76-2.521c0.312-0.091,0.424-0.025,0.418,0.307
		c-0.013,0.753-0.004,1.507-0.004,2.26C7.343,36.691,7.367,36.691,7.39,36.691z"/>
	<path fill-rule="evenodd" fill="#F4A86B" d="M38.077,36.682c0-0.725,0.012-1.449-0.004-2.174c-0.009-0.407,0.108-0.491,0.498-0.333
		c0.962,0.39,1.643,1.4,1.642,2.509c-0.001,1.079-0.708,2.114-1.688,2.479c-0.379,0.142-0.62,0.185-0.569-0.389
		c0.061-0.692,0.015-1.395,0.015-2.093C38.006,36.682,38.042,36.682,38.077,36.682z"/>
	<path fill-rule="evenodd" fill="#FD76A7" d="M46.109,16.561c-1.813-1.232-3.474-2.642-4.945-4.266
		c-0.761-0.84-1.308-1.807-1.561-2.925c-0.334-1.478,0.357-3.133,1.671-3.996c1.166-0.767,2.64-0.698,3.788,0.183
		c0.596,0.457,0.998,1.055,1.189,1.781c0.163,0.624,0.529,1.045,1.184,1.043c0.65-0.002,0.99-0.417,1.187-1.039
		c0.576-1.82,2.218-2.801,3.887-2.373c1.22,1.569,1.185,3.257,0.456,4.999c-0.9,2.159-2.525,3.715-4.32,5.122
		c-0.572,0.448-1.145,0.898-1.762,1.285C46.652,16.52,46.426,16.747,46.109,16.561z"/>
	<path fill-rule="evenodd" fill="#FD5693" d="M46.109,16.561c2.85-1.721,5.432-3.72,6.773-6.901c0.553-1.308,0.588-2.664-0.109-3.97
		c-0.121-0.227-0.275-0.445-0.264-0.722c1.946,0.371,3.246,2.522,2.729,4.54c-0.409,1.595-1.394,2.829-2.54,3.947
		c-1.516,1.477-3.303,2.604-4.992,3.858c-0.221,0.164-0.396,0.184-0.615,0.001C46.774,17.051,46.438,16.811,46.109,16.561z"/>
	<path fill-rule="evenodd" fill="#010101" d="M58.575,41.834c-0.001-0.312-0.013-0.624,0.002-0.935
		c0.032-0.675,0.409-1.068,1.063-1.121c0.662-0.053,1.146,0.307,1.221,0.948c0.088,0.768,0.088,1.56,0.004,2.329
		c-0.068,0.639-0.544,1.021-1.201,0.976c-0.643-0.045-1.047-0.431-1.084-1.107C58.559,42.562,58.576,42.197,58.575,41.834z"/>
	<path fill-rule="evenodd" fill="#010101" d="M71.003,41.94c0,0.362,0.043,0.731-0.01,1.086c-0.098,0.654-0.525,1.03-1.178,1.005
		c-0.646-0.024-1.068-0.41-1.104-1.081c-0.035-0.698-0.033-1.401,0-2.1c0.032-0.675,0.451-1.052,1.104-1.074
		c0.655-0.023,1.088,0.339,1.178,1C71.046,41.157,71.003,41.552,71.003,41.94z"/>
	<path fill-rule="evenodd" fill="#010100" d="M29.674,34.654c0,0.389,0.027,0.779-0.006,1.164c-0.059,0.667-0.547,1.105-1.176,1.101
		c-0.637-0.006-1.118-0.446-1.144-1.121c-0.031-0.775-0.033-1.554,0.001-2.329c0.03-0.664,0.443-1.033,1.087-1.104
		c0.604-0.067,1.153,0.401,1.224,1.048c0.045,0.409,0.009,0.827,0.009,1.241C29.671,34.654,29.672,34.654,29.674,34.654z"/>
	<path fill-rule="evenodd" fill="#010101" d="M17.998,34.671c0,0.416,0.034,0.836-0.008,1.247c-0.06,0.597-0.43,0.938-1.023,0.988
		c-0.626,0.052-1.104-0.229-1.213-0.853c-0.161-0.923-0.153-1.869-0.005-2.794c0.1-0.622,0.577-0.936,1.191-0.888
		c0.608,0.046,1.008,0.413,1.058,1.05c0.032,0.414,0.006,0.833,0.006,1.249C18.002,34.671,18,34.671,17.998,34.671z"/>
</g>
</svg>
