<?xml version="1.0" encoding="utf-8"?>
<!-- Generator: Adobe Illustrator 16.0.0, SVG Export Plug-In . SVG Version: 6.00 Build 0)  -->
<!DOCTYPE svg PUBLIC "-//W3C//DTD SVG 1.1//EN" "http://www.w3.org/Graphics/SVG/1.1/DTD/svg11.dtd">
<svg version="1.1" id="Layer_1" xmlns="http://www.w3.org/2000/svg" xmlns:xlink="http://www.w3.org/1999/xlink" x="0px" y="0px"
	 width="85px" height="85px" viewBox="0 0 85 85" enable-background="new 0 0 85 85" xml:space="preserve">
<g>
	<g>
		<path fill="#FFEE58" d="M32.836,40.396c0.438,0.125,0.876,0.188,1.563,0.188c2.69,0,2.69-1.252,5.318-1.252
			c2.689,0,2.689,1.189,5.316,1.189c2.379,0,2.629-1.252,4.568-1.252h0.061v40.039c0,0.812-0.375,1.877-1,1.877H25.579
			c-0.563,0-0.875-1.062-0.875-1.877V40.457c1.751-0.25,2.063-1.188,4.379-1.188C31.084,39.395,31.585,40.084,32.836,40.396z
			 M45.911,53.096L45.911,53.096C45.849,53.096,45.849,53.096,45.911,53.096L45.911,53.096z M45.284,44.338L45.284,44.338
			C45.224,44.338,45.224,44.338,45.284,44.338L45.284,44.338z M42.783,50.594L42.783,50.594L42.783,50.594L42.783,50.594z
			 M39.029,49.969L39.029,49.969L39.029,49.969L39.029,49.969z M35.902,65.607L35.902,65.607L35.902,65.607L35.902,65.607z
			 M30.271,51.219L30.271,51.219C30.209,51.219,30.209,51.219,30.271,51.219L30.271,51.219z M28.394,59.352L28.394,59.352
			L28.394,59.352L28.394,59.352z M28.394,44.338L28.394,44.338L28.394,44.338L28.394,44.338z"/>
		<path fill="#FFEE58" d="M49.665,13.682c-5.881,0-10.636,4.631-10.636,10.512c0,0.062,0,0.125,0,0.125
			c0.062,1.877,0.439,3.189,1.127,4.566l2.252-1.062c-0.5-1.002-0.812-2.252-0.877-3.504c0.062,1.252,0.314,2.377,0.877,3.379
			l6.755-3.379l0.502-0.125l-0.062,0.375l-2.754,7.383l-0.875,2.314c1.188,0.438,2.377,0.688,3.691,0.688h0.061
			c5.818,0,10.574-4.754,10.574-10.635S55.546,13.682,49.665,13.682z"/>
	</g>
	<path d="M45.099,41.211c-1.502,0-2.251-0.375-2.941-0.689c-0.625-0.311-1.188-0.562-2.439-0.562c-1.188,0-1.752,0.25-2.439,0.562
		c-0.688,0.314-1.439,0.689-2.94,0.689c-0.625,0-1.188-0.062-1.752-0.189c-0.5-0.125-0.875-0.311-1.188-0.438
		c-0.625-0.312-1.188-0.562-2.377-0.562c-1.188,0-1.75,0.25-2.377,0.562c-0.5,0.25-1.062,0.5-1.875,0.625
		c-0.313,0.062-0.688-0.188-0.688-0.5c-0.062-0.312,0.188-0.688,0.5-0.688c0.626-0.125,1.063-0.312,1.501-0.5
		c0.688-0.312,1.439-0.688,2.939-0.688c1.502,0,2.252,0.375,2.94,0.688c0.313,0.125,0.625,0.312,1.001,0.375
		c0.438,0.125,0.876,0.188,1.376,0.188c1.188,0,1.751-0.25,2.44-0.562c0.688-0.312,1.439-0.688,2.939-0.688
		c1.502,0,2.252,0.375,2.939,0.688c0.625,0.312,1.189,0.562,2.439,0.562c1.188,0,1.752-0.25,2.439-0.562
		c0.562-0.25,1.127-0.5,2.064-0.625c0.375-0.062,0.625,0.188,0.688,0.562c0.064,0.312-0.188,0.627-0.561,0.688
		c-0.752,0.062-1.189,0.312-1.689,0.5C47.351,40.896,46.536,41.211,45.099,41.211z"/>
	<path d="M47.161,82.5H27.142c-0.5,0-1.312-0.062-1.938-0.688c-0.688-0.688-1.126-1.502-1.126-2.441V24.318
		c0-0.375,0.25-0.627,0.626-0.627h14.14c0.375,0,0.625,0.25,0.625,0.627c0,0.375-0.25,0.625-0.625,0.625l0,0H25.33v54.428
		c0,0.562,0.25,1.062,0.688,1.502c0.25,0.25,0.563,0.312,1.063,0.312h20.02c0.562,0,0.875-0.125,1.125-0.312
		c0.502-0.438,0.812-0.938,0.812-1.502V34.953c0-0.375,0.25-0.625,0.627-0.625c0.375,0,0.625,0.25,0.625,0.625v44.418
		c0,0.938-0.438,1.752-1.188,2.439C48.663,82.312,47.976,82.5,47.161,82.5z"/>
	<path d="M49.728,35.578h-0.061c-1.314,0-2.629-0.25-3.941-0.75c-0.312-0.125-0.502-0.5-0.375-0.812l3.127-8.445l-8.07,4.066
		c-0.312,0.125-0.688,0-0.812-0.25c-0.75-1.5-1.127-3.127-1.188-4.754c0-0.062,0-0.189,0-0.25c0-6.193,5.067-11.262,11.26-11.262
		s11.262,5.068,11.262,11.262C60.927,30.512,55.858,35.578,49.728,35.578z M46.786,33.891c0.939,0.312,1.939,0.438,2.879,0.438
		h0.062c5.504,0,9.947-4.504,9.947-10.01s-4.506-10.01-10.012-10.01s-10.009,4.504-10.009,10.01c0,0.062,0,0.125,0,0.188
		c0,1.314,0.312,2.502,0.814,3.691l8.882-4.441c0.25-0.125,0.5-0.062,0.688,0.062c0.189,0.188,0.25,0.438,0.189,0.688l-0.062,0.25
		L46.786,33.891z"/>
	<path d="M49.665,33.076c-1.062,0-2.064-0.188-3.064-0.562c-0.314-0.125-0.502-0.5-0.377-0.814c0.127-0.312,0.502-0.5,0.812-0.375
		c0.814,0.314,1.689,0.5,2.629,0.5c4.129,0,7.508-3.377,7.508-7.506s-3.379-7.508-7.508-7.508c-0.377,0-0.627-0.25-0.627-0.625
		s0.25-0.625,0.627-0.625c4.816,0,8.76,3.941,8.76,8.758S54.483,33.076,49.665,33.076z"/>
	<path d="M42.408,28.572c-0.25,0-0.438-0.125-0.562-0.375c-0.562-1.127-0.875-2.377-0.938-3.629c0-0.062,0-0.188,0-0.25
		c0-3.004,1.5-5.756,4.066-7.383c0.311-0.188,0.688-0.125,0.875,0.188c0.188,0.314,0.125,0.689-0.188,0.877
		c-2.189,1.377-3.441,3.754-3.441,6.318c0,0.062,0,0.125,0,0.189c0.062,1.125,0.312,2.189,0.812,3.127
		c0.125,0.312,0,0.688-0.25,0.812C42.595,28.572,42.47,28.572,42.408,28.572z"/>
	<path d="M32.836,79.371c-0.375,0-0.625-0.25-0.625-0.625V14.309c0-0.375,0.25-0.625,0.625-0.625s0.625,0.25,0.625,0.625v64.438
		C33.462,79.121,33.212,79.371,32.836,79.371z"/>
	<path d="M32.775,14.996c-0.188,0-0.375-0.062-0.5-0.25c-0.188-0.25-0.125-0.688,0.125-0.875L47.978,2.609
		c0.25-0.188,0.688-0.125,0.875,0.125c0.189,0.25,0.125,0.689-0.125,0.877L33.15,14.871C33.025,14.996,32.9,14.996,32.775,14.996z"
		/>
	<path d="M41.47,59.352c-0.375,0-0.625-0.25-0.625-0.625c0-0.25,0.125-0.5,0.375-0.562c0.061-0.062,0.188-0.062,0.25-0.062
		c0.375,0,0.625,0.25,0.625,0.625l0,0C42.095,59.102,41.845,59.352,41.47,59.352z"/>
	<path d="M37.154,54.973L37.154,54.973c-0.375,0-0.627-0.25-0.627-0.625s0.25-0.625,0.627-0.625c0.25,0,0.5,0.188,0.562,0.375
		c0.062,0.061,0.062,0.188,0.062,0.25C37.779,54.723,37.466,54.973,37.154,54.973z"/>
	<path d="M42.783,51.219c-0.375,0-0.625-0.25-0.625-0.625s0.25-0.625,0.625-0.625l0,0c0.375,0,0.626,0.25,0.626,0.625
		S43.157,51.219,42.783,51.219z"/>
	<path d="M37.216,47.092c-0.188,0-0.312-0.062-0.438-0.189c-0.125-0.125-0.188-0.312-0.188-0.438c0-0.188,0.062-0.312,0.188-0.438
		c0.25-0.25,0.625-0.25,0.876,0c0.125,0.125,0.188,0.25,0.188,0.438s-0.062,0.312-0.188,0.438S37.404,47.092,37.216,47.092z"/>
	<path d="M28.394,44.965c-0.375,0-0.625-0.252-0.625-0.627s0.25-0.625,0.625-0.625l0,0c0.375,0,0.625,0.25,0.625,0.625
		S28.708,44.965,28.394,44.965z"/>
	<path d="M30.271,51.846c-0.375,0-0.625-0.314-0.625-0.627s0.25-0.625,0.625-0.625l0,0c0.375,0,0.625,0.25,0.625,0.625
		S30.584,51.846,30.271,51.846z"/>
	<path d="M39.029,50.594c-0.061,0-0.188,0-0.25-0.062c-0.249-0.125-0.374-0.311-0.374-0.561c0-0.377,0.249-0.627,0.624-0.627l0,0
		c0.25,0,0.5,0.125,0.564,0.375c0.062,0.252,0.062,0.502-0.125,0.688C39.343,50.531,39.156,50.594,39.029,50.594z"/>
	<path d="M45.284,44.965c-0.375,0-0.625-0.314-0.625-0.627s0.25-0.625,0.625-0.625l0,0c0.377,0,0.627,0.25,0.627,0.625
		S45.599,44.965,45.284,44.965z"/>
	<path d="M45.911,53.723c-0.375,0-0.627-0.314-0.627-0.627s0.252-0.625,0.627-0.625l0,0c0.375,0,0.625,0.25,0.625,0.625
		S46.224,53.723,45.911,53.723z"/>
	<path d="M35.902,66.234c-0.062,0-0.125,0-0.25-0.062c-0.25-0.125-0.375-0.312-0.375-0.562c0-0.375,0.25-0.625,0.625-0.625l0,0
		c0.25,0,0.5,0.125,0.563,0.375c0.125,0.25,0.062,0.5-0.125,0.688C36.215,66.172,36.027,66.234,35.902,66.234z"/>
	<path d="M28.394,59.979c-0.062,0-0.125,0-0.188,0c-0.25-0.062-0.438-0.314-0.438-0.627c0-0.375,0.25-0.625,0.625-0.625l0,0
		c0.375,0,0.625,0.25,0.625,0.625c0,0.188-0.125,0.377-0.25,0.502C28.644,59.916,28.519,59.979,28.394,59.979z"/>
</g>
</svg>
