<?xml version="1.0" encoding="utf-8"?>
<!-- Generator: Adobe Illustrator 16.0.2, SVG Export Plug-In . SVG Version: 6.00 Build 0)  -->
<!DOCTYPE svg PUBLIC "-//W3C//DTD SVG 1.1//EN" "http://www.w3.org/Graphics/SVG/1.1/DTD/svg11.dtd">
<svg version="1.1" id="Layer_1" xmlns="http://www.w3.org/2000/svg" xmlns:xlink="http://www.w3.org/1999/xlink" x="0px" y="0px"
	 width="85px" height="85px" viewBox="0 0 85 85" enable-background="new 0 0 85 85" xml:space="preserve">
<g>
	<path d="M82.5,43.597c-0.492,2.15-1.953,3.648-3.414,5.174c-8.752,9.139-17.484,18.297-26.217,27.457
		c-1.445,1.514-3.174,2.293-5.275,2.27c-2.059-0.021-4.113-0.004-6.172-0.006c-2.979-0.002-5.191-1.322-6.357-4.055
		s-0.576-5.248,1.475-7.398c7.617-7.99,15.234-15.98,22.873-23.953c0.438-0.459,0.461-0.684,0.01-1.154
		c-7.621-7.953-15.223-15.923-22.82-23.896c-3.082-3.234-2.697-7.983,0.83-10.375c1.033-0.701,2.174-1.119,3.432-1.127
		c2.369-0.017,4.738-0.025,7.107,0c1.924,0.02,3.523,0.815,4.84,2.191c9.26,9.699,18.51,19.407,27.775,29.1
		c1.021,1.068,1.547,2.357,1.914,3.744C82.5,42.241,82.5,42.919,82.5,43.597z"/>
	<path d="M2.5,12.034c0.262-0.193,0.207-0.515,0.285-0.772C3.619,8.54,5.986,6.63,8.826,6.542c2.316-0.07,4.635-0.028,6.951-0.016
		c2.066,0.01,3.756,0.852,5.172,2.34c5.939,6.244,11.895,12.475,17.844,18.709c3.127,3.277,6.258,6.553,9.385,9.83
		c3.119,3.27,3.146,6.895,0.047,10.148c-9.107,9.557-18.229,19.098-27.334,28.652c-1.467,1.537-3.215,2.32-5.346,2.291
		c-2.029-0.027-4.063,0.002-6.092-0.008c-3.486-0.016-5.889-1.887-6.801-5.273c-0.025-0.09-0.102-0.162-0.152-0.244
		c0-0.156,0-0.313,0-0.469c0.127-0.469,0.127-0.938,0-1.406c0-0.156,0-0.313,0-0.469c0.211-1.877,1.352-3.232,2.602-4.49
		c2.99-3.01,5.857-6.135,8.814-9.176c2.213-2.271,4.391-4.582,6.578-6.883c2.133-2.242,4.24-4.51,6.416-6.713
		c0.76-0.768,0.775-0.977-0.002-1.725c-1.803-1.734-3.471-3.596-5.199-5.396c-3.424-3.565-6.826-7.151-10.248-10.717
		c-2.07-2.158-4.09-4.365-6.203-6.484c-0.553-0.555-1.039-1.166-1.541-1.762c-0.701-0.832-1.031-1.844-1.215-2.904
		c0-0.156,0-0.313,0-0.469c0.125-0.469,0.125-0.938,0-1.406C2.5,12.346,2.5,12.19,2.5,12.034z"/>
	<path fill="#141414" d="M2.5,12.501c0.248,0.47,0.256,0.939,0,1.406C2.5,13.44,2.5,12.971,2.5,12.501z"/>
	<path fill="#121212" d="M2.5,71.097c0.256,0.469,0.25,0.938,0,1.404C2.5,72.032,2.5,71.563,2.5,71.097z"/>
	<path fill="#60A817" d="M46.402,75.481c-2.637-0.877-3.42-4.229-1.477-6.391c0.854-0.947,1.752-1.852,2.633-2.771
		c6.494-6.785,12.99-13.568,19.479-20.357c0.826-0.863,1.613-1.766,2.414-2.654c0.479-0.531,0.479-1.076,0.002-1.605
		c-0.836-0.928-1.66-1.865-2.521-2.768C60.48,32.181,54.02,25.436,47.563,18.688c-0.881-0.921-1.779-1.828-2.635-2.771
		c-1.945-2.152-1.297-5.354,1.281-6.411c0.375-0.07,0.566,0.213,0.777,0.427c3.262,3.321,6.471,6.691,9.648,10.096
		c1.137,1.217,2.313,2.395,3.469,3.592c1.73,1.797,3.453,3.608,5.18,5.412c3.076,3.211,6.166,6.408,9.201,9.658
		c2.047,2.193,2.049,5.463-0.021,7.641c-2.473,2.602-4.945,5.201-7.434,7.787c-3.445,3.58-6.854,7.193-10.297,10.771
		c-2.146,2.229-4.264,4.486-6.406,6.719c-1.063,1.107-2.105,2.232-3.191,3.316C46.918,75.142,46.734,75.411,46.402,75.481z"/>
	<path fill="#549314" d="M46.402,75.481c0.076-0.104,0.141-0.219,0.229-0.311c1.828-1.885,3.68-3.746,5.48-5.652
		c2.354-2.492,4.734-4.959,7.105-7.436c2.156-2.25,4.301-4.51,6.453-6.764c2.225-2.328,4.455-4.65,6.658-6.996
		c0.883-0.941,1.881-1.789,2.604-2.885c1.354-2.057,1.139-4.818-0.563-6.607c-1.484-1.563-3.016-3.082-4.486-4.659
		c-2.23-2.394-4.516-4.736-6.773-7.103c-2.115-2.216-4.227-4.438-6.344-6.652c-2.314-2.42-4.633-4.84-6.941-7.266
		c-1.182-1.242-2.336-2.504-3.615-3.646c1.668-0.733,3.344-0.346,4.664,1.041c4.182,4.388,8.373,8.767,12.559,13.152
		c5.08,5.326,10.162,10.653,15.236,15.988c1.568,1.646,1.574,3.975,0.008,5.621c-4.629,4.859-9.271,9.707-13.904,14.563
		c-4.635,4.855-9.266,9.715-13.893,14.576C49.674,75.716,47.98,76.116,46.402,75.481z"/>
	<path fill="#008900" d="M65.234,43.88c-0.492,0.559-0.836,0.975-1.209,1.363c-3.004,3.135-6.023,6.256-9.021,9.398
		c-3.516,3.686-7.029,7.377-10.512,11.096c-0.564,0.605-1.137,0.908-1.961,0.814c-0.529-0.061-1.07-0.012-1.754-0.012
		c0.486-0.553,0.855-1.008,1.26-1.432c2.877-3.006,5.768-5.996,8.639-9.008c3.623-3.801,7.244-7.604,10.84-11.432
		c0.541-0.578,1.084-0.896,1.889-0.803C63.939,43.933,64.49,43.88,65.234,43.88z"/>
	<path fill="#008900" d="M40.793,18.464c0.945,0,1.746,0.011,2.545-0.006c0.33-0.006,0.525,0.181,0.725,0.391
		c4.693,4.936,9.383,9.875,14.082,14.807c1.938,2.032,3.898,4.043,5.842,6.07c0.389,0.404,0.748,0.838,1.24,1.395
		c-1.018,0-1.861,0.004-2.705-0.002c-0.295-0.002-0.451-0.236-0.629-0.42c-5.566-5.828-11.148-11.642-16.686-17.5
		C43.766,21.67,42.221,20.233,40.793,18.464z"/>
	<path fill="#008900" d="M39.885,15.803c-0.639-0.121-1.41,0.321-1.916-0.291c-0.689-0.837-0.918-1.856-0.762-2.933
		c0.303-2.101,2.707-3.83,4.818-3.498c0.361,0.057,0.445,0.152,0.227,0.49c-1.178,1.815-1.377,3.758-0.689,5.797
		c0.125,0.369-0.012,0.453-0.352,0.438C40.77,15.788,40.326,15.802,39.885,15.803z"/>
	<path fill="#008900" d="M42.447,75.747c-1.975,0.234-3.637-0.102-4.691-1.848c-0.855-1.418-0.779-2.861,0.086-4.266
		c0.154-0.25,0.346-0.439,0.682-0.436c0.908,0.012,1.816,0.002,2.725,0.004c0.205,0,0.455-0.031,0.336,0.318
		C40.842,71.718,41.086,73.794,42.447,75.747z"/>
	<path fill="#60A817" d="M47.826,42.528c-0.006,1.129-0.457,2.057-1.229,2.863c-4.408,4.607-8.813,9.223-13.213,13.84
		c-4.725,4.953-9.447,9.91-14.168,14.871c-1.807,1.896-3.859,2.24-5.709,0.939c-1.811-1.273-2.26-3.865-0.854-5.582
		c1.07-1.305,2.283-2.492,3.453-3.717c6.166-6.457,12.34-12.908,18.51-19.365c0.863-0.902,1.719-1.813,2.568-2.729
		c0.84-0.91,0.834-1.434-0.033-2.342c-3.664-3.845-7.332-7.686-11-11.525c-4.332-4.539-8.631-9.109-13.01-13.602
		c-2.367-2.427-1.328-6.042,1.484-6.863c1.67-0.49,3.072,0.004,4.246,1.232c3.865,4.049,7.723,8.104,11.586,12.154
		c5.391,5.65,10.781,11.302,16.176,16.949C47.406,40.462,47.834,41.401,47.826,42.528z"/>
	<path fill="#008900" d="M8.789,18.466c1.014,0,1.814,0.003,2.615-0.001c0.299-0.002,0.467,0.202,0.645,0.389
		c4.898,5.144,9.793,10.291,14.695,15.431c1.959,2.051,3.939,4.084,5.9,6.131c0.168,0.174,0.512,0.32,0.379,0.605
		c-0.104,0.219-0.428,0.066-0.648,0.104c-1.426,0.23-2.424-0.313-3.422-1.393c-3.85-4.166-7.824-8.216-11.74-12.318
		c-2.643-2.766-5.268-5.545-7.898-8.321C9.176,18.946,9.053,18.784,8.789,18.466z"/>
	<path fill="#008900" d="M8.752,66.542c0.773-0.846,1.355-1.508,1.963-2.143c3.006-3.139,6.025-6.264,9.027-9.406
		c3.434-3.592,6.854-7.197,10.273-10.803c0.195-0.207,0.393-0.316,0.674-0.313c0.65,0.01,1.303-0.002,1.953,0.006
		c0.143,0.002,0.34-0.066,0.408,0.123c0.063,0.178-0.105,0.275-0.209,0.385c-1.201,1.262-2.404,2.523-3.611,3.781
		c-2.975,3.098-5.955,6.188-8.922,9.291c-2.643,2.766-5.281,5.533-7.889,8.33c-0.525,0.564-1.066,0.834-1.832,0.756
		C10.059,66.499,9.518,66.542,8.752,66.542z"/>
	<path fill="#008900" d="M7.869,15.802c-0.027,0-0.053,0.004-0.078,0c-0.615-0.105-1.357,0.305-1.836-0.289
		c-0.658-0.816-0.918-1.805-0.764-2.852c0.402-2.732,2.855-3.586,4.742-3.58c0.473,0.002,0.508,0.166,0.266,0.56
		c-1.105,1.783-1.301,3.687-0.646,5.669c0.131,0.395,0.037,0.512-0.359,0.496C8.752,15.788,8.311,15.802,7.869,15.802z"/>
	<path fill="#008900" d="M10.365,75.761c-1.873,0.197-3.475-0.121-4.574-1.771c-0.834-1.248-0.816-3.213,0.076-4.416
		c0.164-0.217,0.34-0.377,0.639-0.373c0.91,0.01,1.822,0.004,2.732,0.002c0.262,0,0.42,0.01,0.35,0.391
		C8.977,72.839,8.998,72.944,10.365,75.761z"/>
</g>
</svg>
