<?xml version="1.0" encoding="utf-8"?>
<!-- Generator: Adobe Illustrator 16.0.0, SVG Export Plug-In . SVG Version: 6.00 Build 0)  -->
<!DOCTYPE svg PUBLIC "-//W3C//DTD SVG 1.1//EN" "http://www.w3.org/Graphics/SVG/1.1/DTD/svg11.dtd">
<svg version="1.1" id="Layer_1" xmlns="http://www.w3.org/2000/svg" xmlns:xlink="http://www.w3.org/1999/xlink" x="0px" y="0px"
	 width="85px" height="85px" viewBox="0 0 85 85" enable-background="new 0 0 85 85" xml:space="preserve">
<g>
	<path fill-rule="evenodd" clip-rule="evenodd" fill="#764830" d="M44.397,41.467c0.062-0.669,0.479-1.17,0.859-1.671
		c0.791-1.04,1.556-2.098,2.314-3.162c0.687-0.962,1.213-1.992,1.572-3.121c0.432-1.354,0.974-2.675,1.387-4.036
		c0.47-1.55,1.186-2.94,2.324-4.102c0.567-0.253,0.748-0.156,0.878,0.473c0.057,0.322,0.124,0.642,0.214,0.958
		c0.075,0.253,0.175,0.082,0.274,0.048c0.047-0.001,0.094,0.007,0.136,0.025c0.141,0.052,0.284,0.099,0.41,0.185
		c0.93,0.616,1.895,0.49,2.635-0.341c0.089-0.099,0.155-0.221,0.29-0.273c0.607,0.208,0.62,0.214,0.962-0.396
		c0.354-0.622,0.681-1.256,0.835-1.967c0.078-0.372,0.083-0.716-0.114-1.058c-0.062-0.111-0.221-0.273,0.029-0.381
		c0.756,0.139,1.506,0.303,2.256,0.489c1.733,0.43,2.968,1.468,3.884,2.962c1.097,1.786,1.653,3.763,2.105,5.779
		c0.704,3.139,0.922,6.33,0.977,9.535c0.008,0.539,0.058,1.114-0.354,1.574c-0.214,0.383-0.6,0.515-0.975,0.653
		c-1.014,0.375-2.07,0.573-3.137,0.673c-2.525,0.231-5.048,0.226-7.558-0.188c-0.511-0.083-1.025-0.158-1.5-0.391
		c-0.132-0.075-0.224-0.18-0.28-0.325c-0.024-0.081-0.031-0.163-0.021-0.245c0.058-0.334,0.072-0.671-0.021-1.003
		c-0.066-0.327,0.042-0.634,0.099-0.948c0.119-0.46,0.34-0.825,0.865-0.896c0.226,0.133,0.347,0.374,0.558,0.521
		c0.452,0.389,0.96,0.329,1.475,0.194c1.519-0.4,2.917-1.091,4.294-1.82c0.681-0.36,1.363-0.716,2.013-1.135
		c1-0.645,1.611-1.44,1.656-2.727c0.059-1.661,0.081-3.32,0.059-4.631c0.067,1.187,0,2.723-0.058,4.259
		c-0.007,0.25-0.053,0.499-0.079,0.747c-0.081,0.734-0.393,1.33-1.001,1.783c-2.049,1.521-4.29,2.667-6.732,3.409
		c-0.308,0.092-0.627,0.127-0.94,0.136c-0.24,0.006-0.529,0.003-0.545-0.361c0.518-0.632,0.26-2.039-0.452-2.468
		c-0.072-0.042-0.147-0.069-0.233-0.078c-0.562-0.048-0.562-0.049-0.513-0.587c-0.086,0.195,0.094,0.442-0.121,0.614
		c-0.281-0.211-0.176-0.518-0.187-0.789c-0.053-1.38-0.271-2.724-0.82-4.002c-0.228-0.96-0.702-1.837-0.961-2.786
		c-0.024-0.064-0.09,0.05-0.038,0.008c0.012-0.009,0.028,0,0.036,0.033c0.297,1.283,0.562,2.571,0.706,3.881
		c0.001,0.314-0.155,0.582-0.296,0.841c-0.585,1.096-1.026,2.275-1.838,3.244c-0.716,0.316-1.415,0.668-2.121,1.005
		c-0.679,0.326-0.999,0.958-1.392,1.534c-0.124,0.176,0.022,0.314,0.082,0.462c-0.026,0.463-0.328,0.843-0.389,1.296
		c-0.047,0.069-0.095,0.125-0.189,0.087c-0.404,0.154-0.727,0.488-1.191,0.504c0.09-0.342,0.212-0.673-0.114-0.99
		c-0.461-0.45-0.861-0.977-1.592-0.988C44.678,41.512,44.525,41.596,44.397,41.467z"/>
	<path fill-rule="evenodd" clip-rule="evenodd" fill="#2A3145" d="M68.228,44.687c0.013,2.696,0.067,5.395,0.115,8.09
		c0.033,1.66,0.285,3.239,0.87,4.8c0.899,2.396,1.695,4.831,2.528,7.252c0.062,0.185,0.202,0.361,0.113,0.576
		c-0.069,0.255-0.243,0.429-0.445,0.584c-0.903,0.693-1.916,1.073-3.06,1.078c-0.509,0.055-0.776-0.192-0.98-0.657
		c-1.427-3.231-2.918-6.434-4.279-9.694c-0.242-0.581-0.33-1.193-0.423-1.805c-0.167-1.107-0.438-2.198-0.543-3.312
		c0.08-0.224,0.004-0.453,0.032-0.668c0.031-0.229-0.162-0.039-0.179-0.135c-0.283-0.654-0.314-1.373-0.536-2.038
		c-0.079-0.243-0.075-0.658-0.35-0.655c-0.304,0.002-0.255,0.416-0.302,0.661c-0.378,1.89-0.783,3.774-1.198,5.653
		c-0.098,0.445-0.136,0.892-0.146,1.345c-0.056,2.448,0.116,4.893,0.128,7.336c0.008,1.07,0.102,2.139,0.047,3.21
		c-0.066,0.23-0.115,0.468-0.191,0.697c-0.125,0.169-0.32,0.213-0.505,0.266c-1.142,0.242-2.293,0.359-3.46,0.282
		c-0.438-0.048-0.604-0.294-0.655-0.732c-0.398-3.645-0.773-7.291-1.174-10.935c-0.088-0.829,0.08-1.635,0.18-2.449
		c0.323-2.624,0.631-5.255,0.952-7.88c0.045-0.145,0.09-0.293,0.216-0.396c0.21-0.077,0.394,0.011,0.585,0.073
		c1.522,0.508,3.104,0.671,4.696,0.717c2.163,0.058,4.31-0.097,6.41-0.679c0.308-0.085,0.604-0.196,0.909-0.284
		c0.172-0.047,0.354-0.138,0.512,0.043c0.021,1.439,0.003,2.884,0.012,4.323c0-1.41,0.001-2.821,0-4.231
		c0.01-0.117-0.064-0.234-0.017-0.354C68.114,44.706,68.159,44.677,68.228,44.687z"/>
	<path fill-rule="evenodd" clip-rule="evenodd" fill="#FEC09F" d="M30.837,52.033c0.133-0.258,0.031-0.36-0.233-0.397
		c-0.664-0.091-1.317-0.213-1.846-0.675c-0.114-0.1-0.237-0.084-0.37-0.012c-1.334,0.727-3.173-0.654-2.76-2.116
		c0.016-0.057-0.017-0.127-0.025-0.195c0.098-0.214,0.223-0.405,0.441-0.516c0.261-0.127,0.493-0.143,0.565,0.213
		c0.076,0.375,0.237,0.291,0.422,0.089c0.126-0.135,0.206-0.299,0.251-0.479c0.132-0.339,0.104-0.678-0.011-1.017
		c-0.101-0.529-0.299-1.028-0.509-1.521c-0.202-0.48-0.171-0.561,0.331-0.727c0.314-0.106,0.614-0.282,0.965-0.238
		c0.182,0.153,0.011,0.261-0.058,0.371c-0.085,0.14-0.25,0.222-0.29,0.483c0.438-0.528,0.954-0.803,1.579-0.89
		c-0.108-0.163-0.279-0.06-0.385-0.144c-0.07-0.032-0.117-0.084-0.119-0.167c0.085-0.244,0.312-0.342,0.501-0.469
		c0.801-0.546,1.411-1.27,1.952-2.063c0.114-0.167,0.237-0.476,0.463-0.371c0.263,0.12,0.094,0.42,0.043,0.633
		c-0.136,0.578-0.407,1.093-0.788,1.546c-0.03,0.024-0.031,0.062-0.026,0.061c0.044-0.021,0.083-0.047,0.126-0.073
		c0.697-0.286,1.198-0.781,1.57-1.426c0.201-0.35,0.388-0.704,0.572-1.061c0.337-0.656,0.565-0.736,1.176-0.316
		c0.719,0.494,1.309,1.105,1.421,2.035c0.111,0.929,0.553,1.749,0.831,2.626c0.1,0.768,0.326,1.521,0.342,2.301
		c-0.033,0.094-0.098,0.187-0.089,0.274c0.062,0.627-0.083,1.198-0.428,1.72c-0.068,0.252-0.281,0.389-0.439,0.569
		c-0.121,0.143-0.319,0.227-0.333,0.448c-0.479,0.479-1.107,0.729-1.666,1.085c-0.097,0.036-0.198,0.05-0.3,0.055
		c-0.827,0.016-1.641,0.23-2.405,0.182c-0.134-0.025-0.099,0.081-0.101,0.015c0-0.021,0.017-0.029,0.047-0.019
		c0.544,0.194,1.071,0.452,1.683,0.338c0.236-0.041,0.471-0.196,0.725-0.062c0.165,0.345-0.029,0.581-0.277,0.762
		c-0.509,0.367-1.083,0.496-1.698,0.33C31.108,53.06,30.888,52.741,30.837,52.033z"/>
	<path fill-rule="evenodd" clip-rule="evenodd" fill="#84220F" d="M28.108,44.492c-0.015,0-0.034-0.006-0.048-0.001
		c-0.421,0.142-1.012,0.165-1.216,0.464c-0.221,0.317,0.256,0.773,0.358,1.191c0.062,0.257,0.127,0.512,0.192,0.767
		c0.001,0.365,0.002,0.729-0.001,1.096c-0.03,0.268-0.193,0.458-0.387,0.618c-0.124,0.1-0.257,0.258-0.435,0.174
		c-0.155-0.073-0.035-0.24-0.039-0.359c-0.009-0.309-0.127-0.406-0.393-0.224c-0.188,0.126-0.359,0.278-0.538,0.42
		c-0.543-0.728-0.955-1.529-1.284-2.376c-0.577-1.483-0.418-2.89,0.43-4.225c1.546-2.434,5.234-3.956,8-3.296
		c1.795,0.428,3.035,1.474,3.649,3.25c0.203,0.585,0.261,1.251,0.769,1.704c0.125,0.271,0.049,0.383-0.251,0.312
		c-0.083,0.017-0.203-0.075-0.241,0.079c-0.047,0.327,0.132,0.57,0.3,0.817c0.124,0.179,0.205,0.33-0.104,0.382
		c-0.115,0.008-0.209-0.048-0.307-0.094c-0.41-0.705-0.712-1.462-0.812-2.268c-0.133-1.046-0.655-1.807-1.543-2.326
		c-0.526-0.308-0.593-0.275-0.871,0.259c-0.201,0.384-0.384,0.781-0.602,1.155c-0.396,0.676-0.915,1.226-1.681,1.482
		c-0.123,0.049-0.235,0.074-0.23-0.119c0.491-0.64,0.828-1.342,0.87-2.18c-0.778,1.154-1.667,2.188-2.874,2.904
		c-0.057,0.126-0.17,0.197-0.28,0.274C28.406,44.445,28.288,44.577,28.108,44.492z"/>
	<path fill-rule="evenodd" clip-rule="evenodd" fill="#929292" d="M47.944,15.913c-0.145-0.811-0.186-1.592-0.1-2.447
		c0.091-0.955,0.654-1.402,1.196-1.872c1.76-1.526,3.816-2.235,6.166-1.913c0.538,0.074,1.041,0.268,1.41,0.696
		c0.123,0.141,0.268,0.177,0.438,0.204c1.609,0.258,2.633,1.287,3.414,2.624c0.044,0.077,0.021,0.194,0.031,0.293
		c-0.057,0.136-0.165,0.204-0.302,0.243c-1.104,0.32-2.224,0.601-3.335,0.906c-0.065,0.019-0.132,0.002-0.193-0.025
		c-0.048-0.05-0.074-0.108-0.095-0.174c-0.361-1.195-1.631-1.836-2.798-1.323c-1.234,0.542-2.501,0.803-3.837,0.821
		c-0.612,0.009-1.217,0.688-1.349,1.472c-0.036,0.21,0.007,0.438-0.139,0.625C48.242,16.159,48.068,16.138,47.944,15.913z"/>
	<path fill-rule="evenodd" clip-rule="evenodd" fill="#1B6268" d="M29.021,65.634c-0.096-0.045-0.17-0.104-0.154-0.225
		c0.175-1.312,0.287-2.633,0.543-3.934c0.084,0.084,0.074,0.178,0.059,0.207c-0.015-0.085,0.043-0.237-0.04-0.388
		c-0.012-0.176-0.016-0.353,0.081-0.514c0.143-0.113,0.306-0.121,0.474-0.088c2.387,0.497,4.702,0.188,6.971-0.619
		c0.053-0.022,0.105-0.033,0.162-0.033c0.278,1.579,0.546,3.161,0.839,4.738c0.06,0.314-0.017,0.508-0.29,0.645
		c-0.38,0.406-0.913,0.452-1.404,0.582c-0.289,0.077-0.588,0.117-0.887,0.148c-0.519,0.051-0.812-0.216-0.967-0.687
		c-0.284-0.857-0.636-1.691-0.903-2.555c-0.033-0.108-0.048-0.227-0.169-0.291c-0.2,0.142-0.191,0.357-0.239,0.542
		c-0.201,0.761-0.417,1.518-0.604,2.281c-0.153,0.625-0.172,0.63-0.815,0.613c-0.167-0.003-0.334-0.002-0.501-0.027
		c-0.532-0.072-1.067-0.115-1.595-0.203C29.386,65.796,29.183,65.771,29.021,65.634z"/>
	<path fill-rule="evenodd" clip-rule="evenodd" fill="#742A13" d="M47.837,42.884c-0.056-0.492,0.299-0.864,0.399-1.311
		c0.45-0.371,0.832-0.818,1.298-1.171c0.226-0.173,0.491-0.288,0.766-0.365c0.283-0.078,0.444,0.015,0.367,0.321
		c-0.116,0.461-0.145,0.974-0.604,1.278c-0.754,0.61-0.974,1.414-0.971,2.364c0.014,8.178,0.008,16.354,0.009,24.535
		c0,0.198,0.003,0.403-0.012,0.602c-0.004,1.387,0.069,2.774-0.041,4.161c-0.151,0.496-0.518,0.472-0.915,0.375h-0.002
		c-0.096-0.065-0.267-0.032-0.277-0.208c-0.005-0.033-0.011-0.065-0.015-0.097C47.828,63.207,47.832,53.046,47.837,42.884z"/>
	<path fill-rule="evenodd" clip-rule="evenodd" fill="#BABCBB" d="M2.666,75.083c2.043-1.646,4.133-3.236,6.109-4.961
		c0.938-0.817,1.903-1.116,3.092-1.005c0.647,0.062,1.305,0.01,2.028,0.01c-0.233,0.408-0.568,0.652-0.855,0.928
		c-1.326,1.277-2.66,2.546-3.998,3.81c-0.51,0.481-1.037,0.944-1.554,1.415c-0.459-0.113-0.925-0.041-1.386-0.047
		c-0.982-0.014-1.964-0.001-2.946-0.007C2.984,75.224,2.779,75.298,2.666,75.083z"/>
	<path fill-rule="evenodd" clip-rule="evenodd" fill="#BABCBB" d="M21.939,69.144c-1.163,1.511-2.243,2.911-3.324,4.312
		c-0.429,0.557-0.862,1.107-1.288,1.665c-0.118,0.155-0.243,0.259-0.456,0.258c-1.587-0.007-3.175-0.004-4.77-0.004
		c-0.018-0.214,0.145-0.28,0.242-0.377c1.9-1.864,3.804-3.726,5.708-5.588c0.118-0.114,0.218-0.266,0.409-0.266
		C19.579,69.143,20.696,69.144,21.939,69.144z"/>
	<path fill-rule="evenodd" clip-rule="evenodd" fill="#BABCBB" d="M73.485,69.039c0.33,0.181,0.686,0.074,1.025,0.081
		c0.264,0.005,0.485,0.054,0.693,0.221c2.375,1.918,4.753,3.828,7.131,5.742c-0.115,0.215-0.319,0.142-0.491,0.143
		C80.563,75.23,79.28,75.227,78,75.23c-0.161,0-0.333-0.045-0.487,0.051c-0.926-0.779-1.798-1.614-2.625-2.499
		c-0.061-0.13,0.055-0.172,0.123-0.234c0.147-0.133,0.06-0.199-0.07-0.243c-0.239-0.08-0.483-0.135-0.739-0.09
		c-0.155-0.007-0.264-0.102-0.371-0.198c-0.481-0.54-1.081-0.968-1.486-1.583C72.619,69.883,72.938,69.367,73.485,69.039z"/>
	<path fill-rule="evenodd" clip-rule="evenodd" fill="#BABCBB" d="M27.811,73.069c-0.329,0.694-0.659,1.388-0.985,2.083
		c-0.073,0.156-0.184,0.224-0.355,0.223c-1.467-0.002-2.935-0.001-4.396-0.001c-0.045-0.195,0.073-0.284,0.144-0.392
		c1.214-1.823,2.435-3.64,3.637-5.471c0.177-0.269,0.365-0.387,0.69-0.379c0.82,0.02,1.64,0.001,2.46-0.003
		c0.146,0.122,0.133,0.276,0.101,0.437c-0.062,0.155-0.162,0.295-0.212,0.457c-0.123,0.216-0.259,0.426-0.367,0.651
		c-0.023,0.041-0.051,0.076-0.083,0.109c-0.07,0.06-0.152,0.103-0.236,0.137c-0.155,0.046-0.267,0.153-0.376,0.265
		c-0.059,0.035-0.125,0.018-0.188,0.022c0.033,0.027,0.09,0.033,0.091,0.094c-0.404,0.329-0.833,0.632-1.097,1.1
		c-0.04,0.025-0.083,0.046-0.128,0.061c-0.132,0.047-0.284,0.051-0.407,0.17c0.251,0.196,0.521,0.212,0.798,0.2
		C27.221,72.848,27.55,72.83,27.811,73.069z"/>
	<path fill-rule="evenodd" clip-rule="evenodd" fill="#58351F" d="M72.381,66.414c0.331,0.475,0.661,0.95,0.993,1.427
		c0.12,0.397,0.019,0.749-0.228,1.071c-0.838,1.089-1.774,2.093-2.82,2.971c-1.017,0.85-2.236,0.849-3.469,0.531
		c-0.189-0.048-0.307-0.183-0.414-0.398c-0.002-0.008,0.007,0.068,0.014,0.075c0.088,0.107,0.075,0.209-0.041,0.292
		c-0.348-0.255-0.17-0.573-0.105-0.878c0.138-0.337,0.416-0.547,0.686-0.768c0.269-0.217,0.594-0.372,0.762-0.697
		c0.44-0.752,0.748-1.552,0.863-2.421c0.646-0.322,1.361-0.495,2.056-0.429c0.544,0.054,0.897-0.088,1.228-0.452
		C72.036,66.591,72.156,66.426,72.381,66.414z"/>
	<path fill-rule="evenodd" clip-rule="evenodd" fill="#BABCBB" d="M40.627,69.335c0.089-0.174,0.239-0.199,0.42-0.198
		c0.957,0.008,1.911,0.016,2.867-0.003c0.32-0.007,0.397,0.118,0.396,0.413c-0.011,1.812-0.012,3.621,0.001,5.432
		c0.002,0.304-0.092,0.411-0.402,0.406c-0.938-0.017-1.877-0.017-2.816,0c-0.311,0.006-0.409-0.101-0.402-0.405
		c0.016-0.638-0.003-1.273-0.006-1.91c-0.188-0.233-0.135-0.513-0.146-0.779c0.011-0.474,0.005-0.948-0.001-1.422
		c-0.072-0.372,0.386-0.61,0.259-0.997C40.772,69.681,40.475,69.578,40.627,69.335z"/>
	<path fill-rule="evenodd" clip-rule="evenodd" fill="#60371F" d="M68.228,44.687c-0.025,0.002-0.05,0.003-0.073,0.002
		c-0.976,0.568-2.068,0.75-3.151,0.941c-1.498,0.265-3.016,0.392-4.536,0.308c-1.863-0.104-3.737-0.196-5.507-0.906
		c-0.189-0.262-0.1-0.561-0.121-0.848c-0.002-0.082,0.007-0.162,0.023-0.244c0.027-0.138,0.077-0.261,0.19-0.348
		c1.078,0.379,2.204,0.475,3.329,0.605c1.468,0.172,2.94,0.12,4.406,0.074c1.547-0.045,3.086-0.263,4.552-0.8
		c0.327-0.123,0.622-0.321,0.932-0.485c-0.008,0.099-0.015,0.199-0.021,0.3c-0.081,0.4-0.063,0.803-0.01,1.205
		C68.236,44.557,68.233,44.621,68.228,44.687z"/>
	<path fill-rule="evenodd" clip-rule="evenodd" fill="#939292" d="M53.647,25.988c-0.018-0.52-0.292-0.714-0.793-0.612
		c-1.373-0.413-2.366-1.255-2.928-2.588c-0.021-0.273,0.159-0.123,0.267-0.127c0.041,0.012,0.08,0.026,0.121,0.042
		c0.14,0.049,0.277,0.055,0.416-0.022c0.174-0.179,0.104-0.609,0.368-0.597c0.268,0.011,0.17,0.418,0.292,0.626
		c0.441,0.742,1.513,1.39,2.429,0.785c0.519-0.343,0.912-0.786,1.079-1.393c0.133-0.472-0.109-0.717-0.603-0.646
		c-0.907,0.132-1.798,0.371-2.703,0.512c-0.152-0.006-0.325-0.004-0.371-0.188c-0.046-0.194,0.1-0.307,0.235-0.407
		c0.208-0.15,0.444-0.249,0.686-0.313c0.759-0.204,1.527-0.337,2.321-0.273c0.469,0.038,0.83,0.263,1.086,0.643
		c0.244,0.365,0.479,0.398,0.879,0.186c0.9-0.482,1.256-1.251,1.324-2.211c0.003-0.05,0.001-0.102,0.011-0.151
		c0.024-0.154-0.024-0.388,0.195-0.398c0.165-0.007,0.214,0.206,0.227,0.347c0.047,0.446,0.287,0.774,0.586,1.079
		c0.134,0.366-0.065,0.677-0.163,1.005c-0.097,0.224-0.192,0.449-0.286,0.674c-0.001,0.099-0.044,0.183-0.098,0.263
		c-0.673,0.746-1.331,1.504-2.116,2.137c-0.435,0.35-0.903,0.64-1.416,0.855C54.243,25.335,53.79,25.451,53.647,25.988z"/>
	<path fill-rule="evenodd" clip-rule="evenodd" fill="#BABCBB" d="M48.927,73.434c0.014-1.433,0.022-2.865,0.036-4.3
		c0.179-0.169,0.404-0.141,0.617-0.144c0.553-0.008,1.104-0.006,1.656-0.002c0.772,0.007,0.925,0.142,1.034,0.909
		c0.016,0.1,0.022,0.2,0.014,0.299c-0.039,0.339-0.314,0.45-0.569,0.562c-0.509,0.227-0.885,0.575-1.065,1.112
		c-0.078,0.152-0.065,0.322-0.092,0.486c-0.057,0.121-0.085,0.362-0.274,0.106c-0.103-0.141-0.187-0.156-0.34-0.049
		c0.229,0.291,0.544,0.209,0.82,0.245c0.537,0.173,1.104,0.166,1.652,0.261c0.159,0.025,0.333,0.01,0.448,0.157
		c0.139,0.65,0.259,1.308,0.416,1.955c0.065,0.271,0.019,0.354-0.269,0.352c-1.172-0.012-2.345-0.018-3.517,0.003
		c-0.33,0.006-0.396-0.179-0.433-0.421c-0.052-0.362-0.088-0.728-0.13-1.093c-0.03-0.064-0.013-0.109,0.052-0.139
		c0.993,0.015,1.984-0.165,2.87-0.124c-0.878-0.149-1.877-0.062-2.868-0.113C48.965,73.476,48.945,73.456,48.927,73.434z"/>
	<path fill-rule="evenodd" clip-rule="evenodd" fill="#FEC09F" d="M46.413,43.608c-0.188,0.088-0.285,0.203-0.317,0.438
		c-0.055,0.43-0.198,0.843-0.276,1.271c-0.172,0.944-0.705,1.563-1.612,1.872c-0.153-0.174-0.106-0.354-0.025-0.535
		c0.022-0.044,0.05-0.079,0.075-0.118c0.126-0.142,0.09-0.337,0.164-0.496c0.047-0.165,0.227-0.327,0.062-0.501
		c-0.102-0.105-0.215,0.014-0.315,0.054c-0.218,0.123-0.562,0.097-0.527,0.487c-0.018,0.046-0.05,0.077-0.088,0.105
		c-0.298,0.115-0.339-0.049-0.329-0.287c0.011,0.539,0.101,1.104-0.496,1.428c-0.312-0.347-0.286-0.766-0.222-1.182
		c0.03-0.198,0.075-0.394,0.015-0.591c-0.024-0.28-0.161-0.441-0.455-0.489c-0.158-0.023-0.332-0.03-0.454-0.168
		c0.557-0.82,1.356-1.413,2.041-2.109c0.23-0.236,0.482-0.45,0.526-0.804C45.278,42.034,46.009,42.598,46.413,43.608z"/>
	<path fill-rule="evenodd" clip-rule="evenodd" fill="#FEC0A0" d="M43.607,47.711c-0.013,0.188,0.071,0.46-0.287,0.355
		c-0.164-0.054-0.199,0.027-0.238,0.155c-0.034,0.098-0.162,0.219-0.214,0.144c-0.292-0.405-0.769-0.058-1.099-0.3
		c-0.166-0.122-0.356-0.059-0.484,0.112c-0.764,1.048-1.713,1.923-2.634,2.82c-0.101,0.099-0.173,0.206-0.187,0.346
		c-0.152,0.019-0.198-0.107-0.266-0.203c-0.237-0.608-0.755-1.058-0.961-1.684c0.032-0.111,0.168-0.055,0.219-0.138
		c0.962-0.673,1.834-1.449,2.661-2.277c0.113-0.115,0.155-0.244,0.187-0.397c0.074-0.343,0.183-0.673,0.296-1.007
		c0.166-0.493,0.465-0.713,0.978-0.646c0.165-0.101,0.322,0.01,0.48,0.031c0.18,0.021,0.385,0.047,0.409,0.288
		c0.022,0.258-0.145,0.392-0.353,0.491c-0.062,0.025-0.128,0.045-0.193,0.044c-0.522-0.011-0.656,0.28-0.578,0.736
		c-0.01,0.157-0.088,0.309-0.026,0.474c-0.032-0.148,0.005-0.295,0.029-0.438c0-0.151-0.002-0.302,0-0.451
		c0.003-0.274,0.227-0.241,0.397-0.269c0.218-0.036,0.246,0.132,0.269,0.279c0.051,0.312-0.021,0.637,0.08,0.946
		c0.057,0.172,0.044,0.368,0.199,0.496c0.128,0.043,0.253-0.022,0.379-0.01c0.099,0.021,0.212,0.062,0.125-0.119
		c0.059-0.042,0.123-0.05,0.193-0.034c0.167,0.077,0.316,0.188,0.508,0.184C43.541,47.654,43.575,47.679,43.607,47.711z"/>
	<path fill-rule="evenodd" clip-rule="evenodd" fill="#BABCBB" d="M70.859,73.169c0.72,0.677,1.438,1.352,2.155,2.026
		c-0.215,0.249-0.376,0.176-0.512,0.177c-1.358,0.007-2.716-0.008-4.074,0.011c-0.384,0.005-0.653-0.076-0.879-0.423
		c-0.335-0.518-0.74-0.99-1.114-1.482c0.082-0.206,0.267-0.256,0.451-0.244c1.271,0.072,2.529-0.189,3.798-0.116
		C70.748,73.114,70.81,73.133,70.859,73.169z"/>
	<path fill-rule="evenodd" clip-rule="evenodd" fill="#FDC0A0" d="M26.806,55.66c-0.149-0.093-0.314-0.1-0.483-0.093
		c-1.289,0.048-2.557-0.112-3.813-0.381c-0.326-0.072-0.627,0.044-0.941,0.067c-0.771,0.055-1.529-0.029-2.28-0.201
		c-0.187-0.04-0.454-0.017-0.503-0.235c-0.05-0.218,0.277-0.193,0.363-0.354c0.143-0.136,0.314-0.069,0.472-0.052
		c0.655,0.068,1.243-0.074,1.758-0.505c0.228-0.191,0.486-0.344,0.795-0.373c0.232-0.008,0.432,0.075,0.611,0.216
		c0.988,0.297,1.997,0.201,3.003,0.151c0.183-0.01,0.279-0.149,0.4-0.255c0.241,0.428,0.291,0.926,0.515,1.357
		C26.736,55.221,26.956,55.413,26.806,55.66z"/>
	<path fill-rule="evenodd" clip-rule="evenodd" fill="#EAEAEA" d="M66.263,73.357c-1.48,0.196-2.97,0.077-4.454,0.113
		c-0.048,0.03-0.096,0.031-0.143,0.004c-0.444-0.539-0.819-1.126-1.178-1.722c-0.093-0.153-0.161-0.307,0.079-0.396
		c1.349-0.116,2.699-0.027,4.051-0.054c0.153-0.021,0.267,0.051,0.364,0.157c0.394,0.452,0.741,0.944,1.112,1.415
		C66.203,73.01,66.37,73.142,66.263,73.357z"/>
	<path fill-rule="evenodd" clip-rule="evenodd" fill="#BABCBB" d="M61.718,73.47c0.032,0.001,0.059,0.001,0.091,0.001
		c0.385,0.604,0.771,1.205,1.151,1.799c-0.079,0.168-0.212,0.103-0.315,0.103c-1.303,0.005-2.606-0.007-3.911,0.011
		c-0.329,0.004-0.516-0.09-0.651-0.4c-0.243-0.549-0.532-1.078-0.801-1.614c0.022-0.023,0.046-0.045,0.071-0.065
		c0.642-0.181,1.296-0.11,1.941-0.067c0.601,0.037,1.201,0.081,1.802,0.077C61.318,73.312,61.528,73.342,61.718,73.47z"/>
	<path fill-rule="evenodd" clip-rule="evenodd" fill="#FDC1A0" d="M29.016,69.621c-0.003-0.165-0.007-0.328-0.01-0.491
		c0.004-1.165,0.009-2.331,0.015-3.496c0.743,0.081,1.489,0.131,2.22,0.295c0.172,0.098,0.187,0.255,0.178,0.431
		c-0.041,0.774-0.118,1.547-0.185,2.321c-0.01,0.064-0.046,0.129-0.043,0.19c0.058,1.021-0.336,0.944-1.09,0.928
		C29.735,69.793,29.336,69.922,29.016,69.621z"/>
	<path fill-rule="evenodd" clip-rule="evenodd" fill="#BABCBB" d="M36.171,73.275c-0.142,0.484-0.167,0.985-0.209,1.481
		c-0.035,0.424-0.13,0.659-0.649,0.637c-1.085-0.047-2.176-0.024-3.263-0.009c-0.312,0.004-0.414-0.058-0.325-0.391
		c0.132-0.498,0.215-1.01,0.32-1.516c0.036-0.086,0.082-0.163,0.174-0.2c0.958-0.133,1.921-0.038,2.881-0.057
		c0.352-0.007,0.695-0.03,1.019-0.176C36.222,73.104,36.224,73.184,36.171,73.275z"/>
	<path fill-rule="evenodd" clip-rule="evenodd" fill="#FDC1A1" d="M35.372,66.031c0.788-0.113,1.556-0.307,2.295-0.607
		c0.592,0.754,1.062,1.597,1.701,2.316c0.28,0.27,0.219,0.519-0.031,0.773c-0.251,0.257-0.541,0.433-0.881,0.542
		c-0.35,0.114-0.656,0.096-0.904-0.202c-0.444-0.428-0.827-0.908-1.231-1.372c-0.112-0.197-0.277-0.354-0.434-0.519
		C35.744,66.636,35.291,66.479,35.372,66.031z"/>
	<path fill-rule="evenodd" clip-rule="evenodd" fill="#F3F3F2" d="M59.403,22.648c-0.021,0.038-0.067,0.099-0.057,0.111
		c0.501,0.625,0.332,1.282,0.097,1.94c-0.226,0.629-0.561,1.203-0.893,1.778c-0.202,0.35-0.384,0.533-0.698,0.123
		c-0.038-0.05-0.105-0.076-0.161-0.112c-0.064-0.003-0.127-0.018-0.182-0.047c-0.098-0.053-0.169-0.134-0.246-0.209
		c-0.348-0.234-0.348-0.234-1.217-0.177c-0.069-0.402,0.222-0.619,0.473-0.815c0.608-0.479,1.064-1.092,1.562-1.67
		c0.326-0.38,0.543-0.799,0.424-1.325c-0.022-0.1,0.006-0.199,0.074-0.28C58.829,22.222,59.046,22.517,59.403,22.648z"/>
	<path fill-rule="evenodd" clip-rule="evenodd" fill="#3D1A05" d="M52.864,73.077c-0.744-0.066-1.499-0.059-2.22-0.31
		c-0.038-0.047-0.063-0.097-0.084-0.152c0.004-0.228-0.064-0.463,0.07-0.677c0.147-0.085,0.288-0.02,0.435,0.011
		c1.601,0.328,3.198,0.348,4.733-0.251c1.037-0.404,2.147-0.484,3.187-0.867c0.354-0.131,0.452,0.033,0.419,0.6
		c-0.155,0.353-0.503,0.415-0.816,0.517c-0.619,0.199-1.261,0.326-1.882,0.522c-0.389,0.14-0.77,0.297-1.162,0.43
		c-0.493,0.166-0.983,0.221-1.498,0.157C53.652,73.063,53.259,73.069,52.864,73.077z"/>
	<path fill-rule="evenodd" clip-rule="evenodd" fill="#2E8E91" d="M40.627,69.335c0.091,0.165,0.18,0.33,0.271,0.494
		c-0.292,0.78-0.777,1.445-1.331,2.041c-0.602,0.647-1.979,0.642-2.529,0.055c-0.027-0.044-0.044-0.092-0.053-0.143
		c-0.022-0.196,0.072-0.356,0.189-0.494c0.28-0.322,0.52-0.675,0.742-1.037c0.072-0.043,0.137-0.03,0.197,0.02
		c0.05,0.048,0.085,0.104,0.11,0.168c0.011,0.042,0.018,0.082,0.019,0.124c0.197,0.172,0.438,0.058,0.651,0.098
		c0.072-0.027,0.137-0.065,0.16-0.145c-0.03-0.165-0.17-0.116-0.274-0.143c-0.119-0.012-0.237-0.023-0.328-0.109
		c-0.037-0.069-0.041-0.139-0.012-0.21c0.147-0.163,0.331-0.082,0.465-0.094c-0.221-0.085-0.468,0.057-0.722,0.071
		c-0.049-0.012-0.094-0.033-0.134-0.062c-0.1-0.123-0.14-0.263-0.135-0.42c0.341-0.397,0.886-0.474,1.273-0.396
		c0.506,0.099,0.735-0.11,1.011-0.395C40.411,68.897,40.479,69.146,40.627,69.335z"/>
	<path fill-rule="evenodd" clip-rule="evenodd" fill="#652410" d="M47.837,42.884c0.162,0.15,0.093,0.349,0.093,0.521
		c0.002,9.815,0.002,19.625,0,29.439c0,0.176,0.066,0.372-0.091,0.523c-0.172-0.184-0.091-0.41-0.091-0.614
		c-0.006-9.74-0.004-19.477-0.006-29.215c0-0.185-0.017-0.37-0.025-0.551C47.758,42.952,47.795,42.918,47.837,42.884z"/>
	<path fill-rule="evenodd" clip-rule="evenodd" fill="#3C1B05" d="M66.438,72.376c0.005-0.099,0.012-0.199,0.021-0.322
		c0.646,0.463,1.37,0.442,2.092,0.39c0.932-0.068,1.658-0.51,2.29-1.192c0.715-0.772,1.472-1.505,2.14-2.324
		c0.273-0.339,0.297-0.713,0.393-1.086c0.392,0.365,0.369,0.771,0.111,1.198c-0.369,0.469-0.738,0.938-1.108,1.407
		c-0.234,0.522-0.67,0.879-1.05,1.282c-0.349,0.331-0.659,0.703-1.071,0.962c-0.494,0.371-1.095,0.368-1.663,0.484
		c-0.398,0.044-0.798,0.049-1.194-0.002c-0.2-0.072-0.428-0.058-0.618-0.163C66.539,72.875,66.262,72.746,66.438,72.376z"/>
	<path fill-rule="evenodd" clip-rule="evenodd" fill="#939292" d="M60.425,16.332c-0.018,0.294-0.037,0.588-0.057,0.882
		c-0.129,0.031-0.217-0.051-0.314-0.115c-0.682-0.455-1.282-0.323-1.727,0.378c-0.071,0.113-0.104,0.246-0.192,0.348
		c-0.131,0.148-0.268,0.158-0.338-0.046c-0.205-0.595-0.401-1.194-0.638-1.779c-0.036-0.094-0.014-0.198,0.076-0.271
		c0.916-0.374,1.883-0.562,2.836-0.803c0.217-0.055,0.403,0.021,0.387,0.309C60.437,15.6,60.497,15.967,60.425,16.332z"/>
	<path fill-rule="evenodd" clip-rule="evenodd" fill="#9C918B" d="M57.189,15.826c0.326,0.647,0.546,1.334,0.772,2.116
		c0.235-0.564,0.5-1.027,1.042-1.2c0.56-0.179,0.995,0.069,1.364,0.472c0.005,0.041,0.01,0.081,0.016,0.122
		c-0.079,0.166-0.186,0.109-0.276,0.026c-0.361-0.318-0.752-0.568-1.212-0.245c-0.502,0.354-0.696,0.864-0.632,1.485
		c0.058,0.54,0.192,1.046,0.482,1.508c0,0.051-0.018,0.096-0.049,0.135c-0.425-0.09-0.499-0.457-0.592-0.787
		c-0.045-0.172-0.053-0.354-0.17-0.539c-0.049,0.343-0.119,0.657-0.138,0.975c-0.062,1.073-0.812,1.576-1.643,2.017
		c-0.213,0.114-0.417,0.023-0.521-0.163c-0.59-1.068-1.552-0.891-2.498-0.772c-0.582,0.072-1.144,0.211-1.649,0.52
		c-0.096,0.058-0.22,0.131-0.188,0.267c0.032,0.125,0.163,0.08,0.257,0.093c0.023,0.025,0.036,0.052,0.035,0.082
		c0,0.031-0.004,0.045-0.009,0.045c-0.174,0.582,0.02,0.947,0.748,1.395c0.65,0.293,1.225,0.139,1.756-0.287
		c0.301-0.25,0.493-0.57,0.605-0.942c0.094-0.301,0.052-0.556-0.254-0.716c-0.037-0.03-0.06-0.07-0.066-0.119
		c0.449-0.068,0.751,0.226,0.698,0.683c-0.146,1.235-1.554,2.131-2.713,1.714c-0.567-0.204-1.203-0.795-1.234-1.558
		c-0.236,0.182-0.063,0.574-0.375,0.708c-0.033-0.039-0.062-0.083-0.081-0.133c0.044-1.163,0.434-1.577,1.834-1.952
		c0.049-0.018,0.102-0.029,0.153-0.039c0.579-0.111,1.159-0.124,1.747-0.131c0.557-0.008,0.99,0.188,1.261,0.662
		c0.223,0.388,0.45,0.337,0.779,0.144c0.811-0.478,1.093-1.215,1.111-2.105c0.025-1.008,0.049-2.012-0.466-2.934
		c-0.056-0.101-0.079-0.219-0.083-0.339C57.025,15.927,57.021,15.798,57.189,15.826z"/>
	<path fill-rule="evenodd" clip-rule="evenodd" fill="#EAEAEA" d="M70.268,72.562c0.333-0.306,0.667-0.61,1.002-0.916
		c0.897-0.048,1.79-0.038,2.642,0.311c0.095,0.067,0.188,0.135,0.283,0.202c0.292,0.112,0.594,0.217,0.602,0.607
		c-1.306,0.199-2.609,0.417-3.937,0.403c-0.031,0.004-0.062,0.006-0.094,0.006C70.516,73.038,70.267,72.903,70.268,72.562z"/>
	<path fill-rule="evenodd" clip-rule="evenodd" fill="#FCC1A1" d="M58.701,20.139c-0.616-0.63-0.771-1.921-0.32-2.685
		c0.432-0.739,1.184-0.829,1.773-0.205c0.073,0.077,0.113,0.165,0.229,0.085c0.122,0.984-0.058,1.861-0.882,2.513
		c-0.138,0.227-0.335,0.357-0.603,0.376C58.82,20.224,58.754,20.196,58.701,20.139z"/>
	<path fill-rule="evenodd" clip-rule="evenodd" fill="#EAEAEA" d="M37.05,71.759c0.012,0.035,0.024,0.07,0.037,0.104
		c0.146,0.375,0.423,0.511,0.821,0.508c0.59-0.006,1.145-0.146,1.684-0.37c0.362,0.087,0.798-0.141,1.089,0.254
		c0.001,0.273,0.002,0.543,0.002,0.814c-1.359,0.097-2.718,0.192-4.078,0.292c-0.156,0.013-0.298-0.016-0.435-0.086
		c-0.006-0.07-0.013-0.139-0.019-0.207c-0.241-0.354,0.015-0.715-0.025-1.071c0.015-0.132,0.032-0.262,0.15-0.349
		C36.522,71.773,36.775,71.851,37.05,71.759z"/>
	<path fill-rule="evenodd" clip-rule="evenodd" fill="#9F9F9F" d="M72.381,66.414c-0.295,0.208-0.435,0.572-0.756,0.758
		c-0.172,0.103-0.35,0.287-0.537,0.219c-0.856-0.311-1.613,0.207-2.426,0.247c-0.204-0.182-0.333-0.399-0.318-0.684
		c1.371-0.066,2.557-0.545,3.511-1.55C71.937,65.789,71.974,66.199,72.381,66.414z"/>
	<path fill-rule="evenodd" clip-rule="evenodd" fill="#E9EAEA" d="M32.139,73.368c-0.031,0.036-0.062,0.073-0.094,0.11
		c-0.39-0.208-0.824-0.191-1.241-0.202c-0.845-0.021-1.692,0.018-2.517-0.227c0.012-0.068,0.045-0.139,0.113-0.147
		c1.057-0.141,1.955-0.727,2.945-1.053c0.355-0.028,0.709-0.061,1.066-0.021c0.049,0.031,0.078,0.078,0.091,0.134
		C32.471,72.453,32.402,72.935,32.139,73.368z"/>
	<path fill-rule="evenodd" clip-rule="evenodd" fill="#ACADAC" d="M70.268,72.562c0.165,0.205,0.331,0.409,0.498,0.613
		c-0.086,0.105-0.205,0.096-0.321,0.091c-1.164-0.044-2.319,0.172-3.481,0.104c-0.188-0.012-0.367,0.008-0.527,0.108
		c-0.06-0.04-0.116-0.08-0.173-0.12c-0.37-0.653-0.914-1.179-1.324-1.801c-0.013-0.156,0.104-0.205,0.216-0.213
		c0.433-0.032,0.877-0.157,1.285,0.111c-0.074,0.307-0.186,0.613-0.001,0.921c0.034,0.615,0.571,0.53,0.942,0.675
		c0.481,0.161,0.973,0.012,1.378,0.069c0.003-0.001-0.071,0.004-0.129-0.068C69.188,72.931,69.776,72.908,70.268,72.562z"/>
	<path fill-rule="evenodd" clip-rule="evenodd" fill="#FAC2A4" d="M58.58,21.964c0.212,0.692,0.01,1.27-0.473,1.781
		c-0.479,0.508-0.87,1.096-1.438,1.523c-0.279,0.208-0.551,0.449-0.597,0.836c0.026,0.072-0.007,0.13-0.04,0.19
		c-0.086,0.144-0.169,0.292-0.379,0.218c-0.294-0.274-0.747-0.431-0.7-0.951c0.342-0.251,0.793-0.232,1.15-0.476
		c1.054-0.724,1.693-1.734,2.093-2.921c0.005-0.091,0.027-0.17,0.125-0.202C58.408,21.962,58.493,21.963,58.58,21.964z"/>
	<path fill-rule="evenodd" clip-rule="evenodd" fill="#613720" d="M46.413,43.608c-0.092-0.019-0.21,0.023-0.254-0.107
		c-0.293-0.917-0.957-1.311-1.884-1.333c-0.13-0.003-0.072-0.119-0.097-0.186c0.074-0.17,0.146-0.343,0.219-0.515
		c0.879-0.204,2.099,0.495,2.398,1.377c0.102,0.297-0.109,0.464-0.271,0.648C46.489,43.532,46.449,43.568,46.413,43.608z"/>
	<path fill-rule="evenodd" clip-rule="evenodd" fill="#9E320C" d="M33.762,51.544c0.097-0.02,0.196-0.038,0.293-0.059
		c0.404,0.76,0.233,1.391-0.475,1.834c-0.647,0.405-1.355,0.453-2.072,0.315c-0.496-0.092-0.86-0.416-1.066-0.894
		c-0.054-0.206-0.074-0.413,0.083-0.592c0.104-0.038,0.207-0.078,0.312-0.116c0.122,0.06,0.127,0.186,0.157,0.293
		c0.16,0.604,0.582,0.861,1.331,0.814c0.754-0.05,1.242-0.416,1.332-1.006C33.486,51.902,33.478,51.696,33.762,51.544z"/>
	<path fill-rule="evenodd" clip-rule="evenodd" fill="#BDBDBD" d="M57.189,15.826c-0.088,0.03-0.106,0.105-0.114,0.185
		c-0.314-0.157-0.395-0.406-0.293-0.731c1.15-0.423,2.35-0.679,3.528-1.005c0.063-0.018,0.131,0.001,0.193,0.03
		c-0.023,0.676,0.091,1.355-0.079,2.026c-0.003-0.334-0.017-0.67-0.008-1.004c0.008-0.287-0.12-0.347-0.376-0.276
		C59.094,15.313,58.142,15.569,57.189,15.826z"/>
	<path fill-rule="evenodd" clip-rule="evenodd" fill="#BDBDBD" d="M56.694,14.602c1.153-0.421,2.355-0.651,3.526-1
		c0.095-0.027,0.187-0.068,0.28-0.102c-0.003,0.206-0.007,0.412-0.01,0.619c-0.107,0.146-0.273,0.19-0.434,0.233
		c-1.012,0.277-2.029,0.532-3.036,0.827c-0.113,0.033-0.23,0.034-0.343-0.017C56.469,14.968,56.409,14.779,56.694,14.602z"/>
	<path fill-rule="evenodd" clip-rule="evenodd" fill="#EF9D78" d="M22.176,53.646c-0.236,0.038-0.457,0.137-0.624,0.293
		c-0.702,0.656-1.52,0.732-2.405,0.523c-0.033-0.03-0.066-0.056-0.1-0.086c-0.185-0.2-0.119-0.309,0.127-0.376
		c0.111-0.033,0.338,0.133,0.318-0.161c-0.02-0.029-0.045-0.051-0.065-0.075c-0.076-0.096-0.259-0.163-0.145-0.315
		c0.087-0.117,0.221-0.017,0.318,0.027c0.366,0.16,0.736,0.284,1.144,0.294c0.202,0.006,0.293-0.038,0.212-0.25
		c-0.033-0.253-0.516-0.396-0.264-0.661c0.189-0.195,0.423,0.143,0.644,0.224c0.249,0.088,0.478,0.232,0.73,0.314
		C22.205,53.442,22.271,53.507,22.176,53.646z"/>
	<path fill-rule="evenodd" clip-rule="evenodd" fill="#1C575C" d="M31.309,71.953c-0.974,0.457-1.931,0.962-3.022,1.097
		c-0.158,0.007-0.317,0.014-0.476,0.02c-0.326-0.04-0.649-0.079-0.974-0.119c-0.308-0.083-0.593-0.178-0.315-0.577
		c0.025-0.008,0.051-0.017,0.075-0.028c0.033-0.008,0.069-0.023,0.098-0.015c1.444,0.513,2.714-0.045,3.979-0.642
		c0.165-0.078,0.323-0.176,0.516-0.173c0.086,0.016,0.148,0.068,0.192,0.143C31.419,71.771,31.418,71.875,31.309,71.953z"/>
	<path fill-rule="evenodd" clip-rule="evenodd" fill="#FBFCE3" d="M40.197,68.759c-0.239,0.585-0.348,0.569-0.932,0.485
		c-0.435-0.064-0.89,0.15-1.323,0.295c-0.287-0.188-0.47-0.425-0.375-0.792c0.547,0.413,1.688,0.059,1.891-0.582
		c0.052-0.163-0.08-0.28-0.091-0.425C39.783,67.967,39.98,68.37,40.197,68.759z"/>
	<path fill-rule="evenodd" clip-rule="evenodd" fill="#EAE9E9" d="M54.046,73.057c0.916-0.092,1.775-0.39,2.633-0.7
		c0.301-0.106,0.361,0.146,0.454,0.32c0.111,0.213,0.247,0.429,0.19,0.694l-0.042-0.003c-0.928-0.028-1.854-0.168-2.783-0.092
		C54.27,73.296,54.226,73.067,54.046,73.057z"/>
	<path fill-rule="evenodd" clip-rule="evenodd" fill="#E36429" d="M29.511,60.586c-0.177-0.14-0.117-0.337-0.118-0.514
		c-0.008-1.188,0-2.376-0.019-3.562c-0.005-0.286,0.089-0.604-0.156-0.849c-0.006-0.136,0.078-0.143,0.178-0.126
		c0.304,0.203,0.271,0.521,0.272,0.817c0.01,1.069,0,2.14,0.006,3.214c0.004,0.654,0.073,0.77,0.712,0.865
		c1.213,0.183,2.434,0.161,3.649,0.012c0.397-0.049,0.785-0.174,1.19-0.168c0.119,0.033,0.254,0.051,0.236,0.228
		c-0.439,0.274-0.95,0.257-1.434,0.338c-1.391,0.23-2.775,0.197-4.152-0.109C29.748,60.7,29.615,60.68,29.511,60.586z"/>
	<path fill-rule="evenodd" clip-rule="evenodd" fill="#FEC09F" d="M43.607,47.711c-0.035,0-0.066,0-0.101-0.001
		c-0.15-0.06-0.323-0.074-0.438-0.203c-0.151-0.203-0.205-0.353,0.025-0.591c0.217-0.219,0.232-0.606,0.515-0.814l-0.001,0.001
		c-0.104-0.543,0.309-0.444,0.608-0.484c0.16,0.05,0.263,0.149,0.255,0.332c-0.202,0.182-0.012,0.46-0.159,0.654l0.001-0.001
		c-0.32,0.128-0.099,0.422-0.195,0.62C43.821,47.252,43.74,47.511,43.607,47.711z"/>
	<path fill-rule="evenodd" clip-rule="evenodd" fill="#E05C20" d="M35.458,60.46c-0.068-0.025-0.137-0.048-0.207-0.073
		c0.026-0.266,0.263-0.214,0.418-0.26c1.301-0.377,1.249-0.363,1.028-1.669c-0.241-1.431-0.553-2.85-0.731-4.287
		c-0.04-0.326,0.021-0.609,0.412-0.683c0.052,0.007,0.094,0.034,0.125,0.077c-0.244,0.191-0.311,0.411-0.247,0.736
		c0.333,1.707,0.63,3.42,0.957,5.128c0.045,0.233,0.026,0.424-0.096,0.612c-0.023,0-0.043-0.002-0.065-0.007
		c-0.433,0.191-0.88,0.346-1.336,0.472C35.62,60.532,35.526,60.581,35.458,60.46z"/>
	<path fill-rule="evenodd" clip-rule="evenodd" fill="#2D1A08" d="M35.458,60.46c0.562-0.027,1.028-0.412,1.593-0.424
		c-0.148,0.399-0.564,0.346-0.85,0.429c-2.083,0.61-4.197,0.829-6.345,0.34c-0.112-0.026-0.232-0.017-0.348-0.023
		c0-0.064,0.001-0.128,0.002-0.195c1.821,0.444,3.644,0.387,5.467,0.007C35.139,60.561,35.298,60.505,35.458,60.46z"/>
	<path fill-rule="evenodd" clip-rule="evenodd" fill="#F2AB86" d="M36.563,45.191c0.071-0.129,0.127,0.035,0.192,0.008
		c0.119,0.117,0.31-0.034,0.419,0.115c0.258,0.764,0.343,1.515-0.203,2.204C36.715,46.761,36.56,45.989,36.563,45.191z"/>
	<path fill-rule="evenodd" clip-rule="evenodd" fill="#E45B1D" d="M30.525,52.149c0.004,0.197,0.008,0.392,0.013,0.59
		c-0.474-0.278-0.943-0.196-1.41,0.018c-0.761,0.344-1.521,0.698-2.308,0.983c-0.292,0.108-0.329,0.282-0.243,0.549
		c0.079,0.247,0.265,0.478,0.151,0.764c-0.043,0.037-0.086,0.038-0.13,0.003c-0.202-0.45-0.428-0.893-0.41-1.41
		c0.941-0.396,1.88-0.793,2.823-1.184C29.495,52.263,30.004,52.175,30.525,52.149z"/>
	<path fill-rule="evenodd" clip-rule="evenodd" fill="#949494" d="M56.695,15.114c1.266-0.332,2.53-0.665,3.796-0.997
		c0.004,0.062,0.009,0.125,0.013,0.188c-1.221,0.413-2.466,0.73-3.717,1.026C56.628,15.312,56.619,15.231,56.695,15.114z"/>
	<path fill-rule="evenodd" clip-rule="evenodd" fill="#EDAD8C" d="M42.3,47.812c-0.414-0.196-0.284-0.627-0.393-0.951
		c-0.055-0.166,0.007-0.366-0.016-0.55c-0.017-0.114,0.119-0.335-0.156-0.328c-0.201,0.006-0.367,0.062-0.344,0.32
		c0.014,0.136,0.001,0.271,0,0.402c-0.035,0.036-0.069,0.033-0.102-0.004c-0.053-0.499-0.006-0.927,0.646-0.975
		c0.221-0.018,0.454-0.128,0.443-0.39c-0.012-0.286-0.28-0.22-0.465-0.256c-0.113-0.023-0.224-0.059-0.335-0.09
		c0.01-0.032,0.021-0.063,0.034-0.097c0.835,0.016,0.946,0.083,0.987,0.605c-0.003,0.021-0.009,0.046-0.014,0.071
		c-0.499,0.475-0.541,1.031-0.332,1.653C42.318,47.41,42.381,47.611,42.3,47.812z"/>
	<path fill-rule="evenodd" clip-rule="evenodd" fill="#E15E23" d="M26.599,55.056c0.034,0,0.069,0,0.104,0
		c0.201,0.062,0.275,0.239,0.339,0.404c0.147,0.377,0.389,0.433,0.749,0.305c0.375-0.127,0.759-0.233,1.146-0.322
		c0.138-0.03,0.33-0.159,0.388,0.116c-0.035,0.032-0.07,0.068-0.105,0.103c-0.476,0.142-0.968,0.237-1.421,0.431
		c-0.526,0.225-0.835,0.112-0.992-0.432C26.737,55.457,26.667,55.259,26.599,55.056z"/>
	<path fill-rule="evenodd" clip-rule="evenodd" fill="#A1938B" d="M49.055,20.238c-0.119-0.965-0.493-1.867-0.713-2.808
		c0.072-0.064,0.148-0.061,0.228-0.016c0.431,0.721,0.584,1.525,0.707,2.338C49.243,19.933,49.332,20.17,49.055,20.238z"/>
	<path fill-rule="evenodd" clip-rule="evenodd" fill="#E2A588" d="M22.176,53.646c-0.004-0.211-0.194-0.196-0.318-0.255
		c-0.366-0.179-0.737-0.351-1.159-0.547c0.012,0.335,0.383,0.421,0.374,0.702c-0.02,0.007-0.04,0.015-0.06,0.023
		c-0.123-0.017-0.166-0.134-0.25-0.197c-0.094-0.117-0.24-0.217-0.27-0.349c-0.043-0.196,0.028-0.504,0.289-0.347
		c0.605,0.36,1.265,0.594,1.886,0.913c0.051,0.028,0.078,0.105,0.116,0.158C22.582,53.714,22.379,53.683,22.176,53.646z"/>
	<path fill-rule="evenodd" clip-rule="evenodd" fill="#B5B7B7" d="M77.513,75.281c0.147-0.166,0.344-0.097,0.52-0.097
		c1.239-0.007,2.479-0.005,3.718-0.004c0.2,0,0.402,0.015,0.585-0.098c0.361,0.271,0.037,0.21-0.108,0.211
		c-0.868,0.004-1.738,0.004-2.607,0.001C78.917,75.293,78.215,75.286,77.513,75.281z"/>
	<path fill-rule="evenodd" clip-rule="evenodd" fill="#B5B7B7" d="M2.666,75.083c0.181,0.113,0.383,0.098,0.584,0.098
		c1.238-0.001,2.478-0.003,3.716,0.004c0.175,0,0.372-0.069,0.521,0.095c-1.572,0.006-3.143,0.013-4.714,0.014
		C2.629,75.293,2.301,75.355,2.666,75.083z"/>
	<path fill-rule="evenodd" clip-rule="evenodd" fill="#A89589" d="M49.055,20.238c0.145-0.147,0.06-0.334,0.088-0.503
		c0.244,0.01,0.25,0.199,0.243,0.36c-0.038,0.945,0.222,1.785,0.848,2.505c0.035,0.038,0.031,0.094,0.023,0.145
		c-0.106,0.047-0.237-0.11-0.33,0.042C49.33,22.043,49.161,21.152,49.055,20.238z"/>
	<path fill-rule="evenodd" clip-rule="evenodd" fill="#E3A386" d="M21.074,53.547c0.186,0.352,0.001,0.403-0.296,0.357
		c-0.493-0.078-0.964-0.236-1.434-0.446c-0.014,0.202,0.187,0.249,0.216,0.393c-0.04,0.047-0.083,0.051-0.131,0.011
		c-0.056-0.036-0.118-0.065-0.168-0.105c-0.109-0.09-0.3-0.157-0.222-0.338c0.087-0.197,0.264-0.131,0.432-0.083
		c0.331,0.1,0.624,0.314,0.985,0.317c0.213,0.093,0.41,0.066,0.587-0.086L21.074,53.547z"/>
	<path fill-rule="evenodd" clip-rule="evenodd" fill="#DD632B" d="M38.285,51.109c0.059,0.078,0.121,0.156,0.18,0.234
		c0.269,0.393,0.172,0.663-0.225,0.924c-0.511,0.334-0.982,0.727-1.47,1.092c-0.034-0.036-0.054-0.078-0.059-0.125
		c0.197-0.434,0.621-0.621,0.965-0.896c0.351-0.275,0.774-0.496,0.523-1.062C38.176,51.218,38.227,51.149,38.285,51.109z"/>
	<path fill-rule="evenodd" clip-rule="evenodd" fill="#ACAEAD" d="M74.796,72.766c-0.201-0.203-0.4-0.404-0.602-0.607
		c0.375-0.233,0.698,0.016,1.029,0.127c0.196,0.063,0.115,0.192,0,0.299c-0.099,0.093-0.27,0.055-0.336,0.198
		C74.858,72.775,74.827,72.77,74.796,72.766z"/>
	<path fill-rule="evenodd" clip-rule="evenodd" fill="#999693" d="M58.901,20.142c0.2-0.098,0.4-0.196,0.601-0.293
		c-0.134,0.46-0.372,0.86-0.699,1.209C58.631,20.73,58.789,20.439,58.901,20.142z"/>
	<path fill-rule="evenodd" clip-rule="evenodd" fill="#FDF5EA" d="M37.457,49.319c-0.032,0.096-0.127,0.099-0.203,0.131
		c-0.276,0.392-0.707,0.548-1.117,0.737c-0.101-0.009-0.207-0.011-0.179-0.161c0.123-0.214,0.306-0.367,0.496-0.514
		c0.124,0.163,0.246,0.102,0.371,0.001C37.011,49.366,37.22,49.3,37.457,49.319z"/>
	<path fill-rule="evenodd" clip-rule="evenodd" fill="#802814" d="M37.175,45.314c-0.14-0.038-0.306,0.023-0.419-0.115
		c0.226,0.005,0.299-0.013,0.131-0.254c-0.171-0.243-0.483-0.494-0.212-0.859c0.211,0.328,0.279,0.74,0.596,1.008
		c0.065,0.113-0.035,0.145-0.101,0.193L37.175,45.314z"/>
	<path fill-rule="evenodd" clip-rule="evenodd" fill="#C5BBB6" d="M47.944,15.913c0.142,0.116,0.302,0.125,0.473,0.095
		c0.196,0.185,0.168,0.39,0.06,0.604c-0.107,0.101-0.223,0.096-0.337,0.013C48.076,16.388,48.009,16.151,47.944,15.913z"/>
	<path fill-rule="evenodd" clip-rule="evenodd" fill="#E4AA8F" d="M19.429,53.861c0.044-0.003,0.087-0.008,0.131-0.011
		c0.03,0.09,0.198,0.109,0.142,0.227c-0.056,0.114-0.165,0.04-0.257,0.022c-0.23-0.054-0.496-0.144-0.397,0.277
		c-0.14-0.049-0.3-0.111-0.277-0.284c0.027-0.204,0.215-0.146,0.353-0.154C19.23,53.929,19.353,53.986,19.429,53.861z"/>
	<path fill-rule="evenodd" clip-rule="evenodd" fill="#858482" d="M58.901,20.142c0.028,0.312-0.161,0.601-0.099,0.916
		c-0.066,0.076-0.131,0.153-0.194,0.229c-0.074-0.357,0.141-0.688,0.089-1.042c0.001-0.035,0.003-0.07,0.004-0.105
		C58.768,20.14,58.834,20.141,58.901,20.142z"/>
	<path fill-rule="evenodd" clip-rule="evenodd" fill="#D0C0B6" d="M48.534,17.434c-0.062-0.001-0.13-0.002-0.192-0.003
		c-0.059-0.207-0.118-0.414-0.179-0.62c0.105-0.082,0.216-0.073,0.323-0.006C48.67,17.002,48.716,17.209,48.534,17.434z"/>
	<path fill-rule="evenodd" clip-rule="evenodd" fill="#EDE7E4" d="M47.854,73.465c0.092,0.069,0.186,0.139,0.277,0.208
		c-0.264,0.174-0.497,0.067-0.745-0.056C47.515,73.409,47.698,73.49,47.854,73.465z"/>
	<path fill-rule="evenodd" clip-rule="evenodd" fill="#EDE7E4" d="M48.927,73.434l0.002,0.021c0.096,0.1,0.105,0.205,0.017,0.316
		c-0.003,0.033-0.007,0.068-0.013,0.102c-0.248-0.138-0.569,0.009-0.8-0.2C48.44,73.736,48.715,73.7,48.927,73.434z"/>
	<path fill-rule="evenodd" clip-rule="evenodd" fill="#4D2F1E" d="M68.24,44.492c-0.127-0.403-0.146-0.805,0.01-1.205
		C68.272,43.688,68.356,44.091,68.24,44.492z"/>
	<path fill-rule="evenodd" clip-rule="evenodd" fill="#793021" d="M36.915,44.007c0.196-0.015,0.269-0.129,0.251-0.312
		c0.158-0.026,0.278,0.063,0.435,0.141C37.391,44.023,37.199,44.18,36.915,44.007z"/>
	<path fill-rule="evenodd" clip-rule="evenodd" fill="#FCF2E9" d="M21.042,53.566c-0.143,0.394-0.378,0.147-0.587,0.086
		c0.168-0.021,0.444,0.072,0.309-0.279C20.856,53.438,20.95,53.502,21.042,53.566z"/>
	<path fill-rule="evenodd" clip-rule="evenodd" fill="#E9AF90" d="M44.117,47.224c0.093-0.199-0.39-0.575,0.195-0.62
		c-0.12,0.181-0.104,0.387-0.105,0.585C44.18,47.207,44.152,47.219,44.117,47.224z"/>
	<path fill-rule="evenodd" clip-rule="evenodd" fill="#E25C20" d="M36.762,53.24c0.003,0.04,0.006,0.08,0.008,0.119
		c-0.065,0.102-0.149,0.177-0.267,0.206c-0.048-0.008-0.098-0.013-0.147-0.019C36.367,53.277,36.476,53.143,36.762,53.24z"/>
	<path fill-rule="evenodd" clip-rule="evenodd" fill="#A59891" d="M48.432,16.82c-0.091-0.003-0.182-0.006-0.269-0.009
		c-0.007-0.062-0.016-0.125-0.023-0.186c0.097,0.001,0.188,0.003,0.284,0.005C48.484,16.691,48.483,16.754,48.432,16.82z"/>
	<path fill-rule="evenodd" clip-rule="evenodd" fill="#69362B" d="M37.169,45.287c0.035-0.065,0.068-0.13,0.101-0.193
		c0.103-0.035,0.276,0.023,0.27,0.045C37.485,45.331,37.317,45.288,37.169,45.287z"/>
	<path fill-rule="evenodd" clip-rule="evenodd" fill="#1B5258" d="M29.428,61.295c0.144,0.156,0.104,0.329,0.033,0.6
		c-0.025-0.201-0.038-0.309-0.052-0.419C29.416,61.417,29.422,61.358,29.428,61.295z"/>
	<path fill-rule="evenodd" clip-rule="evenodd" fill="#FEC09F" d="M50.124,41.446c0.332-0.384,0.315-0.89,0.534-1.401
		c-0.576,0.203-1.064,0.374-1.428,0.797c-0.274,0.316-0.558,0.634-0.994,0.731c-0.351-0.107-0.244-0.279-0.126-0.525
		c0.676-1.369,1.975-1.86,3.259-2.382c0.091-0.036,0.181-0.076,0.271-0.114c0.831-0.099,1.668-0.026,2.499-0.044
		c0.286-0.006,0.568-0.016,0.821-0.168c0.675,0.137,1.421,1.161,1.299,1.795c-0.051,0.255-0.205,0.381-0.476,0.247
		c-0.401,0.122-0.692,0.354-0.792,0.782c-0.438-0.214-0.908-0.223-1.381-0.213c-0.672,0.063-0.627,0.628-0.753,1.073
		c-0.561,0.326-0.703,0.306-0.945-0.128c0.179-0.368,0.292-0.762,0.396-1.156c-0.09,0.408-0.241,0.795-0.406,1.178
		c-0.062,0.217-0.296,0.344-0.41,0.25c-0.407-0.333-0.979,0.175-1.33-0.298C50.058,41.733,50.09,41.591,50.124,41.446z"/>
	<path fill-rule="evenodd" clip-rule="evenodd" fill="#FEFEFE" d="M55.046,38.362c-0.106,0.103-0.094,0.307-0.336,0.301
		c-0.984-0.021-1.966-0.018-2.95-0.03c-0.039,0-0.079-0.053-0.119-0.08c0.878-1.251,1.56-2.604,2.116-4.024
		c0.082-0.419,0.115-0.855,0.419-1.198c0.232,0.031,0.193,0.246,0.24,0.387c0.442,1.268,0.653,2.581,0.69,3.921
		c0.004,0.181-0.046,0.369,0.052,0.541C55.194,38.285,55.155,38.343,55.046,38.362z"/>
	<path fill-rule="evenodd" clip-rule="evenodd" fill="#613925" d="M56.487,40.67c0.116,0.299,0.351,0.284,0.612,0.249
		c1.729-0.216,3.247-1.011,4.754-1.795c0.962-0.499,1.901-1.044,2.747-1.743c0.434-0.359,0.756-0.745,0.848-1.305
		c0.062-0.377,0.17-0.751,0.185-1.131c0.051-1.437,0.066-2.875,0.113-4.312c0.009-0.228-0.136-0.445-0.016-0.763
		c0.219,0.476,0.122,0.917,0.158,1.323c0.078,0.927,0.059,1.862,0.048,2.793c-0.007,0.649-0.05,1.301-0.102,1.949
		c-0.082,1.067-0.795,1.703-1.619,2.216c-1.721,1.07-3.516,2-5.416,2.71c-0.559,0.209-1.126,0.421-1.742,0.412
		c-0.356-0.003-0.652-0.12-0.873-0.403C56.23,40.723,56.306,40.616,56.487,40.67z"/>
	<path fill-rule="evenodd" clip-rule="evenodd" fill="#613720" d="M56.487,40.67c-0.103,0.065-0.201,0.132-0.303,0.2
		c-0.184-0.123-0.368-0.241-0.401-0.488c0.308-0.02,0.438-0.133,0.333-0.476c-0.131-0.414-0.322-0.786-0.535-1.161
		c-0.14-0.238-0.455-0.132-0.535-0.384c0.038-0.061,0.074-0.122,0.112-0.182c0.017-0.24,0.034-0.48,0.047-0.721
		c0.024,0,0.049,0.001,0.07,0.001c0,0.095,0.01,0.19-0.001,0.285c-0.036,0.294,0.071,0.417,0.354,0.275
		c0.232-0.117,0.369,0,0.521,0.147c0.609,0.593,0.776,1.332,0.74,2.146C56.876,40.58,56.692,40.633,56.487,40.67z"/>
	<path fill-rule="evenodd" clip-rule="evenodd" fill="#623925" d="M56.63,36.943c1.04-0.659,2.083-1.308,3.114-1.979
		c1.334-0.868,1.315-0.939,1.039-2.527c-0.18-1.025-0.207-2.077-0.199-3.129c0.144,0.937,0.288,1.874,0.427,2.811
		c0.09,0.606,0.16,1.218,0.268,1.822c0.036,0.225,0.021,0.371-0.188,0.506c-1.424,0.929-2.934,1.706-4.385,2.593
		C56.681,37.008,56.656,36.975,56.63,36.943z"/>
	<path fill-rule="evenodd" clip-rule="evenodd" fill="#F3F2F1" d="M54.963,25.59c0.121,0.392,0.543,0.543,0.714,0.894
		c-0.016,0.014-0.035,0.027-0.056,0.042c-0.236,0.049-0.391-0.122-0.572-0.218c-0.165-0.087-0.326-0.173-0.454,0.055
		c-0.099,0.179-0.131,0.398-0.33,0.512c-0.078,0.121-0.156,0.242-0.248,0.389c-0.229-0.417-0.324-0.839-0.369-1.277
		c-0.073-0.474,0.124-0.723,0.608-0.762c0.142-0.01,0.277-0.09,0.414-0.139C54.883,25.188,54.978,25.356,54.963,25.59z"/>
	<path fill-rule="evenodd" clip-rule="evenodd" fill="#FBF9F6" d="M53.552,40.888c0.448-0.232,0.891,0.045,1.337,0.023
		c0.03-0.002,0.069,0.165,0.103,0.253c-0.034,0.339-0.072,0.677-0.108,1.014c0.021,0.335,0.014,0.668,0.003,1.002
		c-0.001,0.063-0.001,0.132-0.002,0.195c-0.006,0.022-0.016,0.043-0.023,0.065c-0.31,0.272-0.684,0.322-1.071,0.275
		c-0.25-0.026-0.449-0.139-0.316-0.455c0.013-0.004,0.029-0.013,0.047-0.013c0.28,0.011,0.599,0.234,0.822-0.108
		c0.2-0.308,0.069-0.615-0.045-0.912c-0.12-0.314-0.309-0.59-0.509-0.86C53.684,41.226,53.531,41.098,53.552,40.888z"/>
	<path fill-rule="evenodd" clip-rule="evenodd" fill="#613821" d="M57.589,26.402c0.032,0.028,0.067,0.057,0.103,0.085
		c-0.63,1.144-1.998,1.459-2.984,0.66c-0.145-0.118-0.33-0.007-0.427-0.167c0.107-0.204,0.312-0.259,0.504-0.342
		c0.045-0.005,0.094,0.002,0.136,0.019c0.621,0.408,1.146,0.385,1.727-0.075c0.129-0.104,0.235-0.234,0.38-0.32
		c0.042-0.021,0.087-0.03,0.134-0.031C57.323,26.233,57.408,26.434,57.589,26.402z"/>
	<path fill-rule="evenodd" clip-rule="evenodd" fill="#5E3825" d="M54.176,33.331c-0.09,0.417-0.218,0.821-0.419,1.198
		c-0.188-1.38-0.556-2.73-0.64-4.131C53.485,31.372,54.056,32.269,54.176,33.331z"/>
	<path fill-rule="evenodd" clip-rule="evenodd" fill="#4F3526" d="M54.784,26.663c-0.079,0.245-0.34,0.205-0.504,0.318
		c-0.005-0.035-0.011-0.071-0.016-0.105c0.072-0.193,0.146-0.385,0.219-0.578C54.751,26.278,54.86,26.395,54.784,26.663z"/>
	<path fill-rule="evenodd" clip-rule="evenodd" fill="#62402D" d="M54.886,43.181c-0.116-0.333-0.079-0.667-0.003-1.002
		C55.036,42.513,55.03,42.846,54.886,43.181z"/>
	<path fill-rule="evenodd" clip-rule="evenodd" fill="#FBF9F6" d="M55.053,43.592c-0.02,0.101-0.043,0.197-0.068,0.297
		c-0.285-0.117-0.293-0.144-0.125-0.484l0.024-0.028C54.941,43.448,54.997,43.52,55.053,43.592z"/>
	<path fill-rule="evenodd" clip-rule="evenodd" fill="#FEFEFE" d="M54.859,43.404c-0.013,0.177-0.088,0.371,0.125,0.484
		c-0.004,0.067-0.009,0.135-0.013,0.204c-0.172,0.469,0.051,0.96-0.088,1.433c-0.184,1.662-0.36,3.325-0.555,4.983
		c-0.175,1.464-0.392,2.919-0.547,4.381c-0.109,1.007,0.123,2.002,0.225,2.997c0.302,2.979,0.648,5.953,0.949,8.933
		c0.037,0.396,0.164,0.568,0.535,0.601c0.132,0.181,0.192,0.362,0.026,0.557c-0.521,0.437-0.884,1.032-1.464,1.418
		c-0.441,0.294-0.884,0.592-1.347,0.855c-0.164,0.093-0.33,0.243-0.551,0.106c0.052-0.325-0.091-0.625-0.133-0.938
		c-0.033-0.255-0.226-0.284-0.447-0.282c-0.871,0.006-1.742-0.001-2.613-0.003c-0.006-0.15-0.018-0.301-0.018-0.45
		c0-8.356,0-16.714-0.001-25.071c0-0.938,0.319-1.699,1.18-2.167c0.146,0.558,0.248,0.631,0.819,0.454
		c0.148-0.044,0.185,0.012,0.275,0.077c0.227,0.158,0.459,0.18,0.64-0.083c0.021-0.068,0.055-0.076,0.101-0.022
		c0.252,0.527,0.596,0.121,0.902,0.091c0.433,0.189,0.677,0.697,0.62,1.286c0.109,0.359,0.6,0.521,0.975,0.286
		C54.592,43.449,54.729,43.465,54.859,43.404z"/>
	<path fill-rule="evenodd" clip-rule="evenodd" fill="#FEFEFE" d="M68.344,66.954c0.127,0.218,0.282,0.424,0.318,0.684
		c0.059,0.944-0.356,1.732-0.828,2.502c-0.298,0.157-0.445-0.101-0.57-0.258c-0.406-0.508-0.911-0.653-1.541-0.616
		c-0.745,0.046-1.493,0.004-2.3,0.016c0.201,0.46,0.524,0.751,0.76,1.1c0.211,0.308,0.559,0.54,0.557,0.971
		c-0.11,0.144-0.271,0.103-0.414,0.103c-1.3,0-2.597-0.004-3.896-0.007c-0.022-0.003-0.048-0.007-0.073-0.009
		c-0.446-0.518-0.858-1.059-1.154-1.68c-0.074-0.363,0.01-0.747-0.144-1.104c-0.088-0.5-0.247-1.003-0.049-1.514
		c0.136-0.069,0.271-0.138,0.408-0.206c0.062-0.164-0.002-0.345,0.078-0.507c-0.055-2.546-0.107-5.089-0.163-7.635
		c-0.022-1.07-0.081-2.143-0.059-3.212c0.024-1.01,0.371-1.97,0.561-2.957c0.274-1.411,0.582-2.817,0.88-4.225
		c0.052-0.253,0.058-0.624,0.361-0.639c0.273-0.014,0.336,0.341,0.398,0.575c0.221,0.841,0.421,1.688,0.628,2.529
		c0.124,0.206,0.172,0.428,0.127,0.667c0.358,3.083,1.164,6.021,2.559,8.816c1.016,2.034,1.887,4.142,2.787,6.232
		C67.753,66.993,68.041,66.931,68.344,66.954z"/>
	<path fill-rule="evenodd" clip-rule="evenodd" fill="#252127" d="M54.996,44.988c2.23,0.631,4.513,0.869,6.821,0.8
		c2.05-0.061,4.089-0.266,6.016-1.066c0.091-0.04,0.203-0.146,0.321-0.033c-0.004,0.101-0.007,0.196-0.011,0.296
		c-0.023,0.056-0.054,0.062-0.088,0.012c-1.424,0.487-2.878,0.857-4.374,0.98c-1.513,0.128-3.022,0.189-4.548,0.053
		c-1.422-0.13-2.804-0.366-4.149-0.834C54.918,45.121,54.912,45.053,54.996,44.988z"/>
	<path fill-rule="evenodd" clip-rule="evenodd" fill="#A09F9F" d="M59.009,67.142c0.114,0.491-0.008,1.017,0.193,1.496
		c-0.558,0.501-1.139,0.565-1.651,0.06c-0.472-0.471-1.016-0.606-1.632-0.627c-0.163-0.006-0.338,0.01-0.452-0.155
		c0.104-0.16,0.001-0.331,0.024-0.495C56.675,67.446,57.846,67.328,59.009,67.142z"/>
	<path fill-rule="evenodd" clip-rule="evenodd" fill="#272C3E" d="M68.056,44.996c0.029,0,0.059-0.004,0.089-0.011
		c-0.001,1.504-0.001,3.008-0.001,4.509c-0.03,0-0.06,0.001-0.088,0.001C68.056,47.998,68.056,46.497,68.056,44.996z"/>
	<path fill-rule="evenodd" clip-rule="evenodd" fill="#FBF9F6" d="M54.996,44.988c-0.004,0.068-0.007,0.137-0.012,0.207
		c-0.03,0.11-0.066,0.222-0.101,0.33c0.015-0.48-0.189-0.971,0.088-1.433C55.023,44.39,54.89,44.691,54.996,44.988z"/>
	<path fill-rule="evenodd" clip-rule="evenodd" fill="#272C3A" d="M62.229,51.533c-0.087-0.213-0.123-0.438-0.127-0.667
		c0.023-0.048,0.081-0.14,0.082-0.126C62.215,51.001,62.458,51.26,62.229,51.533z"/>
	<path fill-rule="evenodd" clip-rule="evenodd" fill="#242733" d="M59.495,66.429c0.001,0.172,0.12,0.364-0.078,0.507
		C59.341,66.752,59.376,66.584,59.495,66.429z"/>
	<path fill-rule="evenodd" clip-rule="evenodd" fill="#F95005" d="M36.762,53.24c-0.199,0.016-0.31,0.151-0.405,0.307
		c-0.279,0.15-0.32,0.372-0.266,0.675c0.239,1.357,0.449,2.714,0.685,4.071c0.062,0.357,0.171,0.706,0.222,1.071
		c0.041,0.303-0.031,0.437-0.294,0.524c-0.483,0.164-0.968,0.331-1.452,0.498c-1.278,0.299-2.575,0.345-3.88,0.311
		c-0.455-0.012-0.891-0.097-1.334-0.178c-0.397-0.072-0.524-0.266-0.521-0.647c0.015-1.226,0.004-2.447,0.004-3.668
		c0-0.235,0.012-0.475-0.196-0.646c-0.546-0.088-1.033,0.177-1.507,0.344c-0.545,0.195-0.758,0.02-0.916-0.442
		c-0.047-0.141-0.131-0.268-0.199-0.404c-0.101-0.314-0.199-0.63-0.305-0.942c-0.068-0.205-0.031-0.37,0.186-0.438
		c0.977-0.308,1.869-0.825,2.833-1.155c0.358-0.125,0.855-0.373,1.122,0.22c0.681,1.253,2.607,0.919,3.325,0.203
		c0.241-0.24,0.361-0.563,0.262-0.918c-0.049-0.182-0.09-0.352-0.07-0.539c0.542-0.347,1.083-0.689,1.626-1.037
		c0.04-0.262,0.304-0.218,0.456-0.326c0.372-0.224,0.746-0.448,1.117-0.672c0.396,0.519,0.785,1.048,1.031,1.66
		c0.331,0.717-0.122,1.062-0.636,1.41C37.334,52.731,37.055,53,36.762,53.24z"/>
	<path fill-rule="evenodd" clip-rule="evenodd" fill="#6F1609" d="M34.363,47.715c0.425-0.062,0.561,0.188,0.588,0.551
		c0.036,0.473-0.141,0.877-0.412,1.247c-0.063,0.07-0.154,0.082-0.229,0.07c-0.668-0.1-1.257,0.038-1.738,0.539
		c-0.058,0.064-0.151,0.063-0.235,0.027c-0.392-0.117-0.745-0.303-0.99-0.645c-0.36-0.499-0.248-0.793,0.366-0.967
		C32.776,48.845,33.642,48.512,34.363,47.715z"/>
	<path fill-rule="evenodd" clip-rule="evenodd" fill="#F7FCFB" d="M29.411,48.121c-0.187,0.043-0.276-0.096-0.379-0.204
		c-0.185-0.078-0.291-0.24-0.409-0.39c-0.005-0.043-0.008-0.082-0.012-0.125c0.001-0.021,0.002-0.045,0.003-0.07
		c0.009-0.21-0.008-0.422,0.014-0.637c0.106-0.362,0.38-0.556,0.708-0.691c0.034-0.007,0.068-0.014,0.103-0.021
		c0.042-0.03,0.088-0.056,0.14-0.069c0.204-0.008,0.409-0.042,0.609,0.035c0.157,0.209-0.087,0.221-0.157,0.319
		c-0.126,0.102-0.09,0.221-0.026,0.34c0.092,0.179,0.013,0.307-0.125,0.415c-0.035,0.021-0.074,0.032-0.114,0.038
		c-0.113,0.009-0.088,0.078-0.056,0.146c0.024,0.034,0.043,0.072,0.065,0.104c0.404,0.407,0.751,0.38,1.132-0.094
		c0.06-0.122,0.092-0.252,0.172-0.364c0.019-0.015,0.037-0.023,0.055-0.038c0.031-0.006,0.063-0.006,0.096,0
		c0.119,0.18,0.12,0.404,0.204,0.595c-0.16,0.558-0.689,0.539-1.099,0.711C30.026,48.188,29.718,48.187,29.411,48.121z"/>
	<path fill-rule="evenodd" clip-rule="evenodd" fill="#F8FCFC" d="M35.749,46.291c-0.377,0.508-0.902,0.65-1.5,0.626
		c-0.121-0.004-0.215-0.025-0.292-0.146c-0.4-0.606-0.26-1.611,0.306-2.097c0.29-0.345,0.641-0.185,0.981-0.113
		c0.056,0.076,0.021,0.133-0.04,0.185c-0.155,0.093-0.347,0.104-0.504,0.245c0.077,0.146,0.311,0.313,0.105,0.482
		c-0.343,0.282-0.088,0.437,0.089,0.62c0.166,0.119,0.333,0.081,0.501,0.001c0.105-0.046,0.198-0.133,0.326-0.116
		C35.838,46.073,35.841,46.18,35.749,46.291z"/>
	<path fill-rule="evenodd" clip-rule="evenodd" fill="#621E14" d="M34.853,46.205c-0.266-0.15-0.37-0.411-0.48-0.675
		c0.125-0.102,0.404,0.092,0.422-0.201c0.013-0.196-0.153-0.229-0.318-0.265c0.163-0.243,0.38-0.352,0.657-0.354
		c0.083,0.031,0.176,0.011,0.262,0.03c0.044,0.009,0.082,0.03,0.111,0.063c-0.007,0.036,0.006,0.065,0.037,0.082
		c0.167,0.144,0.269,0.322,0.351,0.521c0.016,0.07,0.015,0.14-0.017,0.205c-0.008,0.029-0.014,0.055-0.017,0.085
		c-0.062,0.104-0.033,0.26-0.183,0.31c-0.075,0.055-0.151,0.113-0.228,0.168C35.252,46.189,35.053,46.212,34.853,46.205z"/>
	<path fill-rule="evenodd" clip-rule="evenodd" fill="#EAA083" d="M33.762,51.544c-0.209,0.167-0.062,0.395-0.105,0.591
		c-1.223,0.353-1.767,0.277-2.646-0.42C31.986,51.797,32.861,51.516,33.762,51.544z"/>
	<path fill-rule="evenodd" clip-rule="evenodd" fill="#F3ECE8" d="M34.363,47.715c-0.384,0.919-1.891,1.387-2.65,0.824
		C32.551,48.117,33.461,47.933,34.363,47.715z"/>
	<path fill-rule="evenodd" clip-rule="evenodd" fill="#DF956E" d="M26.703,49.497c-0.026-0.238,0.117-0.407,0.312-0.514
		c0.228-0.121,0.308,0.124,0.438,0.232c0.227,0.186,0.318,0.463,0.462,0.705c0.19,0.318,0.011,0.43-0.255,0.466
		C27.175,50.452,26.694,50.002,26.703,49.497z"/>
	<path fill-rule="evenodd" clip-rule="evenodd" fill="#FC8B89" d="M29.558,49.525c-0.331-0.003-0.626-0.019-0.669-0.327
		c-0.041-0.282,0.202-0.446,0.448-0.53c0.321-0.111,0.65-0.156,0.951,0.068c0.127,0.097,0.135,0.22,0.052,0.356
		C30.141,49.411,29.826,49.49,29.558,49.525z"/>
	<path fill-rule="evenodd" clip-rule="evenodd" fill="#D86C5B" d="M32.336,50.149c0.205-0.166,0.401-0.343,0.614-0.496
		c0.499-0.352,1.045-0.246,1.589-0.141C33.947,50.219,33.195,50.37,32.336,50.149z"/>
	<path fill-rule="evenodd" clip-rule="evenodd" fill="#4D0F07" d="M28.108,44.492c0.141-0.072,0.279-0.141,0.418-0.21
		c0.125-0.086,0.279-0.026,0.41-0.08c0.224,0.048,0.596-0.2,0.644,0.13c0.042,0.291-0.36,0.185-0.562,0.243
		c-0.444,0.135-0.832,0.333-1.118,0.705c-0.087,0.115-0.17,0.314-0.338,0.194c-0.187-0.134-0.017-0.291,0.063-0.435
		C27.747,44.822,28.024,44.74,28.108,44.492z"/>
	<path fill-rule="evenodd" clip-rule="evenodd" fill="#FB8B89" d="M35.877,46.808c0.27-0.004,0.494,0.023,0.473,0.298
		c-0.028,0.389-0.345,0.516-0.664,0.564c-0.198,0.026-0.427-0.082-0.419-0.33C35.28,46.932,35.607,46.857,35.877,46.808z"/>
	<path fill-rule="evenodd" clip-rule="evenodd" fill="#50120B" d="M34.543,42.703c0.301,0.011,0.595,0.058,0.864,0.205
		c0.085,0.045,0.175,0.116,0.116,0.235c-0.056,0.107-0.151,0.104-0.254,0.058c-0.519-0.241-1.032-0.195-1.541,0.028
		c-0.11,0.047-0.232,0.112-0.299-0.033c-0.079-0.176,0.082-0.232,0.196-0.284C33.917,42.784,34.225,42.716,34.543,42.703z"/>
	<path fill-rule="evenodd" clip-rule="evenodd" fill="#6A3C2B" d="M35.508,44.805l0.004-0.006c-0.139,0.006-0.189-0.107-0.265-0.187
		c-0.329,0.024-0.669-0.155-0.985,0.062c0.132-0.464,0.515-0.33,0.804-0.285C35.254,44.414,35.624,44.395,35.508,44.805z"/>
	<path fill-rule="evenodd" clip-rule="evenodd" fill="#6A3C2A" d="M29.336,46.004c-0.155,0.282-0.615,0.29-0.618,0.706
		c-0.138,0.218,0.022,0.479-0.098,0.699l-0.01-0.007C28.316,46.733,28.685,46.023,29.336,46.004z"/>
	<path fill-rule="evenodd" clip-rule="evenodd" fill="#751C07" d="M27.393,48.009c-0.137-0.366-0.138-0.73,0.001-1.096
		C27.508,47.279,27.541,47.643,27.393,48.009z"/>
	<path fill-rule="evenodd" clip-rule="evenodd" fill="#DDB7AB" d="M29.924,46.195c0.097-0.061,0.193-0.116,0.29-0.173
		c0.063-0.138,0.227-0.02,0.305-0.119c0.136,0.1,0.273,0.198,0.409,0.299c-0.066,0.086-0.147,0.148-0.26,0.16
		C30.414,46.329,30.139,46.398,29.924,46.195z"/>
	<path fill-rule="evenodd" clip-rule="evenodd" fill="#C48263" d="M32.665,47.43c0.292-0.438,0.498-0.438,0.914,0.031
		C33.229,47.323,32.939,47.069,32.665,47.43z"/>
	<path fill-rule="evenodd" clip-rule="evenodd" fill="#997160" d="M30.519,45.903c-0.067,0.134-0.194,0.102-0.305,0.119
		c-0.225-0.107-0.463-0.01-0.692-0.047c0.136-0.283,0.419-0.02,0.593-0.159C30.25,45.844,30.384,45.876,30.519,45.903z"/>
	<path fill-rule="evenodd" clip-rule="evenodd" fill="#F5D7C7" d="M30.733,46.271c0.065-0.024,0.131-0.049,0.195-0.069
		c0.075,0.2,0.421,0.313,0.206,0.612l-0.011-0.004c-0.117,0.027-0.152-0.059-0.201-0.132C30.866,46.538,30.725,46.44,30.733,46.271z
		"/>
	<path fill-rule="evenodd" clip-rule="evenodd" fill="#E1B8AC" d="M35.857,45.371c-0.221-0.085-0.257-0.289-0.312-0.484
		c0.155,0.002,0.262,0.074,0.319,0.223C35.922,45.196,35.929,45.284,35.857,45.371z"/>
	<path fill-rule="evenodd" clip-rule="evenodd" fill="#FCE8D0" d="M36.137,50.122c-0.099,0.186-0.322,0.194-0.456,0.326
		c-0.118-0.278,0.173-0.29,0.278-0.422C35.996,50.101,36.062,50.118,36.137,50.122z"/>
	<path fill-rule="evenodd" clip-rule="evenodd" fill="#FAF1EA" d="M29.411,48.121c0.308-0.001,0.616-0.001,0.924-0.001
		C30.026,48.274,29.718,48.282,29.411,48.121z"/>
	<path fill-rule="evenodd" clip-rule="evenodd" fill="#F6E0D3" d="M35.678,46.007c0.049-0.109,0.028-0.263,0.183-0.31
		c0.138,0.231,0.053,0.422-0.111,0.594C35.755,46.191,35.777,46.083,35.678,46.007z"/>
	<path fill-rule="evenodd" clip-rule="evenodd" fill="#9E7765" d="M28.623,47.527c0.194,0.069,0.286,0.245,0.409,0.39
		C28.751,47.936,28.689,47.729,28.623,47.527z"/>
	<path fill-rule="evenodd" clip-rule="evenodd" fill="#81533F" d="M30.115,45.816c-0.166,0.168-0.427-0.011-0.593,0.159
		c-0.026,0.006-0.054,0.009-0.083,0.007C29.587,45.619,29.884,45.852,30.115,45.816z"/>
	<path fill-rule="evenodd" clip-rule="evenodd" fill="#FAF1EA" d="M31.433,47.409c-0.147-0.171-0.191-0.378-0.204-0.595
		C31.432,46.968,31.442,47.186,31.433,47.409z"/>
	<path fill-rule="evenodd" clip-rule="evenodd" fill="#812E16" d="M30.824,43.375c0.048,0.097,0.137,0.107,0.23,0.119
		c-0.122,0.092-0.264,0.179-0.395,0.075C30.613,43.535,30.755,43.435,30.824,43.375z"/>
	<path fill-rule="evenodd" clip-rule="evenodd" fill="#E9A490" d="M28.937,44.202c-0.124,0.098-0.261,0.115-0.41,0.08
		c0.058-0.123,0.181-0.146,0.293-0.183C28.859,44.133,28.898,44.169,28.937,44.202z"/>
	<path fill-rule="evenodd" clip-rule="evenodd" fill="#9E6E58" d="M35.857,45.371c0.002-0.09,0.004-0.176,0.007-0.262
		c0.142,0.163,0.153,0.329,0.014,0.503C35.872,45.532,35.864,45.451,35.857,45.371z"/>
	<path fill-rule="evenodd" clip-rule="evenodd" fill="#FEC09F" d="M48.432,16.82c-0.002-0.063-0.004-0.126-0.008-0.19
		c-0.002-0.207-0.004-0.415-0.007-0.622c0.007-0.435,0.008-0.875,0.247-1.26c0.354-0.572,0.748-0.988,1.537-0.965
		c1.191,0.036,2.35-0.22,3.433-0.761c0.683-0.34,2.015-0.126,2.6,0.362c0.398,0.329,0.421,0.771,0.461,1.218
		c-0.118,0.171-0.126,0.343,0.001,0.513c-0.007,0.088,0.021,0.161,0.092,0.217c0.097,0.227,0.194,0.453,0.288,0.68
		c0.763,1.329,0.743,2.76,0.494,4.199c-0.144,0.83-0.837,1.206-1.518,1.552c-0.219,0.112-0.304-0.084-0.373-0.228
		c-0.289-0.601-0.752-0.829-1.421-0.807c-0.569,0.018-1.132,0.114-1.701,0.123c-0.221-0.162-0.553,0.027-0.744-0.23
		c-0.091-0.136-0.004-0.273-0.003-0.409c0.022-0.108,0.062-0.21,0.098-0.313c0.018-0.064-0.085-0.029-0.021-0.014
		c0.014,0.002,0.001,0.053-0.012,0.084c-0.022,0.059-0.04,0.118-0.062,0.176c0.001,0.175-0.119,0.352,0.015,0.522
		c0.217,0.178,0.504,0.058,0.734,0.179c-0.305,0.119-0.612,0.233-0.914,0.361c-0.679,0.29-0.831,0.894-0.906,1.543
		c-0.16,0.094-0.325,0.091-0.489,0.001c0,0,0.004-0.004,0.004-0.004c-0.78-0.678-1-1.583-1.002-2.561
		c0-0.173,0.036-0.325-0.112-0.449c-0.067-0.804-0.396-1.538-0.608-2.302C48.545,17.221,48.555,17.01,48.432,16.82z"/>
	<path fill-rule="evenodd" clip-rule="evenodd" fill="#FEFEFE" d="M37.568,68.747c0.041,0.302,0.287,0.51,0.375,0.792
		c0.103,0.114,0.127,0.256,0.115,0.404c0.029,0.117,0.014,0.225-0.08,0.31c-0.115,0.622-0.709,0.95-0.927,1.506
		c-0.378,0.316-0.556,0.29-0.696-0.109c-0.183-0.202-0.123-0.439-0.095-0.67c0.054-0.467,0.111-0.933,0.172-1.397
		c0.032-0.229-0.044-0.296-0.262-0.294c-0.855,0.007-1.709,0.003-2.564,0.003c-0.303,0.001-0.456,0.153-0.529,0.434
		c-0.139,0.537-0.245,1.079-0.374,1.617c-0.047,0.193-0.068,0.402-0.271,0.514c-0.361,0.195-0.749,0.072-1.124,0.098
		c0.002-0.089,0.006-0.178,0.009-0.268c-0.202-0.383-0.07-0.81-0.158-1.209c-0.022-0.051-0.041-0.102-0.056-0.152
		c-0.037-0.564-0.058-1.127,0.024-1.688c-0.016-0.794,0.088-1.583,0.176-2.371c0.014-0.126-0.02-0.228-0.063-0.336
		c0.331-0.098,0.751,0.208,0.981-0.076c0.191-0.236,0.188-0.629,0.272-0.952c0.196-0.741,0.389-1.485,0.595-2.224
		c0.042-0.151,0.061-0.377,0.27-0.373c0.182,0.004,0.16,0.223,0.208,0.354c0.324,0.911,0.68,1.814,0.956,2.741
		c0.141,0.475,0.387,0.659,0.849,0.632c0.111,0.354,0.462,0.549,0.595,0.886c0.101,0.202,0.273,0.341,0.414,0.508
		C36.826,67.821,37.171,68.309,37.568,68.747z"/>
	<path fill-rule="evenodd" clip-rule="evenodd" fill="#FDFDFD" d="M73.911,71.956c-0.877-0.137-1.771-0.107-2.642-0.311
		c0.368-0.399,0.737-0.801,1.107-1.199C72.918,70.921,73.432,71.42,73.911,71.956z"/>
	<path fill-rule="evenodd" clip-rule="evenodd" fill="#2E8E91" d="M31.233,71.557c-0.631,0.35-1.296,0.627-1.971,0.87
		c-0.89,0.322-1.791,0.399-2.666-0.082c0.216-0.526,0.619-0.858,1.128-1.077c0.115-0.11,0.252-0.13,0.401-0.104
		c0.15,0.038,0.28,0.138,0.441,0.145c0.163,0.056,0.325,0.115,0.484-0.013c0.071-0.048,0.145-0.092,0.156-0.187
		c-0.055-0.138-0.17-0.197-0.296-0.244c-0.162-0.078-0.372-0.056-0.487-0.23c0.132-0.205,0.16-0.479,0.404-0.606
		c0.374-0.208,0.779-0.166,1.071,0.076c0.327,0.271,0.629,0.311,1,0.194c0.112-0.032,0.229-0.022,0.333,0.048l0.002,0.003
		C31.307,70.752,31.311,71.154,31.233,71.557z"/>
	<path fill-rule="evenodd" clip-rule="evenodd" fill="#FBFCE2" d="M31.232,70.346c-0.239,0.06-0.477,0.132-0.72,0.175
		c-0.213,0.039-0.437,0.137-0.528-0.229c-0.057-0.236-0.361-0.18-0.562-0.219c-0.194-0.038-0.396-0.033-0.594-0.046
		c0.004-0.163-0.066-0.36,0.187-0.406c0.517,0.007,1.035-0.008,1.55,0.028c0.389,0.026,0.505-0.126,0.473-0.488
		c-0.013-0.175-0.06-0.372,0.089-0.525C31.163,69.205,31.197,69.776,31.232,70.346z"/>
	<path fill-rule="evenodd" clip-rule="evenodd" fill="#A9AFAF" d="M26.522,72.373c-0.063,0.282,0.085,0.453,0.315,0.577
		c-0.368,0.047-0.679-0.089-1.012-0.3C26.05,72.458,26.258,72.349,26.522,72.373z"/>
	<path fill-rule="evenodd" clip-rule="evenodd" fill="#BFD2D7" d="M27.808,71.152c0.019-0.256,0.188-0.31,0.404-0.301
		c0.009,0.021,0.018,0.041,0.027,0.061c-0.005,0.069-0.035,0.131-0.079,0.182c-0.047,0.05-0.107,0.078-0.17,0.104
		C27.924,71.203,27.858,71.212,27.808,71.152z"/>
	<path fill-rule="evenodd" clip-rule="evenodd" fill="#B6DFE3" d="M27.808,71.152c0.071-0.001,0.142-0.001,0.213-0.001
		c0.064-0.052,0.131-0.059,0.202-0.014c0.021,0.05,0.017,0.095-0.012,0.14c-0.162-0.004-0.324-0.008-0.485-0.01
		c-0.042-0.021-0.085-0.039-0.126-0.059C27.649,71.122,27.737,71.167,27.808,71.152z"/>
	<path fill-rule="evenodd" clip-rule="evenodd" fill="#A9E7EC" d="M28.425,70.634c0.206-0.001,0.398,0.05,0.582,0.14
		c0.02,0.088-0.037,0.122-0.104,0.149c-0.069,0.016-0.138,0.012-0.208-0.007c-0.107-0.038-0.224-0.064-0.279-0.182
		C28.417,70.699,28.419,70.666,28.425,70.634z"/>
	<path fill-rule="evenodd" clip-rule="evenodd" fill="#5D8F96" d="M28.417,70.734c0.108,0.032,0.217,0.068,0.325,0.102
		c-0.042,0.098-0.126,0.136-0.22,0.162c-0.13,0.014-0.23-0.038-0.311-0.137l0-0.01C28.252,70.764,28.335,70.748,28.417,70.734z"/>
	<path fill-rule="evenodd" clip-rule="evenodd" fill="#BABCBB" d="M64.739,71.352c-0.484-0.634-0.969-1.269-1.453-1.904
		c-0.056-0.074-0.171-0.148-0.094-0.251c0.038-0.047,0.146-0.054,0.225-0.054c1.017-0.004,2.033,0.002,3.05-0.005
		c0.235-0.002,0.349,0.167,0.503,0.288c0.293,0.231,0.455,0.622,0.864,0.714c-0.364,0.547-1.041,0.761-1.395,1.315
		c-0.501,0.061-1.015-0.117-1.501,0.102C64.873,71.487,64.806,71.42,64.739,71.352z"/>
	<path fill-rule="evenodd" clip-rule="evenodd" fill="#1E575C" d="M39.589,72.083c-0.612,0.407-1.298,0.46-1.996,0.38
		c-0.312-0.035-0.55-0.221-0.507-0.6c0.734,0.618,2.03,0.462,2.604-0.326c0.41-0.562,0.805-1.136,1.207-1.708
		c0.263,0.429-0.244,0.605-0.299,0.929C40.449,71.344,40.098,71.773,39.589,72.083z"/>
	<path fill-rule="evenodd" clip-rule="evenodd" fill="#ACAEAD" d="M41.067,72.238c0.308,0.069,0.615,0.139,0.921,0.212
		c0.113,0.024,0.253,0.046,0.261,0.188c0.01,0.149-0.14,0.181-0.244,0.206c-0.324,0.076-0.649,0.155-0.977,0.188
		c-0.354,0.039-0.223-0.259-0.231-0.423C40.789,72.442,40.685,72.152,41.067,72.238z"/>
	<path fill-rule="evenodd" clip-rule="evenodd" fill="#F9FBFB" d="M39.589,72.083c0.379-0.409,0.713-0.852,1.01-1.325
		c0.21,0.489,0.058,0.998,0.082,1.497C40.34,72.043,39.932,72.28,39.589,72.083z"/>
	<path fill-rule="evenodd" clip-rule="evenodd" fill="#E1A386" d="M54.963,25.59c-0.097-0.168-0.194-0.335-0.293-0.502
		c1.104-0.456,1.929-1.271,2.716-2.127c0.258-0.28,0.487-0.585,0.812-0.797c0.179,0.131,0.06,0.278,0.005,0.403
		c-0.442,0.982-0.981,1.891-1.893,2.533C55.9,25.39,55.44,25.503,54.963,25.59z"/>
	<path fill-rule="evenodd" clip-rule="evenodd" fill="#FAF8F7" d="M54.372,21.313c0.036,0.014,0.068,0.028,0.105,0.041
		c0.129,0.311-0.112,0.436-0.306,0.536c-0.67,0.342-1.4,0.441-2.137,0.468c-0.227,0.008-0.47-0.083-0.495-0.39
		c0.005-0.039,0.011-0.076,0.017-0.114C52.495,21.674,53.434,21.494,54.372,21.313z"/>
	<path fill-rule="evenodd" clip-rule="evenodd" fill="#A89589" d="M50.253,22.75c0.163,0,0.328,0,0.489-0.001
		c0.002,0.037,0.004,0.074,0.006,0.111C50.583,22.834,50.385,22.935,50.253,22.75z"/>
	<path fill-rule="evenodd" clip-rule="evenodd" fill="#58351F" d="M55.467,67.915c0.364,0.018,0.729,0.006,1.094,0.077
		c0.387,0.076,0.707,0.193,0.979,0.517c0.4,0.472,0.816,0.509,1.386,0.211c0.092-0.047,0.172-0.101,0.276-0.082
		c0.145,0.39,0.05,0.806,0.127,1.203c0.099,0.516,0.32,1.022,0.143,1.565c-0.034,0.056-0.081,0.084-0.146,0.086
		c-0.007-0.067-0.024-0.134-0.017-0.201c0.039-0.397-0.095-0.452-0.446-0.283c-0.312,0.149-0.659,0.229-1.01,0.281
		c-0.828,0.121-1.6,0.453-2.4,0.678c-1.589,0.446-3.202,0.525-4.798-0.014c-0.063-0.007-0.097-0.038-0.111-0.098
		c0.128-0.595,0.519-0.946,1.064-1.172c0.195-0.081,0.414-0.14,0.548-0.327c1.109-0.481,2.097-1.137,2.872-2.078
		C55.15,68.127,55.229,67.926,55.467,67.915z"/>
	<path fill-rule="evenodd" clip-rule="evenodd" fill="#ACAEAD" d="M48.945,73.771c-0.004-0.106-0.01-0.212-0.017-0.316
		c1.021-0.172,2.032-0.119,3.052,0.065c-0.023,0.075-0.028,0.124-0.041,0.126C50.947,73.772,49.957,74.006,48.945,73.771z"/>
	<path fill-rule="evenodd" clip-rule="evenodd" fill="#ABACAB" d="M50.64,72.7c0,0.023,0.002,0.046,0.005,0.067
		c-0.201,0.002-0.394-0.002-0.587-0.081c-0.151-0.064-0.383-0.104-0.332-0.29c0.055-0.2,0.326-0.205,0.505-0.248
		c0.185-0.045,0.067,0.174,0.124,0.249c0.121,0.155,0.068-0.049,0.108-0.061C50.69,72.377,50.544,72.599,50.64,72.7z"/>
	<path fill-rule="evenodd" clip-rule="evenodd" fill="#2C1202" d="M50.64,72.7c-0.159-0.071-0.081-0.258-0.177-0.363
		c0.028-0.16,0.053-0.32,0.081-0.481c0.039,0.034,0.073,0.064,0.111,0.098C50.649,72.203,50.645,72.453,50.64,72.7z"/>
	<path fill-rule="evenodd" clip-rule="evenodd" fill="#F0AF8E" d="M43.608,46.102c-0.15,0.332-0.229,0.697-0.531,0.952
		c-0.168,0.138,0.044,0.298,0.03,0.454c-0.031,0.044-0.067,0.047-0.104,0.004c-0.066,0-0.132,0.001-0.201,0.001
		c-0.053-0.068-0.062-0.136-0.001-0.207c0.362-0.527,0.264-1.18,0.451-1.773C43.531,45.663,42.968,46.233,43.608,46.102z"/>
	<path fill-rule="evenodd" clip-rule="evenodd" fill="#EDAD8A" d="M42.801,47.306c0,0.071,0.001,0.139,0.001,0.207
		c0.049,0.105,0.079,0.204-0.098,0.198c-0.46-0.719-0.509-1.455-0.103-2.212l-0.001,0.002c0.174,0.166,0.115,0.374,0.064,0.559
		C42.545,46.499,42.588,46.912,42.801,47.306z"/>
	<path fill-rule="evenodd" clip-rule="evenodd" fill="#E99E7A" d="M44.412,45.999c0.001-0.146-0.068-0.246-0.201-0.301
		c-0.057-0.053-0.162-0.087-0.103-0.197c0.155-0.056,0.276-0.324,0.47-0.126c0.247,0.251,0.053,0.492-0.067,0.727
		C44.417,46.129,44.382,46.096,44.412,45.999z"/>
	<path fill-rule="evenodd" clip-rule="evenodd" fill="#F0AF8E" d="M44.108,45.501c0.035,0.065,0.07,0.131,0.103,0.197
		c-0.321-0.041-0.573,0.02-0.604,0.404C43.294,45.502,43.903,45.666,44.108,45.501z"/>
	<path fill-rule="evenodd" clip-rule="evenodd" fill="#EDAD8C" d="M44.412,45.999c0.031,0.036,0.066,0.067,0.099,0.103
		c-0.11,0.15,0.086,0.424-0.199,0.503C44.372,46.409,44.068,46.15,44.412,45.999z"/>
	<path fill-rule="evenodd" clip-rule="evenodd" fill="#FEC09F" d="M42.601,45.499c-0.183,0.746-0.131,1.485,0.103,2.212
		c-0.146-0.015-0.278,0.033-0.403,0.102c-0.097-0.353-0.22-0.701-0.289-1.058C41.908,46.208,42.09,45.768,42.601,45.499z"/>
	<path fill-rule="evenodd" clip-rule="evenodd" fill="#EAA17E" d="M41.289,46.702c0.034,0.001,0.068,0.003,0.102,0.004
		c-0.037,0.213,0.17,0.401,0.064,0.641C41.115,47.198,41.068,46.988,41.289,46.702z"/>
	<path fill-rule="evenodd" clip-rule="evenodd" fill="#EBAB8B" d="M43.003,47.512c0.035-0.001,0.071-0.002,0.104-0.004
		c0.156,0.023,0.295,0.075,0.399,0.202C43.269,47.819,43.119,47.708,43.003,47.512z"/>
	<path fill-rule="evenodd" clip-rule="evenodd" fill="#ABADAC" d="M59.326,71.492c0.026-0.009,0.055-0.021,0.083-0.034
		c0.331-0.231,0.665-0.187,1-0.001l0.02-0.01c0.43,0.675,0.859,1.348,1.289,2.022c-1.466,0.06-2.927-0.169-4.395-0.099
		c-0.254-0.312-0.205-0.819-0.645-1.015c0.703-0.205,1.406-0.402,2.106-0.615C58.972,71.683,59.145,71.576,59.326,71.492z"/>
	<path fill-rule="evenodd" clip-rule="evenodd" fill="#ABADAC" d="M32.139,73.368c0.033-0.484,0.174-0.944,0.304-1.406
		c0.145-0.136,0.326-0.157,0.51-0.16c0.932-0.01,1.864-0.01,2.794,0c0.184,0.003,0.367,0.024,0.512,0.16
		c0.05,0.376-0.112,0.732-0.106,1.106c-0.106,0.24-0.278,0.312-0.547,0.308C34.45,73.357,33.294,73.368,32.139,73.368z"/>
	<path fill-rule="evenodd" clip-rule="evenodd" fill="#FDF6EC" d="M36.38,67.425c-0.211-0.108-0.398-0.238-0.414-0.507
		C36.147,67.053,36.323,67.189,36.38,67.425z"/>
	<path fill-rule="evenodd" clip-rule="evenodd" fill="#C6C4C2" d="M57.182,26.269c-0.028,0.008-0.055,0.017-0.085,0.024
		c-0.298-0.138-0.577-0.159-0.874,0.044c-0.174,0.121-0.198,0.086-0.225-0.158c0.027-0.025,0.053-0.051,0.075-0.075
		c0.557-0.491,0.557-0.491,1.31,0.088C57.329,26.255,57.262,26.277,57.182,26.269z"/>
	<path fill-rule="evenodd" clip-rule="evenodd" fill="#462D1E" d="M57.182,26.269c0.032-0.12,0.123-0.08,0.201-0.077
		c0.07,0.07,0.138,0.14,0.206,0.21C57.395,26.535,57.297,26.38,57.182,26.269z"/>
	<path fill-rule="evenodd" clip-rule="evenodd" fill="#9AD6DC" d="M38.199,69.961c0.384-0.145,0.764-0.168,1.175,0.076
		c-0.317,0.24-0.616-0.116-0.89,0.03c-0.08,0.085-0.167,0.178-0.29,0.091C38.121,70.108,38.111,70.027,38.199,69.961z"/>
	<path fill-rule="evenodd" clip-rule="evenodd" fill="#97D5DC" d="M39.01,70.742c-0.288,0.152-0.613-0.098-0.902,0.078
		c-0.012,0.008-0.065-0.046-0.099-0.07c0.058-0.056,0.115-0.111,0.173-0.168C38.516,70.333,38.79,70.396,39.01,70.742z"/>
	<path fill-rule="evenodd" clip-rule="evenodd" fill="#36797E" d="M39.01,70.742c-0.256-0.154-0.533-0.207-0.828-0.16
		c-0.002-0.038-0.006-0.077-0.009-0.115c0.047-0.075,0.119-0.106,0.203-0.12c0.159,0.006,0.321,0,0.481,0.011
		c0.141,0.022,0.256,0.082,0.322,0.217C39.122,70.629,39.066,70.686,39.01,70.742z"/>
	<path fill-rule="evenodd" clip-rule="evenodd" fill="#539195" d="M38.199,69.961c-0.019,0.343,0.2,0.044,0.286,0.106
		c0,0.054-0.001,0.111-0.002,0.165c-0.101,0.142-0.233,0.186-0.398,0.137c-0.036-0.038-0.071-0.078-0.106-0.116
		c-0.015-0.114-0.007-0.222,0.08-0.31C38.104,69.95,38.151,69.955,38.199,69.961z"/>
	<path fill-rule="evenodd" clip-rule="evenodd" fill="#A1E3EA" d="M39.179,70.574c-0.097-0.047-0.192-0.091-0.289-0.137
		c-0.037-0.014-0.059-0.039-0.067-0.08c0.003-0.037,0.022-0.068,0.055-0.091C38.992,70.355,39.349,70.205,39.179,70.574z"/>
	<path fill-rule="evenodd" clip-rule="evenodd" fill="#ADE6EB" d="M38.878,70.267c0,0.028-0.001,0.06-0.001,0.088
		c-0.161,0.101-0.354-0.006-0.519,0.078c-0.061,0.012-0.125,0.021-0.186,0.034c-0.029-0.032-0.06-0.064-0.089-0.098
		c0.133-0.045,0.265-0.092,0.398-0.137C38.613,70.245,38.746,70.256,38.878,70.267z"/>
	<path fill-rule="evenodd" clip-rule="evenodd" fill="#BAB3AE" d="M68.63,73.052c0.109,0.015,0.219,0.028,0.327,0.043
		c-0.003,0.017-0.007,0.034-0.008,0.053c-0.595,0-1.188,0-1.784,0c-0.002-0.021-0.004-0.04-0.007-0.061
		c0.073-0.01,0.148-0.022,0.223-0.036C67.797,73.051,68.215,73.052,68.63,73.052z"/>
	<path fill-rule="evenodd" clip-rule="evenodd" fill="#6E170A" d="M51.54,21.968c0.642,0.5,2.544,0.102,2.938-0.615
		c0.389,0.045,0.422,0.333,0.378,0.62c-0.075,0.463-0.265,0.877-0.677,1.15c-0.685-0.139-1.302,0.063-1.895,0.373
		c-0.423-0.207-0.745-0.517-0.892-0.965C51.331,22.339,51.188,22.073,51.54,21.968z"/>
	<path fill-rule="evenodd" clip-rule="evenodd" fill="#D16E60" d="M52.284,23.496c0.675-0.6,1.312-0.725,1.895-0.372
		C53.635,23.701,53.001,23.799,52.284,23.496z"/>
	<path fill-rule="evenodd" clip-rule="evenodd" fill="#F09D79" d="M59.606,18.446c-0.032,0.397-0.169,0.754-0.589,0.932
		c-0.286,0.119-0.429-0.003-0.403-0.289c0.023-0.294,0.084-0.587,0.147-0.876c0.045-0.214,0.029-0.514,0.378-0.472
		c0.295,0.035,0.382,0.287,0.452,0.531C59.606,18.318,59.602,18.371,59.606,18.446z"/>
	<path fill-rule="evenodd" clip-rule="evenodd" fill="#BABCBB" d="M36.259,71.962c-1.273,0-2.544,0-3.816,0
		c-0.003-0.036-0.007-0.07-0.01-0.106c0.173-0.766,0.356-1.528,0.518-2.296c0.066-0.312,0.205-0.438,0.543-0.428
		c0.903,0.025,1.81,0.026,2.715-0.001c0.354-0.01,0.412,0.108,0.369,0.428c-0.093,0.694-0.15,1.394-0.223,2.091
		C36.253,71.732,36.271,71.851,36.259,71.962z"/>
	<path fill-rule="evenodd" clip-rule="evenodd" fill="#ECF6F8" d="M38.345,72.639c-0.223,0-0.447,0-0.67,0
		C37.902,72.543,38.129,72.561,38.345,72.639z"/>
	<path fill-rule="evenodd" clip-rule="evenodd" fill="#F3F1EF" d="M55.998,26.179c0.098,0.309,0.23,0.027,0.28-0.01
		c0.326-0.26,0.592-0.22,0.818,0.124c-0.309,0.478-0.76,0.718-1.316,0.776c-0.37,0.04-0.687-0.061-0.908-0.38
		c0.021-0.272,0.229-0.207,0.395-0.216c0.138-0.007,0.273,0.116,0.413,0.008l-0.003,0.002C55.897,26.501,55.854,26.24,55.998,26.179
		z"/>
	<path fill-rule="evenodd" clip-rule="evenodd" fill="#FBFCE2" d="M31.233,71.557c0-0.402,0.001-0.805,0.002-1.208
		c0.193,0.437,0.068,0.892,0.083,1.337C31.29,71.644,31.262,71.601,31.233,71.557z"/>
	<path fill-rule="evenodd" clip-rule="evenodd" fill="#742A14" d="M53.481,43.249c-0.138-0.46-0.242-0.938-0.62-1.286
		c-0.219-0.541,0.134-1.086,0.69-1.075c0.429,0.469,0.791,0.976,0.965,1.601c0.088,0.312,0.176,0.632-0.133,0.867
		C54.064,43.595,53.761,43.487,53.481,43.249z"/>
	<path fill-rule="evenodd" clip-rule="evenodd" fill="#EDAE8D" d="M51.959,41.872c-0.034,0.007-0.065,0.014-0.101,0.022
		c0.142-0.413,0.288-0.824,0.431-1.237C52.295,41.1,52.225,41.515,51.959,41.872z"/>
	<path fill-rule="evenodd" clip-rule="evenodd" fill="#E8A684" d="M51.109,41.605c-0.009-0.426,0.225-0.771,0.389-1.141
		C51.452,40.875,51.343,41.26,51.109,41.605z"/>
	<path fill-rule="evenodd" clip-rule="evenodd" fill="#C6C4C3" d="M55.68,26.481c-0.226,0.243-0.59-0.062-0.808,0.208
		c-0.031-0.005-0.062-0.015-0.088-0.026c-0.063-0.152-0.123-0.311-0.301-0.366c0.091-0.265,0.245-0.309,0.494-0.172
		C55.207,26.251,55.397,26.461,55.68,26.481z"/>
	<path fill-rule="evenodd" clip-rule="evenodd" fill="#BBBAB9" d="M60.409,71.457c-0.334,0-0.669,0-1,0.001
		c-0.029-0.54-0.057-1.078-0.08-1.617C59.688,70.379,60.048,70.918,60.409,71.457z"/>
	<path fill-rule="evenodd" clip-rule="evenodd" fill="#FA8C5B" d="M32.328,57.186c0.154-0.437-0.199-0.624-0.485-0.85
		c-0.112-0.087-0.309-0.128-0.264-0.32c0.036-0.157,0.178-0.238,0.341-0.253c0.509-0.043,0.758-0.34,0.848-0.824
		c0.026-0.137,0.079-0.316,0.256-0.339c0.177-0.023,0.26,0.134,0.325,0.268c0.227,0.462,0.579,0.631,1.095,0.594
		c0.414-0.028,0.499,0.148,0.211,0.463c-0.347,0.378-0.406,0.73-0.222,1.206c0.157,0.405,0.01,0.521-0.414,0.377
		c-0.36-0.123-0.691-0.226-1.032,0.059c-0.142,0.123-0.305,0.339-0.51,0.242C32.233,57.693,32.371,57.419,32.328,57.186z"/>
	<path fill-rule="evenodd" clip-rule="evenodd" fill="#631D13" d="M30.733,46.271c0.109,0.097,0.24,0.178,0.271,0.339
		c-0.04,0.201,0.042,0.396,0.009,0.598c-0.065,0.378-0.355,0.462-0.672,0.503c-0.338,0.048-0.592-0.055-0.702-0.406
		c0.01-0.127,0.093-0.215,0.176-0.301c0.135-0.128,0.293-0.283,0.05-0.422c-0.362-0.211-0.069-0.277,0.059-0.387
		C30.195,46.204,30.474,46.134,30.733,46.271z"/>
	<path fill-rule="evenodd" clip-rule="evenodd" fill="#49130A" d="M31.013,47.208c-0.131-0.198-0.122-0.396-0.009-0.598
		c0.04,0.068,0.079,0.134,0.119,0.2C31.086,46.941,31.049,47.073,31.013,47.208z"/>
	<path fill-rule="evenodd" clip-rule="evenodd" fill="#FAF1EA" d="M28.62,47.409c0.041-0.231-0.079-0.488,0.098-0.699
		C28.68,46.941,28.809,47.199,28.62,47.409z"/>
	<path fill-rule="evenodd" clip-rule="evenodd" fill="#7F6964" d="M29.595,47.229c-0.115-0.096-0.126-0.235-0.046-0.334
		c0.044-0.059,0.138,0.029,0.186,0.096C29.694,47.073,29.691,47.18,29.595,47.229z"/>
	<path fill-rule="evenodd" clip-rule="evenodd" fill="#46130C" d="M29.595,47.229c0.025-0.089,0.027-0.196,0.14-0.238
		c0.027,0,0.053,0.003,0.08,0.013c0.066,0.174-0.142,0.188-0.176,0.301C29.613,47.289,29.598,47.264,29.595,47.229z"/>
	<path fill-rule="evenodd" clip-rule="evenodd" fill="#47140C" d="M34.853,46.205c0.193-0.163,0.394-0.138,0.598-0.03
		C35.256,46.293,35.06,46.384,34.853,46.205z"/>
	<path fill-rule="evenodd" clip-rule="evenodd" fill="#E8CDC3" d="M35.247,44.612c0.12,0.017,0.206,0.079,0.265,0.187
		c-0.167,0.146-0.256-0.048-0.378-0.088C35.172,44.677,35.209,44.646,35.247,44.612z"/>
	<path fill-rule="evenodd" clip-rule="evenodd" fill="#FAF8F8" d="M55.689,18.229c-0.004,0.625-0.323,0.921-1.01,0.932
		c0.033-0.284,0.235-0.536,0.157-0.839c-0.047-0.182-0.16-0.301-0.343-0.354c-0.271-0.04-0.479,0.042-0.607,0.299
		c-0.068,0.13-0.106,0.267-0.079,0.417c0.017,0.12,0.135,0.225,0.059,0.36c-0.567-0.085-0.393-0.51-0.369-0.847
		c0.013-0.157,0.113-0.308,0.172-0.461c0.101-0.171,0.235-0.308,0.408-0.408l-0.009,0.002c0.517-0.214,1.009-0.209,1.42,0.221
		C55.661,17.732,55.796,17.952,55.689,18.229z"/>
	<path fill-rule="evenodd" clip-rule="evenodd" fill="#FCF9F8" d="M50.443,18.124c0.304,0.215,0.541,0.486,0.665,0.84
		c0.181,0.531-0.203,1.013-0.764,0.98c-0.047-0.272,0.142-0.522,0.069-0.796c-0.018-0.16-0.117-0.26-0.248-0.334
		c-0.373-0.173-0.428,0.304-0.695,0.341c-0.162-0.106-0.119-0.27-0.125-0.419c0.056-0.364,0.271-0.582,0.615-0.686
		C50.129,18.022,50.288,18.061,50.443,18.124z"/>
	<path fill-rule="evenodd" clip-rule="evenodd" fill="#68221C" d="M54.971,18.241c0.075,0.362,0.012,0.679-0.291,0.92
		c-0.293,0.118-0.556,0.008-0.813-0.117c-0.061-0.104-0.119-0.207-0.178-0.31c0.102-0.154,0.109-0.325,0.094-0.501
		c0.11-0.431,0.436-0.447,0.789-0.403C54.639,18.033,54.681,18.256,54.971,18.241z"/>
	<path fill-rule="evenodd" clip-rule="evenodd" fill="#766E6A" d="M52.972,16.275c0.069-0.599,0.211-0.697,1.104-0.754
		c0.331,0.12,0.688-0.079,1.016,0.089c0.26-0.03,0.47,0.1,0.681,0.223c-0.034,0.248-0.233,0.17-0.38,0.182
		c-0.388,0.032-0.782-0.055-1.167,0.059c-0.282,0.09-0.579,0.14-0.86,0.237C53.24,16.353,53.085,16.463,52.972,16.275z"/>
	<path fill-rule="evenodd" clip-rule="evenodd" fill="#67251F" d="M50.528,19.074c0.046,0.312,0.058,0.618-0.184,0.87
		c-0.367,0.199-0.54-0.067-0.726-0.299c-0.134-0.153-0.236-0.312-0.093-0.515c0.104-0.415,0.282-0.68,0.752-0.396
		C50.226,18.948,50.438,18.965,50.528,19.074z"/>
	<path fill-rule="evenodd" clip-rule="evenodd" fill="#756B66" d="M48.688,17.319c-0.078-0.344,0.154-0.488,0.329-0.643
		c0.385-0.344,0.86-0.409,1.352-0.377c0.23,0.014,0.324,0.202,0.327,0.379c0.004,0.232-0.22,0.15-0.343,0.144
		C49.75,16.791,49.229,17.031,48.688,17.319z"/>
	<path fill-rule="evenodd" clip-rule="evenodd" fill="#E1A181" d="M53.687,14.089c-1.326,0.088-2.622,0.338-3.886,0.728
		C51.032,14.258,52.32,13.986,53.687,14.089z"/>
	<path fill-rule="evenodd" clip-rule="evenodd" fill="#E2A182" d="M49.923,15.464c1.225-0.608,2.536-0.772,3.879-0.752
		C52.481,14.818,51.198,15.112,49.923,15.464z"/>
	<path fill-rule="evenodd" clip-rule="evenodd" fill="#85746B" d="M55.689,18.229c-0.214-0.806-0.532-0.982-1.621-0.899
		c0.626-0.412,1.404-0.224,1.653,0.405C55.784,17.897,55.874,18.075,55.689,18.229z"/>
	<path fill-rule="evenodd" clip-rule="evenodd" fill="#F2C6AD" d="M52.972,16.275c0.428,0.04,0.799-0.193,1.203-0.267
		c0.564-0.026,1.137-0.148,1.693,0.076c-0.045,0.12-0.13,0.13-0.24,0.104c-0.713-0.17-1.405-0.049-2.09,0.153
		C53.339,16.399,53.132,16.539,52.972,16.275z"/>
	<path fill-rule="evenodd" clip-rule="evenodd" fill="#816E63" d="M49.942,18.122c-0.263,0.122-0.457,0.299-0.512,0.599
		c-0.127,0.187,0.072,0.431-0.101,0.61c-0.225-0.652-0.079-1.023,0.5-1.32C49.936,17.983,49.963,18.027,49.942,18.122z"/>
	<path fill-rule="evenodd" clip-rule="evenodd" fill="#E2A383" d="M55.641,19.266c0.281-0.235,0.347-0.608,0.558-0.885
		C56.201,18.791,56.065,19.12,55.641,19.266z"/>
	<path fill-rule="evenodd" clip-rule="evenodd" fill="#847065" d="M55.868,16.085c-0.561-0.139-1.13-0.077-1.693-0.076
		c0.324-0.187,0.682-0.051,1.021-0.092c0.192-0.024,0.401,0.069,0.576-0.083C55.912,15.875,55.881,15.984,55.868,16.085z"/>
	<path fill-rule="evenodd" clip-rule="evenodd" fill="#C48A70" d="M52.562,20.844c-0.28-0.017-0.603,0.128-0.81-0.195
		c0.042-0.049,0.088-0.052,0.14-0.009c0.198,0.138,0.52-0.104,0.664,0.209L52.562,20.844z"/>
	<path fill-rule="evenodd" clip-rule="evenodd" fill="#E9DAD5" d="M49.33,19.331c0.038-0.203-0.047-0.425,0.101-0.61
		c0.038,0.135-0.037,0.297,0.096,0.41c0.032,0.171,0.061,0.344,0.093,0.515C49.434,19.621,49.409,19.452,49.33,19.331z"/>
	<path fill-rule="evenodd" clip-rule="evenodd" fill="#71635B" d="M55.091,15.61c-0.34-0.033-0.691,0.103-1.016-0.089
		C54.416,15.499,54.774,15.329,55.091,15.61z"/>
	<path fill-rule="evenodd" clip-rule="evenodd" fill="#A99184" d="M49.942,18.122c-0.039-0.037-0.073-0.074-0.112-0.111
		c0.241-0.155,0.438-0.072,0.613,0.112C50.275,18.123,50.11,18.123,49.942,18.122z"/>
	<path fill-rule="evenodd" clip-rule="evenodd" fill="#B87457" d="M51.893,20.64c-0.05,0.003-0.095,0.007-0.14,0.009
		c-0.179-0.175,0.001-0.337,0.016-0.506c0.035-0.03,0.068-0.032,0.101,0.002C51.877,20.311,51.885,20.475,51.893,20.64z"/>
	<path fill-rule="evenodd" clip-rule="evenodd" fill="#BB775A" d="M51.869,20.146c-0.033-0.001-0.066-0.002-0.101-0.002
		c0.035-0.14,0.069-0.28,0.132-0.527C51.979,19.875,51.993,20.015,51.869,20.146z"/>
	<path fill-rule="evenodd" clip-rule="evenodd" fill="#BC9F90" d="M54.077,17.328c-0.093,0.181-0.246,0.299-0.408,0.408
		C53.695,17.49,53.829,17.354,54.077,17.328z"/>
	<path fill-rule="evenodd" clip-rule="evenodd" fill="#3D878C" d="M28.21,71.176c-0.063-0.008-0.126-0.018-0.19-0.024
		c0.034-0.043,0.068-0.088,0.103-0.132c0.244-0.09,0.461,0.004,0.679,0.099c0.102,0.052,0.205,0.103,0.29,0.184
		c0.012,0.02,0.023,0.041,0.034,0.06c-0.198,0.229-0.394,0.193-0.59-0.002C28.407,71.334,28.298,71.275,28.21,71.176z"/>
	<path fill-rule="evenodd" clip-rule="evenodd" fill="#3D878C" d="M28.52,70.938c0.074-0.034,0.148-0.066,0.222-0.102
		c0.059,0.006,0.116,0.013,0.174,0.019c0.208,0.034,0.337,0.197,0.505,0.3c-0.1,0.069-0.196,0.139-0.295,0.207l-0.008-0.005
		c-0.117-0.083-0.227-0.177-0.359-0.231C28.676,71.065,28.564,71.047,28.52,70.938z"/>
	<path fill-rule="evenodd" clip-rule="evenodd" fill="#91D6DA" d="M29.42,71.154c-0.228,0-0.342-0.189-0.505-0.3
		c0.03-0.028,0.061-0.054,0.091-0.081C29.199,70.842,29.341,70.965,29.42,71.154z"/>
	<path fill-rule="evenodd" clip-rule="evenodd" fill="#9FDDE3" d="M28.21,71.176c0.115,0.05,0.25,0.062,0.325,0.184
		c-0.139,0.091-0.232-0.002-0.326-0.082C28.21,71.242,28.21,71.209,28.21,71.176z"/>
	<path fill-rule="evenodd" clip-rule="evenodd" fill="#A2DEE3" d="M28.52,70.938c0.098,0.044,0.198,0.089,0.296,0.131
		c0.056,0.06,0.064,0.121,0,0.18c-0.222-0.104-0.438-0.223-0.692-0.229c0.029-0.051,0.059-0.105,0.087-0.158
		C28.313,70.889,28.417,70.912,28.52,70.938z"/>
	<path fill-rule="evenodd" clip-rule="evenodd" fill="#669FA4" d="M38.359,70.433c0.156-0.138,0.343-0.062,0.519-0.078
		c0.003,0.028,0.008,0.057,0.013,0.083C38.714,70.436,38.536,70.435,38.359,70.433z"/>
	<path fill-rule="evenodd" clip-rule="evenodd" fill="#D0BFBE" d="M54.971,18.241c-0.156-0.025-0.248,0.258-0.441,0.079
		c-0.198-0.188,0.141-0.318,0.042-0.489C54.775,17.899,54.901,18.041,54.971,18.241z"/>
	<path fill-rule="evenodd" clip-rule="evenodd" fill="#501812" d="M53.782,18.233c0.114,0.194,0.196,0.382-0.094,0.501
		C53.696,18.563,53.695,18.39,53.782,18.233z"/>
	<path fill-rule="evenodd" clip-rule="evenodd" fill="#E3D4D3" d="M50.528,19.074c-0.134-0.078-0.23,0.255-0.372,0.04
		c-0.111-0.167,0.027-0.271,0.122-0.379C50.412,18.812,50.52,18.905,50.528,19.074z"/>
	<path fill-rule="evenodd" clip-rule="evenodd" fill="#97DAE0" d="M28.816,71.248c0-0.059,0-0.119,0-0.18
		c0.141,0.056,0.242,0.147,0.302,0.288C28.991,71.395,28.913,71.295,28.816,71.248z"/>
</g>
</svg>
