<?xml version="1.0" encoding="utf-8"?>
<!-- Generator: Adobe Illustrator 16.0.0, SVG Export Plug-In . SVG Version: 6.00 Build 0)  -->
<!DOCTYPE svg PUBLIC "-//W3C//DTD SVG 1.1//EN" "http://www.w3.org/Graphics/SVG/1.1/DTD/svg11.dtd">
<svg version="1.1" id="Layer_1" xmlns="http://www.w3.org/2000/svg" xmlns:xlink="http://www.w3.org/1999/xlink" x="0px" y="0px"
	 width="85px" height="85px" viewBox="0 0 85 85" enable-background="new 0 0 85 85" xml:space="preserve">
<g>
	<path fill="#D1CECD" d="M4.581,40.887c0,0-3.724,0.958-0.886,1.637l40.764,9.175c0,0,0.679,0.297,1.823,0.033
		c1.146-0.264,35.851-6.266,35.851-6.266l-31.941,1.436L4.581,40.887z"/>
	<g>
		<g>
			
				<linearGradient id="SVGID_1_" gradientUnits="userSpaceOnUse" x1="80.5703" y1="36.1611" x2="39.5934" y2="43.4125" gradientTransform="matrix(0.9998 0.0185 -0.0185 0.9998 4.5716 5.6996)">
				<stop  offset="0.2515" style="stop-color:#FFFBEF"/>
				<stop  offset="1" style="stop-color:#FFF6D4"/>
			</linearGradient>
			<path fill="url(#SVGID_1_)" stroke="#CDC3A9" stroke-width="0.1076" d="M82.157,42.409l-36.011,5.388
				c0,0-1.522,0.105-1.627,1.641c-0.072,1.061,0.814,1.475,1.348,1.604l36.145-5.803C81.74,44.256,82.036,42.884,82.157,42.409z"/>
		</g>
		<g>
			<path opacity="0.56" fill="#CDC3A9" d="M81.561,42.808l-35.981,5.506C45.579,48.314,74.466,44.213,81.561,42.808z"/>
			<path opacity="0.56" fill="#CDC3A9" d="M79.985,43.404l-34.298,5.227C45.688,48.631,73.679,44.65,79.985,43.404z"/>
			<path opacity="0.56" fill="#CDC3A9" d="M81.113,43.883l-35.981,5.506C45.132,49.389,74.019,45.287,81.113,43.883z"/>
			<path opacity="0.56" fill="#CDC3A9" d="M80.948,43.566l-35.98,5.506C44.968,49.072,73.629,44.873,80.948,43.566z"/>
			<path opacity="0.56" fill="#CDC3A9" d="M81.521,44.975L45.539,50.48C45.539,50.48,74.202,46.279,81.521,44.975z"/>
			<path opacity="0.56" fill="#CDC3A9" d="M79.537,44.479L45.24,49.705C45.24,49.705,73.231,45.727,79.537,44.479z"/>
			<path opacity="0.56" fill="#CDC3A9" d="M81.33,44.654l-34.297,5.227C47.033,49.881,75.024,45.902,81.33,44.654z"/>
		</g>
		<g opacity="0.45">
			<path fill="#CDC3A9" d="M44.839,49.625c-0.117-1.342,1.566-1.453,1.566-1.453l35.669-5.405c0.03-0.146,0.06-0.268,0.083-0.358
				l-36.011,5.388c0,0-1.522,0.105-1.627,1.641c-0.072,1.061,0.814,1.475,1.348,1.604l0.139-0.025
				C45.29,50.914,44.912,50.459,44.839,49.625z"/>
		</g>
	</g>
	<path fill="#98BE6C" d="M44.52,49.438c0.104-1.535,1.627-1.641,1.627-1.641l36.321-5.438l0.032-0.307l-0.07-0.014l-36.621,5.524
		c0,0-1.522,0.123-1.631,1.869c-0.089,1.434,1.118,1.814,1.556,1.906c0.363-0.053,1.447-0.215,3.665-0.594l32.734-5.277l0.028-0.256
		l-36.294,5.83C45.334,50.912,44.447,50.498,44.52,49.438z"/>
	<g>
		
			<linearGradient id="SVGID_2_" gradientUnits="userSpaceOnUse" x1="21.3286" y1="35.3105" x2="19.847" y2="41.3279" gradientTransform="matrix(0.9998 0.0185 -0.0185 0.9998 4.5716 5.6996)">
			<stop  offset="0.0613" style="stop-color:#508A00"/>
			<stop  offset="0.3129" style="stop-color:#8AB750"/>
			<stop  offset="0.6933" style="stop-color:#508A00"/>
		</linearGradient>
		<path fill="url(#SVGID_2_)" d="M2.505,40.107c-0.108,1.746,1.713,1.933,1.713,1.933l41.368,9.319c0,0,0.05-0.006,0.147-0.021
			c-0.438-0.092-1.645-0.473-1.556-1.906c0.108-1.746,1.631-1.869,1.631-1.869L4.136,38.236C4.136,38.236,2.613,38.361,2.505,40.107
			z"/>
		
			<linearGradient id="SVGID_3_" gradientUnits="userSpaceOnUse" x1="55.4912" y1="37.3286" x2="1.1985" y2="25.1846" gradientTransform="matrix(0.9998 0.0185 -0.0185 0.9998 4.5716 5.6996)">
			<stop  offset="0" style="stop-color:#8AB750"/>
			<stop  offset="0.9939" style="stop-color:#508A00"/>
		</linearGradient>
		<polygon fill="url(#SVGID_3_)" points="39.451,33.158 4.136,38.236 45.809,47.562 82.43,42.038 		"/>
	</g>
	<g>
		<path opacity="0.59" fill="#2BA400" d="M44.314,50.303c-0.375-0.023-0.626-0.1-0.626-0.1L3.776,41.271
			c-1.475-0.425-1.168-1.618-1.168-1.618l-0.027-0.019c-0.037,0.143-0.065,0.298-0.076,0.473c-0.108,1.746,1.713,1.933,1.713,1.933
			l41.368,9.319c0,0,0.05-0.006,0.147-0.021C45.402,51.27,44.632,51.033,44.314,50.303z"/>
	</g>
	<g>
		<path fill="none" stroke="#315100" stroke-width="0.0538" d="M44.52,49.438c0.104-1.535,1.627-1.641,1.627-1.641l36.321-5.438
			l0.032-0.307l-0.07-0.014l-36.621,5.524c0,0-1.522,0.123-1.631,1.869c-0.089,1.434,1.118,1.814,1.556,1.906
			c0.363-0.053,1.447-0.215,3.665-0.594l32.734-5.277l0.028-0.256l-36.294,5.83C45.334,50.912,44.447,50.498,44.52,49.438z"/>
		<g>
			<path fill="none" stroke="#315100" stroke-width="0.0538" d="M2.505,40.107c-0.108,1.746,1.713,1.933,1.713,1.933l41.368,9.319
				c0,0,0.05-0.006,0.147-0.021c-0.438-0.092-1.645-0.473-1.556-1.906c0.108-1.746,1.631-1.869,1.631-1.869L4.136,38.236
				C4.136,38.236,2.613,38.361,2.505,40.107z"/>
			<polygon fill="none" stroke="#315100" stroke-width="0.0538" points="39.451,33.158 4.136,38.236 45.809,47.562 82.43,42.038 			
				"/>
		</g>
	</g>
	<g opacity="0.71">
		<polygon fill="#AFCF95" points="81.551,41.997 47.508,47.137 79.671,41.905 41.966,33.87 		"/>
	</g>
</g>
</svg>
