<?xml version="1.0" encoding="utf-8"?>
<!-- Generator: Adobe Illustrator 16.0.0, SVG Export Plug-In . SVG Version: 6.00 Build 0)  -->
<!DOCTYPE svg PUBLIC "-//W3C//DTD SVG 1.1//EN" "http://www.w3.org/Graphics/SVG/1.1/DTD/svg11.dtd">
<svg version="1.1" id="Layer_1" xmlns="http://www.w3.org/2000/svg" xmlns:xlink="http://www.w3.org/1999/xlink" x="0px" y="0px"
	 width="85px" height="85px" viewBox="0 0 85 85" enable-background="new 0 0 85 85" xml:space="preserve">
<g>
	<path fill="#00B1A9" d="M2.5,2.5h80v80h-80V2.5z"/>
	<path fill="#50C0A9" d="M69.102,42.5c0,14.69-11.91,26.6-26.602,26.6c-14.689,0-26.6-11.908-26.6-26.6s11.908-26.6,26.6-26.6
		S69.102,27.81,69.102,42.5z"/>
	<g>
		<path fill="#1CB24B" d="M37.445,40.244l35.959,14.792L44.768,67.984L11.574,49.993L37.445,40.244z"/>
		<path fill="#14A34A" d="M41.514,41.918l31.893,13.117L46.709,67.104C45.172,59.317,42.861,48.297,41.514,41.918z"/>
		<path fill="#0D8040" d="M11.574,49.993l33.193,17.991v4.747L11.574,53.775V49.993z"/>
		<path fill="#168140" d="M73.404,55.036L44.768,67.984v4.747l28.656-14.188L73.404,55.036z"/>
		<path fill="#FFFFFF" d="M38.42,42.374l29.771,12.238l0.594,0.255l-0.594,0.265L44.494,65.855l-0.127,0.054l-0.117-0.063
			L16.77,50.948l-0.541-0.296l0.572-0.213l21.418-8.063l0.098-0.042L38.42,42.374L38.42,42.374z M67.373,54.887L38.314,42.936
			l-20.742,7.81l26.812,14.537L67.373,54.887L67.373,54.887z"/>
		<path fill="#FFFFFF" d="M22.289,49.071l5.5,2.596l12.432-5.171l-5.797-2.362L22.289,49.071z M27.736,51.878l-5.754-2.711
			l-0.225-0.106l0.234-0.095l12.398-5.044l0.031-0.012l0.043,0.012l6.072,2.479l0.244,0.095l-0.244,0.096L27.82,51.879L27.777,51.9
			L27.736,51.878L27.736,51.878z M44.047,60.09l5.648,2.903l12.283-5.488l-5.797-2.353L44.047,60.09z M49.59,63.195l-5.85-3.021
			l-0.213-0.096l0.223-0.096l12.4-5.043l0.031-0.021l0.041,0.021l6.074,2.469l0.244,0.096l-0.244,0.105L49.59,63.195z
			 M30.789,57.897l20.455-9.972l0.17,0.339l-20.455,9.972L30.789,57.897z"/>
		<path fill="#FFFFFF" d="M41.885,49.887c1.771,0,3.371,0.308,4.537,0.815c1.219,0.529,1.961,1.271,1.961,2.107
			c0,0.838-0.742,1.579-1.961,2.099c-1.166,0.509-2.766,0.815-4.537,0.815c-1.76,0-3.369-0.308-4.535-0.815
			c-1.207-0.52-1.961-1.261-1.961-2.099c0-0.837,0.754-1.578,1.961-2.107C38.516,50.194,40.125,49.887,41.885,49.887z
			 M46.273,51.042c-1.111-0.477-2.67-0.784-4.389-0.784c-1.717,0-3.264,0.309-4.387,0.784c-1.07,0.466-1.729,1.092-1.729,1.77
			c0,0.668,0.656,1.293,1.729,1.76c1.123,0.486,2.67,0.783,4.387,0.783c1.719,0,3.275-0.297,4.389-0.783
			c1.07-0.467,1.738-1.092,1.738-1.76C48.012,52.133,47.344,51.507,46.273,51.042L46.273,51.042z M17.033,50.65
			c-0.139-0.371,2.555-1.123,2.562-1.123l0.064-0.021l0.043,0.053c0,0.012,1.398,1.664-0.721,2.311l-0.043,0.011l-0.043-0.021
			l-0.91-0.529l-0.912-0.636l-0.031-0.012L17.033,50.65z M19.588,49.749c-0.383,0.105-2.236,0.646-2.354,0.806l0.869,0.594
			l0.867,0.51C20.51,51.159,19.777,50.014,19.588,49.749z M36.969,43.413c0.359,0.232,1.398,0.752,2.596-0.148l-1.238-0.509
			L36.969,43.413z M39.84,43.317c-1.686,1.42-3.137,0.158-3.146,0.158l-0.127-0.105l0.146-0.073l1.559-0.753l0.043-0.021
			l0.053,0.021l1.453,0.594l0.158,0.063L39.84,43.317z M43.041,64.7c0.01,0,1.686-1.347,2.818,0.095l0.086,0.106l-0.117,0.053
			l-1.41,0.742l-0.053,0.021l-0.053-0.032l-1.262-0.814l-0.127-0.075L43.041,64.7z M45.615,64.827
			c-0.826-0.911-1.949-0.297-2.32-0.043l1.08,0.688L45.615,64.827z M65.955,54.146c-0.213,0.148-1.072,0.849,0.232,1.474l1.6-0.763
			L65.955,54.146L65.955,54.146z M66.135,55.831c-1.877-0.868-0.256-1.896-0.256-1.896l0.043-0.03l0.055,0.021l2.117,0.816
			l0.225,0.095l-0.225,0.106l-1.863,0.89l-0.043,0.021L66.135,55.831L66.135,55.831z"/>
		<g>
			<circle fill="#FFCD73" cx="25.018" cy="29.337" r="11.548"/>
			<circle fill="#F2F2F2" cx="25.355" cy="30.186" r="8.204"/>
			<path fill="#E7E7E7" d="M26.152,38.351c4.156-0.4,7.406-3.902,7.406-8.166c0-4.53-3.674-8.203-8.203-8.203
				c-0.664,0-1.309,0.078-1.926,0.227C26.379,24.009,32.68,29.236,26.152,38.351z"/>
			<path fill="#D2D3D4" d="M31.045,33.248c-0.809,1.932-1.57,3.351-2.26,4.392c2.818-1.299,4.773-4.147,4.773-7.455
				c0-4.072-2.969-7.452-6.859-8.094C29.629,24.498,33.023,28.519,31.045,33.248z"/>
			<path fill="#232323" d="M20.775,27.771l-0.271-2.621l2.135-1.546l2.404,1.076l0.271,2.621l-2.135,1.545L20.775,27.771z
				 M31.293,35.847l-0.174-0.078l-2.135,1.546l0.021,0.22C29.861,37.108,30.635,36.538,31.293,35.847z M23.172,37.076l-2.254-1.307
				l0.004-2.604l2.258-1.299l2.256,1.306l-0.004,2.605L23.172,37.076z M30.926,32.439l-2.383-1.12l-0.221-2.624l2.16-1.503
				l2.383,1.119l0.223,2.624L30.926,32.439z M27.943,22.398l0.035,0.4l2.381,1.12l0.158-0.109
				C29.752,23.188,28.879,22.71,27.943,22.398L27.943,22.398z M17.4,32.198l0.666-0.464l-0.223-2.623l-0.584-0.274
				c-0.072,0.446-0.109,0.897-0.109,1.35C17.15,30.864,17.234,31.541,17.4,32.198z"/>
			<path fill="#231F20" d="M23.125,31.875c-0.127-1.1-0.002-3.013,0-3.032l0.16,0.01c-0.002,0.021-0.127,1.918-0.002,3.005
				L23.125,31.875z M25.457,33.248l-0.045-0.153c0.016-0.005,1.625-0.503,3.078-1.835l0.105,0.118
				C27.117,32.736,25.475,33.243,25.457,33.248L25.457,33.248z M28.273,28.759c-0.016-0.012-1.48-1.159-2.969-1.377l0.021-0.159
				c1.533,0.226,2.984,1.362,3.045,1.41L28.273,28.759z M30.416,27.236c0.004-0.019,0.365-1.849-0.096-3.312l0.148-0.044
				c0.475,1.507,0.115,3.319,0.1,3.396L30.416,27.236z M28.037,22.806c-0.02,0.008-2.033,0.744-3.045,2.051l-0.162-0.115
				c1.041-1.344,3.037-2.074,3.121-2.105L28.037,22.806L28.037,22.806z M18.016,31.733l0.104-0.123
				c0.012,0.011,1.309,1.088,3.217,1.578l-0.039,0.154C19.35,32.844,18.027,31.745,18.016,31.733L18.016,31.733z M20.893,27.619
				l0.037,0.156c-0.018,0.004-1.654,0.397-3.189,1.634l-0.1-0.125C19.203,28.024,20.875,27.623,20.893,27.619z M31.219,35.898
				l-0.156-0.027c0.004-0.018,0.275-1.679-0.266-3.574l0.152-0.043C31.504,34.185,31.223,35.882,31.219,35.898L31.219,35.898z
				 M25.201,35.771l0.174-0.142c0.016,0.012,1.408,1.197,3.793,1.699l-0.1,0.177C26.637,36.994,25.215,35.783,25.201,35.771
				L25.201,35.771z M19.834,36.255c0.043,0.038,0.084,0.076,0.127,0.113l1.062-0.578l-0.076-0.14L19.834,36.255z M32.059,28.456
				c0.031,0.046,0.066,0.092,0.1,0.138l1.162-0.337l-0.045-0.154L32.059,28.456L32.059,28.456z M32.373,30.473
				c-0.006,0.058-0.01,0.113-0.014,0.169l1.137,0.563l0.025-0.198L32.373,30.473z M19.258,24.71
				c0.002,0.062,0.004,0.123,0.008,0.184l1.254,0.341l0.053-0.168L19.258,24.71z M22.908,38.019
				c0.051,0.017,0.104,0.031,0.154,0.047l0.145-1.083l-0.158-0.021L22.908,38.019L22.908,38.019z"/>
		</g>
		<g>
			<circle fill="#017B6C" cx="59.543" cy="29.337" r="9.75"/>
			<path fill="#F15B2B" d="M51.783,34.195l5.443-7.188c0,0,1.568-0.503,1.82-1.813c0.252-1.312,0.801-1.867,2.066-2.622
				c1.258-0.754,2.621-1.006,4.938,0.351c0,0,1.586-2.012,2.646-2.111c1.061-0.106,1.561,0.504,1.463,1.356
				c-0.098,0.861-1.135,2.675-1.135,2.675s1.943,1.061,1.967,2.995c0.029,1.943-2.996,6.181-3.904,6.326
				c-0.906,0.153-5.092-0.953-6.807,0.96S58.062,38.5,58.062,38.5S53.117,38.456,51.783,34.195z"/>
			<path fill="#AC3324" d="M55.312,37l-2.584-0.991c1.691,2.172,4.559,2.454,5.207,2.492L55.312,37z"/>
			<path fill="#DF4326" d="M59.498,24.776l3.049,1.691c0,0,0.428,1.235-0.273,1.966c-0.709,0.731-1.158,0.679-1.158,0.679
				l-1.52-3.125L59.498,24.776L59.498,24.776z"/>
			<path fill="#991B1E" d="M57.547,27.176c0,0,2.156-0.96,1.951-2.399l2.021,3.833c0,0-0.055,0.532-0.404,0.503
				C60.756,29.089,57.547,27.176,57.547,27.176z"/>
			<path fill="#FFFFFF" d="M66.52,22.718c0,0,1.158-1.463,2.064-1.601l0.1,0.015C68.684,21.133,67.938,21.293,66.52,22.718z"/>
		</g>
	</g>
	<path fill="#C33C20" d="M55.6,37.15l5.498-8.038c0,0,0.789-0.059,1.402-1.046c0,0,0.32-0.476,0.029-1.6
		c0,0,0.188-0.574,1.758-1.478c1.57-0.904,3.523-1.216,5.084,0.104c0,0,1.871,1.258,1.559,3.14l-5.363,5.852
		c0,0-4.115-0.759-5.652,1.517l-1.809,2.922L55.6,37.15z"/>
</g>
</svg>
