<?xml version="1.0" encoding="utf-8"?>
<!-- Generator: Adobe Illustrator 16.0.0, SVG Export Plug-In . SVG Version: 6.00 Build 0)  -->
<!DOCTYPE svg PUBLIC "-//W3C//DTD SVG 1.1//EN" "http://www.w3.org/Graphics/SVG/1.1/DTD/svg11.dtd">
<svg version="1.1" id="Layer_1" xmlns="http://www.w3.org/2000/svg" xmlns:xlink="http://www.w3.org/1999/xlink" x="0px" y="0px"
	 width="85px" height="85px" viewBox="0 0 85 85" enable-background="new 0 0 85 85" xml:space="preserve">
<g>
	<path fill="#333333" d="M71.238,42.203c3.895,0.713,6.857,4.13,6.857,8.228c0,4.245-3.18,7.76-7.281,8.294
		c-1.002,5.789-3.754,11.12-7.992,15.359c-5.428,5.427-12.645,8.416-20.32,8.416H42.5c-7.686,0-14.91-3.036-20.345-8.549
		c-4.164-4.224-6.885-9.5-7.922-15.222c-4.125-0.511-7.33-4.037-7.33-8.299c0-4.098,2.962-7.515,6.858-8.228V27.182
		c-0.349,0.206-0.679,0.452-0.98,0.747c-0.886,0.855-2.182,0.989-3.223,0.332c-1.041-0.66-1.477-1.886-1.083-3.054l0.735-2.174
		c0.4-1.183,0.986-2.28,1.728-3.255c0.835-7.833,6.251-13.346,15.697-15.951c7.215-1.992,14.876-1.737,22.153,0.733l9.473,3.215
		c2.877-1.015,6.057-0.628,8.619,1.071c2.729,1.811,4.357,4.847,4.357,8.12V42.203z M75.078,50.431c0-2.425-1.623-4.479-3.84-5.131
		v8.463c0,0.607-0.021,1.215-0.059,1.816C73.428,54.945,75.078,52.878,75.078,50.431z M68.221,53.763V39.75
		c-6.352-0.749-11.293-6.162-11.293-12.712v-4.094c-4.248,4.464-9.773,7.492-15.92,8.663c-7.577,1.442-15.305-0.085-21.761-4.3
		c-0.764-0.497-1.612-0.772-2.467-0.837v27.006c0,6.915,2.672,13.434,7.524,18.355c4.863,4.933,11.326,7.65,18.197,7.65
		c0,0,0,0,0.002,0c6.871,0,13.33-2.676,18.185-7.533C65.547,67.091,68.221,60.633,68.221,53.763z M68.221,36.708V16.967
		c0-2.295-1.096-4.338-3.008-5.606c-1.631-1.082-3.553-1.396-5.395-0.909l0.125,16.587C59.943,31.921,63.539,35.98,68.221,36.708z
		 M56.92,18.26l-0.119-7.795l-8.98-3.048c-6.704-2.276-13.752-2.512-20.383-0.683c-6.675,1.843-10.92,5.135-12.674,9.81
		c0.26-0.136,0.526-0.266,0.798-0.383c2.994-1.282,6.404-1.229,9.355,0.146c3.366,1.569,7.436,0.723,9.896-2.062l0.375-0.422
		c0.551-0.624,1.505-0.683,2.129-0.13c0.625,0.552,0.683,1.506,0.13,2.129l-0.374,0.424c-3.339,3.773-8.861,4.924-13.43,2.797
		c-2.176-1.013-4.688-1.053-6.894-0.107c-2.207,0.944-3.911,2.789-4.679,5.062l-0.294,0.868c2.71-1.854,6.284-1.934,9.118-0.083
		c5.801,3.784,12.744,5.155,19.548,3.86C47.088,27.378,52.92,23.697,56.92,18.26z M13.838,55.583
		c-0.049-0.698-0.076-1.399-0.076-2.106V45.3c-2.218,0.652-3.841,2.706-3.841,5.131C9.921,52.884,11.583,54.955,13.838,55.583z"/>
	<path fill="#FFEBFA" d="M71.238,45.3c2.217,0.652,3.84,2.706,3.84,5.131c0,2.447-1.65,4.515-3.898,5.148
		c0.037-0.602,0.059-1.209,0.059-1.816V45.3z"/>
	<path fill="#F9E6D9" d="M68.221,39.75v14.013c0,6.87-2.674,13.328-7.533,18.187c-4.855,4.857-11.314,7.533-18.185,7.533
		c-0.002,0-0.002,0-0.002,0c-6.871,0-13.333-2.718-18.197-7.65c-4.852-4.922-7.524-11.44-7.524-18.355V26.471
		c0.854,0.064,1.703,0.34,2.467,0.837c6.457,4.215,14.185,5.742,21.761,4.3c6.147-1.171,11.672-4.199,15.92-8.663v4.094
		C56.928,33.588,61.869,39.001,68.221,39.75z M62.203,49.612c0.59-0.588,0.59-1.544,0-2.133c-1.09-1.09-2.539-1.691-4.082-1.691
		s-2.994,0.602-4.084,1.691c-0.59,0.589-0.59,1.545,0,2.133c0.295,0.296,0.682,0.443,1.066,0.443c0.387,0,0.773-0.147,1.066-0.443
		c0.521-0.521,1.213-0.807,1.951-0.807c0.736,0,1.43,0.286,1.949,0.807C60.658,50.202,61.615,50.202,62.203,49.612z M59.445,62.841
		c0-1.814-0.531-3.238-1.576-4.231c-2.121-2.018-5.754-1.835-10.357-1.604c-1.607,0.08-3.266,0.164-5.011,0.164
		c-1.744,0-3.405-0.084-5.012-0.164c-4.601-0.231-8.237-0.414-10.358,1.604c-1.043,0.993-1.573,2.417-1.573,4.231
		c0,3.462,1.827,6.685,5.148,9.072c3.17,2.28,7.358,3.536,11.795,3.536c4.435,0,8.625-1.256,11.794-3.536
		C57.615,69.525,59.445,66.303,59.445,62.841z M30.964,49.612c0.588-0.588,0.588-1.544,0-2.133c-1.092-1.09-2.542-1.691-4.084-1.691
		s-2.993,0.602-4.083,1.691c-0.588,0.589-0.588,1.545,0,2.133c0.294,0.296,0.681,0.443,1.067,0.443s0.771-0.147,1.067-0.443
		c0.521-0.521,1.212-0.807,1.948-0.807c0.737,0,1.43,0.286,1.95,0.807C29.419,50.202,30.374,50.202,30.964,49.612z"/>
	<path fill="#CE8628" d="M68.221,16.967v19.741c-4.682-0.728-8.277-4.787-8.277-9.67l-0.125-16.587
		c1.842-0.486,3.764-0.173,5.395,0.909C67.125,12.629,68.221,14.672,68.221,16.967z"/>
	<path fill="#333333" d="M62.203,47.479c0.59,0.589,0.59,1.545,0,2.133c-0.588,0.59-1.545,0.59-2.133,0
		c-0.52-0.521-1.213-0.807-1.949-0.807c-0.738,0-1.43,0.286-1.951,0.807c-0.293,0.296-0.68,0.443-1.066,0.443
		c-0.385,0-0.771-0.147-1.066-0.443c-0.59-0.588-0.59-1.544,0-2.133c1.09-1.09,2.541-1.691,4.084-1.691S61.113,46.39,62.203,47.479z
		"/>
	<path fill="#333333" d="M57.869,58.609c1.045,0.993,1.576,2.417,1.576,4.231c0,3.462-1.83,6.685-5.15,9.072
		c-3.17,2.28-7.359,3.536-11.794,3.536c-4.437,0-8.625-1.256-11.795-3.536c-3.321-2.388-5.148-5.61-5.148-9.072
		c0-1.814,0.53-3.238,1.573-4.231c2.122-2.018,5.757-1.835,10.358-1.604c1.606,0.08,3.268,0.164,5.012,0.164
		c1.746,0,3.404-0.084,5.011-0.164C52.115,56.774,55.748,56.592,57.869,58.609z M56.393,63.495c0.023-0.217,0.035-0.434,0.035-0.654
		c0-1.44-0.48-1.896-0.637-2.044c-1.184-1.126-4.557-0.958-8.129-0.777c-1.564,0.077-3.342,0.168-5.162,0.168
		c-1.821,0-3.596-0.091-5.163-0.168c-1.307-0.065-2.587-0.13-3.743-0.13c-2.003,0-3.634,0.192-4.384,0.907
		c-0.159,0.148-0.636,0.604-0.636,2.044c0,0.221,0.011,0.438,0.034,0.654c0.098,1.021,0.43,1.995,0.959,2.904
		c2.056,3.532,7.079,6.032,12.932,6.032s10.876-2.5,12.933-6.032C55.963,65.49,56.295,64.516,56.393,63.495z"/>
	<path fill="#CE8628" d="M56.801,10.465l0.119,7.795c-4,5.438-9.832,9.118-16.478,10.384c-6.804,1.295-13.747-0.076-19.548-3.86
		c-2.834-1.851-6.408-1.771-9.118,0.083l0.294-0.868c0.768-2.273,2.472-4.118,4.679-5.062c2.206-0.945,4.718-0.905,6.894,0.107
		c4.569,2.127,10.091,0.977,13.43-2.797l0.374-0.424c0.552-0.623,0.494-1.577-0.13-2.129c-0.624-0.553-1.578-0.494-2.129,0.13
		l-0.375,0.422c-2.461,2.784-6.53,3.631-9.896,2.062c-2.951-1.375-6.361-1.428-9.355-0.146c-0.272,0.117-0.538,0.247-0.798,0.383
		c1.754-4.675,5.999-7.967,12.674-9.81c6.63-1.829,13.679-1.594,20.383,0.683L56.801,10.465z"/>
	<path fill="#333333" d="M56.393,63.495c-0.098,1.021-0.43,1.995-0.959,2.904c-1.402-0.834-4.393-0.683-7.773-0.513
		c-1.564,0.077-3.34,0.167-5.16,0.167c-1.819,0-3.594-0.09-5.161-0.167c-3.379-0.17-6.366-0.321-7.771,0.513
		c-0.53-0.909-0.861-1.884-0.959-2.904c2.161-0.96,5.248-0.806,8.882-0.622c1.606,0.081,3.266,0.164,5.01,0.164
		c1.746,0,3.404-0.083,5.009-0.164C51.143,62.689,54.232,62.535,56.393,63.495z"/>
	<path fill="#CE0649" d="M47.66,65.887c3.381-0.17,6.371-0.321,7.773,0.513c-2.057,3.532-7.08,6.032-12.933,6.032
		s-10.876-2.5-12.932-6.032c1.405-0.834,4.392-0.683,7.771-0.513c1.567,0.077,3.341,0.167,5.161,0.167
		C44.32,66.054,46.096,65.964,47.66,65.887z"/>
	<path fill="#333333" d="M30.964,47.479c0.588,0.589,0.588,1.545,0,2.133c-0.59,0.59-1.544,0.59-2.134,0
		c-0.521-0.521-1.213-0.807-1.95-0.807c-0.735,0-1.427,0.286-1.948,0.807c-0.296,0.296-0.681,0.443-1.067,0.443
		s-0.773-0.147-1.067-0.443c-0.588-0.588-0.588-1.544,0-2.133c1.09-1.09,2.54-1.691,4.083-1.691S29.872,46.39,30.964,47.479z"/>
	<path fill="#FFEBFA" d="M13.762,53.477c0,0.707,0.026,1.408,0.076,2.106c-2.255-0.628-3.917-2.699-3.917-5.152
		c0-2.425,1.624-4.479,3.841-5.131V53.477z"/>
</g>
</svg>
