<?xml version="1.0" encoding="utf-8"?>
<!-- Generator: Adobe Illustrator 16.0.0, SVG Export Plug-In . SVG Version: 6.00 Build 0)  -->
<!DOCTYPE svg PUBLIC "-//W3C//DTD SVG 1.1//EN" "http://www.w3.org/Graphics/SVG/1.1/DTD/svg11.dtd">
<svg version="1.1" id="Layer_1" xmlns="http://www.w3.org/2000/svg" xmlns:xlink="http://www.w3.org/1999/xlink" x="0px" y="0px"
	 width="85px" height="85px" viewBox="0 0 85 85" enable-background="new 0 0 85 85" xml:space="preserve">
<g>
	<path fill="#2B3C65" d="M18.042,23.102c-2.305,0.588-4.604,0.846-6.944,0.139c-4.978-1.504-8.011-6.111-7.503-11.457
		C4.041,7.098,8.088,3.11,12.95,2.586c3.062-0.332,5.863,0.586,8.586,1.846c0.293,0.135,0.58,0.281,0.871,0.422
		c0.867,0.123,1.506,0.678,2.16,1.178c0.508,0.391,0.975,0.553,1.627,0.348c1.123-0.357,2.289-0.354,3.416-0.002
		c0.605,0.189,1.1,0.123,1.559-0.295c0.744-0.424,1.338-1.127,2.256-1.23c2.301-1.16,4.682-2.029,7.275-2.297
		c5.463-0.564,10.557,3.326,11.481,8.83c0.904,5.383-2.615,10.691-7.914,11.99c-2.196,0.537-4.338,0.273-6.477-0.271
		c-0.418,0.205-0.783-0.031-1.152-0.152c-0.838-0.273-1.631-0.666-2.447-0.998c-0.564-0.299-1.094-0.662-1.676-0.93
		c-1.121-0.916-2.232-1.615-3.842-1.072c-0.824,0.279-1.82,0.139-2.703-0.186c-0.457-0.168-0.816-0.076-1.188,0.229
		c-0.479,0.393-1.02,0.703-1.527,1.057c-1.271,0.803-2.645,1.387-4.055,1.891C18.831,23.073,18.458,23.272,18.042,23.102z"/>
	<path fill="#2B3C65" d="M66.999,61.883c3.586-1.021,6.998-0.795,10.107,1.453c3.877,2.805,5.365,7.859,3.648,12.342
		c-1.709,4.465-6.217,7.213-10.969,6.736c-2.568-0.258-4.922-1.137-7.199-2.283c-1.01-0.188-1.721-0.904-2.545-1.424
		c-0.324-0.283-0.682-0.258-1.064-0.143c-1.248,0.373-2.508,0.387-3.752,0.01c-0.49-0.148-0.861-0.043-1.285,0.221
		c-0.77,0.475-1.398,1.205-2.365,1.328c-2.371,1.195-4.832,2.066-7.506,2.332c-5.399,0.531-10.778-3.82-11.309-9.215
		c-0.766-7.801,5.793-13.391,13.575-11.57c0.289,0.066,0.576,0.139,0.863,0.207c0.389-0.191,0.736,0.01,1.08,0.131
		c1.441,0.508,2.828,1.141,4.146,1.92c0.139,0.082,0.277,0.168,0.396,0.273c0.945,0.834,1.902,1.293,3.266,0.848
		c0.883-0.289,1.926-0.174,2.861,0.15c0.479,0.164,0.867,0.111,1.266-0.225c0.451-0.379,0.971-0.674,1.461-1.006
		c0.352-0.182,0.688-0.385,1.02-0.6c1.086-0.564,2.205-1.057,3.373-1.428C66.374,61.846,66.679,61.738,66.999,61.883z"/>
	<path fill="#FE6761" d="M18.042,23.102c1.795-0.52,3.477-1.307,5.115-2.193c0.432,0.547,0.457,1.164,0.316,1.811
		c-0.426,0.469-0.553,0.994-0.467,1.637c1.389,10.455,2.771,20.912,4.148,31.369c0.039,0.295,0.07,0.59,0.148,0.877
		c0.092,0.342,0.184,0.738,0.613,0.748c0.447,0.008,0.547-0.398,0.609-0.74c0.172-0.955,0.283-1.922,0.408-2.885
		c0.951-7.275,1.924-14.546,2.885-21.822c0.33-2.486,0.652-4.975,0.988-7.461c0.09-0.656-0.006-1.229-0.471-1.721
		c-0.094-0.641-0.133-1.271,0.326-1.812c0.549,0.229,1.057,0.529,1.543,0.867c0.158,0.395,0.104,0.801,0.049,1.199
		c-0.904,6.682-1.771,13.369-2.658,20.052c-0.781,5.883-1.551,11.768-2.34,17.646c-0.197,1.484-0.701,2.83-2.072,3.668
		c-1.291,0.096-2.699-0.979-3.236-2.467c-0.289-0.795-0.355-1.633-0.465-2.459c-0.312-2.354-0.635-4.705-0.912-7.062
		c-0.084-0.709-0.297-1.297-0.848-1.752c-0.07-0.537-0.139-1.072-0.207-1.609c0.686-1.266,0.398-3.381-0.625-4.578
		c-0.248-1.83-0.494-3.662-0.742-5.492c0.521-0.617,0.465-1.33,0.361-2.061c-0.514-3.594-0.98-7.193-1.422-10.797
		c-0.076-0.625-0.543-0.887-0.844-1.307C18.204,24.204,18.208,23.643,18.042,23.102z"/>
	<path fill="#FE6761" d="M52.319,64.062c-1.648-0.867-3.322-1.67-5.121-2.186c0.07-0.553,0.141-1.102,0.211-1.652
		c0.521-0.492,0.789-1.062,0.887-1.811c1.498-11.346,2.99-22.691,4.498-34.035c0.207-1.559,0.891-2.822,2.381-3.525
		c0.123-0.059,0.258-0.084,0.393-0.09c0.488,0.004,0.773,0.324,1.031,0.678c0.625,0.863,1,1.828,1.145,2.885
		c0.111,0.797,0.219,1.594,0.309,2.393c0.041,0.357,0.145,0.77-0.35,0.947c-0.998-0.115-1.189,0.053-1.338,1.184
		c-0.547,4.174-1.1,8.346-1.652,12.518c-0.842,6.363-1.672,12.73-2.527,19.093c-0.092,0.678-0.041,1.287,0.459,1.799
		C52.737,62.896,52.771,63.523,52.319,64.062z"/>
	<path fill="#D85853" d="M57.733,27.579c0.422-0.543,0.012-1.094-0.029-1.625c-0.121-1.553-0.287-3.113-1.295-4.414
		c-0.215-0.277-0.414-0.574-0.807-0.617c0.162-0.502,0.623-0.465,1-0.512c2.059-0.258,4.006,1.047,4.547,3.076
		c0.391,1.465,0.475,2.986,0.672,4.484c0.844,6.396,1.688,12.797,2.545,19.193c0.5,3.721,0.98,7.441,1.465,11.164
		c0.102,0.764,0.295,1.404,0.91,1.883c0.045,0.562,0.002,1.141,0.258,1.672c-1.492,0.361-2.859,1.053-4.264,1.645
		c-0.377-0.154-0.34-0.504-0.367-0.812c-0.033-0.4-0.146-0.779-0.266-1.16c-0.275-2.072-0.627-4.135-0.807-6.221
		c-0.102-0.285,0.422-0.592-0.029-0.867c-0.281-0.529-0.227-1.111-0.279-1.676c0.094-0.32,0.098-0.631-0.109-0.918
		c-0.35-1.707-0.553-3.436-0.713-5.17c0.018-0.213,0.068-0.422,0.133-0.619c0.082-0.242-0.119-0.197-0.213-0.268
		c-0.342-1.168-0.385-2.383-0.547-3.576c-0.293-2.182-0.66-4.355-0.834-6.553c0.072-0.338,0.135-0.674-0.096-0.984
		c-0.445-2.229-0.646-4.494-0.963-6.74C57.626,27.831,57.657,27.696,57.733,27.579z"/>
	<path fill="#2B3C65" d="M66.741,60.213c-0.676,0.016-0.965-0.385-1.045-0.992c-0.607-4.674-1.207-9.348-1.826-14.021
		c-0.564-4.271-1.156-8.541-1.725-12.81c-0.354-2.645-0.705-5.287-1.02-7.936c-0.344-2.912-2.898-4.562-5.523-3.531
		c-1.531,0.555-2.336,1.719-2.543,3.262c-0.902,6.678-1.766,13.361-2.645,20.041c-0.648,4.943-1.305,9.887-1.957,14.83
		c-0.084,0.633-0.256,1.18-1.051,1.17c-0.602-0.195-0.734-0.623-0.656-1.209c1.457-10.965,2.906-21.931,4.359-32.898
		c0.109-0.828,0.195-1.664,0.35-2.482c0.539-2.852,2.953-4.771,5.844-4.676c2.799,0.09,5.061,2.203,5.438,5.055
		c1.342,10.139,2.689,20.273,4.031,30.412c0.207,1.551,0.398,3.104,0.613,4.652C67.464,59.639,67.31,60.033,66.741,60.213z"/>
	<path fill="#D85853" d="M27.059,64.232c1.229-0.869,1.777-2.119,1.975-3.557c0.432-3.154,0.861-6.309,1.273-9.465
		c0.346-2.652,0.652-5.312,1.006-7.965c0.348-2.625,0.742-5.244,1.092-7.869c0.299-2.256,0.553-4.518,0.852-6.771
		c0.301-2.279,0.633-4.555,0.951-6.83c1.199,0.43,2.348,0.996,3.582,1.326c-0.068,0.553-0.137,1.107-0.207,1.662
		c-0.643,0.498-0.809,1.182-0.914,1.965c-1.381,10.324-2.709,20.656-4.107,30.976c-0.139,1.016-0.268,2.033-0.4,3.051
		c-0.295,2.234-2.09,3.861-4.209,3.84C27.62,64.592,27.227,64.672,27.059,64.232z"/>
	<path fill="#2B3C65" d="M27.059,64.232c2.277,0.633,4.572-1.062,4.893-3.549c0.668-5.209,1.383-10.41,2.068-15.617
		c0.619-4.699,1.225-9.398,1.838-14.099c0.223-1.709,0.445-3.418,0.674-5.125c0.082-0.615,0.307-1.104,1.051-1.078
		c0.568,0.176,0.729,0.58,0.654,1.133c-0.891,6.658-1.783,13.316-2.67,19.976c-0.666,5.002-1.334,10.002-1.979,15.006
		c-0.379,2.938-2.646,5.08-5.52,5.146c-2.932,0.07-5.379-1.965-5.803-4.912c-0.441-3.07-0.795-6.154-1.223-9.229
		c-0.088-0.643,0.098-1.043,0.682-1.283c0.68,0.088,0.916,0.514,0.996,1.16c0.367,2.99,0.756,5.979,1.166,8.963
		C24.147,62.629,25.379,63.959,27.059,64.232z"/>
	<path fill="#2B3C65" d="M18.249,24.758c0.67-0.004,0.951,0.391,1.031,1c0.525,4.018,1.049,8.037,1.584,12.055
		c0.078,0.596-0.234,0.895-0.713,1.109c-0.695-0.076-0.916-0.525-0.998-1.162c-0.502-3.934-1.021-7.863-1.551-11.793
		C17.522,25.375,17.647,24.958,18.249,24.758z"/>
	<path fill="#FE6761" d="M31.313,6.194c-0.463,0.543-0.953,0.67-1.688,0.41c-1.221-0.432-2.502-0.355-3.727,0.076
		c-0.445,0.156-0.725,0.07-1.086-0.201c-0.773-0.58-1.602-1.088-2.406-1.627c0.605-0.42,1.291-0.668,1.965-0.939
		c0.621,0.326,1.256,0.285,1.934,0.168c0.762-0.133,1.549-0.111,2.322,0.006c0.865,0.328,1.621,0.842,2.346,1.402
		C31.184,5.653,31.528,5.803,31.313,6.194z"/>
	<path fill="#FE6761" d="M51.575,80.123c0.881-0.57,1.793-1.094,2.602-1.771c0.205-0.174,0.393-0.209,0.658-0.113
		c1.473,0.527,2.961,0.543,4.43,0.01c0.48-0.176,0.695,0.076,0.941,0.369c-0.77,1.176-1.939,1.785-3.199,2.275
		c-0.523,0.096-1.062,0.131-1.574,0c-0.666-0.168-1.287-0.141-1.896,0.174C52.86,80.795,52.171,80.559,51.575,80.123z"/>
	<path fill="#2C3C65" d="M53.536,81.066c0.297-0.514,0.713-0.66,1.295-0.51c0.732,0.191,1.486,0.262,2.246,0.193
		c0.775-0.229,1.578-0.332,2.373-0.449c0.572-0.084,1.096,0.027,1.16,0.77c0.033,0.691-0.338,1-0.984,1.133
		c-1.707,0.352-3.404,0.354-5.109,0C53.87,82.068,53.497,81.76,53.536,81.066z"/>
	<path fill="#2C3C65" d="M28.711,4.256c-1.025-0.117-2.049-0.078-3.051,0.168c-0.582,0.143-0.998,0.01-1.291-0.512
		c-0.039-0.697,0.336-1.002,0.982-1.135c1.709-0.352,3.408-0.354,5.117,0c0.643,0.133,1.021,0.439,0.984,1.137
		c-0.061,0.629-0.48,0.787-1.021,0.754C29.838,4.631,29.286,4.399,28.711,4.256z"/>
	<path fill="#2C3C65" d="M20.895,44.416c0.732,0.178,1.006,0.662,1.033,1.398c0.02,0.607,0.137,1.217,0.254,1.816
		c0.125,0.639-0.041,1.104-0.664,1.361c-0.658-0.035-0.93-0.428-1-1.041c-0.09-0.799-0.195-1.598-0.318-2.393
		C20.108,44.967,20.475,44.682,20.895,44.416z"/>
	<path fill="#D85853" d="M60.61,81.07c-0.301-0.486-0.682-0.688-1.287-0.523c-0.729,0.195-1.484,0.277-2.246,0.203
		c1.146-0.559,2.166-1.307,3.129-2.135c0.795,0.506,1.588,1.012,2.383,1.516C61.978,80.545,61.29,80.801,60.61,81.07z"/>
	<path fill="#D75853" d="M28.711,4.256c0.484-0.086,0.951,0.043,1.402,0.164c0.598,0.162,1.027,0.012,1.342-0.506
		c0.678,0.266,1.363,0.518,1.967,0.938c-0.703,0.447-1.406,0.895-2.109,1.342c-0.439-0.758-1.246-1.057-1.916-1.523
		C29.18,4.516,28.942,4.393,28.711,4.256z"/>
	<path fill="#F3F3F3" d="M23.715,18.491c-2.615,1.902-5.486,3.139-8.734,3.477c-4.216,0.436-8.31-2.318-9.445-6.387
		C3.922,9.795,8.151,4.168,14.153,4.204c3.428,0.02,6.443,1.352,9.236,3.25c0.264,0.18,0.396,0.311,0.072,0.596
		c-3.084,2.705-3.061,7.543,0.146,10.252C23.645,18.333,23.659,18.389,23.715,18.491z"/>
	<path fill="#F3F3F3" d="M40.708,21.905c-3.1-0.229-5.807-1.473-8.32-3.215c-0.541-0.375-0.014-0.516,0.158-0.686
		c2.381-2.35,2.799-5.803,1.018-8.572c-0.336-0.523-0.725-1.008-1.209-1.402c-0.262-0.213-0.246-0.355,0.025-0.543
		c2.525-1.725,5.24-2.953,8.326-3.221c1.168,0.289,1.998,1.066,2.768,1.924c0.129,0.146,0.312,0.32,0.104,0.549
		c-0.533,0.156-1.063-0.098-1.598-0.018c-0.355,0.051-0.756,0.059-0.783,0.52c-0.029,0.488,0.355,0.629,0.754,0.662
		c1.467,0.115,2.688,0.711,3.653,1.826c0.215,0.246,0.43,0.484,0.48,0.824c0.449,2.209,0.396,4.383-0.539,6.473
		c-0.795,1.781-1.963,3.26-3.592,4.363C41.567,21.651,41.149,21.797,40.708,21.905z"/>
	<path fill="#F3F3F3" d="M23.377,22.694c-0.074-0.594-0.146-1.189-0.221-1.785c0.627-0.459,1.27-0.9,1.875-1.389
		c0.27-0.217,0.486-0.121,0.74-0.039c1.426,0.469,2.857,0.482,4.275-0.008c0.352-0.121,0.582-0.082,0.867,0.15
		c0.562,0.455,1.166,0.859,1.75,1.285c-0.076,0.596-0.15,1.191-0.225,1.785c-0.641,0.553-0.787,1.297-0.887,2.09
		c-0.742,5.918-1.562,11.824-2.332,17.738c-0.051,0.375-0.02,1.048-0.408,1.015c-0.488-0.039-0.338-0.689-0.338-1.091
		c-0.014-5.504-0.008-11.012-0.01-16.518c0-0.377,0.029-0.758-0.082-1.125c-0.064-0.217-0.197-0.396-0.443-0.414
		c-0.293-0.02-0.439,0.172-0.516,0.422c-0.111,0.369-0.082,0.75-0.084,1.127c-0.002,5.316,0.006,10.633-0.01,15.951
		c0,0.477,0.211,1.248-0.352,1.314c-0.395,0.047-0.391-0.781-0.451-1.244c-0.762-5.807-1.564-11.605-2.281-17.418
		C24.157,23.809,23.895,23.204,23.377,22.694z"/>
	<path fill="#CFCFCF" d="M40.708,21.905c1.635-0.92,3.018-2.094,4-3.725c1.301-2.158,1.689-4.465,1.281-6.93
		c-0.039-0.236-0.055-0.477-0.08-0.713c0.576,0.195,0.646,0.736,0.795,1.205c0.135,0.438,0.166,0.898,0.252,1.348
		c0.059,0.307,0.223,0.58,0.58,0.562c0.355-0.016,0.488-0.299,0.549-0.605c0.057-0.293,0.059-0.594,0-0.885
		c-0.436-2.221-1.574-3.914-3.674-4.895c-0.295-0.137-0.707-0.143-0.787-0.58c-0.733-1.096-1.84-1.742-2.918-2.424
		c4.885-0.576,9.358,2.949,9.877,7.783c0.539,4.992-3.016,9.416-7.952,9.896C41.987,22.008,41.344,22.118,40.708,21.905z"/>
	<path fill="#FED664" d="M26.911,18.03c-2.447-0.432-4.137-2.59-4.053-5.176c0.078-2.43,1.984-4.502,4.365-4.746
		c0.578-0.164,1.043,0.041,1.469,0.424c2.715,2.426,2.686,6.744-0.055,9.135C28.118,18.12,27.542,18.172,26.911,18.03z"/>
	<path fill="#D8B655" d="M26.911,18.03c1.992-0.008,2.652-1.549,3.23-3c0.918-2.305,0.111-4.943-1.799-6.543
		c-0.336-0.279-0.713-0.35-1.119-0.379c2.439-0.562,5.248,1.439,5.688,4.057c0.564,3.361-2.148,6.303-5.545,6.002
		C27.209,18.153,27.061,18.077,26.911,18.03z"/>
	<path fill="#F3F3F3" d="M52.849,66.549c-3.061,2.637-3.666,7.316,0.062,10.762c-3.52,2.305-7.186,4.088-11.52,3.266
		c-4.602-0.875-7.695-5.432-6.963-9.992c0.768-4.781,5.025-8.066,9.793-7.555C47.313,63.359,51.073,64.895,52.849,66.549z"/>
	<path fill="#F3F3F3" d="M69.04,80.602c-2.756-0.389-5.195-1.533-7.471-3.088c-0.307-0.209-0.307-0.352-0.029-0.602
		c3.016-2.695,3.025-7.291,0.039-10.025c-0.305-0.279-0.312-0.416,0.027-0.65c2.359-1.631,4.916-2.775,7.789-3.135
		c1.482,0.357,2.471,1.414,3.342,2.537c2.391,3.094,2.818,6.49,1.361,10.119c-0.666,0.842-1.629,1.084-2.611,1.279
		c-0.211,0.041-0.434,0.021-0.639,0.092c-0.309,0.105-0.523,0.299-0.488,0.648c0.035,0.326,0.279,0.436,0.57,0.469
		c0.342,0.041,0.705-0.039,1.023,0.158c0.082,0.086,0.115,0.203,0.045,0.287C71.208,79.629,70.392,80.533,69.04,80.602z"/>
	<path fill="#F3F3F3" d="M52.319,64.062c0.074-0.592,0.148-1.184,0.223-1.775c0.611-0.533,0.781-1.238,0.879-2.012
		c0.742-5.867,1.531-11.729,2.309-17.589c0.049-0.359,0.066-0.961,0.436-0.93c0.488,0.041,0.34,0.646,0.342,1.018
		c0.016,5.4,0.008,10.802,0.012,16.205c0,0.377-0.025,0.758,0.064,1.129c0.061,0.252,0.188,0.467,0.473,0.48
		c0.332,0.014,0.469-0.227,0.529-0.508c0.076-0.348,0.057-0.699,0.057-1.051c0.002-5.457-0.002-10.912,0.006-16.367
		c0-0.441-0.072-0.912,0.307-1.363c0.395,0.352,0.375,0.799,0.426,1.193c0.518,3.882,1.031,7.763,1.545,11.644
		c0.293,2.223,0.586,4.445,0.889,6.666c0.082,0.602,0.305,1.08,0.834,1.395c0.293,0.604,0.502,1.215,0.178,1.875
		c-0.627,0.461-1.27,0.9-1.875,1.391c-0.27,0.219-0.486,0.117-0.74,0.035c-1.426-0.467-2.857-0.482-4.275,0.012
		c-0.354,0.123-0.582,0.076-0.865-0.154C53.503,64.898,52.903,64.492,52.319,64.062z"/>
	<path fill="#CFCFCF" d="M73.942,75.732c0.189-0.916,0.527-1.787,0.672-2.727c0.629-4.098-1.85-8.133-5.029-9.762
		c-0.068-0.033-0.127-0.096-0.189-0.145c5.594-0.961,10.707,3.557,10.393,9.373c-0.25,4.592-4.211,8.326-8.992,8.307
		c-0.586-0.004-1.188,0.053-1.756-0.18c1.184-0.432,2.162-1.145,2.949-2.127c0.125-0.34,0.455-0.344,0.727-0.438
		c2.559-0.867,4.07-2.629,4.531-5.291c0.057-0.318,0.08-0.645-0.021-0.961c-0.078-0.242-0.227-0.439-0.506-0.453
		c-0.281-0.016-0.439,0.172-0.545,0.406c-0.09,0.199-0.082,0.422-0.121,0.633c-0.203,1.104-0.535,2.148-1.367,2.957
		C74.479,75.529,74.298,75.797,73.942,75.732z"/>
	<path fill="#FED664" d="M56.411,76.867c-2.328-0.176-4.285-2.266-4.393-4.693c-0.115-2.598,1.613-4.824,4.061-5.227
		c0.463-0.146,0.838,0.033,1.184,0.318c2.756,2.273,2.824,6.787,0.137,9.145C57.116,76.656,56.833,76.918,56.411,76.867z"/>
	<path fill="#D8B655" d="M56.411,76.867c3.381-2.314,3.738-6.566,0.795-9.377c-0.324-0.311-0.672-0.525-1.127-0.543
		c1.807-0.48,3.912,0.334,5.111,1.979c1.229,1.686,1.268,4.016,0.092,5.771C60.185,76.344,58.134,77.258,56.411,76.867z"/>
	<path fill="#FB6761" d="M61.823,64.074c-0.074-0.596-0.146-1.189-0.221-1.785c0.125-0.332,0.406-0.502,0.689-0.67
		c0.465,0.562,0.139,1.309,0.441,1.908C62.456,63.75,62.177,63.975,61.823,64.074z"/>
	<path fill="#2B3C65" d="M23.377,22.694c0.656,0.041,0.908,0.414,0.99,1.047c0.793,6.102,1.605,12.197,2.414,18.295
		c0.053,0.393,0.131,0.779,0.303,1.152c0-2.208,0-4.419,0-6.63c0-3.781,0.004-7.562-0.004-11.344c0-0.627,0.098-1.199,0.865-1.18
		c0.721,0.02,0.791,0.584,0.791,1.172c-0.006,5.752-0.004,11.506-0.004,17.26c0,0.322,0,0.646,0,0.97
		c0.035,0.004,0.068,0.006,0.104,0.01c0.334-2.472,0.672-4.945,1-7.421c0.545-4.119,1.092-8.238,1.623-12.357
		c0.08-0.609,0.375-0.93,0.98-0.973c0.762,0.242,0.725,0.842,0.643,1.453c-0.348,2.646-0.697,5.289-1.049,7.934
		c-0.562,4.246-1.131,8.492-1.691,12.74c-0.51,3.873-1.012,7.748-1.518,11.621c-0.014,0.107-0.057,0.211-0.066,0.316
		c-0.053,0.547-0.279,0.975-0.883,0.943c-0.541-0.025-0.746-0.426-0.811-0.941c-0.25-1.949-0.523-3.898-0.781-5.848
		c-0.566-4.273-1.133-8.546-1.697-12.82c-0.57-4.328-1.141-8.654-1.711-12.982c-0.053-0.4-0.1-0.801-0.162-1.201
		C22.624,23.331,22.786,22.897,23.377,22.694z"/>
	<path fill="#2B3C65" d="M62.294,61.619c-0.096,0.363-0.373,0.537-0.691,0.67c-0.609-0.031-0.898-0.348-0.979-0.959
		c-0.799-6.125-1.611-12.248-2.424-18.371c-0.062-0.479-0.146-0.951-0.305-1.418c0,0.855,0,1.714,0,2.572c0,5.156,0,10.314,0,15.473
		c0,0.242,0.025,0.494-0.029,0.727c-0.098,0.408-0.377,0.656-0.812,0.646c-0.43-0.012-0.713-0.252-0.781-0.678
		c-0.043-0.264-0.021-0.539-0.023-0.809c0-5.887,0-11.773-0.131-17.675c-0.215,1.558-0.438,3.115-0.645,4.675
		c-0.656,4.947-1.311,9.893-1.951,14.842c-0.08,0.605-0.373,0.93-0.98,0.973c-0.76-0.24-0.725-0.838-0.645-1.451
		c0.35-2.645,0.699-5.287,1.049-7.93c0.568-4.299,1.135-8.6,1.705-12.896c0.52-3.924,1.035-7.85,1.58-11.771
		c0.143-1.018,0.643-1.207,1.502-0.658c0.439,1.748,0.506,3.553,0.803,5.322c0.102,0.605,0.193,1.209,0.289,1.814
		c0.213,0.248,0.104,0.521,0.07,0.791c0.398,3.051,0.787,6.102,1.207,9.148c0.059,0.416-0.053,0.867,0.207,1.252
		c0.15,0.197,0.092,0.41,0.043,0.621c0.223,1.793,0.396,3.592,0.744,5.365c0.211,0.248,0.1,0.523,0.068,0.793
		c0.096,0.605,0.055,1.229,0.277,1.812c0.152,0.197,0.094,0.41,0.043,0.621C61.755,57.287,62.024,59.453,62.294,61.619z"/>
	<path fill="#E75E58" d="M58.896,35.508c-0.023-0.266-0.047-0.529-0.068-0.793C59.132,34.956,59.073,35.227,58.896,35.508z"/>
	<path fill="#E75E58" d="M60.353,46.529c-0.016-0.207-0.029-0.414-0.045-0.621C60.589,46.098,60.521,46.311,60.353,46.529z"/>
	<path fill="#E85E59" d="M61.165,52.688c-0.021-0.264-0.045-0.527-0.068-0.793C61.399,52.135,61.343,52.406,61.165,52.688z"/>
	<path fill="#E65E59" d="M61.487,55.121c-0.016-0.207-0.029-0.414-0.045-0.621C61.726,54.688,61.655,54.9,61.487,55.121z"/>
	<path fill="#2B3C65" d="M13.739,6.485c0.572-0.059,1.158,0.029,1.168,0.797c0.01,0.691-0.525,0.82-1.125,0.859
		c-2.526,0.16-4.422,2.088-4.644,4.73c-0.049,0.584-0.217,1.061-0.853,1.045c-0.686-0.02-0.864-0.533-0.805-1.148
		c0.002-0.027,0-0.053,0.002-0.08C7.6,9.442,10.438,6.604,13.739,6.485z"/>
	<path fill="#2B3C65" d="M43.624,6.688c2.461,0.926,4.088,2.592,4.619,5.219c0.068,0.34,0.074,0.693,0.094,1.041
		c0.033,0.578-0.242,0.969-0.818,0.971c-0.529,0.002-0.791-0.365-0.824-0.902c-0.053-0.889-0.197-1.756-0.785-2.48
		c-0.855-1.545-2.223-2.27-3.934-2.396c-0.617-0.045-1.088-0.234-1.062-0.916c0.018-0.488,0.365-0.738,0.877-0.752
		C42.413,6.458,43.015,6.604,43.624,6.688z"/>
	<path fill="#2B3C65" d="M42.905,78.496c-3.322-0.094-6.201-3.002-6.268-6.309c-0.012-0.582,0.115-1.08,0.752-1.121
		c0.684-0.045,0.863,0.445,0.908,1.064c0.191,2.641,2.094,4.525,4.745,4.713c0.592,0.041,1.01,0.242,1.037,0.875
		C44.103,78.252,43.665,78.518,42.905,78.496z"/>
	<path fill="#2B3C65" d="M73.942,75.732c1.232-0.873,1.77-2.131,1.896-3.576c0.055-0.607,0.201-1.129,0.891-1.092
		c0.684,0.039,0.795,0.58,0.775,1.186c-0.088,2.734-2.184,5.334-4.9,6.047c-0.205,0.055-0.41,0.119-0.615,0.178
		c-0.242,0.008-0.486,0.002-0.727,0.023c-0.596,0.049-1.152-0.039-1.189-0.754c-0.037-0.691,0.467-0.865,1.082-0.902
		C72.198,76.779,73.163,76.475,73.942,75.732z"/>
</g>
</svg>
