<?xml version="1.0" encoding="utf-8"?>
<!-- Generator: Adobe Illustrator 16.0.0, SVG Export Plug-In . SVG Version: 6.00 Build 0)  -->
<!DOCTYPE svg PUBLIC "-//W3C//DTD SVG 1.1//EN" "http://www.w3.org/Graphics/SVG/1.1/DTD/svg11.dtd">
<svg version="1.1" id="Layer_1" xmlns="http://www.w3.org/2000/svg" xmlns:xlink="http://www.w3.org/1999/xlink" x="0px" y="0px"
	 width="85px" height="85px" viewBox="0 0 85 85" enable-background="new 0 0 85 85" xml:space="preserve">
<g>
	<g>
		<path fill="#F4B2B0" d="M42.318,45.086c-0.354,0.994-0.549,2.062-0.549,3.18c0,5.229,4.238,9.465,9.467,9.465
			s9.465-4.238,9.465-9.465c0-1.115-0.193-2.186-0.547-3.18H42.318z"/>
		<path fill="#F4B2B0" d="M51.316,68.785c-0.01,0.002-0.02,0.006-0.031,0.008c-2.814,0.688-5.756,1.053-8.785,1.053
			c-3.037,0-5.988-0.369-8.814-1.061c-2.699,2.42-4.397,5.932-4.397,9.842c0,0.521,0.032,1.039,0.091,1.547h26.244
			c0.061-0.508,0.092-1.023,0.092-1.547C55.715,74.717,54.016,71.205,51.316,68.785z"/>
	</g>
	<g>
		<path fill="#B3404A" d="M81.549,28.252c-0.139-1.174-1.131-2.057-2.311-2.057H63.025V12.543c0-1.129,0.918-2.047,2.047-2.047
			s2.047,0.918,2.047,2.047c0,1.283,1.041,2.324,2.324,2.324s2.324-1.041,2.324-2.324c0-3.693-3.004-6.697-6.695-6.697
			s-6.695,3.004-6.695,6.697v30.219H42.316c-0.982,0-1.859,0.619-2.189,1.543c-0.453,1.271-0.684,2.604-0.684,3.959
			c0,6.502,5.289,11.791,11.791,11.791s11.791-5.289,11.791-11.791c0-0.133-0.004-0.266-0.008-0.398
			c0.004-0.055,0.008-0.109,0.008-0.168V30.846h14.082c0.039,0.672,0.059,1.344,0.059,2.008c0,11.908-6.002,22.844-16.057,29.254
			c-1.084,0.689-1.402,2.127-0.711,3.211c0.443,0.695,1.193,1.074,1.963,1.074c0.426,0,0.859-0.117,1.246-0.365
			c11.402-7.268,18.209-19.67,18.209-33.174C81.818,31.332,81.727,29.783,81.549,28.252z M51.236,55.406
			c-3.938,0-7.143-3.205-7.143-7.143c0-0.285,0.018-0.57,0.051-0.854h14.182c0.035,0.281,0.053,0.566,0.053,0.854
			C58.377,52.201,55.174,55.406,51.236,55.406z"/>
		<path fill="#B3404A" d="M52.867,67.055c-0.566-0.51-1.35-0.707-2.092-0.531l-0.041,0.01c-4.705,1.146-9.678,1.289-14.448,0.43
			c-0.036-0.008-0.071-0.016-0.106-0.021c-0.266-0.049-0.531-0.102-0.795-0.156c-0.141-0.029-0.281-0.061-0.421-0.092
			c-0.153-0.035-0.307-0.068-0.46-0.105C19.232,62.969,7.835,49.219,7.835,32.854c0-0.664,0.021-1.334,0.06-2.008h40.07
			c1.283,0,2.324-1.041,2.324-2.324c0-1.285-1.039-2.326-2.324-2.326H5.764c-1.18,0-2.173,0.885-2.31,2.057
			c-0.179,1.533-0.271,3.082-0.271,4.604c0,17.158,11.051,31.783,26.408,37.137c-1.695,2.533-2.63,5.535-2.63,8.635
			c0,0.602,0.036,1.213,0.106,1.816c0.137,1.172,1.13,2.057,2.31,2.057h26.245c1.18,0,2.174-0.885,2.311-2.057
			c0.07-0.604,0.105-1.215,0.105-1.816C58.039,74.217,56.154,70,52.867,67.055z M31.641,77.848c0.174-2.418,1.154-4.713,2.775-6.514
			c0.027,0.006,0.055,0.012,0.082,0.018c0.229,0.047,0.46,0.092,0.691,0.135c0.086,0.018,0.17,0.033,0.256,0.049
			c2.289,0.416,4.646,0.637,7.055,0.637c0.033,0,0.066-0.004,0.1-0.006c2.686-0.008,5.369-0.283,7.984-0.83
			c1.621,1.799,2.602,4.096,2.775,6.514L31.641,77.848L31.641,77.848z"/>
		<path fill="#B3404A" d="M45.76,22.766c-0.596,0-1.189-0.229-1.645-0.68c-0.908-0.908-0.908-2.381,0-3.289l3.5-3.5
			c0.293-0.293,0.455-0.688,0.455-1.109s-0.162-0.816-0.455-1.109c-0.602-0.602-1.619-0.602-2.221,0
			c-0.016,0.016-0.031,0.031-0.049,0.049l-1.439,1.355c-1.168,1.156-2.719,1.791-4.371,1.791c-1.665,0-3.227-0.646-4.398-1.816
			c-1.172-1.172-1.816-2.734-1.816-4.398s0.645-3.225,1.816-4.398l2.48-2.479c0.908-0.908,2.379-0.908,3.287,0s0.908,2.379,0,3.287
			l-2.479,2.48c-0.293,0.293-0.456,0.688-0.456,1.109s0.162,0.816,0.455,1.109s0.688,0.455,1.109,0.455s0.816-0.162,1.111-0.455
			c0.016-0.016,0.033-0.031,0.049-0.049l1.439-1.355c2.428-2.398,6.354-2.389,8.77,0.027c1.17,1.172,1.816,2.732,1.816,4.396
			c0,1.666-0.646,3.229-1.816,4.398l-3.5,3.5C46.949,22.539,46.355,22.766,45.76,22.766z"/>
	</g>
</g>
</svg>
