<?xml version="1.0" encoding="utf-8"?>
<!-- Generator: Adobe Illustrator 16.0.0, SVG Export Plug-In . SVG Version: 6.00 Build 0)  -->
<!DOCTYPE svg PUBLIC "-//W3C//DTD SVG 1.1//EN" "http://www.w3.org/Graphics/SVG/1.1/DTD/svg11.dtd">
<svg version="1.1" id="Layer_1" xmlns="http://www.w3.org/2000/svg" xmlns:xlink="http://www.w3.org/1999/xlink" x="0px" y="0px"
	 width="85px" height="85px" viewBox="0 0 85 85" enable-background="new 0 0 85 85" xml:space="preserve">
<g>
	<g>
		<path fill="#E8E8E8" d="M55.033,2.5c-0.934,0-1.732,0.268-2.533,0.668c-0.801-0.4-1.6-0.668-2.533-0.668
			c-4.533,0-5.066,3.467-5.066,3.467c-2.133,0-3.734,1.732-3.734,3.732c0,2.135,1.734,3.734,3.734,3.734
			c1.199,0,2.268-0.535,2.934-1.467c0.668,0.266,1.334,0.398,2,0.398c0.934,0,1.732-0.266,2.533-0.666
			c0.801,0.4,1.602,0.666,2.533,0.666c2.801,0,5.066-2.266,5.066-4.932C59.967,4.766,57.699,2.5,55.033,2.5"/>
		<path fill="#E8E8E8" d="M68.768,15.699c-0.936,0-1.734,0.268-2.533,0.668c-0.801-0.4-1.6-0.668-2.533-0.668
			c-4.533,0-5.066,3.602-5.066,3.602c-2.133,0-3.732,1.732-3.732,3.732c0,2.133,1.732,3.732,3.732,3.732
			c1.199,0,2.268-0.533,2.934-1.467c0.666,0.268,1.334,0.4,2,0.4c0.934,0,1.732-0.268,2.533-0.668c0.801,0.4,1.6,0.668,2.533,0.668
			c2.801,0,5.066-2.268,5.066-4.934C73.699,17.967,71.566,15.699,68.768,15.699"/>
	</g>
	<g>
		<path fill="#FFFFFF" d="M53.699,24.5v40.4h10V24.5C60.768,21.566,56.768,22.1,53.699,24.5"/>
		<path fill="#FFFFFF" d="M38.768,10.766v40.4h10v-40.4C45.699,7.834,41.699,8.365,38.768,10.766"/>
	</g>
	<path fill="#ED4C5C" d="M38.768,13.301v40.398h10V13.301C45.699,10.365,41.699,10.766,38.768,13.301"/>
	<path fill="#FFFFFF" d="M38.768,15.699v40.4h10v-40.4C45.699,12.766,41.699,13.301,38.768,15.699"/>
	<path fill="#ED4C5C" d="M53.699,26.9v40.4h10V26.9C60.768,24.1,56.768,24.5,53.699,26.9"/>
	<path fill="#FFFFFF" d="M53.699,29.434v40.398h10V29.434C60.768,26.5,56.768,27.033,53.699,29.434"/>
	<g>
		<path fill="#94989B" d="M78.1,63.566H14.367v-32.4l2.533-2.533v-3.6l2.533-1.334v-2.666l10-4.533l20,3.467L78.1,46.768V63.566
			L78.1,63.566z"/>
		<path fill="#94989B" d="M46.768,19.967V24.9l-2.4,0.533v4.533l-2.533-0.268V34.9h-2.4v5.867L78.1,60.9V46.766L49.434,19.967
			H46.768L46.768,19.967z"/>
	</g>
	<path fill="#FFFFFF" d="M11.3,32.5c0,0-6.8,2.4-8.8,8.668c0,0,2.133,7.6,8.133,16.799s9.333,21.865,9.333,21.865V42.1L11.3,32.5"/>
	<g>
		<path fill="#3E4347" d="M37.434,36.232V38.9L30.9,36.1L37.434,36.232z"/>
		<path fill="#3E4347" d="M39.967,31.166v2.268l-18.133-2.268H39.967z"/>
		<path fill="#3E4347" d="M42.5,26.232V28.5l-18.133-2.268H42.5z"/>
		<path fill="#3E4347" d="M45.033,21.166v2.268L26.9,21.166H45.033z"/>
	</g>
	<path fill="#FFFFFF" d="M19.434,18.766v2.4l10-2.4v-2.533L19.434,18.766z"/>
	<path fill="#E8E8E8" d="M29.434,16.232v2.533l20,2.4v-2.4L29.434,16.232z"/>
	<path fill="#D0D0D0" d="M49.434,21.166v-2.4l28.666,28v0.668L49.434,21.166z"/>
	<path fill="#FFFFFF" d="M16.9,23.699v2.533l10-2.533v-2.533L16.9,23.699z"/>
	<path fill="#E8E8E8" d="M26.9,21.166v2.533l20,2.533v-2.533L26.9,21.166z"/>
	<path fill="#D0D0D0" d="M46.9,26.232v-2.533L78.1,50.5v0.668L46.9,26.232z"/>
	<path fill="#FFFFFF" d="M14.367,28.633v2.533l10-2.533v-2.4L14.367,28.633z"/>
	<path fill="#E8E8E8" d="M24.367,26.232v2.4l20,2.533v-2.533L24.367,26.232z"/>
	<path fill="#D0D0D0" d="M44.365,31.166v-2.533l33.734,25.6V54.9L44.365,31.166z"/>
	<path fill="#FFFFFF" d="M11.834,33.699v2.533l10-2.533v-2.533L11.834,33.699z"/>
	<path fill="#E8E8E8" d="M21.834,31.166v2.533l20,2.533v-2.533L21.834,31.166z"/>
	<path fill="#D0D0D0" d="M41.834,36.232v-2.533L78.1,57.967v0.668L41.834,36.232z"/>
	<g>
		<path fill="#3E4347" d="M76.9,49.033v-1.201L48.1,22.365v2L76.9,49.033z"/>
		<path fill="#3E4347" d="M76.768,52.635v-1.201L45.566,27.168v1.865L76.768,52.635z"/>
		<path fill="#3E4347" d="M76.9,56.635v-1.068l-33.732-23.6v1.867L76.9,56.635z"/>
		<path fill="#3E4347" d="M40.635,37.566v1.602L76.9,59.967V58.9L40.635,37.566z"/>
	</g>
	<path fill="#D0D0D0" d="M11.3,32.5c0,0-1.466,10.533,2.8,22.668C19.967,71.967,19.7,79.834,19.7,79.834h55.601
		c0,0,0.266-3.734,3.732-8.533c3.465-4.801,3.467-7.734,3.467-7.734S27.967,28.365,11.3,32.5"/>
	<path fill="#3E4347" d="M77.566,62.232L36.367,41.967v3.732l41.199,18.666V62.232z"/>
	<g>
		<path fill="#E8E8E8" d="M75.301,59.301v3.334h0.666v-3.334H75.301z"/>
		<path fill="#E8E8E8" d="M66.5,54.1v4.133h0.666V54.1H66.5z"/>
		<path fill="#E8E8E8" d="M57.166,48.635V54.5h0.666v-5.865H57.166z"/>
		<path fill="#E8E8E8" d="M46.5,43.301V50.5h0.533v-7.199H46.5z"/>
	</g>
	<g>
		<path fill="#ED4C5C" d="M76.1,62.635c0.535,0.799-0.666,0.932-2.533,0.533c-1.865-0.533-3.865-1.469-4.398-2.268
			c-0.533-0.801,0.666-0.934,2.533-0.535C73.566,60.9,75.566,61.834,76.1,62.635"/>
		<path fill="#ED4C5C" d="M67.434,58.635c0.533,0.932-0.666,1.199-2.799,0.799c-2.135-0.533-4.27-1.732-4.803-2.533
			c-0.531-0.934,0.668-1.199,2.803-0.801C64.768,56.635,66.9,57.699,67.434,58.635"/>
		<path fill="#ED4C5C" d="M57.967,54.232c0.668,0.936-0.666,1.334-2.934,0.801c-2.268-0.398-4.668-1.6-5.201-2.398
			c-0.664-0.936,0.668-1.334,2.936-0.801C54.9,52.232,57.301,53.434,57.967,54.232"/>
		<path fill="#ED4C5C" d="M47.566,49.967c0.801,1.066-0.666,1.6-3.332,1.066c-2.668-0.398-5.334-1.6-6.133-2.668
			c-0.801-1.064,0.666-1.6,3.332-1.064C43.967,47.699,46.768,48.9,47.566,49.967"/>
	</g>
	<g>
		<path fill="#E8E8E8" d="M38.5,39.301v8.531h0.533v-8.531H38.5z"/>
		<path fill="#E8E8E8" d="M49.832,45.168V52.1h0.533v-6.932H49.832z"/>
		<path fill="#E8E8E8" d="M60.234,50.367v5.998H60.9v-5.998H60.234z"/>
		<path fill="#E8E8E8" d="M69.434,55.834v4.531H70.1v-4.531H69.434z"/>
	</g>
	<g>
		<path fill="#94989B" d="M7.033,21.033c0,0-0.133-1.732,2.4-2.4c0,0,0.799-2.133,3.732-2c0,0-3.066,1.201-2.8,3.066
			C10.234,19.699,8.1,19.166,7.033,21.033"/>
		<path fill="#94989B" d="M7.566,9.033c0,0,0.801-1.467,3.201-0.668c0,0,1.866-1.467,4.267,0.4c0,0-3.2-0.666-4,0.934
			C10.9,9.699,9.434,8.1,7.566,9.033"/>
	</g>
	<path fill="#75D6FF" d="M2.5,74.5h80v8h-80V74.5z"/>
</g>
</svg>
