<?xml version="1.0" encoding="utf-8"?>
<!-- Generator: Adobe Illustrator 16.0.0, SVG Export Plug-In . SVG Version: 6.00 Build 0)  -->
<!DOCTYPE svg PUBLIC "-//W3C//DTD SVG 1.1//EN" "http://www.w3.org/Graphics/SVG/1.1/DTD/svg11.dtd">
<svg version="1.1" id="Layer_1" xmlns="http://www.w3.org/2000/svg" xmlns:xlink="http://www.w3.org/1999/xlink" x="0px" y="0px"
	 width="85px" height="85px" viewBox="0 0 85 85" enable-background="new 0 0 85 85" xml:space="preserve">
<g>
	<path fill="#757575" d="M35.883,56.315h46.584v26.184H35.883V56.315z"/>
	<path fill="#BDBDBD" d="M82.467,82.499H2.533V56.315h37.84L82.467,82.499z"/>
	<path fill="#FFCA28" d="M82.467,75.286L52.379,60.382l-0.234-0.992l30.322,12.131V75.286z"/>
	<path fill="none" stroke="#616161" stroke-width="3" stroke-miterlimit="10" d="M71.58,24.384h6.588"/>
	<path fill="none" stroke="#616161" stroke-width="3" stroke-miterlimit="10" d="M71.58,31.124h6.588"/>
	<path fill="#37474F" d="M58.393,20.046h15.064v15.242H58.393V20.046z"/>
	<path fill="none" stroke="#FFCA28" stroke-miterlimit="10" d="M58.393,25.122h15.064"/>
	<path fill="none" stroke="#FFCA28" stroke-miterlimit="10" d="M58.393,30.206h15.064"/>
	<path fill="#FFFDE7" d="M59.318,21.782h3.785v1.164h-3.785V21.782z"/>
	<path fill="#FFFDE7" d="M59.783,32.382h2.854v1.166h-2.854V32.382z"/>
	<path fill="#FFFDE7" d="M69.365,32.263h2.854v0.998h-2.854V32.263z"/>
	<path fill="#FFFDE7" d="M68.721,21.862h2.854v0.998h-2.854V21.862z"/>
	<path fill="#FFFDE7" d="M70.576,27.218h1.645v0.885h-1.645V27.218z"/>
	<path fill="#FFFDE7" d="M67.902,27.165h1.645v0.998h-1.645V27.165z"/>
	<path fill="#FFFDE7" d="M59.318,27.085h5.25v1.164h-5.25V27.085z"/>
	<path fill="#9E9E9E" d="M72.188,20.046c0.697,0,1.264,0.564,1.264,1.264v12.709c0,0.697-0.564,1.264-1.264,1.264l0,0H59.658
		c-0.697,0-1.266-0.566-1.266-1.264l0,0V21.31c0-0.699,0.564-1.264,1.266-1.264H72.188 M72.188,18.716H59.658
		c-1.432,0-2.596,1.164-2.596,2.594v12.709c0,1.432,1.164,2.596,2.596,2.596h12.529c1.43,0,2.594-1.166,2.594-2.596V21.31
		C74.787,19.88,73.623,18.716,72.188,18.716z"/>
	<path fill="#9E9E9E" d="M79.832,65.06c0,0-1.418,1.803-3.326,0V19.726c0,0,1.195-0.678,3.326,0V65.06L79.832,65.06z"/>
	<path fill="#E0E0E0" d="M12.667,82.485l-3.326,0.014L13.2,66.948l1.756,1.346L12.667,82.485z"/>
	<path fill="#616161" d="M15.083,82.499h-3.38l3.547-15.197l1.756,1.344L15.083,82.499z"/>
	<path fill="#E0E0E0" d="M50.129,82.485l3.326,0.014l-10.42-15.551l-1.756,1.346L50.129,82.485z"/>
	<path fill="#616161" d="M47.348,82.499h3.373L40.619,67.302l-1.762,1.344L47.348,82.499z"/>
	<g>
		<path opacity="0.4" fill="#212121" enable-background="new    " d="M9.247,67.161c0,0-4.571,3.527-3.873,5.875
			c0.699,2.344,9.481,5.465,22.158,5.465c15.823,0,25.323-3.314,26.382-5.916s-4.637-6.248-4.637-6.248L9.247,67.161L9.247,67.161z"
			/>
		<path fill="#455A64" d="M14.457,67.05l0.419,2.967c0,0,6.562,0.52,14.765,0.52c8.205,0,14.459-0.68,14.459-0.68V66.47
			L14.457,67.05L14.457,67.05z"/>
		<path fill="#455A64" d="M19.143,62.071h20.986l-2.29,9.953h-16.78L19.143,62.071z"/>
		<path fill="#455A64" d="M13.958,62.437v-0.033c0,0-3.153-0.053-3.394,0.58c-0.233,0.631-0.778,5.27,0.119,9.447
			c0.101,0.459,0.359,0.938,0.805,0.938h1.199c0.445,0,0.897-0.232,1.629,1.299c0.625,1.311,1.844,1.084,1.844,0.42v-12.65H13.958
			L13.958,62.437z"/>
		<path fill="#455A64" d="M45.197,62.437v-0.033c0,0,3.154-0.053,3.395,0.58c0.232,0.631,0.777,5.27-0.119,9.447
			c-0.102,0.459-0.359,0.938-0.807,0.938h-1.197c-0.445,0-0.898-0.232-1.629,1.299c-0.627,1.311-1.844,1.084-1.844,0.42v-12.65
			H45.197L45.197,62.437z"/>
		<path fill="#FFCA28" d="M53.982,58.665V27.331c0-1.814-1.471-3.285-3.287-3.285H8.21c-1.815,0-3.287,1.471-3.287,3.285v31.334
			L3.193,63.05c0,0,5.229,4,26.183,4c20.952,0,26.343-4,26.343-4L53.982,58.665L53.982,58.665z"/>
		<path fill="#82AEC0" d="M35.883,11.354H23.514c-0.613,0-1.111-0.498-1.111-1.111c0-0.611,0.498-1.109,1.111-1.109h12.369
			c0.612,0,1.111,0.498,1.111,1.109C36.994,10.862,36.495,11.354,35.883,11.354z"/>
		<path fill="none" stroke="#82AEC0" stroke-width="3" stroke-miterlimit="10" d="M25.257,13.737l-1.351-9.676"/>
		<path fill="none" stroke="#82AEC0" stroke-width="3" stroke-miterlimit="10" d="M34.014,13.632l1.11-9.822"/>
		<path fill="#82AEC0" d="M38.924,6.405c-0.199,0.17-0.496,0.168-0.691-0.006c-0.565-0.494-1.645-1.158-2.223-1.344
			c-0.312-0.102-1.664-0.439-5.949-0.439c-3.898,0-6.566,0.219-7.186,0.432c-0.579,0.201-1.537,0.953-2.05,1.49
			c-0.193,0.211-0.509,0.256-0.751,0.107c-0.32-0.188-0.434-0.619-0.24-0.945c0.499-0.852,1.451-2.316,2.462-2.668
			c1.451-0.506,6.72-0.531,7.759-0.531c2.235,0,5.176,0.092,6.493,0.525c1.038,0.338,2.022,1.85,2.489,2.615
			C39.197,5.886,39.143,6.218,38.924,6.405L38.924,6.405z"/>
		<path fill="#EEEEEE" d="M4.916,20.751v16.621h49.066V21.124l-23.488-4.799L4.916,20.751z"/>
		<path fill="#9E9E9E" d="M3.166,20.751l1.756,1.717c0,0,8.87-2.941,24.447-2.941c15.576,0,24.613,2.76,24.613,2.76l1.729-1.756
			c-0.965-4.186-4.83-7.465-16.229-7.465H17.805C8.622,13.065,4.124,17.343,3.166,20.751z"/>
		<path fill="#BDBDBD" d="M3.166,20.751c0,0,10.706-3.58,26.203-3.58c15.496,0,26.342,3.367,26.342,3.367
			c-0.965-4.186-4.852-8.789-16.229-9.555c-10.939-0.74-12.178-0.74-21.678,0C8.654,11.694,4.131,16.565,3.166,20.751z"/>
		<path fill="#82AEC0" d="M55.711,67.05c0,0-5.969,1.996-26.342,1.996c-20.374,0-26.184-1.996-26.184-1.996v-4
			c0,0,12.529,1.996,26.323,1.996s26.204-1.996,26.204-1.996v4H55.711z"/>
		<circle fill="#FFFDE7" cx="40.961" cy="55.943" r="3.3"/>
		<circle fill="#FFFDE7" cx="17.917" cy="55.943" r="3.3"/>
		<path fill="#37474F" d="M26.102,13.298h6.694c1.597,0,2.888,1.291,2.888,2.889v1.975c0,1.598-1.291,2.889-2.888,2.889h-6.694
			c-1.597,0-2.888-1.291-2.888-2.889v-1.975C23.214,14.589,24.512,13.298,26.102,13.298z"/>
		<path fill="#FFCA28" d="M27.918,14.808h3.055c1.383,0,2.508,1.059,2.508,2.355c0,1.299-1.125,2.355-2.508,2.355h-3.055
			c-1.384,0-2.509-0.992-2.509-2.355S26.527,14.808,27.918,14.808z"/>
		<path fill="#BAE2FD" d="M12.501,26.36c11.812-2.197,22.104-2.189,33.868,0v20.162c-11.771,2.188-22.059,2.195-33.868,0V26.36
			L12.501,26.36z"/>
		<path fill="#37474F" d="M29.436,49.122c-4.133,0-11.924-0.465-15.717-0.736c-1.236-0.088-2.191-1.117-2.189-2.355V27.411
			c0-1.125,0.793-2.096,1.896-2.314c2.409-0.473,7.292-1.137,15.684-1.137c8.563,0,13.76,0.691,16.309,1.164
			c1.117,0.207,1.926,1.186,1.924,2.322v18.59c0,1.238-0.953,2.264-2.189,2.355C41.359,48.663,33.574,49.122,29.436,49.122z
			 M14.982,45.417c9.701,0.865,19.023,0.785,28.891-0.021c0.879-0.072,1.537-0.857,1.537-1.742V29.214
			c0-0.852-0.619-1.59-1.463-1.73c-10.047-1.656-18.965-1.656-29.012,0c-0.844,0.145-1.463,0.875-1.463,1.73v14.459
			C13.466,44.552,14.111,45.343,14.982,45.417L14.982,45.417z"/>
		<path fill="#6FBFF0" d="M28.218,26.247v0.014c0.474-0.008,0.938-0.014,1.404-0.014H28.218z"/>
		<path fill="#6FBFF0" d="M30.214,26.247h-0.592C29.82,26.247,30.021,26.253,30.214,26.247z"/>
		<path opacity="0.66" fill="#82AEC0" enable-background="new    " d="M45.404,29.222c0-0.859-0.619-1.59-1.463-1.73
			c-4.818-0.793-9.369-1.205-13.914-1.238c-0.199,0-0.393-0.006-0.592-0.006c-0.465,0-0.938,0.006-1.403,0.014
			c-4.272,0.072-8.57,0.479-13.103,1.223c-0.845,0.145-1.463,0.875-1.464,1.73v2.469c1.53-0.445,7.046-1.59,14.886-1.697
			l-0.008,16.051c0.666,0.006,1.332,0.006,1.996,0l0.014-16.043c8.104,0.08,13.547,0.918,15.051,1.217V29.222L45.404,29.222z"/>
		<path opacity="0.66" fill="#82AEC0" enable-background="new    " d="M23.8,39.149c-0.872-0.207-1.909-0.08-1.909-0.08
			c-0.64,0-1.57,0.486-1.984,1.031c-0.279,0.359-0.831,0.393-1.125,0.039c-0.473-0.564-1.164-0.979-1.822-0.979
			c0,0-1.657-0.324-2.741,0.273c-0.272,0.154-0.526,0.266-0.745,0.373v3.873c0,0.879,0.719,1.67,1.59,1.75
			c3.938,0.346,7.559,0.525,11.438,0.572c-0.006-0.959-0.046-3.127-0.354-4.465C25.756,39.794,24.671,39.354,23.8,39.149
			L23.8,39.149z"/>
		<path opacity="0.66" fill="#82AEC0" enable-background="new    " d="M44.033,39.161c-0.139-0.031-0.293-0.059-0.445-0.078
			c-0.008-0.041-0.02-0.08-0.02-0.135c-0.027-0.758,0.279-0.838,0.404-1.377c0.061-0.258,0.141-0.518,0.141-0.791
			c0-1.119-0.785-2.029-1.75-2.029c-0.359,0-0.719,0.119-0.992,0.359c-1.006,0.885-0.758,2.082-0.625,2.461
			c0.174,0.48,0.639,1.1,0.705,1.625c-0.506,0.16-1.15,0.52-1.629,0.992c-0.367,0.365-0.965,0.346-1.305-0.041
			c-0.506-0.584-0.738-0.764-1.59-0.984c0,0-0.758-0.186-1.703-0.094c-0.945,0.094-2.441,0.793-2.861,2.17
			c-0.278,0.918-0.379,3.838-0.405,4.764c3.899-0.072,7.825-0.266,11.845-0.592c0.885-0.072,1.609-0.865,1.609-1.75v-3.846
			C45.025,39.495,44.525,39.269,44.033,39.161L44.033,39.161z"/>
	</g>
</g>
</svg>
