<?xml version="1.0" encoding="utf-8"?>
<!-- Generator: Adobe Illustrator 16.0.0, SVG Export Plug-In . SVG Version: 6.00 Build 0)  -->
<!DOCTYPE svg PUBLIC "-//W3C//DTD SVG 1.1//EN" "http://www.w3.org/Graphics/SVG/1.1/DTD/svg11.dtd">
<svg version="1.1" id="Layer_1" xmlns="http://www.w3.org/2000/svg" xmlns:xlink="http://www.w3.org/1999/xlink" x="0px" y="0px"
	 width="85px" height="85px" viewBox="0 0 85 85" enable-background="new 0 0 85 85" xml:space="preserve">
<g>
	<path fill="#010101" d="M2.502,49.055c0.265-0.961,0.483-1.938,0.805-2.877c0.542-1.588,1.395-3.016,2.523-4.257
		c0.322-0.354,0.445-0.703,0.444-1.176c-0.014-8.41-0.01-16.82-0.01-25.23c0-1.736,0.493-2.236,2.212-2.236
		c9.139,0,18.277,0,27.416,0.002c1.223,0,1.703,0.393,1.939,1.561c0.15,0.799-0.248,1.41-1.092,1.682
		c-0.455,0.146-0.926,0.117-1.395,0.117c-8.098,0.002-16.193,0-24.291,0c-0.26,0-0.521,0.006-0.781,0.006
		c-0.459,0-0.658,0.234-0.656,0.678c0,0.209-0.007,0.418-0.007,0.625c0,6.457,0,12.914,0,19.371c0,0.104-0.001,0.207,0,0.311
		c0.017,0.922,0.095,0.977,0.927,0.582c1.045-0.496,2.154-0.768,3.285-0.973c0.859-0.156,0.979-0.268,0.93-1.123
		c-0.152-2.682,0.041-5.35,0.342-8.012c0.135-1.191,0.531-2.277,1.41-3.143c0.832-0.822,1.832-1.184,2.99-1.014
		c2.652,0.389,5.312,0.738,7.998,0.73c2.602-0.01,5.197-0.197,7.771-0.615c0.588-0.098,1.178-0.236,1.783-0.15
		c1.256,0.178,2.146,0.883,2.766,1.955c0.381,0.658,0.59,1.377,0.732,2.129c0.492,2.602,0.496,5.227,0.471,7.857
		c-0.012,1.24,0.006,1.25,1.27,1.246c1.809-0.006,1.707,0.166,1.686-1.684c-0.029-2.502,0.02-4.996,0.482-7.465
		c0.221-1.178,0.631-2.252,1.521-3.096c0.787-0.744,1.721-1.084,2.787-0.922c2.756,0.42,5.525,0.727,8.312,0.748
		c2.789,0.021,5.553-0.316,8.311-0.717c1.699-0.248,3.068,0.508,3.871,2.029c0.332,0.627,0.541,1.297,0.629,2
		c0.326,2.637,0.449,5.283,0.348,7.939c-0.039,1.066,0.025,1.139,1.061,1.328c1.104,0.201,2.182,0.486,3.205,0.967
		c0.764,0.359,0.875,0.279,0.877-0.6c0.008-3.098,0.002-6.195,0.002-9.295c0.002-3.488,0.002-6.977,0-10.465
		c0-1.213-0.016-1.229-1.209-1.229c-8.174-0.002-16.352,0-24.523-0.002c-0.469,0-0.939,0.029-1.396-0.117
		c-0.844-0.271-1.24-0.883-1.092-1.682c0.232-1.145,0.715-1.561,1.861-1.561c9.24-0.002,18.48-0.002,27.723,0
		c1.393,0,1.982,0.588,1.982,1.992c0.004,8.434,0.006,16.867-0.008,25.301c-0.002,0.58,0.146,1.01,0.531,1.459
		c2.039,2.359,3.191,5.113,3.219,8.234c0.057,6.561,0.023,13.119,0.021,19.68c-0.002,1.172-0.6,1.764-1.783,1.768
		c-2.682,0.012-5.361,0.012-8.043,0c-1.078-0.004-1.635-0.5-1.734-1.582c-0.246-2.701-1.541-4.576-4.195-5.381
		c-0.621-0.188-1.273-0.232-1.93-0.232c-5.23,0.006-10.463,0.004-15.695,0.002c-1.221,0-1.705-0.396-1.947-1.561
		c-0.133-0.695,0.1-1.178,0.729-1.529c0.477-0.268,0.996-0.273,1.52-0.273c5.283,0,10.566-0.012,15.852,0.004
		c3.896,0.012,7.293,2.477,8.545,6.156c0.346,1.012,0.354,1.02,1.441,1.023c1.016,0.006,2.029-0.01,3.045,0.004
		c0.592,0.008,0.84-0.229,0.838-0.832c-0.008-4.398-0.004-8.799-0.002-13.197c0.002-0.561-0.227-0.818-0.787-0.797
		c-0.26,0.01-0.521-0.002-0.781-0.002c-23.373,0-46.748,0-70.122,0c-1.696,0-1.563-0.051-1.565,1.58
		c-0.003,4.033-0.003,8.068,0,12.104c0.002,1.094,0.045,1.135,1.145,1.141c0.99,0.006,1.979-0.012,2.968,0.006
		c0.597,0.01,0.938-0.199,1.147-0.803c1.424-4.107,4.65-6.387,8.996-6.389c5.127-0.002,10.254,0,15.383,0.002
		c0.521,0,1.043-0.01,1.527,0.236c0.668,0.34,0.932,0.852,0.797,1.566c-0.242,1.162-0.729,1.559-1.947,1.559
		c-5.283,0.004-10.564-0.012-15.848,0.008c-2.402,0.01-4.25,1.002-5.373,3.199c-0.402,0.783-0.488,1.631-0.602,2.477
		c-0.129,0.977-0.668,1.502-1.646,1.508c-2.758,0.016-5.517-0.004-8.274,0.012c-0.823,0.006-1.263-0.486-1.64-1.105
		c0-6.771,0-13.539,0-20.311c0.127-0.312,0.127-0.625,0-0.938C2.502,49.264,2.502,49.158,2.502,49.055z"/>
	<path fill="#373635" d="M2.502,49.367c0.264,0.312,0.223,0.625,0,0.938C2.502,49.992,2.502,49.68,2.502,49.367z"/>
	<path fill="#FFCA6D" d="M47.16,14.838c0.279,1.193,0.73,1.562,1.953,1.562c8.539,0.002,17.08,0.01,25.619-0.014
		c0.66-0.002,0.871,0.119,0.867,0.836c-0.031,6.979-0.02,13.955-0.02,20.934c0,0.83-0.004,0.832-0.768,0.457
		c-1.342-0.656-2.762-1.051-4.24-1.215c-0.445-0.049-0.615-0.16-0.586-0.648c0.176-2.865,0.014-5.721-0.314-8.568
		c-0.107-0.943-0.354-1.84-0.932-2.607c-0.812-1.082-1.869-1.615-3.248-1.393c-3.578,0.576-7.174,0.873-10.803,0.662
		c-1.924-0.111-3.824-0.398-5.732-0.643c-1.811-0.229-3.129,0.523-3.82,2.24c-0.709,1.762-0.793,3.648-0.898,5.51
		c-0.092,1.582-0.037,3.174,0,4.76c0.012,0.496-0.141,0.629-0.611,0.607c-0.754-0.035-1.51-0.035-2.264,0
		c-0.477,0.021-0.625-0.115-0.609-0.609c0.045-1.352,0.059-2.707,0.035-4.059c-0.029-1.822-0.234-3.633-0.65-5.406
		c-0.424-1.816-1.666-3.021-3.258-3.1c-0.791-0.041-1.6,0.135-2.395,0.256c-4.771,0.721-9.535,0.68-14.291-0.146
		c-2.717-0.471-4.584,1.021-4.875,3.852c-0.291,2.85-0.512,5.701-0.322,8.568c0.029,0.455-0.041,0.678-0.58,0.732
		c-1.56,0.154-3.058,0.58-4.442,1.328c-0.569,0.307-0.571,0.027-0.569-0.42c0.012-2.42,0.006-4.842,0.006-7.264
		c0-4.609,0.019-9.217-0.021-13.826c-0.006-0.719,0.208-0.838,0.868-0.836c8.539,0.021,17.08,0.016,25.619,0.014
		c1.221,0,1.674-0.369,1.955-1.562c1.025,0,2.051,0,3.076,0c0.225,0.127,0.268,0.373,0.373,0.576
		c0.264,0.512,0.691,0.781,1.252,0.766c0.527-0.014,0.93-0.279,1.178-0.764c0.104-0.205,0.146-0.451,0.371-0.576
		C45.109,14.838,46.133,14.838,47.16,14.838z"/>
	<path fill="#FFDDA3" d="M37.832,62.959c-0.277-1.199-0.723-1.564-1.943-1.564c-5.336-0.004-10.67,0.02-16.006-0.01
		c-4.111-0.021-7.721,2.766-8.637,6.633c-0.094,0.395-0.24,0.598-0.721,0.584c-1.457-0.043-2.915-0.027-4.371-0.008
		c-0.39,0.006-0.539-0.074-0.537-0.508c0.016-4.734,0.016-9.473,0-14.211c0-0.445,0.133-0.619,0.572-0.559
		c0.127,0.018,0.26,0.002,0.391,0.002c23.945,0,47.889,0.004,71.834-0.02c0.783-0.002,0.982,0.174,0.975,0.967
		c-0.043,4.504-0.041,9.006,0,13.508c0.006,0.719-0.205,0.854-0.859,0.826c-1.326-0.053-2.656-0.037-3.982-0.002
		c-0.463,0.01-0.691-0.117-0.801-0.58c-0.908-3.867-4.52-6.656-8.635-6.635c-5.334,0.031-10.67,0.008-16.006,0.01
		c-1.221,0.002-1.666,0.367-1.943,1.564c-1.025,0-2.053,0-3.078,0c-0.225-0.127-0.268-0.373-0.371-0.574
		c-0.266-0.512-0.691-0.779-1.254-0.766c-0.525,0.014-0.93,0.279-1.176,0.764c-0.104,0.205-0.146,0.449-0.371,0.576
		C39.885,62.959,38.859,62.959,37.832,62.959z"/>
	<path fill="#050503" d="M44.082,14.838c-0.242,1.029-0.82,1.582-1.625,1.561c-0.785-0.023-1.307-0.549-1.547-1.561
		c0.217-1.047,0.77-1.578,1.625-1.557C43.365,13.301,43.871,13.811,44.082,14.838z"/>
	<path fill="#050504" d="M40.91,62.959c0.248-1.059,0.793-1.582,1.625-1.561c0.809,0.02,1.305,0.52,1.547,1.561
		c-0.215,1.01-0.805,1.576-1.625,1.557C41.654,64.492,41.121,63.957,40.91,62.959z"/>
	<path fill="#C4E7E9" d="M42.455,50.176c-12,0-24-0.006-36,0.018c-0.709,0-0.83-0.133-0.726-0.852
		c0.733-5.029,4.929-8.865,9.981-8.875c17.883-0.033,35.768-0.031,53.65,0.002c5.1,0.01,9.48,4.171,9.959,9.263
		c0.033,0.357-0.055,0.475-0.396,0.445c-0.182-0.014-0.363-0.002-0.547-0.002C66.404,50.176,54.43,50.176,42.455,50.176z"/>
	<path fill="#5FC6C4" d="M27.809,37.319c-2.967,0-5.936-0.014-8.902,0.012c-0.572,0.006-0.791-0.09-0.807-0.746
		c-0.059-2.709,0.014-5.408,0.338-8.1c0.129-1.072,0.398-1.285,1.439-1.107c4.514,0.771,9.043,0.908,13.59,0.307
		c0.9-0.119,1.803-0.209,2.699-0.355c0.514-0.082,0.756,0.092,0.891,0.59c0.363,1.336,0.49,2.709,0.568,4.076
		c0.086,1.529,0,3.07,0.02,4.604c0.01,0.578-0.203,0.74-0.779,0.734C33.848,37.303,30.828,37.319,27.809,37.319z"/>
	<path fill="#5FC6C4" d="M57.135,37.319c-3.02,0-6.039-0.014-9.059,0.012c-0.549,0.004-0.715-0.174-0.73-0.703
		c-0.08-2.76-0.059-5.51,0.457-8.236c0.195-1.037,0.412-1.184,1.457-1.012c4.541,0.744,9.098,0.926,13.668,0.299
		c0.875-0.119,1.754-0.205,2.621-0.354c0.529-0.09,0.77,0.104,0.871,0.604c0.268,1.328,0.385,2.674,0.434,4.021
		c0.057,1.533-0.01,3.07,0.031,4.604c0.018,0.604-0.141,0.789-0.77,0.781C63.123,37.299,60.129,37.319,57.135,37.319z"/>
</g>
</svg>
