<?xml version="1.0" encoding="utf-8"?>
<!-- Generator: Adobe Illustrator 16.0.0, SVG Export Plug-In . SVG Version: 6.00 Build 0)  -->
<!DOCTYPE svg PUBLIC "-//W3C//DTD SVG 1.1//EN" "http://www.w3.org/Graphics/SVG/1.1/DTD/svg11.dtd">
<svg version="1.1" id="Layer_1" xmlns="http://www.w3.org/2000/svg" xmlns:xlink="http://www.w3.org/1999/xlink" x="0px" y="0px"
	 width="85px" height="85px" viewBox="0 0 85 85" enable-background="new 0 0 85 85" xml:space="preserve">
<g>
	<path fill="#BAA13C" d="M48.788,15.662c-0.037-1.033-0.074-2.065-0.111-3.099c-0.051-1.423-0.104-2.857-0.404-4.254
		c-0.133-0.617-0.273-1.427-0.662-1.934c-0.332-0.432-0.848-0.549-1.33-0.734c-0.459-0.177-0.865-0.479-1.332-0.631
		c-1.338-0.434-2.941,0.145-3.93,1.068c-1.121,1.045-1.705,2.57-1.865,4.094c-0.16,1.492,0.047,3-0.119,4.491
		c-0.076,0.667-0.205,1.351-0.549,1.93c-0.16,0.271-0.939,1.477-1.291,1.456c0.559,0.033,1.121,0.037,1.68,0.013
		c0.174-0.006,0.35-0.013,0.51-0.03c1.855-0.12,3.148-0.497,3.148-0.497c0.871-0.001,1.742-0.005,2.615-0.007
		c0.562-0.001,1.246-0.109,1.799-0.005c0.604,0.116,1.146,0.439,1.592-0.287c0.238-0.388,0.271-0.857,0.26-1.318
		C48.794,15.832,48.792,15.746,48.788,15.662z"/>
	<path fill="#E5B28F" d="M43.222,75.495c0-0.001-0.271-5.06-0.271-5.06l0.082-0.038l-3.531-0.717l1.35,6.667l-0.107,0.946
		l0.221,0.794l0.066,0.69c0.031,0.314,2.607,0.91,2.549,0.483c-0.086-0.63-0.221-2.075-0.311-2.729
		C43.179,75.883,43.245,75.92,43.222,75.495L43.222,75.495z"/>
	<path fill="#CAD5E5" d="M39.192,81.165l0.127,0.762l0.338,0.229c0.354,0.24,0.777,0.359,1.203,0.341l1.24-0.059
		c0.434-0.021,0.85-0.185,1.182-0.467l0.625-0.528l-0.211-1.122L39.192,81.165L39.192,81.165z"/>
	<path fill="#CE3846" d="M43.562,78.302c-0.604-0.716-1.221,0.396-1.859,0.223c-0.354-0.096-0.383-0.331-0.582-0.246
		c-0.047,0.021-0.104,0.06-0.176,0.121c-0.205,0.178-0.355,0.521-0.506,0.742c-0.248,0.364-0.477,0.746-0.742,1.098
		c0,0-0.631,0.843-0.506,0.923c0.045,0.027,0.199,0.134,0.385,0.259c0.514,0.352,1.137,0.508,1.756,0.441l0.592-0.062
		c0.443-0.048,0.867-0.207,1.232-0.463l0.582-0.41l-0.082-1.243C43.671,79.293,43.837,78.628,43.562,78.302L43.562,78.302z"/>
	<path fill="#BC2A3C" d="M41.38,78.116c-0.084,0.562-0.084,1.805-0.084,1.805c0.254-0.04,0.885,0.08,0.885,0.08l0.506-2.005
		C42.687,77.996,41.464,77.555,41.38,78.116L41.38,78.116z"/>
	<path fill="#ED475E" d="M41.003,78.397c0,0-1.01,1.282-1.01,1.925c0,0,1.262-0.923,1.557-1.283
		C41.255,78.518,41.003,78.397,41.003,78.397z M42.097,78.998l1.264,1.443l0.338-1.762l-0.76-0.604L42.097,78.998z"/>
	<path fill="#7E8287" d="M40.755,79.079l0.08,0.178c0.604-0.243,1.326-0.188,1.881,0.143l0.107-0.163
		C42.212,78.872,41.421,78.812,40.755,79.079z"/>
	<path fill="#7E8287" d="M40.765,79.407l0.068,0.183c0.59-0.199,1.27-0.142,1.814,0.156l0.1-0.167
		C42.151,79.254,41.411,79.19,40.765,79.407z M41.692,78.091c-0.045-0.175-0.146-0.415-0.371-0.572
		c-0.213-0.148-0.516-0.177-0.725-0.062c-0.121,0.069-0.211,0.188-0.244,0.324c-0.031,0.125-0.012,0.248,0.057,0.347
		c0.08,0.113,0.205,0.179,0.305,0.229l1.037,0.534l-0.002-0.163C41.747,78.52,41.745,78.303,41.692,78.091L41.692,78.091z
		 M40.812,78.188c-0.086-0.044-0.184-0.094-0.234-0.167c-0.037-0.054-0.047-0.122-0.029-0.194c0.021-0.085,0.078-0.161,0.152-0.201
		c0.061-0.033,0.127-0.05,0.197-0.049c0.104,0,0.215,0.034,0.303,0.097c0.139,0.097,0.244,0.262,0.295,0.464
		c0.035,0.139,0.045,0.284,0.049,0.43L40.812,78.188L40.812,78.188z"/>
	<path fill="#7E8287" d="M42.54,77.395c-0.459,0.315-0.801,0.796-0.939,1.317l-0.047,0.173l0.178-0.058
		c0.557-0.181,1.049-0.559,1.352-1.039c0.035-0.058,0.145-0.229,0.051-0.383C43.036,77.239,42.757,77.243,42.54,77.395L42.54,77.395
		z M42.909,77.689c-0.244,0.388-0.621,0.701-1.055,0.886c0.152-0.405,0.438-0.771,0.803-1.024c0.072-0.049,0.162-0.082,0.227-0.082
		c0.055,0,0.068,0.022,0.074,0.033C42.985,77.548,42.946,77.63,42.909,77.689L42.909,77.689z"/>
	<path fill="#7E8287" d="M41.552,78.693l0.068,0.184c0.314-0.11,0.691-0.062,0.961,0.124l0.119-0.156
		C42.372,78.619,41.931,78.562,41.552,78.693z"/>
	<path fill="#E5B28F" d="M45.378,70.398l0.082,0.038l-0.271,5.06c-0.023,0.425,0.043,0.388-0.047,1.039
		c-0.09,0.653-0.225,2.1-0.311,2.729c-0.057,0.427,2.52-0.169,2.551-0.483l0.066-0.69l0.219-0.794l-0.105-0.946l1.348-6.667
		L45.378,70.398z"/>
	<path fill="#CAD5E5" d="M44.505,81.444l0.623,0.529c0.332,0.281,0.748,0.445,1.184,0.466l1.238,0.059
		c0.428,0.021,0.85-0.101,1.203-0.341l0.34-0.229l0.125-0.762l-4.504-0.844L44.505,81.444z"/>
	<path fill="#CE3846" d="M47.974,79.142c-0.15-0.221-0.301-0.564-0.508-0.742c-0.072-0.062-0.129-0.101-0.176-0.121
		c-0.199-0.085-0.229,0.15-0.582,0.246c-0.639,0.173-1.256-0.938-1.859-0.223c-0.275,0.326-0.109,0.991-0.092,1.382l-0.082,1.243
		l0.58,0.41c0.365,0.256,0.789,0.415,1.232,0.463l0.594,0.062c0.619,0.066,1.24-0.091,1.756-0.441
		c0.184-0.125,0.34-0.23,0.383-0.259c0.127-0.08-0.506-0.922-0.506-0.922C48.448,79.888,48.22,79.506,47.974,79.142L47.974,79.142z"
		/>
	<path fill="#BC2A3C" d="M45.726,77.996l0.504,2.005c0,0,0.631-0.12,0.885-0.08c0,0,0-1.243-0.084-1.805
		C46.946,77.554,45.726,77.996,45.726,77.996L45.726,77.996z"/>
	<path fill="#ED475E" d="M46.86,79.038c0.295,0.36,1.559,1.283,1.559,1.283c0-0.643-1.01-1.925-1.01-1.925
		S47.155,78.518,46.86,79.038z M44.712,78.681l0.34,1.762l1.262-1.443l-0.842-0.922L44.712,78.681z"/>
	<path fill="#7E8287" d="M45.585,79.236l0.107,0.163c0.557-0.33,1.277-0.386,1.883-0.143l0.078-0.178
		C46.989,78.812,46.198,78.872,45.585,79.236z"/>
	<path fill="#7E8287" d="M45.663,79.578l0.102,0.167c0.545-0.298,1.223-0.355,1.814-0.156l0.066-0.183
		C46.999,79.19,46.259,79.254,45.663,79.578z M47.812,77.457c-0.207-0.115-0.51-0.088-0.723,0.062
		c-0.225,0.157-0.326,0.397-0.369,0.572c-0.055,0.212-0.057,0.429-0.059,0.638l-0.002,0.163l1.037-0.534
		c0.1-0.051,0.227-0.115,0.305-0.229c0.068-0.099,0.088-0.222,0.059-0.347C48.024,77.646,47.933,77.524,47.812,77.457z
		 M47.833,78.021c-0.051,0.073-0.148,0.123-0.234,0.167l-0.732,0.378c0.004-0.146,0.014-0.291,0.049-0.43
		c0.053-0.202,0.156-0.367,0.295-0.464c0.088-0.062,0.199-0.097,0.307-0.097c0.07,0,0.139,0.018,0.193,0.049
		c0.074,0.04,0.131,0.116,0.152,0.201C47.88,77.899,47.868,77.968,47.833,78.021L47.833,78.021z"/>
	<path fill="#7E8287" d="M45.87,77.395c-0.217-0.15-0.496-0.155-0.594,0.012c-0.092,0.153,0.016,0.325,0.053,0.383
		c0.303,0.48,0.795,0.858,1.352,1.039l0.176,0.058l-0.045-0.173C46.671,78.19,46.329,77.71,45.87,77.395L45.87,77.395z
		 M45.501,77.689c-0.037-0.06-0.076-0.142-0.049-0.188c0.006-0.011,0.02-0.033,0.074-0.033c0.062,0,0.152,0.033,0.225,0.082
		c0.365,0.253,0.65,0.619,0.805,1.024C46.122,78.391,45.745,78.076,45.501,77.689L45.501,77.689z"/>
	<path fill="#7E8287" d="M45.71,78.844L45.829,79c0.27-0.186,0.648-0.234,0.961-0.124l0.068-0.184
		C46.479,78.562,46.04,78.619,45.71,78.844z"/>
	<path fill="#D6A483" d="M54.04,42.554l-0.473,0.877c-0.152,0.237-0.264,0.509-0.176,0.783l0.045,0.188
		c0.053,0.039,0.102,0.08,0.152,0.118c0.035-0.007,0.07-0.016,0.107-0.021l1.307-1.544l-0.941-2.364L54.04,42.554L54.04,42.554z"/>
	<path fill="#E5B28F" d="M55.151,35.211l-1.6-0.739l-0.33,2.55l-0.164,1.714c-0.191,0.736-0.717,1.998-0.598,2.77
		c0.115,0.755,0.172,1.364,0.146,2.263c-0.004,0.146,0.463-0.08,0.631-0.492c0.09-0.221,0.066-0.479,0.066-0.712
		c-0.002-0.409-0.008-0.817-0.01-1.227l0.395-0.065l0.975,1.699l-1.186,1.502c0.291,0.35,0.619,0.207,0.906-0.144l0.982-1
		l0.172-1.514l-0.67-2.695L55.151,35.211L55.151,35.211z"/>
	<path fill="#E5B28F" d="M54.185,29.141c-0.453-1.563-0.232-5.853-0.264-7.47c-0.047-2.326-0.605-3.396-1.07-4.279
		c-0.248-0.211-1.207,1.508-1.49,2.323c-0.279,0.799-0.65,1.585-0.979,2.382l0.826,6.396l0.895,4.681l1.098,5.182l1.547,0.642
		c0.207-1.393,0.332-2.795,0.371-4.203c0.021-0.701,0.02-1.376,0.002-2.022C54.954,32.31,54.435,30.006,54.185,29.141L54.185,29.141
		z"/>
	<path fill="#2483B2" d="M44.265,39.809l-7.213-2.091c-0.031,0.144-0.064,0.286-0.1,0.432c-0.385,1.628-0.896,3.301-0.875,4.958
		c0.025,2.241,0.393,4.596,0.859,6.846c0.459,2.208,1.461,4.607,1.461,6.851c0,3.709-0.545,7.207,0.311,10.873
		c0.111,0.474,1.051,4.751,1.211,5.299c0.188-0.022,0.375-0.036,0.562-0.044c0.943-0.029,1.873,0.12,2.832,0.08l-0.107-3.484
		l-0.062-5.753l-0.033-4.793l-0.121-4.519c0.262-2.625,0.447-6.641,0.986-9.426c0.041-0.216,0.084-0.423,0.131-0.621
		c0.418,0.791,0.904,5.723,0.93,6.047c0.332,4.218,0.074,2.664,0.189,8.52l-0.035,4.707l-0.061,5.838l-0.107,3.555
		c0.18,0.023,0.361,0.043,0.545,0.054c0.965,0.072,1.953,0.021,2.91,0.119c0.027,0,0.963-5.188,1.09-5.689
		c0.879-3.487,0.369-7.176,0.369-10.755c0-1.96,0.881-4.187,1.35-6.085c0.146-0.599,0.285-1.189,0.406-1.778
		c0.754-3.584,0.979-6.97-0.119-10.617L44.265,39.809L44.265,39.809z"/>
	<path fill="#E5B28F" d="M46.499,14.077c-0.045-0.176-0.082-0.354-0.121-0.53c-0.072-0.335,0.375-1.859,0.178-2.093
		c-0.164-0.196-0.789-0.08-1.379,0.05c-0.43,0.095-0.844,0.192-1.039,0.177l-2.172,0.083c0.008,0-0.053,2.562-0.109,2.776
		c-0.072,0.28-0.189,0.562-0.404,0.761c-0.369,0.341-1.053,0.283-1.672,0.51c-0.197,0.071-0.455,0.438-0.605,0.51
		c0,0,0.992,3.818,3.723,4.188c0.547,0.075,0.947-0.026,1.24-0.232c0.295,0.207,0.693,0.308,1.238,0.232
		c2.73-0.37,3.893-4.442,3.893-4.442l-1.783-0.526C46.878,15.245,46.651,14.685,46.499,14.077z"/>
	<path fill="#D6A483" d="M45.177,11.504c-0.43,0.095-0.844,0.192-1.039,0.177l-2.172,0.083c0.008,0-0.053,2.562-0.109,2.776
		c-0.053,0.199-0.127,0.398-0.244,0.569c1.379,0.269,2.844-0.126,3.959-0.973c0.76-0.913,0.744-1.812,0.674-1.876
		C45.901,11.944,45.544,11.694,45.177,11.504z"/>
	<path fill="#E46E8A" d="M48.854,15.907c-0.088-0.016-0.174-0.033-0.26-0.054c-0.014,0.02-0.037,0.03-0.068,0.027
		c-0.176-0.02-0.346-0.079-0.5-0.166c-0.076-0.002-0.15-0.01-0.225-0.023c-0.135,0.938-0.879,4.213-3.541,4.205
		c-3.008,0.009-3.564-4.171-3.564-4.442c0-0.014-0.365,0.038-0.811,0.107c-0.619,0.099-1.393,0.236-1.551,0.297
		c-1.15,0.455-1.885,0.646-2.693,1.626c0.891,0.994,1.252,2.423,1.906,3.582c0.123,0.219,0.207,0.45,0.27,0.69
		c0.033,0.12,0.059,0.242,0.078,0.365v0.001c0.051,0.289,0.08,0.586,0.109,0.881c0.002,0.004,0.002,0.006,0.002,0.01
		c0.047,0.468,0.098,0.935,0.24,1.358c0.596,1.76,1.17,3.471,1.023,5.438c-0.127,1.688-1.061,3.68-1.707,5.209
		c-0.186,0.438-0.516,1.44-0.873,2.537c-0.102,0.307-0.203,0.624-0.307,0.938c0.443,0.285,0.785,0.508,1.164,0.729
		c0.229,0.132,0.463,0.267,0.742,0.413c3.219,1.718,8.709,1.725,11.943,0c0.729-0.388,0.998-0.615,1.676-1.055
		c0.016-0.011,0.027-0.02,0.043-0.027c-0.008-0.023-0.016-0.046-0.023-0.069c-0.086-0.268-0.176-0.54-0.262-0.806
		c-0.367-1.129-0.691-2.183-0.77-2.66c-0.141-0.884-1.029-3.11-1.303-4.373c-0.957-4.42,0.699-5.358,0.896-6.747
		c0.162-1.142-0.105-1.673,0.998-4.478c0.086-0.223,1.217-2.153,1.311-2.112c-1.008-0.417-1.92-1.12-3.029-1.271
		C49.628,16.021,49.243,15.978,48.854,15.907L48.854,15.907z"/>
	<path fill="#E46E8A" d="M47.813,15.604c-0.1,0.797-0.799,4.301-3.553,4.293c-3.008,0.009-3.564-4.171-3.564-4.442
		c0-0.014-0.365,0.037-0.811,0.107c0.189,1.282,0.912,4.43,3.568,4.947c3.154,0.614,4.41-1.412,5.4-4.602
		c-0.312-0.059-0.625-0.136-0.822-0.236C47.96,15.647,47.886,15.625,47.813,15.604z"/>
	<path fill="#DDDDDD" d="M37.817,21.757c0.031,0.121,0.057,0.242,0.078,0.365c-0.02-0.25-0.023-0.404-0.023-0.404
		C37.854,21.73,37.835,21.741,37.817,21.757z"/>
	<path fill="#EFEFEF" d="M38.007,23.015c0.045,0.469,0.098,0.934,0.24,1.358c0.596,1.759,1.17,3.471,1.021,5.438
		c-0.127,1.688-1.061,3.68-1.707,5.209c-0.184,0.438-0.516,1.44-0.873,2.537c-0.102,0.307-0.203,0.624-0.305,0.938
		c0.443,0.285,0.785,0.508,1.162,0.729c0.951-2.663,2.498-7.211,2.498-8.67c0-2.108,2.605-4.34,2.605-4.34s-1.738,0-3.227-0.622
		C38.562,25.233,38.177,23.995,38.007,23.015L38.007,23.015z"/>
	<path fill="#E5B28F" d="M38.431,36.515c-0.285-0.161-0.5-0.247-0.5-0.247L38.431,36.515z"/>
	<path fill="#E5B28F" d="M39.64,35.144l-1.225-0.341l-1.689,0.124l-1.951-3.407l-1.279-3.664l4.377-6.139l-2-4.279
		c-0.23,0.021-5.023,8.658-5.023,8.658l-0.789,1.99l2.057,4.058l3.229,3.791l0.771,1.217c0.092,0.145,0.238,0.246,0.404,0.284
		c0.271,0.062,2.547,1.197,3.072,0.964c0.242-0.105-0.764-0.69-0.93-0.806l-1.15-0.818l1.338,0.727l0.945,0.713
		c0.061,0.052,0.396,0.063,0.389-0.017c-0.031-0.312-0.521-0.731-1.01-1.162c-0.25-0.223-0.52-0.395-0.742-0.521l-0.502-0.247
		c0,0,0.215,0.085,0.502,0.247l0.773,0.382l1.084,1.084c0.119,0.117,0.328-0.119,0.279-0.277c-0.115-0.385-0.643-1.01-1.115-1.428
		c-0.57-0.502-1.201-0.691-1.201-0.691l1.201,0.024l1.078,0.968c0.059,0.038,0.139-0.008,0.131-0.077
		C40.587,35.815,39.64,35.145,39.64,35.144L39.64,35.144z"/>
	<g>
		<path fill="#A74214" d="M48.538,7.676c0.006-0.015,0.002-0.04-0.006-0.067C48.524,7.67,48.521,7.72,48.538,7.676z"/>
	</g>
	<g>
		<path fill="#E5B28F" d="M46.159,4.159c-1.232-0.838-3.17-0.666-4.355,0.101c-2.152,1.388-1.645,4.668-0.934,6.765
			c0.244,0.713,0.297,1.493,0.943,2.016c0.068,0.057,0.141,0.115,0.211,0.174c0.418,0.349,0.844,0.715,1.387,0.903
			c0.201,0.069,0.414,0.1,0.627,0.088h0.031c0.225,0.016,0.445-0.016,0.66-0.088c0.574-0.2,1.02-0.602,1.467-0.972
			c0.043-0.035,0.096-0.062,0.131-0.105c1.016-1.34,1.705-3.045,1.469-4.995C47.653,6.866,47.216,4.88,46.159,4.159z"/>
		<path fill="#E5B28F" d="M40.661,9.969c-0.014-0.071-0.018-0.144-0.012-0.215c-0.02-0.151-0.02-0.308-0.02-0.464
			c0-0.098,0.006-0.191,0.014-0.283c-0.064-0.059-0.141-0.098-0.232-0.122c-0.047-0.011-0.092-0.022-0.145-0.022
			c-0.127,0-0.271,0.027-0.354,0.133c-0.006,0.006-0.012,0.006-0.012,0.006c-0.082,0.109-0.076,0.261-0.023,0.388
			c0.006,0.006,0.006,0.019,0.012,0.022c0.047,0.117,0.121,0.222,0.168,0.338c0.023,0.046,0.035,0.098,0.047,0.144v0.007
			c0.041,0.149,0.051,0.301,0.074,0.451c0.035,0.202,0.092,0.412,0.242,0.551c0.006,0.006,0.014,0.012,0.018,0.012
			c0.053,0.047,0.109,0.074,0.168,0.104c0.068,0.028,0.338,0.164,0.406,0.175c0.008,0.006,0.02-0.023,0.025-0.023
			c-0.047-0.208-0.293-0.512-0.328-0.731C40.69,10.282,40.673,10.124,40.661,9.969L40.661,9.969z M47.747,9.153
			c-0.115,0.002-0.213,0.031-0.295,0.08c0.01,0.098,0.018,0.195,0.02,0.295c0.021,0.383,0.006,0.78-0.051,1.157
			c-0.031,0.229-0.08,0.454-0.141,0.665c0.115-0.033,0.225-0.08,0.311-0.16c0.15-0.139,0.211-0.349,0.242-0.552
			c0.031-0.201,0.043-0.411,0.121-0.599c0.053-0.125,0.135-0.235,0.182-0.361c0.051-0.125,0.062-0.279-0.02-0.389
			C48.034,9.182,47.884,9.151,47.747,9.153L47.747,9.153z"/>
	</g>
	<path fill="#FFFFFF" d="M42.688,12.047c0.42,0.491,0.836,0.678,1.211,0.702c0.6,0.037,1.184-0.238,1.459-0.702
		c-0.375,0.05-0.805,0.085-1.275,0.088C43.616,12.137,43.149,12.108,42.688,12.047z"/>
	<path fill="#525156" d="M46.454,7.767c-0.725-0.023-1.496,0.436-1.496,0.436l0.023,0.192c0,0,1.109-0.604,1.689-0.458
		c0.65,0.145,0.797,0.362,0.797,0.362S47.179,7.79,46.454,7.767z M40.626,8.327c0,0,0.146-0.217,0.797-0.361
		c0.58-0.145,1.691,0.458,1.691,0.458l0.021-0.193c0,0-0.771-0.459-1.496-0.435C40.917,7.821,40.626,8.327,40.626,8.327z"/>
	<path fill="#D6A483" d="M43.454,10.866l0.164,0.562l0.85,0.064l0.242-0.144l-0.82-0.146L43.454,10.866z"/>
	<g>
		<path fill="#FFFFFF" d="M44.815,9.3c-0.031,0.041,0.613,0.236,0.672,0.243c0.217,0.024,0.4-0.001,0.6-0.078
			c0.062-0.024,0.646-0.308,0.623-0.33c-0.174-0.175-0.734-0.312-0.979-0.388C45.251,8.771,45.095,8.938,44.815,9.3z"/>
		<path fill="#5CBEE0" d="M45.651,8.753c-0.217,0-0.393,0.174-0.393,0.39l0,0c-0.002,0.216,0.176,0.392,0.393,0.392l0,0
			c0.215,0,0.391-0.174,0.391-0.392C46.042,8.927,45.866,8.752,45.651,8.753z"/>
		<path fill="#525156" d="M45.651,8.956c-0.105,0-0.189,0.084-0.189,0.186c0,0.104,0.084,0.188,0.189,0.188
			c0.102,0,0.186-0.084,0.186-0.188l0,0C45.837,9.04,45.753,8.956,45.651,8.956L45.651,8.956z"/>
		<path fill="#525156" d="M46.079,8.665c-0.262-0.049-0.547-0.035-0.791,0.078c-0.207,0.095-0.301,0.26-0.412,0.449
			c-0.02,0.03-0.037,0.063-0.059,0.096c0.365-0.582,1.264-0.418,1.732-0.1c0.109,0.055,0.529,0.225,0.605,0.266
			c-0.053-0.157-0.238-0.381-0.271-0.524C46.696,8.819,46.286,8.704,46.079,8.665z"/>
	</g>
	<g>
		<path fill="#FFFFFF" d="M42.544,8.782c-0.244,0.076-0.807,0.211-0.98,0.388c-0.021,0.022,0.561,0.307,0.623,0.331
			c0.199,0.076,0.383,0.104,0.6,0.076c0.059-0.006,0.703-0.201,0.672-0.242C43.179,8.975,43.022,8.807,42.544,8.782z"/>
		<path fill="#5CBEE0" d="M42.622,8.788c-0.215,0-0.391,0.175-0.391,0.391s0.174,0.391,0.391,0.391c0.215,0,0.391-0.175,0.391-0.392
			C43.013,8.963,42.837,8.788,42.622,8.788z"/>
		<path fill="#525156" d="M42.622,8.993c-0.102,0-0.186,0.082-0.186,0.185c0,0.104,0.084,0.187,0.186,0.187
			c0.104,0,0.188-0.082,0.188-0.186S42.726,8.993,42.622,8.993z"/>
		<path fill="#525156" d="M42.985,8.778c-0.246-0.111-0.531-0.125-0.791-0.076c-0.207,0.039-0.619,0.153-0.807,0.264
			c-0.031,0.145-0.219,0.367-0.271,0.525c0.076-0.043,0.496-0.211,0.604-0.267c0.473-0.317,1.371-0.483,1.736,0.101
			c-0.021-0.033-0.041-0.065-0.059-0.098C43.286,9.038,43.192,8.874,42.985,8.778L42.985,8.778z"/>
	</g>
	<g>
		<path fill="#E8E3D9" d="M42.337,4.461l-0.139,0.233c0,0,0.883,1.674,1.861,2.14l0.324-0.372l2.287,1.475
			c0,0,1.699,7.397,1.711,7.774c-0.01-0.354-0.145-9.392-0.371-9.437C47.78,6.229,43.642,3.856,42.337,4.461z M48.386,15.718
			c0-0.002-0.002-0.005-0.002-0.007C48.386,15.725,48.386,15.729,48.386,15.718z"/>
		<path fill="#F2DD6F" d="M49.071,7.813c-0.209-2.417-1.324-4.509-3.797-5.176c-0.564-0.152-1.164-0.174-1.742-0.089
			c-2.293,0.335-2.373,0.966-2.373,0.966s1.354,2.512,3.09,3.283c0.58,0-0.193-1.158-0.193-1.158l2.615,2.297
			c0,0-0.393-1.617-0.393-1.621c0.26,1.075,1.068,2.033,1.33,3.129c0.455,1.895,0.262,3.875,0.48,5.794
			c0.275,2.437-0.113,4.764-0.443,7.172l1.717,0.073c0.268,0.013,0.717-3.415,0.781-3.776c0.344-1.925,0.201-3.889-0.1-5.811
			C49.772,11.169,49.22,9.555,49.071,7.813L49.071,7.813z"/>
		<path fill="#F2DD6F" d="M41.159,3.518c-0.455-0.052-1.047,0.317-1.312,0.72c-0.436,0.668-0.67,1.57-0.82,2.346
			c-0.199,1.025-0.268,2.068-0.377,3.106c-0.105,1.007-0.367,1.968-0.514,2.958c-0.256,1.757-0.311,3.542-0.186,5.312
			c0.051,0.705-0.051,1.365-0.012,2.06c0.016,0.286,0.363,2.571,0.197,2.665c0.83-0.471,1.863-0.571,2.77-0.267
			c-0.986-2.299-1.459-4.815-1.395-7.315c0.031-1.17,0.156-2.334,0.279-3.498c0.062-0.601,0.125-1.201,0.172-1.803
			c0.035-0.443-0.088-1.048,0.156-1.441c0.145,0.389,0.238,0.811,0.35,1.211c0.051-1.01,0.027-1.984,0.445-2.92
			c0.369-0.828,0.824-1.531,0.824-2.457C41.671,3.745,41.442,3.551,41.159,3.518L41.159,3.518z"/>
	</g>
	<path fill="#E2E2E2" d="M39.362,57.161c0.09-1.311-0.682-3.261-0.939-4.639c-0.334-1.795-0.629-3.598-0.83-5.412
		c-0.318-2.9,0.008-5.57,0.096-8.463l-0.736-0.499c-0.385,1.628-0.895,3.3-0.875,4.958c0.027,2.241,0.393,4.596,0.859,6.846
		c0.461,2.209,1.461,4.607,1.461,6.851c0,3.709-0.545,7.207,0.311,10.873c0.113,0.474,1.051,4.751,1.211,5.299
		c0.189-0.022,0.377-0.036,0.562-0.044l-1.584-8.979L39.362,57.161L39.362,57.161z M43.733,43.951l0.242,1.086
		c0.039-0.216,0.084-0.424,0.131-0.621c0.418,0.791,0.902,5.723,0.93,6.046c0.332,4.219,0.074,2.665,0.189,8.52l-0.035,4.708
		l-0.062,5.838l-0.107,3.555c0.182,0.023,0.361,0.043,0.547,0.054l0.307-9.462c0,0-0.188-5.675,0-8.001
		c0.186-2.325-0.932-11.535-0.932-11.535L43.733,43.951L43.733,43.951z"/>
	<path fill="#E46E8A" d="M35.64,17.484l-5.492,8.788l-0.686,1.856l2.76,4.614l2.318-2.075l-0.781-2.637l4.248-5.016
		C38.007,23.015,38.79,18.366,35.64,17.484L35.64,17.484z M50.167,23.538l0.977,5.859l0.959,3.776l3.264-0.943l-0.805-3.809
		l-0.586-8.692L52.8,17.312C52.8,17.312,49.679,20.999,50.167,23.538L50.167,23.538z"/>
</g>
</svg>
