<?xml version="1.0" encoding="utf-8"?>
<!-- Generator: Adobe Illustrator 16.0.0, SVG Export Plug-In . SVG Version: 6.00 Build 0)  -->
<!DOCTYPE svg PUBLIC "-//W3C//DTD SVG 1.1//EN" "http://www.w3.org/Graphics/SVG/1.1/DTD/svg11.dtd">
<svg version="1.1" id="Layer_1" xmlns="http://www.w3.org/2000/svg" xmlns:xlink="http://www.w3.org/1999/xlink" x="0px" y="0px"
	 width="85px" height="85px" viewBox="0 0 85 85" enable-background="new 0 0 85 85" xml:space="preserve">
<g>
	<g id="Layer_x0020_1">
		<g id="_412042344">
			<g>
				<path id="_410294056" d="M15.915,18.8h53.171c0.461,0,0.832,0.373,0.832,0.832V71.37c0,0.461-0.371,0.834-0.832,0.834H15.915
					c-0.46,0-0.833-0.373-0.833-0.834V19.632C15.082,19.173,15.455,18.8,15.915,18.8z M68.252,20.466H16.749v50.072h51.503V20.466
					L68.252,20.466z"/>
				<path id="_410300224" d="M13.204,18.8h58.593V4.165H13.204V18.8L13.204,18.8z M72.631,20.466h-60.26
					c-0.46,0-0.833-0.373-0.833-0.832V3.333c0-0.459,0.373-0.832,0.833-0.832h60.26c0.459,0,0.834,0.371,0.834,0.832v16.301
					C73.465,20.093,73.09,20.466,72.631,20.466z"/>
				<path id="_410301040" d="M22.27,7.138l0.883,2.734l2.924-0.004V9.866c0.345-0.002,0.626,0.277,0.626,0.623
					c0,0.223-0.114,0.416-0.287,0.527l-2.341,1.695l0.908,2.777l0,0c0.107,0.328-0.071,0.682-0.399,0.789
					c-0.219,0.072-0.448,0.016-0.608-0.127l-2.314-1.688l-2.363,1.723l0.002,0.002c-0.279,0.205-0.67,0.143-0.873-0.135
					c-0.132-0.182-0.152-0.408-0.076-0.602l0.896-2.74l-2.369-1.715l0,0c-0.28-0.203-0.342-0.594-0.14-0.873
					c0.134-0.186,0.35-0.275,0.562-0.256l2.869,0.004l0.898-2.781l-0.002-0.002c0.105-0.328,0.457-0.51,0.787-0.402
					C22.068,6.757,22.221,6.933,22.27,7.138L22.27,7.138z M22.105,10.688L21.661,9.31l-0.431,1.332
					c-0.063,0.277-0.312,0.48-0.608,0.48V11.12l-1.448-0.002l1.143,0.828c0.236,0.15,0.35,0.445,0.26,0.721h-0.001l-0.451,1.377
					l1.122-0.816c0.215-0.193,0.542-0.215,0.783-0.039l-0.002,0.002l1.17,0.854l-0.438-1.338c-0.104-0.262-0.023-0.568,0.215-0.738
					l0,0l1.172-0.85l-1.392,0.002c-0.284,0.027-0.562-0.145-0.651-0.43L22.105,10.688L22.105,10.688z"/>
				<path id="_410298232" d="M32.689,7.138l0.883,2.734l2.924-0.004V9.866c0.345-0.002,0.625,0.277,0.626,0.623
					c0,0.223-0.114,0.416-0.287,0.527l-2.341,1.695l0.908,2.777h0.002c0.107,0.328-0.072,0.682-0.4,0.789
					c-0.219,0.072-0.449,0.016-0.609-0.127l-2.314-1.688l-2.363,1.723l0.002,0.002c-0.279,0.205-0.671,0.143-0.873-0.135
					c-0.132-0.182-0.152-0.408-0.076-0.602l0.896-2.74l-2.369-1.715l0,0c-0.279-0.203-0.342-0.594-0.14-0.873
					c0.134-0.186,0.351-0.275,0.563-0.256l2.867,0.004l0.898-2.781l-0.002-0.002c0.107-0.328,0.459-0.51,0.787-0.402
					C32.488,6.757,32.641,6.933,32.689,7.138L32.689,7.138z M32.525,10.688L32.081,9.31l-0.431,1.332
					c-0.063,0.277-0.312,0.48-0.609,0.48V11.12l-1.447-0.002l1.143,0.828c0.236,0.15,0.35,0.445,0.259,0.721l0,0l-0.451,1.377
					l1.121-0.816c0.216-0.193,0.542-0.215,0.784-0.039l-0.001,0.002l1.17,0.854l-0.438-1.338c-0.104-0.262-0.022-0.568,0.213-0.738
					h0.002l1.174-0.85l-1.393,0.002c-0.285,0.027-0.561-0.145-0.652-0.43L32.525,10.688L32.525,10.688z"/>
				<path id="_410298424" d="M43.109,7.138l0.883,2.734l2.924-0.004V9.866c0.346-0.002,0.627,0.277,0.627,0.623
					c0,0.223-0.115,0.416-0.287,0.527l-2.342,1.695l0.91,2.777l0,0c0.107,0.328-0.07,0.682-0.398,0.789
					c-0.219,0.072-0.449,0.016-0.609-0.127L42.5,14.462l-2.363,1.725l0.002,0.002c-0.279,0.203-0.67,0.143-0.873-0.137
					c-0.131-0.18-0.152-0.406-0.076-0.6l0.896-2.742l-2.37-1.715l0,0c-0.28-0.201-0.342-0.592-0.14-0.871
					c0.134-0.186,0.352-0.275,0.562-0.258l2.869,0.006l0.896-2.783h-0.002c0.107-0.33,0.459-0.51,0.787-0.404
					C42.908,6.757,43.061,6.933,43.109,7.138L43.109,7.138z M42.945,10.688L42.5,9.31l-0.43,1.33
					c-0.064,0.277-0.312,0.482-0.609,0.482V11.12l-1.447-0.004l1.143,0.828c0.234,0.15,0.35,0.445,0.258,0.723h-0.002l-0.449,1.377
					l1.121-0.818c0.215-0.191,0.543-0.215,0.783-0.039l-0.002,0.002l1.17,0.855l-0.438-1.34c-0.105-0.26-0.023-0.566,0.213-0.738
					h0.002l1.174-0.85l-1.393,0.004c-0.285,0.025-0.562-0.146-0.652-0.432H42.945L42.945,10.688z"/>
				<path id="_410300440" d="M53.527,7.138l0.885,2.734l2.926-0.004V9.866c0.344-0.002,0.625,0.277,0.625,0.623
					c0,0.223-0.113,0.416-0.287,0.527l-2.342,1.695l0.908,2.777h0.002c0.107,0.328-0.07,0.682-0.398,0.789
					c-0.219,0.072-0.449,0.016-0.609-0.127l-2.314-1.688l-2.363,1.723l0.002,0.002c-0.279,0.205-0.67,0.143-0.873-0.135
					c-0.131-0.182-0.152-0.408-0.076-0.602l0.896-2.74l-2.367-1.715h-0.002c-0.279-0.203-0.342-0.594-0.141-0.873
					c0.135-0.186,0.352-0.275,0.564-0.256l2.869,0.004l0.896-2.781l-0.002-0.002c0.105-0.328,0.457-0.51,0.787-0.402
					C53.326,6.757,53.48,6.933,53.527,7.138L53.527,7.138z M53.365,10.688L52.92,9.31l-0.43,1.332
					c-0.062,0.277-0.312,0.48-0.609,0.48V11.12l-1.447-0.002l1.143,0.828c0.236,0.15,0.352,0.445,0.262,0.721h-0.002l-0.451,1.377
					l1.121-0.816c0.215-0.193,0.543-0.215,0.783-0.039l-0.002,0.002l1.172,0.854l-0.438-1.338c-0.105-0.262-0.023-0.568,0.215-0.738
					l0,0l1.172-0.85l-1.391,0.002C53.73,11.146,53.453,10.974,53.365,10.688L53.365,10.688z"/>
				<path id="_410299792" d="M63.947,7.138l0.883,2.734l2.926-0.004V9.866c0.346-0.002,0.625,0.277,0.627,0.623
					c0,0.223-0.115,0.416-0.289,0.527l-2.34,1.695l0.906,2.777h0.002c0.107,0.328-0.07,0.682-0.398,0.789
					c-0.219,0.072-0.449,0.016-0.609-0.127l-2.314-1.688l-2.361,1.723v0.002c-0.277,0.205-0.67,0.143-0.873-0.135
					c-0.131-0.182-0.152-0.408-0.076-0.602l0.898-2.74l-2.371-1.715l0,0c-0.279-0.203-0.342-0.594-0.141-0.873
					c0.135-0.186,0.352-0.275,0.564-0.256l2.867,0.004l0.898-2.781l-0.002-0.002c0.105-0.328,0.459-0.51,0.787-0.402
					C63.746,6.757,63.898,6.933,63.947,7.138L63.947,7.138z M63.783,10.688L63.34,9.31l-0.43,1.332
					c-0.064,0.277-0.312,0.48-0.609,0.48V11.12l-1.447-0.002l1.143,0.828c0.234,0.15,0.35,0.445,0.26,0.721h-0.002l-0.451,1.377
					l1.123-0.816c0.215-0.193,0.541-0.215,0.783-0.039l-0.002,0.002l1.17,0.854l-0.438-1.338c-0.104-0.262-0.023-0.568,0.213-0.738
					l0,0l1.174-0.85l-1.391,0.002c-0.285,0.027-0.561-0.145-0.652-0.43V10.688L63.783,10.688z"/>
				<path id="_410299744" d="M33.922,48.231h17.652c0.461,0,0.834,0.373,0.834,0.834V71.37c0,0.461-0.373,0.834-0.834,0.834H33.922
					c-0.46,0-0.833-0.373-0.833-0.834V49.065C33.088,48.604,33.461,48.231,33.922,48.231L33.922,48.231z M50.74,49.897H34.754
					v20.641H50.74V49.897z"/>
				<path id="_410300464" d="M21.154,58.767h6.634c0.46,0,0.833,0.373,0.833,0.834v6.633c0,0.461-0.373,0.834-0.833,0.834h-6.634
					c-0.461,0-0.834-0.373-0.834-0.834v-6.633C20.32,59.14,20.693,58.767,21.154,58.767z M26.955,60.433h-4.969v4.967h4.969V60.433z
					"/>
				<path id="_410294512" d="M21.154,47.157h6.634c0.46,0,0.833,0.373,0.833,0.834v6.633c0,0.461-0.373,0.834-0.833,0.834h-6.634
					c-0.461,0-0.834-0.373-0.834-0.834v-6.633C20.32,47.53,20.693,47.157,21.154,47.157L21.154,47.157z M26.955,48.823h-4.969v4.969
					h4.969V48.823z"/>
				<path id="_410297920" d="M21.154,35.548h6.634c0.46,0,0.833,0.373,0.833,0.834v6.633c0,0.461-0.373,0.832-0.833,0.832h-6.634
					c-0.461,0-0.834-0.371-0.834-0.832v-6.633C20.32,35.921,20.693,35.548,21.154,35.548z M26.955,37.214h-4.969v4.969h4.969V37.214
					z"/>
				<path id="_410299648" d="M21.154,23.938h6.634c0.46,0,0.833,0.373,0.833,0.832v6.635c0,0.459-0.373,0.832-0.833,0.832h-6.634
					c-0.461,0-0.834-0.373-0.834-0.832v-6.635C20.32,24.312,20.693,23.938,21.154,23.938z M26.955,25.604h-4.969v4.967h4.969V25.604
					z"/>
				<path id="_410297392" d="M57.213,58.767h6.635c0.459,0,0.832,0.373,0.832,0.834v6.633c0,0.461-0.373,0.834-0.832,0.834h-6.635
					c-0.459,0-0.834-0.373-0.834-0.834v-6.633C56.379,59.14,56.754,58.767,57.213,58.767z M63.014,60.433h-4.967v4.967h4.967V60.433
					L63.014,60.433z"/>
				<path id="_410300368" d="M57.213,47.157h6.635c0.459,0,0.832,0.373,0.832,0.834v6.633c0,0.461-0.373,0.834-0.832,0.834h-6.635
					c-0.459,0-0.834-0.373-0.834-0.834v-6.633C56.379,47.53,56.754,47.157,57.213,47.157L57.213,47.157z M63.014,48.823h-4.967
					v4.969h4.967V48.823L63.014,48.823z"/>
				<path id="_410295280" d="M57.213,35.548h6.635c0.459,0,0.832,0.373,0.832,0.834v6.633c0,0.461-0.373,0.832-0.832,0.832h-6.635
					c-0.459,0-0.834-0.371-0.834-0.832v-6.633C56.379,35.921,56.754,35.548,57.213,35.548z M63.014,37.214h-4.967v4.969h4.967
					V37.214L63.014,37.214z"/>
				<path id="_410296264" d="M57.213,23.938h6.635c0.459,0,0.832,0.373,0.832,0.832v6.635c0,0.459-0.373,0.832-0.832,0.832h-6.635
					c-0.459,0-0.834-0.373-0.834-0.832v-6.635C56.379,24.312,56.754,23.938,57.213,23.938z M63.014,25.604h-4.967v4.967h4.967
					V25.604L63.014,25.604z"/>
				<path id="_410300128" d="M45.193,35.548h6.635c0.459,0,0.832,0.373,0.832,0.834v6.633c0,0.461-0.373,0.832-0.832,0.832h-6.635
					c-0.459,0-0.834-0.371-0.834-0.832v-6.633C44.359,35.921,44.734,35.548,45.193,35.548L45.193,35.548z M50.992,37.214h-4.967
					v4.969h4.967V37.214z"/>
				<path id="_410296792" d="M45.193,23.938h6.635c0.459,0,0.832,0.373,0.832,0.832v6.635c0,0.459-0.373,0.832-0.832,0.832h-6.635
					c-0.459,0-0.834-0.373-0.834-0.832v-6.635C44.359,24.312,44.734,23.938,45.193,23.938L45.193,23.938z M50.992,25.604h-4.967
					v4.967h4.967V25.604z"/>
				<path id="_410297056" d="M33.174,35.548h6.635c0.459,0,0.832,0.373,0.832,0.834v6.633c0,0.461-0.373,0.832-0.832,0.832h-6.635
					c-0.46,0-0.833-0.371-0.833-0.832v-6.633C32.34,35.921,32.713,35.548,33.174,35.548z M38.975,37.214h-4.969v4.969h4.969V37.214z
					"/>
				<path id="_410298952" d="M33.174,23.938h6.635c0.459,0,0.832,0.373,0.832,0.832v6.635c0,0.459-0.373,0.832-0.832,0.832h-6.635
					c-0.46,0-0.833-0.373-0.833-0.832v-6.635C32.34,24.312,32.713,23.938,33.174,23.938z M38.975,25.604h-4.969v4.967h4.969V25.604z
					"/>
				<path id="_412037088" fill="#9D7A72" d="M32.34,43.015v-6.633c0-0.461,0.373-0.834,0.833-0.834h6.634
					c0.461,0,0.834,0.373,0.834,0.834v6.633c0,0.461-0.373,0.832-0.834,0.832h-6.634C32.713,43.847,32.34,43.476,32.34,43.015z
					 M39.807,32.239h-6.634c-0.46,0-0.833-0.373-0.833-0.834v-6.633c0-0.459,0.373-0.834,0.833-0.834h6.634
					c0.461,0,0.834,0.375,0.834,0.834v6.633C40.641,31.864,40.268,32.239,39.807,32.239z M68.252,20.466H16.748v50.072h16.34V49.065
					c0-0.461,0.373-0.834,0.833-0.834h17.653c0.461,0,0.832,0.373,0.832,0.834v21.473h15.846V20.466L68.252,20.466z M44.359,31.405
					v-6.635c0-0.459,0.373-0.832,0.834-0.832h6.635c0.459,0,0.832,0.373,0.832,0.832v6.635c0,0.459-0.373,0.832-0.832,0.832h-6.635
					C44.732,32.239,44.359,31.864,44.359,31.405L44.359,31.405z M44.359,43.015v-6.633c0-0.461,0.373-0.834,0.834-0.834h6.635
					c0.459,0,0.832,0.373,0.832,0.834v6.633c0,0.461-0.373,0.832-0.832,0.832h-6.635C44.732,43.847,44.359,43.476,44.359,43.015
					L44.359,43.015z M56.379,31.405v-6.635c0-0.459,0.375-0.832,0.834-0.832h6.635c0.459,0,0.832,0.373,0.832,0.832v6.635
					c0,0.459-0.373,0.832-0.832,0.832h-6.635C56.754,32.239,56.379,31.864,56.379,31.405z M56.379,43.015v-6.633
					c0-0.461,0.375-0.834,0.834-0.834h6.635c0.459,0,0.832,0.373,0.832,0.834v6.633c0,0.461-0.373,0.832-0.832,0.832h-6.635
					C56.754,43.847,56.379,43.476,56.379,43.015z M56.379,47.991c0-0.461,0.375-0.834,0.834-0.834h6.635
					c0.459,0,0.832,0.373,0.832,0.834v6.633c0,0.461-0.373,0.834-0.832,0.834h-6.635c-0.459,0-0.834-0.373-0.834-0.834V47.991
					L56.379,47.991z M57.213,58.767h6.635c0.459,0,0.832,0.373,0.832,0.834v6.633c0,0.461-0.373,0.834-0.832,0.834h-6.635
					c-0.459,0-0.834-0.373-0.834-0.834v-6.633C56.379,59.14,56.754,58.767,57.213,58.767z M28.621,36.382v6.633
					c0,0.461-0.373,0.832-0.833,0.832h-6.634c-0.461,0-0.834-0.371-0.834-0.832v-6.633c0-0.461,0.373-0.834,0.834-0.834h6.634
					C28.248,35.548,28.621,35.921,28.621,36.382z M27.788,32.239h-6.634c-0.461,0-0.834-0.373-0.834-0.834v-6.633
					c0-0.459,0.373-0.834,0.834-0.834h6.634c0.46,0,0.833,0.375,0.833,0.834v6.633C28.621,31.864,28.248,32.239,27.788,32.239z
					 M27.788,47.157c0.46,0,0.833,0.373,0.833,0.834v6.633c0,0.461-0.373,0.834-0.833,0.834h-6.634
					c-0.461,0-0.834-0.373-0.834-0.834v-6.633c0-0.461,0.373-0.834,0.834-0.834H27.788L27.788,47.157z M21.154,58.767h6.634
					c0.46,0,0.833,0.373,0.833,0.834v6.633c0,0.461-0.373,0.834-0.833,0.834h-6.634c-0.461,0-0.834-0.373-0.834-0.834v-6.633
					C20.32,59.14,20.693,58.767,21.154,58.767z"/>
				<g>
					<polygon id="_412036080" fill="#EDEAE3" points="21.986,30.571 26.955,30.571 26.955,25.604 21.986,25.604 					"/>
					<polygon id="_412038264" fill="#EDEAE3" points="34.007,25.604 34.007,30.571 38.975,30.571 38.975,25.604 					"/>
					<polygon id="_412041168" fill="#EDEAE3" points="46.027,25.604 46.027,30.571 50.992,30.571 50.992,25.604 					"/>
					<polygon id="_412042824" fill="#EDEAE3" points="58.047,25.604 58.047,30.571 63.014,30.571 63.014,25.604 					"/>
					<polygon id="_412038888" fill="#EDEAE3" points="63.014,37.214 58.047,37.214 58.047,42.183 63.014,42.183 					"/>
					<polygon id="_412043232" fill="#EDEAE3" points="50.992,42.183 50.992,37.214 46.027,37.214 46.027,42.183 					"/>
					<polygon id="_412037112" fill="#EDEAE3" points="38.975,42.183 38.975,37.214 34.007,37.214 34.007,42.183 					"/>
					<polygon id="_412043256" fill="#EDEAE3" points="26.955,42.183 26.955,37.214 21.986,37.214 21.986,42.183 					"/>
					<polygon id="_412041288" fill="#EDEAE3" points="26.955,48.823 21.986,48.823 21.986,53.792 26.955,53.792 					"/>
					<polygon id="_412042320" fill="#EDEAE3" points="58.047,48.823 58.047,53.792 63.014,53.792 63.014,48.823 					"/>
					<polygon id="_412040064" fill="#EDEAE3" points="63.014,60.433 58.047,60.433 58.047,65.401 63.014,65.401 					"/>
					<polygon id="_412038720" fill="#EDEAE3" points="26.955,65.401 26.955,60.433 21.986,60.433 21.986,65.401 					"/>
					<polygon id="_412042584" fill="#EDEAE3" points="34.755,49.897 34.755,70.538 50.74,70.538 50.74,49.897 					"/>
				</g>
				<g>
					<path id="_412036032" fill="#FFE156" d="M21.246,13.226c0.215-0.193,0.542-0.215,0.783-0.039l-0.002,0.002l1.17,0.854
						l-0.438-1.34c-0.104-0.26-0.023-0.566,0.215-0.736l0,0l1.172-0.85l-1.392,0.002c-0.284,0.027-0.562-0.145-0.651-0.43v-0.002
						L21.659,9.31l-0.431,1.33c-0.063,0.277-0.312,0.482-0.608,0.482V11.12l-1.448-0.004l1.143,0.828
						c0.235,0.15,0.35,0.445,0.26,0.723h-0.002l-0.45,1.377L21.246,13.226L21.246,13.226z"/>
					<path id="_412043136" fill="#FFE156" d="M30.736,11.944c0.236,0.15,0.35,0.445,0.259,0.721l0,0l-0.451,1.379l1.121-0.818
						c0.216-0.193,0.542-0.215,0.784-0.039l-0.002,0.002l1.171,0.854l-0.438-1.34c-0.104-0.26-0.022-0.566,0.213-0.738h0.002
						l1.174-0.85l-1.393,0.004c-0.285,0.025-0.561-0.146-0.652-0.432h0.002l-0.444-1.379L31.65,10.64
						c-0.063,0.277-0.312,0.48-0.609,0.48v-0.002l-1.447-0.002L30.736,11.944L30.736,11.944z"/>
					<path id="_412039752" fill="#FFE156" d="M40.014,11.116l1.143,0.828c0.236,0.15,0.35,0.445,0.258,0.721l0,0l-0.451,1.377
						l1.123-0.816c0.215-0.193,0.541-0.215,0.783-0.039l-0.002,0.002l1.168,0.854l-0.438-1.34c-0.104-0.26-0.023-0.566,0.215-0.736
						l0,0l1.174-0.85l-1.393,0.002c-0.285,0.027-0.561-0.145-0.65-0.43v-0.002L42.5,9.31l-0.43,1.33
						c-0.064,0.277-0.312,0.482-0.609,0.48v-0.002L40.014,11.116L40.014,11.116z"/>
					<path id="_412040472" fill="#FFE156" d="M50.434,11.116l1.143,0.828c0.236,0.15,0.35,0.445,0.26,0.721h-0.002l-0.449,1.377
						l1.121-0.816c0.215-0.193,0.541-0.215,0.783-0.039l-0.002,0.002l1.17,0.854l-0.438-1.34c-0.104-0.26-0.021-0.566,0.215-0.736
						l0,0l1.174-0.85l-1.391,0.002c-0.285,0.027-0.562-0.145-0.652-0.43v-0.002L52.922,9.31l-0.432,1.33
						c-0.062,0.277-0.311,0.482-0.607,0.48v-0.002L50.434,11.116z"/>
					<path id="_412038048" fill="#FFE156" d="M60.854,11.116l1.143,0.828c0.234,0.15,0.35,0.445,0.26,0.721h-0.002l-0.451,1.377
						l1.123-0.816c0.215-0.193,0.541-0.215,0.781-0.039v0.002l1.17,0.854l-0.438-1.34c-0.104-0.26-0.023-0.566,0.213-0.736l0,0
						l1.174-0.85l-1.391,0.002c-0.285,0.027-0.562-0.145-0.652-0.43l0.002-0.002L63.34,9.31l-0.43,1.33
						c-0.064,0.277-0.312,0.482-0.609,0.48v-0.002L60.854,11.116L60.854,11.116z"/>
				</g>
				<path id="_412043376" fill="#9D7A72" d="M51.43,9.874l0.896-2.783h-0.002c0.105-0.33,0.457-0.51,0.787-0.404
					c0.215,0.07,0.367,0.246,0.416,0.451l0.883,2.736l2.926-0.006V9.866c0.346-0.002,0.625,0.277,0.625,0.623
					c0.002,0.223-0.113,0.416-0.285,0.527l-2.344,1.695l0.91,2.777l0,0c0.107,0.328-0.07,0.684-0.398,0.789
					c-0.219,0.072-0.449,0.016-0.609-0.127l-2.314-1.688l-2.363,1.723l0.004,0.002c-0.281,0.205-0.672,0.143-0.875-0.135
					c-0.131-0.182-0.152-0.408-0.074-0.602l0.896-2.74l-2.369-1.715l0,0c-0.279-0.203-0.342-0.594-0.141-0.873
					c0.135-0.186,0.352-0.275,0.562-0.256L51.43,9.874L51.43,9.874z M58.557,10.997c-0.279-0.203-0.342-0.594-0.143-0.873
					c0.137-0.186,0.354-0.275,0.564-0.256l2.869,0.006l0.896-2.783l0,0c0.105-0.33,0.457-0.51,0.785-0.404
					c0.217,0.07,0.367,0.246,0.418,0.451l0.883,2.736l2.924-0.006V9.866c0.346-0.002,0.625,0.277,0.627,0.623
					c0,0.223-0.115,0.416-0.287,0.527l-2.342,1.695l0.908,2.777h0.002c0.107,0.328-0.072,0.684-0.4,0.789
					c-0.219,0.072-0.449,0.016-0.609-0.127l-2.312-1.688l-2.363,1.723l0.002,0.002c-0.279,0.205-0.67,0.143-0.873-0.135
					c-0.133-0.182-0.152-0.408-0.076-0.602l0.896-2.74L58.557,10.997L58.557,10.997L58.557,10.997z M43.109,7.138l0.883,2.734
					l2.924-0.006V9.864c0.346,0,0.627,0.279,0.627,0.625c0,0.221-0.113,0.416-0.287,0.527l-2.342,1.693l0.91,2.779l0,0
					c0.107,0.328-0.07,0.682-0.398,0.787c-0.219,0.072-0.449,0.018-0.609-0.127L42.5,14.462l-2.363,1.725l0.002,0.002
					c-0.279,0.203-0.67,0.143-0.873-0.137c-0.131-0.18-0.152-0.406-0.076-0.6l0.896-2.742l-2.37-1.715l0,0
					c-0.28-0.201-0.342-0.592-0.14-0.871c0.134-0.186,0.352-0.275,0.562-0.258l2.869,0.008l0.896-2.783l-0.002-0.002
					c0.107-0.328,0.459-0.508,0.787-0.402C42.908,6.757,43.061,6.933,43.109,7.138L43.109,7.138z M15.915,18.8h53.171
					c0.004,0,0.008,0,0.01,0h2.701V4.165H13.204V18.8h2.7C15.908,18.8,15.912,18.8,15.915,18.8L15.915,18.8z M32.689,7.138
					l0.883,2.734l2.924-0.006V9.864c0.345,0,0.625,0.279,0.626,0.625c0,0.221-0.114,0.416-0.287,0.527l-2.341,1.693l0.908,2.779
					h0.002c0.107,0.328-0.072,0.682-0.4,0.787c-0.219,0.072-0.449,0.018-0.609-0.127l-2.313-1.688l-2.362,1.725v0.002
					c-0.279,0.203-0.67,0.143-0.873-0.137c-0.131-0.18-0.152-0.406-0.076-0.6l0.896-2.742l-2.369-1.715l0,0
					c-0.279-0.201-0.342-0.592-0.14-0.873c0.134-0.184,0.351-0.273,0.563-0.256l2.868,0.006l0.897-2.781l-0.002-0.002
					c0.106-0.328,0.459-0.51,0.787-0.402C32.488,6.757,32.641,6.933,32.689,7.138L32.689,7.138z M26.416,11.017l-2.341,1.693
					l0.909,2.779l0,0c0.107,0.328-0.071,0.682-0.399,0.787c-0.219,0.072-0.448,0.018-0.608-0.127l-2.314-1.688l-2.363,1.725
					l0.002,0.002c-0.279,0.203-0.67,0.143-0.873-0.137c-0.132-0.18-0.152-0.406-0.076-0.6l0.896-2.742l-2.368-1.715h-0.001
					c-0.28-0.201-0.342-0.592-0.14-0.871c0.134-0.186,0.35-0.275,0.562-0.258l2.869,0.008l0.898-2.783l-0.002-0.002
					c0.105-0.328,0.457-0.51,0.787-0.402c0.215,0.07,0.366,0.246,0.416,0.451l0.883,2.734l2.924-0.006V9.864
					c0.345,0,0.626,0.279,0.626,0.625C26.703,10.71,26.589,10.905,26.416,11.017L26.416,11.017z"/>
			</g>
			<path id="_412039152" d="M11.703,74.12h61.594v-2.371H11.703V74.12z M74.131,75.333H10.869c-0.459,0-0.833-0.271-0.833-0.605
				v-3.584c0-0.334,0.374-0.605,0.833-0.605h63.262c0.461,0,0.834,0.271,0.834,0.605v3.584
				C74.965,75.062,74.592,75.333,74.131,75.333z"/>
			<path id="_412035960" d="M8.076,77.704h68.85v-2.371H8.076V77.704L8.076,77.704z M77.758,78.917H7.242
				c-0.46,0-0.833-0.271-0.833-0.605v-3.584c0-0.334,0.372-0.605,0.833-0.605h70.516c0.461,0,0.834,0.271,0.834,0.605v3.584
				C78.592,78.644,78.219,78.917,77.758,78.917z"/>
			<path id="_412036392" d="M4.447,81.288h76.105v-2.371H4.447V81.288z M81.387,82.499H3.615c-0.461,0-0.834-0.271-0.834-0.605
				v-3.582c0-0.336,0.373-0.605,0.834-0.605h77.771c0.459,0,0.832,0.271,0.832,0.605v3.582
				C82.219,82.228,81.846,82.499,81.387,82.499z"/>
			
				<polygon id="_412037568" fill="#9D7A72" stroke="#373435" stroke-width="0.0069" stroke-linecap="round" stroke-linejoin="round" points="
				71.262,71.749 13.74,71.749 11.703,71.749 11.703,74.12 73.297,74.12 73.297,71.749 			"/>
			
				<polygon id="_412041504" fill="#9D7A72" stroke="#373435" stroke-width="0.0069" stroke-linecap="round" stroke-linejoin="round" points="
				74.131,75.333 10.869,75.333 8.076,75.333 8.076,77.704 76.926,77.704 76.926,75.333 			"/>
			
				<polygon id="_412038792" fill="#9D7A72" stroke="#373435" stroke-width="0.0069" stroke-linecap="round" stroke-linejoin="round" points="
				77.758,78.917 7.242,78.917 4.447,78.917 4.447,81.288 80.553,81.288 80.553,78.917 			"/>
		</g>
	</g>
</g>
</svg>
