<?xml version="1.0" encoding="utf-8"?>
<!-- Generator: Adobe Illustrator 16.0.0, SVG Export Plug-In . SVG Version: 6.00 Build 0)  -->
<!DOCTYPE svg PUBLIC "-//W3C//DTD SVG 1.1//EN" "http://www.w3.org/Graphics/SVG/1.1/DTD/svg11.dtd">
<svg version="1.1" id="Layer_1" xmlns="http://www.w3.org/2000/svg" xmlns:xlink="http://www.w3.org/1999/xlink" x="0px" y="0px"
	 width="85px" height="85px" viewBox="0 0 85 85" enable-background="new 0 0 85 85" xml:space="preserve">
<g>
	<path fill-rule="evenodd" clip-rule="evenodd" fill="#35A2D7" d="M35.56,30.515c-0.22-0.044-0.428-0.065-0.507-0.355
		c-0.623-2.27-1.242-4.54-1.272-6.918c-0.008-0.6,0.08-1.19,0.158-1.782c0.025-0.147,0.136-0.185,0.262-0.203
		c0.611,0.176,1.24,0.269,1.87,0.351c0.228,0.123,0.324,0.361,0.482,0.547c0.517,0.605,1.11,1.085,1.961,1.066
		c0.809-0.019,1.399-0.462,1.669-1.221c0.166-0.467,0.246-0.954,0.295-1.442c0.096-0.929,0.271-1.838,0.551-2.73
		c0.161-0.516,0.078-0.626-0.452-0.663c-0.204-0.014-0.429,0.037-0.587-0.154c1.087-0.19,2.174-0.082,3.256,0.031
		c1.21,0.127,2.382,0.434,3.55,0.782c1.348,0.403,2.359,1.222,3.184,2.319c2.18,2.9,3.709,6.141,4.904,9.541
		c1.434,4.073,2.193,8.291,2.555,12.586c0.033,0.417,0.037,0.808-0.326,1.099c-0.246,0.471-0.705,0.686-1.15,0.875
		c-2.064,0.885-4.232,1.266-6.473,1.264c-0.191-0.002-0.391,0.002-0.543-0.152c-0.146-0.256-0.062-0.516-0.01-0.771
		c0.635-2.997,1.109-6.021,1.34-9.075c0.102-1.368,0.277-2.728,0.361-4.096c0.018-0.265,0.055-0.525,0.145-0.775
		c0.023-0.06,0.055-0.114,0.092-0.164c0.369-0.278,0.463-0.655,0.453-1.103c-0.021-0.871-0.006-1.742-0.006-2.613
		c-0.029-1.279-0.182-2.546-0.379-3.807c-0.059-0.249-0.07-0.507-0.145-0.754c0.066,0.297,0.109,0.597,0.152,0.899
		c0.365,1.963,0.402,3.944,0.369,5.93c-0.014,0.467,0.125,0.997-0.496,1.216c-0.771,0.294-1.576,0.369-2.393,0.363
		c-0.949-0.013-1.896-0.006-2.844-0.003c-0.379,0.001-0.682-0.108-0.729-0.521c-0.127-1.133-0.417-2.237-0.562-3.366
		c-0.079-0.848-0.136-1.696-0.1-2.628c-0.07,0.935,0.077,1.789,0.045,2.645c-0.018,0.06-0.045,0.114-0.082,0.164
		c-0.786,0.503-1.683,0.699-2.573,0.877c-1.592,0.317-3.199,0.408-4.812,0.16c-0.088-0.014-0.172-0.035-0.252-0.072
		c-0.113-0.026-0.18-0.134-0.293-0.178c0.168,0.117,0.211,0.309,0.314,0.462c0.252,0.556,0.488,1.119,0.717,1.684
		c0.217,0.535,0.201,0.553-0.371,0.676c-0.084,0.018-0.167,0.049-0.254,0.065C36.273,30.606,35.911,30.667,35.56,30.515z"/>
	<path fill-rule="evenodd" clip-rule="evenodd" fill="#263F67" d="M37.245,75.192c-0.453-0.014-0.604-0.215-0.602-0.695
		c0.028-4.963,0.029-9.926,0.035-14.887c0-0.232,0.053-0.451,0.113-0.674c0.515-1.844,1.023-3.689,1.533-5.535
		c-0.037-0.363,0.096-0.693,0.207-1.029c0.032-0.096,0.062-0.193,0.078-0.293c0.012-0.08,0.029-0.156,0.051-0.234
		c0.512-1.746,1.01-3.498,1.519-5.246c0.214-0.648,0.38-1.311,0.604-1.955c0.063-0.182,0.12-0.367,0.266-0.506
		c0.443-0.264,0.916-0.279,1.416-0.213c1.066,0.141,2.068,0.51,3.091,0.811c0.135,0.039,0.258,0.107,0.332,0.24
		c0.02,0.807-0.021,1.613-0.049,2.42c-0.047,1.402-0.23,2.803-0.088,4.211c0.043,0.43,0.129,0.832,0.324,1.217
		c0.104,0.203,0.195,0.414,0.193,0.652c-0.236,1.088-0.701,2.098-1.074,3.141c-0.432,1.209-0.87,2.416-1.327,3.617
		c-0.364,0.957-0.334,1.973-0.418,2.967c-0.177,2.082-0.354,4.166-0.506,6.252c-0.117,1.576-0.275,3.15-0.355,4.73
		c-0.045,0.865-0.178,1.053-0.924,1.236c-1.283,0.221-2.568,0.154-3.854,0.021C37.587,75.417,37.429,75.286,37.245,75.192z"/>
	<path fill-rule="evenodd" clip-rule="evenodd" fill="#263F67" d="M48.98,45.394c2.293-0.021,4.539-0.305,6.684-1.176
		c0.527-0.215,0.984-0.533,1.447-0.848c0.141,2.248,0.098,4.5,0.125,6.75c0.037,3.025,0.027,6.051,0.193,9.074
		c0.049,0.908,0.246,1.768,0.598,2.605c1.283,3.064,2.777,6.033,4.139,9.062c0.1,0.221,0.338,0.436,0.154,0.727
		c-0.094,0.312-0.289,0.539-0.549,0.734c-1.016,0.758-2.09,1.402-3.305,1.795c-0.496,0.205-0.807,0.02-1.088-0.42
		c-2.104-3.256-4.133-6.553-5.902-10.01c-0.773-1.514-1.131-3.096-1.246-4.762c-0.098-1.387-0.262-2.768-0.398-4.15
		c-0.021-0.229-0.043-0.455,0.008-0.684c0.01-0.031,0.018-0.072,0.045-0.092c0.533-0.393,0.549-0.521,0.141-1.09
		c-0.143-0.197-0.344-0.354-0.398-0.607c-0.021-0.139-0.012-0.27,0.078-0.383c0.391-0.051,0.557,0.311,0.836,0.463
		c0.102,0.055,0.197,0.211,0.314,0.115c0.139-0.111,0.014-0.254-0.039-0.377c-0.021-0.049-0.047-0.098-0.082-0.135
		c-1.002-1.062-1.098-2.426-1.248-3.77c-0.09-0.783-0.139-1.574-0.559-2.281C48.83,45.771,48.703,45.55,48.98,45.394z"/>
	<path fill-rule="evenodd" clip-rule="evenodd" fill="#FEC09F" d="M34.188,21.354c-0.083,0.036-0.166,0.071-0.249,0.106
		c-0.615,0.096-1.211,0.237-1.852,0.261c-1.215,0.044-1.921-0.642-2.603-1.445c-1.057-1.247-1.528-2.753-1.808-4.321
		c-0.084-0.469,0.038-0.976,0.065-1.465c0.036-0.213-0.022-0.426-0.005-0.64c-0.033-0.213-0.025-0.432-0.096-0.64
		c-0.037-0.162-0.043-0.325-0.045-0.49c0.005-0.188,0.006-0.375-0.057-0.556c-0.025-0.106-0.038-0.214-0.043-0.323
		c0-0.191-0.01-0.381-0.072-0.565c-0.094-1.092,0.127-2.133,0.518-3.144c0.109-0.281,0.307-0.513,0.539-0.708
		c0.239-0.201,0.5-0.255,0.777-0.084c1.655,1.021,3.391,0.854,5.146,0.344c0.539-0.157,1.07-0.346,1.602-0.533
		c0.969-0.341,1.905,0.252,2.016,1.281c0.023,0.228,0.01,0.457,0.015,0.686c0.005,0.195-0.001,0.41,0.129,0.557
		c0.761,0.862,0.642,1.933,0.707,2.953c0.04,0.627,0.014,1.26-0.003,1.984c0.189-0.407,0.31-0.751,0.506-1.054
		c0.496-0.764,1.265-1.043,1.988-0.735c0.505,0.215,0.72,0.635,0.84,1.131c-0.148,0.82-0.366,1.59-1.02,2.195
		c-0.447,0.414-0.977,0.587-1.521,0.766c-0.314,0.317-0.491,0.724-0.71,1.103c-0.764,1.319-1.992,2.092-3.279,2.798
		C35.198,21.051,34.729,21.302,34.188,21.354z"/>
	<path fill-rule="evenodd" clip-rule="evenodd" fill="#84220F" d="M27.632,11.844c0.005,0.091,0.01,0.182,0.016,0.273
		c0.081,0.183-0.012,0.389,0.077,0.57c0.009,0.164,0.018,0.329,0.026,0.493c0.072,0.204,0.027,0.416,0.038,0.624
		c-0.007,0.096-0.022,0.184-0.155,0.155c-0.17-0.646-0.322-1.295-0.33-1.969c-0.088-0.18,0.018-0.389-0.084-0.568
		c-0.24-1.504-0.284-3.013-0.115-4.527c0.015-0.136,0.039-0.302,0.123-0.394c0.485-0.525,0.494-1.085,0.219-1.713
		c-0.15-0.343-0.046-0.494,0.395-0.591c1.544-0.345,3.063-0.797,4.601-1.18c1.095-0.272,2.21-0.41,3.338-0.5
		c1.308-0.105,2.423,0.31,3.446,1.066c0.269,0.198,0.525,0.412,0.854,0.672c-0.154-0.549-0.469-0.936-0.721-1.372
		c1.004,0.23,1.909,1.302,1.904,2.258c-0.002,0.194,0.031,0.324,0.184,0.452c0.906,0.761,1.401,1.789,1.844,2.854
		c0.081,0.195,0.055,0.37,0.02,0.563c-0.303,1.663-0.702,3.305-1.105,4.946c-0.18,0-0.155-0.148-0.198-0.257
		c-0.362-0.909-1.371-1.155-2.118-0.514c-0.371,0.319-0.594,0.737-0.737,1.198c-0.075,0.241-0.169,0.461-0.476,0.589
		c0.078-1.331,0.055-2.632-0.039-3.934c-0.02-0.272-0.059-0.53-0.242-0.734c-0.412-0.458-0.529-0.98-0.504-1.594
		c0.033-0.81-0.3-1.22-0.996-1.504c-0.253-0.103-0.465-0.067-0.705,0.024c-1.136,0.431-2.283,0.817-3.502,0.953
		c-1.268,0.141-2.461-0.034-3.528-0.766c-0.233-0.16-0.368-0.102-0.541,0.059c-0.315,0.294-0.562,0.626-0.683,1.047
		c-0.26,0.9-0.436,1.812-0.395,2.754C27.633,11.456,27.513,11.669,27.632,11.844z"/>
	<path fill-rule="evenodd" clip-rule="evenodd" fill="#FEC09F" d="M40.304,46.622c-0.515,1.764-1.029,3.527-1.544,5.291
		c-0.202-0.162-0.102-0.389-0.129-0.586c-0.013-0.236,0.028-0.477-0.042-0.709c-0.021-0.066-0.051,0.018-0.046,0.021
		c0.136,0.123,0.08,0.291,0.084,0.443c0.01,0.422-0.002,0.842,0.007,1.264c-0.056,0.365-0.162,0.717-0.309,1.057
		c-0.309-0.344-0.549-0.732-0.756-1.145c-0.306-0.529-0.176-1.115-0.207-1.605c-0.061,0.408,0.077,0.895-0.008,1.377
		c-0.212-0.127-0.304-0.33-0.374-0.555c-0.222-0.707-0.339-1.43-0.368-2.174c-0.07-1.85,0.152-3.693,0.105-5.541
		c-0.039-1.509-0.234-3.007-0.383-4.509c-0.167-1.701-0.209-3.406,0.004-5.105c0.079-0.627-0.19-1.165-0.326-1.737
		c-0.151-0.631-0.367-1.247-0.453-1.894c0.393-0.025,0.785-0.05,1.178-0.076c0.219-0.076,0.446-0.014,0.668-0.045
		c0.133,0.036,0.193,0.146,0.248,0.256c0.955,1.937,1.915,3.871,3.201,5.621c0.131,0.932-0.053,1.854-0.11,2.777
		c-0.134,2.135-0.434,4.254-0.737,6.371C39.94,45.884,40.292,46.2,40.304,46.622z"/>
	<path fill-rule="evenodd" clip-rule="evenodd" fill="#E2E2E2" d="M59.043,82.163c-0.076,0.088-0.18,0.105-0.287,0.1
		c-1.125-0.064-2.244,0.109-3.367,0.107c-3.271-0.002-6.543,0.221-9.812,0.086c-1.706-0.07-3.41-0.021-5.112-0.1
		c-1.488-0.068-2.977-0.139-4.465-0.223c-0.527-0.031-1.084,0.025-1.601-0.172c0.109-0.145,0.274-0.16,0.43-0.152
		c1.058,0.043,2.062-0.211,3.05-0.543c0.854-0.285,1.736-0.455,2.616-0.629c0.705-0.139,1.351-0.301,1.376-1.201
		c0.053-0.049,0.108-0.051,0.166-0.006c0.176,0.336,0.477,0.35,0.809,0.35c3.886-0.008,7.769-0.006,11.653-0.006
		c0.598,0,1.195,0.025,1.779,0.168c0.248,0.119,0.135,0.314,0.096,0.488c-0.076,0.332-0.225,0.654-0.104,1.006
		c0.104,0.314,0.369,0.367,0.648,0.396c0.326,0.102,0.662,0.076,0.998,0.076C58.305,81.935,58.725,81.829,59.043,82.163z"/>
	<path fill-rule="evenodd" clip-rule="evenodd" fill="#2F5E8B" d="M35.78,76.874c0.361-0.277,0.695-0.588,0.961-0.959
		c0.133-0.188,0.298-0.287,0.521-0.307c0.106-0.109,0.245-0.148,0.387-0.125c0.828,0.141,1.677,0.215,2.265,0.957
		c0.353,0.443,0.833,0.559,1.375,0.336c0.211-0.088,0.429-0.184,0.646-0.004c0.23,0.885,0.214,1.77,0.017,2.656
		c-0.02-0.012-0.04-0.018-0.062-0.018c-0.084,0.234-0.262,0.365-0.488,0.445c-0.083,0.029-0.164,0.07-0.251,0.082
		c-1.837,0.223-3.579,0.906-5.407,1.15c-1.309,0.176-2.633,0.115-3.932-0.195c-0.24-0.059-0.473-0.141-0.684-0.273
		c-0.191-0.119-0.334-0.266-0.225-0.52c0.095-0.508,0.41-0.824,0.869-1.033c0.524-0.236,1.041-0.49,1.562-0.738
		c0.148-0.221,0.377-0.271,0.619-0.291c0.746-0.064,1.407,0.182,2.033,0.559c-0.44-0.281-0.916-0.471-1.43-0.562
		c-0.136-0.023-0.295-0.016-0.282-0.225c0.429-0.441,0.93-0.299,1.412-0.148c0.429,0.135,0.819,0.357,1.149,0.674
		c-0.345-0.336-0.762-0.553-1.211-0.705c-0.172-0.059-0.363-0.084-0.324-0.324c0.038-0.234,0.244-0.213,0.416-0.227
		c0.143-0.012,0.273,0.057,0.414,0.061c0.576,0.084,1.022,0.42,1.473,0.748c-0.395-0.281-0.769-0.605-1.267-0.705
		C36.155,77.069,35.819,77.239,35.78,76.874z"/>
	<path fill-rule="evenodd" clip-rule="evenodd" fill="#2F5E8B" d="M56.168,81.536c-0.217-0.539-0.006-1.018,0.205-1.496
		c0.006-0.352,0.309-0.443,0.535-0.586c0.369-0.234,0.787-0.389,1.127-0.676c0.332-0.369,0.766-0.537,1.236-0.633
		c0.312,0.008,0.627-0.031,0.932,0.018c-0.035-0.045-0.078-0.014-0.117-0.021c-0.34,0.018-0.68-0.041-1.014,0.039
		c-0.209,0.047-0.4,0.195-0.631,0.119c-0.051-0.031-0.078-0.076-0.082-0.135c0.15-0.541,0.545-0.781,1.068-0.861
		c0.053-0.002,0.104,0.004,0.154,0.014c0.338,0.088,0.678,0.066,1.02,0.031c0.041-0.014,0.082-0.023,0.121-0.031
		c0.145-0.045,0.012-0.074-0.01-0.109c-0.018-0.035-0.023-0.07-0.02-0.105c-0.387-0.021-0.777,0.068-1.16-0.051
		c-0.031-0.01-0.039-0.01-0.037-0.006c0.008,0.016,0.012,0.033,0.018,0.051c-0.004,0.025-0.006,0.047-0.01,0.072
		c-0.023,0.047-0.059,0.082-0.102,0.107c-0.068,0.021,0.018,0.008-0.051,0.016c-0.223,0.021-0.494,0.309-0.652,0.023
		c-0.131-0.232,0.111-0.445,0.305-0.605c0.156-0.117,0.332-0.191,0.518-0.25c0.656-0.18,1.322-0.133,1.879-0.047
		c0.176-0.055,0.1-0.152,0.121-0.086c0.008,0.02-0.002,0.027-0.012,0.035c-0.184,0.178-0.354-0.021-0.533-0.021
		c-0.521-0.002-1.043-0.012-1.551,0.135c-0.186,0.061-0.342,0.197-0.545,0.215c-0.123-0.051-0.156-0.162-0.182-0.277
		c0.047-0.516-0.23-1.031,0.002-1.545c0.566-0.689,1.18-1.246,2.193-1.01c0.705,0.166,1.164-0.246,1.523-0.795
		c0.123-0.189,0.189-0.422,0.43-0.514c0.756,0.504,1.303,1.221,1.906,1.881c0.188,0.242,0.082,0.48-0.043,0.691
		c-0.875,1.486-1.65,3.031-2.605,4.469c-0.326,0.488-0.762,0.875-1.318,1.105c-1.053,0.436-2.152,0.658-3.281,0.752
		c-0.297,0.023-0.615,0.051-0.885-0.09C56.363,81.224,56.283,81.39,56.168,81.536z"/>
	<path fill-rule="evenodd" clip-rule="evenodd" fill="#1C3651" d="M30.901,80.101c0.007,0.375,0.326,0.434,0.574,0.535
		c0.573,0.234,1.196,0.305,1.801,0.34c1.549,0.088,3.096,0.062,4.574-0.514c0.993-0.389,2.065-0.375,3.086-0.625
		c0.344-0.084,0.679-0.182,0.951-0.426c0.125,0.918,0.119,0.98-0.716,1.186c-1.565,0.387-3.13,0.768-4.681,1.213
		c-0.676,0.193-1.393,0.119-2.093,0.152c-1.022-0.045-2.039-0.148-3.046-0.34c-0.756-0.156-0.845-0.27-0.668-0.84
		C30.74,80.55,30.647,80.271,30.901,80.101z"/>
	<path fill-rule="evenodd" clip-rule="evenodd" fill="#1C3651" d="M56.168,81.536c0.012-0.154,0.023-0.309,0.039-0.488
		c0.811,0.473,1.631,0.213,2.438,0.125c0.346-0.039,0.68-0.156,1.021-0.229c1.303-0.281,2.217-1.031,2.842-2.211
		c0.648-1.221,1.369-2.404,2.057-3.604c0.125-0.217,0.219-0.441,0.189-0.699c0.732,0.447,0.803,0.74,0.34,1.535
		c-0.855,1.467-1.717,2.93-2.574,4.395c-0.035,0.334-0.258,0.545-0.52,0.691c-1.123,0.623-2.309,1.023-3.619,0.928
		c-0.52-0.053-1.041-0.027-1.562-0.037C56.535,81.915,56.262,81.868,56.168,81.536z"/>
	<path fill-rule="evenodd" clip-rule="evenodd" fill="#D2D2D2" d="M20.971,18.398c0.106,0.036,0.212,0.072,0.317,0.108
		c0.348,0.084,0.72-0.082,1.058,0.104c0.149,0.114,0.093,0.277,0.1,0.424c-0.041,0.175-0.115,0.344-0.099,0.529
		c0.176,0.1,0.361,0.106,0.559,0.079c0.933-0.129,1.836-0.028,2.716,0.32c0.253,0.1,0.221,0.221,0.127,0.397
		c-0.128,0.24-0.355,0.258-0.588,0.258c-0.841,0.001-1.681,0.001-2.521,0.001c-0.21,0-0.423-0.021-0.608,0.108
		c-0.133,0.137-0.182,0.34-0.354,0.446c-0.627,0.482-1.139,0.386-1.506-0.304c-0.102-0.192-0.232-0.344-0.389-0.488
		c-0.174-0.159-0.287-0.357-0.27-0.606C19.55,19.255,20.444,18.412,20.971,18.398z"/>
	<path fill-rule="evenodd" clip-rule="evenodd" fill="#E2E2E2" d="M58.4,81.937c1.117-0.068,2.186-0.324,3.199-0.805
		c0.377-0.178,0.646-0.475,0.92-0.771c1.289,0.105,2.584,0.166,3.84,0.523c0.166,0.049,0.41,0.078,0.424,0.258
		c0.018,0.236-0.24,0.264-0.42,0.316c-1.033,0.295-2.102,0.369-3.16,0.479c-0.783,0.082-1.57,0.178-2.363,0.119
		c-0.344,0.141-0.719-0.043-1.061,0.104c-0.246,0-0.49,0.002-0.736,0.004c-0.395-0.098-0.795-0.119-1.199-0.123
		C57.986,81.778,58.205,81.915,58.4,81.937z"/>
	<path fill-rule="evenodd" clip-rule="evenodd" fill="#0880A9" d="M39.989,17.012c0.262,0.004,0.525,0.024,0.787,0.009
		c0.447-0.027,0.615,0.229,0.477,0.585c-0.486,1.256-0.551,2.59-0.781,3.893c-0.172,0.972-0.644,1.676-1.665,1.852
		c-1.019,0.175-1.743-0.369-2.36-1.09c-0.146-0.17-0.24-0.385-0.359-0.579c0.014-0.021,0.027-0.041,0.041-0.062
		c0.122-0.103,0.26-0.143,0.418-0.098c0.073,0.024,0.141,0.059,0.207,0.099c0.303,0.209,0.535,0.504,0.855,0.696
		c0.805,0.481,1.446,0.3,1.876-0.531c0.397-0.768,0.466-1.612,0.59-2.444c0.026-0.173,0.021-0.355,0.081-0.52
		c0.23-0.63,0.186-1.189-0.378-1.632c-0.021-0.053-0.016-0.103,0.017-0.15C39.858,17.03,39.924,17.021,39.989,17.012z"/>
	<path fill-rule="evenodd" clip-rule="evenodd" fill="#E3A285" d="M36.622,21.663c-0.045-0.028-0.091-0.056-0.137-0.083
		c-0.215-0.076-0.402-0.195-0.553-0.368c-0.111-0.142-0.299-0.24-0.271-0.463c0.602-0.42,1.229-0.8,1.821-1.238
		c0.837-0.618,1.329-1.477,1.821-2.35c0.076-0.134,0.094-0.381,0.361-0.244c0.043,0.041,0.086,0.082,0.129,0.124
		c0.012,0.023,0.016,0.048,0.01,0.074c0.117,1.789-1.124,3.779-2.774,4.457C36.896,21.626,36.761,21.641,36.622,21.663z"/>
	<path fill-rule="evenodd" clip-rule="evenodd" fill="#8891A1" d="M62.848,72.55c-0.205,0.326-0.332,0.689-0.605,0.984
		c-0.371,0.4-0.818,0.625-1.318,0.473c-0.965-0.297-1.512,0.289-2.088,0.859c-0.174-0.256-0.445-0.475-0.326-0.844
		c1.078-0.5,2.156-0.998,3.102-1.74c0.264-0.209,0.494-0.441,0.709-0.693C62.357,71.985,62.48,72.335,62.848,72.55z"/>
	<path fill-rule="evenodd" clip-rule="evenodd" fill="#8892A1" d="M41.819,76.747c-0.366,0.043-0.662,0.34-1.043,0.311
		c-0.341-0.023-0.684-0.135-0.881-0.416c-0.654-0.939-1.664-0.926-2.634-1.033c0.022-0.141,0.075-0.281-0.017-0.416
		c1.327,0.188,2.656,0.289,3.994,0.115c0.155-0.02,0.315-0.004,0.474-0.004C41.946,75.771,41.847,76.261,41.819,76.747z"/>
	<path fill-rule="evenodd" clip-rule="evenodd" fill="#FDFDFD" d="M20.971,18.398c-0.591,0.103-0.8,0.657-1.177,1.01
		c-0.127,0.119-0.271,0.347-0.149,0.522c0.317,0.459,0.63,0.94,1.034,1.314c0.346,0.32,0.717,0.023,1.035-0.203
		c0.062,0.074,0.061,0.147-0.004,0.22c-0.031,0.032-0.064,0.065-0.096,0.097c-0.443,0.29-0.898,0.416-1.385,0.099
		c-0.031-0.031-0.062-0.063-0.095-0.095c-0.282-0.339-0.349-0.79-0.772-1.085c-0.452-0.315-0.31-0.794,0.236-1.245l-0.003,0.001
		c0.14-0.067,0.18-0.209,0.251-0.328c0.317-0.524,0.561-0.59,1.127-0.306L20.971,18.398z"/>
	<path fill-rule="evenodd" clip-rule="evenodd" fill="#DCDFE2" d="M35.78,76.874c0.155,0.227,0.408,0.176,0.627,0.219
		c-0.002,0.205-0.126,0.143-0.236,0.109c-0.266,0.027-0.701-0.17-0.76,0.096c-0.074,0.336,0.408,0.238,0.629,0.367
		c0.418,0.244,0.85,0.455,1.111,0.916c-0.889-0.502-1.699-1.281-2.843-0.752c-0.044,0.055-0.087,0.055-0.128-0.002
		c-0.092-0.133,0.029-0.217,0.104-0.236C34.831,77.448,35.198,76.937,35.78,76.874z"/>
	<path fill-rule="evenodd" clip-rule="evenodd" fill="#BDBDBD" d="M18.71,21.663c-0.285-0.077-0.494-0.238-0.493-0.573
		c0.002-0.318,0.204-0.499,0.493-0.509c0.322-0.012,0.545,0.193,0.547,0.517C19.259,21.417,19.034,21.593,18.71,21.663z"/>
	<path fill-rule="evenodd" clip-rule="evenodd" fill="#E3E3E3" d="M30.685,80.782c-0.076,0.518,0.281,0.691,0.668,0.84
		c-0.418,0.074-0.795-0.09-1.176-0.215c-0.129-0.043-0.301-0.078-0.301-0.25s0.171-0.209,0.301-0.25
		C30.342,80.854,30.515,80.823,30.685,80.782z"/>
	<path fill-rule="evenodd" clip-rule="evenodd" fill="#D6DCE1" d="M34.181,77.827c0.043,0,0.085,0.002,0.128,0.002
		c0.38,0.219,0.843,0.168,1.229,0.387c0.312,0.178,0.637,0.328,0.82,0.689c-0.733-0.471-1.499-0.803-2.377-0.777
		c-0.056-0.188,0.174-0.105,0.202-0.213C34.181,77.886,34.18,77.856,34.181,77.827z"/>
	<path fill-rule="evenodd" clip-rule="evenodd" fill="#DFDFDF" d="M21.71,21.262c0.002-0.074,0.003-0.147,0.004-0.22
		c0.045-0.166,0.154-0.268,0.316-0.315c0.212,0.193,0.471,0.094,0.706,0.098c0.856,0.013,1.714,0.005,2.571,0.114
		c-0.908,0-1.816,0.012-2.723-0.006C22.235,20.924,21.928,20.954,21.71,21.262z"/>
	<path fill-rule="evenodd" clip-rule="evenodd" fill="#E8A580" d="M37.354,52.03c-0.123-0.611-0.126-1.223-0.01-1.838
		c0.225,0.676,0.008,1.395,0.225,2.066C37.498,52.183,37.427,52.106,37.354,52.03z"/>
	<path fill-rule="evenodd" clip-rule="evenodd" fill="#E1E1E1" d="M19.599,19.034c-0.598,0.77-0.571,0.897,0.172,1.5
		c0.242,0.196,0.241,0.552,0.364,0.83c-0.306-0.391-0.608-0.783-0.934-1.161C18.851,19.795,19.075,19.273,19.599,19.034z"/>
	<path fill-rule="evenodd" clip-rule="evenodd" fill="#E1E1E1" d="M22.347,19.563c-0.172-0.214,0.02-0.361,0.099-0.529
		c-0.019,0.311,0.185,0.32,0.415,0.318c0.742-0.006,1.486-0.002,2.229,0.105c-0.732,0-1.465-0.005-2.197,0.003
		C22.708,19.463,22.501,19.388,22.347,19.563z"/>
	<path fill-rule="evenodd" clip-rule="evenodd" fill="#BDBDBD" d="M22.146,17.725c0.044-0.205,0.16-0.29,0.339-0.28
		c0.214,0.012,0.307,0.147,0.288,0.348c-0.017,0.178-0.123,0.294-0.311,0.266C22.269,18.031,22.177,17.888,22.146,17.725z"/>
	<path fill-rule="evenodd" clip-rule="evenodd" fill="#F8F8F8" d="M22.346,18.61c-0.013,0.087-0.026,0.188-0.147,0.108
		c-0.24-0.158-0.477-0.152-0.723-0.02c-0.271,0.145-0.156-0.097-0.188-0.192c0.035-0.034,0.07-0.067,0.105-0.101
		c0.306-0.155,0.597-0.181,0.852,0.102C22.278,18.541,22.312,18.576,22.346,18.61z"/>
	<path fill-rule="evenodd" clip-rule="evenodd" fill="#E2E2E2" d="M20.974,18.401c-0.536-0.226-0.916-0.071-1.136,0.467
		c-0.045,0.11-0.125,0.165-0.242,0.167c0.217-0.395,0.331-0.899,0.951-0.852C20.727,18.198,20.891,18.211,20.974,18.401z"/>
	<path fill-rule="evenodd" clip-rule="evenodd" fill="#DCDFE2" d="M34.183,77.915c-0.068,0.07-0.135,0.143-0.202,0.213
		c-0.216,0.068-0.432,0.135-0.647,0.201c-0.128-0.27,0.104-0.252,0.248-0.318C33.774,77.919,33.981,77.942,34.183,77.915z"/>
	<path fill-rule="evenodd" clip-rule="evenodd" fill="#E1E1E1" d="M20.229,21.458c0.479,0.223,0.934,0.08,1.384-0.099
		C21.179,21.777,20.631,21.816,20.229,21.458z"/>
	<path fill-rule="evenodd" clip-rule="evenodd" fill="#E6E6E6" d="M22.245,18.507c-0.27-0.163-0.564-0.097-0.852-0.102
		C21.724,18.041,22.005,18.105,22.245,18.507z"/>
	<path fill-rule="evenodd" clip-rule="evenodd" fill="#D7D7D7" d="M23.8,17.671c0.104,0.012,0.193,0.064,0.2,0.185
		s-0.07,0.197-0.19,0.188c-0.118-0.008-0.179-0.098-0.181-0.213C23.627,17.731,23.688,17.677,23.8,17.671z"/>
	<path fill-rule="evenodd" clip-rule="evenodd" fill="#D7D7D7" d="M18.739,19.639c-0.008,0.099-0.061,0.189-0.178,0.201
		c-0.12,0.012-0.197-0.065-0.192-0.184c0.005-0.117,0.091-0.18,0.206-0.185C18.675,19.467,18.73,19.524,18.739,19.639z"/>
	<path fill-rule="evenodd" clip-rule="evenodd" fill="#E2E2E2" d="M59.779,82.159c0.336-0.213,0.707-0.059,1.061-0.104
		C60.502,82.263,60.131,82.116,59.779,82.159z"/>
	<path fill-rule="evenodd" clip-rule="evenodd" fill="#B97A65" d="M27.634,13.959c0.039-0.026,0.078-0.053,0.117-0.079
		c0.008-0.044,0.032-0.059,0.074-0.04c0.016,0.222,0.094,0.452-0.083,0.649C27.636,14.327,27.613,14.147,27.634,13.959z"/>
	<path fill-rule="evenodd" clip-rule="evenodd" fill="#DCDCDC" d="M21.335,17.405c-0.021,0.077-0.077,0.123-0.152,0.106
		c-0.037-0.009-0.082-0.065-0.089-0.105c-0.013-0.075,0.03-0.142,0.112-0.138C21.28,17.271,21.327,17.326,21.335,17.405z"/>
	<path fill-rule="evenodd" clip-rule="evenodd" fill="#862916" d="M27.22,11.422c0.164,0.169,0.08,0.375,0.084,0.568
		C27.211,11.811,27.205,11.618,27.22,11.422z"/>
	<path fill-rule="evenodd" clip-rule="evenodd" fill="#FEC09F" d="M49.73,52.341c0.209,0.277,0.424,0.549,0.623,0.832
		c0.162,0.227,0.193,0.48,0.084,0.742c-0.129,0.314-0.375-0.059-0.533,0.088c-0.805-0.539-1.561-1.125-1.951-2.059
		c-0.111-0.271-0.207-0.549-0.311-0.824c-0.086-0.184-0.062-0.412-0.264-0.607c0.205,0.225,0.184,0.479,0.285,0.686
		c0.105,0.279,0.207,0.561,0.314,0.84c0.316,0.709,0.816,1.305,1.219,1.959c0.156,0.254,0.324,0.506,0.326,0.82
		c0.002,0.227-0.086,0.412-0.301,0.512c-0.193,0.092-0.342-0.021-0.469-0.143c-0.416-0.4-0.846-0.789-1.178-1.27
		c-0.055-0.061-0.068-0.148-0.129-0.205c0.061,0.133,0.133,0.26,0.168,0.404c0.037,0.35,0.111,0.771-0.287,0.908
		c-0.42,0.143-0.588-0.273-0.754-0.568c-0.17-0.299-0.406-0.572-0.4-0.945c-1.023-1.908-0.533-3.949-0.514-5.945
		c0.008-0.877,0.082-1.752,0.127-2.627c-0.166-0.258-0.141-0.543-0.107-0.822c0.219-1.83-0.062-3.651-0.09-5.478
		c-0.018-1.303,0.062-2.602,0.24-3.891c0.092-0.672,0.119-1.329-0.041-1.989c-0.057-0.412-0.17-0.813-0.221-1.226
		c-0.023-0.2-0.102-0.413,0.07-0.593c0.621-0.227,1.279-0.149,1.916-0.193c0.908-0.063,1.809-0.153,2.711-0.261
		c0.205-0.025,0.418-0.092,0.604,0.067c-0.184,2.065-0.352,4.132-0.549,6.196c-0.268,2.785-0.744,5.538-1.309,8.276
		c-0.023,0.119-0.021,0.244-0.031,0.367c-0.078,0.111-0.098,0.219-0.016,0.34c0.521,0.764,0.561,1.648,0.664,2.523
		c0.072,0.609,0.189,1.215,0.287,1.822c0.107,0.662,0.379,1.24,0.855,1.719c0.098,0.1,0.182,0.217,0.248,0.338
		c0.105,0.191,0.182,0.43,0.006,0.588c-0.197,0.182-0.342-0.049-0.486-0.16c-0.264-0.205-0.527-0.412-0.789-0.617
		c-0.471-0.184-0.529-0.652-0.719-1.031c-0.105-0.23-0.201-0.465-0.246-0.645c0.029,0.207,0.156,0.453,0.264,0.705
		C49.215,51.46,49.486,51.894,49.73,52.341z"/>
	<path fill-rule="evenodd" clip-rule="evenodd" fill="#67B8E0" d="M45.641,30.978c0.092,0.566,0.184,1.131,0.275,1.697
		c-0.148,0.168-0.35,0.233-0.557,0.274c-1.743,0.341-3.489,0.632-5.275,0.4c-0.175-0.022-0.345-0.06-0.513-0.112
		c-0.203-0.054-0.313-0.209-0.411-0.379c-0.462-0.805-0.933-1.605-1.38-2.419c-0.444-0.792-0.925-1.565-1.335-2.378
		c-0.037-0.115-0.149-0.224-0.033-0.354c1.159,0.199,2.315,0.24,3.497,0.143c1.466-0.122,2.854-0.489,4.22-0.999
		c0.235,0.001,0.217,0.202,0.241,0.338c0.159,0.876,0.38,1.746,0.462,2.631c0.049,0.549,0.205,0.936,0.764,1.086
		C45.611,30.93,45.625,30.954,45.641,30.978z"/>
	<path fill-rule="evenodd" clip-rule="evenodd" fill="#E1A386" d="M50.869,30.554c-1.732,0.275-3.475,0.422-5.229,0.424
		l-0.045-0.001c-0.158-0.348-0.027-0.467,0.334-0.472c0.848-0.013,1.699,0.06,2.545-0.041c0.791-0.024,1.572-0.101,2.328-0.346
		c0.277,0.084,0.174,0.266,0.113,0.438L50.869,30.554z"/>
	<path fill-rule="evenodd" clip-rule="evenodd" fill="#669CBC" d="M48.475,30.464c-0.803,0.181-1.617,0.088-2.428,0.089
		c-0.326,0.001-0.498,0.07-0.451,0.424c-0.584-0.017-0.791-0.294-0.859-0.899c-0.123-1.084-0.307-2.169-0.607-3.227
		c0.003-0.033,0.006-0.066,0.01-0.1c0.085-0.08,0.163-0.18,0.301-0.098c0.158,0.909,0.316,1.818,0.477,2.727
		c0.006,0.034,0.025,0.066,0.033,0.1c0.191,0.973,0.191,0.973,1.213,0.976C46.934,30.458,47.705,30.461,48.475,30.464z"/>
	<path fill-rule="evenodd" clip-rule="evenodd" fill="#4289B0" d="M35.661,20.748c0.109,0.125,0.219,0.251,0.329,0.377
		c0.058,0.179,0.248,0.331,0.114,0.55l-0.018,0.007c-0.66,0.051-1.293-0.065-1.899-0.327C34.67,21.131,35.146,20.893,35.661,20.748z
		"/>
	<path fill-rule="evenodd" clip-rule="evenodd" fill="#3B8EBB" d="M51,22.843c0.184,1.299,0.406,2.595,0.424,3.912
		c-0.117,0.635-0.016,1.275-0.059,1.912c-0.012,0.141,0.135,0.364-0.15,0.414c-0.012-1.474,0.043-2.949-0.111-4.418
		c-0.059-0.572-0.137-1.143-0.207-1.714C50.854,22.835,50.906,22.818,51,22.843z"/>
	<path fill-rule="evenodd" clip-rule="evenodd" fill="#3F89B3" d="M36.513,28.023c0.455,0.779,0.91,1.558,1.367,2.336
		c-0.119,0.117-0.252,0.173-0.414,0.089c-0.243-0.003-0.486-0.006-0.729-0.009c0.147-0.169,0.375-0.027,0.566-0.145
		c-0.299-0.724-0.598-1.445-0.895-2.166C36.366,28.018,36.419,28,36.513,28.023z"/>
	<path fill-rule="evenodd" clip-rule="evenodd" fill="#4088B1" d="M51.215,29.08c0.223-0.496,0.043-1.02,0.105-1.526
		c0.033-0.266-0.102-0.555,0.104-0.799c0,0.981-0.02,1.963,0.012,2.943c0.012,0.429-0.115,0.711-0.52,0.858
		c-0.049-0.143,0.047-0.324-0.113-0.438C51.328,29.925,51.195,29.472,51.215,29.08z"/>
	<path fill-rule="evenodd" clip-rule="evenodd" fill="#3C8AB4" d="M44.439,26.653c-0.101,0.033-0.201,0.065-0.302,0.098
		c0.001-0.912,0.001-1.824,0.001-2.736C44.219,24.899,44.275,25.782,44.439,26.653z"/>
	<path fill-rule="evenodd" clip-rule="evenodd" fill="#379ACC" d="M51,22.843c-0.033,0.035-0.068,0.069-0.104,0.104
		c-0.174-0.305-0.121-0.644-0.162-0.971C50.941,22.235,50.945,22.546,51,22.843z"/>
	<path fill-rule="evenodd" clip-rule="evenodd" fill="#3C94C2" d="M36.513,28.023c-0.035,0.035-0.07,0.071-0.104,0.106
		c-0.104-0.208-0.207-0.416-0.318-0.642c0.224-0.039,0.194,0.191,0.321,0.22C36.445,27.812,36.479,27.918,36.513,28.023z"/>
	<path fill-rule="evenodd" clip-rule="evenodd" fill="#35A2D7" d="M39.464,33.096c2.078,0.394,4.115,0.078,6.144-0.367
		c0.102-0.022,0.205-0.036,0.309-0.054c0.375,0.936,0.088,1.873-0.018,2.803c-0.221,1.963-0.115,3.925-0.029,5.888
		c0.053,1.195,0.047,2.383-0.082,3.573c-1.152-0.275-2.25-0.75-3.441-0.883c-0.452-0.051-0.862,0.043-1.284,0.145
		c-0.388-0.154-0.229-0.459-0.172-0.707c0.118-0.494,0.317-0.966,0.453-1.457c0.151-0.542,0.302-1.082,0.318-1.65
		c0.006-0.17,0.004-0.362,0.215-0.438c0.148,0.122,0.062,0.284,0.086,0.428c-0.045-0.621-0.143-1.237-0.155-1.86
		c0-0.008-0.019-0.022-0.028-0.022c-0.016,0-0.033,0.009-0.051,0.013c-0.123-0.069-0.143-0.194-0.164-0.314
		c-0.161-0.853-0.553-1.619-0.898-2.401c-0.349-0.73-0.696-1.459-1.098-2.163C39.475,33.466,39.334,33.305,39.464,33.096z"/>
	<path fill-rule="evenodd" clip-rule="evenodd" fill="#F4DAC8" d="M38.634,52.347c-0.246-0.619-0.021-1.26-0.156-2.006
		c0.306,0.359,0.255,0.662,0.248,0.957c-0.076,0.275-0.06,0.555-0.012,0.832C38.688,52.202,38.661,52.274,38.634,52.347z"/>
	<path fill-rule="evenodd" clip-rule="evenodd" fill="#FBF6F0" d="M38.714,52.13c-0.125-0.279-0.148-0.557,0.013-0.832
		c0.011,0.205,0.022,0.41,0.033,0.615C38.745,51.985,38.729,52.058,38.714,52.13z"/>
	<path fill-rule="evenodd" clip-rule="evenodd" fill="#FBF6F1" d="M49.73,52.341c-0.457-0.34-0.627-0.836-0.748-1.361
		c-0.045-0.113,0.012-0.133,0.107-0.113c0.195,0.375,0.365,0.766,0.66,1.08C49.742,52.077,49.736,52.21,49.73,52.341z"/>
	<path fill-rule="evenodd" clip-rule="evenodd" fill="#701709" d="M32.18,18.19c0.577,0.096,0.983,0.431,1.269,0.924
		c0.076,0.131,0.168,0.293,0.045,0.439c-0.113,0.136-0.266,0.036-0.395,0.006c-0.391-0.091-0.779-0.195-1.17-0.294
		c0.08-0.096,0.177-0.082,0.277-0.053c-0.15-0.049-0.306-0.008-0.459-0.021c-0.051-0.004-0.104,0.006-0.154-0.011
		c0.014,0.049,0.087,0.03,0.096,0.084c-0.262,0.093-0.521,0.189-0.783,0.28c-0.318,0.111-0.445-0.025-0.358-0.329
		c0.147-0.514,0.45-0.894,1.001-1.021C31.759,18.2,31.97,18.21,32.18,18.19z"/>
	<path fill-rule="evenodd" clip-rule="evenodd" fill="#FEF2EA" d="M36.72,11.849c-0.076-0.885,0.123-1.704,0.58-2.497
		c0.425,0.621,0.6,1.3,0.664,1.997c0.062,0.673-0.363,0.977-1.039,0.812C36.802,12.093,36.665,12.034,36.72,11.849z"/>
	<path fill-rule="evenodd" clip-rule="evenodd" fill="#4C0C03" d="M36.72,11.849c0.068,0.104,0.137,0.207,0.205,0.311
		c-1.244,0.398-2.268-0.121-3.242-0.801c-0.248-0.174-0.183-0.475-0.043-0.667c0.172-0.237,0.342,0.029,0.469,0.119
		C34.898,11.368,35.738,11.783,36.72,11.849z"/>
	<path fill-rule="evenodd" clip-rule="evenodd" fill="#E0956C" d="M41.044,14.642c-0.014,0.51-0.455,1.103-0.922,1.267
		c-0.156,0.055-0.309,0.09-0.446-0.029c-0.135-0.117-0.054-0.251-0.027-0.389c0.07-0.366,0.22-0.702,0.352-1.045
		c0.103-0.265,0.182-0.583,0.55-0.516C40.929,14,40.979,14.349,41.044,14.642z"/>
	<path fill-rule="evenodd" clip-rule="evenodd" fill="#4C0D04" d="M28.436,12.189c-0.105-0.007-0.212-0.009-0.315-0.023
		c-0.154-0.022-0.357-0.048-0.373-0.218c-0.017-0.188,0.205-0.15,0.324-0.179c0.611-0.15,1.138-0.438,1.595-0.873
		c0.108-0.103,0.221-0.416,0.424-0.176c0.156,0.185,0.292,0.46,0.025,0.704C29.638,11.862,29.111,12.189,28.436,12.189z"/>
	<path fill-rule="evenodd" clip-rule="evenodd" fill="#914340" d="M34.759,14.477c-0.457-0.03-0.924-0.197-1.279-0.609
		c-0.066-0.077-0.164-0.164-0.08-0.272c0.084-0.109,0.176-0.043,0.271,0.021c1.084,0.734,1.442,0.737,2.499,0.028
		c0.099-0.066,0.2-0.196,0.312-0.06c0.105,0.13-0.027,0.217-0.111,0.303C36.042,14.222,35.358,14.484,34.759,14.477z"/>
	<path fill-rule="evenodd" clip-rule="evenodd" fill="#924340" d="M29.257,14.482c-0.491-0.024-0.865-0.256-1.146-0.648
		c-0.064-0.09-0.1-0.203,0.015-0.276c0.083-0.053,0.155,0.011,0.228,0.071c0.857,0.713,1.057,0.716,1.92,0.022
		c0.082-0.066,0.16-0.173,0.264-0.093c0.135,0.103,0.046,0.221-0.035,0.315C30.175,14.253,29.746,14.428,29.257,14.482z"/>
	<path fill-rule="evenodd" clip-rule="evenodd" fill="#C67A61" d="M31.222,14.938c0.092,0.234-0.052,0.399-0.135,0.578
		c-0.241,0.526-0.183,0.646,0.399,0.767c0.078,0.016,0.176-0.017,0.258,0.17c-0.386,0.071-0.736-0.005-0.902-0.306
		C30.567,15.648,31.046,15.329,31.222,14.938z"/>
	<path fill-rule="evenodd" clip-rule="evenodd" fill="#6D150A" d="M31.688,19.265c-0.082-0.013-0.164-0.025-0.246-0.038
		c0.004-0.021,0.007-0.041,0.011-0.062c0.274,0,0.548,0,0.823,0c0.002,0.018,0.002,0.035,0.004,0.052
		c-0.117,0.016-0.234,0.032-0.352,0.048C31.849,19.265,31.769,19.265,31.688,19.265z"/>
	<path fill-rule="evenodd" clip-rule="evenodd" fill="#630900" d="M32.18,18.19c-0.21,0.158-0.421,0.155-0.632,0.004
		C31.758,18.086,31.968,18.091,32.18,18.19z"/>
	<path fill-rule="evenodd" clip-rule="evenodd" fill="#862916" d="M27.825,13.84c-0.026,0.01-0.051,0.023-0.074,0.04
		c0-0.233,0-0.466,0-0.7C27.86,13.391,27.807,13.62,27.825,13.84z"/>
	<path fill-rule="evenodd" clip-rule="evenodd" fill="#862916" d="M27.725,12.688c-0.157-0.172-0.073-0.377-0.077-0.57
		C27.748,12.297,27.737,12.492,27.725,12.688z"/>
	<path fill-rule="evenodd" clip-rule="evenodd" fill="#862916" d="M27.632,11.844c-0.177-0.165-0.085-0.374-0.092-0.567
		C27.642,11.455,27.632,11.65,27.632,11.844z"/>
	<path fill-rule="evenodd" clip-rule="evenodd" fill="#E2A285" d="M40.771,35.761c-0.012,0.132-0.024,0.264-0.037,0.396
		c-0.542-0.487-0.888-1.118-1.249-1.733c-0.753-1.284-1.444-2.601-2.019-3.976c0.138-0.03,0.275-0.06,0.414-0.089
		c0.527,0.912,1.056,1.824,1.584,2.736C39.859,34.004,40.421,34.83,40.771,35.761z"/>
	<path fill-rule="evenodd" clip-rule="evenodd" fill="#0F2944" d="M58.4,81.937c-0.186,0.033-0.371,0.068-0.557,0.104
		c-0.34-0.055-0.693,0.053-1.025-0.098C57.346,81.774,57.873,81.786,58.4,81.937z"/>
	<path fill-rule="evenodd" clip-rule="evenodd" fill="#D5DAE1" d="M36.171,77.202c0.09-0.014,0.182-0.02,0.236-0.109
		c0.637,0.18,1.141,0.557,1.539,1.094C37.368,77.827,36.815,77.427,36.171,77.202z"/>
	<path fill-rule="evenodd" clip-rule="evenodd" fill="#D6DADE" d="M58.432,78.147c-0.086-0.043-0.166-0.137-0.109-0.201
		c0.387-0.43,0.176-1.047,0.484-1.496c0.031,0.078,0.008,0.186,0.127,0.211c0.059,0.012,0.094,0.047,0.105,0.107
		c-0.104,0.178-0.291,0.309-0.309,0.564c0.25-0.047,0.492-0.092,0.734-0.137c0.029,0.027,0.047,0.062,0.053,0.102
		c-0.006,0.041-0.027,0.072-0.062,0.094C58.967,77.444,58.662,77.745,58.432,78.147z"/>
	<path fill-rule="evenodd" clip-rule="evenodd" fill="#D2D9DF" d="M59.346,76.444c0.752-0.324,1.506-0.217,2.264,0.006
		c-0.719-0.006-1.438-0.029-2.146,0.107C59.42,76.522,59.355,76.511,59.346,76.444z"/>
	<path fill-rule="evenodd" clip-rule="evenodd" fill="#F3F1EF" d="M58.082,78.872c-0.203-0.375,0.143-0.459,0.33-0.629
		c0.199-0.039,0.396-0.08,0.594-0.119c0.109-0.021,0.244-0.09,0.242,0.119C58.785,78.315,58.418,78.565,58.082,78.872z"/>
	<path fill-rule="evenodd" clip-rule="evenodd" fill="#D7DCE2" d="M59.248,78.243c-0.082-0.041-0.162-0.08-0.242-0.119
		c0.391-0.16,0.795-0.1,1.197-0.072c0.16,0.1,0.359-0.031,0.514,0.092C60.244,78.419,59.734,78.169,59.248,78.243z"/>
	<path fill-rule="evenodd" clip-rule="evenodd" fill="#EAECEE" d="M59.465,77.315c0-0.039,0-0.08,0-0.119l-0.012-0.018
		c0.43-0.148,0.857-0.143,1.287-0.004c0.131,0.043,0.307-0.043,0.402,0.135c-0.119,0.174-0.279,0.061-0.414,0.076
		C60.305,77.39,59.879,77.466,59.465,77.315z"/>
	<path fill-rule="evenodd" clip-rule="evenodd" fill="#2E5A87" d="M59.486,77.099c0.059-0.258,0.258-0.102,0.379-0.111
		c0.354-0.025,0.709-0.008,1.084-0.008c-0.064,0.145-0.168,0.09-0.24,0.115C60.303,77.161,59.895,77.157,59.486,77.099z"/>
	<path fill-rule="evenodd" clip-rule="evenodd" fill="#8A9FB4" d="M59.486,77.099c0.408-0.002,0.816-0.002,1.223-0.004
		c0.012,0.025,0.023,0.053,0.031,0.08c-0.428,0.002-0.857,0.004-1.287,0.004C59.463,77.151,59.475,77.124,59.486,77.099z"/>
	<path fill-rule="evenodd" clip-rule="evenodd" fill="#95A7BB" d="M59.465,77.315c0.422,0.006,0.85-0.1,1.264,0.07l-0.002,0.047
		c-0.383,0.027-0.768,0.047-1.148-0.01c-0.041-0.012-0.082-0.021-0.123-0.031C59.461,77.366,59.465,77.341,59.465,77.315z"/>
	<path fill-rule="evenodd" clip-rule="evenodd" fill="#245280" d="M59.578,77.423c0.383,0.002,0.766,0.006,1.148,0.01
		C60.342,77.548,59.959,77.563,59.578,77.423z"/>
	<path fill-rule="evenodd" clip-rule="evenodd" fill="#FEFEFE" d="M59.346,76.444c0.039,0.037,0.078,0.076,0.117,0.113
		c-0.143,0.07-0.283,0.141-0.424,0.211c-0.035-0.037-0.07-0.072-0.105-0.107C59.041,76.532,59.184,76.47,59.346,76.444z"/>
	<path fill-rule="evenodd" clip-rule="evenodd" fill="#C4CED8" d="M60.717,78.144c-0.172-0.021-0.363,0.057-0.514-0.092
		C60.381,78.048,60.564,78.005,60.717,78.144z"/>
	<path fill-rule="evenodd" clip-rule="evenodd" fill="#FEC09F" d="M36.622,21.663c0.303-0.173,0.612-0.334,0.905-0.521
		c1.351-0.861,2.015-2.128,2.159-3.696c0.012-0.123,0.004-0.247,0.117-0.332c0.029,0.019,0.059,0.037,0.088,0.057
		c0.486,0.338,0.691,0.711,0.473,1.359c-0.221,0.656-0.237,1.38-0.349,2.074c-0.073,0.455-0.224,0.886-0.433,1.295
		c-0.422,0.829-1.19,1.06-1.982,0.562C37.247,22.238,36.947,21.932,36.622,21.663z"/>
	<path fill-rule="evenodd" clip-rule="evenodd" fill="#22718E" d="M36.104,21.674c-0.04-0.183-0.151-0.351-0.114-0.55
		c0.186,0.129,0.37,0.259,0.495,0.455C36.358,21.611,36.231,21.643,36.104,21.674z"/>
	<path fill-rule="evenodd" clip-rule="evenodd" fill="#FBF0E5" d="M48.025,51.931c-0.033,0.033-0.066,0.068-0.098,0.102
		c-0.176-0.258-0.227-0.561-0.314-0.85c-0.039-0.111,0.01-0.131,0.104-0.102C47.82,51.364,47.924,51.647,48.025,51.931z"/>
	<path fill-rule="evenodd" clip-rule="evenodd" fill="#FBF0E4" d="M49.09,50.866c-0.035,0.037-0.072,0.076-0.107,0.113
		c-0.162-0.232-0.201-0.502-0.201-0.795C48.885,50.411,48.988,50.64,49.09,50.866z"/>
	<path fill-rule="evenodd" clip-rule="evenodd" fill="#FADCC8" d="M47.717,51.081c-0.033,0.033-0.068,0.066-0.104,0.102
		c-0.15-0.182-0.127-0.414-0.258-0.738C47.637,50.673,47.621,50.907,47.717,51.081z"/>
	<path fill-rule="evenodd" clip-rule="evenodd" fill="#FDF5EE" d="M47.619,53.821c-0.092,0.047-0.104,0.135-0.113,0.225
		c-0.086-0.191-0.172-0.383-0.295-0.658C47.455,53.532,47.533,53.681,47.619,53.821z"/>
	<path fill-rule="evenodd" clip-rule="evenodd" fill="#339ED2" d="M41.892,39.938c-0.035-0.473-0.07-0.945-0.104-1.417
		c0.035-0.031,0.067-0.228,0.104-0.067c0.15,0.669,0.154,1.353,0.041,2.039C41.919,40.308,41.905,40.123,41.892,39.938z"/>
</g>
</svg>
