<?xml version="1.0" encoding="utf-8"?>
<!-- Generator: Adobe Illustrator 16.0.0, SVG Export Plug-In . SVG Version: 6.00 Build 0)  -->
<!DOCTYPE svg PUBLIC "-//W3C//DTD SVG 1.1//EN" "http://www.w3.org/Graphics/SVG/1.1/DTD/svg11.dtd">
<svg version="1.1" id="Layer_1" xmlns="http://www.w3.org/2000/svg" xmlns:xlink="http://www.w3.org/1999/xlink" x="0px" y="0px"
	 width="85px" height="85px" viewBox="0 0 85 85" enable-background="new 0 0 85 85" xml:space="preserve">
<g>
	<path fill="#A98A75" d="M15.384,26.67c0.52,0.42,0.91,0.98,1.119,1.61c0.18,0.5,0.279,1.03,0.301,1.56l-6.92,6.64
		c-0.6,0.351-1.471,0.28-2.27,0.021c-0.439-0.15-0.84-0.41-1.16-0.761c-0.18-0.18-0.311-0.409-0.381-0.649l-0.049-0.021
		c-0.479-0.149-0.939-0.34-1.391-0.569c-0.51-0.281-0.52-0.75-0.369-0.979c0.18-0.22,0.391-0.42,0.629-0.58
		c0.75-0.601,1.58-2.62,1.961-3.5c0.379-0.88,0.719-1.79,1.309-2.54c0.842-1.029,2.15-1.54,3.471-1.359l1.529,0.289
		c0.801,0.041,1.561,0.33,2.189,0.82L15.384,26.67z"/>
	<path fill="#FFFFFF" d="M58.784,61.826c-4.299-0.891-8.656-1.781-12.275-2.531c-0.312-1.229-1.102-2.289-2.189-2.938
		c2.408-3.56,6.969-10.317,10.078-14.929l-4.461-0.489c0.021-0.06,0.041-0.13,0.061-0.2c0.121-0.4,0.422-0.72,0.82-0.859
		c0.131-0.041,0.26-0.07,0.391-0.101c2.949,0.32,6.85,0.75,8.998,0.979v0.271c-0.32-0.01-0.631,0.07-0.898,0.22
		c-0.24,0.16-0.441,0.381-0.562,0.641c-0.76-0.08-1.607-0.18-2.498-0.27c-1.84,2.719-5.061,7.488-7.469,11.067
		c0.449,1.46,1.119,3.64,1.58,5.119c5.299,1.09,11.447,2.358,16.787,3.448c-0.941,0.34-1.75,0.971-2.32,1.801
		C62.876,62.664,60.835,62.244,58.784,61.826z"/>
	<path fill="#FFFFFF" d="M36.979,53.437c-0.049-0.12-0.119-0.3-0.15-0.39l-0.318,0.029c-0.34,0.051-0.689-0.09-0.9-0.369
		c-1.379-1.381-2.299-2.291-3.93-3.92c-2.248,1.041-4.008,2.66-5.688,3.959c0.148,0.23,0.25,0.391,0.25,0.391
		c0.398,0.63,2.061,2.828,2.43,3.498c0.201,0.311,0.34,0.66,0.43,1.021c0.041,0.19,0.031,0.39-0.02,0.57l0.199,0.069
		c0.539,0.19,1.09,0.34,1.66,0.44c0.299,0.04,0.6-0.08,0.789-0.319c0.109-0.141,0.17-0.311,0.17-0.49v-0.33l-0.85-0.711
		c-0.07-0.079-0.109-0.17-0.131-0.279c-0.52-1.63-0.979-2.979-1.119-4.68l-0.051-1.309c0.859,0.619,3.67,2.649,4.699,3.489
		c0.131,0.101,0.24,0.21,0.33,0.34c0.09,0.15,0.15,0.3,0.199,0.47c0.211-0.1,0.49-0.18,0.85-0.31c0.342-0.13,0.672-0.26,1-0.399
		c0.23-0.09,0.342-0.34,0.262-0.569c-0.012-0.03-0.029-0.06-0.051-0.091C37.021,53.517,36.999,53.477,36.979,53.437z"/>
	<path fill="#FFFFFF" d="M57.106,23.262l0.021-0.02c0.908-0.921,2.197-1.431,3.758-1.391c1.08,0.01,2.131,0.398,2.951,1.1
		l0.619,0.52l0.119,0.131c0.59,0.63,0.85,1.32,0.99,2.148c0.07,0.42,0.08,0.84,0.02,1.26c-0.068,0.471-0.189,1.621-0.609,2.131
		c0.01,0.311-0.07,0.619-0.219,0.9c-0.16,0.31-0.4,0.56-0.701,0.719c-0.189,0.08-0.389,0.121-0.6,0.111
		c-0.09,0.159-0.301,0.439-0.301,0.439c-0.318,0.42-0.689,0.79-1.109,1.109l-0.879,0.4c-0.41,0.16-0.842,0.28-1.271,0.34
		c-0.15,0.02-0.299,0.03-0.459,0.03c-0.93,0.04-1.83-0.31-2.49-0.96c-0.689-0.641-0.939-1.6-0.988-2.641
		c-0.021-0.459-0.031-0.959-0.062-1.449c-0.139-0.94-0.109-1.91,0.111-2.84C56.196,24.551,56.575,23.842,57.106,23.262z"/>
	<polygon fill="#FFDA71" points="27.052,26.16 24.972,20.502 30.892,21.242 31.89,15.232 36.601,18.893 40.407,14.143 
		42.649,19.732 48.259,17.512 47.429,23.551 53.317,24.461 49.638,29.311 54.245,33.1 48.708,35.479 50.786,41.129 44.868,40.389 
		43.878,46.397 39.159,42.738 35.351,47.487 33.11,41.898 27.511,44.117 28.341,38.078 22.442,37.18 26.12,32.32 21.513,28.53 	"/>
	<path fill="#211715" d="M24.321,30.351l-2.539-2.091l-0.08,0.601l4.85-2.08l0.689-0.3c0.148-0.09,0.221-0.26,0.18-0.43
		l-1.818-4.949l-0.262-0.71l-0.369,0.479l5.18,0.65l0.74,0.09c0.17,0,0.318-0.109,0.369-0.279l0.869-5.27l0.121-0.74l-0.641,0.17
		l4.129,3.2l0.59,0.46c0.15,0.15,0.391,0.15,0.539,0l3.342-4.158l0.469-0.58l-0.639-0.17l1.959,4.889l0.279,0.699
		c0.061,0.2,0.27,0.32,0.471,0.271l4.898-1.938l0.699-0.281l-0.471-0.469l-0.729,5.289l-0.1,0.739c-0.031,0.19,0.039,0.44,0.27,0.47
		l3.469,0.53c0.199,0.05,0.41-0.069,0.471-0.271c0.051-0.199-0.061-0.41-0.271-0.469l-3.469-0.531l0.27,0.471l0.73-5.289l0.1-0.74
		c0.031-0.25-0.158-0.59-0.469-0.47l-4.898,1.938l-0.701,0.28l0.471,0.271l-1.959-4.889l-0.281-0.701
		c-0.09-0.229-0.438-0.42-0.639-0.17l-3.34,4.17l-0.471,0.58h0.539l-4.129-3.201l-0.59-0.459c-0.199-0.15-0.59-0.15-0.641,0.17
		l-0.869,5.269l-0.119,0.74l0.369-0.28l-5.18-0.65l-0.738-0.09c-0.211,0-0.381,0.17-0.381,0.391c0,0.029,0,0.07,0.01,0.1l1.83,4.949
		l0.26,0.71l0.18-0.431L22.013,27.9l-0.689,0.301c-0.182,0.109-0.24,0.34-0.141,0.529c0.02,0.029,0.039,0.05,0.061,0.07l2.539,2.089
		C24.161,31.201,24.7,30.66,24.321,30.351L24.321,30.351z"/>
	<path fill="#FFFFFF" d="M57.495,32.799c-0.85,0.791-6.18,4.41-6.408,4.58l-0.352,0.261l0.201,0.26l1.26,1.66
		c1.74-0.88,3.27-1.53,5.02-1.72c0.141-0.01,0.27-0.03,0.41-0.041l1.131,0.351c0.908,0.931,1.76,1.91,2.549,2.931l2.1,2.459
		c1.68,0.77,6.189,2.5,7.469,3.338l0.49-1.279c0.42-1.5,0.42-2.779,0.209-4.26c-0.189-1.18-0.58-2.33-1.158-3.369
		c-1.471-2.779-3.4-5.139-5.959-6.959L57.495,32.799z"/>
	<path fill="#FEBE69" d="M31.921,60.814c-0.301-0.13-0.592-0.3-0.859-0.49l-1.471-1c-0.271-0.18-0.471-0.459-0.549-0.779
		c-0.031-0.11,0.037-0.211,0.139-0.24c0.041-0.01,0.08-0.01,0.109,0c0.541,0.189,1.09,0.34,1.66,0.439
		c0.301,0.041,0.6-0.08,0.789-0.32c0.109-0.139,0.17-0.31,0.17-0.489v-0.33c0.721,0.351,1.619,0.81,2.33,1.19
		c0.4,0.209,0.551,0.709,0.34,1.109c-0.068,0.12-0.158,0.23-0.279,0.301c-0.67,0.43-1.5,0.84-2.119,0.689
		C32.091,60.875,32.001,60.846,31.921,60.814z"/>
	<path fill="#FEBE69" d="M38.319,55.137c0.219-0.141,0.449-0.26,0.68-0.381c0.301-0.129,0.6-0.27,0.881-0.43
		c0.35-0.189,0.6-0.529,0.648-0.93c0.01-0.13-0.02-0.27-0.08-0.391c-0.18-0.369-0.529-0.39-0.84-0.379
		c-0.939,0.029-1.881,0.25-2.82,0.279l0.021,0.1c0.061,0.19,0.131,0.371,0.221,0.541c0.141,0.199,0.08,0.479-0.121,0.609
		c-0.029,0.02-0.059,0.03-0.09,0.051c-0.34,0.139-0.66,0.27-1,0.398c-0.33,0.12-0.6,0.21-0.799,0.29
		c-0.16,0.069-0.23,0.25-0.17,0.409c0,0.011,0.01,0.021,0.02,0.031c0.15,0.289,0.369,0.539,0.641,0.719
		c0.119,0.08,0.26,0.141,0.41,0.16c0.141,0.011,0.27-0.01,0.398-0.049C37.06,55.985,37.679,55.535,38.319,55.137z"/>
	<path fill="#FFFFFF" d="M13.743,28.211c0.279,0.399,0.641,0.74,1.039,1c0.641,0.34,1.32,0.6,2.021,0.77
		c0.09,0.779,0.229,1.561,0.35,2.27c0.16,1.03,0.109,2.021-0.439,2.791c-0.521,0.77-1.33,1.289-2.25,1.439
		c-0.148,0.029-0.299,0.05-0.459,0.061c-0.352,0.039-0.699,0.039-1.051-0.021l-1.221-0.28c-0.479-0.22-0.92-0.51-1.309-0.859
		c0,0-0.25-0.23-0.381-0.371c-0.199,0.051-0.4,0.061-0.6,0.011c-0.33-0.101-0.621-0.3-0.83-0.569c-0.24-0.271-0.449-0.771-0.4-1.121
		c0.041-0.209,0.182-0.39,0.391-0.459c0.15-0.07,0.33-0.08,0.49-0.029l0.25-0.7c1.729-0.96,3.209-2.31,4.318-3.959"/>
	<path fill="#FFFFFF" d="M32.319,48.517c-0.1-0.479-0.789-1.03-1.34-1.521c-0.549-0.459-1.148-0.85-1.799-1.149
		c-1.439-0.72-2.699-1.05-4.76-1.261c-0.67-0.069-1.32,0.021-1.971-0.129l-0.17-0.011c-0.949,0.2-1.879,0.479-2.77,0.851
		c-1.469,0.56-3.75,1.83-4.25,2.108c0,0-0.67,0.32-1.318,0.63c0.061,0.229,0.17,0.551,0.17,0.551
		c0.85,3.039,2.439,5.818,4.619,8.099c0.34,0.36,1.6,0.37,1.889,0.08c1.432-1.438,3.24-2.419,4.869-3.619
		C27.481,51.676,29.511,49.627,32.319,48.517"/>
	<path fill="#FEBE69" d="M6.243,45.967c0.473-1.35,1.012-2.68,1.621-3.979c0.76-1.709,2.471-3.789,4.168-4.568
		c1.631,1.359,3.949,1.539,5.762,0.43l-0.42-0.4c3.438-0.939,6.979-0.77,10.236,0.66l0.051,2.6c-0.92-0.069-1.73-0.14-2.641-0.209
		c-0.6-0.051-1.189-0.09-1.779-0.19c-0.551-0.12-1.119-0.21-1.68-0.25c-0.57-0.011-1.17,0.13-1.57,0.521l-0.438,0.479
		c0.779,1.239,1.699,2.379,2.748,3.399c-0.949,0.199-1.891,0.479-2.789,0.85c-1.469,0.561-3.75,1.83-4.25,2.109l-1.35,0.641
		c-0.07,0.029-0.311,0.15-0.479,0.22c-0.201,0.101-0.41,0.17-0.631,0.21c-0.23-0.02-0.449-0.109-0.629-0.25
		c-0.871-0.79-1.512-2.129-1.91-3.169l-0.141-0.43c-0.4,0.96-0.801,1.92-1.199,2.88l-1.012,0.49l-1.889-0.94L6.243,45.967z"/>
	<path fill="#7A7473" d="M68.604,62.834c-2,0-3.379,1.83-3.379,3.979c0,2.399,1.408,4.049,3.379,4.049
		c2.049,0,3.379-1.67,3.379-4.049C71.983,64.654,70.595,62.834,68.604,62.834z"/>
	<path fill="#7A7473" d="M37.431,60.625c-1.342,2.609-0.721,5.219,1.1,6.158c2.039,1.051,4.389-0.07,5.719-2.648
		c1.381-2.67,0.859-5.149-1.17-6.189C41.237,57.006,38.769,58.025,37.431,60.625z"/>
	<path fill="#3D8DCC" d="M64.556,59.476c0.02,0.079,0.029,0.159,0.039,0.229c0.189-0.381,0.381-0.75,0.568-1.129
		c0.562-1.121,1.131-2.281,1.961-3.91c0.76-1.479,1.738-3.619,2.449-4.92c0.34-0.63,0.949-2.02,1.141-2.5
		c0,0,0.061-0.15,0.141-0.359c-1.301-0.85-5.779-2.57-7.459-3.34l-1.711-0.779l-0.719,2.99c-0.5,2.06-2.24,8.619-2.689,10.658
		l-0.068,0.299l0.578,0.181c0.49,0.12,0.852,0.54,0.891,1.04c0.01,0.199,0.189,0.359,0.391,0.35c0.029,0,0.061-0.01,0.09-0.02
		c0.07-0.02,0.15-0.051,0.229-0.07c0.301-0.09,0.621-0.02,0.852,0.2c-0.529,0.069,0.818-0.319,1.229,0.69
		c0.08,0.189,0.291,0.279,0.48,0.209c0.029-0.01,0.061-0.029,0.078-0.049c0.111-0.08,0.24-0.181,0.381-0.271
		c0.34-0.229,0.789-0.14,1.021,0.2c0.049,0.07,0.09,0.16,0.107,0.24C64.546,59.436,64.556,59.455,64.556,59.476z"/>
	<path fill="#211715" d="M44.688,57.035c2.719,0.561,5.43,1.12,8.148,1.68l9.158,1.881l5.039,1.039
		c0.479,0.101,0.689-0.639,0.199-0.739c-3.01-0.62-6.027-1.24-9.039-1.858c-2.969-0.611-5.938-1.221-8.908-1.83l-4.389-0.899
		C44.407,56.195,44.198,56.936,44.688,57.035L44.688,57.035z"/>
	<path fill="#211715" d="M46.407,59.666c4.748,0.979,9.498,1.949,14.248,2.928l4.039,0.83c0.479,0.101,0.689-0.64,0.199-0.739
		c-4.859-1-9.719-2-14.578-3l-3.709-0.761C46.138,58.826,45.929,59.565,46.407,59.666L46.407,59.666z"/>
	<path fill="#FFFFFF" d="M56.847,60.994c-0.521,0.01-1.59-0.08-2.1-0.32c-0.971-0.449-1.141-0.979-1.041-1.75
		c0.051-0.43,0.48-0.819,0.891-0.989c0.471-0.19,1.549-0.36,2.141-0.54c0.658-0.21,1.061-0.76,2.049-0.5
		c0.49,0.12,0.852,0.54,0.891,1.04c0.01,0.2,0.189,0.36,0.391,0.351c0.029,0,0.061-0.011,0.09-0.021
		c0.07-0.021,0.15-0.05,0.229-0.07c0.461-0.14,0.941,0.12,1.08,0.57c0.041,0.12,0.051,0.26,0.031,0.38
		c-0.031,0.189-0.07,0.38-0.111,0.55c-0.068,0.3-0.299,0.54-0.6,0.62c-0.369,0.109-0.75,0.18-1.129,0.2
		c-1.07,0.03-1.779,0.43-2.762,0.47C56.886,60.994,56.864,60.994,56.847,60.994z"/>
	<path fill="#211715" d="M56.847,60.604c-0.561,0.01-1.121-0.05-1.66-0.19c-0.42-0.109-0.959-0.379-1.08-0.83
		c-0.049-0.209-0.061-0.43-0.02-0.64c0.061-0.29,0.35-0.521,0.609-0.649c0.51-0.24,1.129-0.301,1.68-0.42
		c0.279-0.061,0.561-0.15,0.818-0.261c0.211-0.101,0.41-0.229,0.631-0.31c0.432-0.19,0.932-0.11,1.279,0.199
		c0.211,0.211,0.16,0.461,0.26,0.711c0.15,0.34,0.521,0.52,0.881,0.43c0.25-0.061,0.479-0.189,0.711-0.01
		c0.25,0.189,0.188,0.47,0.129,0.74c-0.01,0.159-0.068,0.31-0.16,0.439c-0.129,0.109-0.289,0.18-0.449,0.189
		c-0.42,0.08-0.84,0.141-1.27,0.17C58.405,60.275,57.646,60.586,56.847,60.604c-0.49,0.01-0.49,0.78,0,0.76
		c0.82-0.021,1.58-0.329,2.389-0.44c0.791-0.1,1.951-0.01,2.41-0.83c0.189-0.369,0.271-0.77,0.25-1.18
		c-0.029-0.379-0.24-0.729-0.561-0.939c-0.33-0.21-0.75-0.26-1.119-0.131c-0.041,0.011-0.16,0.061-0.17,0.061
		c0.029,0.01,0.01-0.029,0-0.09c-0.021-0.2-0.09-0.391-0.182-0.561c-0.33-0.56-1.02-0.85-1.658-0.81
		c-0.65,0.03-1.131,0.46-1.73,0.62c-0.648,0.18-1.35,0.24-1.979,0.49c-0.41,0.16-0.75,0.439-0.99,0.81
		c-0.17,0.31-0.238,0.66-0.209,1.011c0.1,1.699,2.199,2.01,3.549,2C57.337,61.365,57.337,60.604,56.847,60.604z"/>
	<path fill="#FFFFFF" d="M68.604,64.944c-0.949,0-1.609,0.87-1.609,1.89c0,1.141,0.67,1.931,1.609,1.931
		c0.969,0,1.609-0.79,1.609-1.931C70.214,65.814,69.554,64.944,68.604,64.944z"/>
	<path fill="#FFFFFF" d="M39.149,61.515c-0.67,1.29-0.359,2.589,0.551,3.049c1.01,0.521,2.18-0.04,2.828-1.31
		c0.682-1.32,0.42-2.551-0.58-3.069C41.038,59.715,39.81,60.225,39.149,61.515z"/>
	<path fill="#211715" d="M68.604,62.455c-3.83,0.039-4.949,5.567-2.391,7.879c1.221,1.078,3,1.209,4.369,0.34
		c1.449-0.971,1.961-2.891,1.74-4.551C72.073,64.205,70.653,62.475,68.604,62.455c-0.49-0.011-0.49,0.76,0,0.76
		c3.119,0.029,3.898,4.619,1.939,6.509c-0.949,0.88-2.379,1.01-3.471,0.31c-1.209-0.789-1.6-2.419-1.438-3.769
		c0.18-1.56,1.299-3.03,2.969-3.05C69.095,63.215,69.095,62.455,68.604,62.455z"/>
	<path fill="#211715" d="M68.604,64.564c-1.99,0.029-2.641,2.869-1.27,4.09c0.648,0.569,1.59,0.641,2.318,0.18
		c0.74-0.51,1.021-1.47,0.91-2.33C70.442,65.474,69.692,64.584,68.604,64.564c-0.49-0.01-0.49,0.76,0,0.76
		c1.299,0.02,1.58,1.961,0.789,2.739c-0.389,0.36-0.969,0.42-1.42,0.131c-0.469-0.312-0.648-1-0.59-1.58
		c0.07-0.659,0.531-1.28,1.211-1.29C69.095,65.324,69.095,64.555,68.604,64.564z"/>
	<path fill="#211715" d="M73.901,66.793c-0.01-2.039-0.828-4.119-2.539-5.309c-1.719-1.169-3.988-1.12-5.658,0.109
		c-0.949,0.74-1.648,1.74-2.02,2.881c-0.16,0.47,0.58,0.67,0.74,0.199c0.59-1.709,2.01-3.148,3.879-3.269
		c1.77-0.12,3.299,0.88,4.119,2.409c0.479,0.92,0.729,1.939,0.719,2.979C73.144,67.293,73.901,67.293,73.901,66.793L73.901,66.793z"
		/>
	<path fill="#211715" d="M37.101,60.435c-0.941,1.86-1.211,4.39,0.35,6.009c1.33,1.38,3.459,1.391,4.998,0.37
		c0.891-0.62,1.609-1.45,2.102-2.41c0.549-0.979,0.84-2.079,0.859-3.198c0-0.951-0.32-1.861-0.91-2.601
		c-0.561-0.69-1.35-1.16-2.229-1.319C40.019,56.905,38.069,58.556,37.101,60.435c-0.23,0.44,0.43,0.819,0.658,0.39
		c0.74-1.42,2.08-2.789,3.791-2.839c1.539-0.04,2.789,1.16,3.039,2.64c0.148,0.899-0.041,1.83-0.371,2.66
		c-0.35,0.93-0.908,1.76-1.619,2.438c-1.15,1.06-2.82,1.459-4.18,0.541c-1.779-1.2-1.5-3.78-0.66-5.45
		C37.979,60.385,37.319,59.994,37.101,60.435z"/>
	<path fill="#211715" d="M38.819,61.326c-0.5,1-0.641,2.329,0.189,3.198c0.699,0.74,1.857,0.78,2.688,0.24
		c0.98-0.671,1.57-1.78,1.58-2.96c-0.01-1-0.68-1.959-1.699-2.129C40.39,59.465,39.349,60.315,38.819,61.326
		c-0.23,0.43,0.43,0.819,0.658,0.389c0.33-0.629,0.92-1.27,1.67-1.31c0.68-0.021,1.26,0.47,1.359,1.15
		c0.141,0.829-0.318,1.778-0.92,2.339c-0.498,0.47-1.238,0.68-1.85,0.27c-0.789-0.539-0.641-1.709-0.27-2.449
		C39.698,61.265,39.04,60.885,38.819,61.326z"/>
	<path fill="#211715" d="M46.817,62.824c0.32-1.27,0.391-2.629-0.01-3.889c-0.359-1.141-1.1-2.131-2.1-2.79
		c-1.898-1.28-4.289-1-6.129,0.25c-1.221,0.86-2.199,2-2.869,3.33c-0.23,0.438,0.43,0.819,0.658,0.39
		c1-1.919,2.699-3.679,4.92-4.009c1.98-0.261,3.881,0.84,4.641,2.681c0.5,1.219,0.449,2.579,0.129,3.838
		C45.958,63.094,46.696,63.305,46.817,62.824L46.817,62.824z"/>
	<path fill="#211715" d="M60.206,40.389c-1.41-0.15-2.82-0.311-4.24-0.461l-2.449-0.27l-1.199-0.13
		c-0.371-0.06-0.74-0.101-1.109-0.12c-0.49,0-0.49,0.76,0,0.76c0.369,0.021,0.738,0.061,1.109,0.121l1.16,0.129l2.488,0.271
		c1.41,0.149,2.818,0.31,4.24,0.46c0.209,0,0.379-0.17,0.379-0.38S60.415,40.389,60.206,40.389L60.206,40.389z"/>
	<path fill="#211715" d="M49.946,41.318c2.932,0.32,5.869,0.641,8.799,0.96c0.211,0,0.381-0.17,0.381-0.38s-0.17-0.38-0.381-0.38
		c-2.93-0.32-5.867-0.64-8.799-0.96c-0.209,0-0.379,0.17-0.379,0.38S49.737,41.318,49.946,41.318L49.946,41.318z"/>
	<path fill="#211715" d="M44.679,56.506c2.619-3.879,5.229-7.75,7.848-11.629c0.73-1.09,1.471-2.18,2.201-3.258
		c0.279-0.41-0.391-0.791-0.66-0.391c-2.729,4.049-5.469,8.1-8.209,12.148l-1.85,2.739C43.737,56.535,44.407,56.916,44.679,56.506
		L44.679,56.506z"/>
	<path fill="#211715" d="M47.276,55.576c1.16-1.721,2.32-3.439,3.48-5.16c1.318-1.959,2.639-3.918,3.969-5.869
		c0.609-0.91,1.229-1.819,1.84-2.729c0.279-0.41-0.391-0.79-0.66-0.391c-1.18,1.74-2.359,3.49-3.539,5.24l-3.949,5.849
		c-0.6,0.89-1.199,1.78-1.801,2.669C46.339,55.596,46.997,55.976,47.276,55.576z"/>
	<path fill="#211715" d="M48.429,52.916l1.059,3.439c0.141,0.471,0.881,0.27,0.74-0.2l-1.061-3.438
		C49.026,52.246,48.286,52.446,48.429,52.916L48.429,52.916z"/>
	<path fill="#211715" d="M64.255,31.36c1.67,1.2,3.129,2.679,4.309,4.358c1.25,1.761,2.381,3.74,2.65,5.92
		c0.18,1.3,0.1,2.619-0.23,3.879c-0.129,0.48,0.611,0.68,0.74,0.199c0.631-2.398,0.41-4.938-0.619-7.188
		c-0.92-2-2.17-3.829-3.68-5.419c-0.852-0.891-1.771-1.699-2.771-2.41c-0.18-0.1-0.42-0.039-0.52,0.141
		C64.015,31.02,64.073,31.25,64.255,31.36L64.255,31.36z"/>
	<path fill="#211715" d="M61.626,40.898c-0.811-1.05-1.682-2.061-2.609-3.009c-0.34-0.351-0.881,0.19-0.541,0.54
		c0.881,0.9,1.711,1.859,2.49,2.859c0.109,0.18,0.34,0.24,0.52,0.141C61.675,41.318,61.735,41.088,61.626,40.898L61.626,40.898z"/>
	<path fill="#211715" d="M57.226,32.52c-0.119,0.109-0.25,0.21-0.369,0.311l-0.051,0.039c-0.09,0.07,0.061-0.05-0.029,0.021
		c-0.039,0.03-0.068,0.06-0.109,0.09c-0.109,0.08-0.221,0.16-0.33,0.25c-0.51,0.38-1.02,0.739-1.539,1.11
		c-1.029,0.729-2.08,1.449-3.119,2.168c-0.26,0.181-0.531,0.361-0.791,0.541c-0.18,0.109-0.24,0.34-0.139,0.52
		c0.107,0.18,0.34,0.24,0.52,0.141c0.67-0.49,1.379-0.951,2.059-1.431c1.092-0.76,2.189-1.521,3.262-2.31
		c0.398-0.28,0.789-0.58,1.158-0.91C58.126,32.729,57.587,32.189,57.226,32.52L57.226,32.52z"/>
	<path fill="#211715" d="M52.817,39.678c1.529-0.75,3.1-1.35,4.811-1.489c0.488-0.04,0.488-0.8,0-0.761
		c-0.891,0.07-1.771,0.24-2.621,0.511c-0.879,0.3-1.738,0.66-2.568,1.08C51.985,39.238,52.378,39.898,52.817,39.678L52.817,39.678z"
		/>
	<path fill="#FFFFFF" d="M51.888,39.438c-0.141,0.22-0.41,0.29-0.68,0.34c-0.131,0.03-0.262,0.06-0.393,0.101
		c-0.398,0.14-0.699,0.459-0.818,0.859c-0.021,0.07-0.029,0.141-0.061,0.2c-0.02,0.05-0.051,0.101-0.09,0.14
		c-0.15,0.131-0.391,0.041-0.561-0.06c-0.109-0.06-0.221-0.13-0.32-0.19c-0.59-0.359-1.141-0.77-1.641-1.229
		c-0.078-0.05-0.129-0.13-0.148-0.229c0.01-0.101,0.061-0.181,0.141-0.24c0.32-0.33,0.648-0.66,0.971-0.99
		c0.311-0.32,0.699-0.67,1.148-0.6c0.271,0.039,0.49,0.229,0.74,0.33c0.24,0.1,0.51,0.109,0.77,0.029l1.311,1.73"/>
	<path fill="#211715" d="M51.558,39.248c-0.09,0.121-0.32,0.141-0.451,0.17c-0.238,0.041-0.479,0.121-0.699,0.23
		c-0.398,0.23-0.68,0.609-0.789,1.061c-0.01,0.02-0.029,0.069-0.021,0.1l0.08-0.03c-0.02,0-0.039,0-0.061-0.01
		c-0.078-0.05-0.18-0.091-0.26-0.13c-0.209-0.131-0.42-0.26-0.629-0.4c-0.221-0.15-0.439-0.311-0.65-0.47
		c-0.1-0.08-0.199-0.16-0.301-0.25c-0.059-0.06-0.219-0.149-0.238-0.229v0.199c0.02-0.13,0.26-0.311,0.359-0.41l0.449-0.459
		c0.229-0.23,0.459-0.531,0.77-0.66c0.291-0.121,0.531,0.1,0.779,0.219c0.352,0.171,0.75,0.201,1.131,0.101l-0.42-0.18l1.311,1.729
		c0.109,0.18,0.34,0.239,0.52,0.139c0.18-0.109,0.24-0.34,0.141-0.52l-1.311-1.729c-0.09-0.141-0.26-0.221-0.43-0.18
		c-0.4,0.109-0.66-0.11-1-0.261c-0.379-0.17-0.83-0.149-1.189,0.07c-0.34,0.229-0.648,0.51-0.92,0.819
		c-0.16,0.17-0.32,0.33-0.49,0.5c-0.18,0.141-0.318,0.33-0.42,0.541c-0.129,0.449,0.32,0.76,0.621,1
		c0.33,0.279,0.68,0.529,1.039,0.77c0.32,0.21,0.689,0.49,1.08,0.54c0.449,0.06,0.689-0.25,0.801-0.64
		c0.1-0.351,0.391-0.621,0.748-0.68c0.441-0.101,0.83-0.181,1.111-0.561c0.1-0.18,0.039-0.42-0.141-0.52
		C51.897,39.008,51.667,39.068,51.558,39.248L51.558,39.248z"/>
	<path fill="#FFFFFF" d="M64.015,42.558c-0.119,0.579-0.689,0.92-1.209,1.2c-0.051,0.029-0.121,0.06-0.18,0.06
		c-0.08-0.01-0.17-0.04-0.24-0.08c-0.24-0.11-0.59-0.05-0.67,0.21c-0.07,0.23,0.119,0.51-0.021,0.71
		c-1.209-0.18-2.318-0.76-3.16-1.649c-0.049-0.049-0.09-0.109-0.107-0.17c-0.01-0.06,0-0.109,0.02-0.16
		c0.15-0.539,0.359-1.119,0.84-1.399c0.369-0.22,0.82-0.22,1.24-0.22c0.26-0.01,0.52,0.01,0.77,0.061
		c0.109,0.029,0.23,0.059,0.34,0.059c0.352,0,0.641-0.34,0.98-0.359c0.59,0.551,1.189,1.109,1.789,1.66"/>
	<path fill="#211715" d="M63.646,42.457c-0.08,0.271-0.26,0.51-0.5,0.65c-0.131,0.09-0.27,0.18-0.42,0.26
		c-0.061,0.03-0.201,0.061-0.1,0.07c-0.07-0.01-0.16-0.08-0.23-0.1c-0.318-0.101-0.66-0.01-0.891,0.22
		c-0.119,0.13-0.189,0.31-0.189,0.489c0,0.09,0.01,0.181,0.029,0.271c0.012,0.03,0.012,0.069,0.021,0.101
		c0.01,0.069,0.01,0.09,0,0.049l0.43-0.18c-0.709-0.1-1.391-0.35-2-0.729c-0.279-0.171-0.539-0.38-0.77-0.601
		c-0.051-0.05-0.201-0.149-0.221-0.22c0.021,0.101,0.051-0.08,0.051-0.101c0.039-0.149,0.1-0.299,0.16-0.439
		c0.1-0.279,0.309-0.51,0.568-0.65c0.32-0.14,0.699-0.119,1.041-0.119c0.199,0,0.391,0.01,0.59,0.05c0.35,0.13,0.75,0.09,1.068-0.11
		c0.109-0.08,0.221-0.13,0.352-0.17l-0.271-0.109l1.789,1.66c0.361,0.33,0.9-0.201,0.541-0.541l-1.1-1.02l-0.48-0.45
		c-0.211-0.2-0.359-0.351-0.67-0.28c-0.33,0.08-0.59,0.381-0.939,0.301c-0.449-0.09-0.91-0.121-1.359-0.09
		c-0.42,0-0.84,0.129-1.189,0.369c-0.301,0.24-0.52,0.561-0.658,0.92c-0.15,0.36-0.371,0.83-0.131,1.18
		c0.25,0.32,0.561,0.611,0.898,0.83c0.74,0.551,1.609,0.91,2.529,1.05c0.17,0.04,0.34-0.03,0.43-0.181
		c0.102-0.18,0.131-0.399,0.08-0.6c-0.01-0.061-0.02-0.109-0.02-0.17s-0.039,0.01,0.01,0c0.109-0.029,0.221,0.061,0.311,0.09
		c0.189,0.061,0.4,0.04,0.57-0.061c0.609-0.299,1.24-0.75,1.41-1.449C64.493,42.178,63.755,41.979,63.646,42.457L63.646,42.457z"/>
	<path fill="#211715" d="M63.206,43.889c2.049,0.93,4.178,1.709,6.219,2.679c0.43,0.19,0.85,0.42,1.25,0.67
		c0.408,0.271,0.799-0.39,0.389-0.659c-0.799-0.521-1.719-0.891-2.6-1.281c-1.141-0.5-2.299-0.969-3.449-1.459
		c-0.479-0.201-0.949-0.4-1.42-0.61c-0.18-0.101-0.41-0.04-0.521,0.14C62.966,43.549,63.024,43.777,63.206,43.889L63.206,43.889z"/>
	<path fill="#211715" d="M70.345,47.147c-0.611,1.569-1.441,3.04-2.18,4.549c-0.922,1.88-1.871,3.75-2.801,5.63
		c-0.439,0.889-0.881,1.77-1.33,2.649c-0.221,0.438,0.432,0.819,0.66,0.39c0.879-1.72,1.719-3.449,2.6-5.169
		c0.91-1.79,1.76-3.601,2.689-5.368c0.41-0.801,0.779-1.631,1.109-2.471c0.051-0.2-0.061-0.41-0.271-0.471
		C70.612,46.838,70.403,46.947,70.345,47.147L70.345,47.147z"/>
	<path fill="#211715" d="M64.364,47.178c-0.59,1.279-1.08,2.609-1.58,3.918c-0.6,1.57-1.18,3.15-1.75,4.73
		c-0.229,0.639-0.459,1.27-0.68,1.909c-0.16,0.47,0.58,0.67,0.74,0.2c0.99-2.87,2.049-5.719,3.17-8.539
		c0.26-0.65,0.49-1.229,0.77-1.839c0.102-0.181,0.039-0.41-0.141-0.521C64.704,46.938,64.476,46.998,64.364,47.178L64.364,47.178z"
		/>
	<path fill="#211715" d="M58.636,56.525c0.66-2.929,1.471-5.829,2.209-8.738c0.16-0.64,0.33-1.27,0.48-1.91
		c0.109-0.479-0.621-0.68-0.74-0.199c-0.709,2.93-1.498,5.828-2.229,8.748c-0.16,0.631-0.32,1.261-0.461,1.899
		C57.796,56.806,58.526,57.006,58.636,56.525L58.636,56.525z"/>
	<path fill="#211715" d="M17.474,37.818c3.289-0.891,6.809-0.75,9.947,0.62c0.18,0.101,0.41,0.04,0.52-0.14
		c0.102-0.18,0.041-0.42-0.139-0.521c-3.33-1.43-7.049-1.68-10.539-0.7C16.794,37.209,16.991,37.949,17.474,37.818L17.474,37.818z"
		/>
	<path fill="#211715" d="M11.835,37.09c-1.182,0.55-2.172,1.52-2.971,2.539c-0.42,0.531-0.791,1.09-1.1,1.681
		c-0.342,0.64-0.621,1.33-0.9,2c-0.359,0.84-0.699,1.7-0.988,2.569c-0.16,0.47,0.578,0.67,0.738,0.199
		c0.471-1.41,1.039-2.799,1.689-4.139c0.561-1.141,1.33-2.17,2.27-3.04c0.49-0.47,1.051-0.86,1.66-1.149
		c0.18-0.11,0.24-0.34,0.141-0.521C12.255,37.049,12.024,36.989,11.835,37.09L11.835,37.09z"/>
	<path fill="#211715" d="M10.925,42.408c-0.58,0.66-0.9,1.461-1.23,2.26l-1.141,2.74c-0.049,0.199,0.061,0.409,0.271,0.469
		c0.199,0.051,0.41-0.069,0.471-0.27l1.068-2.568c0.301-0.721,0.58-1.5,1.109-2.101C11.782,42.578,11.255,42.037,10.925,42.408
		L10.925,42.408z"/>
	<path fill="#FFFFFF" d="M27.681,40.539l-0.43-1.871c-0.061-0.25,0.1-0.49,0.34-0.549c0.029-0.011,0.07-0.011,0.1-0.011
		c0.111,0,0.211-0.01,0.34-0.021c0.473-0.06,0.932-0.189,1.361-0.379c0.24-0.17,0.449-0.391,0.699-0.551
		c0.779-0.5,1.85-0.33,2.629,0.18c0.141,0.08,0.26,0.19,0.352,0.33c0.068,0.16,0.119,0.32,0.129,0.5
		c0.08,0.561,0.15,1.07,0.189,1.67c-0.01,0.181-0.129,0.33-0.299,0.391c-0.859,0.26-1.721,0.59-2.391,1.189
		c-0.07,0.08-0.16,0.141-0.25,0.17c-0.08,0.021-0.17,0.021-0.25,0c-0.6-0.09-0.84-0.359-1.34-0.789"/>
	<path fill="#FFFFFF" d="M8.204,47.807L8.204,47.807c-0.211,0.25-0.561,0.279-0.801,0.08c-0.08-0.061-0.129-0.15-0.17-0.24
		c-0.17-0.439-0.52-0.79-0.959-0.95c-0.17-0.06-0.35-0.08-0.531-0.06c-0.18,0.039-0.35,0.119-0.51,0.22
		c-0.969,0.61-1.77,1.47-2.299,2.489c-0.029,0.051-0.051,0.101-0.051,0.15c0.021,0.08,0.07,0.15,0.141,0.19l1.439,1.069
		c0.201,0.15,0.479,0.15,0.68-0.01c0.621-0.49,1.439-0.67,2.211-0.479c0.119,0.04,0.25,0.06,0.369,0.06
		c0.18-0.05,0.35-0.16,0.449-0.32c0.262-0.319,0.49-0.68,0.67-1.06"/>
	<path fill="#211715" d="M20.253,40.849c0.398-0.37,0.959-0.44,1.479-0.4c0.65,0.04,1.299,0.229,1.949,0.31
		c1.32,0.17,2.66,0.229,3.979,0.33c0.49,0.041,0.49-0.729,0-0.76c-0.709-0.05-1.42-0.109-2.129-0.17
		c-0.701-0.06-1.41-0.09-2.109-0.199c-1.25-0.201-2.66-0.621-3.709,0.359C19.353,40.648,19.894,41.178,20.253,40.849L20.253,40.849z
		"/>
	<path fill="#211715" d="M28.052,40.438l-0.381-1.62c-0.029-0.08-0.051-0.16-0.061-0.24c0-0.13,0.279-0.09,0.41-0.1
		c0.449-0.051,0.889-0.16,1.32-0.32c0.51-0.199,0.828-0.71,1.379-0.85c0.529-0.12,1.08-0.04,1.561,0.22
		c0.199,0.101,0.449,0.22,0.51,0.46c0.068,0.33,0.119,0.67,0.148,1.01c0.021,0.141,0.031,0.28,0.041,0.41
		c0.01,0.09,0.021,0.17,0.021,0.26c0,0.01-0.012,0.25,0.02,0.15c-0.02,0.07-0.02,0.051-0.1,0.08c-0.17,0.07-0.352,0.109-0.531,0.18
		c-0.658,0.221-1.289,0.551-1.838,0.98c-0.051,0.061-0.111,0.109-0.182,0.16c-0.068,0.029-0.148,0.029-0.221,0
		c-0.109-0.021-0.219-0.061-0.318-0.11c-0.262-0.16-0.49-0.34-0.699-0.55c-0.371-0.32-0.91,0.22-0.541,0.54
		c0.5,0.43,1,0.89,1.699,0.909c0.432,0.011,0.66-0.309,0.99-0.529c0.289-0.2,0.6-0.37,0.93-0.5c0.34-0.141,0.689-0.24,1.029-0.359
		c0.311-0.111,0.529-0.4,0.551-0.73c-0.012-0.391-0.051-0.77-0.119-1.15c-0.021-0.359-0.08-0.72-0.182-1.07
		c-0.25-0.64-1.119-0.989-1.75-1.1c-0.709-0.15-1.449,0.01-2.029,0.439c-0.189,0.181-0.398,0.33-0.629,0.471
		c-0.262,0.1-0.529,0.17-0.801,0.23c-0.301,0.06-0.641,0.01-0.92,0.129c-0.33,0.15-0.529,0.49-0.488,0.851
		c0.049,0.34,0.129,0.681,0.219,1.011l0.23,0.979C27.431,41.129,28.161,40.918,28.052,40.438L28.052,40.438z"/>
	<path fill="#211715" d="M8.544,47.317c-0.129,0.069-0.27,0.13-0.41,0.2c-0.029,0.01-0.049,0.029-0.08,0.04
		c-0.049,0.021,0.051-0.021-0.01,0c-0.08,0.03-0.16,0.04-0.24,0.03c-0.238-0.01-0.229-0.121-0.34-0.32
		c-0.158-0.29-0.391-0.54-0.668-0.73c-0.281-0.189-0.611-0.3-0.951-0.289c-0.359,0.039-0.689,0.17-0.979,0.389
		c-0.561,0.371-1.061,0.82-1.48,1.33c-0.219,0.261-0.41,0.531-0.59,0.82c-0.18,0.291-0.42,0.641-0.221,0.98
		c0.15,0.24,0.5,0.43,0.721,0.6l0.871,0.641c0.107,0.09,0.229,0.16,0.369,0.199c0.35,0.101,0.641-0.029,0.92-0.229
		c0.289-0.2,0.619-0.34,0.979-0.39c0.35-0.03,0.701,0.01,1.051,0.1c0.439,0.08,0.76-0.15,1.02-0.48s0.49-0.689,0.67-1.07
		c0.211-0.439-0.449-0.829-0.66-0.389c-0.17,0.399-0.408,0.76-0.699,1.09c-0.119,0.129-0.189,0.1-0.359,0.06
		c-0.199-0.05-0.41-0.08-0.619-0.09c-0.391-0.011-0.779,0.05-1.141,0.19c-0.17,0.06-0.34,0.149-0.5,0.239
		c-0.121,0.07-0.27,0.261-0.43,0.24c-0.09-0.011-0.211-0.13-0.281-0.181l-0.498-0.369l-0.529-0.391
		c-0.062-0.05-0.121-0.09-0.191-0.14c-0.059-0.05-0.039-0.06-0.029,0v0.2c0.061-0.19,0.15-0.37,0.271-0.52
		c0.1-0.15,0.199-0.301,0.309-0.441c0.23-0.299,0.48-0.569,0.762-0.819c0.279-0.25,0.578-0.479,0.898-0.67
		c0.301-0.19,0.689-0.17,0.961,0.069c0.109,0.091,0.209,0.189,0.289,0.311c0.08,0.16,0.17,0.32,0.27,0.48
		c0.201,0.22,0.5,0.35,0.801,0.34c0.4,0.01,0.771-0.18,1.109-0.37C9.364,47.737,8.974,47.078,8.544,47.317L8.544,47.317z"/>
	<path fill="#211715" d="M15.442,47.748c2.15-1.23,4.459-2.471,6.93-2.92c0.479-0.09,0.279-0.83-0.199-0.74
		c-1.48,0.271-2.92,0.851-4.271,1.5c-0.959,0.461-1.908,0.959-2.838,1.49C14.634,47.328,15.024,47.987,15.442,47.748z"/>
	<path fill="#211715" d="M13.733,48.707c0.881,3.129,2.529,5.998,4.789,8.338c0.34,0.351,0.881-0.189,0.541-0.539
		c-2.17-2.25-3.75-5-4.59-8C14.343,48.027,13.604,48.227,13.733,48.707L13.733,48.707z"/>
	<path fill="#211715" d="M22.312,44.828c0.48,0.09,0.971,0.129,1.461,0.119c0.459,0.01,0.92,0.051,1.369,0.11
		c0.75,0.09,1.49,0.25,2.209,0.46c1.361,0.42,2.621,1.119,3.699,2.061c0.189,0.159,0.551,0.379,0.512,0.668
		c-0.041,0.311-0.48,0.41-0.721,0.541c-0.75,0.409-1.48,0.869-2.16,1.379c-1.289,0.94-2.5,1.99-3.779,2.939
		c-1.52,1.13-3.02,2.27-4.539,3.398c-0.18,0.11-0.238,0.34-0.141,0.521c0.111,0.181,0.34,0.239,0.521,0.14
		c1.42-1.06,2.84-2.13,4.26-3.188c1.35-1.011,2.639-2.101,3.988-3.101c0.73-0.55,1.5-1.029,2.301-1.459
		c0.35-0.181,0.719-0.32,0.898-0.711c0.16-0.34,0.15-0.729-0.029-1.06c-0.189-0.33-0.541-0.58-0.83-0.81
		c-0.33-0.261-0.67-0.511-1.029-0.75c-0.629-0.42-1.311-0.771-2.01-1.041c-0.801-0.31-1.619-0.52-2.471-0.649
		c-0.529-0.091-1.068-0.16-1.609-0.2c-0.568-0.04-1.148,0.02-1.709-0.109C22.042,43.987,21.833,44.728,22.312,44.828L22.312,44.828z
		"/>
	<path fill="#211715" d="M17.603,37.519c-1.67,1-3.789,0.86-5.299-0.37c-0.379-0.311-0.92,0.23-0.539,0.54
		c1.76,1.46,4.258,1.66,6.229,0.489C18.401,37.93,18.022,37.26,17.603,37.519L17.603,37.519z"/>
	<path fill="#211715" d="M22.433,44.067c-0.971-0.97-1.83-2.04-2.561-3.198c-0.26-0.41-0.92-0.031-0.66,0.389
		c0.771,1.221,1.67,2.341,2.68,3.361C22.241,44.957,22.78,44.418,22.433,44.067z"/>
	<path fill="#211715" d="M9.894,45.168c0.371,1.039,0.9,2.01,1.57,2.879c0.318,0.379,0.689,0.75,1.211,0.82
		c0.26,0.01,0.52-0.051,0.748-0.171c0.23-0.101,0.451-0.21,0.682-0.3c0.18-0.109,0.238-0.34,0.139-0.52
		c-0.109-0.181-0.34-0.24-0.52-0.141c-0.17,0.07-0.33,0.16-0.5,0.23c-0.109,0.05-0.221,0.09-0.33,0.119
		c-0.01,0-0.129,0.031-0.09,0.031c-0.07,0.01,0.029,0.01-0.061-0.011c-0.08-0.021-0.148-0.05-0.221-0.09
		c-0.039-0.021-0.07-0.04-0.109-0.07c0.08,0.06-0.051-0.05-0.051-0.05c-0.16-0.16-0.309-0.32-0.449-0.5
		c-0.539-0.74-0.971-1.561-1.279-2.419c-0.061-0.2-0.271-0.32-0.469-0.271C9.954,44.758,9.835,44.967,9.894,45.168L9.894,45.168z"/>
	<path fill="#211715" d="M81.853,53.316l-5.629,5.939c-0.34,0.359,0.199,0.899,0.539,0.539l5.629-5.938
		C82.731,53.496,82.192,52.957,81.853,53.316L81.853,53.316z"/>
	<path fill="#211715" d="M76.202,53.137l-3.01,4.859c-0.26,0.42,0.4,0.799,0.66,0.389l3.01-4.858
		C77.122,53.096,76.464,52.717,76.202,53.137L76.202,53.137z"/>
	<path fill="#211715" d="M5.274,55.815l6.189,5.349c0.371,0.32,0.91-0.22,0.541-0.539l-6.189-5.35
		C5.444,54.955,4.896,55.496,5.274,55.815z"/>
	<path fill="#211715" d="M10.755,54.926l3.469,4.539c0.109,0.181,0.34,0.24,0.52,0.141c0.182-0.109,0.24-0.34,0.141-0.52
		l-3.469-4.549c-0.109-0.181-0.342-0.24-0.521-0.141C10.704,54.506,10.644,54.746,10.755,54.926L10.755,54.926z"/>
	<path fill="#FFFFFF" d="M60.735,62.864c-0.49,0.171-1.531,0.421-2.1,0.351c-1.07-0.121-1.391-0.58-1.531-1.34
		c-0.08-0.42,0.201-0.931,0.541-1.211c0.379-0.33,1.359-0.82,1.869-1.18c0.561-0.4,0.77-1.05,1.789-1.109
		c0.5-0.041,0.98,0.25,1.17,0.709c0.08,0.19,0.291,0.28,0.48,0.211c0.029-0.01,0.061-0.03,0.08-0.051
		c0.34-0.27,0.709-0.49,1.109-0.68c0.32,0.24,0.469,1.05,0.52,1.66c0.029,0.311-0.119,0.609-0.381,0.779
		c-0.318,0.221-0.658,0.4-1.01,0.551c-1,0.359-1.559,0.97-2.469,1.31C60.776,62.854,60.755,62.864,60.735,62.864z"/>
	<path fill="#211715" d="M60.636,62.494c-0.561,0.211-1.15,0.32-1.75,0.35c-0.439,0.011-1.01-0.109-1.23-0.5
		c-0.107-0.18-0.17-0.389-0.188-0.6c0.02-0.3,0.16-0.58,0.389-0.77c0.42-0.4,1.021-0.65,1.51-0.96c0.24-0.14,0.461-0.3,0.66-0.49
		c0.17-0.181,0.34-0.351,0.529-0.521c0.342-0.27,0.801-0.34,1.201-0.18c0.289,0.141,0.309,0.43,0.52,0.629
		c0.25,0.24,0.629,0.291,0.92,0.11c0.209-0.13,0.439-0.42,0.709-0.34c0.271,0.069,0.281,0.37,0.32,0.601
		c0.041,0.18,0.051,0.369,0.031,0.549c-0.041,0.19-0.182,0.271-0.342,0.371c-0.398,0.229-0.811,0.43-1.238,0.609
		C61.985,61.705,61.376,62.234,60.636,62.494c-0.461,0.17-0.26,0.899,0.199,0.74c0.779-0.279,1.42-0.811,2.16-1.17
		c0.748-0.359,1.908-0.65,2.029-1.63c0.01-0.2,0-0.399-0.031-0.601c-0.02-0.24-0.068-0.49-0.158-0.709
		c-0.15-0.311-0.432-0.541-0.771-0.621c-0.43-0.09-0.76,0.09-1.1,0.33c-0.039,0.03-0.08,0.061-0.119,0.09
		c-0.051,0.041-0.051,0.011-0.021,0.021c-0.02-0.01,0.021,0.06-0.02-0.04c-0.07-0.17-0.17-0.33-0.311-0.459
		c-0.48-0.48-1.25-0.55-1.859-0.32c-0.301,0.121-0.58,0.301-0.801,0.53c-0.18,0.2-0.369,0.38-0.578,0.55
		c-0.59,0.41-1.262,0.7-1.82,1.15c-0.311,0.25-0.529,0.59-0.65,0.97c-0.09,0.351-0.068,0.71,0.061,1.04
		c0.58,1.66,2.699,1.32,4,0.881C61.306,63.074,61.106,62.334,60.636,62.494z"/>
	<path fill="#85807F" d="M56.075,25.061c-0.029,0.08-0.049,0.17-0.068,0.25c-0.189,0.83-0.24,1.699-0.15,2.55
		c0.021-0.08,0.029-0.14,0.029-0.14c0.102-0.42,1-1.551,1.609-1.85c0.07-0.031,0.16,0.02,0.189,0.139
		c0.021,0.091,0.021,0.19,0.01,0.281c-0.02,0.08,0.031,0.159,0.111,0.17c0.029,0.01,0.059,0,0.09-0.011
		c0.34-0.18,0.939-0.61,1.619-0.85c0.74-0.08,1.799,0.229,1.799,0.229c0.262,0.12,1.031,0.41,1.83,2.07
		c0.15,0.13,0.611,0.49,0.861,0.65c0.139-0.07,0.299-0.09,0.447-0.061c0.211,0.03,0.393,0.17,0.473,0.37
		c0.027,0.09,0.049,0.19,0.049,0.29l0.07-0.109c0.359-0.551,0.479-1.59,0.539-2.031c0.061-0.42,0.051-0.85-0.02-1.26
		c-0.141-0.83-0.4-1.52-0.99-2.148l-0.121-0.131l-0.617-0.52c-0.82-0.71-1.871-1.1-2.951-1.109c-1.561-0.041-2.85,0.47-3.758,1.39
		c-0.102,0.101-0.201,0.22-0.291,0.33C56.495,24.021,56.245,24.521,56.075,25.061z"/>
	<path fill="#211715" d="M64.306,23.871c0.648,0.76,0.988,1.74,0.938,2.739c-0.02,0.38-0.068,0.761-0.148,1.14
		c-0.051,0.4-0.189,0.791-0.391,1.129c-0.27,0.41,0.391,0.791,0.66,0.391c0.25-0.41,0.41-0.87,0.471-1.35
		c0.1-0.461,0.148-0.931,0.17-1.4c0.029-1.17-0.391-2.311-1.16-3.189C64.515,22.961,63.976,23.502,64.306,23.871L64.306,23.871z"/>
	<path fill="#211715" d="M61.136,26.16c0.141,0.08,0.27,0.17,0.398,0.27c0.061,0.041-0.068-0.059,0,0l0.051,0.041
		c0.041,0.029,0.08,0.07,0.121,0.1c0.078,0.07,0.158,0.15,0.229,0.221c0.08,0.08,0.16,0.17,0.24,0.26
		c0.02,0.02,0.039,0.05,0.061,0.07c0.02,0.02,0.061,0.069,0.02,0.02c0.041,0.05,0.08,0.109,0.121,0.17
		c0.17,0.25,0.318,0.51,0.449,0.779c0.109,0.181,0.34,0.24,0.52,0.141c0.18-0.109,0.24-0.34,0.141-0.52
		c-0.42-0.91-1.109-1.681-1.959-2.201c-0.182-0.109-0.42-0.049-0.521,0.141C60.886,25.821,60.944,26.051,61.136,26.16L61.136,26.16z
		"/>
	<path fill="#211715" d="M56.257,27.811c0.01-0.03,0.02-0.051,0.029-0.08c-0.029,0.08,0.01-0.02,0.02-0.029
		c0.041-0.07,0.08-0.15,0.131-0.221c0.109-0.17,0.23-0.33,0.359-0.49c0.141-0.17,0.301-0.33,0.461-0.479
		c0.059-0.061,0.129-0.11,0.199-0.17c0.041-0.03,0.078-0.051,0.109-0.08c0.021-0.01,0.039-0.02,0.061-0.03
		c0.061-0.03,0.051-0.03-0.051,0.011l-0.189-0.051c-0.049-0.1-0.07-0.12-0.061-0.061c0,0.041,0,0.07,0,0.111
		c-0.01,0.079,0,0.17,0.021,0.25c0.059,0.17,0.188,0.299,0.369,0.35c0.279,0.07,0.541-0.131,0.76-0.271
		c0.541-0.329,1.09-0.64,1.73-0.75c0.199-0.06,0.318-0.271,0.27-0.47c-0.061-0.2-0.27-0.32-0.471-0.27
		c-0.471,0.09-0.918,0.26-1.34,0.489c-0.18,0.101-0.35,0.2-0.529,0.3c-0.07,0.041-0.15,0.09-0.219,0.131
		c-0.031,0.02-0.07,0.039-0.102,0.06c-0.109,0.069-0.061-0.03,0.061,0.021l0.17,0.1c0.051,0.04,0.02,0.18,0.041,0.029
		c0-0.049,0-0.09-0.012-0.14c-0.01-0.12-0.041-0.229-0.09-0.329c-0.109-0.201-0.35-0.301-0.568-0.24
		c-0.312,0.09-0.602,0.369-0.82,0.59c-0.25,0.25-0.48,0.52-0.689,0.81c-0.17,0.22-0.301,0.46-0.391,0.72
		C55.397,28.09,56.126,28.291,56.257,27.811L56.257,27.811z"/>
	<path fill="#211715" d="M64.104,22.691c-0.699-0.59-1.539-0.99-2.438-1.15c-0.852-0.129-1.73-0.09-2.561,0.141
		c-0.77,0.21-1.49,0.6-2.08,1.13c-0.631,0.601-1.09,1.351-1.33,2.181c-0.27,0.949-0.35,1.949-0.209,2.93
		c0.01,0.209,0.17,0.379,0.379,0.379c0.211,0,0.381-0.17,0.381-0.379c-0.18-1.471,0.02-3.149,1.051-4.299
		c0.969-1.08,2.459-1.48,3.879-1.381c0.879,0.07,1.719,0.41,2.398,0.98c0.15,0.14,0.391,0.14,0.539,0
		C64.255,23.082,64.255,22.832,64.104,22.691L64.104,22.691z"/>
	<path fill="#211715" d="M62.245,32.75c0.359-0.271,0.689-0.57,0.988-0.91c0.211-0.24,0.4-0.5,0.562-0.771
		c0.107-0.18,0.049-0.42-0.143-0.521c-0.188-0.1-0.42-0.049-0.52,0.141c-0.07,0.13-0.15,0.25-0.24,0.359
		c-0.01,0.021-0.029,0.041-0.039,0.061c-0.041,0.051,0.061-0.08,0.021-0.029c-0.062,0.08-0.121,0.149-0.182,0.219
		c-0.131,0.15-0.26,0.291-0.398,0.431c-0.07,0.069-0.141,0.13-0.221,0.2c-0.041,0.039-0.092,0.07-0.131,0.109
		c-0.02,0.01-0.08,0.07-0.01,0.01c-0.02,0.021-0.051,0.031-0.07,0.051c-0.08,0.05-0.148,0.13-0.18,0.23
		c-0.029,0.1-0.01,0.209,0.039,0.289C61.825,32.789,62.056,32.85,62.245,32.75L62.245,32.75z"/>
	<path fill="#211715" d="M61.065,32.451c-0.68,0.289-1.42,0.399-2.148,0.34c-0.65-0.09-1.262-0.391-1.721-0.851
		c-0.479-0.46-0.699-1.11-0.801-1.759c-0.119-0.82-0.078-1.67-0.139-2.5c-0.031-0.49-0.801-0.49-0.762,0
		c0.092,1.34-0.061,2.8,0.58,4.029c0.58,1.1,1.801,1.779,3.021,1.859c0.738,0.03,1.479-0.1,2.168-0.38
		c0.201-0.06,0.32-0.271,0.271-0.47C61.476,32.52,61.265,32.399,61.065,32.451L61.065,32.451z"/>
	<path fill="#211715" d="M59.896,29.03c-0.049-0.26,0.061-0.819,0.529-0.819c0.621,0.069,0.58,0.76,0.342,1.06
		C60.575,29.51,60.056,29.57,59.896,29.03z"/>
	<path fill="#211715" d="M56.837,28.811C56.796,28.561,56.886,28,57.315,28c0.561,0.061,0.521,0.74,0.299,1.041
		C57.437,29.28,56.976,29.351,56.837,28.811z"/>
	<path fill="#211715" d="M64.165,28.9c0.039-0.02,0.039-0.02,0.01-0.01c0.02-0.01,0.051-0.02,0.068-0.02
		c0.053-0.011,0.053-0.011,0.012,0c0.02,0,0.051,0,0.068,0c0.051,0,0.051,0,0,0c0.021,0,0.051,0.01,0.07,0.02s0.051,0.01,0.07,0.02
		c-0.039-0.02-0.039-0.02,0,0c0.029,0.02,0.109,0.09,0.041,0.02c0.02,0.021,0.049,0.061,0.068,0.07
		c-0.041-0.049-0.041-0.06-0.02-0.029c0.01,0.01,0.01,0.02,0.02,0.029c0.049,0.08-0.02-0.07,0-0.02
		c0.01,0.04,0.021,0.07,0.029,0.109c0.01,0.041,0.01,0.041,0-0.01c0,0.021,0,0.041,0.01,0.061c0,0.08,0,0.15-0.01,0.23
		c-0.01,0.049-0.01,0.049,0,0c0,0.02-0.01,0.049-0.01,0.069c-0.01,0.04-0.021,0.09-0.029,0.13c-0.01,0.04-0.031,0.09-0.041,0.131
		c-0.01,0.02-0.01,0.039-0.02,0.059c0.02-0.039,0.02-0.039,0,0c-0.07,0.131-0.141,0.261-0.23,0.381
		c0.061-0.08-0.029,0.029-0.039,0.04c-0.02,0.021-0.041,0.05-0.07,0.069c-0.029,0.03-0.068,0.061-0.1,0.09
		c0.049-0.039-0.061,0.041-0.07,0.051c-0.02,0.01-0.109,0.05-0.119,0.07c0.061-0.03,0.078-0.03,0.039-0.021
		c-0.01,0.011-0.029,0.011-0.039,0.011c-0.07,0.02-0.141,0.039-0.211,0.049c0.102-0.02-0.029,0-0.051,0c-0.039,0-0.09,0-0.129,0
		c0.09,0-0.029-0.01-0.061-0.01s-0.039-0.01-0.061-0.02c0.039,0.02,0.051,0.02,0.01,0c-0.18-0.11-0.42-0.051-0.52,0.14
		c-0.109,0.181-0.051,0.42,0.141,0.521c0.35,0.17,0.748,0.189,1.109,0.06c0.359-0.14,0.67-0.399,0.879-0.72
		c0.381-0.54,0.621-1.43,0.16-1.99c-0.34-0.38-0.9-0.471-1.34-0.221c-0.18,0.111-0.24,0.341-0.141,0.521
		C63.743,28.94,63.985,29,64.165,28.9L64.165,28.9z"/>
	<path fill="#211715" d="M58.546,31.189c0-0.01,0.01-0.02,0.01-0.029l-0.039,0.09c0.02-0.031,0.029-0.07,0.059-0.101l-0.059,0.08
		c0.02-0.03,0.049-0.06,0.08-0.08l-0.08,0.06c0.02-0.01,0.039-0.029,0.059-0.039l-0.09,0.039c0.07-0.029,0.15-0.049,0.23-0.06
		l-0.102,0.011c0.08-0.011,0.17-0.011,0.262,0l-0.102-0.011c0.07,0.011,0.141,0.03,0.211,0.06l-0.09-0.039
		c0.049,0.02,0.1,0.049,0.148,0.09l-0.08-0.061c0.051,0.04,0.092,0.08,0.131,0.131l-0.061-0.08c0.021,0.02,0.029,0.039,0.039,0.069
		l-0.039-0.09c0.029,0.069,0.051,0.149,0.061,0.229l-0.01-0.1c0.02,0.12,0.02,0.24,0,0.359l0.01-0.1
		c-0.01,0.09-0.039,0.18-0.07,0.27l0.041-0.09c-0.01,0.021-0.021,0.041-0.031,0.062c-0.049,0.09-0.059,0.188-0.039,0.29
		c0.061,0.2,0.271,0.32,0.471,0.27c0.1-0.029,0.18-0.09,0.229-0.18c0.201-0.41,0.221-0.89,0.031-1.311
		c-0.041-0.079-0.102-0.159-0.17-0.219c-0.08-0.08-0.17-0.141-0.271-0.19c-0.211-0.101-0.439-0.14-0.67-0.11
		c-0.17,0.01-0.33,0.061-0.479,0.141c-0.15,0.109-0.271,0.26-0.33,0.439c-0.062,0.2,0.059,0.41,0.27,0.471l0,0
		C58.284,31.5,58.485,31.381,58.546,31.189L58.546,31.189z"/>
	<path fill="#211715" d="M11.942,35.908c-0.188-0.09-0.379-0.189-0.559-0.3c-0.08-0.05-0.16-0.101-0.24-0.16
		c-0.041-0.03-0.08-0.06-0.121-0.09c-0.02-0.01-0.039-0.03-0.049-0.04c-0.07-0.061,0.061,0.051-0.01-0.01
		c-0.23-0.17-0.432-0.36-0.631-0.57c-0.15-0.15-0.391-0.15-0.539,0c-0.141,0.15-0.141,0.391,0,0.54
		c0.199,0.22,0.408,0.41,0.648,0.589c0.352,0.27,0.721,0.51,1.119,0.7c0.18,0.101,0.41,0.04,0.521-0.14
		C12.185,36.25,12.124,36.02,11.942,35.908L11.942,35.908z"/>
	<path fill="#211715" d="M12.862,36.889c0.82,0.13,1.67,0.05,2.449-0.25c0.682-0.28,1.271-0.74,1.691-1.34
		c1.078-1.471,0.447-3.389,0.219-5.029c-0.061-0.2-0.27-0.32-0.469-0.27c-0.201,0.06-0.32,0.27-0.271,0.469
		c0.109,0.791,0.299,1.57,0.352,2.361c0.049,0.68-0.031,1.369-0.41,1.949c-0.721,1.09-2.09,1.561-3.359,1.359
		c-0.201-0.051-0.41,0.07-0.471,0.27C12.544,36.619,12.663,36.828,12.862,36.889L12.862,36.889z"/>
	<path fill="#211715" d="M13.185,32.479c0-0.261-0.221-0.79-0.682-0.7c-0.59,0.189-0.42,0.859-0.119,1.109
		C12.612,33.1,13.134,33.049,13.185,32.479z"/>
	<path fill="#211715" d="M16.134,31.66c-0.01-0.25-0.211-0.781-0.631-0.701c-0.529,0.17-0.359,0.83-0.09,1.08
		C15.644,32.24,16.103,32.209,16.134,31.66z"/>
	<path fill="#211715" d="M9.194,32.479c-0.461-0.14-0.961,0.04-1.221,0.45c-0.17,0.31-0.189,0.68-0.061,1.02
		c0.109,0.35,0.311,0.66,0.57,0.92c0.25,0.271,0.58,0.461,0.939,0.541c0.42,0.09,0.859-0.011,1.188-0.281
		c0.15-0.149,0.15-0.39,0-0.539c-0.148-0.141-0.389-0.141-0.539,0c0.051-0.041,0.021-0.01-0.01,0.01
		c-0.01,0.01-0.1,0.05-0.061,0.029c0.051-0.021-0.039,0.011-0.051,0.011c-0.029,0.01-0.061,0.021-0.1,0.021
		c-0.07,0.02,0.061,0-0.01,0c-0.031,0-0.061,0-0.09,0.01c-0.051,0-0.111,0-0.16,0c-0.07,0,0.08,0.02,0.02,0
		c-0.02,0-0.039-0.01-0.061-0.01c-0.029-0.011-0.061-0.021-0.1-0.031c-0.021-0.01-0.029-0.01-0.051-0.02c0.041,0.01,0.021,0.01,0,0
		c-0.061-0.029-0.129-0.07-0.18-0.109c-0.01-0.011-0.09-0.061-0.051-0.031c0.041,0.031,0,0-0.01-0.01S9.13,34.438,9.118,34.42
		C9.04,34.35,8.96,34.27,8.89,34.18c-0.01-0.01-0.021-0.03-0.039-0.04c0,0,0.039,0.05,0.01,0.021
		c-0.021-0.031-0.041-0.051-0.051-0.08c-0.039-0.061-0.07-0.121-0.1-0.181c-0.012-0.021-0.021-0.04-0.029-0.06
		c0,0.01,0.02,0.06,0.01,0.01c-0.01-0.03-0.021-0.061-0.031-0.09c-0.02-0.07-0.039-0.15-0.059-0.221c-0.012-0.039,0,0.021,0,0.03
		c0-0.021,0-0.03,0-0.05c0-0.029,0-0.061,0-0.09c0-0.01,0-0.03,0-0.04c0.01,0-0.021,0.069-0.012,0.04
		c0.012-0.02,0.012-0.04,0.012-0.061c0-0.01,0.01-0.02,0.01-0.029c0.01-0.051-0.01,0.039-0.021,0.039
		c0.012-0.02,0.029-0.039,0.041-0.069c0.02-0.04-0.021,0.04-0.021,0.03c0,0,0.031-0.03,0.031-0.041
		c0.01-0.01,0.029-0.02,0.039-0.039c-0.021,0.02-0.039,0.029,0,0c0.01-0.01,0.029-0.02,0.039-0.03c0.012,0,0.07-0.04,0.031-0.021
		c-0.041,0.021,0.01,0,0.02-0.01c0.021-0.01,0.041-0.01,0.07-0.02c0.02-0.01,0.068,0,0,0c0.02,0,0.051,0,0.068,0
		c0.012,0,0.061,0.01,0.021,0s0.061,0.02,0.061,0.02c0.199,0.051,0.41-0.06,0.471-0.27C9.515,32.75,9.394,32.539,9.194,32.479
		L9.194,32.479z"/>
	<path fill="#211715" d="M15.612,33.959c-0.08-0.129-0.189-0.24-0.318-0.31c-0.141-0.069-0.291-0.101-0.451-0.09
		c-0.229,0-0.459,0.06-0.66,0.19c-0.359,0.199-0.549,0.6-0.469,1c0.02,0.279,0.119,0.539,0.279,0.77
		c0.051,0.08,0.131,0.15,0.229,0.18c0.102,0.03,0.211,0.01,0.291-0.039c0.09-0.051,0.148-0.131,0.18-0.23
		c0.029-0.1,0.021-0.209-0.039-0.289c-0.029-0.04-0.061-0.08-0.08-0.131c-0.01-0.02-0.029-0.049-0.041-0.08
		c-0.029-0.069,0.031,0.091,0,0.011c-0.029-0.09-0.049-0.181-0.068-0.271l0.01,0.101c-0.01-0.101-0.01-0.19,0-0.29l-0.01,0.1
		c0-0.02,0.01-0.05,0.01-0.07c0.01-0.029,0.039-0.069-0.029,0.061c0.01-0.01,0.01-0.029,0.02-0.05s0.021-0.03,0.029-0.04
		c0.012-0.01,0.051-0.08,0.012-0.02c-0.051,0.06,0,0,0.01-0.01c0.01-0.011,0.02-0.021,0.039-0.041
		c0.021-0.02,0.031-0.02,0.041-0.029c-0.08,0.08-0.051,0.039-0.021,0.02c0.021-0.01,0.08-0.061,0.109-0.061
		c-0.02,0-0.1,0.041-0.02,0.011c0.02-0.011,0.029-0.011,0.051-0.021c0.039-0.01,0.09-0.02,0.129-0.029l-0.1,0.01
		c0.09-0.01,0.18-0.01,0.27,0l-0.1-0.01c0.029,0,0.051,0.02,0.08,0.02c-0.061-0.029-0.07-0.029-0.041-0.01
		c0.012,0.01,0.021,0.01,0.031,0.02c0.02,0.021,0.01,0.01-0.041-0.029c0.01,0.01,0.021,0.02,0.029,0.029
		c0.031,0.03,0.021,0.021-0.02-0.029c0.01,0.01,0.02,0.02,0.02,0.029c0.111,0.18,0.34,0.24,0.521,0.131
		C15.653,34.379,15.714,34.149,15.612,33.959L15.612,33.959z"/>
	<path fill="#211715" d="M13.413,28.4c0.359,0.52,0.85,0.959,1.41,1.26c0.568,0.28,1.158,0.5,1.77,0.66
		c0.479,0.131,0.68-0.609,0.201-0.74c-0.531-0.14-1.051-0.33-1.551-0.57c-0.471-0.239-0.869-0.579-1.17-1.01
		c-0.109-0.18-0.34-0.24-0.521-0.14C13.374,27.98,13.313,28.221,13.413,28.4L13.413,28.4z"/>
	<path fill="#211715" d="M13.333,28c-1.061,1.59-2.498,2.899-4.18,3.819c-0.43,0.24-0.039,0.899,0.391,0.66
		c1.791-0.99,3.318-2.39,4.449-4.099C14.263,27.98,13.604,27.59,13.333,28L13.333,28z"/>
	<path fill="#211715" d="M13.185,26.221c0.859,0.051,1.668,0.421,2.27,1.031c0.641,0.67,0.959,1.68,0.971,2.588
		c0.01,0.49,0.77,0.49,0.76,0c-0.01-1.119-0.41-2.31-1.189-3.129c-0.75-0.75-1.75-1.199-2.811-1.25c-0.209,0-0.379,0.17-0.379,0.381
		C12.794,26.051,12.964,26.221,13.185,26.221z"/>
	<path fill="#211715" d="M11.653,25.172c-0.99-0.121-1.99,0.109-2.83,0.66c-0.799,0.529-1.318,1.299-1.729,2.149
		c-0.379,0.8-0.699,1.64-1.07,2.449c-0.33,0.72-0.67,1.53-1.229,2.11c-0.33,0.34-0.84,0.549-0.959,1.049
		c-0.102,0.511,0.148,1.021,0.6,1.261c0.43,0.25,0.809-0.41,0.391-0.66c-0.131-0.06-0.221-0.181-0.25-0.31
		c-0.021-0.121,0.01-0.141,0.109-0.25c0.26-0.271,0.58-0.44,0.809-0.74c0.461-0.62,0.852-1.301,1.15-2.01
		c0.32-0.701,0.621-1.42,0.93-2.131c0.342-0.77,0.73-1.56,1.4-2.1c0.75-0.58,1.709-0.84,2.66-0.709c0.209,0,0.379-0.17,0.379-0.38
		C12.024,25.342,11.862,25.172,11.653,25.172z"/>
	<path fill="#211715" d="M9.685,36.158c-0.35,0.17-0.73,0.23-1.109,0.18c-0.41-0.029-0.801-0.14-1.17-0.319
		c-0.32-0.17-0.59-0.399-0.811-0.69c-0.17-0.27-0.23-0.6-0.15-0.9c0.051-0.199-0.068-0.409-0.27-0.469
		c-0.199-0.051-0.41,0.06-0.471,0.27c-0.119,0.48-0.051,0.98,0.182,1.42c0.27,0.42,0.639,0.77,1.08,1.01
		c0.488,0.26,1.027,0.41,1.578,0.45c0.529,0.069,1.061-0.03,1.529-0.28C10.493,36.578,10.114,35.908,9.685,36.158L9.685,36.158z"/>
	<path fill="#211715" d="M57.245,33.42c0.07,0.58,0.311,1.09,0.859,1.35c0.51,0.21,1.061,0.29,1.609,0.24
		c1.121-0.08,2.18-0.541,2.99-1.32c0.359-0.34-0.182-0.88-0.539-0.54c-0.611,0.58-1.391,0.96-2.221,1.069
		c-0.4,0.061-0.811,0.051-1.201-0.029c-0.389-0.05-0.697-0.37-0.729-0.76c-0.01-0.211-0.17-0.381-0.379-0.381
		C57.417,33.039,57.245,33.209,57.245,33.42L57.245,33.42z"/>
	<path fill="#211715" d="M65.694,42.328c0.74-0.57,1.469-1.17,2.17-1.791c0.148-0.15,0.148-0.39,0-0.539
		c-0.15-0.141-0.391-0.141-0.541,0c-0.33,0.299-0.67,0.59-1.01,0.869c-0.17,0.141-0.34,0.28-0.51,0.42
		c-0.08,0.07-0.17,0.131-0.25,0.2l-0.141,0.11l-0.061,0.05c-0.02,0.01-0.02,0.021-0.01,0.01l-0.021,0.021
		c-0.18,0.109-0.238,0.34-0.139,0.52C65.284,42.367,65.515,42.438,65.694,42.328L65.694,42.328z"/>
	<path fill="#211715" d="M35.38,54.896c-0.092-0.37-0.289-0.7-0.561-0.959c-0.16-0.14-0.318-0.261-0.49-0.39
		c-0.391-0.301-0.779-0.601-1.18-0.9c-0.84-0.63-1.68-1.24-2.529-1.859c-0.279-0.199-0.561-0.41-0.84-0.609
		c-0.18-0.1-0.42-0.041-0.52,0.14c-0.102,0.181-0.041,0.41,0.139,0.521c1.41,1.02,2.82,2.039,4.209,3.088
		c0.17,0.131,0.312,0.23,0.473,0.371c0.1,0.08,0.197,0.16,0.289,0.25c0.131,0.16,0.229,0.34,0.27,0.539
		C34.79,55.565,35.528,55.366,35.38,54.896L35.38,54.896z"/>
	<path fill="#211715" d="M32.36,50.006l1.939,1.94c0.33,0.33,0.66,0.66,0.988,0.979c0.15,0.171,0.32,0.301,0.521,0.41
		c0.219,0.09,0.469,0.131,0.709,0.121c0.49,0,0.49-0.761,0-0.761c-0.16,0.021-0.311-0.01-0.449-0.09
		c-0.16-0.13-0.311-0.28-0.451-0.431l-0.92-0.909l-1.799-1.8C32.55,49.117,32.011,49.657,32.36,50.006L32.36,50.006z"/>
	<path fill="#211715" d="M29.431,58.436c0.371-1.141-0.59-2.29-1.209-3.169c-0.541-0.771-1.131-1.521-1.641-2.32
		c-0.26-0.409-0.93-0.03-0.66,0.39c0.48,0.75,1.021,1.451,1.541,2.17c0.25,0.359,0.51,0.72,0.75,1.09
		c0.299,0.48,0.67,1.06,0.488,1.64C28.542,58.705,29.28,58.905,29.431,58.436L29.431,58.436z"/>
	<path fill="#211715" d="M29.421,51.946c0.08,0.921,0.25,1.83,0.5,2.709c0.119,0.44,0.25,0.87,0.391,1.3
		c0.129,0.4,0.209,0.871,0.469,1.211c0.15,0.149,0.391,0.149,0.541,0c0.141-0.15,0.141-0.391,0-0.541
		c-0.08-0.16-0.131-0.32-0.16-0.49c-0.07-0.209-0.131-0.42-0.199-0.629c-0.121-0.381-0.23-0.76-0.342-1.141
		c-0.219-0.79-0.369-1.609-0.449-2.43C30.142,51.457,29.382,51.457,29.421,51.946L29.421,51.946z"/>
	<path fill="#211715" d="M32.021,60.445c-0.529-0.22-1.029-0.63-1.51-0.949l-0.629-0.431c-0.053-0.03-0.102-0.06-0.143-0.101
		c-0.068-0.06-0.139-0.129-0.188-0.209c-0.031-0.051-0.062-0.101-0.092-0.15l-0.02-0.04c-0.02-0.12-0.061-0.09-0.121,0.09H29.12
		c0.689,0.11,1.359,0.54,2.08,0.45c0.42-0.05,0.789-0.311,0.979-0.7c0.09-0.26,0.131-0.54,0.109-0.81l-0.568,0.33
		c0.52,0.25,1.029,0.51,1.549,0.779c0.26,0.131,0.531,0.26,0.791,0.41c0.129,0.07,0.219,0.189,0.24,0.33
		c0.059,0.42-0.49,0.62-0.781,0.77C33.03,60.475,32.54,60.635,32.021,60.445c-0.459-0.17-0.66,0.57-0.199,0.74
		c0.699,0.26,1.391,0.05,2.039-0.27c0.561-0.281,1.15-0.621,1.199-1.32c0.021-0.27-0.059-0.551-0.219-0.77
		c-0.201-0.24-0.461-0.421-0.75-0.541c-0.66-0.34-1.32-0.68-1.99-1.01c-0.189-0.1-0.42-0.04-0.529,0.15
		c-0.029,0.06-0.051,0.119-0.051,0.18c0,0.18,0.041,0.41-0.07,0.561c-0.158,0.229-0.439,0.209-0.658,0.17
		c-0.33-0.07-0.66-0.16-0.99-0.261c-0.33-0.1-0.699-0.271-0.99,0.011c-0.52,0.51,0.18,1.31,0.611,1.6
		c0.318,0.22,0.639,0.439,0.969,0.65c0.439,0.33,0.92,0.609,1.42,0.85c0.199,0.05,0.41-0.061,0.471-0.27
		C32.341,60.705,32.22,60.506,32.021,60.445z"/>
	<path fill="#211715" d="M36.46,53.116c0.049,0.19,0.119,0.37,0.209,0.54c0.08,0.17,0.121,0.16-0.1,0.26
		c-0.541,0.23-1.1,0.4-1.641,0.631c-0.271,0.1-0.459,0.35-0.469,0.64c-0.012,0.29,0.188,0.54,0.357,0.76
		c0.391,0.49,0.941,0.79,1.57,0.63c0.58-0.181,1.131-0.441,1.629-0.791c0.5-0.32,1.012-0.609,1.551-0.859
		c0.5-0.23,1.01-0.53,1.24-1.061c0.25-0.57,0.059-1.289-0.561-1.529c-0.262-0.08-0.539-0.11-0.811-0.07
		c-0.381,0.02-0.75,0.07-1.119,0.119c-0.75,0.131-1.521,0.181-2.279,0.131c-0.211,0-0.381,0.17-0.381,0.38s0.17,0.38,0.381,0.38
		c1.141,0.109,2.26-0.189,3.398-0.25c0.33-0.02,0.859-0.029,0.689,0.48c-0.141,0.43-0.65,0.619-1.021,0.789
		c-0.459,0.211-0.908,0.461-1.338,0.74c-0.41,0.28-0.852,0.521-1.311,0.711c-0.199,0.069-0.41,0.159-0.619,0.069
		c-0.211-0.11-0.393-0.271-0.512-0.47c-0.02-0.04-0.051-0.09-0.078-0.131c-0.15-0.159,0.059,0-0.041,0.011
		c-0.012,0-0.102,0.021,0.029,0c0.039-0.011,0.08-0.03,0.119-0.04c0.25-0.09,0.5-0.18,0.75-0.27c0.311-0.121,0.631-0.23,0.92-0.371
		c0.211-0.1,0.371-0.289,0.439-0.51c0.121-0.41-0.17-0.74-0.27-1.119C37.069,52.437,36.329,52.637,36.46,53.116L36.46,53.116z"/>
	<path fill="#211715" d="M28.052,41.168c0.25,0.03,0.51,0.03,0.76,0.021c0.1,0,0.199-0.04,0.27-0.11c0.15-0.15,0.15-0.39,0-0.539
		c-0.068-0.07-0.17-0.111-0.27-0.111c-0.25,0.011-0.51,0-0.76-0.02c-0.102,0-0.201,0.04-0.271,0.11c-0.148,0.149-0.148,0.39,0,0.54
		l0.08,0.061C27.921,41.148,27.991,41.168,28.052,41.168z"/>
</g>
</svg>
