<?xml version="1.0" encoding="utf-8"?>
<!-- Generator: Adobe Illustrator 16.0.2, SVG Export Plug-In . SVG Version: 6.00 Build 0)  -->
<!DOCTYPE svg PUBLIC "-//W3C//DTD SVG 1.1//EN" "http://www.w3.org/Graphics/SVG/1.1/DTD/svg11.dtd">
<svg version="1.1" id="Layer_1" xmlns="http://www.w3.org/2000/svg" xmlns:xlink="http://www.w3.org/1999/xlink" x="0px" y="0px"
	 width="85px" height="85px" viewBox="0 0 85 85" enable-background="new 0 0 85 85" xml:space="preserve">
<g>
	<path d="M50.147,53.51c0.363-2.553,0.676-5.113,1.111-7.652c0.352-2.053,1.979-3.328,4.053-3.357
		c0.359-0.004,0.723-0.016,1.082,0.002c1.271,0.064,2.365,0.043,3.273-1.244c0.885-1.254,2.447-1.547,3.986-1.416
		c0.631,0.055,0.943-0.111,1.172-0.773c0.754-2.203,3.27-3.647,5.33-3.162c1.75,0.414,2.682,1.791,2.621,3.93
		c0.357,0,0.717-0.018,1.074,0.002c1.463,0.078,2.547,0.75,3.078,2.135c0.16,0.414,0.324,0.559,0.754,0.537
		c0.494-0.023,1.008-0.027,1.49,0.064c2.266,0.438,3.607,2.445,3.258,4.738c-0.506,3.314-0.965,6.639-1.465,9.955
		c-0.057,0.375,0.021,0.594,0.305,0.854c1.039,0.955,1.41,2.146,1.131,3.543c-0.537,2.66-1.063,5.324-1.582,7.988
		c-0.385,1.965-1.582,3.107-3.518,3.52c-0.146,0.143-0.328,0.213-0.527,0.217c-1.58,0.023-3.172,0.143-4.742-0.045
		c-2.285-0.273-3.764-2.361-3.336-4.639c0.516-2.729,1.057-5.451,1.637-8.166c0.496-2.311,2.152-3.605,4.521-3.621
		c0.805-0.006,1.609-0.01,2.416,0c0.525,0.01,0.838-0.193,0.912-0.736c0.434-3.107,0.928-6.205,1.344-9.314
		c0.107-0.811-0.336-1.293-1.168-1.42c-1.055-0.162-1.365,0.014-1.607,0.922c-0.129,0.482-0.232,0.973-0.371,1.453
		c-0.33,1.139-0.854,1.559-2.035,1.582c-1.275,0.027-2.553,0.008-3.83,0.008c-3.693,0.002-7.387,0.002-11.078,0
		c-0.334,0-0.668,0.016-0.998-0.027c-1.016-0.133-1.574-0.84-1.457-1.857c0.061-0.525,0.229-1.029,0.352-1.541
		c0.096-0.4-0.053-0.58-0.457-0.572c-0.111,0.002,0.027,0.008-0.084,0c-2.217-0.145-2.547,0.088-2.871,2.297
		c-1.285,8.734-2.576,17.469-3.836,26.205c-0.188,1.318-0.41,2.635-0.582,3.955c-0.146,1.117,0.258,1.615,1.371,1.701
		c0.084,0.006,0.166,0.01,0.25,0.01c7.357,0.006,14.715,0.01,22.074-0.004c1.229-0.002,1.541-0.303,1.764-1.525
		c0.09-0.49,0.164-0.984,0.248-1.479c0.205-1.213,0.588-1.391,1.684-0.773c1.295,0.242,1.297,0.242,1.127,1.537
		c-0.063,0.469-0.129,0.936-0.189,1.402c-0.307,2.314-1.945,3.756-4.316,3.756c-8.971,0.006-17.941,0.002-26.914,0.002
		c-11.859,0-23.72,0.002-35.58,0c-5.123,0-8.51-3.379-8.512-8.488c-0.002-7.389,0-14.775,0-22.164c0-1.316,0-1.316,1.318-1.363
		c1.16-0.469,1.586-0.191,1.588,1.088c0.01,7.441,0.006,14.883,0.002,22.324c0,0.84,0.061,1.664,0.383,2.451
		c0.869,2.105,2.506,3.193,4.723,3.219c6.273,0.064,12.551,0.016,18.824,0.031c0.691,0.002,0.928-0.281,0.922-0.945
		c-0.02-2.305,0-4.609-0.012-6.914c-0.004-0.91-0.086-0.986-1.016-0.988c-4.582-0.006-9.164-0.002-13.746-0.004
		c-0.361,0-0.723,0.02-1.082-0.031c-0.844-0.113-1.338-0.615-1.455-1.467c-0.033-0.248-0.029-0.498-0.029-0.748
		c-0.002-4.691-0.004-9.385,0-14.078c0.002-1.398,0.107-1.492,1.531-1.496c0.166,0,0.332-0.004,0.5,0.004
		c0.928,0.039,1.084,0.197,1.119,1.154c0.01,0.277,0.004,0.557,0.004,0.834c0,3.775-0.002,7.553,0.006,11.328
		c0,0.318-0.092,0.656,0.107,0.953c0.23-0.008,0.271-0.193,0.348-0.33c2.094-3.82,4.199-7.639,6.293-11.461
		c0.314-0.574,0.168-0.947-0.238-1.395c-3.621-3.98-7.26-7.947-10.854-11.955c-0.436-0.486-0.893-0.604-1.48-0.434
		c-2.414,0.697-3.965,2.25-4.641,4.67c-0.066,0.24-0.1,0.49-0.152,0.734c-0.221,1.066-0.59,1.252-1.646,0.826
		c-1.406-0.051-1.406-0.051-1.188-1.441c0.611-3.875,3.41-6.848,7.305-7.701c0.445-0.098,0.574-0.23,0.574-0.678
		c-0.014-7.635-0.012-15.271-0.004-22.907c0-0.351-0.115-0.651-0.238-0.957c-0.664-1.671-1.348-3.335-2-5.011
		c-1.342-3.434,0.846-6.65,4.527-6.653c7.332-0.006,14.662-0.006,21.992,0c3.811,0.003,5.967,3.171,4.582,6.72
		c-0.48,1.237-0.953,2.48-1.49,3.694c-0.23,0.524-0.057,0.649,0.412,0.731c0.9,0.156,1.799,0.324,2.691,0.524
		c1.846,0.416,3.033,2.039,2.833,3.843c-0.197,1.805-1.712,3.133-3.593,3.148c-0.498,0.004-0.996,0-1.607,0
		c0.492,1.248,0.963,2.443,1.436,3.638c0.326,0.823,0.678,1.638,0.977,2.47c0.371,1.033-0.182,1.854-1.277,1.885
		c-1.109,0.031-2.221,0.031-3.332-0.002c-0.469-0.016-0.604,0.121-0.596,0.594c0.027,1.859-0.006,3.721,0.018,5.581
		c0.014,1.071-0.158,2.091-0.691,3.122c1.191,0.093,2.33,0.193,3.436,0.52c2.768,0.814,4.992,2.385,6.593,4.777
		c1.199,1.799,2.301,3.66,3.49,5.465c0.365,0.553,0.439,0.904-0.26,1.17c-0.146,0.057-0.268,0.189-0.398,0.291
		c-0.789,0.963-1.223,0.941-1.881-0.066c-1.002-1.535-1.969-3.092-2.93-4.652c-0.425-0.689-0.921-1.318-1.511-1.875
		c-0.646-0.605-0.729-0.611-1.145,0.135c-1.502,2.691-2.969,5.402-4.457,8.102c-2.385,4.328-4.729,8.678-7.141,12.992
		c-0.338,0.605-0.613,1.246-0.992,1.832c-0.189,0.295-0.125,0.467,0.25,0.467c2.209,0.004,4.42,0.002,6.764,0.002
		c-0.65-0.787-1.096-1.508-1.176-2.396c-0.16-1.795,0.65-3.311,2.295-4.057c0.672-0.303,0.883-0.707,0.869-1.406
		c-0.035-1.889-0.021-3.775-0.008-5.666c0.008-0.977,0.152-1.107,1.105-1.139c2-0.063,2.053-0.061,1.979,1.91
		c-0.047,1.275,0.262,2.355,0.955,3.438c1.514,2.359,2.964,4.764,4.392,7.176c0.488,0.822,1.281,1.299,2,1.857
		c0.465,0.361,0.49-0.1,0.535-0.377c0.264-1.59,0.471-3.188,0.701-4.781c0.352-2.418,0.729-4.83,1.061-7.252
		C49.749,54.424,49.839,53.928,50.147,53.51z"/>
	<path fill="#D65246" d="M76.894,75.797c-1.328-0.117-1.328-0.117-1.531,1.271c-0.404,2.764-0.404,2.764-3.199,2.764
		c-7.025,0-14.053,0-21.078-0.002c-1.582,0-2.039-0.563-1.813-2.094c0.924-6.254,1.826-12.512,2.738-18.768
		c0.609-4.172,1.219-8.342,1.84-12.512c0.123-0.826,0.633-1.264,1.479-1.287c0.775-0.02,1.551-0.004,2.4-0.004
		c-0.041,0.781-0.328,1.469-0.48,2.18c-0.236,1.088,0.303,1.813,1.426,1.813c5.305,0.012,10.609,0.006,15.914,0.006
		c0.766,0,1.262-0.352,1.457-1.102c0.203-0.777,0.439-1.549,0.596-2.336c0.09-0.457,0.295-0.604,0.73-0.566
		c0.387,0.029,0.779-0.02,1.164,0.021c0.838,0.082,1.393,0.707,1.275,1.535c-0.473,3.352-0.984,6.695-1.463,10.043
		c-0.059,0.402-0.279,0.408-0.572,0.406c-1.057-0.004-2.111-0.01-3.166,0c-1.986,0.021-3.543,1.215-3.961,3.152
		c-0.627,2.896-1.225,5.805-1.754,8.723c-0.377,2.088,1.379,4.066,3.578,4.113c1.609,0.035,3.221,0.014,4.832,0.018
		C77.167,74.047,77.03,74.922,76.894,75.797z"/>
	<path fill="#34507B" d="M3.826,47.852c1.256-0.045,1.256-0.045,1.492-1.283c0.525-2.771,2.721-4.877,5.496-5.324
		c0.365-0.059,0.572,0.051,0.791,0.291c2.906,3.209,5.816,6.414,8.729,9.619c0.934,1.027,1.855,2.063,2.814,3.066
		c0.305,0.318,0.322,0.557,0.113,0.936c-2.24,4.057-4.463,8.123-6.691,12.186c-0.115,0.211-0.191,0.533-0.508,0.457
		c-0.395-0.096-0.213-0.461-0.213-0.701c-0.012-4.361-0.025-8.723,0.008-13.082c0.006-0.709-0.207-0.881-0.887-0.865
		c-1.797,0.039-1.797,0.008-1.797,1.771c0,4.582-0.002,9.166,0,13.748c0,1.43,0.4,1.828,1.828,1.828
		c4.861,0.002,9.723,0.016,14.582-0.014c0.695-0.004,0.959,0.119,0.943,0.895c-0.057,2.582-0.035,5.166-0.01,7.75
		c0.004,0.529-0.133,0.717-0.693,0.715c-6.471-0.02-12.943,0.008-19.414-0.021c-2.92-0.014-5.227-2.402-5.23-5.371
		c-0.014-7.527-0.006-15.055-0.006-22.582c0-1.338,0-1.338-1.348-1.387C3.826,49.604,3.826,48.729,3.826,47.852z"/>
	<path fill="#34507B" d="M50.147,53.51c-0.719,4.809-1.438,9.615-2.18,14.592c-1.025-0.938-2.166-1.496-2.848-2.648
		c-1.611-2.721-3.269-5.414-4.957-8.09c-0.381-0.604-0.305-1.211-0.326-1.838c-0.006-0.166-0.002-0.332-0.002-0.5
		c0-1.982-0.252-2.176-2.273-1.867c-0.494,0.074-0.389,0.387-0.389,0.666c-0.008,2.166-0.01,4.332,0,6.498
		c0.002,0.387-0.02,0.684-0.484,0.811c-2.939,0.799-3.596,4.605-1.467,6.375c0.061,0.051,0.1,0.127,0.201,0.262
		c-2.688,0-5.316,0-8.045,0c0.73-1.342,1.424-2.629,2.127-3.91c3.668-6.689,7.348-13.371,10.998-20.07
		c0.33-0.604,0.529-0.678,1.057-0.189c1.56,1.443,2.433,3.361,3.599,5.076c0.422,0.617,0.855,1.238,1.188,1.904
		c0.35,0.703,0.727,0.801,1.299,0.283c0.098-0.09,0.244-0.127,0.365-0.189c0.559,0.895,1.111,1.789,1.674,2.68
		C49.788,53.518,49.872,53.82,50.147,53.51z"/>
	<path fill="#FDC8A2" d="M37.865,26.5c-1.123,0-2.123-0.01-3.121,0.002c-1.084,0.012-1.553,0.492-1.572,1.586
		c-0.014,0.773,0.266,1.811-0.125,2.249c-0.453,0.51-1.512,0.141-2.305,0.153c-1.57,0.026-1.52,0.01-1.59,1.612
		c-0.037,0.841,0.154,1.177,1.053,1.081c0.824-0.087,1.666-0.004,2.498-0.025c0.355-0.008,0.494,0.088,0.477,0.463
		c-0.027,0.639-0.006,1.277-0.008,1.916c-0.01,1.875-1.074,2.957-2.936,2.959c-4.332,0.006-8.664,0.002-12.996,0.002
		c-1.139,0-2.277-0.021-3.416,0.01c-0.479,0.014-0.676-0.064-0.666-0.618c0.037-2.11,0.027-4.221,0.004-6.331
		c-0.004-0.408,0.16-0.662,0.428-0.928c1.422-1.405,2.834-2.82,4.244-4.239c0.996-1.004,0.906-1.771-0.285-2.543
		c-0.918-0.595-1.305-1.526-1.037-2.5c0.248-0.897,1.084-1.487,2.15-1.515c0.193-0.006,0.389-0.002,0.582-0.002
		c1.365,0,1.615-0.186,2.053-1.453c0.215-0.617,0.209-1.549,0.719-1.752c0.398-0.158,1.113,0.451,1.68,0.732
		c1.215,0.602,2.477,1.094,3.824,1.61c-0.492,0.604-0.973,1.163-1.014,1.946c-0.041,0.789,0.162,1.479,0.701,2.062
		c0.816,0.877,2.061,1.12,3.121,0.608c1.195-0.575,1.689-1.723,1.41-3.348c1.203,0.2,2.389,0.41,3.58,0.586
		c0.279,0.043,0.367,0.209,0.449,0.414C36.453,22.957,37.136,24.677,37.865,26.5z"/>
	<path fill="#DFDFDD" d="M19.341,67.83c2.121-3.873,4.166-7.611,6.217-11.348c2.689-4.906,5.393-9.805,8.066-14.721
		c0.246-0.451,0.506-0.615,1.02-0.613c1.09,0.008,2.154,0.119,3.215,0.371c0.621,0.145,0.697,0.342,0.367,0.936
		c-2.902,5.23-5.766,10.484-8.641,15.73c-1.648,3.012-3.307,6.021-4.939,9.041c-0.236,0.438-0.488,0.637-1.018,0.619
		C22.244,67.801,20.859,67.83,19.341,67.83z"/>
	<path fill="#34507B" d="M37.037,6.453c-1.111,0.125-2.09-0.068-3.045,0.207c-1.137,0.328-2.086,0.931-2.691,1.953
		c-0.27,0.457-0.58,0.564-1.068,0.563c-4.527-0.017-9.053,0.004-13.578-0.024c-0.664-0.004-0.842,0.185-0.83,0.836
		c0.031,1.844,0.002,1.846,1.803,1.846c4.055,0,8.109-0.002,12.162,0.003c0.338,0,0.709-0.112,0.871,0.401
		c0.277,0.875,0.268,0.928-0.652,0.928c-5.498,0-10.996-0.01-16.494,0.015c-0.596,0.002-0.869-0.176-1.074-0.741
		c-0.529-1.459-1.148-2.885-1.719-4.33C10.109,6.559,11,5.176,12.65,5.173c7.469-0.013,14.938-0.005,22.408-0.007
		C35.947,5.168,36.556,5.589,37.037,6.453z"/>
	<path fill="#FDC8A2" d="M74.704,70.496c-0.693,0-1.387,0.021-2.08-0.006c-0.813-0.031-1.209-0.527-1.051-1.326
		c0.531-2.715,1.07-5.428,1.625-8.139c0.156-0.773,0.645-1.197,1.463-1.195c1.33,0.004,2.662-0.012,3.992,0.006
		c0.912,0.014,1.303,0.512,1.123,1.408c-0.529,2.66-1.063,5.318-1.605,7.975c-0.188,0.916-0.619,1.262-1.555,1.277
		C75.979,70.506,75.341,70.496,74.704,70.496z"/>
	<path fill="#FDC8A2" d="M39.837,75.512c0-1.166,0.021-2.332-0.012-3.498c-0.012-0.453,0.115-0.684,0.557-0.85
		c1.373-0.514,2.728-1.08,4.087-1.625c0.027-0.01,0.055-0.02,0.08-0.027c0.783-0.271,3.002,1.596,2.879,2.41
		c-0.303,2.002-0.604,4.006-0.887,6.01c-0.051,0.354-0.102,0.75,0.008,1.072c0.246,0.73,0.014,0.863-0.693,0.844
		c-1.748-0.051-3.498-0.041-5.248-0.002c-0.59,0.012-0.826-0.092-0.791-0.754C39.882,77.902,39.837,76.705,39.837,75.512z"/>
	<path fill="#348ED8" d="M66.917,46.498c-1.969,0-3.938-0.023-5.904,0.016c-0.627,0.012-0.795-0.092-0.631-0.76
		c0.654-2.67,0.932-3.42,4.178-3.258c0.275,0.016,0.555-0.006,0.832,0.004c0.85,0.029,1.35-0.395,1.561-1.195
		c0.092-0.348,0.162-0.701,0.258-1.047c0.193-0.711,0.643-1.227,1.295-1.543c0.426-0.205,0.896-0.38,1.338-0.049
		c0.457,0.348,0.199,0.811,0.125,1.23c-0.053,0.297-0.166,0.586-0.229,0.883c-0.195,0.938,0.342,1.67,1.301,1.709
		c0.857,0.035,1.719-0.006,2.576,0.016c0.746,0.018,0.996,0.344,0.828,1.07c-0.184,0.781-0.434,1.547-0.582,2.334
		c-0.096,0.492-0.324,0.605-0.789,0.602C71.021,46.484,68.968,46.498,66.917,46.498z"/>
	<path fill="#DFDFDD" d="M33.171,75.164c0-1.357,0.02-2.719-0.01-4.078c-0.012-0.467,0.119-0.617,0.594-0.6
		c0.971,0.037,1.941,0.029,2.912,0.002c0.402-0.012,0.516,0.113,0.512,0.512c-0.016,2.775-0.016,5.549,0,8.324
		c0.002,0.396-0.104,0.525-0.51,0.516c-0.998-0.027-1.998-0.027-2.996-0.002c-0.4,0.012-0.518-0.109-0.512-0.512
		C33.185,77.939,33.171,76.553,33.171,75.164z"/>
	<path fill="#283F60" d="M22.345,41.166c1.139,0,2.107-0.006,3.078,0.004c0.211,0.002,0.639-0.08,0.42,0.338
		c-1.123,2.17-0.447,4.355,0.043,6.469c0.375,1.609-0.121,2.834-1.002,4.098c-0.729-0.57-1.311-1.299-1.908-2.012
		c-0.143-0.17-0.104-0.352-0.07-0.549c0.268-1.578,0.459-3.174,0.805-4.734c0.201-0.902,0.053-1.619-0.5-2.318
		C22.921,42.098,22.693,41.689,22.345,41.166z"/>
	<path fill="#283F60" d="M27.212,15.834c2.777,0,5.561-0.113,8.326,0.041c1.668,0.095,3.313,0.604,4.965,0.939
		c0.49,0.1,0.709,0.477,0.639,0.926c-0.086,0.535-0.48,0.76-1.027,0.763c-1.916,0.004-3.814-0.2-5.701-0.509
		C31.927,17.586,29.511,16.924,27.212,15.834z"/>
	<path fill="#79432A" d="M13.171,27.039c0-1.293,0-2.586,0-3.881c0-2.221,0-4.441,0-6.664c0-0.334-0.055-0.672,0.477-0.666
		c1.854,0.017,3.707,0.006,5.564,0.006c-0.039,0.884-0.346,1.265-1.258,1.424c-3.836,0.669-5.369,4.391-3.209,7.645
		c0.221,0.334,0.289,0.534-0.031,0.836c-0.475,0.445-0.902,0.941-1.35,1.416C13.3,27.117,13.236,27.078,13.171,27.039z"/>
	<path fill="#D5D5D3" d="M14.853,41.166c1.426,0,2.641,0.01,3.854-0.006c0.316-0.006,0.5,0.104,0.668,0.369
		c0.475,0.748,0.977,1.479,1.469,2.213c0.125,0.188,0.252,0.363,0.213,0.607c-0.16,0.973-0.318,1.945-0.502,3.082
		C18.623,45.309,16.806,43.313,14.853,41.166z"/>
	<path fill="#348ED8" d="M42.697,67.287c-0.125,0.117-0.141,0.139-0.164,0.152c-1.48,0.953-2.801,0.971-3.98-0.541
		c-0.418-0.535-1.057-0.895-1.553-1.371c-0.459-0.443-0.514-0.992-0.105-1.494c0.414-0.508,0.982-0.559,1.482-0.176
		C39.82,64.967,41.23,66.119,42.697,67.287z"/>
	<path fill="#FDB431" d="M36.525,9.177c-0.498,1.254-0.969,2.403-1.41,3.565c-0.146,0.383-0.336,0.416-0.688,0.273
		c-0.797-0.326-1.338-1.193-1.244-2.061c0.102-0.932,0.855-1.688,1.814-1.771C35.464,9.144,35.939,9.177,36.525,9.177z"/>
	<path fill="#D4D4D2" d="M30.916,41.166c-0.895,1.631-1.736,3.168-2.604,4.752c-0.525-1.637-0.391-3.018,0.381-4.479
		c0.107-0.203,0.232-0.279,0.451-0.277C29.691,41.17,30.238,41.166,30.916,41.166z"/>
	<path d="M18.505,75.777c0-1.281,0-1.281,1.51-1.281c1.156,0.002,1.156,0.002,1.156,1.553c0,1.115,0,1.115-1.594,1.115
		C18.505,77.164,18.505,77.164,18.505,75.777z"/>
	<path d="M25.236,74.496c1.27,0,1.27,0,1.27,1.523c0,1.145,0,1.145-1.563,1.145c-1.105,0-1.105,0-1.104-1.604
		C23.839,74.496,23.839,74.496,25.236,74.496z"/>
</g>
</svg>
