<?xml version="1.0" encoding="utf-8"?>
<!-- Generator: Adobe Illustrator 16.0.0, SVG Export Plug-In . SVG Version: 6.00 Build 0)  -->
<!DOCTYPE svg PUBLIC "-//W3C//DTD SVG 1.1//EN" "http://www.w3.org/Graphics/SVG/1.1/DTD/svg11.dtd">
<svg version="1.1" id="Layer_1" xmlns="http://www.w3.org/2000/svg" xmlns:xlink="http://www.w3.org/1999/xlink" x="0px" y="0px"
	 width="85px" height="85px" viewBox="0 0 85 85" enable-background="new 0 0 85 85" xml:space="preserve">
<title>Asset 3</title>
<g id="Layer_2">
	<g id="Layer_1-2">
		<path fill="#9DEAFE" d="M46.547,67.142H3.191v-7.898c0-2.174,1.678-3.951,3.852-3.951l0,0l2.074-5.234
			c0.987-2.766,3.653-4.643,6.617-4.643h14.814c2.174,0,4.246,0.987,5.629,2.766l5.531,7.111h0.592c1.877,0,3.752,0.789,5.037,2.172
			c1.385,1.383,2.074,3.26,2.074,5.234v1.68C49.314,65.761,48.127,67.044,46.547,67.142L46.547,67.142z"/>
		<path fill="#F2F2F2" d="M41.609,55.192H11.98l3.754-9.877l10.963-0.691c5.135-0.296,9.975,2.272,12.543,6.618L41.609,55.192z"/>
		<path fill="#2590F6" d="M41.609,63.093c2.172-0.098,4.049,1.68,4.049,3.854c0.1,2.172-1.678,4.049-3.852,4.049
			c-2.174,0.1-4.049-1.68-4.049-3.854v-0.098C37.758,64.97,39.438,63.192,41.609,63.093z M10.895,63.093
			c2.174,0,3.951,1.777,3.951,3.951c0,2.172-1.777,3.951-3.951,3.951l0,0c-2.173,0-3.951-1.779-3.951-3.951
			C6.943,64.87,8.722,63.093,10.895,63.093z"/>
		<polygon fill="#FFE177" points="28.178,45.315 28.178,40.179 22.252,40.179 22.252,45.315 		"/>
		<path fill="#FE596F" d="M67.783,14.007c8,0.099,14.42,6.717,14.322,14.717c0,8.099-14.322,29.432-14.322,29.432
			s-14.32-21.333-14.32-29.432C53.363,20.724,59.783,14.105,67.783,14.007z"/>
		<path fill="#FFFFFF" d="M67.783,21.315c4.051,0.1,7.211,3.357,7.111,7.408c0.197,3.949-2.863,7.309-6.814,7.406
			c-3.951,0.197-7.309-2.863-7.408-6.814c0-0.197,0-0.395,0-0.592C60.574,24.673,63.734,21.413,67.783,21.315L67.783,21.315z"/>
		<path d="M10.895,71.687c-2.371,0-4.247-1.777-4.543-4.148c-0.1,0.1-0.197,0.1-0.396,0.1H3.092c-0.296,0-0.592-0.297-0.592-0.594
			v-7.9c0-1.186,0.395-2.271,1.283-3.16c0.691-0.791,1.68-1.186,2.767-1.383l0.099-0.197c0.395-0.889,1.086-2.863,1.778-4.74
			c1.086-2.964,3.95-4.939,7.11-5.037c0.1,0,0.197,0,0.197,0h6.42c0.1,0,0.197,0,0.197,0h5.037v-3.951h-4.74v3.062
			c0,0.297-0.297,0.594-0.594,0.594c-0.295,0-0.592-0.297-0.592-0.594v-3.654c0-0.295,0.295-0.593,0.592-0.593h5.928
			c0.295,0,0.592,0.298,0.592,0.593v4.543h1.777c2.371,0,4.643,1.088,6.025,2.965l5.332,6.912h0.297
			c2.074,0,4.049,0.889,5.432,2.371c1.482,1.48,2.271,3.457,2.271,5.629v1.68c0,1.877-1.48,3.457-3.357,3.457
			c-0.1,0-0.197,0-0.297-0.1c-0.098,0.988-0.492,1.877-1.186,2.568c-0.789,0.889-1.975,1.383-3.16,1.383s-2.371-0.396-3.258-1.186
			c-0.791-0.691-1.285-1.68-1.383-2.766H24.424c-0.295,0-0.592-0.297-0.592-0.594s0.297-0.594,0.592-0.594h12.643
			c0.297-2.172,2.074-3.949,4.346-3.949c2.371-0.1,4.346,1.68,4.643,4.049c0.1,0,0.197-0.1,0.197-0.1
			c1.283,0,2.271-1.086,2.271-2.369v-1.68c0-1.777-0.691-3.555-1.877-4.84c-1.186-1.283-2.865-1.975-4.643-1.975h-0.592h-0.1H11.781
			c-0.197,0-0.395-0.1-0.494-0.197c-0.099-0.197-0.099-0.396-0.099-0.494l3.457-9.086c-2.37,0.295-4.444,1.976-5.333,4.246
			c-0.988,2.568-2.074,5.234-2.074,5.234c-0.099,0.197-0.295,0.395-0.494,0.395c-0.889,0-1.678,0.396-2.369,0.988
			c-0.594,0.594-0.988,1.48-0.889,2.371v7.406h2.271c0.099,0,0.296,0,0.396,0.1c0.197-2.271,2.172-4.049,4.543-4.049
			c2.271,0,4.246,1.775,4.444,3.949h2.074c0.296,0,0.593,0.297,0.593,0.594c0,0.295-0.296,0.592-0.593,0.592H15.14
			C15.142,69.909,13.166,71.687,10.895,71.687z M10.895,63.687c-1.876,0-3.357,1.48-3.357,3.357s1.48,3.357,3.357,3.357
			c1.778,0,3.26-1.383,3.357-3.062c-0.098-0.1-0.098-0.197-0.098-0.297s0-0.197,0.098-0.295
			C14.154,65.069,12.672,63.687,10.895,63.687z M38.352,67.241c0,0.891,0.395,1.777,1.086,2.371s1.58,0.986,2.469,0.889
			c0.889,0,1.779-0.395,2.371-1.086c0.594-0.691,0.988-1.482,0.889-2.469c0-0.891-0.395-1.777-1.086-2.371s-1.48-0.988-2.469-0.889
			l0,0c-1.877,0-3.26,1.58-3.26,3.357l0,0C38.352,67.142,38.352,67.142,38.352,67.241L38.352,67.241z M22.943,54.599h17.48
			l-4.838-6.221c-1.186-1.582-3.162-2.568-5.137-2.568h-7.506V54.599z M12.771,54.599h9.087V45.81h-5.729L12.771,54.599z
			 M67.783,71.587H53.166c-0.295,0-0.592-0.297-0.592-0.592c0-0.297,0.297-0.594,0.592-0.594h13.137L53.068,58.45
			c-0.197-0.197-0.197-0.395-0.197-0.592s0.295-0.396,0.494-0.396h7.109c0.297,0,0.594,0.297,0.594,0.594
			c0,0.295-0.297,0.592-0.594,0.592h-5.629L68.08,70.599c0.197,0.197,0.197,0.396,0.197,0.592
			C68.277,71.489,67.98,71.587,67.783,71.587z M27.191,60.13h-1.877c-0.295,0-0.594-0.297-0.594-0.592
			c0-0.297,0.297-0.594,0.594-0.594h1.877c0.295,0,0.592,0.297,0.592,0.594C27.783,59.833,27.486,60.13,27.191,60.13z
			 M67.783,58.747L67.783,58.747c-0.197,0-0.396-0.1-0.494-0.297c-0.592-0.889-14.418-21.529-14.418-29.729
			c-0.1-4.049,1.48-7.803,4.246-10.766c2.766-2.863,6.518-4.543,10.568-4.643c4.543,0,8.789,2.074,11.555,5.729
			c0.197,0.297,0.1,0.594-0.098,0.791c-0.299,0.197-0.596,0.098-0.791-0.1c-2.568-3.357-6.52-5.234-10.666-5.333
			c-3.754,0.099-7.211,1.58-9.779,4.247c-2.566,2.666-3.949,6.223-3.949,9.975c0,7.014,11.26,24.691,13.729,28.445
			c2.469-3.754,13.729-21.334,13.729-28.445c0-0.986-0.1-1.975-0.297-2.863c-0.098-0.297,0.1-0.592,0.395-0.69
			c0.299-0.101,0.596,0.099,0.691,0.396c0.197,0.986,0.297,2.074,0.297,3.16c0,8.197-13.826,28.84-14.42,29.729
			C68.178,58.649,67.98,58.747,67.783,58.747z M67.783,36.724c-1.975,0-3.752-0.691-5.234-2.074c-1.48-1.383-2.369-3.26-2.469-5.334
			c0-0.197,0-0.395,0-0.592c-0.1-4.248,3.357-7.803,7.703-7.901l0,0c4.346,0.099,7.803,3.653,7.705,7.901
			c0.098,2.072-0.691,3.949-2.074,5.529c-1.383,1.481-3.26,2.371-5.334,2.471C67.98,36.724,67.881,36.724,67.783,36.724z
			 M67.783,21.908c-1.777,0-3.457,0.79-4.74,2.074s-1.877,2.963-1.877,4.741c0,0.197,0,0.395,0,0.592
			c0.1,1.777,0.791,3.357,2.074,4.543c1.285,1.186,2.963,1.777,4.74,1.777c1.777-0.098,3.357-0.789,4.545-2.073
			c1.184-1.284,1.775-2.964,1.775-4.74C74.4,24.97,71.438,22.007,67.783,21.908z"/>
	</g>
</g>
</svg>
