<?xml version="1.0" encoding="utf-8"?>
<!-- Generator: Adobe Illustrator 16.0.0, SVG Export Plug-In . SVG Version: 6.00 Build 0)  -->
<!DOCTYPE svg PUBLIC "-//W3C//DTD SVG 1.1//EN" "http://www.w3.org/Graphics/SVG/1.1/DTD/svg11.dtd">
<svg version="1.1" id="Layer_1" xmlns="http://www.w3.org/2000/svg" xmlns:xlink="http://www.w3.org/1999/xlink" x="0px" y="0px"
	 width="85px" height="85px" viewBox="0 0 85 85" enable-background="new 0 0 85 85" xml:space="preserve">
<g>
	<g>
		<g>
			<path fill="#C9009E" d="M49.497,40.459c-0.415-0.778-1.082-1.396-1.978-1.82c-0.991-0.47-2.152-0.571-3.232-0.737
				c-2.321-0.355-4.658-0.649-7.009-0.755c-2.328-0.104-4.672-0.022-6.968,0.38c-1.046,0.184-2.096,0.419-3.091,0.781
				c-0.908,0.33-1.779,0.784-2.475,1.438c-1.172,1.104-1.578,2.623-1.749,4.131c-0.204,1.801-0.325,3.608-0.385,5.419
				c-0.113,3.422-0.003,6.847,0.19,10.265c0.097,1.711,0.215,3.421,0.338,5.131c0.105,1.473,0.151,3.039,1.04,4.313
				c0.927,1.329,2.574,2.018,4.172,2.5c4.196,1.265,8.706,1.578,13.05,0.906c1.924-0.297,3.839-0.793,5.53-1.716
				c1.691-0.923,3.151-2.303,3.883-4.021c0.697-1.638,0.697-3.456,0.688-5.223c-0.01-1.704-0.02-3.408-0.055-5.112
				c-0.069-3.336-0.233-6.675-0.681-9.985c-0.223-1.649-0.516-3.291-0.901-4.913C49.782,41.091,49.658,40.763,49.497,40.459z"/>
			<path fill="#FFC496" d="M20.604,68.111c0.085,1.239,0.279,2.472,0.608,3.671c0.082,0.298,0.171,0.592,0.27,0.884
				c0.088,0.261,0.185,0.533,0.35,0.757c0.154,0.209,0.363,0.293,0.618,0.312c0.309,0.022,0.622,0.029,0.932,0.036
				c0.626,0.013,1.259-0.005,1.875-0.125c0.237-0.047,0.544-0.085,0.726-0.261c0.18-0.174,0.197-0.468,0.224-0.702
				c0.075-0.643,0.037-1.3,0.032-1.945c-0.004-0.658-0.009-1.317-0.014-1.976c-0.005-0.659-0.054-1.337,0.02-1.993
				c0.074-0.658,0.261-1.302,0.365-1.956c0.124-0.781,0.196-1.57,0.239-2.36c0.021-0.38,0.036-0.763,0.059-1.141
				c0.018-0.288-0.201-0.591-0.396-0.785c-0.227-0.226-0.628-0.321-0.926-0.427c-0.353-0.125-0.713-0.23-1.077-0.316
				c-0.833-0.196-1.712-0.309-2.567-0.269c-0.246,0.012-0.422,0.076-0.516,0.317c-0.105,0.271-0.187,0.553-0.262,0.834
				c-0.319,1.204-0.442,2.464-0.533,3.704C20.54,65.614,20.518,66.865,20.604,68.111z"/>
			<path fill="#FFC496" d="M52.829,64.37c-0.09-1.24-0.214-2.5-0.532-3.704c-0.075-0.281-0.156-0.563-0.262-0.834
				c-0.094-0.241-0.271-0.306-0.517-0.317c-0.854-0.04-1.734,0.072-2.567,0.269c-0.364,0.086-0.724,0.191-1.077,0.316
				c-0.298,0.105-0.699,0.201-0.926,0.427c-0.195,0.194-0.414,0.497-0.396,0.785c0.023,0.378,0.039,0.761,0.06,1.141
				c0.043,0.79,0.115,1.579,0.239,2.36c0.104,0.654,0.291,1.298,0.364,1.956c0.074,0.656,0.025,1.334,0.021,1.993
				c-0.005,0.658-0.01,1.317-0.015,1.976c-0.004,0.646-0.042,1.303,0.033,1.945c0.027,0.234,0.044,0.528,0.224,0.702
				c0.182,0.176,0.489,0.214,0.727,0.261c0.616,0.12,1.249,0.138,1.875,0.125c0.311-0.007,0.623-0.014,0.932-0.036
				c0.255-0.019,0.464-0.103,0.618-0.312c0.165-0.224,0.261-0.496,0.35-0.757c0.099-0.292,0.188-0.586,0.27-0.884
				c0.329-1.199,0.523-2.432,0.608-3.671C52.941,66.865,52.92,65.614,52.829,64.37z"/>
			<path fill="#B8CAE6" d="M53.687,58.638c-0.159-1.777-0.383-3.549-0.664-5.312c-0.338-2.116-0.769-4.238-1.605-6.226
				c-0.72-1.708-1.758-3.313-3.175-4.551c-1.511-1.318-3.394-2.055-5.385-2.337c-2.039-0.288-4.103-0.11-6.135,0.158
				c-2.032-0.268-4.097-0.446-6.135-0.158c-1.991,0.282-3.875,1.019-5.385,2.337c-1.417,1.237-2.456,2.843-3.175,4.551
				c-0.837,1.987-1.267,4.109-1.605,6.226c-0.363,2.275-0.631,4.566-0.787,6.865c-0.002,0.032,0.037,0.061,0.065,0.068
				c2.358,0.664,4.783,1.11,7.229,1.31c-0.003,0.412-0.007,0.823-0.01,1.234c-0.025,3.145-0.05,6.29-0.072,9.435
				c-0.003,0.397-0.092,0.8-0.01,1.194c0.111,0.542,0.649,0.621,1.135,0.749c0.657,0.173,1.33,0.286,2.006,0.357
				c1.364,0.145,2.739,0.121,4.107,0.082c3.22-0.091,6.437-0.256,9.649-0.495c0.568-0.042,1.138-0.085,1.707-0.128
				c0.485-0.037,1.094-0.15,1.163-0.718c0.092-0.763-0.012-1.602-0.018-2.371c-0.012-1.58-0.023-3.16-0.035-4.74
				c-0.009-1.122-0.019-2.243-0.027-3.365c-0.003-0.411-0.007-0.822-0.01-1.234v-1.468C46.515,60.102,51.307,59.267,53.687,58.638z"
				/>
			<path fill="#AB007E" d="M41.432,40.376c0.171,0.088,0.343,0.169,0.51,0.271c1.284,0.777,2.256,2.123,2.936,3.538
				c0.379,0.787,0.683,1.611,0.957,2.44c0.284,0.861,0.551,1.729,0.792,2.602c0.493,1.785,0.864,3.623,0.834,5.444
				c-0.031,1.831-0.542,3.514-1,5.206c-0.036,0.131,0.153,0.139,0.2,0.064c0.899-1.426,1.506-3.029,1.828-4.785
				c0.287-1.565,0.366-3.197,0.293-4.831c-0.042-0.965-0.135-1.932-0.274-2.896c-0.134-0.927-0.3-1.856-0.553-2.766
				c-0.444-1.594-1.22-3.185-2.487-4.2c-1.012-0.809-2.285-1.125-3.413-0.861c-0.055-0.001-0.111,0-0.166,0.002
				c-0.239,0.014-0.702,0.064-0.722,0.412C41.155,40.194,41.3,40.308,41.432,40.376z"/>
			<path fill="#FFB57A" d="M52.97,44.966c-0.173-0.596-0.481-1.199-0.921-1.553c-0.245-0.197-0.547-0.32-0.843-0.423
				c-0.306-0.106-0.62-0.185-0.94-0.231c-1.243-0.181-2.523,0.097-3.572,0.791c-0.589,0.39-1.063,0.9-1.472,1.474
				c-0.615,0.862-1.07,1.722-0.584,2.764c0.181,0.388,0.504,0.801,0.933,0.924c0.487,0.141,0.833-0.24,1.053-0.625
				c0.263-0.458,0.482-0.944,0.67-1.438c0.109-0.287,0.205-0.58,0.288-0.877c0.036-0.125,0.074-0.255,0.108-0.386
				c0.551,0.284,1.195,0.395,1.8,0.514c0.511,0.101,1.04,0.251,1.41,0.618c0.286,0.283,0.474,0.69,0.846,0.843
				c0.403,0.166,0.89-0.057,1.131-0.419s0.28-0.825,0.235-1.258C53.088,45.457,53.04,45.212,52.97,44.966z"/>
			<path fill="#FFB57A" d="M37.246,50.348c-0.415-0.484-0.951-0.896-1.475-1.254c-0.552-0.378-1.152-0.689-1.801-0.863
				c-0.723-0.193-1.647-0.302-2.37-0.046c-0.644,0.228-1.288,0.281-1.797,0.803c-0.435,0.444-0.666,1.089-0.582,1.705
				c0.084,0.617,0.492,1.187,1.061,1.438c0.64,0.282,1.402,0.15,2.019-0.179c0.617-0.329,1.119-0.835,1.61-1.333
				c0.594,0.614,1.325,1.077,2.069,1.496c0.247,0.139,0.502,0.275,0.781,0.326c0.279,0.05,0.59,0.001,0.796-0.193
				C38.044,51.787,37.593,50.753,37.246,50.348z"/>
			<path fill="#AB007E" d="M31.623,40.147c-0.027-0.37-0.491-0.424-0.73-0.438c-0.056-0.003-0.111-0.004-0.167-0.003
				c-1.132-0.28-2.399,0.056-3.395,0.916c-1.249,1.078-1.993,2.769-2.406,4.463c-0.235,0.966-0.383,1.954-0.499,2.938
				c-0.121,1.024-0.194,2.053-0.218,3.077c-0.041,1.736,0.069,3.471,0.387,5.134c0.356,1.865,0.995,3.569,1.922,5.085
				c0.048,0.079,0.237,0.07,0.199-0.069c-0.492-1.798-1.035-3.585-1.102-5.531c-0.066-1.936,0.269-3.889,0.728-5.785
				c0.225-0.927,0.474-1.85,0.741-2.765c0.258-0.882,0.546-1.757,0.909-2.594c0.653-1.504,1.598-2.933,2.867-3.759
				c0.165-0.107,0.335-0.194,0.504-0.288C31.495,40.456,31.637,40.335,31.623,40.147z"/>
			<path fill="#FFF3EB" d="M43.543,43.187c-0.116-0.79-0.433-1.561-0.928-2.227c-0.567-0.761-1.384-1.372-2.321-1.743
				c-0.665-0.263-1.331-0.452-2.053-0.518c-0.792-0.072-1.59-0.085-2.385-0.039c-1.043,0.061-2.127,0.176-3.089,0.557
				c-0.938,0.371-1.754,0.982-2.321,1.743c-0.496,0.666-0.812,1.437-0.928,2.227c-0.061,0.412-0.076,0.838-0.011,1.25
				c0.068,0.438,0.25,0.834,0.528,1.198c0.504,0.661,1.142,1.298,2.008,1.571c0.787,0.249,1.662,0.235,2.449-0.006
				c0.414-0.127,0.813-0.318,1.147-0.571c0.342-0.26,0.595-0.592,0.779-0.954c0.04-0.079,0.077-0.16,0.113-0.24
				c0.035,0.08,0.072,0.161,0.112,0.24c0.185,0.362,0.437,0.694,0.779,0.954c0.333,0.253,0.733,0.444,1.147,0.571
				c0.788,0.241,1.662,0.255,2.449,0.006c0.866-0.273,1.504-0.91,2.008-1.571c0.278-0.364,0.459-0.76,0.528-1.198
				C43.619,44.024,43.604,43.599,43.543,43.187z"/>
			<g>
				<path fill="#FFC496" d="M36.939,41.008c-0.989,0.123-2.017-0.084-2.881-0.581c-0.22-0.126-0.429-0.271-0.625-0.432
					c-0.014,0.773-0.022,1.569,0.208,2.312c0.208,0.671,0.632,1.275,1.279,1.582c0.656,0.312,1.425,0.293,2.126,0.181
					c0.747-0.119,1.459-0.36,1.951-0.964c0.214-0.262,0.377-0.568,0.467-0.895c0.109-0.396,0.091-0.801,0.062-1.207
					c-0.024-0.332-0.053-0.664-0.082-0.996c-0.049,0.033-0.099,0.066-0.149,0.099C38.583,40.566,37.781,40.903,36.939,41.008z"/>
				<path fill="#FFBC87" d="M39.353,37.675c0.014-0.144,0.119-0.41,0.001-0.528c-0.043-0.043-0.101-0.057-0.16-0.064
					c-0.123-0.016-0.25-0.02-0.373-0.03c-0.232-0.019-0.463-0.038-0.695-0.055c-1.025-0.078-2.055-0.135-3.083-0.11
					c-0.245,0.006-0.49,0.022-0.734,0.024c-0.137,0-0.273-0.005-0.409-0.023c-0.116-0.016-0.228-0.053-0.343-0.072
					c-0.119-0.02-0.297,0.003-0.31,0.153c-0.005,0.067,0.026,0.124,0.075,0.158c0.147,0.864,0.132,1.744,0.118,2.618
					c-0.001,0.083-0.003,0.166-0.005,0.25c0.196,0.161,0.405,0.306,0.625,0.432c0.864,0.497,1.892,0.704,2.881,0.581
					c0.841-0.105,1.644-0.441,2.355-0.902c0.05-0.032,0.1-0.065,0.149-0.099c-0.049-0.57-0.096-1.141-0.11-1.711
					C39.329,38.089,39.333,37.881,39.353,37.675z"/>
			</g>
			<g>
				<g>
					<path fill="#A65500" d="M52.68,41.289c-0.036-0.219-0.072-0.416-0.141-0.626c-0.198-0.607-0.369-1.223-0.626-1.808
						c-0.013-0.028-0.024-0.056-0.037-0.084c-0.236-0.525-0.521-1.026-0.852-1.491c-0.331-0.465-0.707-0.895-1.123-1.275
						c0.294,0.886,0.699,1.729,1.014,2.608c0.314,0.88,0.539,1.82,0.447,2.75c-0.05,0.503-0.205,1.004-0.46,1.428
						c0.004,0.05,0.009,0.1,0.013,0.15c0.007,0.083,0.12,0.119,0.18,0.092c0.653-0.282,1.204-0.742,1.617-1.311
						C52.749,41.608,52.699,41.407,52.68,41.289z"/>
					<path fill="#9C5000" d="M52.074,34.46c-0.634-0.559-1.366-1.02-1.847-1.729c-0.581-0.858-0.709-1.956-0.736-2.999
						c-0.021-0.8,0.003-1.611-0.115-2.398c-0.13,0.116-0.257,0.235-0.38,0.359c-0.457,0.336-0.909,0.683-1.318,1.081
						c-0.615,0.598-1.078,1.341-1.297,2.204c-0.36,1.425-0.042,3.491,1.584,3.868c0.26,0.06,0.519,0.078,0.772,0.06
						c-0.215,0.75-0.218,1.573,0.011,2.338c0.358,1.201,1.181,2.161,1.669,3.299c0.307,0.714,0.416,1.475,0.485,2.246
						c0.255-0.423,0.41-0.924,0.46-1.428c0.092-0.93-0.133-1.87-0.447-2.75c-0.314-0.879-0.72-1.722-1.014-2.608
						c0.416,0.381,0.792,0.81,1.123,1.275c0.33,0.465,0.615,0.966,0.852,1.491c0.013,0.028,0.024,0.056,0.037,0.084
						c0.257,0.585,0.428,1.201,0.626,1.808c0.068,0.21,0.104,0.408,0.141,0.626c0.02,0.119,0.069,0.319,0.032,0.432
						c-0.027,0.087-0.058,0.172-0.093,0.255c-0.027,0.064,0.038,0.146,0.099,0.152c0.989,0.104,1.78-0.701,2.029-1.654
						c0.05-0.021,0.099-0.043,0.147-0.067c-0.138-0.962-0.32-1.917-0.665-2.819C53.769,36.381,53.02,35.295,52.074,34.46z"/>
					<path fill="#A65500" d="M56.459,37.021c-0.226-1.644-1.396-2.938-2.77-3.64c-0.393-0.201-0.802-0.361-1.221-0.484
						c-0.227-0.066-0.456-0.125-0.682-0.192c0.007-0.012,0.014-0.024,0.021-0.036c0.433-0.786,0.665-1.685,0.771-2.588
						c0.057-0.477,0.079-0.958,0.078-1.439c0-0.419,0.012-0.866-0.166-1.257c-0.318-0.702-1.147-1.104-1.847-0.906
						c-0.455,0.128-0.846,0.482-1.198,0.793c-0.023,0.021-0.047,0.042-0.07,0.063c0.118,0.787,0.094,1.598,0.115,2.398
						c0.027,1.042,0.155,2.141,0.736,2.999c0.48,0.708,1.213,1.17,1.847,1.729c0.945,0.835,1.694,1.921,2.155,3.128
						c0.345,0.902,0.527,1.856,0.665,2.819C56.058,39.835,56.642,38.352,56.459,37.021z"/>
				</g>
				<g>
					<g>
						<path fill="#9C5000" d="M20.246,38.736c0.934-1.271,1.433-2.879,1.392-4.479c-0.186,1.177-0.66,2.317-1.438,3.191
							c-0.749,0.841-1.788,1.419-2.886,1.511c-0.234,0.208-0.507,0.343-0.824,0.318c-0.106-0.008-0.108,0.114-0.042,0.168
							c0.621,0.511,1.479,0.542,2.252,0.412c0.069,0.084,0.144,0.162,0.223,0.235C19.422,39.706,19.869,39.25,20.246,38.736z"/>
						<path fill="#9C5000" d="M27.029,31.312c-0.335-1.611-1.182-3.093-2.291-4.257c-0.245-0.257-0.499-0.512-0.772-0.742
							c-0.562,1.996-0.665,4.142-0.277,6.2c0.241,1.279,0.667,2.545,0.619,3.849c-0.06,1.625-0.89,3.117-2.087,4.175
							c0.862,0.175,1.799-0.009,2.473-0.591c0.564-0.487,0.844-1.224,1.06-1.935c0.116-0.381,0.204-0.774,0.201-1.177
							c-0.003-0.392-0.085-0.783-0.217-1.149c-0.124-0.345-0.289-0.665-0.483-0.964c0.604,0,1.192-0.2,1.55-0.754
							C27.304,33.192,27.21,32.186,27.029,31.312z"/>
					</g>
					<path fill="#A65500" d="M24.308,36.363c0.048-1.304-0.378-2.57-0.619-3.849c-0.387-2.058-0.285-4.205,0.277-6.2
						c-0.252-0.212-0.521-0.403-0.813-0.551c-0.602-0.305-0.978-0.252-1.565,0.013c-1.074,0.484-1.178,1.643-1.145,2.753
						c0.03,0.999,0.317,1.985,0.715,2.893c0.075,0.172,0.154,0.347,0.236,0.521c-0.336,0.004-0.672,0.101-0.973,0.273
						c-0.549,0.315-0.964,0.84-1.272,1.401c-0.339,0.619-0.552,1.317-0.618,2.029c-0.036,0.386-0.027,0.776-0.085,1.16
						c-0.056,0.377-0.191,0.73-0.365,1.064c-0.185,0.355-0.437,0.796-0.767,1.09c1.098-0.091,2.137-0.669,2.886-1.511
						c0.777-0.874,1.252-2.014,1.438-3.191c0.041,1.6-0.458,3.209-1.392,4.479c-0.377,0.513-0.824,0.969-1.322,1.356
						c0.456,0.417,1.072,0.639,1.684,0.614c0.4-0.016,0.783-0.126,1.136-0.305c0.154,0.058,0.314,0.104,0.477,0.136
						C23.417,39.479,24.248,37.988,24.308,36.363z"/>
				</g>
				<g>
					<path fill="#FFC496" d="M48.821,24.024c-2.698-0.046-5.372-1.572-6.906-3.942c-3.481,2.773-7.727,4.539-12.151,5.042
						c-2.282,0.26-4.688,0.169-6.774-0.881c-0.936-0.471-1.792-1.169-2.45-2.012c-0.45,0.198-0.845,0.529-1.107,0.988
						c-0.396,0.693-0.456,1.569-0.189,2.329c0.263,0.753,0.833,1.372,1.512,1.739c0.592,0.321,1.265,0.44,1.923,0.389
						c0.317,1.244,0.781,2.449,1.397,3.574c0.919,1.679,2.163,3.17,3.684,4.281c1.604,1.171,3.465,1.951,5.365,2.367
						c1.696,0.371,3.441,0.448,5.152,0.255c1.737-0.197,3.436-0.68,5.017-1.433c1.57-0.748,3.021-1.767,4.25-3.026
						c1.337-1.371,2.418-3.033,3.096-4.866c0.128-0.347,0.24-0.7,0.337-1.057c1.119,0.018,2.229-0.599,2.762-1.636
						c0.336-0.657,0.438-1.442,0.303-2.183c-0.089-0.481-0.287-0.973-0.595-1.36C52.092,23.529,50.468,24.052,48.821,24.024z"/>
					<path fill="#FFBC87" d="M52.938,22.126c-0.378-0.24-0.806-0.263-1.229-0.23c-0.228,0.017-0.454,0.046-0.673,0.101
						c-0.32-1.305-0.828-2.556-1.408-3.765c0.022-0.02,0.031-0.051,0.017-0.093c-0.199-0.56-0.447-1.101-0.721-1.626
						c-0.263-0.504-0.543-1.009-0.88-1.464c-0.665-0.898-1.588-1.409-2.592-1.772c-2.112-0.763-4.402-0.913-6.611-0.938
						c-2.059-0.023-4.126,0.145-6.145,0.565c-1.99,0.415-3.937,1.066-5.75,2.02c-0.911,0.479-1.786,1.035-2.609,1.666
						c-0.758,0.582-1.603,1.288-1.815,2.299c-0.05,0.239-0.05,0.474-0.018,0.717c0.002,0.015,0.007,0.027,0.014,0.037
						c-0.154,0.805-0.263,1.62-0.319,2.441c-0.55-0.132-1.142-0.081-1.659,0.146c0.659,0.843,1.514,1.541,2.45,2.012
						c2.087,1.05,4.493,1.141,6.774,0.881c4.424-0.503,8.67-2.269,12.151-5.042c1.534,2.371,4.208,3.896,6.906,3.942
						c1.646,0.028,3.271-0.495,4.624-1.433C53.3,22.409,53.131,22.25,52.938,22.126z"/>
				</g>
				<g>
					<g>
						<path fill="#FFEEE4" d="M33.327,30.044c0.001-0.138-0.002-0.275-0.011-0.414c-0.034-0.537-0.13-1.077-0.29-1.605
							c-0.144-0.473-0.365-0.923-0.792-1.266c-0.794-0.635-1.918-0.744-2.829-0.408c-1.156,0.427-1.764,1.456-2.111,2.467
							c-0.001,0.001-0.003,0.003-0.004,0.004c-0.081,0.077-0.091,0.17-0.017,0.271c0.104,0.141,0.312,0.252,0.465,0.348
							c0.124,0.078,0.255,0.162,0.394,0.228c0.75,0.423,1.632,0.658,2.489,0.748c0.617,0.065,1.235,0.061,1.846,0.017
							c0.15-0.011,0.301-0.024,0.45-0.04c0.115-0.012,0.257-0.011,0.338-0.089C33.327,30.237,33.326,30.136,33.327,30.044z"/>
						<path fill="#754927" d="M33.409,28.774c-0.032-0.222-0.083-0.466-0.175-0.723c-0.09-0.258-0.226-0.529-0.415-0.792
							c-0.188-0.264-0.437-0.519-0.744-0.737c-0.154-0.109-0.323-0.21-0.508-0.288c-0.185-0.079-0.384-0.137-0.587-0.175
							c-0.407-0.076-0.812-0.056-1.175,0.022c-0.365,0.077-0.689,0.218-0.962,0.385c-0.274,0.167-0.501,0.36-0.688,0.557
							c-0.093,0.099-0.177,0.198-0.251,0.297c-0.074,0.099-0.139,0.197-0.198,0.292c-0.008,0.014-0.016,0.027-0.024,0.04
							c-0.227,0.104-0.471,0.177-0.729,0.212c-0.128,0.018-0.259,0.024-0.391,0.022c-0.115-0.001-0.252-0.038-0.361-0.017
							c-0.058,0.011-0.084,0.068-0.07,0.118c0.055,0.19,0.299,0.365,0.48,0.468c0.189,0.108,0.438,0.205,0.656,0.153
							c0.003,0,0.006-0.002,0.009-0.002c-0.025,0.095-0.041,0.172-0.048,0.227c-0.007,0.064-0.005,0.1,0.007,0.104
							c0.013,0.004,0.035-0.024,0.068-0.079s0.075-0.139,0.13-0.245s0.122-0.236,0.206-0.383c0.083-0.147,0.185-0.311,0.311-0.483
							c0.063-0.085,0.132-0.173,0.208-0.262c0.076-0.088,0.16-0.176,0.251-0.263c0.183-0.173,0.399-0.342,0.653-0.482
							c0.253-0.141,0.542-0.256,0.86-0.316c0.159-0.031,0.325-0.048,0.494-0.051c0.169-0.002,0.342,0.006,0.513,0.036
							c0.171,0.029,0.337,0.075,0.493,0.138c0.156,0.062,0.306,0.137,0.444,0.225c0.034,0.023,0.068,0.045,0.101,0.068
							c0.032,0.024,0.063,0.049,0.095,0.074s0.06,0.052,0.09,0.077s0.059,0.053,0.086,0.08c0.112,0.108,0.213,0.221,0.301,0.338
							c0.178,0.233,0.311,0.476,0.408,0.711c0.099,0.235,0.162,0.463,0.209,0.673c0.047,0.21,0.074,0.403,0.094,0.573
							c0.022,0.169,0.037,0.317,0.048,0.437c0.005,0.061,0.01,0.114,0.015,0.161s0.013,0.086,0.017,0.118
							c0.008,0.064,0.015,0.098,0.023,0.099c0.008,0,0.017-0.032,0.03-0.094c0.006-0.031,0.016-0.07,0.023-0.116
							c0.007-0.046,0.013-0.099,0.02-0.16c0.011-0.121,0.024-0.269,0.025-0.443C33.45,29.195,33.44,28.996,33.409,28.774z"/>
					</g>
					<g>
						<path fill="#A05E2B" d="M30.401,28.197c0.43-0.156,0.907-0.171,1.348-0.042c0.277,0.082,0.54,0.22,0.77,0.403
							c0.004-0.454-0.132-0.954-0.43-1.292c-0.33-0.375-0.83-0.619-1.309-0.678c-0.482-0.059-0.968,0.064-1.334,0.4
							c-0.058,0.053-0.112,0.112-0.162,0.174c-0.426,0.382-0.639,1.017-0.529,1.628c0,0.002,0,0.003,0.001,0.005
							c0.211,0.011,0.431-0.038,0.629-0.116C29.734,28.543,30.049,28.325,30.401,28.197z"/>
						<path fill="#C47335" d="M32.52,28.558c-0.23-0.183-0.493-0.321-0.77-0.403c-0.441-0.129-0.918-0.115-1.348,0.042
							c-0.352,0.128-0.667,0.346-1.016,0.484c-0.198,0.078-0.418,0.126-0.629,0.116c0.177,0.972,1.105,1.533,1.996,1.545
							c0.958,0.013,1.724-0.701,1.767-1.715C32.519,28.604,32.519,28.581,32.52,28.558z"/>
					</g>
					<path fill="#5C3619" d="M31.74,28.524c0.017-0.286-0.103-0.552-0.292-0.757c-0.062-0.076-0.135-0.138-0.218-0.189
						c-0.403-0.279-0.951-0.324-1.278,0.097c-0.043,0.056-0.079,0.115-0.107,0.176c-0.08,0.109-0.136,0.239-0.163,0.373
						c-0.079,0.393,0.058,0.813,0.359,1.07C30.703,29.855,31.687,29.405,31.74,28.524z"/>
					<path fill="#FFEEE4" d="M30.732,27.473c0.035-0.141,0.003-0.278-0.141-0.363c-0.21-0.125-0.526-0.019-0.696,0.128
						c-0.201,0.173-0.299,0.566-0.007,0.718c0.011,0.005,0.021,0.01,0.032,0.014c0.111,0.078,0.268,0.08,0.402,0.011
						C30.506,27.885,30.756,27.706,30.732,27.473z"/>
				</g>
				<g>
					<g>
						<path fill="#FFEEE4" d="M39.109,30.073c0.081,0.088,0.226,0.099,0.343,0.12c0.153,0.028,0.306,0.054,0.46,0.078
							c0.624,0.095,1.256,0.149,1.89,0.13c0.877-0.027,1.785-0.203,2.56-0.587c0.142-0.058,0.277-0.135,0.405-0.208
							c0.157-0.088,0.372-0.188,0.48-0.328c0.076-0.099,0.068-0.197-0.013-0.285c-0.002-0.001-0.003-0.003-0.005-0.004
							c-0.335-1.083-0.933-2.202-2.097-2.736c-0.915-0.42-2.057-0.397-2.879,0.197c-0.444,0.32-0.683,0.771-0.843,1.252
							c-0.179,0.539-0.293,1.095-0.345,1.656c-0.013,0.144-0.021,0.289-0.023,0.433C39.041,29.888,39.036,29.993,39.109,30.073z"/>
						<path fill="#754927" d="M46.357,28.085c-0.11-0.031-0.25-0.003-0.367-0.011c-0.134-0.009-0.267-0.026-0.396-0.055
							c-0.262-0.058-0.509-0.153-0.737-0.28c-0.008-0.015-0.016-0.029-0.023-0.043c-0.058-0.104-0.123-0.21-0.196-0.319
							s-0.156-0.219-0.249-0.329c-0.186-0.219-0.411-0.438-0.686-0.633c-0.273-0.195-0.599-0.366-0.968-0.475
							c-0.367-0.109-0.775-0.162-1.19-0.117c-0.207,0.023-0.41,0.067-0.6,0.134c-0.19,0.066-0.365,0.157-0.523,0.257
							c-0.318,0.202-0.578,0.446-0.777,0.705c-0.2,0.259-0.346,0.529-0.446,0.791c-0.103,0.261-0.161,0.512-0.201,0.741
							c-0.039,0.229-0.055,0.438-0.061,0.62c-0.004,0.183,0.004,0.339,0.012,0.467c0.004,0.064,0.009,0.121,0.015,0.169
							s0.015,0.09,0.02,0.124c0.012,0.067,0.02,0.102,0.028,0.102c0.008,0,0.016-0.035,0.026-0.102
							c0.005-0.034,0.015-0.075,0.021-0.124c0.006-0.048,0.013-0.104,0.02-0.167c0.015-0.126,0.035-0.279,0.063-0.456
							c0.026-0.176,0.06-0.375,0.114-0.592c0.055-0.215,0.125-0.449,0.233-0.687c0.105-0.237,0.248-0.479,0.436-0.708
							c0.093-0.115,0.2-0.225,0.316-0.328c0.029-0.026,0.058-0.052,0.09-0.076c0.031-0.024,0.061-0.05,0.094-0.073
							c0.033-0.023,0.065-0.046,0.098-0.069c0.034-0.022,0.07-0.042,0.105-0.062c0.143-0.081,0.296-0.145,0.457-0.197
							c0.16-0.053,0.33-0.086,0.504-0.103c0.175-0.018,0.35-0.012,0.521,0.003c0.171,0.016,0.339,0.048,0.5,0.092
							c0.321,0.088,0.611,0.23,0.865,0.396s0.47,0.357,0.652,0.552c0.092,0.098,0.175,0.196,0.25,0.293
							c0.076,0.098,0.145,0.195,0.207,0.289c0.124,0.189,0.225,0.368,0.307,0.528c0.083,0.16,0.148,0.301,0.202,0.417
							s0.096,0.207,0.128,0.267s0.056,0.091,0.068,0.088c0.013-0.003,0.015-0.04,0.009-0.107c-0.007-0.058-0.021-0.14-0.046-0.242
							c0.004,0.001,0.006,0.003,0.009,0.004c0.222,0.071,0.478-0.01,0.671-0.108c0.186-0.093,0.437-0.256,0.495-0.451
							C46.442,28.163,46.416,28.102,46.357,28.085z"/>
					</g>
					<g>
						<g>
							<path fill="#A05E2B" d="M42.161,28.091c-0.417-0.192-0.889-0.248-1.332-0.157c-0.279,0.057-0.545,0.172-0.782,0.335
								c0.017-0.452,0.176-0.938,0.487-1.248c0.345-0.344,0.851-0.543,1.327-0.56c0.48-0.017,0.954,0.147,1.3,0.512
								c0.054,0.058,0.104,0.121,0.151,0.187c0.401,0.416,0.582,1.062,0.445,1.66c-0.001,0.002-0.001,0.003-0.002,0.005
								c-0.209-0.007-0.423-0.074-0.615-0.168C42.804,28.491,42.502,28.248,42.161,28.091z"/>
							<path fill="#C47335" d="M40.047,28.269c0.237-0.163,0.503-0.278,0.782-0.335c0.443-0.091,0.914-0.035,1.332,0.157
								c0.341,0.157,0.643,0.4,0.98,0.566c0.192,0.094,0.406,0.161,0.615,0.168c-0.221,0.949-1.162,1.428-2.042,1.365
								c-0.95-0.067-1.674-0.841-1.668-1.854C40.045,28.314,40.046,28.291,40.047,28.269z"/>
						</g>
						<path fill="#5C3619" d="M42.464,29.208c0.31-0.229,0.464-0.635,0.405-1.031c-0.021-0.135-0.07-0.269-0.144-0.384
							c-0.025-0.063-0.057-0.125-0.097-0.184c-0.304-0.445-0.847-0.448-1.259-0.206c-0.084,0.043-0.16,0.1-0.224,0.169
							c-0.197,0.188-0.329,0.442-0.325,0.727C40.832,29.181,41.784,29.711,42.464,29.208z"/>
						<path fill="#FFEEE4" d="M41.868,27.343c-0.028-0.143,0.01-0.276,0.157-0.349c0.213-0.105,0.521,0.027,0.682,0.187
							c0.19,0.189,0.269,0.587-0.026,0.713c-0.011,0.005-0.021,0.008-0.032,0.011c-0.114,0.068-0.269,0.057-0.398-0.024
							C42.072,27.772,41.833,27.573,41.868,27.343z"/>
					</g>
				</g>
				<g>
					<path fill="#FAB27B" d="M34.668,31.763c-0.012-0.008-0.016-0.026-0.013-0.056c0.004-0.028,0.012-0.068,0.033-0.114
						c0.01-0.023,0.022-0.048,0.036-0.075c0.015-0.027,0.033-0.054,0.052-0.084c0.039-0.059,0.088-0.123,0.15-0.187
						c0.061-0.065,0.135-0.128,0.219-0.191c0.085-0.06,0.18-0.12,0.288-0.167c0.107-0.047,0.224-0.091,0.35-0.116
						c0.125-0.026,0.259-0.041,0.397-0.037c0.137,0.005,0.271,0.027,0.395,0.064c0.125,0.035,0.238,0.087,0.343,0.143
						s0.197,0.122,0.279,0.187c0.081,0.068,0.151,0.135,0.21,0.204c0.029,0.034,0.056,0.067,0.079,0.101
						c0.023,0.033,0.045,0.063,0.063,0.095c0.018,0.031,0.036,0.059,0.049,0.085c0.014,0.027,0.025,0.052,0.036,0.075
						c0.021,0.045,0.03,0.084,0.036,0.11c0.005,0.027,0.003,0.043-0.005,0.048c-0.008,0.006-0.024,0-0.045-0.015
						c-0.022-0.015-0.047-0.041-0.082-0.071c-0.017-0.015-0.036-0.032-0.056-0.051c-0.021-0.018-0.043-0.037-0.067-0.058
						c-0.048-0.041-0.104-0.084-0.168-0.129c-0.062-0.046-0.133-0.091-0.21-0.135c-0.079-0.042-0.162-0.085-0.254-0.119
						s-0.188-0.066-0.291-0.084c-0.102-0.019-0.208-0.033-0.316-0.037c-0.108-0.002-0.214,0.007-0.316,0.023
						c-0.102,0.016-0.199,0.044-0.29,0.075c-0.091,0.031-0.175,0.07-0.253,0.108c-0.077,0.041-0.147,0.082-0.21,0.124
						c-0.063,0.041-0.119,0.082-0.167,0.12c-0.025,0.019-0.048,0.036-0.069,0.053c-0.021,0.017-0.04,0.032-0.058,0.045
						c-0.037,0.026-0.065,0.049-0.089,0.061C34.697,31.768,34.679,31.771,34.668,31.763z"/>
				</g>
				<g>
					<path fill="#A65500" d="M28.267,25.739c-0.011-0.01-0.012-0.033-0.002-0.068c0.011-0.034,0.029-0.082,0.063-0.135
						c0.016-0.027,0.036-0.057,0.057-0.089c0.022-0.031,0.048-0.063,0.076-0.099c0.057-0.069,0.127-0.144,0.21-0.22
						c0.083-0.077,0.18-0.153,0.289-0.228c0.111-0.072,0.233-0.146,0.369-0.208c0.135-0.062,0.282-0.119,0.439-0.16
						c0.157-0.042,0.323-0.072,0.496-0.085c0.173-0.013,0.342-0.008,0.504,0.009c0.162,0.017,0.315,0.052,0.459,0.092
						c0.144,0.041,0.276,0.094,0.397,0.148c0.12,0.058,0.229,0.118,0.323,0.181c0.094,0.062,0.175,0.126,0.243,0.186
						c0.033,0.031,0.064,0.059,0.091,0.086c0.027,0.028,0.05,0.055,0.071,0.079c0.042,0.048,0.068,0.092,0.084,0.124
						c0.016,0.032,0.019,0.055,0.01,0.067c-0.01,0.012-0.032,0.013-0.065,0.004c-0.033-0.008-0.075-0.028-0.13-0.051
						c-0.053-0.025-0.118-0.055-0.192-0.09s-0.159-0.072-0.253-0.109c-0.093-0.039-0.197-0.076-0.309-0.112
						c-0.112-0.034-0.232-0.068-0.36-0.092c-0.128-0.024-0.262-0.046-0.402-0.054c-0.14-0.009-0.285-0.01-0.432,0
						c-0.147,0.012-0.29,0.035-0.427,0.065c-0.137,0.029-0.267,0.072-0.389,0.115c-0.123,0.043-0.235,0.096-0.341,0.146
						c-0.104,0.053-0.201,0.105-0.287,0.158c-0.086,0.052-0.164,0.103-0.231,0.148c-0.034,0.023-0.066,0.044-0.095,0.063
						c-0.029,0.021-0.056,0.039-0.081,0.055c-0.05,0.032-0.089,0.058-0.121,0.07C28.3,25.747,28.278,25.749,28.267,25.739z"/>
				</g>
				<g>
					<path fill="#A65500" d="M39.956,25.329c-0.01-0.011-0.009-0.034,0.003-0.068c0.013-0.032,0.036-0.078,0.074-0.127
						c0.019-0.025,0.04-0.053,0.064-0.082c0.024-0.029,0.053-0.058,0.084-0.09c0.062-0.062,0.138-0.129,0.227-0.195
						c0.088-0.067,0.191-0.132,0.306-0.195c0.116-0.06,0.243-0.12,0.382-0.167s0.289-0.089,0.448-0.113
						c0.159-0.025,0.326-0.038,0.497-0.034c0.171,0.006,0.338,0.028,0.496,0.062c0.158,0.033,0.308,0.083,0.445,0.138
						c0.139,0.055,0.265,0.122,0.38,0.188c0.113,0.07,0.215,0.14,0.302,0.212c0.088,0.072,0.162,0.143,0.224,0.209
						c0.03,0.034,0.058,0.064,0.082,0.095c0.024,0.031,0.045,0.059,0.063,0.085c0.037,0.052,0.06,0.098,0.072,0.131
						s0.015,0.056,0.004,0.067c-0.011,0.011-0.032,0.009-0.064-0.002c-0.032-0.011-0.072-0.036-0.124-0.064
						c-0.05-0.03-0.111-0.066-0.182-0.109c-0.07-0.042-0.15-0.087-0.24-0.134c-0.089-0.048-0.188-0.095-0.295-0.143
						c-0.107-0.044-0.223-0.091-0.347-0.128c-0.124-0.037-0.255-0.073-0.393-0.095c-0.137-0.023-0.28-0.039-0.427-0.044
						c-0.146-0.003-0.29,0.004-0.427,0.02c-0.138,0.015-0.27,0.043-0.394,0.073c-0.125,0.03-0.241,0.07-0.349,0.108
						c-0.108,0.042-0.208,0.083-0.297,0.126c-0.09,0.042-0.17,0.084-0.241,0.122c-0.036,0.019-0.069,0.037-0.1,0.053
						c-0.03,0.017-0.058,0.033-0.084,0.046c-0.052,0.025-0.093,0.047-0.125,0.057S39.966,25.34,39.956,25.329z"/>
				</g>
				<g>
					<path fill="#E66F70" d="M35.197,36.259c0.193,0.153,0.4,0.282,0.622,0.371c0.554,0.223,1.123,0.038,1.612-0.257
						c0.28-0.168,0.534-0.38,0.759-0.622C37.173,35.566,36.1,35.746,35.197,36.259z"/>
					<path fill="#FFFFF0" d="M35.68,35.118c0.691,0.182,1.443,0.022,2.036-0.379c0.396-0.269,0.721-0.639,0.963-1.063
						c-0.293,0.204-0.6,0.383-0.921,0.535c-0.476,0.226-0.982,0.416-1.513,0.414c-0.456-0.001-0.903-0.12-1.333-0.277
						c-0.199-0.073-0.396-0.154-0.59-0.24C34.63,34.605,35.13,34.974,35.68,35.118z"/>
					<path fill="#B84747" d="M39.262,33.209c-0.123,0.12-0.251,0.233-0.383,0.342c-0.017,0-0.034,0.005-0.048,0.016
						c-0.05,0.037-0.101,0.073-0.152,0.108c-0.243,0.425-0.568,0.795-0.963,1.063c-0.593,0.402-1.344,0.561-2.036,0.379
						c-0.55-0.145-1.05-0.513-1.358-1.01c-0.01-0.004-0.02-0.009-0.03-0.013c-0.183-0.081-0.379-0.211-0.583-0.176
						c-0.038,0.006-0.061,0.053-0.049,0.09c0.182,0.564,0.467,1.086,0.836,1.541c0.206,0.254,0.439,0.503,0.7,0.71
						c0.903-0.514,1.977-0.693,2.994-0.507c0.159-0.171,0.305-0.356,0.435-0.552c0.185-0.278,0.337-0.578,0.466-0.89
						c0.129-0.313,0.251-0.647,0.301-0.987C39.4,33.27,39.316,33.157,39.262,33.209z"/>
				</g>
				<g>
					<path fill="#FAB27B" d="M22.225,25.537c-0.027-0.103-0.06-0.212-0.104-0.323c-0.044-0.112-0.096-0.227-0.161-0.341
						c-0.063-0.114-0.137-0.229-0.221-0.339c-0.084-0.111-0.177-0.209-0.27-0.299c-0.094-0.09-0.191-0.167-0.287-0.237
						c-0.096-0.069-0.192-0.126-0.284-0.175c-0.092-0.048-0.181-0.087-0.263-0.117c-0.082-0.03-0.158-0.052-0.226-0.065
						c-0.068-0.013-0.127-0.021-0.178-0.021c-0.049-0.001-0.089,0.005-0.118,0.014c-0.028,0.009-0.044,0.02-0.049,0.036
						c-0.004,0.016,0.003,0.035,0.021,0.059c0.009,0.012,0.02,0.025,0.034,0.039c0.014,0.013,0.03,0.028,0.048,0.044
						s0.038,0.033,0.061,0.049c0.022,0.018,0.046,0.036,0.072,0.055c0.051,0.038,0.109,0.08,0.173,0.127
						c0.063,0.046,0.131,0.099,0.203,0.155c0.07,0.058,0.146,0.119,0.22,0.188c0.03,0.028,0.061,0.057,0.092,0.086
						c-0.089-0.001-0.172,0.009-0.244,0.027c-0.041,0.01-0.079,0.024-0.113,0.039s-0.065,0.031-0.092,0.047
						c-0.027,0.017-0.051,0.034-0.071,0.052c-0.02,0.018-0.037,0.035-0.049,0.055c-0.013,0.019-0.021,0.038-0.026,0.055
						c-0.005,0.019-0.006,0.034-0.003,0.049c0.003,0.014,0.01,0.028,0.022,0.043c0.011,0.013,0.027,0.027,0.046,0.039
						c0.019,0.013,0.041,0.021,0.065,0.03c0.025,0.008,0.052,0.015,0.082,0.021c0.029,0.006,0.061,0.01,0.093,0.014
						s0.067,0.006,0.102,0.007c0.069,0.002,0.141,0.001,0.214,0.001c0.071,0,0.139,0.002,0.2,0.005
						c0.031,0.002,0.061,0.003,0.088,0.005c0.027,0.003,0.055,0.003,0.081,0.004c0.015,0,0.028,0.001,0.042,0.001
						c0.043,0.058,0.085,0.116,0.125,0.174c0.063,0.091,0.118,0.185,0.169,0.274c0.051,0.09,0.095,0.179,0.137,0.262
						c0.04,0.084,0.078,0.164,0.11,0.238c0.032,0.074,0.06,0.143,0.085,0.204c0.013,0.03,0.024,0.059,0.035,0.085
						c0.01,0.027,0.021,0.051,0.032,0.073c0.021,0.043,0.037,0.078,0.054,0.101c0.018,0.023,0.032,0.035,0.045,0.034
						s0.024-0.015,0.037-0.042c0.011-0.027,0.022-0.065,0.029-0.116c0.009-0.05,0.012-0.111,0.012-0.183
						c0-0.071-0.005-0.153-0.016-0.242S22.25,25.64,22.225,25.537z"/>
					<path fill="#FAB27B" d="M53.504,24.056c-0.006-0.024-0.057-0.035-0.146-0.034c-0.022,0-0.048,0.001-0.074,0.002
						c-0.027,0.002-0.056,0.007-0.087,0.013c-0.062,0.013-0.132,0.025-0.206,0.052c-0.037,0.013-0.077,0.026-0.117,0.041
						c-0.041,0.015-0.081,0.035-0.124,0.053c-0.087,0.036-0.173,0.087-0.265,0.14c-0.045,0.026-0.089,0.059-0.135,0.09
						c-0.022,0.016-0.046,0.032-0.069,0.048c-0.021,0.018-0.044,0.036-0.066,0.054c-0.022,0.019-0.045,0.037-0.068,0.056
						c-0.022,0.019-0.045,0.038-0.066,0.06c-0.044,0.041-0.087,0.084-0.131,0.128c-0.04,0.047-0.081,0.093-0.12,0.139
						c-0.021,0.022-0.039,0.046-0.057,0.071c-0.018,0.024-0.035,0.048-0.053,0.071c-0.017,0.024-0.034,0.047-0.051,0.071
						c-0.016,0.025-0.031,0.049-0.046,0.073c-0.029,0.049-0.061,0.095-0.085,0.143c-0.051,0.097-0.099,0.188-0.132,0.28
						c-0.018,0.045-0.037,0.088-0.051,0.131c-0.013,0.043-0.025,0.085-0.037,0.125c-0.024,0.079-0.036,0.154-0.047,0.219
						c-0.005,0.033-0.01,0.063-0.012,0.091c-0.001,0.029,0,0.056,0,0.08c0.001,0.024,0.003,0.045,0.005,0.064
						s0.007,0.036,0.01,0.048c0.008,0.027,0.016,0.042,0.026,0.044c0.01,0.003,0.024-0.006,0.043-0.024
						c0.01-0.009,0.021-0.021,0.032-0.035s0.022-0.031,0.034-0.049c0.023-0.037,0.05-0.083,0.08-0.135
						c0.03-0.052,0.059-0.114,0.098-0.177c0.019-0.032,0.038-0.066,0.057-0.102c0.02-0.035,0.044-0.07,0.065-0.107
						c0.043-0.075,0.097-0.15,0.148-0.23c0.027-0.04,0.059-0.078,0.087-0.119c0.015-0.02,0.029-0.041,0.045-0.061
						c0.016-0.02,0.032-0.04,0.049-0.06c0.004-0.005,0.009-0.011,0.013-0.017c0.01,0.002,0.02,0.004,0.029,0.006
						c0.035,0.007,0.072,0.012,0.111,0.017c0.039,0.006,0.079,0.009,0.121,0.016c0.041,0.004,0.084,0.011,0.128,0.015
						c0.045,0.006,0.088,0.009,0.13,0.014c0.042,0.003,0.082,0.01,0.121,0.013c0.039,0.005,0.077,0.008,0.113,0.012
						c0.035,0.003,0.069,0.006,0.101,0.008c0.032,0.001,0.062,0.003,0.089,0.001s0.052-0.004,0.072-0.007
						c0.042-0.007,0.071-0.021,0.082-0.045c0.012-0.024,0.005-0.057-0.02-0.098c-0.012-0.021-0.028-0.043-0.049-0.066
						c-0.021-0.023-0.045-0.048-0.074-0.07c-0.059-0.047-0.134-0.092-0.223-0.131c-0.044-0.019-0.091-0.038-0.142-0.052
						c-0.05-0.015-0.103-0.026-0.156-0.036c-0.02-0.002-0.037-0.004-0.056-0.006c0.014-0.014,0.028-0.027,0.042-0.04
						c0.02-0.018,0.037-0.036,0.056-0.053c0.02-0.016,0.038-0.032,0.058-0.048c0.038-0.031,0.073-0.065,0.11-0.094
						c0.075-0.057,0.146-0.115,0.216-0.161c0.034-0.024,0.067-0.049,0.101-0.07c0.033-0.021,0.064-0.042,0.095-0.062
						c0.061-0.042,0.118-0.072,0.168-0.104c0.024-0.015,0.047-0.033,0.068-0.047c0.021-0.013,0.041-0.026,0.059-0.038
						C53.473,24.118,53.51,24.08,53.504,24.056z"/>
				</g>
				<path fill="#CFA300" d="M25.348,34.384c-0.1-0.136-0.209-0.266-0.324-0.39c-0.174-0.265-0.386-0.51-0.575-0.743
					c-0.375-0.46-0.776-0.905-1.215-1.3c-0.401-0.36-0.846-0.682-1.345-0.873c-0.246-0.095-0.543-0.197-0.806-0.136
					c-0.185,0.043-0.354,0.19-0.354,0.401c0.001,0.25,0.177,0.54,0.301,0.744c0.14,0.229,0.309,0.439,0.49,0.634
					c0.393,0.421,0.853,0.772,1.308,1.117c0.481,0.364,0.972,0.724,1.484,1.038c0.234,0.144,0.483,0.274,0.747,0.345
					c0.166,0.045,0.41,0.078,0.5-0.119C25.665,34.872,25.478,34.56,25.348,34.384z"/>
				<path fill="#CFA300" d="M52.194,31.988c-0.206-0.054-0.424,0.026-0.615,0.098c-0.217,0.082-0.43,0.168-0.64,0.269
					c-0.528,0.253-1.034,0.56-1.508,0.913c-0.46,0.343-0.933,0.722-1.265,1.208c-0.101,0.147-0.266,0.356-0.184,0.549
					c0.074,0.174,0.276,0.233,0.438,0.255c0.477,0.063,0.949-0.18,1.353-0.409c0.489-0.277,0.962-0.591,1.431-0.902
					c0.228-0.151,0.454-0.306,0.674-0.469c0.191-0.143,0.382-0.299,0.509-0.511C52.562,32.698,52.613,32.098,52.194,31.988z"/>
				<path fill="#A65500" d="M22.03,19.068c0.879,0.46,1.928,0.328,2.87,0.066c3.498-0.971,6.343-3.474,9.052-5.897
					c-1.048,2.778-2.935,5.205-5.34,6.86c3.009-0.728,5.988-1.753,8.488-3.58c2.49-1.819,4.474-4.518,4.964-7.646
					c-0.358,3.58,1.042,7.361,3.645,9.828c-0.253-1.511-0.507-3.021-0.76-4.528c0.995,1.904,2.495,3.526,4.282,4.63
					c0.472,0.291,1.003,0.555,1.536,0.476c0.698-0.104,1.181-0.754,1.527-1.391c0.589-1.085,0.995-2.278,1.207-3.513
					c-0.025-0.105-0.052-0.209-0.079-0.313c-0.304-1.117-0.761-2.211-1.316-3.221c-0.529-0.959-1.181-1.858-1.983-2.589
					c-1.533-1.397-3.76-2.136-5.688-1.396c-0.006,0.002-0.012,0.004-0.018,0.007c-0.353-0.389-0.779-0.705-1.229-0.967
					c-0.695-0.404-1.445-0.711-2.199-0.966c-1.611-0.546-3.295-0.812-4.979-0.842c-1.684-0.03-3.368,0.179-5,0.586
					c-1.626,0.405-3.252,0.983-4.69,1.876c-0.812,0.504-1.54,1.121-2.19,1.834c-0.666,0.731-1.248,1.54-1.831,2.346
					c-0.065,0.09,0.125,0.19,0.194,0.129c0.535-0.481,1.1-0.919,1.688-1.316c-0.229,0.317-0.449,0.64-0.666,0.96
					c-0.608,0.899-1.184,1.826-1.697,2.791c-0.53,0.998-0.993,2.042-1.348,3.124C20.576,17.509,21.095,18.579,22.03,19.068z"/>
				<path fill="#9C5000" d="M53.727,16.402c0.002-0.137,0.002-0.274-0.003-0.411c-0.017-0.545-0.096-1.086-0.221-1.617
					c-0.212,1.235-0.618,2.428-1.207,3.513c-0.347,0.637-0.829,1.288-1.527,1.391c-0.533,0.08-1.064-0.185-1.536-0.476
					c-1.787-1.104-3.287-2.727-4.282-4.63c0.253,1.507,0.507,3.017,0.76,4.528c-2.603-2.466-4.003-6.248-3.645-9.828
					c-0.49,3.128-2.475,5.827-4.964,7.646c-2.5,1.826-5.479,2.852-8.488,3.58c2.405-1.655,4.292-4.082,5.34-6.86
					c-2.709,2.423-5.554,4.926-9.052,5.897c-0.942,0.261-1.991,0.394-2.87-0.066c-0.935-0.49-1.454-1.559-1.559-2.651
					c-0.336,1.024-0.577,2.083-0.688,3.171c-0.07,0.682-0.087,1.37-0.045,2.054c0.012,0.193,0.007,0.387,0.02,0.581
					c0.007,0.123,0.018,0.246,0.039,0.366c0.01,0.058,0.001,0.151,0.079,0.146c0.074-0.004,0.18-0.093,0.248-0.129
					c0.103-0.054,0.197-0.114,0.307-0.155c0.205-0.077,0.427-0.111,0.646-0.097c0.272,0.017,0.539,0.108,0.765,0.259
					c0.106,0.071,0.201,0.141,0.311,0.204c0.135,0.078,0.275,0.146,0.417,0.209c0.409,0.184,0.841,0.31,1.273,0.423
					c1.343,0.351,2.76,0.369,4.127,0.163c0.067-0.01,0.135-0.021,0.203-0.033c1.392-0.234,2.737-0.678,4.051-1.18
					c0.64-0.244,1.275-0.505,1.896-0.795c-0.745,0.761-1.56,1.438-2.517,1.939c-0.547,0.286-1.123,0.502-1.725,0.631
					c-0.1,0.021-0.01,0.174,0.057,0.182c1.209,0.14,2.435,0.06,3.608-0.237c1.141-0.289,2.214-0.791,3.231-1.38
					c1.025-0.593,2.023-1.253,2.929-2.022c0.924-0.785,1.716-1.711,2.483-2.654c0.001-0.002,0.003-0.004,0.005-0.006
					c0.181,0.486,0.408,0.954,0.687,1.39c0.726,1.13,1.77,1.905,2.978,2.368c0.712,0.272,1.451,0.444,2.191,0.591
					c0.155,0.03,0.128-0.148,0.006-0.188c-0.457-0.152-0.831-0.578-1.129-0.958c-0.209-0.269-0.395-0.557-0.56-0.858
					c0.573,0.621,1.22,1.167,1.918,1.621c0.594,0.386,1.323,0.782,2.059,0.713c0.298-0.028,0.58-0.138,0.855-0.254
					s0.551-0.239,0.844-0.297s0.611-0.044,0.871,0.104c0.132,0.075,0.33,0.178,0.425-0.001c0.104-0.198,0.145-0.458,0.202-0.673
					c0.186-0.683,0.307-1.381,0.343-2.094C53.935,18.487,53.856,17.438,53.727,16.402z"/>
			</g>
			<g>
				<g>
					<polygon fill="#F29500" points="40.602,53.062 41.011,61.076 42.727,59.75 44.618,60.9 44.072,52.087 					"/>
					<polygon fill="#F29500" points="38.327,52.083 34.941,59.358 37.078,58.988 38.211,60.891 41.852,52.845 					"/>
					<path fill="#2B87FF" d="M46.9,50.279c0-0.681-0.553-1.232-1.233-1.233c0.588-0.343,0.786-1.099,0.442-1.687
						c-0.343-0.588-1.099-0.786-1.687-0.443l-0.001,0.001c0-0.001,0-0.001,0.001-0.001c0.334-0.594,0.125-1.346-0.469-1.681
						c-0.559-0.315-1.259-0.147-1.618,0.37c-0.059-0.627-0.585-1.117-1.228-1.117c-0.681,0-1.233,0.552-1.233,1.233
						c-0.343-0.589-1.099-0.787-1.687-0.443c-0.588,0.344-0.787,1.099-0.443,1.688c0,0,0,0,0,0c0,0,0,0-0.001,0
						c-0.593-0.335-1.346-0.125-1.68,0.468c-0.315,0.56-0.147,1.26,0.37,1.618c-0.627,0.059-1.117,0.586-1.117,1.228
						c0,0.682,0.552,1.233,1.233,1.233c-0.588,0.344-0.786,1.1-0.443,1.688c0.344,0.588,1.099,0.786,1.687,0.443
						c0,0,0-0.001,0.001-0.001c0,0,0,0.001,0,0.001c-0.335,0.593-0.125,1.346,0.468,1.681c0.559,0.315,1.259,0.146,1.619-0.37
						c0.059,0.627,0.585,1.117,1.228,1.117c0.681,0,1.233-0.552,1.233-1.233c0.344,0.588,1.099,0.787,1.687,0.443
						c0.589-0.344,0.787-1.099,0.443-1.688l0,0c0,0,0,0,0.001,0c0.593,0.335,1.345,0.125,1.68-0.468
						c0.315-0.56,0.147-1.26-0.369-1.618C46.409,51.449,46.9,50.922,46.9,50.279z M44.004,51.913
						c-0.224,0.396-0.204,0.863,0.01,1.229c-0.369-0.208-0.836-0.221-1.229,0.009c-0.393,0.229-0.611,0.641-0.612,1.064
						c-0.214-0.365-0.61-0.611-1.065-0.611c-0.419,0-0.789,0.209-1.012,0.529c-0.037-0.389-0.256-0.752-0.622-0.958
						c-0.396-0.224-0.863-0.204-1.229,0.01c0.208-0.37,0.221-0.837-0.008-1.229s-0.642-0.611-1.065-0.611
						c0.366-0.214,0.612-0.61,0.612-1.065c0-0.419-0.209-0.789-0.529-1.012c0.388-0.037,0.752-0.257,0.958-0.622
						c0.223-0.396,0.204-0.862-0.01-1.229c0.369,0.208,0.836,0.221,1.229-0.009c0.392-0.229,0.611-0.642,0.611-1.065
						c0.214,0.366,0.61,0.612,1.065,0.612c0.419,0,0.789-0.209,1.012-0.529c0.037,0.388,0.256,0.752,0.622,0.958
						c0.396,0.224,0.863,0.204,1.229-0.01c-0.209,0.369-0.222,0.837,0.008,1.229s0.642,0.61,1.065,0.611
						c-0.366,0.214-0.611,0.61-0.611,1.064c0,0.42,0.209,0.79,0.528,1.013C44.574,51.329,44.21,51.549,44.004,51.913z"/>
					<path fill="#FFA91F" d="M41.108,46.097c-2.31,0-4.183,1.873-4.183,4.183c0,2.311,1.873,4.184,4.183,4.184
						c2.311,0,4.183-1.873,4.183-4.184C45.291,47.97,43.419,46.097,41.108,46.097z M41.108,53.649c-1.861,0-3.369-1.509-3.369-3.37
						c0-1.86,1.508-3.369,3.369-3.369c1.86,0,3.369,1.509,3.369,3.369C44.478,52.141,42.969,53.649,41.108,53.649z"/>
					<circle fill="#2167C2" cx="41.108" cy="50.28" r="3.37"/>
				</g>
				<g>
					<path fill="#FFA91F" d="M42.771,49.87c0.205-0.164,0.397-0.345,0.576-0.537L41.95,49.13l-0.852-1.726l-0.852,1.726
						l-1.905,0.277l1.378,1.343l-0.053,0.31c0.083-0.004,0.165-0.01,0.247-0.019C40.952,50.936,41.957,50.523,42.771,49.87z"/>
					<path fill="#F29500" d="M43.347,49.333c-0.179,0.192-0.371,0.373-0.576,0.537c-0.813,0.653-1.818,1.065-2.856,1.171
						c-0.082,0.009-0.164,0.015-0.247,0.019l-0.272,1.588l1.704-0.896l1.703,0.896l-0.325-1.897l1.379-1.343L43.347,49.333z"/>
				</g>
			</g>
			<path fill="#D4DBE6" d="M46.515,60.102v1.468c2.446-0.199,4.871-0.646,7.229-1.31c0.027-0.008,0.067-0.036,0.064-0.068
				c-0.035-0.519-0.076-1.036-0.122-1.554C51.307,59.267,46.515,60.102,46.515,60.102z"/>
			<g>
				<path fill="#FFC496" d="M37.953,52.449c-0.506-0.303-1.109-0.255-1.673-0.21c-0.637,0.051-1.275,0.06-1.912,0.019
					c-0.656-0.042-1.324-0.12-1.962-0.284c-0.54-0.139-1.075-0.377-1.437-0.815c-0.025-0.123-0.041-0.248-0.044-0.373
					c-0.015-0.446,0.097-0.878,0.25-1.296c0.341-0.048,0.68-0.111,1.017-0.191c0.414-0.099,0.823-0.22,1.224-0.363
					c0.083-0.03,0.167-0.061,0.25-0.091c0.013,0.003,0.025,0.005,0.038,0.008c0.635,0.156,1.22,0.466,1.792,0.776
					c0.521,0.282,1.049,0.611,1.616,0.792c0.41,0.13,0.922,0.195,1.302-0.056c0.484-0.319,0.407-0.946,0.173-1.397
					c-0.266-0.514-0.679-0.944-1.134-1.295c-1.928-1.481-4.646-1.879-6.921-1.03c-2.303,0.859-3.981,2.75-5.404,4.677
					c-0.803,1.088-1.56,2.21-2.405,3.265c-0.843,1.053-1.773,2.03-2.708,3c-0.221,0.229-0.436,0.462-0.658,0.689
					c-0.017,0.017-0.018,0.039-0.011,0.054c-0.225,0.293-0.379,0.638-0.252,1.002c0.09,0.261,0.303,0.471,0.479,0.676
					c0.188,0.221,0.38,0.439,0.583,0.647c0.765,0.781,1.824,1.448,2.964,1.217c0.916-0.187,1.536-0.945,2.144-1.592
					c0.342-0.363,0.699-0.706,1.132-0.961c0.503-0.295,1.055-0.494,1.569-0.768c0.969-0.517,1.773-1.278,2.684-1.884
					c0.474-0.314,0.975-0.573,1.518-0.746c0.555-0.177,1.13-0.276,1.704-0.366c1.206-0.19,2.393-0.414,3.525-0.889
					c0.478-0.2,0.978-0.518,1.115-1.053C38.633,53.128,38.36,52.693,37.953,52.449z"/>
				<path fill="#FFCAA1" d="M38.317,53.225c-0.018-0.191-0.163-0.343-0.326-0.428c-0.446-0.231-0.936-0.125-1.393,0
					c-0.122,0.033-0.399,0.094-0.369,0.274c0.009,0.055,0.05,0.104,0.093,0.147c0.066,0.129,0.126,0.26,0.179,0.396
					c0.064,0.166,0.137,0.333,0.141,0.514c0.001,0.052,0.046,0.104,0.099,0.105c0.241,0.011,0.468-0.059,0.689-0.146
					c0.208-0.083,0.434-0.179,0.607-0.323C38.186,53.64,38.336,53.429,38.317,53.225z"/>
			</g>
			<g>
				<path fill="#FFC496" d="M65.309,50.876c-1.875-1.941-3.842-3.786-5.869-5.567c-0.958-0.841-1.923-1.681-2.938-2.451
					c-0.945-0.718-1.944-1.373-3.038-1.842c-1.163-0.5-2.395-0.727-3.66-0.696c-1.37,0.033-2.757,0.271-4.07,0.658
					c-0.266,0.079-0.536,0.176-0.733,0.379c-0.208,0.213-0.329,0.497-0.462,0.758c-0.323,0.636-0.646,1.271-0.969,1.907
					c-0.313,0.616-0.628,1.233-0.939,1.851c-0.243,0.482-0.479,1.011-0.474,1.562c0.005,0.465,0.274,1.053,0.796,1.104
					c0.299,0.03,0.566-0.137,0.8-0.303c0.237-0.169,0.463-0.355,0.675-0.556c0.841-0.794,1.47-1.781,2.041-2.778
					c0.127-0.222,0.252-0.445,0.376-0.668c1.348,0.323,2.642-0.57,3.994-0.317c0.586,0.11,1.117,0.461,1.252,1.074
					c0.144,0.655-0.172,1.345-0.562,1.854c-0.311,0.405-0.686,0.754-1.105,1.04c-0.183-0.009-0.365-0.024-0.548-0.043
					c-0.461-0.048-0.921-0.09-1.385-0.105c-0.923-0.033-1.849,0.009-2.765,0.126c-0.646,0.082-1.525,0.261-1.702,1.012
					c-0.181,0.762,0.521,1.319,1.146,1.563c1.579,0.616,3.35,0.518,5.011,0.646c0.893,0.068,1.76,0.235,2.623,0.472
					c0.866,0.237,1.722,0.515,2.602,0.697c0.914,0.189,1.867,0.278,2.79,0.103c0.14-0.026,0.281-0.06,0.423-0.098
					c0.655,0.706,1.274,1.446,1.847,2.221c-0.06,0.053,0.026,0.176,0.098,0.135c0.002-0.001,0.005-0.002,0.007-0.004
					c0.071,0.048,0.193,0.012,0.13-0.075c0.897-0.53,1.75-1.157,2.587-1.775c0.387-0.284,0.78-0.567,1.134-0.894
					c0.162-0.15,0.315-0.312,0.45-0.487c0.077-0.101,0.179-0.226,0.245-0.355C65.199,51.072,65.39,50.96,65.309,50.876z"/>
				<path fill="#FFCAA1" d="M46.666,48.267c-0.103-0.074-0.247-0.09-0.379-0.098c-0.011-0.004-0.021-0.007-0.033-0.007
					c-0.024,0-0.049,0.001-0.073,0.002c-0.211-0.012-0.423-0.004-0.633,0.024c-0.333,0.046-0.748,0.12-1.016,0.341
					c-0.288,0.238-0.259,0.645-0.094,0.948c0.104,0.193,0.304,0.316,0.522,0.381c0.016,0.009,0.032,0.017,0.048,0.023
					c0.336,0.156,0.795,0.147,1.155,0.114c0.133-0.012,0.374-0.027,0.478-0.128c0.057-0.056,0.03-0.119,0.021-0.191
					c-0.014-0.105-0.021-0.212-0.022-0.318c-0.002-0.201,0.019-0.403,0.062-0.601C46.739,48.59,46.839,48.393,46.666,48.267z"/>
			</g>
			<g>
				<path fill="#E6F0FF" d="M27.344,60.938c0.017-0.174-0.06-0.318-0.16-0.454c-0.244-0.331-0.511-0.646-0.791-0.948
					c-0.578-0.626-1.22-1.193-1.914-1.687c-0.742-0.527-1.538-0.952-2.36-1.338c-0.423-0.199-0.848-0.394-1.272-0.59
					c-0.149-0.069-0.358-0.22-0.531-0.201c-0.172,0.019-0.311,0.246-0.416,0.364c-0.454,0.51-0.89,1.037-1.286,1.594
					c-0.26,0.366-0.84,1.003-0.652,1.486c0.097,0.252,0.312,0.437,0.521,0.606c1.741,1.42,3.623,2.656,5.501,3.89
					c0.263,0.173,0.534,0.351,0.839,0.437c0.369,0.104,0.456-0.133,0.681-0.399c0.586-0.692,1.123-1.433,1.595-2.208
					C27.203,61.321,27.325,61.141,27.344,60.938z"/>
				<path fill="#004E93" d="M26.183,64.206c-0.896-0.957-1.78-1.924-2.768-2.788c-0.49-0.43-1.003-0.835-1.544-1.198
					c-0.555-0.373-1.144-0.689-1.736-0.997c-0.674-0.35-1.349-0.699-1.982-1.12c-0.035-0.023-0.111-0.055-0.145-0.01
					c-1.206,1.581-2.464,3.123-3.732,4.655c-3.662,4.423-7.607,8.626-11.423,12.917c-0.155,0.175-0.318,0.364-0.347,0.597
					c-0.041,0.324,0.19,0.616,0.42,0.85c1.386,1.4,3.236,2.225,5.043,3.008c0.779,0.338,1.639,0.86,2.508,0.79
					c0.94-0.076,1.839-0.325,2.613-0.877c0.791-0.562,1.418-1.321,2.036-2.069c0.977-1.186,1.954-2.37,2.931-3.555
					c0.851-1.031,1.57-2.121,2.431-3.146c0.876-1.044,1.703-2.136,2.553-3.198c0.874-1.092,1.771-2.165,2.688-3.22
					c0.154-0.178,0.31-0.354,0.465-0.531C26.221,64.28,26.21,64.235,26.183,64.206z"/>
			</g>
			<g>
				<path fill="#E6F0FF" d="M64.778,48.734c-0.168-0.048-0.323,0.001-0.476,0.075c-0.369,0.18-0.728,0.387-1.074,0.607
					c-0.72,0.456-1.393,0.985-2.003,1.58c-0.651,0.635-1.212,1.342-1.74,2.082c-0.271,0.38-0.539,0.764-0.809,1.146
					c-0.095,0.134-0.28,0.312-0.293,0.485s0.187,0.351,0.283,0.475c0.421,0.538,0.86,1.062,1.338,1.551
					c0.313,0.322,0.835,1.007,1.345,0.909c0.266-0.051,0.485-0.229,0.69-0.404c1.71-1.458,3.264-3.088,4.813-4.714
					c0.218-0.228,0.44-0.462,0.581-0.747c0.169-0.344-0.05-0.472-0.271-0.741c-0.576-0.701-1.208-1.362-1.886-1.965
					C65.13,48.941,64.975,48.789,64.778,48.734z"/>
				<path fill="#004E93" d="M67.36,50.495c-1.103,0.709-2.212,1.405-3.24,2.222c-0.511,0.405-1.002,0.837-1.456,1.304
					c-0.467,0.479-0.883,1.001-1.292,1.529c-0.466,0.6-0.931,1.201-1.458,1.749c-0.029,0.029-0.074,0.1-0.036,0.141
					c1.339,1.471,2.631,2.985,3.909,4.508c3.581,4.262,7.366,8.376,11.05,12.58c0.14,0.16,0.307,0.333,0.52,0.336
					s0.385-0.165,0.529-0.32c2.118-2.276,4.235-4.554,6.354-6.83c0.134-0.144,0.276-0.313,0.26-0.509
					c-0.045-0.507-1.038-1.271-1.363-1.638c-0.525-0.592-1.055-1.182-1.586-1.77c-1.062-1.176-2.134-2.343-3.215-3.5
					c-1.889-2.021-3.934-3.935-5.744-6.017c-0.917-1.056-1.812-2.131-2.685-3.223c-0.147-0.184-0.294-0.368-0.439-0.553
					C67.44,50.471,67.394,50.474,67.36,50.495z"/>
			</g>
		</g>
	</g>
</g>
</svg>
