<?xml version="1.0" encoding="utf-8"?>
<!-- Generator: Adobe Illustrator 16.0.0, SVG Export Plug-In . SVG Version: 6.00 Build 0)  -->
<!DOCTYPE svg PUBLIC "-//W3C//DTD SVG 1.1//EN" "http://www.w3.org/Graphics/SVG/1.1/DTD/svg11.dtd">
<svg version="1.1" id="Layer_1" xmlns="http://www.w3.org/2000/svg" xmlns:xlink="http://www.w3.org/1999/xlink" x="0px" y="0px"
	 width="85px" height="85px" viewBox="0 0 85 85" enable-background="new 0 0 85 85" xml:space="preserve">
<g>
	<path fill="none" d="M21.899,66.445c-0.125-0.521-0.254-1.042-0.385-1.562c-0.322-1.288-0.646-2.576-0.971-3.863
		c0.322,1.457,0.654,2.913,1.037,4.357C21.677,65.74,21.78,66.098,21.899,66.445z"/>
	<path fill="#FDD2B4" d="M48.321,3.248l2.57-0.047c0.035-0.146,0.08-0.283,0.139-0.412c0.045-0.104,0.104-0.2,0.17-0.291h-2.186
		C48.759,2.732,48.519,2.98,48.321,3.248L48.321,3.248z M35.114,2.498h-0.148l0.061,0.056C35.026,2.554,35.058,2.533,35.114,2.498
		L35.114,2.498z M15.983,45.376c0.189,0.335,0.369,0.677,0.537,1.022c-0.164-0.591-0.309-1.186-0.408-1.788
		c-0.025,0.194-0.055,0.389-0.092,0.58C16.009,45.253,15.997,45.313,15.983,45.376z M63.427,73.855
		c0.012,2.269,0.061,4.661,1.043,6.669c-1.168-3.891-1.383-8.341-0.438-12.267c-0.184,0.361-0.391,0.71-0.623,1.042
		C63.415,70.818,63.421,72.338,63.427,73.855L63.427,73.855z M41.583,63.44l-0.178-0.044c-0.262,0.522-0.488,1.073-0.729,1.613
		C41.001,64.5,41.302,63.976,41.583,63.44z M33.829,9.912c0.152-0.363,0.217-0.844,0.23-1.36C34.015,9.01,33.938,9.465,33.829,9.912
		z M45.292,64.301c-0.184-0.397-0.381-0.783-0.604-1.142L45.292,64.301z"/>
	<path fill="#FDD2B4" d="M61.72,79.129c-0.08-0.068,0.025-0.188,0.109-0.143c0.172,0.091,0.342,0.188,0.512,0.289
		c-0.068-0.073-0.131-0.153-0.176-0.246c-0.096-0.195-0.105-0.423-0.117-0.642c-0.072-1.7-0.146-3.4-0.223-5.101
		c-0.035-0.836-0.037-1.756,0.234-2.524c-0.156,0.125-0.316,0.243-0.482,0.353c-0.504,0.334-1.414,0.427-1.502-0.172
		c-0.035-0.235,0.104-0.46,0.234-0.658c1.488-2.29,2.639-4.806,3.348-7.442c0.529-1.973,0.811-4.002,1.094-6.024
		c0.471-3.389,1.674-6.574,3.609-9.412c-0.049,0.288-0.107,0.575-0.172,0.861c0.332-0.896,0.635-1.803,0.859-2.735
		c-0.023-0.113-0.049-0.228-0.07-0.341c-0.062-0.34-0.109-0.684-0.139-1.027c-0.658-1.213-1.309-2.432-1.951-3.652
		c-0.266,1.173-0.619,2.317-0.898,3.298c-0.863,3.04-1.66,6.1-2.391,9.175c0.143-2.362,0.457-4.713,0.945-7.028
		c0.238-1.137,0.52-2.284,0.426-3.44c-0.154-1.917-2.215-4.335-4.238-4.443c-2.375-0.127-4.281,2.452-6.322,3.323
		c-0.982,0.418-1.949,0.384-2.783,0.02c-1.125-0.493-2.002-1.59-2.33-2.982c-0.521-2.233,0.211-4.62,1.5-6.52s3.088-3.389,4.9-4.795
		c0.979-0.76,2.117-1.544,3.344-1.36c1.012,0.152,1.803,0.934,2.482,1.698c0.352,0.394,0.721,0.81,1.096,1.243
		c-0.039-2.082,0.127-4.481,0.934-5.689c0.107-0.16,0.229-0.319,0.359-0.475c0.002-0.024,0.008-0.049,0.023-0.071
		c0.488-0.764,1.031-1.32,1.775-1.854c0.408-0.291,0.965-0.689,1.523-0.9c-0.141-0.184-0.129-0.447-0.012-0.642
		c-0.029-0.007-0.061-0.019-0.088-0.031l-0.42,0.288c0.115-0.182,0.154-0.378,0.143-0.577c-0.131-0.174-0.266-0.346-0.4-0.514
		c-3.113-2.397-7.178-3.315-11.062-4.143c-1.703-0.362-3.473-0.725-5.174-0.34l0.189-0.452c-0.904,0.254-1.809,0.508-2.713,0.761
		l1.525-0.798c-0.277,0.108-0.555,0.216-0.832,0.322c-0.059,0.021-0.113-0.068-0.062-0.108c1.434-1.111,3.475-2.042,5.449-2.303
		c-1.654-0.535-3.334-1.271-3.832-2.688c-0.422-0.627-0.49-1.588-0.555-2.254c-0.01-0.098,0.146-0.115,0.17-0.021
		c0.131,0.527,0.383,0.98,0.605,1.471c0.17,0.37,0.416,0.68,0.479,1.084c0.414,0.215,0.836,0.422,1.262,0.621
		c-0.432-1.732-1.436-4.48-1.014-6.184l-2.57,0.048c-0.328,0.446-0.535,0.942-0.506,1.497c0.016,0.343,0.129,0.672,0.229,1
		c0.383,1.268,0.609,2.578,0.67,3.902c-2.412-0.133-4.867-0.231-7.258,0.188c-0.35,0.062-6.012,1.999-5.221,2.493
		c0.545,0.342,1.133,0.609,1.748,0.798c-0.477-0.058-0.951-0.113-1.428-0.169c-0.553-0.066-1.105-0.131-1.66-0.188
		c0.1,0.031,0.197,0.065,0.297,0.103c0.115,0.043,0.094,0.2-0.029,0.211c-1.213,0.112-2.447-0.082-3.668-0.027
		c-1.23,0.056-2.424,0.356-3.65,0.441c-0.02,0.001-0.041,0.001-0.061-0.001c-0.637,0.243-1.27,0.487-1.895,0.742
		c0.027,0.121,0.055,0.244,0.08,0.366l-0.229-0.306c-0.359,0.146-0.717,0.297-1.072,0.453c-1.543,0.999-2.883,2.31-3.912,3.835
		c-0.07,0.104-0.141,0.214-0.168,0.337c-0.057,0.267,0.094,0.528,0.225,0.768c0.805,1.47,1.059,3.168,1.295,4.827
		c-0.055-0.147-0.113-0.294-0.178-0.438c0.424,1.384,0.494,3.312,0.443,4.973c0.479-0.562,0.955-1.099,1.402-1.6
		c0.68-0.766,1.469-1.546,2.482-1.698c1.227-0.184,2.365,0.601,3.344,1.36c1.814,1.406,3.611,2.896,4.9,4.795
		c1.289,1.898,2.025,4.286,1.5,6.52c-0.326,1.394-1.203,2.489-2.332,2.982c-0.832,0.364-1.799,0.398-2.783-0.021
		c-2.039-0.871-3.945-3.45-6.32-3.322c-2.023,0.108-4.084,2.525-4.238,4.443c-0.094,1.156,0.188,2.304,0.426,3.44
		c0.486,2.315,0.803,4.666,0.945,7.028c-0.73-3.075-1.527-6.135-2.393-9.175c-0.311-1.093-0.715-2.389-0.986-3.702
		c-0.271,0.52-0.543,1.036-0.818,1.554c1.865,4.352,2.525,9.258,3.484,13.952c1.232,6.03,3.387,12.424,8.498,15.856
		c-1.154-0.005-1.854,1.261-2.182,2.367c-0.654,2.209-0.875,4.545-0.645,6.838c1.818-0.244,3.129-2.421,4.945-2.154
		c0.18,0.026,0.35,0.076,0.516,0.146c0.836-0.012,1.461,0.52,2.082,1.198c0.891,0.972,1.438,1.91,2.424,2.636h1.285
		c-0.289-0.142-0.512-0.414-0.723-0.666c-1.455-1.733-3.363-3.081-5.484-3.872c1.072-0.088,2.152,0.06,3.162,0.431
		c0.357,0.132,0.73,0.295,1.107,0.239c0.818-0.12,1.143-1.15,1.064-1.973c-0.158-1.655-0.975-2.917-0.508-4.622
		c0.65-2.375,2.762-2.417,3.961-0.396c0.463,0.78,0.68,1.682,0.844,2.573c0.275,1.499,0.422,3.02,0.438,4.544
		c0.01,1.158-0.133,2.473-1.051,3.177c-0.438,0.336-0.984,0.474-1.537,0.563h2.939c0.123-0.104,0.24-0.213,0.352-0.328
		c0.162-0.171,0.42,0.087,0.26,0.26c-0.023,0.023-0.045,0.046-0.068,0.068h0.281c0.182-0.131,0.352-0.281,0.502-0.449
		c-0.004,0.151-0.025,0.302-0.061,0.449h1.369c-0.135-0.087-0.268-0.179-0.395-0.276c-0.049-0.035-0.023-0.13,0.043-0.104
		c0.336,0.128,0.658,0.262,0.977,0.381h3.5c0.742-0.406,1.25-1.044,1.957-1.633c1.176-0.979,2.541-1.78,4.031-2.146
		c0.125-0.03,0.217,0.161,0.092,0.218c-1.492,0.664-2.906,1.291-4.137,2.403c-0.412,0.37-0.768,0.796-1.178,1.157h15.453
		c-0.143-0.373-0.346-0.725-0.613-1.036C63.688,80.534,62.655,79.904,61.72,79.129L61.72,79.129z M49.915,40.266
		c0.938,2.708,2.18,5.151,3.559,7.649c0.086,0.153-0.145,0.287-0.234,0.138c-1.477-2.394-2.566-5.089-3.436-7.756
		C49.78,40.225,49.892,40.196,49.915,40.266L49.915,40.266z M51.288,55.523c-1.229,2.074-2.27,4.256-3.105,6.519
		c-0.225,0.601-0.434,1.245-0.301,1.871c0.174,0.799,0.855,1.365,1.438,1.938c0.855,0.841,1.57,1.812,2.117,2.88
		c-1.521-0.188-2.873-1.126-3.871-2.292c-0.998-1.165-1.691-2.555-2.377-3.929c-0.713-1.433-1.438-2.908-1.582-4.502
		c-0.08-0.868,0.018-1.74,0.154-2.604c0.062-2.794,0.125-5.588,0.189-8.382c0.404,2.144,0.955,4.254,1.648,6.32
		c0.328,0.98,0.809,2.071,1.793,2.388C48.651,56.135,50.06,55.04,51.288,55.523L51.288,55.523z M41.778,20.694
		c0.008-0.042,0.076-0.041,0.084,0c0.082,0.443,0.062,0.926,0.027,1.374c-0.01,0.088-0.131,0.088-0.139,0
		C41.716,21.62,41.696,21.138,41.778,20.694L41.778,20.694z M24.624,25.648c-0.037,0.018-0.07-0.038-0.033-0.055
		c1.408-0.667,2.924-1.353,4.455-1.657c0.057-0.011,0.074,0.063,0.023,0.083C27.593,24.589,26.081,25.019,24.624,25.648z
		 M31.995,28.464c-1.273-1.401-2.684-2.824-4.512-3.314c2.084-0.692,5.486-1.408,7.037-3.064c1.496-1.603,1.959-4.447,1.23-6.458
		c0.496,1.373,1.588,2.677,2.199,4.034c0.285,0.634,0.547,1.276,0.787,1.929c-0.188-0.911-0.426-1.805-0.752-2.655
		c-0.193-0.501-1.207-1.77-1.201-2.247c0.018-1.349,1.734-1.61,2.725-1.119c0.326,0.162,0.521,0.5,0.682,0.827
		c1.152,2.383,1.299,5.111,1.424,7.756c0.168,3.556,0.334,7.111,0.434,10.668c0.033-3.406,0.078-6.811,0.061-10.198h0.021
		c0.031,0.693,0.066,1.39,0.1,2.087c0.027-1.754,0.121-3.507,0.277-5.254c0.137-1.523-0.357-5.231,0.918-6.305
		c0.529-0.445,1.898-0.565,2.371,0.071c0.219,0.292,0.225,0.677,0.137,1.086c0.068-0.098,0.166-0.174,0.262-0.246
		c0.775-0.581,1.619-1.067,2.512-1.453c-0.637,0.657-1.211,1.373-1.713,2.137c-0.104,0.155-0.207,0.331-0.182,0.516
		c0.127,0.911,1.729,1.178,2.393,1.556c1.027,0.585,1.904,1.402,2.967,1.943c1.203,0.613,2.445,1.142,3.723,1.583
		c0.654,0.227,2.822,1.241,3.465,0.965c-2.625,1.129-4.994,2.823-6.949,4.904c-3.889,4.136-4.832,9.522-6.535,14.858
		c-1.051-5.283-2.385-10.823-1.918-16.228c0.148-1.727,0.371-3.446,0.695-5.148c0.305-1.594,1.078-3.185,1.145-4.785
		c0.002-0.051,0.004-0.101,0.006-0.15c-0.186,0.536-0.461,1.069-0.588,1.449c-0.812,2.475-1.342,5.042-1.566,7.638
		c-0.279,3.19-0.104,6.4,0.07,9.598c0.168,3.03,0.336,6.061,0.502,9.089c-0.129-2.362-1.043-4.857-1.363-7.23
		c-0.1-0.738-0.188-1.477-0.264-2.218c0.174,5.102,0.213,10.219-0.123,15.255c-0.01,0.143-0.215,0.144-0.223,0
		c-0.105-2.071-0.166-4.15-0.197-6.232l-0.76-5.253c0.195,2.422,0.143,4.923-1.025,6.569C37.851,39.09,36.653,33.583,31.995,28.464z
		 M33.946,45.949c-1.262,3.15-4.619,5.686-7.773,6.679c-0.068,0.021-0.115-0.087-0.049-0.118c1.564-0.721,3.031-1.572,4.336-2.707
		c1.326-1.155,2.209-2.561,3.244-3.956C33.786,45.735,34.007,45.798,33.946,45.949L33.946,45.949z M33.521,45.95
		c-0.02,0.021-0.057-0.008-0.041-0.03c0.211-0.301,0.439-0.58,0.682-0.856l0.004,0.004C33.962,45.374,33.755,45.667,33.521,45.95z
		 M34.8,43.863c0.725-2.203,1.449-4.403,1.992-6.659c0.018-0.079,0.127-0.043,0.117,0.031c-0.363,2.312-0.953,4.564-1.959,6.691
		C34.911,44.012,34.772,43.952,34.8,43.863L34.8,43.863z M34.894,68.707c0.92-0.46,2.398-4.044,2.811-5.028
		c0.787-1.873,0.467-3.25,0.16-5.266c-0.172-1.124-0.359-2.288-0.988-3.236c-0.504-0.757-1.248-1.313-1.979-1.854
		c0.906,0.664,4.074,1.628,5.061,1.095c1.332-0.721,1.146-6.041,1.271-6.066c0.307-0.06,0.457,0.358,0.477,0.67
		c0.227,3.349,0.266,6.705,0.121,10.058c-0.039,0.856-0.088,1.729-0.385,2.534c-0.324,0.885-0.92,1.637-1.51,2.37
		C38.483,65.794,36.966,67.662,34.894,68.707L34.894,68.707z M49.218,81.062c-0.58,0.418-1.18,0.901-1.895,0.935
		c-0.75,0.033-1.449-0.473-1.83-1.122s-0.492-1.421-0.527-2.173c-0.033-0.749-0.002-1.499,0.055-2.247
		c-0.039,0.272-0.078,0.547-0.119,0.819c-0.561,0.156-1.168-0.136-1.551-0.573c-0.383-0.438-0.586-1.002-0.783-1.55
		c-0.377-1.062-0.754-2.123-1.133-3.184c-0.248-0.688-0.514-1.407-1.072-1.877c-1.189-1.002-2.988-0.396-4.404,0.251
		c0.885-0.724,1.715-1.514,2.479-2.365c-0.033,0.02-0.062,0.038-0.096,0.058c-0.096,0.053-0.234-0.062-0.162-0.163
		c0.977-1.326,1.953-2.341,2.574-3.908c0.086-0.219,0.174-0.441,0.27-0.661l-0.043-0.011c0.039-0.046,0.074-0.094,0.109-0.143
		c0.221-0.479,0.484-0.935,0.867-1.281c0.289-0.354,0.621-0.601,1.074-0.563c0.344,0.027,0.619,0.226,0.846,0.491
		c2.396,1.709,2.141,5.438,5.025,6.762c0.143,0.065,0.061,0.273-0.074,0.274c0.16,0.065,0.324,0.118,0.492,0.158
		c-1.369,0.021-2.691,0.867-3.285,2.101c-0.123,0.252-0.215,0.516-0.287,0.786c0.369-0.809,0.998-1.48,2.127-1.938l-0.135-0.018
		c0.66-0.129,1.326,0.321,1.648,0.911s0.373,1.288,0.377,1.961c0.014,1.735-0.225,3.478-0.047,5.206
		c0.023,0.238,0.068,0.5,0.248,0.657c0.189,0.163,0.461,0.165,0.711,0.158c1.43-0.039,2.855-0.078,4.287-0.117
		C52.897,79.023,50.913,79.842,49.218,81.062z M54.653,49.603c-0.119-0.107,0.053-0.271,0.172-0.173
		c1.035,0.858,2.137,1.585,3.369,2.128c1.105,0.487,2.289,0.668,3.402,1.098c0.094,0.035,0.082,0.173-0.023,0.178
		C59.104,52.93,56.399,51.207,54.653,49.603L54.653,49.603z"/>
	<path fill="#FDD2B4" d="M64.679,81.179c-0.01-0.028-0.02-0.057-0.029-0.085l-0.186-0.144
		C64.536,81.025,64.608,81.102,64.679,81.179z M64.282,78.063c0.145,1.072,0.346,2.136,0.604,3.188L64.282,78.063z M17.935,51.203
		c-0.064-0.211-0.133-0.423-0.201-0.634c0.373,1.424,0.852,3.189,1.41,5.057c-0.023-0.101-0.049-0.198-0.072-0.297
		C18.704,53.95,18.325,52.575,17.935,51.203z M68.272,18.97c0.484,0.141,0.967,0.298,1.439,0.471
		C69.118,19.188,68.638,19.049,68.272,18.97z M35.864,82.205c0.068,0.1,0.139,0.196,0.211,0.294h0.09
		C36.063,82.402,35.962,82.305,35.864,82.205z M51.767,7.115l-0.23-1.375C51.604,6.199,51.683,6.658,51.767,7.115z"/>
	<path fill="#EEBD9C" d="M34.06,8.552c-0.014,0.517-0.078,0.998-0.23,1.36c-0.004,0.017-0.01,0.033-0.014,0.05
		c0.709-0.328,1.416-0.664,2.119-1.007c0.088-0.043,0.174,0.062,0.104,0.137c-1.41,1.502-3.297,2.455-5.229,3.242
		c1.434-0.07,2.918,0.058,4.086,0.437c0.555,0.058,1.107,0.123,1.66,0.188c0.475,0.056,0.949,0.111,1.426,0.169
		c-0.613-0.188-1.201-0.456-1.746-0.798c-0.793-0.494,4.871-2.432,5.221-2.493c2.393-0.421,4.846-0.321,7.258-0.188
		c-0.061-1.324-0.287-2.635-0.672-3.902c-0.098-0.328-0.211-0.657-0.227-1c-0.029-0.555,0.178-1.051,0.506-1.498
		c0.197-0.268,0.438-0.518,0.693-0.75H36.042c-0.068,0.012-0.137,0.021-0.205,0.022c-0.15,0.007-0.301-0.001-0.451-0.022h-0.273
		c-0.057,0.035-0.088,0.056-0.088,0.056l-0.061-0.056h-1.871C33.827,4.443,34.257,6.511,34.06,8.552L34.06,8.552z M41.288,38.854
		c-0.621-4.282-1.24-8.563-1.861-12.847c-0.209-1.442-0.385-2.952-0.688-4.419c-0.24-0.652-0.504-1.295-0.789-1.929
		c-0.609-1.357-1.701-2.662-2.197-4.034c0.729,2.011,0.264,4.855-1.232,6.458c-1.549,1.655-4.951,2.372-7.037,3.064
		c1.828,0.491,3.24,1.914,4.514,3.314c4.656,5.119,5.854,10.625,8.266,16.96C41.431,43.776,41.483,41.276,41.288,38.854
		L41.288,38.854z M22.372,68.68l0.004,0.03c0.002-0.003,0.006-0.007,0.008-0.01L22.372,68.68z M17.935,51.203
		c0.391,1.372,0.77,2.747,1.137,4.126C18.728,53.942,18.354,52.559,17.935,51.203z M42.948,82.499h0.443
		c0.033-0.146,0.055-0.295,0.059-0.449C43.3,82.218,43.132,82.368,42.948,82.499z"/>
	<path fill="#EEBD9C" d="M31.593,78.826c-0.047-0.005-0.062-0.07-0.014-0.084c0.176-0.05,0.359-0.074,0.543-0.077
		c-0.166-0.067-0.338-0.118-0.518-0.146c-1.814-0.266-3.125,1.91-4.945,2.154c-0.229-2.293-0.01-4.629,0.645-6.838
		c0.33-1.106,1.027-2.372,2.182-2.367c-5.111-3.434-7.266-9.825-8.496-15.857c-0.959-4.693-1.619-9.601-3.486-13.951
		c-0.443,0.836-0.891,1.67-1.342,2.502c-0.014,0.148-0.029,0.3-0.049,0.448c0.1,0.604,0.244,1.197,0.408,1.789
		c1.666,3.443,2.463,7.748,3.279,11.295c0.256,1.106,0.498,2.218,0.744,3.325c0.326,1.287,0.648,2.575,0.971,3.863
		c0.129,0.521,0.26,1.041,0.383,1.562c0.51,1.503,1.275,2.818,2.795,3.687c0.895,0.511,1.941,0.773,2.877,1.221
		c0.1,0.048,0.025,0.194-0.072,0.171c-1.473-0.338-3.275-0.938-4.441-2.026c0.529,4.646-0.223,8.779-1.533,13.003h2.838
		c0.574-0.582,1.146-1.162,1.75-1.714c0.055-0.052,0.131,0.025,0.082,0.081c-0.516,0.562-1.053,1.099-1.596,1.633h11.479
		c-0.074-0.098-0.143-0.194-0.211-0.294C34.509,80.82,33.411,79.011,31.593,78.826L31.593,78.826z M40.979,63.291l0.041,0.011
		c0.021-0.051,0.045-0.102,0.068-0.152C41.054,63.197,41.017,63.245,40.979,63.291z"/>
	<path fill="#EEBD9C" d="M45.745,71.876c0.074-0.271,0.166-0.534,0.287-0.786c0.594-1.232,1.916-2.079,3.285-2.101
		c-0.168-0.038-0.332-0.093-0.49-0.158c-0.014,0-0.027-0.002-0.039-0.005c-2.033-0.587-2.637-2.675-3.496-4.525
		c-0.201-0.381-0.402-0.762-0.604-1.142c-0.342-0.548-0.748-1.029-1.279-1.386c-0.127-0.084-0.014-0.28,0.119-0.205
		c0.123,0.07,0.238,0.146,0.348,0.227c-0.227-0.266-0.502-0.464-0.846-0.491c-0.453-0.036-0.787,0.211-1.074,0.563
		c0.135-0.124,0.285-0.23,0.445-0.319c0.125-0.068,0.256,0.097,0.15,0.197c-0.484,0.471-0.84,1.043-1.145,1.651l0.176,0.044
		c-0.279,0.535-0.582,1.06-0.904,1.569c-0.518,1.17-1.098,2.289-2.242,2.967c-0.764,0.853-1.592,1.643-2.479,2.365
		c1.418-0.647,3.215-1.253,4.406-0.251c0.557,0.47,0.824,1.189,1.07,1.877c0.379,1.061,0.758,2.122,1.135,3.184
		c0.195,0.549,0.398,1.11,0.781,1.55c0.383,0.438,0.99,0.729,1.553,0.573c0.039-0.272,0.078-0.547,0.119-0.819
		c0.023-0.325,0.053-0.65,0.084-0.977C45.229,74.172,45.272,72.913,45.745,71.876L45.745,71.876z M45.794,16.91
		c-0.066,1.601-0.84,3.19-1.145,4.785c-0.324,1.702-0.547,3.423-0.695,5.148c-0.467,5.403,0.867,10.943,1.918,16.228
		c1.703-5.336,2.646-10.723,6.535-14.858c1.955-2.081,4.324-3.775,6.949-4.904c-0.641,0.276-2.811-0.739-3.465-0.965
		c-1.275-0.442-2.52-0.971-3.723-1.583c-1.062-0.541-1.938-1.357-2.967-1.943c-0.664-0.378-2.266-0.645-2.391-1.557
		c-0.027-0.184,0.076-0.359,0.18-0.515c0.502-0.765,1.076-1.479,1.713-2.137c-0.893,0.385-1.734,0.872-2.512,1.453
		c-0.098,0.072-0.191,0.148-0.264,0.246c-0.031,0.149-0.076,0.301-0.129,0.453C45.798,16.81,45.796,16.859,45.794,16.91z
		 M17.854,19.252c0.035,0.157,0.012,0.326-0.086,0.455c0.559,0.211,1.115,0.61,1.52,0.9c0.748,0.533,1.289,1.089,1.779,1.854
		c0.014,0.022,0.021,0.047,0.023,0.07c0.131,0.156,0.252,0.314,0.359,0.476c0.195,0.294,0.354,0.66,0.48,1.074
		c0.062,0.145,0.123,0.291,0.178,0.438c-0.238-1.658-0.49-3.357-1.295-4.827c-0.131-0.238-0.283-0.5-0.225-0.768
		c0.027-0.124,0.098-0.233,0.168-0.337c1.027-1.525,2.369-2.836,3.912-3.835C22.155,15.854,19.808,17.187,17.854,19.252z
		 M25.97,14.605c-0.025-0.123-0.053-0.245-0.08-0.367c-0.051,0.021-0.1,0.041-0.148,0.062L25.97,14.605z M66.962,18.886
		c-0.035-0.048-0.068-0.094-0.104-0.141c0.012,0.199-0.025,0.396-0.143,0.576l0.42-0.287C67.067,19,67.007,18.949,66.962,18.886
		L66.962,18.886z M56.339,11.972c-0.305-0.112-0.65-0.222-1.023-0.333c-1.09,0.234-2.209,0.307-3.293,0.626
		c-0.947,0.281-1.875,0.638-2.799,0.996l-1.527,0.798c0.906-0.253,1.809-0.507,2.713-0.761l-0.188,0.452
		c1.699-0.385,3.471-0.022,5.174,0.341c3.883,0.826,7.949,1.744,11.061,4.142C63.825,15.025,60.204,13.408,56.339,11.972z"/>
	<path fill="#FEE3CE" d="M41.288,38.854l0.76,5.253c-0.045-3.091-0.025-6.19,0.002-9.289c-0.1-3.557-0.266-7.112-0.434-10.667
		c-0.125-2.645-0.271-5.374-1.426-7.756c-0.158-0.327-0.355-0.665-0.682-0.827c-0.988-0.493-2.707-0.229-2.725,1.119
		c-0.004,0.479,1.008,1.746,1.201,2.247c0.328,0.852,0.564,1.745,0.754,2.656c0.303,1.467,0.479,2.977,0.688,4.419
		C40.048,30.29,40.667,34.571,41.288,38.854L41.288,38.854z M42.856,37.302c0.318,2.373,1.232,4.868,1.363,7.231
		c-0.168-3.029-0.336-6.06-0.502-9.09c-0.176-3.196-0.354-6.406-0.072-9.598c0.227-2.596,0.756-5.163,1.568-7.638
		c0.125-0.38,0.4-0.913,0.588-1.449c0.053-0.152,0.098-0.304,0.131-0.453c0.09-0.409,0.082-0.795-0.137-1.086
		c-0.473-0.637-1.842-0.517-2.371-0.071c-1.275,1.073-0.781,4.781-0.918,6.305c-0.156,1.748-0.25,3.5-0.277,5.254
		c0.135,2.776,0.27,5.574,0.363,8.377C42.669,35.825,42.755,36.563,42.856,37.302L42.856,37.302z M47.394,55.729
		c-0.986-0.315-1.467-1.405-1.793-2.388c-0.695-2.066-1.246-4.178-1.648-6.32c-0.064,2.794-0.127,5.588-0.189,8.382
		c-0.139,0.864-0.236,1.736-0.156,2.604c0.145,1.594,0.871,3.069,1.584,4.502c0.684,1.374,1.377,2.764,2.377,3.929
		c0.996,1.166,2.348,2.104,3.871,2.292c-0.547-1.066-1.264-2.039-2.117-2.88c-0.584-0.572-1.264-1.14-1.438-1.938
		c-0.135-0.626,0.076-1.271,0.299-1.871c0.838-2.263,1.877-4.443,3.107-6.519C50.06,55.04,48.651,56.135,47.394,55.729
		L47.394,55.729z M39.935,63.98c0.588-0.733,1.184-1.485,1.51-2.37c0.295-0.806,0.346-1.678,0.383-2.534
		c0.146-3.353,0.105-6.709-0.119-10.058c-0.021-0.312-0.17-0.729-0.477-0.67c-0.125,0.025,0.061,5.348-1.271,6.066
		c-0.986,0.532-4.154-0.431-5.062-1.095c0.73,0.541,1.475,1.099,1.979,1.854c0.629,0.948,0.816,2.112,0.988,3.237
		c0.309,2.015,0.627,3.392-0.158,5.265c-0.414,0.984-1.891,4.568-2.811,5.029C36.966,67.662,38.483,65.794,39.935,63.98
		L39.935,63.98z M64.751,56.817c-0.283,2.022-0.562,4.053-1.094,6.024c-0.709,2.638-1.857,5.152-3.348,7.442
		c-0.131,0.198-0.27,0.423-0.234,0.658c0.088,0.599,0.998,0.505,1.502,0.172c0.166-0.108,0.326-0.228,0.482-0.353
		c0.15-0.432,0.387-0.816,0.752-1.112l0.594-1.134l0.002,0.277c2.357-3.898,1.617-8.31,2.242-12.771
		c0.385-2.743,1.588-5.203,2.539-7.756c0.064-0.286,0.123-0.573,0.172-0.862C66.423,50.243,65.222,53.429,64.751,56.817
		L64.751,56.817z M64.034,68.259c0.002-0.014,0.006-0.026,0.008-0.04c-0.188,0.354-0.398,0.697-0.633,1.025v0.057
		C63.642,68.969,63.851,68.62,64.034,68.259L64.034,68.259z"/>
	<path fill="#EEBD9C" d="M64.905,81.293c-0.006-0.009-0.012-0.019-0.018-0.026c0.002,0.006,0.004,0.011,0.006,0.018L64.905,81.293
		L64.905,81.293z M62.812,69.65c-0.363,0.296-0.602,0.682-0.752,1.112c-0.271,0.771-0.27,1.688-0.232,2.524
		c0.074,1.699,0.148,3.399,0.223,5.101c0.01,0.219,0.021,0.445,0.117,0.643c0.045,0.092,0.105,0.172,0.176,0.245
		c0.756,0.454,1.498,1.027,2.123,1.676l0.186,0.143c-0.062-0.188-0.123-0.378-0.182-0.569c-0.982-2.007-1.031-4.399-1.041-6.669
		c-0.008-1.518-0.014-3.036-0.02-4.555v-0.057c-0.229,0.32-0.479,0.627-0.746,0.915c-0.08,0.087-0.197-0.039-0.127-0.128
		c0.318-0.392,0.611-0.805,0.871-1.236v-0.277L62.812,69.65L62.812,69.65z"/>
	<path fill="#FEE3CE" d="M49.966,78.655c-0.18-0.157-0.225-0.418-0.248-0.657c-0.178-1.729,0.061-3.47,0.047-5.206
		c-0.004-0.673-0.055-1.371-0.377-1.961s-0.988-1.04-1.648-0.911l0.135,0.018c-1.129,0.458-1.758,1.131-2.127,1.938
		c-0.475,1.037-0.518,2.296-0.643,3.604c-0.029,0.324-0.059,0.649-0.084,0.976c-0.057,0.748-0.088,1.498-0.055,2.247
		c0.035,0.752,0.146,1.522,0.527,2.173c0.381,0.649,1.08,1.156,1.832,1.122c0.713-0.032,1.311-0.517,1.893-0.935
		c1.695-1.222,3.682-2.039,5.746-2.365c-1.43,0.038-2.857,0.077-4.287,0.116C50.427,78.82,50.153,78.818,49.966,78.655
		L49.966,78.655z M41.772,78.759c-0.016-1.524-0.162-3.045-0.438-4.544c-0.164-0.894-0.379-1.793-0.844-2.573
		c-1.199-2.021-3.312-1.979-3.961,0.396c-0.467,1.704,0.35,2.966,0.508,4.621c0.078,0.821-0.246,1.853-1.064,1.973
		c-0.377,0.057-0.748-0.107-1.105-0.239c-1.012-0.371-2.09-0.519-3.164-0.431c2.121,0.791,4.031,2.139,5.484,3.872
		c0.211,0.252,0.434,0.524,0.723,0.666h1.273c0.551-0.092,1.098-0.229,1.537-0.563C41.642,81.23,41.782,79.917,41.772,78.759
		L41.772,78.759z"/>
	<path fill="#AF7B6E" d="M33.815,9.962c0.004-0.017,0.01-0.033,0.014-0.05c0.109-0.447,0.188-0.902,0.23-1.36
		c0.197-2.041-0.232-4.108-0.965-6.052h-0.457c0.324,0.886,0.531,1.97,0.678,2.664c0.365,1.742,0.225,3.339-0.051,5.052
		C33.448,10.131,33.632,10.047,33.815,9.962z"/>
	<path fill="#AF7B6E" d="M17.854,19.252c1.955-2.065,4.303-3.398,6.814-4.5c0.355-0.155,0.713-0.307,1.072-0.453
		c0.049-0.021,0.1-0.041,0.148-0.062c0.625-0.254,1.258-0.499,1.895-0.741c-0.338-0.034-0.359-0.56-0.029-0.662
		c0.871-0.271,1.947-0.445,3.055-0.5c1.932-0.788,3.818-1.741,5.229-3.244c0.07-0.074-0.016-0.178-0.104-0.137
		c-0.703,0.344-1.408,0.679-2.119,1.007c-0.184,0.085-0.367,0.169-0.551,0.253c-2.764,1.262-5.531,2.404-8.395,3.542
		c-2.982,1.186-5.715,2.655-7.867,5.079c-0.018,0.021-0.035,0.044-0.051,0.067c0.08-0.021,0.158-0.045,0.24-0.066
		C17.544,18.74,17.79,18.977,17.854,19.252L17.854,19.252z M64.042,68.219c-0.002,0.014-0.006,0.027-0.01,0.04
		c-0.945,3.926-0.73,8.376,0.438,12.267c0.059,0.19,0.117,0.38,0.18,0.569c0.01,0.028,0.02,0.057,0.029,0.085
		c0.092,0.104,0.182,0.208,0.268,0.314c-0.018-0.07-0.035-0.142-0.053-0.211c-0.002-0.006-0.002-0.012-0.004-0.018l-0.004-0.016
		c-0.258-1.051-0.459-2.114-0.604-3.188c-0.479-3.573-0.303-7.087,0.271-10.814c0.006-0.032-0.002-0.065-0.02-0.094
		C64.392,67.519,64.228,67.874,64.042,68.219L64.042,68.219z"/>
	<path fill="#AF7B6E" d="M69.048,45.53c-0.225,0.935-0.525,1.842-0.859,2.736c-0.951,2.553-2.152,5.013-2.537,7.756
		c-0.625,4.463,0.115,8.873-2.244,12.771c-0.26,0.433-0.551,0.846-0.871,1.237c-0.07,0.089,0.047,0.214,0.127,0.128
		c0.27-0.289,0.52-0.596,0.746-0.916c0.234-0.328,0.445-0.671,0.635-1.025c0.184-0.345,0.348-0.699,0.49-1.062
		c0.977-2.468,1.061-5.269,1.232-7.962c0.209-3.282,0.877-5.839,2.152-8.834c0.533-1.253,1.064-2.469,1.398-3.749
		C69.216,46.255,69.126,45.894,69.048,45.53L69.048,45.53z M23.058,69.496c-0.148-0.138-0.287-0.284-0.416-0.44
		c-0.092-0.114-0.178-0.231-0.258-0.354c-0.002,0.003-0.006,0.007-0.008,0.01c-0.049,0.057-0.074,0.131-0.066,0.205
		c0.221,3.225,0.314,6.374-0.246,9.579c-0.242,1.387-0.635,2.704-1.084,4.004h0.543C22.835,78.275,23.587,74.143,23.058,69.496
		L23.058,69.496z M33.704,45.846c-1.035,1.396-1.918,2.801-3.244,3.956c-1.305,1.135-2.771,1.986-4.336,2.707
		c-0.066,0.031-0.02,0.14,0.049,0.118c3.154-0.993,6.512-3.527,7.773-6.68C34.007,45.798,33.786,45.735,33.704,45.846L33.704,45.846
		z M34.95,43.928c1.006-2.126,1.596-4.38,1.959-6.691c0.01-0.075-0.1-0.11-0.117-0.031c-0.543,2.256-1.268,4.456-1.992,6.659
		C34.772,43.952,34.911,44.012,34.95,43.928z M33.479,45.92c-0.016,0.022,0.021,0.053,0.041,0.03
		c0.234-0.283,0.441-0.576,0.645-0.884l-0.004-0.004C33.919,45.34,33.69,45.619,33.479,45.92z M42.048,44.106
		c0.031,2.082,0.09,4.16,0.197,6.232c0.008,0.144,0.213,0.143,0.223,0c0.338-5.036,0.297-10.153,0.125-15.255
		c-0.096-2.803-0.229-5.601-0.363-8.377c-0.033-0.697-0.066-1.394-0.1-2.087h-0.021c0.018,3.387-0.027,6.792-0.059,10.197
		C42.021,37.916,42.001,41.016,42.048,44.106z M40.677,65.011c0.24-0.54,0.467-1.091,0.729-1.613
		c0.307-0.608,0.662-1.182,1.146-1.651c0.105-0.102-0.027-0.267-0.152-0.197c-0.16,0.089-0.311,0.195-0.445,0.319
		c-0.383,0.347-0.648,0.802-0.867,1.281c-0.021,0.052-0.045,0.103-0.066,0.152c-0.096,0.22-0.184,0.442-0.27,0.661
		c-0.621,1.568-1.598,2.582-2.574,3.908c-0.072,0.102,0.066,0.216,0.162,0.163c0.033-0.02,0.062-0.038,0.096-0.058
		C39.579,67.3,40.161,66.18,40.677,65.011L40.677,65.011z M43.407,61.773c0.533,0.355,0.938,0.838,1.281,1.386
		c0.223,0.357,0.42,0.743,0.604,1.142c0.857,1.852,1.463,3.939,3.494,4.525c0.014,0.004,0.027,0.005,0.039,0.005
		c0.135-0.001,0.217-0.21,0.074-0.274c-2.885-1.324-2.629-5.053-5.025-6.762c-0.109-0.081-0.227-0.156-0.348-0.227
		C43.394,61.493,43.282,61.689,43.407,61.773L43.407,61.773z M34.204,79.862c-0.623-0.678-1.246-1.21-2.082-1.197
		c-0.184,0.003-0.365,0.027-0.543,0.077c-0.049,0.014-0.035,0.079,0.014,0.084c1.818,0.186,2.916,1.994,4.271,3.379
		c0.098,0.101,0.199,0.197,0.301,0.294h0.463C35.642,81.773,35.093,80.835,34.204,79.862L34.204,79.862z M42.478,82.171
		c-0.111,0.115-0.229,0.226-0.352,0.328h0.543c0.021-0.022,0.045-0.045,0.066-0.068C42.897,82.258,42.64,82,42.478,82.171
		L42.478,82.171z M44.364,82.222c0.129,0.098,0.262,0.189,0.396,0.276h0.623c-0.316-0.119-0.641-0.253-0.977-0.381
		C44.343,82.093,44.317,82.187,44.364,82.222z M50.827,81.342c1.232-1.112,2.646-1.739,4.139-2.403
		c0.125-0.057,0.033-0.248-0.092-0.218c-1.49,0.364-2.855,1.167-4.031,2.146c-0.707,0.589-1.217,1.227-1.957,1.633h0.766
		C50.062,82.137,50.417,81.712,50.827,81.342L50.827,81.342z M26.192,80.865c0.051-0.054-0.025-0.132-0.082-0.08
		c-0.604,0.552-1.176,1.132-1.75,1.714h0.238C25.14,81.965,25.679,81.428,26.192,80.865z M64.679,81.179
		c-0.07-0.077-0.143-0.153-0.215-0.229c-0.625-0.647-1.365-1.222-2.123-1.676c-0.168-0.102-0.338-0.196-0.512-0.289
		c-0.086-0.045-0.189,0.073-0.109,0.143c0.938,0.775,1.969,1.405,2.771,2.334c0.27,0.312,0.473,0.663,0.613,1.036h0.428
		c-0.072-0.231-0.17-0.446-0.305-0.637c-0.09-0.126-0.184-0.248-0.281-0.368C64.858,81.386,64.771,81.281,64.679,81.179
		L64.679,81.179z"/>
	<path fill="#AF7B6E" d="M22.644,69.054c0.127,0.157,0.266,0.305,0.414,0.441c1.166,1.089,2.969,1.688,4.441,2.026
		c0.098,0.022,0.172-0.123,0.072-0.171c-0.934-0.446-1.98-0.71-2.875-1.221c-1.52-0.867-2.287-2.185-2.795-3.687
		c-0.119-0.348-0.223-0.705-0.318-1.067c-0.383-1.444-0.713-2.9-1.037-4.357c-0.246-1.107-0.488-2.219-0.744-3.325
		c-0.814-3.547-1.613-7.852-3.279-11.295c-0.168-0.348-0.348-0.688-0.537-1.022c-0.031,0.158-0.066,0.315-0.104,0.476
		c0.721,1.501,1.326,3.088,1.854,4.718c0.068,0.211,0.135,0.423,0.201,0.634c0.422,1.355,0.793,2.739,1.137,4.126
		c0.023,0.099,0.049,0.196,0.072,0.297c0.6,2.438,1.117,4.882,1.674,7.196c0.441,1.839,0.486,4.213,1.555,5.857l0.014,0.021
		C22.464,68.822,22.55,68.94,22.644,69.054z M53.237,48.053c0.092,0.149,0.32,0.017,0.234-0.138
		c-1.377-2.498-2.619-4.94-3.557-7.649c-0.025-0.069-0.135-0.041-0.113,0.03C50.673,42.964,51.763,45.659,53.237,48.053z
		 M61.573,52.833c0.105-0.005,0.117-0.143,0.023-0.178c-1.113-0.43-2.297-0.609-3.402-1.098c-1.232-0.543-2.334-1.27-3.369-2.128
		c-0.119-0.099-0.291,0.064-0.174,0.173C56.399,51.207,59.104,52.93,61.573,52.833L61.573,52.833z M29.046,23.937
		c-1.533,0.306-3.047,0.99-4.455,1.657c-0.037,0.018-0.004,0.072,0.033,0.055c1.457-0.63,2.969-1.06,4.445-1.629
		C29.12,24,29.103,23.926,29.046,23.937z M30.81,12.335c-1.107,0.055-2.184,0.229-3.055,0.5c-0.33,0.103-0.309,0.628,0.029,0.663
		c0.02,0.002,0.039,0.003,0.062,0.001c1.225-0.085,2.42-0.386,3.648-0.441c1.221-0.055,2.455,0.14,3.668,0.027
		c0.123-0.013,0.145-0.168,0.029-0.212c-0.1-0.037-0.197-0.071-0.295-0.104C33.728,12.392,32.243,12.263,30.81,12.335z
		 M41.89,22.068c0.037-0.448,0.055-0.931-0.027-1.374c-0.006-0.041-0.074-0.042-0.082,0c-0.082,0.443-0.064,0.926-0.027,1.374
		C41.759,22.156,41.88,22.156,41.89,22.068z M49.954,8.398c0.229,0.125,0.457,0.247,0.688,0.366
		c-0.061-0.403-0.309-0.715-0.477-1.085c-0.225-0.49-0.477-0.943-0.605-1.471c-0.023-0.092-0.18-0.076-0.17,0.023
		c0.064,0.666,0.133,1.627,0.555,2.254c-0.008-0.021-0.018-0.043-0.023-0.062C49.917,8.404,49.938,8.39,49.954,8.398z M50.892,3.201
		c-0.422,1.705,0.582,4.451,1.014,6.185c0.107,0.05,0.217,0.101,0.324,0.149c-0.15-0.809-0.316-1.612-0.463-2.42
		c-0.049-0.256-0.094-0.513-0.137-0.77c-0.031-0.201-0.062-0.402-0.094-0.605c-0.199-1.365-0.182-2.226,0.629-3.242H51.2
		c-0.066,0.091-0.125,0.188-0.17,0.291C50.974,2.918,50.927,3.056,50.892,3.201z"/>
	<path fill="#AF7B6E" d="M51.903,9.386c-0.424-0.199-0.844-0.406-1.262-0.621c-0.23-0.119-0.459-0.241-0.688-0.366
		c-0.016-0.009-0.037,0.006-0.033,0.024c0.008,0.021,0.018,0.042,0.023,0.062c0.498,1.416,2.178,2.152,3.832,2.688
		c0.701-0.094,1.395-0.104,2.051-0.004c0.182,0.027,0.156,0.303,0,0.347c-0.17,0.046-0.34,0.088-0.512,0.125
		c0.371,0.112,0.719,0.222,1.021,0.333c3.867,1.436,7.488,3.053,10.119,6.26c0.137,0.168,0.271,0.339,0.4,0.514
		c0.035,0.047,0.068,0.093,0.104,0.141c0.045,0.062,0.105,0.114,0.174,0.148c0.029,0.014,0.059,0.024,0.088,0.031
		c0.105-0.174,0.299-0.291,0.549-0.236c0.055-0.111,0.055-0.249-0.039-0.394c-1.699-2.586-4.238-4.182-7.033-5.409
		c-2.846-1.248-5.699-2.218-8.471-3.492C52.12,9.484,52.013,9.436,51.903,9.386z"/>
	<path fill="#AF7B6E" d="M55.315,11.639c0.172-0.037,0.342-0.078,0.512-0.125c0.156-0.044,0.182-0.318,0-0.347
		c-0.654-0.099-1.35-0.089-2.051,0.004c-1.975,0.261-4.016,1.19-5.449,2.303c-0.051,0.04,0.004,0.13,0.062,0.108
		c0.277-0.106,0.557-0.215,0.834-0.322c0.924-0.357,1.852-0.715,2.799-0.996C53.106,11.945,54.226,11.873,55.315,11.639
		L55.315,11.639z"/>
	<path fill="#FDD2B4" d="M3.058,51.453c-0.191,0.028-0.375,0.086-0.559,0.153v0.373c0.242-0.183,0.486-0.364,0.729-0.545
		C3.171,51.438,3.114,51.443,3.058,51.453z"/>
	<path fill="#FDD2B4" d="M4.571,53.947c0.072-0.068,0.158-0.09,0.234-0.075c0.059-0.087,0.117-0.176,0.178-0.263l0.055,0.474
		c0.006,0.021,0.008,0.045,0.008,0.068l0.252,2.184c1.031,0.503,2.057-0.677,2.596-1.69c2.732-5.145,5.182-10.435,7.336-15.848
		l0.062-1.375c0.061,0.247,0.119,0.495,0.176,0.744c0.027,0.01,0.051,0.031,0.062,0.069c0.221,0.815,0.369,1.641,0.453,2.471
		c0.182,1.151,0.271,2.309,0.176,3.456c0.453-0.831,0.9-1.665,1.344-2.501c0.273-0.518,0.547-1.035,0.818-1.554
		c-0.295-1.422-0.436-2.865-0.131-4.093c0.605-2.453,2.42-4.892,4.182-6.96c0.051-1.66-0.02-3.589-0.443-4.973
		c-0.125-0.414-0.283-0.779-0.48-1.074c-0.107-0.16-0.229-0.318-0.359-0.475c0.012,0.142-0.188,0.269-0.293,0.138
		c-0.514-0.635-1.162-1.277-1.848-1.726c-0.385-0.251-0.832-0.491-1.27-0.625c-0.275-0.083-0.512-0.129-0.744-0.271
		c-3.266,0.979-5.432,2.413-7.428,4.776c-0.35,0.633-0.643,1.298-0.883,1.976c-0.783,2.229-1.041,4.604-1.293,6.954
		c-0.297,0.197-0.584,0.409-0.861,0.634c0,0.005-0.002,0.01-0.004,0.015c-1.07,2.09-2.514,4.039-3.967,5.981v1.357
		c0.203-0.31,0.408-0.616,0.613-0.924c1.705-2.544,3.596-5.525,6.465-6.865c1.213-0.566,3.375-0.625,4.371,0.459
		c0.668,0.728,0.613,1.85,0.449,2.825c-0.658,3.913-2.35,7.565-4.023,11.163c-0.678,1.452-1.355,2.908-2.184,4.281
		c-0.412,0.686-0.922,1.396-1.691,1.614c-0.104,0.029-0.215,0.048-0.312,0.009c-0.182-0.073-0.234-0.297-0.277-0.486
		c-0.168-0.736-0.615-1.448-1.211-1.9c-0.709,1.261-1.441,2.508-2.197,3.741v0.688C3.142,55.468,3.829,54.653,4.571,53.947
		L4.571,53.947z M8.251,33.003c0.094-2.383,0.842-4.688,1.646-6.933c0.328-0.917,0.676-1.848,1.273-2.615
		c0.947-1.212,2.41-1.888,3.824-2.49c0.418-0.178,0.844-0.356,1.297-0.396c0.988-0.086,1.908,0.495,2.666,1.135
		c0.936,0.788,1.758,1.697,2.447,2.706l-0.148-0.091c0.092,1.767-0.537,3.521-1.547,4.974c-1.01,1.451-2.383,2.618-3.857,3.591
		C13.669,31.247,10.38,31.299,8.251,33.003L8.251,33.003z"/>
	<path fill="#EEBD9C" d="M4.394,36.162c0.637-0.679,1.303-1.297,2.004-1.827c0.037-0.029,0.078,0.016,0.072,0.055
		c0.277-0.226,0.564-0.438,0.863-0.635c0.25-2.351,0.508-4.726,1.293-6.954c0.238-0.677,0.533-1.343,0.883-1.977
		c-0.504,0.597-0.994,1.25-1.49,1.972C5.983,29.757,5.243,32.803,4.394,36.162L4.394,36.162z M15.983,45.376
		c0.012-0.062,0.025-0.123,0.039-0.186c0.037-0.192,0.064-0.387,0.09-0.58c0.02-0.148,0.035-0.3,0.049-0.448
		c0.096-1.148,0.006-2.306-0.178-3.457c0.262,2.594-0.113,5.234-0.914,7.74c0.33-0.856,0.607-1.73,0.811-2.594
		C15.917,45.692,15.952,45.535,15.983,45.376L15.983,45.376z M4.808,53.872c0.107,0.019,0.203,0.103,0.23,0.211l-0.055-0.474
		C4.923,53.696,4.866,53.785,4.808,53.872z"/>
	<path fill="#EEBD9C" d="M10.989,55.653c3.729-5.227,5.324-10.979,4.334-17.36c-0.016-0.097,0.078-0.153,0.146-0.128
		c-0.057-0.249-0.115-0.497-0.176-0.743l-0.062,1.375C13.077,44.21,10.628,49.5,7.896,54.644c-0.539,1.015-1.562,2.193-2.596,1.69
		L5.048,54.15c0,0.049-0.012,0.095-0.035,0.137c-0.697,1.303-1.635,2.499-2.512,3.72v6.853C4.897,61.534,8.612,58.982,10.989,55.653
		z"/>
	<path fill="#FEE3CE" d="M3.229,51.435c-0.244,0.181-0.486,0.362-0.729,0.545v3.68c0.756-1.233,1.488-2.48,2.197-3.741
		C4.269,51.593,3.763,51.401,3.229,51.435L3.229,51.435z"/>
	<path fill="#FEE3CE" d="M3.229,51.435c0.533-0.033,1.039,0.157,1.469,0.482c0.596,0.452,1.043,1.164,1.211,1.9
		c0.043,0.189,0.096,0.413,0.277,0.485c0.098,0.04,0.209,0.021,0.312-0.008c0.77-0.219,1.281-0.931,1.691-1.614
		c0.828-1.373,1.506-2.829,2.184-4.281c1.674-3.598,3.367-7.25,4.023-11.164c0.164-0.975,0.221-2.098-0.449-2.824
		c-0.996-1.085-3.156-1.026-4.371-0.46c-2.869,1.34-4.762,4.321-6.465,6.866c-0.205,0.308-0.41,0.615-0.613,0.923v9.865
		c0.182-0.067,0.367-0.125,0.559-0.153C3.114,51.444,3.171,51.438,3.229,51.435L3.229,51.435z M19.71,29.292
		c1.01-1.451,1.639-3.207,1.547-4.973l0.148,0.09c-0.689-1.009-1.512-1.918-2.447-2.706c-0.758-0.64-1.676-1.22-2.666-1.135
		c-0.453,0.04-0.879,0.218-1.297,0.396c-1.416,0.603-2.877,1.277-3.824,2.49c-0.598,0.769-0.945,1.698-1.273,2.615
		c-0.805,2.246-1.551,4.551-1.646,6.933c2.129-1.704,5.418-1.756,7.602-0.121C17.327,31.909,18.7,30.743,19.71,29.292L19.71,29.292z
		"/>
	<path fill="#AF7B6E" d="M4.394,36.162c0.85-3.359,1.59-6.405,3.625-9.365c0.496-0.721,0.986-1.375,1.49-1.971
		c1.996-2.363,4.162-3.799,7.426-4.776c-0.039-0.023-0.078-0.049-0.115-0.077c-0.174-0.133-0.109-0.376,0.109-0.402
		c0.268-0.03,0.553,0.029,0.838,0.137c0.098-0.129,0.123-0.298,0.086-0.455c-0.062-0.275-0.309-0.511-0.662-0.415
		c-0.08,0.021-0.158,0.045-0.238,0.066c-3.916,1.111-6.422,2.722-8.781,6.094c-2.332,3.326-4.502,7.333-4.113,11.528
		C4.169,36.403,4.28,36.281,4.394,36.162L4.394,36.162z"/>
	<path fill="#AF7B6E" d="M6.47,34.39c0.006-0.039-0.035-0.083-0.072-0.055c-0.701,0.53-1.369,1.148-2.004,1.827
		c-0.113,0.119-0.225,0.241-0.334,0.364c-0.543,0.604-1.062,1.247-1.561,1.912v1.947c1.453-1.943,2.896-3.893,3.967-5.981
		C6.468,34.399,6.47,34.395,6.47,34.39L6.47,34.39z M15.983,40.705c-0.082-0.83-0.23-1.655-0.453-2.471
		c-0.01-0.039-0.033-0.061-0.061-0.07c-0.068-0.025-0.162,0.031-0.148,0.128c0.99,6.381-0.605,12.135-4.334,17.36
		c-2.375,3.329-6.09,5.881-8.488,9.206v1.2c1.496-2.32,3.695-4.086,5.539-6.156c1.838-2.062,3.559-4.262,4.924-6.671
		c0.85-1.5,1.572-3.112,2.107-4.787C15.87,45.939,16.245,43.3,15.983,40.705L15.983,40.705z M5.046,54.151
		c0-0.022-0.002-0.047-0.008-0.068c-0.029-0.108-0.123-0.192-0.23-0.211c-0.078-0.015-0.164,0.007-0.236,0.075
		c-0.742,0.706-1.428,1.521-2.07,2.399v1.66c0.877-1.221,1.814-2.417,2.51-3.72C5.036,54.242,5.046,54.195,5.046,54.151z
		 M19.288,20.608c-0.406-0.291-0.961-0.689-1.52-0.901c-0.285-0.107-0.572-0.167-0.84-0.137c-0.217,0.025-0.283,0.27-0.107,0.402
		c0.037,0.029,0.076,0.054,0.115,0.077c0.232,0.142,0.469,0.188,0.744,0.271c0.438,0.134,0.885,0.375,1.27,0.625
		c0.688,0.448,1.334,1.091,1.848,1.726c0.105,0.131,0.307,0.004,0.293-0.138c-0.002-0.025-0.01-0.051-0.023-0.071
		C20.577,21.699,20.036,21.142,19.288,20.608z"/>
	<path fill="#FDD2B4" d="M78.53,34.39c-0.277-0.226-0.564-0.438-0.861-0.635c-0.252-2.351-0.51-4.726-1.295-6.954
		c-0.238-0.676-0.531-1.341-0.881-1.973c-1.996-2.365-4.162-3.801-7.428-4.779c-0.232,0.142-0.473,0.188-0.746,0.271
		c-0.438,0.134-0.883,0.375-1.268,0.625c-0.688,0.448-1.336,1.091-1.848,1.726c-0.105,0.131-0.307,0.004-0.295-0.139
		c-0.131,0.156-0.252,0.314-0.359,0.476c-0.805,1.208-0.973,3.608-0.934,5.688c1.854,2.143,3.85,4.723,4.49,7.317
		c0.332,1.344,0.133,2.946-0.219,4.497c0.643,1.222,1.291,2.439,1.949,3.652c-0.096-1.152-0.004-2.314,0.18-3.472
		c0.084-0.825,0.232-1.646,0.451-2.457c0.012-0.038,0.033-0.06,0.061-0.069c0.059-0.249,0.117-0.497,0.176-0.744l0.064,1.375
		c2.152,5.413,4.604,10.703,7.336,15.847c0.539,1.014,1.562,2.193,2.596,1.69c0.084-0.728,0.168-1.452,0.252-2.18
		c0-0.024,0.004-0.051,0.01-0.074l0.055-0.472c0.061,0.087,0.117,0.175,0.178,0.263c0.078-0.015,0.162,0.007,0.234,0.075
		c0.74,0.706,1.43,1.521,2.07,2.399v-0.689c-0.756-1.232-1.488-2.479-2.197-3.739c-0.596,0.452-1.043,1.164-1.209,1.9
		c-0.043,0.189-0.1,0.413-0.279,0.485c-0.1,0.04-0.209,0.021-0.312-0.008c-0.768-0.22-1.277-0.931-1.691-1.614
		c-0.826-1.373-1.506-2.829-2.182-4.282c-1.676-3.597-3.369-7.249-4.023-11.163c-0.166-0.976-0.223-2.098,0.445-2.825
		c0.998-1.085,3.158-1.025,4.371-0.46c2.871,1.341,4.764,4.322,6.467,6.867c0.205,0.307,0.41,0.613,0.613,0.921v-1.355
		c-1.453-1.942-2.895-3.893-3.967-5.98C78.532,34.399,78.53,34.395,78.53,34.39L78.53,34.39z M69.147,32.883
		c-1.477-0.973-2.85-2.14-3.857-3.591c-1.01-1.451-1.639-3.207-1.545-4.973l-0.15,0.089c0.689-1.008,1.514-1.918,2.445-2.705
		c0.76-0.64,1.678-1.22,2.666-1.135c0.453,0.04,0.881,0.218,1.301,0.396c1.414,0.603,2.875,1.277,3.822,2.49
		c0.6,0.769,0.945,1.698,1.273,2.615c0.805,2.246,1.551,4.551,1.646,6.933C74.62,31.299,71.331,31.247,69.147,32.883z"/>
	<path fill="#FDD2B4" d="M81.772,51.435c0.244,0.181,0.486,0.362,0.729,0.545v-0.373c-0.18-0.067-0.365-0.125-0.555-0.153
		C81.888,51.443,81.829,51.438,81.772,51.435z"/>
	<path fill="#EEBD9C" d="M77.669,33.755c0.297,0.197,0.584,0.409,0.861,0.635c-0.006-0.039,0.035-0.084,0.074-0.055
		c0.699,0.53,1.365,1.148,2.004,1.828c-0.85-3.36-1.59-6.406-3.627-9.367c-0.494-0.72-0.986-1.373-1.488-1.967
		c0.35,0.631,0.643,1.296,0.881,1.972C77.159,29.03,77.417,31.405,77.669,33.755L77.669,33.755z M69.019,40.691
		c-0.184,1.157-0.275,2.318-0.18,3.472c0.029,0.344,0.074,0.687,0.141,1.027c0.02,0.113,0.045,0.228,0.068,0.341
		c0.078,0.362,0.168,0.724,0.27,1.079c0.174,0.615,0.383,1.231,0.617,1.841C69.13,45.938,68.753,43.292,69.019,40.691L69.019,40.691
		z M80.194,53.872c-0.061-0.087-0.117-0.176-0.178-0.263c-0.018,0.157-0.035,0.314-0.055,0.472
		C79.993,53.972,80.083,53.891,80.194,53.872z"/>
	<path fill="#EEBD9C" d="M79.954,54.155c-0.084,0.728-0.168,1.452-0.252,2.18c-1.033,0.503-2.057-0.677-2.596-1.69
		c-2.734-5.145-5.184-10.435-7.336-15.847l-0.066-1.376c-0.059,0.248-0.117,0.496-0.174,0.744c0.066-0.026,0.162,0.03,0.146,0.127
		c-0.988,6.381,0.605,12.135,4.336,17.36c2.375,3.328,6.09,5.881,8.486,9.205v-6.852c-0.877-1.22-1.812-2.417-2.512-3.72
		C79.966,54.247,79.954,54.202,79.954,54.155L79.954,54.155z"/>
	<path fill="#FEE3CE" d="M80.304,51.918c0.709,1.26,1.441,2.507,2.195,3.74v-3.679c-0.24-0.183-0.482-0.364-0.727-0.545
		C81.237,51.402,80.731,51.593,80.304,51.918L80.304,51.918z"/>
	<path fill="#FEE3CE" d="M75.421,33.953c-1.213-0.566-3.373-0.625-4.371,0.459c-0.668,0.728-0.611,1.85-0.445,2.825
		c0.654,3.913,2.35,7.565,4.023,11.163c0.676,1.452,1.355,2.908,2.182,4.281c0.414,0.686,0.926,1.396,1.691,1.614
		c0.104,0.029,0.215,0.048,0.312,0.009c0.182-0.073,0.236-0.297,0.279-0.486c0.166-0.736,0.613-1.448,1.209-1.899
		c0.43-0.326,0.936-0.517,1.471-0.483c0.057,0.004,0.113,0.009,0.172,0.019c0.189,0.028,0.375,0.086,0.555,0.153v-9.865
		c-0.201-0.309-0.406-0.615-0.611-0.923C80.185,38.274,78.292,35.293,75.421,33.953L75.421,33.953z M75.104,26.07
		c-0.328-0.917-0.676-1.848-1.275-2.615c-0.945-1.212-2.408-1.888-3.822-2.49c-0.418-0.178-0.846-0.356-1.299-0.396
		c-0.988-0.086-1.908,0.495-2.666,1.135c-0.934,0.788-1.756,1.697-2.447,2.706l0.15-0.091c-0.094,1.767,0.535,3.521,1.545,4.974
		s2.383,2.618,3.859,3.591c2.184-1.636,5.473-1.583,7.602,0.121C76.653,30.621,75.907,28.316,75.104,26.07L75.104,26.07z"/>
	<path fill="#AF7B6E" d="M67.224,19.066c-0.117,0.193-0.129,0.458,0.012,0.642c0.283-0.108,0.568-0.167,0.836-0.137
		c0.221,0.025,0.285,0.27,0.107,0.402c-0.037,0.029-0.074,0.054-0.111,0.077c3.264,0.979,5.432,2.414,7.428,4.779
		c0.502,0.595,0.992,1.248,1.488,1.968c2.035,2.96,2.775,6.006,3.627,9.366c0.111,0.121,0.223,0.241,0.334,0.364
		c0.387-4.196-1.785-8.202-4.115-11.529c-2.008-2.867-4.119-4.46-7.115-5.557c-0.475-0.173-0.955-0.33-1.439-0.471
		c-0.154-0.045-0.311-0.09-0.465-0.132c-0.014-0.003-0.023-0.006-0.035-0.008C67.522,18.775,67.329,18.892,67.224,19.066
		L67.224,19.066z"/>
	<path fill="#AF7B6E" d="M80.608,36.163c-0.639-0.68-1.305-1.299-2.004-1.828c-0.039-0.029-0.08,0.016-0.074,0.055
		c0,0.005,0.002,0.009,0.004,0.014c1.072,2.089,2.514,4.038,3.965,5.98v-1.946c-0.496-0.665-1.016-1.308-1.557-1.911
		C80.833,36.404,80.722,36.283,80.608,36.163z M82.501,64.858c-2.398-3.324-6.111-5.877-8.488-9.205
		c-3.729-5.227-5.324-10.979-4.336-17.36c0.016-0.097-0.078-0.153-0.146-0.127c-0.025,0.01-0.049,0.031-0.061,0.069
		c-0.219,0.811-0.367,1.632-0.451,2.457c-0.266,2.601,0.111,5.246,0.916,7.76c0.533,1.672,1.256,3.283,2.104,4.781
		c1.363,2.409,3.088,4.608,4.924,6.671c1.844,2.07,4.041,3.836,5.539,6.155V64.858L82.501,64.858z M80.429,53.947
		c-0.072-0.068-0.156-0.09-0.232-0.075c-0.111,0.02-0.201,0.101-0.232,0.209c-0.006,0.023-0.01,0.05-0.01,0.075
		c0.002,0.043,0.012,0.088,0.035,0.132c0.697,1.303,1.635,2.5,2.512,3.72v-1.66C81.858,55.469,81.171,54.653,80.429,53.947z
		 M64.204,22.671c0.514-0.635,1.16-1.277,1.848-1.726c0.385-0.251,0.83-0.491,1.27-0.625c0.273-0.083,0.512-0.129,0.746-0.271
		c0.037-0.023,0.074-0.048,0.111-0.077c0.178-0.133,0.111-0.377-0.107-0.402c-0.268-0.03-0.553,0.028-0.836,0.137
		c-0.561,0.211-1.117,0.61-1.523,0.9c-0.744,0.533-1.287,1.089-1.775,1.854c-0.016,0.021-0.023,0.045-0.025,0.07
		C63.899,22.675,64.101,22.802,64.204,22.671L64.204,22.671z"/>
	<path fill="#231F20" d="M36.042,2.498H35.39c0.145,0.021,0.293,0.029,0.449,0.022C35.907,2.518,35.976,2.511,36.042,2.498z"/>
	<path fill="#FEE3CE" d="M18.192,36.014c-0.305,1.229-0.164,2.67,0.129,4.093c0.271,1.313,0.676,2.608,0.986,3.702
		c0.865,3.04,1.662,6.1,2.393,9.175c-0.143-2.362-0.459-4.713-0.945-7.028c-0.238-1.137-0.52-2.284-0.426-3.439
		c0.156-1.918,2.215-4.335,4.238-4.444c2.375-0.127,4.283,2.452,6.322,3.323c0.982,0.419,1.949,0.384,2.781,0.02
		c1.127-0.493,2.006-1.59,2.332-2.982c0.525-2.234-0.211-4.621-1.5-6.52c-1.289-1.899-3.086-3.389-4.898-4.795
		c-0.98-0.76-2.119-1.545-3.346-1.36c-1.012,0.152-1.801,0.934-2.482,1.698c-0.445,0.501-0.922,1.037-1.402,1.6
		C20.612,31.122,18.796,33.561,18.192,36.014L18.192,36.014z M67.106,36.014c-0.641-2.596-2.635-5.175-4.488-7.317
		c-0.375-0.433-0.744-0.849-1.096-1.242c-0.682-0.766-1.473-1.546-2.484-1.698c-1.225-0.185-2.363,0.602-3.342,1.359
		c-1.814,1.407-3.613,2.896-4.902,4.796c-1.287,1.898-2.021,4.285-1.498,6.52c0.328,1.392,1.205,2.489,2.33,2.982
		c0.834,0.363,1.801,0.398,2.783-0.021c2.041-0.871,3.947-3.45,6.322-3.323c2.023,0.108,4.084,2.526,4.236,4.444
		c0.096,1.155-0.188,2.304-0.424,3.439c-0.488,2.315-0.805,4.666-0.945,7.028c0.729-3.075,1.525-6.135,2.391-9.175
		c0.279-0.98,0.633-2.125,0.898-3.298C67.241,38.96,67.44,37.357,67.106,36.014L67.106,36.014z"/>
	<path fill="#333333" d="M82.499,82.499h-80V2.498h80V82.499z M3.302,81.693h78.396V3.303H3.302V81.693z"/>
</g>
</svg>
