<?xml version="1.0" encoding="utf-8"?>
<!-- Generator: Adobe Illustrator 16.0.2, SVG Export Plug-In . SVG Version: 6.00 Build 0)  -->
<!DOCTYPE svg PUBLIC "-//W3C//DTD SVG 1.1//EN" "http://www.w3.org/Graphics/SVG/1.1/DTD/svg11.dtd">
<svg version="1.1" id="Layer_1" xmlns="http://www.w3.org/2000/svg" xmlns:xlink="http://www.w3.org/1999/xlink" x="0px" y="0px"
	 width="85px" height="85px" viewBox="0 0 85 85" enable-background="new 0 0 85 85" xml:space="preserve">
<g>
	<path d="M70.628,62.009c1.18,0.26,1.559,0.725,1.561,1.941c0.002,3.145,0.018,6.287-0.016,9.432
		c-0.006,0.641,0.088,0.875,0.816,0.859c2.467-0.059,4.936,0.012,7.404-0.039c0.957-0.02,1.65,0.27,2.105,1.111
		c0,0.313,0,0.625,0,0.938c-0.344,0.994-0.727,1.281-1.824,1.314c-0.932,0.027-1.863,0.021-2.797,0.002
		c-0.563-0.012-0.797,0.209-0.779,0.777c0.021,0.775,0.023,1.555-0.002,2.33c-0.035,1.1-0.32,1.482-1.314,1.824
		c-0.314,0-0.625,0-0.939,0c-0.98-0.34-1.27-0.711-1.314-1.758c-0.035-0.807-0.018-1.613-0.01-2.422
		c0.004-0.523-0.213-0.75-0.746-0.746c-1.432,0.012-2.863,0.012-4.295,0c-0.535-0.004-0.75,0.223-0.746,0.746
		c0.008,0.809,0.023,1.615-0.01,2.422c-0.045,1.047-0.334,1.418-1.316,1.758c-0.313,0-0.623,0-0.938,0
		c-0.98-0.34-1.27-0.711-1.314-1.758c-0.035-0.807-0.018-1.613-0.012-2.422c0.006-0.523-0.211-0.75-0.744-0.746
		c-1.432,0.012-2.863,0.012-4.295,0c-0.535-0.004-0.75,0.223-0.746,0.746c0.008,0.809,0.023,1.615-0.01,2.422
		c-0.045,1.047-0.334,1.418-1.316,1.758c-0.313,0-0.625,0-0.938,0c-0.98-0.34-1.271-0.711-1.314-1.758
		c-0.035-0.807-0.02-1.613-0.012-2.422c0.006-0.523-0.211-0.75-0.744-0.746c-1.432,0.012-2.863,0.012-4.295,0
		c-0.535-0.004-0.75,0.223-0.746,0.746c0.008,0.809,0.023,1.615-0.01,2.422c-0.045,1.047-0.334,1.418-1.316,1.758
		c-0.313,0-0.625,0-0.938,0c-0.982-0.34-1.271-0.711-1.314-1.758c-0.035-0.807-0.02-1.613-0.012-2.422
		c0.006-0.523-0.211-0.75-0.744-0.746c-1.432,0.012-2.863,0.012-4.295,0c-0.535-0.004-0.75,0.223-0.746,0.746
		c0.008,0.809,0.025,1.615-0.01,2.422c-0.045,1.047-0.334,1.418-1.314,1.758c-0.314,0-0.625,0-0.939,0
		c-0.98-0.34-1.27-0.711-1.314-1.758c-0.035-0.807-0.018-1.613-0.012-2.422c0.006-0.523-0.211-0.75-0.744-0.746
		c-1.432,0.012-2.863,0.012-4.295,0c-0.535-0.004-0.75,0.223-0.746,0.746c0.008,0.809,0.023,1.615-0.01,2.422
		c-0.045,1.047-0.334,1.418-1.314,1.758c-0.314,0-0.627,0-0.939,0c-0.98-0.34-1.27-0.711-1.314-1.758
		c-0.033-0.807-0.018-1.613-0.01-2.422c0.006-0.523-0.211-0.75-0.744-0.746c-1.434,0.012-2.865,0.012-4.297,0
		c-0.533-0.004-0.75,0.223-0.744,0.746c0.008,0.809,0.023,1.615-0.012,2.422c-0.045,1.047-0.332,1.418-1.314,1.758
		c-0.313,0-0.625,0-0.938,0c-0.984-0.34-1.271-0.709-1.316-1.756c-0.035-0.807-0.018-1.613-0.01-2.42
		c0.004-0.523-0.213-0.752-0.746-0.75c-1.586,0.012-3.176,0.012-4.764,0c-0.531-0.002-0.748,0.227-0.744,0.75
		c0.006,0.807,0.023,1.613-0.01,2.42c-0.047,1.047-0.334,1.416-1.316,1.756c-0.313,0-0.625,0-0.938,0
		c-0.996-0.342-1.281-0.727-1.314-1.824c-0.025-0.803-0.016-1.605-0.006-2.408c0.006-0.492-0.203-0.701-0.697-0.697
		c-0.803,0.01-1.605,0.021-2.408-0.004c-1.098-0.035-1.48-0.32-1.824-1.314c0-0.313,0-0.625,0-0.938
		c0.34-0.984,0.709-1.271,1.758-1.316c0.807-0.035,1.613-0.018,2.42-0.012c0.523,0.004,0.75-0.211,0.748-0.744
		c-0.012-1.588-0.012-3.176,0-4.764c0.002-0.533-0.225-0.748-0.748-0.744c-0.807,0.006-1.613,0.023-2.42-0.01
		c-1.049-0.047-1.418-0.334-1.758-1.316c0-0.314,0-0.625,0-0.939c0.34-0.98,0.711-1.27,1.758-1.314
		c0.807-0.035,1.615-0.018,2.422-0.01c0.523,0.004,0.752-0.211,0.746-0.746c-0.012-1.432-0.012-2.863,0-4.295
		c0.006-0.535-0.223-0.75-0.746-0.746c-0.807,0.008-1.615,0.023-2.422-0.01c-1.047-0.045-1.418-0.334-1.758-1.314
		c0-0.314,0-0.625,0-0.939c0.34-0.98,0.711-1.27,1.758-1.314c0.807-0.035,1.615-0.018,2.422-0.01
		c0.523,0.004,0.752-0.211,0.746-0.746c-0.012-1.432-0.012-2.863,0-4.295c0.006-0.535-0.223-0.75-0.746-0.746
		c-0.807,0.008-1.615,0.023-2.422-0.01c-1.047-0.045-1.418-0.334-1.758-1.314c0-0.314,0-0.625,0-0.939
		c0.34-0.98,0.711-1.27,1.758-1.314c0.807-0.035,1.615-0.018,2.422-0.01c0.523,0.004,0.752-0.211,0.746-0.746
		c-0.012-1.432-0.012-2.863,0-4.295c0.006-0.535-0.223-0.75-0.746-0.746c-0.807,0.008-1.615,0.025-2.422-0.01
		c-1.047-0.045-1.418-0.334-1.758-1.314c0-0.313,0-0.625,0-0.938c0.34-0.981,0.711-1.271,1.758-1.315
		c0.807-0.035,1.615-0.018,2.422-0.011c0.523,0.005,0.752-0.211,0.746-0.745c-0.012-1.432-0.012-2.863,0-4.296
		c0.006-0.534-0.223-0.749-0.746-0.745c-0.807,0.008-1.615,0.025-2.422-0.01c-1.047-0.045-1.418-0.333-1.758-1.314
		c0-0.313,0-0.625,0-0.938c0.34-0.981,0.711-1.271,1.758-1.315c0.807-0.035,1.615-0.018,2.422-0.011
		c0.523,0.005,0.752-0.211,0.746-0.745c-0.012-1.432-0.012-2.863,0-4.296c0.006-0.534-0.223-0.75-0.746-0.745
		c-0.807,0.008-1.615,0.024-2.422-0.01c-1.047-0.045-1.418-0.334-1.758-1.314c0-0.313,0-0.625,0-0.938
		c0.34-0.981,0.711-1.271,1.758-1.315c0.807-0.035,1.615-0.018,2.422-0.011c0.523,0.005,0.752-0.211,0.746-0.745
		c-0.012-1.432-0.012-2.863,0-4.296c0.006-0.534-0.223-0.75-0.746-0.745c-0.807,0.008-1.615,0.024-2.422-0.01
		c-1.047-0.045-1.418-0.334-1.758-1.314c0-0.313,0-0.625,0-0.938c0.344-0.995,0.727-1.28,1.824-1.315
		c0.803-0.025,1.605-0.016,2.408-0.007c0.494,0.007,0.697-0.208,0.695-0.698C7.423,6.241,7.407,5.282,7.437,4.323
		c0.031-1.098,0.318-1.479,1.314-1.822c0.313,0,0.625,0,0.938,0c0.852,0.451,1.109,1.158,1.107,2.113
		c-0.02,22.91-0.012,45.822-0.029,68.734c0,0.686,0.139,0.898,0.865,0.889c3.281-0.045,6.563-0.033,9.844-0.006
		c0.563,0.006,0.73-0.105,0.729-0.709c-0.027-5.492-0.018-10.986-0.016-16.48c0-1.543,0.506-2.041,2.066-2.043
		c2.785,0,5.572,0,8.357,0c1.588,0.002,2.074,0.496,2.074,2.117c0,5.441,0.014,10.883-0.018,16.324
		c-0.004,0.656,0.16,0.814,0.805,0.795c1.586-0.053,3.178-0.049,4.764-0.002c0.598,0.02,0.715-0.152,0.713-0.727
		c-0.021-8.564-0.014-17.131-0.014-25.695c0-1.73,0.451-2.188,2.158-2.188c2.785-0.002,5.572-0.002,8.357,0
		c1.443,0.002,1.98,0.535,1.98,1.973c0.004,8.594,0.014,17.186-0.018,25.775c-0.004,0.742,0.219,0.881,0.896,0.859
		c1.561-0.049,3.125-0.051,4.684,0.004c0.621,0.02,0.701-0.189,0.701-0.74c-0.018-11.662-0.014-23.328-0.014-34.992
		c0-1.832,0.422-2.254,2.248-2.254c2.785,0,5.57-0.004,8.357,0c1.332,0.002,1.893,0.566,1.895,1.904
		c0.004,3.672,0.004,7.342,0,11.014c-0.002,1.227-0.375,1.686-1.559,1.947c-0.715,0.139-1.23-0.123-1.57-0.789
		c-0.232-0.459-0.242-0.953-0.242-1.449c-0.004-2.732,0.004-5.467-0.006-8.199c-0.002-0.988-0.068-1.049-1.074-1.053
		c-1.275-0.006-2.553,0.01-3.826-0.006c-0.584-0.008-0.879,0.211-0.848,0.818c0.014,0.232,0,0.469,0,0.703
		c-0.002,10.438-0.002,20.873,0,31.313c0,0.078-0.002,0.156,0,0.234c0.006,1.277,0.006,1.279,1.316,1.281
		c1.119,0,2.24,0.006,3.359-0.002c1.006-0.006,1.068-0.063,1.072-1.055c0.01-2.889,0-5.777,0.006-8.666
		c0-0.496,0.01-0.992,0.24-1.449C69.397,62.132,69.915,61.87,70.628,62.009z"/>
	<path d="M28.907,2.501c0.666,0.382,1.016,0.93,1.154,1.714c0.607,3.452,1.287,6.896,1.9,10.347c0.09,0.497,0.264,0.615,0.736,0.607
		c1.611-0.028,3.227-0.018,4.84-0.01c1.604,0.008,2.287,1.184,1.488,2.584c-3.02,5.301-6.051,10.595-9.072,15.895
		c-0.393,0.689-0.916,1.163-1.75,1.023c-0.818-0.137-1.197-0.699-1.354-1.502c-0.605-3.138-1.26-6.265-1.857-9.401
		c-0.117-0.61-0.318-0.835-0.984-0.81c-1.559,0.064-3.121,0.027-4.684,0.02s-2.254-1.148-1.514-2.525
		c3.027-5.621,6.07-11.234,9.096-16.856c0.256-0.478,0.629-0.8,1.061-1.083C28.282,2.501,28.595,2.501,28.907,2.501z"/>
	<path d="M66.813,15.939c-1.887,0-3.604,0.005-5.32-0.003c-1.082-0.004-1.779-0.604-1.801-1.525
		c-0.021-0.953,0.689-1.592,1.809-1.594c2.969-0.007,5.938-0.009,8.906,0c1.176,0.002,1.773,0.604,1.779,1.781
		c0.008,2.969,0.006,5.938,0,8.905c-0.002,1.108-0.654,1.829-1.602,1.806c-0.92-0.023-1.516-0.722-1.52-1.806
		c-0.008-1.716-0.002-3.433-0.002-5.214c-0.326,0.093-0.475,0.347-0.656,0.529c-4.994,4.985-9.99,9.969-14.965,14.977
		c-0.633,0.638-1.299,0.928-2.207,0.91c-2.447-0.051-4.896,0-7.342-0.031c-0.547-0.008-0.908,0.169-1.285,0.546
		c-4.186,4.21-8.389,8.403-12.588,12.601c-0.201,0.203-0.398,0.416-0.625,0.588c-0.668,0.502-1.49,0.443-2.059-0.127
		c-0.566-0.568-0.617-1.396-0.113-2.057c0.143-0.188,0.314-0.348,0.48-0.514c4.436-4.438,8.881-8.869,13.305-13.32
		c0.57-0.574,1.172-0.854,1.996-0.842c2.551,0.037,5.104,0.01,7.656,0.02c0.354,0.002,0.631-0.059,0.9-0.328
		c4.98-5,9.973-9.986,14.963-14.978C66.591,16.196,66.649,16.122,66.813,15.939z"/>
	<path fill="#FE7D96" d="M70.628,62.009c-1.184,0.258-1.563,0.723-1.563,1.941c-0.004,3.199-0.018,6.4,0.012,9.6
		c0.006,0.551-0.139,0.695-0.686,0.684c-1.664-0.037-3.33-0.035-4.994,0c-0.5,0.01-0.596-0.15-0.594-0.615
		c0.014-11.213,0.014-22.426,0-33.639c-0.002-0.461,0.088-0.627,0.592-0.615c1.664,0.033,3.33,0.035,4.994-0.002
		c0.545-0.012,0.691,0.129,0.688,0.682c-0.029,3.043-0.016,6.088-0.012,9.131c0,1.221,0.379,1.684,1.563,1.943
		c0,1.287,0,2.574,0,3.859c-0.127,0.225-0.373,0.268-0.576,0.373c-0.512,0.264-0.779,0.689-0.764,1.252
		c0.014,0.525,0.279,0.93,0.764,1.176c0.203,0.104,0.449,0.146,0.576,0.371C70.628,59.437,70.628,60.724,70.628,62.009z"/>
	<path fill="#010101" d="M70.628,58.149c-1.059-0.232-1.582-0.775-1.561-1.625c0.02-0.818,0.529-1.324,1.561-1.547
		c1.023,0.225,1.535,0.732,1.557,1.547C72.204,57.368,71.681,57.915,70.628,58.149z"/>
	<path fill="#D7EB83" d="M50.313,61.479c0,4.008-0.012,8.016,0.014,12.021c0.004,0.566-0.107,0.752-0.713,0.734
		c-1.664-0.047-3.33-0.031-4.996-0.006c-0.438,0.006-0.564-0.115-0.564-0.561c0.016-8.119,0.018-16.238-0.004-24.357
		c0-0.531,0.205-0.574,0.637-0.568c1.639,0.02,3.277,0.035,4.918-0.008c0.58-0.016,0.729,0.131,0.725,0.721
		C50.3,53.464,50.313,57.472,50.313,61.479z"/>
	<path fill="#FEF19F" d="M25.313,66.095c0-2.445,0.016-4.895-0.012-7.34c-0.006-0.508,0.125-0.652,0.639-0.643
		c1.691,0.033,3.385,0.029,5.076,0.002c0.441-0.006,0.559,0.125,0.557,0.563c-0.014,4.996-0.014,9.994,0,14.99
		c0.002,0.439-0.113,0.568-0.559,0.563c-1.717-0.025-3.436-0.025-5.152,0c-0.443,0.008-0.563-0.123-0.559-0.563
		C25.323,71.144,25.313,68.618,25.313,66.095z"/>
	<path fill="#FEF19F" d="M27.706,8.71c0.533,2.857,1.016,5.459,1.504,8.059c0.203,1.078,0.717,1.508,1.82,1.514
		c1.316,0.006,2.633,0.002,4.088,0.002c-1.996,3.496-3.93,6.877-5.961,10.433c-0.52-2.567-0.996-4.94-1.48-7.312
		c-0.238-1.177-0.717-1.557-1.939-1.56c-1.314-0.003-2.631-0.001-4.051-0.001C23.69,16.138,25.644,12.526,27.706,8.71z"/>
</g>
</svg>
