<?xml version="1.0" encoding="utf-8"?>
<!-- Generator: Adobe Illustrator 16.0.0, SVG Export Plug-In . SVG Version: 6.00 Build 0)  -->
<!DOCTYPE svg PUBLIC "-//W3C//DTD SVG 1.1//EN" "http://www.w3.org/Graphics/SVG/1.1/DTD/svg11.dtd">
<svg version="1.1" id="Capa_1" xmlns="http://www.w3.org/2000/svg" xmlns:xlink="http://www.w3.org/1999/xlink" x="0px" y="0px"
	 width="85px" height="85px" viewBox="0 0 85 85" enable-background="new 0 0 85 85" xml:space="preserve">
<g>
	<g>
		<rect x="7.433" y="48.763" fill="#ECEAEC" width="7.515" height="15.029"/>
		<rect x="7.433" y="48.763" fill="#DAD8DB" width="3.758" height="5.01"/>
		<rect x="8.686" y="53.772" fill="#FF9A9F" width="6.264" height="7.516"/>
		<rect x="19.957" y="53.772" fill="#ECEAEC" width="7.516" height="10.021"/>
		<rect x="32.484" y="36.237" fill="#ECEAEC" width="7.514" height="27.557"/>
		<rect x="33.736" y="43.753" fill="#F6D190" width="6.262" height="18.787"/>
		<path fill="#ECBD83" d="M36.24,57.53V43.753h-3.756v20.041h7.514v-3.758h-1.252C37.361,60.036,36.24,58.913,36.24,57.53z"/>
		<rect x="45.008" y="21.206" fill="#ECEAEC" width="7.516" height="42.586"/>
		<rect x="46.26" y="38.742" fill="#FFE09F" width="6.264" height="23.798"/>
		<path fill="#F6D190" d="M48.766,57.53V38.742h-3.758v25.05h7.516v-3.758h-1.252C49.887,60.036,48.766,58.913,48.766,57.53z"/>
		<rect x="57.533" y="26.218" fill="#ECEAEC" width="7.516" height="37.576"/>
		<rect x="58.787" y="43.753" fill="#F6D190" width="6.262" height="18.787"/>
		<path fill="#ECBD83" d="M61.291,57.53V43.753h-3.758v20.041h7.516v-3.758h-1.252C62.412,60.036,61.291,58.913,61.291,57.53z"/>
		<rect x="70.059" y="8.683" fill="#ECEAEC" width="7.516" height="55.111"/>
		<circle fill="#ECEAEC" cx="11.19" cy="72.561" r="3.759"/>
		<circle fill="#DAD8DB" cx="23.715" cy="72.561" r="3.759"/>
		<circle fill="#ECBD83" cx="36.24" cy="72.561" r="3.759"/>
		<circle fill="#F9EAC7" cx="73.816" cy="72.561" r="3.759"/>
		<rect x="71.311" y="26.218" fill="#DCDCA0" width="6.264" height="36.322"/>
		<path fill="#B9CDA5" d="M73.816,57.53V26.218h-3.758v37.576h7.516v-3.758h-1.252C74.938,60.036,73.816,58.913,73.816,57.53z"/>
		<circle fill="#F6D190" cx="48.766" cy="72.561" r="3.759"/>
		<circle fill="#FFE09F" cx="61.291" cy="72.561" r="3.759"/>
		<rect x="19.957" y="58.784" fill="#E5646E" width="7.516" height="5.01"/>
		<rect x="19.957" y="53.772" fill="#DAD8DB" width="3.758" height="5.012"/>
		<path fill="#FF8086" d="M11.19,57.53v-3.758H7.433v10.021h7.515v-3.758h-1.252C12.312,60.036,11.19,58.913,11.19,57.53z"/>
		<rect x="32.484" y="36.237" fill="#DAD8DB" width="3.756" height="7.516"/>
		<rect x="45.008" y="21.206" fill="#DAD8DB" width="3.758" height="17.536"/>
		<rect x="57.533" y="26.218" fill="#DAD8DB" width="3.758" height="17.535"/>
		<rect x="70.059" y="8.683" fill="#DAD8DB" width="3.758" height="17.535"/>
		<path fill="#F4DBB3" d="M75.721,74.413c-2.074,0-3.758-1.684-3.758-3.758c0-0.543,0.121-1.059,0.328-1.523
			c-1.312,0.584-2.232,1.896-2.232,3.428c0,2.076,1.684,3.758,3.758,3.758c1.531,0,2.844-0.918,3.43-2.232
			C76.779,74.292,76.264,74.413,75.721,74.413z"/>
		<path fill="#F6D190" d="M63.195,74.413c-2.074,0-3.756-1.684-3.756-3.758c0-0.543,0.119-1.059,0.326-1.523
			c-1.312,0.584-2.232,1.896-2.232,3.428c0,2.076,1.684,3.758,3.758,3.758c1.531,0,2.844-0.918,3.43-2.232
			C64.254,74.292,63.74,74.413,63.195,74.413z"/>
		<path fill="#ECBD83" d="M50.67,74.413c-2.074,0-3.756-1.684-3.756-3.758c0-0.543,0.119-1.059,0.328-1.523
			c-1.314,0.584-2.234,1.896-2.234,3.428c0,2.076,1.684,3.758,3.758,3.758c1.531,0,2.846-0.918,3.43-2.232
			C51.729,74.292,51.215,74.413,50.67,74.413z"/>
		<path fill="#E2A975" d="M38.146,74.413c-2.076,0-3.758-1.684-3.758-3.758c0-0.543,0.121-1.059,0.328-1.523
			c-1.312,0.584-2.232,1.896-2.232,3.428c0,2.076,1.684,3.758,3.758,3.758c1.531,0,2.844-0.918,3.428-2.232
			C39.203,74.292,38.689,74.413,38.146,74.413z"/>
		<path fill="#C8C5C9" d="M25.621,74.413c-2.076,0-3.758-1.684-3.758-3.758c0-0.543,0.121-1.059,0.328-1.523
			c-1.314,0.584-2.234,1.896-2.234,3.428c0,2.076,1.684,3.758,3.758,3.758c1.531,0,2.846-0.918,3.43-2.232
			C26.678,74.292,26.164,74.413,25.621,74.413z"/>
		<path fill="#DAD8DB" d="M13.095,74.413c-2.075,0-3.759-1.684-3.759-3.758c0-0.543,0.121-1.059,0.33-1.523
			c-1.314,0.584-2.233,1.896-2.233,3.428c0,2.076,1.683,3.758,3.757,3.758c1.531,0,2.844-0.918,3.43-2.232
			C14.152,74.292,13.639,74.413,13.095,74.413z"/>
	</g>
	<g>
		<path d="M81.332,62.62h-2.586V8.681c0-0.646-0.525-1.172-1.172-1.172h-7.516c-0.646,0-1.172,0.525-1.172,1.172v20.041
			c0,0.646,0.523,1.172,1.172,1.172s1.172-0.523,1.172-1.172v-1.334h5.172V62.62H71.23V33.732c0-0.647-0.523-1.172-1.172-1.172
			s-1.172,0.524-1.172,1.172V62.62h-2.666V26.216c0-0.646-0.525-1.172-1.172-1.172h-7.516c-0.648,0-1.172,0.525-1.172,1.172V62.62
			h-2.666V21.206c0-0.646-0.525-1.172-1.172-1.172h-7.518c-0.645,0-1.172,0.525-1.172,1.172V62.62h-2.666V36.236
			c0-0.647-0.523-1.172-1.172-1.172h-7.514c-0.648,0-1.172,0.524-1.172,1.172v10.021c0,0.646,0.523,1.172,1.172,1.172
			c0.646,0,1.172-0.524,1.172-1.172v-1.332h5.17V62.62h-5.17V51.267c0-0.646-0.525-1.172-1.172-1.172
			c-0.648,0-1.172,0.524-1.172,1.172V62.62h-2.666v-8.85c0-0.645-0.525-1.172-1.174-1.172h-7.516c-0.646,0-1.172,0.525-1.172,1.172
			v8.85h-2.666V48.763c0-0.647-0.524-1.172-1.172-1.172H7.43c-0.646,0-1.172,0.523-1.172,1.172V62.62H3.673
			c-0.647,0-1.173,0.523-1.173,1.172s0.525,1.172,1.173,1.172h77.655c0.648,0,1.172-0.523,1.172-1.172S81.979,62.62,81.332,62.62z
			 M71.23,25.046V9.854h5.172v15.191H71.23L71.23,25.046z M33.654,42.581v-5.172h5.172v5.172H33.654z M63.877,27.39v15.191h-5.172
			V27.39H63.877z M58.705,44.925h5.172V62.62h-5.172V44.925z M51.352,22.38v15.19H46.18V22.38H51.352z M46.18,39.915h5.172v22.707
			H46.18V39.915L46.18,39.915z M26.301,54.944v2.668h-5.172v-2.668H26.301z M21.129,59.954h5.172v2.666h-5.172V59.954z
			 M13.775,49.935v2.666H8.604v-2.666H13.775z M8.604,54.944h5.171v7.678H8.604V54.944z"/>
		<path d="M11.19,67.63c-2.718,0-4.929,2.213-4.929,4.93c0,2.719,2.211,4.932,4.929,4.932s4.929-2.213,4.929-4.932
			C16.119,69.843,13.908,67.63,11.19,67.63z M11.19,75.146c-1.426,0-2.585-1.158-2.585-2.586c0-1.426,1.16-2.584,2.585-2.584
			s2.585,1.158,2.585,2.584C13.775,73.987,12.615,75.146,11.19,75.146z"/>
		<path d="M23.715,67.63c-2.717,0-4.93,2.213-4.93,4.93c0,2.719,2.211,4.932,4.93,4.932s4.93-2.213,4.93-4.932
			C28.645,69.843,26.434,67.63,23.715,67.63z M23.715,75.146c-1.426,0-2.586-1.158-2.586-2.586c0-1.426,1.16-2.584,2.586-2.584
			s2.586,1.158,2.586,2.584C26.301,73.987,25.141,75.146,23.715,75.146z"/>
		<path d="M36.24,67.63c-2.717,0-4.928,2.213-4.928,4.93c0,2.719,2.211,4.932,4.928,4.932c2.719,0,4.93-2.213,4.93-4.932
			C41.17,69.843,38.959,67.63,36.24,67.63z M36.24,75.146c-1.426,0-2.584-1.158-2.584-2.586c0-1.426,1.16-2.584,2.584-2.584
			c1.426,0,2.586,1.158,2.586,2.584C38.826,73.987,37.666,75.146,36.24,75.146z"/>
		<path d="M48.766,67.63c-2.719,0-4.93,2.213-4.93,4.93c0,2.719,2.211,4.932,4.93,4.932s4.93-2.213,4.93-4.932
			C53.695,69.843,51.484,67.63,48.766,67.63z M48.766,75.146c-1.426,0-2.586-1.158-2.586-2.586c0-1.426,1.16-2.584,2.586-2.584
			s2.586,1.158,2.586,2.584C51.352,73.987,50.191,75.146,48.766,75.146z"/>
		<path d="M61.291,67.63c-2.719,0-4.93,2.213-4.93,4.93c0,2.719,2.211,4.932,4.93,4.932s4.93-2.213,4.93-4.932
			C66.221,69.843,64.008,67.63,61.291,67.63z M61.291,75.146c-1.426,0-2.586-1.158-2.586-2.586c0-1.426,1.16-2.584,2.586-2.584
			s2.586,1.158,2.586,2.584C63.877,73.987,62.717,75.146,61.291,75.146z"/>
		<path d="M73.816,67.63c-2.719,0-4.93,2.213-4.93,4.93c0,2.719,2.211,4.932,4.93,4.932s4.93-2.213,4.93-4.932
			C78.746,69.843,76.535,67.63,73.816,67.63z M73.816,75.146c-1.428,0-2.586-1.158-2.586-2.586c0-1.426,1.158-2.584,2.586-2.584
			c1.426,0,2.586,1.158,2.586,2.584C76.402,73.987,75.242,75.146,73.816,75.146z"/>
	</g>
</g>
</svg>
