<?xml version="1.0" encoding="utf-8"?>
<!-- Generator: Adobe Illustrator 16.0.0, SVG Export Plug-In . SVG Version: 6.00 Build 0)  -->
<!DOCTYPE svg PUBLIC "-//W3C//DTD SVG 1.1//EN" "http://www.w3.org/Graphics/SVG/1.1/DTD/svg11.dtd">
<svg version="1.1" id="Capa_1" xmlns="http://www.w3.org/2000/svg" xmlns:xlink="http://www.w3.org/1999/xlink" x="0px" y="0px"
	 width="85px" height="85px" viewBox="0 0 85 85" enable-background="new 0 0 85 85" xml:space="preserve">
<g>
	<path fill="#C7BEA8" d="M34.486,13.151c0.082,0.387-0.075,0.785-0.398,1.016l-3.105,2.201c0.752,3.295,4.439,18.561,9.998,27.225
		c-0.674-3.291-4.312-21.15-5.189-25.443c-1.188-5.805-1.457-9.365-1.262-11.609c-0.988,0.908-1.984,1.975-2.69,3.07
		c-0.001,0.002-0.002,0.006-0.004,0.008c-0.465,0.725-0.803,1.459-0.927,2.172l2.811,0.59C34.104,12.46,34.406,12.763,34.486,13.151
		z"/>
	<path fill="#C7BEA8" d="M47.822,4.489H37.182c-0.307,0.332-0.697,1.18-0.718,3.312h12.079C48.521,5.665,48.129,4.821,47.822,4.489z
		"/>
	<path fill="#C7BEA8" d="M20.893,77.835c0.012-0.092,1.094-8.357,3.127-16.023c-0.197-1.803-1.479-14.738,1.787-21.838
		c-0.625-4.842-5.984-24.709-5.984-24.709c-1.074,1.908-2.674,6.572-2.674,17.43c0,3.654-0.295,7.873-0.582,11.951
		c-0.283,4.033-0.551,7.844-0.551,11.098c0,5.705,0.42,20.664,0.537,24.705l6.711-0.348v-0.637
		c-0.982-0.312-1.617-0.527-1.707-0.561C21.109,78.751,20.832,78.304,20.893,77.835z"/>
	<path fill="#C7BEA8" d="M54.023,16.366l-3.105-2.201c-0.322-0.229-0.479-0.627-0.398-1.016c0.08-0.387,0.383-0.689,0.77-0.771
		l2.811-0.59c-0.312-1.797-1.979-3.746-3.621-5.254c0.195,2.244-0.074,5.805-1.262,11.613c-0.871,4.254-4.51,22.119-5.189,25.439
		C49.588,34.915,53.271,19.661,54.023,16.366z"/>
	<path fill="#C7BEA8" d="M26.445,44.476c-0.827,3.811-0.908,8.346-0.795,11.816C26.482,53.396,27.061,50.235,26.445,44.476z"/>
	<path fill="#C7BEA8" d="M40.346,55.556c-1.607,0-2.916-1.309-2.916-2.916c0-1.609,1.309-2.916,2.916-2.916
		c0.672,0,1.291,0.229,1.783,0.613c-0.074-0.783-0.17-1.561-0.285-2.32c-7.939-8.633-12.75-30.92-12.953-31.873
		c-0.082-0.389,0.074-0.789,0.398-1.02l1.787-1.266l-1.416-0.297c-0.441-0.094-0.766-0.471-0.79-0.92
		c-0.033-0.6,0.045-1.199,0.208-1.787l-7.588,2.918L25.406,28.8c6.381,22.068,1.604,29.857,1.601,29.869l7.017-0.557
		c0.549-0.043,1.029,0.367,1.072,0.914c0.043,0.549-0.367,1.029-0.914,1.072l-7.795,0.615c-1.891,6.568-3.057,14.113-3.408,16.562
		c2.168,0.707,8.394,2.652,12.606,3.143c3.378,0.391,4.073-1.73,4.146-1.996l1.324-7.588c0.02-0.113,1.447-7.873,1.311-16.1
		C41.844,55.243,41.131,55.556,40.346,55.556z"/>
	<path fill="#C7BEA8" d="M58.559,44.476c-0.615,5.758-0.037,8.918,0.797,11.812C59.467,52.819,59.385,48.286,58.559,44.476z"/>
	<path fill="#C7BEA8" d="M58.615,60.716l-7.793-0.617c-0.549-0.043-0.957-0.523-0.914-1.07c0.043-0.549,0.525-0.959,1.07-0.914
		l7.018,0.555c-0.004-0.012-4.699-8.285,1.6-29.861l3.918-15.035l-7.59-2.916c0.164,0.588,0.242,1.188,0.211,1.787
		c-0.025,0.449-0.35,0.826-0.791,0.918l-1.416,0.297l1.787,1.268c0.324,0.229,0.48,0.631,0.398,1.02
		c-0.193,0.91-4.775,22.137-12.359,31.199c1.229,7.504,0.379,16.162-0.244,20.705c0.236,1.709,0.434,2.762,0.436,2.771l1.332,7.641
		c0.049,0.25,0.594,2.502,4.105,1.961c4.205-0.646,10.441-2.49,12.641-3.162C61.666,74.794,60.502,67.269,58.615,60.716z"/>
	<path fill="#C7BEA8" d="M67.855,32.694c0-10.855-1.6-15.521-2.672-17.43c0,0-3.629,12.717-5.986,24.709
		c3.266,7.098,1.986,20.035,1.787,21.836c2.033,7.668,3.115,15.934,3.127,16.025c0.062,0.477-0.227,0.93-0.686,1.074
		c-0.09,0.029-0.717,0.229-1.688,0.52v0.67l6.713,0.348c0.115-4.041,0.535-18.998,0.535-24.705c0-3.254-0.268-7.062-0.549-11.096
		C68.152,40.565,67.855,36.347,67.855,32.694z"/>
	<path fill="#7E6F83" d="M48.471,9.792H36.534c0.14,1.912,0.497,4.488,1.206,7.955c0.877,4.295,4.16,20.416,4.762,23.354
		c0.607-2.969,3.893-19.098,4.762-23.354C47.973,14.28,48.33,11.704,48.471,9.792z"/>
	<path fill="#AB9E85" d="M39.422,52.64c0,0.51,0.414,0.924,0.924,0.924s0.926-0.414,0.926-0.924s-0.416-0.926-0.926-0.926
		C39.836,51.716,39.422,52.13,39.422,52.64z"/>
	<path fill="#3F352F" d="M69.848,32.694c0-17.732-4.244-20.211-4.729-20.436L54.65,8.233c-1.99-2.934-5.33-5.217-5.861-5.568
		c-0.17-0.111-0.359-0.164-0.551-0.164l0,0h-0.006c-0.002,0-0.002,0-0.004,0H36.764c-0.195,0-0.387,0.057-0.55,0.166
		c-0.53,0.352-3.87,2.633-5.862,5.566l-10.469,4.027c-0.484,0.223-4.727,2.703-4.727,20.436c0,3.582-0.293,7.768-0.577,11.812
		c-0.285,4.066-0.554,7.912-0.554,11.234c0,6.621,0.561,25.592,0.566,25.781c0.008,0.27,0.122,0.521,0.319,0.703
		c0.185,0.17,0.425,0.264,0.675,0.264c0.018,0,8.725-0.451,8.725-0.451c0.529-0.027,0.944-0.465,0.944-0.994v-0.969
		c2.907,0.867,6.97,1.957,10.101,2.32c0.354,0.041,0.69,0.061,1.011,0.061c3.481,0,4.989-2.277,5.308-3.592
		c0.004-0.021,0.826-4.729,0.826-4.729l0.812,4.662c0.234,1.375,1.588,3.699,5.029,3.699c0.416,0,0.861-0.033,1.34-0.107
		c3.104-0.477,7.162-1.549,10.062-2.379v1.033c0,0.529,0.414,0.967,0.943,0.992c0,0,8.709,0.451,8.727,0.451
		c0.25,0,0.49-0.094,0.676-0.264c0.195-0.182,0.311-0.434,0.318-0.701c0.008-0.191,0.566-19.162,0.566-25.783
		c0-3.322-0.27-7.166-0.555-11.234C70.141,40.462,69.848,36.278,69.848,32.694z M49.215,18.147
		c1.188-5.807,1.457-9.369,1.262-11.611c1.643,1.508,3.311,3.457,3.621,5.252l-2.811,0.592c-0.387,0.082-0.689,0.383-0.77,0.771
		c-0.082,0.387,0.076,0.785,0.398,1.016l3.105,2.199c-0.752,3.295-4.438,18.549-9.998,27.221
		C44.705,40.267,48.344,22.401,49.215,18.147z M37.182,4.489h10.641c0.309,0.332,0.699,1.176,0.719,3.312H36.464
		C36.484,5.669,36.875,4.821,37.182,4.489z M31.833,9.616c0.002-0.002,0.003-0.004,0.004-0.008c0.706-1.096,1.702-2.162,2.69-3.07
		c-0.195,2.244,0.074,5.805,1.261,11.609c0.878,4.293,4.517,22.152,5.19,25.445c-5.56-8.664-9.246-23.93-10-27.227l3.107-2.199
		c0.323-0.23,0.479-0.629,0.398-1.016s-0.383-0.689-0.77-0.771l-2.811-0.592C31.029,11.075,31.368,10.341,31.833,9.616z
		 M23.266,80.099l-6.713,0.348c-0.117-4.041-0.535-18.998-0.535-24.705c0-3.254,0.267-7.062,0.549-11.096
		c0.287-4.08,0.582-8.299,0.582-11.951c0-10.857,1.601-15.523,2.674-17.432c0,0,5.359,19.867,5.984,24.711
		c-3.266,7.098-1.984,20.035-1.787,21.836c-2.031,7.668-3.115,15.934-3.127,16.025c-0.061,0.469,0.217,0.916,0.666,1.068
		c0.09,0.031,0.725,0.246,1.707,0.561V80.099L23.266,80.099z M26.445,44.476c0.615,5.762,0.039,8.92-0.795,11.816
		C25.536,52.821,25.618,48.288,26.445,44.476z M41.057,70.835l-1.324,7.588c-0.072,0.266-0.77,2.389-4.146,1.996
		c-4.213-0.488-10.438-2.436-12.606-3.141c0.352-2.449,1.518-9.996,3.408-16.562l7.795-0.617c0.547-0.043,0.957-0.523,0.914-1.07
		c-0.043-0.549-0.523-0.957-1.072-0.914l-7.017,0.555c0.003-0.012,4.78-7.799-1.601-29.867l-3.916-15.029l7.588-2.916
		c-0.164,0.588-0.242,1.188-0.209,1.787c0.025,0.449,0.35,0.826,0.79,0.918l1.416,0.297l-1.787,1.268
		c-0.324,0.229-0.481,0.631-0.397,1.02c0.203,0.953,5.015,23.24,12.951,31.871c0.117,0.762,0.211,1.539,0.287,2.32
		c-0.494-0.383-1.111-0.613-1.783-0.613c-1.607,0-2.916,1.309-2.916,2.916s1.309,2.916,2.916,2.916c0.785,0,1.498-0.312,2.021-0.818
		C42.506,62.964,41.078,70.722,41.057,70.835z M41.271,52.64c0,0.51-0.416,0.924-0.926,0.924s-0.924-0.414-0.924-0.924
		s0.416-0.926,0.924-0.926C40.855,51.716,41.271,52.13,41.271,52.64z M42.502,41.101c-0.602-2.938-3.883-19.059-4.762-23.354
		c-0.709-3.467-1.066-6.043-1.206-7.955h11.937c-0.141,1.912-0.498,4.488-1.207,7.955C46.395,22.003,43.109,38.132,42.502,41.101z
		 M49.381,80.425c-3.512,0.539-4.055-1.713-4.104-1.963l-1.332-7.639c-0.002-0.012-0.199-1.064-0.436-2.773
		c0.623-4.543,1.471-13.201,0.242-20.705c7.586-9.062,12.168-30.289,12.359-31.199c0.084-0.389-0.074-0.791-0.396-1.02l-1.787-1.268
		l1.416-0.297c0.439-0.092,0.764-0.471,0.789-0.92c0.031-0.6-0.045-1.199-0.209-1.787l7.59,2.918l-3.918,15.035
		c-6.301,21.576-1.605,29.85-1.602,29.861l-7.016-0.557c-0.545-0.043-1.029,0.367-1.072,0.916c-0.043,0.547,0.367,1.027,0.914,1.07
		l7.793,0.615c1.887,6.555,3.053,14.08,3.406,16.547C59.822,77.933,53.586,79.776,49.381,80.425z M58.559,44.476
		c0.826,3.811,0.908,8.344,0.797,11.812C58.521,53.394,57.943,50.233,58.559,44.476z M68.451,80.446l-6.713-0.348v-0.67
		c0.971-0.291,1.596-0.49,1.688-0.52c0.459-0.145,0.748-0.598,0.686-1.074c-0.012-0.094-1.094-8.357-3.127-16.025
		c0.199-1.803,1.479-14.738-1.787-21.836c2.357-11.992,5.986-24.709,5.986-24.709c1.072,1.908,2.672,6.574,2.672,17.43
		c0,3.654,0.297,7.873,0.582,11.951c0.283,4.033,0.549,7.844,0.549,11.098C68.986,61.446,68.568,76.405,68.451,80.446z"/>
</g>
</svg>
