<?xml version="1.0" encoding="utf-8"?>
<!-- Generator: Adobe Illustrator 16.0.2, SVG Export Plug-In . SVG Version: 6.00 Build 0)  -->
<!DOCTYPE svg PUBLIC "-//W3C//DTD SVG 1.1 Tiny//EN" "http://www.w3.org/Graphics/SVG/1.1/DTD/svg11-tiny.dtd">
<svg version="1.1" baseProfile="tiny" id="Layer_1" xmlns="http://www.w3.org/2000/svg" xmlns:xlink="http://www.w3.org/1999/xlink"
	 x="0px" y="0px" width="85px" height="85px" viewBox="0 0 85 85" xml:space="preserve">
<g>
	<path fill-rule="evenodd" d="M82.453,67.999c-0.065-4.2-3.209-7.852-7.343-8.58c-0.604-0.105-0.618-0.264-0.37-0.75
		c1.709-3.343,2.84-6.873,3.389-10.588c0.053-0.354,0.176-0.529,0.559-0.65c2.348-0.752,3.775-2.646,3.782-4.93
		c0.006-2.324-1.395-4.171-3.822-4.981c-0.304-0.101-0.446-0.22-0.497-0.521c-0.199-1.16-0.411-2.318-0.629-3.541
		c0.229,0,0.464,0.001,0.7,0c2.677-0.016,4.248-1.585,4.249-4.258c0.002-7.52,0.004-15.042-0.001-22.562
		c-0.002-2.502-1.63-4.119-4.141-4.122C74.22,2.51,70.11,2.513,66.001,2.517c-0.321,0-0.649,0-0.963,0.059
		c-1.864,0.354-3.169,1.897-3.19,3.802c-0.021,1.835-0.004,3.67-0.004,5.609c-0.326-0.193-0.528-0.313-0.73-0.435
		c-3.95-2.367-8.191-3.954-12.743-4.671c-0.567-0.09-0.847-0.272-1.037-0.847c-0.686-2.052-2.175-3.248-4.304-3.478
		c-2.137-0.23-4.063,0.566-4.877,2.527c-0.647,1.557-1.651,1.9-3.011,2.089c-0.396,0.055-0.793,0.145-1.173,0.271
		c-0.407,0.136-0.504,0.016-0.498-0.389c0.02-1.289-0.027-2.58,0.023-3.867c0.023-0.588-0.171-0.687-0.714-0.686
		C22.922,2.519,13.064,2.521,3.207,2.5C2.622,2.499,2.521,2.671,2.522,3.214C2.541,10.493,2.542,17.771,2.52,25.05
		c-0.002,0.586,0.173,0.692,0.715,0.685c2.385-0.031,4.771-0.013,7.29-0.013c-1.877,3.662-3.124,7.374-3.672,11.307
		c-0.044,0.32-0.236,0.402-0.523,0.496c-2.354,0.769-3.782,2.641-3.792,4.924c-0.011,2.325,1.399,4.202,3.808,4.992
		c0.345,0.111,0.48,0.262,0.523,0.589c0.205,1.572,0.565,3.112,1.021,4.627c0.122,0.405,0.053,0.552-0.324,0.717
		c-0.711,0.309-1.402,0.669-2.085,1.037c-1.526,0.828-2.497,2.087-2.826,3.803c-0.305,1.589-0.076,3.153,0.284,4.703
		C5.328,73.21,13.538,80.857,23.97,82.384c2.845,0.417,5.419-0.177,6.975-3.595c0.21-0.463,0.489-0.898,0.671-1.37
		c0.15-0.39,0.316-0.438,0.716-0.32c1.516,0.453,3.055,0.82,4.627,1.016c0.394,0.049,0.495,0.264,0.605,0.61
		c0.731,2.299,2.674,3.737,4.976,3.725c2.26-0.012,4.197-1.458,4.891-3.722c0.136-0.443,0.331-0.572,0.756-0.638
		c5.352-0.836,10.269-2.777,14.739-5.84c0.475-0.326,0.942-0.66,1.494-1.047c0,0.712-0.002,1.3,0,1.888
		c0.013,4.911,3.114,8.534,7.955,9.295c1.07,0.168,1.07,0.168,1.07-0.878c0-0.322-0.024-0.646,0.007-0.966
		c0.044-0.473-0.06-0.658-0.617-0.714c-2.976-0.298-5.251-2.385-5.713-5.35c-0.331-2.125-0.134-4.288-0.103-6.434
		c0.049-3.352,2.85-6.12,6.181-6.217c3.459-0.1,6.5,2.475,6.641,5.889c0.148,3.62,0.056,7.25,0.038,10.877
		c-0.003,0.812-0.702,1.372-1.445,1.267c-0.708-0.1-1.117-0.64-1.119-1.523c-0.006-3.357,0.015-6.715-0.01-10.072
		c-0.015-2.152-1.726-3.848-3.829-3.862c-2.11-0.013-3.854,1.668-3.89,3.8c-0.03,1.745-0.024,3.491-0.002,5.237
		c0.022,1.929,1.387,3.495,3.277,3.816c0.615,0.104,1.217-0.012,1.874-0.144c0,0.523-0.009,1.006,0.002,1.486
		c0.045,2.145,1.743,3.842,3.846,3.851c2.104,0.008,3.86-1.68,3.877-3.814C82.488,75.09,82.508,71.543,82.453,67.999z
		 M71.574,59.153c-0.146,0.257-0.337,0.36-0.611,0.451c-3.708,1.227-5.892,3.764-6.454,7.644c-0.063,0.438-0.244,0.719-0.57,0.988
		c-4.582,3.792-9.808,6.182-15.647,7.262c-0.613,0.114-0.955,0.054-1.29-0.599c-0.937-1.817-2.509-2.774-4.565-2.748
		s-3.587,1.031-4.504,2.858c-0.264,0.524-0.517,0.609-1.029,0.513c-1.424-0.269-2.829-0.602-4.225-0.988
		c-0.425-0.117-0.572-0.35-0.661-0.767c-0.309-1.457-1.082-2.663-2.38-3.388c-1.588-0.887-3.273-1.612-5.073-1.955
		c-2.418-0.461-4.576,0.197-6.426,1.796c-0.384,0.331-0.64,0.352-1.038,0.104c-0.999-0.622-1.804-1.425-2.425-2.423
		c-0.223-0.36-0.254-0.601,0.063-0.973c1.997-2.337,2.48-4.984,1.471-7.886c-0.334-0.96-0.716-1.905-1.124-2.836
		c-0.759-1.734-2.061-2.846-3.923-3.253c-0.338-0.074-0.572-0.161-0.68-0.549c-0.42-1.498-0.796-3.002-1.044-4.54
		c-0.062-0.387,0.022-0.549,0.377-0.723c1.96-0.958,3.041-2.541,3.015-4.733c-0.025-2.125-1.107-3.648-3.001-4.583
		c-0.324-0.16-0.479-0.259-0.409-0.695c0.627-3.903,1.924-7.565,3.832-11.023c0.223-0.404,0.512-0.389,0.862-0.389
		c3.115,0.003,6.231,0.001,9.347,0.001c3.089,0,6.177-0.022,9.265,0.019c0.663,0.009,0.767-0.205,0.764-0.8
		c-0.023-4.673-0.002-9.347-0.027-14.02c-0.003-0.555,0.116-0.816,0.697-0.908c0.951-0.149,1.896-0.355,2.83-0.592
		c0.489-0.124,0.672,0.031,0.883,0.472c1.239,2.589,4.246,3.653,6.808,2.442c1.136-0.537,1.972-1.388,2.474-2.535
		c0.16-0.366,0.321-0.447,0.714-0.383c4.946,0.804,9.473,2.641,13.617,5.447c0.367,0.249,0.358,0.542,0.357,0.89
		c-0.002,4.485-0.003,8.971,0,13.456c0.001,2.671,1.58,4.246,4.257,4.249c2.685,0.002,5.37,0.013,8.057-0.011
		c0.492-0.004,0.691,0.125,0.798,0.628c0.217,1.021,0.454,2.038,0.633,3.069c0.063,0.366-0.022,0.509-0.346,0.662
		c-1.944,0.917-3.046,2.456-3.066,4.615c-0.021,2.227,1.087,3.813,3.098,4.756c0.283,0.134,0.372,0.259,0.317,0.601
		C74.952,51.818,73.602,55.603,71.574,59.153z M74.734,70.894c0,0.804,0.014,1.607-0.003,2.41c-0.02,0.861-0.559,1.424-1.313,1.406
		c-0.725-0.016-1.247-0.562-1.255-1.381c-0.018-1.66-0.019-3.319,0-4.979c0.009-0.818,0.541-1.358,1.27-1.366
		c0.728-0.009,1.272,0.531,1.296,1.341C74.753,69.181,74.733,70.038,74.734,70.894z"/>
	<path fill-rule="evenodd" fill="#69D5F3" d="M64.421,17.99c0-2.362,0.015-4.724-0.012-7.086c-0.007-0.52,0.125-0.669,0.658-0.667
		c4.724,0.022,9.447,0.021,14.172,0.001c0.519-0.002,0.669,0.126,0.666,0.659c-0.021,4.724-0.021,9.447-0.001,14.171
		c0.003,0.519-0.126,0.668-0.658,0.666c-4.725-0.021-9.447-0.021-14.171-0.001c-0.521,0.002-0.675-0.125-0.668-0.658
		C64.438,22.714,64.421,20.352,64.421,17.99z"/>
	<path fill-rule="evenodd" fill="#CBD0D8" d="M25.138,79.889c-3.369-0.276-6.493-1.349-9.342-3.142
		c-5.91-3.718-9.512-9.034-10.611-15.941c-0.339-2.124-0.154-3.463,2.308-4.537c0.466-0.202,0.901-0.479,1.371-0.669
		c1.405-0.569,2.977-0.042,3.665,1.288c0.59,1.14,1.098,2.335,1.419,3.576c0.551,2.118-0.037,3.966-1.751,5.32
		c-0.771,0.609-0.792,1.15-0.458,1.953c1.16,2.788,3.141,4.678,5.988,5.682c0.466,0.165,0.771,0.111,1.108-0.27
		c0.936-1.058,1.98-1.963,3.452-2.206c0.645-0.106,1.279-0.147,1.915,0.012c1.383,0.347,2.7,0.892,3.958,1.537
		c1.317,0.678,1.795,2.288,1.194,3.692c-0.285,0.663-0.635,1.298-0.958,1.943C27.72,79.469,26.595,79.974,25.138,79.889z"/>
	<path fill-rule="evenodd" fill="#CE9D76" d="M6.746,5.119c7.555,0,14.954,0,22.355,0c0.125,0.204-0.079,0.282-0.169,0.383
		c-2.831,3.155-5.672,6.301-8.496,9.462c-0.294,0.33-0.595,0.466-1.035,0.452c-1.125-0.037-2.394,0.289-3.337-0.131
		c-0.942-0.419-1.564-1.564-2.318-2.399C11.447,10.339,9.151,7.788,6.746,5.119z"/>
	<path fill-rule="evenodd" fill="#D29F6C" d="M27.875,23.102c-6.63,0-13.079,0-19.541,0c-0.007-0.259,0.255-0.292,0.407-0.394
		c2.18-1.465,4.372-2.914,6.55-4.38c0.348-0.234,0.703-0.304,1.114-0.356c2.608-0.339,4.851,0.345,6.895,2.037
		C24.667,21.14,26.246,22.015,27.875,23.102z"/>
	<path fill-rule="evenodd" fill="#DEB18A" d="M5.146,22.002c0-4.965,0-9.802,0-14.796c2.825,3.138,5.557,6.173,8.323,9.246
		C10.694,18.303,7.978,20.114,5.146,22.002z"/>
	<path fill-rule="evenodd" fill="#DEB18A" d="M30.883,7.316c0,4.898,0,9.721,0,14.54c-0.24,0.095-0.365-0.096-0.507-0.189
		c-2.433-1.613-4.861-3.232-7.288-4.854c-0.266-0.177-0.637-0.278-0.219-0.737c2.618-2.873,5.21-5.769,7.813-8.655
		C30.712,7.387,30.767,7.375,30.883,7.316z"/>
	<path fill-rule="evenodd" fill="#959EA9" d="M72.076,7.672c-2.334,0-4.669-0.016-7.003,0.012c-0.529,0.007-0.671-0.144-0.667-0.668
		c0.016-1.527,0.371-1.921,1.874-1.922c3.944,0,7.888-0.001,11.832,0c1.447,0,2.167,0.956,1.781,2.326
		c-0.118,0.417-0.431,0.242-0.653,0.243C76.853,7.677,74.463,7.672,72.076,7.672z"/>
	<path fill-rule="evenodd" fill="#959EA9" d="M72.161,28.301c2.36,0,4.723,0.017,7.082-0.013c0.535-0.006,0.667,0.153,0.663,0.672
		c-0.016,1.523-0.375,1.918-1.879,1.918c-3.971,0.001-7.941,0.002-11.912-0.001c-1.368-0.001-2.081-1-1.693-2.33
		c0.12-0.413,0.434-0.237,0.656-0.238C67.438,28.295,69.8,28.301,72.161,28.301z"/>
	<path fill-rule="evenodd" fill="#EE7284" d="M42.533,5.075c1.459,0.002,2.582,1.145,2.565,2.61
		c-0.016,1.412-1.148,2.55-2.551,2.563c-1.434,0.013-2.609-1.148-2.618-2.587C39.92,6.224,41.08,5.072,42.533,5.075z"/>
	<path fill-rule="evenodd" fill="#EE7284" d="M7.571,45.057c-1.388-0.062-2.505-1.278-2.454-2.674
		c0.051-1.42,1.309-2.558,2.735-2.472c1.386,0.082,2.485,1.318,2.412,2.713C10.193,44.013,8.967,45.119,7.571,45.057z"/>
	<path fill-rule="evenodd" fill="#EE7284" d="M79.89,42.469c0.007,1.398-1.147,2.572-2.543,2.589
		c-1.427,0.017-2.622-1.174-2.609-2.603c0.014-1.394,1.188-2.553,2.583-2.548C78.717,39.911,79.883,41.074,79.89,42.469z"/>
	<path fill-rule="evenodd" fill="#EE7284" d="M42.51,79.87c-1.396,0.004-2.569-1.155-2.583-2.55
		c-0.014-1.431,1.178-2.62,2.608-2.604c1.394,0.018,2.549,1.194,2.542,2.59C45.071,78.703,43.906,79.867,42.51,79.87z"/>
	<path fill-rule="evenodd" d="M42.479,25.722c9.254-0.01,16.79,7.522,16.783,16.777c-0.007,9.216-7.522,16.733-16.737,16.745
		c-9.252,0.01-16.79-7.525-16.782-16.779C25.75,33.246,33.26,25.732,42.479,25.722z"/>
	<path fill-rule="evenodd" d="M41.214,19.199c0-1.101,0.015-2.202-0.009-3.302c-0.008-0.38,0.097-0.486,0.487-0.501
		c2.101-0.083,2.101-0.095,2.101,2.022c0,1.719-0.016,3.438,0.01,5.155c0.006,0.448-0.108,0.577-0.57,0.583
		c-2.019,0.023-2.019,0.041-2.019-1.943C41.214,20.542,41.214,19.871,41.214,19.199z"/>
	<path fill-rule="evenodd" d="M19.334,41.194c1.101,0,2.203,0.019,3.302-0.01c0.419-0.011,0.53,0.109,0.539,0.532
		c0.043,2.057,0.058,2.057-1.986,2.057c-1.745,0-3.491-0.013-5.235,0.009c-0.419,0.007-0.53-0.107-0.539-0.531
		c-0.042-2.057-0.057-2.056,1.985-2.056C18.046,41.194,18.689,41.194,19.334,41.194z"/>
	<path fill-rule="evenodd" d="M65.711,43.772c-1.129,0-2.256-0.016-3.383,0.008c-0.387,0.01-0.482-0.106-0.497-0.491
		c-0.079-2.096-0.092-2.095,2.026-2.095c1.718,0,3.437,0.016,5.155-0.011c0.454-0.007,0.573,0.12,0.578,0.574
		c0.023,2.015,0.039,2.015-1.948,2.015C66.999,43.772,66.355,43.772,65.711,43.772z"/>
	<path fill-rule="evenodd" d="M43.793,65.719c0,1.101-0.016,2.201,0.008,3.302c0.008,0.398-0.076,0.541-0.52,0.551
		c-2.068,0.048-2.067,0.065-2.067-1.976c0-1.745,0.011-3.491-0.008-5.235c-0.004-0.398,0.076-0.541,0.519-0.551
		c2.068-0.049,2.068-0.064,2.068,1.976C43.793,64.429,43.793,65.073,43.793,65.719z"/>
	<path fill-rule="evenodd" fill="#69D5F3" d="M42.583,43.772c1.477,0,2.954,0.017,4.43-0.009c0.468-0.008,0.668,0.068,0.612,0.609
		c-0.14,1.335-0.254,2.671-0.468,3.996c-0.066,0.413-0.22,0.575-0.669,0.571c-2.657-0.022-5.316-0.022-7.974,0
		c-0.449,0.004-0.602-0.158-0.668-0.572c-0.214-1.325-0.331-2.66-0.469-3.995c-0.056-0.542,0.146-0.617,0.614-0.609
		C39.522,43.788,41.054,43.772,42.583,43.772z"/>
	<path fill-rule="evenodd" fill="#69D5F3" d="M42.508,41.194c-1.503,0-3.007-0.014-4.51,0.008c-0.459,0.007-0.676-0.053-0.619-0.605
		c0.138-1.334,0.253-2.67,0.469-3.996c0.066-0.408,0.207-0.581,0.664-0.577c2.658,0.023,5.316,0.022,7.974,0.001
		c0.443-0.003,0.606,0.146,0.674,0.566c0.217,1.353,0.345,2.713,0.469,4.076c0.041,0.45-0.125,0.538-0.527,0.533
		C45.569,41.183,44.038,41.194,42.508,41.194z"/>
	<path fill-rule="evenodd" fill="#69D5F3" d="M31.559,41.194c-0.857,0-1.715-0.036-2.569,0.013c-0.54,0.031-0.602-0.152-0.534-0.633
		c0.205-1.442,0.63-2.81,1.222-4.135c0.143-0.319,0.338-0.414,0.676-0.41c1.472,0.017,2.945,0.024,4.417-0.003
		c0.443-0.008,0.555,0.133,0.476,0.545c-0.262,1.37-0.351,2.759-0.433,4.147c-0.023,0.389-0.154,0.492-0.525,0.482
		C33.379,41.178,32.469,41.194,31.559,41.194z"/>
	<path fill-rule="evenodd" fill="#69D5F3" d="M31.596,43.772c0.913,0,1.826,0.014,2.738-0.007c0.345-0.008,0.455,0.104,0.476,0.448
		c0.087,1.393,0.173,2.787,0.432,4.16c0.072,0.38,0.028,0.578-0.455,0.567c-1.476-0.033-2.954-0.023-4.431-0.004
		c-0.346,0.004-0.532-0.113-0.673-0.424c-0.612-1.352-1.045-2.749-1.239-4.228c-0.061-0.465,0.096-0.53,0.494-0.521
		C29.823,43.788,30.709,43.772,31.596,43.772z"/>
	<path fill-rule="evenodd" fill="#69D5F3" d="M53.443,43.772c0.831,0,1.665,0.023,2.497-0.009c0.489-0.019,0.705,0.05,0.612,0.638
		c-0.228,1.442-0.636,2.819-1.247,4.141c-0.132,0.283-0.295,0.396-0.611,0.394c-1.502-0.015-3.006-0.022-4.51,0.004
		c-0.431,0.007-0.493-0.157-0.427-0.519c0.256-1.375,0.359-2.769,0.43-4.162c0.023-0.467,0.235-0.497,0.597-0.491
		C51.67,43.782,52.557,43.772,53.443,43.772z"/>
	<path fill-rule="evenodd" fill="#69D5F3" d="M56.598,41.193c-2.05,0-4.008-0.005-5.965,0.005c-0.304,0.001-0.415-0.089-0.434-0.404
		c-0.088-1.446-0.191-2.892-0.448-4.32c-0.069-0.38,0.091-0.446,0.426-0.443c1.502,0.013,3.008,0.019,4.51-0.004
		c0.371-0.005,0.52,0.169,0.652,0.46C56.007,37.963,56.473,39.491,56.598,41.193z"/>
	<path fill-rule="evenodd" fill="#69D5F3" d="M38.648,33.407c0.52-1.537,1.078-2.983,2.146-4.158
		c1.158-1.272,2.256-1.272,3.415,0.001c1.069,1.174,1.627,2.621,2.149,4.157C43.781,33.407,41.253,33.407,38.648,33.407z"/>
	<path fill-rule="evenodd" fill="#69D5F3" d="M38.704,51.528c2.523,0,5.041,0,7.662,0c-0.573,1.68-1.171,3.292-2.489,4.508
		c-0.933,0.86-1.83,0.834-2.784-0.021C40.12,55.143,39.05,53.14,38.704,51.528z"/>
	<path fill-rule="evenodd" fill="#68D5F2" d="M53.435,51.508c-1.732,2.006-3.655,3.375-6.11,4.273
		c0.732-1.354,1.273-2.597,1.634-3.913c0.078-0.29,0.243-0.367,0.524-0.365C50.736,51.514,51.989,51.508,53.435,51.508z"/>
	<path fill-rule="evenodd" fill="#68D5F2" d="M37.705,29.169c-0.76,1.339-1.275,2.545-1.632,3.812
		c-0.111,0.393-0.302,0.491-0.681,0.485c-1.205-0.021-2.409-0.008-3.812-0.008C33.273,31.461,35.208,30.108,37.705,29.169z"/>
	<path fill-rule="evenodd" fill="#68D5F2" d="M47.325,29.172c2.477,0.932,4.388,2.291,6.103,4.277c-1.484,0-2.824,0.006-4.165-0.006
		c-0.233-0.002-0.257-0.239-0.309-0.414C48.578,31.745,48.054,30.522,47.325,29.172z"/>
	<path fill-rule="evenodd" fill="#68D5F3" d="M31.576,51.508c1.448,0,2.721,0.008,3.993-0.005c0.315-0.004,0.41,0.168,0.482,0.42
		c0.373,1.289,0.894,2.516,1.621,3.848C35.209,54.887,33.298,53.503,31.576,51.508z"/>
</g>
</svg>
