<?xml version="1.0" encoding="utf-8"?>
<!-- Generator: Adobe Illustrator 16.0.0, SVG Export Plug-In . SVG Version: 6.00 Build 0)  -->
<!DOCTYPE svg PUBLIC "-//W3C//DTD SVG 1.1//EN" "http://www.w3.org/Graphics/SVG/1.1/DTD/svg11.dtd">
<svg version="1.1" id="Layer_1" xmlns="http://www.w3.org/2000/svg" xmlns:xlink="http://www.w3.org/1999/xlink" x="0px" y="0px"
	 width="85px" height="85px" viewBox="0 0 85 85" enable-background="new 0 0 85 85" xml:space="preserve">
<g>
	<path fill="#7CB342" d="M73.146,16.254c3.186-0.875,6.246-1.125,8.744-0.625c-1.811,3.123-5.496,6.184-10.18,8.369
		c-3.248,1.498-6.496,2.248-9.369,2.436l-0.438-0.998L73.146,16.254z"/>
	<path d="M62.278,26.994c-0.311,0-0.623-0.25-0.623-0.625s0.248-0.625,0.623-0.625c2.938-0.125,6.121-0.936,9.184-2.373
		c4.059-1.873,7.432-4.496,9.367-7.307c-2.248-0.25-4.871,0.062-7.494,0.75c-0.312,0.062-0.688-0.125-0.75-0.438
		s0.125-0.688,0.438-0.75c3.248-0.875,6.371-1.125,8.994-0.688c0.188,0.062,0.375,0.188,0.438,0.375s0.062,0.375,0,0.562
		c-2,3.371-5.809,6.494-10.432,8.617C68.712,25.996,65.401,26.809,62.278,26.994L62.278,26.994z"/>
	<path fill="#7CB342" d="M69.399,3.137c0.438,2.498,0.25,5.496-0.688,8.744L60.03,23.496l-1.125-0.811
		c0.125-2.873,0.625-6.121,2.062-9.369C63.216,8.633,66.339,5.01,69.399,3.137z"/>
	<path d="M58.655,23.311C58.655,23.311,58.595,23.311,58.655,23.311c-0.375,0-0.625-0.312-0.625-0.625
		c0.125-3.062,1-6.371,2.498-9.619c2.125-4.686,5.248-8.494,8.619-10.43c0.189-0.125,0.375-0.125,0.562,0
		c0.188,0.061,0.312,0.25,0.375,0.436c0.5,2.623,0.25,5.746-0.688,8.994c-0.062,0.312-0.438,0.5-0.75,0.438
		c-0.311-0.062-0.5-0.438-0.438-0.75c0.75-2.686,1-5.309,0.75-7.494c-2.812,1.936-5.436,5.309-7.309,9.369
		c-1.373,3.061-2.186,6.246-2.373,9.117C59.218,23.061,58.968,23.311,58.655,23.311z"/>
	<path fill="#7CB342" d="M76.956,8.07c-0.625,3.561-2.936,7.746-6.621,11.367c-2.811,2.812-5.934,4.809-8.807,5.934l-2.186-3.559
		c1.061-1.688,4.621-5.559,6.184-7.121C69.212,11.006,73.396,8.695,76.956,8.07z"/>
	<path d="M61.53,25.996c-0.25,0-0.5-0.188-0.562-0.438c-0.125-0.312,0.062-0.688,0.375-0.812c2.936-1.061,5.996-3.123,8.619-5.744
		c3.123-3.123,5.371-6.809,6.244-10.119c-3.371,0.875-6.994,3.061-10.117,6.246c-1.498,1.5-2.748,3.061-3.811,4.748
		c-0.188,0.311-0.561,0.375-0.873,0.186c-0.312-0.186-0.375-0.561-0.188-0.875c1.123-1.748,2.436-3.434,3.996-4.996
		c3.623-3.623,7.871-6.121,11.742-6.807c0.188-0.062,0.438,0,0.562,0.188c0.125,0.125,0.188,0.375,0.188,0.562
		c-0.688,3.809-3.186,8.119-6.809,11.742c-2.748,2.746-5.996,4.934-9.057,6.057C61.655,25.934,61.593,25.996,61.53,25.996z"/>
	<path fill="#FB8C00" d="M3.257,77.461c5.122-13.74,33.29-48.529,37.912-53.15c5.371-5.371,14.053-5.371,19.424,0
		c5.373,5.371,5.373,14.053,0,19.424c-3.061,3.061-19.111,16.301-33.664,26.42c-7.558,5.309-14.74,9.742-19.424,11.492
		c-1.124,0.312-2.436,0-3.311-0.875C3.257,79.896,2.944,78.646,3.257,77.461z"/>
	<path d="M6.567,82.457c-1.062,0-2.125-0.438-2.873-1.188c-1-0.998-1.438-2.498-1.062-3.934v-0.062
		c5.184-13.928,33.415-48.654,38.1-53.338c5.621-5.621,14.676-5.621,20.297,0c2.688,2.686,4.186,6.307,4.186,10.117
		s-1.498,7.432-4.186,10.119C58.03,47.17,42.167,60.285,27.24,70.652c-8.683,6.059-15.302,9.994-19.612,11.555
		C7.315,82.395,6.942,82.457,6.567,82.457z M3.881,77.648c-0.25,0.998,0.062,1.998,0.75,2.686c0.687,0.688,1.749,1,2.748,0.75
		c4.123-1.562,10.618-5.371,19.237-11.432C41.231,59.473,57.345,46.17,60.22,43.297c2.498-2.498,3.809-5.746,3.809-9.244
		s-1.373-6.809-3.809-9.244c-5.123-5.121-13.43-5.121-18.551,0C36.983,29.432,9.003,63.844,3.881,77.648z"/>
	<path d="M60.843,43.234c-0.189,0-0.312-0.062-0.439-0.188l-5.744-5.746c-0.25-0.25-0.25-0.625,0-0.875
		c0.248-0.25,0.623-0.25,0.873,0l5.746,5.746c0.25,0.25,0.25,0.625,0,0.875C61.218,43.172,61.03,43.234,60.843,43.234z"/>
	<path d="M39.669,30.867c-0.188,0-0.312-0.062-0.438-0.188l-1.748-1.75c-0.25-0.25-0.25-0.625,0-0.875s0.625-0.25,0.875,0
		l1.748,1.75c0.25,0.25,0.25,0.625,0,0.873C39.981,30.805,39.856,30.867,39.669,30.867z"/>
	<path d="M52.474,43.672c-0.189,0-0.312-0.062-0.439-0.188l-5.746-5.748c-0.248-0.25-0.248-0.625,0-0.873
		c0.25-0.25,0.625-0.25,0.875,0l5.746,5.746c0.25,0.25,0.25,0.625,0,0.875C52.784,43.609,52.659,43.672,52.474,43.672z"/>
	<path d="M38.796,38.801c-0.188,0-0.312-0.062-0.438-0.189l-4.873-4.871c-0.25-0.25-0.25-0.625,0-0.875s0.625-0.25,0.875,0
		l4.873,4.871c0.25,0.25,0.25,0.625,0,0.875C39.106,38.736,38.921,38.801,38.796,38.801z"/>
	<path d="M48.976,48.918c-0.188,0-0.312-0.062-0.438-0.188l-3.561-3.561c-0.25-0.25-0.25-0.625,0-0.875s0.625-0.25,0.875,0
		l3.559,3.561c0.25,0.25,0.25,0.625,0,0.875C49.286,48.855,49.101,48.918,48.976,48.918z"/>
	<path d="M46.728,55.6c-0.189,0-0.312-0.062-0.439-0.188l-7.494-7.494c-0.25-0.25-0.25-0.625,0-0.875s0.625-0.25,0.875,0
		l7.494,7.494c0.25,0.25,0.25,0.625,0,0.875C47.038,55.537,46.913,55.6,46.728,55.6z"/>
	<path d="M31.737,40.549c-0.188,0-0.312-0.062-0.438-0.188l-1.748-1.75c-0.25-0.25-0.25-0.625,0-0.875s0.625-0.25,0.875,0
		l1.748,1.75c0.25,0.25,0.25,0.625,0,0.875C32.05,40.486,31.862,40.549,31.737,40.549z"/>
	<path d="M33.049,50.729c-0.187,0-0.312-0.061-0.437-0.188l-7.059-7.059c-0.25-0.25-0.25-0.625,0-0.875s0.625-0.25,0.875,0
		l7.057,7.057c0.25,0.25,0.25,0.625,0,0.875C33.36,50.668,33.174,50.729,33.049,50.729z"/>
	<path d="M36.608,63.096c-0.187,0-0.312-0.062-0.437-0.189l-3.997-3.996c-0.25-0.25-0.25-0.625,0-0.875s0.625-0.25,0.874,0
		l3.998,3.998c0.25,0.248,0.25,0.623,0,0.873C36.921,63.033,36.733,63.096,36.608,63.096z"/>
	<path d="M26.429,61.783c-0.188,0-0.312-0.061-0.438-0.188l-5.309-5.309c-0.25-0.25-0.25-0.625,0-0.875s0.625-0.25,0.875,0
		l5.309,5.311c0.25,0.248,0.25,0.623,0,0.873C26.74,61.721,26.554,61.783,26.429,61.783z"/>
	<path d="M26.929,70.84c-0.188,0-0.312-0.062-0.438-0.188l-4.372-4.371c-0.25-0.25-0.25-0.625,0-0.875s0.625-0.25,0.875,0
		l4.372,4.371c0.25,0.25,0.25,0.625,0,0.875C27.24,70.777,27.115,70.84,26.929,70.84z"/>
	<path d="M16.373,60.223c-0.188,0-0.312-0.062-0.438-0.189l-1.312-1.311c-0.25-0.25-0.25-0.625,0-0.875s0.625-0.25,0.875,0
		l1.312,1.312c0.25,0.248,0.25,0.623,0,0.873C16.685,60.16,16.497,60.223,16.373,60.223z"/>
	<path d="M21.119,74.15c-0.188,0-0.312-0.062-0.437-0.188l-1.75-1.748c-0.25-0.25-0.25-0.625,0-0.875s0.625-0.25,0.875,0l1.75,1.748
		c0.25,0.25,0.25,0.625,0,0.875C21.433,74.088,21.308,74.15,21.119,74.15z"/>
	<path d="M12.75,74.588c-0.188,0-0.312-0.062-0.438-0.188L7.44,69.527c-0.25-0.248-0.25-0.623,0-0.873s0.625-0.25,0.875,0
		l4.871,4.871c0.25,0.25,0.25,0.625,0,0.875C13.063,74.525,12.875,74.588,12.75,74.588z"/>
	<path fill="#7CB342" d="M57.157,21.248l5.746,5.996c-1.125,0.312-2.811-0.25-4.186-1.623C57.282,24.184,56.72,22.373,57.157,21.248
		z"/>
	<path d="M62.278,28.557c-1.248,0-2.748-0.688-3.934-1.875c-1.625-1.623-2.25-3.623-1.688-5.059c0.125-0.312,0.5-0.5,0.812-0.312
		c0.311,0.125,0.498,0.5,0.311,0.812c-0.311,0.812,0.062,2.311,1.438,3.686c1.125,1.125,2.623,1.748,3.561,1.436
		c0.312-0.125,0.688,0.125,0.75,0.439c0.125,0.311-0.125,0.686-0.438,0.748C62.841,28.557,62.528,28.557,62.278,28.557z"/>
</g>
</svg>
