<?xml version="1.0" encoding="utf-8"?>
<!-- Generator: Adobe Illustrator 16.0.0, SVG Export Plug-In . SVG Version: 6.00 Build 0)  -->
<!DOCTYPE svg PUBLIC "-//W3C//DTD SVG 1.1//EN" "http://www.w3.org/Graphics/SVG/1.1/DTD/svg11.dtd">
<svg version="1.1" id="Layer_1" xmlns="http://www.w3.org/2000/svg" xmlns:xlink="http://www.w3.org/1999/xlink" x="0px" y="0px"
	 width="85px" height="85px" viewBox="0 0 85 85" enable-background="new 0 0 85 85" xml:space="preserve">
<g>
	<g>
		<path d="M82.484,71.862c-0.143-2.481-0.86-4.782-2.128-6.923c-3.017-5.096-7.492-7.962-13.329-8.751
			c-2.088-0.281-4.19-0.441-6.277-0.727c-0.96-0.131-1.24-0.474-1.316-1.44c-0.047-0.597,0.016-1.198-0.024-1.795
			c-0.041-0.622,0.233-0.929,0.805-1.149c2.692-1.039,4.875-2.773,6.604-5.065c1.417-1.879,2.329-4.002,2.717-6.325
			c0.115-0.693,0.422-0.957,1.086-0.892c0.154,0.015,0.312,0.008,0.468,0c2.83-0.147,4.804-1.568,5.925-4.126
			c1.062-2.421,0.506-5.26-1.368-7.069c-0.816-0.788-0.791-0.8-0.244-1.833c3.034-5.726,2.862-11.373-0.469-16.925
			c-1.101-1.834-2.743-3.188-4.184-4.721c-0.563-0.6-1.09-0.696-1.863-0.393c-2.969,1.161-6.036,1.528-9.194,0.958
			c-0.487-0.088-0.979-0.156-1.451-0.303c-2.852-0.883-5.684-1.849-8.719-1.881c-0.26,0-0.521,0-0.78,0
			c-0.104,0.098-0.209,0.098-0.312,0c-0.469,0-0.938,0-1.406,0c-0.263,0.164-0.554,0.043-0.829,0.081c-0.247,0-0.493,0-0.74,0
			c-0.834,0.012-1.666,0.065-2.469,0.3c-3.532,1.035-6.342,3.098-8.427,6.107c-0.634,0.915-1.353,1.668-2.233,2.346
			c-2.924,2.251-4.32,5.295-4.233,8.959c0.052,2.191,0.68,4.266,1.886,6.122c0.351,0.54,0.316,0.925-0.154,1.354
			c-0.752,0.688-1.177,1.594-1.437,2.553c-0.158,0.581-0.354,0.743-0.969,0.586c-1.804-0.459-3.534-0.212-5.07,0.869
			c-4.483,3.155-6.942,7.448-7.081,12.969c-0.063,2.523,0.006,5.051-0.018,7.575c-0.012,1.26,0.131,2.496,0.429,3.712
			c0.156,0.634,0.104,1.202-0.093,1.825c-0.731,2.306-0.407,4.44,1.29,6.239c1.303,1.383,2.649,2.728,4.033,4.029
			c1.093,1.028,2.391,1.665,3.945,1.598c0.619-0.026,1.173,0.138,1.72,0.418c1.489,0.763,3.055,1.328,4.687,1.7
			c1.943,0.442,1.958,0.438,1.958,2.459c-0.001,1.485,0.574,2.575,2.022,3.085c0.515,0.182,0.529,0.481,0.349,0.909
			c-0.4,0.949-1.322,1.437-2.502,1.303c-0.985-0.111-1.756-0.854-1.914-1.883c-0.063-0.41-0.105-0.825-0.169-1.236
			c-0.404-2.611-2.415-4.16-4.585-4.474c-2.4-0.347-4.691,1.064-5.66,3.285c-0.358,0.82-0.265,1.69-0.48,2.517
			c-0.341,1.312-1.242,1.93-2.612,1.794c-1.204-0.119-1.947-0.974-1.985-2.292c-0.02-0.676,0.02-1.354-0.023-2.029
			c-0.038-0.591-0.416-0.85-0.946-0.796c-0.714,0.072-1.614-0.407-2.053,0.6c-0.072,0.166-0.053,0.359-0.055,0.541
			c-0.005,0.495-0.005,0.989-0.002,1.484c0.022,2.853,1.671,4.854,4.427,5.374c0.573,0,1.146,0,1.719,0
			c0.877-0.109,1.72-0.272,2.44-0.867c1.27-1.051,2.031-2.35,2.135-4.01c0.038-0.603,0.109-1.194,0.507-1.689
			c0.641-0.797,1.64-1.117,2.587-0.828c0.91,0.277,1.598,1.136,1.652,2.15c0.125,2.357,1.463,4.809,4.426,5.244
			c0.573,0,1.146,0,1.719,0c1.285-0.05,2.317-0.62,3.177-1.542c0.735-0.749,1.162-1.664,1.361-2.678
			c0.091-0.463,0.309-0.714,0.744-0.891c1.257-0.511,1.913-1.471,1.964-2.832c0.019-0.521,0.007-1.041,0.008-1.562
			c0.002-1.34,0-1.341,1.241-1.761c1.413-0.479,2.752-1.116,4.002-1.921c0.507-0.325,0.958-0.381,1.536-0.221
			c6.2,1.717,11.618,0.223,16.321-4.065c1.479-1.349,2.553-3.016,3.475-4.776c0.319-0.61,0.717-0.723,1.336-0.507
			c5.535,1.926,8.979,5.729,10.058,11.495c0.479,2.561,0.112,5.194,0.157,7.794c0.01,0.562-0.405,0.584-0.815,0.585
			c-1.849,0.003-3.697-0.016-5.545,0.01c-0.663,0.009-0.847-0.278-0.842-0.894c0.021-2.396,0.009-4.79,0.008-7.186
			c0-0.558,0.077-1.103,0.39-1.569c0.416-0.621,0.27-1.116-0.251-1.576c-0.195-0.171-0.365-0.371-0.557-0.548
			c-0.667-0.613-0.944-0.573-1.505,0.155c-0.924,1.2-1.149,2.605-1.172,4.053c-0.032,2.057-0.008,4.113-0.009,6.17
			c-0.001,1.386-0.001,1.386-1.425,1.386c-8.382,0.001-16.765,0-25.147,0.001c-0.338,0-0.677-0.013-1.014,0.028
			c-0.306,0.037-0.597,0.148-0.621,0.486c-0.056,0.792-0.238,1.6,0.156,2.364c13.539,0,27.078-0.004,40.617,0.016
			c0.535,0.001,0.646-0.104,0.641-0.64C82.469,78.527,82.484,75.194,82.484,71.862z M46.388,51.928
			c-0.059,0.619-0.007,1.248-0.015,1.872c-0.014,1.098-0.442,1.573-1.556,1.605c-1.668,0.049-3.155,0.742-4.724,1.156
			c-2.597,0.687-4.036,2.519-5.399,4.527c-0.412,0.606-0.845,0.787-1.54,0.622c-1.667-0.395-3.263-0.888-4.262-2.491
			c1.63-0.522,2.094-1.766,2.007-3.349c-0.032-0.57,0.013-1.145-0.01-1.717c-0.066-1.58-1.117-2.604-2.697-2.614
			c-0.699-0.005-1.409-0.093-2.096,0.104c-0.295,0.084-0.365-0.019-0.365-0.286c0.004-1.588,0.013-3.175-0.005-4.762
			c-0.005-0.411,0.234-0.452,0.537-0.494c1.441-0.2,2.881-0.409,4.321-0.616c3.327-0.479,4.994-3.39,3.724-6.501
			c-0.038-0.092-0.074-0.184-0.144-0.357c1.877-0.065,1.831-0.054,2.254,1.665c1.264,5.126,4.341,8.703,9.269,10.64
			C46.196,51.131,46.442,51.351,46.388,51.928z"/>
	</g>
	<path fill-rule="evenodd" clip-rule="evenodd" fill="#5CD5B2" d="M37.207,80.877c0.795-0.899,1.314-1.925,1.38-3.141
		c0.016-0.287,0.119-0.368,0.396-0.444c1.596-0.434,2.225-1.277,2.232-2.924c0.003-0.755,0.041-1.513-0.013-2.264
		c-0.038-0.528,0.186-0.707,0.647-0.847c1.875-0.566,3.669-1.313,5.239-2.515c0.225-0.173,0.4-0.152,0.64-0.063
		c6.89,2.569,15.775-0.412,19.852-8.042c0.806-1.508,0.83-1.495,2.435-0.934c5.608,1.962,9.563,7.194,9.833,13.12
		c0.099,2.156,0.023,4.319,0.059,6.479c0.008,0.506-0.193,0.601-0.643,0.597c-2.159-0.018-4.319-0.02-6.479,0.002
		c-0.458,0.004-0.632-0.097-0.626-0.599c0.025-2.653,0.013-5.309,0.014-7.963c0-0.675,0.217-1.283,0.634-1.805
		c0.21-0.263,0.185-0.437-0.051-0.654c-0.363-0.335-0.736-0.669-1.045-1.052c-0.395-0.488-0.632-0.315-0.938,0.091
		c-0.853,1.128-1.199,2.403-1.199,3.795c0.001,2.472-0.021,4.944,0.015,7.417c0.01,0.623-0.178,0.774-0.784,0.772
		c-8.874-0.019-17.749-0.001-26.624-0.031c-0.783-0.003-1.083,0.171-0.974,0.976c0.072,0.537,0.029,1.091,0.038,1.636
		c-0.052,0-0.104,0-0.156,0c-0.187-0.999-0.886-1.1-1.727-1.024c-0.488,0.044-0.985,0.033-1.476-0.014
		C37.536,81.413,37.192,81.352,37.207,80.877z"/>
	<path fill-rule="evenodd" clip-rule="evenodd" d="M2.5,10.624c0.234-0.097,0.198-0.347,0.276-0.523
		c0.692-1.557,1.89-2.419,3.581-2.43c5.151-0.032,10.302-0.027,15.453-0.006c2.2,0.009,3.864,1.602,3.903,3.828
		c0.061,3.459,0.06,6.92,0.001,10.379c-0.039,2.26-1.671,3.794-3.968,3.86c-1.17,0.034-2.342,0.027-3.512-0.004
		c-0.419-0.012-0.596,0.128-0.681,0.523c-0.163,0.761-0.35,1.518-0.551,2.27c-0.39,1.457-1.537,2.381-2.913,2.366
		c-1.359-0.014-2.459-0.908-2.85-2.333c-0.206-0.75-0.432-1.5-0.569-2.264c-0.085-0.475-0.298-0.575-0.731-0.56
		c-0.831,0.03-1.668-0.04-2.496,0.018c-2.412,0.167-4.128-0.733-4.943-3.095C2.5,18.643,2.5,14.633,2.5,10.624z"/>
	<path fill-rule="evenodd" clip-rule="evenodd" fill="#1F1F1F" d="M47.022,2.5c-0.235,0.252-0.53,0.141-0.809,0.133
		c-0.04-0.054-0.03-0.099,0.027-0.133C46.502,2.5,46.762,2.5,47.022,2.5z"/>
	<path fill-rule="evenodd" clip-rule="evenodd" fill="#606060" d="M46.241,2.5c-0.006,0.045-0.015,0.089-0.027,0.133
		c-0.258,0.001-0.517,0.002-0.774,0.003c0.026-0.042,0.033-0.088,0.021-0.136C45.721,2.5,45.98,2.5,46.241,2.5z"/>
	<path fill-rule="evenodd" clip-rule="evenodd" fill="#383838" d="M48.741,2.5c-0.104,0.188-0.209,0.159-0.312,0
		C48.532,2.5,48.637,2.5,48.741,2.5z"/>
	<path fill-rule="evenodd" clip-rule="evenodd" fill="#EFCFB3" d="M55.402,20.081c2.611,1.301,5.128,2.554,7.707,3.839
		c0-1.238,0-2.377,0-3.53c2.745,1.191,3.958,2.334,3.915,5.051c-0.059,3.695-0.013,7.391-0.015,11.087
		c-0.004,6.273-3.599,10.947-9.655,12.517c-0.516,0.134-0.697,0.328-0.678,0.881c0.049,1.378,0.014,2.758,0.017,4.138
		c0.007,2.278,1.111,3.654,3.322,4.145c0.126,0.027,0.253,0.056,0.386,0.085c-4.038,5.021-11.981,4.483-15.387-0.285
		c1.979-0.156,3.324-1.13,3.826-3.07c0.216-0.832,0.075-1.711,0.086-2.569c0.01-0.832-0.029-1.667,0.014-2.497
		c0.026-0.515-0.148-0.704-0.651-0.827c-4.26-1.046-7.242-3.598-8.871-7.683c-0.584-1.465-0.805-3.008-0.807-4.582
		c-0.004-3.8,0.007-7.6-0.005-11.399c-0.006-1.82,0.767-3.138,2.414-3.936c0.911-0.442,1.784-1.165,2.73-1.273
		c0.979-0.112,1.67,0.961,2.524,1.456c2.668,1.545,5.519,2.506,8.562,2.95c0.478,0.069,0.582-0.028,0.574-0.479
		C55.389,22.798,55.402,21.5,55.402,20.081z"/>
	<path fill-rule="evenodd" clip-rule="evenodd" fill="#B17946" d="M52.806,15.888c0,1.946,0,3.762,0,5.646
		c-2.415-0.584-4.553-1.603-6.516-2.998c-1.386-0.985-2.626-2.133-3.679-3.47c-0.279-0.355-0.464-0.423-0.864-0.116
		c-1.583,1.215-1.606,1.206-0.275,2.728c0.3,0.343,0.341,0.527-0.118,0.731c-0.617,0.275-1.223,0.578-1.814,0.903
		c-2.209,1.214-3.419,3.07-3.46,5.609c-0.01,0.63-0.158,0.889-0.826,0.836c-0.618-0.048-1.253-0.066-1.86,0.122
		c-0.318,0.099-0.477-0.056-0.643-0.283c-2.974-4.078-2.562-10.246,2.544-12.884c0.297-0.153,0.481-0.358,0.637-0.643
		c2.589-4.733,6.576-7.044,11.979-6.964c2.924,0.043,5.701,0.746,8.459,1.636c4.106,1.326,8.232,1.304,12.35,0.007
		c0.295-0.093,0.537-0.175,0.84,0.104c2.617,2.413,4.53,5.223,5.03,8.83c0.491,3.548-0.286,6.818-2.248,9.813
		c-0.146,0.224-0.306,0.311-0.573,0.293c-0.674-0.043-1.48,0.16-1.988-0.145c-0.541-0.325-0.151-1.198-0.262-1.824
		c-0.282-1.601-0.967-3-2.266-3.974c-2.057-1.542-4.369-2.684-6.68-4.148c0,1.217-0.024,2.271,0.01,3.323
		c0.02,0.599-0.098,0.722-0.67,0.428C57.603,18.266,55.272,17.12,52.806,15.888z"/>
	<path fill-rule="evenodd" clip-rule="evenodd" fill="#A9B1BC" d="M18.335,54.858c-0.271-0.686-0.3-1.375-0.31-2.039
		c-0.043-3.121-0.247-6.252,0.101-9.362c0.361-3.226,1.85-5.916,4.203-8.144c0.405-0.384,0.6-0.372,0.907,0.121
		c1.605,2.579,3.249,5.134,4.937,7.791c-1.542,0.228-2.989,0.464-4.443,0.642c-0.454,0.056-0.618,0.181-0.607,0.657
		c0.067,3.148-0.092,6.3,0.095,9.446c0.018,0.291,0.007,0.477-0.35,0.37C21.29,53.869,19.787,54.119,18.335,54.858z"/>
	<path fill-rule="evenodd" clip-rule="evenodd" fill="#EFCFB3" d="M21.283,56.695c0.874-0.001,1.625,0.311,2.242,0.921
		c1.292,1.279,2.595,2.549,3.853,3.861c1.263,1.318,1.223,3.293-0.036,4.556c-1.269,1.271-3.223,1.328-4.557,0.062
		c-1.337-1.27-2.645-2.572-3.91-3.914c-0.958-1.016-1.163-2.231-0.608-3.534C18.782,57.434,19.951,56.689,21.283,56.695z"/>
	<path fill-rule="evenodd" clip-rule="evenodd" fill="#A9B1BC" d="M35.912,69.562c-2.183,0.025-4.287-0.38-6.332-1.131
		c-0.459-0.169-0.747-0.261-0.243-0.777c0.876-0.899,1.382-2.01,1.483-3.271c0.038-0.482,0.187-0.657,0.663-0.45
		c0.188,0.083,0.401,0.104,0.599,0.165c2.04,0.631,3.772,0.521,4.869-1.7c0.433-0.875,0.574-0.812,1.243-0.061
		c1.523,1.709,3.02,3.442,4.574,5.122c0.489,0.528,0.286,0.643-0.237,0.848C40.399,69.137,38.201,69.586,35.912,69.562z"/>
	<path fill-rule="evenodd" clip-rule="evenodd" fill="#48CEAC" d="M53.01,67.021c-1.468-0.038-2.668-0.213-3.845-0.576
		c-0.351-0.108-0.465-0.237-0.348-0.602c0.145-0.45,0.148-0.932,0.087-1.393c-0.082-0.615,0.154-0.607,0.646-0.477
		c2.611,0.689,5.192,0.579,7.727-0.381c2.425-0.919,4.381-2.448,5.896-4.548c0.235-0.327,1.995-0.491,2.267-0.207
		c0.179,0.188-0.013,0.332-0.092,0.477c-2.3,4.222-5.815,6.749-10.562,7.534C54.122,66.959,53.443,66.98,53.01,67.021z"/>
	<path fill-rule="evenodd" clip-rule="evenodd" fill="#EFCFB3" d="M69.573,29.974c0-0.078,0-0.156,0-0.233
		c0-1.604,0-1.604,1.62-1.434c1.985,0.21,3.457,1.759,3.531,3.716c0.076,2-1.292,3.64-3.315,3.97
		c-0.23,0.038-0.465,0.058-0.697,0.064c-1.168,0.032-1.345-0.207-1.147-1.396c0.054-0.32,0.27-0.352,0.475-0.423
		c0.66-0.229,1.322-0.453,1.992-0.654c0.384-0.115,0.586-0.249,0.378-0.703c-0.203-0.445-0.362-0.919-0.466-1.398
		c-0.112-0.519-0.369-0.489-0.774-0.356C69.577,31.65,69.573,31.641,69.573,29.974z"/>
	<path fill-rule="evenodd" clip-rule="evenodd" fill="#EFCFB3" d="M36.055,29.982c0,1.662-0.003,1.671-1.599,1.147
		c-0.4-0.131-0.656-0.18-0.772,0.354c-0.137,0.629-0.667,1.35-0.485,1.823c0.191,0.499,1.15,0.428,1.717,0.73
		c0.391,0.208,1.058-0.002,1.138,0.701c0.146,1.278,0.067,1.362-1.211,1.32c-2.317-0.076-3.974-1.739-3.943-3.958
		c0.03-2.166,1.72-3.772,4.008-3.81c0.104-0.001,0.211,0.015,0.312-0.003c0.689-0.126,0.955,0.145,0.844,0.839
		C36.018,29.403,36.055,29.696,36.055,29.982z"/>
	<path fill-rule="evenodd" clip-rule="evenodd" fill="#CBD0D8" d="M25.865,33.45c1.131,0.066,2.063,0.523,2.705,1.466
		c1.081,1.587,2.153,3.181,3.192,4.795c0.672,1.045,0.508,2.159-0.329,2.8c-0.282,0.216-0.47,0.305-0.721-0.094
		c-1.766-2.812-3.559-5.607-5.34-8.41c-0.078-0.123-0.255-0.26-0.159-0.401C25.364,33.387,25.641,33.484,25.865,33.45z"/>
	<path fill-rule="evenodd" clip-rule="evenodd" fill="#CBD0D8" d="M40.666,59.252c0.78,0.043,1.441,0.212,1.947,0.7
		c1.066,1.029,2.143,2.054,3.137,3.15c0.817,0.899,0.81,2.207,0.137,3.181c-0.208,0.3-0.352,0.454-0.674,0.085
		c-1.85-2.113-3.71-4.218-5.594-6.301c-0.396-0.438-0.162-0.554,0.215-0.656C40.132,59.33,40.443,59.293,40.666,59.252z"/>
	<path fill-rule="evenodd" clip-rule="evenodd" fill="#959EA9" d="M38.608,73.382c0,1.353,0,1.353-1.333,1.353
		c-1.219,0-1.219,0-1.219-1.236c0-1.247,0-1.247,1.261-1.376C38.608,71.99,38.608,71.99,38.608,73.382z"/>
	<path fill-rule="evenodd" clip-rule="evenodd" fill="#EDCEB2" d="M28.321,55.417c-0.174,0.515,0.422,1.396-0.812,1.3
		c-1.169-0.092-1.747-0.432-1.767-1.288c-0.021-0.891,0.576-1.277,1.774-1.354C28.838,53.99,28.071,54.971,28.321,55.417z"/>
	<path fill-rule="evenodd" clip-rule="evenodd" fill="#E5E8EC" d="M14.143,10.243c2.419,0,4.838-0.003,7.257,0.001
		c1.336,0.003,1.731,0.396,1.731,1.708c0.002,3.173,0.003,6.346,0,9.52c-0.001,1.254-0.416,1.658-1.694,1.661
		c-1.69,0.002-3.382,0.03-5.071-0.016c-0.562-0.015-0.757,0.174-0.872,0.693c-0.29,1.317-0.639,2.622-0.963,3.931
		c-0.062,0.253-0.094,0.544-0.447,0.531c-0.311-0.011-0.326-0.283-0.383-0.508c-0.344-1.358-0.715-2.71-1.02-4.077
		c-0.102-0.461-0.298-0.568-0.733-0.563c-1.742,0.022-3.485,0.012-5.228,0.008c-1.188-0.003-1.631-0.412-1.635-1.569
		c-0.011-3.251-0.011-6.502,0-9.753c0.004-1.119,0.445-1.557,1.565-1.563C9.149,10.235,11.646,10.244,14.143,10.243z"/>
	<path fill-rule="evenodd" clip-rule="evenodd" d="M52.873,36.059c2.733,0,5.467,0.025,8.2-0.017
		c0.672-0.011,0.797,0.193,0.794,0.824c-0.022,4.507-2.679,8.148-6.759,9.197c-5.728,1.474-11.152-2.686-11.336-8.689
		c-0.04-1.314-0.04-1.314,1.291-1.314C47.666,36.059,50.27,36.059,52.873,36.059z"/>
	<path fill-rule="evenodd" clip-rule="evenodd" d="M54.032,27.453c-0.268,1.072-0.458,2.071-0.776,3.028
		c-0.253,0.759-0.145,1.223,0.666,1.445c0.697,0.19,0.717,0.554,0.386,1.166c-0.814,1.505-0.789,1.534-2.321,0.746
		c-0.641-0.329-1.613-0.468-1.826-1.049c-0.209-0.569,0.238-1.381,0.408-2.085c0.28-1.16,0.576-2.315,0.848-3.477
		c0.092-0.396,0.216-0.575,0.676-0.406c0.508,0.187,1.056,0.262,1.582,0.402C53.831,27.265,54.061,27.271,54.032,27.453z"/>
	<path fill-rule="evenodd" clip-rule="evenodd" fill="#020202" d="M60.549,27.036c-0.016,0.704-0.604,1.263-1.313,1.25
		c-0.708-0.013-1.278-0.599-1.264-1.299c0.014-0.707,0.594-1.257,1.313-1.246C59.999,25.751,60.564,26.331,60.549,27.036z"/>
	<path fill-rule="evenodd" clip-rule="evenodd" fill="#010101" d="M47.645,26.979c0.018,0.71-0.535,1.289-1.247,1.307
		c-0.721,0.018-1.288-0.521-1.306-1.24c-0.019-0.723,0.52-1.289,1.239-1.302C47.056,25.729,47.627,26.266,47.645,26.979z"/>
	<path fill-rule="evenodd" clip-rule="evenodd" fill="#010202" d="M19.259,17.975c-1.287,0-1.287,0-1.287-1.303
		c0-1.263,0-1.263,1.258-1.263c1.342,0,1.342,0,1.342,1.354C20.573,17.975,20.573,17.975,19.259,17.975z"/>
	<path fill-rule="evenodd" clip-rule="evenodd" fill="#010202" d="M14.074,17.975c-1.259,0-1.259,0-1.259-1.25
		c0-1.316,0-1.316,1.357-1.316c1.239,0,1.239,0,1.239,1.223C15.411,17.975,15.411,17.975,14.074,17.975z"/>
	<path fill-rule="evenodd" clip-rule="evenodd" fill="#010102" d="M7.656,16.649c0-1.24,0-1.24,1.272-1.24
		c1.319,0,1.319,0,1.319,1.298c0,1.268,0,1.268-1.255,1.268C7.656,17.975,7.656,17.975,7.656,16.649z"/>
	<path fill-rule="evenodd" clip-rule="evenodd" fill="#F19DCF" d="M52.8,38.606c1.873,0,3.748,0.028,5.62-0.015
		c0.683-0.016,0.707,0.189,0.518,0.755c-0.892,2.654-3.339,4.429-6.156,4.419c-2.804-0.01-5.257-1.829-6.116-4.478
		c-0.189-0.583-0.064-0.701,0.514-0.692C49.052,38.625,50.926,38.606,52.8,38.606z"/>
</g>
</svg>
