<?xml version="1.0" encoding="utf-8"?>
<!-- Generator: Adobe Illustrator 16.0.0, SVG Export Plug-In . SVG Version: 6.00 Build 0)  -->
<!DOCTYPE svg PUBLIC "-//W3C//DTD SVG 1.1//EN" "http://www.w3.org/Graphics/SVG/1.1/DTD/svg11.dtd">
<svg version="1.1" id="Layer_1" xmlns="http://www.w3.org/2000/svg" xmlns:xlink="http://www.w3.org/1999/xlink" x="0px" y="0px"
	 width="85px" height="85px" viewBox="0 0 85 85" enable-background="new 0 0 85 85" xml:space="preserve">
<g>
	<path fill-rule="evenodd" clip-rule="evenodd" d="M2.5,53.904c0.561-0.992,0.769-2.12,1.226-3.154
		c1.465-3.315,4.043-5.092,7.621-5.068c2.383,0.016,4.549-0.454,6.696-1.424c2.528-1.143,5.121-2.144,7.696-3.179
		c0.461-0.186,0.594-0.411,0.562-0.914c-0.438-7.092-0.851-14.186-1.267-21.279c-0.082-1.398,0.622-2.193,1.792-2.031
		c0.828,0.115,1.162,0.696,1.328,1.429c0.301,0.43,0.318,0.944,0.333,1.425c0.066,2.185,0.245,4.362,0.368,6.543
		c0.124,2.206,0.264,4.412,0.394,6.618c0.131,2.206,0.328,4.411,0.354,6.621c0.01,0.827,0.303,1.298,1.071,1.581
		c1.965,0.725,3.964,1.273,6.071,1.343c0.677,0.022,1.34,0.186,2.023,0.151c0.449-0.022,0.669-0.214,0.672-0.666
		c0.002-0.286,0.007-0.573,0.007-0.859c0-7.134-0.001-14.268,0.005-21.401c0-0.459-0.099-0.946,0.236-1.352
		c0.194-0.709,0.5-1.312,1.331-1.434c0.909-0.134,1.659,0.41,1.784,1.317c0.036,0.257,0.026,0.52,0.026,0.78
		c0.001,13.618,0.001,27.235,0,40.854c0,1.719-0.495,2.204-2.244,2.204c-9.062,0-18.123-0.045-27.184,0.027
		c-2.732,0.021-5.389-0.229-8.003-0.999c-0.373-0.109-0.754-0.2-1.136-0.271C3.482,60.623,2.849,60.283,2.5,59.53
		C2.5,57.655,2.5,55.78,2.5,53.904z"/>
	<path fill-rule="evenodd" clip-rule="evenodd" d="M2.5,69.688c0.382-0.85,1.038-1.208,1.969-1.205
		c4.861,0.016,9.723,0.003,14.585,0.011c1.372,0.002,2.117,0.727,1.924,1.823c-0.127,0.724-0.556,1.146-1.281,1.255
		c-0.23,0.034-0.466,0.043-0.699,0.043c-4.81,0.003-9.62-0.013-14.429,0.015c-0.953,0.005-1.655-0.28-2.069-1.16
		C2.5,70.208,2.5,69.947,2.5,69.688z"/>
	<path fill-rule="evenodd" clip-rule="evenodd" d="M64.411,12.636c-0.034-1.03,0.373-1.688,1.152-1.862
		c0.898-0.201,1.562,0.204,1.949,1.242c2.497,6.684,4.988,13.369,7.475,20.057c0.163,0.44,0.362,0.857,0.598,1.263
		c2.043,3.529,4.084,7.06,6.118,10.594c1.48,2.572,0.886,4.768-1.687,6.255C71.943,54.85,63.867,59.509,55.8,64.185
		c-1.123,0.651-2.389,0.851-3.589,1.258c-0.859,0.292-1.734,0.54-2.611,0.778c-0.983,0.268-1.582,0.021-2.103-0.86
		c-0.714-1.207-1.451-2.403-2.098-3.646c-0.608-1.171-0.682-2.501-0.86-3.78c-0.544-3.902,1.021-6.806,4.426-8.675
		c1.683-0.923,3.039-2.11,4.168-3.659c1.824-2.5,3.744-4.932,5.654-7.367c0.334-0.425,0.372-0.739,0.151-1.229
		c-2.606-5.798-5.188-11.606-7.776-17.413c-0.042-0.095-0.08-0.191-0.12-0.287c-0.44-1.042-0.277-1.796,0.491-2.264
		c0.728-0.443,1.515-0.223,2.221,0.62c0.703,0.711,0.924,1.678,1.317,2.545c2.277,5.021,4.485,10.073,6.738,15.105
		c0.232,0.519,0.532,0.673,1.09,0.595c2.932-0.414,5.616-1.485,8.161-2.966c0.527-0.307,0.474-0.657,0.3-1.11
		c-1.222-3.181-2.374-6.388-3.581-9.575c-1.059-2.798-2.07-5.612-3.14-8.406C64.488,13.452,64.444,13.047,64.411,12.636z"/>
	<path fill-rule="evenodd" clip-rule="evenodd" fill="#FECFBA" d="M39.688,18.287c0.005,7.991,0.009,15.982,0.023,23.974
		c0.001,0.395-0.095,0.536-0.518,0.537c-3.206,0.002-6.309-0.486-9.273-1.768c-0.492-0.213-0.482-0.546-0.504-0.926
		c-0.166-2.754-0.326-5.508-0.488-8.262c-0.254-4.286-0.508-8.572-0.76-12.859c-0.014-0.232-0.009-0.467-0.014-0.7
		C31.999,18.285,35.843,18.286,39.688,18.287z"/>
	<path fill-rule="evenodd" clip-rule="evenodd" fill="#FECFBA" d="M64.411,12.636c2.406,6.462,4.809,12.926,7.232,19.381
		c0.184,0.49,0.182,0.725-0.329,1.022c-2.745,1.6-5.636,2.749-8.812,3.129c-0.388,0.046-0.546-0.029-0.699-0.378
		c-2.676-6.047-5.364-12.088-8.05-18.131c1.993-0.87,3.988-1.736,5.979-2.611c1.352-0.595,2.698-1.202,4.048-1.799
		C64.069,13.121,64.363,13.007,64.411,12.636z"/>
	<path fill-rule="evenodd" clip-rule="evenodd" d="M73.174,68.009c-2.495,0-4.991,0.018-7.486-0.008
		c-1.278-0.013-2.047-1.054-1.6-2.124c0.324-0.777,1.005-0.991,1.779-0.992c2.002-0.003,4.004-0.001,6.006-0.001
		c2.781,0,5.562,0,8.344,0c0.209,0,0.418-0.012,0.624,0.007c1.004,0.093,1.685,0.767,1.648,1.619
		c-0.038,0.89-0.703,1.486-1.751,1.493C78.217,68.021,75.695,68.009,73.174,68.009z"/>
	<path fill-rule="evenodd" clip-rule="evenodd" d="M50.195,74.272c-2.521-0.001-5.043,0.013-7.564-0.008
		c-0.917-0.008-1.471-0.473-1.641-1.256c-0.143-0.654,0.219-1.394,0.848-1.677c0.409-0.184,0.854-0.188,1.297-0.188
		c4.73,0.003,9.462,0,14.192,0.006c0.31,0,0.624,0.027,0.927,0.088c0.727,0.146,1.114,0.632,1.188,1.345
		c0.075,0.728-0.277,1.275-0.924,1.552c-0.34,0.146-0.763,0.131-1.149,0.133C54.978,74.278,52.587,74.272,50.195,74.272z"/>
	<path fill-rule="evenodd" clip-rule="evenodd" fill="#010101" d="M28.901,70.061c0.001,0.819-0.703,1.524-1.535,1.534
		c-0.837,0.01-1.549-0.665-1.575-1.492c-0.026-0.847,0.714-1.591,1.571-1.581C28.19,68.531,28.9,69.241,28.901,70.061z"/>
	<path fill-rule="evenodd" clip-rule="evenodd" fill="#72D7FE" d="M17.822,47.776c0.045-0.052,0.057-0.076,0.076-0.085
		c1.732-0.816,1.731-0.814,3.105,0.556c0.405,0.404,0.793,0.832,1.236,1.19c0.704,0.569,1.538,0.516,2.114-0.08
		c0.57-0.589,0.615-1.447,0.019-2.111c-0.467-0.52-1.029-0.954-1.566-1.443c1.231-0.879,1.383-0.871,2.285,0.032
		c0.515,0.517,1.015,1.049,1.551,1.542c0.724,0.669,1.61,0.691,2.238,0.097c0.659-0.624,0.653-1.531-0.039-2.3
		c-0.349-0.386-0.737-0.735-1.102-1.107c-0.083-0.086-0.243-0.159-0.182-0.306c0.069-0.164,0.247-0.2,0.401-0.164
		c0.2,0.047,0.394,0.128,0.583,0.213c3.327,1.511,6.838,2.109,10.467,2.094c0.509-0.003,0.722,0.071,0.713,0.657
		c-0.036,2.369-0.029,4.739-0.003,7.109c0.005,0.488-0.137,0.604-0.611,0.603c-9.688-0.013-19.375,0.001-29.062-0.023
		c-1.254-0.003-2.418-0.577-3.638-0.825c-0.322-0.065-0.223-0.256-0.17-0.468c0.666-2.654,2.633-4.062,5.374-4.238
		c1.952-0.126,3.484,0.303,4.629,1.927c0.189,0.269,0.477,0.481,0.75,0.674c0.637,0.449,1.47,0.36,1.986-0.181
		c0.503-0.527,0.591-1.326,0.135-1.93C18.736,48.713,18.281,48.28,17.822,47.776z"/>
	<path fill-rule="evenodd" clip-rule="evenodd" fill="#FCFCFC" d="M5.625,56.479c0.185,0.034,0.319,0.039,0.438,0.083
		c2.369,0.867,4.83,0.848,7.307,0.839c8.458-0.031,16.916-0.012,25.374-0.012c1.017,0,0.985,0,0.975,1.016
		c-0.005,0.46-0.206,0.489-0.566,0.485c-1.405-0.015-2.811-0.006-4.216-0.006c-8.172,0-16.343,0.012-24.515-0.01
		C8.85,58.87,7.389,58.206,5.86,57.929c-0.238-0.043-0.237-0.236-0.236-0.425C5.627,57.169,5.625,56.833,5.625,56.479z"/>
	<path fill-rule="evenodd" clip-rule="evenodd" fill="#72D7FE" d="M58.59,43.683c0.006-0.024,0.004-0.055,0.018-0.075
		c0.756-1.141,0.756-1.142,2.077-0.794c0.678,0.179,1.352,0.377,2.033,0.539c0.874,0.207,1.684-0.237,1.929-1.03
		c0.244-0.788-0.178-1.605-1.023-1.931c-0.337-0.13-0.697-0.2-1.047-0.299c-0.322-0.092-0.645-0.188-0.973-0.282
		c0.071-0.431,0.386-0.439,0.694-0.475c2.307-0.263,4.549-0.783,6.705-1.665c1.276-0.521,2.503-1.144,3.681-1.854
		c0.445-0.269,0.639-0.195,0.884,0.241c1.159,2.061,2.337,4.11,3.538,6.146c0.245,0.416,0.264,0.616-0.203,0.885
		c-8.378,4.815-16.74,9.659-25.121,14.471c-1.109,0.637-2.428,0.726-3.63,1.131c-0.23,0.078-0.298,0-0.361-0.229
		c-0.675-2.447-0.071-4.675,1.994-6.062c0.84-0.563,1.747-1.025,2.607-1.56c0.29-0.18,0.553-0.096,0.821-0.025
		c0.854,0.223,1.699,0.477,2.555,0.693c1.04,0.264,1.869-0.157,2.117-1.049c0.247-0.886-0.252-1.657-1.294-1.975
		c-0.446-0.136-0.901-0.242-1.459-0.391c0.396-0.516,0.762-0.969,1.1-1.441c0.187-0.262,0.391-0.171,0.617-0.109
		c0.902,0.245,1.804,0.49,2.71,0.722c1.022,0.26,1.874-0.172,2.115-1.059c0.228-0.837-0.279-1.641-1.249-1.948
		c-0.592-0.188-1.192-0.348-1.788-0.522C58.617,43.732,58.605,43.702,58.59,43.683z"/>
	<path fill-rule="evenodd" clip-rule="evenodd" fill="#FEFEFE" d="M79.37,46.396c-0.012,0.555-0.41,0.796-0.825,1.035
		c-3.553,2.048-7.104,4.102-10.655,6.152c-4.474,2.582-8.946,5.167-13.424,7.743c-1.391,0.801-2.978,1.041-4.49,1.482
		c-0.635,0.186-0.644-0.567-0.831-0.91c-0.218-0.395,0.284-0.319,0.479-0.361c2.16-0.458,4.081-1.435,5.977-2.542
		c7.576-4.426,15.187-8.792,22.784-13.18C78.985,45.47,79.364,45.695,79.37,46.396z"/>
</g>
</svg>
