<?xml version="1.0" encoding="utf-8"?>
<!-- Generator: Adobe Illustrator 16.0.0, SVG Export Plug-In . SVG Version: 6.00 Build 0)  -->
<!DOCTYPE svg PUBLIC "-//W3C//DTD SVG 1.1//EN" "http://www.w3.org/Graphics/SVG/1.1/DTD/svg11.dtd">
<svg version="1.1" id="Layer_1" xmlns="http://www.w3.org/2000/svg" xmlns:xlink="http://www.w3.org/1999/xlink" x="0px" y="0px"
	 width="85px" height="85px" viewBox="0 0 85 85" enable-background="new 0 0 85 85" xml:space="preserve">
<g>
	<path fill="#FAC5AD" d="M39.877,39.583c0.363,0.414,0.892,0.409,0.538,2.263c-0.152,0.798-1.644,4.007-3.226,5.89
		c-2.047,2.436-4.399,3.815-6.38,5.191c-0.841-0.357-0.891-0.79-0.891-1.044c1.762-1.408,3.668-3.36,4.893-5.004
		c1.444-1.938,2.068-4.424,2.388-4.888C38.254,40.46,39.515,39.168,39.877,39.583z"/>
	<path fill="#FAC5AD" d="M29.918,51.883c0.635-0.134,0.978,0.432,0.891,1.044c-0.078,0.554-0.763,1.031-1.131,1.341
		s-1.659-1.741-1.659-1.741S29.449,51.981,29.918,51.883z"/>
	<path fill="#FAC5AD" d="M29.059,51.651l-0.716,0.769c0,0-0.655-0.07-0.979-0.383c-0.242-0.233-0.131-0.544,0.203-0.46
		C28.057,51.701,29.059,51.651,29.059,51.651z"/>
	<path fill="#FFFFFF" d="M48.059,80.696c0.304,0.244,2.184,1.63,3.36,1.783c1.33,0.174,1.33-0.806,1.33-0.806
		s-2.315-2.591-2.73-2.413c-0.414,0.18-2.149,0.881-2.149,0.881S47.844,80.525,48.059,80.696z"/>
	<path fill="#FAC5AD" d="M49.672,60.61c0.567,0.194,1.168,1.246,1.255,4.376c0.057,2.062-0.229,6.168-0.908,13.706
		c0.208,0.841-1.717,0.946-2.027,0.063c-0.36-4.725-0.74-13.564-0.915-14.51C46.542,61.352,49.104,60.417,49.672,60.61z"/>
	<path fill="#F69F93" d="M50.295,69.815c-0.188,0.134-0.566,0.247-0.928,0.244c-0.221,0.001-0.436-0.04-0.602-0.124
		c-0.088-0.044-0.194-0.009-0.239,0.079c-0.044,0.088-0.009,0.195,0.079,0.24c0.233,0.116,0.499,0.161,0.762,0.162
		c0.431-0.002,0.853-0.118,1.131-0.308c0.081-0.057,0.102-0.168,0.045-0.249C50.487,69.779,50.376,69.76,50.295,69.815
		L50.295,69.815z"/>
	<path fill="#687ABA" d="M47.869,80.142c0.249,0.3,2.662,2.084,3.849,2.08c1.061-0.003,1.629-0.909,0.559-1.78
		c-1.085-0.882-1.994-1.632-2.258-1.749c-0.21,0.375-1.588,0.248-2.045-0.175C47.706,78.95,47.719,79.96,47.869,80.142z"/>
	<path fill="#B6AED6" d="M51.707,80.096c0.148,0.138,0.151,0.239,0.013,0.368c-0.108,0.1-0.257,0.244-0.386,0.371
		c-0.198,0.196-0.39-0.043-0.614-0.21c-0.28-0.208-0.761-0.698-1.021-0.932c-0.146-0.132-0.279-0.216-0.367-0.393
		c-0.09-0.184,0.445-0.191,0.604-0.308c0.179-0.13,0.297-0.055,0.466,0.085C50.546,79.198,51.559,79.958,51.707,80.096z"/>
	<path fill="#FFFFFF" d="M49.501,79.67c0.418-0.111,0.715-0.349,0.94-0.525c0.052-0.041,0.061-0.115,0.02-0.167
		c-0.04-0.052-0.115-0.061-0.167-0.02c-0.225,0.177-0.491,0.386-0.854,0.481c-0.063,0.018-0.102,0.082-0.085,0.146
		C49.373,79.648,49.438,79.687,49.501,79.67L49.501,79.67z"/>
	<path fill="#FFFFFF" d="M49.962,80.087c0.203-0.095,0.344-0.188,0.469-0.294c0.126-0.106,0.234-0.221,0.389-0.367
		c0.048-0.046,0.05-0.121,0.005-0.169c-0.045-0.047-0.121-0.049-0.168-0.004c-0.159,0.151-0.268,0.265-0.379,0.358
		s-0.228,0.172-0.416,0.261c-0.06,0.027-0.085,0.099-0.058,0.158C49.832,80.09,49.902,80.115,49.962,80.087L49.962,80.087z"/>
	<path fill="#FFFFFF" d="M50.377,80.473c0.375-0.216,0.589-0.417,0.865-0.739c0.042-0.05,0.036-0.125-0.014-0.168
		s-0.125-0.037-0.167,0.013c-0.271,0.316-0.449,0.483-0.803,0.688c-0.058,0.033-0.077,0.105-0.044,0.162
		C50.248,80.486,50.32,80.506,50.377,80.473L50.377,80.473z"/>
	<path fill="#FFFFFF" d="M50.915,80.812c0.314-0.259,0.483-0.426,0.746-0.737c0.042-0.051,0.036-0.125-0.015-0.168
		c-0.05-0.042-0.125-0.036-0.167,0.015c-0.259,0.306-0.407,0.452-0.716,0.707c-0.051,0.042-0.058,0.117-0.016,0.168
		S50.865,80.854,50.915,80.812L50.915,80.812z"/>
	<path fill="#FFFFFF" d="M41.244,80.696c-0.304,0.244-2.184,1.63-3.361,1.783c-1.33,0.174-1.33-0.806-1.33-0.806
		s2.315-2.591,2.73-2.413c0.415,0.18,2.15,0.881,2.15,0.881S41.458,80.525,41.244,80.696z"/>
	<path fill="#FAC5AD" d="M39.63,60.61c-0.567,0.194-1.168,1.246-1.255,4.376c-0.057,2.062,0.228,6.168,0.908,13.706
		c-0.208,0.841,1.717,0.946,2.027,0.063c0.361-4.725,0.741-13.564,0.915-14.51C42.76,61.352,40.198,60.417,39.63,60.61z"/>
	<path fill="#F69F93" d="M38.804,70.109c0.279,0.189,0.7,0.306,1.13,0.308c0.263-0.001,0.529-0.046,0.762-0.162
		c0.088-0.045,0.124-0.152,0.079-0.24c-0.044-0.088-0.151-0.123-0.239-0.079c-0.167,0.084-0.381,0.125-0.602,0.124
		c-0.36,0.003-0.739-0.11-0.927-0.244c-0.081-0.056-0.192-0.036-0.248,0.045S38.723,70.053,38.804,70.109L38.804,70.109z"/>
	<path fill="#687ABA" d="M41.433,80.142c-0.249,0.3-2.662,2.084-3.849,2.08c-1.061-0.003-1.629-0.909-0.558-1.78
		c1.084-0.882,1.993-1.632,2.257-1.749c0.21,0.375,1.588,0.248,2.045-0.175C41.596,78.95,41.583,79.96,41.433,80.142z"/>
	<path fill="#B6AED6" d="M37.595,80.096c-0.148,0.138-0.151,0.239-0.012,0.368c0.108,0.1,0.257,0.244,0.385,0.371
		c0.199,0.196,0.39-0.043,0.614-0.21c0.28-0.208,0.761-0.698,1.022-0.932c0.147-0.132,0.279-0.216,0.367-0.393
		c0.09-0.184-0.445-0.191-0.604-0.308c-0.179-0.13-0.297-0.055-0.466,0.085C38.756,79.198,37.743,79.958,37.595,80.096z"/>
	<path fill="#FFFFFF" d="M39.862,79.439c-0.362-0.096-0.629-0.305-0.854-0.481c-0.051-0.041-0.126-0.032-0.167,0.02
		s-0.032,0.126,0.02,0.167c0.225,0.177,0.522,0.414,0.94,0.525c0.063,0.017,0.128-0.021,0.146-0.085
		C39.963,79.521,39.925,79.457,39.862,79.439L39.862,79.439z"/>
	<path fill="#FFFFFF" d="M39.44,79.872c-0.188-0.089-0.304-0.167-0.416-0.261c-0.112-0.094-0.22-0.207-0.379-0.358
		c-0.047-0.045-0.123-0.043-0.168,0.004c-0.045,0.048-0.043,0.123,0.004,0.169c0.154,0.146,0.263,0.261,0.389,0.367
		s0.266,0.199,0.469,0.294c0.059,0.028,0.13,0.003,0.158-0.057C39.526,79.971,39.5,79.899,39.44,79.872L39.44,79.872z"/>
	<path fill="#FFFFFF" d="M39.043,80.267c-0.354-0.205-0.531-0.372-0.802-0.688c-0.043-0.05-0.118-0.056-0.168-0.013
		s-0.056,0.118-0.013,0.168c0.275,0.322,0.489,0.523,0.864,0.739c0.057,0.033,0.13,0.014,0.163-0.044
		C39.12,80.372,39.1,80.3,39.043,80.267L39.043,80.267z"/>
	<path fill="#FFFFFF" d="M38.538,80.629c-0.309-0.255-0.456-0.401-0.715-0.707c-0.042-0.051-0.118-0.057-0.168-0.015
		c-0.05,0.043-0.056,0.117-0.014,0.168c0.263,0.312,0.431,0.479,0.746,0.737c0.051,0.042,0.125,0.035,0.167-0.016
		S38.589,80.671,38.538,80.629L38.538,80.629z"/>
	<path fill="#E1A393" d="M36.781,25.144c-0.7,0.843-2.071,0.869-3.052,0.042c-0.994-0.837-1.356-3.656-0.021-4.261
		c1.558-0.705,1.928,1.698,3.442,2.229C38.638,23.676,36.984,24.899,36.781,25.144z"/>
	<path fill="#C7827A" d="M33.497,21.691c0.729,0.354,1.219,1.176,1.217,1.989c0,0.125-0.012,0.25-0.035,0.373
		c-0.018,0.097,0.045,0.19,0.142,0.208s0.19-0.045,0.208-0.142c0.028-0.146,0.041-0.293,0.041-0.439
		c-0.002-0.951-0.553-1.885-1.417-2.31c-0.088-0.043-0.195-0.006-0.238,0.082C33.372,21.541,33.408,21.647,33.497,21.691
		L33.497,21.691z"/>
	<path fill="#C7827A" d="M35.069,23.654c-0.024-0.239-0.078-0.441-0.166-0.611c-0.087-0.169-0.211-0.304-0.363-0.392
		c-0.146-0.084-0.316-0.14-0.495-0.141c-0.112,0-0.229,0.023-0.336,0.081c-0.1,0.054-0.177,0.134-0.23,0.226
		c-0.053,0.092-0.084,0.196-0.084,0.304c0,0.112,0.037,0.233,0.123,0.328c0.066,0.073,0.179,0.078,0.252,0.012
		c0.073-0.066,0.078-0.179,0.012-0.252c-0.02-0.022-0.03-0.048-0.03-0.088c0-0.038,0.012-0.084,0.036-0.125
		c0.023-0.041,0.057-0.073,0.09-0.09c0.049-0.026,0.105-0.039,0.169-0.039c0.1,0,0.217,0.035,0.315,0.093
		c0.091,0.053,0.164,0.129,0.226,0.247c0.061,0.117,0.106,0.277,0.127,0.483c0.01,0.098,0.098,0.169,0.196,0.159
		C35.008,23.84,35.079,23.752,35.069,23.654L35.069,23.654z"/>
	<path fill="#FAC5AD" d="M55.026,20.563c0,0.627-0.382,3.476-0.438,4.084c-0.659,7.138-6.571,9.775-10.173,9.775
		c-4.209,0-9.365-3.372-9.596-9.775c-0.058-1.608,0.179-2.472,0.149-3.073c-0.427-8.621,3.269-14.376,9.44-14.376
		C50.58,7.198,55.026,11.916,55.026,20.563z"/>
	<path fill="#533639" d="M57.178,13.038c0.189,3.392-0.087,9.752-2.974,9.652c-0.598-0.021-0.664-1.211-0.613-2.378
		c0.027-0.62,0.475-3.443-0.058-5.312c-0.485-1.701-1.953-2.488-1.953-2.488s-0.168-4.917,0.732-5.203
		C55.236,6.381,57.021,10.205,57.178,13.038z"/>
	<path fill="#533639" d="M36.282,8.332c-4.043,4.848-2.143,14.862-1.447,15.028c-0.023-4.091,1.045-9.413,1.045-9.413
		s1.319,1.646,4.984,1.9c3.873,0.269,8.184-0.424,10.716-3.336c1.001-1.152,0.732-4.094,0.732-5.203
		C49.835,2.651,39.513,4.457,36.282,8.332z"/>
	<ellipse fill="#F8B0A4" cx="38.638" cy="24.772" rx="2.356" ry="0.974"/>
	<ellipse fill="#F8B0A4" cx="48.253" cy="25.024" rx="2.356" ry="0.974"/>
	<path fill="#DC8F7F" d="M37.886,24.458c-0.319,0-0.319,0.313,0,0.313C38.204,24.771,38.204,24.458,37.886,24.458z"/>
	<path fill="#DC8F7F" d="M38.732,24.614c-0.319,0-0.319,0.314,0,0.314C39.051,24.928,39.051,24.614,38.732,24.614z"/>
	<path fill="#DC8F7F" d="M38.732,24.105c-0.259,0-0.259,0.255,0,0.255C38.991,24.36,38.991,24.105,38.732,24.105z"/>
	<path fill="#DC8F7F" d="M39.327,25.082c-0.096,0-0.096,0.095,0,0.095C39.423,25.176,39.423,25.082,39.327,25.082z"/>
	<path fill="#DC8F7F" d="M37.886,25.056c-0.096,0-0.096,0.095,0,0.095C37.981,25.151,37.981,25.056,37.886,25.056z"/>
	<path fill="#DC8F7F" d="M38.125,24.312c-0.096,0-0.096,0.095,0,0.095S38.221,24.312,38.125,24.312z"/>
	<path fill="#DC8F7F" d="M38.387,25.129c-0.201,0-0.201,0.198,0,0.198S38.588,25.129,38.387,25.129z"/>
	<path fill="#DC8F7F" d="M39.478,24.261c-0.202,0-0.202,0.198,0,0.198C39.679,24.459,39.679,24.261,39.478,24.261z"/>
	<path fill="#DC8F7F" d="M47.501,24.458c-0.318,0-0.318,0.313,0,0.313S47.819,24.458,47.501,24.458z"/>
	<path fill="#DC8F7F" d="M48.349,24.614c-0.32,0-0.32,0.314,0,0.314C48.667,24.928,48.667,24.614,48.349,24.614z"/>
	<path fill="#DC8F7F" d="M48.349,24.105c-0.26,0-0.26,0.255,0,0.255C48.607,24.36,48.607,24.105,48.349,24.105z"/>
	<path fill="#DC8F7F" d="M48.942,25.082c-0.096,0-0.096,0.095,0,0.095C49.039,25.176,49.039,25.082,48.942,25.082z"/>
	<path fill="#DC8F7F" d="M47.501,25.056c-0.096,0-0.096,0.095,0,0.095C47.598,25.151,47.598,25.056,47.501,25.056z"/>
	<path fill="#DC8F7F" d="M47.74,24.312c-0.097,0-0.097,0.095,0,0.095S47.837,24.312,47.74,24.312z"/>
	<path fill="#DC8F7F" d="M48.003,25.129c-0.201,0-0.201,0.198,0,0.198S48.204,25.129,48.003,25.129z"/>
	<path fill="#DC8F7F" d="M49.094,24.261c-0.201,0-0.201,0.198,0,0.198C49.294,24.459,49.294,24.261,49.094,24.261z"/>
	<path fill="#F69F93" d="M43.368,22.875c0.031,0.057,0.047,0.124,0.047,0.195c0.002,0.171-0.099,0.35-0.239,0.416
		c-0.061,0.03-0.137,0.049-0.227,0.068c-0.09,0.02-0.192,0.038-0.301,0.079c-0.193,0.074-0.345,0.213-0.448,0.378
		c-0.103,0.165-0.159,0.358-0.159,0.554c0,0.165,0.041,0.333,0.133,0.48c0.184,0.292,0.513,0.435,0.834,0.436
		c0.229,0,0.464-0.075,0.644-0.242c0.071-0.067,0.075-0.18,0.008-0.252c-0.067-0.072-0.18-0.075-0.252-0.008
		c-0.102,0.096-0.246,0.146-0.399,0.146c-0.216,0-0.43-0.102-0.532-0.268c-0.053-0.085-0.079-0.185-0.079-0.292
		c0-0.125,0.038-0.257,0.105-0.365c0.068-0.108,0.162-0.191,0.273-0.233c0.068-0.026,0.152-0.043,0.248-0.063
		c0.095-0.021,0.201-0.044,0.311-0.098c0.282-0.143,0.437-0.439,0.438-0.736c0-0.125-0.028-0.251-0.092-0.366
		c-0.047-0.086-0.155-0.118-0.242-0.071C43.353,22.681,43.32,22.789,43.368,22.875L43.368,22.875z"/>
	<path fill="#F69F93" d="M42.724,29.373c0.165,0.035,0.332,0.052,0.499,0.052c0.732,0,1.461-0.328,1.932-0.898
		c0.062-0.076,0.051-0.188-0.025-0.251c-0.076-0.062-0.188-0.051-0.251,0.025c-0.396,0.482-1.029,0.769-1.655,0.769
		c-0.143,0-0.285-0.015-0.423-0.045c-0.096-0.021-0.191,0.041-0.212,0.137C42.566,29.257,42.627,29.352,42.724,29.373L42.724,29.373
		z"/>
	<path fill="#FAC5AD" d="M53.824,25.144c0.7,0.843,2.07,0.869,3.052,0.042c0.994-0.837,1.357-3.656,0.021-4.261
		c-1.558-0.705-1.929,1.698-3.442,2.229C51.967,23.676,53.621,24.899,53.824,25.144z"/>
	<path fill="#F69F93" d="M56.475,21.37c-0.863,0.425-1.415,1.359-1.417,2.31c0,0.146,0.014,0.294,0.041,0.44
		c0.019,0.097,0.112,0.16,0.209,0.142s0.16-0.112,0.142-0.208c-0.023-0.123-0.034-0.248-0.034-0.373
		c-0.002-0.813,0.486-1.636,1.217-1.989c0.088-0.043,0.125-0.15,0.082-0.239C56.671,21.364,56.563,21.327,56.475,21.37L56.475,21.37
		z"/>
	<path fill="#F69F93" d="M55.415,23.69c0.021-0.206,0.066-0.366,0.127-0.483c0.062-0.118,0.135-0.194,0.226-0.247
		c0.099-0.058,0.216-0.093,0.315-0.093c0.063,0,0.119,0.013,0.169,0.039c0.033,0.018,0.066,0.05,0.09,0.09
		c0.023,0.04,0.036,0.087,0.036,0.125c-0.001,0.04-0.011,0.066-0.03,0.088c-0.066,0.073-0.062,0.186,0.012,0.252
		s0.186,0.061,0.252-0.012c0.087-0.095,0.124-0.216,0.123-0.328c0-0.108-0.031-0.212-0.084-0.304
		c-0.054-0.091-0.131-0.172-0.231-0.226c-0.107-0.057-0.224-0.081-0.336-0.081c-0.179,0-0.349,0.057-0.494,0.141
		c-0.152,0.088-0.276,0.223-0.363,0.392c-0.088,0.169-0.142,0.372-0.166,0.611c-0.01,0.098,0.062,0.186,0.159,0.195
		C55.317,23.86,55.404,23.789,55.415,23.69L55.415,23.69z"/>
	<path fill="#323A4D" d="M51.411,66.379c0-2.925-0.617-10.938-0.617-10.938h-4.005c-0.6-1.356-1.352-2.458-2.167-2.458
		c-0.816,0-1.566,1.102-2.167,2.458h-4.431c0,0-0.543,6.613-0.338,11.136c0.128,2.824,0.604,10.594,1.112,11.09
		c0.508,0.497,3.129,0.183,3.129,0.183l1.477-15.718c0.513,0.151,1.492,0.286,2.118-0.045l1.975,15.271c0,0,2.939,0.099,3.222-0.142
		C51.002,76.977,51.411,68.75,51.411,66.379z"/>
	<path fill="#EF4F4B" d="M51.442,58.754c-1.446,0.867-12.27,1.124-14.147,0c-0.435-0.261,0.686-9.31,1.926-15.791
		c0.658-3.438,0.137-6.11,0.49-6.11c0.366,0,2.617-0.273,2.617-0.273h4.135c0,0,2.526,0.273,2.764,0.273
		c0.256,0-0.213,2.414,0.36,5.554C50.77,48.895,52.019,58.408,51.442,58.754z"/>
	<path fill="#FAC5AD" d="M45.938,33.305l-3.259-0.106c0,0,0.45,1.771,0.037,3.098c-0.049,0.155-0.283,0.195-0.389,0.284
		c-0.003,1.494,4.205,1.653,4.135,0c-0.112-0.084-0.325-0.113-0.381-0.257C45.55,34.962,45.938,33.305,45.938,33.305z"/>
	<path fill="#F69F93" d="M43.368,34.443c0.312,0.082,0.635,0.124,0.958,0.124c0.201,0,0.403-0.016,0.603-0.049
		c0.098-0.016,0.163-0.107,0.147-0.205s-0.107-0.163-0.205-0.147c-0.18,0.029-0.362,0.044-0.545,0.044
		c-0.292,0-0.585-0.038-0.867-0.112c-0.096-0.025-0.193,0.032-0.218,0.127C43.216,34.32,43.272,34.417,43.368,34.443L43.368,34.443z
		"/>
	<path fill="#FAC5AD" d="M49.481,37.01c0.55,0.033,1.04,0.548,2.109,2.104c0.46,0.669,1.692,3.987,1.918,6.436
		c0.292,3.168-0.618,5.768-1.033,8.145c-0.846,0.347-1.765,0.092-1.396-0.36c0.238-2.242,0.507-4.362,0.2-6.389
		c-0.362-2.389-1.31-4.093-1.415-4.647C49.52,40.473,48.933,36.977,49.481,37.01z"/>
	<path fill="#EF4F4B" d="M38.906,46.117l-3.391-1.093c0,0,1.247-3.713,1.43-4.421c0.899-3.476,2.234-3.705,2.783-3.75
		c0.624-0.051-0.019,3.721-0.216,6.406C39.483,43.646,39.161,44.874,38.906,46.117z"/>
	<path fill="#EF4F4B" d="M50.878,45.464c-0.658-1.063-0.917-1.907-1.137-2.224c-1.732-2.495-1.066-6.387-0.515-6.387
		c0.55,0,1.597,0.443,2.494,1.969c0.371,0.63,1.583,4.008,1.812,5.766L50.878,45.464z"/>
	<path fill="#C82F3C" d="M38.939,45.698c0.296-1.86,0.761-3.832,0.97-5.255c0.009-0.065-0.036-0.125-0.101-0.135
		c-0.065-0.01-0.125,0.035-0.135,0.1c-0.206,1.406-0.671,3.381-0.969,5.252c-0.01,0.064,0.034,0.125,0.099,0.136
		S38.929,45.763,38.939,45.698L38.939,45.698z"/>
	<path fill="#C82F3C" d="M49.734,42.913c-0.232-0.944-0.423-1.898-0.568-2.86c-0.01-0.065-0.07-0.109-0.136-0.1
		c-0.064,0.01-0.109,0.071-0.1,0.136c0.147,0.968,0.339,1.929,0.572,2.88c0.016,0.065,0.08,0.104,0.145,0.087
		C49.711,43.041,49.75,42.976,49.734,42.913L49.734,42.913z"/>
	<path fill="#533639" d="M51.215,18.446c-0.235-0.229-0.554-0.435-0.927-0.588c-0.373-0.152-0.801-0.251-1.253-0.251
		c-0.604,0-1.253,0.18-1.836,0.64c-0.103,0.082-0.121,0.231-0.039,0.334c0.081,0.104,0.23,0.121,0.334,0.04
		c0.497-0.391,1.028-0.537,1.541-0.538c0.382,0,0.752,0.084,1.073,0.216c0.32,0.131,0.592,0.311,0.774,0.489
		c0.094,0.091,0.245,0.089,0.336-0.004C51.311,18.688,51.309,18.538,51.215,18.446L51.215,18.446z"/>
	<path fill="#533639" d="M51.191,21.634c-0.003,1.058-1.015,1.705-2.446,1.705c-1.431,0-2.408-1.326-2.408-1.326
		s0.192-1.71,2.382-1.867C49.905,20.062,51.193,20.697,51.191,21.634z"/>
	<path fill="#FFFFFF" d="M51.106,21.739c0.056,0.889-0.93,1.711-2.361,1.711c-1.431,0-2.429-0.464-2.429-1.297
		c0-0.524,0.998-1.699,2.429-1.699C50.177,20.454,51.049,20.811,51.106,21.739z"/>
	<circle fill="#533639" cx="48.38" cy="21.737" r="1.455"/>
	<circle fill="#FFFFFF" cx="48.882" cy="21.416" r="0.502"/>
	<path fill="#533639" d="M36.01,21.634c0.002,1.058,1.015,1.705,2.446,1.705s2.408-1.326,2.408-1.326s-0.192-1.71-2.381-1.867
		C37.296,20.062,36.008,20.697,36.01,21.634z"/>
	<path fill="#FFFFFF" d="M36.095,21.739c-0.055,0.889,0.93,1.711,2.361,1.711s2.429-0.464,2.429-1.297
		c0-0.524-0.998-1.699-2.429-1.699S36.152,20.811,36.095,21.739z"/>
	<circle fill="#533639" cx="38.821" cy="21.737" r="1.455"/>
	<circle fill="#FFFFFF" cx="38.319" cy="21.416" r="0.502"/>
	<path fill="#533639" d="M36.305,18.787c0.182-0.178,0.454-0.357,0.774-0.489c0.321-0.132,0.691-0.216,1.073-0.216
		c0.512,0.001,1.044,0.147,1.541,0.538c0.104,0.081,0.253,0.063,0.334-0.04c0.081-0.103,0.063-0.252-0.04-0.334
		c-0.583-0.46-1.231-0.641-1.835-0.64c-0.452,0-0.88,0.099-1.253,0.251c-0.373,0.153-0.691,0.36-0.926,0.588
		c-0.094,0.091-0.096,0.242-0.004,0.336C36.06,18.876,36.21,18.878,36.305,18.787L36.305,18.787z"/>
	<path fill="#FAC5AD" d="M50.861,53.567c0.351-0.546,1.138-0.528,1.512-0.035c0.339,0.444,0.536,1.473,0.497,1.952
		c-0.039,0.479-2.404-0.045-2.404-0.045S50.601,53.97,50.861,53.567z"/>
	<path fill="#FAC5AD" d="M50.932,53.488l0.042,1.049c0,0-0.51,0.417-0.96,0.427c-0.336,0.008-0.479-0.289-0.184-0.468
		C50.262,54.235,50.932,53.488,50.932,53.488z"/>
	<path fill="#FAC5AD" d="M51.662,55.41c-0.041,0.621-0.047,1.104-0.152,1.669c-0.082,0.439-0.493,0.473-0.529-0.098
		c-0.023-0.363,0.024-1.246,0.064-1.617L51.662,55.41z"/>
	<path fill="#FAC5AD" d="M51.002,55.343c-0.078,0.531-0.146,0.94-0.275,1.419c-0.102,0.371-0.454,0.364-0.445-0.129
		c0.006-0.314,0.133-1.017,0.194-1.335L51.002,55.343z"/>
	<path fill="#FAC5AD" d="M52.351,55.463c-0.037,0.58-0.04,1.007-0.145,1.535c-0.08,0.412-0.49,0.441-0.528-0.093
		c-0.024-0.341,0.018-1.142,0.057-1.489L52.351,55.463z"/>
	<path fill="#FAC5AD" d="M52.87,55.484c0.003,0.48,0.047,0.767-0.004,1.211c-0.04,0.345-0.351,0.397-0.408-0.04
		c-0.037-0.278-0.118-0.903-0.107-1.192L52.87,55.484z"/>
	<path fill="#533639" d="M36.501,14.49c-2.928-1.385-5.083-5.755-4.635-6.811c0.448-1.056,2.481,0.781,2.481,0.781
		s-1.709-3.09-1.125-4.079c0.583-0.988,3.275,1.285,3.275,1.285s-1.236-2.471-0.215-3.13c0.383-0.247,2.541,0.866,5.024,1.074
		c4.139,0.347,9.459,0.398,11.007,3.699L36.501,14.49z"/>
	<path fill="#222839" d="M41.752,22.353c0.295-0.402,0.769-0.667,1.306-0.667c0.538,0,1.011,0.264,1.306,0.667h0.869
		c-0.368-0.835-1.202-1.42-2.175-1.42c-0.972,0-1.807,0.584-2.175,1.42H41.752z"/>
	<path fill="#222839" d="M39.351,25.49H36.35c-1.377,0-2.493-1.116-2.493-2.493v-2.483c0-0.75,0.609-1.359,1.359-1.359h5.269
		c0.75,0,1.359,0.609,1.359,1.359v2.483C41.844,24.374,40.728,25.49,39.351,25.49z"/>
	<path fill="#323A4D" d="M39.182,25.131H36.52c-1.221,0-2.211-0.99-2.211-2.211v-2.202c0-0.666,0.54-1.206,1.206-1.206h4.673
		c0.666,0,1.206,0.54,1.206,1.206v2.202C41.393,24.142,40.403,25.131,39.182,25.131z"/>
	<path fill="#222839" d="M46.827,25.49h3.001c1.377,0,2.492-1.116,2.492-2.493v-2.483c0-0.75-0.608-1.359-1.359-1.359h-5.268
		c-0.751,0-1.359,0.609-1.359,1.359v2.483C44.334,24.374,45.449,25.49,46.827,25.49z"/>
	<path fill="#323A4D" d="M46.997,25.131h2.661c1.221,0,2.211-0.99,2.211-2.211v-2.202c0-0.666-0.54-1.206-1.206-1.206h-4.672
		c-0.666,0-1.206,0.54-1.206,1.206v2.202C44.785,24.142,45.775,25.131,46.997,25.131z"/>
	<path fill="#3D465B" d="M40.187,19.513H38.32l-4.01,3.44c0.008,0.556,0.222,1.061,0.568,1.445l5.635-4.835
		C40.409,19.534,40.301,19.513,40.187,19.513z"/>
	<path fill="#3D465B" d="M40.833,19.703l-5.728,4.915c0.137,0.115,0.29,0.211,0.453,0.29l5.642-4.841
		C41.104,19.92,40.979,19.797,40.833,19.703z"/>
	<path fill="#3D465B" d="M41.393,20.718c0-0.114-0.021-0.223-0.051-0.328l-5.425,4.655c0.17,0.048,0.348,0.076,0.532,0.082
		l4.943-4.242V20.718z"/>
	<path fill="#3D465B" d="M50.663,19.513h-0.966l-4.795,4.114c0.163,0.481,0.485,0.887,0.906,1.156l5.717-4.906
		C51.307,19.653,51.002,19.513,50.663,19.513z"/>
	<path fill="#3D465B" d="M51.711,20.131l-5.606,4.811c0.187,0.083,0.387,0.139,0.596,0.167l5.165-4.432
		C51.858,20.479,51.803,20.294,51.711,20.131z"/>
	<polygon fill="#3D465B" points="51.869,21.12 47.194,25.131 47.822,25.131 51.869,21.659 	"/>
	
		<rect x="29.428" y="50.64" transform="matrix(0.9963 -0.0856 0.0856 0.9963 -5.5194 2.8024)" fill="#B6C1C4" width="0.981" height="30.244"/>
	
		<rect x="28.116" y="48.581" transform="matrix(0.9963 -0.0862 0.0862 0.9963 -4.5292 2.6891)" fill="#323A4D" width="1.541" height="10.461"/>
	<path fill="#FAC5AD" d="M27.958,52.42c0,0-0.386,0.493-0.354,0.707c0.042,0.287,0.424,0.343,0.641,0.29
		c0.301-0.073,0.62-0.232,0.746-0.528c0.168-0.391-0.12-0.433-0.399-0.311c-0.228,0.099-0.562,0.273-0.562,0.273L27.958,52.42z"/>
	<path fill="#FAC5AD" d="M27.782,53.237c-0.084,0.138-0.175,0.378-0.067,0.52c0.172,0.227,0.641,0.091,0.851,0.017
		c0.166-0.059,0.601-0.219,0.467-0.494c-0.098-0.203-0.442-0.15-0.608-0.118c-0.219,0.044-0.408,0.116-0.632,0.079
		C27.778,53.222,27.806,53.239,27.782,53.237z"/>
	<path fill="#FAC5AD" d="M27.787,53.825c-0.075,0.122-0.155,0.333-0.06,0.459c0.152,0.2,0.566,0.08,0.752,0.015
		c0.146-0.052,0.531-0.193,0.413-0.437c-0.086-0.18-0.391-0.134-0.537-0.104c-0.194,0.038-0.361,0.103-0.559,0.07
		C27.783,53.812,27.808,53.827,27.787,53.825z"/>
	<path fill="#FAC5AD" d="M28.028,54.354c-0.058,0.114-0.113,0.311-0.018,0.415c0.152,0.168,0.513,0.028,0.675-0.044
		c0.127-0.058,0.461-0.214,0.336-0.423c-0.091-0.154-0.36-0.089-0.489-0.052c-0.17,0.049-0.315,0.119-0.495,0.105L28.028,54.354z"/>
</g>
</svg>
