<?xml version="1.0" encoding="utf-8"?>
<!-- Generator: Adobe Illustrator 16.0.0, SVG Export Plug-In . SVG Version: 6.00 Build 0)  -->
<!DOCTYPE svg PUBLIC "-//W3C//DTD SVG 1.1//EN" "http://www.w3.org/Graphics/SVG/1.1/DTD/svg11.dtd">
<svg version="1.1" id="Layer_1" xmlns="http://www.w3.org/2000/svg" xmlns:xlink="http://www.w3.org/1999/xlink" x="0px" y="0px"
	 width="85px" height="85px" viewBox="0 0 85 85" enable-background="new 0 0 85 85" xml:space="preserve">
<g>
	<rect x="3.947" y="15.512" fill="#F7E3C6" width="38.553" height="53.976"/>
	<g>
		<rect x="42.502" y="15.512" fill="#EFC27B" width="38.555" height="53.976"/>
		<rect x="42.502" y="55.994" fill="#EFC27B" width="30.844" height="13.494"/>
	</g>
	<g>
		<rect x="27.08" y="42.5" fill="#F7E3C6" width="30.844" height="13.494"/>
		<rect x="27.08" y="15.512" fill="#F7E3C6" width="30.844" height="13.494"/>
	</g>
	<g>
		<rect x="42.502" y="15.512" fill="#F4D8AA" width="15.422" height="13.494"/>
		<rect x="42.502" y="42.5" fill="#F4D8AA" width="15.422" height="13.494"/>
	</g>
	<rect x="3.947" y="15.512" fill="#EFC27B" width="23.131" height="13.494"/>
	<rect x="57.922" y="15.512" fill="#ECB45C" width="23.133" height="13.494"/>
	<rect x="3.947" y="42.5" fill="#EFC27B" width="23.131" height="13.494"/>
	<rect x="57.922" y="42.5" fill="#ECB45C" width="23.133" height="13.494"/>
	<g>
		<rect x="73.344" y="55.994" fill="#E9A440" width="7.711" height="13.494"/>
		<rect x="73.344" y="29.006" fill="#E9A440" width="7.711" height="13.494"/>
	</g>
	<rect x="11.658" y="55.994" fill="#F4D8AA" width="30.842" height="13.494"/>
	<rect x="42.502" y="29.006" fill="#EFC27B" width="30.844" height="13.494"/>
	<rect x="11.658" y="29.006" fill="#F4D8AA" width="30.842" height="13.494"/>
	<path fill="#2E2D31" d="M81.055,14.066H3.947c-0.8,0-1.447,0.647-1.447,1.446v53.976c0,0.799,0.647,1.445,1.447,1.445h77.107
		c0.799,0,1.445-0.646,1.445-1.445V15.512C82.502,14.713,81.854,14.066,81.055,14.066z M59.369,54.547V43.945h20.24v10.602H59.369z
		 M28.525,54.547V43.945h27.953v10.602H28.525z M5.393,54.547V43.945h20.24v10.602H5.393z M41.055,30.452v10.604H13.104V30.452
		H41.055z M71.898,30.452v10.604H43.947V30.452H71.898z M79.609,30.452v10.604h-4.818V30.452H79.609z M10.213,41.053H5.394V30.451
		h4.819V41.053z M79.609,27.56h-20.24V16.958h20.24V27.56z M56.477,16.958V27.56H28.525V16.958H56.477L56.477,16.958z
		 M25.633,16.958V27.56H5.393V16.958H25.633L25.633,16.958z M5.393,57.439h4.818v10.604H5.393V57.439z M13.104,57.439h27.951v10.604
		H13.104V57.439z M43.947,68.041V57.439h27.951v10.604H43.947V68.041z M74.791,68.041V57.439h4.818v10.604h-4.818V68.041z"/>
</g>
</svg>
