<?xml version="1.0" encoding="utf-8"?>
<!-- Generator: Adobe Illustrator 16.0.0, SVG Export Plug-In . SVG Version: 6.00 Build 0)  -->
<!DOCTYPE svg PUBLIC "-//W3C//DTD SVG 1.1//EN" "http://www.w3.org/Graphics/SVG/1.1/DTD/svg11.dtd">
<svg version="1.1" id="Layer_1" xmlns="http://www.w3.org/2000/svg" xmlns:xlink="http://www.w3.org/1999/xlink" x="0px" y="0px"
	 width="85px" height="85px" viewBox="0 0 85 85" enable-background="new 0 0 85 85" xml:space="preserve">
<g>
	<path fill="#FCB539" d="M62.922,81.657c0-3.761-3.047-6.808-6.807-6.808H28.883c-3.76,0-6.807,3.047-6.807,6.808H62.922z"/>
	<path fill="#FCB539" d="M28.885,68.043h27.23v6.808h-27.23V68.043z M39.096,57.803h6.809v10.24h-6.809V57.803z M62.922,3.345
		H22.076v34.036c0,11.281,9.143,20.422,20.424,20.422c11.279,0,20.422-9.141,20.422-20.422V3.345z"/>
	<path fill="#010101" d="M62.922,82.501H49.309c-0.467,0-0.844-0.377-0.844-0.844c0-0.466,0.377-0.843,0.844-0.843h12.713
		c-0.412-2.892-2.902-5.122-5.906-5.122H28.887c-3.004,0-5.494,2.23-5.904,5.122h12.711c0.467,0,0.844,0.377,0.844,0.843
		c0,0.467-0.377,0.844-0.844,0.844H22.08c-0.465,0-0.844-0.377-0.844-0.844c0-4.219,3.432-7.649,7.65-7.649h27.229
		c4.219,0,7.65,3.432,7.65,7.649C63.766,82.124,63.389,82.501,62.922,82.501z M43.352,82.501H41.65
		c-0.467,0-0.844-0.377-0.844-0.844c0-0.466,0.377-0.843,0.844-0.843h1.701c0.467,0,0.844,0.377,0.844,0.843
		C44.195,82.124,43.816,82.501,43.352,82.501z"/>
	<path fill="#010101" d="M56.115,75.693h-27.23c-0.465,0-0.844-0.378-0.844-0.844v-6.808c0-0.465,0.379-0.844,0.844-0.844h9.369
		v-8.976c-4.062-0.818-7.797-2.811-10.793-5.807c-4.016-4.017-6.229-9.356-6.229-15.037V3.343c0-0.467,0.379-0.844,0.844-0.844
		h40.846c0.467,0,0.844,0.377,0.844,0.844v34.036c0,5.681-2.213,11.021-6.229,15.037c-2.996,2.996-6.729,4.986-10.791,5.807v8.976
		h9.369c0.465,0,0.842,0.379,0.842,0.844v6.808C56.957,75.315,56.58,75.693,56.115,75.693z M29.729,74.008h25.545v-5.121H29.729
		V74.008z M39.939,67.199h5.121v-8.555h-5.121V67.199z M42.5,56.96c5.23,0,10.146-2.037,13.846-5.734
		c3.697-3.697,5.734-8.614,5.734-13.845V4.188H22.92v33.193c0,5.229,2.035,10.146,5.734,13.845
		C32.352,54.924,37.27,56.96,42.5,56.96z"/>
	<path fill="#010101" d="M62.922,41.531c-0.426,0-0.789-0.318-0.838-0.751c-0.051-0.462,0.283-0.879,0.746-0.931
		c3.514-0.389,6.762-2.058,9.145-4.699c2.398-2.661,3.721-6.101,3.721-9.684s-1.322-7.021-3.723-9.685
		c-2.381-2.642-5.627-4.311-9.143-4.699c-0.463-0.053-0.797-0.469-0.746-0.932c0.051-0.464,0.467-0.797,0.932-0.746
		c3.928,0.437,7.553,2.301,10.211,5.248c2.68,2.973,4.154,6.812,4.154,10.812s-1.477,7.841-4.154,10.812
		c-2.658,2.949-6.285,4.812-10.211,5.247C62.984,41.529,62.951,41.531,62.922,41.531z M22.078,41.531
		c-0.031,0-0.061-0.002-0.094-0.005c-3.928-0.435-7.555-2.298-10.211-5.247c-2.68-2.972-4.154-6.812-4.154-10.812
		s1.475-7.841,4.154-10.812c2.656-2.947,6.283-4.812,10.211-5.248c0.463-0.051,0.879,0.282,0.932,0.746
		c0.051,0.463-0.283,0.879-0.746,0.932c-3.516,0.39-6.764,2.059-9.145,4.699c-2.398,2.662-3.721,6.102-3.721,9.685
		s1.32,7.021,3.721,9.684c2.381,2.643,5.629,4.312,9.145,4.699c0.463,0.052,0.797,0.469,0.746,0.931
		C22.867,41.213,22.502,41.531,22.078,41.531z"/>
	<path fill="#E9E4F2" d="M28.885,15.575h27.23v13.199h-27.23V15.575z"/>
	<path fill="#010101" d="M56.115,29.618h-27.23c-0.465,0-0.844-0.378-0.844-0.844V15.575c0-0.466,0.379-0.844,0.844-0.844h27.23
		c0.465,0,0.842,0.378,0.842,0.844v13.199C56.957,29.24,56.58,29.618,56.115,29.618z M29.729,27.932h25.545V16.418H29.729V27.932z"
		/>
</g>
</svg>
