<?xml version="1.0" encoding="utf-8"?>
<!-- Generator: Adobe Illustrator 16.0.0, SVG Export Plug-In . SVG Version: 6.00 Build 0)  -->
<!DOCTYPE svg PUBLIC "-//W3C//DTD SVG 1.1//EN" "http://www.w3.org/Graphics/SVG/1.1/DTD/svg11.dtd">
<svg version="1.1" id="Layer_1" xmlns="http://www.w3.org/2000/svg" xmlns:xlink="http://www.w3.org/1999/xlink" x="0px" y="0px"
	 width="85px" height="85px" viewBox="0 0 85 85" enable-background="new 0 0 85 85" xml:space="preserve">
<g>
	<path fill="#B8CBCD" d="M74.481,74.324c0,4.375-14.096,8.176-31.758,8.176c-17.664,0-32.205-3.801-32.205-8.176
		c0-4.379,14.318-7.926,31.98-7.926S74.481,69.945,74.481,74.324z"/>
	<polyline fill="#FFBAB0" points="49.163,22.578 49.163,74.896 21.749,74.896 21.749,22.578 	"/>
	<path fill="#783741" d="M49.433,76.344H21.925c-0.74,0-1.525-0.482-1.525-1.223V22.789c0-0.742,0.611-1.344,1.352-1.344
		c0.742,0,1.352,0.602,1.352,1.344v50.852h24.904V22.789c0-0.742,0.514-1.344,1.254-1.344c0.742,0,1.256,0.602,1.256,1.344v52.332
		C50.515,75.859,50.175,76.344,49.433,76.344z"/>
	<polyline fill="#FFBAB0" points="28.411,12.539 28.411,4.432 53.218,4.432 53.218,12.539 	"/>
	<path fill="#783741" d="M53.313,14.066c-0.74,0-1.352-0.602-1.352-1.342V5.879H29.761v6.846c0,0.74-0.609,1.342-1.352,1.342
		c-0.74,0-1.352-0.602-1.352-1.342V4.674c0-0.742,0.834-1.498,1.576-1.498h24.822c0.742,0,1.207,0.756,1.207,1.498v8.051
		C54.665,13.465,54.056,14.066,53.313,14.066z"/>
	<polyline fill="#FFBAB0" points="21.925,22.695 28.636,12.539 40.712,12.539 52.116,12.539 49.433,22.648 	"/>
	<path fill="#783741" d="M21.925,24.131c-0.256,0-0.516-0.074-0.744-0.227c-0.615-0.412-0.781-1.244-0.371-1.859l6.709-10.064
		c0.412-0.617,1.244-0.785,1.861-0.373c0.615,0.412,0.781,1.244,0.371,1.861l-6.709,10.062
		C22.782,23.92,22.356,24.131,21.925,24.131z"/>
	<polyline fill="#FFBAB0" points="59.878,17.943 59.878,70.424 49.163,75.121 49.163,22.578 	"/>
	<path fill="#783741" d="M49.433,76.463c-0.258,0-0.555-0.074-0.777-0.221c-0.379-0.246-0.648-0.67-0.648-1.121V22.789
		c0-0.742,0.514-1.344,1.254-1.344c0.742,0,1.256,0.602,1.256,1.344v50.279l8.203-3.521V18.092c0-0.742,0.562-1.342,1.305-1.342
		c0.74,0,1.303,0.6,1.303,1.342v52.332c0,0.533-0.225,1.016-0.711,1.229L49.927,76.35C49.753,76.424,49.616,76.463,49.433,76.463z"
		/>
	<polyline fill="#FFBAB0" points="49.433,22.789 53.46,11.383 53.46,11.383 60.169,18.092 	"/>
	<path fill="#783741" d="M49.433,24.131c-0.148,0-0.299-0.025-0.447-0.076c-0.697-0.246-1.064-1.014-0.816-1.713l4.025-11.406
		c0.152-0.434,0.52-0.76,0.967-0.861c0.449-0.1,0.92,0.033,1.246,0.359l6.709,6.709c0.523,0.525,0.523,1.375,0,1.898
		s-1.373,0.523-1.896,0l-5.203-5.203l-3.318,9.396C50.505,23.785,49.985,24.131,49.433,24.131z"/>
	<rect x="21.749" y="40.725" fill="#FFFFFF" width="27.414" height="14.672"/>
	<path fill="#783741" d="M49.433,56.846H21.925c-0.74,0-1.525-0.441-1.525-1.182V40.902c0-0.74,0.785-1.529,1.525-1.529h27.508
		c0.742,0,1.082,0.789,1.082,1.529v14.762C50.515,56.404,50.175,56.846,49.433,56.846z M23.101,54.045h24.904V42.076H23.101V54.045z
		"/>
	<polygon fill="#FFFFFF" points="59.3,50.967 49.163,55.664 49.163,40.902 59.3,36.207 	"/>
	<path fill="#783741" d="M49.433,57.006c-0.252,0-0.545-0.07-0.764-0.211c-0.387-0.246-0.664-0.672-0.664-1.131V40.902
		c0-0.521,0.346-0.996,0.816-1.217l10.086-4.695c0.414-0.193,0.818-0.162,1.203,0.084c0.389,0.246,0.539,0.674,0.539,1.133v14.76
		c0,0.52-0.207,0.994-0.682,1.215L49.95,56.879C49.772,56.963,49.628,57.006,49.433,57.006z M50.515,41.758v11.799l7.434-3.443
		V38.314L50.515,41.758z"/>
	<path fill="#783741" d="M49.433,23.834H21.925c-0.74,0-1.342-0.562-1.342-1.305c0-0.74,0.602-1.303,1.342-1.303h27.508
		c0.742,0,1.342,0.562,1.342,1.303C50.774,23.271,50.175,23.834,49.433,23.834z"/>
	<path fill="#783741" d="M49.435,24.131c-0.52,0-1.012-0.301-1.23-0.805c-0.299-0.68,0.014-1.471,0.691-1.768l10.734-4.695
		c0.678-0.299,1.471,0.012,1.766,0.691c0.299,0.678-0.012,1.469-0.689,1.766l-10.734,4.697
		C49.796,24.094,49.614,24.131,49.435,24.131z"/>
	<path fill="#783741" d="M53.46,13.891H28.636c-0.742,0-1.342-0.611-1.342-1.352s0.6-1.352,1.342-1.352H53.46
		c0.74,0,1.34,0.609,1.34,1.352C54.8,13.279,54.2,13.891,53.46,13.891z"/>
	<path fill="#783741" d="M49.433,76.922H21.925c-1.111,0-2.201-0.689-2.201-1.801V22.789c0-0.398,0.094-0.787,0.312-1.117
		l6.348-9.559V4.674c0-1.113,1.141-2.174,2.252-2.174H53.46c1.111,0,1.785,1.061,1.785,2.174v5.875l6.096,6.119
		c0.377,0.377,0.564,0.889,0.564,1.424v52.332c0,0.801-0.336,1.521-1.066,1.844l-10.666,4.592
		C49.917,76.971,49.712,76.922,49.433,76.922z M23.681,72.867h25.332l8.936-3.76V18.924l-6.145-6.119
		c-0.377-0.377-0.613-0.889-0.613-1.422V6.457H30.437v6.268c0,0.396-0.141,0.785-0.361,1.117l-6.395,9.557V72.867z"/>
	
		<image overflow="visible" enable-background="new    " width="42" height="564" xlink:href="6A3321EE6D45A31D.png"  transform="matrix(0.0965 0 0 0.0965 55.2441 18.7158)">
	</image>
</g>
</svg>
