<?xml version="1.0" encoding="utf-8"?>
<!-- Generator: Adobe Illustrator 16.0.0, SVG Export Plug-In . SVG Version: 6.00 Build 0)  -->
<!DOCTYPE svg PUBLIC "-//W3C//DTD SVG 1.1//EN" "http://www.w3.org/Graphics/SVG/1.1/DTD/svg11.dtd">
<svg version="1.1" id="Layer_1" xmlns="http://www.w3.org/2000/svg" xmlns:xlink="http://www.w3.org/1999/xlink" x="0px" y="0px"
	 width="85px" height="85px" viewBox="0 0 85 85" enable-background="new 0 0 85 85" xml:space="preserve">
<g>
	<path fill="#F9D984" d="M54.788,19.31H30.099l-0.566,0.852c-0.313,0.471-0.28,1.088,0.082,1.523l9.428,11.299h6.805l9.428-11.299
		c0.361-0.436,0.396-1.053,0.082-1.523L54.788,19.31z"/>
	<polygon fill="#FDF276" points="37.335,20.952 41.331,32.983 43.556,32.983 47.552,20.952 	"/>
	<path fill="#FEFAC8" d="M55.354,20.159l-4.221-6.338c-0.24-0.359-0.646-0.576-1.082-0.576H34.836c-0.435,0-0.842,0.217-1.082,0.576
		l-4.222,6.338c-0.16,0.24-0.229,0.52-0.211,0.793h26.244C55.583,20.679,55.515,20.401,55.354,20.159z"/>
	<g>
		<path fill="#FDF276" d="M34.247,13.388c-0.196,0.098-0.368,0.246-0.493,0.434l-4.222,6.338c-0.16,0.24-0.229,0.52-0.211,0.793
			h9.965L34.247,13.388z"/>
		<path fill="#FDF276" d="M45.601,20.952h9.965c0.02-0.273-0.051-0.553-0.211-0.793l-4.221-6.338
			c-0.125-0.188-0.297-0.336-0.494-0.434L45.601,20.952z"/>
	</g>
	<polygon fill="#F9D984" points="42.437,13.245 37.304,20.952 47.583,20.952 42.45,13.245 	"/>
	<path opacity="0.1" enable-background="new    " d="M39.776,32.983c-2.442-4.146-6.699-11.299-6.699-11.299
		c-0.363-0.436-0.396-1.053-0.083-1.523l4.222-6.34c0.24-0.359,0.646-0.576,1.082-0.576h-3.463c-0.436,0-0.842,0.219-1.081,0.576
		l-4.222,6.34c-0.313,0.471-0.28,1.088,0.082,1.523l9.428,11.299H39.776L39.776,32.983z"/>
	<path fill="#BF953E" d="M48.685,36.124c0,0.457-0.373,0.83-0.83,0.83H37.033c-0.456,0-0.83-0.373-0.83-0.83v-4.062
		c0-0.455,0.374-0.828,0.83-0.828h10.821c0.457,0,0.83,0.373,0.83,0.828V36.124z"/>
	<path opacity="0.1" enable-background="new    " d="M39.624,36.124v-4.062c0-0.455,0.373-0.828,0.828-0.828h-3.42
		c-0.456,0-0.829,0.373-0.829,0.828v4.062c0,0.457,0.373,0.83,0.829,0.83h3.42C39.997,36.954,39.624,36.581,39.624,36.124z"/>
	<path fill="#EFBA50" d="M42.286,34.979c-12.799,0-23.176,10.346-23.176,23.107s10.375,23.105,23.176,23.105
		s23.178-10.344,23.178-23.105S55.087,34.979,42.286,34.979z M42.286,75.151c-9.438,0-17.115-7.654-17.115-17.062
		c0-9.41,7.678-17.066,17.115-17.066c9.439,0,17.117,7.656,17.117,17.066C59.403,67.497,51.726,75.151,42.286,75.151z"/>
	<g opacity="0.1">
		<path d="M22.483,58.089c0-12.197,9.479-22.186,21.49-23.047c-0.557-0.039-1.119-0.062-1.686-0.062
			c-12.801,0-23.178,10.346-23.178,23.107s10.377,23.105,23.178,23.105c0.566,0,1.129-0.02,1.686-0.061
			C31.962,80.272,22.483,70.284,22.483,58.089z"/>
	</g>
	<path d="M42.499,7.892c0.676,0,1.225-0.549,1.225-1.227V3.726c0-0.676-0.549-1.227-1.225-1.227s-1.225,0.549-1.225,1.227v2.939
		C41.274,7.343,41.823,7.892,42.499,7.892z"/>
	<path d="M21.218,26.167h2.95c0.677,0,1.226-0.549,1.226-1.225c0-0.678-0.549-1.225-1.226-1.225h-2.95
		c-0.676,0-1.225,0.549-1.225,1.225S20.541,26.167,21.218,26.167z"/>
	<path d="M60.829,26.167h2.949c0.678,0,1.227-0.549,1.227-1.225c0-0.678-0.549-1.225-1.227-1.225h-2.949
		c-0.676,0-1.225,0.549-1.225,1.225S60.153,26.167,60.829,26.167z"/>
	<path d="M55.462,13.243c0.311,0,0.625-0.117,0.863-0.355l2.086-2.08c0.479-0.479,0.479-1.254,0.002-1.732s-1.252-0.479-1.73-0.002
		l-2.086,2.08c-0.479,0.479-0.48,1.252-0.002,1.73C54.833,13.124,55.147,13.243,55.462,13.243z"/>
	<path d="M28.672,12.886c0.239,0.238,0.552,0.357,0.864,0.357c0.314,0,0.628-0.121,0.867-0.359c0.478-0.48,0.476-1.254-0.002-1.732
		l-2.086-2.08c-0.479-0.477-1.254-0.477-1.732,0.002c-0.479,0.48-0.477,1.254,0.002,1.732L28.672,12.886z"/>
	<path d="M31.88,46.005c0.508-0.447,0.555-1.223,0.107-1.729c-0.446-0.508-1.221-0.557-1.729-0.107
		c-3.97,3.504-6.246,8.535-6.246,13.805c0,10.164,8.293,18.434,18.484,18.434c10.193,0,18.486-8.27,18.486-18.434
		S52.69,39.538,42.497,39.538c-2.979,0-5.941,0.729-8.566,2.104c-0.6,0.312-0.83,1.053-0.518,1.652s1.054,0.83,1.652,0.518
		c2.277-1.193,4.848-1.822,7.432-1.822c8.844,0,16.037,7.17,16.037,15.984s-7.193,15.984-16.037,15.984
		c-8.842,0-16.036-7.17-16.036-15.984C26.461,53.405,28.437,49.044,31.88,46.005z"/>
	<path d="M49.866,34.569v-2.936c0-0.525-0.201-1.004-0.527-1.367l6.729-8.064c0.709-0.852,0.773-2.041,0.16-2.963l-4.156-6.24
		c-0.465-0.695-1.244-1.111-2.084-1.111H35.011c-0.841,0-1.619,0.416-2.082,1.113l-4.156,6.24c-0.615,0.92-0.549,2.111,0.16,2.961
		l6.729,8.066c-0.328,0.361-0.529,0.84-0.529,1.365v2.936c-9.976,3.129-17.231,12.439-17.231,23.404
		c0,13.523,11.035,24.527,24.6,24.527c5.074,0,9.945-1.527,14.088-4.42c0.555-0.387,0.689-1.148,0.303-1.703
		c-0.387-0.557-1.148-0.691-1.703-0.305c-3.729,2.604-8.117,3.979-12.688,3.979c-12.213,0-22.148-9.904-22.148-22.078
		s9.936-22.078,22.148-22.078S64.649,45.8,64.649,57.974c0,5.922-2.32,11.482-6.533,15.658c-0.48,0.477-0.482,1.252-0.008,1.73
		c0.477,0.48,1.25,0.484,1.73,0.008c4.682-4.639,7.26-10.816,7.26-17.396C67.097,47.007,59.841,37.698,49.866,34.569z M46.71,29.593
		h-0.848l0.428-1.287c0.215-0.643-0.135-1.334-0.775-1.547s-1.334,0.133-1.549,0.775l-0.684,2.059h-1.566l-2.549-7.668h0.225h6.215
		h0.223l-0.576,1.742c-0.215,0.643,0.133,1.334,0.773,1.549c0.129,0.043,0.258,0.062,0.387,0.062c0.514,0,0.992-0.326,1.162-0.84
		l0.834-2.514h4.699L46.71,29.593z M50.665,15.312l2.303,3.455l0.471,0.707h-5.225l-0.16-0.24L50.665,15.312z M48.372,14.339
		l-1.791,2.686l-1.789-2.686H48.372z M45.271,19.474h-5.545l2.771-4.162L45.271,19.474z M40.204,14.339l-1.789,2.686l-1.79-2.686
		H40.204z M34.331,15.312l2.613,3.922l-0.162,0.24h-5.225L34.331,15.312z M31.888,21.923h4.699l2.549,7.67h-0.849L31.888,21.923z
		 M47.415,33.938c-1.588-0.324-3.232-0.494-4.916-0.494s-3.328,0.17-4.918,0.494v-1.896h9.834V33.938L47.415,33.938z"/>
	<path opacity="0.1" enable-background="new    " d="M33.226,21.419c-0.357-0.428-0.391-1.035-0.082-1.498l2.836-4.26l-1.604-2.408
		l0,0c-0.192,0.098-0.362,0.242-0.485,0.428l-4.156,6.24c-0.308,0.463-0.274,1.07,0.082,1.498l7.843,9.398h3.118l-0.191-0.578
		L33.226,21.419z"/>
</g>
</svg>
