<?xml version="1.0" encoding="utf-8"?>
<!-- Generator: Adobe Illustrator 16.0.0, SVG Export Plug-In . SVG Version: 6.00 Build 0)  -->
<!DOCTYPE svg PUBLIC "-//W3C//DTD SVG 1.1//EN" "http://www.w3.org/Graphics/SVG/1.1/DTD/svg11.dtd">
<svg version="1.1" id="Layer_1" xmlns="http://www.w3.org/2000/svg" xmlns:xlink="http://www.w3.org/1999/xlink" x="0px" y="0px"
	 width="85px" height="85px" viewBox="0 0 85 85" enable-background="new 0 0 85 85" xml:space="preserve">
<g>
	<path fill="#433C4F" d="M59.164,62.499c0-3.684-2.98-6.666-6.666-6.666H32.5c-3.684,0-6.668,2.982-6.668,6.666H59.164z"/>
	<path fill="#433C4F" d="M39.164,49.166h6.668v6.668h-6.668V49.166z"/>
	<path fill="#7EC680" d="M75.83,9.166c0-1.769-0.701-3.463-1.953-4.713c-1.25-1.25-2.943-1.953-4.713-1.953h-53.33
		c-1.77,0-3.465,0.703-4.715,1.953S9.168,7.398,9.168,9.166V42.5c0,3.681,2.984,6.664,6.666,6.665h53.33
		c1.77,0,3.463-0.702,4.713-1.953c1.25-1.249,1.953-2.944,1.955-4.712L75.83,9.166L75.83,9.166z"/>
	<path fill="#E9E8E9" d="M15.834,9.166h53.33V42.5h-53.33V9.166z"/>
	<path fill="#7EC680" d="M9.168,69.166h66.664V82.5H9.168V69.166z"/>
	
		<path fill="none" stroke="#010101" stroke-width="1.5171" stroke-linecap="round" stroke-linejoin="round" stroke-miterlimit="10" d="
		M26.115,60.565c-0.188,0.627-0.283,1.278-0.283,1.934h33.332c0-3.684-2.98-6.666-6.666-6.666H32.5
		c-1.215,0-2.354,0.321-3.334,0.893 M45.832,49.166h-6.666v6.668h6.666V49.166z M43.332,2.5h-1.666 M35.832,2.5H15.834
		c-1.77,0-3.465,0.703-4.715,1.953S9.168,7.398,9.168,9.166v20 M9.168,35.834v6.667c0,3.681,2.984,6.664,6.666,6.665h53.33
		c1.77,0,3.463-0.702,4.713-1.953c1.25-1.249,1.953-2.944,1.955-4.712v-6.667 M75.83,29.167V9.166c0-1.768-0.701-3.463-1.953-4.711
		c-1.25-1.252-2.943-1.953-4.713-1.953H49.166 M69.164,9.166h-53.33V42.5h53.33V9.166z M9.168,82.5h66.664V69.168H9.168V82.5z
		 M59.164,59.166h1.381c2.287,0,4.48,0.905,6.098,2.521c1.615,1.617,2.521,3.812,2.521,6.098v1.38 M15.834,69.165V82.5 M22.5,69.165
		V82.5 M29.166,69.165V82.5 M35.832,69.165V82.5 M42.498,69.165V82.5 M49.166,69.165V82.5 M55.832,69.165V82.5 M62.498,69.165V82.5
		 M69.164,69.165V82.5 M75.83,75.833H9.168"/>
</g>
</svg>
