<?xml version="1.0" encoding="utf-8"?>
<!-- Generator: Adobe Illustrator 16.0.0, SVG Export Plug-In . SVG Version: 6.00 Build 0)  -->
<!DOCTYPE svg PUBLIC "-//W3C//DTD SVG 1.1//EN" "http://www.w3.org/Graphics/SVG/1.1/DTD/svg11.dtd">
<svg version="1.1" id="Layer_1" xmlns="http://www.w3.org/2000/svg" xmlns:xlink="http://www.w3.org/1999/xlink" x="0px" y="0px"
	 width="85px" height="85px" viewBox="0 0 85 85" enable-background="new 0 0 85 85" xml:space="preserve">
<g>
	<path fill="#010101" d="M13.25,2.5c19.7,0,39.401,0,59.101,0c0.798,0.198,1,0.7,1,1.5c0,2.2,0,4.399,0,6.6
		c0,1.099-0.499,1.602-1.601,1.602c-0.899-0.301-1.2-0.701-1.303-1.701c0-1.398,0-2.801,0-4.101c0-1.3,0-1.3-1.298-1.3
		c-6.3,0-12.5,0-18.8,0c-9.301,0-18.6,0-27.901,0c-0.3,0-0.599,0-0.899,0c-1.801,0.1-3.6,0-5.5,0c-1,0-1,0.1-1,1.001
		c0,6.398,0,12.899,0,19.299c0,0.3-0.101,0.8,0.3,0.899c0.499,0.2,1,0.2,1.5,0c0.198-0.1,0.198-0.301,0.198-0.499
		c0-0.3,0-0.601,0-0.901c0-5.098,0-10.098,0-15.198c0-0.3,0-0.701,0-1c0.1-1.202,0.601-1.703,1.701-1.801c0.899,0,1.801,0,2.7,0
		c2.3-0.101,4.6,0,6.899,0c3.001,0,5.902,0,8.9,0c1.5,0,2.001,0.499,2.001,2c0,6.1,0,12.201,0,18.301c0,0.799-0.101,1.5-0.902,1.799
		c-0.398,0.102-0.799,0.102-1.2,0.102c-3.099,0-6.198,0-9.399,0c-0.301,0-0.601-0.102-0.899,0.198c0.899,0.899,1.498,2,3.099,1.901
		c1.601-0.101,3.301-0.101,4.9,0c1.1,0,1.5,0.398,1.801,1.4c-0.102,0.999-0.5,1.398-1.5,1.398c-2.3,0-4.6,0-6.901,0
		c-0.599,0-1.001-0.298-1.398-0.7c-1.102-1.099-2.202-2.201-3.401-3.4c-0.301-0.301-0.499-0.599-0.899-0.7
		c-0.301-0.199-0.699-0.098-1.002-0.098c-3.399,0-6.799,0.098-10.198,0c-1.3,0-1.3,0-1.3,1.299c0,14.299,0,28.599,0,42.999
		c0,0.901,0,1.801,0,2.7c0.1,2.202,1.498,3.602,3.699,3.702c1.5,0,2.899,0,4.398,0c2.102,0,4.101,0,6.202,0
		c13.5,0,26.901,0,40.401,0c0.198,0,0.498,0,0.698,0c1.002,0,1.002,0,0.602-0.901c-0.4-0.899-0.499-1.901-0.499-2.9
		c0-13.399,0-26.8,0-40.199C65.55,33.9,65.648,34,63.749,34c-7.399,0-14.8,0-22.2,0c-0.4,0-0.801,0-1.2,0
		c-0.901-0.1-1.2-0.401-1.4-1.301c0.098-0.899,0.499-1.299,1.4-1.499c0.398-0.101,0.699,0,1.1,0c8.099,0,16.098,0,24.199,0
		c0.198,0,0.4,0,0.601,0c1.4,0.1,1.999,0.599,1.999,1.999c0,0.4,0,0.701,0,1.1c0,12.9,0,25.802,0,38.702c0,0.298,0,0.497,0,0.797
		c0,1.002,0.602,1.501,1.601,1.2c0.301-0.101,0.4-0.299,0.4-0.499c0-0.301,0-0.599,0-0.899c0-18.7,0-37.5,0-56.201
		c0-0.498,0-1,0-1.5c0.198-0.899,0.399-1.199,1.501-1.4c0.999,0.302,1.3,0.602,1.3,1.602c0,1.5,0,2.901,0,4.401
		c0,1,0.099,1.1,1.1,1.1c0.6,0,1.2,0,1.899,0c1.302,0,1.801,0.599,1.901,1.899c0,0.1,0,0.2,0,0.298c0,17.5,0,35.103,0,52.603
		c0,2.397-1.099,4.198-3.1,5.501c-0.699,0.398-1.4,0.398-2.199,0.599c-20.2,0-40.301,0-60.501,0c-3.399-0.802-5.1-2.9-5.1-6.5
		c0-15.6,0-31.301,0-46.899c0-0.201,0-0.501,0-0.703c0-1.3,0.6-1.797,1.901-1.899c0.699,0,1.4,0,2.1,0c0.601,0,0.9-0.202,0.9-0.901
		c0-1.5,0-2.999,0-4.5c0-5.4,0-10.8,0-16.2c0-0.301,0-0.701,0-1C12.25,3.199,12.451,2.699,13.25,2.5z"/>
	<path fill="#FFE07E" d="M39.25,32.798c0.2,1.001,0.5,1.101,1.601,1.101c8.001,0,16.001,0,24,0c1.1,0,1-0.102,1,1
		c0,13.6,0,27.299,0,40.899c0,1.501,0.2,2.901,1.1,4.101c-0.099,0.201-0.299,0.201-0.4,0.201c-16,0-32.1,0-48.099,0
		c-0.1,0-0.198,0-0.198,0c-1.301-0.602-1.601-1.701-1.801-2.901c-0.1-0.4,0-0.799,0-1.199c0-15.103,0-30.102,0-45.201
		c0-1.698,0-1.698,1.699-1.698c1.601,0,3.201-0.101,4.802,0.098c1.4,1.399,2.798,2.701,4.099,4.101c0.501,0.499,0.901,0.7,1.601,0.7
		c2.202,0,4.401,0,6.5,0c0.801,0,1.302-0.298,1.4-1.099C37.451,32.4,38.351,32.4,39.25,32.798z"/>
	<path fill="#EAF0F9" d="M71.852,11.999c0,0.902,0,1.8,0,2.702c-0.5,0.199-1.001,0.401-1.102,1.099c-0.1,0.3-0.1,0.601-0.1,0.899
		c0,19.101,0,38.201,0,57.301c0,0.198,0,0.401,0,0.499c0,0.2,0.1,0.602-0.299,0.602c-0.4,0.098-0.501-0.301-0.501-0.602
		c-0.1-0.398,0-0.799,0-1.2c0-14,0-27.898,0-41.9c0-1.699,0.101-1.6-1.601-1.6c-12.399,0-24.8,0-37.201,0c-0.499,0-0.899,0-1.4-0.1
		c-0.296-0.102-0.497-0.3-0.497-0.599c0.098-0.304,0.398-0.101,0.497-0.101c2.6,0,5.102,0,7.702,0c0.301,0,0.599,0,0.899,0
		c0.701-0.301,0.902-0.801,0.902-1.4c0-6.302,0-12.6,0-18.9c0-1.001-0.403-1.4-1.5-1.4c-5.102,0-10.102,0-15.201,0
		c-0.3,0-0.599,0-0.901,0c-0.398-0.799-0.398-1.601,0-2.5c0.303,0,0.501,0,0.801,0c15.797,0,31.699,0,47.498,0
		c0.8,0,0.901,0.199,0.901,0.899c-0.102,1.601,0,3.099,0,4.7C70.65,11.298,70.95,11.8,71.852,11.999z"/>
	<path fill="#FFD066" d="M22.85,29.2c-1.801,0-3.6,0-5.401,0c-0.7,0-0.899,0.201-0.899,0.9c0,13.4,0,26.899,0,40.3
		c0,1.801,0.102,3.6,0,5.499c-0.1,1.701,0.301,3.101,1.599,4.299c-1.599,0-3.097,0.101-4.697,0c-2-0.098-3.501-1.599-3.602-3.6
		c0-1,0-1.999,0-2.999c0-14.501,0-29.102,0-43.601c0-0.7,0.201-0.898,0.901-0.898c3.8,0,7.598,0,11.3,0
		C22.351,29.102,22.651,29,22.85,29.2z"/>
	<path fill="#D7E4F4" d="M38.25,29.102c-0.2,0.197-0.499,0.098-0.799,0.098c-2.399,0-4.899,0-7.299,0c-0.301,0-0.501,0-0.799,0
		c0.198,0.601,0.699,0.501,1,0.501c4.499,0,8.9,0,13.399,0c8.5,0,16.999,0,25.499,0c0.701,0,1.001,0.199,1.001,1
		c0,14.499,0,28.998,0,43.5c0,0.298-0.2,0.899,0.199,0.899c0.5,0,0.2-0.602,0.2-1c0-19.101,0-38.201,0-57.301
		c0-0.299-0.101-0.7,0.1-1c0,0.3,0,0.499,0,0.801c0,19.298,0,38.598,0,57.898c0,0.699-0.1,0.901-0.899,0.901
		c-1.601-0.102-1.601,0-1.601-1.7c0-13.401,0-26.901,0-40.301c0-1.4-0.4-1.799-1.7-1.799c-8.5,0-17,0-25.499,0
		c-1.1,0-1.4,0.198-1.699,1.198c-0.901,0-1.801,0-2.7,0c-0.201-0.897-0.501-1.198-1.5-1.198c-1.901,0-3.8,0-5.799,0
		c-0.401,0-0.701-0.101-1.001-0.401c-0.599-0.602-1.3-1.302-2-1.901c0-0.101,0.1-0.101,0.1-0.198
		C30.352,29.102,34.25,29.102,38.25,29.102z"/>
	<path fill="#7BD2F2" d="M21.549,9.701c4.902,0,9.802,0,14.702,0c0.401,0,0.499,0.1,0.499,0.498c0,5.303,0,10.701,0,16.002
		c0,0.402-0.101,0.498-0.499,0.498c-3.201,0-6.5,0-9.702,0c-0.499-0.198-0.899-0.498-1.198-0.899
		c-0.403-0.5-1.001-0.699-1.701-0.699c-0.501,0-1,0-1.5,0c-0.601,0-0.899-0.3-0.899-0.901c0-0.198,0-0.299,0-0.499
		c0-4.299,0-8.6,0-12.9C21.251,10.401,21.151,10,21.549,9.701z"/>
	<path fill="#FAC612" d="M68.45,77.601c1.098,0,2.1,0,3.1,0c1.1,0,1.5-0.401,1.5-1.501c0-4.699,0-9.499,0-14.198
		c0-12.302,0-24.502,0-36.801c0-0.7,0.2-0.901,0.899-0.901c1.601,0.1,1.601,0,1.601,1.601c0,16.701,0,33.5,0,50.201
		c0,2.099-1.1,3.6-3.099,3.998C70.851,80.4,69.05,79.401,68.45,77.601z"/>
	<path fill="#D7E4F4" d="M21.549,4.9c0,0.799,0,1.601,0,2.5c-0.899,0-1.699,0-2.598,0c-1.2,0-1.601,0.4-1.601,1.601
		c0,5.599,0,11.3,0,16.9c0,0.601-0.102,0.9-0.801,0.9c-1.699-0.1-1.699,0-1.699-1.7c0-6.5,0-13,0-19.4c0-0.6,0.1-0.799,0.799-0.799
		C17.549,4.9,19.55,4.801,21.549,4.9z"/>
	<path fill="#73B1E0" d="M21.549,9.701c0,4.798,0,9.598,0,14.399c0,0.601,0.201,0.9,0.801,0.8c0.1,0,0.199,0,0.301,0
		c1.799-0.402,2.9,0.501,3.898,1.9c-2.099,0-4.299,0-6.398,0c-0.401,0-0.501-0.101-0.501-0.5c0-5.401,0-10.701,0-16.1
		c0-0.399,0.2-0.499,0.601-0.499C20.65,9.701,21.051,9.701,21.549,9.701z"/>
	<path fill="#010101" d="M51.251,60.4c1,0.301,1.2,0.6,1.2,1.599c0,2.302,0,4.503,0,6.801c0,1.1-0.401,1.501-1.501,1.501
		c-7.099,0-14.2,0-21.2,0c-1.1,0-1.5-0.401-1.5-1.501c0-5.498,0-10.899,0-16.398c0-1.001,0.401-1.399,1.5-1.501
		c0.1,0,0.198,0,0.198,0c0.601-0.099,1.502,0.302,1.801-0.099C32.05,50.4,31.852,49.6,31.852,49
		c-0.102-2.001,0.098-4.101,1.098-5.901c1.901-3.298,5.799-4.998,9.401-4.098c3.8,1,6.398,4.201,6.501,8.301c0,1,0,2.101,0,3.099
		c0,0.401,0.1,0.6,0.5,0.499c0.6,0,1.198,0,1.899,0c0.799,0,1.2,0.501,1.2,1.2c0,1.4,0,2.8,0,4.101c0,0.701-0.401,1.1-1,1.3
		c-1.001,0.101-1.5-0.198-1.603-1.2c-0.1-0.599,0-1.3,0-1.898c0-0.604-0.2-0.901-0.899-0.901c-1.2,0-2.3,0-3.499,0
		c-3.801,0-7.5,0-11.301,0c-0.801,0.102-1.701,0-2.5,0c-0.601,0-0.901,0.2-0.901,0.799c0,4.101,0,8.302,0,12.399
		c0,0.602,0.301,0.802,0.799,0.802c0.801,0,1.701,0,2.5,0c4.501-0.103,9.101,0,13.602,0c0.4,0,0.799,0,1.2,0
		c0.599,0,0.799-0.2,0.799-0.802c0-1.5,0-2.998,0-4.499c0-0.4,0-0.799,0.101-1.199C50.151,60.599,50.55,60.4,51.251,60.4z"/>
	<path fill="#89C761" d="M51.251,60.4c-0.899,0.198-1.2,0.701-1.2,1.599c0,1.801,0,3.6,0,5.402c0,0.299,0,0.602-0.498,0.602
		c-5.201,0-10.303,0-15.503,0c-0.298-0.303-0.298-0.701-0.298-1.004c0-4.198,0-8.297,0-12.5c0-0.398,0-0.701,0.298-0.999
		c3.802,0,7.502,0,11.302,0c1.4,0,2.7,0,4.099,0c0.4,0,0.601,0.102,0.601,0.601c0,0.799,0,1.498,0,2.3c0,1.1,0.301,1.398,1.301,1.5
		c-0.399,0.6-0.101,1.198-0.198,1.799C51.15,59.802,51.251,60.103,51.251,60.4z"/>
	<path fill="#010201" d="M57.249,14.499c-3.098,0-6.2,0-9.399,0c-1,0-1.5-0.399-1.5-1.199c0-0.7,0.5-1.099,1.5-1.099
		c6.302,0,12.502,0,18.8,0c0.899,0,1.499,0.498,1.499,1.198c0,0.701-0.6,1.1-1.499,1.1C63.551,14.499,60.45,14.499,57.249,14.499z"
		/>
	<path fill="#020202" d="M57.249,19.401c-3.098,0-6.2,0-9.399,0c-1,0-1.5-0.4-1.5-1.202c0-0.699,0.5-1.2,1.5-1.2
		c6.302,0,12.502,0,18.8,0c0.899,0,1.499,0.501,1.499,1.2c0,0.701-0.6,1.1-1.499,1.1C63.551,19.401,60.45,19.401,57.249,19.401z"/>
	<path fill="#020202" d="M57.249,24.2c-3.098,0-6.301,0-9.399,0c-0.701,0-1.2-0.199-1.398-1c-0.102-0.699,0.299-1.2,1-1.399
		c0.2,0,0.499,0,0.699,0c6.1,0,12.201,0,18.301,0c0.2,0,0.4,0,0.499,0c0.701,0.101,1.2,0.6,1.2,1.201c0,0.6-0.499,1.099-1.2,1.099
		C63.749,24.2,60.55,24.2,57.249,24.2L57.249,24.2z"/>
	<path fill="#040405" d="M42.751,14.499c-0.701,0-1.2-0.499-1.2-1.199c0-0.601,0.499-1.2,1.2-1.2c0.599,0,1.1,0.5,1.1,1.099
		C43.951,14,43.45,14.499,42.751,14.499z"/>
	<path fill="#040404" d="M43.951,18.199c0,0.701-0.501,1.202-1.2,1.1c-0.701,0-1.2-0.501-1.1-1.2c0-0.599,0.599-1.1,1.1-1.1
		C43.351,16.999,43.951,17.6,43.951,18.199z"/>
	<path fill="#040405" d="M43.951,23.001c0,0.701-0.501,1.199-1.1,1.199c-0.701,0-1.2-0.498-1.2-1.199c0-0.601,0.499-1.1,1.1-1.201
		C43.351,21.901,43.852,22.4,43.951,23.001z"/>
	<path fill="#010101" d="M28.25,24.2c-1.601,0-3.099,0-4.699,0c-0.899,0-1.4-0.498-1.4-1.399c0.1-1.999,0.701-3.8,2.5-5
		c0.401-0.2,0.3-0.4,0.2-0.701c-0.801-1.997,0.301-4.198,2.4-4.799c1.4-0.399,2.6,0,3.5,1c1.002,1,1.3,2.3,0.799,3.699
		c-0.198,0.501-0.098,0.7,0.303,1.002c1.799,1.3,2.398,3.099,2.3,5.198c0,0.701-0.501,1-1.202,1C31.349,24.2,29.75,24.2,28.25,24.2z
		"/>
	<path fill="#78C052" d="M34.152,53.399c0,4.8,0,9.699,0,14.501c-1.004,0-2.001,0-3.001,0c-0.401,0-0.601-0.102-0.601-0.501
		c0-4.499,0-9.098,0-13.602c0-0.398,0.2-0.496,0.601-0.496C32.15,53.399,33.148,53.399,34.152,53.399z"/>
	<path fill="#EAF0F9" d="M43.05,45c-1.899-1.7-4-1.601-5.499,0c-0.699,0.701-0.799,1.601-0.899,2.601c0,1.1,0.1,2.2-0.103,3.299
		c-0.398,0.2-0.599,0-0.599-0.398c-0.103-2.802-0.401-5.701,1.701-8.101c0.398-0.499,0.899-0.899,1.5-1.1
		c2.7-0.799,6.097,1.2,6.999,4.201c0.101,0.399,0.199,0.799,0.199,1.2c0.102,1.397,0.102,2.798,0,4.101l0,0
		c-0.499,0.198-0.6-0.101-0.701-0.501c-0.099-0.701,0-1.399,0-2.202c0-1.999-0.399-2.499-2.2-3.098
		C43.25,45.103,43.148,45.103,43.05,45z"/>
	<path fill="#D7E3F3" d="M39.152,41.4c-2.001,1.601-3.101,3.6-3.001,6.299c0,0.901,0,1.8,0,2.601c0,0.3,0,0.6,0.499,0.6
		c-0.699,0.302-1.398,0-2.101,0.101c-0.198,0-0.298-0.101-0.298-0.299c0.1-1.801-0.301-3.5,0.298-5.2
		C35.251,43.3,36.75,41.8,39.152,41.4z"/>
	<path fill="#D6E2F2" d="M43.05,45c1.601-0.3,3.001,1.3,2.801,2.799c-0.101,0.801,0,1.699,0,2.501c0,0.3,0,0.6,0.499,0.6
		c-0.701,0.2-1.4,0.101-2.1,0.101c-0.4,0-0.301-0.299-0.301-0.6c0-0.901,0-1.8,0-2.701C43.951,46.698,43.65,45.799,43.05,45z"/>
	<path fill="#FEDF7E" d="M41.551,48.9c0,0.1,0,0.201,0,0.3c0,2.001,0,2.001-2.001,1.8c-0.3,0-0.398-0.101-0.398-0.499
		c0-1.099,0-2.201,0-3.3c0-0.701,0.599-1.201,1.2-1.201c0.599,0,1.2,0.5,1.2,1.201C41.551,47.799,41.551,48.399,41.551,48.9
		L41.551,48.9z"/>
	<path fill="#D6E2F2" d="M46.35,50.899c0-1.4,0-2.801,0-4.1C46.55,48.199,46.55,49.499,46.35,50.899z"/>
	<path fill="#010201" d="M43.951,59.099c-0.1,1.402-0.701,2.502-1.901,3.201c-0.401,0.2-0.599,0.4-0.499,0.899
		c0,0.301,0,0.599,0,0.899c-0.1,0.703-0.601,1.1-1.2,1.1c-0.601,0-1.2-0.499-1.102-1.1c0.102-1-0.201-1.599-1.1-2.197
		c-1.398-0.901-1.699-2.803-1-4.301c0.701-1.501,2.4-2.302,4-1.901C42.751,56,43.951,57.399,43.951,59.099z"/>
	<path fill="#F05777" d="M28.148,21.901c-1,0-2.099,0-3.097,0c-0.403,0-0.501-0.102-0.301-0.5c0-0.103,0.1-0.2,0.1-0.301
		c0.799-1.5,2.2-1.699,3.7-1.699c1.398,0,2.4,0.499,3.099,1.699c0.299,0.501,0.299,0.801-0.499,0.801
		C30.151,21.8,29.152,21.901,28.148,21.901z"/>
	<path fill="#FBD0A3" d="M29.45,15.799c0,0.701-0.499,1.2-1.2,1.3c-0.701,0-1.2-0.497-1.302-1.2c0-0.701,0.5-1.3,1.2-1.3
		C28.851,14.499,29.45,15.102,29.45,15.799z"/>
	<path fill="#78BF52" d="M41.551,59.099c0,0.703-0.5,1.2-1.2,1.2c-0.703,0-1.2-0.497-1.2-1.2c0-0.699,0.497-1.3,1.2-1.3
		C40.951,57.9,41.551,58.399,41.551,59.099z"/>
</g>
</svg>
