<?xml version="1.0" encoding="utf-8"?>
<!-- Generator: Adobe Illustrator 16.0.0, SVG Export Plug-In . SVG Version: 6.00 Build 0)  -->
<!DOCTYPE svg PUBLIC "-//W3C//DTD SVG 1.1//EN" "http://www.w3.org/Graphics/SVG/1.1/DTD/svg11.dtd">
<svg version="1.1" id="Layer_1" xmlns="http://www.w3.org/2000/svg" xmlns:xlink="http://www.w3.org/1999/xlink" x="0px" y="0px"
	 width="85px" height="85px" viewBox="0 0 85 85" enable-background="new 0 0 85 85" xml:space="preserve">
<g>
	<g>
		<path fill="#9FC7D1" d="M47.5,67.5c-0.691,0-1.25-0.561-1.25-1.25v-5h-7.5v5c0,0.689-0.559,1.25-1.25,1.25H25v15h16.25v-4.482
			l-3.385-3.385l1.768-1.768L42.5,75.73l2.865-2.865l1.768,1.768l-3.383,3.385V82.5h17.5v-15H47.5z"/>
		<path fill="#9FC7D1" d="M30.096,21.731C30.033,21.578,30,21.416,30,21.25v-15l-2.5,1.875v15.146l6.029,6.698L30.096,21.731z"/>
	</g>
	<path fill="#FFFFFF" d="M38.742,36.25h0.006V50h7.5V36.25h0.008c0-0.162,0.023-0.324,0.09-0.481L52.498,21V10h-2.5v7.5
		c0,0.449-0.24,0.865-0.633,1.086c-0.191,0.109-0.404,0.164-0.617,0.164c-0.223,0-0.445-0.06-0.643-0.18l-5.607-3.363l-5.605,3.363
		c-0.197,0.12-0.422,0.18-0.645,0.18c-0.211,0-0.424-0.055-0.615-0.164c-0.393-0.221-0.635-0.637-0.635-1.086V10h-2.5v11
		l6.154,14.769C38.717,35.926,38.742,36.088,38.742,36.25z M42.5,20c0.689,0,1.25,0.56,1.25,1.25c0,0.689-0.561,1.25-1.25,1.25
		s-1.25-0.561-1.25-1.25C41.25,20.56,41.811,20,42.5,20z M42.5,26.25c0.689,0,1.25,0.56,1.25,1.25c0,0.689-0.561,1.25-1.25,1.25
		s-1.25-0.561-1.25-1.25C41.25,26.81,41.811,26.25,42.5,26.25z M42.5,32.5c0.689,0,1.25,0.56,1.25,1.25
		c0,0.689-0.561,1.25-1.25,1.25s-1.25-0.561-1.25-1.25C41.25,33.06,41.811,32.5,42.5,32.5z M42.5,38.75c0.689,0,1.25,0.56,1.25,1.25
		c0,0.689-0.561,1.25-1.25,1.25s-1.25-0.561-1.25-1.25C41.25,39.31,41.811,38.75,42.5,38.75z M42.5,45c0.689,0,1.25,0.56,1.25,1.25
		c0,0.689-0.561,1.25-1.25,1.25s-1.25-0.561-1.25-1.25C41.25,45.56,41.811,45,42.5,45z"/>
	<polygon fill="#EEC97B" points="41.111,13.125 37.5,10.957 37.5,15.293 	"/>
	<path fill="#9FC7D1" d="M36.25,36.729L25.32,24.584C25.115,24.355,25,24.059,25,23.75v-15h-7.5c-4.824,0-8.75,3.924-8.75,8.75
		v41.25h8.75v-37.5H20v40c0,2.066,1.684,3.75,3.75,3.75h12.5V36.729z M23.75,50h8.75v2.5h-8.75V50z"/>
	<polygon fill="#EEC97B" points="47.5,10.957 43.887,13.125 47.5,15.293 	"/>
	<rect x="38.75" y="52.5" fill="#E87B5A" width="7.5" height="6.25"/>
	<g>
		<path fill="#9FC7D1" d="M36.25,7.502c0.223,0,0.445,0.057,0.645,0.176l5.605,3.365l5.605-3.365
			c0.197-0.119,0.422-0.176,0.645-0.176V7.5h3.75V5h-20v2.5L36.25,7.502L36.25,7.502z"/>
		<path fill="#9FC7D1" d="M57.5,23.27V8.125L55,6.25v15c0,0.164-0.033,0.328-0.098,0.48l-3.432,8.236L57.5,23.27z"/>
		<path fill="#9FC7D1" d="M67.5,8.75H60v15c0,0.309-0.115,0.605-0.322,0.836L48.75,36.729V65h12.5c2.066,0,3.75-1.684,3.75-3.75v-40
			h2.5v37.5h8.75V17.5C76.25,12.676,72.324,8.75,67.5,8.75z M52.5,50h8.75v2.5H52.5V50z"/>
	</g>
	<g>
		<path fill="#3C4A53" d="M67.5,6.25h-8.334L54.5,2.75c-0.221-0.166-0.482-0.24-0.75-0.24V2.5h-22.5v0.01
			c-0.266,0-0.531,0.076-0.75,0.24l-4.666,3.5H17.5c-6.204,0-11.25,5.047-11.25,11.25V60c0,0.688,0.559,1.25,1.25,1.25h10
			c0,3.018,2.15,5.543,5,6.123V82.5h1.25H25v-15h12.5c0.691,0,1.25-0.561,1.25-1.25v-5h7.5v5c0,0.689,0.559,1.25,1.25,1.25h13.75v15
			h1.25h1.25V66.969c2.203-0.967,3.75-3.162,3.75-5.719h10c0.691,0,1.25-0.562,1.25-1.25V17.5C78.75,11.297,73.703,6.25,67.5,6.25z
			 M54.902,21.731C54.967,21.578,55,21.416,55,21.25v-15l2.5,1.875v15.146l-6.029,6.698L54.902,21.731z M32.5,5h20v2.5h-3.75l0,0
			c-0.223,0-0.445,0.058-0.645,0.178L42.5,11.041l-5.605-3.363C36.695,7.558,36.473,7.5,36.25,7.5l0,0H32.5V5z M47.5,10.957v4.336
			l-3.613-2.168L47.5,10.957z M41.111,13.125L37.5,15.291v-4.334L41.111,13.125z M32.5,10H35v7.5c0,0.449,0.24,0.865,0.633,1.086
			c0.191,0.109,0.404,0.164,0.617,0.164c0.223,0,0.445-0.06,0.645-0.18l5.605-3.363l5.605,3.363c0.197,0.12,0.422,0.18,0.645,0.18
			c0.213,0,0.424-0.055,0.615-0.164C49.758,18.365,50,17.949,50,17.5V10h2.5v11l-6.154,14.769c-0.064,0.155-0.088,0.319-0.088,0.481
			H46.25V50h-7.5V36.25h-0.008c0-0.162-0.023-0.324-0.088-0.481L32.5,21V10L32.5,10z M27.5,8.125L30,6.25v15
			c0,0.164,0.033,0.328,0.096,0.48l3.434,8.236L27.5,23.269V8.125L27.5,8.125z M23.75,65C21.684,65,20,63.316,20,61.25v-40h-2.5
			v37.5H8.75V17.5c0-4.826,3.926-8.75,8.75-8.75H25v15c0,0.309,0.115,0.605,0.32,0.836l10.93,12.143V65H23.75z M38.75,58.75V52.5
			h7.5v6.25H38.75z M76.25,58.75H67.5v-37.5H65v40c0,2.066-1.684,3.75-3.75,3.75h-12.5V36.729l10.928-12.145
			C59.885,24.355,60,24.059,60,23.75v-15h7.5c4.824,0,8.75,3.924,8.75,8.75V58.75z"/>
		<polygon fill="#3C4A53" points="47.133,74.633 45.365,72.867 42.5,75.732 39.633,72.867 37.865,74.633 41.25,78.018 41.25,82.5 
			43.75,82.5 43.75,78.018 		"/>
		<circle fill="#3C4A53" cx="42.5" cy="21.25" r="1.25"/>
		<circle fill="#3C4A53" cx="42.5" cy="27.5" r="1.25"/>
		<circle fill="#3C4A53" cx="42.5" cy="33.75" r="1.25"/>
		<circle fill="#3C4A53" cx="42.5" cy="40" r="1.25"/>
		<circle fill="#3C4A53" cx="42.5" cy="46.25" r="1.25"/>
		<rect x="52.5" y="50" fill="#3C4A53" width="8.75" height="2.5"/>
		<rect x="23.75" y="50" fill="#3C4A53" width="8.75" height="2.5"/>
	</g>
</g>
</svg>
