<?xml version="1.0" encoding="utf-8"?>
<!-- Generator: Adobe Illustrator 16.0.0, SVG Export Plug-In . SVG Version: 6.00 Build 0)  -->
<!DOCTYPE svg PUBLIC "-//W3C//DTD SVG 1.1//EN" "http://www.w3.org/Graphics/SVG/1.1/DTD/svg11.dtd">
<svg version="1.1" id="Layer_1" xmlns="http://www.w3.org/2000/svg" xmlns:xlink="http://www.w3.org/1999/xlink" x="0px" y="0px"
	 width="85px" height="85px" viewBox="0 0 85 85" enable-background="new 0 0 85 85" xml:space="preserve">
<g>
	<circle fill="#FCDD7C" cx="69.166" cy="15.833" r="13.333"/>
	<circle fill="#838BC5" cx="15.834" cy="15.833" r="13.333"/>
	<circle fill="#FCD8D1" cx="15.834" cy="14.5" r="2.667"/>
	<path fill="#FCD8D1" d="M13.166,17.167H18.5c1.473,0,2.666,1.195,2.666,2.667V22.5l0,0H10.5l0,0v-2.667
		C10.5,18.361,11.695,17.167,13.166,17.167z"/>
	<path fill="#65C8D0" d="M70.352,21.764l-2.369-1.195l1.695-3.403h-3.18c-0.734,0-1.332-0.597-1.332-1.333
		c0-0.203,0.053-0.416,0.139-0.598l2.666-5.334l2.369,1.195l-1.695,3.402h3.188c0.736,0,1.334,0.598,1.334,1.333
		c0,0.203-0.055,0.416-0.139,0.597L70.352,21.764z"/>
	<path fill="#FCDD7C" d="M43.684,51.096l-2.379-1.205L43,46.488h-3.168c-0.736,0-1.334-0.598-1.334-1.334
		c0-0.201,0.055-0.416,0.139-0.596l2.668-5.333l2.367,1.195l-1.695,3.4h3.189c0.736,0,1.332,0.6,1.332,1.334
		c0,0.203-0.053,0.416-0.139,0.598L43.684,51.096z"/>
	<rect x="33.166" y="14.5" fill="#838BC5" width="2.668" height="2.667"/>
	<rect x="38.5" y="14.5" fill="#838BC5" width="2.666" height="2.667"/>
	<rect x="43.834" y="14.5" fill="#838BC5" width="2.666" height="2.667"/>
	<rect x="49.166" y="14.5" fill="#838BC5" width="2.668" height="2.667"/>
	<rect x="19.834" y="38.5" fill="#838BC5" width="2.666" height="2.666"/>
	<rect x="19.834" y="43.834" fill="#838BC5" width="2.666" height="2.666"/>
	<rect x="19.834" y="33.167" fill="#838BC5" width="2.666" height="2.668"/>
	<rect x="19.834" y="49.166" fill="#838BC5" width="2.666" height="2.668"/>
	<rect x="19.834" y="54.5" fill="#838BC5" width="2.666" height="2.666"/>
	<rect x="62.5" y="38.5" fill="#838BC5" width="2.666" height="2.666"/>
	<rect x="62.5" y="43.834" fill="#838BC5" width="2.666" height="2.666"/>
	<rect x="62.5" y="33.167" fill="#838BC5" width="2.666" height="2.668"/>
	<rect x="62.5" y="49.166" fill="#838BC5" width="2.666" height="2.668"/>
	<rect x="62.5" y="54.5" fill="#838BC5" width="2.666" height="2.666"/>
	<rect x="19.834" y="62.5" fill="#BA9BC9" width="45.332" height="18.666"/>
	<polyline fill="#838BC5" points="51.834,81.166 51.834,67.834 42.5,54.5 33.166,67.834 33.166,81.166 	"/>
	<polyline fill="#65C8D0" points="39.834,81.166 39.834,75.834 45.166,75.834 45.166,81.166 	"/>
	<rect x="15.834" y="79.834" fill="#8F6C56" width="53.332" height="2.666"/>
	<rect x="37.166" y="69.166" fill="#FCDD7C" width="2.668" height="2.668"/>
	<rect x="41.166" y="63.834" fill="#FCDD7C" width="2.668" height="2.666"/>
	<rect x="45.166" y="69.166" fill="#FCDD7C" width="2.668" height="2.668"/>
	<rect x="58.5" y="66.5" fill="#FCDD7C" width="2.666" height="2.666"/>
	<rect x="58.5" y="71.834" fill="#FCDD7C" width="2.666" height="2.666"/>
	<rect x="23.834" y="66.5" fill="#FCDD7C" width="2.666" height="2.666"/>
	<rect x="23.834" y="71.834" fill="#FCDD7C" width="2.666" height="2.666"/>
</g>
</svg>
