<?xml version="1.0" encoding="utf-8"?>
<!-- Generator: Adobe Illustrator 16.0.0, SVG Export Plug-In . SVG Version: 6.00 Build 0)  -->
<!DOCTYPE svg PUBLIC "-//W3C//DTD SVG 1.1//EN" "http://www.w3.org/Graphics/SVG/1.1/DTD/svg11.dtd">
<svg version="1.1" id="Layer_1" xmlns="http://www.w3.org/2000/svg" xmlns:xlink="http://www.w3.org/1999/xlink" x="0px" y="0px"
	 width="85px" height="85px" viewBox="0 0 85 85" enable-background="new 0 0 85 85" xml:space="preserve">
<g>
	<path d="M10.938,82.5c-0.261,0-0.521,0-0.781,0c-0.527-0.158-0.927-0.438-0.979-1.043c-0.055-1.952,0.008-3.904-0.031-5.856
		c-0.033-1.662-0.371-3.256-1.232-4.706c-0.51-0.86-0.688-0.882-1.365-0.164c-1.063,1.126-1.444,2.514-1.474,4.009
		c-0.041,2.187,0.021,4.373-0.026,6.56C4.989,81.92,4.676,82.334,4.062,82.5c-0.261,0-0.521,0-0.781,0
		c-0.424-0.097-0.684-0.357-0.781-0.78c0-2.553,0-5.104,0-7.657c0.163-0.256,0.043-0.54,0.08-0.81
		c0.078-2.208,1.192-3.887,2.776-5.289c1.435-1.27,3.271-1.792,4.985-2.532c1.241-0.536,2.487-1.064,3.753-1.542
		c0.724-0.272,1.079-0.72,1.023-1.53c-0.056-0.829-0.029-1.664-0.006-2.496c0.016-0.563-0.164-1.018-0.594-1.376
		c-2.506-2.089-4.053-4.77-4.86-7.903c-0.115-0.447-0.389-0.782-0.702-1.103C6.1,46.562,4.68,43.057,4.81,38.978
		c0.087-2.765,0.932-5.315,2.563-7.574c0.63-0.873,1.102-0.983,2.068-0.557c0.691,0.789,0.741,1.187,0.081,2.23
		C8.749,34.3,8.154,35.586,7.845,37c-0.739,3.377-0.023,6.447,1.953,9.25c0.085,0.119,0.144,0.282,0.381,0.293
		c0.392-1.195,0.682-2.431,1.021-3.651c0.363-1.303,0.711-2.61,1.067-3.915c0.521-1.91,1.944-2.501,3.643-1.455
		c1.455,0.896,2.932,1.661,4.669,1.849c1.8,0.195,3.458-0.193,5.031-1.033c0.481-0.257,0.931-0.571,1.397-0.854
		c1.631-0.989,3.083-0.409,3.601,1.47c0.657,2.382,1.297,4.769,1.951,7.152c0.034,0.126,0.071,0.249,0.131,0.361
		c0.263,0.189,0.315-0.091,0.398-0.206c1.328-1.837,2.087-3.869,2.188-6.155c0.119-2.727-0.553-5.195-2.156-7.421
		c-1.09-1.512-1.162-1.544-2.579-0.337c-1.11,0.941-2.212,1.894-3.339,2.814c-1.188,0.97-2.516,0.924-3.417-0.076
		c-0.388-0.431-0.542-0.938-0.552-1.502c-0.014-0.806-0.027-1.612,0.001-2.418c0.022-0.617-0.235-0.855-0.833-0.803
		c-0.258,0.023-0.52,0.002-0.779,0.004c-1.64,0.015-2.802-0.731-3.385-2.255c-0.225-0.587-0.506-0.672-1.051-0.513
		c-1.282,0.377-2.476,0.935-3.625,1.609c-0.956,0.561-1.529,0.418-2.2-0.481c-0.242-0.878-0.059-1.361,0.76-1.898
		c1.405-0.923,2.956-1.515,4.563-1.973c1.143-0.326,1.212-0.065,1.211-1.633c-0.005-5.459-0.002-10.917-0.002-16.376
		c0-0.494,0-0.986,0.091-1.476c0.323-1.735,1.107-2.545,2.797-2.871c4.271,0,8.541,0,12.812,0c0.705,0.219,0.904,0.741,0.855,1.417
		c-0.368,0.957-0.646,1.153-1.772,1.158c-3.281,0.012-6.562,0.003-9.844,0.005c-0.26,0-0.521-0.005-0.781,0.002
		c-1.066,0.029-1.336,0.272-1.339,1.365c-0.016,6.588-0.018,13.177,0.001,19.765c0.003,1.117,0.275,1.348,1.416,1.364
		c0.364,0.005,0.729-0.005,1.094,0.004c1.674,0.04,2.655,0.979,2.779,2.651c0.049,0.668-0.048,1.344,0.067,2.014
		c0.349,0.071,0.493-0.189,0.679-0.345c1.317-1.103,2.637-2.204,3.934-3.331c0.809-0.703,1.706-1.007,2.783-1.004
		c7.083,0.022,14.167,0.009,21.25,0.017c0.688,0.001,1.326-0.116,1.974-0.368c4.567-1.773,9.15-1.775,13.72-0.01
		c0.698,0.271,1.395,0.402,2.132,0.384c0.441-0.031,0.886,0.001,1.327-0.034c0.71-0.058,0.956-0.309,1.025-1.024
		c0.025-0.26,0.017-0.521,0.017-0.781C74.911,19.499,74.911,13.25,74.911,7c0-0.13,0-0.26-0.003-0.391
		c-0.028-1.284-0.246-1.507-1.507-1.518c-0.312-0.003-0.624-0.02-0.938-0.018c-0.441,0.048-0.883,0.021-1.324,0.021
		C60.692,5.098,50.246,5.097,39.799,5.097c-0.312,0-0.624,0.009-0.936-0.009c-1.035-0.057-1.479-0.497-1.563-1.543
		c0.029-0.541,0.394-0.819,0.825-1.045c12.239,0,24.479,0,36.719,0c1.736,0.334,2.67,1.371,2.857,3.178
		c0.035,0.337,0.025,0.675,0.025,1.014c0,6.422-0.011,12.844,0.008,19.266c0.005,1.658-0.366,3.095-1.895,4.008
		c-0.458,0.274-0.253,0.543,0.018,0.801c0.794,0.757,1.496,1.588,2.059,2.534c1.412,2.375,2.049,4.92,1.714,7.685
		c-0.062,0.518-0.014,1.04-0.038,1.56c-0.031,0.69-0.293,1.207-1.024,1.376c-1.127,0-1.635-0.446-1.726-1.545
		c-0.04-0.493-0.048-0.99,0.015-1.482c0.344-2.673-0.357-5.061-2.021-7.153c-1.993-2.508-4.634-3.972-7.74-4.64
		c-3.913-0.853-7.656-0.388-11.166,1.555c-2.964,1.64-4.98,4.039-5.62,7.455c-0.102,0.542-0.1,1.087-0.087,1.632
		c0.091,4.011-0.146,7.997-0.877,11.947c-0.095,0.514-0.03,1.039-0.134,1.552c-0.177,0.876-0.464,1.155-1.378,1.335
		c-0.986-0.173-1.267-0.505-1.332-1.498c-0.091-1.397,0.281-2.74,0.462-4.104c0.397-3,0.569-6.013,0.466-9.034
		c-0.123-3.553,1.254-6.48,3.615-9.026c0.105-0.114,0.231-0.212,0.309-0.35c0.012-0.021,0.011-0.049,0.037-0.188
		c-5.467,0-10.911,0-16.457,0c0.171,0.429,0.426,0.715,0.636,1.018c3.816,5.493,3.282,13.05-1.502,18.038
		c-0.465,0.484-0.788,1.004-0.966,1.657c-0.792,2.923-2.365,5.367-4.643,7.354c-0.41,0.357-0.598,0.751-0.588,1.287
		c0.017,0.963,0.022,1.927-0.002,2.89c-0.016,0.603,0.214,0.953,0.787,1.182c2.104,0.838,4.183,1.738,6.278,2.599
		c2.846,1.168,4.665,3.243,5.432,6.224c0.228,0.885,0.278,1.804,0.305,2.709c0.051,1.744,0.045,3.49,0.001,5.233
		c-0.02,0.774-0.055,1.599-0.984,1.936c-0.312,0-0.625,0-0.938,0c-0.468-0.178-0.786-0.477-0.82-1.008
		c-0.046-1.9,0.016-3.802-0.028-5.701c-0.038-1.675-0.153-3.343-1.267-4.737c-0.064-0.081,0.016,0.021-0.045-0.063
		c-0.819-1.129-1.044-1.113-1.743,0.126c-0.756,1.4-1.049,2.897-1.029,4.483c0.024,1.887,0.034,3.774-0.01,5.661
		c-0.067,0.625-0.352,1.077-0.995,1.239c-0.261,0-0.521,0-0.781,0c-0.622-0.171-0.992-0.548-0.997-1.223
		c-0.033-2.227-0.045-4.453-0.003-6.679c0.031-1.71,0.535-3.312,1.356-4.811c0.914-1.363,0.828-1.115-0.507-1.675
		c-1.116-0.469-2.234-0.933-3.36-1.377c-0.232-0.092-0.456-0.273-0.719-0.071c-0.818,0.814-1.721,1.491-2.77,2.002
		c-2.875,1.398-6.94,0.988-9.335-1.516c-0.522-0.546-0.991-0.594-1.657-0.286c-1.133,0.524-2.3,0.977-3.458,1.445
		c-0.729,0.295-0.777,0.38-0.378,1.005c1.312,2.053,1.714,4.335,1.72,6.712c0.005,1.771,0.055,3.541-0.03,5.311
		C11.758,81.875,11.535,82.343,10.938,82.5z"/>
	<path fill-rule="evenodd" clip-rule="evenodd" d="M45.312,82.5c-0.589-0.441-0.731-1.04-0.718-1.754
		c0.045-2.287-0.071-4.584,0.087-6.862c0.227-3.243,1.928-5.621,4.861-6.992c2.322-1.085,4.72-2.012,7.102-2.964
		c0.553-0.221,0.739-0.507,0.721-1.088c-0.041-1.299-0.013-2.599-0.013-3.903c-0.285-0.084-0.371,0.161-0.502,0.281
		c-1.259,1.166-2.504,2.348-3.758,3.52c-0.835,0.78-1.329,0.782-2.148,0.022c-1.075-0.998-1.977-2.133-2.664-3.432
		c-0.444-0.838-0.381-1.166,0.334-1.833c0.673-0.473,1.283-0.333,1.802,0.466c0.354,0.545,0.653,1.124,1.062,1.635
		c0.476,0.597,0.584,0.63,1.09,0.109c0.672-0.692,1.458-1.256,2.13-1.948c0.378-0.39,0.443-0.719,0.082-1.143
		c-3.063-3.599-3.649-7.885-3.407-12.391c0.06-1.103,0.574-1.554,1.694-1.617c3.958-0.225,6.818-2.122,8.619-5.648
		c0.355-0.695,0.477-1.417,0.456-2.188c-0.019-0.676-0.046-1.354,0.021-2.028c0.081-0.834,0.764-1.504,1.452-1.466
		c0.744,0.041,1.228,0.606,1.271,1.505c0.023,0.468,0.043,0.94,0.002,1.405c-0.166,1.913,0.704,3.437,1.858,4.818
		c1.98,2.373,4.553,3.562,7.646,3.621c1.021,0.323,1.296,0.64,1.277,1.669c-0.035,1.923,0.16,3.851-0.227,5.764
		c-0.49,2.426-1.536,4.579-3.062,6.509c-0.526,0.666-0.538,0.657,0.126,1.229c0.672,0.578,1.241,1.264,1.914,1.84
		c0.593,0.508,0.807,0.502,1.261-0.137c1.673-2.354,2.568-4.926,2.085-7.856c-0.161-0.976-0.339-1.95-0.448-2.934
		c-0.122-1.103,0.163-1.575,1.104-1.957c0.844,0.042,1.438,0.454,1.562,1.229c0.231,1.464,0.593,2.922,0.657,4.397
		c0.146,3.374-0.854,6.418-2.981,9.063c-0.423,0.525-0.828,1.071-1.36,1.501c-0.88,0.71-1.494,0.674-2.362-0.038
		c-1.23-1.007-2.266-2.225-3.514-3.209c-0.119-0.094-0.203-0.242-0.388-0.254C69.81,59.581,69.9,59.811,69.897,60
		c-0.011,0.807,0.028,1.616-0.014,2.42c-0.039,0.737,0.272,1.143,0.943,1.42c2.067,0.855,4.132,1.722,6.207,2.559
		c2.429,0.979,4.105,2.687,5.096,5.093c0.231,0.563,0.271,1.158,0.289,1.757c0.037,0.271-0.083,0.557,0.081,0.814
		c0,2.553,0,5.104,0,7.657c-0.098,0.423-0.358,0.684-0.782,0.78c-0.26,0-0.521,0-0.78,0c-0.702-0.183-0.967-0.685-0.996-1.36
		c-0.029-0.544-0.04-1.091-0.009-1.633c0.038-0.655-0.251-0.891-0.876-0.844c-0.36,0.027-0.726,0.016-1.089-0.001
		c-0.464,0.021-0.928,0.021-1.391,0.005c-0.537-0.019-0.733,0.229-0.725,0.745c0.012,0.669,0.023,1.339-0.021,2.009
		c-0.037,0.626-0.449,0.911-0.987,1.079c-0.261,0-0.521,0-0.782,0c-0.686-0.199-0.89-0.747-0.987-1.371
		c0.018-2.462-0.168-4.928,0.145-7.384c0.203-1.592,0.676-3.087,1.56-4.438c0.423-0.684,0.429-0.698-0.288-0.982
		c-1.596-0.636-3.16-1.348-4.768-1.956c-0.496-0.256-0.91-0.138-1.377,0.159c-3.05,1.94-6.177,2.015-9.28,0.171
		c-0.768-0.456-1.386-0.511-2.168-0.146c-1.344,0.626-2.728,1.165-4.104,1.716c-0.797,0.319-0.839,0.417-0.427,1.117
		c1.111,1.885,1.648,3.91,1.604,6.105c-0.04,1.95,0.007,3.902-0.016,5.854c-0.008,0.658-0.411,0.979-0.985,1.153
		c-0.261,0-0.521,0-0.782,0c-0.711-0.183-0.967-0.697-0.998-1.375c-0.032-0.596-0.017-1.192-0.018-1.788
		c0-0.453-0.195-0.663-0.653-0.663c-0.908,0.001-1.815,0.007-2.723-0.002c-0.504-0.005-0.688,0.235-0.688,0.714
		c0.001,0.726,0.027,1.452-0.037,2.177c-0.055,0.504-0.384,0.769-0.821,0.938C45.938,82.5,45.625,82.5,45.312,82.5z"/>
	<path fill-rule="evenodd" clip-rule="evenodd" fill="#FCFCFC" d="M38.125,2.5c-0.217,0.263-0.435,0.524-0.651,0.786
		c-0.084,0.227-0.023,0.577-0.356,0.61C36.19,3.988,35.249,4.2,34.351,3.743c-0.062-0.531-0.373-0.909-0.757-1.243
		C35.104,2.5,36.614,2.5,38.125,2.5z"/>
	<path fill-rule="evenodd" clip-rule="evenodd" fill="#474747" d="M2.5,73.282c0.048,0.003,0.095-0.005,0.139-0.023
		c0.054,0.285,0.088,0.567-0.139,0.804C2.5,73.803,2.5,73.542,2.5,73.282z"/>
	<path fill-rule="evenodd" clip-rule="evenodd" fill="#494949" d="M82.359,73.259c0.045,0.021,0.092,0.028,0.141,0.023
		c0,0.26,0,0.521,0,0.78C82.271,73.826,82.307,73.544,82.359,73.259z"/>
	<path fill-rule="evenodd" clip-rule="evenodd" fill="#F1FAFE" d="M34.351,3.743c0.766,0.002,1.532-0.023,2.295,0.019
		c0.414,0.022,0.673-0.105,0.828-0.476c-0.035,1.189,0.331,1.558,1.565,1.558c10.867,0.001,21.735,0,32.603,0.001
		c0.286,0,0.571,0.017,0.856,0.025c0.249,0.183,0.365,0.439,0.374,0.737c0.041,1.454,0.048,2.909-0.004,4.362
		c-0.006,0.157-0.057,0.307-0.146,0.438c-0.207,0.199-0.378,0.031-0.558-0.057c-0.816-0.396-1.21-0.307-1.694,0.453
		c-0.448,0.702-0.907,1.396-1.371,2.087c-0.651,0.973-0.818,0.974-1.461,0.028c-0.424-0.624-0.837-1.255-1.257-1.881
		c-0.102-0.151-0.198-0.307-0.314-0.447c-0.425-0.516-0.928-0.643-1.355-0.347c-0.439,0.304-0.516,0.787-0.217,1.393
		c0.104,0.21,0.237,0.403,0.367,0.598c0.677,1.018,1.341,2.043,2.007,3.068c0.37,0.571,0.549,1.155,0.53,1.833
		c-0.025,0.987-0.007,1.977-0.006,2.965c0,0.208-0.009,0.416,0.014,0.623c0.067,0.641,0.437,1.045,0.946,1.046
		c0.513,0,0.915-0.402,0.953-1.035c0.055-0.883,0.088-1.775,0.003-2.65c-0.139-1.437,0.301-2.645,1.15-3.769
		c0.563-0.746,1.029-1.564,1.576-2.324c0.154-0.215,0.276-0.629,0.703-0.342c0.203,0.361,0.166,0.758,0.167,1.145
		c0.004,4.52,0.005,9.039-0.002,13.56c-0.001,0.51,0.081,1.058-0.405,1.438c-0.711,0.1-1.366-0.042-2.041-0.309
		c-4.636-1.834-9.282-1.801-13.911,0.031c-0.521,0.207-1.023,0.312-1.58,0.312c-7.161-0.01-14.322,0.007-21.483-0.021
		c-1.053-0.004-1.899,0.277-2.691,0.978c-1.609,1.425-3.277,2.783-5.045,4.272c0-0.993,0.007-1.839-0.002-2.685
		c-0.018-1.677-0.886-2.537-2.564-2.55c-0.547-0.005-1.094-0.004-1.641-0.001c-0.639,0.005-0.951-0.341-1.011-0.946
		c-0.02-0.207-0.008-0.417-0.008-0.625c0-6.614,0-13.229,0-19.843c0-1.376,0.188-1.561,1.583-1.561
		c3.542,0,7.083-0.017,10.625,0.013C33.579,4.863,34.127,4.577,34.351,3.743z"/>
	<path fill-rule="evenodd" clip-rule="evenodd" fill="#89BAD4" d="M74.373,42.797c-4.179,0.139-8.355-2.836-9.557-6.814
		c-0.237-0.789-0.055-1.604-0.102-2.404c-0.019-0.312,0.009-0.626-0.01-0.938c-0.041-0.69-0.484-1.155-1.109-1.184
		c-0.599-0.026-1.138,0.438-1.209,1.095c-0.045,0.412-0.055,0.836-0.013,1.248c0.298,2.942-1.219,5.022-3.295,6.78
		c-1.72,1.456-3.764,2.174-6.027,2.239c-1.055,0.03-1.461,0.438-1.465,1.489c-0.008,2.235-0.108,4.479,0.499,6.671
		c0.593,2.138,1.581,4.07,3.053,5.73c0.378,0.427,0.317,0.637-0.071,0.979c-0.898,0.792-1.776,1.608-2.621,2.456
		c-0.362,0.364-0.557,0.311-0.841-0.062c-0.46-0.6-0.897-1.211-1.271-1.868c-0.47-0.826-0.827-0.968-1.721-0.72
		c-0.261-1.029-0.523-2.059-0.785-3.088c0.695-0.066,1.104-0.446,1.156-1.141c0.205-2.773,0.842-5.496,0.945-8.284
		c0.058-1.561,0.129-3.123,0.054-4.68c-0.177-3.691,1.326-6.59,4.205-8.753c3.891-2.923,8.278-3.676,13.001-2.628
		c3.629,1.662,5.929,4.454,7.049,8.261c0.504,1.711,0.32,3.457,0.32,5.195C74.559,42.539,74.485,42.681,74.373,42.797z"/>
	<path fill-rule="evenodd" clip-rule="evenodd" fill="#C9EEB0" d="M31.216,81.405c-6.503-0.003-13.006-0.007-19.509-0.01
		c-0.105-2.439,0.097-4.884-0.116-7.322c-0.159-1.821-0.761-3.495-1.796-4.993c-0.334-0.482-0.197-0.61,0.263-0.793
		c1.493-0.592,2.972-1.224,4.457-1.833c0.273-0.112,0.506-0.272,0.809,0.073c3.183,3.645,9.044,3.684,12.33-0.059
		c0.032-0.037,0.083-0.058,0.126-0.086c1.002,0.696,2.001,1.396,3.072,1.989c0.475,0.262,0.965,0.501,1.406,0.819
		c0.173,0.124,0.46,0.173,0.399,0.492c-1.117,2.086-1.52,4.314-1.437,6.669C31.28,78.035,31.222,79.721,31.216,81.405z"/>
	<path fill-rule="evenodd" clip-rule="evenodd" fill="#FDD1A3" d="M21.581,58.895c-1.369,0-2.494-0.442-3.563-1.066
		c-3.081-1.798-5.046-4.422-5.868-7.898c-0.061-0.258-0.082-0.489-0.008-0.757c0.813-2.954,1.616-5.91,2.402-8.871
		c0.124-0.465,0.27-0.487,0.663-0.241c4.124,2.573,8.274,2.579,12.417,0.048c0.453-0.277,0.596-0.29,0.745,0.28
		c0.756,2.888,1.556,5.765,2.35,8.643c0.094,0.339,0.1,0.665,0.014,0.999c-1.007,3.895-3.33,6.694-6.986,8.375
		C23.031,58.733,22.263,58.876,21.581,58.895z"/>
	<path fill-rule="evenodd" clip-rule="evenodd" fill="#89BAD4" d="M9.346,30.972c0.741-0.733,1.482-1.467,2.225-2.199
		c0.694,0.702,1.062,0.761,1.906,0.241c1.293-0.795,2.678-1.359,4.138-1.758c0.407-0.111,0.572-0.069,0.685,0.402
		c0.376,1.571,1.6,2.482,3.229,2.505c0.594,0.009,1.377-0.187,1.73,0.115c0.422,0.359,0.104,1.171,0.14,1.785
		c0.027,0.492,0.007,0.986,0.009,1.48c0.004,0.892,0.402,1.558,1.207,1.928c0.801,0.367,1.578,0.256,2.26-0.308
		c1.082-0.893,2.148-1.804,3.224-2.705c0.118-0.099,0.248-0.182,0.373-0.272c0.395-0.047,0.543,0.269,0.706,0.518
		c1.319,2.021,2.157,4.203,2.176,6.653c0.016,2.185,0.041,4.369-0.312,6.536c-0.055,0.339,0.02,0.772-0.511,0.821
		c-0.688-2.505-1.383-5.008-2.064-7.514c-0.563-2.071-1.794-2.572-3.591-1.376c-3.629,2.415-7.231,2.438-10.847-0.003
		c-0.107-0.072-0.22-0.138-0.331-0.206c-1.426-0.87-2.736-0.35-3.185,1.276c-0.683,2.479-1.354,4.962-2.032,7.442
		c-0.066,0.243-0.141,0.485-0.24,0.83c-2.16-2.644-3.158-5.552-2.823-8.881c0.199-1.978,0.876-3.792,2.014-5.422
		C9.9,32.187,9.919,31.578,9.346,30.972z"/>
	<path fill-rule="evenodd" clip-rule="evenodd" fill="#6CAAC9" d="M74.373,42.797c-0.017-2.278,0.188-4.568-0.714-6.768
		c-0.837-2.038-2.062-3.75-3.753-5.169c-0.86-0.723-1.805-1.302-2.717-1.938c4.669,0.754,8.798,4.463,9.754,8.749
		c0.346,1.547,0.096,3.107,0.142,4.661c0.03,1.008,0.346,1.354,1.323,1.45c-0.272,1.035,0.158,2.06,0.043,3.093
		c-0.846,0.322-1.087,0.947-0.939,1.802c0.176,1.024,0.332,2.052,0.474,3.082c0.434,3.154-0.536,5.889-2.496,8.333
		c-0.31,0.387-0.495,0.375-0.836,0.038c-0.89-0.877-1.81-1.723-2.739-2.558c-0.292-0.263-0.326-0.426-0.05-0.742
		c2.56-2.936,3.743-6.366,3.635-10.254c-0.021-0.755-0.031-1.511,0.004-2.265C75.542,43.476,75.187,42.976,74.373,42.797z"/>
	<path fill-rule="evenodd" clip-rule="evenodd" fill="#DBF1F6" d="M72.536,10.468c0.271-1.273,0.061-2.562,0.114-3.841
		c0.024-0.588,0.075-1.188-0.152-1.757c0.468-0.009,0.936-0.027,1.403-0.024c0.902,0.007,1.211,0.306,1.213,1.223
		c0.009,2.94,0.004,5.881,0.004,8.821c0,3.8,0,7.599-0.001,11.398c0,1.332-0.199,1.532-1.528,1.529
		c-0.364-0.001-0.728-0.018-1.091-0.026c0.084-0.325,0.165-0.644,0.164-0.99c-0.009-4.854-0.005-9.71-0.008-14.565
		c0-0.229,0.058-0.472-0.118-0.671C72.385,11.198,72.383,10.833,72.536,10.468z"/>
	<path fill-rule="evenodd" clip-rule="evenodd" fill="#89BAD4" d="M9.349,81.542c-0.454-0.303-0.963-0.148-1.445-0.157
		c-1.015-0.019-2.029,0.007-3.044,0.015c-0.003-2.342-0.041-4.685,0.004-7.025c0.032-1.717,0.757-3.155,2-4.344
		c0.343-0.328,0.534-0.343,0.825,0.074c1.127,1.611,1.643,3.4,1.65,5.35C9.346,77.483,9.346,79.513,9.349,81.542z"/>
	<path fill-rule="evenodd" clip-rule="evenodd" fill="#FEBC85" d="M25.283,63.435c0.061,0.278,0.042,0.616,0.196,0.824
		c0.557,0.748,0.046,1.099-0.467,1.485c-2.221,1.674-5.466,1.542-7.49-0.295c-0.324-0.295-0.444-0.52-0.199-0.972
		c0.492-0.909,0.188-1.944,0.327-2.916c0.209-0.101,0.407-0.023,0.604,0.041c2.032,0.669,4.064,0.753,6.12,0.078
		c0.731-0.24,0.845-0.113,0.86,0.67C25.242,62.712,25.178,63.077,25.283,63.435z"/>
	<path fill-rule="evenodd" clip-rule="evenodd" fill="#6CAAC9" d="M32.529,46.715c0.544-0.37,0.294-0.975,0.345-1.442
		c0.305-2.803,0.554-5.627-0.082-8.412c-0.393-1.724-1.124-3.326-2.322-4.674c1.682-1.425,1.191-1.707,2.674,0.24
		c3.246,4.263,3.177,10.145-0.088,14.216C32.963,46.759,32.796,47.434,32.529,46.715z"/>
	<path fill-rule="evenodd" clip-rule="evenodd" fill="#6BAAC9" d="M38.076,81.535c-0.042-0.041-0.084-0.081-0.126-0.121
		c-0.527-0.188-1.077-0.099-1.609-0.072c-0.603,0.029-0.782-0.25-0.79-0.774c-0.017-1.167-0.005-2.333-0.008-3.5
		c-0.002-1.141-0.051-2.284,0.015-3.421c0.059-1.028-0.453-1.837-0.843-2.702c0.909-1.558,0.753-1.604,1.999-0.147
		c1.045,1.221,1.349,2.71,1.347,4.282C38.058,77.231,38.07,79.383,38.076,81.535z"/>
	<path fill-rule="evenodd" clip-rule="evenodd" fill="#89BAD4" d="M34.715,70.944c0.775,0.577,1.061,1.388,1.063,2.312
		c0.01,2.395,0.027,4.79-0.012,7.185c-0.011,0.667,0.206,0.85,0.844,0.822c0.439-0.019,0.931-0.205,1.341,0.15
		c-1.452-0.007-2.904-0.013-4.355-0.02c0.041-2.617-0.204-5.241,0.15-7.85C33.873,72.616,34.2,71.739,34.715,70.944z"/>
	<path fill-rule="evenodd" clip-rule="evenodd" fill="#F8AE77" d="M25.283,63.435c-0.249-0.354-0.12-0.757-0.117-1.133
		c0.004-0.519-0.162-0.656-0.646-0.447c-1.12,0.485-2.305,0.516-3.505,0.501c-1.188-0.015-2.298-0.296-3.364-0.794
		c0-0.385,0-0.769,0-1.259c2.533,1.23,5.052,1.237,7.633-0.017C25.283,61.394,25.283,62.414,25.283,63.435z"/>
	<path fill-rule="evenodd" clip-rule="evenodd" fill="#9CDEAF" d="M32.657,69.684c-0.989-0.596-1.958-1.227-2.972-1.776
		c-0.736-0.399-1.396-0.859-1.906-1.524c0.239-0.272,0.432,0.016,0.606,0.086c1.435,0.573,2.843,1.218,4.291,1.751
		c0.696,0.256,0.784,0.513,0.292,1.03C32.847,69.378,32.76,69.538,32.657,69.684z"/>
	<path fill-rule="evenodd" clip-rule="evenodd" fill="#FD92BA" d="M73.276,81.267c-6.165,0-12.33,0-18.495,0.001
		c-0.336,0-0.678-0.046-0.997,0.109c-0.007-2.081-0.014-4.162-0.021-6.243c-0.009-2.191-0.611-4.211-1.838-6.021
		c-0.347-0.512-0.21-0.646,0.286-0.842c1.785-0.707,3.56-1.441,5.323-2.199c0.431-0.185,0.722-0.169,1.119,0.12
		c2.908,2.123,6.776,2.159,9.69,0.067c0.566-0.407,0.994-0.423,1.499-0.017c1.184,0.757,2.445,1.372,3.685,2.028
		c0.524,0.278,1.082,0.507,1.497,0.958c-1.446,2.395-1.814,5.021-1.72,7.764C73.354,78.416,73.29,79.842,73.276,81.267z"/>
	<path fill-rule="evenodd" clip-rule="evenodd" fill="#FDD1A3" d="M63.554,38.919c1.371,2.286,3.17,3.967,5.491,5.063
		c1.109,0.523,2.271,0.89,3.492,1.049c0.291,0.038,0.604,0.005,0.627,0.491c0.15,3.23-0.377,6.277-2.382,8.924
		c-1.578,2.083-3.533,3.662-6.12,4.315c-1.234,0.312-2.438,0.112-3.565-0.441c-4.576-2.245-6.927-5.951-7.16-11.02
		c-0.031-0.674-0.206-1.461,0.071-1.997c0.282-0.547,1.173-0.321,1.785-0.489C59.136,43.898,61.703,41.967,63.554,38.919z"/>
	<path fill-rule="evenodd" clip-rule="evenodd" fill="#FEBC85" d="M67.351,61.562c0.03,0.724,0.041,1.448,0.103,2.169
		c0.026,0.303-0.152,0.408-0.334,0.55c-1.969,1.538-5.164,1.543-7.113,0.02c-0.245-0.191-0.427-0.377-0.295-0.71
		c0.122-0.459,0.041-0.926,0.053-1.39c0.021-0.754,0.06-0.798,0.81-0.593c0.925,0.254,1.847,0.496,2.818,0.521
		c1.052,0.025,2.059-0.177,3.057-0.475C66.741,61.566,67.031,61.416,67.351,61.562z"/>
	<path fill-rule="evenodd" clip-rule="evenodd" fill="#FDA2C5" d="M49.127,76.056c-0.234,0-0.469,0-0.702,0
		c-1.566,0-1.544,0.001-1.466-1.606c0.084-1.749,0.747-3.214,2.01-4.42c0.313-0.3,0.514-0.384,0.819,0.061
		c1.144,1.664,1.688,3.485,1.643,5.501c-0.009,0.392-0.157,0.482-0.51,0.471C50.323,76.04,49.725,76.056,49.127,76.056z"/>
	<path fill-rule="evenodd" clip-rule="evenodd" fill="#FCD1A3" d="M51.389,81.264c-1.232-0.001-2.467,0.017-3.699-0.014
		c-0.381-0.009-0.632,0.093-0.786,0.433c0.015-0.932,0.044-1.864,0.037-2.796c-0.002-0.367,0.115-0.5,0.49-0.494
		c1.166,0.018,2.332,0.017,3.498,0c0.35-0.005,0.52,0.064,0.502,0.464C51.394,79.658,51.4,80.461,51.389,81.264z"/>
	<path fill-rule="evenodd" clip-rule="evenodd" fill="#FC92BA" d="M76.913,70.782c0.726-1.293,0.788-1.301,1.739-0.211
		c1.296,1.485,1.604,3.259,1.505,5.152c-0.011,0.221-0.084,0.343-0.318,0.331c-1.358-0.07-2.726,0.149-4.08-0.108
		c0.346-0.332,0.785-0.229,1.187-0.222c0.547,0.009,0.827-0.173,0.805-0.762c-0.025-0.648-0.011-1.299-0.008-1.949
		C77.746,72.162,77.32,71.478,76.913,70.782z"/>
	<path fill-rule="evenodd" clip-rule="evenodd" fill="#FCA2C5" d="M76.913,70.782c0.828,0.419,0.971,1.226,1.038,2.011
		c0.073,0.848,0.001,1.708,0.023,2.561c0.012,0.438-0.148,0.604-0.586,0.586c-0.542-0.022-1.086,0.003-1.63,0.007
		C75.509,74.083,75.957,72.376,76.913,70.782z"/>
	<path fill-rule="evenodd" clip-rule="evenodd" fill="#F8AE77" d="M67.351,61.562c-1.208,0.465-2.437,0.78-3.75,0.796
		c-1.282,0.016-2.476-0.37-3.679-0.714c-0.221,0.673,0.108,1.344-0.211,1.946c0-1.062,0-2.124,0-3.301
		c2.533,1.227,5.054,1.271,7.612,0.021C67.431,60.764,67.406,61.161,67.351,61.562z"/>
	<path fill-rule="evenodd" clip-rule="evenodd" fill="#FCD0A3" d="M77.967,81.253c-0.517,0.003-1.034,0.018-1.551,0.004
		c-0.297-0.009-0.563,0.017-0.757,0.271c0-0.85,0.019-1.699-0.007-2.547c-0.012-0.411,0.075-0.625,0.545-0.59
		c0.588,0.043,1.181,0.032,1.771,0.046C78.35,79.376,78.352,80.314,77.967,81.253z"/>
	<path fill-rule="evenodd" clip-rule="evenodd" fill="#FEBC86" d="M77.967,81.253c0.001-0.938,0.002-1.877,0.002-2.815
		c2.188-0.169,2.188-0.169,2.186,1.982c0,0.284-0.017,0.568-0.025,0.853C79.408,81.266,78.688,81.26,77.967,81.253z"/>
	<path fill-rule="evenodd" clip-rule="evenodd" fill="#FA75A6" d="M75.025,69.229c-1.645-0.747-3.207-1.648-4.784-2.522
		c-0.167-0.093-0.267-0.307-0.397-0.464c1.771,0.717,3.554,1.405,5.306,2.165C75.853,68.713,75.119,68.959,75.025,69.229z"/>
	<path fill-rule="evenodd" clip-rule="evenodd" d="M38.711,9.832c3.366,0.003,6.124,2.77,6.098,6.116
		c-0.025,3.355-2.803,6.096-6.156,6.073c-3.329-0.021-6.026-2.745-6.034-6.093C32.611,12.541,35.321,9.829,38.711,9.832z"/>
	<path fill-rule="evenodd" clip-rule="evenodd" d="M51.253,17.198c0.801,0.915,1.542,1.753,2.273,2.599
		c0.656,0.758,0.7,1.41,0.145,1.913c-0.579,0.525-1.241,0.392-1.936-0.398c-0.957-1.089-1.909-2.181-2.991-3.418
		c0,1.015,0.007,1.859-0.002,2.703c-0.01,0.891-0.479,1.438-1.198,1.422c-0.692-0.015-1.14-0.546-1.141-1.394
		c-0.006-3.15-0.008-6.302,0.001-9.452c0.002-0.917,0.422-1.327,1.336-1.339c0.808-0.01,1.615-0.009,2.422,0
		c1.949,0.019,3.504,1.276,3.853,3.107c0.319,1.682-0.651,3.328-2.414,4.092C51.51,17.073,51.421,17.118,51.253,17.198z"/>
	<path fill-rule="evenodd" clip-rule="evenodd" d="M60.444,17.199c0.812,0.931,1.584,1.806,2.345,2.689
		c0.6,0.695,0.606,1.366,0.037,1.847c-0.545,0.46-1.181,0.374-1.769-0.282c-1.002-1.118-1.986-2.254-3.121-3.545
		c0,1.072,0.013,1.962-0.004,2.852c-0.012,0.567-0.265,0.996-0.829,1.193c-0.474,0.165-0.864,0.012-1.204-0.323
		c-0.238-0.234-0.304-0.531-0.304-0.854c0.001-3.224-0.008-6.448,0.005-9.672c0.003-0.861,0.435-1.258,1.315-1.27
		c0.806-0.01,1.611-0.008,2.418-0.001c1.97,0.019,3.479,1.234,3.845,3.089c0.342,1.736-0.618,3.359-2.438,4.124
		C60.67,17.075,60.605,17.115,60.444,17.199z"/>
	<path fill-rule="evenodd" clip-rule="evenodd" d="M26.928,9.825c1.431,0.008,2.53,0.44,3.522,1.152
		c0.652,0.467,0.778,1.123,0.38,1.693c-0.385,0.55-1.061,0.651-1.723,0.212c-0.739-0.491-1.52-0.808-2.419-0.684
		c-0.541,0.074-1.022,0.285-1.129,0.902c-0.104,0.605,0.354,0.816,0.793,0.993c0.698,0.279,1.411,0.521,2.114,0.788
		c2.117,0.802,3.129,2.318,2.762,4.133c-0.372,1.844-2.258,3.149-4.368,2.989c-1.446-0.109-2.728-0.637-3.765-1.675
		c-0.558-0.558-0.604-1.238-0.148-1.733c0.454-0.492,1.166-0.507,1.731,0.025c0.591,0.557,1.272,0.892,2.061,1.022
		c0.499,0.083,0.988,0.041,1.439-0.21c0.432-0.241,0.745-0.573,0.751-1.102c0.007-0.514-0.31-0.823-0.737-1.004
		c-0.644-0.273-1.309-0.498-1.96-0.754c-0.41-0.161-0.823-0.32-1.216-0.519c-1.2-0.605-1.874-1.58-1.812-2.936
		c0.064-1.436,0.838-2.422,2.161-2.973C25.924,9.916,26.508,9.804,26.928,9.825z"/>
	<path fill-rule="evenodd" clip-rule="evenodd" d="M72.536,10.468c0.145,0.365,0.14,0.731,0,1.097
		c-0.925,1.41-1.845,2.824-2.779,4.229c-0.185,0.276-0.234,0.558-0.232,0.878c0.009,1.3,0.007,2.601-0.003,3.9
		c-0.007,0.9-0.456,1.445-1.173,1.448c-0.715,0.004-1.158-0.542-1.168-1.441c-0.004-0.286-0.036-0.577,0.006-0.857
		c0.381-2.511-0.338-4.681-1.971-6.596c-0.384-0.449-0.679-0.981-0.979-1.497c-0.362-0.625-0.198-1.276,0.369-1.629
		c0.536-0.331,1.164-0.21,1.576,0.355c0.381,0.524,0.715,1.082,1.071,1.624c0.356,0.541,0.714,1.081,1.105,1.676
		c0.682-1.046,1.325-2.047,1.982-3.038C71.003,9.619,71.711,9.576,72.536,10.468z"/>
	<path fill-rule="evenodd" clip-rule="evenodd" fill="#010100" d="M21.458,51.884c0.893,0.033,1.75,0.211,2.545,0.631
		c0.702,0.371,0.96,0.99,0.68,1.602c-0.279,0.61-0.955,0.865-1.645,0.527c-1.086-0.53-2.127-0.522-3.209,0.012
		c-0.662,0.327-1.291,0.095-1.592-0.492c-0.314-0.613-0.091-1.249,0.604-1.624C19.655,52.102,20.537,51.906,21.458,51.884z"/>
	<path fill-rule="evenodd" clip-rule="evenodd" fill="#010100" d="M63.596,51.884c0.917,0.039,1.8,0.226,2.606,0.683
		c0.649,0.368,0.858,0.98,0.569,1.575c-0.287,0.591-0.928,0.843-1.58,0.521c-1.108-0.549-2.172-0.547-3.281,0.002
		c-0.644,0.318-1.3,0.056-1.584-0.527c-0.287-0.59-0.07-1.212,0.579-1.574C61.738,52.099,62.646,51.907,63.596,51.884z"/>
	<path fill-rule="evenodd" clip-rule="evenodd" fill="#F1FAFE" d="M38.687,12.176c2.079-0.004,3.783,1.686,3.778,3.747
		c-0.004,2.058-1.729,3.767-3.787,3.756c-2.042-0.012-3.699-1.673-3.715-3.727C34.946,13.85,36.592,12.181,38.687,12.176z"/>
	<path fill-rule="evenodd" clip-rule="evenodd" fill="#F0F9FD" d="M48.744,13.693c0-1.518,0-1.518,0.865-1.518
		c1.387,0,2.127,0.495,2.104,1.406c-0.023,0.904-0.781,1.316-2.153,1.411C48.164,15.089,49.003,14.052,48.744,13.693z"/>
	<path fill-rule="evenodd" clip-rule="evenodd" fill="#F0F9FD" d="M57.938,13.643c0-1.467,0-1.467,0.868-1.467
		c1.374,0,2.13,0.507,2.101,1.409c-0.028,0.887-0.813,1.323-2.158,1.405C57.382,15.074,58.146,14.077,57.938,13.643z"/>
</g>
</svg>
