<?xml version="1.0" encoding="utf-8"?>
<!-- Generator: Adobe Illustrator 16.0.0, SVG Export Plug-In . SVG Version: 6.00 Build 0)  -->
<!DOCTYPE svg PUBLIC "-//W3C//DTD SVG 1.1//EN" "http://www.w3.org/Graphics/SVG/1.1/DTD/svg11.dtd">
<svg version="1.1" id="Layer_1" xmlns="http://www.w3.org/2000/svg" xmlns:xlink="http://www.w3.org/1999/xlink" x="0px" y="0px"
	 width="85px" height="85px" viewBox="0 0 85 85" enable-background="new 0 0 85 85" xml:space="preserve">
<g>
	<g>
		<path d="M78.63,45.624c1.528-1.31,2.376-2.972,2.562-5.006c0.12-1.306,0.104-2.589-0.037-3.889
			c-0.338-3.133-2.818-5.793-5.939-6.306c-1.308-0.215-1.705-0.608-1.946-1.946c-0.204-1.127-0.389-2.257-0.697-3.364
			c-1.522-5.466-4.293-10.178-8.389-14.127c-4.216-4.064-9.175-6.692-14.871-7.989C47.989,2.695,46.642,2.69,45.311,2.5
			c-0.104,0-0.208,0-0.312,0c-0.1,0.107-0.231,0.073-0.354,0.081c-0.095,0-0.19,0-0.285,0c-0.153-0.019-0.322,0.052-0.454-0.081
			c-0.781,0-1.563,0-2.344,0c-0.127,0.126-0.29,0.064-0.437,0.081c-0.12-0.007-0.248,0.025-0.344-0.081c-0.26,0-0.521,0-0.781,0
			c-0.709,0.156-1.437,0.106-2.152,0.216c-7.502,1.151-13.675,4.735-18.611,10.411c-3.698,4.25-6.013,9.219-6.962,14.797
			c-0.222,1.306-1.22,2.293-2.505,2.505c-3.115,0.513-5.573,3.168-5.925,6.315c-0.157,1.407-0.151,2.793,0.002,4.199
			c0.339,3.09,2.771,5.75,5.863,6.289c0.535,0.093,0.881,0.325,1.152,0.801c1.356,2.373,3.464,3.425,6.152,3.421
			c1.484-0.002,2.968,0.027,4.451-0.013c0.689-0.019,1.183,0.187,1.601,0.747c1.524,2.044,3.417,3.702,5.502,5.153
			c0.779,0.542,0.777,0.553-0.036,1.039c-2.042,1.223-3.933,2.638-5.562,4.384c-0.653,0.7-0.679,1.218-0.112,2.003
			c0.867,0.564,1.335,0.536,2.079-0.137c0.25-0.227,0.476-0.478,0.721-0.709c1.827-1.721,3.89-3.101,6.164-4.152
			c1.057-0.488,2.451,0.286,2.628,1.436c0.131,0.854,0.352,1.673,0.731,2.448c1.567,3.104,4.143,4.774,7.565,4.771
			c4.858-0.005,7.903-3.725,8.264-7.342c0.096-0.961,0.762-1.368,1.658-0.963c1.841,0.832,3.468,1.994,4.945,3.367
			c0.039,0.037,0.026,0.095-0.041,0.187c-0.79,0.026-1.62,0.005-2.449,0.012c-2.873,0.023-5.021,2.177-5.03,5.06
			c-0.009,3.071-0.002,6.143-0.002,9.213c0,0.418,0.011,0.831,0.119,1.239c0.194,0.732,0.188,0.737-0.601,0.737
			c-6.741-0.003-13.482,0.007-20.223-0.002c-2.626,0.011-5.251,0.021-7.877,0c-2.066-0.018-3.273-1.508-2.858-3.522
			c0.572-2.776,1.59-5.377,3.135-7.765c0.633-0.978,0.596-1.486-0.118-2.305c-0.931-0.431-1.465-0.301-2.048,0.589
			c-1.846,2.817-3.148,5.869-3.732,9.193c-0.557,3.173,1.287,5.784,4.425,6.378c16.042,0,32.083,0,48.125,0
			c0.52-0.134,1.067-0.113,1.562-0.395c1.512-0.862,2.274-2.182,2.383-3.88c0.063-1.012,0.023-2.03,0.009-3.046
			c-0.008-0.493,0.174-0.824,0.591-1.097c2.061-1.348,3.513-3.228,4.62-5.395c1.44-2.819,2.201-5.82,2.488-8.97
			c0.396-4.332-0.136-8.521-1.775-12.549C78.043,46.505,78.077,46.098,78.63,45.624z M75.318,67.561
			c-0.704,1.492-1.698,2.791-3.128,3.967c0-0.997,0.006-1.821-0.001-2.646c-0.021-2.908-2.027-4.956-4.941-5.008
			c-1.665-0.029-3.332-0.014-4.998,0.001c-0.362,0.003-0.632-0.079-0.886-0.362c-0.922-1.029-1.937-1.964-3.019-2.824
			c-1.079-0.858-2.222-1.625-3.423-2.312c0.106-0.282,0.383-0.338,0.592-0.466c2.645-1.623,4.939-3.64,6.809-6.118
			c0.318-0.422,0.648-0.556,1.162-0.561c1.976-0.021,3.963,0.183,5.926-0.101c2.126-0.307,3.7-1.483,4.641-3.407
			c0.279-0.572,0.7-0.622,1.174-0.669c0.493-0.048,0.465,0.438,0.572,0.707C78.444,54.426,78.396,61.038,75.318,67.561z"/>
	</g>
	<path fill-rule="evenodd" clip-rule="evenodd" fill="#393939" d="M44.383,2.641c-0.176,0.011-0.361,0.053-0.478-0.141
		c0.156,0,0.312,0,0.469,0c0.049,0.028,0.065,0.059,0.053,0.091C44.413,2.624,44.398,2.641,44.383,2.641z"/>
	<path fill-rule="evenodd" clip-rule="evenodd" fill="#383838" d="M41.561,2.5c-0.118,0.194-0.303,0.152-0.48,0.137
		c-0.043-0.034-0.056-0.065-0.038-0.095C41.06,2.514,41.076,2.5,41.092,2.5C41.249,2.5,41.405,2.5,41.561,2.5z"/>
	<path fill-rule="evenodd" clip-rule="evenodd" fill="#838383" d="M44.998,2.5c-0.037,0.19-0.177,0.148-0.304,0.133
		c-0.057-0.026-0.076-0.055-0.06-0.085C44.651,2.516,44.668,2.5,44.687,2.5C44.79,2.5,44.895,2.5,44.998,2.5z"/>
	<path fill-rule="evenodd" clip-rule="evenodd" fill="#606060" d="M44.687,2.5c-0.001,0.044,0.001,0.089,0.008,0.133
		c-0.104,0.002-0.208,0.005-0.312,0.008c-0.008-0.047-0.011-0.094-0.009-0.141C44.478,2.5,44.582,2.5,44.687,2.5z"/>
	<path fill-rule="evenodd" clip-rule="evenodd" fill="#5D5D5D" d="M41.092,2.5c0,0.046-0.003,0.092-0.011,0.137
		C40.955,2.648,40.824,2.668,40.78,2.5C40.884,2.5,40.988,2.5,41.092,2.5z"/>
	<path fill-rule="evenodd" clip-rule="evenodd" fill="#EEB798" d="M45.039,11.377c4.979,0.394,9.364,2.262,13.201,5.417
		c3.627,2.984,6.14,6.747,7.592,11.214c0.952,2.93-0.858,5.449-3.948,5.493c-0.858,0.012-1.721-0.035-2.577,0.013
		c-0.812,0.045-1.285-0.296-1.665-1.001c-1.11-2.055-3.188-2.97-5.24-2.352c-1.229,0.37-2.173,1.139-2.738,2.284
		c-0.403,0.816-0.976,1.078-1.864,1.074c-7.03-0.027-14.06-0.015-21.09-0.017c-0.259,0-0.517-0.03-0.775-0.046
		c-0.285-0.509-0.056-1.025,0.028-1.515c0.856-4.954,2.908-9.338,6.241-13.127c2.765-3.143,6.096-5.454,9.946-7.06
		C43.093,11.359,44.043,11.249,45.039,11.377z"/>
	<path fill-rule="evenodd" clip-rule="evenodd" fill="#FEEDE4" d="M49.058,35.807c1.17-0.315,2.02-1.004,2.564-2.102
		c0.404-0.815,1.038-1.371,2.011-1.369c0.973,0.002,1.592,0.564,2.008,1.376c0.771,1.5,1.986,2.201,3.668,2.142
		c0.78-0.028,1.562-0.021,2.343-0.001c1.183,0.029,2.317-0.178,3.453-0.727c0.195,2.852-0.055,5.588-0.968,8.203
		c-3.175,9.093-9.566,14.353-19.108,15.69c-2.139,0.3-4.31,0.219-6.438-0.282c-0.525-0.168-0.986-0.452-1.428-0.775
		c-2.97-2.178-5.451-4.808-7.385-7.947c-0.518-0.84-0.489-0.945,0.413-1.245c0.8-0.207,1.62-0.349,2.323-0.838
		c1.414-0.984,2.475-2.979,0.739-4.942c-0.199-0.226-0.468-0.437-0.334-0.807c0.247-0.25,0.596-0.309,0.891-0.47
		c0.372-0.203,0.716-0.435,0.94-0.799c0.255-0.415,0.299-0.854-0.062-1.221c-0.329-0.334-0.802-0.397-1.146-0.12
		c-0.806,0.65-1.544,0.589-2.342,0.01c-0.346-0.251-0.744-0.208-1.087,0.069c-0.314,0.255-0.414,0.583-0.317,0.978
		c0.06,0.247,0.21,0.487,0.08,0.756c-0.104,0.128-0.248,0.198-0.402,0.202c-0.832,0.018-1.623,0.212-2.397,0.502
		c-0.169,0.063-0.353,0.063-0.524-0.028c-0.224-0.165-0.334-0.403-0.392-0.658c-0.343-1.524-0.661-3.054-0.62-4.628
		c0.021-0.837,0.117-0.914,0.968-0.914c7.233-0.001,14.466,0,21.698-0.003C48.49,35.859,48.779,35.909,49.058,35.807z"/>
	<path fill-rule="evenodd" clip-rule="evenodd" fill="#C0CEF1" d="M35.272,63.447c1.483,2.845,3.765,4.495,7.011,4.753
		c4.066,0.322,8.028-2.922,8.502-6.989c0.178-1.517,0.906-1.893,2.296-1.164c1.891,0.992,3.623,2.205,5.344,3.82
		c-1.098,0-1.993-0.004-2.888,0.001c-3.273,0.018-5.241,1.986-5.246,5.252c-0.003,2.786,0.005,5.572-0.004,8.358
		c-0.003,0.89,0.031,1.766,0.469,2.55c-0.145,0.198-0.312,0.123-0.449,0.123c-6.821,0.005-13.644,0.005-20.466,0.004
		c-0.156,0-0.311-0.018-0.467-0.026c-0.927-0.588-1.214-1.512-1.291-2.525c-0.125-1.655,0.433-3.184,0.952-4.707
		c1.13-3.323,2.961-6.234,5.306-8.83C34.592,63.789,34.806,63.416,35.272,63.447z"/>
	<path fill-rule="evenodd" clip-rule="evenodd" fill="#848485" d="M26.237,16.105c-0.85-0.538-1.251-0.501-1.992,0.216
		c-2.964,2.871-5.173,6.238-6.571,10.122c-0.184,0.51-0.394,0.773-0.983,0.727c-0.532-0.042-1.075,0.049-1.613,0.082
		C16.886,16.777,26.953,5.388,41.692,4.875C57.352,4.33,68.4,15.98,70.42,27.442c-0.67-0.176-1.324-0.318-1.994-0.285
		c-0.48,0.024-0.51-0.353-0.622-0.66c-1.391-3.799-3.502-7.15-6.405-9.961c-5.737-5.555-12.642-8.07-20.594-7.586
		c-4.301,0.262-8.307,1.583-11.989,3.846c-0.882,0.542-1.008,0.894-0.683,1.874C27.608,15.291,27.012,15.817,26.237,16.105z"/>
	<path fill-rule="evenodd" clip-rule="evenodd" fill="#98B1E8" d="M35.272,63.447c-2.248,2.167-3.988,4.69-5.259,7.535
		c-0.708,1.585-1.255,3.224-1.615,4.931c-0.333,1.581-0.083,2.98,0.976,4.216c-2.729,0.008-5.458,0.051-8.187,0.011
		c-1.878-0.027-3.167-1.741-2.799-3.6c0.58-2.936,1.699-5.652,3.308-8.173c0.537-0.841,0.495-1.181-0.155-1.938
		c0.473-0.576,0.945-1.152,1.418-1.729c0.873,0.462,1.199,0.426,1.921-0.3c1.982-1.992,4.239-3.592,6.775-4.8
		c0.536-0.256,2.445,0.106,2.8,0.548c0.086,0.106,0.1,0.286,0.112,0.436C34.65,61.578,34.911,62.524,35.272,63.447z"/>
	<path fill-rule="evenodd" clip-rule="evenodd" fill="#E3986D" d="M26.237,16.105c0.598-0.523,1.188-1.056,1.896-1.436
		c0.619,0.633,1.237,0.546,1.952,0.107c4.429-2.717,9.266-3.797,14.43-3.51c0.177,0.01,0.35,0.072,0.524,0.109
		c-2.109-0.091-3.838,0.973-5.599,1.89c-2.338,1.218-4.415,2.825-6.232,4.722c-3.638,3.799-5.999,8.285-6.957,13.479
		c-0.122,0.66-0.212,1.324-0.317,1.987c-0.962,0.008-1.927,0.072-2.884,0.014c-2.539-0.155-4.277-2.603-3.557-5.055
		c1.184-4.031,3.36-7.475,6.374-10.387C26.47,17.444,26.711,16.862,26.237,16.105z"/>
	<path fill-rule="evenodd" clip-rule="evenodd" fill="#848485" d="M59.533,66.262c2.676-0.011,5.352-0.052,8.026-0.018
		c1.233,0.017,2.259,1.084,2.271,2.344c0.033,3.169,0.03,6.34,0.002,9.511c-0.011,1.188-0.904,2.036-2.116,2.044
		c-2.728,0.017-5.456-0.005-8.185-0.011c-0.873-0.368-0.992-1.15-1.009-1.942c-0.038-1.792-0.013-3.585-0.013-5.378
		c-0.001-1.402-0.018-2.806,0.007-4.209C58.534,67.691,58.762,66.854,59.533,66.262z"/>
	<path fill-rule="evenodd" clip-rule="evenodd" fill="#FEDDCE" d="M49.058,35.807c-0.297,0.248-0.651,0.137-0.978,0.137
		c-7.133,0.007-14.266,0.015-21.399-0.01c-0.702-0.002-0.938,0.163-0.921,0.9c0.037,1.591,0.357,3.131,0.66,4.679
		c0.04,0.204,0.121,0.399,0.307,0.525c-0.002,0.403-0.353,0.559-0.589,0.771c-1.757,1.576-1.404,4,0.767,5.25
		c0.729,0.42,1.532,0.627,2.381,0.646c0.303,0.008,0.633-0.061,0.874,0.214c-0.583,0.168-0.629,0.385-0.277,0.934
		c1.346,2.099,2.873,4.039,4.698,5.734c1.248,1.16,2.609,2.181,4.01,3.148c-3.137-0.483-6.004-1.681-8.571-3.503
		c-6.627-4.709-9.891-11.169-9.858-19.304c0.003-0.758,0.169-0.883,0.857-0.533c0.773,0.394,1.645,0.454,2.511,0.453
		c8.171-0.003,16.343-0.005,24.516-0.009C48.382,35.84,48.72,35.819,49.058,35.807z"/>
	<path fill-rule="evenodd" clip-rule="evenodd" fill="#D5C3E9" d="M20.99,48.878c-1.662,0-3.248,0.091-4.817-0.023
		c-1.979-0.143-3.514-1.725-3.547-3.708c-0.067-3.979-0.071-7.96,0.003-11.938c0.039-2.072,1.806-3.677,3.794-3.719
		c0.44-0.009,0.598,0.112,0.599,0.557c0.001,0.738,0.169,1.478,0.563,2.083c0.451,0.692,0.45,1.382,0.375,2.141
		c-0.508,5.06,0.506,9.814,2.907,14.285C20.901,48.62,20.921,48.695,20.99,48.878z"/>
	<path fill-rule="evenodd" clip-rule="evenodd" fill="#D5C3E9" d="M64.286,48.9c1.255-2.298,2.149-4.583,2.661-7.009
		c0.524-2.485,0.716-4.992,0.436-7.523c-0.078-0.706-0.083-1.348,0.357-1.997c0.451-0.665,0.681-1.477,0.677-2.29
		c-0.004-0.609,0.282-0.611,0.72-0.54c1.598,0.257,3.003,1.689,3.212,3.301c0.047,0.36,0.059,0.727,0.059,1.09
		c0.005,3.487,0.006,6.975,0.002,10.463c-0.004,2.905-1.591,4.499-4.476,4.504C66.765,48.902,65.596,48.9,64.286,48.9z"/>
	<path fill-rule="evenodd" clip-rule="evenodd" fill="#666667" d="M59.533,66.262c-0.812,1.18-0.819,2.511-0.798,3.874
		c0.039,2.6,0.026,5.2,0.002,7.799c-0.007,0.85,0.192,1.587,0.795,2.197c-1.587,0.007-3.175,0.033-4.762,0.013
		c-1.268-0.017-2.115-0.859-2.122-2.114c-0.017-3.123-0.018-6.247,0-9.369c0.008-1.3,1.021-2.387,2.281-2.416
		C56.463,66.208,57.999,66.252,59.533,66.262z"/>
	<path fill-rule="evenodd" clip-rule="evenodd" fill="#FECCBD" d="M48.427,60.828c-0.188,2.222-1.886,4.177-4.101,4.812
		c-2.294,0.659-4.767-0.151-6.209-2.033c-0.48-0.627-0.801-1.328-1.033-2.081c-0.167-0.541-0.024-0.697,0.534-0.569
		c2.38,0.542,4.792,0.628,7.218,0.44C46.024,61.307,47.195,61.087,48.427,60.828z"/>
	<path fill-rule="evenodd" clip-rule="evenodd" fill="#BC9BDD" d="M10.244,38.822c0,1.766-0.017,3.532,0.01,5.297
		c0.008,0.571-0.161,0.668-0.677,0.475c-1.811-0.678-2.935-1.931-3.188-3.858c-0.169-1.288-0.181-2.6,0.011-3.885
		c0.287-1.922,1.438-3.156,3.258-3.803c0.508-0.18,0.609-0.033,0.601,0.476c-0.031,1.766-0.012,3.532-0.012,5.298
		C10.246,38.822,10.245,38.822,10.244,38.822z"/>
	<path fill-rule="evenodd" clip-rule="evenodd" fill="#BC9BDD" d="M74.748,38.769c0-1.766,0.02-3.532-0.012-5.297
		c-0.009-0.507,0.144-0.582,0.578-0.431c1.823,0.634,2.982,1.867,3.278,3.786c0.202,1.31,0.192,2.649,0.007,3.961
		c-0.271,1.925-1.417,3.165-3.229,3.826c-0.501,0.184-0.632,0.037-0.626-0.47c0.021-1.791,0.009-3.583,0.009-5.375
		C74.751,38.769,74.75,38.769,74.748,38.769z"/>
	<path fill-rule="evenodd" clip-rule="evenodd" fill="#FEA0AB" d="M55.292,41.122c0.938,0.347,1.978,0.292,2.878,0.829
		c1.26,0.751,2.183,1.701,2.131,3.26c-0.053,1.58-0.999,2.61-2.361,3.189c-1.983,0.844-3.929,0.75-5.739-0.568
		c-1.721-1.253-1.931-3.459-0.449-4.998c0.178-0.184,0.411-0.329,0.455-0.613C53.278,41.977,54.312,41.625,55.292,41.122z"/>
	<path fill-rule="evenodd" clip-rule="evenodd" fill="#FEA0AB" d="M30.159,48.92c-0.745-0.032-1.495,0.035-2.228-0.197
		c-1.495-0.475-2.692-1.323-3.054-2.898c-0.387-1.685,0.559-2.85,1.849-3.785c0.843-0.384,1.7-0.712,2.653-0.649
		c0.18,0.012,0.362,0,0.491-0.158c0.196-0.044,0.361,0.044,0.503,0.151c0.645,0.487,1.372,0.692,2.172,0.677
		c0.153-0.002,0.314,0.001,0.399,0.17c0.25,0.605,0.856,0.946,1.113,1.56c0.718,1.711,0.032,3.515-1.762,4.503
		C31.633,48.658,30.914,48.853,30.159,48.92z"/>
	<path fill-rule="evenodd" clip-rule="evenodd" d="M42.551,44.074c-1.306-0.02-2.422-0.498-3.326-1.452
		c-0.52-0.548-0.546-1.187-0.099-1.675c0.459-0.501,1.146-0.497,1.734,0.011c1.216,1.048,2.184,1.052,3.381,0.012
		c0.585-0.508,1.279-0.522,1.735-0.035c0.452,0.483,0.405,1.185-0.136,1.74C44.943,43.594,43.845,44.052,42.551,44.074z"/>
	<path fill-rule="evenodd" clip-rule="evenodd" d="M32.945,42.229c-1.188,0.172-2.198-0.208-3.074-0.998
		c-0.414-0.593-0.55-1.207,0.053-1.738c0.594-0.522,1.17-0.354,1.73,0.141c0.476,0.421,0.976,0.365,1.472-0.038
		c0.673-0.545,1.333-0.537,1.783-0.015c0.464,0.538,0.345,1.255-0.309,1.838C34.125,41.845,33.565,42.1,32.945,42.229z"/>
	<path fill-rule="evenodd" clip-rule="evenodd" d="M55.292,41.122c-0.854,0.859-1.88,1.233-3.087,1.1
		c-0.73-0.145-1.376-0.456-1.892-1.004c-0.519-0.55-0.555-1.176-0.104-1.672c0.437-0.479,1.113-0.528,1.672-0.047
		c0.531,0.459,1.049,0.571,1.591,0.088c0.538-0.48,1.109-0.611,1.678-0.141C55.729,39.925,55.67,40.527,55.292,41.122z"/>
	<path fill-rule="evenodd" clip-rule="evenodd" d="M61.064,71.544c-0.01-1.947,1.553-3.539,3.488-3.553
		c1.9-0.012,3.554,1.644,3.533,3.537c-0.021,1.913-1.576,3.472-3.48,3.487C62.623,75.033,61.074,73.515,61.064,71.544z"/>
	<path fill-rule="evenodd" clip-rule="evenodd" fill="#ECECEC" d="M64.569,72.672c-0.643,0.007-1.139-0.465-1.162-1.105
		c-0.024-0.662,0.493-1.219,1.14-1.226c0.631-0.007,1.201,0.572,1.185,1.203C65.714,72.169,65.202,72.666,64.569,72.672z"/>
</g>
</svg>
