<?xml version="1.0" encoding="utf-8"?>
<!-- Generator: Adobe Illustrator 16.0.2, SVG Export Plug-In . SVG Version: 6.00 Build 0)  -->
<!DOCTYPE svg PUBLIC "-//W3C//DTD SVG 1.1 Tiny//EN" "http://www.w3.org/Graphics/SVG/1.1/DTD/svg11-tiny.dtd">
<svg version="1.1" baseProfile="tiny" id="Layer_1" xmlns="http://www.w3.org/2000/svg" xmlns:xlink="http://www.w3.org/1999/xlink"
	 x="0px" y="0px" width="85px" height="85px" viewBox="0 0 85 85" xml:space="preserve">
<g>
	<path d="M72.022,2.5c0.25,0.114,0.512,0.204,0.746,0.342c1.066,0.625,1.57,1.555,1.464,2.797c-0.097,1.125-0.856,2.059-2.029,2.407
		c-0.364,0.108-0.552,0.2-0.55,0.645c0.019,5.806,0.019,11.612,0,17.418c-0.002,0.454,0.24,0.639,0.541,0.853
		c2.672,1.897,5.344,3.793,8.008,5.699c1.367,0.979,1.886,2.377,1.439,3.802c-0.668,2.119-3.102,2.961-5.005,1.699
		c-1.207-0.803-2.374-1.67-3.564-2.513c-0.207,0.182-0.106,0.403-0.106,0.589c-0.006,14.659-0.003,29.319-0.02,43.977
		c0,0.555,0.087,0.789,0.706,0.732c0.697-0.064,1.404-0.003,2.108-0.019c0.584-0.014,1.093,0.117,1.083,0.804
		c-0.008,0.63-0.485,0.791-1.046,0.764c-0.129-0.008-0.26-0.002-0.389-0.002c-21.951,0-43.899,0-65.849-0.002
		c-0.614,0-1.405,0.138-1.409-0.778c-0.003-0.918,0.79-0.776,1.403-0.781c0.676-0.006,1.354-0.018,2.031,0.005
		c0.329,0.011,0.498-0.07,0.442-0.427c-0.011-0.076-0.001-0.155-0.001-0.234c0-14.71,0-29.422,0-44.132c0-0.148,0-0.296,0-0.57
		c-1.312,0.929-2.513,1.82-3.755,2.648c-1.238,0.825-2.805,0.701-3.917-0.237c-1.067-0.898-1.448-2.469-0.904-3.761
		c0.259-0.616,0.684-1.096,1.227-1.483c11.925-8.491,23.848-16.987,35.777-25.474c1.459-1.039,2.75-0.959,4.375,0.197
		c4.724,3.364,9.447,6.727,14.171,10.09c0.186,0.134,0.377,0.263,0.56,0.391c0.22-0.103,0.128-0.283,0.128-0.417
		c0.007-2.917,0.009-5.833-0.001-8.749c-0.001-0.269,0.137-0.559-0.36-0.695c-1.413-0.386-2.179-1.357-2.239-2.652
		c-0.06-1.229,0.645-2.223,1.969-2.791c0.061-0.026,0.104-0.093,0.157-0.142C63.481,2.5,67.752,2.5,72.022,2.5z"/>
	<path fill="#70D5F8" d="M74.83,50.837c0.089-0.677,0.482-1.022,1.156-0.988c0.443,0.021,0.595-0.136,0.576-0.577
		c-0.03-0.669,0.293-1.137,0.989-1.13c0.697,0.006,1.002,0.512,1.007,1.147c0.003,0.461,0.18,0.584,0.6,0.558
		c0.668-0.042,1.064,0.352,1.095,0.959c0.032,0.635-0.417,1.021-1.032,1.032c-0.509,0.012-0.66,0.16-0.667,0.669
		c-0.012,0.618-0.396,1.07-1.031,1.031c-0.599-0.038-0.996-0.445-0.96-1.104c0.022-0.436-0.123-0.585-0.57-0.589
		C75.357,51.84,74.897,51.55,74.83,50.837z"/>
	<path fill="#FB657E" d="M21.183,10.018c1.454-0.417,2.326-1.368,2.782-2.886c0.444,1.497,1.299,2.424,2.977,2.868
		c-1.611,0.466-2.552,1.335-2.961,2.917C23.505,11.381,22.641,10.43,21.183,10.018z"/>
	<path fill="#88D148" d="M7.885,71.512c-0.331-1.092-0.969-1.689-1.991-2.037c1.01-0.344,1.654-0.918,1.968-2.011
		c0.356,1.05,0.936,1.707,2.071,1.993C8.859,69.809,8.197,70.405,7.885,71.512z"/>
	<path fill="#F4C84D" d="M18.771,16.052c0,0.569-0.471,1.07-1.008,1.073c-0.559,0.003-1.043-0.467-1.06-1.027
		c-0.017-0.622,0.448-1.106,1.053-1.095C18.349,15.015,18.772,15.452,18.771,16.052z"/>
	<path fill="#FB667F" d="M76.151,58.127c0.585-0.014,1.037,0.418,1.058,1.008c0.018,0.573-0.425,1.08-0.968,1.109
		c-0.586,0.031-1.104-0.465-1.104-1.059C75.139,58.598,75.577,58.139,76.151,58.127z"/>
	<path fill="#FBDC85" d="M42.494,80.933c-9.372,0-18.743-0.008-28.115,0.016c-0.639,0.001-0.809-0.137-0.808-0.795
		c0.021-14.994,0.02-29.989,0.006-44.983c0-0.519,0.146-0.834,0.58-1.142c9.266-6.579,18.522-13.172,27.77-19.779
		c0.43-0.307,0.698-0.319,1.136-0.005c9.245,6.61,18.499,13.204,27.766,19.785c0.433,0.307,0.582,0.621,0.58,1.14
		c-0.013,14.994-0.016,29.988,0.007,44.983c0.001,0.656-0.164,0.799-0.806,0.797C61.237,80.925,51.865,80.933,42.494,80.933z"/>
	<path fill="#FB657E" d="M80.204,35.28c-0.004,0.866-0.287,1.373-0.853,1.69c-0.652,0.367-1.304,0.292-1.909-0.135
		c-1.317-0.93-2.629-1.867-3.941-2.804c-9.978-7.107-19.954-14.217-29.933-21.325c-1.068-0.763-1.078-0.76-2.17,0.019
		C30.297,20.632,19.197,28.538,8.095,36.444c-0.233,0.165-0.462,0.341-0.708,0.484c-0.827,0.479-1.757,0.296-2.29-0.438
		c-0.521-0.715-0.41-1.712,0.3-2.313c0.436-0.369,0.916-0.686,1.382-1.016C18.219,25.013,29.66,16.866,41.101,8.72
		c1.167-0.831,1.63-0.831,2.808,0.008c11.716,8.344,23.429,16.689,35.146,25.032C79.663,34.194,80.236,34.639,80.204,35.28z"/>
	<path fill="#3A70BE" d="M70.112,25.473c-0.954-0.682-1.774-1.269-2.595-1.852c-1.927-1.372-3.85-2.75-5.786-4.109
		c-0.325-0.228-0.492-0.457-0.49-0.88c0.02-3.278,0.021-6.556,0-9.833c-0.004-0.513,0.144-0.665,0.657-0.66
		c2.521,0.023,5.046,0.02,7.568,0.003c0.448-0.003,0.653,0.1,0.653,0.602C70.106,14.257,70.112,19.772,70.112,25.473z"/>
	<path fill="#528FDA" d="M65.701,6.588c-1.845,0-3.692,0.005-5.535-0.002c-0.958-0.003-1.535-0.505-1.514-1.287
		c0.021-0.743,0.6-1.232,1.5-1.235c3.691-0.006,7.381-0.007,11.071,0c0.923,0.001,1.45,0.475,1.455,1.26s-0.515,1.256-1.441,1.26
		C69.392,6.595,67.546,6.588,65.701,6.588z"/>
	<path d="M46.49,51.558c2.644,0,5.138,0,7.632,0c3.124,0,6.249-0.002,9.373,0.002c1.643,0.002,2.437,0.796,2.438,2.441
		c0.003,5.858,0.008,11.717-0.015,17.574c-0.002,0.443,0.105,0.614,0.518,0.765c0.74,0.269,1.063,0.871,1.058,1.652
		c-0.015,1.828-1.543,3.377-3.442,3.484c-0.233,0.014-0.468,0.006-0.703,0.006c-13.825,0-27.651,0-41.477,0
		c-1.922,0-2.585-0.685-2.48-2.612c0.201-3.64,0.408-7.277,0.633-10.914c0.131-2.136,1.338-3.598,3.397-4.141
		c2.009-0.53,4.027-1.028,6.034-1.563c0.622-0.167,1.189-0.39,1.607-0.989c0.41-0.588,1-1.055,1.528-1.558
		c0.166-0.157,0.381-0.265,0.579-0.384c0.267-0.161,0.795,0.121,0.795-0.496c0-0.565,0.042-1.042-0.575-1.458
		c-2.11-1.421-3.458-3.415-4.034-5.906c-0.104-0.451-0.214-0.704-0.8-0.793c-3.416-0.521-4.964-4.556-2.813-7.28
		c0.319-0.402,0.419-0.789,0.426-1.275c0.03-1.92-0.164-3.852,0.365-5.744c1.21-4.333,5.13-7.354,9.625-7.39
		c0.911-0.006,1.822,0.002,2.734-0.001c1.706-0.004,3.141,0.636,4.317,1.851c0.255,0.261,0.425,0.4,0.85,0.269
		c4.073-1.253,7.771,1.43,7.856,5.69c0.038,1.874,0.017,3.749,0.002,5.624c-0.004,0.459,0.103,0.835,0.367,1.229
		c1.906,2.847,0.242,6.552-3.165,7.063c-0.311,0.049-0.5,0.075-0.57,0.459C48.26,48.745,47.579,50.164,46.49,51.558z"/>
	<path fill="#ECF3FB" d="M52.026,72.183c-3.774,0-7.548,0.001-11.321,0c-0.958-0.002-1.019-0.063-1.02-1.024
		c-0.001-5.675-0.001-11.35,0-17.023c0-0.954,0.06-1.013,1.027-1.013c7.548-0.002,15.096-0.002,22.644,0
		c0.965,0,1.014,0.051,1.014,1.022c0.001,5.673,0.001,11.348,0,17.021c0,0.967-0.05,1.016-1.022,1.018
		C59.575,72.184,55.799,72.183,52.026,72.183z"/>
	<path fill="#F8CFB3" d="M47.177,42.225c-0.078,1.284,0.128,2.847-0.122,4.399c-0.282,1.751-1.067,3.233-2.294,4.505
		c-0.316,0.328-0.643,0.451-1.093,0.44c-1.145-0.028-2.289-0.021-3.433-0.004c-0.92,0.013-1.677,0.433-1.922,1.31
		c-0.221,0.787-0.664,0.613-1.152,0.504c-3.619-0.817-6.257-3.853-6.468-7.638c-0.127-2.281-0.028-4.576-0.053-6.864
		c-0.006-0.69,0.441-0.41,0.744-0.376c2.505,0.277,4.864-0.125,7.032-1.458c0.712-0.438,1.362-0.958,1.91-1.59
		c0.253-0.292,0.417-0.327,0.749-0.07c1.588,1.229,3.428,1.826,5.41,1.955c0.598,0.04,0.723,0.24,0.705,0.793
		C47.148,39.402,47.177,40.678,47.177,42.225z"/>
	<path fill="#70D5F8" d="M37.142,75.921c-3.179,0-6.275-0.014-9.369,0.014c-0.572,0.005-0.541-0.297-0.54-0.683
		c0.006-2.551,0.003-5.103,0.003-7.652c0-0.208,0-0.416-0.002-0.625c-0.004-0.503-0.183-0.887-0.747-0.897
		c-0.606-0.013-0.805,0.396-0.81,0.926c-0.011,0.988-0.036,1.98,0.008,2.967c0.024,0.545-0.136,0.714-0.688,0.691
		c-1.066-0.043-2.133-0.029-3.2-0.005c-0.424,0.011-0.596-0.084-0.564-0.552c0.139-2.077,0.208-4.159,0.374-6.232
		c0.106-1.33,0.868-2.192,2.173-2.544c2.305-0.622,4.658-1.072,6.918-1.854c0.349-0.121,0.474,0.069,0.65,0.246
		c1.033,1.03,2.057,2.065,3.095,3.088c0.851,0.84,1.589,0.851,2.435,0.029c0.372-0.361,0.71-0.758,1.058-1.133
		c0.292,0.199,0.179,0.426,0.18,0.611c0.01,3.124,0.009,6.247,0.009,9.37c0,0.216,0.077,0.4-0.241,0.555
		c-1.364,0.667-1.637,1.514-1.042,2.998C36.918,75.43,37.007,75.614,37.142,75.921z"/>
	<path fill="#754E34" d="M50.332,34.833c0,0.859-0.007,1.716,0.006,2.576c0.004,0.374-0.024,0.578-0.514,0.44
		c-0.594-0.167-1.169-0.187-1.175-1.069c-0.002-0.458-0.429-0.807-0.968-0.867c-0.669-0.074-1.34-0.147-2.005-0.252
		c-1.521-0.24-2.875-0.849-4.07-1.831c-0.787-0.646-1.424-0.598-2.091,0.19c-1.956,2.312-4.487,3.156-7.43,2.993
		c-0.388-0.021-0.778-0.07-1.156-0.153c-0.697-0.151-1.243-0.022-1.71,0.584c-0.292,0.379-0.846,0.293-1.293,0.354
		c-0.191,0.026-0.23-0.172-0.237-0.334c-0.144-3.347,0.246-6.516,3.015-8.867c1.493-1.269,3.218-1.984,5.188-2.04
		c0.937-0.027,1.874,0.016,2.809-0.016c1.618-0.056,2.884,0.605,3.811,1.888c0.434,0.602,0.827,0.701,1.503,0.375
		c3.021-1.461,6.275,0.573,6.316,3.92C50.34,33.428,50.332,34.13,50.332,34.833z"/>
	<path fill="#D9E5F0" d="M52.038,73.744c4.396,0,8.795,0,13.191,0.002c0.773,0,0.846,0.114,0.558,0.854
		c-0.321,0.832-1.021,1.308-2.014,1.315c-1.482,0.016-2.965,0.006-4.449,0.006c-6.219,0-12.439,0-18.657-0.002
		c-1.341-0.002-2.05-0.402-2.401-1.331c-0.276-0.729-0.201-0.842,0.578-0.844C43.243,73.744,47.64,73.744,52.038,73.744z"/>
	<path fill="#F7CFB3" d="M23.347,75.921c-0.598,0-1.197-0.018-1.795,0.006c-0.477,0.02-0.657-0.172-0.62-0.646
		c0.068-0.882,0.117-1.766,0.154-2.648c0.013-0.285,0.094-0.425,0.406-0.425c1.249,0.012,2.499,0.014,3.748-0.002
		c0.357-0.004,0.44,0.153,0.437,0.47c-0.011,0.938-0.015,1.875,0.001,2.812c0.006,0.342-0.125,0.45-0.457,0.44
		C24.597,75.907,23.972,75.921,23.347,75.921z"/>
	<path fill="#F8CFB3" d="M48.738,42.177c0-0.83,0.014-1.66-0.006-2.488c-0.007-0.357,0.044-0.514,0.468-0.417
		c1.31,0.298,2.341,1.57,2.333,2.939c-0.008,1.338-1.013,2.595-2.282,2.901c-0.436,0.106-0.535-0.029-0.521-0.446
		C48.758,43.836,48.738,43.005,48.738,42.177z"/>
	<path fill="#F8CFB3" d="M29.085,42.222c0,0.832-0.018,1.664,0.007,2.496c0.013,0.414-0.144,0.476-0.508,0.394
		c-1.272-0.289-2.279-1.56-2.281-2.912c-0.002-1.363,0.97-2.582,2.271-2.917c0.464-0.12,0.528,0.046,0.518,0.443
		C29.071,40.559,29.085,41.391,29.085,42.222z"/>
	<path fill="#9AE4F7" d="M37.22,60.445c-0.347,0.294-0.723,0.539-1.001,0.868c-0.387,0.454-0.649,0.487-1.078,0.017
		c-0.819-0.901-1.702-1.749-2.581-2.594c-0.287-0.278-0.384-0.434-0.044-0.779c1.13-1.145,1.111-1.161,2.259-0.015
		c0.662,0.66,1.323,1.319,1.981,1.983C36.881,60.052,36.995,60.192,37.22,60.445z"/>
	<path fill="#F6CEB2" d="M35.568,54.57c0.744,0.18,1.45,0.429,2.197,0.482c0.24,0.017,0.364,0.121,0.362,0.39
		c-0.009,1.153-0.003,2.309-0.003,3.651c-0.962-0.967-1.787-1.811-2.628-2.636c-0.237-0.231-0.15-0.442-0.088-0.704
		C35.494,55.383,35.514,54.994,35.568,54.57z"/>
	<path d="M52.044,63.434c-0.701,0-1.4,0.002-2.101-0.002c-0.521-0.003-0.868-0.26-0.866-0.785c0.004-0.523,0.355-0.775,0.875-0.775
		c1.375-0.001,2.75,0.001,4.125-0.002c0.512-0.001,0.884,0.214,0.901,0.747c0.019,0.58-0.363,0.816-0.911,0.816
		C53.394,63.434,52.721,63.434,52.044,63.434z"/>
	<path fill="#010101" d="M39.176,49.272c-1.113-0.002-2.088-0.354-2.889-1.146c-0.355-0.351-0.52-0.757-0.146-1.165
		c0.389-0.426,0.807-0.329,1.229,0.032c1.135,0.976,2.462,0.983,3.588,0.02c0.416-0.356,0.829-0.5,1.222-0.062
		c0.389,0.433,0.214,0.862-0.169,1.229C41.216,48.935,40.259,49.266,39.176,49.272z"/>
	<path fill="#010101" d="M34.295,42.743c-0.003-0.599,0.474-1.078,1.076-1.082c0.607-0.002,1.08,0.464,1.083,1.069
		c0.003,0.6-0.476,1.088-1.07,1.09C34.791,43.823,34.299,43.338,34.295,42.743z"/>
	<path fill="#010101" d="M42.743,43.818c-0.592,0.015-1.094-0.464-1.109-1.056c-0.015-0.597,0.455-1.085,1.056-1.099
		c0.611-0.014,1.088,0.44,1.102,1.048C43.805,43.314,43.34,43.805,42.743,43.818z"/>
</g>
</svg>
