<?xml version="1.0" encoding="utf-8"?>
<!-- Generator: Adobe Illustrator 16.0.0, SVG Export Plug-In . SVG Version: 6.00 Build 0)  -->
<!DOCTYPE svg PUBLIC "-//W3C//DTD SVG 1.1//EN" "http://www.w3.org/Graphics/SVG/1.1/DTD/svg11.dtd">
<svg version="1.1" id="Layer_1" xmlns="http://www.w3.org/2000/svg" xmlns:xlink="http://www.w3.org/1999/xlink" x="0px" y="0px"
	 width="85px" height="85px" viewBox="0 0 85 85" enable-background="new 0 0 85 85" xml:space="preserve">
<g>
	<path fill="#8ACC9C" d="M14.942,27.515c0-1.902,3.443-6.029,3.443-6.029s3.447,4.127,3.447,6.029c0,1.903-1.545,3.444-3.447,3.444
		C16.485,30.96,14.942,29.418,14.942,27.515"/>
	<path fill="#F16D99" d="M70.06,43.188l-6.891-11.022H38.366l-6.889,11.022v33.072c0,3.042,2.467,5.51,5.512,5.51h27.559
		c3.045,0,5.512-2.468,5.512-5.51V43.188L70.06,43.188z"/>
	<path fill="#F7C6AE" d="M59.036,32.166H42.501v-5.352c0-1.61,1.305-2.916,2.916-2.916H56.12c1.609,0,2.916,1.306,2.916,2.916
		V32.166z"/>
	<path fill="#2A8FCE" d="M46.636,14.253h8.268v9.646h-8.268V14.253z"/>
	<path fill="#F7C6AE" d="M59.036,14.253H42.501V3.229H56.12c1.609,0,2.916,1.305,2.916,2.916V14.253z"/>
	<path fill="#2A8FCE" d="M42.501,11.497H14.942V8.899c0-1.609,1.307-2.914,2.916-2.914h24.645v5.512H42.501z"/>
	<path fill="#2A8FCE" d="M14.942,11.497h6.891v6.89h-6.891V11.497z M61.792,56.97c0,7.61-4.936,13.778-11.023,13.778
		c-6.09,0-11.023-6.168-11.023-13.778s4.936-13.78,11.023-13.78C56.856,43.188,61.792,49.358,61.792,56.97"/>
	<path fill="#010101" d="M64.548,82.501H36.989c-3.441,0-6.24-2.801-6.24-6.241v-33.07c0-0.137,0.039-0.27,0.111-0.386l6.887-11.025
		c0.133-0.213,0.367-0.342,0.619-0.342h24.803c0.252,0,0.484,0.129,0.619,0.342l6.891,11.024c0.072,0.116,0.109,0.25,0.109,0.386
		v22.104c0,0.402-0.326,0.729-0.729,0.729c-0.404,0-0.73-0.326-0.73-0.729V43.396l-6.566-10.504H38.771l-6.564,10.504v32.861
		c0,2.638,2.146,4.783,4.781,4.783h27.559c2.641,0,4.783-2.146,4.783-4.783v-3.157c0-0.402,0.326-0.729,0.73-0.729
		c0.402,0,0.729,0.325,0.729,0.729v3.157C70.788,79.7,67.989,82.501,64.548,82.501z M70.06,70.442c-0.402,0-0.729-0.326-0.729-0.729
		v-0.631c0-0.402,0.326-0.729,0.729-0.729s0.729,0.326,0.729,0.729v0.631C70.788,70.116,70.462,70.442,70.06,70.442z M18.386,31.688
		c-2.301,0-4.172-1.872-4.172-4.173c0-2.106,3.244-6.053,3.613-6.496c0.139-0.166,0.344-0.262,0.559-0.262
		c0.217,0,0.422,0.096,0.561,0.262c0.371,0.443,3.617,4.39,3.617,6.496C22.562,29.816,20.69,31.688,18.386,31.688z M18.386,22.649
		c-1.223,1.577-2.715,3.838-2.715,4.866c0,1.498,1.217,2.716,2.715,2.716s2.719-1.218,2.719-2.716
		C21.104,26.486,19.61,24.226,18.386,22.649z"/>
	<path fill="#010101" d="M59.036,32.894H42.501c-0.402,0-0.729-0.326-0.729-0.729v-5.352c0-2.009,1.635-3.645,3.645-3.645h0.488
		v-8.189h-3.404c-0.402,0-0.729-0.326-0.729-0.729v-2.026h-26.83c-0.402,0-0.73-0.327-0.73-0.729V8.741
		c0-1.922,1.564-3.485,3.486-3.485h4.824c0.4,0,0.729,0.325,0.729,0.729c0,0.402-0.328,0.729-0.729,0.729h-4.824
		c-1.119,0-2.029,0.91-2.029,2.027v2.026h26.104V6.714H28.72c-0.402,0-0.729-0.326-0.729-0.729s0.326-0.729,0.729-0.729h13.053
		V3.229c0-0.401,0.324-0.729,0.729-0.729h13.617c2.01,0,3.645,1.636,3.645,3.645v8.108c0,0.401-0.324,0.729-0.729,0.729H55.63v8.189
		h0.488c2.01,0,3.645,1.635,3.645,3.645v5.352C59.765,32.567,59.438,32.894,59.036,32.894z M43.231,31.437h15.076v-4.622
		c0-1.206-0.98-2.187-2.188-2.187H45.417c-1.205,0-2.188,0.98-2.188,2.187v4.622H43.231z M47.364,23.17h6.809v-8.188h-6.809V23.17z
		 M43.231,13.523h15.076V6.145c0-1.206-0.98-2.187-2.188-2.187H43.229v9.565H43.231z M25.851,6.714H25.22
		c-0.402,0-0.729-0.326-0.729-0.729s0.326-0.729,0.729-0.729h0.631c0.402,0,0.729,0.325,0.729,0.729
		C26.579,6.388,26.253,6.714,25.851,6.714z"/>
	<path fill="#010101" d="M50.769,71.476c-3.17,0-6.141-1.53-8.365-4.309c-2.186-2.731-3.387-6.354-3.387-10.198
		s1.201-7.468,3.387-10.199c2.225-2.779,5.195-4.31,8.365-4.31s6.141,1.529,8.363,4.31c2.186,2.731,3.389,6.354,3.389,10.199
		s-1.203,7.467-3.389,10.198C56.909,69.945,53.938,71.476,50.769,71.476z M50.769,43.919c-5.678,0-10.295,5.854-10.295,13.051
		c0,7.195,4.619,13.05,10.295,13.05s10.295-5.854,10.295-13.05C61.063,49.772,56.444,43.919,50.769,43.919z M21.833,19.115h-6.891
		c-0.402,0-0.73-0.325-0.73-0.729v-6.89c0-0.403,0.326-0.729,0.73-0.729h6.891c0.402,0,0.729,0.326,0.729,0.729v6.89
		C22.562,18.79,22.235,19.115,21.833,19.115z M15.671,17.658h5.434v-5.433h-5.434V17.658z"/>
</g>
</svg>
