<?xml version="1.0" encoding="utf-8"?>
<!-- Generator: Adobe Illustrator 16.0.0, SVG Export Plug-In . SVG Version: 6.00 Build 0)  -->
<!DOCTYPE svg PUBLIC "-//W3C//DTD SVG 1.1//EN" "http://www.w3.org/Graphics/SVG/1.1/DTD/svg11.dtd">
<svg version="1.1" id="Layer_1" xmlns="http://www.w3.org/2000/svg" xmlns:xlink="http://www.w3.org/1999/xlink" x="0px" y="0px"
	 width="85px" height="85px" viewBox="0 0 85 85" enable-background="new 0 0 85 85" xml:space="preserve">
<g>
	<path fill-rule="evenodd" clip-rule="evenodd" fill="#8A5093" d="M21.785,82.5c0.013-0.984,0.189-1.954,0.276-2.932
		c0.194-2.174,0.424-4.343,0.613-6.516c0.241-2.779,0.453-5.56,0.515-8.349c0.002-0.066,0.026-0.131,0.04-0.196
		c0.128,0.355-0.003,0.729,0.058,1.021c-0.007-1.139,0-2.345-0.005-3.551c0-0.146,0.034-0.295-0.033-0.436
		c0.195-3.479,1.132-6.63,3.943-8.956c0.417-0.508,1.009-0.673,1.611-0.683c0.685-0.012,1.368,0.116,1.992,0.446
		c0.337,0.179,0.643,0.394,0.88,0.696c0.718,1.099,1.44,2.192,2.231,3.24c0.052,0.081,0.11,0.157,0.167,0.234
		c1.174,1.564,2.394,3.091,3.823,4.43c0.845,0.792,1.742,1.521,2.825,1.994c0.947,0.414,1.833,0.298,2.712-0.177
		c1.226-0.663,2.237-1.594,3.164-2.612c1.254-1.374,2.391-2.846,3.44-4.382c0.137-0.156,0.248-0.33,0.354-0.507
		c0.514-0.748,1.008-1.508,1.458-2.297c0.279-0.415,0.742-0.575,1.152-0.793c0.715-0.381,1.475-0.655,2.276-0.809
		c0.708-0.137,1.365,0.007,2.006,0.293c0.122,0.055,0.247,0.115,0.284,0.266c1.824,1.303,2.687,3.211,3.283,5.272
		c0.326,1.125,0.536,2.276,0.577,3.453c-0.075,0.764-0.015,1.53-0.031,2.296c-0.012,0.512,0.01,1.023-0.004,1.536
		c0.005-1.049,0.004-2.098,0.007-3.146c0-0.103-0.034-0.217,0.049-0.309c0.103,0.37,0.065,0.751,0.061,1.125
		c-0.051,4.021,0.289,8.021,0.634,12.022c0.238,2.777,0.524,5.55,0.832,8.321c-2.859,0-5.719,0-8.579,0
		c-0.127-0.134-0.175-0.303-0.183-0.479c-0.052-1.123-0.226-2.235-0.293-3.355c0.062-0.268,0.301-0.406,0.457-0.603
		c1.388-1.728,2.038-3.709,2.093-5.908c0.068-2.663-0.813-5.065-2.09-7.336c-0.628-1.117-0.945-2.281-0.947-3.546
		c0-0.343,0.115-0.68,0.113-0.933c-0.018-0.148-0.104-0.09-0.051-0.104c0.022-0.006,0.034,0,0.035,0.017
		c0.016,0.506-0.075,1.007-0.094,1.513c-0.043,1.206,0.323,2.276,0.835,3.334c0.887,1.828,1.597,3.717,1.818,5.755
		c0.041,0.387,0.103,0.777-0.051,1.157c-1.353,1.204-2.945,1.982-4.633,2.578c-1.957,0.69-3.989,1.001-6.055,1.159
		c-1.815,0.139-3.631,0.151-5.449,0.152c-0.538,0.001-1.072,0.079-1.612,0.086c-1.215,0.018-2.412-0.196-3.623-0.231
		c-1.134-0.034-2.254-0.194-3.361-0.437c-1.34-0.293-2.616-0.749-3.74-1.563c-0.223-0.301-0.208-0.662-0.225-1.005
		c-0.104-2.021,0.28-3.963,1.012-5.838c0.542-1.391,1.115-2.77,1.457-4.229c0.064-0.274,0.117-0.551,0.187-0.822
		c0.034-0.164,0.066-0.329,0.113-0.562c-0.002,0.016-0.102,0.082-0.05,0.066c0.041,0.133-0.031,0.254-0.045,0.381
		c-0.269,1.471-0.882,2.824-1.456,4.188c-0.617,1.471-1.222,2.937-1.45,4.529c-0.399,2.793,0.199,5.325,1.939,7.568
		c0.253,0.325,0.572,0.567,0.932,0.759c0.273,0.145,0.561,0.263,0.803,0.464c0.015,0.045,0.016,0.089,0.003,0.135
		c-0.201,0.874-0.179,1.774-0.302,2.657c-0.022,0.157-0.004,0.322-0.123,0.452C27.504,82.5,24.645,82.5,21.785,82.5z"/>
	<path fill-rule="evenodd" clip-rule="evenodd" fill="#7A4582" d="M30.768,79.342c0-0.026,0-0.053,0-0.08
		c-1.266-0.515-1.945-1.555-2.456-2.746c-0.313-0.731-0.586-1.476-0.744-2.259c-0.039-0.194-0.115-0.395,0.042-0.576
		c1.101,0.725,2.3,1.222,3.585,1.499c1.138,0.244,2.289,0.406,3.458,0.454c1.445,0.058,2.884,0.337,4.333,0.219
		c1.386-0.113,2.771-0.001,4.153-0.077c2.299-0.126,4.596-0.263,6.836-0.871c2.137-0.579,4.13-1.438,5.857-2.854
		c0.048-0.039,0.121-0.048,0.184-0.072c0.207,0.336,0.132,0.713,0.095,1.058c-0.195,1.87-0.732,3.626-1.87,5.158
		c-0.252,0.34-0.597,0.591-0.887,0.896c-0.042,0.091-0.117,0.154-0.205,0.186c-0.482,0.17-0.618,0.553-0.654,1.013
		c-0.045,0.563-0.135,1.123-0.181,1.688c-0.016,0.188-0.045,0.376-0.183,0.524c-6.932,0-13.864,0-20.796,0
		c-0.202-0.364-0.169-0.772-0.219-1.165C31.03,80.665,30.983,79.989,30.768,79.342z"/>
	<path fill-rule="evenodd" clip-rule="evenodd" fill="#FAAA00" d="M67.582,22.856c-0.075-0.052-0.151-0.105-0.227-0.157
		c-0.837-0.405-1.56-0.063-2.204,0.417c-0.958,0.711-1.604,1.648-1.748,2.872c-0.104,0.418-0.104,0.836-0.003,1.254
		c0.074,0.597,0.261,1.15,0.609,1.649c0.304,0.437,0.283,0.49-0.167,0.795c-1.261,0.852-2.546,1.669-3.788,2.547
		c-0.127,0.089-0.26,0.215-0.438,0.087c-0.218-0.423-0.248-0.901-0.398-1.345c-0.185-0.546-0.38-1.088-0.551-1.639
		c-0.022-0.661,0.009-1.322-0.014-1.982c-0.109-3.201-0.563-6.333-1.862-9.297c-0.574-1.312-1.415-2.447-2.339-3.526
		c-0.931-1.089-1.908-2.127-3.192-2.821c-1.53-0.826-3.154-1.389-4.847-1.771c-1.385-0.312-2.791-0.536-4.202-0.541
		c-2.562-0.009-5.077,0.339-7.457,1.386c-2.893,1.273-4.955,3.4-6.367,6.181c-1.098,2.161-1.689,4.487-2.033,6.875
		c-0.219,1.52-0.392,3.046-0.41,4.585c-0.06,0.889-0.128,1.778,0.004,2.667c-0.04,0.497,0.117,0.985,0.062,1.482
		c-0.007,0.043-0.022,0.085-0.044,0.124c-0.222,0.191-0.378-0.008-0.528-0.111c-1.027-0.712-2.059-1.419-3.097-2.116
		c-0.424-0.284-0.861-0.551-1.287-0.832c-0.355-0.233-0.366-0.323-0.127-0.682c0.393-0.594,0.653-1.233,0.667-1.957
		c0-0.28-0.001-0.559-0.001-0.838c-0.075-1.467-1.216-3.03-2.596-3.506c-0.434-0.15-0.893-0.224-1.301,0.111
		c-0.111,0.057-0.217,0.202-0.346,0.025c-0.077-0.39-0.051-0.791-0.114-1.185c-0.027-0.165-0.041-0.394,0.249-0.392
		c0.806,0.116,1.607,0.132,2.411-0.042c0.772-0.167,1.387-0.557,1.867-1.185c0.933-1.221,1.338-2.632,1.469-4.131
		c0.238-2.716-0.277-5.337-1.064-7.919c-0.033-0.109-0.089-0.212-0.149-0.351c0.2-0.021,0.296,0.107,0.408,0.181
		c2.026,1.329,4.144,2.467,6.508,3.071c1.499,0.382,3.006,0.512,4.479-0.128c1.193-0.519,2.117-1.376,2.908-2.386
		c1.27-1.621,2.126-3.457,2.782-5.396c0.042-0.124,0.083-0.248,0.146-0.432c0.108,0.158,0.19,0.272,0.268,0.39
		c1.28,1.936,2.756,3.692,4.644,5.073c1.783,1.305,3.741,1.929,5.966,1.542c1.489-0.259,2.875-0.797,4.199-1.508
		c1.396-0.749,2.68-1.657,3.885-2.681c0.1-0.085,0.199-0.171,0.329-0.282c0.058,0.209-0.056,0.32-0.116,0.438
		c-0.654,1.289-1.22,2.61-1.475,4.045c-0.09,0.506-0.119,1.018-0.038,1.529c0.136,0.858,0.596,1.455,1.438,1.731
		c1.256,0.411,2.501,0.296,3.736-0.08c1.859-0.566,3.468-1.587,4.978-2.782c0.159-0.126,0.313-0.255,0.485-0.395
		c0.038,0.135-0.066,0.195-0.118,0.271c-1.057,1.556-2,3.167-2.462,5.014c-0.128,0.512-0.203,1.032-0.181,1.561
		c0.055,1.21,0.638,2.088,1.698,2.657c0.453,0.243,0.923,0.438,1.435,0.524c0.137,0.071,0.127,0.199,0.102,0.314
		C67.81,20.85,67.659,21.847,67.582,22.856z"/>
	<path fill-rule="evenodd" clip-rule="evenodd" fill="#FAAA00" d="M31.651,53.146c-1.096-1.218-2.903-1.444-4.459-0.56
		c-0.441-0.374-0.871-0.764-1.326-1.122c-1.887-1.48-3.969-1.74-6.212-0.97c-0.647,0.223-1.256,0.529-1.888,0.839
		c0.542-0.704,0.711-1.486,0.625-2.343c-0.248-2.425-2.547-4.735-4.965-5.02c-1.104-0.13-2.177-0.008-3.24,0.274
		c-0.139,0.036-0.272,0.104-0.44,0.022c1.42-1.765,2.691-3.607,3.376-5.791c0.018-0.101,0.086-0.166,0.161-0.224
		c0.772-0.594,0.941-1.396,0.81-2.309c-0.02-0.137-0.094-0.293,0.056-0.412c0.041-0.012,0.082-0.012,0.123,0.001
		c0.439,0.433,0.836,0.907,1.374,1.238c1.937,1.195,4.429,0.033,4.737-2.22c0.089-0.354,0.076-0.709,0-1.063
		c-0.069-0.816-0.068-0.818,0.709-0.484c1.264,0.541,2.531,1.075,3.816,1.562c0.163,0.062,0.334,0.117,0.409,0.302
		c-0.044,0.633-0.254,1.235-0.355,1.858c-0.185,1.144-0.338,2.292-0.303,3.451c0.074,2.484,0.658,4.818,2.062,6.748
		c-0.32-0.676-0.547-1.528-0.739-2.39c-0.442-1.991-0.351-3.96,0.246-5.908c0.046-0.153,0.078-0.318,0.239-0.405
		c0.13-0.012,0.153,0.079,0.17,0.176c0.007,0.119,0.004,0.239,0.005,0.358c0,0.454,0,0.908,0,1.361
		c0.007,0.172-0.017,0.346,0.022,0.517c0.021,0.076,0.017,0.157,0.063,0.283c-0.077-0.281-0.093-0.517-0.084-0.755
		c0-0.517,0-1.032,0-1.547c0.007-0.139-0.018-0.279,0.029-0.415c0.222-0.149,0.301,0.056,0.417,0.169
		c0.221,0.539,0.26,1.123,0.433,1.677c0.698,2.243,2.042,3.948,4.117,5.065c0.077,0.042,0.147,0.093,0.192,0.125
		c-1.493-1.472-2.602-3.203-3.104-5.291c-0.049-0.203-0.148-0.417,0.029-0.613c0.212-0.08,0.408,0.002,0.607,0.059
		c0.14,0.085,0.173,0.232,0.213,0.375c0.49,1.729,1.389,3.23,2.553,4.582c1.448,1.683,3.083,3.152,4.973,4.33
		c0.183,0.113,0.362,0.235,0.458,0.442c0.14,0.497,0.231,1.006,0.33,1.512c0.112,0.645,0.126,1.284-0.022,1.927
		c-0.261,1.126-0.876,1.656-2.031,1.726c-0.542,0.032-1.078-0.013-1.606-0.138c-0.71-0.166-1.398-0.404-2.077-0.67
		C31.958,53.401,31.794,53.291,31.651,53.146z"/>
	<path fill-rule="evenodd" clip-rule="evenodd" fill="#FEFEFE" d="M14.243,35.569c-0.021,0-0.039-0.004-0.058-0.014
		c-0.189-0.013-0.091,0.121-0.091,0.192c-0.003,0.604-0.143,1.171-0.457,1.691c-0.292,0.481-0.741,0.694-1.28,0.717
		c-0.193,0.008-0.44,0.029-0.525-0.243c-0.088-0.347-0.357-0.561-0.595-0.793c-0.175-0.172-0.41-0.354-0.424-0.574
		c-0.032-0.529-0.406-0.776-0.742-1.058c-0.19-0.16-0.344-0.063-0.424,0.157c-0.083,0.092-0.187,0.091-0.296,0.068
		c-0.461-0.315-0.981-0.353-1.516-0.315c-1.049-0.259-1.84-1.423-1.686-2.484c0.016-0.11-0.036-0.265,0.145-0.268
		c-0.034-0.163,0.142-0.52,0.259-0.736c0.223-0.411,0.904-0.178,1.22-0.457c0.192-0.169,0.215,0.09,0.191-0.17
		c-0.014-0.144-0.205-0.171-0.354-0.287c-0.25-0.195-0.47-0.171-0.634-0.477c-0.109-0.203-0.231-0.3-0.382-0.28
		c-0.151,0.04-0.133-0.14-0.229-0.227c-1.094-0.993-2.144-2.035-2.618-3.478C3.278,25.108,3.552,23.8,4.556,22.66
		c0.731-0.83,1.677-0.895,2.672-0.753c0.786,0.112,1.493,0.442,2.145,0.889c0.041,0.031,0.07,0.084,0.121,0.095
		c0.082,0.017,0.15,0.139,0.243,0.051C9.8,22.88,9.752,22.795,9.74,22.72c-0.014-0.09-0.042-0.177-0.053-0.268
		c-0.266-1.293-0.305-2.588,0.031-3.872c0.201-0.764,0.508-1.482,1.18-1.97c1.38-1.003,3.469-0.702,4.585,0.666
		c1.018,1.247,1.503,2.717,1.77,4.277c0.074,0.433,0.113,0.869,0.162,1.305c0.074-0.054,0.147-0.109,0.221-0.164
		c0.624-0.325,1.194-0.151,1.693,0.247c1.269,1.013,2.008,2.313,1.987,3.971c-0.008,0.653-0.175,1.281-0.516,1.851
		c-0.26,0.434-0.394,0.475-0.802,0.204c-1.473-0.975-3.024-1.822-4.495-2.798c-0.133-0.08-0.259-0.169-0.373-0.276
		c0.099,0.091,0.198,0.182,0.317,0.248c1.705,1.158,3.351,2.398,5.056,3.556c1.594,1.083,3.21,2.13,4.833,3.168
		c0.179,0.114,0.393,0.199,0.419,0.455c0.006,0.151-0.031,0.288-0.14,0.399c-0.175,0.095-0.31-0.014-0.449-0.091
		c-2.334-1.295-4.678-2.569-7.048-3.798c-0.884-0.458-1.762-0.932-2.635-1.412c-0.185-0.1-0.365-0.21-0.553-0.308
		c-0.001,0.003-0.003,0.006-0.003,0.007c0.18,0.084,0.344,0.196,0.52,0.288c3.219,1.71,6.36,3.564,9.614,5.208
		c0.219,0.111,0.435,0.229,0.453,0.519c-0.004,0.111-0.027,0.211-0.143,0.261c-0.2,0.033-0.368-0.063-0.537-0.141
		c-3.125-1.43-6.307-2.717-9.53-3.907c-0.391-0.145-0.773-0.311-1.155-0.478c-0.176-0.05-0.34-0.135-0.483-0.197
		c-0.012,0.006,0.01,0.009,0.03,0.019c0.133,0.063,0.268,0.124,0.407,0.173c1.882,0.803,3.707,1.726,5.58,2.548
		c0.165,0.073,0.317,0.159,0.366,0.349c0.572,2.242-0.804,4.365-3.178,4.183c-0.93-0.071-1.75-0.512-2.416-1.19
		C14.39,35.683,14.335,35.604,14.243,35.569z"/>
	<path fill-rule="evenodd" clip-rule="evenodd" fill="#FAAA00" d="M57.568,51.928c-1.051-0.624-2.137-0.61-3.255-0.196
		c-0.683,0.252-1.338,0.556-1.961,0.93c-0.172,0.104-0.345,0.212-0.453,0.39c-1.06,0.801-2.249,1.141-3.533,0.779
		c-1.087-0.307-1.537-1.197-1.686-2.26c-0.038-0.707,0.04-1.393,0.34-2.043c0.103-0.172,0.278-0.246,0.446-0.328
		c1.513-0.746,2.88-1.705,4.127-2.837c0.101-0.09,0.203-0.175,0.34-0.206c0.55-0.099,1.106-0.165,1.637-0.354
		c0.127-0.045,0.258-0.067,0.393-0.051c0.289,0.062,0.56,0.187,0.848,0.256c0.241,0.077,0.486,0.131,0.743,0.131
		c0.744,0.002,1.077-0.366,0.994-1.104c-0.013-0.12-0.047-0.234-0.096-0.344c-0.056-0.148-0.153-0.283-0.146-0.452
		c0.196-0.314,0.451-0.574,0.768-0.769c0.265,0.097,0.453,0.384,0.786,0.311c0.723-0.221,1.009-0.779,1.131-1.464
		c0.098-0.374,0.037-0.784,0.27-1.126c0.06-0.088,0.099-0.192,0.175-0.27c0.142-0.145,0.253-0.137,0.312,0.073
		c0.018,0.065,0.025,0.132,0.024,0.2c-0.005,0.792,0.035,1.585-0.021,2.377c-0.071,0.248-0.087,0.506-0.109,0.776
		c0.019-0.074,0.014-0.136,0.02-0.197c0.362-1.39,0.803-2.76,1.043-4.179c0.142-0.846,0.26-1.694,0.292-2.552
		c0.026-0.688-0.066-1.364-0.239-2.03c-0.032-0.126-0.117-0.249-0.042-0.387c0.181-0.094,0.231,0.054,0.296,0.166
		c0.161,0.276,0.327,0.55,0.473,0.835c0.146,0.271,0.28,0.549,0.414,0.826c0.126,0.197,0.163,0.436,0.285,0.635
		c-0.119-0.217-0.167-0.467-0.3-0.677c-0.127-0.272-0.262-0.541-0.402-0.806c-0.222-0.372-0.39-0.776-0.676-1.109
		c-0.074-0.154-0.263-0.269-0.165-0.481c0.562-0.324,1.188-0.499,1.777-0.759c0.591-0.26,1.187-0.51,1.786-0.751
		c0.411-0.166,0.486-0.103,0.426,0.33c-0.066,0.454-0.102,0.899-0.045,1.363c0.252,2.037,2.715,3.64,5.029,2.013
		c0.42-0.295,0.746-0.692,1.136-1.02c0.023-0.005,0.045-0.004,0.067,0.001c0.182,0.208,0.047,0.443,0.036,0.658
		c-0.016,0.315,0.134,0.639-0.035,0.946c-0.831,1.074-1.414,2.252-1.559,3.622c-0.142,1.345,0.412,2.355,1.635,2.957
		c0.045,0.022,0.086,0.054,0.188,0.119c-1.106,0.173-2.134,0.397-3.129,0.757c-0.866,0.312-1.692,0.699-2.419,1.275
		c-1.596,1.266-1.816,2.846-0.631,4.5c0.115,0.161,0.236,0.319,0.409,0.553c-0.565-0.182-1.035-0.367-1.52-0.483
		c-1.856-0.444-3.611-0.18-5.244,0.821C58.217,51.493,57.895,51.714,57.568,51.928z"/>
	<path fill-rule="evenodd" clip-rule="evenodd" fill="#73410A" d="M59.645,43.646c0.014-0.913,0.039-1.825-0.078-2.763
		c-0.122,0.24-0.277,0.469-0.356,0.721c-0.083,0.265-0.093,0.553-0.135,0.831c-0.229-0.042-0.11-0.215-0.128-0.338
		c-0.218,0.459-0.637,0.839-1.416,1.286c-0.014,0.254,0.437,0.187,0.343,0.495c-0.363,0.077-0.586-0.143-0.805-0.376
		c-0.271,0.125-0.562,0.173-0.856,0.198c-0.079,0.007-0.174,0.016-0.196-0.086c-0.016-0.068,0.037-0.124,0.089-0.169
		c0.104-0.085,0.219-0.156,0.332-0.228c0.235-0.152,0.235-0.306,0.02-0.468c-0.355-0.265-0.72-0.513-1.121-0.706
		c-0.164-0.079-0.362-0.126-0.43-0.335c-0.013-0.11,0.027-0.195,0.119-0.256c0.629,0.132,1.177,0.423,1.629,0.878
		c0.368,0.37,0.396,0.375,0.639-0.079c0.228-0.428,0.427-0.868,0.558-1.337c0.036-0.128,0.082-0.26,0.03-0.395
		c-0.047-0.12-0.138-0.209-0.263-0.229c-0.148-0.023-0.154,0.119-0.19,0.213c-0.04,0.1-0.063,0.206-0.108,0.304
		c-0.048,0.105-0.089,0.284-0.219,0.241c-0.161-0.052-0.083-0.225-0.054-0.351c0.019-0.079,0.039-0.157,0.068-0.232
		c0.123-0.321,0.037-0.532-0.29-0.672c-0.199-0.085-0.45-0.136-0.512-0.407c0.039-0.13,0.146-0.184,0.259-0.233
		c0.056-0.018,0.115-0.024,0.174-0.019c0.188,0.032,0.344,0.148,0.548,0.23c0.017-0.177-0.018-0.349,0.03-0.512
		c0.014-0.038,0.035-0.071,0.061-0.101c0.066-0.048,0.134-0.092,0.208-0.012c0.092,0.179,0.066,0.369,0.04,0.555
		c-0.028,0.209,0.08,0.326,0.238,0.427c0.15,0.097,0.262,0.085,0.291-0.106c0.085-0.556,0.271-1.101,0.211-1.675
		c0.119-0.446-0.115-0.771-0.376-1.086c-0.109-0.135-0.209-0.278-0.315-0.416c-0.066-0.085-0.12-0.18-0.188-0.265
		c-0.105-0.107-0.177-0.248-0.315-0.321c-0.251,0.199,0.008,0.38,0.018,0.568c0.022,0.075,0.029,0.15,0.004,0.227
		c-0.017,0.036-0.044,0.062-0.081,0.076c-0.039,0.001-0.074-0.01-0.106-0.032c-0.062-0.053-0.093-0.125-0.154-0.243
		c-0.167,0.298-0.291,0.579-0.432,0.85c-0.062,0.12-0.127,0.237-0.2,0.35c-0.1,0.144-0.18,0.302-0.31,0.421
		c-0.115,0.104-0.232,0.156-0.302-0.049c0.047-0.481,0.037-0.965,0.101-1.445c0.108-0.82-0.054-1.636-0.076-2.454
		c-0.005-0.179-0.122-0.326-0.226-0.467c-0.567-0.772-1.048-1.595-1.461-2.459c-0.036-0.074-0.069-0.149-0.104-0.223
		c-0.288-0.608-0.721-1.145-0.952-1.776c-0.355-0.974-1.025-1.654-1.827-2.274c-1.065-0.823-1.948-1.845-2.858-2.834
		c-0.964-1.049-1.86-2.159-2.875-3.162c-0.112-0.113-0.348-0.203-0.213-0.448c0.192-0.042,0.298,0.099,0.411,0.208
		c1.086,1.05,2.065,2.201,3.094,3.304c1.279,1.375,2.655,2.645,4.191,3.731c1.696,1.198,3.235,2.549,4.412,4.287
		c1.548,2.285,2.068,4.762,1.52,7.471c-0.23,1.141-0.507,2.259-1.155,3.287c0.909-0.601,1.448-1.438,1.736-2.429
		c0.469-1.611,0.534-3.259,0.414-4.927c-0.075-1.037-0.196-2.064-0.398-3.083c-0.338-1.708-0.983-3.303-1.748-4.858
		c-0.111-0.226-0.28-0.435-0.267-0.709c0.019-0.064,0.054-0.111,0.124-0.121c0.054,0.016,0.107,0.039,0.132,0.088
		c0.429,0.849,0.977,1.645,1.161,2.603c0.396,0.98,0.691,1.992,0.938,3.019c0.185,0.154,0.116,0.364,0.12,0.558
		c-0.02,0.189,0.08,0.331,0.188,0.468c0.073,0.06,0.125,0.127,0.088,0.229c-0.074,0.556,0.108,1.09,0.131,1.639
		c0.061,1.466,0.146,2.931-0.179,4.38c-0.05,0.227-0.061,0.449-0.04,0.68c0.053,0.567,0.179,1.134,0.043,1.709
		c0.018,0.053,0.067-0.03,0.019-0.006c-0.017,0.009-0.024-0.002-0.021-0.031c0.051-0.469,0.179-0.923,0.284-1.382
		c0.309-1.33,0.489-2.675,0.427-4.042c-0.035-0.802-0.286-1.558-0.576-2.301c-0.058-0.148-0.227-0.34,0.049-0.467
		c0.061,0.079,0.121,0.158,0.181,0.236c0.171,0.092,0.285,0.219,0.261,0.429c0.07,0.13,0.14,0.259,0.209,0.389
		c0.055,0.093-0.024,0.117-0.079,0.154c0.229,0.935,0.382,1.878,0.304,2.843c-0.146,1.832-0.536,3.617-1.058,5.375
		c-0.101,0.335-0.205,0.67-0.308,1.004C59.518,44.052,59.637,43.841,59.645,43.646z"/>
	<path fill-rule="evenodd" clip-rule="evenodd" fill="#D5D6D8" d="M60.661,34.449c-0.087-0.143-0.174-0.286-0.261-0.429
		c2.512-1.136,5.056-2.196,7.633-3.171c1.003-0.379,2.009-0.748,3.052-1.04c-0.515,0.256-1.023,0.526-1.546,0.767
		c-1.429,0.659-2.864,1.306-4.296,1.957c-0.112,0.051-0.214,0.106-0.237,0.249c-0.274,1.575,0.052,3.113,1.761,3.869
		c0.836,0.37,1.654,0.229,2.456-0.124c0.485-0.213,0.914-0.512,1.308-0.865c0.057-0.052,0.093-0.192,0.22-0.098
		c-0.896,1.255-2.072,1.988-3.65,1.74c-1.742-0.274-2.884-1.944-2.638-3.723c0.032-0.237,0.072-0.473,0.111-0.728
		C63.25,33.392,61.955,33.921,60.661,34.449z"/>
	<path fill-rule="evenodd" clip-rule="evenodd" fill="#D5D6D8" d="M59.808,32.908c-0.041-0.186-0.081-0.372-0.121-0.558
		c1.428-0.954,2.851-1.914,4.285-2.856c0.232-0.152,0.189-0.242,0.05-0.423c-0.399-0.52-0.657-1.103-0.714-1.764
		c-0.007-0.456-0.008-0.913,0.002-1.369c0.14-1.459,1.377-3,2.764-3.418c0.444-0.134,0.897-0.19,1.282,0.178
		c-1.169-0.333-1.862,0.416-2.495,1.17c-1.004,1.197-1.336,2.58-0.911,4.112c0.014,0.052,0.029,0.103,0.049,0.153
		c0.406,1.047,0.445,1.047,1.383,0.461c1.471-0.918,2.957-1.812,4.438-2.714c0.033-0.021,0.077-0.021,0.117-0.03
		c0.022,0.019,0.029,0.038,0.021,0.056c-0.008,0.018-0.017,0.026-0.024,0.026c-2.805,2.064-5.653,4.066-8.576,5.959
		C60.838,32.228,60.323,32.569,59.808,32.908z"/>
	<path fill-rule="evenodd" clip-rule="evenodd" fill="#D5D6D8" d="M9.403,22.862c-0.907-0.475-1.819-0.879-2.885-0.913
		c-1.296-0.041-2.108,0.826-2.522,1.731c-0.639,1.397-0.409,2.729,0.409,3.975c0.63,0.959,1.396,1.803,2.324,2.489
		c0.326,0.4,0.787,0.641,1.148,1.008c-0.437-0.132-0.814-0.395-1.185-0.642c-1.208-0.802-2.267-1.756-3.047-3.007
		c-1.161-1.861-0.673-4.448,1.09-5.604c0.739-0.484,1.55-0.52,2.368-0.318c0.897,0.221,1.707,0.639,2.39,1.278
		C9.464,22.892,9.434,22.892,9.403,22.862z"/>
	<path fill-rule="evenodd" clip-rule="evenodd" fill="#D5D6D8" d="M77.299,30.953c1.271-0.961,2.469-1.998,3.322-3.37
		c0.762-1.226,1.005-2.509,0.38-3.876c-0.75-1.638-1.943-2.012-3.625-1.611c-0.634,0.151-1.203,0.466-1.776,0.765
		c-0.085,0.031-0.1-0.007-0.079-0.08c0.785-0.579,1.61-1.056,2.592-1.239c1.369-0.256,2.595,0.323,3.278,1.567
		c0.867,1.579,0.772,3.102-0.201,4.601c-0.955,1.472-2.287,2.505-3.809,3.326C77.296,31.065,77.28,31.026,77.299,30.953z"/>
	<path fill-rule="evenodd" clip-rule="evenodd" fill="#D5D6D8" d="M67.582,22.856c-0.012-1.04,0.091-2.067,0.343-3.077
		c0.019-0.08,0.043-0.156-0.006-0.232c0.302-0.583,0.469-1.225,0.803-1.796c0.623-1.066,1.44-1.889,2.704-2.108
		c1.874-0.326,3.499,0.405,4.041,2.403c0.388,1.428,0.239,2.839-0.07,4.251c-0.018,0.079-0.028,0.158-0.042,0.237
		c-0.153,0.011-0.124-0.071-0.082-0.16c0.112-0.842,0.117-1.689,0.076-2.534c-0.046-0.96-0.249-1.884-0.852-2.677
		c-0.5-0.657-1.186-0.95-1.976-1.015c-1.669-0.137-2.781,0.706-3.552,2.092c-0.769,1.381-1.16,2.877-1.304,4.444
		C67.66,22.752,67.645,22.815,67.582,22.856z"/>
	<path fill-rule="evenodd" clip-rule="evenodd" fill="#D5D6D8" d="M17.415,22.857c-0.082-0.424-0.157-0.849-0.245-1.272
		c-0.308-1.483-0.735-2.912-1.686-4.142c-1.085-1.405-3.191-1.729-4.509-0.755c-0.772,0.57-1.061,1.406-1.236,2.285
		c-0.211,1.06-0.191,2.13-0.021,3.199c0.019,0.119,0.01,0.242,0.014,0.363c0.029,0.084-0.009,0.1-0.082,0.078
		c-0.208-0.82-0.382-1.657-0.375-2.498c0.014-1.526,0.154-3.044,1.584-4.017c1.452-0.988,3.707-0.564,4.811,0.808
		c0.921,1.145,1.344,2.463,1.579,3.87c0.031,0.185,0.08,0.335,0.236,0.442c-0.212,0.03-0.143,0.19-0.138,0.312
		C17.366,21.973,17.392,22.415,17.415,22.857z"/>
	<path fill-rule="evenodd" clip-rule="evenodd" fill="#976327" d="M60.22,33.784c-0.158,0.129-0.026,0.248,0.022,0.357
		c0.602,1.323,0.722,2.697,0.572,4.135c-0.14,1.337-0.435,2.631-0.806,3.919c-0.013-0.726-0.111-1.44-0.157-2.156
		c-0.031-0.491,0.197-0.99,0.237-1.502c0.086-1.088,0.086-2.174-0.002-3.262c-0.041-0.521-0.07-1.043-0.184-1.555
		c-0.035-0.152,0.12-0.109,0.162-0.18c0.023-0.024,0.045-0.021,0.064,0.007C60.159,33.627,60.189,33.706,60.22,33.784z"/>
	<path fill-rule="evenodd" clip-rule="evenodd" fill="#D5D7D8" d="M6.328,32.651c-0.277,0.767,0.075,1.758,0.834,2.31
		c0.213,0.154,0.43,0.317,0.704,0.361c0.492,0.078,0.987,0.139,1.456,0.319c0.108,0,0.216,0.001,0.325,0.002
		c0.079,0.004,0.158,0.008,0.26,0.012c-0.106,0.185-0.283,0.164-0.419,0.185c-1.474,0.225-2.911-0.115-3.57-1.573
		c-0.308-0.679-0.383-1.361,0.05-1.995c0.485-0.711,1.212-0.954,2.059-0.884C7.349,31.663,6.605,31.845,6.328,32.651z"/>
	<path fill-rule="evenodd" clip-rule="evenodd" fill="#D5D7D8" d="M76.971,31.418c1.274-0.099,2.168,0.498,2.312,1.616
		c0.116,0.906-0.265,1.676-1.006,2.243c-0.998,0.763-2.102,0.714-3.235,0.418c0.72-0.014,1.424-0.105,2.104-0.361
		c0.902-0.339,1.425-0.99,1.597-1.917c0.146-0.788-0.31-1.461-1.173-1.796C77.372,31.546,77.17,31.486,76.971,31.418z"/>
	<path fill-rule="evenodd" clip-rule="evenodd" fill="#D5D7D8" d="M70.818,37.168c-0.129-0.534-0.066-1.069-0.001-1.604
		c0.015-0.097-0.028-0.223,0.16-0.264c-0.008,0.571,0.051,1.121,0.239,1.656c0.225,0.638,0.661,1.029,1.317,1.091
		c0.562,0.053,0.993-0.274,1.351-0.681c0.409-0.465,0.632-1.046,0.976-1.668c-0.089,0.827-0.31,1.496-0.739,2.081
		c-0.405,0.551-0.954,0.909-1.65,0.836c-0.763-0.08-1.316-0.507-1.574-1.261C70.874,37.291,70.845,37.231,70.818,37.168z"/>
	<path fill-rule="evenodd" clip-rule="evenodd" fill="#D5D6D8" d="M11.832,37.912c0.732,0.405,1.698-0.034,2.011-1.167
		c0.104-0.373,0.174-0.757,0.174-1.149c0.001-0.21,0.077-0.169,0.167-0.042c0.021,0.336,0.072,0.674,0.056,1.009
		c-0.039,0.825-0.356,1.503-1.119,1.913c-1.448,0.498-2.231-0.462-2.643-1.37c-0.173-0.382-0.309-0.793-0.288-1.246
		c0.187,0.34,0.358,0.69,0.565,1.017C11.028,37.308,11.311,37.737,11.832,37.912z"/>
	<path fill-rule="evenodd" clip-rule="evenodd" fill="#D4D6D8" d="M60.13,33.548c-0.022,0.002-0.045,0-0.064-0.007
		c-0.023-0.055-0.046-0.11-0.069-0.165c0.865-0.461,1.731-0.92,2.595-1.385c0.875-0.473,1.741-0.965,2.623-1.425
		c1.324-0.692,2.66-1.363,3.99-2.043c0.086-0.031,0.101,0.008,0.08,0.081c-2.366,1.318-4.73,2.639-7.1,3.953
		c-0.551,0.306-1.116,0.588-1.674,0.882C60.391,33.5,60.271,33.559,60.13,33.548z"/>
	<path fill-rule="evenodd" clip-rule="evenodd" fill="#884B91" d="M23.249,61.543c0.096,0.083,0.074,0.194,0.074,0.301
		c0.001,1.251,0.001,2.501,0,3.753c0,0.051-0.015,0.101-0.093,0.15c0-0.414,0-0.825,0-1.239
		C23.235,63.519,23.242,62.532,23.249,61.543z"/>
	<path fill-rule="evenodd" clip-rule="evenodd" fill="#884C92" d="M61.449,61.031c0,1.193,0,2.388,0,3.581c-0.031,0-0.062,0-0.093,0
		c0-0.95-0.012-1.9,0.006-2.85c0.007-0.369-0.094-0.748,0.066-1.109C61.436,60.779,61.442,60.905,61.449,61.031z"/>
	<path fill-rule="evenodd" clip-rule="evenodd" fill="#E2E3E5" d="M69.284,28.603c-0.025-0.027-0.053-0.054-0.08-0.081
		c0.274-0.211,0.593-0.327,0.934-0.404C69.854,28.28,69.569,28.441,69.284,28.603z"/>
	<path fill-rule="evenodd" clip-rule="evenodd" fill="#EBECEC" d="M75.272,22.373c0.006,0.064,0.015,0.127,0.082,0.16
		c0.034,0.121-0.151,0.228-0.025,0.342c0.019,0.018,0.125-0.061,0.191-0.094c0.027,0.027,0.053,0.053,0.079,0.08
		c-0.099,0.061-0.192,0.131-0.297,0.18c-0.097,0.046-0.171-0.016-0.136-0.106C75.236,22.751,75.114,22.536,75.272,22.373z"/>
	<path fill-rule="evenodd" clip-rule="evenodd" fill="#EBECED" d="M9.649,22.613c0.027-0.026,0.055-0.052,0.082-0.078
		c0.022,0.032,0.062,0.062,0.064,0.096c0.011,0.141,0.08,0.335-0.04,0.409c-0.131,0.081-0.243-0.094-0.353-0.178
		c0.03-0.001,0.06-0.002,0.09-0.003C9.84,22.965,9.63,22.716,9.649,22.613z"/>
	<path fill-rule="evenodd" clip-rule="evenodd" fill="#E3E5E6" d="M77.299,30.953c0.027,0.028,0.056,0.056,0.082,0.083
		c-0.108,0.126-0.266,0.158-0.447,0.166C77.057,31.119,77.178,31.036,77.299,30.953z"/>
	<path fill-rule="evenodd" clip-rule="evenodd" fill="#EDEEEE" d="M69.932,25.933c0.001-0.027,0.003-0.054,0.004-0.082
		c0.036-0.07,0.135-0.172,0.158-0.125C70.149,25.841,70.014,25.882,69.932,25.933z"/>
	<path fill-rule="evenodd" clip-rule="evenodd" fill="#FCCFB8" d="M31.651,53.146c1.018,0.424,2.04,0.832,3.144,0.985
		c0.552,0.077,1.1,0.074,1.643-0.055c0.777-0.183,1.251-0.852,1.381-1.837c0.071-0.543-0.001-1.073-0.02-1.609
		c-0.079-0.282,0.021-0.361,0.279-0.233c0.132,0.065,0.242,0.169,0.362,0.255c1.112,0.792,2.253,1.541,3.62,1.804
		c1.098,0.212,2.17,0.103,3.157-0.49c0.156-0.095,0.305-0.238,0.517-0.158c0.05,0.049,0.064,0.11,0.062,0.178
		c-0.309,1.368-0.653,2.726-1.236,4.009c-0.423,0.935-0.922,1.828-1.487,2.683c-0.39,0.591-0.815,0.716-1.507,0.537
		c-0.358-0.092-0.673-0.271-0.989-0.453c-1.226-0.713-2.601-1.028-3.924-1.484c-0.928-0.32-1.889-0.541-2.799-0.917
		C33.057,55.33,32.318,54.263,31.651,53.146z"/>
	<path fill-rule="evenodd" clip-rule="evenodd" fill="#FDDECA" d="M50.124,55.796c-1.571,2.294-3.249,4.495-5.43,6.262
		c-0.346,0.279-0.723,0.514-1.107,0.74c-1.076,0.634-2.157,0.667-3.264,0.078c-0.803-0.427-1.521-0.969-2.189-1.579
		c-1.567-1.433-2.92-3.053-4.159-4.771c0.144-0.131,0.287-0.025,0.416,0.02c1.605,0.546,3.202,1.117,4.796,1.696
		c0.583,0.212,1.145,0.48,1.669,0.812c0.682,0.431,1.366,0.495,2.11,0.17c2.072-0.906,4.179-1.739,6.124-2.913
		c0.208-0.126,0.4-0.274,0.602-0.408C49.817,55.818,49.943,55.675,50.124,55.796z"/>
	<path fill-rule="evenodd" clip-rule="evenodd" fill="#FCCFB8" d="M45.738,51.992c0-0.054,0-0.108,0-0.163
		c0.138-0.428,0.587-0.477,0.878-0.719c0.086-0.07,0.125,0.036,0.132,0.122c0.01,0.117-0.021,0.237,0.027,0.353
		c0.047,0.195,0.083,0.394,0.143,0.585c0.398,1.267,1.47,1.88,2.836,1.654c0.766-0.126,1.464-0.424,2.146-0.773
		c-0.429,0.791-0.913,1.545-1.452,2.264c-0.415,0.455-0.948,0.751-1.479,1.032c-1.69,0.896-3.417,1.719-5.205,2.403
		c-0.173,0.065-0.393,0.267-0.543,0.064c-0.123-0.165,0.081-0.343,0.188-0.492c1.201-1.677,1.923-3.538,2.179-5.584
		C45.618,52.488,45.664,52.236,45.738,51.992z"/>
	<path fill-rule="evenodd" clip-rule="evenodd" fill="#62306B" d="M53.991,78.623c-0.217,0.127-0.386,0.327-0.635,0.403
		c-0.061-0.042-0.052-0.087,0-0.126c0.967-0.704,1.497-1.716,1.912-2.789c0.511-1.324,0.839-2.693,0.747-4.133
		c0.04-1.905-0.496-3.685-1.216-5.418c-0.347-0.831-0.758-1.635-1.1-2.468c-0.523-1.279-0.418-2.597-0.151-3.913
		c0.092,0.531-0.018,1.065,0.014,1.603c0.062,1.051,0.364,1.997,0.874,2.9c1.044,1.852,1.818,3.797,2.073,5.931
		c0.306,2.558-0.23,4.909-1.674,7.048C54.598,78.016,54.32,78.343,53.991,78.623z"/>
	<path fill-rule="evenodd" clip-rule="evenodd" fill="#62306B" d="M27.61,73.681c0.065,1.038,0.466,1.976,0.853,2.922
		c0.471,1.148,1.235,2.034,2.304,2.659c-0.851-0.279-1.563-0.751-2.08-1.495c-1.352-1.95-1.959-4.116-1.791-6.474
		c0.12-1.688,0.647-3.279,1.32-4.829s1.353-3.103,1.744-4.758c0.073-0.021,0.111-0.005,0.082,0.08
		c-0.119,1.268-0.514,2.465-0.98,3.637c-0.567,1.422-1.137,2.839-1.407,4.356c-0.226,1.264-0.289,2.529-0.111,3.802
		C27.551,73.617,27.587,73.647,27.61,73.681z"/>
	<path fill-rule="evenodd" clip-rule="evenodd" fill="#F9BC9F" d="M45.738,51.992c-0.113,1.99-0.638,3.854-1.704,5.549
		c-0.262,0.416-0.527,0.827-0.854,1.337c2.577-1.043,5.028-2.083,7.267-3.563c-0.076,0.182-0.177,0.346-0.323,0.481
		c-0.534,0.225-0.967,0.616-1.469,0.898c-1.199,0.676-2.456,1.224-3.712,1.78c-0.847,0.375-1.675,0.792-2.574,1.044
		c-0.562,0.158-1.038-0.068-1.485-0.335c-0.803-0.478-1.66-0.826-2.535-1.14c-1.367-0.49-2.732-0.983-4.099-1.473
		c-0.086-0.03-0.184-0.031-0.275-0.046c-0.041-0.056-0.081-0.111-0.122-0.167c0.479,0.013,0.917,0.203,1.358,0.35
		c1.566,0.518,3.17,0.927,4.687,1.586c0.342,0.149,0.656,0.361,0.991,0.529c0.455,0.228,0.905,0.449,1.454,0.312
		c0.311-0.077,0.488-0.277,0.641-0.509c1.253-1.915,2.162-3.975,2.596-6.231C45.607,52.253,45.628,52.104,45.738,51.992z"/>
	<path fill-rule="evenodd" clip-rule="evenodd" fill="#723D7B" d="M30.043,61.786c-0.028-0.027-0.055-0.055-0.082-0.08
		c0.032-0.131,0.062-0.26,0.096-0.388c0.002-0.01,0.022-0.015,0.043-0.028C30.117,61.464,30.174,61.634,30.043,61.786z"/>
	<path fill-rule="evenodd" clip-rule="evenodd" fill="#976327" d="M57.389,26.748c0.354,0.784,0.711,1.567,1.059,2.353
		c0.614,1.385,0.984,2.839,1.207,4.332c0.2,1.344,0.312,2.7,0.234,4.057c-0.084,1.477-0.238,2.952-1.089,4.237
		c-0.358,0.541-0.813,0.978-1.426,1.251c0.823-1.229,1.134-2.623,1.358-4.042c0.273-1.722,0.12-3.394-0.577-5.012
		c-0.728-1.688-1.832-3.097-3.155-4.341c-0.932-0.875-2.011-1.568-3.017-2.353c-1.282-1.003-2.461-2.12-3.564-3.323
		c-1-1.09-1.965-2.216-3.045-3.232c-0.089-0.083-0.172-0.175-0.311-0.158c-0.081,0.013-0.136-0.029-0.186-0.084
		c-0.077-0.113-0.168-0.213-0.298-0.269c-0.094-0.044-0.192-0.08-0.271-0.15c-0.08-0.071-0.174-0.116-0.276-0.146
		c-0.263-0.092-0.505-0.236-0.781-0.296c-0.654-0.141-0.873-0.048-1.204,0.531c-0.032,0.024-0.068,0.034-0.108,0.031
		c-0.255-0.211-0.333-0.539-0.521-0.797c-0.485-0.663-1.05-0.76-1.728-0.298c-0.538,0.367-0.998,0.807-1.397,1.316
		c-0.098,0.12-0.244,0.204-0.283,0.37c-0.012,0.034-0.032,0.062-0.057,0.088c-0.114,0.084-0.204,0.189-0.275,0.311
		c-0.166,0.204-0.323,0.414-0.471,0.631c-1.702,2.108-3.332,4.27-4.826,6.53c-1.439,2.178-2.617,4.494-3.483,6.961
		c-0.917,2.614-0.522,5.094,0.806,7.467c0.21,0.375,0.435,0.744,0.694,1.091c0.089,0.119,0.264,0.27,0.099,0.415
		c-0.144,0.128-0.272-0.047-0.375-0.138c-0.932-0.823-1.667-1.794-2.172-2.934c-0.714-1.615-1.012-3.316-0.974-5.071
		c0.016-0.763,0.069-1.53,0.202-2.287c0.338-2.332,1.061-4.542,2.07-6.66c-0.99,2.076-1.719,4.235-2.045,6.524
		c-0.189,0.994-0.178,2.006-0.282,3.007c-0.031,0.298-0.106,0.582-0.239,0.852c-0.693,1.416-0.999,2.932-1.041,4.488
		c-0.026,0.965,0.125,1.933,0.35,2.881c0.042,0.178,0.192,0.454-0.046,0.523c-0.187,0.055-0.227-0.253-0.296-0.417
		c-0.849-2-1.086-4.089-0.925-6.244c0.137-1.836,0.516-3.621,1.071-5.369c0.587-1.845,1.263-3.659,2.031-5.438
		c0.571-1.324,1.199-2.618,1.922-3.865c0.14-0.216,0.27-0.438,0.418-0.648c0.198-0.285,0.375-0.585,0.584-0.86
		c0.008-0.018,0.038-0.035,0.038-0.045c-0.002-0.029-0.006-0.022-0.015,0.012c-0.013,0.052,0.005-0.022-0.021,0.027
		c-0.193,0.259-0.374,0.522-0.534,0.799c-0.174,0.202-0.294,0.439-0.438,0.661c-1.366,2.301-2.357,4.771-3.285,7.27
		c-0.135,0.366-0.26,0.736-0.381,1.106c-0.035,0.104-0.022,0.257-0.194,0.27c0.025-0.521-0.138-1.031-0.084-1.553
		c0.116-0.385-0.003-0.769-0.012-1.152c-0.012-0.532,0.126-1.062,0.013-1.595c0.081-2.452,0.361-4.878,0.948-7.265
		c0.512-2.082,1.274-4.059,2.479-5.845c2.01-2.976,4.83-4.738,8.308-5.5c1.477-0.324,2.978-0.507,4.485-0.466
		c2.809,0.075,5.521,0.64,8.118,1.748c1.903,0.813,3.327,2.183,4.644,3.733c2.069,2.44,3.044,5.317,3.555,8.407
		c0.337,2.041,0.449,4.092,0.377,6.156c-0.375-0.914-0.834-1.787-1.28-2.667c-0.204-0.149-0.288-0.387-0.401-0.594
		c-0.336-0.613-0.711-1.2-0.939-1.566c0.299,0.444,0.69,1.143,1.096,1.834C57.299,26.467,57.35,26.604,57.389,26.748z"/>
	<path fill-rule="evenodd" clip-rule="evenodd" fill="#73410A" d="M25.919,32.665c0.859-2.501,1.825-4.958,3.043-7.309
		c0.245-0.472,0.463-0.966,0.833-1.364l0.003,0.002c-0.201,0.605-0.576,1.121-0.853,1.688c-1.54,3.164-2.787,6.435-3.623,9.854
		c-0.412,1.688-0.626,3.408-0.531,5.146c0.084,1.547,0.38,3.058,1.027,4.482c0.033,0.071,0.072,0.14,0.134,0.202
		c-0.075-0.603-0.218-1.189-0.307-1.787c-0.21-1.416-0.106-2.803,0.249-4.178c0.185-0.717,0.438-1.409,0.75-2.083
		c0.256-0.555,0.26-1.179,0.299-1.773c0.042-0.644,0.108-1.282,0.186-1.92c0.152-0.007,0.125,0.073,0.08,0.163
		c-0.053,0.627-0.132,1.253-0.154,1.882c-0.033,0.94,0.071,1.872,0.212,2.804c0.25,1.657,0.863,3.16,1.903,4.469
		c0.37,0.466,0.855,0.84,1.337,1.224c-0.214-0.324-0.439-0.641-0.641-0.971c-0.844-1.382-1.399-2.854-1.541-4.49
		c-0.139-1.616,0.262-3.115,0.864-4.573c0.972-2.355,2.159-4.599,3.621-6.69c1.384-1.981,2.832-3.915,4.352-5.793
		c0.077-0.024,0.104,0.023,0.12,0.085c-0.197,0.544-0.615,0.94-0.951,1.387c-1.757,2.335-3.479,4.691-4.922,7.24
		c-0.064,0.115-0.17,0.215-0.13,0.368c-0.006,0.042-0.022,0.078-0.045,0.112c-0.443,0.54-0.662,1.201-0.98,1.807
		c-0.156,0.297-0.259,0.623-0.416,0.921c-0.641,1.21-0.681,2.499-0.515,3.816c0.021,0.174,0.027,0.349,0.001,0.524
		c-0.021,0.083-0.05,0.162-0.144,0.189c-0.245-0.044-0.287-0.301-0.476-0.458c-0.021,0.394-0.031,0.759,0.033,1.127
		c0.034,0.195,0.087,0.396-0.003,0.592c0.166,1.336,0.716,2.524,1.418,3.652c0.534,0.86,1.199,1.615,1.878,2.367
		c-0.81-0.312-1.509-0.794-2.146-1.364c-1.535-1.376-2.369-3.133-2.754-5.128c-0.033-0.172-0.066-0.343-0.1-0.515
		c-0.164-0.236-0.152-0.504-0.145-0.771c0-0.023,0-0.046,0-0.069c-0.003,0.004,0,0.008-0.001,0.017
		c-0.018,0.212,0.056,0.439-0.13,0.61c-0.014,0.132-0.029,0.264-0.043,0.396c-0.124,0.026-0.099-0.068-0.109-0.134
		c-0.041-0.058,0.098-0.235-0.117-0.179c-0.92,2.529-0.849,5.064-0.041,7.601c0.158,0.497,0.346,0.983,0.495,1.491
		c-0.431-0.436-0.732-0.96-1.012-1.493c-0.775-1.472-1.178-3.049-1.32-4.706c-0.185-2.148,0.158-4.236,0.645-6.312
		c-0.065-0.178-0.037-0.333,0.116-0.457c0.024-0.081,0.047-0.161,0.071-0.241c0.068-0.134-0.057-0.328,0.132-0.423
		c0.037-0.13,0.073-0.26,0.109-0.39c0.038-0.208,0.005-0.441,0.212-0.588C25.901,32.703,25.911,32.684,25.919,32.665z"/>
	<path fill-rule="evenodd" clip-rule="evenodd" fill="#D5D6D8" d="M25.891,32.721c-0.071,0.196-0.141,0.393-0.212,0.588
		c-0.309-0.452-0.824-0.626-1.256-0.903c-2.209-1.415-4.382-2.883-6.517-4.406c-0.843-0.601-1.675-1.216-2.511-1.825
		c-0.02-0.073-0.004-0.112,0.081-0.081c1.566,0.89,3.104,1.827,4.61,2.813c0.286,0.187,0.413,0.164,0.591-0.121
		c0.818-1.305,0.68-3.316-0.351-4.667c-0.179-0.234-0.379-0.453-0.579-0.67c-0.571-0.618-1.23-0.998-2.111-0.756
		c0.369-0.364,0.813-0.306,1.243-0.183c1.447,0.413,2.743,2.078,2.816,3.59c-0.049,0.322-0.061,0.645,0.007,0.966
		c-0.025,0.767-0.306,1.44-0.767,2.04c-0.126,0.164-0.137,0.249,0.053,0.371c1.61,1.027,3.188,2.103,4.754,3.195
		C25.784,32.701,25.841,32.706,25.891,32.721z"/>
	<path fill-rule="evenodd" clip-rule="evenodd" fill="#8F5E2B" d="M25.836,28.365c0.118,0.107,0.074,0.249,0.075,0.376
		c0.004,0.666,0.004,1.331,0,1.996c-0.001,0.128,0.043,0.27-0.076,0.375C25.723,30.197,25.767,29.281,25.836,28.365z"/>
	<path fill-rule="evenodd" clip-rule="evenodd" fill="#D3D9E5" d="M63.31,25.938c0.115,0.457,0.118,0.913-0.002,1.369
		C63.199,26.851,63.204,26.395,63.31,25.938z"/>
	<path fill-rule="evenodd" clip-rule="evenodd" fill="#D3D9E7" d="M21.702,27.067c-0.128-0.321-0.116-0.644-0.007-0.966
		C21.746,26.422,21.755,26.744,21.702,27.067z"/>
	<path fill-rule="evenodd" clip-rule="evenodd" fill="#FDDECA" d="M29.249,37.892c-0.027-0.294-0.053-0.588-0.083-0.882
		c-0.127-1.253,0.036-2.447,0.613-3.59c0.38-0.752,0.707-1.534,1.086-2.289c0.092-0.184,0.211-0.325,0.39-0.42
		c0.515-0.207,1.036-0.387,1.604-0.328c0.39,0.088,0.782,0.068,1.173,0.018c0.399-0.084,0.777,0.031,1.149,0.147
		c1.413,0.438,2.612,1.269,3.803,2.108c0.518,0.365,1.015,0.76,1.545,1.105c0.095,0.062,0.216,0.18,0.325,0.087
		c0.109-0.093,0.006-0.227-0.035-0.334c-0.179-0.469-0.533-0.807-0.888-1.138c-1.142-1.066-2.46-1.84-3.96-2.276
		c-1.385-0.403-2.724-0.075-4.042,0.354c-0.228,0.074-0.464,0.137-0.679,0.252c-0.255-0.076-0.041-0.197-0.006-0.257
		c0.415-0.71,0.824-1.424,1.27-2.114c1.376-2.13,2.877-4.171,4.427-6.178c0.106-0.138,0.201-0.284,0.301-0.427
		c0.067-0.23,0.243-0.391,0.373-0.58c0.095-0.151,0.19-0.301,0.346-0.398l0.003-0.006c0.08-0.238,0.241-0.382,0.49-0.426
		c1.046-0.044,2.09-0.129,3.135-0.174c0.36,0.04,0.718,0.044,1.073-0.042c0.263-0.04,0.529-0.029,0.794-0.037
		c0.289,0.025,0.578-0.003,0.868,0.022c0.248,0.023,0.46,0.102,0.601,0.322c0.045,0.035,0.09,0.07,0.137,0.104
		c1.506,1.485,2.825,3.143,4.293,4.664c0.881,0.912,1.803,1.776,2.824,2.532c0.096,0.071,0.211,0.127,0.252,0.251
		c0.361,1.067,1.025,1.981,1.501,2.99c-0.072,0.057-0.142,0.039-0.159,0.028c0.041,0.021,0.159,0.023,0.229,0.117
		c0.507,0.92,0.983,1.858,1.644,2.684c0.072,0.088,0.093,0.194,0.102,0.302c0.106,1.333,0.147,2.665-0.076,3.992
		c0.147,0.495-0.02,0.977-0.054,1.465c-0.121,0.49-0.209,0.988-0.35,1.472c-0.049,0.164-0.081,0.339-0.223,0.458
		c-0.029,0.079-0.059,0.157-0.087,0.236c0,0.363-0.174,0.667-0.328,0.979c-0.095,0.163-0.176,0.334-0.256,0.505
		c-0.375,0.654-0.776,1.292-1.276,1.861c-0.078,0.075-0.143,0.163-0.201,0.255c-0.318,0.323-0.598,0.689-0.995,0.929
		c-1.434,1.315-3.021,2.406-4.773,3.254c-0.22,0.284-0.558,0.371-0.866,0.491c-1.334,0.521-2.687,0.962-4.151,0.912
		c-0.477-0.017-0.938-0.094-1.388-0.233c-1.033-0.32-2.013-0.764-2.942-1.316c-0.119-0.07-0.208-0.169-0.304-0.264
		c-0.861-0.618-1.764-1.181-2.58-1.864c-1.901-1.592-3.59-3.36-4.723-5.602c-0.348-0.688-0.598-1.408-0.792-2.151
		c-0.259-0.349-0.233-0.756-0.236-1.157C29.167,38.166,29.325,38.058,29.249,37.892z"/>
	<path fill-rule="evenodd" clip-rule="evenodd" fill="#F9BC9F" d="M37.478,49.081c0.667,0.279,1.281,0.665,1.933,0.979
		c1.766,0.851,3.546,0.918,5.393,0.324c0.794-0.256,1.564-0.56,2.326-0.893c-0.248,0.676-0.406,1.366-0.354,2.094
		c-0.126-0.113-0.019-0.283-0.11-0.429c-0.272,0.281-0.665,0.383-0.927,0.673c-0.23,0.015-0.382,0.189-0.569,0.289
		c-1.366,0.724-2.756,0.685-4.162,0.137c-1.074-0.42-2.02-1.057-2.932-1.746c-0.218-0.165-0.268-0.108-0.275,0.121
		C37.692,50.114,37.585,49.598,37.478,49.081z"/>
	<path fill-rule="evenodd" clip-rule="evenodd" fill="#D5D6D8" d="M25.366,34.364c-0.039,0.152-0.077,0.304-0.116,0.457
		c-1.602-0.649-3.203-1.298-4.828-1.957c0.021,0.209,0.041,0.404,0.061,0.6c-0.021,0.375-0.017,0.75-0.002,1.126
		c-0.174,1.846-2.102,3.152-3.952,2.658c-0.973-0.259-1.731-0.835-2.286-1.679c0.177-0.016,0.254,0.132,0.366,0.222
		c0.76,0.609,1.59,1.061,2.595,1.066c1.376,0.006,2.588-1.074,2.809-2.428c0.083-0.502,0.029-0.987-0.019-1.478
		c-0.016-0.164-0.057-0.318-0.261-0.41c-1.876-0.846-3.755-1.687-5.593-2.616c-0.035-0.018-0.078-0.02-0.117-0.029
		c-0.023-0.074-0.007-0.11,0.077-0.081c2.027,0.669,4.002,1.476,5.982,2.269C21.863,32.796,23.612,33.585,25.366,34.364z"/>
	<path fill-rule="evenodd" clip-rule="evenodd" fill="#F8BC9E" d="M29.232,38.223c-0.008,0.421,0.095,0.828,0.151,1.241
		c-0.217-0.035-0.433-0.07-0.65-0.106c-0.166-0.643-0.167-1.294-0.113-2.055c0.214,0.304,0.377,0.533,0.539,0.762
		C29.206,38.107,29.267,38.142,29.232,38.223z"/>
	<path fill-rule="evenodd" clip-rule="evenodd" fill="#885109" d="M26.631,38.383c0.026,0.056,0.053,0.113,0.079,0.169
		c0,0.57,0,1.141,0,1.711c-0.081,0.131,0.034,0.299-0.081,0.423c-0.09-0.164-0.062-0.34-0.058-0.515
		c0.052-0.481,0.046-0.963,0.002-1.445c-0.001-0.105-0.002-0.212-0.004-0.317C26.579,38.373,26.6,38.364,26.631,38.383z"/>
	<path fill-rule="evenodd" clip-rule="evenodd" fill="#F4D6BE" d="M26.753,38.156c0.022-0.241,0.043-0.482,0.065-0.724
		c0.074-0.027,0.108,0.017,0.132,0.076c0.026,0.287,0.053,0.574,0.079,0.861C26.938,38.298,26.846,38.228,26.753,38.156z"/>
	<path fill-rule="evenodd" clip-rule="evenodd" fill="#8E5608" d="M27.064,42.52c0.116,0.309,0.231,0.617,0.347,0.924
		c-0.255-0.26-0.365-0.583-0.439-0.921C27.001,42.48,27.032,42.479,27.064,42.52z"/>
	<path fill-rule="evenodd" clip-rule="evenodd" fill="#D3D9E6" d="M20.481,34.59c-0.112-0.375-0.115-0.751,0.002-1.126
		C20.565,33.839,20.567,34.215,20.481,34.59z"/>
	<path fill-rule="evenodd" clip-rule="evenodd" fill="#854E09" d="M26.629,40.687c0.038-0.139-0.042-0.301,0.081-0.424
		c-0.015,0.331,0.127,0.654,0.053,1.043C26.573,41.095,26.655,40.879,26.629,40.687z"/>
	<path fill-rule="evenodd" clip-rule="evenodd" fill="#854E09" d="M26.574,38.727c0.107,0.482,0.11,0.964-0.002,1.445
		C26.572,39.69,26.573,39.208,26.574,38.727z"/>
	<path fill-rule="evenodd" clip-rule="evenodd" fill="#A66906" d="M27.738,44.088c0.065,0.133,0.131,0.266,0.197,0.399
		C27.762,44.408,27.688,44.276,27.738,44.088z"/>
	<path fill-rule="evenodd" clip-rule="evenodd" fill="#703E0A" d="M26.813,41.876c-0.015-0.124-0.128-0.238-0.031-0.395
		c0.14,0.112,0.097,0.262,0.11,0.393C26.866,41.902,26.84,41.901,26.813,41.876z"/>
	<path fill-rule="evenodd" clip-rule="evenodd" fill="#D18B05" d="M28.476,45.275c-0.14-0.021-0.213-0.098-0.206-0.234
		C28.416,45.051,28.412,45.191,28.476,45.275z"/>
	<path fill-rule="evenodd" clip-rule="evenodd" fill="#D79009" d="M26.631,38.383c-0.021,0.008-0.041,0.017-0.062,0.026
		c-0.028-0.057-0.057-0.114-0.086-0.17c0-0.08,0.012-0.152,0.147-0.225C26.631,38.153,26.631,38.269,26.631,38.383z"/>
	<path fill-rule="evenodd" clip-rule="evenodd" fill="#703F0A" d="M26.813,41.876c0.026,0,0.053-0.001,0.079-0.002
		c0.087,0.094,0.073,0.211,0.077,0.325c-0.026,0.026-0.051,0.027-0.078,0C26.865,42.092,26.839,41.984,26.813,41.876z"/>
	<path fill-rule="evenodd" clip-rule="evenodd" fill="#74430A" d="M26.892,42.2c0.026,0,0.052,0,0.078,0
		c0.092,0.089,0.073,0.21,0.095,0.32c-0.031,0.002-0.062,0.002-0.093,0.003C26.944,42.415,26.918,42.307,26.892,42.2z"/>
	<path fill-rule="evenodd" clip-rule="evenodd" fill="#D4D6D8" d="M25.57,33.699c-0.041,0.142-0.035,0.299-0.132,0.423
		c-0.018-0.183-0.14-0.277-0.292-0.354c-3.302-1.681-6.52-3.517-9.75-5.329c-0.021-0.072-0.007-0.111,0.078-0.079
		c2.737,1.359,5.425,2.812,8.114,4.265C24.249,32.982,24.883,33.389,25.57,33.699z"/>
	<path fill-rule="evenodd" clip-rule="evenodd" fill="#FEFEFE" d="M9.322,35.642c-0.5-0.042-1.001-0.075-1.456-0.319
		C8.385,35.275,8.912,35.195,9.322,35.642z"/>
	<path fill-rule="evenodd" clip-rule="evenodd" fill="#E6E7E8" d="M15.475,28.361c-0.026,0.026-0.052,0.053-0.078,0.079
		c-0.229-0.131-0.459-0.263-0.688-0.394C15.005,28.063,15.251,28.188,15.475,28.361z"/>
	<path fill-rule="evenodd" clip-rule="evenodd" fill="#E2E3E4" d="M15.476,26.094c-0.027,0.027-0.054,0.054-0.081,0.081
		c-0.17-0.08-0.265-0.255-0.438-0.335C15.183,25.825,15.322,25.975,15.476,26.094z"/>
	<path fill-rule="evenodd" clip-rule="evenodd" fill="#E9EAEA" d="M14.099,29.815c-0.025,0.027-0.05,0.054-0.077,0.081
		c-0.149-0.076-0.319-0.118-0.482-0.297C13.779,29.641,13.945,29.712,14.099,29.815z"/>
	<path fill-rule="evenodd" clip-rule="evenodd" fill="#88581E" d="M53.021,45.031c0.464-0.597,0.886-1.222,1.287-1.862
		c0.134-0.105,0.256-0.017,0.374,0.03c0.698,0.272,1.296,0.681,1.721,1.312c0.03,0.046,0.062,0.085,0.119,0.098
		c0.461,0.945-0.009,1.686-1.039,1.638c-0.24-0.012-0.478-0.039-0.697-0.145c-0.443-0.28-0.957-0.426-1.385-0.736
		C53.263,45.267,53.085,45.215,53.021,45.031z"/>
	<path fill-rule="evenodd" clip-rule="evenodd" fill="#88581E" d="M54.559,42.686c0.133-0.326,0.267-0.652,0.4-0.978
		c0.406,0.307,0.887,0.485,1.311,0.768c0.639,0.424,0.654,0.594-0.014,0.981c-0.065,0.039-0.16,0.045-0.178,0.146
		c0.34,0.048,0.652-0.166,0.991-0.101c-0.236,0.247-0.473,0.493-0.71,0.74c-0.104-0.011-0.167-0.082-0.223-0.158
		c-0.352-0.473-0.803-0.827-1.31-1.118C54.712,42.899,54.588,42.837,54.559,42.686z"/>
	<path fill-rule="evenodd" clip-rule="evenodd" fill="#88581E" d="M57.874,43.878c-0.108-0.221-0.425-0.22-0.508-0.521
		c0.63-0.301,1.167-0.757,1.595-1.348c0.104,0.145-0.016,0.316,0.114,0.426C58.921,43.121,58.618,43.684,57.874,43.878z"/>
	<path fill-rule="evenodd" clip-rule="evenodd" fill="#74410B" d="M54.559,42.686c0.695,0.409,1.374,0.837,1.801,1.557
		c0.054,0.122,0.108,0.244,0.161,0.367c-0.091,0.102-0.127,0.016-0.175-0.048c-0.522-0.693-1.207-1.15-2.038-1.393
		C54.36,42.991,54.443,42.831,54.559,42.686z"/>
	<path fill-rule="evenodd" clip-rule="evenodd" fill="#89591F" d="M51.902,46.237c0.312-0.329,0.624-0.66,0.937-0.99
		c0.395,0.173,0.845,0.234,1.15,0.583c-0.569,0.093-1.104,0.336-1.686,0.376C52.17,46.214,52.037,46.227,51.902,46.237z"/>
	<path fill-rule="evenodd" clip-rule="evenodd" fill="#76430B" d="M53.989,45.83c-0.382-0.198-0.827-0.27-1.15-0.583
		c0.061-0.072,0.121-0.144,0.182-0.216c0.561,0.329,1.118,0.663,1.708,0.939c0.051,0.022,0.143,0.043,0.057,0.132
		C54.505,46.055,54.243,45.952,53.989,45.83z"/>
	<path fill-rule="evenodd" clip-rule="evenodd" fill="#804A09" d="M60.791,34.992c0.025-0.051,0.052-0.103,0.079-0.154
		c0.262,0.346,0.469,0.727,0.655,1.117c0.045,0.089-0.006,0.099-0.076,0.091C61.216,35.704,61.08,35.3,60.791,34.992z"/>
	<path fill-rule="evenodd" clip-rule="evenodd" fill="#A06407" d="M62.477,40.407c0.009-0.455,0.017-0.909,0.025-1.363
		c0.089-0.007,0.104,0.051,0.107,0.12c0.016,0.253-0.031,0.509,0.028,0.761c-0.026,0.189-0.054,0.379-0.081,0.568
		C62.484,40.506,62.441,40.494,62.477,40.407z"/>
	<path fill-rule="evenodd" clip-rule="evenodd" fill="#865009" d="M61.935,36.76c0.172,0.295,0.303,0.605,0.281,0.975
		c-0.121-0.293-0.241-0.586-0.362-0.878C61.873,36.818,61.88,36.77,61.935,36.76z"/>
	<path fill-rule="evenodd" clip-rule="evenodd" fill="#814B09" d="M61.935,36.76c-0.027,0.032-0.055,0.064-0.081,0.097
		c-0.135-0.27-0.27-0.54-0.404-0.81c0.025-0.03,0.051-0.061,0.076-0.091C61.7,36.205,61.831,36.475,61.935,36.76z"/>
	<path fill-rule="evenodd" clip-rule="evenodd" fill="#A06406" d="M59.645,43.646c0.062,0.185-0.066,0.396,0.085,0.569
		c0.011,0.1-0.037,0.179-0.13,0.316C59.575,44.193,59.537,43.918,59.645,43.646z"/>
	<path fill-rule="evenodd" clip-rule="evenodd" fill="#B17206" d="M62.477,40.407c0.027,0.029,0.055,0.057,0.08,0.086
		c-0.079,0.242-0.158,0.484-0.237,0.727c-0.071,0.024-0.107,0.012-0.075-0.073C62.321,40.9,62.399,40.653,62.477,40.407z"/>
	<path fill-rule="evenodd" clip-rule="evenodd" fill="#895208" d="M62.573,39.125c-0.024-0.027-0.047-0.054-0.071-0.082
		c-0.028-0.19-0.056-0.379-0.084-0.569c0.027-0.033,0.033-0.084,0.084-0.097c0.101,0.239,0.113,0.494,0.134,0.748
		C62.614,39.162,62.595,39.161,62.573,39.125z"/>
	<path fill-rule="evenodd" clip-rule="evenodd" fill="#814C09" d="M62.502,38.378c-0.028,0.032-0.056,0.064-0.084,0.097
		c-0.045-0.201-0.147-0.392-0.123-0.676C62.456,38.005,62.494,38.186,62.502,38.378z"/>
	<path fill-rule="evenodd" clip-rule="evenodd" fill="#865008" d="M62.573,39.125c0.021,0,0.041,0,0.062,0
		c0.001,0.267,0.002,0.533,0.002,0.799C62.507,39.667,62.601,39.392,62.573,39.125z"/>
	<path fill-rule="evenodd" clip-rule="evenodd" fill="#D38D04" d="M62.244,41.147c0.025,0.024,0.051,0.049,0.075,0.073
		c-0.072,0.151-0.146,0.302-0.218,0.454C62.068,41.466,62.141,41.301,62.244,41.147z"/>
	<path fill-rule="evenodd" clip-rule="evenodd" fill="#976327" d="M58.535,36.892c-2.344-2.675-4.395-5.475-5.78-8.724
		c1.599,1.145,3.02,2.471,4.121,4.112C57.803,33.662,58.412,35.165,58.535,36.892z"/>
	<path fill-rule="evenodd" clip-rule="evenodd" fill="#88581E" d="M55.046,41.472c0.162-0.644,0.326-1.287,0.489-1.931
		c0.249-0.151,0.502-0.275,0.805-0.17c0.138,0.226,0.392,0.282,0.605,0.371c0.328,0.136,0.43,0.32,0.292,0.653
		c-0.076,0.182-0.109,0.381-0.1,0.6c0.067-0.182,0.114-0.375,0.207-0.542c0.064-0.115-0.027-0.418,0.232-0.317
		c0.212,0.083,0.53,0.189,0.443,0.532c-0.196,0.77-0.482,1.503-1.021,2.181C56.507,42.141,55.769,41.818,55.046,41.472z"/>
	<path fill-rule="evenodd" clip-rule="evenodd" fill="#FDDECA" d="M56.175,37.584c0.061-0.105,0.12-0.211,0.18-0.316
		c0.227-0.144,0.49-0.154,0.742-0.207c0.063,0.005,0.116,0.035,0.162,0.078c0.059,0.062,0.093,0.133,0.097,0.218
		c-0.018,0.185,0.063,0.356,0.07,0.539c0.062,0.305,0.145,0.611-0.025,0.909l-0.004,0.006c-0.148,0.254-0.39,0.35-0.664,0.388
		c-0.044,0.006-0.09,0.012-0.134,0.018c-0.388-0.079-0.571-0.278-0.609-0.663C55.955,38.212,56.065,37.898,56.175,37.584z"/>
	<path fill-rule="evenodd" clip-rule="evenodd" fill="#FBDDC9" d="M57.311,37.313c-0.026-0.033-0.054-0.065-0.081-0.098
		c0.003-0.079-0.006-0.159,0.025-0.235c0.197-0.174,0.168-0.524,0.472-0.617c0.264,0.269,0.449,0.597,0.678,0.893
		c0.164,0.213,0.163,0.411,0.019,0.624c-0.174,0.38-0.405,0.699-0.851,0.785c-0.253-0.262-0.085-0.619-0.207-0.91
		C57.347,37.608,57.299,37.464,57.311,37.313z"/>
	<path fill-rule="evenodd" clip-rule="evenodd" fill="#88581E" d="M57.629,38.668c0.265-0.263,0.529-0.525,0.794-0.788
		c0.148,0.212,0.077,0.427,0.03,0.653c-0.088,0.415-0.146,0.836-0.221,1.254c-0.033,0.188-0.096,0.24-0.29,0.115
		c-0.292-0.188-0.555-0.35-0.397-0.769c0.043-0.116-0.001-0.265-0.004-0.398C57.557,38.696,57.587,38.673,57.629,38.668z"/>
	<path fill-rule="evenodd" clip-rule="evenodd" fill="#F8BC9F" d="M56.175,37.584c-0.001,0.174-0.003,0.345-0.042,0.52
		c-0.132,0.575-0.047,0.761,0.466,1.113c-0.087,0.051-0.173,0.103-0.259,0.154c-0.27,0.051-0.518,0.201-0.805,0.17
		c0.045-0.488,0.092-0.977,0.137-1.464C55.988,38.064,55.972,37.712,56.175,37.584z"/>
	<path fill-rule="evenodd" clip-rule="evenodd" fill="#F3B89A" d="M57.141,37.105c-0.247,0.126-0.511,0.175-0.786,0.162
		c0.163-0.334,0.326-0.669,0.504-1.037c0.086,0.174,0.158,0.321,0.229,0.467C57.193,36.823,57.283,36.949,57.141,37.105z"/>
	<path fill-rule="evenodd" clip-rule="evenodd" fill="#79460E" d="M57.389,26.748c-0.532-0.849-0.967-1.753-1.501-2.602
		c0.6,0.795,1.12,1.638,1.582,2.519C57.443,26.692,57.416,26.72,57.389,26.748z"/>
	<path fill-rule="evenodd" clip-rule="evenodd" fill="#8B5A21" d="M56.732,39.199c0.222-0.129,0.442-0.259,0.664-0.388
		C57.382,39.528,57.382,39.528,56.732,39.199z"/>
	<path fill-rule="evenodd" clip-rule="evenodd" fill="#F8BB9F" d="M57.727,36.364c-0.161,0.213-0.197,0.507-0.43,0.675
		c-0.156-0.065-0.13-0.224-0.175-0.346l0.031,0.006c0.065-0.237,0.196-0.426,0.401-0.563C57.611,36.211,57.669,36.288,57.727,36.364
		z"/>
	<path fill-rule="evenodd" clip-rule="evenodd" fill="#F7BB9E" d="M57.131,36.481c-0.097-0.224-0.24-0.436-0.124-0.703
		c0.073-0.166,0.143-0.097,0.225-0.02C57.369,36.023,57.539,36.293,57.131,36.481z"/>
	<path fill-rule="evenodd" clip-rule="evenodd" fill="#F1D0BA" d="M57.131,36.481c0.233-0.213,0.155-0.469,0.101-0.722
		c0.141,0.097,0.233,0.236,0.323,0.376c-0.041,0.253-0.289,0.36-0.401,0.563C57.146,36.626,57.139,36.553,57.131,36.481z"/>
	<path fill-rule="evenodd" clip-rule="evenodd" fill="#845524" d="M57.629,38.668c-0.03,0.022-0.059,0.044-0.088,0.067
		c-0.047,0.023-0.095,0.046-0.141,0.069c-0.026-0.327-0.052-0.652-0.077-0.979c0.024-0.032,0.028-0.082,0.078-0.092
		C57.58,38.021,57.372,38.4,57.629,38.668z"/>
	<path fill-rule="evenodd" clip-rule="evenodd" fill="#AF8660" d="M54.003,31.1c-0.164-0.064-0.329-0.127-0.548-0.212
		c0.228-0.087,0.328,0.102,0.479,0.066C53.998,30.983,54.002,31.041,54.003,31.1z"/>
	<path fill-rule="evenodd" clip-rule="evenodd" fill="#6D3A03" d="M57.122,36.693c0.059,0.115,0.117,0.231,0.175,0.346
		c0.003,0.068-0.003,0.134-0.067,0.176c-0.029-0.037-0.06-0.073-0.089-0.11c-0.018-0.136-0.035-0.271-0.053-0.407L57.122,36.693z"/>
	<path fill-rule="evenodd" clip-rule="evenodd" fill="#C88B48" d="M52.699,22.705c-0.242-0.489-0.484-0.977-0.733-1.482
		c1.509,0.172,2.791,3.024,2.153,4.725c-0.255-0.362-0.484-0.742-0.768-1.076c-0.277-0.326-0.61-0.605-0.976-0.96
		c0.16,0.443,0.351,0.806,0.393,1.245c-0.271-0.076-0.428-0.273-0.604-0.442c-0.727-0.699-1.292-1.512-1.692-2.436
		c-0.046-0.104-0.143-0.232-0.065-0.336c0.078-0.107,0.197,0.009,0.298,0.021C51.419,22.049,52.007,22.444,52.699,22.705z"/>
	<path fill-rule="evenodd" clip-rule="evenodd" fill="#74410A" d="M41.613,20.261c-0.935,0.064-1.869,0.131-2.805,0.189
		c-0.144,0.009-0.291-0.025-0.437-0.039c-0.048-0.033-0.123,0-0.161-0.061c0.421-0.681,1.024-1.177,1.704-1.563
		c0.544-0.31,1.128-0.137,1.497,0.371c0.212,0.293,0.419,0.593,0.526,0.947C41.914,20.334,41.698,20.161,41.613,20.261z"/>
	<path fill-rule="evenodd" clip-rule="evenodd" fill="#74410A" d="M42.342,16.951c0.167,0.021,0.334,0.042,0.541,0.069
		c-0.137-0.191-0.322-0.247-0.479-0.367c0.213-0.05,0.405-0.028,0.603,0.021c-0.435-0.445-0.987-0.667-1.604-0.898
		c0.513-0.105,0.947,0.027,1.359,0.161c0.221,0.072,0.321-0.063,0.374-0.14c0.1-0.149-0.104-0.205-0.194-0.275
		c-0.113-0.087-0.253-0.143-0.361-0.265c0.253,0.063,0.504,0.126,0.79,0.197c-0.134-0.392-0.473-0.565-0.731-0.813
		c0.107-0.06,0.178,0,0.247,0.03c0.523,0.227,0.982,0.747,1.673,0.213c-0.008,0.054-0.015,0.107-0.022,0.161
		c-0.196,0.1-0.392,0.2-0.588,0.3c0.005,0.021,0.009,0.042,0.013,0.063c0.271,0,0.544,0,0.816,0
		c-0.261,0.254-0.633,0.145-0.917,0.363c0.218,0.182,0.522,0.072,0.737,0.248c-0.291,0.113-0.626,0.106-0.965,0.317
		c0.641,0.135,1.197,0.318,1.646,0.739c-0.517-0.137-1.03-0.26-1.57-0.186c-0.003,0.198,0.258,0.092,0.263,0.239
		c-0.643,0.291-1.255,0.067-1.87-0.098C42.124,16.832,42.244,16.926,42.342,16.951z"/>
	<path fill-rule="evenodd" clip-rule="evenodd" fill="#74410A" d="M43.474,20.18c-0.256,0.021-0.511,0.056-0.768,0.016
		c-0.235-0.009-0.494,0.174-0.694-0.093c0.104-0.534,0.477-0.753,1.013-0.679c0.395,0.055,0.725,0.256,1.094,0.362
		c-0.042,0.235,0.159,0.11,0.24,0.162c0.081,0.054,0.162,0.107,0.242,0.161C44.231,20.216,43.845,20.084,43.474,20.18z"/>
	<path fill-rule="evenodd" clip-rule="evenodd" fill="#79460E" d="M27.209,33.787c-0.004-0.066-0.015-0.127-0.08-0.163
		c0.364-2.304,1.073-4.494,2.188-6.548c-0.147,0.339-0.298,0.676-0.44,1.017c-0.756,1.801-1.356,3.647-1.604,5.594
		C27.269,33.723,27.231,33.754,27.209,33.787z"/>
	<path fill-rule="evenodd" clip-rule="evenodd" fill="#7C4911" d="M42.342,16.951c-0.087,0.006-0.184-0.014-0.242,0.08
		c-0.322,0-0.644,0-0.966,0C41.529,16.838,41.931,16.811,42.342,16.951z"/>
	<path fill-rule="evenodd" clip-rule="evenodd" fill="#7E4D18" d="M43.474,20.18c0.368-0.147,0.753-0.043,1.128-0.071
		c0.185,0.02,0.299,0.116,0.325,0.305C44.498,19.987,43.959,20.253,43.474,20.18z"/>
	<path fill-rule="evenodd" clip-rule="evenodd" fill="#855118" d="M29.412,26.67c0.154-0.286,0.308-0.572,0.462-0.858
		C29.816,26.152,29.684,26.455,29.412,26.67z"/>
	<path fill-rule="evenodd" clip-rule="evenodd" fill="#814E15" d="M30.201,23.343c0.139-0.304,0.286-0.603,0.566-0.808l0.001,0.001
		c-0.131,0.333-0.348,0.613-0.567,0.89c-0.024-0.019-0.032-0.037-0.024-0.055C30.185,23.352,30.193,23.343,30.201,23.343z"/>
	<path fill-rule="evenodd" clip-rule="evenodd" fill="#74420B" d="M42.012,20.103c0.211,0.174,0.464,0.044,0.693,0.093
		c-0.359,0.095-0.726,0.066-1.092,0.065c0.076-0.12,0.255-0.021,0.324-0.155C41.962,20.107,41.987,20.106,42.012,20.103z"/>
	<path fill-rule="evenodd" clip-rule="evenodd" fill="#7B4916" d="M37.649,21.169c-0.135,0.188-0.271,0.375-0.406,0.562
		c-0.027-0.028-0.054-0.056-0.082-0.084c0.167-0.186,0.257-0.437,0.483-0.573c0.023,0.02,0.032,0.041,0.025,0.062
		C37.664,21.158,37.657,21.169,37.649,21.169z"/>
	<path fill-rule="evenodd" clip-rule="evenodd" fill="#73410A" d="M30.201,23.343c0,0.028,0,0.055,0,0.083
		c-0.117,0.202-0.203,0.426-0.403,0.568l-0.003-0.002C29.854,23.727,30.003,23.52,30.201,23.343z"/>
	<path fill-rule="evenodd" clip-rule="evenodd" fill="#89571C" d="M54.596,22.284c0.201,0.071,0.24,0.268,0.331,0.424
		C54.727,22.636,54.687,22.44,54.596,22.284z"/>
	<path fill-rule="evenodd" clip-rule="evenodd" fill="#74420B" d="M44.359,19.948c-0.128,0.07-0.261,0.108-0.409,0.06
		c-0.034-0.145,0.143-0.126,0.169-0.222C44.199,19.84,44.279,19.894,44.359,19.948z"/>
	<path fill-rule="evenodd" clip-rule="evenodd" fill="#7D4B15" d="M38.21,20.351c0.054,0.02,0.108,0.04,0.161,0.061
		c-0.213,0.017-0.248,0.251-0.405,0.336C37.875,20.51,38.084,20.456,38.21,20.351z"/>
	<path fill-rule="evenodd" clip-rule="evenodd" fill="#7E4C18" d="M37.649,21.169c-0.001-0.032-0.003-0.063-0.005-0.095
		c0.027-0.185,0.131-0.294,0.318-0.321C37.858,20.892,37.754,21.03,37.649,21.169z"/>
	<path fill-rule="evenodd" clip-rule="evenodd" fill="#865219" d="M30.768,22.535c0-0.132,0.08-0.211,0.219-0.306
		C30.976,22.41,30.875,22.476,30.768,22.535L30.768,22.535z"/>
	<path fill-rule="evenodd" clip-rule="evenodd" fill="#824F16" d="M55.348,23.317c-0.119-0.063-0.189-0.115-0.197-0.221
		C55.3,23.088,55.33,23.173,55.348,23.317z"/>
	<path fill-rule="evenodd" clip-rule="evenodd" fill="#D7B498" d="M26.95,37.509c-0.044-0.025-0.088-0.05-0.132-0.076
		c-0.008-0.083,0.016-0.196,0.1-0.167C27.005,37.295,26.958,37.422,26.95,37.509z"/>
	<path fill-rule="evenodd" clip-rule="evenodd" fill="#9D6F42" d="M29.232,38.223c-0.024-0.052-0.049-0.104-0.074-0.157
		c0.078-0.033,0.064-0.114,0.09-0.173C29.3,38.005,29.393,38.12,29.232,38.223z"/>
	<path fill-rule="evenodd" clip-rule="evenodd" fill="#F3816F" d="M51.172,40.75c-0.601,0.018-1.178-0.078-1.713-0.367
		c-0.931-0.502-1.072-1.411-0.333-2.161c1.08-1.098,3.38-1.439,4.74-0.703c0.88,0.475,1.025,1.343,0.351,2.075
		C53.555,40.309,52.402,40.748,51.172,40.75z"/>
	<path fill-rule="evenodd" clip-rule="evenodd" fill="#F3816F" d="M34.227,40.032c-1.171,0.012-2.118-0.282-2.962-0.9
		c-0.22-0.161-0.406-0.352-0.559-0.578c-0.535-0.788-0.298-1.602,0.58-1.984c1.458-0.635,3.724-0.06,4.716,1.195
		c0.572,0.724,0.397,1.521-0.418,1.957C35.117,39.972,34.62,40.051,34.227,40.032z"/>
	<path fill-rule="evenodd" clip-rule="evenodd" fill="#FEFEFE" d="M34.9,36.539c-0.049,0-0.097,0-0.145,0
		c-0.479-0.208-0.974-0.384-1.336-0.797c-0.255-0.291-0.433-0.617-0.529-0.986c-0.144-0.552,0.018-0.919,0.533-1.159
		c1.615-0.751,4.108-0.513,5.478,1.203c0.293,0.367,0.586,0.739,0.752,1.189c-0.001,0.123,0.076,0.239,0.03,0.366
		c-0.138,0.499-0.584,0.439-0.945,0.5c-0.525,0.087-1.057,0.044-1.585,0.011c-0.289,0.091-0.574-0.008-0.86-0.014
		c-0.185-0.061-0.391-0.004-0.569-0.102c-0.144-0.015-0.289-0.023-0.422-0.087C35.158,36.651,35.022,36.617,34.9,36.539z"/>
	<path fill-rule="evenodd" clip-rule="evenodd" fill="#FEFEFE" d="M50.404,36.532c-0.017,0.027-0.035,0.054-0.053,0.081
		c-0.135,0.047-0.285,0.021-0.417,0.083c-0.109,0.053-0.23,0.028-0.344,0.057c-0.182,0.058-0.371,0.062-0.559,0.078
		c-0.282,0.05-0.565,0.11-0.854,0.037c-0.552-0.022-1.104,0.113-1.657-0.006c-0.342-0.074-0.733-0.047-0.87-0.485
		c-0.028-0.034-0.046-0.073-0.052-0.116c0.583-1.655,1.745-2.638,3.46-2.977c0.616-0.122,1.231-0.118,1.849-0.003
		c0.332,0.062,0.66,0.137,0.96,0.301c0.528,0.29,0.698,0.671,0.534,1.246c-0.234,0.818-0.799,1.318-1.587,1.587
		C50.686,36.478,50.554,36.537,50.404,36.532z"/>
	<path fill-rule="evenodd" clip-rule="evenodd" fill="#3C0D03" d="M50.761,36.389c0.779-0.355,1.396-0.851,1.582-1.75
		c0.085-0.419-0.057-0.71-0.412-0.914c-0.416-0.238-0.878-0.32-1.349-0.379c-2.207-0.275-4.107,0.851-4.938,2.932
		c-0.141,0.013-0.108-0.071-0.082-0.15c0.046-0.683,0.237-1.329,0.495-1.959c0.272-0.675,0.733-1.199,1.382-1.508
		c1.499-0.716,3.062-0.995,4.696-0.521c0.51,0.147,0.984,0.37,1.215,0.905c0.056,0.196,0.127,0.311,0.271,0.053
		c0.107-0.197,0.214-0.395,0.34-0.629c0.118,0.529-0.006,0.991-0.235,1.482c0.304-0.113,0.431-0.35,0.657-0.468
		c-0.175,0.545-0.44,1.057-0.891,1.389c-0.825,0.61-1.627,1.277-2.631,1.602C50.781,36.501,50.752,36.469,50.761,36.389z"/>
	<path fill-rule="evenodd" clip-rule="evenodd" fill="#3C0D03" d="M39.59,36.049c-0.121-0.209-0.234-0.424-0.366-0.627
		c-1.261-1.953-3.252-2.466-5.333-1.903c-1.004,0.272-1.202,0.823-0.695,1.742c0.271,0.493,0.7,0.807,1.194,1.051
		c0.127,0.063,0.297,0.068,0.365,0.228c-0.566-0.059-1.042-0.336-1.488-0.656c-0.285-0.205-0.574-0.397-0.876-0.571
		c-0.756-0.435-1.207-1.112-1.579-1.987c0.302,0.217,0.433,0.485,0.801,0.642c-0.274-0.512-0.359-0.974-0.263-1.522
		c0.167,0.304,0.247,0.605,0.488,0.823c0.12-0.069,0.021-0.241,0.141-0.295c0.292-0.532,0.815-0.723,1.345-0.883
		c0.8-0.241,1.618-0.24,2.435-0.092c0.862,0.156,1.709,0.35,2.451,0.866c0.495,0.345,0.825,0.797,1.048,1.342
		c0.189,0.486,0.397,0.968,0.428,1.5C39.682,35.828,39.808,35.986,39.59,36.049z"/>
	<path fill-rule="evenodd" clip-rule="evenodd" fill="#F27B87" d="M46.879,44.882c-0.022,0.987-0.68,1.877-1.682,2.255
		c-0.327,0.122-0.664,0.216-0.997,0.322c-1.034,0.343-2.057,0.291-3.072-0.084c-0.743-0.285-1.474-0.589-1.999-1.228
		c-0.273-0.33-0.538-0.669-0.597-1.116c0.135-0.058,0.233,0.037,0.333,0.094c0.331,0.187,0.676,0.332,1.057,0.385
		c0.509,0.199,1.053,0.248,1.585,0.271c1.466,0.067,2.934,0.093,4.343-0.434c0.253-0.059,0.463-0.201,0.677-0.341
		C46.631,44.938,46.721,44.806,46.879,44.882z"/>
	<path fill-rule="evenodd" clip-rule="evenodd" fill="#74410A" d="M31.251,30.708c0.46-0.376,1.029-0.49,1.58-0.637
		c1.751-0.469,3.41-0.239,4.984,0.664c0.951,0.546,1.854,1.149,2.595,1.968c0.253,0.28,0.486,0.577,0.583,0.955
		c0.034,0.131,0.086,0.283-0.04,0.375c-0.113,0.083-0.23-0.021-0.326-0.085c-0.303-0.2-0.603-0.405-0.896-0.619
		c-1.023-0.745-2.039-1.501-3.167-2.087c-0.779-0.405-1.579-0.755-2.48-0.771c-0.405,0.01-0.808,0.037-1.212,0
		c-0.556-0.034-1.073,0.195-1.618,0.241L31.251,30.708z"/>
	<path fill-rule="evenodd" clip-rule="evenodd" fill="#F27A87" d="M38.466,44.407c0.709-1.116,1.744-1.786,3.01-2.059
		c1.625-0.35,3.155-0.088,4.515,0.914c0.396,0.292,0.704,0.663,0.869,1.139c-0.381,0.033-0.623-0.294-0.964-0.366
		c-2.057-0.7-4.112-0.668-6.167-0.001c-0.294,0.073-0.576,0.182-0.854,0.302C38.745,44.39,38.62,44.483,38.466,44.407z"/>
	<path fill-rule="evenodd" clip-rule="evenodd" fill="#74410A" d="M47.194,32.388c-0.601,0.409-1.201,0.818-1.803,1.226
		c-0.312,0.211-0.622,0.425-0.944,0.622c-0.104,0.063-0.235,0.197-0.358,0.068c-0.099-0.102-0.055-0.257-0.017-0.387
		c0.103-0.344,0.303-0.634,0.546-0.887c1.328-1.385,2.903-2.358,4.793-2.756c0.669-0.14,1.352-0.083,2.035,0.069
		c0.449,0.099,0.911,0.156,1.457,0.265c-0.271,0.138-0.441,0.021-0.612,0.011c-0.402-0.052-0.807-0.052-1.211,0
		c-1.059,0.16-2.009,0.598-2.912,1.154C47.904,32.073,47.564,32.256,47.194,32.388z"/>
	<path fill-rule="evenodd" clip-rule="evenodd" fill="#F9BC9F" d="M47.194,32.388c0.298-0.248,0.629-0.443,0.974-0.616
		c0.336,0.067,0.637-0.117,0.962-0.134c1.003-0.053,2.012-0.162,2.98,0.21c0.575,0.222,1.086,0.528,1.24,1.196
		c-0.665-0.79-1.581-0.98-2.539-1.017c-1.006-0.04-1.979,0.163-2.918,0.522c-0.814,0.311-1.36,0.925-1.836,1.619
		c0.054-0.521,0.394-0.887,0.691-1.274C46.887,32.717,47.103,32.606,47.194,32.388z"/>
	<path fill-rule="evenodd" clip-rule="evenodd" fill="#F9BC9F" d="M39.258,34.206c-1.288-1.828-3.999-2.684-6.133-1.948
		c-0.44,0.152-0.796,0.425-1.146,0.714c0.128-0.646,0.642-0.939,1.175-1.094c1.65-0.48,3.299-0.544,4.802,0.458
		C38.612,32.773,39.095,33.394,39.258,34.206z"/>
	<path fill-rule="evenodd" clip-rule="evenodd" fill="#F9BC9F" d="M40.821,39.604c0.749,0.353,1.479,0.52,2.256,0.499
		c0.356-0.01,0.689-0.089,1.02-0.201c0.216-0.073,0.281-0.03,0.197,0.194c-0.224,0.593-0.66,0.955-1.271,1.037
		C42.013,41.27,41.057,40.844,40.821,39.604z"/>
	<path fill-rule="evenodd" clip-rule="evenodd" fill="#740201" d="M38.466,44.407c0.404-0.126,0.746-0.428,1.194-0.431
		c0.295,0.197,0.462,0.547,0.823,0.67c0.115,0.039,0.117,0.154,0.014,0.214c-0.284,0.165-0.449,0.446-0.679,0.663
		c-0.333,0.122-0.574-0.111-0.843-0.224c-0.157-0.066-0.296-0.177-0.443-0.269c-0.211-0.247-0.397,0.151-0.627,0.007
		C38.024,44.77,38.264,44.604,38.466,44.407z"/>
	<path fill-rule="evenodd" clip-rule="evenodd" fill="#750202" d="M45.991,43.988c0.326,0.06,0.574,0.286,0.869,0.412
		c0.165,0.215,0.389,0.39,0.483,0.671c-0.238,0.079-0.279-0.218-0.465-0.189c-0.283,0.205-0.57,0.403-0.891,0.547
		c-0.343-0.224-0.626-0.538-1.042-0.654c-0.146-0.041-0.144-0.177-0.003-0.219C45.334,44.437,45.628,44.15,45.991,43.988z"/>
	<path fill-rule="evenodd" clip-rule="evenodd" fill="#F9BDA1" d="M41.612,31.69c0.27,0.917,0.411,1.824-0.065,2.7
		c-0.209,0.385-0.551,0.545-1.021,0.488c0.322-0.224,0.673-0.379,0.863-0.727c0.165-0.304,0.236-0.622,0.227-0.968
		C41.602,32.686,41.612,32.188,41.612,31.69z"/>
	<path fill-rule="evenodd" clip-rule="evenodd" fill="#FABDA0" d="M44.713,34.954c-0.728,0.045-1.178-0.404-1.317-1.211
		c-0.11-0.644-0.054-1.27,0.136-1.986C43.643,32.985,43.219,34.325,44.713,34.954z"/>
	<path fill-rule="evenodd" clip-rule="evenodd" fill="#F9BC9F" d="M41.128,47.375c1.019,0.196,2.043,0.217,3.072,0.084
		C43.672,48.076,41.794,47.987,41.128,47.375z"/>
	<path fill-rule="evenodd" clip-rule="evenodd" fill="#F9C0A5" d="M42.779,33.782c-0.197-0.767-0.175-1.559-0.258-2.338
		C42.913,32.188,42.816,32.989,42.779,33.782z"/>
	<path fill-rule="evenodd" clip-rule="evenodd" fill="#FEE9D8" d="M32.873,30.47c0.404-0.066,0.808-0.075,1.212,0
		C33.68,30.596,33.277,30.597,32.873,30.47z"/>
	<path fill-rule="evenodd" clip-rule="evenodd" fill="#C5AFA8" d="M36.261,36.79c0.297,0.025,0.595,0.05,0.892,0.076
		c-0.322,0.124-0.644,0.113-0.966-0.001C36.201,36.831,36.227,36.806,36.261,36.79z"/>
	<path fill-rule="evenodd" clip-rule="evenodd" fill="#7C4A18" d="M51.08,30.619c0.404-0.12,0.809-0.12,1.211,0
		C51.889,30.619,51.484,30.619,51.08,30.619z"/>
	<path fill-rule="evenodd" clip-rule="evenodd" fill="#C0A9A0" d="M48.179,36.868c0.295-0.025,0.59-0.051,0.885-0.077
		c0.023,0.019,0.03,0.035,0.021,0.049s-0.019,0.021-0.027,0.021C48.765,36.989,48.473,36.977,48.179,36.868z"/>
	<path fill-rule="evenodd" clip-rule="evenodd" fill="#67423D" d="M39.59,36.049c0.139-0.084,0.04-0.235,0.095-0.344
		c0.062,0.217,0.147,0.434-0.002,0.649C39.652,36.253,39.621,36.151,39.59,36.049z"/>
	<path fill-rule="evenodd" clip-rule="evenodd" fill="#88675F" d="M49.057,36.861c0.003-0.023,0.005-0.046,0.007-0.07
		c0.188-0.027,0.373-0.055,0.561-0.082c0.028,0.017,0.036,0.035,0.028,0.053c-0.008,0.019-0.018,0.027-0.026,0.027
		C49.447,36.906,49.247,36.841,49.057,36.861z"/>
	<path fill-rule="evenodd" clip-rule="evenodd" fill="#8C6A61" d="M36.261,36.79c-0.025,0.025-0.049,0.05-0.074,0.075
		c-0.161-0.027-0.339,0.046-0.483-0.081c-0.027-0.015-0.036-0.03-0.028-0.046c0.008-0.017,0.017-0.024,0.025-0.024
		C35.888,36.739,36.074,36.765,36.261,36.79z"/>
	<path fill-rule="evenodd" clip-rule="evenodd" fill="#8F6233" d="M52.896,30.713c0.211-0.1,0.313,0.007,0.427,0.069
		C53.188,30.824,53.067,30.801,52.896,30.713z"/>
	<path fill-rule="evenodd" clip-rule="evenodd" fill="#5F3730" d="M50.761,36.389c0.034,0.028,0.068,0.057,0.101,0.085
		c-0.146,0.069-0.283,0.2-0.457,0.058C50.524,36.484,50.643,36.437,50.761,36.389z"/>
	<path fill-rule="evenodd" clip-rule="evenodd" fill="#6B433A" d="M35.701,36.713c-0.003,0.023-0.002,0.047,0.002,0.07
		c-0.14-0.004-0.285,0.023-0.409-0.072c-0.026-0.021-0.034-0.04-0.023-0.058c0.01-0.017,0.019-0.026,0.028-0.026
		C35.433,36.657,35.566,36.685,35.701,36.713z"/>
	<path fill-rule="evenodd" clip-rule="evenodd" fill="#6A4239" d="M35.299,36.628c-0.001,0.028-0.003,0.056-0.005,0.084
		c-0.147-0.022-0.33,0.038-0.395-0.173C35.047,36.504,35.166,36.599,35.299,36.628z"/>
	<path fill-rule="evenodd" clip-rule="evenodd" fill="#6A4339" d="M49.953,36.638c0.131-0.038,0.261-0.094,0.398-0.025
		c-0.072,0.123-0.196,0.083-0.303,0.099C49.973,36.744,49.945,36.714,49.953,36.638z"/>
	<path fill-rule="evenodd" clip-rule="evenodd" fill="#7C574E" d="M49.953,36.638c0.031,0.024,0.064,0.049,0.096,0.074
		c-0.129,0.094-0.278,0.073-0.423,0.078c-0.001-0.027-0.002-0.053-0.002-0.08C49.733,36.685,49.843,36.661,49.953,36.638z"/>
	<path fill-rule="evenodd" clip-rule="evenodd" fill="#C7A89B" d="M45.562,36.128c0.027,0.05,0.055,0.1,0.082,0.15
		c0.003,0.033,0.005,0.065,0.007,0.098C45.394,36.375,45.494,36.247,45.562,36.128z"/>
	<path fill-rule="evenodd" clip-rule="evenodd" fill="#6D3A05" d="M57.401,37.734c-0.026,0.03-0.052,0.062-0.078,0.092
		c0.016-0.171-0.181-0.337-0.013-0.513C57.401,37.441,57.396,37.589,57.401,37.734z"/>
	<path fill-rule="evenodd" clip-rule="evenodd" fill="#74420B" d="M43.055,20.09c-0.29,0-0.58,0-0.87,0c0-0.013,0-0.027,0-0.041
		c0.286,0,0.574,0,0.86,0C43.048,20.063,43.052,20.077,43.055,20.09z"/>
	<path fill-rule="evenodd" clip-rule="evenodd" fill="#783A02" d="M36.871,33.856c0.65,0.003,1.169,0.496,1.159,1.098
		c-0.01,0.62-0.525,1.116-1.152,1.112c-0.631-0.004-1.121-0.5-1.119-1.134C35.761,34.304,36.228,33.853,36.871,33.856z"/>
	<path fill-rule="evenodd" clip-rule="evenodd" fill="#783A02" d="M48.901,33.867c0.655,0.005,1.15,0.483,1.144,1.104
		c-0.007,0.63-0.508,1.117-1.142,1.11c-0.625-0.006-1.131-0.518-1.127-1.137C47.78,34.332,48.271,33.862,48.901,33.867z"/>
	<path fill-rule="evenodd" clip-rule="evenodd" fill="#FEFEFE" d="M45.991,43.988c-0.268,0.382-0.678,0.535-1.145,0.682
		c0.521,0.098,0.896,0.336,1.142,0.759c-1.894,0.664-3.828,0.607-5.771,0.298c-0.139-0.022-0.343,0.012-0.399-0.203
		c0.089-0.388,0.342-0.629,0.754-0.775c-0.45-0.134-0.764-0.359-0.912-0.771c0.496-0.305,1.064-0.349,1.617-0.436
		c1.455-0.229,2.898-0.18,4.311,0.274C45.727,43.859,45.857,43.93,45.991,43.988z"/>
	<path fill-rule="evenodd" clip-rule="evenodd" fill="#F69E93" d="M45.333,46.568c-0.18,0.116-0.37,0.214-0.585,0.239
		c-0.11,0.015-0.229,0-0.27-0.123c-0.036-0.107,0.055-0.177,0.132-0.227c0.193-0.122,0.394-0.237,0.638-0.215
		c0.101-0.056,0.196-0.081,0.264,0.046c-0.088,0.212-0.359,0.089-0.467,0.258c-0.058,0.013,0.001,0.008,0.005,0.004
		C45.147,46.468,45.243,46.481,45.333,46.568z"/>
	<path fill-rule="evenodd" clip-rule="evenodd" fill="#F69D93" d="M45.498,46.32c-0.063-0.089-0.161-0.07-0.25-0.077
		c0.117-0.186,0.316-0.244,0.505-0.306c0.108-0.035,0.264-0.058,0.322,0.077c0.057,0.126-0.04,0.234-0.149,0.294
		c-0.14,0.076-0.271,0.18-0.444,0.174C45.444,46.425,45.449,46.37,45.498,46.32z"/>
	<path fill-rule="evenodd" clip-rule="evenodd" fill="#FDF7F6" d="M45.498,46.32c-0.006,0.054-0.011,0.108-0.017,0.162
		c-0.049,0.028-0.099,0.058-0.148,0.086c-0.114-0.003-0.236,0.045-0.358-0.045C45.094,46.284,45.3,46.312,45.498,46.32z"/>
	<path fill-rule="evenodd" clip-rule="evenodd" fill="#F7F4F2" d="M37.097,34.682c0.231-0.052,0.45-0.068,0.576,0.194
		c0.081,0.167,0.037,0.313-0.085,0.433c-0.187,0.182-0.385,0.113-0.578,0.001C36.774,35.003,36.785,34.925,37.097,34.682z"/>
	<path fill-rule="evenodd" clip-rule="evenodd" fill="#1E0502" d="M37.097,34.682c-0.18,0.188-0.219,0.396-0.087,0.628
		c-0.29,0.018-0.505-0.121-0.463-0.405C36.589,34.615,36.822,34.532,37.097,34.682z"/>
	<path fill-rule="evenodd" clip-rule="evenodd" fill="#FCFCFB" d="M49.076,34.751c0.223-0.129,0.44-0.146,0.594,0.09
		c0.113,0.174,0.092,0.369-0.081,0.501c-0.224,0.172-0.422,0.088-0.595-0.1C48.831,35.047,48.835,34.879,49.076,34.751z"/>
	<path fill-rule="evenodd" clip-rule="evenodd" fill="#1E0604" d="M49.076,34.751c-0.119,0.148-0.134,0.314-0.082,0.491
		c-0.179,0.164-0.296,0.029-0.378-0.104c-0.087-0.144-0.083-0.311,0.064-0.426C48.816,34.608,48.963,34.554,49.076,34.751z"/>
</g>
</svg>
