<?xml version="1.0" encoding="utf-8"?>
<!-- Generator: Adobe Illustrator 16.0.0, SVG Export Plug-In . SVG Version: 6.00 Build 0)  -->
<!DOCTYPE svg PUBLIC "-//W3C//DTD SVG 1.1//EN" "http://www.w3.org/Graphics/SVG/1.1/DTD/svg11.dtd">
<svg version="1.1" id="Layer_1" xmlns="http://www.w3.org/2000/svg" xmlns:xlink="http://www.w3.org/1999/xlink" x="0px" y="0px"
	 width="85px" height="85px" viewBox="0 0 85 85" enable-background="new 0 0 85 85" xml:space="preserve">
<g>
	<path fill="#9E9D9E" d="M68.351,34.382H16.651c-2.271,0-4.111,1.842-4.111,4.111v1.102h59.922v-1.102
		C72.462,36.224,70.62,34.382,68.351,34.382z"/>
	<path fill="#FFFFFF" d="M12.54,39.595v2.416c0,10.629,6.969,19.627,16.584,22.684v16.592h26.75V64.694
		C65.491,61.638,72.46,52.64,72.46,42.011v-2.416H12.54z"/>
	<path fill="#D8D8D8" d="M12.54,39.595v2.416c0,0.275,0.023,0.547,0.033,0.82h59.854c0.01-0.273,0.035-0.545,0.035-0.82v-2.416
		H12.54z"/>
	<path fill="#FFFFFF" d="M61.378,3.712H23.21c-2.432,0-4.328,2.107-4.074,4.525l0.142,1.361h46.034l0.143-1.361
		C65.706,5.819,63.81,3.712,61.378,3.712z"/>
	<path fill="#9E9D9E" d="M61.378,3.712H23.21c-2.432,0-4.328,2.107-4.074,4.525l0.142,1.361h46.034l0.143-1.361
		C65.706,5.819,63.81,3.712,61.378,3.712z"/>
	<path fill="#848484" d="M68.458,34.382h-3.236c2.211,0,4.002,1.793,4.002,4.004v1.209h3.236v-1.209
		C72.462,36.175,70.669,34.382,68.458,34.382z"/>
	<path fill="#848484" d="M61.378,3.712h-3.236c2.432,0,4.328,2.107,4.076,4.525l-0.143,1.361h3.234l0.145-1.361
		C65.706,5.819,63.81,3.712,61.378,3.712z"/>
	<g>
		<polygon fill="#FFFFFF" points="19.277,9.599 21.871,34.382 62.718,34.382 65.31,9.599 		"/>
	</g>
	<polygon fill="#D8D8D8" points="64.972,12.835 65.31,9.599 19.277,9.599 19.616,12.835 	"/>
	<path fill="#2F2F31" d="M68.458,33.167h-4.395l2.453-23.439V9.726l0.143-1.359c0.156-1.494-0.33-2.992-1.336-4.107
		c-1.006-1.117-2.443-1.758-3.947-1.758H23.21c-1.502,0-2.94,0.641-3.945,1.756c-1.006,1.115-1.493,2.613-1.338,4.109l0.143,1.359
		c0,0,0,0,0,0.002l2.454,23.439h-3.981c-2.877,0-5.217,2.342-5.217,5.219v1.209v2.414c0,10.648,6.627,20.004,16.585,23.555v15.723
		c0,0.67,0.544,1.213,1.214,1.213h26.752c0.67,0,1.213-0.543,1.213-1.213V65.563c9.957-3.551,16.586-12.906,16.586-23.555v-2.414
		v-1.209C73.675,35.509,71.335,33.167,68.458,33.167z M21.068,5.88c0.554-0.615,1.315-0.953,2.142-0.953h38.168
		c0.828,0,1.588,0.338,2.143,0.953s0.812,1.408,0.727,2.23l-0.029,0.273H20.372L20.343,8.11C20.255,7.288,20.513,6.495,21.068,5.88z
		 M20.624,10.812h43.34l-2.34,22.355h-38.66L20.624,10.812z M16.542,35.595h5.329h40.845h5.742c1.537,0,2.787,1.25,2.789,2.787
		H13.753C13.755,36.845,15.005,35.595,16.542,35.595z M71.247,42.009c0,9.885-6.324,18.535-15.738,21.527
		c-0.504,0.16-0.847,0.629-0.847,1.156v15.381H30.339V64.692c0-0.527-0.343-0.996-0.848-1.156
		c-9.413-2.992-15.738-11.643-15.738-21.527v-1.201h57.494V42.009L71.247,42.009z"/>
</g>
</svg>
