<?xml version="1.0" encoding="utf-8"?>
<!-- Generator: Adobe Illustrator 16.0.0, SVG Export Plug-In . SVG Version: 6.00 Build 0)  -->
<!DOCTYPE svg PUBLIC "-//W3C//DTD SVG 1.1//EN" "http://www.w3.org/Graphics/SVG/1.1/DTD/svg11.dtd">
<svg version="1.1" id="Layer_1" xmlns="http://www.w3.org/2000/svg" xmlns:xlink="http://www.w3.org/1999/xlink" x="0px" y="0px"
	 width="85px" height="85px" viewBox="0 0 85 85" enable-background="new 0 0 85 85" xml:space="preserve">
<g id="sugar">
	<g>
		<polygon fill="#E5E8EC" points="26.759,37.297 19.917,41.017 5.833,36.856 9.994,22.772 16.834,19.052 30.919,23.212 		"/>
		<polygon fill="#CBD0D8" points="24.078,26.933 9.994,22.772 16.834,19.052 30.919,23.212 		"/>
	</g>
	<g>
		<polygon fill="#CBD0D8" points="69.451,16.401 56.451,23.231 63.279,36.231 76.281,29.403 		"/>
	</g>
	<g>
		<polygon fill="#A9B1BC" points="60.236,23.664 57.939,31.104 44.953,37.963 38.096,24.976 40.393,17.533 53.381,10.679 		"/>
		<polygon fill="#E5E8EC" points="51.082,18.119 38.096,24.976 44.953,37.963 57.939,31.104 		"/>
		<polygon fill="#CBD0D8" points="40.393,17.533 38.096,24.976 51.082,18.119 53.381,10.679 		"/>
	</g>
	<g>
		<polygon fill="#CBD0D8" points="23.752,34.472 21.428,27.038 28.235,14.024 41.248,20.834 43.572,28.269 36.766,41.278 		"/>
		<polygon fill="#E5E8EC" points="28.235,14.024 21.428,27.038 34.438,33.847 41.248,20.834 		"/>
	</g>
	<g>
		<g>
			<path fill="#AC92EA" d="M82.5,70.987c0,1.842-1.494,3.334-3.336,3.334H5.833c-1.841,0-3.333-1.492-3.333-3.334V27.653h80V70.987
				L82.5,70.987z"/>
		</g>
		<path fill="#967ADA" d="M2.5,34.321v3.332h5c0,0.921,0.745,1.668,1.665,1.668s1.667-0.747,1.667-1.668h3.333
			c0,0.921,0.747,1.668,1.667,1.668s1.667-0.747,1.667-1.668h3.333c0,0.921,0.747,1.668,1.667,1.668s1.665-0.747,1.665-1.668H27.5
			c0,0.921,0.745,1.668,1.665,1.668s1.667-0.747,1.667-1.668h3.333c0,0.921,0.747,1.668,1.667,1.668s1.667-0.747,1.667-1.668h3.333
			c0,0.921,0.747,1.668,1.667,1.668c0.92,0,1.667-0.747,1.667-1.668H47.5c0,0.921,0.744,1.668,1.666,1.668
			c0.92,0,1.666-0.747,1.666-1.668h3.334c0,0.921,0.746,1.668,1.666,1.668c0.922,0,1.668-0.747,1.668-1.668h3.332
			c0,0.921,0.748,1.668,1.668,1.668s1.666-0.747,1.666-1.668H67.5c0,0.921,0.744,1.668,1.666,1.668c0.92,0,1.666-0.747,1.666-1.668
			h3.334c0,0.921,0.746,1.668,1.666,1.668c0.922,0,1.668-0.747,1.668-1.668h4.938v-3.332H2.5z"/>
		<g opacity="0.2">
			<path fill="#FFFFFF" d="M79.164,27.653v43.334c0,1.842-1.49,3.334-3.332,3.334h3.332c1.842,0,3.336-1.492,3.336-3.334V27.653
				H79.164L79.164,27.653z"/>
		</g>
	</g>
</g>
</svg>
