<?xml version="1.0" encoding="utf-8"?>
<!-- Generator: Adobe Illustrator 16.0.0, SVG Export Plug-In . SVG Version: 6.00 Build 0)  -->
<!DOCTYPE svg PUBLIC "-//W3C//DTD SVG 1.1//EN" "http://www.w3.org/Graphics/SVG/1.1/DTD/svg11.dtd">
<svg version="1.1" id="Layer_1" xmlns="http://www.w3.org/2000/svg" xmlns:xlink="http://www.w3.org/1999/xlink" x="0px" y="0px"
	 width="85px" height="85px" viewBox="0 0 85 85" enable-background="new 0 0 85 85" xml:space="preserve">
<g>
	<rect x="2.523" y="2.5" fill="#BCD6EF" width="79.924" height="57.297"/>
	<g>
		<rect x="62.881" y="32.943" fill="#EAE8E7" width="11.039" height="22.334"/>
		<g>
			<path fill="#E88A24" d="M63.668,40.674c0,0.041,0.035,0.076,0.076,0.076h3.021c0.041,0,0.076-0.035,0.076-0.076v-3.537
				c0-0.043-0.035-0.076-0.076-0.076h-3.021c-0.041,0-0.076,0.035-0.076,0.076V40.674z"/>
			<g>
				<g>
					<path fill="#F5A741" d="M66.5,40.453c0,0.059,0.047,0.105,0.104,0.105h0.002c0.057,0,0.104-0.047,0.104-0.105v-3.127
						c0-0.057-0.047-0.104-0.104-0.104h-0.002c-0.057,0-0.104,0.047-0.104,0.104V40.453z"/>
				</g>
				<g>
					<path fill="#F5A741" d="M66.164,40.453c0,0.059,0.047,0.105,0.104,0.105l0,0c0.059,0,0.105-0.047,0.105-0.105v-3.127
						c0-0.057-0.047-0.104-0.105-0.104l0,0c-0.057,0-0.104,0.047-0.104,0.104V40.453z"/>
				</g>
				<g>
					<path fill="#F5A741" d="M65.826,40.453c0,0.059,0.047,0.105,0.104,0.105l0,0c0.059,0,0.105-0.047,0.105-0.105v-3.127
						c0-0.057-0.049-0.104-0.105-0.104l0,0c-0.057,0-0.104,0.047-0.104,0.104V40.453z"/>
				</g>
				<g>
					<path fill="#F5A741" d="M65.488,40.453c0,0.059,0.047,0.105,0.104,0.105h0.002c0.057,0,0.104-0.047,0.104-0.105v-3.127
						c0-0.057-0.047-0.104-0.104-0.104h-0.002c-0.057,0-0.104,0.047-0.104,0.104V40.453z"/>
				</g>
				<g>
					<path fill="#F5A741" d="M65.15,40.453c0,0.059,0.047,0.105,0.104,0.105l0,0c0.059,0,0.104-0.047,0.104-0.105v-3.127
						c0-0.057-0.045-0.104-0.104-0.104l0,0c-0.059,0-0.104,0.047-0.104,0.104V40.453z"/>
				</g>
				<g>
					<path fill="#F5A741" d="M64.812,40.453c0,0.059,0.047,0.105,0.105,0.105l0,0c0.057,0,0.104-0.047,0.104-0.105v-3.127
						c0-0.057-0.047-0.104-0.104-0.104l0,0c-0.059,0-0.105,0.047-0.105,0.104V40.453z"/>
				</g>
				<g>
					<path fill="#F5A741" d="M64.475,40.484c0,0.057,0.047,0.104,0.105,0.104l0,0c0.057,0,0.104-0.047,0.104-0.104v-3.127
						c0-0.059-0.047-0.105-0.104-0.105l0,0c-0.059,0-0.105,0.047-0.105,0.105V40.484z"/>
				</g>
				<g>
					<path fill="#F5A741" d="M64.139,40.484c0,0.057,0.045,0.104,0.104,0.104l0,0c0.059,0,0.104-0.047,0.104-0.104v-3.127
						c0-0.059-0.045-0.105-0.104-0.105l0,0c-0.059,0-0.104,0.047-0.104,0.105V40.484z"/>
				</g>
				<g>
					<path fill="#F5A741" d="M63.801,40.453c0,0.059,0.045,0.105,0.104,0.105l0,0c0.059,0,0.105-0.047,0.105-0.105v-3.127
						c0-0.057-0.047-0.104-0.105-0.104l0,0c-0.057,0-0.104,0.047-0.104,0.104V40.453z"/>
				</g>
			</g>
		</g>
		<path fill="#2694BB" d="M66.842,40.658c0,0.041,0.035,0.076,0.076,0.076h3.021c0.041,0,0.076-0.033,0.076-0.076v-3.537
			c0-0.043-0.035-0.076-0.076-0.076h-3.021c-0.041,0-0.076,0.033-0.076,0.076V40.658z"/>
		<g>
			<g>
				<path fill="#2AA9E1" d="M69.676,40.438c0,0.059,0.047,0.104,0.104,0.104l0,0c0.059,0,0.105-0.045,0.105-0.104v-3.127
					c0-0.057-0.047-0.104-0.105-0.104l0,0c-0.057,0-0.104,0.045-0.104,0.104V40.438z"/>
			</g>
			<g>
				<path fill="#2AA9E1" d="M69.338,40.438c0,0.059,0.047,0.104,0.104,0.104l0,0c0.059,0,0.105-0.045,0.105-0.104v-3.127
					c0-0.057-0.047-0.104-0.105-0.104l0,0c-0.057,0-0.104,0.045-0.104,0.104V40.438z"/>
			</g>
			<g>
				<path fill="#2AA9E1" d="M69,40.438c0,0.059,0.047,0.104,0.104,0.104h0.002c0.057,0,0.104-0.045,0.104-0.104v-3.127
					c0-0.057-0.047-0.104-0.104-0.104h-0.002c-0.057,0-0.104,0.045-0.104,0.104V40.438z"/>
			</g>
			<g>
				<path fill="#2AA9E1" d="M68.664,40.438c0,0.059,0.047,0.104,0.104,0.104l0,0c0.059,0,0.105-0.045,0.105-0.104v-3.127
					c0-0.057-0.047-0.104-0.105-0.104l0,0c-0.057,0-0.104,0.045-0.104,0.104V40.438z"/>
			</g>
			<g>
				<path fill="#2AA9E1" d="M68.326,40.438c0,0.059,0.047,0.104,0.104,0.104l0,0c0.059,0,0.105-0.045,0.105-0.104v-3.127
					c0-0.057-0.049-0.104-0.105-0.104l0,0c-0.057,0-0.104,0.045-0.104,0.104V40.438z"/>
			</g>
			<g>
				<path fill="#2AA9E1" d="M67.988,40.438c0,0.059,0.047,0.104,0.104,0.104h0.002c0.057,0,0.104-0.045,0.104-0.104v-3.127
					c0-0.057-0.047-0.104-0.104-0.104h-0.002c-0.057,0-0.104,0.045-0.104,0.104V40.438z"/>
			</g>
			<g>
				<path fill="#2AA9E1" d="M67.65,40.467c0,0.059,0.047,0.105,0.104,0.105l0,0c0.059,0,0.104-0.047,0.104-0.105V37.34
					c0-0.057-0.045-0.104-0.104-0.104l0,0c-0.059,0-0.104,0.047-0.104,0.104V40.467z"/>
			</g>
			<g>
				<path fill="#2AA9E1" d="M67.312,40.467c0,0.059,0.047,0.105,0.105,0.105l0,0c0.057,0,0.104-0.047,0.104-0.105V37.34
					c0-0.057-0.047-0.104-0.104-0.104l0,0c-0.059,0-0.105,0.047-0.105,0.104V40.467z"/>
			</g>
			<g>
				<path fill="#2AA9E1" d="M66.975,40.438c0,0.059,0.047,0.104,0.105,0.104l0,0c0.057,0,0.104-0.045,0.104-0.104v-3.127
					c0-0.057-0.047-0.104-0.104-0.104l0,0c-0.059,0-0.105,0.045-0.105,0.104V40.438z"/>
			</g>
		</g>
		<g>
			<path fill="#E85553" d="M70.018,40.645c0,0.041,0.033,0.076,0.076,0.076h3.02c0.043,0,0.078-0.035,0.078-0.076v-3.537
				c0-0.041-0.035-0.076-0.078-0.076h-3.02c-0.043,0-0.076,0.035-0.076,0.076V40.645z"/>
			<g>
				<g>
					<path fill="#F1A0AC" d="M72.852,40.424c0,0.059,0.045,0.105,0.104,0.105l0,0c0.059,0,0.104-0.047,0.104-0.105v-3.127
						c0-0.057-0.045-0.104-0.104-0.104l0,0c-0.059,0-0.104,0.047-0.104,0.104V40.424z"/>
				</g>
				<g>
					<path fill="#F1A0AC" d="M72.514,40.424c0,0.059,0.045,0.105,0.104,0.105l0,0c0.059,0,0.104-0.047,0.104-0.105v-3.127
						c0-0.057-0.047-0.104-0.104-0.104l0,0c-0.059,0-0.104,0.047-0.104,0.104V40.424z"/>
				</g>
				<g>
					<path fill="#F1A0AC" d="M72.176,40.424c0,0.059,0.047,0.105,0.104,0.105l0,0c0.059,0,0.105-0.047,0.105-0.105v-3.127
						c0-0.057-0.047-0.104-0.105-0.104l0,0c-0.057,0-0.104,0.047-0.104,0.104V40.424z"/>
				</g>
				<g>
					<path fill="#F1A0AC" d="M71.838,40.424c0,0.059,0.047,0.105,0.104,0.105l0,0c0.059,0,0.105-0.047,0.105-0.105v-3.127
						c0-0.057-0.047-0.104-0.105-0.104l0,0c-0.057,0-0.104,0.047-0.104,0.104V40.424z"/>
				</g>
				<g>
					<path fill="#F1A0AC" d="M71.5,40.424c0,0.059,0.047,0.105,0.104,0.105h0.002c0.057,0,0.104-0.047,0.104-0.105v-3.127
						c0-0.057-0.047-0.104-0.104-0.104h-0.002c-0.057,0-0.104,0.047-0.104,0.104V40.424z"/>
				</g>
				<g>
					<path fill="#F1A0AC" d="M71.164,40.424c0,0.059,0.047,0.105,0.104,0.105l0,0c0.059,0,0.105-0.047,0.105-0.105v-3.127
						c0-0.057-0.047-0.104-0.105-0.104l0,0c-0.057,0-0.104,0.047-0.104,0.104V40.424z"/>
				</g>
				<g>
					<path fill="#F1A0AC" d="M70.826,40.453c0,0.059,0.047,0.105,0.104,0.105l0,0c0.059,0,0.105-0.047,0.105-0.105v-3.127
						c0-0.057-0.047-0.104-0.105-0.104l0,0c-0.057,0-0.104,0.047-0.104,0.104V40.453z"/>
				</g>
				<g>
					<path fill="#F1A0AC" d="M70.488,40.453c0,0.059,0.047,0.105,0.104,0.105h0.002c0.057,0,0.104-0.047,0.104-0.105v-3.127
						c0-0.057-0.047-0.104-0.104-0.104h-0.002c-0.057,0-0.104,0.047-0.104,0.104V40.453z"/>
				</g>
				<g>
					<path fill="#F1A0AC" d="M70.15,40.424c0,0.059,0.047,0.105,0.104,0.105h0.002c0.057,0,0.104-0.047,0.104-0.105v-3.127
						c0-0.057-0.047-0.104-0.104-0.104h-0.002c-0.057,0-0.104,0.047-0.104,0.104V40.424z"/>
				</g>
			</g>
		</g>
		<g>
			<path fill="#E85553" d="M65.033,40.764c-0.043,0-0.076,0.033-0.076,0.076v3.021c0,0.041,0.033,0.076,0.076,0.076h3.535
				c0.043,0,0.078-0.035,0.078-0.076V40.84c0-0.043-0.035-0.076-0.078-0.076H65.033z"/>
			<g>
				<g>
					<path fill="#F1A0AC" d="M65.252,43.596c-0.059,0-0.105,0.047-0.105,0.104v0.002c0,0.057,0.047,0.104,0.105,0.104h3.127
						c0.057,0,0.104-0.047,0.104-0.104v-0.002c0-0.057-0.047-0.104-0.104-0.104H65.252z"/>
				</g>
				<g>
					<path fill="#F1A0AC" d="M65.252,43.258c-0.059,0-0.105,0.047-0.105,0.105l0,0c0,0.057,0.047,0.104,0.105,0.104h3.127
						c0.057,0,0.104-0.047,0.104-0.104l0,0c0-0.059-0.047-0.105-0.104-0.105H65.252z"/>
				</g>
				<g>
					<path fill="#F1A0AC" d="M65.252,42.92c-0.059,0-0.105,0.047-0.105,0.105l0,0c0,0.059,0.047,0.104,0.105,0.104h3.127
						c0.057,0,0.104-0.045,0.104-0.104l0,0c0-0.059-0.047-0.105-0.104-0.105H65.252z"/>
				</g>
				<g>
					<path fill="#F1A0AC" d="M65.252,42.584c-0.059,0-0.105,0.045-0.105,0.104l0,0c0,0.059,0.047,0.104,0.105,0.104h3.127
						c0.057,0,0.104-0.045,0.104-0.104l0,0c0-0.057-0.047-0.104-0.104-0.104H65.252z"/>
				</g>
				<g>
					<path fill="#F1A0AC" d="M65.252,42.246c-0.059,0-0.105,0.045-0.105,0.104l0,0c0,0.057,0.047,0.104,0.105,0.104h3.127
						c0.057,0,0.104-0.045,0.104-0.104l0,0c0-0.057-0.047-0.104-0.104-0.104H65.252z"/>
				</g>
				<g>
					<path fill="#F1A0AC" d="M65.252,41.908c-0.059,0-0.105,0.047-0.105,0.104l0,0c0,0.057,0.047,0.104,0.105,0.104h3.127
						c0.057,0,0.104-0.045,0.104-0.104l0,0c0-0.057-0.047-0.104-0.104-0.104H65.252z"/>
				</g>
				<g>
					<path fill="#F1A0AC" d="M65.223,41.57c-0.059,0-0.104,0.047-0.104,0.104l0,0c0,0.059,0.045,0.105,0.104,0.105h3.127
						c0.059,0,0.104-0.047,0.104-0.105l0,0c0-0.057-0.045-0.104-0.104-0.104H65.223z"/>
				</g>
				<g>
					<path fill="#F1A0AC" d="M65.223,41.232c-0.059,0-0.104,0.047-0.104,0.104v0.002c0,0.057,0.045,0.104,0.104,0.104h3.127
						c0.059,0,0.104-0.047,0.104-0.104v-0.002c0-0.057-0.045-0.104-0.104-0.104H65.223z"/>
				</g>
				<g>
					<path fill="#F1A0AC" d="M65.252,40.896c-0.059,0-0.105,0.045-0.105,0.104l0,0c0,0.057,0.047,0.104,0.105,0.104h3.127
						c0.057,0,0.104-0.045,0.104-0.104l0,0c0-0.057-0.047-0.104-0.104-0.104H65.252z"/>
				</g>
			</g>
		</g>
		<g>
			<path fill="#2694BB" d="M61.328,40.764c-0.043,0-0.078,0.033-0.078,0.076v3.021c0,0.041,0.035,0.076,0.078,0.076h3.535
				c0.043,0,0.076-0.035,0.076-0.076V40.84c0-0.043-0.033-0.076-0.076-0.076H61.328z"/>
			<g>
				<g>
					<path fill="#2AA9E1" d="M61.547,43.596c-0.059,0-0.105,0.047-0.105,0.104v0.002c0,0.057,0.047,0.104,0.105,0.104h3.127
						c0.057,0,0.104-0.047,0.104-0.104v-0.002c0-0.057-0.047-0.104-0.104-0.104H61.547z"/>
				</g>
				<g>
					<path fill="#2AA9E1" d="M61.547,43.258c-0.059,0-0.105,0.047-0.105,0.105l0,0c0,0.057,0.047,0.104,0.105,0.104h3.127
						c0.057,0,0.104-0.047,0.104-0.104l0,0c0-0.059-0.047-0.105-0.104-0.105H61.547z"/>
				</g>
				<g>
					<path fill="#2AA9E1" d="M61.547,42.92c-0.059,0-0.105,0.047-0.105,0.105l0,0c0,0.059,0.047,0.104,0.105,0.104h3.127
						c0.057,0,0.104-0.045,0.104-0.104l0,0c0-0.059-0.047-0.105-0.104-0.105H61.547z"/>
				</g>
				<g>
					<path fill="#2AA9E1" d="M61.547,42.584c-0.059,0-0.105,0.045-0.105,0.104l0,0c0,0.059,0.047,0.104,0.105,0.104h3.127
						c0.057,0,0.104-0.045,0.104-0.104l0,0c0-0.057-0.047-0.104-0.104-0.104H61.547z"/>
				</g>
				<g>
					<path fill="#2AA9E1" d="M61.547,42.246c-0.059,0-0.105,0.045-0.105,0.104l0,0c0,0.057,0.047,0.104,0.105,0.104h3.127
						c0.057,0,0.104-0.045,0.104-0.104l0,0c0-0.057-0.047-0.104-0.104-0.104H61.547z"/>
				</g>
				<g>
					<path fill="#2AA9E1" d="M61.547,41.908c-0.059,0-0.105,0.047-0.105,0.104l0,0c0,0.057,0.047,0.104,0.105,0.104h3.127
						c0.057,0,0.104-0.045,0.104-0.104l0,0c0-0.057-0.047-0.104-0.104-0.104H61.547z"/>
				</g>
				<g>
					<path fill="#2AA9E1" d="M61.516,41.57c-0.057,0-0.104,0.047-0.104,0.104l0,0c0,0.059,0.047,0.105,0.104,0.105h3.129
						c0.057,0,0.104-0.047,0.104-0.105l0,0c0-0.057-0.047-0.104-0.104-0.104H61.516z"/>
				</g>
				<g>
					<path fill="#2AA9E1" d="M61.516,41.232c-0.057,0-0.104,0.047-0.104,0.104v0.002c0,0.057,0.047,0.104,0.104,0.104h3.129
						c0.057,0,0.104-0.047,0.104-0.104v-0.002c0-0.057-0.047-0.104-0.104-0.104H61.516z"/>
				</g>
				<g>
					<path fill="#2AA9E1" d="M61.547,40.896c-0.059,0-0.105,0.045-0.105,0.104l0,0c0,0.057,0.047,0.104,0.105,0.104h3.127
						c0.057,0,0.104-0.045,0.104-0.104l0,0c0-0.057-0.047-0.104-0.104-0.104H61.547z"/>
				</g>
			</g>
		</g>
		<path fill="#2694BB" d="M59.111,47.582c0,0.041,0.033,0.076,0.076,0.076h3.021c0.043,0,0.078-0.035,0.078-0.076v-3.537
			c0-0.043-0.035-0.076-0.078-0.076h-3.021c-0.043,0-0.076,0.033-0.076,0.076V47.582z"/>
		<g>
			<path fill="#2AA9E1" d="M61.945,47.361c0,0.057,0.045,0.104,0.104,0.104h0.002c0.057,0,0.104-0.045,0.104-0.104v-3.127
				c0-0.059-0.047-0.104-0.104-0.104h-0.002c-0.057,0-0.104,0.045-0.104,0.104V47.361z"/>
			<path fill="#2AA9E1" d="M61.607,47.361c0,0.057,0.047,0.104,0.104,0.104h0.002c0.057,0,0.104-0.045,0.104-0.104v-3.127
				c0-0.059-0.047-0.104-0.104-0.104h-0.002c-0.057,0-0.104,0.045-0.104,0.104V47.361z"/>
			<path fill="#2AA9E1" d="M61.27,47.361c0,0.057,0.047,0.104,0.105,0.104l0,0c0.057,0,0.104-0.045,0.104-0.104v-3.127
				c0-0.059-0.047-0.104-0.104-0.104l0,0c-0.059,0-0.105,0.045-0.105,0.104V47.361z"/>
			<path fill="#2AA9E1" d="M60.932,47.361c0,0.057,0.047,0.104,0.105,0.104l0,0c0.057,0,0.104-0.045,0.104-0.104v-3.127
				c0-0.059-0.047-0.104-0.104-0.104l0,0c-0.059,0-0.105,0.045-0.105,0.104V47.361z"/>
			<path fill="#2AA9E1" d="M60.594,47.361c0,0.057,0.047,0.104,0.104,0.104l0,0c0.059,0,0.105-0.045,0.105-0.104v-3.127
				c0-0.059-0.047-0.104-0.105-0.104l0,0c-0.057,0-0.104,0.045-0.104,0.104V47.361z"/>
			<path fill="#2AA9E1" d="M60.258,47.361c0,0.057,0.045,0.104,0.104,0.104l0,0c0.059,0,0.105-0.045,0.105-0.104v-3.127
				c0-0.059-0.047-0.104-0.105-0.104l0,0c-0.059,0-0.104,0.045-0.104,0.104V47.361z"/>
			<path fill="#2AA9E1" d="M59.92,47.393c0,0.057,0.047,0.104,0.104,0.104l0,0c0.059,0,0.105-0.047,0.105-0.104v-3.127
				c0-0.059-0.047-0.105-0.105-0.105l0,0c-0.057,0-0.104,0.047-0.104,0.105V47.393z"/>
			<path fill="#2AA9E1" d="M59.582,47.393c0,0.057,0.047,0.104,0.104,0.104h0.002c0.059,0,0.104-0.047,0.104-0.104v-3.127
				c0-0.059-0.045-0.105-0.104-0.105h-0.002c-0.057,0-0.104,0.047-0.104,0.105V47.393z"/>
			<path fill="#2AA9E1" d="M59.246,47.361c0,0.057,0.045,0.104,0.104,0.104l0,0c0.059,0,0.105-0.045,0.105-0.104v-3.127
				c0-0.059-0.047-0.104-0.105-0.104l0,0c-0.059,0-0.104,0.045-0.104,0.104V47.361z"/>
		</g>
		<path fill="#E85553" d="M62.287,47.564c0,0.043,0.033,0.078,0.076,0.078h3.021c0.041,0,0.076-0.035,0.076-0.078v-3.535
			c0-0.043-0.035-0.078-0.076-0.078h-3.021c-0.043,0-0.076,0.035-0.076,0.078V47.564z"/>
		<g>
			<path fill="#F1A0AC" d="M65.121,47.346c0,0.059,0.047,0.104,0.104,0.104l0,0c0.059,0,0.105-0.045,0.105-0.104v-3.127
				c0-0.057-0.047-0.104-0.105-0.104l0,0c-0.057,0-0.104,0.045-0.104,0.104V47.346z"/>
			<path fill="#F1A0AC" d="M64.781,47.346c0,0.059,0.049,0.104,0.105,0.104l0,0c0.057,0,0.104-0.045,0.104-0.104v-3.127
				c0-0.057-0.047-0.104-0.104-0.104l0,0c-0.059,0-0.105,0.045-0.105,0.104V47.346z"/>
			<path fill="#F1A0AC" d="M64.445,47.346c0,0.059,0.045,0.104,0.104,0.104h0.002c0.057,0,0.104-0.045,0.104-0.104v-3.127
				c0-0.057-0.047-0.104-0.104-0.104h-0.002c-0.059,0-0.104,0.045-0.104,0.104V47.346z"/>
			<path fill="#F1A0AC" d="M64.107,47.346c0,0.059,0.047,0.104,0.104,0.104h0.002c0.057,0,0.104-0.045,0.104-0.104v-3.127
				c0-0.057-0.047-0.104-0.104-0.104h-0.002c-0.057,0-0.104,0.045-0.104,0.104V47.346z"/>
			<path fill="#F1A0AC" d="M63.77,47.346c0,0.059,0.047,0.104,0.105,0.104l0,0c0.057,0,0.104-0.045,0.104-0.104v-3.127
				c0-0.057-0.047-0.104-0.104-0.104l0,0c-0.059,0-0.105,0.045-0.105,0.104V47.346z"/>
			<path fill="#F1A0AC" d="M63.432,47.346c0,0.059,0.047,0.104,0.105,0.104l0,0c0.057,0,0.104-0.045,0.104-0.104v-3.127
				c0-0.057-0.047-0.104-0.104-0.104l0,0c-0.059,0-0.105,0.045-0.105,0.104V47.346z"/>
			<path fill="#F1A0AC" d="M63.096,47.375c0,0.059,0.045,0.105,0.102,0.105h0.002c0.059,0,0.104-0.047,0.104-0.105v-3.127
				c0-0.057-0.045-0.104-0.104-0.104h-0.002c-0.057,0-0.102,0.047-0.102,0.104V47.375z"/>
			<path fill="#F1A0AC" d="M62.758,47.375c0,0.059,0.045,0.105,0.104,0.105l0,0c0.059,0,0.104-0.047,0.104-0.105v-3.127
				c0-0.057-0.047-0.104-0.104-0.104l0,0c-0.059,0-0.104,0.047-0.104,0.104V47.375z"/>
			<path fill="#F1A0AC" d="M62.42,47.346c0,0.059,0.047,0.104,0.104,0.104l0,0c0.059,0,0.105-0.045,0.105-0.104v-3.127
				c0-0.057-0.047-0.104-0.105-0.104l0,0c-0.057,0-0.104,0.045-0.104,0.104V47.346z"/>
		</g>
		<path fill="#E88A24" d="M65.461,47.551c0,0.043,0.035,0.078,0.076,0.078h3.021c0.043,0,0.076-0.035,0.076-0.078v-3.535
			c0-0.043-0.033-0.076-0.076-0.076h-3.021c-0.041,0-0.076,0.033-0.076,0.076V47.551z"/>
		<g>
			<g>
				<path fill="#F5A741" d="M68.295,47.332c0,0.059,0.047,0.104,0.104,0.104l0,0c0.059,0,0.105-0.045,0.105-0.104v-3.127
					c0-0.057-0.047-0.104-0.105-0.104l0,0c-0.057,0-0.104,0.047-0.104,0.104V47.332z"/>
			</g>
			<g>
				<path fill="#F5A741" d="M67.959,47.332c0,0.059,0.045,0.104,0.104,0.104l0,0c0.059,0,0.104-0.045,0.104-0.104v-3.127
					c0-0.057-0.045-0.104-0.104-0.104l0,0c-0.059,0-0.104,0.047-0.104,0.104V47.332z"/>
			</g>
			<g>
				<path fill="#F5A741" d="M67.621,47.332c0,0.059,0.047,0.104,0.104,0.104l0,0c0.059,0,0.105-0.045,0.105-0.104v-3.127
					c0-0.057-0.047-0.104-0.105-0.104l0,0c-0.057,0-0.104,0.047-0.104,0.104V47.332z"/>
			</g>
			<g>
				<path fill="#F5A741" d="M67.283,47.332c0,0.059,0.047,0.104,0.104,0.104l0,0c0.059,0,0.105-0.045,0.105-0.104v-3.127
					c0-0.057-0.047-0.104-0.105-0.104l0,0c-0.057,0-0.104,0.047-0.104,0.104V47.332z"/>
			</g>
			<g>
				<path fill="#F5A741" d="M66.945,47.332c0,0.059,0.045,0.104,0.104,0.104h0.002c0.057,0,0.104-0.045,0.104-0.104v-3.127
					c0-0.057-0.047-0.104-0.104-0.104h-0.002c-0.057,0-0.104,0.047-0.104,0.104V47.332z"/>
			</g>
			<g>
				<path fill="#F5A741" d="M66.607,47.332c0,0.059,0.047,0.104,0.104,0.104h0.002c0.057,0,0.104-0.045,0.104-0.104v-3.127
					c0-0.057-0.047-0.104-0.104-0.104h-0.002c-0.057,0-0.104,0.047-0.104,0.104V47.332z"/>
			</g>
			<g>
				<path fill="#F5A741" d="M66.27,47.361c0,0.057,0.047,0.104,0.105,0.104l0,0c0.057,0,0.104-0.045,0.104-0.104v-3.127
					c0-0.059-0.047-0.104-0.104-0.104l0,0c-0.059,0-0.105,0.045-0.105,0.104V47.361z"/>
			</g>
			<g>
				<path fill="#F5A741" d="M65.932,47.361c0,0.057,0.047,0.104,0.105,0.104l0,0c0.057,0,0.104-0.045,0.104-0.104v-3.127
					c0-0.059-0.047-0.104-0.104-0.104l0,0c-0.059,0-0.105,0.045-0.105,0.104V47.361z"/>
			</g>
			<g>
				<path fill="#F5A741" d="M65.594,47.332c0,0.059,0.047,0.104,0.104,0.104l0,0c0.059,0,0.105-0.045,0.105-0.104v-3.127
					c0-0.057-0.047-0.104-0.105-0.104l0,0c-0.057,0-0.104,0.047-0.104,0.104V47.332z"/>
			</g>
		</g>
		<g>
			<path fill="#2694BB" d="M72.449,40.719c-0.043,0-0.076,0.035-0.076,0.078v3.021c0,0.041,0.033,0.076,0.076,0.076h3.535
				c0.043,0,0.078-0.035,0.078-0.076v-3.021c0-0.043-0.035-0.078-0.078-0.078H72.449z"/>
			<g>
				<path fill="#2AA9E1" d="M72.668,43.553c-0.059,0-0.104,0.049-0.104,0.105l0,0c0,0.057,0.047,0.105,0.104,0.105h3.127
					c0.057,0,0.104-0.049,0.104-0.105l0,0c0-0.057-0.047-0.105-0.104-0.105H72.668z"/>
				<path fill="#2AA9E1" d="M72.668,43.217c-0.059,0-0.104,0.045-0.104,0.104l0,0c0,0.059,0.047,0.104,0.104,0.104h3.127
					c0.057,0,0.104-0.045,0.104-0.104l0,0c0-0.059-0.047-0.104-0.104-0.104H72.668z"/>
				<path fill="#2AA9E1" d="M72.668,42.879c-0.059,0-0.104,0.045-0.104,0.104l0,0c0,0.057,0.047,0.104,0.104,0.104h3.127
					c0.057,0,0.104-0.047,0.104-0.104l0,0c0-0.057-0.047-0.104-0.104-0.104H72.668z"/>
				<path fill="#2AA9E1" d="M72.668,42.541c-0.059,0-0.104,0.047-0.104,0.104v0.002c0,0.057,0.047,0.104,0.104,0.104h3.127
					c0.057,0,0.104-0.047,0.104-0.104v-0.002c0-0.057-0.047-0.104-0.104-0.104H72.668z"/>
				<path fill="#2AA9E1" d="M72.668,42.203c-0.059,0-0.104,0.047-0.104,0.105l0,0c0,0.057,0.047,0.104,0.104,0.104h3.127
					c0.057,0,0.104-0.047,0.104-0.104l0,0c0-0.059-0.047-0.105-0.104-0.105H72.668z"/>
				<path fill="#2AA9E1" d="M72.668,41.865c-0.059,0-0.104,0.047-0.104,0.104l0,0c0,0.059,0.047,0.105,0.104,0.105h3.127
					c0.057,0,0.104-0.047,0.104-0.105l0,0c0-0.057-0.047-0.104-0.104-0.104H72.668z"/>
				<path fill="#2AA9E1" d="M72.639,41.527c-0.057,0-0.104,0.047-0.104,0.104l0,0c0,0.059,0.047,0.105,0.104,0.105h3.127
					c0.059,0,0.104-0.047,0.104-0.105l0,0c0-0.057-0.045-0.104-0.104-0.104H72.639z"/>
				<path fill="#2AA9E1" d="M72.639,41.191c-0.057,0-0.104,0.045-0.104,0.104l0,0c0,0.057,0.047,0.104,0.104,0.104h3.127
					c0.059,0,0.104-0.045,0.104-0.104l0,0c0-0.059-0.045-0.104-0.104-0.104H72.639z"/>
				<path fill="#2AA9E1" d="M72.668,40.854c-0.059,0-0.104,0.047-0.104,0.104v0.002c0,0.057,0.047,0.104,0.104,0.104h3.127
					c0.057,0,0.104-0.045,0.104-0.104v-0.002c0-0.057-0.047-0.104-0.104-0.104H72.668z"/>
			</g>
		</g>
		<g>
			<path fill="#E88A24" d="M68.744,40.719c-0.043,0-0.078,0.035-0.078,0.078v3.021c0,0.041,0.035,0.076,0.078,0.076h3.535
				c0.043,0,0.076-0.035,0.076-0.076v-3.021c0-0.043-0.033-0.078-0.076-0.078H68.744z"/>
			<g>
				<path fill="#F5A741" d="M68.963,43.553c-0.059,0-0.105,0.049-0.105,0.105l0,0c0,0.057,0.047,0.105,0.105,0.105h3.127
					c0.057,0,0.104-0.049,0.104-0.105l0,0c0-0.057-0.047-0.105-0.104-0.105H68.963z"/>
				<path fill="#F5A741" d="M68.963,43.217c-0.059,0-0.105,0.045-0.105,0.104l0,0c0,0.059,0.047,0.104,0.105,0.104h3.127
					c0.057,0,0.104-0.045,0.104-0.104l0,0c0-0.059-0.047-0.104-0.104-0.104H68.963z"/>
				<path fill="#F5A741" d="M68.963,42.879c-0.059,0-0.105,0.045-0.105,0.104l0,0c0,0.057,0.047,0.104,0.105,0.104h3.127
					c0.057,0,0.104-0.047,0.104-0.104l0,0c0-0.057-0.047-0.104-0.104-0.104H68.963z"/>
				<path fill="#F5A741" d="M68.963,42.541c-0.059,0-0.105,0.047-0.105,0.104v0.002c0,0.057,0.047,0.104,0.105,0.104h3.127
					c0.057,0,0.104-0.047,0.104-0.104v-0.002c0-0.057-0.047-0.104-0.104-0.104H68.963z"/>
				<path fill="#F5A741" d="M68.963,42.203c-0.059,0-0.105,0.047-0.105,0.105l0,0c0,0.057,0.047,0.104,0.105,0.104h3.127
					c0.057,0,0.104-0.047,0.104-0.104l0,0c0-0.059-0.047-0.105-0.104-0.105H68.963z"/>
				<path fill="#F5A741" d="M68.963,41.865c-0.059,0-0.105,0.047-0.105,0.104l0,0c0,0.059,0.047,0.105,0.105,0.105h3.127
					c0.057,0,0.104-0.047,0.104-0.105l0,0c0-0.057-0.047-0.104-0.104-0.104H68.963z"/>
				<path fill="#F5A741" d="M68.934,41.527c-0.059,0-0.104,0.047-0.104,0.104l0,0c0,0.059,0.045,0.105,0.104,0.105h3.127
					c0.057,0,0.104-0.047,0.104-0.105l0,0c0-0.057-0.047-0.104-0.104-0.104H68.934z"/>
				<path fill="#F5A741" d="M68.934,41.191c-0.059,0-0.104,0.045-0.104,0.104l0,0c0,0.057,0.045,0.104,0.104,0.104h3.127
					c0.057,0,0.104-0.045,0.104-0.104l0,0c0-0.059-0.047-0.104-0.104-0.104H68.934z"/>
				<path fill="#F5A741" d="M68.963,40.854c-0.059,0-0.105,0.047-0.105,0.104v0.002c0,0.057,0.047,0.104,0.105,0.104h3.127
					c0.057,0,0.104-0.045,0.104-0.104v-0.002c0-0.057-0.047-0.104-0.104-0.104H68.963z"/>
			</g>
		</g>
		<rect x="58.896" y="30.74" fill="#D8D6D6" width="18.986" height="2.205"/>
		<g>
			<path fill="#2694BB" d="M68.307,47.539c0,0.043,0.035,0.076,0.078,0.076h3.02c0.043,0,0.078-0.033,0.078-0.076v-3.537
				c0-0.041-0.035-0.076-0.078-0.076h-3.02c-0.043,0-0.078,0.035-0.078,0.076V47.539z"/>
			<g>
				<path fill="#2AA9E1" d="M71.141,47.32c0,0.057,0.047,0.104,0.105,0.104l0,0c0.057,0,0.104-0.047,0.104-0.104v-3.129
					c0-0.057-0.047-0.104-0.104-0.104l0,0c-0.059,0-0.105,0.047-0.105,0.104V47.32z"/>
				<path fill="#2AA9E1" d="M70.803,47.32c0,0.057,0.047,0.104,0.104,0.104h0.002c0.057,0,0.104-0.047,0.104-0.104v-3.129
					c0-0.057-0.045-0.104-0.104-0.104h-0.002c-0.057,0-0.104,0.047-0.104,0.104V47.32z"/>
				<path fill="#2AA9E1" d="M70.467,47.32c0,0.057,0.045,0.104,0.104,0.104l0,0c0.059,0,0.104-0.047,0.104-0.104v-3.129
					c0-0.057-0.045-0.104-0.104-0.104l0,0c-0.059,0-0.104,0.047-0.104,0.104V47.32z"/>
				<path fill="#2AA9E1" d="M70.129,47.32c0,0.057,0.045,0.104,0.104,0.104l0,0c0.059,0,0.105-0.047,0.105-0.104v-3.129
					c0-0.057-0.047-0.104-0.105-0.104l0,0c-0.057,0-0.104,0.047-0.104,0.104V47.32z"/>
				<path fill="#2AA9E1" d="M69.791,47.32c0,0.057,0.047,0.104,0.104,0.104h0.002c0.059,0,0.104-0.047,0.104-0.104v-3.129
					c0-0.057-0.045-0.104-0.104-0.104h-0.002c-0.057,0-0.104,0.047-0.104,0.104V47.32z"/>
				<path fill="#2AA9E1" d="M69.455,47.32c0,0.057,0.045,0.104,0.102,0.104h0.002c0.059,0,0.104-0.047,0.104-0.104v-3.129
					c0-0.057-0.045-0.104-0.104-0.104h-0.002c-0.057,0-0.102,0.047-0.102,0.104V47.32z"/>
				<path fill="#2AA9E1" d="M69.117,47.35c0,0.057,0.045,0.104,0.104,0.104l0,0c0.057,0,0.105-0.047,0.105-0.104v-3.127
					c0-0.059-0.049-0.104-0.105-0.104l0,0c-0.057,0-0.104,0.045-0.104,0.104V47.35z"/>
				<path fill="#2AA9E1" d="M68.779,47.35c0,0.057,0.047,0.104,0.104,0.104l0,0c0.059,0,0.104-0.047,0.104-0.104v-3.127
					c0-0.059-0.045-0.104-0.104-0.104l0,0c-0.057,0-0.104,0.045-0.104,0.104V47.35z"/>
				<path fill="#2AA9E1" d="M68.441,47.32c0,0.057,0.045,0.104,0.104,0.104h0.002c0.057,0,0.104-0.047,0.104-0.104v-3.129
					c0-0.057-0.047-0.104-0.104-0.104h-0.002c-0.059,0-0.104,0.047-0.104,0.104V47.32z"/>
			</g>
		</g>
		<g>
			<path fill="#E85553" d="M71.482,47.523c0,0.043,0.035,0.076,0.076,0.076h3.021c0.043,0,0.076-0.033,0.076-0.076v-3.537
				c0-0.041-0.033-0.076-0.076-0.076h-3.021c-0.041,0-0.076,0.035-0.076,0.076V47.523z"/>
			<g>
				<path fill="#F1A0AC" d="M74.316,47.303c0,0.059,0.047,0.105,0.104,0.105h0.002c0.057,0,0.104-0.047,0.104-0.105v-3.127
					c0-0.057-0.047-0.104-0.104-0.104H74.42c-0.057,0-0.104,0.047-0.104,0.104V47.303z"/>
				<path fill="#F1A0AC" d="M73.979,47.303c0,0.059,0.047,0.105,0.104,0.105l0,0c0.059,0,0.104-0.047,0.104-0.105v-3.127
					c0-0.057-0.045-0.104-0.104-0.104l0,0c-0.059,0-0.104,0.047-0.104,0.104V47.303z"/>
				<path fill="#F1A0AC" d="M73.641,47.303c0,0.059,0.047,0.105,0.105,0.105l0,0c0.057,0,0.104-0.047,0.104-0.105v-3.127
					c0-0.057-0.047-0.104-0.104-0.104l0,0c-0.059,0-0.105,0.047-0.105,0.104V47.303z"/>
				<path fill="#F1A0AC" d="M73.303,47.303c0,0.059,0.047,0.105,0.104,0.105h0.002c0.057,0,0.104-0.047,0.104-0.105v-3.127
					c0-0.057-0.045-0.104-0.104-0.104h-0.002c-0.057,0-0.104,0.047-0.104,0.104V47.303z"/>
				<path fill="#F1A0AC" d="M72.967,47.303c0,0.059,0.045,0.105,0.104,0.105l0,0c0.059,0,0.104-0.047,0.104-0.105v-3.127
					c0-0.057-0.045-0.104-0.104-0.104l0,0c-0.059,0-0.104,0.047-0.104,0.104V47.303z"/>
				<path fill="#F1A0AC" d="M72.629,47.303c0,0.059,0.045,0.105,0.104,0.105l0,0c0.059,0,0.105-0.047,0.105-0.105v-3.127
					c0-0.057-0.047-0.104-0.105-0.104l0,0c-0.059,0-0.104,0.047-0.104,0.104V47.303z"/>
				<path fill="#F1A0AC" d="M72.291,47.332c0,0.059,0.047,0.105,0.104,0.105h0.002c0.059,0,0.104-0.047,0.104-0.105v-3.127
					c0-0.057-0.045-0.104-0.104-0.104h-0.002c-0.057,0-0.104,0.047-0.104,0.104V47.332z"/>
				<path fill="#F1A0AC" d="M71.955,47.332c0,0.059,0.045,0.105,0.104,0.105l0,0c0.059,0,0.104-0.047,0.104-0.105v-3.127
					c0-0.057-0.047-0.104-0.104-0.104l0,0c-0.059,0-0.104,0.047-0.104,0.104V47.332z"/>
				<path fill="#F1A0AC" d="M71.617,47.303c0,0.059,0.047,0.105,0.104,0.105l0,0c0.057,0,0.105-0.047,0.105-0.105v-3.127
					c0-0.057-0.049-0.104-0.105-0.104l0,0c-0.057,0-0.104,0.047-0.104,0.104V47.303z"/>
			</g>
		</g>
		<g>
			<path fill="#E88A24" d="M74.656,47.51c0,0.041,0.035,0.076,0.078,0.076h3.021c0.041,0,0.076-0.035,0.076-0.076v-3.535
				c0-0.043-0.035-0.078-0.076-0.078h-3.021c-0.043,0-0.078,0.035-0.078,0.078V47.51z"/>
			<g>
				<g>
					<path fill="#F5A741" d="M77.492,47.289c0,0.059,0.047,0.105,0.104,0.105l0,0c0.059,0,0.105-0.047,0.105-0.105v-3.127
						c0-0.057-0.047-0.104-0.105-0.104l0,0c-0.057,0-0.104,0.047-0.104,0.104V47.289z"/>
				</g>
				<g>
					<path fill="#F5A741" d="M77.154,47.289c0,0.059,0.047,0.105,0.104,0.105l0,0c0.059,0,0.104-0.047,0.104-0.105v-3.127
						c0-0.057-0.045-0.104-0.104-0.104l0,0c-0.057,0-0.104,0.047-0.104,0.104V47.289z"/>
				</g>
				<g>
					<path fill="#F5A741" d="M76.816,47.289c0,0.059,0.047,0.105,0.104,0.105h0.002c0.057,0,0.104-0.047,0.104-0.105v-3.127
						c0-0.057-0.047-0.104-0.104-0.104H76.92c-0.057,0-0.104,0.047-0.104,0.104V47.289z"/>
				</g>
				<g>
					<path fill="#F5A741" d="M76.479,47.289c0,0.059,0.047,0.105,0.104,0.105l0,0c0.059,0,0.104-0.047,0.104-0.105v-3.127
						c0-0.057-0.045-0.104-0.104-0.104l0,0c-0.059,0-0.104,0.047-0.104,0.104V47.289z"/>
				</g>
				<g>
					<path fill="#F5A741" d="M76.141,47.289c0,0.059,0.047,0.105,0.105,0.105l0,0c0.057,0,0.104-0.047,0.104-0.105v-3.127
						c0-0.057-0.047-0.104-0.104-0.104l0,0c-0.059,0-0.105,0.047-0.105,0.104V47.289z"/>
				</g>
				<g>
					<path fill="#F5A741" d="M75.803,47.289c0,0.059,0.047,0.105,0.104,0.105h0.002c0.057,0,0.104-0.047,0.104-0.105v-3.127
						c0-0.057-0.047-0.104-0.104-0.104h-0.002c-0.057,0-0.104,0.047-0.104,0.104V47.289z"/>
				</g>
				<g>
					<path fill="#F5A741" d="M75.467,47.32c0,0.057,0.045,0.104,0.104,0.104l0,0c0.059,0,0.104-0.047,0.104-0.104v-3.129
						c0-0.057-0.045-0.104-0.104-0.104l0,0c-0.059,0-0.104,0.047-0.104,0.104V47.32z"/>
				</g>
				<g>
					<path fill="#F5A741" d="M75.129,47.32c0,0.057,0.045,0.104,0.104,0.104l0,0c0.059,0,0.105-0.047,0.105-0.104v-3.129
						c0-0.057-0.047-0.104-0.105-0.104l0,0c-0.059,0-0.104,0.047-0.104,0.104V47.32L75.129,47.32z"/>
				</g>
				<g>
					<path fill="#F5A741" d="M74.791,47.289c0,0.059,0.047,0.105,0.104,0.105h0.002c0.059,0,0.104-0.047,0.104-0.105v-3.127
						c0-0.057-0.045-0.104-0.104-0.104h-0.002c-0.057,0-0.104,0.047-0.104,0.104V47.289z"/>
				</g>
			</g>
		</g>
		<rect x="68.178" y="40.848" fill="#E2E2E2" width="0.445" height="11.506"/>
		<path fill="#D8D6D6" d="M67.859,40.799c0,0.109,0.088,0.197,0.197,0.197h0.688c0.107,0,0.195-0.088,0.195-0.197v-0.01
			c0-0.107-0.088-0.197-0.195-0.197h-0.688c-0.109,0-0.197,0.09-0.197,0.197V40.799z"/>
		<g>
			<path fill="none" d="M77.141,48.646L77.141,48.646c-2.902-1.186-5.76-1.604-8.35-1.6C71.381,47.043,74.24,47.461,77.141,48.646z"
				/>
			<path fill="#D8D6D6" d="M68.398,47.051c-3.27-0.059-6.98,0.541-10.686,2.502c-0.086-0.936-0.148-1.531-0.152-1.568h-0.002l0,0
				c0-0.002,0-0.002,0-0.002c3.756-2.025,7.525-2.643,10.84-2.584c0.002,0-0.01,0,0.014,0v1.652
				C68.389,47.051,68.4,47.051,68.398,47.051z"/>
			<path fill="#3C5478" d="M68.398,47.051c0.002,0-0.01,0,0.014,0v9.9H58.205c-0.092-2.691-0.332-5.641-0.492-7.398
				C61.418,47.592,65.129,46.992,68.398,47.051z"/>
			<path fill="#8F2C2C" d="M68.412,56.951v1.992h-4.348h-5.822c0-0.631-0.014-1.303-0.037-1.992H68.412z"/>
			<path fill="#EAE8E7" d="M77.145,48.648c-0.002-0.002-0.004-0.002-0.004-0.002s0,0,0-0.002c0.002,0.002,0.004,0.002,0.006,0.004
				c0.096-0.582,0.189-1.094,0.279-1.535c0.6,0.256,1.201,0.545,1.803,0.869c0,0,0,0,0,0.002l0,0l0,0
				c-0.004,0.037-0.064,0.633-0.15,1.568c-0.646-0.342-1.291-0.641-1.936-0.902C77.145,48.648,77.145,48.648,77.145,48.648z"/>
			<path fill="#E2E2E2" d="M77.141,48.646c-2.9-1.186-5.76-1.604-8.35-1.6c-0.127,0-0.254,0.002-0.381,0.004v-1.652
				c2.775-0.049,5.873,0.379,9.016,1.715c0,0,0,0,0,0.002c-0.002-0.002-0.004-0.002-0.004-0.002
				C77.332,47.553,77.236,48.064,77.141,48.646z"/>
			<path fill="#E2E2E2" d="M77.141,48.646c0.096-0.582,0.191-1.094,0.281-1.533c0,0,0.002,0,0.004,0.002
				c-0.09,0.441-0.184,0.951-0.279,1.533C77.145,48.646,77.143,48.646,77.141,48.646z"/>
			<path fill="#A43F3F" d="M78.584,56.951c-0.023,0.689-0.037,1.361-0.037,1.992h-2.246c0.01-0.689,0.027-1.355,0.053-1.992H78.584z
				"/>
			<path fill="#597A99" d="M77.143,48.648c0.645,0.264,1.289,0.562,1.936,0.904c-0.16,1.758-0.402,4.707-0.494,7.398h-2.23
				C76.486,53.375,76.818,50.613,77.143,48.648z"/>
			<path fill="#9A3435" d="M76.352,56.951c-0.023,0.639-0.041,1.303-0.051,1.992h-3.576h-4.312v-1.992H76.352z"/>
			<path fill="#4B688A" d="M68.791,47.047c2.592-0.004,5.447,0.414,8.35,1.6c0,0,0,0,0,0.002c-0.324,1.965-0.654,4.727-0.787,8.305
				h-7.941v-9.902C68.537,47.049,68.664,47.047,68.791,47.047z"/>
			<path fill="#4B688A" d="M77.141,48.646c0,0,0.002,0,0.004,0.002c0,0,0,0-0.002,0.002c0-0.002-0.002-0.002-0.004-0.002
				C77.139,48.646,77.139,48.646,77.141,48.646z"/>
			<path fill="#4B688A" d="M68.791,47.047c-0.127,0-0.254,0.002-0.379,0.004C68.537,47.049,68.664,47.047,68.791,47.047z"/>
			<path fill="#4B688A" d="M77.143,48.648c-0.324,1.965-0.656,4.727-0.791,8.303l0,0c0.135-3.578,0.463-6.34,0.787-8.305
				C77.141,48.648,77.143,48.648,77.143,48.648z"/>
			<path fill="#8F2C2C" d="M76.352,56.951c-0.023,0.639-0.041,1.303-0.051,1.992C76.311,58.254,76.328,57.59,76.352,56.951
				L76.352,56.951z"/>
		</g>
		<polyline fill="#31435B" points="73.893,49.221 70.4,48.648 69.764,52.799 72.479,52.799 73.893,49.277 		"/>
		<polyline fill="#31435B" points="62.898,49.221 66.391,48.648 67.027,52.799 64.312,52.799 62.898,49.277 		"/>
		<g>
			<path fill="#D8D6D6" d="M64.701,50.111c0.045,0.197,0.24,0.322,0.438,0.279c0.199-0.045,0.322-0.24,0.279-0.439
				c-0.045-0.197-0.24-0.322-0.439-0.279C64.781,49.717,64.656,49.914,64.701,50.111z M64.859,50.076
				c-0.023-0.109,0.045-0.219,0.156-0.242c0.109-0.023,0.217,0.045,0.242,0.154c0.023,0.107-0.045,0.217-0.154,0.242
				C64.994,50.254,64.885,50.186,64.859,50.076z"/>
			
				<rect x="65.186" y="50.31" transform="matrix(-0.9758 0.2187 -0.2187 -0.9758 140.2112 86.7937)" fill="#D8D6D6" width="0.232" height="1.695"/>
			<g>
				<path fill="#D8D6D6" d="M65.48,52.082c0.354-0.078,0.586-0.238,0.691-0.475c0.186-0.412-0.078-0.9-0.088-0.92l-0.117,0.062
					l0.059-0.031l-0.059,0.031c0.004,0.006,0.24,0.451,0.082,0.801c-0.088,0.197-0.287,0.33-0.598,0.398L65.48,52.082z"/>
				<path fill="#D8D6D6" d="M65.543,52.068c-0.352,0.078-0.629,0.031-0.824-0.139c-0.344-0.295-0.311-0.848-0.309-0.871l0.133,0.01
					l-0.066-0.006l0.066,0.006c0,0.004-0.029,0.51,0.264,0.76c0.162,0.141,0.396,0.178,0.707,0.109L65.543,52.068z"/>
			</g>
			<polygon fill="#D8D6D6" points="65.498,52.01 65.369,52.039 65.459,52.143 65.549,52.24 65.588,52.111 65.627,51.982 			"/>
			<polygon fill="#D8D6D6" points="66.039,50.74 66.139,50.682 66.039,50.625 65.936,50.566 65.938,50.686 65.938,50.801 			"/>
			<polygon fill="#D8D6D6" points="64.477,51.088 64.359,51.076 64.428,50.982 64.496,50.889 64.543,50.994 64.592,51.1 			"/>
		</g>
		<g>
			<path fill="#E2E2E2" d="M71.764,49.674c-0.199-0.045-0.395,0.08-0.438,0.279c-0.045,0.197,0.08,0.395,0.277,0.438
				c0.197,0.045,0.395-0.08,0.438-0.279C72.086,49.914,71.961,49.717,71.764,49.674z M71.641,50.23
				c-0.111-0.023-0.18-0.133-0.154-0.242s0.133-0.178,0.242-0.154c0.109,0.025,0.178,0.133,0.154,0.242
				C71.857,50.186,71.75,50.254,71.641,50.23z"/>
			
				<rect x="71.296" y="50.292" transform="matrix(0.9776 0.2107 -0.2107 0.9776 12.3771 -13.8973)" fill="#E2E2E2" width="0.232" height="1.698"/>
			<g>
				<path fill="#E2E2E2" d="M71.262,52.082c-0.352-0.078-0.584-0.238-0.691-0.475c-0.186-0.412,0.078-0.9,0.09-0.92l0.115,0.062
					l-0.059-0.031l0.059,0.031c-0.002,0.006-0.24,0.451-0.082,0.801c0.088,0.197,0.287,0.33,0.598,0.398L71.262,52.082z"/>
				<path fill="#E2E2E2" d="M71.201,52.068c0.352,0.078,0.627,0.031,0.822-0.139c0.344-0.295,0.312-0.848,0.311-0.871l-0.133,0.01
					l0.066-0.006l-0.066,0.006c0,0.004,0.027,0.51-0.266,0.76c-0.162,0.141-0.396,0.178-0.707,0.109L71.201,52.068z"/>
			</g>
			<polygon fill="#E2E2E2" points="71.246,52.01 71.375,52.039 71.285,52.143 71.193,52.24 71.154,52.111 71.115,51.982 			"/>
			<polygon fill="#E2E2E2" points="70.705,50.74 70.604,50.682 70.707,50.625 70.807,50.566 70.805,50.686 70.805,50.801 			"/>
			<polygon fill="#E2E2E2" points="72.268,51.088 72.383,51.076 72.314,50.982 72.248,50.889 72.199,50.994 72.15,51.1 			"/>
		</g>
		<rect x="59.342" y="31.016" fill="#4B688A" width="18.223" height="1.609"/>
		<rect x="76.717" y="30.848" fill="#D8D6D6" width="0.359" height="1.971"/>
		<rect x="75.912" y="30.848" fill="#D8D6D6" width="0.359" height="1.971"/>
		<rect x="75.107" y="30.848" fill="#D8D6D6" width="0.359" height="1.971"/>
		<rect x="74.301" y="30.848" fill="#D8D6D6" width="0.361" height="1.971"/>
		<rect x="73.496" y="30.848" fill="#D8D6D6" width="0.359" height="1.971"/>
		<rect x="72.691" y="30.848" fill="#D8D6D6" width="0.359" height="1.971"/>
		<rect x="71.887" y="30.848" fill="#D8D6D6" width="0.359" height="1.971"/>
		<rect x="71.082" y="30.848" fill="#D8D6D6" width="0.359" height="1.971"/>
		<rect x="70.275" y="30.848" fill="#D8D6D6" width="0.359" height="1.971"/>
		<rect x="69.471" y="30.848" fill="#D8D6D6" width="0.359" height="1.971"/>
		<rect x="68.666" y="30.848" fill="#D8D6D6" width="0.359" height="1.971"/>
		<rect x="67.859" y="30.848" fill="#D8D6D6" width="0.361" height="1.971"/>
		<rect x="67.055" y="30.848" fill="#D8D6D6" width="0.359" height="1.971"/>
		<rect x="66.25" y="30.848" fill="#D8D6D6" width="0.359" height="1.971"/>
		<rect x="65.443" y="30.848" fill="#D8D6D6" width="0.361" height="1.971"/>
		<rect x="64.639" y="30.848" fill="#D8D6D6" width="0.361" height="1.971"/>
		<rect x="63.834" y="30.848" fill="#D8D6D6" width="0.359" height="1.971"/>
		<rect x="63.029" y="30.848" fill="#D8D6D6" width="0.359" height="1.971"/>
		<rect x="62.223" y="30.848" fill="#D8D6D6" width="0.361" height="1.971"/>
		<rect x="61.418" y="30.848" fill="#D8D6D6" width="0.359" height="1.971"/>
		<rect x="60.613" y="30.848" fill="#D8D6D6" width="0.359" height="1.971"/>
		<rect x="59.809" y="30.848" fill="#D8D6D6" width="0.359" height="1.971"/>
		<g>
			<g>
				<rect x="72.648" y="33.453" fill="#4B688A" width="0.656" height="1.188"/>
				<rect x="71.844" y="33.453" fill="#4B688A" width="0.656" height="1.188"/>
			</g>
			<g>
				<rect x="64.301" y="33.453" fill="#4B688A" width="0.656" height="1.188"/>
				<rect x="63.496" y="33.453" fill="#4B688A" width="0.656" height="1.188"/>
			</g>
		</g>
		<g>
			<rect x="68.475" y="33.453" fill="#4B688A" width="0.656" height="1.188"/>
			<rect x="67.67" y="33.453" fill="#4B688A" width="0.656" height="1.188"/>
		</g>
		<g>
			<g>
				<rect x="72.648" y="35.572" fill="#4B688A" width="0.656" height="1.186"/>
				<rect x="71.844" y="35.572" fill="#4B688A" width="0.656" height="1.186"/>
			</g>
			<g>
				<rect x="64.301" y="35.572" fill="#4B688A" width="0.656" height="1.186"/>
				<rect x="63.496" y="35.572" fill="#4B688A" width="0.656" height="1.186"/>
			</g>
		</g>
		<g>
			<rect x="68.475" y="35.572" fill="#4B688A" width="0.656" height="1.186"/>
			<rect x="67.67" y="35.572" fill="#4B688A" width="0.656" height="1.186"/>
		</g>
	</g>
	<g>
		<path fill="#E88A24" d="M29.1,52.066c0,0.061,0.049,0.109,0.109,0.109h6.775c0.061,0,0.109-0.049,0.109-0.109v-3.508
			c0-0.061-0.049-0.109-0.109-0.109h-6.775c-0.061,0-0.109,0.049-0.109,0.109V52.066L29.1,52.066z"/>
		<path fill="#F5A741" d="M35.299,51.719c0,0.119,0.098,0.219,0.217,0.219l0,0c0.121,0,0.219-0.1,0.219-0.219V48.93
			c0-0.119-0.098-0.219-0.219-0.219l0,0c-0.121,0-0.217,0.1-0.217,0.219V51.719z"/>
		<path fill="#F5A741" d="M30.452,51.719c0,0.119,0.098,0.219,0.217,0.219l0,0c0.121,0,0.219-0.1,0.219-0.219V48.93
			c0-0.119-0.098-0.219-0.219-0.219l0,0c-0.119,0-0.217,0.1-0.217,0.219V51.719z"/>
		<path fill="#F5A741" d="M31.42,51.719c0,0.119,0.098,0.219,0.219,0.219l0,0c0.119,0,0.217-0.1,0.217-0.219V48.93
			c0-0.119-0.098-0.219-0.217-0.219l0,0c-0.121,0-0.219,0.1-0.219,0.219V51.719z"/>
		<path fill="#F5A741" d="M32.391,51.719c0,0.119,0.096,0.219,0.217,0.219l0,0c0.121,0,0.219-0.1,0.219-0.219V48.93
			c0-0.119-0.098-0.219-0.219-0.219l0,0c-0.121,0-0.217,0.1-0.217,0.219V51.719z"/>
		<path fill="#F5A741" d="M33.36,51.719c0,0.119,0.098,0.219,0.219,0.219l0,0c0.119,0,0.217-0.1,0.217-0.219V48.93
			c0-0.119-0.098-0.219-0.217-0.219l0,0c-0.121,0-0.219,0.1-0.219,0.219V51.719z"/>
		<path fill="#F5A741" d="M34.331,51.719c0,0.119,0.098,0.219,0.217,0.219l0,0c0.121,0,0.219-0.1,0.219-0.219V48.93
			c0-0.119-0.098-0.219-0.219-0.219l0,0c-0.121,0-0.217,0.1-0.217,0.219V51.719z"/>
		<path fill="#F5A741" d="M29.481,51.719c0,0.119,0.098,0.219,0.217,0.219l0,0c0.121,0,0.219-0.1,0.219-0.219V48.93
			c0-0.119-0.098-0.219-0.219-0.219l0,0c-0.119,0-0.217,0.1-0.217,0.219V51.719z"/>
	</g>
	<g>
		<path fill="#2694BB" d="M29.1,48.299c0,0.061,0.049,0.107,0.109,0.107h6.775c0.061,0,0.109-0.047,0.109-0.107v-3.51
			c0-0.059-0.049-0.107-0.109-0.107h-6.775c-0.061,0-0.109,0.049-0.109,0.107V48.299L29.1,48.299z"/>
		<path fill="#2AA9E1" d="M35.299,47.949c0,0.121,0.098,0.219,0.217,0.219l0,0c0.121,0,0.219-0.098,0.219-0.219V45.16
			c0-0.121-0.098-0.217-0.219-0.217l0,0c-0.121,0-0.217,0.096-0.217,0.217V47.949z"/>
		<path fill="#2AA9E1" d="M30.452,47.949c0,0.121,0.098,0.219,0.217,0.219l0,0c0.121,0,0.219-0.098,0.219-0.219V45.16
			c0-0.121-0.098-0.217-0.219-0.217l0,0c-0.119,0-0.217,0.096-0.217,0.217V47.949z"/>
		<path fill="#2AA9E1" d="M31.42,47.949c0,0.121,0.098,0.219,0.219,0.219l0,0c0.119,0,0.217-0.098,0.217-0.219V45.16
			c0-0.121-0.098-0.217-0.217-0.217l0,0c-0.121,0-0.219,0.096-0.219,0.217V47.949z"/>
		<path fill="#2AA9E1" d="M32.391,47.949c0,0.121,0.096,0.219,0.217,0.219l0,0c0.121,0,0.219-0.098,0.219-0.219V45.16
			c0-0.121-0.098-0.217-0.219-0.217l0,0c-0.121,0-0.217,0.096-0.217,0.217V47.949z"/>
		<path fill="#2AA9E1" d="M33.36,47.949c0,0.121,0.098,0.219,0.219,0.219l0,0c0.119,0,0.217-0.098,0.217-0.219V45.16
			c0-0.121-0.098-0.217-0.217-0.217l0,0c-0.121,0-0.219,0.096-0.219,0.217V47.949z"/>
		<path fill="#2AA9E1" d="M34.331,47.949c0,0.121,0.098,0.219,0.217,0.219l0,0c0.121,0,0.219-0.098,0.219-0.219V45.16
			c0-0.121-0.098-0.217-0.219-0.217l0,0c-0.121,0-0.217,0.096-0.217,0.217V47.949z"/>
		<path fill="#2AA9E1" d="M29.481,47.949c0,0.121,0.098,0.219,0.217,0.219l0,0c0.121,0,0.219-0.098,0.219-0.219V45.16
			c0-0.121-0.098-0.217-0.219-0.217l0,0c-0.119,0-0.217,0.096-0.217,0.217V47.949z"/>
	</g>
	<g>
		<g>
			<path fill="#E85553" d="M25.25,51.898c0,0.125,0.1,0.225,0.225,0.225h3.299c0.125,0,0.225-0.1,0.225-0.225V48.6
				c0-0.125-0.1-0.225-0.225-0.225h-3.299c-0.125,0-0.225,0.1-0.225,0.225V51.898z"/>
			<g>
				<path fill="#F1A0AC" d="M25.731,49.578c-0.121,0-0.219,0.098-0.219,0.219l0,0c0,0.119,0.098,0.219,0.219,0.219h2.789
					c0.121,0,0.219-0.1,0.219-0.219l0,0c0-0.121-0.098-0.219-0.219-0.219H25.731z"/>
				<path fill="#F1A0AC" d="M25.731,50.482c-0.121,0-0.219,0.098-0.219,0.217l0,0c0,0.121,0.098,0.219,0.219,0.219h2.789
					c0.121,0,0.219-0.098,0.219-0.219l0,0c0-0.119-0.098-0.217-0.219-0.217H25.731z"/>
				<path fill="#F1A0AC" d="M25.731,51.383c-0.121,0-0.219,0.1-0.219,0.219l0,0c0,0.121,0.098,0.219,0.219,0.219h2.789
					c0.121,0,0.219-0.098,0.219-0.219l0,0c0-0.119-0.098-0.219-0.219-0.219H25.731z"/>
				<path fill="#F1A0AC" d="M25.731,48.676c-0.121,0-0.219,0.1-0.219,0.219l0,0c0,0.121,0.098,0.219,0.219,0.219h2.789
					c0.121,0,0.219-0.098,0.219-0.219l0,0c0-0.119-0.098-0.219-0.219-0.219H25.731z"/>
			</g>
		</g>
		<path fill="#FCE3E8" d="M27.965,52.129c0,0.025,0.021,0.047,0.049,0.047l0,0c0.025,0,0.047-0.02,0.047-0.047v-3.736
			c0-0.027-0.02-0.049-0.047-0.049l0,0c-0.027,0-0.049,0.021-0.049,0.049V52.129z"/>
		<path fill="#FCE3E8" d="M27.071,52.129c0,0.025,0.021,0.047,0.049,0.047l0,0c0.025,0,0.049-0.02,0.049-0.047v-3.736
			c0-0.027-0.021-0.049-0.049-0.049l0,0c-0.027,0-0.049,0.021-0.049,0.049V52.129z"/>
		<path fill="#FCE3E8" d="M27.04,48.871c0,0.025,0.021,0.047,0.049,0.047h0.957c0.025,0,0.049-0.02,0.049-0.047l0,0
			c0-0.027-0.021-0.049-0.049-0.049h-0.957C27.061,48.822,27.04,48.844,27.04,48.871L27.04,48.871z"/>
		<path fill="#FCE3E8" d="M27.04,49.436c0,0.025,0.021,0.049,0.049,0.049h0.957c0.025,0,0.049-0.023,0.049-0.049l0,0
			c0-0.027-0.021-0.049-0.049-0.049h-0.957C27.061,49.387,27.04,49.408,27.04,49.436L27.04,49.436z"/>
		<path fill="#FCE3E8" d="M27.04,49.998c0,0.027,0.021,0.049,0.049,0.049h0.957c0.025,0,0.049-0.021,0.049-0.049l0,0
			c0-0.025-0.021-0.047-0.049-0.047h-0.957C27.061,49.951,27.04,49.973,27.04,49.998L27.04,49.998z"/>
		<path fill="#FCE3E8" d="M27.04,50.574c0,0.025,0.021,0.047,0.049,0.047h0.957c0.025,0,0.049-0.02,0.049-0.047l0,0
			c0-0.027-0.021-0.049-0.049-0.049h-0.957C27.061,50.525,27.04,50.547,27.04,50.574L27.04,50.574z"/>
		<path fill="#FCE3E8" d="M27.04,51.139c0,0.025,0.021,0.049,0.049,0.049h0.957c0.025,0,0.049-0.021,0.049-0.049l0,0
			c0-0.025-0.021-0.049-0.049-0.049h-0.957C27.061,51.09,27.04,51.111,27.04,51.139L27.04,51.139z"/>
		<path fill="#FCE3E8" d="M27.04,51.703c0,0.025,0.021,0.047,0.049,0.047h0.957c0.025,0,0.049-0.02,0.049-0.047l0,0
			c0-0.027-0.021-0.049-0.049-0.049h-0.957C27.061,51.654,27.04,51.676,27.04,51.703L27.04,51.703z"/>
	</g>
	<g>
		<g>
			<path fill="#E88A24" d="M21.711,51.916c0,0.115,0.094,0.209,0.211,0.209h3.109c0.117,0,0.213-0.094,0.213-0.209v-3.111
				c0-0.117-0.096-0.211-0.213-0.211h-3.109c-0.117,0-0.211,0.094-0.211,0.211V51.916z"/>
			<g>
				<g>
					<path fill="#F5A741" d="M22.165,49.729c-0.113,0-0.205,0.092-0.205,0.205l0,0c0,0.113,0.092,0.205,0.205,0.205h2.629
						c0.113,0,0.205-0.092,0.205-0.205l0,0c0-0.113-0.092-0.205-0.205-0.205H22.165z"/>
				</g>
				<g>
					<path fill="#F5A741" d="M22.165,50.578c-0.113,0-0.205,0.092-0.205,0.205l0,0c0,0.113,0.092,0.205,0.205,0.205h2.629
						c0.113,0,0.205-0.092,0.205-0.205l0,0c0-0.113-0.092-0.205-0.205-0.205H22.165L22.165,50.578z"/>
				</g>
				<g>
					<path fill="#F5A741" d="M22.165,51.43c-0.113,0-0.205,0.092-0.205,0.205l0,0c0,0.113,0.092,0.205,0.205,0.205h2.629
						c0.113,0,0.205-0.092,0.205-0.205l0,0c0-0.113-0.092-0.205-0.205-0.205H22.165z"/>
				</g>
				<g>
					<path fill="#F5A741" d="M22.165,48.877c-0.113,0-0.205,0.092-0.205,0.205l0,0c0,0.113,0.092,0.205,0.205,0.205h2.629
						c0.113,0,0.205-0.092,0.205-0.205l0,0c0-0.113-0.092-0.205-0.205-0.205H22.165z"/>
				</g>
			</g>
		</g>
		<path fill="#FCE3E8" d="M24.272,52.131c0,0.025,0.021,0.045,0.045,0.045l0,0c0.025,0,0.045-0.02,0.045-0.045v-3.521
			c0-0.025-0.02-0.045-0.045-0.045l0,0c-0.025,0-0.045,0.02-0.045,0.045V52.131z"/>
		<path fill="#FCE3E8" d="M23.428,52.131c0,0.025,0.02,0.045,0.045,0.045l0,0c0.025,0,0.045-0.02,0.045-0.045v-3.521
			c0-0.025-0.02-0.045-0.045-0.045l0,0c-0.025,0-0.045,0.02-0.045,0.045V52.131z"/>
		<path fill="#FCE3E8" d="M23.397,49.061c0,0.023,0.021,0.045,0.045,0.045h0.904c0.025,0,0.045-0.021,0.045-0.045l0,0
			c0-0.025-0.021-0.045-0.045-0.045h-0.904C23.418,49.016,23.397,49.035,23.397,49.061L23.397,49.061z"/>
		<path fill="#FCE3E8" d="M23.397,49.592c0,0.025,0.021,0.045,0.045,0.045h0.904c0.025,0,0.045-0.02,0.045-0.045l0,0
			c0-0.023-0.021-0.045-0.045-0.045h-0.904C23.418,49.547,23.397,49.566,23.397,49.592L23.397,49.592z"/>
		<path fill="#FCE3E8" d="M23.397,50.123c0,0.025,0.021,0.045,0.045,0.045h0.904c0.025,0,0.045-0.02,0.045-0.045l0,0
			c0-0.023-0.021-0.045-0.045-0.045h-0.904C23.418,50.078,23.397,50.1,23.397,50.123L23.397,50.123z"/>
		<path fill="#FCE3E8" d="M23.397,50.666c0,0.025,0.021,0.045,0.045,0.045h0.904c0.025,0,0.045-0.021,0.045-0.045l0,0
			c0-0.025-0.021-0.045-0.045-0.045h-0.904C23.418,50.621,23.397,50.641,23.397,50.666L23.397,50.666z"/>
		<path fill="#FCE3E8" d="M23.397,51.197c0,0.025,0.021,0.045,0.045,0.045h0.904c0.025,0,0.045-0.02,0.045-0.045l0,0
			c0-0.025-0.021-0.045-0.045-0.045h-0.904C23.418,51.152,23.397,51.172,23.397,51.197L23.397,51.197z"/>
		<path fill="#FCE3E8" d="M23.397,51.73c0,0.023,0.021,0.045,0.045,0.045h0.904c0.025,0,0.045-0.021,0.045-0.045l0,0
			c0-0.025-0.021-0.045-0.045-0.045h-0.904C23.418,51.686,23.397,51.705,23.397,51.73L23.397,51.73z"/>
	</g>
	<g>
		<g>
			<path fill="#949292" d="M25.219,48.131c0,0.123,0.1,0.225,0.223,0.225h3.303c0.121,0,0.223-0.102,0.223-0.225V44.83
				c0-0.123-0.102-0.223-0.223-0.223h-3.303c-0.123,0-0.223,0.1-0.223,0.223V48.131L25.219,48.131z"/>
			<g>
				<g>
					<path fill="#C9C7C7" d="M25.698,45.811c-0.119,0-0.217,0.098-0.217,0.219l0,0c0,0.119,0.098,0.217,0.217,0.217h2.789
						c0.121,0,0.219-0.098,0.219-0.217l0,0c0-0.121-0.098-0.219-0.219-0.219H25.698z"/>
				</g>
				<g>
					<path fill="#C9C7C7" d="M25.698,46.713c-0.119,0-0.217,0.098-0.217,0.219l0,0c0,0.119,0.098,0.217,0.217,0.217h2.789
						c0.121,0,0.219-0.098,0.219-0.217l0,0c0-0.121-0.098-0.219-0.219-0.219H25.698z"/>
				</g>
				<g>
					<path fill="#C9C7C7" d="M25.698,47.615c-0.119,0-0.217,0.098-0.217,0.217l0,0c0,0.121,0.098,0.219,0.217,0.219h2.789
						c0.121,0,0.219-0.098,0.219-0.219l0,0c0-0.119-0.098-0.217-0.219-0.217H25.698z"/>
				</g>
				<g>
					<path fill="#C9C7C7" d="M25.698,44.908c-0.119,0-0.217,0.098-0.217,0.217l0,0c0,0.121,0.098,0.219,0.217,0.219h2.789
						c0.121,0,0.219-0.098,0.219-0.219l0,0c0-0.119-0.098-0.217-0.219-0.217H25.698z"/>
				</g>
			</g>
		</g>
		<path fill="#FCE3E8" d="M27.934,48.359c0,0.025,0.021,0.047,0.049,0.047l0,0c0.025,0,0.047-0.021,0.047-0.047v-3.736
			c0-0.025-0.02-0.049-0.047-0.049l0,0c-0.025,0-0.049,0.021-0.049,0.049V48.359z"/>
		<path fill="#FCE3E8" d="M27.04,48.359c0,0.025,0.021,0.047,0.049,0.047l0,0c0.025,0,0.047-0.021,0.047-0.047v-3.736
			c0-0.025-0.021-0.049-0.047-0.049l0,0c-0.027,0-0.049,0.021-0.049,0.049V48.359z"/>
		<path fill="#FCE3E8" d="M27.008,45.102c0,0.027,0.02,0.049,0.047,0.049h0.959c0.025,0,0.047-0.021,0.047-0.049l0,0
			c0-0.025-0.02-0.049-0.047-0.049h-0.959C27.03,45.053,27.008,45.074,27.008,45.102L27.008,45.102z"/>
		<path fill="#FCE3E8" d="M27.008,45.666c0,0.025,0.02,0.047,0.047,0.047h0.959c0.025,0,0.047-0.02,0.047-0.047l0,0
			c0-0.025-0.02-0.049-0.047-0.049h-0.959C27.03,45.617,27.008,45.641,27.008,45.666L27.008,45.666z"/>
		<path fill="#FCE3E8" d="M27.008,46.23c0,0.025,0.02,0.049,0.047,0.049h0.959c0.025,0,0.047-0.021,0.047-0.049l0,0
			c0-0.025-0.02-0.047-0.047-0.047h-0.959C27.03,46.184,27.008,46.203,27.008,46.23L27.008,46.23z"/>
		<path fill="#FCE3E8" d="M27.008,46.807c0,0.025,0.02,0.047,0.047,0.047h0.959c0.025,0,0.047-0.021,0.047-0.047l0,0
			c0-0.027-0.02-0.049-0.047-0.049h-0.959C27.03,46.758,27.008,46.779,27.008,46.807L27.008,46.807z"/>
		<path fill="#FCE3E8" d="M27.008,47.369c0,0.027,0.02,0.049,0.047,0.049h0.959c0.025,0,0.047-0.021,0.047-0.049l0,0
			c0-0.027-0.02-0.049-0.047-0.049h-0.959C27.03,47.32,27.008,47.342,27.008,47.369L27.008,47.369z"/>
		<path fill="#FCE3E8" d="M27.008,47.934c0,0.025,0.02,0.049,0.047,0.049h0.959c0.025,0,0.047-0.021,0.047-0.049l0,0
			c0-0.025-0.02-0.049-0.047-0.049h-0.959C27.03,47.885,27.008,47.906,27.008,47.934L27.008,47.934z"/>
	</g>
	<g>
		<path fill="#E85553" d="M36.18,52.066c0,0.061,0.049,0.109,0.109,0.109h6.775c0.061,0,0.109-0.049,0.109-0.109v-3.508
			c0-0.061-0.049-0.109-0.109-0.109H36.29c-0.061,0-0.109,0.049-0.109,0.109V52.066L36.18,52.066z"/>
		<path fill="#F1A0AC" d="M42.379,51.719c0,0.119,0.098,0.219,0.217,0.219l0,0c0.121,0,0.219-0.1,0.219-0.219V48.93
			c0-0.119-0.098-0.219-0.219-0.219l0,0c-0.119,0-0.217,0.1-0.217,0.219V51.719z"/>
		<path fill="#F1A0AC" d="M37.53,51.719c0,0.119,0.1,0.219,0.219,0.219l0,0c0.121,0,0.219-0.1,0.219-0.219V48.93
			c0-0.119-0.098-0.219-0.219-0.219l0,0c-0.119,0-0.219,0.1-0.219,0.219V51.719z"/>
		<path fill="#F1A0AC" d="M38.5,51.719c0,0.119,0.098,0.219,0.219,0.219l0,0c0.121,0,0.217-0.1,0.217-0.219V48.93
			c0-0.119-0.098-0.219-0.217-0.219l0,0c-0.121,0-0.219,0.1-0.219,0.219V51.719z"/>
		<path fill="#F1A0AC" d="M39.469,51.719c0,0.119,0.098,0.219,0.219,0.219l0,0c0.121,0,0.217-0.1,0.217-0.219V48.93
			c0-0.119-0.096-0.219-0.217-0.219l0,0c-0.121,0-0.219,0.1-0.219,0.219V51.719z"/>
		<path fill="#F1A0AC" d="M40.44,51.719c0,0.119,0.098,0.219,0.217,0.219l0,0c0.121,0,0.219-0.1,0.219-0.219V48.93
			c0-0.119-0.098-0.219-0.219-0.219l0,0c-0.119,0-0.217,0.1-0.217,0.219V51.719z"/>
		<path fill="#F1A0AC" d="M41.411,51.719c0,0.119,0.098,0.219,0.217,0.219l0,0c0.121,0,0.219-0.1,0.219-0.219V48.93
			c0-0.119-0.098-0.219-0.219-0.219l0,0c-0.119,0-0.217,0.1-0.217,0.219V51.719z"/>
		<path fill="#F1A0AC" d="M36.561,51.719c0,0.119,0.098,0.219,0.217,0.219l0,0c0.121,0,0.219-0.1,0.219-0.219V48.93
			c0-0.119-0.098-0.219-0.219-0.219l0,0c-0.121,0-0.217,0.1-0.217,0.219V51.719z"/>
	</g>
	<path fill="#5E5E5E" d="M28.399,53.154v0.848c0,0.289,0.23,0.521,0.52,0.521h21.39c0.287,0,0.516-0.232,0.516-0.521v-0.848
		c0-0.289-0.229-0.518-0.516-0.518H37.834v-5.76c0.035-0.014,0.016-0.027,0.02-0.043c0.023-0.062,0.033-0.135-0.02-0.188v-15.58
		h16.363v3.545h-0.42l0.236,1.07h0.273v0.379c0.49,0,0.461,0.389,0.227,0.389c-0.236,0-0.229-0.189-0.229-0.189l-0.082,0.027
		c-0.016,0.143,0.027,0.24,0.078,0.305l-1.447,1.668c-0.018-0.004-0.035-0.008-0.057-0.01c0.131,0.029,0.246,0.094,0.311,0.131
		c-0.014-0.012-0.027-0.021-0.043-0.033l1.436-1.654c0.066,0.006,0.156,0.004,0.244-0.014l1.404,1.617
		c0.076-0.041,0.156-0.059,0.232-0.064l-1.426-1.643c0.072-0.055,0.121-0.137,0.121-0.26c0-0.434-0.299-0.488-0.299-0.488v-0.16
		H55.1l0.236-1.07h-0.396v-3.547h0.943v-0.871h-1.217l-1.504-1.215h0.254v-0.652h-1.049l-0.039-0.035v0.041
		c-1.344-0.404-4.699-1.416-8.055-2.408c-5.126-1.518-7.324-2.123-8.279-2.359c-0.146-0.139-0.344-0.225-0.562-0.225
		c-0.426,0-0.777,0.324-0.816,0.74c-0.279,0.383-0.693,0.988-1.314,1.963c-0.604,0.945-1.178,1.902-1.416,2.283H30.43v0.652h2.957
		v1.215H30.43v0.871h2.195v21.57h-3.709C28.629,52.639,28.399,52.865,28.399,53.154z M54.488,31.066h0.164v3.545h-0.164V31.066z
		 M52.621,28.98h0.059l1.506,1.215h-1.564V28.98L52.621,28.98z M34.678,27.781h-1.289v0.545h-1.25
		c0.906-1.488,1.881-3.031,2.512-3.924c0.008,0.025,0.01,0.055,0.027,0.08V27.781L34.678,27.781z M35.875,24.158
		c0,0.051-0.008,0.105-0.025,0.141h0.008v0.02c-0.072,0.168-0.229,0.285-0.418,0.285c-0.242,0-0.443-0.197-0.443-0.439
		c0-0.244,0.195-0.439,0.439-0.439C35.678,23.723,35.875,23.914,35.875,24.158z M35.434,24.982c0.15,0,0.295-0.041,0.422-0.111v2.91
		h-0.852v-2.914C35.131,24.939,35.28,24.982,35.434,24.982z M36.418,28.98v1.215h-0.205l-2.004-1.215H36.418z M52.113,30.195
		l-1.506-1.215h1.723v1.215H52.113z M50.008,28.98h0.115l1.506,1.215h-1.621V28.98z M49.646,30.195l-1.639-1.215h1.689v1.215H49.646
		z M47.357,28.98h0.141l1.639,1.215h-1.777V28.98H47.357z M46.877,30.195l-1.594-1.215h1.766v1.215H46.877z M44.654,28.98h0.129
		l1.592,1.215h-1.721V28.98L44.654,28.98z M44.441,28.326l-0.096-0.068v0.068h-6.912v-0.543h-1.252V24.5
		c0.037-0.102,0.074-0.219,0.074-0.34c0-0.115-0.025-0.227-0.068-0.328c2.537,0.656,9.779,2.809,15.386,4.494h-1.762l-0.113-0.08
		v0.08h-2.557l-0.094-0.062v0.062H44.441L44.441,28.326z M44.336,30.195l-1.703-1.215h1.712v1.215H44.336z M42.081,28.98h0.027
		l1.705,1.215h-1.732V28.98z M41.641,30.195l-1.686-1.215h1.814v1.215H41.641z M39.467,29l1.652,1.195h-1.652V29z M39.159,30.156
		l-1.723-1.176h1.723V30.156z M36.709,30.195V28.98h0.188l1.779,1.215H36.709z M37.145,46.072l-2.766-2.252h2.766V46.072z
		 M37.145,46.979v2.102l-2.773-2.102H37.145z M37.145,49.916v1.574l-2.67-1.574H37.145z M34.37,50.354l2.775,1.643v0.643H34.37
		V50.354z M34.37,47.518l2.598,1.963H34.37V47.518z M34.37,44.363l2.68,2.178h-2.68V44.363z M34.37,41.217l2.639,2.168H34.37V41.217
		z M34.37,40.52h2.775v2.424l-2.775-2.287V40.52z M34.37,38.111l2.561,1.971H34.37V38.111z M34.37,37.488h2.775v2.221l-2.775-2.146
		V37.488z M34.37,34.867l2.486,2.186H34.37V34.867z M34.37,34.188h2.775v2.557l-2.775-2.455V34.188z M34.37,31.678l2.467,2.074
		H34.37V31.678L34.37,31.678z M34.37,31.066h2.775v2.393l-2.775-2.35V31.066z M33.698,29.02l1.93,1.176h-1.93V29.02z"/>
	<rect x="47.322" y="56.803" fill="#A9A8A8" width="3.9" height="6.678"/>
	<rect x="30.94" y="56.803" fill="#A9A8A8" width="3.9" height="6.678"/>
	<rect x="14.557" y="56.803" fill="#A9A8A8" width="3.9" height="6.678"/>
	<rect x="2.523" y="59.797" fill="#86AEDC" width="79.924" height="22.703"/>
	<g>
		<g>
			<path fill="#5690CC" d="M80.84,58.959c0.775,0,1.426-0.539,1.594-1.264c0.029,0.119,0.043,0.244,0.043,0.373
				c0,0.902-0.732,1.637-1.637,1.637c-0.906,0-1.639-0.732-1.639-1.637c0-0.129,0.016-0.254,0.043-0.373
				C79.414,58.42,80.064,58.959,80.84,58.959z"/>
			<path fill="#5690CC" d="M77.646,58.963c0.775,0,1.426-0.539,1.596-1.264c0.025,0.119,0.041,0.244,0.041,0.373
				c0,0.904-0.732,1.637-1.637,1.637s-1.639-0.732-1.639-1.637c0-0.129,0.016-0.254,0.043-0.373
				C76.221,58.424,76.871,58.963,77.646,58.963z"/>
		</g>
		<g>
			<path fill="#5690CC" d="M74.455,58.959c0.775,0,1.426-0.539,1.594-1.264c0.029,0.119,0.043,0.244,0.043,0.373
				c0,0.902-0.732,1.637-1.637,1.637s-1.639-0.732-1.639-1.637c0-0.129,0.016-0.254,0.043-0.373
				C73.027,58.42,73.678,58.959,74.455,58.959z"/>
			<path fill="#5690CC" d="M71.26,58.963c0.777,0,1.426-0.539,1.596-1.264c0.027,0.119,0.043,0.244,0.043,0.373
				c0,0.904-0.732,1.637-1.639,1.637c-0.904,0-1.637-0.732-1.637-1.637c0-0.129,0.014-0.254,0.043-0.373
				C69.834,58.424,70.484,58.963,71.26,58.963z"/>
		</g>
		<g>
			<path fill="#5690CC" d="M68.088,58.959c0.775,0,1.426-0.539,1.594-1.264c0.029,0.119,0.043,0.244,0.043,0.373
				c0,0.902-0.732,1.637-1.637,1.637c-0.906,0-1.639-0.732-1.639-1.637c0-0.129,0.016-0.254,0.043-0.373
				C66.662,58.42,67.312,58.959,68.088,58.959z"/>
			<path fill="#5690CC" d="M64.895,58.963c0.775,0,1.426-0.539,1.594-1.264c0.027,0.119,0.043,0.244,0.043,0.373
				c0,0.904-0.732,1.637-1.637,1.637c-0.906,0-1.639-0.732-1.639-1.637c0-0.129,0.016-0.254,0.043-0.373
				C63.469,58.424,64.119,58.963,64.895,58.963z"/>
		</g>
		<g>
			<path fill="#5690CC" d="M61.703,58.959c0.775,0,1.426-0.539,1.594-1.264c0.029,0.119,0.043,0.244,0.043,0.373
				c0,0.902-0.732,1.637-1.637,1.637c-0.906,0-1.639-0.732-1.639-1.637c0-0.129,0.016-0.254,0.043-0.373
				C60.277,58.42,60.926,58.959,61.703,58.959z"/>
			<path fill="#5690CC" d="M58.508,58.963c0.777,0,1.426-0.539,1.596-1.264c0.027,0.119,0.043,0.244,0.043,0.373
				c0,0.904-0.732,1.637-1.639,1.637c-0.904,0-1.637-0.732-1.637-1.637c0-0.129,0.014-0.254,0.043-0.373
				C57.084,58.424,57.732,58.963,58.508,58.963z"/>
		</g>
		<g>
			<path fill="#5690CC" d="M55.316,58.959c0.775,0,1.428-0.539,1.596-1.264c0.027,0.119,0.043,0.244,0.043,0.373
				c0,0.902-0.732,1.637-1.639,1.637c-0.904,0-1.637-0.732-1.637-1.637c0-0.129,0.014-0.254,0.043-0.373
				C53.891,58.42,54.541,58.959,55.316,58.959z"/>
			<path fill="#5690CC" d="M52.123,58.963c0.775,0,1.426-0.539,1.596-1.264c0.027,0.119,0.043,0.244,0.043,0.373
				c0,0.904-0.734,1.637-1.639,1.637s-1.639-0.732-1.639-1.637c0-0.129,0.018-0.254,0.043-0.373
				C50.697,58.424,51.348,58.963,52.123,58.963z"/>
		</g>
		<g>
			<path fill="#5690CC" d="M48.932,58.959c0.775,0,1.426-0.539,1.594-1.264c0.029,0.119,0.043,0.244,0.043,0.373
				c0,0.902-0.732,1.637-1.637,1.637c-0.906,0-1.639-0.732-1.639-1.637c0-0.129,0.016-0.254,0.043-0.373
				C47.506,58.42,48.156,58.959,48.932,58.959z"/>
			<path fill="#5690CC" d="M45.738,58.963c0.775,0,1.426-0.539,1.596-1.264c0.025,0.119,0.043,0.244,0.043,0.373
				c0,0.904-0.734,1.637-1.639,1.637S44.1,58.977,44.1,58.072c0-0.129,0.016-0.254,0.043-0.373
				C44.312,58.424,44.961,58.963,45.738,58.963z"/>
		</g>
		<g>
			<path fill="#5690CC" d="M42.545,58.959c0.775,0,1.425-0.539,1.595-1.264c0.027,0.119,0.043,0.244,0.043,0.373
				c0,0.902-0.732,1.637-1.638,1.637c-0.904,0-1.637-0.732-1.637-1.637c0-0.129,0.016-0.254,0.043-0.373
				C41.122,58.42,41.77,58.959,42.545,58.959z"/>
			<path fill="#5690CC" d="M39.352,58.963c0.777,0,1.426-0.539,1.596-1.264c0.027,0.119,0.041,0.244,0.041,0.373
				c0,0.904-0.732,1.637-1.637,1.637s-1.637-0.732-1.637-1.637c0-0.129,0.014-0.254,0.043-0.373
				C37.926,58.424,38.577,58.963,39.352,58.963z"/>
		</g>
		<g>
			<path fill="#5690CC" d="M36.161,58.959c0.775,0,1.426-0.539,1.596-1.264c0.027,0.119,0.043,0.244,0.043,0.373
				c0,0.902-0.734,1.637-1.639,1.637s-1.639-0.732-1.639-1.637c0-0.129,0.016-0.254,0.043-0.373
				C34.735,58.42,35.385,58.959,36.161,58.959z"/>
			<path fill="#5690CC" d="M32.967,58.963c0.775,0,1.426-0.539,1.594-1.264c0.029,0.119,0.043,0.244,0.043,0.373
				c0,0.904-0.732,1.637-1.637,1.637c-0.906,0-1.639-0.732-1.639-1.637c0-0.129,0.016-0.254,0.043-0.373
				C31.542,58.424,32.19,58.963,32.967,58.963z"/>
		</g>
		<g>
			<path fill="#5690CC" d="M29.776,58.959c0.775,0,1.426-0.539,1.596-1.264c0.027,0.119,0.043,0.244,0.043,0.373
				c0,0.902-0.734,1.637-1.639,1.637s-1.639-0.732-1.639-1.637c0-0.129,0.016-0.254,0.043-0.373
				C28.35,58.42,29,58.959,29.776,58.959z"/>
			<path fill="#5690CC" d="M26.583,58.963c0.775,0,1.426-0.539,1.594-1.264c0.029,0.119,0.043,0.244,0.043,0.373
				c0,0.904-0.732,1.637-1.637,1.637c-0.906,0-1.639-0.732-1.639-1.637c0-0.129,0.016-0.254,0.043-0.373
				C25.155,58.424,25.805,58.963,26.583,58.963z"/>
		</g>
		<g>
			<path fill="#5690CC" d="M23.389,58.959c0.777,0,1.426-0.539,1.596-1.264c0.027,0.119,0.043,0.244,0.043,0.373
				c0,0.902-0.732,1.637-1.639,1.637c-0.904,0-1.637-0.732-1.637-1.637c0-0.129,0.014-0.254,0.043-0.373
				C21.963,58.42,22.614,58.959,23.389,58.959z"/>
			<path fill="#5690CC" d="M20.196,58.963c0.775,0,1.426-0.539,1.596-1.264c0.027,0.119,0.041,0.244,0.041,0.373
				c0,0.904-0.732,1.637-1.639,1.637c-0.902,0-1.637-0.732-1.637-1.637c0-0.129,0.016-0.254,0.043-0.373
				C18.77,58.424,19.42,58.963,20.196,58.963z"/>
		</g>
		<g>
			<path fill="#5690CC" d="M16.985,58.959c0.777,0,1.428-0.539,1.596-1.264c0.027,0.119,0.043,0.244,0.043,0.373
				c0,0.902-0.732,1.637-1.639,1.637c-0.904,0-1.637-0.732-1.637-1.637c0-0.129,0.016-0.254,0.043-0.373
				C15.559,58.42,16.209,58.959,16.985,58.959z"/>
			<path fill="#5690CC" d="M13.792,58.963c0.775,0,1.426-0.539,1.596-1.264c0.027,0.119,0.043,0.244,0.043,0.373
				c0,0.904-0.734,1.637-1.639,1.637s-1.638-0.732-1.638-1.637c0-0.129,0.015-0.254,0.043-0.373
				C12.367,58.424,13.016,58.963,13.792,58.963z"/>
		</g>
		<g>
			<path fill="#5690CC" d="M10.6,58.959c0.777,0,1.427-0.539,1.596-1.264c0.027,0.119,0.043,0.244,0.043,0.373
				c0,0.902-0.732,1.637-1.639,1.637c-0.904,0-1.637-0.732-1.637-1.637c0-0.129,0.014-0.254,0.043-0.373
				C9.174,58.42,9.825,58.959,10.6,58.959z"/>
			<path fill="#5690CC" d="M7.407,58.963c0.775,0,1.426-0.539,1.596-1.264c0.027,0.119,0.043,0.244,0.043,0.373
				c0,0.904-0.734,1.637-1.639,1.637s-1.639-0.732-1.639-1.637c0-0.129,0.016-0.254,0.043-0.373
				C5.981,58.424,6.631,58.963,7.407,58.963z"/>
		</g>
		<g>
			<path fill="#5690CC" d="M4.215,58.959c0.775,0,1.426-0.539,1.594-1.264c0.029,0.119,0.043,0.244,0.043,0.373
				c0,0.902-0.732,1.637-1.637,1.637s-1.639-0.732-1.639-1.637c0-0.129,0.016-0.254,0.043-0.373
				C2.789,58.42,3.438,58.959,4.215,58.959z"/>
		</g>
		<g>
			<path fill="#96BBDB" d="M80.84,59.684c0.775,0,1.426-0.539,1.594-1.264c0.029,0.119,0.043,0.244,0.043,0.373
				c0,0.904-0.732,1.639-1.637,1.639c-0.906,0-1.639-0.734-1.639-1.639c0-0.129,0.016-0.254,0.043-0.373
				C79.414,59.145,80.064,59.684,80.84,59.684z"/>
			<path fill="#96BBDB" d="M77.646,59.688c0.775,0,1.426-0.539,1.596-1.264c0.025,0.119,0.041,0.244,0.041,0.373
				c0,0.904-0.732,1.639-1.637,1.639s-1.639-0.734-1.639-1.639c0-0.129,0.016-0.254,0.043-0.373
				C76.221,59.148,76.871,59.688,77.646,59.688z"/>
		</g>
		<g>
			<path fill="#96BBDB" d="M74.455,59.684c0.775,0,1.426-0.539,1.594-1.264c0.029,0.119,0.043,0.244,0.043,0.373
				c0,0.904-0.732,1.639-1.637,1.639s-1.639-0.734-1.639-1.639c0-0.129,0.016-0.254,0.043-0.373
				C73.027,59.145,73.678,59.684,74.455,59.684z"/>
			<path fill="#96BBDB" d="M71.26,59.688c0.777,0,1.426-0.539,1.596-1.264c0.027,0.119,0.043,0.244,0.043,0.373
				c0,0.904-0.732,1.639-1.639,1.639c-0.904,0-1.637-0.734-1.637-1.639c0-0.129,0.014-0.254,0.043-0.373
				C69.834,59.148,70.484,59.688,71.26,59.688z"/>
		</g>
		<g>
			<path fill="#96BBDB" d="M68.088,59.684c0.775,0,1.426-0.539,1.594-1.264c0.029,0.119,0.043,0.244,0.043,0.373
				c0,0.904-0.732,1.639-1.637,1.639c-0.906,0-1.639-0.734-1.639-1.639c0-0.129,0.016-0.254,0.043-0.373
				C66.662,59.145,67.312,59.684,68.088,59.684z"/>
			<path fill="#96BBDB" d="M64.895,59.688c0.775,0,1.426-0.539,1.594-1.264c0.027,0.119,0.043,0.244,0.043,0.373
				c0,0.904-0.732,1.639-1.637,1.639c-0.906,0-1.639-0.734-1.639-1.639c0-0.129,0.016-0.254,0.043-0.373
				C63.469,59.148,64.119,59.688,64.895,59.688z"/>
		</g>
		<g>
			<path fill="#96BBDB" d="M61.703,59.684c0.775,0,1.426-0.539,1.594-1.264c0.029,0.119,0.043,0.244,0.043,0.373
				c0,0.904-0.732,1.639-1.637,1.639c-0.906,0-1.639-0.734-1.639-1.639c0-0.129,0.016-0.254,0.043-0.373
				C60.277,59.145,60.926,59.684,61.703,59.684z"/>
			<path fill="#96BBDB" d="M58.508,59.688c0.777,0,1.426-0.539,1.596-1.264c0.027,0.119,0.043,0.244,0.043,0.373
				c0,0.904-0.732,1.639-1.639,1.639c-0.904,0-1.637-0.734-1.637-1.639c0-0.129,0.014-0.254,0.043-0.373
				C57.084,59.148,57.732,59.688,58.508,59.688z"/>
		</g>
		<g>
			<path fill="#96BBDB" d="M55.316,59.684c0.775,0,1.428-0.539,1.596-1.264c0.027,0.119,0.043,0.244,0.043,0.373
				c0,0.904-0.732,1.639-1.639,1.639c-0.904,0-1.637-0.734-1.637-1.639c0-0.129,0.014-0.254,0.043-0.373
				C53.891,59.145,54.541,59.684,55.316,59.684z"/>
			<path fill="#96BBDB" d="M52.123,59.688c0.775,0,1.426-0.539,1.596-1.264c0.027,0.119,0.043,0.244,0.043,0.373
				c0,0.904-0.734,1.639-1.639,1.639s-1.639-0.734-1.639-1.639c0-0.129,0.018-0.254,0.043-0.373
				C50.697,59.148,51.348,59.688,52.123,59.688z"/>
		</g>
		<g>
			<path fill="#96BBDB" d="M48.932,59.684c0.775,0,1.426-0.539,1.594-1.264c0.029,0.119,0.043,0.244,0.043,0.373
				c0,0.904-0.732,1.639-1.637,1.639c-0.906,0-1.639-0.734-1.639-1.639c0-0.129,0.016-0.254,0.043-0.373
				C47.506,59.145,48.156,59.684,48.932,59.684z"/>
			<path fill="#96BBDB" d="M45.738,59.688c0.775,0,1.426-0.539,1.596-1.264c0.025,0.119,0.043,0.244,0.043,0.373
				c0,0.904-0.734,1.639-1.639,1.639S44.1,59.701,44.1,58.797c0-0.129,0.016-0.254,0.043-0.373
				C44.312,59.148,44.961,59.688,45.738,59.688z"/>
		</g>
		<g>
			<path fill="#96BBDB" d="M42.545,59.684c0.775,0,1.425-0.539,1.595-1.264c0.027,0.119,0.043,0.244,0.043,0.373
				c0,0.904-0.732,1.639-1.638,1.639c-0.904,0-1.637-0.734-1.637-1.639c0-0.129,0.016-0.254,0.043-0.373
				C41.122,59.145,41.77,59.684,42.545,59.684z"/>
			<path fill="#96BBDB" d="M39.352,59.688c0.777,0,1.426-0.539,1.596-1.264c0.027,0.119,0.041,0.244,0.041,0.373
				c0,0.904-0.732,1.639-1.637,1.639s-1.637-0.734-1.637-1.639c0-0.129,0.014-0.254,0.043-0.373
				C37.926,59.148,38.577,59.688,39.352,59.688z"/>
		</g>
		<g>
			<path fill="#96BBDB" d="M36.161,59.684c0.775,0,1.426-0.539,1.596-1.264c0.027,0.119,0.043,0.244,0.043,0.373
				c0,0.904-0.734,1.639-1.639,1.639s-1.639-0.734-1.639-1.639c0-0.129,0.016-0.254,0.043-0.373
				C34.735,59.145,35.385,59.684,36.161,59.684z"/>
			<path fill="#96BBDB" d="M32.967,59.688c0.775,0,1.426-0.539,1.594-1.264c0.029,0.119,0.043,0.244,0.043,0.373
				c0,0.904-0.732,1.639-1.637,1.639c-0.906,0-1.639-0.734-1.639-1.639c0-0.129,0.016-0.254,0.043-0.373
				C31.542,59.148,32.19,59.688,32.967,59.688z"/>
		</g>
		<g>
			<path fill="#96BBDB" d="M29.776,59.684c0.775,0,1.426-0.539,1.596-1.264c0.027,0.119,0.043,0.244,0.043,0.373
				c0,0.904-0.734,1.639-1.639,1.639s-1.639-0.734-1.639-1.639c0-0.129,0.016-0.254,0.043-0.373
				C28.35,59.145,29,59.684,29.776,59.684z"/>
			<path fill="#96BBDB" d="M26.583,59.688c0.775,0,1.426-0.539,1.594-1.264c0.029,0.119,0.043,0.244,0.043,0.373
				c0,0.904-0.732,1.639-1.637,1.639c-0.906,0-1.639-0.734-1.639-1.639c0-0.129,0.016-0.254,0.043-0.373
				C25.155,59.148,25.805,59.688,26.583,59.688z"/>
		</g>
		<g>
			<path fill="#96BBDB" d="M23.389,59.684c0.777,0,1.426-0.539,1.596-1.264c0.027,0.119,0.043,0.244,0.043,0.373
				c0,0.904-0.732,1.639-1.639,1.639c-0.904,0-1.637-0.734-1.637-1.639c0-0.129,0.014-0.254,0.043-0.373
				C21.963,59.145,22.614,59.684,23.389,59.684z"/>
			<path fill="#96BBDB" d="M20.196,59.688c0.775,0,1.426-0.539,1.596-1.264c0.027,0.119,0.041,0.244,0.041,0.373
				c0,0.904-0.732,1.639-1.639,1.639c-0.902,0-1.637-0.734-1.637-1.639c0-0.129,0.016-0.254,0.043-0.373
				C18.77,59.148,19.42,59.688,20.196,59.688z"/>
		</g>
		<g>
			<path fill="#96BBDB" d="M16.985,59.684c0.777,0,1.428-0.539,1.596-1.264c0.027,0.119,0.043,0.244,0.043,0.373
				c0,0.904-0.732,1.639-1.639,1.639c-0.904,0-1.637-0.734-1.637-1.639c0-0.129,0.016-0.254,0.043-0.373
				C15.559,59.145,16.209,59.684,16.985,59.684z"/>
			<path fill="#96BBDB" d="M13.792,59.688c0.775,0,1.426-0.539,1.596-1.264c0.027,0.119,0.043,0.244,0.043,0.373
				c0,0.904-0.734,1.639-1.639,1.639s-1.638-0.734-1.638-1.639c0-0.129,0.015-0.254,0.043-0.373
				C12.367,59.148,13.016,59.688,13.792,59.688z"/>
		</g>
		<g>
			<path fill="#96BBDB" d="M10.6,59.684c0.777,0,1.427-0.539,1.596-1.264c0.027,0.119,0.043,0.244,0.043,0.373
				c0,0.904-0.732,1.639-1.639,1.639c-0.904,0-1.637-0.734-1.637-1.639c0-0.129,0.014-0.254,0.043-0.373
				C9.174,59.145,9.825,59.684,10.6,59.684z"/>
			<path fill="#96BBDB" d="M7.407,59.688c0.775,0,1.426-0.539,1.596-1.264c0.027,0.119,0.043,0.244,0.043,0.373
				c0,0.904-0.734,1.639-1.639,1.639s-1.639-0.734-1.639-1.639c0-0.129,0.016-0.254,0.043-0.373
				C5.981,59.148,6.631,59.688,7.407,59.688z"/>
		</g>
		<g>
			<path fill="#96BBDB" d="M4.215,59.684c0.775,0,1.426-0.539,1.594-1.264c0.029,0.119,0.043,0.244,0.043,0.373
				c0,0.904-0.732,1.639-1.637,1.639s-1.639-0.734-1.639-1.639c0-0.129,0.016-0.254,0.043-0.373
				C2.789,59.145,3.438,59.684,4.215,59.684z"/>
		</g>
		<g>
			<path fill="#5690CC" d="M80.84,60.408c0.775,0,1.426-0.539,1.594-1.264c0.029,0.117,0.043,0.242,0.043,0.373
				c0,0.902-0.732,1.637-1.637,1.637c-0.906,0-1.639-0.732-1.639-1.637c0-0.131,0.016-0.256,0.043-0.373
				C79.414,59.867,80.064,60.408,80.84,60.408z"/>
			<path fill="#5690CC" d="M77.646,60.412c0.775,0,1.426-0.539,1.596-1.264c0.025,0.119,0.041,0.244,0.041,0.373
				c0,0.902-0.732,1.637-1.637,1.637s-1.639-0.732-1.639-1.637c0-0.129,0.016-0.254,0.043-0.373
				C76.221,59.871,76.871,60.412,77.646,60.412z"/>
		</g>
		<g>
			<path fill="#5690CC" d="M74.455,60.408c0.775,0,1.426-0.539,1.594-1.264c0.029,0.117,0.043,0.242,0.043,0.373
				c0,0.902-0.732,1.637-1.637,1.637s-1.639-0.732-1.639-1.637c0-0.131,0.016-0.256,0.043-0.373
				C73.027,59.867,73.678,60.408,74.455,60.408z"/>
			<path fill="#5690CC" d="M71.26,60.412c0.777,0,1.426-0.539,1.596-1.264c0.027,0.119,0.043,0.244,0.043,0.373
				c0,0.902-0.732,1.637-1.639,1.637c-0.904,0-1.637-0.732-1.637-1.637c0-0.129,0.014-0.254,0.043-0.373
				C69.834,59.871,70.484,60.412,71.26,60.412z"/>
		</g>
		<g>
			<path fill="#5690CC" d="M68.088,60.408c0.775,0,1.426-0.539,1.594-1.264c0.029,0.117,0.043,0.242,0.043,0.373
				c0,0.902-0.732,1.637-1.637,1.637c-0.906,0-1.639-0.732-1.639-1.637c0-0.131,0.016-0.256,0.043-0.373
				C66.662,59.867,67.312,60.408,68.088,60.408z"/>
			<path fill="#5690CC" d="M64.895,60.412c0.775,0,1.426-0.539,1.594-1.264c0.027,0.119,0.043,0.244,0.043,0.373
				c0,0.902-0.732,1.637-1.637,1.637c-0.906,0-1.639-0.732-1.639-1.637c0-0.129,0.016-0.254,0.043-0.373
				C63.469,59.871,64.119,60.412,64.895,60.412z"/>
		</g>
		<g>
			<path fill="#5690CC" d="M61.703,60.408c0.775,0,1.426-0.539,1.594-1.264c0.029,0.117,0.043,0.242,0.043,0.373
				c0,0.902-0.732,1.637-1.637,1.637c-0.906,0-1.639-0.732-1.639-1.637c0-0.131,0.016-0.256,0.043-0.373
				C60.277,59.867,60.926,60.408,61.703,60.408z"/>
			<path fill="#5690CC" d="M58.508,60.412c0.777,0,1.426-0.539,1.596-1.264c0.027,0.119,0.043,0.244,0.043,0.373
				c0,0.902-0.732,1.637-1.639,1.637c-0.904,0-1.637-0.732-1.637-1.637c0-0.129,0.014-0.254,0.043-0.373
				C57.084,59.871,57.732,60.412,58.508,60.412z"/>
		</g>
		<g>
			<path fill="#5690CC" d="M55.316,60.408c0.775,0,1.428-0.539,1.596-1.264c0.027,0.117,0.043,0.242,0.043,0.373
				c0,0.902-0.732,1.637-1.639,1.637c-0.904,0-1.637-0.732-1.637-1.637c0-0.131,0.014-0.256,0.043-0.373
				C53.891,59.867,54.541,60.408,55.316,60.408z"/>
			<path fill="#5690CC" d="M52.123,60.412c0.775,0,1.426-0.539,1.596-1.264c0.027,0.119,0.043,0.244,0.043,0.373
				c0,0.902-0.734,1.637-1.639,1.637s-1.639-0.732-1.639-1.637c0-0.129,0.018-0.254,0.043-0.373
				C50.697,59.871,51.348,60.412,52.123,60.412z"/>
		</g>
		<g>
			<path fill="#5690CC" d="M48.932,60.408c0.775,0,1.426-0.539,1.594-1.264c0.029,0.117,0.043,0.242,0.043,0.373
				c0,0.902-0.732,1.637-1.637,1.637c-0.906,0-1.639-0.732-1.639-1.637c0-0.131,0.016-0.256,0.043-0.373
				C47.506,59.867,48.156,60.408,48.932,60.408z"/>
			<path fill="#5690CC" d="M45.738,60.412c0.775,0,1.426-0.539,1.596-1.264c0.025,0.119,0.043,0.244,0.043,0.373
				c0,0.902-0.734,1.637-1.639,1.637S44.1,60.426,44.1,59.521c0-0.129,0.016-0.254,0.043-0.373
				C44.312,59.871,44.961,60.412,45.738,60.412z"/>
		</g>
		<g>
			<path fill="#5690CC" d="M42.545,60.408c0.775,0,1.425-0.539,1.595-1.264c0.027,0.117,0.043,0.242,0.043,0.373
				c0,0.902-0.732,1.637-1.638,1.637c-0.904,0-1.637-0.732-1.637-1.637c0-0.131,0.016-0.256,0.043-0.373
				C41.122,59.867,41.77,60.408,42.545,60.408z"/>
			<path fill="#5690CC" d="M39.352,60.412c0.777,0,1.426-0.539,1.596-1.264c0.027,0.119,0.041,0.244,0.041,0.373
				c0,0.902-0.732,1.637-1.637,1.637s-1.637-0.732-1.637-1.637c0-0.129,0.014-0.254,0.043-0.373
				C37.926,59.871,38.577,60.412,39.352,60.412z"/>
		</g>
		<g>
			<path fill="#5690CC" d="M36.161,60.408c0.775,0,1.426-0.539,1.596-1.264c0.027,0.117,0.043,0.242,0.043,0.373
				c0,0.902-0.734,1.637-1.639,1.637s-1.639-0.732-1.639-1.637c0-0.131,0.016-0.256,0.043-0.373
				C34.735,59.867,35.385,60.408,36.161,60.408z"/>
			<path fill="#5690CC" d="M32.967,60.412c0.775,0,1.426-0.539,1.594-1.264c0.029,0.119,0.043,0.244,0.043,0.373
				c0,0.902-0.732,1.637-1.637,1.637c-0.906,0-1.639-0.732-1.639-1.637c0-0.129,0.016-0.254,0.043-0.373
				C31.542,59.871,32.19,60.412,32.967,60.412z"/>
		</g>
		<g>
			<path fill="#5690CC" d="M29.776,60.408c0.775,0,1.426-0.539,1.596-1.264c0.027,0.117,0.043,0.242,0.043,0.373
				c0,0.902-0.734,1.637-1.639,1.637s-1.639-0.732-1.639-1.637c0-0.131,0.016-0.256,0.043-0.373
				C28.35,59.867,29,60.408,29.776,60.408z"/>
			<path fill="#5690CC" d="M26.583,60.412c0.775,0,1.426-0.539,1.594-1.264c0.029,0.119,0.043,0.244,0.043,0.373
				c0,0.902-0.732,1.637-1.637,1.637c-0.906,0-1.639-0.732-1.639-1.637c0-0.129,0.016-0.254,0.043-0.373
				C25.155,59.871,25.805,60.412,26.583,60.412z"/>
		</g>
		<g>
			<path fill="#5690CC" d="M23.389,60.408c0.777,0,1.426-0.539,1.596-1.264c0.027,0.117,0.043,0.242,0.043,0.373
				c0,0.902-0.732,1.637-1.639,1.637c-0.904,0-1.637-0.732-1.637-1.637c0-0.131,0.014-0.256,0.043-0.373
				C21.963,59.867,22.614,60.408,23.389,60.408z"/>
			<path fill="#5690CC" d="M20.196,60.412c0.775,0,1.426-0.539,1.596-1.264c0.027,0.119,0.041,0.244,0.041,0.373
				c0,0.902-0.732,1.637-1.639,1.637c-0.902,0-1.637-0.732-1.637-1.637c0-0.129,0.016-0.254,0.043-0.373
				C18.77,59.871,19.42,60.412,20.196,60.412z"/>
		</g>
		<g>
			<path fill="#5690CC" d="M16.985,60.408c0.777,0,1.428-0.539,1.596-1.264c0.027,0.117,0.043,0.242,0.043,0.373
				c0,0.902-0.732,1.637-1.639,1.637c-0.904,0-1.637-0.732-1.637-1.637c0-0.131,0.016-0.256,0.043-0.373
				C15.559,59.867,16.209,60.408,16.985,60.408z"/>
			<path fill="#5690CC" d="M13.792,60.412c0.775,0,1.426-0.539,1.596-1.264c0.027,0.119,0.043,0.244,0.043,0.373
				c0,0.902-0.734,1.637-1.639,1.637s-1.638-0.732-1.638-1.637c0-0.129,0.015-0.254,0.043-0.373
				C12.367,59.871,13.016,60.412,13.792,60.412z"/>
		</g>
		<g>
			<path fill="#5690CC" d="M10.6,60.408c0.777,0,1.427-0.539,1.596-1.264c0.027,0.117,0.043,0.242,0.043,0.373
				c0,0.902-0.732,1.637-1.639,1.637c-0.904,0-1.637-0.732-1.637-1.637c0-0.131,0.014-0.256,0.043-0.373
				C9.174,59.867,9.825,60.408,10.6,60.408z"/>
			<path fill="#5690CC" d="M7.407,60.412c0.775,0,1.426-0.539,1.596-1.264c0.027,0.119,0.043,0.244,0.043,0.373
				c0,0.902-0.734,1.637-1.639,1.637s-1.639-0.732-1.639-1.637c0-0.129,0.016-0.254,0.043-0.373
				C5.981,59.871,6.631,60.412,7.407,60.412z"/>
		</g>
		<g>
			<path fill="#5690CC" d="M4.215,60.408c0.775,0,1.426-0.539,1.594-1.264c0.029,0.117,0.043,0.242,0.043,0.373
				c0,0.902-0.732,1.637-1.637,1.637s-1.639-0.732-1.639-1.637c0-0.131,0.016-0.256,0.043-0.373
				C2.789,59.867,3.438,60.408,4.215,60.408z"/>
		</g>
		<g>
			<path fill="#AEC5E7" d="M80.84,61.113c0.775,0,1.426-0.539,1.594-1.264c0.029,0.119,0.043,0.244,0.043,0.373
				c0,0.904-0.732,1.639-1.637,1.639c-0.906,0-1.639-0.734-1.639-1.639c0-0.129,0.016-0.254,0.043-0.373
				C79.414,60.574,80.064,61.113,80.84,61.113z"/>
			<path fill="#AEC5E7" d="M77.646,61.117c0.775,0,1.426-0.539,1.596-1.264c0.025,0.119,0.041,0.244,0.041,0.373
				c0,0.904-0.732,1.639-1.637,1.639s-1.639-0.734-1.639-1.639c0-0.129,0.016-0.254,0.043-0.373
				C76.221,60.578,76.871,61.117,77.646,61.117z"/>
		</g>
		<g>
			<path fill="#AEC5E7" d="M74.455,61.113c0.775,0,1.426-0.539,1.594-1.264c0.029,0.119,0.043,0.244,0.043,0.373
				c0,0.904-0.732,1.639-1.637,1.639s-1.639-0.734-1.639-1.639c0-0.129,0.016-0.254,0.043-0.373
				C73.027,60.574,73.678,61.113,74.455,61.113z"/>
			<path fill="#AEC5E7" d="M71.26,61.117c0.777,0,1.426-0.539,1.596-1.264c0.027,0.119,0.043,0.244,0.043,0.373
				c0,0.904-0.732,1.639-1.639,1.639c-0.904,0-1.637-0.734-1.637-1.639c0-0.129,0.014-0.254,0.043-0.373
				C69.834,60.578,70.484,61.117,71.26,61.117z"/>
		</g>
		<g>
			<path fill="#AEC5E7" d="M68.088,61.113c0.775,0,1.426-0.539,1.594-1.264c0.029,0.119,0.043,0.244,0.043,0.373
				c0,0.904-0.732,1.639-1.637,1.639c-0.906,0-1.639-0.734-1.639-1.639c0-0.129,0.016-0.254,0.043-0.373
				C66.662,60.574,67.312,61.113,68.088,61.113z"/>
			<path fill="#AEC5E7" d="M64.895,61.117c0.775,0,1.426-0.539,1.594-1.264c0.027,0.119,0.043,0.244,0.043,0.373
				c0,0.904-0.732,1.639-1.637,1.639c-0.906,0-1.639-0.734-1.639-1.639c0-0.129,0.016-0.254,0.043-0.373
				C63.469,60.578,64.119,61.117,64.895,61.117z"/>
		</g>
		<g>
			<path fill="#AEC5E7" d="M61.703,61.113c0.775,0,1.426-0.539,1.594-1.264c0.029,0.119,0.043,0.244,0.043,0.373
				c0,0.904-0.732,1.639-1.637,1.639c-0.906,0-1.639-0.734-1.639-1.639c0-0.129,0.016-0.254,0.043-0.373
				C60.277,60.574,60.926,61.113,61.703,61.113z"/>
			<path fill="#AEC5E7" d="M58.508,61.117c0.777,0,1.426-0.539,1.596-1.264c0.027,0.119,0.043,0.244,0.043,0.373
				c0,0.904-0.732,1.639-1.639,1.639c-0.904,0-1.637-0.734-1.637-1.639c0-0.129,0.014-0.254,0.043-0.373
				C57.084,60.578,57.732,61.117,58.508,61.117z"/>
		</g>
		<g>
			<path fill="#AEC5E7" d="M55.316,61.113c0.775,0,1.428-0.539,1.596-1.264c0.027,0.119,0.043,0.244,0.043,0.373
				c0,0.904-0.732,1.639-1.639,1.639c-0.904,0-1.637-0.734-1.637-1.639c0-0.129,0.014-0.254,0.043-0.373
				C53.891,60.574,54.541,61.113,55.316,61.113z"/>
			<path fill="#AEC5E7" d="M52.123,61.117c0.775,0,1.426-0.539,1.596-1.264c0.027,0.119,0.043,0.244,0.043,0.373
				c0,0.904-0.734,1.639-1.639,1.639s-1.639-0.734-1.639-1.639c0-0.129,0.018-0.254,0.043-0.373
				C50.697,60.578,51.348,61.117,52.123,61.117z"/>
		</g>
		<g>
			<path fill="#AEC5E7" d="M48.932,61.113c0.775,0,1.426-0.539,1.594-1.264c0.029,0.119,0.043,0.244,0.043,0.373
				c0,0.904-0.732,1.639-1.637,1.639c-0.906,0-1.639-0.734-1.639-1.639c0-0.129,0.016-0.254,0.043-0.373
				C47.506,60.574,48.156,61.113,48.932,61.113z"/>
			<path fill="#AEC5E7" d="M45.738,61.117c0.775,0,1.426-0.539,1.596-1.264c0.025,0.119,0.043,0.244,0.043,0.373
				c0,0.904-0.734,1.639-1.639,1.639S44.1,61.131,44.1,60.227c0-0.129,0.016-0.254,0.043-0.373
				C44.312,60.578,44.961,61.117,45.738,61.117z"/>
		</g>
		<g>
			<path fill="#AEC5E7" d="M42.545,61.113c0.775,0,1.425-0.539,1.595-1.264c0.027,0.119,0.043,0.244,0.043,0.373
				c0,0.904-0.732,1.639-1.638,1.639c-0.904,0-1.637-0.734-1.637-1.639c0-0.129,0.016-0.254,0.043-0.373
				C41.122,60.574,41.77,61.113,42.545,61.113z"/>
			<path fill="#AEC5E7" d="M39.352,61.117c0.777,0,1.426-0.539,1.596-1.264c0.027,0.119,0.041,0.244,0.041,0.373
				c0,0.904-0.732,1.639-1.637,1.639s-1.637-0.734-1.637-1.639c0-0.129,0.014-0.254,0.043-0.373
				C37.926,60.578,38.577,61.117,39.352,61.117z"/>
		</g>
		<g>
			<path fill="#AEC5E7" d="M36.161,61.113c0.775,0,1.426-0.539,1.596-1.264c0.027,0.119,0.043,0.244,0.043,0.373
				c0,0.904-0.734,1.639-1.639,1.639s-1.639-0.734-1.639-1.639c0-0.129,0.016-0.254,0.043-0.373
				C34.735,60.574,35.385,61.113,36.161,61.113z"/>
			<path fill="#AEC5E7" d="M32.967,61.117c0.775,0,1.426-0.539,1.594-1.264c0.029,0.119,0.043,0.244,0.043,0.373
				c0,0.904-0.732,1.639-1.637,1.639c-0.906,0-1.639-0.734-1.639-1.639c0-0.129,0.016-0.254,0.043-0.373
				C31.542,60.578,32.19,61.117,32.967,61.117z"/>
		</g>
		<g>
			<path fill="#AEC5E7" d="M29.776,61.113c0.775,0,1.426-0.539,1.596-1.264c0.027,0.119,0.043,0.244,0.043,0.373
				c0,0.904-0.734,1.639-1.639,1.639s-1.639-0.734-1.639-1.639c0-0.129,0.016-0.254,0.043-0.373
				C28.35,60.574,29,61.113,29.776,61.113z"/>
			<path fill="#AEC5E7" d="M26.583,61.117c0.775,0,1.426-0.539,1.594-1.264c0.029,0.119,0.043,0.244,0.043,0.373
				c0,0.904-0.732,1.639-1.637,1.639c-0.906,0-1.639-0.734-1.639-1.639c0-0.129,0.016-0.254,0.043-0.373
				C25.155,60.578,25.805,61.117,26.583,61.117z"/>
		</g>
		<g>
			<path fill="#AEC5E7" d="M23.389,61.113c0.777,0,1.426-0.539,1.596-1.264c0.027,0.119,0.043,0.244,0.043,0.373
				c0,0.904-0.732,1.639-1.639,1.639c-0.904,0-1.637-0.734-1.637-1.639c0-0.129,0.014-0.254,0.043-0.373
				C21.963,60.574,22.614,61.113,23.389,61.113z"/>
			<path fill="#AEC5E7" d="M20.196,61.117c0.775,0,1.426-0.539,1.596-1.264c0.027,0.119,0.041,0.244,0.041,0.373
				c0,0.904-0.732,1.639-1.639,1.639c-0.902,0-1.637-0.734-1.637-1.639c0-0.129,0.016-0.254,0.043-0.373
				C18.77,60.578,19.42,61.117,20.196,61.117z"/>
		</g>
		<g>
			<path fill="#AEC5E7" d="M16.985,61.113c0.777,0,1.428-0.539,1.596-1.264c0.027,0.119,0.043,0.244,0.043,0.373
				c0,0.904-0.732,1.639-1.639,1.639c-0.904,0-1.637-0.734-1.637-1.639c0-0.129,0.016-0.254,0.043-0.373
				C15.559,60.574,16.209,61.113,16.985,61.113z"/>
			<path fill="#AEC5E7" d="M13.792,61.117c0.775,0,1.426-0.539,1.596-1.264c0.027,0.119,0.043,0.244,0.043,0.373
				c0,0.904-0.734,1.639-1.639,1.639s-1.638-0.734-1.638-1.639c0-0.129,0.015-0.254,0.043-0.373
				C12.367,60.578,13.016,61.117,13.792,61.117z"/>
		</g>
		<g>
			<path fill="#AEC5E7" d="M10.6,61.113c0.777,0,1.427-0.539,1.596-1.264c0.027,0.119,0.043,0.244,0.043,0.373
				c0,0.904-0.732,1.639-1.639,1.639c-0.904,0-1.637-0.734-1.637-1.639c0-0.129,0.014-0.254,0.043-0.373
				C9.174,60.574,9.825,61.113,10.6,61.113z"/>
			<path fill="#AEC5E7" d="M7.407,61.117c0.775,0,1.426-0.539,1.596-1.264c0.027,0.119,0.043,0.244,0.043,0.373
				c0,0.904-0.734,1.639-1.639,1.639s-1.639-0.734-1.639-1.639c0-0.129,0.016-0.254,0.043-0.373
				C5.981,60.578,6.631,61.117,7.407,61.117z"/>
		</g>
		<g>
			<path fill="#AEC5E7" d="M4.215,61.113c0.775,0,1.426-0.539,1.594-1.264c0.029,0.119,0.043,0.244,0.043,0.373
				c0,0.904-0.732,1.639-1.637,1.639s-1.639-0.734-1.639-1.639c0-0.129,0.016-0.254,0.043-0.373
				C2.789,60.574,3.438,61.113,4.215,61.113z"/>
		</g>
	</g>
	<g>
		<rect x="2.523" y="55.793" fill="#898888" width="50.055" height="0.998"/>
		<rect x="2.523" y="52.256" fill="#787777" width="50.055" height="3.537"/>
	</g>
	<g>
		<path fill="#E88A24" d="M51.721,41.148c0,0.057,0.045,0.102,0.102,0.102h6.256c0.057,0,0.102-0.045,0.102-0.102V37.91
			c0-0.057-0.045-0.102-0.102-0.102h-6.256c-0.057,0-0.102,0.045-0.102,0.102V41.148z"/>
		<path fill="#F5A741" d="M57.443,40.826c0,0.111,0.092,0.201,0.201,0.201l0,0c0.111,0,0.201-0.09,0.201-0.201V38.25
			c0-0.109-0.09-0.201-0.201-0.201l0,0c-0.109,0-0.201,0.092-0.201,0.201V40.826z"/>
		<path fill="#F5A741" d="M52.969,40.826c0,0.111,0.09,0.201,0.201,0.201l0,0c0.109,0,0.201-0.09,0.201-0.201V38.25
			c0-0.109-0.092-0.201-0.201-0.201l0,0c-0.111,0-0.201,0.092-0.201,0.201V40.826z"/>
		<path fill="#F5A741" d="M53.863,40.826c0,0.111,0.092,0.201,0.201,0.201l0,0c0.111,0,0.201-0.09,0.201-0.201V38.25
			c0-0.109-0.09-0.201-0.201-0.201l0,0c-0.109,0-0.201,0.092-0.201,0.201V40.826z"/>
		<path fill="#F5A741" d="M54.758,40.826c0,0.111,0.092,0.201,0.203,0.201l0,0c0.109,0,0.199-0.09,0.199-0.201V38.25
			c0-0.109-0.09-0.201-0.199-0.201l0,0c-0.111,0-0.203,0.092-0.203,0.201V40.826z"/>
		<path fill="#F5A741" d="M55.654,40.826c0,0.111,0.09,0.201,0.201,0.201l0,0c0.111,0,0.201-0.09,0.201-0.201V38.25
			c0-0.109-0.09-0.201-0.201-0.201l0,0c-0.111,0-0.201,0.092-0.201,0.201V40.826z"/>
		<path fill="#F5A741" d="M56.549,40.826c0,0.111,0.09,0.201,0.201,0.201l0,0c0.111,0,0.201-0.09,0.201-0.201V38.25
			c0-0.109-0.09-0.201-0.201-0.201l0,0c-0.111,0-0.201,0.092-0.201,0.201V40.826z"/>
		<path fill="#F5A741" d="M52.074,40.826c0,0.111,0.09,0.201,0.201,0.201l0,0c0.109,0,0.201-0.09,0.201-0.201V38.25
			c0-0.109-0.092-0.201-0.201-0.201l0,0c-0.111,0-0.201,0.092-0.201,0.201V40.826z"/>
	</g>
	<g>
		<path fill="#2694BB" d="M14.627,52.053c0,0.057-0.045,0.102-0.102,0.102H8.28c-0.055,0-0.1-0.045-0.1-0.102V48.82
			c0-0.057,0.045-0.102,0.1-0.102h6.246c0.057,0,0.102,0.045,0.102,0.102V52.053z"/>
		<path fill="#2AA9E1" d="M8.914,51.732c0,0.109-0.09,0.201-0.2,0.201l0,0c-0.111,0-0.201-0.092-0.201-0.201V49.16
			c0-0.109,0.09-0.199,0.201-0.199l0,0c0.11,0,0.2,0.09,0.2,0.199V51.732z"/>
		<path fill="#2AA9E1" d="M13.383,51.732c0,0.109-0.09,0.201-0.201,0.201l0,0c-0.111,0-0.201-0.092-0.201-0.201V49.16
			c0-0.109,0.09-0.199,0.201-0.199l0,0c0.111,0,0.201,0.09,0.201,0.199V51.732z"/>
		<path fill="#2AA9E1" d="M12.489,51.732c0,0.109-0.09,0.201-0.201,0.201l0,0c-0.111,0-0.201-0.092-0.201-0.201V49.16
			c0-0.109,0.09-0.199,0.201-0.199l0,0c0.111,0,0.201,0.09,0.201,0.199V51.732z"/>
		<path fill="#2AA9E1" d="M11.594,51.732c0,0.109-0.09,0.201-0.201,0.201l0,0c-0.11,0-0.2-0.092-0.2-0.201V49.16
			c0-0.109,0.09-0.199,0.2-0.199l0,0c0.111,0,0.201,0.09,0.201,0.199V51.732z"/>
		<path fill="#2AA9E1" d="M10.702,51.732c0,0.109-0.09,0.201-0.201,0.201l0,0c-0.111,0-0.201-0.092-0.201-0.201V49.16
			c0-0.109,0.09-0.199,0.201-0.199l0,0c0.111,0,0.201,0.09,0.201,0.199V51.732z"/>
		<path fill="#2AA9E1" d="M9.807,51.732c0,0.109-0.09,0.201-0.2,0.201l0,0c-0.111,0-0.201-0.092-0.201-0.201V49.16
			c0-0.109,0.09-0.199,0.201-0.199l0,0c0.11,0,0.2,0.09,0.2,0.199V51.732z"/>
		<path fill="#2AA9E1" d="M14.276,51.732c0,0.109-0.09,0.201-0.199,0.201l0,0c-0.111,0-0.201-0.092-0.201-0.201V49.16
			c0-0.109,0.09-0.199,0.201-0.199l0,0c0.109,0,0.199,0.09,0.199,0.199V51.732z"/>
	</g>
	<g>
		<g>
			<path fill="#E85553" d="M18.176,51.898c0,0.113-0.092,0.207-0.207,0.207h-3.041c-0.115,0-0.207-0.094-0.207-0.207v-3.041
				c0-0.115,0.092-0.207,0.207-0.207h3.041c0.115,0,0.207,0.092,0.207,0.207V51.898z"/>
			<g>
				<path fill="#F1A0AC" d="M17.733,49.76c0.111,0,0.201,0.09,0.201,0.199l0,0c0,0.111-0.09,0.201-0.201,0.201h-2.57
					c-0.111,0-0.201-0.09-0.201-0.201l0,0c0-0.109,0.09-0.199,0.201-0.199H17.733z"/>
				<path fill="#F1A0AC" d="M17.733,50.59c0.111,0,0.201,0.092,0.201,0.201l0,0c0,0.111-0.09,0.201-0.201,0.201h-2.57
					c-0.111,0-0.201-0.09-0.201-0.201l0,0c0-0.109,0.09-0.201,0.201-0.201H17.733L17.733,50.59z"/>
				<path fill="#F1A0AC" d="M17.733,51.422c0.111,0,0.201,0.092,0.201,0.201l0,0c0,0.111-0.09,0.201-0.201,0.201h-2.57
					c-0.111,0-0.201-0.09-0.201-0.201l0,0c0-0.109,0.09-0.201,0.201-0.201H17.733z"/>
				<path fill="#F1A0AC" d="M17.733,48.928c0.111,0,0.201,0.09,0.201,0.201l0,0c0,0.109-0.09,0.201-0.201,0.201h-2.57
					c-0.111,0-0.201-0.092-0.201-0.201l0,0c0-0.111,0.09-0.201,0.201-0.201H17.733z"/>
			</g>
		</g>
		<path fill="#FCE3E8" d="M15.573,48.654c0-0.023,0.021-0.043,0.045-0.043h0.004c0.023,0,0.043,0.02,0.043,0.043V52.1
			c0,0.023-0.021,0.045-0.043,0.045h-0.004c-0.025,0-0.045-0.021-0.045-0.045V48.654z"/>
		<path fill="#FCE3E8" d="M16.403,48.654c0-0.023,0.021-0.043,0.043-0.043h0.006c0.023,0,0.043,0.02,0.043,0.043V52.1
			c0,0.023-0.021,0.045-0.043,0.045h-0.006c-0.023,0-0.043-0.021-0.043-0.045V48.654z"/>
		<path fill="#FCE3E8" d="M15.551,49.109c0-0.025,0.02-0.045,0.043-0.045h0.891c0.023,0,0.043,0.02,0.043,0.045v0.004
			c0,0.021-0.02,0.043-0.043,0.043h-0.891c-0.023,0-0.043-0.021-0.043-0.043V49.109z"/>
		<path fill="#FCE3E8" d="M15.551,49.619c0-0.021,0.02-0.043,0.043-0.043h0.891c0.023,0,0.043,0.021,0.043,0.043v0.004
			c0,0.025-0.02,0.045-0.043,0.045h-0.891c-0.023,0-0.043-0.02-0.043-0.045V49.619z"/>
		<path fill="#FCE3E8" d="M15.551,50.143c0-0.023,0.02-0.043,0.043-0.043h0.891c0.023,0,0.043,0.02,0.043,0.043v0.004
			c0,0.023-0.02,0.045-0.043,0.045h-0.891c-0.023,0-0.043-0.021-0.043-0.045V50.143z"/>
		<path fill="#FCE3E8" d="M15.551,50.676c0-0.021,0.02-0.043,0.043-0.043h0.891c0.023,0,0.043,0.021,0.043,0.043v0.006
			c0,0.023-0.02,0.043-0.043,0.043h-0.891c-0.023,0-0.043-0.02-0.043-0.043V50.676z"/>
		<path fill="#FCE3E8" d="M15.551,51.199c0-0.023,0.02-0.043,0.043-0.043h0.891c0.023,0,0.043,0.02,0.043,0.043v0.004
			c0,0.023-0.02,0.043-0.043,0.043h-0.891c-0.023,0-0.043-0.02-0.043-0.043V51.199z"/>
		<path fill="#FCE3E8" d="M15.551,51.711c0-0.023,0.02-0.045,0.043-0.045h0.891c0.023,0,0.043,0.021,0.043,0.045v0.004
			c0,0.023-0.02,0.043-0.043,0.043h-0.891c-0.023,0-0.043-0.02-0.043-0.043V51.711z"/>
	</g>
	<g>
		<g>
			<path fill="#E88A24" d="M21.649,51.898c0,0.113-0.092,0.207-0.205,0.207h-3.043c-0.113,0-0.205-0.094-0.205-0.207v-3.041
				c0-0.115,0.092-0.207,0.205-0.207h3.043c0.113,0,0.205,0.092,0.205,0.207V51.898z"/>
			<g>
				<g>
					<path fill="#F5A741" d="M21.208,49.76c0.111,0,0.201,0.09,0.201,0.199l0,0c0,0.111-0.09,0.201-0.201,0.201h-2.57
						c-0.111,0-0.201-0.09-0.201-0.201l0,0c0-0.109,0.09-0.199,0.201-0.199H21.208z"/>
				</g>
				<g>
					<path fill="#F5A741" d="M21.208,50.59c0.111,0,0.201,0.092,0.201,0.201l0,0c0,0.111-0.09,0.201-0.201,0.201h-2.57
						c-0.111,0-0.201-0.09-0.201-0.201l0,0c0-0.109,0.09-0.201,0.201-0.201H21.208L21.208,50.59z"/>
				</g>
				<g>
					<path fill="#F5A741" d="M21.208,51.422c0.111,0,0.201,0.092,0.201,0.201l0,0c0,0.111-0.09,0.201-0.201,0.201h-2.57
						c-0.111,0-0.201-0.09-0.201-0.201l0,0c0-0.109,0.09-0.201,0.201-0.201H21.208z"/>
				</g>
				<g>
					<path fill="#F5A741" d="M21.208,48.928c0.111,0,0.201,0.09,0.201,0.201l0,0c0,0.109-0.09,0.201-0.201,0.201h-2.57
						c-0.111,0-0.201-0.092-0.201-0.201l0,0c0-0.111,0.09-0.201,0.201-0.201H21.208z"/>
				</g>
			</g>
		</g>
		<path fill="#FCE3E8" d="M19.049,48.654c0-0.023,0.02-0.043,0.045-0.043h0.002c0.025,0,0.043,0.02,0.043,0.043V52.1
			c0,0.023-0.02,0.045-0.043,0.045h-0.002c-0.025,0-0.045-0.021-0.045-0.045V48.654z"/>
		<path fill="#FCE3E8" d="M19.879,48.654c0-0.023,0.02-0.043,0.043-0.043h0.004c0.025,0,0.043,0.02,0.043,0.043V52.1
			c0,0.023-0.02,0.045-0.043,0.045h-0.004c-0.023,0-0.043-0.021-0.043-0.045V48.654z"/>
		<path fill="#FCE3E8" d="M19.016,49.109c0-0.025,0.021-0.045,0.043-0.045h0.891c0.023,0,0.045,0.02,0.045,0.045v0.004
			c0,0.021-0.021,0.043-0.045,0.043h-0.891c-0.023,0-0.043-0.021-0.043-0.043V49.109z"/>
		<path fill="#FCE3E8" d="M19.016,49.619c0-0.021,0.021-0.043,0.043-0.043h0.891c0.023,0,0.045,0.021,0.045,0.043v0.004
			c0,0.025-0.021,0.045-0.045,0.045h-0.891c-0.023,0-0.043-0.02-0.043-0.045V49.619z"/>
		<path fill="#FCE3E8" d="M19.016,50.143c0-0.023,0.021-0.043,0.043-0.043h0.891c0.023,0,0.045,0.02,0.045,0.043v0.004
			c0,0.023-0.021,0.045-0.045,0.045h-0.891c-0.023,0-0.043-0.021-0.043-0.045V50.143z"/>
		<path fill="#FCE3E8" d="M19.016,50.676c0-0.021,0.021-0.043,0.043-0.043h0.891c0.023,0,0.045,0.021,0.045,0.043v0.006
			c0,0.023-0.021,0.043-0.045,0.043h-0.891c-0.023,0-0.043-0.02-0.043-0.043V50.676z"/>
		<path fill="#FCE3E8" d="M19.016,51.199c0-0.023,0.021-0.043,0.043-0.043h0.891c0.023,0,0.045,0.02,0.045,0.043v0.004
			c0,0.023-0.021,0.043-0.045,0.043h-0.891c-0.023,0-0.043-0.02-0.043-0.043V51.199z"/>
		<path fill="#FCE3E8" d="M19.016,51.711c0-0.023,0.021-0.045,0.043-0.045h0.891c0.023,0,0.045,0.021,0.045,0.045v0.004
			c0,0.023-0.021,0.043-0.045,0.043h-0.891c-0.023,0-0.043-0.02-0.043-0.043V51.711z"/>
	</g>
	<g>
		<g>
			<path fill="#949292" d="M18.206,48.424c0,0.113-0.094,0.207-0.207,0.207h-3.041c-0.115,0-0.207-0.094-0.207-0.207v-3.041
				c0-0.113,0.092-0.207,0.207-0.207h3.041c0.113,0,0.207,0.094,0.207,0.207V48.424z"/>
			<g>
				<g>
					<path fill="#C9C7C7" d="M17.764,46.285c0.111,0,0.201,0.09,0.201,0.201l0,0c0,0.111-0.09,0.201-0.201,0.201h-2.572
						c-0.109,0-0.199-0.09-0.199-0.201l0,0c0-0.111,0.09-0.201,0.199-0.201H17.764z"/>
				</g>
				<g>
					<path fill="#C9C7C7" d="M17.764,47.117c0.111,0,0.201,0.09,0.201,0.201l0,0c0,0.109-0.09,0.199-0.201,0.199h-2.572
						c-0.109,0-0.199-0.09-0.199-0.199l0,0c0-0.111,0.09-0.201,0.199-0.201H17.764z"/>
				</g>
				<g>
					<path fill="#C9C7C7" d="M17.764,47.949c0.111,0,0.201,0.09,0.201,0.199l0,0c0,0.111-0.09,0.201-0.201,0.201h-2.572
						c-0.109,0-0.199-0.09-0.199-0.201l0,0c0-0.109,0.09-0.199,0.199-0.199H17.764z"/>
				</g>
				<g>
					<path fill="#C9C7C7" d="M17.764,45.453c0.111,0,0.201,0.09,0.201,0.201l0,0c0,0.111-0.09,0.201-0.201,0.201h-2.572
						c-0.109,0-0.199-0.09-0.199-0.201l0,0c0-0.111,0.09-0.201,0.199-0.201H17.764z"/>
				</g>
			</g>
		</g>
		<path fill="#FCE3E8" d="M15.608,45.189c0-0.023,0.02-0.043,0.043-0.043h0.004c0.023,0,0.043,0.02,0.043,0.043v3.445
			c0,0.025-0.02,0.045-0.043,0.045h-0.004c-0.023,0-0.043-0.02-0.043-0.045V45.189z"/>
		<path fill="#FCE3E8" d="M16.438,45.189c0-0.023,0.02-0.043,0.043-0.043h0.004c0.023,0,0.043,0.02,0.043,0.043v3.445
			c0,0.025-0.02,0.045-0.043,0.045h-0.004c-0.023,0-0.043-0.02-0.043-0.045V45.189z"/>
		<path fill="#FCE3E8" d="M15.573,45.633c0-0.023,0.021-0.045,0.045-0.045h0.889c0.023,0,0.043,0.021,0.043,0.045v0.004
			c0,0.023-0.02,0.045-0.043,0.045h-0.889c-0.025,0-0.045-0.021-0.045-0.045V45.633z"/>
		<path fill="#FCE3E8" d="M15.573,46.154c0-0.023,0.021-0.043,0.045-0.043h0.889c0.023,0,0.043,0.02,0.043,0.043v0.004
			c0,0.025-0.02,0.045-0.043,0.045h-0.889c-0.025,0-0.045-0.02-0.045-0.045V46.154z"/>
		<path fill="#FCE3E8" d="M15.573,46.666c0-0.023,0.021-0.043,0.045-0.043h0.889c0.023,0,0.043,0.02,0.043,0.043v0.004
			c0,0.023-0.02,0.043-0.043,0.043h-0.889c-0.025,0-0.045-0.02-0.045-0.043V46.666z"/>
		<path fill="#FCE3E8" d="M15.573,47.201c0-0.025,0.021-0.045,0.045-0.045h0.889c0.023,0,0.043,0.02,0.043,0.045v0.002
			c0,0.025-0.02,0.045-0.043,0.045h-0.889c-0.025,0-0.045-0.02-0.045-0.045V47.201z"/>
		<path fill="#FCE3E8" d="M15.573,47.725c0-0.025,0.021-0.045,0.045-0.045h0.889c0.023,0,0.043,0.02,0.043,0.045v0.004
			c0,0.021-0.02,0.043-0.043,0.043h-0.889c-0.025,0-0.045-0.021-0.045-0.043V47.725z"/>
		<path fill="#FCE3E8" d="M15.573,48.246c0-0.023,0.021-0.045,0.045-0.045h0.889c0.023,0,0.043,0.021,0.043,0.045v0.002
			c0,0.025-0.02,0.045-0.043,0.045h-0.889c-0.025,0-0.045-0.02-0.045-0.045V48.246z"/>
	</g>
	<g>
		<path fill="#2694BB" d="M25.219,48.488c0,0.051-0.041,0.09-0.09,0.09h-5.531c-0.049,0-0.088-0.039-0.088-0.09v-2.863
			c0-0.049,0.039-0.088,0.088-0.088h5.531c0.049,0,0.09,0.039,0.09,0.088V48.488z"/>
		<path fill="#2AA9E1" d="M20.161,48.205c0,0.098-0.08,0.178-0.18,0.178l0,0c-0.098,0-0.178-0.08-0.178-0.178v-2.277
			c0-0.098,0.08-0.178,0.178-0.178l0,0c0.1,0,0.18,0.08,0.18,0.178V48.205z"/>
		<path fill="#2AA9E1" d="M24.118,48.205c0,0.098-0.08,0.178-0.18,0.178l0,0c-0.098,0-0.178-0.08-0.178-0.178v-2.277
			c0-0.098,0.08-0.178,0.178-0.178l0,0c0.1,0,0.18,0.08,0.18,0.178V48.205z"/>
		<path fill="#2AA9E1" d="M23.325,48.205c0,0.098-0.08,0.178-0.178,0.178l0,0c-0.098,0-0.178-0.08-0.178-0.178v-2.277
			c0-0.098,0.08-0.178,0.178-0.178l0,0c0.098,0,0.178,0.08,0.178,0.178V48.205z"/>
		<path fill="#2AA9E1" d="M22.534,48.205c0,0.098-0.08,0.178-0.178,0.178l0,0c-0.098,0-0.178-0.08-0.178-0.178v-2.277
			c0-0.098,0.08-0.178,0.178-0.178l0,0c0.098,0,0.178,0.08,0.178,0.178V48.205z"/>
		<path fill="#2AA9E1" d="M21.743,48.205c0,0.098-0.08,0.178-0.178,0.178l0,0c-0.098,0-0.178-0.08-0.178-0.178v-2.277
			c0-0.098,0.08-0.178,0.178-0.178l0,0c0.098,0,0.178,0.08,0.178,0.178V48.205z"/>
		<path fill="#2AA9E1" d="M20.952,48.205c0,0.098-0.08,0.178-0.18,0.178l0,0c-0.098,0-0.178-0.08-0.178-0.178v-2.277
			c0-0.098,0.08-0.178,0.178-0.178l0,0c0.1,0,0.18,0.08,0.18,0.178V48.205z"/>
		<path fill="#2AA9E1" d="M24.907,48.205c0,0.098-0.078,0.178-0.178,0.178l0,0c-0.098,0-0.178-0.08-0.178-0.178v-2.277
			c0-0.098,0.08-0.178,0.178-0.178l0,0c0.1,0,0.178,0.08,0.178,0.178V48.205z"/>
	</g>
	<g>
		<g>
			<path fill="#404F52" d="M7.582,50.199v-5.73h0.673v5.73v0.055c-0.004,0.002-0.007,0.006-0.009,0.008
				c-0.167,0.145-0.349,0.391-0.411,0.799c-0.002,0.006-0.003,0.014-0.004,0.02H4.246v-0.881H7.582L7.582,50.199z"/>
			<path fill="#404F52" d="M8.52,50.199h0.021v0.037c-0.007,0.006-0.014,0.012-0.021,0.018V50.199z"/>
			<path fill="#404F52" d="M8.52,50.262H8.512c0.002-0.002,0.004-0.006,0.008-0.008V50.262z"/>
		</g>
		<g>
			<path fill="#404F52" d="M9.137,49.609l1.225-1.068c0.059-0.053,0.166-0.025,0.238,0.059l0.246,0.279
				c0.072,0.084,0.084,0.193,0.024,0.246l-0.937,0.816L9.137,49.609L9.137,49.609z"/>
		</g>
		<path fill="#404F52" d="M13.262,48.918h-1.28c0,0-1.427,0.084-1.427,0.986s0.713,0.355,0.713,0.355h1.406l0.775-0.439l0.398-0.545
			L13.262,48.918z"/>
		<path fill="#404F52" d="M13.01,49.783c0,0.08,0.062,0.143,0.141,0.143h0.348c0.078,0,0.141-0.062,0.141-0.143v-2.381
			c0-0.078-0.062-0.143-0.141-0.143h-0.348c-0.078,0-0.141,0.064-0.141,0.143V49.783z"/>
		<path fill="#D94735" d="M9.254,49.947c0.01-0.023,1.032-2.121,1.449-3.1c0.184-0.432,0.389-0.637,0.529-0.732
			c0.13-0.088,0.225-0.102,0.244-0.104h0.006h-0.004l0,0h2.15c0.148,0,0.258,0.035,0.322,0.105c0.096,0.104,0.088,0.266,0.088,0.281
			l-0.002,0.014v0.008v2.52h0.461v-2.51c0.006-0.074,0.012-0.383-0.205-0.619c-0.156-0.172-0.379-0.26-0.666-0.26h-2.15
			c-0.041-0.002-0.225,0.008-0.457,0.152c-0.299,0.186-0.549,0.51-0.741,0.963c-0.413,0.971-1.495,3.221-1.506,3.242L9.254,49.947z"
			/>
		<path fill="#404F52" d="M13.211,51.16c0,0.111,0.016,0.221,0.047,0.322c0.139,0.451,0.559,0.777,1.055,0.777
			c0.607,0,1.102-0.492,1.102-1.102c0-0.379-0.191-0.713-0.484-0.912c-0.176-0.119-0.389-0.188-0.617-0.188
			C13.704,50.059,13.211,50.551,13.211,51.16z M13.901,51.482c-0.068-0.09-0.111-0.201-0.111-0.322c0-0.289,0.234-0.521,0.521-0.521
			c0.289,0,0.523,0.232,0.523,0.521c0,0.121-0.043,0.232-0.111,0.322c-0.096,0.121-0.244,0.199-0.412,0.199
			C14.145,51.684,13.997,51.605,13.901,51.482z"/>
		<path fill="#404F52" d="M8.481,51.25c0,0.559,0.453,1.012,1.012,1.012c0.514,0,0.938-0.383,1.003-0.879
			c0.007-0.045,0.009-0.088,0.009-0.133c0-0.561-0.453-1.014-1.012-1.014c-0.113,0-0.225,0.02-0.326,0.055
			c-0.074,0.025-0.146,0.061-0.212,0.102c-0.263,0.166-0.444,0.449-0.47,0.777C8.482,51.195,8.481,51.223,8.481,51.25z M9.094,51.25
			c0-0.086,0.027-0.164,0.072-0.229c0.072-0.104,0.191-0.17,0.326-0.17c0.221,0,0.398,0.178,0.398,0.396
			c0,0.047-0.008,0.092-0.022,0.133c-0.056,0.154-0.202,0.268-0.375,0.268C9.273,51.648,9.094,51.469,9.094,51.25z"/>
		<path fill="#E87427" d="M12.946,51.562h-2.119l-0.021-0.818l-0.461-0.629l-1.09-0.293h3.797l0.504-1.029h1.301
			c0,0,0.379,0.084,0.379,1.322l-0.441-0.146l-0.461-0.104h-0.525l-0.48,0.355l-0.314,0.775L12.946,51.562z"/>
		<g>
			<path fill="#D94735" d="M15.194,50.373c-0.238-0.25-0.557-0.389-0.895-0.389c-0.336,0-0.654,0.139-0.895,0.389
				c-0.238,0.25-0.369,0.584-0.369,0.939c0,0.129,0.018,0.256,0.053,0.377h-0.246c-0.027-0.121-0.043-0.248-0.043-0.377
				c0-0.869,0.672-1.574,1.5-1.574c0.795,0,1.445,0.646,1.498,1.469h-0.238C15.538,50.893,15.409,50.6,15.194,50.373z"/>
		</g>
		<g>
			<path fill="#D94735" d="M10.616,50.775c-0.127-0.322-0.37-0.568-0.682-0.695c-0.313-0.127-0.659-0.119-0.975,0.023
				c-0.314,0.143-0.562,0.4-0.695,0.729c-0.049,0.121-0.08,0.244-0.094,0.369l-0.227-0.092c0.02-0.123,0.053-0.246,0.102-0.365
				c0.327-0.807,1.215-1.207,1.982-0.895c0.736,0.299,1.095,1.145,0.835,1.924l-0.22-0.09
				C10.739,51.385,10.731,51.064,10.616,50.775z"/>
		</g>
		<path fill="#404F52" d="M11.315,48.143l-0.28-0.328c-0.04-0.047-0.034-0.115,0.013-0.156l0.043-0.037
			c0.045-0.039,0.115-0.033,0.155,0.014l0.644,0.754c0.041,0.045,0.035,0.115-0.012,0.154l-0.043,0.037
			c-0.046,0.039-0.115,0.035-0.156-0.012l-0.279-0.328l-0.747,0.639l-0.084-0.098L11.315,48.143z"/>
	</g>
</g>
</svg>
