<?xml version="1.0" encoding="utf-8"?>
<!-- Generator: Adobe Illustrator 16.0.0, SVG Export Plug-In . SVG Version: 6.00 Build 0)  -->
<!DOCTYPE svg PUBLIC "-//W3C//DTD SVG 1.1//EN" "http://www.w3.org/Graphics/SVG/1.1/DTD/svg11.dtd">
<svg version="1.1" id="Layer_1" xmlns="http://www.w3.org/2000/svg" xmlns:xlink="http://www.w3.org/1999/xlink" x="0px" y="0px"
	 width="85px" height="85px" viewBox="0 0 85 85" enable-background="new 0 0 85 85" xml:space="preserve">
<g>
	<path fill="#9F5757" d="M10.735,10.2h45.199c2.102,0,3.898,1.7,3.898,3.899v64.5c0,2.102-1.699,3.9-3.898,3.9H10.735
		c-2.101,0-3.9-1.701-3.9-3.9V14.1C6.835,12,8.635,10.2,10.735,10.2z"/>
	<circle fill="#FF78C7" cx="33.335" cy="5.7" r="3.2"/>
	<rect x="12.034" y="15.4" fill="#ECECEC" width="42.6" height="61.898"/>
	<path fill="#979797" d="M41.335,37h-9.699v-2h9.699V37z M28.435,37h-9.699v-2h9.699V37z M36.235,31.9h-17.5v-2h17.5V31.9z
		 M45.235,26.7h-26.5v-2h26.5V26.7z"/>
	<g transform="rotate(-45 71.724 -16.96)">
		<rect x="2.358" y="16.414" fill="#325AA6" width="33.502" height="7.699"/>
		<rect x="35.859" y="17.614" fill="#5EA7FF" width="5.201" height="5.2"/>
		<path fill="#325AA6" d="M-5.142,21.213l0.001-1.998l8.499,0v2l-8.499,0L-5.142,21.213z M21.96,27.715v-2l10.399-0.003v-2.599l2,0
			l-0.001,4.6L21.96,27.715z"/>
	</g>
	<path fill="#FF78C7" d="M19.735,11.5c0-2.899,2.299-5.201,5.199-5.201h16.801c2.898,0,5.199,2.302,5.199,5.201v5.199h-27.1V11.5
		H19.735z"/>
	<path fill="#325AA6" d="M36.735,67.5c-2,0-3.5-1.9-4.5-3.602l-2.701,2.301c-0.299,0.301-0.699,0.301-1.1,0.199
		c-0.4-0.199-0.6-0.5-0.6-0.898c0-0.701-0.301-2.5-1.1-3.4c-0.4,0.301-1.201,1.5-1.602,2.699V64.9c-0.199,0.5-0.799,0.801-1.299,0.6
		c-0.5-0.199-0.801-0.799-0.6-1.299c0,0,0-0.102,0.1-0.102c0.799-2,1.5-5,1.199-6.5c-1,1.102-2.799,4.602-4.1,7.699
		c-0.199,0.5-0.801,0.801-1.301,0.5c-0.5-0.199-0.799-0.799-0.5-1.299c2.5-6,4.5-9.1,6.102-9.201c0.6,0,1.1,0.301,1.398,0.801
		c0.602,1,0.602,2.5,0.4,4l0,0c0.6-0.1,1.1,0,1.6,0.5c0.9,0.801,1.301,2,1.5,3l2.301-2c0.199-0.199,0.6-0.301,0.9-0.199
		c0.299,0.1,0.6,0.301,0.699,0.6c0.4,1.102,1.9,4,3.6,3.5c0.5-0.199,1.102,0.1,1.301,0.701c0.199,0.5-0.1,1.1-0.699,1.299
		C37.435,67.5,37.034,67.5,36.735,67.5z"/>
</g>
</svg>
