<?xml version="1.0" encoding="utf-8"?>
<!-- Generator: Adobe Illustrator 16.0.0, SVG Export Plug-In . SVG Version: 6.00 Build 0)  -->
<!DOCTYPE svg PUBLIC "-//W3C//DTD SVG 1.1//EN" "http://www.w3.org/Graphics/SVG/1.1/DTD/svg11.dtd">
<svg version="1.1" id="Layer_1" xmlns="http://www.w3.org/2000/svg" xmlns:xlink="http://www.w3.org/1999/xlink" x="0px" y="0px"
	 width="85px" height="85px" viewBox="0 0 85 85" enable-background="new 0 0 85 85" xml:space="preserve">
<g>
	<path fill="#66BB6A" d="M80.381,30.98c-1.277-0.721-2.883-0.641-4.08,0.199L70.5,35.02l-2.002,1.52c-1.719-0.799-3.879-1.6-6-2.398
		V26.5c0-2.199-1.799-4-3.998-4c-4.199,0-7.359,1.199-9.279,3.52c-0.916,0.961-1.562,2.16-2,3.52
		C39.18,27.779,29.661,26.5,18.5,26.5c-7.52,0-15,5.279-15.92,5.92C2.541,32.461,2.5,32.5,2.5,32.5l8,10l-6.4,6.4
		c3.24,5.561,10.4,5.6,10.4,5.6h8v4c0,1.602,0.96,3.08,2.48,3.682c0.479,0.238,1,0.318,1.52,0.318c1.04,0,2.08-0.398,2.84-1.158
		l6.801-6.842H38.5c2.961,0,5.839-0.238,8.679-0.641c1.479,5.4,5.52,8.641,11.32,8.641c2.199,0,3.998-1.801,3.998-4
		c0,0-0.037-8.318-0.078-8.479l6.078-1.521l7.803,5.32c0.639,0.439,1.438,0.68,2.199,0.68c0.641,0,1.279-0.158,1.881-0.479
		c1.318-0.68,2.119-2.041,2.119-3.521v-16C82.5,33.02,81.699,31.66,80.381,30.98z"/>
	<path opacity="0.2" enable-background="new    " d="M68.498,36.539V42.5H10.5l-8-10c0,0,0.04-0.039,0.08-0.08
		c0.92-0.641,8.399-5.92,15.92-5.92c11.16,0,20.681,1.279,28.719,3.039c5.92,1.32,11.041,2.961,15.279,4.602
		C64.619,34.939,66.779,35.74,68.498,36.539z"/>
	<path opacity="0.3" enable-background="new    " d="M19.5,32.5c0,1.656-1.344,3-3,3s-3-1.344-3-3s1.344-3,3-3
		S19.5,30.844,19.5,32.5z M62.424,50.039c0.02,0.156,0.066,0.303,0.066,0.461v8c0,2.213-1.787,4-4,4
		c-5.799,0-9.836-3.23-11.328-8.645C52.736,53.072,57.924,51.637,62.424,50.039z M36.157,54.5l-6.828,6.828
		C28.565,62.094,27.541,62.5,26.5,62.5c-0.516,0-1.036-0.096-1.532-0.305C23.477,61.58,22.5,60.115,22.5,58.5v-4H36.157z M82.5,34.5
		v16c0,1.477-0.812,2.832-2.111,3.527c-0.592,0.316-1.24,0.473-1.889,0.473c-0.775,0-1.553-0.229-2.221-0.672L68.498,48.5V36.539
		l7.781-5.367c1.229-0.82,2.809-0.896,4.104-0.199C81.688,31.668,82.5,33.023,82.5,34.5z M58.5,22.5c-6,0-9.801,2.439-11.279,7.039
		c5.92,1.32,11.039,2.961,15.277,4.602V26.5C62.498,24.301,60.699,22.5,58.5,22.5z"/>
</g>
</svg>
