<?xml version="1.0" encoding="utf-8"?>
<!-- Generator: Adobe Illustrator 16.0.0, SVG Export Plug-In . SVG Version: 6.00 Build 0)  -->
<!DOCTYPE svg PUBLIC "-//W3C//DTD SVG 1.1//EN" "http://www.w3.org/Graphics/SVG/1.1/DTD/svg11.dtd">
<svg version="1.1" id="Layer_1" xmlns="http://www.w3.org/2000/svg" xmlns:xlink="http://www.w3.org/1999/xlink" x="0px" y="0px"
	 width="85px" height="85px" viewBox="0 0 85 85" enable-background="new 0 0 85 85" xml:space="preserve">
<g>
	<g>
		<path fill="#E6E6E6" d="M57.979,21.346c0,2.09-1.678,3.785-3.746,3.785H30.765c-2.068,0-3.746-1.695-3.746-3.785v-1.01
			c0-2.092,1.678-3.787,3.746-3.787h23.469c2.068,0,3.746,1.695,3.746,3.787V21.346L57.979,21.346z"/>
	</g>
	<path fill="#78B591" d="M26.048,18.461c-1.289,0-2.332-1.055-2.332-2.354V9.748c0-3.244,2.617-5.885,5.832-5.885h25.9
		c3.217,0,5.834,2.641,5.834,5.885v6.359c0,1.299-1.045,2.354-2.334,2.354H26.048z"/>
	<path fill="#D4EBE9" d="M63.022,77.248c0,2.148-1.723,3.891-3.848,3.891H25.823c-2.125,0-3.848-1.742-3.848-3.891V27.98
		c0-2.148,1.723-3.891,3.848-3.891h33.352c2.125,0,3.848,1.742,3.848,3.891V77.248L63.022,77.248z"/>
	<rect x="27.106" y="48.207" fill="#666666" width="30.787" height="27.746"/>
	<g>
		<path fill="#4D4D4D" d="M36.896,54.703h2.014c0.752,0,1.363-0.611,1.363-1.363s-0.611-1.361-1.363-1.361h-2.014
			c-0.752,0-1.361,0.609-1.361,1.361S36.144,54.703,36.896,54.703z"/>
		<path fill="#4D4D4D" d="M46.087,54.703h2.016c0.752,0,1.361-0.611,1.361-1.363s-0.609-1.361-1.361-1.361h-2.016
			c-0.752,0-1.361,0.609-1.361,1.361S45.335,54.703,46.087,54.703z"/>
		<path fill="#4D4D4D" d="M32.214,60.674h2.014c0.752,0,1.361-0.609,1.361-1.361s-0.609-1.361-1.361-1.361h-2.014
			c-0.752,0-1.361,0.609-1.361,1.361S31.462,60.674,32.214,60.674z"/>
		<path fill="#4D4D4D" d="M41.405,60.674h2.014c0.752,0,1.363-0.609,1.363-1.361s-0.611-1.361-1.363-1.361h-2.014
			c-0.752,0-1.361,0.609-1.361,1.361S40.653,60.674,41.405,60.674z"/>
		<path fill="#4D4D4D" d="M50.599,60.674h2.014c0.752,0,1.361-0.609,1.361-1.361s-0.609-1.361-1.361-1.361h-2.014
			c-0.754,0-1.363,0.609-1.363,1.361S49.845,60.674,50.599,60.674z"/>
		<path fill="#4D4D4D" d="M38.909,63.684h-2.014c-0.752,0-1.361,0.609-1.361,1.361s0.609,1.363,1.361,1.363h2.014
			c0.752,0,1.363-0.611,1.363-1.363S39.661,63.684,38.909,63.684z"/>
		<path fill="#4D4D4D" d="M48.103,63.684h-2.016c-0.752,0-1.361,0.609-1.361,1.361s0.609,1.363,1.361,1.363h2.016
			c0.752,0,1.361-0.611,1.361-1.363S48.854,63.684,48.103,63.684z"/>
		<path fill="#4D4D4D" d="M34.229,69.656h-2.016c-0.752,0-1.361,0.609-1.361,1.361c0,0.754,0.609,1.361,1.361,1.361h2.016
			c0.752,0,1.361-0.607,1.361-1.361C35.591,70.266,34.981,69.656,34.229,69.656z"/>
		<path fill="#4D4D4D" d="M43.419,69.656h-2.014c-0.752,0-1.361,0.609-1.361,1.361c0,0.754,0.609,1.361,1.361,1.361h2.014
			c0.752,0,1.363-0.607,1.363-1.361C44.782,70.266,44.171,69.656,43.419,69.656z"/>
		<path fill="#4D4D4D" d="M52.612,69.656h-2.016c-0.752,0-1.361,0.609-1.361,1.361c0,0.754,0.609,1.361,1.361,1.361h2.016
			c0.752,0,1.361-0.607,1.361-1.361C53.974,70.266,53.364,69.656,52.612,69.656z"/>
		<path fill="#4D4D4D" d="M57.892,63.824c-0.182-0.09-0.383-0.141-0.598-0.141H55.28c-0.754,0-1.363,0.609-1.363,1.361
			s0.609,1.363,1.363,1.363h2.014c0.215,0,0.416-0.053,0.598-0.141V63.824z"/>
		<path fill="#4D4D4D" d="M57.892,52.117c-0.182-0.088-0.383-0.139-0.598-0.139H55.28c-0.754,0-1.363,0.609-1.363,1.361
			s0.609,1.361,1.363,1.361h2.014c0.215,0,0.416-0.051,0.598-0.139V52.117z"/>
		<path fill="#4D4D4D" d="M29.718,51.979h-2.014c-0.215,0-0.418,0.051-0.598,0.139v2.445c0.18,0.09,0.383,0.141,0.598,0.141h2.014
			c0.752,0,1.361-0.611,1.361-1.363S30.47,51.979,29.718,51.979z"/>
		<path fill="#4D4D4D" d="M29.718,63.684h-2.014c-0.215,0-0.418,0.051-0.598,0.141v2.445c0.18,0.088,0.383,0.139,0.598,0.139h2.014
			c0.752,0,1.361-0.609,1.361-1.361C31.081,64.293,30.47,63.684,29.718,63.684z"/>
	</g>
	<g>
		<path fill="#FFFFFF" d="M50.269,31.771c2.482,1.027,3.316,1.861,4.346,4.346c1.029-2.482,1.863-3.316,4.346-4.346
			c-2.482-1.029-3.316-1.863-4.346-4.348C53.585,29.908,52.751,30.742,50.269,31.771z"/>
		<circle fill="#FFFFFF" cx="57.388" cy="38.782" r="1.917"/>
	</g>
	<path d="M35.284,7.982h-1.775c-0.752,0-1.361,0.609-1.361,1.361s0.609,1.361,1.361,1.361h1.775c0.752,0,1.361-0.609,1.361-1.361
		S36.036,7.982,35.284,7.982z"/>
	<path d="M43.386,7.982h-1.773c-0.752,0-1.363,0.609-1.363,1.361s0.611,1.361,1.363,1.361h1.773c0.754,0,1.363-0.609,1.363-1.361
		S44.14,7.982,43.386,7.982z"/>
	<path d="M51.489,7.982h-1.775c-0.752,0-1.361,0.609-1.361,1.361s0.609,1.361,1.361,1.361h1.775c0.752,0,1.361-0.609,1.361-1.361
		S52.241,7.982,51.489,7.982z"/>
	<path d="M59.341,22.734v-2.932c1.854-0.197,3.305-1.779,3.305-3.695V9.748c0-3.996-3.23-7.248-7.197-7.248H29.55
		c-3.967,0-7.195,3.252-7.195,7.248v6.359c0,1.916,1.449,3.498,3.303,3.695v2.932c-2.795,0.088-5.043,2.408-5.043,5.246v49.268
		c0,2.896,2.338,5.252,5.211,5.252h33.35c2.873,0,5.211-2.355,5.211-5.252V37.959c0-0.752-0.609-1.361-1.361-1.361
		s-1.363,0.609-1.363,1.361v39.289c0,1.395-1.115,2.527-2.486,2.527h-33.35c-1.371,0-2.486-1.133-2.486-2.527V27.98
		c0-1.395,1.115-2.527,2.486-2.527h33.352c1.369,0,2.484,1.135,2.484,2.527v3.078c0,0.752,0.611,1.361,1.363,1.361
		s1.361-0.609,1.361-1.361V27.98C64.384,25.143,62.136,22.822,59.341,22.734z M58.948,17.1H37.866c-0.752,0-1.361,0.609-1.361,1.361
		s0.609,1.363,1.361,1.363h18.75v2.904H28.38v-2.904h2.768c0.752,0,1.361-0.611,1.361-1.363S31.899,17.1,31.147,17.1h-5.1
		c-0.533,0-0.971-0.445-0.971-0.992V9.748c0-2.494,2.006-4.523,4.471-4.523h25.9c2.465,0,4.471,2.029,4.471,4.523v6.359
		C59.919,16.654,59.483,17.1,58.948,17.1z"/>
	<path d="M57.892,46.844H27.106c-0.752,0-1.363,0.609-1.363,1.361v27.746c0,0.752,0.611,1.361,1.363,1.361h30.785
		c0.752,0,1.361-0.609,1.361-1.361V48.205C59.253,47.453,58.646,46.844,57.892,46.844z M56.528,74.588H28.468v-25.02H56.53
		L56.528,74.588L56.528,74.588z"/>
</g>
</svg>
