<?xml version="1.0" encoding="utf-8"?>
<!-- Generator: Adobe Illustrator 16.0.0, SVG Export Plug-In . SVG Version: 6.00 Build 0)  -->
<!DOCTYPE svg PUBLIC "-//W3C//DTD SVG 1.1//EN" "http://www.w3.org/Graphics/SVG/1.1/DTD/svg11.dtd">
<svg version="1.1" id="Layer_1" xmlns="http://www.w3.org/2000/svg" xmlns:xlink="http://www.w3.org/1999/xlink" x="0px" y="0px"
	 width="85px" height="85px" viewBox="0 0 85 85" enable-background="new 0 0 85 85" xml:space="preserve">
<g>
	<g enable-background="new    ">
		<path fill="#2E3192" d="M26.137,73.979h-7.696V24.924c-1.852,1.765-4.279,3.542-7.296,5.307c-3.003,1.765-5.706,3.091-8.108,3.979
			v-7.446c4.304-2.027,8.07-4.48,11.288-7.358c3.216-2.878,5.506-5.668,6.845-8.385h4.956v62.958H26.137z"/>
	</g>
	<g enable-background="new    ">
		<path d="M26.661,74.516h-8.757V26.137c-1.763,1.535-3.94,3.066-6.488,4.557c-3.016,1.771-5.773,3.125-8.194,4.02L2.5,34.979
			v-8.556l0.308-0.144c4.246-2,8-4.446,11.159-7.273c3.168-2.835,5.43-5.602,6.722-8.222l0.146-0.3h5.826V74.516z M18.978,73.443
			h6.611V11.558h-4.09c-1.374,2.653-3.664,5.427-6.817,8.247c-3.159,2.827-6.896,5.281-11.109,7.299v6.326
			c2.185-0.866,4.637-2.097,7.301-3.662c2.934-1.717,5.355-3.477,7.198-5.231l0.906-0.863V73.443z"/>
	</g>
	<g enable-background="new    ">
		<path fill="#2E3192" d="M65.795,73.979V58.964H38.591v-7.061l28.617-40.632h6.285v40.632h8.47v7.061h-8.47v15.015H65.795z
			 M65.795,51.903V23.636L46.162,51.903H65.795z"/>
	</g>
	<g enable-background="new    ">
		<path d="M74.03,74.516h-8.772V59.501H38.054v-7.768l0.099-0.139l28.78-40.859h7.098v40.634h8.47v8.132h-8.47V74.516z
			 M66.332,73.443h6.624V58.427h8.472V52.44h-8.472V11.808h-5.468l-28.36,40.27v6.35h27.204V73.443z M66.332,52.44H45.137
			l21.195-30.518V52.44z M47.187,51.369h18.071V25.348L47.187,51.369z"/>
	</g>
</g>
</svg>
