<?xml version="1.0" encoding="utf-8"?>
<!-- Generator: Adobe Illustrator 16.0.0, SVG Export Plug-In . SVG Version: 6.00 Build 0)  -->
<!DOCTYPE svg PUBLIC "-//W3C//DTD SVG 1.1//EN" "http://www.w3.org/Graphics/SVG/1.1/DTD/svg11.dtd">
<svg version="1.1" id="Layer_1" xmlns="http://www.w3.org/2000/svg" xmlns:xlink="http://www.w3.org/1999/xlink" x="0px" y="0px"
	 width="85px" height="85px" viewBox="0 0 85 85" enable-background="new 0 0 85 85" xml:space="preserve">
<g>
	<path fill="#424241" d="M51.512,5.007H33.488c-16.234,0-29.394,13.16-29.394,29.394v45.593h76.812V34.4
		C80.908,18.167,67.748,5.007,51.512,5.007z"/>
	<path fill="#CCCCCC" d="M63.855,17.022H21.146c-2.932,0-5.309,2.376-5.309,5.307v48.186h53.324V22.329
		C69.164,19.398,66.787,17.022,63.855,17.022z"/>
	<g>
		<rect x="21.607" y="22.874" fill="#29ABE2" width="17.885" height="21.229"/>
		<rect x="45.51" y="22.874" fill="#29ABE2" width="17.887" height="21.229"/>
	</g>
	<g>
		<circle fill="#FBB03B" cx="25.033" cy="60.377" r="3.427"/>
		<circle fill="#FBB03B" cx="59.969" cy="60.377" r="3.427"/>
	</g>
	<polygon fill="#603813" points="63.215,74.638 21.787,74.638 16.451,79.972 68.551,79.972 	"/>
	<g>
		<path d="M51.512,3.413H33.488C16.402,3.413,2.5,17.313,2.5,34.4v45.593c0,0.881,0.714,1.594,1.595,1.594h76.812
			c0.881,0,1.594-0.713,1.594-1.594V34.4C82.502,17.314,68.6,3.413,51.512,3.413z M17.433,68.921V22.329
			c0-2.047,1.665-3.713,3.714-3.713h42.709c2.049,0,3.715,1.666,3.715,3.713v46.592H17.433z M58.447,72.108l0.936,0.938H25.619
			l0.938-0.938H58.447z M64.703,78.378H20.299l2.148-2.146h40.107L64.703,78.378z M15.771,78.399H5.688V34.4
			c0-15.329,12.472-27.802,27.802-27.802h18.023c15.33,0,27.801,12.473,27.801,27.802v43.999H69.248l-6.293-6.293h6.209
			c0.881,0,1.594-0.713,1.594-1.592V22.329c0-3.805-3.096-6.9-6.9-6.9H21.146c-3.805,0-6.9,3.096-6.9,6.9v48.186
			c0,0.879,0.713,1.594,1.594,1.594h6.209L15.771,78.399z"/>
		<path d="M21.607,45.696h17.885c0.881,0,1.594-0.713,1.594-1.594V22.874c0-0.881-0.713-1.595-1.594-1.595H21.607
			c-0.881,0-1.596,0.713-1.596,1.595v21.229C20.012,44.983,20.727,45.696,21.607,45.696z M23.199,24.468h14.699v18.041H23.199
			V24.468z"/>
		<path d="M63.396,21.279H45.51c-0.881,0-1.594,0.713-1.594,1.595v21.229c0,0.881,0.713,1.594,1.594,1.594h17.887
			c0.881,0,1.594-0.713,1.594-1.594V22.874C64.99,21.993,64.277,21.279,63.396,21.279z M61.803,42.509H47.104V24.468h14.699V42.509
			L61.803,42.509z"/>
		<path d="M25.033,55.356c-2.77,0-5.021,2.252-5.021,5.021c0,2.768,2.252,5.02,5.021,5.02c2.768,0,5.02-2.252,5.02-5.02
			C30.053,57.608,27.801,55.356,25.033,55.356z M25.033,62.21c-1.012,0-1.834-0.822-1.834-1.834c0-1.01,0.822-1.832,1.834-1.832
			c1.01,0,1.832,0.822,1.832,1.832C26.865,61.388,26.043,62.21,25.033,62.21z"/>
		<path d="M59.969,55.356c-2.768,0-5.02,2.252-5.02,5.021c0,2.768,2.252,5.02,5.02,5.02c2.77,0,5.021-2.252,5.021-5.02
			C64.99,57.608,62.738,55.356,59.969,55.356z M59.969,62.21c-1.012,0-1.834-0.822-1.834-1.834c0-1.01,0.822-1.832,1.834-1.832
			s1.834,0.822,1.834,1.832C61.803,61.388,60.98,62.21,59.969,62.21z"/>
		<path d="M56.111,49.802c0-0.881-0.713-1.594-1.594-1.594H21.814c-0.879,0-1.594,0.713-1.594,1.594
			c0,0.879,0.713,1.594,1.594,1.594h32.703C55.398,51.396,56.111,50.681,56.111,49.802z"/>
		<path d="M63.035,51.396c0.881,0,1.594-0.715,1.594-1.594c0-0.881-0.713-1.594-1.594-1.594h-3.346
			c-0.881,0-1.594,0.713-1.594,1.594c0,0.879,0.713,1.594,1.594,1.594H63.035z"/>
		<path d="M34.896,25.696h-8.67c-0.881,0-1.594,0.714-1.594,1.594c0,0.881,0.713,1.594,1.594,1.594h8.67
			c0.879,0,1.594-0.713,1.594-1.594C36.49,26.41,35.775,25.696,34.896,25.696z"/>
		<path d="M50.107,28.884h8.67c0.879,0,1.594-0.713,1.594-1.594s-0.715-1.595-1.594-1.595h-8.67c-0.881,0-1.596,0.714-1.596,1.595
			S49.227,28.884,50.107,28.884z"/>
	</g>
</g>
</svg>
