<?xml version="1.0" encoding="utf-8"?>
<!-- Generator: Adobe Illustrator 16.0.0, SVG Export Plug-In . SVG Version: 6.00 Build 0)  -->
<!DOCTYPE svg PUBLIC "-//W3C//DTD SVG 1.1//EN" "http://www.w3.org/Graphics/SVG/1.1/DTD/svg11.dtd">
<svg version="1.1" id="Layer_1" xmlns="http://www.w3.org/2000/svg" xmlns:xlink="http://www.w3.org/1999/xlink" x="0px" y="0px"
	 width="85px" height="85px" viewBox="0 0 85 85" enable-background="new 0 0 85 85" xml:space="preserve">
<g>
	<path fill="#EAEEF1" d="M78.559,76.267H6.44c-1.587,0-2.872-1.299-2.872-2.896V14.247H81.43V73.37
		C81.43,74.968,80.143,76.267,78.559,76.267"/>
	<path fill="#366FB7" d="M68.383,65.929h-51.77c-0.791,0-1.436-0.646-1.436-1.447V26.032c0-0.801,0.645-1.449,1.436-1.449h51.77
		c0.793,0,1.436,0.648,1.436,1.449v38.449C69.818,65.282,69.176,65.929,68.383,65.929"/>
	<path fill="#FCE875" d="M81.43,14.247H3.568V4.671c0-0.799,0.643-1.449,1.436-1.449h74.992c0.791,0,1.436,0.648,1.436,1.449v9.576
		H81.43z"/>
	<path fill="#366FB7" d="M20.594,81.78h-3.957c-0.793,0-1.436-0.648-1.436-1.449v-4.064h6.828v4.064
		C22.029,81.132,21.387,81.78,20.594,81.78"/>
	<path fill="#366FB7" d="M68.383,81.78h-3.959c-0.791,0-1.436-0.648-1.436-1.449v-4.064h6.83v4.064
		C69.818,81.132,69.176,81.78,68.383,81.78"/>
	<path fill="#EF6053" d="M14.496,8.733c0,1.523-1.225,2.758-2.73,2.758c-1.51,0-2.731-1.234-2.731-2.758
		c0-1.521,1.224-2.756,2.731-2.756C13.271,5.978,14.496,7.212,14.496,8.733"/>
	<path fill="#EF6053" d="M24.059,8.733c0,1.523-1.223,2.758-2.732,2.758s-2.73-1.234-2.73-2.758c0-1.521,1.223-2.756,2.73-2.756
		S24.059,7.212,24.059,8.733"/>
	<path fill="#EF6053" d="M81.43,10.802H53.338c-1.082,0-1.959-0.885-1.959-1.977V8.644c0-1.092,0.877-1.977,1.959-1.977H81.43
		V10.802z"/>
	<path fill="#010101" d="M3.568,61.655c-0.398,0-0.721-0.322-0.721-0.721v-0.775c0-0.398,0.322-0.721,0.721-0.721
		s0.721,0.322,0.721,0.721v0.775C4.289,61.333,3.967,61.655,3.568,61.655z"/>
	<path fill="#010101" d="M78.697,76.987H6.301c-1.904,0-3.453-1.561-3.453-3.479v-8.697c0-0.398,0.324-0.723,0.722-0.723
		s0.721,0.324,0.721,0.723v8.697c0,1.123,0.902,2.035,2.011,2.035h72.398c1.107,0,2.012-0.912,2.012-2.035V14.968H4.291v40.799
		c0,0.398-0.324,0.721-0.722,0.721s-0.722-0.322-0.722-0.721v-41.52c0-0.398,0.324-0.723,0.722-0.723h77.862
		c0.398,0,0.721,0.324,0.721,0.723v59.262C82.152,75.427,80.602,76.987,78.697,76.987z"/>
	<path fill="#010101" d="M57.867,25.306h-0.684c-0.398,0-0.721-0.324-0.721-0.721c0-0.398,0.322-0.721,0.721-0.721h0.684
		c0.396,0,0.721,0.322,0.721,0.721C58.588,24.981,58.264,25.306,57.867,25.306z"/>
	<path fill="#010101" d="M68.453,66.651H16.547c-1.152,0-2.088-0.941-2.088-2.1v-38.59c0-1.158,0.936-2.098,2.088-2.098h35.6
		c0.398,0,0.723,0.322,0.723,0.721c0,0.396-0.322,0.721-0.723,0.721h-35.6c-0.357,0-0.646,0.293-0.646,0.656v38.59
		c0,0.361,0.289,0.656,0.646,0.656h51.906c0.355,0,0.645-0.295,0.645-0.656v-38.59c0-0.361-0.289-0.656-0.645-0.656h-5.207
		c-0.398,0-0.723-0.324-0.723-0.721c0-0.398,0.324-0.721,0.723-0.721h5.207c1.15,0,2.088,0.939,2.088,2.098v38.59
		C70.541,65.71,69.604,66.651,68.453,66.651z"/>
	<path fill="#010101" d="M81.43,14.968H3.568c-0.398,0-0.721-0.324-0.721-0.721V4.669c0-1.195,0.967-2.17,2.156-2.17h74.992
		c1.188,0,2.156,0.975,2.156,2.17v9.578C82.152,14.644,81.83,14.968,81.43,14.968z M4.289,13.524h76.42V4.671
		c0-0.402-0.32-0.729-0.715-0.729H5.004c-0.395,0-0.716,0.326-0.716,0.729L4.289,13.524L4.289,13.524z"/>
	<path fill="#010101" d="M20.594,82.501h-3.957c-1.189,0-2.156-0.975-2.156-2.17v-4.064c0-0.398,0.322-0.723,0.721-0.723h6.828
		c0.398,0,0.723,0.324,0.723,0.723v4.064c0,0.578-0.225,1.121-0.629,1.531C21.715,82.274,21.172,82.501,20.594,82.501z
		 M15.922,76.987v3.344c0,0.4,0.322,0.729,0.715,0.729h3.957c0.191,0,0.369-0.076,0.504-0.211c0.135-0.139,0.211-0.322,0.211-0.518
		v-3.344H15.922z"/>
	<path fill="#010101" d="M68.383,82.501h-3.959c-1.189,0-2.156-0.975-2.156-2.17v-4.064c0-0.398,0.322-0.723,0.721-0.723h6.83
		c0.398,0,0.723,0.324,0.723,0.723v4.064C70.541,81.526,69.572,82.501,68.383,82.501z M63.709,76.987v3.344
		c0,0.4,0.32,0.729,0.715,0.729h3.959c0.395,0,0.715-0.328,0.715-0.729v-3.344H63.709z"/>
	<path fill="#010101" d="M54.793,39.087H30.205c-1.904,0-3.453-1.561-3.453-3.479v-5.514c0-0.396,0.322-0.721,0.721-0.721
		s0.721,0.324,0.721,0.721v5.514c0,1.123,0.902,2.035,2.01,2.035h24.588c1.109,0,2.012-0.914,2.012-2.035v-5.514
		c0-0.396,0.324-0.721,0.723-0.721c0.396,0,0.721,0.324,0.721,0.721v5.514C58.248,37.526,56.697,39.087,54.793,39.087z"/>
	<path fill="#010101" d="M11.764,12.212c-1.903,0-3.453-1.561-3.453-3.479s1.55-3.479,3.453-3.479c1.904,0,3.453,1.561,3.453,3.479
		S13.668,12.212,11.764,12.212z M11.764,6.698c-1.107,0-2.01,0.914-2.01,2.035c0,1.123,0.901,2.035,2.01,2.035
		c1.109,0,2.01-0.912,2.01-2.035C13.773,7.612,12.873,6.698,11.764,6.698z"/>
	<path fill="#010101" d="M21.326,12.212c-1.904,0-3.453-1.561-3.453-3.479s1.549-3.479,3.453-3.479s3.453,1.561,3.453,3.479
		S23.23,12.212,21.326,12.212z M21.326,6.698c-1.107,0-2.01,0.914-2.01,2.035c0,1.123,0.902,2.035,2.01,2.035
		c1.109,0,2.012-0.912,2.012-2.035C23.338,7.612,22.436,6.698,21.326,6.698z"/>
	<path fill="#010101" d="M81.43,11.522H53.338c-1.48,0-2.682-1.211-2.682-2.697V8.644c0-1.486,1.201-2.697,2.682-2.697H81.43
		c0.398,0,0.723,0.322,0.723,0.721v4.135C82.152,11.2,81.83,11.522,81.43,11.522z M53.338,7.39c-0.684,0-1.238,0.562-1.238,1.254
		v0.182c0,0.691,0.555,1.256,1.238,1.256h27.371V7.39H53.338z"/>
</g>
</svg>
