<?xml version="1.0" encoding="utf-8"?>
<!-- Generator: Adobe Illustrator 16.0.0, SVG Export Plug-In . SVG Version: 6.00 Build 0)  -->
<!DOCTYPE svg PUBLIC "-//W3C//DTD SVG 1.1//EN" "http://www.w3.org/Graphics/SVG/1.1/DTD/svg11.dtd">
<svg version="1.1" id="Layer_1" xmlns="http://www.w3.org/2000/svg" xmlns:xlink="http://www.w3.org/1999/xlink" x="0px" y="0px"
	 width="85px" height="85px" viewBox="0 0 85 85" enable-background="new 0 0 85 85" xml:space="preserve">
<g>
	<path fill="#F1F2F2" d="M65.812,72.478c0-8.787-8.99-21.76-21.949-21.76c-14.992,0-24.674,12.03-24.674,20.817
		c0,4.205,6.15,10.964,22.529,10.964C54.677,82.5,65.702,77.553,65.812,72.478L65.812,72.478z"/>
	<path fill="#233E75" d="M57.214,55.872c-1.496-1.276-3.16-2.384-4.967-3.24c0.154,0.715,0.23,1.444,0.23,2.176
		c0,5.576-4.393,10.097-9.811,10.097s-9.811-4.521-9.811-10.097c0-0.606,0.055-1.201,0.154-1.778
		c-2.582,1.171-4.949,2.764-7.01,4.71v21.782c3.582,1.742,8.713,2.979,15.715,2.979c5.83,0,11.268-1.002,15.496-2.565V55.872H57.214
		z"/>
	<path fill="#D1D3D4" d="M28.386,55.745c-5.834,4.306-9.197,10.61-9.197,15.791c0,2.773,2.676,6.657,9.197,8.979V55.745
		L28.386,55.745z M55.853,54.795v25.609c5.938-1.913,9.895-4.896,9.959-7.927C65.812,66.785,62.036,59.335,55.853,54.795
		L55.853,54.795z"/>
	<path fill="#D6E6EF" d="M45.448,53.694c0,2.327-3.041,6.114-6.441,6.114c-3.934,0-6.473-3.187-6.473-5.513
		c0-2.327,3.072-2.915,6.473-2.915C42.407,51.382,45.448,51.367,45.448,53.694L45.448,53.694z"/>
	<path fill="#D6E6EF" d="M39.96,53.694c0,2.327,3.041,6.114,6.441,6.114c3.932,0,6.473-3.187,6.473-5.513
		c0-2.327-3.072-2.915-6.473-2.915C43.001,51.382,39.96,51.367,39.96,53.694L39.96,53.694z"/>
	<path fill="#F1B585" d="M51.501,52.123c0,2.115-3.883,5.559-8.223,5.559c-5.021,0-8.262-2.896-8.262-5.013
		c0-2.115,3.922-2.648,8.262-2.648S51.501,50.008,51.501,52.123L51.501,52.123z"/>
	<path fill="#F3C996" d="M54.552,50.775c-4.217,6.118-20.09,7.181-24.686-0.957c-3.662-6.479-5.984-25.503-1.703-32.289
		c6.299-9.981,21.939-9.816,27.24,0C59.829,25.728,59.829,43.117,54.552,50.775z"/>
	<path fill="#6B4019" d="M61.997,16.967c-0.23,1.476-1.125,3.803-1.812,4.257c2.66-5.505,0.676-8.853,0.676-8.853
		s0.17,2.496-0.676,3.278c0.617-2.428-0.771-8.216-5.125-8.103c-1.182-4.114-4.443-1.704-12.729-3.803
		c-8.287-2.1-13.945-0.908-13.945-0.908s2.209,1.363,2.918,2.021c-3.209,0.547-6.217,1.227-7.779,1.895
		c1.996,0.597,3.928,1.533,3.928,1.533s-4.748,0.937-7.111,2.383c3.186,0.086,4.717,0.938,4.717,0.938
		c-3.014-0.085-5.48,1.532-5.48,1.532s3.107,6.688,3.949,10.471c0.133,0.598-2.871-5.017-2.758-4.512
		c0.203,0.906,1.506,6.223,1.6,6.607c1.158,4.771,0.537,7.562,0.537,7.562s1.535,5.357,4.492,3.611
		c0.787,0.483,1.854-0.681,1.854-0.681s-2.795-4.758-1.066-8.314c0.346-0.711-2.648-6.005,1.75-8.758
		c5.166-3.234,5.529,0.875,11.996,1.342c6.465,0.467,6.09-4.804,13.035-2.289c2.164,0.784,2.98,8.054,2.205,10.27
		c2.297,2.61-1.379,7.75-1.379,7.75s0.832,1.038,1.74,1.03c1.471-0.868,2.287-3.032,2.711-5.281
		C60.669,29.672,63.417,21.791,61.997,16.967L61.997,16.967z"/>
	<path fill="#603913" d="M27.679,29.597c-0.121,0.319-0.258,0.627-0.316,0.885c-0.293,1.257,0.033,2.346,0.488,3.52
		c0.047,0.125-0.131,0.211-0.217,0.125c-1.021-1.022-2.959-3.115-4.566-2.737c-0.02,1.219-0.164,1.876-0.164,1.876
		s1.535,5.357,4.494,3.611c0.785,0.483,1.852-0.681,1.852-0.681S27.253,32.798,27.679,29.597L27.679,29.597z"/>
	<path fill="#F3C996" d="M57.786,34.901c0,0,1.703-3.87,3.916-3.039c3.701,1.391-0.68,5.973-0.254,8.439
		c0.426,2.468-2.123,4.456-4.279,2.215"/>
	<path fill="#F1B585" d="M59.233,37.655c0,1.6,0.742,3.139,0.439,3.139c-0.305,0-1.43-1.539-1.43-3.139
		c0-1.599,2.734-4.693,3.037-4.693C61.585,32.962,59.233,36.057,59.233,37.655z"/>
	<path fill="#F3C996" d="M27.046,34.901c0,0-1.701-3.87-3.916-3.039c-3.701,1.391,0.701,5.973,0.273,8.439
		c-0.426,2.468,2.826,3.758,4.98,1.517"/>
	<path fill="#F1B585" d="M25.601,37.655c0,1.6-0.744,3.139-0.441,3.139c0.305,0,1.43-1.539,1.43-3.139
		c0-1.599-2.732-4.693-3.037-4.693C23.249,32.962,25.601,36.057,25.601,37.655L25.601,37.655z"/>
	<path fill="#6B4019" d="M47.249,25.51c0.342-0.639,3.168-1.119,5.48-0.294c1.336,0.476,3.293,2.307,3.396,3.051
		c0.102,0.745-0.322,1.19-0.768,1.349c-0.447,0.159-0.797-1.222-3.314-1.77c-2.518-0.547-4.676,0.51-5.049,0.129
		C46.622,27.596,46.907,26.148,47.249,25.51L47.249,25.51z M37.845,25.51c-0.34-0.639-3.168-1.119-5.48-0.294
		c-1.336,0.476-3.291,2.307-3.395,3.051c-0.102,0.745,0.32,1.19,0.768,1.349c0.445,0.159,0.797-1.222,3.312-1.77
		c2.52-0.547,4.678,0.51,5.051,0.129C38.472,27.596,38.187,26.148,37.845,25.51z"/>
	<path fill="#7B4A21" d="M37.087,25.452c-0.709-0.561-1.982-0.374-2.814-0.272c-0.934,0.113-2.178,0.412-2.852,1.123
		c-0.049,0.053,0,0.144,0.072,0.124c0.941-0.266,1.793-0.616,2.777-0.748c0.914-0.122,1.871,0.188,2.748,0.03
		C37.126,25.688,37.175,25.521,37.087,25.452L37.087,25.452z M53.04,26.522c-0.494-0.636-1.627-0.865-2.377-1.03
		c-0.832-0.184-1.783-0.221-2.588,0.084c-0.105,0.039-0.096,0.198,0.025,0.199c0.934,0.011,1.791,0.021,2.703,0.266
		c0.723,0.193,1.381,0.702,2.119,0.761C53.085,26.814,53.118,26.623,53.04,26.522L53.04,26.522z"/>
	<path fill="#88C4D8" d="M38.356,35.229c-1.703,2.646-6.811,2.079-8.561-0.133s-2.641-6.271-0.883-6.66
		c1.76-0.389,10.119,0.957,10.826,1.516C41.46,32.008,39.397,34.081,38.356,35.229z"/>
	<path fill="#56B9D6" d="M28.634,32.914l4.111-1.199l-3.932,1.697c-0.135,0.058-0.289-0.005-0.348-0.14s0.004-0.291,0.139-0.349
		C28.614,32.921,28.624,32.917,28.634,32.914L28.634,32.914z M29.101,33.876l3.027-0.971l-2.826,1.458
		c-0.129,0.067-0.289,0.018-0.355-0.113l0,0c-0.068-0.13-0.018-0.29,0.113-0.357C29.071,33.886,29.085,33.88,29.101,33.876z
		 M40.188,32.926l-3.475,1.194l3.268-1.682c0.129-0.066,0.289-0.016,0.355,0.114c0.068,0.13,0.018,0.291-0.113,0.357
		C40.214,32.917,40.202,32.922,40.188,32.926z"/>
	<path fill="#88C4D8" d="M46.944,35.229c2.279,2.536,6.809,2.079,8.559-0.133c1.748-2.212,2.641-6.271,0.883-6.66
		c-1.76-0.389-10.119,0.957-10.824,1.516C43.839,32.008,45.856,34.17,46.944,35.229z"/>
	<path fill="#56B9D6" d="M56.433,33.412l-3.932-1.697l4.111,1.199c0.141,0.041,0.221,0.188,0.18,0.329
		c-0.041,0.14-0.188,0.221-0.328,0.18C56.452,33.421,56.442,33.416,56.433,33.412L56.433,33.412z M55.944,34.364l-2.824-1.458
		l3.027,0.971c0.139,0.045,0.217,0.193,0.172,0.334l0,0c-0.045,0.139-0.193,0.216-0.334,0.171
		C55.972,34.377,55.958,34.371,55.944,34.364L55.944,34.364z M45.267,32.438l3.266,1.682l-3.473-1.194
		c-0.141-0.048-0.213-0.198-0.166-0.337c0.047-0.138,0.197-0.212,0.336-0.165h0.002C45.243,32.428,45.255,32.434,45.267,32.438z"/>
	<path fill="#72A4B5" d="M55.464,33.795c-2.006,2.713-5.793,3.551-8.07,1.014c-1.088-1.058-2.537-3.011-0.816-5.068
		c0.109-0.086,0.389-0.199,0.789-0.329c-0.943,0.202-1.625,0.396-1.805,0.54c-1.723,2.058,0.295,4.22,1.385,5.277
		c2.277,2.537,6.807,2.08,8.557-0.132c1.006-1.271,1.727-3.149,1.824-4.594C56.923,31.572,56.212,32.786,55.464,33.795
		L55.464,33.795z M29.726,33.795c2.008,2.713,5.793,3.551,8.072,1.014c1.088-1.058,2.535-3.011,0.816-5.068
		c-0.109-0.086-0.389-0.199-0.789-0.329c0.941,0.202,1.625,0.396,1.805,0.54c1.721,2.058-0.295,4.22-1.383,5.277
		c-2.279,2.537-6.809,2.08-8.559-0.132c-1.006-1.271-1.727-3.149-1.824-4.594C28.269,31.572,28.979,32.786,29.726,33.795
		L29.726,33.795z"/>
	<path fill="#BCBEC0" d="M34.235,37.479c-0.236,0-0.482-0.01-0.73-0.031c-4.277-0.36-6.055-5.011-6.055-7.421
		c0.002-1.036,0.52-2.142,1.973-2.142c0.164,0,0.338,0.015,0.518,0.043l9.475,1.521c0.318,0.052,0.607,0.258,0.832,0.598
		c0.375,0.562,0.559,1.466,0.416,2.057C39.856,35.47,37.452,37.479,34.235,37.479L34.235,37.479z M29.423,28.679
		c-1.023,0-1.178,0.845-1.178,1.349c0,1.65,1.262,6.287,5.326,6.629c0.227,0.02,0.449,0.028,0.664,0.028
		c4.072,0,5.311-3.334,5.654-4.767c0.08-0.338-0.031-1.023-0.305-1.432c-0.1-0.148-0.205-0.238-0.299-0.254l-9.473-1.521
		C29.677,28.69,29.544,28.679,29.423,28.679z"/>
	<path fill="#BCBEC0" d="M44.935,31.495c-0.16,0-0.307-0.099-0.367-0.247c-0.021-0.047-0.52-1.191-1.873-1.191
		c-1.379,0-2.002,1.172-2.027,1.223c-0.1,0.194-0.338,0.271-0.533,0.171c-0.193-0.1-0.271-0.337-0.174-0.531
		c0.033-0.067,0.859-1.656,2.734-1.656c1.896,0,2.58,1.616,2.607,1.685c0.082,0.203-0.016,0.436-0.217,0.519
		C45.036,31.484,44.985,31.495,44.935,31.495z"/>
	<path fill="#BCBEC0" d="M51.011,37.479c-3.217,0-5.617-2.011-6.426-5.376c-0.143-0.591,0.041-1.495,0.416-2.057
		c0.227-0.339,0.514-0.545,0.832-0.598l9.475-1.521c0.17-0.028,0.344-0.042,0.518-0.043c1.453,0,1.971,1.105,1.971,2.142
		c0.002,2.41-1.773,7.061-6.053,7.421C51.499,37.469,51.255,37.479,51.011,37.479L51.011,37.479z M55.823,28.679
		c-0.121,0-0.252,0.012-0.391,0.034l-9.475,1.521c-0.094,0.016-0.199,0.105-0.299,0.254c-0.273,0.408-0.385,1.094-0.305,1.432
		c0.346,1.433,1.584,4.767,5.654,4.767c0.217,0,0.439-0.01,0.664-0.028c4.064-0.342,5.326-4.979,5.326-6.629
		C57.001,29.523,56.849,28.679,55.823,28.679z"/>
	<g>
		<path fill="#A5A7AA" d="M57.155,29.587c0-0.503-0.354-1.151-1.365-1.151c0,0-9.877,1.461-9.975,1.61
			c-0.117,0.173-0.201,0.396-0.256,0.624c0.029-0.065,0.062-0.127,0.102-0.183c0.098-0.148,0.205-0.238,0.299-0.254l9.473-1.52
			c0.139-0.022,0.27-0.034,0.393-0.034c1.023,0,1.178,0.844,1.178,1.348c0,0.496-0.115,1.263-0.385,2.1
			C56.997,31.121,57.155,30.168,57.155,29.587L57.155,29.587z M52.157,37.146c-0.248,0.021-1.412,0-1.412,0
			c-3.215,0-5.367-2.529-6.178-5.893c-0.043,0.306-0.041,0.604,0.018,0.849c0.809,3.366,3.209,5.376,6.426,5.376
			c0.244,0,0.488-0.011,0.73-0.031c3.119-0.263,4.906-2.803,5.646-5.094C56.567,34.519,55.075,36.901,52.157,37.146L52.157,37.146z"
			/>
	</g>
	<g>
		<path fill="#A5A7AA" d="M28.093,29.587c0-0.503,0.354-1.151,1.365-1.151c0,0,9.877,1.461,9.977,1.61
			c0.115,0.173,0.199,0.396,0.256,0.624c-0.029-0.063-0.064-0.124-0.104-0.183c-0.098-0.148-0.205-0.238-0.299-0.254l-9.473-1.52
			c-0.139-0.022-0.27-0.034-0.391-0.034c-1.025,0-1.178,0.844-1.178,1.348c-0.002,0.496,0.113,1.263,0.383,2.1
			C28.249,31.121,28.093,30.168,28.093,29.587L28.093,29.587z M33.093,37.146c0.246,0.021,1.41,0,1.41,0
			c3.215,0,5.367-2.529,6.178-5.893c0.043,0.306,0.043,0.604-0.016,0.849c-0.809,3.366-3.211,5.376-6.428,5.376
			c-0.236,0-0.482-0.01-0.73-0.031c-3.117-0.263-4.904-2.803-5.645-5.094C28.681,34.519,30.173,36.901,33.093,37.146z"/>
	</g>
	<path fill="#BCBEC0" d="M27.849,30.679c0,0.354-0.285,0.64-0.639,0.64s-0.641-0.287-0.641-0.64v-1.456
		c0-0.354,0.287-0.64,0.639-0.64c0.355,0,0.641,0.286,0.641,0.64V30.679z M58.46,30.679c0,0.354-0.285,0.64-0.639,0.64
		s-0.641-0.287-0.641-0.64v-1.456c0-0.354,0.287-0.64,0.641-0.639l0,0c0.354,0,0.639,0.286,0.639,0.639V30.679z"/>
	<path fill="#FFFFFF" d="M44.415,30.049c0,0.063-0.725-0.441-1.678-0.441s-1.771,0.506-1.771,0.441c0-0.065,0.818-0.676,1.771-0.676
		C43.688,29.373,44.415,29.983,44.415,30.049z M58.354,29.951c0,0.449-0.047,0.815-0.105,0.815c-0.057,0-0.104-0.366-0.104-0.815
		c0-0.451,0.047-0.816,0.104-0.816C58.308,29.135,58.354,29.5,58.354,29.951z M27.114,29.714c0,0.451-0.049,0.815-0.107,0.815
		c-0.057,0-0.104-0.364-0.104-0.815c0-0.45,0.047-0.815,0.104-0.815C27.065,28.898,27.114,29.264,27.114,29.714z M54.042,28.245
		c3.068-0.588,3.236,0.577,3.141,0.605c-0.057,0.017-0.299-0.867-3.352-0.281c-1.082,0.208-7.539,1.226-7.553,1.168
		C46.265,29.681,52.96,28.452,54.042,28.245L54.042,28.245z M31.126,28.182c-3.068-0.586-3.244,0.508-3.146,0.535
		c0.057,0.017,0.299-0.867,3.352-0.281c1.08,0.208,7.539,1.225,7.553,1.167C38.897,29.546,32.208,28.389,31.126,28.182z"/>
	<path fill="#6B4019" d="M53.12,48.747c-1.121,0.706-5.584,3.117-7.691,2.637c-1.4-0.319-1.348-1.584-1.59-2.41h-1.73
		c-0.279,0.768-0.336,1.912-1.396,2.312c-1.67,0.63-6.531-1.936-8.584-2.936c-3.143-1.532-4.918-7.283-4.918-7.283
		s1.111,7.147,2.217,8.954c1.107,1.807,6.535,5.726,6.535,5.726l-2.207-3.038c0,0,5.197,6.275,8.729,6.275
		c3.533,0,9.766-6.352,9.766-6.352l-2.088,2.964c0,0,5.029-3.466,5.98-5.575s1.682-8.578,1.682-8.578S56.142,46.843,53.12,48.747
		L53.12,48.747z"/>
	<path fill="#603913" d="M56.47,47.708c-0.975,2.109-6.127,5.575-6.127,5.575l2.143-2.965c0,0-6.387,6.354-10.004,6.354
		c-3.615,0-8.939-6.278-8.939-6.278l2.262,3.039c0,0-5.559-3.919-6.691-5.725c-0.699-1.113-1.398-4.253-1.834-6.5
		c-0.045-0.093-0.066-0.143-0.066-0.143s1.109,7.148,2.217,8.954c1.107,1.807,6.535,5.726,6.535,5.726l-2.207-3.038
		c0,0,5.195,6.275,8.729,6.275c3.531,0,9.766-6.352,9.766-6.352l-2.09,2.964c0,0,5.031-3.466,5.982-5.575
		c0.625-1.385,1.152-4.646,1.441-6.726C57.286,44.994,56.899,46.775,56.47,47.708L56.47,47.708z"/>
	<g>
		<path fill="#603913" d="M51.831,43.203c-0.564-1.372-1.555-2.312-3.262-2.548c-4.033-0.561-4.74,0.056-5.15,0.672
			c-0.066,0.1-0.119,0.215-0.16,0.337c-0.041-0.122-0.094-0.237-0.16-0.337c-0.41-0.616-2.26-1.224-4.906-0.606
			c-1.684,0.392-2.941,1.111-3.506,2.483c-0.564,1.373,0.012,4.594,0.012,4.594s1.08-0.141,1.543-1.597
			c0.373-1.176,0.488-2.129,1.258-2.385c1.842-0.61,3.416-0.612,5.76-0.612c2.346,0,3.918,0.002,5.762,0.612
			c0.77,0.256,0.887,1.209,1.26,2.385c0.461,1.455,1.541,1.597,1.541,1.597S52.397,44.576,51.831,43.203z"/>
		<path fill="#6B4019" d="M50.507,42.195c0.918,0.73,1.35,1.382,1.57,2.641c-0.008-0.62-0.074-1.213-0.246-1.633
			c-0.564-1.372-1.555-2.312-3.262-2.548c-4.033-0.561-4.74,0.056-5.15,0.672c-0.066,0.1-0.119,0.215-0.16,0.337
			c-0.041-0.122-0.094-0.237-0.16-0.337c-0.41-0.616-2.26-1.224-4.906-0.606c-1.684,0.392-2.941,1.111-3.506,2.483
			c-0.145,0.351-0.213,0.819-0.238,1.324c0.873-3.079,3.646-3.324,4.863-3.382c1.076-0.051,2.24-0.079,3.137,0.598
			c0.832,0.631,1.012,0.553,1.568,0.147C44.665,41.419,48.603,40.679,50.507,42.195z"/>
		<path fill="#603913" d="M51.819,46.638c0,0-1.08-0.14-1.543-1.597c-0.371-1.174-0.488-2.126-1.258-2.382
			c-1.844-0.612-3.395-0.055-5.738-0.055s-3.939-0.559-5.783,0.055c-0.768,0.256-0.885,1.208-1.258,2.382
			c-0.463,1.457-1.541,1.597-1.541,1.597s-0.189-1.051-0.244-2.208c-0.092,1.497,0.244,3.365,0.244,3.365s1.078-0.141,1.541-1.597
			c0.373-1.175,0.49-2.128,1.258-2.384c1.844-0.611,3.418-0.613,5.762-0.613c2.346,0,3.918,0.002,5.762,0.613
			c0.768,0.256,0.885,1.209,1.258,2.384c0.463,1.456,1.541,1.597,1.541,1.597s0.336-1.868,0.244-3.365
			C52.007,45.588,51.819,46.638,51.819,46.638z"/>
		<g>
			<path fill="#603913" d="M42.599,42.025c-1.023-0.962-2.707-0.716-3.926-0.508c-0.006,0.001-0.004,0.012,0.004,0.011
				c1.32-0.251,2.666,0.033,3.896,0.545C42.599,42.084,42.618,42.044,42.599,42.025L42.599,42.025z M36.366,42.244
				c-0.723,0.534-1.289,1.379-1.502,2.3c-0.004,0.014,0.014,0.019,0.018,0.006c0.152-0.524,0.418-0.946,0.752-1.355
				c0.252-0.308,0.555-0.567,0.771-0.909C36.419,42.261,36.388,42.228,36.366,42.244L36.366,42.244z M35.034,45.025
				c-0.162,0.39-0.123,0.824-0.111,1.239c0,0.027,0.037,0.027,0.037,0c0.008-0.419,0.014-0.817,0.096-1.229
				C35.06,45.022,35.04,45.013,35.034,45.025L35.034,45.025z M36.851,42.114c-0.754,1.119-1.469,2.426-1.51,3.853
				c-0.002,0.015,0.021,0.018,0.023,0.003c0.277-1.412,0.801-2.624,1.504-3.842C36.876,42.113,36.858,42.103,36.851,42.114z
				 M39.36,41.987c-1.145-0.044-2.359,0.311-2.924,1.47c-0.01,0.018,0.016,0.032,0.023,0.016c0.334-0.632,0.797-0.99,1.436-1.183
				c0.48-0.146,0.988-0.12,1.469-0.262C39.386,42.022,39.382,41.988,39.36,41.987L39.36,41.987z"/>
			<path fill="#603913" d="M41.903,41.151c-0.895-0.387-1.855-0.358-2.801-0.264c-0.932,0.094-1.867,0.37-2.695,0.847
				c-0.016,0.011-0.002,0.032,0.014,0.025c0.865-0.4,1.746-0.67,2.684-0.777c0.936-0.106,1.859,0.07,2.781,0.24
				C41.929,41.23,41.944,41.169,41.903,41.151L41.903,41.151z M37.989,41.722c-0.277-0.032-0.57,0.155-0.797,0.306
				c-0.021,0.016-0.004,0.05,0.02,0.036c0.127-0.068,0.273-0.127,0.408-0.178c0.123-0.046,0.254-0.062,0.375-0.114
				C38.021,41.761,38.017,41.726,37.989,41.722z M43.024,42.521c-1.035-0.132-1.998-0.686-3.049-0.683c-0.023,0-0.023,0.04,0,0.041
				c1.045,0.077,1.986,0.795,3.049,0.662C43.036,42.54,43.036,42.522,43.024,42.521z"/>
		</g>
		<g>
			<path fill="#603913" d="M43.792,42.025c1.023-0.962,2.707-0.716,3.924-0.508c0.008,0.001,0.004,0.012-0.002,0.011
				c-1.32-0.251-2.666,0.033-3.896,0.545C43.792,42.084,43.772,42.044,43.792,42.025L43.792,42.025z M50.024,42.244
				c0.721,0.534,1.289,1.379,1.502,2.3c0.002,0.014-0.016,0.019-0.02,0.006c-0.152-0.524-0.42-0.946-0.752-1.355
				c-0.252-0.308-0.555-0.567-0.77-0.909C49.97,42.261,50.001,42.228,50.024,42.244z M51.356,45.025
				c0.16,0.39,0.121,0.824,0.109,1.239c0,0.027-0.037,0.027-0.037,0c-0.006-0.419-0.014-0.817-0.096-1.229
				C51.331,45.022,51.351,45.013,51.356,45.025L51.356,45.025z M49.54,42.114c0.754,1.119,1.467,2.426,1.51,3.853
				c0,0.015-0.021,0.018-0.023,0.003c-0.277-1.412-0.801-2.624-1.504-3.842C49.513,42.113,49.53,42.103,49.54,42.114z M47.03,41.987
				c1.143-0.044,2.357,0.311,2.924,1.47c0.008,0.018-0.016,0.032-0.025,0.016c-0.334-0.632-0.797-0.99-1.434-1.183
				c-0.48-0.146-0.99-0.12-1.471-0.262C47.003,42.022,47.009,41.988,47.03,41.987L47.03,41.987z"/>
			<path fill="#603913" d="M44.485,41.151c0.895-0.387,1.855-0.358,2.801-0.264c0.932,0.094,1.867,0.37,2.695,0.847
				c0.016,0.011,0.002,0.032-0.014,0.025c-0.865-0.4-1.744-0.67-2.682-0.777c-0.938-0.106-1.861,0.07-2.783,0.24
				C44.46,41.23,44.446,41.169,44.485,41.151L44.485,41.151z M48.399,41.722c0.277-0.032,0.57,0.155,0.799,0.306
				c0.02,0.016,0.002,0.05-0.021,0.036c-0.129-0.068-0.271-0.127-0.406-0.178c-0.125-0.046-0.256-0.062-0.377-0.114
				C48.37,41.761,48.374,41.726,48.399,41.722z M43.364,42.521c1.037-0.132,2-0.686,3.049-0.683c0.025,0,0.023,0.04,0,0.041
				c-1.045,0.077-1.986,0.795-3.049,0.662c-0.006-0.001-0.01-0.007-0.01-0.013C43.356,42.525,43.36,42.521,43.364,42.521z"/>
		</g>
	</g>
	<g>
		<path fill="#F3C996" d="M40.509,38.646c-0.467,0.287-0.672,0.567-0.771,1.128c-0.094,0.53,0.295,1.031,0.828,1.058
			c0.494,0.023,0.852-0.271,1.361-0.169c0.406,0.079,0.828,0.329,1.232,0.475c1.08,0.385,2.525,0.149,3.131-0.901
			c0.24-0.418,0.172-1.19,0-1.616c-0.188-0.468-0.525-0.826-0.967-1.071c-0.629-0.354-1.363-0.49-1.955-0.979
			c-0.232-0.19-0.357-0.328-0.646-0.36c-0.346-0.041-0.701,0.063-1.045,0.079c-0.289,0.012-0.465-0.022-0.691,0.146
			c-0.195,0.146-0.348,0.364-0.479,0.568v1.644H40.509z"/>
		<path fill="#F1B585" d="M43.925,34.845c0.088,1.596,0.855,2.249,0.584,2.383c-0.27,0.135-1.496-0.995-1.475-1.507
			c0.109-2.585,0.887-4.676,1.158-4.812C44.464,30.774,43.794,32.433,43.925,34.845z M45.903,40.235
			c0.807-2.032-1.113-2.933-1.113-2.933s3.635,0.353,1.934,3.491c-0.531,0.977-3.465,1.259-4.832,0.065
			c-3.965,1.477-2.365-2.211-1.406-2.127c-0.818,0.619-1.08,2.062,1.307,1.759C43.032,41.456,45.524,41.193,45.903,40.235
			L45.903,40.235z"/>
	</g>
	<path fill="#F1B585" d="M41.312,46.306c0.148-0.159,0.918,0.47,1.643,0.443c0.857-0.032,1.688-0.691,1.869-0.51
		c0.338,0.337-0.51,1.175-1.711,1.233C41.913,47.533,40.987,46.656,41.312,46.306z M43.003,44.217
		c2.002-0.019,3.398,0.996,5.016-0.389c0.029,0.607-0.555,1.382-1.541,1.547c-0.85,0.141-1.98-0.295-3.428-0.224
		c-1.137,0.058-2.199,0.616-2.908,0.516c-1.25-0.18-1.707-1.181-1.74-1.829C40.079,45.471,40.587,44.238,43.003,44.217
		L43.003,44.217z"/>
	<g>
		<path fill="#EF4136" d="M41.981,63.701c0,2.257-5.391,4.086-6.174,4.086s-1.42-1.829-1.42-4.086s0.637-4.086,1.42-4.086
			S41.981,61.444,41.981,63.701z"/>
		<path fill="#D8C7BB" d="M41.03,62.022c-0.025,0.023-0.051,0.045-0.076,0.065c-0.254,0.185-0.576,0.236-0.879,0.299
			c0.17,0.234,0.598,0.561,0.436,0.844c-0.156,0.275-0.447,0.254-0.727,0.266c0.166,0.081,0.336,0.151,0.5,0.235
			c0.135,0.067,0.396,0.159,0.471,0.309c0.135,0.271-0.211,0.559-0.473,0.73c0.188,0.01,0.373-0.019,0.562-0.024
			c0.047-0.002,0.078,0.046,0.066,0.089c-0.061,0.253-0.33,0.421-0.543,0.543c-0.326,0.188-0.672,0.341-1.02,0.479
			c-0.865,0.346-1.705,0.952-2.672,0.904c-0.758-0.038-1.246-0.785-1.295-1.483c-0.023-0.361,0.008-0.734,0.281-1.002
			c0.262-0.252,0.594-0.414,0.836-0.684c-0.883-0.156-1.717-0.561-2.018-1.345c-0.061,0.45-0.094,0.94-0.094,1.454
			c0,2.256,0.637,4.085,1.42,4.085s6.172-1.829,6.172-4.085C41.981,63.103,41.603,62.535,41.03,62.022L41.03,62.022z"/>
		<path fill="#B88FA3" d="M41.575,63.076c-0.41-0.345-1.027-0.515-1.525-0.696c-0.602-0.222-1.23-0.438-1.857-0.572
			c-0.033-0.009-0.061,0.042-0.023,0.059c0.529,0.248,1.074,0.466,1.607,0.712c0.521,0.242,1.104,0.617,1.678,0.709
			C41.563,63.304,41.683,63.166,41.575,63.076L41.575,63.076z M41.263,63.6c-0.4-0.062-0.822-0.026-1.229-0.046
			c-0.451-0.023-0.92-0.105-1.365-0.022c-0.037,0.008-0.031,0.061,0,0.068c0.383,0.109,0.797,0.125,1.193,0.167
			c0.453,0.05,0.957,0.134,1.4,0.011C41.345,63.757,41.356,63.615,41.263,63.6L41.263,63.6z M41.55,64.112
			c-0.477,0.131-0.871,0.511-1.281,0.773c-0.529,0.337-1.148,0.45-1.725,0.678c-0.039,0.016-0.039,0.085,0.01,0.079
			c0.494-0.063,0.99-0.133,1.451-0.335c0.568-0.252,1.111-0.656,1.627-1.003C41.729,64.239,41.669,64.08,41.55,64.112L41.55,64.112z
			"/>
		<g>
			<path fill="#EF4136" d="M42.813,63.701c0,2.257,5.389,4.086,6.172,4.086c0.785,0,1.42-1.829,1.42-4.086s-0.635-4.086-1.42-4.086
				C48.202,59.615,42.813,61.444,42.813,63.701z"/>
			<path fill="#D8C7BB" d="M43.763,62.022c0.023,0.023,0.051,0.045,0.076,0.065c0.252,0.185,0.574,0.236,0.877,0.299
				c-0.17,0.234-0.598,0.561-0.436,0.844c0.158,0.275,0.449,0.254,0.727,0.266c-0.166,0.081-0.336,0.151-0.5,0.235
				c-0.135,0.067-0.395,0.159-0.469,0.309c-0.137,0.271,0.209,0.559,0.471,0.73c-0.188,0.01-0.373-0.019-0.561-0.024
				c-0.047-0.002-0.078,0.046-0.068,0.089c0.062,0.253,0.332,0.421,0.543,0.543c0.326,0.188,0.672,0.341,1.021,0.479
				c0.865,0.346,1.703,0.952,2.67,0.904c0.758-0.038,1.248-0.785,1.295-1.483c0.025-0.361-0.006-0.734-0.281-1.002
				c-0.26-0.252-0.594-0.414-0.836-0.684c0.883-0.156,1.717-0.561,2.02-1.345c0.061,0.45,0.094,0.94,0.094,1.454
				c0,2.256-0.637,4.085-1.42,4.085s-6.172-1.829-6.172-4.085C42.813,63.103,43.19,62.535,43.763,62.022z"/>
			<path fill="#B88FA3" d="M43.218,63.076c0.41-0.345,1.025-0.515,1.523-0.696c0.602-0.222,1.23-0.438,1.857-0.572
				c0.035-0.009,0.061,0.042,0.025,0.059c-0.531,0.248-1.076,0.466-1.607,0.712c-0.523,0.242-1.105,0.617-1.678,0.709
				C43.231,63.304,43.11,63.166,43.218,63.076L43.218,63.076z M43.528,63.6c0.4-0.062,0.824-0.026,1.23-0.046
				c0.449-0.023,0.918-0.105,1.363-0.022c0.037,0.008,0.033,0.061,0,0.068c-0.383,0.109-0.797,0.125-1.191,0.167
				c-0.453,0.05-0.957,0.134-1.402,0.011C43.446,63.757,43.437,63.615,43.528,63.6z M43.241,64.112
				c0.479,0.131,0.873,0.511,1.283,0.773c0.527,0.337,1.148,0.45,1.725,0.678c0.037,0.016,0.037,0.085-0.012,0.079
				c-0.494-0.063-0.99-0.133-1.451-0.335c-0.568-0.252-1.111-0.656-1.625-1.003C43.063,64.239,43.122,64.08,43.241,64.112
				L43.241,64.112z"/>
		</g>
		<path fill="#EF4136" d="M43.8,65.016c-0.309,0.463-2.197,0.463-2.643,0c-0.443-0.462-0.451-2.746,0-2.993s2.365-0.34,2.643,0
			C44.077,62.361,44.108,64.555,43.8,65.016z"/>
		<path fill="#D8C7BB" d="M42.81,64.37c-0.539,0.136-1.045-0.007-1.404-0.438c-0.361-0.433-0.459-0.958-0.479-1.496
			c-0.195,0.745-0.115,2.219,0.23,2.58c0.443,0.463,2.334,0.463,2.643,0c0.146-0.22,0.217-0.829,0.221-1.445
			C43.702,63.956,43.286,64.25,42.81,64.37z"/>
	</g>
</g>
</svg>
