<?xml version="1.0" encoding="utf-8"?>
<!-- Generator: Adobe Illustrator 16.0.2, SVG Export Plug-In . SVG Version: 6.00 Build 0)  -->
<!DOCTYPE svg PUBLIC "-//W3C//DTD SVG 1.1//EN" "http://www.w3.org/Graphics/SVG/1.1/DTD/svg11.dtd">
<svg version="1.1" id="Layer_1" xmlns="http://www.w3.org/2000/svg" xmlns:xlink="http://www.w3.org/1999/xlink" x="0px" y="0px"
	 width="85px" height="85px" viewBox="0 0 85 85" enable-background="new 0 0 85 85" xml:space="preserve">
<g>
	<path d="M15.518,62.874c-1.479-0.787-1.713-1.486-1.021-2.961c0.445-0.951,0.889-1.904,1.332-2.859
		c0.008-0.02-0.008-0.051-0.029-0.17c-1.658,0-3.334,0.016-5.01-0.004c-1.539-0.018-2.557-1.098-2.365-2.51
		c0.049-0.355,0.203-0.707,0.355-1.039c2.27-4.947,4.541-9.896,6.836-14.833c0.344-0.74,0.5-1.462,0.42-2.285
		c-0.852-8.885,1.502-16.832,7.514-23.437C31.475,4.07,41.455,0.76,52.908,3.368c11.479,2.613,19.057,9.954,22.422,21.244
		c2.547,8.545,1.184,16.717-3.41,24.379c-3.359,5.609-4.807,11.742-4.676,18.273c0.088,4.416,1.115,8.66,2.18,12.906
		c0.35,1.391-0.098,1.912-1.533,1.932c-9.92,0.131-19.84,0.266-29.76,0.396c-1.316,0.018-1.617-0.238-1.836-1.521
		c-0.373-2.18-0.752-4.359-1.139-6.539c-0.27-1.514-1.201-2.295-2.738-2.299c-3.113-0.006-6.227,0.006-9.342-0.004
		c-3.223-0.01-5.588-1.898-6.289-5.025c-0.078-0.342-0.209-0.58-0.545-0.697c-0.098-0.035-0.186-0.1-0.277-0.148
		C14.262,65.337,14.102,64.257,15.518,62.874z"/>
	<path fill="#FDDEC4" d="M17.611,64.396c1.443-1.348,1.293-2.543-0.389-3.357c-0.389-0.188-0.486-0.346-0.279-0.764
		c0.621-1.246,1.201-2.518,1.783-3.783c0.555-1.211,0.086-1.969-1.238-1.979c-1.953-0.014-3.906-0.027-5.859,0.01
		c-0.66,0.014-0.754-0.105-0.471-0.717c2.244-4.818,4.449-9.654,6.689-14.475c0.469-1.008,0.688-2.029,0.564-3.14
		c-0.631-5.737,0.266-11.228,3.041-16.296C26.092,11.424,33.221,6.34,42.838,5.168c14.039-1.707,26.775,6.986,30.391,20.668
		c2.006,7.602,0.871,14.844-3.162,21.608c-4.191,7.027-5.795,14.621-5.031,22.748c0.283,3.027,0.922,5.984,1.699,8.916
		c0.115,0.441,0.172,0.639-0.424,0.645c-9.051,0.102-18.1,0.225-27.148,0.357c-0.453,0.008-0.627-0.09-0.707-0.574
		c-0.313-1.949-0.658-3.896-1.049-5.832c-0.479-2.381-2.408-3.93-4.854-3.938c-3.113-0.012-6.229,0-9.342-0.004
		c-2.471-0.004-3.955-1.348-4.188-3.785C18.957,65.278,18.932,65.247,17.611,64.396z"/>
	<path d="M60.428,31.978c-0.051,4.222-1.721,7.815-4.297,11.056c-0.244,0.311-0.506,0.609-0.73,0.934
		c-0.473,0.68-0.822,1.275-0.123,2.137c0.715,0.879,0.609,1.984,0.049,2.98c-0.162,0.287-0.164,0.479-0.01,0.779
		c0.984,1.932,0.129,3.865-1.973,4.463c-0.344,0.098-0.496,0.232-0.625,0.578c-0.992,2.678-3.439,4.369-6.264,4.379
		c-2.82,0.008-5.277-1.68-6.275-4.35c-0.137-0.361-0.311-0.516-0.682-0.619c-2.039-0.568-2.9-2.527-1.957-4.424
		c0.143-0.281,0.189-0.479,0.023-0.785c-0.664-1.242-0.563-2.449,0.371-3.52c0.273-0.313,0.221-0.527,0.076-0.832
		c-0.309-0.652-0.762-1.197-1.207-1.754c-1.975-2.461-3.404-5.182-4.014-8.308c-1.475-7.556,3.352-13.649,9.609-15.524
		c7.441-2.229,15.461,2.01,17.551,9.293C60.281,29.615,60.406,30.788,60.428,31.978z"/>
	<path fill="#010100" d="M66.666,21.576c-0.033,0.429-0.246,0.793-0.672,1.039c-1.049,0.604-2.086,1.231-3.145,1.82
		c-0.703,0.392-1.357,0.223-1.719-0.386c-0.355-0.603-0.166-1.244,0.539-1.666c1.039-0.623,2.082-1.241,3.145-1.821
		C65.686,20.086,66.643,20.606,66.666,21.576z"/>
	<path d="M45.303,12.463c0-0.633-0.021-1.267,0.006-1.897c0.029-0.688,0.506-1.144,1.15-1.151c0.646-0.01,1.178,0.426,1.197,1.11
		c0.039,1.315,0.039,2.635,0,3.952c-0.02,0.677-0.568,1.136-1.195,1.126c-0.629-0.011-1.123-0.484-1.15-1.163
		C45.281,13.782,45.305,13.122,45.303,12.463z"/>
	<path fill="#010100" d="M55.563,18.01c-0.91-0.025-1.492-0.865-1.102-1.621c0.627-1.213,1.318-2.397,2.045-3.555
		c0.355-0.563,0.951-0.666,1.531-0.324c0.576,0.342,0.777,0.908,0.465,1.498c-0.629,1.185-1.318,2.336-2.006,3.488
		C56.281,17.857,55.924,18.033,55.563,18.01z"/>
	<path fill="#010100" d="M35.533,12.328c0.449,0.044,0.803,0.25,1.031,0.642c0.621,1.068,1.25,2.133,1.848,3.215
		c0.365,0.66,0.199,1.309-0.359,1.654c-0.59,0.365-1.281,0.192-1.689-0.483c-0.639-1.058-1.264-2.126-1.846-3.216
		C34.053,13.269,34.617,12.309,35.533,12.328z"/>
	<path d="M27.672,20.346c1.326,0.736,2.887,1.385,4.133,2.533c0.369,0.342,0.256,0.898-0.076,1.312
		c-0.354,0.438-0.852,0.621-1.34,0.36c-1.23-0.656-2.441-1.354-3.625-2.09c-0.467-0.289-0.582-0.806-0.375-1.334
		C26.578,20.637,26.961,20.391,27.672,20.346z"/>
	<path fill="#010101" d="M66.496,33.685c-0.633,0-1.266,0.019-1.896-0.005c-0.691-0.023-1.176-0.481-1.213-1.102
		c-0.039-0.639,0.447-1.223,1.162-1.246c1.289-0.043,2.582-0.043,3.871-0.002c0.738,0.023,1.184,0.559,1.154,1.237
		c-0.027,0.687-0.477,1.085-1.26,1.12c-0.053,0.002-0.105,0.001-0.158,0.001c-0.555,0-1.105,0-1.66,0
		C66.496,33.687,66.496,33.686,66.496,33.685z"/>
	<path fill="#010101" d="M26.41,33.687c-0.605-0.001-1.213,0.002-1.818-0.002c-0.721-0.007-1.131-0.394-1.221-1.089
		c-0.078-0.61,0.389-1.225,1.055-1.25c1.367-0.051,2.74-0.057,4.105,0.01c0.652,0.031,1.02,0.523,1.029,1.191
		c0.008,0.637-0.479,1.084-1.174,1.135c-0.055,0.005-0.105,0.005-0.158,0.005C27.621,33.688,27.016,33.688,26.41,33.687z"/>
	<path fill="#010000" d="M31.996,41.612c-0.014,0.422-0.254,0.779-0.668,1.02c-1.045,0.61-2.088,1.225-3.146,1.809
		c-0.709,0.389-1.363,0.223-1.717-0.379c-0.352-0.604-0.16-1.25,0.539-1.668c1.039-0.621,2.084-1.232,3.148-1.807
		C31.031,40.112,31.977,40.62,31.996,41.612z"/>
	<path fill="#010000" d="M62.338,40.37c1.326,0.754,2.951,1.344,4.162,2.584c0.357,0.366,0.197,0.903-0.15,1.301
		c-0.379,0.432-0.895,0.539-1.363,0.287c-1.207-0.646-2.389-1.336-3.551-2.057c-0.475-0.295-0.574-0.818-0.389-1.338
		C61.225,40.657,61.619,40.411,62.338,40.37z"/>
	<path fill="#FED44F" d="M46.488,33.978c-1.328-1.326-2.641-2.624-3.936-3.937c-0.48-0.486-0.99-0.843-1.672-0.461
		c-0.66,0.369-0.688,0.95-0.521,1.643c1.002,4.173,1.949,8.357,2.969,12.528c0.18,0.736-0.037,0.77-0.672,0.83
		c-1.391,0.133-2.482-0.031-2.955-1.616c-0.164-0.545-0.684-0.988-1.061-1.463c-1.896-2.396-3.232-5.029-3.648-8.105
		c-0.715-5.281,2.631-9.952,7.361-11.693c6.469-2.382,13.729,1.24,15.379,7.713c0.748,2.941,0.17,5.75-1.104,8.445
		c-0.598,1.27-1.348,2.447-2.232,3.531c-0.705,0.861-1.377,1.737-1.779,2.784c-0.115,0.299-0.291,0.395-0.594,0.385
		c-0.842-0.027-1.686-0.035-2.525-0.051c-0.012-0.822,0.287-1.586,0.471-2.368c0.867-3.689,1.77-7.371,2.646-11.059
		c0.197-0.828-0.07-1.36-0.742-1.59c-0.559-0.191-0.967,0.055-1.342,0.43C49.193,31.268,47.852,32.611,46.488,33.978z"/>
	<path fill="#FED44F" d="M49.303,34.721c-0.297,1.248-0.59,2.498-0.891,3.746c-0.443,1.84-0.906,3.674-1.33,5.52
		c-0.09,0.396-0.209,0.576-0.654,0.588c-0.486,0.012-0.551-0.27-0.633-0.617c-0.68-2.893-1.363-5.784-2.047-8.674
		c-0.035-0.146-0.082-0.291-0.129-0.459c0.283-0.148,0.422,0.082,0.576,0.234c0.432,0.426,0.85,0.865,1.287,1.285
		c0.715,0.689,1.285,0.705,1.977,0.006c0.568-0.573,1.088-1.193,1.629-1.793C49.16,34.611,49.23,34.667,49.303,34.721z"/>
	<path fill="#EDEDED" d="M46.451,52.042c-1.977,0-3.953-0.006-5.93,0.002c-0.494,0.004-0.955-0.07-0.975-0.658
		c-0.02-0.643,0.479-0.73,0.99-0.73c3.93,0,7.857,0,11.785-0.002c0.516,0,1.025,0.094,1.018,0.715
		c-0.006,0.631-0.521,0.68-1.033,0.678C50.354,52.036,48.402,52.042,46.451,52.042z"/>
	<path fill="#EFEFEF" d="M46.34,48.28c-1.924,0-3.848-0.002-5.771,0.004c-0.502,0-1.023-0.02-1.021-0.678
		c0.004-0.654,0.521-0.678,1.025-0.678c3.9,0.006,7.801,0.004,11.701,0.004c0.08,0,0.158,0.004,0.236,0
		c0.459-0.021,0.813,0.164,0.832,0.637c0.023,0.523-0.344,0.713-0.836,0.713C50.451,48.278,48.395,48.28,46.34,48.28z"/>
	<path fill="#DEDDDF" d="M42.613,54.442c2.441,0,4.813,0.006,7.184-0.004c0.402-0.002,0.561,0.08,0.295,0.48
		c-0.906,1.373-2.215,2.002-3.82,1.977C44.684,56.872,43.234,55.884,42.613,54.442z"/>
</g>
</svg>
