<?xml version="1.0" encoding="utf-8"?>
<!-- Generator: Adobe Illustrator 16.0.0, SVG Export Plug-In . SVG Version: 6.00 Build 0)  -->
<!DOCTYPE svg PUBLIC "-//W3C//DTD SVG 1.1//EN" "http://www.w3.org/Graphics/SVG/1.1/DTD/svg11.dtd">
<svg version="1.1" id="Layer_1" xmlns="http://www.w3.org/2000/svg" xmlns:xlink="http://www.w3.org/1999/xlink" x="0px" y="0px"
	 width="85px" height="85px" viewBox="0 0 85 85" enable-background="new 0 0 85 85" xml:space="preserve">
<g>
	<polygon fill="#074761" points="33.737,4.135 37.124,16.701 47.877,16.701 51.264,4.135 	"/>
	<polygon fill="#10BAFC" points="47.877,16.701 37.124,16.701 28.95,67.25 42.5,80.869 56.051,67.25 	"/>
	<path d="M57.662,66.988l-8.117-50.201L52.84,4.559c0.133-0.49,0.029-1.014-0.279-1.418C52.252,2.738,51.771,2.5,51.264,2.5H33.737
		c-0.508,0-0.987,0.236-1.297,0.641c-0.309,0.404-0.412,0.928-0.279,1.418l3.295,12.229l-8.118,50.201
		c-0.083,0.518,0.085,1.041,0.454,1.412L41.342,82.02c0.307,0.309,0.723,0.48,1.158,0.48c0.434,0,0.851-0.174,1.156-0.48
		L57.209,68.4C57.576,68.029,57.746,67.506,57.662,66.988z M35.991,33.93l11.199-11.254l0.762,4.709L34.934,40.469L35.991,33.93z
		 M36.885,28.402l1.629-10.066h7.974l0.059,0.357L36.885,28.402z M34.04,45.996l14.556-14.629l0.65,4.029L33.135,51.59L34.04,45.996
		z M32.242,57.117l17.649-17.738l1.002,6.197L30.852,65.721L32.242,57.117z M49.133,5.766l-2.506,9.303h-8.252l-2.507-9.303H49.133z
		 M42.5,78.555l-3.578-3.598l7.724-7.766c0.637-0.639,0.635-1.674-0.006-2.309c-0.639-0.637-1.672-0.635-2.309,0.006l-7.714,7.754
		l-4.023-4.045l18.941-19.039l2.771,17.129L42.5,78.555z"/>
	<path d="M50.783,60.721c-0.641-0.637-1.674-0.635-2.311,0.006l-0.502,0.506c-0.639,0.639-0.635,1.672,0.006,2.309
		c0.318,0.316,0.734,0.477,1.15,0.477c0.42,0,0.84-0.16,1.156-0.48l0.504-0.506C51.426,62.389,51.422,61.355,50.783,60.721z"/>
</g>
</svg>
