<?xml version="1.0" encoding="utf-8"?>
<!-- Generator: Adobe Illustrator 16.0.0, SVG Export Plug-In . SVG Version: 6.00 Build 0)  -->
<!DOCTYPE svg PUBLIC "-//W3C//DTD SVG 1.1//EN" "http://www.w3.org/Graphics/SVG/1.1/DTD/svg11.dtd">
<svg version="1.1" id="Layer_1" xmlns="http://www.w3.org/2000/svg" xmlns:xlink="http://www.w3.org/1999/xlink" x="0px" y="0px"
	 width="85px" height="85px" viewBox="0 0 85 85" enable-background="new 0 0 85 85" xml:space="preserve">
<g>
	<path fill="#52CC61" d="M60.257,79.586H15.564c-0.816,0-1.48-0.662-1.48-1.479l0,0V52.572c0-6.763,5.484-12.246,12.248-12.246
		h23.158c6.764,0,12.246,5.483,12.246,12.246v25.534C61.735,78.924,61.075,79.586,60.257,79.586L60.257,79.586z"/>
	<path fill="#FBCC85" d="M23.417,64.479h28.986v15.107H23.417V64.479z"/>
	<path fill="#E8B76B" d="M49.216,64.479h3.188v15.107h-3.188V64.479z"/>
	<path fill="#00B232" d="M61.735,52.573v25.534c0,0.816-0.66,1.479-1.479,1.479l0,0h-3.17c0.814,0,1.479-0.662,1.479-1.479V52.573
		c0-6.763-5.484-12.246-12.246-12.246h3.17C56.253,40.327,61.735,45.811,61.735,52.573z"/>
	<path fill="#FFA964" d="M75.501,43.478c-1.514,1.516-1.998,3.668-1.449,5.592c1.922,0.549,4.076,0.064,5.592-1.448
		c1.514-1.516,1.998-3.67,1.449-5.594C79.169,41.48,77.015,41.963,75.501,43.478z"/>
	<path fill="#FF872A" d="M79.642,47.619c-1.277,1.276-3.01,1.82-4.676,1.631c0.826-0.287,1.602-0.782,2.26-1.484
		c1.492-1.598,1.982-3.86,1.473-5.896c0.801-0.117,1.615-0.063,2.395,0.157C81.64,43.951,81.157,46.105,79.642,47.619L79.642,47.619
		z"/>
	<path fill="#FFA964" d="M75.501,53.9c-1.514,1.516-1.998,3.668-1.449,5.593c1.922,0.548,4.076,0.063,5.592-1.449
		c1.514-1.516,1.998-3.67,1.449-5.593C79.169,51.903,77.015,52.387,75.501,53.9z"/>
	<path fill="#FF872A" d="M79.642,58.042c-1.277,1.276-3.01,1.82-4.676,1.63c0.826-0.287,1.602-0.782,2.26-1.483
		c1.492-1.598,1.982-3.859,1.473-5.896c0.801-0.117,1.615-0.063,2.395,0.156C81.64,54.373,81.157,56.527,79.642,58.042
		L79.642,58.042z"/>
	<path fill="#FFA964" d="M75.501,64.323c-1.514,1.515-1.998,3.669-1.449,5.592c1.922,0.549,4.076,0.064,5.592-1.449
		c1.514-1.514,1.998-3.669,1.449-5.592C79.169,62.326,77.015,62.81,75.501,64.323z"/>
	<path fill="#FF872A" d="M79.642,68.465c-1.277,1.277-3.01,1.821-4.676,1.63c0.826-0.287,1.602-0.782,2.26-1.483
		c1.492-1.598,1.982-3.86,1.473-5.896c0.801-0.116,1.615-0.062,2.395,0.158C81.64,64.796,81.157,66.951,79.642,68.465L79.642,68.465
		z"/>
	<path fill="#FFA964" d="M72.165,43.478c1.514,1.516,1.998,3.668,1.449,5.592c-1.922,0.549-4.078,0.064-5.592-1.448
		c-1.514-1.516-1.996-3.67-1.449-5.594C68.497,41.48,70.651,41.963,72.165,43.478z"/>
	<path fill="#FF872A" d="M73.614,49.069c-0.848,0.241-1.738,0.283-2.605,0.124c0.674-1.661,0.557-3.611-0.49-5.232
		c-0.641-0.991-1.535-1.717-2.547-2.148c1.514-0.044,3.039,0.513,4.193,1.667C73.679,44.992,74.161,47.146,73.614,49.069
		L73.614,49.069z"/>
	<path fill="#FFA964" d="M72.165,53.9c1.514,1.515,1.998,3.668,1.449,5.592c-1.922,0.549-4.078,0.064-5.592-1.449
		c-1.514-1.515-1.996-3.669-1.449-5.592C68.497,51.903,70.651,52.387,72.165,53.9z"/>
	<path fill="#FF872A" d="M73.614,59.492c-0.848,0.24-1.738,0.282-2.605,0.123c0.674-1.66,0.555-3.611-0.49-5.23
		c-0.615-0.955-1.502-1.704-2.547-2.148c1.514-0.044,3.037,0.511,4.193,1.665C73.679,55.415,74.161,57.567,73.614,59.492z"/>
	<path fill="#FFA964" d="M72.165,64.323c1.514,1.515,1.998,3.667,1.449,5.592c-1.922,0.548-4.078,0.064-5.592-1.449
		s-1.996-3.669-1.449-5.593C68.497,62.326,70.651,62.809,72.165,64.323z"/>
	<path fill="#FF872A" d="M73.614,69.915c-0.848,0.239-1.738,0.281-2.605,0.123c0.674-1.66,0.557-3.613-0.49-5.232
		c-0.615-0.955-1.502-1.704-2.547-2.148c1.514-0.045,3.037,0.511,4.193,1.665C73.679,65.837,74.161,67.992,73.614,69.915z"/>
	<g>
		<path fill="#E8B76B" d="M52.009,7.76v9.833c0,0.697-0.496,1.294-1.182,1.421c-3.734,0.695-8.166,1.098-12.917,1.098
			c-4.75,0-9.182-0.402-12.918-1.098c-0.686-0.127-1.182-0.725-1.182-1.421V7.76c0-3.46,3.621-5.728,6.732-4.213
			c2.322,1.129,4.797,2.327,7.367,2.327c2.568,0,5.045-1.198,7.367-2.327C48.388,2.033,52.009,4.3,52.009,7.76z"/>
		<path fill="#C99D5C" d="M52.009,7.76v9.833c0,0.697-0.496,1.294-1.182,1.422c-1.043,0.193-2.094,0.357-3.146,0.493
			c0.289-0.272,0.451-0.651,0.451-1.048V7.76c0-1.963-1.168-3.542-2.746-4.265C48.474,2.087,52.009,4.34,52.009,7.76z"/>
		<ellipse fill="#FBCC85" cx="37.912" cy="21.417" rx="28.107" ry="8.231"/>
		<path fill="#E8B76B" d="M66.019,21.417c0,2.495-3.793,4.731-9.783,6.24c3.264-1.761,5.184-3.914,5.184-6.24
			s-1.918-4.48-5.182-6.241C62.226,16.685,66.019,18.921,66.019,21.417L66.019,21.417z"/>
		<path fill="#FFBC8A" d="M37.912,51.13c-2.793,0-5.057-2.265-5.057-5.057v-6.847h10.111v6.847
			C42.966,48.867,40.703,51.13,37.912,51.13z"/>
		<g>
			<circle fill="#FFBC8A" cx="52.944" cy="26.179" r="3.42"/>
			<circle fill="#FFBC8A" cx="22.876" cy="26.179" r="3.42"/>
		</g>
		<path fill="#FDD1A7" d="M50.075,21.903c0.715,0.123,1.229,0.757,1.201,1.481l-0.307,8.389c-0.182,3.476-1.709,6.572-4.059,8.804
			c-2.35,2.229-5.523,3.591-9.001,3.591c-6.955,0-12.695-5.448-13.059-12.395l-0.307-8.389c-0.027-0.725,0.486-1.358,1.201-1.481
			c3.572-0.612,7.727-0.964,12.164-0.964S46.503,21.29,50.075,21.903z"/>
	</g>
	<g>
		<path fill="#EFE2DD" d="M21.398,47.604c-1.115,0-2.02,0.905-2.02,2.021v11.272c0,1.051-0.852,1.901-1.9,1.901
			c-1.051,0-1.902-0.852-1.902-1.901V49.625c0-1.115-0.904-2.021-2.021-2.021c-1.115,0-2.02,0.905-2.02,2.021v11.272
			c0,1.051-0.852,1.901-1.902,1.901c-1.049,0-1.9-0.852-1.9-1.901V49.682c0-1.088-0.836-2.023-1.922-2.075
			c-1.16-0.055-2.119,0.869-2.119,2.019v16.446c0,2.686,2.176,4.86,4.859,4.86h10.008c2.684,0,4.859-2.176,4.859-4.86V49.625
			C23.417,48.51,22.513,47.604,21.398,47.604L21.398,47.604z"/>
		<path fill="#9E9797" d="M14.292,81.929h-1.408c-0.844,0-1.527-0.685-1.527-1.528V68.831c0-1.232,1-2.231,2.23-2.231
			c1.234,0,2.232,0.999,2.232,2.231V80.4C15.82,81.244,15.134,81.929,14.292,81.929z"/>
	</g>
	<g>
		<path d="M61.735,69.584c-0.656,0-1.189,0.531-1.189,1.188l0,0v7.334c0,0.159-0.129,0.288-0.287,0.288
			c-0.656,0-1.189,0.533-1.189,1.19s0.533,1.189,1.189,1.189c1.471,0,2.668-1.196,2.668-2.669v-7.334
			C62.925,70.117,62.394,69.584,61.735,69.584z M49.688,39.141c1.469-2.146,2.332-4.658,2.471-7.306v-0.02l0.039-1.091
			c0.246,0.04,0.496,0.063,0.746,0.063c1.592,0,2.996-0.811,3.826-2.039c8.621-2.223,10.438-5.211,10.438-7.333
			c0-2.813-3.143-5.222-9.088-6.962c-1.512-0.443-3.162-0.83-4.92-1.158V7.759c0-2.038-1.031-3.9-2.758-4.98
			c-1.729-1.08-3.854-1.193-5.686-0.303c-2.232,1.086-4.541,2.208-6.847,2.208c-2.305,0-4.615-1.123-6.846-2.208
			c-1.832-0.891-3.957-0.777-5.686,0.303c-1.727,1.082-2.758,2.942-2.758,4.98v5.537c-1.758,0.328-3.408,0.715-4.92,1.158
			c-5.945,1.74-9.088,4.147-9.088,6.962c0,2.128,1.822,5.115,10.438,7.333c0.83,1.229,2.234,2.039,3.826,2.039
			c0.25,0,0.5-0.023,0.744-0.063l0.041,1.091v0.02c0.133,2.616,0.988,5.144,2.469,7.304c-5.025,0.074-9.549,2.923-11.795,7.375
			c-0.256-0.065-0.52-0.099-0.783-0.1c-1.77,0-3.209,1.438-3.209,3.21v11.272c0,0.394-0.318,0.711-0.711,0.711
			s-0.711-0.317-0.711-0.711V49.68c0-1.749-1.344-3.183-3.057-3.264c-0.887-0.04-1.729,0.271-2.369,0.884
			c-0.635,0.606-0.994,1.446-0.996,2.323v6.96c0,0.656,0.533,1.188,1.191,1.188c0.656,0,1.189-0.532,1.189-1.188v-6.96
			c0-0.229,0.092-0.442,0.256-0.602c0.166-0.158,0.385-0.242,0.615-0.229c0.436,0.021,0.789,0.418,0.789,0.887v11.216
			c0,1.705,1.387,3.092,3.092,3.092s3.092-1.387,3.092-3.092V49.625c0-0.458,0.373-0.83,0.83-0.83s0.83,0.372,0.83,0.83v11.272
			c0,1.705,1.389,3.092,3.092,3.092s3.092-1.387,3.092-3.092V49.625c0-0.458,0.373-0.83,0.83-0.83s0.83,0.372,0.83,0.83v16.446
			c0,2.024-1.646,3.671-3.67,3.671h-1.549V68.83c0-1.888-1.535-3.422-3.422-3.422s-3.422,1.534-3.422,3.422v0.912H8.55
			c-2.023,0-3.67-1.646-3.67-3.671v-3.9c0-0.657-0.533-1.19-1.189-1.19c-0.658,0-1.191,0.533-1.191,1.19v3.9
			c0,3.336,2.715,6.052,6.051,6.052h1.615v9.806c0,0.657,0.533,1.19,1.189,1.19s1.189-0.533,1.189-1.19V68.83
			c0-0.574,0.467-1.041,1.043-1.041c0.574,0,1.041,0.467,1.041,1.041v13.099c0,0.657,0.533,1.19,1.191,1.19
			c0.656,0,1.189-0.533,1.189-1.19v-9.806h1.549c1.379,0,2.65-0.466,3.67-1.245v8.265c0,0.657,0.533,1.189,1.189,1.189
			c0.658,0,1.191-0.532,1.191-1.189V65.669h26.603v13.474c0,0.657,0.533,1.189,1.191,1.189c0.656,0,1.188-0.532,1.188-1.189V60.135
			c0-0.657-0.531-1.19-1.188-1.19c-0.658,0-1.191,0.533-1.191,1.19v3.154h-2.336V41.516h0.613c6.096,0,11.057,4.96,11.057,11.056
			v12.617c0,0.657,0.531,1.189,1.189,1.189c0.656,0,1.189-0.532,1.189-1.189V52.572C62.925,45.231,57.005,39.249,49.688,39.141
			L49.688,39.141z M52.944,28.408c-0.223,0-0.443-0.033-0.656-0.1l0.156-4.302c0.164-0.038,0.332-0.058,0.5-0.059
			c1.229,0,2.229,1,2.229,2.229C55.173,27.408,54.173,28.408,52.944,28.408z M25.001,7.76c0-1.212,0.613-2.32,1.641-2.963
			c1.027-0.644,2.291-0.71,3.381-0.181c2.359,1.147,5.033,2.448,7.889,2.448s5.527-1.3,7.886-2.448
			c1.09-0.529,2.355-0.463,3.381,0.181c1.029,0.643,1.643,1.75,1.643,2.963v5.14c-3.957-0.591-8.355-0.904-12.91-0.904
			s-8.951,0.312-12.91,0.904V7.76L25.001,7.76z M22.876,28.408c-1.229,0-2.229-1-2.229-2.229s1-2.229,2.229-2.229
			c0.17,0,0.338,0.021,0.5,0.058l0.158,4.302C23.322,28.375,23.101,28.408,22.876,28.408z M25.734,23.341
			c-0.004-0.13,0.086-0.243,0.213-0.266c3.607-0.619,7.746-0.947,11.963-0.947c0.688,0,1.406,0.01,2.133,0.028
			c0.656,0.021,1.203-0.501,1.221-1.158s-0.502-1.203-1.158-1.222l0,0c-0.748-0.02-1.486-0.028-2.193-0.028
			c-4.35,0-8.627,0.339-12.365,0.98c-0.658,0.113-1.225,0.468-1.617,0.962c-0.344-0.081-0.697-0.122-1.051-0.122
			c-2.504,0-4.547,2.007-4.607,4.496c-5.332-1.574-7.275-3.445-7.275-4.648c0-2.94,10.24-7.041,26.916-7.041
			c16.677,0,26.917,4.101,26.917,7.041c0,1.196-1.941,3.071-7.277,4.647c-0.061-2.488-2.102-4.495-4.605-4.495
			c-0.357,0-0.709,0.042-1.053,0.122c-0.393-0.494-0.957-0.849-1.615-0.962c-1.42-0.244-2.936-0.446-4.502-0.602
			c-0.654-0.067-1.236,0.413-1.301,1.066c-0.066,0.654,0.41,1.236,1.064,1.303l0,0c1.512,0.149,2.969,0.345,4.334,0.579
			c0.127,0.021,0.219,0.136,0.215,0.266l-0.307,8.379c-0.162,3.05-1.471,5.888-3.689,7.992s-5.125,3.265-8.181,3.265
			c-6.324,0-11.535-4.943-11.871-11.257L25.734,23.341z M34.044,44.824c2.529,0.713,5.205,0.713,7.732,0.002v1.248
			c0,2.132-1.734,3.865-3.867,3.865c-2.131,0-3.865-1.733-3.865-3.865V44.824L34.044,44.824z M24.609,49.625
			c0-1.771-1.441-3.21-3.211-3.21s-3.209,1.439-3.209,3.21v11.272c0,0.394-0.318,0.711-0.711,0.711
			c-0.395,0-0.711-0.317-0.711-0.711V49.625c0-0.593-0.166-1.173-0.479-1.678c1.803-3.923,5.727-6.436,10.045-6.431h0.611v21.773
			h-2.336V49.625L24.609,49.625z M29.324,63.289V42.482c0.732,0.553,1.516,1.035,2.34,1.436v2.155c0,3.443,2.803,6.245,6.246,6.245
			c3.445,0,6.246-2.802,6.246-6.245v-2.154c0.824-0.402,1.607-0.884,2.34-1.438v20.808H29.324L29.324,63.289z"/>
		<path d="M75.612,60.9c1.826,0,3.58-0.725,4.871-2.017c1.766-1.765,2.438-4.355,1.754-6.76c-0.113-0.396-0.424-0.706-0.82-0.819
			c-2.232-0.634-4.637-0.101-6.395,1.418v-2.273c0.195,0.018,0.395,0.028,0.59,0.028c1.826,0,3.58-0.725,4.871-2.017
			c1.766-1.766,2.438-4.355,1.754-6.759c-0.113-0.397-0.424-0.707-0.82-0.819c-2.232-0.634-4.637-0.102-6.395,1.417V41.23
			c0-0.658-0.533-1.189-1.189-1.189c-0.658,0-1.189,0.532-1.189,1.189v1.069c-1.758-1.52-4.16-2.051-6.396-1.417
			c-0.395,0.113-0.705,0.422-0.818,0.819c-0.686,2.404-0.012,4.995,1.752,6.759c1.295,1.292,3.047,2.017,4.873,2.017
			c0.195,0,0.393-0.012,0.59-0.028v2.272c-1.758-1.519-4.16-2.051-6.396-1.417c-0.395,0.112-0.705,0.423-0.818,0.819
			c-0.686,2.403-0.012,4.993,1.752,6.76c1.295,1.291,3.047,2.017,4.873,2.017c0.195,0,0.393-0.012,0.59-0.028v2.272
			c-1.758-1.519-4.16-2.051-6.396-1.417c-0.395,0.112-0.705,0.422-0.818,0.819c-0.686,2.403-0.012,4.994,1.752,6.76
			c1.295,1.291,3.047,2.018,4.873,2.016c0.195,0,0.393-0.011,0.59-0.027V81.93c0,0.657,0.531,1.19,1.189,1.19
			c0.656,0,1.189-0.533,1.189-1.19V71.295c0.195,0.017,0.395,0.027,0.59,0.027c1.826,0,3.58-0.726,4.871-2.017
			c1.766-1.766,2.438-4.354,1.754-6.76c-0.113-0.396-0.424-0.707-0.82-0.819c-2.232-0.634-4.637-0.102-6.395,1.417v-2.271
			C75.218,60.889,75.417,60.9,75.612,60.9L75.612,60.9z M76.341,54.742c0.99-0.989,2.377-1.453,3.744-1.285
			c0.172,1.38-0.303,2.761-1.285,3.744c-0.982,0.982-2.363,1.456-3.744,1.284C74.886,57.106,75.36,55.726,76.341,54.742
			L76.341,54.742z M76.341,44.319c0.984-0.98,2.365-1.457,3.744-1.284c0.172,1.379-0.303,2.761-1.285,3.743
			s-2.363,1.456-3.744,1.285C74.886,46.684,75.36,45.303,76.341,44.319L76.341,44.319z M72.608,48.062
			c-1.379,0.172-2.762-0.302-3.744-1.284c-0.99-0.989-1.455-2.377-1.285-3.743c1.367-0.17,2.754,0.296,3.744,1.284
			C72.304,45.303,72.78,46.684,72.608,48.062L72.608,48.062z M72.608,58.485c-1.379,0.172-2.762-0.302-3.744-1.283
			c-0.982-0.984-1.457-2.365-1.285-3.745c1.367-0.168,2.754,0.296,3.744,1.286C72.304,55.726,72.78,57.106,72.608,58.485z
			 M72.608,68.908c-1.379,0.173-2.762-0.302-3.744-1.284c-0.99-0.989-1.455-2.377-1.285-3.744c1.367-0.168,2.754,0.296,3.744,1.286
			C72.304,66.148,72.78,67.529,72.608,68.908z M76.341,65.165c0.99-0.989,2.377-1.454,3.744-1.286
			c0.172,1.38-0.303,2.761-1.285,3.745c-0.982,0.981-2.363,1.456-3.744,1.283C74.886,67.529,75.36,66.148,76.341,65.165
			L76.341,65.165z M31.816,31.785c0.656,0,1.189-0.533,1.189-1.19V30.58c0-0.657-0.533-1.184-1.189-1.184
			c-0.658,0-1.191,0.541-1.191,1.198C30.625,31.252,31.158,31.785,31.816,31.785z M44.007,31.785c0.656,0,1.189-0.532,1.189-1.19
			V30.58c0-0.657-0.533-1.184-1.189-1.184c-0.658,0-1.189,0.541-1.189,1.198C42.818,31.252,43.349,31.785,44.007,31.785z
			 M37.912,39.329c2.098,0,3.969-1.409,4.549-3.428c0.184-0.632-0.182-1.291-0.814-1.473s-1.291,0.183-1.473,0.815l0,0
			c-0.289,1.004-1.219,1.704-2.264,1.704c-1.043,0-1.973-0.7-2.262-1.704c-0.184-0.633-0.842-0.997-1.475-0.815
			c-0.631,0.182-0.996,0.841-0.814,1.473l0,0C33.941,37.919,35.812,39.329,37.912,39.329L37.912,39.329z M45.78,70.843h-15.74
			c-0.656,0-1.189,0.532-1.189,1.188c0,0.657,0.533,1.19,1.189,1.19h15.74c0.658,0,1.189-0.533,1.189-1.19
			C46.97,71.375,46.438,70.843,45.78,70.843z M64.409,12.726c0.658,0,1.189-0.533,1.189-1.189c0-0.746,0.607-1.354,1.354-1.354
			c0.4,0,0.781,0.179,1.037,0.483c-0.541,0.373-0.678,1.115-0.303,1.656c0.221,0.321,0.588,0.514,0.979,0.514h1.664
			c0.656,0,1.189-0.533,1.189-1.19c0-0.391-0.191-0.757-0.516-0.979c0.258-0.307,0.637-0.483,1.037-0.483
			c0.746,0,1.354,0.606,1.354,1.354c0,0.656,0.533,1.189,1.189,1.189c0.658,0,1.189-0.533,1.189-1.189
			c0-2.06-1.676-3.733-3.732-3.733c-0.982,0-1.877,0.381-2.545,1.004c-0.666-0.622-1.561-1.004-2.543-1.004
			c-2.059,0-3.734,1.675-3.734,3.733C63.218,12.193,63.753,12.725,64.409,12.726L64.409,12.726z M6.955,39.645
			c0.658,0,1.191-0.533,1.191-1.189c0-0.746,0.605-1.354,1.354-1.354c0.4,0,0.779,0.177,1.035,0.484
			c-0.322,0.222-0.514,0.588-0.514,0.979c0,0.657,0.531,1.19,1.189,1.19h1.664c0.656,0,1.189-0.533,1.189-1.19
			c0-0.391-0.193-0.757-0.516-0.979c0.256-0.308,0.637-0.484,1.037-0.484c0.746,0,1.354,0.607,1.354,1.354
			c0,0.656,0.533,1.189,1.189,1.189c0.658,0,1.191-0.533,1.191-1.189c0-2.06-1.676-3.734-3.734-3.734
			c-0.982,0-1.877,0.382-2.543,1.004c-0.668-0.622-1.562-1.004-2.543-1.004c-2.059,0-3.734,1.675-3.734,3.734
			C5.765,39.113,6.296,39.645,6.955,39.645L6.955,39.645L6.955,39.645z M71.288,29.753c-2.059,0-3.732,1.675-3.732,3.733
			c0,0.657,0.531,1.19,1.189,1.19s1.189-0.533,1.189-1.19c0-0.747,0.607-1.354,1.354-1.354c0.4,0,0.779,0.178,1.037,0.484
			c-0.541,0.372-0.678,1.113-0.305,1.654c0.223,0.322,0.588,0.515,0.979,0.515h1.664c0.658,0,1.189-0.533,1.189-1.19
			c0-0.391-0.191-0.757-0.514-0.979c0.256-0.308,0.637-0.484,1.035-0.484c0.746,0,1.355,0.606,1.355,1.354
			c0,0.657,0.531,1.19,1.188,1.19c0.658,0,1.191-0.533,1.191-1.19c0-2.059-1.676-3.733-3.734-3.733c-0.98,0-1.877,0.382-2.543,1.004
			C73.165,30.135,72.271,29.753,71.288,29.753L71.288,29.753z"/>
	</g>
</g>
</svg>
