<?xml version="1.0" encoding="utf-8"?>
<!-- Generator: Adobe Illustrator 16.0.2, SVG Export Plug-In . SVG Version: 6.00 Build 0)  -->
<!DOCTYPE svg PUBLIC "-//W3C//DTD SVG 1.1 Tiny//EN" "http://www.w3.org/Graphics/SVG/1.1/DTD/svg11-tiny.dtd">
<svg version="1.1" baseProfile="tiny" id="Layer_1" xmlns="http://www.w3.org/2000/svg" xmlns:xlink="http://www.w3.org/1999/xlink"
	 x="0px" y="0px" width="85px" height="85px" viewBox="0 0 85 85" xml:space="preserve">
<g>
	<path fill-rule="evenodd" d="M82.499,40.364c0.043-2.846-2.014-4.973-4.956-4.93c-6.068,0.086-12.14,0.018-18.21,0.039
		c-0.563,0.002-0.727-0.141-0.7-0.704c0.048-1.015,0.033-2.033,0.011-3.048c-0.097-4.398-2.111-7.563-6.108-9.439
		c-0.117-0.055-0.254-0.08-0.262-0.247c3.4-2.401,3.886-6.412,2.036-9.076c-0.923-1.328-1.381-2.557-1.295-4.145
		c0.072-1.341-0.995-2.361-2.296-2.401c-1.389-0.043-2.782-0.042-4.171,0c-1.318,0.039-2.271,1.06-2.307,2.396
		c-0.017,0.614-0.03,1.231,0.003,1.845c0.026,0.459-0.117,0.781-0.442,1.122c-2.607,2.736-2.455,7.022,0.316,9.542
		c0.29,0.263,0.605,0.5,0.984,0.811c-1.668,0.666-3.039,1.644-4.164,2.968c-0.433,0.509-0.514,0.972-0.036,1.477
		c0.7,0.342,0.91,0.282,1.527-0.436c2.459-2.867,6.651-3.673,9.966-1.875c2.694,1.459,4.153,3.747,4.406,6.802
		c0.143,0.875,0.059,1.758,0.063,2.638c0.009,1.546-0.123,1.643-1.638,1.496c-0.434-0.043-0.629-0.229-0.619-0.654
		c0.004-0.214-0.01-0.427-0.01-0.64c0.025-0.659,0.057-1.323-0.028-1.98c-0.093-0.698-0.504-1.067-1.088-1.018
		c-0.648,0.054-0.912,0.477-0.95,1.071c-0.04,0.661-0.034,1.323-0.005,1.985c-0.046,1.223-0.046,1.225-1.278,1.226
		c-1.736,0.002-3.472,0.002-5.206,0c-1.185-0.001-1.185-0.006-1.233-1.194c0.003-0.691,0.069-1.389-0.063-2.074
		c-0.09-0.471-0.343-0.858-0.843-0.968c-0.515-0.113-0.878,0.115-1.084,0.597c-0.137,0.737-0.053,1.48-0.065,2.219
		c-0.025,1.459-0.087,1.524-1.538,1.424c-0.079-0.005-0.158-0.011-0.237-0.018c-0.322-0.025-0.464-0.211-0.482-0.52
		c-0.012-0.238-0.012-0.476-0.02-0.713c0.018-0.665,0.068-1.337-0.033-1.995c-0.082-0.534-0.226-1.095-1-0.913
		c-0.62,0.094-0.829,0.476-0.813,1.074c0.024,0.936-0.012,1.873,0.014,2.807c0.012,0.405-0.086,0.552-0.522,0.547
		c-2.166-0.022-4.332-0.023-6.498,0c-0.485,0.005-0.561-0.122-0.476-0.589c0.512-2.796-0.759-5.532-3.195-6.964
		c-2.359-1.387-5.25-1.181-7.517,0.526c-0.211,0.159-0.375,0.556-0.738,0.099c-0.915-1.149-1.805-2.31-2.541-3.593
		c1.789-0.589,2.338-1.357,2.338-3.244c0.001-2.781,0.003-5.562,0-8.343c-0.003-1.832-0.726-2.708-2.513-3.004
		c-0.339-0.056-0.453-0.163-0.445-0.499c0.017-0.721,0.026-1.445-0.008-2.165c-0.068-1.449-1.188-2.491-2.62-2.471
		c-1.415,0.019-2.511,1.107-2.551,2.55c-0.018,0.641-0.036,1.285,0.005,1.924c0.031,0.474-0.105,0.628-0.597,0.679
		c-1.362,0.143-2.303,1.097-2.319,2.418c-0.037,3.208-0.036,6.418-0.001,9.625c0.015,1.328,0.982,2.343,2.299,2.431
		c0.573,0.039,0.621,0.269,0.618,0.733c-0.017,2.647-0.008,5.295-0.008,7.941c0,1.578,0.003,3.156-0.003,4.733
		c0,0.24,0.117,0.586-0.344,0.543c-0.623-0.057-1.201,0.156-1.855,0.354c0-0.347,0-0.633,0-0.919
		c-0.002-2.727,0.022-5.455-0.015-8.181c-0.025-1.819-1.517-3.239-3.302-3.24c-1.786,0-3.289,1.428-3.305,3.236
		c-0.031,3.53-0.009,7.06-0.017,10.589c0,0.406,0.095,0.736,0.498,0.912c0.883,0.2,1.233-0.036,1.356-0.923
		c0.047-0.344,0.032-0.692,0.033-1.041c0-2.886-0.001-5.773,0-8.659c0.001-0.347-0.018-0.697,0.053-1.039
		c0.135-0.652,0.71-1.138,1.359-1.159c0.608-0.021,1.239,0.485,1.383,1.126c0.089,0.394,0.062,0.798,0.062,1.198
		c0.001,6.574,0,13.148,0.001,19.724c0,0.32-0.007,0.642,0.007,0.962c0.048,1.132,0.451,1.543,1.563,1.595
		c0.293,0.013,0.588,0.007,0.882,0.007c4.597,0,9.194,0.005,13.791-0.001c4.463-0.006,8.926,0.023,13.39-0.017
		c1.166,0.08,1.166,0.08,1.174,1.277c0,0.16,0,0.32,0,0.479c0,1.621,0,1.628-1.631,1.628c-9.743,0.003-19.486,0.001-29.229,0.001
		c-0.345,0-0.695,0.023-1.029-0.104c-1.286-0.461-1.774-1.137-1.788-2.499c-0.012-1.116,0.001-2.233-0.004-3.349
		C4.377,49.66,4.43,48.57,4.357,47.482c-0.063-0.949-0.445-1.208-1.341-0.989c-0.487,0.208-0.501,0.627-0.5,1.07
		c0.006,2.166-0.002,4.332,0.002,6.497c0.005,2.729,1.574,4.37,4.288,4.383c0.693,0.003,0.753,0.26,0.749,0.825
		c-0.021,3.128-0.019,6.255-0.001,9.383c0.003,0.517-0.112,0.846-0.567,1.186c-2.575,1.923-2.942,5.575-0.858,8.014
		c2.06,2.407,5.785,2.569,8.066,0.35c2.285-2.222,2.259-5.974-0.182-8.04c-0.757-0.64-0.978-1.253-0.934-2.155
		c0.025-0.516,0.139-0.658,0.664-0.657c8.794,0.017,17.589,0.017,26.384,0c0.498-0.001,0.623,0.12,0.615,0.615
		c-0.032,1.897-0.035,3.797,0.001,5.694c0.01,0.527-0.162,0.626-0.654,0.68c-2.021,0.219-3.516,1.72-3.679,3.613
		c-0.097,1.126,0.477,1.794,1.599,1.813c1.149,0.02,2.299,0.005,3.448,0.005c5.882,0,11.762,0.004,17.643-0.002
		c1.344-0.001,1.904-0.658,1.727-1.971c-0.262-1.915-1.633-3.222-3.722-3.468c-0.448-0.053-0.572-0.177-0.567-0.616
		c0.022-1.924,0.033-3.849-0.005-5.772c-0.012-0.546,0.2-0.599,0.646-0.588c1.068,0.027,2.14-0.02,3.208,0.02
		c0.633,0.023,1.021-0.204,1.188-0.812c0.103-0.67-0.328-0.902-0.865-1.015c-0.419-0.088-0.852-0.049-1.278-0.049
		c-14.579-0.002-29.159-0.002-43.74,0c-0.32,0-0.641-0.015-0.962,0.021c-0.295,0.007-0.588,0.013-0.881-0.013
		c-0.231-0.021-0.384-0.123-0.46-0.367c-0.358-1.146,0.036-1.715,1.201-1.714c0.053,0,0.106,0.006,0.158,0.009
		c7.909,0.037,15.821,0.019,23.732,0.004c1.604,0.021,3.208,0.011,4.811,0.011c8.745,0.002,17.487,0,26.23,0.003
		c1.191,0,1.191,0.007,1.297,1.089c-0.071,0.947-0.086,0.962-1.031,0.976c-0.824,0.013-1.649-0.044-2.47,0.032
		c-0.758,0.071-0.985,0.332-0.99,1.016c0.111,0.611,0.489,0.819,1.088,0.806c1.07-0.026,2.14-0.013,3.209-0.003
		c0.165,0.002,0.368-0.094,0.481,0.151c0.232,0.507-0.112,1.947-0.559,2.301c-1.378,1.091-2.145,2.513-2.2,4.27
		c-0.084,2.635,1.711,4.92,4.308,5.552c2.493,0.606,5.142-0.688,6.257-3.061c1.103-2.343,0.426-5.17-1.687-6.743
		c-0.451-0.336-0.584-0.666-0.571-1.183c0.027-1.176-0.006-2.354,0.015-3.53c0.011-0.633-0.284-1.495,0.125-1.834
		c0.384-0.32,1.216-0.114,1.852-0.117c2.483-0.008,3.822-1.328,3.824-3.795C82.471,53.037,82.401,46.698,82.499,40.364z
		 M16.869,38.79c-0.506-0.004-0.317-0.411-0.318-0.654c-0.013-2.908-0.008-5.813-0.008-8.72c0-0.712,0-1.425,0-2.314
		c0.797,1.003,1.463,1.862,2.155,2.701c0.183,0.222,0.174,0.371,0.056,0.626c-1.48,3.177-1.084,5.594,1.435,8.365
		C19.015,38.794,17.941,38.801,16.869,38.79z"/>
	<path fill-rule="evenodd" fill="#858585" d="M6.059,56.788c-1.291-0.366-1.925-1.16-1.931-2.472
		c-0.01-2.233,0.002-4.468-0.005-6.701c-0.003-0.934-0.205-1.125-1.106-1.122c0.438-0.531,0.435-1.229-0.007-1.742
		c0.029-0.047,0.063-0.087,0.11-0.111c0.292-0.152,0.729-0.158,0.735-0.621c0.005-0.467-0.429-0.478-0.724-0.626
		c-0.048-0.023-0.084-0.063-0.115-0.107c0.438-0.529,0.436-1.228-0.004-1.741c0.906,0.01,1.109-0.181,1.111-1.123
		c0.006-3.393-0.008-6.786,0.009-10.18c0.007-1.341,1.177-2.172,2.336-1.688c0.642,0.267,1.027,0.75,1.063,1.467
		c0.014,0.267,0.012,0.534,0.012,0.802c0,6.947,0,13.894,0,20.841c0,1.277,0.161,1.441,1.415,1.441
		c8.978-0.001,17.956-0.004,26.935-0.006c0.32-0.001,0.64,0.009,0.961,0.015c0.416,0.45,0.276,1.011,0.281,1.531
		c0.019,2.202,0.01,2.202-2.142,2.202c-9.354,0-18.707,0.002-28.06-0.002C6.641,56.845,6.344,56.899,6.059,56.788z"/>
	<path fill-rule="evenodd" fill="#0BBD6E" d="M40.903,26.573c0.596,0.167,0.979-0.081,1.367-0.545c2.169-2.598,5.765-3.58,8.987-2.5
		c3.166,1.063,5.519,4.005,5.703,7.139c0.006,0.08-0.005,0.16-0.008,0.239c0.129,0.918,0.026,1.841,0.058,2.762
		c0.01,0.286-0.132,0.474-0.397,0.5c-0.751,0.075-1.518,0.255-2.229-0.186c-0.008-0.661-0.012-1.323-0.028-1.984
		c-0.013-0.548-0.229-0.942-0.844-0.919c-0.569,0.021-0.756,0.397-0.757,0.917c-0.001,0.661-0.017,1.323-0.026,1.985
		c-0.271,0.279-0.627,0.257-0.969,0.258c-2.07,0.011-4.141,0.01-6.21,0.003c-0.345-0.001-0.694-0.006-0.979-0.254
		c-0.011-0.634-0.019-1.268-0.033-1.901c-0.009-0.417-0.104-0.812-0.544-0.966c-0.47-0.165-0.82,0.033-1.047,0.465
		c-0.123,0.658-0.036,1.322-0.05,1.983c-0.007,0.295-0.06,0.559-0.388,0.591c-0.755,0.073-1.525,0.257-2.242-0.177
		c-0.008-0.628-0.032-1.256-0.021-1.884c0.009-0.577-0.204-0.959-0.802-1.067c0.064-0.513,0.129-1.025,0.193-1.538
		c0.831-0.536,0.831-0.536,0.565-1.603C40.365,27.414,40.589,26.969,40.903,26.573z"/>
	<path fill-rule="evenodd" fill="#EEBE27" d="M71.068,64.63c0.094,1.125,0.094,1.125-1.012,1.125c-0.882,0-1.764,0.017-2.644-0.005
		c-0.595-0.015-0.976,0.202-1.087,0.812c-0.514-0.001-1.026-0.001-1.541-0.003c-0.864-0.676-0.864-0.676-1.669,0.002
		c-0.515,0-1.028-0.002-1.541-0.002c-0.18-0.726-0.703-0.813-1.354-0.813c-14.895,0.011-29.789,0.01-44.683,0.009
		c-0.32,0-0.641-0.017-0.96-0.025c-0.388-0.843-0.377-1.686-0.001-2.529c1.731-0.011,3.464-0.028,5.196-0.03
		c5.918-0.004,11.836-0.003,17.754,0c0.319,0,0.638,0.022,0.957,0.033c1.573,1.005,3.3,1.205,5.137,1.195
		c8.66-0.048,17.32-0.023,25.98-0.018C70.099,64.381,70.623,64.281,71.068,64.63z"/>
	<path fill-rule="evenodd" d="M69.486,28.016c0.005,0.209-0.235,0.504-0.625,0.601c-1.591,0.393-2.273,1.553-2.61,3.016
		c-0.115,0.5-0.293,0.939-0.9,0.946c-0.657,0.007-0.826-0.458-0.929-0.995c-0.276-1.449-1.038-2.486-2.51-2.916
		c-0.446-0.131-0.762-0.421-0.735-0.92c0.023-0.452,0.314-0.713,0.745-0.825c1.367-0.356,2.07-1.318,2.398-2.625
		c0.052-0.207,0.111-0.411,0.165-0.617c0.118-0.446,0.421-0.694,0.865-0.689c0.406,0.003,0.699,0.232,0.814,0.646
		c0.071,0.256,0.152,0.51,0.22,0.767c0.329,1.247,1.025,2.154,2.319,2.506C69.157,27.035,69.474,27.271,69.486,28.016z"/>
	<path fill-rule="evenodd" fill="#060503" d="M63.116,66.561c0.093-0.454,0.315-0.789,0.822-0.795
		c0.517-0.006,0.699,0.384,0.847,0.793c-0.147,0.409-0.324,0.801-0.847,0.796C63.427,67.351,63.21,67.014,63.116,66.561z"/>
	<path fill-rule="evenodd" fill="#030605" d="M40.204,27.892c0.287,0.306,0.614,0.592,0.397,1.086
		c-0.188,0.431-0.544,0.528-0.963,0.516c-0.389-0.238-0.662-0.545-0.516-1.037C39.284,27.909,39.729,27.861,40.204,27.892z"/>
	<path fill-rule="evenodd" fill="#040404" d="M3.016,43.285c0.601-0.075,1.104,0.079,1.076,0.776
		c-0.025,0.646-0.519,0.774-1.082,0.689C2.329,44.172,2.33,43.86,3.016,43.285z"/>
	<path fill-rule="evenodd" fill="#EDEDED" d="M59.423,37.055c6.015,0,12.03,0,18.046,0c2.353,0,3.396,1.028,3.396,3.348
		c0.002,6.282,0.002,12.564,0,18.846c0,1.731-0.579,2.313-2.3,2.313c-12.083,0.002-24.166,0-36.25,0c-1.71,0-2.34-0.615-2.34-2.298
		c-0.003-7.138,0.01-14.275-0.018-21.413c-0.003-0.698,0.223-0.813,0.859-0.81C47.02,37.065,53.221,37.055,59.423,37.055z"/>
	<path fill-rule="evenodd" fill="#EDEDED" d="M36.875,51.47c-2.749,0.008-5.498,0.021-8.247,0.024
		c-6.22,0.006-12.44-0.004-18.659,0.025c-0.66,0.003-0.863-0.156-0.834-0.831c0.057-1.332,0.011-2.669,0.022-4.002
		c0.002-0.226-0.11-0.481,0.107-0.678c0.255-0.121,0.527-0.063,0.791-0.064c8.663-0.003,17.326-0.003,25.989-0.002
		c0.977,0,1.07,0.073,1.087,1.017c0.023,1.202,0.014,2.405,0.002,3.608C37.131,50.889,37.116,51.214,36.875,51.47z"/>
	<path fill-rule="evenodd" fill="#FCB49E" d="M29.666,33.654c0.013,2.815-2.269,5.129-5.066,5.137
		c-2.8,0.008-5.097-2.293-5.095-5.105c0.002-2.786,2.238-5.054,5.021-5.096C27.309,28.548,29.652,30.857,29.666,33.654z"/>
	<path fill-rule="evenodd" fill="#FEFEFE" d="M38.878,61.564c-4.834,0-9.512,0-14.189,0c-3.636,0-7.271-0.009-10.907,0.008
		c-0.477,0.002-0.742-0.054-0.693-0.633c0.066-0.793-0.247-1.841,0.153-2.319c0.416-0.497,1.5-0.147,2.29-0.149
		c7.351-0.011,14.702,0.002,22.053-0.019c0.609-0.003,0.858,0.124,0.795,0.776C38.308,60.002,38.444,60.766,38.878,61.564z"/>
	<path fill-rule="evenodd" fill="#EEBE27" d="M17.895,17.649c0,1.417,0.008,2.834-0.002,4.25c-0.008,1.074-0.311,1.371-1.393,1.375
		c-1.737,0.005-3.475,0.008-5.212-0.002c-0.943-0.005-1.231-0.305-1.254-1.25c-0.004-0.187,0.026-0.379-0.005-0.561
		c-0.142-0.804,0.164-1.105,0.983-0.992c0.601,0.083,1.122-0.157,1.098-0.841c-0.022-0.64-0.544-0.833-1.104-0.742
		c-0.853,0.137-1.103-0.233-0.975-1.01c0.018-0.104,0.003-0.213,0.003-0.32c0-1.152,0-1.167,1.145-1.207
		c0.537-0.018,0.92-0.242,0.933-0.772c0.014-0.576-0.384-0.816-0.954-0.837c-1.126-0.04-1.126-0.053-1.123-1.225
		c0.003-1.392,0.184-1.573,1.578-1.575c1.657-0.001,3.314-0.007,4.971,0.002c0.98,0.006,1.3,0.317,1.31,1.297
		C17.905,14.709,17.895,16.18,17.895,17.649z"/>
	<path fill-rule="evenodd" fill="#EDEDED" d="M17.382,44.347c-2.512,0-5.023-0.019-7.534,0.013
		c-0.567,0.007-0.754-0.162-0.706-0.721c0.047-0.53-0.012-1.069,0.018-1.601c0.057-1.019,0.678-1.631,1.698-1.633
		c4.783-0.011,9.564-0.01,14.347,0c0.821,0.001,1.28,0.455,1.361,1.263c0.008,0.08,0.004,0.16,0.006,0.24
		c0.064,2.177-0.19,2.439-2.377,2.439C21.923,44.347,19.652,44.347,17.382,44.347z"/>
	<path fill-rule="evenodd" fill="#FCB49E" d="M48.671,12.506c0.802,0,1.608,0.063,2.4-0.018c0.752-0.077,1.195,0.271,1.606,0.804
		c1.629,2.117,1.319,5.177-0.708,6.938c-2.064,1.791-5.123,1.646-7.016-0.332c-1.848-1.934-1.869-5.017-0.058-6.973
		c0.27-0.291,0.553-0.442,0.972-0.428C46.801,12.529,47.736,12.506,48.671,12.506z"/>
	<path fill-rule="evenodd" fill="#858585" d="M10.319,78.151c-2.174-0.003-3.932-1.75-3.928-3.904
		c0.003-2.168,1.736-3.928,3.898-3.959c2.171-0.032,3.97,1.768,3.967,3.97C14.256,76.417,12.499,78.154,10.319,78.151z"/>
	<path fill-rule="evenodd" fill="#858585" d="M73.925,78.15c-2.167,0.014-3.961-1.725-3.981-3.861
		c-0.023-2.175,1.771-3.992,3.948-4.003c2.143-0.011,3.909,1.76,3.921,3.931C77.827,76.4,76.11,78.138,73.925,78.15z"/>
	<path fill-rule="evenodd" fill="#E6A423" d="M71.068,64.63c-9.722,0.001-19.442,0.011-29.163-0.01
		c-1.302-0.003-2.531-0.346-3.423-1.417c0.319-0.011,0.639-0.033,0.958-0.033c10.098-0.001,20.195-0.001,30.293-0.001
		C71.188,63.169,71.188,63.169,71.068,64.63z"/>
	<path fill-rule="evenodd" fill="#0BBD6E" d="M47.783,68.805c0.01,1.657,0.015,3.314,0.036,4.972
		c0.004,0.368-0.113,0.523-0.502,0.521c-1.498-0.015-2.994-0.015-4.491,0c-0.391,0.004-0.504-0.146-0.499-0.517
		c0.021-1.657,0.023-3.314,0.032-4.973c0.199-0.21,0.464-0.245,0.729-0.249c1.32-0.022,2.641-0.021,3.962-0.001
		C47.316,68.562,47.576,68.609,47.783,68.805z"/>
	<path fill-rule="evenodd" fill="#0BBD6D" d="M54.845,74.23c-1.764,0.11-3.527,0.082-5.292,0.016
		c-0.177-1.703-0.029-3.41-0.077-5.115c-0.012-0.389,0.238-0.528,0.556-0.545c1.441-0.077,2.883-0.073,4.324-0.002
		c0.311,0.017,0.579,0.144,0.567,0.534C54.876,70.822,55.028,72.529,54.845,74.23z"/>
	<path fill-rule="evenodd" fill="#70C0E7" d="M36.877,43.929c-2.904-0.728-5.394-3.728-5.587-6.729
		c1.752-0.18,3.508-0.04,5.263-0.078c0.547-0.011,0.552,0.427,0.567,0.792c0.044,1.013,0.014,2.026,0.018,3.041
		c0.002,0.666,0.011,1.334-0.005,2C37.125,43.295,37.159,43.655,36.877,43.929z"/>
	<path fill-rule="evenodd" fill="#EDEDED" d="M14.893,26.287c0.017,1.786,0.042,3.571,0.048,5.356
		c0.009,2.161-0.01,4.322,0.013,6.483c0.005,0.489-0.077,0.695-0.639,0.684c-1.353-0.027-1.356,0.005-1.353-1.314
		c0.01-3.733,0.022-7.467,0.033-11.201C13.625,25.913,14.258,25.931,14.893,26.287z"/>
	<path fill-rule="evenodd" fill="#858585" d="M54.269,78.154c-1.417,0-2.832-0.013-4.247,0.007c-0.439,0.007-0.599-0.12-0.612-0.586
		c-0.05-1.678-0.068-1.678,1.605-1.678c1.844,0,3.687-0.004,5.529,0.001c1.091,0.005,1.992,0.364,2.488,1.414
		c0.324,0.687,0.232,0.838-0.519,0.841C57.099,78.158,55.684,78.154,54.269,78.154z"/>
	<path fill-rule="evenodd" fill="#858585" d="M42.895,78.154c-1.442,0-2.884-0.016-4.326,0.007c-0.505,0.009-0.59-0.15-0.431-0.609
		c0.329-0.951,1.183-1.624,2.33-1.642c2.27-0.033,4.539-0.003,6.809-0.02c0.426-0.003,0.531,0.161,0.549,0.563
		c0.072,1.7,0.086,1.7-1.567,1.7C45.139,78.154,44.016,78.154,42.895,78.154z"/>
	<path fill-rule="evenodd" fill="#FDFDFD" d="M33.662,44.345c-1.777,0-3.554-0.011-5.331,0.009
		c-0.439,0.006-0.342-0.172-0.296-0.473c0.199-1.318,0.394-2.649-0.403-3.867c-0.134-0.203-0.114-0.313,0.11-0.432
		c0.73-0.386,1.365-0.905,1.989-1.601C30.302,40.621,31.614,42.668,33.662,44.345z"/>
	<path fill-rule="evenodd" fill="#0BBD6D" d="M48.622,10.898c-0.746,0-1.493-0.02-2.24,0.008c-0.426,0.016-0.53-0.146-0.549-0.554
		c-0.101-2.337-0.101-2.349,2.262-2.348c0.8,0,1.601,0.001,2.4,0c0.585-0.001,0.875,0.316,0.949,0.87
		c0.003,0.026,0.002,0.053,0.005,0.08c0.18,1.945,0.18,1.945-1.786,1.945C49.316,10.899,48.97,10.899,48.622,10.898z"/>
	<path fill-rule="evenodd" fill="#AEAEAE" d="M36.875,51.47c0.005-1.548-0.021-3.098,0.033-4.644
		c0.022-0.655-0.204-0.792-0.816-0.791c-8.596,0.02-17.192,0.014-25.789,0.011c-0.346,0-0.691-0.023-1.038-0.037
		c0.262-0.204,0.567-0.1,0.85-0.101c8.664-0.006,17.327-0.006,25.99-0.003c0.374,0,0.747,0.029,1.121,0.047
		c1.141,0.056,1.141,0.056,1.141,1.23c0,1.149-0.044,2.301,0.017,3.448c0.037,0.697-0.148,0.999-0.869,0.868
		C37.306,51.461,37.088,51.478,36.875,51.47z"/>
	<path fill-rule="evenodd" fill="#0E9B6D" d="M44.571,33.989c2.719-0.003,5.438-0.004,8.157-0.007
		c0.08,1.465,0.08,1.465-1.352,1.465c-1.946,0-3.894-0.042-5.837,0.019c-0.799,0.025-1.148-0.177-0.997-0.999
		C44.571,34.311,44.563,34.147,44.571,33.989z"/>
	<path fill-rule="evenodd" fill="#4BA4C6" d="M36.877,43.929c0.002-2.001-0.012-4.004,0.015-6.005
		c0.008-0.546-0.144-0.75-0.717-0.738c-1.628,0.033-3.257,0.012-4.885,0.014c0.083-0.268,0.309-0.155,0.469-0.155
		c1.999-0.003,3.998,0.022,5.997-0.001c0.513-0.005,0.622,0.184,0.617,0.651c-0.021,1.918-0.049,3.839,0.01,5.757
		c0.026,0.803-0.246,0.924-0.906,0.673C37.281,44.049,37.078,43.992,36.877,43.929z"/>
	<path fill-rule="evenodd" fill="#4A4842" d="M6.059,56.788c5.631-0.006,11.261-0.015,16.892-0.017
		c4.377-0.003,8.754-0.012,13.13,0.011c0.603,0.003,0.871-0.122,0.825-0.791c-0.066-0.956-0.04-1.918-0.053-2.878
		c1.486-0.071,1.501-0.071,1.481,1.358c-0.011,0.77,0.329,1.766-0.133,2.248c-0.499,0.52-1.516,0.203-2.305,0.203
		c-9.61,0.012-19.221,0.009-28.831,0.003C6.729,56.926,6.368,57.026,6.059,56.788z"/>
	<path fill-rule="evenodd" fill="#0E9A6D" d="M54.845,74.23c-0.002-1.546-0.035-3.096,0.011-4.643
		c0.021-0.657-0.21-0.816-0.823-0.797c-1.278,0.041-2.562,0.03-3.843,0.004c-0.49-0.01-0.649,0.163-0.643,0.648
		c0.022,1.601,0.007,3.202,0.006,4.803c-0.212-0.119-0.144-0.326-0.144-0.502c-0.002-1.923,0.019-3.847-0.003-5.769
		c-0.006-0.503,0.17-0.633,0.646-0.625c1.441,0.025,2.885,0.012,4.327,0.009c0.306-0.002,0.591-0.022,0.588,0.43
		c-0.014,2.107-0.014,4.217-0.023,6.325C54.942,74.154,54.879,74.192,54.845,74.23z"/>
	<path fill-rule="evenodd" fill="#0E9A6D" d="M47.783,68.805c-1.809,0.001-3.616,0.003-5.424,0.003
		c-0.076-1.448-0.076-1.448,1.353-1.448c1.063,0,2.129,0.044,3.188-0.014c0.713-0.041,1.046,0.153,0.916,0.903
		C47.783,68.43,47.793,68.619,47.783,68.805z"/>
	<path fill-rule="evenodd" fill="#ECECEC" d="M14.94,8.888c0,0.054,0,0.107,0,0.16c0,1.255-0.482,1.604-1.717,1.288
		c-0.319-0.082-0.261-0.285-0.263-0.484c-0.005-0.667-0.01-1.334,0.003-2.002c0.013-0.633,0.345-1.013,0.984-1.016
		c0.646-0.003,0.964,0.383,0.987,1.014c0.013,0.347,0.002,0.694,0.002,1.041C14.938,8.888,14.939,8.888,14.94,8.888z"/>
	<path fill-rule="evenodd" fill="#EBEBEB" d="M75.04,64.647c-0.002,0.896-0.005,1.794-0.008,2.69
		c-0.673,0.289-1.375,0.078-2.063,0.108c-0.17,0.007-0.231-0.183-0.229-0.355c0-0.686,0.006-1.371-0.002-2.055
		c-0.005-0.302,0.084-0.542,0.399-0.581C73.783,64.377,74.444,64.216,75.04,64.647z"/>
	<path fill-rule="evenodd" fill="#858585" d="M9.146,67.359c-0.087-2.801-0.058-5.599-0.001-8.397
		c0.004-0.22,0.001-0.46,0.298-0.468c0.587-0.015,1.174-0.015,1.76,0c0.297,0.008,0.294,0.248,0.299,0.468
		c0.057,2.799,0.085,5.597-0.001,8.397c-0.109,0.035-0.19,0.003-0.245-0.097c-0.171-0.352-0.135-0.73-0.136-1.101
		c-0.007-1.681-0.01-3.359,0-5.04c0.003-0.563-0.127-0.905-0.796-0.905c-0.666,0.001-0.805,0.337-0.801,0.903
		c0.011,1.68,0.008,3.36,0.001,5.039c-0.001,0.371,0.036,0.749-0.135,1.102C9.336,67.362,9.254,67.395,9.146,67.359z"/>
	<path fill-rule="evenodd" fill="#0E9A6C" d="M54.384,33.983c0.636,0.001,1.271-0.018,1.905,0.011
		c0.473,0.023,0.663-0.135,0.647-0.629c-0.025-0.818,0.007-1.639,0.016-2.458c0.257,1.397,0.058,2.806,0.098,4.208
		c0.009,0.294-0.205,0.332-0.437,0.33c-0.293,0-0.586,0.001-0.879,0.001C54.31,35.447,54.31,35.447,54.384,33.983z"/>
	<path fill-rule="evenodd" fill="#0E9A6C" d="M40.268,33.983c0.607,0.001,1.215-0.025,1.82,0.013
		c0.54,0.035,0.745-0.138,0.738-0.706c-0.006-0.565-0.171-1.155,0.121-1.703c-0.002,1.067-0.028,2.134,0.005,3.2
		c0.017,0.533-0.169,0.731-0.689,0.665c-0.209-0.026-0.426-0.004-0.64-0.004C40.195,35.447,40.195,35.447,40.268,33.983z"/>
	<path fill-rule="evenodd" fill="#858585" d="M75.04,64.647c-2.211-0.137-2.211-0.137-2.225,2.077
		c-0.001,0.157-0.011,0.316-0.016,0.476c-0.038,0.072-0.077,0.074-0.114-0.001c0.007-1.175,0.024-2.349,0.015-3.523
		c-0.002-0.38,0.132-0.547,0.514-0.509c0.132,0.014,0.268,0.003,0.4,0.002C75.096,63.166,75.096,63.166,75.04,64.647z"/>
	<path fill-rule="evenodd" fill="#E6A523" d="M14.576,63.2c0,0.844,0,1.687,0.001,2.529c-1.476,0.075-1.476,0.075-1.475-1.385
		C13.102,63.107,13.102,63.107,14.576,63.2z"/>
	<path fill-rule="evenodd" fill="#848484" d="M72.686,67.199c0.037,0,0.076,0.001,0.114,0.001c0.737,0.152,1.498-0.082,2.232,0.138
		c0.008,0.133,0.01,0.268,0.029,0.398C75.17,68.491,75.053,69,74.1,68.681c-0.445-0.149-1.052,0.353-1.323-0.073
		C72.556,68.259,72.702,67.677,72.686,67.199z"/>
	<path fill-rule="evenodd" fill="#848484" d="M11.333,67.346c0.056,0.004,0.112,0.008,0.168,0.014
		c-0.006,0.424,0.131,0.932-0.054,1.252c-0.243,0.423-0.764,0.031-1.165,0.05c-1.143,0.051-1.145,0.026-1.137-1.302
		c0.056-0.006,0.113-0.01,0.168-0.016C9.988,66.848,10.66,66.848,11.333,67.346z"/>
	<path fill-rule="evenodd" fill="#AAAAAA" d="M14.893,26.287c-0.633,0.002-1.265,0.005-1.898,0.008
		c-0.006-0.026-0.015-0.051-0.016-0.078c-0.07-1.32,0.39-1.68,1.676-1.34c0.236,0.063,0.292,0.191,0.286,0.39
		C14.929,25.606,14.909,25.946,14.893,26.287z"/>
	<path fill-rule="evenodd" fill="#ECBD1F" d="M65.353,26.4c0.357,0.504,0.71,0.967,1.236,1.398c-0.474,0.401-0.886,0.83-1.22,1.378
		c-0.399-0.498-0.781-0.965-1.318-1.354C64.573,27.409,64.94,26.903,65.353,26.4z"/>
	<path fill-rule="evenodd" fill="#FEFEFE" d="M62.445,38.641c5.054,0,10.104-0.001,15.157,0c1.229,0.001,1.634,0.404,1.634,1.626
		c0.001,6.201-0.001,12.404,0.003,18.605c0.001,0.526-0.099,1.045-0.703,1.063c-0.596,0.018-0.871-0.439-0.9-1.019
		c-0.011-0.213-0.004-0.427-0.004-0.642c0-5.64,0-11.28,0-16.921c0-1.108,0-1.108-1.131-1.108c-9.704,0-19.408,0-29.111,0
		c-0.188,0-0.376-0.014-0.562,0.003c-0.614,0.057-1.052-0.238-1.05-0.821c0.001-0.562,0.495-0.78,1.029-0.784
		c1.068-0.007,2.139-0.003,3.208-0.003C54.159,38.641,58.303,38.641,62.445,38.641z"/>
	<path fill-rule="evenodd" fill="#FEFEFE" d="M42.863,40.238c-0.186,0-0.376,0.023-0.557-0.005c-0.466-0.071-0.7-0.409-0.715-0.83
		c-0.019-0.529,0.599-0.815,1.535-0.761c0.552,0.032,1.017,0.167,0.97,0.868C44.041,40.35,43.418,40.24,42.863,40.238z"/>
	<path fill-rule="evenodd" fill="#F6E3AE" d="M14.711,17.63c0-1.038,0.006-2.077-0.002-3.114c-0.004-0.519,0.156-0.888,0.741-0.931
		c0.61-0.045,0.833,0.369,0.84,0.845c0.031,2.103,0.034,4.206,0.006,6.308c-0.007,0.514-0.274,0.945-0.895,0.9
		c-0.594-0.043-0.696-0.472-0.692-0.972C14.716,19.653,14.711,18.642,14.711,17.63z"/>
	<path fill-rule="evenodd" fill="#010101" d="M48.525,19.74c-1.279-0.042-2.368-1.125-2.38-2.354
		c-0.004-0.451,0.137-0.803,0.614-0.893c0.503-0.094,0.851,0.143,0.943,0.635c0.104,0.547,0.272,1.002,0.924,0.997
		c0.636-0.004,0.85-0.421,0.934-0.987c0.078-0.508,0.433-0.734,0.929-0.646c0.513,0.092,0.674,0.472,0.648,0.952
		C51.071,18.743,49.885,19.785,48.525,19.74z"/>
	<path fill-rule="evenodd" fill="#020202" d="M9.544,74.204c-0.037-0.517,0.137-0.996,0.787-1.003
		c0.594-0.006,0.808,0.452,0.811,0.988c0.005,0.55-0.14,1.045-0.813,1.052C9.696,75.248,9.54,74.806,9.544,74.204z"/>
	<path fill-rule="evenodd" fill="#030303" d="M74.72,74.233c-0.018,0.532-0.169,0.984-0.79,1.006
		c-0.684,0.025-0.822-0.436-0.83-1.014c-0.007-0.555,0.178-1.005,0.764-1.023C74.494,73.185,74.71,73.658,74.72,74.233z"/>
	<path fill-rule="evenodd" fill="#ECECEC" d="M11.333,67.346c-0.673-0.148-1.346-0.154-2.019-0.002
		c-0.162-2.321-0.03-4.646-0.069-6.97c-0.006-0.304,0.14-0.439,0.437-0.427c0.053,0.003,0.107-0.003,0.16-0.002
		c1.937,0.02,1.55-0.203,1.551,1.473C11.394,63.393,11.494,65.37,11.333,67.346z"/>
</g>
</svg>
