<?xml version="1.0" encoding="utf-8"?>
<!-- Generator: Adobe Illustrator 16.0.0, SVG Export Plug-In . SVG Version: 6.00 Build 0)  -->
<!DOCTYPE svg PUBLIC "-//W3C//DTD SVG 1.1//EN" "http://www.w3.org/Graphics/SVG/1.1/DTD/svg11.dtd">
<svg version="1.1" id="Layer_1" xmlns="http://www.w3.org/2000/svg" xmlns:xlink="http://www.w3.org/1999/xlink" x="0px" y="0px"
	 width="85px" height="85px" viewBox="0 0 85 85" enable-background="new 0 0 85 85" xml:space="preserve">
<g>
	<path fill="none" d="M28.384,65.947c0.02-0.006,0.039-0.009,0.059-0.01l-0.045-0.063C28.394,65.897,28.39,65.922,28.384,65.947
		L28.384,65.947z M31.435,67.988c0.096-0.119,0.184-0.245,0.262-0.377c-0.014-0.003-0.027-0.007-0.039-0.011
		C31.585,67.731,31.511,67.86,31.435,67.988z M29.696,68.974c0.09-0.021,0.182-0.044,0.271-0.065l-0.264,0.017
		C29.702,68.94,29.698,68.958,29.696,68.974z"/>
	<path fill="#FDD2B4" d="M52.022,18.796c-1.236,1.371-2.451,2.76-3.646,4.167c-0.154-0.109-0.311-0.219-0.465-0.329
		c-0.09,0.081-0.18,0.162-0.27,0.242c-0.238,0.211-0.531,0.156-0.746-0.016c-2.193,0.713-3.689,2.397-4.961,4.297
		c-0.127,0.226-0.254,0.452-0.379,0.679c1.299-1.795,2.955-3.329,4.877-4.438l-0.455-0.122c0.836,0.007,1.592,0.558,2.064,1.247
		c0.475,0.69,0.715,1.511,0.947,2.314c-1.037,1.14-1.896,2.431-2.543,3.83c-0.533,1.152-0.92,2.372-1.533,3.485
		c-0.609,1.112-1.494,2.143-2.684,2.587c-1.193,0.446-2.527,0.25-3.762-0.064c0.051-1.484,0.324-2.953,0.789-4.36
		c-0.719,1.517-1.395,3.056-2.02,4.612c-0.074,0.184-0.156,0.375-0.314,0.494c-0.188,0.141-0.439,0.143-0.674,0.155
		c-0.576,0.028-1.146,0.152-1.686,0.357c-0.096,0.115-0.189,0.231-0.285,0.346c-0.049,0.058-0.133,0.037-0.174-0.012
		c-0.791,0.729-1.596,1.449-2.293,2.229l0.936-0.74c-0.164,0.145-0.312,0.303-0.453,0.47c1.068-0.703,2.201-1.292,3.459-1.425
		c0.865-0.091,1.746,0.043,2.609-0.075c-1.123,2.729-3.164,5.072-5.713,6.56c-0.834-0.444-1.771-1.036-1.859-1.978
		c-0.053-0.592,0.258-1.148,0.561-1.662c0.287-0.489,0.582-0.985,0.945-1.42c-0.209,0.138-0.414,0.277-0.617,0.42
		c-0.402,0.464-0.766,0.948-1.066,1.469c-0.041,0.652-0.082,1.305-0.123,1.958c-0.02,0.342-0.043,0.693,0.064,1.02
		c0.174,0.541,0.668,0.921,1.186,1.154c1.211,0.545,2.643,0.452,3.877-0.039c1.234-0.489,2.291-1.345,3.221-2.292
		c1.578-1.608,2.836-3.5,3.709-5.576l0.068,0.07c0.025-0.065,0.049-0.131,0.076-0.195c0.045-0.112,0.23-0.078,0.232,0.042
		c0.004,0.143,0,0.285-0.006,0.427c0.02,0.029,0.039,0.06,0.057,0.088l-0.057-0.058c-0.021,0.411-0.094,0.819-0.252,1.197
		c0.057,0.048,0.084,0.128,0.045,0.205c-0.691,1.354-1.523,2.854-0.389,4.264c1.182,1.471,2.65,0.188,4.051,0.065
		c0.094-0.01,0.18,0.02,0.25,0.067c0.125-1.864,0.291-3.771,0.949-5.521c1.154-3.068,3.096-5.105,3.217-8.578
		c0-0.005,0.002-0.01,0.002-0.016c-0.021-0.335-0.043-0.67-0.137-1.008c-0.119-0.43-0.287-0.833-0.416-1.254
		c-0.094-0.153-0.195-0.303-0.305-0.447c3.498-2.901,7.709-4.018,11.854-5.636c4.541-1.772,9.135-3.411,13.775-4.91
		c2.311-0.746,4.645-1.465,6.938-2.279v-3.652c-3.008,1.098-6.076,2.049-9.137,2.986c-6.123,1.874-12.297,3.726-18.002,6.634
		c-0.811,0.413-1.652,0.857-2.562,0.854c6.291-6.694,12.926-13.069,19.863-19.09h-3.709c-2.82,2.288-5.549,4.698-8.188,7.205
		C57.905,12.854,55.024,15.881,52.022,18.796L52.022,18.796z M49.966,33.592c-1.51,2.708-3.057,5.537-3.219,8.632
		c-0.039,0.724-0.055,1.565-0.637,1.996c-0.68,0.498-1.723,0.019-2.084-0.742c-0.363-0.76-0.234-1.655-0.049-2.478
		c0.209-0.927,0.486-1.854,0.898-2.706l-0.529,0.841c0.578-1.232,1.262-2.435,2.186-3.437
		C47.456,34.695,48.638,33.896,49.966,33.592L49.966,33.592z"/>
	<path fill="#FDD2B4" d="M42.485,38.806c-0.188,0.487-0.35,0.985-0.48,1.491c0.105-0.111,0.221-0.215,0.34-0.311
		C42.313,39.587,42.376,39.189,42.485,38.806z M24.062,60.335c1.129-2.159,2.127-4.385,2.986-6.664
		c0.275-0.729,0.412-1.774-0.303-2.081c1.125-0.375,2.148-1.007,2.984-1.847c0.881-0.886,1.531-2.35,0.768-3.338
		c-0.254-0.329-0.641-0.563-0.844-0.916c-0.082,0.08-0.207,0.109-0.311,0.083c-0.361,0.884-1.076,1.695-1.643,2.423
		c-0.465,0.598-0.957,1.257-1.51,1.83c-0.031,0.065-0.062,0.133-0.094,0.197l2.275-2.754c-0.008,0.005-0.018,0.013-0.027,0.018
		l0.609-0.72c-0.195,0.233-0.387,0.469-0.582,0.702c0.414-0.236,0.715-0.661,0.803-1.129c0.016-0.081,0.031-0.174,0.102-0.219
		c0.061-0.038,0.143-0.021,0.213,0.004c0.771,0.276,1.031,1.316,0.74,2.087c-0.291,0.77-0.957,1.323-1.596,1.841
		c-0.393,0.317-0.807,0.646-1.299,0.765c-0.48,0.111-1.061-0.039-1.297-0.469c-0.219,0.461-0.438,0.905-0.646,1.347
		c0.049,0.016,0.098,0.037,0.145,0.06c0.266,0.123,0.529,0.246,0.793,0.37c0.16,0.074,0.328,0.155,0.426,0.302
		c0.158,0.235,0.086,0.55,0.004,0.819c-0.775,2.576-1.857,5.051-3.225,7.368c-0.154,0.26-0.521,0.532-0.707,0.33
		c0.006,0.027,0.004,0.059-0.006,0.091c-0.055,0.172-0.139,0.33-0.234,0.481c0.221-0.038,0.461-0.024,0.674-0.099
		C23.646,61.084,23.872,60.695,24.062,60.335L24.062,60.335z M24.251,63.721c0.051,0.084,0.096,0.171,0.135,0.26
		c0.023-0.172,0.055-0.343,0.094-0.513C24.407,63.554,24.331,63.638,24.251,63.721L24.251,63.721z M31.243,67.188
		c-1.002-1.738-2.004-3.478-3.006-5.216c-0.006,0.009-0.012,0.018-0.02,0.025c0.404,1.13,0.422,2.502,0.18,3.876l0.045,0.063
		c0.057-0.001,0.111,0.018,0.156,0.053c0.846,0.646,1.24,1.875,1.105,2.935l0.264-0.017c0.277-0.068,0.551-0.149,0.812-0.32
		c0.25-0.165,0.469-0.369,0.656-0.6c0.074-0.128,0.148-0.257,0.221-0.388C31.483,67.548,31.341,67.357,31.243,67.188L31.243,67.188z
		 M23.919,55.448c-0.121,0.532-0.229,1.067-0.336,1.604c0.455-1.534,0.91-3.066,1.365-4.601
		C24.532,53.389,24.167,54.35,23.919,55.448L23.919,55.448z M24.708,65.436c0.035,0.512,0.018,1.027,0.004,1.496
		c-0.029,1.065-0.084,2.341-0.609,3.289c0.33,0.162,0.658,0.298,1.049,0.331c0.236,0.02,0.471-0.029,0.703-0.059
		c0.635-1.407,1.281-2.763,1.57-4.308c0.23-1.228,0.104-2.442,0.164-3.656C26.724,63.587,25.757,64.559,24.708,65.436L24.708,65.436
		z M23.983,63.99l0.008,0.039c0.002-0.019,0.004-0.035,0.006-0.054L23.983,63.99z M22.411,60.515
		c0.012-0.195,0.025-0.402,0.039-0.619c-0.049,0.25-0.098,0.499-0.146,0.749c0.039-0.021,0.08-0.038,0.123-0.055
		C22.415,60.566,22.411,60.542,22.411,60.515z"/>
	<path fill="#FDD2B4" d="M22.718,60.595c0.035,0.021,0.064,0.048,0.084,0.08c0.006-0.146,0.016-0.291,0.029-0.437
		C22.794,60.357,22.757,60.477,22.718,60.595z"/>
	<path fill="#EEBD9C" d="M82.499,18.993v-0.121c-1.42,0.566-2.852,1.094-4.293,1.595C79.657,20.034,81.093,19.555,82.499,18.993z
		 M61.786,22.057c-4.145,1.618-8.355,2.733-11.854,5.635c0.105,0.146,0.209,0.295,0.305,0.447c-0.035-0.11-0.066-0.225-0.094-0.338
		c-0.014-0.049,0.043-0.104,0.088-0.061c0.475,0.466,0.689,0.988,0.902,1.614c0.062,0.177,0.123,0.354,0.182,0.534
		c0.148-0.002,0.295,0.062,0.387,0.196c8.396-6.165,18.637-7.974,28.26-11.492c0.854-0.312,1.699-0.646,2.537-0.999v-2.729
		c-2.291,0.815-4.627,1.533-6.938,2.28C70.921,18.646,66.327,20.283,61.786,22.057z M57.919,10.771
		c-0.895,0.955-1.791,1.908-2.688,2.862c1.445-1.491,2.879-2.999,4.307-4.508C58.989,9.662,58.448,10.208,57.919,10.771z
		 M68.954,2.599h-1.406c-2.279,2.386-4.523,4.802-6.779,7.205C63.405,7.297,66.134,4.887,68.954,2.599z M52.022,18.796
		c-1.344,1.305-2.711,2.587-4.111,3.838c0.154,0.11,0.311,0.22,0.465,0.329C49.571,21.556,50.786,20.167,52.022,18.796z
		 M41.347,44.656c-0.031-0.059-0.062-0.116-0.092-0.177c-0.035,0.164-0.072,0.327-0.117,0.488
		C41.204,44.861,41.272,44.756,41.347,44.656z M42.974,38.773c-0.018-0.029-0.037-0.059-0.057-0.088c0,0.011,0,0.021,0,0.03
		L42.974,38.773z M42.614,38.412l-0.068-0.07c-0.873,2.076-2.133,3.968-3.709,5.576c-0.93,0.947-1.986,1.802-3.221,2.292
		c-1.234,0.491-2.666,0.584-3.877,0.039c-0.52-0.233-1.012-0.613-1.188-1.154c-0.105-0.325-0.084-0.678-0.062-1.02
		c0.043-0.653,0.082-1.307,0.123-1.958c-0.529,0.916-0.861,1.943-0.871,3.157c0,0.092-0.035,0.163-0.088,0.216
		c0.203,0.352,0.59,0.586,0.844,0.915c0.764,0.989,0.113,2.452-0.768,3.339c-0.836,0.84-1.859,1.472-2.984,1.847
		c0.715,0.307,0.578,1.353,0.303,2.081c-0.859,2.279-1.857,4.505-2.986,6.664c-0.189,0.36-0.416,0.749-0.801,0.884
		c-0.213,0.073-0.453,0.06-0.674,0.098c-0.252,0.397-0.605,0.746-0.834,1.165c-0.281,0.521-0.418,1.065-0.58,1.615
		c2.406,0.243,4.43-3.935,5.227-5.582c0.752-1.556,1.068-3.239,1.701-4.815c-0.326-0.147-0.42-0.679,0.014-0.832
		c1.242-0.443,2.377-0.974,3.389-1.833c0.674-0.572,1.135-1.258,1.611-1.942c0.145-0.261,0.297-0.52,0.475-0.746
		c0.004-0.095,0.045-0.192,0.137-0.27c0.465-0.391,1.111-0.581,1.664-0.837c0.398-0.187,0.795-0.336,1.197-0.481
		c1.541-0.79,3.061-1.62,4.633-2.353c-0.596-1.34-0.232-3.047,0.785-4.108c0.133-0.505,0.293-1.003,0.482-1.49
		C42.524,38.672,42.567,38.541,42.614,38.412L42.614,38.412z"/>
	<path fill="#EEBD9C" d="M33.589,48.344c-0.178,0.228-0.332,0.485-0.475,0.746c0.156-0.225,0.312-0.448,0.48-0.669
		C33.591,48.396,33.587,48.371,33.589,48.344z M37.31,46.498c0.039-0.014,0.064,0.041,0.031,0.064
		c-0.559,0.413-1.088,0.827-1.686,1.194c-0.492,0.303-1,0.715-1.549,0.897c-0.643,2.332-3.422,4.383-5.588,5.03
		c-0.104,2.173-1.807,7.212-4.037,9.782c-0.039,0.169-0.07,0.34-0.094,0.512c0.199,0.442,0.287,0.945,0.322,1.456
		c1.049-0.877,2.014-1.85,2.881-2.905c0.014-0.276,0.037-0.553,0.076-0.828c0.025-0.171,0.199-0.209,0.32-0.143
		c0.434-0.899,0.834-1.804,1.041-2.791c0.205-0.989,0.096-1.977,0.24-2.963c0.031-0.209,0.348-0.233,0.414-0.034
		c0.617,1.936-0.266,4.603-1.443,6.199c1.002,1.739,2.004,3.479,3.006,5.217c0.098,0.171,0.242,0.36,0.414,0.413
		c0.012,0.004,0.025,0.007,0.039,0.011c0.201-0.344,0.338-0.72,0.406-1.11c0.256-1.521-0.576-2.612-1.07-3.903
		c-0.227,0.121-0.512-0.153-0.41-0.418c0.359-0.922,0.75-1.788,0.84-2.789c0.09-1.016-0.283-1.902-0.271-2.888
		c0.002-0.261,0.307-0.383,0.475-0.171c0.021,0.027,0.041,0.056,0.061,0.083c0.322-0.43,0.645-0.857,0.902-1.334
		c0.264-0.482,0.42-1.025,0.76-1.461c0.1-0.128,0.344-0.058,0.344,0.111c0.004,1.106-0.898,2.393-1.721,3.188
		c0.193,0.45,0.291,0.975,0.311,1.524c0.102-0.024,0.215,0.003,0.297,0.121c0.957,1.379,1.65,3.473,1.504,5.261
		c0.033,0.005,0.066,0.013,0.102,0.026c2.021,0.892,1.584-3.479,1.457-4.368c-0.184-1.28-0.807-2.443-0.945-3.706
		c-0.027-0.245,0.27-0.3,0.406-0.146c0.02,0.021,0.039,0.046,0.059,0.071c0.297-0.617,0.725-1.182,1.006-1.811
		c0.395-0.882,0.453-1.894,0.861-2.746c-0.01-0.035-0.01-0.072-0.002-0.108l-0.322,0.129c-1.154,0.464-2.439,0.993-3.691,1.054
		c-0.273,0.014-0.332-0.343-0.098-0.452c1.068-0.493,2.258-0.742,3.35-1.202c0.77-0.324,1.498-0.771,2.25-1.137
		c0.461-0.503,0.898-1.026,1.27-1.615c0.562-0.888,0.791-1.967,1.318-2.846c0.043-0.162,0.082-0.324,0.117-0.488
		c-0.012-0.024-0.023-0.051-0.035-0.075c-1.574,0.731-3.094,1.562-4.635,2.353C36.825,46.671,37.065,46.587,37.31,46.498
		L37.31,46.498z M31.972,52.88c-0.525,0.979-1.365,1.915-2.184,2.664c-0.131,0.12-0.393-0.006-0.287-0.19
		c0.568-0.979,1.303-1.999,2.162-2.737C31.827,52.476,32.067,52.703,31.972,52.88z M33.981,61.272
		c0.232,0.393,0.688,0.685,1.152,0.449c0.041-0.021,0.078,0.051,0.037,0.072c-0.5,0.271-1.164,0.144-1.303-0.463
		C33.853,61.267,33.94,61.206,33.981,61.272z M34.29,37.854c0.035-0.058,0.072-0.114,0.109-0.173
		c-0.043,0.049-0.088,0.1-0.131,0.147C34.276,37.837,34.282,37.846,34.29,37.854L34.29,37.854z M36.923,37.422
		c0.16-0.119,0.24-0.312,0.314-0.494c0.625-1.558,1.299-3.096,2.02-4.611c0.531-1.599,1.311-3.114,2.297-4.479
		c0.125-0.227,0.254-0.454,0.381-0.68c-0.938,1.397-1.752,2.912-2.635,4.237c-1.484,2.239-3.021,4.47-4.736,6.54
		c0.539-0.206,1.109-0.329,1.686-0.357C36.483,37.564,36.737,37.562,36.923,37.422L36.923,37.422z"/>
	<path fill="#FEE3CE" d="M52.8,21.689c0.91,0.005,1.752-0.44,2.562-0.854c5.705-2.909,11.879-4.76,18.002-6.635
		c3.061-0.937,6.129-1.887,9.137-2.986V2.6h-9.838C65.726,8.621,59.091,14.994,52.8,21.689z M38.468,36.675
		c1.234,0.314,2.568,0.512,3.762,0.064c1.188-0.445,2.07-1.476,2.684-2.587c0.611-1.113,1-2.333,1.533-3.485
		c0.646-1.398,1.506-2.69,2.543-3.83c-0.232-0.805-0.473-1.624-0.947-2.314c-0.473-0.689-1.229-1.24-2.066-1.247l0.455,0.122
		c-1.92,1.109-3.576,2.644-4.875,4.438c-0.988,1.365-1.768,2.881-2.297,4.479C38.792,33.722,38.519,35.191,38.468,36.675z
		 M46.532,35.698c-0.924,1.002-1.607,2.202-2.186,3.437l0.529-0.841c-0.412,0.854-0.689,1.779-0.898,2.706
		c-0.186,0.822-0.314,1.718,0.049,2.478c0.363,0.761,1.404,1.24,2.084,0.742c0.582-0.43,0.598-1.271,0.637-1.996
		c0.162-3.095,1.709-5.924,3.219-8.632C48.638,33.896,47.456,34.695,46.532,35.698L46.532,35.698z M30.79,43.31
		c0.088,0.94,1.025,1.532,1.859,1.978c2.551-1.487,4.592-3.829,5.713-6.56c-0.863,0.119-1.744-0.016-2.609,0.075
		c-1.256,0.132-2.391,0.722-3.457,1.425c-0.363,0.436-0.658,0.931-0.945,1.42C31.048,42.161,30.735,42.718,30.79,43.31L30.79,43.31z
		 M32.747,39.758l-0.936,0.739c-0.045,0.05-0.088,0.101-0.133,0.15c0.203-0.143,0.408-0.282,0.615-0.42
		C32.435,40.061,32.583,39.902,32.747,39.758L32.747,39.758z M28.345,47.286c0.01-0.005,0.02-0.013,0.027-0.018
		c0.195-0.233,0.387-0.469,0.582-0.703L28.345,47.286L28.345,47.286z"/>
	<path fill="#FEE3CE" d="M27.335,50.616c0.492-0.116,0.906-0.445,1.299-0.765c0.641-0.517,1.307-1.07,1.596-1.84
		c0.291-0.771,0.033-1.811-0.74-2.087c-0.07-0.024-0.152-0.043-0.213-0.004c-0.07,0.045-0.086,0.138-0.102,0.219
		c-0.088,0.468-0.389,0.892-0.803,1.129c-0.758,0.918-1.518,1.836-2.275,2.754c-0.02,0.041-0.039,0.084-0.059,0.125
		C26.274,50.578,26.854,50.729,27.335,50.616z M23.534,60.414c1.367-2.318,2.451-4.792,3.225-7.368
		c0.082-0.271,0.154-0.584-0.002-0.819c-0.098-0.146-0.268-0.228-0.428-0.302c-0.264-0.124-0.527-0.247-0.791-0.37
		c-0.047-0.021-0.096-0.045-0.146-0.06c-0.152,0.315-0.299,0.635-0.441,0.956c-0.455,1.532-0.912,3.065-1.367,4.601
		c-0.215,1.071-0.432,2.143-0.75,3.188c-0.014,0.146-0.023,0.291-0.029,0.437c0.014,0.021,0.021,0.044,0.025,0.068
		C23.015,60.946,23.38,60.673,23.534,60.414L23.534,60.414z"/>
	<path fill="#AF7B6E" d="M82.499,18.873v-1.277c-0.838,0.354-1.684,0.688-2.537,0.999c-9.623,3.52-19.861,5.327-28.26,11.492
		c0.043,0.065,0.074,0.145,0.086,0.245c0.025,0.232,0.041,0.462,0.045,0.686c8.182-5.264,17.418-7.431,26.373-10.549
		C79.647,19.966,81.079,19.439,82.499,18.873L82.499,18.873z M29.501,45.088c-0.039,0.163-0.094,0.324-0.16,0.483
		c0.105,0.026,0.23-0.003,0.312-0.083c0.053-0.053,0.088-0.124,0.088-0.216c0.008-1.214,0.342-2.24,0.871-3.157
		c0.299-0.521,0.664-1.005,1.064-1.469c0.045-0.05,0.09-0.101,0.135-0.15c0.697-0.779,1.502-1.499,2.293-2.229
		c-0.023-0.028-0.031-0.068-0.006-0.108c0.062-0.104,0.127-0.204,0.191-0.307c-0.008-0.009-0.014-0.018-0.021-0.025
		c-0.07-0.071-0.182-0.104-0.273-0.035c-2.334,1.741-4.631,3.993-4.822,7.015C29.333,44.74,29.544,44.914,29.501,45.088
		L29.501,45.088z"/>
	<path fill="#AF7B6E" d="M34.099,38.161c-0.025,0.04-0.018,0.08,0.008,0.108c0.039,0.05,0.125,0.069,0.172,0.012
		c0.096-0.114,0.189-0.23,0.285-0.346c1.717-2.07,3.252-4.3,4.738-6.54c0.881-1.326,1.695-2.84,2.633-4.237
		c1.271-1.899,2.768-3.584,4.961-4.297c-0.289-0.23-0.438-0.67-0.123-0.955c0.139-0.127,0.275-0.256,0.416-0.384
		c-2.814,0.697-4.186,2.656-5.674,5.055c-2.322,3.734-4.783,7.38-7.115,11.104c-0.037,0.059-0.074,0.115-0.109,0.173
		C34.228,37.957,34.161,38.058,34.099,38.161L34.099,38.161z M50.231,27.741c-0.045-0.043-0.102,0.012-0.088,0.061
		c0.025,0.113,0.059,0.228,0.094,0.338c0.129,0.421,0.297,0.825,0.414,1.254c0.094,0.339,0.117,0.675,0.137,1.01
		c0.021-0.327,0.277-0.51,0.527-0.513c-0.059-0.179-0.119-0.356-0.182-0.533C50.923,28.729,50.706,28.207,50.231,27.741
		L50.231,27.741z M42.917,38.686c0.008-0.143,0.01-0.286,0.006-0.427c-0.002-0.121-0.188-0.154-0.232-0.042
		c-0.025,0.064-0.051,0.129-0.076,0.195c-0.047,0.129-0.09,0.261-0.129,0.394c-0.109,0.384-0.172,0.781-0.141,1.181
		c0.037-0.03,0.072-0.059,0.111-0.085c0.07-0.053,0.154-0.036,0.209,0.013c0.158-0.377,0.229-0.786,0.25-1.197
		C42.917,38.706,42.917,38.696,42.917,38.686z"/>
	<path fill="#AF7B6E" d="M46.622,44.515c-0.072-0.049-0.158-0.076-0.252-0.066c-1.4,0.123-2.867,1.404-4.051-0.065
		c-1.133-1.411-0.301-2.909,0.391-4.265c0.039-0.076,0.012-0.156-0.045-0.205c-0.055-0.049-0.139-0.065-0.209-0.013
		c-0.037,0.026-0.074,0.056-0.111,0.085c-0.119,0.096-0.232,0.199-0.34,0.311c-1.018,1.062-1.381,2.769-0.785,4.108
		c0.014,0.024,0.025,0.051,0.037,0.075c0.027,0.061,0.059,0.118,0.09,0.177c0.004-0.004,0.006-0.009,0.008-0.012
		c0.205-0.273,0.629-0.088,0.664,0.215c0.023,0.197,0.02,0.398-0.004,0.604c1.264,1.042,3.375,0.888,4.574-0.223
		c-0.008-0.021-0.012-0.043-0.01-0.065C46.593,44.956,46.606,44.736,46.622,44.515L46.622,44.515z"/>
	<path fill="#AF7B6E" d="M51.788,30.331c-0.012-0.101-0.043-0.18-0.086-0.245c-0.092-0.135-0.236-0.198-0.387-0.196
		c-0.25,0.003-0.508,0.187-0.527,0.513c0,0.005-0.002,0.01-0.002,0.015c-0.121,3.473-2.061,5.51-3.217,8.578
		c-0.658,1.75-0.822,3.657-0.947,5.521c-0.016,0.221-0.029,0.439-0.045,0.658c-0.002,0.023,0.004,0.046,0.012,0.065
		c0.041,0.105,0.195,0.155,0.254,0.021c0.506-1.16,0.5-2.069,0.744-3.313c0.385-1.955,1.209-3.342,2.17-5.025
		c1.107-1.946,2.115-3.708,2.076-5.906C51.829,30.787,51.813,30.558,51.788,30.331L51.788,30.331z M33.595,48.421
		c0.104-0.134,0.207-0.266,0.316-0.394c0.113-0.134,0.318-0.021,0.295,0.141c-0.021,0.164-0.057,0.327-0.102,0.486
		c0.549-0.184,1.059-0.596,1.551-0.897c0.598-0.367,1.125-0.781,1.686-1.194c0.033-0.023,0.008-0.079-0.033-0.064
		c-0.242,0.089-0.482,0.173-0.723,0.259c-0.4,0.146-0.797,0.296-1.195,0.481c-0.553,0.256-1.201,0.446-1.666,0.837
		c-0.092,0.075-0.133,0.175-0.137,0.27C33.587,48.371,33.591,48.396,33.595,48.421z"/>
	<path fill="#AF7B6E" d="M34.106,48.655c0.043-0.159,0.078-0.322,0.102-0.486c0.021-0.162-0.182-0.273-0.295-0.141
		c-0.109,0.128-0.215,0.26-0.316,0.394c-0.168,0.221-0.326,0.444-0.482,0.669c-0.477,0.687-0.938,1.37-1.611,1.942
		c-1.012,0.859-2.146,1.39-3.389,1.833c-0.434,0.153-0.34,0.684-0.014,0.832c0.066-0.17,0.139-0.338,0.215-0.504
		c0.041-0.098,0.188-0.063,0.197,0.036c0.012,0.133,0.014,0.285,0.006,0.455C30.685,53.038,33.464,50.987,34.106,48.655
		L34.106,48.655z"/>
	<path fill="#AF7B6E" d="M24.058,63.63c0.012-0.057,0.09-0.076,0.123-0.026c0.025,0.038,0.049,0.078,0.072,0.117
		c0.078-0.083,0.154-0.167,0.229-0.253c2.23-2.57,3.934-7.608,4.037-9.782c0.008-0.17,0.006-0.322-0.008-0.455
		c-0.008-0.101-0.154-0.133-0.197-0.035c-0.074,0.166-0.146,0.333-0.213,0.503c-0.633,1.576-0.949,3.261-1.703,4.815
		c-0.795,1.647-2.818,5.825-5.225,5.582c-0.041,0.146-0.086,0.289-0.133,0.433c-0.098,0.291-0.57,0.179-0.58-0.107
		c-0.002-0.037-0.002-0.074-0.002-0.111c-0.029,0.116-0.004,0.241,0.109,0.315c1.164,0.779,2.34,0.385,3.416-0.635l0.016-0.015
		C24.011,63.86,24.032,63.745,24.058,63.63z"/>
	<path fill="#AF7B6E" d="M21.04,64.528c0.047-0.145,0.092-0.288,0.133-0.433c0.162-0.55,0.299-1.095,0.58-1.615
		c0.229-0.419,0.582-0.767,0.834-1.165c0.098-0.15,0.18-0.31,0.234-0.48c0.01-0.032,0.012-0.062,0.008-0.091
		c-0.004-0.024-0.014-0.048-0.027-0.068c-0.02-0.033-0.049-0.061-0.084-0.08l-0.006,0.02c-0.053,0.155-0.232,0.095-0.285-0.023
		c-0.043,0.016-0.084,0.034-0.125,0.055c-0.561,0.285-0.932,0.983-1.209,1.518c-0.336,0.646-0.631,1.41-0.635,2.146
		c0,0.037,0,0.074,0.002,0.111C20.47,64.707,20.942,64.819,21.04,64.528L21.04,64.528z"/>
	<path fill="#AF7B6E" d="M22.427,60.59c0.053,0.118,0.232,0.18,0.285,0.023l0.006-0.02c0.041-0.118,0.078-0.237,0.113-0.355
		c0.32-1.046,0.537-2.116,0.752-3.188c0.107-0.535,0.215-1.07,0.336-1.604c0.248-1.1,0.613-2.06,1.029-2.997
		c0.143-0.321,0.291-0.641,0.443-0.956c0.209-0.441,0.428-0.886,0.646-1.348l0.059-0.125c0.031-0.064,0.062-0.132,0.094-0.197
		c-0.332,0.343-0.686,0.653-1.07,0.901c-0.131,0.086-0.332-0.057-0.248-0.208c-1.787,2.369-2.236,6.594-2.422,9.378
		c-0.014,0.206-0.027,0.412-0.039,0.618C22.409,60.542,22.415,60.566,22.427,60.59z"/>
	<path fill="#AF7B6E" d="M25.12,50.727c0.385-0.248,0.738-0.56,1.07-0.901c0.553-0.573,1.045-1.232,1.51-1.83
		c0.566-0.728,1.279-1.539,1.643-2.423c0.064-0.159,0.119-0.32,0.16-0.483c0.041-0.175-0.17-0.349-0.33-0.279
		c-0.018,0.009-0.037,0.019-0.053,0.032c-0.869,0.768-1.393,1.936-2.08,2.871c-0.693,0.945-1.58,1.791-2.166,2.803l-0.002,0.004
		C24.788,50.671,24.989,50.812,25.12,50.727L25.12,50.727z M23.751,70.046c0.119,0.06,0.234,0.119,0.352,0.176
		c0.525-0.948,0.58-2.224,0.609-3.289c0.014-0.469,0.031-0.984-0.004-1.496c-0.035-0.511-0.123-1.014-0.32-1.456
		c-0.041-0.088-0.086-0.175-0.135-0.259c-0.023-0.039-0.047-0.079-0.072-0.117c-0.033-0.05-0.111-0.029-0.123,0.026
		c-0.025,0.114-0.047,0.229-0.061,0.346c-0.002,0.019-0.004,0.035-0.006,0.054c-0.109,0.944,0.107,1.961,0.047,2.915
		c-0.066,1.046-0.412,2.066-0.453,3.102C23.638,70.018,23.7,70.018,23.751,70.046L23.751,70.046z"/>
	<path fill="#AF7B6E" d="M25.657,70.932c0.064-0.146,0.129-0.292,0.197-0.438c-0.232,0.028-0.467,0.077-0.703,0.059
		c-0.391-0.033-0.719-0.169-1.049-0.331c-0.117-0.057-0.232-0.116-0.352-0.176c-0.051-0.027-0.113-0.027-0.166,0
		c-0.1,0.05-0.158,0.182-0.082,0.287c0.557,0.772,2.48,1.5,3.104,0.469c0.061-0.103-0.002-0.205-0.09-0.256
		c-0.16,0.227-0.322,0.438-0.49,0.63C25.856,71.37,25.554,71.162,25.657,70.932L25.657,70.932z"/>
	<path fill="#AF7B6E" d="M28.384,65.947c0.004-0.024,0.01-0.05,0.014-0.073c0.242-1.374,0.223-2.746-0.182-3.876
		c-0.021,0.03-0.045,0.062-0.066,0.091c-0.135,0.175-0.41-0.018-0.318-0.21c0.053-0.105,0.104-0.212,0.154-0.318
		c-0.121-0.066-0.295-0.028-0.32,0.143c-0.039,0.275-0.062,0.552-0.076,0.828c-0.061,1.214,0.066,2.43-0.164,3.656
		c-0.291,1.546-0.936,2.899-1.572,4.308c-0.066,0.146-0.133,0.292-0.197,0.438c-0.102,0.229,0.201,0.438,0.371,0.243
		c0.166-0.191,0.33-0.403,0.49-0.63c0.785-1.121,1.438-2.624,1.779-4.165c-0.016-0.025-0.031-0.051-0.049-0.077
		C28.144,66.146,28.243,65.986,28.384,65.947L28.384,65.947z"/>
	<path fill="#AF7B6E" d="M29.679,55.772c-0.062-0.2-0.381-0.176-0.412,0.033c-0.145,0.986-0.033,1.974-0.24,2.963
		c-0.205,0.987-0.607,1.892-1.039,2.791c-0.051,0.106-0.104,0.213-0.154,0.318c-0.092,0.192,0.184,0.385,0.318,0.21
		c0.021-0.029,0.045-0.061,0.066-0.091l0.02-0.025C29.415,60.374,30.298,57.707,29.679,55.772z M29.091,69.181
		c0.199-0.098,0.402-0.155,0.605-0.206c0.002-0.018,0.006-0.034,0.008-0.051c0.133-1.06-0.26-2.289-1.107-2.935
		c-0.061-0.048-0.139-0.063-0.213-0.043c-0.141,0.039-0.24,0.199-0.137,0.355c0.016,0.026,0.033,0.052,0.049,0.077
		c0.6,0.921,0.861,1.709,0.682,2.836c-0.045,0.282,0.211,0.42,0.418,0.359c-0.123-0.054-0.236-0.123-0.338-0.208
		C28.987,69.31,29.022,69.216,29.091,69.181L29.091,69.181z"/>
	<path fill="#AF7B6E" d="M31.128,62.513c-0.029,0.039-0.062,0.066-0.098,0.085c0.494,1.291,1.326,2.381,1.07,3.902
		c-0.066,0.392-0.203,0.769-0.406,1.109c-0.078,0.133-0.164,0.259-0.26,0.378c-0.188,0.229-0.406,0.435-0.656,0.6
		c-0.262,0.171-0.535,0.252-0.811,0.32c-0.092,0.021-0.182,0.044-0.271,0.066c-0.205,0.051-0.406,0.108-0.605,0.206
		c-0.07,0.035-0.104,0.129-0.033,0.188c0.102,0.085,0.215,0.154,0.336,0.208c1.219,0.524,2.764-1.05,3.213-2.061
		c0.736-1.661,0.164-4.217-1.162-5.479C31.345,62.211,31.239,62.371,31.128,62.513L31.128,62.513z"/>
	<path fill="#AF7B6E" d="M32.114,58.915c-0.146-0.187,0.012-0.424,0.205-0.472c-0.02-0.551-0.115-1.074-0.311-1.524
		c-0.074,0.072-0.152,0.143-0.23,0.211c-0.221,0.192-0.469-0.152-0.32-0.356c0.088-0.119,0.178-0.238,0.268-0.357
		c-0.02-0.027-0.039-0.056-0.061-0.083c-0.168-0.212-0.471-0.091-0.473,0.171c-0.016,0.984,0.359,1.872,0.27,2.888
		c-0.088,1.001-0.48,1.867-0.84,2.789c-0.102,0.265,0.184,0.539,0.41,0.418c0.039-0.021,0.072-0.049,0.098-0.084
		c0.111-0.143,0.217-0.303,0.318-0.478c0.428-0.746,0.746-1.75,0.844-2.749C32.231,59.163,32.173,59.039,32.114,58.915
		L32.114,58.915z"/>
	<path fill="#AF7B6E" d="M33.731,53.731c-0.002-0.169-0.246-0.239-0.346-0.111c-0.34,0.436-0.496,0.979-0.76,1.461
		c-0.258,0.477-0.578,0.904-0.9,1.334c-0.09,0.119-0.18,0.238-0.268,0.357c-0.15,0.204,0.1,0.55,0.32,0.356
		c0.078-0.068,0.154-0.139,0.229-0.211C32.833,56.124,33.733,54.838,33.731,53.731L33.731,53.731z M31.665,52.616
		c-0.861,0.738-1.596,1.759-2.162,2.738c-0.107,0.185,0.154,0.312,0.287,0.189c0.816-0.749,1.656-1.687,2.184-2.664
		C32.067,52.703,31.827,52.476,31.665,52.616z M35.171,61.795c0.041-0.021,0.004-0.094-0.037-0.072
		c-0.467,0.234-0.92-0.058-1.152-0.449c-0.041-0.066-0.129-0.006-0.113,0.06C34.007,61.938,34.671,62.064,35.171,61.795z"/>
	<path fill="#AF7B6E" d="M34.122,63.825c0.146-1.788-0.547-3.882-1.504-5.261c-0.082-0.118-0.195-0.146-0.299-0.121
		c-0.193,0.048-0.352,0.285-0.205,0.472c0.059,0.125,0.119,0.249,0.176,0.372c0.375,0.803,0.711,1.597,0.887,2.482
		c0.189,0.954,0.115,1.898,0.195,2.858c0.029,0.36,0.527,0.359,0.613,0.028c0.012-0.045,0.021-0.092,0.033-0.137
		c-0.033-0.015-0.066-0.027-0.1-0.045C33.552,64.298,33.771,63.775,34.122,63.825L34.122,63.825z M34.979,65.071
		c0.041,0.009,0.053-0.057,0.012-0.063l-0.213-0.035c-0.035-0.005-0.045,0.047-0.01,0.056L34.979,65.071L34.979,65.071z"/>
	<path fill="#AF7B6E" d="M35.169,56.362c-0.08,0.044-0.219-0.012-0.184-0.12c0.057-0.187,0.131-0.364,0.215-0.539
		c-0.018-0.024-0.039-0.049-0.059-0.071c-0.137-0.153-0.434-0.1-0.406,0.146c0.139,1.263,0.762,2.426,0.943,3.705
		c0.129,0.892,0.566,5.261-1.455,4.369c-0.031-0.014-0.066-0.021-0.102-0.026c-0.352-0.051-0.57,0.473-0.203,0.65
		c0.035,0.018,0.066,0.029,0.1,0.045c3.531,1.587,2.604-5.965,1.451-8.359C35.374,56.235,35.274,56.302,35.169,56.362L35.169,56.362
		z"/>
	<path fill="#AF7B6E" d="M37.382,51.323c-0.145,0.062-0.279-0.046-0.314-0.177c-0.408,0.854-0.467,1.864-0.861,2.746
		c-0.281,0.629-0.709,1.192-1.006,1.811c-0.084,0.175-0.158,0.354-0.215,0.539c-0.035,0.108,0.104,0.164,0.184,0.12
		c0.105-0.061,0.205-0.128,0.301-0.201c0.664-0.523,1.08-1.401,1.408-2.151c0.355-0.811,0.803-1.864,0.672-2.763
		C37.495,51.271,37.44,51.298,37.382,51.323L37.382,51.323z"/>
	<path fill="#AF7B6E" d="M37.065,51.038c-0.008,0.036-0.006,0.073,0.002,0.108c0.035,0.131,0.17,0.237,0.314,0.177
		c0.059-0.024,0.113-0.052,0.168-0.076c0.799-0.372,1.492-0.918,2.092-1.562C38.899,50.284,37.954,50.681,37.065,51.038
		L37.065,51.038z M42.019,44.859c-0.035-0.303-0.459-0.488-0.664-0.215c-0.002,0.004-0.004,0.008-0.006,0.012
		c-0.074,0.101-0.145,0.205-0.209,0.312c-0.527,0.879-0.756,1.958-1.318,2.846c-0.371,0.589-0.809,1.112-1.27,1.615
		c0.314-0.151,0.633-0.291,0.959-0.4c0.209-0.071,0.447,0.14,0.418,0.338c0.221-0.263,0.43-0.534,0.621-0.816
		c0.584-0.848,1.332-1.992,1.465-3.087C42.038,45.259,42.042,45.057,42.019,44.859L42.019,44.859z"/>
	<path fill="#AF7B6E" d="M39.511,49.028c-0.328,0.109-0.645,0.249-0.959,0.4c-0.752,0.366-1.479,0.812-2.25,1.136
		c-1.092,0.46-2.279,0.709-3.35,1.203c-0.234,0.109-0.174,0.465,0.1,0.452c1.252-0.061,2.537-0.59,3.691-1.054l0.322-0.129
		c0.889-0.356,1.834-0.754,2.578-1.353c0.068-0.055,0.137-0.111,0.201-0.172c0.051-0.045,0.076-0.097,0.084-0.147
		C39.958,49.168,39.72,48.957,39.511,49.028L39.511,49.028z"/>
	<path fill="#BA967C" d="M46.896,22.86c0.215,0.171,0.508,0.227,0.746,0.016c0.09-0.08,0.18-0.161,0.27-0.242
		c1.4-1.251,2.77-2.533,4.113-3.838c3-2.915,5.881-5.942,8.742-8.992c2.256-2.403,4.502-4.819,6.781-7.205h-1.809
		c-2.082,2.161-4.137,4.347-6.201,6.526c-1.428,1.51-2.859,3.016-4.307,4.508c-2.613,2.696-5.273,5.347-8.043,7.889
		c-0.141,0.127-0.277,0.256-0.416,0.383C46.458,22.19,46.606,22.63,46.896,22.86z"/>
	<path fill="#333333" d="M82.499,82.405h-80V2.599h80V82.405z M3.302,81.603h78.396v-78.2H3.302V81.603L3.302,81.603z"/>
</g>
</svg>
