<?xml version="1.0" encoding="utf-8"?>
<!-- Generator: Adobe Illustrator 16.0.0, SVG Export Plug-In . SVG Version: 6.00 Build 0)  -->
<!DOCTYPE svg PUBLIC "-//W3C//DTD SVG 1.1//EN" "http://www.w3.org/Graphics/SVG/1.1/DTD/svg11.dtd">
<svg version="1.1" id="Layer_1" xmlns="http://www.w3.org/2000/svg" xmlns:xlink="http://www.w3.org/1999/xlink" x="0px" y="0px"
	 width="85px" height="85px" viewBox="0 0 85 85" enable-background="new 0 0 85 85" xml:space="preserve">
<g>
	<polygon fill="#E0315B" points="46.754,3.776 46.754,17.394 40.797,22.5 42.498,3.776 	"/>
	<polygon fill="#EA5A7D" points="42.498,3.776 42.498,22.5 38.244,17.394 38.244,3.776 	"/>
	<path fill="#7A3E25" d="M52.162,36.326l-5.408-7.138l3.404,52.034h5.105V45.568C55.264,42.096,54.107,38.896,52.162,36.326z"/>
	<path fill="#A65A3A" d="M50.158,45.568v35.654H29.732V45.568c0-3.473,1.158-6.672,3.104-9.242l5.408-7.138V17.394h8.51v11.795
		l2.164,7.138C49.695,38.896,50.158,42.096,50.158,45.568z"/>
	<polygon fill="#FFF9CF" points="55.264,52.002 55.264,72.428 50.158,72.428 43.35,61.365 50.158,52.002 	"/>
	<rect x="38.244" y="52.002" fill="#FFFFFF" width="11.914" height="20.426"/>
	<path fill="#FFF9CF" d="M5.477,81.223H23.35c-4.469,0-4.469-3.402-8.938-3.402S9.943,81.223,5.477,81.223z"/>
	<polygon fill="#FFF296" points="23.883,30.892 24.334,41.105 12.639,47.862 19.188,30.892 	"/>
	<path fill="#FFF9CF" d="M19.375,41.105c0,0.012,0.037,1.715,0.072,3.354c-2.504,1.719-5.033,3.455-5.033,3.455l-9.918-6.809
		l0.449-10.213h14.244L19.375,41.105z"/>
	<path fill="#E0315B" d="M24.615,47.455c0,0-0.281-6.351-0.283-6.351c0,0-2.111,0-4.957,0l-4.961,17.021
		c5.641,0,10.213-4.572,10.213-10.213C24.627,47.76,24.621,47.607,24.615,47.455z"/>
	<path fill="#EA5A7D" d="M19.514,47.455c0.004,0.151,0.006,0.305,0.006,0.457c0,5.641-2.285,10.213-5.105,10.213
		c-5.641,0-10.213-4.572-10.213-10.213c0-0.152,0.006-0.306,0.013-0.457l0.278-6.351c0.002,0,9.006,0,14.883,0
		C19.375,41.129,19.514,47.455,19.514,47.455z"/>
	<path fill="#FFF9CF" d="M61.646,81.223h17.871c-4.469,0-4.469-3.402-8.936-3.402C66.113,77.82,66.115,81.223,61.646,81.223z"/>
	<polygon fill="#FFF296" points="80.053,30.892 80.502,41.105 68.809,47.862 75.357,30.892 	"/>
	<path fill="#FFF9CF" d="M75.545,41.105c0,0.012,0.037,1.715,0.072,3.354c-2.504,1.719-5.033,3.455-5.033,3.455l-9.92-6.809
		l0.449-10.213h14.244L75.545,41.105z"/>
	<path fill="#E0315B" d="M80.785,47.455c0,0-0.281-6.351-0.283-6.351c0,0-2.111,0-4.957,0l-4.961,17.021
		c5.641,0,10.213-4.572,10.213-10.213C80.795,47.76,80.791,47.607,80.785,47.455z"/>
	<path fill="#EA5A7D" d="M75.684,47.455c0.004,0.151,0.006,0.305,0.006,0.457c0,5.641-2.285,10.213-5.105,10.213
		c-5.641,0-10.213-4.572-10.213-10.213c0-0.152,0.006-0.306,0.012-0.457l0.279-6.351c0.002,0,9.006,0,14.883,0
		C75.545,41.129,75.684,47.455,75.684,47.455z"/>
	<path d="M25.902,47.912c0-0.152-0.004-0.316-0.012-0.515l-0.732-16.562c-0.029-0.684-0.592-1.221-1.275-1.221H4.945
		c-0.685,0-1.246,0.538-1.275,1.221l-0.73,16.562c-0.01,0.198-0.014,0.362-0.014,0.515c0,5.902,4.477,10.781,10.213,11.418v17.303
		c-1.857,0.27-2.968,1.113-3.966,1.871c-1.058,0.807-1.892,1.441-3.695,1.441H4.869c-0.705,0-1.276,0.572-1.276,1.275
		c0,0.707,0.571,1.277,1.276,1.277h19.092c0.705,0,1.275-0.57,1.275-1.277c0-0.703-0.57-1.275-1.275-1.275H23.35
		c-1.803,0-2.639-0.637-3.693-1.441c-1-0.758-2.107-1.602-3.965-1.871V59.33C21.426,58.693,25.902,53.816,25.902,47.912z
		 M5.478,47.912c0-0.135,0.005-0.269,0.011-0.4l0.678-15.344h16.496l0.678,15.344c0.006,0.133,0.01,0.268,0.01,0.4
		c0,4.928-4.01,8.938-8.936,8.938C9.486,56.85,5.478,52.84,5.478,47.912z M11.525,79.947c0.754-0.504,1.557-0.852,2.887-0.852
		s2.133,0.346,2.887,0.852H11.525z"/>
	<path d="M20.502,41.104c0-0.705-0.57-1.276-1.275-1.276H9.601c-0.705,0-1.276,0.571-1.276,1.276s0.571,1.276,1.276,1.276h9.626
		C19.932,42.381,20.502,41.81,20.502,41.104z"/>
	<path d="M76.67,41.104c0-0.705-0.568-1.276-1.273-1.276H65.77c-0.705,0-1.275,0.571-1.275,1.276s0.57,1.276,1.275,1.276h9.627
		C76.102,42.381,76.67,41.81,76.67,41.104z"/>
	<path d="M80.129,79.947H79.52c-1.805,0-2.641-0.637-3.695-1.441c-0.998-0.76-2.107-1.602-3.963-1.873V59.33
		c5.736-0.637,10.213-5.516,10.213-11.418c0-0.152-0.006-0.316-0.014-0.515l-0.732-16.562c-0.029-0.684-0.59-1.221-1.273-1.221
		H61.115c-0.684,0-1.246,0.538-1.275,1.221l-0.73,16.562c-0.01,0.198-0.014,0.362-0.014,0.515c0,5.902,4.477,10.781,10.213,11.418
		v17.303c-1.857,0.27-2.969,1.113-3.967,1.871c-1.057,0.807-1.891,1.441-3.693,1.441h-0.607c-0.705,0-1.275,0.572-1.275,1.275
		c0,0.707,0.57,1.277,1.275,1.277h19.09c0.705,0,1.277-0.57,1.277-1.277C81.406,80.518,80.834,79.947,80.129,79.947z M61.648,47.912
		c0-0.135,0.004-0.269,0.01-0.4l0.678-15.344h16.496l0.678,15.344c0.006,0.133,0.012,0.268,0.012,0.4
		c0,4.928-4.01,8.938-8.938,8.938S61.648,52.84,61.648,47.912z M70.584,79.096c1.328,0,2.131,0.346,2.885,0.852h-5.771
		C68.449,79.443,69.252,79.096,70.584,79.096z"/>
	<path d="M50.158,53.279c0.705,0,1.277-0.57,1.277-1.277c0-0.705-0.572-1.275-1.277-1.275H38.244c-0.705,0-1.277,0.57-1.277,1.275
		V72.43c0,0.703,0.572,1.275,1.277,1.275h11.914c0.705,0,1.277-0.572,1.277-1.275c0-0.705-0.572-1.277-1.277-1.277H39.521V53.279
		H50.158L50.158,53.279z"/>
	<path d="M48.031,28.762V17.396c0-0.003,0-12.416,0-12.416c0.496-0.175,0.852-0.647,0.852-1.203c0-0.705-0.572-1.276-1.275-1.276
		H37.395c-0.705,0-1.277,0.572-1.277,1.276c0,0.556,0.354,1.026,0.85,1.203v23.782l-5.146,6.793
		c-2.201,2.904-3.363,6.367-3.363,10.014v35.654c0,0.705,0.572,1.277,1.275,1.277h25.531c0.705,0,1.277-0.572,1.277-1.277V45.568
		c0-3.646-1.164-7.109-3.363-10.014L48.031,28.762z M39.521,5.053h5.957v11.063h-5.957V5.053z M53.988,79.947H31.01V45.568
		c0-3.086,0.984-6.016,2.846-8.471l5.406-7.137c0.168-0.223,0.26-0.494,0.26-0.771V18.67h5.957v10.52
		c0,0.277,0.092,0.549,0.26,0.771l5.406,7.137c1.859,2.455,2.844,5.385,2.844,8.471V79.947L53.988,79.947z"/>
</g>
</svg>
