<?xml version="1.0" encoding="utf-8"?>
<!-- Generator: Adobe Illustrator 16.0.0, SVG Export Plug-In . SVG Version: 6.00 Build 0)  -->
<!DOCTYPE svg PUBLIC "-//W3C//DTD SVG 1.1//EN" "http://www.w3.org/Graphics/SVG/1.1/DTD/svg11.dtd">
<svg version="1.1" id="Layer_1" xmlns="http://www.w3.org/2000/svg" xmlns:xlink="http://www.w3.org/1999/xlink" x="0px" y="0px"
	 width="85px" height="85px" viewBox="382.695 382.695 85 85" enable-background="new 382.695 382.695 85 85" xml:space="preserve">
<g>
	<path fill="#01A79D" d="M385.195,385.195h80v80h-80V385.195z"/>
	<path fill="#38BDB1" d="M451.796,425.195c0,14.69-11.91,26.601-26.601,26.601s-26.6-11.91-26.6-26.601s11.91-26.6,26.6-26.6
		S451.796,410.504,451.796,425.195z"/>
	<path fill="#D2D3D4" d="M390.385,437.027l0.63,0.423l47.711-11.215v-0.218L390.385,437.027z"/>
	<path fill="#06A14B" d="M409.651,450.834l52.946-18.922l-23.87-5.678l-47.222,11.1L409.651,450.834z"/>
	<path fill="#E7E7E7" d="M400.341,443.984l-0.058-0.192l50.016-14.894l0.059,0.193L400.341,443.984z"/>
	<path fill="#231F20" d="M409.651,451.401v1.208l32.439-12.256l21.534-7.709v-0.671L409.651,451.401z M390.357,436.956v1.04
		l19.294,14.613v-1.183L390.357,436.956z"/>
	<path fill="#D2D3D4" d="M409.651,451.426v-0.592l53.201-19.013l0.772,0.151L409.651,451.426z M409.651,450.834l-18.656-13.879
		h-0.638l19.294,14.471V450.834z"/>
	<path fill="#D2D3D4" d="M463.624,431.973l-24.897-5.956v0.218l23.87,5.678L463.624,431.973z"/>
	<path fill="#231F20" d="M419.562,430.74h-0.575l-1.9-0.843l0.604,0.578h-0.503l-0.73-0.78l0.101-0.113h0.415L419.562,430.74z"/>
	<path fill="#231F20" d="M417.058,429.578c0,0.109-0.088,0.197-0.197,0.197s-0.197-0.088-0.197-0.197v-2.71
		c0.003-0.108,0.094-0.194,0.203-0.19c0.104,0.003,0.188,0.087,0.191,0.19V429.578z M446.243,440.126
		c0,0.185-0.15,0.336-0.336,0.336s-0.336-0.151-0.336-0.336v-4.295c0-0.186,0.15-0.336,0.335-0.336l0,0
		c0.186,0,0.336,0.15,0.337,0.336l0,0V440.126z"/>
	<path fill="#231F20" d="M441.427,438.701l0.419-0.166l4.06,1.658v0.454h-0.922l0.587,0.284l-0.318,0.235l-2.753-0.96l0.454-0.147
		l1.124,0.403l0.318-0.102L441.427,438.701z"/>
	<path fill="#BDBEC0" d="M417.058,427.074v-0.238l28.513,9.038v0.578L417.058,427.074z"/>
	<g>
		<path fill="#EBAF71" d="M420.977,419.904c-2.65,2.884-7.361,2.869-10.523-0.034c-2.623-2.408-3.354-6.049-2.015-8.866
			c-0.186-0.733-0.606-1.516-1.452-2.215c-2.541-2.102-3.577-1.931-3.577-1.931c-0.957-0.187,2.485-4.165,2.802-3.051
			c0,0-0.082,1.048,2.228,3.399c0.719,0.73,1.476,1.088,2.182,1.232c2.72-1.882,6.665-1.549,9.429,0.988
			C423.212,412.329,423.627,417.02,420.977,419.904L420.977,419.904z"/>
		<path fill="#DB9856" d="M420.757,419.952c-2.65,2.885-7.361,2.869-10.523-0.035c-2.622-2.408-3.354-6.049-2.015-8.866
			c-0.186-0.733-0.606-1.515-1.453-2.215c-2.541-2.102-3.577-1.931-3.577-1.931c-0.958-0.187,2.485-4.166,2.801-3.051
			c0,0-0.082,1.047,2.229,3.398c0.718,0.731,1.476,1.088,2.182,1.232c2.72-1.881,6.665-1.549,9.428,0.988
			C422.991,412.376,423.407,417.068,420.757,419.952L420.757,419.952z"/>
		<path fill="#FDCD9A" d="M420.411,420.026c-2.65,2.885-7.361,2.869-10.523-0.034c-2.622-2.409-3.354-6.049-2.014-8.866
			c-0.186-0.733-0.606-1.515-1.453-2.215c-2.541-2.102-3.577-1.931-3.577-1.931c-0.958-0.187,2.485-4.165,2.801-3.051
			c0,0-0.082,1.048,2.229,3.399c0.719,0.73,1.476,1.087,2.182,1.232c2.72-1.881,6.665-1.549,9.428,0.988
			C422.646,412.452,423.062,417.144,420.411,420.026L420.411,420.026z"/>
		<path fill="#EBAF71" d="M404.1,404.612c0.127-0.129,0.259-0.252,0.397-0.369l7.13,6.898l-7.224-6.057L404.1,404.612z
			 M403.416,405.43c-0.118,0.137-0.23,0.279-0.335,0.426l7.479,6.518l-6.647-6.682L403.416,405.43L403.416,405.43z"/>
		<path fill="#F6BE86" d="M403.186,405.696c0.31-0.438,0.72-0.91,1.117-1.281l7.325,6.726l-1.15,1.25L403.186,405.696z"/>
		<path fill="#F8DBBE" d="M410.207,409.836l1.421,1.306l-1.15,1.25l-1.419-1.304L410.207,409.836z"/>
		<path fill="#EF4723" d="M420.411,420.026c-2.65,2.885-7.361,2.869-10.523-0.034c-1.303-1.196-2.138-2.698-2.486-4.251l7.632-8.311
			c1.579,0.214,3.146,0.92,4.45,2.118C422.646,412.452,423.062,417.144,420.411,420.026L420.411,420.026z"/>
		<path fill="#EBAF71" d="M397.351,430.342c-3.685-1.331-5.49-5.681-4.033-9.718c1.209-3.35,4.285-5.432,7.402-5.283
			c0.605-0.456,1.165-1.147,1.482-2.197c0.958-3.154,0.4-4.044,0.4-4.044c-0.198-0.956,4.803,0.684,3.897,1.406
			c0,0-0.998,0.329-2.277,3.368c-0.397,0.944-0.432,1.782-0.294,2.488c2.788,1.78,4.006,5.548,2.732,9.076
			C405.203,429.474,401.035,431.67,397.351,430.342L397.351,430.342z"/>
		<path fill="#DB9856" d="M397.222,430.158c-3.685-1.33-5.49-5.68-4.034-9.718c1.209-3.35,4.286-5.432,7.402-5.285
			c0.606-0.454,1.165-1.145,1.483-2.195c0.958-3.155,0.4-4.044,0.4-4.044c-0.198-0.956,4.803,0.682,3.897,1.404
			c0,0-0.999,0.331-2.277,3.37c-0.397,0.943-0.432,1.78-0.293,2.487c2.787,1.78,4.005,5.547,2.731,9.076
			C405.074,429.29,400.907,431.486,397.222,430.158L397.222,430.158z"/>
		<path fill="#FDCD9A" d="M397.019,429.868c-3.685-1.33-5.489-5.68-4.033-9.717c1.209-3.35,4.285-5.432,7.402-5.284
			c0.605-0.456,1.165-1.146,1.483-2.197c0.958-3.154,0.399-4.044,0.399-4.044c-0.198-0.956,4.803,0.682,3.897,1.405
			c0,0-0.998,0.329-2.276,3.368c-0.397,0.944-0.433,1.783-0.294,2.488c2.787,1.78,4.005,5.547,2.732,9.075
			C404.871,429,400.704,431.196,397.019,429.868L397.019,429.868z"/>
		<path fill="#EBAF71" d="M404.94,408.87c0.174,0.07,0.341,0.145,0.494,0.221l-3.609,9.241l2.796-9L404.94,408.87z M403.922,408.553
			c-0.173-0.054-0.347-0.103-0.523-0.145l-3.124,9.417l3.596-8.713L403.922,408.553L403.922,408.553z"/>
		<path fill="#F6BE86" d="M403.587,408.445c0.524,0.117,1.117,0.312,1.613,0.536l-3.375,9.352l-1.599-0.575L403.587,408.445
			L403.587,408.445z"/>
		<path fill="#F8DBBE" d="M402.479,416.52l-0.654,1.812l-1.599-0.575l0.654-1.814L402.479,416.52z"/>
		<path fill="#231F20" d="M397.019,429.868c-3.685-1.33-5.489-5.68-4.033-9.717c0.601-1.665,1.664-3.016,2.962-3.937l10.616,3.829
			c0.412,1.538,0.366,3.256-0.235,4.92C404.871,429,400.704,431.196,397.019,429.868z"/>
	</g>
	<g>
		<circle fill="#FBB041" cx="441.314" cy="414.662" r="4.322"/>
		<g>
			<path fill="#FBB041" d="M450.906,407.829c0,1.871-1.517,3.388-3.389,3.388c-1.871,0-3.387-1.517-3.387-3.388
				s1.516-3.388,3.387-3.388C449.389,404.441,450.906,405.958,450.906,407.829z"/>
		</g>
		<g>
			<circle fill="#FBB041" cx="433.966" cy="409.812" r="3.388"/>
		</g>
	</g>
	<polygon opacity="0.6" fill="#FFFFFF" points="417.177,427.097 445.489,436.452 445.489,439.789 417.058,429.578 	"/>
	<circle opacity="0.5" fill="#FFFFFF" cx="450.085" cy="407.7" r="0.366"/>
	<path opacity="0.5" fill="#FFFFFF" d="M449.554,406.652c0,0-0.354,0.215-0.688-0.126c-0.335-0.341-1.049-1.181-1.421-1.377
		c0,0-0.089-0.057-0.253-0.069s-0.12-0.265,0.158-0.259c0.277,0.006,1.237,0.095,1.68,0.461s0.814,0.91,0.556,1.345L449.554,406.652
		z"/>
	<circle opacity="0.5" fill="#FFFFFF" cx="436.545" cy="409.706" r="0.366"/>
	<path opacity="0.5" fill="#FFFFFF" d="M436.014,408.658c0,0-0.354,0.215-0.688-0.126c-0.335-0.341-1.049-1.181-1.422-1.376
		c0,0-0.088-0.057-0.252-0.07c-0.164-0.012-0.12-0.265,0.157-0.259c0.278,0.006,1.238,0.095,1.681,0.461
		c0.441,0.367,0.814,0.91,0.556,1.345L436.014,408.658z"/>
	<circle opacity="0.5" fill="#FFFFFF" cx="444.65" cy="414.534" r="0.486"/>
	<path opacity="0.5" fill="#FFFFFF" d="M443.947,413.239c0,0-0.469,0.284-0.913-0.167c-0.443-0.452-1.389-1.565-1.883-1.825
		c0,0-0.117-0.075-0.335-0.092c-0.217-0.017-0.159-0.352,0.21-0.343c0.368,0.008,1.64,0.125,2.226,0.611s1.08,1.205,0.736,1.783
		L443.947,413.239z"/>
</g>
</svg>
