<?xml version="1.0" encoding="utf-8"?>
<!-- Generator: Adobe Illustrator 16.0.0, SVG Export Plug-In . SVG Version: 6.00 Build 0)  -->
<!DOCTYPE svg PUBLIC "-//W3C//DTD SVG 1.1//EN" "http://www.w3.org/Graphics/SVG/1.1/DTD/svg11.dtd">
<svg version="1.1" id="Layer_1" xmlns="http://www.w3.org/2000/svg" xmlns:xlink="http://www.w3.org/1999/xlink" x="0px" y="0px"
	 width="85px" height="85px" viewBox="0 0 85 85" enable-background="new 0 0 85 85" xml:space="preserve">
<g id="Layer_1_1_">
	<g>
		<g>
			<path fill="#6E4100" d="M20.96,81.779c-0.084,0.761-0.636,0.758-1.181,0.683c-0.559-0.077-0.58-0.535-0.55-0.966
				c0.278-3.95,0.624-7.896,1.101-11.827c0.352-2.898,0.745-5.792,1.25-8.668c0.054-0.306-0.042-0.459-0.298-0.641
				c-2.082-1.474-2.816-3.497-2.32-5.97c0.072-0.359,0.034-0.542-0.258-0.763c-3.128-2.372-5.211-5.499-6.528-9.161
				c-0.145-0.403-0.308-0.557-0.77-0.592c-2.205-0.165-3.672-1.608-3.892-3.817c-0.163-1.651-0.175-3.29,1.083-4.615
				c0.167-0.176,0.061-0.246-0.079-0.353c-2.43-1.874-2.879-4.484-2.676-7.314c0.113-1.562,0.575-3.031,1.443-4.386
				c-0.844-0.32-1.634-0.65-2.31-1.203c-1.64-1.342-2.11-3.267-1.196-5.18c1.068-2.236,2.917-3.686,5.047-4.817
				c1.549-0.823,3.19-1.411,4.911-1.758c0.325-0.065,0.559-0.236,0.801-0.433c4.09-3.332,8.638-5.776,13.823-6.865
				c5.537-1.163,11.011-0.681,16.362,1.07c5.719,1.872,10.666,4.959,14.373,9.774c3.519,4.57,5.15,9.773,4.749,15.558
				c-0.137,1.974-0.6,3.886-1.378,5.711c-0.148,0.347-0.146,0.603,0.021,0.969c0.872,1.923,0.855,3.875-0.118,5.751
				c-0.735,1.419-2.569,2.186-4.352,1.878c-0.501-0.086-0.669,0.049-0.829,0.502c-1.339,3.779-3.486,6.988-6.738,9.397
				c-0.232,0.172-0.286,0.32-0.213,0.605c0.158,0.622,0.263,1.263,0.141,1.905c-0.058,0.302,0.092,0.446,0.293,0.602
				c1.61,1.247,3.221,2.493,4.822,3.751c0.338,0.266,0.486,0.217,0.509-0.211c0.004-0.065,0.003-0.135,0.021-0.197
				c0.292-0.989,0.172-1.803-0.785-2.432c-0.447-0.293-0.729-0.823-0.94-1.345c-0.448-1.11-0.14-2.134,0.875-2.763
				c0.317-0.196,0.433-0.321,0.337-0.749c-0.629-2.836,0.401-5.972,4.432-6.471c2.133-0.264,4.137-0.016,5.693,1.639
				c1.645,1.748,2.218,3.888,2.028,6.242c-0.136,1.694-0.685,3.237-1.854,4.514c-0.294,0.321-0.189,0.713-0.21,1.076
				c-0.163,2.964-0.419,5.915-1.207,8.791c-0.162,0.594-0.376,1.179-0.621,1.744c-0.951,2.194-2.179,2.836-4.536,2.391
				c-3.103-0.588-6.012-1.766-8.925-2.933c-0.386-0.155-0.771-0.312-1.219-0.492c0.162,1.785,0.344,3.498,0.467,5.215
				c0.162,2.251,0.284,4.504,0.41,6.756c0.023,0.434,0.085,0.996-0.503,1.062c-0.71,0.079-0.998,0.205-1.282-0.729
				c-0.138-0.161-0.181-0.353-0.178-0.557c0.026-1.816-0.159-3.622-0.286-5.429c-0.17-2.426-0.373-4.852-0.722-7.26
				c-0.073-0.506-0.142-0.973,0.316-1.33c0.479-0.373,0.964-0.212,1.44,0.005c2.623,1.19,5.308,2.225,8.054,3.095
				c1.056,0.334,2.126,0.609,3.229,0.749c0.896,0.114,1.475-0.258,1.858-1.054c0.319-0.663,0.562-1.349,0.742-2.058
				c0.595-2.348,0.807-4.75,0.991-7.155c0.022-0.286-0.092-0.411-0.359-0.438c-0.627-0.065-1.208-0.265-1.74-0.605
				c-0.207-0.133-0.411-0.142-0.617,0.01c-0.659,0.486-1.394,0.489-2.158,0.342c-0.735-0.141-0.735-0.13-0.862,0.633
				c-0.09,0.546-0.148,1.096-0.237,1.643c-0.189,1.172-0.994,1.529-1.953,0.831c-1.772-1.289-3.518-2.614-5.229-3.985
				c-0.603-0.482-0.608-0.484-1.094,0.115c-0.267,0.329-0.547,0.645-0.895,0.885c-2.157,1.493-4.536,2.373-7.161,2.557
				c-0.263,0.019-0.533,0.024-0.784-0.096c-0.383-0.477-0.376-1.036-0.341-1.601c0.124-0.387,0.456-0.363,0.764-0.381
				c1.958-0.113,3.775-0.692,5.494-1.621c1.182-0.639,1.846-1.617,2.021-2.938c0.025-0.195,0.1-0.414-0.066-0.568
				c-0.188-0.175-0.379-0.012-0.546,0.074c-2.521,1.307-5.196,2.126-8.006,2.514c-0.436,0.061-0.711,0.283-0.879,0.701
				c-0.314,0.784-0.757,1.502-1.297,2.153c-1.53,1.845-3.872,1.956-5.6,0.301c-0.762-0.73-1.366-1.568-1.859-2.488
				c-0.221-0.412-0.523-0.625-0.977-0.691c-2.805-0.412-5.475-1.248-7.993-2.559c-0.484-0.252-0.577-0.19-0.539,0.362
				c0.09,1.276,0.652,2.312,1.757,2.961c1.799,1.056,3.735,1.718,5.843,1.8c0.239,0.01,0.495-0.013,0.67,0.212
				c0.114,0.628,0.065,1.225-0.339,1.752c-0.84,0.305-1.664,0.029-2.485-0.097c-0.634-0.097-1.244-0.312-1.854-0.518
				c-0.853-0.289-0.897-0.267-1.032,0.59c-0.352,2.23-0.672,4.466-0.947,6.707c-0.428,3.492-0.744,6.995-1.051,10.5
				C21.219,80.452,21.377,81.162,20.96,81.779"/>
			<path fill="#87C9D5" d="M20.96,81.779c0.179-3.113,0.458-6.219,0.793-9.318c0.381-3.517,0.841-7.024,1.411-10.518
				c0.077-0.473,0.188-0.536,0.619-0.358c1.55,0.641,3.169,0.963,4.85,0.946c0.217,0.196,0.157,0.444,0.121,0.683
				c-0.312,2.104-0.626,4.206-0.913,6.312c-0.067,0.497-0.166,0.939-0.724,1.155c-0.297,0.114-0.398,0.458-0.261,0.74
				c0.292,0.6,0.072,1.118-0.167,1.648c-0.1,0.222-0.216,0.438-0.26,0.681c-0.066,0.364,0.03,0.673,0.383,0.832
				c0.382,0.171,0.634-0.038,0.82-0.353c0.136-0.229,0.26-0.467,0.351-0.716c0.209-0.576,0.483-1.07,1.088-1.352
				c0.389-0.181,0.529-0.579,0.265-0.953c-0.336-0.477-0.247-0.968-0.176-1.47c0.391-2.74,0.806-5.477,1.214-8.215
				c0.01-0.065,0.026-0.131,0.033-0.196c0.041-0.44,0.159-0.93-0.354-1.171c-0.523-0.245-0.75,0.187-0.996,0.528
				c-0.039,0.055-0.099,0.087-0.158,0.117c-2.375,0.069-4.54-0.65-6.551-1.838c-1.341-0.792-1.873-2.061-1.813-3.598
				c0.015-0.351,0.114-0.42,0.434-0.239c2.671,1.508,5.555,2.374,8.578,2.801c0.391,0.055,0.603,0.227,0.774,0.585
				c0.473,0.98,1.072,1.882,1.878,2.631c1.685,1.568,3.896,1.43,5.361-0.338c0.555-0.67,1.013-1.404,1.306-2.219
				c0.159-0.442,0.419-0.604,0.854-0.663c2.982-0.407,5.826-1.257,8.468-2.719c0.453-0.25,0.5,0.019,0.498,0.332
				c-0.007,1.474-0.553,2.69-1.855,3.447c-1.817,1.056-3.758,1.757-5.892,1.814c-0.216,0.006-0.445-0.058-0.646,0.083
				c-0.275-0.011-0.245-0.273-0.34-0.428c-0.173-0.278-0.404-0.413-0.724-0.329c-0.321,0.086-0.464,0.331-0.463,0.648
				c0.002,0.6,0.126,1.188,0.217,1.777c0.384,2.47,0.74,4.943,1.1,7.416c0.058,0.403,0.022,0.78-0.165,1.159
				c-0.299,0.603-0.201,0.897,0.397,1.163c0.356,0.158,0.556,0.405,0.704,0.743c0.161,0.364,0.291,0.743,0.483,1.093
				c0.193,0.351,0.463,0.648,0.901,0.453c0.423-0.188,0.422-0.579,0.317-0.972c-0.04-0.15-0.092-0.298-0.16-0.437
				c-0.277-0.568-0.47-1.131-0.217-1.779c0.125-0.32-0.033-0.627-0.352-0.773c-0.422-0.194-0.549-0.551-0.605-0.959
				c-0.297-2.125-0.606-4.247-0.927-6.369c-0.039-0.259-0.078-0.531,0.133-0.753c2.551,0.017,4.871-0.786,7.067-2.009
				c0.747-0.415,1.381-0.98,1.813-1.717c0.24-0.411,0.401-0.378,0.734-0.118c1.813,1.418,3.646,2.813,5.47,4.219
				c0.374,0.289,0.75,0.589,1.261,0.354c0.479-0.221,0.502-0.68,0.556-1.126c0.081-0.681,0.195-1.357,0.274-2.038
				c0.045-0.381,0.142-0.519,0.579-0.384c0.952,0.293,1.918,0.432,2.722-0.394c0.158-0.163,0.268-0.066,0.389,0.041
				c0.673,0.594,1.464,0.79,2.39,0.682c-0.058,1.521-0.195,3.017-0.396,4.503c-0.218,1.623-0.501,3.236-1.078,4.779
				c-0.116,0.31-0.271,0.605-0.42,0.901c-0.382,0.75-0.946,1.094-1.83,0.975c-2.234-0.299-4.334-1.054-6.422-1.841
				c-1.736-0.655-3.442-1.39-5.156-2.104c-0.408-0.171-0.8-0.312-1.178,0.018c-0.37,0.324-0.267,0.708-0.195,1.15
				c0.204,1.266,0.336,2.544,0.452,3.821c0.27,2.976,0.497,5.954,0.601,8.94c0.007,0.174-0.027,0.35-0.043,0.525
				c-8.9-0.003-17.801-0.007-26.701-0.008C21.309,81.708,21.134,81.755,20.96,81.779"/>
			<path fill="#FF7164" d="M79.136,32.173c0.464,0,0.928-0.006,1.393,0.001c0.748,0.012,1.131,0.342,1.151,0.982
				c0.021,0.67-0.376,1.075-1.114,1.11c-1.965,0.094-3.931,0.181-5.896,0.269c-0.419,0.019-0.842,0.081-1.255,0.04
				c-0.598-0.06-0.943-0.51-0.925-1.096c0.019-0.578,0.406-0.973,1.016-1.004c1.876-0.098,3.753-0.187,5.63-0.28
				C79.135,32.188,79.135,32.181,79.136,32.173"/>
		</g>
	</g>
	<path fill="#FF7164" d="M72.904,24.633c-0.521-0.026-0.9-0.241-1.036-0.719c-0.163-0.574,0.012-1.058,0.568-1.338
		c1.202-0.606,2.408-1.206,3.619-1.794c0.496-0.241,1.002-0.466,1.517-0.663c0.562-0.213,1.085,0.001,1.342,0.507
		c0.249,0.489,0.109,1.139-0.413,1.374c-1.794,0.804-3.543,1.697-5.305,2.565C73.101,24.613,72.983,24.616,72.904,24.633"/>
	<path fill="#FF7164" d="M76.615,45.964c-0.407-0.021-0.77-0.2-1.142-0.334c-1.329-0.479-2.634-1.026-4.022-1.335
		c-0.626-0.139-0.943-0.723-0.793-1.324c0.137-0.548,0.673-0.876,1.296-0.747c1.15,0.238,2.248,0.649,3.347,1.056
		c0.602,0.222,1.21,0.426,1.799,0.676c0.523,0.222,0.698,0.675,0.582,1.204C77.562,45.707,77.171,45.961,76.615,45.964"/>
	<path fill="#FEF8EA" d="M55.373,44.19c-1.688,4.629-4.747,8.015-9.214,10.102c-3.574,1.669-7.383,2.237-11.287,2.262
		c-4.153,0.024-8.205-0.542-11.986-2.381c-4.181-2.033-7.11-5.236-8.775-9.585c0.263-0.138,0.472,0.032,0.682,0.134
		c0.441,0.216,0.911,0.33,1.382,0.456c2.038,0.541,3.527-0.285,4.726-1.861c0.91-1.198,1.173-2.492,0.628-3.932
		c-0.51-1.344-1.222-2.516-2.591-3.13c-1.921-0.862-3.873-0.113-5.09,1.284c-0.29,0.333-0.531,0.708-0.782,1.071
		c-0.108,0.157-0.221,0.436-0.476,0.136c-0.824-7.045,0.827-13.441,5.135-19.089c1.966-2.577,4.545-4.427,7.554-5.798
		c0.243,2.029,0.804,3.92,1.666,5.714c0.967,2.01,2.15,3.867,3.939,5.266c0.562,0.44,1.179,0.792,1.87,0.974
		c1.475,0.388,2.705-0.054,3.703-1.176c0.765-0.858,1.229-1.878,1.544-3.039c0.82,1.015,1.687,1.926,2.689,2.694
		c1.094,0.837,2.255,1.555,3.571,1.999c0.796,0.269,1.601,0.327,2.418,0.142c1.483-0.336,2.23-1.333,2.461-2.788
		c0.241-0.03,0.338,0.171,0.478,0.293c1.579,1.374,3.283,2.487,5.466,2.565c0.353,0.013,0.359,0.251,0.434,0.476
		c1.211,3.657,1.796,7.385,1.282,11.239c-0.097,0.112,0.039,0.346-0.171,0.38c-0.148,0.024-0.22-0.133-0.279-0.245
		c-0.932-1.74-2.543-2.311-4.354-2.466c-1.055-0.09-2.008,0.268-2.8,0.988c-1.344,1.223-2.157,2.676-1.643,4.538
		c0.554,2.001,1.676,3.525,3.893,3.865c1.204,0.186,2.26-0.251,3.21-0.97c0.175-0.132,0.31-0.331,0.534-0.381
		C55.423,43.873,55.46,43.997,55.373,44.19"/>
	<path fill="#C9A76F" d="M8.835,24.479c0.012-0.418,0.338-0.587,0.635-0.75c0.374-0.204,0.628-0.467,0.616-0.912
		c-0.013-0.466-0.331-0.672-0.723-0.806c-0.451-0.544-1.085-0.891-1.523-1.458c-0.787-1.019-0.823-2.112-0.357-3.246
		c0.418-1.018,1.108-1.854,1.931-2.574c1.169-1.023,2.412-1.928,3.953-2.323c0.552-0.447,1.251-0.361,1.883-0.516
		c0.385-0.095,0.785-0.127,1.172-0.216c0.59-0.136,0.897-0.508,0.721-1.114c-0.094-0.324,0.055-0.432,0.266-0.581
		c4.017-2.836,8.37-4.959,13.294-5.491c8.558-0.924,16.324,1.197,23.118,6.577c3.835,3.036,6.422,6.921,7.681,11.653
		c1.028,3.863,0.938,7.698-0.464,11.474c-0.152,0.41-0.305,0.645-0.807,0.467c-0.256-0.091-0.59-0.088-0.854-0.01
		c-0.589,0.176-0.688-0.033-0.707-0.591c-0.08-2.515-0.655-4.944-1.4-7.335c-0.115-0.367-0.227-0.655,0.183-0.963
		c0.319-0.24,0.317-0.66,0.09-1.027c-0.238-0.384-0.643-0.492-0.987-0.331c-1.952,0.919-3.491-0.05-4.958-1.108
		c-1.45-1.046-2.65-2.345-3.273-4.083c-0.182-0.508-0.55-0.749-1.088-0.593c-0.521,0.151-0.741,0.645-0.524,1.23
		c0.361,0.978,0.707,1.952,0.712,3.015c0.006,1.57-0.831,2.258-2.345,1.833c-1.725-0.485-3.144-1.51-4.409-2.738
		c-1.329-1.289-2.37-2.743-2.46-4.7c-0.022-0.503-0.416-0.732-0.883-0.707c-0.522,0.029-0.789,0.398-0.814,0.888
		c-0.035,0.663-0.011,1.329-0.015,1.993c-0.008,1.382-0.313,2.672-1.15,3.806c-0.756,1.023-1.676,1.25-2.771,0.614
		c-1.631-0.947-2.673-2.436-3.544-4.044c-1.258-2.323-2.132-4.763-2.021-7.464c0.021-0.498-0.096-0.954-0.643-1.104
		c-0.499-0.138-0.864,0.081-1.062,0.557c-0.089,0.213-0.29,0.264-0.468,0.342C17.363,15.46,13.23,21.42,11.37,29.174
		c-0.314,1.311-0.541,2.639-0.682,3.981c-0.233,0.059-0.384-0.085-0.509-0.237c-1.906-2.31-2.531-4.901-1.704-7.808
		C8.582,24.892,8.644,24.648,8.835,24.479"/>
	<path fill="#FFD9B4" d="M55.373,44.19c-0.286-0.372-0.362,0.062-0.479,0.152c-1.062,0.843-2.22,1.305-3.607,1.085
		c-1.809-0.287-2.863-1.454-3.583-3.011c-1.226-2.653,0.029-4.851,2.092-6.195c1.04-0.678,2.23-0.625,3.391-0.347
		c1.427,0.34,2.64,1.032,3.316,2.401c0.274,0.557,0.171-0.195,0.296-0.06C56.568,40.266,56.164,42.274,55.373,44.19"/>
	<path fill="#FFD9B4" d="M12.589,38.746c0.321,0.145,0.298-0.171,0.382-0.306c0.683-1.094,1.536-1.972,2.779-2.443
		c1.593-0.604,3.489-0.2,4.658,1.102c0.876,0.976,1.411,2.142,1.574,3.444c0.119,0.959-0.202,1.836-0.757,2.613
		c-1.778,2.494-3.591,2.898-6.453,1.741c-0.226-0.092-0.441-0.205-0.662-0.309C13.285,42.724,12.864,40.754,12.589,38.746"/>
	<path fill="#FEF8EA" d="M65.972,53.55c-0.05,1.636-0.43,3.155-1.665,4.331c-0.733,0.698-1.549,0.595-1.988-0.217
		c-0.228-0.418-0.295-0.813,0.125-1.192c0.38-0.343,0.426-0.789,0.104-1.189c-0.349-0.435-0.783-0.415-1.241-0.125
		c-0.277,0.176-0.574,0.333-0.881,0.448c-0.24,0.09-0.535,0.184-0.741-0.066c-0.174-0.211-0.098-0.468-0.001-0.693
		c0.164-0.386,0.357-0.759,0.52-1.146c0.259-0.62,0.134-1.083-0.335-1.314c-0.484-0.239-0.888-0.06-1.221,0.546
		c-0.128,0.231-0.234,0.535-0.542,0.519c-0.387-0.02-0.611-0.323-0.787-0.64c-0.717-1.286-0.078-3.55,1.273-4.153
		c2.997-1.339,6.445-0.615,7.262,3.637C65.933,52.704,66.022,53.121,65.972,53.55"/>
	<path fill="#FEFEFE" d="M28.898,60.804c0.101-0.365,0.191-0.737,0.603-0.893c0.604-0.228,1.195,0.176,1.134,0.856
		c-0.099,1.097-0.281,2.186-0.438,3.276c-0.297,2.073-0.597,4.146-0.906,6.219c-0.044,0.293-0.047,0.515,0.17,0.78
		c0.436,0.531,0.252,1.183-0.402,1.367c-0.409,0.116-0.567,0.351-0.705,0.688c-0.174,0.43-0.353,0.859-0.563,1.271
		c-0.232,0.456-0.612,0.643-1.101,0.409c-0.462-0.222-0.627-0.605-0.451-1.098c0.11-0.312,0.251-0.612,0.386-0.915
		c0.188-0.421,0.329-0.787,0.034-1.276c-0.282-0.471,0.006-0.895,0.512-1.093c0.185-0.071,0.369-0.061,0.407-0.336
		c0.345-2.511,0.703-5.021,1.057-7.53C28.722,61.955,28.81,61.379,28.898,60.804"/>
	<path fill="#FEFEFE" d="M40.594,62.538c0.138,1.808,0.523,3.58,0.739,5.377c0.082,0.679,0.208,1.352,0.302,2.029
		c0.032,0.238,0.104,0.363,0.371,0.453c0.59,0.199,0.81,0.68,0.505,1.203c-0.235,0.402-0.137,0.697,0.03,1.046
		c0.152,0.319,0.31,0.641,0.41,0.978c0.146,0.486,0.09,0.945-0.446,1.17c-0.531,0.223-0.897-0.03-1.133-0.501
		c-0.168-0.336-0.308-0.686-0.454-1.031c-0.169-0.401-0.294-0.77-0.848-0.876c-0.511-0.098-0.744-0.702-0.473-1.052
		c0.634-0.818,0.229-1.619,0.126-2.405c-0.338-2.581-0.75-5.153-1.117-7.731c-0.123-0.865,0.094-1.255,0.664-1.328
		c0.563-0.072,0.854,0.217,1.022,1.016C40.405,61.434,40.398,62.004,40.594,62.538"/>
	<path fill="#FEFEFE" d="M13.366,12.412c-1.7,0.813-3.315,1.747-4.578,3.188c-0.513,0.585-0.952,1.217-1.228,1.949
		c-0.5,1.327-0.13,2.552,0.986,3.497c0.317,0.269,0.844,0.394,0.816,0.965c-0.957-0.083-1.871-0.319-2.71-0.797
		c-1.674-0.952-2.028-2.302-1.049-3.95c0.633-1.066,1.515-1.896,2.514-2.607c1.454-1.034,3.07-1.73,4.776-2.226
		C13.032,12.393,13.203,12.205,13.366,12.412"/>
	<path fill="#FEF8EA" d="M61.339,38.974c0.027,0.609-0.058,1.175-0.269,1.717c-0.419,1.081-1.78,1.755-2.891,1.458
		c-0.258-0.068-0.284-0.173-0.223-0.422c0.388-1.569,0.585-3.168,0.702-4.777c0.014-0.183,0.024-0.33,0.225-0.431
		c0.911-0.459,1.937-0.06,2.26,0.911C61.312,37.938,61.374,38.465,61.339,38.974"/>
	<path fill="#FEFEFD" d="M8.588,25.071c-0.475,1.836-0.343,3.639,0.305,5.411c0.379,1.038,0.973,1.932,1.796,2.672
		c-0.036,0.884-0.278,1.024-1.064,0.568c-0.887-0.515-1.396-1.35-1.691-2.285c-0.706-2.232-0.566-4.42,0.51-6.523
		C8.567,24.896,8.645,24.921,8.588,25.071"/>
	<path fill="#FEF7E9" d="M11.446,42.124c-1.061-0.096-1.732-0.606-2.033-1.526c-0.344-1.049-0.345-2.127-0.025-3.19
		c0.067-0.226,0.199-0.444,0.347-0.631c0.196-0.25,0.498-0.449,0.799-0.354c0.275,0.087,0.13,0.431,0.145,0.657
		C10.784,38.756,11.054,40.408,11.446,42.124"/>
	<path fill="#FEF8E9" d="M33.036,58.256c1.321,0,2.643,0,4.072,0c-0.421,0.9-0.892,1.672-1.756,2.11
		c-0.601,0.305-1.16,0.104-1.674-0.255c-0.63-0.439-1.033-1.076-1.451-1.698C32.43,58.01,32.762,58.28,33.036,58.256"/>
	<path fill="#FEF7E9" d="M59.4,58.198c-1.449-0.341-2.642-1.068-3.447-2.35c-0.215-0.341-0.098-0.611,0.277-0.8
		c0.741-0.373,1.471-0.047,1.67,0.735c0.205,0.804,0.694,1.377,1.529,1.568c0.374,0.085,0.344,0.364,0.357,0.61
		C59.802,58.221,59.594,58.209,59.4,58.198"/>
	<path fill="#A48963" d="M33.036,58.256c-0.254,0.131-0.585-0.135-0.809,0.157c-0.124-0.125-0.113-0.255,0.065-0.258
		C32.541,58.15,32.808,58.085,33.036,58.256"/>
	<path fill="#F4F0E9" d="M8.588,25.071c-0.049-0.052-0.098-0.104-0.146-0.156c0.062-0.208,0.129-0.41,0.393-0.436
		C8.753,24.677,8.671,24.874,8.588,25.071"/>
	<path fill="#6E4100" d="M34.445,49.447c-2.394-0.117-4.744-0.88-6.407-3.11c-0.265-0.354-0.481-0.74-0.639-1.158
		c-0.16-0.427-0.02-0.769,0.364-0.944c0.379-0.173,0.763-0.078,0.964,0.324c1.398,2.802,3.862,3.479,6.714,3.374
		c1.19-0.043,2.311-0.365,3.344-0.962c0.886-0.512,1.577-1.21,1.967-2.174c0.202-0.501,0.549-0.807,1.078-0.557
		c0.541,0.255,0.463,0.738,0.252,1.202c-1.02,2.244-2.92,3.284-5.203,3.787C36.164,49.387,35.436,49.44,34.445,49.447"/>
	<path fill="#6E4100" d="M28.172,35.143c-0.026,0.33-0.147,0.605-0.473,0.737c-0.368,0.149-0.719,0.097-0.947-0.234
		c-0.427-0.618-1.052-0.857-1.743-0.971c-0.569-0.093-1.092-0.021-1.505,0.463c-0.346,0.405-0.776,0.407-1.176,0.082
		c-0.391-0.317-0.498-0.739-0.223-1.179c0.604-0.966,1.491-1.439,2.628-1.336c1.306,0.119,2.313,0.813,3.151,1.781
		C28.045,34.671,28.153,34.89,28.172,35.143"/>
	<path fill="#6E4100" d="M47.651,34.537c-0.042,0.376-0.213,0.688-0.562,0.838c-0.3,0.129-0.611,0.076-0.87-0.148
		c-0.925-0.8-2.37-0.698-3.155,0.224c-0.459,0.54-0.892,0.646-1.282,0.316c-0.383-0.324-0.369-0.854,0.051-1.356
		c0.779-0.933,1.742-1.573,2.97-1.705c1.103-0.118,1.989,0.303,2.628,1.218C47.557,34.107,47.674,34.297,47.651,34.537"/>
	<path fill="#6E4100" d="M26.113,23.231c-0.317-0.02-0.609-0.119-0.895-0.24c-1.068-0.454-2.009-1.103-2.856-1.889
		c-0.31-0.287-0.459-0.651-0.139-0.987c0.319-0.334,0.662-0.203,0.981,0.098c0.893,0.839,1.875,1.537,3.089,1.844
		c0.349,0.089,0.534,0.312,0.48,0.678C26.719,23.109,26.456,23.234,26.113,23.231"/>
	<path fill="#6F4401" d="M34.576,33.22c0.579,0.005,1.113,0.646,1.109,1.257c-0.003,0.472-0.278,0.668-0.72,0.68
		c-0.509,0.014-1.024-0.613-1.029-1.249C33.933,33.433,34.21,33.244,34.576,33.22"/>
</g>
</svg>
