<?xml version="1.0" encoding="utf-8"?>
<!-- Generator: Adobe Illustrator 16.0.0, SVG Export Plug-In . SVG Version: 6.00 Build 0)  -->
<!DOCTYPE svg PUBLIC "-//W3C//DTD SVG 1.1//EN" "http://www.w3.org/Graphics/SVG/1.1/DTD/svg11.dtd">
<svg version="1.1" id="Layer_1" xmlns="http://www.w3.org/2000/svg" xmlns:xlink="http://www.w3.org/1999/xlink" x="0px" y="0px"
	 width="85px" height="85px" viewBox="0 0 85 85" enable-background="new 0 0 85 85" xml:space="preserve">
<g>
	<path fill="#EABD2C" d="M7.062,34.534c-0.002,8.502,9.979,15.396,22.293,15.396c12.312,0.002,22.297-6.891,22.299-15.393
		c0-0.002,0-0.004,0-0.004c0.002-8.504-9.979-15.396-22.293-15.398C17.047,19.134,7.064,26.026,7.062,34.528
		C7.062,34.53,7.062,34.532,7.062,34.534z"/>
	<path fill="#EABD2C" d="M9.814,40.509L3.572,19.728l5.438-1.35l8.449,26.115l-7.377-2.102L9.814,40.509z"/>
	<path fill="#543819" d="M18.758,45.747l-9.442-2.689L8.975,40.69L2.5,19.116l7.075-1.752L18.758,45.747L18.758,45.747z
		 M10.847,41.724l5.312,1.51l-7.717-23.84L4.64,20.337l6.004,19.986L10.847,41.724L10.847,41.724z"/>
	<path fill="#EABD2C" d="M13.1,42.013V20.427h4.415l-0.38,24.605L13.1,42.013z"/>
	<path fill="#543819" d="M17.963,46.706l-5.714-4.27V19.571h6.128L17.963,46.706z M13.951,41.587l2.361,1.766l0.34-22.074h-2.701
		V41.587z"/>
	<path fill="#EABD2C" d="M16.994,44.034V8.233h5.709l-0.541,37.898L16.994,44.034"/>
	<path fill="#543819" d="M22.998,47.392l-6.855-2.785V7.38h7.422L22.998,47.392L22.998,47.392z M17.844,43.46l3.483,1.412
		l0.512-35.789h-3.995V43.46z"/>
	<path fill="#EABD2C" d="M34.351,44.062V27.185h7.752v17.848L34.351,44.062z"/>
	<path fill="#543819" d="M42.955,45.991L33.5,44.81V26.333h9.454V45.991z M35.203,43.306l6.049,0.756V28.036h-6.049V43.306z"/>
	<path fill="#EABD2C" d="M20.386,42.774v-20.26h7.751v21.422L20.386,42.774z"/>
	<path fill="#543819" d="M28.99,44.923l-9.455-1.418V21.663h9.455V44.923z M21.238,42.036l6.049,0.906V23.366h-6.049V42.036
		L21.238,42.036z"/>
	<path fill="#EABD2C" d="M41.728,45.118l-0.373-34.186h4.034l0.488,35.961L42,45.173"/>
	<path fill="#543819" d="M46.746,48.216l-5.09-2.266l0.369-0.834l-1.146,0.012l-0.387-35.047h5.739L46.746,48.216z M42.574,44.497
		l2.436,1.078l-0.453-33.791h-2.34L42.574,44.497z"/>
	<path fill="#EABD2C" d="M42.347,45.054l2.749-20.457l7.643,0.705l-5.197,20.832L42.347,45.054z"/>
	<path fill="#543819" d="M48.168,47.132l-6.774-1.402l2.961-22.051l9.449,0.861L48.168,47.132L48.168,47.132z M43.295,44.384
		l3.619,0.75l4.756-19.078l-5.844-0.533L43.295,44.384L43.295,44.384z"/>
	<path fill="#EABD2C" d="M31.877,43.341V12.659h4.04v32.514L31.877,43.341z"/>
	<path fill="#543819" d="M36.769,46.495l-5.742-2.604V11.808h5.742V46.495z M32.728,42.796l2.338,1.062v-30.35h-2.338V42.796z"/>
	<path fill="#EABD2C" d="M33.307,18.327h-6.514v26.217h6.083L33.307,18.327z"/>
	<path fill="#543819" d="M33.71,45.396h-7.773v-27.92h8.227L33.71,45.396z M27.644,43.692h4.393l0.402-24.514h-4.795V43.692z"/>
	<path fill="#EABD2C" d="M22.089,17.034h4.148c0,0,2.047,27.293,5.385,31.385C26.293,47.937,25,47.614,25,47.614
		S21.226,21.987,22.089,17.034L22.089,17.034z"/>
	<path fill="#543819" d="M33.557,49.452l-2.015-0.184c-5.334-0.48-6.696-0.814-6.754-0.826l-0.549-0.139l-0.086-0.561
		c-0.152-1.051-3.778-25.82-2.904-30.848l0.125-0.705h5.652l0.057,0.789c0.006,0.068,0.521,6.891,1.436,14.125
		c1.59,12.547,3.036,15.906,3.756,16.791L33.557,49.452L33.557,49.452z M25.754,46.888c0.651,0.107,1.963,0.295,4.341,0.533
		c-0.533-1.26-1.05-3.064-1.555-5.453c-0.59-2.799-1.163-6.385-1.709-10.668c-0.737-5.834-1.219-11.406-1.385-13.416h-2.599
		C22.447,23.468,25.221,43.181,25.754,46.888L25.754,46.888z"/>
	<path fill="#EABD2C" d="M29.42,39.952c-8.614,0-16.394-2.037-21.968-5.316v31.59c0,2.367,1.941,4.309,4.308,4.309h35.21
		c2.365,0,4.309-1.941,4.309-4.309V34.698C45.711,37.938,37.978,39.952,29.42,39.952z"/>
	<path fill="#EABD2C" d="M46.973,70.556H11.761c-2.389,0-4.335-1.945-4.335-4.336V34.585l0.046,0.021
		c5.822,3.428,13.619,5.312,21.949,5.312c8.273,0,16.03-1.861,21.842-5.25l0.045-0.021V66.22
		C51.309,68.616,49.361,70.556,46.973,70.556z M7.482,34.681V66.22c0,2.361,1.918,4.279,4.278,4.279h35.21
		c2.361,0,4.279-1.918,4.279-4.279V34.749c-2.82,1.635-6.105,2.916-9.772,3.818c-3.814,0.938-7.871,1.412-12.059,1.412
		c-4.211,0-8.291-0.48-12.127-1.43C13.605,37.638,10.308,36.339,7.482,34.681L7.482,34.681z"/>
	<path fill="#EABD2C" d="M53.248,64.569c0,0,13.354,1.617,25.246,11.52c0.482-1.992,1.346-5.277,1.346-5.277
		s-11.898-9.367-24.871-10.82C54.105,62.419,53.248,64.569,53.248,64.569z"/>
	<path fill="#543819" d="M79,77.62l-1.051-0.873c-6.043-5.033-12.482-7.848-16.812-9.324c-4.688-1.594-7.955-2.002-7.99-2.008
		l-1.102-0.131l0.408-1.027c0.012-0.021,0.869-2.168,1.715-4.545l0.229-0.637l0.67,0.074c3.029,0.34,6.24,1.129,9.561,2.35
		c2.641,0.971,5.352,2.219,8.059,3.705c4.602,2.531,7.564,4.846,7.689,4.941l0.438,0.348l-0.143,0.539
		c-0.012,0.033-0.863,3.297-1.346,5.26L79,77.62L79,77.62z M54.422,63.894c1.373,0.244,3.969,0.795,7.26,1.918
		c2.842,0.971,5.615,2.162,8.244,3.547c2.877,1.521,5.584,3.273,8.062,5.227c0.324-1.281,0.688-2.684,0.885-3.438
		c-0.98-0.732-3.551-2.561-7.041-4.473c-3.979-2.184-9.98-4.914-16.291-5.76C55.115,62.095,54.707,63.161,54.422,63.894z"/>
	<path fill="#EABD2C" d="M44.793,72.429c0,0,18.896-7.967,36.771-6.838c-0.268-3.014-0.482-5.602-0.482-5.602
		s-27.131,0.861-36.664,6.838C44.471,69.091,44.793,72.429,44.793,72.429z"/>
	<path fill="#543819" d="M44.061,73.665l-0.113-1.152c-0.01-0.135-0.328-3.393-0.379-5.662l-0.012-0.482l0.408-0.254
		c4.057-2.549,11.549-4.49,22.256-5.783c7.922-0.953,14.766-1.18,14.834-1.188l0.805-0.027l0.068,0.807
		c0,0.027,0.215,2.615,0.482,5.594l0.09,0.988l-0.986-0.061c-9.107-0.574-18.506,1.293-24.787,2.961
		c-6.826,1.814-11.555,3.791-11.6,3.812L44.061,73.665L44.061,73.665z M45.281,67.304c0.051,1.316,0.17,2.883,0.256,3.916
		c1.793-0.691,5.697-2.117,10.719-3.451c4.074-1.084,8.08-1.898,11.906-2.422c4.414-0.607,8.604-0.822,12.467-0.652
		c-0.143-1.59-0.262-2.979-0.33-3.812c-2.023,0.09-7.613,0.385-13.891,1.141C56.473,63.218,49.186,65.04,45.281,67.304
		L45.281,67.304z"/>
	<path fill="#774B21" d="M45.605,65.358c-0.652,0-1.188-0.533-1.188-1.188V52.165c0-0.652,0.533-1.188,1.188-1.188
		c0.652,0,1.186,0.533,1.186,1.188v12.006C46.785,64.829,46.25,65.358,45.605,65.358L45.605,65.358z M45.617,43.937
		c-0.955,0-1.736,0.783-1.736,1.736s0.781,1.736,1.736,1.736c0.953,0,1.736-0.783,1.736-1.736
		C47.354,44.714,46.57,43.937,45.617,43.937z"/>
	<path fill="#FFFFFF" d="M13.248,58.173c-0.68,0-1.236-0.555-1.236-1.236v-5.355c0-0.682,0.557-1.236,1.236-1.236
		c0.682,0,1.238,0.557,1.238,1.236v5.355C14.486,57.612,13.929,58.173,13.248,58.173z"/>
</g>
</svg>
