<?xml version="1.0" encoding="utf-8"?>
<!-- Generator: Adobe Illustrator 16.0.0, SVG Export Plug-In . SVG Version: 6.00 Build 0)  -->
<!DOCTYPE svg PUBLIC "-//W3C//DTD SVG 1.1//EN" "http://www.w3.org/Graphics/SVG/1.1/DTD/svg11.dtd">
<svg version="1.1" id="Layer_1" xmlns="http://www.w3.org/2000/svg" xmlns:xlink="http://www.w3.org/1999/xlink" x="0px" y="0px"
	 width="85px" height="85px" viewBox="0 0 85 85" enable-background="new 0 0 85 85" xml:space="preserve">
<g>
	<path fill="#689F38" d="M81.853,5.626l-5.682,6.555L72.8,8.81l6.555-5.682C79.354,3.13,81.478,3.44,81.853,5.626z"/>
	<path fill="#3949AB" d="M71.489,31.224c-0.125-0.438,0.312-0.875-0.312-1.312l0,0c0-0.188,0-0.375,0-0.625l0,0l-0.188-0.188
		c-0.375-1.936-0.375-3.682,0.188-5.307l0,0v-1.686c-1.873,1.123-4.244,1.123-6.742,0.625l0.062,0.062
		c-0.562-0.125-1.25-0.189-1.873-0.375c-0.125-0.438-0.25-0.812-0.312-1.25c-0.562-3.184-0.375-6.93,2.061-9.365l-0.061-0.062
		c-2.312,2.311-5.682,2.686-8.678,2.311v-0.125c-0.625-0.125-1.188-0.25-1.812-0.438c0,0-0.061-0.5,0.062-1.311
		c-1.561,0.562-3.121,1.311-4.494,2.436c0,0-39.645,32.463-40.394,33.213c-7.804,7.805-7.804,20.479,0,28.281s20.478,7.805,28.282,0
		c0.748-0.748,2.061-2.434,2.061-2.434l31.153-38.021c1.062-1.375,1.873-2.873,2.436-4.496
		C71.987,31.224,71.489,31.224,71.489,31.224z"/>
	<path fill="#689F38" d="M74.423,10.558L74.423,10.558C63.995,0.132,58.94,3.065,56.755,5.251s-2.748,5.244-2.936,6.93l0,0
		c-0.061,0.812-0.061,1.311-0.061,1.311c0.623,0.189,1.186,0.312,1.811,0.438v-0.062v0.438l0,0c3.246,0.625,6.18,0.062,8.678-2.496
		l0,0h0.062h0.061l0,0c-2.621,2.621-2.871,5.432-2.186,8.74l0.25,0.25c0,0.562,0.062,1.186,0.125,1.5
		c0.625,0.186,1.186,0.311,1.748,0.436l-0.062-0.125l0.125,0.125c2.498,0.5,4.869,0.5,6.742-0.625
		c0.625-0.375,1.312-0.873,1.998-1.561l0.062,0.062c-0.998,0.998-1.373,2.061-1.998,3.184l0,0v5.619v0.438l0,0
		c0.625,0.436,0.188,0.873,0.312,1.311c0,0,0.498,0,1.373-0.062c1.748-0.188,4.744-0.812,6.867-2.934l0,0
		C81.853,26.042,84.849,20.985,74.423,10.558z"/>
	<path d="M23.041,82.479c-5.308,0-10.552-1.998-14.547-6.055c-7.991-8.055-7.991-21.104,0-29.156
		c0.749-0.75,36.398-29.906,40.457-33.215c1.436-1.123,2.996-1.936,4.684-2.496c0.311-0.125,0.686,0.061,0.811,0.375
		c0.125,0.311-0.061,0.686-0.375,0.811c-1.561,0.5-2.996,1.312-4.307,2.311C36.151,26.229,10.117,47.519,9.43,48.204
		c-7.554,7.557-7.554,19.855,0,27.348c3.684,3.682,8.491,5.68,13.674,5.68c5.182,0,10.051-1.998,13.672-5.68
		c0.75-0.75,1.998-2.312,1.998-2.373l31.155-38.021c0.998-1.311,1.811-2.748,2.309-4.309c0.125-0.312,0.439-0.5,0.812-0.375
		c0.312,0.125,0.5,0.438,0.375,0.812c-0.562,1.686-1.438,3.246-2.498,4.682L39.774,73.989c-0.062,0.062-1.312,1.686-2.061,2.436
		C33.591,80.481,28.348,82.479,23.041,82.479z"/>
	<path d="M71.614,31.847c-0.125,0-0.125,0-0.188,0c-0.312,0-0.562-0.25-0.625-0.562c0-0.375-0.062-0.436-0.25-1.123l-0.188-0.625
		c-0.062-0.312,0.125-0.688,0.438-0.75c0.312-0.061,0.688,0.125,0.75,0.438l0.188,0.625c0.123,0.375,0.188,0.625,0.248,0.812
		c0.189,0,0.439,0,0.75-0.062c1.562-0.188,4.494-0.748,6.492-2.746c0,0,0,0,0.062-0.062c4.744-4.744-0.25-11.736-5.244-16.73
		c-0.25-0.25-0.25-0.625,0-0.875s0.625-0.25,0.875,0c9.801,9.803,8.303,15.484,5.307,18.479c0,0,0,0.062-0.062,0.062
		c-2.311,2.311-5.557,2.936-7.305,3.123C72.3,31.847,71.802,31.847,71.614,31.847z"/>
	<path d="M70.989,29.911c-0.312,0-0.562-0.188-0.625-0.5c-0.436-2.373-0.436-4.119,0.189-5.805c0-0.062,0.061-0.125,0.061-0.125
		c0.125-0.188,0.25-0.438,0.312-0.625c-1.871,0.873-3.934,1.062-6.742,0.438c-0.562-0.125-1.188-0.25-1.811-0.438
		c-0.188-0.062-0.375-0.25-0.438-0.438c-0.188-0.688-0.312-1.248-0.438-1.811c-0.438-1.998-0.625-4.246,0.375-6.494
		c-2.248,1-4.494,0.812-6.492,0.438c-0.312-0.062-0.562-0.375-0.5-0.748c0.061-0.312,0.375-0.562,0.75-0.5
		c3.619,0.686,5.93,0.125,8.113-2.062c0.25-0.25,0.625-0.25,0.875,0l0.062,0.062c0.25,0.25,0.25,0.625,0,0.875
		c-2.498,2.498-2.623,5.057-1.998,8.178c0.062,0.438,0.188,0.875,0.312,1.375c0.5,0.125,0.938,0.25,1.373,0.312
		c2.686,0.561,4.621,0.375,6.307-0.562c0.625-0.375,1.248-0.812,1.873-1.436c0.188-0.189,0.562-0.25,0.812-0.062l0.125,0.062
		c0.123,0.125,0.248,0.25,0.248,0.436c0,0.188-0.061,0.375-0.186,0.5c-0.689,0.688-1.062,1.438-1.5,2.186
		c-0.125,0.25-0.25,0.5-0.438,0.748c-0.5,1.438-0.561,2.998-0.125,5.121c0.062,0.312-0.125,0.688-0.5,0.748
		C71.114,29.911,71.052,29.911,70.989,29.911z"/>
	<path d="M55.569,14.554c-0.062,0-0.062,0-0.125,0c-0.562-0.125-1.188-0.25-1.873-0.438c-0.25-0.061-0.438-0.311-0.438-0.561
		c0,0,0-0.562,0.061-1.438c0.189-1.748,0.812-4.994,3.123-7.303c1.748-1.75,3.809-2.498,6.242-2.248
		c3.496,0.375,7.68,2.934,12.299,7.553c0.25,0.25,0.25,0.625,0,0.875s-0.623,0.25-0.873,0c-4.434-4.434-8.305-6.867-11.551-7.18
		c-2.061-0.188-3.746,0.375-5.244,1.873c-2.061,2.059-2.621,4.994-2.809,6.555c0,0.312-0.062,0.562-0.062,0.812
		c0.438,0.125,0.873,0.188,1.248,0.311c0.312,0.062,0.625,0.438,0.5,0.75C56.067,14.366,55.817,14.554,55.569,14.554z"/>
	<path d="M74.423,11.183c-0.188,0-0.312-0.062-0.438-0.188c-0.25-0.25-0.25-0.625,0-0.875s0.623-0.25,0.873,0l0,0
		c0.25,0.25,0.25,0.625,0,0.875C74.735,11.12,74.61,11.183,74.423,11.183z"/>
	<path d="M76.171,12.806c-0.125,0-0.312-0.062-0.438-0.125c-0.25-0.25-0.312-0.625-0.062-0.873l5.494-6.307
		c-0.312-1.123-1.188-1.498-1.623-1.623L73.235,9.31c-0.25,0.25-0.623,0.188-0.873-0.061c-0.25-0.25-0.188-0.625,0.062-0.875
		l6.555-5.682c0.125-0.125,0.312-0.188,0.5-0.125c0.873,0.125,2.684,0.936,2.996,2.996c0.062,0.188,0,0.375-0.125,0.5l-5.682,6.555
		C76.483,12.743,76.296,12.806,76.171,12.806z"/>
	<path d="M8.432,67.995c-0.25,0-0.5-0.125-0.562-0.438c-2.186-5.93-0.75-12.609,3.621-17.105c0.25-0.25,0.623-0.25,0.873,0
		s0.25,0.625,0,0.875c-4.059,4.119-5.368,10.301-3.371,15.795c0.125,0.312-0.062,0.688-0.375,0.812
		C8.557,67.995,8.494,67.995,8.432,67.995z"/>
	<path d="M35.839,71.491c-0.125,0-0.25-0.061-0.375-0.125c-0.25-0.25-0.312-0.623-0.062-0.873l21.852-26.658
		c0.188-0.25,0.625-0.312,0.875-0.062c0.248,0.25,0.311,0.625,0.061,0.875L36.338,71.306C36.213,71.429,36.026,71.491,35.839,71.491
		z"/>
	<path d="M60.438,41.462c-0.125,0-0.25-0.062-0.375-0.125c-0.25-0.25-0.311-0.623-0.061-0.873l4.057-4.934
		c0.188-0.25,0.625-0.311,0.875-0.061s0.311,0.625,0.061,0.873l-4.057,4.932C60.813,41.399,60.624,41.462,60.438,41.462z"/>
</g>
</svg>
