<?xml version="1.0" encoding="utf-8"?>
<!-- Generator: Adobe Illustrator 16.0.0, SVG Export Plug-In . SVG Version: 6.00 Build 0)  -->
<!DOCTYPE svg PUBLIC "-//W3C//DTD SVG 1.1//EN" "http://www.w3.org/Graphics/SVG/1.1/DTD/svg11.dtd">
<svg version="1.1" id="Layer_1" xmlns="http://www.w3.org/2000/svg" xmlns:xlink="http://www.w3.org/1999/xlink" x="0px" y="0px"
	 width="85px" height="85px" viewBox="0 0 85 85" enable-background="new 0 0 85 85" xml:space="preserve">
<g>
	<circle fill="#DFEDF8" cx="39.808" cy="45.79" r="31.732"/>
	<path fill="#234685" d="M46.39,15.735c-0.018,0.047-0.23,0.024-0.625-0.065l-0.332-0.078l-0.4-0.091l-0.471-0.113l-0.539-0.118
		c-0.766-0.165-1.713-0.359-2.842-0.505c-1.127-0.151-2.436-0.256-3.904-0.255c-0.367-0.006-0.746,0.011-1.133,0.021
		c-0.193,0.007-0.389,0.021-0.588,0.031c-0.197,0.01-0.398,0.022-0.602,0.042c-0.812,0.061-1.658,0.171-2.537,0.317
		c-1.758,0.292-3.637,0.784-5.582,1.509c-1.943,0.727-3.949,1.699-5.938,2.952s-3.965,2.78-5.816,4.61
		c-0.926,0.914-1.828,1.897-2.68,2.958c-0.852,1.062-1.666,2.189-2.414,3.393c-0.744,1.204-1.441,2.471-2.043,3.809l-0.227,0.503
		l-0.215,0.512l-0.107,0.256l-0.102,0.259l-0.203,0.521c-0.123,0.353-0.258,0.701-0.373,1.061l-0.176,0.537l-0.164,0.543
		c-0.85,2.901-1.303,6.058-1.312,9.289v0.606l0.018,0.609l0.01,0.306l0.018,0.306l0.035,0.611c0.037,0.408,0.062,0.818,0.113,1.229
		c0.023,0.204,0.043,0.41,0.07,0.614l0.088,0.614c0.123,0.819,0.271,1.642,0.465,2.456c0.088,0.41,0.201,0.814,0.307,1.223
		c0.057,0.203,0.117,0.404,0.178,0.607l0.088,0.305l0.1,0.302c1.035,3.223,2.662,6.341,4.92,9.036
		c0.57,0.671,1.162,1.321,1.809,1.94l0.238,0.234l0.246,0.227l0.496,0.453c0.166,0.149,0.342,0.291,0.512,0.437l0.258,0.219
		l0.129,0.108l0.133,0.104c1.41,1.123,2.932,2.137,4.557,3.004c0.412,0.21,0.816,0.433,1.236,0.624l0.629,0.298l0.641,0.277
		l0.318,0.139l0.326,0.129l0.652,0.257c0.219,0.083,0.439,0.158,0.66,0.238c0.221,0.077,0.439,0.161,0.666,0.229
		c1.787,0.584,3.635,1.045,5.527,1.339l0.709,0.109l0.715,0.09l0.359,0.046c0.119,0.015,0.238,0.022,0.359,0.034l0.719,0.068
		c0.963,0.071,1.932,0.126,2.904,0.125c0.973,0.013,1.947-0.027,2.924-0.088c0.488-0.041,0.977-0.071,1.465-0.13
		c0.244-0.028,0.488-0.05,0.73-0.082l0.732-0.102c0.244-0.029,0.486-0.072,0.729-0.112c0.242-0.042,0.484-0.079,0.727-0.124
		c0.479-0.099,0.963-0.181,1.438-0.295l0.715-0.164l0.709-0.184l0.354-0.092l0.352-0.102l0.699-0.203
		c0.23-0.074,0.461-0.148,0.691-0.224l0.346-0.11l0.342-0.122l0.684-0.242l0.674-0.263l0.336-0.133
		c0.111-0.045,0.223-0.094,0.332-0.141l0.662-0.282c0.219-0.098,0.436-0.201,0.652-0.301c0.217-0.101,0.434-0.2,0.645-0.311
		l0.639-0.321c0.213-0.109,0.418-0.228,0.627-0.339c0.422-0.223,0.824-0.472,1.232-0.708c0.803-0.497,1.592-1.01,2.34-1.572
		l0.283-0.208l0.141-0.104l0.137-0.109l0.547-0.436c0.186-0.141,0.355-0.298,0.535-0.446c0.174-0.152,0.354-0.298,0.523-0.455
		c0.338-0.315,0.688-0.62,1.006-0.951c0.162-0.163,0.328-0.321,0.486-0.487l0.469-0.504c0.078-0.084,0.156-0.166,0.232-0.252
		l0.223-0.26l0.447-0.52l0.422-0.533l0.213-0.268c0.068-0.09,0.133-0.183,0.201-0.272l0.398-0.549
		c0.131-0.185,0.252-0.374,0.379-0.562c0.258-0.37,0.482-0.758,0.719-1.141c0.119-0.188,0.221-0.39,0.33-0.583
		c0.107-0.196,0.219-0.391,0.322-0.587l0.299-0.6l0.148-0.298l0.135-0.304l0.271-0.607c0.092-0.202,0.166-0.41,0.25-0.615
		c0.078-0.206,0.166-0.408,0.238-0.616l0.217-0.624l0.107-0.312c0.033-0.104,0.062-0.21,0.096-0.313l0.188-0.632l0.047-0.156
		l0.041-0.158l0.08-0.318l0.16-0.635l0.133-0.641l0.066-0.319c0.021-0.105,0.045-0.212,0.061-0.319l0.105-0.643
		c0.035-0.214,0.072-0.428,0.094-0.644c0.227-1.71,0.287-3.426,0.197-5.113c-0.09-1.669-0.322-3.328-0.699-4.957
		c-0.369-1.587-0.873-3.14-1.506-4.642c-0.613-1.458-1.35-2.86-2.199-4.195l-0.312-0.49l-0.049-0.076
		c-0.006-0.009-0.01-0.011-0.012-0.015l-0.018-0.021l-0.199-0.223c-0.268-0.296-0.531-0.597-0.799-0.886l-0.799-0.866l-0.807-0.84
		c-1.076-1.104-2.172-2.139-3.303-3.072c-0.141-0.116-0.283-0.231-0.424-0.346l-0.213-0.172c-0.07-0.058-0.145-0.109-0.217-0.163
		c-0.289-0.215-0.576-0.435-0.865-0.644l-0.883-0.595c-0.072-0.05-0.146-0.097-0.225-0.141l-0.227-0.136l-0.447-0.271
		c-1.18-0.685-2.418-1.261-3.701-1.724c-0.637-0.196-1.26-0.418-1.898-0.559l-0.475-0.119c-0.08-0.019-0.158-0.042-0.238-0.057
		l-0.238-0.044l-0.949-0.176c-1.277-0.206-2.543-0.323-3.777-0.37c-1.232-0.044-2.438-0.025-3.604,0.078
		c-1.133,0.095-2.258,0.254-3.373,0.476c-1.08,0.219-2.111,0.503-3.09,0.823l-0.727,0.25c-0.236,0.087-0.469,0.183-0.701,0.271
		c-0.115,0.046-0.23,0.091-0.346,0.138l-0.336,0.147c-0.223,0.102-0.447,0.193-0.662,0.297c-0.43,0.213-0.855,0.414-1.254,0.644
		L29.12,24.84l-0.148,0.082l-0.145,0.088l-0.574,0.348c-0.191,0.11-0.367,0.24-0.547,0.359c-0.178,0.122-0.361,0.235-0.531,0.36
		l-0.504,0.374l-0.246,0.185l-0.236,0.192c-0.154,0.126-0.309,0.252-0.463,0.379c-0.152,0.125-0.293,0.261-0.438,0.388
		c-0.143,0.129-0.285,0.254-0.422,0.382c-0.131,0.13-0.262,0.26-0.393,0.391c-1.031,1.031-1.842,2.056-2.486,2.983
		c-0.156,0.235-0.312,0.458-0.455,0.677l-0.393,0.641c-0.061,0.104-0.127,0.201-0.18,0.302l-0.162,0.293l-0.301,0.542
		c-0.18,0.345-0.33,0.654-0.469,0.919l-0.1,0.189l-0.082,0.178c-0.049,0.103-0.098,0.204-0.148,0.305
		c-0.184,0.361-0.303,0.54-0.35,0.524c-0.047-0.017-0.023-0.228,0.068-0.627c0.023-0.1,0.051-0.211,0.084-0.335l0.051-0.193
		c0.02-0.067,0.043-0.135,0.066-0.208c0.098-0.287,0.205-0.624,0.348-0.998l0.244-0.587l0.135-0.318
		c0.045-0.108,0.104-0.215,0.156-0.327l0.344-0.699c0.127-0.238,0.27-0.482,0.414-0.74c0.688-1.176,1.488-2.28,2.395-3.296
		c0.129-0.146,0.26-0.291,0.391-0.437c0.137-0.143,0.281-0.284,0.424-0.428c0.145-0.143,0.285-0.293,0.439-0.435l0.469-0.426
		l0.24-0.217l0.252-0.208l0.516-0.422c0.174-0.143,0.359-0.272,0.543-0.411c0.188-0.135,0.369-0.281,0.566-0.408l0.59-0.396
		l0.15-0.101l0.154-0.094l0.312-0.188c0.416-0.263,0.857-0.494,1.307-0.739c0.225-0.12,0.459-0.229,0.691-0.344l0.352-0.173
		c0.121-0.053,0.242-0.105,0.361-0.159c0.244-0.105,0.486-0.217,0.736-0.318l0.762-0.295c4.105-1.54,9.197-2.239,14.686-1.506
		c0.344,0.056,0.691,0.11,1.041,0.167l0.262,0.042c0.088,0.015,0.174,0.038,0.262,0.056l0.521,0.117
		c0.705,0.139,1.396,0.363,2.104,0.566c1.396,0.467,2.779,1.071,4.119,1.812l0.5,0.286l0.25,0.144
		c0.084,0.047,0.166,0.098,0.246,0.15l0.977,0.63c0.318,0.22,0.633,0.451,0.953,0.678c0.078,0.059,0.16,0.113,0.236,0.173
		l0.23,0.182l0.465,0.364c1.23,0.979,2.406,2.055,3.549,3.186l0.852,0.859l0.836,0.879c0.281,0.294,0.553,0.595,0.832,0.894
		l0.207,0.226l0.086,0.093c0.029,0.034,0.062,0.066,0.084,0.102l0.117,0.179l0.354,0.529c0.947,1.441,1.771,2.961,2.463,4.542
		c0.711,1.628,1.281,3.314,1.703,5.04c0.434,1.775,0.709,3.584,0.824,5.408c0.117,1.847,0.07,3.73-0.162,5.617
		c-0.021,0.235-0.061,0.472-0.098,0.706l-0.109,0.707c-0.016,0.118-0.039,0.234-0.062,0.353l-0.068,0.354l-0.141,0.705l-0.172,0.701
		l-0.088,0.353l-0.043,0.177l-0.049,0.174l-0.203,0.698c-0.033,0.117-0.066,0.233-0.104,0.35l-0.117,0.348l-0.234,0.691
		c-0.078,0.231-0.174,0.457-0.26,0.688c-0.09,0.228-0.172,0.459-0.271,0.684l-0.295,0.676l-0.15,0.339l-0.162,0.333
		c-0.107,0.222-0.219,0.442-0.326,0.666c-0.113,0.221-0.234,0.437-0.354,0.653c-0.121,0.217-0.232,0.439-0.365,0.65
		c-0.256,0.426-0.506,0.857-0.789,1.271c-0.139,0.208-0.271,0.42-0.416,0.625l-0.438,0.61c-0.074,0.102-0.146,0.204-0.223,0.305
		l-0.232,0.297l-0.465,0.595l-0.49,0.575l-0.246,0.289c-0.082,0.096-0.17,0.188-0.256,0.28l-0.516,0.559
		c-0.174,0.185-0.354,0.359-0.533,0.54c-0.354,0.366-0.73,0.704-1.104,1.054c-0.186,0.174-0.383,0.335-0.574,0.503
		c-0.193,0.165-0.383,0.338-0.586,0.494l-0.598,0.479l-0.15,0.119l-0.152,0.115l-0.309,0.229c-0.816,0.618-1.678,1.184-2.551,1.728
		c-0.445,0.261-0.883,0.532-1.34,0.773c-0.229,0.123-0.451,0.251-0.682,0.37l-0.691,0.353c-0.23,0.119-0.465,0.229-0.699,0.338
		c-0.234,0.108-0.471,0.222-0.707,0.328l-0.715,0.308c-0.121,0.051-0.24,0.104-0.359,0.152l-0.363,0.143l-0.729,0.285l-0.734,0.264
		l-0.369,0.132l-0.373,0.121l-0.746,0.241l-0.756,0.22l-0.377,0.109l-0.381,0.1l-0.764,0.198l-0.77,0.176
		c-0.512,0.124-1.029,0.215-1.547,0.319c-0.262,0.048-0.521,0.088-0.781,0.133c-0.26,0.043-0.521,0.089-0.783,0.121l-0.787,0.108
		c-0.262,0.034-0.523,0.059-0.787,0.088c-0.523,0.062-1.049,0.097-1.572,0.14c-1.051,0.064-2.1,0.106-3.145,0.092
		c-1.045-0.001-2.086-0.062-3.123-0.141l-0.775-0.074c-0.129-0.014-0.258-0.022-0.387-0.039l-0.387-0.049l-0.77-0.099l-0.766-0.121
		c-2.041-0.323-4.037-0.826-5.973-1.467c-0.244-0.075-0.482-0.166-0.723-0.251c-0.238-0.088-0.479-0.171-0.717-0.263l-0.707-0.281
		l-0.354-0.143l-0.348-0.151l-0.695-0.307l-0.684-0.327c-0.459-0.212-0.9-0.456-1.346-0.688c-1.771-0.957-3.436-2.077-4.977-3.321
		l-0.146-0.115l-0.141-0.121l-0.283-0.24c-0.186-0.161-0.377-0.318-0.559-0.484l-0.543-0.502l-0.27-0.251l-0.262-0.26
		c-0.701-0.685-1.361-1.417-1.986-2.165C8.714,67.473,8.14,66.69,7.603,65.89c-0.525-0.808-1.02-1.629-1.463-2.471
		c-0.885-1.685-1.602-3.427-2.146-5.192L3.89,57.896l-0.094-0.332c-0.062-0.224-0.127-0.442-0.186-0.665
		c-0.111-0.445-0.229-0.887-0.32-1.333c-0.199-0.89-0.35-1.781-0.473-2.67c-0.029-0.224-0.059-0.444-0.086-0.666
		c-0.027-0.224-0.045-0.444-0.07-0.666c-0.049-0.442-0.07-0.886-0.104-1.326l-0.031-0.66l-0.014-0.33l-0.006-0.329l-0.012-0.655
		l0.008-0.653c0.059-3.481,0.592-6.834,1.562-9.965l0.186-0.583l0.201-0.575c0.129-0.384,0.279-0.758,0.42-1.134l0.227-0.557
		l0.113-0.275l0.121-0.273l0.24-0.544l0.252-0.535c0.672-1.423,1.443-2.763,2.262-4.03c1.582-2.424,3.449-4.647,5.562-6.625
		c2.01-1.891,4.141-3.447,6.275-4.707c2.139-1.261,4.287-2.216,6.359-2.905s4.068-1.125,5.922-1.348
		c0.928-0.112,1.818-0.186,2.67-0.205c0.211-0.01,0.422-0.012,0.629-0.012c0.209,0,0.412-0.005,0.615,0
		c0.404,0.012,0.797,0.018,1.178,0.045c1.529,0.086,2.875,0.287,4.021,0.534c1.148,0.242,2.098,0.533,2.852,0.793l0.531,0.19
		c0.164,0.062,0.314,0.126,0.455,0.184l0.385,0.162c0.117,0.052,0.221,0.104,0.312,0.148C46.229,15.572,46.407,15.688,46.39,15.735
		L46.39,15.735z"/>
	<path fill="#6390CB" d="M37.267,54.113c-0.5-1.166-2.109-1.684-3.195-1.028c-0.498,0.299-0.855,0.776-1.199,1.242
		c-1.217,1.636-3.303,3.537-4.789,4.944c-3.307,3.131-2.453,2.897-4.818-0.299c-2.645-3.574-5.5-0.917-4.25,1.911
		c0.025,0.049,0.053,0.099,0.08,0.146c1.117,2.021,2.445,3.92,3.957,5.664c0.533,0.612,1.188,1.251,1.998,1.246
		c0.688-0.004,1.271-0.474,1.789-0.923c3.07-2.662,5.994-5.489,8.756-8.468C36.735,57.321,37.927,55.654,37.267,54.113
		L37.267,54.113z"/>
	<path fill="#F7DB6C" d="M36.28,43.674l-1.607,11.545c-0.098,0.71,0.516,1.312,1.225,1.203l11.551-1.796
		C47.448,54.626,47.448,45.69,36.28,43.674L36.28,43.674z"/>
	<path fill="#F7DB6C" d="M35.368,56.369c0.164,0.059,0.342,0.082,0.529,0.053l11.551-1.796c0,0-0.002-0.919-0.369-2.231
		C43.247,53.942,39.392,55.42,35.368,56.369z"/>
	<path fill="#D05B27" d="M66.427,10.718c0.928-1.076,2.959-3.042,5.303-4.831c3.143-2.398,7.494,0.188,8.607,1.723
		c1.736,2.389,2.857,4.766,1.686,7.477c-1.176,2.71-3.32,4.858-5.42,6.938c-0.066-2.383-2.16-4.141-4.076-5.557
		C70.253,14.789,69.224,11.117,66.427,10.718"/>
	<path fill="#ECBC46" d="M36.28,43.674c0,0,19.439-20.485,31.074-34.031c0,0,9.209,2.881,10.938,10.67
		c0,0-21.619,25.955-30.844,34.313C47.448,54.626,46.151,45.979,36.28,43.674L36.28,43.674z"/>
	<path fill="#182F57" d="M35.146,51.827l-0.473,3.392c-0.098,0.71,0.516,1.312,1.225,1.203l3.695-0.575
		C38.622,53.949,37.167,52.388,35.146,51.827L35.146,51.827z"/>
	<path fill="#C77929" d="M47.448,54.626c-0.164,0.035-0.443-0.858-1.066-2.188c-0.152-0.332-0.338-0.688-0.541-1.063
		c-0.213-0.372-0.439-0.77-0.709-1.164c-0.529-0.8-1.189-1.621-1.969-2.397c-0.785-0.77-1.615-1.42-2.42-1.934
		c-0.4-0.264-0.801-0.482-1.176-0.688c-0.379-0.194-0.738-0.372-1.074-0.518c-1.34-0.589-2.244-0.835-2.213-1.002
		c0.012-0.074,0.256-0.108,0.688-0.083s1.049,0.125,1.795,0.34c0.373,0.104,0.773,0.249,1.199,0.42
		c0.418,0.181,0.865,0.386,1.312,0.645c0.9,0.505,1.822,1.186,2.676,2.021c0.848,0.843,1.539,1.757,2.057,2.647
		c0.268,0.441,0.48,0.885,0.668,1.301c0.18,0.42,0.332,0.816,0.445,1.188c0.232,0.739,0.35,1.354,0.389,1.785
		S47.522,54.609,47.448,54.626L47.448,54.626z M74.991,23.786c-0.078,0.021-0.195-0.152-0.418-0.442
		c-0.223-0.291-0.543-0.708-0.979-1.203c-0.861-0.992-2.141-2.301-3.656-3.62c-1.518-1.323-2.998-2.38-4.111-3.085
		c-0.555-0.354-1.018-0.624-1.334-0.827c-0.318-0.197-0.49-0.337-0.463-0.412c0.023-0.07,0.246-0.07,0.627,0.008
		c0.379,0.083,0.914,0.253,1.545,0.531c1.262,0.555,2.895,1.562,4.471,2.938c1.58,1.373,2.818,2.824,3.561,3.994
		c0.373,0.582,0.615,1.1,0.73,1.48C75.083,23.531,75.065,23.769,74.991,23.786L74.991,23.786z M76.604,22.024
		c-0.15,0.047-0.529-0.729-1.277-1.886c-0.369-0.579-0.838-1.248-1.402-1.95c-0.287-0.347-0.588-0.709-0.926-1.062
		c-0.164-0.183-0.344-0.354-0.52-0.533c-0.09-0.089-0.184-0.174-0.275-0.262c-0.094-0.087-0.186-0.179-0.283-0.262
		c-0.768-0.689-1.559-1.278-2.316-1.76c-0.758-0.482-1.48-0.855-2.098-1.158c-1.24-0.588-2.062-0.891-2.021-1.054
		c0.018-0.075,0.246-0.091,0.646-0.053c0.203,0.015,0.443,0.063,0.727,0.12c0.281,0.053,0.594,0.146,0.939,0.248
		c0.688,0.221,1.492,0.541,2.332,1.008c0.842,0.464,1.715,1.074,2.543,1.815c0.105,0.091,0.203,0.188,0.303,0.282
		c0.098,0.095,0.197,0.188,0.291,0.285c0.188,0.196,0.375,0.385,0.545,0.584c0.352,0.389,0.656,0.79,0.938,1.177
		c0.553,0.784,0.977,1.537,1.275,2.195C76.624,21.074,76.749,21.981,76.604,22.024L76.604,22.024z M67.354,9.643
		c0.021-0.072,0.26-0.078,0.668-0.004c0.406,0.073,0.98,0.236,1.67,0.507c1.371,0.537,3.18,1.558,4.842,3.103
		c0.83,0.77,1.537,1.596,2.1,2.404s0.973,1.604,1.248,2.296c0.275,0.694,0.414,1.285,0.461,1.699
		c0.031,0.206,0.029,0.371,0.021,0.483c-0.01,0.113-0.033,0.175-0.07,0.184c-0.039,0.008-0.088-0.038-0.148-0.131
		c-0.062-0.092-0.127-0.234-0.221-0.413c-0.172-0.359-0.412-0.875-0.758-1.48c-0.348-0.604-0.795-1.303-1.365-2.023
		c-0.566-0.723-1.25-1.473-2.029-2.196c-1.562-1.449-3.193-2.516-4.422-3.207C68.122,10.162,67.306,9.8,67.354,9.643L67.354,9.643z"
		/>
	<path fill="#476BA3" d="M59.202,27.173c-2.287,2.279-4.518,4.614-6.688,7.002c-0.602,0.661-1.225,1.379-1.357,2.262
		c-0.135,0.883,0.463,1.934,1.355,1.924c0.566-0.005,1.039-0.409,1.455-0.794c2.301-2.125,4.541-4.312,6.721-6.561
		c3.16-3.264-1.273-6-2.547-2.311L59.202,27.173L59.202,27.173z"/>
</g>
</svg>
