<?xml version="1.0" encoding="utf-8"?>
<!-- Generator: Adobe Illustrator 16.0.0, SVG Export Plug-In . SVG Version: 6.00 Build 0)  -->
<!DOCTYPE svg PUBLIC "-//W3C//DTD SVG 1.1//EN" "http://www.w3.org/Graphics/SVG/1.1/DTD/svg11.dtd">
<svg version="1.1" id="Layer_1" xmlns="http://www.w3.org/2000/svg" xmlns:xlink="http://www.w3.org/1999/xlink" x="0px" y="0px"
	 width="85px" height="85px" viewBox="0 0 85 85" enable-background="new 0 0 85 85" xml:space="preserve">
<g>
	<rect x="6.25" y="28.75" fill="#BE1622" width="72.5" height="3.75"/>
	<g>
		<rect x="6.25" y="20" fill="#FAC15C" width="72.5" height="8.75"/>
		<polygon fill="#FAC15C" points="78.75,20 6.25,20 12.5,7.5 72.5,7.5 		"/>
	</g>
	<rect x="11.25" y="32.5" fill="#CBBBA0" width="62.5" height="48.75"/>
	<rect x="36.25" y="37.5" fill="#FFFFFF" width="32.5" height="30"/>
	<path fill="#FAC15C" d="M50,57.5L50,57.5c-4.832,0-8.75-3.918-8.75-8.75v-5h17.5v5C58.75,53.582,54.832,57.5,50,57.5z"/>
	<rect x="16.25" y="46.25" fill="#BE1622" width="15" height="35"/>
	<g>
		<rect x="10" y="2.5" fill="#1D1D1B" width="65" height="2.5"/>
		<path fill="#1D1D1B" d="M70,68.75H35v-32.5h35V68.75L70,68.75z M37.5,66.25h30v-27.5h-30V66.25z"/>
		<rect x="18.75" y="62.5" fill="#1D1D1B" width="2.5" height="5"/>
	</g>
	<g>
		<rect x="16.25" y="36.25" fill="#FFFFFF" width="15" height="2.5"/>
		<rect x="16.25" y="40" fill="#FFFFFF" width="15" height="2.5"/>
	</g>
	<g>
		<rect x="40.002" y="59.998" fill="#1D1D1B" width="24.998" height="2.5"/>
		<path fill="#1D1D1B" d="M79.523,18.75l-6.25-12.5H11.728l-6.25,12.5H2.5v2.5H5v12.5h75v-12.5h2.5v-2.5H79.523z M13.272,8.75
			h58.456l4.998,10H8.272L13.272,8.75z M7.5,31.25V30h70v1.25H7.5z M77.5,27.5h-70v-6.25h70V27.5z"/>
		<path fill="#1D1D1B" d="M75,35h-2.5v45h-40V45H15v35h-2.5V35H10v45H2.5v2.5h80V80H75V35L75,35z M17.5,47.5H30V80H17.5V47.5z"/>
		<path fill="#1D1D1B" d="M59.271,52.5H60c2.756,0,5-2.244,5-5c0-2.758-2.244-5-5-5H40v6.25c0,5.514,4.486,10,10,10
			C54.189,58.75,57.783,56.162,59.271,52.5z M60,48.75V45c1.379,0,2.5,1.121,2.5,2.5c0,1.377-1.121,2.5-2.5,2.5h-0.078
			C59.975,49.59,60,49.172,60,48.75z M42.5,48.75V45h15v3.75c0,4.135-3.365,7.5-7.5,7.5C45.863,56.25,42.5,52.885,42.5,48.75z"/>
	</g>
	<g>
		<rect x="35" y="71.25" fill="#FFFFFF" width="2.5" height="2.5"/>
		<rect x="40.002" y="71.25" fill="#FFFFFF" width="2.5" height="2.5"/>
		<rect x="45" y="71.25" fill="#FFFFFF" width="2.5" height="2.5"/>
	</g>
</g>
</svg>
