<?xml version="1.0" encoding="utf-8"?>
<!-- Generator: Adobe Illustrator 16.0.0, SVG Export Plug-In . SVG Version: 6.00 Build 0)  -->
<!DOCTYPE svg PUBLIC "-//W3C//DTD SVG 1.1//EN" "http://www.w3.org/Graphics/SVG/1.1/DTD/svg11.dtd">
<svg version="1.1" id="Layer_1" xmlns="http://www.w3.org/2000/svg" xmlns:xlink="http://www.w3.org/1999/xlink" x="0px" y="0px"
	 width="85px" height="85px" viewBox="0 0 85 85" enable-background="new 0 0 85 85" xml:space="preserve">
<g>
	<path fill="#0A3960" d="M44.413,26.244c0.189-6.303,2.803-11.275,7.92-14.775c3.508-2.396,6.9-4.873,9.643-8.16
		c0.941-1.129,2.139-1.068,3.152,0.131c2.543,3.006,5.598,5.383,8.861,7.547c5.945,3.939,9.068,9.494,8.463,16.648
		c-0.604,7.156-4.717,12.125-11.098,15.092c-11.219,5.211-24.6-1.893-26.74-14.074C44.472,27.838,44.474,26.996,44.413,26.244z"/>
	<path fill="#0A3960" d="M40.608,26.277c-0.047,7.893-5.82,15.146-13.875,17.436C16.345,46.664,5.186,40.018,2.838,29.479
		c-1.464-6.566,1.569-13.988,7.487-17.916c3.6-2.391,7.039-4.92,9.818-8.273c0.887-1.07,2.166-1.035,3.014,0.029
		c2.484,3.121,5.592,5.5,8.898,7.662c3.727,2.434,6.342,5.734,7.729,9.988C40.347,22.695,40.608,24.465,40.608,26.277z"/>
	<path fill="#0A3960" d="M43.548,82.473c-10.521,0.59-20.146-8.371-19.986-18.367c0.104-6.609,3.223-11.623,8.742-15.15
		c3.227-2.061,6.141-4.455,8.621-7.377c1.119-1.316,2.32-1.27,3.408,0.08c2.244,2.779,4.967,5.02,7.971,6.908
		c3.908,2.459,6.855,5.682,8.383,10.088c2.559,7.393-0.119,15.328-6.758,20.098C50.708,81.064,47.124,82.344,43.548,82.473z"/>
	<path fill="#F7BCA9" d="M66.831,40.189c0.979-2.113,1.633-4.188,1.969-6.355c0.77-4.963,0.393-9.826-1.256-14.578
		c-0.416-1.197-1.34-1.691-2.387-1.324c-1.121,0.393-1.539,1.32-1.098,2.59c1.564,4.518,1.775,9.125,0.854,13.789
		c-0.355,1.799-0.904,3.549-1.973,5.082c-0.529,0.756-1.127,1.174-2.17,0.98c-5.988-1.105-11.145-6.135-12.312-12.098
		c-0.99-5.047,1.449-10.672,6.076-13.732c3.064-2.027,6.059-4.127,8.555-6.854c0.363-0.398,0.562-0.275,0.859,0.047
		c2.445,2.631,5.361,4.672,8.312,6.68c4.139,2.812,6.441,6.75,6.426,11.771c-0.018,5.621-3.018,9.562-7.67,12.387
		C69.771,39.33,68.431,39.893,66.831,40.189z"/>
	<path fill="#F7BCA9" d="M27.218,30.996c0.225-4.037-0.291-7.971-1.611-11.795c-0.309-0.889-0.914-1.426-1.852-1.389
		c-0.918,0.037-1.545,0.568-1.793,1.479c-0.148,0.553,0.109,1.043,0.271,1.547c1.744,5.469,1.826,10.936-0.111,16.369
		c-1.168,3.279-2.121,3.725-5.346,2.557c-4.566-1.652-7.895-4.674-9.625-9.242c-2.203-5.816,0.1-12.463,5.489-16.014
		c3.042-2.002,6.001-4.092,8.478-6.791c0.311-0.34,0.508-0.402,0.859-0.023c2.395,2.59,5.27,4.566,8.18,6.523
		c4.158,2.795,6.605,6.688,6.578,11.787c-0.035,6.232-3.434,10.365-8.76,13.125c-0.791,0.408-1.672,0.645-2.516,0.949
		c-0.145,0.053-0.307,0.055-0.6,0.104c1.32-2.531,1.838-5.162,2.277-7.814C27.327,31.92,27.188,31.453,27.218,30.996z"/>
	<path fill="#F3C5B7" d="M27.218,30.996c0.137,0.467,0.23,0.93-0.08,1.371C27.165,31.91,27.192,31.453,27.218,30.996z"/>
	<path fill="#F7BCA9" d="M48.188,68.986c0.152-3.893-0.26-7.709-1.508-11.418c-0.242-0.719-0.566-1.373-1.369-1.584
		c-0.73-0.189-1.4-0.031-1.924,0.533c-0.521,0.566-0.605,1.229-0.344,1.949c1.117,3.074,1.553,6.26,1.438,9.518
		c-0.102,2.777-0.539,5.5-1.695,8.059c-1.141,2.529-1.76,2.842-4.367,2.029c-4.486-1.396-7.869-4.164-9.873-8.436
		c-2.816-6.002-0.705-13.217,4.957-16.973c3.09-2.051,6.117-4.158,8.635-6.908c0.391-0.428,0.564-0.199,0.854,0.082
		c1.24,1.211,2.424,2.504,3.777,3.576c1.484,1.174,3.15,2.115,4.711,3.199c3.197,2.227,5.357,5.203,6.023,9.07
		c1.057,6.129-1.471,10.758-6.346,14.279c-1.541,1.113-3.26,1.889-5.33,2.332c1.373-2.719,1.926-5.5,2.32-8.322
		C48.302,69.65,48.239,69.318,48.188,68.986z"/>
	<path fill="#F5C5B7" d="M48.188,68.986c0.205,0.338,0.236,0.67-0.039,0.988C48.161,69.646,48.175,69.316,48.188,68.986z"/>
</g>
</svg>
