<?xml version="1.0" encoding="utf-8"?>
<!-- Generator: Adobe Illustrator 16.0.0, SVG Export Plug-In . SVG Version: 6.00 Build 0)  -->
<!DOCTYPE svg PUBLIC "-//W3C//DTD SVG 1.1//EN" "http://www.w3.org/Graphics/SVG/1.1/DTD/svg11.dtd">
<svg version="1.1" id="Layer_1" xmlns="http://www.w3.org/2000/svg" xmlns:xlink="http://www.w3.org/1999/xlink" x="0px" y="0px"
	 width="85px" height="85px" viewBox="0 0 85 85" enable-background="new 0 0 85 85" xml:space="preserve">
<g>
	<path fill-rule="evenodd" clip-rule="evenodd" d="M2.5,38.001c0.651-1.69,1.839-2.585,3.691-2.465
		c0.354,0.023,0.455-0.179,0.637-0.422c0.596-0.798,0.69-1.649,0.655-2.63c-0.095-2.677-0.093-5.349,0.796-7.948
		c2.165-6.327,8.239-10.783,14.869-10.744c1.028,0.006,2.05,0.021,3.081,0.005c7.882-0.115,14.846,6.145,15.662,13.997
		c0.202,1.939,0.25,3.885,0,5.828c-0.033,0.252-0.034,0.251,0.594,1.056c0.244-0.427,0.566-0.678,0.521-1.33
		c-0.323-4.615,0-9.115,2.944-13.002c3.181-4.2,7.381-6.482,12.673-6.548c1.049-0.013,2.098,0.048,3.159,0
		c2.375-0.108,4.626,0.523,6.769,1.551c0.677,0.325,1.013,0.791,0.805,1.555c-0.306,0.958-0.883,1.208-1.861,0.77
		c-1.309-0.587-2.642-1.08-4.086-1.197c-0.335-0.048-0.664-0.123-1.005-0.135c-0.42-0.015-0.724,0.1-0.987,0.475
		c-0.76,1.081-1.736,1.052-2.479-0.067c-0.226-0.341-0.509-0.409-0.858-0.404c-1.236,0.02-2.439,0.262-3.587,0.698
		c-5.03,1.913-7.989,5.544-8.886,10.848c-0.179,1.058-0.055,2.13-0.073,3.196c-0.007,0.429,0.226,0.604,0.636,0.604
		c2.395-0.006,4.795,0.115,7.183-0.043c2.56-0.169,4.625-2.036,5.265-4.535c0.116-0.454,0.188-0.916,0.241-1.383
		c0.104-0.936,0.642-1.497,1.395-1.487c0.755,0.01,1.299,0.597,1.357,1.52c0.062,0.949,0.269,1.851,0.728,2.69
		c1.152,2.104,2.949,3.167,5.326,3.235c1.404,0.041,2.811,0.005,4.217,0.006c0.752-0.005,1.505-0.017,2.257,0.004
		c0.55,0.016,0.786-0.179,0.81-0.759c0.149-3.636-0.721-6.941-3.078-9.785c-0.215-0.26-0.422-0.535-0.529-0.857
		c-0.175-0.524-0.202-1.024,0.379-1.343c1.008-0.466,1.319-0.404,2.017,0.433c2.454,2.947,3.736,6.338,3.752,10.173
		c0.006,1.37,0.105,2.74-0.091,4.12c-0.086,0.601,0.635,1.076,0.877,1.677c0.139,0.344,0.512,0.17,0.77,0.166
		c1.772-0.025,2.834,0.917,3.458,2.481c0,0.469,0,0.938,0,1.406c-0.149,1.128-0.795,1.894-1.788,2.378
		c-0.429,0.209-0.43,0.443-0.17,0.786c1.42,1.869,1.897,3.984,1.82,6.311c-0.085,2.602-0.016,5.207-0.021,7.81
		c-0.002,1.103-0.384,1.498-1.498,1.53c-0.91,0.026-1.821,0.013-2.732,0.004c-0.867-0.009-0.859-0.013-0.856,0.823
		c0.012,3.437,0.005,6.874,0.004,10.31c0,0.156,0,0.312-0.015,0.469c-0.081,0.86-0.479,1.268-1.327,1.354
		c-0.285,0.028-0.572,0.018-0.858,0.018c-9.867,0.001-19.734,0.001-29.601,0c-0.183,0-0.365,0.003-0.547-0.003
		c-1.166-0.036-1.668-0.521-1.694-1.674c-0.022-0.91-0.006-1.822-0.007-2.733c0-2.343,0.02-4.687-0.004-7.029
		c-0.043-4.613,4.165-7.746,7.51-7.466c0.745,0.062,1.504,0.048,2.239-0.021c0.092-0.158-0.02-0.218-0.097-0.269
		c-3.065-1.974-5.239-4.642-6.331-8.147c-0.146-0.465-0.439-0.73-0.908-0.87c-1.073-0.317-2.004-0.876-2.703-1.766
		c-0.305-0.388-0.563-0.386-0.877-0.026c-0.788,0.902-1.729,1.571-2.904,1.885c-0.498,0.133-0.65,0.562-0.784,0.992
		c-0.764,2.444-2.131,4.5-4.003,6.235c-0.747,0.691-1.595,1.247-2.474,1.867c0.299,0.2,0.589,0.116,0.856,0.128
		c1.012,0.046,2.034-0.103,3.037,0.117c3.447,0.751,5.938,3.704,6.008,7.246c0.064,3.253,0.03,6.509,0.006,9.763
		c-0.009,1.229-0.549,1.761-1.787,1.763c-7.68,0.015-15.36,0.015-23.041,0.001c-1.095-0.002-1.535-0.403-1.682-1.426
		c0.236-0.969,0.632-1.326,1.605-1.372c0.987-0.048,1.975-0.019,2.962-0.016c5.119,0.012,10.238-0.031,15.357,0.02
		c1.013-0.006,2.028-0.007,3.042,0.002c0.524,0.004,0.754-0.209,0.753-0.74c-0.009-2.654,0.082-5.312-0.031-7.962
		c-0.131-3.085-2.71-4.825-4.9-4.595c-0.335,0.035-0.676-0.004-1.014-0.005c-1.66,0.016-1.446-0.183-1.843,1.389
		c-0.759,3.007-3.696,5.155-6.724,5.006c-3.179-0.157-5.876-2.512-6.386-5.633c-0.099-0.606-0.376-0.784-0.929-0.77
		c-0.701,0.019-1.404,0.002-2.106,0.004c-2.033,0.008-3.787,1.3-4.382,3.24c-0.191,0.623-0.305,1.261-0.304,1.918
		c0.005,2.393,0.015,4.784-0.007,7.177c-0.005,0.598,0.089,0.964,0.802,1.046c0.809,0.093,1.294,0.615,1.343,1.472
		c-0.266,0.861-0.627,1.179-1.475,1.235c-0.648,0.043-1.301,0.048-1.949-0.004c-0.827-0.066-1.275-0.483-1.441-1.286
		c-0.032-0.153-0.053-0.31-0.051-0.465c0.046-3.534-0.159-7.071,0.116-10.603c0.041-0.515-0.14-0.63-0.608-0.609
		c-0.987,0.042-1.977,0.035-2.964,0.007c-1.122-0.031-1.555-0.456-1.55-1.589c0.014-3.274-0.097-6.552,0.079-9.824
		c0.082-1.504,0.786-2.786,1.588-4.015c0.463-0.709,0.476-0.706-0.249-1.15c-0.843-0.518-1.376-1.24-1.505-2.236
		C2.5,38.939,2.5,38.47,2.5,38.001z"/>
	<path fill-rule="evenodd" clip-rule="evenodd" fill="#444444" d="M63.438,16.282c1.419,0.06,2.717,0.556,3.986,1.134
		c1.006,0.458,1.314,0.389,1.932-0.513c0.329,0.629,1.048,0.793,1.509,1.266c0.27,0.276,0.567,0.523,0.854,0.783
		c-0.487,0.686-0.336,1.305,0.179,1.901c2.608,3.018,3.46,6.583,3.271,10.478c-0.021,0.423-0.124,0.608-0.575,0.592
		c-0.907-0.033-1.815-0.024-2.723-0.033c-0.31-0.389-0.18-0.847-0.195-1.279c-0.083-2.212-0.282-4.4-1.156-6.474
		c-1.23-2.917-3.232-5.163-5.867-6.886C64.223,16.972,63.588,16.917,63.438,16.282z"/>
	<path fill-rule="evenodd" clip-rule="evenodd" fill="#5A5A5A" d="M63.438,16.282c1.329,0.839,2.658,1.649,3.815,2.759
		c2.453,2.354,3.916,5.2,4.411,8.516c0.212,1.42,0.303,2.882,0.205,4.334c-1.869-0.013-3.757,0.248-5.603-0.149
		c-2.768-0.597-4.744-3.039-4.862-5.865c-0.038-0.919-0.469-1.453-1.177-1.456c-0.702-0.004-1.127,0.517-1.179,1.447
		c-0.188,3.39-2.882,6.008-6.257,6.045c-2.265,0.025-4.529,0.009-6.795,0.005c-0.314-0.001-0.678,0.114-0.709-0.446
		c-0.193-3.5,0.387-6.802,2.518-9.685c2.597-3.511,6.07-5.438,10.457-5.671c0.45-0.024,0.788-0.013,0.882,0.577
		c0.071,0.44,0.462,0.665,0.923,0.71c0.451,0.045,0.943-0.051,1.064-0.472c0.334-1.16,1.181-0.791,1.93-0.75
		C63.188,16.188,63.312,16.247,63.438,16.282z"/>
	<path fill-rule="evenodd" clip-rule="evenodd" fill="#5A5A5A" d="M36.249,31.903c-1.815-0.041-3.648,0.231-5.443-0.157
		c-2.77-0.599-4.744-3.011-4.876-5.841c-0.055-1.17-0.811-1.783-1.678-1.357c-0.466,0.229-0.66,0.603-0.678,1.128
		c-0.143,3.961-3.436,6.394-6.607,6.261c-2.155-0.09-4.317-0.018-6.476-0.017c-0.341,0-0.649,0.05-0.68-0.482
		c-0.223-3.82,0.54-7.358,3.046-10.354c2.581-3.085,5.893-4.776,9.939-4.971c0.462-0.022,0.778,0.013,0.875,0.589
		c0.074,0.438,0.468,0.658,0.929,0.701c0.452,0.041,0.942-0.059,1.06-0.479c0.331-1.18,1.191-0.768,1.934-0.74
		c0.126,0.005,0.25,0.065,0.376,0.1c1.24,0.335,2.233,1.103,3.177,1.912c2.917,2.501,4.726,5.644,5.251,9.47
		c0.17,1.237,0.052,2.494,0.046,3.742C36.442,31.594,36.381,31.764,36.249,31.903z"/>
	<path fill-rule="evenodd" clip-rule="evenodd" fill="#FEC244" d="M15.424,69.854c-1.025,0-2.049-0.001-3.074-0.002
		c-0.161-0.855-0.681-1.275-1.542-1.188c-0.562,0.057-0.631-0.202-0.628-0.675c0.018-2.682-0.008-5.363,0.014-8.046
		c0.024-2.992,2.145-5.1,5.125-5.13c0.729-0.008,1.46,0.031,2.187-0.013c0.537-0.032,0.699,0.159,0.758,0.687
		c0.382,3.43,3.365,5.951,6.788,5.777c3.092-0.158,5.593-2.417,6.084-5.596c0.112-0.726,0.351-0.993,1.058-0.862
		c0.253,0.047,0.516,0.037,0.775,0.053c1.703,1.038,2.488,2.641,2.551,4.551c0.092,2.8,0.028,5.604,0.023,8.407
		c0,0.287-0.017,0.573-0.229,0.803c-2.335,0.012-4.671,0.029-7.007,0.033c-3.79,0.006-7.581-0.001-11.371,0.003
		C15.962,68.658,15.64,68.925,15.424,69.854z"/>
	<path fill-rule="evenodd" clip-rule="evenodd" fill="#EF7280" d="M70.935,68.617c-0.493,0.013-0.986,0.035-1.479,0.035
		c-7.597,0.002-15.192-0.012-22.789,0.022c-0.783,0.004-0.925-0.224-0.912-0.948c0.047-2.575,0.012-5.151,0.02-7.727
		c0.01-3.067,2.062-5.143,5.12-5.185c0.755-0.01,1.51,0.019,2.263-0.009c0.429-0.016,0.562,0.121,0.606,0.563
		c0.323,3.165,2.749,5.563,5.903,5.884c2.997,0.305,5.895-1.661,6.801-4.617c0.061-0.198,0.105-0.401,0.149-0.604
		c0.271-1.252,0.27-1.253,1.587-1.214c0.129,0.003,0.258,0.028,0.386,0.044c1.438,0.81,2.026,2.18,2.374,3.682
		c0.169,0.731,0.217,1.488,0.212,2.247c-0.015,2.237-0.002,4.474-0.008,6.711C71.166,67.887,71.226,68.29,70.935,68.617z"/>
	<path fill-rule="evenodd" clip-rule="evenodd" fill="#FECDBE" d="M13.562,43.185c-0.396-1.025-0.519-2.106-0.547-3.187
		c-0.043-1.637,0.008-3.277-0.024-4.915c-0.012-0.625,0.161-0.851,0.829-0.83c1.455,0.044,2.922,0.096,4.366-0.047
		c2.533-0.25,4.554-1.494,6.075-3.538c0.153-0.206,0.3-0.417,0.48-0.667c1.695,2.628,4.06,4.066,7.145,4.283
		c0.513,0.104,1.038,0.081,1.546,0.033c0.686-0.063,0.866,0.27,0.871,0.856c0.009,1.114,0.004,2.228,0.004,3.341
		c0,0.726,0.015,1.451-0.012,2.175c-0.014,0.364-0.068,0.722-0.215,1.059c-0.167,0.335-0.485,0.344-0.796,0.359
		c-0.387,0.02-0.776-0.011-1.16,0.052c-0.595,0.098-1.122,0.306-1.235,0.983c-0.109,0.648,0.285,1.005,0.821,1.247
		c0.237,0.134,0.499,0.12,0.757,0.14c0.755,0.058,0.854,0.192,0.533,0.851c-0.805,1.649-1.872,3.104-3.284,4.295
		c-0.717,0.605-1.479,1.133-2.372,1.445c-3.392,0.835-6.502,0.141-9.34-1.807c-1.794-1.23-3.156-2.853-3.977-4.895
		c0.022-0.327,0.253-0.188,0.401-0.16c0.958,0.176,1.922,0.087,2.883,0.074c0.71-0.009,1.111-0.357,1.177-0.905
		c0.069-0.574-0.295-1.057-0.983-1.202c-0.847-0.179-1.709-0.154-2.562-0.026c-0.401,0.06-0.723,0.269-0.935,0.639
		C13.913,43.006,13.844,43.243,13.562,43.185z"/>
	<path fill-rule="evenodd" clip-rule="evenodd" fill="#FECDBE" d="M62.813,51.119c-3.467,0.851-6.625,0.108-9.49-1.928
		c-1.719-1.221-3.032-2.806-3.814-4.792c0.042-0.309,0.269-0.181,0.415-0.151c0.977,0.197,1.962,0.092,2.942,0.092
		c0.73,0,1.162-0.367,1.221-0.937c0.055-0.543-0.336-1.056-1.01-1.186c-0.894-0.171-1.801-0.166-2.698,0.015
		c-0.409,0.083-0.687,0.334-0.865,0.711c-0.095,0.201-0.114,0.467-0.396,0.533c-0.429-1.134-0.595-2.321-0.621-3.519
		c-0.037-1.666,0.003-3.333-0.021-4.999c-0.008-0.533,0.162-0.708,0.714-0.702c1.562,0.02,3.139,0.102,4.682-0.078
		c2.637-0.308,4.227-1.431,6.359-4.154c1.678,2.593,4.039,4.04,7.122,4.259c0.515,0.104,1.04,0.081,1.55,0.033
		c0.69-0.064,0.864,0.277,0.868,0.861c0.009,1.064,0.004,2.127,0.005,3.191c0.001,0.752,0.007,1.505-0.004,2.257
		c-0.006,0.391-0.032,0.779-0.217,1.135c-0.179,0.322-0.496,0.331-0.809,0.347c-0.31,0.016-0.621-0.009-0.93,0.026
		c-0.6,0.067-1.131,0.268-1.303,0.915c-0.165,0.622,0.162,1.038,0.681,1.334c0.256,0.166,0.548,0.123,0.829,0.15
		c0.644,0.064,0.745,0.205,0.473,0.786c-0.791,1.688-1.883,3.152-3.313,4.357C64.466,50.28,63.708,50.81,62.813,51.119z"/>
	<path fill-rule="evenodd" clip-rule="evenodd" fill="#5A5A5A" d="M5.024,51.339c0.069-1.466-0.187-3.195,0.285-4.882
		c0.482-1.725,1.467-3.079,2.982-4.05c0.292-0.188,0.551-0.265,0.861-0.059c0.15,0.1,0.322,0.216,0.491,0.23
		c1.27,0.103,1.655,0.978,1.928,2.046c0.158,0.62,0.43,1.244,0.786,1.776c1.523,2.282,0.805,4.418-0.543,6.365
		c-1.46,2.111-3.617,3.044-6.211,2.92c-0.437-0.021-0.594-0.146-0.586-0.588C5.039,53.926,5.024,52.754,5.024,51.339z"/>
	<path fill-rule="evenodd" clip-rule="evenodd" fill="#F5AA31" d="M35.312,68.62c0-2.753-0.044-5.506,0.016-8.258
		c0.044-2.038-0.522-3.772-2.08-5.137c-0.113-0.1-0.188-0.243-0.281-0.366c3.047-0.288,5.208,0.96,5.985,3.457
		c0.164,0.525,0.244,1.063,0.244,1.613c0,2.682-0.015,5.363,0.013,8.044c0.006,0.551-0.153,0.717-0.698,0.692
		C37.446,68.616,36.378,68.632,35.312,68.62z"/>
	<path fill-rule="evenodd" clip-rule="evenodd" fill="#EA5569" d="M70.935,68.617c0-2.654-0.005-5.31,0.003-7.965
		c0.007-2.136-0.506-4.06-2.175-5.535c-0.074-0.065-0.116-0.169-0.174-0.255c1.947-0.227,3.669,0.17,4.99,1.748
		c0.693,0.827,1.124,1.756,1.131,2.838c0.021,2.89,0.01,5.779,0.026,8.669c0.003,0.396-0.105,0.557-0.524,0.544
		C73.12,68.627,72.027,68.63,70.935,68.617z"/>
	<path fill-rule="evenodd" clip-rule="evenodd" fill="#444444" d="M36.249,31.903c-0.042-1.992,0.162-3.993-0.391-5.962
		c-0.955-3.401-2.839-6.145-5.675-8.231c-0.706-0.519-1.474-0.954-2.213-1.428c2.515,0.222,4.701,1.25,6.632,2.817
		c3.905,3.17,5.335,7.386,5.092,12.292c-0.021,0.415-0.169,0.538-0.56,0.53C38.172,31.9,37.21,31.908,36.249,31.903z"/>
	<path fill-rule="evenodd" clip-rule="evenodd" fill="#5A5A5A" d="M76.713,55.351c-3.233-1-5.054-3.935-4.973-7.252
		c0.008-0.315,0.177-0.535,0.327-0.771c0.716-1.119,1.308-2.308,1.636-3.59c0.168-0.659,0.496-0.914,1.115-0.918
		c0.396-0.03,0.612,0.237,0.818,0.507c0.979,1.275,1.535,2.737,1.6,4.322c0.093,2.31,0.041,4.624,0.009,6.937
		C77.241,54.898,77.388,55.447,76.713,55.351z"/>
	<path fill-rule="evenodd" clip-rule="evenodd" fill="#444444" d="M76.713,55.351c0.381-0.055,0.318-0.35,0.318-0.602
		c0.001-2.368,0.096-4.741-0.031-7.102c-0.1-1.839-0.718-3.552-2.182-4.829c1.688-0.75,2.298-0.556,3.664,1.277
		c0.872,1.169,1.378,2.483,1.374,3.969c-0.006,2.31-0.011,4.619,0.01,6.929c0.004,0.486-0.109,0.714-0.646,0.686
		C78.374,55.634,77.515,55.725,76.713,55.351z"/>
	<path fill-rule="evenodd" clip-rule="evenodd" fill="#FEAF9D" d="M64.366,54.721c0.056,2.325-1.833,4.23-4.171,4.209
		c-2.308-0.021-4.15-1.916-4.092-4.209c0.287-0.23,0.598-0.12,0.896-0.046c2.188,0.542,4.372,0.571,6.553-0.043
		C63.832,54.554,64.114,54.505,64.366,54.721z"/>
	<path fill-rule="evenodd" clip-rule="evenodd" fill="#FEAF9D" d="M28.762,55.529c-0.289,2.002-2.187,3.51-4.273,3.396
		c-2.091-0.115-3.794-1.796-3.884-3.834c-0.121-0.654,0.346-0.522,0.676-0.465c0.716,0.126,1.427,0.264,2.149,0.365
		c1.502,0.21,2.953,0.007,4.406-0.318C28.776,54.462,28.885,54.57,28.762,55.529z"/>
	<path fill-rule="evenodd" clip-rule="evenodd" fill="#FDAF9D" d="M69.38,41.912c0.32-2.326,0.073-4.664,0.155-6.994
		c0.016-0.435-0.211-0.501-0.578-0.517c-0.534-0.022-1.085,0.136-1.604-0.117c1.352-0.004,2.701-0.006,4.052-0.015
		c0.275-0.001,0.526-0.014,0.523,0.378c-0.021,2.771,0.296,5.561-0.421,8.296c-0.032,0.125-0.094,0.243-0.143,0.363
		c-0.025-0.002-0.068,0.006-0.074-0.006C70.88,42.525,70.181,42.149,69.38,41.912z"/>
	<path fill-rule="evenodd" clip-rule="evenodd" fill="#FEAF9D" d="M33.91,41.911c0.307-2.247,0.074-4.507,0.164-6.758
		c0.022-0.577-0.149-0.784-0.742-0.759c-0.478,0.021-0.983,0.149-1.446-0.109c1.349-0.004,2.697-0.009,4.046-0.012
		c0.227,0,0.503-0.053,0.497,0.309c-0.053,2.917,0.403,5.865-0.534,8.729c-0.079,0.013-0.19,0.012-0.215-0.047
		C35.354,42.46,34.607,42.218,33.91,41.911z"/>
	<path fill-rule="evenodd" clip-rule="evenodd" fill="#FDA68E" d="M28.762,55.529c0.051-0.613-0.077-0.89-0.812-0.666
		c-2.204,0.67-4.428,0.559-6.643,0.001c-0.276-0.069-0.62-0.318-0.702,0.227c-0.319-1.868-0.278-1.897,1.512-1.544
		c2.04,0.401,4.078,0.363,6.083-0.197c0.604-0.169,0.783-0.034,0.703,0.571C28.832,54.454,29.01,55.011,28.762,55.529z"/>
	<path fill-rule="evenodd" clip-rule="evenodd" fill="#FEA68E" d="M64.366,54.721c-0.932,0.056-1.813,0.376-2.738,0.509
		c-1.772,0.254-3.449-0.054-5.14-0.461c-0.124-0.03-0.256-0.033-0.385-0.048c-0.049-0.489-0.067-0.977,0.022-1.513
		c2.746,0.79,5.478,0.785,8.24-0.009C64.366,53.745,64.366,54.232,64.366,54.721z"/>
	<path fill-rule="evenodd" clip-rule="evenodd" fill="#FEAF9D" d="M62.813,51.119c2.343-1.393,4.236-3.215,5.43-5.701
		c0.097-0.202,0.273-0.386,0.213-0.642c-0.409-0.184-0.893,0.118-1.274-0.205c0.103-0.128,0.246-0.195,0.399-0.203
		c1.141-0.061,2.284-0.049,3.426-0.11C69.419,47.91,66.711,50.225,62.813,51.119z"/>
	<path fill-rule="evenodd" clip-rule="evenodd" fill="#FEAF9D" d="M27.344,51.12c2.421-1.431,4.325-3.345,5.534-5.911
		c0.054-0.115,0.099-0.234,0.158-0.374c-0.421-0.289-0.948,0.078-1.327-0.259c0.084-0.104,0.194-0.181,0.323-0.189
		c1.165-0.072,2.332-0.103,3.498-0.13C33.935,47.897,31.243,50.229,27.344,51.12z"/>
	<path fill-rule="evenodd" clip-rule="evenodd" fill="#FD8F83" d="M35.529,44.257c-0.945,0.521-1.974,0.244-2.967,0.305
		c-0.284,0.018-0.569,0.01-0.854,0.015c-0.735-0.164-1.134-0.62-1.072-1.374c0.058-0.703,0.489-1.076,1.192-1.209
		c0.695-0.132,1.39-0.021,2.081-0.082c1.055-0.093,1.582,0.564,1.984,1.399C35.772,43.625,35.651,43.94,35.529,44.257z"/>
	<path fill-rule="evenodd" clip-rule="evenodd" fill="#FD8F83" d="M49.118,43.477c0.369-1.296,0.711-1.564,2.105-1.55
		c0.695,0.007,1.395-0.092,2.088,0.111c0.709,0.207,1.04,0.699,1.027,1.374c-0.015,0.729-0.569,1.162-1.391,1.159
		c-1.148-0.003-2.304,0.103-3.439-0.171C49.286,44.131,49.206,43.802,49.118,43.477z"/>
	<path fill-rule="evenodd" clip-rule="evenodd" fill="#FD8F83" d="M13.562,43.185c0.396-1.09,1.248-1.338,2.292-1.269
		c0.645,0.043,1.296-0.06,1.934,0.135c0.636,0.195,1.048,0.759,0.956,1.411c-0.097,0.68-0.506,1.1-1.198,1.102
		c-1.173,0.005-2.354,0.127-3.517-0.144C13.79,44.039,13.644,43.624,13.562,43.185z"/>
	<path fill-rule="evenodd" clip-rule="evenodd" fill="#FD8F83" d="M71.007,44.258c-0.624,0.45-1.343,0.289-2.031,0.307
		c-0.598,0.015-1.196,0.005-1.794,0.007c-0.771-0.241-1.062-0.795-0.926-1.552c0.128-0.719,0.695-1.006,1.342-1.078
		c0.588-0.065,1.188-0.024,1.782-0.03c1.05-0.089,1.686,0.413,1.985,1.394C71.292,43.641,71.2,43.968,71.007,44.258z"/>
	<path fill-rule="evenodd" clip-rule="evenodd" fill="#FCA58D" d="M38.787,37.515c0-0.859,0.007-1.718-0.004-2.577
		c-0.004-0.336,0.089-0.433,0.4-0.252c1.051,0.612,1.626,1.519,1.651,2.736c0.026,1.252-0.541,2.195-1.599,2.849
		c-0.425,0.263-0.459,0.021-0.453-0.335C38.797,39.129,38.788,38.322,38.787,37.515z"/>
	<path fill-rule="evenodd" clip-rule="evenodd" fill="#FCA58E" d="M74.273,37.493c-0.001-0.83,0.017-1.661-0.008-2.49
		c-0.013-0.46,0.147-0.483,0.485-0.274c1.031,0.639,1.578,1.576,1.574,2.775c-0.003,1.168-0.54,2.083-1.534,2.72
		c-0.418,0.268-0.532,0.13-0.522-0.319C74.288,39.101,74.274,38.297,74.273,37.493z"/>
	<path fill-rule="evenodd" clip-rule="evenodd" fill="#FDAF9D" d="M10.667,34.517c0,1.929,0.006,3.762-0.004,5.596
		c-0.003,0.474-0.287,0.241-0.462,0.133c-1.088-0.669-1.659-1.659-1.578-2.926C8.705,36.04,9.354,35.096,10.667,34.517z"/>
	<path fill-rule="evenodd" clip-rule="evenodd" fill="#FDAF9D" d="M46.153,34.573c0,1.869-0.006,3.659,0.004,5.45
		c0.003,0.445-0.188,0.41-0.469,0.234c-1.079-0.677-1.634-1.659-1.59-2.928C44.142,36.07,44.908,35.051,46.153,34.573z"/>
	<path fill-rule="evenodd" clip-rule="evenodd" fill="#F6F6F6" d="M15.429,50.293c0.815,0.67,1.603,1.252,2.464,1.728
		c0.136,0.075,0.307,0.144,0.238,0.334c-0.051,0.142-0.215,0.113-0.341,0.113c-0.881,0.003-1.763-0.011-2.643,0.01
		c-0.368,0.009-0.375-0.146-0.283-0.421C15.049,51.498,15.224,50.937,15.429,50.293z"/>
	<path fill-rule="evenodd" clip-rule="evenodd" fill="#F6F6F6" d="M69.554,50.251c0.088,0.371,0.162,0.591,0.189,0.816
		c0.057,0.478,0.607,1.024,0.296,1.337c-0.249,0.249-0.937,0.062-1.429,0.064c-0.611,0.003-1.224,0.001-1.865-0.102
		C67.655,51.654,68.633,51.094,69.554,50.251z"/>
	<path fill-rule="evenodd" clip-rule="evenodd" fill="#E76E7C" d="M78.332,39.519c0.097-0.38,0.202-0.677,0.241-0.982
		c0.048-0.381,0.056-0.729,0.605-0.674c0.49,0.049,0.878,0.213,0.96,0.733c0.076,0.487-0.2,0.818-0.657,0.91
		C79.134,39.574,78.762,39.519,78.332,39.519z"/>
	<path fill-rule="evenodd" clip-rule="evenodd" fill="#F7DA73" d="M5.985,39.551c-0.641,0.001-1.12-0.186-1.126-0.842
		c-0.006-0.609,0.439-0.89,0.987-0.824c0.857,0.104,0.515,0.928,0.675,1.406C6.673,39.744,6.11,39.393,5.985,39.551z"/>
	<path fill-rule="evenodd" clip-rule="evenodd" d="M24.695,47.552c-1.932,0.001-3.552-1.373-3.877-3.292
		c-0.159-0.932,0.182-1.6,0.884-1.736c0.784-0.152,1.254,0.28,1.433,1.317c0.143,0.826,0.752,1.362,1.552,1.363
		c0.805,0.002,1.416-0.529,1.555-1.355c0.017-0.103,0.006-0.21,0.025-0.312c0.125-0.68,0.603-1.071,1.25-1.03
		c0.638,0.04,1.056,0.505,1.079,1.199C28.666,45.748,26.837,47.551,24.695,47.552z"/>
	<path fill-rule="evenodd" clip-rule="evenodd" fill="#010101" d="M19.671,38.401c0,0.415,0.018,0.832-0.004,1.246
		c-0.04,0.765-0.538,1.258-1.216,1.235c-0.661-0.023-1.088-0.49-1.119-1.237c-0.012-0.285-0.02-0.572,0-0.856
		c0.025-0.359-0.008-0.6-0.445-0.734c-0.556-0.17-0.806-0.651-0.714-1.229c0.097-0.613,0.502-0.95,1.121-0.997
		c0.335-0.025,0.675-0.016,1.012-0.007c0.901,0.023,1.333,0.443,1.365,1.335C19.684,37.57,19.672,37.986,19.671,38.401z"/>
	<path fill-rule="evenodd" clip-rule="evenodd" d="M31.552,35.829c0.234,0,0.472-0.026,0.702,0.005
		c0.539,0.075,0.922,0.367,1.028,0.917c0.111,0.575-0.083,1.078-0.64,1.275c-0.445,0.158-0.506,0.41-0.48,0.801
		c0.022,0.337,0.03,0.681-0.016,1.014c-0.09,0.658-0.625,1.099-1.247,1.032c-0.66-0.07-1.044-0.451-1.065-1.124
		c-0.023-0.728-0.01-1.458-0.01-2.186C29.824,36.13,30.132,35.819,31.552,35.829z"/>
	<path fill-rule="evenodd" clip-rule="evenodd" d="M60.087,47.552c-2.002-0.027-3.703-1.634-3.824-3.611
		c-0.049-0.8,0.334-1.346,1.003-1.428c0.733-0.09,1.206,0.328,1.334,1.18c0.146,0.969,0.713,1.514,1.574,1.512
		c0.866-0.001,1.403-0.525,1.556-1.52c0.125-0.814,0.572-1.226,1.275-1.178c0.69,0.048,1.083,0.552,1.063,1.364
		C64.019,45.914,62.216,47.581,60.087,47.552z"/>
	<path fill-rule="evenodd" clip-rule="evenodd" d="M55.144,38.345c-0.001,0.467,0.026,0.936-0.007,1.401
		c-0.051,0.706-0.574,1.168-1.229,1.135c-0.635-0.033-1.058-0.481-1.1-1.178c-0.015-0.232-0.022-0.469-0.002-0.7
		c0.044-0.49,0.015-0.852-0.596-1.035c-0.479-0.144-0.64-0.652-0.555-1.163c0.092-0.553,0.446-0.894,0.983-0.958
		c0.485-0.059,0.99-0.065,1.475,0c0.647,0.086,0.995,0.522,1.026,1.176C55.162,37.461,55.145,37.904,55.144,38.345z"/>
	<path fill-rule="evenodd" clip-rule="evenodd" d="M65.299,38.338c0-0.13,0-0.259,0-0.389c0-1.953,0.392-2.308,2.339-2.127
		c0.574,0.053,0.989,0.327,1.115,0.905c0.13,0.604-0.081,1.122-0.673,1.319c-0.431,0.144-0.462,0.381-0.441,0.739
		c0.02,0.335,0.026,0.676-0.01,1.009c-0.072,0.663-0.575,1.104-1.196,1.088c-0.637-0.016-1.075-0.46-1.129-1.146
		c-0.005-0.051-0.004-0.104-0.004-0.155C65.299,39.167,65.299,38.752,65.299,38.338z"/>
</g>
</svg>
