<?xml version="1.0" encoding="utf-8"?>
<!-- Generator: Adobe Illustrator 16.0.0, SVG Export Plug-In . SVG Version: 6.00 Build 0)  -->
<!DOCTYPE svg PUBLIC "-//W3C//DTD SVG 1.1//EN" "http://www.w3.org/Graphics/SVG/1.1/DTD/svg11.dtd">
<svg version="1.1" id="Layer_1" xmlns="http://www.w3.org/2000/svg" xmlns:xlink="http://www.w3.org/1999/xlink" x="0px" y="0px"
	 width="85px" height="85px" viewBox="0 0 85 85" enable-background="new 0 0 85 85" xml:space="preserve">
<g>
	<g>
		<path d="M76.499,36.862c0.296-3.431,0.143-6.867-0.106-10.295c-0.166-2.289-0.573-4.536-1.393-6.692
			c-1.69-4.451-4.943-7.438-9.067-9.56c-3.415-1.757-6.965-3.229-10.498-4.731c-2.512-1.067-5.074-1.977-7.75-2.556
			c-0.919-0.199-1.873-0.21-2.769-0.528c-0.156,0-0.312,0-0.469,0c-0.156,0.117-0.312,0.117-0.469,0c-1.25,0-2.5,0-3.75,0
			c-0.036,0.121-0.133,0.136-0.24,0.143c-1.352,0.098-2.677,0.358-3.998,0.649C31.169,4.354,26.7,6.118,23.187,9.766
			c-0.915,0.95-1.958,1.7-3.182,2.193c-1.383,0.558-2.196,1.605-2.602,3.005c-0.421,1.455-0.416,2.933-0.161,4.406
			c0.109,0.632-0.002,1.049-0.552,1.439c-2.351,1.669-3.271,3.859-2.419,6.721c0.919,3.09,0.022,5.57-2.654,7.398
			c-0.319,0.218-0.606,0.493-0.872,0.776c-1.701,1.812-1.458,3.748,0.627,5.104c1.31,0.852,2.78,1.262,4.292,1.53
			c0.515,0.091,0.844,0.317,1.07,0.78c0.479,0.981,0.926,1.973,1.235,3.021c0.872,2.96,0.593,5.688-1.515,8.109
			c-0.92,1.058-1.743,2.201-2.59,3.32c-1.339,1.769-2.342,3.687-2.477,5.953c-0.062,1.038-0.089,2.08-0.083,3.12
			c0.003,0.584-0.099,1.124-0.317,1.662c-0.791,1.949-1.463,3.94-1.948,5.988c-0.522,2.206-0.958,4.429-0.521,6.711
			c0.185,0.967,0.631,1.468,1.336,1.49c0.853,0.027,1.249-0.511,1.461-1.249c0.204-0.239,0.086-0.497,0.032-0.744
			c-0.187-0.852-0.142-1.7-0.044-2.56c0.314-2.765,1.124-5.406,2.141-7.97c0.574-1.446,0.835-2.879,0.746-4.408
			c-0.143-2.456,0.675-4.586,2.161-6.517c1.032-1.341,2.119-2.64,3.099-4.02c1.41-1.985,1.962-4.2,1.811-6.629
			c-0.067-1.083-0.329-2.127-0.566-3.282c1.461,0.637,2.776,1.265,4.145,1.75c0.727,0.258,0.958,0.74,0.942,1.425
			c-0.013,0.576-0.163,1.132-0.317,1.684c-0.197,0.702-0.028,1.326,0.546,1.747c1.072,0.787,1.181,1.824,0.905,2.995
			c-0.096,0.406-0.194,0.811-0.162,1.232c0.081,1.045,0.933,1.696,1.912,1.332c1.096-0.408,2.231-0.503,3.364-0.626
			c0.754-0.082,1.524-0.096,2.283,0.123c-0.466,0.277-0.985,0.288-1.475,0.406c-1.705,0.41-3.28,1.07-4.395,2.487
			c-0.413,0.523-0.783,0.688-1.448,0.506c-2.083-0.571-3.997-0.054-5.662,1.229c-1.504,1.157-2.625,2.664-3.411,4.403
			c-0.303,0.673-0.177,1.306,0.339,1.777c0.69,0.632,1.651,0.538,2.25-0.239c0.462-0.599,0.737-1.317,1.198-1.918
			c0.873-1.137,1.844-2.126,3.361-2.349c1.121-0.165,1.706,0.145,2.082,1.144c0.279,0.744,0.993,1.208,1.696,1.103
			c0.708-0.105,1.25-0.657,1.255-1.469c0.018-2.613,2.096-3.541,4.238-3.792c0.391-0.046,0.682,0.104,0.922,0.448
			c0.526,0.757,1.314,0.99,2.017,0.652c0.69-0.332,1.012-1.063,0.706-1.938c-0.584-1.674-0.42-3.346-0.059-5.006
			c0.207-0.946,0.097-1.763-0.324-2.631c-0.885-1.827-1.664-3.703-2.036-5.721c-0.094-0.509-0.092-0.983,0.233-1.412
			c0.11-0.145,0.239-0.302,0.445-0.258c0.191,0.04,0.179,0.235,0.204,0.382c0.502,3.03,2.07,5.522,3.959,7.853
			c0.441,0.362,0.54,0.845,0.56,1.393c0.075,2.07-0.308,4.087-0.6,6.121c-0.285,1.981-0.759,3.885-1.758,5.623
			c-1.583,2.758-3.96,4.36-7.139,4.686c-0.818,0.084-1.382,0.441-1.701,1.166c-1.487,3.376-4.283,5.185-7.599,6.377
			c-0.68,0.255-1.413,0.342-2.084,0.617c-0.704,0.289-1.084,0.989-0.96,1.687c0.128,0.719,0.589,1.044,1.47,1.072
			c0.469,0.015,0.93-0.045,1.392-0.098c0.262-0.03,0.517-0.107,0.693,0.174c0.036,0.097,0.063,0.199,0.109,0.291
			c0.363,0.714,1.07,1.089,1.711,0.912c0.694-0.19,0.938-0.727,0.954-1.639c0.012-0.692,0.2-1.345,0.922-1.748
			c2.389-1.335,4.33-3.139,5.598-5.6c0.146-0.284,0.342-0.417,0.649-0.476c3.801-0.729,6.664-2.775,8.572-6.145
			c0.17-0.3,0.36-0.44,0.725-0.458c0.882-0.043,1.753-0.202,2.618-0.392c2.909-0.635,5.607-1.859,8.353-2.956
			c0.549-0.218,1.071-0.54,1.694-0.529c1.41,0.022,2.811-0.098,4.198-0.327c2.454-0.406,4.841-0.998,6.761-2.735
			c2.778-2.514,5.125-5.389,7.082-8.576c0.775-1.264,0.922-2.603-0.048-3.859c-0.269-0.35-0.135-0.516,0.074-0.778
			C74.846,43.488,76.196,40.375,76.499,36.862z M34.435,53.764c-1.301-0.023-2.602-0.015-3.894,0.154
			c-0.457,0.06-0.637-0.027-0.631-0.547c0.012-0.986-0.3-1.915-0.922-2.674c-0.423-0.518-0.517-1.014-0.385-1.636
			c0.079-0.371,0.046-0.767,0.065-1.184c1.422,0.252,2.806,0.46,4.203,0.545c0.333,0.021,0.424,0.178,0.517,0.455
			c0.458,1.378,1.019,2.716,1.629,4.035C35.337,53.605,35.208,53.777,34.435,53.764z M45.722,55.32
			c-0.589,0.072-1.32,0.385-1.734,0.047c-0.378-0.308-0.105-1.073-0.145-1.636c-0.084-1.228-0.385-2.342-1.298-3.244
			c-0.397-0.393-0.699-0.884-1.182-1.509c3.049,0.429,5.873,0.723,8.092,2.807c0.487,0.458,1.116,0.739,1.851,1.032
			C49.593,54.184,47.799,55.063,45.722,55.32z"/>
	</g>
	<path fill-rule="evenodd" clip-rule="evenodd" fill="#595959" d="M44.447,2.5c-0.156,0.244-0.312,0.183-0.469,0
		C44.135,2.5,44.291,2.5,44.447,2.5z"/>
	<path fill-rule="evenodd" clip-rule="evenodd" fill="#FEDFB1" d="M22.256,77.961c-0.558,0.287-1.173,0.385-1.772,0.537
		c-0.884,0.226-1.343,0.872-1.174,1.629c0.162,0.729,0.801,1.119,1.679,0.988c0.407-0.061,0.812-0.159,1.208-0.276
		c0.408-0.122,0.517,0.051,0.486,0.415c-3.789-0.003-7.578-0.005-11.368-0.008c-0.671-2.226-0.141-4.388,0.384-6.537
		c0.493-2.02,1.154-3.99,1.963-5.907c0.205-0.487,0.351-0.983,0.293-1.515c-0.436-3.973,0.977-7.27,3.594-10.184
		c1.124-1.252,2.208-2.564,2.839-4.173c0.985-2.513,0.845-5.039,0.128-7.577c-0.042-0.149-0.084-0.299-0.123-0.449
		c-0.005-0.022,0.009-0.049,0.033-0.158c1.71,0.8,3.428,1.542,5.182,2.195c0.236,0.088,0.232,0.311,0.282,0.514
		c0.21,0.869,0.067,1.711-0.214,2.531c-0.224,0.656-0.088,1.216,0.47,1.583c1.114,0.734,1.233,1.789,1.053,2.957
		c-0.063,0.409-0.233,0.805-0.271,1.215c-0.096,1.036,0.833,1.72,1.799,1.329c1.792-0.725,3.671-0.628,5.542-0.629
		c0.267,0,0.448,0.069,0.447,0.395c-0.001,0.358-0.242,0.336-0.479,0.351c-1.785,0.117-3.396,0.711-4.828,1.782
		c-0.186,0.139-0.423,0.273-0.514,0.467c-0.525,1.12-1.323,1.157-2.424,0.881c-1.7-0.426-3.298,0.055-4.731,1.039
		c-1.682,1.155-2.781,2.79-3.66,4.583c-0.33,0.674-0.039,1.405,0.591,1.734c0.641,0.334,1.357,0.152,1.747-0.521
		c0.575-0.991,1.12-1.996,1.928-2.826c1.22-1.254,2.636-1.813,4.381-1.274c0.362,0.112,0.547,0.254,0.561,0.69
		c0.027,0.893,0.573,1.423,1.333,1.417c0.772-0.006,1.288-0.554,1.307-1.438c0.034-1.599,0.755-2.707,2.247-3.324
		c0.582-0.24,1.173-0.434,1.792-0.518c0.631-0.087,1.241-0.206,1.563,0.661c0.224,0.603,1.03,0.762,1.622,0.504
		c0.582-0.254,0.971-0.924,0.715-1.556c-0.8-1.978-0.496-3.926,0.007-5.887c0.123-0.479-0.009-0.912-0.216-1.353
		c-0.995-2.117-1.939-4.257-2.331-6.587c-0.141-0.839,0.211-1.549,0.864-1.822c0.19-0.079,0.408-0.209,0.437,0.162
		c0.249,3.274,2.04,5.82,3.926,8.323c0.402,0.838,0.144,1.692,0.031,2.532c-0.349,2.605-0.645,5.22-1.729,7.665
		c-1.669,3.764-4.473,6.065-8.561,6.725c-0.556,0.09-0.871,0.343-1.128,0.819c-1.265,2.35-3.008,4.235-5.424,5.44
		c-0.471,0.234-0.75,0.606-0.964,1.076C22.571,77.033,22.571,77.557,22.256,77.961z"/>
	<path fill-rule="evenodd" clip-rule="evenodd" fill="#FEDB00" d="M23.964,20.294c1.196-2.334,1.142-4.593-0.425-6.75
		c-0.163-0.224-0.243-0.367,0.035-0.559c0.883-0.611,1.576-1.436,2.362-2.156c2.896-2.652,6.443-3.901,10.163-4.835
		c5.6-1.406,11.031-0.945,16.33,1.298c1.678,0.801,3.396,1.508,5.101,2.248c3.2,1.391,6.372,2.828,8.882,5.353
		c2.342,2.356,3.74,5.214,4.383,8.456c0.055,0.28,0.197,0.631-0.268,0.743c-0.346-0.292-0.381-0.724-0.504-1.116
		c-0.92-2.913-2.33-5.5-4.862-7.346c-0.4-0.292-0.812-0.564-1.275-0.745c-0.684-0.267-1.309-0.102-1.583,0.403
		c-0.282,0.518-0.095,1.118,0.522,1.537c0.644,0.438,1.324,0.818,1.896,1.362c1.762,1.676,2.652,3.819,3.307,6.091
		c0.637,2.211,0.862,4.487,0.987,6.771c0.079,1.465,0.448,1.772,1.896,1.392c0.103-0.027,0.205-0.032,0.31-0.013
		c0.288,0.136,0.292,0.409,0.304,0.666c0.274,5.831-1.543,10.818-5.968,14.747c-0.263,0.234-0.523,0.521-0.943,0.442
		c-0.038-1.908-1.22-3.028-3.352-3.109c-2.373-0.09-4.123,1.062-5.49,2.891c-0.562,0.75-1.075,1.531-1.736,2.205
		c-0.286,0.291-0.561,0.396-0.968,0.297c-0.771-0.187-1.521-0.437-2.102-0.974c-1.88-1.738-4.203-2.419-6.63-2.876
		c-0.307-0.058-0.612-0.112-1.023-0.188c0.931-0.477,1.801-0.869,2.592-1.407c2.438-1.66,3.974-3.922,4.553-6.822
		c0.502-2.514-0.821-4.124-3.389-4.119c-1.827,0.003-3.596,0.457-5.215,1.19c-3.121,1.414-5.648,0.445-8.03-1.576
		c-0.158-0.135-0.308-0.285-0.483-0.395c-0.579-0.366-1.248-0.268-1.696,0.232c-0.439,0.49-0.456,1.178-0.042,1.715
		c2.023,2.624,6.595,4.004,9.758,2.967c1.774-0.583,3.527-1.258,5.402-1.476c1.086-0.126,1.283,0.093,1.043,1.136
		c-0.555,2.399-1.954,4.156-4.084,5.352c-1.187,0.666-2.46,1.094-3.782,1.417c-0.486,0.119-0.612-0.038-0.632-0.455
		c-0.008-0.182-0.015-0.364-0.022-0.546c-0.082-1.953-1.599-3.069-3.489-2.568c-1.813,0.48-3.077,1.978-3.167,3.896
		c-0.028,0.604-0.217,0.633-0.723,0.589c-2.383-0.203-4.646-0.837-6.861-1.822c0.383-0.511,0.93-0.818,1.389-1.223
		c0.74-0.65,0.886-1.417,0.373-2.039c-0.508-0.616-1.312-0.627-2.073-0.02c-0.509,0.405-1.013,0.817-1.515,1.231
		c-1.064,0.877-1.063,0.878-2.333,0.156c0.221-0.371,0.6-0.567,0.912-0.831c0.727-0.616,0.885-1.426,0.383-2.043
		c-0.493-0.605-1.267-0.636-2.009-0.069c-0.331,0.252-0.651,0.519-0.976,0.779c-1.016,0.813-1.016,0.813-2.194,0.025
		c0.316-0.273,0.635-0.524,0.926-0.805c0.545-0.527,0.609-1.289,0.174-1.829c-0.456-0.566-1.254-0.668-1.885-0.187
		c-0.724,0.552-1.41,1.153-2.119,1.725c-0.409,0.329-1.213,0.156-1.622-0.365c-0.376-0.479,0.13-0.692,0.355-0.946
		c0.238-0.268,0.551-0.475,0.848-0.683c1.31-0.918,2.263-2.131,2.96-3.646c0.247,0.199,0.458,0.367,0.667,0.538
		c1.439,1.178,2.913,1.165,4.249-0.145c1.547-1.516,1.816-3.386,1.265-5.409c-0.283-1.04-0.818-1.97-1.462-2.825
		c-0.901-1.196-2.33-1.589-3.755-1.079c-0.148,0.053-0.285,0.135-0.562-0.018c0.927-0.812,1.547-1.937,2.978-1.96
		c1.002-0.017,1.939-0.331,2.83-0.781c0.436,0.035,0.168,0.285,0.107,0.42c-1.095,2.424-0.767,4.248,1.072,6.17
		c1.279,1.338,2.738,2.309,4.631,2.49c0.859,0.299,1.647,0.76,2.527,1.026c1.36,0.411,2.649,0.358,3.951-0.224
		c1.119-0.501,2.249-0.965,3.131-1.859c0.67-0.68,0.939-1.45,0.708-2.417c-0.339-1.417-0.932-2.701-2.17-3.492
		c-1.424-0.91-2.642-2.021-3.738-3.277c-1.778-2.037-3.887-2.031-5.893-0.579c-0.169,0.123-0.341,0.24-0.551,0.284
		c-0.743-0.083-1.439,0.027-2.086,0.435C24.374,20.465,24.105,20.712,23.964,20.294z"/>
	<path fill-rule="evenodd" clip-rule="evenodd" fill="#FDC008" d="M70.565,24.065c0.214-0.931-0.222-1.76-0.471-2.598
		c-1.238-4.163-3.931-7.16-7.623-9.329c-2.938-1.725-6.134-2.902-9.211-4.33c-0.298-0.138-0.657-0.179-0.831-0.518
		c2.781,0.956,5.417,2.255,8.104,3.434c1.594,0.699,3.185,1.402,4.719,2.233c5.067,2.746,7.842,7.004,8.383,12.714
		c0.352,3.709,0.58,7.44,0.172,11.149c-0.514,4.659-2.849,8.294-6.735,10.916c-0.695,0.469-1.527,0.644-2.312,0.912
		c-0.233,0.079-0.244,0.049-0.146-0.365c3.484-2.624,5.569-6.105,6.404-10.371c0.316-1.613,0.318-3.236,0.306-4.864
		c-0.002-0.206,0.026-0.422-0.184-0.561c0.27-2.604-0.161-5.148-0.66-7.687C70.431,24.555,70.35,24.288,70.565,24.065z"/>
	<path fill-rule="evenodd" clip-rule="evenodd" fill="#FCD6AC" d="M44.604,58.134c5.899-0.354,9.845-3.813,13.147-8.286
		c0.354-0.479,0.663-0.993,1.222-1.272c0.228,0.229,0.146,0.495,0.045,0.728c-1.236,2.83-2.411,5.693-4.148,8.271
		c-0.942,1.399-2.145,2.52-3.696,3.23c-2.277,0.985-4.542,2.007-6.995,2.502c-0.303,0.117-0.512-0.033-0.453-0.309
		C44.073,61.387,43.996,59.697,44.604,58.134z"/>
	<path fill-rule="evenodd" clip-rule="evenodd" fill="#DEC39B" d="M22.256,77.961c0.094-1.217,0.443-2.203,1.686-2.812
		c2.208-1.082,3.788-2.872,4.946-5.012c0.363-0.671,0.735-0.98,1.553-1.122c3.923-0.68,6.646-2.937,8.235-6.598
		c1.079-2.485,1.353-5.133,1.729-7.77c0.111-0.777,0.115-1.548,0.146-2.323c0.493,0.318,0.596,0.812,0.621,1.35
		c0.072,1.566-0.069,3.119-0.323,4.66c-0.364,2.197-0.585,4.431-1.589,6.474c-1.622,3.3-4.158,5.325-7.893,5.672
		c-0.704,0.065-1.138,0.405-1.417,1.036C28.441,74.92,25.659,76.812,22.256,77.961z"/>
	<path fill-rule="evenodd" clip-rule="evenodd" fill="#DEC39B" d="M51.174,60.805c0.058-0.084,0.096-0.205,0.175-0.246
		c1.915-0.993,3.194-2.608,4.213-4.432c1.238-2.217,2.305-4.524,3.269-6.876c0.086-0.21,0.098-0.45,0.144-0.676
		c0.696-0.56,1.489-0.811,2.378-0.714c0.372,0.04,0.54,0.191,0.349,0.619c-1.193,2.669-2.274,5.392-3.838,7.881
		c-1.244,1.98-3.034,3.22-5.23,3.928C52.142,60.447,51.659,60.632,51.174,60.805z"/>
	<path fill-rule="evenodd" clip-rule="evenodd" fill="#FDC008" d="M23.964,20.294c0.31,0.219,0.447-0.107,0.653-0.209
		c0.631-0.312,1.264-0.599,1.977-0.243c0.168,0.354-0.142,0.521-0.31,0.716c-1.656,1.917-1.815,4.784-0.355,6.866
		c0.673,0.96,1.338,1.915,2.313,2.606c0.199,0.141,0.46,0.271,0.436,0.592c-1.456,0.015-2.669-0.646-3.742-1.509
		c-1.154-0.93-2.167-2.029-2.601-3.507c-0.409-1.392-0.461-2.758,0.544-3.966c0.079-0.095,0.083-0.181-0.03-0.252
		C23.221,21.022,23.593,20.658,23.964,20.294z"/>
	<path fill-rule="evenodd" clip-rule="evenodd" fill="#FCD6AC" d="M65.073,51.412c1.522-0.635,3.164-1.01,4.47-2.114
		c0.287-0.243,0.533-0.567,0.939-0.671c0.188,0.415-0.062,0.712-0.244,1.012c-1.822,2.992-4.048,5.652-6.654,7.99
		c-0.603,0.54-1.302,0.935-2.103,1.117c-0.089-0.303,0.135-0.487,0.279-0.688c1.331-1.851,2.336-3.859,2.961-6.055
		C64.787,51.771,64.891,51.57,65.073,51.412z"/>
	<path fill-rule="evenodd" clip-rule="evenodd" fill="#DEC39B" d="M65.073,51.412c-0.649,2.713-1.887,5.138-3.592,7.334
		c-0.77,0.381-1.598,0.529-2.606,0.699c1.847-2.2,2.918-4.646,4.025-7.071c0.109-0.24,0.228-0.443,0.529-0.512
		C63.983,51.736,64.526,51.564,65.073,51.412z"/>
	<path fill-rule="evenodd" clip-rule="evenodd" fill="#90552D" d="M17.233,28.918c-0.059-0.714,0.762-2.037,1.344-2.287
		c0.201-0.086,0.335-0.025,0.492,0.091c1.103,0.816,1.657,2.911,1.098,4.177c-0.403,0.912-0.819,1.013-1.517,0.289
		C18.006,30.52,17.08,29.997,17.233,28.918z"/>
	<path fill-rule="evenodd" clip-rule="evenodd" fill="#6C4122" d="M22.118,17.171c-0.005,1.391-0.544,2.095-1.721,2.284
		c-0.271,0.043-0.437,0.06-0.492-0.278c-0.193-1.184-0.268-2.367,0.045-3.539c0.064-0.242,0.227-0.461,0.361-0.681
		c0.241-0.393,0.492-0.459,0.849-0.086C21.785,15.522,22.101,16.28,22.118,17.171z"/>
	<path fill-rule="evenodd" clip-rule="evenodd" fill="#DEC39B" d="M44.604,58.134c-0.134,1.542-0.334,3.074-0.636,4.593
		c-0.047,0.234-0.232,0.521,0.21,0.58c-0.483,0.192-0.987,0.266-1.604,0.321c0.456-1.758,0.669-3.492,0.98-5.209
		C43.664,57.814,44.245,58.217,44.604,58.134z"/>
	<path fill-rule="evenodd" clip-rule="evenodd" d="M28.678,30.622c-1.149-0.856-2.137-1.852-2.919-3.07
		c-1.577-2.457-1.406-5.119,0.526-7.282c0.117-0.13,0.207-0.285,0.309-0.428c0.771-0.62,1.588-1.156,2.575-1.367
		c1.198-0.257,2.261,0.045,3.213,0.794c0.575,0.453,1.081,0.978,1.545,1.538c0.737,0.89,1.604,1.598,2.589,2.212
		c1.643,1.022,2.513,2.583,2.745,4.494c0.116,0.95-0.341,1.702-1.05,2.226c-3.37,2.493-5.687,2.937-9.05,1.126
		C29.003,30.777,28.839,30.702,28.678,30.622z"/>
	<path fill-rule="evenodd" clip-rule="evenodd" d="M70.565,24.065c0.513,2.309,0.855,4.639,0.902,7.008
		c0.01,0.507-0.066,0.978-0.329,1.414c-0.508,0.387-1.053,0.58-1.66,0.246c-0.575-0.316-0.674-0.852-0.689-1.463
		c-0.082-3.112-0.485-6.17-1.677-9.076c-0.9-2.197-2.208-4.053-4.395-5.176c-0.772-0.397-0.978-1.162-0.595-1.846
		c0.371-0.666,1.115-0.859,1.896-0.464c2.379,1.201,3.963,3.146,5.124,5.489C69.758,21.436,70.156,22.752,70.565,24.065z"/>
	<path fill-rule="evenodd" clip-rule="evenodd" fill="#90562D" d="M32.241,29.234c-2.274-0.529-3.769-1.979-4.686-4.056
		c-0.46-1.043-0.083-2.882,1.42-3.656c0.958,0.988,1.988,1.87,3.155,2.625c1.133,0.733,1.761,1.884,1.945,3.242
		C34.215,28.418,33.29,29.346,32.241,29.234z"/>
	<path fill-rule="evenodd" clip-rule="evenodd" fill="#6C4122" d="M32.241,29.234c1.068-0.113,1.75-0.986,1.596-1.988
		c-0.239-1.561-1.15-2.615-2.464-3.39c-0.986-0.582-1.865-1.281-2.397-2.333c0.799-0.614,1.255-0.592,1.983,0.045
		c0.978,0.857,1.647,2.018,2.736,2.763c0.406,0.278,0.823,0.542,1.224,0.828c0.294,0.21,0.616,0.407,0.846,0.677
		c1.084,1.27,1.004,1.907-0.441,2.677C34.38,29.015,33.399,29.562,32.241,29.234z"/>
</g>
</svg>
