<?xml version="1.0" encoding="utf-8"?>
<!-- Generator: Adobe Illustrator 16.0.2, SVG Export Plug-In . SVG Version: 6.00 Build 0)  -->
<!DOCTYPE svg PUBLIC "-//W3C//DTD SVG 1.1//EN" "http://www.w3.org/Graphics/SVG/1.1/DTD/svg11.dtd">
<svg version="1.1" id="Layer_1" xmlns="http://www.w3.org/2000/svg" xmlns:xlink="http://www.w3.org/1999/xlink" x="0px" y="0px"
	 width="85px" height="85px" viewBox="0 0 85 85" enable-background="new 0 0 85 85" xml:space="preserve">
<g>
	<path d="M82.5,15.32c-0.117-0.043-0.121-0.146-0.135-0.25C80.994,5.55,70.744,0.384,62.385,5.046
		c-4.264,2.377-8.479,4.838-12.678,7.324c-3.535,2.094-5.627,5.242-6.367,9.269c-0.098,0.541-0.334,0.796-0.764,1.042
		c-3.109,1.779-6.213,3.57-9.309,5.376c-1.213,0.707-1.275,1.927-0.178,2.788c0.123,0.096,0.242,0.208,0.381,0.271
		c1.658,0.769,2.191,2.099,2.166,3.867c-0.021,1.608,1.215,2.213,2.623,1.405c2.297-1.317,4.594-2.638,6.873-3.983
		c0.469-0.274,0.723-0.303,1.117,0.174c4.143,5.004,11.094,6.412,16.777,3.291c4.414-2.424,8.777-4.947,13.082-7.561
		c3.658-2.221,5.719-5.572,6.262-9.835c0.133-0.256-0.055-0.563,0.129-0.812C82.5,16.882,82.5,16.101,82.5,15.32z M70.939,20.101
		c-2.471,1.479-4.982,2.885-7.473,4.33c-0.271,0.158-0.441,0.24-0.693-0.081c-1.635-2.067-3.693-3.547-6.203-4.386
		c-0.092-0.031-0.17-0.109-0.289-0.188c3.645-2.103,7.244-4.215,10.881-6.264c1.814-1.021,4.039-0.352,5.08,1.418
		C73.299,16.732,72.764,19.008,70.939,20.101z"/>
	<path fill="#575757" d="M82.371,18.476c-0.061-0.287-0.094-0.57,0.129-0.813c0,0.262,0,0.521,0,0.781l-0.055,0.051L82.371,18.476z"
		/>
	<path fill="#565656" d="M2.629,66.536c0.059,0.287,0.1,0.572-0.129,0.814c0-0.262,0-0.521,0-0.781
		C2.543,66.56,2.586,66.548,2.629,66.536z"/>
	<path fill="#7FB5FE" d="M25.625,76.257c-0.922-1.127-1.643-1.158-2.902-0.133c-5.896,4.813-14.668,2.143-16.682-5.15
		c-1.139-4.129-0.063-7.779,3.152-10.609c3.67-3.234,7.457-6.338,11.236-9.445c3.707-3.047,9.113-3.059,12.865-0.123
		c0.385,0.301,0.533,0.506,0.035,0.822c-0.283,0.18-0.533,0.416-0.781,0.645c-0.846,0.779-1.572,1.117-2.842,0.471
		c-2.451-1.25-4.955-0.859-7.088,0.879c-3.734,3.039-7.42,6.139-11.07,9.279c-2.984,2.566-3.283,6.855-0.779,9.785
		c2.463,2.881,6.74,3.252,9.74,0.779c3.615-2.979,7.246-5.945,10.738-9.064c1.184-1.059,2.344-1.939,3.869-2.379
		c0.658-0.188,1.252-0.594,1.967-0.943c-0.295,1.707-1.012,3.123-2.01,4.408c-0.254,0.326-0.545,0.629-0.832,0.93
		c-0.848,0.889-0.914,1.406-0.301,2.498c-0.623,0.732-1.418,1.279-2.119,1.928c-0.283,0.26-0.635,0.457-0.773,0.85
		c-0.285,0.059-0.391-0.205-0.57-0.328c-0.6-0.408-1.207-0.412-1.709,0.008c-0.469,0.393-0.58,1.063-0.283,1.697
		c0.096,0.205,0.293,0.369,0.25,0.631C27.574,74.394,26.695,75.442,25.625,76.257z"/>
	<path d="M18.891,28.783c-0.445,0.02-0.813-0.15-1.125-0.449c-0.979-0.934-1.967-1.855-2.932-2.803
		c-0.732-0.72-0.773-1.615-0.143-2.285c0.607-0.645,1.559-0.648,2.293,0.033c1.01,0.938,2.006,1.889,2.984,2.857
		c0.486,0.48,0.617,1.081,0.33,1.72C20.031,28.455,19.549,28.765,18.891,28.783z"/>
	<path d="M64.707,52.179c0.307-0.01,0.664,0.188,0.977,0.48c0.961,0.912,1.93,1.818,2.875,2.746
		c0.758,0.744,0.799,1.688,0.139,2.348c-0.623,0.625-1.553,0.605-2.299-0.088c-0.988-0.922-1.965-1.855-2.926-2.807
		c-0.508-0.502-0.66-1.115-0.336-1.783C63.422,52.485,63.904,52.181,64.707,52.179z"/>
	<path d="M9.82,36.732c0-1.047,0.971-1.834,1.961-1.488c1.314,0.461,2.609,0.996,3.885,1.563c0.803,0.358,1.082,1.187,0.779,1.956
		c-0.307,0.775-1.08,1.207-1.9,0.914c-1.338-0.479-2.652-1.027-3.951-1.604C10.064,37.837,9.814,37.332,9.82,36.732z"/>
	<path d="M30.66,21.035c-0.002,0.816-0.344,1.324-0.982,1.563c-0.664,0.248-1.336,0.143-1.754-0.462
		c-0.811-1.175-1.588-2.377-2.313-3.608c-0.416-0.707-0.131-1.541,0.543-1.976c0.654-0.423,1.516-0.373,1.969,0.265
		c0.857,1.205,1.629,2.473,2.418,3.725C30.646,20.707,30.639,20.94,30.66,21.035z"/>
	<path d="M73.6,43.931c0.01,1.369-1,2.146-2.029,1.779c-1.289-0.463-2.559-0.988-3.811-1.541c-0.783-0.346-1.09-1.201-0.795-1.958
		c0.297-0.764,1.092-1.213,1.898-0.924c1.338,0.48,2.65,1.031,3.951,1.605C73.346,43.126,73.59,43.634,73.6,43.931z"/>
	<path d="M54.314,58.271c0.604-0.008,1.033,0.293,1.35,0.775c0.676,1.043,1.363,2.078,2.016,3.137
		c0.533,0.863,0.348,1.75-0.424,2.242c-0.766,0.49-1.645,0.277-2.211-0.57c-0.688-1.033-1.357-2.08-2.02-3.131
		c-0.344-0.543-0.396-1.125-0.061-1.691C53.262,58.526,53.715,58.259,54.314,58.271z"/>
	<path fill="#010101" d="M28.734,73.688c-0.801-0.832-0.857-1.793-0.141-2.443c0.758-0.686,1.709-0.516,2.455,0.438
		c0.256,0.725,0.195,1.391-0.426,1.904C30.031,74.077,29.385,74.038,28.734,73.688z"/>
	<path fill="#7FB5FE" d="M46.967,20.19c0.859-2.124,2.127-3.796,3.992-4.899c4.406-2.606,8.803-5.234,13.299-7.674
		c4.832-2.619,10.926-0.75,13.693,4.01c2.787,4.796,1.377,11.031-3.338,13.929c-4.338,2.665-8.76,5.199-13.229,7.642
		c-4.086,2.235-9.197,1.246-12.365-2.152c-0.441-0.473-0.432-0.719,0.166-0.967c0.283-0.119,0.545-0.299,0.811-0.465
		c0.949-0.596,1.703-0.787,2.814,0.053c2.189,1.658,4.725,1.726,7.129,0.386c4.242-2.365,8.455-4.791,12.625-7.284
		c3.293-1.971,4.295-6.137,2.393-9.404c-1.895-3.25-6.023-4.426-9.365-2.554c-4.215,2.363-8.426,4.742-12.529,7.287
		c-1.203,0.746-2.355,1.271-3.73,1.454C48.574,19.65,47.842,19.945,46.967,20.19z"/>
	<path fill="#DEECFE" d="M38.51,32.6c0.176-1.448-0.551-2.295-1.664-2.864c0.113-0.283,0.332-0.324,0.496-0.418
		c3.166-1.836,6.328-3.68,9.506-5.494c4.328-2.47,9.414-1.785,12.813,1.696c0.693,0.712,0.688,0.703-0.146,1.197
		c-1.104,0.653-2.197,1.291-3.576,0.987c-0.734-0.162-1.436-0.424-1.898-0.994c-0.863-1.059-1.953-1.049-3.119-0.832
		c-0.932,0.174-1.762,0.604-2.574,1.072c-3.01,1.74-6.02,3.479-9.033,5.219C39.094,32.296,38.869,32.408,38.51,32.6z"/>
	<path d="M48.592,48.017c-1.668-0.674-2.602-1.676-2.879-3.506c-0.242-1.611-1.576-1.964-2.83-0.914
		c-2.035,1.701-4.078,3.396-6.092,5.127c-0.439,0.377-0.689,0.377-1.139-0.012c-4.826-4.164-12.082-4.348-17.035-0.346
		c-3.906,3.154-7.738,6.4-11.543,9.678c-2.582,2.225-4.068,5.084-4.447,8.492c-0.131,0.258,0.057,0.564-0.127,0.814
		c0,0.885,0,1.771,0,2.656c0.287,0.158,0.18,0.463,0.229,0.693c2.193,10.301,14.041,14.434,22.137,7.727
		c0.721-0.596,1.047-1.258,0.758-2.172c-0.266-0.775-0.943-1.164-1.754-1.006c-0.535,0.105-0.939,0.434-1.344,0.762
		c-2.299,1.877-4.92,2.611-7.863,2.238C8.43,77.462,4.34,71.011,6.322,65.052c0.672-2.023,1.865-3.678,3.531-5.041
		c3.605-2.947,7.105-6.023,10.73-8.947c3.383-2.73,7.664-2.957,11.205-0.98c2.027,1.131,1.955,0.936,0.111,2.424
		c-0.566,0.457-1.096,0.518-1.787,0.172c-2.748-1.371-5.342-1.008-7.74,0.863c-1.189,0.928-2.324,1.926-3.477,2.9
		c-2.563,2.166-5.193,4.254-7.684,6.506c-2.711,2.453-3.096,6.465-0.943,9.418c2.313,3.176,6.846,3.869,9.992,1.512
		c1.375-1.029,2.674-2.158,3.969-3.285c2.82-2.461,5.887-4.641,8.475-7.369c0.09-0.096,0.184-0.197,0.307-0.234
		c1.256-0.395,2.48-0.865,3.658-1.48c0.09,0.266,0.004,0.404-0.039,0.551c-0.498,1.75-1.521,3.176-2.74,4.486
		c-0.719,0.771-0.688,1.791,0.047,2.357c1.133,0.664,1.637,0.613,2.547-0.313c2.602-2.645,3.922-5.834,3.955-9.537
		c0.004-0.553,0.174-0.896,0.59-1.24c2.664-2.207,5.309-4.439,7.959-6.664C50.406,49.964,50.314,48.71,48.592,48.017z
		 M21.289,68.733c-0.875,0.734-1.75,1.473-2.629,2.201c-1.803,1.494-4.139,1.346-5.553-0.35c-1.391-1.666-1.141-3.959,0.627-5.463
		c2.1-1.783,4.223-3.537,6.326-5.316c0.291-0.246,0.484-0.363,0.834-0.049c2.004,1.803,4.375,2.838,7.188,3.266
		C25.736,64.993,23.512,66.862,21.289,68.733z"/>
	<path fill="#DEECFE" d="M45.582,49.923c-1.156,0.973-2.229,1.869-3.299,2.768c-2.014,1.688-3.996,3.412-6.045,5.053
		c-3.902,3.119-9.801,2.949-13.279-0.365c0.604-0.498,1.178-1.027,1.811-1.479c1.311-0.938,3.02-0.973,4.297,0.004
		c0.873,0.668,1.736,0.691,2.709,0.4c1.018-0.305,1.873-0.881,2.674-1.551c2.91-2.438,5.814-4.877,8.85-7.422
		C43.369,48.806,44.281,49.485,45.582,49.923z"/>
</g>
</svg>
