<?xml version="1.0" encoding="utf-8"?>
<!-- Generator: Adobe Illustrator 16.0.0, SVG Export Plug-In . SVG Version: 6.00 Build 0)  -->
<!DOCTYPE svg PUBLIC "-//W3C//DTD SVG 1.1//EN" "http://www.w3.org/Graphics/SVG/1.1/DTD/svg11.dtd">
<svg version="1.1" id="Layer_1" xmlns="http://www.w3.org/2000/svg" xmlns:xlink="http://www.w3.org/1999/xlink" x="0px" y="0px"
	 width="85px" height="85px" viewBox="0 0 85 85" enable-background="new 0 0 85 85" xml:space="preserve">
<g>
	<path d="M2.498,81.564c0-26.043,0-52.084,0-78.125c0.158-0.58,0.482-0.936,1.136-0.857c1.469,0,2.937,0,4.405,0
		c0.814-0.045,1.176,0.465,1.305,1.156c0.109,0.588,0.438,0.74,0.979,0.729c0.905-0.018,1.812-0.037,2.717,0.014
		c0.764,0.041,1.342,0.363,1.531,1.174c-0.029,1.154-0.41,1.562-1.533,1.604c-0.91,0.035-1.822,0.021-2.733,0.008
		C9.73,7.256,9.449,7.449,9.449,8.074C9.46,13.777,9.455,19.48,9.455,25.184c0,0.525,0.156,0.832,0.752,0.832
		c5.469-0.01,10.938,0.016,16.406-0.018c0.053,0,0.1-0.025,0.15-0.066c-0.035-0.314-0.326-0.445-0.494-0.662
		c-1.25-1.611-2-3.377-1.453-5.443c0.455-1.721,1.625-2.74,3.396-3.033c0.076-0.014,0.154-0.02,0.232-0.035
		c0.945-0.168,1.146-0.008,1.07-1.305c-0.08-1.346,0.113-2.711,0.57-3.998c0.414-1.172,0.275-2.367,0.285-3.559
		c0.004-0.479-0.301-0.615-0.719-0.621c-0.832-0.01-1.666-0.004-2.5-0.004c-2.682-0.004-5.363,0.014-8.045-0.01
		c-1.215-0.012-1.604-0.402-1.652-1.568c0.307-0.902,0.711-1.207,1.742-1.219c1.949-0.025,3.898-0.008,5.846-0.01
		c1.924-0.002,3.848-0.002,5.77,0c1.566,0.002,1.885,0.213,2.473,1.648c1.152-1.031,2.383-1.928,3.766-2.611
		c1.326-0.654,2.752-0.873,4.199-1.002c0.156,0,0.312,0,0.471,0c0.363,0.129,0.729,0.129,1.094,0c0.26,0,0.52,0,0.781,0
		c1.254,0.162,2.512,0.223,3.717,0.721c1.656,0.686,3.078,1.697,4.402,2.891c0.568-1.42,0.912-1.652,2.463-1.652
		c6.734-0.002,13.473-0.008,20.209,0.008c0.701,0.002,1.199-0.082,1.328-0.916c0.1-0.629,0.531-0.998,1.219-0.971
		c1.475,0,2.947,0,4.422,0c0.654-0.08,0.99,0.271,1.146,0.857c0,26.043,0,52.084,0,78.125c-0.156,0.582-0.484,0.936-1.141,0.857
		c-1.482,0-2.963,0-4.445,0c-0.73,0.021-1.066-0.418-1.248-1.055c-0.143-0.512-0.121-1.033-0.121-1.553
		c0-16.479,0-32.953-0.002-49.432c0-1.643,0.109-1.549-1.588-1.551c-1.795,0-3.592-0.006-5.387,0.004
		c-0.906,0.004-0.98,0.078-0.986,0.982c-0.01,1.77,0.01,3.539-0.006,5.309c-0.016,1.715-0.6,2.293-2.316,2.297
		c-4.557,0.006-9.111,0.002-13.666,0.002c-0.184,0-0.367-0.018-0.547,0.004c-0.283,0.037-0.76-0.117-0.768,0.279
		c-0.01,0.389,0.449,0.193,0.703,0.227c0.291,0.035,0.613,0.057,0.799,0.27c0.596,0.688,1.455,1.105,1.949,1.885
		c0.258,0.41,0.609,0.602,1.061,0.717c1.641,0.412,3.295,0.77,4.914,1.264c0.461,0.141,0.867,0.045,1.268-0.191
		c0.447-0.264,0.893-0.539,1.414-0.645c1.412-0.291,2.492,0.152,3.297,1.375c0.572,0.869,1.082,1.777,1.584,2.689
		c0.58,1.059,0.654,2.137,0.029,3.197c-0.262,0.447-0.188,0.826,0.053,1.24c0.609,1.061,1.201,2.133,1.826,3.184
		c0.41,0.695,0.6,1.422,0.598,2.229c-0.012,3.541-0.006,7.08-0.004,10.621c0,1.156,0.023,1.178,1.174,1.186
		c0.494,0.004,0.99-0.023,1.482,0.021c0.938,0.086,1.496,0.617,1.537,1.551c0.059,1.301,0.057,2.604,0,3.904
		c-0.041,0.939-0.51,1.498-1.486,1.615c-0.797,0.098-1.088,0.492-1.254,1.215c-0.461,2.004-0.971,3.996-1.494,5.984
		c-0.25,0.947-0.496,1.125-1.385,1.178c-17.273,0-34.549,0-51.82,0c-0.861,0.057-1.188-0.496-1.375-1.207
		c-0.518-1.963-1.02-3.932-1.475-5.908c-0.174-0.752-0.486-1.16-1.295-1.291c-1.066-0.174-1.455-0.688-1.501-1.775
		c-0.05-1.17-0.052-2.344,0-3.514c0.047-1.088,0.692-1.695,1.798-1.762c0.494-0.027,0.988-0.006,1.482-0.012
		c1.01-0.012,1.072-0.062,1.072-1.057c0.006-3.201,0.078-6.404-0.027-9.604c-0.059-1.771,0.281-3.344,1.309-4.775
		c0.227-0.316,0.359-0.697,0.59-1.012c0.617-0.832,0.883-1.633,0.24-2.625c-0.396-0.613-0.254-1.361,0.045-2.033
		c0.541-1.219,1.227-2.359,1.967-3.457c0.842-1.248,2.391-1.684,3.732-0.9c1.154,0.672,2.189,0.684,3.393,0.264
		c1.102-0.383,2.262-0.605,3.404-0.861c0.484-0.109,0.824-0.363,1.123-0.768c0.859-1.166,1.822-2.205,3.451-2.16
		c0.172,0.006,0.316-0.055,0.312-0.258c-0.002-0.158-0.137-0.205-0.266-0.236c-0.281-0.068-0.568-0.045-0.854-0.045
		c-4.555-0.002-9.111,0-13.666-0.002c-2.062,0-2.561-0.504-2.566-2.598c-0.004-1.666,0.006-3.332-0.002-4.998
		c-0.006-0.904-0.088-0.99-0.979-0.994c-2.031-0.008-4.062-0.012-6.092,0.002c-0.804,0.004-0.887,0.09-0.889,0.912
		c-0.01,3.123-0.004,6.246-0.004,9.369c0,13.562,0,27.123-0.002,40.684c0,0.521,0.023,1.041-0.119,1.553
		c-0.178,0.635-0.502,1.086-1.238,1.066c-1.482,0-2.966,0-4.447,0C2.992,82.5,2.656,82.15,2.498,81.564z"/>
	<path fill="#555555" d="M16.404,82.5c-0.012-0.043-0.021-0.088-0.029-0.133c0.391-0.008,0.779-0.021,1.17-0.021
		c16.744-0.002,33.486-0.002,50.23,0c0.232,0,0.467,0.021,0.699,0.033c0.016,0.049,0.002,0.09-0.039,0.121
		C51.092,82.5,33.748,82.5,16.404,82.5z"/>
	<path fill="#585858" d="M76.844,2.629c0-0.045,0.012-0.088,0.029-0.129c1.562,0,3.125,0,4.689,0
		c0.049,0.029,0.066,0.062,0.053,0.096c-0.014,0.035-0.029,0.053-0.043,0.053C79.994,2.643,78.42,2.637,76.844,2.629z"/>
	<path fill="#585858" d="M8.123,2.5c0.019,0.043,0.029,0.086,0.031,0.131C6.578,2.637,5.003,2.645,3.427,2.65
		c-0.045-0.037-0.06-0.07-0.041-0.104C3.402,2.518,3.42,2.5,3.436,2.5C4.998,2.5,6.562,2.5,8.123,2.5z"/>
	<path fill="#585858" d="M8.152,82.369C8.15,82.414,8.141,82.457,8.123,82.5c-1.562,0-3.125,0-4.688,0
		c-0.05-0.031-0.066-0.062-0.054-0.096c0.015-0.035,0.028-0.053,0.045-0.053C5.003,82.357,6.578,82.363,8.152,82.369z"/>
	<path fill="#585858" d="M76.873,82.5c-0.016-0.043-0.025-0.086-0.027-0.131c1.574-0.006,3.148-0.012,4.725-0.018
		c0.045,0.033,0.061,0.068,0.043,0.102c-0.018,0.031-0.035,0.047-0.051,0.047C79.998,82.5,78.438,82.5,76.873,82.5z"/>
	<path fill="#686868" d="M42.812,2.5c-0.365,0.211-0.73,0.273-1.096,0C42.082,2.5,42.447,2.5,42.812,2.5z"/>
	<path fill="#E84444" d="M14.455,5.771c1.043,0.195,2.086,0.193,3.131,0.002c0.141,0.994,0.455,1.268,1.494,1.268
		c3.594,0.004,7.188,0.016,10.781-0.012c0.594-0.004,0.797,0.125,0.789,0.762c-0.02,1.533-0.02,3.041-0.521,4.535
		c-0.424,1.26-0.475,2.607-0.318,3.939c0.059,0.494-0.061,0.697-0.609,0.676c-3.078-0.115-5.008,2.502-4.104,5.633
		c0.41,1.424,1.184,2.588,2.324,3.527c-0.141,0.268-0.375,0.141-0.549,0.141c-5.65,0.008-11.301-0.004-16.951,0.021
		c-0.627,0.004-0.77-0.184-0.768-0.783c0.021-5.885,0.024-11.77-0.002-17.654c-0.004-0.678,0.213-0.83,0.84-0.799
		c0.988,0.051,1.979,0.018,2.968,0.014C13.996,7.037,14.305,6.771,14.455,5.771z"/>
	<path fill="#E84444" d="M57.49,26.186c1.428-1.211,2.299-2.605,2.553-4.369c0.396-2.758-1.205-4.758-4.002-4.857
		c-0.719-0.025-0.93-0.189-0.85-0.916c0.178-1.65-0.098-3.262-0.617-4.834c-0.422-1.271-0.119-2.58-0.201-3.869
		c-0.016-0.244,0.146-0.299,0.355-0.297c0.312,0.006,0.625,0,0.938,0c6.451,0,12.904,0.01,19.357-0.014
		c0.646-0.002,0.824,0.168,0.82,0.816c-0.023,5.881-0.016,11.76-0.012,17.641c0,0.428,0.068,0.783-0.604,0.779
		c-5.803-0.025-11.605-0.016-17.406-0.018C57.752,26.248,57.684,26.221,57.49,26.186z"/>
	<path fill="#FC6930" d="M21.074,72.656c0.305,1.01,0.568,1.188,1.789,1.188c7.367,0.002,14.734,0,22.102,0
		c7.705,0,15.412,0.012,23.117-0.016c0.73-0.002,0.871,0.152,0.672,0.855c-0.453,1.598-0.852,3.215-1.221,4.834
		c-0.111,0.486-0.314,0.615-0.787,0.611c-2.553-0.021-5.104-0.012-7.654-0.012c-13.562,0-27.127-0.006-40.689,0.018
		c-0.713,0.002-0.973-0.203-1.119-0.895c-0.332-1.574-0.764-3.129-1.172-4.688c-0.121-0.469-0.152-0.762,0.508-0.729
		c0.777,0.041,1.281-0.357,1.383-1.172C19.025,72.268,20.049,72.279,21.074,72.656z"/>
	<path fill="#FEF2DD" d="M36.684,33.455c-2.303-1.668-3.531-3.957-3.859-6.746c-0.111-0.955-0.031-1.939-0.217-2.875
		c-0.266-1.344,0.154-2.393,0.947-3.439c0.908-1.199,1.693-2.49,2.52-3.75c0.205-0.316,0.398-0.531,0.811-0.33
		c2.906,1.408,5.936,1.568,9.045,0.867c0.479-0.215,0.666,0.102,0.811,0.461c0.266,0.652,0.473,1.334,0.547,2.031
		c0.34,3.229,0.123,6.354-1.811,9.133c-1.852,2.66-4.383,4.242-7.574,4.785C37.479,33.664,37.074,33.633,36.684,33.455z"/>
	<path fill="#537982" d="M52.697,18.084c-0.688-1.031-1.273-1.912-1.865-2.789c-0.961-1.426-2.209-1.779-3.783-1.066
		c-3.043,1.379-6.082,1.371-9.123-0.008c-1.566-0.711-2.811-0.346-3.775,1.092c-0.586,0.873-1.168,1.75-1.811,2.709
		c-0.732-4.146,0.184-8.217,3.949-11.066c3.318-2.508,7.92-2.74,11.463-0.641C51.686,8.646,53.445,12.727,52.697,18.084z"/>
	<path fill="#3691BB" d="M28.586,65.164c-0.01-1.014-0.014-2.027-0.035-3.039c-0.012-0.682-0.229-1.254-1-1.361
		c-0.738-0.104-1.18,0.271-1.355,0.98c-0.064,0.982-0.021,1.967-0.023,2.949c0,0.357-0.078,0.641-0.475,0.66
		c-1.445,0.07-2.895,0.123-4.338-0.033c-0.102-0.012-0.186-0.09-0.266-0.158c-0.006-4.76-0.008-9.52-0.025-14.279
		c0-0.406,0.121-0.604,0.539-0.67c0.912-0.143,1.57-0.678,1.979-1.486c0.639-1.268,1.643-2.354,1.908-3.807
		c0.055-0.293,0.318-0.324,0.533-0.381c1.023-0.271,2.053-0.529,3.264-0.838c-0.709,1.309-1.338,2.477-1.971,3.643
		c-0.652,1.197-0.623,1.412,0.332,2.365c0.883,0.883,1.742,1.793,2.664,2.633c0.42,0.381,0.404,0.67,0.156,1.119
		c-0.527,0.955-0.986,1.947-1.5,2.91c-0.377,0.703-0.271,1.264,0.332,1.797c2.514,2.223,5.012,4.461,7.514,6.695
		c0.096,0.086,0.176,0.189,0.264,0.285c-0.262,0.275-0.611,0.256-0.943,0.258c-2.199,0.01-4.398,0.008-6.598,0.002
		C29.205,65.406,28.865,65.404,28.586,65.164z"/>
	<path fill="#8DB9C4" d="M4.843,42.496c0-12.238-0.001-24.473,0.007-36.711c0-0.293-0.173-0.781,0.145-0.848
		c0.543-0.115,1.133-0.023,1.701,0.01c0.047,0.004,0.105,0.221,0.117,0.342C6.832,5.496,6.82,5.705,6.82,5.914
		c0,24.395,0,48.791-0.011,73.186c0,0.33,0.229,0.854-0.204,0.967c-0.51,0.133-1.085,0.062-1.625,0.012
		c-0.201-0.02-0.134-0.307-0.136-0.479c-0.005-0.758-0.002-1.512-0.002-2.268C4.843,65.719,4.843,54.107,4.843,42.496z"/>
	<path fill="#8DB9C4" d="M80.154,42.506c0,12.236,0.002,24.473-0.006,36.709c0,0.293,0.172,0.781-0.146,0.85
		c-0.543,0.115-1.131,0.021-1.699-0.012c-0.049-0.002-0.105-0.219-0.117-0.34c-0.021-0.207-0.008-0.418-0.008-0.625
		c0-24.395-0.002-48.791,0.012-73.186c0-0.33-0.23-0.854,0.203-0.967c0.51-0.133,1.084-0.062,1.625-0.01
		c0.199,0.02,0.133,0.307,0.135,0.48c0.006,0.807,0.002,1.613,0.002,2.42C80.154,19.385,80.154,30.945,80.154,42.506z"/>
	<path fill="#FB7B42" d="M21.074,72.656c-1.023,0-2.049-0.002-3.072-0.002c-0.113-0.807-0.588-1.168-1.393-1.156
		c-0.859,0.014-1.719-0.012-2.578,0.01c-0.42,0.012-0.586-0.102-0.596-0.562c-0.025-1.42-0.047-1.42,1.357-1.42
		c18.537,0,37.076,0,55.615,0.012c0.326,0,0.852-0.24,0.965,0.182c0.135,0.508,0.033,1.082,0.008,1.625
		c-0.008,0.154-0.188,0.15-0.314,0.154c-0.234,0.006-0.469,0.004-0.703,0.004c-15.857,0-31.713,0-47.57,0
		C21.588,71.502,21.385,71.643,21.074,72.656z"/>
	<path fill="#FEE4C1" d="M36.684,33.455c5.135-0.062,9.793-4.252,10.361-9.373c0.236-2.129,0.289-4.229-0.461-6.281
		c-0.121-0.334-0.209-0.65-0.654-0.621c0.721-0.283,1.449-0.553,2.16-0.857c0.355-0.154,0.57-0.082,0.781,0.236
		c1.145,1.736,2.305,3.463,3.453,5.195c0.082,0.123,0.168,0.287,0.156,0.422c-0.223,2.246-0.014,4.551-0.789,6.721
		C49.367,35.402,41.59,37.35,36.684,33.455z"/>
	<path fill="#0680AE" d="M65.15,58.553c-0.939,0.213-1.217,0.539-1.221,1.5c-0.008,2.16-0.018,4.32,0.008,6.48
		c0.006,0.508-0.139,0.674-0.654,0.66c-1.301-0.033-2.604-0.039-3.902,0.002c-0.578,0.018-0.688-0.205-0.678-0.723
		c0.031-1.379-0.002-2.76,0.018-4.139c0.008-0.607-0.133-1.129-0.635-1.512c0.686-2.01,0.596-4.094,0.586-6.17
		c-0.01-1.846-0.02-3.691,0.002-5.535c0.02-1.447-0.164-2.85-0.738-4.188c-0.092-0.215-0.189-0.434-0.113-0.678
		c0.201,0.043,0.402,0.098,0.605,0.127c0.58,0.084,0.861,0.352,1.078,0.973c0.516,1.467,1.391,2.771,2.285,4.043
		c0.338,0.477,0.881,0.754,1.463,0.809c0.588,0.057,0.689,0.363,0.676,0.871c-0.025,0.934-0.008,1.867-0.002,2.803
		c0.01,1.02,0.23,1.307,1.219,1.604C65.535,56.502,65.549,57.527,65.15,58.553z"/>
	<path fill="#3691BB" d="M57.822,44.254c0.748,1.168,1.045,2.486,1.064,3.836c0.047,3.248,0.057,6.498-0.01,9.744
		c-0.02,1.025-0.014,2.131-0.791,2.99c-1.1-0.17-1.373-0.025-1.734,0.92c-0.053,0.258-0.068,0.527-0.02,0.773
		c0.215,1.082-0.383,1.639-1.25,2.049c-1.066,0.502-2.16,0.871-3.365,0.828c-0.959-0.035-1.92,0-2.881-0.014
		c-0.328-0.004-0.684,0.049-0.941-0.244c2.5-2.268,4.998-4.537,7.506-6.797c0.861-0.775,0.938-1.111,0.41-2.162
		c-0.48-0.947-0.939-1.91-1.455-2.84c-0.223-0.396-0.164-0.625,0.152-0.926c0.902-0.859,1.773-1.754,2.656-2.633
		c1.047-1.047,1.072-1.234,0.33-2.555c-0.635-1.127-1.268-2.252-1.957-3.479C56.404,43.82,57.111,44.047,57.822,44.254z"/>
	<path fill="#6CAAC9" d="M39.594,64.182c-1.299-1.15-2.6-2.299-3.895-3.453c-1.283-1.141-2.547-2.303-3.848-3.42
		c-0.379-0.324-0.475-0.564-0.213-1.025c0.537-0.949,0.982-1.947,1.504-2.904c0.383-0.703,0.273-1.271-0.289-1.818
		c-1.006-0.98-1.992-1.98-2.992-2.967c-0.213-0.211-0.373-0.369-0.178-0.717c0.902-1.604,1.771-3.227,2.738-4.998
		c2.484,7.164,4.92,14.186,7.354,21.205C39.715,64.115,39.654,64.15,39.594,64.182z"/>
	<path fill="#6CAAC9" d="M45.238,64.021c2.398-6.902,4.797-13.801,7.258-20.877c0.969,1.719,1.852,3.287,2.742,4.852
		c0.193,0.338-0.08,0.473-0.25,0.645c-0.955,0.959-1.896,1.934-2.883,2.859c-0.629,0.592-0.734,1.195-0.326,1.947
		c0.51,0.936,0.963,1.9,1.469,2.838c0.215,0.396,0.24,0.654-0.145,0.994c-2.441,2.15-4.854,4.334-7.277,6.506
		C45.658,63.936,45.512,64.152,45.238,64.021z"/>
	<path fill="#0995A3" d="M42.41,64.498c-0.691-1.979-1.385-3.957-2.064-5.938c-0.057-0.164-0.049-0.365-0.02-0.539
		c0.289-1.742,0.604-3.48,0.875-5.223c0.062-0.408,0.244-0.482,0.611-0.496c1.832-0.062,1.82-0.07,2.092,1.717
		c0.209,1.385,0.443,2.768,0.676,4.148c0.035,0.207,0.078,0.396,0.004,0.607c-0.67,1.904-1.33,3.812-1.992,5.721
		C42.531,64.496,42.469,64.498,42.41,64.498z"/>
	<path fill="#D73131" d="M22.834,34.818c2.713-1.809,5.236-3.49,7.758-5.174c0.229-0.152,0.404-0.223,0.529,0.125
		c0.344,0.955,0.803,1.854,1.369,2.701c0.559,0.836,1.248,1.564,2.064,2.348C30.627,34.818,26.852,34.818,22.834,34.818z"/>
	<path fill="#D73131" d="M50.457,34.797c1.35-1.238,2.371-2.59,3.074-4.17c0.537-1.209,0.541-1.209,1.654-0.465
		c2.264,1.51,4.525,3.021,6.945,4.635C58.162,34.797,54.377,34.797,50.457,34.797z"/>
	<path fill="#FDD1A3" d="M47.488,36.725c-0.006,0.783,0.021,1.461,0.256,2.104c0.123,0.344-0.012,0.451-0.307,0.559
		c-1.557,0.572-3.109,1.154-4.654,1.756c-0.254,0.1-0.443,0.049-0.664-0.035c-1.504-0.564-3.008-1.133-4.518-1.682
		c-0.316-0.113-0.492-0.213-0.35-0.602c0.234-0.639,0.26-1.318,0.258-2.092C40.83,38.146,44.127,38.16,47.488,36.725z"/>
	<path fill="#0680AE" d="M47.895,65.137c1.787-0.029,3.584,0.215,5.355-0.145c0.578-0.117,1.145-0.348,1.68-0.602
		c0.846-0.4,1.59-0.902,1.328-2.051c-0.045-0.189-0.059-0.418,0.096-0.598c0.006,1.635,0.008,3.27,0.02,4.904
		c0.002,0.32-0.031,0.541-0.449,0.541c-3.387-0.012-6.773-0.008-10.393-0.008C46.43,66.406,47.16,65.773,47.895,65.137z"/>
	<path fill="#EDF4F5" d="M50.619,41.371c-0.049,0.156-0.102,0.328-0.162,0.498c-0.307,0.881-0.705,1.74-0.898,2.645
		c-0.271,1.258-1.037,2.016-2.107,2.59c-0.271,0.146-0.4,0.205-0.596-0.104c-0.75-1.182-1.525-2.348-2.311-3.506
		c-0.219-0.324-0.188-0.453,0.195-0.592c1.75-0.639,3.498-1.289,5.227-1.98C50.488,40.713,50.521,41.025,50.619,41.371z"/>
	<path fill="#EDF4F5" d="M34.359,41.303c0.006-0.389,0.086-0.561,0.512-0.396c1.791,0.689,3.588,1.361,5.393,2.012
		c0.35,0.127,0.395,0.23,0.188,0.531c-0.809,1.178-1.598,2.369-2.404,3.549c-0.086,0.127-0.168,0.4-0.396,0.217
		c-0.666-0.531-1.59-0.742-1.873-1.744c-0.352-1.246-0.828-2.455-1.25-3.682C34.467,41.617,34.408,41.445,34.359,41.303z"/>
	<path fill="#ED6060" d="M57.322,28.594c2.389,0,4.777,0.004,7.166-0.004c0.316,0,0.475,0.078,0.473,0.434
		c-0.014,1.553-0.006,3.104-0.006,4.832c-2.646-1.764-5.164-3.438-7.68-5.113C57.291,28.691,57.307,28.643,57.322,28.594z"/>
	<path fill="#ED6060" d="M27.725,28.744c-2.514,1.674-5.027,3.346-7.682,5.113c0-1.74,0.004-3.311-0.004-4.881
		c-0.002-0.324,0.158-0.387,0.436-0.387c2.404,0.006,4.809,0.004,7.213,0.004C27.699,28.645,27.711,28.693,27.725,28.744z"/>
	<path fill="#0680AE" d="M28.586,65.164c2.832-0.006,5.664-0.012,8.496-0.016c0.734,0.631,1.471,1.262,2.369,2.033
		c-1.719,0-3.211,0-4.703,0c-1.814,0-3.629-0.029-5.441,0.016c-0.641,0.018-0.818-0.203-0.756-0.791
		C28.596,65.996,28.576,65.578,28.586,65.164z"/>
	<path fill="#FAFAFA" d="M65.15,58.553c-0.002-1.023-0.002-2.049-0.004-3.074c1.215-0.24,1.193-1.172,1.088-2.346
		c0.553,0.752,0.914,1.277,0.908,2.035c-0.025,3.746-0.006,7.49-0.023,11.236c0,0.285,0.27,0.77-0.4,0.789
		c-0.664,0.018-0.434-0.453-0.436-0.752c-0.016-2.16-0.02-4.318-0.004-6.479C66.285,59.162,65.953,58.684,65.15,58.553z"/>
	<path fill="#0CABB9" d="M42.49,44.621c0.588,0.896,1.08,1.688,1.617,2.447c0.295,0.42,0.088,0.789-0.01,1.18
		c-0.434,1.729-0.436,1.703-2.152,1.732c-0.578,0.01-0.744-0.201-0.941-0.73c-0.473-1.266-0.354-2.334,0.584-3.328
		C41.92,45.57,42.146,45.125,42.49,44.621z"/>
	<path fill="#FDE3C1" d="M30.34,24.943c-1.803-0.428-3.191-2.236-3.127-4.014c0.043-1.219,1.396-2.072,2.57-1.637
		c0.193,0.072,0.207,0.197,0.217,0.355C30.113,21.408,30.227,23.168,30.34,24.943z"/>
	<path fill="#FCD0A3" d="M54.65,25.023c0.119-1.854,0.23-3.586,0.344-5.32c0.012-0.176-0.02-0.375,0.246-0.406
		c1.529-0.176,2.754,0.373,2.496,2.123C57.477,23.191,56.463,24.363,54.65,25.023z"/>
	<path fill="#FAFAFA" d="M18.723,53.162c0,4.516-0.004,9.029,0.008,13.545c0,0.377-0.115,0.484-0.486,0.49
		c-0.389,0.006-0.473-0.135-0.473-0.494c0.012-3.951,0.006-7.9,0.008-11.852C17.779,54.148,18.312,53.701,18.723,53.162z"/>
	<path fill="#0680AE" d="M21.098,65.162c1.445,0,2.893-0.018,4.338,0.008c0.504,0.01,0.664-0.156,0.67-0.662
		c0.012-0.922-0.135-1.85,0.09-2.764c0.006,1.631-0.002,3.264,0.029,4.895c0.008,0.475-0.193,0.557-0.604,0.551
		c-1.322-0.02-2.643-0.021-3.965,0c-0.416,0.006-0.631-0.084-0.594-0.553C21.102,66.148,21.086,65.654,21.098,65.162z"/>
	<path fill="#527882" d="M65.182,46.951c-0.244,0.527-0.779,0.654-1.215,0.902c-0.352,0.199-0.52-0.084-0.664-0.332
		c-0.482-0.828-0.943-1.668-1.438-2.49c-0.291-0.484-0.049-0.736,0.361-0.896c0.424-0.164,0.861-0.826,1.318-0.109
		c0.531,0.828,0.99,1.703,1.477,2.559C65.084,46.693,65.123,46.818,65.182,46.951z"/>
	<path fill="#527882" d="M21.859,43.725c0.402,0.131,0.875,0.336,1.188,0.703c0.291,0.346-0.078,0.674-0.246,0.979
		c-0.391,0.701-0.805,1.389-1.195,2.09c-0.455,0.814-0.896,0.199-1.344,0c-0.475-0.211-0.701-0.479-0.363-1.016
		c0.484-0.766,0.918-1.562,1.375-2.348C21.391,43.934,21.492,43.709,21.859,43.725z"/>
	<path fill="#DAE8ED" d="M47.689,49.836c-0.475,1.359-0.904,2.602-1.412,4.057c-0.193-1.301-0.646-2.354-0.303-3.494
		c0.08-0.271,0.139-0.484,0.512-0.309C46.875,50.273,47.221,49.992,47.689,49.836z"/>
	<path fill="#D9E7EC" d="M38.668,53.701c-0.479-1.361-0.885-2.518-1.318-3.756c0.279,0.074,0.496,0.115,0.699,0.189
		c0.268,0.102,0.605-0.32,0.764,0.012c0.182,0.383,0.318,0.824,0.244,1.277C38.943,52.107,38.824,52.787,38.668,53.701z"/>
	<path d="M42.424,78.131c-6.244,0-12.49,0-18.736,0c-0.234,0-0.473,0.018-0.703-0.01c-0.66-0.074-1.059-0.463-1.084-1.117
		c-0.027-0.66,0.361-1.066,1.004-1.191c0.252-0.051,0.518-0.023,0.779-0.023c12.518-0.002,25.035-0.002,37.553,0
		c0.285,0,0.586-0.027,0.854,0.047c0.59,0.164,0.934,0.562,0.889,1.205c-0.045,0.633-0.42,0.986-1.035,1.076
		c-0.229,0.035-0.467,0.014-0.701,0.014C54.969,78.131,48.697,78.131,42.424,78.131z"/>
	<path d="M44.689,23.613c0,0.365,0.012,0.729-0.002,1.094c-0.064,1.752-1.578,3.043-3.316,2.834
		c-0.629-0.076-1.006-0.436-1.051-1.057c-0.049-0.66,0.293-1.182,0.949-1.203c0.982-0.035,1.164-0.533,1.09-1.363
		c-0.049-0.543-0.033-1.094,0-1.639c0.041-0.709,0.566-1.195,1.209-1.17c0.615,0.023,1.082,0.5,1.117,1.176
		C44.709,22.729,44.689,23.17,44.689,23.613z"/>
</g>
</svg>
