<?xml version="1.0" encoding="utf-8"?>
<!-- Generator: Adobe Illustrator 16.0.0, SVG Export Plug-In . SVG Version: 6.00 Build 0)  -->
<!DOCTYPE svg PUBLIC "-//W3C//DTD SVG 1.1//EN" "http://www.w3.org/Graphics/SVG/1.1/DTD/svg11.dtd">
<svg version="1.1" id="Layer_1" xmlns="http://www.w3.org/2000/svg" xmlns:xlink="http://www.w3.org/1999/xlink" x="0px" y="0px"
	 width="85px" height="85px" viewBox="0 0 85 85" enable-background="new 0 0 85 85" xml:space="preserve">
<g>
	<g>
		<path fill="#FCE2D1" d="M32.144,30.68c0,3.061-2.484,5.542-5.545,5.542h-1.045c-3.064,0-5.545-2.481-5.545-5.542l0,0
			c0-3.062,2.48-5.545,5.545-5.545h1.045C29.659,25.136,32.144,27.619,32.144,30.68L32.144,30.68z M64.763,30.68
			c0,3.061-2.48,5.542-5.543,5.542h-1.047c-3.062,0-5.543-2.481-5.543-5.542l0,0c0-3.062,2.48-5.545,5.543-5.545h1.047
			C62.282,25.136,64.763,27.619,64.763,30.68L64.763,30.68z"/>
		<path fill="#010101" d="M59.22,37.336h-1.047c-3.67,0-6.656-2.985-6.656-6.655c0-3.672,2.986-6.658,6.656-6.658h1.047
			c3.67,0,6.656,2.986,6.656,6.658C65.876,34.35,62.89,37.336,59.22,37.336z M58.173,26.249c-2.443,0-4.43,1.987-4.43,4.432
			c0,2.442,1.986,4.429,4.43,4.429h1.047c2.443,0,4.43-1.985,4.43-4.429s-1.986-4.432-4.43-4.432H58.173z M26.599,37.336h-1.045
			c-3.672,0-6.658-2.985-6.658-6.655c0-3.672,2.986-6.658,6.658-6.658h1.045c3.672,0,6.658,2.986,6.658,6.658
			C33.255,34.35,30.271,37.336,26.599,37.336z M25.554,26.249c-2.443,0-4.432,1.987-4.432,4.432c0,2.442,1.988,4.429,4.432,4.429
			h1.045c2.443,0,4.432-1.985,4.432-4.429s-1.988-4.432-4.432-4.432H25.554z"/>
	</g>
	<g>
		<path fill="#E6829E" d="M81.378,78.952v2.428H3.62v-2.428c0-13.089,10.609-23.717,23.715-23.717h30.328
			C70.769,55.235,81.378,65.863,81.378,78.952z"/>
		<path fill="#010101" d="M81.378,82.492H3.62c-0.615,0-1.113-0.497-1.113-1.112v-2.429c0-6.629,2.582-12.861,7.27-17.553
			c4.689-4.691,10.926-7.275,17.559-7.275h30.328c6.633,0,12.869,2.584,17.561,7.275c4.688,4.69,7.27,10.924,7.27,17.553v2.429
			C82.491,81.995,81.993,82.492,81.378,82.492z M4.733,80.266h75.531v-1.313c0-6.034-2.35-11.71-6.617-15.979
			c-4.27-4.271-9.945-6.624-15.984-6.624H27.335c-6.039,0-11.715,2.354-15.984,6.624c-4.268,4.27-6.617,9.944-6.617,15.979V80.266
			L4.733,80.266z"/>
	</g>
	<g>
		<path fill="#FCE2D1" d="M50.448,57.586c0,0-3.205,4.699-7.951,4.699c-5.02,0-7.949-4.699-7.949-4.699V40.591h15.9V57.586
			L50.448,57.586z"/>
		<path fill="#010101" d="M42.497,63.397c-5.574,0-8.76-5.01-8.893-5.224c-0.111-0.177-0.168-0.381-0.168-0.589V40.59
			c0-0.615,0.498-1.113,1.111-1.113h15.9c0.615,0,1.113,0.498,1.113,1.113v16.995c0,0.225-0.066,0.441-0.193,0.628
			C51.224,58.426,47.771,63.397,42.497,63.397z M35.661,57.239c0.648,0.894,3.131,3.933,6.836,3.933
			c3.506,0,6.125-3.033,6.838-3.953V41.704H35.661V57.239z"/>
	</g>
	<g>
		<path fill="#FCE2D1" d="M58.7,22.097v12.235c0,8.937-7.264,16.199-16.203,16.199c-4.467,0-8.518-1.808-11.447-4.753
			c-2.945-2.929-4.752-6.979-4.752-11.446V22.097c0-8.954,7.264-16.201,16.199-16.201c4.469,0,8.52,1.808,11.449,4.737
			C56.892,13.579,58.7,17.629,58.7,22.097z"/>
		<path fill="#010101" d="M42.499,51.646c-4.633,0-8.979-1.805-12.236-5.082c-3.271-3.252-5.076-7.598-5.076-12.23V22.098
			c0-9.547,7.766-17.314,17.312-17.314c4.625,0,8.969,1.799,12.234,5.062c3.275,3.275,5.08,7.627,5.08,12.252v12.235
			C59.813,43.88,52.046,51.646,42.499,51.646z M42.499,7.01c-8.32,0-15.088,6.769-15.088,15.088v12.235
			c0,4.036,1.572,7.82,4.426,10.656c2.842,2.857,6.627,4.431,10.662,4.431c8.318,0,15.088-6.77,15.088-15.087V22.098
			c0-4.03-1.572-7.822-4.428-10.677C50.315,8.576,46.528,7.01,42.499,7.01z"/>
	</g>
	<g>
		<path fill="#848C9E" d="M21.888,25.77c0,0,0.049-3.562,0-4.748c-0.16-3.869,0.018-11.232,4.412-14.23
			c2.252-1.534,5.318,0.666,5.318,0.666s0.279-3.844,10.879-3.844c10.604,0,20.084,4.855,20.084,14.198v8.467
			c0,0-3.887-0.368-3.887,3.843h-2.182c0,0-0.625-11.263-1.881-11.891c0,0-12.973,3.128-21.131-1.365c0,0-1.988,2.202-5.021,2.202
			l-0.416,11.054H26.3C26.3,30.12,23.919,26.406,21.888,25.77L21.888,25.77z"/>
		<path fill="#010101" d="M58.696,31.233h-2.184c-0.59,0-1.076-0.462-1.109-1.052c-0.002-0.025-0.145-2.529-0.416-5.193
			c-0.352-3.392-0.691-4.873-0.895-5.502c-1.525,0.31-5.055,0.917-9.137,0.917c-4.5,0-8.287-0.735-11.273-2.189
			c-0.777,0.645-2.219,1.608-4.127,1.889l-0.381,10.062c-0.021,0.598-0.514,1.07-1.111,1.07H26.3c-0.295,0-0.578-0.118-0.787-0.326
			c-0.057-0.057-0.105-0.117-0.148-0.186c-0.84-1.306-2.619-3.517-3.809-3.89c-0.471-0.147-0.787-0.585-0.781-1.077
			c0-0.035,0.047-3.547,0.002-4.688c-0.123-2.924,0.053-5.521,0.52-7.719c0.742-3.485,2.213-6.001,4.377-7.478
			c0.719-0.488,1.551-0.736,2.471-0.736c1.133,0,2.207,0.387,2.975,0.757c0.289-0.401,0.711-0.844,1.334-1.272
			C34.491,3.214,37.872,2.5,42.497,2.5c5.654,0,10.844,1.341,14.623,3.773c4.301,2.773,6.576,6.764,6.576,11.539v8.467
			c0,0.313-0.133,0.612-0.365,0.824c-0.23,0.21-0.541,0.313-0.854,0.284c0.006,0.001-0.045-0.003-0.129-0.003
			c-2.1,0-2.539,1.487-2.539,2.736C59.81,30.734,59.312,31.233,58.696,31.233z M57.56,29.008h0.111
			c0.277-1.687,1.17-2.604,1.939-3.094c0.633-0.404,1.303-0.598,1.857-0.687v-7.416c0-5.03-3.02-8.034-5.557-9.667
			c-3.42-2.205-8.184-3.419-13.414-3.419c-4.863,0-7.297,0.834-8.482,1.534c-1.027,0.605-1.246,1.173-1.285,1.309
			c0.006,0.41-0.219,0.733-0.584,0.932c-0.375,0.201-0.83,0.109-1.176-0.139c-0.012-0.008-1.43-1-2.826-1
			c-0.473,0-0.869,0.114-1.217,0.351c-2.848,1.942-4.207,6.528-3.926,13.264c0.035,0.88,0.021,2.964,0.008,4.08
			c1.645,0.919,3.174,2.928,3.885,3.952h0.098l0.377-9.981c0.021-0.599,0.514-1.07,1.111-1.07c2.479,0,4.182-1.82,4.197-1.839
			c0.348-0.384,0.908-0.476,1.361-0.226c2.754,1.518,6.428,2.286,10.918,2.286c5.076,0,9.373-1.018,9.416-1.028
			c0.254-0.062,0.523-0.029,0.758,0.087c0.666,0.333,1.051,1.118,1.416,2.895c0.215,1.047,0.418,2.447,0.604,4.162
			C57.349,26.109,57.485,27.914,57.56,29.008z"/>
	</g>
	<g>
		<path fill="#A7DEF2" d="M35.874,32.314c2.059,0.204,4.326,0.344,6.691,0.344c8.938,0,16.135-2.546,16.135-2.546v4.221
			c0,8.937-7.264,16.2-16.203,16.2c-4.467,0-8.518-1.809-11.447-4.754c-2.945-2.929-4.752-6.979-4.752-11.446v-3.601
			c0.6,0.149,2.449,0.585,5.082,1.004"/>
		<path fill="#010101" d="M42.499,51.646c-4.633,0-8.979-1.805-12.236-5.082c-3.271-3.252-5.076-7.598-5.076-12.23v-3.601
			c0-0.343,0.156-0.666,0.428-0.877c0.27-0.211,0.623-0.286,0.955-0.203c0.494,0.123,2.314,0.56,4.988,0.984
			c0.607,0.097,1.021,0.667,0.924,1.274c-0.098,0.605-0.666,1.021-1.273,0.924c-1.58-0.251-2.877-0.507-3.795-0.704v2.201
			c0,4.035,1.572,7.82,4.424,10.656c2.844,2.857,6.627,4.431,10.662,4.431c8.32,0,15.088-6.77,15.088-15.087v-2.704
			c-2.592,0.753-8.295,2.144-15.021,2.144c-2.182,0-4.469-0.118-6.801-0.35c-0.611-0.062-1.059-0.605-0.998-1.218
			c0.061-0.611,0.605-1.06,1.219-0.998c2.26,0.225,4.473,0.339,6.58,0.339c8.646,0,15.693-2.457,15.764-2.482
			c0.34-0.12,0.719-0.066,1.014,0.142c0.297,0.209,0.473,0.548,0.473,0.908v4.221C59.813,43.88,52.046,51.646,42.499,51.646z"/>
	</g>
	<path fill="#010101" d="M67.325,82.5c-0.615,0-1.113-0.498-1.113-1.112V70.787c0-0.615,0.498-1.113,1.113-1.113
		s1.113,0.498,1.113,1.113v10.601C68.438,82.002,67.94,82.5,67.325,82.5z M17.673,82.5c-0.613,0-1.111-0.498-1.111-1.112V70.787
		c0-0.615,0.498-1.113,1.111-1.113c0.615,0,1.113,0.498,1.113,1.113v10.601C18.786,82.002,18.288,82.5,17.673,82.5z M42.878,44.547
		c-4.619,0-8-0.918-8.211-0.978c-0.592-0.164-0.938-0.776-0.773-1.37c0.166-0.592,0.777-0.938,1.371-0.773l0,0
		c0.072,0.02,7.354,1.982,14.9-0.004c0.594-0.157,1.203,0.198,1.361,0.793c0.156,0.595-0.199,1.203-0.793,1.359
		C47.964,44.304,45.257,44.547,42.878,44.547z M42.476,39.415c-2.033,0-3.852-0.128-5.385-0.304
		c-4.832-0.548-7.881-1.634-8.008-1.68c-0.58-0.208-0.879-0.847-0.67-1.425c0.207-0.578,0.846-0.878,1.424-0.67
		c0.066,0.022,3.014,1.06,7.578,1.569c4.219,0.474,10.732,0.581,17.797-1.587c0.588-0.181,1.211,0.149,1.393,0.737
		c0.18,0.588-0.15,1.211-0.738,1.391C50.976,38.949,46.341,39.415,42.476,39.415z M33.501,17.979c-0.25,0-0.502-0.084-0.709-0.256
		c-0.227-0.188-2.219-1.895-2.551-4.065c-0.092-0.606,0.326-1.176,0.934-1.269c0.607-0.092,1.176,0.325,1.27,0.934
		c0.174,1.14,1.365,2.353,1.77,2.687c0.473,0.393,0.539,1.095,0.146,1.568C34.14,17.843,33.821,17.979,33.501,17.979z"/>
</g>
</svg>
