<?xml version="1.0" encoding="utf-8"?>
<!-- Generator: Adobe Illustrator 16.0.0, SVG Export Plug-In . SVG Version: 6.00 Build 0)  -->
<!DOCTYPE svg PUBLIC "-//W3C//DTD SVG 1.1//EN" "http://www.w3.org/Graphics/SVG/1.1/DTD/svg11.dtd">
<svg version="1.1" id="Layer_1" xmlns="http://www.w3.org/2000/svg" xmlns:xlink="http://www.w3.org/1999/xlink" x="0px" y="0px"
	 width="85px" height="85px" viewBox="0 0 85 85" enable-background="new 0 0 85 85" xml:space="preserve">
<g>
	<path fill="#343F57" d="M82.5,41.418c-0.102,18.644-15.297,33.675-33.939,33.574c-18.643-0.102-33.674-15.296-33.572-33.94
		C15.09,22.411,30.283,7.379,48.926,7.48C67.568,7.579,82.602,22.775,82.5,41.418z"/>
	<path fill="#FFFFFF" d="M76.396,41.385C76.314,56.656,63.865,68.97,48.594,68.887c-15.27-0.082-27.586-12.528-27.502-27.801
		c0.082-15.271,12.529-27.584,27.803-27.502C64.164,13.667,76.479,26.113,76.396,41.385L76.396,41.385z"/>
	
		<path fill="none" stroke="#343F57" stroke-width="2.059" stroke-linecap="round" stroke-linejoin="round" stroke-miterlimit="10" d="
		M48.59,15.891l-0.027,5.072 M48.34,62.016l-0.027,5.072 M22.854,41.35l5.072,0.028 M68.979,41.601l5.07,0.028 M30.396,23.342
		l3.578,3.597 M62.928,56.039l3.578,3.598 M30.807,60.036l3.498-3.676 M62.6,26.616l3.496-3.675"/>
	<path fill="#414042" d="M49.65,40.836l-0.754-12.145l-0.805,12.137L49.65,40.836z"/>
	<path fill="#414042" d="M48.873,40.436l-19.279,0.716l19.271,0.843L48.873,40.436z"/>
	<path fill="#343F57" d="M50.801,44.476l-0.312,0.184L38.533,23.86l0.316-0.181L50.801,44.476z"/>
	<path fill="#414042" d="M50.492,41.222c-0.004,0.897-0.734,1.619-1.633,1.614c-0.895-0.003-1.617-0.734-1.611-1.631
		c0.004-0.895,0.734-1.616,1.631-1.612C49.773,39.598,50.496,40.328,50.492,41.222z"/>
	<g>
		<path fill="#343F57" d="M54.555,19.174v-8.062h18.768v7.723l-7.691,15.93H57.07l6.465-15.591H54.555L54.555,19.174z"/>
	</g>
	<g>
		
			<path fill="none" stroke="#FFFFFF" stroke-width="1.5724" stroke-linecap="round" stroke-linejoin="round" stroke-miterlimit="10" d="
			M54.555,19.174v-8.062h18.768v7.723l-7.691,15.93H57.07l6.465-15.591H54.555L54.555,19.174z"/>
	</g>
	<g>
		<path fill="#343F57" d="M2.961,77.519v-5.421l3.641-2.733c2.148-1.605,3.535-2.677,4.16-3.209
			c0.973-0.817,1.584-1.459,1.834-1.919c0.252-0.461,0.377-0.968,0.377-1.521c0-0.573-0.129-0.985-0.385-1.236
			s-0.711-0.376-1.365-0.376c-0.705,0-1.18,0.146-1.422,0.438c-0.238,0.292-0.359,0.812-0.359,1.559v1.645h-6.91
			C2.51,63.976,2.5,63.46,2.5,63.192c0-1.392,0.121-2.597,0.361-3.615s0.596-1.829,1.066-2.435c0.473-0.604,1.092-1.131,1.857-1.581
			c0.482-0.275,1.102-0.507,1.859-0.69c1.27-0.308,2.717-0.461,4.346-0.461c1.514,0,2.908,0.126,4.184,0.376
			c1.275,0.252,2.281,0.63,3.018,1.137s1.285,1.093,1.645,1.758c0.471,0.871,0.705,2.063,0.705,3.578c0,1.32-0.164,2.411-0.49,3.271
			c-0.328,0.86-0.867,1.699-1.619,2.52c-0.754,0.819-1.83,1.699-3.232,2.641c-1.004,0.666-2.283,1.383-3.84,2.15l8.553-0.478v6.158
			H2.961V77.519z M30.631,54.991h11.688v13.359h2.07v5.666h-2.07v3.501h-8.584v-3.501h-9.689v-7.34L30.631,54.991z M30.047,68.674
			h4.086l0.244-8.262l-0.537,1.167C33.082,63.177,31.818,65.541,30.047,68.674L30.047,68.674z"/>
	</g>
	<g>
		
			<path fill="none" stroke="#FFFFFF" stroke-width="1.5724" stroke-linecap="round" stroke-linejoin="round" stroke-miterlimit="10" d="
			M2.961,77.519v-5.421l3.641-2.733c2.148-1.605,3.535-2.677,4.16-3.209c0.973-0.817,1.584-1.459,1.834-1.919
			c0.252-0.461,0.377-0.968,0.377-1.521c0-0.573-0.129-0.985-0.385-1.236s-0.711-0.376-1.365-0.376c-0.705,0-1.18,0.146-1.422,0.438
			c-0.238,0.292-0.359,0.812-0.359,1.559v1.645h-6.91C2.51,63.976,2.5,63.46,2.5,63.192c0-1.392,0.121-2.597,0.361-3.615
			s0.596-1.829,1.066-2.435c0.473-0.604,1.092-1.131,1.857-1.581c0.482-0.276,1.102-0.507,1.859-0.69
			c1.27-0.308,2.717-0.461,4.346-0.461c1.514,0,2.908,0.126,4.184,0.376c1.275,0.251,2.281,0.63,3.018,1.137
			s1.285,1.093,1.645,1.758c0.471,0.871,0.705,2.063,0.705,3.578c0,1.32-0.164,2.411-0.49,3.271c-0.328,0.86-0.867,1.699-1.619,2.52
			c-0.754,0.817-1.83,1.699-3.232,2.641c-1.004,0.666-2.283,1.382-3.84,2.149l8.553-0.477v6.157L2.961,77.519L2.961,77.519
			L2.961,77.519z M30.631,54.991h11.688v13.359h2.07v5.666h-2.07v3.501h-8.584v-3.501h-9.689v-7.34L30.631,54.991z M30.047,68.674
			h4.086l0.244-8.261L33.84,61.58C33.082,63.177,31.818,65.541,30.047,68.674L30.047,68.674z"/>
	</g>
</g>
</svg>
