<?xml version="1.0" encoding="utf-8"?>
<!-- Generator: Adobe Illustrator 16.0.0, SVG Export Plug-In . SVG Version: 6.00 Build 0)  -->
<!DOCTYPE svg PUBLIC "-//W3C//DTD SVG 1.1//EN" "http://www.w3.org/Graphics/SVG/1.1/DTD/svg11.dtd">
<svg version="1.1" id="Layer_1" xmlns="http://www.w3.org/2000/svg" xmlns:xlink="http://www.w3.org/1999/xlink" x="0px" y="0px"
	 width="85px" height="85px" viewBox="0 0 85 85" enable-background="new 0 0 85 85" xml:space="preserve">
<g>
	<g enable-background="new    ">
		<path fill="#00AEEF" d="M3.02,55.375l7.17-0.61c0.533,3.485,1.765,6.115,3.696,7.869c1.931,1.754,4.273,2.642,7.003,2.642
			c3.286,0,6.071-1.243,8.347-3.718c2.275-2.476,3.418-5.771,3.418-9.867c0-3.896-1.099-6.971-3.285-9.224s-5.05-3.374-8.591-3.374
			c-2.198,0-4.185,0.499-5.96,1.498s-3.163,2.298-4.173,3.885L4.23,43.644l5.383-28.569h27.66v6.526H15.085l-2.997,14.95
			c3.341-2.33,6.837-3.485,10.511-3.485c4.861,0,8.957,1.688,12.287,5.051c3.341,3.363,5.006,7.691,5.006,12.975
			c0,5.028-1.465,9.379-4.396,13.053c-3.562,4.506-8.436,6.748-14.606,6.748c-5.061,0-9.19-1.42-12.387-4.251
			C5.307,63.811,3.475,60.059,3.02,55.375z"/>
	</g>
	<g enable-background="new    ">
		<path d="M20.89,71.367c-5.153,0-9.427-1.47-12.702-4.37c-3.279-2.903-5.177-6.798-5.641-11.576L2.5,54.942l8.093-0.689l0.067,0.44
			c0.515,3.366,1.708,5.92,3.545,7.589c1.84,1.671,4.089,2.518,6.684,2.518c3.131,0,5.822-1.199,7.997-3.564
			c2.185-2.377,3.293-5.589,3.293-9.545c0-3.746-1.06-6.738-3.151-8.893c-2.08-2.143-4.855-3.229-8.25-3.229
			c-2.105,0-4.032,0.483-5.727,1.438c-1.689,0.95-3.037,2.203-4.005,3.726l-0.163,0.255l-7.215-0.936l5.549-29.452h28.53v7.478
			H15.475l-2.696,13.448c3.116-1.948,6.414-2.935,9.82-2.935c4.967,0,9.214,1.747,12.625,5.191c3.413,3.436,5.144,7.913,5.144,13.31
			c0,5.115-1.514,9.606-4.499,13.35C32.234,69.036,27.194,71.367,20.89,71.367z M3.545,55.808c0.517,4.312,2.29,7.835,5.273,10.478
			c3.096,2.741,7.157,4.131,12.071,4.131c5.999,0,10.788-2.21,14.233-6.567c2.849-3.572,4.293-7.863,4.293-12.758
			c0-5.136-1.638-9.389-4.868-12.64c-3.226-3.258-7.246-4.909-11.949-4.909c-3.561,0-7.005,1.144-10.239,3.399l-0.971,0.678
			l3.306-16.494h22.102V15.55h-26.79L4.791,43.236l5.62,0.729c1.039-1.541,2.442-2.814,4.174-3.789
			c1.84-1.035,3.924-1.56,6.194-1.56c3.661,0,6.667,1.184,8.932,3.519c2.269,2.338,3.419,5.553,3.419,9.555
			c0,4.202-1.192,7.631-3.544,10.188c-2.362,2.569-5.288,3.872-8.697,3.872c-2.839,0-5.303-0.93-7.323-2.765
			c-1.921-1.745-3.19-4.337-3.775-7.71L3.545,55.808z"/>
	</g>
	<g enable-background="new    ">
		<path fill="#00AEEF" d="M45.763,42.522c0-6.57,0.678-11.865,2.031-15.872c1.354-4.007,3.363-7.104,6.027-9.279
			c2.664-2.175,6.026-3.263,10.067-3.263c2.985,0,5.604,0.6,7.857,1.798c2.254,1.199,4.107,2.931,5.572,5.194
			c1.465,2.265,2.619,5.018,3.452,8.27c0.832,3.252,1.254,7.636,1.254,13.142c0,6.525-0.666,11.787-2.009,15.805
			c-1.344,4.007-3.341,7.104-6.016,9.29c-2.664,2.187-6.038,3.285-10.111,3.285c-5.361,0-9.568-1.92-12.632-5.771
			C47.595,60.503,45.763,52.967,45.763,42.522z M52.777,42.522c0,9.135,1.066,15.206,3.208,18.225
			c2.143,3.02,4.772,4.528,7.914,4.528c3.141,0,5.771-1.521,7.913-4.551c2.143-3.029,3.208-9.101,3.208-18.213
			c0-9.157-1.065-15.239-3.208-18.247c-2.142-3.009-4.795-4.518-7.979-4.518c-3.142,0-5.639,1.332-7.515,3.984
			C53.954,27.128,52.777,33.388,52.777,42.522z"/>
	</g>
	<g enable-background="new    ">
		<path d="M63.889,71.367c-5.488,0-9.863-2.002-13.004-5.951c-3.714-4.682-5.598-12.385-5.598-22.894
			c0-6.596,0.692-11.987,2.057-16.024c1.378-4.079,3.456-7.273,6.177-9.495c2.738-2.236,6.227-3.37,10.368-3.37
			c3.05,0,5.769,0.624,8.081,1.854c2.31,1.229,4.243,3.031,5.748,5.356c1.494,2.309,2.676,5.138,3.513,8.409
			c0.843,3.29,1.27,7.751,1.27,13.26c0,6.55-0.685,11.919-2.033,15.955c-1.369,4.084-3.443,7.282-6.166,9.508
			C71.558,70.226,68.055,71.367,63.889,71.367z M63.889,14.584c-3.917,0-7.202,1.062-9.767,3.156
			c-2.579,2.106-4.557,5.155-5.877,9.062c-1.331,3.939-2.007,9.228-2.007,15.72c0,10.289,1.814,17.793,5.392,22.302
			c2.951,3.711,7.075,5.592,12.259,5.592c3.94,0,7.24-1.068,9.809-3.177c2.583-2.111,4.557-5.164,5.867-9.074
			c1.316-3.939,1.984-9.206,1.984-15.653c0-5.43-0.417-9.812-1.239-13.024c-0.812-3.171-1.953-5.905-3.391-8.128
			c-1.416-2.188-3.231-3.881-5.396-5.033C69.35,15.17,66.781,14.584,63.889,14.584z M63.899,65.751
			c-3.282,0-6.075-1.591-8.302-4.729c-2.218-3.125-3.296-9.177-3.296-18.5c0-9.322,1.187-15.558,3.626-19.062
			c1.966-2.78,4.625-4.188,7.905-4.188c3.323,0,6.139,1.587,8.367,4.717c2.218,3.114,3.296,9.173,3.296,18.523
			c0,9.304-1.077,15.352-3.295,18.488C69.973,64.152,67.179,65.751,63.899,65.751z M63.833,20.223c-2.995,0-5.326,1.237-7.126,3.783
			c-2.291,3.291-3.453,9.521-3.453,18.517c0,8.992,1.049,15.032,3.119,17.949c2.067,2.913,4.528,4.328,7.526,4.328
			c2.994,0,5.456-1.423,7.525-4.35c2.07-2.929,3.12-8.965,3.12-17.938c0-9.019-1.05-15.065-3.119-17.972
			C69.356,21.635,66.873,20.223,63.833,20.223z"/>
	</g>
</g>
</svg>
