<?xml version="1.0" encoding="utf-8"?>
<!-- Generator: Adobe Illustrator 16.0.0, SVG Export Plug-In . SVG Version: 6.00 Build 0)  -->
<!DOCTYPE svg PUBLIC "-//W3C//DTD SVG 1.1//EN" "http://www.w3.org/Graphics/SVG/1.1/DTD/svg11.dtd">
<svg version="1.1" id="Layer_1" xmlns="http://www.w3.org/2000/svg" xmlns:xlink="http://www.w3.org/1999/xlink" x="0px" y="0px"
	 width="85px" height="85px" viewBox="0 0 85 85" enable-background="new 0 0 85 85" xml:space="preserve">
<g>
	<path fill="#174DA1" d="M63.013,3.432c-0.066-0.545-0.506-0.986-1.107-0.926c-3.092,0.301-12.227,0.566-19.406,0.627
		c-7.18,0.059-16.312-0.334-19.407-0.627c-0.593-0.061-1.04,0.381-1.106,0.926c-0.514,4.193-0.286,18.535-0.286,18.535
		s0.021,19.826,0.021,26.959c0,7.135,1.319,31.295,1.319,31.295c4.414,3.1,12.554,1.867,14.747-0.1c0,0,1.033-21.154,1.307-29.348
		c0.334-10.121,1.973-23.854,2.16-24.762c0.152-0.779,0.732-1.006,1.248-1.006c0.514,0,1.092,0.227,1.246,1.006
		c0.182,0.908,1.82,14.641,2.16,24.762c0.273,8.193,1.307,29.348,1.307,29.348c2.193,1.967,10.334,3.199,14.748,0.1
		c0,0,1.318-24.154,1.318-31.293c0-7.135,0.021-26.961,0.021-26.961S63.526,7.633,63.013,3.432L63.013,3.432z"/>
	
		<radialGradient id="SVGID_1_" cx="-333.5659" cy="-328.0781" r="1.0325" gradientTransform="matrix(6.25 0 0 6.25 2142.0156 2064.5938)" gradientUnits="userSpaceOnUse">
		<stop  offset="0" style="stop-color:#1976D2"/>
		<stop  offset="0.949" style="stop-color:#1976D2;stop-opacity:0.051"/>
		<stop  offset="1" style="stop-color:#1976D2;stop-opacity:0"/>
	</radialGradient>
	<path fill="url(#SVGID_1_)" d="M60.767,15.859c-0.826,0.045-2.668-0.221-4.641-2.074c-2.268-2.127-2.107-5.246-2.107-5.246
		l0.535-0.168c0.006,0.025,0.484,2.967,2.586,4.934c2.334,2.186,4.354,1.893,4.381,1.887c0,0,0.506-0.074,0.84-0.232
		C62.692,14.799,62.272,15.779,60.767,15.859z"/>
	
		<radialGradient id="SVGID_2_" cx="-356.0469" cy="-328.0781" r="1.0315" gradientTransform="matrix(-6.25 0 0 6.25 -2197.4922 2064.5938)" gradientUnits="userSpaceOnUse">
		<stop  offset="0" style="stop-color:#1976D2"/>
		<stop  offset="0.949" style="stop-color:#1976D2;stop-opacity:0.051"/>
		<stop  offset="1" style="stop-color:#1976D2;stop-opacity:0"/>
	</radialGradient>
	<path fill="url(#SVGID_2_)" d="M24.272,15.859c0.826,0.045,2.666-0.221,4.64-2.074c2.267-2.127,2.106-5.246,2.106-5.246
		l-0.533-0.168c-0.008,0.025-0.487,2.967-2.588,4.934c-2.332,2.186-4.353,1.893-4.379,1.887c0,0-0.508-0.074-0.84-0.232
		C22.339,14.805,22.765,15.779,24.272,15.859z"/>
	<path fill="#10356E" d="M42.065,9.186c-11.359,0-20.312-1.812-20.312-1.812l0.02-0.754c0,0,9.101,1.301,20.293,1.301
		c11.229,0,20.021-1.354,21.148-1.527l0.025,0.787C63.153,7.186,53.405,9.186,42.065,9.186z"/>
	
		<radialGradient id="SVGID_3_" cx="-336.519" cy="-341.3799" r="1.1942" gradientTransform="matrix(5.9006 -2.0606 3.4437 9.86 3223.272 2680.7754)" gradientUnits="userSpaceOnUse">
		<stop  offset="0.5" style="stop-color:#10356E;stop-opacity:0"/>
		<stop  offset="0.91" style="stop-color:#10356E"/>
	</radialGradient>
	<path fill="url(#SVGID_3_)" d="M62.839,13.984l0.4-6.979l-8.641,1.152c0,0,0.447,3.693,3.1,5.641
		c0.602,0.439,1.268,0.793,1.906,1.072C61.032,15.484,62.714,15.525,62.839,13.984z"/>
	
		<radialGradient id="SVGID_4_" cx="-376.1899" cy="-340.8179" r="1.1972" gradientTransform="matrix(-5.9006 -2.0606 -3.4437 9.86 -3370.4282 2593.4941)" gradientUnits="userSpaceOnUse">
		<stop  offset="0.5" style="stop-color:#10356E;stop-opacity:0"/>
		<stop  offset="0.91" style="stop-color:#10356E"/>
	</radialGradient>
	<path fill="url(#SVGID_4_)" d="M22.159,13.984l-0.4-6.979l8.641,1.152c0,0-0.446,3.693-3.101,5.641
		c-0.6,0.439-1.267,0.793-1.907,1.072C23.966,15.484,22.278,15.525,22.159,13.984z"/>
	<path fill="#10356E" d="M45.56,4.785c0.113,0.008,0.227,0.02,0.312,0.088c0.072,0.053,0.113,0.139,0.152,0.227
		c0.074,0.172,0.121,0.346,0.146,0.533c0.008,0.047,0.014,0.092-0.014,0.133c-0.025,0.039-0.08,0.053-0.127,0.066
		c-0.973,0.248-1.979,0.393-2.979,0.434c-0.127,0.006-0.262,0.006-0.359-0.066c-0.094-0.074-0.135-0.193-0.154-0.307
		C42.233,4.205,44.519,4.713,45.56,4.785z"/>
	
		<linearGradient id="SVGID_5_" gradientUnits="userSpaceOnUse" x1="-335.9663" y1="-329.4023" x2="-335.9219" y2="-327.3672" gradientTransform="matrix(6.25 0 0 6.25 2142.0156 2064.5938)">
		<stop  offset="0" style="stop-color:#1976D2"/>
		<stop  offset="0.949" style="stop-color:#1976D2;stop-opacity:0.051"/>
		<stop  offset="1" style="stop-color:#1976D2;stop-opacity:0"/>
	</linearGradient>
	<path fill="url(#SVGID_5_)" d="M39.491,18.332c-0.127-1.26-0.271-12.746-0.207-13.539c0.094-1.148,0.334-1.574,1.033-1.66
		C41.87,2.945,42.618,3,43.37,2.979C43.679,3,44.937,3.092,45.212,3.064c-5.381,0.527-4.842,0.607-4.781,4.367
		c0.053,3.141,0.053,10.787,0.094,13.168C40.538,21.059,39.726,20.686,39.491,18.332z"/>
	<circle fill="#94D1E0" cx="42.714" cy="5.659" r="1.452"/>
	
		<radialGradient id="SVGID_6_" cx="-338.8716" cy="-311.0088" r="1.0987" gradientTransform="matrix(6.4044 0.5163 -1.2462 15.4575 1813.0515 5019.3457)" gradientUnits="userSpaceOnUse">
		<stop  offset="0" style="stop-color:#BBDEFB;stop-opacity:0.3"/>
		<stop  offset="1" style="stop-color:#BBDEFB;stop-opacity:0"/>
	</radialGradient>
	<path fill="url(#SVGID_6_)" d="M37.278,37.525c-0.779,9.693-4.5,17.309-8.299,17c-3.801-0.307-6.254-8.412-5.467-18.111
		c0.779-9.695,4.5-17.309,8.299-17C35.612,19.719,38.06,27.832,37.278,37.525z"/>
	
		<radialGradient id="SVGID_7_" cx="-296.5957" cy="-314.4521" r="1.0986" gradientTransform="matrix(-6.4044 0.5163 1.2462 15.4575 -1453.0203 5050.7363)" gradientUnits="userSpaceOnUse">
		<stop  offset="0" style="stop-color:#BBDEFB;stop-opacity:0.3"/>
		<stop  offset="1" style="stop-color:#BBDEFB;stop-opacity:0"/>
	</radialGradient>
	<path fill="url(#SVGID_7_)" d="M47.72,37.525c0.779,9.693,4.5,17.309,8.299,17c3.801-0.307,6.254-8.412,5.467-18.111
		c-0.779-9.695-4.5-17.309-8.299-17C49.386,19.727,46.938,27.832,47.72,37.525z"/>
	
		<linearGradient id="SVGID_8_" gradientUnits="userSpaceOnUse" x1="-333.4531" y1="-327.4497" x2="-334.8751" y2="-326.9263" gradientTransform="matrix(6.25 0 0 6.25 2142.0156 2064.5938)">
		<stop  offset="0" style="stop-color:#10356E;stop-opacity:0"/>
		<stop  offset="1" style="stop-color:#10356E"/>
	</linearGradient>
	<path fill="url(#SVGID_8_)" d="M47.071,21.965c0,0,2.027-1.879,5.268-2.92c3.434-1.1,5.873-0.859,5.873-0.859
		s-2.238,1.6-5.125,2.693C50.198,21.984,47.071,21.965,47.071,21.965z"/>
	
		<linearGradient id="SVGID_9_" gradientUnits="userSpaceOnUse" x1="-338.3105" y1="-328.8823" x2="-336.9478" y2="-328.3984" gradientTransform="matrix(6.2081 0.7223 -0.7223 6.2081 1890.5718 2302.6777)">
		<stop  offset="0" style="stop-color:#10356E;stop-opacity:0"/>
		<stop  offset="1" style="stop-color:#10356E"/>
	</linearGradient>
	<path fill="url(#SVGID_9_)" d="M33.151,20.105c-2.807-1.266-4.512-3.232-4.512-3.232s1.926,0.168,4.772,1.52
		c2.847,1.354,4.633,3.32,4.92,3.58C38.14,21.818,35.959,21.373,33.151,20.105z"/>
	
		<linearGradient id="SVGID_10_" gradientUnits="userSpaceOnUse" x1="-338.9785" y1="-324.9902" x2="-337.201" y2="-324.1608" gradientTransform="matrix(6.1797 -0.935 0.935 6.1797 2420.8857 1711.312)">
		<stop  offset="0" style="stop-color:#10356E;stop-opacity:0"/>
		<stop  offset="1" style="stop-color:#10356E"/>
	</linearGradient>
	<path fill="url(#SVGID_10_)" d="M28.979,23.592c-3.233-1.061-4.961-4.799-5.101-4.895c3.78,2.574,8.08,4.068,12.587,4.82
		C36.466,23.52,32.799,24.846,28.979,23.592L28.979,23.592z"/>
	<path fill="#10356E" d="M41.946,20.68c-0.348,0.193-0.674,0.086-0.254-0.314c0.426-0.398,1.666-1.785,1.961-2.191
		c0.299-0.408,0.354-1.113,0.354-1.994V8.428h1.006v7.746c0,1.088,0.188,2.146-0.752,2.867
		C43.532,19.592,42.292,20.479,41.946,20.68z"/>
	<path fill="#10356E" d="M29.886,77.748c-3.207,0-7.033-1.068-7.033-1.068l-0.015-1.193c0,0,3.914,0.748,6.827,0.707
		c3.5-0.053,8.32-0.859,8.32-0.859l-0.014,1.113C37.966,76.453,33.146,77.748,29.886,77.748z"/>
	<path fill="#64B5F6" d="M38.427,80.793c0,0.301-0.201,0.561-0.494,0.627c-1.267,0.307-4.787,1.08-8.053,1.08
		c-3.207,0-6.167-0.746-7.287-1.061c-0.277-0.078-0.472-0.33-0.473-0.619V77.02c0-0.439,0.293-0.779,0.707-0.646
		c1.24,0.406,3.859,0.961,6.773,0.92c3.5-0.053,6.02-0.412,8.373-1.072c0.387-0.107,0.447,0.254,0.447,0.652v3.92H38.427
		L38.427,80.793z"/>
	<path fill="#10356E" d="M55.087,77.748c3.205,0,7.031-1.068,7.031-1.068l0.016-1.193c0,0-3.914,0.748-6.828,0.707
		c-3.5-0.053-8.32-0.859-8.32-0.859l0.016,1.113C46.999,76.453,51.819,77.748,55.087,77.748L55.087,77.748z"/>
	<path fill="#64B5F6" d="M46.538,80.793c0,0.301,0.201,0.561,0.494,0.627c1.268,0.307,4.787,1.08,8.055,1.08
		c3.205,0,6.166-0.746,7.285-1.061c0.279-0.08,0.475-0.334,0.475-0.619V77.02c0-0.439-0.293-0.779-0.707-0.646
		c-1.24,0.406-3.859,0.961-6.773,0.92c-3.5-0.053-6.02-0.412-8.373-1.072c-0.387-0.107-0.445,0.254-0.445,0.652v3.92H46.538
		L46.538,80.793z"/>
</g>
</svg>
