<?xml version="1.0" encoding="utf-8"?>
<!-- Generator: Adobe Illustrator 16.0.2, SVG Export Plug-In . SVG Version: 6.00 Build 0)  -->
<!DOCTYPE svg PUBLIC "-//W3C//DTD SVG 1.1//EN" "http://www.w3.org/Graphics/SVG/1.1/DTD/svg11.dtd">
<svg version="1.1" id="Layer_1" xmlns="http://www.w3.org/2000/svg" xmlns:xlink="http://www.w3.org/1999/xlink" x="0px" y="0px"
	 width="85px" height="85px" viewBox="0 0 85 85" enable-background="new 0 0 85 85" xml:space="preserve">
<g>
	<g>
		<g>
			<rect x="9.374" y="55.313" fill="#E1CBA8" width="40.771" height="27.188"/>
		</g>
		<g>
			<rect x="49.417" y="55.313" fill="#CFAF88" width="26.209" height="27.188"/>
		</g>
		<g>
			<rect x="9.374" y="67.188" fill="#D9C4AE" width="66.221" height="3.441"/>
		</g>
		<g>
			<rect x="9.374" y="67.188" fill="#FFF2E4" width="39.979" height="3.441"/>
		</g>
		<g>
			<rect x="27.644" y="55.313" fill="#FFF2E4" width="3.439" height="27.188"/>
		</g>
		<g>
			<g>
				<g>
					<path fill="#6D5142" d="M64.196,77.178L64.194,77h-0.088l0.002,0.178c-1.217,0.035-1.371,1.277-1.371,1.277
						s0.627-0.152,0.854,0.189c0,0,0.225-0.135,0.523-0.164l0.006,1.389c0,0,0.01,0.219-0.004,0.273
						c-0.021,0.086-0.107,0.055-0.117-0.023c-0.008-0.064-0.061-0.066-0.072-0.016c-0.01,0.049,0.043,0.188,0.164,0.172
						s0.117-0.119,0.117-0.119v-0.289l-0.006-1.391c0.178-0.006,0.379,0.033,0.568,0.162c0,0,0.521-0.359,0.838-0.139
						C65.608,78.5,65.503,77.201,64.196,77.178z"/>
				</g>
				<g>
					<path fill="#6D5142" d="M65.065,76.514l-1.803,0.008c-0.674,0.002-1.219,0.553-1.215,1.227l0.008,1.801
						c0.004,0.674,0.555,1.219,1.227,1.217l1.803-0.01c0.672-0.002,1.217-0.553,1.215-1.225l-0.008-1.803
						C66.288,77.055,65.737,76.51,65.065,76.514z M65.979,79.531c0.002,0.496-0.4,0.902-0.896,0.904l-1.803,0.008
						c-0.496,0.002-0.9-0.4-0.904-0.896l-0.008-1.803c-0.002-0.496,0.4-0.9,0.896-0.904l1.803-0.008
						c0.496-0.002,0.9,0.4,0.902,0.896L65.979,79.531z"/>
				</g>
			</g>
			<g>
				<g>
					<polygon fill="#6D5142" points="58.341,79.59 58.563,79.588 58.556,78.148 58.956,78.148 58.44,77.264 57.935,78.152 
						58.333,78.15 					"/>
				</g>
				<g>
					
						<rect x="57.929" y="79.816" transform="matrix(-1 0.0046 -0.0046 -1 118.7531 159.5799)" fill="#6D5142" width="2.525" height="0.223"/>
				</g>
				<g>
					<polygon fill="#6D5142" points="59.454,78.146 59.854,78.145 59.86,79.582 60.083,79.582 60.077,78.143 60.478,78.141 
						59.962,77.258 					"/>
				</g>
				<g>
					<path fill="#6D5142" d="M60.101,76.514l-1.805,0.008c-0.672,0.002-1.217,0.553-1.215,1.227l0.008,1.801
						c0.004,0.674,0.555,1.219,1.229,1.217l1.801-0.01c0.674-0.002,1.219-0.553,1.215-1.225l-0.008-1.803
						C61.321,77.055,60.772,76.51,60.101,76.514z M61.013,79.531c0.002,0.496-0.398,0.902-0.896,0.904l-1.801,0.008
						c-0.496,0.002-0.902-0.4-0.904-0.896l-0.008-1.803c-0.002-0.496,0.398-0.9,0.895-0.904l1.803-0.008
						c0.496-0.002,0.902,0.4,0.904,0.896L61.013,79.531z"/>
				</g>
			</g>
			<g>
				<g>
					<path fill="#6D5142" d="M54.694,77.219H54.2h-0.006h-0.066l0.152,0.447l0.146-0.082l0.162,0.689l-0.229-0.541l-0.121,0.066
						l-0.219-0.58H53.7c0,0-0.393,0.783-0.283,1.283c0.092,0.434,0.609,0.439,0.748,0.436v1.094
						c-0.199,0.012-0.42,0.084-0.545,0.131c-0.023,0.01-0.018,0.043,0.008,0.043h1.16c0.023,0,0.031-0.033,0.008-0.043
						c-0.123-0.049-0.348-0.127-0.553-0.133v-1.092c0.158,0.004,0.645-0.018,0.734-0.436C55.085,78.004,54.694,77.219,54.694,77.219
						z"/>
				</g>
				<g>
					<path fill="#6D5142" d="M55.099,76.518h-1.803c-0.674,0-1.221,0.547-1.221,1.221v1.801c0,0.674,0.547,1.221,1.221,1.221h1.803
						c0.674,0,1.221-0.547,1.221-1.221v-1.801C56.319,77.064,55.772,76.518,55.099,76.518z M55.999,79.539
						c0,0.496-0.404,0.9-0.9,0.9h-1.803c-0.496,0-0.898-0.404-0.898-0.9v-1.803c0-0.496,0.402-0.9,0.898-0.9h1.803
						c0.496,0,0.9,0.404,0.9,0.9V79.539z"/>
				</g>
			</g>
		</g>
		<g>
			<rect x="12.388" y="57.998" fill="#CFB594" width="10.467" height="6.1"/>
		</g>
		<g>
			<rect x="12.388" y="57.723" fill="#FFFFFF" width="10.266" height="6.16"/>
		</g>
		<g>
			<rect x="13.29" y="60.514" fill="#806E63" width="6.354" height="0.363"/>
		</g>
		<g>
			<rect x="13.29" y="59.678" fill="#806E63" width="6.354" height="0.365"/>
		</g>
		<g>
			<rect x="13.29" y="62.324" fill="#C2BFBF" width="8.494" height="0.77"/>
		</g>
		<g>
			<rect x="13.29" y="58.73" fill="#F8AFB0" width="6.42" height="0.291"/>
		</g>
	</g>
	<g>
		<g>
			<path fill="#E37E2D" d="M63.278,39.096c2.928,1.014,6.617,0.945,7.824,1.686c1.207,0.738,3.357,2.535,1.582,4.682
				c-1.529,1.854-2.725-1.73-2.725-1.73s-3.492-1.525-7.639-0.279L63.278,39.096z"/>
		</g>
		<g>
			<g>
				<path fill="#E37E2D" d="M31.726,33.123c-7.234,5.822-8.75,1.264-9.773,0.346s-2.088-1.85-3.385-2.309
					c-1.295-0.457-2.895-0.336-3.844,0.656c-0.375,0.389-0.633,0.926-0.564,1.459c0.068,0.535,0.535,1.03,1.074,1.01
					c0.547-0.021,1.031-0.524,1.564-0.408c0.234,0.05,0.426,0.213,0.6,0.377c1.125,1.063,1.951,2.395,2.92,3.599
					c0.971,1.206,2.164,2.331,3.658,2.724c2.303,0.605,7.16-0.977,9.193-2.219L31.726,33.123z"/>
			</g>
		</g>
		<g>
			<g>
				<path fill="#F8993A" d="M33.112,36.912c-2.953,8.803-6.689,5.783-8.045,5.563c-1.357-0.221-2.756-0.432-4.096-0.117
					c-1.338,0.313-2.617,1.277-2.883,2.625c-0.104,0.529-0.035,1.119,0.313,1.533c0.348,0.412,1.006,0.576,1.449,0.27
					c0.449-0.311,0.586-0.996,1.098-1.188c0.225-0.084,0.473-0.051,0.709-0.006c1.52,0.287,2.934,0.965,4.398,1.455
					c1.467,0.492,3.078,0.795,4.551,0.32c2.266-0.732,6.293-5.471,7.334-7.611L33.112,36.912z"/>
			</g>
		</g>
		<g>
			<path fill="#F8993A" d="M63.456,50.246c-1.539,0.309-5.883,0.447-9.342-0.85c-2.264-0.85-4.059-3.615-4.059-3.615
				s-2.391,1.521-6.086,2.174s-6.521-0.217-6.521-0.217c-6.828-1.172-13.664-7.908-11.52-18.692l9.998-0.218
				c0,0,4.564,2.391,11.521,0.652c6.955-1.74,10.869-1.088,15.215,2.607c4.348,3.695-1.932,12.102,1.088,13.477
				c2.818,1.285,6.498,1.566,7.629,2.416c1.133,0.85,3.105,2.842,1.133,4.813c-1.697,1.699-2.547-1.98-2.547-1.98
				S67.7,49.398,63.456,50.246z"/>
		</g>
		<g>
			<path fill="#F8993A" d="M63.456,50.246c-1.539,0.309-5.883,0.447-9.342-0.85c-2.264-0.85-4.059-3.615-4.059-3.615
				s-2.391,1.521-6.086,2.174s-6.521-0.217-6.521-0.217c-6.828-1.172-13.664-7.908-11.52-18.692l9.998-0.218
				c0,0,4.564,2.391,11.521,0.652c6.955-1.74,10.869-1.088,15.215,2.607c4.348,3.695-1.932,12.102,1.088,13.477
				c2.818,1.285,6.498,1.566,7.629,2.416c1.133,0.85,3.105,2.842,1.133,4.813c-1.697,1.699-2.547-1.98-2.547-1.98
				S67.7,49.398,63.456,50.246z"/>
		</g>
		<g>
			<g>
				<path fill="#E37E2D" d="M37.015,29.263c-1.438-0.358-1.086-0.435-1.086-0.435l-10,0.218c-0.232,0.757-0.258,1.54-0.402,2.235
					c0.779,0.432,1.93,0.89,4.1,1.024C33.103,32.523,35.712,31.437,37.015,29.263z"/>
			</g>
		</g>
		<g>
			<g>
				<path fill="#F8993A" d="M58.53,31.396c0,0,5.033,2.574,8.604-2.978c3.789-5.895-1.549-10.707-7.131-12.57
					s-4.982-7.766,2.547-4.736c7.529,3.03,12.504,10.543,8.059,18.637c-4.08,7.43-12.033,4.125-12.033,4.125L58.53,31.396z"/>
			</g>
		</g>
		<g>
			<g>
				<path fill="#F8993A" d="M36.304,12.4c1.158-1.63,2.686-2.996,4.434-3.969c1.057-0.588,2.387-1.025,3.439-0.427
					c0.135,3.963-1.859,9.521-5.08,13.483L36.304,12.4z"/>
			</g>
		</g>
		<g>
			<g>
				<path fill="#F9D6AF" d="M44.177,8.005c-0.006-0.003-0.012-0.007-0.018-0.009c-1.518-0.059-3.5,3.195-4.551,5.299l0.314,6.229
					c0.156-0.189,1.727-1.213,2.234-2.736C43.919,13.576,44.261,10.511,44.177,8.005z"/>
			</g>
		</g>
		<g>
			<g>
				<path fill="#F8993A" d="M22.085,16.984C21.159,11.882,22.103,5.961,24.161,2.5c1.227-0.018,2.199,1.021,2.852,2.063
					c1.08,1.721,1.771,3.684,2.006,5.7L22.085,16.984z"/>
			</g>
		</g>
		<g>
			<g>
				<path fill="#F9D6AF" d="M24.161,2.5c0.006,0,0.012,0,0.018,0c1.219,0.83,1.553,4.556,1.461,6.941l-3.328,5.391
					c-0.047-0.245-0.943-1.924-0.65-3.528C21.663,7.584,22.858,4.688,24.161,2.5z"/>
			</g>
		</g>
		<g>
			<g>
				<path fill="#F8993A" d="M33.204,8.726c-5.756-1.799-10.098-0.735-12.639,3.979c-2.033,3.775-6.08,13.875,6.373,17.347
					c11.619,3.239,13.984-4.56,14.803-9.931C42.476,15.299,40.897,11.129,33.204,8.726z"/>
			</g>
		</g>
		<g>
			<g>
				<path fill="#FCB866" d="M30.61,18.525c-4.416-1.558-8.117,6.666-3.189,8.695C32.351,29.25,35.536,20.265,30.61,18.525z"/>
			</g>
		</g>
		<g>
			<g>
				<g>
					
						<rect x="29.017" y="22.352" transform="matrix(0.9654 0.2608 -0.2608 0.9654 7.1551 -6.806)" fill="#202020" width="0.401" height="2.401"/>
				</g>
			</g>
			<g>
				<g>
					<path fill="#202020" d="M26.634,22.857c0.119,0.227,0.271,0.426,0.441,0.602c0.168,0.179,0.359,0.33,0.559,0.465
						c0.406,0.262,0.854,0.445,1.324,0.568s0.953,0.18,1.436,0.148c0.238-0.021,0.479-0.061,0.713-0.134
						c0.234-0.07,0.465-0.171,0.678-0.312c-0.154,0.209-0.373,0.364-0.602,0.492c-0.232,0.123-0.486,0.211-0.748,0.264
						c-0.523,0.098-1.068,0.062-1.576-0.072c-0.51-0.131-1.002-0.365-1.414-0.705C27.243,24,27.065,23.8,26.921,23.578
						C26.784,23.355,26.669,23.113,26.634,22.857z"/>
				</g>
			</g>
			<g>
				<g>
					<g>
						<path fill="#DA5D46" d="M29.884,21.123c0,0-0.889-1.338-1.729-0.885c-0.922,0.498,0.52,2.104,1.449,2.321
							c0.842,0.197,2.797-0.662,2.238-1.438C31.37,20.461,29.884,21.123,29.884,21.123z"/>
					</g>
				</g>
				<g>
					<g>
						<path fill="#ED9E7E" d="M28.478,20.512c-0.541,0.16,0.543,1.418,0.889,1.143C29.712,21.38,28.97,20.367,28.478,20.512z"/>
					</g>
				</g>
			</g>
		</g>
		<g>
			<path fill="#E37E2D" d="M48.739,46.473c0.615-0.283,1.031-0.52,1.213-0.625c-1.234-2.102-1.879-5.033,0.994-10.781
				C50.946,35.066,46.433,39.154,48.739,46.473z"/>
		</g>
		<g>
			<g>
				<path fill="#202020" d="M22.669,16.221c0.176-0.256,0.398-0.479,0.639-0.682c0.242-0.199,0.51-0.375,0.805-0.506
					c0.146-0.066,0.301-0.119,0.459-0.16s0.322-0.065,0.488-0.072c0.33-0.02,0.668,0.041,0.977,0.16
					c0.156,0.062,0.303,0.142,0.445,0.232c0.137,0.096,0.266,0.201,0.381,0.32c0.113,0.121,0.215,0.25,0.305,0.387
					c0.088,0.137,0.162,0.281,0.229,0.428c0.248,0.594,0.338,1.23,0.275,1.849c-0.053-0.306-0.121-0.603-0.213-0.89
					c-0.09-0.287-0.205-0.563-0.346-0.82c-0.279-0.514-0.695-0.936-1.221-1.135c-0.131-0.051-0.266-0.092-0.402-0.115
					c-0.068-0.016-0.139-0.021-0.209-0.031c-0.07-0.003-0.141-0.01-0.211-0.008c-0.281-0.002-0.566,0.055-0.844,0.146
					s-0.549,0.219-0.807,0.373C23.157,15.85,22.909,16.025,22.669,16.221z"/>
			</g>
		</g>
		<g>
			<g>
				<path fill="#202020" d="M33.077,19.451c0.133-0.28,0.314-0.537,0.518-0.774c0.209-0.235,0.445-0.452,0.715-0.628
					c0.133-0.09,0.277-0.166,0.428-0.23c0.148-0.066,0.307-0.115,0.469-0.15c0.324-0.071,0.668-0.066,0.992,0.003
					c0.162,0.034,0.322,0.09,0.475,0.157c0.15,0.072,0.295,0.156,0.428,0.256c0.131,0.102,0.254,0.212,0.361,0.332
					c0.109,0.121,0.207,0.252,0.293,0.388c0.34,0.545,0.531,1.16,0.568,1.778c-0.1-0.291-0.215-0.574-0.354-0.842
					c-0.133-0.271-0.293-0.523-0.473-0.756c-0.355-0.463-0.834-0.811-1.385-0.924c-0.137-0.029-0.277-0.049-0.418-0.05
					c-0.07-0.005-0.139,0.001-0.209,0.003c-0.07,0.008-0.141,0.014-0.209,0.025c-0.279,0.045-0.551,0.146-0.811,0.279
					c-0.258,0.137-0.506,0.303-0.736,0.498C33.499,19.007,33.282,19.221,33.077,19.451z"/>
			</g>
		</g>
		<g>
			<g>
				<path fill="#FFFFFF" d="M32.878,22.637c0.48-0.316,1.035-0.525,1.607-0.621c0.574-0.098,1.164-0.084,1.734,0.025
					c0.572,0.111,1.125,0.32,1.619,0.625c0.496,0.302,0.932,0.703,1.258,1.177c-0.371-0.438-0.82-0.8-1.314-1.079
					c-0.496-0.277-1.033-0.475-1.59-0.581c-0.555-0.108-1.127-0.128-1.691-0.056C33.94,22.201,33.388,22.369,32.878,22.637z"/>
			</g>
		</g>
		<g>
			<g>
				<path fill="#FFFFFF" d="M33.247,23.387c0.506-0.094,1.031-0.094,1.543-0.007c0.512,0.084,1.01,0.251,1.475,0.485
					c0.463,0.236,0.893,0.541,1.264,0.904c0.371,0.362,0.682,0.787,0.906,1.25c-0.273-0.436-0.607-0.826-0.984-1.167
					c-0.377-0.339-0.799-0.629-1.25-0.856C35.296,23.535,34.272,23.314,33.247,23.387z"/>
			</g>
		</g>
		<g>
			<g>
				<path fill="#FFFFFF" d="M32.823,23.996c0.432,0.057,0.854,0.209,1.229,0.437c0.381,0.226,0.717,0.522,0.996,0.864
					c0.277,0.343,0.498,0.732,0.641,1.15c0.145,0.416,0.209,0.859,0.176,1.293c-0.025-0.435-0.123-0.857-0.281-1.254
					c-0.16-0.397-0.379-0.77-0.646-1.1c-0.27-0.332-0.588-0.622-0.943-0.859C33.636,24.291,33.243,24.107,32.823,23.996z"/>
			</g>
		</g>
		<g>
			<g>
				<g>
					<path fill="#FFFFFF" d="M26.362,21.195c-0.281-0.502-0.654-0.941-1.084-1.311c-0.434-0.367-0.924-0.663-1.449-0.873
						c-0.525-0.213-1.084-0.341-1.65-0.377c-0.564-0.034-1.141,0.023-1.689,0.189c0.531-0.22,1.115-0.319,1.695-0.303
						c0.582,0.014,1.158,0.139,1.697,0.355c0.539,0.22,1.043,0.529,1.471,0.924C25.78,20.191,26.132,20.67,26.362,21.195z"/>
				</g>
			</g>
			<g>
				<g>
					<path fill="#FFFFFF" d="M25.647,21.625c-0.822-0.618-1.803-0.99-2.811-1.096c-0.502-0.055-1.014-0.041-1.516,0.039
						c-0.5,0.082-0.994,0.229-1.459,0.445c0.438-0.268,0.93-0.454,1.438-0.557c0.51-0.104,1.035-0.125,1.553-0.071
						c0.518,0.056,1.025,0.187,1.502,0.396C24.831,20.986,25.272,21.272,25.647,21.625z"/>
				</g>
			</g>
			<g>
				<g>
					<path fill="#FFFFFF" d="M25.671,22.367c-0.414-0.135-0.844-0.194-1.271-0.19c-0.428,0.006-0.854,0.077-1.258,0.209
						c-0.406,0.13-0.793,0.323-1.143,0.569c-0.348,0.248-0.662,0.549-0.918,0.899c0.209-0.382,0.502-0.721,0.852-0.991
						c0.346-0.271,0.744-0.479,1.164-0.615c0.42-0.135,0.863-0.202,1.305-0.186C24.839,22.078,25.276,22.18,25.671,22.367z"/>
				</g>
			</g>
		</g>
		<g>
			<g>
				<path fill="#E37E2D" d="M23.989,12.931c0.492-0.958,2.914-2.103,2.984-0.776C27.017,12.961,23.974,12.961,23.989,12.931z"/>
			</g>
		</g>
		<g>
			<g>
				<path fill="#E37E2D" d="M38.511,16.531c-0.051-1.076-1.781-3.123-2.395-1.943C35.743,15.304,38.513,16.564,38.511,16.531z"/>
			</g>
		</g>
		<g>
			<path fill="#E37E2D" d="M32.741,46c0.426,0.248,0.859,0.477,1.303,0.676c4.502-5.486,4.219-9.166,4.219-9.166
				C37.276,41.457,33.655,45.123,32.741,46z"/>
		</g>
		<g>
			<path fill="#E37E2D" d="M28.267,41.91c0.211,0.295,0.432,0.582,0.66,0.857l0.25,0.078c0,0,3.992-3.922,4.559-7.884
				C33.735,34.961,30.909,40.139,28.267,41.91z"/>
		</g>
	</g>
</g>
</svg>
