<?xml version="1.0" encoding="utf-8"?>
<!-- Generator: Adobe Illustrator 16.0.0, SVG Export Plug-In . SVG Version: 6.00 Build 0)  -->
<!DOCTYPE svg PUBLIC "-//W3C//DTD SVG 1.1//EN" "http://www.w3.org/Graphics/SVG/1.1/DTD/svg11.dtd">
<svg version="1.1" id="Layer_1" xmlns="http://www.w3.org/2000/svg" xmlns:xlink="http://www.w3.org/1999/xlink" x="0px" y="0px"
	 width="85px" height="85px" viewBox="0 0 85 85" enable-background="new 0 0 85 85" xml:space="preserve">
<g>
	<path fill="#F7CBA4" d="M54.089,21.787c0.353-0.326,0.82-0.497,1.3-0.476c0.614-0.02,1.19,0.3,1.498,0.832
		c0.509,0.883,0.487,2.51,0.146,3.517c-0.242,0.713-0.639,1.804-1.595,2.585c-0.425,0.354-0.979,0.514-1.527,0.441l-0.146-0.025
		c-0.145,0.486-0.32,0.963-0.526,1.427c-0.411,1.117-2.795,5.198-5.738,6.424v1.292c0,0,0,0.142,0,0.339
		c-1.398,1.104-4.166,3.28-4.435,3.471h-0.818c-0.263-0.187-2.932-2.286-4.353-3.407v-0.326c0,0,0-0.772,0-1.305
		c-1.438-0.568-2.705-1.589-3.903-3.024c-1.189-1.437-2.072-3.102-2.594-4.893c-0.585,0.124-1.195-0.028-1.653-0.414
		c-0.956-0.782-1.353-1.873-1.594-2.585c-0.342-1.007-0.363-2.634,0.146-3.517c0.308-0.532,0.884-0.853,1.499-0.833
		c0.479-0.021,0.947,0.15,1.299,0.476c0,0-2.534-10.993,11.497-10.993S54.089,21.787,54.089,21.787z"/>
	<path fill="#703E41" d="M54.916,8.837c0.173,0.204,0.349,0.425,0.531,0.665c1.118,1.463,1.525,3.238,1.514,5.101
		c-0.012,1.772,0.031,3.152-0.302,4.7c0,0-0.263,1.143-0.5,2.177c-0.243-0.105-0.506-0.163-0.771-0.167
		c-0.479-0.021-0.947,0.15-1.3,0.476l-0.153-0.239l-0.387-1.661c-0.165-0.709-0.171-1.413-0.303-2.211
		c-0.479-2.837-2.886-4.447-4.344-5.009l-2.395-0.555c-2.691-0.073-4.343,0.551-6.773,1.942c-3.082,1.761-4.725,3.109-7.797,4.623
		c-0.18,0.835-0.325,1.678-0.434,2.527l-0.411,0.583c-0.352-0.326-0.82-0.497-1.299-0.476c-0.165,0.005-0.329,0.028-0.489,0.068
		c-0.334-0.913-0.676-1.846-0.676-1.846c-0.954-3.087-0.617-6.245,0.336-8.015c1.392-3.121,4.636-6.938,10.711-8.178
		c1.831-0.342,3.71-0.33,5.538,0.037c2.122,0.504,3.477,1.206,4.014,2.354l2.175,1.027C52.982,7.014,53.888,7.621,54.916,8.837z"/>
	<path fill="#FFFFFF" d="M42.396,59.213c-1.614-3.127-2.029-4.158-3.29-7.2c-1.698-4.095-3.014-7.197-4.222-11.403
		c0.037-0.368,0.182-0.718,0.417-1.004c0.525-0.607,1.186-1.486,1.722-2.086c0.227,0.185,4.873,3.847,5.225,4.097h0.818
		c0.354-0.25,4.997-3.912,5.226-4.097c0.536,0.6,1.197,1.479,1.722,2.086c0.232,0.282,0.377,0.626,0.415,0.99
		c-1.181,3.866-2.591,7.659-4.222,11.358c-1.06,2.479-2.248,4.903-3.56,7.259"/>
	<path fill="#211715" d="M31.521,21.359c-0.774-0.69-1.887-0.846-2.821-0.395c-0.648,0.35-1.107,0.971-1.25,1.693
		c-0.421,1.671,0.007,3.592,0.968,5.008c0.704,1.038,1.711,1.78,3.014,1.605c0.321-0.091,0.509-0.423,0.423-0.745
		c-0.096-0.317-0.423-0.502-0.745-0.423c-0.886,0.12-1.572-0.848-1.93-1.521c-0.367-0.667-0.591-1.404-0.659-2.163
		c-0.047-0.673,0.001-1.611,0.376-2.099c-0.042,0.055,0.082-0.088,0.097-0.103c0.035-0.043,0.078-0.079,0.126-0.104
		c0.134-0.086,0.284-0.145,0.44-0.172c0.391-0.087,0.799,0.015,1.104,0.274C31.242,22.735,32.102,21.882,31.521,21.359
		L31.521,21.359z"/>
	<path fill="#211715" d="M54.517,22.215c0.532-0.446,1.321-0.39,1.784,0.126c-0.086-0.106,0.028,0.05,0.043,0.072
		c0.034,0.054,0.065,0.111,0.094,0.168c0.075,0.183,0.131,0.373,0.165,0.567c0.076,0.419,0.096,0.846,0.058,1.27
		c-0.066,0.744-0.283,1.466-0.638,2.124c-0.357,0.684-1.05,1.681-1.951,1.56c-0.32-0.077-0.646,0.108-0.744,0.423
		c-0.088,0.322,0.101,0.656,0.422,0.747c2.114,0.285,3.344-1.776,3.891-3.524c0.263-0.89,0.317-1.828,0.161-2.743
		c-0.082-0.753-0.47-1.439-1.073-1.897c-0.963-0.616-2.218-0.513-3.067,0.252C53.08,21.882,53.938,22.736,54.517,22.215
		L54.517,22.215z"/>
	<path fill="#211715" d="M53.397,27.658c-0.191,0.812-0.453,1.605-0.782,2.371c-0.027,0.07,0.054-0.122,0.021-0.05
		c-0.011,0.022-0.02,0.046-0.03,0.068c-0.021,0.043-0.04,0.086-0.06,0.129c-0.058,0.121-0.118,0.24-0.18,0.358
		c-0.141,0.267-0.291,0.528-0.447,0.786c-0.812,1.384-1.851,2.623-3.073,3.663c-0.664,0.573-1.453,0.985-2.304,1.203
		c-0.759,0.176-0.438,1.343,0.321,1.167c1.748-0.404,3.204-1.679,4.346-3.006c0.985-1.107,1.808-2.35,2.441-3.689
		c0.039-0.086,0.076-0.174,0.112-0.262c0.017-0.039,0.088-0.207,0.019-0.048c0.097-0.222,0.191-0.444,0.276-0.67
		c0.212-0.552,0.381-1.12,0.506-1.698c0.08-0.321-0.105-0.649-0.423-0.745C53.819,27.149,53.488,27.337,53.397,27.658L53.397,27.658
		z"/>
	<path fill="#211715" d="M30.584,27.938c0.382,1.7,1.069,3.317,2.027,4.773c1.042,1.568,2.41,3.036,4.068,3.96
		c0.848,0.474,1.775,0.791,2.736,0.935c0.321,0.078,0.647-0.107,0.745-0.423c0.086-0.322-0.102-0.654-0.423-0.745
		c-3.396-0.502-5.93-3.435-7.226-6.45c-0.325-0.766-0.579-1.559-0.76-2.371c-0.172-0.759-1.34-0.438-1.167,0.322V27.938z"/>
	<path fill="#211715" d="M33.803,22.497c0.006-0.606,0.435-1.125,1.029-1.246c0.801-0.217,1.625-0.339,2.455-0.363
		c0.863-0.049,1.729,0.032,2.567,0.241c0.649,0.177,0.807,0.79,0.858,1.39c0.109,1.288-0.088,2.704-1.296,3.412
		c-1.15,0.674-2.699,0.689-3.919,0.196c-0.619-0.23-1.104-0.722-1.325-1.344c-0.286-0.726-0.412-1.505-0.37-2.284
		c0.044-0.779-1.167-0.776-1.21,0c-0.092,1.639,0.437,3.695,1.979,4.524c1.626,0.839,3.551,0.872,5.206,0.088
		c0.812-0.389,1.451-1.063,1.796-1.894c0.314-0.816,0.438-1.693,0.361-2.564c-0.064-0.965-0.3-1.916-1.183-2.451
		c-0.422-0.219-0.882-0.354-1.355-0.396c-1.681-0.258-3.398-0.147-5.032,0.324c-1.114,0.362-1.679,1.23-1.771,2.371
		c0.003,0.333,0.272,0.603,0.605,0.605C33.53,23.099,33.798,22.83,33.803,22.497z"/>
	<path fill="#211715" d="M52.751,22.497c-0.075-0.922-0.459-1.797-1.344-2.201c-0.911-0.417-2.016-0.535-3.006-0.602
		c-1.065-0.081-2.138,0.005-3.178,0.252c-0.936,0.248-1.623,1.043-1.734,2.004c-0.27,1.745-0.003,3.708,1.51,4.814
		c1.415,1.034,3.519,1.155,5.127,0.543c0.917-0.299,1.666-0.97,2.064-1.848c0.417-0.931,0.609-1.946,0.562-2.964
		c-0.044-0.775-1.255-0.78-1.211,0c0.034,0.684-0.059,1.368-0.275,2.018c-0.146,0.587-0.513,1.096-1.024,1.418
		c-1.207,0.639-2.634,0.714-3.901,0.206c-0.594-0.225-1.085-0.658-1.382-1.219c-0.269-0.598-0.389-1.252-0.352-1.907
		c0.009-0.599,0.016-1.369,0.561-1.746c0.307-0.161,0.645-0.255,0.99-0.277c0.419-0.066,0.842-0.103,1.267-0.107
		c0.938-0.015,1.875,0.084,2.789,0.295c0.358,0.081,0.769,0.171,1.021,0.463c0.19,0.246,0.298,0.546,0.308,0.857
		c0.008,0.331,0.274,0.597,0.605,0.605C52.48,23.1,52.749,22.83,52.751,22.497z"/>
	<path fill="#211715" d="M41.495,22.977c0.114-0.028,0.227-0.054,0.342-0.074c0.049-0.009,0.099-0.017,0.148-0.025
		c0.166-0.026-0.129,0.011,0.037-0.004c0.215-0.022,0.431-0.032,0.647-0.03c0.1,0.002,0.199,0.007,0.299,0.014
		c0.059,0.004,0.116,0.01,0.174,0.016c0.025,0.003,0.051,0.006,0.076,0.009c-0.079-0.011-0.083-0.011-0.013,0
		c0.214,0.036,0.426,0.083,0.635,0.141c0.322,0.089,0.656-0.101,0.745-0.423c0.089-0.323-0.101-0.656-0.423-0.745
		c-0.976-0.276-2.005-0.292-2.988-0.046c-0.32,0.091-0.508,0.422-0.423,0.744c0.094,0.318,0.423,0.505,0.745,0.423H41.495z"/>
	<path fill="#211715" d="M52.63,22.695c0.161-0.037,0.319-0.082,0.482-0.104l-0.16,0.022c0.017-0.002,0.033-0.005,0.05-0.006
		c0.331-0.009,0.597-0.275,0.605-0.605l-0.021-0.161c-0.028-0.101-0.082-0.193-0.155-0.267l-0.123-0.095
		c-0.093-0.054-0.198-0.083-0.306-0.083c-0.146,0.015-0.292,0.039-0.436,0.07c-0.086,0.02-0.172,0.043-0.259,0.062
		c-0.149,0.048-0.276,0.146-0.361,0.277c-0.044,0.067-0.069,0.145-0.072,0.225c-0.018,0.08-0.015,0.164,0.011,0.241l0.062,0.145
		c0.053,0.09,0.127,0.165,0.217,0.217l0.145,0.061C52.413,22.723,52.524,22.723,52.63,22.695L52.63,22.695z"/>
	<path fill="#211715" d="M32.997,21.529c-0.107-0.025-0.212-0.052-0.319-0.076c-0.165-0.036-0.331-0.063-0.499-0.081
		c-0.159,0.006-0.311,0.068-0.429,0.176c-0.107,0.118-0.17,0.27-0.176,0.429l0.021,0.161c0.028,0.101,0.082,0.193,0.156,0.267
		l0.123,0.095c0.093,0.054,0.198,0.083,0.305,0.083c0.021,0.002,0.042,0.005,0.062,0.008l-0.161-0.022
		c0.202,0.028,0.396,0.083,0.594,0.129c0.078,0.025,0.162,0.029,0.242,0.01c0.08-0.003,0.158-0.028,0.225-0.071
		c0.131-0.085,0.229-0.213,0.277-0.362l0.021-0.161c0-0.107-0.028-0.213-0.083-0.305c-0.081-0.136-0.21-0.235-0.362-0.278
		L32.997,21.529z"/>
	<path fill="#211715" d="M46.511,11.841c-1.093-0.038-2.186,0.069-3.249,0.318c-1.024,0.273-2.015,0.661-2.952,1.157
		c-1.98,1.004-3.833,2.226-5.75,3.343c-1.115,0.651-2.262,1.246-3.437,1.783c-0.287,0.17-0.383,0.539-0.217,0.828
		c0.174,0.282,0.539,0.377,0.828,0.217c1.928-0.919,3.8-1.951,5.606-3.091c1.821-1.106,3.702-2.319,5.758-2.937
		c1.108-0.316,2.261-0.454,3.413-0.408C47.29,13.069,47.289,11.858,46.511,11.841z"/>
	<path fill="#211715" d="M31.25,19.017c-0.143,0.725-0.256,1.455-0.352,2.187c-0.001,0.161,0.062,0.315,0.176,0.429
		c0.237,0.237,0.62,0.237,0.856,0c0.105-0.119,0.167-0.27,0.176-0.429c0.007-0.052,0.014-0.104,0.021-0.156l-0.022,0.161
		c0.084-0.626,0.188-1.249,0.31-1.87c0.039-0.157,0.017-0.324-0.061-0.466c-0.168-0.289-0.539-0.386-0.828-0.218
		c-0.136,0.08-0.236,0.21-0.278,0.362H31.25z"/>
	<path fill="#211715" d="M52.801,19.339c0.122,0.62,0.225,1.243,0.31,1.869l-0.022-0.161c0.008,0.052,0.015,0.104,0.021,0.156
		c0.005,0.16,0.067,0.312,0.176,0.429c0.236,0.237,0.62,0.237,0.856,0c0.116-0.112,0.18-0.267,0.177-0.429
		c-0.096-0.732-0.21-1.463-0.352-2.187c-0.091-0.321-0.423-0.509-0.745-0.422c-0.316,0.096-0.503,0.423-0.423,0.745H52.801z"/>
	<path fill="#211715" d="M48.743,13.562c0.06,0.023,0.12,0.046,0.18,0.07c0.039,0.016,0.035,0.014-0.011-0.005
		c0.037,0.016,0.073,0.032,0.11,0.048c0.114,0.053,0.229,0.106,0.341,0.164c0.258,0.132,0.508,0.278,0.75,0.438
		c0.535,0.352,1.018,0.779,1.433,1.268c0.438,0.514,0.767,1.111,0.966,1.755c0.272,0.894,0.244,1.841,0.454,2.75
		c0.177,0.759,1.344,0.438,1.168-0.322c-0.224-0.966-0.186-1.975-0.51-2.921c-0.271-0.776-0.685-1.495-1.221-2.117
		c-0.901-1.034-2.05-1.823-3.338-2.293c-0.322-0.086-0.653,0.102-0.745,0.423C48.239,13.139,48.426,13.468,48.743,13.562
		L48.743,13.562z"/>
	<path fill="#211715" d="M51.239,7.343c0.75,0.101,1.466,0.373,2.093,0.796c0.64,0.495,1.198,1.086,1.656,1.752
		c0.58,0.796,0.982,1.707,1.179,2.672c0.219,1.024,0.189,2.064,0.184,3.105c0.026,1.164-0.066,2.328-0.275,3.473
		c-0.159,0.76,1.008,1.084,1.168,0.322c0.217-1.121,0.322-2.26,0.315-3.401c0.055-1.174-0.001-2.351-0.165-3.515
		c-0.181-1.073-0.582-2.098-1.179-3.008c-0.531-0.823-1.183-1.561-1.935-2.189c-0.789-0.62-1.727-1.025-2.72-1.174
		c-0.321-0.078-0.647,0.107-0.744,0.423C50.729,6.92,50.918,7.252,51.239,7.343L51.239,7.343z"/>
	<path fill="#211715" d="M49.749,5.427c-0.417-0.863-1.221-1.466-2.072-1.863C46.588,3.067,45.429,2.742,44.24,2.6
		c-4.729-0.533-9.447,1.08-12.86,4.396c-1.208,1.219-2.198,2.637-2.926,4.191c-1.267,2.642-1.251,5.734-0.41,8.509
		c0.226,0.744,1.395,0.426,1.167-0.322c-0.683-2.25-0.851-4.899,0.066-7.115c0.592-1.424,1.422-2.736,2.456-3.881
		c2.893-3.121,7.002-4.826,11.255-4.667c1.244,0.042,2.474,0.285,3.642,0.718c0.874,0.326,1.682,0.8,2.072,1.608
		c0.171,0.286,0.539,0.383,0.828,0.217C49.814,6.081,49.91,5.715,49.749,5.427L49.749,5.427z"/>
	<path fill="#211715" d="M42.144,26.146c0.104,0.375,0.187,0.755,0.249,1.14l-0.021-0.161c0.007,0.052,0.009,0.105,0.004,0.157
		l0.022-0.161c-0.003,0.024-0.009,0.048-0.018,0.071l0.061-0.145c-0.007,0.016-0.015,0.031-0.025,0.046l0.095-0.123
		c-0.011,0.014-0.024,0.026-0.038,0.037l0.123-0.095c-0.028,0.018-0.059,0.034-0.09,0.048L42.65,26.9
		c-0.049,0.021-0.1,0.036-0.151,0.044l0.16-0.021c-0.047,0.005-0.095,0.005-0.143,0l0.161,0.021
		c-0.054-0.008-0.106-0.021-0.16-0.028c-0.079-0.025-0.162-0.029-0.242-0.011c-0.08,0.003-0.158,0.028-0.225,0.072
		c-0.289,0.169-0.386,0.54-0.217,0.828c0.078,0.138,0.208,0.238,0.362,0.277c0.125,0.017,0.245,0.048,0.372,0.054
		c0.191,0.001,0.38-0.044,0.55-0.131c0.219-0.099,0.382-0.292,0.442-0.524c0.039-0.187,0.037-0.379-0.006-0.564
		c-0.062-0.367-0.146-0.731-0.241-1.091c-0.089-0.323-0.422-0.512-0.744-0.423C42.246,25.492,42.056,25.825,42.144,26.146
		L42.144,26.146z"/>
	<path fill="#211715" d="M36.364,22.912c-0.19,0.619-0.066,2.043,1.105,2.164c1.55-0.009,1.632-1.73,1.11-2.54
		C38.153,21.874,36.897,21.598,36.364,22.912z"/>
	<path fill="#211715" d="M48.818,22.912c0.19,0.619,0.066,2.043-1.106,2.164c-1.549-0.009-1.631-1.73-1.109-2.54
		C47.029,21.874,48.284,21.598,48.818,22.912z"/>
	<path fill="#211715" d="M40.591,31.606c0.687,0.213,1.404,0.314,2.122,0.298c0.743,0.031,1.483-0.104,2.168-0.396
		c0.287-0.17,0.384-0.539,0.217-0.828c-0.174-0.282-0.538-0.377-0.828-0.217c-0.004,0.001-0.054,0.023-0.054,0.025l-0.02,0.008
		c0.105-0.044,0.136-0.057,0.09-0.038c-0.049,0.014-0.096,0.036-0.144,0.05c-0.117,0.037-0.235,0.068-0.355,0.092
		c-0.084,0.018-0.168,0.029-0.252,0.044c-0.069,0.013,0.099-0.01-0.021,0.002c-0.057,0.006-0.113,0.012-0.17,0.017
		c-0.234,0.021-0.47,0.028-0.706,0.027c-0.23,0-0.46-0.01-0.689-0.03c-0.046-0.004-0.092-0.009-0.138-0.014
		c-0.062-0.006-0.107-0.014-0.019,0c-0.083-0.012-0.166-0.025-0.248-0.041c-0.214-0.042-0.425-0.099-0.632-0.168
		c-0.322-0.086-0.654,0.102-0.745,0.423c-0.081,0.321,0.105,0.649,0.423,0.745H40.591z"/>
	<path fill="#211715" d="M46.201,30.432c0.102,0.269,0.202,0.538,0.282,0.814c0.044,0.151,0.144,0.28,0.277,0.361
		c0.067,0.044,0.146,0.069,0.226,0.072c0.08,0.018,0.163,0.014,0.241-0.011c0.151-0.042,0.281-0.142,0.361-0.277
		c0.08-0.142,0.103-0.309,0.062-0.466c-0.08-0.276-0.181-0.545-0.282-0.814c-0.018-0.077-0.055-0.148-0.108-0.206
		c-0.042-0.065-0.101-0.119-0.17-0.156c-0.067-0.044-0.145-0.068-0.225-0.072c-0.08-0.019-0.164-0.015-0.241,0.011
		c-0.152,0.042-0.282,0.142-0.362,0.277C46.178,30.106,46.156,30.275,46.201,30.432L46.201,30.432z"/>
	<path fill="#211715" d="M70.39,55.949c-0.105-2.063-0.226-4.126-0.346-6.188c-0.163-2.794-0.33-5.588-0.5-8.382
		c-0.163-2.676-0.329-5.352-0.497-8.027c-0.065-1.032-0.132-2.064-0.198-3.097c-0.061-0.918-0.094-1.847-0.23-2.758
		c-0.465-3.093-2.568-5.764-5.609-6.659c-0.47-0.133-0.946-0.242-1.428-0.325c-0.32-0.08-0.647,0.106-0.744,0.423
		c-0.086,0.322,0.103,0.653,0.423,0.745c0.828,0.12,1.636,0.354,2.398,0.698c0.57,0.279,1.1,0.635,1.571,1.06
		c1.053,0.977,1.78,2.254,2.084,3.657c0.179,0.949,0.281,1.91,0.306,2.875c0.063,0.966,0.125,1.933,0.187,2.9
		c0.164,2.582,0.324,5.165,0.48,7.747c0.17,2.78,0.337,5.562,0.501,8.343c0.126,2.146,0.252,4.294,0.363,6.441
		c0.01,0.183,0.019,0.364,0.028,0.547C69.218,56.726,70.429,56.73,70.39,55.949L70.39,55.949z"/>
	<path fill="#3D8DCC" d="M42.396,59.213c-1.286-2.494-1.812-3.655-2.612-5.567c0.406-3.329,0.79-6.313,0.79-6.432
		c-0.011-0.275-0.053-0.549-0.126-0.814c-0.03-0.121-0.058-0.242-0.083-0.366c-0.133-0.605-0.159-0.915-0.315-1.556
		c0,0-0.002-0.013-0.007-0.036c0.749-1.009,1.654-2.206,2.205-2.825h0.818c0.549,0.617,1.445,1.802,2.191,2.807l-0.072,0.194
		c-0.161,0.404-0.289,0.821-0.384,1.246c-0.168,0.464-0.27,0.95-0.303,1.442c-0.002,0.195,0.407,3.084,0.892,6.49
		c-0.82,1.799-1.511,3.137-2.743,5.418"/>
	<path fill="#645D5C" d="M42.396,59.213c-1.614-3.127-2.029-4.158-3.29-7.2c-1.759-4.241-3.107-7.417-4.349-11.857
		c-0.512,0.132-2.393,0.617-3.081,0.804c-5.238,1.415-8.81,3.662-10.605,5.978c-0.129,0.166-0.25,0.333-0.361,0.502
		c-1.521,2.295-2.676,6.586-3.332,9.259c0,0-1.626,6.054-2.141,8.331c-0.469,2.086-0.845,4.349-0.114,6.354
		c0.018,0.047,0.035,0.095,0.055,0.143h55.11c-0.588-3.571-1.029-7.897-1.686-12.337c-0.547-3.697-1.965-8.028-3.377-10.177
		l-1.097-1.445c-1.607-2.532-5.336-5.062-11.048-6.606c-0.535-0.146-1.79-0.472-2.562-0.671c-1.198,3.974-2.639,7.869-4.312,11.666
		c-1.061,2.479-2.248,4.903-3.56,7.259"/>
	<path fill="#A98A75" d="M34.016,80.475c-0.109-0.105-0.173-0.249-0.179-0.401l0.419-2.517c0.303-0.948,3.369-1.353,8.244-1.353
		c4.857,0,7.961,0.517,8.244,1.353l0.419,2.517c0,1.066-3.422,1.813-8.663,1.813C38.111,81.887,34.803,81.327,34.016,80.475z"/>
	<path fill="#211715" d="M34.444,80.047c-0.068-0.083-0.054,0.31-0.012,0.119c0.017-0.074,0.025-0.151,0.038-0.228l0.125-0.748
		c0.078-0.468,0.173-0.936,0.234-1.405c0.009-0.03,0.015-0.062,0.02-0.092c0.002,0.039-0.07,0.142-0.017,0.05
		c0.064-0.11-0.071,0.048-0.013,0.012c0.027-0.021,0.052-0.047,0.074-0.074c0.076-0.094-0.091,0.052-0.007,0.003
		c0.076-0.044,0.146-0.094,0.224-0.134c0.043-0.022,0.088-0.042,0.132-0.062c0.061-0.028-0.04,0.018-0.042,0.018
		c0.029-0.011,0.058-0.022,0.087-0.033c0.111-0.04,0.223-0.077,0.336-0.111c0.271-0.077,0.547-0.141,0.825-0.19
		c1.661-0.307,3.44-0.339,5.153-0.357c1.979-0.049,3.958,0.032,5.927,0.243c0.612,0.067,1.218,0.182,1.812,0.343
		c0.108,0.03,0.217,0.063,0.323,0.101c0.053,0.019,0.104,0.038,0.155,0.058c0.082,0.03-0.098-0.045-0.021-0.011
		c0.024,0.012,0.05,0.022,0.075,0.035c0.074,0.037,0.146,0.075,0.217,0.117c0.02,0.011,0.135,0.096,0.047,0.027
		c-0.088-0.067,0.02,0.028,0.04,0.041c0.072,0.045,0.036,0.042-0.018-0.032c0.017,0.022,0.03,0.047,0.043,0.072
		c-0.02-0.041-0.03-0.143-0.029-0.034c0.017,0.186,0.047,0.369,0.091,0.55l0.266,1.596l0.039,0.235
		c0.025,0.151-0.009-0.012-0.01-0.043c0,0.024,0.036-0.165,0-0.051c-0.025,0.08,0.015-0.142,0.015-0.037
		c0,0.025-0.042,0.062-0.052,0.082c0.041-0.083,0.078-0.079,0.005-0.019c-0.028,0.023-0.058,0.052-0.085,0.078
		c-0.069,0.066,0.106-0.062-0.009,0.003c-0.09,0.051-0.176,0.11-0.268,0.157c-0.041,0.021-0.084,0.04-0.125,0.061
		c-0.029,0.014-0.06,0.026-0.089,0.039c0.008-0.003,0.094-0.038,0.027-0.013c-0.128,0.05-0.258,0.096-0.39,0.138
		c-1.459,0.466-3.034,0.587-4.555,0.667c-2.114,0.122-4.234,0.09-6.343-0.097c-0.794-0.067-1.583-0.182-2.363-0.345
		c-0.312-0.067-0.621-0.145-0.925-0.242c-0.129-0.041-0.256-0.087-0.382-0.136c-0.111-0.042,0.054,0.028-0.048-0.021
		c-0.058-0.027-0.117-0.055-0.174-0.084c-0.089-0.047-0.172-0.103-0.257-0.154c-0.093-0.057,0.076,0.075,0.003,0.003
		C34.51,80.108,34.475,80.079,34.444,80.047c-0.54-0.565-1.395,0.291-0.857,0.855c0.4,0.364,0.882,0.629,1.405,0.77
		c0.725,0.228,1.468,0.39,2.222,0.483c2.205,0.294,4.43,0.399,6.652,0.318c1.863-0.051,3.783-0.16,5.595-0.629
		c0.83-0.215,2.306-0.655,2.307-1.747c-0.035-0.445-0.105-0.887-0.21-1.32c-0.076-0.452-0.113-0.932-0.229-1.374
		c-0.146-0.396-0.454-0.711-0.848-0.865c-0.543-0.243-1.115-0.413-1.702-0.507c-1.935-0.314-3.893-0.459-5.852-0.432
		c-2.074-0.049-4.148,0.054-6.207,0.309c-0.949,0.135-2.384,0.31-2.935,1.226c-0.197,0.328-0.202,0.787-0.262,1.153
		c-0.086,0.519-0.177,1.037-0.259,1.557c-0.064,0.384,0.055,0.776,0.323,1.059c0.238,0.234,0.619,0.234,0.856,0
		C34.672,80.663,34.673,80.286,34.444,80.047z"/>
	<path fill="#211715" d="M36.441,79.287c1.489,0.311,3.005,0.471,4.526,0.476c1.858,0.07,3.72,0.015,5.57-0.166
		c0.727-0.065,1.447-0.184,2.155-0.355c0.754-0.194,0.435-1.361-0.321-1.167c-1.827,0.474-3.801,0.487-5.675,0.498
		c-1.961,0.011-4.013,0.002-5.933-0.452c-0.757-0.18-1.081,0.987-0.322,1.167H36.441z"/>
	<path fill="#211715" d="M64.652,47.259c-1.144-1.785-2.881-3.137-4.697-4.187c-2.312-1.337-4.845-2.209-7.418-2.885
		c-0.834-0.219-1.67-0.436-2.505-0.65c-0.755-0.195-1.077,0.973-0.322,1.167c4.165,1.074,8.527,2.142,11.9,4.973
		c0.771,0.627,1.444,1.366,1.996,2.193C64.025,48.524,65.074,47.918,64.652,47.259L64.652,47.259z"/>
	<path fill="#211715" d="M62.125,48.754c-2.908,0.529-5.845,0.895-8.795,1.094c-0.331,0.008-0.598,0.274-0.605,0.605
		c0.003,0.333,0.272,0.603,0.605,0.605c3.058-0.208,6.102-0.587,9.117-1.138c0.32-0.091,0.509-0.423,0.423-0.745
		C62.775,48.858,62.446,48.672,62.125,48.754L62.125,48.754z"/>
	<path fill="#211715" d="M64.704,49.316c0.637,1.021,1.159,2.108,1.559,3.244c0.519,1.398,0.945,2.829,1.278,4.283
		c0.361,1.562,0.578,3.146,0.793,4.732c0.225,1.656,0.43,3.316,0.644,4.974c0.221,1.716,0.448,3.429,0.728,5.135
		c0.091,0.32,0.422,0.509,0.744,0.423c0.317-0.095,0.504-0.423,0.423-0.745c-0.521-3.18-0.871-6.386-1.299-9.579
		c-0.217-1.618-0.421-3.242-0.77-4.838c-0.318-1.467-0.73-2.911-1.234-4.325c-0.452-1.371-1.063-2.685-1.82-3.915
		C65.325,48.055,64.276,48.661,64.704,49.316L64.704,49.316z"/>
	<path fill="#211715" d="M43.169,59.519c2.499-4.631,4.641-9.446,6.406-14.404c0.541-1.514,1.042-3.04,1.504-4.581
		c0.225-0.747-0.943-1.066-1.168-0.321c-1.539,5.149-3.497,10.165-5.855,14.995c-0.613,1.249-1.27,2.477-1.932,3.701
		C41.754,59.594,42.799,60.205,43.169,59.519L43.169,59.519z"/>
	<path fill="#211715" d="M8.404,72.13h68.191c0.779,0,0.78-1.211,0-1.211H8.404C7.625,70.919,7.624,72.13,8.404,72.13z"/>
	<path fill="#211715" d="M40.751,47.35c1.211,0,2.421-0.025,3.632-0.025c0.334,0,0.605-0.271,0.605-0.605s-0.271-0.605-0.605-0.605
		c-1.211,0-2.421,0.025-3.632,0.025c-0.334,0-0.605,0.271-0.605,0.605S40.417,47.35,40.751,47.35z"/>
	<path fill="#211715" d="M39.466,44.639c0.098,0.412,0.168,0.828,0.25,1.243c0.084,0.427,0.269,0.896,0.252,1.333
		c-0.012,0.323-0.074,0.651-0.114,0.973c-0.22,1.785-0.445,3.57-0.663,5.355c0.002,0.334,0.272,0.604,0.605,0.605
		c0.331-0.008,0.597-0.274,0.605-0.605c0.221-1.807,0.449-3.613,0.671-5.42c0.063-0.338,0.097-0.682,0.101-1.025
		c-0.056-0.485-0.147-0.966-0.273-1.438c-0.091-0.447-0.164-0.897-0.27-1.342c-0.181-0.757-1.349-0.437-1.167,0.321L39.466,44.639z"
		/>
	<path fill="#211715" d="M45.968,53.597c-0.25-1.757-0.503-3.513-0.74-5.271c-0.016-0.114-0.055-0.408-0.081-0.617
		c-0.016-0.123-0.036-0.248-0.041-0.371c0.011-0.375,0.082-0.745,0.212-1.097c0.102-0.447,0.231-0.888,0.39-1.318
		c0.158-0.29,0.063-0.653-0.217-0.828c-0.289-0.166-0.658-0.069-0.828,0.217c-0.192,0.488-0.353,0.989-0.479,1.499
		c-0.176,0.482-0.274,0.99-0.291,1.503c0.024,0.349,0.067,0.696,0.127,1.041c0.249,1.855,0.516,3.71,0.779,5.563
		c0.091,0.321,0.423,0.51,0.745,0.423c0.316-0.096,0.502-0.423,0.422-0.744L45.968,53.597z"/>
	<path fill="#211715" d="M37.289,36.979v0.904c0.001,0.16,0.065,0.313,0.177,0.429c0.236,0.237,0.619,0.237,0.856,0.001
		c0,0,0.001-0.001,0.001-0.001c0.111-0.115,0.174-0.269,0.177-0.429v-0.904c-0.002-0.16-0.065-0.314-0.177-0.429
		c-0.236-0.237-0.619-0.238-0.856-0.001c0,0-0.001,0.001-0.001,0.001C37.354,36.666,37.291,36.819,37.289,36.979z"/>
	<path fill="#211715" d="M46.895,36.924v0.933h1.211v-0.052c-0.002-0.161-0.065-0.314-0.177-0.429
		c-0.236-0.237-0.619-0.237-0.856-0.001c0,0-0.001,0.001-0.001,0.001c-0.111,0.115-0.175,0.269-0.177,0.429v0.052
		c0.002,0.16,0.064,0.314,0.177,0.429c0.235,0.237,0.619,0.237,0.855,0.001c0.001,0,0.001-0.001,0.002-0.001
		c0.111-0.115,0.175-0.269,0.177-0.429v-0.933c-0.002-0.161-0.065-0.314-0.177-0.429c-0.236-0.237-0.619-0.238-0.856-0.002
		c0,0-0.001,0.001-0.001,0.002C46.96,36.61,46.896,36.764,46.895,36.924L46.895,36.924z"/>
	<path fill="#211715" d="M34.291,40.738c0.789,2.688,1.718,5.332,2.783,7.922c0.968,2.394,1.933,4.797,2.989,7.153
		c0.562,1.255,1.18,2.483,1.81,3.705c0.357,0.693,1.402,0.082,1.045-0.61c-1.054-2.043-2.009-4.116-2.89-6.238
		c-1.066-2.57-2.158-5.133-3.107-7.749c-0.539-1.484-1.027-2.986-1.463-4.505C35.244,39.669,34.075,39.987,34.291,40.738
		L34.291,40.738z"/>
	<path fill="#211715" d="M15.762,71.364c-0.687-1.72-0.467-3.632-0.108-5.399c0.236-1.165,0.534-2.318,0.828-3.47
		c0.479-1.873,0.987-3.737,1.472-5.608c0.721-2.776,1.393-5.646,2.73-8.205c1.255-2.401,3.511-3.999,5.886-5.186
		c2.598-1.299,5.402-1.998,8.199-2.72l0.278-0.071c0.754-0.193,0.434-1.362-0.322-1.167c-2.612,0.672-5.223,1.32-7.7,2.412
		c-2.583,1.139-5.208,2.751-6.81,5.141c-0.866,1.292-1.436,2.793-1.938,4.256c-0.521,1.516-0.949,3.062-1.34,4.616
		c-0.454,1.804-0.949,3.597-1.414,5.397c-0.289,1.119-0.579,2.238-0.838,3.365c-0.423,1.839-0.762,3.745-0.454,5.63
		c0.072,0.455,0.194,0.901,0.363,1.33c0.097,0.315,0.423,0.501,0.745,0.423C15.659,72.018,15.848,71.686,15.762,71.364
		L15.762,71.364z"/>
	<path fill="#211715" d="M53.774,46.203c-0.144,0.382-0.298,0.76-0.456,1.135c0.044-0.104-0.02,0.046-0.033,0.079
		c-0.021,0.05-0.044,0.102-0.065,0.153c-0.054,0.124-0.107,0.248-0.161,0.372c-0.112,0.258-0.226,0.515-0.34,0.771
		c-0.531,1.193-1.08,2.379-1.635,3.562c-1.135,2.42-2.293,4.827-3.477,7.223c-0.408,0.828-0.815,1.656-1.24,2.476
		c-0.357,0.69,0.687,1.304,1.046,0.611c0.933-1.804,1.814-3.636,2.698-5.464c1.196-2.476,2.38-4.957,3.506-7.466
		c0.464-1.033,0.929-2.068,1.325-3.13c0.086-0.322-0.103-0.653-0.423-0.745C54.198,45.698,53.87,45.885,53.774,46.203L53.774,46.203
		z"/>
	<path fill="#211715" d="M30.484,46.905c0.446,1.203,0.967,2.378,1.559,3.518c0.568,1.18,1.147,2.355,1.758,3.514
		c0.363,0.689,1.409,0.078,1.045-0.611c-0.598-1.135-1.165-2.285-1.722-3.439c-0.316-0.656-0.628-1.312-0.926-1.976
		c-0.065-0.144-0.128-0.287-0.191-0.431c-0.025-0.058-0.051-0.114-0.076-0.172c-0.029-0.067-0.032-0.074-0.008-0.02
		c-0.015-0.034-0.029-0.069-0.043-0.104c-0.082-0.198-0.161-0.397-0.229-0.601c-0.247-0.734-1.417-0.42-1.167,0.322H30.484z"/>
	<path fill="#211715" d="M59.144,52.474c-0.256,4.542-0.456,9.088-0.75,13.629c0,0.334,0.271,0.605,0.605,0.605
		c0.334,0,0.604-0.271,0.604-0.605c0.295-4.54,0.494-9.087,0.75-13.629C60.397,51.695,59.187,51.697,59.144,52.474z"/>
	<path fill="#211715" d="M53.863,54.836c-0.164,4.522-0.291,9.05-0.619,13.565c0.003,0.333,0.271,0.603,0.605,0.604
		c0.331-0.006,0.599-0.273,0.604-0.604c0.328-4.515,0.454-9.043,0.62-13.565C55.102,54.057,53.892,54.058,53.863,54.836
		L53.863,54.836z"/>
	<path fill="#211715" d="M23.529,49.921c3.015,0.551,6.059,0.93,9.117,1.138c0.334,0,0.605-0.271,0.605-0.605
		s-0.271-0.605-0.605-0.605c-2.95-0.199-5.886-0.564-8.795-1.094c-0.321-0.08-0.648,0.105-0.745,0.422
		C23.021,49.498,23.209,49.83,23.529,49.921L23.529,49.921z"/>
	<path fill="#211715" d="M25.37,52.474c0.256,4.542,0.457,9.088,0.75,13.629c0.008,0.331,0.274,0.598,0.605,0.605
		c0.333-0.003,0.602-0.272,0.605-0.605c-0.294-4.54-0.494-9.087-0.75-13.629C26.537,51.699,25.326,51.693,25.37,52.474z"/>
	<path fill="#211715" d="M30.651,54.836c0.164,4.522,0.29,9.05,0.619,13.565c0.008,0.331,0.274,0.597,0.605,0.604
		c0.333-0.002,0.603-0.271,0.605-0.604c-0.328-4.515-0.454-9.043-0.619-13.565C31.833,54.059,30.622,54.056,30.651,54.836
		L30.651,54.836z"/>
	<path fill="#FFFFFF" d="M48.291,37.52c0.536,0.6,1.197,1.479,1.722,2.087c0.309,0.357,0.536,1.014,0.36,1.487
		c-0.202,0.404-2.43,3.976-3.931,4.937c-0.474-0.631-2.438-3.357-3.377-4.414C43.418,41.366,48.062,37.704,48.291,37.52z"/>
	<path fill="#FFFFFF" d="M37.022,37.52c-0.536,0.6-1.197,1.479-1.722,2.087c-0.309,0.357-0.536,1.014-0.36,1.487
		c0.202,0.404,2.429,3.976,3.93,4.937c0.474-0.631,2.438-3.357,3.377-4.414C41.895,41.366,37.25,37.704,37.022,37.52z"/>
	<path fill="#211715" d="M47.862,37.948c0.593,0.668,1.19,1.37,1.722,2.087c0.087,0.117,0.152,0.249,0.193,0.389
		c0.026,0.079,0.043,0.161,0.051,0.244c0.002,0.031-0.002,0.064,0.003,0.096c0,0.002-0.022,0.149-0.002,0.064
		c0.014-0.057-0.032,0.059-0.049,0.089c-0.04,0.069-0.081,0.139-0.123,0.207c-0.622,1.037-1.318,2.027-2.085,2.963
		c-0.246,0.298-0.502,0.589-0.775,0.861c-0.118,0.117-0.239,0.231-0.365,0.34c-0.031,0.027-0.144,0.118-0.126,0.105
		c0.006-0.004-0.122,0.086-0.167,0.115l0.828,0.217c-1.139-1.521-2.212-3.111-3.472-4.536l-0.122,0.95
		c1.589-1.138,3.096-2.412,4.63-3.624c0.239-0.189,0.479-0.376,0.718-0.568c0.233-0.237,0.233-0.619,0-0.856
		c-0.24-0.229-0.617-0.229-0.856,0c-1.46,1.178-2.944,2.327-4.424,3.481c-0.092,0.071-0.183,0.143-0.274,0.214l-0.128,0.099
		c-0.108,0.084,0.069-0.053-0.003,0.003c-0.091,0.069-0.181,0.14-0.273,0.206c-0.29,0.18-0.38,0.56-0.201,0.85
		c0.022,0.036,0.049,0.07,0.078,0.102c1.192,1.349,2.205,2.853,3.283,4.292c0.173,0.283,0.538,0.379,0.828,0.217
		c1.234-0.807,2.148-2.14,2.979-3.331c0.343-0.492,0.676-0.992,0.985-1.505c0.098-0.146,0.179-0.3,0.244-0.462
		c0.142-0.506,0.088-1.047-0.151-1.516c-0.225-0.495-0.652-0.9-0.99-1.32c-0.359-0.447-0.715-0.898-1.096-1.328
		C48.2,36.507,47.348,37.366,47.862,37.948z"/>
	<path fill="#211715" d="M36.594,37.091c-0.334,0.378-0.649,0.771-0.964,1.164c-0.315,0.393-0.671,0.762-0.952,1.175
		c-0.46,0.632-0.519,1.472-0.151,2.162c0.683,1.154,1.455,2.254,2.309,3.289c0.489,0.642,1.072,1.205,1.73,1.672
		c0.29,0.16,0.655,0.064,0.829-0.218c1.078-1.438,2.09-2.943,3.283-4.291c0.234-0.247,0.226-0.638-0.021-0.872
		c-0.031-0.03-0.065-0.057-0.103-0.079c-0.072-0.051-0.142-0.105-0.211-0.159l-0.088-0.067c-0.083-0.064,0.097,0.075,0.008,0.006
		l-0.254-0.197c-0.405-0.315-0.809-0.631-1.212-0.948c-0.883-0.693-1.766-1.387-2.647-2.083c-0.233-0.184-0.467-0.366-0.698-0.553
		C37.211,36.864,36.835,36.864,36.594,37.091c-0.233,0.237-0.233,0.619,0.001,0.856c1.479,1.193,2.983,2.358,4.482,3.526
		c0.287,0.223,0.57,0.453,0.866,0.666l-0.123-0.951c-1.26,1.426-2.333,3.016-3.472,4.537l0.828-0.218
		c-0.054-0.035-0.106-0.071-0.159-0.109c-0.052-0.037-0.003,0,0.007,0.006c-0.024-0.018-0.048-0.037-0.071-0.057
		c-0.116-0.098-0.229-0.198-0.338-0.303c-0.237-0.228-0.459-0.471-0.674-0.72c-0.445-0.517-0.854-1.063-1.246-1.621
		c-0.328-0.468-0.646-0.944-0.947-1.43c-0.084-0.137-0.167-0.273-0.246-0.413c-0.012-0.019-0.023-0.038-0.033-0.059
		c0.039,0.101,0.014,0,0.015-0.045c0.002-0.169,0.039-0.335,0.107-0.488c0.189-0.413,0.58-0.765,0.861-1.116
		c0.328-0.406,0.652-0.814,0.998-1.205C37.966,37.366,37.112,36.507,36.594,37.091z"/>
	<path fill="#211715" d="M16.454,54.836c0.101-1.994,0.205-3.988,0.312-5.981c0.141-2.652,0.284-5.304,0.429-7.956
		c0.139-2.543,0.282-5.086,0.429-7.629c0.058-0.987,0.116-1.974,0.177-2.96c0.05-0.826,0.066-1.67,0.186-2.49
		c0.177-1.412,0.759-2.742,1.677-3.829c0.846-0.962,1.951-1.66,3.183-2.01c0.438-0.124,0.883-0.216,1.332-0.298
		c0.321-0.091,0.509-0.423,0.423-0.745c-0.095-0.318-0.423-0.504-0.745-0.423c-1.539,0.281-2.928,0.789-4.157,1.771
		c-1.125,0.922-1.975,2.136-2.455,3.51c-0.417,1.153-0.518,2.361-0.596,3.574c-0.058,0.904-0.113,1.809-0.165,2.713
		c-0.149,2.493-0.291,4.986-0.426,7.479c-0.151,2.737-0.299,5.475-0.444,8.212c-0.115,2.16-0.228,4.319-0.339,6.479
		c-0.01,0.193-0.02,0.388-0.029,0.582C15.204,55.614,16.415,55.612,16.454,54.836L16.454,54.836z"/>
	<path fill="#A98A75" d="M35.488,62.688c-1.652,0.551-3.253,1.076-4.568,1.488c0.167,0.337,0.324,0.67,0.51,1.05
		c0.158,0.324,0.351,0.702,0.518,1.074c1.36-0.426,3.067-0.989,4.792-1.564c-0.134-0.47-0.281-0.966-0.44-1.478
		c-0.08-0.257-0.161-0.511-0.242-0.761L35.488,62.688z"/>
	<path fill="#F7CBA4" d="M27.28,70.321c-0.141-0.082-0.272-0.181-0.39-0.293v0.454c0,0.364-0.382,0.839-0.749,1.1
		c-0.35,0.247-1.267,0.206-1.808-0.119l-0.06,0.211c-0.084,0.354-0.28,0.67-0.558,0.903c-0.878,0.61-1.987-0.013-2.646-0.635
		l-1.043,0.364c-0.303,0.105-0.636,0.088-0.926-0.048c-1.05-0.488-1.605-1.177-1.601-2.493c-0.043-0.896,0.179-1.786,0.638-2.558
		c0.159-0.289,0.373-0.543,0.63-0.749c0.267-0.186,0.445-0.313,0.693-0.477c0.732-0.465,1.375-1.06,1.895-1.754
		c0.906-1.253,2.229-2.14,3.731-2.502c1.366-0.27,2.346-0.262,3.206-0.077c0.807,0.174,1.828,1.03,2.23,1.758
		c0.354,0.643,0.589,1.16,0.911,1.819c0.3,0.615,0.727,1.423,0.859,2.021c0.126,0.505-0.15,1.023-0.639,1.201
		c-0.396,0.148-0.837,0.114-1.206-0.094c-0.532-0.313-0.991-0.738-1.344-1.245c-0.307-0.403-0.809-1.009-1.221-1.503
		c-0.193-0.226-0.476-0.354-0.773-0.352c0.025,0.037,0.04,0.061,0.04,0.061l1.99,3.09c0.2,0.322,0.512,1.319-0.165,1.858
		C28.479,70.643,27.799,70.665,27.28,70.321z"/>
	<path fill="#211715" d="M31.486,64.634c2.512-0.797,5.009-1.642,7.506-2.481c0.735-0.247,0.42-1.417-0.322-1.168
		c-2.497,0.841-4.994,1.686-7.506,2.481C30.425,63.7,30.741,64.87,31.486,64.634z"/>
	<path fill="#211715" d="M32.478,66.769c2.27-0.72,4.523-1.482,6.779-2.241c0.735-0.247,0.42-1.416-0.322-1.167
		c-2.255,0.759-4.51,1.521-6.779,2.241C31.416,65.836,31.732,67.005,32.478,66.769z"/>
	<path fill="#A98A75" d="M42.897,61.208c-0.633-2.036-1.171-4.018-1.292-4.841c-0.105-0.72-0.518-1.033-1.169-1.042
		c-0.983-0.014-1.364,0.06-2.614,0.392c-0.922,0.253-1.796,0.654-2.589,1.188c-0.501,0.385-0.906,1.002-0.654,1.581
		c0.396,0.911,1.097,2.766,1.721,4.772c0.656,2.107,1.099,3.933,1.289,4.906c0.121,0.621,0.804,0.899,1.436,0.934
		c0.956-0.01,1.903-0.175,2.806-0.489c1.218-0.436,1.573-0.592,2.375-1.16c0.531-0.377,0.693-0.869,0.372-1.521
		C44.211,65.181,43.538,63.267,42.897,61.208z"/>
	<path fill="#211715" d="M25.245,62.311c0.961-0.186,2.041-0.32,2.999-0.048c1.001,0.284,1.633,1.188,2.075,2.061
		c0.27,0.532,0.521,1.072,0.785,1.607c0.227,0.459,0.524,0.966,0.602,1.479c0.066,0.437-0.395,0.586-0.749,0.499
		c-0.516-0.126-0.923-0.604-1.247-0.995c-0.406-0.493-0.794-1.001-1.202-1.492c-0.34-0.476-0.885-0.763-1.469-0.772
		c-0.779-0.022-0.779,1.188,0,1.211c0.04-0.001,0.08,0.001,0.12,0.005c0.096,0.013-0.133-0.055,0.059,0.012
		c0.076,0.023,0.144,0.065,0.199,0.122c0.243,0.262,0.472,0.536,0.684,0.823c0.374,0.507,0.779,0.991,1.213,1.447
		c0.516,0.491,1.186,0.911,1.923,0.874c0.726-0.01,1.37-0.47,1.614-1.153c0.212-0.666-0.097-1.354-0.363-1.955
		c-0.274-0.619-0.588-1.224-0.883-1.834c-0.265-0.624-0.612-1.21-1.031-1.743c-0.408-0.476-0.907-0.865-1.467-1.146
		c-1.27-0.615-2.848-0.426-4.184-0.167c-0.32,0.091-0.508,0.422-0.423,0.744C24.595,62.206,24.924,62.393,25.245,62.311
		L25.245,62.311z"/>
	<path fill="#211715" d="M24.923,61.144c-1.272,0.324-2.436,0.983-3.368,1.908c-0.484,0.494-0.848,1.086-1.346,1.568
		c-0.502,0.448-1.04,0.856-1.609,1.218c-1.21,0.842-1.678,2.349-1.706,3.767c-0.023,1.224,0.401,2.289,1.47,2.947
		c0.584,0.36,1.212,0.541,1.884,0.316c0.328-0.109,0.654-0.229,0.981-0.343l-0.589-0.156c0.621,0.573,1.438,1.087,2.314,1.062
		c0.983-0.029,1.624-0.698,1.902-1.597c0.231-0.746-0.937-1.064-1.167-0.321c-0.138,0.443-0.383,0.756-0.885,0.706
		c-0.499-0.093-0.957-0.34-1.307-0.706c-0.154-0.154-0.379-0.214-0.589-0.156l-0.772,0.271c-0.332,0.115-0.58,0.192-0.917,0.016
		c-0.342-0.158-0.636-0.406-0.849-0.717c-0.204-0.391-0.295-0.83-0.265-1.27c-0.01-0.567,0.091-1.13,0.298-1.657
		c0.111-0.259,0.25-0.504,0.414-0.732c0.181-0.225,0.4-0.415,0.649-0.562c0.522-0.338,1.02-0.714,1.488-1.124
		c0.425-0.441,0.824-0.906,1.198-1.392c0.819-0.924,1.898-1.579,3.096-1.881c0.75-0.204,0.432-1.373-0.322-1.168L24.923,61.144z"/>
	<path fill="#211715" d="M24.113,67.763c0.385,0.461,0.782,0.912,1.179,1.362c0.2,0.228,0.399,0.455,0.598,0.683
		c0.206,0.264,0.431,0.511,0.673,0.74c0.473,0.428,1.098,0.647,1.734,0.609c0.695-0.053,1.301-0.491,1.569-1.135
		c0.23-0.693,0.121-1.454-0.293-2.055l-1.016-1.577l-0.889-1.379c-0.173-0.282-0.539-0.378-0.828-0.217
		c-0.286,0.171-0.382,0.539-0.217,0.828l1.678,2.606c0.095,0.147,0.192,0.294,0.285,0.443c0.021,0.032,0.039,0.065,0.059,0.098
		c0.02,0.032,0.065,0.151,0.007,0.002c0.011,0.029,0.023,0.058,0.033,0.087c0.033,0.102,0.058,0.2,0.081,0.303
		c0.038,0.165,0.006-0.109,0.007,0.064c0,0.038,0.004,0.077,0.004,0.115c0,0.012-0.015,0.202,0.003,0.074
		c-0.006,0.039-0.015,0.078-0.025,0.116c-0.035,0.133-0.002,0.069-0.086,0.187c0.056-0.078-0.077,0.076-0.076,0.074
		c0.025-0.021-0.133,0.085-0.126,0.081c-0.082,0.044-0.172,0.073-0.265,0.085c0.062-0.008-0.23-0.007-0.167,0
		c-0.232-0.028-0.452-0.123-0.631-0.273c-0.209-0.194-0.401-0.405-0.576-0.631c-0.21-0.242-0.421-0.484-0.634-0.725
		c-0.415-0.471-0.829-0.94-1.23-1.422c-0.238-0.233-0.619-0.233-0.856,0c-0.23,0.239-0.23,0.617,0,0.856L24.113,67.763z"/>
	<path fill="#211715" d="M21.452,69.73c0.516,0.487,1.063,0.939,1.596,1.408c0.509,0.447,0.926,0.925,1.604,1.104
		c0.561,0.175,1.166,0.144,1.705-0.087c0.63-0.338,1.056-0.963,1.138-1.674c0-0.334-0.271-0.605-0.605-0.605
		s-0.605,0.271-0.605,0.605l0,0c0.006-0.104-0.016,0.057-0.025,0.081c0.021-0.053-0.025,0.041-0.028,0.046
		c-0.056,0.1-0.125,0.191-0.206,0.272c-0.062,0.064-0.162,0.146-0.207,0.188c-0.052,0.048-0.059,0.03,0.011,0.005
		c-0.045,0.017-0.092,0.03-0.139,0.041c-0.034,0.009-0.068,0.015-0.103,0.021c0.135-0.021-0.05-0.002-0.064,0
		c-0.102,0.003-0.204,0-0.305-0.011c-0.104-0.009,0.003,0.004-0.058-0.008c-0.052-0.01-0.104-0.021-0.155-0.033
		c-0.061-0.016-0.121-0.034-0.181-0.053c-0.096-0.03-0.001,0.006-0.053-0.019c-0.044-0.021-0.088-0.043-0.13-0.067
		c-0.013-0.008-0.13-0.095-0.076-0.049c0.055,0.047-0.045-0.05-0.055-0.06c-0.058-0.057-0.118-0.111-0.177-0.166
		c-0.223-0.206-0.45-0.406-0.68-0.605c-0.454-0.392-0.91-0.779-1.346-1.19c-0.567-0.534-1.425,0.32-0.856,0.857L21.452,69.73z"/>
	<path fill="#211715" d="M43.481,61.047c-0.45-1.451-0.904-2.916-1.212-4.405c-0.112-0.544-0.175-1.094-0.614-1.49
		c-0.49-0.441-1.147-0.451-1.77-0.427c-1.34,0.087-2.65,0.436-3.857,1.024c-0.63,0.254-1.195,0.648-1.65,1.153
		c-0.252,0.296-0.413,0.658-0.464,1.044c-0.024,0.204-0.007,0.412,0.05,0.609c0.045,0.132,0.098,0.261,0.159,0.387
		c1.137,2.76,2.04,5.61,2.699,8.521c0.124,0.54,0.165,1.135,0.553,1.563c0.469,0.519,1.217,0.69,1.892,0.681
		c1.384-0.022,2.762-0.462,4.018-1.016c0.601-0.24,1.149-0.595,1.615-1.043c0.59-0.636,0.498-1.388,0.161-2.119
		C44.433,64.174,43.947,62.538,43.481,61.047c-0.23-0.741-1.399-0.425-1.167,0.321c0.415,1.33,0.842,2.661,1.354,3.957
		c0.087,0.222,0.178,0.442,0.274,0.66c0.097,0.168,0.163,0.352,0.196,0.542c0.017,0.34-0.541,0.618-0.837,0.795
		c-0.968,0.545-2.026,0.91-3.123,1.081c-0.504,0.087-1.097,0.182-1.591,0.002c-0.169-0.045-0.312-0.156-0.396-0.311
		c-0.056-0.192-0.097-0.389-0.121-0.588c-0.593-2.658-1.38-5.269-2.357-7.812c-0.093-0.244-0.188-0.488-0.285-0.731
		c-0.114-0.237-0.215-0.479-0.303-0.729c-0.123-0.446,0.424-0.837,0.753-1.039c1.038-0.603,2.179-1.009,3.365-1.196
		c0.39-0.07,1.082-0.165,1.475-0.025c0.126,0.056,0.219,0.168,0.25,0.303c0.056,0.227,0.101,0.455,0.133,0.687
		c0.308,1.488,0.762,2.954,1.212,4.405C42.544,62.111,43.713,61.794,43.481,61.047z"/>
	<path fill="#211715" d="M43.635,64.786c-2.245,0.32-4.312,1.116-6.422,1.912c-0.316,0.096-0.502,0.423-0.423,0.744
		c0.091,0.321,0.423,0.509,0.745,0.423c2.108-0.796,4.178-1.591,6.422-1.911c0.321-0.091,0.509-0.423,0.423-0.745
		C44.284,64.893,43.956,64.706,43.635,64.786z"/>
	<path fill="#211715" d="M35.589,59.902c1.98-0.983,4.095-1.479,6.229-2.007c0.757-0.187,0.436-1.354-0.322-1.167
		c-2.242,0.554-4.439,1.095-6.518,2.129C34.281,59.204,34.894,60.248,35.589,59.902L35.589,59.902z"/>
</g>
</svg>
