<?xml version="1.0" encoding="utf-8"?>
<!-- Generator: Adobe Illustrator 16.0.0, SVG Export Plug-In . SVG Version: 6.00 Build 0)  -->
<!DOCTYPE svg PUBLIC "-//W3C//DTD SVG 1.1//EN" "http://www.w3.org/Graphics/SVG/1.1/DTD/svg11.dtd">
<svg version="1.1" id="Layer_1" xmlns="http://www.w3.org/2000/svg" xmlns:xlink="http://www.w3.org/1999/xlink" x="0px" y="0px"
	 width="85px" height="85px" viewBox="0 0 85 85" enable-background="new 0 0 85 85" xml:space="preserve">
<g>
	<path fill="#06F7CF" d="M53.45,53.365c0.896,0.549,1.875,0.992,2.93,1.299c9.092,2.646,15.518,0.346,19.535-3.604
		c3.984-3.916,3.74-13.785,3.672-15.033v-0.133c0,0-1.297,0.27-2.156-1.467c-0.473-0.076-1.027-0.121-1.691-0.121
		c0,0-16.273-1.879-24.178,3.982c-1.1,0.816-1.703,2.234-1.854,3.941l0.012,0.676C49.396,46.318,50.749,50.381,53.45,53.365z"/>
	<path fill="#14346E" d="M49.718,43.256c-0.189,0-0.348-0.152-0.35-0.344l-0.01-0.676c0-0.014,0-0.023,0-0.037
		c0.168-1.898,0.855-3.35,1.994-4.191c0.154-0.115,0.373-0.082,0.488,0.074c0.115,0.154,0.082,0.373-0.072,0.488
		c-0.969,0.719-1.561,1.986-1.711,3.674l0.01,0.656c0.002,0.193-0.152,0.354-0.346,0.355C49.722,43.256,49.72,43.256,49.718,43.256z
		"/>
	<path fill="#06F7CF" d="M28.62,54.664c6.471-1.883,10.082-8.836,9.574-14.188l0.012-0.674c-0.09-1.006-0.336-1.908-0.746-2.648
		c-8.334-4.467-22.369-2.848-22.369-2.848c-3.811,0-4.145,1.857-4.512,2.355c-1.346,1.836-2.252,1.662-2.252,1.662v0.133
		c-0.067,1.209-0.299,10.523,3.32,14.66C15.649,55.707,21.262,56.805,28.62,54.664z"/>
	<path fill="#14346E" d="M34.55,41.555c0,0-0.002,0-0.004,0c-0.193-0.004-0.348-0.162-0.346-0.355l0.012-0.654
		c-0.09-0.975-0.324-1.812-0.703-2.492c-0.094-0.17-0.031-0.383,0.137-0.477s0.381-0.033,0.477,0.137
		c0.428,0.77,0.693,1.709,0.789,2.787c0,0.014,0.002,0.023,0,0.037l-0.01,0.674C34.897,41.4,34.743,41.555,34.55,41.555z"/>
	<path fill="#FF9D00" d="M81.665,30.561c0,0-19.76-3.934-30.066,0.693c-4.607,2.068-5.031,3.463-9.098,3.463
		c-4.064,0-4.486-1.395-9.098-3.463c-10.306-4.627-30.064-0.693-30.064-0.693l-0.49,3.395c0,0,2.633,0.762,2.562,2.01
		c0,0,0.904,0.174,2.254-1.662c0.365-0.5,0.701-2.355,4.51-2.355c0,0,16.273-1.879,24.178,3.982c1.1,0.816,1.701,2.234,1.852,3.943
		c0,0,0.629-1.348,2.547-2.178c0,0,0.652-0.449,1.85-0.449c1.193,0,1.65,0.449,1.65,0.449c0.85,0.371,2.543,2.178,2.543,2.178
		c0.15-1.709,0.752-3.127,1.854-3.943c7.902-5.861,24.176-3.982,24.176-3.982c3.811,0,4.102,1.422,4.512,2.355
		c0.855,1.957,2.252,1.662,2.252,1.662c-0.066-1.248,2.564-2.01,2.564-2.01L81.665,30.561z"/>
	<path fill="#14346E" d="M63.778,56.219c-2.359,0-4.867-0.385-7.496-1.148c-5.291-1.539-8.307-6.141-9.365-9.934
		c-1.033-3.701-0.482-7.182,1.473-9.309c0.131-0.143,0.352-0.15,0.494-0.021c0.143,0.131,0.15,0.354,0.021,0.494
		c-1.791,1.947-2.281,5.18-1.312,8.646c1.008,3.611,3.871,7.99,8.887,9.449c4.197,1.221,8.064,1.445,11.494,0.666
		c2.971-0.676,5.561-2.084,7.697-4.184c1.598-1.568,2.723-4.443,3.254-8.314c0.475-3.432,0.316-6.418,0.314-6.449
		c-0.084-1.48,2.518-2.277,2.814-2.363c0.186-0.055,0.379,0.055,0.434,0.238c0.053,0.188-0.053,0.381-0.238,0.434
		c-0.771,0.225-2.354,0.924-2.312,1.654c0.008,0.109,0.559,11.043-3.775,15.301c-2.23,2.191-4.934,3.662-8.033,4.365
		C66.741,56.061,65.29,56.219,63.778,56.219z"/>
	<path fill="#FFFFFF" d="M68.04,51.969c-0.152,0-0.293-0.102-0.336-0.256c-0.053-0.186,0.057-0.379,0.242-0.432
		c1.814-0.512,3.412-1.436,4.746-2.744c0.791-0.777,1.408-2.006,1.834-3.646c0.049-0.186,0.238-0.299,0.426-0.25
		c0.189,0.049,0.301,0.24,0.252,0.426c-0.459,1.768-1.139,3.102-2.021,3.969c-1.418,1.395-3.115,2.377-5.047,2.92
		C68.103,51.965,68.071,51.969,68.04,51.969z"/>
	<path fill="#FFFFFF" d="M26.518,51.969c-0.153,0-0.293-0.102-0.336-0.256c-0.052-0.186,0.056-0.379,0.242-0.432
		c1.815-0.512,3.413-1.436,4.747-2.744c0.793-0.779,1.41-2.006,1.834-3.645c0.049-0.188,0.24-0.301,0.428-0.252
		s0.299,0.24,0.25,0.426c-0.455,1.766-1.137,3.102-2.021,3.969c-1.418,1.395-3.115,2.377-5.047,2.92
		C26.581,51.965,26.549,51.969,26.518,51.969z"/>
	<path fill="#14346E" d="M77.333,34.787c-0.15,0-0.289-0.098-0.336-0.248c-0.027-0.09-0.701-2.107-4.176-2.107
		c-0.193,0-0.35-0.156-0.35-0.35s0.154-0.35,0.35-0.35c4.025,0,4.814,2.498,4.846,2.604c0.057,0.186-0.049,0.381-0.234,0.436
		C77.399,34.781,77.366,34.787,77.333,34.787z"/>
	<path fill="#14346E" d="M40.751,38.18c-0.109,0-0.219-0.053-0.287-0.15c-0.109-0.158-0.07-0.377,0.09-0.486
		c0.029-0.021,0.756-0.514,2.047-0.514c1.301,0,1.84,0.496,1.896,0.553c0.139,0.135,0.141,0.355,0.004,0.494
		c-0.135,0.139-0.355,0.141-0.494,0.004l0,0c-0.002,0-0.4-0.35-1.406-0.35c-1.059,0-1.645,0.383-1.648,0.389
		C40.89,38.16,40.821,38.18,40.751,38.18z"/>
	<path fill="#14346E" d="M42.501,35.203c-2.812,0-3.996-0.68-5.787-1.703c-0.865-0.496-1.943-1.113-3.451-1.791
		C23.174,27.18,3.604,31,3.407,31.039c-0.189,0.037-0.373-0.086-0.412-0.275c-0.037-0.188,0.086-0.373,0.275-0.412
		c0.049-0.01,5.034-0.992,11.213-1.395c8.322-0.541,14.736,0.17,19.062,2.111c1.541,0.693,2.637,1.318,3.516,1.822
		c1.812,1.039,2.812,1.611,5.439,1.611c2.625,0,3.625-0.572,5.438-1.611c0.879-0.502,1.975-1.129,3.516-1.822
		c4.326-1.941,10.74-2.652,19.064-2.111c6.18,0.402,11.164,1.385,11.213,1.395c0.189,0.039,0.312,0.223,0.273,0.412
		c-0.035,0.189-0.221,0.312-0.41,0.275c-0.195-0.039-19.77-3.859-29.854,0.67c-1.51,0.678-2.588,1.295-3.455,1.791
		C46.497,34.523,45.315,35.203,42.501,35.203z"/>
	<path fill="#14346E" d="M21.22,56.219c-1.512,0-2.964-0.158-4.35-0.473c-3.098-0.705-5.801-2.174-8.031-4.365
		C4.5,47.115,5.057,36.189,5.063,36.078c0.041-0.729-1.541-1.43-2.312-1.652c-0.187-0.055-0.292-0.248-0.238-0.434
		s0.247-0.293,0.433-0.238c0.297,0.086,2.897,0.881,2.815,2.363c-0.006,0.107-0.548,10.721,3.567,14.764
		c2.137,2.1,4.727,3.508,7.697,4.184c3.428,0.779,7.297,0.557,11.496-0.666c5.014-1.459,7.877-5.838,8.885-9.447
		c0.969-3.469,0.477-6.701-1.312-8.648c-0.131-0.143-0.121-0.363,0.021-0.494c0.141-0.131,0.363-0.121,0.494,0.021
		c1.955,2.127,2.504,5.605,1.471,9.309c-1.059,3.793-4.074,8.393-9.365,9.932C26.088,55.836,23.581,56.219,21.22,56.219z"/>
	<path fill="#14346E" d="M7.666,34.787c-0.033,0-0.066-0.006-0.101-0.016c-0.185-0.055-0.291-0.25-0.234-0.436
		c0.031-0.105,0.822-2.604,4.845-2.604c0.192,0,0.351,0.156,0.351,0.35s-0.158,0.35-0.351,0.35c-3.507,0-4.168,2.084-4.174,2.105
		C7.956,34.688,7.817,34.787,7.666,34.787z"/>
</g>
</svg>
