<?xml version="1.0" encoding="utf-8"?>
<!-- Generator: Adobe Illustrator 16.0.0, SVG Export Plug-In . SVG Version: 6.00 Build 0)  -->
<!DOCTYPE svg PUBLIC "-//W3C//DTD SVG 1.1//EN" "http://www.w3.org/Graphics/SVG/1.1/DTD/svg11.dtd">
<svg version="1.1" id="Layer_1" xmlns="http://www.w3.org/2000/svg" xmlns:xlink="http://www.w3.org/1999/xlink" x="0px" y="0px"
	 width="85px" height="85px" viewBox="0 0 85 85" enable-background="new 0 0 85 85" xml:space="preserve">
<g>
	<path fill="#D3754F" d="M25.052,39.819l3.404,3.405l-3.404,3.404H7.179c-1.881,0-3.404-1.523-3.404-3.404
		c0-1.881,1.523-3.405,3.404-3.405H25.052L25.052,39.819z"/>
	<polygon fill="#A65A3A" points="30.159,39.819 35.265,46.628 25.052,46.628 25.052,39.819 	"/>
	<polygon fill="#D1F1FF" points="36.968,39.819 30.159,39.819 30.159,48.329 43.776,48.329 	"/>
	<path fill="#74C8EE" d="M76.116,39.819L71.011,73.86h5.105c2.809,0,5.105-2.297,5.105-5.105V39.819H76.116L76.116,39.819z"/>
	<path fill="#AEE6FF" d="M76.116,39.819v28.936c0,2.809-2.299,5.105-5.105,5.105H42.073c-2.809,0-5.105-2.297-5.105-5.105V48.329
		v-8.51H76.116L76.116,39.819z"/>
	<g>
		<path fill="#FFE2C4" d="M62.501,35.883c-0.416,0-0.816-0.221-1.029-0.611c-0.666-1.219-1.42-2.602-1.42-5.242
			c0-2.639,0.754-4.021,1.42-5.242c0.607-1.113,1.133-2.078,1.133-4.119s-0.525-3.004-1.133-4.119
			c-0.666-1.221-1.42-2.604-1.42-5.242s0.754-4.021,1.418-5.242c0.311-0.568,1.021-0.777,1.592-0.467
			c0.566,0.309,0.777,1.02,0.467,1.59l0,0c-0.607,1.115-1.133,2.078-1.133,4.119s0.525,3.004,1.133,4.119
			c0.666,1.221,1.42,2.604,1.42,5.242c0,2.641-0.754,4.021-1.42,5.242c-0.607,1.115-1.133,2.078-1.133,4.119
			c0,2.043,0.525,3.006,1.133,4.121c0.311,0.568,0.102,1.279-0.467,1.59C62.882,35.838,62.69,35.883,62.501,35.883z"/>
		<path fill="#FFE2C4" d="M55.729,35.883c-0.414,0-0.816-0.221-1.029-0.611c-0.666-1.219-1.42-2.602-1.42-5.242
			c0-2.639,0.754-4.021,1.42-5.242c0.607-1.113,1.135-2.078,1.135-4.119s-0.525-3.004-1.135-4.119
			c-0.666-1.221-1.42-2.604-1.42-5.242s0.754-4.021,1.42-5.242c0.311-0.568,1.021-0.777,1.59-0.467
			c0.568,0.309,0.777,1.02,0.469,1.59l0,0c-0.609,1.115-1.135,2.078-1.135,4.119s0.525,3.004,1.135,4.119
			c0.666,1.221,1.42,2.604,1.42,5.242c0,2.641-0.754,4.021-1.42,5.242c-0.609,1.115-1.135,2.078-1.135,4.119
			c0,2.043,0.525,3.006,1.135,4.121c0.309,0.568,0.1,1.279-0.469,1.59C56.112,35.838,55.919,35.883,55.729,35.883z"/>
	</g>
	<path d="M81.224,38.542H36.976H7.181c-2.582,0-4.682,2.1-4.682,4.682c0,2.58,2.1,4.68,4.682,4.68h17.873
		c0.704,0,1.275-0.57,1.275-1.275s-0.571-1.275-1.275-1.275H7.181c-1.174,0-2.127-0.955-2.127-2.129
		c0-1.172,0.953-2.127,2.127-2.127h21.701v7.235c0,0.705,0.572,1.277,1.277,1.277h5.531v19.148c0,3.52,2.863,6.383,6.383,6.383
		h34.043c3.521,0,6.385-2.863,6.385-6.383V39.819C82.499,39.114,81.929,38.542,81.224,38.542z M31.435,47.054v-5.959h4.256v5.959
		H31.435z M79.946,68.755c0,2.111-1.719,3.83-3.83,3.83H42.075c-2.111,0-3.83-1.719-3.83-3.83V41.094h41.703v27.661H79.946z"/>
	<path d="M76.116,76.993H42.073c-0.705,0-1.275,0.57-1.275,1.275s0.57,1.277,1.275,1.277h34.043c0.705,0,1.275-0.572,1.275-1.277
		S76.821,76.993,76.116,76.993z"/>
</g>
</svg>
