<?xml version="1.0" encoding="utf-8"?>
<!-- Generator: Adobe Illustrator 16.0.0, SVG Export Plug-In . SVG Version: 6.00 Build 0)  -->
<!DOCTYPE svg PUBLIC "-//W3C//DTD SVG 1.1//EN" "http://www.w3.org/Graphics/SVG/1.1/DTD/svg11.dtd">
<svg version="1.1" id="Layer_1" xmlns="http://www.w3.org/2000/svg" xmlns:xlink="http://www.w3.org/1999/xlink" x="0px" y="0px"
	 width="85px" height="85px" viewBox="0 0 85 85" enable-background="new 0 0 85 85" xml:space="preserve">
<g>
	<path fill="#FFFFFF" d="M69.91,33.251H15.096c-1.883,0-3.408-1.525-3.408-3.408l0,0c0-1.881,1.524-3.408,3.408-3.408H69.91
		c1.883,0,3.408,1.527,3.408,3.408l0,0C73.318,31.726,71.793,33.251,69.91,33.251z"/>
	<path fill="#D8D8D8" d="M69.91,26.437h-3.234c1.881,0,3.406,1.525,3.406,3.408c0,1.881-1.525,3.408-3.406,3.408h3.234
		c1.883,0,3.408-1.527,3.408-3.408C73.318,27.962,71.793,26.437,69.91,26.437z"/>
	<path fill="#FFFFFF" d="M16.273,33.251L16.273,33.251c0,10.627,8.615,19.244,19.242,19.244v28.791h12.91V52.495h0.631
		c10.627,0,19.242-8.615,19.242-19.242l0,0L16.273,33.251L16.273,33.251z"/>
	<path fill="#D8D8D8" d="M16.273,33.251L16.273,33.251c0,1.104,0.098,2.184,0.275,3.236h51.473c0.178-1.053,0.275-2.133,0.275-3.236
		l0,0H16.273z"/>
	<path fill="#2F2F31" d="M69.91,25.222H57.568v-3.027h3.188c0.67,0,1.213-0.543,1.213-1.213s-0.543-1.213-1.213-1.213h-8.805
		c-0.67,0-1.213,0.543-1.213,1.213s0.543,1.213,1.213,1.213h3.189v3.027h-9.758V9.272c0-3.734-3.039-6.773-6.773-6.773
		c-3.732,0-6.771,3.039-6.771,6.773v2.088c0,0.67,0.543,1.215,1.213,1.215s1.213-0.545,1.213-1.215V9.272
		c0-2.396,1.949-4.346,4.346-4.346s4.346,1.949,4.346,4.346v15.949H29.861v-3.027h3.189c0.668,0,1.213-0.543,1.213-1.213
		s-0.545-1.213-1.213-1.213h-8.805c-0.67,0-1.213,0.543-1.213,1.213s0.543,1.213,1.213,1.213h3.189v3.027H15.092
		c-2.548,0-4.621,2.074-4.621,4.621c0,2.549,2.073,4.623,4.621,4.623h0.004c0.607,10.314,8.889,18.6,19.205,19.207v27.615
		c0,0.67,0.543,1.213,1.213,1.213h12.908c0.67,0,1.215-0.543,1.215-1.213V53.7c10.605-0.299,19.215-8.711,19.832-19.234h0.439
		c2.547,0,4.621-2.074,4.621-4.623C74.531,27.296,72.459,25.222,69.91,25.222z M49.055,51.282h-0.631
		c-0.67,0-1.213,0.543-1.213,1.213v27.578H36.729V52.495c0-0.67-0.543-1.213-1.213-1.213c-9.533,0-17.363-7.439-17.988-16.816
		h49.518C66.418,43.843,58.59,51.282,49.055,51.282z M69.91,32.038h-1.611H16.273h-1.178c-1.209,0-2.195-0.984-2.195-2.195
		c0-1.209,0.986-2.193,2.195-2.193H69.91c1.211,0,2.195,0.984,2.195,2.193C72.105,31.054,71.121,32.038,69.91,32.038z"/>
</g>
</svg>
