<?xml version="1.0" encoding="utf-8"?>
<!-- Generator: Adobe Illustrator 16.0.0, SVG Export Plug-In . SVG Version: 6.00 Build 0)  -->
<!DOCTYPE svg PUBLIC "-//W3C//DTD SVG 1.1//EN" "http://www.w3.org/Graphics/SVG/1.1/DTD/svg11.dtd">
<svg version="1.1" id="Layer_1" xmlns="http://www.w3.org/2000/svg" xmlns:xlink="http://www.w3.org/1999/xlink" x="0px" y="0px"
	 width="85px" height="85px" viewBox="0 0 85 85" enable-background="new 0 0 85 85" xml:space="preserve">
<g>
	<path fill="#162D35" d="M66.486,19.845c1.021,1.262,1.592,2.646,1.211,4.305c-0.5,2.182-2.291,3.662-4.531,3.68
		c-3.082,0.023-6.164,0.023-9.244-0.008c-0.604-0.006-0.826,0.109-0.781,0.76c0.064,0.91,0.035,1.83,0.008,2.746
		c-0.01,0.396,0.107,0.525,0.51,0.516c1.082-0.025,2.166-0.012,3.248-0.008c2.141,0.008,3.678,1.174,4.143,3.137
		c0.439,1.855-0.465,3.592-2.365,4.545c-0.09,0.045-0.17,0.111-0.477,0.312c0.52,0,0.805,0,1.092,0c7.41,0,14.822,0.01,22.232-0.016
		c0.711-0.002,0.996,0.109,0.965,0.916c-0.072,1.764-0.021,1.766-1.764,1.766c-7.271,0-14.545,0.01-21.816-0.018
		c-0.68-0.002-0.869,0.189-0.934,0.861c-0.51,5.412-1.064,10.82-1.604,16.23c-0.033,0.322-0.047,0.65-0.074,1.027
		c2.32-1.027,4.719-1.613,7.102-2.521c-1.123-0.93-1.961-2.021-2.145-3.459c-0.191-1.486-0.258-2.996,0.043-4.473
		c0.549-2.68,3.02-4.416,5.793-4.145c2.557,0.25,4.623,2.486,4.707,5.107c0.021,0.693-0.012,1.391,0.012,2.082
		c0.068,1.896-0.582,3.471-2.164,4.791c1.23,0.371,2.354,0.814,3.539,0.945c0.758,0.084,1.279-0.605,1.283-1.521
		c0.01-2.775-0.012-5.553,0.012-8.328c0.018-1.695,1.143-3.191,2.721-3.715c1.602-0.531,3.354-0.008,4.406,1.33
		c0.551,0.697,0.854,1.494,0.855,2.383c0.006,4.523,0.035,9.051-0.012,13.572c-0.033,3.359-2.584,6.076-6.006,6.449
		c-0.559,0.062-0.652,0.232-0.65,0.734c0.02,3.969,0,7.938,0.023,11.906c0.002,0.557-0.098,0.75-0.707,0.746
		c-5.328-0.027-10.658-0.021-15.988-0.006c-0.494,0.002-0.738-0.092-0.645-0.629c0.023-0.135,0.006-0.275,0.004-0.416
		c-0.004-0.555,0.184-1.229-0.066-1.629c-0.262-0.414-0.932,0.045-1.436,0.01c-0.953-0.066-1.754-0.896-2.512-0.859
		c-0.783,0.037-1.57,0.816-2.523,0.848c-0.477,0.016-0.93-0.1-1.457-0.197c0,0.799-0.018,1.545,0.008,2.289
		c0.012,0.396-0.045,0.588-0.525,0.586c-4.996-0.018-9.992-0.016-14.988-0.002c-0.43,0.002-0.529-0.162-0.484-0.533
		c0.016-0.137,0.002-0.277,0.002-0.416c-0.004-0.582,0.195-1.291-0.066-1.715c-0.277-0.445-0.977,0.043-1.51,0.002
		c-2.061-0.16-3.719-1.848-3.746-3.967c-0.029-2.357-0.008-4.719-0.008-7.078c0-0.271,0-0.541,0-0.92
		c-1.191,0.76-2.383,1.223-3.711,1.295c-0.516,0.027-0.275,0.469-0.275,0.711c-0.016,3.914-0.037,7.828,0.008,11.74
		c0.01,0.75-0.193,0.895-0.906,0.891c-5.189-0.033-10.383-0.037-15.572,0.004c-0.766,0.006-0.943-0.215-0.877-0.916
		c0.062-0.631,0.014-1.271,0.014-1.949c-0.684,0.125-1.307,0.246-1.942,0.137c-1.963-0.34-3.366-1.945-3.38-3.951
		c-0.021-3.219-0.027-6.439,0.003-9.658c0.024-2.68,1.704-5.074,4.239-6.014c1.945-0.721,3.926-1.344,5.889-2.008
		c0.053-0.271-0.189-0.318-0.314-0.434c-1.19-1.088-1.828-2.434-1.818-4.043c0.006-1.162-0.13-2.332,0.124-3.486
		c0.59-2.684,2.999-4.422,5.782-4.17c2.588,0.234,4.666,2.498,4.738,5.168c0.014,0.527-0.021,1.057,0.01,1.582
		c0.121,2.051-0.428,3.832-2.189,5.248c1.199,0.336,2.271,0.693,3.373,0.926c0.82,0.174,1.469-0.521,1.473-1.49
		c0.012-2.609,0.004-5.219,0.006-7.828c0-2.268,0.879-3.387,2.926-4.332c1.035-0.479,0.031-1.52,0.197-2.299
		c0.119-0.561-0.375-0.479-0.725-0.479c-7.605,0-15.212-0.008-22.818,0.014c-0.678,0.002-0.957-0.082-0.924-0.871
		c0.071-1.805,0.02-1.807,1.803-1.807c7.105,0,14.211,0,21.318,0c0.303,0,0.605,0,0.924,0c-0.012-0.385-0.35-0.34-0.533-0.441
		c-1.635-0.891-2.479-2.666-2.068-4.41c0.439-1.867,1.965-3.111,3.885-3.141c1.166-0.018,2.332-0.018,3.498,0.004
		c0.391,0.008,0.531-0.096,0.52-0.506c-0.029-0.943-0.041-1.889,0.004-2.83c0.027-0.549-0.143-0.688-0.684-0.682
		c-2.859,0.025-5.721-0.045-8.576,0.031c-2.244,0.061-3.924-0.754-5.027-2.719c-0.502-0.377-0.525-0.959-0.586-1.498
		c-0.262-2.326,1.262-4.602,3.543-5.146c1.533-0.365,3.109-0.393,4.666-0.01c3.375,0,6.752,0,10.16,0
		c-1.471-3.648-0.77-7.428-0.777-11.131c-0.006-2.654,2.439-4.795,5.123-4.818c4.301-0.039,8.602-0.008,12.902-0.021
		c0.404-0.002,0.6,0.061,0.576,0.533c-0.043,0.857,0.031,1.723-0.041,2.578c-0.135,1.564-0.83,2.871-2.111,3.797
		c-0.412,0.299-0.529,0.602-0.537,1.09c-0.033,1.883,0.154,3.771-0.127,5.648c-0.119,0.797-0.475,1.518-0.73,2.322
		c3.545,0,7.029,0,10.518,0c1.977-0.377,3.924-0.48,5.736,0.623C66.154,19.274,66.422,19.481,66.486,19.845z"/>
	<path fill="#9ACAD2" d="M25.184,18.483c-0.994,0.008-1.988,0.021-2.984,0.023c-3.66,0.012-5.787,2.908-4.689,6.387
		c0.025,0.078,0.037,0.162,0.053,0.242c-1.006,0.014-2.014,0.029-3.021,0.043c-0.273-1.117-1.102-1.123-2.031-1.1
		c-1.83,0.047-3.66,0.027-5.492,0.008c-1.512-0.018-2.074-0.564-2.08-2.064c-0.014-5.02-0.016-10.041,0-15.061
		c0.005-1.453,0.57-2.023,2.029-2.025c6.99-0.018,13.98-0.01,20.971-0.006c0.221,0,0.443,0.01,0.662,0.061
		c0.395,0.092,0.504,0.311,0.291,0.66c-0.248,0.404-0.564,0.758-0.871,1.113c-1.049,1.221-2.037,2.492-3.088,3.709
		c-0.594,0.689-0.879,1.461-0.834,2.367c0.016,0.332,0.029,0.668-0.004,0.998c-0.09,0.928-0.027,1.758,1.092,2.031
		C25.184,16.741,25.184,17.612,25.184,18.483z"/>
	<path fill="#9ACAD2" d="M66.486,19.845c-1.229-1.084-2.676-1.449-4.283-1.344c-0.686,0.043-1.377-0.01-2.064-0.02
		c-0.449-0.828-0.285-1.732-0.328-2.611c0.121-0.174,0.312-0.234,0.502-0.268c0.398-0.068,0.564-0.312,0.566-0.695
		c0.014-1.803,0.055-3.605-0.023-5.408c-0.025-0.631-0.348-1.16-0.709-1.662c-0.469-0.654-0.994-1.268-1.426-1.947
		c-0.408-0.645-0.287-0.859,0.48-0.947c0.193-0.02,0.389-0.018,0.582-0.018c5.994,0,11.986,0,17.98,0c0.166,0,0.332,0,0.498,0.01
		c1.197,0.072,1.764,0.627,1.793,1.844c0.037,1.662,0.01,3.328,0.012,4.992c0,1.693,0.023,3.387-0.012,5.078
		c-0.025,1.301-0.598,1.879-1.896,1.906c-1.887,0.039-3.773,0.043-5.658-0.002c-0.932-0.021-1.76-0.012-2.045,1.098
		C69.131,19.849,67.809,19.847,66.486,19.845z"/>
	<path fill="#162D35" d="M25.184,15.87c-1.34-0.066-1.229-0.078-1.367-1.453c-0.217-2.146,0.418-3.871,1.941-5.398
		c1.131-1.133,2.08-2.447,3.111-3.686c-0.172-0.264-0.416-0.145-0.611-0.145C21.152,5.183,14.047,5.183,6.941,5.185
		c-1.314,0-1.752,0.434-1.752,1.74c-0.002,5.051-0.002,10.104,0,15.154c0,1.314,0.437,1.756,1.736,1.758
		c2.192,0.004,4.387,0.045,6.578-0.021c0.84-0.025,1.174,0.193,1.018,1.033c-0.02,0.105,0.012,0.219,0.021,0.33
		c-0.064,1.324-0.064,1.324-1.451,1.324c-2.107,0-4.216,0.006-6.324,0c-2.545-0.01-4.237-1.68-4.241-4.207
		c-0.009-5.186-0.009-10.371,0-15.557c0.003-2.535,1.688-4.217,4.228-4.219c7.32-0.006,14.643,0.002,21.963-0.006
		c1.186-0.002,2.115,0.416,2.654,1.502c0.557,1.129,0.287,2.143-0.496,3.074c-1.303,1.549-2.574,3.123-3.895,4.658
		c-0.35,0.408-0.521,0.809-0.48,1.34c0.035,0.439,0.008,0.887,0.008,1.33C26.508,15.806,26.508,15.806,25.184,15.87z"/>
	<path fill="#162D35" d="M70.455,19.851c0.064-1.342,0.064-1.342,1.451-1.342c2.109,0,4.219,0.008,6.326-0.002
		c1.084-0.006,1.568-0.492,1.57-1.586c0.01-3.385,0.008-6.77,0-10.154c-0.002-1.023-0.471-1.57-1.41-1.574
		c-6.574-0.012-13.148-0.006-19.887-0.006c0.639,0.855,1.186,1.635,1.779,2.375c0.617,0.771,0.906,1.611,0.879,2.611
		c-0.047,1.58-0.057,3.164,0.006,4.744c0.029,0.76-0.188,1.062-0.945,0.934c-0.133-0.023-0.275,0.014-0.414,0.021
		c-1.324-0.064-1.324-0.064-1.324-1.453c0-0.334-0.033-0.67,0.006-0.998c0.303-2.504-0.18-4.723-2.057-6.58
		c-0.785-0.777-0.834-1.854-0.305-2.869c0.525-1.008,1.395-1.453,2.518-1.453c6.578,0.002,13.154-0.006,19.73,0.006
		c2.375,0.006,4.078,1.725,4.088,4.109c0.016,3.469,0.016,6.938,0.002,10.406c-0.012,2.43-1.713,4.119-4.152,4.131
		c-2.275,0.014-4.553-0.037-6.826,0.025c-0.814,0.02-1.186-0.16-1.016-1.016C70.496,20.077,70.463,19.96,70.455,19.851z"/>
	<path fill="#C0B5A6" d="M45.543,58.091c2.854-2.271,2.555-5.273,2.055-8.18c-0.439-2.549-3.047-4.172-5.709-3.912
		c-2.521,0.246-4.613,2.461-4.707,5.02c-0.037,0.971-0.041,1.943,0.002,2.912c0.074,1.674,0.852,3.006,2.223,4.115
		c-2.498,1.062-5.141,1.51-7.537,2.842c-0.012-0.268-0.029-0.5-0.029-0.73c-0.002-3.523-0.021-7.049,0.008-10.57
		c0.012-1.453-0.418-2.674-1.578-3.58c-0.297-0.234-0.371-0.527-0.406-0.867c-0.16-1.543-0.303-3.088-0.498-4.627
		c-0.072-0.564,0.102-0.695,0.648-0.693c8.322,0.016,16.645,0.018,24.969-0.004c0.648-0.002,0.703,0.236,0.648,0.777
		c-0.676,6.617-1.336,13.236-1.99,19.855c-0.055,0.539-0.08,0.855-0.73,0.395c-1.379-0.98-3.061-1.258-4.613-1.832
		C47.439,58.692,46.564,58.429,45.543,58.091z"/>
	<path fill="#03628B" d="M10.518,73.161c0-1.973-0.014-3.941,0.011-5.912c0.007-0.541-0.099-0.783-0.72-0.785
		c-1.955-0.006-1.955-0.033-1.955,1.955c0,0.943,0.105,1.904-0.028,2.828c-0.168,1.16-1.146,0.375-1.735,0.535
		c-0.354,0.096-0.923,0.23-0.91-0.545c0.029-1.748-0.068-3.502,0.037-5.244c0.096-1.594,0.984-2.799,2.479-3.35
		c2.573-0.943,5.192-1.76,7.792-2.639c0.336-0.113,0.645-0.064,0.971,0.031c1.594,0.467,3.188,0.93,4.785,1.381
		c2.775,0.783,5.246-1.08,5.264-3.969c0.006-1.193,0.021-2.389-0.008-3.58c-0.016-0.525,0.125-0.723,0.689-0.729
		c1.984-0.025,1.984-0.047,1.984,1.926c0,2.414,0.004,4.83-0.002,7.244c-0.006,2.459-1.725,4.145-4.201,4.178
		c-0.793,0.012-1.809-0.355-2.318,0.174c-0.467,0.484-0.131,1.482-0.135,2.254c-0.016,3.357-0.025,6.717,0.01,10.074
		c0.008,0.678-0.209,0.832-0.85,0.826c-3.441-0.027-6.883-0.027-10.326,0c-0.639,0.006-0.865-0.148-0.85-0.826
		C10.547,77.046,10.518,75.103,10.518,73.161z"/>
	<path fill="#03628B" d="M61.152,73.14c0-1.971-0.02-3.939,0.012-5.91c0.008-0.568-0.146-0.766-0.742-0.766
		c-1.936-0.002-1.936-0.027-1.936,1.891c0,0.943-0.018,1.889,0.008,2.832c0.014,0.463-0.145,0.615-0.615,0.633
		c-2.059,0.078-2.057,0.094-2.057-1.936c0-1.221-0.012-2.441,0.004-3.662c0.02-1.572,1.1-3.107,2.596-3.625
		c2.541-0.877,5.094-1.711,7.639-2.574c0.361-0.121,0.693-0.084,1.051,0.02c1.701,0.494,3.396,1.01,5.111,1.439
		c2.48,0.619,4.855-1.234,4.914-3.803c0.027-1.275,0.029-2.555-0.006-3.83c-0.016-0.551,0.172-0.703,0.713-0.709
		c1.963-0.02,1.963-0.039,1.963,1.945c0,2.414,0.006,4.83-0.002,7.244c-0.006,2.412-1.729,4.125-4.137,4.152
		c-0.801,0.012-1.836-0.342-2.336,0.139c-0.543,0.521-0.174,1.576-0.178,2.396c-0.023,3.33-0.023,6.662,0.002,9.992
		c0.006,0.605-0.143,0.814-0.781,0.809c-3.498-0.029-6.994-0.027-10.492-0.002c-0.596,0.004-0.75-0.193-0.742-0.764
		C61.17,77.081,61.152,75.112,61.152,73.14z"/>
	<path fill="#03506B" d="M37.168,73.14c0-1.969-0.02-3.939,0.01-5.91c0.008-0.57-0.154-0.764-0.746-0.766
		c-1.93-0.006-1.93-0.029-1.93,1.904c0,0.916-0.027,1.832,0.01,2.746c0.023,0.559-0.189,0.697-0.721,0.705
		c-1.955,0.021-1.953,0.039-1.953-1.879c0-1.191-0.004-2.387,0-3.578c0.006-1.721,1.086-3.266,2.693-3.809
		c2.412-0.816,4.834-1.605,7.248-2.422c0.467-0.158,0.896-0.182,1.373-0.02c2.357,0.803,4.73,1.566,7.09,2.369
		c1.914,0.652,2.912,2.072,2.914,4.072c0,1.5-0.021,2.998,0.012,4.496c0.012,0.566-0.146,0.768-0.744,0.771
		c-1.934,0.006-1.934,0.027-1.934-1.9c0-0.943-0.018-1.889,0.008-2.83c0.014-0.477-0.174-0.607-0.633-0.625
		c-2.039-0.076-2.039-0.09-2.039,1.957c0,3.496-0.016,6.992,0.014,10.488c0.006,0.664-0.139,0.916-0.861,0.906
		c-2.996-0.039-5.994-0.035-8.992-0.002c-0.672,0.01-0.846-0.201-0.834-0.85C37.191,77.026,37.168,75.083,37.168,73.14z"/>
	<path fill="#E7D5D5" d="M42.553,10.515c1.551,0,3.104,0.025,4.654-0.014c0.533-0.014,0.645,0.162,0.631,0.656
		c-0.035,1.219,0.006,2.438-0.02,3.656c-0.057,2.945-2.404,5.24-5.336,5.234c-2.93-0.006-5.262-2.309-5.311-5.26
		c-0.021-1.221,0.025-2.439-0.021-3.656c-0.02-0.545,0.178-0.635,0.662-0.627C39.395,10.532,40.973,10.515,42.553,10.515z"/>
	<path fill="#D5CAB8" d="M42.498,37.163c-4.686,0-9.371,0-14.059,0c-0.277,0-0.562,0.027-0.83-0.031
		c-0.668-0.15-1.082-0.58-1.088-1.279c-0.006-0.736,0.412-1.186,1.127-1.33c0.24-0.049,0.496-0.023,0.746-0.023
		c9.4,0,18.801,0,28.201,0c0.25,0,0.506-0.025,0.746,0.021c0.715,0.145,1.135,0.594,1.131,1.328
		c-0.006,0.699-0.416,1.131-1.086,1.283c-0.266,0.059-0.553,0.031-0.83,0.031C51.871,37.163,47.184,37.163,42.498,37.163z"/>
	<path fill="#03628B" d="M52.787,21.173c1.664,0,3.328,0.018,4.992-0.01c0.533-0.008,0.744,0.141,0.719,0.701
		c-0.039,0.885-0.037,1.775,0,2.66c0.02,0.525-0.186,0.66-0.68,0.656c-2.162-0.021-4.326,0.012-6.488-0.021
		c-0.633-0.01-0.873,0.137-0.855,0.822c0.051,1.719-0.002,3.439,0.027,5.158c0.01,0.551-0.172,0.727-0.713,0.705
		c-0.941-0.037-1.887-0.029-2.828-0.002c-0.475,0.016-0.717-0.146-0.793-0.625c-0.209-1.334-0.436-2.668-0.664-4
		c-0.08-0.471,0.078-0.846,0.33-1.238c0.607-0.945,0.818-1.973,0.541-3.09c-0.084-0.336-0.461-0.771-0.199-0.992
		c0.422-0.352,0.883-0.742,1.535-0.73C49.402,21.19,51.096,21.173,52.787,21.173z"/>
	<path fill="#03628B" d="M32.256,21.173c1.609,0,3.217,0,4.826,0.002c0.193,0,0.395-0.016,0.58,0.025
		c0.959,0.219,1.25,0.721,0.977,1.658c-0.324,1.109-0.131,2.15,0.504,3.086c0.342,0.502,0.402,0.98,0.287,1.561
		c-0.234,1.191-0.428,2.391-0.59,3.594c-0.074,0.545-0.289,0.77-0.855,0.746c-0.939-0.039-1.885-0.035-2.828-0.002
		c-0.512,0.018-0.672-0.162-0.664-0.668c0.025-1.664-0.049-3.332,0.033-4.992c0.043-0.893-0.271-1.051-1.076-1.029
		c-2.078,0.055-4.16,0.002-6.24,0.027c-0.541,0.008-0.738-0.152-0.713-0.705c0.039-0.885,0.037-1.775,0-2.662
		c-0.021-0.529,0.195-0.654,0.684-0.648C28.873,21.187,30.564,21.173,32.256,21.173z"/>
	<path fill="#7E7367" d="M18.51,52.493c0.361,1.93-0.527,3.195-2.166,4.059c-0.211,0.111-0.379,0.293-0.678,0.195
		c-1.416-0.463-2.48-1.895-2.482-3.389c-0.002-0.719-0.021-1.439,0.006-2.158c0.059-1.451,1.203-2.545,2.639-2.551
		c1.438-0.006,2.602,1.078,2.678,2.514C18.529,51.604,18.51,52.048,18.51,52.493z"/>
	<path fill="#7E7367" d="M45.16,52.56c0.375,1.957-0.613,3.166-2.223,4.029c-0.188,0.1-0.346,0.244-0.607,0.164
		c-1.381-0.416-2.492-1.906-2.496-3.379c-0.002-0.719-0.021-1.439,0.006-2.158c0.055-1.492,1.215-2.58,2.705-2.566
		c1.426,0.014,2.557,1.125,2.613,2.58C45.176,51.673,45.16,52.116,45.16,52.56z"/>
	<path fill="#7E7367" d="M63.816,52.448c-0.016-1.078-0.107-2.166,0.785-3.023c0.801-0.768,1.73-0.996,2.748-0.633
		c1.084,0.385,1.719,1.205,1.783,2.369c0.051,0.883,0.037,1.771,0.004,2.656c-0.045,1.131-1.379,2.652-2.514,2.945
		c-0.189,0.049-0.32-0.023-0.465-0.104c-1.504-0.818-2.619-1.875-2.346-3.795C63.834,52.728,63.816,52.587,63.816,52.448z"/>
	<path fill="#7E7367" d="M42.873,7.849c-1.691,0-3.383-0.018-5.072,0.008c-0.613,0.012-0.703-0.201-0.529-0.744
		c0.355-1.109,1.283-1.91,2.443-1.918c3.41-0.023,6.816-0.004,10.227-0.018c0.533-0.002,0.594,0.209,0.473,0.666
		c-0.32,1.195-1.328,1.99-2.637,2.002C46.143,7.858,44.506,7.849,42.873,7.849z"/>
	<path fill="#E7D5D5" d="M23.842,23.175c0,0.139,0.02,0.281-0.002,0.416c-0.088,0.52,0.275,1.178-0.201,1.543
		c-0.506,0.387-2.691-0.051-3.158-0.521c-0.572-0.574-0.791-1.258-0.521-2.051c0.264-0.785,0.83-1.217,1.627-1.369
		c0.027-0.006,0.055-0.004,0.084-0.008C23.842,20.94,23.842,20.94,23.842,23.175z"/>
	<path fill="#E7D5D5" d="M61.152,23.14c0-0.027-0.004-0.055,0-0.082c0.07-0.621-0.299-1.574,0.164-1.789
		c0.633-0.295,1.527-0.137,2.285-0.021c0.938,0.145,1.576,1.066,1.541,1.998s-0.746,1.734-1.682,1.9
		c-0.027,0.004-0.057,0.004-0.082,0.01C61.152,25.46,61.152,25.46,61.152,23.14z"/>
	<path fill="#E6D5D5" d="M27.814,50.517c-0.51-0.186-1.418,0.441-1.328-0.826c0.088-1.236,0.492-1.887,1.389-1.861
		c0.867,0.023,1.229,0.645,1.314,1.852C29.289,51.034,28.295,50.278,27.814,50.517z"/>
	<path fill="#E6D4D5" d="M78.357,50.489c-0.508-0.094-1.346,0.381-1.238-0.844c0.104-1.188,0.477-1.814,1.352-1.816
		s1.336,0.621,1.338,1.812C79.807,50.489,79.807,50.489,78.357,50.489z"/>
	<path fill="#E6D4D5" d="M6.514,74.452c0.514,0.18,1.461-0.471,1.358,0.85c-0.092,1.193-0.467,1.82-1.338,1.832
		c-0.875,0.01-1.263-0.627-1.369-1.803C5.047,74.03,5.967,74.604,6.514,74.452z"/>
	<path fill="#DEBEBE" d="M33.168,74.452c0.525,0.17,1.465-0.449,1.355,0.863c-0.098,1.184-0.479,1.814-1.35,1.816
		c-0.875,0.002-1.256-0.629-1.357-1.809C31.705,74.021,32.631,74.612,33.168,74.452z"/>
	<path fill="#DEBEBE" d="M51.809,74.462c0.619,0.096,1.488-0.379,1.371,0.887c-0.107,1.162-0.512,1.805-1.387,1.783
		c-0.867-0.021-1.234-0.645-1.32-1.844C50.377,73.956,51.355,74.667,51.809,74.462z"/>
	<path fill="#E6D4D5" d="M57.176,74.442c0.521,0.18,1.422-0.424,1.33,0.832c-0.088,1.23-0.498,1.889-1.395,1.857
		c-0.863-0.027-1.225-0.648-1.309-1.857C55.709,73.917,56.711,74.69,57.176,74.442z"/>
	<path fill="#E0493D" d="M42.463,31.833c-1.074,0-1.066,0.002-0.867-1.104c0.146-0.814,0.287-1.631,0.393-2.451
		c0.049-0.359,0.211-0.453,0.543-0.451c0.314,0.004,0.43,0.135,0.471,0.436c0.113,0.82,0.246,1.637,0.393,2.453
		C43.594,31.835,43.602,31.835,42.463,31.833z"/>
	<path fill="#C63831" d="M43.824,23.825c0.01,0.729-0.561,1.322-1.289,1.342c-0.764,0.021-1.381-0.588-1.367-1.352
		c0.014-0.736,0.418-1.111,1.209-1.117C43.389,22.69,43.816,23.022,43.824,23.825z"/>
	<path fill="#162D35" d="M13.764,10.515c-1.748,0-3.496-0.023-5.242,0.012C7.96,10.54,7.84,10.353,7.84,9.825
		c0-1.977-0.018-1.977,1.975-1.977c3.078,0,6.158,0.014,9.236-0.012c0.566-0.004,0.828,0.061,0.814,0.742
		c-0.037,1.934,0,1.936-1.939,1.936C16.539,10.515,15.15,10.515,13.764,10.515z"/>
	<path fill="#162D35" d="M13.891,13.179c1.775,0,3.551,0.021,5.326-0.012c0.527-0.01,0.637,0.16,0.641,0.658
		c0.016,2.02,0.033,2.02-2.014,2.02c-3.078,0-6.158-0.02-9.236,0.016c-0.639,0.008-0.779-0.176-0.77-0.785
		c0.028-1.895,0.002-1.896,1.891-1.896C11.116,13.179,12.502,13.179,13.891,13.179z"/>
	<path fill="#162D35" d="M11.225,18.509c0.916,0,1.832,0.023,2.746-0.01c0.451-0.016,0.543,0.15,0.555,0.572
		c0.064,2.104,0.078,2.104-2.01,2.104c-1.33,0-2.662-0.029-3.992,0.014c-0.561,0.018-0.684-0.172-0.684-0.701
		c0-1.979-0.019-1.979,1.971-1.979C10.282,18.509,10.754,18.509,11.225,18.509z"/>
	<path fill="#162D35" d="M70.537,7.849c1.996,0,3.994,0.012,5.99-0.008c0.447-0.004,0.617,0.088,0.627,0.584
		c0.049,2.088,0.066,2.088-2.029,2.088c-3.494,0-6.99-0.014-10.486,0.014c-0.615,0.006-0.855-0.107-0.84-0.799
		c0.045-1.879,0.008-1.879,1.91-1.879C67.318,7.849,68.926,7.849,70.537,7.849z"/>
	<path fill="#162D35" d="M70.443,15.843c-1.998,0-3.996-0.018-5.992,0.014c-0.52,0.008-0.645-0.146-0.646-0.652
		c-0.014-2.025-0.033-2.025,2.01-2.025c3.521,0,7.045,0.018,10.568-0.016c0.629-0.006,0.785,0.162,0.775,0.781
		c-0.029,1.898-0.002,1.898-1.889,1.898C73.662,15.843,72.053,15.843,70.443,15.843z"/>
</g>
</svg>
