<?xml version="1.0" encoding="utf-8"?>
<!-- Generator: Adobe Illustrator 16.0.0, SVG Export Plug-In . SVG Version: 6.00 Build 0)  -->
<!DOCTYPE svg PUBLIC "-//W3C//DTD SVG 1.1//EN" "http://www.w3.org/Graphics/SVG/1.1/DTD/svg11.dtd">
<svg version="1.1" id="Layer_1" xmlns="http://www.w3.org/2000/svg" xmlns:xlink="http://www.w3.org/1999/xlink" x="0px" y="0px"
	 width="85px" height="85px" viewBox="0 0 85 85" enable-background="new 0 0 85 85" xml:space="preserve">
<g id="Group_1138" transform="translate(-394.939 -115.928)">
	<g id="Group_1130">
		<circle id="Ellipse_132" opacity="0.1" fill="#534741" enable-background="new    " cx="437.439" cy="161.072" r="37.356"/>
		<circle id="Ellipse_133" fill="#F2F4EF" cx="437.439" cy="155.784" r="37.356"/>
		<circle id="Ellipse_134" fill="#E6EAE1" cx="437.439" cy="155.784" r="26.192"/>
	</g>
	<g id="Group_1133">
		<g id="Group_1131" opacity="0.1">
			<path id="Path_778" fill="#534741" d="M440.419,138.625v24.961h24.961v-19.693l-5.268-5.268H440.419z"/>
			<path id="Path_779" fill="#534741" d="M460.113,138.625l5.268,5.268h-5.268V138.625z"/>
		</g>
		<g id="Group_1132">
			<path id="Path_780" fill="#E28579" d="M440.419,138.625v23.451c0,0.416,0.338,0.754,0.754,0.754h23.449
				c0.418,0,0.756-0.338,0.756-0.754v-18.941l-5.266-5.266h-18.939C440.757,137.871,440.419,138.209,440.419,138.625z"/>
			<path id="Path_781" opacity="0.1" fill="#534741" enable-background="new    " d="M465.378,144.032h-5.266v-1.65l5.266,0.754
				V144.032z"/>
			<path id="Path_782" fill="#EDAEA9" d="M460.113,137.871l5.266,5.266h-4.51c-0.416,0-0.756-0.338-0.756-0.756V137.871z"/>
		</g>
		<ellipse id="Ellipse_135" fill="#EDAEA9" cx="451.703" cy="154.402" rx="1.557" ry="0.376"/>
		<ellipse id="Ellipse_136" fill="#EDAEA9" cx="459.593" cy="149.976" rx="1.559" ry="0.376"/>
		<ellipse id="Ellipse_137" fill="#EDAEA9" cx="444.845" cy="144.941" rx="1.559" ry="0.376"/>
		<ellipse id="Ellipse_138" fill="#EDAEA9" cx="454.097" cy="142.275" rx="1.559" ry="0.376"/>
	</g>
	<path id="Path_783" opacity="0.1" fill="#534741" enable-background="new    " d="M437.285,154.278
		c3.277,3.932,1.684,7.494-3.212,7.754c-0.26,4.895-3.821,6.488-7.755,3.211c-3.934,3.277-7.495,1.684-7.755-3.211
		c-4.896-0.26-6.489-3.822-3.212-7.754c-3.277-3.936-1.684-7.496,3.212-7.756c0.261-4.895,3.821-6.49,7.755-3.211
		c3.934-3.279,7.495-1.684,7.755,3.211C438.968,146.782,440.562,150.342,437.285,154.278z"/>
	<path id="Path_784" fill="#99C64A" d="M437.285,153.522c3.277,3.934,1.684,7.494-3.212,7.756c-0.26,4.895-3.821,6.488-7.755,3.211
		c-3.934,3.277-7.495,1.684-7.755-3.211c-4.896-0.262-6.489-3.822-3.212-7.756c-3.277-3.934-1.684-7.494,3.212-7.754
		c0.261-4.896,3.821-6.49,7.755-3.213c3.934-3.277,7.495-1.684,7.755,3.213C438.968,146.026,440.562,149.586,437.285,153.522z"/>
	<g id="Group_1134">
		<circle id="Ellipse_139" opacity="0.1" fill="#534741" enable-background="new    " cx="423.947" cy="158.449" r="4.172"/>
		<circle id="Ellipse_140" fill="#F9912B" cx="423.947" cy="157.694" r="4.172"/>
		<circle id="Ellipse_141" fill="#FFA655" cx="423.947" cy="157.694" r="2.031"/>
	</g>
	<g id="Group_1135">
		<circle id="Ellipse_142" opacity="0.1" fill="#534741" enable-background="new    " cx="423.947" cy="151.642" r="4.173"/>
		<circle id="Ellipse_143" fill="#F9912B" cx="423.947" cy="150.887" r="4.172"/>
		<circle id="Ellipse_144" fill="#FFA655" cx="423.947" cy="150.887" r="2.031"/>
	</g>
	<g id="Group_1136">
		<path id="Path_785" opacity="0.1" fill="#534741" enable-background="new    " d="M458.293,175.823
			c-0.998,1.832-3.291,2.51-5.123,1.512c-1.104-0.602-1.836-1.711-1.953-2.961c-1.021-10.785-0.996-21.645,0.074-32.424
			c0.207-2.076,2.059-3.59,4.135-3.383c2.074,0.207,3.59,2.059,3.383,4.133c-1.023,10.295-1.051,20.664-0.076,30.961
			C458.806,174.41,458.652,175.162,458.293,175.823z"/>
		<path id="Path_786" fill="#B76F4B" d="M457.515,173.565c-0.996,1.832-3.291,2.51-5.123,1.514c-1.104-0.6-1.838-1.711-1.957-2.963
			c-1.02-10.785-0.992-21.645,0.08-32.424c0.188-2.078,2.023-3.609,4.102-3.422s3.609,2.021,3.422,4.1
			c-0.002,0.025-0.004,0.049-0.006,0.072c-1.025,10.293-1.051,20.662-0.076,30.961C458.029,172.151,457.875,172.903,457.515,173.565
			z"/>
		<path id="Path_787" opacity="0.1" fill="#534741" enable-background="new    " d="M453.937,137.16
			c-0.461-0.045-0.924,0-1.367,0.129c1.713,0.451,2.846,2.078,2.672,3.84c-0.98,9.85-1.006,19.77-0.074,29.623
			c0.166,1.729-0.926,3.328-2.594,3.807c1.92,0.518,3.896-0.617,4.416-2.539c0.111-0.418,0.148-0.854,0.107-1.283
			c-0.932-9.854-0.906-19.773,0.076-29.621C457.373,139.129,455.923,137.36,453.937,137.16z"/>
		
			<ellipse id="Ellipse_145" transform="matrix(-0.1682 0.9858 -0.9858 -0.1682 667.3865 -280.8804)" opacity="0.2" fill="#FFE8C2" enable-background="new    " cx="452.199" cy="141.135" rx="1.579" ry="0.915"/>
	</g>
	<g id="Group_1137">
		<circle id="Ellipse_146" opacity="0.1" fill="#534741" enable-background="new    " cx="437.439" cy="157.751" r="13.097"/>
		<circle id="Ellipse_147" fill="#FFFFFF" cx="437.439" cy="156.241" r="13.096"/>
		<circle id="Ellipse_148" opacity="0.1" fill="#534741" enable-background="new    " cx="437.439" cy="156.241" r="5.953"/>
		<circle id="Ellipse_149" fill="#F9CC4E" cx="437.439" cy="156.24" r="5.718"/>
		<path id="Path_788" opacity="0.1" fill="#534741" enable-background="new    " d="M437.439,160.463
			c-2.725-0.002-5.068-1.924-5.605-4.594c-0.074,0.371-0.111,0.748-0.111,1.125c0,3.158,2.039,6.473,5.717,6.473
			s5.719-3.314,5.719-6.473c0-0.377-0.039-0.754-0.113-1.125C442.509,158.541,440.164,160.461,437.439,160.463z"/>
		<ellipse id="Ellipse_150" fill="#FFE8C2" cx="437.439" cy="153.226" rx="1.564" ry="1.093"/>
		
			<ellipse id="Ellipse_151" transform="matrix(-0.7071 0.7071 -0.7071 -0.7071 838.9183 -48.5923)" opacity="0.5" fill="#BC8F48" enable-background="new    " cx="429.523" cy="149.449" rx="0.486" ry="0.33"/>
		
			<ellipse id="Ellipse_152" transform="matrix(-0.7071 0.7071 -0.7071 -0.7071 841.0323 -44.6204)" opacity="0.5" fill="#BC8F48" enable-background="new    " cx="429.757" cy="151.873" rx="0.696" ry="0.472"/>
	</g>
</g>
</svg>
