<?xml version="1.0" encoding="utf-8"?>
<!-- Generator: Adobe Illustrator 16.0.0, SVG Export Plug-In . SVG Version: 6.00 Build 0)  -->
<!DOCTYPE svg PUBLIC "-//W3C//DTD SVG 1.1//EN" "http://www.w3.org/Graphics/SVG/1.1/DTD/svg11.dtd">
<svg version="1.1" id="Layer_1" xmlns="http://www.w3.org/2000/svg" xmlns:xlink="http://www.w3.org/1999/xlink" x="0px" y="0px"
	 width="85px" height="85px" viewBox="0 0 85 85" enable-background="new 0 0 85 85" xml:space="preserve">
<g>
	<g enable-background="new    ">
		<path fill="#EC008C" d="M8.163,49.89H6.319V38.17c-0.438,0.419-1.026,0.848-1.744,1.266c-0.717,0.419-1.365,0.737-1.933,0.947
			v-1.774c1.026-0.488,1.923-1.066,2.7-1.754c0.768-0.688,1.315-1.355,1.635-2.003h1.186V49.89z"/>
	</g>
	<g enable-background="new    ">
		<path d="M8.306,50.032H6.177V38.491c-0.415,0.358-0.929,0.717-1.529,1.067c-0.731,0.427-1.39,0.749-1.956,0.957L2.5,40.587v-2.068
			l0.081-0.038c1.033-0.492,1.905-1.059,2.668-1.732c0.755-0.677,1.294-1.336,1.601-1.959l0.039-0.08h1.417V50.032z M6.462,49.748
			h1.559V34.994H7.064c-0.328,0.632-0.875,1.293-1.627,1.967c-0.763,0.675-1.631,1.243-2.653,1.737v1.478
			c0.507-0.203,1.084-0.492,1.72-0.863c0.703-0.41,1.281-0.829,1.717-1.245l0.241-0.23V49.748z"/>
	</g>
	<g enable-background="new    ">
		<path fill="#EC008C" d="M11.701,42.505c0-1.773,0.179-3.198,0.548-4.275c0.369-1.076,0.907-1.913,1.624-2.501
			c0.718-0.588,1.625-0.877,2.711-0.877c0.808,0,1.505,0.159,2.113,0.488c0.607,0.319,1.105,0.787,1.504,1.396
			c0.399,0.607,0.708,1.355,0.928,2.232c0.229,0.877,0.339,2.053,0.339,3.537c0,1.754-0.18,3.18-0.539,4.256
			c-0.358,1.076-0.896,1.913-1.624,2.501c-0.718,0.588-1.624,0.888-2.721,0.888c-1.445,0-2.581-0.519-3.398-1.555
			C12.199,47.349,11.701,45.315,11.701,42.505z M13.595,42.505c0,2.462,0.289,4.097,0.867,4.913
			c0.577,0.817,1.285,1.227,2.132,1.227c0.848,0,1.555-0.409,2.133-1.227c0.578-0.816,0.867-2.451,0.867-4.902
			c0-2.462-0.289-4.106-0.867-4.914c-0.578-0.807-1.296-1.216-2.152-1.216c-0.848,0-1.515,0.359-2.023,1.077
			C13.913,38.359,13.595,40.044,13.595,42.505z"/>
	</g>
	<g enable-background="new    ">
		<path d="M16.584,50.291c-1.487,0-2.668-0.541-3.51-1.608c-1.006-1.27-1.516-3.348-1.516-6.178c0-1.79,0.187-3.244,0.556-4.321
			c0.379-1.104,0.94-1.968,1.669-2.565c0.736-0.604,1.679-0.909,2.801-0.909c0.839,0,1.552,0.166,2.181,0.506
			c0.617,0.323,1.141,0.809,1.556,1.442c0.404,0.616,0.723,1.382,0.946,2.275c0.23,0.883,0.343,2.053,0.343,3.572
			c0,1.768-0.184,3.215-0.545,4.301c-0.369,1.105-0.931,1.97-1.67,2.567C18.65,49.982,17.705,50.291,16.584,50.291z M16.584,34.994
			c-1.055,0-1.937,0.284-2.62,0.845c-0.688,0.562-1.219,1.383-1.58,2.438c-0.358,1.047-0.541,2.47-0.541,4.229
			c0,2.764,0.489,4.783,1.455,6.001c0.785,0.996,1.891,1.501,3.286,1.501c1.054,0,1.938-0.287,2.631-0.854
			c0.697-0.563,1.228-1.383,1.579-2.437c0.353-1.057,0.531-2.474,0.531-4.211c0-1.495-0.109-2.641-0.334-3.502
			c-0.217-0.863-0.521-1.6-0.909-2.189c-0.388-0.593-0.876-1.046-1.451-1.348C18.043,35.148,17.374,34.994,16.584,34.994z
			 M16.594,48.787c-0.889,0-1.646-0.434-2.248-1.286c-0.602-0.85-0.894-2.484-0.894-4.996c0-2.483,0.331-4.208,0.983-5.125
			c0.533-0.754,1.253-1.136,2.139-1.136c0.899,0,1.662,0.429,2.269,1.275c0.593,0.828,0.894,2.509,0.894,4.996
			c0,2.505-0.292,4.136-0.894,4.985C18.239,48.354,17.482,48.787,16.594,48.787z M16.574,36.528c-0.799,0-1.423,0.333-1.907,1.017
			c-0.617,0.868-0.93,2.537-0.93,4.96c0,2.417,0.282,4.043,0.841,4.831c0.555,0.784,1.214,1.166,2.016,1.166
			c0.803,0,1.462-0.382,2.017-1.166c0.558-0.788,0.841-2.411,0.841-4.82c0-2.427-0.282-4.052-0.84-4.831
			C18.062,36.918,17.376,36.528,16.574,36.528z"/>
	</g>
	<g enable-background="new    ">
		<path fill="#EC008C" d="M23.879,42.505c0-1.773,0.18-3.198,0.548-4.275c0.369-1.076,0.907-1.913,1.625-2.501
			c0.717-0.588,1.624-0.877,2.71-0.877c0.808,0,1.505,0.159,2.113,0.488c0.607,0.319,1.106,0.787,1.505,1.396
			c0.398,0.607,0.707,1.355,0.927,2.232c0.229,0.877,0.339,2.053,0.339,3.537c0,1.754-0.18,3.18-0.538,4.256
			c-0.359,1.076-0.897,1.913-1.625,2.501c-0.717,0.588-1.624,0.888-2.721,0.888c-1.444,0-2.581-0.519-3.397-1.555
			C24.377,47.349,23.879,45.315,23.879,42.505z M25.772,42.505c0,2.462,0.289,4.097,0.867,4.913
			c0.578,0.817,1.285,1.227,2.133,1.227c0.847,0,1.555-0.409,2.132-1.227c0.578-0.816,0.867-2.451,0.867-4.902
			c0-2.462-0.289-4.106-0.867-4.914c-0.577-0.807-1.295-1.216-2.152-1.216c-0.847,0-1.515,0.359-2.022,1.077
			C26.091,38.359,25.772,40.044,25.772,42.505z"/>
	</g>
	<g enable-background="new    ">
		<path d="M28.762,50.291c-1.487,0-2.668-0.541-3.51-1.608c-1.006-1.27-1.516-3.348-1.516-6.178c0-1.816,0.182-3.229,0.556-4.321
			c0.379-1.104,0.94-1.968,1.669-2.565c0.736-0.604,1.679-0.909,2.801-0.909c0.839,0,1.552,0.166,2.181,0.506
			c0.617,0.323,1.141,0.809,1.557,1.442c0.404,0.616,0.723,1.382,0.945,2.275c0.231,0.883,0.344,2.052,0.344,3.572
			c0,1.768-0.184,3.215-0.546,4.301c-0.368,1.105-0.931,1.97-1.67,2.567C30.828,49.982,29.883,50.291,28.762,50.291z M28.762,34.994
			c-1.055,0-1.937,0.284-2.62,0.845c-0.688,0.562-1.219,1.383-1.58,2.438c-0.358,1.046-0.54,2.469-0.54,4.229
			c0,2.764,0.489,4.783,1.454,6.001c0.785,0.996,1.891,1.501,3.286,1.501c1.054,0,1.938-0.287,2.631-0.854
			c0.697-0.563,1.229-1.383,1.579-2.437c0.353-1.057,0.531-2.474,0.531-4.211c0-1.495-0.109-2.641-0.334-3.502
			c-0.216-0.863-0.521-1.6-0.908-2.189c-0.389-0.593-0.877-1.046-1.452-1.348C30.221,35.148,29.552,34.994,28.762,34.994z
			 M28.772,48.787c-0.889,0-1.646-0.434-2.249-1.286c-0.602-0.85-0.894-2.484-0.894-4.996c0-2.483,0.331-4.208,0.983-5.125
			c0.534-0.754,1.253-1.136,2.139-1.136c0.899,0,1.662,0.429,2.269,1.275c0.593,0.828,0.894,2.509,0.894,4.996
			c0,2.505-0.292,4.136-0.894,4.985C30.417,48.354,29.661,48.787,28.772,48.787z M28.752,36.528c-0.799,0-1.422,0.333-1.906,1.017
			c-0.618,0.868-0.931,2.537-0.931,4.96c0,2.417,0.282,4.043,0.841,4.831c0.555,0.784,1.214,1.166,2.017,1.166
			c0.802,0,1.461-0.382,2.016-1.166c0.559-0.788,0.841-2.411,0.841-4.82c0-2.427-0.282-4.052-0.84-4.831
			C30.239,36.918,29.555,36.528,28.752,36.528z"/>
	</g>
	<g enable-background="new    ">
		<path fill="#EC008C" d="M36.057,42.505c0-1.773,0.18-3.198,0.548-4.275c0.369-1.076,0.907-1.913,1.625-2.501
			c0.717-0.588,1.624-0.877,2.71-0.877c0.808,0,1.505,0.159,2.113,0.488c0.607,0.319,1.106,0.787,1.505,1.396
			c0.398,0.607,0.707,1.355,0.927,2.232c0.229,0.877,0.339,2.053,0.339,3.537c0,1.754-0.18,3.18-0.538,4.256
			c-0.359,1.076-0.897,1.913-1.625,2.501c-0.717,0.588-1.624,0.888-2.721,0.888c-1.444,0-2.581-0.519-3.397-1.555
			C36.555,47.349,36.057,45.315,36.057,42.505z M37.95,42.505c0,2.462,0.289,4.097,0.867,4.913c0.578,0.817,1.285,1.227,2.133,1.227
			c0.847,0,1.555-0.409,2.133-1.227c0.577-0.816,0.866-2.451,0.866-4.902c0-2.462-0.289-4.106-0.866-4.914
			c-0.578-0.807-1.296-1.216-2.153-1.216c-0.847,0-1.515,0.359-2.022,1.077C38.27,38.359,37.95,40.044,37.95,42.505z"/>
	</g>
	<g enable-background="new    ">
		<path d="M40.939,50.291c-1.487,0-2.668-0.541-3.51-1.608c-1.006-1.27-1.516-3.348-1.516-6.178c0-1.816,0.182-3.229,0.556-4.321
			c0.379-1.104,0.94-1.968,1.669-2.565c0.736-0.604,1.679-0.909,2.801-0.909c0.839,0,1.552,0.166,2.181,0.506
			c0.617,0.323,1.141,0.809,1.557,1.442c0.403,0.616,0.722,1.382,0.945,2.275c0.231,0.883,0.344,2.052,0.344,3.572
			c0,1.768-0.184,3.215-0.546,4.301c-0.368,1.105-0.931,1.97-1.67,2.567C43.006,49.982,42.061,50.291,40.939,50.291z M40.939,34.994
			c-1.055,0-1.937,0.284-2.62,0.845c-0.688,0.562-1.219,1.383-1.58,2.438c-0.358,1.046-0.54,2.469-0.54,4.229
			c0,2.764,0.489,4.783,1.454,6.001c0.785,0.996,1.891,1.501,3.286,1.501c1.054,0,1.938-0.287,2.631-0.854
			c0.697-0.563,1.229-1.383,1.58-2.437c0.352-1.057,0.53-2.474,0.53-4.211c0-1.495-0.109-2.641-0.334-3.502
			c-0.217-0.863-0.521-1.601-0.908-2.189c-0.389-0.593-0.877-1.046-1.452-1.348C42.398,35.148,41.729,34.994,40.939,34.994z
			 M40.95,48.787c-0.889,0-1.646-0.434-2.249-1.286c-0.602-0.85-0.894-2.484-0.894-4.996c0-2.483,0.331-4.208,0.983-5.125
			c0.534-0.754,1.254-1.136,2.139-1.136c0.899,0,1.663,0.429,2.269,1.275c0.593,0.828,0.894,2.509,0.894,4.996
			c0,2.505-0.292,4.136-0.893,4.985C42.595,48.354,41.839,48.787,40.95,48.787z M40.93,36.528c-0.799,0-1.422,0.333-1.906,1.017
			c-0.618,0.868-0.931,2.537-0.931,4.96c0,2.417,0.282,4.043,0.841,4.831c0.555,0.784,1.214,1.166,2.017,1.166
			c0.802,0,1.461-0.382,2.016-1.166c0.559-0.788,0.842-2.411,0.842-4.82c0-2.427-0.283-4.052-0.841-4.831
			C42.417,36.918,41.732,36.528,40.93,36.528z"/>
	</g>
	<g enable-background="new    ">
		<path fill="#EC008C" d="M48.234,42.505c0-1.773,0.18-3.198,0.549-4.275c0.368-1.076,0.906-1.913,1.624-2.501
			s1.624-0.877,2.711-0.877c0.807,0,1.505,0.159,2.112,0.488c0.608,0.319,1.106,0.787,1.505,1.396
			c0.398,0.607,0.708,1.355,0.927,2.232c0.229,0.877,0.339,2.053,0.339,3.537c0,1.754-0.18,3.18-0.538,4.256
			s-0.896,1.913-1.624,2.501c-0.718,0.588-1.625,0.888-2.721,0.888c-1.445,0-2.581-0.519-3.398-1.555
			C48.733,47.349,48.234,45.315,48.234,42.505z M50.128,42.505c0,2.462,0.289,4.097,0.867,4.913
			c0.578,0.817,1.285,1.227,2.133,1.227c0.847,0,1.555-0.409,2.133-1.227c0.578-0.816,0.867-2.451,0.867-4.902
			c0-2.462-0.289-4.106-0.867-4.914c-0.578-0.807-1.296-1.216-2.152-1.216c-0.848,0-1.516,0.359-2.023,1.077
			C50.447,38.359,50.128,40.044,50.128,42.505z"/>
	</g>
	<g enable-background="new    ">
		<path d="M53.118,50.291c-1.487,0-2.669-0.541-3.511-1.608c-1.005-1.27-1.515-3.348-1.515-6.178c0-1.816,0.182-3.229,0.556-4.321
			c0.378-1.104,0.939-1.968,1.669-2.565c0.735-0.604,1.678-0.909,2.801-0.909c0.838,0,1.552,0.166,2.181,0.506
			c0.616,0.323,1.141,0.809,1.556,1.442c0.404,0.616,0.723,1.382,0.945,2.275c0.231,0.883,0.344,2.052,0.344,3.572
			c0,1.768-0.184,3.215-0.546,4.301c-0.368,1.105-0.931,1.97-1.67,2.567C55.185,49.982,54.238,50.291,53.118,50.291z M53.118,34.994
			c-1.055,0-1.937,0.284-2.621,0.845c-0.687,0.562-1.219,1.383-1.579,2.438c-0.359,1.046-0.541,2.469-0.541,4.229
			c0,2.764,0.489,4.783,1.454,6.001c0.785,0.996,1.891,1.501,3.287,1.501c1.053,0,1.938-0.287,2.63-0.854
			c0.697-0.563,1.229-1.383,1.58-2.437c0.352-1.057,0.53-2.474,0.53-4.211c0-1.495-0.109-2.641-0.334-3.502
			c-0.216-0.863-0.521-1.6-0.908-2.189c-0.389-0.593-0.877-1.046-1.452-1.348C54.577,35.148,53.908,34.994,53.118,34.994z
			 M53.128,48.787c-0.889,0-1.646-0.434-2.249-1.286c-0.601-0.85-0.894-2.484-0.894-4.996c0-2.483,0.331-4.208,0.983-5.125
			c0.534-0.754,1.254-1.136,2.14-1.136c0.898,0,1.662,0.429,2.268,1.275c0.594,0.828,0.894,2.509,0.894,4.996
			c0,2.505-0.292,4.136-0.893,4.985C54.773,48.354,54.017,48.787,53.128,48.787z M53.108,36.528c-0.799,0-1.423,0.333-1.907,1.017
			c-0.617,0.868-0.931,2.537-0.931,4.96c0,2.417,0.283,4.043,0.841,4.831c0.555,0.784,1.215,1.166,2.017,1.166
			s1.462-0.382,2.017-1.166c0.558-0.788,0.841-2.411,0.841-4.82c0-2.427-0.283-4.052-0.841-4.831
			C54.596,36.918,53.91,36.528,53.108,36.528z"/>
	</g>
	<g enable-background="new    ">
		<path fill="#EC008C" d="M60.413,42.505c0-1.773,0.179-3.198,0.548-4.275c0.369-1.076,0.906-1.913,1.624-2.501
			s1.625-0.877,2.711-0.877c0.808,0,1.505,0.159,2.112,0.488c0.608,0.319,1.106,0.787,1.505,1.396
			c0.398,0.607,0.708,1.355,0.927,2.232c0.229,0.877,0.339,2.053,0.339,3.537c0,1.754-0.179,3.18-0.538,4.256
			c-0.358,1.076-0.896,1.913-1.624,2.501c-0.718,0.588-1.624,0.888-2.721,0.888c-1.445,0-2.581-0.519-3.398-1.555
			C60.911,47.349,60.413,45.315,60.413,42.505z M62.307,42.505c0,2.462,0.288,4.097,0.866,4.913
			c0.578,0.817,1.286,1.227,2.133,1.227c0.848,0,1.555-0.409,2.133-1.227c0.578-0.816,0.867-2.451,0.867-4.902
			c0-2.462-0.289-4.106-0.867-4.914c-0.578-0.807-1.296-1.216-2.152-1.216c-0.848,0-1.515,0.359-2.023,1.077
			C62.625,38.359,62.307,40.044,62.307,42.505z"/>
	</g>
	<g enable-background="new    ">
		<path d="M65.296,50.291c-1.487,0-2.668-0.541-3.51-1.608c-1.006-1.27-1.516-3.348-1.516-6.178c0-1.816,0.182-3.229,0.556-4.321
			c0.379-1.104,0.94-1.968,1.669-2.565c0.736-0.604,1.679-0.909,2.801-0.909c0.839,0,1.552,0.166,2.181,0.506
			c0.616,0.323,1.141,0.809,1.556,1.442c0.404,0.616,0.723,1.382,0.946,2.275c0.23,0.883,0.343,2.052,0.343,3.572
			c0,1.768-0.184,3.215-0.545,4.301c-0.369,1.105-0.931,1.97-1.67,2.567C67.362,49.982,66.417,50.291,65.296,50.291z M65.296,34.994
			c-1.055,0-1.937,0.284-2.62,0.845c-0.688,0.562-1.219,1.383-1.58,2.438c-0.358,1.046-0.541,2.469-0.541,4.229
			c0,2.764,0.489,4.783,1.454,6.001c0.786,0.996,1.892,1.501,3.287,1.501c1.054,0,1.938-0.287,2.631-0.854
			c0.696-0.563,1.228-1.383,1.579-2.437c0.353-1.057,0.531-2.474,0.531-4.211c0-1.495-0.109-2.641-0.335-3.502
			c-0.216-0.863-0.521-1.601-0.908-2.189c-0.388-0.593-0.876-1.046-1.451-1.348C66.755,35.148,66.086,34.994,65.296,34.994z
			 M65.306,48.787c-0.889,0-1.646-0.434-2.249-1.286c-0.601-0.85-0.893-2.484-0.893-4.996c0-2.483,0.33-4.208,0.983-5.125
			c0.533-0.754,1.253-1.136,2.139-1.136c0.899,0,1.662,0.429,2.269,1.275c0.593,0.828,0.894,2.509,0.894,4.996
			c0,2.505-0.292,4.136-0.894,4.985C66.951,48.354,66.194,48.787,65.306,48.787z M65.286,36.528c-0.799,0-1.423,0.333-1.907,1.017
			c-0.617,0.868-0.931,2.537-0.931,4.96c0,2.417,0.283,4.043,0.841,4.831c0.555,0.784,1.215,1.166,2.017,1.166
			c0.803,0,1.462-0.382,2.017-1.166c0.558-0.788,0.841-2.411,0.841-4.82c0-2.427-0.282-4.052-0.84-4.831
			C66.773,36.918,66.088,36.528,65.286,36.528z"/>
	</g>
	<g enable-background="new    ">
		<path fill="#EC008C" d="M72.591,42.505c0-1.773,0.18-3.198,0.548-4.275c0.369-1.076,0.907-1.913,1.625-2.501
			c0.717-0.588,1.624-0.877,2.71-0.877c0.808,0,1.505,0.159,2.113,0.488c0.607,0.319,1.105,0.787,1.505,1.396
			c0.398,0.607,0.707,1.355,0.927,2.232c0.229,0.877,0.339,2.053,0.339,3.537c0,1.754-0.18,3.18-0.538,4.256
			c-0.359,1.076-0.897,1.913-1.625,2.501c-0.718,0.588-1.624,0.888-2.721,0.888c-1.444,0-2.581-0.519-3.397-1.555
			C73.089,47.349,72.591,45.315,72.591,42.505z M74.484,42.505c0,2.462,0.289,4.097,0.867,4.913
			c0.578,0.817,1.285,1.227,2.133,1.227c0.847,0,1.554-0.409,2.132-1.227c0.578-0.816,0.867-2.451,0.867-4.902
			c0-2.462-0.289-4.106-0.867-4.914c-0.578-0.807-1.295-1.216-2.152-1.216c-0.847,0-1.515,0.359-2.022,1.077
			C74.803,38.359,74.484,40.044,74.484,42.505z"/>
	</g>
	<g enable-background="new    ">
		<path d="M77.474,50.291c-1.487,0-2.668-0.541-3.51-1.608c-1.006-1.27-1.516-3.348-1.516-6.178c0-1.816,0.182-3.229,0.556-4.321
			c0.379-1.104,0.94-1.968,1.669-2.565c0.736-0.604,1.679-0.909,2.801-0.909c0.839,0,1.552,0.166,2.181,0.506
			c0.617,0.323,1.141,0.809,1.556,1.442c0.405,0.616,0.724,1.382,0.946,2.275c0.23,0.883,0.344,2.052,0.344,3.572
			c0,1.768-0.184,3.215-0.546,4.301c-0.369,1.105-0.931,1.97-1.67,2.567C79.54,49.982,78.595,50.291,77.474,50.291z M77.474,34.994
			c-1.055,0-1.937,0.284-2.62,0.845c-0.688,0.562-1.219,1.383-1.58,2.438c-0.358,1.046-0.54,2.469-0.54,4.229
			c0,2.764,0.489,4.783,1.454,6.001c0.785,0.996,1.891,1.501,3.286,1.501c1.054,0,1.938-0.287,2.631-0.854
			c0.697-0.563,1.229-1.383,1.579-2.437c0.353-1.057,0.531-2.474,0.531-4.211c0-1.495-0.109-2.641-0.334-3.502
			c-0.216-0.863-0.521-1.6-0.908-2.189c-0.389-0.593-0.877-1.046-1.452-1.348C78.933,35.148,78.264,34.994,77.474,34.994z
			 M77.484,48.787c-0.89,0-1.646-0.434-2.249-1.286c-0.602-0.85-0.894-2.484-0.894-4.996c0-2.483,0.331-4.208,0.983-5.125
			c0.534-0.754,1.253-1.136,2.139-1.136c0.899,0,1.662,0.429,2.269,1.275c0.593,0.828,0.894,2.509,0.894,4.996
			c0,2.505-0.292,4.136-0.894,4.985C79.129,48.354,78.373,48.787,77.484,48.787z M77.464,36.528c-0.799,0-1.423,0.333-1.906,1.017
			c-0.618,0.868-0.931,2.537-0.931,4.96c0,2.417,0.282,4.043,0.841,4.831c0.555,0.784,1.214,1.166,2.017,1.166
			c0.802,0,1.461-0.382,2.016-1.166c0.559-0.788,0.841-2.411,0.841-4.82c0-2.427-0.282-4.052-0.84-4.831
			C78.951,36.918,78.266,36.528,77.464,36.528z"/>
	</g>
</g>
</svg>
