<?xml version="1.0" encoding="utf-8"?>
<!-- Generator: Adobe Illustrator 16.0.0, SVG Export Plug-In . SVG Version: 6.00 Build 0)  -->
<!DOCTYPE svg PUBLIC "-//W3C//DTD SVG 1.1//EN" "http://www.w3.org/Graphics/SVG/1.1/DTD/svg11.dtd">
<svg version="1.1" id="Layer_1" xmlns="http://www.w3.org/2000/svg" xmlns:xlink="http://www.w3.org/1999/xlink" x="0px" y="0px"
	 width="85px" height="85px" viewBox="0 0 85 85" enable-background="new 0 0 85 85" xml:space="preserve">
<g>
	<path fill="#EE3424" d="M66.469,69.693l2.475,2.811c2.141-1.885,4.029-3.948,5.668-6.148l-3.008-2.232
		C70.119,66.114,68.406,67.984,66.469,69.693z"/>
	<path fill="#EF4226" d="M63.992,66.885l2.477,2.811c1.938-1.71,3.65-3.58,5.135-5.572l-3.006-2.234
		C67.266,63.676,65.73,65.352,63.992,66.885z"/>
	<path fill="#F15539" d="M61.516,64.074l2.477,2.811c1.738-1.532,3.273-3.209,4.605-4.997l-3.008-2.233
		C64.412,61.234,63.053,62.72,61.516,64.074z"/>
	<path fill="#F26750" d="M59.039,61.265l2.477,2.81c1.537-1.354,2.896-2.84,4.074-4.421l-3.006-2.233
		C61.539,58.821,60.352,60.11,59.039,61.265L59.039,61.265z"/>
	<path fill="#F47B66" d="M56.562,58.456l2.477,2.81c1.312-1.154,2.5-2.443,3.545-3.846l-3.008-2.233
		C58.688,56.378,57.678,57.473,56.562,58.456z"/>
	<path fill="#F69080" d="M54.086,55.646l2.477,2.811c1.115-0.982,2.125-2.078,3.014-3.271l-3.008-2.233
		C55.838,53.934,55.006,54.837,54.086,55.646z"/>
	<path fill="#F8A698" d="M51.609,52.837l2.477,2.81c0.92-0.81,1.752-1.712,2.484-2.693l-3.008-2.233
		C52.986,51.489,52.332,52.199,51.609,52.837z"/>
	<path fill="#FABBB1" d="M49.135,50.026l2.475,2.811c0.723-0.638,1.377-1.348,1.953-2.118l-3.008-2.234
		C50.137,49.047,49.66,49.562,49.135,50.026L49.135,50.026z"/>
	<path fill="#FCD2CB" d="M46.658,47.218l2.477,2.81c0.525-0.463,1.002-0.979,1.42-1.543l-3.006-2.232
		C47.285,46.603,46.988,46.927,46.658,47.218L46.658,47.218z"/>
	<path fill="#FDE6E3" d="M44.541,44.016c-0.105,0.143-0.227,0.274-0.359,0.392l2.477,2.811c0.33-0.291,0.627-0.614,0.891-0.967
		L44.541,44.016z"/>
	<path fill="#F15A22" d="M75.457,57.595l3.404,1.56c1.188-2.593,2.074-5.246,2.676-7.922l-3.654-0.816
		C77.338,52.84,76.533,55.244,75.457,57.595z"/>
	<path fill="#F26924" d="M72.051,56.035l3.406,1.56c1.076-2.351,1.881-4.755,2.426-7.18l-3.656-0.818
		C73.738,51.771,73.018,53.929,72.051,56.035L72.051,56.035z"/>
	<path fill="#F47737" d="M68.646,54.475l3.404,1.561c0.967-2.106,1.688-4.265,2.176-6.438l-3.656-0.817
		C70.139,50.703,69.5,52.61,68.646,54.475z"/>
	<path fill="#F68950" d="M65.242,52.916l3.404,1.56c0.854-1.864,1.49-3.771,1.924-5.696l-3.654-0.816
		C66.539,49.635,65.984,51.295,65.242,52.916z"/>
	<path fill="#F79868" d="M61.836,51.356l3.406,1.56c0.729-1.589,1.289-3.249,1.674-4.954l-3.656-0.818
		C62.934,48.594,62.457,50.006,61.836,51.356z"/>
	<path fill="#F9A97F" d="M58.432,49.797l3.404,1.561c0.621-1.352,1.098-2.764,1.424-4.214l-3.656-0.816
		C59.336,47.52,58.941,48.684,58.432,49.797z"/>
	<path fill="#FAB997" d="M55.027,48.236l3.402,1.561c0.512-1.112,0.904-2.276,1.174-3.471l-3.654-0.817
		C55.736,46.446,55.428,47.361,55.027,48.236z"/>
	<path fill="#FCCBB2" d="M51.621,46.678l3.406,1.56c0.398-0.875,0.709-1.79,0.922-2.729l-3.656-0.816
		C52.139,45.375,51.914,46.041,51.621,46.678L51.621,46.678z"/>
	<path fill="#FDDBCA" d="M48.217,45.117l3.404,1.561c0.293-0.637,0.518-1.303,0.672-1.987l-3.656-0.816
		C48.541,44.302,48.4,44.72,48.217,45.117z"/>
	<path fill="#FEECE4" d="M44.982,43.055c-0.039,0.173-0.098,0.342-0.17,0.504l3.402,1.559c0.186-0.397,0.324-0.815,0.42-1.244
		L44.982,43.055L44.982,43.055z"/>
	<path fill="#EF4223" d="M71.598,64.117l3.008,2.232c1.699-2.289,3.119-4.7,4.264-7.193l-3.406-1.559
		C74.426,59.855,73.139,62.042,71.598,64.117L71.598,64.117z"/>
	<path fill="#F05226" d="M68.592,61.884l3.006,2.233c1.541-2.075,2.828-4.262,3.865-6.52l-3.406-1.561
		C71.127,58.062,69.975,60.022,68.592,61.884z"/>
	<path fill="#F26439" d="M65.586,59.649l3.006,2.233c1.383-1.86,2.535-3.82,3.467-5.846l-3.406-1.561
		C67.828,56.27,66.809,58.004,65.586,59.649z"/>
	<path fill="#F3754F" d="M62.58,57.417l3.006,2.232c1.223-1.646,2.242-3.38,3.066-5.172l-3.406-1.561
		C64.531,54.477,63.643,55.984,62.58,57.417z"/>
	<path fill="#F58868" d="M59.572,55.183l3.008,2.233c1.062-1.433,1.951-2.939,2.666-4.499l-3.406-1.561
		C61.221,52.709,60.459,53.99,59.572,55.183L59.572,55.183z"/>
	<path fill="#F79B7F" d="M56.566,52.949l3.006,2.233c0.887-1.192,1.646-2.475,2.268-3.825l-3.404-1.56
		C57.924,50.911,57.297,51.968,56.566,52.949L56.566,52.949z"/>
	<path fill="#F9AE98" d="M53.561,50.717l3.006,2.232c0.73-0.981,1.357-2.038,1.869-3.15l-3.406-1.561
		C54.627,49.112,54.135,49.943,53.561,50.717L53.561,50.717z"/>
	<path fill="#FBC1B2" d="M50.553,48.482l3.008,2.233c0.574-0.772,1.066-1.604,1.469-2.479l-3.406-1.561
		C51.33,47.315,50.973,47.921,50.553,48.482L50.553,48.482z"/>
	<path fill="#FCD6CB" d="M47.547,46.25l3.006,2.232c0.42-0.562,0.777-1.168,1.07-1.805l-3.404-1.56
		C48.035,45.518,47.811,45.896,47.547,46.25L47.547,46.25z"/>
	<path fill="#FEE9E2" d="M44.812,43.559c-0.074,0.161-0.166,0.314-0.271,0.457l3.006,2.233c0.266-0.354,0.488-0.731,0.672-1.132
		L44.812,43.559L44.812,43.559z"/>
	<g>
		<path fill="#F47920" d="M77.875,50.413l3.654,0.816c0.623-2.783,0.938-5.562,0.971-8.305l-3.746-0.04
			C78.725,45.371,78.439,47.89,77.875,50.413L77.875,50.413z"/>
		<path fill="#F68625" d="M74.221,49.596l3.654,0.817c0.564-2.522,0.85-5.042,0.879-7.529l-3.746-0.04
			C74.982,45.073,74.727,47.334,74.221,49.596L74.221,49.596z"/>
		<path fill="#F79338" d="M70.564,48.777l3.656,0.817c0.506-2.262,0.762-4.521,0.787-6.75l-3.744-0.04
			C71.24,44.776,71.014,46.775,70.564,48.777z"/>
		<path fill="#F9A04F" d="M66.91,47.961l3.654,0.816c0.447-2.002,0.676-4.001,0.697-5.973l-3.744-0.04
			C67.498,44.48,67.299,46.22,66.91,47.961z"/>
		<path fill="#FAAD66" d="M63.256,47.142l3.654,0.818c0.389-1.741,0.588-3.479,0.607-5.196l-3.746-0.04
			C63.754,44.184,63.586,45.663,63.256,47.142L63.256,47.142z"/>
		<path fill="#FCBA7E" d="M59.6,46.324l3.656,0.817c0.33-1.479,0.498-2.958,0.516-4.417l-3.746-0.04
			C60.012,43.911,59.869,45.131,59.6,46.324z"/>
		<path fill="#FDC898" d="M55.945,45.508l3.654,0.816c0.27-1.193,0.41-2.413,0.426-3.639l-3.746-0.04
			C56.27,43.608,56.156,44.567,55.945,45.508L55.945,45.508z"/>
		<path fill="#FED6B2" d="M52.291,44.689l3.654,0.817c0.211-0.939,0.324-1.898,0.334-2.862l-3.744-0.04
			C52.525,43.307,52.445,44.006,52.291,44.689L52.291,44.689z"/>
		<path fill="#FEE2CA" d="M48.637,43.873l3.654,0.816c0.154-0.685,0.234-1.383,0.244-2.084l-3.746-0.039
			C48.783,43.006,48.732,43.443,48.637,43.873L48.637,43.873z"/>
		<path fill="#FFF0E4" d="M45.043,42.526c-0.002,0.179-0.023,0.354-0.062,0.528l3.656,0.818c0.096-0.43,0.146-0.866,0.152-1.307
			L45.043,42.526L45.043,42.526z"/>
	</g>
	<g>
		<path fill="#F6871F" d="M78.746,42.884l3.746,0.04c0.029-2.853-0.238-5.637-0.777-8.326l-3.672,0.74
			C78.531,37.775,78.775,40.3,78.746,42.884L78.746,42.884z"/>
		<path fill="#F79223" d="M75.002,42.845l3.744,0.04c0.029-2.584-0.215-5.109-0.703-7.546l-3.674,0.74
			C74.809,38.263,75.027,40.527,75.002,42.845L75.002,42.845z"/>
		<path fill="#F99F36" d="M71.258,42.804l3.744,0.04c0.025-2.318-0.193-4.582-0.633-6.767l-3.672,0.739
			C71.086,38.751,71.279,40.754,71.258,42.804L71.258,42.804z"/>
		<path fill="#FAAA4F" d="M67.512,42.765l3.746,0.04c0.021-2.051-0.172-4.053-0.561-5.987l-3.672,0.74
			C67.369,39.272,67.531,41.017,67.512,42.765L67.512,42.765z"/>
		<path fill="#FCB667" d="M63.768,42.725l3.744,0.04c0.02-1.784-0.148-3.526-0.486-5.208l-3.672,0.74
			C63.645,39.755,63.783,41.239,63.768,42.725z"/>
		<path fill="#FDC27F" d="M60.023,42.685l3.744,0.04c0.016-1.486-0.123-2.97-0.414-4.427l-3.672,0.74
			C59.922,40.238,60.035,41.461,60.023,42.685z"/>
		<path fill="#FECE98" d="M56.277,42.645l3.746,0.04c0.012-1.224-0.104-2.447-0.344-3.646l-3.672,0.739
			C56.199,40.721,56.289,41.683,56.277,42.645z"/>
		<path fill="#FEDAB1" d="M52.533,42.606l3.744,0.04c0.012-0.962-0.078-1.924-0.27-2.868l-3.672,0.74
			C52.475,41.206,52.541,41.905,52.533,42.606z"/>
		<path fill="#FFE5CA" d="M48.787,42.566l3.746,0.04c0.006-0.715-0.062-1.414-0.195-2.088l-3.674,0.739
			C48.752,41.688,48.793,42.126,48.787,42.566L48.787,42.566z"/>
		<path fill="#FFF2E4" d="M44.992,41.998c0.035,0.171,0.053,0.348,0.051,0.528l3.744,0.04c0.006-0.438-0.035-0.878-0.121-1.309
			L44.992,41.998L44.992,41.998z"/>
	</g>
	<g>
		<path fill="#F7931E" d="M78.035,35.34l3.672-0.74c-0.564-2.796-1.406-5.464-2.492-7.981l-3.438,1.486
			C76.762,30.387,77.525,32.806,78.035,35.34z"/>
		<path fill="#F99E21" d="M74.363,36.08l3.672-0.74c-0.51-2.534-1.273-4.953-2.258-7.234l-3.439,1.487
			C73.221,31.638,73.906,33.807,74.363,36.08L74.363,36.08z"/>
		<path fill="#FAA735" d="M70.693,36.819l3.67-0.739c-0.457-2.272-1.145-4.441-2.025-6.487L68.9,31.08
			C69.682,32.89,70.287,34.809,70.693,36.819L70.693,36.819z"/>
		<path fill="#FCB24E" d="M67.021,37.558l3.672-0.739c-0.406-2.01-1.012-3.929-1.793-5.739l-3.438,1.486
			C66.143,34.141,66.668,35.81,67.021,37.558z"/>
		<path fill="#FDBD66" d="M63.35,38.299l3.672-0.74c-0.354-1.749-0.879-3.417-1.559-4.992l-3.439,1.487
			C62.613,35.419,63.057,36.841,63.35,38.299L63.35,38.299z"/>
		<path fill="#FEC97F" d="M59.678,39.039l3.672-0.74c-0.293-1.458-0.736-2.88-1.326-4.245l-3.438,1.487
			C59.07,36.666,59.438,37.838,59.678,39.039L59.678,39.039z"/>
		<path fill="#FFD398" d="M56.006,39.778l3.672-0.739c-0.24-1.201-0.607-2.373-1.092-3.498l-3.438,1.486
			C55.529,37.913,55.816,38.834,56.006,39.778z"/>
		<path fill="#FFDEB1" d="M52.336,40.517l3.67-0.739c-0.189-0.943-0.477-1.865-0.857-2.75l-3.438,1.487
			C51.988,39.16,52.197,39.831,52.336,40.517L52.336,40.517z"/>
		<path fill="#FFE8CA" d="M48.664,41.257l3.672-0.74c-0.139-0.688-0.348-1.357-0.625-2.002l-3.439,1.487
			C48.445,40.406,48.578,40.827,48.664,41.257z"/>
		<path fill="#FFF4E4" d="M44.834,41.49c0.07,0.163,0.123,0.333,0.158,0.508l3.672-0.74c-0.086-0.431-0.219-0.852-0.393-1.255
			L44.834,41.49L44.834,41.49z"/>
	</g>
	<g>
		<path fill="#FCB216" d="M75.77,28.108l3.438-1.486c-1.133-2.617-2.51-5.053-4.096-7.29L72.057,21.5
			C73.494,23.529,74.744,25.736,75.77,28.108z"/>
		<path fill="#FDB91D" d="M72.332,29.595l3.438-1.487c-1.025-2.372-2.275-4.579-3.713-6.606l-3.053,2.169
			C70.293,25.489,71.412,27.468,72.332,29.595z"/>
		<path fill="#FEC133" d="M68.895,31.083l3.438-1.487c-0.92-2.127-2.039-4.106-3.328-5.924l-3.055,2.169
			C67.09,27.449,68.082,29.201,68.895,31.083L68.895,31.083z"/>
		<path fill="#FFCA4D" d="M65.457,32.569l3.438-1.486c-0.812-1.882-1.805-3.634-2.945-5.242l-3.053,2.17
			C63.906,29.436,64.766,30.964,65.457,32.569L65.457,32.569z"/>
		<path fill="#FFD067" d="M62.02,34.055l3.438-1.487c-0.689-1.604-1.551-3.133-2.561-4.559l-3.055,2.169
			C60.701,31.391,61.432,32.691,62.02,34.055L62.02,34.055z"/>
		<path fill="#FFD87E" d="M58.584,35.542l3.436-1.486c-0.588-1.365-1.318-2.664-2.178-3.877l-3.053,2.17
			C57.496,33.347,58.098,34.418,58.584,35.542z"/>
		<path fill="#FFDF97" d="M55.146,37.029l3.438-1.486c-0.484-1.124-1.088-2.194-1.795-3.193l-3.055,2.169
			C54.291,35.304,54.764,36.145,55.146,37.029L55.146,37.029z"/>
		<path fill="#FFE7B1" d="M51.709,38.516l3.438-1.487c-0.383-0.884-0.855-1.726-1.412-2.511l-3.053,2.169
			C51.086,37.26,51.43,37.873,51.709,38.516z"/>
		<path fill="#FFEFCB" d="M48.271,40.003l3.438-1.487c-0.279-0.644-0.623-1.256-1.025-1.829l-3.057,2.169
			C47.881,39.215,48.098,39.599,48.271,40.003z"/>
		<path fill="#FFF6E4" d="M44.572,41.026c0.104,0.146,0.189,0.3,0.262,0.463l3.438-1.486c-0.174-0.403-0.391-0.787-0.645-1.146
			L44.572,41.026L44.572,41.026z"/>
	</g>
	<g>
		<path fill="#FFD108" d="M72.051,21.505l3.053-2.169c-1.65-2.325-3.506-4.42-5.521-6.278l-2.537,2.757
			C68.873,17.5,70.555,19.398,72.051,21.505z"/>
		<path fill="#FED519" d="M68.998,23.674l3.053-2.169c-1.496-2.107-3.178-4.006-5.006-5.69l-2.535,2.757
			C66.148,20.083,67.654,21.786,68.998,23.674L68.998,23.674z"/>
		<path fill="#FED833" d="M65.945,25.844l3.053-2.169c-1.344-1.889-2.85-3.592-4.488-5.104l-2.537,2.758
			C63.424,22.666,64.758,24.172,65.945,25.844L65.945,25.844z"/>
		<path fill="#FEDE4D" d="M62.891,28.012l3.055-2.169c-1.188-1.672-2.521-3.179-3.973-4.515l-2.535,2.757
			C60.723,25.271,61.881,26.587,62.891,28.012z"/>
		<path fill="#FEE366" d="M59.838,30.181l3.053-2.169c-1.012-1.426-2.168-2.742-3.453-3.927L56.9,26.842
			C57.994,27.85,58.979,28.97,59.838,30.181z"/>
		<path fill="#FEE67F" d="M56.785,32.35l3.053-2.169c-0.859-1.212-1.844-2.331-2.936-3.339l-2.537,2.757
			C55.266,30.43,56.076,31.352,56.785,32.35L56.785,32.35z"/>
		<path fill="#FEEC97" d="M53.732,34.519l3.053-2.169c-0.709-0.999-1.52-1.92-2.42-2.751l-2.535,2.757
			C52.537,33.01,53.176,33.734,53.732,34.519z"/>
		<path fill="#FFF1B2" d="M50.68,36.688l3.053-2.169c-0.557-0.785-1.195-1.51-1.902-2.163l-2.537,2.757
			C49.809,35.589,50.273,36.117,50.68,36.688z"/>
		<path fill="#FFF5CB" d="M47.625,38.858l3.055-2.169c-0.406-0.57-0.871-1.1-1.387-1.575l-2.535,2.758
			C47.08,38.168,47.371,38.5,47.625,38.858z"/>
		<path fill="#FEF9E4" d="M44.221,40.627c0.131,0.121,0.25,0.254,0.352,0.398l3.053-2.169c-0.254-0.357-0.545-0.688-0.867-0.986
			L44.221,40.627z"/>
	</g>
	<g>
		<path fill="#FEDF00" d="M67.041,15.82l2.535-2.756c-2.1-1.931-4.35-3.595-6.707-4.992l-1.908,3.224
			C63.098,12.562,65.139,14.07,67.041,15.82L67.041,15.82z"/>
		<path fill="#FEE210" d="M64.506,18.577l2.535-2.757c-1.902-1.75-3.943-3.258-6.08-4.524l-1.908,3.224
			C60.971,15.655,62.799,17.007,64.506,18.577z"/>
		<path fill="#FFE52F" d="M61.969,21.333l2.535-2.756c-1.705-1.569-3.533-2.922-5.451-4.059l-1.906,3.225
			C58.842,18.749,60.461,19.945,61.969,21.333z"/>
		<path fill="#FDE84E" d="M59.434,24.089l2.535-2.756c-1.51-1.389-3.127-2.584-4.822-3.59l-1.908,3.224
			C56.742,21.859,58.148,22.905,59.434,24.089z"/>
		<path fill="#FDEA65" d="M56.898,26.846l2.535-2.756c-1.285-1.185-2.691-2.23-4.195-3.123l-1.906,3.224
			C54.609,24.949,55.805,25.839,56.898,26.846z"/>
		<path fill="#FEEF7F" d="M54.363,29.602l2.535-2.757c-1.096-1.007-2.289-1.896-3.566-2.655l-1.908,3.225
			C52.477,28.04,53.463,28.773,54.363,29.602z"/>
		<path fill="#FEF299" d="M51.828,32.359l2.535-2.756c-0.9-0.83-1.887-1.562-2.939-2.188l-1.906,3.224
			C50.346,31.13,51.119,31.707,51.828,32.359z"/>
		<path fill="#FEF6B2" d="M49.293,35.115l2.535-2.756c-0.709-0.651-1.484-1.229-2.311-1.72l-1.908,3.224
			C48.213,34.221,48.777,34.64,49.293,35.115L49.293,35.115z"/>
		<path fill="#FEF8CB" d="M46.758,37.872l2.535-2.757c-0.516-0.475-1.08-0.895-1.684-1.252l-1.906,3.225
			C46.08,37.311,46.434,37.574,46.758,37.872z"/>
		<path fill="#FFFBE5" d="M43.795,40.31c0.152,0.091,0.295,0.197,0.426,0.317l2.537-2.756c-0.324-0.298-0.678-0.562-1.055-0.785
			L43.795,40.31L43.795,40.31z"/>
	</g>
	<g>
		<path fill="#FDEC0A" d="M60.957,11.301l1.906-3.224c-2.453-1.453-5-2.612-7.598-3.489l-1.195,3.55
			C56.424,8.934,58.732,9.986,60.957,11.301z"/>
		<path fill="#FDEE22" d="M59.051,14.524l1.906-3.223c-2.225-1.315-4.533-2.367-6.887-3.163l-1.195,3.55
			C54.986,12.402,57.055,13.344,59.051,14.524z"/>
		<path fill="#FCEF3A" d="M57.143,17.748l1.908-3.224c-1.996-1.18-4.064-2.122-6.176-2.836l-1.195,3.55
			C53.547,15.87,55.379,16.704,57.143,17.748L57.143,17.748z"/>
		<path fill="#FDF053" d="M55.236,20.971l1.906-3.224c-1.766-1.044-3.598-1.878-5.465-2.51l-1.193,3.551
			C52.109,19.338,53.701,20.063,55.236,20.971z"/>
		<path fill="#FDF16B" d="M53.33,24.194l1.906-3.223c-1.535-0.908-3.127-1.633-4.752-2.182l-1.195,3.55
			C50.695,22.815,52.051,23.437,53.33,24.194L53.33,24.194z"/>
		<path fill="#FDF383" d="M51.422,27.417l1.908-3.224c-1.279-0.757-2.635-1.379-4.041-1.854l-1.197,3.55
			C49.252,26.281,50.369,26.793,51.422,27.417z"/>
		<path fill="#FDF49A" d="M49.516,30.641l1.906-3.224c-1.053-0.624-2.17-1.137-3.328-1.529l-1.195,3.55
			C47.793,29.742,48.67,30.14,49.516,30.641z"/>
		<path fill="#FDF7B3" d="M47.609,33.864l1.904-3.223c-0.826-0.491-1.703-0.894-2.615-1.202l-1.195,3.55
			C46.367,33.214,47.006,33.507,47.609,33.864z"/>
		<path fill="#FDF9CC" d="M45.701,37.088l1.908-3.225c-0.605-0.356-1.242-0.649-1.908-0.875l-1.193,3.551
			C44.924,36.679,45.324,36.864,45.701,37.088z"/>
		<path fill="#FDFBE5" d="M43.312,40.089c0.168,0.057,0.33,0.131,0.482,0.222l1.906-3.224c-0.377-0.225-0.777-0.407-1.193-0.548
			L43.312,40.089z"/>
	</g>
	<g>
		<path fill="#DAE021" d="M54.066,8.145l1.193-3.549c-2.701-0.91-5.434-1.515-8.156-1.833L46.67,6.484
			C49.141,6.772,51.617,7.322,54.066,8.145z"/>
		<path fill="#DBE129" d="M52.871,11.695l1.195-3.549c-2.449-0.824-4.926-1.373-7.396-1.662l-0.43,3.721
			C48.455,10.464,50.676,10.955,52.871,11.695z"/>
		<path fill="#DFE33C" d="M51.678,15.245l1.193-3.55c-2.195-0.74-4.416-1.23-6.629-1.49l-0.432,3.722
			C47.77,14.155,49.734,14.59,51.678,15.245z"/>
		<path fill="#E2E555" d="M50.482,18.793l1.193-3.549c-1.941-0.654-3.906-1.09-5.865-1.318l-0.434,3.721
			C47.082,17.846,48.791,18.224,50.482,18.793z"/>
		<path fill="#E7E86C" d="M49.287,22.343l1.195-3.549c-1.691-0.569-3.4-0.948-5.105-1.146l-0.432,3.722
			C46.424,21.542,47.879,21.867,49.287,22.343z"/>
		<path fill="#EAEB83" d="M48.092,25.892l1.195-3.549c-1.408-0.475-2.863-0.802-4.338-0.975l-0.432,3.721
			C45.734,25.231,46.932,25.501,48.092,25.892L48.092,25.892z"/>
		<path fill="#F0EF9B" d="M46.896,29.441l1.195-3.549c-1.16-0.391-2.357-0.661-3.574-0.803l-0.432,3.721
			C45.043,28.922,45.984,29.134,46.896,29.441L46.896,29.441z"/>
		<path fill="#F3F3B3" d="M45.701,32.992l1.195-3.55c-0.912-0.308-1.855-0.52-2.812-0.631l-0.432,3.721
			C44.338,32.611,45.023,32.762,45.701,32.992L45.701,32.992z"/>
		<path fill="#F6F6CC" d="M44.506,36.541l1.195-3.55c-0.664-0.224-1.35-0.378-2.047-0.459l-0.43,3.722
			C43.66,36.303,44.09,36.4,44.506,36.541L44.506,36.541z"/>
		<path fill="#F9FAE4" d="M42.793,39.973c0.172,0.021,0.346,0.059,0.518,0.117l1.195-3.55c-0.416-0.141-0.846-0.237-1.281-0.288
			L42.793,39.973L42.793,39.973z"/>
	</g>
	<g>
		<path fill="#BAD532" d="M46.672,6.492l0.432-3.721c-2.834-0.328-5.633-0.352-8.361-0.097l0.352,3.729
			C41.568,6.172,44.104,6.195,46.672,6.492z"/>
		<path fill="#C0D72F" d="M46.24,10.211l0.432-3.72c-2.568-0.297-5.104-0.319-7.578-0.088l0.352,3.729
			C41.664,9.926,43.938,9.945,46.24,10.211z"/>
		<path fill="#C7DA3D" d="M45.811,13.931l0.43-3.72c-2.303-0.267-4.576-0.286-6.795-0.079l0.352,3.729
			C41.76,13.679,43.773,13.696,45.811,13.931z"/>
		<path fill="#CDDD53" d="M45.379,17.652l0.432-3.72c-2.037-0.236-4.051-0.253-6.014-0.069l0.354,3.729
			C41.889,17.429,43.643,17.451,45.379,17.652z"/>
		<path fill="#D4E16A" d="M44.947,21.373l0.432-3.721c-1.771-0.206-3.521-0.22-5.229-0.061l0.352,3.729
			C41.982,21.183,43.471,21.201,44.947,21.373z"/>
		<path fill="#DBE582" d="M44.518,25.092l0.43-3.72c-1.477-0.172-2.965-0.189-4.445-0.052l0.352,3.729
			C42.072,24.936,43.301,24.951,44.518,25.092L44.518,25.092z"/>
		<path fill="#E2EA99" d="M44.086,28.813l0.432-3.721c-1.217-0.142-2.445-0.156-3.664-0.042l0.352,3.729
			C42.146,28.691,43.109,28.701,44.086,28.813z"/>
		<path fill="#E8EEB3" d="M43.654,32.533l0.432-3.72c-0.957-0.11-1.922-0.123-2.881-0.034l0.354,3.729
			C42.242,32.445,42.943,32.451,43.654,32.533z"/>
		<path fill="#EFF4CB" d="M43.225,36.253l0.43-3.721c-0.695-0.08-1.398-0.089-2.096-0.023l0.352,3.729
			C42.346,36.197,42.787,36.203,43.225,36.253z"/>
		<path fill="#F6F8E3" d="M42.26,39.968c0.178-0.017,0.355-0.015,0.533,0.006l0.432-3.721c-0.438-0.05-0.879-0.057-1.314-0.016
			L42.26,39.968L42.26,39.968z"/>
	</g>
	<g>
		<path fill="#73BF44" d="M39.094,6.41l-0.352-3.729c-2.84,0.268-5.582,0.827-8.199,1.645L31.662,7.9
			C34.035,7.16,36.521,6.654,39.094,6.41z"/>
		<path fill="#83C341" d="M39.445,10.139L39.094,6.41c-2.574,0.244-5.059,0.75-7.432,1.49l1.121,3.575
			C34.91,10.811,37.139,10.357,39.445,10.139z"/>
		<path fill="#90C73E" d="M39.797,13.867l-0.352-3.729c-2.309,0.218-4.535,0.672-6.664,1.336l1.121,3.575
			C35.785,14.462,37.756,14.06,39.797,13.867z"/>
		<path fill="#9CCC50" d="M40.15,17.596l-0.354-3.728c-2.041,0.191-4.012,0.594-5.895,1.182l1.119,3.575
			C36.691,18.104,38.41,17.76,40.15,17.596L40.15,17.596z"/>
		<path fill="#AAD268" d="M40.502,21.326l-0.352-3.729c-1.777,0.168-3.492,0.517-5.129,1.028l1.121,3.574
			C37.561,21.757,39.021,21.464,40.502,21.326z"/>
		<path fill="#B9D980" d="M40.854,25.054l-0.352-3.729c-1.48,0.139-2.941,0.432-4.359,0.873l1.119,3.575
			C38.43,25.41,39.633,25.168,40.854,25.054L40.854,25.054z"/>
		<path fill="#C6DF98" d="M41.205,28.782l-0.352-3.729c-1.219,0.114-2.424,0.356-3.592,0.72l1.119,3.575
			C39.299,29.062,40.246,28.873,41.205,28.782z"/>
		<path fill="#D3E6B1" d="M41.559,32.511l-0.354-3.729c-0.957,0.091-1.904,0.28-2.824,0.566l1.119,3.575
			C40.17,32.714,40.859,32.577,41.559,32.511L41.559,32.511z"/>
		<path fill="#E1EEC9" d="M41.908,36.239l-0.352-3.729c-0.697,0.065-1.389,0.204-2.057,0.413l1.119,3.575
			C41.039,36.367,41.471,36.28,41.908,36.239L41.908,36.239z"/>
		<path fill="#F0F6E3" d="M41.74,40.072c0.166-0.052,0.34-0.087,0.52-0.104l-0.352-3.729c-0.438,0.041-0.869,0.128-1.289,0.26
			L41.74,40.072z"/>
	</g>
	<g>
		<path fill="#47B649" d="M31.666,7.908l-1.121-3.574c-2.721,0.853-5.287,1.969-7.678,3.312l1.84,3.265
			C26.873,9.693,29.199,8.68,31.666,7.908z"/>
		<path fill="#5BBA47" d="M32.785,11.481l-1.119-3.573c-2.467,0.772-4.793,1.785-6.959,3.002l1.838,3.264
			C28.488,13.082,30.572,12.174,32.785,11.481z"/>
		<path fill="#6CBE45" d="M33.904,15.055l-1.121-3.574c-2.211,0.693-4.297,1.601-6.24,2.692l1.838,3.264
			C30.102,16.471,31.947,15.668,33.904,15.055L33.904,15.055z"/>
		<path fill="#7EC351" d="M35.023,18.629l-1.119-3.574c-1.957,0.613-3.803,1.416-5.521,2.382l1.838,3.265
			C31.717,19.861,33.32,19.163,35.023,18.629z"/>
		<path fill="#8EC966" d="M36.143,22.204l-1.119-3.574c-1.703,0.534-3.307,1.231-4.803,2.071l1.84,3.265
			C33.355,23.237,34.725,22.646,36.143,22.204z"/>
		<path fill="#A1D07E" d="M37.262,25.777l-1.119-3.573c-1.418,0.442-2.787,1.033-4.082,1.762l1.838,3.264
			C34.965,26.629,36.094,26.142,37.262,25.777z"/>
		<path fill="#B3D897" d="M38.381,29.351l-1.119-3.574c-1.168,0.365-2.295,0.853-3.363,1.451l1.838,3.264
			C36.576,30.021,37.463,29.638,38.381,29.351z"/>
		<path fill="#C4E1B0" d="M39.502,32.925l-1.121-3.574c-0.918,0.288-1.805,0.67-2.645,1.141l1.838,3.265
			C38.188,33.413,38.832,33.134,39.502,32.925L39.502,32.925z"/>
		<path fill="#D7EAC8" d="M40.621,36.5l-1.119-3.574c-0.67,0.209-1.314,0.488-1.926,0.832l1.838,3.263
			C39.797,36.804,40.201,36.63,40.621,36.5z"/>
		<path fill="#EAF4E3" d="M41.252,40.283c0.154-0.087,0.318-0.157,0.488-0.211l-1.121-3.573c-0.418,0.131-0.824,0.306-1.207,0.521
			L41.252,40.283L41.252,40.283z"/>
	</g>
	<g>
		<path fill="#1CB24B" d="M24.709,10.916l-1.838-3.262c-2.484,1.399-4.762,3.024-6.82,4.836l2.477,2.81
			C20.395,13.658,22.457,12.184,24.709,10.916L24.709,10.916z"/>
		<path fill="#32B44A" d="M26.547,14.179l-1.838-3.264c-2.252,1.27-4.314,2.742-6.182,4.384l2.477,2.811
			C22.678,16.637,24.529,15.316,26.547,14.179z"/>
		<path fill="#4CB748" d="M28.385,17.442l-1.838-3.263c-2.018,1.137-3.869,2.458-5.543,3.93l2.477,2.812
			C24.961,19.617,26.6,18.449,28.385,17.442z"/>
		<path fill="#60BB4E" d="M30.225,20.706l-1.84-3.264c-1.785,1.006-3.424,2.175-4.904,3.479l2.477,2.81
			C27.246,22.597,28.67,21.581,30.225,20.706z"/>
		<path fill="#73C165" d="M32.062,23.968l-1.84-3.263c-1.521,0.856-2.953,1.871-4.266,3.023l2.479,2.812
			C29.551,25.559,30.768,24.697,32.062,23.968z"/>
		<path fill="#88C87D" d="M33.9,27.231l-1.838-3.263c-1.295,0.729-2.512,1.591-3.627,2.572l2.477,2.81
			C31.83,28.542,32.832,27.833,33.9,27.231z"/>
		<path fill="#9ED195" d="M35.738,30.495L33.9,27.231c-1.068,0.602-2.07,1.312-2.988,2.119l2.477,2.812
			C34.111,31.525,34.898,30.967,35.738,30.495z"/>
		<path fill="#B4DBAF" d="M37.576,33.758l-1.838-3.263c-0.84,0.472-1.627,1.03-2.352,1.667l2.479,2.81
			C36.393,34.508,36.965,34.101,37.576,33.758z"/>
		<path fill="#CCE6C8" d="M39.414,37.02l-1.838-3.263c-0.611,0.344-1.186,0.75-1.711,1.213l2.477,2.811
			C38.672,37.492,39.031,37.236,39.414,37.02z"/>
		<path fill="#E5F2E2" d="M40.818,40.591c0.133-0.117,0.277-0.22,0.434-0.309l-1.838-3.263c-0.383,0.216-0.742,0.471-1.072,0.761
			L40.818,40.591z"/>
	</g>
	<g>
		<path fill="#30B450" d="M18.531,15.305l-2.477-2.81c-2.139,1.886-4.027,3.948-5.666,6.148l3.008,2.234
			C14.879,18.884,16.592,17.014,18.531,15.305L18.531,15.305z"/>
		<path fill="#41B761" d="M21.008,18.115l-2.477-2.81c-1.939,1.709-3.652,3.58-5.135,5.573l3.006,2.233
			C17.734,21.324,19.27,19.647,21.008,18.115z"/>
		<path fill="#50BA71" d="M23.484,20.924l-2.477-2.811c-1.738,1.532-3.273,3.209-4.605,4.997l3.008,2.234
			C20.586,23.764,21.945,22.28,23.484,20.924z"/>
		<path fill="#61BF80" d="M25.961,23.734l-2.477-2.81c-1.539,1.355-2.896,2.84-4.074,4.421l3.006,2.234
			C23.441,26.205,24.623,24.914,25.961,23.734z"/>
		<path fill="#74C590" d="M28.438,26.543l-2.477-2.811c-1.312,1.155-2.5,2.444-3.545,3.847l3.008,2.233
			C26.312,28.622,27.322,27.525,28.438,26.543L28.438,26.543z"/>
		<path fill="#89CCA1" d="M30.914,29.353l-2.477-2.81c-1.117,0.981-2.125,2.078-3.014,3.27l3.006,2.234
			C29.162,31.065,29.994,30.163,30.914,29.353z"/>
		<path fill="#9ED4B3" d="M33.389,32.163l-2.475-2.81c-0.92,0.81-1.752,1.712-2.484,2.694l3.008,2.233
			C32.012,33.509,32.668,32.799,33.389,32.163L33.389,32.163z"/>
		<path fill="#B6DEC3" d="M35.865,34.972l-2.477-2.81c-0.723,0.637-1.377,1.347-1.951,2.118l3.008,2.234
			C34.863,35.953,35.34,35.435,35.865,34.972L35.865,34.972z"/>
		<path fill="#CDE8D7" d="M38.342,37.782l-2.477-2.81c-0.525,0.463-1.002,0.98-1.42,1.542l3.006,2.234
			C37.713,38.396,38.012,38.072,38.342,37.782L38.342,37.782z"/>
		<path fill="#E5F3E9" d="M40.459,40.983c0.105-0.143,0.227-0.272,0.359-0.391l-2.477-2.811c-0.33,0.29-0.627,0.614-0.891,0.968
			L40.459,40.983z"/>
	</g>
	<g>
		<path fill="#36BA9B" d="M13.402,20.882l-3.006-2.233c-1.701,2.29-3.121,4.701-4.266,7.193l3.406,1.56
			C10.574,25.142,11.861,22.958,13.402,20.882z"/>
		<path fill="#44BDA2" d="M16.408,23.117l-3.006-2.234c-1.541,2.075-2.828,4.261-3.865,6.519l3.406,1.561
			C13.873,26.936,15.025,24.976,16.408,23.117L16.408,23.117z"/>
		<path fill="#52C0AC" d="M19.414,25.349l-3.006-2.232c-1.381,1.859-2.535,3.819-3.465,5.845l3.404,1.56
			C17.17,28.729,18.191,26.996,19.414,25.349z"/>
		<path fill="#63C5B3" d="M22.42,27.583l-3.006-2.233c-1.223,1.646-2.244,3.38-3.066,5.172l3.406,1.561
			C20.469,30.522,21.357,29.014,22.42,27.583z"/>
		<path fill="#76CABC" d="M25.426,29.816l-3.006-2.232c-1.062,1.432-1.951,2.939-2.666,4.499l3.406,1.56
			C23.779,32.291,24.541,31.008,25.426,29.816L25.426,29.816z"/>
		<path fill="#8CD1C6" d="M28.434,32.049l-3.006-2.233c-0.887,1.192-1.646,2.476-2.268,3.825l3.406,1.561
			C27.076,34.088,27.703,33.032,28.434,32.049L28.434,32.049z"/>
		<path fill="#A0D8D0" d="M31.439,34.283l-3.006-2.232c-0.73,0.982-1.357,2.039-1.867,3.152l3.404,1.56
			C30.373,35.886,30.865,35.055,31.439,34.283z"/>
		<path fill="#B6E1DA" d="M34.445,36.516l-3.006-2.233c-0.574,0.772-1.066,1.604-1.469,2.479l3.404,1.56
			C33.67,37.683,34.027,37.079,34.445,36.516L34.445,36.516z"/>
		<path fill="#CDEAE6" d="M37.453,38.75l-3.006-2.233c-0.418,0.562-0.777,1.167-1.07,1.805l3.406,1.561
			C36.965,39.481,37.189,39.102,37.453,38.75L37.453,38.75z"/>
		<path fill="#E5F4F1" d="M40.188,41.44c0.074-0.162,0.166-0.314,0.271-0.458l-3.006-2.232c-0.262,0.353-0.488,0.731-0.67,1.131
			L40.188,41.44z"/>
	</g>
	<g>
		<path fill="#03AFCF" d="M9.543,27.404l-3.404-1.559c-1.188,2.593-2.074,5.247-2.676,7.922l3.656,0.818
			C7.662,32.161,8.467,29.755,9.543,27.404L9.543,27.404z"/>
		<path fill="#18B7D4" d="M12.947,28.964l-3.404-1.561c-1.076,2.352-1.881,4.757-2.426,7.182l3.656,0.817
			C11.262,33.228,11.982,31.072,12.947,28.964z"/>
		<path fill="#33C0D9" d="M16.354,30.523l-3.404-1.559c-0.965,2.106-1.688,4.264-2.176,6.438l3.656,0.818
			C14.861,34.296,15.5,32.388,16.354,30.523z"/>
		<path fill="#4EC6DC" d="M19.758,32.083l-3.404-1.561c-0.855,1.865-1.492,3.773-1.926,5.697l3.656,0.818
			C18.461,35.365,19.016,33.705,19.758,32.083z"/>
		<path fill="#6ACBDE" d="M23.164,33.643l-3.406-1.56c-0.742,1.622-1.297,3.281-1.672,4.955l3.654,0.817
			C22.066,36.406,22.543,34.994,23.164,33.643L23.164,33.643z"/>
		<path fill="#82D2E3" d="M26.568,35.203l-3.406-1.56c-0.619,1.352-1.096,2.763-1.422,4.213l3.656,0.817
			C25.664,37.479,26.059,36.315,26.568,35.203z"/>
		<path fill="#9BDAE8" d="M29.973,36.762l-3.404-1.56c-0.51,1.112-0.904,2.275-1.172,3.471l3.654,0.816
			C29.262,38.552,29.572,37.637,29.973,36.762z"/>
		<path fill="#B4E2EC" d="M33.377,38.321l-3.404-1.56c-0.4,0.875-0.711,1.79-0.922,2.729l3.656,0.817
			C32.861,39.625,33.086,38.959,33.377,38.321z"/>
		<path fill="#CBEBF2" d="M36.783,39.881l-3.406-1.561c-0.291,0.638-0.516,1.305-0.67,1.987l3.656,0.818
			C36.459,40.698,36.6,40.28,36.783,39.881z"/>
		<path fill="#E5F4F8" d="M40.018,41.944c0.039-0.173,0.096-0.342,0.17-0.504l-3.404-1.56c-0.184,0.398-0.324,0.816-0.42,1.246
			L40.018,41.944z"/>
	</g>
	<g>
		<path fill="#039BCC" d="M7.125,34.586l-3.654-0.817c-0.623,2.783-0.938,5.563-0.971,8.305l3.746,0.04
			C6.273,39.629,6.561,37.109,7.125,34.586z"/>
		<path fill="#19A5D1" d="M10.779,35.404l-3.654-0.816c-0.564,2.522-0.852,5.042-0.881,7.527l3.746,0.04
			C10.018,39.925,10.273,37.667,10.779,35.404z"/>
		<path fill="#34AFD5" d="M14.436,36.221l-3.656-0.818c-0.506,2.263-0.762,4.521-0.789,6.75l3.746,0.04
			C13.76,40.222,13.986,38.222,14.436,36.221L14.436,36.221z"/>
		<path fill="#4EB9DC" d="M18.09,37.04l-3.654-0.817c-0.449,2.001-0.676,4-0.699,5.972l3.746,0.04
			C17.502,40.518,17.701,38.78,18.09,37.04z"/>
		<path fill="#65C3E0" d="M21.744,37.856L18.09,37.04c-0.391,1.74-0.588,3.479-0.607,5.193l3.746,0.04
			C21.246,40.788,21.42,39.307,21.744,37.856z"/>
		<path fill="#80CCE4" d="M25.398,38.674l-3.654-0.817c-0.326,1.451-0.498,2.932-0.516,4.417l3.746,0.04
			C24.988,41.088,25.131,39.87,25.398,38.674L25.398,38.674z"/>
		<path fill="#98D5E9" d="M29.053,39.492l-3.654-0.817c-0.268,1.195-0.41,2.415-0.424,3.639l3.744,0.04
			C28.732,41.39,28.844,40.431,29.053,39.492z"/>
		<path fill="#B2E0EF" d="M32.709,40.309l-3.654-0.816c-0.211,0.938-0.322,1.897-0.334,2.86l3.746,0.04
			C32.475,41.706,32.553,41.007,32.709,40.309L32.709,40.309z"/>
		<path fill="#CAEAF4" d="M36.363,41.127l-3.654-0.818c-0.154,0.685-0.234,1.382-0.244,2.083l3.746,0.04
			C36.215,42.001,36.266,41.564,36.363,41.127z"/>
		<path fill="#E4F4F9" d="M39.957,42.472c0.002-0.174,0.021-0.351,0.062-0.528l-3.656-0.816c-0.096,0.429-0.146,0.866-0.152,1.306
			L39.957,42.472z"/>
	</g>
	<g>
		<path fill="#0D88C3" d="M6.252,42.114l-3.744-0.04c-0.029,2.853,0.238,5.637,0.777,8.327l3.672-0.739
			C6.469,47.224,6.225,44.699,6.252,42.114z"/>
		<path fill="#1A94CA" d="M9.998,42.154l-3.746-0.04c-0.027,2.585,0.217,5.11,0.705,7.547l3.672-0.74
			C10.191,46.735,9.975,44.472,9.998,42.154z"/>
		<path fill="#349FCF" d="M13.742,42.194l-3.744-0.04c-0.023,2.319,0.193,4.583,0.631,6.767l3.672-0.739
			C13.914,46.248,13.721,44.245,13.742,42.194L13.742,42.194z"/>
		<path fill="#4DABD5" d="M17.488,42.233l-3.746-0.04c-0.021,2.051,0.172,4.054,0.559,5.988l3.674-0.74
			C17.637,45.76,17.469,44.018,17.488,42.233L17.488,42.233z"/>
		<path fill="#66B7DB" d="M21.232,42.273l-3.744-0.04c-0.02,1.785,0.148,3.526,0.486,5.208l3.672-0.739
			C21.359,45.271,21.217,43.791,21.232,42.273L21.232,42.273z"/>
		<path fill="#80C3E1" d="M24.979,42.313l-3.746-0.04c-0.018,1.487,0.123,2.971,0.414,4.429l3.672-0.74
			C25.078,44.762,24.963,43.539,24.979,42.313z"/>
		<path fill="#99CEE6" d="M28.723,42.353l-3.744-0.04c-0.016,1.226,0.1,2.449,0.34,3.649l3.672-0.739
			C28.801,44.277,28.711,43.315,28.723,42.353z"/>
		<path fill="#B3DAEC" d="M32.467,42.392l-3.744-0.04c-0.012,0.962,0.078,1.924,0.268,2.869l3.672-0.739
			C32.525,43.795,32.459,43.095,32.467,42.392z"/>
		<path fill="#CAE6F2" d="M36.211,42.432l-3.744-0.04c-0.008,0.716,0.061,1.415,0.195,2.089l3.672-0.74
			C36.248,43.311,36.207,42.873,36.211,42.432L36.211,42.432z"/>
		<path fill="#E4F3F8" d="M40.006,43.003c-0.035-0.175-0.051-0.353-0.049-0.531l-3.744-0.04c-0.006,0.439,0.037,0.878,0.123,1.309
			L40.006,43.003L40.006,43.003z"/>
	</g>
	<g>
		<path fill="#1074BC" d="M6.965,49.66l-3.672,0.738c0.562,2.796,1.404,5.464,2.492,7.982l3.438-1.487
			C8.238,54.611,7.477,52.193,6.965,49.66L6.965,49.66z"/>
		<path fill="#1C82C5" d="M10.637,48.92l-3.672,0.74c0.512,2.533,1.275,4.951,2.26,7.233l3.438-1.487
			C11.779,53.36,11.094,51.191,10.637,48.92z"/>
		<path fill="#3490CC" d="M14.309,48.18l-3.674,0.739c0.459,2.271,1.145,4.44,2.025,6.486l3.438-1.486
			C15.318,52.108,14.713,50.189,14.309,48.18L14.309,48.18z"/>
		<path fill="#4D9DD2" d="M17.98,47.439l-3.672,0.74c0.404,2.01,1.01,3.929,1.793,5.739l3.438-1.487
			C18.857,50.857,18.332,49.188,17.98,47.439L17.98,47.439z"/>
		<path fill="#66ABD8" d="M21.65,46.701l-3.67,0.738c0.352,1.749,0.879,3.417,1.557,4.992l3.439-1.487
			C22.387,49.581,21.943,48.157,21.65,46.701L21.65,46.701z"/>
		<path fill="#80BADF" d="M25.322,45.961l-3.672,0.74c0.293,1.456,0.736,2.88,1.326,4.243l3.438-1.486
			C25.928,48.334,25.562,47.162,25.322,45.961L25.322,45.961z"/>
		<path fill="#98C7E5" d="M28.994,45.222l-3.672,0.739c0.242,1.201,0.607,2.373,1.092,3.497l3.438-1.486
			C29.471,47.087,29.184,46.165,28.994,45.222L28.994,45.222z"/>
		<path fill="#B2D4EA" d="M32.664,44.48l-3.67,0.74c0.189,0.943,0.477,1.865,0.857,2.75l3.438-1.487
			C33.012,45.84,32.803,45.169,32.664,44.48z"/>
		<path fill="#CAE2F2" d="M36.336,43.742l-3.672,0.738c0.139,0.688,0.348,1.359,0.625,2.003l3.439-1.486
			C36.553,44.594,36.422,44.173,36.336,43.742z"/>
		<path fill="#E3F0F8" d="M40.166,43.51c-0.07-0.163-0.125-0.333-0.16-0.507l-3.67,0.739c0.086,0.431,0.217,0.852,0.393,1.255
			L40.166,43.51L40.166,43.51z"/>
	</g>
	<g>
		<path fill="#2C4EA1" d="M9.23,56.891l-3.439,1.486c1.133,2.618,2.512,5.053,4.098,7.29l3.055-2.17
			C11.506,61.471,10.256,59.263,9.23,56.891L9.23,56.891z"/>
		<path fill="#3259A8" d="M12.668,55.403L9.23,56.891c1.025,2.372,2.275,4.579,3.713,6.607l3.053-2.17
			C14.707,59.511,13.588,57.531,12.668,55.403z"/>
		<path fill="#4067B1" d="M16.105,53.918l-3.439,1.485c0.92,2.128,2.041,4.106,3.33,5.926l3.055-2.171
			C17.91,57.551,16.918,55.8,16.105,53.918L16.105,53.918z"/>
		<path fill="#5378BB" d="M19.543,52.43l-3.438,1.487c0.812,1.882,1.805,3.633,2.945,5.24l3.055-2.169
			C21.113,55.591,20.25,54.067,19.543,52.43z"/>
		<path fill="#698CC8" d="M22.98,50.943l-3.438,1.486c0.707,1.638,1.57,3.16,2.562,4.56l3.053-2.17
			C24.299,53.606,23.568,52.308,22.98,50.943z"/>
		<path fill="#809ED2" d="M26.416,49.457l-3.438,1.486c0.59,1.364,1.32,2.663,2.18,3.876l3.053-2.169
			C27.504,51.651,26.902,50.581,26.416,49.457L26.416,49.457z"/>
		<path fill="#9AB1DC" d="M29.855,47.971l-3.439,1.486c0.486,1.124,1.088,2.194,1.795,3.193l3.055-2.17
			C30.709,49.695,30.236,48.854,29.855,47.971L29.855,47.971z"/>
		<path fill="#B2C4E5" d="M33.291,46.482l-3.436,1.487c0.381,0.884,0.854,1.726,1.41,2.511l3.055-2.17
			C33.914,47.739,33.57,47.127,33.291,46.482L33.291,46.482z"/>
		<path fill="#CBD7EE" d="M36.729,44.996l-3.438,1.486c0.277,0.645,0.623,1.257,1.027,1.828l3.055-2.169
			C37.119,45.783,36.902,45.399,36.729,44.996L36.729,44.996z"/>
		<path fill="#E3EAF6" d="M40.426,43.973c-0.102-0.146-0.189-0.301-0.26-0.464l-3.438,1.486c0.174,0.403,0.391,0.787,0.645,1.146
			L40.426,43.973L40.426,43.973z"/>
	</g>
	<g>
		<path fill="#2F459C" d="M12.949,63.494l-3.053,2.169c1.65,2.324,3.506,4.42,5.521,6.277l2.535-2.757
			C16.127,67.5,14.447,65.601,12.949,63.494z"/>
		<path fill="#384EA2" d="M16.002,61.324l-3.053,2.17c1.498,2.106,3.178,4.006,5.006,5.689l2.537-2.757
			C18.852,64.917,17.344,63.215,16.002,61.324z"/>
		<path fill="#445AA9" d="M19.055,59.155l-3.053,2.169c1.342,1.891,2.852,3.594,4.488,5.104l2.537-2.757
			C21.576,62.334,20.242,60.828,19.055,59.155z"/>
		<path fill="#5268B1" d="M22.107,56.986l-3.053,2.169c1.188,1.673,2.521,3.179,3.971,4.516l2.537-2.757
			C24.301,59.752,23.143,58.44,22.107,56.986z"/>
		<path fill="#6A7CBC" d="M25.162,54.817l-3.053,2.169c1.033,1.454,2.191,2.766,3.455,3.928l2.535-2.758
			C27.006,57.148,26.021,56.029,25.162,54.817L25.162,54.817z"/>
		<path fill="#8293CA" d="M28.215,52.647l-3.053,2.17c0.859,1.212,1.844,2.331,2.938,3.339l2.535-2.758
			C29.734,54.568,28.924,53.646,28.215,52.647L28.215,52.647z"/>
		<path fill="#9BA8D5" d="M31.268,50.479l-3.053,2.168c0.707,0.999,1.52,1.921,2.42,2.751l2.535-2.757
			C32.463,51.989,31.826,51.264,31.268,50.479L31.268,50.479z"/>
		<path fill="#B2BDE0" d="M34.32,48.311l-3.053,2.169c0.559,0.784,1.195,1.51,1.902,2.162l2.535-2.757
			C35.191,49.41,34.727,48.883,34.32,48.311z"/>
		<path fill="#CCD2EB" d="M37.373,46.141l-3.053,2.17c0.406,0.571,0.871,1.1,1.387,1.574l2.535-2.757
			C37.92,46.831,37.627,46.5,37.373,46.141z"/>
		<path fill="#E3E6F4" d="M40.777,44.372c-0.129-0.12-0.248-0.255-0.352-0.399l-3.053,2.169c0.254,0.358,0.545,0.689,0.869,0.987
			L40.777,44.372L40.777,44.372z"/>
	</g>
	<g>
		<path fill="#534099" d="M17.959,69.18l-2.535,2.756c2.1,1.932,4.35,3.595,6.707,4.993l1.908-3.224
			C21.9,72.437,19.861,70.93,17.959,69.18L17.959,69.18z"/>
		<path fill="#5F4B9F" d="M20.496,66.423l-2.537,2.757c1.902,1.75,3.941,3.258,6.08,4.525l1.908-3.226
			C24.029,69.344,22.201,67.992,20.496,66.423z"/>
		<path fill="#6C57A5" d="M23.031,63.667l-2.535,2.756c1.705,1.569,3.533,2.921,5.451,4.058l1.906-3.224
			C26.158,66.251,24.539,65.055,23.031,63.667L23.031,63.667z"/>
		<path fill="#7B65AC" d="M25.566,60.91l-2.537,2.757c1.51,1.388,3.127,2.584,4.824,3.59l1.906-3.225
			C28.285,63.157,26.879,62.117,25.566,60.91z"/>
		<path fill="#9079B7" d="M28.102,58.152l-2.535,2.758c1.312,1.207,2.721,2.247,4.195,3.122l1.906-3.225
			C30.391,60.05,29.195,59.16,28.102,58.152z"/>
		<path fill="#A58FC4" d="M30.637,55.396l-2.535,2.757c1.092,1.008,2.287,1.896,3.566,2.655l1.908-3.224
			C32.523,56.96,31.537,56.226,30.637,55.396L30.637,55.396z"/>
		<path fill="#B7A6D0" d="M33.172,52.64l-2.535,2.757c0.9,0.829,1.887,1.562,2.939,2.188l1.906-3.226
			C34.654,53.869,33.881,53.293,33.172,52.64L33.172,52.64z"/>
		<path fill="#C8B9DB" d="M35.707,49.885l-2.535,2.756c0.707,0.652,1.482,1.229,2.311,1.72l1.908-3.224
			C36.787,50.778,36.225,50.358,35.707,49.885L35.707,49.885z"/>
		<path fill="#DAD0E7" d="M38.242,47.128l-2.535,2.757c0.516,0.475,1.08,0.895,1.684,1.252l1.906-3.224
			C38.92,47.688,38.566,47.426,38.242,47.128z"/>
		<path fill="#EBE6F2" d="M41.205,44.688c-0.15-0.088-0.293-0.193-0.426-0.316l-2.537,2.757c0.324,0.298,0.678,0.561,1.055,0.785
			L41.205,44.688z"/>
	</g>
	<g>
		<path fill="#713E98" d="M24.043,73.697l-1.906,3.225c2.455,1.452,5,2.61,7.6,3.489l1.193-3.551
			C28.576,76.064,26.268,75.014,24.043,73.697L24.043,73.697z"/>
		<path fill="#7C4A9D" d="M25.949,70.474l-1.906,3.225c2.225,1.315,4.531,2.367,6.887,3.162l1.195-3.55
			C30.014,72.597,27.945,71.654,25.949,70.474L25.949,70.474z"/>
		<path fill="#8557A3" d="M27.857,67.252l-1.908,3.223c1.996,1.181,4.064,2.123,6.176,2.837l1.195-3.551
			C31.453,69.13,29.621,68.296,27.857,67.252L27.857,67.252z"/>
		<path fill="#9567AC" d="M29.764,64.027l-1.906,3.225c1.766,1.044,3.596,1.878,5.465,2.509l1.195-3.55
			C32.893,65.662,31.299,64.936,29.764,64.027z"/>
		<path fill="#A77CB7" d="M31.67,60.805l-1.906,3.224c1.535,0.908,3.129,1.635,4.754,2.184l1.193-3.55
			C34.303,62.184,32.949,61.562,31.67,60.805z"/>
		<path fill="#B690C2" d="M33.578,57.582l-1.908,3.223c1.279,0.758,2.633,1.38,4.041,1.856l1.195-3.552
			C35.746,58.719,34.631,58.206,33.578,57.582L33.578,57.582z"/>
		<path fill="#C6A6CF" d="M35.484,54.357l-1.906,3.225c1.053,0.624,2.168,1.137,3.33,1.527l1.195-3.55
			C37.189,55.252,36.314,54.849,35.484,54.357z"/>
		<path fill="#D4BCDB" d="M37.393,51.135l-1.908,3.224c0.828,0.491,1.707,0.895,2.619,1.202l1.193-3.55
			C38.633,51.786,37.994,51.492,37.393,51.135L37.393,51.135z"/>
		<path fill="#E2D1E7" d="M39.299,47.912l-1.906,3.223c0.604,0.356,1.24,0.651,1.904,0.876l1.195-3.55
			C40.076,48.318,39.676,48.136,39.299,47.912L39.299,47.912z"/>
		<path fill="#F0E6F2" d="M41.689,44.91c-0.168-0.058-0.33-0.132-0.484-0.223l-1.906,3.225c0.377,0.224,0.777,0.407,1.195,0.549
			L41.689,44.91L41.689,44.91z"/>
	</g>
	<g>
		<path fill="#96469A" d="M30.934,76.854l-1.195,3.549c2.703,0.91,5.434,1.516,8.158,1.833l0.432-3.721
			C35.859,78.227,33.381,77.679,30.934,76.854L30.934,76.854z"/>
		<path fill="#9C509F" d="M32.127,73.305l-1.195,3.55c2.449,0.824,4.926,1.373,7.395,1.661l0.432-3.721
			C36.545,74.536,34.324,74.045,32.127,73.305L32.127,73.305z"/>
		<path fill="#A45DA5" d="M33.322,69.756l-1.195,3.549c2.197,0.739,4.418,1.231,6.631,1.49l0.432-3.723
			C37.232,70.845,35.268,70.41,33.322,69.756L33.322,69.756z"/>
		<path fill="#AF6FAE" d="M34.518,66.206l-1.195,3.55c1.943,0.654,3.908,1.089,5.867,1.317l0.432-3.722
			C37.885,67.148,36.174,66.764,34.518,66.206z"/>
		<path fill="#BD82B8" d="M35.713,62.656l-1.195,3.55c1.656,0.559,3.367,0.942,5.104,1.146l0.43-3.721
			C38.576,63.458,37.121,63.132,35.713,62.656L35.713,62.656z"/>
		<path fill="#C896C4" d="M36.908,59.106l-1.195,3.55c1.408,0.476,2.861,0.803,4.338,0.976l0.432-3.722
			C39.268,59.768,38.068,59.499,36.908,59.106L36.908,59.106z"/>
		<path fill="#D3A9CF" d="M38.104,55.557l-1.195,3.55c1.16,0.393,2.357,0.661,3.574,0.804l0.432-3.722
			C39.957,56.077,39.016,55.865,38.104,55.557L38.104,55.557z"/>
		<path fill="#DEBDDA" d="M39.299,52.009l-1.195,3.549c0.912,0.31,1.854,0.521,2.811,0.632l0.43-3.721
			C40.648,52.387,39.963,52.231,39.299,52.009L39.299,52.009z"/>
		<path fill="#EBD2E6" d="M40.494,48.459l-1.195,3.55c0.664,0.224,1.35,0.378,2.045,0.46l0.432-3.722
			C41.34,48.695,40.91,48.599,40.494,48.459L40.494,48.459z"/>
		<path fill="#F4E6F1" d="M42.207,45.025c-0.176-0.021-0.35-0.06-0.518-0.115l-1.195,3.55c0.416,0.14,0.846,0.235,1.283,0.287
			L42.207,45.025L42.207,45.025z"/>
	</g>
	<g>
		<path fill="#B54499" d="M38.328,78.509l-0.432,3.72c2.834,0.328,5.631,0.353,8.361,0.099l-0.352-3.73
			C43.432,78.827,40.896,78.805,38.328,78.509z"/>
		<path fill="#B7509E" d="M38.758,74.788l-0.43,3.721c2.568,0.297,5.104,0.318,7.578,0.087l-0.354-3.729
			C43.336,75.073,41.062,75.055,38.758,74.788L38.758,74.788z"/>
		<path fill="#BE60A5" d="M39.189,71.066l-0.432,3.722c2.303,0.267,4.578,0.285,6.795,0.079l-0.352-3.729
			C43.238,71.32,41.229,71.304,39.189,71.066L39.189,71.066z"/>
		<path fill="#C571AE" d="M39.621,67.347l-0.432,3.72c2.037,0.236,4.051,0.254,6.014,0.07l-0.352-3.729
			C43.143,67.566,41.393,67.553,39.621,67.347z"/>
		<path fill="#CD83B8" d="M40.051,63.627l-0.43,3.721c1.771,0.205,3.521,0.22,5.23,0.061l-0.355-3.729
			C43.02,63.815,41.529,63.799,40.051,63.627z"/>
		<path fill="#D698C3" d="M40.482,59.906l-0.432,3.721c1.479,0.172,2.969,0.188,4.447,0.052l-0.352-3.729
			C42.928,60.062,41.699,60.049,40.482,59.906L40.482,59.906z"/>
		<path fill="#E0ABCF" d="M40.914,56.186l-0.432,3.72c1.217,0.144,2.443,0.156,3.664,0.043l-0.354-3.729
			C42.854,56.307,41.891,56.3,40.914,56.186z"/>
		<path fill="#E7BFDA" d="M41.344,52.467l-0.43,3.72c0.957,0.111,1.922,0.123,2.881,0.033l-0.352-3.729
			C42.758,52.555,42.055,52.549,41.344,52.467z"/>
		<path fill="#F1D3E5" d="M41.775,48.746l-0.432,3.721c0.711,0.082,1.414,0.088,2.1,0.023l-0.354-3.729
			C42.662,48.801,42.221,48.798,41.775,48.746z"/>
		<path fill="#F8E7F1" d="M42.738,45.031c-0.176,0.018-0.355,0.016-0.531-0.006l-0.432,3.721c0.445,0.052,0.885,0.056,1.314,0.016
			L42.738,45.031z"/>
	</g>
	<g>
		<path fill="#D22A8D" d="M45.906,78.589l0.352,3.729c2.84-0.269,5.582-0.825,8.199-1.644L53.336,77.1
			C50.965,77.84,48.479,78.346,45.906,78.589L45.906,78.589z"/>
		<path fill="#D63F96" d="M45.555,74.859l0.352,3.729c2.572-0.243,5.059-0.749,7.43-1.489l-1.119-3.575
			C50.09,74.188,47.861,74.642,45.555,74.859L45.555,74.859z"/>
		<path fill="#D8549F" d="M45.201,71.132l0.354,3.729c2.307-0.218,4.535-0.672,6.662-1.336l-1.119-3.573
			C49.215,70.537,47.244,70.938,45.201,71.132z"/>
		<path fill="#DA69A8" d="M44.85,67.402l0.352,3.729c2.043-0.193,4.014-0.595,5.896-1.183l-1.119-3.574
			C48.342,66.887,46.627,67.234,44.85,67.402L44.85,67.402z"/>
		<path fill="#E07DB2" d="M44.498,63.675l0.352,3.729c1.777-0.168,3.492-0.517,5.129-1.027l-1.119-3.575
			C47.439,63.242,45.979,63.536,44.498,63.675z"/>
		<path fill="#E593BF" d="M44.146,59.945l0.352,3.729c1.48-0.139,2.941-0.433,4.359-0.875l-1.119-3.574
			C46.57,59.59,45.365,59.832,44.146,59.945L44.146,59.945z"/>
		<path fill="#EBA7CB" d="M43.795,56.218l0.352,3.729c1.219-0.113,2.424-0.355,3.592-0.721l-1.119-3.574
			C45.699,55.937,44.754,56.128,43.795,56.218L43.795,56.218z"/>
		<path fill="#EFBCD7" d="M43.443,52.487l0.352,3.729c0.959-0.09,1.904-0.28,2.824-0.566L45.5,52.076
			C44.83,52.285,44.141,52.423,43.443,52.487L43.443,52.487z"/>
		<path fill="#F4D3E5" d="M43.09,48.76l0.354,3.729c0.697-0.064,1.387-0.202,2.057-0.411l-1.119-3.574
			C43.961,48.633,43.529,48.719,43.09,48.76z"/>
		<path fill="#F9E6F1" d="M43.26,44.927c-0.17,0.053-0.344,0.088-0.521,0.104l0.352,3.729c0.439-0.042,0.871-0.128,1.291-0.259
			L43.26,44.927z"/>
	</g>
	<g>
		<path fill="#E52870" d="M53.334,77.092l1.121,3.574c2.721-0.854,5.287-1.97,7.678-3.312l-1.84-3.264
			C58.127,75.307,55.801,76.318,53.334,77.092L53.334,77.092z"/>
		<path fill="#E83D7E" d="M52.215,73.518l1.119,3.573c2.467-0.772,4.793-1.784,6.959-3.002l-1.838-3.265
			C56.512,71.918,54.428,72.824,52.215,73.518L52.215,73.518z"/>
		<path fill="#EA538C" d="M51.096,69.943l1.119,3.574c2.213-0.693,4.299-1.601,6.24-2.691l-1.838-3.265
			C54.898,68.527,53.053,69.331,51.096,69.943L51.096,69.943z"/>
		<path fill="#ED689A" d="M49.977,66.37l1.119,3.573c1.957-0.612,3.803-1.416,5.521-2.382l-1.838-3.264
			C53.283,65.138,51.68,65.837,49.977,66.37L49.977,66.37z"/>
		<path fill="#EE7CA8" d="M48.857,62.796l1.119,3.574c1.668-0.521,3.275-1.217,4.803-2.071l-1.84-3.264
			C51.645,61.763,50.275,62.352,48.857,62.796z"/>
		<path fill="#F293B7" d="M47.738,59.222l1.119,3.574c1.418-0.443,2.787-1.033,4.082-1.761l-1.838-3.266
			C50.033,58.37,48.906,58.855,47.738,59.222L47.738,59.222z"/>
		<path fill="#F4A7C3" d="M46.619,55.647l1.119,3.573c1.168-0.365,2.295-0.852,3.363-1.451l-1.84-3.263
			C48.424,54.978,47.537,55.36,46.619,55.647z"/>
		<path fill="#F6BCD2" d="M45.5,52.073l1.119,3.574c0.918-0.287,1.805-0.67,2.645-1.141l-1.838-3.264
			C46.814,51.587,46.168,51.864,45.5,52.073L45.5,52.073z"/>
		<path fill="#FAD3E0" d="M44.379,48.501l1.121,3.572c0.668-0.209,1.314-0.486,1.926-0.829l-1.84-3.266
			C45.203,48.194,44.799,48.37,44.379,48.501z"/>
		<path fill="#FCE7EF" d="M43.748,44.716c-0.154,0.087-0.318,0.157-0.488,0.211l1.119,3.574c0.42-0.131,0.824-0.307,1.207-0.521
			L43.748,44.716z"/>
	</g>
	<g>
		<path fill="#EE2A42" d="M60.291,74.083l1.838,3.264c2.484-1.399,4.762-3.025,6.82-4.837l-2.479-2.811
			C64.605,71.342,62.543,72.813,60.291,74.083L60.291,74.083z"/>
		<path fill="#EF3E54" d="M58.451,70.819l1.838,3.264c2.254-1.27,4.316-2.741,6.184-4.384l-2.477-2.811
			C62.322,68.361,60.471,69.682,58.451,70.819L58.451,70.819z"/>
		<path fill="#F05367" d="M56.613,67.557l1.838,3.263c2.02-1.138,3.871-2.458,5.545-3.93l-2.477-2.811
			C60.039,65.382,58.4,66.551,56.613,67.557z"/>
		<path fill="#F1667A" d="M54.775,64.294l1.838,3.264c1.787-1.007,3.426-2.176,4.906-3.478l-2.479-2.812
			C57.754,62.401,56.33,63.419,54.775,64.294L54.775,64.294z"/>
		<path fill="#F37A8D" d="M52.938,61.03l1.838,3.264c1.555-0.875,2.979-1.893,4.268-3.024l-2.477-2.811
			C55.449,59.439,54.234,60.303,52.938,61.03z"/>
		<path fill="#F5919F" d="M51.1,57.768l1.838,3.263c1.297-0.729,2.512-1.591,3.629-2.571l-2.477-2.811
			C53.17,56.457,52.168,57.168,51.1,57.768L51.1,57.768z"/>
		<path fill="#F7A5B1" d="M49.262,54.505l1.838,3.264c1.068-0.601,2.068-1.312,2.988-2.119l-2.477-2.811
			C50.889,53.474,50.102,54.032,49.262,54.505z"/>
		<path fill="#F9BCC4" d="M47.424,51.242l1.838,3.263c0.84-0.472,1.627-1.03,2.35-1.666l-2.477-2.812
			C48.609,50.49,48.035,50.897,47.424,51.242L47.424,51.242z"/>
		<path fill="#FBD1D8" d="M45.586,47.978l1.838,3.265c0.611-0.345,1.186-0.752,1.711-1.215l-2.477-2.81
			C46.328,47.509,45.969,47.763,45.586,47.978L45.586,47.978z"/>
		<path fill="#FDE6EA" d="M44.182,44.407c-0.133,0.117-0.279,0.222-0.434,0.309l1.838,3.263c0.383-0.216,0.742-0.47,1.072-0.76
			L44.182,44.407L44.182,44.407z"/>
	</g>
</g>
</svg>
