<?xml version="1.0" encoding="utf-8"?>
<!-- Generator: Adobe Illustrator 16.0.0, SVG Export Plug-In . SVG Version: 6.00 Build 0)  -->
<!DOCTYPE svg PUBLIC "-//W3C//DTD SVG 1.1//EN" "http://www.w3.org/Graphics/SVG/1.1/DTD/svg11.dtd">
<svg version="1.1" id="Layer_1" xmlns="http://www.w3.org/2000/svg" xmlns:xlink="http://www.w3.org/1999/xlink" x="0px" y="0px"
	 width="85px" height="85px" viewBox="0 0 85 85" enable-background="new 0 0 85 85" xml:space="preserve">
<g>
	<path fill="#F4D5CE" d="M23.534,9.292c-0.948,0.008-1.896,0.201-2.782,0.55c-1.178,0.464-2.244,1.199-3.134,2.1
		c-1.781,1.803-2.834,4.228-3.336,6.712c-0.609,3.004-0.461,6.101-0.414,9.166c0.048,3.065-0.016,6.193-1.019,9.09
		c-1.028,2.973-2.981,5.521-4.887,8.025s-3.827,5.083-4.778,8.082c-0.942,2.973-0.862,6.217-0.055,9.228
		c0.81,3.012,2.322,5.803,4.171,8.312c1.385,1.879,2.972,3.604,4.716,5.152H78.3c0.538-0.502,1.039-1.041,1.497-1.621
		c1.821-2.304,2.901-5.256,2.673-8.185c-0.25-3.182-1.966-6.046-3.766-8.682c-1.8-2.637-3.769-5.253-4.647-8.321
		c-1.139-3.978-0.316-8.217-0.369-12.354c-0.026-2.069-0.283-4.166-1.091-6.071c-0.808-1.905-2.211-3.612-4.087-4.483
		c-1.921-0.891-4.154-0.843-6.229-0.426c-2.074,0.417-4.064,1.179-6.122,1.679c-3.445,0.836-7.097,0.914-10.532,0.036
		c-3.436-0.878-6.643-2.734-8.976-5.406c-1.976-2.263-3.279-5.026-5.024-7.471c-0.874-1.223-1.865-2.374-3.059-3.287
		c-1.192-0.913-2.597-1.583-4.086-1.771C24.167,9.307,23.851,9.29,23.534,9.292L23.534,9.292z M23.534,9.292"/>
	<path fill="#EABD60" d="M53.117,41.784L30.5,42.702c0,0-5.806,1.527-7.412,2.903c-1.604,1.375-5.959,11.766-6.265,14.059
		c-0.306,2.292-5.501,12.836,2.292,14.822c0,0,2.599,0.765,5.655-1.223l-0.061,2.445h35.416l-0.209-3.056c0,0,3.668,2.75,6.877,0.61
		c3.209-2.139,3.667-8.558,3.209-11.155c-0.459-2.598-2.903-16.352-7.105-17.956C58.695,42.549,53.117,41.784,53.117,41.784
		L53.117,41.784z M53.117,41.784"/>
	<path fill="#D4981C" d="M48.421,49.752c-0.034-0.012-0.072-0.007-0.105,0.009c0,0-2.212,1.174-4.175,4.246
		c-1.964,3.072-3.688,8.051-2.765,15.662c0.009,0.075,0.076,0.129,0.152,0.12c0.075-0.01,0.129-0.077,0.12-0.152
		c-0.916-7.557,0.794-12.462,2.725-15.481c1.93-3.021,4.072-4.15,4.072-4.15c0.066-0.034,0.092-0.118,0.056-0.186
		C48.485,49.787,48.456,49.763,48.421,49.752L48.421,49.752z M48.421,49.752"/>
	<path fill="#252C40" d="M42.803,15.195c0,0-1.409-0.82-5.348,0.764c-5.324,2.139-15.617,24.297-11.004,28.729l2.293-2.904
		c0,0-0.612,5.196,6.8,5.425h14.108c0,0,5.833-0.229,6.75-4.66c0,0,1.223,2.14-0.917,4.584c0,0,5.196-1.833,5.196-8.404
		S51.207,9.235,42.803,15.195L42.803,15.195z M42.803,15.195"/>
	<path fill="#FE8163" d="M37.455,39.951l-0.077,11.156c0.833-1.204,4.355,0.607,4.812,4.66c0.039,0.341,5.686-7.771,6.189-5.883
		l-1.249-11.5L37.455,39.951z M37.455,39.951"/>
	<path fill="#D4981C" d="M37.45,50.989c-0.03-0.02-0.069-0.026-0.104-0.018s-0.066,0.031-0.085,0.063
		c-0.04,0.063-0.02,0.148,0.044,0.188c0,0,3.735,2.324,4.186,6.15c0.004,0.036,0.022,0.069,0.052,0.092
		c0.028,0.022,0.065,0.033,0.101,0.029c0.037-0.004,0.069-0.022,0.093-0.052c0.022-0.028,0.032-0.065,0.028-0.103
		C41.295,53.354,37.45,50.989,37.45,50.989L37.45,50.989z M37.45,50.989"/>
	<path fill="#FFA684" d="M42.344,24.211c0,0-4.125,4.24-7.756,5.233c0,0,0.191,15.396,7.756,15.549
		c7.564,0.152,7.412-13.295,7.412-13.295S46.164,24.593,42.344,24.211L42.344,24.211z M42.344,24.211"/>
	<path fill="#FFDBC1" d="M28.208,55.003l7.336-7.794l-1.299-7.487l-0.726-5.425l0.344-5.119c0.508-0.799,1.062-0.588,1.643,0.268
		l-0.039,4.661l0.573,4.317v-4.546l0.536-4.393c0.679-0.724,1.255-0.623,1.719,0.382l-0.458,4.775l0.228,3.744l0.421-3.973
		l1.719-3.286c0.805-0.303,0.975,0.222,1.07,0.841l-1.108,3.629l0.077,3.477l0.229-3.057l0.917-2.98
		c0.357-0.851,0.713-0.681,1.07,0.268l-0.344,3.438c0,0-0.191,2.636-0.076,4.317c0.113,1.681,0.61,6.266-0.306,7.145
		c-0.917,0.879-8.634,14.669-8.634,14.669S33.863,56.989,28.208,55.003L28.208,55.003z M28.208,55.003"/>
	<path fill="#FFDBC1" d="M56.987,55.003l-7.335-7.794l1.299-7.487l0.726-5.425l-0.344-5.119c-0.509-0.799-1.062-0.588-1.643,0.268
		l0.038,4.661l-0.573,4.317v-4.546l-0.534-4.393c-0.68-0.724-1.256-0.623-1.719,0.382l0.458,4.775l-0.229,3.744l-0.42-3.973
		l-1.72-3.286c-0.805-0.303-0.975,0.222-1.069,0.841l1.107,3.629l-0.076,3.477l-0.229-3.057l-0.917-2.98
		c-0.357-0.851-0.714-0.681-1.07,0.268l0.345,3.438c0,0,0.19,2.636,0.075,4.317c-0.113,1.681-0.61,6.266,0.307,7.145
		s8.633,14.669,8.633,14.669S51.333,56.989,56.987,55.003L56.987,55.003z M56.987,55.003"/>
	<path fill="#D4981C" d="M27.29,54.841c-0.239,0.008-0.483,0.027-0.69,0.077c-0.206,0.05-0.399,0.123-0.469,0.312
		c-0.155,0.411-0.298,0.743-0.311,0.771c-0.039,0.025-1.944,1.232-4.048,2.847c-2.127,1.634-4.418,3.63-5.094,5.236l0.251,0.107
		c0.621-1.473,2.895-3.501,5.011-5.124c2.114-1.624,4.069-2.863,4.069-2.863l0.035-0.023l0.018-0.039c0,0,0.163-0.381,0.325-0.815
		c0.011-0.028,0.104-0.098,0.278-0.14c0.174-0.043,0.406-0.064,0.634-0.071c0.457-0.015,0.898,0.024,0.898,0.024l0.024-0.273
		C28.221,54.866,27.768,54.826,27.29,54.841L27.29,54.841z M27.29,54.841"/>
	<path fill="#D4981C" d="M24.567,46.57c-0.065,0.04-0.085,0.124-0.046,0.188c0,0,2.702,4.441,3.498,6.833
		c0.012,0.035,0.037,0.063,0.07,0.08c0.032,0.016,0.069,0.018,0.104,0.007c0.035-0.012,0.064-0.036,0.08-0.069
		c0.017-0.032,0.02-0.07,0.008-0.105c-0.824-2.47-3.525-6.889-3.525-6.889C24.716,46.551,24.632,46.529,24.567,46.57L24.567,46.57z
		 M24.567,46.57"/>
	<path fill="#D4981C" d="M56.987,54.866l-0.001,0.274c0,0,0.833,0.002,1.66,0.136c0.413,0.067,0.825,0.168,1.119,0.309
		c0.146,0.072,0.263,0.153,0.338,0.237c0.074,0.084,0.109,0.167,0.109,0.266v1.159l0.067,0.04c0,0,1.375,0.808,2.95,1.899
		c1.575,1.091,3.354,2.473,4.14,3.573l0.224-0.161c-0.836-1.168-2.622-2.542-4.207-3.639c-1.548-1.073-2.837-1.829-2.899-1.865
		v-1.007c0-0.171-0.068-0.325-0.178-0.448s-0.256-0.219-0.424-0.301c-0.338-0.162-0.768-0.266-1.195-0.335
		C57.836,54.866,56.987,54.866,56.987,54.866L56.987,54.866z M56.987,54.866"/>
	<path fill="#D4981C" d="M52.207,62.791l-0.221,0.164l1.193,1.595c-0.017,0.064-0.181,0.674-0.273,1.38
		c-0.048,0.37-0.072,0.749-0.034,1.063c0.019,0.158,0.053,0.301,0.117,0.421c0.062,0.121,0.165,0.221,0.301,0.26
		c0.711,0.203,2.091,0.94,2.114,0.952c0.036,0.045,2.364,2.866,4.441,4.145l0.144-0.234c-2.015-1.24-4.396-4.11-4.396-4.11
		l-0.016-0.021l-0.024-0.012c0,0-1.394-0.758-2.188-0.984c-0.054-0.016-0.094-0.049-0.133-0.124
		c-0.04-0.075-0.071-0.188-0.088-0.324c-0.033-0.273-0.011-0.637,0.035-0.996c0.094-0.717,0.28-1.414,0.28-1.414l0.019-0.063
		L52.207,62.791z M52.207,62.791"/>
	<path fill="#D4981C" d="M31.593,65.644c-0.673,1.378-2.405,3.272-3.965,4.805c-1.56,1.532-2.947,2.711-2.947,2.711l0.178,0.21
		c0,0,1.395-1.185,2.962-2.725c1.567-1.54,3.308-3.426,4.019-4.879L31.593,65.644z M31.593,65.644"/>
	<path fill="#D4981C" d="M62.314,46.475c-1.959,1.688-2.919,3.218-3.387,4.333c-0.468,1.114-0.443,1.827-0.443,1.827l0.274-0.011
		c0,0-0.029-0.637,0.423-1.71c0.45-1.074,1.382-2.569,3.312-4.231L62.314,46.475z M62.314,46.475"/>
</g>
</svg>
