<?xml version="1.0" encoding="utf-8"?>
<!-- Generator: Adobe Illustrator 16.0.0, SVG Export Plug-In . SVG Version: 6.00 Build 0)  -->
<!DOCTYPE svg PUBLIC "-//W3C//DTD SVG 1.1//EN" "http://www.w3.org/Graphics/SVG/1.1/DTD/svg11.dtd">
<svg version="1.1" id="Layer_1" xmlns="http://www.w3.org/2000/svg" xmlns:xlink="http://www.w3.org/1999/xlink" x="0px" y="0px"
	 width="85px" height="85px" viewBox="0 0 85 85" enable-background="new 0 0 85 85" xml:space="preserve">
<title>boots</title>
<g id="boots">
	<circle fill="#EAEAEA" cx="47.326" cy="38.785" r="29.655"/>
	
		<circle fill="none" stroke="#4C241D" stroke-width="2" stroke-linecap="round" stroke-linejoin="round" cx="63.189" cy="20.166" r="2.759"/>
	
		<line fill="none" stroke="#4C241D" stroke-width="2" stroke-linecap="round" stroke-linejoin="round" x1="77.16" y1="40.854" x2="73.096" y2="44.921"/>
	
		<line fill="none" stroke="#4C241D" stroke-width="2" stroke-linecap="round" stroke-linejoin="round" x1="73.096" y1="40.854" x2="77.16" y2="44.921"/>
	<circle fill="#4C241D" cx="61.811" cy="36.717" r="1.38"/>
	<path fill="#6B4F5B" stroke="#4C241D" stroke-width="2" stroke-linecap="round" stroke-linejoin="round" d="M17.673,71.2
		l-0.403,6.896h15.379v-3.4l5.729,2.043c2.794,0.998,5.712,1.598,8.673,1.783c6.928,0.426,19.469-0.312,25.793-4.564v-5.27
		l-53.793-0.246L17.673,71.2z"/>
	<path fill="#FFCE56" stroke="#4C241D" stroke-width="2" stroke-linecap="round" stroke-linejoin="round" d="M32.648,70.56
		l5.729,2.043c2.794,0.998,5.712,1.598,8.673,1.783c6.928,0.426,19.469-0.312,25.793-4.564v-6.553c0-1.736-1.363-3.166-3.098-3.25
		L49.6,57.544c-1.785-0.082-3.293-1.352-3.678-3.098C43.15,39.444,43.393,24.038,46.637,9.13H13.533l6.417,37.324
		c0.317,1.775,0.358,3.59,0.118,5.379L17.671,71.2L32.648,70.56z"/>
	
		<circle fill="#E66353" stroke="#4C241D" stroke-width="2" stroke-linecap="round" stroke-linejoin="round" cx="36.982" cy="28.441" r="2.759"/>
	
		<circle fill="#E66353" stroke="#4C241D" stroke-width="2" stroke-linecap="round" stroke-linejoin="round" cx="34.225" cy="18.785" r="2.759"/>
	
		<circle fill="#E66353" stroke="#4C241D" stroke-width="2" stroke-linecap="round" stroke-linejoin="round" cx="23.189" cy="21.545" r="2.759"/>
	
		<circle fill="#E66353" stroke="#4C241D" stroke-width="2" stroke-linecap="round" stroke-linejoin="round" cx="25.947" cy="32.579" r="2.758"/>
	
		<circle fill="#E66353" stroke="#4C241D" stroke-width="2" stroke-linecap="round" stroke-linejoin="round" cx="36.982" cy="39.476" r="2.758"/>
	
		<circle fill="#E66353" stroke="#4C241D" stroke-width="2" stroke-linecap="round" stroke-linejoin="round" cx="27.328" cy="43.613" r="2.759"/>
	
		<circle fill="#E66353" stroke="#4C241D" stroke-width="2" stroke-linecap="round" stroke-linejoin="round" cx="28.707" cy="54.648" r="2.759"/>
	
		<circle fill="#E66353" stroke="#4C241D" stroke-width="2" stroke-linecap="round" stroke-linejoin="round" cx="27.328" cy="64.304" r="2.76"/>
	
		<circle fill="#E66353" stroke="#4C241D" stroke-width="2" stroke-linecap="round" stroke-linejoin="round" cx="38.363" cy="50.511" r="2.76"/>
	
		<circle fill="#E66353" stroke="#4C241D" stroke-width="2" stroke-linecap="round" stroke-linejoin="round" cx="50.775" cy="65.683" r="2.758"/>
	
		<circle fill="#E66353" stroke="#4C241D" stroke-width="2" stroke-linecap="round" stroke-linejoin="round" cx="63.189" cy="65.683" r="2.758"/>
	
		<circle fill="#E66353" stroke="#4C241D" stroke-width="2" stroke-linecap="round" stroke-linejoin="round" cx="39.74" cy="60.166" r="2.759"/>
	<path fill="#E66353" stroke="#4C241D" stroke-width="2" stroke-linecap="round" stroke-linejoin="round" d="M46.639,9.13
		c0-1.516-8.481-2.758-17.242-2.758c-8.76,0-15.861,1.242-15.861,2.758c0,1.518,7.102,2.76,15.861,2.76
		C38.157,11.89,46.639,10.655,46.639,9.13z"/>
	
		<line fill="none" stroke="#4C241D" stroke-width="2" stroke-linecap="round" stroke-linejoin="round" x1="2.5" y1="73.958" x2="16.293" y2="73.958"/>
	
		<line fill="none" stroke="#4C241D" stroke-width="2" stroke-linecap="round" stroke-linejoin="round" x1="72.846" y1="73.958" x2="82.5" y2="73.958"/>
</g>
</svg>
