<?xml version="1.0" encoding="utf-8"?>
<!-- Generator: Adobe Illustrator 16.0.0, SVG Export Plug-In . SVG Version: 6.00 Build 0)  -->
<!DOCTYPE svg PUBLIC "-//W3C//DTD SVG 1.1//EN" "http://www.w3.org/Graphics/SVG/1.1/DTD/svg11.dtd">
<svg version="1.1" id="Layer_1" xmlns="http://www.w3.org/2000/svg" xmlns:xlink="http://www.w3.org/1999/xlink" x="0px" y="0px"
	 width="85px" height="85px" viewBox="0 0 85 85" enable-background="new 0 0 85 85" xml:space="preserve">
<g>
	<g enable-background="new    ">
		<path fill="#754C29" d="M26.031,73.312H18.37V24.479c-1.844,1.757-4.26,3.525-7.263,5.282c-2.99,1.756-5.681,3.077-8.072,3.96
			v-7.411c4.285-2.019,8.035-4.46,11.236-7.326c3.202-2.864,5.482-5.643,6.814-8.346h4.933v62.674H26.031z"/>
	</g>
	<g enable-background="new    ">
		<path d="M26.553,73.848h-8.716V25.687c-1.755,1.528-3.923,3.05-6.46,4.535c-3.002,1.764-5.747,3.109-8.157,4.001L2.5,34.489
			v-8.518l0.307-0.145c4.228-1.991,7.964-4.426,11.108-7.239c3.153-2.822,5.406-5.577,6.692-8.185l0.146-0.297h5.799V73.848z
			 M18.903,72.779h6.581V11.171h-4.071c-1.367,2.643-3.648,5.403-6.786,8.21c-3.145,2.815-6.864,5.258-11.059,7.265v6.299
			c2.174-0.864,4.616-2.087,7.268-3.646c2.921-1.708,5.331-3.461,7.166-5.208l0.902-0.859V72.779z"/>
	</g>
	<g enable-background="new    ">
		<path fill="#754C29" d="M52.715,39.453c-3.178-1.159-5.531-2.827-7.065-4.983c-1.53-2.156-2.303-4.747-2.303-7.75
			c0-4.546,1.633-8.359,4.894-11.449c3.265-3.089,7.613-4.646,13.031-4.646c5.457,0,9.843,1.583,13.158,4.747
			c3.324,3.164,4.98,7.013,4.98,11.56c0,2.891-0.757,5.419-2.279,7.562c-1.518,2.143-3.824,3.799-6.911,4.958
			c3.836,1.246,6.75,3.265,8.745,6.04c2.003,2.781,3.001,6.104,3.001,9.969c0,5.33-1.894,9.816-5.669,13.453
			c-3.775,3.639-8.746,5.458-14.899,5.458c-6.154,0-11.127-1.819-14.9-5.47c-3.774-3.65-5.668-8.197-5.668-13.643
			c0-4.061,1.035-7.461,3.09-10.201C45.988,42.318,48.914,40.451,52.715,39.453z M48.717,55.3c0,2.18,0.521,4.299,1.554,6.34
			c1.037,2.043,2.579,3.625,4.625,4.748c2.043,1.119,4.247,1.68,6.601,1.68c3.663,0,6.691-1.184,9.07-3.537
			c2.382-2.354,3.576-5.344,3.576-8.982c0-3.686-1.234-6.738-3.687-9.154c-2.458-2.418-5.533-3.626-9.22-3.626
			c-3.601,0-6.593,1.197-8.959,3.574C49.9,48.747,48.717,51.724,48.717,55.3z M51.182,26.472c0,2.952,0.946,5.369,2.854,7.238
			c1.904,1.869,4.373,2.815,7.411,2.815c2.951,0,5.368-0.935,7.262-2.79c1.896-1.857,2.831-4.136,2.831-6.84
			c0-2.816-0.974-5.171-2.919-7.089c-1.943-1.918-4.358-2.877-7.263-2.877c-2.926,0-5.354,0.935-7.274,2.815
			C52.155,21.613,51.182,23.856,51.182,26.472z"/>
	</g>
	<g enable-background="new    ">
		<path d="M61.397,74.908c-6.277,0-11.414-1.893-15.272-5.62c-3.868-3.742-5.829-8.461-5.829-14.027
			c0-4.154,1.074-7.693,3.197-10.521c1.855-2.464,4.415-4.262,7.617-5.36c-2.562-1.149-4.539-2.693-5.894-4.601
			c-1.598-2.242-2.405-4.952-2.405-8.058c0-4.674,1.705-8.656,5.064-11.836c3.359-3.18,7.864-4.792,13.396-4.792
			c5.574,0,10.126,1.647,13.524,4.895c3.417,3.249,5.149,7.269,5.149,11.946c0,2.998-0.8,5.646-2.377,7.871
			c-1.359,1.913-3.328,3.462-5.865,4.614c3.291,1.294,5.875,3.231,7.693,5.765c2.059,2.854,3.104,6.311,3.104,10.279
			c0,5.453-1.962,10.107-5.833,13.838C72.809,73.02,67.669,74.908,61.397,74.908z M61.271,11.16c-5.247,0-9.506,1.514-12.663,4.5
			c-3.138,2.97-4.727,6.691-4.727,11.061c0,2.879,0.739,5.381,2.205,7.441c1.47,2.064,3.76,3.678,6.811,4.79l1.604,0.585
			l-1.654,0.433c-3.654,0.96-6.518,2.78-8.501,5.413c-1.979,2.639-2.984,5.961-2.984,9.879c0,5.266,1.852,9.727,5.506,13.258
			c3.651,3.53,8.537,5.319,14.528,5.319c5.985,0,10.875-1.785,14.53-5.308c3.651-3.52,5.503-7.916,5.503-13.068
			c0-3.74-0.974-6.99-2.9-9.656c-1.921-2.676-4.772-4.642-8.476-5.845L68.6,39.489l1.43-0.537c2.97-1.112,5.214-2.716,6.669-4.767
			c1.445-2.04,2.18-4.48,2.18-7.253c0-4.373-1.62-8.133-4.816-11.174C70.865,12.707,66.562,11.16,61.271,11.16z M61.496,68.603
			c-2.438,0-4.747-0.588-6.86-1.746c-2.134-1.172-3.763-2.848-4.841-4.975c-1.069-2.117-1.612-4.33-1.612-6.582
			c0-3.703,1.251-6.842,3.715-9.334c2.467-2.476,5.607-3.733,9.339-3.733c3.82,0,7.046,1.272,9.593,3.778
			c2.552,2.514,3.848,5.723,3.848,9.537c0,3.76-1.256,6.908-3.734,9.363C68.465,67.358,65.289,68.603,61.496,68.603z M61.236,43.3
			c-3.437,0-6.323,1.15-8.579,3.418c-2.292,2.318-3.409,5.127-3.409,8.582c0,2.078,0.507,4.135,1.503,6.1
			c0.976,1.934,2.457,3.453,4.4,4.52c1.954,1.07,4.088,1.613,6.345,1.613c3.501,0,6.424-1.135,8.694-3.383
			c2.267-2.244,3.418-5.139,3.418-8.602c0-3.518-1.187-6.471-3.528-8.773C67.74,44.468,64.765,43.3,61.236,43.3z M61.447,37.06
			c-3.158,0-5.777-0.999-7.786-2.968c-2-1.96-3.015-4.524-3.015-7.62c0-2.75,1.031-5.143,3.066-7.111
			c2.006-1.967,4.58-2.966,7.646-2.966c3.031,0,5.602,1.02,7.64,3.032c2.039,2.013,3.075,4.525,3.075,7.469
			c0,2.848-1.007,5.277-2.989,7.219C67.093,36.068,64.522,37.06,61.447,37.06z M61.358,17.463c-2.775,0-5.099,0.896-6.9,2.663
			c-1.819,1.762-2.742,3.896-2.742,6.346c0,2.797,0.908,5.105,2.691,6.856c1.802,1.768,4.173,2.663,7.04,2.663
			c2.785,0,5.104-0.886,6.89-2.637c1.797-1.76,2.669-3.872,2.669-6.458c0-2.684-0.903-4.878-2.758-6.709
			C66.392,18.354,64.139,17.463,61.358,17.463z"/>
	</g>
</g>
</svg>
