<?xml version="1.0" encoding="utf-8"?>
<!-- Generator: Adobe Illustrator 16.0.0, SVG Export Plug-In . SVG Version: 6.00 Build 0)  -->
<!DOCTYPE svg PUBLIC "-//W3C//DTD SVG 1.1//EN" "http://www.w3.org/Graphics/SVG/1.1/DTD/svg11.dtd">
<svg version="1.1" id="Layer_1" xmlns="http://www.w3.org/2000/svg" xmlns:xlink="http://www.w3.org/1999/xlink" x="0px" y="0px"
	 width="85px" height="85px" viewBox="0 0 85 85" enable-background="new 0 0 85 85" xml:space="preserve">
<g>
	<path d="M35.561,2.499c1.252,0.41,2.295,1.072,2.834,2.348c0.152,0.363,0.486,0.234,0.75,0.234c3.67,0.008,7.34-0.012,11.012,0.01
		c3.168,0.02,5.615,1.881,6.406,4.811c0.199,0.736,0.207,1.486,0.246,2.242c0.027,0.547-0.129,0.693-0.682,0.688
		c-2.891-0.029-5.779-0.014-8.668-0.014c-2.707,0-5.414,0.014-8.121-0.014c-0.52-0.006-0.705,0.145-0.637,0.652
		c0.031,0.23,0.025,0.469,0.002,0.701c-0.09,0.893,0.039,1.537,0.998,2.053c1.164,0.629,1.717,1.879,1.578,3.191
		c-0.152,1.451,0.445,2.312,1.521,3.178c2.393,1.92,4.672,3.982,7.018,5.965c0.4,0.336,0.529,0.691,0.529,1.201
		c-0.014,9.736-0.01,19.471-0.01,29.207c0,0.924-0.002,0.918,0.838,0.627c0.67-0.23,1.363-0.324,2.072-0.322
		c1.951,0.002,3.902-0.008,5.855,0.006c0.678,0.004,1.256-0.125,1.475-0.861c0.215-0.721-0.148-1.176-0.725-1.553
		c-1.432-0.939-2.85-1.9-4.273-2.854c3.629-2.264,7.43-3.354,11.564-1.648c3.314,1.363,5.676,3.65,6.289,7.344
		c0.408,2.457-0.215,4.689-1.752,6.658c-0.154,0.197-0.316,0.389-0.531,0.648c2.418,0.17,4.398,1.078,5.854,2.936
		c1.814,2.314,2.236,4.92,1.156,7.639c-1.072,2.699-3.094,4.365-6.033,4.799c-0.061,0.008-0.109,0.086-0.162,0.131
		c-19.271,0-38.543,0-57.814,0c-2.682-0.266-4.746-1.588-6.258-3.771c-1.061-1.529-1.631-3.238-1.631-5.127
		c0.007-14.475,0.01-28.947-0.01-43.42c0-0.906,0.256-1.553,0.971-2.152c2.492-2.09,4.943-4.23,7.424-6.334
		c0.48-0.408,0.697-0.861,0.689-1.484c-0.01-0.828-0.102-1.67,0.256-2.465c0.336-0.75,0.762-1.436,1.504-1.84
		c0.582-0.32,0.746-0.785,0.74-1.416c-0.02-2.629-0.01-5.258-0.006-7.887c0-1.229,0.406-2.293,1.268-3.178
		c0.531-0.547,1.205-0.783,1.928-0.926C25.873,2.499,30.717,2.499,35.561,2.499z"/>
	<path fill="#FEE9A6" d="M44.535,79.909c-0.391,0-0.623,0-0.855,0c-9.268,0-18.535,0.004-27.801-0.002
		c-3.358-0.002-5.875-1.869-6.645-4.916c-0.16-0.633-0.206-1.281-0.206-1.934C9.03,59.261,9.033,45.464,9.018,31.669
		c-0.002-0.592,0.119-0.789,0.758-0.787c12.416,0.021,24.832,0.021,37.25-0.002c0.66-0.002,0.736,0.225,0.734,0.789
		c-0.014,10.697-0.006,21.396-0.016,32.096c-0.002,1.082,0.078,2.135,0.627,3.092c0.207,0.359,0.023,0.4-0.27,0.5
		c-3.088,1.049-4.941,3.18-5.434,6.406C42.328,76.013,43.023,78.015,44.535,79.909z"/>
	<path fill="#E5E8EC" d="M60.623,79.909c-3.41,0-6.82,0.016-10.232-0.006c-2.109-0.014-3.717-0.965-4.658-2.854
		c-0.906-1.822-0.752-3.641,0.432-5.311c1.037-1.463,2.52-2.148,4.291-2.15c6.795-0.016,13.592-0.033,20.387,0.006
		c2.9,0.018,4.953,1.924,5.279,4.725c0.281,2.406-1.406,4.768-3.873,5.43c-0.561,0.15-1.131,0.16-1.703,0.16
		C67.236,79.911,63.93,79.909,60.623,79.909z"/>
	<path fill="#CBD0D8" d="M28.369,15.415c-2.344,0-4.686-0.018-7.025,0.014c-0.559,0.008-0.691-0.174-0.688-0.705
		c0.023-2.682,0.006-5.361,0.014-8.041c0.004-1.164,0.432-1.59,1.605-1.592c4.084-0.006,8.168-0.006,12.254,0
		c1.162,0,1.617,0.447,1.621,1.598c0.01,2.68-0.012,5.359,0.016,8.039c0.006,0.545-0.145,0.707-0.695,0.701
		C33.104,15.399,30.736,15.415,28.369,15.415z"/>
	<path fill="#E5E8EC" d="M60.861,54.396c2.324-0.562,4.432-0.279,6.393,0.854c1.922,1.107,3.344,2.625,3.654,4.949
		c0.469,3.506-2.129,6.715-5.672,6.795c-4.109,0.09-8.223,0.043-12.334,0.018c-1.484-0.01-2.564-1.162-2.557-2.596
		s1.105-2.533,2.592-2.547c2.029-0.02,4.061-0.004,6.09-0.008c2.031-0.002,3.502-0.982,4.029-2.682
		c0.535-1.723-0.09-3.293-1.789-4.492C61.166,54.612,61.064,54.54,60.861,54.396z"/>
	<path fill="#FBD670" d="M45.506,28.257c-11.461,0-22.746,0-34.041,0c-0.021-0.264,0.225-0.322,0.362-0.441
		c1.653-1.432,3.319-2.846,4.968-4.283c0.311-0.27,0.617-0.406,1.043-0.406c7.055,0.014,14.109,0.012,21.166,0.006
		c0.322,0,0.586,0.051,0.85,0.279C41.682,24.997,43.525,26.563,45.506,28.257z"/>
	<path fill="#A9B1BC" d="M28.408,20.573c-3.176,0-6.35-0.016-9.521,0.016c-0.627,0.006-0.859-0.123-0.834-0.797
		c0.051-1.4,0.422-1.818,1.816-1.818c5.697-0.002,11.395-0.002,17.092,0c1.43,0,2.125,0.941,1.746,2.326
		c-0.119,0.438-0.457,0.266-0.699,0.266C34.807,20.579,31.605,20.573,28.408,20.573z"/>
	<path fill="#E4E7EB" d="M46.35,10.243c-2.312,0-4.625-0.014-6.938,0.01c-0.514,0.006-0.725-0.084-0.721-0.668
		c0.014-1.93-0.012-1.93,1.924-1.93c3.221,0,6.443-0.008,9.666,0.004c1.43,0.006,2.541,0.633,3.324,1.832
		c0.127,0.193,0.338,0.412,0.242,0.625c-0.111,0.25-0.42,0.121-0.639,0.121C50.924,10.247,48.637,10.243,46.35,10.243z"/>
	<path d="M33.979,59.261c-1.918,0.018-3.635-0.57-5.145-1.73c-0.326-0.25-0.516-0.268-0.854-0.021
		c-5.377,3.922-12.521,0.928-13.52-5.652c-0.066-0.438-0.139-0.873-0.219-1.309c-0.117-0.641,0.1-1.143,0.666-1.443
		c0.574-0.307,1.105-0.16,1.561,0.291c0.48,0.477,0.951,0.963,1.438,1.434c0.961,0.932,1.918,0.941,2.875,0.043
		c2.355-2.211,4.117-2.48,7.062-1.045c0.424,0.209,0.752,0.184,1.158-0.021c2.814-1.416,4.738-1.119,6.998,1.047
		c0.953,0.914,1.918,0.916,2.871-0.006c0.521-0.506,1.018-1.043,1.551-1.537c0.418-0.389,0.924-0.482,1.443-0.217
		c0.477,0.242,0.779,0.656,0.713,1.197c-0.24,1.969-0.578,3.908-1.832,5.549C39.039,58.071,36.777,59.196,33.979,59.261z"/>
	<path d="M28.373,43.776c-2.838,0-5.678,0.002-8.516,0c-2.117-0.002-3.059-0.934-3.061-3.025c-0.002-0.729-0.016-1.457,0.006-2.186
		c0.041-1.404,1.082-2.486,2.48-2.492c6.066-0.018,12.133-0.018,18.199,0c1.385,0.002,2.412,0.992,2.498,2.387
		c0.059,0.934,0.055,1.875,0.012,2.811c-0.072,1.512-1.105,2.492-2.637,2.5C34.359,43.788,31.367,43.776,28.373,43.776z"/>
	<path d="M20.688,74.743c-3.541,0.027-6.465-2.857-6.492-6.408c-0.025-3.498,2.854-6.432,6.35-6.469
		c3.607-0.039,6.549,2.83,6.564,6.404C27.129,71.821,24.256,74.716,20.688,74.743z"/>
	<path d="M36.18,61.862c1.949,0,3.896,0.01,5.844-0.01c0.418-0.004,0.613,0.07,0.576,0.543c-0.051,0.643,0.197,1.477-0.121,1.885
		c-0.34,0.434-1.209,0.133-1.846,0.135c-3.377,0.018-6.754-0.016-10.129,0.027c-0.713,0.008-0.859-0.207-0.842-0.873
		c0.045-1.707,0.014-1.707,1.688-1.707C32.959,61.862,34.568,61.862,36.18,61.862z"/>
	<path d="M34.936,72.181c1.482,0,2.965,0.023,4.447-0.014c0.527-0.014,0.637,0.158,0.637,0.654c-0.002,1.93,0.016,1.93-1.943,1.93
		c-2.549,0-5.1-0.016-7.648,0.012c-0.545,0.006-0.775-0.086-0.768-0.711c0.023-1.871-0.006-1.871,1.842-1.871
		C32.645,72.181,33.791,72.181,34.936,72.181z"/>
	<path d="M33.58,69.585c-1.096,0-2.189-0.02-3.281,0.012c-0.463,0.012-0.627-0.104-0.635-0.604
		c-0.027-1.973-0.047-1.973,1.896-1.973c1.771,0,3.541,0.014,5.312-0.008c0.43-0.008,0.564,0.1,0.572,0.551
		c0.031,2.021,0.047,2.021-1.992,2.021C34.83,69.585,34.205,69.585,33.58,69.585z"/>
	<path fill="#020101" d="M42.592,68.312c0,1.273,0,1.273-1.312,1.273c-1.273,0-1.273,0-1.273-1.262c0-1.303,0-1.303,1.297-1.303
		C42.592,67.021,42.592,67.021,42.592,68.312z"/>
	<path fill="#959EA9" d="M17.896,53.886c2.045,0.537,3.656-0.021,5.027-1.482c0.908-0.969,2-1.117,3.207-0.553
		c2.684,1.252,1.783,1.322,4.49,0.018c1.234-0.596,2.32-0.445,3.273,0.559c1.357,1.428,2.941,1.986,5.037,1.455
		c-0.938,1.49-2.16,2.322-3.697,2.66c-2.055,0.451-3.861-0.092-5.393-1.531c-1.283-1.207-1.562-1.213-2.893,0.01
		C24.133,57.601,19.82,57.114,17.896,53.886z"/>
	<path fill="#ED7284" d="M28.371,38.612c2.785,0,5.57,0.02,8.354-0.016c0.605-0.01,0.73,0.174,0.723,0.742
		c-0.023,1.883,0,1.883-1.912,1.883c-5.127,0-10.254-0.014-15.383,0.016c-0.656,0.002-0.828-0.184-0.816-0.828
		c0.035-1.797,0.006-1.797,1.773-1.797C23.529,38.612,25.951,38.612,28.371,38.612z"/>
	<path fill="#EE7384" d="M24.506,68.296c0.006,2.139-1.719,3.881-3.844,3.883c-2.127,0.004-3.861-1.73-3.863-3.865
		c-0.002-2.143,1.721-3.883,3.848-3.887C22.773,64.421,24.502,66.153,24.506,68.296z"/>
</g>
</svg>
