<?xml version="1.0" encoding="utf-8"?>
<!-- Generator: Adobe Illustrator 16.0.0, SVG Export Plug-In . SVG Version: 6.00 Build 0)  -->
<!DOCTYPE svg PUBLIC "-//W3C//DTD SVG 1.1//EN" "http://www.w3.org/Graphics/SVG/1.1/DTD/svg11.dtd">
<svg version="1.1" id="Layer_1" xmlns="http://www.w3.org/2000/svg" xmlns:xlink="http://www.w3.org/1999/xlink" x="0px" y="0px"
	 width="85px" height="85px" viewBox="0 0 85 85" enable-background="new 0 0 85 85" xml:space="preserve">
<g>
	<g>
		<rect x="27.972" y="3.195" fill="#FF546A" width="53.557" height="5.385"/>
		<path d="M81.528,9.275H27.972c-0.384,0-0.695-0.311-0.695-0.695V3.195c0-0.385,0.311-0.695,0.695-0.695h53.557
			c0.385,0,0.695,0.311,0.695,0.695V8.58C82.224,8.965,81.913,9.275,81.528,9.275z M28.667,7.885h52.166V3.891H28.667V7.885z"/>
	</g>
	<g>
		<rect x="27.972" y="52.356" fill="#FF546A" width="53.557" height="2.278"/>
		<path d="M81.528,55.33H27.972c-0.384,0-0.695-0.312-0.695-0.695v-2.278c0-0.385,0.311-0.695,0.695-0.695h53.557
			c0.385,0,0.695,0.311,0.695,0.695v2.278C82.224,55.019,81.913,55.33,81.528,55.33z M28.667,53.939h52.166v-0.888H28.667V53.939z"
			/>
	</g>
	<g>
		<g>
			<path d="M53.341,27.481c-0.178,0-0.355-0.068-0.491-0.204l-7.773-7.773c-0.272-0.271-0.272-0.712,0-0.983
				c0.271-0.271,0.711-0.271,0.982,0l7.774,7.773c0.271,0.271,0.271,0.712,0,0.983C53.696,27.413,53.519,27.481,53.341,27.481z"/>
			<path d="M45.567,27.481c-0.178,0-0.355-0.068-0.491-0.204c-0.272-0.271-0.272-0.712,0-0.983l7.773-7.773
				c0.271-0.271,0.711-0.271,0.983,0c0.271,0.271,0.271,0.712,0,0.983l-7.774,7.773C45.923,27.413,45.745,27.481,45.567,27.481z"/>
		</g>
		<g>
			<path d="M67.157,42.796c-0.178,0-0.355-0.068-0.492-0.204l-7.772-7.772c-0.271-0.271-0.271-0.712,0-0.983s0.712-0.271,0.983,0
				l7.772,7.772c0.271,0.272,0.271,0.712,0,0.983C67.513,42.728,67.335,42.796,67.157,42.796z"/>
			<path d="M59.385,42.796c-0.179,0-0.356-0.068-0.492-0.204c-0.271-0.271-0.271-0.711,0-0.983l7.772-7.772
				c0.271-0.271,0.712-0.271,0.983,0s0.271,0.712,0,0.983l-7.772,7.772C59.74,42.728,59.562,42.796,59.385,42.796z"/>
		</g>
		<g>
			<circle fill="#5EEF99" cx="48.322" cy="38.214" r="4.146"/>
			<path d="M48.322,43.055c-2.669,0-4.841-2.171-4.841-4.84c0-2.67,2.172-4.842,4.841-4.842c2.67,0,4.842,2.172,4.842,4.842
				C53.164,40.884,50.992,43.055,48.322,43.055z M48.322,34.764c-1.902,0-3.45,1.548-3.45,3.451c0,1.902,1.548,3.449,3.45,3.449
				s3.451-1.547,3.451-3.449C51.773,36.312,50.225,34.764,48.322,34.764z"/>
		</g>
		<g>
			<circle fill="#5ACDFF" cx="63.012" cy="22.898" r="4.146"/>
			<path d="M63.012,27.74c-2.67,0-4.841-2.172-4.841-4.841c0-2.67,2.171-4.842,4.841-4.842c2.669,0,4.841,2.172,4.841,4.842
				C67.853,25.568,65.681,27.74,63.012,27.74z M63.012,19.448c-1.902,0-3.45,1.548-3.45,3.451c0,1.902,1.548,3.45,3.45,3.45
				s3.45-1.548,3.45-3.45C66.462,20.996,64.914,19.448,63.012,19.448z"/>
		</g>
		<g>
			<path d="M53.046,48.65H39.319c-0.384,0-0.695-0.312-0.695-0.695c0-0.385,0.311-0.695,0.695-0.695h13.727
				c1.489,0,2.7-1.212,2.7-2.701V33.863c0-2.256,1.835-4.091,4.091-4.091h9.359c1.489,0,2.701-1.212,2.701-2.7V12.98
				c0-0.385,0.311-0.695,0.695-0.695c0.384,0,0.695,0.311,0.695,0.695v14.092c0,2.256-1.836,4.091-4.092,4.091h-9.359
				c-1.489,0-2.7,1.211-2.7,2.7v10.695C57.137,46.814,55.301,48.65,53.046,48.65z"/>
			<path d="M75.743,17.296c-0.194,0-0.387-0.081-0.524-0.239l-2.626-3.017l-2.627,3.017c-0.251,0.291-0.69,0.32-0.98,0.068
				s-0.32-0.691-0.067-0.98l3.15-3.62c0.264-0.305,0.785-0.305,1.049,0l3.15,3.62c0.253,0.289,0.222,0.729-0.068,0.98
				C76.067,17.239,75.905,17.296,75.743,17.296z"/>
		</g>
	</g>
	<path d="M78.892,53.052H30.609c-0.385,0-0.695-0.312-0.695-0.695v-7.94c0-0.384,0.311-0.695,0.695-0.695
		c0.384,0,0.695,0.312,0.695,0.695v7.245h46.892V9.274H31.305v28.582c0,0.385-0.311,0.695-0.695,0.695
		c-0.385,0-0.695-0.311-0.695-0.695V8.579c0-0.385,0.311-0.695,0.695-0.695h48.282c0.384,0,0.695,0.311,0.695,0.695v43.777
		C79.587,52.74,79.275,53.052,78.892,53.052z"/>
	<g>
		<g>
			<path fill="#FCC447" d="M37.506,37.856H24.792h-6.56h-1.64h-6.56c-3.623,0-6.56,2.937-6.56,6.56v8.333
				c0,3.623,2.937,6.56,6.56,6.56v18.806c0,2.037,1.652,3.689,3.69,3.689c2.038,0,3.69-1.652,3.69-3.689
				c0,2.037,1.652,3.689,3.69,3.689s3.69-1.652,3.69-3.689V44.416h12.714c1.811,0,3.28-1.468,3.28-3.279
				S39.317,37.856,37.506,37.856z"/>
			<path d="M21.102,82.5c-1.547,0-2.909-0.805-3.69-2.019c-0.781,1.214-2.143,2.019-3.69,2.019c-2.418,0-4.385-1.968-4.385-4.386
				V59.971c-3.675-0.351-6.56-3.455-6.56-7.222v-8.333c0-4,3.255-7.255,7.255-7.255h27.474c2.192,0,3.975,1.783,3.975,3.976
				c0,2.191-1.783,3.975-3.975,3.975H25.487v33.003C25.487,80.532,23.52,82.5,21.102,82.5z M17.412,77.419
				c0.384,0,0.695,0.312,0.695,0.695c0,1.651,1.343,2.994,2.995,2.994s2.995-1.343,2.995-2.994V44.416
				c0-0.384,0.311-0.695,0.695-0.695h12.714c1.425,0,2.584-1.159,2.584-2.584c0-1.426-1.159-2.585-2.584-2.585H10.032
				c-3.233,0-5.865,2.632-5.865,5.864v8.333c0,3.233,2.631,5.864,5.865,5.864c0.385,0,0.696,0.312,0.696,0.695v18.806
				c0,1.651,1.343,2.994,2.994,2.994s2.995-1.343,2.995-2.994C16.716,77.73,17.027,77.419,17.412,77.419z"/>
		</g>
		<g>
			<path fill="#FCC447" d="M17.804,24.153c-3.667,0-6.641,2.973-6.641,6.641v0.422c0,3.668,2.973,6.641,6.641,6.641
				s6.641-2.973,6.641-6.641v-0.422C24.445,27.126,21.471,24.153,17.804,24.153z"/>
			<path d="M17.804,38.552c-4.045,0-7.336-3.291-7.336-7.336v-0.422c0-4.045,3.292-7.336,7.336-7.336s7.336,3.291,7.336,7.336v0.422
				C25.14,35.261,21.849,38.552,17.804,38.552z M17.804,24.849c-3.278,0-5.946,2.667-5.946,5.945v0.422
				c0,3.278,2.667,5.945,5.946,5.945s5.945-2.667,5.945-5.945v-0.422C23.75,27.516,21.083,24.849,17.804,24.849z"/>
		</g>
		<g>
			<line fill="#FCC447" x1="17.412" y1="78.114" x2="17.412" y2="59.759"/>
			<path d="M17.412,78.81c-0.384,0-0.695-0.311-0.695-0.695V59.759c0-0.385,0.311-0.696,0.695-0.696s0.695,0.312,0.695,0.696v18.355
				C18.107,78.499,17.796,78.81,17.412,78.81z"/>
		</g>
		<g>
			<line fill="#FCC447" x1="10.032" y1="59.309" x2="10.032" y2="44.352"/>
			<path d="M10.032,60.004c-0.384,0-0.695-0.311-0.695-0.695V44.352c0-0.385,0.311-0.695,0.695-0.695
				c0.385,0,0.696,0.311,0.696,0.695v14.957C10.728,59.693,10.417,60.004,10.032,60.004z"/>
		</g>
	</g>
	<g>
		<g>
			<g>
				<path fill="#5EEF99" d="M77.297,66.229c0,2.706-2.193,4.899-4.899,4.899c-2.705,0-4.898-2.193-4.898-4.899V65.51
					c0-2.705,2.193-4.899,4.898-4.899c2.706,0,4.899,2.194,4.899,4.899V66.229z"/>
				<path d="M72.397,71.823c-3.084,0-5.594-2.51-5.594-5.595V65.51c0-3.084,2.51-5.594,5.594-5.594c3.085,0,5.595,2.51,5.595,5.594
					v0.719C77.992,69.313,75.482,71.823,72.397,71.823z M72.397,61.307c-2.317,0-4.203,1.886-4.203,4.203v0.719
					c0,2.318,1.886,4.204,4.203,4.204c2.318,0,4.204-1.886,4.204-4.204V65.51C76.602,63.192,74.716,61.307,72.397,61.307z"/>
			</g>
			<g>
				<path fill="#5EEF99" d="M63.673,81.252v-5.91c0-2.268,2.712-3.658,6.021-4.158l5.479-0.056c1.599,0.208,3.073,0.611,4.186,1.224
					c1.237,0.668,2.058,1.571,2.169,2.712v0.278v5.91"/>
				<path d="M82.224,81.251h-1.391v-6.188c-0.078-0.768-0.687-1.497-1.804-2.101c-0.987-0.542-2.35-0.938-3.945-1.146l-5.383,0.062
					c-2.528,0.389-5.333,1.509-5.333,3.462v5.91h-1.391v-5.91c0-2.407,2.473-4.219,6.613-4.845l5.576-0.063
					c1.863,0.236,3.395,0.688,4.527,1.31c1.523,0.822,2.398,1.947,2.526,3.254L82.224,81.251z"/>
			</g>
		</g>
	</g>
	<g>
		<g>
			<g>
				<path fill="#5ACDFF" d="M59.441,66.229c0,2.706-2.193,4.899-4.899,4.899s-4.898-2.193-4.898-4.899V65.51
					c0-2.705,2.192-4.899,4.898-4.899s4.899,2.194,4.899,4.899V66.229z"/>
				<path d="M54.542,71.823c-3.085,0-5.595-2.51-5.595-5.595V65.51c0-3.084,2.51-5.594,5.595-5.594s5.595,2.51,5.595,5.594v0.719
					C60.137,69.313,57.627,71.823,54.542,71.823z M54.542,61.307c-2.318,0-4.204,1.886-4.204,4.203v0.719
					c0,2.318,1.886,4.204,4.204,4.204s4.204-1.886,4.204-4.204V65.51C58.746,63.192,56.86,61.307,54.542,61.307z"/>
			</g>
			<g>
				<path fill="#5ACDFF" d="M45.816,81.252v-5.91c0-2.268,2.712-3.658,6.021-4.158l5.479-0.056c1.6,0.208,3.073,0.611,4.186,1.224
					c1.238,0.668,2.059,1.571,2.17,2.712v0.278v5.91"/>
				<path d="M64.368,81.251h-1.391v-6.188c-0.078-0.768-0.687-1.497-1.804-2.101c-0.987-0.542-2.351-0.938-3.946-1.146l-5.383,0.062
					c-2.527,0.389-5.333,1.51-5.333,3.462v5.91h-1.391v-5.91c0-2.407,2.473-4.219,6.613-4.845l5.576-0.063
					c1.862,0.235,3.396,0.687,4.527,1.31c1.524,0.822,2.399,1.947,2.527,3.254L64.368,81.251z"/>
			</g>
		</g>
	</g>
	<g>
		<g>
			<g>
				<path fill="#FF546A" d="M41.589,66.229c0,2.706-2.193,4.899-4.899,4.899c-2.706,0-4.899-2.193-4.899-4.899V65.51
					c0-2.705,2.193-4.899,4.899-4.899c2.706,0,4.899,2.194,4.899,4.899V66.229z"/>
				<path d="M36.69,71.823c-3.085,0-5.594-2.51-5.594-5.595V65.51c0-3.084,2.509-5.594,5.594-5.594s5.595,2.51,5.595,5.594v0.719
					C42.285,69.313,39.775,71.823,36.69,71.823z M36.69,61.307c-2.318,0-4.204,1.886-4.204,4.203v0.719
					c0,2.318,1.885,4.204,4.204,4.204s4.204-1.886,4.204-4.204V65.51C40.895,63.192,39.009,61.307,36.69,61.307z"/>
			</g>
			<g>
				<path fill="#FF546A" d="M27.965,81.252v-5.91c0-2.268,2.712-3.658,6.021-4.158l5.479-0.056c1.599,0.208,3.073,0.611,4.186,1.224
					c1.237,0.668,2.058,1.571,2.169,2.712v0.278v5.91"/>
				<path d="M46.517,81.251h-1.391v-6.188c-0.078-0.768-0.687-1.497-1.804-2.101c-0.987-0.542-2.35-0.938-3.945-1.146l-5.383,0.062
					c-2.527,0.389-5.333,1.509-5.333,3.462v5.91h-1.391v-5.91c0-2.407,2.472-4.219,6.612-4.845l5.577-0.063
					c1.863,0.236,3.395,0.688,4.528,1.31c1.523,0.822,2.398,1.947,2.526,3.254L46.517,81.251z"/>
			</g>
		</g>
	</g>
</g>
</svg>
