<?xml version="1.0" encoding="utf-8"?>
<!-- Generator: Adobe Illustrator 16.0.2, SVG Export Plug-In . SVG Version: 6.00 Build 0)  -->
<!DOCTYPE svg PUBLIC "-//W3C//DTD SVG 1.1//EN" "http://www.w3.org/Graphics/SVG/1.1/DTD/svg11.dtd">
<svg version="1.1" id="Layer_1" xmlns="http://www.w3.org/2000/svg" xmlns:xlink="http://www.w3.org/1999/xlink" x="0px" y="0px"
	 width="85px" height="85px" viewBox="0 0 85 85" enable-background="new 0 0 85 85" xml:space="preserve">
<g>
	<path d="M3.765,42.96c-1.074-0.373-1.264-0.631-1.264-1.756c0-9.672-0.002-19.344,0-29.016c0-1.273,0.408-1.681,1.691-1.681
		c6.143-0.002,12.285-0.001,18.428,0c1.113,0,1.381,0.207,1.773,1.269c0.33,0.897,0.348,2.146,1.064,2.596
		c0.682,0.426,1.822,0.13,2.76,0.131c3.293,0.005,6.588-0.001,9.883,0.003c2.129,0.003,3.127,0.996,3.127,3.108
		c0.002,6.012,0.008,12.023-0.012,18.037c-0.002,0.578,0.094,0.84,0.746,0.779c0.775-0.072,1.838,0.264,2.27-0.131
		c0.496-0.455,0.148-1.523,0.15-2.326c0.012-5.463,0.006-10.926,0.008-16.391c0-2.068,0.996-3.075,3.07-3.076
		c7.24-0.004,14.482-0.004,21.723,0c2.104,0.001,3.094,1.014,3.094,3.146c0,6.037,0.008,12.075-0.016,18.113
		c-0.002,0.569,0.145,0.785,0.719,0.898c5.479,1.084,9.438,5.75,9.518,11.175c0.084,5.621-3.646,10.396-9.121,11.68
		c-1.053,0.246-2.121,0.299-3.191,0.26c-0.471-0.016-0.699,0.057-0.689,0.623c0.035,2.117,0.027,4.234,0.004,6.352
		c-0.006,0.477,0.121,0.664,0.609,0.621c0.361-0.031,0.732-0.012,1.096,0.023c1.17,0.107,1.977,0.924,2.025,2.1
		c0.039,0.939,0.037,1.883,0,2.822c-0.049,1.223-0.928,2.133-2.158,2.146c-3.268,0.033-6.535,0.033-9.803-0.002
		c-1.27-0.014-2.121-0.943-2.152-2.221c-0.021-0.863-0.018-1.725-0.002-2.588c0.023-1.348,0.832-2.184,2.174-2.281
		c1.525-0.107,1.525-0.107,1.525-1.662c0-1.725-0.021-3.449,0.012-5.176c0.01-0.553-0.09-0.768-0.715-0.766
		c-5.203,0.027-10.404,0.021-15.605,0.006c-0.5-0.002-0.68,0.107-0.672,0.643c0.029,2.117,0.027,4.234,0,6.354
		c-0.008,0.508,0.172,0.637,0.633,0.602c0.363-0.027,0.734-0.01,1.098,0.025c1.166,0.115,1.959,0.945,1.994,2.123
		c0.027,0.914,0.025,1.83,0.004,2.744c-0.033,1.23-0.877,2.178-2.102,2.191c-3.293,0.043-6.588,0.041-9.881,0.004
		c-1.26-0.014-2.109-0.965-2.137-2.238c-0.02-0.836-0.016-1.674-0.002-2.512c0.018-1.42,0.848-2.268,2.277-2.344
		c1.441-0.076,1.441-0.076,1.441-1.504c0-1.805-0.016-3.607,0.01-5.41c0.006-0.486-0.088-0.682-0.637-0.68
		c-5.229,0.02-10.455,0.02-15.684,0.002c-0.502-0.002-0.68,0.113-0.67,0.648c0.031,2.092,0.033,4.184-0.002,6.273
		c-0.01,0.58,0.205,0.717,0.725,0.674c0.361-0.027,0.732-0.006,1.096,0.037c1.049,0.127,1.832,0.922,1.877,1.979
		c0.043,1.018,0.043,2.039,0,3.057c-0.049,1.119-0.938,2.006-2.104,2.018c-3.293,0.035-6.588,0.039-9.881-0.002
		c-1.223-0.016-2.074-0.955-2.117-2.186c-0.027-0.809-0.014-1.619-0.006-2.43c0.01-1.572,0.836-2.424,2.393-2.48
		c1.338-0.047,1.338-0.047,1.338-1.361c0-1.828-0.025-3.658,0.014-5.488c0.014-0.584-0.137-0.748-0.73-0.742
		c-3.529,0.029-7.059,0.016-10.586,0.014c-1.303,0-1.686-0.381-1.689-1.668c-0.002-1.072-0.004-2.143,0-3.215
		c0.006-1.008,0.248-1.313,1.244-1.592c0.455-0.301,0.076-0.625,0.027-0.939c-1.766-2.875-1.639-5.748,0.014-8.619
		C3.892,43.487,4.146,43.216,3.765,42.96z"/>
	<path fill="#2E393C" d="M3.773,52.374c0.09,0.117,0.186,0.232,0.268,0.355c0.105,0.158,0.375,0.275,0.26,0.488
		c-0.105,0.193-0.361,0.086-0.553,0.094C3.755,52.999,3.765,52.687,3.773,52.374z"/>
	<path fill="#2E393C" d="M3.765,42.96c0.176,0,0.473-0.072,0.494,0.068c0.053,0.33-0.225,0.539-0.473,0.727
		C3.779,43.489,3.773,43.226,3.765,42.96z"/>
	<path fill="#313D40" d="M30.169,36.389c-0.295,0-0.551,0-0.809,0c-7.813,0-15.625-0.008-23.438,0.015
		c-0.688,0.002-0.934-0.139-0.932-0.893C5.023,28.3,5.019,21.088,4.996,13.876c-0.002-0.674,0.148-0.889,0.859-0.883
		c5.174,0.031,10.348,0.025,15.52,0.004c0.596-0.002,0.873,0.19,1.066,0.758c2.299,6.736,4.623,13.465,6.938,20.195
		C29.648,34.734,30.021,35.486,30.169,36.389z"/>
	<path fill="#D98B36" d="M58.287,36.414c-3.555,0-7.109-0.014-10.664,0.014c-0.594,0.004-0.738-0.167-0.736-0.748
		c0.021-5.959,0.021-11.918,0-17.877c-0.004-0.614,0.156-0.809,0.781-0.792c1.566,0.043,3.137,0.028,4.703,0.006
		c0.477-0.007,0.641,0.138,0.627,0.622c-0.029,1.148-0.002,2.301-0.01,3.45c-0.008,0.81,0.318,1.423,1.053,1.772
		c0.732,0.351,1.422,0.225,2.045-0.285c0.588-0.479,1.199-0.933,1.752-1.448c0.373-0.347,0.639-0.31,0.992,0.007
		c0.566,0.503,1.166,0.967,1.754,1.447c0.623,0.51,1.316,0.638,2.045,0.277c0.721-0.357,1.061-0.97,1.055-1.779
		c-0.008-1.15,0.021-2.301-0.012-3.45c-0.016-0.492,0.15-0.621,0.623-0.613c1.619,0.024,3.24,0.022,4.861,0.001
		c0.482-0.007,0.623,0.163,0.621,0.635c-0.012,6.039-0.018,12.075,0.006,18.113c0.002,0.613-0.268,0.659-0.754,0.657
		C65.449,36.408,61.869,36.414,58.287,36.414z"/>
	<path fill="#465658" d="M38.666,57.259c-10.926,0-21.852-0.008-32.779,0.02c-0.748,0.002-0.941-0.232-0.891-0.926
		c0.031-0.426,0.188-0.553,0.572-0.521c0.209,0.02,0.418,0.004,0.627,0.004c21.436,0,42.872,0.002,64.305-0.002
		c3.625,0,6.367-1.879,7.613-5.189c1.775-4.717-1.869-10.158-6.912-10.191c-7.998-0.055-15.998-0.02-23.996-0.021
		c-13.778,0-27.553-0.006-41.329,0.014c-0.672,0.002-0.889-0.145-0.895-0.855c-0.004-0.762,0.41-0.686,0.895-0.686
		c16.232,0.004,32.465,0.004,48.7,0.004c5.307,0,10.613-0.012,15.92,0.004c2.26,0.008,4.297,0.68,6.1,2.092
		c4.291,3.363,4.527,10.117,0.477,13.798c-1.824,1.66-3.938,2.469-6.408,2.465C59.996,57.249,49.332,57.259,38.666,57.259z"/>
	<path fill="#D98B36" d="M27.904,21.273c0.521,0.42,1.049,0.832,1.564,1.26c0.643,0.531,1.348,0.693,2.111,0.326
		c0.766-0.369,1.066-1.021,1.055-1.855c-0.018-1.124,0.02-2.249-0.014-3.372c-0.014-0.49,0.156-0.623,0.627-0.616
		c1.568,0.023,3.137,0.039,4.705-0.005c0.631-0.019,0.785,0.187,0.783,0.797c-0.023,4.94-0.016,9.881-0.016,14.821
		c0,1.045-0.023,2.092,0.012,3.136c0.02,0.524-0.16,0.669-0.67,0.659c-1.518-0.03-3.033-0.021-4.549-0.004
		c-0.418,0.006-0.645-0.09-0.797-0.532c-1.621-4.739-3.268-9.468-4.906-14.201c-0.031-0.092-0.035-0.194-0.051-0.291
		C27.808,21.355,27.855,21.314,27.904,21.273z"/>
	<path fill="#B3D1D6" d="M40.517,42.916c2.891-0.002,5.247,2.347,5.233,5.218c-0.014,2.844-2.346,5.18-5.184,5.193
		c-2.893,0.014-5.256-2.314-5.268-5.186C35.289,45.263,37.628,42.917,40.517,42.916z"/>
	<path fill="#B3D1D6" d="M70.824,42.916c2.885,0.004,5.24,2.363,5.219,5.23c-0.02,2.879-2.381,5.197-5.273,5.182
		c-2.84-0.018-5.174-2.359-5.182-5.197C65.58,45.257,67.938,42.912,70.824,42.916z"/>
	<path fill="#B3D1D6" d="M10.246,53.327c-2.889,0.004-5.232-2.332-5.23-5.213c0-2.885,2.344-5.21,5.236-5.199
		c2.865,0.012,5.164,2.296,5.195,5.166S13.126,53.321,10.246,53.327z"/>
	<path fill="#B3D1D6" d="M60.873,48.124c-0.002,2.895-2.332,5.211-5.23,5.201c-2.889-0.008-5.193-2.352-5.174-5.254
		c0.021-2.869,2.314-5.148,5.188-5.156C58.559,42.908,60.875,45.224,60.873,48.124z"/>
	<path fill="#B3D1D6" d="M25.353,42.916c2.895-0.014,5.232,2.308,5.232,5.197c0,2.859-2.301,5.189-5.146,5.213
		c-2.908,0.021-5.24-2.266-5.268-5.164C20.148,45.259,22.447,42.929,25.353,42.916z"/>
	<path fill="#465759" d="M66.176,71.978c-1.279,0-2.561-0.021-3.838,0.012c-0.531,0.014-0.738-0.125-0.721-0.693
		c0.053-1.65-0.174-1.363,1.361-1.375c2.322-0.018,4.646,0.016,6.971-0.018c0.604-0.008,0.826,0.145,0.799,0.781
		c-0.064,1.531,0.178,1.27-1.283,1.291C68.369,71.989,67.273,71.978,66.176,71.978z"/>
	<path fill="#465759" d="M18.75,71.978c-1.279,0-2.559-0.014-3.838,0.008c-0.443,0.008-0.666-0.082-0.652-0.596
		c0.049-1.814-0.188-1.451,1.422-1.469c2.27-0.021,4.543,0.018,6.814-0.02c0.65-0.01,0.938,0.109,0.896,0.846
		c-0.078,1.443,0.166,1.211-1.273,1.229C20.996,71.987,19.873,71.978,18.75,71.978z"/>
	<path fill="#465759" d="M42.58,69.915c1.254,0,2.508,0.021,3.762-0.01c0.527-0.014,0.742,0.123,0.725,0.691
		c-0.057,1.676,0.189,1.361-1.352,1.375c-2.324,0.02-4.651-0.012-6.975,0.018c-0.584,0.006-0.836-0.109-0.807-0.766
		c0.068-1.531-0.164-1.289,1.277-1.307C40.333,69.905,41.457,69.915,42.58,69.915z"/>
	<path fill="#303C3F" d="M66.982,63.554c0,1.096-0.021,2.191,0.01,3.285c0.014,0.529-0.25,0.637-0.674,0.576
		c-0.41-0.057-1.043,0.252-1.047-0.543c-0.014-2.189-0.016-4.383,0.002-6.572c0.006-0.795,0.645-0.477,1.053-0.535
		c0.432-0.063,0.68,0.063,0.666,0.582C66.959,61.415,66.982,62.483,66.982,63.554z"/>
	<path fill="#303C3F" d="M18.023,63.513c0-1.045,0.025-2.09-0.012-3.131c-0.021-0.563,0.246-0.676,0.709-0.621
		c0.422,0.051,1.02-0.215,1.02,0.58c-0.002,2.166-0.002,4.33,0,6.494c0,0.795-0.598,0.533-1.018,0.584
		c-0.463,0.055-0.73-0.057-0.711-0.621C18.048,65.702,18.023,64.606,18.023,63.513z"/>
	<path fill="#313D40" d="M43.299,63.616c0,1.068-0.029,2.139,0.012,3.207c0.025,0.678-0.397,0.59-0.817,0.598
		c-0.438,0.01-0.813,0.043-0.803-0.613c0.033-2.139,0.037-4.277,0-6.414c-0.014-0.721,0.412-0.619,0.857-0.641
		c0.483-0.02,0.788,0.045,0.764,0.658C43.27,61.479,43.299,62.548,43.299,63.616z"/>
	<path fill="#AF6228" d="M55.504,19.611c0-0.695,0.008-1.416-0.004-2.137c-0.006-0.352,0.168-0.441,0.48-0.439
		c1.566,0.006,3.135,0.011,4.701-0.004c0.375-0.002,0.504,0.14,0.494,0.506c-0.02,0.697-0.006,1.396-0.006,2.25
		c-0.604-0.479-1.096-0.887-1.605-1.267c-0.889-0.659-1.617-0.647-2.496,0.023c-0.479,0.362-0.943,0.741-1.418,1.108
		C55.641,19.662,55.604,19.64,55.504,19.611z"/>
	<path fill="#AF6228" d="M30.119,19.799c-0.578-0.464-1.02-0.813-1.457-1.171c-0.5-0.409-1.041-0.682-1.715-0.559
		c-0.654,0.118-0.549-0.471-0.607-0.767c-0.092-0.456,0.346-0.251,0.541-0.257c0.885-0.025,1.77,0.006,2.65-0.018
		c0.424-0.012,0.617,0.103,0.596,0.564C30.095,18.267,30.119,18.943,30.119,19.799z"/>
	<path fill="#313C3F" d="M19.621,53.284c-1.285,0-2.387,0-3.586,0c0.789-1.039,1.355-2.102,1.75-3.393
		C18.224,51.147,18.738,52.243,19.621,53.284z"/>
	<path fill="#313C3F" d="M48.08,49.966c0.389,1.193,0.979,2.246,1.781,3.301c-1.221,0-2.334,0-3.539,0
		C47.107,52.239,47.758,51.204,48.08,49.966z"/>
	<path fill="#313C3F" d="M34.845,53.29c-1.297,0-2.402,0-3.639,0c0.711-1.053,1.377-2.031,1.688-3.393
		C33.443,51.161,33.835,52.313,34.845,53.29z"/>
	<path fill="#313C3F" d="M61.455,53.257c0.859-1.039,1.418-2.105,1.793-3.428c0.412,1.332,0.891,2.439,1.813,3.428
		C63.85,53.257,62.734,53.257,61.455,53.257z"/>
	<path fill="#313C3F" d="M49.838,42.996c-0.805,1.046-1.361,2.115-1.754,3.476c-0.389-1.361-0.875-2.479-1.793-3.476
		C47.512,42.996,48.613,42.996,49.838,42.996z"/>
	<path fill="#303C3F" d="M63.26,46.479c-0.41-1.361-0.924-2.451-1.818-3.527c1.139,0,2.109,0,3.08,0
		c0.438,0,0.418,0.175,0.189,0.462C64.045,44.259,63.578,45.206,63.26,46.479z"/>
	<path fill="#303C3F" d="M16.001,42.984c1.246,0,2.35,0,3.578,0c-0.846,1.039-1.41,2.123-1.783,3.466
		C17.427,45.112,16.904,44.026,16.001,42.984z"/>
	<path fill="#303C3F" d="M34.687,43.019c-0.811,1.006-1.311,2.043-1.748,3.166c-0.342-1.156-0.961-2.139-1.709-3.166
		C32.386,43.019,33.457,43.019,34.687,43.019z"/>
	<path d="M52.865,28.843c0.967,0,1.934-0.014,2.9,0.004c0.895,0.016,1.342,0.458,1.357,1.357c0.02,1.072,0.021,2.144,0,3.215
		c-0.018,0.895-0.471,1.363-1.355,1.371c-1.959,0.018-3.92,0.02-5.881-0.002c-0.842-0.008-1.299-0.477-1.316-1.328
		c-0.027-1.096-0.027-2.194,0-3.291c0.02-0.889,0.48-1.313,1.393-1.324C50.932,28.833,51.898,28.843,52.865,28.843z"/>
	<path d="M40.511,44.36c2.105-0.004,3.776,1.664,3.768,3.77c-0.008,2.096-1.706,3.781-3.788,3.764
		c-2.039-0.016-3.727-1.703-3.75-3.746C36.718,46.079,38.427,44.364,40.511,44.36z"/>
	<path d="M70.82,44.358c2.092,0.002,3.783,1.703,3.764,3.783c-0.018,2.086-1.734,3.773-3.811,3.752
		c-2.045-0.023-3.717-1.709-3.729-3.762C67.035,46.046,68.725,44.356,70.82,44.358z"/>
	<path d="M13.984,48.138c-0.008,2.092-1.709,3.777-3.793,3.756c-2.037-0.02-3.723-1.711-3.74-3.752
		c-0.02-2.068,1.691-3.779,3.777-3.781C12.333,44.36,13.992,46.024,13.984,48.138z"/>
	<path d="M51.908,48.058c0.021-2.09,1.725-3.727,3.842-3.695c2.049,0.029,3.701,1.723,3.689,3.781
		c-0.012,2.07-1.742,3.773-3.813,3.75C53.553,51.87,51.885,50.149,51.908,48.058z"/>
	<path d="M21.621,48.106c0.002-2.105,1.672-3.758,3.785-3.746c2.053,0.012,3.73,1.684,3.748,3.729
		c0.016,2.066-1.699,3.799-3.768,3.805C23.308,51.899,21.617,50.198,21.621,48.106z"/>
	<path fill="#AD6227" d="M52.857,31.353c0.416,0,0.834,0.014,1.248-0.004c0.352-0.016,0.518,0.088,0.516,0.479
		c-0.002,0.401-0.195,0.473-0.531,0.467c-0.832-0.012-1.666-0.014-2.498,0.001c-0.354,0.006-0.518-0.099-0.518-0.485
		c-0.004-0.406,0.203-0.471,0.535-0.46C52.025,31.363,52.441,31.352,52.857,31.353z"/>
	<path fill="#ECF1F4" d="M41.767,48.079c0.016,0.689-0.512,1.268-1.188,1.303c-0.688,0.035-1.32-0.568-1.322-1.264
		c0-0.676,0.559-1.236,1.244-1.246C41.197,46.862,41.75,47.39,41.767,48.079z"/>
	<path fill="#EDF2F5" d="M70.828,46.872c0.688,0.006,1.238,0.555,1.238,1.238c0.002,0.682-0.551,1.256-1.227,1.271
		c-0.697,0.018-1.295-0.588-1.277-1.295C69.578,47.405,70.139,46.866,70.828,46.872z"/>
	<path fill="#ECF1F4" d="M11.472,48.091c0.012,0.695-0.516,1.264-1.197,1.291c-0.686,0.029-1.318-0.588-1.313-1.273
		c0.006-0.676,0.568-1.23,1.256-1.234C10.919,46.868,11.46,47.396,11.472,48.091z"/>
	<path fill="#ECF1F4" d="M56.928,48.138c-0.012,0.672-0.588,1.242-1.258,1.244c-0.707,0-1.279-0.605-1.25-1.32
		c0.029-0.691,0.588-1.207,1.289-1.188C56.4,46.894,56.939,47.452,56.928,48.138z"/>
	<path fill="#ECF1F4" d="M26.642,48.095c0.014,0.656-0.559,1.262-1.221,1.287c-0.68,0.025-1.256-0.51-1.287-1.197
		c-0.033-0.736,0.51-1.311,1.238-1.313C26.064,46.872,26.626,47.413,26.642,48.095z"/>
</g>
</svg>
