<?xml version="1.0" encoding="utf-8"?>
<!-- Generator: Adobe Illustrator 16.0.2, SVG Export Plug-In . SVG Version: 6.00 Build 0)  -->
<!DOCTYPE svg PUBLIC "-//W3C//DTD SVG 1.1 Tiny//EN" "http://www.w3.org/Graphics/SVG/1.1/DTD/svg11-tiny.dtd">
<svg version="1.1" baseProfile="tiny" id="Layer_1" xmlns="http://www.w3.org/2000/svg" xmlns:xlink="http://www.w3.org/1999/xlink"
	 x="0px" y="0px" width="85px" height="85px" viewBox="0 0 85 85" xml:space="preserve">
<g>
	<path fill-rule="evenodd" d="M82.5,9.379c-0.284,0.678-0.751,1.215-1.268,1.731c-8.604,8.591-17.198,17.194-25.809,25.779
		c-0.447,0.446-0.638,0.683-0.091,1.251c0.94,0.978,0.9,2.556-0.04,3.55c-1.305,1.38-2.678,2.698-4.022,4.041
		c-0.055,0.056-0.111,0.133-0.181,0.146c-1.294,0.275-1.055,1.148-0.918,2.104c0.827,5.806-2.009,11.509-7.231,14.22
		c-5.873,3.049-9.662,7.659-11.166,14.12c-0.159,0.683-0.308,1.373-0.546,2.03c-0.226,0.619,0.016,0.69,0.544,0.656
		c0.57-0.037,1.15-0.057,1.716,0.004c0.743,0.08,0.955-0.108,0.869-0.913c-0.349-3.245,1.449-6.21,4.449-7.504
		c1.172-0.507,2.398-0.688,3.66-0.552c0.407,0.044,0.564,0.016,0.674-0.447c0.725-3.066,2.634-4.993,5.704-5.735
		c0.395-0.095,0.589-0.235,0.702-0.663c1.011-3.854,4.836-6.188,8.719-5.351c3.842,0.828,6.396,4.617,5.718,8.504
		c-0.062,0.347-0.078,0.528,0.32,0.709c4.803,2.187,6.134,7.404,2.979,11.59c-0.059,0.077-0.102,0.165-0.217,0.352
		c1.198,0,2.306-0.019,3.411,0.006c0.829,0.018,1.289,0.449,1.281,1.155c-0.005,0.594-0.296,0.993-0.884,1.121
		c-0.274,0.061-0.566,0.058-0.853,0.058c-21.923,0.003-43.847,0-65.771,0.013c-0.714,0-1.315-0.125-1.752-0.724
		c0-0.313,0-0.624,0-0.938c0.452-0.575,1.048-0.707,1.761-0.704c6.848,0.02,13.695,0.011,20.542,0.011c0.253,0,0.507,0,0.771,0
		c0.005-0.34-0.241-0.439-0.39-0.589c-2.848-2.858-5.693-5.722-8.565-8.556c-0.569-0.562-0.761-1.127-0.509-1.884
		c0.202-0.609,0.339-1.239,0.54-1.988c-0.784,0.209-1.451,0.375-2.112,0.566c-0.666,0.192-1.189,0.039-1.688-0.468
		c-2.414-2.446-4.858-4.861-7.28-7.299c-1.317-1.326-0.85-2.99,0.972-3.501c1.875-0.524,3.783-0.948,5.623-1.576
		c5.151-1.759,9.014-5.049,11.49-9.931c2.181-4.299,5.652-6.888,10.397-7.755c1.71-0.312,3.423-0.255,5.118,0.108
		c0.418,0.089,0.528,0.013,0.783-0.368c1.413-2.106,3.21-3.886,5.275-5.331c0.917-0.641,2.059-0.332,2.869,0.463
		c0.479,0.471,0.698,0.331,1.087-0.059c8.643-8.662,17.299-17.312,25.95-25.964c1.637-1.636,2.793-1.629,4.447,0.024
		c0.553,0.552,1.093,1.116,1.66,1.654c0.53,0.503,0.99,1.05,1.258,1.74C82.5,8.65,82.5,9.015,82.5,9.379z"/>
	<path fill-rule="evenodd" d="M29.476,10.893c3.506,0.01,6.405,2.387,7.144,5.908c0.104,0.495,0.27,0.717,0.771,0.856
		c3.437,0.951,5.751,4.316,5.361,7.729c-0.432,3.773-3.304,6.558-6.987,6.773c-0.912,0.053-1.481-0.33-1.55-1.045
		c-0.074-0.759,0.415-1.212,1.391-1.291c2.742-0.22,4.786-2.332,4.836-4.996c0.05-2.649-1.957-4.841-4.69-5.122
		c-1.021-0.105-1.29-0.43-1.336-1.613c-0.098-2.497-1.928-4.556-4.277-4.814c-2.636-0.29-4.911,1.239-5.523,3.757
		c-0.32,1.316-0.124,2.579,0.573,3.758c0.65,1.1,0.486,1.644-0.634,2.152c-1.908,0.865-2.909,2.364-3.083,4.428
		c-0.041,0.485-0.106,0.934-0.566,1.21c-0.39,0.234-0.785,0.248-1.184,0.024c-0.496-0.279-0.629-0.738-0.598-1.262
		c0.139-2.372,1.124-4.312,3.052-5.71c0.472-0.342,0.518-0.59,0.341-1.117C20.918,15.761,24.462,10.878,29.476,10.893z"/>
	<path fill-rule="evenodd" d="M12.742,36.572c1.135,0.014,2.521,0.41,3.745,1.271c0.393,0.276,0.658,0.329,1.093,0.064
		c1.183-0.718,2.499-1.003,3.88-0.956c0.634,0.021,1.109,0.289,1.224,0.972c0.13,0.771-0.362,1.352-1.214,1.352
		c-1.384,0-2.593,0.408-3.657,1.308c-0.705,0.596-1.133,0.513-1.955-0.256c-2.787-2.609-7.22-1.424-8.257,2.221
		c-0.465,1.637-0.131,3.139,0.91,4.481c0.111,0.144,0.249,0.268,0.36,0.411c0.464,0.599,0.44,1.219-0.058,1.675
		C8.335,49.55,7.649,49.518,7.141,49c-1.399-1.425-2.089-3.161-2.082-5.141C5.074,39.828,8.36,36.582,12.742,36.572z"/>
	<path fill-rule="evenodd" d="M11.142,70.812c-0.02,2.174-1.764,3.896-3.937,3.888c-2.189-0.008-3.954-1.81-3.917-3.999
		c0.036-2.154,1.808-3.861,3.988-3.844C9.444,66.876,11.161,68.633,11.142,70.812z"/>
	<path fill-rule="evenodd" d="M64.053,49.292c0.005,2.574-2.118,4.721-4.698,4.745c-2.592,0.024-4.779-2.163-4.756-4.762
		c0.022-2.587,2.162-4.714,4.734-4.706C61.905,44.578,64.045,46.719,64.053,49.292z"/>
	<path fill-rule="evenodd" d="M68.275,61.479c0.002-2.155,1.76-3.924,3.911-3.935c2.185-0.011,3.948,1.778,3.932,3.986
		c-0.016,2.159-1.798,3.92-3.944,3.897C70.022,65.407,68.272,63.635,68.275,61.479z"/>
	<path fill-rule="evenodd" fill="#C86E59" d="M28.589,64.227c-0.981-0.686-1.571-0.538-2.125,0.508
		c-1.28,2.418-1.828,5.076-2.552,7.678c-0.089,0.319-0.182,0.639-0.318,1.117c-0.808-0.816-1.528-1.55-2.251-2.277
		c-0.808-0.813-1.601-1.642-2.439-2.422c-0.353-0.327-0.442-0.626-0.306-1.082c0.297-0.996,0.563-2.002,0.805-3.013
		c0.264-1.096-0.441-1.778-1.539-1.503c-0.983,0.246-1.966,0.496-2.935,0.793c-0.488,0.148-0.81,0.051-1.156-0.325
		c-0.683-0.743-1.423-1.432-2.218-2.22c1.697-0.461,3.27-0.885,4.84-1.314c1.716-0.469,3.333-1.171,4.87-2.063
		c0.85-0.493,1.099-1.135,0.716-1.78c-0.381-0.644-1.056-0.75-1.906-0.232c-2.467,1.499-5.261,2.059-7.987,2.815
		c-0.15,0.041-0.3,0.082-0.451,0.124c-2.139,0.591-2.652,0.387-3.976-1.619c1.411-0.387,2.812-0.745,4.197-1.154
		c6.145-1.814,10.813-5.479,13.755-11.202c1.844-3.589,4.617-5.9,8.599-6.687c2.202-0.435,4.348-0.174,6.437,0.627
		c0.401,0.154,0.709,0.408,0.998,0.844c-1.104,0.057-2.16-0.061-3.192,0.151c-0.611,0.126-1.231,0.212-1.834,0.365
		c-0.832,0.212-1.252,0.792-1.102,1.44c0.166,0.712,0.798,1.067,1.665,0.838c1.634-0.431,3.28-0.588,4.946-0.284
		c1.112,0.203,2.268,0.323,3.177,1.116c0.372,0.633,0.239,1.324,0.156,1.979c-0.626,4.966-3.213,8.604-7.615,10.916
		c-3.407,1.789-6.254,4.177-8.462,7.332C29.204,63.947,29.112,64.438,28.589,64.227z"/>
	<path fill-rule="evenodd" fill="#D6CFD5" d="M55.155,60.315c1.947-0.677,3.661-0.192,5.083,1.196
		c1.491,1.456,1.929,3.288,1.196,5.232c-0.456,1.21-0.173,2.014,1.224,2.276c2.475,0.466,4.136,2.734,3.976,5.145
		c-0.174,2.627-2.053,4.561-4.667,4.8c-0.311,0.029-0.623,0.034-0.936,0.034c-7.781,0.002-15.563-0.009-23.343,0.021
		c-0.716,0.002-0.952-0.224-1.007-0.896c-0.083-1.003-0.041-1.966,0.473-2.86c3.982-0.033,7.965,0.006,11.947-0.017
		c3.439-0.02,6.406-2.091,7.315-5.395c0.807-2.938,0.65-5.88-0.92-8.619C55.333,60.949,55.059,60.7,55.155,60.315z"/>
	<path fill-rule="evenodd" fill="#BA5D4C" d="M28.589,64.227c0.57-0.239,0.763-0.818,1.088-1.262
		c2.063-2.816,4.661-5.002,7.754-6.589c4.023-2.064,6.651-5.216,7.643-9.662c0.236-1.065,0.297-2.155,0.229-3.248
		c2.59,1.896,2.872,4.669,2.606,7.495c-0.385,4.079-2.405,7.269-6.066,9.167c-6.691,3.47-10.858,8.811-12.481,16.159
		c-0.167,0.755-0.406,1.495-0.639,2.341c-1.025-1.024-1.975-1.983-2.938-2.929c-0.255-0.25-0.197-0.517-0.115-0.792
		c0.93-3.134,1.44-6.399,2.992-9.335C28.899,65.126,28.821,64.664,28.589,64.227z"/>
	<path fill-rule="evenodd" fill="#E4E0E4" d="M55.155,60.315c2.365,3.618,2.659,7.415,0.741,11.271
		c-1.066,2.145-3.001,3.331-5.35,3.721c-2.395,0.398-4.818,0.104-7.229,0.159c-1.793,0.041-3.587,0.011-5.38,0.005
		c-0.273-0.001-0.584,0.093-0.783-0.207c0.968-2.261,3.606-3.441,6.031-2.695c0.123,0.038,0.245,0.085,0.367,0.126
		c1.123,0.372,1.769-0.097,1.767-1.279c-0.001-3.069,1.848-5.106,4.874-5.367c1.105-0.096,1.327-0.332,1.489-1.586
		C51.944,62.433,53.31,60.802,55.155,60.315z"/>
	<path fill-rule="evenodd" fill="#FED05B" d="M52.303,31.082c0.431-0.45,0.853-0.908,1.293-1.348
		c7.712-7.715,15.433-15.422,23.126-23.154c0.515-0.517,0.822-0.534,1.253,0.019c0.285,0.366,0.633,0.684,0.953,1.023
		c0.089,0.486-0.327,0.676-0.584,0.934c-4.383,4.4-8.779,8.791-13.172,13.183c-3.087,3.088-6.176,6.175-9.263,9.263
		c-0.201,0.203-0.397,0.413-0.614,0.599C54.199,32.538,53.09,32.345,52.303,31.082z"/>
	<path fill-rule="evenodd" fill="#FEC244" d="M52.303,31.082c1.465,1.199,1.842,1.437,3.563-0.292
		c7.455-7.481,14.931-14.94,22.396-22.411c0.238-0.237,0.445-0.504,0.666-0.757c1.327,1.138,1.328,1.139,0.129,2.338
		c-8.446,8.448-16.9,16.891-25.33,25.357c-0.502,0.505-0.757,0.483-1.194-0.019c-0.582-0.665-1.221-1.283-1.875-1.878
		c-0.344-0.313-0.302-0.497,0.015-0.779C51.233,32.141,51.761,31.604,52.303,31.082z"/>
	<path fill-rule="evenodd" fill="#FED05B" d="M52.032,38.143c0.447,0.429,0.893,0.861,1.343,1.286
		c0.34,0.32,0.306,0.604-0.018,0.923c-1.147,1.13-2.289,2.265-3.414,3.417c-0.346,0.354-0.605,0.38-0.97,0.014
		c-2.174-2.195-4.357-4.38-6.554-6.553c-0.384-0.379-0.402-0.672,0.005-1.026c0.39-0.338,0.753-0.706,1.13-1.061
		c0.423-0.111,0.598,0.247,0.821,0.468c1.278,1.256,2.538,2.533,3.809,3.796c0.997,0.987,1.544,0.973,2.563-0.021
		C51.176,38.97,51.548,38.499,52.032,38.143z"/>
	<path fill-rule="evenodd" fill="#FEE076" d="M52.032,38.143c-0.446,0.875-1.168,1.516-1.96,2.025
		c-0.597,0.384-1.236,0.17-1.753-0.352c-1.365-1.382-2.743-2.752-4.121-4.122c-0.2-0.199-0.43-0.368-0.644-0.551
		c0.776-0.796,1.56-1.585,2.327-2.391c0.314-0.33,0.565-0.257,0.851,0.032C48.496,34.574,50.265,36.357,52.032,38.143z"/>
	<path fill-rule="evenodd" fill="#E3DFE3" d="M8.792,70.796c-0.011,0.889-0.704,1.568-1.59,1.558
		c-0.868-0.01-1.578-0.733-1.568-1.598c0.01-0.872,0.723-1.561,1.607-1.552C8.135,69.212,8.802,69.897,8.792,70.796z"/>
	<path fill-rule="evenodd" fill="#E4E0E4" d="M59.362,51.692c-1.272,0.027-2.395-1.063-2.42-2.351
		c-0.023-1.281,1.058-2.403,2.343-2.429c1.273-0.024,2.4,1.069,2.422,2.353C61.729,50.545,60.647,51.665,59.362,51.692z"/>
	<path fill-rule="evenodd" fill="#E3DFE3" d="M73.771,61.517c-0.013,0.869-0.745,1.582-1.602,1.563
		c-0.861-0.021-1.563-0.757-1.549-1.623c0.015-0.862,0.756-1.582,1.608-1.563C73.095,59.913,73.786,60.64,73.771,61.517z"/>
	<path fill-rule="evenodd" d="M24.265,55.579c-0.466-0.059-0.85-0.243-1.046-0.699c-0.207-0.479-0.122-0.918,0.225-1.298
		c0.595-0.652,1.23-1.271,1.798-1.945c0.973-1.157,1.758-2.442,2.434-3.795c0.271-0.542,0.705-0.823,1.332-0.694
		c0.554,0.114,0.839,0.488,0.918,1.027c0.043,0.294-0.081,0.557-0.208,0.815c-1.128,2.28-2.615,4.3-4.437,6.072
		C24.929,55.404,24.559,55.581,24.265,55.579z"/>
	<path fill-rule="evenodd" d="M49.334,73.647c0.049-2.396,2.065-4.418,4.498-4.512c0.743-0.028,1.265,0.361,1.343,1.005
		c0.088,0.713-0.311,1.188-1.102,1.315c-1.604,0.259-2.125,0.785-2.422,2.444c-0.134,0.751-0.592,1.156-1.256,1.11
		C49.71,74.962,49.317,74.458,49.334,73.647z"/>
</g>
</svg>
