<?xml version="1.0" encoding="utf-8"?>
<!-- Generator: Adobe Illustrator 16.0.0, SVG Export Plug-In . SVG Version: 6.00 Build 0)  -->
<!DOCTYPE svg PUBLIC "-//W3C//DTD SVG 1.1//EN" "http://www.w3.org/Graphics/SVG/1.1/DTD/svg11.dtd">
<svg version="1.1" id="Layer_1" xmlns="http://www.w3.org/2000/svg" xmlns:xlink="http://www.w3.org/1999/xlink" x="0px" y="0px"
	 width="85px" height="85px" viewBox="0 0 85 85" enable-background="new 0 0 85 85" xml:space="preserve">
<g>
	<path fill-rule="evenodd" clip-rule="evenodd" fill="#3185F1" d="M33.531,82.378c-3.479,0.009-6.958,0.025-10.437,0.023
		c-5.968-0.002-11.937-0.015-17.905-0.023c-0.268-0.288-0.217-0.65-0.218-0.994c-0.004-5.713-0.019-11.426,0.003-17.139
		c0.017-4.203,3.619-7.803,7.829-7.819c5.955-0.023,11.91-0.015,17.864-0.002c2.269,0.004,4.08-0.839,5.512-2.63
		c3.617-4.524,7.281-9.012,10.926-13.514c0.169-0.208,0.328-0.426,0.528-0.606c0.366-0.33,0.773-0.375,1.171-0.079
		c0.392,0.292,0.385,0.691,0.163,1.079c-0.453,0.792-0.979,1.539-1.51,2.28c-0.329,0.457-0.675,0.906-0.919,1.415
		c-0.42,0.873,0,1.592,0.952,1.621c0.58,0.019,1.22-0.158,1.549,0.537c0.328,0.696-0.149,1.186-0.502,1.671
		c-4.448,6.116-8.845,12.271-13.336,18.355c-1.003,1.36-1.522,2.741-1.477,4.452c0.091,3.404,0.03,6.812,0.023,10.219
		C33.747,81.617,33.833,82.036,33.531,82.378z"/>
	<path fill-rule="evenodd" clip-rule="evenodd" d="M33.531,82.378c0-4.051,0.015-8.102-0.012-12.152
		c-0.008-1.15,0.316-2.139,0.991-3.065c4.636-6.375,9.255-12.762,13.879-19.145c0.126-0.174,0.255-0.345,0.377-0.522
		c0.211-0.309,0.291-0.626,0.068-0.972c-0.222-0.344-0.547-0.438-0.909-0.345c-0.694,0.18-1.285,0.085-1.674-0.572
		c-0.378-0.639-0.079-1.174,0.287-1.702c0.719-1.035,1.417-2.084,2.133-3.121c0.265-0.383,0.475-0.777-0.013-1.11
		c-0.47-0.322-0.772-0.005-1.066,0.358c-3.775,4.672-7.568,9.331-11.337,14.008c-1.429,1.774-3.256,2.615-5.525,2.608
		c-5.768-0.017-11.535-0.007-17.303-0.005c-4.987,0.002-8.234,3.265-8.236,8.272c-0.002,5.821-0.001,11.643-0.002,17.464
		c-0.827-0.003-1.881,0.299-2.417-0.098c-0.509-0.376-0.148-1.499-0.15-2.292c-0.015-5.043-0.009-10.087-0.007-15.131
		c0.001-6.342,4.429-10.786,10.749-10.792c0.255,0,0.511,0,0.988,0c-2.294-1.4-3.853-3.155-4.653-5.485
		c-1.365-3.977-0.657-7.615,2.243-10.643c2.901-3.028,6.531-3.964,10.533-2.683c3.994,1.278,6.33,4.13,7.062,8.274
		c0.175,0.986,0.176,1.973,0.002,2.96c-0.132,0.749-0.595,1.114-1.334,1.132c-0.724,0.017-1.449-0.007-2.173,0.007
		c-0.816,0.016-1.326,0.451-1.385,1.155c-0.061,0.729,0.314,1.234,1.134,1.4c0.556,0.112,0.957,0.378,1.116,0.908
		c0.169,0.562-0.019,1.041-0.461,1.441c-0.579,0.523-1.198,0.989-1.868,1.403c0.15,0.248,0.388,0.121,0.573,0.123
		c1.824,0.011,3.649-0.03,5.473,0.018c1.575,0.041,2.769-0.558,3.751-1.781c3.708-4.621,7.461-9.207,11.172-13.827
		c0.947-1.179,2.093-1.767,3.582-1.396c2.081,0.519,3.036,2.878,1.947,4.733c-0.353,0.599-0.753,1.172-1.161,1.735
		c-0.183,0.252-0.154,0.354,0.089,0.561c1.9,1.618,2.078,3.214,0.603,5.253c-4.635,6.404-9.27,12.808-13.918,19.201
		c-0.397,0.546-0.588,1.093-0.584,1.775c0.025,3.782-0.003,7.565,0.028,11.348c0.005,0.603-0.137,0.799-0.743,0.737
		C34.768,82.353,34.147,82.387,33.531,82.378z"/>
	<path fill-rule="evenodd" clip-rule="evenodd" d="M82.479,68.112c0.015,7.024-5.054,13.009-11.835,14.105
		c-6.82,1.103-13.481-2.849-15.686-9.329c-0.165-0.484-0.417-0.735-0.883-0.905c-2.184-0.797-4.352-1.635-6.534-2.433
		c-0.634-0.232-1.109-0.566-1.122-1.29c-0.014-0.766,0.481-1.108,1.146-1.351c2.184-0.796,4.352-1.638,6.534-2.436
		c0.438-0.16,0.69-0.39,0.845-0.843c2.073-6.087,7.975-10.001,14.355-9.543c6.478,0.465,11.827,5.271,12.971,11.672
		C82.417,66.577,82.529,67.405,82.479,68.112z"/>
	<path fill-rule="evenodd" clip-rule="evenodd" d="M28.847,11.598c-2.258-2.575-2.324-5.53-0.223-7.605
		c1.933-1.908,5.058-1.978,7.067-0.158c2.254,2.041,2.258,4.934-0.038,7.777c0.619,0.188,1.242,0.273,1.809,0.548
		c2.386,1.163,3.701,3.071,3.774,5.708c0.082,2.975,0.027,5.953,0.019,8.93c-0.002,1.034-0.487,1.502-1.545,1.503
		c-4.988,0.005-9.976,0.006-14.963,0c-1.044-0.001-1.516-0.479-1.519-1.528c-0.008-2.708-0.003-5.417-0.003-8.125
		C23.225,14.796,25.04,12.498,28.847,11.598z"/>
	<path fill-rule="evenodd" clip-rule="evenodd" d="M70.067,11.598c-2.258-2.575-2.324-5.53-0.223-7.604
		c1.933-1.909,5.058-1.979,7.067-0.159c2.254,2.041,2.257,4.935-0.038,7.777c0.618,0.188,1.242,0.273,1.808,0.548
		c2.387,1.163,3.701,3.071,3.774,5.708c0.082,2.975,0.026,5.953,0.019,8.93c-0.003,1.034-0.486,1.502-1.545,1.503
		c-4.988,0.005-9.976,0.006-14.964,0c-1.045-0.001-1.516-0.479-1.519-1.528c-0.008-2.708-0.003-5.417-0.003-8.125
		C64.445,14.796,66.26,12.498,70.067,11.598z"/>
	<path fill-rule="evenodd" clip-rule="evenodd" d="M49.389,11.607c-2.208-3.161-2.215-5.733-0.019-7.725
		c1.926-1.748,4.849-1.794,6.839-0.107c2.267,1.921,2.305,4.496,0.115,7.839c3.775,0.912,5.544,3.184,5.544,7.125
		c0,2.629,0.003,5.259-0.001,7.888c-0.001,1.251-0.433,1.676-1.699,1.676c-4.883,0.002-9.766,0.002-14.648,0
		c-1.257,0-1.683-0.429-1.684-1.69c-0.003-2.603,0.097-5.209-0.026-7.806C43.663,15.723,45.211,12.469,49.389,11.607z"/>
	<path fill-rule="evenodd" clip-rule="evenodd" fill="#FEC073" d="M23.165,51.764c-2.346,1.266-4.69,1.361-7.056,0.285
		c-3.377-1.537-5.164-5.333-4.238-8.896c0.954-3.673,4.363-6.114,8.121-5.814c3.694,0.294,6.685,3.267,7.085,6.976
		c0.079,0.732-0.245,0.774-0.795,0.739c-2.806-0.184-4.415,2-4.335,3.998C21.987,50.089,22.429,50.957,23.165,51.764z"/>
	<path fill-rule="evenodd" clip-rule="evenodd" fill="#E55C5E" d="M51.615,68.148c1.343-0.505,2.673-1.049,4.033-1.502
		c0.878-0.292,1.331-0.807,1.586-1.71c1.453-5.162,6.521-8.655,11.913-8.276c5.366,0.377,9.835,4.5,10.616,9.794
		c1.094,7.418-4.791,13.824-12.267,13.353c-4.761-0.301-9.004-3.7-10.273-8.303c-0.241-0.873-0.682-1.381-1.531-1.666
		c-1.367-0.46-2.708-1-4.06-1.506C51.627,68.271,51.621,68.21,51.615,68.148z"/>
	<path fill-rule="evenodd" clip-rule="evenodd" fill="#2C77D8" d="M32.246,25.727c-1.929,0-3.859-0.018-5.788,0.012
		c-0.525,0.008-0.676-0.14-0.67-0.667c0.028-2.358-0.004-4.716,0.019-7.074c0.021-2.189,1.693-3.836,3.896-3.859
		c1.688-0.018,3.376-0.017,5.064,0c2.242,0.022,3.892,1.678,3.909,3.93c0.017,2.332-0.01,4.663,0.016,6.994
		c0.005,0.512-0.118,0.688-0.66,0.678C36.105,25.707,34.175,25.727,32.246,25.727z"/>
	<path fill-rule="evenodd" clip-rule="evenodd" fill="#FEC072" d="M32.19,5.12c1.413-0.021,2.586,1.1,2.623,2.503
		c0.038,1.438-1.127,2.638-2.564,2.642c-1.407,0.003-2.562-1.135-2.581-2.545C29.649,6.315,30.79,5.14,32.19,5.12z"/>
	<path fill-rule="evenodd" clip-rule="evenodd" fill="#2C77D8" d="M73.421,25.727c-1.929,0-3.858-0.018-5.787,0.012
		c-0.503,0.008-0.629-0.143-0.624-0.632c0.025-2.384-0.008-4.77,0.019-7.154c0.024-2.107,1.682-3.775,3.78-3.811
		c1.768-0.03,3.537-0.029,5.305,0c2.097,0.035,3.755,1.703,3.78,3.811c0.028,2.384-0.006,4.77,0.02,7.154
		c0.005,0.489-0.121,0.64-0.624,0.632C77.334,25.709,75.377,25.727,73.421,25.727z"/>
	<path fill-rule="evenodd" clip-rule="evenodd" fill="#FEC072" d="M76.033,7.662c0.017,1.405-1.12,2.578-2.522,2.603
		c-1.438,0.026-2.623-1.141-2.623-2.583c0.001-1.403,1.158-2.561,2.561-2.562C74.859,5.119,76.017,6.257,76.033,7.662z"/>
	<path fill-rule="evenodd" clip-rule="evenodd" fill="#2C77D8" d="M52.855,25.727c-1.93,0-3.858-0.019-5.787,0.012
		c-0.526,0.008-0.676-0.142-0.669-0.668c0.027-2.358-0.005-4.716,0.018-7.074c0.021-2.188,1.693-3.835,3.897-3.858
		c1.688-0.018,3.377-0.017,5.064,0c2.241,0.022,3.892,1.678,3.908,3.931c0.018,2.331-0.01,4.663,0.016,6.994
		c0.006,0.513-0.12,0.687-0.66,0.677C56.715,25.707,54.785,25.727,52.855,25.727z"/>
	<path fill-rule="evenodd" clip-rule="evenodd" fill="#FEC072" d="M55.424,7.686c0.003,1.404-1.144,2.566-2.548,2.579
		c-1.438,0.013-2.611-1.164-2.598-2.608c0.013-1.401,1.182-2.548,2.585-2.537C54.273,5.132,55.419,6.28,55.424,7.686z"/>
	<path fill-rule="evenodd" clip-rule="evenodd" d="M69.597,65.682c0,1.501-0.019,3.004,0.011,4.505
		c0.01,0.482-0.108,0.635-0.617,0.639c-1.97,0.013-1.97,0.033-1.97-1.932c0-2.574,0.014-5.149-0.011-7.724
		c-0.005-0.513,0.119-0.679,0.658-0.679c1.929,0.002,1.929-0.021,1.929,1.892C69.597,63.482,69.597,64.582,69.597,65.682z"/>
	<path fill-rule="evenodd" clip-rule="evenodd" d="M69.597,74.678c0,1.286,0,1.286-1.552,1.285c-1.024,0-1.024,0-1.024-1.572
		c0.001-1.006,0.001-1.006,1.673-1.004C69.597,73.388,69.597,73.388,69.597,74.678z"/>
</g>
</svg>
