<?xml version="1.0" encoding="utf-8"?>
<!-- Generator: Adobe Illustrator 16.0.2, SVG Export Plug-In . SVG Version: 6.00 Build 0)  -->
<!DOCTYPE svg PUBLIC "-//W3C//DTD SVG 1.1 Tiny//EN" "http://www.w3.org/Graphics/SVG/1.1/DTD/svg11-tiny.dtd">
<svg version="1.1" baseProfile="tiny" id="Layer_1" xmlns="http://www.w3.org/2000/svg" xmlns:xlink="http://www.w3.org/1999/xlink"
	 x="0px" y="0px" width="85px" height="85px" viewBox="0 0 85 85" xml:space="preserve">
<g>
	<path d="M2.5,72.317c0.329-1.021,1.022-1.768,1.763-2.507c5.332-5.31,10.638-10.644,15.983-15.939
		c0.472-0.469,0.461-0.774,0.159-1.295c-0.874-1.505-1.702-3.034-2.535-4.562c-0.923-1.691-0.711-3.246,0.684-4.6
		c0.402-0.39,0.441-0.682,0.206-1.176c-1.858-3.887-3.767-7.75-5.506-11.69c-4.431-10.042,2.2-21.613,13.077-22.949
		c3.292-0.404,6.419,0.102,9.41,1.52c3.658,1.733,7.321,3.456,10.97,5.207c0.472,0.227,0.75,0.19,1.13-0.195
		c1.402-1.43,2.926-1.635,4.67-0.685c1.643,0.894,3.279,1.796,4.912,2.707c0.291,0.161,0.524,0.19,0.857,0.062
		c1.656-0.639,3.332-0.115,4.261,1.284c0.931,1.407,0.749,3.147-0.463,4.435c-0.107,0.114-0.221,0.223-0.331,0.333
		C45.932,38.081,30.117,53.893,14.31,69.713c-0.578,0.579-1.136,1.018-1.969,0.522c-0.662-0.433-0.804-0.983-0.422-1.641
		c0.186-0.318,0.462-0.561,0.721-0.82c2.89-2.892,5.783-5.779,8.668-8.677c0.205-0.205,0.608-0.408,0.393-0.754
		c-0.27-0.434-0.627-0.834-1.116-1.054c-0.155-0.067-0.289,0.086-0.402,0.191c-0.247,0.231-0.481,0.476-0.722,0.715
		c-4.511,4.512-9.022,9.022-13.533,13.537c-0.239,0.237-0.498,0.461-0.683,0.747c-0.28,0.429-0.242,0.847,0.121,1.205
		c0.365,0.359,0.786,0.385,1.206,0.093c0.428-0.303,0.759-0.711,1.134-1.07c0.245-0.232,0.468-0.491,0.764-0.664
		c0.657-0.382,1.193-0.258,1.668,0.384c0.367,0.661,0.259,1.232-0.296,1.747c-0.458,0.424-0.876,0.891-1.332,1.319
		C6.496,77.4,3.508,76.631,2.64,73.989c-0.031-0.095-0.093-0.18-0.141-0.267C2.5,73.256,2.5,72.785,2.5,72.317z"/>
	<path d="M82.499,61.382c-2.474,2.723-4.794,5.637-8.268,7.194c-3.352,1.505-6.782,1.602-10.251,0.388
		c-0.239-0.086-0.477-0.17-0.818-0.291c0.6,3.814-1.63,6.165-4.105,8.384c-0.595,0.535-1.6,0.663-2.177,0.167
		c-1.827-1.581-3.714-3.146-4.254-5.691c-0.102-0.481,0.007-1.13-0.273-1.421c-0.317-0.335-0.858,0.183-1.342,0.219
		c-2.568,0.175-4.416-2.093-3.674-4.557c0.059-0.197,0.128-0.39,0.213-0.638c-0.485-0.068-0.95-0.103-1.4-0.204
		c-1.264-0.281-2.411-0.82-3.363-1.706c-0.743-0.692-1.47-1.401-2.169-2.138c-0.825-0.869-0.842-1.929-0.033-2.79
		c0.71-0.76,1.439-1.508,2.219-2.195c1.692-1.496,3.696-2.041,6.015-1.776c-0.54-1.464-0.95-2.892-1.054-4.396
		c-0.267-3.944,0.901-7.392,3.569-10.296c1.267-1.379,2.627-2.674,3.963-3.987c0.837-0.823,1.883-0.88,2.729-0.131
		c2.712,2.404,4.757,5.214,5.331,8.905c0.242,1.557,0.237,3.107-0.041,4.735c0.722-0.448,1.424-0.808,2.242-0.808
		c0.31-0.002,0.351-0.266,0.444-0.471c0.408-0.899,0.801-1.802,1.221-2.695c0.361-0.772,0.991-1.047,1.635-0.742
		c0.633,0.298,0.83,0.957,0.495,1.731c-0.363,0.829-0.755,1.651-1.114,2.483c-0.094,0.214-0.357,0.423-0.106,0.696
		c0.289,0.313,0.524,0.005,0.756-0.097c0.834-0.357,1.653-0.75,2.485-1.111c0.719-0.314,1.383-0.119,1.679,0.466
		c0.317,0.623,0.054,1.305-0.689,1.662c-0.867,0.414-1.742,0.807-2.628,1.178c-0.373,0.156-0.581,0.34-0.599,0.782
		c-0.024,0.713-0.384,1.324-0.799,1.965c3.05-0.471,5.911-0.119,8.639,1.228c2.001,0.988,3.56,2.507,5.053,4.109
		c0.199,0.215,0.315,0.505,0.47,0.762C82.499,60.651,82.499,61.017,82.499,61.382z"/>
	<path fill="#F5D08F" d="M10.137,72.426c-0.815-0.615-1.252-0.597-1.967,0.101c-0.448,0.436-0.87,0.898-1.332,1.318
		c-0.542,0.49-1.214,0.466-1.669-0.02c-0.438-0.464-0.432-1.078,0.024-1.618c0.117-0.139,0.254-0.261,0.381-0.387
		c4.824-4.824,9.653-9.643,14.461-14.481c0.424-0.428,0.642-0.446,1.063-0.004c1.102,1.161,1.124,1.14-0.003,2.267
		c-2.872,2.871-5.745,5.742-8.615,8.617c-0.754,0.755-0.778,1.193-0.141,2.016C11.455,70.815,10.731,71.554,10.137,72.426z"/>
	<path fill="#E1996C" d="M60.778,19.414c0.013,0.495-0.303,0.807-0.618,1.124c-3.225,3.22-6.443,6.442-9.665,9.665
		c-8.652,8.653-17.31,17.3-25.946,25.969c-0.51,0.512-0.785,0.611-1.315,0.024c-0.965-1.063-1.007-1.027,0.035-2.067
		c11.69-11.688,23.379-23.38,35.071-35.068c0.221-0.221,0.435-0.462,0.697-0.622C59.796,17.979,60.764,18.534,60.778,19.414z"/>
	<path fill="#FEFEFE" d="M20.818,41.138c-0.923-1.95-1.806-3.826-2.706-5.694c-0.114-0.239-0.051-0.37,0.112-0.533
		c1.127-1.119,2.252-2.239,3.366-3.371c0.237-0.241,0.382-0.241,0.623,0.003c1.259,1.282,2.531,2.549,3.808,3.814
		c0.196,0.194,0.263,0.321,0.025,0.557C24.313,37.627,22.596,39.358,20.818,41.138z"/>
	<path fill="#FEFEFE" d="M40.093,21.872c-1.389-1.394-2.739-2.759-4.106-4.111c-0.241-0.238-0.245-0.381,0.001-0.622
		c1.117-1.09,2.226-2.189,3.31-3.313c0.261-0.27,0.458-0.229,0.739-0.093c1.683,0.808,3.371,1.608,5.06,2.403
		c0.297,0.14,0.51,0.223,0.156,0.572C43.531,18.408,41.832,20.127,40.093,21.872z"/>
	<path fill="#FEFEFE" d="M32.339,41.73c-0.121,0.128-0.222,0.242-0.329,0.349c-1.232,1.231-2.476,2.453-3.69,3.703
		c-0.297,0.304-0.456,0.268-0.733-0.016c-1.218-1.248-2.446-2.482-3.698-3.694c-0.311-0.301-0.261-0.458,0.016-0.729
		c1.245-1.219,2.469-2.458,3.702-3.691c0.18-0.18,0.314-0.408,0.615-0.101c1.293,1.319,2.605,2.617,3.91,3.924
		C32.205,41.545,32.259,41.631,32.339,41.73z"/>
	<path fill="#FEFEFE" d="M46.16,27.89c-0.124-0.111-0.225-0.192-0.317-0.282c-1.252-1.25-2.488-2.513-3.758-3.746
		c-0.313-0.304-0.239-0.463,0.029-0.726c1.226-1.203,2.445-2.413,3.642-3.643c0.296-0.304,0.466-0.354,0.789-0.02
		c1.193,1.233,2.419,2.437,3.639,3.644c0.245,0.241,0.41,0.406,0.069,0.737c-1.288,1.249-2.547,2.529-3.817,3.797
		C46.353,27.735,46.255,27.808,46.16,27.89z"/>
	<path fill="#FEFEFE" d="M40.099,25.21c0.141,0.125,0.261,0.223,0.369,0.332c1.232,1.23,2.455,2.473,3.703,3.688
		c0.302,0.292,0.256,0.453-0.02,0.723c-1.246,1.218-2.479,2.449-3.695,3.698c-0.292,0.301-0.461,0.262-0.735-0.019
		c-1.22-1.245-2.454-2.474-3.694-3.697c-0.238-0.235-0.339-0.384-0.039-0.676c1.286-1.25,2.545-2.53,3.814-3.796
		C39.892,25.375,39.992,25.302,40.099,25.21z"/>
	<path fill="#FEFEFE" d="M28.013,21.776c-0.215,0.016-0.282-0.152-0.384-0.254c-1.254-1.247-2.495-2.507-3.759-3.742
		c-0.274-0.268-0.261-0.408,0.008-0.671c1.265-1.235,2.515-2.486,3.75-3.751c0.27-0.277,0.421-0.253,0.677,0.008
		c1.236,1.263,2.49,2.509,3.749,3.752c0.213,0.211,0.322,0.343,0.048,0.612c-1.301,1.273-2.58,2.568-3.868,3.854
		C28.159,21.656,28.079,21.719,28.013,21.776z"/>
	<path fill="#FEFEFE" d="M38.399,23.495c-0.097,0.116-0.184,0.238-0.289,0.342c-1.249,1.251-2.506,2.496-3.746,3.754
		c-0.245,0.248-0.391,0.305-0.672,0.017c-1.23-1.268-2.484-2.516-3.748-3.752c-0.265-0.261-0.279-0.401-0.003-0.671
		c1.265-1.234,2.514-2.486,3.75-3.751c0.268-0.276,0.419-0.266,0.68,0c1.237,1.261,2.495,2.505,3.744,3.756
		C38.207,23.279,38.291,23.378,38.399,23.495z"/>
	<path fill="#FEFEFE" d="M34.016,31.272c0.145,0.129,0.265,0.227,0.375,0.335c1.233,1.23,2.455,2.472,3.703,3.688
		c0.293,0.284,0.281,0.442-0.004,0.721c-1.247,1.216-2.48,2.448-3.695,3.695c-0.293,0.3-0.454,0.274-0.734-0.014
		c-1.216-1.248-2.452-2.475-3.693-3.697c-0.238-0.234-0.346-0.38-0.045-0.672c1.285-1.252,2.544-2.531,3.813-3.799
		C33.821,31.443,33.913,31.365,34.016,31.272z"/>
	<path fill="#FEFEFE" d="M21.894,27.876c-0.114-0.1-0.217-0.175-0.304-0.264c-1.269-1.266-2.53-2.539-3.809-3.797
		c-0.231-0.228-0.259-0.355-0.007-0.602c1.281-1.253,2.546-2.525,3.803-3.803c0.232-0.236,0.379-0.257,0.623-0.008
		c1.258,1.279,2.53,2.542,3.801,3.806c0.176,0.175,0.325,0.299,0.066,0.553c-1.316,1.293-2.614,2.604-3.919,3.907
		C22.078,27.736,21.996,27.793,21.894,27.876z"/>
	<path fill="#FEFEFE" d="M32.418,29.577c-1.417,1.401-2.789,2.748-4.144,4.109c-0.239,0.24-0.387,0.24-0.626-0.001
		c-1.353-1.363-2.721-2.709-4.126-4.104c1.405-1.393,2.775-2.739,4.129-4.102c0.241-0.242,0.389-0.236,0.626,0.001
		C29.636,26.838,31.008,28.183,32.418,29.577z"/>
	<path fill="#FEFEFE" d="M22.517,51.585c-0.938-1.708-1.861-3.356-2.748-5.024c-0.239-0.448-0.126-0.917,0.235-1.292
		c0.524-0.543,1.075-1.061,1.587-1.611c0.245-0.262,0.386-0.215,0.616,0.021c1.26,1.278,2.527,2.55,3.809,3.805
		c0.261,0.257,0.206,0.396-0.021,0.62C24.851,49.231,23.719,50.379,22.517,51.585z"/>
	<path fill="#FEFEFE" d="M56.03,18.054c-1.229,1.232-2.395,2.381-3.537,3.553c-0.246,0.251-0.368,0.146-0.549-0.039
		c-1.266-1.274-2.537-2.545-3.812-3.809c-0.215-0.211-0.311-0.357-0.03-0.613c0.54-0.49,1.037-1.025,1.557-1.537
		c0.469-0.462,0.998-0.502,1.566-0.19C52.795,16.28,54.364,17.142,56.03,18.054z"/>
	<path fill="#FEFEFE" d="M16.929,32.914c-0.913-1.942-1.894-3.713-2.349-5.704c-0.118-0.519,0.714-1.856,1.204-1.943
		c0.197-0.034,0.266,0.13,0.368,0.23c1.252,1.246,2.493,2.503,3.753,3.739c0.261,0.254,0.292,0.404,0.015,0.675
		C18.935,30.871,17.977,31.857,16.929,32.914z"/>
	<path fill="#FEFEFE" d="M31.074,10.044c1.181,0.208,2.143,0.513,3.067,0.924c0.922,0.41,1.822,0.869,2.745,1.277
		c0.368,0.163,0.423,0.284,0.116,0.581c-0.914,0.885-1.81,1.79-2.7,2.699c-0.211,0.216-0.336,0.219-0.553-0.003
		c-1.274-1.297-2.561-2.581-3.853-3.858c-0.214-0.21-0.246-0.365-0.001-0.56C30.335,10.749,30.625,10.188,31.074,10.044z"/>
	<path fill="#FEFEFE" d="M25.038,10.236c0.464,0.193,0.824,0.626,1.12,1.049c0.215,0.308-0.262,0.491-0.454,0.688
		c-1.123,1.155-2.281,2.275-3.404,3.43c-0.292,0.301-0.468,0.372-0.786,0.026c-0.613-0.669-1.274-1.297-1.923-1.934
		c-0.202-0.199-0.357-0.336-0.027-0.593c1.552-1.214,3.269-2.093,5.169-2.609C24.807,10.273,24.885,10.265,25.038,10.236z"/>
	<path fill="#FEFEFE" d="M15.887,21.842c-1.575-1.459-1.379-0.924-0.78-2.729c0.525-1.582,1.381-2.99,2.544-4.346
		c0.776,0.809,1.52,1.603,2.288,2.373c0.24,0.24,0.239,0.384-0.001,0.622C18.58,19.115,17.235,20.482,15.887,21.842z"/>
	<path fill="#CAAFF1" d="M60.928,59.984c0.711,0.541,1.283,0.276,1.846-0.282c2.569-2.553,5.677-3.66,9.275-3.315
		c1.94,0.185,3.735,0.816,5.296,2.026c-0.209,0.76-2.439,2.924-3.133,3.036c-0.24-0.122-0.351-0.375-0.548-0.541
		c-0.591-0.504-1.269-0.513-1.827-0.021c-0.528,0.465-0.583,1.197-0.144,1.823c0.155,0.221,0.456,0.378,0.352,0.727
		c-0.742,0.782-1.747,1.095-2.714,1.43c-2.149,0.747-4.354,0.828-6.583,0.397c-0.437-0.085-0.83-0.284-1.248-0.422
		c-1.048-0.76-1.865-1.763-2.777-2.662c0.201-0.885,1.044-1.24,1.552-1.87C60.426,60.122,60.609,59.894,60.928,59.984z"/>
	<path fill="#CAAFF1" d="M52.971,56.381c-3.829-3.892-3.887-10.751-0.103-14.963c0.709-0.788,1.504-1.498,2.258-2.244
		c0.339-0.069,0.448,0.213,0.581,0.412c0.81,1.209,1.433,2.51,1.776,3.928c0.083,0.335,0.313,0.777-0.237,0.99
		c-0.25,0.06-0.514,0.03-0.766,0.094c-0.692,0.17-1.149,0.754-1.093,1.399c0.059,0.644,0.7,1.21,1.389,1.218
		c0.28,0.004,0.564-0.115,0.837,0.039c0.083,0.064,0.175,0.145,0.175,0.247c-0.004,1.32-0.143,2.609-0.918,3.74
		c-0.35,0.035-0.382-0.284-0.518-0.479c-0.435-0.628-0.977-0.857-1.576-0.62c-0.58,0.228-0.93,0.656-0.93,1.292
		c-0.002,0.603,0.576,1.182,1.236,1.296c0.178,0.03,0.359,0.016,0.539,0.045c0.219,0.056,0.381,0.137,0.341,0.419
		C55.861,53.905,53.755,56.167,52.971,56.381z"/>
	<path fill="#B595EE" d="M57.186,44.354c0.469-0.147,0.176-0.524,0.126-0.702c-0.446-1.626-1.084-3.169-2.188-4.477
		c1.583-1.823,1.583-1.823,3.169-0.074c3.879,4.278,3.885,10.837-0.025,15.138c-1.085,1.19-2.273,2.289-3.398,3.444
		c-0.261,0.267-0.428,0.294-0.681,0.004c-0.387-0.451-0.81-0.871-1.218-1.305c0.983-0.866,1.967-1.737,2.641-2.883
		c0.097-0.165,0.483-0.369,0.01-0.561c0.435-0.535,0.893-1.052,1.132-1.715c0.612-1.097,0.711-2.323,0.898-3.525
		c0.023-0.158-0.032-0.303-0.18-0.396c-0.044-0.232,0.12-0.377,0.234-0.542c0.568-0.82,0.487-1.389-0.294-2.052
		C57.301,44.609,57.136,44.552,57.186,44.354z"/>
	<path fill="#736572" d="M60.928,59.984c-0.835,0.63-1.562,1.373-2.207,2.195c-0.859-0.536-1.258-0.498-1.986,0.227
		c-1.676,1.672-3.351,3.348-5.021,5.022c-0.278,0.279-0.55,0.548-0.992,0.542c-0.45-0.004-0.819-0.14-1.047-0.545
		c-0.221-0.395-0.23-0.805,0.012-1.185c0.153-0.236,0.361-0.441,0.563-0.644c4.71-4.711,9.417-9.419,14.129-14.129
		c0.182-0.183,0.357-0.385,0.571-0.53c0.538-0.361,1.082-0.374,1.547,0.12c0.462,0.491,0.458,1.023,0.027,1.543
		c-0.132,0.159-0.287,0.302-0.435,0.449c-1.672,1.673-3.352,3.344-5.018,5.025C60.371,58.783,60.357,59.159,60.928,59.984z"/>
	<path fill="#B595EE" d="M61.498,64.842c0.765-0.091,1.465,0.237,2.202,0.335c3.022,0.395,5.785-0.222,8.328-1.878
		c0.036-0.042,0.077-0.089,0.125-0.085c1.213,0.112,1.862-0.431,1.941-1.654c0.006-0.074,0.077-0.133,0.141-0.18
		c0.616-0.174,0.911-0.733,1.336-1.134c0.619-0.584,1.184-1.222,1.775-1.835c0.946,0.53,1.613,1.382,2.396,2.098
		c0.244,0.221,0.173,0.367-0.032,0.563c-1.309,1.269-2.537,2.63-3.924,3.803C71.69,68.334,65.182,68.287,61.498,64.842z"/>
	<path fill="#F1D0FE" d="M46.875,62.629c-1.183-0.081-2.093-0.69-2.898-1.493c-0.473-0.473-1.251-0.945-1.289-1.464
		c-0.041-0.549,0.811-0.986,1.285-1.456c2.17-2.14,5.27-2.179,7.276-0.113c0.179,0.217,0.058,0.403-0.086,0.548
		c-1.252,1.262-2.438,2.59-3.809,3.729C47.215,62.499,47.045,62.565,46.875,62.629z"/>
	<path fill="#DEBCEF" d="M58.748,65.605c2.766,2.349,2.92,5.557,0.384,8.096c-0.418,0.419-0.854,1.135-1.283,1.135
		c-0.433-0.002-0.879-0.706-1.297-1.127c-0.414-0.42-0.872-0.813-1.085-1.391c0.156-0.532,0.615-0.82,0.977-1.174
		c1.36-1.324,2.152-2.882,2.108-4.816C58.549,66.078,58.531,65.805,58.748,65.605z"/>
	<path fill="#F1D0FE" d="M58.748,65.605c0.299,2.916-1.127,4.994-3.28,6.713c-1.104-1.777-0.915-4.125,0.487-5.759
		c0.456-0.528,0.988-0.987,1.453-1.509c0.299-0.339,0.532-0.448,0.833-0.021C58.387,65.238,58.576,65.416,58.748,65.605z"/>
	<path fill="#DEBCEF" d="M46.875,62.629c1.287-1.262,2.578-2.519,3.857-3.786c0.215-0.212,0.505-0.381,0.517-0.74
		c1.74,1.494,1.745,1.499,0.139,3.048C50.126,62.368,48.663,63.008,46.875,62.629z"/>
	<path fill="#010101" d="M67.656,62.349c-0.019,0.845-0.702,1.521-1.545,1.522c-0.863,0.004-1.588-0.732-1.567-1.588
		c0.02-0.83,0.727-1.521,1.556-1.523C66.968,60.757,67.674,61.479,67.656,62.349z"/>
	<path fill="#010101" d="M74.231,61.382c0.087,1.623-0.679,2.288-2.203,1.916c-1.148-0.599-1.162-2.255,0.032-2.83
		C72.875,60.077,73.628,60.398,74.231,61.382z"/>
	<path fill="#010101" d="M57.186,44.354c1.386,0.813,1.492,1.895,0.286,2.948c-1.024,0.257-1.698,0.051-2.096-0.642
		c-0.345-0.603-0.246-1.347,0.237-1.857C56.052,44.339,56.606,44.306,57.186,44.354z"/>
	<path fill="#010101" d="M56.753,51.224c0.028,0.84-0.406,1.374-1.132,1.714c-1.357,0.025-2.2-0.761-1.964-1.834
		c0.155-0.709,0.774-1.239,1.478-1.266C55.894,49.807,56.445,50.275,56.753,51.224z"/>
</g>
</svg>
