<?xml version="1.0" encoding="utf-8"?>
<!-- Generator: Adobe Illustrator 16.0.0, SVG Export Plug-In . SVG Version: 6.00 Build 0)  -->
<!DOCTYPE svg PUBLIC "-//W3C//DTD SVG 1.1//EN" "http://www.w3.org/Graphics/SVG/1.1/DTD/svg11.dtd">
<svg version="1.1" id="Layer_1" xmlns="http://www.w3.org/2000/svg" xmlns:xlink="http://www.w3.org/1999/xlink" x="0px" y="0px"
	 width="85px" height="85px" viewBox="0 0 85 85" enable-background="new 0 0 85 85" xml:space="preserve">
<g>
	<path fill-rule="evenodd" clip-rule="evenodd" d="M2.5,65.625c0.227-0.174,0.193-0.463,0.304-0.691
		c0.682-1.402,1.763-2.245,3.344-2.299c1.431-0.049,2.863-0.031,4.295-0.008c0.449,0.008,0.592-0.138,0.573-0.577
		c-0.029-0.702-0.025-1.406-0.002-2.108c0.03-0.91,0.455-1.31,1.366-1.335c0.078-0.002,0.156,0,0.234,0
		c1.427-0.006,1.511-0.12,1.321-1.585c-0.038-0.293-0.213-0.377-0.413-0.495c-2.203-1.304-3.776-3.152-4.728-5.523
		c-0.133-0.333-0.232-0.483-0.649-0.442c-1.128,0.109-2.01-0.396-2.693-1.273c-1.295-1.665-1.465-4.785-0.357-6.581
		c0.095-0.154,0.178-0.352,0.321-0.436c1.007-0.593,0.923-1.428,0.717-2.425c-0.338-1.641-0.316-3.314,0.028-4.964
		c0.733-3.501,2.84-5.877,6.169-7.05c4.397-1.548,8.899-1.624,13.334-0.21c4.562,1.455,6.956,5.223,6.617,10.006
		c-0.077,1.091-0.201,2.177-0.488,3.233c-0.096,0.351-0.074,0.559,0.273,0.763c0.598,0.352,1.013,0.896,1.268,1.54
		c0.784,1.979,0.688,3.924-0.362,5.775c-0.638,1.125-1.64,1.733-2.97,1.618c-0.333-0.029-0.457,0.057-0.565,0.339
		c-0.951,2.469-2.593,4.34-4.859,5.703c-0.695,0.418-0.311,1.192-0.287,1.782c0.017,0.449,0.552,0.162,0.849,0.215
		c0.253,0.045,0.52-0.001,0.779,0.012c0.812,0.039,1.242,0.462,1.264,1.273c0.021,0.729,0.031,1.459-0.005,2.186
		c-0.022,0.455,0.141,0.568,0.573,0.56c1.301-0.025,2.604-0.016,3.904-0.008c2.436,0.015,4.02,1.548,4.032,3.986
		c0.024,4.789-0.003,9.579,0.02,14.368c0.003,0.655-0.257,1.117-0.706,1.526c-5.99,0-11.979,0-17.969,0
		c-0.646-0.188-0.975-0.61-0.96-1.291c0.291-0.967,0.682-1.278,1.763-1.286c2.394-0.017,4.787-0.025,7.18,0.004
		c0.78-0.038,1.561-0.005,2.34-0.019c0.908-0.016,0.985-0.078,0.989-0.977c0.01-2.522,0.003-5.046,0.004-7.568
		c0-1.612,0.001-3.226-0.001-4.838c-0.002-1.275-0.004-1.272-1.315-1.279c-0.676-0.003-1.353,0.021-2.028-0.015
		c-4.496,0.039-8.992,0.007-13.488,0.018c-0.183,0-0.364-0.003-0.546,0.001c-0.957,0.017-1.028,0.074-1.029,1.018
		c-0.006,4.21-0.008,8.421,0.001,12.631c0.001,0.938,0.074,0.994,1.036,1.009c0.364,0.006,0.729-0.013,1.092,0.019
		c0.925,0.079,1.299,0.459,1.42,1.426c0.012,0.591-0.305,0.946-0.831,1.148c-3.125,0-6.25,0-9.375,0
		c-0.424-0.098-0.684-0.357-0.781-0.781C2.5,76.354,2.5,70.99,2.5,65.625z"/>
	<path fill-rule="evenodd" clip-rule="evenodd" d="M50,82.5c-0.577-0.45-0.71-1.046-0.706-1.76c0.022-4.58,0.082-9.162-0.015-13.74
		c-0.059-2.782,1.875-4.611,4.373-4.386c0.307,0.027,0.617,0.003,0.982,0.003c-0.056-0.344-0.33-0.477-0.512-0.66
		c-3.304-3.347-3.895-7.621-1.576-11.689c0.203-0.357,0.093-0.5-0.112-0.776c-1.498-2.016-1.619-4.199-0.706-6.483
		c0.086-0.213,0.195-0.465,0.371-0.586c0.937-0.646,0.899-1.498,0.743-2.502c-0.277-1.786-0.166-3.586,0.303-5.34
		c0.832-3.115,2.73-5.394,5.72-6.563c4.598-1.8,9.281-1.799,13.96-0.221c0.294,0.099,0.578,0.231,0.857,0.368
		c0.85,0.416,1.003,0.793,0.735,1.769c-0.035,0.648-0.531,0.686-0.994,0.715c-0.451,0.027-0.858-0.171-1.264-0.349
		c-1.15-0.505-2.347-0.821-3.605-0.888c-3.336-0.324-6.619-0.242-9.641,1.456c-2.083,1.17-3.169,3.048-3.495,5.361
		c-0.43,3.052,0.063,5.955,1.562,8.674c0.268,0.484,0.549,0.609,1.064,0.373c4.38-2.006,8.884-2.218,13.487-0.899
		c0.713,0.245,1.422,0.51,2.1,0.835c0.557,0.268,0.872,0.104,1.125-0.399c0.54-1.071,1.014-2.171,1.286-3.339
		c0.457-1.963,0.662-3.943,0.29-5.951c-0.123-0.669-0.354-1.298-0.604-1.928c-0.347-0.874-0.135-1.469,0.577-1.805
		c1.062-0.232,1.381-0.077,1.821,0.922c1.122,2.548,1.133,5.202,0.689,7.882c-0.099,0.597-0.012,0.946,0.46,1.384
		c1.372,1.271,1.485,2.965,1.279,4.693c-0.131,1.101-0.507,2.122-1.297,2.943c-0.163,0.169-0.229,0.295-0.076,0.528
		c2.71,4.119,1.487,9.295-1.965,12.252c-0.03,0.027-0.028,0.092-0.073,0.254c2.585-0.306,4.581,0.413,5.354,3.134
		c0,5.312,0,10.626,0,15.938c-0.099,0.424-0.358,0.684-0.782,0.781C71.146,82.5,60.572,82.5,50,82.5z"/>
	<path fill-rule="evenodd" clip-rule="evenodd" d="M34.547,6.595c-0.368-0.951-0.252-1.341,0.593-1.886
		c1.762-1.136,3.66-1.896,5.766-2.077c0.31-0.146,0.666,0.062,0.97-0.132c0.677,0,1.354,0,2.031,0
		c1.162,0.306,2.356,0.471,3.487,0.921c5.107,2.035,8.487,6.912,8.508,12.418c0.002,0.671,0.234,0.73,0.787,0.729
		c4.582-0.018,9.163-0.007,13.745-0.015c0.548-0.001,1.042,0.057,1.348,0.583c0.408,0.706,0,1.59-0.821,1.738
		c-0.278,0.05-0.571,0.026-0.857,0.026c-18.404,0.001-36.809,0.001-55.213,0c-1.265,0-1.829-0.362-1.831-1.177
		c-0.001-0.819,0.541-1.166,1.826-1.166c4.478-0.001,8.955-0.01,13.433,0.011c0.566,0.003,0.782-0.08,0.782-0.736
		c-0.001-2.383,0.607-4.622,1.826-6.683c0.489-0.827,0.863-0.959,1.807-0.641c0.692,0.186,0.732,0.72,0.672,1.29
		c-0.027,0.26-0.169,0.49-0.299,0.715c-0.836,1.444-1.255,3.015-1.426,4.662c-0.104,1.012,0.005,1.147,1.01,1.148
		c5.225,0.004,10.449,0.001,15.674,0.002c0.494,0,0.987-0.01,1.48,0.009c0.883,0.033,1.768,0.021,2.652,0.016
		c0.813-0.005,0.938-0.114,0.875-0.894c-0.288-3.578-1.814-6.475-4.791-8.539c-1.641-1.138-3.484-1.723-5.474-1.854
		c-2.375-0.078-4.567,0.493-6.582,1.774C35.561,7.451,35.048,7.355,34.547,6.595z"/>
	<path fill-rule="evenodd" clip-rule="evenodd" fill="#4C4C4C" d="M41.875,2.5c-0.299,0.228-0.633,0.185-0.97,0.132
		c0.011-0.044,0.021-0.088,0.031-0.132C41.249,2.5,41.562,2.5,41.875,2.5z"/>
	<path fill-rule="evenodd" clip-rule="evenodd" fill="#FEC228" d="M50,16.529c-5.491,0.01-10.983,0.019-16.476,0.027
		c-0.286,0.001-0.572,0-0.859,0c-1.336,0-1.34,0-1.221-1.37c0.15-1.733,0.605-3.375,1.515-4.869c0.414-0.68,0.368-1.271-0.228-1.809
		c0.551-0.69,1.175-1.31,1.815-1.914c0.642,0.613,1.262,0.491,1.955,0.037c2.011-1.316,4.226-1.912,6.634-1.748
		c1.855,0.44,3.102,1.766,4.245,3.125c1.836,2.185,2.84,4.738,2.819,7.638C50.198,15.952,50.246,16.276,50,16.529z"/>
	<path fill-rule="evenodd" clip-rule="evenodd" fill="#010101" d="M42.492,20.713c4.424,0,8.848,0,13.271,0.001
		c0.26,0,0.523-0.011,0.779,0.027c0.629,0.092,0.972,0.477,0.984,1.109c0.013,0.631-0.311,1.038-0.936,1.151
		c-0.305,0.056-0.621,0.054-0.933,0.054c-8.77,0.003-17.538,0.002-26.308,0.001c-0.26,0-0.522,0.008-0.779-0.023
		c-0.715-0.087-1.112-0.517-1.106-1.17c0.006-0.656,0.42-1.08,1.132-1.142c0.232-0.02,0.468-0.009,0.702-0.009
		C33.697,20.713,38.095,20.713,42.492,20.713z"/>
	<path fill-rule="evenodd" clip-rule="evenodd" fill="#FEC228" d="M68.594,29.222c1.422,0.049,2.759,0.436,4.033,1.046
		c0.692,0.332,1.298,0.324,1.791-0.336c0.735,0.512,1.342,1.155,1.89,1.857c-0.543,0.415-0.712,0.944-0.446,1.579
		c1.497,3.58,0.961,7.076-0.443,10.528c-0.253,0.624-0.459,1.454-0.949,1.742c-0.533,0.313-1.169-0.435-1.797-0.626
		c-0.394-0.12-0.771-0.292-1.155-0.441c0.855-1.866,1.319-3.831,1.451-5.874c0.235-3.644-0.592-6.827-3.909-8.919
		C68.853,29.649,68.562,29.562,68.594,29.222z"/>
	<path fill-rule="evenodd" clip-rule="evenodd" d="M42.533,27.168c-2.522,0-5.046,0.001-7.569-0.001
		c-0.284,0-0.568,0.024-0.843-0.103c-0.544-0.25-0.781-0.669-0.701-1.254c0.076-0.557,0.426-0.873,0.969-0.965
		c0.203-0.035,0.415-0.021,0.623-0.021c4.994-0.001,9.989-0.001,14.983-0.001c0.052,0,0.104-0.001,0.156,0
		c0.946,0.015,1.435,0.403,1.443,1.15c0.009,0.764-0.517,1.19-1.491,1.192C47.58,27.171,45.057,27.168,42.533,27.168z"/>
	<path fill-rule="evenodd" clip-rule="evenodd" fill="#010101" d="M42.566,29.648c1.222,0,2.443-0.009,3.665,0.003
		c0.85,0.009,1.374,0.459,1.381,1.148c0.006,0.683-0.533,1.183-1.36,1.188c-2.496,0.014-4.991,0.014-7.486,0.001
		c-0.836-0.004-1.373-0.484-1.381-1.168c-0.008-0.688,0.521-1.159,1.361-1.168C40.02,29.639,41.293,29.648,42.566,29.648z"/>
	<path fill-rule="evenodd" clip-rule="evenodd" fill="#D57B42" d="M18.594,51.229c-1.724-0.081-3.17-0.863-4.37-2
		c-2.958-2.799-5.277-6.006-5.859-10.184c-0.185-1.319-0.174-2.646,0.141-3.949c0.595-2.467,2.14-4.119,4.474-5.016
		c2.93-1.126,5.972-1.237,9.053-0.848c1.227,0.359,2.135,1.155,2.88,2.151c1.611,2.155,1.891,4.615,1.629,7.202
		c-0.379,3.755-2.233,6.824-4.484,9.713c-0.658,0.845-1.405,1.598-2.244,2.269C19.438,50.867,19.057,51.111,18.594,51.229z"/>
	<path fill-rule="evenodd" clip-rule="evenodd" fill="#80DDE9" d="M16.219,81.383c-0.965-0.102-1.936-0.322-2.877,0.122
		c-0.095-1.009-0.436-1.332-1.418-1.348c-0.026-0.001-0.053,0.001-0.078-0.001c-0.719-0.051-1.678,0.313-2.09-0.151
		c-0.354-0.399-0.109-1.337-0.11-2.037c-0.003-4.112,0.004-8.225-0.009-12.337c-0.002-0.46,0.05-0.686,0.614-0.683
		c4.814,0.024,9.63,0.014,14.444,0.016c0.104,0,0.206,0.022,0.31,0.034c0.264,0.302,0.246,0.673,0.246,1.034
		c0.006,4.357,0.006,8.714-0.001,13.071c0,0.357,0.036,0.734-0.248,1.028c-2.438,0.009-4.875,0.015-7.312,0.026
		C16.732,80.163,16.399,80.446,16.219,81.383z"/>
	<path fill-rule="evenodd" clip-rule="evenodd" fill="#BE6724" d="M18.594,51.229c3.712-2.717,6.16-6.331,7.38-10.731
		c0.649-2.342,0.719-4.739-0.171-7.095c-0.717-1.899-2.068-3.184-3.771-4.17c3.642,0.056,6.78,2.21,7.592,5.253
		c0.639,2.393,0.403,4.798-0.472,7.04c-1.248,3.198-3.076,6.074-5.855,8.211C21.924,50.792,20.385,51.437,18.594,51.229z"/>
	<path fill-rule="evenodd" clip-rule="evenodd" fill="#4DCFE0" d="M25.002,80.132c0.001-5.044,0.002-10.089,0.003-15.134
		c1.012-0.012,2.023-0.012,3.035-0.041c0.389-0.012,0.547,0.091,0.546,0.517c-0.014,4.729-0.015,9.456,0,14.184
		c0.002,0.436-0.166,0.516-0.547,0.506C27.027,80.136,26.015,80.141,25.002,80.132z"/>
	<path fill-rule="evenodd" clip-rule="evenodd" fill="#FEC5A0" d="M27.567,48.888c-0.315,1.537-0.939,2.648-1.766,3.656
		c-0.769,0.937-1.686,1.714-2.792,2.21c-0.834,0.375-1.168,0.961-1.112,1.846c0.033,0.519-0.01,1.042,0.012,1.562
		c0.014,0.331-0.087,0.455-0.436,0.451c-1.588-0.016-3.177-0.014-4.765-0.001c-0.337,0.003-0.459-0.107-0.445-0.448
		c0.022-0.572-0.021-1.147,0.013-1.718c0.048-0.805-0.294-1.3-1.017-1.657c-2.315-1.144-3.82-2.988-4.56-5.459
		c-0.021-0.071-0.017-0.149-0.032-0.32c2.306,2.55,4.821,4.591,8.408,4.601C22.668,53.62,25.173,51.571,27.567,48.888z"/>
	<path fill-rule="evenodd" clip-rule="evenodd" fill="#FDC5A0" d="M4.844,75.628c0-1.323,0.015-2.647-0.01-3.971
		c-0.008-0.421,0.087-0.569,0.545-0.576c1.922-0.029,1.922-0.047,1.922,1.855c0,2.206-0.015,4.412,0.011,6.618
		c0.005,0.475-0.118,0.611-0.604,0.615c-1.865,0.015-1.864,0.034-1.864-1.816C4.844,77.444,4.844,76.536,4.844,75.628z"/>
	<path fill-rule="evenodd" clip-rule="evenodd" fill="#FCA98D" d="M30.921,75.544c0-1.298,0.017-2.597-0.01-3.895
		c-0.01-0.438,0.119-0.56,0.561-0.566c1.876-0.03,1.876-0.046,1.876,1.819c0,2.207-0.017,4.415,0.012,6.621
		c0.007,0.514-0.142,0.647-0.647,0.646c-1.791-0.005-1.791,0.015-1.791-1.743C30.921,77.466,30.921,76.505,30.921,75.544z"/>
	<path fill-rule="evenodd" clip-rule="evenodd" fill="#F0F0F0" d="M13.438,62.5c-0.16-0.469-0.108-0.942-0.024-1.416
		c1.502-0.147,3.007-0.036,4.511-0.062c1.039-0.019,2.079,0.003,3.118-0.007c0.523-0.004,0.587,0.354,0.587,0.731
		c0.001,0.354,0.031,0.819-0.488,0.815C18.573,62.544,16.004,62.674,13.438,62.5z"/>
	<path fill-rule="evenodd" clip-rule="evenodd" fill="#F58D36" d="M7.303,66.841c0,0.026,0,0.052,0,0.078
		c0,1.98,0.001,1.972-2.02,1.841c-0.331-0.021-0.46-0.101-0.446-0.444c0.023-0.597-0.011-1.195,0.011-1.791
		c0.049-1.389,1.079-1.673,2.184-1.553c0.3,0.032,0.269,0.263,0.271,0.468C7.305,65.906,7.302,66.374,7.303,66.841z"/>
	<path fill-rule="evenodd" clip-rule="evenodd" fill="#F68D36" d="M30.921,66.845c0-0.234-0.055-0.485,0.012-0.699
		c0.121-0.39-0.37-1.002,0.325-1.166c0.924-0.217,1.793,0.203,1.987,0.952c0.218,0.839,0.321,1.813,0.021,2.536
		c-0.288,0.691-1.29,0.15-1.965,0.276c-0.402,0.075-0.384-0.224-0.381-0.494C30.925,67.782,30.921,67.313,30.921,66.845z"/>
	<path fill-rule="evenodd" clip-rule="evenodd" fill="#E0E0E0" d="M13.438,62.5c2.415-0.003,4.83-0.018,7.244-0.001
		c0.508,0.004,0.74-0.097,0.744-0.678c0.004-0.599-0.202-0.742-0.77-0.736c-2.414,0.023-4.828,0.003-7.243-0.001
		c0.163-0.268,0.425-0.134,0.635-0.134c3.384-0.008,6.768,0.021,10.151-0.021c0.701-0.009,0.682,0.33,0.644,0.795
		c-0.034,0.411,0.224,0.923-0.609,0.913c-3.436-0.04-6.871-0.012-10.308-0.015C13.762,62.622,13.556,62.715,13.438,62.5z"/>
	<path fill-rule="evenodd" clip-rule="evenodd" fill="#FA9978" d="M30.855,43.679c0.834,0.993,0.811,3.327-0.021,4.24
		c-0.157,0.174-0.345,0.387-0.589,0.271c-0.225-0.106-0.089-0.373-0.091-0.567c-0.006-0.623,0.052-1.25-0.003-1.868
		C30.08,44.943,30.437,44.317,30.855,43.679z"/>
	<path fill-rule="evenodd" clip-rule="evenodd" fill="#FA9978" d="M7.243,43.759c0.568,0.765,0.884,1.553,0.782,2.49
		c-0.047,0.436,0.018,0.882,0.018,1.323c0,0.216,0.194,0.521-0.09,0.626c-0.312,0.116-0.517-0.171-0.687-0.398
		C6.552,46.838,6.526,44.847,7.243,43.759z"/>
	<path fill-rule="evenodd" clip-rule="evenodd" fill="#FEC228" d="M58.413,62.197c-2.591-1.366-4.449-3.315-4.869-6.329
		c-0.313-2.244,0.53-4.137,2.034-5.744c2.075-2.217,4.73-3.323,7.672-3.786c3.708-0.584,7.24-0.049,10.525,1.828
		c0.561,0.319,1.119,0.657,1.558,1.149c1.108,1.84,1.014,3.77,0.348,5.701c-0.863,2.503-2.632,4.277-4.867,5.571
		c-2.567,1.486-5.353,2.216-8.345,2.14C61.092,62.693,59.714,62.766,58.413,62.197z"/>
	<path fill-rule="evenodd" clip-rule="evenodd" fill="#FED44F" d="M68.594,29.222c1.682,0.96,3.086,2.207,3.802,4.046
		c0.698,1.795,1.019,3.642,0.769,5.605c-0.199,1.57-0.429,3.115-0.97,4.604c-0.148,0.409-0.253,0.853-0.678,1.095
		c-2.071-0.528-4.165-0.894-6.315-0.791c-2.569,0.124-5.039,0.656-7.353,1.823c-0.254,0.128-0.507,0.396-0.767-0.056
		c-1.868-3.242-2.545-6.687-1.658-10.348c0.744-3.068,2.893-4.759,5.833-5.556C63.669,28.99,66.12,28.872,68.594,29.222z"/>
	<path fill-rule="evenodd" clip-rule="evenodd" fill="#F38EB0" d="M71.869,80.131c-4.99,0.008-9.982,0.014-14.973,0.032
		c-0.379,0.002-0.482-0.123-0.481-0.49c0.011-4.732,0.007-9.464,0.009-14.195c0-0.22-0.071-0.524,0.296-0.506
		c0.746,0.037,1.504-0.147,2.237,0.137c4.037,1.564,8.137,1.738,12.297,0.547c0.099-0.028,0.205-0.029,0.308-0.042
		c0.269-0.125,0.386,0.047,0.469,0.252c0.088,0.22,0.094,0.457,0.094,0.691c0.009,4.208,0.008,8.416,0,12.624
		C72.123,79.515,72.14,79.863,71.869,80.131z"/>
	<path fill-rule="evenodd" clip-rule="evenodd" fill="#FEB100" d="M58.413,62.197c1.638,0.295,3.291,0.379,4.949,0.302
		c4.195-0.196,7.889-1.597,10.618-4.884c1.922-2.312,2.548-4.993,1.422-7.922c-0.045-0.117-0.047-0.251-0.069-0.378
		c3.621,2.716,3.995,7.535,0.812,10.85c-2.002,2.085-4.531,3.163-7.334,3.653c-3.368,0.59-6.623,0.203-9.741-1.222
		C58.838,62.491,58.631,62.332,58.413,62.197z"/>
	<path fill-rule="evenodd" clip-rule="evenodd" fill="#EF6291" d="M71.869,80.131c0.002-4.583,0.005-9.166-0.002-13.749
		c-0.001-0.279,0.158-0.658-0.306-0.769c0.943-0.458,1.915-0.71,2.987-0.675c0.634,0.021,0.826,0.154,0.821,0.815
		c-0.032,4.186-0.016,8.372-0.016,12.559c0,0.468-0.017,0.937,0.004,1.403c0.016,0.339-0.111,0.454-0.448,0.446
		C73.896,80.138,72.883,80.139,71.869,80.131z"/>
	<path fill-rule="evenodd" clip-rule="evenodd" fill="#FBA98D" d="M80.156,75.703c0,1.302-0.019,2.604,0.01,3.904
		c0.01,0.446-0.131,0.555-0.565,0.561c-1.902,0.027-1.902,0.042-1.902-1.887c0-2.16,0.015-4.321-0.011-6.481
		c-0.006-0.509,0.071-0.728,0.662-0.722c1.806,0.017,1.807-0.011,1.807,1.813C80.156,73.828,80.156,74.766,80.156,75.703z"/>
	<path fill-rule="evenodd" clip-rule="evenodd" fill="#FEC5A0" d="M54.078,75.705c0,1.299-0.018,2.599,0.01,3.897
		c0.01,0.438-0.117,0.56-0.559,0.565c-1.879,0.027-1.879,0.044-1.879-1.814c0-2.209,0.017-4.419-0.012-6.627
		c-0.007-0.513,0.137-0.647,0.646-0.646c1.794,0.007,1.794-0.014,1.794,1.739C54.078,73.781,54.078,74.743,54.078,75.705z"/>
	<path fill-rule="evenodd" clip-rule="evenodd" fill="#FDC128" d="M77.698,66.843c0-0.234-0.055-0.485,0.012-0.698
		c0.121-0.392-0.374-0.999,0.336-1.17c0.847-0.203,1.656,0.127,1.935,0.801c0.37,0.894,0.374,1.944,0.081,2.744
		c-0.217,0.595-1.295,0.125-1.981,0.227c-0.396,0.059-0.387-0.228-0.384-0.5C77.702,67.778,77.698,67.311,77.698,66.843z"/>
	<path fill-rule="evenodd" clip-rule="evenodd" fill="#FED44F" d="M54.077,66.935c0.001,1.917,0.001,1.907-1.933,1.824
		c-0.348-0.015-0.519-0.076-0.5-0.47c0.03-0.62-0.016-1.245,0.022-1.865c0.068-1.097,1.145-1.789,2.188-1.462
		c0.258,0.081,0.218,0.249,0.22,0.418C54.081,65.897,54.077,66.417,54.077,66.935z"/>
	<path fill-rule="evenodd" clip-rule="evenodd" fill="#F99978" d="M77.914,44.129c0.554,0.977,0.461,2.884-0.156,3.645
		c-0.096,0.118-0.166,0.247-0.372,0.178c-0.657-0.219-0.919-0.892-0.597-1.527C77.171,45.67,77.533,44.907,77.914,44.129z"/>
	<path fill-rule="evenodd" clip-rule="evenodd" fill="#F99978" d="M53.748,44.153c0.517,1.004,0.972,1.842,1.384,2.7
		c0.331,0.688-0.417,0.776-0.71,1.055c-0.286,0.272-0.413-0.183-0.502-0.372C53.433,46.49,53.396,45.411,53.748,44.153z"/>
	<path fill-rule="evenodd" clip-rule="evenodd" fill="#FEB100" d="M50,16.529c0.174-3.004-0.68-5.703-2.505-8.074
		c-1.168-1.519-2.62-2.731-4.359-3.571c5.004,0.11,9.689,4.372,10.302,9.379c0.069,0.565,0.09,1.137,0.142,1.705
		c0.037,0.405-0.062,0.619-0.543,0.6C52.025,16.525,51.013,16.539,50,16.529z"/>
</g>
</svg>
