<?xml version="1.0" encoding="utf-8"?>
<!-- Generator: Adobe Illustrator 16.0.0, SVG Export Plug-In . SVG Version: 6.00 Build 0)  -->
<!DOCTYPE svg PUBLIC "-//W3C//DTD SVG 1.1//EN" "http://www.w3.org/Graphics/SVG/1.1/DTD/svg11.dtd">
<svg version="1.1" id="Color" xmlns="http://www.w3.org/2000/svg" xmlns:xlink="http://www.w3.org/1999/xlink" x="0px" y="0px"
	 width="85px" height="85px" viewBox="0 0 85 85" enable-background="new 0 0 85 85" xml:space="preserve">
<g id="Layer_copy">
</g>
<g id="Layer_6_copy">
	<g>
		<path fill="#37383C" d="M38.518,2.814v15.61c0,0.408-0.188,0.755-0.473,0.976c-0.156,0.126-0.346,0.222-0.566,0.283
			c-0.094,0-0.156,0.032-0.252,0.032h-2.422c-0.096,0-0.189,0-0.252-0.032c-0.221-0.03-0.41-0.157-0.566-0.283
			c-0.283-0.22-0.439-0.598-0.439-0.976V2.814c0-0.157,0.125-0.313,0.314-0.313c0.061,0,0.125,0.031,0.156,0.031
			c0.096,0.062,0.156,0.157,0.156,0.282v15.61c0,0.378,0.283,0.66,0.662,0.66h2.422c0.379,0,0.662-0.282,0.662-0.66V2.814
			c0-0.125,0.062-0.22,0.156-0.282c0.031-0.031,0.096-0.031,0.158-0.031C38.391,2.499,38.518,2.626,38.518,2.814z"/>
	</g>
	<g>
		<path fill="#37383C" d="M41.979,34.663c0,0.095-0.061,0.189-0.156,0.252c-0.156,0.095-0.314,0.188-0.473,0.283
			c-1.637,0.914-3.461,1.385-5.35,1.385s-3.715-0.471-5.352-1.385c-0.156-0.095-0.314-0.188-0.471-0.283
			c-0.096-0.062-0.158-0.157-0.158-0.252c0-0.03,0-0.062,0-0.062c0.189-0.881,0.408-1.73,0.598-2.549
			c0.473-1.982,0.943-3.871,1.418-5.665l0,0c0.094-0.347,0.188-0.692,0.283-1.07c0.533-2.108,1.068-4.06,1.604-5.917
			c0.031-0.062,0.031-0.125,0.062-0.189c0.062-0.156,0.221-0.25,0.379-0.219c0.156,0.062,0.25,0.219,0.219,0.377
			c-0.031,0.094-0.062,0.189-0.094,0.314c-0.535,1.826-1.07,3.809-1.605,5.885c0,0.032,0,0.032-0.031,0.062
			c-0.725,2.771-1.447,5.729-2.203,8.875c1.605,0.945,3.432,1.449,5.287,1.449c1.857,0,3.715-0.504,5.287-1.449
			c-0.756-3.178-1.51-6.168-2.232-8.938c0,0,0,0,0-0.031c-0.535-2.076-1.07-4.06-1.605-5.885c-0.031-0.094-0.062-0.189-0.094-0.283
			c-0.033-0.158,0.061-0.346,0.219-0.377s0.348,0.062,0.379,0.219c0.031,0.063,0.031,0.127,0.062,0.189
			c0.533,1.826,1.068,3.809,1.604,5.885c0.096,0.346,0.189,0.692,0.283,1.039l0,0c0.473,1.825,0.945,3.713,1.416,5.696
			c0.188,0.817,0.41,1.668,0.598,2.519C41.979,34.632,41.979,34.663,41.979,34.663z"/>
	</g>
	<g>
		<g>
			<path fill="#E8EEFE" d="M32.098,26.354c-0.473,1.794-0.943,3.682-1.416,5.665v-2.233C30.682,28.495,31.186,27.268,32.098,26.354z
				"/>
			<path fill="#37383C" d="M32.947,25.567c0,0.032,0,0.032-0.031,0.062c-0.031,0.064-0.062,0.095-0.125,0.127
				c-0.252,0.189-0.504,0.377-0.725,0.598l0,0c-0.912,0.913-1.416,2.141-1.416,3.432v5.412c-0.158-0.095-0.314-0.188-0.473-0.283
				c-0.094-0.062-0.158-0.157-0.158-0.252l0,0v-4.877c0-1.795,0.883-3.463,2.33-4.5c0.031-0.031,0.062-0.063,0.096-0.063
				c0.156-0.095,0.346-0.063,0.439,0.094C32.947,25.411,32.947,25.474,32.947,25.567z"/>
			<path fill="#E8EEFE" d="M41.383,29.786v2.266c-0.473-1.982-0.977-3.903-1.416-5.697C40.848,27.268,41.383,28.495,41.383,29.786z"
				/>
			<path fill="#BBC8F4" d="M41.318,34.505c-1.604,0.945-3.43,1.449-5.287,1.449c-1.855,0-3.713-0.504-5.287-1.449
				c0.756-3.146,1.479-6.137,2.203-8.875c0-0.03,0-0.03,0.031-0.062c0.535-2.076,1.07-4.06,1.605-5.885
				c0.094,0,0.156,0.032,0.252,0.032h2.422c0.096,0,0.189,0,0.252-0.032c0.535,1.826,1.07,3.777,1.605,5.885c0,0,0,0,0,0.032
				C39.84,28.337,40.562,31.327,41.318,34.505z"/>
			<path fill="#37383C" d="M42.012,29.786v4.877H41.98c0,0.095-0.062,0.189-0.156,0.252c-0.158,0.095-0.314,0.188-0.473,0.283
				v-5.412c0-1.291-0.535-2.519-1.416-3.432l0,0c-0.221-0.22-0.473-0.408-0.725-0.598c-0.062-0.032-0.094-0.096-0.127-0.189
				c0,0,0,0,0-0.031c-0.031-0.095,0-0.156,0.033-0.252c0.094-0.156,0.281-0.188,0.439-0.094c0.031,0.031,0.062,0.031,0.096,0.062
				C41.131,26.323,42.012,27.991,42.012,29.786z"/>
		</g>
		<g>
			<path fill="#37383C" d="M39.777,45.018c-1.164,0.692-2.455,1.039-3.777,1.039c-1.229,0-2.453-0.315-3.588-0.944
				c-0.156-0.095-0.219-0.283-0.125-0.439c0.094-0.157,0.283-0.221,0.439-0.127c2.078,1.164,4.658,1.134,6.703-0.094
				c0.158-0.096,0.348-0.031,0.441,0.094C39.998,44.735,39.934,44.954,39.777,45.018z"/>
		</g>
		<g>
			<path fill="#37383C" d="M41.508,43.602c-0.188,0.188-0.377,0.409-0.564,0.599c-0.064,0.062-0.127,0.062-0.223,0.062
				c-0.094,0-0.156-0.032-0.219-0.096c-0.127-0.125-0.096-0.313,0.031-0.439c0.188-0.156,0.377-0.348,0.535-0.535
				c0.125-0.126,0.312-0.156,0.439-0.031C41.635,43.255,41.635,43.476,41.508,43.602z"/>
		</g>
		<g>
			<path fill="#37383C" d="M30.555,31.391c-0.188,0.22-0.377,0.409-0.535,0.661c-1.447,1.919-2.328,4.343-2.328,6.576v43.559
				c0,0.094-0.031,0.156-0.094,0.219c-0.033,0-0.033,0.031-0.062,0.031c-0.031,0-0.031,0.031-0.062,0.031
				c-0.033,0-0.062,0.031-0.127,0.031c-0.031,0-0.094,0-0.125-0.031c-0.031,0-0.062-0.031-0.094-0.062l0,0
				c-0.064-0.062-0.096-0.125-0.096-0.219V38.598c0-2.644,1.102-5.444,2.959-7.554c0.029-0.03,0.029-0.062,0.062-0.062
				c0.125-0.126,0.314-0.126,0.439-0.031C30.682,31.044,30.682,31.265,30.555,31.391z"/>
		</g>
		<g>
			<path fill="#37383C" d="M44.971,38.598v43.558c0,0.094-0.031,0.156-0.096,0.219c-0.062,0.062-0.125,0.096-0.219,0.096
				c-0.096,0-0.158-0.031-0.223-0.096c-0.062-0.061-0.094-0.125-0.094-0.219V38.598c0-2.203-0.881-4.658-2.33-6.546
				c-0.156-0.221-0.346-0.441-0.533-0.661c-0.127-0.126-0.096-0.315,0.031-0.44c0.125-0.125,0.346-0.095,0.439,0.031
				c0.031,0.032,0.031,0.062,0.062,0.062C43.869,33.153,44.971,35.985,44.971,38.598z"/>
		</g>
	</g>
	<g>
		<path fill="#37383C" d="M53.625,36.741h-0.629c-3.117,0-5.666,2.549-5.666,5.664v8.812c0,3.115,2.549,5.664,5.666,5.664h0.629
			c3.115,0,5.664-2.549,5.664-5.664v-8.812C59.289,39.29,56.74,36.741,53.625,36.741z M58.66,51.249c0,2.77-2.268,5.035-5.035,5.035
			h-0.629c-2.771,0-5.037-2.266-5.037-5.035v-8.812c0-2.77,2.268-5.035,5.037-5.035h0.629c2.77,0,5.035,2.266,5.035,5.035V51.249z"
			/>
		<g>
			<path fill="#37383C" d="M57.055,57.481c-1.164,0.691-2.455,1.037-3.775,1.037c-1.229,0-2.455-0.314-3.588-0.943
				c-0.156-0.094-0.189-0.283-0.127-0.441c0.096-0.156,0.283-0.219,0.441-0.125c2.076,1.164,4.658,1.135,6.703-0.094
				c0.156-0.096,0.346-0.031,0.439,0.094C57.244,57.196,57.213,57.417,57.055,57.481z"/>
		</g>
		<g>
			<path fill="#37383C" d="M58.785,56.065c-0.188,0.219-0.377,0.408-0.598,0.598c-0.062,0.062-0.127,0.094-0.221,0.094
				s-0.158-0.031-0.221-0.094c-0.125-0.127-0.094-0.314,0.031-0.441c0.188-0.156,0.379-0.346,0.535-0.533
				c0.125-0.127,0.314-0.127,0.439-0.031C58.881,55.718,58.912,55.938,58.785,56.065z"/>
		</g>
		<g>
			<path fill="#37383C" d="M47.834,43.854c-0.189,0.22-0.377,0.409-0.535,0.629c-1.447,1.921-2.328,4.343-2.328,6.579v31.094
				c0,0.094-0.031,0.156-0.096,0.219c-0.062,0.062-0.125,0.096-0.219,0.096c-0.096,0-0.158-0.031-0.223-0.096
				c-0.062-0.061-0.094-0.125-0.094-0.219V51.062c0-1.166,0.221-2.395,0.629-3.559c0.504-1.446,1.322-2.832,2.33-4.027
				c0.031-0.031,0.031-0.031,0.062-0.062c0.125-0.125,0.312-0.158,0.439-0.031C47.959,43.507,47.959,43.728,47.834,43.854z"/>
		</g>
		<g>
			<path fill="#37383C" d="M62.248,51.062v31.094c0,0.094-0.031,0.156-0.096,0.219c-0.062,0.062-0.125,0.096-0.221,0.096
				c-0.094,0-0.156-0.031-0.221-0.096c-0.062-0.061-0.094-0.125-0.094-0.219V51.062c0-2.204-0.881-4.658-2.328-6.547
				c-0.158-0.221-0.348-0.441-0.535-0.661c-0.127-0.126-0.096-0.347,0.031-0.44c0.125-0.094,0.346-0.094,0.439,0.031
				c0.031,0.031,0.031,0.062,0.062,0.062C61.145,45.614,62.248,48.448,62.248,51.062z"/>
		</g>
	</g>
	<g>
		<path fill="#37383C" d="M74.207,65.505c-0.252-2.484-2.328-4.438-4.879-4.438h-0.283c-2.549,0-4.656,1.951-4.877,4.404
			c-0.031,0.158-0.031,0.316-0.031,0.506v7.143c0,2.707,2.203,4.91,4.908,4.91h0.283c2.707,0,4.91-2.203,4.91-4.91v-7.143
			C74.238,65.819,74.207,65.663,74.207,65.505z M73.609,73.153c0,2.359-1.922,4.277-4.281,4.277h-0.283
			c-2.359,0-4.279-1.918-4.279-4.277v-7.146c0-2.359,1.92-4.279,4.279-4.279h0.283c2.359,0,4.281,1.92,4.281,4.279V73.153z"/>
		<g>
			<path fill="#37383C" d="M72.35,78.534c-0.977,0.566-2.078,0.881-3.18,0.881c-1.039,0-2.076-0.252-3.02-0.787
				c-0.158-0.094-0.221-0.283-0.127-0.439c0.096-0.156,0.283-0.221,0.441-0.125c1.73,0.975,3.869,0.943,5.57-0.062
				c0.156-0.096,0.346-0.033,0.439,0.094C72.539,78.251,72.475,78.44,72.35,78.534z"/>
		</g>
		<g>
			<path fill="#37383C" d="M73.797,77.339c-0.156,0.156-0.312,0.346-0.502,0.502c-0.064,0.064-0.127,0.096-0.221,0.096
				c-0.096,0-0.189-0.031-0.223-0.096c-0.125-0.125-0.094-0.312,0.033-0.439c0.156-0.125,0.314-0.283,0.439-0.439
				c0.127-0.127,0.314-0.158,0.439-0.031C73.891,76.991,73.924,77.181,73.797,77.339z"/>
		</g>
		<g>
			<path fill="#37383C" d="M64.639,65.882c-0.188,0.223-0.377,0.441-0.535,0.662c-1.164,1.572-1.855,3.557-1.855,5.352v10.26
				c0,0.094-0.031,0.156-0.096,0.219c-0.062,0.062-0.125,0.096-0.221,0.096c-0.094,0-0.156-0.031-0.221-0.096
				c-0.062-0.061-0.094-0.125-0.094-0.219v-10.26c0-1.07,0.221-2.203,0.629-3.242c0.439-1.133,1.07-2.203,1.889-3.115l0.031-0.031
				c0.127-0.127,0.314-0.127,0.439-0.031C64.734,65.536,64.764,65.757,64.639,65.882z"/>
		</g>
		<g>
			<path fill="#37383C" d="M76.693,71.862v10.26c0,0.156-0.127,0.314-0.314,0.314c-0.096,0-0.158-0.031-0.221-0.096
				c-0.062-0.062-0.096-0.125-0.096-0.221V71.86c0-1.793-0.691-3.775-1.855-5.35c-0.158-0.221-0.346-0.439-0.535-0.662
				c-0.127-0.125-0.094-0.312,0.031-0.439c0.127-0.125,0.346-0.094,0.439,0.031c0.031,0.031,0.031,0.031,0.031,0.062
				C75.781,67.3,76.693,69.659,76.693,71.862z"/>
		</g>
	</g>
	<g>
		<g>
			<path fill="#37383C" d="M22.5,58.142c-1.166,0.691-2.455,1.037-3.777,1.037c-1.227,0-2.455-0.312-3.588-0.943
				c-0.156-0.094-0.188-0.283-0.125-0.439c0.094-0.158,0.283-0.221,0.439-0.127c2.078,1.166,4.658,1.133,6.705-0.094
				c0.156-0.094,0.346-0.031,0.439,0.094C22.688,57.858,22.656,58.046,22.5,58.142z"/>
		</g>
		<g>
			<path fill="#37383C" d="M24.23,56.692c-0.189,0.221-0.377,0.41-0.598,0.598c-0.062,0.064-0.125,0.064-0.221,0.064
				c-0.094,0-0.156-0.031-0.219-0.096c-0.127-0.127-0.096-0.314,0.029-0.439c0.189-0.158,0.379-0.348,0.535-0.535
				c0.127-0.127,0.316-0.127,0.441-0.031C24.355,56.378,24.355,56.567,24.23,56.692z"/>
		</g>
		<g>
			<path fill="#37383C" d="M13.279,44.482c-0.189,0.222-0.348,0.409-0.535,0.63c-1.449,1.92-2.33,4.344-2.33,6.578v30.432
				c0,0.096-0.031,0.158-0.094,0.221s-0.125,0.096-0.221,0.096c-0.156,0-0.314-0.158-0.314-0.314V51.69
				c0-2.611,1.102-5.443,2.959-7.553c0.029-0.032,0.029-0.062,0.061-0.062c0.127-0.127,0.316-0.158,0.441-0.031
				C13.404,44.167,13.404,44.356,13.279,44.482z"/>
		</g>
		<g>
			<path fill="#37383C" d="M27.693,51.72v30.436c0,0.094-0.033,0.156-0.096,0.219c-0.031,0.031-0.062,0.031-0.094,0.062
				c-0.031,0-0.064,0.031-0.127,0.031c-0.031,0-0.094,0-0.125-0.031c-0.031,0-0.062-0.031-0.094-0.062
				c-0.064-0.061-0.096-0.125-0.096-0.219V51.72c0-2.201-0.881-4.656-2.328-6.545c-0.156-0.221-0.346-0.439-0.535-0.629
				c-0.125-0.127-0.096-0.348,0.031-0.441c0.125-0.125,0.346-0.094,0.439,0.032c0.033,0.03,0.033,0.062,0.062,0.062
				c1.039,1.166,1.826,2.582,2.33,4.028C27.473,49.329,27.693,50.557,27.693,51.72z"/>
		</g>
		<path fill="#1E4CE0" d="M19.07,37.401h-0.631c-3.115,0-5.664,2.549-5.664,5.665v8.812c0,3.117,2.549,5.666,5.664,5.666h0.631
			c3.115,0,5.664-2.549,5.664-5.666v-8.812C24.734,39.95,22.184,37.401,19.07,37.401z"/>
	</g>
	<g>
		<path fill="#37383C" d="M15.01,29.659c-1.543-0.125-2.77-1.353-2.896-2.896c0-0.157-0.156-0.283-0.314-0.283
			c-0.156,0-0.312,0.126-0.312,0.283c-0.127,1.542-1.355,2.771-2.896,2.896c-0.158,0-0.283,0.157-0.283,0.315
			c0,0.157,0.125,0.313,0.283,0.313c1.541,0.127,2.77,1.354,2.896,2.896c0,0.157,0.156,0.283,0.312,0.283
			c0.158,0,0.283-0.126,0.314-0.283c0.127-1.542,1.354-2.77,2.896-2.896c0.156,0,0.283-0.156,0.283-0.313
			C15.293,29.816,15.166,29.659,15.01,29.659z M11.799,31.894c-0.377-0.85-1.07-1.542-1.92-1.919c0.85-0.378,1.543-1.069,1.92-1.92
			c0.379,0.851,1.07,1.542,1.92,1.92C12.869,30.352,12.178,31.044,11.799,31.894z"/>
		<ellipse fill="#FFFFFF" cx="11.799" cy="29.974" rx="1.92" ry="1.92"/>
	</g>
	<g>
		<path fill="#37383C" d="M74.113,14.805L74.113,14.805L74.113,14.805c-2.771-0.22-4.91-2.392-5.1-5.099
			c0-0.157-0.158-0.282-0.314-0.282s-0.314,0.125-0.314,0.282c-0.221,2.738-2.359,4.879-5.098,5.099l0,0h-0.033
			c-0.156,0-0.283,0.157-0.283,0.315c0,0.156,0.127,0.313,0.283,0.313c2.738,0.22,4.91,2.36,5.1,5.099
			c0,0.157,0.156,0.283,0.314,0.283s0.314-0.126,0.314-0.283c0.221-2.738,2.359-4.91,5.098-5.099c0.158,0,0.283-0.157,0.283-0.313
			C74.395,14.962,74.27,14.805,74.113,14.805z M68.699,18.96c-0.629-1.825-2.045-3.242-3.84-3.84c1.824-0.629,3.24-2.045,3.84-3.84
			c0.629,1.826,2.045,3.242,3.84,3.84C70.713,15.718,69.297,17.165,68.699,18.96z"/>
		<path fill="#FFFFFF" d="M72.539,15.12c-1.826,0.629-3.242,2.045-3.84,3.838c-0.629-1.824-2.045-3.241-3.84-3.838
			c1.824-0.631,3.24-2.047,3.84-3.84C69.297,13.073,70.713,14.489,72.539,15.12z"/>
	</g>
	<g>
		<path fill="#37383C" d="M68.699,10.021c-0.189,0-0.314-0.126-0.314-0.313V7.819c0-0.189,0.125-0.314,0.314-0.314
			c0.188,0,0.314,0.125,0.314,0.314v1.889C69.014,9.896,68.855,10.021,68.699,10.021z"/>
	</g>
	<g>
		<path fill="#37383C" d="M76,15.435h-1.887c-0.189,0-0.316-0.126-0.316-0.314s0.127-0.314,0.316-0.314H76
			c0.189,0,0.314,0.126,0.314,0.314S76.158,15.435,76,15.435z"/>
	</g>
	<g>
		<path fill="#37383C" d="M68.699,22.704c-0.189,0-0.314-0.125-0.314-0.314v-1.889c0-0.188,0.125-0.313,0.314-0.313
			c0.188,0,0.314,0.125,0.314,0.313v1.889C69.014,22.579,68.855,22.704,68.699,22.704z"/>
	</g>
	<g>
		<path fill="#37383C" d="M63.287,15.435h-1.891c-0.188,0-0.312-0.126-0.312-0.314s0.125-0.314,0.312-0.314h1.891
			c0.188,0,0.312,0.126,0.312,0.314S63.443,15.435,63.287,15.435z"/>
	</g>
	<path fill="#FFFFFF" d="M27.062,82.153V51.72c0-2.202-0.881-4.657-2.33-6.546v6.735c0,3.115-2.549,5.664-5.664,5.664h-0.629
		c-3.115,0-5.666-2.549-5.666-5.664v-6.768c-1.447,1.92-2.328,4.344-2.328,6.576v30.436c0,0.094-0.031,0.156-0.096,0.219h16.838
		C27.094,82.312,27.062,82.247,27.062,82.153z M22.5,58.142c-1.166,0.691-2.455,1.037-3.777,1.037c-1.227,0-2.455-0.312-3.588-0.943
		c-0.156-0.094-0.188-0.283-0.125-0.439c0.094-0.158,0.283-0.221,0.439-0.127c2.078,1.166,4.658,1.133,6.705-0.094
		c0.156-0.094,0.346-0.031,0.439,0.094C22.688,57.858,22.656,58.046,22.5,58.142z M24.23,56.692
		c-0.189,0.221-0.377,0.41-0.598,0.598c-0.062,0.064-0.125,0.064-0.221,0.064c-0.094,0-0.156-0.031-0.219-0.096
		c-0.127-0.127-0.096-0.314,0.029-0.439c0.189-0.158,0.379-0.348,0.535-0.535c0.127-0.127,0.316-0.127,0.441-0.031
		C24.355,56.378,24.355,56.567,24.23,56.692z"/>
	<path fill="#FFFFFF" d="M44.34,82.153V38.597c0-2.203-0.881-4.658-2.328-6.546v6.892c0,3.053-2.484,5.508-5.508,5.508h-0.943
		c-3.021,0-5.508-2.455-5.508-5.508v-6.924c-1.447,1.92-2.328,4.344-2.328,6.578v43.557c0,0.094-0.031,0.158-0.094,0.221h16.836
		C44.371,82.312,44.34,82.247,44.34,82.153z M39.777,45.018c-1.164,0.692-2.455,1.039-3.777,1.039c-1.229,0-2.453-0.315-3.588-0.944
		c-0.156-0.095-0.219-0.283-0.125-0.439c0.094-0.157,0.283-0.221,0.439-0.127c2.078,1.164,4.658,1.134,6.703-0.094
		c0.158-0.096,0.348-0.031,0.441,0.094C39.998,44.735,39.934,44.954,39.777,45.018z M41.508,43.602
		c-0.188,0.188-0.377,0.409-0.564,0.599c-0.064,0.062-0.127,0.062-0.223,0.062c-0.094,0-0.156-0.032-0.219-0.096
		c-0.127-0.125-0.096-0.313,0.031-0.439c0.188-0.156,0.377-0.348,0.535-0.535c0.125-0.126,0.312-0.156,0.439-0.031
		C41.635,43.255,41.635,43.476,41.508,43.602z"/>
	<path fill="#FFFFFF" d="M61.619,82.153V51.06c0-2.203-0.883-4.658-2.33-6.546v6.733c0,3.115-2.549,5.666-5.664,5.666h-0.629
		c-3.117,0-5.666-2.551-5.666-5.666V44.48c-1.447,1.921-2.328,4.343-2.328,6.579v31.094c0,0.094-0.031,0.156-0.096,0.219h16.838
		C61.648,82.312,61.619,82.247,61.619,82.153z M57.055,57.481c-1.164,0.691-2.455,1.037-3.775,1.037
		c-1.229,0-2.455-0.314-3.588-0.943c-0.156-0.094-0.189-0.283-0.127-0.441c0.096-0.156,0.283-0.219,0.441-0.125
		c2.076,1.164,4.658,1.135,6.703-0.094c0.156-0.096,0.346-0.031,0.439,0.094C57.244,57.196,57.213,57.417,57.055,57.481z
		 M58.785,56.065c-0.188,0.219-0.377,0.408-0.598,0.598c-0.062,0.062-0.127,0.094-0.221,0.094s-0.158-0.031-0.221-0.094
		c-0.125-0.127-0.094-0.314,0.031-0.441c0.188-0.156,0.379-0.346,0.535-0.533c0.125-0.127,0.314-0.127,0.439-0.031
		C58.881,55.718,58.912,55.938,58.785,56.065z"/>
	<path fill="#FFFFFF" d="M76.062,82.153v-10.26c0-1.793-0.691-3.777-1.855-5.352v6.609c0,2.707-2.203,4.91-4.91,4.91h-0.283
		c-2.707,0-4.908-2.203-4.908-4.91v-6.609c-1.166,1.574-1.857,3.559-1.857,5.352v10.26c0,0.094-0.031,0.158-0.094,0.221h14.035
		C76.127,82.312,76.062,82.247,76.062,82.153z M72.35,78.534c-0.977,0.566-2.078,0.881-3.18,0.881c-1.039,0-2.076-0.252-3.02-0.787
		c-0.158-0.094-0.221-0.283-0.127-0.439c0.096-0.156,0.283-0.221,0.441-0.125c1.73,0.975,3.869,0.943,5.57-0.062
		c0.156-0.096,0.346-0.033,0.439,0.094C72.539,78.251,72.475,78.44,72.35,78.534z M73.797,77.339
		c-0.156,0.156-0.312,0.346-0.502,0.502c-0.064,0.064-0.127,0.096-0.221,0.096c-0.096,0-0.189-0.031-0.223-0.096
		c-0.125-0.125-0.094-0.312,0.033-0.439c0.156-0.125,0.314-0.283,0.439-0.439c0.127-0.127,0.314-0.158,0.439-0.031
		C73.891,76.991,73.924,77.181,73.797,77.339z"/>
	<path fill="#E8EEFE" d="M38.047,2.53c-0.096,0.063-0.158,0.158-0.158,0.283v15.609c0,0.379-0.283,0.662-0.66,0.662h-2.424
		c-0.377,0-0.66-0.283-0.66-0.662V2.813c0-0.125-0.062-0.22-0.156-0.283H38.047z"/>
	<path fill="#1E4CE0" d="M41.979,34.663c0,0.095-0.061,0.189-0.156,0.252c-0.156,0.095-0.314,0.188-0.473,0.283
		c-1.637,0.914-3.461,1.385-5.35,1.385s-3.715-0.471-5.352-1.385c-0.156-0.095-0.314-0.188-0.471-0.283
		c-0.096-0.062-0.158-0.157-0.158-0.252l0,0v4.281c0,3.053,2.486,5.506,5.508,5.506h0.943c3.021,0,5.508-2.455,5.508-5.506V34.663
		L41.979,34.663z"/>
	<g>
		<path fill="#E8EEFE" d="M53.625,37.37h-0.629c-2.771,0-5.037,2.266-5.037,5.035v8.811c0,0.945,0.252,1.826,0.725,2.58
			c0.852-1.762,2.645-2.957,4.723-2.957c2.014,0,3.775,1.133,4.656,2.801c0.377-0.725,0.631-1.543,0.631-2.424v-8.811
			C58.66,39.636,56.393,37.37,53.625,37.37z"/>
		<path fill="#E8EEFE" d="M69.234,72.806c1.637,0,3.084,0.758,4.061,1.922c0.188-0.473,0.283-1.008,0.283-1.574v-7.145
			c0-2.359-1.92-4.279-4.281-4.279h-0.283c-2.359,0-4.279,1.92-4.279,4.279v7.145c0,0.598,0.127,1.164,0.348,1.699
			C66.055,73.593,67.535,72.806,69.234,72.806z"/>
		<path fill="#FFFFFF" d="M53.373,50.87c-2.078,0-3.871,1.197-4.721,2.959c0.881,1.48,2.484,2.455,4.311,2.455h0.631
			c1.92,0,3.557-1.07,4.406-2.613C57.148,52.003,55.387,50.87,53.373,50.87z"/>
		<path fill="#FFFFFF" d="M69.014,77.433h0.283c1.824,0,3.367-1.133,3.996-2.736c-0.975-1.166-2.424-1.92-4.061-1.92
			c-1.699,0-3.178,0.787-4.152,2.045C65.74,76.362,67.252,77.433,69.014,77.433z"/>
	</g>
</g>
<g id="Layer_4_copy">
	<g id="Layer_7_copy">
	</g>
</g>
<g id="Layer_8_copy">
</g>
<g id="Layer_10_copy">
</g>
<g id="Layer_11_copy">
</g>
<g id="Layer_9_copy">
</g>
<g id="Layer_12_copy">
</g>
<g id="Layer_13_copy">
</g>
<g id="Layer_14_copy">
</g>
<g id="Layer_5_copy">
</g>
<g id="Layer_15_copy">
</g>
<g id="Layer_16_copy">
</g>
<g id="Layer_17_copy">
</g>
<g id="Layer_18_copy">
</g>
<g id="Layer_19_copy">
</g>
<g id="Layer_20_copy_2_00000120537884136381431390000009169741791805370520_">
</g>
<g id="Layer_21_copy">
</g>
<g id="Layer_22_copy">
</g>
<g id="Layer_20_copy_2">
</g>
<g id="Layer_24_copy">
</g>
<g id="Layer_25_copy">
</g>
<g id="Layer_26_copy">
</g>
<g id="Layer_27_copy">
</g>
</svg>
