<?xml version="1.0" encoding="utf-8"?>
<!-- Generator: Adobe Illustrator 16.0.0, SVG Export Plug-In . SVG Version: 6.00 Build 0)  -->
<!DOCTYPE svg PUBLIC "-//W3C//DTD SVG 1.1//EN" "http://www.w3.org/Graphics/SVG/1.1/DTD/svg11.dtd">
<svg version="1.1" id="Layer_1" xmlns="http://www.w3.org/2000/svg" xmlns:xlink="http://www.w3.org/1999/xlink" x="0px" y="0px"
	 width="85px" height="85px" viewBox="0 0 85 85" enable-background="new 0 0 85 85" xml:space="preserve">
<g>
	<path fill="#F9DCA4" d="M61.542,3.821c9.369,0,14.74,13.367,14.74,22.281c0,8.912-3.199,29.936-3.199,38.049
		c0,8.111-1.143,17.023-11.312,17.023c-10.168,0-10.969-9.482-10.969-13.482c0-3.998,0.344-19.195-2.17-31.535
		C46.116,23.815,44.403,3.821,61.542,3.821z"/>
	<g>
		<path fill="#F4C063" d="M75.767,34.853c-0.453,5.033-1.127,10.871-1.688,16.199l-12.83-8.432l-5.846-3.84l-6.76-4.441
			l-0.416-0.271c-1-5.521-1.682-12.131-0.693-17.762l7.992,5.248l4.635,3.045l12.604,8.283L75.767,34.853z"/>
		<path fill="#F4C063" d="M61.249,42.62l-4.891,4.135l-5.861,4.959c-0.291-5.027-0.842-10.529-1.865-15.559
			c-0.137-0.674-0.271-1.375-0.402-2.09l0.416,0.271l6.76,4.441L61.249,42.62z"/>
		<path fill="#F4C063" d="M76.282,26.101c0,2.27-0.209,5.324-0.518,8.752l-3-1.973l-12.605-8.283l13.199-11.16
			C75.271,17.526,76.282,22.233,76.282,26.101z"/>
	</g>
	<path fill="#D5A03C" d="M56.36,46.757l-5.863,4.957c-0.291-5.027-0.84-10.527-1.865-15.557c-0.137-0.676-0.271-1.375-0.402-2.09
		c-1-5.521-1.684-12.133-0.693-17.764l7.99,5.25c-0.328,3.797-0.652,10.102-0.121,17.227C55.597,41.358,55.901,44.044,56.36,46.757z
		"/>
	<path fill="#EC589B" d="M77.603,24.948c-3.971-2.514-11.32,5.781-11.32,5.781h-8.793c0,0-7.35-8.295-11.318-5.781
		c-3.971,2.516,0,8.734,0,8.734s-3.971,6.219,0,8.732c3.969,2.514,11.318-5.781,11.318-5.781h8.793c0,0,7.352,8.295,11.32,5.781
		c3.971-2.514,0-8.732,0-8.732S81.571,27.464,77.603,24.948z"/>
	<path fill="#F9DCA4" d="M23.458,3.821c-9.37,0-14.74,13.367-14.74,22.281c0,8.912,3.199,29.936,3.199,38.049
		c0,8.111,1.143,17.023,11.312,17.023c10.168,0,10.969-9.482,10.969-13.482c0-3.998-0.344-19.195,2.171-31.535
		S40.597,3.821,23.458,3.821z"/>
	<g>
		<path fill="#F4C063" d="M36.771,34.067l-0.416,0.271L23.751,42.62l-5.637,3.703l-7.193,4.729
			c-0.559-5.328-1.234-11.166-1.688-16.199l3-1.971l4.391-2.887l8.216-5.396l12.625-8.295
			C38.454,21.935,37.772,28.546,36.771,34.067z"/>
		<path fill="#F4C063" d="M23.751,42.62l10.751,9.094c0.291-5.025,0.841-10.527,1.866-15.557c0.137-0.676,0.271-1.375,0.402-2.092
			l-0.416,0.273L23.751,42.62z"/>
		<path fill="#F4C063" d="M24.84,24.599l-8.216,5.396l-4.391,2.885l-3,1.973c-0.308-3.428-0.516-6.482-0.516-8.752
			c0-3.869,1.012-8.574,2.922-12.664l6.426,5.43L24.84,24.599z"/>
	</g>
	<path fill="#D5A03C" d="M18.114,46.323l-7.193,4.729c-0.559-5.328-1.234-11.166-1.688-16.199c-0.308-3.428-0.516-6.482-0.516-8.75
		c0-3.869,1.012-8.576,2.922-12.664l6.426,5.43c-0.711,2.852-1.318,6.562-1.44,11.127C16.501,34.579,16.868,40.022,18.114,46.323z"
		/>
	<path fill="#EC589B" d="M7.397,24.948c3.971-2.514,11.32,5.781,11.32,5.781h8.793c0,0,7.35-8.295,11.32-5.781
		c3.971,2.516,0,8.734,0,8.734s3.971,6.219,0,8.732s-11.32-5.781-11.32-5.781h-8.793c0,0-7.35,8.295-11.32,5.781
		c-3.969-2.514,0-8.732,0-8.732S3.429,27.464,7.397,24.948z"/>
	<path d="M80.548,26.991c-0.297-1.326-1.07-2.42-2.238-3.158c-0.271-0.172-0.555-0.309-0.85-0.416
		c-0.357-3.561-1.373-7.268-2.902-10.539C71.431,6.185,66.81,2.499,61.542,2.499c-8.459,0-13.752,4.693-15.311,13.576
		c-0.395,2.244-0.555,4.795-0.482,7.592c-0.096,0.053-0.191,0.105-0.287,0.166c-1.17,0.74-1.943,1.834-2.238,3.16
		c-0.568,2.549,0.705,5.375,1.416,6.689c-0.711,1.314-1.984,4.141-1.416,6.689c0.295,1.328,1.068,2.422,2.238,3.16
		c0.744,0.473,1.555,0.674,2.393,0.674c0.225,0,0.451-0.02,0.68-0.047c0.271,2.383,0.488,4.939,0.645,7.633
		c0.051,0.844,0.094,1.715,0.131,2.59c0.031,0.711,0.617,1.266,1.32,1.266c0.02,0,0.037,0,0.059-0.002
		c0.729-0.031,1.295-0.648,1.264-1.377c-0.027-0.662-0.061-1.322-0.096-1.971l1.561-1.32c0.408,6.607,0.373,12.441,0.355,15.422
		l-0.002,0.23c-0.002,0.412-0.006,0.768-0.006,1.062c0,3.523,0.73,5.691,1.346,6.891c1.666,3.254,4.602,3.631,6.662,3.631
		c1.844,0,3.354-0.359,4.486-1.068c0.967-0.607,1.723-1.496,2.312-2.723c1.373-2.861,1.549-6.992,1.549-10.271
		c0-1.438,0.092-3.303,0.281-5.705c0.057-0.729-0.486-1.363-1.215-1.422s-1.363,0.486-1.422,1.213
		c-0.193,2.475-0.289,4.406-0.289,5.914c0,3-0.146,6.748-1.289,9.127c-0.365,0.762-0.803,1.293-1.334,1.627
		c-0.705,0.441-1.74,0.666-3.082,0.666c-2.799,0-3.725-1.055-4.309-2.191c-0.48-0.941-1.055-2.689-1.055-5.686
		c0-0.291,0.002-0.641,0.006-1.045l0.002-0.232c0.02-3.303,0.061-10.068-0.492-17.559l5.428-4.59l7.301,4.797
		c-0.182,1.689-0.393,3.709-0.572,5.609c-0.068,0.727,0.465,1.373,1.189,1.441c0.043,0.004,0.086,0.006,0.127,0.006
		c0.674,0,1.25-0.514,1.314-1.195c0.135-1.404,0.283-2.875,0.426-4.229l1.547,1.016c-0.488,4.717-0.92,9.402-0.92,12.438
		c0,3.453-0.195,7.822-1.713,10.982c-1.547,3.221-4.178,4.721-8.277,4.721c-3.906,0-6.561-1.479-8.121-4.521
		c-1.014-1.977-1.525-4.547-1.525-7.639c0-0.352,0.004-0.787,0.006-1.301c0.012-1.848,0.027-4.639-0.047-7.99
		c-0.016-0.721-0.604-1.293-1.32-1.293c-0.01,0-0.021,0-0.029,0c-0.73,0.018-1.309,0.621-1.293,1.352
		c0.074,3.314,0.057,6.084,0.045,7.916c-0.002,0.52-0.006,0.961-0.006,1.314c0,3.518,0.611,6.492,1.816,8.846
		c1.998,3.898,5.619,5.963,10.477,5.963c5.092,0,8.678-2.096,10.66-6.223c1.748-3.641,1.973-8.395,1.973-12.127
		c0-3.094,0.5-8.289,0.988-12.963c0.162-1.537,0.332-3.117,0.504-4.707c0.082-0.76,0.164-1.521,0.246-2.281
		c0.756-0.033,1.488-0.236,2.164-0.666c1.17-0.74,1.943-1.834,2.238-3.16c0.566-2.549-0.705-5.375-1.416-6.689
		C79.843,32.366,81.114,29.542,80.548,26.991z M61.542,5.142c2.322,0,6.65,1.062,10.178,7.953l-1.295,1.094
		c-2.32-4.73-5.5-7.404-8.883-7.404c-2.02,0-3.791,0.332-5.266,0.99c-0.666,0.297-0.967,1.078-0.67,1.746
		c0.299,0.666,1.08,0.965,1.746,0.668c1.133-0.504,2.543-0.76,4.188-0.76c2.424,0,4.926,2.42,6.795,6.525l-8.273,6.998l-7.154-4.699
		c0.271-2.08,0.766-3.809,1.473-5.146c0.342-0.645,0.094-1.445-0.553-1.787c-0.645-0.34-1.443-0.094-1.785,0.551
		c-0.699,1.326-1.223,2.932-1.561,4.787l-1.48-0.973C50.499,8.595,54.608,5.142,61.542,5.142z M72.993,48.757L57.485,38.565
		c0.23-0.23,0.426-0.438,0.586-0.609h7.627c1.205,1.289,4.492,4.562,7.836,5.781c-0.088,0.82-0.176,1.641-0.264,2.459
		C73.179,47.054,73.085,47.909,72.993,48.757z M58.812,35.313v-3.262h6.148v3.262H58.812z M58.071,29.407
		c-1.43-1.527-5.785-5.85-9.688-6.223c-0.027-1.648,0.029-3.195,0.178-4.627l16.512,10.85H58.071z M46.876,41.3
		c-0.408-0.258-1.646-1.043-0.932-3.807c0.26-1,0.689-1.916,0.992-2.488h3.688c0.73,0,1.322-0.594,1.322-1.322
		c0-0.73-0.592-1.322-1.322-1.322h-3.688c-0.303-0.574-0.732-1.49-0.992-2.49c-0.717-2.762,0.523-3.547,0.932-3.805
		c2.166-1.373,6.975,2.688,9.291,5.176v4.881C53.851,38.614,49.048,42.675,46.876,41.3z M51.644,49.015
		c-0.148-1.967-0.328-3.855-0.539-5.639c1.592-0.742,3.131-1.875,4.393-2.955l3.549,2.332L51.644,49.015z M76.896,41.3
		c-2.166,1.371-6.973-2.688-9.291-5.178v-4.875c0.541-0.572,1.693-1.742,3.084-2.857c0.57-0.457,0.66-1.289,0.203-1.859
		c-0.457-0.568-1.289-0.66-1.857-0.203c-0.604,0.486-1.164,0.977-1.656,1.432l-5.012-3.293l10.482-8.863
		c0.959,2.438,1.637,5.111,1.938,7.658c-0.736,0.141-1.52,0.414-2.348,0.824c-0.654,0.324-0.922,1.117-0.598,1.771
		s1.117,0.92,1.771,0.596c1.449-0.717,2.553-0.848,3.281-0.387c0.408,0.258,1.648,1.043,0.932,3.807
		c-0.26,1-0.689,1.916-0.992,2.488h-3.688c-0.729,0-1.322,0.592-1.322,1.322s0.594,1.322,1.322,1.322h3.688
		c0.303,0.574,0.732,1.488,0.992,2.488C78.542,40.257,77.302,41.042,76.896,41.3z"/>
	<path d="M41.776,26.991c-0.295-1.326-1.068-2.42-2.238-3.158c-0.094-0.061-0.191-0.115-0.289-0.166
		c0.074-2.797-0.086-5.35-0.48-7.592C37.21,7.192,31.916,2.499,23.458,2.499c-5.266,0-9.889,3.686-13.016,10.379
		c-1.528,3.271-2.545,6.979-2.902,10.539c-0.295,0.107-0.579,0.244-0.85,0.416c-1.168,0.738-1.941,1.832-2.237,3.158
		c-0.567,2.551,0.704,5.375,1.417,6.691c-0.711,1.312-1.984,4.141-1.417,6.689c0.295,1.326,1.069,2.42,2.237,3.16
		c0.679,0.43,1.408,0.633,2.166,0.666c0.082,0.768,0.166,1.535,0.248,2.301c0.17,1.584,0.34,3.156,0.502,4.688
		c0.487,4.674,0.987,9.869,0.987,12.963c0,3.732,0.224,8.486,1.974,12.127c1.981,4.127,5.567,6.223,10.66,6.223
		c4.854,0,8.478-2.062,10.476-5.963c1.204-2.352,1.815-5.326,1.815-8.844c0-0.354-0.002-0.797-0.006-1.314
		c-0.011-1.832-0.027-4.602,0.047-7.916c0.016-0.73-0.562-1.336-1.293-1.352c-0.734-0.02-1.334,0.562-1.351,1.291
		c-0.074,3.355-0.058,6.145-0.046,7.992c0.003,0.512,0.006,0.949,0.006,1.299c0,3.094-0.514,5.662-1.525,7.639
		c-1.559,3.045-4.216,4.523-8.121,4.523c-4.102,0-6.731-1.502-8.277-4.721c-1.518-3.162-1.713-7.531-1.713-10.984
		c0-3.033-0.432-7.721-0.92-12.436l1.547-1.018c0.142,1.354,0.291,2.824,0.426,4.229c0.064,0.684,0.641,1.195,1.314,1.195
		c0.041,0,0.084-0.002,0.127-0.006c0.727-0.068,1.26-0.715,1.189-1.439c-0.182-1.902-0.393-3.922-0.572-5.611l7.301-4.797
		l5.428,4.59c-0.553,7.492-0.512,14.258-0.493,17.561l0.001,0.23c0.003,0.404,0.005,0.756,0.005,1.045
		c0,2.996-0.573,4.746-1.054,5.686c-0.583,1.139-1.51,2.191-4.309,2.191c-1.34,0-2.377-0.225-3.082-0.664
		c-0.531-0.334-0.969-0.867-1.334-1.627c-1.143-2.381-1.289-6.129-1.289-9.129c0-1.508-0.094-3.439-0.289-5.912
		c-0.059-0.729-0.696-1.271-1.422-1.213c-0.728,0.057-1.271,0.693-1.213,1.42c0.188,2.402,0.28,4.27,0.28,5.705
		c0,3.279,0.177,7.41,1.55,10.275c0.588,1.223,1.346,2.111,2.312,2.719c1.132,0.711,2.641,1.07,4.486,1.07
		c2.062,0,4.994-0.377,6.66-3.633c0.614-1.197,1.346-3.365,1.346-6.889c0-0.295-0.002-0.65-0.006-1.062v-0.23
		c-0.019-2.98-0.054-8.812,0.354-15.422l1.562,1.32c-0.035,0.646-0.067,1.309-0.097,1.969c-0.03,0.729,0.535,1.348,1.265,1.379
		c0.02,0,0.039,0,0.058,0c0.704,0,1.289-0.555,1.319-1.264c0.039-0.875,0.082-1.748,0.131-2.592c0.156-2.691,0.373-5.25,0.646-7.631
		c0.228,0.027,0.455,0.045,0.679,0.045c0.838,0,1.646-0.199,2.393-0.674c1.168-0.74,1.943-1.832,2.238-3.158
		c0.568-2.551-0.705-5.377-1.416-6.689C41.071,32.366,42.345,29.542,41.776,26.991z M12.006,48.757
		c-0.09-0.842-0.183-1.689-0.274-2.541c-0.088-0.824-0.178-1.65-0.267-2.479c3.345-1.219,6.632-4.492,7.836-5.781h7.628
		c0.16,0.172,0.356,0.377,0.584,0.609L12.006,48.757z M20.04,35.313v-3.262h6.15v3.262H20.04z M26.929,29.407h-7.003l16.513-10.85
		c0.146,1.432,0.207,2.979,0.178,4.627C32.715,23.558,28.358,27.88,26.929,29.407z M23.458,5.142
		c6.936,0,11.043,3.453,12.541,10.543l-1.479,0.971c-0.34-1.855-0.861-3.461-1.562-4.785c-0.341-0.646-1.142-0.893-1.786-0.551
		c-0.646,0.34-0.893,1.141-0.551,1.785c0.707,1.338,1.199,3.066,1.472,5.146L24.94,22.95l-8.275-6.998
		c1.869-4.105,4.371-6.527,6.794-6.527c1.646,0,3.056,0.256,4.188,0.762c0.668,0.297,1.449-0.002,1.746-0.67
		c0.297-0.666-0.002-1.447-0.668-1.746c-1.475-0.656-3.246-0.99-5.266-0.99c-3.383,0-6.562,2.674-8.883,7.404l-1.293-1.094
		C16.808,6.204,21.135,5.142,23.458,5.142z M7.175,37.493c0.26-1,0.689-1.916,0.992-2.488h3.688c0.73,0,1.322-0.594,1.322-1.322
		c0-0.73-0.592-1.322-1.322-1.322H8.161c-0.62-1.168-1.471-3.246-1.127-4.795c0.146-0.652,0.486-1.129,1.072-1.5
		c0.729-0.461,1.832-0.332,3.281,0.387c0.654,0.324,1.447,0.059,1.771-0.596s0.057-1.447-0.598-1.771
		c-0.828-0.41-1.611-0.684-2.348-0.824c0.299-2.547,0.977-5.219,1.938-7.658l10.482,8.863l-5.011,3.293
		c-0.493-0.457-1.052-0.947-1.657-1.432c-0.57-0.457-1.402-0.365-1.857,0.203c-0.457,0.57-0.366,1.402,0.203,1.859
		c1.392,1.115,2.545,2.285,3.084,2.857v4.877c-2.314,2.49-7.117,6.551-9.291,5.174C7.698,41.042,6.458,40.257,7.175,37.493z
		 M33.356,49.015l-7.401-6.262l3.548-2.332c1.262,1.082,2.8,2.213,4.393,2.957C33.685,45.161,33.504,47.048,33.356,49.015z
		 M39.196,39.798c-0.146,0.652-0.486,1.131-1.072,1.502c-2.167,1.371-6.973-2.688-9.291-5.176v-4.883
		c2.318-2.488,7.124-6.547,9.291-5.176c0.408,0.258,1.646,1.043,0.932,3.807c-0.26,1-0.689,1.916-0.992,2.488h-3.688
		c-0.729,0-1.321,0.592-1.321,1.322s0.592,1.322,1.321,1.322h3.694C38.688,36.173,39.54,38.251,39.196,39.798z"/>
</g>
</svg>
