<?xml version="1.0" encoding="utf-8"?>
<!-- Generator: Adobe Illustrator 16.0.2, SVG Export Plug-In . SVG Version: 6.00 Build 0)  -->
<!DOCTYPE svg PUBLIC "-//W3C//DTD SVG 1.1//EN" "http://www.w3.org/Graphics/SVG/1.1/DTD/svg11.dtd">
<svg version="1.1" id="Layer_1" xmlns="http://www.w3.org/2000/svg" xmlns:xlink="http://www.w3.org/1999/xlink" x="0px" y="0px"
	 width="85px" height="85px" viewBox="0 0 85 85" enable-background="new 0 0 85 85" xml:space="preserve">
<g>
	<path d="M28.045,82.501c-0.439-0.332-0.854-0.691-0.758-1.32c0.102-0.662,0.602-0.916,1.176-1.102
		c0.988-0.316,1.961-0.676,2.955-0.977c0.377-0.113,0.545-0.252,0.543-0.684c-0.014-6.793-0.01-13.588-0.01-20.486
		c-0.988,0.406-1.924,0.813-2.965,0.869c-1.283,0.068-1.738-0.295-1.717-1.572c0.043-2.889-0.139-5.779,0.104-8.664
		c0.152-1.801,0.789-3.432,1.844-4.893c0.289-0.398,0.402-0.803,0.398-1.295c-0.02-2.68-0.021-5.362,0.004-8.043
		c0.006-0.486-0.121-0.604-0.6-0.598c-1.953,0.029-3.906,0.03-5.857,0c-0.486-0.008-0.621,0.118-0.598,0.602
		c0.041,0.908,0.023,1.822,0.008,2.732c-0.02,0.908-0.445,1.342-1.344,1.361c-0.756,0.018-1.512,0.027-2.266-0.006
		c-1.918-0.084-3.4-1.607-3.416-3.479c-0.014-1.899,1.488-3.443,3.441-3.537c1.242-0.06,1.242-0.06,1.242-1.34
		c0-1.009,0-1.009-1.023-1.009c-0.781,0-1.563,0.015-2.344-0.005c-0.795-0.021-1.305-0.486-1.313-1.154
		c-0.008-0.67,0.502-1.14,1.289-1.183c0.129-0.007,0.264-0.021,0.391,0.001c0.559,0.102,0.672-0.137,0.67-0.674
		c-0.02-6.456,0-12.912-0.027-19.368c-0.004-0.825,0.227-1.445,0.838-1.988c0.793-0.702,1.537-1.459,2.301-2.192
		c0.262,0,0.521,0,0.781,0c0.965,0.789,1.787,1.726,2.68,2.586c0.418,0.402,0.449,0.904,0.449,1.438
		c-0.006,6.455,0.006,12.91-0.02,19.364c-0.002,0.655,0.109,0.95,0.826,0.842c0.506-0.075,0.99,0.042,1.311,0.511
		c0.541,0.791,0.012,1.771-1.014,1.813c-0.986,0.04-1.979,0.023-2.965,0.003c-0.355-0.007-0.48,0.067-0.498,0.461
		c-0.076,1.89-0.092,1.89,1.795,1.89c1.588,0,3.176-0.01,4.764,0.008c0.424,0.004,0.662-0.069,0.865-0.529
		c0.727-1.643,2.043-2.551,3.844-2.586c2.627-0.051,5.256-0.049,7.885-0.004c2.496,0.041,4.271,1.881,4.291,4.414
		c0.025,3.228,0.014,6.455,0,9.684c-0.002,0.457,0.074,0.85,0.355,1.229c1.416,1.906,1.982,4.088,1.992,6.432
		c0.01,2.422,0.006,4.844,0,7.264c-0.002,1.17-0.467,1.557-1.648,1.49c-1.053-0.059-2.016-0.404-3.037-0.904
		c0,0.318,0,0.543,0,0.766c0,6.506,0.008,13.014-0.012,19.521c-0.002,0.549,0.123,0.828,0.689,0.979
		c0.951,0.252,1.873,0.615,2.813,0.914c0.574,0.184,1.074,0.438,1.176,1.1c0.096,0.631-0.316,0.988-0.76,1.32
		c-0.26,0-0.521,0-0.781,0c-1.416-0.232-2.752-0.742-4.102-1.199c-1.328-0.447-1.6-0.82-1.602-2.221
		c-0.006-6.346-0.002-12.691-0.002-19.039c0-0.209,0-0.416,0-0.625c-0.006-1.039-0.004-1.031-0.977-0.727
		c-1.561,0.49-3.123,0.48-4.68-0.023c-0.875-0.285-0.898-0.275-0.898,0.672c-0.004,2.939-0.002,5.879-0.002,8.818
		c0,3.615,0.004,7.23-0.002,10.846c-0.002,1.5-0.252,1.846-1.674,2.324c-1.328,0.447-2.641,0.945-4.029,1.174
		C28.566,82.501,28.307,82.501,28.045,82.501z"/>
	<path d="M38.67,2.501c1.477,0.404,2.791,1.045,3.771,2.291c1.105,1.41,1.926,4.351,0.268,5.957
		c-0.389,0.377,0.092,0.484,0.258,0.625c2.088,1.757,3.107,3.998,3.031,6.716c-0.09,3.266-2.391,6.309-5.549,7.397
		c-3.178,1.094-6.68,0.129-8.83-2.438c-3.039-3.624-2.588-8.653,1.035-11.677c0.166-0.139,0.648-0.246,0.258-0.623
		c-1.658-1.606-0.838-4.547,0.27-5.957c0.979-1.248,2.295-1.889,3.77-2.293C37.525,2.501,38.098,2.501,38.67,2.501z"/>
	<path d="M58.904,23.595c2.992,0,5.986-0.003,8.979,0.001c1.158,0.001,1.564,0.397,1.566,1.535c0.004,4.086,0.006,8.173,0,12.26
		c-0.008,6.796-4.406,11.015-10.123,12.692c-0.74,0.219-1.381-0.15-2.021-0.395c-3.986-1.514-6.984-4.041-8.344-8.225
		c-0.438-1.35-0.596-2.742-0.6-4.148c-0.012-4.035-0.006-8.07-0.004-12.105c0.002-1.24,0.383-1.614,1.645-1.615
		C52.969,23.593,55.938,23.595,58.904,23.595z"/>
	<path fill="#FED8D3" d="M42.568,54.036c-0.652,0.012-0.998,0.486-1.383,0.91c-1.82,2.012-4.842,2.049-6.686,0.084
		c-1.393-1.482-1.385-1.477-2.748,0.004c-0.566,0.615-1.236,1.08-2.156,1.258c0.082-2.578-0.125-5.096,0.121-7.607
		c0.137-1.4,0.625-2.684,1.506-3.777c0.557-0.689,0.756-1.414,0.744-2.293c-0.039-3.223-0.018-6.447-0.016-9.672
		c0.002-1.527,0.771-2.313,2.279-2.313c1.74,0,3.482,0.014,5.225,0.021c0.439,0.166,0.615,0.536,0.732,0.948
		c0.193,0.679,0.283,1.371,0.281,2.08c-0.006,2.913,0.01,5.825-0.01,8.739c-0.006,0.732,0.188,1.342,0.59,1.963
		c0.93,1.432,1.541,2.975,1.637,4.73c0.072,1.324,0.127,2.645,0.121,3.971C42.809,53.417,42.836,53.767,42.568,54.036z"/>
	<path fill="#FEB3A8" d="M42.568,54.036c0.006-2.1,0.104-4.209-0.305-6.283c-0.258-1.305-0.795-2.518-1.645-3.566
		c-0.309-0.381-0.404-0.805-0.402-1.297c0.02-3.201,0.023-6.402,0-9.604c-0.006-0.936-0.135-1.865-0.762-2.637
		c0.676-0.008,1.352-0.027,2.029-0.021c1.369,0.01,2.18,0.812,2.184,2.176c0.008,3.383,0.016,6.765-0.008,10.147
		c-0.006,0.664,0.164,1.211,0.576,1.721c1.266,1.563,1.77,3.383,1.775,5.363c0.008,1.898-0.018,3.799,0.014,5.697
		c0.01,0.574-0.17,0.598-0.617,0.391c-0.672-0.309-1.262-0.717-1.723-1.299C43.389,54.45,43.068,54.118,42.568,54.036z"/>
	<path fill="#7DD8FE" d="M20.254,23.136c-0.006-5.408-0.01-10.814-0.023-16.223c-0.002-0.83,0.826-0.994,1.102-1.551
		c0.973,0.596,1.289,1.377,1.273,2.487c-0.072,5.095-0.043,10.19-0.051,15.286C21.789,23.483,21.021,23.483,20.254,23.136z"/>
	<path fill="#2DACE2" d="M20.254,23.136c0.768,0,1.535,0,2.301,0c0.008,1.035,0.002,2.07,0.029,3.105
		c0.008,0.369-0.107,0.471-0.479,0.488c-1.873,0.09-1.873,0.102-1.871-1.73C20.234,24.378,20.248,23.757,20.254,23.136z"/>
	<path fill="#FDFDFD" d="M20.264,34.974c-0.182,0.424,0.389,1.215-0.707,1.139c-1.088-0.076-1.674-0.433-1.658-1.209
		c0.014-0.754,0.578-1.093,1.621-1.168C20.734,33.647,20.029,34.552,20.264,34.974z"/>
	<path fill="#FEA654" d="M39.316,23.325c-2.117,0.646-3.973,0.086-5.523-1.379c-1.639-1.547-2.164-3.496-1.629-5.699
		c0.18-0.738,0.531-1.398,0.975-2.019c0.24-0.335,0.402-0.377,0.699-0.056c1.73,1.869,3.84,3.15,6.234,3.984
		c0.191,0.233,0.242,0.51,0.227,0.797C40.219,20.468,40.158,21.983,39.316,23.325z"/>
	<path fill="#60312C" d="M37.863,9.532c-0.729,0-1.457,0.01-2.186-0.002c-0.961-0.019-1.443-0.547-1.373-1.479
		c0.131-1.72,1.709-3.183,3.453-3.203c1.785-0.021,3.402,1.422,3.557,3.177c0.084,0.938-0.395,1.483-1.346,1.504
		C39.268,9.544,38.566,9.532,37.863,9.532z"/>
	<path fill="#E08E4E" d="M39.316,23.325c0.455-1.692,0.885-3.39,0.756-5.168c0.975,0.268,1.945,0.551,2.963,0.617
		c0.316,0.02,0.518,0.066,0.414,0.516C43.018,21.149,41.16,22.993,39.316,23.325z"/>
	<path fill="#40211D" d="M39.297,12.187c1.688,0.25,2.744,1.354,3.598,2.701c0.271,0.428,0.744,1.023,0.477,1.396
		c-0.295,0.412-0.967,0.033-1.457-0.076c-0.629-0.141-1.262-0.301-1.844-0.596c-0.199-0.18-0.322-0.396-0.344-0.666
		c-0.057-0.697-0.273-1.356-0.441-2.029C39.225,12.676,39.102,12.427,39.297,12.187z"/>
	<path fill="#5F312C" d="M39.297,12.187c0.359,1.119,0.596,2.266,0.771,3.426c-1.539-0.477-3.658-1.951-4.592-3.218
		C36.744,11.96,37.988,11.575,39.297,12.187z"/>
	<path fill="#7F7F7F" d="M58.9,25.938c2.521,0,5.047,0.014,7.57-0.012c0.518-0.005,0.65,0.15,0.648,0.656
		c-0.021,3.721,0.02,7.443-0.025,11.162c-0.066,5.238-3.5,8.465-7.842,9.92c-0.328,0.109-0.613,0.035-0.904-0.07
		c-4.678-1.682-7.752-5.111-7.656-10.539c0.061-3.434,0.025-6.87-0.004-10.305c-0.006-0.625,0.119-0.842,0.797-0.83
		C53.953,25.965,56.426,25.938,58.9,25.938z"/>
	<path d="M58.885,28.282c1.459,0,2.916-0.006,4.375,0.002c1.092,0.006,1.5,0.418,1.502,1.521c0.008,2.553,0.016,5.104-0.002,7.656
		c-0.021,3.568-1.969,6.348-5.305,7.619c-0.383,0.146-0.752,0.141-1.135-0.018c-3.449-1.398-5.266-4.072-5.273-7.797
		c-0.006-2.475-0.006-4.947,0-7.421c0.002-1.153,0.402-1.558,1.541-1.563C56.021,28.276,57.453,28.282,58.885,28.282z"/>
	<path fill="#7CD8FE" d="M60.076,42.011c0-3.725,0.004-7.357-0.004-10.992c-0.002-0.305,0.1-0.432,0.4-0.395
		c0.051,0.007,0.104,0.002,0.156,0c1.791-0.049,1.791-0.049,1.791,1.729c0,1.689,0.004,3.379-0.002,5.068
		C62.41,39.292,61.828,40.886,60.076,42.011z"/>
	<path fill="#FEFEFE" d="M57.734,42.044c-1.605-1.125-2.311-2.594-2.332-4.389c-0.025-2.188-0.002-4.375-0.021-6.561
		c-0.004-0.376,0.107-0.467,0.479-0.48c1.875-0.066,1.875-0.08,1.875,1.811C57.734,35.595,57.734,38.767,57.734,42.044z"/>
</g>
</svg>
