<?xml version="1.0" encoding="utf-8"?>
<!-- Generator: Adobe Illustrator 16.0.0, SVG Export Plug-In . SVG Version: 6.00 Build 0)  -->
<!DOCTYPE svg PUBLIC "-//W3C//DTD SVG 1.1//EN" "http://www.w3.org/Graphics/SVG/1.1/DTD/svg11.dtd">
<svg version="1.1" id="Layer_1" xmlns="http://www.w3.org/2000/svg" xmlns:xlink="http://www.w3.org/1999/xlink" x="0px" y="0px"
	 width="85px" height="85px" viewBox="0 0 85 85" enable-background="new 0 0 85 85" xml:space="preserve">
<g>
	<path fill-rule="evenodd" clip-rule="evenodd" fill="#F9E5FE" d="M14.944,65.993c-0.59-0.188-1.218-0.188-1.808-0.406
		c-1.273-0.469-2.413-1.157-3.43-2.038c-1.957-1.696-3.536-3.723-4.946-5.877c-0.65-0.992-1.13-2.075-1.134-3.317
		c-0.003-1.218,0.475-2.231,1.202-3.16c0.895-1.144,1.978-2.132,2.764-3.366c0.905-1.421,1.453-2.954,1.66-4.634
		c0.24-1.949-0.241-3.751-0.979-5.51c-0.709-1.69-1.633-3.279-2.405-4.94c-0.729-1.568-1.265-3.187-1.44-4.935
		c-0.224-2.246,0.504-4.095,1.992-5.732c0.928-1.023,2.007-1.976,2.462-3.318c0.376-1.109,0.755-2.223,1.065-3.356
		c0.291-1.063,0.624-2.111,1.16-3.083c0.292-0.529,0.666-0.983,1.181-1.302c0.944-0.583,1.701-1.391,2.519-2.12
		c0.966-0.862,2.075-1.292,3.346-1.397c1.101-0.091,2.125-0.361,2.898-1.252c0.735-0.847,1.773-1.013,2.81-1.075
		c0.93-0.056,1.867-0.012,2.8-0.011c2.653-0.055,5.109,0.62,7.403,1.949c0.761,0.441,1.551,0.843,2.377,1.154
		c0.877,0.33,1.779,0.575,2.728,0.521c0.589-0.034,1.17,0.094,1.758,0.044c1.269-0.012,2.449-0.454,3.655-0.763
		c1.635-0.42,3.271-0.82,4.969-0.866c0.49-0.013,0.969,0.167,1.463,0.101c1.365,0.051,2.532,0.667,3.679,1.317
		c1.12,0.636,2.203,1.336,3.357,1.914c0.176,0.088,0.555,0.129,0.332,0.512c-0.772,0.153-1.553,0.051-2.328,0.069
		c-0.854,0.021-0.916,0.066-0.917,0.937c-0.002,2.083-0.003,4.167,0.001,6.251c0.001,0.798,0.073,0.865,0.872,0.875
		c0.136,0.001,0.271-0.002,0.406,0.012c0.581,0.062,0.843,0.376,0.809,0.949c-0.019,0.295-0.201,0.689,0.066,0.855
		c0.256,0.159,0.551-0.162,0.818-0.29c1.055-0.502,2.071-1.084,3.172-1.492c1.048-0.067,2.097-0.024,3.145-0.028
		c2.013-0.008,4.025-0.001,6.037-0.003c0.202,0.007,0.348-0.08,0.431-0.267c0.096-0.229,0.055-0.47,0.056-0.706
		c0.004-1.494,0.002-2.988,0.002-4.481c0-0.136-0.006-0.272,0.005-0.407c0.036-0.478,0.158-0.536,0.563-0.255
		c1.099,0.759,1.915,1.771,2.574,2.915c1.317,2.284,1.628,4.733,0.827,7.221c-0.854,2.648-0.471,5.108,0.651,7.556
		c0.715,1.56,1.582,3.041,2.307,4.594c0.758,1.625,1.398,3.284,1.395,5.113c-0.004,2.001-0.809,3.717-1.922,5.324
		c-0.838,1.209-1.878,2.231-2.924,3.25c-0.147,0.143-0.306,0.271-0.517,0.308c-0.33,0.023-0.395-0.325-0.631-0.481
		c-0.206,0.407-0.166,0.848-0.305,1.242c-0.365,0.395-0.824,0.662-1.273,0.942c-0.136,0.084-0.312,0.187-0.382-0.089
		c0.108-0.484,0.421-0.882,0.571-1.351c0.363-1.124,0.647-2.252,0.376-3.443c-0.03-0.133-0.061-0.265-0.107-0.392
		c-0.411-1.121-1.338-1.32-2.154-0.446c-0.528,0.565-0.861,1.256-1.152,1.966c-0.374,0.908-0.646,1.859-1.14,2.719
		c-0.152,0.265-0.289,0.541-0.542,0.729c-0.123,0.091-0.269,0.182-0.421,0.091c-0.174-0.104-0.103-0.276-0.048-0.411
		c0.164-0.404,0.191-0.824,0.165-1.251c-0.048-0.768-0.559-1.282-1.303-1.152c-1.129,0.196-2.138,0.689-2.788,1.688
		c-0.434,0.666-0.396,1.437-0.242,2.174c0.272,1.32,0.268,2.624-0.069,3.928c-0.046,0.181-0.094,0.361-0.162,0.535
		c-0.177,0.448-0.265,0.468-0.609,0.143c-0.32-0.303-0.72-0.312-1.099-0.005c-0.416,0.339-0.701,0.773-0.897,1.274
		c-0.436,1.105-0.457,2.249-0.348,3.408c0.068,0.727,0.133,1.453-0.057,2.172c-0.043,0.162-0.094,0.328-0.243,0.436
		c-0.256,0.024-0.507,0.075-0.752,0.157c-0.54-0.171-1.143-0.188-1.566-0.645c-0.205-1.008-0.217-2.013-0.012-3.025
		c0.531-2.625,0.868-5.282,1.256-7.93c0.024-0.167,0.025-0.34,0.122-0.488c0.036-0.035,0.072-0.071,0.121-0.089
		c0.724-0.255,0.74-0.258,0.608-1.048c-0.405-2.437-0.585-4.906-1.089-7.328c-0.04-0.231-0.059-0.463,0.025-0.69
		c0.076-0.157,0.219-0.252,0.347-0.359c0.369-0.309,0.536-0.714,0.604-1.182c0.13-0.897,0.216-1.801,0.372-2.693
		c0.022-0.044,0.058-0.078,0.101-0.101c0.08-0.546,0.087-1.091-0.024-1.635c-0.041-0.072-0.072-0.148-0.096-0.227
		c-0.177-0.934-0.281-1.876-0.36-2.822c-0.046-0.542-0.162-1.071-0.354-1.582c-0.056-0.123-0.101-0.251-0.145-0.378
		c-0.469-1.364-1.42-2.138-2.847-2.336c-0.182-0.025-0.374-0.022-0.534-0.137c-0.093-0.083-0.15-0.189-0.158-0.31
		c-0.049-0.861-0.039-1.723-0.006-2.585c0.01-0.276,0.199-0.34,0.444-0.382c0.848-0.143,1.265-0.735,1.147-1.592
		c0.369-0.935,0.279-1.859-0.067-2.778c-0.195-0.517-0.521-0.91-1.049-1.111c-1.852-0.704-3.597-0.422-5.262,0.576
		c-0.146,0.087-0.259,0.218-0.367,0.35c-0.58,0.704-0.498,1.073,0.325,1.454c0.077,0.036,0.151,0.075,0.208,0.143
		c0.169,0.391,0.08,0.802,0.09,1.204c0.023,0.886,0.144,1.758,0.43,2.595c0.177,0.517,0.417,1.019,1.076,1.073
		c0.327,0.072,0.644,0.156,0.629,0.591c0.004,0.116-0.011,0.231-0.035,0.344c-0.115,0.341,0.018,0.747-0.268,1.044
		c-0.35,0.193-0.73,0.086-1.098,0.114c-0.95,0.071-1.789,0.364-2.393,1.152c-0.083,0.108-0.188,0.196-0.314,0.252
		c-1.367,0.265-2.723,0.463-4.128,0.159c-2.485-0.54-4.982-1.029-7.493-1.439c-0.151-0.024-0.303-0.039-0.456-0.024
		c-0.137,0.009-0.234-0.066-0.256-0.187c-0.029-0.158-0.088-0.237-0.256-0.196c-0.144-0.275-0.032-0.591-0.141-0.872
		c-0.026-0.111-0.04-0.223-0.039-0.337c-0.011-0.417,0.266-0.547,0.608-0.614c0.426-0.027,0.661-0.294,0.831-0.65
		c0.463-0.972,0.501-2.024,0.59-3.067c0.026-0.301-0.044-0.61,0.077-0.903c0.046-0.076,0.117-0.125,0.2-0.146
		c0.728-0.175,0.989-0.705,1.059-1.383c0.278-0.725-0.217-1.182-0.592-1.671c-0.119-0.156-0.331-0.154-0.521-0.156
		c-0.274-0.003-0.543,0.046-0.804,0.117c-0.987,0.269-1.98,0.471-3.011,0.389c-0.175-0.014-0.332,0.061-0.497,0.095
		c-0.613,0.158-1.169,0.436-1.68,0.807c-0.167,0.121-0.345,0.254-0.345,0.476c0.002,0.874-0.15,1.756,0.137,2.614
		c0.04,0.167,0,0.335,0.004,0.503c0.015,0.568,0.463,1.091,1.031,1.219c0.205,0.046,0.451-0.007,0.584,0.228
		c0.115,0.651,0.041,1.307,0.048,1.959c-0.003,0.058-0.014,0.114-0.03,0.169c-0.139,0.268-0.139,0.58-0.263,0.854
		c-0.086,0.094-0.204,0.109-0.321,0.126c-1.577,0.236-2.809,1.166-4.07,2.034c-0.211,0.189-0.335,0.434-0.391,0.7
		c-0.619,2.964-1.361,5.901-1.782,8.907c-0.106,0.76,0.552,1.61,1.314,1.704c0.626,0.078,1.253,0.019,1.879,0.045
		c0.304,0.013,0.596,0.044,0.581,0.461c-0.334,1.742-0.574,3.498-0.7,5.269c-0.012,0.168-0.039,0.336-0.01,0.504
		c0.017,0.088,0.026,0.176,0.028,0.264c0.156,3.092,0.691,6.134,1.181,9.182c0.116,0.721,0.24,1.44,0.388,2.155
		c0.051,0.249,0.103,0.501,0.012,0.752c-0.08,0.153-0.191,0.146-0.263,0.013c-0.586-1.09-1.632-1.762-2.417-2.669
		c-1.193-1.38-1.503-3.479-0.12-5.125c0.329-0.391,0.638-0.789,0.771-1.302c0.261-1.009-0.21-1.823-0.681-2.634
		c-0.257-0.443-0.609-0.812-1.064-1.074c-0.621-0.357-1.299-0.346-1.779,0.174c-0.976,1.057-1.781,0.67-2.312-0.53
		c-0.388-0.877-0.556-1.815-0.713-2.755c-0.466-2.795-1.878-4.985-4.22-6.572c-0.549-0.372-1.148-0.663-1.812-0.785
		c-0.458-0.084-0.915-0.093-1.344,0.126c-0.644,0.329-0.875,1.107-0.631,2.014c0.284,1.057,0.883,1.941,1.511,2.81
		c0.617,0.853,1.301,1.655,1.859,2.551c0.252,0.405,0.482,0.819,0.638,1.271c0.062,0.178,0.092,0.362,0.056,0.551
		c-0.027,0.141-0.088,0.263-0.236,0.304c-0.172,0.047-0.243-0.084-0.31-0.202c-0.284-0.504-0.703-0.869-1.195-1.152
		c-1.129-0.65-2.233-0.195-2.584,1.055c-0.266,0.946-0.316,1.921-0.198,2.879c0.172,1.397,1.129,2.198,2.358,2.697
		c1.072,0.436,2.138,0.876,3.068,1.58c0.746,0.564,1.445,1.181,2.022,1.924c0.114,0.147,0.267,0.29,0.167,0.495
		c-0.085,0.174-0.269,0.101-0.413,0.111c-0.513,0.036-0.729,0.211-0.858,0.705c-0.093,0.356-0.057,0.705,0.056,1.053
		c0.399,1.233,1.259,2.11,2.23,2.905c0.195,0.16,0.511,0.261,0.4,0.624c-0.438,0.34-1.004,0.372-1.481,0.635
		c-0.83,0.457-1.508,1.023-1.779,1.971c-0.044,0.155-0.116,0.307-0.289,0.315c-0.518,0.027-1.028,0.235-1.555,0.08
		c-0.452-0.273-0.314-0.623-0.107-0.962c0.428-0.702,0.768-1.437,0.919-2.251c0.081-0.435,0.085-0.865,0.007-1.38
		c-0.477,0.426-0.684,0.913-0.857,1.422c-0.209,0.616-0.248,1.264-0.352,1.899c-0.023,0.146-0.005,0.346-0.186,0.38
		c-0.167,0.031-0.258-0.139-0.346-0.262c-0.278-0.387-0.51-0.803-0.775-1.196c-0.197-0.294-0.187-0.54-0.003-0.842
		c0.524-0.858,0.975-1.75,1.108-2.769c0.045-0.339,0.047-0.667-0.096-1.064c-0.343,0.374-0.587,0.729-0.73,1.148
		c-0.236,0.694-0.421,1.398-0.4,2.141c0.004,0.136,0.005,0.273-0.03,0.405c-0.062,0.233-0.217,0.294-0.352,0.096
		c-0.467-0.688-0.898-1.4-1.192-2.183c-0.093-0.246,0.093-0.455,0.217-0.654c0.543-0.877,0.947-1.801,1.036-2.844
		c0.022-0.257,0.014-0.504-0.098-0.802c-0.287,0.257-0.477,0.547-0.618,0.867c-0.27,0.608-0.466,1.238-0.495,1.911
		c-0.011,0.255-0.063,0.506-0.127,0.752c-0.062,0.238-0.212,0.283-0.337,0.065c-0.423-0.735-0.806-1.494-1.132-2.277
		c-0.092-0.223,0.047-0.429,0.152-0.624c0.423-0.783,0.718-1.604,0.822-2.499c0.047-0.401-0.015-0.769-0.093-1.176
		c-0.247,0.058-0.301,0.25-0.383,0.401c-0.444,0.812-0.568,1.697-0.559,2.608c0.001,0.118,0.021,0.238-0.008,0.355
		c-0.049,0.198-0.15,0.259-0.322,0.115c-0.053-0.045-0.099-0.098-0.125-0.16c-0.391-0.916-0.954-1.758-1.133-2.767
		c-0.167-0.941-0.436-1.855-1.078-2.605c-0.136-0.158-0.258-0.47-0.478-0.358c-0.188,0.097-0.074,0.405-0.034,0.616
		c0.156,0.815,0.497,1.556,0.999,2.209c0.622,0.809,0.914,1.777,1.365,2.667c0.052,0.104,0.108,0.24,0.006,0.333
		c-0.133,0.121-0.256-0.005-0.36-0.074c-0.366-0.246-0.694-0.544-1.069-0.779c-0.553-0.347-1.151-0.555-1.868-0.689
		c0.122,0.38,0.363,0.562,0.585,0.751c0.722,0.614,1.542,1.062,2.458,1.297c0.592,0.152,0.994,0.46,1.208,1.04
		c0.11,0.302,0.292,0.575,0.423,0.87c0.091,0.207,0.336,0.462,0.13,0.643c-0.179,0.157-0.392-0.113-0.565-0.23
		c-0.724-0.487-1.476-0.907-2.349-1.062c-0.16-0.028-0.322-0.108-0.543,0.017c0.471,0.578,1.078,0.934,1.716,1.235
		c0.537,0.255,1.101,0.45,1.691,0.55c0.42,0.071,0.714,0.294,0.89,0.679c0.219,0.48,0.514,0.919,0.758,1.385
		c0.097,0.186,0.338,0.405,0.139,0.584c-0.182,0.162-0.406-0.068-0.583-0.179c-0.744-0.466-1.546-0.775-2.409-0.926
		c-0.232-0.041-0.467-0.084-0.731,0.001c0.032,0.214,0.212,0.288,0.351,0.389c0.862,0.628,1.854,0.974,2.894,1.014
		c1.098,0.042,1.399,0.857,1.836,1.583c0.052,0.087,0.062,0.202-0.019,0.285c-0.102,0.105-0.223,0.058-0.329,0.004
		c-0.273-0.137-0.538-0.293-0.818-0.414c-0.779-0.338-1.581-0.577-2.507-0.545c0.125,0.317,0.365,0.419,0.572,0.539
		c0.973,0.565,2.034,0.833,3.151,0.915c0.278,0.021,0.676-0.039,0.53,0.478c-0.63,0.242-1.3,0.335-1.945,0.521
		C15.132,66.078,15.028,66.067,14.944,65.993z"/>
	<path fill-rule="evenodd" clip-rule="evenodd" fill="#EBC8F3" d="M76.169,74.756c0.94,0.205,1.887,0.384,2.797,0.709
		c0.335,0.12,0.667,0.253,0.932,0.505c0.336,0.319,0.323,0.54-0.048,0.822c-0.5,0.379-1.102,0.519-1.686,0.676
		c-1.533,0.415-3.104,0.634-4.674,0.866c-1.669,0.247-3.35,0.38-5.023,0.579c-1.056,0.126-2.122,0.153-3.184,0.225
		c-2.006,0.133-4.01,0.272-6.016,0.396c-0.793,0.049-1.591,0.068-2.383,0.084c-1.728,0.033-3.456,0.095-5.182,0.157
		c-2.459,0.088-4.92-0.022-7.373,0.102c-1.646,0.082-3.292,0.116-4.929,0.049c-2.459-0.103-4.918,0-7.374-0.091
		c-2.081-0.078-4.161-0.137-6.242-0.201c-2.027-0.062-4.053-0.178-6.077-0.303c-1.786-0.11-3.572-0.229-5.352-0.408
		c-3.288-0.333-6.585-0.615-9.804-1.42c-0.559-0.14-1.111-0.312-1.614-0.604c-0.563-0.328-0.59-0.736-0.037-1.065
		c0.961-0.573,2.054-0.756,3.129-0.976c0.727-0.147,1.458-0.273,2.187-0.408c1.646,0.346,3.328,0.359,4.993,0.53
		c0.523,0.054,1.052,0.062,1.574,0.065c2.15,0.015,4.298,0.302,6.451,0.088c0.322-0.032,0.644-0.025,0.966-0.026
		c2.733-0.004,5.448-0.273,8.162-0.555c0.337-0.035,0.674-0.069,1.014-0.081c0.216,0.019,0.436,0.023,0.617,0.169
		c0.175,0.308,0.113,0.635,0.079,0.96c-0.109,0.407-0.239,0.812-0.111,1.241c0.012,0.274,0.132,0.443,0.429,0.432
		c0.246-0.01,0.493,0.131,0.738-0.003c0.188-0.167,0.389-0.138,0.603-0.059c0.233,0.087,0.478,0.131,0.723,0.169
		c0.469,0.129,0.939,0.126,1.41,0.007c0.284-0.021,0.548-0.181,0.843-0.127c0.253,0.001,0.5,0.046,0.748,0.091
		c0.231,0.041,0.431-0.022,0.6-0.185c0.211-0.091,0.397,0.023,0.586,0.083c0.791,0.249,1.589,0.305,2.4,0.124
		c0.183-0.041,0.359-0.098,0.517-0.2c0.369-0.238,0.37-0.311,0.011-0.604c-0.034-0.032-0.057-0.071-0.068-0.116
		c0.006,0.07-0.034-0.098,0.011-0.049c0.007,0.009,0.041-0.044,0.038-0.043c-0.186,0.018-0.367,0.068-0.55,0.105
		c-0.176,0.031-0.339-0.021-0.502-0.074c-0.392-0.103-0.676-0.345-0.915-0.666c-0.238-0.32-0.462-0.666-0.871-0.809
		c-0.21-0.165-0.338-0.371-0.325-0.647c0.033-0.264,0.043-0.527,0.054-0.792c0.009-0.215,0.017-0.438,0.255-0.55
		c0.831-0.161,1.651,0.038,2.473,0.09c1.669,0.105,3.338,0.232,5.006,0.357c0.859,0.064,1.721,0.109,2.577,0.217
		c0.153,0.02,0.299,0.059,0.425,0.152c0.142,0.099,0.294,0.188,0.369,0.357c0.066,0.315-0.184,0.404-0.381,0.531
		c-0.235,0.164-0.441,0.361-0.594,0.603c-0.224,0.353-0.528,0.597-0.903,0.767c-0.21,0.1-0.446,0.099-0.664,0.173
		c-0.065,0.016-0.134,0.018-0.199,0.031c-0.185,0.04-0.472-0.084-0.523,0.178c-0.06,0.297,0.246,0.378,0.451,0.458
		c0.835,0.328,1.685,0.283,2.531,0.038c0.34-0.099,0.664-0.231,1.005,0.028c0.133,0.101,0.33,0.041,0.495,0.004
		c0.308-0.07,0.604,0.003,0.902,0.055c0.475,0.133,0.949,0.132,1.424,0.006c0.249-0.032,0.487-0.108,0.726-0.184
		c0.127-0.04,0.28-0.112,0.388-0.035c0.408,0.292,0.839,0.078,1.258,0.086c0.04-0.016,0.08-0.033,0.117-0.055
		c0.152-0.114,0.082-0.257,0.048-0.396c-0.016-0.046-0.025-0.092-0.034-0.139c-0.021-0.308-0.047-0.612-0.152-0.904
		c-0.091-0.344-0.154-0.686,0.032-1.021c0.13-0.102,0.279-0.104,0.434-0.081c3.232,0.516,6.475,0.953,9.732,1.284
		c2.04,0.207,4.082,0.398,6.124,0.584c1.449,0.131,2.749-0.284,3.919-1.133C75.829,74.875,75.953,74.716,76.169,74.756z"/>
	<path fill-rule="evenodd" clip-rule="evenodd" fill="#EC798D" d="M31.437,74.574c-1.092,0.125-2.181,0.271-3.275,0.37
		c-3.056,0.275-6.12,0.419-9.186,0.394c-3.149-0.025-6.297-0.178-9.432-0.507c-0.448-0.048-0.972,0.042-1.327-0.381
		c0.141-1.804,0.826-3.405,1.866-4.857c1.133-1.582,2.647-2.687,4.447-3.41c0.141-0.058,0.276-0.126,0.415-0.189
		c0.743-0.189,1.473-0.433,2.238-0.529c0.182-0.179,0.381-0.235,0.61-0.089c0.473-0.026,0.946-0.055,1.42-0.076
		c0.144-0.007,0.262-0.017,0.304-0.194c0.339-1.439,1.448-2.045,2.707-2.483c0.224-0.077,0.455-0.131,0.684-0.196
		c0.769-0.429,1.552-0.194,2.319-0.019c0.917,0.211,1.748,0.635,2.492,1.212c0.28,0.217,0.486,0.213,0.737-0.056
		c0.571-0.611,1.339-0.751,2.128-0.811c0.14-0.011,0.273,0.011,0.333,0.17c-0.004,0.778-0.016,1.556-0.023,2.334
		c-0.015,1.627,0.189,3.241,0.274,4.862c0.07,1.32,0.198,2.631,0.392,3.938C31.585,74.239,31.603,74.431,31.437,74.574z"/>
	<path fill-rule="evenodd" clip-rule="evenodd" fill="#BC88D3" d="M76.169,74.756c-1.4,1.237-3.004,1.704-4.875,1.453
		c-1.653-0.223-3.331-0.261-4.99-0.449c-2.378-0.271-4.763-0.484-7.127-0.876c-0.997-0.165-2.001-0.293-3.003-0.435
		c-0.102-0.014-0.203-0.016-0.271-0.108c-0.03-0.059-0.034-0.12-0.014-0.183c0.316-1.01,0.39-2.061,0.46-3.104
		c0.162-2.395,0.397-4.787,0.323-7.192c-0.006-0.184-0.002-0.377,0.156-0.517c0.507,0.168,1.015,0.337,1.522,0.505
		c0.187-0.051,0.329,0.049,0.475,0.137c0.236,0.161,0.496,0.295,0.69,0.507c0.233,0.255,0.362,0.174,0.531-0.084
		c0.84-1.28,2.044-1.965,3.56-2.12c1.37-0.239,2.591,0.189,3.765,0.834c0.429,0.348,0.904,0.637,1.29,1.039
		c0.079,0.081,0.155,0.164,0.236,0.244c0.109,0.108,0.197,0.237,0.326,0.326c0.118,0.132,0.278,0.234,0.303,0.432
		c0.347,0.45,0.694,0.901,1.041,1.353c0.257,0.155,0.285,0.582,0.549,0.629c0.283,0.05,0.401-0.363,0.659-0.488
		c0.077-0.038,0.158-0.055,0.241-0.073c1.465-0.797,2.798-0.45,4.07,0.464c1.138,0.817,1.694,1.94,1.597,3.317
		C77.57,71.95,77.176,73.466,76.169,74.756z"/>
	<path fill-rule="evenodd" clip-rule="evenodd" fill="#EBC8F3" d="M73.819,49.294c0.13-0.078,0.279-0.136,0.388-0.237
		c1.619-1.529,3.134-3.142,4.116-5.179c1.037-2.149,1.038-4.336,0.233-6.547c-0.61-1.676-1.468-3.236-2.286-4.816
		c-0.801-1.546-1.516-3.127-1.862-4.864c-0.292-1.462-0.076-2.854,0.335-4.237c0.91-3.068,0.42-5.889-1.476-8.455
		c-0.573-0.777-1.262-1.456-2.107-1.971c-0.146,0.083-0.067,0.235-0.068,0.354c-0.006,1.714-0.002,3.429-0.007,5.143
		c0,0.18,0.06,0.376-0.085,0.536c-0.204-0.181-0.178-0.429-0.178-0.661c-0.007-2.11-0.007-4.221,0-6.332
		c0.001-0.231-0.027-0.481,0.188-0.655c0.255,0.348,0.679,0.252,1.017,0.349c2.271,0.648,3.926,2.075,5.161,4.026
		c0.937,1.479,1.38,3.118,1.329,4.869c-0.03,1.036-0.328,2.031-0.612,3.019c-0.65,2.255-0.271,4.396,0.717,6.453
		c0.853,1.77,1.786,3.5,2.663,5.259c0.654,1.312,1.106,2.696,1.202,4.164c0.096,1.474-0.317,2.848-1.038,4.127
		c-0.733,1.302-1.593,2.511-2.728,3.501c-0.17-0.193-0.101-0.414-0.07-0.629c0.032-0.232,0.099-0.465-0.052-0.784
		c-0.474,0.386-0.893,0.776-1.184,1.289c-0.336,0.593-0.589,1.22-0.75,1.883c-0.042,0.177-0.034,0.377-0.198,0.508
		c-0.515,0.214-0.943,0.571-1.422,0.846c-0.228,0.13-0.429,0.336-0.73,0.273C74.016,50.17,73.802,49.778,73.819,49.294z"/>
	<path fill-rule="evenodd" clip-rule="evenodd" fill="#EC798D" d="M71.01,11.374c-0.003,2.549-0.007,5.099-0.01,7.647
		c-0.081,0.127-0.122,0.3-0.323,0.297c-0.109-0.068-0.23-0.045-0.347-0.045c-2.945-0.001-5.891-0.001-8.835,0
		c-0.095,0-0.205-0.045-0.28,0.06c-1.376,0.681-2.752,1.362-4.17,2.064c-0.048-0.47-0.02-0.854,0.031-1.239
		c0.074-0.564-0.118-0.799-0.673-0.817c-0.102-0.003-0.203-0.001-0.306-0.001c-1.105,0-1.105,0-1.105-1.136
		c0-2.138-0.001-4.275,0.001-6.414c0-0.751,0.074-0.822,0.807-0.825c0.882-0.003,1.764-0.008,2.646-0.013
		c0.164-0.152,0.371-0.146,0.57-0.145c1.002,0.01,2.009-0.08,3,0.144c2.764,0.004,5.527,0.011,8.291,0.01
		C70.634,10.962,70.926,10.978,71.01,11.374z"/>
	<path fill-rule="evenodd" clip-rule="evenodd" fill="#F68DA0" d="M73.819,49.294c0.177,0.404,0.354,0.809,0.53,1.213
		c0.413,0.524,0.353,1.171,0.437,1.774c0.056,0.396,0.036,0.804-0.009,1.203c-0.019,0.07-0.033,0.144-0.064,0.212
		c-0.028,0.062-0.004-0.026-0.021,0.039c-0.009,0.031,0.006,0.03,0.023-0.015c0.229-0.591,0.525-1.146,0.786-1.716
		c0.317-0.696,0.683-1.367,0.714-2.157c0.006-0.16,0.028-0.344,0.185-0.457c0.188-0.697,0.376-1.393,0.693-2.05
		c0.31-0.639,0.756-1.157,1.276-1.622c0.094-0.085,0.185-0.237,0.338-0.153c0.137,0.074,0.124,0.234,0.114,0.367
		c-0.028,0.403-0.066,0.806-0.101,1.208c-0.423,1.271-1.169,2.344-1.93,3.438c-0.653,0.938-1.033,2.066-1.489,3.152
		c1.411-1.204,2.837-2.327,4.894-2.424c-0.355,0.672-0.83,1.119-1.342,1.522c-1.084,0.854-2.335,1.369-3.659,1.708
		c-0.292,0.075-0.473,0.199-0.603,0.469c-0.412,0.85-0.845,1.69-1.24,2.573c1.499-1.092,3.031-2.068,5.094-2.062
		c-0.366,0.549-0.754,0.908-1.184,1.223c-1.188,0.868-2.532,1.357-3.97,1.605c-0.287,0.05-0.489,0.143-0.637,0.421
		c-0.523,0.987-1.074,1.96-1.661,3.021c1.721-1.155,3.449-2.091,5.673-1.862c-0.573,0.705-1.213,1.102-1.907,1.417
		c-1.17,0.533-2.41,0.793-3.688,0.868c-0.266,0.016-0.428,0.096-0.572,0.324c-0.435,0.685-0.896,1.353-1.348,2.026
		c0.061,0.069,0.054,0.138-0.001,0.206c-0.146-0.071-0.248-0.186-0.315-0.332c-0.044-0.287,0.167-0.464,0.298-0.672
		c0.285-0.457,0.592-0.9,0.879-1.356c0.178-0.284,0.162-0.513-0.01-0.789c-0.426-0.687-0.846-1.379-1.113-2.149
		c-0.339-0.96-0.62-1.928-0.395-2.963c0.042-0.194,0.053-0.439,0.282-0.496c0.23-0.057,0.351,0.159,0.475,0.314
		c0.381,0.478,0.679,1.003,0.891,1.577c0.41,1.092,0.517,2.233,0.542,3.374c0.451-0.739,0.85-1.527,1.306-2.281
		c0.208-0.344,0.207-0.63-0.017-0.982c-0.664-1.051-1.236-2.146-1.455-3.393c-0.047-0.269-0.077-0.536-0.083-0.81
		c0-0.269-0.014-0.538,0.039-0.804c0.116-0.582,0.286-0.64,0.743-0.255c1.111,1.431,1.468,3.091,1.475,4.871
		c0.25-0.413,0.462-0.833,0.669-1.256c0.209-0.426,0.41-0.856,0.639-1.271c0.181-0.33,0.177-0.62-0.007-0.955
		c-0.458-0.834-0.824-1.709-1.018-2.647c-0.075-0.463-0.327-0.918-0.064-1.396c0.031-0.503,0.078-1.002,0.318-1.487
		C73.532,48.771,73.586,49.112,73.819,49.294z"/>
	<path fill-rule="evenodd" clip-rule="evenodd" fill="#EBC8F3" d="M62.016,10.953c-1.189,0-2.38,0-3.57,0
		c-0.447-0.433-1.06-0.576-1.574-0.893c-0.919-0.565-1.861-1.093-2.795-1.636c-0.954-0.555-2.012-0.831-3.062-1.124
		c1.745-0.283,3.425-0.041,5.064,0.594c1.271,0.492,2.395,1.254,3.576,1.908C60.423,10.228,61.193,10.642,62.016,10.953z"/>
	<path fill-rule="evenodd" clip-rule="evenodd" fill="#EBC8F3" d="M40.927,8.83c-0.058,0.032-0.113,0.089-0.172,0.092
		c-1.813,0.097-3.576-0.031-5.236-0.898c-1.364-0.712-2.715-1.456-4.161-2.009c-1.044-0.399-2.123-0.52-3.21-0.656
		c-0.495-0.062-1.005-0.019-1.485-0.196c0.034,0,0.068,0,0.102-0.001c0.544-0.083,1.087-0.073,1.631-0.003
		c1.978,0.16,3.982,0.162,5.867,0.901c1.179,0.462,2.332,0.984,3.442,1.603C38.711,8.223,39.794,8.603,40.927,8.83z"/>
	<path fill-rule="evenodd" clip-rule="evenodd" fill="#F68DA1" d="M69.151,64.768c0-0.068,0.001-0.137,0.001-0.206
		c0.36,0.029,0.579-0.251,0.853-0.403c1.306-0.726,2.655-1.29,4.189-1.224c0.179,0.008,0.377-0.04,0.55,0.161
		c-0.666,0.708-1.495,1.141-2.391,1.473c-0.913,0.339-1.873,0.452-2.827,0.596C69.374,65.058,69.241,64.933,69.151,64.768z"/>
	<path fill-rule="evenodd" clip-rule="evenodd" fill="#F58DA2" d="M72.017,66.584c-0.124,0.11-0.252,0.217-0.372,0.33
		c-0.595,0.567-0.595,0.568-0.99-0.165c-0.039-0.071-0.059-0.155-0.087-0.232C71.053,66.493,71.54,66.409,72.017,66.584z"/>
	<path fill-rule="evenodd" clip-rule="evenodd" fill="#F9E5FE" d="M28.395,5.158c-0.544,0.001-1.087,0.002-1.631,0.003
		C27.307,4.995,27.851,5,28.395,5.158z"/>
	<path fill-rule="evenodd" clip-rule="evenodd" fill="#CE8FE8" d="M30.788,62.84c-0.576,0.116-1.188,0.091-1.711,0.415
		c-0.171,0.106-0.378,0.202-0.483,0.36c-0.303,0.456-0.573,0.434-0.984,0.103c-0.985-0.794-2.141-1.203-3.39-1.375
		c-0.448-0.062-0.874,0.09-1.312,0.082c-0.083-0.34-0.42-0.419-0.643-0.612c-0.933-0.811-1.761-1.692-2.13-2.914
		c-0.065-0.214-0.1-0.427-0.096-0.649c0.017-0.929,0.411-1.276,1.521-1.204c-0.465-0.566-0.87-1.061-1.346-1.502
		c-1.188-1.104-2.597-1.811-4.092-2.402c-1.401-0.555-2.498-1.614-2.418-3.557c0.033-0.798,0.059-1.592,0.314-2.354
		c0.365-1.092,1.461-1.544,2.499-1.032c0.619,0.305,1.159,0.703,1.466,1.349c0.036,0.076,0.051,0.18,0.16,0.157
		c0.114-0.022,0.148-0.126,0.161-0.23c0.042-0.339-0.101-0.632-0.24-0.922c-0.578-1.202-1.451-2.202-2.236-3.264
		c-0.677-0.916-1.322-1.85-1.613-2.976c-0.121-0.468-0.169-0.941,0.009-1.397c0.308-0.785,1.141-1.129,2.143-0.889
		c1.548,0.371,2.719,1.319,3.765,2.468c1.571,1.728,2.231,3.828,2.564,6.079c0.114,0.771,0.344,1.521,0.793,2.18
		c0.468,0.688,1.013,0.791,1.537,0.163c0.809-0.967,2.001-0.856,2.812,0.086c0.842,0.979,1.52,2.055,1.17,3.457
		c-0.142,0.567-0.536,0.979-0.888,1.406c-1.228,1.49-0.873,3.562,0.221,4.805c0.661,0.751,1.49,1.332,2.089,2.145
		c0.163,0.222,0.25,0.477,0.408,0.693C31.067,61.959,31.133,62.406,30.788,62.84z"/>
	<path fill-rule="evenodd" clip-rule="evenodd" fill="#EFA426" d="M28.385,31.31c1.381-0.853,2.652-1.944,4.391-2.02
		c0.225-0.017,0.32,0.164,0.442,0.296c0.962,1.045,1.461,2.315,1.724,3.681c0.373,1.933,0.529,3.89,0.525,5.859
		c-0.002,0.821,0,0.82,0.802,0.975c0.183,0.036,0.368,0.062,0.551,0.091c0.41,0.066,0.812,0.188,1.232,0.179
		c0.083-0.055,0.083-0.14,0.087-0.225c0.062-1.574,0.015-3.14-0.315-4.688c-0.124-0.579-0.207-1.165-0.295-1.75
		c-0.169-1.126-0.57-2.152-1.304-3.036c-0.158-0.19-0.372-0.369-0.231-0.666c0.189-0.262,0.437-0.083,0.633-0.049
		c2.049,0.366,4.092,0.764,6.141,1.133c0.931,0.167,1.833,0.49,2.799,0.469c0.866-0.02,1.711-0.226,2.574-0.267
		c0.053,0.144-0.001,0.272-0.081,0.38c-0.504,0.681-0.715,1.486-0.982,2.268c-0.081,0.235-0.128,0.503-0.43,0.58
		c-1.607,0.037-3.205,0.215-4.807,0.333c-0.543,0.04-1.073,0.146-1.611,0.206c-0.344,0.039-0.444,0.206-0.413,0.547
		c0.145,1.567,0.353,3.127,0.5,4.694c0.027,0.287,0.077,0.571,0.047,0.859c-0.009,0.032-0.021,0.082-0.043,0.084
		c-0.727,0.087-0.809,0.669-0.937,1.217c-0.044,0.137-0.089,0.274-0.191,0.383c-0.12,0.112-0.268,0.151-0.424,0.137
		c-1.368-0.126-2.743-0.133-4.112-0.239c-1.034-0.081-2.071,0.002-3.106-0.038c-1.186-0.046-2.374-0.093-3.543-0.325
		c-0.333-0.066-0.664-0.147-0.973-0.293c-0.606-0.285-0.773-0.591-0.699-1.257c0.157-1.399,0.446-2.775,0.736-4.151
		c0.282-1.341,0.582-2.679,0.873-4.019C28.046,32.194,28.163,31.735,28.385,31.31z"/>
	<path fill-rule="evenodd" clip-rule="evenodd" fill="#443881" d="M46.744,34.403c0.233-0.395,0.346-0.839,0.469-1.271
		c0.193-0.677,0.57-1.251,0.928-1.839c0.917-1.379,2.315-1.532,3.79-1.489c0.103,0.125,0.046,0.238-0.023,0.351
		c-0.456,0.453-0.809,0.979-1.093,1.553c-0.082,0.167-0.179,0.322-0.315,0.45c-0.246,0.268-0.277,0.591-0.236,0.932
		c-0.307,1.407-0.512,2.831-0.771,4.245c-0.071,0.184-0.076,0.375-0.063,0.569c-0.001,0.577,0.006,1.154-0.002,1.731
		c-0.004,0.324,0.108,0.479,0.454,0.418c0.635-0.11,1.27-0.225,1.908-0.312c0.394-0.054,0.4-0.343,0.406-0.646
		c0.032-1.714,0.16-3.42,0.422-5.115c0.223-1.443,0.642-2.811,1.524-4.002c0.252-0.251,0.388-0.621,0.76-0.75
		c1.824,0.037,2.906,0.798,3.533,2.737c0.188,1.496,0.354,2.995,0.445,4.5c0.063,1.049,0.065,2.103,0.005,3.153
		c-0.044,0.75-0.413,1.391-0.812,2.006c-0.173,0.267-0.456,0.394-0.748,0.501c-0.821,0.303-1.686,0.391-2.546,0.467
		c-2.684,0.239-5.368,0.468-8.052,0.706c-0.895,0.079-1.792,0.114-2.686,0.208c-0.136,0.015-0.271,0.002-0.399-0.049
		c-0.372-0.256-0.335-0.678-0.393-1.046c-0.064-0.405-0.174-0.75-0.585-0.918c-0.133-0.287-0.381-0.318-0.665-0.338
		c-0.391-0.027-0.797,0.132-1.175-0.081c-0.09-0.283,0.133-0.401,0.301-0.523c0.671-0.488,1.318-1.029,2.046-1.417
		c1.454-0.775,2.231-2.081,2.927-3.475C46.309,35.238,46.417,34.764,46.744,34.403z"/>
	<path fill-rule="evenodd" clip-rule="evenodd" fill="#CE8FE8" d="M70.068,57.951c-0.365-0.653-0.654-1.356-1.281-1.933
		c-0.485,1.238-0.118,2.359,0.237,3.48c-0.159,0.278-0.451,0.307-0.718,0.387c-0.246,0.032-0.496,0.021-0.743,0.045
		c-0.298-0.02-0.366-0.354-0.601-0.455c-0.162,0.067-0.133,0.274-0.28,0.337c-0.386,0.012-0.767,0.06-1.143,0.147
		c-0.822,0.339-1.366,0.942-1.68,1.765c-0.056,0.15-0.086,0.308-0.131,0.461c-0.026,0.092-0.093,0.156-0.156,0.223
		c-1.551,0.198-2.773,0.909-3.554,2.294c-0.127,0.227-0.225,0.276-0.396,0.066c-0.239-0.293-0.571-0.47-0.866-0.693
		c0.005-0.149,0.042-0.277,0.211-0.317c0.465-0.823,0.309-1.707,0.24-2.579c-0.113-1.471-0.096-2.917,0.752-4.213
		c0.128-0.196,0.289-0.377,0.461-0.537c0.572-0.537,1.155-0.452,1.595,0.25c0.293-0.602,0.395-1.232,0.507-1.858
		c0.176-0.981,0.058-1.953-0.126-2.919c-0.329-1.724,0.162-2.736,1.737-3.526c0.496-0.249,0.977-0.544,1.57-0.529
		c0.716,0.018,1.259,0.499,1.309,1.215c0.041,0.576,0.021,1.146-0.368,1.721c0.384-0.013,0.539-0.185,0.684-0.397
		c0.665-0.98,0.975-2.118,1.419-3.196c0.311-0.755,0.665-1.49,1.261-2.069c0.834-0.812,1.763-0.626,2.222,0.451
		c0.402,0.942,0.33,1.917,0.134,2.894c-0.181,0.905-0.543,1.739-0.979,2.545c-0.068,0.411-0.356,0.685-0.624,0.962
		c-0.578,0.598-1.172,1.18-1.761,1.766c-0.268,0.267-0.491,0.562-0.649,0.904c-0.266,0.574-0.17,0.801,0.427,0.984
		c0.357,0.11,0.722,0.199,0.985,0.495c0.308,0.351,0.491,0.756,0.525,1.221C70.304,57.569,70.336,57.817,70.068,57.951z"/>
	<path fill-rule="evenodd" clip-rule="evenodd" fill="#BC88D3" d="M30.229,21.914c-0.665-0.329-1.327-0.595-1.927-0.964
		c-1.466-0.9-3.024-1.211-4.746-1.131c-2.185,0.102-4.377,0.025-6.566,0.024c-0.655,0-0.727-0.071-0.727-0.736
		c-0.001-2.308-0.002-4.616,0-6.924c0-0.619,0.089-0.706,0.707-0.706c4.854-0.001,9.708-0.001,14.561,0
		c0.628,0,0.732,0.102,0.733,0.744c0.002,2.308,0.002,4.616,0,6.924c-0.001,0.614-0.089,0.695-0.716,0.698
		c-1.36,0.007-1.36,0.007-1.321,1.357C30.233,21.415,30.229,21.629,30.229,21.914z"/>
	<path fill-rule="evenodd" clip-rule="evenodd" fill="#443881" d="M57.852,43.35c0.423,1.664,0.557,3.373,0.799,5.065
		c0.129,0.906,0.237,1.816,0.416,2.713c0.102,0.506-0.078,0.674-0.537,0.684c-0.118,0.002-0.236,0.016-0.355,0.024
		c-0.426,0.354-0.965,0.236-1.449,0.346c-0.891,0.096-1.777,0.223-2.665,0.336c-0.431,0.055-0.623-0.104-0.709-0.508
		c-0.119-0.563-0.182-1.136-0.299-1.698c-0.065-0.414-0.143-0.827-0.199-1.243c-0.055-0.41-0.263-0.592-0.676-0.56
		c-0.166,0.014-0.337,0.016-0.503-0.013c-0.152-0.026-0.357,0.004-0.361-0.248c0.269-0.203,0.583-0.131,0.878-0.128
		c0.355,0.003,0.48-0.13,0.425-0.487c-0.146-0.929-0.262-1.862-0.322-2.802c0.014-0.175,0.007-0.352,0.047-0.523
		c0.061-0.166,0.071-0.354,0.217-0.482c0.338-0.197,0.714-0.182,1.087-0.198C55.049,43.565,56.451,43.48,57.852,43.35z"/>
	<path fill-rule="evenodd" clip-rule="evenodd" fill="#001D3F" d="M30.788,62.84c0.016-0.445,0.031-0.89,0.047-1.334
		c-0.021-0.988-0.299-1.936-0.452-2.903c-0.445-2.812-0.913-5.619-1.151-8.459c-0.024-0.285-0.011-0.574-0.016-0.86
		c0.618-0.142,1.196,0.124,1.789,0.201c0.866,0.112,1.74,0.175,2.599,0.345c0.188,0.037,0.382,0.042,0.425-0.221
		c0.117-0.57,0.011-1.189,0.381-1.701c0.119-0.075,0.254-0.101,0.389-0.097c1.102,0.033,2.194-0.066,3.285-0.215
		c0.25,0.111,0.232,0.346,0.241,0.557c0.019,0.449,0.001,0.899,0.012,1.348c-0.007,0.177,0.043,0.295,0.255,0.286
		c0.166-0.006,0.346-0.028,0.455,0.151c0.028,0.086,0.023,0.17-0.006,0.254c-0.089,0.301-0.344,0.349-0.598,0.393
		c-1.5,0.259-3.009,0.217-4.518,0.13c-0.727-0.042-1.457-0.102-2.17-0.262c-0.363-0.08-0.421,0.119-0.463,0.413
		c-0.257,1.811,0.028,3.583,0.309,5.363c0.31,1.959,0.736,3.916,0.6,5.913c-0.167,2.456-0.213,4.913-0.177,7.373
		c0.021,1.456,0.237,2.907,0.195,4.368c-0.007,0.252,0.031,0.512-0.108,0.745c-0.045,0.054-0.102,0.071-0.17,0.054
		c-0.159-0.077-0.358,0.034-0.503-0.108c-0.152-1.428-0.332-2.851-0.429-4.285C30.841,67.807,30.625,65.329,30.788,62.84z"/>
	<path fill-rule="evenodd" clip-rule="evenodd" fill="#CFA5DF" d="M17.793,65.375c-0.204,0.029-0.407,0.06-0.61,0.089
		c-0.042-0.365-0.328-0.271-0.549-0.285c-1.254-0.083-2.435-0.396-3.491-1.104c-0.195-0.132-0.511-0.284-0.458-0.487
		c0.069-0.26,0.415-0.146,0.633-0.132c1.052,0.067,2.013,0.431,2.92,0.95c0.083,0.048,0.167,0.095,0.365,0.204
		c-0.262-0.659-0.609-1.14-0.968-1.578c-0.187-0.229-0.633-0.15-0.964-0.198c-1.139-0.162-2.213-0.497-3.128-1.225
		c-0.135-0.106-0.378-0.215-0.306-0.415c0.063-0.176,0.303-0.091,0.462-0.088c1.212,0.022,2.264,0.512,3.271,1.133
		c0.069,0.042,0.14,0.084,0.324,0.195c-0.463-0.839-0.859-1.573-1.275-2.298c-0.107-0.186-0.327-0.219-0.532-0.258
		c-1.114-0.213-2.139-0.631-3.041-1.332c-0.257-0.2-0.482-0.422-0.661-0.802c1.465-0.028,2.584,0.68,3.8,1.556
		c-0.396-0.788-0.726-1.432-1.042-2.081c-0.108-0.221-0.319-0.237-0.506-0.293c-1.167-0.35-2.259-0.832-3.131-1.716
		C8.72,55.021,8.392,54.77,8.502,54.57c0.144-0.263,0.496-0.021,0.74,0.035c0.968,0.222,1.746,0.8,2.497,1.415
		c0.06,0.049,0.101,0.136,0.232,0.106c-0.525-1.193-1.049-2.37-1.807-3.438c-0.487-0.685-0.735-1.484-0.72-2.344
		c0.002-0.097,0.004-0.233,0.063-0.279c0.123-0.098,0.218,0.046,0.298,0.114c0.745,0.624,1.195,1.444,1.358,2.377
		c0.21,1.206,0.722,2.283,1.243,3.364c0.044,0.092,0.092,0.182,0.146,0.268c0.014,0.023,0.056,0.028,0.12,0.059
		c0.017-0.679-0.035-1.348,0.136-1.998c0.133-0.511,0.301-1.011,0.608-1.445c0.087-0.123,0.123-0.385,0.339-0.303
		c0.158,0.06,0.144,0.281,0.176,0.448c0.185,0.973-0.074,1.875-0.421,2.765c-0.062,0.158-0.102,0.341-0.208,0.461
		c-0.514,0.574-0.269,1.099,0.047,1.65c0.292,0.509,0.537,1.043,0.859,1.678c0.144-1.548,0.292-2.963,1.431-4.063
		c0.287,0.597,0.187,1.188,0.071,1.767c-0.175,0.876-0.582,1.658-1.063,2.402c-0.09,0.14-0.225,0.267-0.12,0.457
		c0.403,0.734,0.806,1.47,1.271,2.19c0.019-0.862,0.122-1.688,0.382-2.493c0.17-0.525,0.449-0.984,0.796-1.406
		c0.062-0.075,0.1-0.196,0.228-0.15c0.097,0.035,0.065,0.143,0.088,0.22c0.237,0.813,0.008,1.585-0.263,2.331
		c-0.202,0.554-0.47,1.092-0.815,1.579c-0.162,0.229-0.204,0.412-0.02,0.667c0.352,0.487,0.662,1.006,1.047,1.603
		c0.119-0.81,0.152-1.513,0.348-2.19c0.167-0.579,0.423-1.107,0.814-1.565c0.069-0.081,0.112-0.26,0.255-0.192
		c0.123,0.058,0.144,0.22,0.155,0.356c0.073,0.863-0.081,1.69-0.435,2.476c-0.18,0.4-0.398,0.786-0.629,1.161
		C17.583,64.919,17.564,65.146,17.793,65.375z"/>
	<path fill-rule="evenodd" clip-rule="evenodd" fill="#EFA426" d="M34.429,47.941c-0.109,0.566-0.219,1.132-0.242,1.71
		c-0.083,0.264-0.29,0.25-0.498,0.216c-1.352-0.225-2.715-0.362-4.067-0.584c-0.16-0.026-0.291-0.079-0.404-0.188
		c-0.03-0.058-0.092-0.118-0.086-0.172c0.208-1.896,0.305-3.807,0.794-5.662c0.352-0.257,0.728-0.062,1.085-0.036
		c1.165,0.086,2.333,0.14,3.49,0.305c0.184,0.026,0.373,0.032,0.537,0.137c0.16,0.314,0.039,0.637-0.001,0.947
		c-0.118,0.925-0.258,1.847-0.388,2.771C34.62,47.589,34.583,47.787,34.429,47.941z"/>
	<path fill-rule="evenodd" clip-rule="evenodd" fill="#D58A84" d="M54.9,29.228c-0.189,0.231-0.38,0.463-0.569,0.694
		c-0.486,0.401-1.038,0.684-1.63,0.886c-0.705,0.242-0.943,0.043-0.861-0.696c0.041-0.1,0.129-0.185,0.091-0.308
		c0.062-0.34,0.125-0.679,0.188-1.019c0.801-0.181,1.39-0.646,1.794-1.362c-0.484,0.533-1.291,0.521-1.766,1.071
		c0.107-0.46-0.278-0.407-0.521-0.502c-0.378-0.134-0.66-0.374-0.809-0.751c-0.061-0.153-0.14-0.32,0.076-0.428
		c0.304-0.028,0.642,0.104,0.912-0.198c-0.379-0.08-0.753-0.083-1.097-0.229c-0.171-0.103-0.283-0.256-0.309-0.446
		c-0.143-1.036-0.412-2.068-0.101-3.119c0.053-0.14,0.16-0.216,0.301-0.246c0.696-0.146,1.386-0.338,2.095-0.418
		c0.696-0.079,0.894,0.069,1.096,0.75c0.082,0.278,0.186,0.547,0.357,0.783c0.313,0.426,0.593,0.502,1.094,0.31
		c0.566-0.218,0.876-0.128,1.087,0.315c0.341,0.805-0.33,1.783-1.241,1.804c-0.123,0.003-0.301-0.107-0.294,0.128
		c0.027,0.962-0.097,1.928,0.069,2.886C54.867,29.166,54.888,29.196,54.9,29.228z"/>
	<path fill-rule="evenodd" clip-rule="evenodd" fill="#211A4D" d="M56.72,52.036c0.484-0.066,0.97-0.134,1.454-0.2
		c-0.379,3.023-0.84,6.033-1.4,9.029c-0.154,0.824,0.022,1.652,0.055,2.479c0.114,2.936-0.207,5.851-0.415,8.771
		c-0.043,0.606-0.154,1.209-0.251,1.81c-0.021,0.127,0.027,0.335-0.215,0.336c-0.079,0.038-0.165,0.044-0.249,0.032
		c-0.181-0.024-0.389,0.145-0.536-0.015c-0.185-0.197,0.131-0.296,0.143-0.471c0.043-0.659,0.076-1.319,0.132-1.978
		c0.132-1.572,0.137-3.152,0.141-4.727c0.006-1.812-0.088-3.626-0.194-5.437c-0.055-0.936,0.078-1.863,0.2-2.785
		c0.206-1.563,0.443-3.124,0.715-4.678c0.092-0.523,0.043-1.05,0.065-1.575C56.375,52.368,56.396,52.111,56.72,52.036z"/>
	<path fill-rule="evenodd" clip-rule="evenodd" fill="#A8625B" d="M32.962,26.257c-1.064,0.171-1.906-0.871-1.586-1.817
		c0.246-0.435,0.633-0.402,1.022-0.283c0.684,0.208,1,0.086,1.335-0.557c0.103-0.196,0.173-0.406,0.216-0.622
		c0.078-0.388,0.322-0.621,0.703-0.608c0.85,0.028,1.668,0.25,2.48,0.489c0.064,0.019,0.093,0.095,0.121,0.157
		c0.258,1.078,0.105,2.131-0.187,3.176c-0.304,0.397-0.771,0.24-1.195,0.318c0.216,0.312,0.538,0.215,0.799,0.29
		c0.257,0.163,0.161,0.369,0.055,0.562c-0.156,0.285-0.414,0.467-0.689,0.626c-0.261,0.079-0.637,0.04-0.521,0.506
		c-0.5-0.503-1.274-0.555-1.778-1.055c0.471,0.619,0.873,1.327,1.803,1.342c0.121,0.303,0.079,0.625,0.104,0.938
		c-0.08,0.088-0.182,0.095-0.29,0.078c-0.661-0.291-1.308-0.612-1.938-0.966c-0.157-0.088-0.336-0.164-0.413-0.352
		c-0.006-0.03-0.009-0.061-0.007-0.091C33.036,27.676,33.095,26.965,32.962,26.257z"/>
	<path fill-rule="evenodd" clip-rule="evenodd" fill="#11265D" d="M56.328,24.315c-0.332-0.408-0.744-0.408-1.127-0.136
		c-0.321,0.228-0.555,0.142-0.818-0.053c-0.419-0.309-0.635-0.734-0.738-1.232c-0.123-0.588-0.296-0.721-0.916-0.609
		c-0.78,0.141-1.553,0.324-2.329,0.489c-0.101,0.136-0.238,0.202-0.403,0.217c-0.133-0.024-0.271-0.031-0.396-0.075
		c-0.639-0.221-0.786-0.569-0.495-1.168c0.223-0.459,0.582-0.793,1.026-1.023c1.591-0.822,3.239-1.029,4.957-0.434
		c0.526,0.183,0.898,0.526,1.138,1.022c0.355,0.736,0.452,1.519,0.408,2.324C56.619,23.898,56.514,24.127,56.328,24.315z"/>
	<path fill-rule="evenodd" clip-rule="evenodd" fill="#00254A" d="M37.159,22.974c-0.74-0.16-1.477-0.334-2.221-0.476
		c-0.528-0.101-0.742,0.072-0.867,0.604c-0.102,0.436-0.283,0.83-0.635,1.128c-0.288,0.244-0.555,0.401-0.934,0.111
		c-0.375-0.287-0.766-0.119-1.127,0.098c-0.194-0.254-0.259-0.545-0.253-0.86c0.006-0.356,0.056-0.723-0.01-1.067
		c-0.177-0.914,0.316-1.381,1.046-1.724c0.366-0.172,0.707-0.406,1.128-0.434c0.455-0.05,0.839,0.125,1.231,0.337
		c1.23,0.665,2.512,0.695,3.814,0.232c0.468-0.167,0.582-0.093,0.548,0.399c-0.01,0.148-0.087,0.295-0.006,0.444
		c-0.147,0.983-0.494,1.362-1.315,1.434C37.365,23.233,37.266,23.096,37.159,22.974z"/>
	<path fill-rule="evenodd" clip-rule="evenodd" fill="#FEFEFE" d="M33.002,28.479c0.773,0.415,1.546,0.83,2.319,1.245
		c0.123,0.065,0.303,0.078,0.264,0.291c-0.037,0.231-0.276,0.423-0.131,0.689c0.583,1.129,0.833,2.359,1.061,3.589
		c0.327,1.766,0.507,3.548,0.481,5.347c-0.003,0.232,0.038,0.479-0.149,0.673c-1.493-0.087-1.485-0.087-1.522-1.551
		c-0.049-1.948-0.185-3.888-0.599-5.8c-0.306-1.411-0.953-2.633-1.951-3.672C32.785,29.001,32.715,28.69,33.002,28.479z"/>
	<path fill-rule="evenodd" clip-rule="evenodd" fill="#3A2F71" d="M52.543,43.881c-0.015,0.14,0.043,0.294-0.091,0.406
		c-0.145-0.755-0.626-0.847-1.278-0.686c-0.253,0.062-0.532,0.028-0.797-0.019c-0.231-0.079-0.483-0.065-0.714-0.153
		c-0.03-0.012-0.063-0.007-0.095-0.003c0.056,0.001,0.106,0.015,0.146,0.059c-0.06,0.224-0.228,0.355-0.403,0.483
		c-0.622,0.119-1.347,0.258-1.852,0.007c-0.838-0.416-1.653-0.152-2.469-0.25c-0.102-0.012-0.197,0.043-0.298,0.062
		c-0.373,0.036-0.75,0.112-1.109-0.071c-0.096-0.115-0.1-0.229,0.001-0.344c1.545-0.139,3.094-0.208,4.635-0.391
		c0.987-0.117,1.991-0.105,2.977-0.231c2.035-0.261,4.115-0.166,6.106-0.778c0.406-0.125,0.645-0.378,0.853-0.735
		c0.468-0.803,0.62-1.651,0.616-2.575c-0.008-1.963-0.14-3.913-0.404-5.857c-0.037-0.272-0.101-0.573,0.067-0.841
		c0.331,0.666,0.381,1.39,0.454,2.113c0.083,0.822,0.194,1.641,0.293,2.461c0.034,0.076,0.051,0.156,0.053,0.239
		c-0.047,0.458-0.058,0.916,0.007,1.373c0.01,0.086-0.015,0.163-0.06,0.235c-0.046,1.014-0.226,2.011-0.362,3.014
		c-0.081,0.602-0.474,0.984-0.988,1.258c-0.094,0.151,0.011,0.336-0.124,0.555c-0.355-0.445-0.808-0.259-1.244-0.191
		c-1.086,0.169-2.17,0.358-3.27,0.387C52.83,43.418,52.7,43.644,52.543,43.881z"/>
	<path fill-rule="evenodd" clip-rule="evenodd" fill="#BF881F" d="M34.996,43.685c-1.104-0.084-2.208-0.164-3.312-0.254
		c-0.587-0.048-1.172-0.112-1.758-0.169c0.027-0.266-0.13-0.293-0.344-0.295c-0.609-0.003-1.219-0.017-1.828-0.04
		c-1.127-0.044-1.761-0.798-1.621-1.91c0.38-3.009,1.166-5.939,1.754-8.908c0.063-0.319,0.219-0.603,0.499-0.799
		c-0.279,1.284-0.554,2.568-0.836,3.851c-0.42,1.908-0.822,3.818-1.087,5.756c-0.067,0.489,0.104,0.811,0.559,1.01
		c0.803,0.352,1.663,0.44,2.516,0.515c1.314,0.115,2.635,0.103,3.954,0.125c1.753,0.029,3.507,0.109,5.253,0.285
		c0.157,0.016,0.304-0.001,0.435-0.096c0.08,0.067,0.091,0.155,0.079,0.251c-0.116,0.441-0.467,0.435-0.803,0.383
		c-0.331-0.053-0.658-0.098-0.993-0.071c-0.509,0.004-1.019,0.016-1.526-0.005C35.556,43.298,35.234,43.372,34.996,43.685z"/>
	<path fill-rule="evenodd" clip-rule="evenodd" fill="#EBC8F3" d="M69.658,56.109c-0.349-0.221-0.748-0.305-1.133-0.431
		c-0.396-0.13-0.567-0.393-0.404-0.826c0.17-0.453,0.43-0.838,0.764-1.185c0.844-0.876,1.795-1.652,2.5-2.66
		c0.448-0.043,0.71-0.416,1.074-0.609c0.159-0.085,0.303-0.2,0.452-0.302c-0.013,0.485,0.115,0.952,0.188,1.426
		c-0.534,0.284-1.011,0.645-1.442,1.07c-0.132,0.131-0.239,0.339-0.489,0.263c-0.156-0.055-0.215-0.328-0.399-0.25
		c-0.159,0.067-0.133,0.3-0.161,0.456c-0.047,0.265-0.032,0.54-0.043,0.812c-0.255,0.597-0.483,1.202-0.625,1.839
		C69.905,55.866,69.925,56.103,69.658,56.109z"/>
	<path fill-rule="evenodd" clip-rule="evenodd" fill="#EBC8F3" d="M19.598,35.221c-0.913-0.005-1.604-0.73-1.598-1.673
		c0.006-0.955,0.722-1.68,1.667-1.689c0.879-0.009,1.697,0.803,1.695,1.683C21.361,34.533,20.63,35.228,19.598,35.221z"/>
	<path fill-rule="evenodd" clip-rule="evenodd" fill="#EBC8F3" d="M65.482,34.316c0.003-0.957,0.705-1.649,1.668-1.644
		c0.972,0.006,1.708,0.746,1.694,1.703c-0.014,0.902-0.83,1.672-1.759,1.66C66.174,36.023,65.479,35.278,65.482,34.316z"/>
	<path fill-rule="evenodd" clip-rule="evenodd" fill="#EBC8F3" d="M44.941,14.943c0.978,0.006,1.71,0.748,1.69,1.71
		c-0.018,0.862-0.812,1.647-1.672,1.652c-0.982,0.006-1.697-0.741-1.69-1.766C43.275,15.628,43.999,14.936,44.941,14.943z"/>
	<path fill-rule="evenodd" clip-rule="evenodd" fill="#002043" d="M38.875,21.768c-0.197-0.252-0.004-0.564-0.145-0.867
		c-0.642,0.368-1.35,0.439-2.074,0.466c-0.762,0.029-1.474-0.142-2.126-0.514c-0.396-0.227-0.812-0.374-1.243-0.499
		c0.22-0.101,0.46-0.137,0.692-0.115c1.083,0.099,2.103-0.222,3.136-0.449c0.267-0.059,0.534-0.071,0.804-0.054
		c0.156,0.01,0.331,0.044,0.408,0.172C38.67,20.479,39.211,20.997,38.875,21.768z"/>
	<path fill-rule="evenodd" clip-rule="evenodd" fill="#FEFDFC" d="M35.525,29.996c0.006-0.146-0.149-0.171-0.204-0.272
		c0.107-0.001,0.215-0.003,0.322-0.005c0.396-0.242,0.205,0.228,0.35,0.289c0.028,0.149,0.07,0.283,0.181,0.404
		c0.891,0.969,1.333,2.132,1.519,3.423c0.197,1.356,0.521,2.696,0.604,4.065c0.051,0.842-0.008,1.691-0.02,2.537
		c-0.001,0.078-0.047,0.12-0.132,0.095c-0.176-0.227-0.197-0.495-0.213-0.769c-0.133-2.274-0.473-4.509-1.273-6.656
		c-0.059-0.159-0.119-0.317-0.19-0.471c-0.374-0.801-0.927-1.538-0.894-2.485C35.557,30.1,35.54,30.048,35.525,29.996z"/>
	<path fill-rule="evenodd" clip-rule="evenodd" fill="#3D3277" d="M52.543,43.881c-0.064-0.452,0.104-0.619,0.587-0.623
		c1.261-0.011,2.499-0.257,3.741-0.456c0.291-0.047,0.676-0.24,0.81,0.273c0.117-0.125-0.006-0.321,0.149-0.417
		c0.007,0.23,0.015,0.461,0.021,0.692c-0.039,0.281-0.284,0.209-0.438,0.216c-0.47,0.021-0.938,0.074-1.405,0.095
		C54.852,43.712,53.696,43.776,52.543,43.881z"/>
	<path fill-rule="evenodd" clip-rule="evenodd" fill="#DEA8A3" d="M49.996,22.991c0.063-0.203,0.214-0.246,0.403-0.217
		c-0.175,0.979-0.047,1.947,0.095,2.918c0.04,0.269,0.094,0.492,0.32,0.652c-0.088,0.197,0.182,0.319,0.109,0.513
		c-0.185,0.336,0.111,0.515,0.261,0.725c0.112,0.16,0.291,0.274,0.44,0.409c-0.718-0.011-0.975-0.551-1.183-1.089
		c-0.288-0.746-0.386-1.542-0.438-2.335C49.969,24.044,49.996,23.517,49.996,22.991z"/>
	<path fill-rule="evenodd" clip-rule="evenodd" fill="#FCF4FE" d="M35.418,11.561c-0.461-0.458-0.864-0.389-1.355-0.05
		c0.157-0.547,0.038-0.918-0.387-1.262c0.515-0.047,0.896-0.184,1.044-0.725c0.214,0.367,0.341,0.719,0.796,0.653
		c0.125-0.018,0.234,0.143,0.089,0.239C35.196,10.685,35.308,11.062,35.418,11.561z"/>
	<path fill-rule="evenodd" clip-rule="evenodd" fill="#FCF4FE" d="M68.364,24.13c0.238,0.34,0.305,0.806,0.846,0.72
		c0.134-0.021,0.13,0.149,0.043,0.217c-0.319,0.248-0.354,0.578-0.246,1.014c-0.388-0.229-0.706-0.384-1.049-0.105
		c-0.086,0.07-0.259,0.038-0.206-0.082c0.206-0.464-0.118-0.714-0.5-1.083C67.947,24.958,68.137,24.534,68.364,24.13z"/>
	<path fill-rule="evenodd" clip-rule="evenodd" fill="#FCF4FE" d="M63.514,43.016c-0.389,0.335-0.648,0.663-0.273,1.231
		c-0.469-0.098-0.789-0.39-1.158-0.115c-0.112,0.084-0.185-0.08-0.157-0.173c0.098-0.332-0.082-0.53-0.297-0.734
		c-0.142-0.135-0.095-0.282,0.102-0.25c0.452,0.075,0.577-0.247,0.747-0.618C62.729,42.75,62.971,43.104,63.514,43.016z"/>
	<path fill-rule="evenodd" clip-rule="evenodd" fill="#FCF4FE" d="M27.355,27.17c0.141-0.512,0.187-0.831-0.158-1.075
		c-0.172-0.122-0.086-0.226,0.098-0.251c0.373-0.051,0.621-0.238,0.672-0.685c0.23,0.425,0.524,0.68,1.074,0.707
		c-0.386,0.353-0.561,0.706-0.305,1.262C28.241,26.821,27.852,26.755,27.355,27.17z"/>
	<path fill-rule="evenodd" clip-rule="evenodd" fill="#FCF4FE" d="M10.065,45.952c0.457-0.062,0.821-0.173,0.979-0.697
		c0.22,0.467,0.565,0.631,1.091,0.678c-0.463,0.319-0.572,0.691-0.419,1.211c-0.401-0.235-0.717-0.323-1.056-0.1
		c-0.151,0.1-0.249-0.042-0.19-0.163C10.675,46.457,10.328,46.272,10.065,45.952z"/>
	<path fill-rule="evenodd" clip-rule="evenodd" fill="#FCF5FE" d="M12.071,26.589c-0.431-0.204-0.824-0.345-1.295,0.164
		c0.111-0.525,0.165-0.884-0.188-1.147c-0.125-0.093-0.028-0.206,0.078-0.208c0.412-0.012,0.616-0.272,0.777-0.698
		c0.185,0.45,0.451,0.702,0.954,0.735C12.049,25.787,11.856,26.123,12.071,26.589z"/>
	<path fill-rule="evenodd" clip-rule="evenodd" fill="#FCF4FE" d="M74.113,43.465c0.572,0.065,0.838-0.189,1.033-0.626
		c0.284,0.331,0.451,0.77,1.005,0.658c-0.413,0.314-0.487,0.696-0.365,1.175c-0.391-0.159-0.705-0.392-1.038-0.048
		c-0.096,0.1-0.228-0.021-0.182-0.119C74.772,44.062,74.447,43.828,74.113,43.465z"/>
	<path fill-rule="evenodd" clip-rule="evenodd" fill="#BD8883" d="M37.159,22.974c0.201-0.042,0.313,0.071,0.4,0.228
		c0.033,1.191-0.051,2.37-0.383,3.521c-0.119,0.411-0.279,0.804-0.628,1.081c-0.147,0.117-0.311,0.21-0.512,0.183
		c0.168-0.187,0.355-0.36,0.498-0.564c0.11-0.159,0.343-0.324,0.108-0.561c0.003-0.255,0.281-0.371,0.31-0.612
		C37.191,25.168,37.325,24.081,37.159,22.974z"/>
	<path fill-rule="evenodd" clip-rule="evenodd" fill="#8E4D47" d="M35.54,28.78c-0.031,0.239-0.173,0.198-0.328,0.133
		c-0.814-0.338-1.402-0.893-1.758-1.867c0.603,0.5,1.132,0.866,1.782,1.002c0.242,0.05,0.134,0.328,0.28,0.444
		C35.523,28.589,35.531,28.685,35.54,28.78z"/>
	<path fill-rule="evenodd" clip-rule="evenodd" fill="#BC746D" d="M52.146,28.494c0.067-0.353,0.283-0.519,0.636-0.58
		c0.53-0.093,0.896-0.5,1.342-0.799c-0.166,0.79-1.126,1.703-1.844,1.77c-0.051,0.004-0.107-0.065-0.162-0.1
		C52.128,28.688,52.137,28.59,52.146,28.494z"/>
	<path fill-rule="evenodd" clip-rule="evenodd" fill="#072648" d="M29.218,49.096c1.538,0.223,3.076,0.446,4.614,0.671
		c0.141,0.021,0.27,0.025,0.355-0.115c0.019,0.28-0.156,0.374-0.386,0.338c-1.528-0.237-3.08-0.325-4.585-0.706
		C29.217,49.221,29.218,49.158,29.218,49.096z"/>
	<path fill-rule="evenodd" clip-rule="evenodd" fill="#E97489" d="M61.215,19.333c-0.034-0.202,0.127-0.106,0.188-0.106
		c2.982-0.005,5.964-0.004,8.946-0.004c0.118,0,0.24-0.012,0.327,0.095C67.522,19.323,64.369,19.329,61.215,19.333z"/>
	<path fill-rule="evenodd" clip-rule="evenodd" fill="#FEEFFE" d="M31.015,21.674c0,0.703,0,1.405,0,2.108c-0.013,0-0.027,0-0.04,0
		c0-0.703,0-1.405,0-2.107C30.988,21.674,31.001,21.674,31.015,21.674z"/>
	<path fill-rule="evenodd" clip-rule="evenodd" fill="#A15851" d="M32.962,26.257c0.216,0.707,0.155,1.418,0.033,2.13
		C32.91,27.678,32.969,26.967,32.962,26.257z"/>
	<path fill-rule="evenodd" clip-rule="evenodd" fill="#B4A4CA" d="M59.146,36.756c0.012-0.072,0.023-0.145,0.035-0.217
		c0.028,0.036,0.057,0.071,0.085,0.107c0.081,0.574,0.092,1.148-0.008,1.722c-0.026,0.004-0.052,0.01-0.077,0.018
		c-0.013-0.073-0.024-0.146-0.037-0.219C59.099,37.697,59.097,37.227,59.146,36.756z"/>
	<path fill-rule="evenodd" clip-rule="evenodd" fill="#FEF1FE" d="M59.258,38.368c0.003-0.574,0.006-1.148,0.008-1.722
		c0.216,0.567,0.075,1.15,0.077,1.727c0,0.006-0.026,0.018-0.039,0.017C59.288,38.388,59.273,38.376,59.258,38.368z"/>
	<path fill-rule="evenodd" clip-rule="evenodd" fill="#FCFAFC" d="M58.968,63.758c-0.07,0.106-0.141,0.212-0.211,0.317
		c-0.135-0.075-0.271-0.15-0.406-0.226C58.537,63.688,58.726,63.538,58.968,63.758z"/>
	<path fill-rule="evenodd" clip-rule="evenodd" fill="#261D54" d="M56.72,52.036c-0.182,0.136-0.217,0.32-0.206,0.537
		c0.082,1.617-0.36,3.173-0.554,4.758c-0.127,1.035-0.277,2.066-0.381,3.104c-0.106,1.069-0.013,2.13,0.056,3.179
		c0.073,1.111,0.127,2.236,0.105,3.332c-0.025,1.293,0.065,2.597-0.114,3.895c-0.129,0.932-0.095,1.887-0.127,2.832
		c-0.008,0.238,0.049,0.501-0.307,0.588c0.252,0,0.504,0,0.755,0c-0.02,0.023-0.035,0.051-0.045,0.08
		c-0.128,0.007-0.255,0.014-0.383,0.02c-0.621,0.259-1.229,0.142-1.837-0.058c-0.057-0.018-0.111-0.039-0.165-0.063
		c-0.532-0.182-0.329-0.692-0.472-1.051c-0.046-0.241-0.021-0.486-0.049-0.729c-0.028-2.25-0.164-4.495-0.296-6.74
		c-0.046-0.793,0.048-1.592-0.094-2.382c-0.052-1.572-0.021-3.144-0.006-4.715c0.002-0.203,0.006-0.406-0.015-0.607
		c0.002-1.355-0.029-2.712,0.052-4.066c0.015-0.234,0.173-0.63-0.093-0.658c-0.264-0.027-0.217,0.397-0.244,0.632
		c-0.27,2.379-0.501,4.763-0.408,7.158c0.044,1.12,0.136,2.238,0.085,3.357c-0.139,3.065-0.093,6.141-0.44,9.196
		c-0.027,0.238-0.013,0.437,0.185,0.592c-0.043,0.321-0.304,0.232-0.5,0.267c-0.353,0.013-0.706,0.031-1.054-0.033
		c-0.245-0.045-0.506-0.081-0.626-0.354c-0.072-0.655-0.038-1.314-0.097-1.974c-0.225-2.479-0.389-4.964-0.502-7.45
		c-0.047-1.031-0.11-2.062-0.136-3.096c-0.07-2.93-0.242-5.856-0.196-8.789c0.004-0.27-0.029-0.544,0.081-0.803
		c0.628-0.134,0.712-0.588,0.668-1.126c-0.01-0.114,0.039-0.229,0.134-0.312c0.188-0.113,0.391-0.085,0.593-0.059
		c0.825,0.107,1.654,0.035,2.482,0.053c0.241,0.005,0.409-0.133,0.588-0.258c0.219,0.584,0.202,1.217,0.37,1.813
		c0.065,0.229,0.097,0.325,0.393,0.278C54.849,52.237,55.786,52.148,56.72,52.036z"/>
	<path fill-rule="evenodd" clip-rule="evenodd" fill="#BC88D3" d="M49.186,73.934c-0.428-0.357-0.962-0.239-1.442-0.282
		c-2.232-0.198-4.468-0.353-6.703-0.513c-0.791-0.057-1.583-0.087-2.375-0.13c-0.136-0.152-0.136-0.343-0.133-0.527
		c0.019-1.114,0.187-2.219,0.222-3.332c0.004-0.119,0.046-0.232,0.15-0.309c0.234,0.458,0.547,0.235,0.866,0.113
		c2.263-0.866,4.588-1.468,7.021-1.586c0.339-0.017,0.67-0.119,1.013-0.095c0.303,0.025,0.622-0.073,0.899,0.125
		c0.17,0.229,0.201,0.498,0.218,0.768c0.104,1.734,0.254,3.464,0.388,5.195C49.322,73.563,49.349,73.769,49.186,73.934z"/>
	<path fill-rule="evenodd" clip-rule="evenodd" fill="#10375E" d="M38.972,68.841c-0.143,1.387-0.26,2.774-0.308,4.168
		c-0.178,0.432,0.084,0.936-0.222,1.346c-0.106,0.202-0.239,0.176-0.385,0.044c-0.268-0.656-0.155-1.338-0.104-2.007
		c0.136-1.792,0.255-3.586,0.374-5.379c0.174-2.623,0.223-5.252,0.386-7.875c0.005-0.084,0.012-0.169,0.011-0.254
		c-0.015-2.562,0.176-5.123,0.105-7.687c-0.009-0.305-0.015-0.612,0.136-0.896c0.179-0.156,0.365-0.145,0.556-0.026
		c0.212,0.31,0.233,0.67,0.234,1.023c0.007,2.1,0.176,4.196,0.109,6.297c-0.07,2.183-0.187,4.36-0.374,6.537
		c-0.119,1.382-0.207,2.768-0.338,4.148C39.135,68.48,39.156,68.694,38.972,68.841z"/>
	<path fill-rule="evenodd" clip-rule="evenodd" fill="#3A2A68" d="M49.186,73.934c-0.174-2.173-0.348-4.345-0.522-6.518
		c-0.211-0.261-0.09-0.601-0.214-0.883c-0.153-2.147-0.33-4.293-0.468-6.441c-0.134-2.104-0.051-4.205-0.075-6.308
		c-0.007-0.641,0.045-1.285,0.189-1.916c0.249-0.228,0.472-0.173,0.678,0.064c0,1.491-0.049,2.984,0.012,4.473
		c0.083,2.043,0.13,4.085,0.206,6.127c0.051,1.348,0.138,2.695,0.202,4.043c0.091,1.9,0.234,3.799,0.412,5.693
		c0.06,0.627,0.113,1.238-0.014,1.856c-0.021,0.041-0.049,0.045-0.082,0.013C49.401,74.069,49.294,74.001,49.186,73.934z"/>
	<path fill-rule="evenodd" clip-rule="evenodd" fill="#001930" d="M34.406,77.501c-0.316,0.017-0.602-0.107-0.875-0.229
		c-0.204-0.091-0.269-0.005-0.342,0.139c-0.205-0.129-0.433-0.171-0.671-0.203c-0.246-0.033-0.515-0.05-0.658-0.312
		c-0.178-0.423-0.104-0.826,0.091-1.222c0.134-0.079,0.219,0.026,0.315,0.084c0.501,0.299,0.712,0.256,1.057-0.22
		c0.197-0.272,0.36-0.575,0.679-0.734c0.491,0.007,0.673,0.411,0.896,0.732c0.245,0.352,0.539,0.59,0.957,0.702
		c0.34,0.092,0.566,0.069,0.6-0.345c0.008-0.103,0.075-0.187,0.167-0.243c0.208-0.05,0.347,0.102,0.511,0.176
		c0.431,0.195,0.681,0.132,0.953-0.264c0.19-0.276,0.339-0.592,0.708-0.68c0.427-0.003,0.584,0.358,0.773,0.628
		c0.251,0.356,0.541,0.636,0.945,0.793c0.081,0.063-0.202,0.118,0.003,0.2c0.268,0.107,0.526,0.233,0.75,0.207
		c-0.108-0.013-0.272-0.072-0.49-0.21c0.289-0.091,0.529-0.188,0.791-0.027c0.173,0.093,0.468,0.045,0.484,0.315
		c0.017,0.267-0.219,0.411-0.428,0.512c-0.895,0.434-1.825,0.377-2.759,0.155c-0.26-0.062-0.511-0.162-0.766-0.245
		c-0.478,0.107-0.993-0.134-1.453,0.15c-0.238,0.045-0.477,0.09-0.715,0.135C35.423,77.504,34.915,77.498,34.406,77.501z"/>
	<path fill-rule="evenodd" clip-rule="evenodd" fill="#132759" d="M51.628,77.09c-0.384-0.092-0.766-0.06-1.152-0.011
		c-0.188,0.023-0.423,0.151-0.538-0.184c-0.057-0.162-0.24-0.002-0.35,0.037c-0.817,0.297-1.649,0.347-2.498,0.186
		c-0.083-0.016-0.17-0.026-0.247-0.058c-0.341-0.143-0.824-0.276-0.757-0.692c0.072-0.439,0.568-0.288,0.908-0.303
		c0.122-0.011,0.307-0.121,0.34,0.056c0.03,0.166-0.177,0.154-0.3,0.177c-0.129,0.023-0.264,0.005-0.389,0.05
		c0.385-0.04,0.818,0.023,1.011-0.452c0.462-0.179,0.708-0.579,0.993-0.945c0.13-0.168,0.308-0.299,0.463-0.446
		c0.37,0.011,0.549,0.292,0.742,0.539c0.452,0.579,0.51,0.599,1.216,0.319c0.111-0.044,0.22-0.086,0.339-0.039
		c0.441,0.598,0.68,0.586,1.155-0.064c0.158-0.218,0.297-0.451,0.499-0.633c0.152-0.136,0.303-0.287,0.531-0.141
		c0.244,0.188,0.42,0.436,0.597,0.685c0.334,0.473,0.479,0.505,1.014,0.244c0.121-0.06,0.233-0.146,0.378-0.069
		c0.123,0.339,0.167,0.684,0.098,1.04c-0.025,0.025-0.054,0.044-0.085,0.059c-0.025,0.122-0.029,0.246-0.031,0.369
		c0.025,0.023,0.043,0.052,0.056,0.083c-0.347,0.161-0.854,0.281-1.067,0.146c-0.536-0.34-0.941,0.09-1.4,0.052
		C52.644,77.091,52.136,77.095,51.628,77.09z"/>
	<path fill-rule="evenodd" clip-rule="evenodd" fill="#A7615B" d="M38.794,74.883c-0.184,0.22-0.391,0.425-0.549,0.661
		c-0.426,0.639-0.747,0.709-1.38,0.269c-0.069-0.049-0.138-0.097-0.207-0.145c-0.063-0.361-0.113-0.727-0.301-1.054
		c0.117-0.089,0.255-0.092,0.392-0.104c0.477,0.03,0.949-0.049,1.424-0.065c0.09-0.03,0.18-0.061,0.27-0.091
		C38.56,74.531,38.677,74.707,38.794,74.883z"/>
	<path fill-rule="evenodd" clip-rule="evenodd" fill="#A6615B" d="M34.008,74.882c-0.162,0.189-0.338,0.368-0.481,0.57
		c-0.591,0.829-0.814,0.864-1.576,0.222c-0.003-0.331-0.007-0.662-0.011-0.992c0.041-0.012,0.082-0.023,0.122-0.035
		c0.53-0.273,1.103-0.086,1.652-0.155C33.921,74.539,34.002,74.682,34.008,74.882z"/>
	<path fill-rule="evenodd" clip-rule="evenodd" fill="#D48A84" d="M51.401,75.335c-0.133-0.012-0.216,0.084-0.313,0.147
		c-0.572,0.368-0.881,0.299-1.264-0.278c-0.188-0.282-0.376-0.567-0.712-0.7c0.193-0.057,0.367-0.134,0.397-0.367
		c0.027-0.006,0.055-0.01,0.082-0.012c0.516,0.303,1.093,0.188,1.645,0.24C51.387,74.673,51.497,74.986,51.401,75.335z"/>
	<path fill-rule="evenodd" clip-rule="evenodd" fill="#D58B84" d="M55.583,75.345c-0.184,0.017-0.282,0.176-0.428,0.259
		c-0.392,0.222-0.729,0.158-0.962-0.217c-0.188-0.303-0.427-0.562-0.642-0.843c-0.104-0.173-0.009-0.28,0.125-0.375
		c0.598,0.225,1.226,0.152,1.843,0.191C55.505,74.691,55.46,75.023,55.583,75.345z"/>
	<path fill-rule="evenodd" clip-rule="evenodd" fill="#0B111D" d="M31.86,76.896c0.317,0.123,0.64,0.222,0.984,0.201
		c0.231-0.014,0.358,0.068,0.345,0.314c-0.408,0.166-0.803-0.024-1.2-0.062C31.72,77.322,31.86,77.062,31.86,76.896z"/>
	<path fill-rule="evenodd" clip-rule="evenodd" fill="#0A111D" d="M36.646,77.361c0.433-0.542,0.955-0.229,1.453-0.15
		c-0.009,0.209-0.071,0.345-0.328,0.302C37.398,77.451,37.021,77.411,36.646,77.361z"/>
	<path fill-rule="evenodd" clip-rule="evenodd" fill="#1B2C66" d="M47.656,75.896c0.089,0.102,0.296,0.201,0.02,0.318
		c-0.441,0.188-0.882,0.399-1.43,0.2c0.28-0.37,0.671-0.158,0.984-0.257c-0.041-0.133-0.163-0.053-0.236-0.092
		C47.215,76.009,47.436,75.952,47.656,75.896z"/>
	<path fill-rule="evenodd" clip-rule="evenodd" fill="#102745" d="M41.567,76.474c-0.213,0.013-0.427,0.025-0.706,0.042
		c0.33,0.156,0.677-0.04,0.909,0.228c-0.277,0.167-1.338,0.009-1.458-0.235c-0.089-0.182,0.18-0.086,0.2-0.204
		c0.173,0.024,0.346,0.048,0.518,0.071c0.162-0.047,0.323-0.093,0.474,0.028C41.523,76.429,41.544,76.452,41.567,76.474z"/>
	<path fill-rule="evenodd" clip-rule="evenodd" fill="#061D4F" d="M51.628,77.09c0.508-0.15,1.017-0.157,1.524,0.003
		C52.644,77.215,52.136,77.221,51.628,77.09z"/>
	<path fill-rule="evenodd" clip-rule="evenodd" fill="#000D24" d="M34.406,77.501c0.508-0.162,1.016-0.151,1.525-0.005
		C35.423,77.629,34.915,77.626,34.406,77.501z"/>
	<path fill-rule="evenodd" clip-rule="evenodd" fill="#F8D2FD" d="M41.505,76.403c-0.161,0.037-0.318,0.018-0.474-0.028
		c0.165-0.159,0.391-0.129,0.549-0.07C41.722,76.358,41.527,76.361,41.505,76.403z"/>
	<path fill-rule="evenodd" clip-rule="evenodd" fill="#7872A1" d="M55.604,76.392c0.024-0.005,0.051-0.007,0.076-0.007
		c0.016-0.012,0.032-0.012,0.048,0.002c0.022,0.171,0.059,0.343-0.025,0.508l-0.041,0.007l-0.042-0.006l-0.046,0.012L55.527,76.9
		C55.571,76.733,55.503,76.55,55.604,76.392z"/>
	<path fill-rule="evenodd" clip-rule="evenodd" fill="#F9D3FE" d="M55.703,76.895c0.009-0.169,0.017-0.339,0.025-0.508
		C55.833,76.562,55.857,76.732,55.703,76.895z"/>
	<path fill-rule="evenodd" clip-rule="evenodd" fill="#FEFEFE" d="M68.337,59.778c0.229-0.093,0.459-0.187,0.688-0.279
		c0.307,0.772,0.703,1.498,1.172,2.181c0.175,0.254,0.153,0.438-0.008,0.677c-0.461,0.687-0.903,1.386-1.354,2.079
		c-0.07-0.063-0.142-0.128-0.212-0.192c-0.169-0.275-0.13-0.591-0.153-0.89c-0.08-1.005-0.396-1.947-0.728-2.888
		C67.719,60.045,68.073,59.951,68.337,59.778z"/>
	<path fill-rule="evenodd" clip-rule="evenodd" fill="#F68DA1" d="M67.819,60.389c0.57,1.223,0.848,2.505,0.805,3.855
		c-0.387-0.361-0.873-0.599-1.222-1.005c-0.608-0.654-0.712-1.492-0.845-2.32c0.033-0.385-0.109-0.791,0.138-1.149
		c0.048-0.187,0.096-0.374,0.168-0.655c0.255,0.299,0.452,0.529,0.65,0.761C67.783,59.946,67.731,60.209,67.819,60.389z"/>
	<path fill-rule="evenodd" clip-rule="evenodd" fill="#FEFDFD" d="M66.688,61.012c0.126,0.778,0.362,1.521,0.714,2.227
		c-0.312-0.038-0.549-0.247-0.825-0.368c-0.962-0.418-1.955-0.616-3.004-0.462c-0.012-0.076,0-0.146,0.066-0.196
		c0.145-0.146,0.317-0.246,0.512-0.307c0.706-0.221,1.377-0.529,2.061-0.807C66.362,61.037,66.51,60.933,66.688,61.012z"/>
	<path fill-rule="evenodd" clip-rule="evenodd" fill="#BF8AD6" d="M57.003,63.667c0,0.907,0,1.815,0,2.724c-0.018,0-0.034,0-0.051,0
		c0-0.904,0-1.808,0-2.712C56.969,63.675,56.985,63.671,57.003,63.667z"/>
	<path fill-rule="evenodd" clip-rule="evenodd" fill="#FEFDFE" d="M76.399,49.391c0.01,1.227-0.584,2.258-1.076,3.321
		c-0.191,0.412-0.391,0.82-0.585,1.23c-0.243-0.023-0.11-0.175-0.097-0.285c0.074-1.066-0.044-2.114-0.292-3.15
		c0.6-0.312,1.165-0.681,1.72-1.064C76.173,49.371,76.259,49.214,76.399,49.391z"/>
	<path fill-rule="evenodd" clip-rule="evenodd" fill="#FEFCFD" d="M63.04,12.982c1.9,0,3.802,0.017,5.701-0.012
		c0.488-0.007,0.496,0.218,0.5,0.583c0.005,0.386-0.057,0.576-0.521,0.574c-3.801-0.019-7.602-0.019-11.403,0
		c-0.457,0.002-0.52-0.172-0.519-0.563c0-0.402,0.045-0.604,0.54-0.595C59.238,13.001,61.14,12.982,63.04,12.982z"/>
	<path fill-rule="evenodd" clip-rule="evenodd" fill="#FEFDFD" d="M63.089,15.431c1.884,0,3.769,0.017,5.651-0.012
		c0.487-0.008,0.497,0.217,0.501,0.583c0.004,0.384-0.053,0.577-0.519,0.575c-3.818-0.019-7.638-0.021-11.456,0.001
		c-0.537,0.003-0.44-0.298-0.46-0.613c-0.021-0.354,0.027-0.551,0.479-0.545C59.22,15.445,61.154,15.431,63.089,15.431z"/>
	<path fill-rule="evenodd" clip-rule="evenodd" fill="#EA7185" d="M56.95,15.275c4.065,0,8.13,0,12.195,0c0,0.017,0,0.033,0,0.05
		c-4.066,0-8.133,0-12.2,0C56.947,15.309,56.949,15.292,56.95,15.275z"/>
	<path fill-rule="evenodd" clip-rule="evenodd" fill="#EB7289" d="M69.146,12.879c-4.066,0-8.133,0-12.199,0
		c0-0.015,0-0.029,0-0.044c4.066,0,8.133,0,12.199,0C69.146,12.85,69.146,12.865,69.146,12.879z"/>
	<path fill-rule="evenodd" clip-rule="evenodd" fill="#FEFEFE" d="M71.168,52.855c0.508-0.39,0.923-0.893,1.482-1.22
		c0.141-0.083,0.259-0.237,0.45-0.113c0.229,0.965,0.618,1.865,1.099,2.729c0.082,0.146,0.219,0.284,0.127,0.467
		c-0.554,1.099-1.072,2.217-1.776,3.408C72.626,56.124,72.265,54.389,71.168,52.855z"/>
	<path fill-rule="evenodd" clip-rule="evenodd" fill="#FEFEFE" d="M69.658,56.109c0.288-0.568,0.261-1.241,0.594-1.796
		c0.093-0.154,0.122-0.355,0.312-0.44c0.09,1.556,0.751,2.899,1.593,4.164c0.206,0.31,0.228,0.539,0.037,0.86
		c-0.542,0.912-1.05,1.845-1.636,2.761c0.066-1.278-0.163-2.5-0.49-3.707c0.21-0.56,0.063-1.064-0.245-1.539
		C69.76,56.314,69.658,56.241,69.658,56.109z"/>
	<path fill-rule="evenodd" clip-rule="evenodd" fill="#F5C4CD" d="M74.642,53.657c0.03,0.096-0.019,0.219,0.097,0.285
		c-0.02,0.077-0.078,0.204-0.133,0.144C74.493,53.959,74.534,53.794,74.642,53.657z"/>
	<path fill-rule="evenodd" clip-rule="evenodd" fill="#F9E5FE" d="M46.744,34.403c-0.454,1.32-1.107,2.535-1.955,3.644
		c-0.292,0.383-0.688,0.647-1.095,0.892c-0.915,0.548-1.754,1.206-2.628,1.813c-0.102,0.071-0.26,0.117-0.224,0.298
		c-0.122,0.251-0.313,0.27-0.542,0.159c-0.163-1.378-0.326-2.757-0.486-4.136c-0.065-0.556-0.112-1.113-0.189-1.667
		c-0.039-0.281,0.002-0.432,0.332-0.474C42.211,34.647,44.468,34.406,46.744,34.403z"/>
	<path fill-rule="evenodd" clip-rule="evenodd" fill="#EC798E" d="M35.614,30.065c0.185,0.083,0.264,0.288,0.202,0.414
		c-0.201,0.407,0.052,0.683,0.222,0.981c1.064,1.876,1.541,3.931,1.819,6.04c0.133,1.005,0.195,2.02,0.289,3.03
		c-0.441-0.022-0.876-0.083-1.298-0.218c0.041-2.896-0.245-5.75-1.102-8.532c-0.125-0.406-0.263-0.803-0.525-1.145
		C35.389,30.472,35.385,30.188,35.614,30.065z"/>
	<path fill-rule="evenodd" clip-rule="evenodd" fill="#BF881F" d="M30.028,38.759c-0.028-0.842,0.29-1.623,0.429-2.435
		c0.124-0.724,0.129-1.449,0.004-2.169c-0.078-0.448,0.144-0.855,0.069-1.376c0.426,0.316,0.471,0.737,0.608,1.098
		c0.263,0.69,0.161,1.437,0.301,2.15c0.174,0.893,0.323,1.792,0.478,2.688c0.026,0.149,0.03,0.302,0.041,0.454
		c0.02,0.276-0.097,0.356-0.37,0.297c-0.494-0.108-0.994-0.188-1.491-0.279C30.024,39.052,29.921,38.922,30.028,38.759z"/>
	<path fill-rule="evenodd" clip-rule="evenodd" fill="#A8615B" d="M40.301,41.209c0.176-0.068,0.384-0.026,0.542-0.16
		c0.487-0.006,0.974-0.032,1.459-0.011c0.199,0.009,0.546-0.016,0.362,0.392c-1.034,0.285-1.842,1.085-2.916,1.28
		c-0.185-0.029-0.351-0.093-0.459-0.258c-0.011-0.348,0.142-0.661,0.23-0.984C39.638,41.029,40.049,41.331,40.301,41.209z"/>
	<path fill-rule="evenodd" clip-rule="evenodd" fill="#9A5B53" d="M39.288,42.452c0.162,0.016,0.304,0.072,0.414,0.197
		c-0.014,0.177-0.077,0.331-0.208,0.453c-0.142,0.047-0.245,0.004-0.307-0.133c-0.003-0.071-0.006-0.143-0.009-0.213
		C39.204,42.65,39.19,42.531,39.288,42.452z"/>
	<path fill-rule="evenodd" clip-rule="evenodd" fill="#F5C994" d="M30.028,38.759c0.023,0.143,0.046,0.285,0.069,0.428
		C29.773,39.093,29.939,38.919,30.028,38.759z"/>
	<path fill-rule="evenodd" clip-rule="evenodd" fill="#FEFEFE" d="M51.84,30.111c0.021,0.062,0.052,0.123,0.061,0.187
		c0.072,0.53,0.178,0.597,0.692,0.415c0.479-0.17,0.931-0.396,1.369-0.651c0.115-0.067,0.22-0.16,0.369-0.14
		c-1.279,1.683-1.566,3.678-1.779,5.692c-0.134,1.264-0.212,2.533-0.209,3.805c0,0.254-0.039,0.398-0.332,0.438
		c-0.789,0.107-1.575,0.232-2.356,0.379c-0.302,0.057-0.344-0.062-0.344-0.311c0.002-0.677-0.011-1.355-0.018-2.032
		c0.093-0.168-0.007-0.364,0.076-0.533c0.238-1.467,0.433-2.941,0.8-4.385c0.014-0.324,0.076-0.633,0.271-0.902
		C50.874,31.395,51.169,30.619,51.84,30.111z"/>
	<path fill-rule="evenodd" clip-rule="evenodd" fill="#D58A84" d="M39.488,43.065c-0.006-0.178,0.044-0.328,0.213-0.416
		c0.639-0.313,1.343-0.473,1.912-0.959c0.26-0.222,0.67-0.288,1.05-0.26c0.48-0.004,0.643,0.273,0.689,0.712
		c0.045,0.414,0.152,0.821,0.231,1.231c0,0.092,0.001,0.183,0.001,0.273c-0.107,0.182-0.3,0.21-0.477,0.267
		c-0.624-0.019-1.066,0.384-1.556,0.675c-0.387,0.242-0.693,0.07-0.982-0.191c-0.117-0.108-0.206-0.23-0.189-0.401
		c0.159-0.21,0.409-0.242,0.563-0.34c-0.199,0.038-0.405,0.226-0.654,0.303C39.802,43.858,39.677,43.434,39.488,43.065z"/>
	<path fill-rule="evenodd" clip-rule="evenodd" fill="#3D3277" d="M55.245,35.646c0.2,1.113,0.128,2.146,0.16,3.176
		c0.011,0.349-0.12,0.488-0.436,0.534c-0.4,0.057-0.802,0.108-1.194,0.199c-0.343,0.079-0.297-0.054-0.207-0.28
		c0.375-0.944,0.773-1.878,1.245-2.778C54.949,36.236,54.98,35.918,55.245,35.646z"/>
	<path fill-rule="evenodd" clip-rule="evenodd" fill="#39427A" d="M50.44,32.072c-0.09,0.3-0.181,0.601-0.271,0.902
		C50.033,32.605,50.172,32.319,50.44,32.072z"/>
	<path fill-rule="evenodd" clip-rule="evenodd" fill="#E8D9EF" d="M46.853,40.539c0.129-0.04,0.223-0.224,0.368-0.139
		c0.071,0.042,0.05,0.179-0.065,0.234C47.043,40.639,46.888,40.778,46.853,40.539z"/>
	<path fill-rule="evenodd" clip-rule="evenodd" fill="#AF9FC7" d="M46.853,40.539c0.072,0.122,0.202,0.06,0.303,0.095
		c-0.107,0.031-0.214,0.069-0.324,0.09c-0.055,0.011-0.15,0.018-0.129-0.078C46.713,40.601,46.8,40.574,46.853,40.539z"/>
	<path fill-rule="evenodd" clip-rule="evenodd" fill="#5A5C8F" d="M49.369,37.359c0.018,0.184,0.014,0.365-0.076,0.533
		C49.283,37.709,49.227,37.52,49.369,37.359z"/>
	<path fill-rule="evenodd" clip-rule="evenodd" fill="#EBC8F3" d="M66.688,61.012c-0.988,0.471-2.002,0.878-3.049,1.2
		c0-0.176,0.018-0.348,0.114-0.501c0.439-0.417,0.983-0.712,1.372-1.188c0.16-0.195,0.354-0.366,0.354-0.647
		c0.397-0.12,0.791-0.29,1.215-0.106C66.693,60.184,66.69,60.598,66.688,61.012z"/>
	<path fill-rule="evenodd" clip-rule="evenodd" fill="#F9E4FD" d="M65.48,59.876c0.281,0.045,0.162,0.176,0.067,0.305
		c-0.479,0.649-1.032,1.212-1.794,1.53C64.051,60.837,64.605,60.206,65.48,59.876z"/>
	<path fill-rule="evenodd" clip-rule="evenodd" fill="#EAC5F1" d="M67.819,60.389c-0.102-0.171-0.204-0.343-0.306-0.514
		c0.256-0.186,0.55-0.059,0.823-0.097C68.234,60.041,67.891,60.1,67.819,60.389z"/>
	<path fill-rule="evenodd" clip-rule="evenodd" fill="#FDFDFD" d="M24.268,17.075c-1.918,0-3.836,0-5.755-0.001
		c-0.228,0-0.534,0.066-0.43-0.339c0.075-0.294-0.267-0.796,0.429-0.793c3.837,0.012,7.673,0.013,11.509-0.003
		c0.512-0.002,0.414,0.307,0.421,0.6c0.008,0.297,0.043,0.553-0.42,0.548C28.104,17.062,26.186,17.075,24.268,17.075z"/>
	<path fill-rule="evenodd" clip-rule="evenodd" fill="#FDFDFD" d="M24.273,13.499c1.898,0,3.797,0.017,5.695-0.012
		c0.507-0.008,0.476,0.257,0.48,0.6c0.004,0.344-0.013,0.555-0.474,0.552c-3.813-0.019-7.628-0.02-11.441,0
		c-0.485,0.002-0.457-0.249-0.454-0.571c0.003-0.314-0.045-0.586,0.447-0.58C20.442,13.515,22.358,13.499,24.273,13.499z"/>
	<path fill-rule="evenodd" clip-rule="evenodd" fill="#B881D0" d="M18.215,15.787c4.028,0,8.056,0,12.083,0c0,0.012,0,0.025,0,0.038
		c-4.028,0-8.056,0-12.083,0C18.215,15.812,18.215,15.799,18.215,15.787z"/>
	<path fill-rule="evenodd" clip-rule="evenodd" fill="#B680CE" d="M30.296,13.399c-4.019,0-8.038,0-12.057,0c0-0.017,0-0.033,0-0.05
		c4.025,0,8.051,0,12.077,0C30.309,13.366,30.302,13.383,30.296,13.399z"/>
	<path fill-rule="evenodd" clip-rule="evenodd" fill="#FEFEFE" d="M52.43,44.798c0.096,1.044,0.183,2.089,0.388,3.117
		c0.062,0.318-0.053,0.379-0.329,0.368c-0.388-0.015-0.777-0.005-1.165-0.006c-0.693,0.187-1.335,0.101-1.908-0.355
		c-0.182-0.797-0.056-1.605-0.084-2.409c0.023-0.373,0.002-0.747,0.014-1.12c0.018-0.518,0.125-0.644,0.623-0.663
		c0.679-0.027,1.358,0.005,2.037-0.017c0.32-0.011,0.408,0.133,0.39,0.431C52.381,44.36,52.347,44.584,52.43,44.798z"/>
	<path fill-rule="evenodd" clip-rule="evenodd" fill="#211A4D" d="M49.488,47.945c0.583,0.27,1.219,0.245,1.835,0.332
		c0.386,0.179,0.796,0.077,1.193,0.086c0.25,0.006,0.39,0.099,0.418,0.334c0.066,0.533,0.234,1.052,0.224,1.596
		c0.046,0.345-0.126,0.426-0.443,0.421c-1.076-0.019-2.155,0.032-3.228-0.107c-0.125-0.112-0.149-0.264-0.155-0.417
		c-0.02-0.609-0.02-1.219,0.001-1.828C49.338,48.208,49.363,48.057,49.488,47.945z"/>
	<path fill-rule="evenodd" clip-rule="evenodd" fill="#DFE1EA" d="M52.43,44.798c-0.026-0.042-0.063-0.081-0.076-0.128
		c-0.073-0.265,0.125-0.64-0.131-0.787c-0.199-0.115-0.525-0.004-0.795-0.002c-0.474,0.004-0.948,0.029-1.419-0.008
		c-0.44-0.035-0.556,0.142-0.524,0.55c0.028,0.368-0.007,0.741-0.015,1.112c-0.433-0.529-0.281-1.091-0.094-1.654
		c-0.025-0.255,0.125-0.353,0.345-0.39c0.188-0.116,0.383-0.076,0.578-0.024c0.488-0.022,0.982-0.009,1.464-0.079
		c0.468-0.068,0.701,0.042,0.66,0.548c-0.01,0.115,0.019,0.234,0.029,0.352C52.445,44.458,52.438,44.628,52.43,44.798z"/>
	<path fill-rule="evenodd" clip-rule="evenodd" fill="#00254A" d="M33.812,74.578c-0.58,0.125-1.164,0.117-1.75,0.068
		c0.011-3.014-0.332-6.02-0.202-9.035c0.059-1.383,0.158-2.765,0.195-4.148c0.039-1.423-0.251-2.817-0.451-4.217
		c-0.265-1.852-0.68-3.686-0.565-5.577c0.024-0.404,0.154-0.796,0.112-1.208c-0.024-0.24,0.136-0.281,0.335-0.235
		c1.644,0.378,3.314,0.391,4.988,0.388c0.731-0.002,1.442-0.146,2.163-0.202c0.237-0.02,0.225-0.224,0.351-0.315
		c0.056,0.067,0.063,0.136,0.003,0.206c0,0.593-0.016,1.188,0.002,1.78c0.068,2.339-0.092,4.674-0.128,7.011
		c-0.026,1.653-0.118,3.309-0.188,4.962c-0.075,1.771-0.174,3.54-0.307,5.306c-0.112,1.497-0.303,2.988-0.298,4.493
		c0.001,0.203-0.013,0.408,0.101,0.592c-0.446,0.291-0.939,0.242-1.431,0.202c-0.437,0.007-0.559-0.268-0.602-0.642
		c-0.117-1.027-0.212-2.061-0.236-3.089c-0.03-1.27-0.175-2.537-0.126-3.808c0.055-1.442-0.172-2.88-0.09-4.317
		c0.077-1.338,0.106-2.675,0.081-4.013c-0.034-1.729-0.279-3.442-0.423-5.163c-0.005-0.068-0.017-0.137-0.044-0.198
		c-0.04-0.089-0.067-0.21-0.201-0.184c-0.099,0.02-0.106,0.121-0.115,0.203c-0.028,0.271,0.01,0.54,0.033,0.811
		c0.108,1.266,0.018,2.538,0.11,3.805c-0.097,0.297-0.068,0.603-0.067,0.906c0.003,1.42,0.064,2.841-0.027,4.261
		c-0.031,0.147-0.087,0.292-0.076,0.447c0.099,1.304-0.038,2.604-0.105,3.9c-0.114,2.192-0.113,4.391-0.325,6.578
		C34.409,74.486,34.178,74.644,33.812,74.578z"/>
	<path fill-rule="evenodd" clip-rule="evenodd" fill="#EFA426" d="M39.488,43.065c0.394,0.152,0.349,0.748,0.826,0.815
		c0.04,0.031,0.099,0.042,0.107,0.104c0.062,0.1,0.125,0.198,0.188,0.298c0.205,0.292,0.211,0.641,0.249,0.973
		c0.126,1.146,0.247,2.29,0.364,3.437c0.062,0.604-0.042,0.745-0.651,0.844c-0.334,0.055-0.671,0.094-1.005,0.149
		c-0.059,0.015-0.118,0.023-0.178,0.03c-0.4-0.033-0.813,0.238-1.203-0.049c0.007-0.684,0.052-1.368-0.047-2.048
		c-0.152-0.19-0.114-0.416-0.115-0.632c-0.003-0.927-0.011-1.854,0.003-2.779c0.006-0.41,0.002-0.784-0.504-0.895
		c-0.052-0.012-0.057-0.078-0.069-0.126c0.316-0.027,0.624-0.017,0.94,0.056c0.296,0.067,0.636,0.122,0.794-0.274
		C39.288,43.001,39.388,43.033,39.488,43.065z"/>
	<path fill-rule="evenodd" clip-rule="evenodd" fill="#FEFEFE" d="M37.452,43.188c0.753,0.123,0.752,0.123,0.739,0.947
		c-0.019,1.161-0.037,2.322-0.055,3.484c-1.208,0.431-2.458,0.363-3.707,0.322c0.189-1.419,0.377-2.838,0.566-4.257
		c0.001-0.423,0.184-0.576,0.628-0.536C36.229,43.204,36.842,43.179,37.452,43.188z"/>
	<path fill-rule="evenodd" clip-rule="evenodd" fill="#00254A" d="M38.184,49.667c0.412,0.116,0.802-0.136,1.21-0.068
		c0.131,0.466-0.162,0.347-0.406,0.294C38.732,49.778,38.321,50.211,38.184,49.667z"/>
	<path fill-rule="evenodd" clip-rule="evenodd" fill="#113056" d="M38.989,49.893c0.161-0.063,0.445,0.045,0.406-0.294
		c0.027-0.014,0.056-0.02,0.087-0.017c0.211,0.236,0.205,0.476,0.012,0.718c-0.167,0.001-0.334,0.001-0.502,0.001
		c-0.001-0.068-0.002-0.137-0.003-0.205C38.989,50.028,38.989,49.96,38.989,49.893z"/>
	<path fill-rule="evenodd" clip-rule="evenodd" fill="#BC746D" d="M54.994,25.295c0.043-0.412,0.471-0.913,0.737-0.837
		c0.167,0.047,0.283,0.177,0.258,0.381c-0.046,0.363-0.521,0.831-0.807,0.797C54.954,25.608,54.994,25.443,54.994,25.295z"/>
	<path fill-rule="evenodd" clip-rule="evenodd" fill="#FCFAFA" d="M50.924,26.857c0.01-0.181-0.511-0.249-0.109-0.513
		c0.217,0.028,0.433,0.063,0.649,0.083c0.2,0.019,0.401,0.021,0.609,0.031C51.797,26.967,51.483,27.073,50.924,26.857z"/>
	<path fill-rule="evenodd" clip-rule="evenodd" fill="#8E4D47" d="M32.765,25.574c0.007,0.125,0.006,0.241-0.166,0.254
		c-0.292,0.023-0.815-0.504-0.835-0.851c-0.011-0.194,0.054-0.339,0.279-0.337C32.368,24.644,32.743,25.131,32.765,25.574z"/>
	<path fill-rule="evenodd" clip-rule="evenodd" fill="#FAF8F7" d="M36.951,26.249c0.189,0.352-0.177,0.423-0.31,0.612
		c-0.525,0.084-0.663,0.032-1.12-0.447C36.009,26.3,36.499,26.407,36.951,26.249z"/>
	<path fill-rule="evenodd" clip-rule="evenodd" fill="#DB7678" d="M35.614,30.065c-0.137,0.187-0.153,0.457-0.394,0.572
		c-0.001-0.263,0.171-0.442,0.305-0.641C35.555,30.019,35.584,30.042,35.614,30.065z"/>
	<path fill-rule="evenodd" clip-rule="evenodd" fill="#F9E5FE" d="M39.494,50.3c-0.004-0.238-0.008-0.478-0.012-0.718
		c0.381-0.068,0.76-0.17,1.144-0.197c0.417-0.03,0.528-0.175,0.473-0.604c-0.189-1.496-0.33-2.998-0.49-4.497
		c0.274,0.224,0.543,0.464,0.925,0.209c0.53-0.158,0.928-0.641,1.529-0.624c0.126-0.186,0.321-0.21,0.521-0.221
		c0.37,0.089,0.742,0.033,1.114,0.017c0.776-0.08,1.555-0.015,2.333-0.036c0.161-0.004,0.223,0.061,0.268,0.226
		c0.14,0.502,0.122,1.009,0.079,1.514c-0.153,1.788-0.288,3.577-0.4,5.368c-0.038,0.61-0.037,0.607,0.585,0.768
		c0.225,0.059,0.479,0.07,0.6,0.325c-0.229,4.566-0.068,9.123,0.369,13.672c0.034,0.354,0.037,0.711,0.055,1.065
		c0.105,0.3-0.062,0.462-0.289,0.611c-0.17,0.112-0.38,0.122-0.545,0.238c-2.062,0.218-3.906,0.084-8.74,1.973
		c-0.014-0.188-0.027-0.367-0.041-0.547c0.214-2.909,0.479-5.815,0.629-8.728C39.771,56.843,39.736,53.569,39.494,50.3z"/>
	<path fill-rule="evenodd" clip-rule="evenodd" fill="#443881" d="M48.163,51.828c-0.375-0.097-0.747-0.213-1.128-0.282
		c-0.245-0.045-0.289-0.155-0.271-0.38c0.148-1.858,0.294-3.717,0.427-5.575c0.038-0.54,0.022-1.084,0.053-1.625
		c0.016-0.284-0.108-0.333-0.36-0.326c-0.728,0.021-1.456,0.018-2.184,0.024c0.811-0.196,1.748-0.309,2.42-0.019
		c0.796,0.346,1.521,0.083,2.257,0.235c0.068,0.549-0.024,1.107,0.094,1.654c0.007,0.803,0.013,1.606,0.019,2.41
		c0,0.887-0.001,1.773-0.001,2.661c-0.002,0.317-0.022,0.637,0,0.952c0.03,0.418-0.104,0.571-0.516,0.393
		c-0.058-0.024-0.132-0.014-0.198-0.019C48.57,51.896,48.379,51.795,48.163,51.828z"/>
	<path fill-rule="evenodd" clip-rule="evenodd" fill="#2E2467" d="M59.146,36.756c0,0.47-0.001,0.94-0.002,1.411
		C59.018,37.697,59.014,37.227,59.146,36.756z"/>
	<path fill-rule="evenodd" clip-rule="evenodd" fill="#2F2467" d="M50.299,43.467c-0.192,0.008-0.386,0.017-0.578,0.024
		c-0.077-0.016-0.154-0.03-0.232-0.046C49.766,43.399,50.042,43.284,50.299,43.467z"/>
	<path fill-rule="evenodd" clip-rule="evenodd" fill="#F9E4FD" d="M18.695,33.882c0.712,0.55,1.328,0.557,1.933-0.008
		c-0.157,0.426-0.414,0.717-0.88,0.73C19.29,34.618,18.908,34.479,18.695,33.882z"/>
	<path fill-rule="evenodd" clip-rule="evenodd" fill="#F8E2FD" d="M18.966,32.884c0.225-0.007,0.306,0.124,0.321,0.285
		c0.014,0.147-0.108,0.202-0.235,0.211c-0.173,0.013-0.312-0.054-0.319-0.245C18.726,32.973,18.844,32.901,18.966,32.884z"/>
	<path fill-rule="evenodd" clip-rule="evenodd" fill="#F9E5FD" d="M20.297,32.887c0.17,0.033,0.242,0.132,0.243,0.285
		c0.002,0.147-0.08,0.213-0.22,0.207c-0.153-0.007-0.261-0.085-0.265-0.243C20.051,32.977,20.16,32.903,20.297,32.887z"/>
	<path fill-rule="evenodd" clip-rule="evenodd" fill="#F9E4FD" d="M68.12,34.623c-0.127,0.595-0.549,0.735-0.956,0.776
		c-0.482,0.049-0.797-0.273-1.003-0.724C66.803,35.163,67.432,35.181,68.12,34.623z"/>
	<path fill-rule="evenodd" clip-rule="evenodd" fill="#F8E3FD" d="M66.498,33.695c0.148,0.011,0.293,0.059,0.267,0.227
		c-0.024,0.153-0.151,0.265-0.321,0.264c-0.129,0-0.223-0.084-0.229-0.219C66.207,33.776,66.331,33.708,66.498,33.695z"/>
	<path fill-rule="evenodd" clip-rule="evenodd" fill="#F9E4FD" d="M68.024,33.918c-0.011,0.153-0.086,0.264-0.244,0.266
		c-0.155,0.002-0.254-0.095-0.243-0.256c0.011-0.148,0.108-0.27,0.25-0.274C67.928,33.65,68.036,33.748,68.024,33.918z"/>
	<path fill-rule="evenodd" clip-rule="evenodd" fill="#F9E3FD" d="M43.896,16.86c0.887,0.574,1.29,0.58,1.95,0.085
		c-0.095,0.456-0.316,0.655-0.858,0.696C44.479,17.681,44.134,17.428,43.896,16.86z"/>
	<path fill-rule="evenodd" clip-rule="evenodd" fill="#F8E2FC" d="M44.576,16.165c-0.073,0.17-0.17,0.296-0.337,0.289
		c-0.159-0.007-0.229-0.155-0.218-0.288c0.014-0.16,0.132-0.288,0.303-0.264C44.459,15.92,44.536,16.047,44.576,16.165z"/>
	<path fill-rule="evenodd" clip-rule="evenodd" fill="#F9E4FD" d="M45.812,16.188c-0.011,0.153-0.086,0.264-0.244,0.267
		c-0.155,0.002-0.255-0.095-0.243-0.257c0.01-0.147,0.107-0.27,0.249-0.273C45.715,15.92,45.824,16.018,45.812,16.188z"/>
	<path fill-rule="evenodd" clip-rule="evenodd" fill="#1E1647" d="M51.77,74.261c-0.443,0.046-0.538-0.13-0.401-0.545
		c0.131-0.4,0.11-0.839,0.132-1.252c0.044-0.86,0.119-1.719,0.141-2.582c0.061-2.351,0.231-4.699,0.173-7.051
		c-0.029-1.184-0.112-2.366-0.081-3.551c0.052-2.023,0.24-4.036,0.493-6.045c0.039-0.311,0.224-0.226,0.381-0.258
		c0.237-0.048,0.261,0.123,0.237,0.279c-0.206,1.396,0.011,2.808-0.171,4.202c-0.023,0.186,0.079,0.325,0.07,0.493
		c-0.16,1.517-0.532,3.02-0.269,4.562c0.054,0.315,0.015,0.64,0.013,0.96c-0.04,1.233-0.103,2.465-0.155,3.696
		c-0.046,1.081-0.083,2.162-0.147,3.241c-0.069,1.181-0.035,2.367-0.219,3.541C51.944,74.083,51.913,74.208,51.77,74.261z"/>
	<path fill-rule="evenodd" clip-rule="evenodd" fill="#BC88D3" d="M51.852,74.043c0.167-3.534,0.333-7.069,0.499-10.604
		c0.119-0.112,0.235-0.238,0.409-0.085c0.137,0.871,0.093,1.753,0.133,2.63c0.098,2.176,0.252,4.35,0.259,6.53
		c-0.101,0.432-0.044,0.862-0.034,1.19c-0.033-0.102-0.058-0.306,0.053-0.509c0.156,0.304-0.128,0.793,0.397,0.941
		C52.984,74.312,52.417,74.199,51.852,74.043z"/>
	<path fill-rule="evenodd" clip-rule="evenodd" fill="#EAC7F3" d="M51.852,74.043c0.578-0.068,1.146,0.044,1.716,0.095
		c0.036,0.011,0.072,0.021,0.108,0.031c-0.041,0.125-0.083,0.25-0.124,0.375c-0.453-0.074-0.543,0.333-0.73,0.581
		c-0.205,0.271-0.371,0.561-0.689,0.728c-0.463,0.243-0.551,0.215-0.667-0.271c-0.02-0.082-0.042-0.164-0.063-0.247
		c-0.11-0.313-0.196-0.632-0.165-0.97c0.178-0.035,0.355-0.069,0.533-0.104C51.797,74.188,51.824,74.116,51.852,74.043z"/>
	<path fill-rule="evenodd" clip-rule="evenodd" fill="#F7E4FA" d="M52.76,63.354c-0.137,0.028-0.272,0.057-0.409,0.085
		c-0.152-1.69-0.155-3.375,0.232-5.04c0.034-0.15-0.026-0.348,0.16-0.447C52.749,59.753,52.755,61.554,52.76,63.354z"/>
	<path fill-rule="evenodd" clip-rule="evenodd" fill="#C690DC" d="M53.17,73.196c-0.014,0.213-0.028,0.427-0.042,0.641
		c-0.023-0.443-0.193-0.892,0.023-1.322C53.157,72.741,53.164,72.969,53.17,73.196z"/>
	<path fill-rule="evenodd" clip-rule="evenodd" fill="#EAC7F2" d="M47.753,67.415c0.097-0.205,0.317-0.235,0.482-0.345
		c0.185-0.122,0.366-0.243,0.352-0.504c0.105,0.275,0.073,0.564,0.076,0.85C48.36,67.416,48.057,67.415,47.753,67.415z"/>
	<path fill-rule="evenodd" clip-rule="evenodd" fill="#EAC7F3" d="M33.812,74.578c0.209-0.12,0.476-0.141,0.625-0.362
		c0.44-0.348,0.915-0.442,1.436-0.193c0.057,0.297,0.246,0.495,0.489,0.655c0.736,0.14,0.292,0.632,0.296,0.99
		c-0.022,0.046-0.052,0.089-0.066,0.137c-0.208,0.714-0.329,0.768-1.044,0.48c-0.347-0.14-0.564-0.396-0.771-0.698
		c-0.195-0.285-0.305-0.701-0.77-0.705C33.942,74.78,33.877,74.679,33.812,74.578z"/>
	<path fill-rule="evenodd" clip-rule="evenodd" fill="#05213E" d="M35.353,76.429c0.444,0.085,0.863,0.164,1.28,0.247
		c0.08,0.016,0.179,0.038,0.169,0.146c-0.008,0.092-0.086,0.136-0.171,0.159C36.351,77.06,35.56,76.731,35.353,76.429z"/>
	<path fill-rule="evenodd" clip-rule="evenodd" fill="#1C2C66" d="M52.184,76.075c-0.311,0.392-0.777,0.404-1.207,0.503
		c-0.08,0.019-0.178-0.026-0.193-0.124c-0.019-0.105,0.073-0.138,0.154-0.161C51.34,76.177,51.768,76.193,52.184,76.075z"/>
	<path fill-rule="evenodd" clip-rule="evenodd" fill="#071C4E" d="M55.604,76.392c-0.036,0.168,0.051,0.354-0.076,0.509
		c-0.292-0.169,0.096-0.349-0.009-0.521c0.015-0.005,0.03-0.015,0.044-0.013C55.578,76.369,55.591,76.383,55.604,76.392z"/>
	<path fill-rule="evenodd" clip-rule="evenodd" fill="#011D3F" d="M36.362,74.678c-0.563,0.092-0.549-0.298-0.558-0.668
		c-0.176-0.323-0.222-0.677-0.228-1.035c-0.009-0.645-0.062-1.287-0.087-1.93c-0.088-2.287-0.186-4.574-0.323-6.859
		c-0.006-0.102-0.001-0.203,0.008-0.305c-0.058-0.677,0.049-1.347,0.098-2.018c0.085-1.19-0.208-2.348-0.287-3.522
		c-0.007-0.101-0.034-0.2,0.03-0.292c-0.205-1.546,0-3.109-0.196-4.656c-0.019-0.15-0.076-0.373,0.159-0.424
		c0.193-0.041,0.377-0.064,0.464,0.233c0.135,0.463,0.115,0.939,0.166,1.403c0.253,2.336,0.43,4.682,0.311,7.032
		c-0.037,0.726-0.139,1.455-0.075,2.176c0.137,1.539,0.008,3.083,0.108,4.618c0.086,1.314,0.038,2.637,0.201,3.942
		c0.071,0.568,0.061,1.142,0.157,1.71c0.053,0.314,0.168,0.467,0.432,0.563C36.615,74.657,36.488,74.667,36.362,74.678z"/>
	<path fill-rule="evenodd" clip-rule="evenodd" fill="#A76662" d="M43.063,43.868c-0.548,0.114-0.936,0.622-1.529,0.624
		c0.383-0.387,0.888-0.547,1.375-0.74C43.02,43.708,43.054,43.773,43.063,43.868z"/>
	<path fill-rule="evenodd" clip-rule="evenodd" fill="#B7746E" d="M40.043,43.117c0.221-0.056,0.442-0.112,0.664-0.169
		c-0.167,0.248-0.398,0.27-0.625,0.308C40.069,43.209,40.056,43.163,40.043,43.117z"/>
	<path fill-rule="evenodd" clip-rule="evenodd" fill="#BA776D" d="M40.421,43.985c-0.036-0.034-0.071-0.069-0.107-0.104
		c0.232-0.109,0.465-0.219,0.697-0.328c0.015,0.032,0.03,0.064,0.045,0.096C40.845,43.761,40.633,43.873,40.421,43.985z"/>
	<path fill-rule="evenodd" clip-rule="evenodd" fill="#A2645F" d="M41.004,44.25c0.067-0.1,0.137-0.171,0.271-0.115
		C41.223,44.268,41.141,44.312,41.004,44.25z"/>
	<path fill-rule="evenodd" clip-rule="evenodd" fill="#EB788D" d="M35.322,63.87c0.161,3.38,0.321,6.761,0.482,10.14
		c-0.468-0.011-0.922,0.065-1.367,0.206c0.091-2.332,0.178-4.663,0.273-6.994c0.053-1.316,0.118-2.632,0.178-3.947
		C35.071,63.445,35.112,63.719,35.322,63.87z"/>
	<path fill-rule="evenodd" clip-rule="evenodd" fill="#F6E4FA" d="M35.322,63.87c-0.429,0.008-0.419-0.304-0.433-0.597
		c0.006-1.574,0.009-3.148,0.025-4.724c0.002-0.165-0.113-0.372,0.101-0.501C35.477,59.971,35.464,61.917,35.322,63.87z"/>
	<path fill-rule="evenodd" clip-rule="evenodd" fill="#FCF4FE" d="M44.101,58.457c0.09-0.413,0.185-0.766-0.166-1.027
		c-0.139-0.104-0.09-0.24,0.058-0.242c0.407-0.007,0.562-0.28,0.697-0.662c0.281,0.34,0.486,0.708,1.001,0.711
		c-0.25,0.327-0.526,0.599-0.308,1.007c0.054,0.1-0.059,0.241-0.151,0.143C44.856,57.992,44.508,58.287,44.101,58.457z"/>
</g>
</svg>
