<?xml version="1.0" encoding="utf-8"?>
<!-- Generator: Adobe Illustrator 16.0.0, SVG Export Plug-In . SVG Version: 6.00 Build 0)  -->
<!DOCTYPE svg PUBLIC "-//W3C//DTD SVG 1.1//EN" "http://www.w3.org/Graphics/SVG/1.1/DTD/svg11.dtd">
<svg version="1.1" id="Layer_1" xmlns="http://www.w3.org/2000/svg" xmlns:xlink="http://www.w3.org/1999/xlink" x="0px" y="0px"
	 width="85px" height="85px" viewBox="0 0 85 85" enable-background="new 0 0 85 85" xml:space="preserve">
<g>
	<g>
		<path fill="#E5E5E5" d="M42.431,31.041c21.666,0,39.305,19.584,39.305,19.584S64.097,70.207,42.431,70.207
			S3.126,50.625,3.126,50.625S20.765,31.041,42.431,31.041z"/>
		<path fill="#3289E8" d="M42.431,37.569c7.223,0,13.195,5.833,13.195,13.195s-5.834,13.193-13.195,13.193
			s-13.193-5.832-13.193-13.193C29.376,43.402,35.208,37.569,42.431,37.569z"/>
		<path fill="#F24754" d="M42.431,44.236c3.611,0,6.527,2.916,6.527,6.527s-2.916,6.527-6.527,6.527s-6.527-2.916-6.527-6.527l0,0
			C36.042,47.152,38.819,44.236,42.431,44.236z"/>
		<path d="M42.431,71.041c-21.805,0-39.584-19.723-39.723-19.861c-0.277-0.277-0.277-0.693,0-0.973
			c3.473-3.609,7.223-6.807,11.25-9.722c0.279-0.14,0.695-0.14,0.973,0.14c0.277,0.276,0.139,0.693-0.139,0.972
			c-3.889,2.64-7.361,5.695-10.555,9.029c2.777,2.916,19.027,18.889,38.332,18.889s35.555-15.973,38.334-18.889
			c-2.777-2.918-19.027-18.89-38.334-18.89c-5.973,0.14-11.945,1.39-17.361,4.027c-0.277,0.139-0.693,0-0.971-0.277
			c-0.279-0.277,0-0.694,0.277-0.973c5.693-2.639,11.668-4.027,17.918-4.167c21.803,0,39.582,19.723,39.859,19.862
			c0.277,0.277,0.277,0.693,0,0.973C82.013,51.318,64.097,71.041,42.431,71.041z M42.431,64.514c-7.639,0-13.889-6.25-13.889-13.889
			c0-7.64,6.25-13.89,13.889-13.89l0,0c7.639,0,13.889,6.25,13.889,13.89C56.319,58.402,50.069,64.514,42.431,64.514z
			 M42.431,38.263c-6.805,0-12.5,5.555-12.5,12.5c0,6.805,5.557,12.5,12.5,12.5c6.945,0,12.5-5.557,12.5-12.5
			C54.931,43.818,49.376,38.263,42.431,38.263L42.431,38.263z M42.431,57.848c-4.027,0-7.223-3.195-7.223-7.223
			c0-3.891,3.195-7.225,7.223-7.225l0,0c4.027,0,7.223,3.195,7.223,7.225C49.653,54.652,46.458,57.848,42.431,57.848z M42.431,44.93
			c-3.193,0-5.834,2.639-5.834,5.834c0,3.193,2.641,5.834,5.834,5.834c3.195,0,5.834-2.641,5.834-5.834
			C48.265,47.568,45.626,44.93,42.431,44.93L42.431,44.93z M18.681,38.958c-0.277,0-0.418-0.14-0.557-0.417
			s-0.139-0.694,0.279-0.973l1.943-1.11c0.277-0.14,0.695-0.14,0.973,0.277c0.139,0.277,0.139,0.694-0.277,0.973l-1.945,1.11
			C18.819,38.958,18.819,38.958,18.681,38.958z M42.431,25.208c-0.416,0-0.693-0.277-0.693-0.694v-9.861
			c0-0.416,0.277-0.693,0.693-0.693l0,0c0.416,0,0.695,0.277,0.695,0.693v9.861C43.126,24.93,42.847,25.208,42.431,25.208
			L42.431,25.208z M29.376,25.208c-0.139,0-0.418,0-0.557-0.14l-5.973-5.973c-0.275-0.277-0.275-0.694,0-0.972
			c0.279-0.278,0.695-0.278,0.973,0l5.973,5.972c0.279,0.278,0.279,0.694,0,0.973C29.653,25.069,29.515,25.208,29.376,25.208z
			 M55.485,25.208c-0.139,0-0.416,0-0.555-0.14c-0.277-0.277-0.277-0.693,0-0.973l5.973-5.972c0.277-0.278,0.693-0.278,0.973,0
			c0.277,0.276,0.277,0.693,0,0.972l-5.973,5.973C55.903,25.069,55.626,25.208,55.485,25.208z"/>
	</g>
</g>
</svg>
