<?xml version="1.0" encoding="utf-8"?>
<!-- Generator: Adobe Illustrator 16.0.0, SVG Export Plug-In . SVG Version: 6.00 Build 0)  -->
<!DOCTYPE svg PUBLIC "-//W3C//DTD SVG 1.1//EN" "http://www.w3.org/Graphics/SVG/1.1/DTD/svg11.dtd">
<svg version="1.1" id="Layer_1" xmlns="http://www.w3.org/2000/svg" xmlns:xlink="http://www.w3.org/1999/xlink" x="0px" y="0px"
	 width="85px" height="85px" viewBox="0 0 85 85" enable-background="new 0 0 85 85" xml:space="preserve">
<g>
	<path opacity="0.5" fill="#FFFFFF" enable-background="new    " d="M28.796,7.666l7.996,4.357l11.96,0.326l7.416-4.338l1.055,2.816
		c0,0,4.666,12.588,4.311,19.629c-0.326,6.594-1.135,12.428-7.215,17.694c-4.578,3.957-9.148,4.312-9.148,4.312l0.086,13.469
		c0,0,5.986,0.268,9.504,2.549c3.178,2.062,3.699,4.053,3.699,5.367c0,1.32-1.236,8.096-16.193,7.922s-15.844-7.48-15.844-8.803
		s1.415-3.865,5.633-5.461c3.959-1.494,7.395-1.32,7.395-1.32V52.203c0,0-5.545-1.408-9.77-5.461
		c-2.611-2.502-6.955-8.182-6.334-17.426C23.877,21.214,28.796,7.666,28.796,7.666L28.796,7.666z"/>
	<path opacity="0.7" fill="#E0E0E0" enable-background="new    " d="M28.796,7.666l3.171-2.904l4.924-1.582l11.354,0.088
		l5.191,2.201l2.729,2.551l1.057,2.816c0,0,4.666,12.588,4.311,19.629c-0.326,6.594-1.135,12.428-7.215,17.692
		c-4.578,3.959-9.148,4.312-9.148,4.312l0.039,13.441c0,0,6.021,0.689,9.545,2.979c3.178,2.061,3.705,3.648,3.705,4.973
		c0,1.32-1.236,8.096-16.193,7.922s-15.845-7.48-15.845-8.803s1.415-3.865,5.634-5.461c3.957-1.494,7.348-1.602,7.348-1.602
		l0.047-13.709c0,0-5.547-1.408-9.771-5.459c-2.609-2.504-6.955-8.184-6.334-17.428C23.877,21.214,28.796,7.666,28.796,7.666
		L28.796,7.666z"/>
	<path fill="#D4D4D4" d="M38.975,52.516c-0.194-0.059-4.52-1.107-7.455-3.402c-5.713-4.473-8.424-9.405-8.771-15.985
		c-0.207-3.885,1.388-10.486,2.522-15.111c1.162-4.711,2.562-8.236,2.576-8.275c0,0,0.188-0.533,0.387-0.434
		c0.421,0.213,0,2.068,0,2.068c-0.32,1.188-0.627,2.311-1.762,6.955c-1.115,4.545-2.576,11.014-2.383,14.717
		c0.327,6.162,2.87,10.793,8.256,15.004c2.736,2.143,6.213,2.982,6.688,3.211c0.474,0.227,1.089,0.334,1.001,0.941
		C39.941,52.83,38.975,52.516,38.975,52.516z"/>
	<path fill="#9E9E9E" d="M45.668,52.684c-0.5,0.047-0.988-0.041-1.027-0.527c-0.053-0.602,0.693-0.641,0.693-0.641
		c0.494-0.182,3.023-0.387,5.525-1.889c7.055-4.232,10.473-10.874,10.031-19.483C60.277,18.269,55.619,9.226,55.572,9.14
		l0.881-1.295c0.047,0.094,5.141,10.064,5.773,22.23c0.473,9.139-2.938,16.219-10.445,20.719
		C49.045,52.436,45.928,52.656,45.668,52.684L45.668,52.684z"/>
	<path fill="#C8C8C8" d="M43.34,14.4c-0.168,0-0.334,0-0.5-0.006c-5.873-0.088-10.895-1.742-13.322-4.092
		c-0.869-0.834-0.988-1.414-1.035-2.336c-0.086-1.582,1.795-5.533,14.055-5.465c8.084,0.039,14.084,2.543,14.117,5.68
		c0.014,0.947-0.152,1.721-1.055,2.615C53.297,13.058,48.732,14.4,43.34,14.4z M41.938,4.16C33.9,4.228,30.457,6.443,30.491,7.878
		c0.006,0.367,0.032,0.574,0.474,1.027c1.602,1.668,5.907,3.393,11.906,3.479c5.98,0.1,9.779-1.502,11.326-3.031
		c0.502-0.486,0.754-0.646,0.754-1.035c0-1.514-3.25-3.963-11.846-4.15C42.711,4.167,42.318,4.16,41.938,4.16L41.938,4.16z"/>
	<path fill="#FFFFFF" d="M43.467,12.945c-0.541,0-1.109-0.014-1.695-0.047c-9.344-0.494-11.16-4.238-11.246-4.412
		c-0.16-0.334-0.233-0.98,0.02-1.055c0.34-0.1,0.521,0.199,0.868,0.52c0.562,0.521,2.583,3.225,11.026,3.418
		c8.275,0.193,10.939-2.33,11.426-2.77c0.367-0.334,0.754-1.029,1.062-0.828c0.307,0.199,0.146,1-0.033,1.314
		C54.611,9.568,52.523,12.945,43.467,12.945L43.467,12.945z"/>
	<path fill="#9E9E9E" d="M42.445,52.99c-1.436,0-1.143,1.102-1.215,8.424c-0.053,5.84,0.553,6.881,1.154,6.939
		c0.607,0.055,1.154-0.387,1.154-6.553C43.547,54.645,43.766,52.99,42.445,52.99L42.445,52.99z"/>
	<path fill="#FFFFFF" d="M44.66,66.547c-0.549,0.047,0.047,1.24-0.693,2.188c-0.588,0.748-1.689,1.195-1.643,2.035
		c0.045,0.848,4.371,0.301,4.371-1.293c0-0.621-0.453-1.055-0.895-1.643C45.361,67.248,44.934,66.52,44.66,66.547L44.66,66.547z"/>
	<path fill="#9E9E9E" d="M34.669,72.559c0,0,1.902,2.551,7.763,2.604c5.912,0.055,7.375-1.734,7.596-2.441
		c0.16-0.535-1.844-3.33-2.09-3.285c-0.246,0.047-0.895,2.645-5.467,2.479c-4.572-0.168-4.691-1.963-5.059-2.305
		C37.118,69.336,34.669,72.559,34.669,72.559L34.669,72.559z"/>
	<path fill="#FFFFFF" d="M29.203,71.318c-1.482,0.193-1.549,1.914-0.594,3.479c1.936,3.184,8.363,5.357,8.697,3.629
		c0.299-1.541-3.078-1.936-2.738-4.523c0.248-1.889,3.632-3.631,2.684-4.627c-0.941-0.994-2.383,1.342-4.324,1.789
		C31.232,71.459,30.344,71.172,29.203,71.318L29.203,71.318z"/>
	<path fill="#CACACA" d="M50.674,68.781c-0.828,0.66,1.643,1.342,1.541,3.377c-0.1,2.035-2.137,2.918-1.74,3.479
		c0.594,0.848,4.098-0.947,3.977-3.73C54.352,69.631,51.422,68.188,50.674,68.781L50.674,68.781z"/>
	<path fill="#FFFFFF" d="M49.779,78.18c0.299,0.939,4.25,0.533,6.113-2.137c1.936-2.783,0.594-5.119-0.146-4.873
		c-0.748,0.248,0.301,1.988-1.59,3.826C52.262,76.832,49.445,77.125,49.779,78.18L49.779,78.18z"/>
	<path fill="#9E9E9E" d="M26.426,72.881c-0.173-0.16-0.486,1.414,0.041,2.709c0.446,1.096,2.736,6.809,16.451,6.908
		c15.258,0.113,16.037-6.428,15.846-8.258c-0.127-1.207-0.361-1.621-0.48-1.621c-0.113-0.006-0.232,1.068-0.334,1.648
		c-0.32,1.816-2.109,6.395-14.783,6.494c-11.533,0.094-14.91-4.625-15.504-5.467C27.24,74.695,26.525,72.973,26.426,72.881
		L26.426,72.881z"/>
	<path fill="#CC1935" d="M25.405,31.732l2.049,5.58l7.515,4.045l9.619,1.815l9.562-8.311l3.357-4.951c0,0-3.297-1.402-7.021-1.949
		c-5.807-0.854-10.74-1.066-16.545,0.014C26.807,29.302,25.405,31.732,25.405,31.732L25.405,31.732z"/>
	
		<radialGradient id="SVGID_1_" cx="-490.3779" cy="-301.5791" r="25.2815" gradientTransform="matrix(-0.0018 0.6674 -0.6954 -0.0019 -168.0432 359.5697)" gradientUnits="userSpaceOnUse">
		<stop  offset="0.404" style="stop-color:#AF0D1A"/>
		<stop  offset="0.535" style="stop-color:#AB0C19"/>
		<stop  offset="0.667" style="stop-color:#9F0B17"/>
		<stop  offset="0.801" style="stop-color:#8A0813"/>
		<stop  offset="0.935" style="stop-color:#6E050D"/>
		<stop  offset="0.96" style="stop-color:#68040C"/>
	</radialGradient>
	<path fill="url(#SVGID_1_)" d="M38.553,40.156c6.715,0.227,7.629-3.697,13.096-7.568c5.465-3.871,7.682-2.73,7.682-2.73
		s1.836,8.322-4.498,14.911c-5.521,5.746-15.631,7.475-23.613,0.715c-5.921-5.014-5.813-13.75-5.813-13.75
		S30.07,39.869,38.553,40.156L38.553,40.156z"/>
	<path fill="#FFFFFF" d="M29.964,13.171c0,0-0.94,2.65-2.129,7.963c-1.021,4.564-1.44,7.469-1.44,7.469s2.148-1.068,4.545-1.695
		c2.168-0.566,4.045-0.455,4.045-0.455s-0.061-3.477,0.227-5.986c0.232-2.068,0.741-4.732,0.741-4.732s-1.882-0.453-3.022-0.967
		C31.785,14.253,29.964,13.171,29.964,13.171L29.964,13.171z"/>
</g>
</svg>
