<?xml version="1.0" encoding="utf-8"?>
<!-- Generator: Adobe Illustrator 16.0.0, SVG Export Plug-In . SVG Version: 6.00 Build 0)  -->
<!DOCTYPE svg PUBLIC "-//W3C//DTD SVG 1.1//EN" "http://www.w3.org/Graphics/SVG/1.1/DTD/svg11.dtd">
<svg version="1.1" id="Layer_1" xmlns="http://www.w3.org/2000/svg" xmlns:xlink="http://www.w3.org/1999/xlink" x="0px" y="0px"
	 width="85px" height="85px" viewBox="0 0 85 85" enable-background="new 0 0 85 85" xml:space="preserve">
<g>
	<path fill-rule="evenodd" clip-rule="evenodd" d="M71.549,17.326c0.807,0.307,0.898,0.966,0.898,1.717
		c-0.008,14.005-0.006,28.01-0.006,42.015c0,2.707,0.003,5.414-0.001,8.121c-0.004,2.561-1.397,3.956-3.954,3.958
		c-3.645,0.003-7.289,0.016-10.933-0.015c-0.592-0.006-0.741,0.146-0.723,0.728c0.046,1.404-0.049,2.814,0.029,4.216
		c0.122,2.181-0.699,3.7-2.811,4.435c-12.812,0-25.625,0-38.437,0c-1.975-0.484-2.943-1.677-3.048-3.754
		c-0.017-0.338-0.01-0.677-0.01-1.015c0-20.379,0-40.757,0-61.136c0-0.468-0.014-0.937,0.049-1.403
		c0.305-2.251,1.735-3.542,4.004-3.558c3.279-0.021,6.558-0.002,9.838-0.007c1.902-0.002,1.722,0.124,1.732-1.726
		c0.006-0.989,0.001-1.978,0.001-2.967c0-0.208-0.001-0.417,0.004-0.625c0.057-2.117,1.023-3.321,3.055-3.811
		c12.761,0,25.521,0,38.281,0c2.231,0.801,2.923,1.8,2.923,4.224c0,1.968,0.004,3.936-0.002,5.904
		c-0.003,1.035-0.218,1.312-1.2,1.604c-0.787,0.053-1.23-0.32-1.315-1.152c-0.07-0.674-0.026-1.353-0.029-2.03
		c-0.006-1.458,0.018-2.917-0.009-4.375c-0.022-1.236-0.369-1.578-1.605-1.579c-11.899-0.006-23.8-0.007-35.699,0
		c-1.253,0-1.559,0.334-1.56,1.678c-0.006,8.176-0.002,16.353-0.003,24.529c0,0.364,0.013,0.729-0.017,1.093
		c-0.074,0.911-0.386,1.264-1.303,1.488c-1.011-0.183-1.404-0.593-1.499-1.577c-0.035-0.362-0.021-0.727-0.021-1.09
		c0-5.169,0.001-10.338-0.001-15.507c0-1.232-0.015-1.239-1.272-1.247c-0.597-0.003-1.195,0.021-1.791-0.017
		c-2.706-0.01-5.412-0.007-8.118-0.001c-1.29,0.002-1.618,0.32-1.622,1.624c-0.012,4.762-0.054,9.524,0.007,14.286
		c0.095,7.399,2.567,13.894,7.552,19.408c0.716,0.792,1.451,1.562,2.19,2.331c0.911,0.998,1.945,1.868,2.91,2.884
		c0.242-0.296,0.157-0.587,0.157-0.847c0.006-4.999,0.004-9.998,0.004-14.997c0-0.312-0.011-0.625,0.015-0.937
		c0.084-1.051,0.6-1.515,1.668-1.513c0.851,0.312,1.055,0.585,1.093,1.482c0.063,1.48-0.04,2.959,0.115,4.444
		c0.301,2.876,1.483,5.326,3.312,7.525c1.862,2.239,4.104,4.056,6.357,5.862c2.985,2.395,6.025,4.718,9.013,7.107
		c0.488,0.391,0.834,0.44,1.345,0.022c3.786-3.098,7.754-5.971,11.479-9.146c2.145-1.828,4.168-3.777,5.586-6.256
		c0.931-1.628,1.471-3.385,1.598-5.259c0.348-5.147,0.084-10.301,0.151-15.452c0.035-2.603,0.006-5.206,0.007-7.809
		c0-0.26-0.01-0.521,0.016-0.78C70.046,17.454,70.565,17.097,71.549,17.326z"/>
	<path fill-rule="evenodd" clip-rule="evenodd" fill="#E8ECF0" d="M29.676,33.761c0.891-0.264,1.124-0.877,1.122-1.771
		c-0.026-8.459-0.016-16.919-0.015-25.378c0-1.463,0.31-1.768,1.789-1.768c11.947,0,23.895,0,35.842,0
		c1.352,0,1.688,0.341,1.688,1.719c0.002,2.03,0.022,4.061-0.01,6.091c-0.014,0.855,0.279,1.404,1.146,1.58
		c-0.001,0.764,0.011,1.529-0.007,2.292c-0.008,0.324,0.03,0.604,0.316,0.801c-1.121,0.043-1.444,0.38-1.444,1.542
		c-0.003,6.926-0.134,13.856,0.041,20.777c0.134,5.296-1.86,9.469-5.69,12.956c-3.413,3.105-7.121,5.84-10.729,8.7
		c-0.959,0.76-1.921,1.516-2.869,2.288c-0.27,0.219-0.452,0.308-0.783,0.038c-4.17-3.408-8.552-6.552-12.612-10.098
		c-1.355-1.183-2.609-2.463-3.727-3.881c-1.921-2.438-2.868-5.213-2.942-8.298c-0.025-1.041-0.027-2.083-0.002-3.124
		c0.016-0.645-0.209-1.108-0.803-1.378c-0.196-0.066-0.438-0.116-0.46-0.359C29.442,35.575,29.24,34.648,29.676,33.761z"/>
	<path fill-rule="evenodd" clip-rule="evenodd" fill="#89A9DB" d="M41.255,67.661c-0.337,0.961-0.244,1.246,0.615,1.923
		c3.984,3.141,7.968,6.279,11.945,9.43c0.196,0.155,0.613,0.238,0.468,0.603c-0.129,0.322-0.46,0.486-0.815,0.527
		c-0.181,0.021-0.364,0.013-0.546,0.013c-12.05,0-24.101,0-36.151-0.001c-1.176,0-1.583-0.376-1.583-1.511
		c-0.004-11.971-0.002-23.941-0.002-35.91c0.146-0.037,0.197,0.077,0.234,0.159c2.203,4.968,5.652,9.007,9.527,12.718
		c3.801,3.64,7.924,6.902,12.041,10.172c0.656,0.521,1.264,0.521,1.889-0.016C39.879,66.134,40.687,66.746,41.255,67.661z"/>
	<path fill-rule="evenodd" clip-rule="evenodd" fill="#EAB2B7" d="M41.255,67.661c-0.793-0.631-1.587-1.262-2.38-1.894
		c0.379-0.775,0.18-1.353-0.5-1.893c-2.403-1.911-4.774-3.862-7.156-5.8c-0.215-0.176-0.446-0.316-0.444-0.675
		c0.015-2.539,0.008-5.08,0.008-7.824c0.978,1.351,1.867,2.517,2.895,3.567c3.289,3.364,7.105,6.096,10.769,9.011
		c1.689,1.345,3.39,2.677,5.074,4.027c0.588,0.471,1.162,0.547,1.763,0.056c4.449-3.644,9.128-6.999,13.473-10.772
		c1.892-1.644,3.642-3.421,5.047-5.511c0.055-0.082,0.094-0.191,0.301-0.134c0,0.2,0,0.423,0,0.646c0,6.195,0,12.391-0.001,18.587
		c0,1.425-0.317,1.74-1.743,1.74c-6.794,0.001-13.589-0.005-20.383,0.01c-0.525,0.001-0.934-0.13-1.344-0.465
		c-1.107-0.905-2.251-1.768-3.383-2.643C42.404,67.041,42.094,67.038,41.255,67.661z"/>
	<path fill-rule="evenodd" clip-rule="evenodd" fill="#E8ECF0" d="M24.971,52.255c-6.108-5.938-9.745-12.993-9.775-21.669
		c-0.017-4.967-0.012-9.935-0.008-14.902c0.001-1.073,0.402-1.476,1.451-1.474c2.782,0.004,5.564,0.019,8.346,0.029
		c0.284,0.294,0.255,0.67,0.255,1.031c0.006,11.988,0.007,23.977-0.001,35.964C25.239,51.592,25.278,51.973,24.971,52.255z"/>
	<path fill-rule="evenodd" clip-rule="evenodd" fill="#C7D1DB" d="M24.971,52.255c0.005-9.419,0.01-18.839,0.014-28.258
		c0.001-3.253,0-6.505,0-9.758c0.937-0.01,1.875,0.016,2.808-0.045c0.583-0.038,0.663,0.192,0.661,0.706
		c-0.021,4.113-0.011,8.226-0.011,12.339c0,1.588-0.001,3.176,0,4.764c0,1.161,0.159,1.384,1.234,1.759
		c-0.001,0.765,0.006,1.529-0.009,2.293c-0.006,0.32,0.02,0.607,0.319,0.795c-1.153-0.022-1.542,0.349-1.543,1.508
		c-0.003,5.428-0.001,10.857-0.001,16.286c0,0.279,0,0.558,0,1.023C27.188,54.466,25.995,53.449,24.971,52.255z"/>
	<path fill-rule="evenodd" clip-rule="evenodd" fill="#C5CFD9" d="M50.215,73.137c1.432,0,2.621,0.012,3.811-0.007
		c0.37-0.007,0.497,0.111,0.487,0.485c-0.021,0.906-0.007,1.812-0.007,2.922C53.064,75.395,51.73,74.337,50.215,73.137z"/>
	<path fill-rule="evenodd" clip-rule="evenodd" d="M34.684,21.925c0.066-1.989,1.056-3.848,3.174-4.965
		c2.114-1.115,4.22-0.943,6.188,0.41c0.416,0.286,0.625,0.213,1.054,0.001c1.144-0.565,1.883-1.418,2.616-2.457
		c1.854-2.627,5.475-3.103,8.111-1.222c0.366,0.262,0.577,0.291,0.969,0.019c2.073-1.438,4.275-1.583,6.45-0.307
		c2.209,1.295,3.108,3.328,2.906,5.866c-0.142,1.788-0.892,3.297-2.114,4.576c-2.114,2.212-4.664,3.904-7.025,5.821
		c-0.509,0.414-1.068,0.281-1.57-0.122c-0.812-0.651-1.652-1.268-2.439-1.947c-0.377-0.325-0.554-0.236-0.869,0.086
		c-2.084,2.126-4.557,3.789-6.853,5.663c-0.451,0.368-0.979,0.371-1.438-0.005c-2.294-1.875-4.775-3.528-6.859-5.655
		C35.416,26.087,34.704,24.361,34.684,21.925z"/>
	<path fill-rule="evenodd" clip-rule="evenodd" fill="#010101" d="M50.373,48.803c-3.616,0-7.231,0-10.847-0.001
		c-0.26,0-0.523,0.012-0.779-0.023c-0.634-0.086-0.973-0.477-0.989-1.104c-0.016-0.631,0.31-1.035,0.934-1.156
		c0.252-0.049,0.517-0.042,0.776-0.042c7.309-0.002,14.618-0.003,21.927,0.001c0.31,0,0.633-0.003,0.927,0.078
		c0.575,0.161,0.84,0.589,0.802,1.179c-0.037,0.558-0.347,0.917-0.895,1.028c-0.251,0.051-0.518,0.039-0.777,0.039
		C57.76,48.803,54.066,48.803,50.373,48.803z"/>
	<path fill-rule="evenodd" clip-rule="evenodd" fill="#010101" d="M58.931,37.119c1.849,0,3.696-0.001,5.545,0.002
		c0.26,0,0.523,0.002,0.777,0.047c0.6,0.107,0.912,0.525,0.927,1.092c0.016,0.57-0.283,1.002-0.872,1.136
		c-0.275,0.062-0.567,0.065-0.853,0.065c-3.671,0.004-7.342,0.003-11.013,0.001c-0.234,0-0.471,0.006-0.701-0.028
		c-0.656-0.099-1.038-0.486-1.031-1.155c0.007-0.668,0.388-1.052,1.052-1.134c0.231-0.028,0.467-0.025,0.701-0.025
		C55.285,37.118,57.107,37.119,58.931,37.119z"/>
	<path fill-rule="evenodd" clip-rule="evenodd" fill="#010101" d="M41.862,39.463c-1.953-0.001-3.906,0.013-5.858-0.007
		c-0.799-0.008-1.303-0.483-1.314-1.148c-0.012-0.662,0.493-1.132,1.277-1.182c0.208-0.013,0.417-0.006,0.625-0.006
		c3.255,0,6.51,0,9.765,0c0.469,0,0.938-0.01,1.405,0.002c0.905,0.023,1.446,0.479,1.432,1.188c-0.014,0.712-0.55,1.146-1.472,1.151
		C45.769,39.47,43.815,39.464,41.862,39.463z"/>
	<path fill-rule="evenodd" clip-rule="evenodd" d="M58.893,41.808c2.005,0,4.01-0.017,6.014,0.007
		c1.009,0.012,1.578,0.882,1.146,1.688c-0.229,0.43-0.611,0.623-1.092,0.623c-4.009,0.002-8.019,0.01-12.026-0.004
		c-0.769-0.003-1.218-0.459-1.232-1.127c-0.017-0.704,0.444-1.172,1.256-1.18C54.937,41.795,56.915,41.808,58.893,41.808z"/>
	<path fill-rule="evenodd" clip-rule="evenodd" d="M41.941,44.13c-1.953,0-3.906,0.008-5.858-0.004
		c-0.86-0.005-1.381-0.451-1.394-1.14c-0.012-0.69,0.514-1.168,1.355-1.175c1.744-0.014,3.489-0.004,5.233-0.004
		c2.187,0,4.374,0.002,6.561-0.001c0.566-0.001,1.015,0.171,1.258,0.729c0.188,0.433,0.092,0.813-0.18,1.167
		c-0.305,0.396-0.743,0.431-1.196,0.43C45.794,44.129,43.867,44.13,41.941,44.13z"/>
	<path fill-rule="evenodd" clip-rule="evenodd" fill="#010101" d="M50.698,53.477c-1.77,0-3.539,0.005-5.31-0.002
		c-0.894-0.004-1.378-0.397-1.403-1.108c-0.025-0.737,0.492-1.214,1.396-1.217c3.592-0.01,7.184-0.011,10.775,0.001
		c0.878,0.003,1.355,0.444,1.358,1.169c0.002,0.738-0.461,1.149-1.351,1.154C54.343,53.483,52.521,53.477,50.698,53.477z"/>
	<path fill-rule="evenodd" clip-rule="evenodd" fill="#E17E85" d="M40.879,18.598c0.919,0.041,1.859,0.505,2.595,1.409
		c0.738,0.907,1.415,0.9,2.174,0.011c0.033-0.04,0.062-0.085,0.1-0.12c0.201-0.189,0.352-0.562,0.644-0.484
		c0.273,0.073,0.144,0.452,0.191,0.691c0.444,2.195,1.83,3.762,3.479,5.12c0.571,0.47,0.58,0.732,0.049,1.218
		c-1.655,1.512-3.472,2.82-5.203,4.235c-0.308,0.251-0.483,0.154-0.725-0.04c-1.643-1.317-3.349-2.558-4.916-3.969
		c-1.346-1.212-2.281-2.628-2.239-4.527C37.071,20.158,38.674,18.584,40.879,18.598z"/>
	<path fill-rule="evenodd" clip-rule="evenodd" fill="#EAB2B7" d="M49.632,16.323c1.157-1.803,3.942-1.899,5.449-0.188
		c1.019,1.156,1.47,1.159,2.459,0.02c1.02-1.175,2.701-1.571,4.118-0.969c1.438,0.611,2.317,2.117,2.192,3.705
		c-0.112,1.416-0.722,2.584-1.713,3.572c-1.699,1.695-3.683,3.046-5.526,4.567c-0.237,0.195-0.406,0.156-0.603-0.028
		c-0.094-0.089-0.193-0.176-0.303-0.244c-1.241-0.765-1.879-1.502-1.456-3.295C55.062,20.014,53.162,17.407,49.632,16.323z"/>
	<path fill-rule="evenodd" clip-rule="evenodd" fill="#DD636D" d="M52.069,22.483c-0.076,0.321,0.121,0.896-0.212,1.029
		c-0.389,0.156-0.655-0.382-0.942-0.649c-1.084-1.006-1.936-2.146-2.094-3.692c-0.047-0.461-0.007-0.604,0.509-0.48
		C51.015,19.096,52.133,20.589,52.069,22.483z"/>
</g>
</svg>
