<?xml version="1.0" encoding="utf-8"?>
<!-- Generator: Adobe Illustrator 16.0.0, SVG Export Plug-In . SVG Version: 6.00 Build 0)  -->
<!DOCTYPE svg PUBLIC "-//W3C//DTD SVG 1.1//EN" "http://www.w3.org/Graphics/SVG/1.1/DTD/svg11.dtd">
<svg version="1.1" id="Layer_1" xmlns="http://www.w3.org/2000/svg" xmlns:xlink="http://www.w3.org/1999/xlink" x="0px" y="0px"
	 width="85px" height="85px" viewBox="0 0 85 85" enable-background="new 0 0 85 85" xml:space="preserve">
<g>
	<path fill-rule="evenodd" clip-rule="evenodd" d="M2.5,64.068c0.167-0.039,0.157-0.182,0.176-0.305
		c0.331-2.092,1.279-3.926,2.325-5.734c8.708-15.059,17.405-30.125,26.098-45.192c2.128-3.688,5.234-6.077,9.459-6.671
		c5.11-0.719,9.402,1.019,12.373,5.255c2.652,3.781,4.721,7.941,7.038,11.939c6.782,11.704,13.53,23.427,20.301,35.138
		c1.009,1.746,1.835,3.549,2.092,5.572c0.007,0.057,0.091,0.104,0.139,0.154c0,0.625,0,1.25,0,1.875
		c-0.128,0.312-0.128,0.625,0,0.938c0,0.156,0,0.312,0,0.469c-0.201,2.639-1.28,4.898-2.988,6.883
		c-2.168,2.516-4.929,3.941-8.197,4.424c-1.007,0.148-2.02,0.18-3.036,0.18c-17.395-0.006-34.788-0.004-52.182-0.004
		c-3.599,0-6.857-1.008-9.525-3.48c-2.255-2.092-3.803-4.607-3.994-7.787c-0.005-0.084-0.04-0.148-0.078-0.215
		c0-0.156,0-0.312,0-0.469c0.127-0.312,0.127-0.625,0-0.938C2.5,65.422,2.5,64.744,2.5,64.068z"/>
	<path fill-rule="evenodd" clip-rule="evenodd" fill="#383838" d="M2.5,66.1c0.198,0.312,0.29,0.625,0,0.938
		C2.5,66.725,2.5,66.412,2.5,66.1z"/>
	<path fill-rule="evenodd" clip-rule="evenodd" fill="#383838" d="M82.5,67.037c-0.29-0.312-0.199-0.625,0-0.938
		C82.5,66.412,82.5,66.725,82.5,67.037z"/>
	<path fill-rule="evenodd" clip-rule="evenodd" fill="#525A61" d="M42.506,76.396c-8.903,0-17.807,0.002-26.71-0.002
		c-2.778-0.002-5.284-0.783-7.367-2.686c-2.942-2.689-4.052-6.006-3.365-9.93c0.402-2.295,1.741-4.156,2.863-6.107
		c4.975-8.66,9.979-17.303,14.975-25.951c3.46-5.991,6.904-11.991,10.389-17.967c2.071-3.552,5.247-5.441,9.319-5.402
		c4.005,0.039,7.105,1.952,9.131,5.458c6.445,11.145,12.878,22.296,19.316,33.445c2.432,4.211,4.854,8.43,7.305,12.629
		c2.384,4.084,2.535,8.146-0.225,12.086c-2.104,3.004-5.13,4.406-8.765,4.418C60.417,76.414,51.462,76.396,42.506,76.396z"/>
	<path fill-rule="evenodd" clip-rule="evenodd" fill="#FED664" d="M23.623,40.611c0.367-0.659,0.826-1.267,1.087-1.983
		c0.063-0.096,0.158-0.142,0.265-0.122c0.784,0.147,1.212-0.307,1.548-0.914c1.021-1.842,2.093-3.655,3.144-5.479
		c2.909-5.045,5.819-10.089,8.741-15.126c0.738-1.272,1.743-2.207,3.233-2.477c1.94-0.352,3.479,0.349,4.592,1.939
		c0.924,1.322,1.645,2.771,2.459,4.162c1.012,1.728,2.001,3.468,3.005,5.2c0.184,0.316,0.339,0.645,0.418,1.005
		c2.261,4.692,4.596,9.346,6.896,14.016c2.819,5.722,5.67,11.429,8.49,17.15c0.816,1.658,1.638,3.314,2.424,4.986
		c0.922,1.961,0.884,3.928-0.083,5.867c-0.464,0.932-1.122,1.412-2.274,1.408c-12.862-0.039-25.726-0.023-38.588-0.023
		c-4.609-0.002-9.218,0.002-13.826-0.002c-2.974-0.145-4.877-2.848-4.024-5.701c0.257-0.859,0.746-1.602,1.187-2.363
		c3.735-6.461,7.461-12.926,11.207-19.381C23.973,42.001,24.037,41.353,23.623,40.611z"/>
	<path fill-rule="evenodd" clip-rule="evenodd" d="M23.623,40.611c0.72,0.767,0.749,1.064,0.174,2.06
		c-3.958,6.857-7.914,13.712-11.878,20.564c-0.909,1.572-1.174,3.168-0.192,4.789c0.725,1.193,1.775,1.939,3.226,2.006
		c0.277,0.105,0.567,0.055,0.851,0.055c17.359,0.002,34.719,0.002,52.079,0.002c0.967,0,1.921-0.148,2.847-0.396
		c2.137-0.574,3.341-2.736,2.781-4.877c-0.256-0.977-0.815-1.797-1.309-2.65C66.434,52.18,60.668,42.198,54.91,32.21
		c-1.053-1.825-2.052-3.677-3.014-5.551c-1.91-3.333-3.721-6.729-5.762-9.981c-1.879-2.994-5.695-2.768-7.518,0.334
		c-2.013,3.427-3.978,6.882-5.965,10.323c-2.014,3.487-4.027,6.974-6.044,10.458c-0.559,0.965-0.817,1.073-1.897,0.833
		c-0.61-0.651-0.551-1.299-0.116-2.048c3.995-6.884,7.97-13.778,11.943-20.673c1.13-1.961,2.728-3.264,5.014-3.57
		c2.733-0.367,4.965,0.587,6.435,2.896c1.689,2.652,3.207,5.414,4.782,8.138c4.386,7.588,8.762,15.182,13.144,22.772
		c3.159,5.475,6.341,10.936,9.476,16.424c2.361,4.133-0.313,9.254-5.07,9.818c-0.65,0.078-1.294,0.107-1.943,0.107
		c-17.468,0-34.936,0-52.404,0c-2.852-0.002-5.126-1.072-6.468-3.682c-1.072-2.088-1.043-4.229,0.127-6.27
		c4.022-7.018,8.077-14.016,12.123-21.021C22.335,40.509,22.647,40.368,23.623,40.611z"/>
	<path fill-rule="evenodd" clip-rule="evenodd" d="M47.596,38.131c-0.076,3.696,0.119,7.396-0.097,11.087
		c-0.146,2.484-2.519,4.547-5.038,4.502c-2.552-0.047-4.766-2.047-4.97-4.5c-0.045-0.545-0.07-1.092-0.07-1.637
		c-0.005-6.51,0.004-13.02-0.007-19.529c-0.003-2.207,0.787-3.952,2.799-5.016c3.114-1.646,7.066,0.486,7.287,4.005
		C47.732,30.734,47.522,34.436,47.596,38.131z"/>
	<path fill-rule="evenodd" clip-rule="evenodd" fill="#FEB651" d="M51.896,26.66c1.468,2.509,2.947,5.012,4.401,7.529
		c5.607,9.696,11.208,19.396,16.806,29.099c1.293,2.24,0.939,4.52-0.896,5.943c-0.908,0.705-1.963,0.906-3.079,0.906
		c-12.261,0.002-24.521,0.004-36.782,0.006c-5.466,0-10.933,0.002-16.399-0.002c-0.333,0-0.679,0.064-0.995-0.111
		c0.312-0.008,0.623-0.025,0.935-0.025c17.334-0.002,34.668-0.004,52.002,0.01c0.602,0,1.012-0.148,1.365-0.672
		c1.36-2.01,1.5-4.133,0.466-6.264c-2.737-5.639-5.589-11.221-8.315-16.865c-2.263-4.684-4.64-9.311-6.928-13.982
		c-0.801-1.634-1.59-3.273-2.383-4.911C51.993,27.111,51.854,26.912,51.896,26.66z"/>
	<path fill-rule="evenodd" clip-rule="evenodd" d="M42.47,56.082c2.795-0.016,5.061,2.223,5.087,5.027
		c0.027,2.764-2.245,5.072-5.028,5.111c-2.74,0.037-5.066-2.271-5.091-5.051C37.414,58.389,39.679,56.098,42.47,56.082z"/>
	<path fill-rule="evenodd" clip-rule="evenodd" fill="#525A61" d="M43.12,51.246c-1.441,0.436-3.113-0.65-3.284-2.139
		c-0.026-0.232-0.027-0.469-0.027-0.701c-0.001-6.869-0.005-13.737,0.001-20.606c0.002-1.994,1.156-3.051,3.155-2.931
		c0.318,0.165,0.376,0.475,0.442,0.783c0.108,0.512,0.127,1.031,0.127,1.553c-0.001,7.285,0.003,14.57-0.005,21.855
		C43.528,49.811,43.58,50.578,43.12,51.246z"/>
	<path fill-rule="evenodd" clip-rule="evenodd" fill="#3B4145" d="M43.12,51.246c0.362-8.133,0.063-16.268,0.159-24.401
		c0.008-0.676-0.109-1.333-0.314-1.976c1.552,0.431,2.208,1.233,2.208,2.767c0.006,6.989,0.006,13.979-0.001,20.968
		C45.172,49.996,44.478,50.869,43.12,51.246z"/>
	<path fill-rule="evenodd" clip-rule="evenodd" fill="#525A61" d="M43.12,63.746c-1.085,0.375-1.928-0.078-2.646-0.828
		c-0.764-0.793-0.841-1.766-0.494-2.756c0.358-1.023,1.146-1.572,2.209-1.715c0.253-0.033,0.518,0.008,0.776,0.016
		c0.204,0.098,0.318,0.268,0.359,0.479c0.287,1.49,0.301,2.982-0.01,4.473C43.288,63.543,43.204,63.646,43.12,63.746z"/>
	<path fill-rule="evenodd" clip-rule="evenodd" fill="#3B4145" d="M43.12,63.746c0.169-1.152,0.187-2.312,0.155-3.473
		c-0.016-0.615-0.103-1.225-0.31-1.811c1.501,0.416,2.206,1.264,2.208,2.664C45.178,62.465,44.465,63.373,43.12,63.746z"/>
</g>
</svg>
