<?xml version="1.0" encoding="utf-8"?>
<!-- Generator: Adobe Illustrator 16.0.0, SVG Export Plug-In . SVG Version: 6.00 Build 0)  -->
<!DOCTYPE svg PUBLIC "-//W3C//DTD SVG 1.1//EN" "http://www.w3.org/Graphics/SVG/1.1/DTD/svg11.dtd">
<svg version="1.1" id="Layer_1" xmlns="http://www.w3.org/2000/svg" xmlns:xlink="http://www.w3.org/1999/xlink" x="0px" y="0px"
	 width="85px" height="85px" viewBox="0 0 85 85" enable-background="new 0 0 85 85" xml:space="preserve">
<g>
	<path fill="#663333" d="M82.499,66.627c0.037,4.045-1.508,7.865-4.365,10.752c-2.857,2.885-6.662,4.473-10.707,4.473H4.271
		c-0.545,0-1.062-0.258-1.385-0.695c-0.33-0.438-0.429-1.01-0.275-1.527c0.9-3.055,2.804-5.795,5.356-7.732
		c2.636-2,5.787-3.062,9.101-3.062h50.367c0.562,0,1.09-0.225,1.482-0.635c0.395-0.41,0.6-0.945,0.57-1.51
		c-0.043-1.09-1-1.973-2.143-1.973h-49.6c-8.323,0-15.164-6.699-15.244-14.924c-0.036-4.047,1.509-7.867,4.367-10.752
		c2.857-2.885,6.662-4.475,10.707-4.475h27.186c1.133,0,2.053-0.92,2.053-2.055v-5.367c-1.232-2.045-1.902-4.607-1.902-7.295
		c0-2.939,0.805-5.727,2.262-7.842c0.598-0.867,1.275-1.59,2.018-2.152c0.74-0.562,1.545-0.965,2.385-1.205v-3.77
		c0-0.955,0.777-1.732,1.732-1.732s1.73,0.777,1.73,1.732v3.77c1.697,0.465,3.225,1.615,4.432,3.357
		c1.455,2.115,2.26,4.902,2.26,7.842c0,2.678-0.67,5.23-1.895,7.268v5.396c0,8.312-6.762,15.074-15.074,15.074H17.666
		c-1.144,0-2.108,0.883-2.144,1.973c-0.019,0.562,0.178,1.1,0.57,1.51c0.395,0.41,0.92,0.635,1.482,0.635h49.688
		C75.589,51.703,82.421,58.4,82.499,66.627z"/>
	<path fill="#6A973A" d="M79.034,66.66c0.027,3.117-1.16,6.057-3.365,8.279c-2.197,2.223-5.127,3.447-8.242,3.447H6.86
		c2-3.67,5.92-6.092,10.207-6.092h2.188c0.761,3.027,3.492,5.27,6.752,5.27c2.179,0,4.117-1,5.394-2.572
		c1.277,1.564,3.216,2.572,5.396,2.572c2.179,0,4.126-1.008,5.394-2.572c1.277,1.572,3.225,2.572,5.395,2.572
		c2.18,0,4.117-1.008,5.395-2.572c1.277,1.564,3.215,2.564,5.395,2.564c3.25,0,5.982-2.242,6.742-5.252h2.312
		c1.51,0,2.92-0.6,3.975-1.697c1.055-1.09,1.6-2.527,1.545-4.035c-0.115-2.975-2.57-5.312-5.607-5.312H17.75
		c-6.438,0-11.717-5.154-11.778-11.494c-0.027-3.117,1.16-6.055,3.366-8.279c2.205-2.223,5.126-3.447,8.242-3.447h1.688
		c0.768,3.012,3.5,5.234,6.742,5.234c2.17,0,4.116-1,5.393-2.572c1.277,1.562,3.216,2.572,5.396,2.572
		c3.241,0,5.976-2.225,6.743-5.234h1.23c3.045,0,5.52-2.473,5.52-5.518v-5.877c0-0.348-0.098-0.678-0.295-0.965
		c-0.91-1.357-1.465-3.115-1.59-5.027c0.055,0.01,0.115,0.01,0.17,0.01c1.035,0,1.875-0.84,1.875-1.877
		c0-0.98-0.75-1.785-1.705-1.875c0.365-1.455,1-2.705,1.795-3.598c0.795-0.895,1.752-1.42,2.77-1.42h0.008
		c2.037,0,3.842,2.105,4.582,5.018c-0.48,0.045-0.9,0.27-1.215,0.6c-0.311,0.33-0.49,0.775-0.49,1.268
		c0,1.037,0.838,1.877,1.875,1.877c0.055,0,0.115,0,0.17-0.01c-0.062,0.955-0.225,1.867-0.49,2.715
		c-0.27,0.848-0.635,1.625-1.08,2.295c-0.189,0.285-0.295,0.625-0.295,0.965v5.895c0,6.402-5.207,11.609-11.609,11.609H17.671
		c-3.037,0-5.502,2.33-5.607,5.312c-0.055,1.51,0.49,2.947,1.545,4.037c1.054,1.09,2.465,1.697,3.974,1.697h1.679
		c0.77,3.01,3.502,5.24,6.743,5.24c2.179,0,4.116-1,5.394-2.57c0.645,0.785,1.447,1.42,2.357,1.865
		c0.92,0.447,1.947,0.697,3.037,0.697c2.18,0,4.125-1.01,5.402-2.572c1.277,1.57,3.225,2.572,5.402,2.572
		c2.18,0,4.117-1.002,5.395-2.572c0.635,0.785,1.445,1.42,2.357,1.865c0.92,0.447,1.947,0.697,3.027,0.697
		c3.24,0,5.975-2.225,6.742-5.232h2.15C73.696,55.168,78.981,60.32,79.034,66.66L79.034,66.66z"/>
	<path fill="#9ACE57" d="M54.933,72.297h6.877c-0.625,1.268-1.93,2.135-3.439,2.135C56.87,74.43,55.558,73.564,54.933,72.297z
		 M54.942,55.168h6.85c-0.635,1.25-1.93,2.115-3.43,2.115C56.88,57.283,55.575,56.418,54.942,55.168z M44.144,72.297h6.887
		c-0.625,1.268-1.938,2.143-3.438,2.143C46.073,74.439,44.771,73.564,44.144,72.297z M44.153,55.168h6.859
		c-0.635,1.26-1.93,2.115-3.432,2.115C46.081,57.283,44.786,56.428,44.153,55.168L44.153,55.168z M33.349,72.297h6.885
		c-0.625,1.268-1.938,2.143-3.438,2.143C35.276,74.439,33.974,73.564,33.349,72.297z M33.356,55.168h6.859
		c-0.635,1.26-1.93,2.115-3.43,2.115C35.285,57.283,33.991,56.428,33.356,55.168z M33.366,38.039h6.85
		c-0.635,1.25-1.929,2.107-3.429,2.107C35.294,40.146,33.999,39.289,33.366,38.039z M22.551,72.297h6.896
		c-0.627,1.275-1.938,2.15-3.447,2.15C24.489,74.447,23.185,73.572,22.551,72.297z M22.569,38.039h6.857
		c-0.634,1.25-1.929,2.117-3.429,2.117C24.507,40.156,23.202,39.289,22.569,38.039z M22.56,55.168h6.867
		c-0.634,1.26-1.929,2.125-3.429,2.125C24.497,57.293,23.194,56.428,22.56,55.168z"/>
</g>
</svg>
