<?xml version="1.0" encoding="utf-8"?>
<!-- Generator: Adobe Illustrator 16.0.0, SVG Export Plug-In . SVG Version: 6.00 Build 0)  -->
<!DOCTYPE svg PUBLIC "-//W3C//DTD SVG 1.1//EN" "http://www.w3.org/Graphics/SVG/1.1/DTD/svg11.dtd">
<svg version="1.1" id="Layer_1" xmlns="http://www.w3.org/2000/svg" xmlns:xlink="http://www.w3.org/1999/xlink" x="0px" y="0px"
	 width="85px" height="85px" viewBox="0 0 85 85" enable-background="new 0 0 85 85" xml:space="preserve">
<g>
	
		<radialGradient id="SVGID_1_" cx="-333.792" cy="-328.1279" r="11.1511" gradientTransform="matrix(6.25 0 0 6.25 2142.0156 2064.5938)" gradientUnits="userSpaceOnUse">
		<stop  offset="0.244" style="stop-color:#E1F5FE"/>
		<stop  offset="0.402" style="stop-color:#CFEEFC"/>
		<stop  offset="0.716" style="stop-color:#A0DDF8"/>
		<stop  offset="0.957" style="stop-color:#78CEF5"/>
	</radialGradient>
	<path fill="url(#SVGID_1_)" d="M7.546,7.461h69.939v69.938H7.546V7.461z"/>
	
		<linearGradient id="SVGID_2_" gradientUnits="userSpaceOnUse" x1="-336.9541" y1="-325.4268" x2="-337.5358" y2="-327.6693" gradientTransform="matrix(6.25 0 0 6.25 2142.0156 2064.5938)">
		<stop  offset="0.113" style="stop-color:#FFFFFF;stop-opacity:0"/>
		<stop  offset="0.868" style="stop-color:#FFFFFF"/>
	</linearGradient>
	<path fill="url(#SVGID_2_)" d="M60.472,7.461L7.521,33.295l0.06,30.576L67.12,7.459h-6.648V7.461z"/>
	
		<linearGradient id="SVGID_3_" gradientUnits="userSpaceOnUse" x1="-333.8457" y1="-322.1436" x2="-336.4915" y2="-324.9044" gradientTransform="matrix(6.25 0 0 6.25 2142.0156 2064.5938)">
		<stop  offset="0.113" style="stop-color:#FFFFFF;stop-opacity:0"/>
		<stop  offset="0.868" style="stop-color:#FFFFFF"/>
	</linearGradient>
	<path fill="url(#SVGID_3_)" d="M70.212,7.461L16.808,77.533l32.629-0.135l28.049-64.285V7.461H70.212z"/>
	
		<linearGradient id="SVGID_4_" gradientUnits="userSpaceOnUse" x1="-335.9321" y1="-323.0405" x2="-338.0338" y2="-325.8792" gradientTransform="matrix(6.25 0 0 6.25 2142.0156 2064.5938)">
		<stop  offset="0.229" style="stop-color:#FFFFFF;stop-opacity:0"/>
		<stop  offset="0.719" style="stop-color:#FFFFFF"/>
	</linearGradient>
	<path fill="url(#SVGID_4_)" d="M7.573,62.004L65.171,7.461h7.488L14.501,77.545l-6.955-0.146L7.573,62.004z"/>
	<path fill="#D68B52" d="M2.499,4.854v75.293c0,1.299,1.055,2.354,2.354,2.354h75.293c1.301,0,2.355-1.055,2.355-2.354V4.854
		c0-1.301-1.055-2.354-2.355-2.354H4.853C3.554,2.5,2.499,3.553,2.499,4.854L2.499,4.854z M38.509,39.963H11.261
		c-0.768,0-1.387-0.621-1.387-1.387V10.873c0-0.768,0.619-1.387,1.387-1.387h27.248c0.768,0,1.387,0.619,1.387,1.387v27.709
		C39.896,39.344,39.274,39.963,38.509,39.963L38.509,39.963z M73.685,39.963H46.437c-0.768,0-1.387-0.621-1.387-1.387V10.873
		c0-0.768,0.619-1.387,1.387-1.387h27.248c0.77,0,1.387,0.619,1.387,1.387v27.709C75.071,39.344,74.452,39.963,73.685,39.963z
		 M38.509,75.525H11.261c-0.768,0-1.387-0.619-1.387-1.387V46.43c0-0.766,0.619-1.387,1.387-1.387h27.248
		c0.768,0,1.387,0.621,1.387,1.387v27.709C39.896,74.906,39.274,75.525,38.509,75.525L38.509,75.525z M73.685,75.525H46.437
		c-0.768,0-1.387-0.619-1.387-1.387V46.43c0-0.766,0.619-1.387,1.387-1.387h27.248c0.77,0,1.387,0.621,1.387,1.387v27.709
		C75.071,74.906,74.452,75.525,73.685,75.525z"/>
	<g>
		<path fill="#FFCCBC" d="M45.937,38.922V11.76l-2.121-2.787v32.07h32.07l-2.781-2.113L45.937,38.922z"/>
		<path fill="#B25B47" d="M43.815,8.973v6.975l2.119-2.127V11.76h27.17v27.17l2.779,2.113V8.973H43.815z"/>
		
			<linearGradient id="SVGID_5_" gradientUnits="userSpaceOnUse" x1="-335.7314" y1="-327.4736" x2="-335.2686" y2="-327.0107" gradientTransform="matrix(6.25 0 0 6.25 2142.0156 2064.5938)">
			<stop  offset="0" style="stop-color:#B25B47"/>
			<stop  offset="1" style="stop-color:#B25B47;stop-opacity:0"/>
		</linearGradient>
		<path fill="url(#SVGID_5_)" d="M43.815,15.035v10.193l2.119-2.121V12.895L43.815,15.035z"/>
		<g>
			<path fill="#FFCCBC" d="M11.9,11.76h27.169v27.17H11.9V11.76 M9.12,8.973v32.07h32.068V8.973H9.12z"/>
			<path fill="#B25B47" d="M9.12,8.973v11.988l2.78-2.113v-7.033l0.026-0.053h27.143V38.93l2.119,2.113V8.975H9.12V8.973z"/>
			
				<linearGradient id="SVGID_6_" gradientUnits="userSpaceOnUse" x1="-341.2397" y1="-326.6733" x2="-340.7484" y2="-326.1818" gradientTransform="matrix(6.25 0 0 6.25 2142.0156 2064.5938)">
				<stop  offset="0" style="stop-color:#B25B47"/>
				<stop  offset="1" style="stop-color:#B25B47;stop-opacity:0"/>
			</linearGradient>
			<path fill="url(#SVGID_6_)" d="M9.12,20.107v10.193l2.78-2.119V17.967L9.12,20.107z"/>
		</g>
		<g>
			<path fill="#FFCCBC" d="M73.104,73.246h-27.17V46.078h27.17V73.246 M75.886,76.033V43.965h-32.07v32.068H75.886z"/>
			<path fill="#B25B47" d="M43.862,43.963h-0.047v5.4h2.119v-3.287h27.17v27.115l2.779,2.779V43.963H43.862L43.862,43.963z"/>
			
				<linearGradient id="SVGID_7_" gradientUnits="userSpaceOnUse" x1="-335.8555" y1="-321.8179" x2="-335.2967" y2="-321.2592" gradientTransform="matrix(6.25 0 0 6.25 2142.0156 2064.5938)">
				<stop  offset="0" style="stop-color:#B25B47"/>
				<stop  offset="1" style="stop-color:#B25B47;stop-opacity:0"/>
			</linearGradient>
			<path fill="url(#SVGID_7_)" d="M43.815,49.018v12.334l2.119-2.127V49.018H43.815z"/>
		</g>
		<g>
			<path fill="#FFCCBC" d="M39.069,56.084v17.162L11.9,73.191V46.076h27.128l2.113-2.113H9.12v32.01l32.068-0.066v-22.01
				L39.069,56.084z"/>
			<path fill="#B25B47" d="M41.142,43.963H9.12v11.221l2.78-0.02v-9.088h27.169v7.715h2.119v-9.828H41.142z"/>
			
				<linearGradient id="SVGID_8_" gradientUnits="userSpaceOnUse" x1="-336.6128" y1="-321.0996" x2="-336.0546" y2="-320.5414" gradientTransform="matrix(6.25 0 0 6.25 2142.0156 2064.5938)">
				<stop  offset="0" style="stop-color:#B25B47"/>
				<stop  offset="1" style="stop-color:#B25B47;stop-opacity:0"/>
			</linearGradient>
			<path fill="url(#SVGID_8_)" d="M39.069,53.498v12.334l2.119-2.127V53.498H39.069z"/>
			
				<linearGradient id="SVGID_9_" gradientUnits="userSpaceOnUse" x1="-341.3657" y1="-320.8936" x2="-340.7776" y2="-320.3054" gradientTransform="matrix(6.25 0 0 6.25 2142.0156 2064.5938)">
				<stop  offset="0" style="stop-color:#B25B47"/>
				<stop  offset="1" style="stop-color:#B25B47;stop-opacity:0"/>
			</linearGradient>
			<path fill="url(#SVGID_9_)" d="M9.12,54.871v12.342l2.78-2.127V54.871H9.12z"/>
		</g>
	</g>
</g>
</svg>
