<?xml version="1.0" encoding="utf-8"?>
<!-- Generator: Adobe Illustrator 16.0.0, SVG Export Plug-In . SVG Version: 6.00 Build 0)  -->
<!DOCTYPE svg PUBLIC "-//W3C//DTD SVG 1.1//EN" "http://www.w3.org/Graphics/SVG/1.1/DTD/svg11.dtd">
<svg version="1.1" id="Layer_1" xmlns="http://www.w3.org/2000/svg" xmlns:xlink="http://www.w3.org/1999/xlink" x="0px" y="0px"
	 width="85px" height="85px" viewBox="0 0 85 85" enable-background="new 0 0 85 85" xml:space="preserve">
<g>
	<g>
		<path fill="#512529" d="M82.393,30.256V16.25v-0.897h-0.897h-4.507h-0.896H75.16V8.584c0-1.903-1.482-3.451-3.305-3.451
			c-1.823,0-3.305,1.548-3.305,3.451v6.769H57.318V8.584c0-1.903-1.482-3.451-3.305-3.451s-3.306,1.548-3.306,3.451v6.769H39.477
			V8.584c0-1.903-1.482-3.451-3.305-3.451c-1.821,0-3.304,1.548-3.304,3.451v6.769H21.634V8.584c0-1.903-1.482-3.451-3.304-3.451
			c-1.823,0-3.305,1.548-3.305,3.451v6.769H9.974H9.077h-5.68H2.5v0.897v14.019v0.896v47.806c0,0.495,0.401,0.896,0.897,0.896h6.577
			h66.118h5.402c0.496,0,0.896-0.401,0.896-0.896v-4.646c0.037-0.005,0.072-0.009,0.108-0.015V33.432
			C82.443,32.389,82.406,31.33,82.393,30.256z"/>
	</g>
	<g>
		<path fill="#D15259" d="M8.786,28.586c0,0.247-0.201,0.448-0.449,0.448s-0.448-0.201-0.448-0.448V16.25H6.202v12.336
			c0,0.247-0.201,0.448-0.449,0.448s-0.448-0.201-0.448-0.448V16.25H3.397v13.121h5.68V16.25H8.786V28.586z"/>
		<path fill="#ACC7D8" d="M3.397,78.971h5.68V31.165v-0.896h-5.68V78.971z M7.587,31.763c0-0.248,0.2-0.448,0.449-0.448
			c0.248,0,0.448,0.2,0.448,0.448v30.549c0,0.246-0.2,0.446-0.448,0.446c-0.249,0-0.449-0.2-0.449-0.446V31.763z M7.587,65.861
			c0-0.246,0.2-0.447,0.449-0.447c0.248,0,0.448,0.201,0.448,0.447v11.426c0,0.247-0.2,0.447-0.448,0.447
			c-0.249,0-0.449-0.2-0.449-0.447V65.861z M6.179,50.641c0-0.246,0.2-0.447,0.448-0.447s0.448,0.201,0.448,0.447V73.4
			c0,0.248-0.2,0.449-0.448,0.449S6.179,73.648,6.179,73.4V50.641z M4.241,34.94c0-0.248,0.201-0.448,0.448-0.448
			s0.448,0.2,0.448,0.448v15.701c0,0.248-0.201,0.447-0.448,0.447s-0.448-0.199-0.448-0.447V34.94z M4.241,61.189
			c0-0.248,0.201-0.448,0.448-0.448s0.448,0.2,0.448,0.448v14.789c0,0.246-0.201,0.447-0.448,0.447s-0.448-0.201-0.448-0.447V61.189
			z"/>
		<path fill="#B03743" d="M17.549,29.208c0.718,0,1.394-0.191,1.987-0.526c-0.411,0.112-0.839,0.178-1.283,0.178
			c-2.333,0-4.304-1.65-4.92-3.896C13.45,27.327,15.29,29.208,17.549,29.208z"/>
		<path fill="#B03743" d="M35.401,29.208c0.718,0,1.394-0.191,1.987-0.526c-0.411,0.112-0.839,0.178-1.283,0.178
			c-2.333,0-4.303-1.65-4.92-3.896C31.303,27.328,33.142,29.208,35.401,29.208z"/>
		<path fill="#B03743" d="M53.018,29.208c0.719,0,1.395-0.191,1.986-0.526c-0.41,0.112-0.839,0.178-1.281,0.178
			c-2.334,0-4.305-1.65-4.92-3.896C48.92,27.328,50.759,29.208,53.018,29.208z"/>
		<path fill="#B03743" d="M71.104,29.208c0.719,0,1.396-0.191,1.987-0.526c-0.409,0.112-0.839,0.178-1.282,0.178
			c-2.332,0-4.305-1.65-4.92-3.896C67.007,27.328,68.848,29.208,71.104,29.208z"/>
		<path fill="#F17171" d="M81.494,30.269V16.25h-5.402H75.16v3.163c1.084,0.988,1.773,2.44,1.773,4.063
			c0,2.502-1.638,4.604-3.844,5.205c-0.592,0.335-1.27,0.526-1.986,0.526c-2.258,0-4.098-1.88-4.215-4.244
			c-0.132-0.473-0.205-0.972-0.205-1.487c0-1.67,0.729-3.164,1.867-4.153V16.25H57.318v3.397c0.941,0.977,1.527,2.332,1.527,3.829
			c0,2.502-1.636,4.604-3.843,5.205c-0.593,0.335-1.269,0.526-1.985,0.526c-2.26,0-4.099-1.88-4.217-4.244
			c-0.131-0.473-0.203-0.972-0.203-1.487c0-1.785,0.834-3.365,2.11-4.345V16.25H39.477v3.182c1.072,0.988,1.753,2.433,1.753,4.045
			c0,2.502-1.636,4.604-3.842,5.205c-0.593,0.335-1.269,0.526-1.987,0.526c-2.259,0-4.098-1.88-4.216-4.244
			c-0.13-0.473-0.204-0.972-0.204-1.487c0-1.68,0.736-3.18,1.887-4.168V16.25H21.634v3.191c1.066,0.988,1.744,2.428,1.744,4.035
			c0,2.502-1.636,4.604-3.842,5.205c-0.593,0.335-1.269,0.526-1.987,0.526c-2.259,0-4.099-1.881-4.216-4.245
			c-0.13-0.473-0.203-0.971-0.203-1.486c0-1.684,0.74-3.188,1.896-4.176v-3.05H9.974v14.019h66.118H81.494z"/>
		<path fill="#F17171" d="M15.025,20.582c-0.622,0.781-1,1.79-1,2.895c0,2.477,1.893,4.486,4.227,4.486
			c2.336,0,4.229-2.01,4.229-4.486c0-1.01-0.318-1.937-0.848-2.687v1.938c0,1.902-1.482,3.451-3.304,3.451
			c-1.823,0-3.305-1.549-3.305-3.451L15.025,20.582L15.025,20.582z"/>
		<path fill="#F17171" d="M32.868,20.595c-0.618,0.778-0.991,1.783-0.991,2.882c0,2.477,1.894,4.486,4.228,4.486
			c2.336,0,4.229-2.01,4.229-4.486c0-1.016-0.322-1.948-0.857-2.699v1.951c0,1.902-1.482,3.451-3.305,3.451
			c-1.821,0-3.304-1.549-3.304-3.451V20.595z"/>
		<path fill="#F17171" d="M50.709,20.331c-0.751,0.81-1.215,1.919-1.215,3.146c0,2.477,1.895,4.486,4.229,4.486
			c2.336,0,4.228-2.01,4.228-4.486c0-0.864-0.233-1.667-0.632-2.352v1.604c0,1.902-1.481,3.451-3.303,3.451
			c-1.824,0-3.307-1.549-3.307-3.451V20.331z"/>
		<path fill="#F17171" d="M68.553,20.616c-0.607,0.776-0.972,1.772-0.972,2.86c0,2.477,1.894,4.486,4.228,4.486
			c2.336,0,4.229-2.01,4.229-4.486c0-1.028-0.328-1.972-0.876-2.729v1.98c0,1.902-1.481,3.451-3.306,3.451
			c-1.822,0-3.303-1.549-3.303-3.451V20.616z"/>
		<path fill="#AFC9D3" d="M72.426,21.544c0.364-2.127,0.163-11.382,0.055-15.423c1.022,0.295,1.774,1.285,1.774,2.463v14.145
			c0,1.41-1.075,2.553-2.401,2.555h0.002c1.33,0,2.408-1.144,2.408-2.555V8.584c0-1.411-1.078-2.555-2.408-2.555
			c-1.328,0-2.406,1.144-2.406,2.555v14.145c0,0.095,0.006,0.188,0.015,0.28C70.543,23.266,72.121,23.316,72.426,21.544z"/>
		<path fill="#AFC9D3" d="M54.584,21.544c0.363-2.127,0.163-11.382,0.055-15.423c1.022,0.295,1.775,1.285,1.775,2.463v14.145
			c0,1.41-1.076,2.553-2.402,2.555c0,0,0.002,0,0.004,0c1.328,0,2.405-1.144,2.405-2.555V8.584c0-1.411-1.077-2.555-2.405-2.555
			c-1.33,0-2.408,1.144-2.408,2.555v14.145c0,0.095,0.006,0.188,0.015,0.28C52.7,23.266,54.279,23.316,54.584,21.544z"/>
		<path fill="#AFC9D3" d="M36.675,21.544c0.365-2.127,0.162-11.382,0.055-15.423c1.022,0.295,1.775,1.285,1.775,2.463v14.145
			c0,1.397-1.059,2.531-2.371,2.553c0.013,0,0.025,0.002,0.037,0.002c1.33,0,2.408-1.144,2.408-2.555V8.584
			c0-1.411-1.078-2.555-2.408-2.555c-1.329,0-2.408,1.144-2.408,2.555v14.145c0,0.101,0.007,0.198,0.018,0.296
			C34.857,23.267,36.377,23.28,36.675,21.544z"/>
		<path fill="#AFC9D3" d="M18.962,6.121c0.379,0.109,0.721,0.315,1.001,0.59C19.683,6.436,19.342,6.23,18.962,6.121z"/>
		<path fill="#AFC9D3" d="M20.245,7.04c0.145,0.202,0.261,0.427,0.344,0.67C20.507,7.467,20.39,7.242,20.245,7.04z"/>
		<path fill="#AFC9D3" d="M18.907,21.544c0.365-2.127,0.163-11.382,0.055-15.423c-0.201-0.059-0.413-0.092-0.631-0.092
			c-1.331,0-2.408,1.144-2.408,2.555v14.145c0,0.095,0.007,0.188,0.016,0.278C17.018,23.266,18.603,23.32,18.907,21.544z"/>
		<path fill="#8DAFB9" d="M18.907,21.544c-0.304,1.776-1.889,1.722-2.969,1.463c0,0.004,0,0.009,0,0.013
			c0.003,0.026,0.008,0.053,0.012,0.079c0.009,0.065,0.02,0.13,0.033,0.193c0.007,0.031,0.015,0.062,0.022,0.094
			c0.015,0.06,0.032,0.117,0.051,0.175c0.009,0.028,0.018,0.057,0.028,0.085c0.03,0.082,0.062,0.163,0.1,0.24
			c0.004,0.008,0.007,0.017,0.011,0.025c0.062,0.125,0.134,0.243,0.214,0.355c0.008,0.013,0.018,0.025,0.026,0.038
			c0.08,0.106,0.167,0.207,0.261,0.299c0.013,0.013,0.026,0.025,0.04,0.037c0.095,0.09,0.196,0.171,0.303,0.243
			c0.016,0.012,0.032,0.021,0.048,0.031c0.109,0.07,0.224,0.132,0.344,0.184c0.016,0.006,0.031,0.012,0.047,0.019
			c0.125,0.049,0.252,0.09,0.385,0.117c0.011,0.002,0.022,0.003,0.034,0.006c0.139,0.027,0.282,0.043,0.43,0.043
			c1.329,0,2.408-1.144,2.408-2.555V8.584c0-0.133-0.013-0.263-0.032-0.391c-0.003-0.022-0.005-0.046-0.009-0.067
			c-0.021-0.123-0.05-0.242-0.087-0.357C20.6,7.748,20.594,7.73,20.586,7.71c-0.083-0.243-0.199-0.468-0.344-0.67
			c-0.007-0.01-0.014-0.019-0.021-0.029c-0.074-0.102-0.156-0.195-0.245-0.284c-0.005-0.005-0.01-0.01-0.016-0.016
			c-0.28-0.274-0.622-0.48-1.001-0.59c0,0,0,0-0.001,0C19.07,10.162,19.271,19.417,18.907,21.544z"/>
		<path fill="#8DAFB9" d="M35.862,25.259c0.05,0.006,0.1,0.014,0.15,0.016c0.029,0.001,0.056,0.009,0.085,0.009
			c0.013,0,0.025-0.002,0.037-0.002c1.312-0.021,2.371-1.155,2.371-2.553V8.584c0-1.178-0.753-2.168-1.775-2.463
			c0.107,4.041,0.31,13.296-0.055,15.423c-0.298,1.736-1.818,1.723-2.894,1.48c-0.025-0.007-0.052-0.011-0.077-0.018
			C33.828,24.203,34.731,25.141,35.862,25.259z"/>
		<path fill="#8DAFB9" d="M56.414,22.729V8.584c0-1.178-0.753-2.168-1.775-2.463c0.108,4.041,0.311,13.296-0.055,15.423
			c-0.305,1.772-1.884,1.722-2.963,1.465c-0.003,0-0.006-0.001-0.008-0.002c0.006,0.054,0.021,0.103,0.029,0.154
			c0.008,0.056,0.02,0.108,0.03,0.161c0.022,0.104,0.054,0.204,0.089,0.302c0.018,0.052,0.035,0.104,0.059,0.152
			c0.035,0.088,0.078,0.171,0.123,0.253c0.031,0.055,0.063,0.111,0.1,0.163c0.034,0.054,0.07,0.106,0.109,0.156
			c0.057,0.073,0.117,0.143,0.182,0.209c0.04,0.041,0.081,0.081,0.125,0.118c0.072,0.066,0.148,0.128,0.229,0.184
			c0.039,0.027,0.08,0.054,0.123,0.078c0.09,0.056,0.183,0.107,0.279,0.149c0.034,0.015,0.069,0.027,0.104,0.04
			c0.111,0.043,0.225,0.08,0.342,0.104c0.021,0.005,0.041,0.007,0.062,0.011c0.131,0.024,0.264,0.039,0.401,0.04
			c0.002,0,0.005,0.001,0.009,0.001c0.001,0,0.002,0,0.004,0C55.338,25.281,56.414,24.139,56.414,22.729z"/>
		<path fill="#8DAFB9" d="M74.255,22.729V8.584c0-1.178-0.752-2.168-1.774-2.463c0.108,4.041,0.311,13.296-0.055,15.423
			c-0.305,1.772-1.883,1.722-2.963,1.465c-0.002,0-0.006-0.001-0.008-0.002c0.006,0.054,0.021,0.103,0.029,0.154
			c0.009,0.056,0.021,0.108,0.031,0.161c0.022,0.104,0.053,0.204,0.088,0.302c0.018,0.052,0.035,0.104,0.058,0.152
			c0.039,0.088,0.079,0.171,0.125,0.253c0.03,0.055,0.063,0.111,0.099,0.164c0.036,0.053,0.071,0.105,0.11,0.155
			c0.057,0.073,0.116,0.143,0.182,0.209c0.04,0.041,0.081,0.081,0.124,0.118c0.072,0.066,0.148,0.128,0.229,0.184
			c0.039,0.027,0.08,0.054,0.123,0.078c0.091,0.056,0.184,0.107,0.281,0.149c0.032,0.015,0.067,0.027,0.103,0.04
			c0.11,0.043,0.224,0.08,0.341,0.104c0.02,0.005,0.041,0.007,0.062,0.011c0.131,0.024,0.266,0.039,0.4,0.04
			c0.003,0,0.006,0.001,0.01,0.001c0.002,0,0.002,0,0.004,0C73.18,25.281,74.255,24.139,74.255,22.729z"/>
	</g>
	<rect x="9.974" y="31.165" fill="#ECEEEF" width="71.52" height="47.806"/>
</g>
<g>
	<path fill="#231F20" d="M27.045,35.889h-1.062v-0.622c0.271,0.015,0.514-0.045,0.728-0.179c0.216-0.134,0.38-0.324,0.491-0.573
		h0.713v4.422h-0.434h-0.437L27.045,35.889L27.045,35.889z"/>
</g>
<g>
	<path fill="#231F20" d="M38.802,35.903c0,0.336-0.078,0.614-0.235,0.834c-0.157,0.221-0.45,0.469-0.881,0.743
		c-0.398,0.253-0.67,0.481-0.816,0.686l-0.003,0.006h1.935v0.765h-3.015v-0.001c0-0.404,0.102-0.751,0.307-1.04
		c0.204-0.288,0.588-0.631,1.152-1.027c0.253-0.176,0.431-0.337,0.534-0.483c0.103-0.146,0.155-0.311,0.155-0.49
		c0-0.196-0.057-0.354-0.17-0.473c-0.113-0.12-0.263-0.18-0.449-0.18c-0.198,0-0.353,0.075-0.464,0.225
		c-0.111,0.149-0.163,0.353-0.155,0.609h-0.853c-0.014-0.479,0.112-0.859,0.378-1.14c0.266-0.281,0.632-0.422,1.099-0.422
		c0.435,0,0.791,0.13,1.068,0.388C38.665,35.162,38.802,35.495,38.802,35.903z"/>
</g>
<g>
	<path fill="#231F20" d="M47.9,35.804c0-0.172-0.049-0.311-0.147-0.417s-0.229-0.159-0.396-0.159c-0.188,0-0.336,0.06-0.439,0.181
		c-0.104,0.12-0.158,0.291-0.163,0.514h-0.801c0.007-0.451,0.137-0.798,0.392-1.042c0.252-0.243,0.609-0.365,1.07-0.365
		c0.396,0,0.723,0.115,0.975,0.346c0.252,0.23,0.379,0.526,0.379,0.889c0,0.313-0.131,0.57-0.395,0.771l-0.118,0.079
		c0.101,0.038,0.188,0.089,0.267,0.151c0.254,0.196,0.379,0.491,0.379,0.886c0,0.435-0.137,0.779-0.41,1.034
		s-0.645,0.382-1.108,0.382c-0.479,0-0.851-0.126-1.114-0.378c-0.264-0.251-0.397-0.609-0.404-1.075h0.847
		c0.004,0.249,0.06,0.438,0.168,0.569c0.108,0.13,0.265,0.195,0.47,0.195c0.197,0,0.357-0.065,0.479-0.197
		c0.121-0.131,0.182-0.304,0.182-0.519c0-0.188-0.061-0.34-0.182-0.455c-0.107-0.099-0.243-0.154-0.406-0.166
		c-0.092-0.007-0.176-0.01-0.254-0.011c-0.077-0.001-0.128,0.001-0.15,0.007V36.38c0.024,0.004,0.076,0.005,0.155,0.002
		c0.079-0.004,0.163-0.01,0.252-0.021c0.138-0.016,0.246-0.063,0.327-0.143C47.852,36.122,47.9,35.983,47.9,35.804z"/>
</g>
<g>
	<path fill="#231F20" d="M55.934,37.963v-0.376v-0.376l1.635-2.696h0.486h0.484v2.757h0.497v0.691h-0.497v0.974h-0.855v-0.974
		H55.934z M57.684,37.271V35.43l-1.072,1.781l-0.036,0.061L57.684,37.271L57.684,37.271z"/>
</g>
<g>
	<path fill="#F17171" d="M69.043,37.478c0,0.483-0.146,0.866-0.436,1.149c-0.291,0.283-0.684,0.425-1.178,0.425
		c-0.396,0-0.721-0.115-0.978-0.348c-0.257-0.231-0.406-0.545-0.449-0.941h0.874c0.021,0.196,0.087,0.346,0.193,0.447
		c0.107,0.103,0.254,0.153,0.439,0.153c0.189,0,0.344-0.073,0.461-0.222c0.117-0.147,0.176-0.341,0.176-0.582
		c0-0.246-0.06-0.445-0.178-0.596c-0.121-0.15-0.277-0.227-0.472-0.227c-0.121,0-0.233,0.027-0.338,0.082
		c-0.104,0.055-0.185,0.129-0.241,0.222l-0.766-0.036l0.291-2.402h2.416v0.737h-1.795l-0.147,0.937
		c0.242-0.151,0.505-0.228,0.787-0.228c0.394,0,0.714,0.134,0.964,0.4C68.919,36.717,69.043,37.06,69.043,37.478z"/>
</g>
<g>
	<path fill="#F17171" d="M77.77,34.518c0.367,0,0.666,0.106,0.901,0.318c0.233,0.213,0.358,0.491,0.376,0.837h-0.857
		c0.002-0.137-0.039-0.247-0.121-0.33s-0.19-0.124-0.328-0.124h-0.036c-0.261-0.003-0.453,0.123-0.576,0.376
		c-0.099,0.195-0.155,0.481-0.176,0.857c0.233-0.246,0.519-0.369,0.849-0.369c0.393,0,0.715,0.135,0.963,0.404
		c0.25,0.27,0.375,0.615,0.375,1.037c0,0.449-0.143,0.815-0.427,1.101c-0.282,0.284-0.647,0.427-1.093,0.427
		c-0.497,0-0.875-0.187-1.133-0.559c-0.258-0.373-0.387-0.918-0.387-1.636c0-0.79,0.143-1.384,0.428-1.782
		c0.265-0.374,0.647-0.561,1.152-0.561L77.77,34.518z M76.966,37.546c0,0.232,0.062,0.425,0.187,0.578s0.279,0.23,0.467,0.23
		c0.212,0,0.374-0.068,0.484-0.206c0.111-0.137,0.168-0.338,0.168-0.603c0-0.229-0.061-0.415-0.181-0.556
		c-0.118-0.14-0.276-0.21-0.473-0.21c-0.197,0-0.354,0.07-0.474,0.212C77.025,37.132,76.966,37.316,76.966,37.546z"/>
</g>
<g>
	<path fill="#231F20" d="M16.267,47.875c0.064-0.663,0.244-1.318,0.539-1.969c0.274-0.604,0.616-1.139,1.025-1.602h-2.19V43.54
		h3.127v0.327v0.331c-0.449,0.489-0.815,1.06-1.098,1.71c-0.283,0.648-0.453,1.305-0.51,1.966L16.267,47.875L16.267,47.875z"/>
</g>
<g>
	<path fill="#231F20" d="M28.119,45.527c0.097,0.049,0.188,0.106,0.273,0.176c0.279,0.229,0.418,0.529,0.418,0.906
		c0,0.414-0.14,0.748-0.42,1c-0.28,0.254-0.649,0.381-1.109,0.381c-0.457,0-0.825-0.127-1.105-0.381c-0.28-0.252-0.42-0.586-0.42-1
		c0-0.377,0.141-0.68,0.422-0.909c0.081-0.069,0.169-0.125,0.267-0.17l-0.17-0.112c-0.254-0.191-0.382-0.443-0.382-0.758
		c0-0.362,0.127-0.654,0.382-0.875c0.255-0.223,0.59-0.332,1.007-0.332s0.752,0.109,1.007,0.332
		c0.254,0.221,0.382,0.513,0.382,0.875c0,0.312-0.127,0.564-0.382,0.758C28.234,45.458,28.178,45.495,28.119,45.527z M27.282,45.912
		c-0.194,0-0.348,0.062-0.461,0.188c-0.113,0.125-0.169,0.295-0.169,0.506c0,0.209,0.056,0.375,0.169,0.496
		c0.113,0.123,0.267,0.185,0.461,0.185c0.194,0,0.349-0.062,0.463-0.185c0.114-0.121,0.171-0.287,0.171-0.496
		c0-0.211-0.058-0.381-0.173-0.506C27.63,45.975,27.476,45.912,27.282,45.912z M27.282,45.264c0.168,0,0.301-0.05,0.4-0.146
		c0.099-0.098,0.149-0.231,0.149-0.398c0-0.172-0.05-0.309-0.149-0.41c-0.099-0.101-0.232-0.15-0.4-0.15
		c-0.167,0-0.301,0.051-0.4,0.15c-0.099,0.103-0.149,0.238-0.149,0.41c0,0.167,0.05,0.301,0.149,0.4
		C26.98,45.215,27.114,45.264,27.282,45.264z"/>
</g>
<g>
	<path fill="#231F20" d="M37.188,47.986c-0.37,0-0.673-0.105-0.908-0.318c-0.236-0.212-0.362-0.491-0.378-0.837h0.858
		c-0.002,0.138,0.039,0.248,0.123,0.331s0.195,0.124,0.335,0.124h0.042c0.259,0.002,0.451-0.122,0.576-0.373
		c0.097-0.196,0.158-0.483,0.182-0.864c-0.241,0.249-0.528,0.373-0.861,0.373c-0.395,0-0.717-0.135-0.969-0.404
		c-0.251-0.27-0.377-0.615-0.377-1.037c0-0.448,0.143-0.814,0.428-1.101c0.285-0.286,0.652-0.427,1.101-0.427
		c0.499,0,0.879,0.186,1.139,0.559s0.39,0.918,0.39,1.637c0,0.789-0.144,1.384-0.431,1.781c-0.267,0.373-0.653,0.562-1.159,0.562
		L37.188,47.986z M38.001,44.958c0-0.231-0.063-0.425-0.188-0.578S37.53,44.15,37.34,44.15c-0.217,0-0.381,0.068-0.493,0.207
		c-0.112,0.137-0.168,0.338-0.168,0.602c0,0.23,0.061,0.416,0.182,0.557c0.122,0.141,0.281,0.211,0.479,0.211
		c0.198,0,0.358-0.071,0.479-0.213C37.94,45.373,38.001,45.188,38.001,44.958z"/>
</g>
<g>
	<path fill="#231F20" d="M43.73,44.826H42.67v-0.621c0.271,0.014,0.514-0.046,0.729-0.18c0.217-0.133,0.379-0.324,0.492-0.572h0.711
		v4.422h-0.434H43.73V44.826z"/>
	<path fill="#231F20" d="M46.273,47.439c-0.25-0.367-0.375-0.933-0.377-1.694c0.002-0.78,0.127-1.356,0.377-1.731
		c0.248-0.373,0.631-0.561,1.148-0.561c0.521,0,0.906,0.188,1.155,0.561c0.249,0.375,0.373,0.944,0.373,1.711v0.021
		c0.002,0.763-0.122,1.327-0.371,1.693c-0.25,0.367-0.636,0.552-1.157,0.552C46.904,47.99,46.521,47.807,46.273,47.439z
		 M47.914,46.938c0.095-0.231,0.143-0.631,0.143-1.197c0.002-0.58-0.045-0.989-0.142-1.227c-0.097-0.238-0.261-0.356-0.492-0.356
		c-0.229,0-0.394,0.118-0.487,0.356c-0.094,0.236-0.142,0.646-0.144,1.227c0,0.566,0.047,0.966,0.144,1.197
		c0.094,0.232,0.258,0.35,0.487,0.35C47.654,47.286,47.818,47.17,47.914,46.938z"/>
</g>
<g>
	<path fill="#231F20" d="M53.803,44.826H52.74v-0.621c0.271,0.014,0.514-0.046,0.728-0.18c0.218-0.133,0.382-0.324,0.491-0.572
		h0.713v4.422h-0.434h-0.438v-3.049H53.803z"/>
	<path fill="#231F20" d="M57.256,44.826h-1.062v-0.621c0.271,0.014,0.515-0.046,0.729-0.18c0.216-0.133,0.38-0.324,0.491-0.572
		h0.713v4.422h-0.434h-0.438L57.256,44.826L57.256,44.826z"/>
</g>
<g>
	<path fill="#F17171" d="M63.872,44.826h-1.062v-0.621c0.271,0.014,0.514-0.046,0.728-0.18c0.217-0.133,0.381-0.324,0.491-0.572
		h0.713v4.422h-0.434h-0.438L63.872,44.826L63.872,44.826z"/>
	<path fill="#F17171" d="M69.014,44.842c0,0.336-0.078,0.613-0.236,0.834c-0.155,0.221-0.449,0.469-0.881,0.743
		c-0.397,0.253-0.67,0.481-0.814,0.687l-0.003,0.006h1.935v0.765h-3.015v-0.001c0-0.404,0.103-0.751,0.308-1.04
		c0.203-0.289,0.588-0.632,1.151-1.026c0.253-0.178,0.431-0.339,0.533-0.484c0.104-0.146,0.155-0.311,0.155-0.489
		c0-0.196-0.058-0.354-0.17-0.474c-0.113-0.12-0.264-0.18-0.449-0.18c-0.198,0-0.354,0.074-0.465,0.226
		c-0.11,0.149-0.162,0.353-0.153,0.608h-0.853c-0.015-0.479,0.11-0.858,0.377-1.141c0.267-0.281,0.633-0.421,1.101-0.421
		c0.435,0,0.79,0.129,1.067,0.388C68.875,44.1,69.014,44.434,69.014,44.842z"/>
</g>
<g>
	<path fill="#F17171" d="M73.941,44.826H72.88v-0.621c0.271,0.014,0.515-0.046,0.728-0.18c0.218-0.133,0.381-0.324,0.492-0.572
		h0.713v4.422h-0.435h-0.437V44.826L73.941,44.826z"/>
	<path fill="#F17171" d="M78.111,44.741c0-0.173-0.049-0.312-0.147-0.417s-0.229-0.159-0.396-0.159c-0.188,0-0.336,0.062-0.44,0.181
		c-0.104,0.12-0.157,0.293-0.162,0.516h-0.801c0.007-0.451,0.138-0.799,0.39-1.043c0.254-0.243,0.611-0.364,1.072-0.364
		c0.396,0,0.721,0.114,0.975,0.346c0.252,0.231,0.379,0.526,0.379,0.89c0,0.312-0.131,0.568-0.395,0.77l-0.118,0.079
		c0.101,0.039,0.189,0.089,0.267,0.151c0.254,0.195,0.379,0.492,0.379,0.886c0,0.435-0.137,0.778-0.41,1.034
		c-0.273,0.255-0.645,0.383-1.107,0.383c-0.479,0-0.852-0.126-1.115-0.378c-0.263-0.253-0.398-0.61-0.404-1.075h0.847
		c0.004,0.249,0.06,0.438,0.168,0.568s0.265,0.195,0.47,0.195c0.197,0,0.356-0.066,0.479-0.197c0.121-0.131,0.182-0.305,0.182-0.519
		c0-0.188-0.061-0.34-0.182-0.455c-0.107-0.1-0.243-0.153-0.407-0.167c-0.091-0.006-0.175-0.01-0.253-0.011s-0.128,0.002-0.15,0.008
		v-0.644c0.024,0.005,0.076,0.005,0.155,0.002c0.078-0.004,0.162-0.01,0.251-0.021c0.139-0.017,0.247-0.063,0.328-0.143
		C78.062,45.061,78.111,44.922,78.111,44.741z"/>
</g>
<g>
	<path fill="#231F20" d="M13.521,53.766h-1.062v-0.621c0.271,0.014,0.514-0.047,0.728-0.18c0.216-0.134,0.38-0.324,0.491-0.572
		h0.713v4.422h-0.434H13.52L13.521,53.766L13.521,53.766z"/>
	<path fill="#231F20" d="M15.653,55.84v-0.376v-0.376l1.635-2.695h0.485h0.485v2.756h0.497v0.691h-0.497v0.975h-0.855V55.84H15.653z
		 M17.403,55.148v-1.842l-1.073,1.779l-0.037,0.062H17.403z"/>
</g>
<g>
	<path fill="#231F20" d="M23.591,53.766h-1.062v-0.621c0.271,0.014,0.514-0.047,0.728-0.181c0.216-0.133,0.38-0.323,0.491-0.573
		h0.713v4.424h-0.434H23.59L23.591,53.766L23.591,53.766z"/>
	<path fill="#231F20" d="M28.762,55.354c0,0.483-0.145,0.866-0.436,1.149c-0.29,0.283-0.683,0.425-1.178,0.425
		c-0.394,0-0.72-0.115-0.977-0.348c-0.257-0.232-0.406-0.546-0.449-0.941h0.874c0.022,0.196,0.087,0.346,0.194,0.447
		s0.254,0.153,0.44,0.153c0.19,0,0.344-0.074,0.461-0.222c0.117-0.148,0.176-0.343,0.176-0.582c0-0.248-0.06-0.445-0.179-0.598
		c-0.12-0.15-0.276-0.227-0.47-0.227c-0.121,0-0.234,0.027-0.338,0.082c-0.104,0.056-0.185,0.129-0.241,0.223l-0.765-0.037
		l0.291-2.4h2.415v0.735h-1.794l-0.148,0.938c0.242-0.151,0.505-0.229,0.788-0.229c0.392,0,0.713,0.135,0.963,0.4
		C28.638,54.593,28.762,54.936,28.762,55.354z"/>
</g>
<g>
	<path fill="#231F20" d="M33.661,53.766H32.6v-0.621c0.271,0.014,0.514-0.047,0.728-0.181c0.216-0.133,0.38-0.323,0.491-0.573h0.713
		v4.424h-0.434h-0.437V53.766L33.661,53.766z"/>
	<path fill="#231F20" d="M37.489,52.395c0.366,0,0.666,0.105,0.901,0.318c0.234,0.212,0.36,0.491,0.376,0.837h-0.858
		c0.002-0.138-0.038-0.248-0.12-0.331s-0.192-0.124-0.329-0.124h-0.037c-0.261-0.002-0.453,0.123-0.576,0.376
		c-0.097,0.196-0.156,0.482-0.176,0.858c0.234-0.247,0.518-0.37,0.849-0.37c0.392,0,0.713,0.135,0.963,0.404
		s0.375,0.615,0.375,1.037c0,0.449-0.142,0.815-0.426,1.101c-0.284,0.285-0.649,0.429-1.094,0.429c-0.497,0-0.875-0.188-1.133-0.561
		c-0.258-0.373-0.387-0.918-0.387-1.635c0-0.791,0.143-1.385,0.428-1.782c0.265-0.374,0.649-0.562,1.153-0.562L37.489,52.395z
		 M36.685,55.423c0,0.231,0.062,0.425,0.187,0.578s0.279,0.229,0.465,0.229c0.212,0,0.374-0.068,0.485-0.205
		c0.111-0.139,0.167-0.34,0.167-0.604c0-0.23-0.06-0.415-0.179-0.556c-0.119-0.142-0.277-0.211-0.473-0.211
		c-0.196,0-0.354,0.071-0.473,0.212C36.745,55.008,36.685,55.191,36.685,55.423z"/>
</g>
<g>
	<path fill="#231F20" d="M43.73,53.766H42.67v-0.621c0.271,0.014,0.514-0.047,0.729-0.181c0.217-0.133,0.379-0.323,0.492-0.573
		h0.711v4.424h-0.434H43.73V53.766z"/>
	<path fill="#231F20" d="M46.479,56.812c0.063-0.662,0.244-1.318,0.537-1.969c0.274-0.604,0.616-1.139,1.026-1.602h-2.19v-0.764
		h3.127v0.326v0.33c-0.449,0.49-0.813,1.061-1.098,1.711c-0.283,0.649-0.453,1.305-0.51,1.967H46.479L46.479,56.812z"/>
</g>
<g>
	<path fill="#231F20" d="M53.803,53.766H52.74v-0.621c0.271,0.014,0.514-0.047,0.728-0.181c0.218-0.133,0.382-0.323,0.491-0.573
		h0.713v4.424h-0.434h-0.438v-3.049H53.803z"/>
	<path fill="#231F20" d="M58.33,54.466c0.098,0.048,0.188,0.107,0.271,0.177c0.279,0.229,0.42,0.529,0.42,0.905
		c0,0.415-0.141,0.749-0.42,1.001c-0.281,0.253-0.649,0.381-1.108,0.381c-0.457,0-0.826-0.128-1.104-0.381
		c-0.281-0.252-0.421-0.586-0.421-1.001c0-0.376,0.14-0.679,0.421-0.909c0.082-0.068,0.17-0.125,0.268-0.17l-0.17-0.111
		c-0.254-0.192-0.383-0.445-0.383-0.76c0-0.361,0.129-0.652,0.383-0.873c0.255-0.223,0.591-0.334,1.008-0.334
		c0.416,0,0.752,0.111,1.007,0.334c0.255,0.221,0.382,0.512,0.382,0.873c0,0.313-0.127,0.566-0.382,0.76
		C58.445,54.396,58.389,54.434,58.33,54.466z M57.493,54.852c-0.194,0-0.349,0.062-0.461,0.188
		c-0.113,0.125-0.171,0.294-0.171,0.506c0,0.209,0.058,0.374,0.171,0.496c0.112,0.122,0.267,0.184,0.461,0.184
		c0.192,0,0.348-0.062,0.462-0.184c0.113-0.122,0.172-0.287,0.172-0.496c0-0.212-0.059-0.381-0.173-0.506
		C57.841,54.913,57.688,54.852,57.493,54.852z M57.493,54.202c0.167,0,0.301-0.05,0.399-0.147c0.1-0.098,0.148-0.23,0.148-0.397
		c0-0.173-0.05-0.31-0.148-0.41c-0.1-0.101-0.232-0.151-0.399-0.151c-0.168,0-0.302,0.051-0.4,0.151
		c-0.1,0.103-0.149,0.237-0.149,0.41c0,0.167,0.051,0.301,0.149,0.399C57.191,54.152,57.325,54.202,57.493,54.202z"/>
</g>
<g>
	<path fill="#F17171" d="M63.872,53.766h-1.062v-0.621c0.271,0.014,0.514-0.047,0.728-0.181c0.217-0.133,0.381-0.323,0.491-0.573
		h0.713v4.424h-0.434h-0.438L63.872,53.766L63.872,53.766z"/>
	<path fill="#F17171" d="M67.398,56.926c-0.369,0-0.672-0.105-0.907-0.318c-0.236-0.213-0.361-0.491-0.378-0.838h0.857
		c-0.002,0.139,0.039,0.248,0.123,0.332c0.084,0.082,0.195,0.123,0.336,0.123h0.041c0.26,0.002,0.451-0.121,0.577-0.373
		c0.097-0.195,0.157-0.483,0.183-0.863c-0.242,0.248-0.528,0.373-0.861,0.373c-0.395,0-0.719-0.135-0.969-0.404
		c-0.252-0.27-0.379-0.616-0.379-1.038c0-0.448,0.144-0.813,0.429-1.101c0.284-0.285,0.651-0.428,1.101-0.428
		c0.499,0,0.879,0.188,1.139,0.561c0.261,0.373,0.391,0.918,0.391,1.636c0,0.79-0.145,1.384-0.432,1.781
		c-0.267,0.374-0.651,0.562-1.157,0.562L67.398,56.926z M68.212,53.896c0-0.231-0.062-0.426-0.188-0.578
		c-0.125-0.153-0.282-0.229-0.474-0.229c-0.216,0-0.381,0.068-0.493,0.206c-0.111,0.137-0.168,0.338-0.168,0.602
		c0,0.23,0.062,0.416,0.182,0.557c0.123,0.141,0.281,0.211,0.479,0.211s0.358-0.071,0.479-0.212
		C68.15,54.312,68.212,54.127,68.212,53.896z"/>
</g>
<g>
	<path fill="#F17171" d="M75.629,53.78c0,0.336-0.079,0.612-0.234,0.834c-0.158,0.221-0.451,0.468-0.881,0.743
		c-0.398,0.252-0.672,0.48-0.816,0.686l-0.004,0.006h1.937v0.766h-3.017v-0.002c0-0.403,0.104-0.75,0.308-1.039
		s0.589-0.633,1.151-1.027c0.254-0.178,0.432-0.338,0.535-0.484c0.103-0.146,0.154-0.31,0.154-0.488
		c0-0.196-0.058-0.354-0.171-0.475c-0.112-0.119-0.263-0.179-0.448-0.179c-0.197,0-0.354,0.073-0.463,0.225
		c-0.111,0.149-0.164,0.354-0.156,0.609h-0.852c-0.015-0.479,0.111-0.859,0.377-1.142c0.266-0.281,0.633-0.422,1.1-0.422
		c0.436,0,0.791,0.131,1.067,0.39C75.491,53.038,75.629,53.372,75.629,53.78z"/>
	<path fill="#F17171" d="M76.482,56.378c-0.248-0.367-0.373-0.933-0.375-1.694c0.002-0.779,0.127-1.356,0.375-1.73
		c0.25-0.374,0.633-0.562,1.149-0.562c0.522,0,0.907,0.188,1.156,0.562c0.248,0.374,0.373,0.943,0.373,1.711v0.021
		c0.002,0.763-0.122,1.326-0.372,1.693c-0.249,0.367-0.635,0.551-1.157,0.551C77.115,56.93,76.732,56.745,76.482,56.378z
		 M78.125,55.876c0.096-0.231,0.143-0.632,0.143-1.198c0.002-0.58-0.045-0.988-0.142-1.227s-0.26-0.356-0.493-0.356
		c-0.23,0-0.393,0.119-0.486,0.356c-0.092,0.236-0.143,0.646-0.145,1.227c0,0.566,0.048,0.967,0.143,1.198
		c0.097,0.231,0.258,0.349,0.488,0.349C77.866,56.225,78.029,56.107,78.125,55.876z"/>
</g>
<g>
	<path fill="#231F20" d="M15.207,62.719c0,0.336-0.079,0.613-0.235,0.834c-0.157,0.221-0.451,0.469-0.881,0.743
		c-0.398,0.253-0.67,0.481-0.816,0.687l-0.003,0.006h1.935v0.765h-3.015v-0.001c0-0.404,0.102-0.751,0.306-1.04
		s0.588-0.632,1.152-1.028c0.253-0.176,0.431-0.336,0.534-0.482s0.155-0.311,0.155-0.489c0-0.196-0.057-0.354-0.17-0.474
		c-0.113-0.12-0.263-0.18-0.449-0.18c-0.198,0-0.353,0.074-0.464,0.226c-0.111,0.149-0.163,0.353-0.155,0.608H12.25
		c-0.014-0.479,0.112-0.858,0.377-1.141c0.266-0.281,0.632-0.422,1.1-0.422c0.435,0,0.791,0.13,1.067,0.389
		C15.069,61.977,15.207,62.311,15.207,62.719z"/>
	<path fill="#231F20" d="M16.975,62.703h-1.062v-0.621c0.271,0.014,0.514-0.046,0.728-0.18c0.216-0.133,0.38-0.324,0.491-0.573
		h0.713v4.423h-0.434h-0.437L16.975,62.703L16.975,62.703z"/>
</g>
<g>
	<path fill="#231F20" d="M25.277,62.719c0,0.336-0.079,0.613-0.235,0.834s-0.45,0.469-0.881,0.743
		c-0.398,0.253-0.67,0.481-0.816,0.687l-0.003,0.006h1.935v0.765h-3.015v-0.001c0-0.404,0.102-0.751,0.306-1.04
		s0.588-0.632,1.152-1.028c0.253-0.176,0.431-0.336,0.534-0.482s0.154-0.311,0.154-0.489c0-0.196-0.057-0.354-0.169-0.474
		c-0.113-0.119-0.263-0.18-0.449-0.18c-0.198,0-0.353,0.074-0.464,0.226c-0.111,0.149-0.163,0.353-0.155,0.608H22.32
		c-0.014-0.479,0.111-0.858,0.377-1.141c0.266-0.281,0.632-0.422,1.1-0.422c0.435,0,0.791,0.13,1.067,0.389
		C25.14,61.977,25.277,62.311,25.277,62.719z"/>
	<path fill="#231F20" d="M28.732,62.719c0,0.336-0.079,0.613-0.235,0.834c-0.156,0.221-0.45,0.469-0.881,0.743
		c-0.398,0.253-0.67,0.481-0.816,0.687l-0.003,0.006h1.935v0.765h-3.015v-0.001c0-0.404,0.102-0.751,0.307-1.04
		c0.204-0.289,0.588-0.632,1.152-1.028c0.253-0.176,0.431-0.336,0.534-0.482s0.155-0.311,0.155-0.489
		c0-0.196-0.057-0.354-0.17-0.474c-0.113-0.12-0.263-0.18-0.449-0.18c-0.198,0-0.353,0.074-0.464,0.226
		c-0.111,0.149-0.163,0.353-0.155,0.608h-0.853c-0.014-0.479,0.112-0.858,0.378-1.141c0.266-0.281,0.632-0.422,1.099-0.422
		c0.435,0,0.791,0.13,1.068,0.389C28.594,61.977,28.732,62.311,28.732,62.719z"/>
</g>
<g>
	<path fill="#231F20" d="M35.348,62.719c0,0.336-0.079,0.613-0.235,0.834c-0.156,0.221-0.45,0.469-0.881,0.743
		c-0.398,0.253-0.67,0.481-0.816,0.687l-0.003,0.006h1.935v0.765h-3.015v-0.001c0-0.404,0.102-0.751,0.306-1.04
		c0.204-0.289,0.588-0.632,1.152-1.028c0.253-0.176,0.431-0.336,0.534-0.482c0.104-0.146,0.155-0.311,0.155-0.489
		c0-0.196-0.057-0.354-0.17-0.474c-0.113-0.12-0.263-0.18-0.449-0.18c-0.198,0-0.353,0.074-0.464,0.226
		c-0.111,0.149-0.163,0.353-0.155,0.608H32.39c-0.014-0.479,0.111-0.858,0.377-1.141c0.266-0.281,0.632-0.422,1.1-0.422
		c0.435,0,0.791,0.13,1.067,0.389C35.21,61.977,35.348,62.311,35.348,62.719z"/>
	<path fill="#231F20" d="M37.832,62.618c0-0.173-0.05-0.312-0.149-0.417s-0.23-0.159-0.394-0.159c-0.19,0-0.337,0.062-0.441,0.181
		c-0.104,0.12-0.158,0.293-0.162,0.516h-0.801c0.006-0.451,0.136-0.799,0.39-1.043c0.254-0.243,0.611-0.365,1.072-0.365
		c0.396,0,0.721,0.115,0.974,0.346c0.252,0.23,0.379,0.527,0.379,0.889c0,0.313-0.131,0.57-0.394,0.771l-0.118,0.079
		c0.101,0.038,0.19,0.089,0.267,0.151c0.253,0.195,0.379,0.49,0.379,0.886c0,0.435-0.137,0.778-0.411,1.034
		c-0.274,0.255-0.644,0.383-1.108,0.383c-0.479,0-0.851-0.126-1.115-0.378c-0.264-0.252-0.399-0.61-0.405-1.075h0.846
		c0.004,0.249,0.06,0.438,0.168,0.568s0.264,0.195,0.468,0.195c0.198,0,0.358-0.065,0.479-0.197
		c0.121-0.131,0.182-0.305,0.182-0.519c0-0.188-0.061-0.34-0.182-0.455c-0.107-0.1-0.243-0.155-0.407-0.167
		c-0.091-0.006-0.175-0.01-0.253-0.011c-0.078-0.001-0.128,0.002-0.15,0.008v-0.644c0.024,0.005,0.076,0.005,0.155,0.002
		c0.079-0.004,0.163-0.01,0.251-0.021c0.138-0.017,0.247-0.062,0.328-0.143C37.781,62.938,37.832,62.799,37.832,62.618z"/>
</g>
<g>
	<path fill="#231F20" d="M45.418,62.719c0,0.336-0.078,0.613-0.234,0.834s-0.451,0.469-0.881,0.743
		c-0.398,0.253-0.672,0.481-0.816,0.687l-0.004,0.006h1.937v0.765h-3.015v-0.001c0-0.404,0.103-0.751,0.307-1.04
		s0.588-0.632,1.152-1.028c0.253-0.176,0.432-0.336,0.533-0.482c0.104-0.146,0.156-0.311,0.156-0.489
		c0-0.196-0.058-0.354-0.171-0.474c-0.112-0.12-0.263-0.18-0.448-0.18c-0.199,0-0.354,0.074-0.465,0.226
		c-0.111,0.149-0.162,0.353-0.154,0.608H42.46c-0.014-0.479,0.112-0.858,0.378-1.141c0.266-0.281,0.633-0.422,1.1-0.422
		c0.435,0,0.791,0.13,1.066,0.389C45.279,61.977,45.418,62.311,45.418,62.719z"/>
	<path fill="#231F20" d="M45.863,64.777V64.4v-0.375l1.635-2.696h0.484h0.485v2.757h0.498v0.691h-0.498v0.975h-0.854v-0.975H45.863z
		 M47.613,64.086v-1.841l-1.072,1.78l-0.037,0.061H47.613z"/>
</g>
<g>
	<path fill="#231F20" d="M55.488,62.719c0,0.336-0.079,0.613-0.235,0.834c-0.155,0.221-0.45,0.469-0.881,0.743
		c-0.397,0.253-0.671,0.481-0.815,0.687l-0.004,0.006h1.936v0.765h-3.014v-0.001c0-0.404,0.102-0.751,0.305-1.04
		c0.205-0.289,0.59-0.632,1.154-1.028c0.252-0.176,0.43-0.336,0.532-0.482c0.104-0.146,0.154-0.311,0.154-0.489
		c0-0.196-0.056-0.354-0.169-0.474c-0.113-0.12-0.264-0.18-0.449-0.18c-0.197,0-0.354,0.074-0.464,0.226
		c-0.11,0.149-0.163,0.353-0.155,0.608h-0.852c-0.016-0.479,0.111-0.858,0.377-1.141c0.267-0.281,0.633-0.422,1.1-0.422
		c0.436,0,0.791,0.13,1.067,0.389C55.352,61.977,55.488,62.311,55.488,62.719z"/>
	<path fill="#231F20" d="M58.973,64.293c0,0.482-0.145,0.866-0.435,1.148c-0.291,0.283-0.685,0.426-1.179,0.426
		c-0.396,0-0.721-0.116-0.978-0.348c-0.257-0.232-0.405-0.547-0.448-0.941h0.873c0.022,0.195,0.088,0.345,0.194,0.447
		c0.106,0.102,0.253,0.152,0.438,0.152c0.189,0,0.345-0.074,0.461-0.222c0.117-0.147,0.177-0.342,0.177-0.583
		c0-0.246-0.06-0.445-0.179-0.596c-0.119-0.151-0.276-0.227-0.472-0.227c-0.12,0-0.233,0.027-0.338,0.082s-0.185,0.128-0.241,0.221
		l-0.764-0.035l0.29-2.402h2.415v0.736h-1.794l-0.147,0.938c0.241-0.151,0.504-0.228,0.787-0.228c0.393,0,0.713,0.134,0.965,0.4
		C58.85,63.531,58.973,63.874,58.973,64.293z"/>
</g>
<g>
	<path fill="#F17171" d="M65.559,62.719c0,0.336-0.078,0.613-0.234,0.834c-0.157,0.221-0.45,0.469-0.881,0.743
		c-0.398,0.253-0.672,0.481-0.816,0.687l-0.003,0.006h1.937v0.765h-3.016v-0.001c0-0.404,0.102-0.751,0.307-1.04
		c0.203-0.289,0.588-0.632,1.151-1.028c0.253-0.176,0.431-0.336,0.534-0.482s0.154-0.311,0.154-0.489
		c0-0.196-0.058-0.354-0.17-0.474s-0.264-0.18-0.449-0.18c-0.197,0-0.352,0.074-0.463,0.226c-0.111,0.149-0.164,0.353-0.155,0.608
		h-0.853c-0.015-0.479,0.111-0.858,0.377-1.141c0.267-0.282,0.633-0.422,1.101-0.422c0.435,0,0.791,0.13,1.067,0.389
		C65.421,61.977,65.559,62.311,65.559,62.719z"/>
	<path fill="#F17171" d="M67.699,61.333c0.365,0,0.666,0.104,0.9,0.317s0.359,0.492,0.377,0.838h-0.858
		c0.002-0.139-0.038-0.248-0.12-0.331s-0.191-0.124-0.329-0.124h-0.036c-0.261-0.002-0.453,0.123-0.576,0.376
		c-0.097,0.196-0.156,0.481-0.176,0.858c0.234-0.248,0.518-0.371,0.85-0.371c0.393,0,0.713,0.136,0.963,0.404
		c0.25,0.27,0.375,0.616,0.375,1.038c0,0.448-0.143,0.813-0.426,1.101c-0.285,0.285-0.648,0.428-1.095,0.428
		c-0.497,0-0.875-0.188-1.133-0.561c-0.259-0.373-0.388-0.918-0.388-1.636c0-0.79,0.144-1.384,0.429-1.78
		c0.265-0.375,0.649-0.562,1.151-0.562L67.699,61.333z M66.896,64.361c0,0.23,0.062,0.425,0.187,0.578
		c0.125,0.152,0.28,0.229,0.466,0.229c0.213,0,0.374-0.068,0.485-0.206c0.11-0.137,0.167-0.338,0.167-0.603
		c0-0.229-0.061-0.416-0.18-0.555c-0.119-0.142-0.276-0.212-0.474-0.212c-0.196,0-0.354,0.071-0.473,0.212
		C66.955,63.945,66.896,64.131,66.896,64.361z"/>
</g>
<g>
	<path fill="#F17171" d="M75.629,62.719c0,0.336-0.079,0.613-0.234,0.834c-0.158,0.221-0.451,0.469-0.881,0.743
		c-0.398,0.253-0.672,0.481-0.816,0.687l-0.004,0.006h1.937v0.765h-3.017v-0.001c0-0.404,0.104-0.751,0.308-1.04
		s0.589-0.632,1.151-1.028c0.254-0.176,0.432-0.336,0.535-0.482c0.103-0.146,0.154-0.311,0.154-0.489
		c0-0.196-0.058-0.354-0.171-0.474c-0.112-0.12-0.263-0.18-0.448-0.18c-0.197,0-0.354,0.074-0.463,0.226
		c-0.111,0.149-0.164,0.353-0.156,0.608h-0.852c-0.015-0.479,0.111-0.858,0.377-1.141s0.633-0.422,1.1-0.422
		c0.436,0,0.791,0.13,1.067,0.389C75.491,61.977,75.629,62.311,75.629,62.719z"/>
	<path fill="#F17171" d="M76.688,65.752c0.065-0.664,0.244-1.32,0.539-1.969c0.274-0.604,0.616-1.139,1.025-1.602h-2.189v-0.766
		h3.127v0.328v0.33c-0.448,0.488-0.814,1.06-1.099,1.711c-0.282,0.648-0.452,1.304-0.509,1.966L76.688,65.752L76.688,65.752z"/>
</g>
<g>
	<path fill="#231F20" d="M15.207,71.657c0,0.335-0.079,0.612-0.235,0.834c-0.157,0.22-0.451,0.468-0.881,0.743
		c-0.398,0.252-0.67,0.48-0.816,0.686l-0.003,0.006h1.935v0.764h-3.015l0,0c0-0.403,0.102-0.75,0.306-1.039s0.588-0.633,1.152-1.028
		c0.253-0.177,0.431-0.337,0.534-0.483c0.103-0.146,0.155-0.31,0.155-0.49c0-0.194-0.057-0.354-0.17-0.473
		c-0.113-0.119-0.263-0.179-0.449-0.179c-0.198,0-0.353,0.073-0.464,0.224c-0.111,0.15-0.163,0.354-0.155,0.61H12.25
		c-0.014-0.479,0.112-0.858,0.377-1.142c0.266-0.28,0.632-0.422,1.1-0.422c0.435,0,0.791,0.131,1.067,0.39
		C15.069,70.915,15.207,71.248,15.207,71.657z"/>
	<path fill="#231F20" d="M18.049,72.343c0.097,0.048,0.188,0.106,0.273,0.177c0.279,0.229,0.418,0.529,0.418,0.905
		c0,0.415-0.14,0.748-0.42,1.001c-0.28,0.254-0.649,0.379-1.108,0.379c-0.457,0-0.826-0.125-1.105-0.379
		c-0.28-0.253-0.42-0.586-0.42-1.001c0-0.376,0.141-0.679,0.422-0.909c0.081-0.068,0.17-0.125,0.267-0.17l-0.169-0.111
		c-0.255-0.192-0.382-0.445-0.382-0.76c0-0.36,0.127-0.652,0.382-0.875c0.254-0.221,0.59-0.332,1.007-0.332s0.752,0.111,1.007,0.332
		c0.255,0.223,0.382,0.515,0.382,0.875c0,0.313-0.127,0.566-0.382,0.76C18.164,72.273,18.107,72.311,18.049,72.343z M17.212,72.729
		c-0.194,0-0.348,0.062-0.461,0.188c-0.113,0.125-0.17,0.294-0.17,0.506c0,0.208,0.057,0.374,0.17,0.496s0.267,0.184,0.461,0.184
		s0.348-0.062,0.462-0.184c0.114-0.122,0.171-0.288,0.171-0.496c0-0.212-0.058-0.381-0.173-0.506
		C17.56,72.79,17.406,72.729,17.212,72.729z M17.212,72.078c0.167,0,0.301-0.049,0.4-0.146c0.099-0.099,0.148-0.23,0.148-0.398
		c0-0.172-0.05-0.309-0.148-0.409c-0.099-0.101-0.233-0.151-0.4-0.151c-0.168,0-0.301,0.051-0.4,0.151
		c-0.099,0.103-0.149,0.237-0.149,0.409c0,0.168,0.05,0.302,0.149,0.4C16.911,72.03,17.044,72.078,17.212,72.078z"/>
</g>
<g>
	<path fill="#231F20" d="M25.277,71.657c0,0.335-0.079,0.612-0.235,0.834c-0.157,0.22-0.45,0.468-0.881,0.743
		c-0.398,0.252-0.67,0.479-0.816,0.686l-0.003,0.006h1.935v0.764h-3.015l0,0c0-0.403,0.102-0.75,0.306-1.039
		s0.588-0.633,1.152-1.028c0.253-0.177,0.431-0.337,0.534-0.483c0.103-0.146,0.154-0.31,0.154-0.49c0-0.194-0.057-0.354-0.169-0.473
		c-0.113-0.119-0.263-0.179-0.449-0.179c-0.198,0-0.353,0.073-0.464,0.224c-0.111,0.15-0.163,0.354-0.155,0.61H22.32
		c-0.014-0.479,0.111-0.858,0.377-1.142c0.266-0.28,0.632-0.422,1.1-0.422c0.435,0,0.791,0.131,1.067,0.39
		C25.14,70.915,25.277,71.248,25.277,71.657z"/>
	<path fill="#231F20" d="M27.118,74.802c-0.37,0-0.673-0.104-0.908-0.317c-0.236-0.213-0.361-0.491-0.378-0.838h0.858
		c-0.002,0.139,0.039,0.248,0.123,0.332c0.084,0.082,0.196,0.123,0.335,0.123h0.042c0.259,0.002,0.451-0.121,0.576-0.373
		c0.097-0.195,0.158-0.483,0.182-0.863c-0.241,0.248-0.528,0.373-0.861,0.373c-0.395,0-0.717-0.135-0.969-0.404
		c-0.251-0.271-0.377-0.616-0.377-1.038c0-0.448,0.143-0.815,0.428-1.101c0.285-0.284,0.652-0.428,1.101-0.428
		c0.499,0,0.879,0.188,1.139,0.561c0.26,0.373,0.39,0.918,0.39,1.635c0,0.79-0.144,1.385-0.431,1.782
		c-0.267,0.374-0.653,0.562-1.159,0.562L27.118,74.802z M27.931,71.773c0-0.231-0.063-0.426-0.188-0.578
		c-0.125-0.153-0.283-0.229-0.473-0.229c-0.216,0-0.381,0.068-0.493,0.205c-0.112,0.138-0.168,0.339-0.168,0.603
		c0,0.23,0.061,0.416,0.182,0.557c0.122,0.141,0.281,0.21,0.479,0.21c0.198,0,0.358-0.07,0.479-0.212
		C27.87,72.188,27.931,72.004,27.931,71.773z"/>
</g>
<g>
	<path fill="#231F20" d="M34.377,71.557c0-0.172-0.049-0.311-0.148-0.416c-0.099-0.106-0.23-0.16-0.395-0.16
		c-0.19,0-0.337,0.062-0.441,0.182s-0.158,0.292-0.162,0.514H32.43c0.006-0.449,0.136-0.798,0.39-1.041
		c0.254-0.244,0.611-0.365,1.072-0.365c0.396,0,0.721,0.114,0.974,0.346c0.253,0.23,0.379,0.527,0.379,0.889
		c0,0.312-0.132,0.57-0.395,0.771l-0.118,0.078c0.101,0.039,0.19,0.09,0.267,0.151c0.253,0.196,0.379,0.491,0.379,0.886
		c0,0.436-0.137,0.779-0.411,1.034c-0.274,0.255-0.644,0.382-1.108,0.382c-0.479,0-0.851-0.125-1.115-0.377
		c-0.264-0.252-0.399-0.609-0.405-1.074h0.846c0.004,0.248,0.06,0.438,0.168,0.567c0.108,0.132,0.264,0.195,0.468,0.195
		c0.198,0,0.358-0.065,0.479-0.196c0.121-0.132,0.182-0.305,0.182-0.52c0-0.188-0.061-0.34-0.182-0.454
		c-0.107-0.101-0.243-0.155-0.407-0.167c-0.091-0.006-0.175-0.01-0.253-0.012c-0.078,0-0.128,0.002-0.15,0.008v-0.644
		c0.024,0.005,0.076,0.005,0.155,0.003c0.079-0.004,0.163-0.011,0.252-0.021c0.137-0.017,0.247-0.064,0.327-0.144
		C34.327,71.875,34.377,71.736,34.377,71.557z"/>
	<path fill="#231F20" d="M36.203,74.255c-0.249-0.366-0.374-0.932-0.376-1.694c0.002-0.779,0.127-1.356,0.376-1.73
		s0.632-0.562,1.149-0.562c0.522,0,0.907,0.188,1.156,0.562s0.373,0.943,0.373,1.71v0.021c0.002,0.764-0.122,1.328-0.372,1.694
		c-0.25,0.367-0.635,0.55-1.157,0.55C36.834,74.805,36.452,74.622,36.203,74.255z M37.844,73.753
		c0.095-0.231,0.143-0.632,0.143-1.198c0.002-0.58-0.045-0.988-0.141-1.227c-0.096-0.238-0.26-0.355-0.493-0.355
		c-0.23,0-0.393,0.117-0.486,0.355c-0.094,0.236-0.142,0.646-0.144,1.227c0,0.566,0.047,0.967,0.142,1.198
		c0.095,0.231,0.258,0.349,0.488,0.349C37.585,74.102,37.749,73.984,37.844,73.753z"/>
</g>
<g>
	<path fill="#231F20" d="M44.447,71.557c0-0.172-0.051-0.311-0.148-0.416c-0.1-0.106-0.23-0.16-0.395-0.16
		c-0.189,0-0.338,0.062-0.441,0.182s-0.158,0.292-0.162,0.514H42.5c0.006-0.449,0.136-0.798,0.39-1.041
		c0.254-0.244,0.611-0.365,1.072-0.365c0.396,0,0.722,0.114,0.974,0.346c0.254,0.23,0.379,0.527,0.379,0.889
		c0,0.312-0.131,0.57-0.394,0.771l-0.118,0.078c0.102,0.039,0.189,0.09,0.268,0.151c0.252,0.196,0.379,0.491,0.379,0.886
		c0,0.436-0.137,0.779-0.411,1.034s-0.644,0.382-1.108,0.382c-0.479,0-0.851-0.125-1.115-0.377s-0.399-0.609-0.405-1.074h0.847
		c0.005,0.248,0.06,0.438,0.168,0.567c0.107,0.132,0.265,0.195,0.47,0.195c0.197,0,0.356-0.065,0.479-0.196
		c0.122-0.132,0.184-0.305,0.184-0.52c0-0.188-0.062-0.34-0.184-0.454c-0.105-0.101-0.242-0.155-0.406-0.167
		c-0.091-0.006-0.176-0.01-0.253-0.012c-0.077,0-0.128,0.002-0.149,0.008v-0.644c0.023,0.005,0.074,0.005,0.154,0.003
		c0.078-0.004,0.162-0.011,0.252-0.021c0.137-0.017,0.246-0.064,0.327-0.144C44.396,71.875,44.447,71.736,44.447,71.557z"/>
	<path fill="#231F20" d="M47.188,71.643h-1.062V71.02c0.271,0.016,0.514-0.045,0.729-0.179c0.215-0.133,0.379-0.323,0.49-0.573
		h0.713v4.422h-0.434h-0.438v-3.047H47.188z"/>
</g>
</svg>
