<?xml version="1.0" encoding="utf-8"?>
<!-- Generator: Adobe Illustrator 16.0.0, SVG Export Plug-In . SVG Version: 6.00 Build 0)  -->
<!DOCTYPE svg PUBLIC "-//W3C//DTD SVG 1.1//EN" "http://www.w3.org/Graphics/SVG/1.1/DTD/svg11.dtd">
<svg version="1.1" id="Layer_1" xmlns="http://www.w3.org/2000/svg" xmlns:xlink="http://www.w3.org/1999/xlink" x="0px" y="0px"
	 width="85px" height="85px" viewBox="0 0 85 85" enable-background="new 0 0 85 85" xml:space="preserve">
<g>
	<path fill="#CA8786" d="M67.171,81.776H17.827c-1.602,0-2.896-1.295-2.896-2.896V46.644h55.135V78.88
		C70.065,80.481,68.769,81.776,67.171,81.776"/>
	<path fill="#EFF8FA" d="M70.065,50.778h-51c-2.283,0-4.135-1.852-4.135-4.135c0-2.285,1.852-4.135,4.135-4.135H67.31
		c1.521,0,2.756,1.234,2.756,2.756V50.778L70.065,50.778z"/>
	<path fill="#A8D37D" d="M63.173,5.981v44.797H21.821V5.981c0-1.516,1.24-2.756,2.758-2.756h35.838
		C61.933,3.224,63.173,4.466,63.173,5.981"/>
	<path fill="#FFCE5B" d="M34.228,3.224c0,6.852-5.553,12.406-12.404,12.406v-9.65c0-1.521,1.234-2.756,2.756-2.756H34.228z"/>
	<path fill="#FFCE5B" d="M50.769,3.224c0,6.852,5.555,12.406,12.404,12.406v-9.65c0-1.521-1.234-2.756-2.756-2.756H50.769z"/>
	<path fill="#FFCE5B" d="M58.351,70.075h11.715v-9.646H58.351c-2.666,0-4.824,2.158-4.824,4.822S55.685,70.075,58.351,70.075"/>
	<path fill="#EFF8FA" d="M56.282,65.251c0,1.145,0.926,2.068,2.068,2.068c1.141,0,2.064-0.926,2.064-2.068
		c0-1.141-0.924-2.066-2.064-2.066C57.206,63.185,56.282,64.11,56.282,65.251"/>
	<path fill="#FFCE5B" d="M57.661,42.509c0,3.061-0.896,5.898-2.453,8.27H29.79c-1.559-2.369-2.453-5.209-2.453-8.27
		c0-8.381,6.781-15.162,15.162-15.162C50.878,27.347,57.661,34.128,57.661,42.509"/>
	<path fill="#010101" d="M59.513,82.501h-0.43c-0.4,0-0.727-0.324-0.727-0.725s0.324-0.725,0.727-0.725h0.43
		c0.398,0,0.723,0.324,0.723,0.725S59.911,82.501,59.513,82.501z"/>
	<path fill="#010101" d="M55.981,82.501H17.687c-1.918,0-3.479-1.562-3.479-3.48V46.644c0-0.398,0.324-0.723,0.725-0.723
		s0.725,0.322,0.725,0.723c0,1.881,1.529,3.412,3.408,3.412h51c0.4,0,0.727,0.324,0.727,0.723v28.242c0,1.92-1.562,3.48-3.482,3.48
		h-4.135c-0.4,0-0.725-0.324-0.725-0.725c0-0.398,0.324-0.725,0.725-0.725h4.135c1.121,0,2.033-0.912,2.033-2.031v-27.52H19.065
		c-1.326,0-2.531-0.533-3.408-1.4v28.92c0,1.119,0.91,2.031,2.029,2.031h38.295c0.398,0,0.725,0.324,0.725,0.725
		C56.704,82.177,56.38,82.501,55.981,82.501z"/>
	<path fill="#010101" d="M21.823,35.479c-0.4,0-0.725-0.324-0.725-0.723v-0.691c0-0.398,0.324-0.723,0.725-0.723
		c0.398,0,0.725,0.322,0.725,0.723v0.691C22.546,35.155,22.222,35.479,21.823,35.479z"/>
	<path fill="#010101" d="M63.173,51.503H21.821c-0.398,0-0.725-0.324-0.725-0.725v-12.32c0-0.398,0.324-0.723,0.725-0.723
		s0.725,0.324,0.725,0.723v11.596h39.902V5.979c0-1.121-0.91-2.031-2.031-2.031H24.579c-1.121,0-2.033,0.91-2.033,2.031v24.037
		c0,0.398-0.324,0.723-0.725,0.723c-0.398,0-0.725-0.324-0.725-0.723V5.979c0-1.918,1.562-3.48,3.48-3.48h35.84
		c1.918,0,3.479,1.562,3.479,3.48v44.799C63.897,51.179,63.573,51.503,63.173,51.503z"/>
	<path fill="#010101" d="M21.823,51.503h-2.758c-2.678,0-4.855-2.18-4.855-4.859c0-2.678,2.178-4.859,4.855-4.859h2.758
		c0.191,0,0.377,0.076,0.512,0.213c0.137,0.137,0.213,0.32,0.213,0.514v8.27C22.546,51.179,22.222,51.503,21.823,51.503z
		 M19.065,43.231c-1.879,0-3.408,1.531-3.408,3.412s1.529,3.41,3.408,3.41h2.033v-6.822H19.065L19.065,43.231z"/>
	<path fill="#010101" d="M70.065,51.503h-6.893c-0.398,0-0.723-0.324-0.723-0.725v-8.27c0-0.4,0.322-0.727,0.723-0.727h4.137
		c0.93,0,1.805,0.363,2.461,1.021c0.658,0.656,1.021,1.531,1.021,2.461v5.514C70.79,51.179,70.466,51.503,70.065,51.503z
		 M63.897,50.056h5.445v-4.791c0-0.541-0.213-1.051-0.596-1.438c-0.387-0.383-0.896-0.596-1.439-0.596h-3.41V50.056L63.897,50.056z"
		/>
	<path fill="#010101" d="M21.823,16.354c-0.4,0-0.725-0.324-0.725-0.725V5.981c0-1.92,1.562-3.48,3.48-3.48h9.648
		c0.398,0,0.725,0.324,0.725,0.725C34.952,10.464,29.062,16.354,21.823,16.354z M24.579,3.948c-1.121,0-2.033,0.912-2.033,2.033
		v8.902c5.867-0.359,10.576-5.068,10.936-10.936H24.579z"/>
	<path fill="#010101" d="M63.173,16.354c-7.238,0-13.129-5.891-13.129-13.129c0-0.4,0.324-0.725,0.725-0.725h9.648
		c1.92,0,3.48,1.561,3.48,3.48v9.648C63.897,16.03,63.575,16.354,63.173,16.354z M51.515,3.948
		c0.359,5.867,5.068,10.576,10.936,10.936V5.981c0-1.121-0.912-2.033-2.031-2.033H51.515L51.515,3.948z"/>
	<path fill="#010101" d="M70.065,70.8H58.351c-3.061,0-5.549-2.488-5.549-5.549c0-3.059,2.488-5.547,5.549-5.547h11.715
		c0.4,0,0.727,0.324,0.727,0.725v9.646C70.79,70.476,70.466,70.8,70.065,70.8z M58.351,61.151c-2.262,0-4.102,1.84-4.102,4.1
		c0,2.262,1.84,4.102,4.102,4.102h10.992v-8.199H58.351V61.151z"/>
	<path fill="#010101" d="M58.351,68.042c-1.541,0-2.793-1.252-2.793-2.791s1.252-2.791,2.793-2.791c1.537,0,2.789,1.252,2.789,2.791
		S59.888,68.042,58.351,68.042z M58.351,63.907c-0.742,0-1.344,0.604-1.344,1.344s0.602,1.344,1.344,1.344
		c0.738,0,1.342-0.604,1.342-1.344S59.089,63.907,58.351,63.907z"/>
	<path fill="#010101" d="M55.208,51.503H29.79c-0.244,0-0.473-0.123-0.605-0.326c-1.684-2.561-2.572-5.559-2.572-8.668
		c0-4.246,1.65-8.236,4.65-11.236c2.998-2.998,6.988-4.65,11.234-4.65c4.248,0,8.236,1.652,11.236,4.65
		c2.998,3,4.65,6.99,4.65,11.236c0,3.107-0.889,6.105-2.572,8.668C55.679,51.38,55.452,51.503,55.208,51.503z M30.187,50.056H54.81
		c1.395-2.252,2.127-4.854,2.127-7.547c0-3.859-1.5-7.486-4.227-10.211c-2.727-2.727-6.354-4.227-10.213-4.227
		s-7.486,1.5-10.211,4.227c-2.727,2.725-4.227,6.352-4.227,10.211C28.06,45.204,28.794,47.806,30.187,50.056z"/>
	<path fill="#010101" d="M49.39,46.679c-0.398,0-0.725-0.324-0.725-0.725v-4.822c0-0.742-0.604-1.346-1.344-1.346h-2.758
		c-0.738,0-1.342,0.604-1.342,1.346v2.754c0,1.541-1.254,2.793-2.793,2.793h-2.756c-1.539,0-2.791-1.252-2.791-2.793v-4.822
		c0-0.4,0.324-0.723,0.723-0.723c0.4,0,0.727,0.322,0.727,0.723v4.822c0,0.74,0.602,1.346,1.344,1.346h2.756
		c0.74,0,1.344-0.605,1.344-1.346v-2.754c0-1.539,1.252-2.793,2.791-2.793h2.758c1.539,0,2.791,1.252,2.791,2.793v4.822
		C50.114,46.354,49.79,46.679,49.39,46.679z"/>
	<path fill="#010101" d="M52.147,43.231H32.849c-0.398,0-0.725-0.324-0.725-0.723c0-0.4,0.324-0.727,0.725-0.727h19.299
		c0.398,0,0.725,0.324,0.725,0.727C52.87,42.907,52.546,43.231,52.147,43.231z"/>
</g>
</svg>
