<?xml version="1.0" encoding="utf-8"?>
<!-- Generator: Adobe Illustrator 16.0.0, SVG Export Plug-In . SVG Version: 6.00 Build 0)  -->
<!DOCTYPE svg PUBLIC "-//W3C//DTD SVG 1.1//EN" "http://www.w3.org/Graphics/SVG/1.1/DTD/svg11.dtd">
<svg version="1.1" id="Layer_1" xmlns="http://www.w3.org/2000/svg" xmlns:xlink="http://www.w3.org/1999/xlink" x="0px" y="0px"
	 width="85px" height="85px" viewBox="0 0 85 85" enable-background="new 0 0 85 85" xml:space="preserve">
<g>
	<path fill="#FFFFFF" d="M46.429,19.834l-0.598-0.199c-0.498-0.198-0.498-0.498-0.498-0.896c-0.1-0.397-0.1-0.896-0.1-1.295
		c1.295-0.498,2.291-2.292,2.488-2.79c0-0.1,0.102-0.199,0.102-0.398h0.1c0.199,0,0.398-0.1,0.598-0.299s0.398-0.398,0.498-0.697
		c0.299-0.498,0.398-1.096,0.299-1.594c0-0.1,0-0.299-0.1-0.397c-0.1-0.2-0.299-0.3-0.498-0.3s-0.398,0-0.598,0.199
		c0,0-0.199-4.482-5.479-4.482c-4.684,0-4.783,4.482-4.783,4.482c-0.199-0.101-0.398-0.199-0.598-0.199s-0.398,0.199-0.498,0.3
		c-0.1,0.1-0.1,0.299-0.1,0.397c0,0.598,0.1,1.096,0.299,1.594c0.1,0.3,0.299,0.498,0.498,0.697c0.199,0.1,0.398,0.199,0.598,0.299
		h0.199c0.199,0.697,0.498,1.396,0.996,1.894c0.398,0.499,0.896,0.897,1.494,1.196c0,0.498,0,0.896-0.1,1.395
		c-0.1,0.398,0,0.697-0.498,0.896c0,0-0.299,0.1-0.398,0.1c0,0,0,2.591,3.088,2.591C45.931,22.326,46.429,19.834,46.429,19.834z"/>
	<path fill="#957F6E" d="M36.765,14.355c0.1-0.299,0.199-0.498,0.299-0.697c0.1,0.1,0.199,0.199,0.299,0.299
		c0.199,0.101,0.398,0.199,0.598,0.299h0.199c0.199,0.697,0.5,1.396,0.998,1.894c0.199,0.299,0.498,0.599,0.797,0.798
		c-0.1,0.498-0.797,0.896-1.596,1.096c-0.598,0.101-1.295,0-1.793-0.299c-0.1,0-0.1-0.1-0.199-0.199v-0.1v-0.1
		c0.398-0.1,0.498-0.498,0.498-0.998c0-0.397-0.1-0.797-0.1-1.295c0-0.198,0-0.299,0-0.498
		C36.765,14.555,36.765,14.455,36.765,14.355z"/>
	<path fill="#211715" d="M40.253,17.644c0,0.1,0,0.299,0,0.397c0,0.1,0,0.101,0,0.199v0.1l0,0l0,0c0,0.199-0.1,0.398-0.1,0.599
		c0,0,0,0,0,0.101c0,0,0,0.1,0,0c0-0.101,0,0.1,0,0.1s0.1-0.1,0,0l0,0c-0.102,0.1,0.1,0,0,0c0,0,0,0-0.102,0c0,0-0.1,0,0,0
		c0,0,0,0-0.1,0h-0.1c-0.1,0-0.199,0.1-0.199,0.1c-0.199,0.1-0.299,0.299-0.299,0.398c0.1,0.199,0.299,0.299,0.398,0.299l0,0
		c0.199-0.1,0.398-0.1,0.598-0.199s0.398-0.299,0.498-0.598c0.1-0.199,0.1-0.398,0.1-0.598c0.1-0.3,0.1-0.697,0.1-0.996
		c0-0.199-0.199-0.398-0.396-0.398C40.452,17.344,40.253,17.444,40.253,17.644L40.253,17.644z"/>
	<path fill="#211715" d="M44.735,17.644c0,0.397,0.1,0.797,0.1,1.194c0,0.299,0.102,0.498,0.299,0.697
		c0.199,0.199,0.398,0.299,0.6,0.398c0.199,0.099,0.299,0.1,0.498,0.199c0.197,0.099,0.396-0.101,0.396-0.299l0,0
		c0-0.199-0.1-0.398-0.299-0.398c-0.1-0.1-0.299-0.1-0.398-0.199c-0.1,0-0.1,0-0.197-0.1l0,0c0.1,0,0,0,0,0s-0.102-0.101,0,0
		c0,0,0,0-0.102-0.101c-0.1-0.1,0,0.101,0,0c0,0,0,0,0-0.1c0-0.101,0,0.1,0,0v-0.101c0-0.1,0-0.199-0.1-0.299
		c-0.1-0.299-0.1-0.697-0.1-0.996c0-0.199-0.199-0.398-0.398-0.398C44.935,17.344,44.735,17.444,44.735,17.644L44.735,17.644z"/>
	<path fill="#FFFFFF" d="M38.56,19.735c-1.197,0.498-2.592,0.996-3.389,1.595c-0.299,0.299-0.598,0.598-0.797,0.996
		c-0.199,0.299-0.299,0.498-0.498,0.797c-0.398,0.996-1.594,4.084-2.094,5.479c-0.498,1.295-0.299,2.59,0.4,3.485
		c0.695,0.896,2.787,1.596,3.686,1.895c1.195,0.398,2.191,0.697,3.287,0.996l4.283-0.299c0.6,0,4.385-0.498,6.275-0.896
		c0.799-0.199,2.393-0.599,3.09-1.195c0.697-0.598,0.697-1.894,0.398-3.287c-0.299-1.494-1.096-5.381-1.395-6.178
		c-0.199-0.498-0.498-1.195-0.799-1.494l-0.1-0.101c-0.299-0.299-0.598-0.397-0.896-0.498c-1.295-0.696-2.59-1.396-3.984-1.894
		c-0.199-0.397-0.498-0.797-0.797-1.096c-0.598,0.598-1.395,1.195-2.191,1.494c0,0-0.1,0-0.1,0.1h-0.398l-0.1-0.1
		c-0.797-0.398-1.596-0.896-2.191-1.494c-0.398,0.398-0.697,0.797-0.896,1.295C39.255,19.537,38.958,19.635,38.56,19.735z"/>
	<path fill="#FFFFFF" d="M47.226,59.287c0.398,3.486-0.299,6.973-0.697,10.461c-0.299,2.391-0.299,5.08,1.295,6.773
		c0.398,0.398,0.498,1.195,0.199,1.594c-0.398,0.598-1.295,0.299-1.893,0c-0.797-0.299-1.494-0.797-2.291-1.096
		c-0.5-0.199-0.799-0.498-1.297-0.398c-0.396,0.1-0.695,0.299-1.096,0.598c-0.797,0.598-1.594,1.096-2.49,0.996
		c-0.697,0-1.693-0.797-1.195-1.594c0.199-0.299,0.498-0.398,0.799-0.797c0.197-0.299,0.396-0.697,0.598-1.096
		c0.598-1.596,0.498-3.389,0.299-5.082c-0.398-3.486-1.197-6.973-0.697-10.461"/>
	<path fill="#211715" d="M38.358,59.287c-0.299,2.59,0,5.08,0.299,7.57c0.201,1.195,0.4,2.393,0.5,3.588c0.1,0.994,0.1,1.99,0,2.986
		c-0.199,0.998-0.5,2.094-1.297,2.791c-0.299,0.299,0.199,0.797,0.498,0.498c1.496-1.494,1.693-3.688,1.596-5.68
		c-0.1-1.195-0.299-2.391-0.398-3.486c-0.199-1.295-0.398-2.59-0.498-3.785c-0.1-1.494-0.1-2.988,0-4.482
		c0-0.199-0.199-0.398-0.398-0.398C38.56,58.889,38.358,59.088,38.358,59.287L38.358,59.287z"/>
	<path fill="#211715" d="M42.644,59.188c0,4.582,0,9.064-0.102,13.648c0,1.295-0.1,2.689-0.1,3.984c0,0.498,0.697,0.498,0.697,0
		c0.1-4.684,0.199-9.365,0.199-14.047v-3.486C43.339,58.789,42.644,58.789,42.644,59.188L42.644,59.188z"/>
	<path fill="#211715" d="M46.927,59.287c0.299,2.59,0,5.279-0.398,7.77c-0.299,2.193-0.797,4.484-0.398,6.676
		c0.199,1.098,0.697,2.191,1.494,2.988c0.299,0.299,0.797-0.199,0.498-0.498c-1.395-1.395-1.494-3.586-1.295-5.379
		c0.199-2.391,0.697-4.883,0.896-7.271c0.1-1.396,0.1-2.891-0.1-4.285c0-0.199-0.199-0.398-0.398-0.398S46.927,59.088,46.927,59.287
		L46.927,59.287z"/>
	<path fill="#645D5C" d="M35.569,81.105C35.569,81.006,35.569,81.006,35.569,81.105c-0.299-0.498-0.299-0.896-0.199-1.297
		c0.199-0.396,0.398-0.797,0.598-1.096c0.6-0.895,1.295-1.693,1.992-2.49c0.299-0.299,0.6-0.598,0.998-0.695
		c-0.1,0.197-0.199,0.797,0.1,0.994c0.199,0.102,0.498,0.102,0.797,0.102c1.096,0,2.291-0.797,2.889-1.295c0,0,0.1,0,0.1,0.1
		c0,0.697,0.102,0.996,0.102,1.793c0,0.199-0.102,0.398-0.102,0.598c-0.197,0.498-0.695,0.697-1.096,0.996
		c-1.096,0.697-1.693,2.094-2.789,2.789c-0.797,0.498-1.893,0.498-2.689,0.102C35.968,81.404,35.769,81.305,35.569,81.105z"/>
	<path fill="#645D5C" d="M50.513,81.105C50.513,81.006,50.513,81.006,50.513,81.105c0.301-0.498,0.301-0.896,0.199-1.297
		c-0.199-0.396-0.396-0.797-0.598-1.096c-0.598-0.895-1.295-1.693-1.992-2.49c-0.299-0.299-0.598-0.598-0.996-0.695
		c0.1,0.197,0.199,0.895,0,0.994c-0.199,0.102-0.598,0.102-0.797,0.102c-1.096,0-2.291-0.797-2.889-1.396h-0.102
		c0,0.697-0.1,0.996-0.1,1.793c0,0.199,0.1,0.498,0.199,0.697c0.199,0.498,0.697,0.697,1.096,0.996
		c1.096,0.697,1.693,2.094,2.789,2.791c0.797,0.498,1.893,0.498,2.689,0.1C50.116,81.404,50.315,81.305,50.513,81.105z"/>
	<path fill="#211715" d="M35.868,80.906c-0.299-0.398-0.199-0.896,0-1.295c0.299-0.498,0.598-0.996,0.996-1.396
		c0.398-0.498,0.697-0.895,1.096-1.395c0.299-0.398,0.6-0.896,1.098-0.996l-0.398-0.398c-0.1,0.398-0.199,0.896,0,1.195
		c0.299,0.398,1.096,0.398,1.494,0.299c1.096-0.1,1.992-0.697,2.789-1.395l-0.199,0.1l0,0h-0.199l0,0l-0.199-0.1l0,0l0.199-0.199
		c0,0.199,0,0.299,0,0.498s0,0.299,0,0.498c0,0.398,0.102,0.797,0,1.096c-0.1,0.299-0.299,0.598-0.598,0.697
		c-0.299,0.199-0.598,0.398-0.797,0.598c-0.996,0.896-1.594,2.293-2.988,2.691C37.362,81.604,36.366,81.404,35.868,80.906
		c-0.199-0.199-0.398-0.199-0.598-0.1c-0.1,0.1-0.1,0.398,0,0.498c0.398,0.498,0.996,0.697,1.594,0.797
		c0.697,0.1,1.295,0,1.895-0.299c1.096-0.498,1.693-1.494,2.391-2.393c0.199-0.199,0.398-0.398,0.598-0.498
		c0.199-0.199,0.498-0.299,0.697-0.398c0.598-0.396,0.697-0.996,0.697-1.691c0-0.301,0-0.498,0-0.799c0-0.299,0-0.598,0-0.895
		c0-0.199-0.199-0.299-0.299-0.299c-0.199,0-0.398,0-0.498,0.199c-0.199,0.197-0.398,0.299-0.598,0.396
		c-0.498,0.398-1.195,0.697-1.893,0.697c-0.199,0-0.301,0-0.498,0c-0.102,0-0.102,0-0.199,0c-0.1,0,0,0,0,0c0-0.1,0-0.199,0-0.299
		s0-0.199,0.1-0.299c0-0.199-0.1-0.398-0.299-0.398c-0.1,0-0.1,0-0.199,0c-0.6,0.1-0.998,0.697-1.396,1.096
		c-0.498,0.498-0.896,1.098-1.295,1.594c-0.697,0.896-1.793,2.293-0.896,3.389c0.102,0.199,0.299,0.199,0.498,0.1
		C35.868,81.305,35.968,81.105,35.868,80.906z"/>
	<path fill="#211715" d="M50.813,81.205c0.895-1.195-0.199-2.492-0.898-3.389c-0.396-0.598-0.895-1.096-1.295-1.594
		c-0.398-0.498-0.797-0.996-1.395-1.096c-0.199,0-0.398,0.1-0.398,0.299c0,0.1,0,0.1,0,0.199c0.1,0.199,0.1,0.396,0.1,0.598v0.1
		c0,0,0.199-0.1,0,0c-0.1,0-0.299,0-0.396,0.1c-0.6,0-1.195-0.1-1.693-0.398c-0.299-0.1-0.498-0.299-0.697-0.496
		c-0.199-0.102-0.398-0.398-0.697-0.398c-0.398,0-0.498,0.398-0.498,0.697s0,0.498-0.102,0.797c0,0.598-0.1,1.295,0.301,1.793
		c0.299,0.498,0.896,0.697,1.295,0.996c0.896,0.697,1.395,1.793,2.391,2.49c0.598,0.398,1.295,0.598,1.992,0.598
		C49.517,82.102,50.315,81.902,50.813,81.205c0.1-0.102,0.1-0.299-0.102-0.398c-0.1-0.1-0.396-0.1-0.498,0
		c-0.498,0.598-1.295,0.697-1.992,0.598s-1.295-0.498-1.793-1.096c-0.498-0.5-0.896-1.098-1.395-1.596
		c-0.299-0.199-0.498-0.498-0.896-0.598c-0.199-0.199-0.498-0.299-0.697-0.598c-0.199-0.398-0.199-0.797-0.102-1.195
		c0-0.199,0-0.299,0-0.498c0-0.1,0-0.199,0-0.299s0-0.199,0-0.299l-0.197,0.199l0,0h-0.199l0,0h-0.199
		c0.1,0.1,0.199,0.1,0.199,0.199c0.1,0.1,0.199,0.199,0.299,0.199c0.199,0.197,0.396,0.299,0.697,0.396
		c0.498,0.299,0.996,0.498,1.594,0.6c0.398,0,1.195,0.1,1.494-0.301c0.199-0.396,0.1-0.895,0-1.295l-0.398,0.398
		c0.498,0.1,0.797,0.598,1.098,0.896c0.396,0.498,0.797,0.896,1.193,1.395c0.398,0.398,0.697,0.896,0.996,1.395
		c0.201,0.398,0.299,0.998,0,1.396c-0.1,0.199,0,0.398,0.102,0.498C50.513,81.504,50.712,81.404,50.813,81.205z"/>
	<path fill="#BDBDBD" d="M37.163,36.273c-0.299,0.896-0.697,3.188-0.895,4.384c-0.996,5.579,0.498,17.136,0.498,18.53
		c2.191,0.199,10.359,0.199,12.152,0c0.102-1.395,1.496-12.951,0.498-18.53c-0.199-1.096-0.598-3.388-0.895-4.284L37.163,36.273z"/>
	<path fill="#211715" d="M36.864,36.174c-0.199,0.797-0.398,1.692-0.498,2.49c-0.199,0.797-0.299,1.594-0.398,2.391
		c-0.197,1.595-0.299,3.287-0.299,4.883c0,3.387,0.299,6.773,0.6,10.16c0.1,0.998,0.197,1.994,0.197,2.99
		c0,0.199,0.199,0.398,0.398,0.398c1.494,0.197,2.99,0.1,4.584,0.197c1.893,0,3.785,0,5.678,0c0.697,0,1.396-0.1,1.992-0.1
		c0.199,0,0.299-0.199,0.299-0.299c0.199-2.391,0.498-4.684,0.6-7.072c0.1-1.795,0.199-3.588,0.199-5.381
		c0-1.693,0-3.388-0.199-4.98c-0.102-0.896-0.301-1.793-0.398-2.689c-0.199-0.896-0.299-1.894-0.598-2.789
		c-0.102-0.398-0.799-0.3-0.697,0.198c0.199,0.797,0.396,1.692,0.498,2.49c0.199,0.798,0.299,1.595,0.396,2.392
		c0.199,1.594,0.301,3.188,0.301,4.782c0,3.388-0.199,6.774-0.6,10.062c-0.1,0.998-0.199,1.994-0.299,2.891l0.299-0.299
		c-0.1,0,0.102,0,0,0h-0.1c-0.1,0-0.1,0-0.199,0c-0.098,0-0.299,0-0.398,0c-0.299,0-0.695,0-0.994,0.1c-0.896,0-1.693,0-2.592,0.1
		c-1.893,0-3.785,0-5.678,0c-0.699,0-1.396,0-2.191-0.1l0.396,0.398c0-0.797-0.1-1.594-0.199-2.391
		c-0.1-1.496-0.299-3.09-0.396-4.584c-0.102-1.793-0.199-3.587-0.299-5.38c0-1.692,0-3.388,0.197-4.981
		c0.102-0.797,0.301-1.692,0.398-2.489c0.199-0.897,0.299-1.894,0.598-2.79C37.661,35.975,36.964,35.775,36.864,36.174
		L36.864,36.174z"/>
	<path fill="#211715" d="M37.263,36.672h11.258c0.498,0,0.498-0.697,0-0.697H37.263C36.765,35.975,36.765,36.672,37.263,36.672z"/>
	<path fill="#645D5C" d="M45.931,19.437c-0.299,0.397-2.592,3.587-3.09,4.085c0,0,0,0-0.1,0.1c-0.199-0.299-0.598-0.797-0.797-0.996
		c-0.598-0.797-2.191-2.689-2.291-3.188l-0.1-0.1h-0.1c-1.297,0.498-2.99,1.096-4.086,1.793c0.1,0.598,0.896,5.479,1.195,7.473
		l0.199,2.689l-0.398,2.291c-0.199,0.996-0.398,2.689-0.498,2.889l-0.498,3.09v0.1c1.594,0.199,3.488,0.299,4.982,0.199
		c0.197,0,0.396-0.1,0.598-0.1c0.199-0.101,0.299-0.301,0.396-0.5c0.301-0.598,0.996-1.991,1.396-3.088c0,0.101,0,0.101,0,0.101
		c0.398,0.896,1.195,2.392,1.594,2.987c0.102,0.199,0.299,0.301,0.398,0.5c0.199,0.1,0.398,0.1,0.598,0.1
		c1.494,0.1,3.088,0,4.684-0.199v-0.1l-0.398-3.09c-0.299-2.092-0.598-4.383-0.498-4.881c0.498-3.287,0.896-6.078,1.195-8.369
		l0.299-1.992l0,0c-0.199-0.1-0.299-0.199-0.498-0.299c-1.295-0.697-2.59-1.396-3.984-1.992"/>
	<path fill="#211715" d="M42.841,35.078C42.841,35.178,42.841,35.178,42.841,35.078C42.841,35.178,42.841,35.178,42.841,35.078
		c0,0.1,0,0.199,0,0.199c0,0.1-0.1,0.199-0.1,0.299c-0.1,0.299-0.199,0.498-0.299,0.797c-0.199,0.598-0.498,1.096-0.797,1.693
		c-0.1,0.199-0.199,0.498-0.398,0.697c-0.1,0.199-0.199,0.498-0.498,0.599s-0.797,0.101-1.096,0.101c-0.398,0-0.797,0-1.195,0
		c-0.896,0-1.893-0.101-2.789-0.201c-0.199,0-0.398,0.201-0.398,0.399c0,0.199,0.199,0.398,0.398,0.398
		c0.896,0.1,1.793,0.198,2.689,0.198c0.398,0,0.896,0,1.295,0s0.797,0,1.195-0.1c0.697-0.199,0.996-0.797,1.295-1.396
		c0.299-0.598,0.598-1.194,0.896-1.793c0.297-0.598,0.498-1.194,0.598-1.793c0-0.198-0.199-0.397-0.398-0.397
		S42.841,34.879,42.841,35.078L42.841,35.078z"/>
	<path fill="#211715" d="M42.644,36.473c0.396,0.896,0.895,1.893,1.395,2.789c0.1,0.199,0.299,0.398,0.398,0.599
		c0.199,0.199,0.598,0.397,0.896,0.397c0.697,0.101,1.395,0.101,2.092,0.101c0.896,0,1.693-0.101,2.59-0.199
		c0.199,0,0.398-0.198,0.398-0.397s-0.199-0.398-0.398-0.398c-0.896,0.1-1.793,0.199-2.689,0.199c-0.398,0-0.896,0-1.295,0
		c-0.299,0-0.797,0-0.996-0.199c-0.398-0.398-0.598-0.997-0.896-1.396c-0.299-0.598-0.598-1.194-0.896-1.793
		c-0.1-0.198-0.299-0.198-0.498-0.1C42.544,36.074,42.544,36.273,42.644,36.473L42.644,36.473z"/>
	<path fill="#211715" d="M50.315,21.328c-0.4,2.393-0.699,4.883-0.998,7.273c-0.1,0.996-0.299,1.992-0.398,2.988
		c-0.1,0.498,0,1.096,0.102,1.594c0.1,1.296,0.299,2.591,0.498,3.886l0.396,2.591c0.102,0.199,0.299,0.299,0.4,0.299
		c0.197-0.1,0.299-0.299,0.299-0.397c-0.299-1.993-0.6-3.886-0.799-5.88c-0.1-0.598-0.1-1.194-0.199-1.793
		c0-0.299,0.1-0.696,0.1-0.995c0.102-0.498,0.102-0.996,0.199-1.494c0.299-1.694,0.5-3.487,0.699-5.181c0-0.199,0.1-0.398,0.1-0.598
		v-0.101c0,0.101,0,0,0,0s0,0,0-0.101c0-0.199,0.1-0.397,0.1-0.697l0.199-1.295c0-0.199-0.1-0.398-0.299-0.398
		C50.614,21.03,50.415,21.129,50.315,21.328L50.315,21.328z"/>
	<path fill="#211715" d="M34.673,22.725c0.199-0.398,0.498-0.799,0.797-1.098c0.398-0.299,0.797-0.498,1.195-0.697
		c0.996-0.497,1.992-0.797,2.988-1.194c0.398-0.198,0.199-0.896-0.199-0.696c-1.096,0.397-2.191,0.797-3.188,1.295
		c-0.398,0.198-0.896,0.397-1.295,0.696c-0.398,0.3-0.797,0.798-0.996,1.296C33.876,22.725,34.474,23.123,34.673,22.725
		L34.673,22.725z"/>
	<path fill="#211715" d="M36.466,31.192c-0.398,2.192-0.697,4.483-1.096,6.675l-0.299,1.596c0,0.199,0.1,0.397,0.299,0.397
		c0.199,0.101,0.398-0.101,0.398-0.299c0.396-2.093,0.695-4.085,0.994-6.177c0.102-0.698,0.199-1.396,0.301-2.094
		c0-0.199-0.102-0.397-0.301-0.397C36.765,30.894,36.565,31.092,36.466,31.192z"/>
	<path fill="#211715" d="M35.171,21.229c0.1,0.599,0.199,1.196,0.398,1.794c0.1,0.398,0.1,0.697,0.199,1.096
		c0.1,0.299,0.1,0.498,0.1,0.797c0,0.199,0.199,0.398,0.398,0.398c0.197,0,0.396-0.199,0.396-0.398
		c-0.1-0.697-0.199-1.395-0.299-1.992c-0.1-0.597-0.199-1.195-0.398-1.793C35.769,20.631,35.071,20.83,35.171,21.229L35.171,21.229z
		"/>
	<path fill="#211715" d="M45.632,19.237c-0.299,0.498-0.697,0.996-0.996,1.396c-0.498,0.697-0.996,1.396-1.494,1.992
		c-0.199,0.199-0.301,0.498-0.498,0.697c-0.301,0.299,0.197,0.797,0.498,0.498c0.396-0.498,0.797-0.996,1.195-1.494
		c0.498-0.697,0.996-1.296,1.494-1.992c0.1-0.199,0.299-0.398,0.398-0.599C46.528,19.237,45.831,18.838,45.632,19.237L45.632,19.237
		z"/>
	<path fill="#211715" d="M39.356,19.537c0.1,0.198,0.197,0.497,0.396,0.696c0.199,0.299,0.398,0.599,0.697,0.896
		c0.398,0.599,0.896,1.196,1.395,1.795c0.301,0.299,0.498,0.598,0.697,0.896c0,0.101,0.102,0.101,0.102,0.199c0,0,0,0,0,0.1
		c0.1,0,0-0.1,0-0.1v0.1c0,0.3,0,0.599,0,0.896c0,2.49,0.1,4.982,0.1,7.473c0,0.896,0,1.794,0,2.592c0,0.497,0.697,0.497,0.697,0
		c0-2.094,0-4.086,0-6.178c0-1.195,0-2.393,0-3.688c0-0.397,0-0.696,0-1.096c0-0.1,0-0.1,0-0.199c0-0.299-0.398-0.697-0.6-0.896
		c-0.498-0.697-1.096-1.296-1.594-1.993c-0.299-0.398-0.498-0.697-0.797-1.096c-0.1-0.1-0.199-0.299-0.299-0.398
		c0-0.1-0.1-0.1-0.1-0.199c0,0,0,0,0-0.1c-0.1-0.1,0,0,0,0C39.954,18.938,39.255,19.137,39.356,19.537L39.356,19.537z"/>
	<path fill="#211715" d="M46.13,19.537c0.797,0.299,1.594,0.696,2.391,1.096c0.398,0.199,0.697,0.397,1.096,0.598
		c0.4,0.199,0.799,0.398,1.098,0.6c0.199,0.098,0.398,0,0.498-0.102c0.1-0.199,0-0.398-0.1-0.498
		c-0.398-0.199-0.697-0.398-1.098-0.598c-0.398-0.199-0.797-0.398-1.195-0.599c-0.797-0.397-1.693-0.797-2.49-1.096
		c-0.199-0.101-0.398,0.101-0.398,0.299C45.831,19.237,45.931,19.437,46.13,19.537L46.13,19.537z"/>
	<path fill="#FFFFFF" d="M41.347,21.129c-0.695-0.697-1.193-1.194-1.691-1.992c0.199-0.397,0.498-0.696,0.797-0.996
		c0.598,0.599,1.395,1.195,2.191,1.494c0,0,0.1,0,0.1,0.101v0.101C42.644,19.935,41.647,20.93,41.347,21.129z"/>
	<path fill="#FFFFFF" d="M44.636,21.328c0.598-0.697,1.096-1.395,1.594-2.191c-0.199-0.397-0.498-0.696-0.797-0.996
		c-0.598,0.599-1.395,1.195-2.191,1.494c0,0-0.1,0-0.1,0.101v0.101C43.142,19.935,44.337,21.03,44.636,21.328z"/>
	<path fill="#211715" d="M41.647,20.93c-0.6-0.598-1.195-1.194-1.693-1.893v0.398c0.199-0.398,0.398-0.697,0.697-0.996h-0.498
		c0.396,0.398,0.697,0.697,1.195,0.996c0.197,0.1,0.396,0.299,0.598,0.398c0.1,0.1,0.199,0.1,0.299,0.198c0,0,0.1,0,0.1,0.101h0.1
		c0.1,0,0,0,0,0v-0.199l0.1-0.1l0,0l-0.1,0.1c-0.1,0.1-0.299,0.299-0.398,0.398c-0.299,0.198-0.498,0.498-0.797,0.696
		c-0.299,0.3,0.199,0.797,0.498,0.498c0.398-0.397,0.797-0.696,1.195-1.097c0.199-0.198,0.398-0.497,0.299-0.797
		c-0.1-0.198-0.398-0.299-0.598-0.397s-0.398-0.198-0.598-0.299c-0.398-0.3-0.797-0.599-1.195-0.996c-0.1-0.101-0.398-0.101-0.498,0
		c-0.299,0.299-0.498,0.599-0.697,0.896c-0.1,0.101-0.1,0.199-0.1,0.299c0,0.101,0,0.3,0.1,0.398c0.1,0.199,0.199,0.299,0.299,0.498
		c0.398,0.598,0.896,1.096,1.396,1.494C41.448,21.728,41.946,21.229,41.647,20.93z"/>
	<path fill="#211715" d="M44.935,21.528c0.498-0.498,0.896-1.097,1.295-1.692c0.1-0.199,0.199-0.299,0.299-0.498s0-0.398-0.1-0.599
		c-0.199-0.299-0.398-0.598-0.697-0.896c-0.1-0.1-0.398-0.1-0.498,0c-0.299,0.299-0.697,0.697-1.096,0.896
		c-0.199,0.101-0.398,0.3-0.6,0.397c-0.199,0.1-0.498,0.199-0.598,0.398c-0.199,0.299,0,0.598,0.199,0.797s0.398,0.398,0.598,0.598
		c0.201,0.199,0.5,0.398,0.699,0.599C44.536,21.728,44.735,21.728,44.935,21.528c0.1-0.101,0.1-0.397,0-0.498
		c-0.299-0.299-0.598-0.498-0.896-0.797c-0.1-0.101-0.299-0.299-0.396-0.397l-0.102-0.101l0,0l0.102,0.101v0.198
		c-0.102,0.101-0.102,0.101,0,0h0.1c0.1,0,0.1-0.1,0.199-0.1c0.098,0,0.197-0.101,0.299-0.199c0.199-0.101,0.396-0.198,0.598-0.397
		c0.398-0.299,0.797-0.599,1.195-0.996h-0.498c0.299,0.299,0.498,0.598,0.697,0.996v-0.398c-0.398,0.697-0.896,1.395-1.494,2.092
		c-0.102,0.1-0.102,0.398,0,0.498C44.536,21.728,44.735,21.728,44.935,21.528z"/>
	<path fill="#211715" d="M36.267,27.904c0,0.301,0,0.499,0,0.799c0,0.299,0,0.598,0,0.895c0,0.199,0.199,0.398,0.398,0.398
		s0.398-0.199,0.398-0.398l0,0c0-0.299,0-0.598,0-0.895c0-0.299,0-0.498,0-0.799c0-0.199-0.199-0.398-0.398-0.398
		S36.267,27.705,36.267,27.904z"/>
	<path fill="#FFFFFF" d="M35.669,23.621c-0.396,0.299-1.096,0.797-1.395,0.995c0.996,1.396,2.391,3.287,3.586,5.081l-0.498-1.494
		C36.765,26.51,36.167,25.016,35.669,23.621z"/>
	<path fill="#211715" d="M38.159,29.498c-1.195-1.693-2.391-3.388-3.586-5.08l-0.1,0.498c0.498-0.3,0.996-0.697,1.494-0.996
		c0.398-0.299,0-0.896-0.398-0.599c-0.498,0.3-0.996,0.697-1.494,0.996c-0.199,0.101-0.199,0.299-0.1,0.498
		c1.195,1.692,2.391,3.388,3.586,5.081C37.761,30.196,38.458,29.897,38.159,29.498z"/>
	<path fill="#79C6E0" d="M40.651,37.369c-1.494-4.185-3.787-10.461-5.281-14.744c2.988-1.097,8.668-3.088,10.66-3.785l0,0
		c1.893,5.379,3.586,10.162,5.182,14.744C49.118,34.381,42.743,36.672,40.651,37.369L40.651,37.369z"/>
	<path fill="#211715" d="M40.95,37.27c-1.396-3.887-2.791-7.771-4.186-11.656c-0.398-0.996-0.697-2.092-1.096-3.088l-0.299,0.398
		c2.988-1.098,5.877-2.094,8.867-3.188c0.598-0.198,1.195-0.397,1.793-0.599h-0.299l0,0l-0.199-0.198
		c1.395,3.885,2.789,7.771,4.084,11.655c0.396,0.996,0.697,1.992,1.096,2.988l0.299-0.397c-2.889,0.997-5.777,2.093-8.668,3.089
		c-0.598,0.199-1.295,0.498-1.893,0.697h0.299l0,0c-0.396-0.199-0.797,0.397-0.396,0.598c0.299,0.1,0.598-0.1,0.895-0.199
		l0.896-0.299c0.797-0.299,1.494-0.498,2.293-0.797c1.594-0.598,3.188-1.195,4.779-1.693c0.697-0.199,1.295-0.498,1.994-0.697
		c0.199-0.1,0.299-0.299,0.299-0.398c-1.396-3.984-2.791-7.971-4.186-11.955c-0.199-0.498-0.398-0.996-0.598-1.594
		c-0.1-0.299-0.199-0.498-0.299-0.797c-0.1-0.199-0.1-0.598-0.398-0.697c-0.199-0.1-0.598,0.1-0.797,0.199l-0.797,0.299
		l-4.385,1.594c-1.594,0.598-3.287,1.195-4.881,1.694c-0.199,0.101-0.299,0.299-0.299,0.397c1.395,3.885,2.789,7.871,4.184,11.756
		c0.398,0.996,0.697,1.992,1.098,2.988C40.452,37.867,41.149,37.668,40.95,37.27z"/>
	<path fill="#FFFFFF" d="M48.819,32.586L48.819,32.586c-1.096-3.188-2.889-8.068-4.084-11.356"/>
	<path fill="#211715" d="M49.019,32.287L49.019,32.287l0.199,0.199c-1.096-2.988-2.092-5.979-3.188-8.966
		c-0.299-0.798-0.598-1.595-0.797-2.392c-0.199-0.398-0.896-0.199-0.697,0.199c1.096,3.088,2.191,6.176,3.287,9.266
		c0.1,0.397,0.299,0.797,0.396,1.195c0.102,0.198,0.102,0.397,0.199,0.598c0.1,0.199,0.102,0.498,0.299,0.598
		C49.118,33.084,49.417,32.487,49.019,32.287L49.019,32.287z"/>
	<path fill="#FFFFFF" d="M49.915,29.797c-0.895,0.199-5.977,0.896-6.973,1.097c0,0.497,0.498,3.587,0.498,3.886
		c0.598,0,4.383-0.498,6.275-0.896c0.797-0.199,2.393-0.599,3.088-1.195c0.697-0.598,0.697-1.893,0.398-3.287"/>
	<path fill="#FFFFFF" d="M43.042,31.69l-0.1-0.498c-0.199-0.101-0.398,0-0.6-0.199c-0.197-0.1-0.299-0.299-0.396-0.497
		c-0.199-0.3-0.6-0.599-0.996-0.798c-0.398-0.101-0.797-0.101-1.096-0.101c-0.301,0-0.996,0-0.996,0.398c0,0.1,0,0.199,0,0.299
		C40.353,30.894,41.845,31.291,43.042,31.69z"/>
	<path fill="#211715" d="M43.042,30.793c-0.199,0-0.299-0.1-0.498-0.1c-0.1-0.1-0.199-0.199-0.299-0.299
		c-0.199-0.299-0.498-0.498-0.697-0.697c-0.498-0.299-1.295-0.398-1.893-0.398s-1.197,0.199-1.197,0.797
		c-0.1,0.599,0.5,0.896,0.998,1.097c0.398,0.198,0.598-0.498,0.199-0.696c-0.102,0-0.299-0.101-0.398-0.199l-0.1-0.101v-0.101
		c0-0.1,0,0,0,0c0.1-0.1,0.199-0.1,0.396-0.1c0.199,0,0.398,0,0.6,0c0.299,0,0.498,0,0.797,0.1c0.199,0.101,0.396,0.199,0.598,0.398
		c0.199,0.199,0.299,0.398,0.498,0.598c0.299,0.199,0.498,0.199,0.797,0.299C43.339,31.59,43.54,30.894,43.042,30.793L43.042,30.793
		z"/>
	<path fill="#211715" d="M49.915,29.399c-0.797,0.198-1.693,0.299-2.49,0.397c-1.096,0.199-2.189,0.299-3.287,0.498
		c-0.396,0.101-0.797,0.101-1.195,0.199c-0.199,0-0.299,0.199-0.299,0.299c0.1,0.697,0.199,1.396,0.299,2.092
		c0.1,0.599,0.1,1.297,0.299,1.895c0,0.199,0.199,0.299,0.299,0.299c1.297-0.1,2.492-0.299,3.688-0.398
		c1.494-0.198,3.09-0.397,4.482-0.996c0.797-0.299,1.494-0.598,1.895-1.395c0.396-0.896,0.197-1.894,0.1-2.89
		c-0.199-1.396-0.598-2.79-0.896-4.185c-0.1-0.697-0.299-1.295-0.498-1.992c-0.199-0.797-0.598-1.694-1.395-2.094
		c-0.398-0.199-0.799,0.398-0.398,0.599c0.299,0.198,0.598,0.397,0.697,0.798c0.199,0.298,0.299,0.598,0.299,0.896
		c0.1,0.498,0.299,1.096,0.398,1.594c0.299,1.395,0.598,2.689,0.896,4.085c0.1,0.797,0.299,1.594,0.197,2.391
		c0,0.3-0.197,0.599-0.396,0.896c-0.299,0.199-0.6,0.398-0.896,0.498c-1.396,0.498-2.791,0.797-4.285,0.998
		c-1.295,0.199-2.688,0.397-3.984,0.498l0.299,0.299c-0.1-0.598-0.199-1.196-0.299-1.795c-0.1-0.696-0.199-1.295-0.299-1.991
		l-0.299,0.299c1.895-0.299,3.887-0.599,5.777-0.896c0.398-0.101,0.797-0.101,1.096-0.199
		C50.513,29.996,50.315,29.299,49.915,29.399L49.915,29.399z"/>
	<path fill="#FFFFFF" d="M47.425,33.783c-0.199-0.102-0.598-0.499-0.996-0.798c0.1,0,0.1-0.101,0.199-0.101
		c0.299-0.1,0.797,0.101,0.996-0.498c0.1-0.397-0.498-0.696-0.797-0.797c-0.299-0.1-0.697-0.299-1.096-0.299
		c-0.4,0-0.797,0.101-1.195,0.299c-0.199,0.101-0.398,0.199-0.598,0.299c-0.301,0-0.6,0-0.898,0
		c-0.199,0.798-0.498,1.794-0.697,2.791c0.102,0.199,0.199,0.498,0.301,0.697c0.197,0.498,0.498,0.696,0.895,0.996
		c0.199,0.198,0.5,0.299,0.699,0.498c0.299,0.1,0.697-0.3,0.797-0.398c0,0,0.398,0.1,0.598,0c0.1-0.1,0.199-0.398,0.299-0.498
		c0.199-0.1,0.299-0.1,0.598-0.199c0.199-0.1,0.398-0.498,0.299-0.697C47.823,35.576,48.022,34.281,47.425,33.783z"/>
	<path fill="#211715" d="M42.942,32.287c0.498,0.1,0.896,0,1.395-0.1c0.299-0.1,0.498-0.299,0.797-0.398
		c0.301-0.099,0.6-0.1,0.896,0c0.299,0.1,0.498,0.199,0.797,0.299c0.1,0.101,0.398,0.199,0.498,0.299
		c0.1,0.3-0.398,0.199-0.598,0.199c-0.498,0-0.498,0.697,0,0.697c0.199,0,0.498,0,0.697-0.1c0.299-0.1,0.498-0.398,0.598-0.697
		c0.1-0.598-0.498-0.996-0.996-1.195c-0.299-0.1-0.697-0.299-1.096-0.299c-0.398-0.1-0.797,0-1.195,0.199
		c-0.299,0.1-0.697,0.398-0.896,0.398c-0.299,0-0.498,0-0.797,0c-0.199,0-0.398,0.199-0.398,0.397
		C42.644,32.088,42.743,32.287,42.942,32.287L42.942,32.287z"/>
	<path fill="#211715" d="M45.632,32.787c0.498,0.397,1.096,0.797,1.594,1.195c0.199,0.199,0.299,0.398,0.199,0.697
		c0,0.1,0,0.1-0.1,0.199l0,0c-0.1,0-0.1,0-0.199,0c-0.299-0.101-0.697,0.1-0.498,0.397c0,0,0,0.101-0.1,0.199l0,0c0.1,0,0.1,0,0,0
		c-0.102,0-0.199,0-0.299,0c-0.199,0-0.301,0.1-0.398,0.198c-0.1,0.1-0.199,0.3-0.299,0.398c-0.102,0.1,0,0,0,0
		c-0.102,0-0.102,0-0.199,0c-0.1,0-0.299,0-0.398,0c-0.199,0.1-0.398,0.398-0.598,0.398c-0.1,0-0.299-0.1-0.398-0.199
		s-0.199-0.1-0.299-0.199c-0.301-0.199-0.5-0.398-0.6-0.697c-0.199-0.299-0.299-0.697-0.398-0.996
		c-0.197-0.299-0.496-0.598-0.895-0.797c-0.398-0.3-0.797,0.398-0.398,0.598c0.299,0.199,0.498,0.398,0.598,0.697
		s0.199,0.599,0.398,0.896c0.299,0.498,0.797,0.896,1.295,1.195c0.199,0.199,0.498,0.299,0.799,0.299c0.1,0,0.299-0.1,0.396-0.199
		c0.1-0.1,0.199-0.1,0.299-0.199c0,0,0.102,0-0.1,0c-0.199,0-0.1,0,0,0s0.1,0,0.199,0c0.199,0,0.299,0,0.498-0.1
		c0.1-0.1,0.199-0.199,0.299-0.299c0-0.1,0.1-0.199,0.199-0.299c0.1-0.101,0.299-0.101,0.398-0.101s0.299-0.101,0.398-0.198
		c0.197-0.199,0.299-0.599,0.197-0.896l-0.496,0.398c0.396,0.198,0.895,0.198,1.193-0.3c0.199-0.397,0.199-0.896,0-1.295
		s-0.498-0.599-0.797-0.798c-0.396-0.299-0.797-0.598-1.195-0.896c-0.197-0.1-0.396,0-0.498,0.101
		C45.433,32.487,45.433,32.687,45.632,32.787L45.632,32.787z"/>
	<path fill="#FFFFFF" d="M36.067,29.399c2.191,0.797,5.182,1.692,7.074,2.291c-0.199,1.097-0.697,2.69-0.996,3.985
		c-2.191-0.498-3.986-0.797-6.178-1.594c-0.996-0.3-2.988-0.998-3.686-1.895"/>
	<path fill="#211715" d="M35.968,29.797c2.291,0.797,4.684,1.494,7.072,2.291l-0.299-0.397c-0.299,1.295-0.697,2.591-0.996,3.985
		l0.398-0.299c-1.793-0.3-3.486-0.798-5.182-1.295c-1.295-0.398-2.688-0.799-3.885-1.596c-0.498-0.299-0.896-0.896-1.096-1.494
		c-0.199-0.797-0.102-1.594,0.199-2.391c0.496-1.196,0.896-2.393,1.395-3.688c0.1-0.299,0.199-0.598,0.398-0.996
		c0.1-0.1,0.1-0.299,0.199-0.397c0.1-0.199,0.1-0.199,0.1-0.3c0.1-0.299,0.299-0.598,0.498-0.896s0.398-0.498,0.697-0.698
		c0.398-0.299-0.199-0.797-0.498-0.498c-0.498,0.398-0.896,0.897-1.195,1.496c-0.199,0.497-0.398,0.995-0.697,1.594
		c-0.498,1.295-0.996,2.59-1.494,3.886c-0.299,0.797-0.498,1.493-0.398,2.391c0.1,0.798,0.398,1.595,0.998,2.19
		c0.496,0.498,1.193,0.798,1.793,1.098c0.598,0.299,1.193,0.498,1.893,0.697c1.992,0.697,4.084,1.195,6.176,1.594
		c0.199,0,0.398-0.1,0.398-0.299c0.299-1.295,0.697-2.592,0.996-3.985c0-0.198-0.1-0.397-0.299-0.397
		c-2.391-0.797-4.684-1.494-7.072-2.291C35.669,28.901,35.569,29.598,35.968,29.797L35.968,29.797z"/>
	<path fill="#957F6E" d="M48.819,7.68c0-0.1,0-0.198-0.1-0.299c-0.498-2.59-3.188-4.683-5.879-4.482
		c-2.789-0.199-5.379,1.895-5.877,4.482c-0.1,0.797-0.1,1.693,0,2.49l0.299,0.996c0.199,0,0.398,0.102,0.498,0.199
		c1.098-0.796,2.891-2.092,3.887-2.889c-0.102,0.498-0.398,1.295,0,1.195c1.494-0.3,2.889-0.996,3.686-2.093
		c0.199,0.599,0.398,1.295,0.697,1.894c0.299,0.498,1.195,1.692,1.992,1.893c0.199-0.1,0.398-0.199,0.598-0.199h0.1
		C49.118,10.071,49.019,8.577,48.819,7.68z"/>
	<path fill="#211715" d="M37.263,9.772c-0.1-0.599-0.1-1.295-0.1-1.992c0.1-0.696,0.299-1.295,0.598-1.894
		c0.697-1.194,1.793-2.092,3.188-2.49c0.697-0.199,1.395-0.299,2.092-0.199c0.699,0,1.396,0.1,1.994,0.398
		c1.295,0.498,2.291,1.494,2.889,2.789c0.299,0.697,0.498,1.396,0.498,2.093c0.1,0.797,0.1,1.594-0.199,2.391
		c-0.1,0.199,0.1,0.398,0.299,0.398s0.398-0.101,0.398-0.3c0.299-0.696,0.299-1.594,0.199-2.291c0-0.696-0.199-1.395-0.398-2.092
		c-0.598-1.494-1.594-2.689-2.988-3.388C45.034,2.799,44.237,2.598,43.54,2.5c-0.398,0-0.797,0-1.195,0s-0.797,0.1-1.195,0.1
		c-1.494,0.398-2.891,1.295-3.785,2.49c-0.498,0.697-0.797,1.494-0.996,2.291c-0.1,0.797-0.1,1.693,0,2.49
		C36.665,10.469,37.362,10.271,37.263,9.772L37.263,9.772z"/>
	<path fill="#211715" d="M45.034,7.481c0.199,0.797,0.498,1.594,0.996,2.291c0.498,0.599,1.096,1.396,1.893,1.595
		c0.498,0.1,0.6-0.599,0.199-0.697c-0.299-0.101-0.598-0.299-0.797-0.498c-0.299-0.299-0.498-0.498-0.697-0.797
		c-0.396-0.599-0.695-1.396-0.895-2.093C45.632,6.883,44.935,7.082,45.034,7.481L45.034,7.481z"/>
	<path fill="#211715" d="M45.134,7.082c-0.598,0.697-1.395,1.295-2.293,1.594c-0.197,0.101-0.498,0.199-0.695,0.199
		c-0.102,0-0.301,0.101-0.398,0.101c-0.1,0-0.1,0-0.199,0s-0.1,0,0.1,0.1c0.1,0,0.1,0,0.1,0.101l0,0V9.075c0-0.1,0-0.1,0-0.198
		c0-0.199,0.102-0.398,0.102-0.599s-0.102-0.397-0.301-0.397c-0.1,0-0.197,0-0.299,0.1c-1.195,0.996-2.49,1.992-3.785,2.789
		c-0.398,0.299,0,0.896,0.398,0.599c1.395-0.897,2.689-1.894,3.984-2.989l-0.598-0.397c-0.1,0.397-0.299,0.896-0.199,1.396
		c0.1,0.198,0.299,0.397,0.598,0.299c0.299-0.1,0.598-0.101,0.896-0.299c1.096-0.398,2.291-0.996,2.988-1.992
		c0.1-0.101,0.1-0.398,0-0.498C45.532,6.883,45.333,6.883,45.134,7.082L45.134,7.082z"/>
	<path fill="#211715" d="M36.665,13.559c-0.299,0.498-0.396,1.195-0.396,1.793c0,0.299,0.1,0.697,0.1,0.996
		c0,0.199,0,0.398-0.1,0.599c-0.102,0.101-0.199,0.101-0.301,0.199c-0.1,0.099-0.1,0.299-0.1,0.397
		c0.1,0.299,0.398,0.498,0.697,0.599c0.598,0.299,1.195,0.299,1.893,0.198c0.699-0.1,1.197-0.397,1.695-0.996
		c0.299-0.397-0.398-0.696-0.6-0.397c-0.299,0.397-0.895,0.599-1.395,0.599c-0.299,0-0.598,0-0.896-0.101
		c-0.1,0-0.199-0.101-0.299-0.101s-0.1-0.1-0.199-0.1c0,0-0.1,0-0.1-0.1s0,0,0,0v0.199l0,0l-0.199,0.199
		c0.697-0.3,0.797-0.996,0.697-1.695c-0.1-0.696-0.199-1.493,0.199-2.092C37.562,13.559,36.964,13.16,36.665,13.559L36.665,13.559z"
		/>
	<path fill="#211715" d="M48.321,11.367c0.199-0.102,0.398-0.102,0.598,0.1l0,0c0.102,0.101,0.102,0.3,0.102,0.398
		c0,0.199,0,0.398,0,0.498c-0.102,0.598-0.398,1.395-1.098,1.494c-0.197,0.1-0.299,0.299-0.299,0.398
		c0.102,0.199,0.299,0.299,0.398,0.299c1.096-0.199,1.594-1.396,1.693-2.391c0-0.498,0-1.098-0.398-1.396s-0.996-0.299-1.395,0.1
		c-0.1,0.1-0.1,0.398,0,0.499C47.923,11.467,48.122,11.467,48.321,11.367L48.321,11.367z"/>
	<path fill="#211715" d="M47.524,13.658c0,0.299-0.1,0.498-0.199,0.797c0,0-0.1,0.199,0,0.1c0,0.101,0,0.101-0.1,0.199
		c-0.199,0.299-0.398,0.599-0.598,0.896c-0.498,0.697-1.195,1.396-1.992,1.596c-0.498,0.1-0.299,0.797,0.199,0.696
		c0.996-0.199,1.793-1.097,2.391-1.894c0.498-0.697,0.896-1.494,0.996-2.392C48.222,13.16,47.524,13.16,47.524,13.658z"/>
	<path fill="#211715" d="M38.06,10.868c-0.398-0.397-0.996-0.397-1.395-0.1s-0.498,0.897-0.398,1.396
		c0.1,0.996,0.598,2.191,1.693,2.391c0.199,0,0.398-0.1,0.398-0.299c0.1-0.199-0.102-0.397-0.299-0.397
		c-0.697-0.101-0.996-0.896-1.098-1.494c0-0.198,0-0.299,0-0.498c0-0.101,0-0.299,0.102-0.397c0.1-0.2,0.396-0.2,0.498-0.101l0,0
		c0.1,0.101,0.396,0.101,0.498,0C38.159,11.168,38.159,10.967,38.06,10.868L38.06,10.868z"/>
	<path fill="#211715" d="M37.661,13.559c0.199,1.096,0.598,1.992,1.297,2.89c0.697,0.896,1.693,1.494,2.789,1.595
		c0.199,0,0.398-0.199,0.398-0.398s-0.199-0.398-0.398-0.398c-0.896-0.1-1.693-0.697-2.291-1.396
		c-0.598-0.697-0.896-1.595-0.998-2.49c-0.1-0.198-0.299-0.299-0.396-0.299C37.661,13.26,37.562,13.359,37.661,13.559L37.661,13.559
		z"/>
	<path fill="#211715" d="M41.946,15.252c0.299,0.198,0.697,0.299,0.996,0.198c0.396,0,0.797-0.1,1.096-0.299
		c0.1-0.101,0.1-0.397,0-0.498s-0.396-0.101-0.498,0c0.102-0.101,0,0,0,0s-0.1,0,0,0h-0.1c-0.102,0-0.199,0-0.199,0.101
		c0,0,0.1,0,0,0c0,0,0,0-0.1,0c-0.102,0-0.102,0-0.199,0c-0.1,0-0.102,0-0.199,0c0,0,0,0-0.1,0l0,0l0,0c-0.102,0-0.102,0-0.199,0
		h-0.102c-0.1,0,0.102,0,0,0c0,0-0.1,0-0.1-0.101c-0.199-0.101-0.398,0-0.498,0.101C41.646,14.854,41.747,15.152,41.946,15.252
		L41.946,15.252z"/>
	<path fill="#211715" d="M42.743,12.861c0,0.199,0.1,0.299,0.1,0.498v-0.1c0,0,0,0,0,0.1v-0.1l0,0v-0.101l0,0l0.1-0.1l0,0l0.1-0.101
		l0,0h0.102c0,0,0,0-0.102,0h0.102c0,0,0,0-0.102,0h0.102c0,0,0,0-0.102,0h-0.1h-0.1c-0.199,0.101-0.199,0.299-0.1,0.498l0,0
		l0.1,0.1c0,0,0.1,0.101,0.199,0.101s0.1,0,0.199,0c0.098,0,0.199,0,0.299-0.101c0.102-0.1,0.199-0.198,0.199-0.299
		c0-0.1,0-0.199,0-0.299c0-0.199-0.1-0.299-0.1-0.498c-0.102-0.199-0.301-0.299-0.398-0.299l0,0c-0.1,0-0.199,0.1-0.199,0.199
		C42.743,12.762,42.743,12.861,42.743,12.861L42.743,12.861z"/>
	<path fill="#211715" d="M40.253,11.467c-0.1,0.299,0,0.896,0.498,0.996c0.697,0,0.697-0.797,0.498-1.097
		C41.048,10.967,40.452,10.868,40.253,11.467z"/>
	<path fill="#211715" d="M45.632,11.467c0.1,0.299,0,0.896-0.498,0.996c-0.697,0-0.697-0.797-0.498-1.097
		C44.835,10.967,45.433,10.868,45.632,11.467z"/>
</g>
</svg>
