<?xml version="1.0" encoding="utf-8"?>
<!-- Generator: Adobe Illustrator 16.0.0, SVG Export Plug-In . SVG Version: 6.00 Build 0)  -->
<!DOCTYPE svg PUBLIC "-//W3C//DTD SVG 1.1//EN" "http://www.w3.org/Graphics/SVG/1.1/DTD/svg11.dtd">
<svg version="1.1" id="Layer_1" xmlns="http://www.w3.org/2000/svg" xmlns:xlink="http://www.w3.org/1999/xlink" x="0px" y="0px"
	 width="85px" height="85px" viewBox="0 0 85 85" enable-background="new 0 0 85 85" xml:space="preserve">
<g>
	<path fill="#F8B21E" d="M76.246,70.004c0,5.527-4.479,10.006-10.006,10.006H18.748c-5.528,0-10.006-4.479-10.006-10.006V37.496
		c0-5.525,4.478-10.006,10.006-10.006h47.508c5.527,0,10.006,4.48,10.006,10.006v32.508H76.246z"/>
	<path fill="#F07067" d="M48.748,57.227c0,3.646-2.803,6.607-6.249,6.607c-3.459,0-6.247-2.961-6.247-6.607v-1.771
		c0-3.646,2.804-6.623,6.247-6.623c3.446,0,6.249,2.961,6.249,6.623V57.227z"/>
	<path fill="#211F1E" d="M66.256,25h-0.783C65.098,12.537,55.168,2.5,43.002,2.5C30.835,2.5,20.908,12.537,20.531,25h-1.785
		C11.857,25,6.25,30.607,6.25,37.496v32.508c0,6.891,5.604,12.496,12.495,12.496h47.508c6.891,0,12.496-5.605,12.496-12.496V37.496
		C78.75,30.607,73.146,25,66.256,25L66.256,25z M42.988,7.494c9.411,0,17.098,7.783,17.459,17.506h-34.92
		C25.904,15.277,33.576,7.494,42.988,7.494z M66.256,29.996c1.283,0,2.506,0.328,3.57,0.908
		c-1.223,4.979-5.889,19.666-18.916,23.191c-1.049-3.807-4.416-6.594-8.411-6.594c-3.961,0-7.327,2.771-8.393,6.545
		c-12.996-3.584-17.615-18.289-18.822-23.205c1.035-0.533,2.209-0.848,3.462-0.848h47.509V29.996z M46.244,56.615v1.771
		c0,2.27-1.676,4.117-3.758,4.117c-2.082,0-3.758-1.848-3.758-4.117v-1.771c0-2.27,1.676-4.117,3.758-4.117
		C44.57,52.498,46.244,54.346,46.244,56.615z M73.756,70.004c0,4.135-3.365,7.502-7.5,7.502H18.748c-4.135,0-7.5-3.367-7.5-7.502
		V37.496c0-0.672,0.094-1.33,0.266-1.941c2.521,7.469,8.77,20.404,22.282,23.566c0.36,4.684,4.134,8.395,8.722,8.395
		c4.573,0,8.346-3.68,8.723-8.361c13.465-3.086,19.744-15.863,22.328-23.395c0.125,0.562,0.219,1.143,0.219,1.736v32.508H73.756
		L73.756,70.004z"/>
</g>
</svg>
