<?xml version="1.0" encoding="utf-8"?>
<!-- Generator: Adobe Illustrator 16.0.2, SVG Export Plug-In . SVG Version: 6.00 Build 0)  -->
<!DOCTYPE svg PUBLIC "-//W3C//DTD SVG 1.1 Tiny//EN" "http://www.w3.org/Graphics/SVG/1.1/DTD/svg11-tiny.dtd">
<svg version="1.1" baseProfile="tiny" id="Layer_1" xmlns="http://www.w3.org/2000/svg" xmlns:xlink="http://www.w3.org/1999/xlink"
	 x="0px" y="0px" width="85px" height="85px" viewBox="0 0 85 85" xml:space="preserve">
<g>
	<path fill="#62DAFA" d="M49.816,55.315c-0.703,0.714-0.754,1.062-0.269,1.917c0.358,0.633,0.705,1.272,1.096,1.885
		c0.203,0.321,0.159,0.486-0.161,0.674c-1.053,0.615-2.091,1.254-3.134,1.884c-0.451-0.151-0.561-0.596-0.763-0.94
		c-1.671-2.842-3.3-5.707-4.975-8.55c-0.214-0.362-0.548-0.714-0.392-1.207c0.63-0.065,1.214-0.247,1.71-0.659
		c0.527-0.435,1.154-0.122,1.72-0.236c0.78-0.158,1.028,0.382,1.304,0.919c0.165,0.32,0.357,0.629,0.543,0.94
		c0.507,0.85,0.842,0.986,1.784,0.728C48.792,53.553,49.305,54.433,49.816,55.315z"/>
	<path fill="#F9C500" d="M24.898,20.409c-0.68-0.382-1.216-0.18-1.727,0.357c-1.026,1.08-2.278,1.779-3.746,2.074
		c-0.292-0.303-0.309-0.314,0.053-0.808c1.206-1.643,1.939-3.499,2.486-5.438c0.332-1.181,0.707-2.341,1.304-3.42
		c0.796-1.443,1.856-2.633,3.296-3.462c0.61-0.351,0.678-0.309,0.703,0.377c0.012,0.334-0.074,0.676,0.06,1.001
		c0.116,0.288-0.086,0.494-0.198,0.716c-0.661,1.312-1.116,2.706-1.625,4.08c-0.261,0.705-0.033,1.258,0.614,1.64
		C25.762,18.51,25.406,19.491,24.898,20.409z"/>
	<path d="M76.894,80.926c-0.28-0.72-0.877-0.776-1.536-0.774c-4.422,0.01-8.845,0.006-13.266-0.002
		c-0.208,0-0.453,0.111-0.662-0.118c0.734-0.428,1.447-0.841,2.161-1.258c0.718-0.415,1.442-0.824,2.153-1.252
		c0.817-0.493,0.964-1.005,0.525-1.821c-0.308-0.571-0.623-1.14-0.971-1.685c-1.045-1.647-2.905-2.433-4.787-1.933
		c-0.542,0.143-0.72-0.019-0.952-0.424c-1.972-3.447-3.959-6.882-5.948-10.316c-0.224-0.389-0.396-0.728-0.202-1.221
		c0.176-0.441,0-0.908-0.253-1.332c-0.546-0.912-1.081-1.833-1.591-2.765c-0.399-0.729-0.96-0.98-1.749-0.71
		c-0.722,0.322-0.932,0.805-0.641,1.551c0.254,0.655,0.669,1.229,0.999,1.844c0.42,0.778,0.424,0.765-0.353,1.254
		c-0.856,0.538-1.727,1.052-2.583,1.59c-0.258,0.178-0.524,0.336-0.793,0.496c-0.903,0.538-0.914,0.546-1.457-0.388
		c-1.941-3.352-3.894-6.696-5.831-10.053c-0.219-0.378-0.535-0.732-0.609-1.292c1.015,0.213,1.777,0.993,2.801,0.821
		c0.562-0.022,1.048-0.249,1.531-0.521c1.16-0.658,2.449-0.298,3.088,0.838c0.257,0.454,0.499,0.932,0.945,1.225
		c0.438,0.291,0.914,0.563,1.365-0.008c0.676-0.727,0.736-1.08,0.218-1.93c-0.58-0.95-0.98-1.859-0.874-3.08
		c0.177-2.015,0.107-4.059,0.025-6.087c-0.049-1.18,0.234-2.013,1.158-2.863c2.431-2.237,4.705-4.643,7.048-6.977
		c0.178-0.176,0.307-0.47,0.606-0.435c1.437,0.172,2.314-0.714,3.187-1.637c1.235-1.305,1.245-2.942-0.01-4.24
		c-0.761-0.786-1.562-1.531-2.313-2.327c-0.945-1.002-2.088-1.511-3.363-0.91c-1.388,0.654-2.677,1.658-2.68,3.34
		c-0.003,1.054-0.383,1.681-1.086,2.289c-0.334,0.288-0.651,0.603-0.935,0.94c-0.259,0.308-0.418,0.262-0.659-0.022
		c-0.641-0.753-1.313-1.477-1.971-2.218c-1.409-1.592-2.719-3.296-4.723-4.226c-0.019-0.009-0.002-0.092-0.002-0.22
		c0.437,0,0.869,0.001,1.3,0c2.858-0.01,4.547-1.242,5.323-3.965c0.202-0.706,0.311-1.363,1.137-1.658
		c0.408-0.145,0.63-0.604,0.787-1.028c0.31-0.832,0.105-1.574-0.386-2.278c-0.386-0.55-1.045-1.032-1.092-1.671
		c-0.081-1.143-0.263-2.328,0.321-3.441c0.377-0.718,0.58-1.495,0.46-2.333c-0.247-1.718-1.345-2.651-2.882-3.195
		c-3.333,0-6.668,0-10.001,0c-1.238,0.359-2.554,0.658-3.438,1.634c-0.8,0.884-1.699,1.044-2.771,0.96
		c-0.916-0.071-1.777,0.122-2.435,0.809c-0.312,0.326-0.655,0.443-1.083,0.518c-2.211,0.384-4.132,1.339-5.707,2.965
		c-1.589,1.64-2.397,3.667-2.998,5.818c-0.766,2.744-1.926,5.261-4.219,7.116c-0.659,0.533-0.799,1.367-0.503,2.129
		c0.319,0.822,0.939,1.229,1.802,1.234c1.015,0.006,2.029-0.047,3.033-0.221c2.406-0.413,4.611-1.247,6.321-3.085
		c0.663-0.712,0.664-1.197,0.021-1.969c-0.138-0.354-0.44-0.416-0.759-0.394c-0.47,0.033-0.781,0.355-1.104,0.656
		c-1.054,0.982-2.251,1.71-3.679,2.011c-0.684,0.19-1.374,0.339-2.168,0.361c1.582-1.744,2.542-3.725,3.296-5.817
		c0.449-1.248,0.714-2.559,1.259-3.773c0.932-2.082,2.483-3.499,4.64-4.238c0.637-0.219,0.744-0.136,0.759,0.514
		c0.012,0.468,0.026,0.937-0.026,1.403c-0.031,0.286-0.136,0.551-0.269,0.805c-0.564,1.083-0.934,2.245-1.363,3.382
		c-0.157,0.416-0.263,0.848-0.198,1.293c0.072,0.479,0.214,0.922,0.833,0.917c1.008,0.088,1.31-0.094,1.656-1.012
		c0.331-0.873,0.724-1.73,0.966-2.628c0.332-1.225,1.162-0.418,1.74-0.459c0.616-0.041,0.298,0.549,0.299,0.829
		c0.01,2.168,0.778,4.022,2.707,5.021c1.116,0.577,1.309,1.259,1.194,2.289c-0.012,0.103-0.013,0.21,0,0.313
		c0.054,0.396-0.079,0.649-0.433,0.893c-1.543,1.063-2.658,2.57-2.55,4.411c0.117,2.012-0.894,3.165-2.195,4.311
		c-0.215,0.188-0.409,0.401-0.608,0.606c-1.693,1.736-1.687,4.108,0.02,5.849c0.729,0.744,1.453,1.494,2.217,2.201
		c0.362,0.334,0.472,0.686,0.467,1.162c-0.022,2.134-0.014,4.271-0.006,6.403c0.001,0.31-0.015,0.655,0.112,0.918
		c0.219,0.453,0.044,0.778-0.168,1.145c-1.645,2.831-3.279,5.663-4.921,8.495c-0.268,0.462-0.528,0.959-0.32,1.472
		c0.19,0.468,0.024,0.781-0.188,1.148c-2.522,4.361-5.037,8.729-7.556,13.093c-1.141,1.979-0.78,3.347,1.178,4.48
		c0.899,0.521,1.795,1.047,2.892,1.687c-4.494,0-8.735,0.006-12.976-0.004c-0.662,0-1.262,0.056-1.542,0.776
		C7.826,81.651,8.284,82.077,8.75,82.5c22.5,0,45,0,67.501,0C76.714,82.076,77.175,81.653,76.894,80.926z M29.104,80.101
		c0.684-1.575,0.81-3.23-0.351-4.547c-0.838-0.952-0.635-1.563-0.047-2.418c0.543-0.787,0.952-1.668,1.458-2.483
		c0.434-0.699,0.41-1.311-0.195-1.883c-0.125-0.209-0.071-0.417,0.049-0.585c0.483-0.69,0.672-1.575,1.398-2.105
		c1.168,0.451,1.651-0.343,2.06-1.194c1.486,0.734,2.133,0.542,2.927-0.829c1.157-2.001,2.313-4.001,3.513-6.079
		c1.221,2.101,2.403,4.135,3.586,6.168c0.736,1.266,0.948,1.383,2.428,1.165c0.44-0.064,0.449,0.287,0.572,0.497
		c2.412,4.156,4.813,8.317,7.214,12.479c0.336,0.58,0.665,1.162,1.038,1.817C46.165,80.101,37.649,80.101,29.104,80.101z"/>
	<path fill="#FD7701" d="M38.281,24.068c1.869-0.157,3.427,0.513,4.68,1.861c1.364,1.469,2.689,2.97,4,4.485
		c1.528,1.769,1.162,3.906-0.861,5.053c-0.569,0.323-0.783,0.772-0.779,1.404c0.011,1.874-0.003,3.747-0.008,5.621
		c0,0.022-0.012,0.047-0.039,0.147c-0.625-0.477-1.252-1.119-2.022-1.002c-1.089,0.165-1.591-0.521-2.199-1.129
		c-1.381-1.378-2.749-2.771-4.149-4.131c-0.359-0.348-0.396-0.551-0.013-0.918c1.257-1.208,2.466-2.464,3.71-3.686
		c1.186-1.164,1.736-2.521,1.282-4.168c-0.461-1.676-1.631-2.599-3.295-2.946c-0.184-0.156-0.541,0.106-0.626-0.228
		C37.913,24.236,38.148,24.17,38.281,24.068z"/>
	<path fill="#FDD1A3" d="M48.286,14.532c-1.239,0.239-1.673,0.903-1.775,1.901c-0.055,0.534-0.227,1.069-0.424,1.572
		c-0.439,1.124-1.242,1.758-2.505,1.725c-0.754-0.021-1.51-0.021-2.264,0.002c-1.069,0.033-1.641,0.523-1.778,1.572
		c-0.046,0.354-0.162,0.44-0.477,0.403c-0.205-0.024-0.416-0.017-0.624-0.018c-1.415-0.01-1.367-0.012-1.429-1.388
		c-0.055-1.21,0.406-2.29,0.693-3.414c0.316-1.246,0.237-1.449-0.862-2.036c-0.843-0.451-0.393-1.254-0.415-1.897
		c-0.018-0.501,0.472-0.529,0.877-0.545c0.388-0.016,0.792,0.014,1.162-0.084c0.707-0.188,0.849-0.84,0.868-1.425
		c0.031-0.926,0.456-1.109,1.305-1.078c1.792,0.069,3.59,0.02,5.384,0.022c0.267,0,0.628-0.098,0.561,0.383
		C46.348,11.911,46.994,13.275,48.286,14.532z"/>
	<path fill="#62DAFA" d="M36.118,51.52c0.754,1.27,1.506,2.539,2.267,3.803c0.138,0.23,0.122,0.418-0.013,0.646
		c-1.092,1.854-2.174,3.716-3.259,5.574c-0.165,0.062-0.308-0.011-0.44-0.091c-0.869-0.52-1.728-1.056-2.58-1.6
		c-0.49-0.313-0.649-0.733-0.348-1.262c1.283-2.256,2.567-4.51,3.909-6.73C35.757,51.692,35.849,51.477,36.118,51.52z"/>
	<path fill="#01CFFA" d="M36.118,51.52c-1.304,1.975-2.416,4.06-3.591,6.107c-0.942,1.641-0.904,1.664,0.687,2.696
		c0.631,0.409,1.268,0.813,1.901,1.22c-0.594,1.175-0.594,1.175-1.695,0.485c-1.364-0.855-2.72-1.727-4.098-2.559
		c-0.404-0.243-0.454-0.428-0.211-0.843c1.565-2.663,3.099-5.345,4.647-8.021c0.447-0.771,1.43-0.756,1.889,0.024
		C35.816,50.921,35.962,51.224,36.118,51.52z"/>
	<path fill="#F9C500" d="M38.28,4.868c2.597-0.008,5.195-0.018,7.792-0.022c0.606-0.001,1.045,0.275,1.276,0.841
		c0.26,0.634-0.067,1.168-0.34,1.69c-0.126,0.244-0.425,0.117-0.643,0.118c-2.313,0.008-4.625,0-6.937,0.007
		c-1.174,0.004-1.918,0.524-2.096,1.658c-0.125,0.797-0.494,1.059-1.22,1.008c-0.419,0.027-0.361-0.318-0.365-0.536
		c-0.03-1.743,0.625-3.212,1.835-4.447C37.774,4.991,38.04,4.955,38.28,4.868z"/>
	<path fill="#01CFFA" d="M41.219,50.979c1.182,2.359,2.62,4.574,3.913,6.871c0.722,1.285,1.476,2.554,2.216,3.825
		c-1.805,1.307-1.807,1.309-2.913-0.597c-1.982-3.404-3.964-6.813-5.94-10.222c-0.125-0.219-0.317-0.415-0.319-0.728
		C39.349,49.865,40.082,51.178,41.219,50.979z"/>
	<path fill="#E7B700" d="M27.327,11.092c-0.33-0.432-0.019-0.962-0.222-1.452c-2.109,1.07-3.426,2.809-4.283,4.938
		c-0.647,1.611-0.94,3.34-1.682,4.927c-0.443,0.947-0.937,1.846-1.539,2.694c-0.133,0.187-0.451,0.338-0.177,0.642
		c-0.831,0.331-1.708,0.376-2.781,0.488c0.946-0.989,1.655-1.936,2.233-2.975c0.94-1.69,1.55-3.507,2.079-5.361
		c0.827-2.9,2.51-5.048,5.479-6.007c0.829-0.269,0.828-0.264,0.846,0.624C27.291,10.104,27.312,10.6,27.327,11.092z"/>
	<path fill="#E7B700" d="M38.28,4.868c-1.557,1.196-2.301,2.794-2.342,4.738c-0.004,0.204-0.029,0.421,0.175,0.563
		c-2.383,1.224-2.951,4.365-1.096,6.282c0.326,0.338,0.274,0.646,0.098,0.881c-0.25,0.33-0.496-0.047-0.682-0.188
		c-0.889-0.673-1.288-1.603-1.292-2.703c-0.008-1.584-0.018-3.167,0-4.751C33.177,6.785,35.364,4.742,38.28,4.868z"/>
	<path fill="#FDD1A3" d="M33.754,37.997c0.952-0.625,1.504-0.003,2.114,0.624c1.653,1.696,3.351,3.35,5.014,5.037
		c0.511,0.518,1.014,0.708,1.738,0.402c0.875-0.368,1.109,0.555,1.575,0.954c0.419,0.358,0.065,0.696-0.222,0.977
		c-0.745,0.725-1.491,1.448-2.236,2.172c-0.665-0.389-0.913-1.013-0.778-1.717c0.126-0.667-0.153-1.084-0.579-1.508
		c-2.028-2.015-4.05-4.036-6.064-6.065C34.073,38.628,33.71,38.436,33.754,37.997z"/>
	<path fill="#FDD1A3" d="M31.417,66.078c-0.427,0.926-1.084,1.729-1.447,2.69c-0.752-0.317-1.368-0.176-1.757,0.574
		c-0.17,0.329-0.336,0.391-0.648,0.18c-0.424-0.287-0.875-0.538-1.314-0.803c-0.207-0.303-0.006-0.551,0.128-0.786
		c0.917-1.591,1.833-3.181,2.765-4.762c0.163-0.278,0.303-0.632,0.746-0.545c0.178,0.099,0.361,0.187,0.534,0.295
		c0.324,0.202,0.753,0.348,0.935,0.643c0.225,0.366-0.276,0.649-0.388,0.999C30.774,65.176,30.957,65.667,31.417,66.078z"/>
	<path fill="#F1FAFE" d="M34.906,34.089c-1.124,1.305-1.124,1.305-2.326,0.103c-1.234-1.231-1.234-1.232,0.01-2.477
		c1.374-1.376,2.741-2.76,4.127-4.124c0.81-0.796,1.613-0.808,2.459-0.084c-0.054,0.339-0.317,0.529-0.534,0.747
		c-1.34,1.347-2.686,2.686-4.026,4.03c-0.652,0.654-0.651,0.658-0.013,1.355C34.728,33.775,34.85,33.909,34.906,34.089z"/>
	<path fill="#FDD1A3" d="M49.672,63.09c1.571-1.181,1.57-1.179,2.524,0.477c1.111,1.931,2.216,3.866,3.35,5.786
		c0.211,0.357,0.261,0.572-0.172,0.767c-0.446,0.202-0.868,0.453-1.302,0.684c-0.665-0.535-0.93-1.344-1.351-2.038
		c-0.966-1.589-1.861-3.221-2.81-4.818C49.76,63.689,49.535,63.436,49.672,63.09z"/>
	<path fill="#FEBC85" d="M33.754,37.997c2.248,2.266,4.489,4.538,6.748,6.792c0.501,0.501,0.88,0.954,0.622,1.757
		c-0.2,0.622,0.313,1.11,0.614,1.617c-0.388,0.622-0.795,0.529-1.246,0.057c-0.478-0.5-1.076-0.882-0.56-1.766
		c0.291-0.497-0.16-0.964-0.542-1.346c-2.871-2.862-5.736-5.731-8.603-8.599c-0.401-0.401-0.826-0.794-0.737-1.653
		c0.849,0.891,1.604,1.673,2.348,2.466C32.769,37.719,33.207,37.963,33.754,37.997z"/>
	<path fill="#FDD1A3" d="M55.643,24.802c0.763,0.742,1.521,1.487,2.288,2.225c0.384,0.369,0.343,0.704-0.021,1.066
		c-0.508,0.512-0.924,1.113-1.837,0.713c-0.424-0.186-0.816,0.205-1.138,0.528c-1.355,1.365-2.721,2.724-4.08,4.084
		c-0.112,0.111-0.228,0.216-0.332,0.331c-0.114,0.126-0.282,0.232-0.405,0.132c-0.172-0.14,0.103-0.288,0.072-0.452
		c-0.099-0.976,0.403-1.635,1.082-2.265c1.029-0.953,1.985-1.984,2.993-2.963c0.411-0.397,0.583-0.812,0.452-1.391
		C54.521,25.93,54.792,25.222,55.643,24.802z"/>
	<path fill="#54469B" d="M22.817,74.345c1.24,0.59,2.426,1.283,3.571,2.031c0.988,0.646,1.106,2.249,0.345,3.115
		c-0.216,0.246-0.367,0.107-0.529,0.015c-1.498-0.869-2.992-1.75-4.486-2.627c-0.158-0.208-0.137-0.432-0.033-0.649
		C22.002,75.565,22.325,74.904,22.817,74.345z"/>
	<path fill="#FEBC85" d="M49.672,63.09c1.445,2.524,2.891,5.048,4.336,7.571c0.025,0.046,0.044,0.095,0.064,0.142
		c-0.032,0.038-0.061,0.087-0.101,0.112c-1.321,0.833-1.321,0.833-2.103-0.517c-1.113-1.931-2.208-3.875-3.359-5.784
		c-0.318-0.526-0.272-0.801,0.278-1.04C49.097,63.443,49.378,63.255,49.672,63.09z"/>
	<path fill="#54469B" d="M57.479,76.368c1.027-0.604,2.035-1.243,3.083-1.804c1.118-0.599,2.281-0.185,2.899,0.936
		c0.184,0.334,0.201,0.543-0.171,0.749c-1.471,0.82-2.927,1.662-4.391,2.495c-0.176,0.063-0.327-0.017-0.399-0.149
		C58.11,77.875,57.35,77.324,57.479,76.368z"/>
	<path fill="#FEFEFE" d="M34.906,34.089c-0.023-0.011-0.051-0.017-0.07-0.031c-1.283-0.969-1.286-0.972-0.171-2.079
		c1.502-1.492,3.008-2.98,4.513-4.472c0.686,0.801,0.727,1.601,0.014,2.331C37.785,31.276,36.336,32.674,34.906,34.089z"/>
	<path fill="#FEBC85" d="M29.889,62.627c-0.738,0.52-0.992,1.37-1.41,2.101c-0.755,1.322-1.644,2.573-2.229,3.992
		c-1.505-0.772-1.505-0.772-0.691-2.182c0.827-1.434,1.682-2.853,2.466-4.31c0.293-0.544,0.538-0.584,0.978-0.211
		C29.275,62.248,29.592,62.425,29.889,62.627z"/>
	<path fill="#FDBC85" d="M55.643,24.802c-0.701,0.688-0.998,1.471-0.653,2.451c0.125,0.354-0.124,0.627-0.377,0.877
		c-1.035,1.021-2.052,2.06-3.089,3.078c-0.639,0.627-1.345,1.205-1.332,2.221c0.008-0.313,0.097-0.647,0.011-0.931
		c-0.313-1.042,0.205-1.687,0.924-2.325c0.797-0.708,1.509-1.509,2.275-2.25c0.558-0.537,0.722-1.096,0.306-1.807
		c-0.278-0.478,0.131-1.175,0.911-1.661C55.098,24.158,55.393,24.418,55.643,24.802z"/>
	<path fill="#F06600" d="M37.3,47.655c-0.997,0.219-2.007,0.049-3.009,0.091c-0.327,0.015-0.362-0.212-0.362-0.471
		c0.004-1.35,0.002-2.699,0.002-4.317c1.073,1.095,2.001,2.04,2.928,2.987C37.036,46.507,36.701,47.2,37.3,47.655z"/>
	<path fill="#453A83" d="M57.479,76.368c0.317,0.886,0.773,1.688,1.421,2.376c-1.573,1.062-1.593,1.073-2.39-0.313
		c-0.828-1.442-0.834-0.98,0.483-1.832C57.144,76.502,57.317,76.443,57.479,76.368z"/>
	<path fill="#453B83" d="M22.817,74.345c-0.077,0.62-0.546,1.047-0.785,1.589c-0.133,0.306-0.352,0.583-0.315,0.945
		c-1.634-0.824-1.634-0.824-0.877-2.166C21.56,73.435,21.56,73.435,22.817,74.345z"/>
	<path fill="#FA4654" d="M29.604,9.198c0-0.311-0.017-0.624,0.003-0.933c0.048-0.698,0.583-1.025,1.259-0.821
		c0.28,0.084,0.204,0.241,0.16,0.416c-0.214,0.837-0.236,1.69-0.238,2.548c0,0.236,0.185,0.629-0.305,0.644
		c-0.388,0.011-0.758-0.086-0.826-0.534C29.59,10.084,29.602,9.64,29.579,9.2C29.587,9.198,29.596,9.198,29.604,9.198z"/>
	<path fill="#DCF3FA" d="M24.998,70.782c0.386,0.206,0.761,0.438,1.162,0.612c0.549,0.239,0.628,0.502,0.282,1.033
		c-0.588,0.899-0.551,0.928-1.508,0.368c-0.245-0.144-0.477-0.306-0.714-0.459C24.075,71.676,24.348,71.13,24.998,70.782z"/>
	<path fill="#DCF3FA" d="M55.467,72.81c0.235-0.153,0.487-0.289,0.706-0.465c0.572-0.459,0.928-0.44,1.305,0.299
		c0.314,0.615,0.321,0.938-0.349,1.188c-0.286,0.104-0.55,0.275-0.824,0.418C55.595,74.041,55.304,73.544,55.467,72.81z"/>
	<path fill="#C6ECFB" d="M55.467,72.81c0.035,0.621,0.379,1.063,0.838,1.438c-0.301,0.192-0.624,0.356-0.9,0.581
		c-0.574,0.469-0.846,0.246-1.196-0.322c-0.398-0.646-0.332-0.984,0.375-1.239C54.892,73.155,55.174,72.964,55.467,72.81z"/>
	<path fill="#C5EBFA" d="M24.998,70.782c-0.305,0.495-0.768,0.912-0.778,1.555c-0.251-0.13-0.491-0.29-0.753-0.384
		c-0.716-0.257-0.717-0.593-0.364-1.244c0.391-0.72,0.739-0.782,1.321-0.309C24.601,70.546,24.807,70.655,24.998,70.782z"/>
	<path fill="#ED6400" d="M38.281,24.068c-0.509,0.516,0.162,0.419,0.309,0.594c-1.785-0.184-3.131,0.639-4.345,2.157
		C34.525,24.971,36.222,23.924,38.281,24.068z"/>
	<path fill="#F97501" d="M37.3,47.655c-0.396,0.034-0.645-0.091-0.58-0.544c0.055-0.39-0.139-0.807,0.14-1.168
		C37.629,46.354,37.322,47.041,37.3,47.655z"/>
	<path fill="#010101" d="M44.875,13.419c0,0.361,0.038,0.727-0.01,1.082c-0.078,0.59-0.467,0.922-1.045,0.959
		c-0.615,0.04-1.072-0.262-1.188-0.879c-0.142-0.765-0.14-1.55-0.003-2.313c0.111-0.619,0.562-0.912,1.185-0.878
		c0.592,0.031,0.97,0.359,1.051,0.946C44.915,12.689,44.875,13.057,44.875,13.419z"/>
</g>
</svg>
