<?xml version="1.0" encoding="utf-8"?>
<!-- Generator: Adobe Illustrator 16.0.0, SVG Export Plug-In . SVG Version: 6.00 Build 0)  -->
<!DOCTYPE svg PUBLIC "-//W3C//DTD SVG 1.1//EN" "http://www.w3.org/Graphics/SVG/1.1/DTD/svg11.dtd">
<svg version="1.1" id="Layer_1" xmlns="http://www.w3.org/2000/svg" xmlns:xlink="http://www.w3.org/1999/xlink" x="0px" y="0px"
	 width="85px" height="85px" viewBox="0 0 85 85" enable-background="new 0 0 85 85" xml:space="preserve">
<g>
	<g>
		<path d="M82.5,46.609c-0.131-1.755-0.945-3.162-2.256-4.281c-3.204-2.734-6.43-5.443-9.654-8.153
			c-2.408-2.024-4.788-4.083-7.229-6.067c-0.627-0.509-0.839-1.005-0.827-1.769c0.037-2.393,0.014-4.786,0.014-7.18
			c0.001-0.444-0.025-0.876-0.211-1.296c-1.013-2.295-3.511-2.893-5.56-1.282c-0.431,0.338-0.604,0.297-0.884-0.142
			c-1.976-3.087-4.7-5.264-8.153-6.475c-4.154-1.458-8.24-1.161-12.213,0.698c-0.974,0.456-1.135,0.868-0.941,1.946
			c0.535,0.838,1.15,1.003,2.186,0.53c1.322-0.604,2.689-1.042,4.136-1.222c0.176-0.048,0.352-0.09,0.535-0.097
			c4.673-0.161,8.564,1.424,11.464,5.172c2.103,2.718,2.893,5.833,2.661,9.232c-0.015,0.227,0.017,0.533-0.31,0.535
			c-0.464,0.002-0.949,0.009-1.129-0.594c-0.581-1.942-1.953-2.933-3.911-3.198c-5.04-0.046-10.082-0.034-15.123-0.004
			c-2.049,0.012-3.446,1.079-4.189,3.028c-0.056,0.146-0.088,0.303-0.184,0.428c-0.257,0.334-0.634,0.358-0.991,0.296
			c-0.348-0.06-0.28-0.399-0.277-0.642c0.01-0.96-0.063-1.921,0.071-2.88c0.341-2.426,1.285-4.587,2.798-6.51
			c0.664-0.844,0.689-1.25,0.185-2.117c-0.896-0.632-1.541-0.566-2.234,0.265c-0.467,0.56-0.9,1.147-1.281,1.771
			c-0.223,0.366-0.435,0.303-0.638-0.021c-0.159-0.254-0.175-0.54-0.177-0.828c-0.005-0.677,0.006-1.354-0.004-2.031
			c-0.025-1.753-0.822-2.567-2.592-2.623c-0.91-0.029-1.822-0.022-2.732-0.002c-0.562,0.012-1.002-0.173-1.389-0.578
			c-0.611-0.64-1.243-1.26-1.875-1.88c-1.108-1.088-2.175-1.131-3.384-0.127c-0.501,0.417-0.989,0.863-1.386,1.371
			c-0.761,0.976-1.703,1.33-2.927,1.229c-0.873-0.072-1.77-0.117-2.641,0.123c-1.079,0.296-1.62,0.972-1.639,2.083
			c-0.015,0.885-0.039,1.772,0.008,2.655c0.04,0.761-0.186,1.344-0.757,1.864c-0.71,0.647-1.415,1.312-2.026,2.057
			c-0.904,1.104-0.856,2.127,0.115,3.127c0.636,0.653,1.268,1.312,1.938,1.928c0.517,0.475,0.76,1.006,0.73,1.718
			c-0.042,1.014-0.034,2.031-0.002,3.045c0.035,1.14,0.789,1.895,1.925,1.939c0.833,0.032,1.673,0.076,2.498-0.007
			c1.157-0.117,1.99,0.326,2.729,1.172c0.389,0.445,0.479,0.679-0.038,1.108c-3.003,2.495-5.963,5.041-8.975,7.524
			c-1.617,1.334-3.033,2.775-3.254,5.005c0,0.729,0,1.458,0,2.188c0.161,0.727,0.15,1.486,0.526,2.17
			c1.457,2.644,3.747,3.922,6.698,3.971c3.771,0.062,7.546,0.015,11.318,0.016c1.592,0,1.459-0.109,0.878,1.342
			c-1.392,3.479-2.756,6.968-4.136,10.45c-0.72,1.816-0.346,2.74,1.354,3.661c0.138,0.073,0.274,0.148,0.453,0.228
			c-1.088-0.042-2.14-0.043-3.19-0.01c-0.941,0.03-1.364,0.39-1.605,1.275c0.078,1.073,0.44,1.444,1.479,1.506
			c0.337,0.02,0.676,0.01,1.015,0.01c9.809,0.001,19.618,0.004,29.428-0.008c0.732-0.001,1.337,0.158,1.929,0.643
			c1.539,1.26,3.771,1.236,5.361,0.027c0.228-0.173,0.436-0.372,0.686-0.517c0.354-0.224,0.753-0.166,1.141-0.166
			c7.291-0.002,14.582-0.018,21.873,0.033c2.482,0.018,2.173-0.307,2.193,2.218c0.014,1.646,0.002,1.648-1.614,1.648
			c-23.854,0-47.707,0-71.562,0c-1.573,0-1.573-0.002-1.651-1.553c0.005-0.286,0.011-0.57,0.011-0.854
			c-0.003-1.475-0.002-1.474,1.511-1.476c1.242-0.002,2.485,0.021,3.727-0.01c1.178-0.028,1.568-0.437,1.596-1.606
			c-0.319-0.865-0.72-1.168-1.697-1.186c-1.562-0.027-3.123-0.022-4.686-0.004c-1.732,0.021-2.628,0.747-3.034,2.41
			c0,1.614,0,3.229,0,4.844c0.385,1.536,1.273,2.234,2.896,2.278c0.208,0.006,0.416,0.004,0.624,0.004c24.319,0,48.64,0,72.958,0
			c0.209,0,0.417,0.002,0.626-0.004c1.622-0.044,2.51-0.742,2.896-2.278c0-1.614,0-3.229,0-4.844
			c-0.416-1.701-1.297-2.39-3.105-2.425c-0.287-0.007-0.573-0.003-0.86-0.003c-5.468-0.001-10.937,0.002-16.404-0.002
			c-1.054-0.001-1.105-0.055-1.106-1.101c-0.004-4.427-0.002-8.854-0.001-13.28c0-1.211,0.017-1.229,1.212-1.229
			c4.271-0.002,8.541-0.006,12.812,0.002c1.551,0.004,3.015-0.335,4.312-1.177c1.752-1.139,3.048-2.606,3.062-4.86
			c0.039-0.308-0.084-0.629,0.081-0.925C82.5,47.442,82.5,47.026,82.5,46.609z M18.412,44.355c1.486-1.255,2.868-2.423,4.25-3.589
			c1.512-1.274,3.035-2.535,4.526-3.831c0.358-0.311,0.596-0.336,0.99-0.06c0.714,0.502,1.556,0.694,2.418,0.788
			c0.22,0.024,0.407-0.019,0.517,0.313c1.155,3.516,1.164,3.513,3.715,6.377C29.392,44.355,23.997,44.355,18.412,44.355z
			 M61.008,44.396c-0.76-0.007-1.245,0.286-1.398,1.053c-1.046,0.157-2.09,0.158-3.135,0.001c-0.146-0.772-0.637-1.061-1.395-1.053
			c-1.608,0.017-3.218,0.005-4.82,0.005c-0.111-0.236,0.091-0.289,0.19-0.378c1.742-1.55,2.899-3.452,3.372-5.739
			c0.097-0.466,0.261-0.621,0.733-0.652c0.864-0.059,1.676-0.342,2.4-0.835c0.229-0.156,0.402-0.239,0.672-0.01
			c2.912,2.476,5.838,4.935,8.758,7.402c0.03,0.026,0.03,0.088,0.069,0.212C64.622,44.402,62.814,44.415,61.008,44.396z"/>
	</g>
	<path fill-rule="evenodd" clip-rule="evenodd" fill="#252525" d="M82.5,48.641c-0.043,0.018-0.086,0.034-0.129,0.052
		c-0.046-0.292-0.113-0.586,0.129-0.833C82.5,48.12,82.5,48.38,82.5,48.641z"/>
	<path fill-rule="evenodd" clip-rule="evenodd" fill="#FD646F" d="M54.857,68.011c-1.138-1.393-2.544-2.123-4.381-1.744
		c-1.856,0.384-3.149,1.842-3.33,3.741c-0.034,0.36,0.029,0.691-0.554,0.688c-5.286-0.022-10.572-0.015-15.858-0.018
		c-0.046,0-0.091-0.031-0.228-0.081c0.945-1.197,1.872-2.372,2.801-3.544c1.827-2.306,3.672-4.598,5.472-6.923
		c0.374-0.482,0.611-0.498,1.017-0.083c0.502,0.514,0.896,1.048,1.017,1.792c0.168,1.036,0.554,2,1.196,2.85
		c1.271,1.68,3.36,2.311,5.125,1.539c1.784-0.78,2.728-2.784,2.341-4.974c-0.636-3.605-3.272-6.148-7.1-6.828
		c-2.08-0.369-4.149-0.336-6.173,0.319c-0.417,0.135-0.69-0.011-1.006-0.192c-2.655-1.538-5.312-3.073-7.97-4.606
		c-1.548-0.894-2.374-0.61-3.026,1.031c-0.492,1.237-0.492,1.237-1.865,1.237c-4.244,0-8.489,0.014-12.734-0.006
		c-2.767-0.013-4.834-2.081-4.748-4.715c0.039-1.197,0.462-2.278,1.372-3.049c5-4.244,10.029-8.454,15.049-12.674
		c0.956,0.33,1.513,1.044,1.779,1.973c0.235,0.817-0.258,1.413-0.817,1.89c-2.387,2.037-4.742,4.109-7.132,6.143
		c-0.651,0.555-1.342,1.067-1.923,1.699c-0.709,0.77-0.598,1.413,0.354,1.81c0.353,0.147,0.458,0.367,0.501,0.686
		c0.331,0.644,0.888,0.783,1.565,0.782c6.994-0.012,13.988,0.001,20.983-0.021c0.636-0.002,0.882,0.097,0.908,0.822
		c0.097,2.681,2.325,4.738,5.017,4.732c2.695-0.007,4.89-2.059,5.006-4.751c0.027-0.638,0.201-0.819,0.844-0.807
		c2.209,0.042,4.42,0.021,6.63,0.014c0.999-0.003,1.348-0.317,1.486-1.293c1.045-0.256,2.09-0.252,3.135-0.002
		c0.147,0.982,0.491,1.293,1.49,1.295c2.81,0.007,5.619-0.002,8.429,0.006c0.623,0.002,1.162-0.152,1.388-0.779
		c0.222-0.615-0.052-1.088-0.54-1.497c-3.665-3.077-7.316-6.172-10.988-9.241c-0.396-0.33-0.466-0.578-0.326-1.094
		c0.277-1.024,0.844-1.814,1.585-2.52c0.559-0.003,0.868,0.431,1.231,0.738c3.535,2.988,7.094,5.951,10.611,8.96
		c1.196,1.023,2.56,1.878,3.412,3.283c1.286,2.118,1.107,4.887-0.478,6.788c-0.447,0.536-0.948,0.787-1.678,0.782
		c-4.188-0.032-8.379-0.018-12.568-0.014c-0.283,0.001-0.571-0.046-0.852,0.043c-0.763,0.09-1.291,0.518-1.675,1.154
		c-0.475,0.303-1.007,0.191-1.519,0.208c-1.492,0.047-1.892,0.441-1.899,1.912c-0.004,0.882,0.011,1.764-0.007,2.646
		c-0.007,0.356,0.027,0.744-0.367,0.958c-0.372,0.134-0.769,0.075-1.151,0.147c-1.592,0.305-2.472,1.435-2.402,3.11
		c0.057,1.399,1.176,2.511,2.664,2.649c0.355,0.033,0.732-0.042,1.05,0.201c0.393,0.829,0.215,1.691,0.14,2.545
		C55.146,67.876,55.054,68.021,54.857,68.011z"/>
	<path fill-rule="evenodd" clip-rule="evenodd" fill="#D78955" d="M32.33,14.598c0.796-0.664,1.592-1.327,2.389-1.99
		c0.483,0.698,1.101,0.756,1.824,0.406c1.379-0.667,2.803-1.187,4.354-1.268c0.852-0.17,1.639-0.021,2.388,0.425
		c3.882,2.31,6.26,5.676,7.134,10.106c0.061,0.305,0.144,0.616-0.106,0.886c-4.965,0.007-9.931,0.013-14.896,0.02
		c-2.378,0.004-3.729,0.976-4.392,3.271c-0.183,0.634-0.641,0.351-0.976,0.491c-0.771,0.321-0.844-0.028-0.872-0.716
		c-0.157-3.704,0.749-7.049,3.166-9.922C32.823,15.735,32.732,15.164,32.33,14.598z"/>
	<path fill-rule="evenodd" clip-rule="evenodd" fill="#FEE077" d="M11.794,71.698c1.043,0.338,2.086,0.338,3.129,0.001
		c0.129,1.07,0.435,1.328,1.595,1.328c10.258,0.001,20.515,0.003,30.772-0.009c0.497,0,0.854,0.124,1.231,0.476
		c1.701,1.585,3.985,1.442,6.017-0.324c0.219-0.127,0.459-0.071,0.688-0.071c5.828-0.003,11.657-0.003,17.486-0.002
		c0.86,0,1.086,0.286,0.912,1.146c-0.16,0.79-0.704,1.316-1.528,1.472c-0.387,0.072-0.778,0.057-1.168,0.057
		c-21.546,0.001-43.092,0.001-64.638-0.005c-0.481,0-0.998,0.116-1.422-0.252c-0.018-3.075-0.438-2.411,2.292-2.481
		c1.039-0.027,2.08-0.002,3.12-0.006C11.355,73.022,11.671,72.742,11.794,71.698z"/>
	<path fill-rule="evenodd" clip-rule="evenodd" fill="#FECDBE" d="M45.48,43.99c-4.769,0.878-8.67,0.138-11.05-3.729
		c-0.748-1.216-1.137-2.558-1.145-3.989c-0.016-2.961-0.013-5.923-0.006-8.885c0.002-0.967,0.345-1.427,1.228-1.734
		c0.198-0.094,0.41-0.057,0.615-0.057c4.366-0.002,8.731-0.002,13.098-0.001c0.805,0,0.919,0.076,0.924,0.871
		c0.024,3.56,0.047,7.121-0.015,10.68c-0.013,0.767-0.107,1.561-0.591,2.225c-0.55,0.16-0.414-0.304-0.454-0.543
		c-0.073-0.449,0.04-0.919-0.121-1.363c-0.565-1.739-1.185-2.193-3.013-2.195c-1.741-0.002-3.482-0.011-5.224,0.003
		c-1.668,0.014-2.604,0.953-2.628,2.61c-0.007,0.52-0.021,1.041,0.008,1.559c0.077,1.329,1.001,2.333,2.328,2.383
		c2.051,0.077,4.105,0.039,6.158,0.014c0.655-0.008,1.146-0.472,1.755-0.601c0.435,0.185,0.182,0.461,0.06,0.675
		C46.932,42.756,46.276,43.44,45.48,43.99z"/>
	<path fill-rule="evenodd" clip-rule="evenodd" fill="#FED05B" d="M4.869,75.514c22.223,0.001,44.445,0.002,66.668,0.001
		c1.295,0,1.958-0.652,1.909-1.812c-0.018-0.411-0.171-0.564-0.563-0.532c-0.181,0.015-0.364,0.002-0.546,0.002
		c-5.934-0.001-11.866-0.002-17.799-0.002c0.192-0.275,0.479-0.14,0.715-0.14c7.991-0.007,15.983,0.004,23.975-0.016
		c0.709-0.002,0.986,0.193,0.942,0.93c-0.056,0.934-0.026,1.873-0.009,2.811c0.01,0.464-0.171,0.681-0.642,0.649
		c-0.208-0.014-0.417-0.002-0.625-0.002c-24.183,0-48.366,0.001-72.549-0.001C4.67,77.4,4.854,77.6,4.845,75.902
		C4.844,75.773,4.861,75.644,4.869,75.514z"/>
	<path fill-rule="evenodd" clip-rule="evenodd" fill="#FEE077" d="M16.691,31.154c-0.024-0.01-0.059-0.012-0.071-0.03
		c-1.266-1.822-3.07-2.231-5.136-1.966c-0.18,0.023-0.368-0.02-0.546,0.007c-0.622,0.097-0.885-0.093-0.827-0.781
		c0.067-0.801-0.018-1.614,0.024-2.418c0.048-0.929-0.269-1.659-0.958-2.279c-0.618-0.556-1.152-1.207-1.784-1.747
		C6.916,21.53,7.01,21.284,7.42,20.912c0.674-0.612,1.285-1.292,1.944-1.921c0.544-0.52,0.783-1.137,0.768-1.885
		c-0.02-0.962,0.012-1.926-0.013-2.889c-0.01-0.409,0.125-0.546,0.534-0.533c0.858,0.026,1.721-0.039,2.576,0.02
		c1.021,0.069,1.816-0.269,2.474-1.045c0.333-0.394,0.744-0.721,1.12-1.078c0.518-0.072,0.816,0.314,1.116,0.603
		c2.048,1.965,3.363,4.331,3.815,7.153c0.626,3.901-0.512,7.291-3.02,10.261C18.18,30.255,17.616,30.958,16.691,31.154z"/>
	<path fill-rule="evenodd" clip-rule="evenodd" fill="#98E5FB" d="M24.335,70.233c-1.308-0.736-2.611-1.479-3.926-2.203
		c-0.301-0.165-0.309-0.351-0.196-0.633c1.275-3.199,2.548-6.398,3.805-9.604c0.124-0.318,0.277-0.439,0.619-0.437
		c2.726,0.023,5.451,0.029,8.177,0.041c0.731,0.568,0.844,1.248,0.303,2.111c-0.484,0.772-1.104,1.445-1.67,2.159
		c-2.051,2.588-4.099,5.179-6.155,7.762C25.039,69.747,24.896,70.26,24.335,70.233z"/>
	<path fill-rule="evenodd" clip-rule="evenodd" fill="#FC4755" d="M60.326,52.199c0.251-0.208,0.55-0.115,0.826-0.115
		c4.106-0.007,8.215-0.035,12.32,0.021c0.846,0.012,1.372-0.316,1.848-0.901c1.999-2.458,1.489-6.135-1.019-8.093
		c-1.854-1.449-3.6-3.034-5.4-4.55c-2.156-1.815-4.32-3.622-6.479-5.434c-0.595-0.499-1.184-1.005-1.775-1.507
		c1.131-1.555,1.124-1.546,2.549-0.343c5.045,4.26,10.097,8.512,15.141,12.772c1.681,1.42,2.219,3.263,1.53,5.154
		c-0.669,1.837-2.379,3.005-4.486,3.008C70.361,52.219,65.344,52.205,60.326,52.199z"/>
	<path fill-rule="evenodd" clip-rule="evenodd" fill="#C47A44" d="M50.312,23.163c-0.272-2.794-1.376-5.234-3.117-7.415
		c-0.983-1.231-2.165-2.217-3.479-3.072c-0.865-0.563-1.742-1.033-2.818-0.93c2.324-0.386,4.584-0.062,6.699,0.896
		c5.199,2.351,7.961,6.406,8.198,12.135c0.023,0.572-0.014,1.146,0.012,1.718c0.02,0.455-0.051,0.592-0.598,0.538
		c-0.83-0.083-1.186-0.391-1.442-1.218C53.26,24.188,51.939,23.429,50.312,23.163z"/>
	<path fill-rule="evenodd" clip-rule="evenodd" fill="#FEAF9D" d="M48.436,39.419c0.329-1.15,0.499-2.313,0.484-3.52
		c-0.036-3.014-0.008-6.028-0.013-9.042c-0.003-1.333,0.124-1.183-1.149-1.185c-4.416-0.01-8.833-0.013-13.25-0.018
		c0.275-0.215,0.6-0.129,0.901-0.129c4.731-0.004,9.462-0.001,14.192,0.003c1.522,0.002,2.12,0.602,2.12,2.125
		c0.001,2.885,0.029,5.771-0.013,8.655c-0.052,3.458-2.408,6.56-5.695,7.589c-0.171,0.054-0.355,0.062-0.533,0.093
		c0.516-0.811,1.389-1.33,1.809-2.222c0.076-0.161,0.219-0.291,0.205-0.49c-0.166-0.545,0.298-0.866,0.46-1.295
		C48.116,39.797,48.236,39.574,48.436,39.419z"/>
	<path fill-rule="evenodd" clip-rule="evenodd" fill="#FC4755" d="M54.661,58.976c0.408-0.074,0.333-0.396,0.334-0.67
		c0.004-1.059,0.001-2.117,0.002-3.176c0.002-1.212,0.499-1.745,1.718-1.793c0.645-0.026,1.291,0.009,1.937,0.017
		c-0.128,0.535-0.156,1.079-0.155,1.628c0.004,4.946-0.015,9.893,0.021,14.839c0.005,0.741-0.223,0.939-0.913,0.875
		c-0.594-0.057-1.255,0.142-1.78-0.056c-0.643-0.242-0.181-1.069-0.488-1.57c-0.201-0.327-0.322-0.704-0.479-1.059
		c0.221-0.94,0.253-1.879-0.023-2.815c0.008-0.352,0.327-0.363,0.538-0.476c1.18-0.629,1.729-1.588,1.617-2.934
		c-0.1-1.191-0.763-1.941-1.808-2.418C54.981,59.275,54.702,59.282,54.661,58.976z"/>
	<path fill-rule="evenodd" clip-rule="evenodd" fill="#62DAFA" d="M24.335,70.233c1.178-1.201,2.112-2.602,3.173-3.898
		c1.767-2.158,3.467-4.37,5.191-6.563c0.743-0.945,0.759-1.379,0.114-2.374c2.377-0.169,2.708-0.091,4.336,1.037
		c-1.968,2.484-3.934,4.967-5.9,7.448c-1.146,1.444-2.304,2.88-3.431,4.338c-0.265,0.343-0.538,0.521-0.973,0.466
		C26.001,70.579,25.065,70.977,24.335,70.233z"/>
	<path fill-rule="evenodd" clip-rule="evenodd" fill="#FED05B" d="M16.691,31.154c3.511-2.655,5.238-6.216,4.992-10.579
		c-0.209-3.691-1.809-6.77-4.86-8.994c0.978-1.138,0.968-1.128,2.007-0.113c2.672,2.611,1.574,2.184,5.327,2.221
		c1.454,0.014,1.449,0.002,1.444,1.493c-0.001,0.372,0.031,0.662-0.479,0.8c-1.683,0.455-2.52,1.595-2.531,3.377
		c-0.017,2.498-0.021,4.996,0.007,7.494c0.007,0.567-0.154,0.899-0.63,1.262c-1.322,1.008-2.563,2.124-3.838,3.194
		C17.369,31.948,17.367,31.946,16.691,31.154z"/>
	<path fill-rule="evenodd" clip-rule="evenodd" fill="#FC4755" d="M14.035,45.972c-0.164-0.172-0.215-0.393-0.529-0.488
		c-1.144-0.349-1.365-1.301-0.475-2.123c1.331-1.231,2.718-2.402,4.09-3.589c1.332-1.151,2.675-2.291,4.011-3.437
		c0.413-0.354,0.847-0.69,1.225-1.078c0.758-0.776,0.769-1.623,0.042-2.409c-0.352-0.38-0.749-0.718-1.126-1.075
		c0.013-0.023,0.021-0.052,0.04-0.067c0.6-0.493,1.196-1.362,1.805-1.371c0.637-0.01,0.994,1.077,1.559,1.6
		c0.74,0.686,1.031,1.582,1.351,2.49c0.156,0.447-0.141,0.559-0.359,0.743c-3.657,3.089-7.312,6.181-10.987,9.25
		C14.165,44.848,13.922,45.317,14.035,45.972z"/>
	<path fill-rule="evenodd" clip-rule="evenodd" fill="#FDCDBE" d="M26.044,29.854c-0.854-0.668-1.185-1.501-1.145-2.624
		c0.088-2.469,0.027-4.944,0.027-7.417c0-0.208-0.002-0.417,0.009-0.625c0.028-0.58,0.343-0.957,0.911-0.972
		c0.612-0.016,0.954,0.385,0.991,0.984c0.036,0.57,0.013,1.145,0.013,1.717c0,2.238-0.041,4.478,0.021,6.714
		C26.896,28.532,26.643,29.242,26.044,29.854z"/>
	<path fill-rule="evenodd" clip-rule="evenodd" fill="#FDCDBE" d="M58.95,29.855c-0.6-0.613-0.844-1.325-0.825-2.223
		c0.056-2.654,0.019-5.311,0.022-7.966c0-0.258-0.005-0.528,0.065-0.771c0.131-0.447,0.474-0.708,0.934-0.682
		c0.483,0.028,0.832,0.301,0.888,0.821c0.033,0.31,0.028,0.624,0.028,0.936c0.002,2.421-0.059,4.845,0.027,7.263
		C60.131,28.351,59.817,29.19,58.95,29.855z"/>
	<path fill-rule="evenodd" clip-rule="evenodd" fill="#98E5FB" d="M44.822,63.989c-0.991-0.373-1.441-1.224-1.583-2.147
		c-0.364-2.375-1.839-3.807-3.829-4.865c-0.152-0.081-0.299-0.174-0.619-0.361c1.276-0.125,2.342-0.094,3.396,0.188
		c2.114,0.83,3.372,3.992,3.142,5.924C45.275,63.179,45.252,63.674,44.822,63.989z"/>
	<path fill-rule="evenodd" clip-rule="evenodd" fill="#FEAF9D" d="M30.933,32.333c0,0.83-0.014,1.66,0.007,2.489
		c0.01,0.396-0.065,0.542-0.519,0.455c-1.428-0.275-2.479-1.483-2.508-2.949c-0.028-1.435,0.948-2.714,2.304-3.037
		c0.482-0.114,0.772-0.086,0.729,0.554C30.892,30.672,30.934,31.504,30.933,32.333z"/>
	<path fill-rule="evenodd" clip-rule="evenodd" fill="#F7947F" d="M54.067,32.237c0-0.832,0.021-1.665-0.01-2.497
		c-0.015-0.421,0.113-0.539,0.531-0.483c1.416,0.19,2.54,1.587,2.487,3.129c-0.051,1.478-1.301,2.833-2.653,2.923
		c-0.384,0.025-0.355-0.181-0.355-0.42C54.066,34.006,54.067,33.122,54.067,32.237z"/>
	<path fill-rule="evenodd" clip-rule="evenodd" fill="#62DAFA" d="M44.822,63.989c1.013-2.629-0.52-5.743-2.483-7.013
		c-0.062-0.04-0.103-0.115-0.151-0.174c2.549,0.555,4.322,1.942,4.928,4.587c0.1,0.438,0.118,0.882,0.053,1.319
		C46.983,63.934,45.996,64.464,44.822,63.989z"/>
	<path fill-rule="evenodd" clip-rule="evenodd" fill="#C5ECFA" d="M25.145,54.962c0.376-0.954,0.735-1.863,1.127-2.856
		c1.619,0.935,3.193,1.842,4.949,2.856C29.091,54.962,27.168,54.962,25.145,54.962z"/>
	<path fill-rule="evenodd" clip-rule="evenodd" fill="#F6947F" d="M41.257,46.641c1.194-0.031,2.39-0.046,3.584-0.104
		c0.304-0.015,0.336,0.099,0.367,0.339c0.271,2.032-1.686,3.571-3.654,2.867c0.317-0.562,0.669-1.104,0.812-1.751
		c0.167-0.756,0.095-0.884-0.651-1.041C41.524,46.91,41.279,46.937,41.257,46.641z"/>
	<path fill-rule="evenodd" clip-rule="evenodd" fill="#FDAF9D" d="M41.257,46.641c0.144,0.148,0.33,0.118,0.509,0.125
		c0.905,0.032,1.103,0.234,0.843,1.105c-0.205,0.687-0.262,1.499-1.055,1.871c-1.187-0.458-1.768-1.362-1.769-2.676
		c0-0.422,0.072-0.625,0.554-0.503C40.633,46.638,40.95,46.618,41.257,46.641z"/>
	<path fill-rule="evenodd" clip-rule="evenodd" fill="#98E4FA" d="M51.099,72.208c-1.036-0.222-1.598-0.829-1.628-1.761
		c-0.03-0.915,0.479-1.567,1.433-1.839c0.159-0.061,0.304-0.04,0.434,0.072C52.226,69.449,52.085,71.529,51.099,72.208z"/>
	<path fill-rule="evenodd" clip-rule="evenodd" fill="#61D9F8" d="M51.099,72.208c0.695-0.963,0.824-1.985,0.322-3.072
		c-0.11-0.237-0.211-0.483-0.518-0.527c0.808-0.275,1.428,0.055,1.907,0.659s0.517,1.306,0.157,1.979
		C52.578,71.978,51.95,72.332,51.099,72.208z"/>
	<path fill-rule="evenodd" clip-rule="evenodd" d="M69.012,15.053c-1.103-0.061-2.076,0.085-3.054,0.13
		c-1.369,0.063-2.036-0.623-1.953-1.976c0.06-0.986,0.111-1.972,0.174-3.085c-0.887,0.58-1.703,1.114-2.52,1.647
		c-1.248,0.814-2.111,0.588-2.778-0.729c-0.434-0.856-0.861-1.715-1.356-2.702c-0.446,0.875-0.854,1.667-1.256,2.463
		c-0.272,0.542-0.688,0.859-1.311,0.755c-0.774-0.129-1.186-0.922-0.827-1.687C54.758,8.53,55.41,7.201,56.112,5.9
		c0.646-1.195,2.163-1.175,2.815,0.027c0.558,1.026,1.069,2.077,1.564,3.134c0.196,0.42,0.369,0.457,0.74,0.196
		c0.893-0.626,1.817-1.208,2.72-1.821c0.582-0.395,1.187-0.537,1.83-0.192c0.683,0.366,0.868,0.978,0.813,1.714
		c-0.077,1.063-0.11,2.131-0.195,3.194c-0.038,0.48,0.025,0.689,0.604,0.616c0.979-0.123,1.973-0.126,2.958-0.203
		c0.797-0.062,1.519,0.024,1.953,0.809c0.415,0.748,0.137,1.388-0.3,2.023c-0.647,0.942-1.265,1.905-1.892,2.86
		c-0.026,0.041-0.028,0.098-0.052,0.183c1.107,0.552,2.216,1.117,3.335,1.659c0.657,0.318,1.112,0.771,1.117,1.542
		c0.005,0.771-0.433,1.233-1.095,1.556c-1.468,0.717-2.923,1.46-4.391,2.178c-0.807,0.395-1.476,0.212-1.789-0.454
		c-0.302-0.64-0.044-1.225,0.742-1.627c1.039-0.532,2.086-1.048,3.262-1.638c-0.828-0.412-1.573-0.783-2.318-1.154
		c-1.876-0.935-2.056-1.59-0.913-3.323C68.073,16.497,68.518,15.81,69.012,15.053z"/>
	<path fill-rule="evenodd" clip-rule="evenodd" d="M54.661,58.976c1.936,0.682,2.795,1.888,2.544,3.617
		c-0.201,1.393-1.13,2.145-2.371,2.603c-0.755,0.046-1.496,0.033-2.188-0.35c-1.232-0.683-1.863-2.108-1.538-3.509
		c0.295-1.27,1.502-2.271,2.854-2.36C54.194,58.961,54.429,58.975,54.661,58.976z"/>
	<path fill-rule="evenodd" clip-rule="evenodd" d="M48.112,40.044c-0.206,0.411-0.412,0.823-0.618,1.234
		c-0.902,0.73-1.945,0.862-3.071,0.825c-1.584-0.054-3.172-0.004-4.758-0.017c-1.66-0.014-2.777-1.132-2.805-2.789
		c-0.01-0.572-0.017-1.145,0.007-1.716c0.056-1.371,1.094-2.512,2.46-2.551c2.104-0.06,4.212-0.056,6.316-0.004
		c1.3,0.032,2.111,0.864,2.51,2.366C48.197,38.278,48.294,39.163,48.112,40.044z"/>
	<path fill-rule="evenodd" clip-rule="evenodd" d="M39.87,31.076c0.009-1.369,1.166-2.57,2.498-2.595
		c0.651-0.012,1.115,0.259,1.249,0.918c0.142,0.693-0.186,1.146-0.836,1.379c-0.202,0.073-0.539-0.006-0.527,0.321
		c0.011,0.303,0.338,0.261,0.549,0.328c0.646,0.204,0.922,0.658,0.825,1.307c-0.101,0.673-0.562,0.96-1.213,0.963
		C41.046,33.703,39.86,32.478,39.87,31.076z"/>
	<path fill-rule="evenodd" clip-rule="evenodd" fill="#020101" d="M36.688,29.353c0.001-0.311-0.029-0.625,0.007-0.931
		c0.073-0.63,0.472-0.979,1.083-1.015c0.579-0.033,1.021,0.26,1.149,0.837c0.163,0.736,0.168,1.499-0.002,2.233
		c-0.143,0.614-0.616,0.885-1.233,0.816c-0.583-0.065-0.938-0.418-0.998-1.01C36.661,29.977,36.688,29.664,36.688,29.353z"/>
	<path fill-rule="evenodd" clip-rule="evenodd" fill="#020101" d="M48.311,29.363c0,0.311,0.031,0.625-0.007,0.931
		c-0.076,0.625-0.459,0.977-1.084,1.005c-0.628,0.029-1.051-0.294-1.172-0.907c-0.13-0.663-0.114-1.346-0.014-2.01
		c0.098-0.649,0.542-1.014,1.198-0.974c0.648,0.04,1.035,0.433,1.085,1.1c0.021,0.284,0.004,0.57,0.004,0.854
		C48.317,29.363,48.313,29.363,48.311,29.363z"/>
	<path fill-rule="evenodd" clip-rule="evenodd" fill="#FAC2B3" d="M48.112,40.044c0.014-0.884,0.027-1.768,0.041-2.651
		c0.26,0.381,0.075,0.811,0.131,1.214c0.037,0.273-0.101,0.579,0.151,0.812C48.409,39.669,48.334,39.895,48.112,40.044z"/>
	<path fill-rule="evenodd" clip-rule="evenodd" fill="#010000" d="M16.691,18.698c0-1.119-0.01-2.238,0.003-3.357
		c0.009-0.808,0.439-1.308,1.112-1.337c0.683-0.03,1.216,0.512,1.222,1.327c0.017,2.291,0.015,4.581,0.002,6.872
		c-0.005,0.837-0.487,1.372-1.176,1.375c-0.701,0.004-1.152-0.512-1.161-1.365C16.683,21.041,16.691,19.87,16.691,18.698z"/>
	<path fill-rule="evenodd" clip-rule="evenodd" fill="#020101" d="M19.035,27.276c0,1-0.371,1.524-1.11,1.567
		c-0.758,0.044-1.211-0.448-1.234-1.339c-0.031-1.211,0.359-1.821,1.162-1.818C18.608,25.689,19.035,26.263,19.035,27.276z"/>
	<path fill-rule="evenodd" clip-rule="evenodd" fill="#92DDF3" d="M54.222,62.841c-0.601,0.045-0.896-0.286-0.824-0.834
		c0.068-0.524,0.397-0.824,0.984-0.593C54.662,61.927,54.749,62.418,54.222,62.841z"/>
	<path fill-rule="evenodd" clip-rule="evenodd" fill="#61D5F3" d="M54.222,62.841c0.269-0.451,0.106-0.951,0.16-1.427
		c0.423,0.069,0.536,0.386,0.513,0.737C54.868,62.542,54.669,62.828,54.222,62.841z"/>
	<path fill-rule="evenodd" clip-rule="evenodd" fill="#FD989F" d="M43.747,39.715c-1.322,0.01-2.646,0.016-3.969,0.033
		c-0.382,0.005-0.581-0.135-0.577-0.542c0.019-2.247-0.247-1.837,1.672-1.862c0.959-0.013,1.918,0.024,2.876,0.039
		C44.12,38.161,44.127,38.938,43.747,39.715z"/>
	<path fill-rule="evenodd" clip-rule="evenodd" fill="#FC7F86" d="M43.747,39.715c0.001-0.777,0.002-1.555,0.002-2.332
		c0.129-0.014,0.257-0.042,0.385-0.04c1.931,0.02,1.628-0.244,1.67,1.708c0.011,0.484-0.138,0.734-0.661,0.698
		C44.679,39.718,44.213,39.726,43.747,39.715z"/>
</g>
</svg>
