<?xml version="1.0" encoding="utf-8"?>
<!-- Generator: Adobe Illustrator 16.0.0, SVG Export Plug-In . SVG Version: 6.00 Build 0)  -->
<!DOCTYPE svg PUBLIC "-//W3C//DTD SVG 1.1//EN" "http://www.w3.org/Graphics/SVG/1.1/DTD/svg11.dtd">
<svg version="1.1" id="Layer_1" xmlns="http://www.w3.org/2000/svg" xmlns:xlink="http://www.w3.org/1999/xlink" x="0px" y="0px"
	 width="85px" height="85px" viewBox="0 0 85 85" enable-background="new 0 0 85 85" xml:space="preserve">
<g>
	<path fill-rule="evenodd" clip-rule="evenodd" d="M8.887,19.976c-0.786-3.15-1.631-6.287-2.333-9.455
		c-0.427-1.926,1.37-4.318,3.499-4.908c0.141-0.039,0.284-0.07,0.427-0.104c1.503-0.358,1.822-0.184,2.351,1.24
		c0.942,2.541,1.898,5.075,2.831,7.619c0.14,0.382,0.282,0.488,0.663,0.274c0.595-0.334,1.213-0.63,1.83-0.926
		c0.92-0.442,1.087-1.243,0.398-2.012c-0.636-0.71-1.267-1.426-1.931-2.11c-0.28-0.288-0.283-0.486-0.034-0.794
		c0.395-0.49,1.05-1.045,1.015-1.531c-0.036-0.492-0.747-0.966-1.215-1.388c-0.394-0.355-0.487-0.605-0.01-0.956
		c0.484-0.355,0.821-1.163,1.347-1.115c0.45,0.041,0.863,0.726,1.247,1.166c0.303,0.348,0.638,0.448,1.089,0.448
		c15.065-0.011,30.131-0.009,45.197-0.009c1.649,0,3.187-0.413,4.613-1.245c0.886-0.517,1.789-1.004,2.665-1.538
		c0.376-0.229,0.525-0.166,0.665,0.245c0.558,1.634,1.229,3.227,1.837,4.841c0.935,2.485,1.066,5.013,1.064,7.597
		c-0.009,11.984-0.004,23.968-0.003,35.952c0,1.964,0.412,3.886,0.643,5.824c0.427,3.59,0.93,7.171,1.403,10.755
		c0.179,1.355,0.35,2.713,0.552,4.065c0.066,0.448,0.018,0.719-0.521,0.631c-0.023-0.004-0.049-0.002-0.073,0
		c-0.649,0.053-1.537-0.292-1.886,0.147c-0.327,0.412-0.115,1.261-0.116,1.918c-0.007,2.372-0.035,4.745,0.018,7.116
		c0.016,0.694-0.221,0.777-0.824,0.776c-8.657-0.019-17.315-0.013-25.974-0.013c-11.69,0-23.38,0-35.071-0.001
		c-2.905,0-4.77-1.678-5.267-4.555c-0.283-1.636-1.011-3.158-1.517-4.738c-0.294-0.919-0.525-1.869-1.057-2.698
		c-0.051-0.08-0.136-0.179-0.123-0.254c0.502-2.781,0.215-5.595,0.305-8.391c0.249-7.724,0.601-15.441,1.092-23.152
		c0.33-5.171,0.702-10.34,1.061-15.51c0.02-0.291,0.09-0.577,0.137-0.866C9.357,21.542,8.935,20.758,8.887,19.976z"/>
	<path fill-rule="evenodd" clip-rule="evenodd" fill="#292929" d="M8.887,19.976c0.133,0.571,0.489,1.094,0.413,1.707
		c-0.032,0.258-0.141,0.519-0.42,0.64C8.881,21.54,8.884,20.758,8.887,19.976z"/>
	<path fill-rule="evenodd" clip-rule="evenodd" fill="#81512E" d="M54.942,55.48c-0.832,1.161-0.964,2.487-0.858,3.849
		c0.045,0.584-0.121,0.747-0.711,0.746c-12.08-0.016-24.161-0.016-36.241,0c-0.57,0.001-0.758-0.147-0.751-0.736
		c0.02-1.674-0.005-1.704,1.704-1.666c0.648,0.014,0.834-0.17,0.819-0.82c-0.042-1.677-0.01-1.708-1.695-1.674
		c-0.653,0.014-0.856-0.19-0.826-0.834c0.048-1.024,0.061-2.057-0.003-3.08c-0.046-0.723,0.204-1.104,0.872-1.379
		c0.877-0.358,0.856-0.408,0.418-1.264c-0.156-0.304-0.31-0.608-0.47-0.911c-0.057-0.106-0.128-0.298-0.19-0.297
		c-0.989,0.022-0.544-0.723-0.6-1.156c-0.061-0.481,0.03-0.981-0.024-1.464c-0.083-0.737,0.232-0.939,0.918-0.882
		c0.923,0.077,1.853,0.071,2.762,0.279c1.498,0.343,2.507,1.235,3.062,2.674c0.441,1.144,0.672,2.345,1.019,3.515
		c0.271,0.916,0.611,1.8,1.04,2.657c0.826,1.651,2.296,2.613,3.755,3.594c0.222,0.149,0.439,0.157,0.53-0.116
		c0.182-0.548,0.599-0.942,0.875-1.428c0.157-0.276,0.127-0.469-0.15-0.597c-2.551-1.179-3.377-3.499-3.986-5.977
		c-0.368-1.495-0.759-2.988-1.673-4.272c-1.28-1.799-3.145-2.474-5.233-2.688c-0.776-0.079-1.559-0.112-2.339-0.112
		c-0.463,0-0.589-0.182-0.577-0.611c0.023-0.806,0.027-1.615,0-2.42c-0.017-0.499,0.149-0.751,0.67-0.676
		c0.541,0.077,0.688-0.19,0.639-0.678c-0.027-0.267-0.027-0.54,0-0.806c0.067-0.663,0.01-1.185-0.884-1.026
		c-0.264,0.047-0.405-0.125-0.412-0.393c-0.003-0.146-0.006-0.293-0.006-0.44c-0.005-5.502-0.005-11.004-0.027-16.506
		c-0.002-0.454,0.188-0.671,0.556-0.83c0.448-0.194,0.908-0.369,1.331-0.607c0.486-0.274,0.652-0.228,0.646,0.382
		c-0.024,2.812-0.011,5.624-0.011,8.437c0,0.636,0.02,1.272-0.006,1.907c-0.018,0.433,0.117,0.592,0.576,0.605
		c1.923,0.055,1.923,0.07,1.923-1.822c0-4.548-0.013-9.097,0.013-13.645c0.004-0.77-0.054-1.446-0.71-1.957
		c-0.208-0.162-0.387-0.38-0.529-0.604c-0.187-0.294-0.758-0.433-0.449-0.944c0.285-0.471,0.518-0.927,1.255-0.915
		c3.081,0.05,6.162,0.026,9.243,0.027c10.54,0,21.08,0,31.62,0c0.755,0,1.511,0.027,2.263-0.011
		c0.456-0.023,0.712,0.163,0.947,0.526c0.891,1.374,1.793,2.741,2.72,4.091c0.562,0.818,0.614,0.827,1.41,0.228
		c1.327-0.997,1.257-0.646,0.365-2.039c-0.554-0.864-1.126-1.717-1.708-2.562c-0.215-0.311-0.271-0.481,0.191-0.58
		c1.157-0.248,2.215-0.755,3.245-1.326c0.216-0.12,0.458-0.358,0.64,0.072c0.879,2.078,1.605,4.194,1.671,6.481
		c-0.081,0.288-0.039,0.582-0.039,0.873c-0.003,10.005-0.002,20.011-0.003,30.017c0,0.389,0.097,0.82-0.397,1.02
		c-2.274-0.066-4.176,0.803-5.794,2.346c-0.318,0.304-0.599,0.205-0.933,0.099c-1.124-0.358-2.265-0.584-3.442-0.285
		c-1.813,0.461-2.894,1.708-3.574,3.37c-0.288,0.702-0.452,1.44-0.568,2.186c-0.053,0.339-0.198,0.482-0.526,0.589
		c-1.198,0.388-2.291,0.957-3.034,2.035C55.165,55.201,55.074,55.355,54.942,55.48z"/>
	<path fill-rule="evenodd" clip-rule="evenodd" fill="#F0E49B" d="M24.007,65.045c-0.28,0.799-0.028,1.628-0.137,2.437
		c0.03,0.103-0.006,0.17-0.108,0.202c-0.56-0.123-0.287-0.772-0.667-1.091c0.407,1.407,0.972,1.887,2.362,1.884
		c14.424-0.034,28.848-0.022,43.272-0.018c0.784,0,1.564,0.027,2.265-0.411c0.833,0.283,1.082,1.06,0.592,1.842
		c-0.342,0.151-0.729-0.062-1.065,0.132c-0.048,0.003-0.096,0.006-0.145,0.009c-0.137-0.154-0.175-0.327-0.104-0.521
		c0.121-0.219,0.344-0.206,0.548-0.236c-0.141,0.023-0.285,0.003-0.423,0.049c-0.356-0.146-0.723-0.036-1.087-0.038
		c-16.648,0.016-33.293-0.031-49.938,0.027c-0.15,0-0.267,0.114-0.369,0.161c0.327-0.252,0.743-0.186,1.143-0.186
		c9.19-0.003,18.381-0.002,27.572-0.002c6.893,0,13.785-0.001,20.678,0.002c0.34,0,0.685-0.047,1.02,0.061
		c0.258,0.372,0.062,0.521-0.291,0.594c-16.418,0.005-32.836,0-49.254,0.007c-0.284,0-0.586-0.094-0.854,0.089
		c-0.211,0.719-0.052,1.454-0.098,2.181c-0.017,0.264,0.14,0.333,0.371,0.324c0.195-0.006,0.391,0,0.586,0
		c15.911,0,31.821-0.001,47.731,0.006c0.325,0,0.677-0.117,0.98,0.111c-0.278,0.142-0.577,0.068-0.865,0.068
		c-15.967,0.005-31.934,0.004-47.9,0.004c-0.229,0-0.457-0.002-0.682,0.033c-0.09,0.061,0.042,0.186-0.006,0.101
		c-0.021-0.038-0.007-0.051,0.024-0.071c0.199-0.126,0.417-0.055,0.623-0.055c16.04-0.005,32.081-0.005,48.12-0.001
		c0.24,0,0.49-0.063,0.719,0.07c0.006,0.585-0.012,1.171,0.024,1.755c0.025,0.412-0.157,0.512-0.516,0.471
		c-0.12-0.014-0.244-0.002-0.366-0.002c-16.838,0-33.676-0.003-50.515,0.014c-0.639,0-0.869-0.117-0.86-0.824
		c0.041-3.616,0.016-7.233,0.025-10.851c0-0.227-0.118-0.487,0.107-0.685c15.425-0.008,30.851-0.01,46.276,0
		c1.663,0.001,3.325,0.01,4.987-0.013c0.539-0.007,0.782,0.119,0.771,0.735c-0.027,1.544,0.004,1.545-1.521,1.545
		c-14.056,0-28.113-0.001-42.169,0.005C24.579,64.958,24.276,64.864,24.007,65.045z"/>
	<path fill-rule="evenodd" clip-rule="evenodd" fill="#81512E" d="M13.889,17.931c0.005,5.546,0.005,11.091,0.024,16.637
		c0.002,0.497-0.127,0.741-0.653,0.666c-0.461-0.067-0.605,0.158-0.571,0.592c0.026,0.34,0.029,0.686,0,1.025
		c-0.051,0.597,0.042,1.017,0.8,0.889c0.318-0.054,0.418,0.158,0.417,0.45c-0.006,0.928-0.015,1.857,0.002,2.785
		c0.009,0.5-0.319,0.481-0.64,0.452c-0.459-0.042-0.612,0.16-0.578,0.596c0.025,0.315,0.027,0.637,0,0.952
		c-0.052,0.602-0.01,1.085,0.808,0.956c0.323-0.051,0.409,0.169,0.408,0.458c-0.005,1.343-0.013,2.687,0.004,4.03
		c0.007,0.55-0.458,0.58-0.774,0.75c-0.861,0.464-0.869,0.449-0.439,1.303c0.187,0.371,0.295,0.97,0.578,1.067
		c0.817,0.285,0.621,0.877,0.627,1.431c0.008,0.635,0.009,1.271-0.014,1.905c-0.011,0.313-0.284,0.313-0.496,0.282
		c-0.631-0.092-0.754,0.235-0.703,0.767c0.028,0.291,0.032,0.589,0,0.879c-0.067,0.598,0.086,0.955,0.78,0.861
		c0.306-0.042,0.451,0.122,0.435,0.431c-0.005,0.097,0.002,0.195,0,0.293c-0.012,0.512,0.11,1.078-0.072,1.52
		c-0.208,0.506-0.875,0.241-1.326,0.397c-1.458,0.507-2.506,1.442-3.191,2.81c-0.163,0.015-0.208-0.087-0.203-0.22
		c0.026-0.812-0.08-1.629,0.056-2.438c0.017-3.71,0.216-7.413,0.418-11.115c0.108-1.974,0.207-3.946,0.307-5.92
		c0.229-4.53,0.521-9.056,0.868-13.578c0.204-2.65,0.221-5.33,0.66-7.939c0.239-1.423-0.347-2.57-0.466-3.852
		c0.258-1.399,0.825-2.695,1.359-4.001c0.074-0.181,0.183-0.348,0.4-0.394c0.408,0.972,0.892,1.915,1.159,2.942
		C13.767,17.044,13.743,17.488,13.889,17.931z"/>
	<path fill-rule="evenodd" clip-rule="evenodd" fill="#7B7B7B" d="M73.456,60.043c-2.615,0.01-5.229,0.013-7.844,0.038
		c-0.488,0.005-0.459-0.191-0.299-0.522c0.618-1.275,1.661-1.858,3.051-1.913c1.55-0.062,1.496-0.073,1.568-1.609
		c0.039-0.807-0.272-0.904-0.962-0.898c-3.425,0.031-5.185,1.254-6.293,4.48c-0.113,0.329-0.253,0.468-0.611,0.464
		c-1.612-0.017-3.225-0.024-4.836,0.003c-0.498,0.008-0.614-0.219-0.663-0.647c-0.27-2.327,0.805-3.794,3.131-4.237
		c1.328-0.254,1.315-0.255,1.477-1.578c0.112-0.921,0.24-1.84,0.632-2.699c0.631-1.388,1.575-1.892,3.062-1.609
		c0.852,0.161,1.632,0.517,2.377,0.935c0.436,0.244,0.668,0.188,0.931-0.236c0.657-1.062,1.546-1.896,2.699-2.399
		c0.87-0.379,1.774-0.605,2.712-0.188c-0.11,0.258-0.056,0.529-0.057,0.794c-0.004,3.679-0.001,7.357-0.006,11.036
		C73.524,59.517,73.592,59.79,73.456,60.043z"/>
	<path fill-rule="evenodd" clip-rule="evenodd" fill="#81512C" d="M16.506,77.646c0.301-0.252,0.658-0.124,0.985-0.124
		c17.548-0.008,35.097-0.007,52.646-0.007c0.98,0,0.98-0.001,0.98-0.987c0.001-1.125,0.02-2.25-0.009-3.374
		c-0.012-0.46,0.097-0.691,0.602-0.626c0.616,0.08,1.255-0.141,1.859,0.131c-0.399,0.355-0.889,0.222-1.332,0.195
		c-0.6-0.035-0.766,0.225-0.757,0.768c0.019,1.093,0.001,2.187,0.047,3.281c0.127-0.759,0.053-1.527,0.096-2.29
		s0.41-1.152,1.107-1.197c0.467-0.029,0.779,0.185,0.786,0.657c0.025,1.705,0.017,3.411,0.005,5.117
		c-0.002,0.31-0.24,0.523-0.367,0.783C72.911,79.982,72.667,80,72.423,80c-18.196,0.002-36.392,0.001-54.588,0
		c-0.244,0-0.488-0.019-0.731-0.029c-0.115-0.156-0.498-0.09-0.391-0.407c0.059-0.174,0.292-0.185,0.455-0.136
		c1.322,0.394,2.674,0.12,4.01,0.191c0.78,0.042,1.563-0.035,2.298,0.042c-1.285-0.541-2.651-0.897-4.113-0.745
		c-0.414,0.043-0.832,0.012-1.246-0.024c-0.299-0.025-0.763,0.029-0.738-0.387c0.024-0.39,0.482-0.329,0.788-0.335
		c0.831-0.016,1.663-0.006,2.494-0.005c0.146,0,0.292-0.016,0.377,0.002c-0.896-0.018-1.853-0.005-2.809-0.007
		C17.602,78.159,17.034,77.974,16.506,77.646z"/>
	<path fill-rule="evenodd" clip-rule="evenodd" fill="#7B7B7B" d="M13.919,71.325c0,2.64,0.001,5.278-0.001,7.917
		c0,0.812-0.128,0.899-0.883,0.584c-0.739-0.309-1.331-0.83-1.464-1.622c-0.363-2.161-1.202-4.173-1.929-6.212
		c-0.459-1.286-0.467-2.352,0.236-3.561c0.751-1.292,1.512-2.604,1.75-4.153c0.128-0.841,0.832-1.345,1.664-1.589
		c0.455-0.134,0.644-0.034,0.639,0.5C13.906,65.901,13.919,68.613,13.919,71.325z"/>
	<path fill-rule="evenodd" clip-rule="evenodd" fill="#F0E49B" d="M71.098,67.5c0.008-1.416,0.033-2.833,0.012-4.249
		c-0.007-0.483,0.087-0.706,0.632-0.68c0.902,0.043,1.808,0.026,2.711,0.005c0.396-0.009,0.562,0.125,0.61,0.528
		c0.258,2.157,0.528,4.312,0.822,6.464c0.058,0.419-0.076,0.514-0.452,0.497c-0.657-0.028-1.316-0.028-1.975-0.04
		c-0.194-0.178-0.236-0.425-0.287-0.661c-0.121-0.573-0.453-1.016-0.832-1.441c-0.363-0.407-0.751-0.573-1.246-0.239
		C71.048,67.621,71.052,67.56,71.098,67.5z"/>
	<path fill-rule="evenodd" clip-rule="evenodd" fill="#ED6076" d="M12.714,13.656c-0.558,1.194-1.003,2.431-1.417,3.68
		c-0.083,0.25-0.121,0.528-0.341,0.714c-0.641-2.527-1.296-5.05-1.915-7.583c-0.203-0.833,0.444-1.921,1.248-2.283
		c0.219-0.099,0.371-0.119,0.463,0.129C11.408,10.094,12.061,11.875,12.714,13.656z"/>
	<path fill-rule="evenodd" clip-rule="evenodd" fill="#F0E3A5" d="M24.007,65.045c0.256-0.291,0.598-0.157,0.897-0.157
		c14.18-0.007,28.359-0.005,42.539-0.017c0.33,0,0.843,0.229,0.969-0.223c0.147-0.528,0.142-1.125-0.016-1.665
		c-0.076-0.263-0.432-0.152-0.664-0.153c-2.001-0.006-4.002-0.003-6.003-0.003c-14.766,0-29.532,0.001-44.298-0.006
		c-0.304,0-0.639,0.117-0.911-0.136l0.003-0.003c0.253-0.141,0.528-0.07,0.791-0.07c16.82-0.005,33.64-0.005,50.46-0.001
		c0.264,0,0.538-0.066,0.792,0.068c0.153,0.675,0.024,1.36,0.071,2.038c0.027,0.384-0.219,0.361-0.474,0.36
		c-0.905-0.003-1.81-0.001-2.715-0.001c-13.57,0-27.14,0-40.711-0.002C24.495,65.075,24.251,65.056,24.007,65.045z"/>
	<path fill-rule="evenodd" clip-rule="evenodd" fill="#81512E" d="M16.506,77.646c1.613,0.423,3.26,0.275,4.898,0.299
		c0.197,0.003,0.459,0.013,0.45,0.253c-0.011,0.281-0.3,0.178-0.472,0.18c-1.073,0.011-2.146-0.002-3.219,0.011
		c-0.22,0.003-0.479-0.104-0.712,0.18c0.539,0.204,1.072,0.117,1.576,0.143c0.841,0.044,1.687-0.013,2.53-0.033
		c0.208-0.005,0.377,0.062,0.526,0.208c0.254,0.247,0.557,0.429,0.917,0.37c0.47-0.076,0.684,0.271,1.091,0.624
		c-2.51-0.172-4.91,0.244-7.297-0.274c0.084,0.144,0.331,0.145,0.31,0.366c-0.531,0.129-0.778-0.057-0.709-0.622
		C16.462,78.784,16.265,78.2,16.506,77.646z"/>
	<path fill-rule="evenodd" clip-rule="evenodd" fill="#F0E49B" d="M68.566,62.68c-17.348,0.001-34.695,0.002-52.043,0.003
		c0.21-0.192,0.466-0.095,0.698-0.095c16.882-0.005,33.764-0.005,50.646,0.001C68.1,62.589,68.355,62.49,68.566,62.68z"/>
	<path fill-rule="evenodd" clip-rule="evenodd" fill="#F0E49B" d="M19.017,70.036c0.229-0.28,0.546-0.16,0.823-0.16
		c16.454-0.006,32.907-0.005,49.361-0.005c0.051,0.035,0.067,0.069,0.05,0.104s-0.034,0.051-0.052,0.051
		c-0.194,0.012-0.39,0.034-0.584,0.034c-16.361,0.002-32.724,0.002-49.086,0.001C19.358,70.061,19.188,70.045,19.017,70.036z"/>
	<path fill-rule="evenodd" clip-rule="evenodd" fill="#F0E2A2" d="M68.62,72.808c-16.527,0-33.055,0-49.583,0c0-0.05,0-0.1,0-0.149
		c16.517,0,33.034,0,49.551,0c0.016,0.031,0.035,0.062,0.045,0.095C68.638,72.768,68.625,72.789,68.62,72.808z"/>
	<path fill-rule="evenodd" clip-rule="evenodd" fill="#F0E49B" d="M71.098,67.5c0.004,0.053,0.007,0.106,0.01,0.159
		c-0.222,0.256-0.527,0.201-0.812,0.221c-15.221,0-30.441,0.005-45.662,0c-0.233-0.009-0.471,0.006-0.685-0.117
		c-0.033-0.033-0.065-0.066-0.098-0.1c0.006-0.061,0.013-0.121,0.02-0.182c0.291,0.022,0.581,0.064,0.872,0.064
		c14.451,0.003,28.901,0.004,43.351,0.001C69.095,67.546,70.097,67.517,71.098,67.5z"/>
	<path fill-rule="evenodd" clip-rule="evenodd" fill="#81512E" d="M73.154,79.973c-0.152-0.14-0.314-0.349-0.064-0.463
		c0.458-0.209,0.364-0.575,0.365-0.927c0.003-1.369-0.004-2.738,0.004-4.107c0.002-0.453-0.086-0.906-0.616-0.876
		c-0.489,0.027-1.045,0.135-1.008,0.884c0.035,0.707-0.006,1.418,0.012,2.126c0.011,0.399-0.076,0.723-0.592,0.983
		c0-0.525,0-0.989,0-1.454c0-0.953,0.021-1.907-0.009-2.86c-0.015-0.484,0.16-0.653,0.637-0.627
		c0.561,0.031,1.124,0.008,1.687,0.007c0.015,2.293,0.026,4.585,0.046,6.878C73.619,79.868,73.531,80.062,73.154,79.973z"/>
	<path fill-rule="evenodd" clip-rule="evenodd" fill="#7C5438" d="M73.13,44.709c-0.131-0.047-0.264-0.093-0.4-0.142
		c0.726-0.144,0.727-0.144,0.727-0.983c0-9.978-0.001-19.956,0.005-29.934c0-0.284-0.094-0.589,0.108-0.851
		c0.015,0.366,0.042,0.731,0.042,1.097c0.002,10.021,0.005,20.041-0.012,30.062C73.599,44.242,73.902,44.851,73.13,44.709z"/>
	<path fill-rule="evenodd" clip-rule="evenodd" fill="#F1E6A8" d="M70.377,67.688c0.244-0.01,0.487-0.02,0.73-0.029
		c0.168-0.741,0.604-0.5,0.969-0.222c0.847,0.646,1.368,1.486,1.382,2.588c-0.638,0.101-1.274,0.094-1.911,0.005
		c-0.082-0.054-0.082-0.106,0.001-0.159c0.277-0.693,0.039-1.257-0.439-1.762c-0.27-0.006-0.516-0.082-0.733-0.245
		C70.333,67.806,70.334,67.746,70.377,67.688z"/>
	<path fill-rule="evenodd" clip-rule="evenodd" fill="#7F7F7F" d="M73.456,60.043c0-3.926-0.002-7.852,0.005-11.778
		c0-0.281-0.101-0.589,0.126-0.841c0.01,4.086,0.02,8.171,0.026,12.257C73.614,59.818,73.642,59.98,73.456,60.043z"/>
	<path fill-rule="evenodd" clip-rule="evenodd" fill="#F1E6A7" d="M69.199,70.025c0.001-0.052,0.001-0.103,0.002-0.154
		c0.098-0.146,0.195-0.294,0.293-0.44c-0.015-0.13,0.062-0.214,0.147-0.293c0.318-0.321,0.558-0.249,0.732,0.146
		c0.038,0.032,0.051,0.064,0.038,0.098c-0.013,0.032-0.024,0.049-0.037,0.049c0,0.2,0.001,0.399,0.001,0.6
		C69.983,70.119,69.591,70.124,69.199,70.025z"/>
	<path fill-rule="evenodd" clip-rule="evenodd" fill="#714A30" d="M9.168,60.455c0.114,0.882-0.163,1.787,0.147,2.658
		c-0.003,0.144,0.008,0.294-0.273,0.357C9.093,62.45,8.937,61.45,9.168,60.455z"/>
	<path fill-rule="evenodd" clip-rule="evenodd" fill="#855B3E" d="M13.889,17.931c-0.259-0.441-0.242-0.885-0.016-1.333
		C13.879,17.042,13.884,17.487,13.889,17.931z"/>
	<path fill-rule="evenodd" clip-rule="evenodd" fill="#F0E49B" d="M71.548,69.871c-0.001,0.053-0.001,0.106-0.001,0.159
		c-0.343-0.003-0.685-0.006-1.026-0.009C70.828,69.736,71.206,69.927,71.548,69.871z"/>
	<path fill-rule="evenodd" clip-rule="evenodd" fill="#0E0C0A" d="M54.942,55.48c0.034-0.195,0.152-0.331,0.315-0.433
		C55.431,55.395,55.118,55.388,54.942,55.48z"/>
	<path fill-rule="evenodd" clip-rule="evenodd" fill="#0A0A0A" d="M7.937,63.007c0.053,0.065,0.129,0.125,0.158,0.202
		c0.03,0.08-0.039,0.136-0.111,0.082c-0.07-0.051-0.115-0.137-0.171-0.208C7.845,63.063,7.878,63.043,7.937,63.007z"/>
	<path fill-rule="evenodd" clip-rule="evenodd" d="M27.676,27.46c-0.012-3.446-0.02-6.893-0.044-10.338
		c-0.003-0.437,0.189-0.519,0.575-0.532c1.666-0.058,1.857-0.241,1.917-1.937c0.018-0.485,0.228-0.555,0.632-0.551
		c1.564,0.014,3.129,0.005,4.694,0.005c7.872,0,15.744,0.009,23.616-0.016c0.698-0.002,0.931,0.166,0.897,0.885
		c-0.055,1.188,0.42,1.648,1.619,1.607c0.643-0.021,0.879,0.121,0.875,0.832c-0.033,5.108-0.024,10.218-0.008,15.327
		c0.001,0.6-0.078,0.823-0.699,0.462c-0.676-0.391-1.394-0.708-2.093-1.059c-1.083-0.544-2.171-0.384-3.022,0.5
		c-1.05,1.091-2.072,2.209-3.1,3.322c-0.256,0.276-0.502,0.488-0.927,0.486c-5.231-0.016-10.463-0.014-15.695-0.019
		c-0.097,0-0.194-0.018-0.292-0.027c-0.845-0.478-1.419-1.251-2.082-1.926c-0.176-0.18-0.29-0.427,0.076-0.574
		c0.384-0.113,0.777-0.078,1.167-0.079c4.938-0.002,9.877-0.015,14.815,0.012c0.815,0.004,1.431-0.181,1.978-0.838
		c0.7-0.843,1.544-1.564,2.255-2.406c0.322-0.381,0.737-0.643,1.193-0.832c0.678-0.281,1.361-0.546,2.039-0.826
		c0.298-0.123,0.616-0.225,0.928-0.105c0.667,0.257,0.734-0.103,0.732-0.632c-0.009-2.787-0.01-5.574,0.001-8.361
		c0.002-0.51-0.135-0.891-0.603-1.153c-0.565-0.317-0.992-0.792-1.321-1.347c-0.209-0.351-0.507-0.51-0.909-0.502
		c-0.195,0.004-0.392-0.004-0.587-0.004c-7.506,0-15.011,0.009-22.517-0.013c-0.801-0.002-1.403,0.131-1.803,0.915
		c-0.319,0.624-1.004,0.91-1.545,1.321c-0.261,0.255-0.212,0.584-0.212,0.899c-0.002,2.836-0.001,5.672-0.001,8.508
		c0,0.245,0.018,0.491-0.018,0.733c-0.075,0.51-0.311,0.642-0.667,0.308C28.869,28.875,28.114,28.309,27.676,27.46z"/>
	<path fill-rule="evenodd" clip-rule="evenodd" d="M36.334,36.424c-1.88,0.007-3.76,0.003-5.64,0.031
		c-0.475,0.007-0.556-0.203-0.565-0.616c-0.035-1.515-0.311-1.784-1.816-1.796c-0.417-0.004-0.694-0.034-0.683-0.576
		c0.038-1.855,0.035-3.71,0.048-5.566c0.312-0.207,0.435,0.095,0.591,0.242c0.548,0.515,1.044,1.086,1.614,1.577
		c0.326,0.28,0.307,0.629,0.337,0.99c0.026,0.323-0.126,0.694,0.229,0.936c0.703,0.317,1.282,0.822,1.66,1.459
		c0.362,0.611,0.797,0.847,1.466,0.767c0.166-0.02,0.336,0.012,0.497,0.072c0.695,0.677,1.376,1.37,2.061,2.06
		C36.242,36.114,36.42,36.21,36.334,36.424z"/>
	<path fill-rule="evenodd" clip-rule="evenodd" fill="#010100" d="M51.403,43.083c0.307,0.095,0.479,0.342,0.685,0.544
		c1.113,1.101,1.113,1.104,0.025,2.179c-0.769,0.761-0.581,0.779-1.371-0.005c-1.075-1.067-1.078-1.07,0.018-2.155
		C50.963,43.445,51.123,43.19,51.403,43.083z"/>
	<path fill-rule="evenodd" clip-rule="evenodd" fill="#010000" d="M66.299,40.588c0.259,0.063,0.377,0.261,0.528,0.411
		c1.291,1.276,1.274,1.262,0.004,2.565c-0.369,0.379-0.57,0.421-0.965,0.017c-1.297-1.328-1.315-1.31,0.018-2.614
		C66.021,40.833,66.167,40.708,66.299,40.588z"/>
	<path fill-rule="evenodd" clip-rule="evenodd" fill="#020101" d="M50.105,55.164c0.171-0.001,0.343,0.017,0.511-0.004
		c0.516-0.064,0.682,0.155,0.663,0.663c-0.078,2.187,0.415,1.786-1.919,1.837c-0.441,0.01-0.625-0.178-0.586-0.613
		c0.017-0.193-0.001-0.39,0.002-0.584C48.801,54.952,48.567,55.189,50.105,55.164z"/>
	<path fill-rule="evenodd" clip-rule="evenodd" fill="#010000" d="M56.171,50.143c-0.001,1.254-0.001,1.254-1.291,1.254
		c-0.219,0-0.438-0.012-0.656,0.001c-0.345,0.02-0.491-0.136-0.468-0.475c0.01-0.146,0-0.292,0-0.438
		c-0.003-1.596-0.002-1.563,1.62-1.603c0.655-0.016,0.896,0.188,0.798,0.822C56.151,49.848,56.171,49.997,56.171,50.143z"/>
	<path fill-rule="evenodd" clip-rule="evenodd" fill="#0A0909" d="M30.312,31.862c-0.407-0.062-0.333-0.394-0.295-0.627
		c0.15-0.918-0.208-1.593-0.92-2.131c-0.496-0.374-0.772-1.008-1.42-1.203c0-0.147,0-0.293,0-0.44c0.736,0.7,1.473,1.4,2.331,2.214
		c0-0.368,0-0.598,0-0.828c0-3.075-0.003-6.149,0.006-9.224c0.001-0.274-0.127-0.594,0.166-0.816
		c0.253,0.282,0.234,0.633,0.235,0.973c0.01,3.813-0.005,7.626,0.009,11.439C30.424,31.441,30.424,31.661,30.312,31.862z"/>
	<path fill-rule="evenodd" clip-rule="evenodd" fill="#0A0A0A" d="M36.334,36.424c-0.736-0.786-1.471-1.573-2.207-2.359
		c0.097-0.079,0.195-0.08,0.293-0.002c0.734,0.782,1.468,1.564,2.202,2.346C36.526,36.414,36.43,36.419,36.334,36.424z"/>
	<path fill-rule="evenodd" clip-rule="evenodd" fill="#F0E49B" d="M70.375,67.816c0.287-0.009,0.542,0.062,0.733,0.293
		c-0.491,0.626-1.173,0.595-1.877,0.595c-14.797-0.01-29.594-0.008-44.391-0.008c-0.8,0-1.578-0.574-1.701-1.378
		c-0.083-0.545-0.264-0.37-0.516-0.154c-0.183-0.315,0.11-0.456,0.204-0.66c0.103-0.224,0.285-0.346,0.534-0.27
		c0.282,0.086,0.272,0.407,0.231,0.554c-0.104,0.375-0.097,0.66,0.257,0.875l0.01,0.011c0.294,0.188,0.616,0.018,0.922,0.071
		c14.327-0.001,28.652-0.006,42.976,0.013C68.629,67.76,69.507,67.645,70.375,67.816z"/>
	<path fill-rule="evenodd" clip-rule="evenodd" fill="#F0E49B" d="M69.642,69.138c-0.005,0.12-0.032,0.229-0.147,0.293
		c-16.431,0-32.862,0.003-49.293-0.011c-0.667,0-1.213,0.199-1.76,0.651c0.061-0.638,0.404-0.894,0.954-0.931
		c0.17-0.012,0.342-0.004,0.513-0.004C36.486,69.137,53.063,69.138,69.642,69.138z"/>
	<path fill-rule="evenodd" clip-rule="evenodd" fill="#F1E7A7" d="M21.033,64.709c0.446,0.079,0.783-0.133,0.896,0.29
		c0.035,0.13,0.058,0.36-0.094,0.372C21.477,65.401,21.355,65.073,21.033,64.709z"/>
	<path fill-rule="evenodd" clip-rule="evenodd" fill="#F0E49B" d="M70.375,69.431c-0.001-0.049-0.001-0.098-0.001-0.146
		c0.352-0.251,0.711-0.166,1.238-0.03C71.12,69.521,70.734,69.392,70.375,69.431z"/>
	<path fill-rule="evenodd" clip-rule="evenodd" fill="#81512E" d="M72.788,79.786c-0.347,0.01-0.311-0.508-0.539-0.218
		c-0.316,0.4-0.705,0.275-1.071,0.276c-14.867,0.006-29.734-0.007-44.601,0.04c-0.784,0.003-1.039-0.565-1.569-0.809
		c-0.101-0.047-0.082-0.173-0.016-0.255c0.103-0.127,0.245-0.115,0.398-0.116c1.142-0.002,2.285-0.026,3.427-0.027
		c3.762-0.005,7.523-0.01,11.286,0c3.304,0.009,6.608,0.051,9.912,0.053c2.578,0.002,5.157-0.046,7.735-0.052
		c3.962-0.01,7.925-0.01,11.887,0.004c0.635,0.003,1.17-0.43,1.832-0.333c0.217,0.032,0.153-0.358,0.242-0.546
		c0.056-0.117,0.118-0.227,0.246-0.245c0.134-0.021,0.292,0.086,0.269,0.188C72.054,78.488,72.574,79.063,72.788,79.786z"/>
	<path fill-rule="evenodd" clip-rule="evenodd" fill="#81512E" d="M46.967,78.383c-7.433,0-14.867,0.002-22.301-0.01
		c-0.298-0.001-0.833,0.199-0.829-0.271c0.003-0.308,0.539-0.151,0.83-0.151c14.843-0.009,29.685-0.01,44.528,0.003
		c0.319,0,0.896-0.215,0.897,0.271c0.001,0.323-0.585,0.148-0.898,0.149C61.785,78.385,54.376,78.383,46.967,78.383z"/>
	<path fill-rule="evenodd" clip-rule="evenodd" fill="#81512E" d="M70.499,77.889c0.066-0.188,0.206-0.255,0.392-0.218
		c0.133,0.026,0.214,0.114,0.17,0.255c-0.056,0.175-0.217,0.156-0.355,0.157C70.582,78.084,70.462,78.066,70.499,77.889z"/>
	<path fill-rule="evenodd" clip-rule="evenodd" fill="#F2E39E" d="M70.375,67.816c-15.312,0-30.623,0-45.934,0
		c-0.05-0.028-0.066-0.057-0.049-0.084c0.017-0.027,0.033-0.041,0.051-0.041c0.219-0.007,0.439-0.02,0.659-0.02
		c14.896-0.001,29.793-0.001,44.69-0.001c0.195,0,0.39,0.011,0.585,0.018C70.376,67.73,70.375,67.773,70.375,67.816z"/>
	<path fill-rule="evenodd" clip-rule="evenodd" fill="#F0E49B" d="M24.443,67.691c-0.001,0.042-0.002,0.083-0.002,0.125
		c-0.205-0.003-0.461,0.208-0.581-0.143C24.055,67.68,24.249,67.686,24.443,67.691z"/>
	<path fill-rule="evenodd" clip-rule="evenodd" fill="#81512C" d="M72.658,73.017c-0.114,0.247-0.336,0.234-0.552,0.22
		c-0.126-0.009-0.283-0.088-0.223-0.208c0.121-0.242,0.413-0.111,0.619-0.193C72.582,72.803,72.672,72.896,72.658,73.017z"/>
	<path fill-rule="evenodd" clip-rule="evenodd" fill="#81512C" d="M73.243,73.231c-0.033-0.025-0.124-0.075-0.118-0.096
		c0.023-0.081,0.079-0.153,0.122-0.229c0.05,0.039,0.123,0.069,0.145,0.121C73.435,73.131,73.382,73.202,73.243,73.231z"/>
	<path fill-rule="evenodd" clip-rule="evenodd" fill="#F6F6F6" d="M34.42,34.063c-0.098,0.001-0.196,0.001-0.293,0.002
		c-1.102,0.121-1.972-0.121-2.491-1.256c-0.221-0.482-0.752-0.812-1.324-0.947c-0.201-0.151-0.209-0.366-0.208-0.592
		c0.003-4.035,0.002-8.07,0.006-12.105c0-0.119,0.045-0.238,0.069-0.357c0.905-0.302,1.563-0.899,1.972-1.744
		c0.176-0.363,0.377-0.476,0.777-0.475c8.066,0.013,16.132,0.012,24.198,0.003c0.35,0,0.577,0.054,0.737,0.416
		c0.338,0.763,0.915,1.327,1.676,1.67c0.321,0.145,0.402,0.341,0.4,0.671c-0.011,3.177-0.015,6.354,0.003,9.532
		c0.003,0.502-0.127,0.654-0.552,0.349c-0.459-0.33-0.865-0.187-1.359-0.04c-1.87,0.558-3.297,1.686-4.544,3.151
		c-1.522,1.791-1.559,1.72-3.893,1.706c-4.985-0.03-9.972-0.016-14.958-0.018C34.564,34.03,34.493,34.051,34.42,34.063z"/>
	<path fill-rule="evenodd" clip-rule="evenodd" d="M55.126,23.847c-0.342,0-0.688-0.031-1.025,0.006
		c-0.745,0.081-1.405-0.089-1.956-0.599c-0.414-0.384-0.764-0.324-1.205-0.002c-0.888,0.646-1.828,1.22-2.73,1.848
		c-0.283,0.198-0.484,0.205-0.774,0.003c-0.982-0.684-1.995-1.323-2.978-2.005c-0.335-0.232-0.626-0.337-0.989-0.086
		c-0.137,0.095-0.327,0.113-0.467,0.207c-1.176,0.789-2.304,0.9-3.362-0.205c-0.225-0.235-0.482-0.214-0.729-0.051
		c-1.831,1.213-3.896,0.837-5.901,0.888c-0.327,0.008-0.445-0.123-0.408-0.431c0.003-0.024,0.001-0.049,0-0.073
		c-0.081-1.954-0.073-2.065,1.885-1.92c1.671,0.124,3.042-0.546,4.449-1.202c0.463-0.216,0.825-0.229,1.176,0.123
		c0.846,0.847,1.753,0.912,2.721,0.231c0.949-0.669,1.792-0.563,2.655,0.218c0.538,0.486,1.223,0.806,1.81,1.243
		c0.367,0.273,0.641,0.288,1.025,0.012c0.893-0.641,1.836-1.211,2.732-1.846c0.349-0.247,0.625-0.325,0.96-0.013
		c1.17,1.091,2.57,1.328,4.121,1.219c1.304-0.092,1.309-0.019,1.309,1.272c0,1.163,0,1.163-1.145,1.163
		C55.908,23.847,55.518,23.847,55.126,23.847z"/>
	<path fill-rule="evenodd" clip-rule="evenodd" d="M49.044,31.296c-1.904,0.523-3.13-0.792-4.47-1.71
		c-0.646-0.444-1.129-0.506-1.818-0.114c-1.208,0.687-2.485,1.249-3.718,1.892c-0.329,0.171-0.572,0.219-0.811-0.107
		c-0.667-0.909-1.512-1.41-2.684-1.178c-0.35,0.069-0.446-0.107-0.467-0.451c-0.123-2.03-0.132-2.009,1.89-2.041
		c0.713-0.011,1.356,0.028,1.792,0.686c0.222,0.334,0.473,0.214,0.757,0.069c1.261-0.643,2.538-1.253,3.792-1.911
		c0.394-0.207,0.692-0.235,1.057,0.052c0.44,0.347,0.964,0.59,1.389,0.952c1.352,1.155,2.879,1.67,4.649,1.398
		c0.65-0.1,0.88,0.116,0.856,0.816c-0.054,1.646-0.015,1.647-1.628,1.647C49.435,31.296,49.239,31.296,49.044,31.296z"/>
</g>
</svg>
