<?xml version="1.0" encoding="utf-8"?>
<!-- Generator: Adobe Illustrator 16.0.0, SVG Export Plug-In . SVG Version: 6.00 Build 0)  -->
<!DOCTYPE svg PUBLIC "-//W3C//DTD SVG 1.1//EN" "http://www.w3.org/Graphics/SVG/1.1/DTD/svg11.dtd">
<svg version="1.1" id="Layer_1" xmlns="http://www.w3.org/2000/svg" xmlns:xlink="http://www.w3.org/1999/xlink" x="0px" y="0px"
	 width="85px" height="85px" viewBox="0 0 85 85" enable-background="new 0 0 85 85" xml:space="preserve">
<g transform="translate(1 1)">
	<path fill="#FD9808" d="M40.698,20.031c0.268-0.266,0.533-0.531,0.801-0.799c-0.533-5.334-5.066-8.4-10.667-8.4
		c-5.867,0-10.667,3.467-10.667,9.334c0,2.666,1.066,6.266,2.667,9.332h11.2C35.366,24.832,38.032,22.566,40.698,20.031"/>
	<path fill="#DB4D6C" d="M43.767,29.5c2-5.201,4.666-13.469,3.199-20.4c0,0-2.135,6.932-6.268,10.799
		c-2.666,2.535-5.332,4.936-6.799,9.467h9.867V29.5L43.767,29.5z"/>
	<path fill="#1CD759" d="M59.099,29.5c7.467-8.668,10.934-17.201,8-20.268c-2.934-2.934-11.332,0.4-20,7.732
		c-0.533,4.668-2.133,9.201-3.332,12.533h15.332V29.5z"/>
	<g>
		<polygon fill="#FFDD09" points="2.833,29.5 13.499,29.5 13.499,21.5 2.833,21.5 		"/>
		<polygon fill="#FFDD09" points="69.499,29.5 80.165,29.5 80.165,21.5 69.499,21.5 		"/>
		<polygon fill="#FFDD09" points="16.166,58.832 66.831,58.832 66.831,50.832 16.166,50.832 		"/>
		<polygon fill="#FFDD09" points="62.831,80.166 54.831,80.166 41.499,58.832 49.499,58.832 		"/>
		<polygon fill="#FFDD09" points="20.166,80.166 28.166,80.166 41.499,58.832 33.499,58.832 		"/>
	</g>
	<g>
		<polygon fill="#FD9808" points="6.833,50.832 80.165,50.832 80.165,40.166 6.833,40.166 		"/>
		<polygon fill="#FD9808" points="6.833,40.166 80.165,40.166 80.165,29.5 6.833,29.5 		"/>
	</g>
	<g>
		<polygon fill="#FFFFFF" points="2.833,50.832 76.165,50.832 76.165,40.166 2.833,40.166 		"/>
		<polygon fill="#FFFFFF" points="2.833,40.166 76.165,40.166 76.165,29.5 2.833,29.5 		"/>
	</g>
	<g>
		<polygon fill="#FFDD09" points="6.833,50.832 76.165,50.832 76.165,40.166 6.833,40.166 		"/>
		<polygon fill="#FFDD09" points="6.833,40.166 76.165,40.166 76.165,29.5 6.833,29.5 		"/>
	</g>
	<path d="M9.099,35.766c-0.533,0.533-1.332,0.533-1.867,0c-0.533-0.533-0.532-1.332,0-1.867c0.533-0.533,1.334-0.533,1.867,0
		C9.633,34.432,9.633,35.232,9.099,35.766"/>
	<path d="M9.099,46.432c-0.533,0.533-1.332,0.533-1.867,0c-0.533-0.533-0.532-1.332,0-1.867c0.533-0.533,1.334-0.533,1.867,0
		C9.633,45.1,9.633,45.898,9.099,46.432"/>
	<path d="M75.767,46.432c-0.533,0.533-1.334,0.533-1.867,0s-0.533-1.332,0-1.867c0.533-0.533,1.334-0.533,1.867,0
		C76.3,45.1,76.3,45.898,75.767,46.432"/>
	<path d="M75.767,35.766c-0.533,0.533-1.334,0.533-1.867,0s-0.533-1.332,0-1.867c0.533-0.533,1.334-0.533,1.867,0
		S76.3,35.232,75.767,35.766"/>
	<path d="M80.165,52.166H2.833c-0.8,0-1.333-0.533-1.333-1.332V40.166c0-0.801,0.533-1.332,1.333-1.332h77.332
		c0.803,0,1.336,0.531,1.336,1.332v10.668C81.499,51.633,80.966,52.166,80.165,52.166z M4.166,49.5h74.667v-8H4.166V49.5z"/>
	<path d="M80.165,41.5H2.833c-0.8,0-1.333-0.533-1.333-1.334V29.5c0-0.801,0.533-1.334,1.333-1.334h77.332
		c0.803,0,1.336,0.533,1.336,1.334v10.666C81.499,40.967,80.966,41.5,80.165,41.5z M4.166,38.832h74.667v-8H4.166V38.832z"/>
	<path d="M13.499,30.832H2.832c-0.8,0-1.333-0.533-1.333-1.332v-8c0-0.801,0.533-1.334,1.333-1.334h10.667
		c0.8,0,1.333,0.533,1.333,1.334v8C14.833,30.299,14.299,30.832,13.499,30.832z M4.166,28.166h8v-5.332h-8V28.166z"/>
	<path d="M80.165,30.832H69.499c-0.801,0-1.334-0.533-1.334-1.332v-8c0-0.801,0.533-1.334,1.334-1.334h10.666
		c0.801,0,1.334,0.533,1.334,1.334v8C81.499,30.299,80.966,30.832,80.165,30.832z M70.831,28.166h8v-5.332h-8V28.166z"/>
	<path d="M66.831,60.166H16.165c-0.8,0-1.333-0.533-1.333-1.332v-8c0-0.803,0.533-1.334,1.333-1.334h50.666
		c0.803,0,1.336,0.531,1.336,1.334v8C68.165,59.633,67.632,60.166,66.831,60.166z M17.499,57.5h48v-5.334h-48V57.5z"/>
	<path d="M62.831,81.5h-8c-0.398,0-0.932-0.268-1.064-0.668L40.433,59.5c-0.268-0.4-0.268-0.934,0-1.334s0.668-0.666,1.201-0.666h8
		c0.398,0,0.934,0.266,1.066,0.666L64.032,79.5c0.268,0.398,0.268,0.934,0,1.332C63.767,81.232,63.366,81.5,62.831,81.5z
		 M55.632,78.832h4.801L48.698,60.166h-4.799L55.632,78.832z"/>
	<path d="M28.166,81.5h-8c-0.533,0-0.933-0.268-1.2-0.668c-0.267-0.398-0.267-0.934,0-1.332l13.333-21.334
		c0.267-0.4,0.667-0.666,1.067-0.666h8c0.533,0,0.934,0.266,1.199,0.666c0.268,0.4,0.268,0.934,0,1.334L29.233,80.832
		C29.099,81.232,28.565,81.5,28.166,81.5z M22.565,78.832h4.801l11.732-18.666h-4.8L22.565,78.832z"/>
	<path d="M60.433,17.766c-0.4,0-0.666-0.133-0.934-0.4c-0.533-0.533-0.533-1.334,0-1.867l1.867-1.867
		c0.533-0.533,1.332-0.533,1.865,0s0.533,1.334,0,1.867l-1.865,1.867C61.099,17.633,60.698,17.766,60.433,17.766z"/>
	<path d="M56.698,25.232c-0.398,0-0.666-0.133-0.934-0.4c-0.533-0.533-0.533-1.332,0-1.867l1.867-1.867
		c0.533-0.533,1.334-0.533,1.865,0c0.533,0.533,0.533,1.334,0,1.867l-1.865,1.867C57.366,25.1,56.966,25.232,56.698,25.232z"/>
	<path d="M52.831,19.633c-0.398,0-0.666-0.133-0.932-0.4c-0.533-0.533-0.533-1.334,0-1.867l1.865-1.867
		c0.533-0.533,1.334-0.533,1.867,0s0.533,1.334,0,1.867l-1.867,1.867C53.499,19.5,53.233,19.633,52.831,19.633z"/>
	<path d="M50.433,27.766c-0.4,0-0.666-0.133-0.934-0.4c-0.533-0.533-0.533-1.334,0-1.867l1.6-1.6c0.533-0.533,1.334-0.533,1.867,0
		s0.533,1.332,0,1.867l-1.6,1.6C51.099,27.633,50.698,27.766,50.433,27.766z"/>
	<path d="M43.767,30.832h-9.733c-0.4,0-0.8-0.133-1.066-0.533S32.7,29.5,32.7,29.1c1.333-4.668,4-7.201,6.666-9.734l0.4-0.398
		c3.867-3.602,5.867-10.133,5.867-10.268c0.133-0.533,0.666-0.934,1.334-0.934c0.666,0,1.064,0.4,1.199,1.066
		c1.199,5.467,0.133,12.4-3.199,21.066C44.831,30.432,44.3,30.832,43.767,30.832z M35.899,28.166h6.932
		c1.867-5.066,2.936-9.467,3.201-13.199c-1.066,2-2.533,4.266-4.4,6l-0.533,0.398C39.099,23.365,37.099,25.232,35.899,28.166z"/>
	<path d="M59.099,30.832H43.767c-0.4,0-0.801-0.268-1.066-0.533c-0.268-0.4-0.268-0.799-0.135-1.199
		c1.734-4.668,2.934-8.668,3.334-12.268c0-0.4,0.268-0.666,0.4-0.801c7.332-6.266,17.467-11.865,21.732-7.6
		c4.133,4-1.066,13.867-7.867,21.867C59.899,30.699,59.499,30.832,59.099,30.832z M45.632,28.166h12.934c7.334-8.801,9.6-16,7.6-18
		s-9.197,0.268-17.865,7.467C47.899,20.832,46.966,24.299,45.632,28.166z"/>
	<path d="M30.833,12.166c-0.8,0-1.333-0.533-1.333-1.332c0-3.201,3.067-7.602,4.399-8.934c0.533-0.533,1.334-0.533,1.867,0
		c0.535,0.533,0.533,1.332,0,1.867c-1.199,1.199-3.6,4.932-3.6,7.066C32.166,11.633,31.633,12.166,30.833,12.166z"/>
	<path d="M30.833,12.166c-0.8,0-1.333-0.533-1.333-1.332c0-0.801-1.067-3.068-2.399-4.4C26.567,5.9,26.7,5.1,27.233,4.566
		c0.533-0.535,1.467-0.4,1.867,0.133c1.332,1.332,3.065,4.268,3.065,6.133C32.166,11.633,31.633,12.166,30.833,12.166z"/>
	<path d="M33.899,30.832H22.833c-0.534,0-0.934-0.268-1.2-0.666c-1.733-3.334-2.8-7.066-2.8-10c0-6.268,4.934-10.668,12-10.668
		c6.667,0,11.467,3.867,12,9.6c0,0.4-0.133,0.801-0.398,1.066c-0.27,0.268-0.535,0.533-0.801,0.801l-0.533,0.398
		c-2.4,2.268-4.666,4.4-5.867,8.533C35.099,30.432,34.565,30.832,33.899,30.832z M23.633,28.166h9.333
		c1.467-4.133,4-6.4,6.268-8.666l0.533-0.4l0,0c0.133-0.133,0.133-0.133,0.266-0.268c-0.666-4.133-4.133-6.666-9.199-6.666
		c-4.667,0-9.333,2.533-9.333,8C21.499,22.432,22.299,25.5,23.633,28.166z"/>
	<path d="M25.499,20.166c-0.8,0-1.333-0.533-1.333-1.332V17.5c0-0.801,0.534-1.332,1.333-1.332s1.333,0.531,1.333,1.332v1.334
		C26.833,19.633,26.299,20.166,25.499,20.166z"/>
	<path d="M29.499,25.5c-0.8,0-1.333-0.533-1.333-1.334v-1.332c0-0.801,0.534-1.334,1.333-1.334s1.333,0.533,1.333,1.334v1.332
		C30.833,24.967,30.299,25.5,29.499,25.5z"/>
	<path d="M33.499,20.166c-0.8,0-1.333-0.533-1.333-1.332V17.5c0-0.801,0.534-1.332,1.333-1.332s1.333,0.531,1.333,1.332v1.334
		C34.833,19.633,34.299,20.166,33.499,20.166z"/>
</g>
</svg>
