<?xml version="1.0" encoding="utf-8"?>
<!-- Generator: Adobe Illustrator 16.0.0, SVG Export Plug-In . SVG Version: 6.00 Build 0)  -->
<!DOCTYPE svg PUBLIC "-//W3C//DTD SVG 1.1//EN" "http://www.w3.org/Graphics/SVG/1.1/DTD/svg11.dtd">
<svg version="1.1" id="Layer_1" xmlns="http://www.w3.org/2000/svg" xmlns:xlink="http://www.w3.org/1999/xlink" x="0px" y="0px"
	 width="85px" height="85px" viewBox="0 0 85 85" enable-background="new 0 0 85 85" xml:space="preserve">
<g>
	<g enable-background="new    ">
		<path fill="#00A651" d="M13.024,56.17H9.618V34.493c-0.818,0.785-1.892,1.56-3.219,2.345s-2.521,1.371-3.583,1.759v-3.285
			c1.902-0.896,3.562-1.979,4.988-3.251c1.427-1.272,2.433-2.512,3.02-3.705h2.189V56.17H13.024z"/>
	</g>
	<g enable-background="new    ">
		<path d="M13.329,56.486H9.303V35.203c-0.738,0.628-1.643,1.256-2.742,1.906C5.224,37.9,4,38.501,2.925,38.894L2.5,39.048v-3.937
			l0.182-0.085c1.858-0.876,3.511-1.952,4.912-3.202c1.386-1.235,2.378-2.449,2.946-3.608l0.087-0.177h2.702V56.486z M9.935,55.854
			h2.763V28.671h-1.68c-0.615,1.178-1.625,2.396-3.003,3.625c-1.401,1.249-3.043,2.33-4.882,3.215v2.626
			c0.934-0.375,1.977-0.902,3.105-1.571c1.339-0.792,2.373-1.545,3.161-2.301l0.535-0.513V55.854z"/>
	</g>
	<g enable-background="new    ">
		<path fill="#00A651" d="M18.547,48.915l3.573-0.299c0.266,1.737,0.873,3.041,1.847,3.927c0.962,0.874,2.123,1.315,3.483,1.315
			c1.637,0,3.02-0.618,4.159-1.847c1.139-1.238,1.703-2.875,1.703-4.91c0-1.936-0.542-3.474-1.637-4.591
			c-1.096-1.116-2.522-1.681-4.28-1.681c-1.096,0-2.09,0.255-2.965,0.752c-0.885,0.498-1.569,1.14-2.079,1.936l-3.195-0.42
			l2.688-14.233h13.78v3.251h-11.06l-1.493,7.443c1.659-1.161,3.406-1.736,5.23-1.736c2.422,0,4.457,0.841,6.127,2.51
			c1.659,1.682,2.5,3.827,2.5,6.46c0,2.51-0.729,4.678-2.19,6.503c-1.78,2.245-4.202,3.361-7.276,3.361
			c-2.521,0-4.579-0.707-6.172-2.112C19.687,53.118,18.779,51.237,18.547,48.915z"/>
	</g>
	<g enable-background="new    ">
		<path d="M27.462,56.973c-2.585,0-4.731-0.737-6.381-2.191c-1.649-1.468-2.607-3.431-2.849-5.834l-0.031-0.321l4.187-0.349
			l0.044,0.292c0.258,1.681,0.829,2.904,1.748,3.74c0.901,0.818,2.002,1.232,3.271,1.232c1.553,0,2.837-0.57,3.927-1.745
			c1.074-1.168,1.619-2.748,1.619-4.695c0-1.853-0.521-3.322-1.547-4.369c-1.031-1.053-2.396-1.586-4.054-1.586
			c-1.035,0-1.98,0.238-2.808,0.711c-0.84,0.473-1.484,1.071-1.97,1.83l-0.108,0.17l-3.727-0.49l2.798-14.819h14.358v3.884H24.822
			l-1.294,6.451c1.515-0.914,3.117-1.377,4.773-1.377c2.486,0,4.623,0.876,6.351,2.604c1.721,1.743,2.593,3.991,2.593,6.683
			c0,2.572-0.761,4.826-2.26,6.7C33.154,55.801,30.623,56.973,27.462,56.973z M18.898,49.203c0.274,2.096,1.148,3.812,2.602,5.105
			c1.529,1.349,3.535,2.032,5.962,2.032c3,0,5.299-1.061,7.029-3.242c1.408-1.761,2.122-3.882,2.122-6.307
			c0-2.52-0.812-4.618-2.409-6.237c-1.625-1.626-3.557-2.417-5.902-2.417c-1.759,0-3.458,0.565-5.05,1.68l-0.646,0.452l1.699-8.47
			h11.003v-2.62H22.105l-2.577,13.647l2.669,0.352c0.528-0.77,1.21-1.383,2.079-1.872c0.923-0.525,1.973-0.792,3.119-0.792
			c1.834,0,3.351,0.597,4.505,1.775c1.146,1.17,1.728,2.788,1.728,4.812c0,2.111-0.602,3.835-1.786,5.125
			c-1.201,1.293-2.678,1.948-4.392,1.948c-1.431,0-2.674-0.47-3.695-1.397c-0.976-0.887-1.598-2.139-1.899-3.821L18.898,49.203z"/>
	</g>
	<g enable-background="new    ">
		<path fill="#00A651" d="M41.584,42.5c0-3.273,0.333-5.917,1.007-7.907c0.675-2.002,1.682-3.539,3.009-4.623
			s2.997-1.626,5.021-1.626c1.482,0,2.787,0.299,3.915,0.896c1.117,0.598,2.046,1.461,2.776,2.589
			c0.729,1.128,1.305,2.499,1.726,4.125c0.42,1.614,0.619,3.805,0.619,6.547c0,3.253-0.333,5.873-1.007,7.875
			c-0.664,2.001-1.67,3.539-2.997,4.634c-1.328,1.095-3.008,1.637-5.032,1.637c-2.676,0-4.767-0.962-6.293-2.876
			C42.502,51.459,41.584,47.71,41.584,42.5z M45.079,42.5c0,4.546,0.531,7.576,1.593,9.08c1.062,1.505,2.378,2.257,3.938,2.257
			s2.876-0.752,3.937-2.268c1.062-1.515,1.594-4.534,1.594-9.069c0-4.557-0.531-7.587-1.594-9.091
			c-1.061-1.504-2.388-2.245-3.981-2.245c-1.56,0-2.809,0.664-3.738,1.979C45.666,34.836,45.079,37.955,45.079,42.5z"/>
	</g>
	<g enable-background="new    ">
		<path d="M50.62,56.962c-2.754,0-4.954-1.008-6.54-2.994c-1.866-2.363-2.812-6.222-2.812-11.468c0-3.311,0.345-6.006,1.022-8.009
			c0.688-2.04,1.734-3.644,3.108-4.767c1.379-1.126,3.135-1.697,5.221-1.697c1.527,0,2.894,0.314,4.062,0.933
			c1.167,0.624,2.14,1.53,2.894,2.696c0.747,1.153,1.341,2.572,1.767,4.218c0.423,1.627,0.629,3.794,0.629,6.626
			c0,3.278-0.345,5.962-1.022,7.976c-0.674,2.03-1.715,3.639-3.096,4.777C54.479,56.387,52.718,56.962,50.62,56.962z M50.62,28.659
			c-1.937,0-3.559,0.523-4.821,1.555c-1.28,1.047-2.26,2.554-2.908,4.479c-0.657,1.938-0.99,4.564-0.99,7.807
			c0,5.101,0.9,8.826,2.676,11.074c1.479,1.854,3.456,2.756,6.044,2.756c1.947,0,3.573-0.527,4.831-1.565
			c1.287-1.062,2.263-2.572,2.898-4.488c0.657-1.95,0.99-4.566,0.99-7.776c0-2.738-0.205-4.915-0.609-6.468
			c-0.408-1.579-0.976-2.937-1.685-4.033c-0.695-1.074-1.59-1.909-2.66-2.48C53.31,28.949,52.043,28.659,50.62,28.659z
			 M50.609,54.152c-1.664,0-3.077-0.804-4.195-2.39c-1.11-1.573-1.65-4.603-1.65-9.263c0-4.583,0.606-7.792,1.803-9.535
			c0.992-1.405,2.337-2.116,3.998-2.116c1.699,0,3.126,0.8,4.24,2.378c1.11,1.574,1.65,4.606,1.65,9.273
			c0,4.641-0.54,7.666-1.649,9.25C53.688,53.345,52.276,54.152,50.609,54.152z M50.564,31.48c-1.464,0-2.603,0.604-3.479,1.846
			c-1.121,1.633-1.689,4.721-1.689,9.174c0,4.462,0.517,7.455,1.535,8.898c0.993,1.408,2.23,2.122,3.679,2.122
			c1.47,0,2.673-0.697,3.679-2.132c1.019-1.455,1.535-4.444,1.535-8.889c0-4.468-0.517-7.466-1.535-8.908
			C53.285,32.171,52.068,31.48,50.564,31.48z"/>
	</g>
	<g enable-background="new    ">
		<path fill="#00A651" d="M64.113,42.5c0-3.273,0.331-5.917,1.007-7.907c0.674-2.002,1.681-3.539,3.007-4.623
			c1.327-1.084,2.998-1.626,5.022-1.626c1.481,0,2.786,0.299,3.915,0.896c1.116,0.598,2.045,1.461,2.775,2.589
			s1.305,2.499,1.725,4.125c0.421,1.614,0.619,3.805,0.619,6.547c0,3.253-0.331,5.873-1.006,7.875
			c-0.663,2.001-1.67,3.539-2.997,4.634s-3.009,1.637-5.031,1.637c-2.678,0-4.768-0.962-6.294-2.876
			C65.02,51.459,64.113,47.71,64.113,42.5z M67.608,42.5c0,4.546,0.53,7.576,1.592,9.08c1.062,1.505,2.378,2.257,3.937,2.257
			c1.56,0,2.876-0.752,3.938-2.268c1.061-1.515,1.592-4.534,1.592-9.069c0-4.557-0.531-7.587-1.592-9.091
			c-1.062-1.504-2.39-2.245-3.981-2.245c-1.56,0-2.81,0.664-3.738,1.979C68.193,34.836,67.608,37.955,67.608,42.5z"/>
	</g>
	<g enable-background="new    ">
		<path d="M73.149,56.962c-2.756,0-4.956-1.008-6.54-2.994c-1.893-2.383-2.812-6.134-2.812-11.468c0-3.311,0.344-6.005,1.023-8.009
			c0.688-2.04,1.732-3.644,3.107-4.767c1.379-1.126,3.136-1.697,5.222-1.697c1.526,0,2.894,0.314,4.062,0.933
			c1.166,0.624,2.14,1.53,2.894,2.696c0.746,1.153,1.341,2.572,1.766,4.218c0.424,1.627,0.629,3.794,0.629,6.626
			c0,3.278-0.344,5.962-1.022,7.976c-0.673,2.03-1.715,3.638-3.096,4.777C77.007,56.387,75.246,56.962,73.149,56.962z
			 M73.149,28.659c-1.937,0-3.559,0.523-4.822,1.555c-1.281,1.047-2.259,2.554-2.908,4.479c-0.657,1.939-0.99,4.565-0.99,7.807
			c0,5.113,0.899,8.84,2.675,11.074c1.479,1.854,3.456,2.756,6.046,2.756c1.946,0,3.571-0.527,4.83-1.565
			c1.288-1.062,2.263-2.572,2.899-4.488c0.656-1.951,0.989-4.566,0.989-7.776c0-2.738-0.204-4.915-0.609-6.468
			c-0.408-1.579-0.975-2.937-1.685-4.033c-0.695-1.074-1.59-1.909-2.659-2.48C75.839,28.949,74.571,28.659,73.149,28.659z
			 M73.137,54.152c-1.664,0-3.075-0.804-4.194-2.39c-1.111-1.574-1.65-4.603-1.65-9.263c0-4.584,0.606-7.792,1.803-9.535
			c0.992-1.405,2.337-2.116,3.999-2.116c1.699,0,3.125,0.8,4.239,2.378c1.11,1.573,1.65,4.606,1.65,9.273
			c0,4.641-0.54,7.666-1.65,9.25C76.217,53.345,74.806,54.152,73.137,54.152z M73.094,31.48c-1.466,0-2.604,0.604-3.48,1.846
			c-1.12,1.633-1.689,4.72-1.689,9.174c0,4.462,0.517,7.455,1.534,8.898c0.994,1.408,2.232,2.122,3.679,2.122
			c1.471,0,2.674-0.697,3.68-2.132c1.019-1.455,1.535-4.444,1.535-8.889c0-4.469-0.517-7.466-1.534-8.908
			C75.814,32.171,74.596,31.48,73.094,31.48z"/>
	</g>
</g>
</svg>
