<?xml version="1.0" encoding="utf-8"?>
<!-- Generator: Adobe Illustrator 16.0.0, SVG Export Plug-In . SVG Version: 6.00 Build 0)  -->
<!DOCTYPE svg PUBLIC "-//W3C//DTD SVG 1.1//EN" "http://www.w3.org/Graphics/SVG/1.1/DTD/svg11.dtd">
<svg version="1.1" id="Layer_1" xmlns="http://www.w3.org/2000/svg" xmlns:xlink="http://www.w3.org/1999/xlink" x="0px" y="0px"
	 width="85px" height="85px" viewBox="0 0 85 85" enable-background="new 0 0 85 85" xml:space="preserve">
<g>
	<path fill="#DB885D" d="M79.562,74.601H49.751c-0.977,0-1.766-0.791-1.766-1.766V32.248c0-0.976,0.789-1.766,1.766-1.766h29.811
		c0.977,0,1.766,0.79,1.766,1.766v40.587C81.327,73.81,80.538,74.601,79.562,74.601L79.562,74.601z"/>
	<path fill="#C86D3D" d="M81.327,32.248v40.587c0,0.976-0.791,1.766-1.766,1.766h-3.633c0.975,0,1.766-0.79,1.766-1.766V32.248
		c0-0.976-0.791-1.767-1.766-1.767h3.633C80.536,30.481,81.327,31.272,81.327,32.248z"/>
	<circle fill="#FFF5F5" cx="66.251" cy="51.964" r="2.563"/>
	<circle fill="#FFF5F5" cx="66.251" cy="41.939" r="2.563"/>
	<path fill="#0097FA" d="M59.187,52.369v23.673c0,0.757-0.613,1.37-1.371,1.37l0,0H18.021c-0.758,0-1.371-0.613-1.371-1.37l0,0
		V52.369c0-4.657,2.807-8.661,6.82-10.412c1.389-0.605,2.922-0.94,4.531-0.94h19.832c0.621,0,1.23,0.049,1.824,0.146
		c0.932,0.149,1.842,0.417,2.709,0.794c0.004,0.001,0.008,0.003,0.012,0.005C56.384,43.715,59.187,47.716,59.187,52.369z"/>
	<path fill="#0076F8" d="M59.187,52.369v23.673c0,0.757-0.613,1.37-1.371,1.37h-3.158c0.756,0,1.371-0.613,1.371-1.37V52.369
		c0-4.656-2.809-8.661-6.82-10.411c-0.867-0.378-1.777-0.646-2.709-0.795c-0.604-0.099-1.213-0.147-1.824-0.146h3.158
		c0.621,0,1.23,0.049,1.824,0.146c0.934,0.148,1.844,0.417,2.709,0.795C56.378,43.708,59.187,47.713,59.187,52.369z"/>
	<path fill="#C86D3D" d="M51.466,77.413h-8.322L15.565,48.866c-0.496-0.513-0.559-1.305-0.148-1.888l2.119-3.014
		c0.543-0.771,1.654-0.851,2.299-0.164L51.466,77.413L51.466,77.413z"/>
	<ellipse fill="#0097FA" cx="37.917" cy="13.228" rx="20.127" ry="8.451"/>
	<path fill="#0076F8" d="M58.046,13.227c0,4.667-9.014,8.452-20.129,8.452c-0.625,0-1.244-0.012-1.854-0.036
		c10.246-0.394,18.27-4.012,18.27-8.416s-8.023-8.02-18.27-8.414c0.609-0.023,1.229-0.036,1.854-0.036
		C49.034,4.777,58.046,8.56,58.046,13.227L58.046,13.227z"/>
	<circle fill="#FFBC8A" cx="51.856" cy="29.455" r="3.17"/>
	<circle fill="#FFBC8A" cx="23.979" cy="29.455" r="3.17"/>
	<path fill="#FDD1A7" d="M37.917,46.953c-6.449,0-11.77-5.05-12.105-11.49l-0.463-8.822c-0.195-3.745,2.787-6.888,6.537-6.888H43.95
		c3.75,0,6.732,3.143,6.537,6.888l-0.463,8.822C49.688,41.903,44.368,46.953,37.917,46.953L37.917,46.953z"/>
	<path fill="#0097FA" d="M22.909,23.46l1.1,3.828c0.502,1.75,2.104,2.954,3.922,2.954h19.973c1.82,0,3.422-1.205,3.924-2.954
		l1.1-3.828H22.909z"/>
	<path fill="#0076F8" d="M52.925,23.46l-1.1,3.828c-0.502,1.75-2.102,2.956-3.922,2.956h-3.158c1.82,0,3.42-1.206,3.924-2.956
		l1.1-3.828H52.925z"/>
	<path fill="#FF9846" d="M52.778,17.174H23.058c-0.82,0-1.484,0.665-1.484,1.483v3.764c0,0.819,0.666,1.483,1.484,1.483h29.721
		c0.818,0,1.482-0.665,1.482-1.483l0,0v-3.764C54.261,17.838,53.597,17.174,52.778,17.174z"/>
	<path fill="#FF771C" d="M54.261,18.657v3.764c0,0.818-0.664,1.483-1.484,1.483h-3.172c0.818,0,1.484-0.665,1.484-1.483v-3.764
		c0-0.82-0.666-1.483-1.484-1.483h3.174c0.816,0,1.482,0.663,1.482,1.481C54.261,18.656,54.261,18.657,54.261,18.657z"/>
	<g>
		<path fill="#FFF5F5" d="M18.876,80.226H4.87c-0.662,0-1.199-0.537-1.199-1.2v-8.871c0-0.662,0.537-1.198,1.199-1.198h14.006
			c0.662,0,1.199,0.536,1.199,1.198v8.871C20.075,79.688,19.54,80.225,18.876,80.226L18.876,80.226z"/>
	</g>
	<g>
		<path d="M32.265,32.369c-0.646,0-1.172,0.53-1.172,1.179c0,0.647,0.525,1.172,1.172,1.172c0.648,0,1.174-0.524,1.174-1.172v-0.015
			C33.438,32.887,32.913,32.369,32.265,32.369z M43.569,32.369c-0.646,0-1.172,0.53-1.172,1.179c0,0.647,0.525,1.172,1.172,1.172
			s1.172-0.524,1.172-1.172v-0.015C44.741,32.887,44.216,32.369,43.569,32.369z M41.399,37.035
			c-0.621-0.179-1.271,0.182-1.449,0.803l0,0c-0.26,0.9-1.096,1.531-2.033,1.531c-0.936,0-1.771-0.63-2.031-1.531
			c-0.178-0.622-0.828-0.982-1.449-0.804c-0.621,0.18-0.98,0.828-0.803,1.45l0,0c0.545,1.9,2.309,3.228,4.283,3.228
			c1.979,0,3.738-1.327,4.285-3.228C42.38,37.864,42.022,37.216,41.399,37.035L41.399,37.035z M47.78,56.641h-4.658
			c-0.646,0-1.172,0.525-1.172,1.172c0,0.647,0.525,1.172,1.172,1.172h4.658c0.646,0,1.172-0.523,1.172-1.172
			C48.952,57.166,48.427,56.641,47.78,56.641z M47.78,60.208h-1.883c-0.646,0-1.172,0.523-1.172,1.172
			c0,0.647,0.523,1.172,1.172,1.172h1.883c0.646,0,1.172-0.524,1.172-1.172C48.952,60.731,48.427,60.208,47.78,60.208L47.78,60.208z
			"/>
		<path d="M79.562,29.311H56.19c-0.053-1.682-1.074-3.181-2.621-3.844l0.164-0.571c0.994-0.385,1.701-1.348,1.701-2.476v-3.604
			c3.113-2.008,3.781-4.135,3.781-5.589c0-2.759-2.348-5.266-6.611-7.057c-3.941-1.654-9.158-2.565-14.688-2.565
			c-3.443,0-6.857,0.364-9.873,1.054c-0.631,0.145-1.023,0.772-0.881,1.403l0,0c0.145,0.631,0.773,1.026,1.404,0.881
			c2.848-0.651,6.08-0.995,9.352-0.995c11.17,0,18.955,3.836,18.955,7.279c0,1.434-1.301,2.643-2.385,3.401
			c-0.479-0.405-1.084-0.627-1.711-0.627H23.06c-0.627,0-1.232,0.222-1.711,0.627c-1.104-0.772-2.385-1.976-2.385-3.401
			c0-1.593,1.646-3.271,4.52-4.604c0.586-0.272,0.842-0.969,0.568-1.557c-0.271-0.587-0.969-0.842-1.557-0.57
			c-3.789,1.76-5.875,4.149-5.875,6.73c0,1.459,0.674,3.583,3.783,5.588v3.605c0,1.127,0.709,2.091,1.701,2.476l0.166,0.572
			c-1.564,0.674-2.631,2.231-2.631,3.986c0,2.394,1.949,4.342,4.344,4.342c0.189,0,0.379-0.014,0.566-0.038l0.094,1.766
			c0.08,1.562,0.438,3.097,1.053,4.533c-2.016,0.373-3.891,1.229-5.506,2.525c-0.482-0.311-1.051-0.455-1.623-0.414
			c-0.797,0.055-1.527,0.468-1.986,1.122l-2.119,3.014c-0.732,1.042-0.623,2.462,0.264,3.377l0.883,0.914
			c-0.084,0.588-0.127,1.181-0.129,1.774v15.412H4.872c-1.307,0-2.371,1.064-2.371,2.371v8.871c0,1.309,1.064,2.372,2.371,2.372
			h14.006c1.309,0,2.373-1.063,2.373-2.372v-8.871c0-1.307-1.064-2.371-2.373-2.371h-1.055V52.887l5.367,5.556V77.41
			c0,0.647,0.523,1.173,1.172,1.173s1.172-0.524,1.172-1.173V60.869l11.215,11.606v4.935c0,0.647,0.525,1.173,1.172,1.173
			s1.172-0.524,1.172-1.173v-2.509l3.211,3.323c0.221,0.229,0.525,0.358,0.844,0.358c0.646,0,1.172-0.524,1.172-1.173
			c0-0.304-0.119-0.596-0.33-0.813l-18.521-19.17c-0.111-0.325-0.361-0.584-0.684-0.708l-8.373-8.667
			c-0.105-0.109-0.119-0.277-0.031-0.4l2.119-3.014c0.053-0.078,0.139-0.128,0.234-0.133c0.094-0.009,0.188,0.026,0.252,0.098
			l8.871,9.427c0.441,0.472,1.184,0.493,1.654,0.051c0.473-0.443,0.494-1.187,0.051-1.656l-7.695-8.178
			c1.471-1.115,3.186-1.799,5.021-1.997c2.188,3.247,5.764,5.462,9.859,5.82v11.989l-3.355-3.565
			c-0.443-0.472-1.186-0.493-1.656-0.051c-0.473,0.443-0.494,1.187-0.049,1.656l0,0l18.928,20.115
			c0.221,0.234,0.531,0.369,0.854,0.368h0.006h0.006c0.029,0,0.061-0.002,0.094-0.004l0.004-0.002
			c0.602-0.05,1.074-0.553,1.074-1.167v-19.6c0-0.646-0.525-1.172-1.172-1.172c-0.648,0-1.174,0.525-1.174,1.172v16.655
			L39.091,62.548V48.068c4.098-0.357,7.672-2.572,9.859-5.818c5.111,0.559,9.064,4.934,9.064,10.117V76.04
			c0,0.108-0.088,0.198-0.197,0.198c-0.646,0-1.172,0.524-1.172,1.172c0,0.648,0.523,1.173,1.172,1.173
			c1.4,0,2.543-1.142,2.543-2.543V75.77h2.785c0.646,0,1.172-0.523,1.172-1.172s-0.525-1.172-1.172-1.172H60.36v-21.06
			c0-3.64-1.586-6.954-4.115-9.26h6.273v8.854c0,2.06,1.676,3.734,3.734,3.734s3.734-1.676,3.734-3.734v-8.854h9.576
			c0.201,0,0.4-0.021,0.592-0.061v29.785c0,0.326-0.266,0.593-0.592,0.594H68.731c-0.648,0-1.172,0.523-1.172,1.172
			s0.523,1.172,1.172,1.172h10.832c1.617,0,2.936-1.318,2.936-2.938V32.244C82.499,30.629,81.181,29.311,79.562,29.311
			L79.562,29.311z M16.593,70.127l-4.705,3.02c-0.01,0.006-0.021,0.006-0.029,0l-4.707-3.02H16.593z M18.876,79.054H4.87
			c-0.014,0-0.027-0.013-0.027-0.027c0,0,0,0,0-0.001V71.43l5.75,3.688c0.383,0.244,0.826,0.375,1.281,0.374
			c0.445,0,0.891-0.125,1.279-0.374l5.75-3.688v7.596C18.903,79.041,18.892,79.054,18.876,79.054L18.876,79.054L18.876,79.054z
			 M51.856,31.453c-0.152,0-0.301-0.019-0.445-0.052l0.074-1.404c0.658-0.612,1.148-1.385,1.424-2.241
			c0.588,0.364,0.945,1.007,0.945,1.699C53.854,30.557,52.958,31.453,51.856,31.453z M25.134,26.964l-0.541-1.888h26.648
			L50.7,26.964c-0.357,1.24-1.506,2.106-2.797,2.106H27.931C26.64,29.07,25.491,28.205,25.134,26.964L25.134,26.964z M22.745,18.657
			c0-0.172,0.141-0.312,0.312-0.312h29.721c0.172,0,0.311,0.14,0.311,0.312v3.764c0,0.172-0.139,0.312-0.311,0.312H23.058
			c-0.172,0-0.312-0.14-0.312-0.312V18.657L22.745,18.657z M23.979,31.453c-1.102,0-1.998-0.896-1.998-1.998
			c0-0.705,0.373-1.343,0.945-1.698c0.273,0.855,0.766,1.628,1.424,2.24l0.072,1.404C24.28,31.434,24.132,31.453,23.979,31.453z
			 M37.917,45.781c-5.828,0-10.631-4.559-10.936-10.379l-0.217-4.121c0.377,0.088,0.768,0.135,1.166,0.135h19.973
			c0.398,0,0.789-0.047,1.168-0.135l-0.217,4.121C48.55,41.223,43.745,45.781,37.917,45.781z M64.86,45.403
			c0.441,0.18,0.914,0.271,1.391,0.271c0.479,0,0.949-0.091,1.393-0.271V48.5c-0.441-0.18-0.914-0.271-1.393-0.271
			c-0.49,0-0.959,0.097-1.391,0.271V45.403L64.86,45.403z M66.251,43.329c-0.766,0-1.391-0.624-1.391-1.392
			c0-0.767,0.625-1.391,1.391-1.391c0.77,0,1.393,0.624,1.393,1.391C67.644,42.705,67.019,43.329,66.251,43.329z M66.251,53.355
			c-0.766,0-1.391-0.624-1.391-1.392s0.625-1.392,1.391-1.392c0.77,0,1.393,0.624,1.393,1.392S67.019,53.355,66.251,53.355z
			 M79.562,40.766h-9.766c-0.492-1.487-1.895-2.562-3.545-2.562c-1.648,0-3.053,1.075-3.545,2.562H52.688
			c-0.047,0-0.092,0.003-0.137,0.009c-0.777-0.318-1.586-0.558-2.412-0.713c0.615-1.438,0.973-2.975,1.055-4.537l0.092-1.766
			c0.189,0.023,0.377,0.038,0.568,0.038c1.592,0,2.984-0.861,3.74-2.143h23.967c0.326,0,0.594,0.267,0.594,0.595v7.925
			C80.155,40.501,79.89,40.766,79.562,40.766L79.562,40.766z"/>
	</g>
</g>
</svg>
