<?xml version="1.0" encoding="utf-8"?>
<!-- Generator: Adobe Illustrator 16.0.0, SVG Export Plug-In . SVG Version: 6.00 Build 0)  -->
<!DOCTYPE svg PUBLIC "-//W3C//DTD SVG 1.1//EN" "http://www.w3.org/Graphics/SVG/1.1/DTD/svg11.dtd">
<svg version="1.1" id="Layer_1" xmlns="http://www.w3.org/2000/svg" xmlns:xlink="http://www.w3.org/1999/xlink" x="0px" y="0px"
	 width="85px" height="85px" viewBox="0 0 85 85" enable-background="new 0 0 85 85" xml:space="preserve">
<g>
	<path fill="#E9E4F2" d="M3.311,29.437h78.381v39.191H3.311V29.437L3.311,29.437z"/>
	<path fill="#4F5760" d="M29.439,16.375h26.127v13.062H29.439V16.375z"/>
	<path fill="#FCB539" d="M3.312,16.375h26.127v13.062H3.312V16.375z"/>
	<path fill="#E02F34" d="M55.566,16.375h26.125v13.062H55.566V16.375z"/>
	<path fill="#365EAB" d="M42.502,39.233c1.801,0,3.268,1.463,3.268,3.267c0,1.803-1.467,3.266-3.268,3.266
		c-1.803,0-3.268-1.463-3.268-3.266S40.699,39.233,42.502,39.233 M42.502,52.298c1.801,0,3.268,1.463,3.268,3.266
		s-1.467,3.267-3.268,3.267c-1.803,0-3.268-1.464-3.268-3.267S40.699,52.298,42.502,52.298"/>
	<path fill="#010101" d="M81.691,69.436H3.311c-0.447,0-0.811-0.361-0.811-0.809V16.374c0-0.447,0.363-0.81,0.811-0.81h6.531
		c0.447,0,0.809,0.362,0.809,0.81c0,0.446-0.361,0.809-0.809,0.809H4.119v11.444h24.51V17.183H16.375
		c-0.447,0-0.809-0.362-0.809-0.809c0-0.447,0.361-0.81,0.809-0.81h13.064l0,0h39.188c0.447,0,0.811,0.362,0.811,0.81
		c0,0.446-0.361,0.809-0.811,0.809H56.373v11.444h24.51V17.183H75.16c-0.447,0-0.811-0.362-0.811-0.809
		c0-0.447,0.361-0.81,0.811-0.81h6.531c0.445,0,0.809,0.362,0.809,0.81v52.253C82.502,69.074,82.139,69.436,81.691,69.436z
		 M4.119,67.818h76.764V30.245H55.566l0,0H29.439l0,0H4.119V67.818z M30.248,28.628h24.508V17.184H30.248V28.628z M68.629,62.904
		h-6.531c-4.049,0-7.342-3.293-7.342-7.342V42.5c0-4.048,3.293-7.342,7.342-7.342h6.531c4.047,0,7.34,3.294,7.34,7.342v13.062
		C75.969,59.611,72.676,62.904,68.629,62.904z M62.098,36.777c-3.154,0-5.723,2.567-5.723,5.724v13.062
		c0,3.156,2.566,5.723,5.723,5.723h6.531c3.156,0,5.723-2.565,5.723-5.723V42.501c0-3.156-2.566-5.724-5.723-5.724H62.098z
		 M29.439,62.904H9.842c-0.326,0-0.621-0.196-0.746-0.5c-0.125-0.303-0.057-0.649,0.176-0.881L22.336,48.46
		c0.152-0.15,0.357-0.236,0.572-0.236c3.154,0,5.723-2.568,5.723-5.723c0-3.156-2.566-5.724-5.723-5.724h-6.539
		c-3.152,0-5.717,2.564-5.717,5.718c0,0.445-0.363,0.811-0.811,0.811c-0.445,0-0.809-0.359-0.809-0.805v-0.006
		c0-4.046,3.291-7.335,7.336-7.335h6.539c4.047,0,7.34,3.293,7.34,7.341c0,3.932-3.109,7.152-6.998,7.333L11.795,61.287h17.645
		c0.445,0,0.809,0.362,0.809,0.811C30.248,62.542,29.885,62.904,29.439,62.904z M42.502,59.639c-2.248,0-4.076-1.828-4.076-4.076
		c0-2.246,1.828-4.074,4.076-4.074c2.246,0,4.072,1.828,4.072,4.074C46.574,57.811,44.748,59.639,42.502,59.639z M42.502,53.105
		c-1.355,0-2.459,1.104-2.459,2.457c0,1.355,1.104,2.457,2.459,2.457c1.354,0,2.455-1.102,2.455-2.457
		C44.957,54.21,43.855,53.105,42.502,53.105z M42.502,46.574c-2.248,0-4.076-1.827-4.076-4.074s1.828-4.075,4.076-4.075
		c2.246,0,4.072,1.828,4.072,4.075S44.748,46.574,42.502,46.574z M42.502,40.043c-1.355,0-2.459,1.102-2.459,2.457
		c0,1.354,1.104,2.458,2.459,2.458c1.354,0,2.455-1.104,2.455-2.458C44.957,41.145,43.855,40.043,42.502,40.043z"/>
</g>
</svg>
