<?xml version="1.0" encoding="utf-8"?>
<!-- Generator: Adobe Illustrator 16.0.0, SVG Export Plug-In . SVG Version: 6.00 Build 0)  -->
<!DOCTYPE svg PUBLIC "-//W3C//DTD SVG 1.1//EN" "http://www.w3.org/Graphics/SVG/1.1/DTD/svg11.dtd">
<svg version="1.1" id="Layer_1" xmlns="http://www.w3.org/2000/svg" xmlns:xlink="http://www.w3.org/1999/xlink" x="0px" y="0px"
	 width="85px" height="85px" viewBox="0 0 85 85" enable-background="new 0 0 85 85" xml:space="preserve">
<g>
	<path fill="#F0576C" d="M50.726,8.316c0,2.795-2.266,5.059-5.059,5.059c-2.795,0-5.059-2.264-5.059-5.059
		c0-2.793,2.264-5.058,5.059-5.058C48.46,3.259,50.726,5.523,50.726,8.316"/>
	
		<path fill="none" stroke="#140A0B" stroke-width="2.6692" stroke-linecap="round" stroke-linejoin="round" stroke-miterlimit="10" d="
		M50.726,8.316c0,2.795-2.266,5.059-5.059,5.059c-2.795,0-5.059-2.264-5.059-5.059c0-2.793,2.264-5.058,5.059-5.058
		C48.46,3.259,50.726,5.523,50.726,8.316L50.726,8.316z"/>
	<path fill="#8ED0B8" d="M12.618,49.796c0,2.795-2.264,5.059-5.059,5.059c-2.793,0-5.059-2.264-5.059-5.059
		c0-2.793,2.266-5.059,5.059-5.059C10.354,44.737,12.618,47.003,12.618,49.796"/>
	
		<path fill="none" stroke="#140A0B" stroke-width="2.6692" stroke-linecap="round" stroke-linejoin="round" stroke-miterlimit="10" d="
		M12.618,49.796c0,2.795-2.264,5.059-5.059,5.059c-2.793,0-5.059-2.264-5.059-5.059c0-2.793,2.266-5.059,5.059-5.059
		C10.354,44.737,12.618,47.003,12.618,49.796z"/>
	<path fill="#F0576C" d="M49.038,69.354c0,2.795-2.264,5.06-5.059,5.06c-2.793,0-5.059-2.265-5.059-5.06
		c0-2.793,2.266-5.058,5.059-5.058C46.774,64.297,49.038,66.561,49.038,69.354"/>
	
		<path fill="none" stroke="#140A0B" stroke-width="2.6692" stroke-linecap="round" stroke-linejoin="round" stroke-miterlimit="10" d="
		M49.038,69.354c0,2.795-2.264,5.06-5.059,5.06c-2.793,0-5.059-2.265-5.059-5.06c0-2.793,2.266-5.058,5.059-5.058
		C46.774,64.297,49.038,66.561,49.038,69.354z"/>
	<path fill="#F0576C" d="M74.456,42.376c0,2.794-2.264,5.059-5.057,5.059c-2.795,0-5.061-2.264-5.061-5.059
		c0-2.793,2.266-5.059,5.061-5.059C72.192,37.317,74.456,39.583,74.456,42.376"/>
	
		<path fill="none" stroke="#140A0B" stroke-width="2.6692" stroke-linecap="round" stroke-linejoin="round" stroke-miterlimit="10" d="
		M74.456,42.376c0,2.794-2.264,5.059-5.057,5.059c-2.795,0-5.061-2.264-5.061-5.059c0-2.793,2.266-5.059,5.061-5.059
		C72.192,37.317,74.456,39.583,74.456,42.376z"/>
	<path fill="#8ED0B8" d="M77.638,14.217c-3.68-1.182-7.625,0.846-8.805,4.525c-0.336,1.04-0.418,2.098-0.273,3.101
		c-1.854,0.68-4.039,0.87-6.443,0.014l-0.023,0.009C56.714,14.772,48.218,10.17,38.627,10.17c-6.377,0-12.264,2.048-17.086,5.491
		l-0.02-0.021c0,0-3.424-0.496-5.363-3.257c0.229-0.685,0.346-1.402,0.344-2.124c0-3.866-3.135-7.001-7-7.001
		c-3.863,0-7,3.136-7,7.001c0,3.864,3.137,7,7,7c1.092,0,2.125-0.243,3.035-0.688c1.215,1.56,2.064,3.582,1.982,6.131l0.01,0.012
		c-3.373,4.791-5.371,10.619-5.371,16.922c0,8.835,3.912,16.743,10.072,22.142l-0.018,0.026c0,0,0.756,3.168-1.938,5.968
		c-0.719-0.064-1.443-0.013-2.146,0.155c-3.76,0.889-6.09,4.663-5.201,8.423c0.891,3.762,4.664,6.092,8.424,5.202
		s6.092-4.664,5.201-8.424c-0.25-1.063-0.725-2.014-1.367-2.796c1.236-1.54,3.01-2.832,5.512-3.34l0.004-0.009
		c3.381,1.354,7.061,2.116,10.924,2.116c7.245,0,13.868-2.625,18.999-6.96l0.012,0.01c0,0,2.447-0.382,5.611,2.81
		c-0.168,0.684-0.23,1.398-0.17,2.146c0.314,3.852,3.697,6.722,7.549,6.404c3.854-0.316,6.721-3.697,6.406-7.55
		c-0.316-3.853-3.697-6.722-7.551-6.404c-1.088,0.088-2.098,0.415-2.969,0.933c-1.338-1.452-2.35-3.399-2.477-5.947l-0.016-0.016
		c2.57-4.372,4.068-9.45,4.068-14.89c0-3.123-0.494-6.128-1.395-8.953l0.004-0.001c0,0,1.055-2.976,4.738-4.111
		c0.568,0.417,1.207,0.748,1.92,0.979c3.68,1.181,7.623-0.849,8.807-4.526C83.345,19.343,81.317,15.396,77.638,14.217"/>
	
		<path fill="none" stroke="#140A0B" stroke-width="2.6692" stroke-linecap="round" stroke-linejoin="round" stroke-miterlimit="10" d="
		M77.638,14.217c-3.68-1.182-7.625,0.846-8.805,4.525c-0.336,1.04-0.418,2.098-0.273,3.101c-1.854,0.68-4.039,0.87-6.443,0.014
		l-0.023,0.009C56.714,14.772,48.218,10.17,38.627,10.17c-6.377,0-12.264,2.048-17.086,5.491l-0.02-0.021
		c0,0-3.424-0.496-5.363-3.257c0.229-0.685,0.346-1.402,0.344-2.124c0-3.866-3.135-7.001-7-7.001c-3.863,0-7,3.136-7,7.001
		c0,3.864,3.137,7,7,7c1.092,0,2.125-0.243,3.035-0.688c1.215,1.56,2.064,3.582,1.982,6.131l0.01,0.012
		c-3.373,4.791-5.371,10.619-5.371,16.922c0,8.835,3.912,16.743,10.072,22.142l-0.018,0.026c0,0,0.756,3.168-1.938,5.968
		c-0.719-0.064-1.443-0.013-2.146,0.155c-3.76,0.889-6.09,4.663-5.201,8.423c0.891,3.762,4.664,6.092,8.424,5.202
		s6.092-4.664,5.201-8.424c-0.25-1.063-0.725-2.014-1.367-2.796c1.236-1.54,3.01-2.832,5.512-3.34l0.004-0.009
		c3.381,1.354,7.061,2.116,10.924,2.116c7.245,0,13.868-2.625,18.999-6.96l0.012,0.01c0,0,2.447-0.382,5.611,2.81
		c-0.168,0.684-0.23,1.398-0.17,2.146c0.314,3.852,3.697,6.722,7.549,6.404c3.854-0.316,6.721-3.697,6.406-7.55
		c-0.316-3.853-3.697-6.722-7.551-6.404c-1.088,0.088-2.098,0.415-2.969,0.933c-1.338-1.452-2.35-3.399-2.477-5.947l-0.016-0.016
		c2.57-4.372,4.068-9.45,4.068-14.89c0-3.123-0.494-6.128-1.395-8.953l0.004-0.001c0,0,1.055-2.976,4.738-4.111
		c0.568,0.417,1.207,0.748,1.92,0.979c3.68,1.181,7.623-0.849,8.807-4.526C83.345,19.343,81.317,15.396,77.638,14.217L77.638,14.217
		z"/>
	<path fill="#8ED0B8" d="M18.182,27.286c0,0,3.068,1.175,5.438-1.014c3.289-3.034,1.771-6.153,1.771-6.153"/>
	
		<path fill="none" stroke="#140A0B" stroke-width="2.6692" stroke-linecap="round" stroke-linejoin="round" stroke-miterlimit="10" d="
		M18.182,27.286c0,0,3.068,1.175,5.438-1.014c3.289-3.034,1.771-6.153,1.771-6.153"/>
	<path fill="#8ED0B8" d="M57.62,25.297c0,0-1.877,2.697-0.324,5.521c2.156,3.92,5.549,3.197,5.549,3.197"/>
	
		<path fill="none" stroke="#140A0B" stroke-width="2.6692" stroke-linecap="round" stroke-linejoin="round" stroke-miterlimit="10" d="
		M57.62,25.297c0,0-1.877,2.697-0.324,5.521c2.156,3.92,5.549,3.197,5.549,3.197"/>
	<path fill="#8ED0B8" d="M60.315,50.918c0,0-3.092-1.112-5.416,1.122c-3.227,3.103-1.645,6.188-1.645,6.188"/>
	
		<path fill="none" stroke="#140A0B" stroke-width="2.6692" stroke-linecap="round" stroke-linejoin="round" stroke-miterlimit="10" d="
		M60.315,50.918c0,0-3.092-1.112-5.416,1.122c-3.227,3.103-1.645,6.188-1.645,6.188"/>
	<path fill="#8ED0B8" d="M30.262,61.114c0,0,0.166-3.28-2.648-4.854c-3.906-2.184-6.4,0.228-6.4,0.228"/>
	
		<path fill="none" stroke="#140A0B" stroke-width="2.6692" stroke-linecap="round" stroke-linejoin="round" stroke-miterlimit="10" d="
		M30.262,61.114c0,0,0.166-3.28-2.648-4.854c-3.906-2.184-6.4,0.228-6.4,0.228"/>
	<path fill="#8ED0B8" d="M44.485,22.036c0,3.072-2.491,5.564-5.565,5.564c-3.072,0-5.562-2.492-5.562-5.564s2.49-5.564,5.562-5.564
		C41.995,16.472,44.485,18.965,44.485,22.036"/>
	
		<path fill="none" stroke="#140A0B" stroke-width="2.6692" stroke-linecap="round" stroke-linejoin="round" stroke-miterlimit="10" d="
		M44.485,22.036c0,3.072-2.491,5.564-5.565,5.564c-3.072,0-5.562-2.492-5.562-5.564s2.49-5.564,5.562-5.564
		C41.995,16.472,44.485,18.965,44.485,22.036z"/>
	<path fill="#F0576C" d="M31.303,40.816c0,3.073-2.49,5.563-5.564,5.563c-3.072,0-5.562-2.49-5.562-5.563
		c0-3.072,2.49-5.563,5.562-5.563C28.813,35.253,31.303,37.744,31.303,40.816"/>
	
		<path fill="none" stroke="#140A0B" stroke-width="2.6692" stroke-linecap="round" stroke-linejoin="round" stroke-miterlimit="10" d="
		M31.303,40.816c0,3.073-2.49,5.563-5.564,5.563c-3.072,0-5.562-2.49-5.562-5.563c0-3.072,2.49-5.563,5.562-5.563
		C28.813,35.253,31.303,37.744,31.303,40.816z"/>
	<path fill="#8ED0B8" d="M47.175,54.435c0,3.073-2.49,5.564-5.565,5.564c-3.072,0-5.564-2.491-5.564-5.564s2.492-5.562,5.564-5.562
		C44.685,48.872,47.175,51.361,47.175,54.435"/>
	
		<path fill="none" stroke="#140A0B" stroke-width="2.6692" stroke-linecap="round" stroke-linejoin="round" stroke-miterlimit="10" d="
		M47.175,54.435c0,3.073-2.49,5.564-5.565,5.564c-3.072,0-5.564-2.491-5.564-5.564s2.492-5.562,5.564-5.562
		C44.685,48.872,47.175,51.361,47.175,54.435z"/>
</g>
</svg>
