<?xml version="1.0" encoding="utf-8"?>
<!-- Generator: Adobe Illustrator 16.0.0, SVG Export Plug-In . SVG Version: 6.00 Build 0)  -->
<!DOCTYPE svg PUBLIC "-//W3C//DTD SVG 1.1//EN" "http://www.w3.org/Graphics/SVG/1.1/DTD/svg11.dtd">
<svg version="1.1" id="Layer_1" xmlns="http://www.w3.org/2000/svg" xmlns:xlink="http://www.w3.org/1999/xlink" x="0px" y="0px"
	 width="85px" height="85px" viewBox="0 0 85 85" enable-background="new 0 0 85 85" xml:space="preserve">
<g>
	<polyline fill="#85C8EB" points="80.902,33.146 3.9,33.146 3.9,61.849 80.902,61.849 	"/>
	<polyline fill="#D3BD8C" points="3.9,61.851 3.9,81.237 81.098,81.237 81.098,61.851 	"/>
	<g>
		<rect x="55.475" y="47.433" fill="#B7B3AC" width="3.535" height="24.646"/>
		<path fill="#B7B3AC" d="M59.01,28.736V25.79c0-0.978-0.791-1.77-1.768-1.77c-0.979,0-1.77,0.792-1.77,1.77v2.946H59.01z"/>
	</g>
	<g>
		<path fill="#B8E5F4" d="M78.459,3.763h-3.682h-1.854h-1.635h-1.854h-3.682c-1.457,0-2.639,1.182-2.639,2.64
			c0,0.388,0.086,0.753,0.234,1.084h-1.201h-6.209c-1.457,0-2.641,1.183-2.641,2.64c0,1.459,1.184,2.641,2.641,2.641h6.209H64h1.635
			h1.854h3.682c1.459,0,2.641-1.182,2.641-2.641c0-0.387-0.084-0.752-0.234-1.084h1.201h3.682c1.459,0,2.641-1.182,2.641-2.64
			C81.098,4.944,79.918,3.763,78.459,3.763z"/>
		<circle fill="#B8E5F4" cx="46.168" cy="10.125" r="2.639"/>
	</g>
	<path fill="#FFA233" d="M12.686,20.349c0.998,1,2.376,1.617,3.899,1.617c3.047,0,5.518-2.471,5.518-5.517
		c0-3.047-2.471-5.516-5.518-5.516c-3.045,0-5.516,2.469-5.516,5.516C11.07,17.972,11.688,19.351,12.686,20.349"/>
	<polygon fill="#F25D4E" points="59.42,28.736 55.064,28.736 33.447,47.431 81.037,47.431 	"/>
	<g opacity="0.1">
		<polygon fill="#231F20" points="59.42,28.736 55.064,28.736 33.447,47.431 38.08,47.431 59.559,28.856 		"/>
	</g>
	<g>
		<path fill="#231F20" d="M16.586,23.228c-1.812,0-3.513-0.706-4.794-1.985c-1.279-1.28-1.984-2.983-1.984-4.793
			c0-3.737,3.041-6.778,6.779-6.778s6.779,3.041,6.779,6.778C23.365,20.188,20.324,23.228,16.586,23.228z M16.586,12.196
			c-2.345,0-4.253,1.908-4.253,4.253c0,1.136,0.443,2.204,1.246,3.007c0.804,0.805,1.871,1.246,3.007,1.246
			c2.345,0,4.253-1.908,4.253-4.252C20.839,14.104,18.931,12.196,16.586,12.196z"/>
		<path fill="#231F20" d="M29.273,17.712h-3.584c-0.699,0-1.264-0.564-1.264-1.263s0.564-1.263,1.264-1.263h3.584
			c0.697,0,1.264,0.564,1.264,1.263S29.97,17.712,29.273,17.712z"/>
		<path fill="#231F20" d="M7.486,17.712H3.9c-0.697,0-1.263-0.564-1.263-1.263s0.565-1.263,1.263-1.263h3.586
			c0.697,0,1.262,0.564,1.262,1.263S8.183,17.712,7.486,17.712z"/>
		<path fill="#231F20" d="M23.023,11.276c-0.324,0-0.646-0.124-0.895-0.37c-0.494-0.493-0.494-1.293,0-1.787l2.535-2.534
			c0.494-0.494,1.293-0.494,1.787,0c0.492,0.493,0.492,1.293,0,1.787l-2.535,2.534C23.667,11.153,23.343,11.276,23.023,11.276z"/>
		<path fill="#231F20" d="M7.615,26.683c-0.322,0-0.646-0.123-0.893-0.369c-0.493-0.493-0.493-1.293,0-1.786l2.535-2.536
			c0.494-0.492,1.293-0.492,1.787,0c0.494,0.493,0.492,1.293,0,1.786l-2.535,2.536C8.262,26.56,7.939,26.683,7.615,26.683z"/>
		<path fill="#231F20" d="M16.586,8.611L16.586,8.611c-0.698,0-1.263-0.565-1.263-1.265V3.763c0-0.698,0.565-1.264,1.263-1.264l0,0
			c0.698,0,1.263,0.566,1.263,1.264v3.586C17.849,8.046,17.283,8.611,16.586,8.611z"/>
		<path fill="#231F20" d="M16.586,30.398c-0.698,0-1.263-0.565-1.263-1.263V25.55c0-0.697,0.564-1.262,1.263-1.262
			s1.263,0.564,1.263,1.262v3.586C17.849,29.833,17.283,30.398,16.586,30.398z"/>
		<path fill="#231F20" d="M10.15,11.276c-0.322,0-0.646-0.124-0.893-0.37L6.722,8.372c-0.494-0.494-0.494-1.294,0-1.787
			c0.493-0.492,1.293-0.492,1.786,0l2.534,2.535c0.494,0.493,0.494,1.293,0,1.786C10.797,11.153,10.474,11.276,10.15,11.276z"/>
		<path fill="#231F20" d="M25.558,26.683c-0.324,0-0.648-0.123-0.895-0.369l-2.535-2.535c-0.494-0.494-0.494-1.293,0-1.787
			c0.492-0.492,1.293-0.492,1.785,0l2.537,2.536c0.492,0.493,0.492,1.293,0,1.786C26.203,26.56,25.88,26.683,25.558,26.683z"/>
		<path fill="#231F20" d="M17.992,39.06H9.287c-0.698,0-1.264,0.564-1.264,1.263s0.565,1.263,1.264,1.263h8.705
			c0.699,0,1.264-0.564,1.264-1.263S18.691,39.06,17.992,39.06z"/>
		<path fill="#231F20" d="M82.361,33.146c0-0.698-0.564-1.263-1.264-1.263H65.432c-0.131,0-0.258,0.02-0.375,0.057l-4.783-4.137
			v-2.016c0-1.671-1.359-3.031-3.031-3.031s-3.031,1.36-3.031,3.031v2.016l-4.771,4.127c-0.109-0.03-0.225-0.047-0.344-0.047H3.9
			c-0.697,0-1.263,0.564-1.263,1.263v28.704l0,0l0,0v19.387c0,0.697,0.565,1.264,1.263,1.264h77.2c0.697,0,1.264-0.564,1.264-1.264
			V61.851l0,0v-0.002V33.146H82.361z M70.736,46.169l-9.639-14.312l16.549,14.312H70.736z M57.748,70.813h-1.01V48.695h1.01V70.813z
			 M36.839,46.169l16.448-14.226l-9.58,14.226H36.839z M55.979,32.47v13.699h-0.504h-8.723L55.979,32.47z M59.01,46.169h-0.506
			V32.53l9.188,13.639H59.01L59.01,46.169z M76.209,41.585h3.627v3.137L76.209,41.585z M79.836,34.409v4.65h-5.871
			c-0.191,0-0.373,0.044-0.537,0.121l-5.518-4.771H79.836L79.836,34.409L79.836,34.409z M56.738,25.79
			c0-0.279,0.227-0.506,0.504-0.506c0.279,0,0.506,0.227,0.506,0.506v1.684h-1.01V25.79L56.738,25.79z M5.164,79.974V63.114h46.403
			c0.695,0,1.262-0.566,1.262-1.266c0-0.695-0.564-1.262-1.262-1.262H5.164V48.763h24.619c0.697,0,1.262-0.565,1.262-1.264
			c0-0.697-0.564-1.264-1.262-1.264H5.164V34.408h41.411l-5.481,4.741c-0.145-0.059-0.303-0.09-0.469-0.09H21.642
			c-0.697,0-1.264,0.564-1.264,1.263s0.566,1.263,1.264,1.263h16.635l-5.656,4.891c-0.398,0.347-0.541,0.902-0.355,1.396
			c0.184,0.494,0.654,0.822,1.184,0.822h10.928c0,0,0,0,0.002,0h0.002h9.83v4.719H9.793c-0.698,0-1.263,0.564-1.263,1.262
			c0,0.699,0.564,1.264,1.263,1.264h44.417v14.875h-8.256c-0.699,0-1.264,0.566-1.264,1.266c0,0.695,0.564,1.262,1.264,1.262h9.52
			h3.537h9.52c0.699,0,1.264-0.564,1.264-1.262c0-0.699-0.564-1.266-1.264-1.266h-8.256V55.938h15.023
			c0.697,0,1.264-0.564,1.264-1.264c0-0.697-0.564-1.262-1.264-1.262H60.275v-4.719h9.789c0,0,0,0,0.002,0h0.002h9.768v11.893
			H62.627c-0.699,0-1.264,0.564-1.264,1.262c0,0.699,0.564,1.266,1.264,1.266h17.209v16.859H5.164L5.164,79.974z"/>
		<path fill="#231F20" d="M71.17,14.028H55.941c-2.15,0-3.902-1.75-3.902-3.902s1.752-3.902,3.902-3.902h5.916
			c0.094-2.069,1.807-3.725,3.898-3.725h12.703c2.15,0,3.902,1.752,3.902,3.903s-1.752,3.901-3.902,3.901h-3.391
			C74.977,12.374,73.262,14.028,71.17,14.028z M55.941,8.749c-0.758,0-1.375,0.618-1.375,1.377c0,0.758,0.617,1.375,1.375,1.375
			H71.17c0.76,0,1.377-0.617,1.377-1.375c0-0.195-0.041-0.385-0.123-0.564c-0.176-0.391-0.143-0.846,0.092-1.205
			c0.23-0.359,0.631-0.578,1.061-0.578h4.883c0.76,0,1.377-0.618,1.377-1.376s-0.617-1.376-1.377-1.376H65.756
			c-0.758,0-1.377,0.618-1.377,1.376c0,0.194,0.043,0.384,0.125,0.565c0.176,0.391,0.143,0.845-0.092,1.205
			c-0.232,0.36-0.631,0.578-1.061,0.578h-7.41V8.749L55.941,8.749z"/>
		<path fill="#231F20" d="M46.168,14.029c-2.15,0-3.903-1.751-3.903-3.903s1.752-3.902,3.903-3.902c2.152,0,3.902,1.75,3.902,3.902
			S48.32,14.029,46.168,14.029z M46.168,8.749c-0.76,0-1.377,0.618-1.377,1.377c0,0.758,0.617,1.375,1.377,1.375
			c0.758,0,1.377-0.617,1.377-1.375C47.545,9.367,46.926,8.749,46.168,8.749z"/>
	</g>
	<g opacity="0.1">
		<rect x="5.162" y="32.197" fill="#231F20" width="2.695" height="49.04"/>
	</g>
</g>
</svg>
