<?xml version="1.0" encoding="utf-8"?>
<!-- Generator: Adobe Illustrator 16.0.0, SVG Export Plug-In . SVG Version: 6.00 Build 0)  -->
<!DOCTYPE svg PUBLIC "-//W3C//DTD SVG 1.1//EN" "http://www.w3.org/Graphics/SVG/1.1/DTD/svg11.dtd">
<svg version="1.1" id="Layer_1" xmlns="http://www.w3.org/2000/svg" xmlns:xlink="http://www.w3.org/1999/xlink" x="0px" y="0px"
	 width="85px" height="85px" viewBox="0 0 85 85" enable-background="new 0 0 85 85" xml:space="preserve">
<g>
	<path fill-rule="evenodd" clip-rule="evenodd" d="M81.148,65.148c1.342,0.068,1.35,0.068,1.325,1.442
		c-0.051,2.81-1.043,5.24-2.972,7.282c-0.162,0.172-0.392,0.28-0.589,0.417c0.043,0.071,0.086,0.143,0.129,0.213
		c0.625,0,1.25-0.007,1.874,0.002c1.044,0.016,1.548,0.493,1.557,1.514c0.015,1.665,0.016,3.33-0.001,4.995
		c-0.01,0.972-0.521,1.456-1.504,1.484c-0.167,0.005-0.333,0.001-0.5,0.001c-25.308,0-50.615,0-75.923,0
		c-1.691,0-2.021-0.337-2.022-2.054c0-1.442-0.006-2.886,0.002-4.328c0.006-1.137,0.481-1.608,1.625-1.612
		c2.525-0.006,5.05-0.005,7.576,0.002c0.346,0.001,0.609-0.01,0.777-0.414c1.042-2.497,2.112-4.98,3.223-7.585
		c-1.228,0-2.375,0-3.522,0c-1.387,0-2.775,0.007-4.162-0.001c-3.215-0.02-5.508-2.295-5.515-5.501
		c-0.012-5.384,0.017-10.768-0.025-16.15c-0.006-0.827,0.179-1.167,1.019-1.005c0.104,0.02,0.22-0.015,0.33-0.023
		c1.153-0.458,1.582-0.175,1.585,1.1c0.012,5.049,0.004,10.097,0.005,15.146c0,0.36-0.011,0.722,0.013,1.081
		c0.097,1.434,1.021,2.393,2.459,2.42c2.662,0.05,5.326,0.009,7.988,0.02c0.674,0.003,0.982-0.364,1.218-0.924
		c0.797-1.892,1.637-3.765,2.415-5.664c0.398-0.974,1.05-1.422,2.102-1.415c2.83,0.02,5.659-0.011,8.488,0.015
		c1.511,0.014,2.121,0.771,1.85,2.249c-0.175,0.954-0.412,1.896-0.598,2.849c-0.214,0.646-0.328,1.317-0.456,1.984
		c-0.171,0.889-0.163,0.896,0.775,0.908c4.19-0.032,8.378-0.006,12.567-0.016c0.388-0.001,0.777,0.018,1.163-0.037
		c1.12-0.157,1.92-0.945,2.093-2.062c0.069-0.44,0.05-0.886,0.05-1.329c0.001-7.268-0.052-14.535,0.027-21.802
		c0.03-2.731-1.101-3.6-3.546-3.586c-10.568,0.061-21.136,0.026-31.704,0.026c-1.359,0-2.719-0.013-4.078,0.004
		c-1.895,0.024-2.783,0.924-2.812,2.832c-0.013,0.86,0.014,1.72-0.009,2.58c-0.032,1.187-0.48,1.465-1.595,1.011
		c-1.327-0.067-1.331-0.068-1.326-1.444c0.004-1.082-0.075-2.175,0.05-3.243c0.324-2.754,2.595-4.663,5.47-4.665
		c11.571-0.006,23.143-0.002,34.713-0.002c0.526,0,1.056,0.022,1.581-0.004c1.096-0.056,2.152,0.096,3.171,0.507
		c0.879,0.134,1.477,0.693,1.97,1.365c0.623,0.85,1.062,1.792,1.202,2.854c0.079,1.188,0.019,2.377,0.038,3.565
		c0.007,0.412,0.036,0.801,0.589,0.808c0.561,0.008,1.134,0.026,1.432-0.588c0.118-0.243-0.029-0.422-0.22-0.564
		c-0.2-0.148-0.419-0.269-0.63-0.4c-1-0.626-1.045-0.844-0.384-1.833c0.087-0.109,0.163-0.226,0.243-0.338
		c0.698-0.982,0.811-1.006,1.89-0.402c4.374,2.448,9.707,1.786,13.306-1.73c2.115-2.067,3.187-4.649,3.301-7.602
		c0.054-1.386-0.02-2.776,0.021-4.162c0.021-0.729-0.242-1.119-0.951-1.321c-1.731-0.494-3.306-1.272-4.559-2.625
		c-0.707-0.763-1.267-1.609-1.704-2.547c-0.472-1.011-0.489-1.025-1.508-0.493c-3,1.569-6.169,2.636-9.5,3.229
		c-0.956,0.17-1.917,0.299-2.887,0.359c-0.962,0.06-1.122,0.2-1.095,1.155c0.08,2.825-0.226,5.659,0.232,8.477
		c0.124,0.761-0.297,1.038-1.312,0.987c-0.461-0.036-0.877,0.425-1.332,0.189c-1.851-0.958-3.755-1.849-4.316-4.174
		c-0.638-2.646,0.66-5.286,3.177-6.326c0.196-0.081,0.398-0.15,0.593-0.38c-0.417,0-0.834,0.014-1.25-0.003
		c-0.733-0.03-1.311-0.421-1.316-1.132c-0.022-2.597-0.301-5.217,0.493-7.765c1.534-4.916,6.141-8.381,11.286-8.407
		c2.104-0.011,4.218-0.184,6.313,0.116c1.489,0.214,2.702,0.974,3.627,2.148c0.273,0.347,0.587,0.459,0.979,0.521
		c4.549,0.722,7.829,4.492,7.903,9.104c0.027,1.665,0.019,3.33-0.002,4.994c-0.005,0.414,0.098,0.611,0.52,0.774
		c2.256,0.873,3.57,2.883,3.482,5.23c-0.085,2.24-1.592,4.167-3.874,4.865c-0.42,0.128-0.548,0.327-0.661,0.71
		c-0.935,3.165-2.723,5.748-5.452,7.613c-0.66,0.45-0.802,0.929-0.606,1.583c0.209,0.702,0.744,0.979,1.467,0.975
		c1.72-0.011,3.44-0.021,5.16,0.001c4.405,0.059,8.05,2.985,9.064,7.27c0.186,0.784,0.243,1.585,0.241,2.394
		c-0.009,3.551-0.034,7.103,0.019,10.654c0.013,0.832-0.187,1.162-1.021,1.003c-0.105-0.021-0.221,0.014-0.33,0.022
		c-1.123,0.448-1.561,0.174-1.586-1.02c-0.022-1.054-0.025-2.11,0.001-3.164c0.016-0.683-0.265-0.938-0.938-0.926
		c-1.388,0.025-2.775,0.001-4.163,0.011c-0.965,0.006-1.052,0.088-1.056,1.045c-0.011,2.388-0.003,4.774-0.005,7.161
		c0,0.361,0.015,0.724-0.055,1.08c-0.141,0.725-0.599,1.182-1.323,1.317c-0.384,0.071-0.774,0.053-1.163,0.053
		c-5.246,0.001-10.492-0.002-15.738,0.002c-2.879,0.001-4.372,1.488-4.371,4.358c0,1.932-0.158,1.792,1.806,1.792
		c6.356,0.003,12.713,0.031,19.069-0.011c3.406-0.023,5.862-1.639,7.301-4.739c0.486-1.048,0.612-2.181,0.636-3.329
		C79.588,64.97,80.025,64.699,81.148,65.148z"/>
	<path fill-rule="evenodd" clip-rule="evenodd" fill="#D4D4D2" d="M31.151,60.784c0.204-1.031,0.403-2.063,0.611-3.094
		c0.231-1.141-0.311-1.835-1.487-1.84c-2.943-0.011-5.885,0.009-8.828-0.011c-0.799-0.005-1.295,0.321-1.602,1.054
		c-0.886,2.119-1.811,4.223-2.693,6.344c-0.184,0.441-0.399,0.625-0.909,0.62c-2.748-0.03-5.497-0.005-8.245-0.019
		c-1.693-0.008-2.804-1.127-2.807-2.83c-0.008-5.247-0.003-10.494-0.003-15.74c0-1.373,0-1.373-1.338-1.441c0-0.871,0-1.741,0-2.611
		c1.338-0.068,1.338-0.068,1.338-1.44c0-0.75-0.002-1.499,0-2.248c0.007-1.924,1.066-2.999,2.974-3
		c5.468-0.004,10.935-0.001,16.403-0.001c6.716,0,13.433-0.001,20.149,0c2.093,0,3.115,1.021,3.115,3.11
		c0.002,7.716,0.002,15.432,0,23.148c-0.001,2.028-1.04,3.06-3.085,3.058c-4.412-0.005-8.824-0.018-13.236-0.026
		C31.004,62.85,30.997,61.826,31.151,60.784z"/>
	<path fill-rule="evenodd" clip-rule="evenodd" fill="#FCC7A1" d="M50.495,36.512c-0.363-1.838-1.339-3.235-2.985-4.149
		c-0.176-0.603-0.351-1.205-0.525-1.807c1.165-0.422,1.135-0.418,0.995-1.649c-0.325-2.876-0.064-5.766-0.157-8.647
		c-0.019-0.57,0.382-0.446,0.668-0.468c2.552-0.192,5.053-0.646,7.498-1.406c2.176-0.676,4.263-1.555,6.25-2.669
		c0.312-0.176,0.525-0.335,0.701,0.195c0.997,2.991,3.103,4.832,6.07,5.769c1.479,0.467,1.498,0.487,1.468,2.065
		c-0.038,1.992,0.173,3.993-0.289,5.969c-1.738,7.428-10.024,11.077-16.638,7.314c-0.986-0.561-0.986-0.561-1.66,0.393
		c-0.062,0.087-0.136,0.165-0.204,0.247C51.237,37.337,50.75,37.044,50.495,36.512z"/>
	<path fill-rule="evenodd" clip-rule="evenodd" fill="#FCC7A1" d="M81.148,65.148c-1.318,0.067-1.318,0.067-1.339,1.36
		c-0.07,4.475-3.525,7.963-8.004,7.984c-6.885,0.033-13.77,0.002-20.654,0.024c-0.571,0.002-0.7-0.181-0.666-0.701
		c0.041-0.636,0.003-1.276,0.012-1.914c0.033-2.33,1.731-4.05,4.062-4.057c5.552-0.016,11.104-0.005,16.656-0.005
		c1.543-0.001,1.933-0.383,1.934-1.896c0.001-2.692,0.013-5.386-0.011-8.078c-0.005-0.517,0.094-0.714,0.667-0.701
		c1.804,0.04,3.609,0.03,5.413,0.005c0.463-0.007,0.617,0.112,0.604,0.593c-0.032,1.276,0.039,2.557-0.029,3.83
		c-0.042,0.766,0.191,1.051,0.941,0.922c0.133-0.022,0.275,0.014,0.414,0.022C81.148,63.407,81.148,64.277,81.148,65.148z"/>
	<path fill-rule="evenodd" clip-rule="evenodd" fill="#DD5540" d="M49.163,67.829c0-1.074,0.013-1.878-0.007-2.681
		c-0.008-0.329,0.112-0.577,0.299-0.833c0.727-0.995,1.048-2.114,1.045-3.35c-0.012-5.438-0.009-10.875,0.007-16.312
		c0.001-0.257-0.228-0.664,0.204-0.775c0.406-0.104,0.466,0.321,0.613,0.561c3.671,5.965,11.872,6.421,16.063,0.81
		c0.817-1.094,1.628-1.543,2.938-1.411c1.348,0.136,2.716-0.107,4.065,0.151c3.1,0.596,5.345,3.23,5.411,6.388
		c0.025,1.191-0.009,2.386,0.017,3.578c0.01,0.43-0.113,0.575-0.559,0.57c-1.858-0.023-3.718-0.023-5.576,0
		c-0.463,0.006-0.554-0.175-0.543-0.584c0.023-0.943-0.018-1.888,0.017-2.83c0.019-0.479-0.146-0.596-0.61-0.604
		c-2.064-0.043-2.064-0.059-2.064,1.972c0,3.967-0.018,7.935,0.017,11.901c0.006,0.673-0.195,0.814-0.831,0.811
		c-4.549-0.026-9.1,0.045-13.648-0.037C53.415,65.106,51.06,65.518,49.163,67.829z"/>
	<path fill-rule="evenodd" clip-rule="evenodd" fill="#834E3A" d="M42.412,79.834c-12.074,0-24.147-0.008-36.221,0.017
		c-0.77,0.002-1.061-0.136-1.025-0.98c0.071-1.699,0.019-1.701,1.699-1.701c23.926,0,47.852-0.002,71.776,0.002
		c1.337,0,1.158-0.172,1.167,1.126c0.011,1.537,0.003,1.537-1.508,1.537C66.338,79.834,54.375,79.834,42.412,79.834z"/>
	<path fill-rule="evenodd" clip-rule="evenodd" fill="#DEDEDC" d="M15.204,74.503c0.841-1.956,1.637-3.805,2.43-5.654
		c1.383-3.227,2.776-6.449,4.135-9.687c0.197-0.47,0.404-0.675,0.947-0.665c2.021,0.038,4.042,0.016,6.134,0.016
		c-0.574,2.703-1.13,5.348-1.697,7.99c-0.534,2.488-1.091,4.972-1.605,7.465c-0.083,0.405-0.208,0.547-0.629,0.545
		C21.731,74.496,18.544,74.503,15.204,74.503z"/>
	<path fill-rule="evenodd" clip-rule="evenodd" fill="#834E3A" d="M48.22,7.708c1.42-1.365,2.937-2.056,4.628-2.327
		c2.341-0.374,4.709-0.186,7.061-0.133c1.625,0.037,2.58,1.198,2.58,2.806c0,1.249-0.023,2.499,0.011,3.747
		c0.015,0.508-0.152,0.792-0.596,1.052c-4.031,2.36-8.341,3.827-13.014,4.22c-1.026,0.086-2.047,0.108-3.072,0.128
		c-0.338,0.007-0.727,0.049-0.645-0.477c0.062-0.396-0.298-0.961,0.504-1.077c2.302-0.333,4.587-0.766,6.817-1.444
		c2.743-0.835,5.398-1.854,7.727-3.592c0.439-0.328,0.517-0.528,0.106-0.954c-1.287-1.336-1.256-1.325-2.882-0.384
		c-3.188,1.845-6.685,2.786-10.275,3.432c-0.463,0.083-0.938,0.114-1.394,0.225c-0.459,0.111-0.486-0.115-0.392-0.436
		c0.156-0.53,0.351-1.05,0.514-1.579c0.133-0.431,0.479-0.37,0.81-0.398c2.127-0.179,4.239-0.429,6.276-1.13
		c0.617-0.212,0.807-0.454,0.422-1.048c-0.314-0.485-0.429-1.205-0.853-1.485c-0.408-0.269-1.01,0.249-1.545,0.35
		c-0.435,0.083-0.862,0.204-1.298,0.285C49.305,7.566,48.894,7.612,48.22,7.708z"/>
	<path fill-rule="evenodd" clip-rule="evenodd" fill="#7C4A38" d="M70.467,19.241c-3.085-0.47-5.288-2.979-5.311-6.017
		c-0.012-1.525,0.017-3.051-0.013-4.576c-0.012-0.581,0.172-0.627,0.679-0.47c2.489,0.771,4.448,3.088,4.623,5.745
		C70.561,15.687,70.467,17.464,70.467,19.241z"/>
	<path fill-rule="evenodd" clip-rule="evenodd" fill="#FCC7A1" d="M64.14,41.522c0.276,0.376,0.482,0.855,0.846,1.108
		c0.731,0.511,0.463,0.888,0.028,1.403c-2.824,3.343-8.133,3.291-10.819-0.117c-0.292-0.371-0.442-0.628,0.096-0.953
		c0.364-0.219,0.618-0.621,0.922-0.941c0.352-0.285,0.735-0.178,1.111-0.082c2.354,0.6,4.665,0.391,6.951-0.353
		C63.553,41.498,63.833,41.308,64.14,41.522z"/>
	<path fill-rule="evenodd" clip-rule="evenodd" fill="#FCC7A1" d="M33.333,69.173c0.039-0.18,0.044-0.264,0.075-0.336
		c0.322-0.764,0.455-1.797,1.03-2.208c0.538-0.384,1.548-0.116,2.35-0.119c1.744-0.006,3.489-0.002,5.332-0.002
		c-0.335,0.846-0.656,1.606-0.938,2.382c-0.14,0.385-0.435,0.273-0.689,0.28c-1.679,0.046-1.991,0.356-1.991,2.005
		c0,0.916-0.027,1.833,0.011,2.748c0.021,0.483-0.147,0.586-0.606,0.592c-2.07,0.027-2.07,0.042-2.07-2.032
		c0-0.527,0.002-1.055,0-1.582c-0.007-1.264-0.447-1.715-1.684-1.727C33.904,69.171,33.655,69.173,33.333,69.173z"/>
	<path fill-rule="evenodd" clip-rule="evenodd" fill="#D4D4D2" d="M44.501,74.503c-0.942,0-1.884-0.018-2.826,0.009
		c-0.393,0.011-0.502-0.104-0.52-0.507c-0.092-2.167-0.105-2.167,2.01-2.167c1.358,0,2.717,0.02,4.073-0.01
		c0.464-0.011,0.598,0.117,0.604,0.592c0.029,2.084,0.047,2.083-2.012,2.083C45.388,74.503,44.944,74.503,44.501,74.503z"/>
	<path fill-rule="evenodd" clip-rule="evenodd" fill="#D4D4D2" d="M28.217,74.503c-0.009-0.113-0.027-0.172-0.015-0.223
		c0.19-0.797,0.145-1.872,0.649-2.307c0.467-0.402,1.525-0.13,2.322-0.133c2.022-0.008,2.003-0.003,2.011,1.986
		c0.002,0.526-0.115,0.707-0.673,0.69C31.08,74.475,29.646,74.503,28.217,74.503z"/>
	<path fill-rule="evenodd" clip-rule="evenodd" fill="#FCBE91" d="M64.14,41.522c-1.849,0.722-3.755,1.09-5.749,1.006
		c-1.084-0.046-2.099-0.468-3.179-0.505c0.259-0.931,0.686-1.309,1.793-1.047c1.9,0.45,3.837,0.238,5.729-0.268
		C63.818,40.418,63.82,40.425,64.14,41.522z"/>
	<path fill-rule="evenodd" clip-rule="evenodd" fill="#FDFDFD" d="M50.495,36.512c0.397,0.385,1.021,0.538,1.191,1.157
		c-0.645,1.009-0.645,1.009,0.447,1.633c0.096,0.055,0.212,0.086,0.29,0.159c0.236,0.224,0.799,0.147,0.698,0.671
		c-0.095,0.494-0.415,0.878-0.911,0.979c-0.455,0.092-0.935,0.056-1.403,0.078c-0.43,0.021-0.308-0.302-0.309-0.52
		C50.491,39.283,50.495,37.897,50.495,36.512z"/>
	<path fill-rule="evenodd" clip-rule="evenodd" fill="#FDFDFD" d="M43.938,69.173c0.264-0.654,0.526-1.171,0.678-1.719
		c0.192-0.694,0.525-1.018,1.304-1.034c0.481-0.01,0.618,0.008,0.587,0.495c-0.036,0.576-0.041,1.158,0.002,1.733
		c0.035,0.464-0.155,0.551-0.562,0.532C45.314,69.151,44.681,69.173,43.938,69.173z"/>
	<path fill-rule="evenodd" clip-rule="evenodd" fill="#FAB481" d="M45.13,22.926c0,1.552,0,2.991,0,4.449
		C43.431,26.413,43.392,24.277,45.13,22.926z"/>
	<path fill-rule="evenodd" clip-rule="evenodd" fill="#FAB481" d="M73.147,22.959c1.752,1.154,1.757,3.296,0,4.489
		c0-0.796,0-1.521,0-2.245C73.147,24.488,73.147,23.773,73.147,22.959z"/>
	<path fill-rule="evenodd" clip-rule="evenodd" fill="#FBFBFB" d="M31.452,66.54c-0.321,0.799-0.604,1.542-0.917,2.273
		c-0.185,0.431-0.205,0.422-1.214,0.284c0.089-0.431,0.172-0.86,0.269-1.286C29.892,66.471,29.894,66.472,31.452,66.54z"/>
	<path fill-rule="evenodd" clip-rule="evenodd" fill="#C9C9C7" d="M31.151,60.784c0.119,1.011,0.238,2.021,0.357,3.031
		c-1.059,0.059-1.067,0.057-0.845-0.974C30.811,62.153,30.987,61.47,31.151,60.784z"/>
	<path fill-rule="evenodd" clip-rule="evenodd" d="M10.579,41.188c-0.72,0-1.441-0.02-2.16,0.008
		c-0.407,0.016-0.566-0.066-0.58-0.531c-0.062-2.142-0.08-2.142,2.037-2.142c0.914,0,1.829,0.018,2.742-0.008
		c0.406-0.011,0.566,0.067,0.58,0.532c0.062,2.142,0.08,2.141-2.037,2.141C10.967,41.188,10.773,41.188,10.579,41.188z"/>
	<path fill-rule="evenodd" clip-rule="evenodd" d="M18.579,41.188c-0.692,0-1.386-0.025-2.077,0.009
		c-0.469,0.023-0.669-0.054-0.671-0.61c-0.007-2.063-0.032-2.063,2.035-2.063c0.886,0,1.773,0.023,2.659-0.009
		c0.469-0.017,0.669,0.055,0.671,0.612c0.006,2.062,0.032,2.062-2.035,2.062C18.967,41.188,18.773,41.188,18.579,41.188z"/>
	<path fill-rule="evenodd" clip-rule="evenodd" d="M42.493,41.188c-0.222,0-0.443,0-0.665,0c-2.22,0-2.211,0.001-2.003-2.254
		c0.03-0.327,0.126-0.418,0.439-0.416c1.495,0.012,2.991,0.013,4.486-0.001c0.331-0.003,0.455,0.115,0.415,0.432
		c-0.006,0.055-0.002,0.111,0,0.166c0.055,2.073,0.055,2.073-2.008,2.073C42.936,41.188,42.714,41.188,42.493,41.188z"/>
	<path fill-rule="evenodd" clip-rule="evenodd" d="M34.583,38.523c0.222,0,0.444-0.013,0.665,0.002
		c0.625,0.043,1.575-0.282,1.802,0.134c0.316,0.579,0.097,1.446,0.124,2.188c0.012,0.325-0.174,0.343-0.419,0.342
		c-1.496-0.004-2.992-0.009-4.487,0.004c-0.316,0.002-0.407-0.094-0.437-0.418c-0.204-2.253-0.214-2.252,2.006-2.252
		C34.084,38.523,34.333,38.523,34.583,38.523z"/>
	<path fill-rule="evenodd" clip-rule="evenodd" d="M26.589,38.523c0.194,0,0.388,0,0.582,0c2.214,0,2.206,0,2.013,2.244
		c-0.027,0.315-0.102,0.43-0.428,0.427c-1.496-0.014-2.992-0.013-4.487,0c-0.317,0.002-0.469-0.092-0.425-0.421
		c0.003-0.027,0.001-0.055,0-0.083c-0.117-2.167-0.117-2.167,1.997-2.167C26.09,38.523,26.339,38.523,26.589,38.523z"/>
	<path fill-rule="evenodd" clip-rule="evenodd" d="M58.474,31.864c-1.497-0.01-2.892-0.394-4.213-1.094
		c-0.428-0.227-0.504-0.445-0.179-0.798c0.019-0.02,0.033-0.044,0.049-0.067c0.335-0.507,0.564-1.188,1.034-1.475
		c0.477-0.291,1.004,0.345,1.542,0.5c1.569,0.452,3.073,0.341,4.508-0.412c0.435-0.228,0.681-0.233,0.896,0.228
		c0.104,0.224,0.263,0.422,0.398,0.631c0.775,1.192,0.779,1.2-0.564,1.77C60.838,31.615,59.683,31.876,58.474,31.864z"/>
	<path fill-rule="evenodd" clip-rule="evenodd" d="M53.192,26.528c-1.507,0.011-2.691-1.154-2.695-2.652
		c-0.004-1.501,1.169-2.675,2.673-2.674c1.456,0.001,2.637,1.163,2.654,2.61C55.842,25.32,54.683,26.517,53.192,26.528z"/>
	<path fill-rule="evenodd" clip-rule="evenodd" d="M61.157,23.796c0.026-1.487,1.236-2.627,2.753-2.594
		c1.478,0.032,2.615,1.258,2.573,2.774c-0.04,1.442-1.236,2.569-2.712,2.553C62.289,26.513,61.13,25.301,61.157,23.796z"/>
	<path fill-rule="evenodd" clip-rule="evenodd" d="M59.785,54.516c-2.336-0.019-4.539-0.571-6.635-1.602
		c-0.49-0.241-0.694-0.448-0.321-0.966c0.354-0.491,0.52-1.251,0.979-1.497c0.497-0.267,1.075,0.364,1.629,0.572
		c2.983,1.12,5.957,1.115,8.908-0.074c0.539-0.218,0.771-0.228,1.043,0.36c0.885,1.903,0.916,1.893-1.109,2.511
		C62.815,54.267,61.321,54.526,59.785,54.516z"/>
</g>
</svg>
