<?xml version="1.0" encoding="utf-8"?>
<!-- Generator: Adobe Illustrator 16.0.2, SVG Export Plug-In . SVG Version: 6.00 Build 0)  -->
<!DOCTYPE svg PUBLIC "-//W3C//DTD SVG 1.1//EN" "http://www.w3.org/Graphics/SVG/1.1/DTD/svg11.dtd">
<svg version="1.1" id="Layer_1" xmlns="http://www.w3.org/2000/svg" xmlns:xlink="http://www.w3.org/1999/xlink" x="0px" y="0px"
	 width="85px" height="85px" viewBox="0 0 85 85" enable-background="new 0 0 85 85" xml:space="preserve">
<g>
	<path d="M53.844,69.758c2.605-2.525,5.176-5.086,7.783-7.607c3.125-3.02,3.49-7.211,0.873-10.668
		c-1.287-1.701-2.594-3.389-3.906-5.066c-1.824-2.336-4.199-3.807-7.09-4.459c-1.273-0.287-2.572-0.225-3.947-0.244
		c5.336-4.305,4.156-10.338,1.539-13.186c-3.225-3.51-8.429-3.984-12.107-0.992c-2.244,1.828-3.357,4.24-3.27,7.143
		c0.088,2.91,1.453,5.191,3.854,7.039c-0.471,0-0.736,0.006-1.002,0c-4.369-0.092-7.844,1.633-10.467,5.122
		c-1.137,1.514-2.313,2.996-3.463,4.498c-2.729,3.561-2.418,7.742,0.791,10.875c2.539,2.48,5.068,4.967,7.6,7.453
		c0.238,0.236,0.543,0.424,0.527,0.846c-0.035,0.934,0.031,1.873-0.066,2.797c-0.281,2.623-0.629,5.238-0.934,7.859
		c-0.023,0.197-0.236,0.555,0.125,0.604c0.793,0.105,1.582,0.389,2.398,0.158c0.023-0.291,0.037-0.584,0.07-0.875
		c0.305-2.566,0.836-5.131,0.879-7.703c0.125-7.229,0.051-14.463,0.053-21.693c0-0.594-0.258-1.049-0.826-1.24
		c-0.582-0.195-1.098-0.045-1.498,0.457c-1.16,1.463-2.336,2.914-3.49,4.381c-0.961,1.225-0.875,2.406,0.252,3.482
		c0.85,0.811,1.723,1.594,2.578,2.398c0.17,0.158,0.41,0.287,0.412,0.563c0.006,1.553,0.002,3.105,0.002,4.887
		c-2.463-2.438-4.822-4.635-7.016-6.988c-1.596-1.715-1.576-4.359-0.145-6.289c1.416-1.904,2.842-3.807,4.357-5.633
		c1.814-2.186,4.195-3.354,7.051-3.379c4.482-0.037,8.966-0.041,13.449,0c2.947,0.027,5.369,1.256,7.219,3.541
		c1.375,1.699,2.686,3.451,4.016,5.188c1.809,2.359,1.619,5.123-0.502,7.219c-1.992,1.971-4.002,3.924-6.01,5.877
		c-0.119,0.115-0.201,0.336-0.48,0.246c0-1.457,0.012-2.92-0.008-4.383c-0.004-0.369,0.174-0.586,0.418-0.813
		c0.924-0.848,1.854-1.691,2.746-2.572s1.086-2.025,0.383-2.975c-1.24-1.67-2.549-3.289-3.881-4.887
		c-0.564-0.68-1.629-0.516-2.037,0.229c-0.201,0.367-0.184,0.771-0.184,1.172c0.002,6.832,0,13.664,0.004,20.494
		c0,0.32,0.025,0.641,0.063,0.957c0.324,2.779,0.654,5.559,0.98,8.338c0.459,0.309,0.92-0.002,1.373-0.025
		c1.18-0.063,1.178-0.098,1.063-1.227c-0.029-0.293-0.072-0.582-0.1-0.875c-0.279-2.994-0.926-5.955-0.844-8.984
		C53.443,70.393,53.523,70.07,53.844,69.758z M31.532,55.373c0,0.904,0,1.686,0,2.49C29.991,56.697,30.002,57.076,31.532,55.373z
		 M53.465,57.469c0-0.658,0-1.316,0-2.006c1.475,0.982,1.488,1.363,0,2.516C53.465,57.719,53.465,57.594,53.465,57.469z"/>
	<path fill="#4D99FE" d="M51.939,81.926c-1.955-0.006-3.912-0.01-5.867-0.016c-0.676-2.383-1.52-4.713-2.236-7.082
		c-0.105-0.357-0.193-0.725-0.385-1.049c-0.457-0.779-1.425-0.785-1.871,0.002c-0.273,0.488-0.402,1.043-0.563,1.578
		c-0.654,2.193-1.467,4.338-2.061,6.551c-1.959,0.006-3.918,0.012-5.877,0.018c-0.285-0.264-0.188-0.588-0.141-0.9
		c0.689-4.705,0.977-9.432,0.885-14.193c-0.094-4.748-0.021-9.498-0.021-14.248c0-0.268,0.002-0.535-0.004-0.801
		c-0.012-0.477-0.086-0.924-0.625-1.088c-0.51-0.156-0.949-0.016-1.295,0.389c-0.555,0.65-1.074,1.328-1.607,1.994
		c-0.617,0.771-1.221,1.553-1.826,2.332c-0.83,1.064-0.752,2.092,0.166,3.094c0.742,0.811,1.639,1.447,2.406,2.23
		c0.459,0.471,0.691,0.979,0.676,1.641c-0.029,1.119,0.01,2.24-0.02,3.361c-0.006,0.236-0.004,0.529-0.25,0.633
		s-0.453-0.104-0.629-0.266c-2.203-2.02-4.383-4.066-6.4-6.271c-1.598-1.74-1.746-4.463-0.391-6.391
		c1.488-2.117,3.043-4.195,4.748-6.139c1.867-2.131,4.281-3.223,7.143-3.229c4.457-0.006,8.914-0.027,13.369,0.008
		c2.98,0.023,5.43,1.271,7.309,3.559c1.438,1.754,2.789,3.576,4.156,5.387c1.688,2.234,1.504,5.129-0.422,7.176
		c-1.957,2.082-4.143,3.928-6.139,5.969c-0.199,0.203-0.434,0.488-0.746,0.344c-0.26-0.121-0.23-0.459-0.234-0.725
		c-0.014-1.176-0.008-2.35-0.004-3.521c0.004-0.484,0.182-0.879,0.523-1.213c0.629-0.615,1.215-1.275,1.914-1.816
		c0.361-0.277,0.686-0.598,0.967-0.955c0.707-0.898,0.762-1.795,0.082-2.721c-1.121-1.527-2.336-2.982-3.531-4.451
		c-0.336-0.412-0.766-0.574-1.283-0.426c-0.547,0.158-0.711,0.598-0.77,1.104c-0.031,0.293-0.021,0.588-0.021,0.881
		c0,6.484-0.021,12.969,0.012,19.453c0.012,2.137,0.484,4.236,0.703,6.355c0.096,0.93,0.205,1.855,0.318,2.781
		C52.127,81.502,52.162,81.746,51.939,81.926z"/>
	<path d="M38.678,7.431c0-1.146-0.01-2.293,0.004-3.439C38.694,3,39.17,2.516,40.155,2.509c1.574-0.012,3.146-0.012,4.72,0
		c1.031,0.007,1.484,0.479,1.486,1.539c0.008,2.213,0.037,4.428-0.018,6.641c-0.018,0.701,0.205,0.86,0.844,0.797
		c0.555-0.056,1.117-0.013,1.68-0.011c0.594,0.002,1.02,0.274,1.246,0.825c0.215,0.529,0.068,1.007-0.316,1.395
		c-2.104,2.117-4.209,4.236-6.34,6.33c-0.611,0.602-1.3,0.58-1.916-0.027c-2.086-2.063-4.156-4.141-6.221-6.223
		c-0.418-0.42-0.639-0.916-0.359-1.521c0.27-0.586,0.74-0.795,1.355-0.782c0.611,0.013,1.229-0.022,1.84,0.013
		c0.42,0.023,0.541-0.111,0.531-0.531C38.661,9.779,38.678,8.605,38.678,7.431z"/>
	<path d="M57.543,21.381c-0.002-1.438,0.014-2.878-0.008-4.317c-0.008-0.619,0.172-1.129,0.752-1.373
		c0.598-0.252,1.135-0.086,1.586,0.401c0.398,0.431,0.861,0.803,1.236,1.25c0.33,0.394,0.525,0.333,0.859-0.009
		c1.564-1.6,3.154-3.178,4.742-4.756c0.869-0.864,1.443-0.863,2.313-0.004c1.061,1.051,2.121,2.104,3.166,3.168
		c0.783,0.795,0.785,1.408,0.004,2.196c-1.596,1.609-3.193,3.216-4.814,4.8c-0.334,0.328-0.42,0.527-0.018,0.867
		c0.488,0.411,0.918,0.891,1.365,1.348c0.416,0.422,0.523,0.929,0.287,1.467c-0.238,0.545-0.697,0.757-1.289,0.755
		c-2.934-0.009-5.863,0.004-8.797-0.009c-0.906-0.004-1.371-0.475-1.383-1.387C57.531,24.314,57.543,22.848,57.543,21.381z"/>
	<path d="M21.702,27.178c-1.441,0-2.881-0.017-4.32,0.007c-0.658,0.012-1.17-0.201-1.412-0.816c-0.227-0.576-0.045-1.084,0.416-1.51
		c0.451-0.416,0.852-0.888,1.309-1.293c0.32-0.285,0.289-0.455-0.006-0.744c-1.615-1.59-3.209-3.199-4.811-4.805
		c-0.871-0.875-0.875-1.434-0.008-2.306c1.053-1.06,2.109-2.114,3.168-3.166c0.795-0.787,1.408-0.802,2.197-0.021
		c1.553,1.537,3.109,3.072,4.627,4.646c0.451,0.466,0.752,0.644,1.211,0.026c0.314-0.422,0.752-0.752,1.119-1.139
		c0.436-0.458,0.959-0.594,1.525-0.361c0.545,0.226,0.768,0.687,0.766,1.283c-0.01,2.934,0.004,5.865-0.008,8.797
		c-0.006,0.944-0.48,1.391-1.455,1.396C24.581,27.185,23.141,27.178,21.702,27.178z"/>
	<path d="M38.959,81.91c-0.25-0.238-0.102-0.482-0.021-0.734c0.762-2.354,1.529-4.707,2.273-7.064
		c0.215-0.684,0.586-1.154,1.342-1.135c0.716,0.02,1.06,0.486,1.265,1.135c0.744,2.357,1.512,4.711,2.271,7.064
		c0.082,0.252,0.23,0.496-0.02,0.734c-0.131,0.023-0.264,0.039-0.391,0.074c-0.604,0.168-1.332,0.717-1.764,0.438
		c-0.416-0.27-0.457-1.127-0.658-1.729c-0.225-0.672-0.443-1.344-0.744-2.256c-0.424,1.299-0.814,2.373-1.113,3.473
		c-0.16,0.594-0.395,0.672-0.924,0.449C39.995,82.156,39.467,82.057,38.959,81.91z"/>
	<path fill="#FED098" d="M42.514,40.621c-3.451,0-6.252-2.809-6.244-6.265c0.006-3.444,2.832-6.243,6.287-6.227
		c3.408,0.016,6.197,2.815,6.203,6.229C48.768,37.813,45.967,40.621,42.514,40.621z"/>
	<path fill="#FE7F80" d="M45.848,14.068c-1.098,1.08-2.07,2.02-3.023,2.982c-0.266,0.27-0.422,0.189-0.646-0.035
		c-0.941-0.943-1.896-1.873-2.82-2.783c0.057-0.263,0.217-0.189,0.328-0.193c1.115-0.055,1.543-0.478,1.547-1.577
		c0.006-2.214,0.02-4.429-0.012-6.644c-0.008-0.56,0.078-0.783,0.721-0.77c1.853,0.037,1.853,0.004,1.853,1.861
		c0,1.733,0,3.469,0,5.203C43.797,13.662,44.1,13.982,45.848,14.068z"/>
	<path fill="#FE7F80" d="M64.668,24.609c-1.451,0-2.779-0.009-4.107,0.006c-0.344,0.004-0.467-0.1-0.461-0.453
		c0.016-1.33,0.006-2.66,0.006-3.963c0.16-0.088,0.236-0.021,0.32,0.049c0.932,0.795,1.439,0.772,2.322-0.108
		c1.549-1.544,3.105-3.08,4.631-4.647c0.381-0.393,0.629-0.451,0.98,0.002c0.373,0.48,1.195,0.838,1.152,1.338
		c-0.043,0.478-0.75,0.904-1.182,1.338c-1.182,1.191-2.375,2.377-3.563,3.564C63.627,22.88,63.604,23.248,64.668,24.609z"/>
	<path fill="#FE7F80" d="M20.327,24.63c1.066-1.273,1.043-1.717-0.018-2.778c-1.508-1.509-3.004-3.028-4.535-4.514
		c-0.379-0.369-0.371-0.569,0-0.938c1.371-1.365,1.355-1.379,2.734,0c1.15,1.15,2.301,2.299,3.451,3.449
		c1.271,1.271,1.457,1.292,2.953,0.262c0,1.43-0.004,2.801,0.004,4.172c0,0.293-0.148,0.351-0.398,0.35
		C23.17,24.628,21.823,24.63,20.327,24.63z"/>
</g>
</svg>
