<?xml version="1.0" encoding="utf-8"?>
<!-- Generator: Adobe Illustrator 16.0.2, SVG Export Plug-In . SVG Version: 6.00 Build 0)  -->
<!DOCTYPE svg PUBLIC "-//W3C//DTD SVG 1.1//EN" "http://www.w3.org/Graphics/SVG/1.1/DTD/svg11.dtd">
<svg version="1.1" id="Layer_1" xmlns="http://www.w3.org/2000/svg" xmlns:xlink="http://www.w3.org/1999/xlink" x="0px" y="0px"
	 width="85px" height="85px" viewBox="0 0 85 85" enable-background="new 0 0 85 85" xml:space="preserve">
<g>
	<g>
		<path fill="#FBBC92" d="M31.211,63.83c0.105,0.1,0.213,0.197,0.318,0.295c-3.07-1.188-6.15-2.352-9.238-3.494l-2.111-1.055
			l4.807-2.953l1.729,0.32c0,0,4.932,2.17,6.377,2.9c0.066,0.033,0.139,0.074,0.154,0.146s-0.082,0.148-0.129,0.094"/>
		<path fill="#FFFFFF" d="M29.43,63.1c-0.68-1.555-0.068-4.377,1.627-4.299c0.189,0.008,5.877,1.701,5.877,1.701l-1.088,4.803
			l-6.154-1.523L29.43,63.1z"/>
		<path fill="#FBBC92" d="M35.831,55.338c-0.461-0.26-3.994-1.439-3.994-1.439s-1.799,1.479-2.355,2.395
			c-0.555,0.914,8.51,4.211,8.51,4.211"/>
		<path fill="#FBBC92" d="M12.19,45.666c-1.516-0.029-2.881-0.879-4.131-1.736c-0.982-0.678-1.963-1.39-2.701-2.328
			c-1.135-1.447-1.6-3.311-1.799-5.139c-0.508-4.68,0.682-9.695,3.934-13.098c4.164-4.354,11.393-5.234,16.625-2.25
			s8.148,9.431,7.227,15.384c-0.168,1.084-0.455,2.161-0.977,3.126c-1.189,2.188-3.467,3.568-5.783,4.478
			c-4.875,1.912-10.389,2.148-15.41,0.664"/>
		<path fill="#FBBC92" d="M10.323,49.926c-0.439-0.186-0.875-0.385-1.328-0.551c-0.082-0.027-0.158-0.066-0.234-0.104
			c-0.104,1.732-0.209,3.465-0.313,5.197c-0.008,0.105-0.016,0.223-0.082,0.307c-0.088,0.115-0.248,0.139-0.391,0.158
			c-1.674,0.211-3.311,0.701-4.826,1.441c-0.354,0.174-0.752,0.605-0.477,0.889c0.129,0.135,0.344,0.129,0.531,0.105
			c0.629-0.078,1.246-0.25,1.824-0.506c-0.637,0.248-1.131,0.834-1.266,1.504c1.205-0.016,2.396-0.494,3.279-1.313
			c-0.295,0.445-0.59,0.893-0.885,1.338c-0.125,0.189-0.25,0.453-0.104,0.627c0.16,0.189,0.467,0.076,0.68-0.053
			c0.65-0.4,1.275-0.84,1.873-1.314c0.283,0.229-0.291,0.645-0.191,0.99c0.066,0.24,0.393,0.27,0.639,0.229
			c1.617-0.26,3.039-1.479,3.545-3.037c0.379-1.17,0.27-2.469,0.727-3.609l-0.504-0.855C11.999,50.881,11.182,50.354,10.323,49.926z
			"/>
		<g>
			<path fill="#010101" d="M13.813,52.219c0.256-0.389-0.146-0.756-0.486-0.895c-0.488-0.195-0.994-0.34-1.477-0.553
				c-0.979-0.43-1.902-0.977-2.756-1.615c0.059,0.076,0.119,0.154,0.178,0.23c0.033,0.232-0.004-0.057-0.008-0.111
				c-0.016-0.18-0.027-0.361-0.031-0.541c-0.008-0.254-0.004-0.508,0.01-0.76c0.008-0.139,0.02-0.273,0.035-0.41
				c0.004-0.035,0.01-0.07,0.014-0.105c-0.014,0.096,0.004-0.021,0.006-0.035c0.012-0.082,0.027-0.166,0.043-0.248
				c0.057-0.299,0.139-0.592,0.252-0.871c-0.029,0.074,0.047-0.102,0.061-0.133c0.031-0.063,0.066-0.125,0.102-0.188
				c0.037-0.063,0.074-0.121,0.115-0.178c0.02-0.029,0.041-0.059,0.061-0.086c-0.059,0.08,0.033-0.037,0.045-0.053
				c0.215-0.248,0.336-0.336,0.654-0.477c-0.078,0.035,0.113-0.037,0.146-0.047c0.078-0.023,0.156-0.039,0.236-0.055
				c0.006-0.002,0.143-0.02,0.051-0.01c0.043-0.004,0.086-0.008,0.129-0.012c0.109-0.006,0.217-0.006,0.324-0.002
				c0.23,0.008,0.459,0.033,0.682,0.07c0.516,0.088,0.74-0.648,0.219-0.797c-0.793-0.227-1.652-0.217-2.389,0.188
				c-0.594,0.326-0.975,0.904-1.221,1.521c-0.395,0.979-0.424,2.133-0.328,3.174c0.012,0.119,0.027,0.238,0.043,0.355
				c0.025,0.188,0.248,0.295,0.385,0.393c0.273,0.195,0.559,0.377,0.848,0.551c0.582,0.348,1.193,0.641,1.822,0.895
				c0.313,0.127,0.631,0.236,0.951,0.336c0.162,0.053,0.324,0.098,0.486,0.143c0.068,0.018,0.137,0.033,0.207,0.055
				c0.051,0.018,0.135,0.084,0.137,0.076C13.29,52.307,13.659,52.451,13.813,52.219L13.813,52.219z"/>
		</g>
		<path fill="#8CA5BB" d="M26.167,53.953c0.791,0.762,1.582,1.521,2.373,2.281c0.271,0.26,0.564,0.641,0.387,0.971
			c-1.881-0.023-3.766,0.502-5.361,1.496c-0.834,0.52-1.643,1.262-1.758,2.236c-2.713-1.037-5.438-2.088-7.992-3.473
			c-0.844-0.461-0.66-2.727,3.813-3.979c4.471-1.25,10.164-2.35,10.164-2.35l1.088,0.811c1.838,0.736,3.676,1.475,5.514,2.211
			c-1.627,0.018-3.232,0.76-4.299,1.988"/>
		<path fill="#8CA5BB" d="M34.079,65.291c-0.727-0.258-1.26-0.91-1.527-1.633c-0.268-0.721-0.299-1.508-0.262-2.275
			c0.066-1.416,0.365-2.852,1.107-4.057c0.744-1.207,1.979-2.16,3.385-2.332c0.709-0.086,1.486,0.051,1.994,0.555
			c0.699,0.691,0.676,1.811,0.604,2.793c-0.088,1.189-0.176,2.381-0.264,3.57c-0.063,0.838-0.131,1.703-0.512,2.451
			c-0.813,1.59-3.111,2.18-4.59,1.178"/>
		<path fill="#8CA5BB" d="M40.129,58.482c0.162-1.176,0.57-2.316,1.189-3.328c0.363-0.594,0.822-1.16,1.447-1.465
			c0.626-0.305,1.449-0.285,1.951,0.197c0.297,0.287,0.447,0.689,0.559,1.088c0.479,1.729,0.336,3.656-0.545,5.221
			s-2.525,2.715-4.316,2.844"/>
		<g>
			<path fill="#010101" d="M33.038,59.516c0.242,0.055,0.473-0.043,0.707-0.094c0.275-0.059,0.551-0.17,0.816-0.256
				c0.543-0.18,1.082-0.373,1.623-0.561c0.541-0.189,1.078-0.387,1.615-0.58c0.27-0.096,0.539-0.193,0.809-0.289
				c0.248-0.09,0.619-0.154,0.736-0.416c0.045-0.104,0.037-0.244-0.08-0.301c-0.254-0.125-0.48,0-0.73,0.088
				c-0.27,0.098-0.537,0.201-0.805,0.301c-0.566,0.211-1.133,0.424-1.701,0.635c-0.535,0.201-1.072,0.404-1.604,0.619
				c-0.268,0.107-0.531,0.225-0.797,0.334c-0.229,0.096-0.484,0.201-0.637,0.402C32.959,59.438,32.993,59.506,33.038,59.516
				L33.038,59.516z"/>
		</g>
		<g>
			<path fill="#010101" d="M33.846,60.557c0.42,0.018,0.84-0.082,1.248-0.182c0.447-0.109,0.887-0.26,1.314-0.432
				c0.398-0.162,0.785-0.35,1.162-0.553c0.369-0.201,0.682-0.391,1.115-0.371c0.148,0.006,0.229-0.164,0.164-0.285
				c-0.205-0.383-0.666-0.326-1.01-0.17c-0.43,0.199-0.828,0.475-1.254,0.686c-0.445,0.223-0.906,0.41-1.375,0.572
				c-0.463,0.16-0.951,0.271-1.4,0.459C33.668,60.342,33.68,60.551,33.846,60.557L33.846,60.557z"/>
		</g>
		<g>
			<path fill="#010101" d="M33.526,63.352c0.49-0.084,0.982-0.264,1.453-0.42c0.479-0.16,0.957-0.32,1.434-0.488
				c0.475-0.17,0.949-0.342,1.422-0.518c0.238-0.088,0.473-0.176,0.709-0.266c0.219-0.084,0.471-0.139,0.582-0.363
				c0.08-0.162,0.008-0.328-0.16-0.391c-0.238-0.09-0.467,0.053-0.688,0.141c-0.234,0.096-0.469,0.191-0.703,0.287
				c-0.469,0.189-0.939,0.375-1.41,0.561c-0.473,0.184-0.943,0.371-1.416,0.555c-0.453,0.174-0.936,0.34-1.359,0.572
				C33.196,63.127,33.334,63.385,33.526,63.352L33.526,63.352z"/>
		</g>
		<g>
			<path fill="#010101" d="M41.297,59.264c0.277-0.014,0.551-0.125,0.818-0.195c0.275-0.074,0.543-0.199,0.803-0.313
				c0.267-0.117,0.525-0.248,0.779-0.395c0.242-0.141,0.537-0.279,0.486-0.605c-0.045-0.281-0.439-0.17-0.588-0.082
				c-0.252,0.145-0.504,0.287-0.759,0.426c-0.256,0.137-0.521,0.254-0.785,0.375c-0.281,0.131-0.602,0.223-0.867,0.381
				C41.004,58.961,41.073,59.273,41.297,59.264L41.297,59.264z"/>
		</g>
		<g>
			<path fill="#010101" d="M41.598,60.463c0.434-0.146,0.857-0.309,1.27-0.508c0.369-0.178,0.966-0.396,1.138-0.805
				c0.047-0.109-0.006-0.242-0.141-0.244c-0.418-0.006-0.834,0.363-1.183,0.561c-0.402,0.229-0.813,0.445-1.234,0.637
				C41.245,60.195,41.389,60.533,41.598,60.463L41.598,60.463z"/>
		</g>
		<g>
			<path fill="#010101" d="M25.243,37.502c0.414,0.113,0.813,0.081,1.168,0.369c0.266,0.217,0.406,0.57,0.318,0.906
				c-0.084,0.318-0.439,0.502-0.73,0.582c-0.467,0.127-0.957-0.014-1.422-0.068c-0.523-0.061-0.615,0.779-0.123,0.902
				c1.119,0.281,2.852,0.148,3.127-1.252c0.115-0.582-0.141-1.182-0.574-1.569c-0.42-0.376-1.215-0.647-1.764-0.427
				C24.993,37.047,24.944,37.421,25.243,37.502L25.243,37.502z"/>
		</g>
		<g>
			<path fill="#010101" d="M16.913,38.784c-0.074,0.01-0.125,0.008-0.193-0.025c-0.018-0.008-0.035-0.018-0.047-0.031
				c-0.002-0.004-0.045-0.109-0.039-0.057c-0.002-0.021,0.004-0.113,0.004-0.113c0.012-0.027,0.07-0.068,0.018-0.063
				c-0.01-0.002-0.02-0.006-0.027-0.014c0.063,0.029,0.023,0.021,0.012,0.004c-0.006-0.027-0.002-0.02,0.008,0.02
				c-0.012-0.041,0-0.07,0.033-0.107c0.014-0.014,0.031-0.025,0.049-0.033c0.023-0.008,0.105,0.008,0.033-0.01
				c0.068,0.018-0.025-0.041,0.027,0.01c0.033,0.033,0.045,0.188,0.053,0.092c-0.061,0.105-0.121,0.209-0.18,0.314
				c0.063-0.033,0.123-0.047,0.193-0.051c-0.117-0.09-0.234-0.18-0.352-0.27c0.018,0.064,0.02,0.051,0.008-0.039
				c0.012-0.057,0.07-0.076,0.121-0.08c0.055-0.004,0.109,0.057,0.053-0.004c-0.047-0.051-0.113-0.082-0.182-0.096
				c0.047,0.027,0.094,0.055,0.141,0.084c-0.063-0.08-0.1-0.168-0.242-0.178c-0.207-0.014-0.305,0.238-0.305,0.404
				c0.014-0.055,0.029-0.107,0.043-0.162c-0.086,0.205-0.047,0.35,0.092,0.516c0.121,0.143,0.359,0.205,0.537,0.152
				c0.332-0.098,0.557-0.451,0.439-0.791c-0.051-0.148-0.184-0.277-0.354-0.27c-0.324,0.019-0.715,0.117-0.744,0.5
				c-0.018,0.254,0.203,0.477,0.43,0.551c0.561,0.184,0.994-0.408,0.697-0.902c-0.139-0.232-0.41-0.354-0.674-0.309
				c-0.268,0.046-0.455,0.268-0.523,0.52c-0.141,0.521,0.412,0.871,0.873,0.811C17.147,39.125,17.151,38.752,16.913,38.784
				L16.913,38.784z"/>
		</g>
		<g>
			<path fill="#010101" d="M29.563,36.706c0.008-0.036,0.043-0.211,0.018-0.088c0.008-0.041,0.018-0.082,0.031-0.119
				c-0.021,0.049-0.021,0.055-0.006,0.02c0.021-0.033,0.018-0.029-0.014,0.014c0.012-0.012,0.023-0.024,0.035-0.035
				c-0.064,0.06-0.018,0.018,0.01,0.005c-0.182-0.104-0.365-0.209-0.547-0.313c0.002,0.02,0.002,0.039,0,0.057
				c0.006-0.047,0.004-0.051-0.006-0.01c0.02-0.043,0.018-0.045-0.002-0.008c0.027-0.035,0.027-0.037,0-0.007
				c-0.141,0.14-0.139,0.372,0,0.511c0.141,0.142,0.371,0.137,0.512,0c0.146-0.142,0.229-0.338,0.223-0.543
				c-0.002-0.129-0.066-0.248-0.18-0.313c-0.121-0.071-0.244-0.054-0.367,0c-0.361,0.161-0.512,0.671-0.238,0.973
				C29.186,37.022,29.51,36.934,29.563,36.706L29.563,36.706z"/>
		</g>
		<g>
			<path fill="#010101" d="M13.831,51.105c0.061-0.377-0.152-0.791-0.221-1.162c-0.084-0.459-0.088-0.938-0.016-1.4
				c-0.172-0.021-0.346-0.045-0.52-0.068c0.078,0.906,0.264,1.797,0.564,2.656c0.098,0.277,0.434,0.252,0.539,0
				c0.301-0.721,0.523-1.467,0.662-2.234c-0.191-0.025-0.381-0.051-0.572-0.076c-0.051,0.701-0.193,1.453-0.098,2.152
				c0.037,0.271,0.449,0.234,0.512,0c0.09-0.328,0.092-0.68,0.109-1.018c0.02-0.379,0.039-0.758,0.059-1.137
				c0.018-0.324-0.516-0.402-0.572-0.078c-0.133,0.77-0.348,1.52-0.641,2.242c0.18,0,0.359,0,0.539,0
				c-0.295-0.811-0.492-1.65-0.574-2.51c-0.025-0.273-0.475-0.387-0.521-0.07c-0.074,0.508-0.074,1.002,0,1.51
				c0.061,0.406,0.178,1.039,0.559,1.271C13.708,51.223,13.817,51.189,13.831,51.105L13.831,51.105z"/>
		</g>
		<path fill="#FBBC92" d="M5.592,38.229c-0.475-0.48-1.139-0.926-1.783-0.721c-0.514,0.164-0.826,0.703-0.914,1.236
			c-0.164,0.992,0.346,2.063,1.221,2.561c0.873,0.498,2.053,0.391,2.822-0.256"/>
		<g>
			<path fill="#010101" d="M5.792,38.176c-0.051-0.209-0.234-0.404-0.395-0.541c-0.205-0.176-0.43-0.322-0.684-0.419
				c-0.461-0.177-0.963-0.146-1.381,0.128c-0.814,0.535-0.963,1.668-0.738,2.541c0.236,0.914,0.93,1.645,1.809,1.969
				c0.928,0.34,1.959,0.113,2.752-0.432c0.521-0.357-0.074-1.105-0.521-0.678c-0.467,0.445-1.211,0.566-1.82,0.426
				c-0.662-0.15-1.188-0.658-1.432-1.285c-0.229-0.594-0.223-1.359,0.238-1.844c0.248-0.26,0.59-0.256,0.91-0.155
				c0.17,0.054,0.33,0.156,0.48,0.251c0.164,0.104,0.336,0.246,0.527,0.291C5.692,38.465,5.829,38.331,5.792,38.176L5.792,38.176z"
				/>
		</g>
		<g>
			<path fill="#010101" d="M17.399,27.47c0.121,0.619,0.889,0.902,1.398,1.119c0.686,0.292,1.385,0.411,2.088,0.11
				c0.576-0.246,0.996-0.851,0.92-1.485c-0.082-0.694-0.645-1.188-1.205-1.541c-0.094,0.226-0.189,0.451-0.285,0.677
				c0.686,0.286,1.441,0.389,2.18,0.318c0.6-0.057,1.596-0.208,1.816-0.883c0.238-0.727-0.477-1.299-0.986-1.68
				c-0.461-0.346-1.402-0.736-1.805-0.104c-0.08,0.126-0.01,0.347,0.152,0.371c0.201,0.03,0.4-0.003,0.6,0.049
				c0.217,0.058,0.414,0.181,0.6,0.304c0.152,0.102,0.953,0.67,0.66,0.885c-0.18,0.133-0.426,0.181-0.637,0.232
				c-0.27,0.066-0.545,0.094-0.824,0.1c-0.537,0.01-1.061-0.107-1.559-0.307c-0.4-0.16-0.633,0.467-0.285,0.678
				c0.363,0.219,0.75,0.5,0.867,0.928c0.109,0.398-0.236,0.711-0.553,0.871c-0.439,0.222-0.986,0.09-1.426-0.053
				c-0.268-0.088-0.529-0.195-0.785-0.31c-0.191-0.084-0.412-0.19-0.475-0.405C17.77,27.047,17.34,27.172,17.399,27.47L17.399,27.47
				z"/>
		</g>
		<g>
			<path fill="#010101" d="M35.145,55.426c-0.475,0.268-0.869,0.709-1.238,1.102c-0.385,0.408-0.713,0.877-0.992,1.359
				c-0.602,1.033-0.889,2.238-0.826,3.432c0.033,0.666,0.184,1.32,0.371,1.959c0.18,0.615,0.381,1.25,0.818,1.736
				c0.391,0.434,0.975,0.725,1.504,0.947c0.27,0.115,0.545,0.188,0.842,0.195c0.318,0.008,0.533-0.104,0.713-0.359
				c0.074-0.104-0.023-0.271-0.148-0.26c-0.092,0.008-0.178-0.004-0.27-0.008c-0.121-0.006-0.238,0.029-0.361,0.012
				c-0.262-0.037-0.5-0.18-0.723-0.313c-0.451-0.268-0.941-0.52-1.227-0.977c-0.275-0.447-0.41-1.016-0.555-1.518
				c-0.164-0.58-0.277-1.178-0.309-1.779c-0.055-1.037,0.24-2.018,0.719-2.926c0.24-0.457,0.537-0.877,0.844-1.289
				c0.307-0.41,0.693-0.748,1-1.154C35.383,55.486,35.241,55.371,35.145,55.426L35.145,55.426z"/>
		</g>
		<g>
			<path fill="#010101" d="M42.053,62.604c-0.5,0.24-1.004-0.043-1.434-0.303c-0.211-0.127-0.43-0.248-0.518-0.494
				c-0.086-0.24-0.082-0.521-0.08-0.773c0.002-0.533,0.143-1.059,0.369-1.539c0.225-0.469,0.533-0.883,0.705-1.377
				c0.168-0.486,0.148-1.014,0.221-1.52c0.059-0.41,0.188-0.813,0.373-1.184c0.186-0.369,0.438-0.697,0.729-0.988
				c0.141-0.145,0.297-0.283,0.461-0.4c0.173-0.123,0.353-0.211,0.48-0.385c0.053-0.068-0.002-0.172-0.076-0.191
				c-0.425-0.107-0.935,0.244-1.25,0.496c-0.398,0.32-0.703,0.754-0.934,1.207c-0.225,0.447-0.371,0.932-0.434,1.428
				c-0.041,0.316-0.045,0.635-0.08,0.951c-0.035,0.303-0.143,0.604-0.262,0.881c-0.232,0.533-0.521,1.037-0.676,1.604
				c-0.158,0.59-0.186,1.25-0.047,1.848c0.127,0.545,0.682,0.822,1.143,1.049c0.465,0.229,1.068,0.275,1.469-0.1
				C42.331,62.703,42.182,62.541,42.053,62.604L42.053,62.604z"/>
		</g>
		<g>
			<path fill="#010101" d="M39.944,56.08c0.23-0.543,0.5-1.021,0.939-1.424c0.227-0.207,0.492-0.365,0.764-0.502
				c0.23-0.115,0.6-0.197,0.744-0.422c0.029-0.049,0.012-0.125-0.041-0.15c-0.256-0.125-0.615,0.043-0.852,0.154
				c-0.311,0.148-0.592,0.346-0.852,0.57c-0.49,0.424-0.891,1.051-0.938,1.709C39.702,56.137,39.895,56.195,39.944,56.08
				L39.944,56.08z"/>
		</g>
		<g>
			<path fill="#010101" d="M30.315,63.916c0.219,0.148,0.484,0.229,0.73,0.324c0.266,0.105,0.537,0.199,0.805,0.297
				c0.27,0.098,0.537,0.195,0.807,0.293c0.273,0.1,0.564,0.25,0.857,0.273c0.188,0.014,0.217-0.234,0.088-0.322
				c-0.215-0.148-0.508-0.209-0.754-0.295c-0.27-0.094-0.539-0.188-0.809-0.281c-0.27-0.096-0.537-0.191-0.809-0.281
				c-0.277-0.094-0.563-0.205-0.855-0.23C30.249,63.682,30.225,63.855,30.315,63.916L30.315,63.916z"/>
		</g>
		<g>
			<path fill="#010101" d="M31.313,59.143c0.146,0.166,0.414,0.34,0.645,0.289c0.059-0.014,0.098-0.098,0.061-0.148
				c-0.135-0.184-0.428-0.256-0.646-0.277C31.295,58.996,31.272,59.096,31.313,59.143L31.313,59.143z"/>
		</g>
		<g>
			<path fill="#010101" d="M22.167,60.736c0.227-0.51,0.516-0.998,0.895-1.406c0.414-0.443,0.912-0.787,1.449-1.061
				c0.604-0.309,1.273-0.479,1.938-0.588c0.328-0.057,0.662-0.088,0.996-0.105c0.346-0.018,0.637,0.037,0.959,0.148
				c0.41,0.143,0.654-0.479,0.291-0.688c-0.666-0.383-1.561-0.223-2.279-0.117c-0.764,0.111-1.506,0.34-2.199,0.678
				c-1.168,0.568-2.246,1.713-2.354,3.057C21.85,60.811,22.1,60.883,22.167,60.736L22.167,60.736z"/>
		</g>
		<g>
			<path fill="#010101" d="M30.008,57.182c0.314-0.74,0.695-1.393,1.32-1.912c0.309-0.26,0.684-0.443,1.064-0.568
				c0.426-0.141,0.838-0.141,1.279-0.168c0.301-0.02,0.406-0.498,0.074-0.559c-0.93-0.17-1.988,0.219-2.721,0.779
				c-0.723,0.555-1.281,1.42-1.33,2.344C29.688,57.256,29.942,57.336,30.008,57.182L30.008,57.182z"/>
		</g>
		<g>
			<path fill="#010101" d="M26.338,54.311c0.197-0.039,0.381-0.154,0.564-0.23c0.18-0.072,0.416-0.096,0.545-0.248
				c0.102-0.119,0.066-0.303-0.094-0.35c-0.217-0.066-0.441,0.07-0.633,0.168c-0.205,0.105-0.428,0.244-0.549,0.447
				C26.102,54.215,26.217,54.336,26.338,54.311L26.338,54.311z"/>
		</g>
		<g>
			<path fill="#010101" d="M29.124,57.949c0.4-0.115,0.502-0.646,0.498-1.008c-0.004-0.463-0.273-0.867-0.584-1.188
				c-0.354-0.363-0.816-0.619-1.25-0.875c-0.219-0.129-0.43-0.271-0.627-0.432c-0.213-0.172-0.371-0.307-0.658-0.256
				c-0.121,0.021-0.176,0.141-0.189,0.248c-0.055,0.424,0.484,0.717,0.783,0.922c0.369,0.252,0.779,0.439,1.154,0.684
				c0.289,0.189,0.559,0.453,0.691,0.779c0.063,0.15,0.084,0.305,0.078,0.469c-0.006,0.168-0.096,0.326-0.109,0.494
				C28.901,57.896,29.024,57.979,29.124,57.949L29.124,57.949z"/>
		</g>
		<g>
			<path fill="#010101" d="M24.784,43.721c0.764,1.188,1.568,2.352,2.301,3.561c0.375,0.619,0.727,1.252,1.061,1.895
				c0.33,0.629,0.672,1.271,0.928,1.938c0.137-0.18,0.273-0.357,0.41-0.539c-1.332,0.004-2.678,0.201-3.99,0.418
				c-1.309,0.217-2.604,0.521-3.875,0.893c-1.273,0.371-2.525,0.816-3.75,1.33c-0.623,0.262-1.238,0.539-1.848,0.834
				c-0.617,0.301-1.299,0.586-1.824,1.031c-0.332,0.279,0.02,0.854,0.418,0.721c0.605-0.199,1.162-0.568,1.732-0.854
				c0.594-0.295,1.197-0.57,1.809-0.83c1.182-0.506,2.396-0.932,3.629-1.297c1.244-0.371,2.51-0.664,3.787-0.898
				c1.297-0.238,2.602-0.348,3.91-0.496c0.322-0.037,0.527-0.332,0.367-0.641c-0.332-0.641-0.627-1.301-0.969-1.938
				c-0.34-0.641-0.705-1.266-1.084-1.879c-0.777-1.254-1.635-2.459-2.67-3.512C24.954,43.281,24.649,43.51,24.784,43.721
				L24.784,43.721z"/>
		</g>
		<g>
			<path fill="#010101" d="M41.577,57.127c0.504-0.139,0.998-0.307,1.49-0.484c0.25-0.092,0.5-0.188,0.758-0.268
				c0.252-0.08,0.506-0.063,0.758-0.119c0.125-0.027,0.111-0.205,0-0.24c-0.463-0.139-1.072,0.203-1.49,0.369
				c-0.523,0.209-1.041,0.426-1.544,0.676C41.508,57.078,41.536,57.139,41.577,57.127L41.577,57.127z"/>
		</g>
	</g>
	<g>
		<path fill="#F3C07E" d="M50.713,50.033c0.512,5.148,1.09,10.291,1.734,15.426c0.018,0.143,0.041,0.295,0.148,0.389
			c0.094,0.08,0.227,0.092,0.348,0.102c0.383,0.027,0.766,0.055,1.148,0.082c0.121,0.01,0.26,0.01,0.34-0.082
			c0.055-0.063,0.063-0.154,0.066-0.24c0.295-5.5,0.59-11.002,0.885-16.506"/>
		<path fill="#F3C07E" d="M70.348,49.033c0.104,5.395,0.203,10.789,0.305,16.184c0.762,0.119,1.615,0.221,2.232-0.242
			c0.613-0.461,0.756-1.311,0.848-2.07c0.578-4.822,0.971-9.668,1.17-14.521"/>
		<path fill="#F3C07E" d="M78.367,47.201c0.4,3.938,0.691,11.848,0.691,11.848s0.021,0.627,0.232,0.834
			c0.287,0.279,0.801,0.168,1.072-0.129c0.27-0.295,0.443-1.104,0.443-1.104l1.252-13.428"/>
		<path fill="#F3C07E" d="M58.568,49.684c0.018,0.271,0.098,0.539,0.176,0.801c0.906,3.01,1.863,9.193,1.863,9.193
			s1.088,0.381,1.34,0.342c0.23-0.035,0.305-0.328,0.324-0.564c0.289-3.291,0.41-6.6,0.367-9.902"/>
		<path fill="#F3C07E" d="M57.174,43.516c-0.014,0.133-0.027,0.266-0.039,0.396c-0.113-4-0.367-7.995-0.766-11.972l2.996,0.203
			c0.369,3.42,0.547,6.867,0.525,10.311c0.033-0.135,0.066-0.27,0.1-0.402"/>
		<path fill="#F3C07E" d="M78.586,44.393c0,0,0.17-10,0.17-13.426l2.92-1.493c-0.115,4.754-0.229,9.506-0.344,14.259"/>
		<path fill="#8CA5BB" d="M50.223,46.203c8.209-0.584,16.447-0.74,24.672-0.467c0,0.926-0.002,1.852-0.002,2.777
			c-7.965,0.664-15.947,1.332-23.938,1.148c-0.248-0.006-0.518-0.02-0.713-0.172c-0.227-0.176-0.291-0.484-0.344-0.768
			c-0.143-0.795-0.285-1.59-0.43-2.385"/>
		<path fill="#8CA5BB" d="M49.793,46.418c5.432-3.229,11.732-4.976,18.053-5.009c2.072-0.01,4.145,0.16,6.209,0.328
			c2.605,0.213,5.211,0.428,7.816,0.641c-2.225,0.917-4.447,1.833-6.67,2.75"/>
		<path fill="#8CA5BB" d="M81.896,42.84c0.158,0.585,0.279,1.181,0.361,1.781c0.02,0.152,0.039,0.314-0.018,0.457
			c-0.084,0.215-0.309,0.336-0.514,0.438c-2.24,1.119-4.479,2.24-6.721,3.357l-0.111-3.139L81.896,42.84z"/>
		<path fill="#8CA5BB" d="M81.691,31.051c-8.152,0.477-16.307,0.951-24.461,1.428c-0.342,0.02-0.729,0.021-0.969-0.224
			c-0.188-0.192-0.223-0.481-0.248-0.75c-0.281-2.888-0.563-5.774-0.842-8.662c-0.072-0.729-0.137-1.499,0.178-2.161
			c0.623-1.32,2.357-1.578,3.814-1.643c6.41-0.288,12.836-0.26,19.242,0.087c1.002,0.054,2.098,0.157,2.809,0.864
			c0.697,0.695,0.814,1.768,0.875,2.75c0.158,2.627,0.189,5.265,0.092,7.896"/>
		<g>
			<path fill="#010101" d="M50.137,46.662c0.42,0.074,0.906-0.063,1.328-0.113c0.469-0.059,0.939-0.109,1.41-0.156
				c0.471-0.049,0.941-0.09,1.416-0.127c0.443-0.033,0.916-0.025,1.352-0.127c0.127-0.031,0.082-0.197-0.027-0.211
				c-0.465-0.059-0.955,0.018-1.418,0.055c-0.473,0.037-0.943,0.082-1.414,0.133c-0.453,0.049-0.902,0.107-1.354,0.172
				c-0.418,0.059-0.93,0.066-1.309,0.268C50.078,46.576,50.084,46.654,50.137,46.662L50.137,46.662z"/>
		</g>
		<g>
			<path fill="#010101" d="M74.885,45.645c0.287,0.025,0.607-0.096,0.883-0.168c0.322-0.084,0.641-0.189,0.957-0.295
				c0.633-0.211,1.254-0.457,1.871-0.713c0.625-0.262,1.244-0.535,1.859-0.816c0.305-0.139,0.607-0.281,0.912-0.422
				c0.279-0.131,0.68-0.269,0.633-0.656c-0.025-0.215-0.121-0.348-0.324-0.426c-0.008-0.004-0.016-0.006-0.023-0.01
				c-0.301-0.117-0.631,0.236-0.527,0.529c0.002,0.008,0.006,0.018,0.008,0.023c0.016-0.113,0.029-0.229,0.045-0.34
				c0.09-0.076,0.084-0.084-0.02-0.023c-0.055,0.027-0.109,0.055-0.164,0.08c-0.137,0.066-0.273,0.133-0.41,0.199
				c-0.273,0.133-0.549,0.266-0.824,0.396c-0.549,0.262-1.1,0.52-1.656,0.766c-0.551,0.244-1.109,0.475-1.672,0.693
				c-0.283,0.111-0.57,0.213-0.854,0.32c-0.268,0.104-0.602,0.17-0.832,0.34C74.516,45.291,74.598,45.619,74.885,45.645
				L74.885,45.645z"/>
		</g>
		<g>
			<path fill="#010101" d="M59.547,45.986c0.225,0.186,0.615,0.146,0.889,0.139c0.371-0.01,0.734-0.063,1.074-0.215
				c0.105-0.047,0.035-0.178-0.051-0.188c-0.342-0.045-0.682-0.014-1.023,0.008c-0.26,0.016-0.658-0.01-0.875,0.154
				C59.531,45.906,59.512,45.957,59.547,45.986L59.547,45.986z"/>
		</g>
		<g>
			<path fill="#010101" d="M64.348,45.711c0.414,0.115,0.842,0.064,1.268,0.043c0.441-0.021,0.887-0.039,1.332-0.055
				c0.889-0.025,1.777-0.037,2.668-0.029s1.777,0.047,2.668,0.094c0.443,0.023,0.889,0.055,1.332,0.084
				c0.223,0.016,0.443,0.031,0.666,0.049c0.242,0.02,0.49,0.08,0.67-0.125c0.08-0.092,0.111-0.225,0.043-0.334
				c-0.221-0.352-0.824-0.26-1.189-0.279c-0.441-0.023-0.887-0.041-1.332-0.053c-0.92-0.025-1.842-0.021-2.764-0.012
				c-0.92,0.012-1.842,0.041-2.762,0.092c-0.445,0.023-0.891,0.055-1.332,0.088c-0.439,0.033-0.889,0.049-1.293,0.234
				C64.232,45.551,64.264,45.686,64.348,45.711L64.348,45.711z"/>
		</g>
		<g>
			<path fill="#010101" d="M75.188,48.682c0.092-0.168,0.086-0.369,0.09-0.557c0.004-0.207,0.061-0.473-0.07-0.646
				c-0.074-0.1-0.195-0.1-0.27,0c-0.119,0.158-0.076,0.377-0.072,0.564c0.004,0.213-0.014,0.449,0.092,0.639
				C75.004,48.768,75.139,48.768,75.188,48.682L75.188,48.682z"/>
		</g>
		<g>
			<path fill="#010101" d="M50.525,49.588c0.76,0.172,1.539,0.201,2.314,0.23c0.795,0.031,1.588,0.043,2.383,0.037
				c1.588-0.012,3.174-0.076,4.76-0.129c3.191-0.109,6.385-0.229,9.574-0.395c1.734-0.092,3.467-0.184,5.201-0.275
				c0.398-0.021,0.402-0.639,0-0.621c-3.211,0.119-6.422,0.25-9.631,0.398c-3.176,0.146-6.348,0.377-9.523,0.502
				c-0.824,0.031-1.65,0.055-2.477,0.049c-0.857-0.008-1.713-0.076-2.568-0.047C50.42,49.346,50.381,49.557,50.525,49.588
				L50.525,49.588z"/>
		</g>
		<g>
			<path fill="#010101" d="M76.908,47.893c0.229-0.029,0.461-0.166,0.67-0.256c0.275-0.119,0.547-0.254,0.822-0.377
				c0.574-0.258,1.143-0.535,1.715-0.795c0.662-0.303,1.34-0.574,2.002-0.873c0.314-0.145,0.041-0.609-0.273-0.467
				c0.137-0.063-0.088,0.035-0.137,0.061c-0.133,0.066-0.268,0.135-0.4,0.201c-0.451,0.229-0.902,0.451-1.355,0.676
				c-0.563,0.279-1.127,0.555-1.678,0.857c-0.264,0.146-0.523,0.299-0.783,0.451c-0.199,0.117-0.467,0.262-0.611,0.445
				C76.855,47.844,76.865,47.898,76.908,47.893L76.908,47.893z"/>
		</g>
		<g>
			<path fill="#010101" d="M56.984,32.265c0.799,0.103,1.602,0.097,2.404,0.099s1.605,0.017,2.406,0
				c1.604-0.029,3.207-0.061,4.811-0.108c3.207-0.097,6.412-0.196,9.619-0.329c1.25-0.051,2.5-0.104,3.75-0.16
				c0.621-0.027,1.271-0.005,1.885-0.113c0.561-0.1,0.842-0.764,0.477-1.201c-0.207-0.248-0.518,0.029-0.48,0.279
				c0-0.004-0.188,0.065-0.229,0.074c-0.158,0.036-0.336,0.023-0.498,0.03c-0.416,0.019-0.834,0.036-1.25,0.054
				c-0.801,0.034-1.604,0.068-2.404,0.102c-1.602,0.064-3.205,0.131-4.809,0.195c-3.205,0.129-6.412,0.237-9.619,0.363
				c-1.027,0.041-2.053,0.091-3.08,0.148c-1.008,0.059-2.027,0.084-3.023,0.261C56.754,31.993,56.826,32.245,56.984,32.265
				L56.984,32.265z"/>
		</g>
		<g>
			<path fill="#010101" d="M80.77,30.985c0.131-0.31,0.129-0.625,0.135-0.957c0.008-0.392,0.016-0.769-0.053-1.153
				c-0.021-0.123-0.227-0.123-0.248,0c-0.061,0.354-0.061,0.7-0.053,1.06c0.006,0.36-0.006,0.715,0.135,1.051
				C80.701,31.016,80.756,31.016,80.77,30.985L80.77,30.985z"/>
		</g>
		<g>
			<path fill="#010101" d="M80.92,26.786c0.068-0.356,0.008-0.742-0.016-1.102c-0.025-0.414-0.055-0.826-0.084-1.24
				c-0.057-0.765-0.098-1.535-0.281-2.28c-0.283-1.149-1.16-2.582-2.492-2.615c-0.188-0.005-0.287,0.291-0.102,0.373
				c0.504,0.222,0.955,0.493,1.295,0.935c0.371,0.484,0.588,1.057,0.725,1.646c0.156,0.669,0.215,1.355,0.287,2.037
				c0.041,0.382,0.082,0.764,0.127,1.145c0.039,0.356,0.041,0.766,0.17,1.102C80.611,26.944,80.881,26.991,80.92,26.786
				L80.92,26.786z"/>
		</g>
	</g>
</g>
</svg>
