<?xml version="1.0" encoding="utf-8"?>
<!-- Generator: Adobe Illustrator 16.0.0, SVG Export Plug-In . SVG Version: 6.00 Build 0)  -->
<!DOCTYPE svg PUBLIC "-//W3C//DTD SVG 1.1//EN" "http://www.w3.org/Graphics/SVG/1.1/DTD/svg11.dtd">
<svg version="1.1" id="Layer_1" xmlns="http://www.w3.org/2000/svg" xmlns:xlink="http://www.w3.org/1999/xlink" x="0px" y="0px"
	 width="85px" height="85px" viewBox="0 0 85 85" enable-background="new 0 0 85 85" xml:space="preserve">
<g>
	<path fill="#E9E8E9" d="M79.395,29.475c1.34-1.209,2.117-2.916,2.166-4.721c0.047-1.8-0.652-3.547-1.928-4.82
		c-4.004-4.005-9.645-9.648-13.668-13.669C64.68,4.98,62.92,4.283,61.105,4.339c-1.818,0.056-3.531,0.864-4.732,2.224
		C50.551,13.15,40.778,24.219,36.09,29.521c-1.77,2.006-3.662,3.899-5.666,5.671c-7.652,6.76-15.305,13.521-22.959,20.279
		c-1.361,1.203-2.166,2.915-2.225,4.732c-0.055,1.815,0.641,3.575,1.924,4.863c4.021,4.022,9.664,9.659,13.668,13.669
		c1.279,1.273,3.021,1.97,4.826,1.927c1.803-0.048,3.508-0.83,4.719-2.168c7.035-7.774,14.068-15.551,21.099-23.327
		c1.451-1.604,2.982-3.138,4.588-4.59C63.842,43.545,71.619,36.511,79.395,29.475"/>
	<path fill="#E9E8E9" d="M65.771,6.072c0,0,9.629,3.59,15.09,5.631c0.803,0.299,1.396,0.983,1.582,1.82
		c0.182,0.837-0.078,1.71-0.684,2.316c-1.035,1.038-2.072,2.075-3.111,3.112L65.771,6.072z M19.227,78.376
		c0,0-9.631-3.591-15.092-5.632c-0.801-0.301-1.396-0.984-1.576-1.82c-0.184-0.838,0.072-1.71,0.678-2.316
		c1.523-1.524,3.113-3.11,3.113-3.11L19.227,78.376z"/>
	<path fill="#FFCA4F" d="M49.25,36.593c3.244,3.244,3.244,8.514,0,11.758c-3.246,3.246-8.515,3.246-11.759,0
		c-3.244-3.244-3.244-8.514,0-11.758C40.735,33.344,46.004,33.344,49.25,36.593 M58.072,51.291l-5.883-5.879l-5.879,5.879
		l5.879,5.879L58.072,51.291z M34.549,27.771l5.881,5.878l-5.881,5.88l-5.879-5.88L34.549,27.771z"/>
	<path fill="#FFCA4F" d="M36.51,49.336h-0.004c-6,6.003-8.098,14.879-5.416,22.932c0.322,0.954,0.523,1.555,0.523,1.555l7.201,2.586
		l-0.898-6.738c-0.889-6.645,1.373-13.319,6.109-18.06c0.004,0,0.004-0.003,0.004-0.003"/>
	<path fill="#FFCA4F" d="M36.51,49.336h-0.004c-6,6.003-14.879,8.098-22.932,5.413c-0.955-0.319-1.551-0.518-1.551-0.518
		L9.43,47.024c0,0,3.141,0.422,6.742,0.903c6.643,0.886,13.322-1.373,18.059-6.113c0.002,0,0.002-0.003,0.002-0.003"/>
	
		<path fill="none" stroke="#010101" stroke-width="1.4989" stroke-linecap="round" stroke-linejoin="round" stroke-miterlimit="10" d="
		M29.5,36.006c-3.342,2.954-8.354,7.381-13.172,11.636 M10.864,52.47c-1.217,1.074-2.365,2.089-3.398,3.001 M5.243,60.203
		c-0.055,1.816,0.637,3.576,1.922,4.862c4.021,4.022,9.664,9.66,13.67,13.669c1.277,1.273,3.02,1.971,4.822,1.928
		c1.805-0.048,3.51-0.831,4.721-2.168c0.824-0.912,1.727-1.91,2.686-2.968 M38.209,69.836c4.539-5.021,9.289-10.27,12.302-13.603
		 M56.934,49.792c2.055-1.857,4.887-4.419,7.959-7.199 M69.021,38.857c0.697-0.629,1.393-1.262,2.088-1.888 M75.607,32.898
		c1.264-1.139,2.523-2.281,3.783-3.424c1.344-1.209,2.121-2.916,2.168-4.721c0.047-1.8-0.652-3.547-1.926-4.82
		c-4.006-4.005-9.646-9.648-13.67-13.669c-1.285-1.284-3.043-1.981-4.859-1.926s-3.529,0.864-4.732,2.224
		c-5.561,6.293-14.73,16.677-19.625,22.217 M65.771,6.072c0,0,9.629,3.592,15.09,5.631c0.803,0.299,1.396,0.983,1.582,1.82
		c0.182,0.837-0.078,1.71-0.684,2.316c-1.523,1.524-3.111,3.109-3.111,3.109 M20.372,78.591c0,0-10.777-3.809-16.238-5.847
		c-0.799-0.301-1.395-0.984-1.576-1.82c-0.182-0.838,0.072-1.71,0.68-2.316c1.523-1.524,3.111-3.11,3.111-3.11 M49.25,36.593
		c3.244,3.244,3.244,8.514,0,11.758c-3.246,3.246-8.515,3.246-11.759,0c-3.244-3.244-3.244-8.514,0-11.758
		C40.735,33.344,46.004,33.344,49.25,36.593z M58.072,51.291l-5.885-5.879l-5.877,5.879l5.877,5.879L58.072,51.291z M34.549,27.771
		l5.885,5.878l-5.885,5.88l-5.877-5.88L34.549,27.771z M36.51,49.336h-0.004c-6,6.003-8.098,14.879-5.416,22.932
		c0.322,0.954,0.523,1.555,0.523,1.555l7.201,2.586l-0.898-6.738c-0.889-6.645,1.373-13.319,6.109-18.06
		c0.004,0,0.004-0.003,0.004-0.003 M36.51,49.336h-0.004c-6,6.003-14.879,8.098-22.932,5.413c-0.955-0.319-1.551-0.518-1.551-0.518
		L9.43,47.024c0,0,3.141,0.422,6.742,0.903c6.643,0.886,13.322-1.373,18.059-6.113c0.002,0,0.002-0.003,0.002-0.003"/>
</g>
</svg>
