<?xml version="1.0" encoding="utf-8"?>
<!-- Generator: Adobe Illustrator 16.0.0, SVG Export Plug-In . SVG Version: 6.00 Build 0)  -->
<!DOCTYPE svg PUBLIC "-//W3C//DTD SVG 1.1//EN" "http://www.w3.org/Graphics/SVG/1.1/DTD/svg11.dtd">
<svg version="1.1" id="Layer_1" xmlns="http://www.w3.org/2000/svg" xmlns:xlink="http://www.w3.org/1999/xlink" x="0px" y="0px"
	 width="85px" height="85px" viewBox="0 0 85 85" enable-background="new 0 0 85 85" xml:space="preserve">
<g>
	<g>
		<ellipse fill="#F4C063" cx="42.5" cy="36.991" rx="22.957" ry="33.18"/>
		<path fill="#F4C063" d="M53.883,81.188H31.116c0-1.689,0.685-3.217,1.79-4.32c1.305-1.305,3.191-2.021,5.234-1.727v-5.568h8.719
			v5.568c2.043-0.295,3.932,0.422,5.232,1.727C53.197,77.972,53.883,79.499,53.883,81.188z"/>
	</g>
	<path fill="#D5A03C" d="M46.859,69.573v4.732c-1.412,0.391-2.869,0.598-4.359,0.598s-2.947-0.207-4.359-0.598v-4.732H46.859z"/>
	<path fill="#C3F6F9" d="M42.502,63.571c-4.426,0-8.668-2.607-11.945-7.344C27.032,51.132,25.09,44.3,25.09,36.991
		c0-7.311,1.941-14.143,5.467-19.236c3.277-4.736,7.52-7.346,11.945-7.346c4.424,0,8.666,2.609,11.943,7.346
		c3.525,5.096,5.467,11.926,5.467,19.236s-1.941,14.143-5.467,19.236C51.166,60.964,46.926,63.571,42.502,63.571z"/>
	<path d="M55.566,7.892c-0.537-0.486-1.367-0.445-1.854,0.092c-0.488,0.537-0.447,1.367,0.09,1.854
		c6.477,5.871,10.344,16.021,10.344,27.154c0,17.57-9.709,31.865-21.645,31.865c-11.938,0-21.646-14.295-21.646-31.865
		c0-17.572,9.711-31.867,21.646-31.867c2.662,0,5.266,0.709,7.734,2.109c0.629,0.357,1.43,0.137,1.787-0.494
		c0.357-0.629,0.137-1.43-0.494-1.787c-2.869-1.627-5.906-2.453-9.027-2.453c-6.577,0-12.725,3.652-17.312,10.283
		c-4.487,6.484-6.959,15.082-6.959,24.209c0,9.125,2.472,17.725,6.959,24.207c3.235,4.678,7.25,7.869,11.641,9.348v3.229
		c-1.82,0.096-3.533,0.848-4.848,2.164c-1.403,1.4-2.176,3.266-2.176,5.25c0,0.725,0.586,1.312,1.312,1.312h12.96
		c0.727,0,1.312-0.59,1.312-1.312c0-0.725-0.586-1.312-1.312-1.312H32.609c0.221-0.779,0.638-1.492,1.227-2.08
		c1.083-1.084,2.583-1.576,4.118-1.355c0.008,0.002,0.017,0.002,0.022,0.002c0.026,0.004,0.053,0.006,0.078,0.008
		c0.021,0.002,0.043,0.002,0.063,0.002c0.008,0.002,0.016,0.002,0.022,0.002h8.719c0.008,0,0.018,0,0.023,0
		c0.021-0.002,0.043-0.002,0.064-0.004c0.025-0.002,0.051-0.004,0.076-0.008c0.008,0,0.016,0,0.023-0.002
		c1.533-0.221,3.035,0.271,4.117,1.355c0.59,0.588,1.006,1.301,1.227,2.08h-4.162c-0.725,0-1.312,0.588-1.312,1.312
		c0,0.723,0.59,1.312,1.314,1.312h5.652c0.725,0,1.312-0.588,1.312-1.312c0-1.984-0.773-3.85-2.176-5.248
		c-1.316-1.316-3.027-2.07-4.85-2.166v-3.229c4.393-1.479,8.404-4.67,11.643-9.348c4.486-6.482,6.957-15.08,6.957-24.207
		C66.771,25.132,62.582,14.255,55.566,7.892z M45.549,73.831h-6.096v-2.613c1.002,0.176,2.02,0.264,3.047,0.264
		s2.045-0.088,3.049-0.264V73.831L45.549,73.831z"/>
	<path d="M29.479,17.009c-3.676,5.311-5.701,12.408-5.701,19.982s2.024,14.67,5.701,19.982c3.529,5.102,8.154,7.91,13.021,7.91
		s9.492-2.811,13.021-7.91c3.676-5.312,5.701-12.408,5.701-19.982s-2.023-14.672-5.701-19.982c-3.529-5.102-8.154-7.91-13.021-7.91
		S33.008,11.907,29.479,17.009z M51.289,15.942L33.373,30.278c-0.564,0.453-0.657,1.279-0.205,1.844
		c0.26,0.324,0.641,0.492,1.025,0.492c0.287,0,0.576-0.094,0.818-0.287l17.961-14.373c0.131,0.18,0.262,0.359,0.391,0.545
		c0.439,0.637,0.855,1.303,1.242,1.992l-5.082,4.068c-0.566,0.453-0.658,1.277-0.205,1.844c0.26,0.324,0.641,0.492,1.025,0.492
		c0.287,0,0.576-0.094,0.818-0.289l4.641-3.711c1.818,4.141,2.795,8.992,2.795,14.094c0,0.217-0.002,0.434-0.006,0.648
		L43.889,49.403c-0.566,0.451-0.656,1.277-0.205,1.844c0.26,0.324,0.641,0.492,1.025,0.492c0.287,0,0.576-0.094,0.818-0.287
		l12.846-10.277c-0.586,5.436-2.312,10.41-5.01,14.307c-3.023,4.371-6.885,6.779-10.865,6.779c-2.477,0-4.906-0.934-7.117-2.689
		l6.926-5.543c0.566-0.451,0.658-1.277,0.205-1.844c-0.451-0.566-1.277-0.658-1.844-0.205l-7.223,5.779
		c-0.631-0.688-1.237-1.447-1.812-2.277c-1.938-2.803-3.375-6.16-4.249-9.848l20.132-16.107c0.564-0.453,0.658-1.279,0.205-1.844
		c-0.453-0.566-1.277-0.658-1.844-0.205L26.822,42.724c-0.176-1.162-0.297-2.35-0.362-3.553l5.118-4.096
		c0.566-0.453,0.658-1.277,0.205-1.844s-1.279-0.658-1.844-0.205l-3.522,2.818c0.19-6.609,2.024-12.73,5.216-17.342
		c3.025-4.373,6.885-6.781,10.865-6.781C45.619,11.722,48.662,13.2,51.289,15.942z"/>
</g>
</svg>
