<?xml version="1.0" encoding="utf-8"?>
<!-- Generator: Adobe Illustrator 16.0.0, SVG Export Plug-In . SVG Version: 6.00 Build 0)  -->
<!DOCTYPE svg PUBLIC "-//W3C//DTD SVG 1.1//EN" "http://www.w3.org/Graphics/SVG/1.1/DTD/svg11.dtd">
<svg version="1.1" id="Layer_1" xmlns="http://www.w3.org/2000/svg" xmlns:xlink="http://www.w3.org/1999/xlink" x="0px" y="0px"
	 width="85px" height="85px" viewBox="0 0 85 85" enable-background="new 0 0 85 85" xml:space="preserve">
<g>
	<path fill="#FDD2B4" d="M59.066,3.137l-1.445,4.409c0,0-2.494,1.537-4.254,3.871c-1.758,2.333-4.312,8.292-4.312,8.292
		l-8.053,18.243l-3.652,9.102l-1.268,1.114l-2.973,2.829c0,0-2.375,3.727-4.139,6.517c-1.762,2.791-5.562,7.123-5.562,7.123
		l-3.004,2.148c0,0-0.352,0.665,0,1.445c0.352,0.782,1.391,0.616,1.391,0.616l4.82-3.656l-3.355,6.162l-0.932,2.279l1.504,0.369
		l1.627-1.25l1.543-3.211l-0.15,1.927l-0.211,3.456c0,0,1.188-0.188,1.795-0.665c0.609-0.479,0.709-2.242,0.709-2.242l1.186-1.635
		l1.041-2.066c0,0-0.018,2.284,0.035,3.569c0.053,1.284,0.385,2.905,0.385,2.905l1.637-0.717c0,0,0.447-0.526,0.502-1.146
		c0.055-0.617-0.162-1.495-0.162-1.495s0.305-0.96,0.811-2.563c0.506-1.602,0.41-3.641,0.41-3.641l0.365-1.047
		c0,0,1.086-1.313,1.908-2.357c0.824-1.044,1.182-2.622,1.182-2.622l1.576-1.088c0,0,1.23-0.879,2.564-2.537
		c1.332-1.657,1.719-3.543,1.719-3.543l0.373-1.961c0,0,0.432-1.591,1.219-2.856c0.787-1.268,2.523-3.749,2.523-3.749l2.938-3.054
		l4.354-4.189c0,0,1.697-2.248,3.566-4.371c1.867-2.122,4.109-6.207,4.109-6.207s0.818-2.031,1.738-4.383
		c0.918-2.354,2.689-4.612,2.689-4.612l2.131-2.392c0,0,2.84-3.191,4.438-5.575c0.824-1.229,1.773-3.567,2.502-5.548L59.066,3.137
		L59.066,3.137z"/>
	<path fill="#EEBD9C" d="M73.762,3.137c-0.586,2.067-1.342,4.224-2.156,5.284c-1.824,2.38-3.443,4.609-3.443,4.609l-3.529,3.347
		c0,0-1.268,0.781-2.473,0.508c-1.203-0.273-3.23-1.343-3.23-1.343s3.43,2.589,3.717,4.398c0.287,1.812-0.59,5.78-4.262,10.425
		c-3.672,4.646-8.82,10.222-8.82,10.222s-4.195,4.264-5.402,6.893c-1.205,2.63-1.324,3.344-1.324,3.344s-0.262,2.016-1.914,4.02
		c-1.656,2.003-5.324,3.746-5.324,3.746s-3.488,2.875-3.656,2.555c-0.166-0.321-5.326,4.048-5.326,4.048l-2.768,4.897l-1.521,3.544
		c0,0,1.566,0.393,2.461-0.561c0.893-0.955,2.27-3.959,2.27-3.959l1.543-1.984l-0.883,4.665c0,0,0.787,0.571,0.555,1.305
		c-0.23,0.732-0.896,1.651-0.896,1.651s1.547-0.479,1.666-1.192c0.119-0.717,0.104-1.541,0.104-1.541l2.227-3.701l0.684-2.085
		l0.207,4.957l0.277,3.205c0,0,1.428-0.508,1.393-1.464s-0.164-1.495-0.164-1.495s0.955-2.539,1.088-4.371
		c0.135-1.833,0.5-2.88,0.5-2.88s1.176-1.062,1.906-2.357c0.732-1.296,1.182-2.621,1.182-2.621s3.707-2.468,4.969-4.758
		c1.26-2.289,1.662-5.603,1.662-5.603s2.098-3.869,3.346-5.376c1.246-1.504,5.801-5.709,5.801-5.709s4.561-4.902,5.969-6.982
		c1.41-2.082,4.004-6.208,4.004-6.208l2.539-6.668c0,0,2.211-2.434,3.215-3.641c1.004-1.208,3.688-4.769,4.621-6.192
		c0.584-0.893,1.66-3.273,2.385-4.931H73.762L73.762,3.137z"/>
	<path fill="#DDA27C" d="M23.385,73.987c1.23-0.645,1.893-2.215,1.49-3.545c1.414-1.362,2.537-3.022,3.275-4.843
		c0.221-0.542,0.389-1.213,0.018-1.666c2.57-1.771,5.141-3.542,7.711-5.313c2.893-1.992,5.996-4.273,6.873-7.677
		c-0.137,1.105-0.543,2.161-1.182,3.073c-0.752,1.066-1.795,1.891-2.66,2.867c-0.443,0.502-0.84,1.041-1.236,1.58
		c-0.479,0.65-0.957,1.303-1.434,1.955c-0.576,0.782-1.158,1.578-1.516,2.483c-1.094,2.79,0.016,6.404-2.01,8.611
		c-0.209-0.977-0.418-1.95-0.627-2.925c-0.027-0.136-0.066-0.282-0.184-0.354c-0.205-0.121-0.443,0.088-0.592,0.275
		c-0.982,1.265-1.967,2.527-2.951,3.792l0.082-4.604c-2.27,1.164-2.344,4.674-4.514,6.018c-0.135,0.083-0.299,0.207-0.258,0.359
		c0.041,0.153,0.338-0.028,0.188-0.08L23.385,73.987L23.385,73.987z"/>
	<path fill="#EEBD9C" d="M59.242,3.137c-0.08,0.262-0.129,0.423-0.129,0.423l-1.502,4.417c0,0-3.307,1.104-6.328,6.924
		c-3.021,5.818-5.309,11.867-5.309,11.867l-5.297,12.679c0,0,9.621-19.051,12.133-22.235s4.59-3.979,4.59-3.979
		s1.379-5.294,2.635-10.095H59.242z"/>
	<path fill="#FEE3CE" d="M61.959,3.137c-0.693,2.392-1.318,4.804-1.738,7.258c-0.182,1.065-0.318,2.19,0.061,3.202
		c0.379,1.013,1.439,1.849,2.494,1.607c0.48-0.108,0.889-0.418,1.27-0.729c3.637-2.967,6.422-6.941,8.051-11.339H61.959z"/>
	<g>
		<path fill="#AF7B6E" d="M58.629,3.137c-0.463,1.467-0.881,2.942-1.207,4.434c-0.033,0.147,0.189,0.187,0.246,0.062
			c0.65-1.453,1.188-2.963,1.686-4.495H58.629z"/>
		<path fill="#AF7B6E" d="M37.295,47.581c3.594-6.888,6.375-14.33,9.449-21.468c2.707-6.288,4.871-14.251,10.953-18.097
			c0.299-0.189-0.025-0.719-0.332-0.534c-5.35,3.208-7.395,9.334-9.736,14.784c-3.576,8.322-7.674,16.639-10.615,25.206
			C36.949,47.659,37.207,47.751,37.295,47.581z M58.422,14.932c1.25,1.787,4.242,2.913,6.258,1.756
			c0.105-0.062,0.068-0.237-0.066-0.216c-1.078,0.16-2.031,0.367-3.125,0.104c-1.152-0.273-2.113-0.914-2.939-1.749
			C58.475,14.751,58.361,14.843,58.422,14.932z"/>
		<path fill="#AF7B6E" d="M73.371,3.137c-0.244,0.866-0.52,1.724-0.85,2.569c-1.748,4.482-4.629,7.461-7.922,10.827
			c-0.059,0.061-0.002,0.191,0.086,0.139c4.822-2.915,7.746-8.063,9.416-13.535H73.371z"/>
		<path fill="#AF7B6E" d="M76.672,3.137c-1.221,3.065-2.779,5.983-4.908,8.741c-1.594,2.067-3.859,3.708-5.211,5.952
			c-1.293,2.149-1.898,4.824-3.031,7.076c-3.1,6.171-7.809,10.862-12.607,15.702c-2.998,3.023-5.729,6.248-6.568,10.528
			c-0.033,0.168,0.252,0.241,0.297,0.072c1.631-6.218,6.381-9.957,10.668-14.38c3.852-3.972,7.139-8.487,9.383-13.558
			c1.465-3.31,2.525-5.749,5.021-8.479c1.781-1.948,3.381-4.033,4.764-6.283c1.047-1.7,1.93-3.505,2.666-5.374L76.672,3.137
			L76.672,3.137z"/>
		<path fill="#AF7B6E" d="M49.797,40.478c-3.365,2.463-5.967,6.195-7.191,10.176c-0.057,0.178,0.205,0.285,0.273,0.106
			c1.549-4.053,3.793-7.271,6.992-10.192C49.928,40.517,49.859,40.432,49.797,40.478z M20.428,66.896
			c8.072-3.979,9.725-14.228,16.877-19.186c0.225-0.155-0.01-0.514-0.25-0.401c-3.371,1.561-5.031,5.03-7.012,7.988
			c-2.953,4.408-5.41,8.215-9.707,11.453C20.258,66.809,20.338,66.939,20.428,66.896z"/>
		<path fill="#AF7B6E" d="M20.34,66.878c-0.551,0.876-0.07,2.191,1.051,2.201c0.254,0.004,0.297-0.396,0.045-0.393
			c-0.904,0.013-1.186-0.996-0.951-1.731C20.51,66.87,20.393,66.793,20.34,66.878z M35.771,53.221
			c0.312,0.187,0.656,0.329,0.953,0.539c0.301,0.212,0.516,0.551,0.832,0.724c0.078,0.045,0.18-0.003,0.166-0.102
			c-0.053-0.395-0.461-0.724-0.775-0.93c-0.361-0.239-0.709-0.39-1.146-0.354C35.744,53.102,35.721,53.19,35.771,53.221
			L35.771,53.221z M35.199,52.972c-0.684,0.312-1.863,0.693-2.258,1.4c-0.344,0.615,0.062,1.634,0.494,2.087
			c0.473,0.492,1.355,0.843,2.031,0.601c0.439-0.157,0.85-0.59,1.273-0.809c0.529-0.276,1.098-0.41,1.648-0.63
			c0.117-0.047,0.086-0.235-0.039-0.243c-1.117-0.079-1.904,0.741-2.846,1.17c-1.055,0.479-2.607-0.571-2.227-1.799
			c0.188-0.604,1.469-1.402,1.963-1.686C35.295,53.03,35.26,52.942,35.199,52.972L35.199,52.972z M35.176,52.879
			c0.066-0.565,0.074-1.081,0.283-1.625c0.221-0.573,0.568-1.053,1-1.484c0.125-0.124-0.043-0.338-0.178-0.216
			c-0.854,0.777-1.541,2.149-1.309,3.33C34.994,52.996,35.162,52.997,35.176,52.879z M45.002,49.134
			c-0.443,1.666-0.916,3.318-1.6,4.905c-1.025,2.382-2.965,3.481-4.912,5.031c-0.068,0.056,0.004,0.182,0.084,0.135
			c1.834-1.016,3.758-2.436,4.703-4.355c0.852-1.729,1.592-3.765,1.855-5.685C45.145,49.09,45.021,49.057,45.002,49.134
			L45.002,49.134z"/>
		<path fill="#AF7B6E" d="M33.932,71.208c0.381-0.874,0.697-1.761,0.904-2.694c0.371-1.672,0.121-3.493,1.148-4.923
			c1.059-1.474,2.285-2.581,2.629-4.45c0.016-0.08-0.115-0.113-0.141-0.035c-0.4,1.235-0.967,2.391-1.797,3.399
			c-0.523,0.638-1.301,1.181-1.637,1.964c-0.271,0.628-0.156,1.329-0.188,1.988c-0.08,1.651-0.502,3.146-1.113,4.676
			C33.691,71.257,33.879,71.328,33.932,71.208L33.932,71.208z"/>
		<path fill="#AF7B6E" d="M33.699,71.186c0.01,0.687,0.262,1.43,0.059,2.106c-0.246,0.828-1.332,1.171-2.086,1.329
			c-0.098,0.021-0.09,0.148,0.004,0.169c0.689,0.15,1.812-0.443,2.195-1.039c0.418-0.651,0.25-1.924-0.045-2.586
			C33.801,71.108,33.697,71.116,33.699,71.186L33.699,71.186z"/>
		<path fill="#AF7B6E" d="M31.762,74.736c-0.385-2.191-0.322-4.217-0.207-6.421c0.004-0.077-0.119-0.119-0.141-0.034
			c-0.512,2.053-0.318,4.447,0.207,6.479C31.643,74.846,31.777,74.827,31.762,74.736L31.762,74.736z"/>
		<path fill="#AF7B6E" d="M32.014,64.726c-0.309,1.411-0.42,2.74-1.111,4.049c-0.604,1.146-1.414,2.18-1.9,3.387
			c-0.039,0.094,0.098,0.169,0.156,0.084c1.457-2.136,3.311-4.783,2.998-7.521C32.145,64.637,32.031,64.651,32.014,64.726z"/>
		<path fill="#AF7B6E" d="M29.1,72.001c-0.031,0.769-0.061,1.548-0.715,2.066c-0.502,0.401-1.121,0.484-1.697,0.718
			c-0.115,0.045-0.057,0.222,0.061,0.203c0.682-0.094,1.477-0.418,1.957-0.924c0.539-0.567,0.578-1.327,0.486-2.066
			C29.186,71.948,29.104,71.948,29.1,72.001z"/>
		<path fill="#AF7B6E" d="M26.766,74.878c-0.068-1.002,0.078-2.068,0.172-3.066c0.078-0.821,0.355-1.739,0.314-2.56
			c-0.004-0.067-0.111-0.095-0.145-0.034c-0.41,0.71-0.348,1.914-0.412,2.702c-0.082,0.984-0.174,1.989,0.002,2.97
			C26.705,74.934,26.77,74.922,26.766,74.878L26.766,74.878z"/>
		<path fill="#AF7B6E" d="M30.555,64.062c-0.824,0.858-1.451,1.832-2.123,2.817c-0.643,0.946-1.504,1.92-1.875,3.011
			c-0.041,0.122,0.115,0.269,0.225,0.162c0.82-0.817,1.338-1.975,1.979-2.936c0.662-0.987,1.371-1.91,1.932-2.957
			C30.73,64.085,30.615,63.999,30.555,64.062L30.555,64.062z"/>
		<path fill="#AF7B6E" d="M26.797,69.574c-0.51,0.727-0.902,1.506-1.311,2.289c-0.691,1.326-1.477,1.517-2.869,1.482
			c-0.361-0.008-0.496,0.465-0.152,0.619c2.584,1.168,3.869-2.573,4.586-4.251C27.117,69.561,26.891,69.438,26.797,69.574
			L26.797,69.574z"/>
		<path fill="#AF7B6E" d="M22.453,73.545c1.023-3.083,3.305-5.686,4.68-8.62c0.102-0.211-0.229-0.39-0.357-0.195
			c-1.088,1.6-1.961,3.374-2.902,5.062c-0.652,1.166-1.459,2.354-1.623,3.703C22.236,73.609,22.416,73.658,22.453,73.545z
			 M30.006,63.844c1.119,0.876,2.729,1.23,4.121,1.019c0.133-0.021,0.098-0.212-0.033-0.204c-1.512,0.099-2.699-0.226-4.023-0.929
			C29.998,63.69,29.949,63.8,30.006,63.844L30.006,63.844z"/>
		<path fill="#AF7B6E" d="M39.301,48.241c7.182,0.822,1.498,7.188-1.09,8.707c-1.682,0.986-3.277,1.738-4.838,2.91
			c-1.82,1.37-3.824,2.283-5.645,3.627c-2.219,1.636-3.938,3.891-6.41,5.188c-0.217,0.114-0.135,0.494,0.131,0.437
			c3.436-0.756,5.68-4.529,8.682-6.297c1.926-1.135,3.205-2.463,5.008-3.741c1.707-1.21,3.646-1.986,5.223-3.388
			c2.801-2.483,3.754-6.986-1.057-7.489C39.277,48.192,39.271,48.237,39.301,48.241L39.301,48.241z"/>
		<path fill="#AF7B6E" d="M34.377,58.294c-0.025,0.037-0.051,0.072-0.076,0.108c-0.01,0.016,0.012,0.032,0.021,0.017
			c0.027-0.034,0.055-0.07,0.082-0.106C34.416,58.297,34.389,58.275,34.377,58.294L34.377,58.294z"/>
		<path fill="#AF7B6E" d="M34.268,58.385c-0.307,0.516-0.695,1.038-1.076,1.503c-0.389,0.471-0.938,0.841-1.271,1.343
			c-0.057,0.087,0.029,0.204,0.129,0.159c0.527-0.241,0.951-0.829,1.301-1.277c0.42-0.541,0.701-1.082,0.971-1.699
			C34.334,58.384,34.285,58.354,34.268,58.385L34.268,58.385z M26.07,63.922c0.062,0.152,0.18,0.265,0.24,0.42
			c0.082,0.196,0.061,0.412,0.055,0.626c-0.006,0.327,0.504,0.387,0.512,0.056c0.008-0.42-0.301-1.087-0.76-1.167
			C26.08,63.852,26.057,63.891,26.07,63.922L26.07,63.922z M28.135,72.111c0.289,0.008,0.547,0.021,0.82,0.131
			c0.191,0.079,0.311-0.232,0.115-0.299c-0.322-0.108-0.648-0.133-0.957,0.031C28.057,72.008,28.059,72.108,28.135,72.111z
			 M32.625,71.379c0.18,0.008,0.371-0.03,0.549,0.006c0.221,0.048,0.363,0.223,0.572,0.291c0.16,0.056,0.275-0.12,0.184-0.253
			c-0.244-0.357-1.006-0.395-1.33-0.125C32.572,71.319,32.584,71.376,32.625,71.379z"/>
	</g>
	<path fill="#333333" d="M82.5,82.403h-80V2.597h80V82.403z M3.303,81.602h78.396V3.4H3.303V81.602L3.303,81.602z"/>
</g>
</svg>
