<?xml version="1.0" encoding="utf-8"?>
<!-- Generator: Adobe Illustrator 16.0.0, SVG Export Plug-In . SVG Version: 6.00 Build 0)  -->
<!DOCTYPE svg PUBLIC "-//W3C//DTD SVG 1.1//EN" "http://www.w3.org/Graphics/SVG/1.1/DTD/svg11.dtd">
<svg version="1.1" id="Layer_1" xmlns="http://www.w3.org/2000/svg" xmlns:xlink="http://www.w3.org/1999/xlink" x="0px" y="0px"
	 width="85px" height="85px" viewBox="0 0 85 85" enable-background="new 0 0 85 85" xml:space="preserve">
<g>
	<g>
		<g>
			<g>
				<g>
					<path fill="#CD6632" d="M19.758,60.146L15.814,4.506c0,0,34.959-3.426,50.454-1.324l0.077,56.062L19.758,60.146z"/>
					<g>
						<polygon fill="#E8A33C" points="15.83,4.742 19.758,60.146 22.487,60.093 19.239,7.075 						"/>
						<path fill="#E8A33C" d="M62.852,5.803l2.904-2.687C50.868,1.261,19.467,4.158,16.111,4.478l3.128,2.598
							c0,0,24.838-2.18,43.681-1.246l0.855,53.415v0.05l2.569-0.05L66.269,3.607L62.852,5.803z"/>
					</g>
					<g opacity="0.3">
						<path fill="#E58339" d="M19.239,7.075l-1.164-0.796c0.002,0.007,0.006,0.014,0.006,0.021c0.054,0.91,2.441,42.206,2.66,44.72
							c0.107,1.242,0.253,2.479,0.362,3.721c0.083,0.947,0.155,1.921-0.172,2.834c-0.221,0.616-0.736,1.051-1.279,1.075l0.106,1.496
							l2.729-0.054L19.239,7.075z"/>
						<path fill="#E58339" d="M64.947,57.459c-0.246-0.863-0.231-1.821-0.261-2.714c-0.04-1.208-0.914-49.311-0.757-49.635
							l-1.078,0.693l0.945-0.875c-0.992-0.24-12.552-0.4-21.643-0.17C40.007,4.812,19.661,5.539,17.981,6.03l1.258,1.045
							c0,0,24.838-2.18,43.681-1.246l0.855,53.415v0.05l2.569-0.05v-0.519C65.73,58.676,65.189,58.311,64.947,57.459z"/>
					</g>
				</g>
				<path fill="#FFFDEA" d="M62.92,5.83C44.077,4.896,19.239,7.075,19.239,7.075l3.248,53.018l41.289-0.799v-0.05L62.92,5.83z"/>
				<path opacity="0.5" fill="#00B5F0" d="M21.254,9.454c-0.681-0.12-1.641,0.13-1.827,0.687l0.961,15.704
					c0.084-0.128,0.153-0.294,0.203-0.509c0.024-0.105,0.142-0.132,0.229-0.093c1.315,0.6,2.926,0.887,4.257,0.153
					c1.444-0.795,2.496-2.269,1.48-3.846c-0.071-0.109,0.047-0.28,0.175-0.229c1.137,0.443,2.512,0.57,3.553-0.193
					c1.012-0.741,1.524-2.043,1.431-3.287c-0.195-2.604-3.017-4.53-5.446-3.321c-0.087,0.042-0.205,0.01-0.229-0.094
					c-0.149-0.645-0.106-1.606-0.808-1.954c-0.763-0.377-1.546-0.128-2.279,0.185c-0.139,0.06-0.29-0.065-0.213-0.213
					C23.308,11.358,22.59,9.69,21.254,9.454z"/>
				<path opacity="0.5" fill="#00A2E5" d="M31.717,17.841c-0.056-0.747-0.329-1.437-0.745-2.014
					c-0.003,1.091-0.53,2.255-1.301,3.032c-0.726,0.732-1.745,1.29-2.807,1.093c-0.656-0.122-1.2-0.454-1.658-0.894
					c0.337,1.821-0.168,3.731-2.33,4.057c-1.067,0.161-2.002-0.215-2.712-0.938l0.224,3.667c0.084-0.128,0.153-0.294,0.203-0.509
					c0.024-0.105,0.142-0.132,0.229-0.093c1.315,0.6,2.926,0.887,4.257,0.153c1.444-0.795,2.496-2.269,1.48-3.846
					c-0.071-0.109,0.047-0.28,0.175-0.229c1.137,0.443,2.512,0.57,3.553-0.193C31.297,20.387,31.81,19.084,31.717,17.841z"/>
				<polygon fill="#96C11E" points="22.173,54.965 22.487,60.093 63.775,59.294 63.775,59.244 63.708,54.965 				"/>
			</g>
			<path fill="#531F01" d="M13.888,60.205c0,0,0.229-0.013,0.658-0.035c0.43-0.021,1.059-0.062,1.859-0.094
				c1.603-0.064,3.89-0.183,6.636-0.278c1.374-0.046,2.861-0.096,4.434-0.148c1.574-0.043,3.233-0.09,4.95-0.139
				c1.716-0.038,3.491-0.079,5.293-0.12c1.802-0.033,3.634-0.066,5.465-0.1c1.831-0.022,3.663-0.045,5.466-0.068
				c1.802-0.027,3.577-0.026,5.295-0.041c3.434-0.02,6.64-0.018,9.387,0c2.749,0.011,5.039,0.061,6.643,0.076
				c0.801,0.008,1.432,0.029,1.86,0.037c0.429,0.01,0.658,0.016,0.658,0.016s-0.228,0.012-0.658,0.034
				c-0.428,0.022-1.058,0.062-1.858,0.096c-1.602,0.064-3.89,0.183-6.636,0.278c-2.746,0.103-5.95,0.2-9.384,0.287
				c-1.717,0.037-3.49,0.092-5.294,0.12c-1.802,0.031-3.633,0.065-5.465,0.099c-1.831,0.022-3.662,0.045-5.464,0.068
				c-1.803,0.013-3.578,0.027-5.295,0.039c-1.717,0.004-3.377,0.009-4.952,0.013c-1.574-0.004-3.062-0.009-4.436-0.013
				c-2.748-0.01-5.039-0.059-6.642-0.074c-0.802-0.008-1.432-0.029-1.861-0.037C14.117,60.211,13.888,60.205,13.888,60.205z"/>
			<g>
				<polygon fill="#BA5023" points="62.92,5.83 36.155,28.602 40.318,81.576 63.704,58.544 				"/>
				<polygon fill="#C86224" points="62.938,5.799 60.071,5.658 33.585,28.248 38.104,81.753 40.318,81.576 36.155,28.602 				"/>
				<polygon opacity="0.5" fill="#BA5023" points="33.585,28.248 38.104,81.753 40.318,81.576 36.155,28.602 				"/>
			</g>
			<g>
				<path opacity="0.5" fill="#BA5023" d="M58.551,31.563l-0.79-12.091c-5.951,4.523-12.12,9.524-16.016,13.258l1.058,13.217
					C48.002,40.966,53.244,36.073,58.551,31.563z"/>
				<g>
					<polygon fill="#7B3314" points="58.048,30.778 43.15,44.229 42.184,32.772 57.277,20.194 					"/>
					<polygon fill="#BA5023" points="57.266,30.339 43.747,42.454 42.974,33.253 56.639,21.777 					"/>
					<polygon fill="#9D431D" points="42.184,32.772 42.974,33.253 56.639,21.777 57.277,20.194 					"/>
					<polygon fill="#9D431D" points="43.15,44.21 43.746,42.436 57.265,30.323 58.045,30.761 					"/>
				</g>
			</g>
			<g>
				<path opacity="0.5" fill="#BA5023" d="M61.249,53.47L60.46,41.377c-5.951,4.525-12.121,9.525-16.017,13.259l1.059,13.215
					C50.701,62.873,55.943,57.979,61.249,53.47z"/>
				<g>
					<polygon fill="#7B3314" points="60.746,52.684 45.849,66.135 44.883,54.678 59.977,42.1 					"/>
					<polygon fill="#BA5023" points="59.965,52.246 46.446,64.36 45.672,55.159 59.338,43.684 					"/>
					<polygon fill="#9D431D" points="44.883,54.678 45.672,55.159 59.338,43.684 59.977,42.1 					"/>
					<polygon fill="#9D431D" points="45.849,66.116 46.444,64.342 59.963,52.229 60.744,52.667 					"/>
				</g>
			</g>
			<path fill="#6E2D0C" d="M44.021,57.315c-1.019-0.578-2.455-0.438-3.269,0.385c-0.828,0.837-0.945,2.297-0.418,3.325
				c0.256,0.502,0.845,1.107,1.395,1.292c1.788,0.602,3.795-1.444,3.454-3.215c-0.092-0.47-0.424-1.218-0.795-1.532
				C44.274,57.474,44.151,57.388,44.021,57.315z"/>
			<path fill="#531F01" d="M44.513,57.816c-0.544-0.473-1.312-0.357-1.745,0.313c-0.442,0.686-0.504,1.879-0.223,2.72
				c0.137,0.411,0.451,0.906,0.744,1.058c0.955,0.491,2.027-1.181,1.845-2.629c-0.049-0.385-0.226-0.996-0.425-1.254
				C44.647,57.946,44.582,57.876,44.513,57.816z"/>
			<path fill="#6E2D0C" d="M63.886,16.858c0,0.435-0.352,0.785-0.784,0.785l0,0c-0.435,0-0.786-0.351-0.786-0.785v-4.714
				c0-0.433,0.352-0.785,0.786-0.785l0,0c0.433,0,0.784,0.352,0.784,0.785V16.858z"/>
			<g>
				<polygon opacity="0.5" fill="#BA5023" points="61.73,8.51 62.723,59.509 63.704,58.544 62.92,5.83 36.155,28.602 40.318,81.576 
					41.64,80.273 38.022,29.591 				"/>
			</g>
			<g>
				<g>
					<path fill="#39445D" d="M61.763,78.77c0,0,0.229,0.264-1.51,1.405c-1.737,1.141-2.475,1.368-2.352,1.982
						c0.123,0.615,1.457,0.264,2.809,0.018c1.353-0.245,3.318-1.018,3.511-1.439c0.193-0.421-0.543-2.035-0.543-2.035L61.763,78.77z
						"/>
					<path fill="#39445D" d="M55.708,79.139c0,0,0.264,0.685-0.526,0.878c-0.791,0.192-3.125-0.035-3.915,0.912
						c-0.619,0.743,1.738,0.948,4.073,1.089c2.334,0.14,2.738-0.019,2.773-0.72c0.034-0.703-0.352-1.966-0.352-1.966L55.708,79.139z
						"/>
					<path fill="#1F273C" d="M61.11,79.562c0.895,0.343,1.995,0.262,2.848-0.18c-0.142-0.379-0.28-0.683-0.28-0.683l-1.915,0.069
						C61.763,78.77,61.9,78.936,61.11,79.562z"/>
					<path fill="#1F273C" d="M62.648,81.319c-0.711,0.306-1.454,0.577-2.209,0.745c-0.626,0.141-2.071,0.608-2.548-0.054
						c-0.002,0.048,0,0.095,0.01,0.146c0.123,0.615,1.457,0.264,2.809,0.018c1.353-0.245,3.318-1.018,3.511-1.439
						c0.042-0.09,0.04-0.235,0.012-0.407C63.836,80.815,63.214,81.077,62.648,81.319z"/>
					<path fill="#1F273C" d="M55.444,79.915c0.808,0.26,1.692,0.38,2.521,0.199c-0.097-0.434-0.203-0.782-0.203-0.782l-2.054-0.193
						C55.708,79.139,55.905,79.651,55.444,79.915z"/>
					<path fill="#1F273C" d="M56.86,81.85c-0.925,0.029-1.854-0.055-2.772-0.147c-0.495-0.049-0.964-0.136-1.452-0.234
						c-0.33-0.066-0.74-0.073-1.046-0.223c-0.182-0.091-0.291-0.17-0.354-0.267c-0.472,0.702,1.823,0.9,4.104,1.039
						c2.06,0.124,2.615,0.015,2.741-0.495C57.768,81.754,57.201,81.839,56.86,81.85z"/>
					<path fill="#6070B5" d="M56.436,58.966c0,0-3.063,10.85-0.883,20.867c0,0,1.662,0.156,2.44,0c0,0-0.053-12.146,1.92-15.572
						c0,0-0.26,8.824,1.401,15.104c0,0,1.817,0.312,2.597-0.414c0,0-1.142-9.032,0.829-17.701c0,0,0.26-1.194-0.26-1.765
						C63.962,58.914,56.436,58.966,56.436,58.966z"/>
					<path opacity="0.5" fill="#6070B5" d="M64.48,59.485c-0.519-0.571-8.045-0.52-8.045-0.52s-0.26,0.924-0.574,2.474
						c0.979,0.297,2.103,0.322,3.047,0.405c1.561,0.138,3.099,0.386,4.668,0.397c0.067,0.001,0.143,0.072,0.144,0.14
						c0.009,0.628-0.142,1.223-0.223,1.842c-0.092,0.71-0.171,1.423-0.265,2.134c-0.205,1.569-0.366,3.14-0.43,4.723
						c-0.108,2.751,0.031,5.492,0.556,8.187c0.21-0.073,0.401-0.175,0.553-0.315c0,0-1.142-9.032,0.829-17.701
						C64.74,61.25,65,60.056,64.48,59.485z"/>
					<path opacity="0.5" fill="#6070B5" d="M59.913,64.261c0,0,0,0.021-0.001,0.053c0.157-0.271,0.341-0.532,0.509-0.817
						c-0.523,0.281-0.952,0.842-1.268,1.306c-0.445,0.656-0.785,1.367-1.053,2.113c-0.562,1.563-0.976,3.163-1.171,4.815
						c-0.318,2.682-0.485,5.464-0.214,8.168c0.455,0.011,0.946,0.001,1.277-0.065C57.993,79.833,57.94,67.687,59.913,64.261z"/>
					<path opacity="0.5" fill="#394270" d="M62.995,60.363c-0.066,0.564-0.162,1.175-0.022,1.735
						c0.195,0.79,0.529,1.518,1.233,1.968c0.146-0.936,0.321-1.879,0.534-2.816c0,0,0.26-1.194-0.26-1.765
						c-0.117-0.13-0.6-0.228-1.271-0.301C63.081,59.566,63.038,59.998,62.995,60.363z"/>
					<path fill="#F4D9BF" d="M75.444,64.514c0.02-0.012,0.034-0.036,0.043-0.075c0.053-0.235-0.059-0.507-0.129-0.728
						c-0.158-0.497-0.382-0.971-0.612-1.44c-0.157-0.322-0.343-0.538-0.655-0.716c-0.139-0.079-0.285-0.24-0.362-0.377
						c-0.582-1.032-1.151-2.271-1.498-3.432c-0.031-0.06-0.064-0.12-0.095-0.18c-0.57-1.106-1.049-2.244-1.701-3.281
						c-0.376-0.681-0.768-1.352-1.185-2.01c-0.051-0.079-0.185-0.093-0.254-0.031c-0.019,0.016-0.032,0.029-0.046,0.042
						c-0.188-0.002-0.321,0.18-0.46,0.302c-0.097,0.084-0.167,0.198-0.246,0.298c-0.05,0.065-0.101,0.131-0.143,0.199
						c-0.055-0.044-0.109-0.09-0.165-0.128c-0.047-0.033-0.102,0.022-0.068,0.069c0.947,1.364,1.745,2.754,2.527,4.216
						c0.416,0.776,0.785,1.57,1.186,2.355c0.371,0.728,0.775,1.54,0.971,2.351c-0.307,0.247-0.63,0.473-0.906,0.761
						c-0.117,0.12-0.485,0.468-0.324,0.675c0.165,0.213,0.595-0.092,0.738-0.171c0.18-0.102,0.393-0.239,0.577-0.401
						c-0.197,0.461-0.313,0.947-0.416,1.447c-0.05,0.253-0.261,1.002,0.105,1.155c0.276,0.117,0.537-0.589,0.736-1.375
						c0.013,0.194,0.033,0.387,0.065,0.575c0.052,0.3,0.073,0.7,0.349,0.884c0.042,0.027,0.085,0.026,0.126,0
						c0.346-0.229,0.193-1.02,0.194-1.365c0-0.154-0.005-0.311-0.011-0.465c0.186,0.591,0.522,1.553,0.833,1.413
						c0.25-0.111,0.103-0.634,0.079-0.828c-0.038-0.335-0.133-0.661-0.26-0.975c0.097,0.239,0.237,0.486,0.378,0.702
						c0.074,0.112,0.157,0.222,0.255,0.314C75.141,64.36,75.329,64.587,75.444,64.514z"/>
					<path opacity="0.5" fill="#F4D9BF" d="M75.327,64.438c-0.23-0.154-0.337-0.429-0.476-0.656
						c-0.105-0.175-0.202-0.38-0.348-0.524c-0.073-0.07-0.126-0.085-0.169-0.068c0.065,0.232,0.134,0.465,0.191,0.702
						c0.069,0.29,0.199,0.584,0.103,0.879c-0.033,0.1-0.184,0.167-0.261,0.069c-0.097-0.122-0.116-0.24-0.164-0.387
						c-0.084-0.255-0.202-0.496-0.283-0.75c-0.089-0.278-0.183-0.158-0.25-0.012c0.04,0.344,0.071,0.689,0.087,1.04
						c0.009,0.196,0.04,0.581-0.229,0.621c-0.068,0.01-0.138-0.005-0.176-0.072c-0.111-0.196-0.092-0.475-0.117-0.69
						c-0.024-0.215-0.032-0.441-0.093-0.649c-0.032-0.11-0.135-0.056-0.228,0.019c-0.059,0.174-0.11,0.347-0.146,0.521
						c-0.045,0.213-0.049,0.818-0.382,0.812c-0.062,0-0.141-0.046-0.15-0.114c-0.055-0.403,0.112-0.85,0.226-1.233
						c0.064-0.217,0.453-1.052,0.251-1.253c-0.197,0.078-0.39,0.168-0.563,0.277c-0.233,0.147-0.423,0.379-0.677,0.486
						c0.199,0.01,0.477-0.182,0.587-0.242c0.18-0.102,0.393-0.239,0.577-0.401c-0.197,0.461-0.313,0.947-0.416,1.447
						c-0.05,0.253-0.261,1.002,0.105,1.155c0.276,0.117,0.537-0.589,0.736-1.375c0.013,0.194,0.033,0.387,0.065,0.575
						c0.052,0.3,0.073,0.7,0.349,0.884c0.042,0.027,0.085,0.026,0.126,0c0.346-0.229,0.193-1.02,0.194-1.365
						c0-0.154-0.005-0.311-0.011-0.465c0.186,0.591,0.522,1.553,0.833,1.413c0.25-0.111,0.103-0.634,0.079-0.828
						c-0.038-0.335-0.133-0.661-0.26-0.975c0.097,0.239,0.237,0.486,0.378,0.702c0.074,0.112,0.157,0.222,0.255,0.314
						c0.069,0.065,0.258,0.292,0.373,0.219c0.012-0.008,0.021-0.022,0.029-0.039C75.426,64.478,75.376,64.47,75.327,64.438z"/>
					<path opacity="0.5" fill="#F4D9BF" d="M72.552,61.948c-0.307,0.247-0.63,0.473-0.906,0.761
						c-0.094,0.098-0.349,0.342-0.36,0.541c0.162-0.377,0.608-0.607,0.919-0.848c0.238-0.184,0.71-0.39,0.879-0.682
						c0.01-0.103-0.017-0.225-0.101-0.375c-0.091-0.163-0.188-0.324-0.271-0.491c-0.249-0.495-0.503-0.988-0.76-1.479
						c-0.584-1.113-1.178-2.22-1.771-3.326c-0.418-0.782-1.145-1.733-1.146-2.653c-0.001-0.321,0.2-0.547,0.462-0.717
						c-0.083-0.135-0.162-0.271-0.246-0.404c-0.051-0.079-0.185-0.093-0.254-0.031c-0.019,0.016-0.032,0.029-0.046,0.042
						c-0.188-0.002-0.321,0.18-0.46,0.302c-0.097,0.084-0.167,0.198-0.246,0.298c-0.05,0.065-0.101,0.131-0.143,0.199
						c-0.055-0.044-0.109-0.09-0.165-0.128c-0.047-0.033-0.102,0.022-0.068,0.069c0.947,1.364,1.745,2.754,2.527,4.216
						c0.416,0.776,0.785,1.57,1.186,2.355C71.952,60.325,72.356,61.138,72.552,61.948z"/>
					<path fill="#F4D9BF" d="M54.327,51.891c-0.043-0.327-0.316-0.782-0.553-1.023c-0.049-0.051-0.113-0.052-0.162-0.022
						c-1.312,0.86-2.622,1.588-4.046,2.255c-1.655,0.776-3.25,1.687-4.915,2.439c-0.722,0.326-1.638,0.086-2.411,0.316
						c-0.699,0.209-1.385,0.536-1.85,1.121c-0.351,0.441-0.833,1.815-0.149,1.879c0,0.031,0,0.062,0.001,0.093
						c0.016,0.248,0.232,0.374,0.452,0.376c-0.011,0.12,0,0.242,0.071,0.33c0.153,0.188,0.375,0.187,0.579,0.094
						c0.051,0.1,0.125,0.192,0.236,0.268c0.666,0.455,1.405-1.174,1.688-1.52c0.239-0.289,0.561-0.533,0.94-0.587
						c0.401-0.059,0.601,0.181,0.549,0.572c-0.048,0.355,0.178,0.728,0.565,0.581c0.256-0.097,0.313-0.382,0.355-0.625
						c0.059-0.341-0.042-0.713,0.058-1.045c0.146-0.479,0.91-0.64,1.309-0.824c0.519-0.238,1.048-0.473,1.541-0.762
						c0.859-0.504,1.756-0.942,2.599-1.472c0.939-0.593,1.878-1.089,2.717-1.835C54.098,52.327,54.367,52.186,54.327,51.891z"/>
					<path opacity="0.5" fill="#F4D9BF" d="M40.936,57.534c-0.497,0.089-0.588,0.62-0.897,0.967
						c-0.032,0.036-0.078,0.045-0.123,0.041c0.038,0.171,0.133,0.292,0.321,0.312C40.268,58.354,40.942,57.55,40.936,57.534z"/>
					<path opacity="0.5" fill="#F4D9BF" d="M41.592,57.953c0.017-0.02,0.029-0.042,0.047-0.061c0.018-0.021-0.167-0.062-0.566,0.328
						c-0.206,0.186-0.347,0.584-0.576,0.797c-0.087,0.08-0.224,0.037-0.254-0.07v0.001c0.015,0.244,0.227,0.368,0.442,0.375
						c-0.018-0.249,0.145-0.49,0.286-0.684C41.159,58.387,41.371,58.17,41.592,57.953z"/>
					<path opacity="0.5" fill="#F4D9BF" d="M43.903,55.985c0.348,0.228,0.74,0.479,0.866,0.118c0.039-0.111,0.006-0.243,0.022-0.36
						c0.018-0.12,0.068-0.229,0.129-0.333c-0.51,0.242-0.959,0.295-1.518,0.325C43.516,55.73,43.701,55.854,43.903,55.985z"/>
					<path opacity="0.5" fill="#F4D9BF" d="M54.327,51.891c-0.043-0.327-0.316-0.782-0.553-1.023
						c-0.049-0.051-0.113-0.052-0.162-0.022c-0.232,0.152-0.466,0.296-0.699,0.44c0.113,0.355,0.244,0.715,0.017,1.022
						c-0.496,0.666-1.164,1.174-1.896,1.562c-0.993,0.528-2.013,1.01-3.017,1.52c-0.495,0.251-0.993,0.501-1.484,0.759
						c-0.438,0.229-0.649,0.381-0.816,0.89c-0.059,0.182-0.073,0.23-0.154,0.385c-0.336,0.643-0.98-0.094-1.497,0.104
						c-0.915,0.351-1.018,1.292-1.742,1.826c-0.009,0.008-0.017,0.011-0.024,0.018c-0.005,0.005-0.008,0.01-0.013,0.016
						c-0.128,0.148-0.323,0.431-0.534,0.475c-0.239,0.049-0.315-0.171-0.271-0.371c0.043-0.189,0.138-0.346,0.247-0.494
						c0.057-0.228,0.404-0.709,0.465-0.692c0.009-0.022,0.02-0.046,0.028-0.069c0.016-0.048,0.046-0.077,0.081-0.093
						c-0.298,0.136-0.605,0.233-0.801,0.52c-0.095,0.137-0.152,0.294-0.24,0.436c-0.084,0.136-0.186,0.265-0.308,0.369
						c-0.083,0.072-0.234,0.054-0.261-0.068c0-0.003,0-0.007-0.001-0.01c-0.002,0.1,0.015,0.195,0.074,0.268
						c0.153,0.188,0.375,0.187,0.579,0.094c0.051,0.1,0.125,0.192,0.236,0.268c0.666,0.455,1.405-1.174,1.688-1.52
						c0.239-0.289,0.561-0.533,0.94-0.587c0.401-0.059,0.601,0.181,0.549,0.572c-0.048,0.355,0.178,0.728,0.565,0.581
						c0.256-0.097,0.313-0.382,0.355-0.625c0.059-0.341-0.042-0.713,0.058-1.045c0.146-0.479,0.91-0.64,1.309-0.824
						c0.519-0.238,1.048-0.473,1.541-0.762c0.859-0.504,1.756-0.942,2.599-1.472c0.939-0.593,1.878-1.089,2.717-1.835
						C54.098,52.327,54.367,52.186,54.327,51.891z"/>
					<g>
						<path fill="#C39368" d="M40.914,57.541c-0.309,0.407-0.697,0.866-0.759,1.397c-0.008,0.074,0.093,0.083,0.111,0.015
							c0.144-0.531,0.371-0.935,0.682-1.385C40.965,57.545,40.93,57.52,40.914,57.541z"/>
						<path fill="#C39368" d="M41.613,57.883c-0.456,0.397-0.884,0.838-1.018,1.454c-0.013,0.061,0.083,0.104,0.115,0.048
							c0.157-0.269,0.238-0.562,0.423-0.819c0.162-0.225,0.319-0.451,0.501-0.661C41.646,57.892,41.625,57.87,41.613,57.883z"/>
						<path fill="#C39368" d="M42.307,58.117c-0.451,0.364-0.929,0.981-1.033,1.568c-0.017,0.093,0.106,0.109,0.146,0.041
							c0.156-0.271,0.225-0.573,0.396-0.843c0.161-0.255,0.372-0.473,0.528-0.729C42.359,58.13,42.332,58.098,42.307,58.117z"/>
					</g>
					<path fill="#81D4F7" d="M69.782,52.091c-0.942-1.398-2.095-2.49-3.515-3.393c-0.678-0.429-1.389-0.774-2.125-1.085
						c-0.212-0.089-0.428-0.198-0.647-0.311c-0.492,0.086-0.994,0.096-1.513,0.101c-0.668,0.005-1.305,0.018-1.938-0.19
						c-0.288,0.071-0.573,0.174-0.879,0.292c-0.908,0.346-1.776,0.692-2.632,1.161c-0.733,0.401-2.841,1.858-3.196,2.118
						c-0.1,0.072-0.27,0.137-0.289,0.283c-0.059,0.421,0.48,1.09,0.64,1.471c0.198,0.479,0.344,1.141,0.664,1.551
						c0.169,0.218,0.461-0.07,0.6-0.16c0.415-0.267,0.86-0.591,1.273-0.921c-0.134,0.717-0.213,1.447-0.302,2.166
						c-0.188,1.521-0.456,3.034-0.667,4.554c-0.032,0.237-0.124,0.652,0.185,0.767c0.187,0.07,0.381,0.118,0.579,0.154
						c0.038,0.077,6.771,0.51,7.574,0.646c0.311,0.052,1.141,0.216,1.365-0.078c0.117-0.153,0.1-0.44,0.1-0.621
						c-0.001-0.502,0.067-1.005,0.112-1.505c0.087-0.979,0.115-1.941,0.15-2.921c0.033-0.954,0.127-1.914,0.195-2.867
						c0.029-0.404,0.061-0.901,0.015-1.354c0.709,0.508,1.384,1.526,2.036,2.073c0.163,0.138,0.462-0.344,0.64-0.508
						c0.452-0.42,1.02-0.803,1.538-1.134C69.846,52.317,69.84,52.178,69.782,52.091z"/>
					<path fill="#81D4F7" d="M56.14,53.515c0.29-0.878,0.607-1.747,0.895-2.626C56,51.646,54.97,52.406,53.89,53.097
						c0.122,0.357,0.256,0.728,0.463,0.992c0.169,0.218,0.461-0.07,0.6-0.16c0.415-0.267,0.86-0.591,1.273-0.921
						C56.194,53.176,56.166,53.345,56.14,53.515z"/>
					<path fill="#81D4F7" d="M59.495,47.987c1.555-0.07,3.266,0.06,4.68,0.762c1.942,0.963,3.29,2.632,4.718,4.21
						c0.283-0.206,0.574-0.4,0.854-0.579c0.1-0.062,0.094-0.202,0.036-0.289c-0.942-1.398-2.095-2.49-3.515-3.393
						c-0.678-0.429-1.389-0.774-2.125-1.085c-0.212-0.089-0.428-0.198-0.647-0.311c-0.492,0.086-0.994,0.096-1.513,0.101
						c-0.668,0.005-1.305,0.018-1.938-0.19c-0.288,0.071-0.573,0.174-0.879,0.292c-0.901,0.344-1.765,0.688-2.613,1.151
						C57.517,48.337,58.485,48.033,59.495,47.987z"/>
					<path fill="#81D4F7" d="M65.602,52.004c-0.509-0.684-1.123-1.274-1.739-1.878c0.242,3.725-0.212,7.443-0.977,11.09
						c0.339,0.031,0.59,0.057,0.709,0.078c0.311,0.052,1.141,0.216,1.365-0.078c0.117-0.153,0.1-0.44,0.1-0.621
						c-0.001-0.502,0.067-1.005,0.112-1.505c0.087-0.979,0.115-1.941,0.15-2.921c0.033-0.954,0.127-1.914,0.195-2.867
						c0.029-0.404,0.061-0.901,0.015-1.354C65.556,51.965,65.579,51.986,65.602,52.004z"/>
					<path fill="#3B9ED8" d="M56.677,51.58c-0.052,0.159-0.102,0.32-0.146,0.486c-0.087,0.336-0.203,0.671-0.309,1.007
						c2.115-0.243,4.208,0.148,6.295,0.583c0.986,0.205,1.973,0.448,2.911,0.803c0.03-0.386,0.062-0.772,0.089-1.157
						c0.001-0.009,0.002-0.02,0.002-0.028c-1.092-0.428-2.237-0.747-3.331-0.953C60.436,51.989,58.512,51.503,56.677,51.58z"/>
					<path fill="#3B9ED8" d="M65.601,51.994c-0.039-0.076-0.084-0.148-0.133-0.221c-0.752-0.293-1.525-0.54-2.311-0.76
						c-1.877-0.521-3.751-1.105-5.698-1.252c-0.269,0.492-0.491,0.991-0.677,1.51c1.742-0.046,3.55,0.382,5.213,0.696
						c1.167,0.221,2.383,0.544,3.546,0.985c0.018-0.324,0.024-0.677-0.009-1.005C65.555,51.963,65.578,51.979,65.601,51.994z"/>
					<path opacity="0.5" fill="#81D4F7" d="M60.806,49.926c0.029,0.005,0.061,0.009,0.091,0.011c0.466,0.037,0.999-0.154,1.33-0.486
						c0.394-0.391,0.428-1.043,0.69-1.518c0.227-0.409,0.646-0.437,1.072-0.389c-0.162-0.074-0.327-0.156-0.494-0.241
						c-0.492,0.086-0.994,0.096-1.513,0.101c-0.668,0.005-1.305,0.018-1.938-0.19c-0.193,0.048-0.389,0.113-0.586,0.185
						c0.138-0.049,0.07,1.134,0.092,1.239C59.668,49.232,59.965,49.778,60.806,49.926z"/>
					<path fill="#F4D9BF" d="M59.975,47.233c-0.174,0.534-0.191,1.139,0.015,1.656c0.388,0.972,1.661,1.153,2.182,0.165
						c0.264-0.501,0.3-1.077,0.259-1.659c-0.148,0.004-0.297,0.007-0.447,0.008c-0.668,0.005-1.305,0.018-1.938-0.19
						C60.022,47.22,59.999,47.229,59.975,47.233z"/>
					<path fill="#F4D9BF" d="M59.975,47.233c-0.174,0.534-0.191,1.139,0.015,1.656c0.388,0.972,1.661,1.153,2.182,0.165
						c0.264-0.501,0.3-1.077,0.259-1.659c-0.148,0.004-0.297,0.007-0.447,0.008c-0.668,0.005-1.305,0.018-1.938-0.19
						C60.022,47.22,59.999,47.229,59.975,47.233z"/>
					<path fill="#F4D9BF" d="M69.8,43.162c0.101-0.15,0.199-0.3,0.298-0.45c0.213-0.324,0.515-0.676,0.726-1.051
						c0.173-0.846,0.146-2.093-0.836-2.361c-0.307-0.176-0.341,0.06-0.341-0.453c0-0.656-0.198-1.306-0.335-1.945
						c-0.181-0.852-0.393-1.627-0.895-2.355c-0.53-0.769-1.539-0.936-2.335-1.282c-0.836-0.362-1.862-0.455-2.754-0.611
						c-1.101-0.194-2.219-0.173-3.316,0.029c-1.515,0.279-2.822,1.381-4.1,2.184c-0.174,0.111-0.617,0.367-0.812,0.665
						c-0.066-0.006-0.146,0.05-0.14,0.129c0.093,1.238,0.112,2.343-0.29,3.547c-0.338,1.015-0.608,1.882-0.483,2.968
						c0.115,1,0.888,1.866,1.516,2.6c0.694,0.813,1.54,1.573,2.505,2.045c1.009,0.492,2.131,0.67,3.241,0.738
						c0.637,0.038,1.278,0.056,1.916,0.044c1.995-0.031,3.593-1.662,4.705-3.14c0.232-0.308,0.537-0.819,0.94-0.862
						C69.315,43.566,69.591,43.37,69.8,43.162z"/>
					<path fill="#9D7345" d="M72.907,37.788c-0.12-0.82-0.569-1.583-1.197-2.309c-0.414-0.48-0.844-0.936-1.315-1.348
						c0.479-0.081,0.976-0.112,1.436-0.052c0.192,0.025,0.24-0.225,0.084-0.309c-0.586-0.315-1.138-0.45-1.689-0.396
						c0.21-0.604,0.312-1.255,0.407-1.874c0.025-0.172-0.245-0.253-0.3-0.082c-0.098,0.312-0.271,0.562-0.463,0.824
						c-0.042,0.057-0.087,0.126-0.135,0.195c-0.095-0.251-0.228-0.491-0.346-0.688c-0.439-0.725-1.181-1.332-1.87-1.808
						c-1.505-1.039-3.186-0.954-4.917-0.946c-1.878,0.009-3.828,0.706-5.424,1.648c-1.762,1.042-2.975,2.487-3.946,4.26
						c-0.096,0.176-0.047,0.218,0.025,0.18c0.74-0.376,1.619-0.604,2.408-0.805c-0.234,0.202-0.45,0.426-0.645,0.64
						c-0.444,0.491-1.024,1.131-1.243,1.77c-0.033,0.101,0.055,0.186,0.154,0.152c0.284-0.096,0.529-0.317,0.801-0.455
						c0.381-0.193,0.789-0.334,1.193-0.469c0.394-0.132,0.798-0.207,1.203-0.275c-0.335,0.276-0.634,0.573-0.871,0.893
						c-0.113,0.152,0.052,0.4,0.235,0.305c1.542-0.797,3.166-1.258,4.803-1.798c-0.404,0.29-0.826,0.62-1.057,1.001
						c-0.082,0.136-0.004,0.383,0.194,0.335c1.479-0.362,2.97-0.69,4.442-1.09c-0.039,0.062-0.08,0.123-0.118,0.185
						c-0.21,0.344-0.507,0.793-0.566,1.199c-0.019,0.126,0.115,0.229,0.231,0.178c0.562-0.246,1.179-0.514,1.702-0.833
						c0.339-0.208,0.845-0.398,1.24-0.659c-0.164,0.938,0.219,2.213,0.71,2.924c-0.139,0.515-0.158,1.035-0.126,1.586
						c0.039,0.659,0.091,1.413,0.221,2.058c0.021,0.1,0.149,0.119,0.194,0.026c0.06-0.124,0.271-0.546,0.309-0.617
						c0.077-0.568,0.062-1.191,0.49-1.544c0.645-0.531,1.419,0.076,1.519,0.786c0.113,0.82-0.11,2.057-1.146,2.096
						c-0.162,0.005-0.364-0.07-0.531-0.187c-0.384,0.167-0.54,0.803-0.702,1.148c-0.146,0.318-0.353,0.683-0.532,0.981
						c-0.115,0.191-0.305,0.321-0.381,0.528c-0.054,0.148,0.081,0.262,0.221,0.221c1.044-0.312,2.051-1.675,2.615-2.542
						c0.716-1.102,1.811-1.978,2.375-3.174C72.91,38.995,72.993,38.376,72.907,37.788z"/>
					<path opacity="0.3" fill="#9D7345" d="M72.877,38.026c-0.186,0.48-0.78,1.804-1.531,1.366
						c-0.177-0.104-0.339-0.248-0.408-0.447c-0.114-0.327-0.147-0.743-0.749-0.663c-0.142,0.02-0.302,0.053-0.444,0.014
						c-0.567-0.155-0.6-0.865-0.697-1.339c-0.131-0.631-0.22-2.842-1.138-2.724c-0.699,0.09-1.303,0.511-2.014,0.557
						c-0.122,0.008-0.187-0.137-0.135-0.234c0.173-0.318,0.408-0.595,0.578-0.912c-0.821,0.088-1.672,0.393-2.426,0.693
						c-0.494,0.197-1.032,0.444-1.562,0.252c-0.1-0.036-0.139-0.134-0.093-0.229c0.264-0.544,0.797-0.833,1.161-1.287
						c-1.759,0.065-3.13,1.837-4.882,1.793c-0.145-0.003-0.193-0.163-0.109-0.265c0.375-0.463,0.948-0.755,1.331-1.207
						c-1.187,0.448-2.162,1.497-3.521,1.272c-0.086-0.014-0.125-0.116-0.107-0.192c0.192-0.828,1.384-1.149,1.565-1.913
						c-0.57,0.112-1.122,0.401-1.683,0.543c-0.344,0.087-0.95,0.276-1.252-0.024c-0.076-0.076-0.113-0.164-0.126-0.255
						c-0.526,0.631-0.988,1.323-1.403,2.08c-0.096,0.176-0.047,0.218,0.025,0.18c0.74-0.376,1.619-0.604,2.408-0.805
						c-0.234,0.202-0.45,0.426-0.645,0.64c-0.444,0.491-1.024,1.131-1.243,1.77c-0.033,0.101,0.055,0.186,0.154,0.152
						c0.284-0.096,0.529-0.317,0.801-0.455c0.381-0.193,0.789-0.334,1.193-0.469c0.394-0.132,0.798-0.207,1.203-0.275
						c-0.335,0.276-0.634,0.573-0.871,0.893c-0.113,0.152,0.052,0.4,0.235,0.305c1.542-0.797,3.166-1.258,4.803-1.798
						c-0.404,0.29-0.826,0.62-1.057,1.001c-0.082,0.136-0.004,0.383,0.194,0.335c1.479-0.362,2.97-0.69,4.442-1.09
						c-0.039,0.062-0.08,0.123-0.118,0.185c-0.21,0.344-0.507,0.793-0.566,1.199c-0.019,0.126,0.115,0.229,0.231,0.178
						c0.562-0.246,1.179-0.514,1.702-0.833c0.339-0.208,0.845-0.398,1.24-0.659c-0.164,0.938,0.219,2.213,0.71,2.924
						c-0.139,0.515-0.158,1.035-0.126,1.586c0.039,0.659,0.091,1.413,0.221,2.058c0.021,0.1,0.149,0.119,0.194,0.026
						c0.06-0.124,0.271-0.546,0.309-0.617c0.077-0.568,0.062-1.191,0.49-1.544c0.645-0.531,1.419,0.076,1.519,0.786
						c0.113,0.82-0.11,2.057-1.146,2.096c-0.162,0.005-0.364-0.07-0.531-0.187c-0.384,0.167-0.54,0.803-0.702,1.148
						c-0.146,0.318-0.353,0.683-0.532,0.981c-0.115,0.191-0.305,0.321-0.381,0.528c-0.054,0.148,0.081,0.262,0.221,0.221
						c1.044-0.312,2.051-1.675,2.615-2.542c0.716-1.102,1.811-1.978,2.375-3.174c0.289-0.611,0.38-1.19,0.32-1.743
						C72.906,37.947,72.892,37.988,72.877,38.026z"/>
					<path fill="#C39368" d="M70.049,40.501c-0.138-0.068-0.305-0.047-0.429,0.045c-0.269,0.198-0.329,0.516-0.354,0.831
						c0,0.009,0.005,0.015,0.007,0.021c0,0.006-0.002,0.011-0.002,0.016c0.006,0.063,0.073,0.089,0.127,0.072
						c0.187-0.06,0.251-0.269,0.477-0.217c0.089,0.021,0.111-0.108,0.039-0.144c-0.133-0.067-0.254-0.09-0.398-0.042
						c-0.004,0.001-0.007,0.004-0.012,0.006c0.039-0.068,0.084-0.133,0.142-0.186c0.064-0.059,0.146-0.124,0.236-0.114
						c0.066,0.007,0.121,0.093,0.196,0.108c0.05,0.009,0.097-0.023,0.118-0.067C70.255,40.702,70.168,40.561,70.049,40.501z"/>
					<path fill="#7F4C30" d="M62.142,37.732c-0.601-0.202-1.549,0.369-1.59,1.01c-0.001,0.03,0.032,0.056,0.059,0.034
						c0.417-0.355,1.033-1.036,1.602-0.471c0.188,0.188,0.356,0.479,0.464,0.718c0.111,0.249,0.085,0.458,0.237,0.682
						c0.059,0.085,0.218,0.07,0.248-0.033C63.371,38.982,62.829,37.963,62.142,37.732z"/>
					<path fill="#7F4C30" d="M56.901,37.535c-0.632-0.07-1.2,0.672-1.287,1.241c-0.024,0.168,0.208,0.27,0.31,0.128
						c0.158-0.223,0.573-1.223,1.008-0.947c0.33,0.209,0.546,0.666,0.705,1.011c0.013,0.028,0.063,0.027,0.064-0.009
						C57.712,38.551,57.407,37.592,56.901,37.535z"/>
					<path fill="#C39368" d="M58.37,46.237c-0.844-0.232-1.621-0.953-1.883-1.809c0.151,0.895,0.831,1.616,1.693,1.93
						c0.668,0.242,1.666,0.077,2.197-0.463c-0.185,0.103-0.379,0.188-0.577,0.252C59.342,46.317,58.849,46.369,58.37,46.237z"/>
					<path fill="#231F20" d="M61.443,41.004c-0.052,0.007-0.103,0.032-0.154,0.081c-0.213,0.205-0.273,0.549-0.276,0.833
						c-0.002,0.202,0.018,0.465,0.217,0.576c0.513,0.285,0.662-0.78,0.617-1.095C61.818,41.198,61.636,40.977,61.443,41.004z"/>
					<path fill="#FFFFFF" d="M61.824,41.462c-0.026-0.11-0.081-0.222-0.2-0.242c-0.151-0.026-0.243,0.113-0.269,0.239
						c-0.031,0.155,0,0.41,0.175,0.475c0.046,0.017,0.141,0,0.185-0.02c0.043-0.02,0.069-0.055,0.089-0.096
						c0.04-0.086,0.048-0.184,0.034-0.278C61.835,41.514,61.829,41.488,61.824,41.462z"/>
					<path fill="#231F20" d="M56.044,40.234c-0.052,0.007-0.104,0.032-0.154,0.081c-0.213,0.205-0.274,0.549-0.276,0.832
						c-0.002,0.202,0.017,0.466,0.215,0.577c0.516,0.284,0.664-0.779,0.619-1.095C56.418,40.429,56.235,40.208,56.044,40.234z"/>
					<path fill="#FFFFFF" d="M56.423,40.692c-0.024-0.109-0.079-0.221-0.199-0.242c-0.15-0.026-0.241,0.113-0.268,0.239
						c-0.031,0.155,0,0.41,0.174,0.475c0.047,0.017,0.142,0,0.186-0.02c0.042-0.02,0.068-0.055,0.087-0.096
						c0.041-0.087,0.05-0.185,0.036-0.279C56.435,40.745,56.43,40.719,56.423,40.692z"/>
				</g>
				<path fill="#C39368" d="M57.947,43.053c-0.001-0.166,0.097-0.303,0.218-0.427c-0.188,0.103-0.37,0.222-0.404,0.452
					c-0.04,0.254,0.207,0.584,0.483,0.507c0.022-0.007,0.039-0.02,0.052-0.034C58.105,43.431,57.947,43.262,57.947,43.053z"/>
				<path fill="#0082C9" d="M57.468,49.737c-0.733,0.74-1.034,2.132-1.187,3.125c-0.004,0.029,0.037,0.04,0.047,0.014
					c0.2-0.515,0.322-1.06,0.508-1.582c0.187-0.522,0.458-1.004,0.711-1.496C57.569,49.754,57.504,49.702,57.468,49.737z"/>
				<path fill="#0082C9" d="M65.852,52.147c-0.042-0.104-0.285-0.33-0.359-0.414c-0.1-0.113-0.189-0.236-0.289-0.351
					c-0.02-0.024-0.059-0.002-0.047,0.028c0.092,0.227,0.248,0.439,0.499,0.634C65.69,52.072,65.87,52.192,65.852,52.147z"/>
			</g>
		</g>
		<g>
			<path fill="#F9D87C" d="M20.242,65.171c-0.523-0.557-1.128-1.047-1.505-1.724c-0.442-0.796-0.257-1.484,0.03-2.282
				c0.236-0.656,0.301-1.304,0.27-1.998c-0.056-1.267-0.619-2.883-1.559-3.779c-0.741-0.708-1.921-0.607-1.879,0.607
				c0.021,0.591,0.583,1.079,0.966,1.457c0.368,0.362,0.686,0.749,0.883,1.236c0.227,0.563,0.006,1.153-0.163,1.697
				c-0.409,1.31-0.796,2.463-0.26,3.798c0.376,0.941,1.383,1.844,2.375,2.245c0.478,0.318,0.969,0.44,1.2-0.107
				C20.767,65.924,20.499,65.444,20.242,65.171z"/>
			<g>
				<path fill="#F4AD1C" d="M16.686,57.577c0.426-0.524,0.881-1.026,1.325-1.537c-0.049-0.073-0.098-0.149-0.151-0.218
					c-0.555,0.381-1.092,0.865-1.514,1.415c0.076,0.074,0.151,0.147,0.22,0.215C16.608,57.493,16.646,57.535,16.686,57.577z"/>
				<path fill="#F4AD1C" d="M17.281,60.827c0.226-0.036,0.45-0.068,0.679-0.084c0.315-0.021,0.632-0.051,0.943-0.041
					c0.048-0.201,0.083-0.403,0.106-0.607c-0.473,0.083-0.946,0.153-1.396,0.339c-0.137,0.056-0.269,0.116-0.399,0.181
					c-0.026,0.084-0.052,0.167-0.077,0.25C17.185,60.851,17.231,60.835,17.281,60.827z"/>
				<path fill="#F4AD1C" d="M17.686,62.214c0.273-0.116,0.557-0.201,0.847-0.261c0.029-0.142,0.067-0.284,0.113-0.428
					c-0.447-0.104-1.077,0.061-1.451,0.198c-0.109,0.04-0.215,0.085-0.318,0.132c-0.063,0.305-0.103,0.608-0.108,0.915
					C17.043,62.555,17.335,62.364,17.686,62.214z"/>
				<path fill="#F4AD1C" d="M18.756,63.478c-0.006-0.011-0.014-0.02-0.019-0.03c-0.076-0.137-0.127-0.269-0.168-0.399
					c-0.399,0.144-1.249,0.837-1.314,0.905c-0.078,0.081-0.15,0.164-0.221,0.248c0.084,0.204,0.201,0.407,0.337,0.603
					C17.72,64.265,18.203,63.809,18.756,63.478z"/>
				<path fill="#F4AD1C" d="M19.65,64.567c-0.124-0.125-0.247-0.248-0.363-0.378c-0.485,0.381-0.918,0.856-1.209,1.397
					c0.183,0.163,0.38,0.312,0.582,0.446C18.88,65.486,19.229,64.986,19.65,64.567z"/>
				<path fill="#F4AD1C" d="M18.743,57.609c-0.081-0.259-0.173-0.516-0.287-0.764c-0.017,0.017-0.032,0.034-0.05,0.05
					c-0.245,0.21-0.498,0.407-0.746,0.611c-0.204,0.167-0.402,0.339-0.591,0.519c0.093,0.125,0.174,0.258,0.249,0.396
					C17.742,58.063,18.242,57.779,18.743,57.609z"/>
			</g>
			<path fill="#F9D87C" d="M25.286,75.591c-0.151-0.284-0.107-0.609-0.192-0.913c0-0.049,0-0.098-0.004-0.146
				c-0.018-0.231-0.276-0.257-0.45-0.285c-0.372-0.06-0.739-0.129-1.105-0.223c-0.212-0.055-0.455-0.107-0.667-0.034
				c-0.062,0.021-0.067,0.102-0.027,0.144c-0.069,0.641-0.004,1.297-0.027,1.939c-0.015,0.423,0.366,0.854,0.729,1.016
				c0.336,0.148,0.591-0.08,0.665-0.381c0.015-0.062,0.01-0.124-0.002-0.187c0.142,0.127,0.415,0.324,0.596,0.18
				c0.143-0.113,0.107-0.279,0.055-0.433c0.21,0.13,0.41,0.173,0.526,0.004C25.533,76.053,25.396,75.798,25.286,75.591z"/>
			<path fill="#FFDF5D" d="M25.286,75.591c-0.151-0.284-0.107-0.609-0.192-0.913c0-0.049,0-0.098-0.004-0.146
				c-0.018-0.231-0.276-0.257-0.45-0.285c-0.372-0.06-0.739-0.129-1.105-0.223c-0.212-0.055-0.455-0.107-0.667-0.034
				c-0.062,0.021-0.067,0.102-0.027,0.144c-0.069,0.641-0.004,1.297-0.027,1.939c-0.015,0.423,0.366,0.854,0.729,1.016
				c0.336,0.148,0.591-0.08,0.665-0.381c0.015-0.062,0.01-0.124-0.002-0.187c0.142,0.127,0.415,0.324,0.596,0.18
				c0.143-0.113,0.107-0.279,0.055-0.433c0.21,0.13,0.41,0.173,0.526,0.004C25.533,76.053,25.396,75.798,25.286,75.591z"/>
			<path fill="#F5C677" d="M25.286,75.591c-0.151-0.284-0.107-0.609-0.192-0.913c0-0.049,0-0.098-0.004-0.146
				c-0.018-0.231-0.276-0.257-0.45-0.285c-0.372-0.06-0.739-0.129-1.105-0.223c-0.212-0.055-0.455-0.107-0.667-0.034
				c-0.062,0.021-0.067,0.102-0.027,0.144c-0.069,0.641-0.004,1.297-0.027,1.939c-0.015,0.423,0.366,0.854,0.729,1.016
				c0.336,0.148,0.591-0.08,0.665-0.381c0.015-0.062,0.01-0.124-0.002-0.187c0.142,0.127,0.415,0.324,0.596,0.18
				c0.143-0.113,0.107-0.279,0.055-0.433c0.21,0.13,0.41,0.173,0.526,0.004C25.533,76.053,25.396,75.798,25.286,75.591z"/>
			<path opacity="0.8" fill="#F9D87C" d="M24.205,76.542c-0.144,0.221-0.434,0.288-0.632-0.054c-0.406-0.7-0.283-1.708-0.221-2.506
				c-0.162-0.033-0.331-0.047-0.484,0.007c-0.062,0.021-0.067,0.102-0.027,0.144c-0.069,0.641-0.004,1.297-0.027,1.939
				c-0.015,0.423,0.366,0.854,0.729,1.016c0.336,0.148,0.591-0.08,0.665-0.381c0.013-0.054,0.01-0.107,0.001-0.162
				C24.207,76.544,24.206,76.543,24.205,76.542z"/>
			<path opacity="0.8" fill="#F9D87C" d="M25.364,76.173c-0.137,0.276-0.427,0.14-0.633-0.028c0.008,0.081,0.005,0.16-0.018,0.231
				c-0.049,0.156-0.174,0.254-0.341,0.241c-0.03-0.001-0.054-0.016-0.08-0.026c0.148,0.116,0.359,0.229,0.509,0.109
				c0.143-0.113,0.107-0.279,0.055-0.433c0.21,0.13,0.41,0.173,0.526,0.004c0.07-0.103,0.077-0.213,0.053-0.323
				C25.422,76.023,25.4,76.099,25.364,76.173z"/>
			<path fill="#FAE17E" d="M32.789,76.941c-0.068-0.104-0.174-0.214-0.286-0.271c-0.04-0.021-0.08-0.035-0.12-0.048
				c-0.005-0.093-0.011-0.188-0.017-0.277c-0.007-0.106-0.012-0.212-0.017-0.316c0.155-1.153-0.057-2.41-0.06-3.547
				c-0.002-0.574,0.111-1.903-0.698-2.002c-0.232-0.354-0.699-0.422-1.142-0.799c-0.833-0.708-1.724-1.289-2.497-2.079
				c-0.771-0.789-1.573-1.684-2.496-2.301c-0.235-0.641-1.687-0.788-2.157-0.84c-1.307-0.146-2.28,0.375-3.264,1.172
				c-1.803,1.46-2.881,4.68-1.021,6.466c0.002,0.991,0.159,1.996,0.233,2.977c0.052,0.688,0.119,1.367,0.226,2.049
				c0.057,0.362,0.079,0.825,0.288,1.142c0.327,0.493,0.985,1.403,1.625,0.822c0.185-0.169,0.164-0.439,0.041-0.736
				c0.078,0.084,0.16,0.158,0.242,0.209c0.198,0.122,0.57,0.02,0.57-0.256c0-0.123-0.027-0.238-0.07-0.348
				c0.088,0.04,0.181,0.062,0.274,0.057c0.198-0.014,0.372-0.234,0.263-0.43c-0.23-0.405-1.356-1.46-1.412-1.749
				c-0.01-0.054-0.019-0.105-0.027-0.156c-0.011-0.636-0.034-1.53-0.141-2.205c1.35,1.107,3.369,1.827,5.094,1.603
				c0.077,0.519,0.182,1.035,0.294,1.541c0.17,0.767,0.309,1.908,0.816,2.548c0.001,0.008,0.002,0.019,0.003,0.027
				c0.033,0.416,0.21,0.9,0.673,0.956c0.467,0.058,0.602-0.361,0.565-0.734c-0.003-0.035-0.01-0.07-0.015-0.106
				c0.083,0.093,0.185,0.172,0.325,0.238c0.281,0.133,0.583-0.02,0.611-0.327c0.004-0.044,0.002-0.09-0.004-0.135
				c0.236,0.034,0.464-0.059,0.401-0.344c-0.061-0.278-0.324-0.485-0.536-0.649c-0.213-0.162-0.43-0.229-0.68-0.284
				c0.091-0.729,0-1.523-0.021-2.251c-0.015-0.506,0.07-1.06,0.105-1.6c0.308,0.069,0.643,0.049,0.967,0.035
				c0.204-0.009,0.402-0.037,0.597-0.073c-0.035,0.387-0.06,3.331,0.245,4.072c0.117,0.284,0.458,0.903,0.86,0.59
				c0.199-0.155,0.267-0.39,0.272-0.644c0.074,0.082,0.16,0.154,0.272,0.212c0.222,0.115,0.408-0.003,0.456-0.23
				c0.013-0.064,0.015-0.126,0.012-0.187c0.205,0.124,0.498,0.062,0.564-0.188C33.057,77.346,32.892,77.098,32.789,76.941z"/>
			<path fill="#FAE17E" d="M32.789,76.941c-0.068-0.104-0.174-0.214-0.286-0.271c-0.04-0.021-0.08-0.035-0.12-0.048
				c-0.005-0.093-0.011-0.188-0.017-0.277c-0.007-0.106-0.012-0.212-0.017-0.316c0.155-1.153-0.057-2.41-0.06-3.547
				c-0.002-0.574,0.111-1.903-0.698-2.002c-0.232-0.354-0.699-0.422-1.142-0.799c-0.833-0.708-1.724-1.289-2.497-2.079
				c-0.771-0.789-1.573-1.684-2.496-2.301c-0.235-0.641-1.687-0.788-2.157-0.84c-1.307-0.146-2.28,0.375-3.264,1.172
				c-1.803,1.46-2.881,4.68-1.021,6.466c0.002,0.991,0.159,1.996,0.233,2.977c0.052,0.688,0.119,1.367,0.226,2.049
				c0.057,0.362,0.079,0.825,0.288,1.142c0.327,0.493,0.985,1.403,1.625,0.822c0.185-0.169,0.164-0.439,0.041-0.736
				c0.078,0.084,0.16,0.158,0.242,0.209c0.198,0.122,0.57,0.02,0.57-0.256c0-0.123-0.027-0.238-0.07-0.348
				c0.088,0.04,0.181,0.062,0.274,0.057c0.198-0.014,0.372-0.234,0.263-0.43c-0.23-0.405-1.356-1.46-1.412-1.749
				c-0.01-0.054-0.019-0.105-0.027-0.156c-0.011-0.636-0.034-1.53-0.141-2.205c1.35,1.107,3.369,1.827,5.094,1.603
				c0.077,0.519,0.182,1.035,0.294,1.541c0.17,0.767,0.309,1.908,0.816,2.548c0.001,0.008,0.002,0.019,0.003,0.027
				c0.033,0.416,0.21,0.9,0.673,0.956c0.467,0.058,0.602-0.361,0.565-0.734c-0.003-0.035-0.01-0.07-0.015-0.106
				c0.083,0.093,0.185,0.172,0.325,0.238c0.281,0.133,0.583-0.02,0.611-0.327c0.004-0.044,0.002-0.09-0.004-0.135
				c0.236,0.034,0.464-0.059,0.401-0.344c-0.061-0.278-0.324-0.485-0.536-0.649c-0.213-0.162-0.43-0.229-0.68-0.284
				c0.091-0.729,0-1.523-0.021-2.251c-0.015-0.506,0.07-1.06,0.105-1.6c0.308,0.069,0.643,0.049,0.967,0.035
				c0.204-0.009,0.402-0.037,0.597-0.073c-0.035,0.387-0.06,3.331,0.245,4.072c0.117,0.284,0.458,0.903,0.86,0.59
				c0.199-0.155,0.267-0.39,0.272-0.644c0.074,0.082,0.16,0.154,0.272,0.212c0.222,0.115,0.408-0.003,0.456-0.23
				c0.013-0.064,0.015-0.126,0.012-0.187c0.205,0.124,0.498,0.062,0.564-0.188C33.057,77.346,32.892,77.098,32.789,76.941z"/>
			<path fill="#F4AD1C" d="M31.493,75.82c0.232,0.12,0.511,0.154,0.769,0.173c0.03,0.002,0.061,0.001,0.09,0.002
				c0.036-0.279,0.049-0.565,0.051-0.855c-0.061,0.002-0.122,0.006-0.182,0.007C31.946,75.227,31.037,75.585,31.493,75.82z"/>
			<g>
				<path fill="#F4AD1C" d="M19.527,67.122c-0.128,0.361-0.22,0.724-0.277,1.103c-0.029,0.192-0.06,0.391-0.064,0.586
					c-0.008,0.363,0.09,0.062,0.217-0.137c1.012-1.583,2.369-3.587,4.285-4.165c-0.157-0.022-0.294-0.037-0.389-0.047
					c-0.872-0.097-1.595,0.107-2.272,0.486C20.366,65.555,19.821,66.296,19.527,67.122z"/>
				<path fill="#F4AD1C" d="M20.878,68.982c-0.077,0.27-0.177,0.581-0.15,0.865c0.062,0.637,0.651-0.313,0.712-0.399
					c0.799-1.139,1.844-2.001,3.101-2.596c0.595-0.281,1.268-0.597,1.948-0.72c-0.305-0.28-0.621-0.543-0.951-0.772
					c-1.219,0.099-2.443,0.455-3.309,1.352C21.618,67.345,21.121,68.131,20.878,68.982z"/>
				<path fill="#F4AD1C" d="M19.803,74.389c0.43,0.208,0.938,0.188,1.427,0.183c-0.012-0.225-0.029-0.448-0.051-0.663
					c-0.314,0.012-0.63,0.014-0.938,0.094C20.183,74.019,19.478,74.231,19.803,74.389z"/>
				<path fill="#F4AD1C" d="M20.537,75.35c-0.186,0.06-0.659,0.302-0.227,0.491c0.348,0.153,0.76,0.231,1.159,0.286
					c-0.096-0.123-0.162-0.227-0.175-0.291c-0.01-0.054-0.019-0.105-0.027-0.156c-0.002-0.127-0.005-0.265-0.009-0.408
					C21.015,75.253,20.773,75.272,20.537,75.35z"/>
				<path fill="#F4AD1C" d="M27.423,74.891c-0.438,0.32,0.617,0.394,0.708,0.395c0.177,0.003,0.352-0.007,0.525-0.023
					c0.008-0.243,0.03-0.494,0.054-0.748C28.276,74.614,27.788,74.622,27.423,74.891z"/>
				<path fill="#F4AD1C" d="M31.987,74.301c0.133,0.004,0.263-0.002,0.392-0.014c-0.016-0.298-0.038-0.595-0.055-0.89
					c-0.365,0.114-0.751,0.311-0.989,0.583C31.115,74.23,31.926,74.299,31.987,74.301z"/>
				<path fill="#F4AD1C" d="M27.625,76.72c0.359,0.089,0.721,0.069,1.083,0.024c-0.01-0.304-0.027-0.606-0.041-0.902
					c-0.313,0.066-0.6,0.202-0.878,0.363C27.59,76.318,27.152,76.602,27.625,76.72z"/>
				<path fill="#F4AD1C" d="M20.287,73.258c0.189,0.013,0.379,0.011,0.568,0.006c-0.143-0.167-0.279-0.339-0.403-0.522
					c-0.199,0.013-0.414,0.029-0.573,0.131C19.47,73.132,20.102,73.247,20.287,73.258z"/>
			</g>
			<path opacity="0.8" fill="#F9D87C" d="M17.094,62.069c0.147-1.109,0.99-2.016,0.942-3.174c-0.053-1.252-0.761-1.697-1.543-2.483
				c-0.35-0.352-0.65-0.771-0.599-1.26c-0.189,0.171-0.307,0.445-0.293,0.843c0.021,0.591,0.583,1.079,0.966,1.457
				c0.368,0.362,0.686,0.749,0.883,1.236c0.227,0.563,0.006,1.153-0.163,1.697c-0.409,1.31-0.796,2.463-0.26,3.798
				c0.245,0.611,0.757,1.205,1.358,1.657C17.449,64.831,16.909,63.467,17.094,62.069z"/>
			<g>
				<path fill="#DE951B" d="M21.163,73.392c-0.144-0.117-0.281-0.256-0.414-0.399c-0.094-0.051-0.193-0.105-0.287-0.166
					c0.138,0.185,0.285,0.37,0.45,0.543c0.263,0.169,0.542,0.313,0.821,0.459C21.546,73.68,21.347,73.546,21.163,73.392z"/>
				<path fill="#DE951B" d="M19.002,71.123c-0.028-0.013-0.064-0.003-0.066,0.034c-0.015,0.23-0.028,0.453-0.032,0.675
					c0.04,0.263,0.079,0.526,0.125,0.788c-0.003-0.304,0-0.601,0.033-0.902c0.002-0.021,0.004-0.044,0.006-0.065
					C19.06,71.474,19.044,71.296,19.002,71.123z"/>
				<path fill="#DE951B" d="M26.178,74.348c-0.063-0.358-0.082-0.721-0.197-1.07c-0.022-0.069-0.134-0.052-0.14,0.019
					c-0.03,0.356,0.051,0.733,0.136,1.078c0.082,0.331,0.143,0.663,0.282,0.977c0.009,0.021,0.038,0.012,0.037-0.011
					C26.29,75.015,26.235,74.67,26.178,74.348z"/>
				<path fill="#DE951B" d="M30.498,73.685c-0.146,0.06-0.297,0.113-0.464,0.14c-0.391,0.06-0.79,0.115-1.189,0.078
					c0.007-0.028,0.016-0.055,0.022-0.084c0.025-0.142,0.075-0.286,0.062-0.431c-0.001-0.024-0.014-0.037-0.029-0.047
					c-0.028,0.056-0.053,0.112-0.079,0.168c-0.04,0.233-0.072,0.467-0.091,0.7c0.001-0.001,0.003,0,0.004-0.001
					c0.036-0.07,0.063-0.139,0.086-0.208c0.306,0.157,0.775,0.086,1.089,0.027c0.342-0.064,0.684-0.149,0.985-0.316
					c0.062-0.062,0.117-0.128,0.169-0.195C30.88,73.59,30.69,73.643,30.498,73.685z"/>
			</g>
			<g>
				<path opacity="0.5" fill="#FAE17E" d="M25.939,73.542c-1.537,1.344-4.045,0.113-5.655-0.979c0.219,0.271,0.258,0.634,0.286,0.99
					c0.062,0.81-0.057,2.445,0.707,2.935c0.343,0.22,0.883,0.473,1.218,0.811c-0.404-0.486-1.156-1.227-1.201-1.462
					c-0.01-0.054-0.019-0.105-0.027-0.156c-0.011-0.636-0.034-1.53-0.141-2.205c1.346,1.104,3.358,1.823,5.081,1.604
					c-0.028-0.171-0.08-0.444-0.109-0.728C26.018,74.088,25.979,73.815,25.939,73.542z"/>
				<path opacity="0.5" fill="#FAE17E" d="M19.02,71.199c-0.565-0.35-0.837-1.094-0.958-1.823c-0.077,0.969,0.17,1.918,0.881,2.647
					C18.96,71.748,18.986,71.473,19.02,71.199z"/>
				<path opacity="0.5" fill="#FAE17E" d="M30.931,77.991c-0.277-0.547-0.152-1.321-0.151-1.909c0.001-0.838,0.02-1.675,0.082-2.513
					c-0.25,0.044-0.502,0.071-0.757,0.073c-0.432,0.004-0.891,0.023-1.255-0.212c0.005,0.178,0.001,0.356-0.018,0.538
					c0.288,0.051,0.595,0.036,0.894,0.023c0.204-0.009,0.402-0.037,0.597-0.073c-0.035,0.387-0.06,3.331,0.245,4.072
					c0.117,0.284,0.458,0.903,0.86,0.59c0.046-0.036,0.083-0.076,0.117-0.121C31.318,78.444,31.076,78.277,30.931,77.991z"/>
				<path opacity="0.5" fill="#FAE17E" d="M28.159,72.565c1.045-0.091,2.375-0.499,2.991-1.438c-0.022-0.18-0.056-0.359-0.118-0.535
					c-0.136-0.375-0.369-0.607-0.608-0.85c-0.068,0.181-0.15,0.363-0.262,0.544c-0.56,0.905-2.044,1.185-3.002,1.356
					c-0.43,0.077-0.871,0.126-1.313,0.15C26.381,72.408,27.124,72.654,28.159,72.565z"/>
			</g>
			<g>
				<path fill="#F4BF75" d="M21.891,65.474c-0.135,0.19,0.777,1.415,1.092,1.871c0.315,0.457,0.314,1.694-0.28,2.242
					c-0.595,0.547-1.235,1.53-1.235,1.53l1.777-0.471l-0.637,1.377l1.684-0.906c0,0,1.069,1.688,3.725,1.624
					c1.974-0.046,3.49-1.179,4.14-1.759c-0.1-0.266-0.271-0.466-0.566-0.502c-0.232-0.354-0.699-0.422-1.142-0.799
					c-0.833-0.708-1.724-1.289-2.497-2.079c-0.771-0.789-1.573-1.684-2.496-2.301c-0.087-0.237-0.34-0.406-0.649-0.528
					c-0.22,0.305-0.478,0.714-0.515,1.003C24.292,65.776,22.026,65.284,21.891,65.474z"/>
			</g>
		</g>
		<path fill="#C2C4C6" d="M29.124,40.321c-3.914-0.938-7.689-2.278-11.067-4.506c-1.622-1.07-2.987-2.372-4.175-3.905
			c-0.608-0.783-1.153-1.618-1.652-2.475c-0.508-0.87-1.152-1.697-1.417-2.683c-0.028-0.104-0.193-0.086-0.169,0.023
			c0.175,0.766,0.563,1.451,0.962,2.121c0.508,0.853,0.977,1.715,1.538,2.536c1.168,1.708,2.562,3.144,4.239,4.353
			c3.444,2.483,7.557,4.019,11.701,4.829C29.272,40.65,29.305,40.364,29.124,40.321z"/>
		<path fill="#C2C4C6" d="M29.64,36.722c-2.524-0.856-4.827-1.879-7.003-3.431c-2.276-1.623-4.288-3.603-6.078-5.743
			c-1.722-2.062-3.182-4.314-4.35-6.734c-0.587-1.217-1.081-2.479-1.505-3.762c-0.225-0.684-0.406-1.365-0.599-2.063
			c-0.211-0.766-0.388-1.151-0.601-1.694c-0.045-0.116,0.218,1.224,0.397,1.989c0.15,0.632,0.337,1.267,0.54,1.879
			c0.454,1.374,0.958,2.715,1.572,4.027c1.154,2.464,2.671,4.723,4.405,6.813c1.745,2.105,3.745,4.019,5.956,5.629
			c2.185,1.592,4.536,2.659,7.128,3.417C29.718,37.112,29.86,36.796,29.64,36.722z"/>
	</g>
	<g>
		<path fill="#FFDF5D" d="M34.947,65.393c-0.56,0.003-1.1,0.077-1.647,0.15c0.349-0.287,0.768-0.57,1.065-0.908
			c0.104-0.119-0.022-0.274-0.156-0.269c-0.402,0.019-0.875,0.128-1.304,0.275c-0.476-0.814-1.595-1.265-2.572-1.175
			c-0.161-0.3-0.355-0.594-0.496-0.868c-0.234-0.458-0.508-0.964-0.85-1.351c-0.104-0.117-0.3-0.075-0.325,0.087
			c-0.106,0.683-0.183,1.366-0.267,2.049c-0.848-0.117-1.733,0.253-2.446,0.701c-0.514,0.321-0.905,0.828-1.22,1.336
			c-0.103,0.167-0.161,0.333-0.207,0.5c-0.277-0.088-0.57-0.135-0.852-0.201c-0.479-0.111-0.951-0.317-1.447-0.344
			c-0.077-0.005-0.149,0.039-0.16,0.121c-0.036,0.263,0.381,0.687,0.52,0.881c0.355,0.499,0.844,1.003,1.15,1.552
			c0.077,0.5-0.207,0.903-0.468,1.306c-0.329,0.505-0.73,0.982-1.173,1.395c-0.03,0.021-0.062,0.041-0.091,0.062
			c-0.066,0.048-0.015,0.141,0.058,0.138c0.494-0.029,0.994-0.345,1.439-0.537c0.056-0.024,0.111-0.047,0.167-0.07
			c-0.259,0.349-0.449,0.759-0.612,1.156c-0.049,0.119,0.073,0.235,0.191,0.188c0.373-0.145,0.718-0.511,1.072-0.711
			c0.058-0.033,0.118-0.062,0.178-0.092c0.376,0.521,0.971,0.903,1.544,1.154c1.187,0.522,2.473,0.508,3.678,0.103
			c1.375-0.463,2.578-1.205,3.252-2.519c0.384-0.75,0.848-2.039,0.546-2.964c0.069-0.04,0.137-0.082,0.207-0.121
			c0.433-0.241,0.892-0.436,1.321-0.679C35.225,65.635,35.155,65.39,34.947,65.393z"/>
		<path fill="#F4AD1C" d="M26.189,64.996c0.406,0.198,0.814,0.368,1.248,0.478c-0.107-0.503-0.389-1.016-0.585-1.472
			c-0.046-0.107-0.094-0.213-0.142-0.32c-0.266,0.117-0.523,0.255-0.76,0.403c-0.242,0.151-0.455,0.346-0.646,0.56
			C25.57,64.796,25.951,64.878,26.189,64.996z"/>
		<path fill="#F4AD1C" d="M27.703,64.318c0.241,0.369,0.522,0.774,0.912,1.005c0.005-0.317-0.066-0.628-0.093-0.946
			c-0.032-0.389-0.046-0.777-0.105-1.162c-0.007,0.057-0.014,0.112-0.021,0.169c-0.413-0.057-0.832,0.008-1.237,0.134
			C27.334,63.789,27.527,64.049,27.703,64.318z"/>
		<path fill="#F4AD1C" d="M25.358,66.27c0.276,0.113,0.549,0.236,0.833,0.323c-0.323-0.584-0.73-1.106-1.141-1.633
			c-0.114,0.15-0.224,0.305-0.321,0.461c-0.096,0.155-0.152,0.311-0.196,0.467C24.797,66.034,25.074,66.155,25.358,66.27z"/>
		<path opacity="0.2" fill="#F4AD1C" d="M34.947,65.393c-0.56,0.003-1.1,0.077-1.647,0.15c0.349-0.287,0.768-0.57,1.065-0.908
			c0.104-0.119-0.022-0.274-0.156-0.269c-0.402,0.019-0.875,0.128-1.304,0.275c-0.254-0.436-0.695-0.763-1.196-0.963
			c0.076,0.057,0.151,0.115,0.218,0.184c0.409,0.413,0.527,0.949,1.248,0.981c0.139,0.007,0.201,0.164,0.11,0.267
			c-0.15,0.169-0.335,0.305-0.487,0.473c-0.208,0.232,0.335,0.134,0.513,0.157c0.137,0.018,0.203,0.154,0.11,0.266
			c-0.121,0.145-0.649,0.442-0.463,0.68c0.09,0.114,0.161,0.243,0.168,0.395c0.035,0.598-0.057,1.17-0.264,1.732
			c-0.42,1.143-1.567,2.11-2.662,2.581c-1.109,0.477-2.455,0.672-3.633,0.314c-0.496-0.151-0.914-0.367-1.274-0.745
			c-0.155-0.161-0.265-0.374-0.342-0.583c-0.169-0.453-0.929,0.193-1.081,0.303c-0.125,0.091-0.3-0.088-0.213-0.213
			c0.197-0.286,0.365-0.589,0.441-0.925c-0.543,0.327-0.992,0.821-1.591,1.094c-0.167,0.075-0.334,0.129-0.504,0.166
			c0.016,0.015,0.035,0.025,0.058,0.024c0.494-0.029,0.994-0.345,1.439-0.537c0.056-0.024,0.111-0.047,0.167-0.07
			c-0.259,0.349-0.449,0.759-0.612,1.156c-0.049,0.119,0.073,0.235,0.191,0.188c0.373-0.145,0.718-0.511,1.072-0.711
			c0.058-0.033,0.118-0.062,0.178-0.092c0.376,0.521,0.971,0.903,1.544,1.154c1.187,0.522,2.473,0.508,3.678,0.103
			c1.375-0.463,2.578-1.205,3.252-2.519c0.384-0.75,0.848-2.039,0.546-2.964c0.069-0.04,0.137-0.082,0.207-0.121
			c0.433-0.241,0.892-0.436,1.321-0.679C35.225,65.635,35.155,65.39,34.947,65.393z"/>
		<g>
			<path fill="#825600" d="M34.389,67.346c-0.515,0.087-0.964,0.335-1.455,0.493c-0.072,0.022-0.038,0.146,0.035,0.128
				c0.236-0.055,0.462-0.135,0.691-0.21c0.257-0.086,0.527-0.133,0.775-0.243C34.524,67.475,34.488,67.331,34.389,67.346z"/>
			<path fill="#825600" d="M34.311,67.932c-0.519,0.089-1.027,0.253-1.514,0.45c-0.085,0.035-0.029,0.15,0.054,0.128
				c0.5-0.138,1.024-0.213,1.506-0.413C34.446,68.06,34.409,67.916,34.311,67.932z"/>
			<path fill="#825600" d="M27.953,70.653c-0.667,0.395-1.425,0.588-2.028,1.099c-0.077,0.065,0.012,0.173,0.095,0.121
				c0.646-0.397,1.368-0.71,1.981-1.159C28.042,70.685,27.995,70.629,27.953,70.653z"/>
			<path fill="#825600" d="M28.418,70.841c-0.594,0.415-1.142,0.927-1.68,1.412c-0.079,0.072,0.014,0.194,0.102,0.132
				c0.6-0.434,1.108-0.951,1.668-1.429C28.58,70.895,28.496,70.786,28.418,70.841z"/>
		</g>
		<path fill="#DE951B" d="M31.976,69.921c-0.159,0.143-0.482,0.297-0.685,0.152c-0.11-0.077-0.163-0.187-0.197-0.304
			c-0.013-0.013-0.024-0.024-0.037-0.035c-0.055-0.458-0.234-0.896-0.515-1.131c-0.017-0.015-0.035-0.02-0.054-0.023
			c0.357,0.631,0.903,2.194-0.134,2.398c-0.345,0.068-0.762-0.029-1.108-0.233c0.466,0.404,1.221,0.526,1.66,0.095
			c0.097-0.192,0.152-0.426,0.166-0.672c0.203,0.108,0.469,0.117,0.688,0.019c0.199-0.09,0.36-0.33,0.429-0.576
			C32.139,69.729,32.07,69.837,31.976,69.921z"/>
		<path fill="#DE951B" d="M29.797,63.382c0.021-0.008,0.031-0.026,0.022-0.064c-0.031-0.125-0.4-0.702-0.49-0.886
			c-0.033-0.066-0.119-0.325-0.221-0.331c-0.069-0.005-0.114,0.189-0.126,0.228c-0.044,0.137-0.077,0.274-0.112,0.414
			c-0.026,0.103-0.06,0.204-0.088,0.308c-0.021,0.075-0.071,0.258,0.051,0.258c0.154-0.001,0.29-0.055,0.446-0.034
			c0.096,0.014,0.188,0.039,0.281,0.064C29.621,63.355,29.733,63.404,29.797,63.382z"/>
		<path fill="#DE951B" d="M24.071,66.813c0.021-0.107,0.049-0.213,0.089-0.316c0.024-0.062,0.074-0.134,0.064-0.203
			c-0.018-0.12-0.92-0.36-1.167-0.278c-0.237,0.078,0.16,0.425,0.226,0.5c0.158,0.183,0.298,0.383,0.423,0.59
			c0.044,0.074,0.08,0.162,0.148,0.219c0.164,0.137,0.146-0.054,0.163-0.166C24.033,67.043,24.049,66.928,24.071,66.813z"/>
		<path fill="#231F20" d="M30.658,66.173c-0.078-0.2-0.239-0.39-0.367-0.519c-0.132-0.132-0.368-0.248-0.519-0.073
			c-0.316,0.365,0.352,1.215,0.778,1.076c0.066-0.021,0.121-0.072,0.142-0.161C30.717,66.391,30.7,66.279,30.658,66.173z"/>
		<path fill="#231F20" d="M27.725,68.067c-0.078-0.199-0.239-0.39-0.367-0.519c-0.132-0.132-0.368-0.248-0.519-0.073
			c-0.316,0.366,0.352,1.214,0.778,1.076c0.067-0.021,0.121-0.071,0.143-0.161C27.784,68.286,27.767,68.175,27.725,68.067z"/>
		<path fill="#FFFFFF" d="M30.212,65.621c-0.002-0.002-0.004-0.004-0.007-0.006c-0.038-0.033-0.086-0.039-0.132-0.031
			c-0.003,0-0.005-0.001-0.008-0.001c-0.047,0.002-0.088,0.033-0.114,0.072c-0.004,0.006-0.009,0.011-0.012,0.018
			c-0.003,0.005-0.004,0.011-0.006,0.018c-0.004,0.011-0.009,0.021-0.011,0.033c0,0.001-0.001,0.001-0.001,0.001
			c0,0.006,0.001,0.009,0,0.013c-0.001,0.019-0.001,0.037,0.002,0.057c0,0,0,0.002,0,0.003c0.001,0.011,0.002,0.022,0.005,0.031
			c0.009,0.031,0.027,0.065,0.05,0.098c0.005,0.007,0.01,0.012,0.015,0.019c0.011,0.015,0.024,0.028,0.038,0.042
			c0,0.001,0.001,0.001,0.001,0.002c0.067,0.064,0.153,0.111,0.231,0.095c0.098-0.021,0.153-0.094,0.148-0.194
			C30.407,65.775,30.318,65.674,30.212,65.621z"/>
		<path fill="#FFFFFF" d="M27.422,67.773c-0.012-0.047-0.041-0.104-0.08-0.153c-0.009-0.014-0.018-0.026-0.028-0.038
			c0-0.001-0.001-0.003-0.001-0.004c-0.003-0.004-0.006-0.007-0.009-0.012c-0.031-0.038-0.069-0.057-0.11-0.062
			c-0.013-0.003-0.024-0.01-0.038-0.011c-0.077-0.005-0.173,0.044-0.174,0.132c-0.001,0.046,0.013,0.092,0.032,0.133
			c0.011,0.03,0.027,0.059,0.048,0.083c0.063,0.088,0.159,0.149,0.267,0.099C27.386,67.912,27.439,67.843,27.422,67.773z"/>
		<path fill="#825600" d="M30.948,67.384c-0.446-0.021-0.82,0.275-1.146,0.542c-0.2,0.162-0.66,0.365-0.671,0.662
			c-0.023,0.564,1.315,0.269,1.579,0.109C30.981,68.532,31.6,67.412,30.948,67.384z"/>
		<path opacity="0.3" fill="#F07122" d="M29.476,68.256c-0.126,0.133-0.195,0.274-0.029,0.375c0.196,0.119,0.541-0.094,0.702-0.204
			c0.185-0.127,0.437-0.391,0.438-0.63c0.001-0.212-0.235-0.162-0.367-0.102c-0.136,0.062-0.253,0.168-0.369,0.259
			C29.786,68.006,29.602,68.125,29.476,68.256z"/>
	</g>
</g>
</svg>
