<?xml version="1.0" encoding="utf-8"?>
<!-- Generator: Adobe Illustrator 16.0.0, SVG Export Plug-In . SVG Version: 6.00 Build 0)  -->
<!DOCTYPE svg PUBLIC "-//W3C//DTD SVG 1.1//EN" "http://www.w3.org/Graphics/SVG/1.1/DTD/svg11.dtd">
<svg version="1.1" id="Layer_1" xmlns="http://www.w3.org/2000/svg" xmlns:xlink="http://www.w3.org/1999/xlink" x="0px" y="0px"
	 width="85px" height="85px" viewBox="0 0 85 85" enable-background="new 0 0 85 85" xml:space="preserve">
<g>
	<path fill-rule="evenodd" clip-rule="evenodd" fill="#464A51" d="M5.339,34.989c-1.118,0.038-1.459-0.159-1.804-1.182
		c-1.06-3.138-1.557-6.31-0.255-9.502c2.258-5.539,8.615-7.171,12.752-4.658c0.068,0.042,0.152,0.059,0.291,0.11
		c-0.269-1.848-0.293-3.649,0.162-5.441c1.449-5.696,6.828-9.578,12.677-9.131c0.819,0.062,1.243,0.525,1.356,1.312
		c0.18,0.862-0.293,1.46-1.287,1.559c-0.846,0.084-1.705-0.019-2.546,0.172c-0.267,0.061-0.541,0.096-0.806,0.164
		c-3.324,0.905-5.504,3.035-6.481,6.304c-0.879,2.939-0.292,5.704,1.397,8.238c0.397,0.596,0.579,0.562,0.858-0.103
		c1.227-2.918,3.337-4.858,6.402-5.688c0.692-0.188,0.953-0.5,0.913-1.208c-0.052-0.912-0.009-1.829-0.026-2.745
		c-0.014-0.471-0.043-0.941,0.012-1.408c0.109-0.91,0.746-1.499,1.586-1.481c0.806,0.017,1.425,0.59,1.51,1.468
		c0.085,0.879,0.028,1.765,0.034,2.646c-0.023,0.275-0.012,0.552-0.013,0.829c-0.008,1.71-0.004,1.696,1.628,2.072
		c0.423,0.097,0.565-0.029,0.57-0.426c0.007-0.554-0.005-1.107-0.003-1.663c-0.032-1.055-0.039-2.11-0.003-3.163
		c0.037-1.103,0.658-1.77,1.582-1.765c0.921,0.004,1.534,0.673,1.564,1.782c0.037,1.358,0.023,2.718,0.005,4.075
		c-0.033,0.607,0.004,1.218-0.03,1.826c-0.036,0.64,0.262,0.952,0.854,1.125c2.535,0.74,4.817,0.299,6.838-1.415
		c0.318-0.27,0.618-0.558,1.039-0.663c0.705-0.175,1.283,0.095,1.83,0.838c1.294,1.759,2.295,3.651,2.693,5.856
		c0.679-1.741,1.156-3.52,1.676-5.285c0.518-1.839,0.446-3.611-0.583-5.28c-0.879-1.425-2.2-1.889-3.78-1.315
		c-1.554,0.564-3.081,0.666-4.542-0.273c-0.476-0.305-0.692-0.221-0.685,0.378c0.018,1.191,0.002,2.383,0.01,3.575
		c0.003,0.569-0.106,1.096-0.567,1.488c-0.894,0.76-2.015,0.359-2.501-0.892c-0.167-1.823-0.046-3.651-0.074-5.476
		c-0.021-1.345-0.089-1.47-1.391-1.854c-1.385-0.409-2.793-0.667-4.245-0.72C32.824,8.03,32.3,7.424,32.49,6.496
		c0.259-1.038,0.619-1.328,1.686-1.304c3.416,0.077,6.529,1.103,9.361,3.003c0.461,0.309,0.921,0.618,1.383,0.925
		c0.499,0.333,1.037,0.368,1.591,0.181c4.37-1.475,7.721,0.397,8.806,4.933c0.368,1.539,0.356,3.079-0.088,4.603
		c-0.45,1.541-0.922,3.076-1.381,4.614c-0.086,0.287-0.186,0.511,0.235,0.714c2.642,1.271,3.615,3.32,2.84,6.126
		c-0.81,2.927-2.737,4.756-5.727,5.377c-0.538,0.112-0.709,0.284-0.729,0.836c-0.062,1.816-0.48,3.565-1.237,5.221
		c-0.19,0.416-0.277,0.688,0.172,1.039c0.655,0.511,1.025,1.275,1.057,2.097c0.046,1.217,0.015,2.441-0.063,3.658
		c-0.069,1.068-0.581,1.955-1.409,2.641c-0.427,0.354-0.747,0.746-0.658,1.346c0.206,0.555,0.771,0.457,1.18,0.645
		c0.311,0.104,0.573,0.285,0.808,0.512c0.444,0.43,0.442,0.982,0.442,1.543c-0.002,4.766,0.017,9.531-0.017,14.295
		c-0.007,0.91,0.221,1.564,1.108,1.893c0.332,0.143,0.653,0.309,0.932,0.541c0.573,0.479,0.741,1.232,0.432,1.879
		c-0.308,0.646-1.018,1.047-1.731,0.816c-1.189-0.383-2.314-0.941-3.331-1.672c-0.58-0.416-0.562-1.104-0.562-1.752
		c0.001-4.549,0.001-9.1,0.001-13.65c-0.001-1.488-0.001-1.49-1.513-1.49c-1.276,0.002-2.553,0.012-3.829-0.002
		c-0.596-0.008-0.843,0.227-0.842,0.836c0.011,5.105-0.073,10.211,0.032,15.314c0.094,4.551,4.652,8.113,9.026,7.201
		c2.73-0.568,4.865-2.76,5.041-5.594c0.188-3.012,0.249-6.047-0.061-9.059c-0.264-2.57-1.277-4.867-2.867-6.904
		c-0.292-0.375-0.583-0.746-0.62-1.246c-0.042-0.574,0.073-1.057,0.705-1.248c0.899-0.41,1.382-0.326,1.969,0.4
		c2.414,2.982,3.725,6.396,3.841,10.23c0.068,2.244,0.022,4.492,0.019,6.738c-0.013,7.361-7.022,11.84-13.735,8.777
		c-0.301-0.137-0.605-0.266-0.909-0.398c-2.029-0.756-3.223-2.383-4.26-4.146c-0.906-1.539-1.308-3.234-1.317-5.014
		c-0.014-2.803-0.001-5.605-0.004-8.408c-0.001-1.045-0.027-1.068-1.016-0.91c-0.828,0.133-1.667,0.162-2.487,0.035
		c-0.727-0.111-0.861,0.191-0.858,0.809c0.013,2.721-0.007,5.439,0.01,8.158c0.013,2.02-0.473,3.9-1.476,5.648
		c-0.77,1.342-1.792,2.459-3.044,3.371c-0.324,0.236-0.688,0.352-1.06,0.459c-2.671,1.357-5.468,1.746-8.389,1.037
		c-4.659-1.131-8.068-5.369-8.075-10.156c-0.004-2.934-0.283-5.889,0.324-8.797c0.938-4.492,3.311-8.053,7.073-10.676
		c1.077-0.752,2.286-1.234,3.663-1.596c-1.65-1.773-1.166-3.928-1.212-5.972c-0.016-0.698,0.29-1.361,0.781-1.882
		c0.287-0.304,0.333-0.546,0.141-0.934c-0.989-1.994-1.467-4.116-1.449-6.34c0.004-0.457-0.07-0.719-0.588-0.773
		c-0.896-0.093-1.728-0.427-2.471-0.918c-0.478-0.316-0.572-0.116-0.707,0.302c-0.879,2.719,0.128,5.972,2.43,7.778
		c0.283,0.222,0.598,0.408,0.863,0.649c0.426,0.387,0.585,0.876,0.375,1.432c-0.218,0.576-0.659,0.941-1.273,0.879
		c-4.95-0.506-9.501-1.917-12.951-5.793c-0.579-0.65-0.705-1.293-0.18-2.018c0.514-0.64,1.287-0.743,1.944-0.232
		c0.415,0.322,0.747,0.737,1.134,1.091c1.57,1.438,3.34,2.534,5.398,3.121c0.337-0.263,0.01-0.482-0.071-0.683
		c-1.057-2.61-1.119-5.229-0.145-7.876c0.319-0.87,0.831-1.627,1.333-2.393c0.91-1.387,1.252-2.896,0.875-4.526
		c-0.647-2.801-2.77-4.457-5.643-4.432c-3.356,0.233-5.999,3.026-6.1,6.446c-0.048,1.628,0.248,3.201,0.755,4.739
		c0.113,0.344,0.231,0.682,0.229,1.05C6.395,34.415,6.131,34.755,5.339,34.989z"/>
	<path fill-rule="evenodd" clip-rule="evenodd" fill="#464A51" d="M79.169,9.025c0.944-0.173,1.48,0.265,1.891,1.099
		c1.507,3.068,1.687,6.305,1.198,9.594c-1.468,9.884-6.676,17.084-15.65,21.517c-2.89,1.427-6.003,2.099-9.166,2.57
		c-0.638,0.096-1.151-0.129-1.46-0.715c-0.315-0.6-0.156-1.137,0.294-1.592c1.348-1.361,2.713-2.706,4.059-4.068
		c3.537-3.578,3.995-8.394,1.211-12.599c-0.827-1.249-1.691-2.474-2.469-3.753c-4.333-7.13-0.429-16.552,7.612-18.285
		c3.698-0.797,7.092,0.08,10.163,2.26c0.74,0.525,0.817,1.194,0.466,1.972c-0.509,0.801-1.192,0.948-2.117,0.39
		c-0.85-0.514-1.66-1.081-2.616-1.408c-2.224-0.761-4.435-0.825-6.647,0.02c-3.105,1.104-5.597,4.593-5.741,7.926
		c-0.102,2.336,0.49,4.438,1.803,6.364c0.781,1.146,1.577,2.284,2.288,3.476c3.174,5.318,2.377,11.483-2.046,15.843
		c-0.078,0.077-0.163,0.148-0.295,0.292c3.151-0.938,5.949-2.382,8.444-4.411c5.01-4.09,7.973-9.349,8.947-15.727
		c0.314-2.059,0.439-4.124-0.072-6.188c-0.229-0.926-0.68-1.754-0.994-2.639C77.915,9.958,78.22,9.341,79.169,9.025z"/>
	<path fill-rule="evenodd" clip-rule="evenodd" fill="#E8F0F1" d="M79.169,9.025c-0.849,0.628-1.083,1.118-0.685,1.878
		c1.421,2.707,1.54,5.579,1.134,8.512c-0.895,6.451-3.799,11.811-8.789,16.019c-0.105,0.088-0.225,0.159-0.337,0.238
		c-0.636-0.01-0.707-0.56-0.857-0.968c-0.788-2.135-0.653-4.238,0.312-6.292c0.562-1.197,0.882-2.438,0.81-3.776
		c-0.047-0.868-0.223-1.699-0.527-2.507c-0.12-0.637,0.271-1.104,0.554-1.602c0.161-0.285,0.429-0.32,0.724-0.213
		c0.261,0.095,0.503,0.23,0.753,0.348c1.034,0.483,1.461,0.374,2.045-0.622c0.284-0.482,0.601-0.66,1.152-0.492
		c0.525,0.16,1.002,0.014,1.293-0.483c0.286-0.49,0.188-0.965-0.173-1.38c-0.399-0.459-0.82-0.905-1.294-1.287
		c-0.67-0.539-1.347-0.395-1.829,0.331c-0.301,0.452-0.346,1.149-0.916,1.326c-0.562,0.175-1.011-0.356-1.525-0.534
		c-0.687-0.237-1.167-0.08-1.559,0.544c-0.191,0.305-0.318,0.646-0.506,0.953c-0.163,0.266-0.332,0.546-0.717,0.306
		c-0.895-0.778-1.894-1.454-2.507-2.514c-0.178-0.308-0.438-0.588-0.308-0.99c0.04-0.072,0.086-0.145,0.15-0.195
		c0.461-0.356,0.816-0.765,0.646-1.403c-0.173-0.645-0.705-0.791-1.271-0.877c-0.111-0.017-0.208-0.071-0.299-0.139
		c-0.373-0.555-0.27-1.188-0.203-1.771c0.181-1.59,0.435-3.173,0.916-4.708c0.101-0.319,0.226-0.624,0.467-0.866
		c3.321-1.317,6.388-0.684,9.28,1.224c0.964,0.636,1.345,0.639,2.215-0.062C77.919,7.705,78.304,8.587,79.169,9.025z"/>
	<path fill-rule="evenodd" clip-rule="evenodd" fill="#769EB5" d="M52.661,55.363c-0.709,0.812-0.704,1.33-0.019,2.188
		c2.06,2.578,3.132,5.52,3.176,8.82c0.028,2.137,0.009,4.275,0.006,6.412c-0.008,5.4-5.15,8.635-10.019,6.26
		c-3.018-1.471-4.596-3.945-4.627-7.301c-0.047-5.023,0.003-10.047-0.028-15.07c-0.005-0.709,0.208-0.885,0.888-0.865
		c1.636,0.049,3.276,0.062,4.911-0.004c0.779-0.031,0.899,0.25,0.896,0.945c-0.028,4.855,0.005,9.713-0.031,14.57
		c-0.008,0.969,0.324,1.568,1.215,1.936c0.69,0.285,1.34,0.668,2.015,0.992c0.879,0.424,1.626,0.219,1.981-0.527
		c0.341-0.715,0.063-1.389-0.756-1.848c-0.145-0.082-0.29-0.162-0.435-0.244c-0.273-0.354-0.276-0.77-0.276-1.188
		c-0.003-4.814-0.004-9.627,0.003-14.441c0.001-0.406-0.059-0.84,0.269-1.178C52.138,54.953,52.28,55.34,52.661,55.363z"/>
	<path fill-rule="evenodd" clip-rule="evenodd" fill="#608DA8" d="M28.332,81.113c2.573-1.656,4.38-3.877,5.067-6.912
		c0.165-0.729,0.281-1.463,0.279-2.217c-0.011-2.969,0.01-5.938-0.014-8.906c-0.005-0.623,0.139-0.85,0.805-0.703
		c1.096,0.244,2.212,0.166,3.296-0.074c0.692-0.154,0.754,0.107,0.748,0.689c-0.025,2.803,0.003,5.605-0.015,8.408
		c-0.026,4.062,1.642,7.209,5.037,9.443c0.113,0.074,0.208,0.18,0.311,0.27C38.674,81.111,33.503,81.113,28.332,81.113z"/>
	<path fill-rule="evenodd" clip-rule="evenodd" fill="#464A51" d="M62.486,53.93c0.083,0.672-0.333,1.656,0.165,2.211
		c0.453,0.504,1.4,0.566,2.13,0.82c0.262,0.092,0.533,0.158,0.786,0.266c0.777,0.332,1.069,0.932,0.818,1.748
		c-0.268,0.873-0.565,1.736-0.87,2.598c-0.132,0.373-0.118,0.656,0.211,0.945c0.52,0.457,0.978,0.984,1.482,1.459
		c0.629,0.59,0.781,1.23,0.356,2.012c-0.396,0.729-0.736,1.49-1.119,2.227c-0.447,0.863-1.177,1.15-1.903,0.771
		c-0.707-0.369-0.892-1.082-0.501-1.932c0.774-1.682,0.831-1.746-0.523-2.945c-1.016-0.898-1.163-1.779-0.676-3.01
		c0.69-1.742,0.62-1.77-1.14-2.361c-0.289-0.098-0.583-0.178-0.869-0.281c-0.677-0.242-1.021-0.717-1.014-1.449
		c0.011-1.082-0.018-2.166,0.012-3.246c0.013-0.453-0.095-0.646-0.588-0.615c-0.635,0.041-1.275,0-1.913,0.014
		c-0.771,0.014-1.255-0.348-1.49-1.07c-0.198-0.605-0.434-1.199-0.592-1.814c-0.131-0.512-0.357-0.539-0.759-0.293
		c-0.259,0.158-0.54,0.285-0.823,0.393c-0.7,0.266-1.372,0.016-1.684-0.631c-0.327-0.68-0.167-1.307,0.452-1.67
		c0.953-0.557,1.953-1.045,2.968-1.484c0.715-0.309,1.41,0.077,1.708,0.882c0.307,0.829,0.595,1.669,0.836,2.521
		c0.115,0.404,0.31,0.52,0.704,0.508c0.804-0.025,1.609-0.023,2.413-0.002c0.888,0.025,1.386,0.52,1.418,1.4
		C62.506,52.535,62.486,53.172,62.486,53.93z"/>
	<path fill-rule="evenodd" clip-rule="evenodd" fill="#464A51" d="M11.849,55.41c0.014,2.896,0.195,2.648-2.572,3.57
		c-1.08,0.359-1.082,0.363-0.728,1.416c0.904,2.689,1.076,2.26-1.012,4.258c-0.614,0.588-0.754,1.047-0.255,1.73
		c0.208,0.287,0.346,0.635,0.467,0.971C8,68.059,7.771,68.625,7.13,68.975c-0.656,0.359-1.311,0.213-1.676-0.404
		c-0.578-0.975-1.049-2.012-1.531-3.039c-0.175-0.373-0.069-0.768,0.159-1.107c0.107-0.158,0.252-0.293,0.382-0.436
		c0.594-0.656,1.613-1.146,1.734-1.941c0.12-0.781-0.453-1.672-0.729-2.512c-0.522-1.58-0.316-2.002,1.254-2.523
		c0.63-0.209,1.252-0.449,1.893-0.617c0.469-0.121,0.592-0.361,0.579-0.826c-0.034-1.164-0.019-2.33-0.009-3.494
		c0.01-1.09,0.487-1.564,1.575-1.58c0.693-0.01,1.389-0.035,2.08,0.01c0.523,0.033,0.804-0.109,0.944-0.652
		c0.2-0.775,0.477-1.533,0.748-2.288c0.36-1,1.085-1.311,2.036-0.863c0.826,0.389,1.644,0.799,2.448,1.229
		c0.77,0.414,1.018,1.115,0.683,1.801c-0.353,0.723-1.078,0.934-1.911,0.559c-1.188-0.533-1.188-0.533-1.59,0.684
		c-0.078,0.236-0.146,0.477-0.224,0.713c-0.432,1.289-0.685,1.451-2.034,1.48c-0.682,0.014-1.586-0.316-1.98,0.148
		c-0.333,0.393-0.096,1.268-0.111,1.93C11.848,55.299,11.849,55.355,11.849,55.41z"/>
	<path fill-rule="evenodd" clip-rule="evenodd" fill="#7B818D" d="M25.688,8.199c1.043-0.315,2.114-0.367,3.196-0.355
		c1.066,0.012,1.422-0.301,1.634-1.345c0.657-0.001,1.314-0.001,1.971-0.002c0.207,1.042,0.562,1.338,1.628,1.354
		c1.756,0.025,3.434,0.427,5.078,1.021c0.494,0.179,0.655,0.474,0.649,0.995c-0.022,2.101-0.002,4.203,0.003,6.304
		c-0.025,0.443-0.377,0.513-0.695,0.537c-0.682,0.051-1.363,0.026-1.965-0.376c-0.006-1.435-0.006-2.872-0.021-4.308
		c-0.011-0.967-0.534-1.53-1.371-1.507c-0.798,0.022-1.278,0.572-1.289,1.506c-0.013,1.104-0.01,2.209-0.014,3.314
		c-1.027,0.189-1.882-0.169-2.642-0.83c-0.004-0.854,0.003-1.708-0.016-2.562c-0.02-0.897-0.555-1.445-1.361-1.428
		c-0.769,0.017-1.268,0.551-1.297,1.409c-0.017,0.468-0.013,0.936-0.019,1.404c-0.277,0.106-0.485-0.062-0.67-0.209
		c-1.389-1.107-2.392-2.481-2.841-4.222C25.586,8.669,25.482,8.419,25.688,8.199z"/>
	<path fill-rule="evenodd" clip-rule="evenodd" fill="#CFD7D9" d="M5.339,34.989c0.933-0.64,1.055-1.027,0.695-2.094
		c-0.688-2.038-1.102-4.108-0.684-6.265c0.592-3.055,3.156-5.307,6.165-5.427c-0.986,1.697-1.542,3.562-2.107,5.422
		c-0.056,0.184-0.121,0.369-0.323,0.451c-0.33,0.061-0.563-0.186-0.849-0.27c-0.499-0.146-0.934-0.059-1.257,0.364
		c-0.274,0.358-0.313,0.766-0.105,1.167c0.243,0.468,0.651,0.639,1.172,0.585c0.289-0.029,0.564-0.266,0.871-0.063
		c0.237,0.412,0.142,0.865,0.149,1.301c0.072,4.26,1.845,7.663,5.151,10.311c0.365,0.292,0.924,0.432,0.962,1.037
		c-2.518-0.645-4.546-2.074-6.315-3.927c-0.757-0.793-1.269-0.839-2.176-0.246C6.47,36.42,5.859,35.73,5.339,34.989z"/>
	<path fill-rule="evenodd" clip-rule="evenodd" fill="#464A51" d="M59.823,79.141c-0.562-2.123,0.515-3.326,2.271-4.248
		c1.011-0.529,0.965-0.617,0.163-1.422c-0.254-0.256-0.525-0.496-0.754-0.775c-0.482-0.588-0.456-1.303,0.038-1.807
		c0.494-0.508,1.246-0.582,1.8-0.07c0.957,0.885,1.887,1.805,2.771,2.762c0.631,0.682,0.484,1.498-0.317,2.064
		c-0.883,0.623-1.778,1.232-2.699,1.799c-0.45,0.275-0.66,0.574-0.622,1.125c0.057,0.801,0.027,1.609,0.011,2.414
		c-0.018,0.914-0.548,1.49-1.334,1.486c-0.786-0.002-1.305-0.578-1.324-1.494C59.812,80.363,59.823,79.752,59.823,79.141z"/>
	<path fill-rule="evenodd" clip-rule="evenodd" fill="#464A51" d="M7.229,74.234c0.908,0.605,1.659,1.123,2.429,1.613
		c0.591,0.375,0.884,0.867,0.866,1.584c-0.029,1.166,0.001,2.332-0.011,3.498c-0.01,0.965-0.551,1.561-1.364,1.539
		c-0.781-0.02-1.282-0.598-1.296-1.523c-0.013-0.861-0.022-1.723,0.006-2.582c0.012-0.381-0.121-0.602-0.438-0.803
		c-0.936-0.596-1.856-1.215-2.771-1.842c-0.984-0.676-1.065-1.498-0.233-2.352c0.774-0.795,1.558-1.582,2.354-2.355
		c0.667-0.648,1.424-0.697,1.993-0.158c0.591,0.561,0.556,1.355-0.122,2.051C8.218,73.342,7.755,73.742,7.229,74.234z"/>
	<path fill-rule="evenodd" clip-rule="evenodd" fill="#608DA8" d="M51.829,54.82c0.001,5.602,0.003,11.205,0.005,16.807
		c-1.06-0.281-1.391-0.908-1.372-2.045c0.078-4.844,0.03-9.689,0.038-14.535c0.001-0.475-0.037-0.934-0.186-1.385
		C50.907,53.934,51.399,54.336,51.829,54.82z"/>
	<path fill-rule="evenodd" clip-rule="evenodd" fill="#6B94AC" d="M49.507,53.15c-0.442-0.125-1.237,0.391-1.18-0.646
		C48.702,52.752,49.177,52.82,49.507,53.15z"/>
	<path fill-rule="evenodd" clip-rule="evenodd" fill="#769EB5" d="M19.86,71.844c-0.193,0.193-0.438,0.32-0.591,0.57
		c-0.354,0.574-0.316,1.127,0.096,1.615c0.396,0.469,0.941,0.596,1.509,0.332c0.805-0.371,1.578-0.814,2.391-1.166
		c0.792-0.346,1.099-0.893,1.094-1.756c-0.025-4.855-0.012-9.711-0.012-14.566c0-1.051,0.001-1.051,1.088-1.051
		c1.637,0,3.273,0.016,4.911-0.01c0.495-0.006,0.676,0.129,0.674,0.652C31,61.736,31.047,67.01,30.987,72.279
		c-0.043,3.73-3.206,7-7.105,7.506c-4.161,0.539-7.937-1.908-9.074-5.883c-0.083-0.293-0.18-0.594-0.186-0.891
		c-0.095-4.469-0.732-9.008,1.57-13.184c0.929-1.684,2.033-3.238,3.65-4.354c0.311,0.311,0.269,0.715,0.27,1.098
		c0.008,4.719,0.006,9.438,0.002,14.156C20.115,71.119,20.114,71.51,19.86,71.844z"/>
	<path fill-rule="evenodd" clip-rule="evenodd" fill="#F5B88C" d="M34.726,23.318c0.359,0.341,0.775,0.548,1.282,0.541
		c0.57,0.133,1.271,0.024,1.49,0.808c-0.243,0.951,0.164,1.554,0.958,2.066c1.151,0.743,2.296,1.439,3.69,1.631
		c1.17,0.161,2.271-0.065,3.315-0.538c0.823-0.373,1.011-1.208,0.47-1.762c-0.435-0.446-0.96-0.374-1.474-0.196
		c-1.001,0.347-1.997,0.455-3.004,0.034c-0.384-0.161-0.775-0.312-0.992-0.707c0.028-0.405,0.362-0.366,0.616-0.396
		c1.803-0.221,3.439-0.826,4.806-2.058c0.431-0.389,0.77-0.311,1.107,0.127c0.309,0.399,0.495,0.853,0.685,1.309
		c0.162,0.308,0.148,0.644,0.148,0.975c0.001,3.71,0.02,7.42-0.011,11.131c-0.012,1.44-0.367,2.823-0.976,4.24
		c-1.415-1.624-3.126-2.2-5.123-2c-2.942,0.355-5.096,2.661-5.298,5.669c-0.011,0.163,0.028,0.333-0.07,0.483l0.008-0.002
		c-0.375,0.209-0.495-0.068-0.623-0.328c-0.646-2.938-2.216-5.032-5.272-5.766c-0.63-0.151-1.269-0.056-1.904-0.055
		c-0.204,0.091-0.413,0.057-0.517-0.122c-0.581-0.996-1.188-1.987-1.097-3.214c0.314-0.271,0.633-0.07,0.94,0.008
		c1.681,0.428,3.173,0.024,4.511-1.026c0.45-0.353,0.664-0.821,0.452-1.393c-0.159-0.43-0.5-0.648-0.954-0.68
		c-0.451-0.032-0.785,0.227-1.117,0.477c-0.826,0.622-1.752,0.735-2.664,0.324c-0.638-0.287-1.242-0.694-1.752-1.205
		c-0.11-1.123-0.277-2.246,0.107-3.351c0.322-0.274,0.69-0.162,1.033-0.083c2.478,0.574,4.428-0.536,6.27-1.965
		c0.46-0.357,0.638-0.843,0.303-1.396c-0.291-0.48-0.869-0.629-1.473-0.357c-0.558,0.25-1.037,0.642-1.559,0.957
		c-1.433,0.866-2.872,0.92-4.337,0.092c-0.826-1.002-0.583-2.303,0.559-2.784c0.779-0.329,1.566-0.727,2.467-0.488
		c0.519,0.235,1.037,0.236,1.555-0.001C32.578,22.142,33.677,22.641,34.726,23.318z"/>
	<path fill-rule="evenodd" clip-rule="evenodd" fill="#E8F0F1" d="M15.178,41.508c-1.377-1.101-2.806-2.142-3.813-3.636
		c-1.63-2.418-2.636-5.026-2.52-7.993c0.014-0.359-0.009-0.72-0.015-1.08c0.122-0.588,0.014-1.194,0.13-1.783
		c0.642-1.224,0.793-2.621,1.372-3.868c0.322-0.694,0.498-1.474,1.182-1.946c2.261-0.121,3.995,0.823,5.13,2.735
		c1.209,2.034,1.367,4.245,0.008,6.204c-2.567,3.701-2.903,7.461-0.847,11.453C15.559,41.732,15.366,41.639,15.178,41.508z"/>
	<path fill-rule="evenodd" clip-rule="evenodd" fill="#656B76" d="M25.688,8.199c0.424,2.206,1.593,3.908,3.469,5.132
		c0.005,1.055-0.013,2.11,0.025,3.163c0.018,0.498-0.175,0.61-0.642,0.726c-3.289,0.818-5.595,2.788-6.797,5.99
		c-0.233,0.621-0.56,0.703-0.94,0.144c-0.798-1.172-1.489-2.421-1.776-3.822c-0.648-3.172,0.002-6.065,2.126-8.537
		C22.353,9.601,23.912,8.7,25.688,8.199z"/>
	<path fill-rule="evenodd" clip-rule="evenodd" fill="#F2A168" d="M26.691,28.316c-0.377,0.726-0.109,1.504-0.176,2.256
		c-0.037,0.41-0.005,0.826-0.004,1.239c-1.545,1.162-1.528,1.7,0.079,2.832c0.183,0.129,0.48,0.189,0.415,0.524
		c0.184,1.082,0.601,2.078,1.11,3.042c0.098,0.186,0.237,0.29,0.441,0.316c-1.274,0.376-2.407,0.973-3.226,2.061
		c-0.29,0.385-0.402,0.185-0.541-0.132c-0.552-1.258-0.899-2.58-0.918-3.939c-0.05-3.493-0.062-6.987-0.006-10.479
		c0.048-3.005,2.402-5.688,5.272-6.123c0.117,0.82-0.183,1.752,0.591,2.404c-0.821,0.216-1.668,0.339-2.444,0.714
		c-0.895,0.433-1.121,1.634-0.447,2.425c-0.089,0.221-0.3,0.221-0.483,0.259c-0.521,0.106-0.847,0.414-0.917,0.936
		c-0.068,0.499,0.237,0.82,0.602,1.106C26.262,27.933,26.647,27.928,26.691,28.316z"/>
	<path fill-rule="evenodd" clip-rule="evenodd" fill="#656B76" d="M37.188,16.332c0.511,0.059,1.021,0.132,1.534,0.171
		c0.41,0.031,0.826,0.033,1.126-0.333c0.306,0.735,0.824,1.171,1.644,0.97c0.83-0.204,1.059-0.858,1.021-1.641
		c0.843-0.941,1.981-1.091,3.116-0.994c1.423,0.123,2.666,0.719,3.562,1.899c0.643,0.847,1.498,1.385,2.495,1.715
		c0.287,0.095,0.598,0.139,0.81,0.39c-0.509,1.775-1.015,3.55-1.528,5.324c-0.063,0.217-0.206,0.444-0.45,0.416
		c-0.265-0.03-0.163-0.304-0.185-0.48c-0.283-2.364-1.471-4.317-2.856-6.164c-0.468-0.624-1.361-0.598-1.985,0.012
		c-1.534,1.501-3.379,2.137-5.497,2.058c-0.166-0.006-0.334-0.002-0.496-0.031C37.083,19.203,37.083,19.202,37.188,16.332z"/>
	<path fill-rule="evenodd" clip-rule="evenodd" fill="#F19554" d="M33.677,56.586c-0.171-0.916,0.155-2.012-0.356-3.15
		c-0.444-0.988,0.814-3.217,2.262-2.953c0.214,0.039,0.46,0.059,0.661-0.006c1.033-0.334,1.556,0.408,2.155,0.988
		c0.531,0.516,0.677,1.383,0.493,1.84c-0.751,1.871-0.217,3.775-0.377,5.648c-0.033,0.383-0.169,0.529-0.512,0.607
		c-1.284,0.293-2.569,0.344-3.869,0.098c-0.406-0.076-0.463-0.309-0.459-0.646C33.684,58.264,33.677,57.516,33.677,56.586z"/>
	<path fill-rule="evenodd" clip-rule="evenodd" fill="#7B818D" d="M52.494,18.509c-1.489-0.216-2.672-0.897-3.595-2.125
		c-0.954-1.27-3.309-2.343-5.641-1.247c-0.25,0.118-0.498,0.241-0.747,0.362c-0.004-1.357,0.003-2.715-0.018-4.072
		c-0.009-0.557,0.139-0.639,0.593-0.307c1.615,1.183,3.317,1.156,5.102,0.391c1.164-0.499,2.64-0.037,3.459,1.103
		C52.942,14.417,53.227,16.398,52.494,18.509z"/>
	<path fill-rule="evenodd" clip-rule="evenodd" fill="#F8CCAD" d="M42.327,41.211c1.454-0.107,2.471,0.538,2.878,1.928
		c0.263,0.896,0.748,1.369,1.713,1.318c0.624-0.032,0.903,0.347,0.905,0.934c0.003,0.856-0.008,1.713-0.032,2.568
		c-0.013,0.455-0.152,0.883-0.528,1.172c-0.798,0.611-1.271,1.436-1.591,2.365c-0.347,0.227-0.64,0.008-0.926-0.133
		c-1.691-0.836-2.638-2.23-2.919-4.064c-0.175-1.143-0.289-2.301-0.355-3.453C41.417,42.89,41.48,41.905,42.327,41.211z"/>
	<path fill-rule="evenodd" clip-rule="evenodd" fill="#F5B88C" d="M29.344,41.199c1.206-0.103,2.072,0.512,2.771,1.385
		c0.915,1.141,1.19,2.477,0.999,3.91c-0.077,0.574-0.194,1.145-0.3,1.715c-0.101,0.541-0.318,1.004-0.859,1.24
		c-0.624,0.271-0.927,0.758-0.974,1.426c-0.008,0.109-0.05,0.215-0.072,0.322c-0.398,1.959-0.398,1.963-2.439,1.959
		c-0.608-0.002-1.373,0.197-1.781-0.096c-0.432-0.309-0.088-1.133-0.205-1.721c0.084-0.301,0.351-0.412,0.582-0.555
		c1.495-0.936,2.234-2.305,2.391-4.039c0.08-0.879,0.129-1.762,0.278-2.632c0.121-0.705-0.05-1.371-0.24-2.037
		C29.413,41.791,29.235,41.519,29.344,41.199z"/>
	<path fill-rule="evenodd" clip-rule="evenodd" fill="#F8CCAD" d="M29.344,41.199c0.935,1.482,0.615,3.098,0.436,4.674
		c-0.123,1.082-0.145,2.193-0.745,3.191c-0.624,1.039-1.437,1.812-2.551,2.275c-0.345-0.854-0.804-1.623-1.551-2.195
		c-0.352-0.27-0.504-0.668-0.522-1.09c-0.039-0.909-0.061-1.82-0.049-2.731c0.007-0.548,0.312-0.897,0.888-0.864
		c1.008,0.056,1.492-0.453,1.754-1.381C27.327,41.93,28.133,41.289,29.344,41.199z"/>
	<path fill-rule="evenodd" clip-rule="evenodd" fill="#F5B88C" d="M42.327,41.211c-0.948,1.483-0.623,3.1-0.421,4.674
		c0.08,0.625,0.067,1.257,0.233,1.885c0.503,1.906,1.674,3.129,3.532,3.727c-0.054,1.66-0.054,1.66-1.703,1.66
		c-0.581,0-1.165-0.029-1.743,0.01c-0.506,0.035-0.678-0.18-0.73-0.652c-0.063-0.574-0.222-1.139-0.298-1.713
		c-0.083-0.631-0.374-1.082-0.958-1.35c-0.253-0.115-0.469-0.277-0.621-0.529c-1.066-1.771-0.752-5.076,0.65-6.583
		C40.825,41.741,41.477,41.287,42.327,41.211z"/>
	<path fill-rule="evenodd" clip-rule="evenodd" fill="#608DA8" d="M19.86,71.844c-0.006-5.457-0.012-10.914-0.018-16.369
		c0.5-0.521,1.087-0.91,1.838-1.229c0,0.34,0,0.607,0,0.875c0,4.855-0.037,9.713,0.03,14.568c0.014,1.029-0.275,1.619-1.234,1.908
		C20.265,71.66,20.065,71.76,19.86,71.844z"/>
	<path fill-rule="evenodd" clip-rule="evenodd" fill="#F2A168" d="M37.352,24.682c-0.25-0.599-0.953-0.457-1.345-0.823
		c0.794-0.229,1.208-0.738,1.161-1.581c-0.022-0.388,0.116-0.461,0.492-0.354c2.896,0.829,5.626,0.43,8.166-1.185
		c0.311-0.197,0.465-0.174,0.646,0.133c0.607,1.028,1.156,2.073,1.203,3.303c-0.499-0.445-0.649-1.437-1.212-1.474
		c-0.506-0.033-1.058,0.672-1.594,1.045c-1.146,0.797-2.462,1.089-3.816,1.254c-0.19,0.023-0.392-0.02-0.557,0.119
		c-0.195,0.178-0.385,0.043-0.51-0.066C39.185,24.352,38.308,24.258,37.352,24.682z"/>
	<path fill-rule="evenodd" clip-rule="evenodd" fill="#F2A168" d="M51.828,26.678c1.35-0.454,2.631,0.387,2.648,1.805
		c0.016,1.321-0.438,2.479-1.47,3.362c-0.365,0.067-0.571-0.176-0.726-0.43C51.364,29.914,51.405,28.312,51.828,26.678z"/>
	<path fill-rule="evenodd" clip-rule="evenodd" fill="#F19554" d="M51.828,26.678c0.101,1.307-0.242,2.645,0.287,3.925
		c0.202,0.491,0.415,0.957,0.892,1.242c-0.487,0.61-1.171,0.892-1.881,1.139c-0.522,0.182-0.658,0.004-0.643-0.528
		c0.036-1.271,0.003-2.543,0.016-3.815C50.508,27.703,50.884,26.994,51.828,26.678z"/>
	<path fill-rule="evenodd" clip-rule="evenodd" fill="#F19554" d="M20.147,26.154c0.745,0.464,1.016,1.011,1.024,1.682
		c0.016,1.356-0.02,2.714,0.019,4.069c0.015,0.542-0.236,0.517-0.597,0.416c-0.132-0.037-0.261-0.091-0.389-0.142
		c-1.186-0.476-1.204-0.523-0.73-1.668C20.032,29.163,20.277,27.759,20.147,26.154z"/>
	<path fill-rule="evenodd" clip-rule="evenodd" fill="#F2A168" d="M34.726,23.318c-1.146-0.342-2.251-0.822-3.443-1.002
		c0.489-0.454,0.64-1.033,0.55-1.666c-0.115-0.81,0.244-0.885,0.87-0.613c0.076,0.033,0.153,0.064,0.231,0.092
		c1.537,0.543,1.546,0.543,1.563,2.145C34.501,22.646,34.59,22.983,34.726,23.318z"/>
	<path fill-rule="evenodd" clip-rule="evenodd" fill="#656B75" d="M31.85,14.507c0.867,0.322,1.719,0.689,2.642,0.83
		c0.004,0.663-0.003,1.326,0.015,1.988c0.013,0.45-0.154,0.542-0.541,0.339c-0.145-0.076-0.313-0.107-0.462-0.177
		c-0.519-0.243-1.33-0.058-1.574-0.525c-0.252-0.482-0.082-1.185-0.091-1.792C31.835,14.949,31.846,14.728,31.85,14.507z"/>
	<path fill-rule="evenodd" clip-rule="evenodd" fill="#EFA168" d="M36.347,44.676c-0.051-2.29,0.763-4.162,2.693-5.468
		c0.8-0.542,1.693-0.803,2.674-0.685C38.572,39.394,36.979,41.615,36.347,44.676z"/>
	<path fill-rule="evenodd" clip-rule="evenodd" fill="#F0A067" d="M35.732,44.346c0.194,0.136,0.352,0.34,0.623,0.328
		c-0.019,0.855-0.022,1.709,0.144,2.555c0.063,0.326,0.052,0.598-0.417,0.6c-0.489,0.004-0.458-0.294-0.4-0.604
		C35.857,46.266,35.879,45.309,35.732,44.346z"/>
	<path fill-rule="evenodd" clip-rule="evenodd" fill="#CFD7D9" d="M65.486,15.841c0.417,1.312,1.433,2.134,2.438,2.961
		c0.146,0.12,0.331,0.19,0.385,0.396c-0.426,0.217-0.738-0.101-1.079-0.243c-1.107-0.459-1.812-0.034-1.85,1.154
		c-0.024,0.748-0.029,1.497,0.005,2.244c0.033,0.74,0.397,1.168,0.99,1.229c0.595,0.061,1.04-0.261,1.2-1.003
		c0.131-0.608,0.413-0.752,0.923-0.465c0.625,0.352,1.178-0.065,1.764-0.119c0.662,0.667,0.611,1.557,0.715,2.386
		c0.221,1.749-0.455,3.299-1.106,4.863c-0.794,1.905-0.647,3.821,0.101,5.709c0.108,0.275,0.201,0.585,0.521,0.718
		c-2.675,2.239-5.739,3.706-9.073,4.637c-0.068-0.076-0.136-0.152-0.203-0.229c0.351-0.268,0.74-0.499,1.048-0.81
		c4.358-4.417,4.968-10.629,1.561-15.828c-0.79-1.206-1.622-2.385-2.385-3.607c-2.812-4.507-1.458-10.559,2.966-13.313
		c0.442-0.276,0.884-0.572,1.417-0.661c-0.478,1.637-0.846,3.298-1.08,4.987c-0.107,0.779-0.268,1.57,0.088,2.336
		c0.043,0.207-0.126,0.276-0.242,0.382c-0.886,0.814-0.689,1.678,0.469,2.063C65.211,15.68,65.378,15.701,65.486,15.841z"/>
	<path fill-rule="evenodd" clip-rule="evenodd" fill="#464A51" d="M70.262,21.996c-0.749,0.752-1.541,0.549-2.319,0.062
		c-0.055,0.078-0.104,0.114-0.107,0.156c-0.102,1.092-0.558,1.633-1.371,1.62c-0.852-0.014-1.306-0.618-1.31-1.748
		c-0.003-0.69-0.015-1.381,0.003-2.071c0.032-1.263,0.938-1.81,2.1-1.282c0.349,0.159,0.701,0.311,1.052,0.465
		c0.157,0.155,0.272,0.138,0.373-0.069c0.181-0.373,0.364-0.745,0.564-1.108c0.459-0.83,1.084-1.034,1.947-0.65
		c1.343,0.597,1.343,0.597,2.021-0.633c0.562-1.02,1.465-1.182,2.312-0.4c0.406,0.376,0.795,0.773,1.176,1.175
		c0.494,0.522,0.631,1.123,0.203,1.733c-0.416,0.594-1.021,0.799-1.672,0.431c-0.579-0.328-0.581,0.176-0.722,0.434
		c-0.594,1.091-1.156,1.303-2.213,0.793c-1.229-0.592-1.229-0.592-1.834,0.638C70.392,21.691,70.329,21.845,70.262,21.996z"/>
	<path fill-rule="evenodd" clip-rule="evenodd" fill="#474B52" d="M74.477,13.18c-0.002,0.719-0.59,1.316-1.309,1.327
		c-0.75,0.011-1.371-0.622-1.346-1.372c0.024-0.721,0.629-1.296,1.35-1.284C73.892,11.864,74.478,12.461,74.477,13.18z"/>
	<path fill-rule="evenodd" clip-rule="evenodd" fill="#474B52" d="M65.486,15.841c-0.804,0.051-1.434-0.221-1.625-1.055
		c-0.185-0.804,0.282-1.287,0.969-1.602c0.806-0.058,1.424,0.229,1.614,1.053C66.629,15.034,66.163,15.519,65.486,15.841z"/>
	<path fill-rule="evenodd" clip-rule="evenodd" fill="#474B52" d="M8.96,27.017c0.233,0.614,0.329,1.219-0.13,1.783
		c-0.336,0.191-0.661,0.416-1.08,0.364c-0.579-0.072-0.979-0.378-1.163-0.93c-0.174-0.525-0.034-0.999,0.364-1.365
		c0.396-0.363,0.875-0.483,1.385-0.252C8.56,26.716,8.753,26.881,8.96,27.017z"/>
	<path fill-rule="evenodd" clip-rule="evenodd" fill="#464A51" d="M26.691,28.316c-0.121-0.061-0.24-0.127-0.364-0.183
		c-0.863-0.382-1.283-0.956-1.123-1.616c0.206-0.85,0.82-1.12,1.632-1.062c1.63,0.82,3.154,0.608,4.594-0.465
		c0.288-0.215,0.591-0.412,0.898-0.6c0.724-0.443,1.491-0.331,1.921,0.271c0.444,0.623,0.299,1.359-0.383,1.89
		C31.738,28.208,29.438,29.171,26.691,28.316z"/>
	<path fill-rule="evenodd" clip-rule="evenodd" fill="#464A51" d="M37.352,24.682c0.81-0.708,1.294-0.746,2.183-0.172
		c0.32,0.207,0.642,0.408,0.962,0.612c1.206,0.908,2.505,1.068,3.909,0.518c0.989-0.388,1.695-0.137,2.001,0.673
		c0.275,0.729-0.104,1.422-1.021,1.794c-2.062,0.837-4.053,0.667-5.957-0.478c-0.473-0.285-0.923-0.61-1.38-0.921
		C37.142,26.09,37.021,25.733,37.352,24.682z"/>
	<path fill-rule="evenodd" clip-rule="evenodd" fill="#464A51" d="M27.004,35.167c-0.362-0.245-0.732-0.476-1.082-0.736
		c-0.512-0.383-0.869-0.867-0.711-1.546c0.155-0.669,0.639-0.991,1.3-1.075c0.365,0.048,0.676,0.203,0.968,0.432
		c1.181,0.924,2.192,0.93,3.375,0.008c0.419-0.326,0.85-0.518,1.378-0.349c1.031,0.329,1.271,1.558,0.416,2.326
		c-1.396,1.253-3.025,1.651-4.852,1.176C27.529,35.334,27.268,35.246,27.004,35.167z"/>
	<path fill-rule="evenodd" clip-rule="evenodd" fill="#464A51" d="M38.515,32.964c0.026-0.33,0.247-0.721,0.701-0.964
		c0.49-0.263,0.997-0.242,1.402,0.11c1.281,1.114,2.503,1.062,3.789-0.011c0.562-0.468,1.206-0.349,1.724,0.167
		c0.496,0.494,0.483,1.238,0.008,1.807c-1.667,2-5.661,1.989-7.295-0.021C38.627,33.788,38.491,33.491,38.515,32.964z"/>
	<path fill-rule="evenodd" clip-rule="evenodd" fill="#464A51" d="M35.734,31.841c0.997,0.001,1.631,0.858,1.365,1.723
		c-0.073,0.235-0.183,0.465-0.309,0.678c-0.449,0.753-0.834,1.42,0.105,2.188c0.512,0.418,0.375,1.143-0.103,1.642
		c-0.507,0.527-1.154,0.615-1.722,0.156c-0.599-0.483-1.132-1.057-1.643-1.635c-0.309-0.35-0.359-0.815-0.149-1.251
		c0.455-0.946,0.922-1.887,1.405-2.819C34.918,32.069,35.33,31.859,35.734,31.841z"/>
	<path fill-rule="evenodd" clip-rule="evenodd" fill="#484B51" d="M30.5,30.53c-0.016,0.723-0.611,1.304-1.334,1.3
		c-0.755-0.004-1.358-0.642-1.32-1.396c0.038-0.724,0.65-1.285,1.375-1.258C29.944,29.202,30.515,29.807,30.5,30.53z"/>
	<path fill-rule="evenodd" clip-rule="evenodd" fill="#484B51" d="M42.483,29.175c0.724-0.008,1.323,0.567,1.343,1.291
		c0.021,0.755-0.599,1.379-1.354,1.364c-0.724-0.014-1.304-0.608-1.301-1.333C41.175,29.771,41.757,29.184,42.483,29.175z"/>
	<path fill-rule="evenodd" clip-rule="evenodd" fill="#474B52" d="M14.509,27.805c0.018,0.717-0.558,1.331-1.275,1.361
		c-0.748,0.031-1.385-0.586-1.379-1.338c0.005-0.722,0.594-1.311,1.315-1.317C13.888,26.503,14.491,27.086,14.509,27.805z"/>
	<path fill-rule="evenodd" clip-rule="evenodd" fill="#464A51" d="M26.506,13.255c0,0.442,0.023,0.886-0.005,1.326
		c-0.051,0.779-0.606,1.279-1.36,1.261c-0.715-0.017-1.258-0.506-1.286-1.248c-0.036-0.938-0.036-1.88,0-2.818
		c0.029-0.78,0.603-1.279,1.356-1.261c0.715,0.017,1.242,0.507,1.29,1.248C26.531,12.259,26.505,12.758,26.506,13.255z"/>
</g>
</svg>
