<?xml version="1.0" encoding="utf-8"?>
<!-- Generator: Adobe Illustrator 16.0.2, SVG Export Plug-In . SVG Version: 6.00 Build 0)  -->
<!DOCTYPE svg PUBLIC "-//W3C//DTD SVG 1.1//EN" "http://www.w3.org/Graphics/SVG/1.1/DTD/svg11.dtd">
<svg version="1.1" id="Layer_1" xmlns="http://www.w3.org/2000/svg" xmlns:xlink="http://www.w3.org/1999/xlink" x="0px" y="0px"
	 width="85px" height="85px" viewBox="0 0 85 85" enable-background="new 0 0 85 85" xml:space="preserve">
<g>
	<path fill="#FFECB3" d="M55.832,11.389L29.166,2.5L2.5,11.389V82.5l26.666-8.889L55.832,82.5L82.5,73.611V2.5L55.832,11.389z"/>
	<path fill="#FFE082" d="M29.166,2.5v71.111L55.832,82.5V11.389L29.166,2.5z"/>
	<path fill="#F44336" d="M55.832,22.5c-8.592,0-15.555,7.318-15.555,16.335c0,9.019,15.555,30.333,15.555,30.333
		s15.557-21.316,15.557-30.333C71.389,29.82,64.428,22.5,55.832,22.5z"/>
	<path fill="#FFEBEE" d="M49.166,38.055c0,3.682,2.984,6.668,6.666,6.668c3.684,0,6.668-2.986,6.668-6.668s-2.984-6.666-6.668-6.666
		C52.15,31.389,49.166,34.373,49.166,38.055z"/>
</g>
</svg>
