<?xml version="1.0" encoding="utf-8"?>
<!-- Generator: Adobe Illustrator 16.0.0, SVG Export Plug-In . SVG Version: 6.00 Build 0)  -->
<!DOCTYPE svg PUBLIC "-//W3C//DTD SVG 1.1//EN" "http://www.w3.org/Graphics/SVG/1.1/DTD/svg11.dtd">
<svg version="1.1" id="Layer_1" xmlns="http://www.w3.org/2000/svg" xmlns:xlink="http://www.w3.org/1999/xlink" x="0px" y="0px"
	 width="85px" height="85px" viewBox="0 0 85 85" enable-background="new 0 0 85 85" xml:space="preserve">
<g>
	<g>
		<path fill="#FFD2C8" d="M68.687,3.291c0,0-50.061,8.556-52.277,26.14c-1.426,10.772,6.496,39.287,6.496,39.287v12.99h19.643
			c0,0,6.18-22.494,0-36.119l26.141-3.167V3.291H68.687z"/>
		<path fill="#F2F2F2" d="M19.735,55.568c11.723,5.387,25.188-1.584,25.188-1.584l-2.375-8.236l6.494-0.793
			c0,0,0.158-23.445-6.494-34.851L28.29,16.125c-9.506,3.96-14.732,14.258-12.355,24.396C15.935,40.361,19.735,55.568,19.735,55.568
			z"/>
		<path d="M42.548,82.5H22.903c-0.477,0-0.791-0.316-0.791-0.793v-12.99c-0.633-2.217-7.92-28.832-6.496-39.445
			c1.109-9.029,13.783-15.524,26.457-19.96l0,0c0.158,0,0.158-0.158,0.316-0.158C55.063,4.876,67.419,2.658,68.528,2.5
			c0.475,0,0.791,0.157,0.951,0.634c0,0.475-0.16,0.792-0.635,0.95c-0.316,0-12.516,2.218-25.029,6.495
			c5.545,10.456,6.02,28.989,6.178,33.426l18.693-2.218c0.475,0,0.793,0.316,0.949,0.634c0,0.475-0.316,0.792-0.633,0.95
			l-19.484,2.377c-0.158,0-0.158,0-0.316,0l0,0l-5.387,0.633c1.584,4.119,2.377,8.555,2.377,13.148c0,0.477-0.318,0.793-0.793,0.793
			l0,0c-0.477,0-0.791-0.316-0.791-0.793c0-1.426-0.16-2.852-0.318-4.277c-3.168,1.426-13.623,5.387-23.445,1.744
			c1.428,6.494,2.854,11.562,2.854,11.723v0.158v12.355h18.217c0.316-0.949,0.793-3.01,1.27-5.861c0-0.477,0.475-0.791,0.949-0.635
			c0.477,0,0.791,0.477,0.635,0.951c-0.635,3.961-1.428,6.496-1.428,6.654C43.181,82.184,42.864,82.5,42.548,82.5z M20.37,54.936
			c9.98,4.436,21.068-0.316,23.604-1.426c-0.477-2.377-1.109-4.594-1.9-6.812c-3.01,1.107-13.783,4.752-23.445-0.316
			C19.103,49.232,19.735,52.084,20.37,54.936z M18.312,44.322c9.346,5.701,20.752,1.742,23.285,0.633c0.158-1.742,0-3.485,0-5.069
			c-3.643,0.158-18.059-0.159-24.555-10.456C16.728,33.074,17.202,38.46,18.312,44.322z M43.181,39.252
			c0.158,1.743,0.158,3.484,0,5.386l4.91-0.635c0-3.959-0.633-22.969-6.02-33.109c-3.01,0.951-5.861,2.218-8.553,3.485
			c2.217,2.535,8.553,10.771,9.664,24.396v0.158C43.181,39.094,43.181,39.252,43.181,39.252z M30.507,36.875
			c4.752,1.426,9.189,1.426,11.09,1.426c-1.268-13.307-7.762-21.386-9.506-23.128c-2.375,1.109-4.752,2.376-6.652,3.802
			C27.339,21.192,32.884,28.321,30.507,36.875z M17.677,27.371c2.535,4.91,6.812,7.604,11.248,9.188
			c2.219-7.921-3.328-14.732-4.912-16.634C21.003,22.143,18.786,24.678,17.677,27.371z M44.765,69.51
			c-0.475,0-0.791-0.316-0.791-0.793c0-0.316,0-0.791,0.158-1.109c0-0.156,0-0.475,0-0.633c0-0.475,0.477-0.791,0.791-0.791
			c0.477,0,0.793,0.475,0.793,0.791s0,0.477-0.158,0.793c0,0.316-0.158,0.633-0.158,0.949C45.558,69.033,45.241,69.51,44.765,69.51z
			"/>
	</g>
</g>
</svg>
