<?xml version="1.0" encoding="utf-8"?>
<!-- Generator: Adobe Illustrator 16.0.0, SVG Export Plug-In . SVG Version: 6.00 Build 0)  -->
<!DOCTYPE svg PUBLIC "-//W3C//DTD SVG 1.1//EN" "http://www.w3.org/Graphics/SVG/1.1/DTD/svg11.dtd">
<svg version="1.1" id="Layer_1" xmlns="http://www.w3.org/2000/svg" xmlns:xlink="http://www.w3.org/1999/xlink" x="0px" y="0px"
	 width="85px" height="85px" viewBox="0 0 85 85" enable-background="new 0 0 85 85" xml:space="preserve">
<g>
	<g>
		<path fill="#ED4850" d="M42.573,3.829L42.573,3.829c-2.322,0-4.207,1.885-4.207,4.207v1.568h8.416V8.036
			C46.782,5.714,44.899,3.829,42.573,3.829z"/>
		<path fill="#ED4850" d="M42.581,81.202L42.581,81.202c-2.025,0-3.67-1.643-3.67-3.67v-25.9h7.342v25.9
			C46.253,79.56,44.608,81.202,42.581,81.202z"/>
	</g>
	<g>
		<path fill="#E0273D" d="M42.573,3.829L42.573,3.829c-0.457,0-0.898,0.074-1.312,0.209c1.682,0.553,2.896,2.135,2.896,4v1.568
			h2.625V8.038C46.782,5.714,44.899,3.829,42.573,3.829z"/>
		<path fill="#E0273D" d="M43.626,51.632v25.9c0,1.564-0.98,2.896-2.357,3.424c0.408,0.156,0.85,0.246,1.312,0.246
			c2.027,0,3.672-1.643,3.672-3.67v-25.9H43.626L43.626,51.632z"/>
	</g>
	<path fill="#E6E7E8" d="M46.798,51.819h-8.432c-0.959,0-1.736-0.777-1.736-1.736V11.12c0-0.957,0.778-1.734,1.736-1.734h8.432
		c0.959,0,1.734,0.775,1.734,1.734v38.963C48.532,51.042,47.757,51.819,46.798,51.819z"/>
	<path fill="#D1D3D4" d="M46.798,9.386H43.72c0.959,0,1.734,0.775,1.734,1.734v38.963c0,0.959-0.775,1.736-1.734,1.736h3.078
		c0.959,0,1.734-0.777,1.734-1.736V11.12C48.532,10.161,47.757,9.386,46.798,9.386z"/>
	<circle cx="42.491" cy="13.244" r="1.313"/>
	<circle cx="42.491" cy="18.426" r="1.313"/>
	<circle cx="42.491" cy="23.344" r="1.313"/>
	<circle cx="42.491" cy="28.132" r="1.312"/>
	<circle cx="42.491" cy="33.311" r="1.313"/>
	<circle cx="42.491" cy="38.231" r="1.312"/>
	<circle cx="42.491" cy="42.707" r="1.313"/>
	<circle cx="42.491" cy="47.626" r="1.312"/>
	<path d="M56.62,19.739c0.727,0,1.312-0.588,1.312-1.312c0-0.727-0.588-1.314-1.312-1.314h-6.855v-2.291h6.855
		c0.727,0,1.312-0.588,1.312-1.312c0-0.727-0.588-1.312-1.312-1.312h-6.855v-1.088c0-1.217-0.719-2.266-1.752-2.756V8.024
		c0-3.045-2.477-5.521-5.521-5.521c-3.043,0-5.52,2.477-5.52,5.521V8.36c-1.025,0.492-1.736,1.537-1.736,2.748v1.088h-6.856
		c-0.726,0-1.313,0.586-1.313,1.312c0,0.725,0.589,1.312,1.313,1.312h6.856v2.291h-6.856c-0.726,0-1.313,0.588-1.313,1.314
		c0,0.725,0.589,1.312,1.313,1.312h6.856v2.291h-6.856c-0.726,0-1.313,0.588-1.313,1.314c0,0.725,0.589,1.312,1.313,1.312h6.856
		v2.291h-6.856c-0.726,0-1.313,0.588-1.313,1.314c0,0.725,0.589,1.312,1.313,1.312h6.856v2.291h-6.856
		c-0.726,0-1.313,0.588-1.313,1.314c0,0.725,0.589,1.312,1.313,1.312h6.856v2.291h-6.856c-0.726,0-1.313,0.588-1.313,1.314
		c0,0.725,0.589,1.312,1.313,1.312h6.856v2.291h-6.856c-0.726,0-1.313,0.588-1.313,1.314c0,0.725,0.589,1.311,1.313,1.311h6.856
		v2.293h-6.856c-0.726,0-1.313,0.588-1.313,1.312s0.589,1.312,1.313,1.312h6.856v0.82c0,1.416,0.972,2.604,2.281,2.947v24.502
		c0,2.748,2.236,4.982,4.984,4.982s4.982-2.234,4.982-4.982v-20.18c0-0.727-0.588-1.312-1.312-1.312
		c-0.727,0-1.312,0.588-1.312,1.312v20.18c0,1.299-1.057,2.355-2.357,2.355s-2.357-1.057-2.357-2.355v-24.4h6.572
		c1.682,0,3.051-1.367,3.051-3.049v-0.82h6.855c0.727,0,1.312-0.588,1.312-1.312s-0.588-1.312-1.312-1.312h-6.855v-2.291h6.855
		c0.727,0,1.312-0.588,1.312-1.312c0-0.727-0.588-1.314-1.312-1.314h-6.855v-2.291h6.855c0.727,0,1.312-0.588,1.312-1.312
		c0-0.727-0.588-1.314-1.312-1.314h-6.855v-2.291h6.855c0.727,0,1.312-0.588,1.312-1.312c0-0.727-0.588-1.314-1.312-1.314h-6.855
		v-2.291h6.855c0.727,0,1.312-0.588,1.312-1.312c0-0.727-0.588-1.314-1.312-1.314h-6.855v-2.291h6.855
		c0.727,0,1.312-0.588,1.312-1.312c0-0.727-0.588-1.314-1.312-1.314h-6.855v-2.293h6.854V19.739z M39.597,8.022
		c0-1.598,1.299-2.896,2.895-2.896c1.598,0,2.896,1.299,2.896,2.896v0.035h-5.791V8.022L39.597,8.022z M47.138,50.067
		c0,0.234-0.189,0.424-0.424,0.424h-8.431c-0.233,0-0.423-0.189-0.423-0.424V11.106c0-0.234,0.189-0.424,0.423-0.424H46.7h0.014
		c0.232,0,0.424,0.189,0.424,0.424V50.067z"/>
</g>
</svg>
