<?xml version="1.0" encoding="utf-8"?>
<!-- Generator: Adobe Illustrator 16.0.0, SVG Export Plug-In . SVG Version: 6.00 Build 0)  -->
<!DOCTYPE svg PUBLIC "-//W3C//DTD SVG 1.1//EN" "http://www.w3.org/Graphics/SVG/1.1/DTD/svg11.dtd">
<svg version="1.1" id="Layer_1" xmlns="http://www.w3.org/2000/svg" xmlns:xlink="http://www.w3.org/1999/xlink" x="0px" y="0px"
	 width="85px" height="85px" viewBox="0 0 85 85" enable-background="new 0 0 85 85" xml:space="preserve">
<g>
	<g enable-background="new    ">
		<path fill="#EC008C" d="M26.562,74.004h-7.834V24.065c-1.886,1.796-4.357,3.605-7.428,5.402c-3.057,1.796-5.809,3.146-8.254,4.051
			v-7.58c4.382-2.064,8.216-4.561,11.49-7.491c3.274-2.93,5.605-5.771,6.969-8.535h5.044v64.092H26.562z"/>
	</g>
	<g enable-background="new    ">
		<path d="M27.096,74.551h-8.914V25.3c-1.795,1.563-4.011,3.12-6.604,4.638c-3.07,1.804-5.877,3.181-8.341,4.092L2.5,34.303v-8.711
			l0.313-0.147c4.322-2.035,8.145-4.527,11.359-7.404c3.226-2.886,5.527-5.702,6.843-8.37l0.15-0.304h5.93V74.551z M19.274,73.459
			h6.729V10.458h-4.163c-1.397,2.702-3.731,5.525-6.939,8.396c-3.216,2.878-7.02,5.376-11.309,7.429v6.441
			c2.224-0.883,4.72-2.134,7.432-3.728c2.987-1.748,5.451-3.54,7.327-5.327l0.923-0.879V73.459z"/>
	</g>
	<g enable-background="new    ">
		<path fill="#EC008C" d="M39.646,57.277l8.229-0.701c0.611,4,2.025,7.02,4.242,9.031c2.216,2.014,4.905,3.033,8.039,3.033
			c3.771,0,6.968-1.428,9.58-4.268c2.611-2.842,3.923-6.625,3.923-11.326c0-4.471-1.261-8-3.77-10.585
			c-2.511-2.586-5.798-3.873-9.861-3.873c-2.522,0-4.803,0.573-6.841,1.72c-2.039,1.146-3.631,2.637-4.79,4.459l-7.363-0.955
			l6.179-32.792h31.747v7.491H53.481l-3.439,17.16c3.834-2.675,7.848-4,12.064-4c5.578,0,10.28,1.936,14.103,5.796
			c3.835,3.86,5.746,8.829,5.746,14.892c0,5.771-1.683,10.764-5.046,14.98c-4.089,5.174-9.683,7.746-16.766,7.746
			c-5.81,0-10.547-1.629-14.216-4.877C42.271,66.959,40.169,62.652,39.646,57.277z"/>
	</g>
	<g enable-background="new    ">
		<path d="M60.144,75.633c-5.914,0-10.819-1.688-14.578-5.016c-3.756-3.338-5.93-7.809-6.462-13.287l-0.054-0.551l9.289-0.791
			l0.076,0.506c0.592,3.863,1.961,6.795,4.07,8.709c2.111,1.918,4.692,2.891,7.672,2.891c3.594,0,6.682-1.375,9.177-4.092
			c2.51-2.727,3.781-6.412,3.781-10.955c0-4.299-1.217-7.732-3.617-10.206c-2.387-2.459-5.573-3.707-9.469-3.707
			c-2.415,0-4.627,0.555-6.573,1.65c-1.939,1.091-3.485,2.528-4.598,4.276l-0.186,0.293l-8.281-1.074l6.369-33.805h32.746v8.583
			H53.929l-3.094,15.436c3.576-2.236,7.361-3.367,11.271-3.367c5.7,0,10.576,2.005,14.491,5.958
			c3.917,3.943,5.902,9.083,5.902,15.276c0,5.871-1.736,11.025-5.164,15.322C73.166,72.957,67.38,75.633,60.144,75.633z
			 M40.249,57.773c0.593,4.945,2.623,8.99,6.04,12.027c3.553,3.145,8.215,4.74,13.854,4.74c6.885,0,12.383-2.537,16.338-7.539
			c3.27-4.1,4.927-9.025,4.927-14.643c0-5.895-1.88-10.775-5.587-14.507c-3.702-3.739-8.316-5.635-13.715-5.635
			c-4.087,0-8.041,1.313-11.753,3.902l-1.114,0.778l3.795-18.932h25.38v-6.398H47.666l-5.987,31.778l6.451,0.837
			c1.192-1.769,2.803-3.23,4.79-4.349c2.112-1.188,4.504-1.79,7.109-1.79c4.202,0,7.651,1.358,10.253,4.038
			c2.604,2.685,3.925,6.374,3.925,10.966c0,4.824-1.368,8.76-4.067,11.695c-2.712,2.949-6.071,4.445-9.982,4.445
			c-3.259,0-6.087-1.068-8.406-3.176c-2.205-2.002-3.661-4.977-4.333-8.85L40.249,57.773z"/>
	</g>
</g>
</svg>
