<?xml version="1.0" encoding="utf-8"?>
<!-- Generator: Adobe Illustrator 16.0.0, SVG Export Plug-In . SVG Version: 6.00 Build 0)  -->
<!DOCTYPE svg PUBLIC "-//W3C//DTD SVG 1.1//EN" "http://www.w3.org/Graphics/SVG/1.1/DTD/svg11.dtd">
<svg version="1.1" id="Layer_1" xmlns="http://www.w3.org/2000/svg" xmlns:xlink="http://www.w3.org/1999/xlink" x="0px" y="0px"
	 width="85px" height="85px" viewBox="0 0 85 85" enable-background="new 0 0 85 85" xml:space="preserve">
<g>
	<g>
		<path fill="#EAA0E3" d="M5.063,43.334h7.083v-5.125H5.063c-1.416,0-2.563,1.146-2.563,2.562l0,0
			C2.5,42.188,3.648,43.334,5.063,43.334z"/>
		<path fill="#EAA0E3" d="M79.938,38.209h-7.082v5.125h7.082c1.416,0,2.562-1.146,2.562-2.562l0,0
			C82.502,39.356,81.354,38.209,79.938,38.209z"/>
	</g>
	
		<rect x="37.047" y="9.6" transform="matrix(-0.9828 0.1846 -0.1846 -0.9828 82.2685 18.9978)" fill="#CCCCCC" width="6.407" height="7.456"/>
	<path fill="#E6E6E6" d="M73.125,31.733H11.877v40.796c0,4.738,3.841,8.578,8.578,8.578h44.09c4.738,0,8.578-3.84,8.578-8.578
		L73.125,31.733L73.125,31.733z"/>
	<path fill="#CCCCCC" d="M19.971,72.531V31.734h-8.094v40.797c0,4.736,3.841,8.578,8.578,8.578h8.096
		C23.812,81.109,19.971,77.268,19.971,72.531z"/>
	<path fill="#E6E6E6" d="M67.934,10.116L13.307,20.372c-3.516,0.659-5.83,4.043-5.17,7.559l0,0l67.357-12.645l0,0
		C74.834,11.771,71.449,9.456,67.934,10.116z"/>
	<path fill="#CCCCCC" d="M24.443,18.28l-11.138,2.092c-3.515,0.659-5.83,4.043-5.17,7.559l0,0l11.138-2.092l0,0
		C18.615,22.325,20.928,18.94,24.443,18.28z"/>
	<path fill="#EAA0E3" d="M42.412,3.949l-7.625,1.431c-1.83,0.344-3.035,2.106-2.691,3.938l0,0c0.344,1.831,2.105,3.036,3.938,2.693
		l7.623-1.432c1.832-0.344,3.037-2.105,2.693-3.938l0,0C46.004,4.811,44.242,3.605,42.412,3.949z"/>
	<path fill="#D57CD4" d="M36.482,9.317L36.482,9.317c-0.344-1.831,0.861-3.594,2.691-3.938l5.537-1.039
		c-0.672-0.385-1.479-0.545-2.299-0.392l-7.625,1.431c-1.83,0.344-3.035,2.106-2.691,3.938l0,0c0.344,1.831,2.105,3.036,3.938,2.693
		l2.086-0.393C37.295,11.143,36.672,10.326,36.482,9.317z"/>
	<path fill="#EC589B" d="M66.213,10.499c0-3.613,2.488-6.543,5.559-6.543c3.836,0,6.945,3.662,6.945,8.18
		c0,5.646-6.689,11.166-12.504,14.138c-5.812-2.972-12.504-8.492-12.504-14.138c0-4.518,3.109-8.18,6.945-8.18
		C63.725,3.956,66.213,6.885,66.213,10.499z"/>
</g>
</svg>
