<?xml version="1.0" encoding="utf-8"?>
<!-- Generator: Adobe Illustrator 16.0.0, SVG Export Plug-In . SVG Version: 6.00 Build 0)  -->
<!DOCTYPE svg PUBLIC "-//W3C//DTD SVG 1.1//EN" "http://www.w3.org/Graphics/SVG/1.1/DTD/svg11.dtd">
<svg version="1.1" id="Layer_1" xmlns="http://www.w3.org/2000/svg" xmlns:xlink="http://www.w3.org/1999/xlink" x="0px" y="0px"
	 width="85px" height="85px" viewBox="0 0 85 85" enable-background="new 0 0 85 85" xml:space="preserve">
<g>
	<path fill="#FFFFFF" d="M74.988,78.08c-0.1-0.402-0.301-0.703-0.602-0.902l-2.004,1.002c-0.6-0.902-1.4-1.504-2.402-1.805
		c-0.805-0.199-1.605-0.299-2.508-0.102c-0.398,0.102-0.9,0.303-1.199,0.604h-0.102c-0.701,0.4-1.402,0.701-2.104,1.002
		l-1.104,0.301c-0.5-2.104-2.303-3.607-4.508-2.705c-1.502,0.602-2.203,1.102-2.906,2.705c-1.002,2.904,4.209,2.504,6.113,2.104
		c1.1-0.201,2.104-0.701,3.004-1.303h0.102c-0.301,0.502-0.4,1.102-0.301,1.604c0.102,1.102,1.303,1.502,2.404,1.402
		c0.701,0,1.502-0.1,2.205-0.201c1.803-0.299,3.805-1.502,5.51-2.904C74.789,78.881,74.988,78.48,74.988,78.08z"/>
	<path fill="#A98A75" d="M70.982,4.34c-1.203-1.002-2.707-1.504-4.311-1.402c-2.203,0-4.105,0.802-5.311,2.204
		c-0.699,0.901-1.303,1.903-1.502,3.006c-0.199,1.202-0.301,2.504-0.102,3.808l13.227,10.02c1.203-0.502,1.303-1.303,1.303-1.805
		c0.1-0.601,0-1.303-0.201-1.902c-0.201-0.901-0.6-2.604-0.398-5.61c0.1-0.603,0.197-1.303,0.197-1.903c0-0.301,0-0.502,0-0.701
		c0-1.703-0.699-3.606-1.803-4.811L70.982,4.34z"/>
	<path fill="#211715" d="M71.684,5.541c0.801,0.902,1.4,2.104,1.602,3.307c0.201,1.203,0.102,2.506-0.1,3.808
		c-0.102,1.304-0.102,2.505,0.1,3.808c0.102,0.803,0.301,1.504,0.402,2.305c0.1,0.4,0.1,0.803,0.1,1.203c0,0.1,0,0.301,0,0.4v0.1
		c0-0.1,0,0.102,0,0.102c-0.1,0.501-0.502,0.803-0.902,1.001c-0.199,0.101-0.398,0.302-0.301,0.603
		c0.102,0.199,0.301,0.399,0.604,0.3c0.6-0.199,1.102-0.601,1.4-1.101c0.201-0.402,0.301-0.902,0.301-1.305
		c0-1.002-0.301-2.004-0.5-3.006c-0.201-1.201-0.201-2.402-0.201-3.605c0.102-1.402,0.303-2.807,0.201-4.207
		c-0.201-1.504-0.803-3.008-1.902-4.108C71.982,4.539,71.281,5.141,71.684,5.541L71.684,5.541z"/>
	<path fill="#FFFFFF" d="M60.963,20.471c0.4,0.701,1.002,1.302,1.703,1.604c0.701,0.301,1.502,0.5,2.203,0.5
		c2.305,0.102,4.609-0.5,6.312-2.203c1.504,0.399,3.506,1.803,4.309,2.905c1.502,2.204,1.803,5.009,1.904,7.515v-0.102
		c0.1,2.104-0.102,7.014-0.805,8.918c-0.1,0.398-0.5,0.801-0.699,1.302H57.555V22.074C58.559,21.271,59.459,20.971,60.963,20.471"/>
	<path fill="#7ABEE6" d="M64.869,73.07c-1.402,0.4-1.902,0.4-3.105,0.301c-1.502-0.102-3.605-0.502-4.408-0.703
		c-0.199,0-0.398-0.299-0.398-0.5c0.299-4.008,2.104-23.846,2.904-30.057l1.402-3.006c2.506,0,5.01-0.301,7.414-1.002l5.812,2.705
		c1.1,9.918,2.303,23.145,3.104,30.057c0,0.4-0.199,0.701-0.5,0.902c-1.703,0.801-3.906,1.803-5.211,1.902c-0.5,0-0.9,0-1.4-0.1
		l-4.311-0.604L64.869,73.07z"/>
	<path fill="#211715" d="M61.162,39.606c2.506,0,5.111-0.302,7.516-1.002c0.602-0.201,0.301-1.002-0.199-0.902
		c-2.406,0.701-4.811,1.003-7.314,1.003C60.562,38.604,60.562,39.506,61.162,39.606L61.162,39.606z"/>
	<path fill="#211715" d="M59.258,42.11c-0.299,2.104-0.5,4.208-0.699,6.313c-0.303,2.805-0.604,5.711-0.803,8.516
		c-0.301,2.805-0.502,5.611-0.801,8.416c-0.201,2.004-0.402,4.008-0.502,6.012c0,0.301-0.102,0.6-0.102,1.002
		c0.102,0.9,1.203,0.9,1.904,1.002c0.9,0.199,1.803,0.299,2.705,0.4c0.801,0.1,1.604,0.199,2.504,0.1
		c0.502-0.1,0.902-0.201,1.402-0.301c0.602-0.199,0.301-1.002-0.199-0.902c-0.803,0.201-1.604,0.301-2.404,0.301
		c-0.902-0.1-1.805-0.199-2.604-0.301c-0.402-0.1-0.902-0.1-1.305-0.199c-0.301,0-0.602-0.1-0.9-0.201c-0.102,0-0.102,0-0.102-0.1
		s0-0.1,0-0.201c0-0.1,0-0.299,0-0.398c0.201-1.902,0.303-3.809,0.502-5.713c0.199-2.703,0.5-5.408,0.701-8.215
		c0.301-2.805,0.5-5.609,0.803-8.415c0.199-2.205,0.398-4.31,0.699-6.513c0-0.199,0-0.399,0.102-0.602c0-0.199-0.201-0.4-0.5-0.501
		C59.459,41.609,59.258,41.81,59.258,42.11L59.258,42.11z"/>
	<path fill="#211715" d="M65.871,73.471l2.605,0.4c0.602,0.1,1.201,0.201,1.701,0.201c0.502,0.1,0.902,0.1,1.404,0.1
		c0.301,0,0.602-0.1,1.002-0.201c1.604-0.4,3.004-1.102,4.508-1.803c0.4-0.201,0.602-0.5,0.803-0.801c0.1-0.303,0.1-0.604,0-0.902
		c-0.102-0.602-0.102-1.102-0.201-1.703c-0.299-2.705-0.5-5.41-0.801-8.115c-0.303-3.207-0.602-6.312-0.902-9.518
		c-0.301-3.107-0.6-6.213-1.002-9.319c0-0.4-0.1-0.701-0.1-1.103c0-0.199-0.201-0.4-0.502-0.5c-0.199,0-0.4,0.199-0.502,0.5
		c0.303,3.006,0.604,6.012,0.902,9.019c0.301,3.104,0.602,6.21,0.902,9.315c0.301,2.705,0.502,5.51,0.801,8.215
		c0.1,1.105,0.201,2.205,0.301,3.307c0,0.303,0.102,0.502-0.201,0.701c-0.299,0.201-0.699,0.301-1.102,0.502
		c-0.701,0.303-1.402,0.604-2.203,0.9c-0.602,0.301-1.303,0.402-1.904,0.502c-0.701,0-1.4-0.1-2.004-0.201l-3.205-0.398h-0.301
		c-0.201-0.102-0.5,0.1-0.602,0.301C65.471,73.17,65.672,73.371,65.871,73.471L65.871,73.471z"/>
	<path fill="#211715" d="M64.57,47.521c0.199,3.807,0.299,7.615,0.5,11.422c0.1,3.807,0.301,7.514,0.4,11.32
		c0,0.902,0.1,1.805,0.1,2.807c0,0.6,0.9,0.6,0.9,0c-0.1-2.404-0.197-4.709-0.197-7.113c-0.201-4.209-0.303-8.316-0.502-12.525
		c-0.102-2.002-0.201-3.905-0.301-5.909C65.371,46.92,64.469,46.92,64.57,47.521L64.57,47.521z"/>
	<path fill="#FFFFFF" d="M69.176,18.866c0-0.101,0-0.101,0-0.2c0-0.301-0.098-0.5-0.098-0.802c0.5-0.399,1-0.901,1.301-1.401
		c0,0,0.701-1.002,0.402-0.802c0.299,0,0.701,0,1.002-0.2c0.4-0.201,0.801-0.602,1-1.104c0.301-0.5,0.402-1.201,0.201-1.703
		c-0.102-0.301-0.4-0.5-0.701-0.5c-0.201-0.102-0.5,0-0.701,0.102l-0.301,0.199l-0.902-0.502c-0.701-0.4-1.502-1.603-1.703-2.305
		c-0.199-0.602-0.4-1.201-0.6-1.902c-1.104,1.102-2.605,1.803-4.209,2.204c-0.1,0-0.301,0-0.301-0.2V9.648
		c0-0.301,0.1-0.602,0.201-0.9V8.647c0,0,0,0-0.102,0c-1.102,0.802-2.205,1.603-3.307,2.304c-0.102,0.102-0.301,0.201-0.301,0.201
		l-0.199,0.102l0,0c0.1,0.9,0.1,1.902,0.199,2.705c0.1,1.502,0.502,2.904,1.504,3.807c0.699,0.602,1.502,1.102,2.402,1.201
		c-0.1,0.401-0.5,0.603-0.801,0.701c-0.5,0.2-1.502,0.401-2.004,0.603c0.4,0.7,1.002,1.302,1.703,1.603s1.504,0.502,2.205,0.502
		c2.203,0.1,4.607-0.502,6.211-2.104c-0.701-0.302-1.703-0.503-1.904-1.103C69.176,19.268,69.176,19.067,69.176,18.866z"/>
	<path fill="#211715" d="M63.467,16.764c0.301,0.199,0.701,0.3,1.002,0.3c0.199,0,0.4,0,0.5,0c0.102,0,0.102,0,0.201-0.101
		c0.102,0,0.102-0.1,0.201-0.1c0,0,0,0,0.1,0c-0.1,0.1,0,0,0,0c0.1,0,0.199-0.102,0.301-0.199c0.1-0.102,0.1-0.201,0-0.303
		c-0.102-0.2-0.301-0.4-0.602-0.301c-0.1,0-0.1,0.101-0.201,0.101h-0.1c0,0-0.102,0,0,0c0.1,0,0,0,0,0s0,0-0.102,0h-0.1h-0.1
		c-0.102,0,0,0,0,0l0,0c-0.102,0-0.102,0-0.201,0h-0.102h-0.1c0.1,0,0,0-0.1,0h-0.102c-0.102,0-0.102,0-0.201-0.101
		c-0.1,0,0.102,0,0,0l0,0h-0.1c-0.201-0.1-0.502-0.1-0.602,0.201C63.166,16.361,63.166,16.664,63.467,16.764L63.467,16.764
		L63.467,16.764z"/>
	<path fill="#211715" d="M65.672,13.156c-0.102-0.301,0-1.002,0.602-1.002c0.803,0.102,0.701,0.9,0.4,1.303
		C66.572,13.758,65.871,13.857,65.672,13.156z"/>
	<path fill="#211715" d="M61.162,12.957c-0.1-0.302,0-1.004,0.602-1.004c0.701,0.102,0.701,0.902,0.4,1.303
		C61.963,13.557,61.363,13.656,61.162,12.957z"/>
	<path fill="#211715" d="M63.367,13.656c-0.1,0.201-0.201,0.303-0.301,0.502c0,0.1-0.102,0.199-0.102,0.199c0,0.102,0,0.201,0,0.302
		s0.102,0.2,0.102,0.2c0.1,0.102,0.201,0.2,0.301,0.2s0.201,0,0.201,0h-0.102l0,0c0.102,0,0.199,0,0.301,0
		c0.199-0.101,0.301-0.399,0.199-0.603l0,0c-0.1-0.101-0.199-0.199-0.301-0.199c-0.1,0-0.1,0-0.199,0h0.102h-0.102h0.102
		c0,0,0,0-0.102,0l0.102,0.1c0,0,0,0-0.102-0.1l0.102,0.1l0,0v0.102l0,0v0.101l0,0v0.101c0,0,0,0,0-0.101v0.101
		c0-0.101,0.1-0.201,0.199-0.302s0.1-0.198,0.199-0.3c0.102-0.2,0.102-0.501-0.199-0.602l0,0c-0.102-0.102-0.199-0.102-0.301,0
		C63.568,13.557,63.467,13.656,63.367,13.656L63.367,13.656z"/>
	<path fill="#211715" d="M68.979,18.467c0.5-0.401,1.002-0.801,1.4-1.303c0.301-0.301,0.604-0.701,0.803-1.104
		c0.1-0.199,0.1-0.5-0.199-0.602c-0.303-0.101-0.502-0.101-0.604,0.201l0,0c-0.1,0.2-0.201,0.398-0.301,0.5l-0.1,0.102
		c0,0,0,0-0.102,0.101c0,0,0-0.101,0,0s-0.1,0.101-0.1,0.2c-0.201,0.199-0.4,0.4-0.602,0.602c-0.1,0.1-0.199,0.2-0.301,0.301
		c-0.1,0.101-0.1,0.101-0.201,0.201l-0.1,0.1c0,0-0.102,0.1,0,0c-0.102,0.1-0.201,0.199-0.201,0.3s0,0.2,0,0.302
		C68.576,18.467,68.777,18.566,68.979,18.467z"/>
	<path fill="#211715" d="M71.182,3.938c-1.004-0.802-2.305-1.304-3.607-1.403c-1.201-0.1-2.404,0-3.605,0.401
		c-1.104,0.3-2.004,0.901-2.807,1.702c-0.9,0.902-1.502,2.005-1.803,3.207c-0.301,1.402-0.4,2.805-0.102,4.309
		c0.102,0.199,0.303,0.4,0.604,0.301c0.199-0.102,0.398-0.301,0.299-0.602c-0.4-2.104-0.1-4.709,1.404-6.312
		c1.4-1.502,3.506-2.203,5.51-2.104c1.303,0.1,2.504,0.501,3.605,1.402c0.201,0.101,0.502,0.101,0.602-0.201
		C71.482,4.34,71.381,4.039,71.182,3.938z"/>
	<path fill="#211715" d="M67.375,18.266c-1.504,0.601-3.207,0.9-4.609,0.101c-0.701-0.302-1.303-0.901-1.703-1.503
		c-0.398-0.701-0.602-1.402-0.699-2.204c-0.102-1.103-0.102-2.204-0.201-3.206c0-0.602-0.902-0.602-0.902,0
		c0.201,1.902,0,4.008,0.902,5.711c0.801,1.502,2.604,2.504,4.309,2.604c1.102,0,2.104-0.199,3.105-0.602
		c0.201-0.1,0.4-0.301,0.301-0.601C67.875,18.266,67.674,18.166,67.375,18.266L67.375,18.266z"/>
	<path fill="#211715" d="M71.783,12.756c0.1-0.101,0.199-0.101,0.301-0.101h0.1l0,0c0,0,0.201,0.101,0.102,0c0,0,0.201,0.101,0.1,0
		l0.102,0.101c-0.102-0.101,0.1,0.101,0,0.101c0-0.101,0-0.101,0,0v0.101c0,0,0,0.2,0,0.101c0,0.101,0,0.3,0,0.399v0.102
		c0,0.1,0,0.1,0,0.199c0,0.101,0,0.102-0.102,0.201c0,0-0.1,0.201,0,0.101c-0.1,0.2-0.199,0.399-0.301,0.501c0,0,0,0-0.1,0.102l0,0
		l-0.102,0.1c-0.1,0.101-0.199,0.201-0.301,0.201c-0.1,0-0.1,0.1-0.199,0.1s0.1,0,0,0c-0.102,0-0.201,0.1-0.301,0.1s-0.1,0,0,0h-0.1
		c-0.102,0-0.102,0-0.201,0c-0.102,0-0.102,0,0,0H70.68h-0.1l0,0c-0.201-0.1-0.502,0-0.602,0.201
		c-0.102,0.2-0.102,0.501,0.199,0.602c0.502,0.199,1.002,0.199,1.504,0c0.5-0.2,0.9-0.602,1.201-1.002
		c0.502-0.701,0.803-2.004,0.201-2.806c-0.502-0.501-1.203-0.602-1.805-0.301C70.881,12.256,71.281,13.057,71.783,12.756
		L71.783,12.756z"/>
	<path fill="#211715" d="M67.574,7.945c0.201,0.902,0.502,1.703,0.902,2.506c0.4,0.701,0.9,1.502,1.604,2.004
		c0.5,0.301,1.002-0.502,0.5-0.803c-0.6-0.398-1.002-1.102-1.303-1.702c-0.102-0.302-0.299-0.603-0.4-0.901
		c-0.199-0.5-0.301-0.901-0.4-1.402C68.275,7.145,67.473,7.346,67.574,7.945L67.574,7.945z"/>
	<path fill="#211715" d="M67.674,7.445c-0.6,0.602-1.4,1.104-2.104,1.502c-0.4,0.201-0.801,0.303-1.201,0.502
		c-0.1,0-0.201,0.1-0.4,0.1h-0.102c-0.1,0-0.1,0.101,0.102,0.201c0-0.102,0.1-0.301,0.1-0.4s0.102-0.2,0.102-0.301
		c0.102-0.301,0.102-0.5-0.201-0.701c-0.199-0.102-0.398-0.102-0.602,0c-0.4,0.301-0.801,0.601-1.201,0.902
		c-0.803,0.601-1.604,1.102-2.404,1.603c-0.502,0.301,0,1.103,0.5,0.801c0.604-0.399,1.203-0.801,1.805-1.2
		c0.301-0.201,0.602-0.402,0.9-0.703c0.102-0.101,0.303-0.199,0.4-0.299c0.102-0.102,0.201-0.102,0.301-0.201
		c0,0,0.102-0.101,0.201-0.201h-0.301l0,0l-0.201-0.399c0,0.101-0.1,0.3-0.1,0.399c0,0.201-0.102,0.302-0.102,0.502
		c-0.1,0.301,0.102,0.602,0.402,0.802c0.299,0.101,0.6,0,0.9-0.101s0.602-0.201,0.902-0.301c1.102-0.4,2.203-1.103,3.105-1.904
		C68.777,7.646,68.076,7.045,67.674,7.445L67.674,7.445z"/>
	<path fill="#211715" d="M68.576,17.864c0.102,0.501,0.102,0.901,0.201,1.403c0.1,0.4,0.301,0.701,0.602,0.9
		c0.301,0.201,0.602,0.301,0.9,0.401c0.102,0.101,0.301,0.101,0.4,0.199c0.102,0,0.102,0,0.201,0.101h0.102c0,0,0,0,0.1,0
		c-0.1,0-0.1,0,0,0c0.199,0.102,0.5,0,0.602-0.199c0.102-0.201,0.102-0.502-0.201-0.603c-0.301-0.101-0.602-0.2-0.9-0.301
		c-0.102,0-0.102-0.101-0.201-0.101s0.102,0,0,0h-0.1c-0.102-0.1-0.201-0.1-0.4-0.199c0,0-0.1,0-0.1-0.101l0,0l0,0l-0.102-0.101
		c0,0,0.102,0.101,0,0c0,0-0.102-0.102,0,0c0-0.102-0.102-0.201-0.102-0.301c0-0.201-0.1-0.301-0.1-0.502l-0.102-0.701
		c0-0.199-0.201-0.399-0.5-0.5C68.777,17.465,68.576,17.564,68.576,17.864L68.576,17.864z"/>
	<path fill="#211715" d="M61.062,20.871c0.602-0.201,1.201-0.301,1.701-0.5c0.604-0.201,1.305-0.402,1.506-1.104
		c0.1-0.201-0.102-0.502-0.303-0.602c-0.199-0.101-0.5,0.1-0.6,0.301l0,0v0.1c0,0,0-0.1,0,0c0,0.102,0,0,0,0s0,0-0.102,0.102
		c-0.102,0.101,0,0,0,0h-0.102h-0.1c0,0-0.102,0,0,0c-0.201,0.101-0.5,0.2-0.701,0.2c-0.502,0.2-1.104,0.3-1.604,0.5
		c-0.199,0.101-0.4,0.302-0.301,0.603C60.562,20.871,60.762,20.971,61.062,20.871L61.062,20.871z"/>
	<path fill="#211715" d="M60.863,20.069c-0.703,0.2-1.303,0.399-2.004,0.701c-0.604,0.301-1.104,0.603-1.605,1.103
		c-0.199,0.2-0.199,0.5,0,0.6c0.201,0.201,0.502,0.201,0.604,0l0,0c0.199-0.198,0.398-0.398,0.699-0.5
		c0.201-0.2,0.502-0.301,0.701-0.4h0.102c0.1-0.1,0,0,0,0c0.1,0,0.1-0.1,0.201-0.1c0.1-0.1,0.301-0.1,0.398-0.2
		c0.301-0.101,0.703-0.2,1.002-0.401c0.201-0.1,0.4-0.3,0.301-0.601C61.363,20.069,61.062,19.969,60.863,20.069L60.863,20.069z"/>
	<path fill="#211715" d="M60.562,20.67c0.801,1.403,2.402,2.104,3.906,2.306c1.502,0.2,3.105,0,4.51-0.603
		c0.801-0.3,1.602-0.802,2.203-1.402c0.4-0.399-0.199-1.002-0.602-0.6c-1.303,1.2-3.006,1.702-4.709,1.803s-3.707-0.301-4.609-1.903
		C61.062,19.768,60.26,20.17,60.562,20.67L60.562,20.67z"/>
	<path fill="#211715" d="M71.082,20.871c0.701,0.2,1.402,0.502,2.004,0.9c0.701,0.4,1.201,0.902,1.803,1.402
		c0.502,0.603,0.902,1.303,1.203,2.104s0.5,1.704,0.701,2.604c0.1,1.002,0.199,2.004,0.199,3.006c0,0.502,0.803,0.602,0.902,0.101
		v-0.101l-0.902-0.1c0,1.303,0,2.504-0.1,3.807c0,1.402-0.201,2.705-0.5,4.107c-0.201,0.803-0.502,1.504-0.902,2.104
		c-0.301,0.503,0.5,0.902,0.801,0.503c0.4-0.603,0.701-1.304,0.902-2.005c0.201-0.602,0.301-1.303,0.398-2.004
		c0.201-1.502,0.303-3.006,0.303-4.407c0-0.701,0-1.304,0-2.005c0-0.5-0.803-0.602-0.902-0.1v0.1l0.902,0.101
		c-0.102-1.903-0.201-3.808-0.902-5.61c-0.301-0.901-0.801-1.703-1.303-2.504c-0.5-0.602-1.102-1.104-1.805-1.604
		c-0.801-0.502-1.602-0.9-2.504-1.203C70.68,19.868,70.48,20.67,71.082,20.871L71.082,20.871z"/>
	<path fill="#211715" d="M63.467,78.18c-0.502-1.703-1.803-3.207-3.605-3.207c-0.902,0-1.805,0.4-2.605,0.902
		c-0.701,0.398-1.303,1.002-1.703,1.703c-0.301,0.602-0.602,1.303-0.4,2.004c0.201,0.5,0.602,0.902,1.104,1.203
		c1.102,0.6,2.504,0.5,3.807,0.398c0.602,0,1.303-0.102,1.902-0.301c1.104-0.301,2.105-0.701,3.107-1.402
		c0.5-0.301,0-1.104-0.502-0.803c-0.701,0.502-1.504,0.902-2.305,1.105c-0.502,0.1-1.002,0.299-1.604,0.299
		c-1.102,0.102-2.305,0.201-3.307,0c-0.4-0.102-0.803-0.299-1.102-0.5c-0.102-0.102-0.201-0.201-0.201-0.4V79.08c0,0,0,0.102,0,0
		s0-0.102,0-0.199c0-0.1,0-0.201,0-0.301c0.201-0.701,0.602-1.203,1.104-1.703c0.6-0.502,1.201-0.801,1.902-1.002
		s1.604-0.102,2.203,0.398c0.602,0.504,1.104,1.305,1.305,2.105C62.764,78.881,63.568,78.68,63.467,78.18L63.467,78.18z"/>
	<path fill="#211715" d="M72.785,77.879c-1.002-1.605-2.805-2.404-4.709-2.205c-0.902,0.102-1.803,0.502-2.404,1.203
		c-0.301,0.4-0.602,0.701-0.803,1.102c-0.299,0.4-0.5,0.803-0.6,1.303c-0.303,0.801-0.303,1.803,0.301,2.404
		c0.5,0.502,1.301,0.701,2.002,0.803c1.904,0.1,3.809-0.402,5.512-1.303c1.002-0.502,1.902-1.203,2.805-1.904
		c0.4-0.301,0.502-0.801,0.502-1.303c0-0.5-0.301-1.002-0.701-1.303c-0.4-0.4-1.104,0.301-0.602,0.602
		c0.301,0.201,0.4,0.502,0.4,0.803c0,0.4-0.201,0.5-0.502,0.701c-0.701,0.5-1.402,1.002-2.104,1.402
		c-0.703,0.4-1.402,0.701-2.104,0.9c-0.803,0.201-1.605,0.301-2.307,0.402c-0.602,0-1.303,0-1.902-0.303
		c-0.5-0.301-0.602-0.803-0.5-1.303c0.199-0.803,0.6-1.504,1.102-2.205c0.4-0.5,0.902-1.002,1.502-1.102
		c1.703-0.5,3.406,0.201,4.408,1.604c0.1,0.199,0.402,0.301,0.602,0.199C72.785,78.379,72.883,78.08,72.785,77.879L72.785,77.879z"
		/>
	<path fill="#211715" d="M64.27,78.379c0.801-0.299,1.502-0.701,2.201-1.102c0.201-0.102,0.303-0.4,0.201-0.604
		c-0.1-0.199-0.398-0.301-0.6-0.199c-0.303,0.199-0.701,0.4-1.002,0.5c-0.201,0.104-0.303,0.201-0.502,0.201
		c-0.102,0-0.199,0.102-0.301,0.102l0,0h-0.102c0,0-0.1,0-0.1,0.1c-0.201,0.102-0.4,0.301-0.301,0.602
		C63.768,78.379,63.967,78.48,64.27,78.379L64.27,78.379z"/>
	<path fill="#211715" d="M12.369,38.305c-0.199,1.402-0.399,2.705-0.5,4.107c-0.4,3.105-0.803,6.111-1.203,9.217
		c-0.5,3.707-1.002,7.514-1.502,11.221c-0.4,3.406-0.901,6.814-1.303,10.221c-0.101,0.701-0.201,1.303-0.301,2.004
		c0,0.299-0.102,0.6-0.102,0.9c0,0.102,0,0.102,0,0.201v0.1c0-0.1,0,0,0,0l-0.101,0.4c-0.1,0.803-0.2,1.504-0.301,2.305
		c0,0.1,0,0.201,0,0.301c-0.101,0.201,0.101,0.502,0.301,0.602h0.101h8.016c0.602,0,0.602-0.902,0-0.902H7.459l0.402,0.604
		c0.299-1.803,0.5-3.607,0.7-5.41c0.399-3.307,0.901-6.512,1.302-9.818c0.502-3.807,1.002-7.514,1.504-11.322
		c0.399-3.205,0.801-6.412,1.201-9.617c0.2-1.604,0.401-3.307,0.602-4.91v-0.101c0-0.2-0.199-0.401-0.502-0.501
		C12.57,37.902,12.369,38.103,12.369,38.305L12.369,38.305z"/>
	<path fill="#FFFFFF" d="M40.822,79.482c-0.701-6.111-6.711-70.635-6.812-72.137c-1.303,0-17.332,0-22.943,0
		c0.602,5.812,6.312,67.627,6.812,72.137H40.822"/>
	<path fill="#211715" d="M41.225,79.482c-0.102-1.104-0.199-2.205-0.301-3.406c-0.199-2.004-0.4-4.008-0.602-6.012
		c-0.301-2.705-0.5-5.311-0.801-8.016c-0.303-3.105-0.602-6.211-0.902-9.318c-0.301-3.305-0.602-6.611-0.902-9.918
		s-0.6-6.612-0.9-9.918c-0.301-3.008-0.602-6.111-0.9-9.117c-0.201-2.605-0.502-5.21-0.701-7.716c-0.201-1.902-0.4-3.806-0.502-5.71
		c-0.1-1.002-0.201-1.903-0.301-2.905c0-0.101,0-0.101,0-0.2c0-0.201-0.199-0.4-0.5-0.5c-2.305,0-4.51,0-6.812,0H15.877h-4.909
		c-0.201,0-0.399,0.198-0.501,0.5c0.102,1.102,0.199,2.104,0.3,3.207c0.201,1.901,0.401,3.807,0.502,5.811
		c0.2,2.604,0.5,5.109,0.701,7.715c0.301,3.006,0.601,6.011,0.801,9.018c0.302,3.205,0.603,6.411,0.902,9.719
		c0.301,3.205,0.602,6.512,0.901,9.719c0.301,3.004,0.602,6.111,0.9,9.117c0.201,2.604,0.502,5.309,0.701,7.914
		c0.201,2.004,0.4,4.008,0.602,6.012c0.102,1.201,0.201,2.404,0.301,3.605c0,0.102,0,0.301,0,0.402c0,0.197,0.201,0.398,0.502,0.5
		c2.303,0,4.508,0,6.812,0h16.23c0.6,0,0.6-0.902,0-0.902H17.68l0.5,0.502c-0.102-0.902-0.199-1.904-0.301-2.805
		c-0.199-1.807-0.301-3.707-0.5-5.514c-0.201-2.504-0.502-5.01-0.701-7.514c-0.301-3.006-0.602-5.91-0.803-8.916
		c-0.301-3.207-0.602-6.412-0.9-9.619c-0.301-3.305-0.602-6.512-0.902-9.818c-0.301-3.105-0.602-6.111-0.9-9.218
		c-0.301-2.704-0.502-5.409-0.803-8.115c-0.199-2.104-0.399-4.207-0.602-6.312c-0.1-1.303-0.199-2.604-0.4-3.908
		c0-0.199,0-0.299,0-0.5l-0.5,0.5h9.818h10.42c0.9,0,1.803,0,2.705,0l-0.5-0.5c0.1,0.701,0.1,1.402,0.197,2.104l0.502,5.01
		l0.701,7.312c0.301,3.007,0.602,5.912,0.801,8.917c0.303,3.207,0.604,6.513,0.902,9.719c0.301,3.308,0.604,6.612,0.902,10.021
		c0.301,3.205,0.602,6.311,0.9,9.518c0.301,2.805,0.502,5.609,0.803,8.416c0.199,2.203,0.398,4.408,0.602,6.512
		c0.1,1.402,0.299,2.705,0.4,4.107c0,0.201,0,0.4,0.1,0.502C40.422,79.982,41.324,79.982,41.225,79.482L41.225,79.482z"/>
	<path fill="#FFFFFF" d="M72.785,37.101c0.1,0,0.199-0.101,0.301-0.101c0.5,0,0.9,0.2,1.201,0.603
		c0.301,0.601,0.502,1.202,0.502,1.903c0,0.801-0.301,1.902-0.902,2.504c-0.1,0.101-0.199,0.101-0.301,0.101
		c-0.199,0-0.398-0.101-0.5-0.2l-0.4-0.301l-0.502-2.404c-0.199,0-0.301,0-0.5,0c-0.102,0-0.301,0-0.4-0.101
		c-0.201-0.101-0.201-0.3-0.201-0.5c0-0.201,0.1-0.302,0.301-0.502C71.684,37.603,72.184,37.301,72.785,37.101z"/>
	<path fill="#FFDA71" d="M68.777,45.316c0.1,0.502,0,1.002-0.4,1.303c-0.4,0.502-1.203,0.902-1.604,1.104
		c-1.904,0.9-3.908,1.503-6.012,1.902c-0.4,0.103-0.803,0.103-1.201,0.201c-2.205,0.199-4.51-0.4-6.312-1.604
		c-0.201-0.102-0.502-0.301-0.602-0.602c-0.1-0.302-0.199-0.5-0.1-0.802l-1.504-0.101c-0.701-0.102-1.402-0.2-2.104-0.401
		c-0.303,0-0.502-0.199-0.703-0.399c-0.199-0.199-0.1-0.603-0.1-0.9l2.203-12.725c0.402-2.104,0.701-4.107,1.104-6.213
		c0.102-0.199,0.201-0.5,0.301-0.701s0.301-0.301,0.5-0.399l2.705-1.304l8.316-1.303h1.402c1.502,0,2.805,1.002,3.605,2.205
		c0.803,1.202,1.104,2.704,1.402,4.107l3.008,13.727c0.197,0.399,0,0.902-0.402,1.102l0,0l-2.203,1.504
		c-0.201,0.1-0.502,0.199-0.602,0L68.777,45.316z"/>
	<path fill="#FFFFFF" d="M62.965,23.476c0.102-0.101,0.102-0.2,0.201-0.302c0.801-1.402-1.203-1.803-2.104-1.303
		c-0.102,0-0.199,0.102-0.301,0.201c-0.1,0.1-0.1,0.301-0.199,0.398c0,0.303,0.1,0.604,0.199,0.902
		C61.062,24.678,62.365,24.178,62.965,23.476z"/>
	<path fill="#211715" d="M63.268,23.776c0.5-0.501,0.801-1.403,0.199-2.005c-0.4-0.398-1.102-0.602-1.604-0.5
		c-0.301,0-0.602,0.102-0.803,0.199c-0.199,0.101-0.398,0.201-0.5,0.301c-0.199,0.201-0.301,0.4-0.4,0.602c0,0.301,0,0.602,0,0.803
		c0,0.199,0.1,0.5,0.201,0.701c0.199,0.301,0.398,0.601,0.801,0.7C61.963,24.778,62.865,24.377,63.268,23.776
		c0.199-0.201,0.199-0.501,0-0.603c-0.201-0.199-0.504-0.199-0.602,0l0,0l-0.102,0.102l-0.102,0.1c0,0,0.102-0.1,0,0l0,0
		c0,0,0,0-0.1,0c-0.102,0-0.102,0.102-0.201,0.102h-0.1c0,0-0.102,0,0,0c0.1,0,0,0-0.102,0h-0.1c-0.1,0-0.1,0-0.199,0s0.1,0,0,0
		h-0.102h-0.102c-0.1,0,0.102,0,0,0c0,0,0,0-0.1,0l0,0c-0.102,0,0,0,0,0l-0.102-0.102c0,0,0.102,0.102,0,0c0,0,0-0.1-0.1-0.1
		c0,0,0,0.1,0,0l0,0c0,0,0-0.102-0.102-0.102l0,0c0,0,0,0.102,0,0v-0.1c0-0.102-0.1-0.201-0.1-0.301v-0.102c0,0,0,0,0-0.101
		c0,0.101,0,0,0,0v-0.101c0,0,0,0,0-0.101c0,0,0-0.1,0,0c0,0.101,0,0,0,0v-0.1c0,0.1,0,0,0-0.101l0,0l0,0c-0.1,0,0,0,0,0
		s-0.1,0.101,0,0c0.1,0,0.1-0.101,0.199-0.101c0.102,0-0.1,0,0,0c0,0,0,0,0.102,0s0.102,0,0.199,0h0.102h0.102c-0.102,0-0.102,0,0,0
		c0,0,0,0,0.1,0s0.199,0,0.301,0c0.1,0,0.1,0,0.199,0c0.102,0,0,0,0,0h0.102c0.102,0,0.201,0.101,0.301,0.101s0,0,0,0s0,0,0.1,0
		l0.102,0.101c0.1,0-0.102-0.101,0,0c0,0,0,0,0.1,0.1c0,0,0,0,0,0.101V22.37l0,0c0,0,0,0,0,0.101s0-0.101,0,0v0.101v-0.101l0,0
		v0.101l0,0c0,0,0-0.101,0,0s0,0.101-0.1,0.201c0,0.101,0-0.101,0,0c0,0,0,0.101-0.102,0.101l-0.1,0.1c0,0,0,0.102,0,0l-0.1,0.102
		c-0.201,0.2-0.201,0.5,0,0.602C62.865,23.977,63.166,23.977,63.268,23.776L63.268,23.776z"/>
	<path fill="#211715" d="M66.873,30.989c0,0.802-0.1,1.603-0.199,2.404c-0.201,0.702-0.201,1.504-0.201,2.204
		c0,1.003,0.301,1.904,0.502,2.906c0.199,1.203,0.5,2.403,0.701,3.707c0.102,0.601,0.199,1.301,0.4,1.903
		c0.1,0.5,0.199,1.103,0.301,1.604c0,0.801-0.701,1.201-1.303,1.602c-0.701,0.402-1.504,0.701-2.305,1.002
		c-1.703,0.701-3.508,1.104-5.311,1.203c-1.703,0.1-3.406-0.201-4.91-1.002c-0.398-0.201-0.801-0.4-1.102-0.701
		c-0.301-0.201-0.5-0.502-0.4-0.902c0-1.002,0-2.004,0-3.006c0-4.007,0-8.014,0-12.021c0-0.502,0-1.002,0-1.504
		c0-0.602-0.9-0.602-0.9,0c-0.102,4.209-0.102,8.316-0.102,12.523c0,1.002,0,2.105,0,3.107c0,0.5,0,1,0.102,1.402
		c0.1,0.399,0.4,0.801,0.801,1.002c1.504,1.002,3.207,1.602,5.01,1.803c1.904,0.201,3.807-0.201,5.611-0.701
		c0.9-0.301,1.803-0.602,2.705-1.002c0.699-0.301,1.4-0.701,2.104-1.102c0.701-0.502,1.002-1.402,0.9-2.205
		c-0.102-0.603-0.199-1.103-0.299-1.703c-0.201-1.303-0.502-2.706-0.803-4.008c-0.199-0.9-0.4-1.902-0.602-2.806
		c-0.201-0.7-0.201-1.403-0.102-2.104c0.102-0.801,0.303-1.502,0.303-2.305c0-0.399,0.1-0.9,0-1.303
		C67.775,30.389,66.873,30.389,66.873,30.989L66.873,30.989z"/>
	<path fill="#211715" d="M54.75,23.275c-0.9,0.4-1.703,0.9-2.604,1.302c-0.602,0.302-1.104,1.003-1.203,1.703
		c-0.4,1.904-0.701,3.808-1,5.711c-0.703,3.808-1.305,7.615-2.004,11.423c-0.102,0.5-0.201,1.002-0.303,1.604
		c-0.1,0.5,0,0.9,0.303,1.301c0.299,0.301,0.801,0.402,1.301,0.502c0.502,0.1,1.002,0.199,1.604,0.301
		c0.201,0.1,0.502-0.102,0.604-0.301c0.1-0.201-0.102-0.502-0.301-0.602c-0.4-0.101-0.803-0.101-1.303-0.199
		c-0.4-0.102-0.803-0.201-1.104-0.301c-0.301-0.201-0.102-0.603-0.102-0.803l0.201-1.402l0.902-5.411
		c0.6-3.507,1.201-7.113,1.902-10.619c0.102-0.701,0.102-1.604,0.803-2.004c0.9-0.501,1.803-0.902,2.705-1.304
		C55.752,23.776,55.252,22.975,54.75,23.275L54.75,23.275z"/>
	<path fill="#211715" d="M57.756,18.967c0-0.602,0.701-0.901,1.203-0.602c0.5,0.301,0.701,0.902,0.4,1.402
		c-0.201,0.301-0.4,0.502-0.502,0.902c0,0.301,0.102,0.602,0.201,0.9c0.199,0.502,0.398,1.002,0.5,1.504
		c0.199,0.602,1.002,0.301,0.9-0.201c-0.1-0.5-0.301-0.9-0.5-1.402c0-0.1-0.1-0.199-0.1-0.301c-0.102-0.1-0.102-0.301-0.102-0.4
		s0.102-0.199,0.199-0.301c0.102-0.1,0.201-0.301,0.201-0.399c0.201-0.603,0.201-1.304-0.201-1.804
		c-0.398-0.602-1.102-0.901-1.803-0.803c-0.801,0.102-1.502,0.803-1.502,1.604C56.855,19.568,57.756,19.568,57.756,18.967
		L57.756,18.967z"/>
	<path fill="#211715" d="M60.26,22.373c-0.301,0.1-0.5,0.2-0.801,0.2c-0.1,0-0.201,0.101-0.301,0.201
		c-0.1,0.2-0.1,0.501,0.201,0.601h0.1c0.102,0,0.201,0,0.201,0c0.299,0,0.5-0.1,0.801-0.199c0.102,0,0.201-0.101,0.301-0.2
		c0.102-0.101,0.102-0.201,0-0.302C60.762,22.473,60.562,22.373,60.26,22.373L60.26,22.373L60.26,22.373z"/>
	<path fill="#FFFFFF" d="M58.256,21.271c0.4,0.4,0.803,0.802,1.104,1.302c0.1,0.201,0.201,0.401,0.1,0.603
		c-0.199,0.701-0.801,0.802-1.301,0.5c-0.201,0.602-0.803,0.802-1.303,0.901h-0.102c-0.102,0.302-0.301,0.601-0.602,0.701
		c-0.701,0.302-1.604,0-1.902-0.701c0-0.101-0.102-0.2-0.102-0.301c-0.201-0.701,0-1.401,0.5-1.804
		c0.301-0.301,0.502-0.602,0.701-0.901c0.502-0.601,1.402-1.103,2.205-0.7C57.756,20.971,58.057,21.071,58.256,21.271z"/>
	<path fill="#211715" d="M57.857,21.571c0.199,0.2,0.398,0.401,0.6,0.702c0.201,0.199,0.402,0.4,0.502,0.701
		c0,0.199,0,0.301-0.201,0.4c-0.199,0-0.301,0-0.5-0.101s-0.502,0-0.602,0.2v0.1c-0.201,0.701-1.203,0.401-1.402,1.002
		c-0.201,0.502-0.9,0.602-1.303,0.301c-0.5-0.301-0.602-1.102-0.4-1.603c0.1-0.302,0.4-0.501,0.602-0.804
		c0.201-0.299,0.4-0.5,0.602-0.801c0.301-0.299,0.602-0.399,1.002-0.5C57.254,21.172,57.656,21.373,57.857,21.571
		c0.398,0.401,1.102-0.3,0.6-0.601c-0.701-0.602-1.502-0.803-2.303-0.502c-0.402,0.201-0.701,0.4-1.002,0.701
		s-0.402,0.701-0.701,0.902c-0.301,0.301-0.502,0.602-0.703,1.002c-0.1,0.4-0.199,0.801-0.1,1.201
		c0.1,0.802,0.701,1.402,1.402,1.604c0.803,0.201,1.904-0.199,2.104-1.102l-0.102,0.2l0,0l-0.199,0.101
		c0.701-0.201,1.402-0.502,1.703-1.303l-0.701,0.301c0.4,0.199,0.801,0.199,1.203,0.1c0.398-0.1,0.699-0.399,0.801-0.801
		c0.199-0.502-0.102-1.002-0.4-1.402c-0.301-0.401-0.602-0.701-1.002-1.104C58.057,20.57,57.455,21.172,57.857,21.571z"/>
	<path fill="#211715" d="M69.176,45.217c0.201,0.502,0.703,0.602,1.104,0.301c0.201-0.102,0.502-0.301,0.703-0.4l0.699-0.502
		c0.4-0.301,1.004-0.6,1.303-0.9c0.4-0.399,0.301-1.002,0.201-1.502l-1.604-7.015c-0.502-2.304-1.002-4.608-1.504-7.013
		c-0.4-1.904-1.102-4.008-2.705-5.21c-0.801-0.603-1.703-0.901-2.705-1.003c-0.5,0-0.9,0-1.4,0c-0.602,0-0.602,0.902,0,0.902
		c0.9,0,2.004-0.102,2.904,0.4c1.604,0.802,2.305,2.505,2.807,4.107c0.5,2.004,0.9,4.106,1.4,6.11l1.404,6.312l0.4,1.805
		l0.199,0.902c0,0.199,0.199,0.5,0,0.601c-0.199,0.201-0.4,0.302-0.602,0.399l-0.701,0.502l-0.701,0.5
		c-0.102,0.101-0.201,0.199-0.301,0.199c-0.201,0.103-0.1,0,0,0.103l0.1,0.2v-0.102c-0.1-0.201-0.301-0.4-0.602-0.301
		C69.277,44.717,69.078,44.916,69.176,45.217L69.176,45.217z"/>
	<path fill="#FFFFFF" d="M73.385,39.205c-0.4,0-1.402,0-1.803,0c-0.1,0-0.301,0-0.4-0.101c-0.199-0.101-0.199-0.3-0.199-0.5
		c0-0.201,0.1-0.302,0.299-0.502c0.502-0.601,1.104-1.003,1.904-1.103L73.385,39.205z"/>
	<path fill="#211715" d="M72.785,38.705c-0.4,0-0.803,0-1.102,0c-0.102,0-0.102,0-0.201,0l0,0c0-0.101,0.1-0.201,0.201-0.302
		c0.398-0.501,1.002-0.901,1.602-1.002c0.602-0.101,0.902,0.601,1.002,1.103c0.201,0.602,0.102,1.303,0,1.903
		c-0.1,0.399-0.199,0.701-0.4,1.002c-0.1,0.101-0.1,0.2-0.301,0.3c-0.1,0-0.199,0-0.398,0c-0.502-0.3-1.004,0.502-0.502,0.803
		c0.199,0.101,0.4,0.101,0.701,0.101c0.199,0,0.5,0,0.701-0.101c0.4-0.199,0.701-0.803,0.801-1.201
		c0.4-0.902,0.502-1.904,0.201-2.807c-0.201-0.9-0.803-1.804-1.805-1.804c-0.5,0-1.002,0.201-1.402,0.501
		c-0.4,0.301-0.801,0.602-1.102,1.002c-0.301,0.502-0.301,1.202,0.201,1.504c0.5,0.299,1.201,0.199,1.803,0.199
		C73.385,39.606,73.385,38.705,72.785,38.705L72.785,38.705z"/>
</g>
</svg>
