<?xml version="1.0" encoding="utf-8"?>
<!-- Generator: Adobe Illustrator 16.0.0, SVG Export Plug-In . SVG Version: 6.00 Build 0)  -->
<!DOCTYPE svg PUBLIC "-//W3C//DTD SVG 1.1//EN" "http://www.w3.org/Graphics/SVG/1.1/DTD/svg11.dtd">
<svg version="1.1" id="Layer_1" xmlns="http://www.w3.org/2000/svg" xmlns:xlink="http://www.w3.org/1999/xlink" x="0px" y="0px"
	 width="85px" height="85px" viewBox="0 0 85 85" enable-background="new 0 0 85 85" xml:space="preserve">
<g>
	<path fill="#433C4F" d="M3.246,22.873L42.5,42.499l39.256-19.626L42.5,3.245L3.246,22.873z"/>
	<path fill="#433C4F" d="M68.67,29.414v19.627c0,3.613-2.926,6.543-6.543,6.543H22.871c-3.613,0-6.541-2.93-6.541-6.543V29.414
		H68.67z"/>
	<path fill="#FFCA4F" d="M42.5,16.33c3.611,0,6.543,2.931,6.543,6.543c0,3.609-2.932,6.541-6.543,6.541
		c-3.609,0-6.543-2.932-6.543-6.541C35.957,19.261,38.889,16.33,42.5,16.33 M58.855,62.127H65.4v13.084h-6.545V62.127z"/>
	<path fill="#010101" d="M68.67,82.5c-0.273,0-0.535-0.15-0.666-0.412l-3.064-6.133h-2.066v5.801c0,0.41-0.334,0.744-0.744,0.744
		c-0.412,0-0.744-0.334-0.744-0.744v-5.801h-2.066l-3.064,6.133c-0.186,0.369-0.633,0.518-1,0.334
		c-0.367-0.186-0.516-0.631-0.332-0.998l3.191-6.389V62.127c0-0.41,0.334-0.744,0.744-0.744h2.527V56.33H49.043
		c-0.41,0-0.744-0.334-0.744-0.744c0-0.412,0.334-0.746,0.744-0.746h12.342V33.89l-18.551,9.276c-0.209,0.104-0.455,0.104-0.664,0
		L17.076,30.62v18.423c0,3.195,2.602,5.797,5.799,5.797h13.084c0.41,0,0.744,0.334,0.744,0.746c0,0.41-0.332,0.744-0.744,0.744
		H22.875c-4.02,0-7.289-3.271-7.289-7.287V29.875L2.912,23.54C2.66,23.414,2.5,23.155,2.5,22.874c0-0.282,0.16-0.54,0.412-0.666
		l13.086-6.542c0.367-0.185,0.814-0.035,0.998,0.333c0.186,0.368,0.035,0.814-0.332,0.999L4.91,22.875l11.717,5.857
		c0.025,0.011,0.047,0.022,0.07,0.035l25.805,12.901l17.941-8.971l-11.797-5.912c-1.297,2.026-3.566,3.374-6.145,3.374
		c-4.02,0-7.289-3.27-7.289-7.286c0-4.019,3.271-7.287,7.289-7.287s7.285,3.269,7.285,7.287c0,0.909-0.166,1.778-0.473,2.582
		l12.791,6.41l6.193-3.097c0.025-0.015,0.051-0.027,0.078-0.04l11.713-5.855l-11.754-5.877c-0.367-0.185-0.516-0.631-0.332-0.999
		s0.631-0.518,0.998-0.333l13.086,6.542c0.252,0.126,0.412,0.384,0.412,0.666s-0.16,0.54-0.412,0.666l-12.674,6.337v19.167
		c0,3.766-2.873,6.875-6.541,7.248v5.092h2.525c0.412,0,0.746,0.334,0.746,0.744v12.908l3.189,6.389
		c0.186,0.367,0.035,0.812-0.334,0.998C68.896,82.475,68.781,82.5,68.67,82.5z M62.129,74.467h2.525V62.873H59.6v11.594H62.129z
		 M62.873,33.145v21.646c2.846-0.365,5.053-2.807,5.053-5.75V30.62L62.873,33.145z M42.502,17.074c-3.199,0-5.799,2.602-5.799,5.799
		c0,3.195,2.6,5.797,5.799,5.797c1.996,0,3.762-1.016,4.805-2.558l-5.139-2.574c-0.367-0.186-0.518-0.633-0.332-0.999
		c0.186-0.368,0.631-0.517,0.998-0.332l5.141,2.575c0.211-0.599,0.324-1.241,0.324-1.91C48.299,19.675,45.697,17.074,42.502,17.074z
		 M43.318,56.33h-1.637c-0.41,0-0.744-0.334-0.744-0.744c0-0.412,0.334-0.746,0.744-0.746h1.637c0.41,0,0.744,0.334,0.744,0.746
		C44.062,55.996,43.729,56.33,43.318,56.33z M22.875,13.803c-0.273,0-0.537-0.15-0.668-0.412c-0.184-0.368-0.035-0.814,0.334-0.999
		l19.627-9.813c0.209-0.105,0.455-0.105,0.664,0l19.627,9.813c0.367,0.185,0.52,0.631,0.334,0.999s-0.631,0.517-1,0.333L42.5,4.077
		l-19.295,9.647C23.1,13.778,22.986,13.803,22.875,13.803z"/>
</g>
</svg>
