<?xml version="1.0" encoding="utf-8"?>
<!-- Generator: Adobe Illustrator 16.0.0, SVG Export Plug-In . SVG Version: 6.00 Build 0)  -->
<!DOCTYPE svg PUBLIC "-//W3C//DTD SVG 1.1//EN" "http://www.w3.org/Graphics/SVG/1.1/DTD/svg11.dtd">
<svg version="1.1" id="Layer_1" xmlns="http://www.w3.org/2000/svg" xmlns:xlink="http://www.w3.org/1999/xlink" x="0px" y="0px"
	 width="85px" height="85px" viewBox="0 0 85 85" enable-background="new 0 0 85 85" xml:space="preserve">
<g>
	<g enable-background="new    ">
		<path fill="#FFF200" d="M33.618,81.83h-9.615V20.541c-2.314,2.204-5.348,4.424-9.115,6.629c-3.753,2.205-7.13,3.862-10.132,4.972
			v-9.302c5.379-2.533,10.085-5.598,14.103-9.194c4.019-3.596,6.88-7.083,8.553-10.475h6.191v78.66H33.618z"/>
	</g>
	<g enable-background="new    ">
		<path d="M34.272,82.5H23.333V22.057c-2.203,1.919-4.924,3.829-8.106,5.691c-3.769,2.214-7.213,3.904-10.238,5.022l-0.902,0.333
			v-10.69l0.385-0.181c5.305-2.498,9.995-5.556,13.941-9.086c3.958-3.542,6.783-6.999,8.398-10.272L26.995,2.5h7.277V82.5z
			 M24.673,81.159h8.26V3.84h-5.109c-1.716,3.316-4.579,6.78-8.518,10.304c-3.946,3.533-8.614,6.599-13.88,9.118v7.905
			c2.729-1.084,5.793-2.62,9.123-4.575c3.664-2.144,6.689-4.343,8.991-6.537l1.133-1.078V81.159z"/>
	</g>
	<g enable-background="new    ">
		<path fill="#FFF200" d="M80.26,81.83h-9.615V20.541c-2.314,2.204-5.347,4.424-9.115,6.629c-3.753,2.205-7.13,3.862-10.131,4.972
			v-9.302c5.378-2.533,10.084-5.598,14.103-9.194c4.018-3.596,6.879-7.083,8.552-10.475h6.191v78.66H80.26z"/>
	</g>
	<g enable-background="new    ">
		<path d="M80.914,82.5H69.975V22.057c-2.204,1.919-4.923,3.829-8.106,5.691c-3.769,2.214-7.212,3.904-10.238,5.022l-0.902,0.333
			v-10.69l0.385-0.181c5.305-2.498,9.996-5.556,13.941-9.086c3.958-3.543,6.784-6.999,8.397-10.272L73.637,2.5h7.277V82.5z
			 M71.314,81.159h8.26V3.84h-5.109c-1.717,3.315-4.579,6.78-8.517,10.304c-3.947,3.532-8.615,6.599-13.88,9.118v7.905
			c2.729-1.083,5.793-2.619,9.121-4.575c3.666-2.145,6.69-4.343,8.992-6.537l1.133-1.078V81.159z"/>
	</g>
</g>
</svg>
