<?xml version="1.0" encoding="utf-8"?>
<!-- Generator: Adobe Illustrator 16.0.0, SVG Export Plug-In . SVG Version: 6.00 Build 0)  -->
<!DOCTYPE svg PUBLIC "-//W3C//DTD SVG 1.1//EN" "http://www.w3.org/Graphics/SVG/1.1/DTD/svg11.dtd">
<svg version="1.1" id="Layer_1" xmlns="http://www.w3.org/2000/svg" xmlns:xlink="http://www.w3.org/1999/xlink" x="0px" y="0px"
	 width="85px" height="85px" viewBox="0 0 85 85" enable-background="new 0 0 85 85" xml:space="preserve">
<g>
	<path fill="#FFFAF1" d="M50.729,20.388H34.271v-10.03c0-2.17,1.758-3.929,3.928-3.929H46.8c2.171,0,3.933,1.759,3.933,3.929v10.029
		L50.729,20.388L50.729,20.388z"/>
	
		<path fill="none" stroke="#60373B" stroke-width="3.9293" stroke-linecap="round" stroke-linejoin="round" stroke-miterlimit="10" d="
		M50.729,20.388H34.271v-10.03c0-2.17,1.758-3.929,3.928-3.929H46.8c2.171,0,3.933,1.759,3.933,3.929v10.029L50.729,20.388
		L50.729,20.388z"/>
	<path fill="#A7C0CF" d="M9.944,46.223c0-17.979,14.576-32.554,32.555-32.554c17.979,0,32.554,14.573,32.554,32.554
		c0,17.981-14.574,32.553-32.554,32.553C24.521,78.775,9.944,64.204,9.944,46.223"/>
	
		<path fill="none" stroke="#60373B" stroke-width="3.9293" stroke-linecap="round" stroke-linejoin="round" stroke-miterlimit="10" d="
		M9.944,46.223c0-17.979,14.576-32.554,32.555-32.554c17.979,0,32.554,14.573,32.554,32.554c0,17.981-14.574,32.553-32.554,32.553
		C24.521,78.775,9.944,64.204,9.944,46.223L9.944,46.223z"/>
	<path fill="#CFD9DA" d="M17.608,46.223c0-13.747,11.145-24.889,24.889-24.889c13.748,0,24.89,11.143,24.89,24.889
		c0,13.748-11.144,24.892-24.89,24.892S17.608,59.97,17.608,46.223"/>
	
		<path fill="none" stroke="#60373B" stroke-width="3.9293" stroke-linecap="round" stroke-linejoin="round" stroke-miterlimit="10" d="
		M17.608,46.223c0-13.747,11.145-24.889,24.889-24.889c13.748,0,24.89,11.143,24.89,24.889c0,13.748-11.144,24.892-24.89,24.892
		S17.608,59.97,17.608,46.223L17.608,46.223z"/>
	<path fill="#FEDD7E" d="M36.554,46.223c0-3.284,2.662-5.944,5.945-5.944c3.28,0,5.942,2.661,5.942,5.944
		c0,3.281-2.662,5.945-5.942,5.945C39.216,52.169,36.554,49.505,36.554,46.223"/>
	
		<path fill="none" stroke="#60373B" stroke-width="3.9293" stroke-linecap="round" stroke-linejoin="round" stroke-miterlimit="10" d="
		M36.554,46.223c0-3.284,2.662-5.944,5.945-5.944c3.28,0,5.942,2.661,5.942,5.944c0,3.281-2.662,5.945-5.942,5.945
		C39.216,52.169,36.554,49.505,36.554,46.223L36.554,46.223z M42.499,40.278V30.157 M36.554,46.223H26.435 M14.647,78.777
		l6.092-8.342 M65.521,23.203l4.83-4.829"/>
	<path fill="#CFD9DA" d="M79.432,9.993L78.73,9.292c-4.094-4.092-10.729-4.092-14.818,0l-1.322,1.322l15.52,15.519l1.322-1.32
		C83.521,20.72,83.521,14.086,79.432,9.993"/>
	
		<path fill="none" stroke="#60373B" stroke-width="3.9293" stroke-linecap="round" stroke-linejoin="round" stroke-miterlimit="10" d="
		M79.432,9.993L78.73,9.292c-4.094-4.092-10.729-4.092-14.818,0l-1.322,1.322l15.52,15.519l1.322-1.32
		C83.521,20.72,83.521,14.086,79.432,9.993L79.432,9.993z M19.478,23.221l-4.83-4.831"/>
	<path fill="#CFD9DA" d="M6.271,9.31l-0.703,0.702c-4.09,4.092-4.09,10.726,0,14.818l1.322,1.319l15.52-15.521l-1.32-1.321
		C16.995,5.219,10.36,5.219,6.271,9.31"/>
	
		<path fill="none" stroke="#60373B" stroke-width="3.9293" stroke-linecap="round" stroke-linejoin="round" stroke-miterlimit="10" d="
		M6.271,9.31l-0.703,0.702c-4.09,4.092-4.09,10.726,0,14.818l1.322,1.319l15.52-15.521l-1.32-1.321
		C16.995,5.219,10.36,5.219,6.271,9.31z M70.352,78.777l-6.095-8.342"/>
</g>
</svg>
