<?xml version="1.0" encoding="utf-8"?>
<!-- Generator: Adobe Illustrator 16.0.0, SVG Export Plug-In . SVG Version: 6.00 Build 0)  -->
<!DOCTYPE svg PUBLIC "-//W3C//DTD SVG 1.1//EN" "http://www.w3.org/Graphics/SVG/1.1/DTD/svg11.dtd">
<svg version="1.1" id="Layer_1" xmlns="http://www.w3.org/2000/svg" xmlns:xlink="http://www.w3.org/1999/xlink" x="0px" y="0px"
	 width="85px" height="85px" viewBox="0 0 85 85" enable-background="new 0 0 85 85" xml:space="preserve">
<g>
	<g>
		<path fill="#F2F2F2" d="M78.381,16.283H6.619v45.782h71.922C78.381,62.064,78.381,16.283,78.381,16.283z"/>
		<path fill="#FFC936" d="M25.947,35.926c0.158,0.475,0.316,1.109,0.316,1.584c0,2.693-2.219,4.911-4.91,4.911
			c-2.693,0-4.912-2.218-4.912-4.911s2.219-4.911,4.912-4.911l0,0c-2.693,0-4.912-2.218-4.912-4.911
			c0-2.692,2.219-4.911,4.912-4.911c2.691,0,4.91,2.219,4.91,4.911c0,0.477-0.158,1.109-0.316,1.584h33.268
			c-0.158-0.476-0.316-1.108-0.316-1.584c0-2.692,2.219-4.911,4.91-4.911c2.693,0,4.91,2.219,4.91,4.911
			c0,2.693-2.217,4.911-4.91,4.911c2.693,0,4.91,2.218,4.91,4.911s-2.217,4.911-4.91,4.911c-2.691,0-4.91-2.218-4.91-4.911
			c0-0.475,0.158-1.109,0.316-1.584H25.947z"/>
		<path fill="#FD4D4E" d="M42.422,68.561c1.742,0,3.326,1.426,3.326,3.326s-1.426,3.326-3.326,3.326
			c-1.744,0-3.328-1.426-3.328-3.326C39.096,69.986,40.68,68.561,42.422,68.561L42.422,68.561z M55.57,48.916H29.432v6.496H55.57
			V48.916z M81.709,9.788H3.293v6.494h78.416V9.788z"/>
		<path d="M42.422,76.006c-2.219,0-4.119-1.742-4.119-4.119c0-1.9,1.426-3.645,3.326-3.961v-5.068H6.619
			c-0.475,0-0.791-0.316-0.791-0.793V17.076H3.293c-0.475,0-0.793-0.317-0.793-0.792V9.788c0-0.475,0.318-0.791,0.793-0.791h32.633
			c0.477,0,0.793,0.316,0.793,0.791c0,0.476-0.316,0.793-0.793,0.793H4.084v4.911h76.832v-4.911H49.074
			c-0.477,0-0.791-0.317-0.791-0.793c0-0.475,0.314-0.791,0.791-0.791h32.635c0.477,0,0.791,0.316,0.791,0.791v6.496
			c0,0.475-0.316,0.792-0.791,0.792h-2.535v44.989c0,0.477-0.316,0.793-0.793,0.793h-35.01v5.068
			c1.902,0.316,3.328,2.061,3.328,3.961C46.541,74.105,44.797,76.006,42.422,76.006z M42.422,69.352
			c-1.426,0-2.535,1.109-2.535,2.535s1.109,2.535,2.535,2.535s2.533-1.109,2.533-2.535S43.848,69.352,42.422,69.352z M7.412,61.273
			H77.75V17.075H7.412V61.273z M55.57,56.361H29.432c-0.475,0-0.793-0.314-0.793-0.791v-6.496c0-0.475,0.318-0.791,0.793-0.791
			H55.57c0.477,0,0.793,0.316,0.793,0.791v6.496C56.363,56.045,56.047,56.361,55.57,56.361z M30.223,54.777h24.557v-4.91H30.223
			V54.777z M63.807,43.213L63.807,43.213c-1.584,0-3.01-0.633-4.117-1.743c-1.109-1.109-1.584-2.535-1.584-3.96
			c0-0.317,0-0.475,0-0.792H26.896c0,0.317,0,0.475,0,0.792c0,3.168-2.535,5.703-5.703,5.703l0,0c-1.584,0-3.01-0.633-3.959-1.583
			c-1.109-1.109-1.744-2.535-1.744-4.119s0.633-3.01,1.584-3.96c0.316-0.317,0.793-0.633,1.109-0.95
			c-1.742-0.951-2.852-2.852-2.852-4.911c0-3.168,2.535-5.703,5.703-5.703s5.703,2.534,5.703,5.703c0,0.317,0,0.477,0,0.792h31.207
			c0-0.315,0-0.475,0-0.792c0-3.168,2.535-5.703,5.703-5.703l0,0c3.168,0,5.703,2.534,5.703,5.703c0,2.061-1.109,3.96-2.852,4.911
			c0.477,0.317,0.791,0.475,1.109,0.95c1.107,1.108,1.584,2.535,1.584,3.96c0,1.584-0.635,3.01-1.744,3.96
			C66.66,42.58,65.234,43.213,63.807,43.213z M25.947,35.134h33.268c0.316,0,0.477,0.158,0.633,0.317
			c0.158,0.157,0.158,0.475,0.158,0.791c-0.158,0.476-0.158,0.95-0.158,1.268c0,1.109,0.477,2.06,1.27,2.852
			c0.791,0.792,1.742,1.269,2.852,1.269c1.107,0,2.059-0.477,2.852-1.269s1.268-1.742,1.268-2.852s-0.475-2.059-1.268-2.853
			c-0.793-0.792-1.742-1.267-2.852-1.267c-0.477,0-0.793-0.317-0.793-0.792c0-0.476,0.316-0.792,0.793-0.792
			c2.219,0,4.117-1.901,4.117-4.119s-1.898-4.119-4.117-4.119l0,0c-2.219,0-4.119,1.901-4.119,4.119
			c0,0.477,0.158,0.951,0.158,1.269c0.158,0.316,0,0.475-0.158,0.792c-0.158,0.157-0.316,0.316-0.635,0.316H25.947
			c-0.316,0-0.477-0.159-0.633-0.316c-0.16-0.159-0.16-0.476-0.16-0.792c0.16-0.477,0.16-0.792,0.16-1.269
			c0-2.218-1.902-4.119-4.119-4.119c-2.219,0-4.119,1.901-4.119,4.119s1.9,4.119,4.119,4.119c0.475,0,0.791,0.316,0.791,0.792
			c0,0.475-0.316,0.792-0.791,0.792c-1.109,0-2.219,0.475-2.854,1.267c-0.791,0.792-1.268,1.743-1.268,2.853s0.475,2.06,1.268,2.852
			s1.742,1.269,2.854,1.269l0,0c2.217,0,4.119-1.901,4.119-4.119c0-0.475-0.16-0.95-0.16-1.267c-0.158-0.317,0-0.476,0.16-0.792
			C25.314,35.292,25.629,35.134,25.947,35.134z M43.213,10.579h-1.426c-0.475,0-0.791-0.316-0.791-0.791
			c0-0.476,0.316-0.793,0.791-0.793h1.426c0.477,0,0.793,0.317,0.793,0.793C44.006,10.262,43.689,10.579,43.213,10.579z"/>
	</g>
</g>
</svg>
