<?xml version="1.0" encoding="utf-8"?>
<!-- Generator: Adobe Illustrator 16.0.0, SVG Export Plug-In . SVG Version: 6.00 Build 0)  -->
<!DOCTYPE svg PUBLIC "-//W3C//DTD SVG 1.1//EN" "http://www.w3.org/Graphics/SVG/1.1/DTD/svg11.dtd">
<svg version="1.1" id="Layer_1" xmlns="http://www.w3.org/2000/svg" xmlns:xlink="http://www.w3.org/1999/xlink" x="0px" y="0px"
	 width="85px" height="85px" viewBox="0 0 85 85" enable-background="new 0 0 85 85" xml:space="preserve">
<g>
	<g>
		<path fill="#C4E4F8" d="M70.985,70.016c0.09-1.245,0.119-2.489,0.129-3.753c0-0.219-0.08-0.408-0.199-0.558
			c0.189-1.017,0.389-2.031,0.598-3.047c0.148-0.727-0.389-1.175-0.926-1.185c0.18-0.747,0.35-1.493,0.498-2.25
			c0.148-0.776-0.428-1.225-0.996-1.175c0.039-0.18,0.09-0.358,0.141-0.537c0.107-0.498-0.18-0.926-0.568-1.115
			c0.199-0.627,0.389-1.255,0.568-1.882c0.258-0.905-0.945-1.583-1.555-1.035c0.539-1.225,1.057-2.449,1.555-3.683
			c0.406-1.017-1.346-1.742-1.764-0.747c-0.287,0.677-0.576,1.364-0.875,2.041c0.328-0.996,0.639-2.001,0.926-3.018
			c0.158-0.548-0.209-0.994-0.668-1.165c0.629-1.243,1.244-2.497,1.854-3.753c0.557-1.144-0.926-1.949-1.662-0.975
			c-0.051,0.07-0.109,0.139-0.16,0.209c0.08-0.398,0.15-0.787,0.209-1.185c0.061-0.389-0.068-0.718-0.289-0.927
			c0.549-1.403,1.086-2.807,1.574-4.221c0.309-0.876-0.777-1.483-1.465-1.055c0.221-0.647,0.418-1.294,0.607-1.951
			c0.17-0.617-0.229-1.065-0.717-1.165c0.26-0.607,0.498-1.214,0.717-1.841s-0.398-1.254-1.006-1.226
			c0.051-0.158,0.1-0.329,0.141-0.487c0.199-0.747-0.707-1.633-1.414-1.096c-0.318,0.249-0.637,0.498-0.955,0.757
			c0.07-0.18,0.158-0.35,0.229-0.519c0.299-0.737-0.527-1.324-1.186-1.175c0.438-1.015,0.846-2.051,1.186-3.116
			c0.277-0.846-0.707-1.463-1.414-1.095c-0.367,0.188-0.717,0.408-1.074,0.617c0.107-0.27,0.238-0.538,0.348-0.816
			c0.328-0.855-0.736-1.434-1.414-1.095c-0.168,0.089-0.338,0.179-0.506,0.269c-0.25-0.408-0.707-0.637-1.215-0.269
			c-0.658,0.478-1.295,0.984-1.922,1.493c0.109-0.279,0.229-0.559,0.338-0.836c0.357-0.986-0.945-1.514-1.611-0.937
			c-0.051,0.04-0.09,0.08-0.141,0.12c0.121-0.219,0.25-0.448,0.357-0.667c0.418-0.787-0.367-1.712-1.184-1.374
			c0.139-0.338,0.289-0.667,0.428-1.005c0.318-0.786-0.746-1.543-1.414-1.095c-1.184,0.796-2.318,1.651-3.424,2.548
			c-0.318-0.149-0.727-0.129-1.064,0.169c-0.18,0.16-0.35,0.318-0.527,0.478c0.209-0.826-0.588-1.304-1.264-1.095
			c0.01-0.727-0.787-1.105-1.455-0.826c-1.234,0.528-2.43,1.155-3.594,1.842c-0.318-0.238-0.776-0.318-1.125-0.129
			c-0.965,0.519-1.9,1.096-2.826,1.702c0.029-0.677-0.887-1.273-1.463-0.846c-0.17,0.12-0.328,0.249-0.488,0.369
			c0.061-0.189,0.129-0.378,0.189-0.568c0.238-0.736-0.389-1.204-1.006-1.174c0.051-0.179,0.102-0.358,0.139-0.548
			c0.18-0.767-0.686-1.604-1.412-1.096c-0.848,0.588-1.674,1.194-2.488,1.822c-0.189-0.538-0.797-0.896-1.375-0.538
			c-0.596,0.378-1.186,0.786-1.762,1.205c-0.26-0.109-0.547-0.109-0.816,0.08c-0.238,0.169-0.479,0.338-0.717,0.518
			c0.07-0.736-0.736-1.373-1.434-0.945c-0.916,0.558-1.803,1.165-2.668,1.802c0.08-0.239,0.158-0.468,0.229-0.707
			c0.289-1.016-0.906-1.493-1.613-0.936c-0.098,0.079-0.188,0.159-0.289,0.238c-0.248-0.09-0.537-0.09-0.795,0.04
			c-0.24,0.12-0.479,0.249-0.707,0.378c0.139-0.338,0.289-0.667,0.408-1.005c0.279-0.757-0.748-1.593-1.414-1.095
			c-0.787,0.597-1.543,1.214-2.26,1.872c-0.369-0.309-0.986-0.368-1.365,0c-0.139,0.139-0.289,0.269-0.428,0.408
			c-0.328-0.289-0.846-0.368-1.283,0.02c-0.061,0.049-0.109,0.089-0.17,0.139c-0.129-0.209-0.318-0.378-0.547-0.438
			c-0.408-0.538-1.346-0.547-1.684,0.299c-0.289,0.289-0.566,0.567-0.855,0.856c-0.141,0.1-0.289,0.188-0.418,0.289
			c-0.678,0.478-0.479,1.633,0.209,1.812c-0.039,0.08-0.08,0.169-0.119,0.249c-0.248,0.498,0.01,1.065,0.408,1.334
			c-0.279,0.508,0.01,1.055,0.447,1.294c-0.406,0.896,0.707,1.932,1.523,1.115c1.016-1.016,1.932-2.031,2.719-3.126
			c0.438-0.479,0.896-0.946,1.354-1.414c-0.07,0.11-0.141,0.219-0.209,0.329c-1.691,1.722-3.146,3.713-4.52,5.614
			c-0.559,0.776,0.408,1.643,1.164,1.394c0.031,0.498,0.469,0.886,0.947,0.906c-0.607,0.926-1.176,1.881-1.684,2.856
			c-0.488,0.937,0.758,2.021,1.514,1.176c0.059-0.07,0.129-0.149,0.199-0.22c-0.559,1.155-1.025,2.34-1.385,3.574
			c-0.27,0.956,0.916,1.583,1.613,0.937c0.029-0.03,0.059-0.051,0.088-0.08c-0.367,0.976-0.656,1.98-0.846,3.006
			c-0.129,0.707,0.398,1.234,0.996,1.205c-0.418,1.154-0.756,2.318-0.996,3.522c-0.039,0.181-0.01,0.358,0.051,0.519
			c-0.697,1.503-1.295,3.047-1.762,4.629c-0.23,0.767,0.707,1.593,1.414,1.096c0.148-0.109,0.297-0.22,0.447-0.329
			c-0.051,0.181-0.1,0.35-0.148,0.527c-0.139,0.548,0.199,0.996,0.637,1.146c-0.438,1.313-0.807,2.647-1.064,4.003
			c-0.141,0.745,0.656,1.621,1.414,1.095c0.268-0.189,0.525-0.39,0.785-0.588c-0.068,0.628-0.1,1.265-0.1,1.9
			c0,0.271,0.139,0.528,0.328,0.707c-0.488,1.515-0.885,3.046-1.154,4.619c-0.129,0.747,0.518,1.413,1.244,1.154
			c-0.09,0.847-0.09,1.691,0.01,2.529c0.051,0.388,0.279,0.705,0.578,0.854c0.031,0.657,0.129,1.324,0.318,1.972
			c0.1,0.338,0.348,0.558,0.646,0.656c-0.238,1.396-0.338,2.809-0.258,4.241c0.01,0.148,0.049,0.278,0.109,0.397
			c-0.041,0.299-0.08,0.588-0.109,0.887c-0.09,0.826,1.064,1.254,1.613,0.707c0.297,0.269,0.756,0.367,1.125,0.129
			c1.084-0.728,2.109-1.523,3.096-2.359c0.238,0.279,0.617,0.438,0.977,0.318c-0.021,0.548,0,1.086,0.059,1.633
			c0.07,0.657,0.787,1.294,1.455,0.836c1.402-0.965,2.697-2.04,3.932-3.185c0.348,0.348,1.016,0.367,1.414,0.028
			c0.219-0.188,0.438-0.388,0.656-0.587c0.279,0.397,0.867,0.607,1.285,0.318c-0.061,0.428-0.119,0.866-0.16,1.304
			c-0.07,0.926,1.066,1.165,1.652,0.688c0.588-0.479,1.145-0.986,1.684-1.505c0.309,0.04,0.656-0.02,0.885-0.219
			c0.439-0.357,0.857-0.735,1.275-1.115c-0.279,0.906-0.539,1.822-0.748,2.748c-0.189,0.816,0.658,1.522,1.414,1.085
			c1.025-0.576,1.961-1.273,2.857-2.041c0.09,0.737,1.045,1.256,1.633,0.607c1.055-1.165,2.08-2.35,3.086-3.554
			c0.27,0.06,0.559-0.021,0.775-0.31c0.051-0.068,0.102-0.13,0.15-0.198l0,0c0.01-0.011,0.01-0.021,0.02-0.03
			c0.549-0.716,1.064-1.443,1.572-2.18c-0.479,1.474-0.887,2.956-1.205,4.47c-0.219,1.024,1.234,1.752,1.764,0.747
			c0.877-1.663,1.82-3.315,2.797-4.958c-0.199,0.468-0.398,0.926-0.586,1.394c0,0.01-0.012,0.01-0.012,0.021l0,0
			c-0.029,0.079-0.068,0.148-0.1,0.229c-0.408,1.017,1.324,1.742,1.762,0.747c2.26-5.157,5.047-10.035,7.834-14.912
			c-2.129,4.857-4.549,9.605-6.928,14.364c-0.559,1.115,0.975,2.021,1.662,0.976c1.055-1.603,2.07-3.234,3.064-4.878
			c-0.348,1.085-0.666,2.181-0.965,3.275c-0.309,1.125,1.146,1.583,1.764,0.746c0.268-0.368,0.535-0.746,0.785-1.114
			c0.189,0.736,1.385,1.085,1.781,0.259c0.359-0.736,0.707-1.482,1.035-2.239c-0.248,1.064-0.477,2.13-0.656,3.205
			c-0.199,1.215,1.463,1.713,1.861,0.518c0.188-0.587,0.389-1.164,0.576-1.752c0.42,0.419,1.146,0.518,1.475-0.169
			c0.18-0.368,0.338-0.736,0.508-1.115c-0.08,0.916-0.141,1.842-0.158,2.777c-0.012,0.696,0.717,1.056,1.283,0.916
			c0,0.12,0.01,0.249,0.01,0.368c0,1.086,1.633,1.323,1.9,0.259c0.449-1.802,0.809-3.543,0.896-5.405
			C71.991,70.453,71.483,70.035,70.985,70.016L70.985,70.016z M20.167,66.232c0.199-0.518,0.418-1.016,0.656-1.513
			c0.219-0.199,0.428-0.408,0.637-0.607c-0.129,0.339-0.248,0.688-0.357,1.025C20.784,65.506,20.475,65.874,20.167,66.232z
			 M22.295,54.167c0.518-0.905,1.055-1.803,1.623-2.679c-0.537,1.195-1.055,2.409-1.473,3.653c-0.09,0.14-0.189,0.279-0.279,0.419
			c-0.18,0.198-0.379,0.397-0.566,0.597C21.819,55.472,22.057,54.814,22.295,54.167z M52.438,63.943
			c-0.566,0.865-1.145,1.741-1.701,2.618c1.184-2.29,2.27-4.59,3.324-6.689c0.328-0.656,0.678-1.305,1.035-1.951
			c0.18-0.238,0.367-0.468,0.549-0.706C54.599,59.463,53.554,61.723,52.438,63.943L52.438,63.943z M44.087,72.912
			c-0.1,0.06-0.189,0.13-0.289,0.188c0.119-0.886,0.299-1.752,0.527-2.618c0.756-0.945,1.484-1.911,2.18-2.896
			C45.589,69.318,44.774,71.091,44.087,72.912L44.087,72.912z M45.999,54.745c0.885-1.543,1.801-3.058,2.736-4.551
			c0.34-0.418,0.678-0.846,1.016-1.264c-0.766,1.146-1.521,2.31-2.229,3.483c-0.678,1.135-1.354,2.271-2.031,3.415
			c-0.139,0.169-0.27,0.338-0.408,0.508C45.39,55.8,45.69,55.272,45.999,54.745L45.999,54.745z M41.061,66.562
			c0.178-0.249,0.348-0.508,0.527-0.757c-0.16,0.458-0.318,0.926-0.459,1.384c-0.248,0.299-0.498,0.598-0.746,0.896
			C40.592,67.576,40.821,67.068,41.061,66.562L41.061,66.562z M46.923,58.926c0.549-0.966,1.125-1.921,1.713-2.857
			C48.079,57.024,47.511,57.98,46.923,58.926z M37.805,60.488c-1.713,2.2-3.355,4.471-4.67,6.859
			c-0.707,0.916-1.434,1.812-2.199,2.678c1.273-1.691,2.469-3.454,3.613-5.246c0.141-0.209,0.279-0.428,0.408-0.646
			c0.102-0.159,0.209-0.328,0.311-0.497c0.119-0.199,0.238-0.389,0.357-0.588c1.105-1.782,2.16-3.584,3.205-5.375
			c0.676-0.787,1.354-1.573,2.031-2.359C39.875,57.055,38.86,58.786,37.805,60.488L37.805,60.488z M36.67,56.139
			c-0.578,0.836-1.195,1.683-1.832,2.538c0.488-0.796,0.986-1.583,1.473-2.379c0.617-0.786,1.244-1.562,1.861-2.351
			C37.676,54.686,37.168,55.412,36.67,56.139z M39.657,38.301c1.732-2.429,3.485-4.858,5.356-7.158
			C43.339,33.592,41.467,35.961,39.657,38.301z M53.276,57.204c-0.588,0.785-1.166,1.571-1.732,2.368
			c1.701-2.946,3.324-5.934,4.986-8.859c0.389-0.646,0.797-1.284,1.195-1.921c0.846-1.035,1.723-2.052,2.598-3.066
			C57.935,49.559,55.366,53.302,53.276,57.204z M57.964,33.602c-1.057,1.543-2.16,3.056-3.275,4.56
			c-2,2.448-3.822,5.036-5.564,7.694c-0.766,1.025-1.533,2.062-2.289,3.086c1.732-2.917,3.523-5.804,5.404-8.63
			C54.022,37.941,55.894,35.662,57.964,33.602L57.964,33.602z M55.913,27.37c0.518-0.469,1.045-0.927,1.584-1.364
			c-0.25,0.458-0.498,0.906-0.748,1.354c-0.637,0.587-1.264,1.205-1.871,1.832C55.237,28.595,55.585,27.987,55.913,27.37
			L55.913,27.37z M55.007,25.001c-0.1,0.188-0.199,0.378-0.299,0.578c-0.578,0.576-1.135,1.165-1.691,1.762
			c0.188-0.31,0.379-0.617,0.557-0.926C54.052,25.937,54.521,25.459,55.007,25.001L55.007,25.001z M51.931,21.328
			c0.42-0.358,0.855-0.718,1.283-1.057c-0.049,0.101-0.088,0.199-0.139,0.299c-0.398,0.289-0.797,0.578-1.186,0.876
			C51.911,21.396,51.921,21.368,51.931,21.328z M43.36,22.174c0.936-0.617,1.881-1.186,2.855-1.702
			c-0.027,0.09-0.068,0.179-0.1,0.279c-1.232,1.055-2.457,2.121-3.663,3.206C42.774,23.378,43.071,22.78,43.36,22.174z
			 M37.069,27.261c0.855-0.816,1.742-1.612,2.646-2.359c-1.094,1.772-2.33,3.444-3.623,5.086c-0.379,0.378-0.756,0.758-1.135,1.136
			C35.696,29.849,36.401,28.564,37.069,27.261z M37.407,31.361c2.111-2.109,4.291-4.15,6.512-6.142
			c-0.08,0.129-0.148,0.269-0.229,0.398c-3.098,2.967-6.124,6.022-9.02,9.188C35.584,33.661,36.5,32.517,37.407,31.361z
			 M32.659,22.094c0.605-0.488,1.225-0.965,1.852-1.443c-0.029,0.08-0.061,0.159-0.08,0.249c-0.646,0.538-1.283,1.085-1.932,1.644
			C32.559,22.393,32.61,22.243,32.659,22.094z M30.27,27.092c0.797-0.737,1.592-1.454,2.408-2.17c-0.01,0.02-0.02,0.04-0.029,0.06
			c-0.865,0.776-1.711,1.562-2.539,2.369C30.17,27.271,30.219,27.181,30.27,27.092z M31.653,41.138
			c0.936-1.125,1.893-2.22,2.857-3.315c-0.486,0.647-0.957,1.305-1.414,1.972c-1.473,2.17-2.865,4.429-4.301,6.669
			c-0.467,0.605-0.936,1.214-1.402,1.821c0.488-1.125,0.926-2.271,1.264-3.444C29.653,43.576,30.659,42.342,31.653,41.138
			L31.653,41.138z M23.122,47.946c-0.627,1.064-1.184,2.159-1.691,3.284c-0.318,0.438-0.637,0.887-0.967,1.306
			C21.211,50.962,22.127,49.429,23.122,47.946L23.122,47.946z M18.483,37.683c0.08-0.06,0.17-0.12,0.25-0.179
			c-0.338,0.526-0.658,1.075-0.967,1.623C17.985,38.639,18.225,38.161,18.483,37.683L18.483,37.683z M17.049,56.268
			c-0.068,0.062-0.139,0.13-0.209,0.189c0.389-1.294,0.855-2.568,1.395-3.822c0.068-0.07,0.139-0.14,0.199-0.209
			C17.866,53.689,17.399,54.964,17.049,56.268L17.049,56.268z M23.401,70.424c0.1-0.09,0.199-0.18,0.299-0.271
			c-0.051,0.408-0.08,0.827-0.1,1.245c-0.379,0.487-0.748,0.977-1.137,1.443C22.735,72.026,23.051,71.22,23.401,70.424
			L23.401,70.424z M36.002,75.172c0.129-0.109,0.26-0.229,0.398-0.35c-0.029,0.159-0.061,0.329-0.09,0.488
			c-0.148,0.149-0.299,0.31-0.457,0.458C35.905,75.57,35.954,75.371,36.002,75.172z M41.756,74.187
			c-0.01,0.219-0.029,0.438-0.039,0.657c-0.01,0.388,0.199,0.677,0.488,0.826c-0.438,0.418-0.887,0.815-1.354,1.193
			C41.12,75.958,41.428,75.072,41.756,74.187L41.756,74.187z M53.196,68.742c0.686-1.623,1.453-3.227,2.289-4.799
			c1.781-2.697,3.455-5.466,5.025-8.293c0.48-0.706,0.967-1.413,1.455-2.12C59.458,58.767,56.253,63.764,53.196,68.742z
			 M61.239,28.256c-0.646,0.468-1.273,0.966-1.893,1.473c0.758-1.224,1.484-2.479,2.15-3.753c0.398-0.289,0.807-0.557,1.225-0.826
			C62.265,26.205,61.776,27.24,61.239,28.256z M64.743,42.621c-0.438,0.586-0.875,1.174-1.324,1.751
			c0.887-1.514,1.732-3.045,2.5-4.619C65.54,40.72,65.151,41.675,64.743,42.621z"/>
		<path fill="#58C8E3" d="M43.509,25.21c-0.01-0.011-0.02-0.011-0.039-0.011c0.061-2.061-0.219-4.042-0.608-6.062
			c0.09-0.169,0.161-0.368,0.161-0.607c0.068-2.438-0.061-4.958-0.639-7.336c0.359-2.311-0.158-4.4-0.477-6.72
			c-0.139-1.017-1.375-1.075-2.002-0.508c-0.01-0.011-0.02-0.021-0.029-0.021C39.557,3.678,39.12,3.489,38.7,3.638
			c-0.328,0.12-0.646,0.249-0.965,0.389c-0.398-0.757-1.582-0.847-2.109-0.041c-0.01,0.01-0.01,0.021-0.02,0.03
			c-1.035-0.617-2.211-0.388-3.086,1.095c-0.07,0.109-0.121,0.229-0.17,0.338c-0.238-0.377-0.578-0.806-1.074-1.463
			c-0.947-1.244-2.699-0.219-2.082,1.215c0.09,0.209,0.18,0.418,0.27,0.627c0,0.02-0.01,0.029-0.01,0.049
			c0.01,1.056,0.059,2.101,0.129,3.146c-0.578,4.987-0.01,9.875,1.205,14.773c0.068,0.269,0.189,0.458,0.338,0.597
			c-0.1,0.617-0.16,1.224-0.17,1.861c-0.01,0.566,0.35,0.945,0.826,1.114c0.389,0.358,0.957,0.358,1.395,0.1
			c1.193-0.109,1.99-0.697,2.578-1.533c0.428-0.02,0.836-0.289,1.016-0.866c0.068-0.219,0.129-0.447,0.178-0.667
			c0.24,0.647,0.479,1.305,0.707,1.951c0.199,0.567,0.637,0.826,1.076,0.846c0.209,0.3,0.537,0.509,0.943,0.469
			c0.439-0.04,0.826-0.119,1.166-0.229l1.293-0.139c0.031,0.01,0.051,0.03,0.092,0.03c0.117,0.02,0.238,0.05,0.357,0.069
			C43.837,27.669,44.823,25.807,43.509,25.21L43.509,25.21z M35.157,6.854c-0.029,0.06-0.061,0.119-0.08,0.199
			c-0.059,0.289-0.1,0.567-0.148,0.846c-0.08,0.159-0.129,0.339-0.109,0.548c0,0.02,0,0.039,0.01,0.069
			c-0.01,0.07-0.02,0.149-0.039,0.22c-0.031-0.279-0.051-0.549-0.08-0.826c0.02-0.787,0.039-1.455,0.061-1.424
			C34.877,6.644,35.018,6.764,35.157,6.854z"/>
	</g>
	<g>
		<path fill="#4361AD" d="M15.764,81.025c-0.029,0.27,0.141,0.548,0.469,0.487c1.572-0.269,3.195-0.388,4.838-0.458
			c-1.303,0.369-2.508,0.558-3.881,0.697c-0.479,0.05-0.418,0.786,0.059,0.747c1.285-0.11,2.5-0.279,3.713-0.578
			c0.061,0.03,0.119,0.05,0.199,0.04c3.844-0.159,7.646-0.627,11.449-1.154c-0.15,0.248,0.049,0.627,0.377,0.597
			c1.574-0.179,3.127-0.478,4.689-0.735c0.068,0.179,0.26,0.328,0.498,0.277c0.598-0.089,1.154-0.277,1.682-0.557
			c0.566-0.199,1.125-0.408,1.691-0.588c0.021,0.199,0.18,0.397,0.408,0.357c1.157-0.179,2.758-0.259,3.694-1.006
			c-0.318,0.26-0.061,0.747,0.33,0.628c0.854-0.259,3.363-1.713,1.979-0.06c-0.229,0.269,0.061,0.656,0.389,0.547
			c0.697-0.238,1.395-0.478,2.062-0.776c0.01,0.189,0.248,0.358,0.457,0.31c1.244-0.299,2.449-0.667,3.684-1.035
			c0.229-0.069,1.016-0.527,1.395-0.707c0.068,0,0.129-0.01,0.188-0.01c-0.027,0.05-0.119,0.14-0.277,0.277
			c-0.219,0.189-0.131,0.589,0.199,0.559c0.27-0.029,0.576-0.05,0.875-0.079c0.041,0.159,0.189,0.288,0.389,0.199
			c0.229-0.11,0.447-0.209,0.678-0.299c0.02-0.011,0.039-0.021,0.061-0.03c0.836-0.358,1.662-0.646,2.508-0.876
			c4.352-0.27,8.682-0.637,12.951-1.384c0.221,0.158,0.617,0.04,0.588-0.31c-0.598-7.733-1.662-15.42-2.668-23.114
			c-0.527-4.031-1.135-8.104-1.125-12.174c0.02-3.573,0.668-7.157,0.141-10.721c0-0.021-0.021-0.03-0.031-0.04s0-0.03-0.01-0.04
			c-0.039-0.05-0.08-0.1-0.109-0.149c-1.441-2.199-2.357-4.608-3.941-6.75c-1.9-2.567-3.752-5.116-4.877-8.143
			c-0.061-0.16-0.238-0.149-0.328-0.06c-5.486,0.05-11.07,0.677-16.496,1.522c-0.398,0.061-0.785,0.129-1.186,0.199
			c-0.049-0.538-0.09-1.065-0.139-1.593c-0.279-3.583-0.379-7.287-1.055-10.821c0.09-0.068,0.119-0.209-0.021-0.27
			c-0.01,0-0.02-0.01-0.029-0.01c0-0.02-0.01-0.049-0.01-0.068c-0.01-0.061-0.09-0.051-0.09,0.01c0,0.01,0,0.01,0,0.02
			c-1.016-0.418-2.219-0.906-3.314-0.796c-1.025,0.089-1.324,0.478-1.9-0.518c-0.08-0.13-0.26-0.109-0.35-0.021
			c-0.865,0.887-0.977,1.125-1.98,0.149c-0.119-0.108-0.318-0.05-0.379,0.08c-0.119,0.239-0.389,1.085-0.369,0.926
			c0.031-0.229-0.229-0.448-0.438-0.278c-1.334,1.055-0.896,0.746-2.031,0.049C30.7,3.09,29.723,3.339,29.047,3.558
			c-0.238,0.08-0.219,0.389-0.051,0.508c-0.188,4.778,0.139,9.596,0.598,14.396c-3.115,0.349-6.23,0.905-9.348,1.095
			c-2.906,0.179-5.654-0.179-8.352,1.085c-0.039,0.02-0.08,0.05-0.1,0.089c-0.121-0.02-0.25,0.04-0.238,0.199
			c1.363,18.765,2.518,37.529,4.061,56.284c-0.438-2.947-0.727-5.863-0.926-8.899c-0.318-4.968-1.643-9.936-1.205-14.923
			c0.01-0.149-0.209-0.188-0.229-0.039c-0.646,5.026,0.559,9.994,0.775,15.021c0.17,3.962-0.199,8.948,1.664,12.571
			C15.715,80.976,15.735,81.005,15.764,81.025L15.764,81.025z M30.618,19.366c0.967-0.139,1.932-0.288,2.896-0.438
			c0.07,0.06,0.141,0.109,0.199,0.169c0.469,0.438,0.848,0.926,1.096,1.523c0.1,0.238,0.418,0.108,0.367-0.14
			c-0.148-0.637-0.486-1.194-0.936-1.663c0.17-0.029,0.338-0.05,0.508-0.08c0.17,0.209,0.311,0.429,0.408,0.688
			c0.1,0.259,0.498,0.109,0.408-0.149c-0.08-0.219-0.18-0.428-0.299-0.616c0.1-0.021,0.189-0.03,0.289-0.051
			c0.029,0.03,0.051,0.061,0.08,0.089c0.109,0.141,0.328,0,0.26-0.148c2.328-0.358,4.648-0.717,6.979-1.075
			c0.02,0.368,0.039,0.728,0.059,1.095c-0.02,0.011-0.039,0.03-0.059,0.051c-0.061,0.09-0.09,0.219-0.01,0.309
			c0.029,0.03,0.059,0.06,0.09,0.09c0.01,0.239,0.029,0.488,0.039,0.728c-0.029,0.029-0.039,0.069-0.039,0.108
			c0.01,0.061,0.029,0.12,0.049,0.169c0.01,0.199,0.021,0.398,0.029,0.598c-0.069-0.011-0.139,0-0.2,0.069
			c-0.139,0.169,0.051,0.389,0.241,0.567c0.02,0.338,0.039,0.667,0.059,1.005c-0.01,0-0.02-0.01-0.027-0.01
			c-0.11-0.01-0.18,0.08-0.161,0.188c0.029,0.129,0.12,0.239,0.219,0.349c0.1,1.414,0.238,2.826,0.467,4.211c0,0.01,0,0.01,0,0.01
			c-1.731,0.099-3.463,0.03-5.206,0.139c-0.428-0.597-0.867-1.205-0.996-1.951c-0.02-0.1-0.08-0.158-0.189-0.148
			c-0.029-0.03-0.049-0.069-0.068-0.1c-0.041-0.14-0.27-0.149-0.32-0.011c-0.338,0.937-0.994,1.593-1.691,2.28
			c-1.273,0.02-2.578-0.06-3.854,0.08C31.116,24.662,30.868,22.014,30.618,19.366L30.618,19.366z M42.833,16.768
			c-2.379,0.458-4.779,1.025-7.188,1.454c-0.209-0.269-0.418-0.528-0.656-0.767c-0.25-0.249-0.598-0.638-0.977-0.657
			c-0.1-0.01-0.18,0.09-0.119,0.179c0.197,0.299,0.598,0.488,0.855,0.747c0.178,0.179,0.357,0.369,0.518,0.558
			c-0.08,0.011-0.158,0.03-0.238,0.04c-0.111-0.14-0.24-0.278-0.369-0.389c-0.348-0.278-0.896-0.736-1.375-0.617
			c-0.09,0.021-0.1,0.129-0.061,0.189c0.109,0.179,0.289,0.249,0.469,0.348c0.229,0.129,0.447,0.279,0.646,0.448
			c0.041,0.03,0.061,0.069,0.102,0.108c-0.18,0.03-0.359,0.051-0.539,0.08c-0.35-0.328-0.787-0.637-1.244-0.656
			c-0.07,0-0.139,0.099-0.1,0.169c0.119,0.238,0.318,0.428,0.527,0.597c-0.578,0.07-1.166,0.12-1.752,0.16
			c-0.02-0.229-0.18-0.448-0.498-0.418c-0.109,0.01-0.219,0.02-0.33,0.03c-0.457-4.748-0.926-9.497-1.213-14.275
			c0.916-0.108,2.041-0.249,2.379,1.017c0.08,0.288,0.447,0.278,0.627,0.108c0.547-0.538,1.135-0.847,1.035-1.214
			c0.029,0.1,0.148,0.158,0.238,0.148c0.16,0,0.309-0.01,0.459-0.029c0.119-0.01,0.188-0.09,0.219-0.199
			c0.299-0.936,0.896-0.1,1.244,0.238c0.119,0.121,0.309,0.051,0.379-0.08c0.408-1.135,0.807-1.184,1.195-0.168
			c0.049,0.119,0.209,0.188,0.316,0.1c1.246-0.977,3.445-0.169,4.721,0.249l0,0c-0.092,4.013,0.418,8.093,0.676,12.095
			C42.813,16.489,42.823,16.629,42.833,16.768L42.833,16.768z M68.267,27.608c-0.479-0.447-0.965-0.886-1.463-1.313
			c0.01-0.021,0.01-0.05,0.01-0.07c0-0.01,0-0.01,0-0.02c0-0.021-0.01-0.04-0.029-0.061c-0.01-0.01-0.01-0.02-0.021-0.03
			c-0.01-0.01-0.01-0.02-0.02-0.029c-0.139-0.09-0.309-0.169-0.479-0.239c-0.547-0.458-1.096-0.896-1.643-1.334
			c-1.613-1.314-4.041-3.604-6.211-3.872c1.025-1.683,2.08-3.325,2.836-5.146c1.025,2.986,2.986,5.286,4.699,7.914
			C66.813,24.762,67.53,26.185,68.267,27.608z M57.097,77.989l0.857-0.05c-1.246,0.408-1.533,0.688-0.896,0.101
			C57.079,78.029,57.087,78.009,57.097,77.989z M51.991,78.706c0.139-0.109,0.129-0.3,0.039-0.418
			c0.559-0.04,1.115-0.07,1.674-0.101C52.868,78.377,52.161,78.566,51.991,78.706z M49.761,78.666
			c0.051-0.069,0.07-0.149,0.07-0.229c0.557-0.039,1.104-0.079,1.662-0.108C50.448,78.875,48.317,80.378,49.761,78.666
			L49.761,78.666z M22.116,81.025c0.688-0.021,1.385-0.04,2.072-0.05c-0.678,0.05-1.355,0.079-2.031,0.119
			C22.135,81.076,22.127,81.045,22.116,81.025z M34.42,80.149c1.961-0.238,3.922-0.487,5.883-0.736
			c-0.148,0.05-0.299,0.1-0.447,0.159c-0.021,0-0.031,0-0.051,0c-1.832,0.209-3.625,0.577-5.445,0.855
			C34.42,80.338,34.43,80.239,34.42,80.149L34.42,80.149z M44.345,78.935c0.102-0.01,0.199-0.02,0.289-0.029
			c-0.338,0.069-0.666,0.13-1.006,0.199c0.01-0.03,0.01-0.05,0.01-0.08C43.878,78.994,44.106,78.965,44.345,78.935L44.345,78.935z
			 M46.835,78.775c-0.01-0.028-0.029-0.068-0.051-0.09c0.17-0.02,0.34-0.029,0.52-0.05C47.144,78.686,46.993,78.735,46.835,78.775z
			 M16.184,80.587c-0.029-0.169-0.061-0.338-0.09-0.508c0.309,0.13,0.758-0.039,0.717-0.479c-0.846-9.686-1.771-19.372-2.379-29.077
			c-0.617-9.785-1.016-19.661-2.449-29.376c0.029,0,0.061-0.01,0.08-0.02c2.967-1.254,6.271-0.627,9.406-0.876
			c2.529-0.199,5.049-0.519,7.576-0.787c0.07,0.07,0.17,0.1,0.27,0.08c0.129-0.021,0.25-0.04,0.379-0.061
			c0.268,2.658,0.566,5.316,0.826,7.944c0.029,0.249,0.219,0.358,0.418,0.348c0.049,0.08,0.139,0.129,0.258,0.129
			c1.334-0.04,2.688,0,4.021-0.148c0.121,0.068,0.279,0.068,0.389-0.07c0.578-0.787,1.125-1.454,1.453-2.349
			c0.02,0.01,0.029,0.02,0.051,0.03c0.08,0.735,0.389,1.323,0.836,1.881c-0.18,0.169-0.09,0.547,0.229,0.526
			c2.08-0.139,4.262,0.101,6.303-0.428c0.219-0.06,0.129-0.398-0.08-0.378c-0.061,0.01-0.109,0.01-0.17,0.01
			c0-0.01,0.01-0.02,0.01-0.029c0-0.469-0.01-0.927-0.029-1.395c0.039,0.04,0.07,0.08,0.1,0.12c0.18,0.269,0.588-0.021,0.408-0.289
			c-0.148-0.219-0.338-0.398-0.537-0.568c-0.01-0.148-0.01-0.289-0.021-0.438c0.199,0.109,0.408,0.229,0.598,0.369
			c0.24,0.169,0.52-0.149,0.299-0.35c-0.287-0.259-0.605-0.487-0.926-0.707l-0.01-0.169c0.119,0.09,0.238,0.189,0.369,0.279
			c0.178,0.129,0.387-0.109,0.219-0.27c-0.209-0.198-0.418-0.407-0.637-0.606c-0.021-0.27-0.041-0.528-0.062-0.796
			c0.111,0.1,0.221,0.209,0.34,0.299c0.199,0.159,0.428-0.129,0.248-0.299c-0.229-0.219-0.438-0.448-0.646-0.688
			c-0.01-0.158-0.029-0.309-0.039-0.468c0.109,0.101,0.209,0.219,0.328,0.31c0.219,0.179,0.479-0.14,0.279-0.329
			c-0.25-0.229-0.447-0.488-0.678-0.736c-0.01-0.149-0.029-0.299-0.041-0.458c0.289,0.229,0.568,0.468,0.816,0.747
			c0.17,0.188,0.488-0.021,0.33-0.229c-0.35-0.458-0.797-0.825-1.215-1.214c-0.021-0.179-0.031-0.349-0.051-0.527
			c0.607,0.478,1.273,0.876,1.791,1.454c0.199,0.229,0.588-0.03,0.389-0.279c-0.586-0.757-1.395-1.334-2.16-1.893
			c-0.029-0.02-0.061-0.02-0.088-0.04c-0.012-0.109-0.021-0.219-0.031-0.328c0.27,0.348,0.768,0.606,1.105,0.855
			c0.428,0.309,0.836,0.637,1.254,0.966c0.209,0.169,0.479-0.14,0.277-0.329c-0.428-0.388-0.854-0.787-1.322-1.135
			c-0.229-0.179-0.479-0.388-0.758-0.538c0.279-0.04,0.549-0.08,0.816-0.12c-0.029,0.03-0.068,0.05-0.09,0.09
			c-0.02,0.051-0.029,0.09-0.029,0.149c0.01,0.139,0.109,0.219,0.23,0.259c0.746,0.22,1.424,0.507,1.971,1.075
			c0.18,0.189,0.488-0.099,0.328-0.309c-0.508-0.707-1.244-1.186-2.1-1.314c0.197-0.03,0.396-0.06,0.605-0.089
			c0.289,0.219,0.637,0.398,0.938,0.567c0.535,0.309,1.094,0.558,1.672,0.775c0.209,0.08,0.357-0.229,0.148-0.317
			c-0.559-0.26-1.086-0.567-1.623-0.876c-0.129-0.08-0.258-0.16-0.396-0.249c0.289-0.04,0.576-0.08,0.875-0.13
			c0.299,0.21,0.646,0.368,0.957,0.548c0.477,0.259,0.965,0.527,1.402,0.855c0.141,0.109,0.309-0.09,0.18-0.209
			c-0.389-0.348-0.816-0.627-1.273-0.876c-0.229-0.129-0.459-0.269-0.688-0.388c0.328-0.05,0.656-0.101,0.984-0.14
			c0,0.011,0.01,0.011,0.01,0.021c0.729,0.518,1.684,0.736,2.48,1.145c0.02,0.011,0.029-0.02,0.02-0.029
			c-0.668-0.398-1.354-0.967-2.119-1.186c3.803-0.527,7.613-0.984,11.457-1.334c-0.816,1.961-1.961,3.833-3.275,5.495
			c-0.299,0.368,0.289,0.767,0.549,0.368l0,0c0.367,0.368,0.795,0.717,1.264,1.035c-0.396-0.061-0.816-0.021-1.193,0.129
			c-0.439,0.169-1.166,0.508-1.215,1.036c-0.012,0.108,0.08,0.169,0.18,0.148c0.357-0.08,0.627-0.468,0.945-0.656
			c0.379-0.22,0.756-0.35,1.154-0.339c-0.18,0.169-0.379,0.329-0.598,0.458c-0.25,0.14-0.547,0.239-0.756,0.438
			c-0.131,0.129,0.01,0.317,0.168,0.317c0.318-0.01,0.688-0.248,0.936-0.428c0.27-0.199,0.52-0.438,0.729-0.697l0,0
			c0.01,0,0.01,0,0.02,0c0.07,0.021,0.129-0.01,0.17-0.05c0.27,0.169,0.547,0.338,0.816,0.498c-0.867-0.029-1.992,0.129-2.32,0.847
			c-0.039,0.079,0.012,0.198,0.109,0.209c0.408,0.029,0.697-0.22,1.076-0.378c0.418-0.18,0.826-0.3,1.264-0.31
			c-0.219,0.159-0.459,0.299-0.717,0.408c-0.27,0.12-0.598,0.188-0.756,0.458c-0.051,0.08,0.02,0.179,0.098,0.199
			c0.34,0.08,0.787-0.229,1.066-0.408c0.299-0.189,0.557-0.408,0.785-0.677h0.012c0.348,0.198,0.705,0.388,1.055,0.587
			c-0.697-0.05-1.463,0.108-1.812,0.667c-0.061,0.108,0.061,0.199,0.158,0.179c0.359-0.109,0.629-0.388,0.996-0.508
			c0.299-0.101,0.598-0.109,0.887-0.08c-0.18,0.07-0.357,0.179-0.508,0.299c-0.229,0.189-0.607,0.468-0.566,0.796
			c0.01,0.08,0.078,0.14,0.158,0.129c0.277-0.02,0.459-0.338,0.646-0.527c0.238-0.249,0.498-0.438,0.836-0.509
			c0.359,0.209,0.707,0.418,1.025,0.628c0.27,0.179,0.527,0.378,0.787,0.566c-0.488,0-0.945,0.159-1.234,0.627
			c-0.061,0.101,0.061,0.199,0.148,0.169c0.498-0.179,0.877-0.547,1.453-0.468c0.039,0.01,0.08,0.02,0.119,0.02
			c0.1,0.08,0.221,0.149,0.318,0.229c-0.17,0.02-0.328,0.06-0.488,0.129c-0.268,0.12-0.617,0.27-0.598,0.598
			c0,0.08,0.07,0.119,0.15,0.119c0.188-0.01,0.209-0.08,0.357-0.188c0.139-0.089,0.289-0.159,0.447-0.209
			c0.17-0.051,0.34-0.101,0.508-0.129c0.289,0.229,0.568,0.458,0.846,0.696c-0.068-0.02-0.148-0.04-0.229-0.04
			c-0.398-0.01-0.875,0.149-1.055,0.538c-0.039,0.08,0.029,0.189,0.119,0.18c0.496-0.08,1.045-0.617,1.412-0.09
			c-0.258,0.169-0.826,0.27-0.775,0.607c0.01,0.05,0.041,0.09,0.09,0.1c0.189,0.021,0.35-0.139,0.527-0.209
			c0.199-0.08,0.367-0.169,0.518-0.317c0.061-0.061,0.061-0.129,0.031-0.18c0.447,0.408,0.885,0.836,1.312,1.274
			c0.238,0.448,0.488,0.906,0.756,1.344c0.09,0.149,0.23,0.18,0.359,0.14c0.219,3.882-0.479,7.705-0.359,11.576
			c0.119,3.692,0.311,7.337,0.758,11.011c0.916,7.625,2.119,15.199,2.855,22.846c-10.133,0.995-20.316,1.115-30.432,2.319
			c-4.896,0.578-9.775,1.273-14.684,1.702C24.288,80.278,20.086,79.94,16.184,80.587L16.184,80.587z"/>
		<path fill="#4361AD" d="M71.294,71.22c-0.357-0.079-0.926-0.458-0.945-0.855c-0.012-0.069,0.061-0.14,0.129-0.119
			c0.469,0.119,0.957,1.064,1.434,0.428c-0.348-0.378-0.965-0.537-1.174-1.005c-0.039-0.09,0.049-0.199,0.148-0.169
			c0.299,0.068,0.537,0.298,0.768,0.478c0.209,0.159,0.396,0.35,0.547,0.567c0.08,0.029,0.129,0.108,0.07,0.209
			C72.05,71.13,71.731,71.319,71.294,71.22L71.294,71.22z M71.661,72.425c0.199,0.119,0.051,0.457-0.158,0.338
			c-0.379-0.209-0.707-0.478-1.016-0.786c-0.299-0.299-0.646-0.646-0.787-1.056c-0.029-0.079,0.061-0.179,0.141-0.129
			c0.309,0.188,0.518,0.486,0.756,0.756C70.905,71.887,71.253,72.195,71.661,72.425z"/>
		<path fill="#4361AD" d="M69.282,71.697c-0.08-0.108,0.02-0.229,0.141-0.219c0.418,0.03,0.795,0.358,1.125,0.599
			c0.428,0.317,0.836,0.687,1.234,1.034c0.219,0.189-0.07,0.537-0.289,0.35c-0.379-0.31-0.758-0.617-1.146-0.906
			C69.999,72.295,69.542,72.056,69.282,71.697z M68.884,72.623c-0.029-0.09,0.029-0.169,0.119-0.188
			c0.428-0.08,0.855,0.358,1.154,0.597c0.389,0.319,0.736,0.688,1.045,1.097c0.18,0.237-0.178,0.468-0.367,0.259
			c-0.309-0.349-0.658-0.657-1.016-0.956C69.522,73.201,69.034,73.002,68.884,72.623L68.884,72.623z M68.228,72.912
			c-0.021-0.061,0-0.141,0.068-0.159c0.398-0.119,0.816,0.349,1.066,0.598c0.316,0.328,0.557,0.746,0.727,1.164
			c0.109,0.269-0.289,0.398-0.418,0.149c-0.18-0.378-0.43-0.718-0.717-1.025C68.745,73.42,68.296,73.221,68.228,72.912
			L68.228,72.912z M67.372,73.29c0.318-0.229,0.727,0.309,0.916,0.508c0.348,0.368,0.646,0.815,0.855,1.284
			c0.068,0.148-0.131,0.259-0.238,0.17C68.665,75.072,66.954,73.589,67.372,73.29L67.372,73.29z M66.882,74.485
			c0.34,0.069,0.559,0.318,0.928,0.318c0.258,0,0.299,0.378,0.039,0.398c-0.428,0.038-0.936-0.091-1.104-0.538
			C66.694,74.574,66.784,74.476,66.882,74.485z M34.629,77.253c-0.1-0.101-0.029-0.271,0.109-0.239
			c0.557,0.09,1.064,0.438,1.543,0.717c0.418,0.249,0.836,0.418,1.283,0.497c-0.357-0.219-0.707-0.447-1.045-0.687
			c-0.09-0.061-0.029-0.189,0.061-0.199c0.746-0.089,1.373,0.468,1.852,0.984c0.139,0.149,0.029,0.329-0.139,0.329
			C37.069,78.706,35.526,78.129,34.629,77.253L34.629,77.253z M33.206,77.104c-0.049-0.07-0.01-0.21,0.1-0.21
			c0.398,0.011,0.748,0.289,1.057,0.52c0.348,0.269,0.627,0.627,0.855,0.995c0.1,0.158-0.109,0.389-0.26,0.238
			c-0.268-0.27-0.547-0.538-0.846-0.775C33.813,77.631,33.415,77.422,33.206,77.104z M32.19,76.795
			c0.668,0.237,1.096,0.984,1.604,1.453c0.178,0.169-0.051,0.447-0.25,0.288c-0.537-0.429-1.164-0.966-1.492-1.582
			C31.991,76.864,32.081,76.755,32.19,76.795L32.19,76.795z M31.225,77.063c0.328,0,0.566,0.31,0.775,0.537
			c0.279,0.31,0.508,0.647,0.707,1.006c0.141,0.238-0.199,0.487-0.357,0.249c-0.189-0.278-0.408-0.527-0.627-0.787
			c-0.209-0.249-0.578-0.508-0.627-0.846C31.086,77.143,31.145,77.063,31.225,77.063L31.225,77.063z M30.676,78.348
			c0.199,0.1,0.311,0.27,0.449,0.428c0.049-0.119,0.068-0.249,0.061-0.397c0-0.188,0.268-0.209,0.289-0.029
			c0.049,0.328,0.02,0.567-0.18,0.846c-0.051,0.08-0.189,0.091-0.26,0.021c-0.219-0.22-0.318-0.488-0.477-0.747
			C30.528,78.407,30.598,78.298,30.676,78.348z M27.303,76.992c0.398,0.171,0.697,0.528,0.984,0.848
			c0.08,0.09,0.16,0.188,0.24,0.289c0.068-0.21,0.289-0.358,0.486-0.52c-0.148-0.197-0.287-0.396-0.418-0.605
			c-0.039-0.07,0.041-0.159,0.109-0.101c0.18,0.159,0.359,0.328,0.539,0.487c0.02-0.02,0.039-0.04,0.049-0.06
			c0.029-0.069,0.141-0.101,0.18-0.03c0.1,0.18,0.17,0.357,0.238,0.528c0.24,0.229,0.469,0.468,0.668,0.745
			c0.148,0.199-0.121,0.418-0.309,0.279c-0.199-0.148-0.359-0.318-0.479-0.528c-0.148-0.169-0.299-0.348-0.438-0.526
			c-0.061,0.06-0.129,0.119-0.199,0.169c-0.1,0.08-0.209,0.16-0.24,0.279c-0.01,0.04,0.012,0.09,0.031,0.14
			c0.148,0.179,0.309,0.358,0.447,0.547c0.119,0.17-0.129,0.339-0.258,0.18c-0.27-0.329-0.539-0.656-0.816-0.976
			c-0.299-0.339-0.688-0.617-0.926-1.006c-0.031-0.04-0.021-0.101,0.029-0.129C27.243,76.983,27.284,76.983,27.303,76.992
			L27.303,76.992z M26.407,77.033c0.678,0.31,1.016,1.403,1.234,2.062c0.07,0.209-0.238,0.398-0.357,0.188
			c-0.199-0.367-0.369-0.746-0.578-1.104c-0.178-0.329-0.438-0.628-0.508-1.006C26.188,77.063,26.317,76.992,26.407,77.033z
			 M24.745,76.715c0.359,0.169,0.568,0.558,0.787,0.876c0.299,0.438,0.586,0.886,0.916,1.313c0.168,0.22-0.18,0.469-0.359,0.248
			c-0.299-0.378-0.578-0.766-0.855-1.153c-0.248-0.358-0.586-0.718-0.688-1.154C24.526,76.745,24.665,76.675,24.745,76.715
			L24.745,76.715z M24.317,77.223c0.428,0.278,0.676,0.896,0.936,1.324c0.141,0.238-0.209,0.486-0.348,0.249
			c-0.16-0.26-0.32-0.52-0.469-0.777c-0.129-0.209-0.27-0.418-0.299-0.667C24.127,77.263,24.237,77.163,24.317,77.223z
			 M22.655,77.104c0.557,0.069,0.965,0.876,1.215,1.313c0.148,0.259-0.219,0.526-0.389,0.269c-0.16-0.238-0.311-0.468-0.488-0.696
			c-0.17-0.229-0.428-0.418-0.508-0.696C22.456,77.183,22.536,77.083,22.655,77.104L22.655,77.104z M20.903,77.601
			c0.107,0.249,0.188,0.598,0.438,0.757c0.189,0.119,0.428,0.129,0.656,0.119c-0.049-0.179-0.129-0.348-0.219-0.508
			c-0.08-0.139-0.168-0.238-0.199-0.397c-0.01-0.1,0.08-0.148,0.16-0.148c0.498,0.028,0.717,0.836,0.768,1.233
			c0.02,0.159-0.1,0.238-0.219,0.238c-0.408,0.03-0.887,0.04-1.225-0.209c-0.34-0.259-0.459-0.656-0.369-1.063
			C20.713,77.511,20.852,77.501,20.903,77.601L20.903,77.601z M37.118,5.768c-0.07-0.08,0.031-0.198,0.119-0.179
			c0.697,0.09,1.482,0.488,2.111,0.836c0.129-0.18,0.219-0.357,0.238-0.587c-0.148-0.12-0.299-0.229-0.467-0.329
			C38.92,5.39,38.651,5.38,38.483,5.229c-0.051-0.049-0.07-0.139-0.021-0.189c0.418-0.397,1.146,0.25,1.455,0.519
			c0.088,0.08,0.088,0.169,0.049,0.249c-0.01,0.398-0.16,0.688-0.418,1.005c-0.059,0.07-0.158,0.089-0.238,0.05
			C38.622,6.515,37.647,6.355,37.118,5.768z M36.323,6.047c0.387-0.05,0.805,0.229,1.145,0.388c0.35,0.169,0.688,0.35,0.986,0.598
			c0.248,0.219-0.07,0.588-0.33,0.389c-0.309-0.229-0.666-0.369-1.035-0.508c-0.348-0.141-0.746-0.26-0.926-0.617
			C36.104,6.187,36.211,6.066,36.323,6.047L36.323,6.047z M32.469,19.675c-0.07-0.109,0.02-0.239,0.141-0.229
			c0.477,0.051,0.965,0.538,1.312,0.847c0.43,0.378,0.787,0.836,1.086,1.323c0.119,0.199-0.17,0.398-0.299,0.209
			c-0.299-0.458-0.658-0.846-1.076-1.194C33.286,20.321,32.717,20.083,32.469,19.675L32.469,19.675z M32.161,21.328
			c-0.039-0.061-0.029-0.149,0.031-0.189c0.396-0.239,0.945,0.12,1.254,0.369c0.357,0.298,0.605,0.716,0.787,1.135
			c0.107,0.27-0.301,0.408-0.418,0.149c-0.17-0.358-0.389-0.667-0.688-0.916C32.836,21.655,32.379,21.616,32.161,21.328z
			 M32.36,22.74c0.219-0.079,0.369,0.011,0.566,0.12c0.27,0.141,0.52,0.279,0.797,0.398c0.279,0.119,0.08,0.527-0.199,0.418
			c-0.238-0.1-0.469-0.219-0.697-0.349c-0.219-0.119-0.438-0.18-0.547-0.408C32.241,22.851,32.29,22.771,32.36,22.74z
			 M32.389,25.787c0.23-0.109,0.488-0.159,0.707-0.289c0.189-0.12,0.309-0.31,0.379-0.519c-0.348-0.219-0.846-0.299-1.074-0.637
			c-0.07-0.101,0-0.199,0.109-0.229c0.428-0.1,1.055,0.289,1.383,0.559c0.131,0.1,0.1,0.259,0.01,0.348
			c-0.219,0.627-0.768,1.175-1.492,0.996C32.29,25.976,32.29,25.837,32.389,25.787L32.389,25.787z M63.2,24.723
			c0.359-0.07,0.727,0.169,1.006,0.388c0.01,0,0.029,0,0.039,0c0.199-0.01,0.219,0.27,0.031,0.298
			c-0.271,0.051-0.508,0.17-0.738,0.319c-0.129,0.089-0.209,0.219-0.377,0.219c-0.08,0-0.141-0.05-0.15-0.118
			c-0.039-0.398,0.549-0.607,0.967-0.688c-0.199-0.14-0.418-0.249-0.678-0.219c-0.357,0.03-0.547,0.408-0.824,0.578
			c-0.092,0.05-0.189-0.03-0.15-0.12C62.474,25.03,62.841,24.792,63.2,24.723L63.2,24.723z M19.28,47.966
			c0.299-0.189,0.617,0.269,0.316,0.448c-0.438,0.259-0.955,0.716-1.473,0.746c-0.109,0.01-0.229-0.119-0.158-0.229
			C18.235,48.483,18.852,48.234,19.28,47.966z M17.409,52.087c0.049,0.727-0.051,1.522-0.379,2.189
			c-0.049,0.1-0.219,0.079-0.219-0.04c0.01-0.717,0.238-1.394,0.199-2.109C17,51.867,17.399,51.828,17.409,52.087L17.409,52.087z"/>
	</g>
	<g enable-background="new    ">
		<path fill="#ED1C24" d="M25.481,53.62l-3.783-14.256h1.932l2.17,9.338c0.229,0.976,0.438,1.95,0.607,2.917
			c0.357-1.523,0.578-2.399,0.637-2.639l2.707-9.626h2.281l2.041,7.217c0.508,1.792,0.885,3.475,1.104,5.048
			c0.18-0.896,0.418-1.933,0.707-3.105l2.24-9.158h1.893L36.104,53.61h-1.822l-3.006-10.859c-0.248-0.906-0.398-1.463-0.447-1.672
			c-0.15,0.656-0.289,1.214-0.418,1.672L27.383,53.61h-1.9v0.01H25.481z"/>
		<path fill="#ED1C24" d="M41.827,53.62V39.376H52.13v1.682h-8.42v4.359h7.883v1.673H43.71v4.848h8.75v1.684L41.827,53.62
			L41.827,53.62z"/>
		<path fill="#ED1C24" d="M55.067,53.62V39.376h4.908c1.104,0,1.949,0.068,2.537,0.209c0.816,0.188,1.514,0.526,2.092,1.024
			c0.756,0.638,1.312,1.443,1.682,2.438c0.369,0.984,0.559,2.121,0.559,3.385c0,1.085-0.131,2.041-0.379,2.877
			c-0.25,0.836-0.578,1.523-0.977,2.07c-0.398,0.548-0.826,0.976-1.293,1.294c-0.469,0.319-1.035,0.558-1.703,0.717
			c-0.666,0.159-1.424,0.239-2.289,0.239h-5.137V53.62L55.067,53.62z M56.948,51.938h3.047c0.936,0,1.672-0.09,2.209-0.259
			c0.539-0.169,0.967-0.418,1.275-0.736c0.447-0.447,0.797-1.046,1.045-1.802c0.248-0.757,0.379-1.673,0.379-2.748
			c0-1.493-0.25-2.638-0.738-3.434c-0.486-0.796-1.084-1.334-1.781-1.613c-0.508-0.199-1.312-0.289-2.438-0.289H56.95v10.881H56.948
			z"/>
	</g>
</g>
</svg>
