<?xml version="1.0" encoding="utf-8"?>
<!-- Generator: Adobe Illustrator 16.0.0, SVG Export Plug-In . SVG Version: 6.00 Build 0)  -->
<!DOCTYPE svg PUBLIC "-//W3C//DTD SVG 1.1//EN" "http://www.w3.org/Graphics/SVG/1.1/DTD/svg11.dtd">
<svg version="1.1" id="Layer_1" xmlns="http://www.w3.org/2000/svg" xmlns:xlink="http://www.w3.org/1999/xlink" x="0px" y="0px"
	 width="85px" height="85px" viewBox="0 0 85 85" enable-background="new 0 0 85 85" xml:space="preserve">
<g id="Group_2" transform="translate(-177.438 -236.377)">
	<path id="Path_7" fill="#813C86" d="M238.169,292.713l-2.76-0.498c0.715-3.984,6.564-17.25,13.283-19.508
		c2.273-0.785,4.797-0.191,6.479,1.529l-1.9,2.061c-0.93-1.021-2.377-1.389-3.68-0.932
		C244.316,277.137,238.812,289.129,238.169,292.713z"/>
	<path id="Path_8" fill="#813C86" d="M216.99,297.135"/>
	<path id="Path_9" fill="#813C86" d="M230.193,274.982"/>
	<path id="Path_10" fill="#813C86" d="M250.142,255.629l-6.713-5.596l-14.279,23.961c0,0.006-5.602,9.049-6.047,10.15l-0.869,1.455
		l0,0l-3.779,6.35c-1.867,2.785-4.152,3.48-6.75,2.607l-4.685-1.162l-3.01,4.738c-2.622,0.016-14.806,2.141-18.942,6.689
		c-1.195,1.148-1.732,2.82-1.427,4.449c0.851,4.01,7.125,6.777,10.875,8.43l0.56,0.246c0.895,0.398,2.84,0.93,9.334,0.93
		c7.906,0,18.049-0.805,18.148-0.812l0.803-0.064l0.35-0.723c3-6.223,11.262-21.812,16.988-27.043l1.307,28.641h7.186l0.094-1.299
		c0.021-0.311,2.287-31.127,5.361-39.014C258.009,269.895,256.201,260.68,250.142,255.629z M252.031,277.547
		c-2.883,7.41-4.973,32.439-5.445,38.527h-1.902l-1.4-30.699l-1.928,0.967c-7.016,3.506-17.484,24.232-19.816,28.99
		c-2.532,0.186-10.612,0.742-17.129,0.742c-5.787,0-7.619-0.432-8.195-0.688l-0.567-0.25c-2.606-1.15-8.71-3.842-9.263-6.447
		c-0.114-0.748,0.174-1.5,0.759-1.98c3.454-3.801,14.894-5.775,17.033-5.775c0.362,0,0.575,0.01,0.589,0.01l0.867,0.039l2.859-4.164
		l2.547,0.564c3.621,1.043,7.039,0.479,9.945-4.148l4.375-7.402l0,0l6.084-10.207l0,0l12.715-21.336l4.189,3.492
		c5.055,4.211,6.566,12.346,3.676,19.768h0.008V277.547z"/>
	<path id="Path_11" fill="#813C86" d="M243.476,254.367c-0.824,0-1.492-0.668-1.492-1.492v-12.506c0-0.824,0.668-1.492,1.492-1.492
		c0.822,0,1.49,0.668,1.49,1.492v12.506C244.966,253.699,244.298,254.367,243.476,254.367z"/>
	<path id="Path_12" fill="#813C86" d="M241.486,251.014h-23.574c-1.879-0.004-3.402-1.527-3.404-3.406v-3.268
		c0.001-1.881,1.525-3.404,3.404-3.406h23.57c1.881,0,3.402,1.523,3.404,3.406v3.268
		C244.884,249.486,243.365,251.008,241.486,251.014z M217.912,243.766c-0.313,0.004-0.567,0.26-0.571,0.574v3.268
		c0.004,0.314,0.258,0.568,0.571,0.572h23.57c0.312-0.004,0.566-0.258,0.57-0.572v-3.268c-0.004-0.314-0.258-0.57-0.57-0.574
		H217.912z"/>
	<path id="Path_13" fill="#813C86" d="M197.451,313.783c-0.824,0.016-1.504-0.641-1.52-1.465c-0.016-0.822,0.641-1.504,1.464-1.52
		l23.313-0.887c0.824-0.031,1.52,0.609,1.549,1.436c0.031,0.822-0.609,1.516-1.434,1.549l-23.315,0.887H197.451z"/>
</g>
</svg>
