<?xml version="1.0" encoding="utf-8"?>
<!-- Generator: Adobe Illustrator 16.0.0, SVG Export Plug-In . SVG Version: 6.00 Build 0)  -->
<!DOCTYPE svg PUBLIC "-//W3C//DTD SVG 1.1//EN" "http://www.w3.org/Graphics/SVG/1.1/DTD/svg11.dtd">
<svg version="1.1" id="Layer_1" xmlns="http://www.w3.org/2000/svg" xmlns:xlink="http://www.w3.org/1999/xlink" x="0px" y="0px"
	 width="85px" height="85px" viewBox="0 0 85 85" enable-background="new 0 0 85 85" xml:space="preserve">
<g>
	<path fill="#AED581" d="M76.679,42.142c0.061-0.062,0.061-0.188,0.125-0.25c0.061-0.25,0.188-0.439,0.188-0.689l0.627,0.752
		c2.818-14.414-5.139-23.5-5.139-23.5c0,1.002-0.502,2.318-1.568,3.697c-0.312,0.5-0.752,0.939-1.189,1.441
		c-0.125-0.189-0.312-0.439-0.438-0.627l0,0l0,0l1.629-0.814C68.972,9.931,56.624,5.419,55.372,4.982l0,0
		c-0.062,0-0.062-0.062-0.062-0.062s0.377,0.562,0.814,1.504c1.129,2.256,3.008,6.768,2.883,11.154
		c0.062-4.324-1.879-8.648-2.945-10.904l-0.627-0.062c-1.189-0.564-2.443-1.254-3.697-1.254c-2.883-1.252-5.891-1.504-9.023-1.504
		c-2.945,0-5.766,0.502-8.46,1.191c0,0.062-0.062,0.125-0.062,0.125c0-0.439,0.062-0.125,0.062-0.125
		c0.313-1.002,0.563-1.754,0.563-1.754s-1.816,0.814-3.947,2.066c-2.883,1.254-6.33,3.385-7.145,5.703
		c0-0.062,0.062-0.188,0.062-0.312c1.064-2.131,4.387-4.199,7.082-5.326h-2.444l-0.125-0.189c0.062,0,0.125-0.312,0.125-0.312
		c-1.754,1.254-3.696,3.26-4.575,5.453c0.125-0.629,0.313-1.568,0.377-2.006L28.3,4.982c-1.316,0.314-12.471,3.697-17.296,19.426
		l0,0l-0.376,0.564c2.632,2.883,7.145,6.393,14.79,8.523c0.563,0.125,1.19,0.125,1.754,0.188l0.501,0.25
		c0.062,0.062,0.125,0.188,0.188,0.252c4.449,1.566,7.709,3.697,9.714,6.58l0,0c0.062,0.062,0.062,0.125,0.125,0.125
		c-0.063,0.061-0.063,0.061-0.125,0.125c-2.005-2.508-5.265-5.203-9.714-6.77v-0.125c-0.752-0.25-1.565-0.5-2.443-0.752
		c-7.646-2.131-12.157-5.576-14.79-8.521l0,0l-0.062-0.062c-2.506-2.82-3.196-5.139-3.196-5.139s-1.88,10.59,0.877,22.371
		C6.554,41.83,4.862,41.83,3.17,41.83c2.317,7.644,6.644,14.287,12.22,19.49c0.377,1.064,0.815,1.754,1.254,2.004
		c1.504,0.814,3.008,1.693,4.512,2.57c1.754,1.127,3.572,2.193,5.451,3.133c4.951,2.381,10.403,3.822,16.105,4.262l-7.771-0.752
		l0.814,0.564l0,0c0,0.061,0.062,0.125,0.062,0.25l-0.877-0.627c0.564,0.438,1.002,1.566,1.316,2.193l0,0l0,0
		c0.689,2.945,1.002,6.893,1.002,6.893h10.527c0,0,0-0.689,0-0.877c0,0,0,0-0.061,0c-0.125-1.254-0.314-5.576,2.256-8.648
		c0.062-0.061,0.188-0.188,0.25-0.25c14.789-3.76,27.01-15.039,31.646-30.142C80.187,41.892,78.433,41.955,76.679,42.142z
		 M34.253,20.585l-0.25-0.189c-0.376-0.688-0.689-1.377-0.877-2.193C33.313,19.08,33.688,19.896,34.253,20.585z M37.636,40.888
		c1.254-1.754,3.008-3.32,5.203-4.574l0,0c0-0.062,0-0.062,0.061-0.062l1.504-0.752c1.504-0.689,3.135-1.191,5.016-1.504
		c3.695-0.689,6.955-1.754,9.838-3.008l-2.318,1.064c-2.256,0.814-4.764,1.504-7.52,2.006c-1.881,0.375-3.572,0.812-5.016,1.504
		l-1.629,0.877c-1.941,1.127-3.508,3.008-4.762,4.26L37.636,40.888z M37.698,41.076c1.566,2.32,2.381,5.076,2.381,8.333
		c-0.062-3.195-0.877-5.891-2.506-8.271L37.698,41.076z M19.088,44.587l0.375,0.375L19.088,44.587
		C19.088,44.522,19.088,44.522,19.088,44.587z"/>
	<path d="M46.659,73.476c-0.312,0-0.562-0.189-0.625-0.502c-0.062-0.314,0.188-0.689,0.5-0.752c1.254-0.189,2.445-0.439,3.572-0.752
		c14.539-3.697,26.32-14.729,30.957-28.953c-1.441,0-2.883,0.062-4.324,0.188c-8.771,0.814-17.045,4.263-23.875,9.902
		c-0.252,0.25-0.689,0.188-0.877-0.062c-0.252-0.25-0.188-0.689,0.062-0.879c7.018-5.826,15.541-9.335,24.564-10.15
		c1.816-0.189,3.57-0.25,5.326-0.189c0.188,0,0.375,0.125,0.502,0.252c0.125,0.125,0.125,0.375,0.062,0.564
		c-4.576,14.976-16.922,26.695-32.086,30.582c-1.191,0.311-2.383,0.562-3.635,0.752C46.724,73.476,46.659,73.476,46.659,73.476z"/>
	<path d="M42.649,64.138c-0.125,0-0.25,0-0.312-0.062c-0.312-0.188-0.375-0.564-0.188-0.877c1.566-2.508,3.32-4.951,5.326-7.145
		c0.25-0.25,0.627-0.25,0.877-0.062c0.252,0.25,0.252,0.627,0.062,0.877c-1.941,2.131-3.697,4.449-5.201,6.955
		C43.089,64.013,42.901,64.138,42.649,64.138z"/>
	<path d="M56.062,7.05c-0.062,0-0.189,0-0.252-0.064c-1.379-0.625-2.82-1.127-4.26-1.504c-2.885-0.812-5.893-1.189-8.9-1.189
		c-2.883,0-5.451,0.312-8.021,1.002c-0.313,0.062-0.688-0.125-0.752-0.438s0.125-0.689,0.438-0.752
		c2.694-0.689,5.389-1.066,8.334-1.066c3.133,0,6.205,0.439,9.211,1.254c1.504,0.438,3.01,0.939,4.451,1.566
		c0.311,0.125,0.438,0.5,0.311,0.814C56.562,6.923,56.312,7.05,56.062,7.05z"/>
	<path d="M77.618,42.58c-0.062,0-0.062,0-0.127,0c-0.312-0.061-0.562-0.375-0.5-0.752c2.193-11.154-2.256-19.051-4.137-21.871
		c-0.25,0.814-0.752,1.693-1.379,2.57c-0.312,0.5-0.752,1.002-1.189,1.504c-1.316,1.504-3.07,2.945-4.951,4.26
		c-0.312,0.189-0.689,0.125-0.877-0.188s-0.127-0.689,0.188-0.877c1.818-1.252,3.447-2.631,4.764-4.01
		c0.438-0.502,0.814-0.941,1.127-1.379c0.941-1.316,1.441-2.508,1.441-3.385c0-0.252,0.188-0.502,0.377-0.564
		c0.25-0.062,0.5,0,0.688,0.188c0.314,0.377,8.146,9.463,5.266,24.002C78.183,42.33,77.931,42.58,77.618,42.58z"/>
	<path d="M42.524,37.003c-0.25,0-0.438-0.125-0.562-0.375c-0.125-0.314,0-0.689,0.312-0.816c0.188-0.061,4.699-2.068,7.018-2.506
		c3.447-0.627,6.705-1.629,9.65-2.945c0.314-0.125,0.689,0,0.814,0.314c0.125,0.312,0,0.688-0.312,0.814
		c-3.07,1.377-6.455,2.381-9.965,3.07c-1.754,0.312-5.201,1.754-6.768,2.443C42.714,37.003,42.587,37.003,42.524,37.003z"/>
	<path d="M37.573,41.515c-0.125,0-0.25-0.062-0.375-0.125c-0.25-0.188-0.313-0.627-0.125-0.877c1.441-2.004,3.258-3.572,5.391-4.824
		c0.312-0.188,0.688-0.062,0.877,0.25c0.188,0.312,0.061,0.689-0.25,0.877c-2.008,1.127-3.699,2.631-5.015,4.449
		C37.95,41.39,37.763,41.515,37.573,41.515z"/>
	<path d="M10.565,25.535c-0.062,0-0.125,0-0.188,0c-0.313-0.125-0.501-0.438-0.438-0.752C14.765,8.302,26.733,4.794,28.112,4.417
		C28.237,4.355,28.3,4.355,28.3,4.355c0.312-0.062,0.564,0.125,0.689,0.375c0.125,0.252,0,0.564-0.188,0.752
		c-2.632,1.943-4.198,3.824-4.637,5.703c-0.062,0.312-0.438,0.564-0.752,0.439c-0.313-0.062-0.563-0.439-0.438-0.752
		c0.313-1.379,1.129-2.693,2.381-4.072c-4.074,2.004-10.84,6.893-14.162,18.299C11.065,25.347,10.815,25.535,10.565,25.535z"/>
	<path d="M23.411,12.376L23.411,12.376c-0.376-0.064-0.627-0.314-0.627-0.689c0-0.25,0.062-0.438,0.125-0.689
		c0.062-0.312,0.376-0.564,0.752-0.502c0.312,0.062,0.564,0.375,0.501,0.754c-0.062,0.188-0.062,0.375-0.062,0.562
		C24.038,12.125,23.787,12.376,23.411,12.376z"/>
	<path d="M27.86,34.873c-0.188,0-0.375-0.062-0.5-0.25c-2.57-3.07-1.692-5.953-0.815-8.711c0.877-2.945,1.692-5.703-1.378-8.773
		c-1.691-1.691-2.507-3.508-2.318-5.391c0-0.375,0.312-0.625,0.688-0.562c0.376,0,0.626,0.312,0.563,0.688
		c-0.125,1.506,0.564,2.945,2.006,4.389c3.635,3.635,2.568,7.018,1.691,10.025c-0.814,2.695-1.504,5.014,0.626,7.582
		c0.251,0.25,0.188,0.689-0.062,0.877C28.112,34.873,27.985,34.873,27.86,34.873z"/>
	<path d="M45.345,32.804c-0.188,0-0.312-0.062-0.439-0.188c-0.25-0.252-0.25-0.627,0-0.877c1.693-1.754,3.762-3.008,5.828-4.262
		c3.762-2.256,7.02-4.26,7.521-9.086c0.438-4.449-1.504-9.213-2.695-11.656c-0.438-0.877-0.752-1.441-0.752-1.441
		c-0.125-0.25-0.125-0.5,0.062-0.752c0.189-0.188,0.439-0.25,0.689-0.188c1.504,0.5,14.037,5.076,16.043,17.672
		c0.061,0.312-0.189,0.689-0.502,0.689c-0.312,0.061-0.689-0.189-0.689-0.502c-1.564-9.9-10.15-14.602-13.725-16.105l0,0
		c1.254,2.57,3.26,7.584,2.82,12.346c-0.5,5.451-4.387,7.771-8.084,10.025c-1.941,1.191-3.947,2.381-5.516,4.074
		C45.657,32.679,45.532,32.804,45.345,32.804z"/>
	<path d="M42.649,36.941c-0.062,0-0.125,0-0.25-0.062c-0.312-0.125-0.502-0.5-0.377-0.814c0.627-1.629,1.568-3.07,2.82-4.387
		c0.252-0.25,0.627-0.25,0.879,0c0.25,0.25,0.25,0.627,0,0.877c-1.129,1.191-1.943,2.445-2.57,3.949
		C43.151,36.753,42.964,36.941,42.649,36.941z"/>
	<path d="M34.378,21.212c-0.188,0-0.376-0.062-0.501-0.25c-3.446-4.576-1.315-12.848-0.25-16.168c0-0.064,0.062-0.189,0.125-0.252
		V4.48c0.063-0.125,0.063-0.188,0.063-0.312c-0.689,0.312-1.692,0.752-2.695,1.254c-4.012,2.066-6.455,4.072-7.02,5.764
		c-0.125,0.312-0.438,0.502-0.814,0.439c-0.312-0.125-0.501-0.439-0.438-0.814c0.625-2.068,3.195-4.199,7.645-6.455
		c2.193-1.129,3.947-1.754,4.011-1.818c0.188-0.061,0.438-0.061,0.627,0.125c0.188,0.125,0.25,0.377,0.188,0.627
		c0,0-0.125,0.564-0.502,1.629l-0.062,0.125c0,0.062-0.063,0.125-0.063,0.188c-0.813,2.445-3.133,10.779,0.063,14.979
		c0.188,0.25,0.125,0.688-0.125,0.877C34.629,21.15,34.503,21.212,34.378,21.212z"/>
	<path d="M36.885,23.029c-0.062,0-0.188,0-0.25-0.062c-1.19-0.5-2.131-1.252-2.883-2.256c-0.188-0.25-0.125-0.689,0.125-0.877
		s0.688-0.125,0.877,0.125c0.626,0.814,1.378,1.441,2.382,1.881c0.312,0.125,0.438,0.5,0.312,0.814
		C37.323,22.904,37.136,23.029,36.885,23.029z"/>
	<path d="M34.253,20.962c-0.188,0-0.312-0.064-0.438-0.189c-0.252-0.25-0.252-0.625,0-0.877c0.25-0.25,0.625-0.25,0.877,0l0,0
		c0.25,0.25,0.25,0.627,0,0.877C34.565,20.898,34.44,20.962,34.253,20.962z"/>
	<path d="M45.657,32.492L45.657,32.492c-0.375,0-0.627-0.25-0.627-0.627c0,0,0,0,0-0.062c0-0.5-0.188-2.318-2.693-4.889
		c-0.25-0.25-0.25-0.627,0-0.877s0.625-0.25,0.877,0c2.818,2.82,3.068,4.951,3.068,5.766C46.284,32.177,45.972,32.492,45.657,32.492
		z"/>
	<path d="M48.163,82.499c-0.375,0-0.625-0.25-0.625-0.627v-0.125c0-2.883,0-8.961,4.137-10.652c0.312-0.125,0.688,0,0.812,0.312
		s0,0.689-0.312,0.814c-3.32,1.379-3.32,6.83-3.32,9.463v0.125C48.79,82.249,48.54,82.499,48.163,82.499z"/>
	<path d="M34.817,73.224c-0.125,0-0.313-0.062-0.377-0.125c-0.062-0.062-0.125-0.125-0.25-0.188
		c-0.312-0.188-0.438-0.564-0.25-0.877c0.188-0.312,0.563-0.438,0.877-0.252c0.125,0.062,0.312,0.189,0.438,0.314
		c0.25,0.25,0.313,0.627,0.062,0.877C35.192,73.161,35.005,73.224,34.817,73.224z"/>
	<path d="M48.163,82.499H37.261c-0.188,0-0.312-0.062-0.438-0.188c-0.125-0.127-0.188-0.252-0.188-0.439
		c0-0.062,0.061-3.635-1.004-6.578c-0.375-0.754-1.504-2.508-1.941-2.885c-0.25-0.188-0.313-0.627-0.062-0.877
		c0.25-0.25,0.626-0.312,0.877-0.062c0.689,0.564,1.881,2.633,2.193,3.197c0.062,0.061,0.062,0.125,0.062,0.125
		c0.877,2.443,1.002,5.264,1.065,6.453h10.276c0.377,0,0.627,0.25,0.627,0.627S48.54,82.499,48.163,82.499z"/>
	<path d="M34.879,73.286c-0.125,0-0.25-0.061-0.376-0.125l-0.062-0.061c-0.25-0.189-0.312-0.627-0.125-0.879
		c0.188-0.25,0.627-0.312,0.877-0.125l0.063,0.062c0.25,0.188,0.313,0.627,0.125,0.877C35.256,73.161,35.067,73.286,34.879,73.286z"
		/>
	<path d="M38.577,58.56c-0.062,0-0.125,0-0.188,0c-0.313-0.125-0.502-0.438-0.439-0.814c2.193-7.018,1.943-11.906-0.877-16.167l0,0
		c-1.379-1.691-4.387-4.762-9.463-6.578c-0.062-0.062-0.188-0.062-0.25-0.125l0,0c-0.688-0.25-1.379-0.502-2.131-0.689
		c-8.021-2.256-12.596-5.955-15.039-8.711c-0.062-0.062-0.062-0.062-0.125-0.125c-1.129-1.254-1.881-2.381-2.381-3.322
		C7.308,25.724,6.87,33.621,8.812,42.08c0.062,0.314-0.125,0.689-0.438,0.754c-0.313,0.061-0.688-0.125-0.752-0.439
		C4.926,30.675,6.743,19.833,6.743,19.708c0.064-0.312,0.314-0.5,0.564-0.5c0.313,0,0.564,0.188,0.627,0.438
		c0,0,0.689,2.193,3.07,4.887l0.062,0.062c2.319,2.633,6.769,6.205,14.477,8.336c0.752,0.188,1.504,0.5,2.193,0.752l0.25,0.061l0,0
		c0.062,0,0.188,0.062,0.25,0.125c5.139,1.881,8.271,5.014,9.713,6.832c0.062,0.062,0.062,0.062,0.062,0.125
		c3.008,4.574,3.385,9.964,1.064,17.294C39.077,58.372,38.827,58.56,38.577,58.56z"/>
	<path d="M42.649,73.976L42.649,73.976c-5.703-0.375-11.217-1.816-16.355-4.324c-1.88-0.877-3.76-1.941-5.516-3.133
		c-2.067-1.379-4.072-2.945-5.891-4.637C9.122,56.491,4.799,49.661,2.479,42.078c-0.062-0.188,0-0.375,0.063-0.562
		c0.125-0.189,0.313-0.25,0.501-0.25c1.755-0.062,3.447,0,5.139,0.188c1.254,0.125,2.569,0.312,3.948,0.564
		c0.313,0.061,0.626,0.125,0.94,0.188c0.313,0.062,0.563,0.375,0.5,0.752c-0.062,0.314-0.375,0.564-0.752,0.5
		c-0.312-0.061-0.563-0.125-0.877-0.188c-1.315-0.25-2.631-0.439-3.822-0.501c-1.379-0.125-2.758-0.188-4.137-0.188
		c2.32,7.019,6.393,13.347,11.781,18.423c1.756,1.629,3.697,3.195,5.703,4.512c1.756,1.129,3.572,2.193,5.391,3.07
		c5.013,2.383,10.34,3.822,15.854,4.199c0.377,0,0.627,0.312,0.564,0.689C43.276,73.726,43.026,73.976,42.649,73.976z"/>
	<path d="M46.659,73.476c-0.25,0-0.5-0.189-0.625-0.439c-1.691-5.451-4.324-10.402-7.959-14.727
		c-4.951-5.953-11.594-10.527-19.239-13.223c-0.313-0.125-0.501-0.502-0.376-0.814s0.501-0.502,0.814-0.377
		c7.832,2.758,14.664,7.521,19.803,13.6c3.697,4.449,6.455,9.525,8.209,15.164c0.125,0.314-0.062,0.689-0.438,0.752
		C46.786,73.476,46.724,73.476,46.659,73.476z"/>
</g>
</svg>
