<?xml version="1.0" encoding="utf-8"?>
<!-- Generator: Adobe Illustrator 16.0.0, SVG Export Plug-In . SVG Version: 6.00 Build 0)  -->
<!DOCTYPE svg PUBLIC "-//W3C//DTD SVG 1.1//EN" "http://www.w3.org/Graphics/SVG/1.1/DTD/svg11.dtd">
<svg version="1.1" id="Layer_1" xmlns="http://www.w3.org/2000/svg" xmlns:xlink="http://www.w3.org/1999/xlink" x="0px" y="0px"
	 width="85px" height="85px" viewBox="0 0 85 85" enable-background="new 0 0 85 85" xml:space="preserve">
<g>
	<g enable-background="new    ">
		<path fill="#2E3192" d="M10.749,53.265H8.071V36.199c-0.64,0.619-1.491,1.228-2.531,1.848c-1.05,0.62-1.984,1.071-2.814,1.387
			v-2.584c1.501-0.703,2.804-1.553,3.928-2.562c1.124-0.998,1.911-1.974,2.383-2.919h1.723v21.897H10.749z"/>
	</g>
	<g enable-background="new    ">
		<path d="M10.985,53.49H7.846V36.708c-0.576,0.495-1.298,1-2.191,1.532c-1.014,0.598-1.972,1.07-2.849,1.404L2.5,39.76v-3.053
			l0.13-0.062c1.489-0.697,2.756-1.524,3.874-2.525c1.082-0.961,1.866-1.921,2.333-2.853l0.062-0.125h2.087V53.49z M8.296,53.04
			h2.238V31.592h-1.36c-0.497,0.944-1.294,1.907-2.371,2.863c-1.101,0.988-2.397,1.841-3.853,2.537v2.111
			c0.771-0.314,1.601-0.735,2.475-1.25c1.071-0.638,1.886-1.232,2.489-1.816l0.382-0.369V53.04z"/>
	</g>
	<g enable-background="new    ">
		<path fill="#2E3192" d="M14.882,42.51c0-2.573,0.263-4.652,0.798-6.227c0.525-1.575,1.323-2.783,2.363-3.634
			c1.05-0.851,2.363-1.281,3.949-1.281c1.165,0,2.194,0.23,3.077,0.703s1.607,1.155,2.185,2.038
			c0.578,0.892,1.029,1.963,1.355,3.245c0.325,1.271,0.493,2.994,0.493,5.156c0,2.563-0.262,4.621-0.787,6.196
			c-0.525,1.576-1.313,2.784-2.353,3.645c-1.05,0.861-2.363,1.281-3.959,1.281c-2.101,0-3.749-0.756-4.957-2.257
			C15.607,49.558,14.882,46.606,14.882,42.51z M17.634,42.51c0,3.582,0.419,5.966,1.26,7.142c0.84,1.188,1.869,1.775,3.098,1.775
			c1.229,0,2.258-0.598,3.099-1.785c0.839-1.187,1.26-3.57,1.26-7.142c0-3.592-0.42-5.976-1.26-7.152
			c-0.841-1.177-1.88-1.775-3.13-1.775c-1.229,0-2.216,0.525-2.941,1.564C18.096,36.472,17.634,38.929,17.634,42.51z"/>
	</g>
	<g enable-background="new    ">
		<path d="M22.002,53.857c-2.156,0-3.883-0.788-5.133-2.342c-1.468-1.854-2.212-4.884-2.212-9.006c0-2.599,0.272-4.718,0.81-6.299
			c0.53-1.591,1.349-2.849,2.434-3.736c1.09-0.884,2.467-1.332,4.091-1.332c1.208,0,2.279,0.247,3.184,0.731
			c0.903,0.483,1.665,1.195,2.267,2.112c0.601,0.93,1.054,2.014,1.384,3.313c0.333,1.296,0.501,3.05,0.501,5.211
			c0,2.568-0.27,4.678-0.799,6.268c-0.532,1.596-1.347,2.856-2.423,3.747C25.012,53.422,23.669,53.857,22.002,53.857z
			 M21.992,31.592c-1.518,0-2.798,0.415-3.807,1.231c-1.017,0.832-1.788,2.02-2.292,3.531c-0.522,1.536-0.786,3.606-0.786,6.156
			c0,4.019,0.711,6.953,2.114,8.725c1.159,1.441,2.768,2.174,4.781,2.174c1.559,0,2.807-0.403,3.817-1.231
			c1.009-0.836,1.777-2.027,2.282-3.542c0.515-1.544,0.776-3.605,0.776-6.125c0-2.124-0.164-3.84-0.486-5.1
			c-0.318-1.253-0.751-2.292-1.326-3.18c-0.559-0.853-1.266-1.513-2.102-1.961C24.125,31.821,23.125,31.592,21.992,31.592z
			 M21.992,51.651c-1.299,0-2.404-0.629-3.282-1.869c-0.875-1.227-1.301-3.605-1.301-7.272c0-3.662,0.467-6.115,1.426-7.5
			c0.769-1.104,1.821-1.662,3.126-1.662c1.312,0,2.427,0.629,3.313,1.869c0.876,1.227,1.303,3.609,1.303,7.283
			c0,3.656-0.426,6.034-1.303,7.271C24.391,51.02,23.287,51.651,21.992,51.651z M21.96,33.797c-1.15,0-2.077,0.495-2.756,1.469
			c-0.893,1.29-1.346,3.726-1.346,7.244c0,3.521,0.411,5.879,1.219,7.012c0.801,1.131,1.754,1.68,2.915,1.68
			c1.156,0,2.109-0.553,2.915-1.689c0.809-1.143,1.218-3.502,1.218-7.012c0-3.527-0.409-5.89-1.218-7.021
			C24.1,34.347,23.136,33.797,21.96,33.797z"/>
	</g>
	<g enable-background="new    ">
		<path fill="#2E3192" d="M32.61,42.51c0-2.573,0.263-4.652,0.799-6.227c0.525-1.575,1.323-2.783,2.363-3.634
			c1.05-0.851,2.363-1.281,3.949-1.281c1.166,0,2.195,0.23,3.078,0.703c0.881,0.473,1.605,1.155,2.184,2.038
			c0.577,0.892,1.029,1.963,1.354,3.245c0.325,1.271,0.493,2.994,0.493,5.156c0,2.563-0.263,4.621-0.788,6.196
			c-0.524,1.576-1.312,2.784-2.352,3.645c-1.049,0.861-2.362,1.281-3.958,1.281c-2.101,0-3.749-0.756-4.958-2.257
			C33.325,49.558,32.61,46.606,32.61,42.51z M35.362,42.51c0,3.582,0.42,5.966,1.26,7.142c0.84,1.188,1.87,1.775,3.098,1.775
			c1.229,0,2.259-0.598,3.098-1.785c0.84-1.187,1.26-3.57,1.26-7.142c0-3.592-0.42-5.976-1.26-7.152
			c-0.839-1.177-1.88-1.775-3.13-1.775c-1.228,0-2.215,0.525-2.94,1.564C35.824,36.472,35.362,38.929,35.362,42.51z"/>
	</g>
	<g enable-background="new    ">
		<path d="M39.731,53.857c-2.156,0-3.882-0.788-5.132-2.342c-1.489-1.868-2.213-4.812-2.213-9.006c0-2.599,0.272-4.719,0.81-6.299
			c0.53-1.591,1.349-2.849,2.434-3.736c1.092-0.884,2.468-1.332,4.091-1.332c1.208,0,2.279,0.247,3.183,0.731
			c0.902,0.483,1.664,1.195,2.266,2.112c0.602,0.93,1.055,2.014,1.385,3.313c0.332,1.296,0.5,3.05,0.5,5.211
			c0,2.568-0.268,4.678-0.799,6.268c-0.531,1.596-1.346,2.856-2.422,3.747C42.739,53.422,41.398,53.857,39.731,53.857z
			 M39.72,31.592c-1.517,0-2.799,0.415-3.808,1.231c-1.017,0.832-1.787,2.02-2.291,3.531c-0.522,1.536-0.786,3.606-0.786,6.156
			c0,4.03,0.711,6.965,2.114,8.725c1.16,1.441,2.769,2.174,4.781,2.174c1.559,0,2.808-0.403,3.815-1.231
			c1.01-0.836,1.777-2.027,2.283-3.542c0.514-1.544,0.775-3.605,0.775-6.125c0-2.124-0.164-3.84-0.487-5.1
			c-0.317-1.253-0.751-2.292-1.325-3.18c-0.559-0.853-1.267-1.513-2.1-1.961C41.853,31.821,40.854,31.592,39.72,31.592z
			 M39.72,51.651c-1.298,0-2.403-0.629-3.281-1.869c-0.876-1.227-1.302-3.605-1.302-7.272c0-3.662,0.467-6.115,1.427-7.5
			c0.769-1.104,1.82-1.662,3.125-1.662c1.313,0,2.428,0.629,3.312,1.869c0.876,1.227,1.302,3.609,1.302,7.283
			c0,3.656-0.425,6.034-1.301,7.271C42.119,51.02,41.015,51.651,39.72,51.651z M39.688,33.797c-1.149,0-2.077,0.495-2.755,1.469
			c-0.893,1.289-1.346,3.726-1.346,7.244c0,3.521,0.41,5.879,1.218,7.012c0.8,1.131,1.753,1.68,2.915,1.68
			c1.156,0,2.109-0.553,2.914-1.689c0.809-1.143,1.218-3.501,1.218-7.012c0-3.527-0.409-5.89-1.217-7.021
			C41.828,34.347,40.864,33.797,39.688,33.797z"/>
	</g>
	<g enable-background="new    ">
		<path fill="#2E3192" d="M50.326,42.51c0-2.573,0.263-4.652,0.798-6.227c0.525-1.575,1.324-2.783,2.364-3.634
			c1.05-0.851,2.362-1.281,3.948-1.281c1.166,0,2.195,0.23,3.077,0.703c0.883,0.473,1.606,1.155,2.185,2.038
			c0.578,0.892,1.029,1.963,1.354,3.245c0.326,1.271,0.494,2.994,0.494,5.156c0,2.563-0.263,4.621-0.788,6.196
			c-0.525,1.576-1.312,2.784-2.353,3.645c-1.051,0.861-2.362,1.281-3.959,1.281c-2.101,0-3.75-0.756-4.957-2.257
			C51.051,49.558,50.326,46.606,50.326,42.51z M53.078,42.51c0,3.582,0.421,5.966,1.26,7.142c0.841,1.188,1.869,1.775,3.099,1.775
			s2.258-0.598,3.099-1.785c0.839-1.187,1.26-3.57,1.26-7.142c0-3.592-0.421-5.976-1.26-7.152c-0.841-1.177-1.88-1.775-3.13-1.775
			c-1.229,0-2.217,0.525-2.94,1.564C53.54,36.472,53.078,38.929,53.078,42.51z"/>
	</g>
	<g enable-background="new    ">
		<path d="M57.447,53.857c-2.155,0-3.882-0.788-5.132-2.342c-1.47-1.854-2.214-4.884-2.214-9.006c0-2.599,0.272-4.718,0.811-6.299
			c0.529-1.591,1.349-2.849,2.434-3.736c1.092-0.884,2.467-1.332,4.091-1.332c1.208,0,2.278,0.247,3.184,0.731
			c0.902,0.483,1.665,1.195,2.267,2.112c0.602,0.93,1.054,2.014,1.385,3.313c0.332,1.296,0.5,3.05,0.5,5.211
			c0,2.568-0.27,4.678-0.799,6.268c-0.532,1.596-1.348,2.856-2.423,3.747C60.456,53.422,59.114,53.857,57.447,53.857z
			 M57.437,31.592c-1.518,0-2.799,0.415-3.808,1.231c-1.017,0.832-1.786,2.02-2.291,3.531c-0.522,1.536-0.786,3.606-0.786,6.156
			c0,4.019,0.711,6.953,2.114,8.725c1.16,1.441,2.768,2.174,4.781,2.174c1.559,0,2.807-0.403,3.816-1.231
			c1.009-0.836,1.777-2.027,2.281-3.542c0.516-1.544,0.776-3.605,0.776-6.125c0-2.124-0.163-3.84-0.486-5.1
			c-0.318-1.253-0.752-2.292-1.326-3.18c-0.559-0.853-1.266-1.513-2.102-1.961C59.568,31.821,58.57,31.592,57.437,31.592z
			 M57.437,51.651c-1.3,0-2.403-0.629-3.282-1.869c-0.875-1.227-1.302-3.605-1.302-7.272c0-3.662,0.467-6.115,1.428-7.5
			c0.769-1.104,1.819-1.662,3.125-1.662c1.312,0,2.427,0.629,3.312,1.869c0.876,1.227,1.303,3.609,1.303,7.283
			c0,3.656-0.427,6.034-1.302,7.271C59.835,51.02,58.731,51.651,57.437,51.651z M57.405,33.797c-1.149,0-2.077,0.495-2.757,1.469
			c-0.893,1.29-1.346,3.726-1.346,7.244c0,3.521,0.41,5.879,1.219,7.012c0.801,1.131,1.754,1.68,2.915,1.68
			c1.156,0,2.109-0.553,2.914-1.689c0.81-1.143,1.22-3.502,1.22-7.012c0-3.527-0.41-5.89-1.219-7.021
			C59.544,34.347,58.58,33.797,57.405,33.797z"/>
	</g>
	<g enable-background="new    ">
		<path fill="#2E3192" d="M68.055,42.51c0-2.573,0.262-4.652,0.798-6.227c0.526-1.575,1.324-2.783,2.363-3.634
			c1.051-0.851,2.364-1.281,3.949-1.281c1.166,0,2.195,0.23,3.077,0.703c0.883,0.473,1.607,1.155,2.185,2.038
			c0.578,0.892,1.029,1.963,1.355,3.245c0.325,1.271,0.493,2.994,0.493,5.156c0,2.563-0.263,4.621-0.788,6.196
			c-0.525,1.576-1.312,2.784-2.352,3.645c-1.051,0.861-2.364,1.281-3.96,1.281c-2.101,0-3.749-0.756-4.957-2.257
			C68.77,49.558,68.055,46.606,68.055,42.51z M70.807,42.51c0,3.582,0.421,5.966,1.26,7.142c0.841,1.188,1.87,1.775,3.099,1.775
			c1.229,0,2.259-0.598,3.099-1.785c0.84-1.187,1.261-3.57,1.261-7.142c0-3.592-0.421-5.976-1.261-7.152
			c-0.84-1.177-1.881-1.775-3.131-1.775c-1.228,0-2.215,0.525-2.939,1.564C71.269,36.472,70.807,38.929,70.807,42.51z"/>
	</g>
	<g enable-background="new    ">
		<path d="M75.176,53.857c-2.156,0-3.883-0.788-5.133-2.342c-1.49-1.868-2.214-4.812-2.214-9.006c0-2.599,0.273-4.719,0.81-6.299
			c0.532-1.591,1.352-2.849,2.436-3.736c1.092-0.884,2.468-1.332,4.091-1.332c1.208,0,2.279,0.247,3.184,0.731
			c0.902,0.483,1.665,1.195,2.267,2.112c0.602,0.93,1.054,2.014,1.384,3.313c0.333,1.296,0.501,3.05,0.501,5.211
			c0,2.568-0.269,4.678-0.799,6.268c-0.531,1.596-1.347,2.856-2.422,3.747C78.185,53.422,76.843,53.857,75.176,53.857z
			 M75.165,31.592c-1.517,0-2.799,0.415-3.807,1.231c-1.017,0.832-1.788,2.02-2.292,3.531c-0.522,1.536-0.787,3.606-0.787,6.156
			c0,4.03,0.712,6.965,2.115,8.725c1.16,1.441,2.769,2.174,4.781,2.174c1.559,0,2.808-0.403,3.816-1.231
			c1.01-0.836,1.777-2.027,2.282-3.542c0.515-1.544,0.775-3.605,0.775-6.125c0-2.124-0.163-3.84-0.486-5.1
			c-0.317-1.253-0.752-2.292-1.325-3.18c-0.559-0.853-1.267-1.513-2.102-1.961C77.298,31.821,76.298,31.592,75.165,31.592z
			 M75.165,51.651c-1.299,0-2.403-0.629-3.281-1.869c-0.876-1.227-1.302-3.605-1.302-7.272c0-3.662,0.466-6.115,1.427-7.5
			c0.768-1.104,1.819-1.662,3.124-1.662c1.312,0,2.429,0.629,3.313,1.869c0.876,1.227,1.303,3.609,1.303,7.283
			c0,3.656-0.426,6.034-1.302,7.271C77.564,51.02,76.459,51.651,75.165,51.651z M75.133,33.797c-1.148,0-2.076,0.495-2.755,1.469
			c-0.893,1.29-1.346,3.726-1.346,7.244c0,3.521,0.409,5.879,1.219,7.012c0.8,1.131,1.754,1.68,2.914,1.68
			c1.156,0,2.109-0.553,2.914-1.689c0.81-1.143,1.22-3.502,1.22-7.012c0-3.527-0.41-5.89-1.219-7.021
			C77.272,34.347,76.31,33.797,75.133,33.797z"/>
	</g>
</g>
</svg>
