<?xml version="1.0" encoding="utf-8"?>
<!-- Generator: Adobe Illustrator 16.0.0, SVG Export Plug-In . SVG Version: 6.00 Build 0)  -->
<!DOCTYPE svg PUBLIC "-//W3C//DTD SVG 1.1//EN" "http://www.w3.org/Graphics/SVG/1.1/DTD/svg11.dtd">
<svg version="1.1" id="Layer_1" xmlns="http://www.w3.org/2000/svg" xmlns:xlink="http://www.w3.org/1999/xlink" x="0px" y="0px"
	 width="85px" height="85px" viewBox="0 0 85 85" enable-background="new 0 0 85 85" xml:space="preserve">
<g>
	<path fill-rule="evenodd" clip-rule="evenodd" d="M2.544,19.33c0-3.439,0.017-6.879-0.012-10.319
		C2.526,8.138,2.861,7.633,3.668,7.292C7.219,5.79,10.752,4.247,14.29,2.713c0.462-0.2,0.899-0.223,1.401-0.091
		C23.62,4.711,31.554,6.78,39.486,8.856c1.194,0.312,1.438,0.636,1.438,1.857c0.001,6.288-0.011,12.576,0.013,18.864
		c0.004,0.852-0.287,1.395-1.034,1.817c-3.522,1.993-7.028,4.016-10.528,6.048c-0.58,0.337-1.13,0.367-1.765,0.199
		c-7.953-2.103-15.91-4.189-23.865-6.281c-0.882-0.232-1.197-0.631-1.198-1.551C2.542,26.317,2.544,22.824,2.544,19.33z"/>
	<path fill-rule="evenodd" clip-rule="evenodd" d="M35.458,54.474C35.463,57.32,34.8,60,33.395,62.479
		c-0.244,0.431-0.219,0.682,0.149,1.014c0.816,0.739,1.594,1.521,2.375,2.298c0.244,0.243,0.453,0.354,0.835,0.266
		c1.019-0.238,1.887,0.085,2.638,0.82c2.65,2.592,5.322,5.163,7.972,7.755c1.32,1.29,1.344,2.779,0.08,4.111
		c-0.906,0.955-1.822,1.9-2.754,2.831c-1.225,1.224-2.74,1.238-3.993,0.03c-2.688-2.593-5.356-5.205-8.048-7.793
		c-0.76-0.73-1.113-1.587-0.892-2.61c0.086-0.398-0.057-0.593-0.299-0.823c-0.739-0.704-1.494-1.395-2.193-2.137
		c-0.363-0.387-0.601-0.402-1.05-0.1c-6.874,4.636-15.902,3.596-21.406-2.607C2.517,60.696,1.36,55.035,3.563,48.962
		c2.187-6.03,6.641-9.659,13.002-10.675C26.458,36.707,35.449,44.465,35.458,54.474z"/>
	<path fill-rule="evenodd" clip-rule="evenodd" d="M57.871,24.522c0,1.316,0.008,2.633-0.002,3.949
		c-0.01,1.552-0.955,2.544-2.484,2.556c-2.633,0.02-5.266,0.02-7.898,0c-1.451-0.011-2.465-0.958-2.486-2.403
		c-0.041-2.712-0.045-5.427,0.006-8.14c0.025-1.418,1.027-2.329,2.449-2.339c2.66-0.018,5.32-0.017,7.979-0.001
		c1.453,0.009,2.416,0.979,2.434,2.429C57.885,21.889,57.871,23.206,57.871,24.522z"/>
	<path fill-rule="evenodd" clip-rule="evenodd" d="M51.467,49.417c1.316,0,2.633-0.009,3.949,0.002
		c1.461,0.012,2.439,0.956,2.449,2.402c0.018,2.687,0.018,5.373,0,8.06c-0.01,1.396-0.973,2.393-2.381,2.409
		c-2.686,0.031-5.373,0.029-8.059,0.002c-1.404-0.015-2.4-0.972-2.424-2.383c-0.045-2.713-0.041-5.427-0.004-8.14
		c0.02-1.405,1.025-2.319,2.438-2.352c0.055-0.001,0.107-0.001,0.162-0.001C48.887,49.417,50.176,49.417,51.467,49.417z"/>
	<path fill-rule="evenodd" clip-rule="evenodd" d="M57.871,40.157c0,1.343,0.012,2.687-0.004,4.03
		c-0.014,1.453-0.957,2.455-2.402,2.472c-2.688,0.03-5.373,0.029-8.061-0.001c-1.395-0.016-2.383-0.988-2.404-2.401
		c-0.041-2.686-0.041-5.374-0.002-8.059c0.02-1.468,1.002-2.405,2.459-2.416c2.66-0.019,5.32-0.017,7.979,0
		c1.459,0.009,2.414,0.973,2.432,2.427C57.885,37.524,57.871,38.84,57.871,40.157z"/>
	<path fill-rule="evenodd" clip-rule="evenodd" d="M51.484,2.504c1.291,0,2.58-0.008,3.869,0.002
		c1.549,0.012,2.508,0.964,2.514,2.514c0.012,2.632,0.014,5.265,0,7.898c-0.008,1.487-0.988,2.462-2.482,2.47
		c-2.633,0.014-5.264,0.014-7.896,0C46.043,15.38,45.023,14.438,45,12.99c-0.043-2.686-0.041-5.373-0.002-8.059
		c0.02-1.492,1.025-2.41,2.537-2.425C48.852,2.494,50.168,2.504,51.484,2.504z"/>
	<path fill-rule="evenodd" clip-rule="evenodd" d="M72.125,60.072c-2.928,0-5.857,0.004-8.787-0.003
		c-0.949-0.002-1.508-0.494-1.506-1.291c0.004-0.771,0.547-1.278,1.438-1.282c2.363-0.012,4.729-0.004,7.094-0.004
		c3.547,0,7.094-0.005,10.641,0.003c0.969,0.001,1.572,0.565,1.516,1.374c-0.053,0.751-0.607,1.199-1.527,1.2
		C78.037,60.075,75.082,60.072,72.125,60.072z"/>
	<path fill-rule="evenodd" clip-rule="evenodd" d="M72.166,44.436c-2.902,0-5.805,0.002-8.705-0.001
		c-1.047-0.001-1.609-0.438-1.629-1.249c-0.02-0.845,0.566-1.329,1.639-1.329c5.803-0.002,11.607-0.002,17.412,0
		c1.031,0,1.615,0.456,1.639,1.259c0.023,0.832-0.578,1.318-1.648,1.319C77.971,44.438,75.068,44.436,72.166,44.436z"/>
	<path fill-rule="evenodd" clip-rule="evenodd" d="M72.135,13.167c-2.902,0-5.803,0.003-8.705-0.001
		c-1.035-0.002-1.596-0.46-1.598-1.278s0.572-1.298,1.588-1.298c5.832-0.004,11.662-0.004,17.494,0c1.016,0,1.605,0.484,1.607,1.291
		c0.002,0.809-0.576,1.284-1.6,1.286C77.992,13.17,75.064,13.167,72.135,13.167z"/>
	<path fill-rule="evenodd" clip-rule="evenodd" d="M72.092,28.801c-2.875,0-5.752,0.002-8.627-0.001
		c-1.045-0.001-1.611-0.438-1.633-1.243c-0.023-0.844,0.568-1.334,1.633-1.334c5.83-0.002,11.662,0.001,17.492-0.005
		c0.607,0,1.111,0.149,1.416,0.722c0.24,0.449,0.191,0.884-0.078,1.295c-0.314,0.481-0.797,0.573-1.336,0.571
		C78.002,28.796,75.047,28.801,72.092,28.801z"/>
	<path fill-rule="evenodd" clip-rule="evenodd" d="M72.215,20.362c2.82,0,5.643,0,8.463,0.001c0.242,0,0.486-0.01,0.725,0.021
		c0.682,0.091,1.061,0.517,1.107,1.179c0.045,0.63-0.273,1.089-0.887,1.276c-0.275,0.084-0.58,0.099-0.871,0.099
		c-5.723,0.005-11.445,0.004-17.168,0.003c-0.189,0-0.379,0.008-0.564-0.018c-0.77-0.109-1.227-0.644-1.186-1.369
		c0.039-0.686,0.52-1.164,1.273-1.182c1.182-0.028,2.363-0.011,3.545-0.012C68.506,20.362,70.361,20.362,72.215,20.362z"/>
	<path fill-rule="evenodd" clip-rule="evenodd" fill="#010101" d="M72.207,35.991c2.822,0,5.643-0.001,8.463,0.001
		c0.27,0,0.541-0.008,0.805,0.039c0.639,0.112,0.992,0.534,1.035,1.159c0.045,0.631-0.268,1.091-0.879,1.282
		c-0.275,0.086-0.58,0.095-0.873,0.095c-5.723,0.005-11.445,0.005-17.168,0.001c-0.266,0-0.541-0.005-0.797-0.069
		c-0.668-0.166-0.988-0.632-0.951-1.303c0.037-0.675,0.418-1.094,1.098-1.175c0.373-0.045,0.752-0.029,1.127-0.03
		C66.781,35.99,69.494,35.991,72.207,35.991z"/>
	<path fill-rule="evenodd" clip-rule="evenodd" d="M72.252,4.732c2.875,0,5.75-0.002,8.625,0.001
		c1.061,0.001,1.621,0.427,1.645,1.233c0.027,0.819-0.598,1.343-1.645,1.344c-5.805,0.004-11.609,0.005-17.412,0
		c-1.137,0-1.746-0.583-1.615-1.504c0.1-0.697,0.584-1.069,1.455-1.071C66.287,4.728,69.27,4.732,72.252,4.732z"/>
	<path fill-rule="evenodd" clip-rule="evenodd" fill="#010101" d="M72.123,54.197c-2.82,0-5.641,0.001-8.463-0.002
		c-0.268-0.001-0.539,0.002-0.801-0.048c-0.678-0.13-1.025-0.578-1.021-1.248c0.002-0.669,0.354-1.116,1.033-1.234
		c0.289-0.051,0.588-0.047,0.883-0.047c5.615-0.003,11.23-0.002,16.846-0.002c0.08,0,0.16-0.001,0.24,0
		c1.086,0.017,1.688,0.479,1.684,1.296c-0.004,0.815-0.609,1.281-1.695,1.283C77.926,54.2,75.025,54.197,72.123,54.197z"/>
	<path fill-rule="evenodd" clip-rule="evenodd" fill="#EBB978" d="M5.184,10.327c1.536,0.402,3.06,0.8,4.583,1.2
		c5.521,1.449,11.039,2.911,16.568,4.33c0.62,0.159,0.785,0.402,0.782,1.021c-0.025,5.694-0.026,11.389,0,17.083
		c0.003,0.686-0.094,0.854-0.824,0.66c-6.862-1.828-13.734-3.616-20.606-5.409c-0.37-0.097-0.575-0.21-0.574-0.674
		c0.02-5.963,0.014-11.926,0.017-17.889C5.129,10.569,5.155,10.491,5.184,10.327z"/>
	<path fill-rule="evenodd" clip-rule="evenodd" fill="#E2A66F" d="M38.344,12.285c0,5.582-0.001,11.087,0.002,16.593
		c0,0.254-0.034,0.448-0.294,0.597c-2.745,1.566-5.482,3.146-8.199,4.71c-0.266-0.172-0.167-0.379-0.167-0.546
		c-0.006-5.668-0.004-11.336-0.007-17.004c0-0.377-0.028-0.703,0.443-0.9c2.644-1.11,5.272-2.257,7.908-3.389
		C38.099,12.314,38.182,12.314,38.344,12.285z"/>
	<path fill-rule="evenodd" clip-rule="evenodd" fill="#C38858" d="M8.014,8.391C8.23,8.059,8.513,8.03,8.747,7.929
		c1.845-0.802,3.702-1.576,5.535-2.403c0.597-0.27,1.132-0.317,1.773-0.146c6.348,1.69,12.704,3.349,19.058,5.018
		c0.095,0.025,0.188,0.061,0.292,0.094c-0.064,0.302-0.319,0.304-0.494,0.38c-1.966,0.859-3.938,1.705-5.907,2.559
		c-0.399,0.173-0.784,0.282-1.239,0.162C21.207,11.856,14.646,10.135,8.014,8.391z"/>
	<path fill-rule="evenodd" clip-rule="evenodd" fill="#89C8FD" d="M32.869,54.494c0.015,7.681-6.184,13.919-13.844,13.934
		c-7.639,0.014-13.899-6.243-13.899-13.892c0-7.669,6.223-13.879,13.897-13.868C26.681,40.679,32.854,46.844,32.869,54.494z"/>
	<path fill-rule="evenodd" clip-rule="evenodd" fill="#F0B983" d="M45.777,76.718c-0.109,0.126-0.189,0.229-0.279,0.322
		c-0.818,0.849-1.656,1.682-2.453,2.551c-0.307,0.336-0.484,0.25-0.761-0.021c-2.551-2.493-5.108-4.979-7.676-7.455
		c-0.291-0.28-0.344-0.458-0.028-0.767c0.825-0.805,1.631-1.631,2.413-2.478c0.312-0.339,0.491-0.244,0.77,0.027
		c2.553,2.492,5.117,4.971,7.677,7.455C45.553,76.461,45.652,76.582,45.777,76.718z"/>
	<path fill-rule="evenodd" clip-rule="evenodd" fill="#A599A5" d="M31.565,65.185c0.16,0.142,0.262,0.225,0.356,0.316
		c0.71,0.689,1.401,1.4,2.135,2.064c0.341,0.309,0.184,0.487-0.061,0.69c-0.236,0.195-0.39,0.649-0.819,0.213
		c-0.694-0.706-1.418-1.382-2.125-2.074c-0.142-0.14-0.378-0.266-0.139-0.516C31.127,65.653,31.34,65.424,31.565,65.185z"/>
	<path fill-rule="evenodd" clip-rule="evenodd" fill="#89C8FD" d="M47.689,20.763c2.42-0.006,4.842-0.011,7.262-0.017
		c0.27,0.561,0.199,1.131,0.057,1.704c-0.32,0.227-0.486-0.077-0.691-0.211c-0.701-0.458-1.135-0.417-1.668,0.24
		c-0.355,0.438-0.742,0.85-1.08,1.301c-0.355,0.472-0.764,0.566-1.217,0.117c-0.115-0.113-0.238-0.22-0.373-0.307
		c-0.539-0.347-1.104-0.32-1.467,0.09c-0.426,0.481-0.375,1.008-0.004,1.469c0.523,0.646,1.107,1.249,1.77,1.756
		c0.652,0.502,1.188,0.403,1.814-0.318c0.773-0.892,1.492-1.832,2.254-2.734c0.162-0.192,0.314-0.682,0.721-0.231
		c0.1,1.179,0.051,2.359,0.031,3.538c-0.012,0.743-0.416,1.123-1.178,1.134c-1.877,0.026-3.754,0.012-5.631,0.006
		c-0.324-0.001-0.678,0.011-0.67-0.472C47.658,25.473,47.529,23.117,47.689,20.763z"/>
	<path fill-rule="evenodd" clip-rule="evenodd" fill="#5FB3F9" d="M54.824,22.506c0.277-0.569,0.064-1.174,0.127-1.76
		c0.33-0.081,0.342,0.13,0.342,0.365c0,2.307-0.008,4.614,0.006,6.92c0.002,0.384-0.182,0.428-0.494,0.427
		c-2.254-0.008-4.506-0.008-6.76,0c-0.324,0.001-0.494-0.076-0.492-0.442c0.014-2.387,0.014-4.774,0.023-7.161
		c0-0.031,0.074-0.062,0.113-0.093c0.002,2.199,0.023,4.398-0.002,6.597c-0.008,0.572,0.115,0.812,0.748,0.797
		c1.742-0.041,3.486-0.008,5.23-0.017c0.926-0.005,1.301-0.345,1.279-1.249c-0.029-1.143,0.15-2.295-0.113-3.43
		C54.59,23.145,54.605,22.826,54.824,22.506z"/>
	<path fill-rule="evenodd" clip-rule="evenodd" fill="#88C7FD" d="M51.406,51.997c1.127,0,2.254,0.012,3.381-0.007
		c0.375-0.006,0.508,0.105,0.506,0.498c-0.018,2.227-0.018,4.453-0.002,6.679c0.004,0.411-0.107,0.558-0.539,0.554
		c-2.199-0.02-4.398-0.02-6.6,0c-0.457,0.005-0.6-0.142-0.596-0.595c0.018-2.199,0.018-4.398-0.002-6.599
		c-0.004-0.432,0.143-0.547,0.553-0.539C49.207,52.012,50.307,51.997,51.406,51.997z"/>
	<path fill-rule="evenodd" clip-rule="evenodd" fill="#89C8FD" d="M47.689,36.401c2.42-0.006,4.842-0.012,7.262-0.018
		c0.27,0.561,0.197,1.133,0.059,1.707c-0.273,0.218-0.439-0.032-0.627-0.155c-0.785-0.516-1.199-0.478-1.799,0.224
		c-0.332,0.387-0.637,0.796-0.959,1.191c-0.498,0.613-0.715,0.631-1.322,0.142c-0.209-0.168-0.404-0.354-0.67-0.432
		c-0.449-0.131-0.852-0.072-1.166,0.309c-0.289,0.351-0.332,0.757-0.107,1.125c0.541,0.878,1.26,1.608,2.121,2.165
		c0.58,0.375,1.102,0.197,1.668-0.494c0.746-0.913,1.49-1.83,2.246-2.734c0.162-0.193,0.334-0.573,0.672-0.167
		c0.1,1.151,0.043,2.303,0.035,3.452c-0.004,0.721-0.406,1.183-1.129,1.205c-1.953,0.062-3.908,0.029-5.861,0.017
		c-0.314-0.002-0.502-0.132-0.494-0.481C47.662,41.104,47.529,38.751,47.689,36.401z"/>
	<path fill-rule="evenodd" clip-rule="evenodd" fill="#5EB2F7" d="M47.689,36.401c0.002,2.222,0.021,4.443-0.002,6.665
		c-0.006,0.563,0.17,0.739,0.73,0.729c1.713-0.03,3.428-0.001,5.141-0.015c1.033-0.009,1.422-0.389,1.387-1.416
		c-0.037-1.087,0.166-2.184-0.115-3.262c-0.236-0.317-0.229-0.635-0.006-0.955c0.275-0.571,0.064-1.178,0.127-1.764
		c0.33-0.082,0.344,0.131,0.342,0.364c0,2.306-0.006,4.611,0.006,6.917c0.002,0.382-0.182,0.43-0.496,0.429
		c-2.252-0.008-4.504-0.008-6.756,0c-0.322,0.001-0.496-0.076-0.494-0.442c0.012-2.386,0.012-4.771,0.021-7.157
		C47.574,36.463,47.65,36.432,47.689,36.401z"/>
	<path fill-rule="evenodd" clip-rule="evenodd" fill="#89C8FD" d="M47.689,5.124c2.42-0.005,4.842-0.01,7.262-0.015
		c0.27,0.56,0.201,1.13,0.055,1.702c-0.318,0.222-0.484-0.079-0.689-0.213c-0.699-0.457-1.127-0.41-1.668,0.233
		c-0.377,0.451-0.727,0.927-1.113,1.37c-0.363,0.415-0.754,0.479-1.17,0.067c-0.115-0.113-0.234-0.223-0.371-0.308
		c-0.5-0.308-1.01-0.405-1.461,0.062c-0.445,0.459-0.408,0.996-0.041,1.459c0.531,0.671,1.135,1.289,1.82,1.806
		c0.621,0.469,1.035,0.42,1.625-0.178c0.885-0.897,1.574-1.961,2.408-2.901c0.17-0.189,0.316-0.677,0.721-0.23
		c0.098,1.18,0.053,2.359,0.031,3.538c-0.012,0.744-0.414,1.124-1.176,1.135c-1.877,0.027-3.754,0.013-5.631,0.006
		c-0.324-0.001-0.68,0.014-0.672-0.469C47.658,9.833,47.529,7.478,47.689,5.124z"/>
	<path fill-rule="evenodd" clip-rule="evenodd" fill="#5FB3F8" d="M47.689,5.124c0.002,2.198,0.023,4.397-0.002,6.595
		c-0.008,0.574,0.119,0.811,0.75,0.795c1.742-0.041,3.486-0.007,5.229-0.017c0.926-0.004,1.301-0.345,1.279-1.248
		c-0.027-1.144,0.148-2.295-0.111-3.431c-0.158-0.316-0.246-0.633-0.014-0.955c0.283-0.567,0.066-1.172,0.131-1.756
		c0.328-0.08,0.342,0.127,0.342,0.364c0,2.306-0.006,4.613,0.006,6.919c0.002,0.385-0.184,0.427-0.496,0.426
		c-2.252-0.008-4.506-0.008-6.758,0c-0.322,0.001-0.494-0.075-0.492-0.442c0.014-2.387,0.012-4.773,0.021-7.16
		C47.576,5.185,47.65,5.155,47.689,5.124z"/>
	<path fill-rule="evenodd" clip-rule="evenodd" d="M6.832,54.51c0.018-6.734,5.487-12.179,12.219-12.164
		c6.666,0.014,12.139,5.497,12.151,12.171c0.013,6.745-5.502,12.217-12.28,12.186C12.226,66.672,6.814,61.214,6.832,54.51z"/>
	<path fill-rule="evenodd" clip-rule="evenodd" d="M54.824,22.506c0.068,0.317,0.088,0.636,0.008,0.954
		c-0.914,1.155-1.807,2.328-2.75,3.458c-0.582,0.695-1.303,0.721-1.965,0.11c-0.611-0.563-1.201-1.152-1.76-1.766
		c-0.518-0.567-0.486-1.31,0.012-1.804c0.492-0.486,1.232-0.484,1.812,0.005c0.832,0.702,0.832,0.702,1.527-0.163
		c0.236-0.292,0.469-0.587,0.707-0.876C53.24,21.426,54.021,21.454,54.824,22.506z"/>
	<path fill-rule="evenodd" clip-rule="evenodd" d="M51.064,58.712c-0.824,0.004-3.082-2.287-3.068-3.108
		c0.01-0.542,0.277-0.934,0.754-1.135c0.502-0.211,0.984-0.124,1.42,0.249c0.836,0.72,0.842,0.711,1.523-0.131
		c0.32-0.396,0.623-0.808,0.975-1.175c0.514-0.539,1.189-0.58,1.732-0.15c0.545,0.432,0.699,1.13,0.258,1.713
		c-0.855,1.133-1.77,2.22-2.668,3.319C51.756,58.582,51.42,58.677,51.064,58.712z"/>
	<path fill-rule="evenodd" clip-rule="evenodd" d="M54.824,38.147c0.072,0.318,0.08,0.636,0.004,0.955
		c-0.914,1.154-1.809,2.327-2.752,3.457c-0.572,0.684-1.311,0.704-1.967,0.097c-0.59-0.545-1.158-1.117-1.707-1.705
		c-0.559-0.602-0.551-1.354-0.025-1.865c0.514-0.502,1.328-0.527,1.855,0.087c0.588,0.685,0.957,0.619,1.389-0.114
		c0.215-0.366,0.525-0.676,0.801-1.006C53.25,37.057,54.037,37.089,54.824,38.147z"/>
	<path fill-rule="evenodd" clip-rule="evenodd" d="M54.82,6.865c0.066,0.317,0.1,0.635,0.014,0.955
		c-0.932,1.175-1.838,2.372-2.805,3.519c-0.547,0.65-1.268,0.652-1.906,0.064c-0.594-0.543-1.16-1.116-1.711-1.703
		c-0.564-0.604-0.564-1.348-0.047-1.867c0.51-0.512,1.262-0.495,1.871,0.044c0.766,0.676,0.766,0.676,1.418-0.14
		c0.252-0.313,0.502-0.629,0.756-0.939C53.234,5.793,54.012,5.816,54.82,6.865z"/>
	<path fill-rule="evenodd" clip-rule="evenodd" fill="#EBEEF0" d="M9.429,54.569c-0.022-5.289,4.246-9.618,9.506-9.644
		c5.299-0.024,9.653,4.279,9.686,9.572c0.032,5.24-4.281,9.595-9.535,9.625C13.748,64.154,9.452,59.904,9.429,54.569z"/>
</g>
</svg>
