<?xml version="1.0" encoding="utf-8"?>
<!-- Generator: Adobe Illustrator 16.0.0, SVG Export Plug-In . SVG Version: 6.00 Build 0)  -->
<!DOCTYPE svg PUBLIC "-//W3C//DTD SVG 1.1//EN" "http://www.w3.org/Graphics/SVG/1.1/DTD/svg11.dtd">
<svg version="1.1" id="Layer_1" xmlns="http://www.w3.org/2000/svg" xmlns:xlink="http://www.w3.org/1999/xlink" x="0px" y="0px"
	 width="85px" height="85px" viewBox="0 0 85 85" enable-background="new 0 0 85 85" xml:space="preserve">
<g>
	<path fill-rule="evenodd" clip-rule="evenodd" fill="#593200" d="M30.738,62.036c-0.119,0.039-0.152,0.147-0.176,0.246
		c-0.066,0.271-0.22,0.457-0.481,0.555c-0.125,0.022-0.25,0.028-0.374-0.003c-0.111-0.011-0.197-0.069-0.289-0.13
		c-0.978-0.643-1.96-1.278-2.936-1.923c-0.169-0.111-0.287-0.26-0.317-0.483c-0.042-0.311-0.376-0.613-0.692-0.632
		c-0.091-0.006-0.163-0.08-0.254-0.046c-0.112-0.045-0.233,0.009-0.345-0.033c-0.065-0.003-0.131-0.006-0.197-0.009
		c-0.069-0.037-0.149,0.001-0.22-0.03c-0.607-0.039-1.172-0.252-1.739-0.445c-0.161-0.055-0.307-0.154-0.46-0.233
		c-0.049-0.016-0.112-0.007-0.136-0.072c-2.165-1.262-3.342-3.16-3.63-5.632c-0.039-0.112,0.013-0.233-0.032-0.345
		c0-0.159,0-0.317,0-0.476c0.042-0.098-0.004-0.204,0.03-0.303c0.025-0.598,0.183-1.17,0.4-1.719c0.214-0.541,0.499-1.051,0.888-1.5
		c0.299-0.344,0.646-0.598,1.057-0.782c0.252-0.114,0.282-0.203,0.185-0.459c-0.267-0.71-0.593-1.396-0.824-2.119
		c-0.031-0.099-0.055-0.199-0.082-0.298c-0.019-0.11-0.019-0.221,0-0.331c0.053-0.303,0.297-0.432,0.534-0.53
		c0.868-0.36,1.746-0.698,2.619-1.048c0.392-0.156,0.776-0.33,1.191-0.428c0.274-0.065,0.499-0.004,0.704,0.172
		c0.043,0.018,0.075,0.045,0.08,0.095c0.685,1.529,1.253,3.106,1.891,4.655c0.083,0.2,0.225,0.271,0.438,0.308
		c0.738,0.128,1.429,0.376,1.993,0.897c0.024,0.022,0.06,0.032,0.09,0.048c0.073,0.015,0.117,0.058,0.131,0.131
		c0.24,0.297,0.463,0.604,0.634,0.948c0.068,0.04,0.045,0.119,0.076,0.176c0.072,0.289,0.144,0.578,0.216,0.867
		c0.042,0.098-0.011,0.205,0.034,0.303c0.003,0.136,0.007,0.271,0.01,0.405c0.034,0.085-0.008,0.179,0.03,0.264
		c0.038,0.406,0.321,0.579,0.663,0.697c0.057,0.03,0.136,0.009,0.176,0.076c0.637,0.296,1.247,0.645,1.872,0.963
		c0.391,0.199,0.765,0.066,1.128-0.104c0.042-0.02,0.083-0.043,0.125-0.065c0.023-0.069,0.086-0.062,0.14-0.074
		c0.051-0.032,0.102-0.064,0.152-0.096c0.645-0.445,1.287-0.893,1.882-1.404c0.837-0.721,1.613-1.504,2.387-2.289
		c0.135-0.137,0.12-0.224-0.03-0.344c-0.043-0.035-0.093-0.062-0.116-0.116c-0.575-0.345-1.128-0.721-1.654-1.138
		c-0.043-0.007-0.078-0.026-0.097-0.068c-0.493-0.384-0.962-0.796-1.407-1.234c-0.547-0.54-1.047-1.124-1.517-1.732
		c-0.044-0.019-0.064-0.055-0.068-0.101c-0.02-0.021-0.039-0.044-0.058-0.066c-0.044-0.019-0.062-0.055-0.067-0.1
		c-0.46-0.609-0.856-1.259-1.222-1.928c-0.37-0.675-0.699-1.37-0.994-2.081c-0.136-0.327-0.255-0.658-0.375-0.989
		c-0.103-0.285-0.255-0.377-0.561-0.366c-0.626,0.025-1.238-0.041-1.833-0.248c-0.123-0.043-0.228-0.114-0.341-0.171
		c-0.054-0.011-0.107-0.021-0.141-0.071c-0.922-0.596-1.5-1.424-1.703-2.509c-0.042-0.221-0.082-0.44-0.095-0.664
		c-0.036-0.099,0.012-0.206-0.031-0.303c0.017-0.172,0.017-0.345,0-0.517c0.045-0.154-0.006-0.314,0.029-0.47
		c0.01-0.488,0.071-0.971,0.23-1.431c0.178-0.515,0.522-0.927,0.907-1.304c0.18-0.176,0.164-0.161-0.04-0.334
		c-0.356-0.302-0.656-0.66-0.918-1.045c-0.543-0.798-0.862-1.691-1.077-2.623c-0.058-0.249-0.067-0.509-0.098-0.764
		c-0.039-0.083,0.009-0.178-0.033-0.262c-0.002-0.079-0.005-0.159-0.007-0.238c-0.028-0.347-0.026-0.693-0.001-1.04
		c0.003-0.094,0.005-0.187,0.008-0.28c0.042-0.083-0.005-0.178,0.033-0.262c0.046-0.583,0.18-1.148,0.338-1.708
		c0.092-0.575,0.343-1.089,0.602-1.602c0.035-0.068,0.077-0.132,0.114-0.199c0.139-0.254,0.137-0.27-0.138-0.39
		c-0.509-0.22-1.026-0.421-1.482-0.75c-0.711-0.512-1.26-1.151-1.549-1.987c-0.354-1.021-0.224-2.015,0.24-2.969
		c0.476-0.979,1.136-1.819,1.957-2.538c1.727-1.513,3.747-2.459,5.934-3.084c0.541-0.155,1.094-0.259,1.642-0.381
		c0.454-0.101,0.863-0.294,1.231-0.582c1.161-0.906,2.362-1.753,3.626-2.512c2.38-1.428,4.908-2.493,7.607-3.146
		c1.182-0.286,2.377-0.497,3.588-0.605c0.24-0.021,0.484-0.029,0.727-0.028c0.068,0,0.137,0,0.205,0c0.119,0,0.237,0,0.355,0
		c0.095,0,0.189,0,0.284,0c0.102-0.011,0.206,0.024,0.306-0.021c0.459,0,0.917,0,1.375,0c0.112,0.045,0.229,0.01,0.343,0.021
		c0.096,0,0.191,0,0.287,0c0.122,0,0.244,0,0.366,0c0.085,0.007,0.172-0.017,0.255,0.017c1.968,0.149,3.902,0.488,5.806,1.002
		c2.143,0.578,4.213,1.345,6.183,2.374c3.276,1.711,6.061,4.015,8.322,6.939c1.958,2.531,3.286,5.359,3.875,8.515
		c0.302,1.615,0.407,3.246,0.321,4.89c-0.082,1.564-0.312,3.097-0.838,4.578c-0.232,0.654-0.482,1.306-0.857,1.887
		c-0.319,0.495-0.347,0.981-0.263,1.541c0.181,1.202,0.062,2.381-0.514,3.475c-0.556,1.056-1.463,1.611-2.634,1.764
		c-0.256,0.033-0.512,0.037-0.769,0.038c-0.438,0.002-0.646,0.139-0.802,0.554c-0.422,1.115-0.901,2.202-1.498,3.235
		c-1.593,2.76-3.798,4.89-6.598,6.407c-0.056,0.03-0.111,0.059-0.161,0.095c-0.192,0.139-0.214,0.235-0.08,0.435
		c0.355,0.529,0.723,1.051,1.072,1.584c1.579,2.405,2.882,4.945,3.745,7.7c0.525,1.678,0.845,3.387,0.802,5.151
		c-0.018,0.729-0.087,1.454-0.221,2.172c-0.066,0.356,0.009,0.468,0.368,0.47c1.062,0.008,2.123,0,3.184,0.001
		c2.277,0.002,4.554,0.006,6.83,0.01c0.062,0,0.124,0.005,0.187,0.011c0.506,0.05,0.7,0.26,0.704,0.766
		c0.001,0.145,0.012,0.295-0.018,0.435c-0.062,0.301-0.383,0.531-0.747,0.557c-0.131,0.009-0.263,0.012-0.395,0.012
		c-2.632,0.001-5.263,0.002-7.895,0c-0.729,0-1.458-0.009-2.187-0.01c-0.455-0.001-0.591,0.102-0.717,0.532
		c-0.173,0.592-0.425,1.154-0.65,1.726c-0.021,0.052-0.045,0.103-0.062,0.155c-0.079,0.237-0.032,0.322,0.224,0.34
		c0.667,0.046,1.139,0.395,1.489,0.936c0.109,0.168,0.214,0.34,0.311,0.516c0.94,1.703,1.877,3.408,2.818,5.111
		c0.489,0.885,0.989,1.763,1.478,2.647c0.146,0.266,0.298,0.535,0.187,0.862c-0.139,0.408-0.535,0.614-0.956,0.514
		c-1.319-0.317-2.648-0.593-3.99-0.8c-1.055-0.163-2.112-0.307-3.174-0.408c-1.319-0.126-2.643-0.196-3.968-0.23
		c-1.743-0.045-3.483,0.001-5.22,0.147c-1.597,0.136-3.18,0.368-4.751,0.681c-0.371,0.073-0.733,0.049-1.092-0.041
		c-0.911-0.229-1.843-0.324-2.771-0.432c-0.979-0.112-1.961-0.184-2.945-0.227c-1.207-0.052-2.414-0.059-3.621-0.034
		c-1.423,0.028-2.842,0.119-4.257,0.261c-2.282,0.229-4.555,0.525-6.793,1.043c-0.294,0.067-0.578,0.137-0.864-0.015
		c-0.045-0.006-0.081-0.023-0.1-0.067c-0.409-0.298-0.344-0.846-0.092-1.219c0.034-0.05,0.066-0.101,0.1-0.151
		c0.013-0.053,0.004-0.116,0.071-0.141c0.405-0.731,0.808-1.464,1.215-2.194c0.303-0.541,0.615-1.076,0.917-1.617
		c0.253-0.454,0.494-0.914,0.746-1.369c0.248-0.447,0.515-0.885,0.75-1.34c0.245-0.473,0.542-0.918,0.756-1.407
		c0.249-0.568,0.702-0.827,1.296-0.942c0.875-0.17,1.738-0.403,2.612-0.58c0.566-0.114,1.143-0.176,1.714-0.261
		c0.069-0.039,0.151,0.005,0.22-0.034c0.024-0.002,0.048-0.004,0.071-0.005c0.097-0.049,0.207,0.009,0.304-0.037
		c0.023-0.002,0.047-0.005,0.071-0.007c0.083-0.042,0.179,0.008,0.262-0.034c0.024-0.002,0.047-0.004,0.071-0.006
		c0.111-0.049,0.234,0.011,0.346-0.036c0.023-0.002,0.047-0.004,0.071-0.005c0.125-0.051,0.262,0.012,0.387-0.037
		c0.024-0.002,0.048-0.003,0.071-0.005c0.154-0.051,0.316,0.012,0.471-0.036c0.051-0.004,0.103-0.007,0.155-0.01
		c0.155-0.042,0.316,0.015,0.47-0.032c0.121-0.004,0.242-0.008,0.363-0.011c0.225-0.039,0.454,0.016,0.678-0.031
		c0.742,0,1.483,0,2.226,0c0.196,0.047,0.398-0.009,0.595,0.031c0.135,0.003,0.271,0.007,0.405,0.011
		c0.168,0.048,0.343-0.011,0.512,0.032c0.052,0.003,0.104,0.006,0.155,0.01c0.14,0.048,0.288-0.014,0.429,0.034
		c0.023,0.003,0.047,0.005,0.071,0.007c0.125,0.048,0.261-0.012,0.387,0.035c0.023,0.002,0.048,0.005,0.071,0.007
		c0.111,0.047,0.234-0.013,0.346,0.036c0.023,0.002,0.047,0.004,0.071,0.006c0.083,0.041,0.178-0.006,0.262,0.032
		c0.025,0.002,0.051,0.005,0.077,0.008c0.08,0.048,0.176-0.01,0.256,0.038c0.024,0.001,0.048,0.003,0.072,0.005
		c0.068,0.039,0.15-0.005,0.22,0.034c0.552,0.099,1.103,0.202,1.655,0.293c0.327,0.055,0.639-0.05,0.955-0.113
		c0.363-0.074,0.732-0.121,1.099-0.18c0.083-0.041,0.179,0.008,0.262-0.034c0.024-0.003,0.048-0.006,0.072-0.009
		c0.084-0.038,0.178,0.009,0.262-0.033c0.023-0.002,0.047-0.003,0.071-0.005c0.097-0.048,0.206,0.009,0.304-0.036
		c0.011,0.009,0.021,0.008,0.029-0.004c0.11-0.053,0.234,0.01,0.346-0.038c0.023-0.002,0.047-0.004,0.07-0.005
		c0.126-0.051,0.262,0.012,0.388-0.037c0.038-0.002,0.075-0.005,0.113-0.007c0.14-0.047,0.288,0.014,0.428-0.034
		c0.066-0.004,0.132-0.007,0.197-0.01c0.152-0.044,0.312,0.018,0.464-0.034c0.221,0.017,0.269-0.149,0.327-0.307
		c0.052-0.072-0.006-0.162,0.037-0.236c0.05-0.353,0.25-0.633,0.442-0.916c0.045-0.065,0.094-0.128,0.16-0.217
		c-0.102,0-0.174,0-0.247,0c-12.745,0-25.49,0-38.235,0c-0.131,0-0.263,0.002-0.395,0.003c-0.069-0.037-0.149,0.001-0.22-0.03
		c-0.29-0.026-0.543-0.101-0.717-0.372c-0.251-0.394-0.121-1.061,0.282-1.291c0.13-0.074,0.287-0.078,0.435-0.099
		c0.152-0.024,0.305-0.024,0.457,0c0.653,0,1.306,0,1.959,0c0.067-0.028,0.137-0.015,0.206-0.015c4.126-0.001,8.252-0.001,12.379,0
		c0.068,0,0.139-0.013,0.206,0.014c0.943,0.004,1.885,0.009,2.828,0.011c1.067,0.002,2.135,0.001,3.203,0.002
		c0.104,0,0.208,0,0.303-0.051c0.032-0.048,0.083-0.062,0.134-0.077c0.084-0.059,0.059-0.172,0.12-0.242
		c0.04-0.434,0.014-0.868,0.015-1.303c0.001-0.296,0.025-0.593-0.015-0.889c0.018-0.741,0.018-1.483,0-2.225
		c0.04-0.198,0.015-0.398,0.016-0.598c0.004-0.553,0.002-1.105,0-1.658c0-0.067,0.02-0.139-0.021-0.202
		c-0.068-0.018-0.125-0.021-0.191,0.029c-0.769,0.58-1.601,1.062-2.435,1.54c-0.071,0.04-0.138,0.086-0.207,0.13
		c-0.023,0.068-0.086,0.061-0.139,0.074c-0.487,0.208-0.944,0.479-1.441,0.668c-0.3,0.115-0.614,0.169-0.92,0.254
		c-0.08,0.051-0.176-0.009-0.256,0.039l-0.019-0.005l-0.017,0.009c-0.375,0.033-0.75,0.027-1.125,0.003
		c-0.023-0.003-0.046-0.006-0.07-0.009c-0.07-0.037-0.152,0.006-0.222-0.034c-0.387-0.029-0.749-0.166-1.1-0.31
		c-0.409-0.166-0.837-0.283-1.23-0.486C30.915,62.004,30.827,62.012,30.738,62.036z"/>
	<path fill-rule="evenodd" clip-rule="evenodd" fill="#FE5952" d="M4.621,21.332c0.194-1.973,0.776-3.808,1.918-5.447
		c0.25-0.359,0.519-0.703,0.81-1.03c0.421-0.474,1.052-0.511,1.442-0.089c0.332,0.358,0.332,0.785-0.015,1.176
		c-0.226,0.255-0.444,0.514-0.646,0.789c-0.794,1.081-1.275,2.295-1.545,3.6c-0.144,0.692-0.257,1.389-0.25,2.1
		c0.006,0.701,0.146,1.376,0.422,2.019c0.325,0.752,0.939,1.123,1.718,1.253c0.447,0.075,0.897,0.071,1.347,0.014
		c0.513-0.065,0.841-0.368,1.03-0.83c0.304-0.747,0.65-1.468,1.14-2.115c0.816-1.08,1.859-1.877,3.055-2.489
		c0.512-0.262,1.032-0.509,1.59-0.657c0.758-0.202,1.438-0.059,1.974,0.535c0.551,0.611,0.694,1.326,0.444,2.112
		c-0.218,0.684-0.674,1.206-1.18,1.686c-0.912,0.866-2.013,1.442-3.123,2c-0.601,0.302-1.215,0.573-1.847,0.805
		c-0.104,0.038-0.209,0.077-0.306,0.129c-0.207,0.111-0.229,0.244-0.065,0.413c0.303,0.312,0.683,0.506,1.107,0.517
		c1.341,0.036,2.633-0.198,3.838-0.82c0.042-0.022,0.079-0.055,0.118-0.083c0.367-0.228,0.668-0.551,1.069-0.73
		c0.342-0.153,0.695-0.28,1.063-0.349c0.381-0.072,0.769,0.151,0.921,0.511c0.196,0.465,0.055,0.818-0.246,1.079
		c-0.437,0.38-0.935,0.675-1.458,0.918c-0.575,0.267-0.922,0.711-1.044,1.313c-0.16,0.787,0.285,1.5,1.181,1.546
		c0.336,0.034,0.672,0.033,1.008,0.001c0.322,0.01,0.635-0.075,0.955-0.095c0.068-0.029,0.146,0.011,0.212-0.03
		c0.197,0.035,0.385-0.048,0.592-0.013c0.429,0.073,0.635,0.337,0.743,0.721c0.022,0.11,0.018,0.219,0.003,0.329
		c-0.124,0.465-0.361,0.661-0.83,0.706c-0.228,0.021-0.454,0.062-0.681,0.093c-0.067,0.039-0.147-0.009-0.213,0.035
		c-0.026,0.001-0.052,0.003-0.078,0.005c-0.095,0.045-0.203-0.013-0.297,0.036c-0.026,0.002-0.052,0.003-0.078,0.005
		c-0.123,0.048-0.257-0.015-0.38,0.037c-0.067,0.001-0.135,0.003-0.203,0.005c-0.18,0.027-0.36,0.029-0.541-0.001
		c-0.04-0.001-0.08-0.002-0.119-0.003c-0.109-0.052-0.23,0.012-0.339-0.038c-1.386-0.17-2.526-1.095-2.713-2.503
		c-0.041-0.081,0.011-0.175-0.035-0.255c0.017-0.227,0.001-0.452-0.035-0.677c-0.009-0.057-0.045-0.081-0.08-0.112
		c-0.104-0.026-0.207-0.03-0.31,0.002c-0.304,0.045-0.608,0.091-0.913,0.136c-0.068,0.029-0.146-0.011-0.212,0.03
		c-0.481,0.008-0.963,0.014-1.437-0.084c-0.588-0.122-1.138-0.316-1.603-0.731c-0.34-0.304-0.578-0.664-0.765-1.07
		c-0.119-0.258-0.202-0.298-0.483-0.273c-0.082,0.037-0.174-0.013-0.255,0.033C9.912,27.5,9.83,27.502,9.748,27.505
		c-0.124,0.042-0.257-0.016-0.38,0.034c-0.204,0-0.408,0-0.612,0c-0.109-0.049-0.229,0.008-0.338-0.034
		c-0.969-0.078-1.799-0.468-2.504-1.13c-0.3-0.188-0.47-0.487-0.643-0.776c-0.435-0.729-0.671-1.518-0.666-2.373
		c0-0.105,0-0.209,0-0.314c-0.012-0.179,0.024-0.36-0.021-0.537c0-0.069,0-0.139,0-0.208c0.045-0.11,0.01-0.226,0.021-0.339
		c0-0.083,0-0.165,0-0.247C4.612,21.497,4.587,21.412,4.621,21.332z"/>
	<path fill-rule="evenodd" clip-rule="evenodd" fill="#FE9E99" d="M4.583,22.375c0.08,0.177,0.031,0.363,0.037,0.545
		c-0.014,0.016-0.026,0.014-0.037-0.003C4.583,22.735,4.583,22.555,4.583,22.375z"/>
	<path fill-rule="evenodd" clip-rule="evenodd" fill="#B29D83" d="M51.035,2.534c-0.124,0.001-0.248,0.001-0.373,0.002
		c-0.012-0.009-0.015-0.017-0.011-0.025c0.005-0.008,0.01-0.011,0.014-0.011c0.125,0,0.25,0,0.375,0
		c0.015,0.01,0.019,0.018,0.013,0.025C51.047,2.531,51.041,2.534,51.035,2.534z"/>
	<path fill-rule="evenodd" clip-rule="evenodd" fill="#B29D83" d="M54.001,2.536c-0.124,0-0.249-0.001-0.373-0.001
		c-0.017-0.006-0.022-0.013-0.019-0.021C53.614,2.504,53.618,2.5,53.623,2.5c0.125,0,0.25,0,0.375,0
		c0.013,0.007,0.018,0.015,0.015,0.023C54.009,2.532,54.005,2.536,54.001,2.536z"/>
	<path fill-rule="evenodd" clip-rule="evenodd" fill="#6E4A1E" d="M53.334,2.539c-0.111-0.013-0.231,0.042-0.336-0.039
		c0.111,0,0.223,0,0.334,0c0.013,0.008,0.018,0.016,0.014,0.025S53.338,2.539,53.334,2.539z"/>
	<path fill-rule="evenodd" clip-rule="evenodd" fill="#FCD2CF" d="M4.583,22.916c0.012,0.001,0.024,0.003,0.037,0.003
		c0,0.11,0.001,0.221,0.001,0.332c-0.013,0-0.025-0.001-0.038-0.001C4.583,23.138,4.583,23.027,4.583,22.916z"/>
	<path fill-rule="evenodd" clip-rule="evenodd" fill="#FE756F" d="M4.623,21.831c-0.013,0.112,0.041,0.231-0.04,0.335
		c0-0.111,0-0.222,0-0.333C4.595,21.814,4.609,21.814,4.623,21.831z"/>
	<path fill-rule="evenodd" clip-rule="evenodd" fill="#8B6D48" d="M51.035,2.534c0.002-0.011,0.003-0.023,0.005-0.034
		c0.098,0,0.194,0,0.292,0c0.014,0.009,0.018,0.019,0.013,0.027c-0.006,0.008-0.011,0.012-0.016,0.012
		C51.231,2.538,51.133,2.536,51.035,2.534z"/>
	<path fill-rule="evenodd" clip-rule="evenodd" fill="#8B6D48" d="M53.334,2.539c-0.002-0.013-0.002-0.026-0.002-0.039
		c0.097,0,0.194,0,0.291,0c0.002,0.011,0.003,0.023,0.005,0.035C53.53,2.536,53.432,2.538,53.334,2.539z"/>
	<path fill-rule="evenodd" clip-rule="evenodd" fill="#6F4A1E" d="M51.329,2.539c0.002-0.013,0.003-0.026,0.003-0.039
		c0.097,0,0.194,0,0.291,0C51.534,2.579,51.428,2.528,51.329,2.539z"/>
	<path fill-rule="evenodd" clip-rule="evenodd" fill="#FE9B97" d="M4.623,21.831c-0.014,0.001-0.027,0.001-0.04,0.002
		c0-0.083,0-0.167,0-0.25c0.011-0.019,0.023-0.019,0.037-0.003C4.621,21.664,4.622,21.747,4.623,21.831z"/>
	<path fill-rule="evenodd" clip-rule="evenodd" fill="#FED1CF" d="M4.62,21.58c-0.013,0.001-0.025,0.002-0.037,0.003
		c0-0.083,0-0.167,0-0.25c0.013-0.001,0.025-0.001,0.038-0.001C4.621,21.414,4.62,21.497,4.62,21.58z"/>
	<path fill-rule="evenodd" clip-rule="evenodd" fill="#E2DAD1" d="M54.001,2.536c-0.003-0.012-0.004-0.024-0.003-0.036
		c0.084,0,0.167,0,0.25,0c0,0.013,0,0.025,0.001,0.038C54.166,2.537,54.084,2.537,54.001,2.536z"/>
	<path fill-rule="evenodd" clip-rule="evenodd" fill="#E0D8CD" d="M50.665,2.5c0.001,0.012,0,0.024-0.003,0.036
		c-0.068,0-0.138,0.001-0.206,0.001c0.001-0.013,0.001-0.025,0.001-0.038C50.526,2.5,50.596,2.5,50.665,2.5z"/>
	<path fill-rule="evenodd" clip-rule="evenodd" fill="#FDFDFD" d="M33.79,67.368c-0.062,0.003-0.125,0.009-0.187,0.009
		c-4.139,0-8.277,0-12.416,0c-0.062,0-0.125-0.005-0.187-0.008c0.064-0.062,0.145-0.036,0.219-0.036
		c4.117-0.001,8.235-0.001,12.353,0C33.645,67.333,33.725,67.308,33.79,67.368z"/>
	<path fill-rule="evenodd" clip-rule="evenodd" fill="#FDFDFD" d="M40.296,62.86c0-0.88,0-1.76,0-2.64c0.007,0,0.014,0,0.021,0
		c0,0.883,0,1.765,0,2.647C40.31,62.865,40.303,62.862,40.296,62.86z"/>
	<path fill-rule="evenodd" clip-rule="evenodd" fill="#FDFDFD" d="M40.296,66.943c0-0.866,0-1.731,0-2.598c0.007,0,0.014,0,0.021,0
		c0,0.868,0,1.737,0,2.605C40.311,66.949,40.303,66.946,40.296,66.943z"/>
	<path fill-rule="evenodd" clip-rule="evenodd" fill="#FDFDFD" d="M40.374,60.137c0.05,0.082,0.021,0.173,0.021,0.259
		c0.003,0.658,0.002,1.316,0.001,1.975c0,0.074,0.018,0.152-0.019,0.225C40.376,61.775,40.375,60.956,40.374,60.137z"/>
	<path fill-rule="evenodd" clip-rule="evenodd" fill="#FDFDFD" d="M40.378,64.819c0.021,0.73,0.065,1.461,0,2.191
		C40.378,66.28,40.378,65.55,40.378,64.819z"/>
	<path fill-rule="evenodd" clip-rule="evenodd" fill="#FDFDFD" d="M39.821,67.321c-0.689,0-1.379,0-2.069,0c0-0.007,0-0.014,0-0.021
		c0.691,0,1.382,0,2.072,0C39.823,67.308,39.822,67.314,39.821,67.321z"/>
	<path fill-rule="evenodd" clip-rule="evenodd" fill="#FDFDFD" d="M33.625,62.878c0.375-0.001,0.75-0.002,1.125-0.003
		c-0.147,0.086-0.307,0.039-0.459,0.036C34.068,62.907,33.842,62.96,33.625,62.878z"/>
	<path fill-rule="evenodd" clip-rule="evenodd" fill="#FDFDFD" d="M8.545,27.592c0.33,0,0.659,0,0.989,0c0,0.006,0,0.013,0,0.02
		c-0.33,0-0.659,0-0.989,0C8.545,27.605,8.545,27.599,8.545,27.592z"/>
	<path fill-rule="evenodd" clip-rule="evenodd" fill="#FDFDFD" d="M25.995,25.542c0,0.347,0,0.693,0.001,1.04
		C25.933,26.235,25.935,25.889,25.995,25.542z"/>
	<path fill-rule="evenodd" clip-rule="evenodd" fill="#FDFDFD" d="M20.089,31.21c-0.336,0.061-0.672,0.067-1.008-0.001
		C19.417,31.209,19.753,31.209,20.089,31.21z"/>
	<path fill-rule="evenodd" clip-rule="evenodd" fill="#FDFDFD" d="M18.386,53.037c0-0.286,0-0.573,0-0.859
		c0.005,0,0.011-0.001,0.016-0.001c0,0.287,0,0.573,0,0.86C18.396,53.037,18.391,53.037,18.386,53.037z"/>
	<path fill-rule="evenodd" clip-rule="evenodd" fill="#FDFDFD" d="M25.905,25.677c0,0.26,0,0.52,0,0.779c-0.007,0-0.014,0-0.021,0
		c0-0.261,0-0.521,0-0.781C25.891,25.675,25.897,25.676,25.905,25.677z"/>
	<path fill-rule="evenodd" clip-rule="evenodd" fill="#FDFDFD" d="M43.844,70.794c-0.224,0.044-0.451,0.038-0.678,0.031
		C43.39,70.752,43.618,70.805,43.844,70.794z"/>
	<path fill-rule="evenodd" clip-rule="evenodd" fill="#FDFDFD" d="M46.664,70.825c-0.199,0.004-0.398,0.014-0.595-0.031
		C46.268,70.804,46.469,70.753,46.664,70.825z"/>
	<path fill-rule="evenodd" clip-rule="evenodd" fill="#FDFDFD" d="M19.292,33.042c0.18,0,0.36,0.001,0.541,0.001
		C19.651,33.106,19.472,33.109,19.292,33.042z"/>
	<path fill-rule="evenodd" clip-rule="evenodd" fill="#FDFDFD" d="M47.581,70.868c-0.172,0.006-0.344,0.019-0.512-0.032
		C47.24,70.848,47.415,70.792,47.581,70.868z"/>
	<path fill-rule="evenodd" clip-rule="evenodd" fill="#FDFDFD" d="M42.178,70.878c-0.154,0.049-0.313,0.033-0.471,0.036
		C41.859,70.832,42.021,70.889,42.178,70.878z"/>
	<path fill-rule="evenodd" clip-rule="evenodd" fill="#FDFDFD" d="M56.713,70.834c-0.151,0.053-0.308,0.04-0.464,0.034
		C56.398,70.791,56.559,70.849,56.713,70.834z"/>
	<path fill-rule="evenodd" clip-rule="evenodd" fill="#FDFDFD" d="M42.803,70.836c-0.154,0.052-0.312,0.036-0.47,0.032
		C42.485,70.795,42.646,70.846,42.803,70.836z"/>
	<path fill-rule="evenodd" clip-rule="evenodd" fill="#FDFDFD" d="M27.032,34.583c0.003,0.158,0.008,0.315-0.029,0.47
		C27.013,34.897,26.962,34.736,27.032,34.583z"/>
	<path fill-rule="evenodd" clip-rule="evenodd" fill="#FDFDFD" d="M19.041,67.369c-0.152,0-0.305,0-0.457,0
		C18.736,67.31,18.888,67.31,19.041,67.369z"/>
	<path fill-rule="evenodd" clip-rule="evenodd" fill="#FDFDFD" d="M30.496,50.258c-0.042-0.052-0.067-0.11-0.076-0.176
		c0.044-0.053,0.09-0.073,0.102,0.017C30.529,50.149,30.506,50.204,30.496,50.258z"/>
	<path fill-rule="evenodd" clip-rule="evenodd" fill="#FDFDFD" d="M48.165,70.912c-0.144-0.002-0.289,0.018-0.429-0.034
		C47.879,70.89,48.027,70.832,48.165,70.912z"/>
	<path fill-rule="evenodd" clip-rule="evenodd" fill="#FDFDFD" d="M31.625,52.87c-0.065-0.01-0.124-0.034-0.176-0.076
		c0.053-0.01,0.108-0.033,0.16-0.026C31.7,52.779,31.674,52.827,31.625,52.87z"/>
	<path fill-rule="evenodd" clip-rule="evenodd" fill="#FDFDFD" d="M56.052,70.878c-0.139,0.052-0.284,0.033-0.428,0.034
		C55.761,70.833,55.909,70.89,56.052,70.878z"/>
	<path fill-rule="evenodd" clip-rule="evenodd" fill="#FDFDFD" d="M40.258,67.253c-0.032,0.047-0.073,0.079-0.134,0.077
		c-0.026-0.018-0.053-0.035-0.084-0.056C40.107,67.213,40.179,67.204,40.258,67.253z"/>
	<path fill-rule="evenodd" clip-rule="evenodd" fill="#FDFDFD" d="M41.636,70.919c-0.125,0.053-0.257,0.033-0.387,0.037
		C41.372,70.876,41.507,70.931,41.636,70.919z"/>
	<path fill-rule="evenodd" clip-rule="evenodd" fill="#FDFDFD" d="M48.623,70.954c-0.13-0.003-0.262,0.014-0.387-0.035
		C48.365,70.93,48.5,70.878,48.623,70.954z"/>
	<path fill-rule="evenodd" clip-rule="evenodd" fill="#FDFDFD" d="M55.511,70.919c-0.125,0.053-0.258,0.033-0.388,0.037
		C55.246,70.876,55.382,70.931,55.511,70.919z"/>
	<path fill-rule="evenodd" clip-rule="evenodd" fill="#FDFDFD" d="M9.368,27.539c0.124-0.046,0.253-0.029,0.38-0.034
		C9.627,27.578,9.495,27.526,9.368,27.539z"/>
	<path fill-rule="evenodd" clip-rule="evenodd" fill="#FDFDFD" d="M29.708,62.834c0.125,0.001,0.249,0.002,0.374,0.003
		C29.957,62.895,29.832,62.899,29.708,62.834z"/>
	<path fill-rule="evenodd" clip-rule="evenodd" fill="#FDFDFD" d="M20.035,33.039c0.124-0.05,0.253-0.031,0.38-0.037
		C20.294,33.08,20.162,33.025,20.035,33.039z"/>
	<path fill-rule="evenodd" clip-rule="evenodd" fill="#FDFDFD" d="M24.875,59.587c0.117-0.009,0.232-0.004,0.345,0.033
		C25.105,59.611,24.984,59.661,24.875,59.587z"/>
	<path fill-rule="evenodd" clip-rule="evenodd" fill="#FDFDFD" d="M24.461,59.635c0.133,0,0.211,0,0.289,0
		C24.666,59.672,24.582,59.678,24.461,59.635z"/>
	<path fill-rule="evenodd" clip-rule="evenodd" fill="#FDFDFD" d="M18.833,33.001c0.113,0.01,0.23-0.011,0.339,0.038
		C19.06,33.025,18.938,33.081,18.833,33.001z"/>
	<path fill-rule="evenodd" clip-rule="evenodd" fill="#FDFDFD" d="M28.832,39.047c0.061-0.005,0.102,0.031,0.141,0.071
		c-0.047,0.013-0.09,0.065-0.144,0.018C28.797,39.107,28.82,39.076,28.832,39.047z"/>
	<path fill-rule="evenodd" clip-rule="evenodd" fill="#FDFDFD" d="M25.923,25.368c0-0.078,0-0.156,0-0.234c0.007,0,0.014,0,0.021,0
		c0,0.077,0,0.154,0,0.232C25.937,25.366,25.93,25.367,25.923,25.368z"/>
	<path fill-rule="evenodd" clip-rule="evenodd" fill="#FDFDFD" d="M20.116,44.834c0,0.11,0,0.221,0,0.331
		C20.063,45.055,20.063,44.944,20.116,44.834z"/>
	<path fill-rule="evenodd" clip-rule="evenodd" fill="#FDFDFD" d="M22.593,32.122c-0.001-0.109-0.002-0.219-0.003-0.329
		C22.646,31.902,22.642,32.012,22.593,32.122z"/>
	<path fill-rule="evenodd" clip-rule="evenodd" fill="#FDFDFD" d="M55.053,70.961c-0.111,0.048-0.229,0.035-0.346,0.038
		C54.814,70.916,54.937,70.972,55.053,70.961z"/>
	<path fill-rule="evenodd" clip-rule="evenodd" fill="#FDFDFD" d="M49.04,70.997c-0.116-0.002-0.234,0.013-0.346-0.036
		C48.81,70.972,48.932,70.917,49.04,70.997z"/>
	<path fill-rule="evenodd" clip-rule="evenodd" fill="#FDFDFD" d="M29.787,49.134c-0.043-0.043-0.087-0.087-0.131-0.131
		C29.79,48.956,29.833,49,29.787,49.134z"/>
	<path fill-rule="evenodd" clip-rule="evenodd" fill="#FDFDFD" d="M41.178,70.961c-0.111,0.049-0.229,0.034-0.346,0.036
		C40.94,70.917,41.062,70.972,41.178,70.961z"/>
	<path fill-rule="evenodd" clip-rule="evenodd" fill="#FDFDFD" d="M18.461,52.82c0.038,0.112,0.034,0.229,0.032,0.345
		C18.422,53.056,18.47,52.936,18.461,52.82z"/>
	<path fill-rule="evenodd" clip-rule="evenodd" fill="#FDFDFD" d="M8.417,27.505c0.114,0.003,0.229-0.008,0.338,0.034
		C8.643,27.527,8.524,27.578,8.417,27.505z"/>
	<path fill-rule="evenodd" clip-rule="evenodd" fill="#FDFDFD" d="M25.939,26.737c0.025,0.083,0.03,0.152-0.004,0.233
		C25.909,26.888,25.904,26.818,25.939,26.737z"/>
	<path fill-rule="evenodd" clip-rule="evenodd" fill="#FDFDFD" d="M15.66,29.456c0.103-0.054,0.206-0.063,0.31-0.002
		C15.866,29.454,15.763,29.455,15.66,29.456z"/>
	<path fill-rule="evenodd" clip-rule="evenodd" fill="#FDFDFD" d="M20.493,32.997c0.095-0.043,0.197-0.033,0.297-0.036
		C20.699,33.035,20.592,32.986,20.493,32.997z"/>
	<path fill-rule="evenodd" clip-rule="evenodd" fill="#FDFDFD" d="M29.827,80.831c-0.002,0.058-0.032,0.102-0.071,0.141
		c-0.013-0.047-0.065-0.09-0.018-0.144C29.767,80.797,29.797,80.82,29.827,80.831z"/>
	<path fill-rule="evenodd" clip-rule="evenodd" fill="#FDFDFD" d="M40.428,71.044c-0.099,0.035-0.201,0.037-0.304,0.037
		C40.218,71.003,40.327,71.054,40.428,71.044z"/>
	<path fill-rule="evenodd" clip-rule="evenodd" fill="#FDFDFD" d="M27.003,35.57c0.035,0.099,0.034,0.201,0.031,0.303
		C26.967,35.778,27.01,35.671,27.003,35.57z"/>
	<path fill-rule="evenodd" clip-rule="evenodd" fill="#FDFDFD" d="M54.678,71.003c-0.099,0.034-0.201,0.04-0.304,0.036
		C54.467,70.962,54.576,71.012,54.678,71.003z"/>
	<path fill-rule="evenodd" clip-rule="evenodd" fill="#FDFDFD" d="M37.402,61.91c0.04-0.037,0.083-0.067,0.139-0.074
		c0.011,0.029,0.035,0.061,0.004,0.09C37.493,61.976,37.449,61.924,37.402,61.91z"/>
	<path fill-rule="evenodd" clip-rule="evenodd" fill="#FDFDFD" d="M25.242,59.676c-0.104,0.047-0.173,0.029-0.276,0.021
		C25.069,59.65,25.139,59.668,25.242,59.676z"/>
	<path fill-rule="evenodd" clip-rule="evenodd" fill="#FDFDFD" d="M30.746,51.428c-0.047-0.097-0.037-0.2-0.034-0.303
		C30.784,51.219,30.737,51.326,30.746,51.428z"/>
	<path fill-rule="evenodd" clip-rule="evenodd" fill="#FDFDFD" d="M18.492,52.042c0.002,0.102,0.001,0.204-0.03,0.303
		C18.469,52.243,18.426,52.137,18.492,52.042z"/>
	<path fill-rule="evenodd" clip-rule="evenodd" fill="#FDFDFD" d="M22.124,58.797c0.045,0.024,0.09,0.049,0.136,0.072
		C22.187,58.897,22.089,58.972,22.124,58.797z"/>
	<path fill-rule="evenodd" clip-rule="evenodd" fill="#FDFDFD" d="M34.889,53.589c-0.039,0.04-0.085,0.065-0.14,0.074
		c-0.01-0.029-0.035-0.062-0.004-0.091C34.797,53.522,34.842,53.575,34.889,53.589z"/>
	<path fill-rule="evenodd" clip-rule="evenodd" fill="#FDFDFD" d="M49.706,71.081c-0.087-0.003-0.175,0.004-0.256-0.038
		C49.536,71.052,49.63,71.007,49.706,71.081z"/>
	<path fill-rule="evenodd" clip-rule="evenodd" fill="#FDFDFD" d="M54.303,71.044c-0.084,0.038-0.173,0.036-0.262,0.033
		C54.121,71.01,54.215,71.051,54.303,71.044z"/>
	<path fill-rule="evenodd" clip-rule="evenodd" fill="#FDFDFD" d="M53.969,71.086c-0.084,0.037-0.173,0.036-0.262,0.034
		C53.787,71.051,53.881,71.093,53.969,71.086z"/>
	<path fill-rule="evenodd" clip-rule="evenodd" fill="#FDFDFD" d="M49.373,71.035c-0.089,0.002-0.179,0.01-0.262-0.032
		C49.199,71.009,49.292,70.968,49.373,71.035z"/>
	<path fill-rule="evenodd" clip-rule="evenodd" fill="#FDFDFD" d="M40.761,71.003c-0.083,0.041-0.173,0.035-0.262,0.034
		C40.579,70.967,40.673,71.009,40.761,71.003z"/>
	<path fill-rule="evenodd" clip-rule="evenodd" fill="#FDFDFD" d="M26.036,25c0.005,0.089,0.007,0.178-0.033,0.262
		C26.009,25.174,25.968,25.08,26.036,25z"/>
	<path fill-rule="evenodd" clip-rule="evenodd" fill="#FDFDFD" d="M16.085,30.243c0.04,0.081,0.038,0.168,0.035,0.255
		C16.052,30.421,16.094,30.329,16.085,30.243z"/>
	<path fill-rule="evenodd" clip-rule="evenodd" fill="#FDFDFD" d="M16.034,30.213c0,0.052,0,0.104,0,0.192
		C15.987,30.32,15.997,30.266,16.034,30.213z"/>
	<path fill-rule="evenodd" clip-rule="evenodd" fill="#FDFDFD" d="M10.035,27.563c-0.061,0.017-0.115,0.036-0.166-0.002
		C9.93,27.525,9.987,27.545,10.035,27.563z"/>
	<path fill-rule="evenodd" clip-rule="evenodd" fill="#FDFDFD" d="M30.786,52.097c-0.055-0.083-0.036-0.174-0.03-0.264
		C30.82,51.915,30.781,52.008,30.786,52.097z"/>
	<path fill-rule="evenodd" clip-rule="evenodd" fill="#FDFDFD" d="M18.436,53.447c-0.022-0.094-0.029-0.146-0.002-0.204
		C18.473,53.303,18.461,53.357,18.436,53.447z"/>
	<path fill-rule="evenodd" clip-rule="evenodd" fill="#FDFDFD" d="M9.993,27.497c0.08-0.047,0.168-0.033,0.255-0.033
		C10.17,27.529,10.079,27.489,9.993,27.497z"/>
	<path fill-rule="evenodd" clip-rule="evenodd" fill="#FDFDFD" d="M30.738,62.036c0.089-0.069,0.177-0.049,0.265,0.003
		C30.915,62.038,30.827,62.037,30.738,62.036z"/>
	<path fill-rule="evenodd" clip-rule="evenodd" fill="#FDFDFD" d="M34.784,62.871c0.081-0.046,0.169-0.036,0.256-0.039
		C34.965,62.908,34.87,62.861,34.784,62.871z"/>
	<path fill-rule="evenodd" clip-rule="evenodd" fill="#FDFDFD" d="M26.003,26.82c0.041,0.083,0.038,0.172,0.033,0.262
		C25.968,27.002,26.009,26.908,26.003,26.82z"/>
	<path fill-rule="evenodd" clip-rule="evenodd" fill="#FDFDFD" d="M57.077,70.291c-0.005,0.08,0.021,0.165-0.037,0.236
		C57.052,70.448,57.01,70.361,57.077,70.291z"/>
	<path fill-rule="evenodd" clip-rule="evenodd" fill="#FDFDFD" d="M25.989,24.745c0,0.091,0,0.133,0,0.191
		C25.947,24.88,25.953,24.837,25.989,24.745z"/>
	<path fill-rule="evenodd" clip-rule="evenodd" fill="#FDFDFD" d="M39.311,71.099c0.07-0.017,0.112-0.031,0.151,0.008
		C39.417,71.132,39.375,71.131,39.311,71.099z"/>
	<path fill-rule="evenodd" clip-rule="evenodd" fill="#FDFDFD" d="M40.053,71.086c-0.069,0.035-0.144,0.04-0.22,0.034
		C39.898,71.056,39.979,71.09,40.053,71.086z"/>
	<path fill-rule="evenodd" clip-rule="evenodd" fill="#FDFDFD" d="M20.868,32.956c0.066-0.042,0.14-0.036,0.213-0.035
		C21.019,32.984,20.94,32.949,20.868,32.956z"/>
	<path fill-rule="evenodd" clip-rule="evenodd" fill="#FDFDFD" d="M49.998,71.12c-0.076,0.006-0.15,0-0.22-0.034
		C49.853,71.09,49.933,71.056,49.998,71.12z"/>
	<path fill-rule="evenodd" clip-rule="evenodd" fill="#FDFDFD" d="M21.255,31.085c-0.066,0.042-0.139,0.034-0.212,0.03
		C21.107,31.059,21.184,31.09,21.255,31.085z"/>
	<path fill-rule="evenodd" clip-rule="evenodd" fill="#FDFDFD" d="M14.535,29.622c0.066-0.042,0.14-0.034,0.212-0.03
		C14.683,29.648,14.606,29.617,14.535,29.622z"/>
	<path fill-rule="evenodd" clip-rule="evenodd" fill="#FDFDFD" d="M25.977,27.297c-0.027-0.044-0.026-0.086,0-0.141
		C26.006,27.209,26.01,27.251,25.977,27.297z"/>
	<path fill-rule="evenodd" clip-rule="evenodd" fill="#FDFDFD" d="M29.748,82.342c0.044,0.006,0.076,0.031,0.1,0.067
		c-0.037,0.008-0.075,0.052-0.109,0.006C29.729,82.401,29.744,82.367,29.748,82.342z"/>
	<path fill-rule="evenodd" clip-rule="evenodd" fill="#FDFDFD" d="M20.118,33.103c0.043-0.03,0.085-0.026,0.143-0.002
		C20.206,33.132,20.164,33.134,20.118,33.103z"/>
	<path fill-rule="evenodd" clip-rule="evenodd" fill="#FDFDFD" d="M25.244,43.095c-0.027-0.031-0.053-0.062-0.08-0.095
		c0.029-0.008,0.059-0.037,0.088-0.01C25.292,43.026,25.251,43.061,25.244,43.095z"/>
	<path fill-rule="evenodd" clip-rule="evenodd" fill="#FDFDFD" d="M26.02,24.631c-0.029-0.043-0.026-0.085-0.001-0.142
		C26.049,24.543,26.051,24.585,26.02,24.631z"/>
	<path fill-rule="evenodd" clip-rule="evenodd" fill="#FDFDFD" d="M34.297,44.9c0.04,0.021,0.064,0.053,0.067,0.1
		c-0.025,0.004-0.059,0.02-0.074,0.009C34.245,44.975,34.289,44.937,34.297,44.9z"/>
	<path fill-rule="evenodd" clip-rule="evenodd" fill="#FDFDFD" d="M40.047,71.02c-0.043,0.03-0.085,0.026-0.143,0.002
		C39.959,70.991,40.001,70.989,40.047,71.02z"/>
	<path fill-rule="evenodd" clip-rule="evenodd" fill="#FDFDFD" d="M34.422,45.066c0.035,0.025,0.067,0.052,0.068,0.101
		c-0.025,0.004-0.06,0.02-0.074,0.009C34.37,45.142,34.414,45.104,34.422,45.066z"/>
	<path fill-rule="evenodd" clip-rule="evenodd" fill="#FDFDFD" d="M54.102,70.974c0.07-0.017,0.111-0.031,0.15,0.008
		C54.207,71.007,54.165,71.006,54.102,70.974z"/>
	<path fill-rule="evenodd" clip-rule="evenodd" fill="#FDFDFD" d="M49.486,70.98c0.059-0.035,0.1-0.021,0.155-0.011
		C49.587,71.009,49.545,71.003,49.486,70.98z"/>
	<path fill-rule="evenodd" clip-rule="evenodd" fill="#FDFDFD" d="M37.415,48.134c0.045,0.005,0.076,0.03,0.097,0.068
		c-0.036,0.009-0.074,0.051-0.106,0.005C37.395,48.192,37.411,48.159,37.415,48.134z"/>
	<path fill-rule="evenodd" clip-rule="evenodd" fill="#FDFDFD" d="M40.367,70.997c-0.037-0.003-0.105-0.003-0.106-0.011
		c-0.007-0.051,0.039-0.022,0.062-0.027c0.016-0.003,0.035,0.007,0.053,0.012C40.373,70.979,40.37,70.988,40.367,70.997z"/>
	<path fill-rule="evenodd" clip-rule="evenodd" fill="#FDFDFD" d="M18.457,51.798c-0.003,0.037-0.003,0.105-0.011,0.106
		c-0.051,0.006-0.023-0.039-0.027-0.062c-0.003-0.017,0.007-0.035,0.012-0.053C18.438,51.792,18.447,51.795,18.457,51.798z"/>
	<path fill-rule="evenodd" clip-rule="evenodd" fill="#FDFDFD" d="M24.458,59.548c0.075,0,0.15-0.006,0.22,0.03
		C24.604,59.575,24.525,59.607,24.458,59.548z"/>
	<path fill-rule="evenodd" clip-rule="evenodd" fill="#FDFDFD" d="M33.333,62.835c0.075,0.004,0.154-0.015,0.222,0.034
		C33.479,62.865,33.398,62.901,33.333,62.835z"/>
	<path fill-rule="evenodd" clip-rule="evenodd" fill="#FDFDFD" d="M17.687,68.172c-0.03-0.043-0.026-0.085-0.002-0.143
		C17.715,68.084,17.717,68.126,17.687,68.172z"/>
	<path fill-rule="evenodd" clip-rule="evenodd" fill="#FDFDFD" d="M18.583,69.131c0.076-0.009,0.15-0.005,0.22,0.03
		C18.729,69.158,18.65,69.19,18.583,69.131z"/>
	<path fill-rule="evenodd" clip-rule="evenodd" fill="#FDF5E4" d="M70.506,39.751c-0.281,0.857-0.656,1.673-1.085,2.465
		c-1.728,3.188-4.308,5.431-7.616,6.869c-1.808,0.786-3.692,1.297-5.642,1.573c-0.027,0.004-0.055,0.002-0.083,0.002
		c-0.159-0.045-0.309,0.035-0.465,0.038c-0.108,0.002-0.216,0.036-0.326,0.029c-0.021-0.001-0.041,0-0.062,0
		c0.01,0.013,0.028,0.014,0.036,0.028c-0.211,0.047-0.426,0.059-0.641,0.069c-0.333-0.033-0.663,0.022-0.993,0.039
		c-0.907,0.044-1.814,0.032-2.722,0.015c-0.497-0.01-0.992-0.075-1.491-0.054c-1.066-0.074-2.125-0.211-3.174-0.418
		c-2.543-0.501-4.917-1.416-7.062-2.891c-2.437-1.676-4.215-3.891-5.383-6.601c-0.112-0.259-0.238-0.515-0.299-0.793
		c0.081-0.056,0.147-0.003,0.209,0.036c0.688,0.422,1.449,0.641,2.239,0.73c1.562,0.176,2.816-0.363,3.719-1.672
		c0.261-0.378,0.485-0.777,0.676-1.193c0.271-0.591,0.281-1.208,0.168-1.835c-0.174-0.968-0.627-1.801-1.255-2.545
		c-0.825-0.978-1.896-1.404-3.154-1.331c-0.941,0.056-1.77,0.422-2.472,1.068c-0.497,0.458-0.839,1.03-1.218,1.576
		c-0.06,0.087-0.097,0.208-0.235,0.209c-0.09-0.623-0.159-1.247-0.174-1.876c0.044-0.225,0.004-0.45,0.02-0.675
		c-0.01,0.146,0.025,0.292-0.028,0.437c-0.05-0.153-0.016-0.313-0.041-0.468c-0.054-0.08-0.034-0.168-0.031-0.254
		c0.032-0.319,0.032-0.639,0-0.958c0.002-0.111-0.031-0.227,0.033-0.332c0.002-0.125,0.005-0.249,0.008-0.373
		c-0.027-0.025-0.03-0.05,0.001-0.074c0.053-0.545,0.094-1.091,0.16-1.634c0.28-2.301,0.918-4.5,1.894-6.603
		c0.794-1.711,1.767-3.315,2.941-4.792c1.174-1.478,2.616-2.653,4.206-3.657c0.246-0.155,0.495-0.306,0.746-0.454
		c0.347-0.205,0.424-0.168,0.506,0.234c0.153,0.747,0.318,1.491,0.542,2.221c0.785,2.556,2.056,4.826,3.969,6.711
		c0.722,0.71,1.556,1.25,2.56,1.483c0.127,0.029,0.259,0.039,0.389,0.058c0.235-0.019,0.472-0.017,0.707,0
		c0.922-0.098,1.636-0.569,2.223-1.256c0.664-0.778,1.078-1.687,1.347-2.667c0.015-0.053,0.03-0.106,0.046-0.16
		c0.002-0.005,0.01-0.009,0.026-0.023c0.212,0.252,0.419,0.507,0.637,0.755c1.374,1.568,3.01,2.777,4.937,3.583
		c0.409,0.171,0.837,0.292,1.286,0.312c0.305-0.003,0.61-0.002,0.916,0c1.095-0.033,2.038-0.738,2.463-1.837
		c0.117-0.304,0.196-0.618,0.261-0.969c1.468,1.273,2.971,2.458,4.958,2.761c-0.056,0.044-0.113,0.031-0.139,0.024
		c0.269,0.008,0.568,0.061,0.872,0.066c0.223,0.004,0.306,0.067,0.377,0.278c0.043,0.125,0.049,0.262,0.133,0.373
		c0.304,0.964,0.526,1.947,0.695,2.942c0.033,0.191,0.056,0.383,0.083,0.575c-0.026,0.281,0.083,0.551,0.065,0.832
		c-0.001,0.027,0.009,0.035,0.005,0.009c-0.004-0.021,0-0.049,0.025-0.063c0.074,0.418,0.092,0.842,0.111,1.266
		c-0.045,0.289,0,0.576,0.008,0.864c0.011,0.378-0.058,0.755-0.009,1.133c-0.032,0.589-0.049,1.18-0.197,1.756
		c-0.093,0.01-0.11-0.07-0.145-0.125c-0.855-1.373-2.12-2.075-3.702-2.243c-1.197-0.127-2.217,0.293-3.122,1.049
		c-0.619,0.517-1.047,1.163-1.286,1.928c-0.288,0.921-0.199,1.829,0.187,2.701c0.241,0.544,0.495,1.087,0.885,1.55
		c0.674,0.799,1.535,1.225,2.57,1.336c0.756,0.082,1.462-0.066,2.141-0.383c0.24-0.112,0.456-0.264,0.638-0.459
		c0.109-0.117,0.229-0.224,0.378-0.289C70.332,39.742,70.414,39.686,70.506,39.751z"/>
	<path fill-rule="evenodd" clip-rule="evenodd" fill="#BB965B" d="M29.794,20.917c-0.04-0.681-0.067-0.716-0.72-0.915
		c-0.165-0.05-0.332-0.091-0.498-0.137c-0.254-0.284-0.516-0.561-0.715-0.891c-0.189-0.312-0.324-0.644-0.394-1.001
		c-0.016-0.083-0.022-0.165-0.003-0.248c0.031-0.218,0.028-0.437,0.001-0.654c-0.05-0.323,0.07-0.618,0.172-0.909
		c0.305-0.873,0.831-1.604,1.458-2.276c1.015-1.088,2.267-1.811,3.613-2.395c0.26-0.112,0.509-0.252,0.786-0.322
		c0.728-0.171,1.457-0.337,2.184-0.514c0.247-0.06,0.41-0.208,0.456-0.479c0.042-0.242,0.192-0.427,0.388-0.571
		c1.034-0.762,2.102-1.472,3.212-2.117c1.684-0.978,3.443-1.788,5.303-2.369c1.339-0.418,2.705-0.707,4.098-0.872
		c0.674-0.081,1.349-0.159,2.028-0.163c0.15,0.06,0.3-0.006,0.45-0.002c0.615,0.016,1.23-0.023,1.846,0.022
		c0.054,0.004,0.11,0.013,0.161-0.019c0.736,0.003,1.468,0.084,2.196,0.179c1.188,0.154,2.364,0.385,3.523,0.693
		c1.813,0.481,3.57,1.115,5.265,1.922c1.96,0.932,3.775,2.085,5.428,3.492c2.274,1.936,4.143,4.19,5.416,6.909
		c0.863,1.842,1.412,3.773,1.641,5.795c0.047,0.42,0.105,0.838,0.108,1.262c-0.029,0.094-0.021,0.192-0.013,0.286
		c0.045,0.527-0.022,1.055,0.013,1.582c-0.054,1.096-0.226,2.174-0.521,3.231c-0.191,0.688-0.424,1.361-0.712,2.015
		c-0.165,0.375-0.313,0.425-0.653,0.199c-0.313-0.208-0.65-0.333-1.025-0.354c-0.207,0.021-0.414,0.032-0.62-0.007
		c-0.142-0.079-0.198-0.204-0.206-0.36c-0.105-2.138-0.529-4.218-1.14-6.263c-0.068-0.229-0.037-0.409,0.148-0.58
		c0.342-0.315,0.369-0.633,0.114-0.998c-0.24-0.342-0.588-0.446-0.967-0.249c-0.895,0.466-1.791,0.425-2.688,0.03
		c-1.191-0.525-2.276-1.213-3.187-2.155c-0.721-0.746-1.296-1.59-1.71-2.543c-0.061-0.139-0.126-0.279-0.207-0.407
		c-0.257-0.404-0.615-0.532-0.991-0.367c-0.374,0.165-0.528,0.542-0.388,1.002c0.109,0.357,0.243,0.708,0.364,1.062
		c0.202,0.594,0.32,1.206,0.34,1.833c0.011,0.36-0.037,0.72-0.172,1.061c-0.25,0.627-0.887,0.957-1.619,0.838
		c-0.898-0.146-1.714-0.508-2.479-0.982c-1.25-0.774-2.341-1.735-3.244-2.896c-0.714-0.918-1.14-1.955-1.222-3.129
		c-0.04-0.575-0.385-0.821-0.95-0.733c-0.283,0.044-0.474,0.231-0.544,0.531c-0.014,0.06-0.029,0.12-0.044,0.18
		c-0.053,0.189-0.022,0.382-0.021,0.572c0.001,0.365-0.022,0.729,0.013,1.093c-0.012,1.457-0.246,2.843-1.209,4.017
		c-0.621,0.756-1.372,0.976-2.234,0.617c-0.335-0.139-0.645-0.321-0.939-0.532c-0.711-0.508-1.247-1.179-1.741-1.886
		c-1-1.429-1.827-2.947-2.342-4.621c-0.377-1.226-0.589-2.48-0.579-3.767c0.002-0.208,0.012-0.415-0.027-0.623
		c-0.074-0.401-0.373-0.663-0.782-0.669c-0.34-0.006-0.673,0.251-0.7,0.641c-0.03,0.439-0.277,0.637-0.625,0.817
		c-1.223,0.634-2.366,1.393-3.431,2.269c-1.766,1.452-3.22,3.169-4.388,5.131c-1.251,2.103-2.103,4.366-2.708,6.73
		c-0.252,0.987-0.484,1.978-0.602,2.992c-0.044,0.378-0.071,0.76-0.069,1.142c0,0.147-0.017,0.291-0.108,0.415
		c-0.06-0.042-0.06-0.107-0.062-0.168c-0.012-0.391-0.131-0.752-0.31-1.093c-0.431-0.819-0.636-1.693-0.698-2.613
		c-0.071-1.039,0.025-2.064,0.218-3.081c0.178-0.937,0.545-1.791,1.196-2.504c0.105-0.116,0.086-0.17-0.061-0.202
		c-0.068-0.015-0.134-0.04-0.196-0.069c-0.229-0.108-0.441-0.134-0.6,0.117C29.853,20.915,29.823,20.921,29.794,20.917z"/>
	<path fill-rule="evenodd" clip-rule="evenodd" fill="#4788CD" d="M59.198,52.724c-0.036-0.238-0.082-0.477-0.105-0.717
		c-0.021-0.218,0.088-0.349,0.342-0.428c0.529-0.165,1.066-0.305,1.587-0.498c0.207-0.076,0.416-0.15,0.624-0.227
		c0.339-0.124,0.463-0.091,0.672,0.207c0.51,0.727,1.011,1.459,1.484,2.21c0.912,1.443,1.732,2.937,2.399,4.511
		c0.673,1.587,1.175,3.227,1.453,4.93c0.062,0.382,0.111,0.769,0.1,1.158c-0.07,0.126,0.002,0.254-0.002,0.381
		c-0.008,0.264-0.015,0.528,0.002,0.793c-0.002,0.814-0.134,1.613-0.31,2.405c-0.221,0.995-0.524,1.966-0.9,2.913
		c-0.124,0.312-0.213,0.35-0.517,0.188c-1.169-0.621-2.337-1.244-3.504-1.868c-0.282-0.151-0.328-0.251-0.238-0.557
		c0.257-0.874,0.441-1.763,0.495-2.672c0.06-1.028-0.014-2.05-0.229-3.061c-0.228-1.07-0.614-2.084-1.071-3.074
		c-0.15-0.325-0.39-0.535-0.771-0.537c-0.316-0.002-0.545,0.146-0.687,0.421c-0.133,0.255-0.075,0.509,0.037,0.759
		c0.347,0.771,0.664,1.552,0.883,2.371c0.366,1.371,0.382,2.753,0.131,4.143c-0.028,0.157-0.065,0.312-0.096,0.469
		c-0.043,0.226-0.164,0.378-0.395,0.43c-0.032,0.025-0.068,0.034-0.109,0.027c-0.5-0.013-1-0.03-1.5,0.012
		c-2.936,0.006-5.87,0.002-8.806,0.002c-2.103,0-4.204,0.004-6.307-0.002c-0.501-0.043-1.001-0.024-1.503-0.012
		c-0.04,0.008-0.076-0.002-0.109-0.026c-0.203-0.043-0.339-0.146-0.335-0.375c0.05-0.259,0.02-0.521,0.021-0.78
		c0-0.24,0.027-0.481-0.019-0.721c0.007-1.124,0.015-2.247,0.021-3.371c0.005-0.979,0.01-1.957,0.009-2.935
		c0-0.181,0.04-0.335,0.146-0.485c0.283-0.399,0.258-0.72-0.057-1.024c-0.307-0.297-0.659-0.319-1.033-0.038
		c-0.803,0.605-1.604,1.214-2.448,1.761c-0.878,0.569-1.769,1.119-2.71,1.58c-0.381,0.187-0.795,0.282-1.223,0.302
		c-0.291-0.02-0.582-0.017-0.872-0.002c-0.764-0.062-1.473-0.311-2.158-0.64c-0.572-0.274-0.578-0.281-0.391-0.889
		c0.221-0.717,0.151-1.418-0.117-2.099c-0.426-1.082-0.876-2.154-1.32-3.229c-0.059-0.144-0.064-0.265,0.056-0.378
		c0.143-0.134,0.295-0.132,0.459-0.049c0.538,0.272,1.076,0.542,1.613,0.814c0.358,0.183,0.718,0.363,1.071,0.556
		c0.457,0.248,0.92,0.287,1.424,0.146c1.07-0.301,1.973-0.895,2.837-1.564c1.199-0.929,2.288-1.977,3.312-3.093
		c0.042-0.046,0.085-0.092,0.129-0.136c0.263-0.264,0.421-0.298,0.765-0.143c0.493,0.222,0.987,0.439,1.504,0.6
		c0.37,0.115,0.746,0.215,1.12,0.317c0.412,0.114,0.517,0.283,0.433,0.702c-0.039,0.195-0.069,0.394-0.104,0.59
		c-0.054,0.148-0.054,0.297-0.002,0.445c0.059,0.525,0.171,1.034,0.408,1.512c0.291,0.584,0.704,1.045,1.299,1.327
		c0.359,0.172,0.612,0.449,0.8,0.791c0.874,1.584,1.744,3.169,2.617,4.754c0.571,1.038,1.14,2.078,1.719,3.111
		c0.213,0.381,0.594,0.524,0.972,0.389c0.259-0.094,0.405-0.309,0.527-0.536c0.662-1.233,1.32-2.469,1.98-3.704
		c0.731-1.369,1.466-2.736,2.191-4.109c0.163-0.309,0.376-0.548,0.675-0.739c0.884-0.562,1.469-1.337,1.601-2.406
		c0.003-0.02,0.017-0.037,0.025-0.056c0.072-0.282,0.008-0.569,0.032-0.854c0.001-0.002-0.012-0.008-0.017-0.006
		C59.207,52.712,59.203,52.719,59.198,52.724z"/>
	<path fill-rule="evenodd" clip-rule="evenodd" fill="#FDFDFD" d="M60.499,79.5c-0.771-0.025-1.54,0.018-2.31,0.059
		c-1.996,0.108-3.977,0.356-5.942,0.724c-0.545,0.102-1.08,0.03-1.61-0.089c-1.168-0.262-2.356-0.355-3.545-0.453
		c-1.822-0.149-3.646-0.182-5.473-0.143c-1.506,0.033-3.009,0.125-4.506,0.283c-1.545,0.163-3.085,0.363-4.62,0.608
		c-0.122,0.02-0.246,0.032-0.369,0.049c-0.122-0.021-0.248-0.035-0.213-0.212c1.062-1.929,2.123-3.857,3.184-5.785
		c0.13-0.236,0.263-0.472,0.392-0.709c0.109-0.201,0.271-0.325,0.494-0.381c1.836-0.466,3.695-0.797,5.583-0.963
		c1.606-0.14,3.213-0.186,4.823-0.109c1.739,0.081,3.472,0.232,5.174,0.63c0.362,0.085,0.722,0.028,1.066-0.073
		c0.912-0.268,1.853-0.341,2.79-0.433c0.91-0.09,1.823-0.151,2.756-0.132c-0.038,0.183-0.136,0.332-0.211,0.489
		c-0.181,0.376-0.352,0.752-0.366,1.181c-0.02,0.574,0.167,1.032,0.704,1.304c0.202,0.103,0.359,0.262,0.502,0.432
		c0.314,0.374,0.726,0.513,1.196,0.518c0.389-0.005,0.777-0.006,1.166-0.002c1.107-0.019,2.124-0.35,3.074-0.898
		c0.787-0.454,1.467-1.044,2.094-1.699c0.393-0.41,1.104-0.498,1.587-0.196c0.102,0.063,0.181,0.149,0.24,0.255
		c1.243,2.232,2.487,4.465,3.73,6.697c0.013,0.022,0.021,0.049,0.04,0.099c-0.388-0.062-0.755-0.119-1.121-0.179
		c-1.431-0.232-2.864-0.439-4.306-0.592c-1.686-0.178-3.374-0.279-5.068-0.289c-0.035,0-0.069,0.006-0.104,0.009
		C61.054,79.532,60.776,79.53,60.499,79.5z"/>
	<path fill-rule="evenodd" clip-rule="evenodd" fill="#FDCFA4" d="M70.506,39.751c-0.202,0.023-0.368,0.122-0.503,0.267
		c-0.565,0.609-1.298,0.837-2.092,0.941c-0.757,0.101-1.475-0.046-2.156-0.36c-0.663-0.306-1.195-0.779-1.569-1.409
		c-0.314-0.529-0.61-1.072-0.782-1.67c-0.31-1.081-0.198-2.111,0.384-3.076c0.713-1.181,1.765-1.89,3.116-2.136
		c0.818-0.149,1.608,0.026,2.374,0.313c0.59,0.22,1.129,0.533,1.575,0.98c0.293,0.293,0.558,0.614,0.767,0.976
		c0.027,0.047,0.035,0.107,0.091,0.135C71.553,36.45,71.173,38.135,70.506,39.751z"/>
	<path fill-rule="evenodd" clip-rule="evenodd" fill="#FDCFA4" d="M32.176,35.166c0.132-0.098,0.195-0.25,0.284-0.38
		c0.374-0.55,0.729-1.113,1.244-1.549c0.605-0.513,1.302-0.827,2.087-0.945c0.789-0.118,1.542-0.001,2.261,0.339
		c0.786,0.371,1.338,0.986,1.785,1.713c0.403,0.656,0.692,1.358,0.776,2.126c0.056,0.506,0.034,1.017-0.183,1.489
		c-0.342,0.746-0.743,1.456-1.354,2.024c-0.654,0.609-1.42,0.941-2.316,0.976c-1.121,0.044-2.164-0.211-3.128-0.787
		c-0.04-0.024-0.089-0.033-0.135-0.049c-0.497-1.038-0.803-2.137-1.037-3.258C32.344,36.302,32.237,35.738,32.176,35.166z"/>
	<path fill-rule="evenodd" clip-rule="evenodd" fill="#FDFDFD" d="M51.937,62.747c-1.128-2.04-2.236-4.043-3.35-6.056
		c0.679-0.188,1.37-0.277,1.943-0.688c0.564-0.405,0.972-0.967,1.452-1.476c0.238,0.285,0.47,0.569,0.73,0.827
		c0.625,0.619,1.343,1.062,2.225,1.209c0.263,0.044,0.266,0.092,0.136,0.326c-0.445,0.813-0.882,1.632-1.319,2.45
		C53.154,60.462,52.556,61.586,51.937,62.747z"/>
	<path fill-rule="evenodd" clip-rule="evenodd" fill="#FDF5E4" d="M21.921,51.915c0.074,0.33,0.251,0.52,0.588,0.542
		c0.771,0.052,1.413,0.362,1.955,0.901c0.156,0.156,0.309,0.32,0.224,0.562c-0.097,0.275-0.272,0.483-0.576,0.544
		c-0.149,0.029-0.302,0.04-0.45,0.072c-0.301,0.066-0.473,0.26-0.543,0.56c-0.073,0.312,0.017,0.564,0.252,0.765
		c0.279,0.238,0.614,0.369,0.963,0.467c0.127,0.035,0.252,0.077,0.38,0.104c0.565,0.115,0.885,0.503,1.112,0.994
		c0.043,0.062,0.043,0.125,0,0.187c-0.166,0.377-0.376,0.494-0.828,0.454c-0.996-0.088-1.91-0.414-2.703-1.021
		c-1.618-1.239-2.39-2.896-2.284-4.93c0.044-0.849,0.37-1.619,0.947-2.257c0.702-0.775,1.96-0.684,2.497,0.166
		c0.256,0.406,0.152,0.704-0.31,0.837c-0.185,0.054-0.381,0.069-0.572,0.096c-0.36,0.049-0.561,0.215-0.649,0.544
		C21.938,51.639,21.94,51.776,21.921,51.915z"/>
	<path fill-rule="evenodd" clip-rule="evenodd" fill="#FDF5E4" d="M60.207,74.745c-0.135-0.026-0.163-0.141-0.193-0.245
		c-0.064-0.219-0.188-0.351-0.426-0.398c-0.361-0.071-0.414-0.224-0.226-0.545c0.341-0.584,0.752-1.115,1.2-1.619
		c0.097-0.109,0.194-0.218,0.263-0.348c0.282-0.539-0.09-1.153-0.695-1.137c-0.41,0.012-0.806,0.132-1.21,0.19
		c-0.041,0.006-0.082,0.02-0.123,0.021c-0.057,0.002-0.128,0.043-0.161-0.043c-0.025-0.063-0.01-0.123,0.034-0.174
		c0.114-0.133,0.252-0.237,0.405-0.321c0.332-0.183,0.691-0.278,1.062-0.335c0.068-0.011,0.135-0.025,0.202-0.039
		c0.229-0.039,0.458-0.042,0.687,0.002c0.617,0.085,1.105,0.458,1.636,0.734c0.944,0.491,1.876,1.008,2.813,1.513
		c0.077,0.041,0.175,0.056,0.069,0.183c-0.836,1.018-1.809,1.85-3.072,2.293c-0.019,0.007-0.039,0.01-0.059,0.014
		c-0.218-0.003-0.413,0.097-0.621,0.138C61.268,74.731,60.74,74.766,60.207,74.745z"/>
	<path fill-rule="evenodd" clip-rule="evenodd" fill="#FDFDFD" d="M29.794,20.917c0.213-0.336,0.301-0.362,0.684-0.205
		c0.147,0.061,0.292,0.129,0.488,0.129c-0.138,0.163-0.265,0.304-0.382,0.453c-0.627,0.797-0.94,1.723-1.083,2.71
		c-0.133,0.921-0.208,1.847-0.128,2.778c0.07,0.814,0.254,1.601,0.635,2.331c0.229,0.437,0.382,0.89,0.373,1.389
		c-0.148,0.198-0.361,0.171-0.562,0.146c-0.211-0.026-0.384-0.146-0.55-0.274c-0.906-0.698-1.381-1.646-1.603-2.745
		c-0.083-0.407-0.102-0.821-0.159-1.231c-0.047-0.28-0.046-0.561,0-0.841c0.067-0.688,0.17-1.37,0.407-2.024
		c0.15-0.417,0.315-0.826,0.548-1.205s0.525-0.692,0.932-0.891C29.61,21.332,29.761,21.168,29.794,20.917z"/>
	<path fill-rule="evenodd" clip-rule="evenodd" fill="#FDFDFD" d="M33.496,11.17c-0.425,0.246-0.886,0.416-1.329,0.623
		c-1.529,0.715-2.844,1.691-3.815,3.091c-0.398,0.574-0.69,1.199-0.825,1.89c-0.017,0.087-0.019,0.178-0.027,0.268
		c0.007,0.236,0.007,0.472,0,0.708c0.064,0.735,0.418,1.327,0.917,1.847c0.075,0.078,0.179,0.137,0.161,0.27
		c-0.899-0.139-1.727-0.447-2.42-1.052c-0.537-0.468-0.87-1.04-0.804-1.782c0.048-0.538,0.29-1.006,0.566-1.456
		c0.612-0.997,1.485-1.73,2.439-2.375c1.38-0.933,2.909-1.524,4.508-1.954C33.074,11.19,33.277,11.123,33.496,11.17z"/>
	<path fill-rule="evenodd" clip-rule="evenodd" fill="#FDFDFD" d="M45.965,52.807c0.052-0.186,0.047-0.382,0.108-0.568
		c0.062-0.183,0.174-0.261,0.361-0.224c1.014,0.199,2.04,0.307,3.069,0.39c0.4,0.032,0.802,0.06,1.202,0.083
		c0.261,0.015,0.316,0.069,0.279,0.328c-0.075,0.527-0.337,0.963-0.692,1.345c-0.979,1.055-2.203,1.184-3.357,0.565
		c-0.562-0.301-0.86-0.804-0.94-1.435c-0.006-0.048-0.02-0.095-0.03-0.142C45.919,53.035,45.919,52.921,45.965,52.807z"/>
	<path fill-rule="evenodd" clip-rule="evenodd" fill="#FDB894" d="M23.99,44.658c0.191-0.011,0.237,0.122,0.286,0.244
		c0.25,0.624,0.498,1.249,0.748,1.873c0.242,0.604,0.482,1.21,0.732,1.812c0.086,0.207,0.083,0.391-0.009,0.598
		c-0.339,0.77-0.301,1.566-0.144,2.369c0.034,0.176,0.099,0.347,0.102,0.529c0.001,0.059-0.001,0.12-0.052,0.15
		c-0.062,0.036-0.098-0.031-0.139-0.062c-0.173-0.128-0.339-0.266-0.518-0.386c-0.147-0.098-0.173-0.206-0.111-0.37
		c0.2-0.53,0.272-1.077,0.132-1.634c-0.204-0.806-0.733-1.333-1.476-1.666c-0.145-0.065-0.294-0.123-0.438-0.191
		c-0.255-0.121-0.442-0.314-0.54-0.579c-0.193-0.52-0.392-1.036-0.61-1.547c-0.089-0.209-0.038-0.331,0.175-0.413
		c0.588-0.227,1.181-0.442,1.757-0.702C23.924,44.667,23.967,44.664,23.99,44.658z"/>
	<path fill-rule="evenodd" clip-rule="evenodd" fill="#FDFDFD" d="M52.679,52.505c0.762-0.057,1.493-0.109,2.226-0.167
		c0.718-0.057,1.433-0.146,2.141-0.281c0.415-0.078,0.468-0.05,0.56,0.356c0.134,0.598,0.068,1.176-0.242,1.706
		c-0.367,0.628-0.977,0.853-1.658,0.912c-0.623,0.054-1.173-0.139-1.646-0.553C53.443,53.938,52.982,53.295,52.679,52.505z"/>
	<path fill-rule="evenodd" clip-rule="evenodd" fill="#FDB894" d="M27.337,57.289c-0.022-0.448-0.229-0.822-0.488-1.171
		c-0.225-0.302-0.501-0.555-0.794-0.791c-0.219-0.177-0.223-0.214-0.083-0.45c0.139-0.234,0.25-0.479,0.271-0.755
		c-0.021-0.18-0.022-0.359,0-0.538c-0.013-0.108-0.026-0.217-0.045-0.368c0.253,0.269,0.463,0.523,0.72,0.732
		c0.29,0.235,0.606,0.416,0.969,0.502c0.174,0.041,0.276,0.138,0.34,0.299c0.411,1.02,0.826,2.038,1.237,3.058
		c0.115,0.287,0.063,0.406-0.217,0.518c-0.515,0.204-1.03,0.404-1.546,0.604c-0.07,0.028-0.144,0.054-0.218,0.065
		c-0.25,0.039-0.398-0.131-0.331-0.376c0.071-0.26,0.189-0.507,0.183-0.784C27.331,57.651,27.328,57.471,27.337,57.289z"/>
	<path fill-rule="evenodd" clip-rule="evenodd" fill="#FDF5E4" d="M28.633,34.084c0.105-0.49,0.287-0.928,0.777-1.16
		c0.566-0.267,0.937-0.062,1.006,0.56c0.068,0.607,0.128,1.214,0.197,1.821c0.089,0.786,0.252,1.558,0.435,2.326
		c0.076,0.317-0.02,0.418-0.35,0.402c-1.043-0.053-1.762-0.644-2.021-1.661c-0.061-0.521-0.13-1.042-0.113-1.569
		C28.571,34.561,28.656,34.328,28.633,34.084z"/>
	<path fill-rule="evenodd" clip-rule="evenodd" fill="#FDF5E4" d="M73.615,32.871c0.588-0.164,1.159,0.121,1.425,0.712
		c0.12,0.267,0.199,0.549,0.225,0.839c0.066,0.743,0.069,1.483-0.186,2.2c-0.317,0.896-1.09,1.424-2.026,1.388
		c-0.248-0.009-0.315-0.07-0.263-0.301c0.159-0.696,0.285-1.397,0.409-2.1c0.034,0.022,0.019,0.062,0.03,0.085
		c-0.005-0.24,0.049-0.479,0.074-0.721c0.04-0.377,0.087-0.753,0.113-1.132c0.016-0.234,0.047-0.466,0.044-0.702
		c-0.001-0.107,0.046-0.202,0.16-0.242c0.005-0.002,0.011-0.011,0.01-0.012C73.627,32.879,73.621,32.875,73.615,32.871z"/>
	<path fill-rule="evenodd" clip-rule="evenodd" fill="#FDF5E4" d="M27.09,50.292c0-0.156,0.038-0.302,0.114-0.437
		c0.13-0.227,0.347-0.318,0.601-0.257c0.144,0.035,0.277,0.096,0.389,0.191c0.754,0.645,1.039,1.483,0.974,2.448
		c-0.025,0.371-0.282,0.594-0.626,0.7c-0.316,0.098-0.551-0.06-0.75-0.284c-0.347-0.394-0.571-0.848-0.661-1.365
		c0.023-0.061,0.015-0.123,0.008-0.176c0.007,0.019,0.004,0.042-0.02,0.061c-0.038-0.054-0.039-0.114-0.031-0.176
		C27.113,50.763,27.113,50.527,27.09,50.292z"/>
	<path fill-rule="evenodd" clip-rule="evenodd" fill="#534938" d="M60.494,67.365c0.029,0.003,0.059,0.006,0.088,0.009
		c-0.001,0.013-0.001,0.024-0.001,0.037c-0.063,0.045-0.135,0.023-0.202,0.023c-5.976,0.001-11.952,0.001-17.927,0
		c-0.067,0-0.139,0.021-0.202-0.023c0-0.012,0-0.024-0.001-0.036c0.029-0.003,0.058-0.006,0.087-0.009
		c0.498-0.021,0.995-0.021,1.492,0c0.485,0.001,0.971,0.002,1.457,0.003c4.468,0.001,8.937,0.002,13.404,0.003
		c0.104,0,0.208-0.004,0.312-0.006C59.499,67.345,59.997,67.346,60.494,67.365z"/>
	<path fill-rule="evenodd" clip-rule="evenodd" fill="#5B2801" d="M42.25,67.411c0.458,0.001,0.917,0.002,1.375,0.002
		c5.521,0.001,11.041,0.002,16.562,0.003c0.132,0,0.264-0.003,0.396-0.005c-0.059,0.075-0.142,0.045-0.213,0.045
		c-5.969,0.001-11.938,0.001-17.905,0C42.391,67.456,42.308,67.486,42.25,67.411z"/>
	<path fill-rule="evenodd" clip-rule="evenodd" fill="#EBE1D0" d="M28.604,60.258c0.307-0.123,0.579-0.232,0.876-0.351
		c-0.015,0.197-0.009,0.377-0.044,0.547c-0.058,0.273-0.267,0.331-0.472,0.145C28.848,60.494,28.736,60.384,28.604,60.258z"/>
	<path fill-rule="evenodd" clip-rule="evenodd" fill="#FBFAF0" d="M49.416,50.825c0.159-0.074,0.33-0.044,0.49-0.03
		c0.945,0.085,1.894,0.091,2.842,0.075c0.552-0.009,1.103-0.053,1.654-0.078c0.073-0.003,0.153-0.025,0.22,0.033
		C52.887,50.975,51.151,50.955,49.416,50.825z"/>
	<path fill-rule="evenodd" clip-rule="evenodd" fill="#F8F5E9" d="M73.615,32.871c0.041,0.002,0.082,0.004,0.123,0.007
		c-0.216,0.035-0.235,0.184-0.243,0.364c-0.034,0.781-0.113,1.558-0.237,2.331c-0.012,0.072-0.014,0.146-0.042,0.218
		c-0.006-0.06-0.011-0.121-0.017-0.181c0.066-0.668,0.133-1.337,0.197-2.006c0.015-0.158,0.014-0.318,0.03-0.477
		C73.439,33.01,73.459,32.887,73.615,32.871z"/>
	<path fill-rule="evenodd" clip-rule="evenodd" fill="#C6A165" d="M53.622,4.084c-0.041,0.051-0.099,0.04-0.153,0.04
		c-0.717,0-1.434,0-2.15,0c-0.055,0-0.112,0.011-0.153-0.041C51.984,4.027,52.804,4.025,53.622,4.084z"/>
	<path fill-rule="evenodd" clip-rule="evenodd" fill="#F8F5E9" d="M60.207,74.745c0.057-0.06,0.13-0.039,0.196-0.037
		c0.625,0.024,1.235-0.068,1.837-0.229c0.062-0.016,0.119-0.041,0.174,0.012c-0.671,0.24-1.364,0.316-2.072,0.295
		C60.293,74.784,60.244,74.783,60.207,74.745z"/>
	<path fill-rule="evenodd" clip-rule="evenodd" fill="#F9F6E9" d="M28.633,34.084c0.092,0.149-0.015,0.294-0.01,0.442
		c0.02,0.57-0.053,1.145,0.081,1.71c0.011,0.046,0.011,0.097-0.028,0.136c-0.096-0.259-0.077-0.536-0.129-0.802
		c-0.044-0.338-0.043-0.677,0-1.016C28.576,34.397,28.604,34.241,28.633,34.084z"/>
	<path fill-rule="evenodd" clip-rule="evenodd" fill="#F7F4E9" d="M70.923,25.4c-0.015,0.017-0.012,0.118-0.051,0.018
		c-0.054-0.134-0.086-0.276-0.129-0.415c-0.046-0.152-0.141-0.211-0.307-0.217c-0.314-0.01-0.627-0.051-0.939-0.111
		c0.062-0.005,0.122-0.011,0.183-0.016c0.263,0.016,0.525,0.037,0.788,0.045c0.168,0.005,0.277,0.083,0.327,0.236
		C70.845,25.092,70.881,25.247,70.923,25.4z"/>
	<path fill-rule="evenodd" clip-rule="evenodd" fill="#FEFEFB" d="M71.907,32.956c-0.011-0.024-0.031-0.049-0.031-0.074
		c-0.002-0.616-0.002-1.233,0-1.849c0-0.025,0.021-0.049,0.032-0.074C71.947,31.625,71.952,32.291,71.907,32.956z"/>
	<path fill-rule="evenodd" clip-rule="evenodd" fill="#C6A166" d="M77.199,26.205c-0.041-0.038-0.034-0.087-0.034-0.136
		c-0.001-0.532-0.001-1.065,0-1.597c0-0.048-0.007-0.098,0.034-0.135C77.24,24.959,77.244,25.582,77.199,26.205z"/>
	<path fill-rule="evenodd" clip-rule="evenodd" fill="#4E2508" d="M61.164,76.292c-0.389,0.05-0.777,0.062-1.166,0.002
		c0.059-0.073,0.141-0.048,0.212-0.043C60.527,76.272,60.85,76.195,61.164,76.292z"/>
	<path fill-rule="evenodd" clip-rule="evenodd" fill="#4494E9" d="M67.754,65.044c-0.069-0.051-0.046-0.126-0.047-0.192
		c-0.002-0.263-0.002-0.526,0-0.789c0.001-0.066-0.021-0.142,0.047-0.192C67.787,64.262,67.798,64.652,67.754,65.044z"/>
	<path fill-rule="evenodd" clip-rule="evenodd" fill="#C9A469" d="M52.867,17.83c-0.048-0.043-0.035-0.101-0.035-0.154
		c-0.001-0.447-0.001-0.893,0-1.34c0-0.06-0.016-0.125,0.044-0.171C52.873,16.72,52.87,17.275,52.867,17.83z"/>
	<path fill-rule="evenodd" clip-rule="evenodd" fill="#471C00" d="M31.918,32.579c-0.001,0.007-0.001,0.015-0.005,0.02
		c-0.007,0.008-0.017,0.015-0.025,0.022c-0.005-0.011-0.014-0.021-0.014-0.032c0-0.509,0-1.018,0-1.527
		c0-0.006,0.005-0.016,0.009-0.016c0.011-0.002,0.023,0,0.035,0C31.967,31.556,31.983,32.067,31.918,32.579z"/>
	<path fill-rule="evenodd" clip-rule="evenodd" fill="#825F30" d="M31.918,32.579c0-0.511,0-1.022,0-1.534
		c0.012-0.002,0.023-0.004,0.035-0.005c0.003,0.112,0.007,0.224,0.01,0.336c0.022,0.318,0.022,0.636,0,0.954
		c-0.004,0.084-0.008,0.169-0.012,0.253C31.941,32.583,31.93,32.581,31.918,32.579z"/>
	<path fill-rule="evenodd" clip-rule="evenodd" fill="#4494E8" d="M41.916,65.499c0.052,0.04,0.041,0.099,0.041,0.152
		c0,0.399,0,0.798,0,1.197c0,0.054,0.01,0.112-0.043,0.151C41.885,66.5,41.904,65.999,41.916,65.499z"/>
	<path fill-rule="evenodd" clip-rule="evenodd" fill="#52280C" d="M27.507,25.558c0,0.28,0,0.561,0,0.841
		c-0.006,0.088-0.011,0.176-0.017,0.264c-0.007,0-0.015,0-0.022-0.001c0-0.456,0-0.911,0-1.367c0.007,0,0.015-0.001,0.022-0.001
		C27.496,25.382,27.501,25.47,27.507,25.558z"/>
	<path fill-rule="evenodd" clip-rule="evenodd" fill="#D1C2AB" d="M31.911,80.326c-0.004,0.146,0.156,0.127,0.213,0.212
		c-0.008,0.011-0.013,0.025-0.023,0.032c-0.101,0.067-0.221,0.098-0.299,0C31.711,80.455,31.847,80.396,31.911,80.326z"/>
	<path fill-rule="evenodd" clip-rule="evenodd" fill="#4F2609" d="M28.547,34.554c0,0.339,0,0.678,0,1.016
		c-0.005,0.073-0.011,0.147-0.017,0.22c-0.007,0-0.015-0.001-0.022-0.001c0-0.441,0-0.883,0-1.325
		c0.008-0.001,0.016-0.002,0.024-0.003C28.537,34.492,28.542,34.523,28.547,34.554z"/>
	<path fill-rule="evenodd" clip-rule="evenodd" fill="#421700" d="M61.998,24.705c-0.306,0.042-0.611,0.042-0.916,0
		C61.387,24.641,61.692,24.642,61.998,24.705z"/>
	<path fill-rule="evenodd" clip-rule="evenodd" fill="#F8F5EE" d="M71.797,29.694c-0.006,0.045-0.012,0.091-0.023,0.188
		c-0.041-0.292-0.077-0.531-0.105-0.771c-0.008-0.064-0.025-0.138,0.033-0.195C71.749,29.174,71.793,29.432,71.797,29.694z"/>
	<path fill-rule="evenodd" clip-rule="evenodd" fill="#F7F4EC" d="M55.263,50.756c-0.046-0.005-0.092-0.01-0.191-0.021
		c0.315-0.041,0.575-0.078,0.835-0.108c0.059-0.007,0.125-0.02,0.174,0.034C55.81,50.704,55.539,50.754,55.263,50.756z"/>
	<path fill-rule="evenodd" clip-rule="evenodd" fill="#4494EA" d="M33.751,61.286c0.291-0.061,0.582-0.063,0.872,0.002
		C34.332,61.328,34.042,61.326,33.751,61.286z"/>
	<path fill-rule="evenodd" clip-rule="evenodd" fill="#458DD8" d="M59.198,52.724c0.006-0.032,0.012-0.064,0.018-0.097
		c0.01,0.002,0.02,0.003,0.029,0.004c0,0.312,0.001,0.625,0,0.938c0,0.004-0.009,0.012-0.013,0.012
		c-0.012-0.002-0.023-0.007-0.035-0.01C59.197,53.288,59.197,53.006,59.198,52.724z"/>
	<path fill-rule="evenodd" clip-rule="evenodd" fill="#502608" d="M61.026,69.755c-0.229,0-0.457-0.001-0.687-0.002
		c-0.044-0.005-0.089-0.01-0.134-0.014c0.002-0.008,0.003-0.016,0.004-0.023c0.303,0,0.604,0,0.907,0
		c0.001,0.008,0.001,0.017,0.002,0.024C61.089,69.745,61.058,69.75,61.026,69.755z"/>
	<path fill-rule="evenodd" clip-rule="evenodd" fill="#471C00" d="M27.337,57.289c0.042,0.182,0.042,0.362-0.001,0.544
		C27.265,57.651,27.261,57.47,27.337,57.289z"/>
	<path fill-rule="evenodd" clip-rule="evenodd" fill="#4B2000" d="M60.499,79.5c0.277-0.022,0.555-0.021,0.832-0.002
		C61.054,79.568,60.776,79.565,60.499,79.5z"/>
	<path fill-rule="evenodd" clip-rule="evenodd" fill="#461B00" d="M50.581,24.159c-0.235,0.033-0.472,0.031-0.707,0
		C50.109,24.102,50.346,24.102,50.581,24.159z"/>
	<path fill-rule="evenodd" clip-rule="evenodd" fill="#FEFEFE" d="M31.993,33.052c0-0.156,0-0.312,0-0.468
		c0.024,0.235,0.094,0.473,0.008,0.706C31.999,33.21,31.996,33.131,31.993,33.052z"/>
	<path fill-rule="evenodd" clip-rule="evenodd" fill="#FCFBF4" d="M27.09,50.292c0.056,0.235,0.057,0.471,0,0.706
		C27.063,50.763,27.068,50.527,27.09,50.292z"/>
	<path fill-rule="evenodd" clip-rule="evenodd" fill="#4A1F00" d="M73.667,31.289c0.206,0.002,0.413,0.005,0.62,0.007
		c-0.204,0.075-0.413,0.026-0.619,0.027c-0.003,0-0.008-0.01-0.008-0.015C73.66,31.302,73.664,31.295,73.667,31.289z"/>
	<path fill-rule="evenodd" clip-rule="evenodd" fill="#50270B" d="M45.965,52.807c0,0.114,0,0.229,0,0.343
		c-0.005,0.032-0.011,0.063-0.016,0.096c-0.008-0.001-0.017-0.002-0.024-0.003c0-0.176,0-0.352,0-0.528
		c0.008-0.001,0.017-0.002,0.024-0.002C45.954,52.743,45.96,52.775,45.965,52.807z"/>
	<path fill-rule="evenodd" clip-rule="evenodd" fill="#481D00" d="M26.243,53.584c0.021,0.18,0.022,0.358,0,0.538
		C26.186,53.942,26.186,53.763,26.243,53.584z"/>
	<path fill-rule="evenodd" clip-rule="evenodd" fill="#411500" d="M21.921,51.915c-0.033-0.139-0.031-0.276,0.001-0.414
		C21.978,51.639,21.98,51.777,21.921,51.915z"/>
	<path fill-rule="evenodd" clip-rule="evenodd" fill="#4493E7" d="M44.383,53.237c-0.089-0.148-0.075-0.297,0.002-0.445
		C44.384,52.94,44.384,53.089,44.383,53.237z"/>
	<path fill-rule="evenodd" clip-rule="evenodd" fill="#481D00" d="M31.963,30.593c0,0.024-0.001,0.049-0.001,0.074
		c-0.092-0.133-0.03-0.275-0.014-0.415C31.953,30.366,31.958,30.479,31.963,30.593z"/>
	<path fill-rule="evenodd" clip-rule="evenodd" fill="#421600" d="M25.826,57.612c0-0.062,0-0.124,0-0.187
		c0.102,0.051,0.033,0.131,0.034,0.198c0,0.001-0.013,0.003-0.019,0.001C25.835,57.622,25.831,57.616,25.826,57.612z"/>
	<path fill-rule="evenodd" clip-rule="evenodd" fill="#FCFBF4" d="M27.121,51.174c0.003-0.013,0.003-0.027,0.01-0.037
		c0.014-0.021,0.031-0.018,0.032,0.007c0.003,0.051,0.015,0.104-0.031,0.146C27.128,51.251,27.125,51.212,27.121,51.174z"/>
	<path fill-rule="evenodd" clip-rule="evenodd" fill="#FDFDFD" d="M12.909,24.763c0.949-1.624,2.303-2.686,3.987-3.351
		c0.143-0.057,0.299-0.101,0.42,0.047c0.128,0.156,0.048,0.3-0.041,0.438c-0.422,0.648-1.015,1.11-1.652,1.527
		C14.786,23.973,13.882,24.383,12.909,24.763z"/>
	<path fill-rule="evenodd" clip-rule="evenodd" fill="#5A3200" d="M41.188,34.068c0.02-0.881,0.485-1.621,1.284-2.149
		c0.608-0.402,1.402-0.204,1.86,0.448c0.569,0.808,0.747,1.708,0.522,2.671c-0.184,0.785-1.018,1.445-1.731,1.405
		c-0.81-0.046-1.522-0.592-1.79-1.371C41.232,34.779,41.194,34.478,41.188,34.068z"/>
	<path fill-rule="evenodd" clip-rule="evenodd" fill="#5A3200" d="M62.654,34.214c0.034,0.507-0.073,0.979-0.353,1.406
		c-0.547,0.836-1.869,1.257-2.832,0.124c-0.69-0.813-0.748-1.902-0.159-2.923c0.197-0.341,0.447-0.632,0.779-0.85
		c0.582-0.382,1.174-0.338,1.69,0.133c0.504,0.461,0.763,1.045,0.842,1.715C62.638,33.951,62.644,34.083,62.654,34.214z"/>
	<path fill-rule="evenodd" clip-rule="evenodd" fill="#5A3200" d="M52.159,43.451c0.741,0.043,1.473,0.176,2.126,0.59
		c0.116,0.073,0.231,0.154,0.331,0.25c0.25,0.238,0.279,0.521,0.099,0.808c-0.183,0.29-0.438,0.381-0.771,0.244
		c-0.268-0.111-0.518-0.268-0.788-0.374c-1.143-0.449-2.186-0.161-3.015,0.818c-0.072,0.085-0.14,0.173-0.214,0.255
		c-0.294,0.328-0.598,0.366-0.934,0.121c-0.297-0.217-0.348-0.541-0.125-0.904c0.583-0.955,1.435-1.521,2.532-1.723
		c0.177-0.032,0.356-0.052,0.535-0.074C52.005,43.453,52.075,43.455,52.159,43.451z"/>
	<path fill-rule="evenodd" clip-rule="evenodd" fill="#5C3300" d="M44.205,21.416c-0.1,0.257-0.309,0.376-0.637,0.33
		c-1.002-0.144-1.933-0.473-2.749-1.089c-0.303-0.229-0.369-0.482-0.204-0.751c0.183-0.297,0.457-0.377,0.741-0.177
		c0.727,0.512,1.522,0.838,2.404,0.954c0.195,0.026,0.378,0.098,0.442,0.319C44.207,21.139,44.205,21.277,44.205,21.416z"/>
	<path fill-rule="evenodd" clip-rule="evenodd" fill="#5D3402" d="M52.515,34.686c-0.002,0.254-0.087,0.464-0.329,0.578
		c-0.253,0.119-0.482,0.076-0.686-0.118c-0.215-0.206-0.371-0.447-0.444-0.737c-0.077-0.309,0.03-0.605,0.269-0.746
		c0.244-0.145,0.472-0.106,0.735,0.124C52.334,34.026,52.515,34.383,52.515,34.686z"/>
	<path fill-rule="evenodd" clip-rule="evenodd" fill="#FEFDF9" d="M31.964,32.331c0-0.318,0-0.636,0-0.954
		C32.022,31.694,32.02,32.013,31.964,32.331z"/>
	<path fill-rule="evenodd" clip-rule="evenodd" fill="#461B00" d="M44.205,21.416c-0.062-0.138-0.06-0.277-0.002-0.416
		C44.267,21.139,44.256,21.277,44.205,21.416z"/>
	<path fill-rule="evenodd" clip-rule="evenodd" fill="#FEFEFD" d="M41.135,34.453c0-0.188,0-0.376,0-0.564c0.005,0,0.01,0,0.015,0
		c0,0.188,0,0.376,0,0.564C41.145,34.453,41.14,34.453,41.135,34.453z"/>
	<path fill-rule="evenodd" clip-rule="evenodd" fill="#AF874D" d="M27.5,17.75c-0.044-0.236-0.044-0.472,0-0.708
		C27.566,17.277,27.566,17.514,27.5,17.75z"/>
	<path fill-rule="evenodd" clip-rule="evenodd" fill="#458DD9" d="M57.734,67.326c-1.811,0-3.62,0-5.431,0c0-0.007,0-0.014,0-0.021
		c1.813,0,3.626,0,5.439,0C57.74,67.312,57.737,67.319,57.734,67.326z"/>
	<path fill-rule="evenodd" clip-rule="evenodd" fill="#458DD9" d="M50.526,67.326c-1.811,0-3.62,0-5.431,0c0-0.007,0-0.014,0-0.021
		c1.812,0,3.626,0,5.438,0C50.531,67.312,50.529,67.319,50.526,67.326z"/>
	<path fill-rule="evenodd" clip-rule="evenodd" fill="#4493E7" d="M60.494,67.365c-0.497,0.001-0.995,0.001-1.492,0.001
		c0.115-0.071,0.243-0.035,0.363-0.031C59.741,67.348,60.12,67.288,60.494,67.365z"/>
	<path fill-rule="evenodd" clip-rule="evenodd" fill="#4493E7" d="M43.828,67.366c-0.497,0-0.995,0-1.492,0
		c0.263-0.075,0.533-0.028,0.798-0.03C43.364,67.334,43.6,67.294,43.828,67.366z"/>
	<path fill-rule="evenodd" clip-rule="evenodd" fill="#5A3200" d="M51.083,75.041c-0.016-0.304-0.033-0.608,0.021-0.908
		c0.075-0.41,0.352-0.63,0.754-0.626c0.39,0.005,0.652,0.245,0.721,0.659c-0.034,0.138,0.006,0.274,0.006,0.411
		c-0.002,1.432-0.006,2.864,0.001,4.297c-0.076,0.373-0.33,0.58-0.733,0.597c-0.355,0.014-0.629-0.178-0.724-0.526
		c-0.088-0.324-0.056-0.657-0.045-0.988c0.026-0.037,0.02-0.079,0.02-0.12c0.001-0.892,0.001-1.783,0-2.675
		C51.103,75.12,51.109,75.078,51.083,75.041z"/>
	<path fill-rule="evenodd" clip-rule="evenodd" fill="#532A06" d="M52.585,78.874c-0.067-0.052-0.044-0.127-0.044-0.192
		c-0.001-1.439-0.001-2.88,0-4.319c0-0.066-0.022-0.14,0.037-0.196c0.07,0.329,0.036,0.663,0.039,0.994
		c0.008,1.129,0.006,2.258,0.006,3.387C52.623,78.656,52.63,78.769,52.585,78.874z"/>
	<path fill-rule="evenodd" clip-rule="evenodd" fill="#4B2000" d="M51.083,75.041c0.058,0.048,0.039,0.114,0.039,0.174
		c0.001,0.855,0.001,1.712,0,2.567c0,0.06,0.019,0.126-0.039,0.174C51.062,76.984,51.062,76.013,51.083,75.041z"/>
</g>
</svg>
