<?xml version="1.0" encoding="utf-8"?>
<!-- Generator: Adobe Illustrator 16.0.0, SVG Export Plug-In . SVG Version: 6.00 Build 0)  -->
<!DOCTYPE svg PUBLIC "-//W3C//DTD SVG 1.1//EN" "http://www.w3.org/Graphics/SVG/1.1/DTD/svg11.dtd">
<svg version="1.1" id="Capa_1" xmlns="http://www.w3.org/2000/svg" xmlns:xlink="http://www.w3.org/1999/xlink" x="0px" y="0px"
	 width="85px" height="85px" viewBox="0 0 85 85" enable-background="new 0 0 85 85" xml:space="preserve">
<g>
	<path fill="#D19B6F" d="M66.204,35.121c-1.475-0.328-2.053-1.562-2.15-2.26c-0.006-0.038-0.008-0.256-0.008-0.256
		c-0.951,1.039-2.385,1.818-4.479,1.818c-2.096,0-3.529-0.779-4.48-1.818c0,0-0.002,0.218-0.008,0.256
		c-0.098,0.697-0.674,1.932-2.148,2.26c-0.029,1.633,0.205,5.981,3.287,8.799c0.189,0.172,0.285,0.418,0.268,0.67
		c-0.02,0.252-0.154,0.481-0.365,0.623c-0.049,0.033-5.428,3.974-5.604,20.457h9.051h9.051c-0.174-16.483-5.553-20.424-5.609-20.463
		c-0.205-0.144-0.338-0.373-0.354-0.623c-0.016-0.248,0.078-0.494,0.264-0.664C66.011,41.092,66.237,36.754,66.204,35.121z"/>
	<path fill="#BB844C" d="M54.466,44.496c-3.76-4.084-3.168-9.943-3.139-10.203c0.045-0.418,0.396-0.732,0.816-0.732
		c0.992,0,1.238-0.629,1.299-0.891v-3.264h-9.512v27.215h5.654C50.798,49.139,53.235,45.771,54.466,44.496z"/>
	<path fill="#CCB683" d="M73.694,5.353c0-0.666-0.543-1.208-1.209-1.208c-0.664,0-1.207,0.542-1.207,1.208s0.543,1.208,1.207,1.208
		C73.151,6.561,73.694,6.019,73.694,5.353z"/>
	<path fill="#C6CDC9" d="M27.159,51.658c3.688,0,5.783-0.793,6.57-1.169V37.186c0-0.262,0.125-0.506,0.334-0.662
		c0.211-0.156,0.48-0.201,0.73-0.125l2.152,0.663c0.125-1.435,0.289-3.521,0.271-4.165c-0.066-2.674-1.902-3.523-1.982-3.561
		c-0.018-0.008-2.166-1.17-2.166-1.17c-0.111,0.734-0.395,1.629-1.066,2.416c-1.031,1.207-2.662,1.819-4.844,1.819
		c-2.184,0-3.814-0.612-4.846-1.819c-0.672-0.787-0.955-1.682-1.064-2.416c0,0-2.15,1.164-2.174,1.174
		c-0.072,0.031-1.91,0.883-1.976,3.557c-0.017,0.645,0.147,2.729,0.272,4.164l2.152-0.663c0.248-0.077,0.52-0.031,0.729,0.125
		c0.209,0.155,0.334,0.399,0.334,0.661v13.305C21.372,50.864,23.468,51.658,27.159,51.658z"/>
	<path fill="#CCB683" d="M13.73,5.353c0-0.666-0.542-1.208-1.208-1.208s-1.208,0.542-1.208,1.208s0.542,1.208,1.208,1.208
		S13.73,6.019,13.73,5.353z"/>
	<rect x="9.592" y="75.006" fill="#CCB683" width="65.823" height="1.602"/>
	<path fill="#7C5F53" d="M73.612,61.84h-0.305V8.082c1.174-0.354,2.029-1.443,2.029-2.729c0-1.573-1.279-2.853-2.852-2.853
		s-2.854,1.279-2.854,2.853c0,1.286,0.857,2.376,2.031,2.729V9.18H57.249c-0.844-0.039-3.238-0.362-4.473-1.398
		c-2.496-2.095-5.865-2.554-10.146-2.57c-0.004,0-0.01-0.002-0.016-0.002c-0.037,0-0.074,0.002-0.113,0.002
		c-0.037,0-0.074-0.002-0.111-0.002c-0.006,0-0.012,0.002-0.016,0.002c-4.279,0.017-7.648,0.476-10.145,2.57
		c-1.438,1.206-4.248,1.387-4.477,1.398H13.342V8.082c1.173-0.354,2.03-1.443,2.03-2.729c0-1.573-1.279-2.853-2.853-2.853
		c-1.571,0-2.853,1.279-2.853,2.853c0,1.286,0.857,2.375,2.029,2.729v53.756h-0.304c-1.935,0-3.448,2.256-3.448,5.135v14.705
		c0,0.453,0.368,0.822,0.822,0.822s0.822-0.369,0.822-0.822V78.25h65.824v3.428c0,0.453,0.367,0.822,0.822,0.822
		c0.453,0,0.82-0.369,0.82-0.822V66.973C77.062,64.094,75.546,61.84,73.612,61.84z M71.278,5.353c0-0.666,0.543-1.208,1.207-1.208
		c0.666,0,1.209,0.542,1.209,1.208s-0.543,1.208-1.209,1.208C71.821,6.561,71.278,6.019,71.278,5.353z M68.562,10.825h3.104v3.873
		h-3.336c0.451-0.608,0.699-1.341,0.699-2.112C69.028,11.957,68.864,11.355,68.562,10.825z M27.667,21.504
		c-0.617,0.377-1.141,1.021-1.277,2.004l-8.002,4.338c-0.381,0.179-2.842,1.463-2.93,5.01c-0.027,1.089,0.353,5.191,0.369,5.365
		c0.021,0.248,0.154,0.47,0.36,0.607c0.206,0.139,0.463,0.176,0.699,0.104l2.058-0.635v12.678c0,0.271,0.135,0.527,0.357,0.68
		c0.1,0.066,2.473,1.646,7.857,1.646s7.758-1.58,7.855-1.646c0.225-0.152,0.357-0.406,0.357-0.68V38.297l2.059,0.635
		c0.236,0.072,0.494,0.035,0.699-0.104c0.207-0.138,0.338-0.361,0.361-0.607c0.016-0.174,0.396-4.276,0.369-5.365
		c-0.088-3.547-2.549-4.831-2.932-5.01l-7.881-4.271c0.189-0.748,0.838-0.855,1.137-0.863c0.455,0,0.822-0.367,0.822-0.822v-0.385
		h19.525c-0.617,0.377-1.141,1.021-1.275,2.004l-8.025,4.354c-0.33,0.18-0.498,0.561-0.404,0.925c0.092,0.365,0.42,0.62,0.797,0.62
		h1.666v28.035c0,0.455,0.367,0.822,0.822,0.822h6.236c-0.301,2.363-0.48,5.088-0.48,8.23c0,0.453,0.369,0.82,0.822,0.82h9.877
		h9.877c0.453,0,0.82-0.367,0.82-0.82c0-14.635-3.92-20.26-5.6-21.998c3.76-4.084,3.168-9.943,3.139-10.203
		c-0.045-0.418-0.396-0.732-0.816-0.732c-1,0-1.242-0.641-1.297-0.887v-3.268h2.281c0.375,0,0.703-0.255,0.797-0.62
		c0.094-0.364-0.074-0.745-0.404-0.925l-7.906-4.286c0.189-0.748,0.838-0.856,1.137-0.862c0.455,0,0.822-0.369,0.822-0.822v-0.385
		h9.248v51.855H13.346V21.506h14.321V21.504z M26.356,19.86c0.059-0.5,0.484-0.89,1.002-0.89c0.516,0,0.939,0.389,1,0.89H26.356z
		 M20.255,36.523c-0.209-0.155-0.48-0.201-0.729-0.125l-2.152,0.663c-0.125-1.435-0.289-3.521-0.272-4.164
		c0.065-2.675,1.903-3.524,1.976-3.558c0.023-0.01,2.174-1.174,2.174-1.174c0.109,0.735,0.393,1.631,1.064,2.418
		c1.031,1.207,2.662,1.818,4.844,1.818c2.184,0,3.812-0.611,4.846-1.818c0.672-0.787,0.955-1.682,1.066-2.418
		c0,0,2.148,1.164,2.166,1.172c0.08,0.034,1.916,0.885,1.982,3.56c0.016,0.644-0.148,2.729-0.271,4.165l-2.152-0.663
		c-0.25-0.077-0.52-0.031-0.73,0.125c-0.209,0.155-0.332,0.399-0.332,0.661V50.49c-0.787,0.377-2.883,1.17-6.57,1.17
		c-3.693,0-5.789-0.795-6.572-1.17V37.187C20.589,36.924,20.466,36.678,20.255,36.523z M23.481,29.406h7.357
		c-0.029,0.036-0.508,1.352-3.68,1.352S23.513,29.446,23.481,29.406z M31.464,27.762h-8.607c-0.02-0.17-0.025-0.325-0.025-0.453
		l4.328-2.346l4.33,2.348C31.489,27.438,31.483,27.592,31.464,27.762z M60.073,21.504c-0.617,0.377-1.141,1.021-1.277,2.004
		l-4.498,2.439l-4.377-2.373c0.188-0.748,0.838-0.855,1.137-0.863c0.453,0,0.822-0.367,0.822-0.822v-0.385H60.073L60.073,21.504z
		 M58.763,19.86c0.059-0.5,0.484-0.89,1-0.89c0.518,0,0.941,0.389,1.002,0.89H58.763z M63.007,45.207
		c0.057,0.038,5.438,3.979,5.609,20.463h-9.051h-9.051c0.176-16.483,5.555-20.424,5.604-20.457c0.211-0.142,0.346-0.371,0.365-0.623
		c0.018-0.252-0.078-0.498-0.268-0.67c-3.082-2.817-3.316-7.166-3.287-8.799c1.477-0.328,2.053-1.562,2.148-2.26
		c0.006-0.038,0.008-0.256,0.008-0.256c0.951,1.039,2.385,1.818,4.48,1.818s3.527-0.779,4.479-1.818c0,0,0.004,0.218,0.008,0.256
		c0.1,0.697,0.676,1.932,2.15,2.26c0.033,1.633-0.193,5.971-3.289,8.801c-0.184,0.168-0.277,0.414-0.262,0.662
		C62.671,44.834,62.802,45.064,63.007,45.207z M43.933,29.406h9.51v3.264c-0.061,0.262-0.305,0.891-1.297,0.891
		c-0.42,0-0.771,0.316-0.818,0.732c-0.027,0.26-0.619,6.118,3.141,10.203c-1.23,1.275-3.67,4.643-4.881,12.125h-5.654V29.406
		L43.933,29.406z M43.866,27.762l5.162-2.799l3.545,1.92l-1.621,0.879H43.866L43.866,27.762z M55.235,29.406h8.662
		c-0.1,0.389-0.264,0.866-0.527,1.335c-0.768,1.353-2.047,2.038-3.805,2.038s-3.035-0.686-3.803-2.038
		C55.497,30.271,55.335,29.795,55.235,29.406z M57.642,27.762l-1.619-0.879l3.543-1.92l5.164,2.799H57.642L57.642,27.762z
		 M48.226,19.86c0.059-0.5,0.484-0.89,1-0.89c0.518,0,0.941,0.389,1,0.89H48.226z M62.411,19.86
		c-0.062-1.407-1.225-2.534-2.646-2.534s-2.584,1.127-2.646,2.534h-5.244c-0.062-1.407-1.225-2.534-2.645-2.534
		c-1.424,0-2.584,1.127-2.646,2.534H30.007c-0.062-1.407-1.225-2.534-2.646-2.534s-2.584,1.127-2.646,2.534H13.348v-3.519h58.319
		v3.519H62.411L62.411,19.86z M57.196,10.824c0.012,0,5.998,0,5.998,0c-0.148,0.33-0.23,0.689-0.23,1.061
		c0,0.688,0.27,1.336,0.756,1.822c0.32,0.321,0.84,0.321,1.162,0c0.32-0.32,0.32-0.842,0-1.162c-0.176-0.177-0.273-0.41-0.273-0.66
		c0-0.248,0.098-0.482,0.273-0.66c0.26-0.258,0.604-0.4,0.971-0.4c0.365,0,0.711,0.143,0.971,0.402
		c0.361,0.361,0.561,0.845,0.561,1.357c0,0.512-0.199,0.994-0.561,1.356c-0.43,0.428-1.258,0.709-2.223,0.756h-2.104
		c-1.758-0.067-5.383-0.506-7.23-2.884c-0.461-0.594-0.932-1.137-1.408-1.631C55.483,10.742,57.097,10.82,57.196,10.824z
		 M47.706,8.51c1.822,0,4.156,1.604,6.262,4.313c0.611,0.787,1.359,1.397,2.166,1.875H49.39c0.652-0.915,0.631-2.094-0.104-2.892
		c-0.309-0.334-0.828-0.354-1.162-0.047c-0.334,0.309-0.354,0.828-0.047,1.162c0.287,0.312,0.072,0.748-0.145,0.965
		c-0.182,0.184-0.855,0.711-1.863-0.207c-1.32-1.201-1.576-2.604-0.701-3.85c0.607-0.865,1.348-1.298,2.264-1.32
		C47.655,8.51,47.679,8.51,47.706,8.51z M42.505,6.854c1.422,0.002,2.73,0.055,3.924,0.2c-0.939,0.289-1.76,0.908-2.406,1.83
		c-1.312,1.869-1.021,4.074,0.736,5.812h-4.51c1.76-1.738,2.051-3.943,0.738-5.812c-0.648-0.922-1.467-1.541-2.406-1.83
		C39.774,6.909,41.081,6.857,42.505,6.854z M37.378,8.51c0.916,0.022,1.656,0.455,2.264,1.322c0.875,1.244,0.619,2.647-0.701,3.85
		c-1.01,0.916-1.684,0.39-1.865,0.205c-0.215-0.217-0.43-0.651-0.145-0.963c0.309-0.334,0.287-0.854-0.047-1.162
		c-0.334-0.309-0.854-0.287-1.162,0.045c-0.734,0.798-0.756,1.977-0.105,2.892h-6.744c0.807-0.478,1.555-1.088,2.168-1.875
		C33.175,10.078,35.544,8.469,37.378,8.51z M18.188,11.227c0.258-0.26,0.602-0.401,0.969-0.401s0.711,0.142,0.969,0.401
		c0.176,0.176,0.273,0.41,0.273,0.66c0,0.248-0.098,0.482-0.273,0.658c-0.32,0.321-0.32,0.842,0,1.164
		c0.322,0.32,0.842,0.32,1.164,0c0.486-0.488,0.754-1.135,0.754-1.822c0-0.373-0.082-0.732-0.23-1.062c0,0,5.986,0,5.998-0.001
		c0.1-0.004,1.715-0.082,3.34-0.643c-0.479,0.496-0.949,1.039-1.41,1.633c-1.848,2.376-5.473,2.816-7.23,2.884h-2.104
		c-0.963-0.046-1.793-0.329-2.221-0.756c-0.363-0.362-0.562-0.845-0.562-1.356C17.624,12.073,17.825,11.59,18.188,11.227z
		 M16.448,10.825c-0.304,0.531-0.468,1.132-0.468,1.761c0,0.771,0.248,1.504,0.699,2.112h-3.336v-3.873H16.448L16.448,10.825z
		 M11.314,5.353c0-0.666,0.542-1.208,1.208-1.208s1.208,0.542,1.208,1.208s-0.542,1.208-1.208,1.208S11.314,6.019,11.314,5.353z
		 M9.592,66.975c0-2.059,0.95-3.492,1.804-3.492H11.7v9.879H9.591L9.592,66.975L9.592,66.975z M75.417,76.607H9.593v-1.602h65.824
		V76.607z M75.417,73.361h-2.109v-9.879h0.307c0.854,0,1.803,1.436,1.803,3.492V73.361L75.417,73.361z"/>
</g>
</svg>
