<?xml version="1.0" encoding="utf-8"?>
<!-- Generator: Adobe Illustrator 16.0.0, SVG Export Plug-In . SVG Version: 6.00 Build 0)  -->
<!DOCTYPE svg PUBLIC "-//W3C//DTD SVG 1.1//EN" "http://www.w3.org/Graphics/SVG/1.1/DTD/svg11.dtd">
<svg version="1.1" id="Layer_1" xmlns="http://www.w3.org/2000/svg" xmlns:xlink="http://www.w3.org/1999/xlink" x="0px" y="0px"
	 width="85px" height="85px" viewBox="0 0 85 85" enable-background="new 0 0 85 85" xml:space="preserve">
<g>
	<g enable-background="new    ">
		<path fill="#FBB040" d="M26.46,55.916v4.209H2.859C2.83,59.068,3,58.05,3.369,57.083c0.598-1.606,1.565-3.192,2.882-4.747
			c1.327-1.557,3.232-3.362,5.735-5.407c3.88-3.183,6.504-5.706,7.871-7.561c1.367-1.855,2.044-3.621,2.044-5.277
			c0-1.736-0.618-3.202-1.865-4.399c-1.247-1.196-2.862-1.785-4.857-1.785c-2.114,0-3.8,0.628-5.067,1.895
			c-1.267,1.267-1.905,3.022-1.924,5.258l-4.509-0.459c0.308-3.361,1.465-5.926,3.481-7.682c2.014-1.765,4.718-2.643,8.109-2.643
			c3.422,0,6.134,0.947,8.129,2.853c1.996,1.904,2.993,4.25,2.993,7.062c0,1.427-0.289,2.833-0.877,4.21s-1.557,2.833-2.913,4.358
			c-1.356,1.527-3.611,3.622-6.752,6.284c-2.633,2.205-4.319,3.71-5.067,4.489c-0.748,0.787-1.367,1.576-1.855,2.374H26.46V55.916z"
			/>
	</g>
	<g enable-background="new    ">
		<path d="M26.816,60.482H2.513l-0.01-0.348c-0.03-1.102,0.148-2.172,0.532-3.179c0.606-1.626,1.597-3.26,2.944-4.852
			c1.359-1.595,3.305-3.428,5.783-5.451c3.832-3.143,6.46-5.666,7.809-7.497c1.311-1.779,1.975-3.483,1.975-5.065
			c0-1.652-0.575-3.007-1.755-4.142c-1.182-1.134-2.69-1.686-4.611-1.686c-2.035,0-3.61,0.585-4.815,1.791
			c-1.19,1.189-1.802,2.874-1.821,5.008l-0.004,0.391l-5.249-0.534l0.032-0.351c0.317-3.447,1.529-6.111,3.603-7.917
			c2.068-1.812,4.875-2.731,8.343-2.731c3.507,0,6.325,0.993,8.375,2.951c2.059,1.967,3.104,4.43,3.104,7.32
			c0,1.479-0.306,2.943-0.907,4.35c-0.607,1.419-1.607,2.918-2.974,4.456c-1.371,1.541-3.591,3.608-6.789,6.319
			c-2.477,2.073-4.265,3.657-5.041,4.464c-0.56,0.588-1.046,1.183-1.455,1.771h17.234V60.482z M3.213,59.769h22.891v-3.507H8.289
			l0.332-0.542c0.494-0.807,1.133-1.626,1.901-2.433c0.805-0.839,2.567-2.399,5.097-4.518c3.126-2.65,5.386-4.752,6.715-6.247
			c1.315-1.479,2.275-2.915,2.851-4.262c0.563-1.318,0.85-2.687,0.85-4.07c0-2.726-0.942-4.953-2.882-6.805
			c-1.914-1.828-4.566-2.754-7.884-2.754c-3.291,0-5.94,0.86-7.875,2.555c-1.862,1.622-2.979,4.008-3.326,7.095l3.772,0.384
			c0.09-2.145,0.769-3.865,2.02-5.116c1.327-1.326,3.117-2,5.319-2c2.084,0,3.801,0.635,5.104,1.885
			c1.311,1.258,1.975,2.825,1.975,4.656c0,1.737-0.712,3.584-2.114,5.488c-1.385,1.879-4.053,4.445-7.931,7.624
			c-2.446,1.998-4.359,3.802-5.691,5.364c-1.292,1.526-2.242,3.089-2.82,4.64C3.391,58.024,3.227,58.883,3.213,59.769z"/>
	</g>
	<g enable-background="new    ">
		<path fill="#FBB040" d="M30.859,42.52c0-4.219,0.439-7.621,1.307-10.194c0.868-2.574,2.155-4.559,3.871-5.956
			c1.716-1.396,3.871-2.094,6.463-2.094c1.914,0,3.59,0.39,5.036,1.157c1.446,0.769,2.634,1.886,3.581,3.332
			c0.938,1.457,1.677,3.222,2.215,5.307c0.538,2.085,0.808,4.898,0.808,8.438c0,4.189-0.43,7.571-1.287,10.145
			s-2.145,4.559-3.859,5.965c-1.716,1.406-3.881,2.104-6.493,2.104c-3.441,0-6.144-1.236-8.109-3.7
			C32.036,54.07,30.859,49.232,30.859,42.52z M35.358,42.52c0,5.864,0.688,9.764,2.055,11.701c1.376,1.944,3.062,2.911,5.077,2.911
			s3.699-0.977,5.076-2.921c1.376-1.946,2.055-5.847,2.055-11.691c0-5.875-0.688-9.786-2.055-11.71
			c-1.377-1.936-3.083-2.903-5.126-2.903c-2.015,0-3.621,0.847-4.818,2.553C36.117,32.646,35.358,36.666,35.358,42.52z"/>
	</g>
	<g enable-background="new    ">
		<path d="M42.5,61.08c-3.536,0-6.359-1.29-8.388-3.835c-2.394-3.003-3.609-7.957-3.609-14.725c0-4.232,0.446-7.7,1.326-10.308
			c0.887-2.63,2.227-4.689,3.983-6.118c1.772-1.443,4.023-2.174,6.688-2.174c1.955,0,3.705,0.403,5.204,1.198
			c1.476,0.784,2.725,1.945,3.711,3.452c0.957,1.485,1.718,3.306,2.262,5.413c0.544,2.104,0.818,4.973,0.818,8.527
			c0,4.209-0.438,7.658-1.304,10.257c-0.874,2.621-2.21,4.684-3.973,6.128C47.449,60.344,45.188,61.08,42.5,61.08z M42.5,24.632
			c-2.497,0-4.597,0.678-6.239,2.015c-1.649,1.343-2.914,3.292-3.757,5.793c-0.855,2.534-1.289,5.925-1.289,10.08
			c0,6.602,1.162,11.406,3.454,14.282c1.888,2.365,4.522,3.566,7.831,3.566c2.52,0,4.629-0.681,6.267-2.023
			c1.656-1.359,2.918-3.312,3.748-5.804c0.842-2.525,1.269-5.899,1.269-10.031c0-3.494-0.268-6.303-0.797-8.349
			c-0.525-2.032-1.255-3.783-2.169-5.204c-0.918-1.402-2.078-2.482-3.448-3.21C45.976,25.007,44.338,24.632,42.5,24.632z
			 M42.49,57.49c-2.124,0-3.929-1.032-5.368-3.063c-1.427-2.021-2.12-5.916-2.12-11.907c0-5.896,0.783-10.022,2.327-12.262
			c1.262-1.797,2.98-2.708,5.111-2.708c2.153,0,3.976,1.028,5.417,3.054c1.407,1.982,2.12,5.992,2.12,11.917
			c0,5.989-0.693,9.879-2.12,11.896C46.414,56.456,44.608,57.49,42.49,57.49z M42.44,28.263c-1.911,0-3.392,0.785-4.526,2.402
			c-1.46,2.116-2.201,6.105-2.201,11.854c0,5.757,0.669,9.625,1.99,11.495c1.315,1.857,2.881,2.762,4.787,2.762
			c1.899,0,3.465-0.906,4.785-2.771s1.99-5.729,1.99-11.485c0-5.774-0.67-9.645-1.99-11.504
			C45.958,29.163,44.376,28.263,42.44,28.263z"/>
	</g>
	<g enable-background="new    ">
		<path fill="#FBB040" d="M58.861,42.52c0-4.219,0.439-7.621,1.307-10.194c0.868-2.574,2.155-4.559,3.871-5.956
			c1.716-1.396,3.87-2.094,6.464-2.094c1.915,0,3.591,0.39,5.038,1.157c1.445,0.769,2.632,1.886,3.581,3.332
			c0.938,1.457,1.675,3.222,2.214,5.307c0.538,2.085,0.808,4.898,0.808,8.438c0,4.189-0.429,7.571-1.286,10.145
			c-0.858,2.573-2.146,4.559-3.861,5.965s-3.88,2.104-6.493,2.104c-3.441,0-6.145-1.236-8.11-3.7
			C60.038,54.07,58.861,49.232,58.861,42.52z M63.37,42.52c0,5.864,0.688,9.764,2.055,11.701c1.378,1.944,3.063,2.911,5.078,2.911
			s3.701-0.977,5.077-2.921c1.377-1.946,2.056-5.847,2.056-11.691c0-5.875-0.688-9.786-2.056-11.71
			c-1.376-1.936-3.082-2.903-5.127-2.903c-2.015,0-3.621,0.847-4.818,2.553C64.129,32.646,63.37,36.666,63.37,42.52z"/>
	</g>
	<g enable-background="new    ">
		<path d="M70.503,61.08c-3.536,0-6.359-1.29-8.389-3.835c-2.396-3.003-3.608-7.957-3.608-14.725c0-4.232,0.445-7.7,1.325-10.308
			c0.887-2.63,2.227-4.689,3.982-6.118c1.772-1.443,4.024-2.174,6.689-2.174c1.955,0,3.707,0.403,5.205,1.198
			c1.476,0.784,2.725,1.945,3.711,3.452c0.957,1.485,1.717,3.306,2.262,5.413c0.543,2.104,0.819,4.973,0.819,8.527
			c0,4.209-0.439,7.66-1.306,10.257c-0.873,2.621-2.21,4.684-3.972,6.128C75.454,60.344,73.193,61.08,70.503,61.08z M70.503,24.632
			c-2.497,0-4.598,0.678-6.24,2.015c-1.649,1.343-2.914,3.292-3.757,5.793c-0.855,2.534-1.288,5.926-1.288,10.08
			c0,6.602,1.162,11.408,3.453,14.282c1.888,2.365,4.523,3.566,7.832,3.566c2.521,0,4.63-0.681,6.269-2.023
			c1.656-1.359,2.917-3.312,3.747-5.804c0.842-2.525,1.27-5.899,1.27-10.031c0-3.494-0.269-6.303-0.798-8.349
			c-0.524-2.032-1.255-3.783-2.168-5.204c-0.919-1.401-2.08-2.482-3.448-3.21C73.979,25.007,72.341,24.632,70.503,24.632z
			 M70.503,57.49c-2.123,0-3.931-1.032-5.368-3.063c-1.428-2.021-2.121-5.916-2.121-11.907c0-5.896,0.784-10.022,2.327-12.262
			c1.263-1.797,2.981-2.708,5.112-2.708c2.154,0,3.978,1.028,5.417,3.054c1.407,1.982,2.121,5.992,2.121,11.917
			c0,5.989-0.693,9.879-2.12,11.896C74.429,56.456,72.621,57.49,70.503,57.49z M70.453,28.263c-1.911,0-3.393,0.785-4.527,2.402
			c-1.459,2.116-2.199,6.105-2.199,11.854c0,5.757,0.669,9.625,1.989,11.495c1.316,1.857,2.882,2.762,4.787,2.762
			c1.901,0,3.467-0.906,4.787-2.771c1.319-1.865,1.988-5.729,1.988-11.485c0-5.774-0.669-9.645-1.988-11.504
			C73.973,29.163,72.39,28.263,70.453,28.263z"/>
	</g>
</g>
</svg>
