<?xml version="1.0" encoding="utf-8"?>
<!-- Generator: Adobe Illustrator 16.0.0, SVG Export Plug-In . SVG Version: 6.00 Build 0)  -->
<!DOCTYPE svg PUBLIC "-//W3C//DTD SVG 1.1//EN" "http://www.w3.org/Graphics/SVG/1.1/DTD/svg11.dtd">
<svg version="1.1"
	 id="Layer_1" xmlns:cc="http://creativecommons.org/ns#" xmlns:dc="http://purl.org/dc/elements/1.1/" xmlns:rdf="http://www.w3.org/1999/02/22-rdf-syntax-ns#" xmlns:svg="http://www.w3.org/2000/svg"
	 xmlns="http://www.w3.org/2000/svg" xmlns:xlink="http://www.w3.org/1999/xlink" x="0px" y="0px" width="85px" height="85px"
	 viewBox="0 0 85 85" enable-background="new 0 0 85 85" xml:space="preserve">
<g>
	<path d="M38.7,18.904c-1.086-0.189-2.156-0.006-3.072,0.463L14.85,30.395c0.209,1.619,1.442,2.984,3.135,3.283
		c0.906,0.158,1.795-0.014,2.541-0.434l5.662-2.992l-5.645,6.725c0.8,1.422,2.456,2.223,4.135,1.867
		c0.903-0.193,1.661-0.688,2.196-1.355l3.487-4.152l-1.359,4.436c1.293,0.996,3.13,1.09,4.537,0.104
		c0.754-0.529,1.262-1.277,1.488-2.104l1.777-5.799l10.468,1.049c0.918,0.801,1.516,1.934,1.645,3.178l-13.261,4.846
		c-1.27,0.488-2.256,1.609-2.51,3.045c-0.215,1.223,0.148,2.42,0.899,3.297l32.542-6.369l0.008-15.197L38.7,18.904"/>
	<path d="M39.377,53.891l3.438-1.012l2.531,4.291l-5.9,7.801l-5.836-3.008l1.217-4.357l3.295,0.934l0.537-1.896l-5.198-1.471
		l-2.179,7.809l1.576,0.812l-1.695,3l-6.578-5.184l2.48-8.824l1.979,0.377l-1.027,1.027l1.393,1.393l5.861-5.861L39.377,53.891
		L39.377,53.891z M22.334,62.344l9.411,7.416l2.864-5.066l5.408,2.783l7.691-10.172l-3.979-6.748l-3.779,1.109l-4.67-4.742
		l-4.555,4.555l-5.07-0.969L22.334,62.344"/>
	<path fill="#FF4B00" d="M67.283,62.756L22.243,17.717c5.527-4.547,12.607-7.277,20.322-7.277c17.667,0,31.994,14.324,31.994,31.996
		C74.561,50.152,71.83,57.229,67.283,62.756z M42.565,74.438c-17.672,0-32.002-14.326-32.002-32.002
		c0-7.648,2.692-14.67,7.172-20.18l45.009,45.01C57.24,71.744,50.219,74.438,42.565,74.438 M42.499,2.5
		c-22.086,0-39.997,17.91-39.997,40s17.911,40,39.997,40c22.089,0,40-17.91,40-40S64.588,2.5,42.499,2.5"/>
</g>
</svg>
