<?xml version="1.0" encoding="utf-8"?>
<!-- Generator: Adobe Illustrator 16.0.0, SVG Export Plug-In . SVG Version: 6.00 Build 0)  -->
<!DOCTYPE svg PUBLIC "-//W3C//DTD SVG 1.1//EN" "http://www.w3.org/Graphics/SVG/1.1/DTD/svg11.dtd">
<svg version="1.1" id="Layer_1" xmlns="http://www.w3.org/2000/svg" xmlns:xlink="http://www.w3.org/1999/xlink" x="0px" y="0px"
	 width="85px" height="85px" viewBox="0 0 85 85" enable-background="new 0 0 85 85" xml:space="preserve">
<g>
	<path fill="#1A1411" d="M28.101,28.754c0,0,2.162-4.833,4.41-5.321c0,0,0.811,0.467-0.137,2.112
		C31.425,27.191,28.101,28.754,28.101,28.754z"/>
	<path fill="#E2BB94" d="M28.978,19.883l4.066,4.447l-2.576,3.356c0,0-3.562-4.865-3.793-6.449
		C26.442,19.655,28.978,19.883,28.978,19.883z"/>
	<path fill="#AC9E8C" d="M28.101,28.754c-0.035,0.066,5.107,4.443,7.971,5.455c1.127,0.396,4.344-5.318,2.602-6.56
		c-0.359-0.257-5.465-3.662-6.162-4.217C32.151,25.138,29.577,27.832,28.101,28.754L28.101,28.754z"/>
	<path fill="#1A1411" d="M57.397,29.782c0,0-1.756-4.993-3.957-5.667c0,0-0.844,0.398-0.037,2.116S57.397,29.782,57.397,29.782
		L57.397,29.782z"/>
	<path fill="#8A8A7C" d="M42.015,78.088c0.004,0.011,0.004,0.023,0.006,0.034c0.104,0.623-0.795,0.869-2.51,1.477
		c-3.75,0.955-7.561,0.837-7.561,0.423c0-0.131-0.006-0.288,0.057-0.475C36.483,80.479,40.763,78.685,42.015,78.088L42.015,78.088z"
		/>
	<path fill="#64A98E" d="M35.341,77.192c1.863-0.882,3.674-1.59,3.674-1.59l2.201-0.002c0,0,0.678,1.831,0.799,2.486
		c-0.807,0.385-2.865,1.265-5.424,1.593C36.415,78.242,35.759,77.514,35.341,77.192L35.341,77.192z"/>
	<path fill="#DEDBC4" d="M34.095,77.805c0.412-0.212,0.826-0.417,1.246-0.612c0.418,0.321,1.074,1.05,1.25,2.487
		c-1.418,0.186-2.986,0.198-4.584-0.134C32.144,79.139,32.589,78.585,34.095,77.805L34.095,77.805z M38.38,77.158
		c-0.287-0.396-0.639-0.732-0.871-0.938c0.166-0.07,0.322-0.138,0.467-0.197C39.253,77.393,38.825,77.764,38.38,77.158L38.38,77.158
		z M37.343,77.709c-0.318-0.54-0.641-0.867-0.848-1.046c0.17-0.075,0.338-0.149,0.5-0.222
		C38.247,77.682,37.851,78.563,37.343,77.709L37.343,77.709z"/>
	<path fill="#8A8A7C" d="M54.763,78.923c0.018,0.06,0.035,0.112,0.043,0.157c0.131,0.555-1.932,1.754-3.93,2.547
		c-1.797,0.714-4.123,1.148-4.732,0.673C51.022,81.627,53.751,79.777,54.763,78.923z"/>
	<path fill="#5BB353" d="M47.038,79.924c0.229-0.233,0.525-0.514,0.842-0.808c1.852-0.529,2.592,1.312,2.812,2.063
		c-1.236,0.46-2.746,0.869-4.549,1.119c-0.068-0.055-0.113-0.118-0.137-0.194C45.79,81.338,46.089,80.888,47.038,79.924z"/>
	<path fill="#64A98E" d="M47.88,79.117c0.986-0.908,2.17-1.925,2.17-1.925l3.852-0.518c0,0,0.66,1.566,0.861,2.247
		c-0.637,0.54-1.961,1.472-4.07,2.258C50.472,80.43,49.731,78.587,47.88,79.117L47.88,79.117z"/>
	<path fill="#DEDBC4" d="M47.038,79.924c0.229-0.233,0.525-0.514,0.842-0.808c1.852-0.529,2.592,1.312,2.812,2.063
		c-1.236,0.46-2.746,0.869-4.549,1.119c-0.068-0.055-0.113-0.118-0.137-0.194C45.79,81.338,46.089,80.888,47.038,79.924z
		 M50.644,79.169c-0.82-0.53-1.58-0.711-1.969-0.772c0.16-0.143,0.318-0.279,0.463-0.409C50.958,78.079,51.772,79.902,50.644,79.169
		z M51.405,78.513c-0.787-0.506-1.512-0.725-1.939-0.816c0.213-0.185,0.383-0.332,0.482-0.414
		C51.79,77.889,52.231,79.046,51.405,78.513z"/>
	<path fill="#3F688A" d="M49.573,44.688c0,0,1.145,18.264,1.637,19.58c0,0,0.639,0.201,0.396,0.502l1.938,11.225l-3.992,1.061
		c0,0-5.512-16.429-7.062-24.816c0,0-1.822,8.41-2.031,9.6c0,0,0.602,0.48,0.227,0.795l-0.443,0.325l0.496,0.766l1.105,11.42
		c0,0-2.594,0.579-3.863,0.241c0,0-3.865-12.016-3.68-15.254c0.186-3.243,1.189-9.656,1.189-9.656l0.146-5.562
		C35.638,44.911,49.423,44.57,49.573,44.688L49.573,44.688z"/>
	<path fill="#3F688A" d="M40.731,50.619c-0.275-0.13-0.652-0.341-1.025-0.461c0.268,0.177,0.516,0.374,0.719,0.611
		c0.393,0.457,0.48,0.902,0.457,1.494c-0.061,1.634-0.578,3.203-0.779,4.818c-0.1,0.794-0.176,1.594-0.316,2.382
		c-0.121,0.688-0.252,1.412-0.615,2.021c-0.373,0.628-0.824,1.203-1.201,1.831c-0.229,0.377-0.457,0.754-0.709,1.116
		c0.693-0.524,1.373-1.064,1.969-1.699c0.055-0.06,0.131,0.006,0.123,0.072c-0.141,1.033-0.488,2.02-0.826,3.002
		c0.299-0.508,0.582-1.023,0.877-1.535c0.037-0.064,0.137-0.035,0.137,0.037c0.021,1.554,0.031,3.107,0.064,4.662
		c0.018,0.772,0.039,1.546,0.072,2.319c0.027,0.665,0.109,1.323,0.146,1.986c0.021,0.403,0.035,0.912-0.256,1.235
		c-0.242,0.267-0.572,0.39-0.922,0.444c-0.248,0.036-0.537,0.032-0.811-0.026c0.09,0.29,0.145,0.452,0.145,0.452
		c1.27,0.338,3.863-0.241,3.863-0.241l-1.105-11.419l-0.496-0.767l0.443-0.324c0.375-0.314-0.227-0.796-0.227-0.796
		c0.188-1.064,1.668-7.919,1.977-9.342c0.002-0.031,0.004-0.064,0.006-0.099c0.01-0.11,0.041-0.219,0.084-0.321
		C42.138,51.433,41.396,50.932,40.731,50.619L40.731,50.619z"/>
	<path fill="#3F688A" d="M51.606,64.77c0.242-0.301-0.396-0.502-0.396-0.502c-0.492-1.316-1.637-19.58-1.637-19.58
		c-0.15-0.117-13.936,0.224-13.936,0.224l-0.035,1.349c0.5,0.346,1.043,0.627,1.627,0.823c1.174,0.391,2.424,0.483,3.654,0.518
		c1.393,0.035,2.758-0.086,4.139-0.262c1.076-0.138,2.299-0.225,3.201-0.894c0.066-0.052,0.127,0.041,0.1,0.102
		c-0.385,0.904-0.83,1.786-1.135,2.722c0.348-0.121,0.664-0.309,0.986-0.495c0.049-0.026,0.107,0.01,0.109,0.065
		c0.07,1.576,0.465,3.127,0.641,4.693c0.188,1.665,0.439,3.32,0.662,4.982c0.406,3.054,0.109,6.082-0.674,9.048
		c0.65-0.808,1.072-1.788,1.455-2.742c0.02-0.051,0.105-0.082,0.137-0.017c0.34,0.796,0.561,1.632,0.695,2.485
		c0.322,2.014,0.244,4.063,0.527,6.08c0.104,0.731,0.209,1.478-0.195,2.141c-0.207,0.342-0.521,0.625-0.939,0.65
		c-0.541,0.032-1.062-0.228-1.525-0.582c0.16,0.492,0.322,0.983,0.484,1.476l3.992-1.062L51.606,64.77L51.606,64.77z"/>
	<path fill="#E2BB94" d="M43.331,24.701l0.281,3.748c0,0-1.465,3.628-2.865,3.516c-1.398-0.111-1.434-3.211-1.434-3.211l0.002-4.052
		L43.331,24.701L43.331,24.701z"/>
	<path fill="#C6B6A2" d="M35.806,36.762c0.258-2.596,0.307-7.811,1.107-10.3c0.316-0.063,2.402-0.632,2.402-0.632
		c0.219,0.856,0.822,4.523,1.26,5.293c-0.012,0.007,1.979-4.109,2.854-5.185l4.797,1.154c0,0,1.504,14.988,1.412,15.831
		c-0.088,0.843,0.438,1.494,0.438,1.494c0.506,0.833-0.994,1.498-0.994,1.498c-7.891,2.055-12.959,0.37-13.062,0.295
		c-0.104-0.074-1.426-0.818-0.896-2.059C35.462,43.359,35.688,39.463,35.806,36.762L35.806,36.762z"/>
	<path fill="#C6B6A2" d="M40.651,31.495c0.398-0.636,0.85-1.235,1.293-1.841c0.855-1.164,1.695-2.326,2.6-3.447l-1.113-0.269
		c-0.875,1.075-2.865,5.191-2.854,5.185c-0.438-0.771-1.041-4.437-1.262-5.293c0,0-0.119,0.031-0.303,0.082
		c0.109,2.133,0.629,4.226,1.234,6.277C40.368,31.946,40.515,31.711,40.651,31.495z M50.075,44.418c0,0-0.523-0.649-0.438-1.494
		c0.092-0.843-1.412-15.831-1.412-15.831l-2.139-0.515c-0.598,1.175-0.18,2.71-0.189,3.997c-0.02,1.838-0.012,3.696-0.291,5.519
		c-0.271,1.729-0.77,3.419-1.779,4.87c-0.441,0.637-0.951,1.25-1.555,1.739c-0.477,0.384-1.107,0.537-1.574,0.929
		c1.389-0.235,2.654-1.04,3.771-1.854c1.188-0.863,2.389-1.801,3.076-3.131c0.035-0.063,0.145-0.036,0.139,0.038
		c-0.105,1.505-0.525,3.021-1.391,4.272c-0.977,1.407-2.383,2.393-4.043,2.821c-1.539,0.396-3.354,0.429-4.752-0.434
		c-1.41-0.869-1.719-2.412-1.811-3.963c-0.023-0.382-0.047-0.768-0.07-1.151c-0.123,1.812-0.289,3.44-0.494,3.921
		c-0.529,1.24,0.791,1.983,0.896,2.059c0.104,0.075,5.172,1.76,13.062-0.295C49.081,45.916,50.581,45.251,50.075,44.418
		L50.075,44.418z"/>
	<path fill="#778495" d="M53.644,75.571l0.5,1.24c0,0-1.859,1.071-4.748,0.948l-0.227-1.057
		C49.169,76.704,50.712,76.94,53.644,75.571z M41.987,74.926l0.232,1.061c0,0-1.52,0.554-4.35-0.045l-0.021-0.899
		C37.849,75.042,38.87,75.792,41.987,74.926L41.987,74.926z"/>
	<path fill="#7E7E7E" d="M57.894,21.836c0.086-0.672,0.018-1.377,0.023-2.056c0.006-0.67,0.01-1.339-0.014-2.009
		c-0.025-0.669-0.102-1.405-0.49-1.95c0.084,0.022,0.17,0.047,0.254,0.071c0.238,0.08,0.488,0.156,0.742,0.142
		c0.008-0.002,0.016-0.005,0.02-0.011c0.043,0.033,0.088-0.032,0.059-0.071c-0.381-0.555-0.818-1.146-1.436-1.446
		c0.203-0.669,0.328-1.435,0.127-2.068c0-0.004-0.004-0.006-0.008-0.008c0-0.002,0.002-0.005,0.004-0.006
		c0.021-0.044-0.049-0.078-0.072-0.038c-0.174,0.277-0.562,0.641-0.855,1.023c-0.57-3.244-3.098-5.914-6.01-7.244
		c-4.154-1.9-9.145-1.235-13.105-3.592c-0.016-0.013-0.031-0.006-0.043,0.004c-0.031-0.022-0.061-0.047-0.094-0.069
		c-0.037-0.027-0.084,0.024-0.053,0.062c0.5,0.59,1.01,1.155,1.467,1.779c0.113,0.155,0.23,0.332,0.352,0.514
		c-0.318,0.015-0.641,0.033-0.961,0.07c-0.689,0.081-1.406,0.4-2.027,0.695c-0.057,0.025-0.027,0.113,0.031,0.101
		c0.014-0.001,0.029-0.006,0.043-0.008c0.377,0.248,0.77,0.448,1.18,0.633c0.236,0.108,0.469,0.239,0.703,0.362
		c-0.783,0.232-1.52,0.682-2.27,0.98c-0.016,0.008-0.025,0.021-0.025,0.039c-0.006,0-0.008-0.002-0.012-0.002
		c-0.039-0.004-0.055,0.059-0.016,0.071c0.521,0.168,1.002,0.495,1.416,0.879c-0.047,1.154-0.508,2.356-0.91,3.396
		c-0.492,1.285-1.123,2.567-1.516,3.885c-0.02,0.062-0.004,0.123,0.027,0.169c-0.1,0.282-0.158,0.568-0.133,0.89
		c0.049,0.618,0.5,1.26,0.822,1.76c0.801,1.237,1.957,2.141,3.158,2.954c2.57,1.74,5.578,3.204,8.756,2.339
		c0.006-0.003,0.006-0.007,0.012-0.008c0.408,0.017,0.812,0.015,1.189,0.04c0.982,0.063,1.795,0.074,2.746-0.231
		c0.836-0.268,1.615-0.675,2.447-0.95c0.963-0.319,1.867-0.303,2.842-0.059c0.035,0.009,0.064-0.009,0.086-0.031
		c0.035,0.045,0.09,0.003,0.086-0.041c-0.018-0.302-0.137-0.602-0.219-0.891c-0.037-0.117-0.064-0.239-0.094-0.36
		c0.096,0.009,0.193,0.018,0.289,0.026c0.488,0.056,0.928,0.179,1.377,0.366c0.033,0.015,0.059-0.008,0.066-0.037
		C57.878,21.884,57.892,21.862,57.894,21.836L57.894,21.836z"/>
	<path fill="#EDC9A6" d="M48.013,23.77c0,0,0.064,0.94,1.031,1.431c0.967,0.489,2.148-0.303,2.598-1.01
		c0.445-0.708,0.799-1.668-0.389-1.659c-1.191,0.008-2.34,0.556-2.34,0.556L48.013,23.77z M36.114,14.014c0,0-0.018-1.569-1.02-1.58
		c-0.998-0.01-1.578,0.99-1.5,1.872c0.055,0.598,0.773,2.131,1.176,2.156C35.171,16.488,36.114,14.014,36.114,14.014L36.114,14.014z
		"/>
	<path fill="#C19168" d="M35.153,14.625c0.027-0.22,0.031-0.438-0.014-0.652c-0.086-0.417-0.445-0.562-0.807-0.36
		c-0.029,0.016-0.016,0.061,0.014,0.054c0.18-0.037,0.365-0.055,0.469,0.119c0.072,0.121,0.096,0.285,0.102,0.428
		c-0.209-0.038-0.441,0.032-0.615,0.134c-0.033,0.021-0.02,0.084,0.023,0.072c0.209-0.063,0.402-0.073,0.598,0.02
		c-0.002,0.086-0.004,0.174-0.012,0.263c-0.012,0.125-0.062,0.277-0.018,0.398c0.018,0.047,0.09,0.059,0.123,0.025
		C35.13,15.012,35.132,14.773,35.153,14.625z"/>
	<path fill="#EAD0A2" d="M53.585,15.539c-0.357-1.854-1.625-3.601-2.965-4.864c-2.301-2.167-5.67-3.447-8.779-2.746
		c-1.029,0.076-2.029,0.381-2.785,1.144c-0.574,0.575-0.91,1.366-1.264,2.088c-0.459,0.938-1.027,1.639-1.824,2.304
		c-1.143,0.953-2.729,3.859-1.369,7.742c1.207,3.444,5.217,5.147,8.83,4.732c2.977-0.343,5.268-1.792,6.994-4.06
		c0.285-0.373,0.559-0.756,0.824-1.146c0.049,0.012,0.1,0.007,0.152-0.032C53.019,19.513,53.972,17.532,53.585,15.539z"/>
	<path fill="#3C1D11" d="M43.312,19.529c-0.221,0.395-0.568,0.619-0.773,0.506c-0.207-0.116-0.199-0.529,0.021-0.924
		c0.221-0.394,0.568-0.618,0.777-0.505C43.542,18.721,43.53,19.135,43.312,19.529z"/>
	<path fill="#FFFFFF" d="M43.05,18.992c-0.08,0.111-0.191,0.171-0.25,0.134c-0.062-0.04-0.047-0.164,0.031-0.276
		c0.076-0.112,0.189-0.172,0.25-0.132C43.142,18.755,43.128,18.879,43.05,18.992z"/>
	<path fill="#3C1D11" d="M38.31,16.688c-0.223,0.396-0.568,0.619-0.773,0.505c-0.209-0.114-0.199-0.528,0.021-0.923
		c0.221-0.394,0.568-0.619,0.775-0.504C38.542,15.882,38.53,16.296,38.31,16.688z"/>
	<path fill="#FFFFFF" d="M38.046,16.151c-0.08,0.112-0.189,0.17-0.25,0.134c-0.061-0.04-0.045-0.163,0.033-0.275
		s0.189-0.172,0.25-0.132C38.14,15.915,38.126,16.04,38.046,16.151L38.046,16.151z"/>
	<path fill="#C19168" d="M50.987,23.475c-0.449-0.468-1.42,0.156-1.816,0.405c-0.035,0.021-0.01,0.079,0.031,0.062
		c0.199-0.078,0.398-0.167,0.602-0.239c0.127,0.202,0.342,0.395,0.324,0.65c-0.004,0.05,0.07,0.069,0.086,0.021
		c0.07-0.242-0.057-0.528-0.195-0.738c0.203-0.056,0.41-0.085,0.625-0.058c0.484,0.06,0.09,0.659-0.018,0.886
		c-0.023,0.054,0.055,0.107,0.094,0.065C50.95,24.292,51.271,23.773,50.987,23.475z"/>
	<path fill="#7E7E7E" d="M52.276,10.762c-0.67-0.749-1.525-1.294-2.387-1.796c-0.967-0.562-1.895-1.169-2.947-1.561
		c-1.615-0.6-3.508-0.752-5.176-0.233c-1.139-0.112-2.35,0.12-3.43,0.288c-0.047,0.006-0.047,0.062-0.014,0.084
		c-0.002,0.023,0.006,0.047,0.035,0.06c0.666,0.292,1.35,0.526,2.037,0.767c0.182,0.062,0.363,0.129,0.549,0.197
		c-0.104,0.025-0.205,0.057-0.305,0.082c-0.424,0.119-0.836,0.286-1.248,0.434c-0.061,0.023-0.025,0.119,0.035,0.106
		c0.004,0,0.01-0.001,0.012-0.001C39.435,9.215,39.45,9.24,39.474,9.25c1.26,0.498,2.492,1.019,3.734,1.565
		c0.709,0.314,1.428,0.617,2.135,0.943c0.361,0.168,0.748,0.31,1.127,0.459c-0.074,0.042-0.145,0.085-0.209,0.121
		c-0.312,0.181-0.613,0.394-0.957,0.518c-0.049,0.017-0.031,0.071,0.004,0.089c-0.01,0.021-0.008,0.045,0.014,0.062
		c0.773,0.592,1.77,0.84,2.688,1.132c0.586,0.184,1.232,0.349,1.871,0.413c-0.238,0.604-0.176,1.331-0.217,1.962
		c-0.012,0.008-0.025,0.014-0.033,0.022c-0.064,0.052,0.004,0.141,0.072,0.113c0.646-0.254,1.27-0.536,1.852-0.897
		c-0.416,0.95-0.484,2.14-0.766,3.094c-0.209,0.704-0.451,1.395-0.688,2.089c-0.217,0.63-0.574,1.288-0.637,1.955
		c-0.002,0.056,0.035,0.103,0.08,0.122c0.006,0.038,0.047,0.062,0.086,0.034c0.816-0.618,1.77-1.041,2.607-1.644
		c0.643-0.465,1.186-1.115,1.594-1.816C56.78,16.867,54.372,13.1,52.276,10.762z"/>
	<path fill="#959494" d="M53.362,20.144c-0.09,0.067-0.205,0.001-0.223-0.1c0-0.003,0-0.005-0.002-0.006
		c-0.004-0.001-0.01-0.001-0.016-0.003c-0.062-0.021-0.086-0.095-0.082-0.15c0.064-0.788,0.354-1.509,0.627-2.238
		c-0.119,0.113-0.24,0.224-0.369,0.322c-0.068,0.054-0.188,0.021-0.215-0.065c-0.34-1.079-0.533-2.196-0.576-3.326
		c-0.629,0.628-1.346,1.144-2.207,1.403c-0.086,0.027-0.18-0.021-0.188-0.117c-0.082-0.853,0.252-1.64,0.52-2.433
		c-1.227,0.148-2.412,0.023-3.615-0.264c-0.119-0.026-0.168-0.178-0.061-0.256c0.742-0.539,1.656-0.869,2.291-1.541
		c-0.658-0.092-1.328-0.108-1.98-0.242c-0.703-0.141-1.383-0.346-2.059-0.574c-1.348-0.458-2.795-0.695-4.09-1.298
		c-0.137-0.065-0.088-0.245,0.043-0.272c0.639-0.133,1.283-0.232,1.926-0.322c-1.559-0.475-3.182-0.694-4.76-1.104
		c0,0.021,0.008,0.039,0.033,0.049c0.666,0.292,1.35,0.526,2.037,0.767c0.182,0.062,0.363,0.129,0.549,0.196
		c-0.104,0.026-0.205,0.058-0.305,0.083c-0.424,0.119-0.836,0.286-1.248,0.434c-0.062,0.023-0.025,0.119,0.035,0.107
		c0.004,0,0.008-0.001,0.012-0.001c-0.004,0.026,0.01,0.052,0.035,0.062c1.26,0.498,2.492,1.018,3.734,1.564
		c0.711,0.314,1.428,0.618,2.135,0.943c0.363,0.168,0.748,0.311,1.127,0.459c-0.074,0.042-0.145,0.085-0.207,0.121
		c-0.316,0.181-0.617,0.394-0.959,0.518c-0.049,0.016-0.033,0.071,0.002,0.09c-0.008,0.02-0.006,0.043,0.016,0.061
		c0.775,0.592,1.768,0.841,2.688,1.132c0.586,0.184,1.232,0.35,1.871,0.413c-0.236,0.604-0.176,1.331-0.217,1.962
		c-0.012,0.008-0.021,0.014-0.033,0.022c-0.064,0.051,0.006,0.141,0.072,0.113c0.646-0.254,1.27-0.536,1.852-0.897
		c-0.412,0.95-0.484,2.141-0.766,3.094c-0.207,0.704-0.451,1.395-0.688,2.089c-0.217,0.629-0.574,1.288-0.635,1.955
		c-0.004,0.056,0.033,0.103,0.078,0.122c0.008,0.038,0.047,0.062,0.086,0.034c0.818-0.618,1.77-1.04,2.607-1.644
		c0.531-0.383,0.994-0.896,1.369-1.457C53.526,20.013,53.446,20.082,53.362,20.144L53.362,20.144z"/>
	<path fill="#7E7E7E" d="M45.56,18.477c-0.18-0.422-0.457-0.904-0.809-1.207c-0.492-0.424-1.318-0.633-1.566-1.272
		c-0.008-0.02-0.023-0.035-0.043-0.049c-0.066,0.177-0.123,0.353-0.16,0.534c0.072,0.206,0.209,0.396,0.359,0.507
		c0.688,0.52,1.426,0.892,2.043,1.511C45.431,18.548,45.614,18.606,45.56,18.477z M37.097,14.086
		c0.443-0.119,0.994-0.195,1.449-0.104c0.639,0.128,1.311,0.652,1.967,0.456c0.021-0.006,0.043-0.002,0.064,0.004
		c-0.098,0.16-0.203,0.313-0.324,0.453c-0.205,0.071-0.439,0.078-0.619,0.029c-0.832-0.224-1.582-0.581-2.447-0.687
		C37.12,14.231,36.962,14.123,37.097,14.086L37.097,14.086z"/>
	<path fill="#C39368" d="M39.396,18.242c-0.771-0.064-1.746,0.343-2.338,0.825c-0.57,0.466,0.709,1.255,1.049,1.335
		c0.049,0.013,0.141-0.095,0.088-0.128c-0.391-0.235-1.545-0.834-0.771-1.303c0.568-0.344,1.285-0.655,1.953-0.688
		C39.39,18.282,39.415,18.244,39.396,18.242z"/>
	<path fill="#FFFFFF" d="M39.032,24.27c0.875-0.275,1.885-0.004,2.623,0.553c0.012-0.022,0.018-0.048,0.006-0.065
		c-0.328-0.497-0.689-0.771-1.262-0.937c-0.365-0.104-1.105-0.271-1.451-0.062c-0.037,0.021-0.062,0.062-0.061,0.104
		C38.89,23.935,38.931,24.206,39.032,24.27z"/>
	<path fill="#E2BB94" d="M56.046,22.746l-2.949,2.605l1.934,2.981c0,0,2.441-2.284,2.99-3.788
		C58.573,23.042,56.046,22.746,56.046,22.746z"/>
	<path fill="#F4D9BF" d="M58.659,23.113c-0.111,0.451-0.492,2.021-1.621,2.021c-2.689,0-7.002-10.801-7.002-10.801l2.184-0.919
		C52.22,13.414,58.097,20.072,58.659,23.113z"/>
	<path fill="#F4D9BF" d="M51.54,7.471c-0.352,0.015-0.879,0.403-1.055,1.521c-0.936-1.229-2.477-1.732-3.076-1.869
		c-0.605-0.133-0.896,0.324-0.896,0.324s-0.604-0.135-0.787,0.133c-0.178,0.604,0.953,1.041,1.727,1.852
		c-0.539-0.188-2.244-0.839-2.441-0.139c-0.197,0.701,1.691,0.949,2.479,1.734c-0.684-0.252-1.826-0.303-1.814,0.139
		c0.029,0.613,0.955,0.77,1.613,0.966c0.652,0.198,0.324,0.672,0.959,1.571c0.273,0.304,1.521,2.086,2.461,2
		c0.859-0.078,1.756-0.879,2.133-1.648c0.131-0.271-0.193-1.986-1.166-4.279C51.351,9.019,51.892,7.458,51.54,7.471z"/>
	<path fill="#C39368" d="M46.513,7.447c0,0,0.074,0.004,0.205,0.028c0.131,0.028,0.314,0.069,0.529,0.149
		c0.105,0.043,0.221,0.084,0.34,0.142c0.057,0.026,0.119,0.058,0.18,0.085c0.061,0.034,0.123,0.068,0.186,0.104
		c0.127,0.066,0.248,0.15,0.373,0.232c0.121,0.087,0.244,0.178,0.365,0.271c0.111,0.101,0.23,0.197,0.34,0.3
		c0.105,0.104,0.211,0.21,0.305,0.315c0.094,0.104,0.186,0.211,0.266,0.312c0.082,0.103,0.154,0.204,0.223,0.293
		c0.066,0.092,0.127,0.178,0.172,0.257c0.049,0.079,0.09,0.148,0.125,0.205c0.066,0.114,0.104,0.178,0.104,0.178l-0.131-0.158
		c-0.041-0.051-0.092-0.114-0.15-0.186c-0.055-0.072-0.127-0.148-0.197-0.234c-0.074-0.084-0.15-0.177-0.238-0.271
		c-0.09-0.093-0.188-0.188-0.281-0.289c-0.098-0.101-0.205-0.194-0.311-0.297c-0.107-0.099-0.223-0.192-0.336-0.288
		c-0.113-0.094-0.23-0.186-0.35-0.271c-0.123-0.078-0.236-0.17-0.355-0.237c-0.111-0.073-0.227-0.144-0.344-0.208
		c-0.111-0.065-0.221-0.114-0.32-0.164c-0.203-0.092-0.375-0.166-0.5-0.208C46.585,7.466,46.513,7.447,46.513,7.447z M47.401,9.367
		c0,0,0.039,0.006,0.102,0.023c0.064,0.018,0.156,0.047,0.26,0.09c0.109,0.038,0.225,0.102,0.352,0.164
		c0.062,0.035,0.127,0.073,0.188,0.114c0.062,0.042,0.133,0.078,0.189,0.127c0.117,0.099,0.244,0.183,0.338,0.291
		c0.051,0.051,0.096,0.103,0.141,0.151c0.045,0.047,0.086,0.093,0.115,0.144c0.129,0.19,0.199,0.323,0.199,0.323
		s-0.119-0.1-0.275-0.256c-0.035-0.041-0.084-0.077-0.133-0.117c-0.051-0.042-0.1-0.083-0.148-0.131
		c-0.053-0.047-0.107-0.086-0.166-0.131c-0.059-0.043-0.117-0.088-0.174-0.133c-0.057-0.047-0.117-0.086-0.18-0.125
		c-0.061-0.043-0.115-0.084-0.174-0.123c-0.117-0.072-0.223-0.151-0.316-0.209L47.401,9.367z M47.45,10.969
		c0,0,0.096,0.024,0.227,0.089c0.068,0.03,0.143,0.07,0.223,0.115c0.08,0.043,0.156,0.104,0.238,0.158
		c0.076,0.058,0.15,0.117,0.223,0.178c0.061,0.061,0.117,0.121,0.172,0.186c0.098,0.109,0.148,0.193,0.148,0.193
		s-0.094-0.042-0.215-0.12c-0.07-0.042-0.137-0.089-0.201-0.138c-0.078-0.047-0.154-0.102-0.232-0.156
		c-0.076-0.059-0.148-0.119-0.221-0.174c-0.064-0.051-0.127-0.104-0.188-0.158C47.563,11.088,47.505,11.031,47.45,10.969
		L47.45,10.969z M50.485,8.992c0,0,0.057,0.037,0.127,0.103c0.066,0.065,0.146,0.162,0.217,0.265
		c0.064,0.104,0.121,0.217,0.15,0.307c0.031,0.089,0.043,0.156,0.043,0.156s-0.061-0.035-0.127-0.102
		c-0.068-0.066-0.146-0.161-0.219-0.266c-0.062-0.104-0.121-0.215-0.148-0.305C50.493,9.059,50.485,8.992,50.485,8.992z"/>
	<path fill="#E2BB94" d="M56.046,22.746l-2.949,2.605l1.934,2.981c0,0,2.441-2.284,2.99-3.788
		C58.573,23.042,56.046,22.746,56.046,22.746z"/>
	<path fill="#F4D1A3" d="M58.659,23.113c-0.111,0.451-0.492,2.021-1.621,2.021c-2.689,0-7.002-10.801-7.002-10.801l2.184-0.919
		C52.22,13.414,58.097,20.072,58.659,23.113z"/>
	<path fill="#F4D1A3" d="M51.54,7.471c-0.352,0.015-0.879,0.403-1.055,1.521c-0.936-1.229-2.477-1.732-3.076-1.869
		c-0.605-0.133-0.896,0.324-0.896,0.324s-0.604-0.135-0.787,0.133c-0.178,0.604,0.953,1.041,1.727,1.852
		c-0.539-0.188-2.244-0.839-2.441-0.139c-0.197,0.701,1.691,0.949,2.479,1.734c-0.684-0.252-1.826-0.303-1.814,0.139
		c0.029,0.613,0.955,0.77,1.613,0.966c0.652,0.198,0.324,0.672,0.959,1.571c0.273,0.304,1.521,2.086,2.461,2
		c0.859-0.078,1.756-0.879,2.133-1.648c0.131-0.271-0.193-1.986-1.166-4.279C51.351,9.019,51.892,7.458,51.54,7.471z"/>
	<path fill="#C39368" d="M46.513,7.447c0,0,0.074,0.004,0.205,0.028c0.131,0.028,0.314,0.069,0.529,0.149
		c0.105,0.043,0.221,0.084,0.34,0.142c0.057,0.026,0.119,0.058,0.18,0.085c0.061,0.034,0.123,0.068,0.186,0.104
		c0.127,0.066,0.248,0.15,0.373,0.232c0.121,0.087,0.244,0.178,0.365,0.271c0.111,0.101,0.23,0.197,0.34,0.3
		c0.105,0.104,0.211,0.21,0.305,0.315c0.094,0.104,0.186,0.211,0.266,0.312c0.082,0.103,0.154,0.204,0.223,0.293
		c0.066,0.092,0.127,0.178,0.172,0.257c0.049,0.079,0.09,0.148,0.125,0.205c0.066,0.114,0.104,0.178,0.104,0.178l-0.131-0.158
		c-0.041-0.051-0.092-0.114-0.15-0.186c-0.055-0.072-0.127-0.148-0.197-0.234c-0.074-0.084-0.15-0.177-0.238-0.271
		c-0.09-0.093-0.188-0.188-0.281-0.289c-0.098-0.101-0.205-0.194-0.311-0.297c-0.107-0.099-0.223-0.192-0.336-0.288
		c-0.113-0.094-0.23-0.186-0.35-0.271c-0.123-0.078-0.236-0.17-0.355-0.237c-0.111-0.073-0.227-0.144-0.344-0.208
		c-0.111-0.065-0.221-0.114-0.32-0.164c-0.203-0.092-0.375-0.166-0.5-0.208C46.585,7.466,46.513,7.447,46.513,7.447z M47.401,9.367
		c0,0,0.039,0.006,0.102,0.023c0.064,0.018,0.156,0.047,0.26,0.09c0.109,0.038,0.225,0.102,0.352,0.164
		c0.062,0.035,0.127,0.073,0.188,0.114c0.062,0.042,0.133,0.078,0.189,0.127c0.117,0.099,0.244,0.183,0.338,0.291
		c0.051,0.051,0.096,0.103,0.141,0.151c0.045,0.047,0.086,0.093,0.115,0.144c0.129,0.19,0.199,0.323,0.199,0.323
		s-0.119-0.1-0.275-0.256c-0.035-0.041-0.084-0.077-0.133-0.117c-0.051-0.042-0.1-0.083-0.148-0.131
		c-0.053-0.047-0.107-0.086-0.166-0.131c-0.059-0.043-0.117-0.088-0.174-0.133c-0.057-0.047-0.117-0.086-0.18-0.125
		c-0.061-0.043-0.115-0.084-0.174-0.123c-0.117-0.072-0.223-0.151-0.316-0.209L47.401,9.367z M47.45,10.969
		c0,0,0.096,0.024,0.227,0.089c0.068,0.03,0.143,0.07,0.223,0.115c0.08,0.043,0.156,0.104,0.238,0.158
		c0.076,0.058,0.15,0.117,0.223,0.178c0.061,0.061,0.117,0.121,0.172,0.186c0.098,0.109,0.148,0.193,0.148,0.193
		s-0.094-0.042-0.215-0.12c-0.07-0.042-0.137-0.089-0.201-0.138c-0.078-0.047-0.154-0.102-0.232-0.156
		c-0.076-0.059-0.148-0.119-0.221-0.174c-0.064-0.051-0.127-0.104-0.188-0.158C47.563,11.088,47.505,11.031,47.45,10.969
		L47.45,10.969z M50.485,8.992c0,0,0.057,0.037,0.127,0.103c0.066,0.065,0.146,0.162,0.217,0.265
		c0.064,0.104,0.121,0.217,0.15,0.307c0.031,0.089,0.043,0.156,0.043,0.156s-0.061-0.035-0.127-0.102
		c-0.068-0.066-0.146-0.161-0.219-0.266c-0.062-0.104-0.121-0.215-0.148-0.305C50.493,9.059,50.485,8.992,50.485,8.992z"/>
	<path fill="#AC9E8C" d="M57.397,29.782c0.029,0.07-5.357,4.094-8.293,4.864c-1.156,0.305-3.701-6.499-1.861-7.591
		c0.381-0.225,5.457-2.443,6.197-2.938C53.657,25.844,56.001,28.74,57.397,29.782z"/>
	<path fill="#F4D1A3" d="M26.341,19.708c0.02,0.465,0.07,2.079,1.174,2.309c2.633,0.552,9.068-9.136,9.068-9.136l-1.947-1.346
		C34.636,11.535,27.521,16.847,26.341,19.708L26.341,19.708z"/>
	<path fill="#F4D1A3" d="M36.521,5.859c0.34,0.086,0.777,0.574,0.719,1.702c1.164-1.012,2.777-1.188,3.396-1.196
		c0.617-0.009,0.811,0.5,0.811,0.5s0.617-0.006,0.742,0.293c0.051,0.627-1.146,0.822-2.068,1.457
		c0.564-0.072,2.367-0.36,2.416,0.366c0.051,0.728-1.85,0.582-2.777,1.189c0.719-0.105,1.85,0.079,1.744,0.51
		c-0.15,0.593-1.092,0.556-1.771,0.614c-0.684,0.059-0.457,0.589-1.266,1.34c-0.328,0.24-1.916,1.729-2.818,1.452
		c-0.824-0.253-1.537-1.22-1.748-2.05c-0.074-0.293,0.596-1.905,2.02-3.95C36.386,7.412,36.177,5.773,36.521,5.859z"/>
	<path fill="#C39368" d="M41.446,6.865c0,0-0.076-0.012-0.207-0.015c-0.133,0.002-0.324,0.005-0.549,0.039
		c-0.111,0.021-0.236,0.037-0.363,0.069C40.265,6.973,40.2,6.99,40.134,7.005c-0.066,0.021-0.133,0.041-0.201,0.062
		c-0.139,0.039-0.273,0.096-0.414,0.151c-0.139,0.06-0.275,0.124-0.41,0.19c-0.133,0.074-0.268,0.146-0.396,0.224
		c-0.123,0.079-0.246,0.161-0.365,0.245c-0.107,0.083-0.217,0.166-0.322,0.251c-0.102,0.083-0.189,0.168-0.273,0.243
		c-0.086,0.074-0.164,0.146-0.223,0.215c-0.062,0.066-0.119,0.126-0.164,0.175c-0.088,0.097-0.137,0.151-0.137,0.151
		s0.059-0.047,0.16-0.127c0.053-0.041,0.113-0.094,0.184-0.15c0.07-0.059,0.154-0.119,0.244-0.188
		c0.09-0.067,0.184-0.145,0.289-0.217s0.219-0.146,0.334-0.225c0.115-0.078,0.242-0.148,0.363-0.227
		c0.125-0.076,0.26-0.143,0.389-0.215c0.131-0.066,0.264-0.131,0.398-0.191c0.137-0.051,0.266-0.118,0.396-0.16
		c0.131-0.051,0.258-0.096,0.381-0.133c0.119-0.041,0.236-0.066,0.346-0.096c0.217-0.049,0.402-0.086,0.531-0.102
		C41.308,6.875,41.378,6.869,41.446,6.865z M40.179,8.559c0,0-0.035-0.001-0.104,0.004c-0.066,0.003-0.16,0.013-0.273,0.034
		c-0.111,0.016-0.238,0.053-0.377,0.088c-0.066,0.021-0.137,0.046-0.207,0.073c-0.068,0.028-0.141,0.049-0.209,0.085
		c-0.135,0.072-0.277,0.129-0.393,0.215c-0.061,0.04-0.115,0.081-0.168,0.12s-0.105,0.073-0.143,0.117
		c-0.166,0.159-0.26,0.276-0.26,0.276s0.139-0.074,0.318-0.195c0.045-0.033,0.1-0.059,0.156-0.088
		c0.057-0.031,0.113-0.062,0.174-0.094c0.059-0.039,0.123-0.065,0.188-0.097c0.066-0.03,0.133-0.062,0.199-0.093
		c0.062-0.037,0.135-0.061,0.199-0.088c0.062-0.029,0.131-0.057,0.195-0.084c0.129-0.047,0.246-0.104,0.352-0.141
		C40.04,8.615,40.179,8.559,40.179,8.559L40.179,8.559z M39.806,10.119c0,0-0.102,0.006-0.242,0.041
		c-0.072,0.017-0.154,0.041-0.24,0.068c-0.088,0.026-0.176,0.068-0.264,0.105c-0.09,0.041-0.178,0.084-0.258,0.128
		c-0.07,0.045-0.139,0.094-0.205,0.146c-0.117,0.09-0.186,0.161-0.186,0.161s0.1-0.022,0.236-0.073
		c0.066-0.023,0.145-0.056,0.225-0.094c0.084-0.029,0.172-0.068,0.258-0.105c0.088-0.039,0.172-0.084,0.252-0.125
		c0.074-0.034,0.146-0.073,0.217-0.115C39.726,10.179,39.806,10.119,39.806,10.119z M37.239,7.561c0,0-0.064,0.024-0.145,0.075
		c-0.08,0.049-0.18,0.127-0.266,0.215c-0.088,0.087-0.164,0.188-0.213,0.268c-0.049,0.082-0.072,0.146-0.072,0.146
		s0.064-0.022,0.146-0.074c0.08-0.05,0.178-0.128,0.264-0.215c0.086-0.088,0.164-0.187,0.213-0.269
		C37.218,7.626,37.239,7.561,37.239,7.561z"/>
	<path fill="#C1E6F0" d="M48.431,17.418c0,0-0.885,1.391-0.648,1.524c0,0,0.273,0.222,0.4-0.158S48.431,17.418,48.431,17.418
		L48.431,17.418z M49.567,17.121c0,0-0.809,0.956-0.594,1.049c0,0,0.25,0.151,0.365-0.109
		C49.458,17.799,49.567,17.121,49.567,17.121z M48.087,15.318c0,0-0.809,0.957-0.592,1.05c0,0,0.25,0.15,0.365-0.109
		C47.976,15.997,48.087,15.318,48.087,15.318z"/>
</g>
</svg>
