<?xml version="1.0" encoding="utf-8"?>
<!-- Generator: Adobe Illustrator 16.0.0, SVG Export Plug-In . SVG Version: 6.00 Build 0)  -->
<!DOCTYPE svg PUBLIC "-//W3C//DTD SVG 1.1//EN" "http://www.w3.org/Graphics/SVG/1.1/DTD/svg11.dtd">
<svg version="1.1" id="Color" xmlns="http://www.w3.org/2000/svg" xmlns:xlink="http://www.w3.org/1999/xlink" x="0px" y="0px"
	 width="85px" height="85px" viewBox="0 0 85 85" enable-background="new 0 0 85 85" xml:space="preserve">
<g id="Layer_copy">
</g>
<g id="Layer_6_copy">
</g>
<g id="Layer_4_copy">
	<g id="Layer_7_copy">
	</g>
</g>
<g id="Layer_8_copy">
</g>
<g id="Layer_10_copy">
</g>
<g id="Layer_11_copy">
</g>
<g id="Layer_9_copy">
</g>
<g id="Layer_12_copy">
	<path fill="#37383C" d="M54.648,48.969c-1.07-1.825-2.928-3.053-5.004-3.336c-0.223-0.031-0.41-0.031-0.631-0.062
		c-0.094,0-0.221,0-0.314,0h-9.536c-0.094,0-0.221,0-0.314,0c-0.221,0-0.41,0.031-0.629,0.062c-2.078,0.283-3.936,1.511-5.006,3.336
		c-2.801,4.752-7.488,13.471-7.488,18.475c0,5.916,3.744,10.605,9.125,11.99c0.221,0.062,0.41,0.094,0.629,0.156
		c0.85,0.158,1.73,0.252,2.645,0.252H49.77c0.912,0,1.795-0.094,2.645-0.283c0.221-0.031,0.408-0.094,0.629-0.156
		c5.318-1.416,9.096-6.168,9.096-11.959C62.139,62.502,57.449,53.752,54.648,48.969z M49.77,79.182H38.125
		c-6.705,0-11.771-5.066-11.771-11.738c0-4.848,4.658-13.471,7.428-18.16c1.133-1.887,3.178-3.084,5.381-3.084h9.538
		c2.203,0,4.279,1.197,5.412,3.084c2.77,4.721,7.428,13.377,7.428,18.129C61.508,73.988,56.377,79.182,49.77,79.182z"/>
	<path fill="#37383C" d="M53.041,79.213v2.77c0,0.158-0.125,0.314-0.312,0.314H35.166c-0.188,0-0.312-0.156-0.312-0.314v-2.77
		c0-0.189,0.125-0.314,0.312-0.314c0.158,0,0.316,0.125,0.316,0.314v2.455h16.932v-2.455c0-0.189,0.125-0.314,0.314-0.314
		C52.916,78.898,53.041,79.057,53.041,79.213z"/>
	<g>
		<path fill="#E8EEFE" d="M49.014,40.975v4.596c-0.094,0-0.221,0-0.314,0h-9.536c-0.094,0-0.221,0-0.314,0v-4.596
			c0-0.156,0.156-0.314,0.314-0.314h9.536C48.889,40.66,49.014,40.785,49.014,40.975z"/>
		<path fill="#37383C" d="M49.645,40.975v4.91c0,0.188-0.127,0.314-0.314,0.314c-0.189,0-0.314-0.127-0.314-0.314v-4.91
			c0-0.156-0.127-0.314-0.314-0.314h-9.538c-0.156,0-0.314,0.158-0.314,0.314v4.91c0,0.188-0.125,0.314-0.314,0.314
			c-0.156,0-0.314-0.127-0.314-0.314v-4.91c0-0.535,0.441-0.943,0.943-0.943h9.538C49.234,40.031,49.645,40.439,49.645,40.975z"/>
	</g>
	<g>
		<path fill="#FFFFFF" d="M46.844,30.055v9.977h-5.792v-9.977c0-0.158,0.125-0.314,0.314-0.314h5.161
			C46.686,29.74,46.844,29.865,46.844,30.055z"/>
		<path fill="#37383C" d="M47.473,30.055v10.291c0,0.189-0.127,0.314-0.314,0.314s-0.314-0.125-0.314-0.314V30.055
			c0-0.158-0.125-0.314-0.314-0.314h-5.163c-0.188,0-0.314,0.156-0.314,0.314v10.291c0,0.189-0.156,0.314-0.314,0.314
			c-0.189,0-0.314-0.125-0.314-0.314V30.055c0-0.535,0.408-0.943,0.943-0.943h5.163C47.031,29.109,47.473,29.52,47.473,30.055z"/>
	</g>
	<g>
		<g>
			<path fill="#37383C" d="M40.988,36.443c0,0.188-0.125,0.313-0.314,0.313h-19.92c-3.682,0-6.672,2.989-6.672,6.672v16.616
				c0,0.158-0.127,0.314-0.315,0.314h-3.147c-0.188,0-0.314-0.156-0.314-0.314V43.429c0-5.759,4.689-10.448,10.449-10.448h19.891
				c0.156,0,0.314,0.157,0.314,0.314c0,0.189-0.158,0.314-0.314,0.314H20.753c-5.413,0-9.819,4.406-9.819,9.819v16.304h2.519V43.429
				c0-4.028,3.272-7.301,7.301-7.301h19.891C40.832,36.128,40.988,36.285,40.988,36.443z"/>
		</g>
		<path fill="#37383C" d="M51.312,33.296v3.147c0,0.188-0.127,0.313-0.314,0.313h-3.777c-0.188,0-0.314-0.126-0.314-0.313
			c0-0.158,0.127-0.315,0.314-0.315h3.463v-2.519h-3.463c-0.188,0-0.314-0.125-0.314-0.314c0-0.157,0.127-0.314,0.314-0.314h3.777
			C51.186,32.98,51.312,33.139,51.312,33.296z"/>
	</g>
	<g>
		<g>
			<rect x="47.473" y="35.625" fill="#E8EEFE" width="3.209" height="0.503"/>
			<path fill="#E8EEFE" d="M13.482,42.926v0.503c0-4.028,3.273-7.301,7.301-7.301h19.67v-0.503H20.751
				C16.755,35.625,13.482,38.898,13.482,42.926z"/>
			<rect x="47.473" y="33.611" fill="#FFFFFF" width="3.209" height="2.014"/>
			<rect x="10.965" y="59.732" fill="#FFFFFF" width="2.519" height="0.125"/>
			<path fill="#FFFFFF" d="M10.965,43.43v16.303h2.519V43.43v-0.503c0-4.028,3.272-7.301,7.301-7.301h19.668v-2.015H20.751
				C15.339,33.611,10.965,38.017,10.965,43.43z"/>
		</g>
		<path fill="#37383C" d="M16.755,60.676v3.398c0,0.189-0.126,0.314-0.314,0.314c-0.158,0-0.314-0.125-0.314-0.314v-3.398
			c0-0.188-0.126-0.314-0.314-0.314H8.605c-0.188,0-0.314,0.127-0.314,0.314v3.398c0,0.189-0.127,0.314-0.314,0.314
			c-0.189,0-0.314-0.125-0.314-0.314v-3.398c0-0.535,0.441-0.943,0.943-0.943h7.176C16.316,59.732,16.755,60.141,16.755,60.676z"/>
	</g>
	<g>
		<path fill="#37383C" d="M16.755,63.98c-0.188-0.096-0.409-0.221-0.629-0.314c-1.196-0.535-2.518-0.818-3.902-0.818
			c-1.384,0-2.707,0.283-3.902,0.818c-0.219,0.096-0.44,0.188-0.629,0.314C4.609,65.617,2.5,68.857,2.5,72.572
			c0,5.35,4.375,9.725,9.725,9.725c5.382,0,9.726-4.375,9.726-9.725C21.949,68.857,19.839,65.617,16.755,63.98z M12.193,81.699
			c-5.004,0-9.097-4.092-9.097-9.096c0-5.035,4.091-9.096,9.097-9.096c5.002,0,9.094,4.092,9.094,9.096
			C21.32,77.607,17.228,81.699,12.193,81.699z"/>
		<path fill="#E8EEFE" d="M16.126,60.676v3.021c-1.196-0.535-2.518-0.818-3.902-0.818c-1.384,0-2.707,0.283-3.902,0.818v-3.021
			c0-0.188,0.127-0.314,0.314-0.314h7.176C15.969,60.361,16.126,60.486,16.126,60.676z"/>
		<path fill="#BBC8F4" d="M21.32,72.604c0,5.004-4.092,9.096-9.096,9.096s-9.095-4.092-9.095-9.096c0-5.035,4.091-9.096,9.095-9.096
			C17.228,63.479,21.32,67.568,21.32,72.604z"/>
	</g>
	<g>
		<g>
			<g>
				<g>
					<path fill="#37383C" d="M53.074,35.185c-0.094,0-0.156-0.032-0.221-0.095c-0.062-0.062-0.096-0.126-0.096-0.221
						c0-0.03,0-0.094,0.033-0.125c0-0.031,0.031-0.063,0.062-0.094c0.031-0.033,0.062-0.063,0.094-0.063
						c0.062-0.032,0.158-0.032,0.252,0c0.031,0,0.062,0.03,0.094,0.063c0.031,0.03,0.064,0.062,0.064,0.094
						c0.031,0.031,0.031,0.062,0.031,0.125c0,0.095-0.031,0.158-0.096,0.221c-0.031,0.031-0.062,0.062-0.096,0.062
						C53.168,35.185,53.137,35.185,53.074,35.185z"/>
				</g>
			</g>
			<g>
				<g>
					<path fill="#37383C" d="M55.34,36.978c-0.096,0-0.156-0.03-0.221-0.094c-0.031-0.032-0.062-0.063-0.062-0.095
						c-0.031-0.031-0.031-0.062-0.031-0.125c0-0.032,0-0.094,0.031-0.127c0-0.031,0.031-0.062,0.062-0.094
						c0,0,0.031-0.031,0.062-0.031c0,0,0.031-0.031,0.062-0.031s0.031,0,0.062,0s0.094,0,0.127,0c0.029,0,0.029,0,0.061,0
						s0.031,0.031,0.062,0.031c0,0,0.031,0.031,0.062,0.031c0.062,0.062,0.096,0.157,0.096,0.221c0,0.094-0.031,0.156-0.096,0.22
						C55.529,36.947,55.436,36.978,55.34,36.978z"/>
				</g>
			</g>
			<g>
				<g>
					<path fill="#37383C" d="M55.34,33.391c-0.031,0-0.096,0-0.127-0.031c-0.029,0-0.061-0.031-0.094-0.063
						c-0.031-0.031-0.062-0.063-0.062-0.095c-0.031-0.03-0.031-0.062-0.031-0.125c0-0.063,0-0.094,0.031-0.127
						c0-0.03,0.031-0.062,0.062-0.094c0,0,0.031-0.031,0.062-0.031c0,0,0.031-0.031,0.062-0.031s0.031,0,0.062-0.031
						c0.031,0,0.094,0,0.127,0c0.029,0,0.029,0,0.061,0.031c0.031,0,0.031,0.031,0.062,0.031c0,0,0.031,0.031,0.062,0.031
						c0.031,0.031,0.062,0.063,0.062,0.094c0,0.033,0.031,0.096,0.031,0.127s0,0.095-0.031,0.125
						c-0.031,0.031-0.031,0.063-0.062,0.095C55.529,33.359,55.436,33.391,55.34,33.391z"/>
				</g>
			</g>
			<g>
				<g>
					<path fill="#37383C" d="M58.676,30.777c-0.031,0-0.096,0-0.127-0.031c-0.029-0.031-0.061-0.031-0.094-0.062
						c-0.062-0.062-0.094-0.126-0.094-0.22c0-0.032,0-0.095,0.031-0.126c0.029-0.032,0.029-0.062,0.061-0.096
						c0.033-0.03,0.033-0.03,0.064-0.03c0.029,0,0.029-0.032,0.061-0.032s0.031,0,0.064,0c0.029,0,0.094,0,0.125,0s0.031,0,0.062,0
						s0.031,0.032,0.062,0.032s0.031,0.03,0.062,0.03c0.031,0.033,0.062,0.063,0.062,0.096c0.031,0.031,0.031,0.062,0.031,0.126
						c0,0.094-0.031,0.157-0.096,0.22c-0.031,0.031-0.061,0.062-0.094,0.062C58.771,30.777,58.707,30.777,58.676,30.777z"/>
				</g>
			</g>
			<g>
				<g>
					<path fill="#37383C" d="M58.361,34.869c0-0.156,0.158-0.314,0.314-0.314l0,0c0.188,0,0.314,0.158,0.314,0.314l0,0
						c0,0.158-0.127,0.315-0.314,0.315l0,0C58.52,35.185,58.361,35.059,58.361,34.869z"/>
				</g>
			</g>
			<g>
				<g>
					<path fill="#37383C" d="M58.676,39.59c-0.031,0-0.096,0-0.127-0.032c-0.029-0.03-0.061-0.03-0.094-0.062
						c-0.062-0.063-0.094-0.127-0.094-0.221c0-0.095,0.031-0.158,0.094-0.221c0.031,0,0.031-0.031,0.062-0.031
						s0.031-0.031,0.062-0.031s0.031,0,0.062-0.031c0.031,0,0.094,0,0.127,0c0.029,0,0.029,0,0.061,0.031
						c0.031,0,0.031,0,0.064,0.031c0.029,0,0.029,0.031,0.061,0.031c0.064,0.062,0.096,0.157,0.096,0.221
						c0,0.094-0.031,0.157-0.096,0.221c-0.031,0.031-0.061,0.062-0.094,0.062C58.771,39.59,58.707,39.59,58.676,39.59z"/>
				</g>
			</g>
			<g>
				<g>
					<path fill="#37383C" d="M62.012,42.203c-0.096,0-0.156-0.032-0.221-0.096c-0.031-0.031-0.062-0.062-0.062-0.094
						s-0.031-0.062-0.031-0.126c0-0.03,0-0.094,0.031-0.126c0.031-0.031,0.031-0.062,0.062-0.094c0,0,0.031-0.031,0.062-0.031
						c0,0,0.031-0.031,0.062-0.031s0.031,0,0.062-0.031c0.031,0,0.094,0,0.127,0c0.031,0,0.031,0,0.061,0.031
						c0.031,0,0.031,0,0.064,0.031c0,0,0.031,0.031,0.061,0.031c0.031,0.031,0.062,0.062,0.062,0.094
						c0,0.032,0.033,0.062,0.033,0.126s0,0.095-0.033,0.126c0,0.031-0.031,0.062-0.062,0.094
						C62.168,42.171,62.074,42.203,62.012,42.203z"/>
				</g>
			</g>
			<g>
				<g>
					<path fill="#37383C" d="M61.697,37.23c0-0.189,0.158-0.316,0.314-0.316l0,0c0.188,0,0.314,0.127,0.314,0.316l0,0
						c0,0.156-0.158,0.313-0.314,0.313l0,0C61.824,37.544,61.697,37.387,61.697,37.23z M61.697,32.541
						c0-0.157,0.158-0.314,0.314-0.314l0,0c0.188,0,0.314,0.157,0.314,0.314l0,0c0,0.158-0.158,0.314-0.314,0.314l0,0
						C61.824,32.855,61.697,32.697,61.697,32.541z"/>
				</g>
			</g>
			<g>
				<g>
					<path fill="#37383C" d="M62.012,28.166c-0.096,0-0.156-0.031-0.221-0.094c-0.031-0.033-0.062-0.063-0.062-0.094
						c0-0.033-0.031-0.096-0.031-0.127c0-0.094,0.031-0.156,0.094-0.22c0,0,0.033-0.032,0.064-0.032c0,0,0.031-0.031,0.061-0.031
						c0.033,0,0.033,0,0.064-0.031c0.031,0,0.094,0,0.125,0s0.031,0,0.062,0.031c0.031,0,0.031,0.031,0.062,0.031
						c0,0,0.031,0.032,0.062,0.032c0.062,0.063,0.096,0.126,0.096,0.22c0,0.031,0,0.094-0.033,0.127c0,0.03-0.031,0.061-0.062,0.094
						C62.168,28.135,62.074,28.166,62.012,28.166z"/>
				</g>
			</g>
			<g>
				<g>
					<path fill="#37383C" d="M65.316,25.554c-0.094,0-0.156-0.032-0.221-0.095c-0.031-0.031-0.062-0.062-0.062-0.094
						s-0.031-0.063-0.031-0.127c0-0.031,0-0.094,0.031-0.125s0.031-0.062,0.062-0.095c0.031-0.03,0.062-0.063,0.096-0.063
						c0.125-0.03,0.252-0.03,0.346,0.063c0.062,0.063,0.094,0.158,0.094,0.22c0,0.033,0,0.096-0.029,0.127
						c-0.031,0.031-0.031,0.062-0.064,0.094c-0.031,0.031-0.061,0.062-0.094,0.062C65.41,25.554,65.379,25.554,65.316,25.554z"/>
				</g>
			</g>
			<g>
				<g>
					<path fill="#37383C" d="M65,39.685c0-0.188,0.127-0.313,0.316-0.313l0,0c0.156,0,0.312,0.125,0.312,0.313l0,0
						c0,0.158-0.156,0.315-0.312,0.315l0,0C65.16,40,65,39.873,65,39.685z M65,34.869c0-0.156,0.127-0.314,0.316-0.314l0,0
						c0.156,0,0.312,0.158,0.312,0.314l0,0c0,0.158-0.156,0.315-0.312,0.315l0,0C65.16,35.185,65,35.059,65,34.869z M65,30.055
						c0-0.189,0.127-0.314,0.316-0.314l0,0c0.156,0,0.312,0.125,0.312,0.314l0,0c0,0.157-0.156,0.314-0.312,0.314l0,0
						C65.16,30.369,65,30.242,65,30.055z"/>
				</g>
			</g>
			<g>
				<g>
					<path fill="#37383C" d="M65.316,44.814c-0.094,0-0.156-0.031-0.221-0.096c-0.031-0.031-0.062-0.062-0.062-0.094
						c0-0.032-0.031-0.062-0.031-0.127c0-0.03,0-0.094,0.031-0.125s0.031-0.062,0.062-0.096c0.031-0.031,0.062-0.062,0.096-0.062
						c0.125-0.063,0.252-0.032,0.346,0.062c0.062,0.063,0.094,0.127,0.094,0.221c0,0.031,0,0.095-0.029,0.127
						c-0.031,0.031-0.031,0.062-0.064,0.094c-0.031,0.032-0.061,0.062-0.094,0.062C65.41,44.783,65.379,44.814,65.316,44.814z"/>
				</g>
			</g>
			<g>
				<g>
					<path fill="#37383C" d="M68.338,42.076c0-0.157,0.156-0.314,0.314-0.314l0,0c0.188,0,0.312,0.157,0.312,0.314l0,0
						c0,0.158-0.125,0.314-0.312,0.314l0,0C68.463,42.391,68.338,42.234,68.338,42.076z M68.338,37.262
						c0-0.158,0.156-0.314,0.314-0.314l0,0c0.188,0,0.312,0.156,0.312,0.314l0,0c0,0.188-0.125,0.314-0.312,0.314l0,0
						C68.463,37.576,68.338,37.419,68.338,37.262z M68.338,32.445c0-0.188,0.156-0.313,0.314-0.313l0,0
						c0.188,0,0.312,0.125,0.312,0.313l0,0c0,0.158-0.125,0.315-0.312,0.315l0,0C68.463,32.761,68.338,32.604,68.338,32.445z
						 M68.338,27.6c0-0.156,0.156-0.314,0.314-0.314l0,0c0.188,0,0.312,0.158,0.312,0.314l0,0c0,0.158-0.125,0.314-0.312,0.314l0,0
						C68.463,27.914,68.338,27.789,68.338,27.6z"/>
				</g>
			</g>
			<g>
				<g>
					<path fill="#37383C" d="M71.295,39.621c-0.156,0-0.312-0.157-0.281-0.314l0,0c0-0.189,0.156-0.314,0.312-0.283l0,0
						c0.158,0,0.314,0.157,0.283,0.346l0,0l0,0l0,0C71.611,39.496,71.484,39.621,71.295,39.621L71.295,39.621
						C71.328,39.621,71.295,39.621,71.295,39.621z M71.422,35.373c-0.156,0-0.314-0.157-0.314-0.314l0,0
						c0-0.156,0.158-0.314,0.314-0.314l0,0c0.188,0,0.314,0.158,0.314,0.314l0,0C71.736,35.246,71.58,35.373,71.422,35.373
						L71.422,35.373L71.422,35.373z M71.107,35.059L71.107,35.059L71.107,35.059L71.107,35.059L71.107,35.059L71.107,35.059z
						 M70.949,30.873L70.949,30.873c-0.031-0.157,0.096-0.314,0.283-0.346l0,0c0.189-0.031,0.314,0.094,0.348,0.283l0,0
						c0,0.157-0.127,0.314-0.283,0.346l0,0h-0.031l0,0C71.107,31.156,70.982,31.029,70.949,30.873z"/>
				</g>
			</g>
		</g>
	</g>
	<g>
		<path fill="#37383C" d="M52.854,55.672H35.009c-0.189,0-0.314,0.158-0.314,0.314v16.176c0,0.158,0.125,0.314,0.314,0.314h17.844
			c0.188,0,0.314-0.156,0.314-0.314V55.986C53.168,55.797,53.041,55.672,52.854,55.672z M52.539,71.816H35.324V56.27h17.215V71.816z
			"/>
		<path fill="#FFFFFF" d="M35.324,56.303V71.85h17.215V56.303H35.324L35.324,56.303z"/>
		<path fill="#1E4CE0" d="M47.754,67.41c-0.91,1.008-2.076,0.945-2.988,0.881c0.062-0.691,0.156-2.203-0.439-3.461
			c0.125-0.188,0.252-0.346,0.377-0.504c1.133-1.133,3.273-0.975,3.965-0.912C48.73,64.139,48.857,66.246,47.754,67.41z"/>
		<path fill="#1E4CE0" d="M46.086,62.941c-0.312,0.062-0.629,0.188-0.912,0.314c-0.156-0.631-0.439-1.229-0.816-1.764
			c0,0,0,0,0.031-0.031c0.188-0.252,0.377-0.439,0.629-0.629C45.49,61.4,45.961,62.123,46.086,62.941z"/>
		<path fill="#1E4CE0" d="M44.609,63.604c-0.127,0.094-0.252,0.188-0.348,0.314c-0.096,0.094-0.188,0.221-0.283,0.346
			c-0.094-0.125-0.188-0.252-0.283-0.346c-0.504-0.504-1.165-0.818-1.858-0.977c0.096-0.787,0.568-1.51,1.07-2.045
			C43.758,61.494,44.389,62.533,44.609,63.604z"/>
		<path fill="#1E4CE0" d="M44.578,60.393c-0.221,0.189-0.441,0.379-0.6,0.631c-0.188-0.221-0.408-0.41-0.66-0.6
			c0.252-0.252,0.504-0.439,0.66-0.566C44.105,59.951,44.326,60.141,44.578,60.393z"/>
	</g>
	<g>
		<path fill="#1E4CE0" d="M44.105,68.291c-0.693,0.096-2.834,0.252-3.965-0.912c-1.135-1.133-0.977-3.271-0.914-3.965
			c0.691-0.096,2.834-0.252,3.965,0.912C44.357,65.49,44.199,67.6,44.105,68.291z"/>
	</g>
	<g>
		<path fill="#37383C" d="M82.469,42.076v0.063c0,0.095-0.062,0.188-0.127,0.251c-0.062,0.032-0.125,0.062-0.156,0.062
			c-0.096,0-0.189-0.062-0.252-0.156l-11.52-17.719c-0.031-0.062-2.484-4.123-6.264-3.367c-0.031,0-0.062,0-0.094,0.031
			c-0.156,0.031-0.348-0.062-0.377-0.252c-0.031-0.156,0.062-0.346,0.252-0.377c0.881-0.188,1.729-0.158,2.484,0.031l0,0
			c2.832,0.725,4.531,3.557,4.564,3.619l11.455,17.75C82.438,42.014,82.469,42.045,82.469,42.076z"/>
	</g>
	<g>
		<path fill="#37383C" d="M70.699,19.322c-1.479,0.504-2.928,0.944-4.281,1.322l0,0c-0.756,0.221-1.51,0.409-2.232,0.566
			c-0.033,0-0.064,0-0.096,0.031c-1.543,0.347-2.99,0.629-4.344,0.787c-0.062,0-0.66,0.096-1.479,0.096
			c-2.076,0-5.729-0.473-7.238-3.62c-0.031-0.095-1.006-2.108-0.535-5.57l-1.039-1.604c-0.188-0.189-0.975-1.008-0.598-2.203
			c0.127-0.377,0.348-0.661,0.566-0.85c0.189-0.158,0.379-0.283,0.6-0.347c0.188-0.063,0.377-0.094,0.533-0.094h0.031
			c0.348-0.032,6.105-0.566,9.883-3.935c0.031-0.031,0.096-0.062,0.127-0.125c0.125-0.127,0.312-0.095,0.439,0.031
			c0.125,0.125,0.125,0.314,0,0.439c-0.031,0-0.031,0.031-0.062,0.031c-4.027,3.683-10.104,4.154-10.355,4.187h-0.031
			c-0.031,0-0.785,0-1.102,0.851c-0.283,0.912,0.441,1.541,0.441,1.541c0.029,0.032,0.029,0.032,0.061,0.063l1.135,1.731
			c0.031,0.062,0.062,0.156,0.031,0.219c-0.473,3.336,0.439,5.32,0.471,5.32c1.92,3.996,8.025,3.178,8.088,3.178
			c1.322-0.157,2.771-0.409,4.281-0.756c2.045-0.472,4.217-1.102,6.578-1.888c0.156-0.063,0.346,0.031,0.408,0.188
			C70.949,19.07,70.855,19.26,70.699,19.322z"/>
	</g>
	<g>
		<path fill="#37383C" d="M82.09,14.664c0,0-0.943,0.473-2.77,1.291c-0.031,0.031-0.094,0.031-0.125,0.031
			c-0.127,0-0.252-0.062-0.283-0.188c-0.062-0.157,0-0.347,0.156-0.409c1.826-0.818,2.738-1.259,2.77-1.29
			c0.158-0.063,0.348,0,0.41,0.157C82.311,14.382,82.248,14.57,82.09,14.664z"/>
	</g>
	<g>
		<path fill="#37383C" d="M61.664,4.5c-0.125,0.125-0.312,0.156-0.439,0.031L60.91,4.279l-0.471-0.377h-0.033
			c-1.195,0.125-8.275,0.912-10.889,0.943h-0.096c-0.188,0-0.377-0.031-0.564-0.062c-0.977-0.252-1.416-1.133-1.512-1.668
			c-0.031-0.158,0.062-0.347,0.252-0.379h0.127c0.125,0.032,0.221,0.127,0.252,0.252c0,0.063,0.252,1.229,1.445,1.229h0.031
			C52.16,4.185,60.406,3.273,60.5,3.273c0.096,0,0.158,0,0.223,0.062l0.912,0.755C61.729,4.154,61.76,4.342,61.664,4.5z"/>
	</g>
	<g>
		<path fill="#FFFFFF" d="M60.375,3.871c-3.746,3.398-9.535,3.902-9.883,3.934h-0.031c-0.125,0-0.312,0.032-0.533,0.096
			l-0.441-3.084C52.1,4.783,59.211,4.027,60.375,3.871z"/>
		<path fill="#37383C" d="M49.99,8.15c0.031,0.156-0.094,0.346-0.252,0.346c-0.031,0-0.031,0-0.031,0
			c-0.158,0-0.283-0.094-0.314-0.252l0,0l-0.535-3.493l-0.031-0.188c-0.031-0.158,0.096-0.314,0.252-0.347
			c0.189-0.032,0.346,0.094,0.346,0.251l0.064,0.346l0.439,3.084L49.99,8.15z"/>
	</g>
	<g>
		<path fill="none" d="M82.217,14.225c-0.062-0.158-0.283-0.22-0.408-0.158c0,0-0.945,0.473-2.771,1.291
			c-0.158,0.063-0.221,0.252-0.158,0.409c0.064,0.126,0.158,0.188,0.285,0.188c0.031,0,0.031,0,0.062,0
			c1.006-0.44,1.98-0.912,2.957-1.385C82.279,14.476,82.279,14.351,82.217,14.225z"/>
		<path fill="#FFFFFF" d="M70.887,24.105c0.031,0.063,0.062,0.127,0.062,0.127l11.455,17.75c0.031,0.03,0.031,0.094,0.031,0.125
			V16.488C81.273,18.566,78.283,21.619,70.887,24.105z"/>
		<path fill="#FFFFFF" d="M66.418,20.645L66.418,20.645c0.156-0.031,0.314-0.094,0.473-0.126
			C66.732,20.55,66.576,20.582,66.418,20.645z"/>
		<path fill="#E8EEFE" d="M82.469,16.49v-2.078c-0.096,0.063-0.189,0.096-0.283,0.158c-0.031,0.031-0.062,0.062-0.096,0.094
			c0,0-0.943,0.473-2.77,1.291c-0.031,0-0.062,0.031-0.062,0.031c-2.957,1.322-5.979,2.424-8.402,3.242
			c-0.031,0.031-0.094,0.094-0.125,0.094c-1.322,0.441-2.582,0.851-3.811,1.197c-0.156,0.062-0.312,0.094-0.471,0.125
			c2.518,0.629,4.123,2.959,4.469,3.493C78.283,21.619,81.273,18.566,82.469,16.49z"/>
	</g>
	<g>
		<path fill="none" d="M60.941,4.059c0,0,0,0.062-0.031,0.221l0,0l0.314,0.252c0.127,0.094,0.348,0.094,0.439-0.031
			c0.096-0.127,0.096-0.346-0.031-0.441l-0.91-0.755C60.658,3.24,60.564,3.24,60.5,3.24c0,0-0.281,0.033-0.754,0.096
			c0.188,0.031,0.377,0.031,0.533,0.062L60.941,4.059z"/>
		<path fill="#FFFFFF" d="M53.293,2.736c2.393,0.221,4.941,0.441,6.42,0.599c0.475-0.063,0.758-0.095,0.758-0.095
			c0.094,0,0.156,0,0.221,0.062l0.912,0.755c0.125,0.095,0.156,0.315,0.031,0.44c-0.127,0.125-0.314,0.158-0.441,0.031l-0.314-0.252
			l0,0c-0.188,0.725-1.102,3.147-5.256,5.477c-2.455,1.354-4.404,1.73-5.287,1.824l0.725,1.07c0.031,0.063,0.062,0.157,0.031,0.221
			c-0.473,3.336,0.441,5.318,0.473,5.318c1.92,3.997,8.025,3.178,8.088,3.178c1.322-0.156,2.77-0.408,4.281-0.754
			c2.045-0.473,4.217-1.103,6.576-1.889c0.156-0.062,0.348,0.031,0.408,0.188c0.031,0.095,0,0.221-0.061,0.283
			c2.422-0.817,5.443-1.951,8.402-3.242c-0.031,0-0.031,0-0.062,0c-0.127,0-0.252-0.062-0.283-0.188
			c-0.062-0.156,0-0.346,0.156-0.408c1.826-0.818,2.738-1.26,2.77-1.291c0.158-0.062,0.348,0,0.41,0.157
			c0.062,0.126,0.031,0.251-0.031,0.347c0.094-0.063,0.188-0.096,0.281-0.158V2.703H53.295v0.033H53.293z"/>
		<path fill="#E8EEFE" d="M60.879,4.279c-4.027,3.682-10.104,4.153-10.354,4.186h-0.031c-0.031,0-0.787,0-1.102,0.85
			c-0.283,0.914,0.439,1.543,0.439,1.543c0.031,0.031,0.031,0.031,0.062,0.062l0.439,0.66c0.852-0.094,2.832-0.471,5.287-1.824
			C59.809,7.395,60.723,5.003,60.879,4.279z"/>
		<path fill="#E8EEFE" d="M47.977,2.957c0,0.062,0.252,1.228,1.445,1.228h0.031c2.203-0.03,8.186-0.629,10.293-0.881
			c-1.512-0.125-4.092-0.377-6.453-0.565h-5.568C47.85,2.736,47.945,2.832,47.977,2.957z"/>
	</g>
	<g>
		<path fill="none" d="M35.009,72.445h17.844c0.188,0,0.314-0.156,0.314-0.314V55.955c0-0.158-0.127-0.314-0.314-0.314H35.009
			c-0.189,0-0.314,0.156-0.314,0.314v16.176C34.695,72.32,34.851,72.445,35.009,72.445z"/>
		<path fill="#E8EEFE" d="M43.947,77.953c4.752,0,11.109,0.693,15.043-5.381c4.219-6.484-5.35-24.014-5.35-24.014
			c-1.164-1.511-2.99-2.423-4.941-2.423h-9.536c-2.203,0-4.281,1.194-5.383,3.084c-2.768,4.688-7.426,13.28-7.426,18.159
			c0,3.336,1.258,6.293,3.367,8.402l0,0C34.851,78.33,39.195,77.953,43.947,77.953z M34.695,55.986c0-0.156,0.125-0.314,0.312-0.314
			h17.846c0.188,0,0.312,0.158,0.312,0.314v16.176c0,0.158-0.125,0.314-0.312,0.314H35.007c-0.188,0-0.312-0.156-0.312-0.314V55.986
			L34.695,55.986z"/>
		<rect x="35.482" y="80.598" fill="#E8EEFE" width="16.932" height="1.07"/>
		<path fill="#BBC8F4" d="M38.125,79.182H49.77c6.578,0,11.738-5.162,11.738-11.738c0-4.752-4.656-13.406-7.428-18.127
			c-0.125-0.252-0.283-0.474-0.473-0.693c0,0,9.566,17.498,5.352,24.014c-3.967,6.072-10.291,5.381-15.043,5.381
			c-4.752,0-9.096,0.379-14.227-2.17l0,0C31.83,77.891,34.757,79.182,38.125,79.182z"/>
		<path fill="#BBC8F4" d="M49.77,79.811H38.125c-0.914,0-1.795-0.096-2.645-0.252v1.07h16.932v-1.07
			C51.564,79.715,50.682,79.811,49.77,79.811z"/>
	</g>
	<rect x="39.353" y="40.943" fill="#FFFFFF" width="0.787" height="4.312"/>
	<rect x="46.057" y="30.055" fill="#E8EEFE" width="0.564" height="9.63"/>
	<circle fill="#E8EEFE" cx="8.762" cy="69.017" r="2.833"/>
	<path fill="#FFFFFF" d="M38.283,49.189c0-0.441-0.221-0.852-0.662-1.009c-0.439-0.157-0.912,0-1.322,0.188
		c-0.377,0.221-0.723,0.535-0.975,0.882c-0.062,0.095-0.127,0.221-0.189,0.313c-0.346,0.6-0.629,1.291-0.314,1.951
		c0.158,0.314,0.441,0.566,0.754,0.631c0.41,0.094,0.787-0.096,1.133-0.314c0.629-0.441,1.104-1.039,1.354-1.731
		c0.062-0.126,0.094-0.282,0.127-0.44C38.25,49.504,38.283,49.347,38.283,49.189z"/>
</g>
<g id="Layer_13_copy">
</g>
<g id="Layer_14_copy">
</g>
<g id="Layer_5_copy">
</g>
<g id="Layer_15_copy">
</g>
<g id="Layer_16_copy">
</g>
<g id="Layer_17_copy">
</g>
<g id="Layer_18_copy">
</g>
<g id="Layer_19_copy">
</g>
<g id="Layer_20_copy_2_00000120537884136381431390000009169741791805370520_">
</g>
<g id="Layer_21_copy">
</g>
<g id="Layer_22_copy">
</g>
<g id="Layer_20_copy_2">
</g>
<g id="Layer_24_copy">
</g>
<g id="Layer_25_copy">
</g>
<g id="Layer_26_copy">
</g>
<g id="Layer_27_copy">
</g>
</svg>
