<?xml version="1.0" encoding="utf-8"?>
<!-- Generator: Adobe Illustrator 16.0.0, SVG Export Plug-In . SVG Version: 6.00 Build 0)  -->
<!DOCTYPE svg PUBLIC "-//W3C//DTD SVG 1.1//EN" "http://www.w3.org/Graphics/SVG/1.1/DTD/svg11.dtd">
<svg version="1.1" id="Layer_1" xmlns="http://www.w3.org/2000/svg" xmlns:xlink="http://www.w3.org/1999/xlink" x="0px" y="0px"
	 width="85px" height="85px" viewBox="0 0 85 85" enable-background="new 0 0 85 85" xml:space="preserve">
<g>
	<g enable-background="new    ">
		<path fill="#00AEEF" d="M19.552,52.019v2.996H2.791c-0.02-0.749,0.102-1.468,0.364-2.166c0.425-1.144,1.113-2.267,2.055-3.37
			s2.298-2.389,4.069-3.836c2.753-2.257,4.615-4.048,5.587-5.375c0.971-1.315,1.457-2.57,1.457-3.745
			c0-1.235-0.445-2.277-1.326-3.117c-0.88-0.85-2.034-1.275-3.451-1.275c-1.498,0-2.703,0.445-3.593,1.346
			c-0.891,0.901-1.356,2.146-1.367,3.735l-3.198-0.324c0.223-2.388,1.042-4.21,2.47-5.455c1.427-1.255,3.35-1.873,5.759-1.873
			c2.429,0,4.362,0.678,5.779,2.024c1.417,1.346,2.125,3.026,2.125,5.02c0,1.012-0.212,2.014-0.627,2.996
			c-0.415,0.982-1.103,2.014-2.064,3.097c-0.962,1.083-2.561,2.57-4.797,4.464c-1.873,1.568-3.067,2.631-3.593,3.188
			c-0.526,0.557-0.971,1.124-1.315,1.69h12.429V52.019z"/>
	</g>
	<g enable-background="new    ">
		<path d="M19.841,55.304H2.51l-0.008-0.281c-0.021-0.779,0.108-1.545,0.383-2.275c0.432-1.162,1.141-2.325,2.105-3.456
			c0.967-1.134,2.348-2.437,4.105-3.872c2.721-2.231,4.583-4.021,5.537-5.322c0.93-1.259,1.401-2.461,1.401-3.574
			c0-1.147-0.416-2.125-1.236-2.908c-0.822-0.793-1.916-1.195-3.251-1.195c-1.421,0-2.561,0.424-3.387,1.26
			c-0.842,0.852-1.273,2.041-1.283,3.533l-0.002,0.318l-3.8-0.385l0.027-0.286c0.229-2.46,1.093-4.36,2.567-5.646
			c1.466-1.29,3.468-1.944,5.949-1.944c2.498,0,4.509,0.708,5.978,2.104c1.47,1.396,2.216,3.156,2.216,5.229
			c0,1.042-0.219,2.087-0.65,3.108c-0.425,1.006-1.137,2.075-2.115,3.177c-0.966,1.088-2.59,2.6-4.827,4.492
			c-1.839,1.541-3.04,2.605-3.569,3.166c-0.381,0.402-0.713,0.806-0.991,1.202h12.183V55.304z M3.08,54.726h16.183v-2.397H6.609
			l0.267-0.439c0.347-0.57,0.802-1.155,1.353-1.738c0.545-0.576,1.762-1.657,3.618-3.211c2.214-1.874,3.818-3.366,4.767-4.434
			c0.936-1.054,1.614-2.069,2.015-3.018c0.401-0.949,0.604-1.919,0.604-2.883c0-1.909-0.685-3.527-2.035-4.811
			c-1.358-1.29-3.236-1.944-5.58-1.944c-2.336,0-4.209,0.605-5.568,1.8c-1.303,1.136-2.09,2.811-2.343,4.979l2.599,0.263
			c0.068-1.502,0.552-2.719,1.442-3.619c0.939-0.95,2.218-1.432,3.799-1.432c1.491,0,2.72,0.457,3.652,1.356
			c0.938,0.895,1.415,2.014,1.415,3.325c0,1.238-0.51,2.556-1.514,3.917c-0.981,1.339-2.877,3.165-5.636,5.426
			c-1.731,1.414-3.087,2.692-4.032,3.8c-0.921,1.079-1.595,2.184-2.004,3.283C3.208,53.531,3.093,54.114,3.08,54.726z"/>
	</g>
	<g enable-background="new    ">
		<path fill="#00AEEF" d="M24.44,42.505c0-2.996,0.304-5.415,0.921-7.236c0.618-1.832,1.539-3.239,2.753-4.23
			c1.215-0.992,2.743-1.488,4.595-1.488c1.356,0,2.55,0.273,3.583,0.82c1.021,0.546,1.872,1.336,2.54,2.368s1.194,2.287,1.579,3.775
			c0.385,1.478,0.566,3.482,0.566,5.992c0,2.976-0.304,5.374-0.921,7.206c-0.607,1.832-1.528,3.239-2.743,4.241
			c-1.214,1.002-2.752,1.498-4.604,1.498c-2.45,0-4.362-0.881-5.759-2.632C25.28,50.703,24.44,47.272,24.44,42.505z M27.638,42.505
			c0,4.16,0.486,6.934,1.458,8.31s2.176,2.064,3.603,2.064s2.631-0.688,3.603-2.074c0.972-1.387,1.457-4.15,1.457-8.3
			c0-4.17-0.485-6.943-1.457-8.319s-2.186-2.055-3.644-2.055c-1.427,0-2.571,0.607-3.421,1.812
			C28.175,35.491,27.638,38.345,27.638,42.505z"/>
	</g>
	<g enable-background="new    ">
		<path d="M32.709,55.739c-2.521,0-4.535-0.922-5.985-2.74c-1.708-2.163-2.573-5.693-2.573-10.494c0-3.03,0.315-5.496,0.936-7.329
			c0.629-1.867,1.586-3.334,2.844-4.362c1.262-1.03,2.869-1.553,4.778-1.553c1.397,0,2.648,0.287,3.718,0.854
			c1.067,0.571,1.958,1.4,2.647,2.467c0.684,1.056,1.228,2.354,1.616,3.86c0.388,1.489,0.576,3.473,0.576,6.064
			c0,3-0.314,5.456-0.936,7.299c-0.616,1.857-1.569,3.329-2.833,4.371C36.24,55.213,34.629,55.739,32.709,55.739z M32.709,29.839
			c-1.772,0-3.256,0.479-4.412,1.422c-1.172,0.958-2.068,2.336-2.662,4.099c-0.601,1.774-0.906,4.178-0.906,7.144
			c0,4.667,0.824,8.077,2.448,10.135c1.354,1.696,3.163,2.521,5.532,2.521c1.782,0,3.27-0.482,4.421-1.433
			c1.179-0.972,2.071-2.354,2.652-4.108c0.602-1.784,0.906-4.178,0.906-7.115c0-2.506-0.188-4.498-0.558-5.918
			c-0.374-1.446-0.893-2.688-1.542-3.691c-0.636-0.983-1.455-1.747-2.434-2.271C35.171,30.104,34.011,29.839,32.709,29.839z
			 M32.699,53.168c-1.523,0-2.815-0.735-3.839-2.187c-1.016-1.44-1.51-4.213-1.51-8.477c0-4.195,0.555-7.131,1.649-8.726
			c0.908-1.286,2.139-1.937,3.66-1.937c1.555,0,2.86,0.732,3.88,2.177c1.017,1.439,1.51,4.215,1.51,8.486
			c0,4.246-0.493,7.016-1.51,8.466C35.517,52.429,34.225,53.168,32.699,53.168z M32.658,32.42c-1.341,0-2.382,0.552-3.185,1.689
			c-1.025,1.494-1.546,4.32-1.546,8.396c0,4.083,0.473,6.822,1.405,8.143c0.91,1.289,2.042,1.942,3.367,1.942
			c1.345,0,2.446-0.639,3.366-1.951c0.933-1.331,1.405-4.067,1.405-8.134c0-4.089-0.473-6.832-1.404-8.152
			C35.148,33.052,34.033,32.42,32.658,32.42z"/>
	</g>
	<g enable-background="new    ">
		<path fill="#00AEEF" d="M45.057,42.505c0-2.996,0.304-5.415,0.921-7.236c0.617-1.832,1.538-3.239,2.753-4.23
			s2.743-1.488,4.595-1.488c1.356,0,2.551,0.273,3.583,0.82c1.022,0.546,1.872,1.336,2.54,2.368s1.194,2.287,1.579,3.775
			c0.385,1.478,0.566,3.482,0.566,5.992c0,2.976-0.304,5.374-0.921,7.206c-0.607,1.832-1.528,3.239-2.742,4.241
			c-1.215,1.002-2.753,1.498-4.605,1.498c-2.449,0-4.362-0.881-5.759-2.632C45.896,50.703,45.057,47.272,45.057,42.505z
			 M48.255,42.505c0,4.16,0.485,6.934,1.457,8.31s2.176,2.064,3.604,2.064c1.427,0,2.631-0.688,3.603-2.074
			c0.972-1.387,1.458-4.15,1.458-8.3c0-4.17-0.486-6.943-1.458-8.319s-2.186-2.055-3.644-2.055c-1.427,0-2.57,0.607-3.421,1.812
			C48.791,35.491,48.255,38.345,48.255,42.505z"/>
	</g>
	<g enable-background="new    ">
		<path d="M53.325,55.739c-2.521,0-4.534-0.922-5.984-2.74c-1.708-2.163-2.573-5.693-2.573-10.494c0-3.03,0.314-5.496,0.936-7.329
			c0.63-1.867,1.586-3.334,2.844-4.362c1.263-1.03,2.87-1.553,4.778-1.553c1.397,0,2.648,0.287,3.718,0.854
			c1.067,0.571,1.958,1.4,2.648,2.467c0.684,1.056,1.227,2.355,1.616,3.86c0.388,1.489,0.576,3.473,0.576,6.064
			c0,3-0.315,5.455-0.937,7.299c-0.616,1.857-1.569,3.329-2.833,4.371C56.856,55.213,55.245,55.739,53.325,55.739z M53.325,29.839
			c-1.771,0-3.256,0.479-4.412,1.422c-1.172,0.958-2.067,2.336-2.662,4.099c-0.601,1.774-0.905,4.178-0.905,7.144
			c0,4.667,0.823,8.077,2.447,10.135c1.354,1.696,3.163,2.521,5.532,2.521c1.782,0,3.27-0.482,4.421-1.433
			c1.179-0.972,2.071-2.354,2.652-4.108c0.602-1.785,0.906-4.179,0.906-7.115c0-2.506-0.188-4.497-0.558-5.918
			c-0.373-1.445-0.892-2.687-1.541-3.691c-0.637-0.983-1.455-1.747-2.435-2.271C55.787,30.104,54.627,29.839,53.325,29.839z
			 M53.315,53.168c-1.523,0-2.815-0.735-3.84-2.187c-1.016-1.44-1.51-4.213-1.51-8.477c0-4.195,0.555-7.131,1.649-8.726
			c0.908-1.286,2.139-1.937,3.659-1.937c1.555,0,2.86,0.732,3.88,2.177c1.017,1.439,1.511,4.215,1.511,8.486
			c0,4.246-0.494,7.016-1.51,8.466C56.133,52.429,54.841,53.168,53.315,53.168z M53.274,32.42c-1.341,0-2.382,0.552-3.185,1.689
			c-1.025,1.494-1.546,4.32-1.546,8.396c0,4.083,0.473,6.822,1.404,8.143c0.91,1.289,2.042,1.942,3.367,1.942
			c1.345,0,2.445-0.639,3.366-1.951c0.932-1.331,1.405-4.067,1.405-8.134c0-4.089-0.473-6.833-1.405-8.152
			C55.765,33.052,54.649,32.42,53.274,32.42z"/>
	</g>
	<g enable-background="new    ">
		<path fill="#00AEEF" d="M65.673,42.505c0-2.996,0.304-5.415,0.921-7.236c0.617-1.832,1.539-3.239,2.753-4.23
			c1.215-0.992,2.743-1.488,4.595-1.488c1.356,0,2.551,0.273,3.583,0.82c1.022,0.546,1.873,1.336,2.541,2.368
			c0.667,1.032,1.193,2.287,1.578,3.775c0.385,1.478,0.567,3.482,0.567,5.992c0,2.976-0.304,5.374-0.921,7.206
			c-0.607,1.832-1.528,3.239-2.743,4.241s-2.753,1.498-4.605,1.498c-2.449,0-4.361-0.881-5.759-2.632
			C66.503,50.703,65.673,47.272,65.673,42.505z M68.871,42.505c0,4.16,0.485,6.934,1.457,8.31s2.177,2.064,3.604,2.064
			s2.632-0.688,3.604-2.074c0.971-1.387,1.457-4.15,1.457-8.3c0-4.17-0.486-6.943-1.457-8.319c-0.972-1.376-2.187-2.055-3.644-2.055
			c-1.428,0-2.571,0.607-3.421,1.812C69.407,35.491,68.871,38.345,68.871,42.505z"/>
	</g>
	<g enable-background="new    ">
		<path d="M73.941,55.739c-2.521,0-4.534-0.922-5.984-2.74c-1.731-2.181-2.573-5.612-2.573-10.494c0-3.03,0.315-5.496,0.937-7.329
			c0.629-1.867,1.586-3.334,2.844-4.362c1.262-1.03,2.869-1.553,4.777-1.553c1.397,0,2.648,0.287,3.719,0.854
			c1.067,0.571,1.958,1.4,2.647,2.467c0.684,1.056,1.228,2.355,1.616,3.86c0.388,1.489,0.576,3.473,0.576,6.064
			c0,3-0.315,5.455-0.937,7.299c-0.615,1.857-1.569,3.329-2.833,4.371C77.473,55.213,75.861,55.739,73.941,55.739z M73.941,29.839
			c-1.771,0-3.256,0.479-4.412,1.422c-1.172,0.958-2.067,2.336-2.661,4.099c-0.602,1.774-0.906,4.177-0.906,7.144
			c0,4.68,0.823,8.089,2.447,10.134c1.354,1.697,3.164,2.522,5.532,2.522c1.782,0,3.27-0.482,4.422-1.433
			c1.178-0.972,2.07-2.354,2.652-4.108c0.601-1.785,0.906-4.179,0.906-7.115c0-2.506-0.188-4.498-0.558-5.918
			c-0.374-1.445-0.893-2.687-1.542-3.691c-0.636-0.983-1.455-1.747-2.434-2.271C76.403,30.104,75.244,29.839,73.941,29.839z
			 M73.932,53.168c-1.523,0-2.814-0.735-3.84-2.187c-1.016-1.44-1.51-4.213-1.51-8.477c0-4.195,0.555-7.131,1.649-8.726
			c0.908-1.286,2.139-1.937,3.66-1.937c1.555,0,2.859,0.732,3.88,2.177c1.016,1.439,1.51,4.215,1.51,8.486
			c0,4.246-0.494,7.016-1.51,8.466C76.749,52.429,75.457,53.168,73.932,53.168z M73.892,32.42c-1.341,0-2.383,0.552-3.186,1.689
			c-1.024,1.494-1.546,4.319-1.546,8.396c0,4.083,0.473,6.822,1.404,8.143c0.91,1.289,2.043,1.942,3.367,1.942
			c1.345,0,2.446-0.639,3.366-1.951c0.933-1.331,1.405-4.067,1.405-8.134c0-4.089-0.473-6.832-1.404-8.152
			C76.381,33.052,75.267,32.42,73.892,32.42z"/>
	</g>
</g>
</svg>
