<?xml version="1.0" encoding="utf-8"?>
<!-- Generator: Adobe Illustrator 16.0.0, SVG Export Plug-In . SVG Version: 6.00 Build 0)  -->
<!DOCTYPE svg PUBLIC "-//W3C//DTD SVG 1.1//EN" "http://www.w3.org/Graphics/SVG/1.1/DTD/svg11.dtd">
<svg version="1.1" id="Layer_1" xmlns="http://www.w3.org/2000/svg" xmlns:xlink="http://www.w3.org/1999/xlink" x="0px" y="0px"
	 width="85px" height="85px" viewBox="0 0 85 85" enable-background="new 0 0 85 85" xml:space="preserve">
<g>
	<path fill="#EAEAEA" d="M2.5,30v47.5c0,2.762,2.238,5,5,5h70c2.762,0,5-2.238,5-5V30H2.5z"/>
	<path fill="#434854" d="M37.5,50h10v32.5h-10V50z M52.5,50h10v32.5h-10V50z M22.5,50h10v32.5h-10V50z M7.5,50h10v32.5h-10V50z
		 M67.5,50h10v32.5h-10V50z"/>
	<path d="M37.5,50h10v2.5h-10V50z M52.5,50h10v2.5h-10V50z M22.5,50h10v2.5h-10V50z M7.5,50h10v2.5h-10V50z M67.5,50h10v2.5h-10V50z
		"/>
	<path d="M2.5,30h80v2.5h-80V30z"/>
	<path fill="#EF4D4D" d="M42.5,2.5c-11.045,0-20,7.5-20,20h40C62.5,10,53.545,2.5,42.5,2.5z"/>
	<path fill="#469FCC" d="M12.5,35c-2.762,0-5,2.238-5,5v5h10v-5C17.5,37.238,15.262,35,12.5,35z M27.5,35c-2.762,0-5,2.238-5,5v5h10
		v-5C32.5,37.238,30.262,35,27.5,35z M42.5,35c-2.762,0-5,2.238-5,5v5h10v-5C47.5,37.238,45.262,35,42.5,35z M57.5,35
		c-2.762,0-5,2.238-5,5v5h10v-5C62.5,37.238,60.262,35,57.5,35z M72.5,35c-2.762,0-5,2.238-5,5v5h10v-5
		C77.5,37.238,75.262,35,72.5,35z"/>
	<path fill="#EF4D4D" d="M82.5,30v-5.154c0-1.295-1.051-2.346-2.346-2.346H4.846C3.55,22.5,2.5,23.551,2.5,24.846V30H82.5z"/>
	<path d="M12.5,35c-2.762,0-5,2.238-5,5v2.5c0-2.762,2.238-5,5-5s5,2.238,5,5V40C17.5,37.238,15.262,35,12.5,35z M27.5,35
		c-2.762,0-5,2.238-5,5v2.5c0-2.762,2.238-5,5-5s5,2.238,5,5V40C32.5,37.238,30.262,35,27.5,35z M42.5,35c-2.762,0-5,2.238-5,5v2.5
		c0-2.762,2.238-5,5-5s5,2.238,5,5V40C47.5,37.238,45.262,35,42.5,35z M57.5,35c-2.762,0-5,2.238-5,5v2.5c0-2.762,2.238-5,5-5
		s5,2.238,5,5V40C62.5,37.238,60.262,35,57.5,35z M72.5,35c-2.762,0-5,2.238-5,5v2.5c0-2.762,2.238-5,5-5s5,2.238,5,5V40
		C77.5,37.238,75.262,35,72.5,35z"/>
	<path d="M22.633,20c-0.085,0.83-0.129,1.664-0.132,2.5h40.001c0-0.859-0.055-1.689-0.135-2.5H22.633z"/>
	<path fill="#3AAD73" d="M21.113,82.5c0.898-1.514,1.378-3.238,1.388-5c0-5.521-4.478-10-10-10s-10,4.479-10,10
		c0,1.83,0.526,3.521,1.388,5H21.113z M72.5,67.5c-3.914,0.004-7.465,2.297-9.08,5.861c-1.055-0.559-2.229-0.854-3.42-0.861
		c-4.143,0-7.5,3.357-7.5,7.5c0,0.883,0.18,1.715,0.461,2.5h28.154c0.896-1.514,1.375-3.24,1.385-5
		C82.5,71.977,78.023,67.5,72.5,67.5z"/>
	<path d="M63.42,73.361c-1.055-0.559-2.229-0.854-3.42-0.861c-4.143,0-7.5,3.357-7.5,7.5c0,0.883,0.18,1.715,0.461,2.5h10.928
		c-0.9-1.514-1.379-3.238-1.389-5C62.5,76.02,62.844,74.629,63.42,73.361z"/>
</g>
</svg>
