<?xml version="1.0" encoding="utf-8"?>
<!-- Generator: Adobe Illustrator 16.0.2, SVG Export Plug-In . SVG Version: 6.00 Build 0)  -->
<!DOCTYPE svg PUBLIC "-//W3C//DTD SVG 1.1 Tiny//EN" "http://www.w3.org/Graphics/SVG/1.1/DTD/svg11-tiny.dtd">
<svg version="1.1" baseProfile="tiny" id="Layer_1" xmlns="http://www.w3.org/2000/svg" xmlns:xlink="http://www.w3.org/1999/xlink"
	 x="0px" y="0px" width="85px" height="85px" viewBox="0 0 85 85" xml:space="preserve">
<g>
	<path fill-rule="evenodd" fill="#E84444" d="M78.59,35.261c-0.648-4.195-1.768-8.23-3.839-11.965
		c-0.153-0.296-0.287-0.604-0.464-0.886c-0.969-1.559-2.051-3.036-3.286-4.395C61.31,7.331,49.295,3.148,35.131,5.653
		c-9.221,1.631-16.798,6.365-22.504,13.781C4.507,29.987,2.454,41.792,6.411,54.477c3.013,9.655,9.265,16.796,18.088,21.685
		c2.311,1.279,4.737,2.321,7.325,2.931c1.434,0.264,2.85,0.612,4.315,0.716c2.877,0.204,5.758,0.253,8.613-0.136
		c4.893-0.665,9.539-2.124,13.873-4.541c3.038-1.693,5.833-3.707,8.331-6.113c3.761-3.622,6.655-7.86,8.759-12.63
		c1.791-4.061,2.891-8.319,3.139-12.744C79.006,40.856,79.02,38.049,78.59,35.261z M19.138,56.577
		c-0.419,0.42-0.568,0.491-0.893-0.11c-2.258-4.178-3.398-8.63-3.418-13.374c-0.04-13.828,10.21-25.742,23.894-27.729
		c6.175-0.897,12.014,0.158,17.521,3.11c0.618,0.332,0.508,0.487,0.1,0.894C43.932,31.761,31.529,44.164,19.138,56.577z
		 M67.763,56.083c-3.144,5.966-7.857,10.262-14.04,12.931c-4.037,1.743-8.285,2.43-12.655,2.167
		c-4.182-0.252-8.139-1.394-11.816-3.438c-0.622-0.346-0.657-0.56-0.206-1.089c0.187-0.219,0.4-0.413,0.604-0.616
		c6.405-6.406,12.802-12.819,19.228-19.205c0.658-0.655,1.1-1.303,0.917-2.255c0.695-0.793,1.444-1.534,2.233-2.234
		c0.96,0.228,1.593-0.248,2.239-0.903c3.827-3.874,7.69-7.712,11.541-11.563c0.185-0.185,0.363-0.377,0.56-0.551
		c0.568-0.503,0.798-0.481,1.146,0.162c1.797,3.331,2.953,6.854,3.319,10.644C71.375,45.761,70.396,51.084,67.763,56.083z"/>
	<g>
		<path fill-rule="evenodd" fill="#787878" d="M40.3,2.63c-0.162-0.009-0.365,0.127-0.456-0.13c0.156,0,0.313,0,0.469,0
			c0.053,0.034,0.069,0.065,0.048,0.092C40.34,2.618,40.32,2.63,40.3,2.63z"/>
		<path fill-rule="evenodd" fill="#4D4D4D" d="M40.3,2.63c0.006-0.043,0.01-0.087,0.013-0.13c0.156,0,0.313,0,0.469,0
			c0.053,0.034,0.069,0.064,0.048,0.092c-0.02,0.026-0.039,0.04-0.059,0.04C40.614,2.631,40.457,2.631,40.3,2.63z"/>
		<path fill-rule="evenodd" fill="#404040" d="M82.5,40.938c-0.199-0.111-0.154-0.298-0.145-0.474
			c0.05-0.066,0.098-0.064,0.145,0.005C82.5,40.625,82.5,40.781,82.5,40.938z"/>
		<path fill-rule="evenodd" fill="#4A4A4A" d="M82.367,44.543c-0.027-0.18-0.061-0.361,0.133-0.48c0,0.156,0,0.313,0,0.469
			C82.461,44.598,82.416,44.602,82.367,44.543z"/>
		<path fill-rule="evenodd" fill="#4E4E4E" d="M44.696,2.634c-0.155-0.001-0.312-0.001-0.468-0.002
			c-0.057-0.025-0.078-0.053-0.062-0.083C44.184,2.516,44.201,2.5,44.219,2.5c0.156,0,0.313,0,0.469,0
			c0.049,0.027,0.065,0.055,0.053,0.086C44.727,2.618,44.711,2.634,44.696,2.634z"/>
		<path fill-rule="evenodd" fill="#737373" d="M82.367,44.543c0.044-0.005,0.088-0.009,0.133-0.012c0,0.156,0,0.313,0,0.469
			C82.244,44.909,82.375,44.705,82.367,44.543z"/>
		<path fill-rule="evenodd" fill="#4F4F4F" d="M40.305,82.361c0.155,0.003,0.311,0.005,0.466,0.008
			c0.058,0.024,0.078,0.052,0.062,0.083c-0.017,0.032-0.034,0.048-0.052,0.048c-0.156,0-0.313,0-0.469,0
			c-0.049-0.028-0.066-0.058-0.052-0.09S40.289,82.361,40.305,82.361z"/>
		<path fill-rule="evenodd" fill="#747474" d="M44.543,82.37c0.162,0.006,0.364-0.124,0.457,0.13c-0.156,0-0.313,0-0.469,0
			c-0.053-0.034-0.069-0.064-0.049-0.092C44.503,82.383,44.522,82.37,44.543,82.37z"/>
		<path fill-rule="evenodd" fill="#353535" d="M40.771,2.632c0.005-0.044,0.008-0.088,0.01-0.132c0.104,0,0.208,0,0.313,0
			C41.025,2.64,40.906,2.655,40.771,2.632z"/>
		<path fill-rule="evenodd" fill="#353535" d="M44.219,2.5c0.002,0.044,0.006,0.088,0.01,0.132C44.094,2.655,43.975,2.64,43.906,2.5
			C44.01,2.5,44.115,2.5,44.219,2.5z"/>
		<path fill-rule="evenodd" fill="#707070" d="M44.696,2.634C44.69,2.589,44.688,2.545,44.688,2.5c0.104,0,0.209,0,0.313,0
			c0.049,0.027,0.066,0.055,0.052,0.085c-0.015,0.031-0.029,0.046-0.045,0.046C44.903,2.632,44.8,2.633,44.696,2.634z"/>
		<path fill-rule="evenodd" fill="#8F8F8F" d="M45.007,2.631C45.002,2.588,45,2.544,45,2.5c0.104,0,0.209,0,0.313,0
			C45.277,2.697,45.136,2.651,45.007,2.631z"/>
		<path fill-rule="evenodd" fill="#525252" d="M2.631,40.304c0.001,0.104,0.001,0.208,0.002,0.313
			c-0.04,0.076-0.084,0.082-0.133,0.008c0-0.104,0-0.208,0-0.313C2.54,40.246,2.583,40.243,2.631,40.304z"/>
		<path fill-rule="evenodd" fill="#535353" d="M2.633,44.383c0,0.104-0.001,0.209-0.001,0.313C2.583,44.758,2.54,44.752,2.5,44.688
			c0-0.104,0-0.209,0-0.313C2.549,44.303,2.593,44.305,2.633,44.383z"/>
		<path fill-rule="evenodd" fill="#3D3D3D" d="M2.5,40.625c0.044-0.002,0.089-0.004,0.133-0.008c0.023,0.135,0.007,0.253-0.133,0.32
			C2.5,40.833,2.5,40.729,2.5,40.625z"/>
		<path fill-rule="evenodd" fill="#717171" d="M2.5,44.688c0.044,0.004,0.087,0.007,0.131,0.009c0,0.103,0,0.206,0,0.31
			C2.584,45.069,2.541,45.067,2.5,45C2.5,44.896,2.5,44.791,2.5,44.688z"/>
		<path fill-rule="evenodd" fill="#8F8F8F" d="M2.5,45c0.044,0.002,0.088,0.004,0.131,0.006c0.02,0.13,0.065,0.27-0.131,0.307
			C2.5,45.209,2.5,45.104,2.5,45z"/>
		<path fill-rule="evenodd" fill="#707070" d="M2.631,40.304c-0.044,0.001-0.087,0.004-0.131,0.008c0-0.104,0-0.208,0-0.313
			c0.041-0.068,0.084-0.07,0.132-0.006C2.631,40.097,2.631,40.201,2.631,40.304z"/>
		<path fill-rule="evenodd" fill="#838383" d="M82.363,40.148c-0.01-0.126-0.047-0.265,0.137-0.305c0,0.104,0,0.208,0,0.313
			C82.45,40.227,82.404,40.228,82.363,40.148z"/>
		<path fill-rule="evenodd" fill="#8E8E8E" d="M2.632,39.994C2.588,39.996,2.544,39.998,2.5,40c0-0.104,0-0.208,0-0.313
			C2.696,39.724,2.651,39.864,2.632,39.994z"/>
		<path fill-rule="evenodd" fill="#929292" d="M39.688,82.5c0.037-0.194,0.178-0.148,0.306-0.132
			c0.055,0.026,0.074,0.055,0.058,0.085C40.035,82.484,40.018,82.5,40,82.5C39.896,82.5,39.792,82.5,39.688,82.5z"/>
		<path fill-rule="evenodd" fill="#737373" d="M40,82.5c0.001-0.044-0.001-0.088-0.006-0.132c0.104-0.002,0.208-0.005,0.311-0.007
			c0.007,0.046,0.01,0.093,0.008,0.139C40.208,82.5,40.104,82.5,40,82.5z"/>
		<path fill-rule="evenodd" fill="#3D3D3D" d="M2.633,44.383C2.589,44.38,2.544,44.377,2.5,44.375c0-0.104,0-0.209,0-0.313
			C2.641,44.129,2.656,44.248,2.633,44.383z"/>
		<path fill-rule="evenodd" fill="#373737" d="M40.781,82.5c-0.002-0.044-0.005-0.088-0.01-0.131
			c0.135-0.025,0.254-0.008,0.323,0.131C40.99,82.5,40.885,82.5,40.781,82.5z"/>
		<path fill-rule="evenodd" fill="#373737" d="M43.906,82.5c0.066-0.139,0.188-0.153,0.32-0.138c0.045,0.033,0.06,0.064,0.042,0.095
			c-0.017,0.028-0.033,0.043-0.05,0.043C44.115,82.5,44.01,82.5,43.906,82.5z"/>
		<path fill-rule="evenodd" fill="#4F4F4F" d="M44.219,82.5c0-0.046,0.002-0.092,0.008-0.138c0.105,0.003,0.211,0.005,0.316,0.008
			c-0.006,0.043-0.01,0.087-0.012,0.13C44.428,82.5,44.322,82.5,44.219,82.5z"/>
		<path fill-rule="evenodd" fill="#5C5C5C" d="M82.363,40.148c0.045,0.006,0.091,0.008,0.137,0.008c0,0.104,0,0.208,0,0.313
			l-0.072,0l-0.073-0.005C82.357,40.359,82.359,40.253,82.363,40.148z"/>
		<path fill-rule="evenodd" fill="#D73131" d="M31.996,78.608c0.894-0.097,1.748,0.188,2.61,0.322
			c2.194,0.342,4.396,0.315,6.599,0.282c5.096-0.077,9.932-1.303,14.584-3.35c3.303-1.453,6.287-3.409,9.067-5.677
			c2.401-1.959,4.474-4.252,6.294-6.757c3.004-4.137,5.125-8.69,6.402-13.649c1.047-4.065,1.268-8.208,0.999-12.349
			c-0.294-4.549-1.452-8.931-3.399-13.08c-0.186-0.396-0.313-0.821-0.465-1.232c0.828,0.98,1.326,2.152,1.868,3.29
			c8.79,18.476,0.991,40.828-17.382,49.857c-1.111,0.546-1.278,0.833-1.066,1.842c-0.793,0.312-1.574,0.655-2.381,0.923
			c-0.364,0.12-0.473,0.326-0.487,0.651c-0.208-1.182-0.659-1.467-1.854-1.115c-4.042,1.188-8.168,1.749-12.377,1.557
			C37.949,79.983,34.917,79.609,31.996,78.608z"/>
		<path fill-rule="evenodd" d="M49.824,44.492c0.458,0.87,0.403,1.172-0.368,1.943c-6.554,6.557-13.104,13.117-19.676,19.656
			c-0.476,0.474-0.487,0.634,0.125,0.97c15.893,8.716,35.986-0.471,39.823-18.25c1.419-6.574,0.528-12.859-2.63-18.81
			c-0.417-0.785-0.425-0.782-1.033-0.174c-4.056,4.057-8.111,8.114-12.169,12.169c-0.724,0.723-1.024,0.768-1.888,0.31
			c-0.507-0.802-0.487-1.185,0.154-1.828c4.435-4.44,8.87-8.88,13.313-13.311c0.995-0.992,2.139-0.843,2.867,0.374
			c3.605,6.011,5.014,12.498,4.031,19.444c-1.798,12.719-11.063,22.583-23.663,25.106c-7.488,1.5-14.55,0.182-21.117-3.721
			c-1.305-0.775-1.435-1.89-0.36-2.965c6.897-6.903,13.799-13.803,20.701-20.7C48.611,44.03,49.023,43.992,49.824,44.492z"/>
		<path fill-rule="evenodd" d="M57.506,17.611c-0.152-0.095-0.305-0.186-0.461-0.274c-6.119-3.49-12.654-4.651-19.613-3.556
			c-14.26,2.246-24.886,14.701-24.842,29.144c0.017,5.45,1.415,10.551,4.133,15.075c0.969,1.613,1.957,1.742,3.28,0.42
			c9.15-9.148,18.3-18.298,27.449-27.447c3.467-3.465,6.934-6.927,10.395-10.397C58.916,19.5,58.783,18.412,57.506,17.611z
			 M55.361,19.832C43.26,31.917,31.167,44.011,19.084,56.114c-0.409,0.408-0.553,0.479-0.87-0.107
			c-2.201-4.074-3.313-8.416-3.333-13.04c-0.04-13.483,9.956-25.1,23.297-27.039c6.021-0.875,11.714,0.154,17.085,3.032
			C55.865,19.284,55.758,19.436,55.361,19.832z"/>
		<path fill-rule="evenodd" d="M82.5,40.938c0,1.042,0,2.084,0,3.125c-0.135,0.138-0.061,0.312-0.08,0.469
			c0.02,0.157-0.055,0.331,0.08,0.469c0,0.26,0,0.521,0,0.781c-0.197,1.043-0.135,2.109-0.309,3.157
			c-1.265,7.578-4.415,14.28-9.463,20.052c-3.563,4.073-7.768,7.354-12.699,9.653c-0.988,0.461-1.461,0.353-2.068-0.488
			c-0.266-1.018-0.061-1.474,0.973-1.986c2.859-1.42,5.517-3.144,7.928-5.238c3.149-2.737,5.826-5.867,7.945-9.471
			c2.748-4.674,4.391-9.721,4.946-15.099c0.671-6.494-0.278-12.766-2.896-18.766c-0.656-1.502-1.328-2.997-2.295-4.334
			c-3.787-6.456-9.127-11.232-15.817-14.508c-4.229-2.071-8.711-3.212-13.421-3.58c-5.009-0.392-9.872,0.226-14.62,1.775
			c-4.684,1.528-8.879,3.94-12.61,7.173c-5.303,4.596-9.081,10.203-11.247,16.875c-0.919,2.831-1.446,5.738-1.671,8.718
			C4.649,46.666,5.956,53.241,9.1,59.441c3.134,6.18,7.683,11.091,13.539,14.796c2.969,1.879,6.126,3.325,9.522,4.245
			c2.425,0.717,4.905,1.086,7.421,1.313c3.818,0.344,7.57-0.021,11.301-0.814c0.891-0.189,1.758-0.469,2.642-0.68
			c1.106-0.264,2.051,0.384,1.829,1.505c-0.153,0.782-0.758,1.066-1.424,1.265c-2.642,0.788-5.322,1.343-8.094,1.349
			c-0.128,0-0.26-0.016-0.367,0.08c-0.156,0-0.313,0-0.469,0c-0.133-0.133-0.301-0.062-0.454-0.08c-0.095,0-0.19,0-0.286,0
			c-0.122,0.008-0.254-0.027-0.354,0.08c-0.938,0-1.875,0-2.813,0c-0.103-0.11-0.239-0.071-0.364-0.08c-0.13,0-0.26,0-0.39,0
			c-0.097,0-0.194,0-0.291,0c-0.125,0.008-0.259-0.029-0.361,0.08c-0.208,0-0.417,0-0.625,0c-1.67-0.188-3.347-0.313-4.996-0.677
			c-6.497-1.432-12.319-4.228-17.402-8.535c-4.279-3.627-7.739-7.91-10.216-12.948c-1.894-3.851-3.199-7.899-3.745-12.174
			c-0.094-0.74-0.026-1.496-0.203-2.229c0-0.209,0-0.416,0-0.625c0.105-0.098,0.073-0.227,0.081-0.347c0-0.093,0-0.187,0-0.279
			s0-0.186,0-0.278c-0.007-0.12,0.025-0.249-0.081-0.346c0-1.041,0-2.083,0-3.125c0.105-0.097,0.073-0.227,0.081-0.347
			c0-0.093,0-0.186,0-0.279c0-0.093,0-0.186,0-0.278c-0.007-0.12,0.025-0.249-0.081-0.346c0-0.208,0-0.417,0-0.625
			c0.146-2.124,0.442-4.224,0.97-6.289c1.539-6.019,4.256-11.43,8.292-16.169c3.603-4.23,7.845-7.66,12.828-10.123
			c3.87-1.912,7.942-3.235,12.244-3.779c0.792-0.101,1.598-0.04,2.385-0.203c0.208,0,0.417,0,0.625,0
			c0.141,0.137,0.317,0.06,0.478,0.081c0.133,0,0.267,0,0.4,0c0.128-0.01,0.267,0.034,0.373-0.081c0.938,0,1.875,0,2.813,0
			c0.104,0.11,0.238,0.071,0.364,0.081c0.13,0,0.261,0,0.39,0c0.098,0,0.195,0,0.291,0c0.125-0.009,0.26,0.029,0.361-0.081
			c0.104,0,0.209,0,0.313,0c1.832,0.151,3.66,0.309,5.462,0.707c6.394,1.413,12.11,4.196,17.132,8.401
			c4.114,3.446,7.463,7.525,9.945,12.284c2.146,4.115,3.553,8.484,4.154,13.096c0.104,0.79,0.043,1.597,0.182,2.387
			c0,0.156,0,0.313,0,0.469c-0.107,0.1-0.072,0.232-0.08,0.354c0,0.096,0,0.191,0,0.286C82.438,40.637,82.367,40.805,82.5,40.938z"
			/>
	</g>
</g>
</svg>
