<?xml version="1.0" encoding="utf-8"?>
<!-- Generator: Adobe Illustrator 16.0.0, SVG Export Plug-In . SVG Version: 6.00 Build 0)  -->
<!DOCTYPE svg PUBLIC "-//W3C//DTD SVG 1.1//EN" "http://www.w3.org/Graphics/SVG/1.1/DTD/svg11.dtd">
<svg version="1.1" id="Layer_1" xmlns="http://www.w3.org/2000/svg" xmlns:xlink="http://www.w3.org/1999/xlink" x="0px" y="0px"
	 width="85px" height="85px" viewBox="0 0 85 85" enable-background="new 0 0 85 85" xml:space="preserve">
<g>
	<path fill-rule="evenodd" clip-rule="evenodd" d="M63.319,42.52c0.685-0.347,1.216-0.134,1.735,0.386
		c5.617,5.618,11.248,11.225,16.869,16.839c0.217,0.216,0.385,0.48,0.576,0.722c0,0.261,0,0.521,0,0.781
		c-1.566,1.765-3.627,2.538-5.886,2.811c-5.676,0.685-10.854-0.914-15.769-3.588c-2.712-1.477-5.132-3.352-7.315-5.534
		c-3.498-3.497-7.004-6.987-10.506-10.48c-1.236-1.232-1.238-2.252-0.01-3.486c0.293-0.295,0.556-0.635,0.891-0.874
		c0.618-0.439,0.463-0.778-0.029-1.182c-0.381-0.312-0.659-0.835-1.082-0.986c-0.396-0.142-0.797,0.354-1.216,0.534
		c-1.592,0.682-3.296,0.711-4.972,0.866c-1.82,0.167-3.357,0.845-4.582,2.213c-0.226,0.252-0.47,0.488-0.721,0.715
		c-0.587,0.532-1.192,0.943-0.347,1.863c0.588,0.64,0.271,1.542-0.535,2.349c-2.483,2.485-4.975,4.965-7.463,7.446
		c-1.014,1.011-2.024,2.025-3.044,3.03c-0.711,0.702-1.031,0.737-1.927,0.247c-0.637-0.563-0.65-1.2,0.009-1.923
		c0.629-0.688,1.312-1.326,1.97-1.986c0.969-0.973,1.928-1.956,2.918-2.906c0.418-0.401,0.405-0.688-0.01-1.082
		c-0.956-0.911-1.871-1.864-2.812-2.791c-3.769-3.795-7.568-7.558-11.332-11.357c-0.446-0.451-0.751-0.494-1.2-0.013
		c-0.814,0.872-1.684,1.693-2.523,2.542C4.56,38.129,4.049,38.377,3.4,38.291c-0.495-0.043-0.727-0.386-0.9-0.793
		c0-0.312,0-0.625,0-0.938c3.031-3.025,6.059-6.056,9.099-9.073c0.894-0.888,1.811-0.932,2.755-0.103
		c0.347,0.304,0.491,0.184,0.738-0.065c1.19-1.203,2.385-2.402,3.599-3.581c0.279-0.271,0.329-0.505,0.238-0.881
		c-0.58-2.396-0.023-4.534,1.572-6.396c0.28-0.326,0.34-0.509,0.045-0.895c-1.931-2.518-1.728-5.856,0.446-8.031
		c2.171-2.172,5.544-2.379,8.035-0.469c0.318,0.244,0.507,0.294,0.85,0.038c0.909-0.678,1.966-0.994,3.085-0.831
		c0.627,0.091,0.964-0.182,1.326-0.576c1.139-1.239,2.51-1.921,4.234-1.684c1.843,0.253,3.093,1.286,3.751,3.002
		c0.151,0.394,0.241,0.455,0.626,0.294c1.902-0.79,3.656-0.47,5.098,0.971c1.422,1.42,1.72,3.156,0.973,5.034
		c-0.134,0.335-0.144,0.477,0.242,0.609c2.115,0.723,3.797,3.261,2.911,5.873c-0.169,0.499,0.215,0.431,0.423,0.535
		c1.911,0.951,2.878,3.019,2.301,4.941c-0.191,0.639-0.549,1.17-1.022,1.633c-0.8,0.783-1.593,1.573-2.391,2.362
		c2.52,2.534,5.013,5.042,7.508,7.549c0.606,0.609,1.219,1.212,1.824,1.821c0.756,0.761,0.799,1.054,0.303,1.98
		c-0.459,0.529-0.901,0.619-1.48,0.296c-0.3-0.167-0.528-0.419-0.767-0.658c-1.693-1.691-3.383-3.385-5.077-5.074
		c-0.676-0.674-0.719-0.673-1.368-0.027c-0.719,0.715-1.441,1.428-2.146,2.158c-1.591,1.576-3.154,3.181-4.761,4.74
		c-0.47,0.456-0.444,0.762,0.008,1.211c3.145,3.116,6.274,6.247,9.392,9.391c0.394,0.396,0.746,0.475,1.241,0.23
		c2.784-1.37,5.62-1.319,8.492-0.286c0.905,0.325,1.818,0.639,2.765,0.832c1.447,0.319,3.802,0.389,4.61,0.131
		c-0.057-0.311-0.326-0.456-0.521-0.65c-2.641-2.65-5.289-5.295-7.935-7.941c-0.238-0.239-0.49-0.468-0.664-0.763
		C62.454,43.524,62.613,42.949,63.319,42.52z"/>
	<path fill-rule="evenodd" clip-rule="evenodd" d="M16.048,59.229c0.447,0.745,0.255,1.336-0.346,1.931
		c-3.654,3.615-7.285,7.254-10.928,10.881C3.869,72.941,3.27,72.891,2.5,71.872c0-0.261,0-0.521,0-0.781
		c0.152-0.599,0.634-0.951,1.024-1.372c3.367-3.354,6.721-6.723,10.084-10.08c0.257-0.256,0.499-0.532,0.821-0.712
		C15.053,58.577,15.612,58.684,16.048,59.229z"/>
	<path fill-rule="evenodd" clip-rule="evenodd" fill="#3EC2A3" d="M3.631,69.834c-0.003-2.197-0.007-4.396-0.008-6.593
		c0-0.204-0.033-0.416,0.093-0.602c0.256-0.357,0.543-0.687,0.855-0.998c4.9-4.893,9.793-9.792,14.696-14.681
		c0.258-0.257,0.448-0.673,0.936-0.584c1.056,1.032,2.098,2.078,3.174,3.089c0.38,0.356,0.179,0.545-0.083,0.804
		c-1.677,1.662-3.334,3.345-5.022,4.994c-0.61,0.597-0.771,1.2-0.283,1.929c-0.646,0.679-1.294,1.357-1.94,2.036
		c-0.887-0.524-1.255-0.487-1.982,0.239c-3.346,3.335-6.688,6.675-10.033,10.012C3.906,69.605,3.765,69.716,3.631,69.834z"/>
	<path fill-rule="evenodd" clip-rule="evenodd" d="M47.193,74.288c0.013-1.028,0.302-2.048,0.724-3.036
		c1.273-2.986,3.148-5.613,4.999-8.249c0.634-0.903,1.768-0.948,2.389-0.066c2.049,2.906,4.198,5.771,5.372,9.183
		c1.144,3.318-0.263,6.732-3.286,8.183c-3.243,1.555-7.244,0.559-9.108-2.269C47.544,76.914,47.247,75.666,47.193,74.288z"/>
	<path fill-rule="evenodd" clip-rule="evenodd" fill="#D6CFD5" d="M50.173,37.189c0.816-0.833,1.654-1.647,2.442-2.507
		c0.358-0.392,0.56-0.336,0.907,0.017c1.859,1.89,3.76,3.741,5.617,5.633c0.603,0.614,1.201,0.764,1.929,0.284
		c0.601,0.404,1.029,0.989,1.558,1.469c0.206,0.187,0.371,0.435,0.693,0.435c-0.696,0.828-0.681,1.285,0.098,2.062
		c2.826,2.826,5.655,5.65,8.491,8.467c0.198,0.197,0.461,0.328,0.629,0.589c-1.798,0.444-3.5,0.406-5.194-0.047
		c-0.239-0.154-0.488-0.293-0.688-0.504c-1.698-1.793-3.563-3.414-5.324-5.144c-2.871-2.82-5.818-5.564-8.696-8.379
		C51.82,38.768,50.935,38.042,50.173,37.189z"/>
	<path fill-rule="evenodd" clip-rule="evenodd" fill="#FDD1A3" d="M28.964,29.03c0.857,0.024,1.223-0.578,1.557-1.221
		c0.432-0.214,0.696,0.104,0.94,0.344c1.913,1.877,3.813,3.765,5.684,5.684c0.662,0.679,0.49,1.13-0.43,1.339
		c-0.918,0.208-1.859,0.194-2.788,0.31c-1.905,0.239-3.549,0.958-4.873,2.372c-0.479,0.512-0.983,1.003-1.491,1.488
		c-0.198,0.189-0.374,0.457-0.722,0.359c-3.381-3.353-6.756-6.71-10.15-10.048c-0.352-0.345-0.147-0.493,0.083-0.721
		c1.424-1.41,2.84-2.829,4.263-4.241c0.418-0.415,0.646-0.866,0.417-1.468c-0.925-2.429-0.169-4.396,1.617-6.133
		c2.332-2.268,4.616-4.586,6.931-6.874c0.349-0.344,0.614-0.777,1.059-1.022c0.379-0.2,0.745-0.146,1.118,0.036
		c0.634,0.31,1.219,0.681,1.723,1.186c2.309,2.317,4.623,4.629,6.938,6.94c0.352,0.351,0.649,0.743,0.93,1.148
		c0.212,0.308,0.372,0.637,0.109,1.003c-0.785,0.513-1.614,0.271-2.408,0.082c-1.079-0.255-2.021-0.804-2.811-1.593
		c-0.662-0.661-1.312-1.335-1.988-1.982c-1.418-1.357-3.18-1.345-4.57,0.023c-0.852,0.839-1.68,1.704-2.547,2.526
		c-0.544,0.516-0.691,1.07-0.362,1.745c0.171,0.25,0.017,0.448-0.12,0.631c-0.348,0.464-0.374,0.969-0.149,1.469
		c0.715,1.596,0.625,3.22,0.226,4.863c-0.062,0.251-0.136,0.5-0.168,0.757c-0.112,0.918,0.434,1.37,1.309,1.071
		C28.514,29.027,28.727,28.95,28.964,29.03z"/>
	<path fill-rule="evenodd" clip-rule="evenodd" fill="#6FD6A2" d="M20.203,46.377c-0.235,0.202-0.485,0.389-0.704,0.607
		c-5.026,5.02-10.048,10.043-15.075,15.062c-0.217,0.217-0.39,0.494-0.708,0.594c-0.003-7.844-0.005-15.688-0.01-23.531
		c0-0.326,0.088-0.681-0.229-0.931c0.537,0.044,0.931-0.203,1.295-0.576c0.981-1.003,1.994-1.975,2.972-2.981
		c0.285-0.293,0.457-0.292,0.747-0.001c3.872,3.882,7.755,7.751,11.634,11.626C20.159,46.28,20.177,46.333,20.203,46.377z"/>
	<path fill-rule="evenodd" clip-rule="evenodd" fill="#E4E0E4" d="M50.173,37.189c0.198,0,0.333,0.115,0.468,0.244
		c1.031,0.983,2.073,1.955,3.097,2.946c2.049,1.984,4.062,4.006,6.139,5.96c2.435,2.291,4.874,4.575,7.234,6.943
		c0.09,0.09,0.156,0.204,0.232,0.308c-1.202-0.126-2.276-0.684-3.415-1.024c-2.784-0.832-5.486-0.732-8.082,0.651
		c-0.353,0.188-0.561,0.166-0.853-0.128c-3.32-3.335-6.658-6.654-9.993-9.975c-0.224-0.224-0.468-0.38-0.104-0.733
		C46.668,40.665,48.416,38.923,50.173,37.189z"/>
	<path fill-rule="evenodd" clip-rule="evenodd" fill="#E4E0E4" d="M21.822,44.554c-2.35-2.323-4.7-4.644-7.047-6.969
		c-1.498-1.484-2.969-2.997-4.494-4.452c-0.462-0.441-0.396-0.67,0.022-1.072c0.917-0.883,1.78-1.823,2.566-2.637
		c4.098,4.036,8.119,7.998,12.141,11.959c0.095,0.238-0.06,0.395-0.199,0.539c-0.803,0.828-1.616,1.646-2.447,2.445
		C22.219,44.507,22.059,44.653,21.822,44.554z"/>
	<path fill-rule="evenodd" clip-rule="evenodd" fill="#796D79" d="M48.452,35.493c-0.617,0.632-1.259,1.244-1.843,1.905
		c-0.366,0.413-0.589,0.39-0.975,0.001c-2.728-2.755-5.48-5.486-8.226-8.224c-1.879-1.875-3.755-3.755-5.642-5.624
		c-0.36-0.356-0.62-0.727-0.734-1.244c-0.151-0.684-0.394-1.365-0.828-1.922c-0.436-0.559-0.331-0.956,0.194-1.342
		c0.187-0.138,0.349-0.307,0.522-0.462c0.243-0.092,0.404,0.064,0.542,0.211c0.537,0.568,1.193,1.007,1.729,1.569
		c2.025,2.125,4.232,4.061,6.311,6.132c1.485,1.482,2.973,2.973,4.506,4.399c1.386,1.289,2.744,2.606,4.115,3.909
		C48.316,34.983,48.645,35.12,48.452,35.493z"/>
	<path fill-rule="evenodd" clip-rule="evenodd" fill="#FA4455" d="M75.949,61.74c-1.871,0.334-3.731,0.138-5.566-0.215
		c-4.817-0.924-9.076-3.049-12.866-6.139c-0.06-0.048-0.103-0.114-0.216-0.244c1.339-0.669,2.708-0.885,4.149-0.704
		c0.957,0.119,1.888,0.357,2.786,0.708c1.559,0.607,3.177,0.955,4.836,1.135c1.521-0.234,2.509,0.578,3.445,1.637
		c0.947,1.07,2.017,2.031,3.018,3.054C75.739,61.18,76.062,61.351,75.949,61.74z"/>
	<path fill-rule="evenodd" clip-rule="evenodd" fill="#FEBC85" d="M26.841,39.705c0.874-0.665,1.578-1.507,2.356-2.271
		c1.297-1.272,2.863-1.93,4.646-2.125c0.977-0.106,1.953-0.209,2.929-0.323c0.232-0.028,0.495-0.094,0.597-0.314
		c0.115-0.247-0.091-0.439-0.254-0.603c-1.968-1.972-3.938-3.94-5.912-5.908c-0.188-0.187-0.42-0.304-0.683-0.352
		c0.194-0.506,0.39-1.011,0.684-1.775c0.318,0.417,0.521,0.755,0.79,1.025c2.812,2.821,5.635,5.632,8.453,8.446
		c0.668,0.667,0.667,0.668-0.258,0.97c-1.127,0.368-2.306,0.402-3.469,0.478c-2.715,0.175-4.946,1.271-6.744,3.306
		c-0.405,0.459-0.839,1.231-1.336,1.187c-0.485-0.042-0.915-0.769-1.358-1.207C27.119,40.077,26.987,39.883,26.841,39.705z"/>
	<path fill-rule="evenodd" clip-rule="evenodd" fill="#685E68" d="M48.452,35.493c-0.015-0.35-0.348-0.434-0.541-0.624
		c-1.82-1.783-3.651-3.554-5.478-5.329c-1.865-1.811-3.679-3.679-5.607-5.419c-2.005-1.81-3.807-3.832-5.904-5.54
		c1.371-1.589,1.435-1.6,2.858-0.155c1.243,1.261,2.456,2.556,4.197,3.145c0.308,0.104,0.341,0.284,0.312,0.591
		c-0.269,2.986,1.087,4.892,3.987,5.526c0.584,0.127,0.564,0.507,0.646,0.886c0.494,2.295,2.221,3.611,4.554,3.475
		c0.759-0.044,1.415-0.337,1.976-0.822c0.266-0.229,0.401-0.173,0.635,0.038c1.393,1.254,1.4,1.25,0.095,2.548
		C49.611,34.378,49.028,34.933,48.452,35.493z"/>
	<path fill-rule="evenodd" clip-rule="evenodd" fill="#F6314A" d="M75.949,61.74c-1.587-1.79-3.362-3.396-5.022-5.113
		c-0.254-0.263-0.567-0.199-0.873-0.224c-0.329-0.027-0.679,0.107-0.981-0.122c1.72,0.045,3.439,0.068,5.08-0.568
		c0.24-0.094,0.383-0.037,0.546,0.127c1.593,1.605,3.189,3.207,4.832,4.855C78.379,61.335,77.211,61.694,75.949,61.74z"/>
	<path fill-rule="evenodd" clip-rule="evenodd" fill="#D6CFD5" d="M21.822,44.554c1.152-0.967,2.193-2.045,3.188-3.171
		c1.114,1.083,2.222,2.173,3.349,3.241c0.257,0.245,0.221,0.383-0.014,0.61c-0.894,0.867-1.776,1.746-2.645,2.639
		c-0.232,0.239-0.368,0.255-0.608,0.006C24.014,46.76,22.914,45.66,21.822,44.554z"/>
	<path fill-rule="evenodd" clip-rule="evenodd" fill="#F5A86B" d="M41.382,24.75c-0.476-0.334-0.702-0.813-0.803-1.367
		c-0.164-0.901-0.005-1.132,0.882-1.281c2.222-0.373,3.428-1.721,3.526-3.946c0.009-0.179-0.021-0.358,0.129-0.507
		c0.517-0.509,0.977-1.096,1.611-1.455c0.748-0.423,1.494-0.294,2.174,0.224c0.412,0.778,0.069,1.454-0.43,1.978
		c-1.855,1.949-3.773,3.84-5.702,5.718C42.393,24.479,41.914,24.689,41.382,24.75z"/>
	<path fill-rule="evenodd" clip-rule="evenodd" fill="#E99A58" d="M41.382,24.75c2.764-1.711,4.655-4.362,7.003-6.522
		c0.496-0.457,0.564-1.143,0.517-1.81c1.368,1.004,1.495,2.367,0.315,3.545c-1.601,1.598-3.208,3.189-4.816,4.778
		C43.455,25.674,42.428,25.673,41.382,24.75z"/>
	<path fill-rule="evenodd" clip-rule="evenodd" fill="#F5A86C" d="M46.074,29.382c-1.116-0.838-1.183-1.755-0.215-2.71
		c1.274-1.258,2.536-2.529,3.808-3.79c0.736-0.729,1.294-0.771,2.203-0.186c0.376,0.705,0.028,1.302-0.406,1.766
		c-1.495,1.595-3.061,3.12-4.625,4.647C46.634,29.309,46.394,29.472,46.074,29.382z"/>
	<path fill-rule="evenodd" clip-rule="evenodd" fill="#FEBC85" d="M41.878,19.511c0.069-0.805-0.499-1.302-0.97-1.782
		c-2.435-2.485-4.895-4.946-7.378-7.382c-0.667-0.655-1.46-1.17-2.471-1.148c0.974-0.819,2.173-0.873,3.076,0.011
		c2.688,2.629,5.345,5.29,7.979,7.971C42.947,18.026,42.817,18.84,41.878,19.511z"/>
	<path fill-rule="evenodd" clip-rule="evenodd" fill="#F5A86B" d="M43.002,14.674c-0.669-0.654-1.327-1.32-2.014-1.956
		C40.7,12.452,40.734,12.287,41,12.033c0.714-0.684,1.386-1.413,2.106-2.089c0.618-0.58,1.337-0.896,2.204-0.563
		c0.741,1.018,0.538,2.072,0.049,3.088c-0.409,0.851-1.101,1.5-1.807,2.115C43.402,14.717,43.22,14.855,43.002,14.674z"/>
	<path fill-rule="evenodd" clip-rule="evenodd" fill="#FEBC85" d="M28.964,29.03c-0.163,0.072-0.346,0.118-0.485,0.222
		c-0.428,0.318-0.838,0.345-1.284,0.034c-0.477-0.331-0.567-0.792-0.447-1.302c0.195-0.828,0.373-1.65,0.469-2.501
		c0.111-0.983-0.046-1.899-0.415-2.778c-0.332-0.789-0.421-1.484,0.295-2.104c0.065-0.057,0.065-0.19,0.096-0.288
		c1.909,1.942,2.297,4.323,1.087,6.682C27.749,28.026,27.912,28.51,28.964,29.03z"/>
	<path fill-rule="evenodd" clip-rule="evenodd" fill="#675D67" d="M22.012,10.146c0.944-1.952,3.438-2.661,5.238-1.502
		c0.388,0.25,0.509,0.45,0.106,0.817c-0.747,0.681-1.457,1.402-2.183,2.106c-0.126,0.051-0.273,0.072-0.371-0.009
		C23.979,10.871,22.956,10.587,22.012,10.146z"/>
	<path fill-rule="evenodd" clip-rule="evenodd" fill="#E99A58" d="M46.074,29.382c0.341-0.141,0.617-0.366,0.876-0.627
		c1.369-1.379,2.735-2.761,4.125-4.119c0.556-0.543,0.824-1.172,0.795-1.939c1.016,0.862,1.07,1.773,0.151,2.697
		c-1.262,1.267-2.525,2.531-3.798,3.787C47.536,29.859,46.935,29.905,46.074,29.382z"/>
	<path fill-rule="evenodd" clip-rule="evenodd" fill="#796C78" d="M22.012,10.146c0.922,0.06,1.729,0.405,2.459,0.962
		c0.222,0.169,0.468,0.307,0.703,0.458c-0.777,0.797-1.563,1.587-2.329,2.396c-0.275,0.291-0.452,0.262-0.647-0.069
		C21.479,12.675,21.284,11.434,22.012,10.146z"/>
	<path fill-rule="evenodd" clip-rule="evenodd" fill="#F4A86B" d="M38.314,9.986c-0.735-0.723-1.469-1.449-2.208-2.168
		c-0.181-0.175-0.295-0.29-0.076-0.562c0.852-1.066,2.262-1.243,3.344-0.382c0.493,1.079,0.097,2.02-0.476,2.921
		C38.779,9.982,38.589,10.169,38.314,9.986z"/>
	<path fill-rule="evenodd" clip-rule="evenodd" fill="#E89A57" d="M43.002,14.674c1.924-0.949,2.856-2.941,2.338-4.985
		c-0.024-0.099-0.021-0.205-0.029-0.308c1.628,0.449,2.256,2.27,1.167,3.551c-0.721,0.848-1.565,1.59-2.341,2.393
		c-0.22,0.228-0.372,0.207-0.561-0.021C43.396,15.084,43.194,14.883,43.002,14.674z"/>
	<path fill-rule="evenodd" clip-rule="evenodd" fill="#E69957" d="M38.314,9.986c0.837-0.419,0.901-1.253,1.049-2.022
		c0.067-0.351,0.011-0.727,0.011-1.09c1.143,0.998,1.095,2.703-0.148,3.603C38.707,10.853,38.604,10.185,38.314,9.986z"/>
	<path fill-rule="evenodd" clip-rule="evenodd" fill="#FA4455" d="M53.281,78.577c-2.729-0.3-4.366-2.893-3.496-5.61
		c0.639-1.995,1.76-3.745,2.92-5.468c0.351-0.176,0.481,0.125,0.599,0.322c1.021,1.724,2.091,3.446,2.403,5.463
		c0.288,1.854-0.338,3.477-1.615,4.849C53.868,78.375,53.559,78.442,53.281,78.577z"/>
	<path fill-rule="evenodd" clip-rule="evenodd" fill="#F6314A" d="M53.281,78.577c1.455-1.097,2.165-2.593,2.312-4.374
		c0.075-0.9-0.253-1.729-0.553-2.555c-0.455-1.25-1.137-2.387-1.778-3.542c-0.131-0.234-0.236-0.531-0.558-0.607
		c0.454-0.694,0.908-1.389,1.429-2.186c1.715,2.593,3.617,4.993,4.437,7.961C59.465,76.509,56.615,79.305,53.281,78.577z"/>
</g>
</svg>
