<?xml version="1.0" encoding="utf-8"?>
<!-- Generator: Adobe Illustrator 16.0.0, SVG Export Plug-In . SVG Version: 6.00 Build 0)  -->
<!DOCTYPE svg PUBLIC "-//W3C//DTD SVG 1.1//EN" "http://www.w3.org/Graphics/SVG/1.1/DTD/svg11.dtd">
<svg version="1.1" id="Layer_1" xmlns="http://www.w3.org/2000/svg" xmlns:xlink="http://www.w3.org/1999/xlink" x="0px" y="0px"
	 width="85px" height="85px" viewBox="0 0 85 85" enable-background="new 0 0 85 85" xml:space="preserve">
<g>
	<g>
		<path fill="#428CFE" d="M82.5,42.159c-0.354,0.536-0.493,1.18-0.933,1.68c-0.907,1.03-2.035,1.458-3.39,1.455
			c-7.785-0.012-15.571-0.006-23.356-0.006c-2.083,0-4.167,0.027-6.249-0.017c-0.643-0.014-0.762,0.202-0.762,0.792
			c0.018,10.624,0.013,21.247,0.013,31.871c0,1.659-0.367,2.031-2.003,2.032c-2.266,0-4.531,0.002-6.797-0.001
			c-1.425-0.002-1.846-0.429-1.846-1.875c-0.001-10.624-0.008-21.247,0.017-31.871c0.002-0.732-0.145-0.954-0.923-0.951
			c-9.478,0.03-18.956-0.032-28.433,0.055c-2.541,0.022-4.422-0.65-5.339-3.165c0-1.354,0-2.708,0-4.062
			c0.195-0.521,0.579-0.827,1.091-1.025c0.798-0.309,1.59-0.637,2.389-0.943c0.218-0.083,0.439-0.26,0.612-0.131
			c-0.969-0.303-1.976-0.769-3.011-1.159C3.036,34.632,2.65,34.296,2.5,33.721c0-8.437,0-16.875,0-25.312
			c0.559-2.27,2.032-3.371,4.553-3.372c15.485-0.003,30.971-0.001,46.456-0.001c8.172,0,16.345,0.002,24.517-0.003
			c1.361,0,2.542,0.388,3.533,1.369c0.617,0.612,0.81,1.364,0.941,2.163C82.5,19.763,82.5,30.961,82.5,42.159z"/>
		<path fill="#D3E0F3" d="M7.656,38.563c1.111-0.552,2.279-0.968,3.438-1.402c0.321,0.096,0.449-0.233,0.689-0.316
			c0.783-0.296,1.53-0.702,2.3-0.855c-0.83-0.304-1.728-0.73-2.681-1.017c-1.198-0.52-2.396-1.041-3.595-1.561
			c-0.247-0.367-0.244-0.787-0.244-1.203C7.561,24.703,7.559,17.195,7.567,9.688c0.001-0.621-0.014-1.264,0.548-1.713
			c0.26-0.008,0.52-0.025,0.779-0.025c22.363-0.001,44.728-0.001,67.09,0c0.287,0,0.573,0.016,0.858,0.025
			c0.37,0.225,0.488,0.592,0.55,0.988c0.053,0.336,0.048,0.675,0.048,1.013c0.001,10.207,0.003,20.413-0.005,30.619
			c-0.001,0.716,0.104,1.484-0.583,2.01c-0.234,0.008-0.469,0.022-0.702,0.022c-22.47,0.001-44.938,0.001-67.408,0
			c-0.208,0-0.416-0.014-0.624-0.021c-0.335-0.257-0.468-0.629-0.49-1.021C7.57,40.578,7.514,39.569,7.656,38.563z"/>
		<path fill="#7FABF9" d="M45.158,61.379c0,5.023-0.013,10.046,0.015,15.068c0.004,0.674-0.149,0.916-0.859,0.882
			c-1.247-0.06-2.499-0.035-3.747-0.008c-0.513,0.012-0.735-0.104-0.734-0.682c0.016-10.229,0.016-20.456,0-30.685
			c-0.001-0.583,0.23-0.688,0.738-0.678c1.274,0.026,2.552,0.045,3.825-0.007c0.646-0.025,0.775,0.214,0.773,0.806
			C45.149,51.177,45.158,56.278,45.158,61.379z"/>
		<path fill="#7EABF9" d="M76.853,42.604c0.272-0.632,0.339-1.29,0.339-1.977c-0.011-10.252-0.011-20.505,0-30.758
			c0-0.662-0.074-1.292-0.349-1.896c2.67-0.186,3.027,0.204,3.017,2.754c-0.04,9.917-0.017,19.834-0.017,29.751
			c0,1.796-0.351,2.151-2.133,2.148C77.425,42.626,77.139,42.612,76.853,42.604z"/>
		<path fill="#FEFEFE" d="M8.115,7.974c-0.293,0.739-0.308,1.511-0.307,2.294c0.01,7.308,0.006,14.615,0.006,21.923
			c0,0.407-0.004,0.814-0.006,1.221c-0.051-0.008-0.105-0.007-0.152-0.027c-0.812-0.339-1.873-0.478-2.36-1.081
			c-0.472-0.583-0.128-1.651-0.13-2.505c-0.009-6.553-0.005-13.107-0.005-19.66c0-1.851,0.339-2.192,2.176-2.189
			C7.597,7.951,7.855,7.966,8.115,7.974z"/>
		<path fill="#FEFEFE" d="M7.656,38.563c0.271,0.25,0.144,0.577,0.153,0.869c0.032,1.065-0.117,2.146,0.31,3.173
			c-0.543,0.005-1.088,0.042-1.628,0.007c-0.757-0.049-1.228-0.534-1.32-1.284c-0.003-0.026-0.003-0.051-0.005-0.078
			c-0.148-1.655-0.149-1.656,1.405-2.279C6.93,38.828,7.294,38.699,7.656,38.563z"/>
		<path fill="#FDFDFE" d="M11.403,34.974c0.081-0.122,0.198-0.18,0.332-0.126c0.854,0.343,1.704,0.694,2.695,1.099
			c-0.983,0.436-1.819,0.81-2.706,1.062c-0.168,0.042-0.216-0.029-0.174-0.184C11.938,36.172,11.914,35.554,11.403,34.974z"/>
		<path fill="#F1F6FC" d="M11.551,36.824c0.058,0.062,0.115,0.123,0.174,0.184c-0.188,0.145-0.344,0.417-0.63,0.153
			C11.247,37.049,11.399,36.937,11.551,36.824z"/>
		<path fill="#005B1B" d="M65.159,34.399c0-2.605-0.004-5.074,0.003-7.542c0.002-0.394-0.275-0.439-0.55-0.532
			c-2.756-0.93-4.321-2.842-4.731-5.72c-0.402-2.826,1.646-6.094,4.399-6.876c0.714-0.203,1.008-0.519,0.887-1.242
			c-0.034-0.201-0.017-0.418,0.017-0.622c0.121-0.75,0.722-1.278,1.38-1.231c0.688,0.05,1.29,0.612,1.232,1.361
			c-0.079,1.011,0.225,1.455,1.245,1.869c2.549,1.034,3.934,3.062,4.084,5.85c0.05,0.925-0.403,1.47-1.184,1.527
			c-0.828,0.06-1.379-0.405-1.446-1.378c-0.085-1.248-0.59-2.242-1.535-3.035c-0.3-0.252-0.625-0.454-1.007-0.551
			c-0.208,0.135-0.127,0.336-0.128,0.5c-0.006,2.212,0.011,4.425-0.016,6.637c-0.006,0.501,0.156,0.72,0.637,0.88
			c4.772,1.588,6.246,7.143,2.888,10.901c-0.773,0.866-1.752,1.479-2.888,1.768c-0.506,0.129-0.686,0.375-0.631,0.873
			c0.03,0.283,0.021,0.574-0.008,0.858c-0.07,0.693-0.633,1.238-1.272,1.261c-0.632,0.023-1.401-0.522-1.318-1.176
			c0.169-1.334-0.531-1.73-1.603-2.217c-2.406-1.095-3.586-3.136-3.765-5.76c-0.04-0.601,0.192-1.078,0.742-1.344
			c0.479-0.232,0.973-0.195,1.395,0.144c0.391,0.314,0.487,0.767,0.53,1.252C62.662,32.499,63.505,33.647,65.159,34.399z"/>
		<path fill="#D3E0F3" d="M67.821,30.601c0-1.04,0.025-2.081-0.011-3.119c-0.021-0.597,0.174-0.594,0.606-0.343
			c1.353,0.784,2.062,1.946,2.055,3.51c-0.007,1.568-0.771,2.703-2.095,3.497c-0.44,0.264-0.574,0.15-0.563-0.348
			C67.837,32.732,67.821,31.666,67.821,30.601z"/>
		<path fill="#D3E0F3" d="M65.101,23.608c-1.463-0.447-2.519-1.853-2.591-3.433c-0.081-1.763,0.842-3.179,2.591-3.907
			C65.101,18.729,65.101,21.166,65.101,23.608z"/>
	</g>
	<g>
		<path d="M21.378,38.109c-1.833,0-2.354-1.487-1.9-2.509c0.377-0.848,2.664-2.586,2.664-2.586c6.408-6.1,9.304-9.342,9.342-13.125
			c0-2.548-1.235-4.903-4.979-4.903c-2.277,0-3.159,0.971-4.524,1.707c-2.169,1.168-2.696-1.164-1.884-1.977
			c1.267-1.267,4.208-2.548,7.103-2.548c5.405,0,7.683,3.706,7.683,7.296c0,4.632-3.358,8.377-8.647,13.473l-2.007,1.853v0.077
			c0,0,8.659-0.671,11.271,0c1.298,0.333,1.089,2.457,0,2.818C34.633,37.972,26.123,38.109,21.378,38.109z"/>
		<path d="M55.959,24.868c0,8.532-3.166,13.241-8.725,13.241c-4.902,0-8.224-4.594-8.301-12.894c0-8.416,3.63-13.048,8.726-13.048
			C52.947,12.167,55.959,16.877,55.959,24.868z M42.331,25.254c0,6.524,2.008,10.23,5.096,10.23c3.475,0,5.135-4.053,5.135-10.461
			c0-6.177-1.583-10.23-5.096-10.23C44.493,14.792,42.331,18.421,42.331,25.254z"/>
	</g>
</g>
</svg>
