<?xml version="1.0" encoding="utf-8"?>
<!-- Generator: Adobe Illustrator 16.0.0, SVG Export Plug-In . SVG Version: 6.00 Build 0)  -->
<!DOCTYPE svg PUBLIC "-//W3C//DTD SVG 1.1//EN" "http://www.w3.org/Graphics/SVG/1.1/DTD/svg11.dtd">
<svg version="1.1" id="Layer_1" xmlns="http://www.w3.org/2000/svg" xmlns:xlink="http://www.w3.org/1999/xlink" x="0px" y="0px"
	 width="85px" height="85px" viewBox="0 0 85 85" enable-background="new 0 0 85 85" xml:space="preserve">
<g>
	<path fill="#C73B2B" d="M70.85,58.587c-0.756,0.319-1.576,0.509-2.459,0.53c-1.287,0.031-2.59-0.113-3.859,0.103
		c-1.27,0.217-2.561,0.886-3.082,2.062c-0.924,2.073,0.711,4.28,1.043,6.291c0.289,1.73,0.123,3.603-1.484,4.634
		c-1.072,0.687-2.395,0.854-3.666,0.877c-4.309,0.074-8.582-1.297-11.83-4.174c-1.859-1.646-3.402-3.65-5.881-4.359
		c-2.914-0.832-6.143,0.025-8.916,0.979c-6.457,2.217-13.625,3.853-18.316-2.69c-2.768-3.857-2.889-9.426-0.291-13.399
		c2.699-4.129,9.154-8.035,4.873-13.476c-1.305-1.654-3.082-3.247-3.09-5.535c-0.029-7.909,13.484-1.451,17.355-3.758
		c7.057-4.207,9.355-12.785,18.084-14.794c3.895-0.895,8.094-0.383,11.658,1.421c2.406,1.218,4.627,3.143,5.705,5.664
		c1.367,3.195-0.43,6.146-1.08,9.249c-0.791,3.771,0.826,6.244,3.795,8.479c3.637,2.74,6.605,6.996,6.959,11.633
		C76.664,52.237,74.559,57.011,70.85,58.587L70.85,58.587z"/>
	<path fill="#B33B2B" d="M15.273,47.104c1.178-0.651,2.379-1.264,3.523-1.97c1.943-1.197,4.117-2.938,3.713-5.496
		c-0.15-0.956-0.602-1.71-1.352-2.316c-0.742-0.599-1.635-1.008-2.508-1.376c-0.848-0.356-1.709-0.675-2.549-1.043
		c0.299,0.355,0.6,0.706,0.877,1.06c4.123,5.235-1.701,9.05-4.551,13.01C13.285,48.229,14.285,47.65,15.273,47.104z M76.365,48.323
		c-0.354-4.639-3.322-8.892-6.957-11.633c-2.969-2.235-4.588-4.708-3.795-8.479c0.648-3.104,2.445-6.054,1.08-9.25
		c-0.824-1.929-2.318-3.505-4.049-4.687c0.256,0.305,0.498,0.62,0.717,0.957c0.709,1.092,1.148,2.341,1.246,3.642
		c0.109,1.476-0.242,2.942-0.846,4.283c-0.35,0.777-0.801,1.507-1.189,2.266c-0.346,0.683-0.67,1.377-0.945,2.092
		c-0.475,1.229-0.828,2.533-0.82,3.86c0.018,2.896,1.99,5.056,4.285,6.574c1.279,0.847,2.623,1.587,3.877,2.471
		c1.211,0.851,2.371,1.789,3.352,2.902c1.916,2.183,2.951,5.105,2.186,7.986c-0.709,2.673-2.871,5.386-5.799,5.606
		c-1.061,0.08-2.105-0.171-3.123-0.438c-1.203-0.315-2.396-0.687-3.625-0.898c-1.061-0.184-2.264-0.274-3.26,0.21
		c-1.07,0.519-1.793,1.735-1.854,2.908c-0.072,1.394,0.682,2.705,1.354,3.867c0.719,1.241,1.543,2.473,1.943,3.862
		c0.303,1.051,0.229,2.179-0.031,3.231c-0.154,0.639-0.42,1.29-0.898,1.757c-0.895,0.866-2.205,0.699-3.275,0.297
		c-1.598-0.602-3.018-1.645-4.346-2.692c-1.551-1.226-3.01-2.567-4.438-3.938c-1.182-1.137-2.334-2.306-3.52-3.439
		c-0.334-0.321-0.732-0.705-1.062-0.959c-0.182-0.14-0.369-0.229-0.582-0.326c-0.799-0.355-1.658-0.596-2.531-0.682
		c-3.365-0.331-6.461,1.472-9.289,3.051c-1.416,0.79-2.832,1.583-4.336,2.194c-1.188,0.481-2.418,0.846-3.678,1.083
		c-2.201,0.417-4.58,0.483-6.736-0.206c4.455,2.917,10.104,1.515,15.295-0.269c2.773-0.951,6.002-1.811,8.918-0.978
		c2.477,0.708,4.02,2.712,5.879,4.358c3.248,2.877,7.521,4.249,11.83,4.174c1.271-0.021,2.596-0.189,3.666-0.877
		c1.607-1.031,1.775-2.901,1.486-4.634c-0.334-2.01-1.969-4.217-1.045-6.289c0.523-1.18,1.812-1.849,3.082-2.063
		c1.271-0.217,2.572-0.071,3.859-0.103c0.883-0.022,1.703-0.212,2.459-0.531C74.559,57.011,76.664,52.236,76.365,48.323
		L76.365,48.323z"/>
	<path fill="#C73B2B" d="M79.547,64.76c-0.732-2.104-2.705-3.874-5.021-3.688c-2.299,0.185-4.777,1.429-5.977,3.445
		c-0.988,1.669-1.164,3.797-0.455,5.604c0.521,1.326,1.529,2.49,2.85,3.033c4.59,1.889,9.908-3.271,8.758-7.888
		C79.658,65.095,79.607,64.926,79.547,64.76L79.547,64.76z"/>
	<path fill="#B33B2B" d="M79.699,65.267c-0.041-0.172-0.092-0.341-0.152-0.507c-0.732-2.104-2.705-3.874-5.021-3.688
		c-2.299,0.185-4.777,1.429-5.977,3.445c-0.988,1.669-1.164,3.797-0.455,5.604c0.521,1.326,1.531,2.49,2.85,3.033
		C75.531,75.042,80.852,69.883,79.699,65.267L79.699,65.267z M70.725,69.877c-0.73-0.301-1.289-0.944-1.576-1.679
		c-0.393-1-0.295-2.178,0.252-3.101c0.662-1.115,2.035-1.804,3.305-1.905c1.283-0.103,2.373,0.876,2.779,2.04
		c0.033,0.093,0.061,0.187,0.084,0.281C76.203,68.066,73.264,70.922,70.725,69.877L70.725,69.877z M80.691,56.867
		c0.002,0,0.006-0.002,0.008-0.002c-0.014,0-0.023,0.002-0.033,0.002C80.674,56.867,80.684,56.867,80.691,56.867z"/>
	<path fill="#C73B2B" d="M82.406,55.179c-0.223-0.739-0.852-1.301-1.719-1.442c-1.086-0.176-2.607,0.396-3.033,1.477
		c-0.424,1.075,0.455,2.3,1.539,2.698c0.621,0.228,1.324,0.261,1.938,0.019C82.191,57.507,82.732,56.257,82.406,55.179
		L82.406,55.179z"/>
	<path fill="#B33B2B" d="M80.857,56.826c0.002-0.002,0.002-0.003,0.004-0.003l-0.02,0.01C80.85,56.83,80.854,56.829,80.857,56.826z"
		/>
	<path fill="#C73B2B" d="M12.615,38.283c-0.17-1.396-0.861-2.883-2.129-3.596c-2.168-1.219-5.125-0.051-6.75,1.562
		c-1.066,1.059-1.43,2.23-1.143,3.713c0.273,1.396,0.924,2.756,2.006,3.68c2.055,1.755,5.439,1.258,7.014-0.91
		C12.533,41.471,12.801,39.806,12.615,38.283L12.615,38.283z"/>
	<path fill="#B33B2B" d="M12.615,38.283c-0.17-1.396-0.861-2.883-2.129-3.596c-2.168-1.219-5.125-0.051-6.75,1.562
		c-1.066,1.059-1.43,2.23-1.143,3.713c0.273,1.396,0.924,2.756,2.006,3.68c2.055,1.755,5.439,1.258,7.014-0.91
		C12.533,41.471,12.801,39.806,12.615,38.283z M8.945,41.062c-0.961,1.323-3.027,1.626-4.281,0.555
		c-0.662-0.563-1.059-1.394-1.225-2.245c-0.176-0.905,0.047-1.62,0.695-2.268c0.992-0.982,2.799-1.697,4.119-0.954
		c0.775,0.438,1.195,1.346,1.301,2.196C9.67,39.276,9.506,40.292,8.945,41.062z"/>
	<path fill="#FF3B2B" d="M41.996,20.777c-0.547-0.652-1.418-0.399-1.992,0.074c-0.664,0.547-1.154,1.324-1.557,2.077
		c-0.018,0.03-0.029,0.062-0.045,0.094c-0.465,0.464-0.904,0.953-1.34,1.47c-0.863,1.034-1.807,1.863-2.953,2.573
		c-1.129,0.699-2.342,1.254-3.66,1.471c-1.363,0.223-2.84,0.04-4.168-0.308c-1.008-0.263-2.111-0.693-3.17-0.508
		c-0.697,0.122-1.457,0.609-1.662,1.322c-0.361,1.263,1.287,2.382,2.131,3.004c1.01,0.747,2.133,1.5,3.361,1.822
		c2.254,0.592,4.627,0.338,6.803-0.438c2.129-0.76,4.119-2.082,5.59-3.806c0.689-0.806,1.232-1.688,1.715-2.63
		c0.514-1.01,0.998-2.056,1.258-3.162C42.533,22.874,42.688,21.599,41.996,20.777z M47.299,15.679
		c-0.346-0.761-1.328-1.006-2.082-0.79c-0.232,0.066-0.455,0.162-0.66,0.278c-0.438,0.059-0.873,0.467-1.102,0.794
		c-0.393,0.568-0.633,1.362-0.473,2.051c0.072,0.323,0.275,0.655,0.578,0.812c0.361,0.192,0.754,0.221,1.156,0.155
		c0.766-0.122,1.504-0.619,1.998-1.202C47.188,17.22,47.635,16.413,47.299,15.679z"/>
</g>
</svg>
