<?xml version="1.0" encoding="utf-8"?>
<!-- Generator: Adobe Illustrator 16.0.0, SVG Export Plug-In . SVG Version: 6.00 Build 0)  -->
<!DOCTYPE svg PUBLIC "-//W3C//DTD SVG 1.1//EN" "http://www.w3.org/Graphics/SVG/1.1/DTD/svg11.dtd">
<svg version="1.1" id="Layer_1" xmlns="http://www.w3.org/2000/svg" xmlns:xlink="http://www.w3.org/1999/xlink" x="0px" y="0px"
	 width="85px" height="85px" viewBox="0 0 85 85" enable-background="new 0 0 85 85" xml:space="preserve">
<g>
	<path fill-rule="evenodd" clip-rule="evenodd" d="M14.511,45.142c0.129-0.558,0.521-0.885,1.049-0.883
		c1.924,0.009,3.857-0.188,5.77,0.098c2.93,0.438,5.086,2.893,5.212,5.85c0.026,0.624,0.028,1.25,0.005,1.874
		c-0.013,0.342,0.095,0.459,0.438,0.438c0.851-0.056,1.66,0.089,2.369,0.6c0.186,0.132,0.319,0.059,0.482-0.051
		c0.647-0.439,1.38-0.614,2.148-0.544c0.516,0.046,0.596-0.166,0.585-0.618c-0.022-0.986-0.059-1.977,0.195-2.948
		c0.721-2.752,3.054-4.656,5.891-4.706c2.551-0.044,5.103-0.046,7.653-0.002c3.423,0.06,5.977,2.678,6.125,6.217
		c0.026,0.623-0.184,1.35,0.07,1.847c0.272,0.532,1.115,0.015,1.633,0.319c0.876,0.514,1.729,0.546,2.61,0.007
		c0.185-0.113,0.453-0.104,0.685-0.118c1.014-0.058,1.052-0.054,1.007-1.104c-0.099-2.312,0.506-4.321,2.377-5.819
		c1.115-0.894,2.402-1.339,3.822-1.351c2.499-0.021,4.998-0.033,7.497,0.001c3.445,0.048,6.089,2.712,6.168,6.161
		c0.001,0.052,0.002,0.104,0.002,0.156c0.002,0.572-0.163,1.218,0.047,1.7c0.267,0.61,1.011,0.173,1.536,0.304
		c1.416,0.35,2.18,1.284,2.612,2.589c0,1.406,0,2.812,0,4.219c-0.144,1.094-0.755,1.859-1.71,2.347
		c-0.555,0.284-0.56,0.75-0.56,1.255c0.002,5.227-0.001,10.453,0.004,15.679c0.001,1.402-0.545,2.502-1.671,3.346
		c-0.47,0.353-1.032,0.306-1.533,0.499c-5.781,0-11.562,0-17.344,0c-2.083-0.506-3.163-1.874-3.186-4.053
		c-0.009-0.88-0.023-1.759,0.008-2.638c0.035-0.989,0.361-1.355,1.354-1.588c1.025,0.189,1.378,0.574,1.417,1.604
		c0.033,0.854-0.008,1.708,0.018,2.562c0.031,1.076,0.456,1.508,1.519,1.534c0.75,0.018,1.5,0.02,2.251-0.007
		c4.033-0.013,8.065-0.003,12.098-0.007c0.312-0.001,0.625,0.012,0.936-0.018c0.81-0.079,1.206-0.478,1.287-1.296
		c0.033-0.337,0.018-0.676,0.019-1.015c0.014-4.448-0.025-8.896,0.019-13.344c-0.031-0.442-0.029-0.886-0.016-1.327
		c0.018-0.57-0.253-0.808-0.803-0.782c-0.156,0.007-0.312-0.003-0.469-0.003c-5.207,0-10.413-0.001-15.62,0
		c-1.191,0.001-1.204,0.015-1.207,1.23c-0.005,2.135,0.016,4.27-0.01,6.404c-0.014,1.101-0.398,1.535-1.413,1.701
		c-0.977-0.179-1.376-0.644-1.394-1.739c-0.032-2.108-0.008-4.218-0.012-6.327c0-0.261,0.01-0.521-0.009-0.781
		c-0.042-0.584-0.495-1.062-1.018-1.085c-0.505-0.022-0.976,0.463-0.991,1.086c-0.031,1.275-0.01,2.552-0.011,3.827
		c-0.001,3.75,0,7.5-0.001,11.249c0,0.469,0,0.938-0.079,1.402c-0.348,2.044-1.288,3.024-3.28,3.409c-5.781,0-11.562,0-17.344,0
		c-2.071-0.504-3.104-1.815-3.191-4.104c-0.045-1.17-0.013-2.342-0.013-3.513c-0.002-3.852,0-7.702-0.001-11.554
		c0-0.286,0.016-0.573-0.019-0.857c-0.061-0.496-0.539-0.974-0.957-0.969c-0.45,0.006-0.979,0.509-1.035,0.997
		c-0.033,0.284-0.018,0.571-0.018,0.857c0,4.971-0.005,9.94,0.004,14.911c0.001,1.047-0.229,2.009-0.855,2.861
		c-0.585,0.799-1.386,1.228-2.353,1.369c-5.834,0-11.667,0-17.5,0c-2.229-0.674-3.043-1.781-3.045-4.155
		c-0.002-5.071-0.01-10.142,0.011-15.212c0.002-0.711-0.127-1.22-0.832-1.581C3.096,61.116,2.623,60.34,2.5,59.375
		c0-1.458,0-2.917,0-4.375c0.688-1.688,1.883-2.618,3.767-2.483c0.441,0.031,0.426-0.222,0.433-0.533
		c0.02-1.012-0.093-2.029,0.167-3.031c0.395-1.526,1.238-2.735,2.534-3.624c0.794-0.544,1.216-0.473,1.877,0.271
		c0.479,0.423,0.33,0.881,0.06,1.333c-0.177,0.296-0.457,0.496-0.721,0.708c-1.377,1.11-1.432,2.631-1.291,4.202
		c0.044,0.48,0.458,0.418,0.789,0.423c0.355,0.005,0.689-0.041,0.732-0.507c0.033-0.363,0.007-0.729,0.034-1.093
		c0.111-1.424,0.84-2.13,2.253-2.138c2.291-0.014,4.583-0.014,6.874-0.001c1.564,0.01,2.219,0.677,2.248,2.244
		c0.003,0.156,0,0.312,0.002,0.469c0.013,0.96,0.312,1.199,1.244,1.02c0.264-0.05,0.402-0.169,0.468-0.438
		c0.419-1.732-0.441-3.745-1.968-4.564c-0.659-0.354-1.372-0.468-2.112-0.47c-1.381-0.003-2.762,0.038-4.141-0.018
		C14.651,46.728,14.271,46.195,14.511,45.142z"/>
	<path fill-rule="evenodd" clip-rule="evenodd" d="M52.837,19.493c0.628,0.188,0.789,0.672,0.838,1.259
		c0.291,3.51-2.501,7.024-5.994,7.525c-0.31,0.044-0.62,0.077-0.932,0.104c-0.688,0.058-0.925,0.435-0.734,1.107
		c0.076,0.267,0.251,0.212,0.418,0.217c0.363,0.011,0.729-0.015,1.092,0.013c1.741,0.136,2.847,1.868,2.021,3.374
		c-1.646,3.005-3.36,5.974-5.142,8.9c-0.857,1.408-2.966,1.399-3.821-0.011c-1.776-2.929-3.491-5.899-5.136-8.904
		c-0.805-1.472,0.268-3.185,1.965-3.355c0.284-0.028,0.577-0.046,0.857-0.006c0.58,0.082,0.761-0.12,0.735-0.715
		c-0.021-0.475-0.138-0.59-0.614-0.618c-3.505-0.202-6.09-2.323-6.888-5.626c-0.471-1.945-0.105-3.762,0.919-5.46
		C34.02,14.65,35.608,12,37.232,9.371c0.269-0.434,0.307-0.778,0.066-1.211c-0.226-0.407-0.396-0.845-0.589-1.27
		c-0.983-2.167-0.543-3.396,1.571-4.389c0.364,0,0.729,0,1.094,0c0.52,0.133,1.018,0.295,1.498,0.565
		c1.066,0.598,2.187,0.598,3.253,0c0.48-0.27,0.979-0.432,1.499-0.565c0.364,0,0.729,0,1.093,0c2.113,0.995,2.653,2.276,1.538,4.37
		c-0.736,1.38-0.727,2.448,0.217,3.713c0.989,1.326,1.745,2.824,2.615,4.239c0.388,0.629,0.444,1.209-0.147,1.745
		c-0.539,0.555-1.117,0.57-1.669,0.035c-0.245-0.237-0.41-0.534-0.58-0.824c-0.944-1.61-1.944-3.187-2.905-4.787
		c-0.146-0.242-0.264-0.509-0.507-0.68c-1.081-0.227-2.174-0.104-3.259-0.095c-2.83,0.023-2.024-0.399-3.506,1.961
		c-1.355,2.159-2.666,4.345-3.948,6.547c-1.338,2.3-0.658,4.969,1.571,6.416c0.559,0.362,1.173,0.527,1.822,0.641
		c0.574,0.101,0.753-0.111,0.741-0.652c-0.023-1.171,0.063-2.335,0.345-3.479c0.815-1.768,2.192-2.546,4.07-2.303
		c1.562,0.202,2.73,1.452,3.053,3.205c0.157,0.854,0.141,1.708,0.133,2.565c-0.005,0.588,0.218,0.771,0.813,0.67
		c1.933-0.33,3.431-1.702,3.856-3.61c0.097-0.431,0.17-0.868,0.212-1.309C51.31,19.54,51.506,19.376,52.837,19.493z"/>
	<path fill-rule="evenodd" clip-rule="evenodd" d="M64.815,27.012c-1.462-1.633-3.171-2.747-5.162-3.465
		c-1.659-0.598-2.553-1.866-2.521-3.458c0.05-2.395,2.35-4.008,4.664-3.227c4.796,1.619,8.401,4.673,10.799,9.127
		c0.267,0.495,0.535,0.677,1.073,0.602c0.436-0.061,0.883-0.051,1.325-0.044c1.665,0.025,2.831,1.664,2.111,3.164
		c-1.503,3.133-3.076,6.236-4.719,9.299c-0.791,1.475-2.848,1.543-3.792,0.151c-1.924-2.837-3.795-5.713-5.624-8.613
		c-0.826-1.31-0.138-2.898,1.343-3.372C64.458,27.128,64.602,27.081,64.815,27.012z"/>
	<path fill-rule="evenodd" clip-rule="evenodd" d="M20.189,27.008c0.187,0.07,0.28,0.11,0.376,0.14
		c1.661,0.502,2.311,2.113,1.378,3.57c-1.778,2.778-3.579,5.544-5.411,8.288c-1.073,1.606-3.175,1.49-4.064-0.221
		c-1.519-2.924-3.009-5.864-4.473-8.815c-0.859-1.731,0.277-3.577,2.194-3.379c1.438,0.148,2.098-0.361,2.796-1.561
		c2.311-3.972,5.77-6.623,10.097-8.138c1.953-0.684,3.912,0.224,4.58,2.085c0.671,1.867-0.24,3.781-2.206,4.517
		C23.45,24.242,21.683,25.326,20.189,27.008z"/>
	<path fill-rule="evenodd" clip-rule="evenodd" fill="#7A6D79" d="M45.465,10.158c1.204,1.959,2.402,3.921,3.613,5.876
		c0.534,0.863,0.967,0.977,1.862,0.532c0.215,0.996,1.012,1.711,1.293,2.682c0.066,0.231,0.457,0.013,0.604,0.245
		c-1.268,0.037-1.437,0.213-1.474,1.527c-0.078,2.714-1.852,4.683-4.507,5.024c-0.572,0.073-0.868-0.023-0.83-0.711
		c0.047-0.853,0.024-1.717-0.053-2.568c-0.151-1.663-1.23-2.908-2.708-3.214c-1.613-0.334-3.088,0.376-3.913,1.886
		c-0.05,0.091-0.103,0.181-0.154,0.271c-0.456-0.131-0.35-0.526-0.359-0.834c-0.034-1.126,0.186-2.229,0.405-3.324
		c0.452-2.244,0.907-4.488,1.39-6.726c0.117-0.541,0.341-0.795,0.947-0.755C42.873,10.154,44.173,9.987,45.465,10.158z"/>
	<path fill-rule="evenodd" clip-rule="evenodd" fill="#796C78" d="M14.511,45.142c0.007,1.099,0.332,1.43,1.436,1.436
		c1.405,0.006,2.81-0.006,4.214,0.003c2.369,0.016,4.021,1.661,4.051,4.023c0.003,0.286,0.004,0.572,0,0.858
		c-0.017,1.188,0.151,1.046-1.024,1.044c-1.267-0.001-1.096,0.176-1.113-1.119c-0.005-0.338,0.009-0.677-0.013-1.014
		c-0.063-0.965-0.684-1.627-1.642-1.637c-2.549-0.025-5.098-0.025-7.646,0.002c-0.922,0.01-1.544,0.677-1.644,1.659
		c-0.036,0.361-0.011,0.728-0.016,1.092c-0.017,1.167,0.14,1.018-1.054,1.018c-1.161-0.001-0.954,0.146-1.028-1.053
		c-0.11-1.812,0.32-3.335,1.934-4.389c0.521-0.341,0.564-0.9,0.312-1.466c0.881-0.172,1.773-0.188,2.666-0.157
		C14.214,45.451,14.37,45.333,14.511,45.142z"/>
	<path fill-rule="evenodd" clip-rule="evenodd" fill="#0ED1B2" d="M77.652,64.22c0.008,4.838,0.024,9.676,0.018,14.514
		c-0.002,0.863-0.562,1.412-1.437,1.414c-4.422,0.007-8.844-0.01-13.266-0.018c-0.354-0.16-0.472-0.485-0.492-0.821
		c-0.063-1.027-0.147-2.058,0.05-3.08c0.272-0.376,0.52-0.077,0.721,0.066c0.58,0.413,1.215,0.54,1.914,0.535
		c2.132-0.017,4.264-0.006,6.396-0.007c0.26,0,0.52,0.005,0.778-0.035c1.52-0.234,2.436-1.717,1.74-3.078
		c-1.193-2.336-2.503-4.618-3.935-6.817c-0.868-1.336-2.706-1.191-3.656,0.214c-0.654,0.969-1.194,2.011-1.787,3.02
		c-0.462,0.784-0.875,1.598-1.385,2.352c-0.156,0.232-0.258,0.715-0.743,0.398c-0.165-0.285-0.163-0.6-0.164-0.911
		c-0.007-2.235-0.014-4.471,0.002-6.706c0.008-1.103,0.186-1.286,1.267-1.289c4.315-0.012,8.63-0.007,12.944-0.002
		C76.98,63.968,77.354,63.948,77.652,64.22z"/>
	<path fill-rule="evenodd" clip-rule="evenodd" fill="#60B6FE" d="M25.904,64.211c0.009,4.808,0.024,9.614,0.02,14.422
		c0,0.949-0.566,1.516-1.508,1.517c-4.391,0.005-8.782-0.011-13.174-0.019c-0.494-0.237-0.597-0.72-0.629-1.174
		c-0.135-1.91-0.09-3.823-0.028-5.735c0.004-0.129,0.063-0.249,0.14-0.355c0.553-0.121,0.521,0.383,0.641,0.655
		c0.714,1.622,1.891,2.747,3.587,3.242c3.006,0.877,6.027-0.571,7.046-3.651c0.957-2.896-0.631-6.109-3.501-7.067
		c-2.907-0.972-5.805,0.321-7.128,3.153c-0.118,0.256-0.107,0.806-0.683,0.54c-0.283-0.706-0.132-1.442-0.153-2.165
		c-0.024-0.779-0.018-1.562-0.001-2.342c0.022-1.083,0.191-1.255,1.299-1.262c2.16-0.015,4.32-0.005,6.48-0.005
		s4.321-0.005,6.481,0.004C25.176,63.971,25.582,63.91,25.904,64.211z"/>
	<path fill-rule="evenodd" clip-rule="evenodd" fill="#FDE35A" d="M51.736,78.956c-0.093,0.819-0.63,1.187-1.376,1.189
		c-4.442,0.011-8.885-0.008-13.328-0.016c-0.448-0.328-0.545-0.818-0.549-1.318c-0.039-4.603-0.027-9.205-0.006-13.808
		c0.004-0.809,0.221-1.021,1.043-1.026c4.473-0.026,8.945-0.022,13.418-0.002c0.455,0.003,0.867,0.049,0.864,0.713
		c-0.02,4.681-0.004,9.361-0.012,14.042C51.791,78.812,51.759,78.882,51.736,78.956z"/>
	<path fill-rule="evenodd" clip-rule="evenodd" fill="#0AB59E" d="M62.673,76.043c0.08,1.363-0.297,2.76,0.295,4.087
		c-0.806,0.008-1.61,0.038-2.415,0.02c-0.906-0.021-1.451-0.562-1.478-1.469c-0.026-0.909-0.005-1.818-0.008-2.729
		c-0.005-1.051-0.199-1.298-1.225-1.575c-0.002-1.027-0.003-2.056-0.005-3.083c0.947-0.178,1.226-0.501,1.228-1.47
		c0.006-2.392,0.018-4.784-0.009-7.176c-0.007-0.566,0.08-0.805,0.743-0.801c5.72,0.029,11.438,0.025,17.158,0.003
		c0.582-0.002,0.793,0.145,0.732,0.734c-0.056,0.54-0.029,1.089-0.038,1.635c-4.706-0.001-9.413,0.009-14.119-0.017
		c-0.651-0.004-0.911,0.119-0.897,0.846c0.048,2.392,0.016,4.784,0.021,7.176c0.001,0.251-0.083,0.525,0.135,0.74
		c0.063,0.089,0.09,0.195,0.043,0.287c-0.426,0.846-0.45,1.702-0.101,2.578C62.762,75.897,62.715,75.978,62.673,76.043z"/>
	<path fill-rule="evenodd" clip-rule="evenodd" fill="#FED05B" d="M51.736,78.956c-0.008-4.602-0.032-9.203-0.006-13.805
		c0.005-0.75-0.197-0.957-0.949-0.95c-4.394,0.035-8.787,0.029-13.182,0.004c-0.647-0.004-0.904,0.114-0.898,0.843
		c0.035,4.523,0.025,9.048,0.007,13.572c-0.002,0.541,0.209,1.009,0.324,1.51c-0.779,0.009-1.56,0.036-2.339,0.021
		c-0.881-0.017-1.402-0.509-1.502-1.371c-0.021-0.18-0.015-0.363-0.015-0.546c-0.001-5.203,0.01-10.407-0.015-15.61
		c-0.003-0.61,0.151-0.777,0.771-0.774c5.724,0.024,11.447,0.015,17.172,0.014c0.393,0,0.737-0.083,0.734,0.563
		c-0.027,5.359-0.013,10.72-0.017,16.079C51.822,78.655,51.767,78.807,51.736,78.956z"/>
	<path fill-rule="evenodd" clip-rule="evenodd" fill="#26A5FD" d="M10.897,72.807c-0.24,0.572-0.116,1.174-0.101,1.756
		c0.043,1.569-0.167,3.144,0.116,4.708c0.057,0.315,0.189,0.585,0.329,0.86c-0.832,0.008-1.664,0.04-2.495,0.017
		c-0.864-0.024-1.419-0.565-1.421-1.431c-0.014-5.463-0.005-10.926-0.018-16.389c-0.001-0.392,0.15-0.471,0.503-0.471
		c5.88,0.008,11.759,0.009,17.638,0c0.368-0.001,0.509,0.104,0.488,0.483c-0.032,0.622-0.023,1.247-0.033,1.871
		c-4.751,0-9.502,0.013-14.253-0.015c-0.668-0.003-0.913,0.148-0.883,0.858c0.058,1.348,0.014,2.699,0.02,4.049
		c0.002,0.252-0.073,0.524,0.124,0.747C11.085,70.837,11.114,71.822,10.897,72.807z"/>
	<path fill-rule="evenodd" clip-rule="evenodd" fill="#60B6FE" d="M8.585,54.885c3.226-0.01,6.45-0.023,9.676-0.028
		c2.966-0.005,5.932-0.005,8.897,0.001c0.928,0.002,1.224,0.292,1.238,1.201c0.013,0.78,0.017,1.562-0.002,2.341
		c-0.019,0.792-0.319,1.115-1.082,1.115C21.069,59.514,14.827,59.5,8.584,59.49c-0.312-0.14-0.361-0.425-0.369-0.713
		c-0.031-1.061-0.031-2.121,0-3.181C8.224,55.309,8.271,55.022,8.585,54.885z"/>
	<path fill-rule="evenodd" clip-rule="evenodd" fill="#FDE35A" d="M53.744,55.001c0.433,0.13,0.509,0.476,0.51,0.857
		c0.004,0.886,0.004,1.771,0.001,2.656c-0.002,0.382-0.074,0.729-0.507,0.861c-0.244,0.136-0.511,0.071-0.766,0.071
		c-5.938,0.005-11.875,0.004-17.812,0.003c-0.996,0-1.17-0.156-1.196-1.167c-0.022-0.833-0.044-1.668,0.019-2.499
		c0.04-0.517,0.226-0.869,0.862-0.868c6.197,0.014,12.396,0.008,18.593,0.009C53.555,54.925,53.653,54.943,53.744,55.001z"/>
	<path fill-rule="evenodd" clip-rule="evenodd" fill="#0ED1B2" d="M79.583,54.975c0.46,0.126,0.567,0.483,0.57,0.895
		c0.006,0.878,0.005,1.756,0,2.634c-0.002,0.411-0.106,0.769-0.563,0.899c-0.255,0.084-0.518,0.047-0.776,0.047
		c-5.91,0.002-11.82,0.002-17.73,0.001c-1.022,0-1.16-0.129-1.178-1.166c-0.014-0.833-0.024-1.667,0.012-2.5
		c0.022-0.536,0.22-0.868,0.849-0.866c6.196,0.013,12.394,0.002,18.59,0.01C79.436,54.928,79.508,54.955,79.583,54.975z"/>
	<path fill-rule="evenodd" clip-rule="evenodd" fill="#796C78" d="M34.886,51.127c-0.026-0.553,0.02-1.176,0.197-1.779
		c0.484-1.646,1.971-2.753,3.747-2.765c2.396-0.017,4.79-0.011,7.186-0.003c2.234,0.007,3.761,1.377,4.042,3.615
		c0.032,0.258,0.06,0.519,0.053,0.777c-0.048,1.822,0.369,1.489-1.558,1.545c-0.431,0.012-0.616-0.109-0.585-0.566
		c0.033-0.492,0.022-0.99,0.001-1.483c-0.045-1.031-0.706-1.727-1.725-1.736c-2.499-0.021-4.998-0.021-7.497,0.001
		c-1.023,0.009-1.68,0.709-1.718,1.739c-0.016,0.416-0.046,0.839,0.005,1.248c0.083,0.673-0.195,0.826-0.827,0.806
		C34.886,52.481,34.885,52.516,34.886,51.127z"/>
	<path fill-rule="evenodd" clip-rule="evenodd" fill="#796C78" d="M68.438,48.722c-1.223,0-2.444-0.013-3.666,0.004
		c-1.185,0.016-1.808,0.652-1.844,1.839c-0.005,0.156-0.002,0.312-0.002,0.468c-0.003,1.573-0.195,1.73-1.774,1.479
		c-0.201-0.032-0.362-0.062-0.358-0.305c0.016-1.188-0.168-2.403,0.435-3.516c0.731-1.351,1.887-2.076,3.407-2.101
		c2.495-0.041,4.992-0.039,7.487-0.003c2.193,0.032,3.794,1.696,3.832,3.897c0.005,0.285,0.002,0.571,0.002,0.857
		c0,1.169-0.003,1.121-1.14,1.185c-0.741,0.042-1.059-0.152-0.94-0.928c0.054-0.355,0.026-0.729,0.002-1.091
		c-0.074-1.117-0.741-1.768-1.853-1.783C70.83,48.708,69.634,48.722,68.438,48.722z"/>
	<path fill-rule="evenodd" clip-rule="evenodd" fill="#0AB59E" d="M79.583,54.975c-5.85,0.009-11.699,0.009-17.55,0.029
		c-2.178,0.008-1.849-0.316-1.877,1.914c-0.006,0.468-0.002,0.936-0.001,1.403c0.002,1.051,0.003,1.053,1.026,1.053
		c5.798,0.001,11.597,0,17.395,0.002c0.338,0,0.676,0.018,1.013,0.026c-0.222,0.197-0.494,0.125-0.746,0.125
		c-6.974,0.001-13.946-0.003-20.919-0.008c-1.031-0.001-1.312-0.271-1.326-1.274c-0.009-0.702-0.009-1.404,0-2.107
		c0.013-1.003,0.297-1.281,1.32-1.282c5.802-0.006,11.604-0.008,17.406-0.011c1.171-0.001,2.342-0.005,3.513,0.003
		C79.089,54.85,79.361,54.777,79.583,54.975z"/>
	<path fill-rule="evenodd" clip-rule="evenodd" fill="#FED05B" d="M53.744,55.001c-6.166,0-12.333-0.001-18.5,0
		c-0.95,0-1.019,0.067-1.024,1.018c-0.005,0.807,0.021,1.614-0.007,2.42c-0.024,0.692,0.231,0.952,0.958,0.95
		c6.192-0.024,12.385-0.013,18.577-0.013c-0.238,0.237-0.541,0.142-0.816,0.143c-6.949,0.004-13.899,0.002-20.849,0
		c-1.101,0-1.335-0.23-1.341-1.312c-0.003-0.702-0.005-1.405,0.001-2.108c0.008-0.979,0.268-1.24,1.256-1.241
		c3.384-0.005,6.768-0.004,10.151-0.004c3.566-0.001,7.132-0.003,10.698,0.004C53.149,54.858,53.478,54.757,53.744,55.001z"/>
	<path fill-rule="evenodd" clip-rule="evenodd" fill="#26A5FD" d="M8.585,54.885c-0.254,1.535-0.252,3.07-0.001,4.605
		c-0.906,0.01-1.813,0.028-2.72,0.025c-0.653-0.002-1.015-0.336-1.019-1.005c-0.006-0.882-0.005-1.763,0-2.645
		c0.004-0.671,0.371-1.001,1.021-1.005C6.772,54.854,7.679,54.876,8.585,54.885z"/>
	<path fill-rule="evenodd" clip-rule="evenodd" fill="#FEFEFE" d="M68.355,52.513c-0.882,0-1.766-0.031-2.646,0.01
		c-0.662,0.03-0.448-0.429-0.444-0.731c0.005-0.301-0.228-0.756,0.437-0.745c1.79,0.027,3.581,0.026,5.372,0
		c0.642-0.01,0.459,0.42,0.455,0.737c-0.004,0.31,0.204,0.763-0.448,0.737C70.173,52.486,69.264,52.513,68.355,52.513z"/>
	<path fill-rule="evenodd" clip-rule="evenodd" fill="#FEFEFE" d="M42.502,52.512c-0.883,0-1.768-0.037-2.647,0.013
		c-0.632,0.037-0.502-0.367-0.479-0.698c0.023-0.321-0.241-0.799,0.475-0.783c1.765,0.037,3.531,0.038,5.296-0.001
		c0.714-0.016,0.461,0.456,0.479,0.78c0.017,0.324,0.164,0.739-0.475,0.702C44.27,52.474,43.385,52.512,42.502,52.512z"/>
	<path fill-rule="evenodd" clip-rule="evenodd" fill="#FEFEFE" d="M16.642,52.513c-0.908,0-1.817-0.025-2.725,0.008
		c-0.653,0.024-0.44-0.431-0.446-0.74c-0.006-0.317-0.183-0.745,0.458-0.735c1.79,0.028,3.581,0.022,5.372,0.004
		c0.729-0.008,0.393,0.515,0.435,0.823c0.042,0.31,0.136,0.682-0.447,0.652C18.408,52.479,17.523,52.513,16.642,52.513z"/>
	<path fill-rule="evenodd" clip-rule="evenodd" fill="#FD5693" d="M42.501,40.685c-0.527-0.912-0.989-1.712-1.451-2.512
		c-1.066-1.843-2.127-3.689-3.203-5.526c-0.251-0.427-0.285-0.644,0.329-0.604c0.595,0.038,1.195,0.017,1.793,0.005
		c0.945-0.018,1.347-0.407,1.356-1.407c0.021-2.184,0.009-4.368,0.011-6.552c0-0.364-0.016-0.729,0.011-1.092
		c0.055-0.752,0.504-1.18,1.189-1.162c0.65,0.018,1.093,0.431,1.111,1.157c0.034,1.325,0.015,2.652,0.017,3.978
		c0.002,1.222-0.015,2.444,0.009,3.666c0.021,1.03,0.413,1.401,1.431,1.414c0.624,0.007,1.248,0.005,1.872,0
		c0.28-0.002,0.495,0.031,0.291,0.384C45.701,35.146,44.135,37.857,42.501,40.685z"/>
	<path fill-rule="evenodd" clip-rule="evenodd" fill="#685E68" d="M45.465,10.158c-1.3,0-2.6,0.011-3.899-0.004
		c-0.396-0.004-0.562,0.085-0.657,0.533c-0.641,3.057-1.344,6.102-1.807,9.192c-0.09,0.594-0.178,1.233,0.097,1.829
		c-0.265,1.148-0.285,2.318-0.236,3.483c0.03,0.719-0.133,0.955-0.914,0.826c-3.759-0.619-5.529-4.332-3.572-7.583
		c1.581-2.626,3.175-5.244,4.76-7.868c0.176-0.292,0.313-0.56,0.749-0.555c1.716,0.021,3.432,0.004,5.147,0.002
		C45.263,10.012,45.392,10.022,45.465,10.158z"/>
	<path fill-rule="evenodd" clip-rule="evenodd" fill="#796C78" d="M41.111,5.927c1.709,0.316,3.303,0.051,4.753-0.94
		c0.133-0.09,0.275-0.179,0.427-0.069c0.176,0.126,0.17,0.321,0.094,0.494c-0.305,0.688-0.621,1.371-0.936,2.055
		c-0.11,0.241-0.333,0.213-0.537,0.212c-1.272-0.007-2.545-0.017-3.817-0.027c-0.382-0.373-0.386-0.867-0.414-1.345
		C40.665,6.032,40.721,5.771,41.111,5.927z"/>
	<path fill-rule="evenodd" clip-rule="evenodd" fill="#675D67" d="M41.111,5.927c-0.47,0.068-0.201,0.373-0.179,0.585
		c0.042,0.381,0.106,0.759,0.162,1.138c-1.413,0.073-1.432,0.082-2.044-1.305c-0.194-0.44-0.779-0.957-0.331-1.374
		c0.354-0.329,0.761,0.337,1.185,0.473C40.315,5.577,40.71,5.764,41.111,5.927z"/>
	<path fill-rule="evenodd" clip-rule="evenodd" fill="#FD5693" d="M74.934,28.882c-1.521,3.004-2.982,5.888-4.493,8.871
		c-1.836-2.812-3.605-5.521-5.442-8.334c0.661-0.032,1.194-0.049,1.727-0.087c1.507-0.108,1.935-0.94,1.121-2.192
		c-1.73-2.662-4.105-4.526-7.052-5.68c-0.193-0.076-0.396-0.128-0.584-0.217c-0.618-0.292-0.892-0.878-0.659-1.48
		c0.244-0.632,0.749-0.849,1.386-0.706c0.378,0.085,0.745,0.229,1.104,0.379c4.04,1.683,7.016,4.489,8.896,8.447
		c0.506,1.065,0.748,1.195,1.944,1.101C73.518,28.932,74.159,28.918,74.934,28.882z"/>
	<path fill-rule="evenodd" clip-rule="evenodd" fill="#FD5693" d="M20.006,29.414c-1.842,2.821-3.602,5.517-5.443,8.338
		c-1.504-2.965-2.962-5.84-4.456-8.786c0.68,0,1.285-0.034,1.886,0.007c1.401,0.097,1.52,0.03,2.151-1.258
		c2.033-4.146,5.231-6.997,9.575-8.559c0.832-0.299,1.473-0.076,1.722,0.558c0.272,0.691-0.056,1.326-0.896,1.628
		c-1.732,0.622-3.302,1.517-4.701,2.713c-1.076,0.92-1.993,1.98-2.751,3.174c-0.718,1.13-0.29,1.974,1.058,2.091
		C18.716,29.371,19.286,29.379,20.006,29.414z"/>
	<path fill-rule="evenodd" clip-rule="evenodd" d="M62.673,76.043c-0.622-1.052-0.504-2.074,0.119-3.078
		c1.099-1.885,2.198-3.771,3.296-5.656c1.228-2.109,3.356-2.124,4.578-0.024c1.138,1.954,2.271,3.91,3.391,5.874
		c1.124,1.972,0.03,3.853-2.237,3.86c-2.238,0.007-4.477-0.023-6.714,0.013C64.13,77.047,63.322,76.77,62.673,76.043z"/>
	<path fill-rule="evenodd" clip-rule="evenodd" d="M10.897,72.807c-0.204-0.986-0.182-1.972,0.015-2.955
		c0.812-2.399,2.41-3.896,4.954-4.298c3.161-0.501,6.19,1.888,6.601,5.204c0.384,3.096-2.056,6.154-5.136,6.439
		C14.254,77.483,11.958,75.916,10.897,72.807z"/>
	<path fill-rule="evenodd" clip-rule="evenodd" d="M42.523,65.91c0.988,0,1.978-0.019,2.966,0.005
		c1.418,0.033,2.46,1.062,2.479,2.479c0.025,1.978,0.023,3.956,0.001,5.934c-0.017,1.443-1.075,2.508-2.525,2.528
		c-1.951,0.028-3.904,0.025-5.855,0.002c-1.492-0.019-2.547-1.086-2.56-2.576c-0.018-1.951-0.02-3.903,0.002-5.854
		c0.016-1.455,1.063-2.476,2.525-2.517c0.053-0.002,0.104-0.001,0.156-0.001C40.649,65.909,41.586,65.909,42.523,65.91z"/>
	<path fill-rule="evenodd" clip-rule="evenodd" fill="#F4F7F8" d="M68.382,68.014c1.301,2.253,2.54,4.401,3.823,6.624
		c-2.562,0-5.021,0-7.631,0C65.839,72.438,67.071,70.293,68.382,68.014z"/>
	<path fill-rule="evenodd" clip-rule="evenodd" fill="#F4F7F8" d="M16.608,74.895c-1.96-0.002-3.507-1.547-3.511-3.508
		c-0.005-1.947,1.551-3.533,3.484-3.553c1.952-0.021,3.58,1.606,3.567,3.564C20.138,73.336,18.557,74.896,16.608,74.895z"/>
	<path fill-rule="evenodd" clip-rule="evenodd" fill="#F4F7F8" d="M45.633,71.455c0,0.833-0.022,1.667,0.009,2.499
		c0.017,0.45-0.143,0.579-0.581,0.573c-1.718-0.021-3.438-0.018-5.155-0.001c-0.398,0.004-0.551-0.105-0.547-0.526
		c0.02-1.744,0.021-3.489-0.001-5.233c-0.005-0.424,0.147-0.524,0.542-0.521c1.744,0.017,3.489,0.02,5.232-0.002
		c0.439-0.006,0.517,0.174,0.508,0.556C45.618,69.685,45.633,70.57,45.633,71.455z"/>
</g>
</svg>
