<?xml version="1.0" encoding="utf-8"?>
<!-- Generator: Adobe Illustrator 16.0.0, SVG Export Plug-In . SVG Version: 6.00 Build 0)  -->
<!DOCTYPE svg PUBLIC "-//W3C//DTD SVG 1.1//EN" "http://www.w3.org/Graphics/SVG/1.1/DTD/svg11.dtd">
<svg version="1.1" id="Layer_1" xmlns="http://www.w3.org/2000/svg" xmlns:xlink="http://www.w3.org/1999/xlink" x="0px" y="0px"
	 width="85px" height="85px" viewBox="0 0 85 85" enable-background="new 0 0 85 85" xml:space="preserve">
<g>
	<path fill="#E6E6E5" d="M57.98,21.347c0,2.09-1.678,3.785-3.746,3.785H30.766c-2.068,0-3.746-1.695-3.746-3.785v-1.01
		c0-2.09,1.676-3.787,3.746-3.787h23.469c2.068,0,3.746,1.695,3.746,3.787V21.347L57.98,21.347z"/>
	<path fill="#FEE992" d="M26.051,18.462c-1.289,0-2.334-1.055-2.334-2.354V9.749c0-3.246,2.617-5.887,5.834-5.887h25.898
		c3.217,0,5.834,2.641,5.834,5.887v6.359c0,1.299-1.045,2.354-2.334,2.354H26.051z"/>
	<path fill="#D5ECE9" d="M63.023,77.249c0,2.146-1.723,3.891-3.848,3.891H25.824c-2.125,0-3.848-1.742-3.848-3.891V27.981
		c0-2.148,1.723-3.891,3.848-3.891h33.352c2.125,0,3.848,1.742,3.848,3.891V77.249L63.023,77.249L63.023,77.249z"/>
	<path fill="#FFFFFF" d="M57.893,50.409c0-2.752-2.207-4.982-4.93-4.982c-2.355,0-4.318,1.668-4.811,3.896
		c-0.441-2.244-2.398-3.934-4.748-3.934c-2.027,0-3.764,1.264-4.482,3.053c-0.064-3.242-2.684-5.854-5.906-5.854
		c-3.145,0-5.715,2.484-5.898,5.617h-0.01V75.95h30.785C57.893,75.952,57.893,50.511,57.893,50.409z"/>
	<g>
		<ellipse fill="#CDCCCC" cx="34.152" cy="53.462" rx="2.482" ry="2.508"/>
		<ellipse fill="#CDCCCC" cx="40.061" cy="62.061" rx="2.482" ry="2.509"/>
		<ellipse fill="#CDCCCC" cx="32.734" cy="69.943" rx="2.482" ry="2.509"/>
		<ellipse fill="#CDCCCC" cx="51.289" cy="69.943" rx="2.48" ry="2.509"/>
		<ellipse fill="#CDCCCC" cx="48.334" cy="56.087" rx="2.482" ry="2.508"/>
	</g>
	<path fill="#FFFFFF" d="M50.547,31.772c2.482,1.027,3.316,1.861,4.346,4.346c1.027-2.482,1.861-3.316,4.346-4.346
		c-2.482-1.029-3.316-1.863-4.346-4.346C53.863,29.909,53.029,30.743,50.547,31.772z"/>
	<circle fill="#FFFFFF" cx="57.666" cy="38.783" r="1.917"/>
	<path fill="#010101" d="M44.201,7.983h-3.402c-0.752,0-1.363,0.609-1.363,1.361s0.611,1.361,1.363,1.361h3.402
		c0.754,0,1.361-0.609,1.361-1.361C45.562,8.591,44.955,7.983,44.201,7.983z"/>
	<path fill="#010101" d="M63.023,31.694c0.752,0,1.361-0.611,1.361-1.363v-2.35c0-2.84-2.248-5.158-5.043-5.248v-2.932
		c1.854-0.197,3.303-1.777,3.303-3.695V9.749c0-3.998-3.229-7.25-7.195-7.25H29.551c-3.969,0-7.197,3.252-7.197,7.25v6.357
		c0,1.918,1.449,3.498,3.303,3.695v2.932c-2.795,0.09-5.043,2.408-5.043,5.248v49.268c0,2.896,2.338,5.252,5.211,5.252h33.352
		c2.873,0,5.211-2.355,5.211-5.252V37.052c0-0.752-0.609-1.361-1.363-1.361c-0.752,0-1.361,0.609-1.361,1.361v40.197
		c0,1.395-1.115,2.527-2.484,2.527H25.826c-1.371,0-2.486-1.135-2.486-2.527V27.981c0-1.395,1.117-2.527,2.486-2.527h33.352
		c1.371,0,2.486,1.135,2.486,2.527v2.35C61.662,31.085,62.271,31.694,63.023,31.694z M58.949,17.101h-18.9
		c-0.752,0-1.361,0.609-1.361,1.361s0.609,1.363,1.361,1.363h16.57v2.904H28.383v-2.904h4.947c0.752,0,1.361-0.611,1.361-1.363
		s-0.609-1.361-1.361-1.361h-7.279c-0.535,0-0.971-0.445-0.971-0.992V9.749c0-2.494,2.006-4.523,4.471-4.523h25.898
		c2.467,0,4.473,2.029,4.473,4.523v6.359C59.92,16.655,59.484,17.101,58.949,17.101z"/>
	<path fill="#010101" d="M52.963,44.065c-1.875,0-3.609,0.857-4.779,2.23c-1.148-1.395-2.883-2.268-4.777-2.268
		c-1.436,0-2.781,0.49-3.852,1.346c-1.186-2.447-3.686-4.145-6.539-4.145c-3.781,0-6.926,2.93-7.244,6.705
		c-0.018,0.09-0.027,0.182-0.027,0.271v27.746c0,0.752,0.609,1.361,1.361,1.361h30.787c0.752,0,1.361-0.609,1.361-1.361V50.409
		C59.254,46.911,56.432,44.065,52.963,44.065z M56.529,74.589H28.469V48.384c0.004-0.031,0.008-0.064,0.01-0.098
		c0.141-2.43,2.133-4.334,4.537-4.334c2.457,0,4.496,2.027,4.545,4.518c0.012,0.646,0.479,1.197,1.115,1.312
		c0.637,0.117,1.268-0.23,1.51-0.83c0.537-1.338,1.801-2.201,3.221-2.201c1.652,0,3.088,1.193,3.41,2.834
		c0.125,0.635,0.678,1.092,1.322,1.102c0.004,0,0.01,0,0.014,0c0.641,0,1.193-0.445,1.332-1.07c0.359-1.639,1.822-2.828,3.479-2.828
		c1.967,0,3.566,1.625,3.566,3.623V74.589L56.529,74.589L56.529,74.589z"/>
</g>
</svg>
