<?xml version="1.0" encoding="utf-8"?>
<!-- Generator: Adobe Illustrator 16.0.0, SVG Export Plug-In . SVG Version: 6.00 Build 0)  -->
<!DOCTYPE svg PUBLIC "-//W3C//DTD SVG 1.1//EN" "http://www.w3.org/Graphics/SVG/1.1/DTD/svg11.dtd">
<svg version="1.1" id="Layer_1" xmlns="http://www.w3.org/2000/svg" xmlns:xlink="http://www.w3.org/1999/xlink" x="0px" y="0px"
	 width="85px" height="85px" viewBox="0 0 85 85" enable-background="new 0 0 85 85" xml:space="preserve">
<g>
	<path fill="#FFFFFF" d="M63.937,3.713H21.063l0,0c6.834,0,12.373,9.279,12.373,20.727h-0.02v56.85H76.31v-56.85
		C76.31,12.992,70.771,3.713,63.937,3.713z"/>
	<path fill="#D8D8D8" d="M63.937,3.713h-3.232c6.834,0,12.373,9.279,12.373,20.727v56.85h3.232v-56.85
		C76.31,12.992,70.771,3.713,63.937,3.713z"/>
	<path fill="#FFFFFF" d="M33.438,24.439c0,11.447-5.541,20.727-12.373,20.727c-6.834,0-12.373-9.279-12.373-20.727
		c0-11.449,5.539-20.727,12.373-20.727C27.897,3.713,33.438,12.992,33.438,24.439z"/>
	<path fill="#513A2B" d="M25.743,24.439c0,4.326-2.096,7.836-4.678,7.836c-2.584,0-4.678-3.51-4.678-7.836
		c0-4.328,2.094-7.836,4.678-7.836C23.647,16.604,25.743,20.111,25.743,24.439z"/>
	<path fill="#D8D8D8" d="M21.065,45.166h12.352V25.609C33.054,36.512,27.665,45.166,21.065,45.166z"/>
	<g>
		<path fill="#2F2F31" d="M26.956,24.439c0-5.074-2.59-9.047-5.893-9.047c-3.301,0-5.889,3.973-5.889,9.047
			c0,5.072,2.588,9.047,5.889,9.047C24.368,33.486,26.956,29.514,26.956,24.439z M17.599,24.439c0-3.904,1.826-6.623,3.465-6.623
			c1.641,0,3.467,2.719,3.467,6.623c0,3.902-1.826,6.623-3.467,6.623C19.425,31.062,17.599,28.342,17.599,24.439z"/>
		<path fill="#2F2F31" d="M48.761,23.75h1.529c0.668,0,1.211-0.543,1.211-1.211c0-0.672-0.543-1.213-1.211-1.213h-1.529
			c-0.668,0-1.211,0.541-1.211,1.213C47.55,23.207,48.093,23.75,48.761,23.75z"/>
		<path fill="#2F2F31" d="M43.415,23.75h1.525c0.67,0,1.213-0.543,1.213-1.211c0-0.672-0.543-1.213-1.213-1.213h-1.525
			c-0.67,0-1.213,0.541-1.213,1.213C42.202,23.207,42.745,23.75,43.415,23.75z"/>
		<path fill="#2F2F31" d="M54.11,23.75h1.527c0.668,0,1.211-0.543,1.211-1.211c0-0.672-0.543-1.213-1.211-1.213h-1.529
			c-0.668,0-1.211,0.541-1.211,1.213C52.897,23.207,53.44,23.75,54.11,23.75z"/>
		<path fill="#2F2F31" d="M38.065,23.75h1.527c0.67,0,1.213-0.543,1.213-1.211c0-0.672-0.543-1.213-1.213-1.213h-1.527
			c-0.67,0-1.211,0.541-1.211,1.213C36.854,23.207,37.396,23.75,38.065,23.75z"/>
		<path fill="#2F2F31" d="M64.806,23.75h1.527c0.67,0,1.213-0.543,1.213-1.211c0-0.672-0.543-1.213-1.213-1.213h-1.527
			c-0.67,0-1.213,0.541-1.213,1.213C63.593,23.207,64.136,23.75,64.806,23.75z"/>
		<path fill="#2F2F31" d="M59.458,23.75h1.527c0.668,0,1.213-0.543,1.213-1.211c0-0.672-0.543-1.213-1.213-1.213h-1.527
			c-0.668,0-1.211,0.541-1.211,1.213C58.247,23.207,58.79,23.75,59.458,23.75z"/>
		<path fill="#2F2F31" d="M70.153,23.75h1.527c0.67,0,1.213-0.543,1.213-1.211c0-0.672-0.543-1.213-1.213-1.213h-1.527
			c-0.67,0-1.213,0.541-1.213,1.213C68.94,23.207,69.483,23.75,70.153,23.75z"/>
		<path fill="#2F2F31" d="M77.521,22.539c0-0.139-0.025-0.27-0.068-0.393C76.763,10.961,71.073,2.5,63.937,2.5H21.063
			c-7.617,0-13.584,9.637-13.584,21.939c0,12.301,5.967,21.939,13.584,21.939h0.002l0,0h11.139v34.908
			c0,0.67,0.543,1.213,1.213,1.213H76.31c0.668,0,1.211-0.543,1.211-1.213v-56.85c0-0.543-0.016-1.08-0.037-1.611
			C77.505,22.734,77.521,22.637,77.521,22.539z M9.903,24.439c0-10.762,5.008-19.516,11.16-19.516c0.193,0,0.383,0.01,0.572,0.025
			c0.061,0.004,0.121,0.018,0.182,0.023c0.127,0.016,0.256,0.029,0.383,0.051c0.072,0.014,0.145,0.033,0.219,0.049
			c0.111,0.023,0.225,0.045,0.336,0.074c0.08,0.021,0.156,0.049,0.234,0.074c0.104,0.031,0.209,0.061,0.314,0.098
			c0.076,0.027,0.152,0.062,0.229,0.092c0.104,0.041,0.207,0.078,0.309,0.125c0.082,0.037,0.162,0.08,0.244,0.121
			c0.094,0.045,0.188,0.09,0.281,0.141c0.088,0.047,0.172,0.1,0.256,0.15c0.088,0.051,0.176,0.1,0.262,0.154s0.17,0.117,0.256,0.176
			c0.082,0.059,0.166,0.111,0.248,0.172c0.086,0.064,0.17,0.135,0.254,0.201c0.08,0.062,0.16,0.123,0.238,0.188
			c0.084,0.07,0.164,0.146,0.246,0.219c0.078,0.07,0.158,0.139,0.234,0.211c0.082,0.076,0.16,0.158,0.24,0.238
			c0.074,0.076,0.152,0.15,0.227,0.229c0.08,0.086,0.16,0.178,0.238,0.268c0.072,0.078,0.145,0.154,0.213,0.236
			c0.08,0.096,0.158,0.195,0.238,0.293c0.066,0.084,0.133,0.164,0.197,0.248c0.08,0.104,0.156,0.211,0.232,0.316
			c0.062,0.086,0.127,0.17,0.189,0.26c0.076,0.109,0.148,0.221,0.223,0.334c0.061,0.092,0.121,0.18,0.182,0.275
			c0.072,0.113,0.145,0.234,0.215,0.354c0.057,0.096,0.115,0.189,0.172,0.287c0.07,0.123,0.137,0.248,0.207,0.373
			c0.053,0.1,0.109,0.199,0.164,0.301c0.066,0.129,0.131,0.262,0.197,0.395c0.051,0.102,0.104,0.203,0.152,0.309
			c0.064,0.135,0.125,0.275,0.189,0.414c0.047,0.105,0.096,0.211,0.143,0.318c0.062,0.141,0.119,0.285,0.178,0.428
			c0.045,0.111,0.092,0.221,0.135,0.334c0.057,0.145,0.109,0.293,0.166,0.441c0.041,0.115,0.086,0.229,0.127,0.346
			c0.051,0.146,0.1,0.299,0.148,0.451c0.041,0.121,0.082,0.238,0.119,0.361c0.049,0.152,0.092,0.307,0.139,0.459
			c0.037,0.125,0.074,0.25,0.109,0.377c0.043,0.156,0.084,0.314,0.125,0.473c0.033,0.129,0.068,0.256,0.1,0.385
			c0.039,0.162,0.076,0.326,0.113,0.49c0.029,0.131,0.062,0.258,0.088,0.391c0.035,0.164,0.068,0.332,0.102,0.498
			c0.025,0.135,0.053,0.27,0.078,0.404c0.029,0.168,0.057,0.336,0.084,0.504c0.021,0.139,0.047,0.277,0.068,0.416
			c0.025,0.168,0.047,0.338,0.07,0.508c0.018,0.145,0.039,0.287,0.057,0.432c0.021,0.17,0.037,0.34,0.055,0.512
			c0.016,0.146,0.031,0.295,0.047,0.445c0.014,0.168,0.025,0.34,0.039,0.51c0.012,0.154,0.023,0.309,0.035,0.465
			c0.01,0.166,0.016,0.334,0.023,0.504c0.008,0.16,0.016,0.318,0.021,0.479c0.006,0.17,0.008,0.34,0.01,0.512
			c0.002,0.135,0.006,0.27,0.006,0.404c-0.01,0.064-0.018,0.131-0.018,0.197v1.139c0,0.031-0.002,0.061-0.004,0.092
			c-0.355,9.773-5.039,17.766-10.592,18.26c-0.182,0.016-0.361,0.023-0.545,0.023C14.911,43.955,9.903,35.199,9.903,24.439z
			 M27.362,43.955c1.945-1.609,3.602-3.949,4.842-6.812v6.812H27.362z M34.628,80.076V57.682c0.48-0.162,0.83-0.611,0.83-1.146
			c0-0.533-0.35-0.982-0.83-1.145V45.166V25.654c0.014-0.402,0.021-0.807,0.021-1.215c0-0.254-0.006-0.508-0.012-0.76
			c0.475-0.164,0.82-0.611,0.82-1.141c0-0.574-0.402-1.053-0.938-1.178c-0.006-0.059-0.01-0.113-0.016-0.17
			c-0.039-0.455-0.088-0.906-0.145-1.35c-0.014-0.104-0.027-0.203-0.043-0.305c-0.047-0.355-0.102-0.707-0.16-1.055
			c-0.02-0.125-0.041-0.25-0.062-0.373c-0.078-0.422-0.158-0.842-0.25-1.252c-0.002-0.012-0.004-0.021-0.006-0.033
			c-0.094-0.42-0.197-0.832-0.307-1.238c-0.029-0.115-0.062-0.23-0.096-0.348c-0.088-0.318-0.182-0.633-0.279-0.941
			c-0.029-0.092-0.057-0.188-0.088-0.279c-0.125-0.385-0.258-0.762-0.396-1.133c-0.033-0.086-0.068-0.17-0.102-0.256
			c-0.113-0.293-0.232-0.582-0.354-0.865c-0.045-0.105-0.092-0.209-0.137-0.312c-0.15-0.336-0.307-0.664-0.469-0.984
			c-0.008-0.02-0.018-0.037-0.025-0.055c-0.17-0.334-0.35-0.656-0.529-0.973c-0.053-0.094-0.109-0.184-0.164-0.275
			c-0.145-0.244-0.293-0.482-0.445-0.713c-0.049-0.074-0.096-0.15-0.145-0.225c-0.197-0.289-0.396-0.57-0.604-0.84
			c-0.049-0.064-0.098-0.125-0.146-0.188c-0.168-0.213-0.338-0.42-0.51-0.619c-0.066-0.074-0.131-0.15-0.197-0.225
			c-0.207-0.23-0.418-0.455-0.635-0.666c-0.016-0.016-0.031-0.033-0.047-0.049c-0.23-0.225-0.469-0.434-0.707-0.635
			c-0.029-0.025-0.059-0.053-0.086-0.078h36.564c5.574,0,10.207,7.18,11.031,16.529c-0.4,0.197-0.678,0.605-0.678,1.084
			c0,0.521,0.332,0.963,0.797,1.133c0.006,0.256,0.012,0.512,0.012,0.768v30.961c-0.471,0.166-0.809,0.611-0.809,1.139
			c0,0.525,0.338,0.971,0.809,1.137V80.08H34.628V80.076z"/>
		<path fill="#2F2F31" d="M67.546,56.537c0-0.67-0.543-1.213-1.213-1.213h-1.527c-0.67,0-1.213,0.543-1.213,1.213
			s0.543,1.213,1.213,1.213h1.527C67.003,57.75,67.546,57.207,67.546,56.537z"/>
		<path fill="#2F2F31" d="M56.849,56.537c0-0.67-0.543-1.213-1.211-1.213h-1.529c-0.668,0-1.211,0.543-1.211,1.213
			s0.543,1.213,1.211,1.213h1.529C56.306,57.75,56.849,57.207,56.849,56.537z"/>
		<path fill="#2F2F31" d="M62.198,56.537c0-0.67-0.543-1.213-1.213-1.213h-1.527c-0.668,0-1.211,0.543-1.211,1.213
			s0.543,1.213,1.211,1.213h1.527C61.655,57.75,62.198,57.207,62.198,56.537z"/>
		<path fill="#2F2F31" d="M72.894,56.537c0-0.67-0.543-1.213-1.213-1.213h-1.527c-0.67,0-1.213,0.543-1.213,1.213
			s0.543,1.213,1.213,1.213h1.527C72.351,57.75,72.894,57.207,72.894,56.537z"/>
		<path fill="#2F2F31" d="M40.806,56.537c0-0.67-0.543-1.213-1.213-1.213h-1.527c-0.67,0-1.211,0.543-1.211,1.213
			s0.541,1.213,1.211,1.213h1.527C40.263,57.75,40.806,57.207,40.806,56.537z"/>
		<path fill="#2F2F31" d="M51.501,56.537c0-0.67-0.543-1.213-1.211-1.213h-1.529c-0.668,0-1.211,0.543-1.211,1.213
			s0.543,1.213,1.211,1.213h1.529C50.96,57.75,51.501,57.207,51.501,56.537z"/>
		<path fill="#2F2F31" d="M46.153,56.537c0-0.67-0.543-1.213-1.213-1.213h-1.525c-0.67,0-1.213,0.543-1.213,1.213
			s0.543,1.213,1.213,1.213h1.525C45.61,57.75,46.153,57.207,46.153,56.537z"/>
	</g>
</g>
</svg>
