<?xml version="1.0" encoding="utf-8"?>
<!-- Generator: Adobe Illustrator 16.0.0, SVG Export Plug-In . SVG Version: 6.00 Build 0)  -->
<!DOCTYPE svg PUBLIC "-//W3C//DTD SVG 1.1//EN" "http://www.w3.org/Graphics/SVG/1.1/DTD/svg11.dtd">
<svg version="1.1" id="Capa_1" xmlns="http://www.w3.org/2000/svg" xmlns:xlink="http://www.w3.org/1999/xlink" x="0px" y="0px"
	 width="85px" height="85px" viewBox="0 0 85 85" enable-background="new 0 0 85 85" xml:space="preserve">
<g>
	<g>
		<path fill="#FDD44B" d="M14.771,41.111c0.004-0.002,0.01-0.006,0.015-0.008C14.781,41.105,14.775,41.109,14.771,41.111z"/>
		<path fill="#FDD44B" d="M14.993,40.98c0.762-0.449,1.754-1.008,1.95-1.121L8.932,19.176C8.7,19.152,8.461,19.18,8.23,19.27
			c-0.383,0.148-0.684,0.436-0.85,0.811c-0.165,0.375-0.175,0.791-0.027,1.172l7.643,19.727
			C14.994,40.979,14.993,40.98,14.993,40.98z"/>
		<path fill="#FDD44B" d="M14.57,41.232c0.009-0.004,0.019-0.01,0.027-0.016C14.589,41.221,14.579,41.227,14.57,41.232z"/>
		<path fill="#FDD44B" d="M14.396,41.34c0.014-0.01,0.029-0.02,0.043-0.027C14.426,41.322,14.41,41.33,14.396,41.34z"/>
	</g>
	<g>
		<path fill="#FDD44B" d="M79.137,18.5c0.043,0.1,0.074,0.201,0.096,0.305C79.211,18.701,79.18,18.6,79.137,18.5z"/>
		<path fill="#FDD44B" d="M79.24,18.863c0.016,0.084,0.023,0.17,0.023,0.254C79.264,19.031,79.254,18.947,79.24,18.863z"/>
		<path fill="#FDD44B" d="M68.248,39.969c-0.01-0.004-0.02-0.01-0.025-0.016C68.23,39.959,68.24,39.965,68.248,39.969z"/>
		<path fill="#FDD44B" d="M68.148,39.91c-0.037-0.02-0.07-0.041-0.092-0.053C68.078,39.871,68.111,39.889,68.148,39.91z"/>
		<path fill="#FDD44B" d="M78.795,18.844c-0.789-0.307-1.68,0.086-1.984,0.875l-7.973,20.586c0.654,0.375,1.527,0.877,1.898,1.119
			l8.426-21.75c0.068-0.178,0.1-0.359,0.102-0.543C79.127,19.01,78.971,18.91,78.795,18.844z"/>
	</g>
	<g>
		<path fill="#84BD93" d="M60.211,33.693c0.137,0.062,0.258,0.143,0.371,0.232C60.469,33.836,60.348,33.756,60.211,33.693z"/>
		<path fill="#84BD93" d="M33.656,35.518c0,0.002,0.001,0.004,0.002,0.006C33.657,35.521,33.656,35.52,33.656,35.518z"/>
		<path fill="#84BD93" d="M60.998,34.369c0.07,0.096,0.137,0.199,0.197,0.311C61.135,34.568,61.068,34.465,60.998,34.369z"/>
		<path fill="#84BD93" d="M60.904,34.246c-0.068-0.084-0.143-0.16-0.221-0.23C60.762,34.086,60.836,34.162,60.904,34.246z"/>
		<path fill="#84BD93" d="M61.262,34.793c0.084,0.156,0.162,0.326,0.234,0.512C61.424,35.119,61.344,34.949,61.262,34.793z"/>
		<path fill="#84BD93" d="M52.479,35.984c-0.08-0.018-0.16-0.035-0.24-0.047C52.318,35.949,52.398,35.969,52.479,35.984z"/>
		<path fill="#84BD93" d="M67.994,43.59c-0.236,0-3.281-1.873-4.195-2.854c-0.951-1.02-1.355-2.408-1.746-3.738
			c-0.191-0.648-0.365-1.213-0.555-1.684c-0.898-0.199-2.424,0.133-3.787,0.434c-1.336,0.297-2.703,0.596-4.033,0.605
			c-0.047-0.02-0.096-0.033-0.143-0.051c0.543,0.213,1.068,0.52,1.559,0.887c2.021,1.52,2.971,4.25,2.582,6.398h10.318V43.59z"/>
		<path fill="#84BD93" d="M33.52,35.08c0.004,0.014,0.008,0.025,0.012,0.039C33.527,35.105,33.523,35.094,33.52,35.08z"/>
		<path fill="#84BD93" d="M53.143,36.16c-0.084-0.027-0.166-0.053-0.252-0.076C52.975,36.107,53.059,36.133,53.143,36.16z"/>
		<path fill="#84BD93" d="M51.109,35.842c-0.047,0-0.096-0.004-0.143-0.004c-1.111-0.477-2.119-1.24-3.104-1.984
			c-1.338-1.012-2.602-1.969-3.777-1.969c-0.158,0-0.734,0.029-1.025,0.066c0.23,0.578,0.363,1.207,0.363,1.867
			c0,2.775-2.258,5.033-5.033,5.033c-1.857,0-3.481-1.014-4.354-2.514c-1.186-0.064-2.395-0.328-3.578-0.592
			c-1.527-0.336-3.258-0.719-4.086-0.342c-0.939,0.43-1.322,1.531-1.84,3.293c-0.393,1.33-0.797,2.73-1.748,3.752
			c-0.352,0.377-0.779,0.711-1.323,1.143h3.752c0.168-1.076,0.599-2.074,1.276-2.936c1.047-1.328,2.548-2.182,4.229-2.381
			c0.248-0.029,0.5-0.025,0.75-0.025c3.114,0,5.752,2.117,6.244,5.342h12.088l-3.711-2.812c-0.342-0.256-0.568-0.652-0.629-1.076
			s0.051-0.861,0.309-1.205C47.076,36.756,49.082,35.84,51.109,35.842z"/>
		<path fill="#84BD93" d="M51.574,35.855c0.076,0.006,0.15,0.014,0.225,0.023C51.725,35.869,51.65,35.861,51.574,35.855z"/>
	</g>
	<path fill="#FDD44B" d="M31.788,41.467c0.103,0.012,0.202,0.027,0.301,0.049c-0.528,0.195-0.998,0.529-1.356,0.984
		c-0.135,0.172-0.248,0.357-0.342,0.551l-1.746,0.207l5.258-0.625C33.395,41.986,32.639,41.555,31.788,41.467z"/>
	<g>
		<path fill="#FDD44B" d="M54.072,40.783c0.051,0.09,0.092,0.184,0.135,0.275C54.162,40.967,54.121,40.873,54.072,40.783z"/>
		<path fill="#FDD44B" d="M53.668,40.234c-0.053-0.059-0.1-0.121-0.156-0.176C53.568,40.115,53.615,40.178,53.668,40.234z"/>
		<path fill="#FDD44B" d="M53.818,40.406c0.062,0.078,0.111,0.162,0.164,0.246C53.93,40.568,53.879,40.484,53.818,40.406z"/>
		<path fill="#FDD44B" d="M54.266,41.18L54.266,41.18c-0.883-0.662-1.982-0.832-2.973-0.561l3.193,2.396
			C54.586,42.391,54.504,41.756,54.266,41.18z"/>
	</g>
	<g>
		<path fill="#CE593F" d="M38.904,32.098c0.088,0.025,0.176,0.057,0.258,0.096C39.08,32.154,38.992,32.123,38.904,32.098z"/>
		<path fill="#CE593F" d="M39.273,32.256c0.078,0.045,0.154,0.094,0.225,0.15C39.428,32.35,39.354,32.301,39.273,32.256z"/>
		<path fill="#CE593F" d="M36.783,34.615c-0.021-0.043-0.045-0.084-0.062-0.129C36.738,34.531,36.762,34.572,36.783,34.615z"/>
		<path fill="#CE593F" d="M36.656,34.277c-0.01-0.039-0.024-0.076-0.032-0.113C36.631,34.201,36.645,34.238,36.656,34.277z"/>
		<path fill="#CE593F" d="M38.391,32.014c0.139,0,0.271,0.02,0.4,0.049C38.662,32.031,38.529,32.014,38.391,32.014z"/>
		<path fill="#CE593F" d="M39.789,32.693c-0.061-0.078-0.129-0.148-0.201-0.215C39.66,32.545,39.729,32.615,39.789,32.693z"/>
		<path fill="#CE593F" d="M37.462,35.352c-0.051-0.031-0.101-0.064-0.147-0.1C37.361,35.289,37.41,35.322,37.462,35.352z"/>
		<path fill="#CE593F" d="M36.965,34.906c-0.031-0.043-0.064-0.084-0.092-0.127C36.902,34.824,36.934,34.865,36.965,34.906z"/>
		<path fill="#CE593F" d="M38.088,35.588c-0.064-0.012-0.127-0.029-0.189-0.047C37.961,35.559,38.023,35.576,38.088,35.588z"/>
		<path fill="#CE593F" d="M37.762,35.498c-0.059-0.02-0.115-0.047-0.171-0.074C37.646,35.449,37.703,35.477,37.762,35.498z"/>
		<path fill="#CE593F" d="M39.826,32.74c-0.086-0.014-0.174-0.021-0.264-0.021c-0.994,0-1.801,0.809-1.801,1.801
			c0,0.402,0.133,0.771,0.356,1.072c0.09,0.014,0.18,0.027,0.272,0.027c0.994,0,1.803-0.809,1.803-1.803
			C40.193,33.41,40.055,33.041,39.826,32.74z"/>
		<path fill="#CE593F" d="M37.072,35.037c0.039,0.041,0.08,0.078,0.121,0.115C37.152,35.115,37.111,35.078,37.072,35.037z"/>
	</g>
	<g>
		<path fill="#EF8829" d="M15.26,57.83c-0.135-0.277-0.262-0.564-0.386-0.854C14.998,57.266,15.125,57.553,15.26,57.83z"/>
		<path fill="#EF8829" d="M15.889,59.02c-0.142-0.248-0.277-0.502-0.41-0.758C15.611,58.518,15.747,58.771,15.889,59.02z"/>
		<path fill="#EF8829" d="M17.602,61.52c0.545,0.66,1.131,1.27,1.762,1.832C18.734,62.789,18.146,62.18,17.602,61.52z"/>
		<path fill="#EF8829" d="M14.7,56.58c-0.175-0.428-0.339-0.861-0.492-1.312C14.361,55.719,14.527,56.152,14.7,56.58z"/>
		<path fill="#EF8829" d="M16.594,60.154c-0.158-0.236-0.314-0.479-0.464-0.725C16.279,59.678,16.434,59.918,16.594,60.154z"/>
		<path fill="#EF8829" d="M71.986,49.605H16.025c0.029,2.365,0.269,5.285,1.427,8.695c0.739,2.176,1.728,4.295,2.956,5.92
			c2.037,1.527,4.459,2.793,7.268,3.438h29.65c6.727-1.719,11.268-5.699,13.498-12.361c0.746-2.23,1.104-4.639,1.268-6.361
			C72.062,49.232,72.027,49.605,71.986,49.605z"/>
		<path fill="#EF8829" d="M72.162,48.191c0.018-0.262,0.029-0.51,0.039-0.742C72.193,47.682,72.18,47.93,72.162,48.191z"/>
		<path fill="#EF8829" d="M17.406,61.268c-0.195-0.246-0.387-0.496-0.57-0.756C17.02,60.771,17.211,61.021,17.406,61.268z"/>
		<path fill="#EF8829" d="M72.092,49.062c0.027-0.295,0.051-0.576,0.068-0.842C72.143,48.488,72.119,48.768,72.092,49.062z"/>
		<path fill="#EF8829" d="M20.331,64.141c-0.278-0.211-0.548-0.432-0.812-0.66C19.783,63.711,20.053,63.93,20.331,64.141z"/>
		<path fill="#EF8829" d="M72.201,47.416c0.012-0.229,0.018-0.447,0.02-0.646C72.219,46.969,72.213,47.186,72.201,47.416z"/>
	</g>
	<path fill="#3F2D20" d="M82.092,17.195c-0.516-1.164-1.451-2.059-2.639-2.518c-2.447-0.949-5.213,0.271-6.162,2.721l-7.732,19.963
		c-0.146-0.4-0.277-0.848-0.406-1.287c-0.557-1.893-1.25-4.248-3.598-5.32c-1.812-0.826-4.004-0.344-6.125,0.127
		c-1.512,0.334-3.074,0.68-4.189,0.465c-0.887-0.17-1.918-0.951-3.01-1.779c-1.625-1.23-3.467-2.625-5.73-2.625
		c-1.857,0-3.408,0.928-4.73,1.881c-1.582,0.197-2.938,1.129-3.715,2.445c-0.102,0.033-0.201,0.059-0.296,0.078
		c-1.112,0.215-2.676-0.131-4.187-0.465c-2.121-0.471-4.314-0.955-6.125-0.127c-2.348,1.072-3.041,3.428-3.598,5.32
		c-0.129,0.441-0.262,0.889-0.408,1.289l-7.733-19.965c-0.949-2.449-3.713-3.67-6.162-2.721c-1.187,0.461-2.123,1.354-2.637,2.518
		c-0.515,1.164-0.544,2.459-0.084,3.645l8.792,22.699h-0.422c-0.844,0-1.545,0.648-1.61,1.49c-0.017,0.219-0.396,5.424,1.528,11.17
		c2.603,7.771,8.156,12.754,16.06,14.41c0.109,0.023,0.22,0.035,0.332,0.035h29.991c0.111,0,0.225-0.012,0.332-0.035
		c7.904-1.656,13.457-6.639,16.061-14.41c1.924-5.746,1.545-10.951,1.527-11.17c-0.064-0.842-0.768-1.49-1.609-1.49h-0.422
		l8.793-22.699C82.635,19.654,82.605,18.359,82.092,17.195z M79.162,19.674l-8.426,21.75c-0.582-0.381-2.4-1.404-2.68-1.564
		l8.246-21.293c0.307-0.787,1.195-1.18,1.982-0.875c0.383,0.148,0.684,0.436,0.85,0.811C79.301,18.875,79.311,19.291,79.162,19.674z
		 M70.822,55.174c-2.23,6.664-6.77,10.781-13.496,12.24H27.675c-6.692-1.451-11.223-5.537-13.466-12.146
		c-1.158-3.408-1.396-6.674-1.428-8.496h59.439C72.193,48.57,71.959,51.781,70.822,55.174z M5.863,18.5
		c0.166-0.375,0.467-0.662,0.849-0.811c0.788-0.305,1.679,0.088,1.981,0.877l8.248,21.293c-0.272,0.158-2.098,1.186-2.68,1.564
		L5.836,19.672C5.689,19.291,5.697,18.875,5.863,18.5z M21.2,40.713c0.952-1.021,1.356-2.396,1.747-3.727
		c0.52-1.764,0.902-2.865,1.842-3.293c0.827-0.379,2.559,0.004,4.086,0.342c1.509,0.334,3.061,0.676,4.55,0.596
		c0.392,2.389,2.47,4.219,4.966,4.219c2.775,0,5.033-2.258,5.033-5.033c0-1.396-0.572-2.662-1.494-3.576
		c0.193-0.045,0.383-0.068,0.568-0.068c1.18,0,2.443,0.957,3.781,1.969c1.338,1.016,2.725,2.064,4.354,2.377
		c1.768,0.34,3.662-0.078,5.492-0.482c1.527-0.338,3.26-0.721,4.086-0.342c0.939,0.428,1.322,1.531,1.842,3.293
		c0.391,1.33,0.795,2.705,1.746,3.727c0.914,0.979,3.959,2.688,4.195,2.826H57.676c0.389-2.395-0.562-4.855-2.582-6.375
		c-2.936-2.203-7.119-1.607-9.324,1.328c-0.258,0.344-0.367,0.773-0.307,1.197c0.059,0.424,0.285,0.807,0.629,1.064l3.709,2.785
		H37.714c-0.491-3.053-3.13-5.322-6.243-5.322c-0.25,0-0.503,0.016-0.752,0.045c-1.68,0.199-3.181,1.041-4.228,2.369
		c-0.677,0.859-1.108,1.855-1.276,2.908h-8.21c0.238-0.139,1.876-1.057,2.447-1.426C20.206,41.629,20.762,41.182,21.2,40.713z
		 M38.391,32.014c0.994,0,1.803,0.809,1.803,1.803c0,0.992-0.809,1.801-1.803,1.801c-0.992,0-1.802-0.809-1.802-1.801
		C36.589,32.822,37.396,32.014,38.391,32.014z M54.486,43.018l-4.84-3.635c1.111-0.516,2.463-0.418,3.508,0.365
		C54.191,40.527,54.682,41.789,54.486,43.018z M28.645,43.258c0.102-0.223,0.229-0.434,0.383-0.627
		c0.514-0.65,1.248-1.062,2.07-1.16c0.125-0.016,0.248-0.021,0.371-0.021c0.979,0,1.863,0.459,2.434,1.186L28.645,43.258z"/>
</g>
</svg>
