<?xml version="1.0" encoding="utf-8"?>
<!-- Generator: Adobe Illustrator 16.0.0, SVG Export Plug-In . SVG Version: 6.00 Build 0)  -->
<!DOCTYPE svg PUBLIC "-//W3C//DTD SVG 1.1//EN" "http://www.w3.org/Graphics/SVG/1.1/DTD/svg11.dtd">
<svg version="1.1" id="Layer_1" xmlns="http://www.w3.org/2000/svg" xmlns:xlink="http://www.w3.org/1999/xlink" x="0px" y="0px"
	 width="85px" height="85px" viewBox="0 0 85 85" enable-background="new 0 0 85 85" xml:space="preserve">
<g>
	<g>
		<path fill="#E0E381" d="M59.382,61.46L59.382,61.46c2.039-1.141,3.521-3.062,4.123-5.322c0.805-3.014,2.227-7.238,4.295-9.465
			c4.08-4.391,9.252-4.776,10.996-4.776s1.744,0,1.744,0v5.31c0,0-4.322,0.909-5.537,3.411c-0.91,1.878-0.881,8.878-0.811,12.257
			c0.041,1.934-0.305,3.859-1.076,5.633c-0.781,1.799-2.062,3.787-4.104,4.861c-4.322,2.273-10.617,2.35-10.617,2.35L59.382,61.46z"
			/>
		<path fill="#E0E381" d="M62.433,65.825v14.338H4.46V65.825c0-8.533,3.689-16.209,9.561-21.513
			c5.141-4.646,11.955-7.474,19.426-7.474c7.473,0,14.285,2.83,19.426,7.474c0.365,0.329,0.723,0.669,1.07,1.017
			C59.188,50.575,62.433,57.821,62.433,65.825z"/>
	</g>
	<path fill="#A5BA6B" d="M52.872,44.313c-4.529,5.74-11.547,9.426-19.426,9.426c-6.828,0-13.01-2.77-17.486-7.245
		c-0.688-0.688-1.336-1.415-1.939-2.181c5.141-4.645,11.955-7.475,19.426-7.475C40.919,36.839,47.731,39.669,52.872,44.313z"/>
	<g>
		<circle fill="#FFC674" cx="33.446" cy="25.83" r="5.903"/>
		<rect x="18.161" y="4.839" fill="#FFC674" width="30.57" height="8.942"/>
	</g>
	<path d="M80.54,39.936h-1.744c-2.229,0-7.898,0.526-12.432,5.403c-1.652,1.776-3.094,4.694-4.295,8.682
		c-1.17-2.836-2.768-5.496-4.758-7.898c-0.043-2.191,0.197-5.383,1.166-9.679c0.168-0.747,0.5-1.81,0.887-3.042
		c1.684-5.373,4.227-13.492,0.922-18.975c-1.672-2.775-5.223-4.732-9.594-6.039V4.837c0-1.082-0.877-1.959-1.961-1.959h-30.57
		c-1.084,0-1.961,0.877-1.961,1.959v3.551c-4.371,1.307-7.92,3.264-9.594,6.039c-3.304,5.481-0.76,13.602,0.924,18.975
		c0.385,1.23,0.719,2.295,0.887,3.042c0.968,4.304,1.209,7.497,1.166,9.688C5.042,51.64,2.501,58.606,2.501,65.825v14.336
		c0,1.082,0.877,1.961,1.959,1.961h57.973c1.082,0,1.961-0.877,1.961-1.961v-3.184c1.824-0.381,3.805-0.969,5.533-1.877
		c2.115-1.113,3.793-3.068,4.988-5.812c0.869-2,1.287-4.172,1.238-6.457c-0.16-7.635,0.311-10.732,0.613-11.359
		c0.594-1.223,3.072-2.111,4.176-2.35c0.908-0.191,1.557-0.99,1.557-1.918v-5.309C82.501,40.813,81.622,39.936,80.54,39.936z
		 M20.122,6.8h26.65v5.021h-26.65V6.8z M9.964,16.452c0.932-1.546,3.145-2.896,6.236-3.949v1.279c0,1.083,0.877,1.96,1.959,1.96
		h30.572c1.082,0,1.961-0.878,1.961-1.96v-1.279c3.092,1.053,5.305,2.403,6.234,3.949c2.395,3.971,0.078,11.361-1.307,15.778
		c-0.412,1.313-0.768,2.448-0.971,3.353c-0.5,2.228-0.881,4.539-1.09,6.729c-5.107-4.372-11.465-6.946-18.154-7.368v-1.496
		c3.391-0.873,5.902-3.957,5.902-7.616c0-4.336-3.527-7.863-7.863-7.863s-7.863,3.527-7.863,7.863c0,3.66,2.512,6.743,5.902,7.616
		v1.496c-0.777,0.049-1.551,0.125-2.316,0.231c-0.939,0.131-1.871,0.305-2.789,0.52c-0.279,0.064-0.555,0.137-0.832,0.208
		c-4.473,1.179-8.65,3.354-12.217,6.409c-0.209-2.189-0.588-4.5-1.09-6.729c-0.203-0.904-0.559-2.039-0.971-3.353
		C9.888,27.813,7.571,20.421,9.964,16.452z M32.017,38.839c0.076-0.004,0.154-0.008,0.23-0.013c0.135-0.006,0.27-0.01,0.404-0.014
		c0.064-0.002,0.129-0.005,0.193-0.007c0.201-0.004,0.4-0.006,0.602-0.006s0.398,0.002,0.6,0.006
		c0.064,0.002,0.131,0.005,0.197,0.007c0.133,0.004,0.268,0.008,0.4,0.014c0.08,0.003,0.156,0.009,0.236,0.013
		c0.121,0.006,0.24,0.013,0.361,0.021c0.082,0.005,0.166,0.013,0.248,0.019c0.117,0.008,0.23,0.018,0.348,0.027
		c0.084,0.008,0.17,0.016,0.254,0.023c0.113,0.012,0.227,0.022,0.34,0.035c0.084,0.01,0.17,0.02,0.256,0.029
		c0.111,0.014,0.227,0.028,0.34,0.043c0.082,0.012,0.166,0.021,0.25,0.034c0.115,0.017,0.23,0.035,0.348,0.054
		c0.08,0.012,0.16,0.023,0.238,0.037c0.123,0.02,0.244,0.042,0.367,0.064c0.07,0.013,0.145,0.025,0.217,0.039
		c0.145,0.027,0.289,0.056,0.434,0.086c0.049,0.01,0.098,0.019,0.146,0.029c0.191,0.041,0.385,0.082,0.576,0.127
		c0.045,0.01,0.09,0.022,0.135,0.033c0.146,0.035,0.293,0.07,0.438,0.108c0.07,0.019,0.139,0.036,0.207,0.055
		c0.123,0.033,0.244,0.065,0.365,0.099c0.074,0.021,0.148,0.043,0.225,0.065c0.115,0.033,0.229,0.067,0.344,0.103
		c0.076,0.022,0.152,0.047,0.229,0.07c0.113,0.035,0.227,0.071,0.338,0.107c0.076,0.025,0.152,0.051,0.229,0.076
		c0.111,0.037,0.225,0.076,0.336,0.117c0.074,0.025,0.146,0.051,0.221,0.078c0.115,0.043,0.23,0.084,0.344,0.129
		c0.07,0.025,0.141,0.051,0.209,0.078c0.121,0.047,0.244,0.096,0.365,0.146c0.061,0.023,0.121,0.048,0.182,0.072
		c0.141,0.059,0.281,0.119,0.422,0.18c0.039,0.018,0.08,0.033,0.121,0.052c0.363,0.161,0.729,0.33,1.086,0.507
		c0.033,0.016,0.066,0.033,0.102,0.051c0.143,0.07,0.285,0.144,0.426,0.217c0.053,0.025,0.104,0.054,0.152,0.08
		c0.125,0.065,0.248,0.133,0.373,0.201c0.057,0.03,0.111,0.062,0.166,0.092c0.119,0.066,0.234,0.133,0.352,0.201
		c0.061,0.033,0.117,0.067,0.174,0.102c0.115,0.066,0.23,0.135,0.344,0.204c0.057,0.034,0.113,0.069,0.172,0.106
		c0.115,0.07,0.229,0.143,0.342,0.215c0.055,0.033,0.109,0.068,0.162,0.104c0.119,0.076,0.236,0.154,0.354,0.232
		c0.049,0.033,0.098,0.064,0.145,0.098c0.129,0.088,0.256,0.177,0.383,0.266c0.035,0.025,0.072,0.051,0.107,0.076
		c0.32,0.23,0.639,0.469,0.951,0.712c-4.303,4.623-10.271,7.237-16.65,7.237c-6.082,0-11.801-2.367-16.102-6.669
		c-0.188-0.187-0.37-0.376-0.551-0.568c0.152-0.118,0.306-0.235,0.459-0.353c0.041-0.03,0.085-0.061,0.127-0.092
		c0.117-0.088,0.234-0.174,0.354-0.26c0.061-0.043,0.121-0.084,0.18-0.125c0.104-0.072,0.205-0.146,0.309-0.216
		c0.064-0.045,0.133-0.089,0.197-0.133c0.1-0.065,0.197-0.134,0.297-0.197c0.07-0.045,0.139-0.089,0.207-0.133
		c0.1-0.062,0.197-0.125,0.295-0.187c0.07-0.043,0.143-0.086,0.213-0.129c0.098-0.061,0.197-0.119,0.299-0.179
		c0.068-0.042,0.141-0.083,0.211-0.124c0.104-0.059,0.207-0.117,0.309-0.175c0.07-0.039,0.139-0.077,0.207-0.114
		c0.109-0.061,0.219-0.119,0.328-0.177c0.064-0.034,0.129-0.067,0.193-0.103c0.123-0.063,0.248-0.127,0.373-0.188
		c0.051-0.026,0.102-0.052,0.154-0.078c0.354-0.175,0.711-0.342,1.074-0.5c0.049-0.022,0.102-0.043,0.152-0.065
		c0.129-0.055,0.258-0.11,0.389-0.166c0.066-0.026,0.131-0.053,0.197-0.078c0.117-0.047,0.232-0.096,0.352-0.141
		c0.072-0.027,0.145-0.055,0.215-0.082c0.113-0.041,0.225-0.084,0.338-0.125c0.074-0.027,0.148-0.055,0.225-0.08
		c0.111-0.039,0.223-0.078,0.336-0.117c0.076-0.025,0.152-0.051,0.227-0.075c0.113-0.037,0.227-0.073,0.34-0.108
		c0.074-0.023,0.15-0.047,0.227-0.07c0.115-0.034,0.232-0.068,0.35-0.103c0.072-0.021,0.146-0.042,0.219-0.063
		c0.125-0.034,0.25-0.068,0.375-0.102c0.064-0.017,0.129-0.035,0.193-0.051c0.152-0.039,0.305-0.076,0.457-0.111
		c0.039-0.01,0.078-0.021,0.117-0.029c0.193-0.045,0.387-0.088,0.58-0.129c0.041-0.008,0.082-0.017,0.123-0.024
		c0.152-0.031,0.305-0.062,0.457-0.091c0.068-0.014,0.137-0.024,0.205-0.037c0.127-0.021,0.252-0.045,0.379-0.066
		c0.078-0.013,0.154-0.023,0.232-0.037c0.117-0.019,0.234-0.037,0.354-0.053c0.082-0.012,0.164-0.021,0.246-0.033
		c0.115-0.016,0.229-0.029,0.346-0.043c0.082-0.011,0.166-0.021,0.25-0.029c0.115-0.012,0.23-0.024,0.346-0.037
		c0.082-0.008,0.166-0.016,0.25-0.023c0.117-0.01,0.232-0.02,0.35-0.027c0.082-0.006,0.164-0.013,0.246-0.019
		C31.772,38.852,31.894,38.845,32.017,38.839z M29.503,25.829c0-2.174,1.77-3.943,3.943-3.943s3.943,1.77,3.943,3.943
		s-1.77,3.943-3.943,3.943C31.272,29.773,29.503,28.005,29.503,25.829z M60.472,78.202H6.421v-6.273H48.71
		c1.084,0,1.961-0.879,1.961-1.961s-0.877-1.961-1.961-1.961H6.421v-2.182c0-6.957,2.701-13.646,7.473-18.652
		c0.223,0.24,0.448,0.478,0.68,0.707c5.041,5.043,11.744,7.818,18.873,7.818c7.498,0,14.51-3.082,19.557-8.525
		c4.822,5.049,7.469,11.646,7.469,18.652V78.202L60.472,78.202z M78.579,45.729c-1.691,0.583-4.256,1.8-5.338,4.032
		c-0.305,0.627-1.23,2.537-1.008,13.154c0.037,1.713-0.271,3.332-0.914,4.809c-0.568,1.311-1.59,3.051-3.219,3.908
		c-1.131,0.594-2.432,1.021-3.707,1.328v-7.135c0-1.982-0.188-3.938-0.551-5.846c0.703-1.006,1.236-2.135,1.559-3.338
		c1.088-4.078,2.449-7.145,3.836-8.635c3.344-3.599,7.5-4.114,9.342-4.149V45.729L78.579,45.729z"/>
	<path d="M54.519,71.929c-0.131,0-0.258-0.014-0.387-0.039c-0.125-0.025-0.248-0.062-0.365-0.111
		c-0.117-0.051-0.23-0.109-0.34-0.182c-0.105-0.07-0.207-0.152-0.299-0.242c-0.09-0.092-0.172-0.189-0.242-0.299
		c-0.07-0.105-0.131-0.223-0.18-0.34c-0.051-0.117-0.088-0.24-0.113-0.365c-0.023-0.129-0.039-0.256-0.039-0.383
		c0-0.129,0.016-0.258,0.039-0.385c0.025-0.123,0.064-0.246,0.113-0.367c0.049-0.117,0.109-0.229,0.18-0.336
		s0.152-0.209,0.242-0.299c0.092-0.092,0.193-0.172,0.299-0.244c0.107-0.07,0.223-0.131,0.34-0.182
		c0.117-0.049,0.24-0.086,0.365-0.111c0.254-0.051,0.516-0.051,0.768,0c0.127,0.025,0.25,0.062,0.367,0.111
		c0.117,0.051,0.23,0.109,0.34,0.182c0.104,0.072,0.205,0.152,0.297,0.244c0.09,0.09,0.172,0.189,0.244,0.299
		c0.068,0.105,0.131,0.219,0.18,0.336c0.049,0.121,0.086,0.244,0.111,0.367c0.025,0.127,0.037,0.256,0.037,0.385
		c0,0.127-0.012,0.254-0.037,0.383c-0.025,0.125-0.062,0.248-0.111,0.365s-0.109,0.234-0.18,0.34
		c-0.072,0.107-0.154,0.207-0.244,0.299c-0.092,0.09-0.191,0.172-0.297,0.242c-0.107,0.07-0.223,0.131-0.34,0.182
		c-0.117,0.049-0.24,0.086-0.367,0.111S54.646,71.929,54.519,71.929z"/>
</g>
</svg>
