<?xml version="1.0" encoding="utf-8"?>
<!-- Generator: Adobe Illustrator 16.0.0, SVG Export Plug-In . SVG Version: 6.00 Build 0)  -->
<!DOCTYPE svg PUBLIC "-//W3C//DTD SVG 1.1//EN" "http://www.w3.org/Graphics/SVG/1.1/DTD/svg11.dtd">
<svg version="1.1" id="Layer_1" xmlns="http://www.w3.org/2000/svg" xmlns:xlink="http://www.w3.org/1999/xlink" x="0px" y="0px"
	 width="85px" height="85px" viewBox="0 0 85 85" enable-background="new 0 0 85 85" xml:space="preserve">
<g>
	<g>
		<path d="M82.132,71.709c-0.011-2.415-1.693-4.09-4.105-4.107c-1.403-0.011-2.809-0.04-4.21,0.014
			c-0.708,0.026-0.995-0.109-0.951-0.906c0.077-1.399,0.048-2.807,0.011-4.209c-0.021-0.788,0.143-1.486,0.495-2.201
			c1.448-2.938-0.402-5.893-3.671-5.909c-2.118-0.011-4.237,0.002-6.356-0.008c-0.194-0.001-0.437,0.121-0.603-0.133
			c2.381-2.563,4.759-5.123,7.136-7.683c2.378-2.561,4.748-5.129,7.142-7.675c0.348-0.37,0.371-0.559-0.051-0.878
			c-0.678-0.515-1.305-1.097-1.944-1.661c-0.127-0.112-0.362-0.173-0.279-0.434c0.128-0.398,1.468-1.335,1.928-1.349
			c2.414-0.069,4.091-1.231,5.09-3.417c1.102-2.41,1.08-4.691-0.81-6.723c-0.327-0.351-0.345-0.583-0.149-0.988
			c0.771-1.601,1.197-3.306,1.307-5.075c0.383-6.144-3.01-11.749-8.597-14.25c-5.563-2.491-11.977-1.252-16.335,3.147
			c-0.163,0.164-0.265,0.436-0.567,0.418c-1.289-3.146-3.765-4.816-7.161-4.819c-4.705-0.004-9.412-0.017-14.117,0.004
			c-4.188,0.019-7.331,3.179-7.363,7.374c-0.014,1.844-0.002,3.688-0.002,5.531c0,1.555,0,1.555-1.516,1.627
			c-1.929,0.093-3.551,1.62-3.752,3.534c-0.204,1.935,1.036,3.721,2.917,4.246c0.652,0.182,1.309,0.137,1.966,0.137
			c0.32,0,0.49,0.061,0.542,0.431c0.588,4.2,2.65,7.505,6.1,9.953c0.215,0.152,0.357,0.288,0.355,0.583
			c-0.013,2.113-0.007,4.227-0.007,6.412c-1.352-0.407-2.63-0.811-3.92-1.169c-0.446-0.124-0.777-0.346-1.08-0.688
			c-3.245-3.668-6.5-7.327-9.753-10.988c-0.945-1.064-0.941-1.062-2.049-0.181c-0.167,0.133-0.31,0.455-0.602,0.153
			c-0.426-0.438-0.88-0.764-0.764-1.568c0.424-2.949-1.979-6.247-4.902-6.897c-1.503-0.335-2.895-0.076-4.185,0.735
			c-0.767,0.482-1.512,1-2.265,1.505c-1.885,1.265-2.819,3.053-2.486,5.286c0.334,2.245,1.272,4.208,3.529,5.218
			c0.559,0.25,1.154,0.495,1.743,0.43c0.925-0.102,1.454,0.391,2.034,0.962c0.402,0.396,0.481,0.619-0.015,0.984
			c-0.596,0.439-1.105,1-1.708,1.429c-0.555,0.396-0.474,0.659-0.05,1.113c4.547,4.864,9.073,9.748,13.604,14.628
			c0.195,0.209,0.381,0.427,0.658,0.74c-2.538,0-4.926-0.028-7.313,0.007c-2.851,0.042-4.771,2.871-3.598,5.442
			c0.551,1.206,0.7,2.385,0.666,3.653c-0.037,1.342-0.039,2.685-0.056,4.027c-1.363,0.178-2.732,0.036-4.099,0.078
			c-0.412,0.013-0.825-0.007-1.238,0.007c-2.113,0.067-3.826,1.743-3.848,3.856c-0.035,3.385,0,6.77-0.024,10.154
			c-0.003,0.472,0.176,0.539,0.571,0.523c0.687-0.028,1.375-0.016,2.063-0.02c0.48-0.609,0.268-1.325,0.279-1.994
			c0.031-1.687,0.011-1.688,1.654-1.688c23.387,0,46.774,0,70.161,0c1.644,0,1.623,0.001,1.653,1.688
			c0.013,0.669-0.2,1.385,0.279,1.994c0.661,0.004,1.325-0.034,1.98,0.025c0.583,0.055,0.655-0.195,0.651-0.694
			C82.125,78.203,82.145,74.956,82.132,71.709z M57.303,38.723c-1.558,2.534-4.071,3.398-6.876,3.893
			c0-2.113,0.005-4.245-0.005-6.376c-0.001-0.263,0.134-0.385,0.322-0.517c3.008-2.094,4.956-4.924,5.87-8.47
			c0.012-0.044,0.072-0.077,0.157-0.162c1.901,2.039,4.177,3.5,7.021,4.321c-2.061,2.321-4.029,4.538-5.999,6.755
			C57.63,38.353,57.431,38.516,57.303,38.723z"/>
	</g>
	<path fill-rule="evenodd" clip-rule="evenodd" fill="#BDBDBD" d="M5.486,82.119c0.007-1.072,0.062-2.147,0.003-3.217
		c-0.036-0.653,0.197-0.758,0.784-0.748c2.007,0.036,4.016,0.015,6.024,0.015c22.088,0,44.176,0.003,66.264-0.016
		c0.714,0,1.01,0.122,0.951,0.915c-0.075,1.011-0.007,2.033,0,3.051c-0.385,0.004-0.77,0.013-1.154,0.013
		c-23.905,0-47.812,0-71.717,0C6.257,82.132,5.872,82.123,5.486,82.119z"/>
	<path fill-rule="evenodd" clip-rule="evenodd" fill="#DAB4A8" d="M42.436,67.6c-4.54,0-9.08-0.015-13.62,0.016
		c-0.659,0.005-0.879-0.114-0.869-0.832c0.045-3.191,0.008-6.384,0.031-9.575c0.004-0.51-0.151-0.865-0.494-1.233
		c-5.216-5.595-10.412-11.207-15.634-16.797c-0.398-0.427-0.398-0.629,0.046-1.002c2.065-1.732,4.112-3.488,6.141-5.263
		c0.421-0.369,0.647-0.378,1.034,0.062c2.979,3.389,5.989,6.75,8.979,10.129c0.32,0.361,0.664,0.602,1.139,0.742
		c3.763,1.112,7.515,2.266,11.279,3.373c0.538,0.157,0.734,0.358,0.725,0.946c-0.037,2.695-0.001,5.393-0.029,8.089
		c-0.006,0.57,0.07,0.81,0.738,0.795c1.917-0.041,1.917-0.005,1.917-1.913c0-2.312,0.024-4.623-0.017-6.934
		c-0.011-0.616,0.197-0.826,0.77-0.993c3.714-1.083,7.411-2.225,11.124-3.315c0.561-0.165,0.961-0.456,1.337-0.882
		c2.95-3.341,5.928-6.658,8.865-10.01c0.417-0.476,0.644-0.461,1.097-0.063c2.024,1.779,4.074,3.532,6.14,5.264
		c0.427,0.358,0.4,0.558,0.038,0.947c-5.219,5.592-10.416,11.204-15.634,16.797c-0.364,0.39-0.523,0.77-0.52,1.305
		c0.023,3.137-0.024,6.274,0.035,9.41c0.016,0.833-0.239,0.963-1,0.956C51.518,67.58,46.977,67.6,42.436,67.6z"/>
	<path fill-rule="evenodd" clip-rule="evenodd" fill="#8B8B8B" d="M42.406,75.526c-11.996,0-23.993-0.009-35.989,0.02
		c-0.78,0.002-0.972-0.228-0.924-0.957c0.061-0.931,0.006-1.87,0.018-2.805c0.014-1.04,0.484-1.514,1.505-1.541
		c0.193-0.006,0.386-0.002,0.578-0.002c23.278,0,46.555,0,69.833,0c1.746,0,2.065,0.318,2.065,2.06
		c0.001,0.881-0.025,1.762,0.011,2.642c0.02,0.482-0.154,0.645-0.612,0.588c-0.189-0.023-0.385-0.004-0.577-0.004
		C66.345,75.526,54.376,75.526,42.406,75.526z"/>
	<path fill-rule="evenodd" clip-rule="evenodd" fill="#F8C9C9" d="M46.34,13.432c2.477,0,4.954,0.017,7.431-0.013
		c0.517-0.006,0.636,0.135,0.632,0.639c-0.025,3.33,0.062,6.663-0.036,9.99c-0.129,4.371-2.148,7.714-5.885,9.979
		c-1.029,0.625-2.133,1.137-3.232,1.634c-1.737,0.784-3.53,0.855-5.28,0.081c-2.622-1.159-5.203-2.389-6.969-4.81
		c-1.503-2.061-2.33-4.346-2.381-6.896c-0.028-1.403,0.005-2.807-0.018-4.21c-0.006-0.387,0.097-0.668,0.376-0.94
		c1.182-1.154,2.339-2.332,3.513-3.494c1.336-1.323,2.951-1.965,4.831-1.96C41.66,13.436,44,13.432,46.34,13.432z"/>
	<path fill-rule="evenodd" clip-rule="evenodd" fill="#FBC06B" d="M78.321,22.516c-1.715-1.256-3.52-1.679-5.492-0.954
		c-2.81,1.033-4.605,3.933-4.22,6.902c0.104,0.802-0.51,1.019-0.889,1.429c-0.171,0.185-0.325-0.101-0.471-0.201
		c-0.503-0.343-0.842-1.09-1.671-0.602c-0.139,0.082-0.42-0.072-0.634-0.123c-2.392-0.565-4.423-1.739-6.094-3.557
		c0.225-0.213,0.482-0.204,0.711-0.277c1.811-0.58,2.994-2.454,2.726-4.308c-0.275-1.901-1.863-3.344-3.771-3.427
		c-1.484-0.064-1.484-0.064-1.484-1.586c0-0.881,0.063-1.767-0.018-2.641c-0.093-1.006,0.275-1.8,0.828-2.588
		c2.806-4,7.761-5.88,12.566-4.744c4.694,1.11,8.256,5.059,8.955,9.9C79.704,18.093,79.344,20.321,78.321,22.516z"/>
	<path fill-rule="evenodd" clip-rule="evenodd" fill="#9D694C" d="M30.628,15.293c0-1.89-0.103-3.788,0.026-5.669
		c0.159-2.32,2.165-4.097,4.503-4.109c4.896-0.025,9.794-0.027,14.691,0.001c2.431,0.014,4.399,1.969,4.546,4.363
		c0.041,0.683-0.085,0.94-0.865,0.932c-4.512-0.044-9.024,0.037-13.536-0.042c-3.168-0.055-5.808,0.977-7.944,3.309
		c-0.408,0.445-0.813,0.893-1.219,1.34C30.764,15.376,30.696,15.335,30.628,15.293z"/>
	<path fill-rule="evenodd" clip-rule="evenodd" fill="#DEDEDE" d="M20.043,67.6c-1.568,0-3.137-0.018-4.705,0.011
		c-0.464,0.008-0.603-0.121-0.594-0.591c0.029-1.567-0.038-3.139,0.028-4.704c0.046-1.106-0.181-2.09-0.707-3.063
		c-0.713-1.319-0.141-2.217,1.35-2.22c2.944-0.007,5.888,0.011,8.832-0.011c0.774-0.005,1.087,0.316,1.084,1.078
		c-0.014,2.971-0.015,5.942,0.004,8.914c0.003,0.46-0.113,0.605-0.587,0.597C23.18,67.581,21.611,67.6,20.043,67.6z"/>
	<path fill-rule="evenodd" clip-rule="evenodd" fill="#DEDEDE" d="M64.943,67.6c-1.541,0-3.082-0.017-4.622,0.01
		c-0.468,0.008-0.667-0.058-0.661-0.609c0.031-2.971,0.022-5.941,0.01-8.913c-0.004-0.769,0.329-1.071,1.096-1.065
		c2.943,0.021,5.887,0.004,8.831,0.011c1.442,0.003,2.062,0.919,1.368,2.16c-0.59,1.052-0.778,2.123-0.733,3.303
		c0.055,1.456-0.027,2.917,0.031,4.373c0.026,0.652-0.193,0.762-0.781,0.745C67.97,67.571,66.456,67.6,64.943,67.6z"/>
	<path fill-rule="evenodd" clip-rule="evenodd" fill="#F8C9C9" d="M5.151,28.235c-0.013-0.986,0.409-1.759,1.2-2.316
		c0.786-0.554,1.584-1.093,2.403-1.597c1.208-0.743,2.437-0.601,3.48,0.358c0.971,0.892,1.887,1.812,1.559,3.316
		c-0.012,0.054,0,0.122-0.03,0.161c-1.017,1.342-0.002,2.065,0.847,2.865c0.763,0.718,0.744,0.734-0.053,1.412
		c-0.587,0.499-1.181,0.991-1.749,1.511c-0.292,0.268-0.519,0.362-0.789-0.012c-0.127-0.176-0.323-0.302-0.46-0.472
		c-0.883-1.095-1.89-1.686-3.43-1.588C6.289,31.989,5.352,30.073,5.151,28.235z"/>
	<path fill-rule="evenodd" clip-rule="evenodd" fill="#F8C9C9" d="M79.847,28.24c-0.248,2.08-1.291,3.956-3.643,3.664
		c-1.157-0.144-1.747,0.524-2.418,1.209c-1.158,1.183-1.168,1.174-2.408,0.124c-0.462-0.391-0.91-0.799-1.385-1.174
		c-0.292-0.23-0.299-0.414-0.016-0.645c0.17-0.139,0.304-0.321,0.472-0.461c0.907-0.756,1.626-1.471,0.823-2.827
		c-0.445-0.751-0.109-1.68,0.468-2.381c0.365-0.444,0.775-0.863,1.219-1.228c0.941-0.775,2.014-0.918,3.072-0.315
		c0.976,0.556,1.905,1.205,2.809,1.875C79.541,26.6,79.864,27.355,79.847,28.24z"/>
	<path fill-rule="evenodd" clip-rule="evenodd" fill="#F8B6B6" d="M37.215,37.342c3.553,2.083,7.029,2.061,10.569,0.016
		c0,1.993-0.009,3.854,0.009,5.716c0.003,0.351-0.151,0.478-0.448,0.565c-1.474,0.434-2.945,0.876-4.415,1.324
		c-0.332,0.101-0.644,0.062-0.966-0.037c-1.39-0.428-2.779-0.859-4.177-1.256c-0.396-0.112-0.591-0.246-0.584-0.709
		C37.232,41.147,37.215,39.332,37.215,37.342z"/>
	<path fill-rule="evenodd" clip-rule="evenodd" fill="#F7B6B6" d="M27.989,21.362c-0.168,0.527,0.442,1.456-0.863,1.34
		c-1.178-0.104-1.802-0.479-1.797-1.351c0.005-0.871,0.622-1.236,1.81-1.335C28.456,19.907,27.809,20.85,27.989,21.362z"/>
	<path fill-rule="evenodd" clip-rule="evenodd" fill="#F7B6B6" d="M57.861,20.048c0.775-0.054,1.357,0.088,1.681,0.769
		c0.24,0.505,0.145,0.966-0.187,1.385c-0.313,0.397-1.726,0.694-2.162,0.464c-0.062-0.033-0.145-0.109-0.146-0.166
		c-0.009-0.77-0.087-1.552,0.03-2.303C57.137,19.819,57.669,20.174,57.861,20.048z"/>
	<path fill-rule="evenodd" clip-rule="evenodd" d="M37.263,49.104c1.273,0,1.273,0,1.273,1.287c0,1.354,0,1.354-1.37,1.354
		c-1.272,0-1.272,0-1.272-1.287C35.894,49.104,35.894,49.104,37.263,49.104z"/>
	<path fill-rule="evenodd" clip-rule="evenodd" d="M37.263,54.388c1.273,0,1.273,0,1.273,1.288c0,1.354,0,1.354-1.37,1.354
		c-1.272,0-1.272,0-1.272-1.288C35.894,54.388,35.894,54.388,37.263,54.388z"/>
	<path fill-rule="evenodd" clip-rule="evenodd" d="M42.524,22.681c2.912,0.004,5.278,2.402,5.258,5.327
		c-0.02,2.917-2.415,5.264-5.348,5.241c-2.873-0.023-5.223-2.404-5.217-5.286C37.224,25.04,39.597,22.676,42.524,22.681z"/>
	<path fill-rule="evenodd" clip-rule="evenodd" d="M46.437,20.038c-0.688,0-1.375-0.022-2.061,0.008
		c-0.411,0.018-0.557-0.079-0.568-0.532c-0.057-2.119-0.073-2.118,2.024-2.118c0.906,0,1.813,0.019,2.719-0.009
		c0.411-0.012,0.557,0.079,0.568,0.533c0.057,2.119,0.073,2.118-2.023,2.118C46.876,20.038,46.655,20.038,46.437,20.038z"/>
	<path fill-rule="evenodd" clip-rule="evenodd" d="M38.604,20.038c-0.714,0-1.43-0.031-2.142,0.011
		c-0.488,0.029-0.575-0.158-0.58-0.604c-0.024-2.049-0.039-2.049,2.008-2.049c0.907,0,1.814,0.028,2.719-0.011
		c0.487-0.021,0.574,0.158,0.58,0.604c0.024,2.049,0.038,2.049-2.008,2.049C38.989,20.038,38.797,20.038,38.604,20.038z"/>
	<path fill-rule="evenodd" clip-rule="evenodd" d="M66.281,19.003c-0.433-1.611,0.374-2.664,1.494-3.697
		c1.737-1.603,3.377-3.313,5.025-5.008c0.39-0.401,0.595-0.361,0.966,0.011c1.399,1.405,1.413,1.392,0.04,2.765
		c-1.459,1.458-2.906,2.929-4.383,4.368c-0.362,0.353-0.546,0.699-0.513,1.216c0.047,0.712-0.01,1.43,0.021,2.144
		c0.018,0.415-0.086,0.557-0.537,0.57c-2.114,0.06-2.113,0.077-2.113-2.039C66.281,19.223,66.281,19.113,66.281,19.003z"/>
	<path fill-rule="evenodd" clip-rule="evenodd" fill="#FCA4A2" d="M42.492,25.325c1.448,0.002,2.631,1.17,2.646,2.611
		c0.016,1.473-1.198,2.684-2.673,2.665c-1.441-0.018-2.605-1.203-2.604-2.65C39.861,26.524,41.066,25.323,42.492,25.325z"/>
</g>
</svg>
