<?xml version="1.0" encoding="utf-8"?>
<!-- Generator: Adobe Illustrator 16.0.0, SVG Export Plug-In . SVG Version: 6.00 Build 0)  -->
<!DOCTYPE svg PUBLIC "-//W3C//DTD SVG 1.1//EN" "http://www.w3.org/Graphics/SVG/1.1/DTD/svg11.dtd">
<svg version="1.1" id="Layer_1" xmlns="http://www.w3.org/2000/svg" xmlns:xlink="http://www.w3.org/1999/xlink" x="0px" y="0px"
	 width="85px" height="85px" viewBox="0 0 85 85" enable-background="new 0 0 85 85" xml:space="preserve">
<g>
	<g>
		<path fill="#FFD2C8" d="M40.597,3.299v58.24L66.998,74.66h3.359c1.76,0,3.359,1.438,3.359,3.357c0,0.801-0.32,1.762-0.961,2.4
			c-0.639,0.639-1.439,0.961-2.398,0.961c-6.721,0-44.161,0.16-49.44,0c-7.68,1.92-12.641-2.561-6.561-13.121V3.298L40.597,3.299
			L40.597,3.299z"/>
		<path fill="#F2F2F2" d="M14.197,29.701h26.4v31.84l17.76,8.799l-5.439,10.881L16.117,82.5c-6.4-3.84-7.199-8.641-0.48-14.561
			L14.197,29.701z"/>
		<path d="M17.556,82.5c-2.559,0-4.479-0.801-5.76-2.4c-1.92-2.561-1.439-6.881,1.441-12.16V42.98l0,0V25.22
			c0-0.48,0.318-0.8,0.799-0.8c0.479,0,0.801,0.319,0.801,0.8v3.68h24.799V3.3c0-0.48,0.32-0.801,0.801-0.801
			s0.801,0.32,0.801,0.801v36.96l0,0v20.8l17.438,8.641l0,0l0,0l8.48,4.16h3.199c1.119,0,2.08,0.479,2.881,1.279
			s1.119,1.76,1.119,2.879c0,1.121-0.479,2.08-1.279,2.881s-1.76,1.119-2.879,1.119l0,0c-1.602,0-5.121,0-9.441,0
			c-2.398,0-5.119,0-7.84,0h-0.16c-12.799,0-28.319,0-31.838,0C19.636,82.34,18.517,82.5,17.556,82.5z M14.037,70.02
			c-1.92,4-2.24,7.199-0.959,9.119c0.799,0.961,2.08,1.602,3.68,1.762c0,0,0,0,0-0.16l22.24-23.84c0.16-0.16,0.48-0.32,0.799-0.16
			v-2.4h-9.6c0,0.16,0,0.48-0.16,0.641L14.837,70.02C14.517,70.02,14.357,70.18,14.037,70.02z M39.796,58.5L18.998,80.898
			c0.48,0,1.119-0.16,1.6-0.318h0.16c1.439,0,5.279,0,10.08,0l8.799-19.201V58.5H39.796L39.796,58.5z M32.757,80.58
			c2.721,0,5.92,0,8.959,0c0-0.16,0-0.32,0-0.48l6.241-13.92l-7.04-3.52L32.757,80.58z M49.396,66.82l-6.238,13.76
			c3.039,0,6.078,0,9.119,0l4.959-9.76L49.396,66.82z M58.676,71.459l-4.479,9.121c2.398,0,4.641,0,6.561,0c4.479,0,7.84,0,9.6,0
			c0.641,0,1.279-0.32,1.762-0.641c0.479-0.48,0.799-1.121,0.799-1.762c0-0.639-0.32-1.279-0.799-1.76
			c-0.48-0.479-1.121-0.799-1.762-0.799h-3.359c-0.16,0-0.32,0-0.32-0.16L58.676,71.459z M14.998,54.18v13.119L28.277,54.18H14.998z
			 M14.998,52.58h24.799V41.059l-24.799,2.56V52.58z M14.998,30.5v11.52l24.799-2.56V30.5H14.998z M14.197,20.099
			c-0.48,0-0.799-0.32-0.799-0.8v-1.44c0-0.479,0.318-0.8,0.799-0.8s0.801,0.32,0.801,0.8v1.44
			C14.998,19.779,14.677,20.099,14.197,20.099z M14.197,12.74c-0.48,0-0.799-0.319-0.799-0.799V3.3c0-0.48,0.318-0.801,0.799-0.801
			s0.801,0.32,0.801,0.801v8.641C14.998,12.419,14.677,12.74,14.197,12.74z"/>
	</g>
</g>
</svg>
