<?xml version="1.0" encoding="utf-8"?>
<!-- Generator: Adobe Illustrator 16.0.0, SVG Export Plug-In . SVG Version: 6.00 Build 0)  -->
<!DOCTYPE svg PUBLIC "-//W3C//DTD SVG 1.1//EN" "http://www.w3.org/Graphics/SVG/1.1/DTD/svg11.dtd">
<svg version="1.1" id="Layer_1" xmlns="http://www.w3.org/2000/svg" xmlns:xlink="http://www.w3.org/1999/xlink" x="0px" y="0px"
	 width="85px" height="85px" viewBox="0 0 85 85" enable-background="new 0 0 85 85" xml:space="preserve">
<g>
	<g>
		<path fill="#A9E6FF" d="M81.713,9.758H3.291v13.097h78.422V9.758z"/>
		<path fill="#F2F2F2" d="M81.713,22.854H3.291v58.698h78.422V22.854z"/>
		<path fill="#3973B6" d="M19.701,68.614h-6.627v6.47h6.469v-6.47H19.701z M32.639,68.614H26.17v6.47h6.469V68.614L32.639,68.614z
			 M45.736,68.614h-6.471v6.47h6.471V68.614z M19.701,55.518h-6.627v6.469h6.469C19.701,61.986,19.701,55.518,19.701,55.518z
			 M32.639,55.518H26.17v6.469h6.469V55.518L32.639,55.518z M58.832,55.518h-6.469v6.469h6.469V55.518z M71.928,55.518h-6.469v6.469
			h6.469V55.518L71.928,55.518z M19.543,42.421h-6.471v6.469h6.471C19.701,49.048,19.701,42.421,19.543,42.421z M45.736,42.421
			h-6.471v6.469h6.471V42.421z M58.832,42.421h-6.469v6.469h6.469V42.421z M71.928,42.421h-6.469v6.469h6.469V42.421L71.928,42.421z
			 M19.543,29.481h-6.471v6.47h6.471C19.701,35.951,19.701,29.481,19.543,29.481z M32.639,29.481H26.17v6.47h6.469V29.481
			L32.639,29.481z M45.736,29.481h-6.471v6.47h6.471V29.481z M71.928,29.481h-6.469v6.47h6.469V29.481L71.928,29.481z"/>
		<path fill="#DB667E" d="M45.736,58.831c0-1.736-1.42-3.313-3.314-3.313c-1.893,0-3.312,1.42-3.312,3.313
			c0,1.893,1.42,3.312,3.312,3.312l0,0C44.316,61.986,45.736,60.566,45.736,58.831z M32.639,45.734c0-1.735-1.42-3.313-3.312-3.313
			c-1.736,0-3.314,1.42-3.314,3.313c0,1.735,1.422,3.313,3.314,3.313l0,0C31.219,49.048,32.639,47.47,32.639,45.734z M58.832,32.638
			c0-1.736-1.42-3.314-3.312-3.314c-0.789,0-1.734,0.316-2.209,0.947c-0.631,0.631-0.945,1.42-0.945,2.209v0.158
			c0,0.789,0.314,1.578,0.945,2.209s1.42,0.947,2.209,0.947C57.412,35.951,58.832,34.531,58.832,32.638z"/>
		<path fill="#FFEC73" d="M45.736,3.289h-6.471v13.097h6.471V3.289z M22.857,3.289h-6.471v13.097h6.471V3.289z M68.615,3.289h-6.627
			v13.097h6.471L68.615,3.289L68.615,3.289z"/>
		<path d="M81.555,82.5H48.891c-0.473,0-0.787-0.316-0.787-0.789c0-0.475,0.314-0.789,0.787-0.789h31.875V23.644H4.078v57.278
			h31.875c0.473,0,0.789,0.314,0.789,0.789c0,0.473-0.316,0.789-0.789,0.789H3.289c-0.473,0-0.789-0.316-0.789-0.789V9.758
			c0-0.473,0.316-0.789,0.789-0.789h12.309v-5.68c0-0.475,0.314-0.789,0.789-0.789h6.469c0.475,0,0.789,0.314,0.789,0.789v5.68
			h14.674v-5.68C38.477,2.814,38.793,2.5,39.266,2.5h6.469c0.475,0,0.789,0.314,0.789,0.789v5.68h14.676v-5.68
			c0-0.475,0.314-0.789,0.789-0.789h6.627c0.473,0,0.789,0.314,0.789,0.789c0,0.158,0,0.158,0,0.314v5.523h12.307
			c0.475,0,0.789,0.314,0.789,0.789v13.097c0,0.158,0,0.158,0,0.316v58.54C82.342,82.026,82.027,82.5,81.555,82.5z M4.078,22.065
			h76.844V10.547H69.404v5.68c0,0.474-0.316,0.789-0.789,0.789h-6.471c-0.473,0-0.787-0.315-0.787-0.789v-5.68H46.682v5.68
			c0,0.474-0.314,0.789-0.789,0.789h-6.471c-0.473,0-0.789-0.315-0.789-0.789v-5.68H23.959v5.68c0,0.474-0.314,0.789-0.789,0.789
			h-6.785c-0.475,0-0.789-0.315-0.789-0.789v-5.68H4.076v11.519H4.078z M62.777,15.597h4.893V4.078h-4.893V15.597z M40.055,15.597
			h4.893V4.078h-4.893V15.597z M17.176,15.597h4.893V4.078h-4.893V15.597z M43.211,82.5h-1.578c-0.473,0-0.789-0.316-0.789-0.789
			c0-0.475,0.316-0.789,0.789-0.789h1.578c0.475,0,0.789,0.314,0.789,0.789C44,82.184,43.686,82.5,43.211,82.5z M45.736,75.872
			h-6.471c-0.473,0-0.787-0.315-0.787-0.789v-6.47c0-0.474,0.314-0.789,0.787-0.789h6.471c0.473,0,0.789,0.315,0.789,0.789v6.47
			C46.525,75.557,46.209,75.872,45.736,75.872z M40.055,74.294h4.893v-4.892h-4.893V74.294z M32.639,75.872H26.17
			c-0.473,0-0.789-0.315-0.789-0.789v-6.47c0-0.474,0.314-0.789,0.789-0.789h6.469c0.475,0,0.789,0.315,0.789,0.789v6.47
			C33.428,75.557,33.113,75.872,32.639,75.872z M26.959,74.294h4.893v-4.892h-4.893V74.294z M19.701,75.872h-6.627
			c-0.473,0-0.789-0.315-0.789-0.789v-6.47c0-0.474,0.314-0.789,0.789-0.789h6.469c0.473,0,0.789,0.315,0.789,0.789v6.47
			C20.49,75.557,20.016,75.872,19.701,75.872z M13.861,74.294h4.893v-4.892h-4.893V74.294z M71.928,62.934h-6.627
			c-0.473,0-0.789-0.314-0.789-0.789v-6.47c0-0.473,0.316-0.789,0.789-0.789h6.627c0.475,0,0.789,0.316,0.789,0.789v6.47
			C72.717,62.46,72.402,62.934,71.928,62.934z M66.09,61.355h5.049v-4.892H66.09V61.355z M58.832,62.934h-6.469
			c-0.475,0-0.789-0.314-0.789-0.789v-6.47c0-0.473,0.314-0.789,0.789-0.789h6.469c0.475,0,0.789,0.316,0.789,0.789v6.47
			C59.621,62.46,59.305,62.934,58.832,62.934z M52.994,61.355h4.893v-4.892h-4.893V61.355z M42.422,62.934
			c-2.209,0-4.104-1.894-4.104-4.103s1.895-4.104,4.104-4.104s4.104,1.895,4.104,4.104S44.631,62.934,42.422,62.934z M42.422,56.307
			c-1.42,0-2.523,1.104-2.523,2.524s1.104,2.523,2.523,2.523s2.523-1.104,2.523-2.523S43.842,56.307,42.422,56.307z M32.639,62.934
			H26.17c-0.473,0-0.789-0.314-0.789-0.789v-6.47c0-0.473,0.314-0.789,0.789-0.789h6.469c0.475,0,0.789,0.316,0.789,0.789v6.47
			C33.428,62.46,33.113,62.934,32.639,62.934z M26.959,61.355h4.893v-4.892h-4.893V61.355z M19.701,62.934h-6.627
			c-0.473,0-0.789-0.314-0.789-0.789v-6.47c0-0.473,0.314-0.789,0.789-0.789h6.469c0.473,0,0.789,0.316,0.789,0.789v6.47
			C20.49,62.46,20.016,62.934,19.701,62.934z M13.861,61.355h4.893v-4.892h-4.893V61.355z M71.928,49.837h-6.627
			c-0.473,0-0.789-0.315-0.789-0.789v-6.47c0-0.474,0.316-0.789,0.789-0.789h6.627c0.475,0,0.789,0.314,0.789,0.789v6.47
			C72.717,49.363,72.402,49.837,71.928,49.837z M66.09,48.259h5.049v-4.892H66.09V48.259z M58.832,49.837h-6.469
			c-0.475,0-0.789-0.315-0.789-0.789v-6.47c0-0.474,0.314-0.789,0.789-0.789h6.469c0.475,0,0.789,0.314,0.789,0.789v6.47
			C59.621,49.363,59.305,49.837,58.832,49.837z M52.994,48.259h4.893v-4.892h-4.893V48.259z M45.736,49.837h-6.471
			c-0.473,0-0.787-0.315-0.787-0.789v-6.47c0-0.474,0.314-0.789,0.787-0.789h6.471c0.473,0,0.789,0.314,0.789,0.789v6.47
			C46.525,49.363,46.209,49.837,45.736,49.837z M40.055,48.259h4.893v-4.892h-4.893V48.259z M19.701,49.837h-6.627
			c-0.473,0-0.789-0.315-0.789-0.789v-6.47c0-0.474,0.314-0.789,0.789-0.789h6.469c0.473,0,0.789,0.314,0.789,0.789v6.47
			C20.49,49.363,20.016,49.837,19.701,49.837z M13.861,48.259h4.893v-4.892h-4.893V48.259z M29.484,49.837
			c-2.209,0-4.104-1.895-4.104-4.104s1.893-4.103,4.104-4.103c2.209,0,4.102,1.894,4.102,4.103
			C33.428,47.943,31.693,49.837,29.484,49.837z M29.326,43.21c-1.42,0-2.525,1.104-2.525,2.523s1.104,2.524,2.525,2.524
			c1.42,0,2.523-1.104,2.523-2.524S30.746,43.21,29.326,43.21z M55.52,36.74c-1.105,0-2.053-0.474-2.842-1.104
			c-0.789-0.789-1.104-1.736-1.104-2.84v-0.158c0-1.104,0.473-2.051,1.104-2.84c0.789-0.789,1.736-1.104,2.842-1.104
			c2.209,0,4.102,1.736,4.102,4.104l0,0C59.621,34.847,57.729,36.74,55.52,36.74L55.52,36.74z M55.52,30.271
			c-0.633,0-1.264,0.316-1.736,0.631c-0.473,0.474-0.631,1.104-0.631,1.736v0.158c0,0.631,0.314,1.262,0.631,1.735
			c0.475,0.474,1.104,0.632,1.736,0.632l0,0c1.42,0,2.523-1.104,2.523-2.524C58.043,31.375,56.939,30.271,55.52,30.271z
			 M71.928,36.74h-6.627c-0.473,0-0.789-0.314-0.789-0.788v-6.47c0-0.474,0.316-0.789,0.789-0.789h6.627
			c0.475,0,0.789,0.315,0.789,0.789v6.47C72.717,36.425,72.402,36.74,71.928,36.74z M66.09,35.162h5.049V30.27H66.09V35.162z
			 M45.736,36.74h-6.471c-0.473,0-0.787-0.314-0.787-0.788v-6.47c0-0.474,0.314-0.789,0.787-0.789h6.471
			c0.473,0,0.789,0.315,0.789,0.789v6.47C46.525,36.425,46.209,36.74,45.736,36.74z M40.055,35.162h4.893V30.27h-4.893V35.162z
			 M32.639,36.74H26.17c-0.473,0-0.789-0.314-0.789-0.788v-6.47c0-0.474,0.314-0.789,0.789-0.789h6.469
			c0.475,0,0.789,0.315,0.789,0.789v6.47C33.428,36.425,33.113,36.74,32.639,36.74z M26.959,35.162h4.893V30.27h-4.893V35.162z
			 M19.701,36.74h-6.627c-0.473,0-0.789-0.314-0.789-0.788v-6.47c0-0.474,0.314-0.789,0.789-0.789h6.469
			c0.473,0,0.789,0.315,0.789,0.789v6.47C20.49,36.425,20.016,36.74,19.701,36.74z M13.861,35.162h4.893V30.27h-4.893V35.162z"/>
	</g>
</g>
</svg>
