<?xml version="1.0" encoding="utf-8"?>
<!-- Generator: Adobe Illustrator 16.0.0, SVG Export Plug-In . SVG Version: 6.00 Build 0)  -->
<!DOCTYPE svg PUBLIC "-//W3C//DTD SVG 1.1//EN" "http://www.w3.org/Graphics/SVG/1.1/DTD/svg11.dtd">
<svg version="1.1" id="Layer_1" xmlns="http://www.w3.org/2000/svg" xmlns:xlink="http://www.w3.org/1999/xlink" x="0px" y="0px"
	 width="85px" height="85px" viewBox="0 0 85 85" enable-background="new 0 0 85 85" xml:space="preserve">
<g>
	<path fill="#CCCCCC" d="M27.276,23.233L8.518,4.476c-0.975-0.975-2.553-0.975-3.526,0L3.934,5.532l4.289,7.043l2.293-0.459
		l2.82,2.82l-1.664,1.664l2.604,3.039l0.94-0.941l2.821,2.822l-1.158,1.158l4.264,4.973c-2.787,4.217-2.254,9.982,1.596,13.609
		c4.021,3.787,10.367,3.84,14.447,0.119c4.516-4.117,4.637-11.121,0.363-15.393C34.768,23.202,30.826,22.286,27.276,23.233z
		 M34.026,37.507c-1.039,1.039-2.723,1.039-3.762,0c-1.037-1.039-1.039-2.725,0-3.764c1.039-1.037,2.723-1.037,3.762,0
		C35.063,34.782,35.065,36.468,34.026,37.507z"/>
	<path fill="#B2B2B2" d="M4.992,4.476L3.934,5.532l4.289,7.043l2.293-0.459l2.82,2.82l-1.664,1.664l2.604,3.039l0.94-0.941
		l2.821,2.822l-1.158,1.158l4.264,4.973c-2.787,4.217-2.254,9.982,1.596,13.609c2.894,2.725,6.994,3.516,10.586,2.357
		c-4.416-0.971-8.809-4.777-9.445-7.957c-0.693-3.473,0.062-5.854,0.944-7.34L5.352,4.177C5.227,4.265,5.104,4.362,4.992,4.476z"/>
	<path fill="#FFD791" d="M44.394,44.583l-0.941,14.105l22.57,22.568L81.067,66.21L58.499,43.642L44.394,44.583z M55.901,56.091
		c-1.559,1.559-4.084,1.559-5.643,0s-1.559-4.084,0-5.643s4.084-1.559,5.643,0C57.458,52.007,57.458,54.532,55.901,56.091z"/>
	<polygon fill="#F8BE73" points="43.452,58.687 66.022,81.257 69.356,77.921 43.831,52.989 	"/>
	<polygon fill="#FF8C78" points="58.458,64.921 65.257,72.146 71.841,65.563 65.964,59.687 59.788,59.601 	"/>
	<g>
		<path fill="#C4DF64" d="M71.759,39.319c-1.939-2.473-4.707-2.91-5.32-2.992c0.613-0.082,3.381-0.518,5.32-2.99
			c1.355-1.73,1.604-3.559,1.662-4.322c0.059,0.764,0.307,2.592,1.662,4.322c1.939,2.473,4.705,2.91,5.318,2.99
			c-0.613,0.082-3.379,0.52-5.318,2.992c-1.355,1.73-1.604,3.559-1.662,4.322C73.362,42.878,73.114,41.05,71.759,39.319z"/>
		<path fill="#C4DF64" d="M39.84,14.052c-1.939-2.475-4.706-2.91-5.32-2.992c0.614-0.082,3.381-0.518,5.32-2.992
			c1.355-1.729,1.604-3.557,1.662-4.322c0.059,0.766,0.307,2.594,1.663,4.322c1.939,2.475,4.705,2.912,5.32,2.992
			c-0.615,0.082-3.381,0.52-5.32,2.992c-1.356,1.73-1.604,3.559-1.663,4.322C41.444,17.608,41.198,15.782,39.84,14.052z"/>
		<path fill="#C4DF64" d="M22.553,65.919c-1.941-2.475-4.707-2.912-5.32-2.992c0.613-0.082,3.379-0.52,5.32-2.992
			c1.355-1.73,1.604-3.559,1.662-4.322c0.059,0.766,0.307,2.59,1.662,4.322c1.939,2.473,4.706,2.91,5.318,2.992
			c-0.612,0.08-3.379,0.518-5.318,2.992c-1.355,1.729-1.604,3.557-1.662,4.32C24.157,69.474,23.909,67.647,22.553,65.919z"/>
	</g>
	<path d="M81.948,65.329L59.382,42.761c-0.254-0.254-0.607-0.387-0.967-0.363l-11.395,0.76l-5.368-7.156
		c0.152-0.723,0.242-1.461,0.258-2.217c0.076-3.277-1.158-6.361-3.477-8.68c-2.816-2.814-6.883-4.023-10.767-3.242l-4.37-4.371
		c-0.486-0.486-1.275-0.486-1.763,0s-0.487,1.277,0,1.764l4.86,4.859c0.314,0.316,0.772,0.439,1.203,0.324
		c3.233-0.863,6.711,0.068,9.071,2.43c1.832,1.832,2.808,4.268,2.749,6.859c-0.043,1.904-0.646,3.701-1.727,5.215l-2.041-1.602
		c0.638-1.309,0.488-2.912-0.393-4.074c-0.849-1.121-2.268-1.703-3.658-1.508c-1.383,0.191-2.584,1.139-3.093,2.439
		c-0.497,1.271-0.286,2.75,0.554,3.828c1.129,1.447,3.178,1.918,4.823,1.098l2.099,1.648c-3.605,2.963-8.957,2.814-12.389-0.42
		c-3.339-3.145-3.932-8.197-1.41-12.014c0.308-0.465,0.27-1.076-0.094-1.498l-3.512-4.1l0.341-0.34c0.487-0.486,0.487-1.275,0-1.764
		l-2.821-2.82c-0.476-0.477-1.27-0.48-1.75-0.012l-0.978-1.139l0.848-0.848c0.487-0.486,0.487-1.275,0-1.764l-2.821-2.82
		c-0.295-0.295-0.717-0.424-1.125-0.342l-1.438,0.289L5.508,5.724l0.365-0.365c0.486-0.486,1.277-0.486,1.763,0l9.909,9.908
		c0.486,0.486,1.275,0.486,1.764,0c0.486-0.488,0.486-1.277,0-1.764l-9.91-9.908c-1.457-1.459-3.832-1.459-5.289,0L3.051,4.651
		C2.645,5.06,2.569,5.69,2.868,6.183l4.289,7.041c0.272,0.447,0.797,0.676,1.31,0.574l1.64-0.328l1.467,1.469l-0.781,0.781
		c-0.46,0.461-0.489,1.199-0.064,1.693l2.604,3.037c0.509,0.596,1.361,0.539,1.887,0.014l1.059,1.057L16,21.798
		c-0.46,0.461-0.489,1.197-0.065,1.691l3.678,4.291c-2.606,4.715-1.717,10.631,2.272,14.391c2.272,2.141,5.209,3.213,8.146,3.213
		c2.853,0,5.705-1.014,7.949-3.039l5.047,3.965l-0.821,12.297c-0.023,0.359,0.109,0.711,0.363,0.965L56.78,73.782
		c0.486,0.488,1.277,0.488,1.764,0c0.486-0.484,0.486-1.275,0-1.762L44.731,58.208l0.67-10.033l3.145,2.473
		c-0.459,0.789-0.705,1.688-0.705,2.625c0,1.713,0.857,3.34,2.268,4.314c1.385,0.957,3.201,1.182,4.779,0.602
		c1.477-0.543,2.654-1.76,3.152-3.248c0.471-1.406,0.318-2.982-0.418-4.27c-0.924-1.617-2.684-2.637-4.545-2.637
		c-1.004,0-1.965,0.283-2.793,0.809l-3.988-3.135l11.719-0.781l21.287,21.287L66.021,79.495l-3.486-3.484
		c-0.488-0.486-1.275-0.486-1.764,0c-0.486,0.486-0.486,1.275,0,1.764l4.367,4.367c0.48,0.479,1.281,0.479,1.764,0l15.045-15.047
		C82.437,66.604,82.437,65.815,81.948,65.329z M40.661,38.835l3.409,4.543c-0.166,0.045-0.316,0.121-0.447,0.225l-3.967-3.117
		C40.038,39.962,40.372,39.409,40.661,38.835z M31.145,34.626c0.424-0.424,1.09-0.531,1.627-0.268
		c0.533,0.266,0.846,0.85,0.772,1.439c-0.797-0.236-1.621,0.391-1.601,1.225C30.811,36.862,30.34,35.431,31.145,34.626z
		 M53.079,50.526c1.803,0,3.131,1.779,2.635,3.504c-0.471,1.639-2.381,2.439-3.891,1.674c-0.908-0.461-1.486-1.42-1.486-2.436
		c0-0.367,0.072-0.725,0.211-1.055l0.492,0.387c0.533,0.42,1.33,0.324,1.75-0.209c0.426-0.541,0.33-1.326-0.211-1.752l-0.068-0.053
		C52.696,50.548,52.886,50.526,53.079,50.526z"/>
	<path d="M64.376,73.028c0.479,0.48,1.283,0.48,1.764,0l6.582-6.582c0.486-0.486,0.486-1.275,0-1.764l-4.418-4.42
		c0.641-0.029,1.336,0.02,1.746-0.58c0.568-0.834-0.084-1.99-1.092-1.947l-9.871,0.473c-0.629,0.029-1.164,0.553-1.188,1.186
		l-0.166,3.467l-0.059-0.059c-0.486-0.486-1.275-0.486-1.764,0c-0.486,0.488-0.486,1.275,0,1.764l1.662,1.662l-0.146,3.039
		c-0.031,0.689,0.5,1.271,1.188,1.305c0.021,0.002,0.039,0.002,0.061,0.002c0.662,0,1.213-0.52,1.244-1.188l0.035-0.775
		L64.376,73.028z M60.337,60.644l4.621-0.221c0.037,0.051,5.119,5.141,5.119,5.141l-1.527,1.527l-2.881-2.879
		c-0.486-0.486-1.275-0.486-1.764,0c-0.486,0.486-0.486,1.275,0,1.764l2.879,2.879l-1.525,1.529l-5.143-5.143L60.337,60.644z"/>
	<path d="M66.274,37.563c0.846,0.111,2.98,0.584,4.502,2.525c1.084,1.381,1.342,2.877,1.4,3.646c0.051,0.65,0.592,1.152,1.244,1.152
		c0.65,0,1.193-0.502,1.242-1.152c0.059-0.77,0.318-2.268,1.4-3.646c1.523-1.943,3.656-2.414,4.502-2.527
		c0.621-0.082,1.084-0.611,1.084-1.236s-0.463-1.152-1.084-1.234c-0.846-0.113-2.979-0.584-4.502-2.527
		c-1.082-1.379-1.342-2.877-1.4-3.646c-0.049-0.65-0.592-1.152-1.242-1.152c-0.652,0-1.193,0.502-1.244,1.152
		c-0.059,0.77-0.316,2.268-1.398,3.646c-1.523,1.943-3.656,2.414-4.504,2.527c-0.619,0.082-1.082,0.609-1.082,1.234
		S65.655,37.481,66.274,37.563z M72.739,34.104c0.26-0.332,0.486-0.666,0.684-1c0.781,1.33,1.9,2.445,3.232,3.223
		c-1.332,0.777-2.451,1.893-3.232,3.223c-0.197-0.334-0.424-0.668-0.684-1l0,0c-0.781-0.998-1.678-1.711-2.553-2.223
		C71.062,35.815,71.956,35.103,72.739,34.104z"/>
	<path d="M34.356,12.296c0.847,0.111,2.979,0.584,4.502,2.525c1.082,1.379,1.342,2.877,1.4,3.646
		c0.051,0.65,0.592,1.152,1.244,1.152c0.65,0,1.193-0.502,1.242-1.152c0.059-0.77,0.319-2.268,1.401-3.646
		c1.523-1.941,3.656-2.414,4.502-2.525c0.619-0.082,1.082-0.611,1.082-1.236s-0.463-1.154-1.082-1.236
		c-0.846-0.111-2.979-0.584-4.502-2.525c-1.082-1.379-1.342-2.877-1.401-3.646c-0.049-0.65-0.592-1.152-1.242-1.152
		c-0.652,0-1.193,0.502-1.244,1.152c-0.059,0.77-0.318,2.268-1.4,3.646c-1.522,1.941-3.656,2.414-4.502,2.525
		c-0.621,0.082-1.084,0.611-1.084,1.236S33.737,12.214,34.356,12.296z M40.823,8.837c0.258-0.33,0.484-0.664,0.682-0.998
		c0.781,1.33,1.903,2.443,3.235,3.221c-1.332,0.779-2.454,1.893-3.235,3.223c-0.197-0.334-0.424-0.668-0.682-1l0,0
		c-0.783-0.998-1.678-1.711-2.553-2.223C39.143,10.55,40.04,9.835,40.823,8.837z"/>
	<path d="M31.36,61.688c-0.846-0.111-2.979-0.584-4.502-2.523c-1.082-1.383-1.342-2.879-1.399-3.648
		c-0.05-0.65-0.591-1.152-1.243-1.152s-1.193,0.502-1.244,1.152c-0.058,0.77-0.318,2.268-1.4,3.648
		c-1.522,1.939-3.655,2.412-4.502,2.523c-0.621,0.082-1.082,0.611-1.082,1.236s0.463,1.152,1.082,1.234
		c0.847,0.113,2.979,0.584,4.502,2.525c1.082,1.381,1.343,2.879,1.4,3.648c0.051,0.648,0.592,1.15,1.244,1.15
		s1.193-0.502,1.243-1.15c0.06-0.771,0.317-2.268,1.399-3.648c1.523-1.941,3.658-2.412,4.504-2.525
		c0.619-0.082,1.082-0.609,1.082-1.234S31.981,61.771,31.36,61.688z M24.895,65.147c-0.258,0.332-0.483,0.666-0.681,0.998
		c-0.196-0.332-0.422-0.666-0.681-0.998l0,0c-0.782-0.998-1.678-1.711-2.553-2.223c1.332-0.777,2.451-1.893,3.234-3.223
		c0.783,1.33,1.902,2.443,3.234,3.223C26.573,63.437,25.678,64.149,24.895,65.147z"/>
</g>
</svg>
