<?xml version="1.0" encoding="utf-8"?>
<!-- Generator: Adobe Illustrator 16.0.0, SVG Export Plug-In . SVG Version: 6.00 Build 0)  -->
<!DOCTYPE svg PUBLIC "-//W3C//DTD SVG 1.1//EN" "http://www.w3.org/Graphics/SVG/1.1/DTD/svg11.dtd">
<svg version="1.1" id="Layer_1" xmlns="http://www.w3.org/2000/svg" xmlns:xlink="http://www.w3.org/1999/xlink" x="0px" y="0px"
	 width="85px" height="85px" viewBox="0 0 85 85" enable-background="new 0 0 85 85" xml:space="preserve">
<g>
	<g enable-background="new    ">
		<path fill="#F15A29" d="M26.264,73.62h-7.737V24.302c-1.862,1.774-4.303,3.56-7.334,5.335c-3.02,1.773-5.737,3.106-8.153,4V26.15
			c4.329-2.038,8.115-4.504,11.348-7.397s5.535-5.699,6.882-8.43h4.982V73.62H26.264z"/>
	</g>
	<g enable-background="new    ">
		<path d="M26.791,74.159h-8.804V25.521c-1.772,1.545-3.961,3.082-6.523,4.581c-3.032,1.78-5.803,3.141-8.237,4.041L2.5,34.411
			V25.81l0.31-0.146c4.269-2.011,8.043-4.471,11.218-7.313c3.186-2.85,5.459-5.631,6.758-8.266l0.148-0.301h5.856V74.159z
			 M19.066,73.081h6.646V10.862h-4.111c-1.38,2.668-3.685,5.456-6.854,8.292c-3.177,2.843-6.932,5.31-11.168,7.337v6.361
			c2.195-0.871,4.661-2.107,7.34-3.682c2.949-1.726,5.383-3.495,7.235-5.26l0.911-0.868V73.081z"/>
	</g>
	<g enable-background="new    ">
		<path fill="#F15A29" d="M80.842,26.013l-7.7,0.604c-0.691-3.045-1.661-5.246-2.918-6.617c-2.09-2.202-4.669-3.31-7.738-3.31
			c-2.467,0-4.628,0.692-6.49,2.063c-2.442,1.773-4.354,4.379-5.764,7.787c-1.408,3.41-2.137,8.267-2.188,14.583
			c1.862-2.844,4.139-4.945,6.83-6.316c2.694-1.371,5.523-2.063,8.469-2.063c5.158,0,9.548,1.9,13.186,5.699
			c3.622,3.799,5.435,8.709,5.435,14.734c0,3.948-0.856,7.637-2.555,11.033c-1.71,3.396-4.05,6.002-7.033,7.8
			c-2.981,1.773-6.366,2.679-10.153,2.679c-6.453,0-11.711-2.376-15.774-7.12C42.367,62.824,40.341,55,40.341,44.104
			c0-12.179,2.254-21.049,6.759-26.571c3.924-4.819,9.222-7.222,15.864-7.222c4.957,0,9.021,1.396,12.191,4.177
			C78.312,17.269,80.213,21.105,80.842,26.013z M49.237,53.188c0,2.666,0.566,5.222,1.699,7.65c1.132,2.438,2.719,4.29,4.756,5.571
			c2.038,1.271,4.176,1.914,6.403,1.914c3.271,0,6.078-1.321,8.43-3.951c2.353-2.643,3.522-6.216,3.522-10.745
			c0-4.352-1.158-7.786-3.485-10.304c-2.328-2.504-5.247-3.761-8.769-3.761c-3.499,0-6.469,1.257-8.907,3.761
			C50.446,45.83,49.237,49.125,49.237,53.188z"/>
	</g>
	<g enable-background="new    ">
		<path d="M62.221,75.229c-6.585,0-12.031-2.46-16.187-7.309c-4.136-4.812-6.232-12.825-6.232-23.815
			c0-12.262,2.315-21.317,6.881-26.912c4.01-4.924,9.487-7.421,16.281-7.421c5.064,0,9.285,1.451,12.548,4.312
			c3.249,2.861,5.223,6.853,5.865,11.861l0.073,0.562l-8.73,0.685l-0.104-0.455c-0.667-2.938-1.605-5.082-2.789-6.372
			c-1.969-2.077-4.442-3.135-7.341-3.135c-2.331,0-4.406,0.659-6.171,1.959c-2.334,1.696-4.212,4.238-5.586,7.56
			c-1.245,3.013-1.955,7.262-2.115,12.645c1.706-2.197,3.724-3.897,6.015-5.064c2.767-1.408,5.696-2.124,8.714-2.124
			c5.282,0,9.85,1.975,13.575,5.867c3.705,3.886,5.583,8.968,5.583,15.106c0,4.016-0.878,7.811-2.609,11.273
			c-1.757,3.485-4.19,6.182-7.238,8.022C69.578,74.301,66.069,75.229,62.221,75.229z M62.964,10.851
			c-6.453,0-11.649,2.363-15.448,7.023c-4.4,5.398-6.635,14.224-6.635,26.23c0,10.727,2.011,18.501,5.974,23.113
			c3.94,4.6,9.11,6.933,15.366,6.933c3.649,0,6.975-0.877,9.878-2.604c2.869-1.729,5.165-4.282,6.827-7.579
			c1.655-3.314,2.496-6.944,2.496-10.791c0-5.851-1.778-10.684-5.284-14.361c-3.514-3.671-7.819-5.532-12.796-5.532
			c-2.846,0-5.611,0.674-8.221,2.003c-2.603,1.325-4.829,3.388-6.626,6.131l-1.006,1.536l0.014-1.834
			c0.053-6.353,0.801-11.326,2.231-14.784c1.448-3.508,3.449-6.205,5.943-8.018c1.951-1.438,4.242-2.167,6.808-2.167
			c3.206,0,5.94,1.17,8.13,3.477c1.27,1.387,2.234,3.486,2.946,6.415l6.667-0.522c-0.68-4.478-2.504-8.051-5.43-10.627
			C71.739,12.211,67.758,10.851,62.964,10.851z M62.096,68.862c-2.316,0-4.567-0.671-6.69-1.994
			c-2.124-1.337-3.791-3.289-4.957-5.803c-1.161-2.488-1.751-5.139-1.751-7.877c0-4.207,1.281-7.652,3.803-10.241
			c2.54-2.604,5.667-3.924,9.294-3.924c3.654,0,6.737,1.323,9.163,3.935c2.408,2.602,3.63,6.192,3.63,10.67
			c0,4.642-1.231,8.378-3.659,11.105C68.475,67.475,65.504,68.862,62.096,68.862z M61.794,40.103c-3.327,0-6.192,1.211-8.521,3.599
			c-2.321,2.379-3.497,5.572-3.497,9.487c0,2.58,0.554,5.077,1.646,7.422c1.079,2.323,2.613,4.122,4.558,5.343
			c1.944,1.216,4.004,1.832,6.115,1.832c3.131,0,5.76-1.233,8.029-3.771c2.244-2.523,3.384-6.018,3.384-10.386
			c0-4.196-1.123-7.539-3.343-9.938C67.922,41.276,65.183,40.103,61.794,40.103z"/>
	</g>
</g>
</svg>
