<?xml version="1.0" encoding="utf-8"?>
<!-- Generator: Adobe Illustrator 16.0.0, SVG Export Plug-In . SVG Version: 6.00 Build 0)  -->
<!DOCTYPE svg PUBLIC "-//W3C//DTD SVG 1.1//EN" "http://www.w3.org/Graphics/SVG/1.1/DTD/svg11.dtd">
<svg version="1.1" id="Layer_1" xmlns="http://www.w3.org/2000/svg" xmlns:xlink="http://www.w3.org/1999/xlink" x="0px" y="0px"
	 width="85px" height="85px" viewBox="0 0 85 85" enable-background="new 0 0 85 85" xml:space="preserve">
<g>
	<path fill="#F16D99" d="M63.168,26.652H21.83l-6.889,9.646h55.117L63.168,26.652z M67.143,17.008H17.855
		c-1.611,0-2.916-1.306-2.916-2.915V6.144c0-1.608,1.305-2.916,2.916-2.916h49.287c1.609,0,2.916,1.306,2.916,2.916v7.949
		C70.059,15.702,68.752,17.008,67.143,17.008"/>
	<path fill="#F16D99" d="M31.475,3.229h22.049v13.78H31.475V3.229z"/>
	<path fill="#FEEE7A" d="M67.301,81.77H17.697c-1.523,0-2.756-1.232-2.756-2.757V36.3h55.117v42.713
		C70.059,80.537,68.822,81.77,67.301,81.77 M21.83,17.009h41.338v9.645H21.83V17.009z"/>
	<path fill="#C1E7F1" d="M59.033,59.036c0,9.132-7.404,16.533-16.535,16.533c-9.133,0-16.537-7.401-16.537-16.533
		c0-9.135,7.404-16.535,16.537-16.535C51.629,42.501,59.033,49.901,59.033,59.036"/>
	<path fill="#8ACC9C" d="M42.498,45.256c-4.756,2.756-7.963,7.888-7.963,13.78c0,5.892,3.207,11.022,7.963,13.778
		c4.756-2.756,7.965-7.888,7.965-13.778C50.463,53.143,47.254,48.012,42.498,45.256"/>
	<path fill="#010101" d="M67.299,82.5H17.695c-1.92,0-3.484-1.564-3.484-3.486V36.301c0-0.165,0.055-0.316,0.146-0.438l6.879-9.632
		c0.137-0.19,0.357-0.305,0.594-0.305h41.336c0.236,0,0.457,0.113,0.594,0.305l6.891,9.646c0.1,0.139,0.146,0.306,0.135,0.471
		v33.195c0,0.402-0.326,0.729-0.729,0.729s-0.729-0.326-0.729-0.729V37.03h-53.66v41.985c0,1.118,0.91,2.028,2.027,2.028h49.604
		c1.119,0,2.027-0.91,2.027-2.028V75.4c0-0.402,0.328-0.729,0.729-0.729c0.402,0,0.73,0.326,0.73,0.729v3.615
		C70.785,80.935,69.223,82.5,67.299,82.5z M16.357,35.569h52.285l-5.852-8.188H22.205L16.357,35.569z M70.059,73.545
		c-0.402,0-0.73-0.327-0.73-0.729v-0.518c0-0.403,0.328-0.729,0.73-0.729c0.4,0,0.729,0.326,0.729,0.729v0.518
		C70.785,73.218,70.459,73.545,70.059,73.545z M67.301,17.737H17.697c-1.922,0-3.484-1.562-3.484-3.484V5.986
		c0-1.923,1.562-3.485,3.484-3.485h2.711c0.402,0,0.729,0.325,0.729,0.729c0,0.402-0.326,0.729-0.729,0.729h-2.711
		c-1.119,0-2.027,0.91-2.027,2.027v8.268c0,1.118,0.908,2.028,2.027,2.028h13.049V3.96h-5.385c-0.402,0-0.73-0.327-0.73-0.729
		s0.328-0.729,0.73-0.729h6.08c0.021-0.001,0.047-0.001,0.068,0h35.793c1.922,0,3.486,1.564,3.486,3.486v8.266
		C70.787,16.174,69.225,17.737,67.301,17.737z M54.252,16.279h13.049c1.119,0,2.029-0.909,2.029-2.027V5.986
		c0-1.119-0.91-2.029-2.029-2.029H54.252V16.279z M32.205,16.279h20.588V3.957H32.205V16.279z M23.035,3.957h-0.344
		c-0.402,0-0.73-0.326-0.73-0.729S22.289,2.5,22.691,2.5h0.344c0.402,0,0.729,0.326,0.729,0.729S23.438,3.957,23.035,3.957z"/>
	<path fill="#010101" d="M42.5,76.299c-9.52,0-17.266-7.744-17.266-17.263c0-9.521,7.746-17.265,17.266-17.265
		s17.262,7.745,17.262,17.265C59.762,68.555,52.02,76.299,42.5,76.299z M42.5,43.229c-8.717,0-15.809,7.091-15.809,15.808
		c0,8.715,7.092,15.805,15.809,15.805c8.715,0,15.805-7.09,15.805-15.805C58.305,50.319,51.215,43.229,42.5,43.229z M63.168,27.383
		H21.83c-0.402,0-0.729-0.326-0.729-0.729v-9.645c0-0.403,0.326-0.729,0.729-0.729h41.338c0.402,0,0.73,0.326,0.73,0.729v9.645
		C63.898,27.056,63.57,27.383,63.168,27.383z M22.561,25.925h39.879v-8.188H22.561V25.925z"/>
	<path fill="#010101" d="M42.498,76.301c-0.402,0-0.729-0.326-0.729-0.729v-2.342c-2.326-1.428-4.277-3.41-5.664-5.757
		c-1.504-2.547-2.299-5.464-2.299-8.437c0-2.974,0.795-5.892,2.299-8.438c1.459-2.469,3.543-4.534,6.027-5.974
		c0.227-0.133,0.504-0.133,0.73,0c2.484,1.438,4.57,3.505,6.027,5.974c1.506,2.547,2.301,5.464,2.301,8.438
		c0,2.973-0.795,5.89-2.301,8.437c-1.387,2.347-3.34,4.329-5.664,5.757v2.342C43.229,75.974,42.9,76.301,42.498,76.301z
		 M42.498,46.104c-2.107,1.302-3.879,3.104-5.137,5.235c-1.373,2.322-2.098,4.982-2.098,7.695c0,2.712,0.725,5.372,2.098,7.694
		c1.109,1.88,2.621,3.505,4.408,4.756V57.082c0-0.403,0.326-0.729,0.729-0.729c0.404,0,0.73,0.326,0.73,0.729v14.403
		c1.789-1.251,3.299-2.876,4.408-4.756c1.371-2.322,2.098-4.982,2.098-7.694c0-2.713-0.727-5.373-2.098-7.695
		C46.377,49.21,44.607,47.406,42.498,46.104z"/>
	<path fill="#010101" d="M42.385,68.323c-0.188,0-0.373-0.07-0.516-0.214l-4.871-4.871c-0.285-0.283-0.285-0.745,0-1.029
		c0.285-0.285,0.746-0.285,1.031,0l4.355,4.354l4.357-4.354c0.285-0.285,0.746-0.284,1.031,0c0.283,0.284,0.283,0.746,0,1.029
		L42.9,68.109C42.758,68.253,42.57,68.323,42.385,68.323z"/>
	<path fill="#010101" d="M42.498,63.494L42.498,63.494c-0.193,0-0.379-0.076-0.516-0.214l-2.754-2.758
		c-0.285-0.285-0.285-0.746,0-1.031c0.283-0.283,0.746-0.283,1.029,0.001l2.24,2.241l2.24-2.241
		c0.285-0.284,0.746-0.284,1.031-0.001c0.283,0.285,0.283,0.746,0,1.031l-2.758,2.758C42.877,63.418,42.691,63.494,42.498,63.494z"
		/>
</g>
</svg>
