<?xml version="1.0" encoding="utf-8"?>
<!-- Generator: Adobe Illustrator 16.0.2, SVG Export Plug-In . SVG Version: 6.00 Build 0)  -->
<!DOCTYPE svg PUBLIC "-//W3C//DTD SVG 1.1 Tiny//EN" "http://www.w3.org/Graphics/SVG/1.1/DTD/svg11-tiny.dtd">
<svg version="1.1" baseProfile="tiny" id="Layer_1" xmlns="http://www.w3.org/2000/svg" xmlns:xlink="http://www.w3.org/1999/xlink"
	 x="0px" y="0px" width="85px" height="85px" viewBox="0 0 85 85" xml:space="preserve">
<g>
	<path fill-rule="evenodd" d="M82.5,38.43c-0.457,1.223-1.357,2.103-2.258,2.999c-4.924,4.903-9.823,9.831-14.753,14.728
		c-0.889,0.883-1.312,1.87-1.287,3.128c0.047,2.367,0.026,4.736,0.003,7.104c-0.004,0.481,0.085,0.652,0.621,0.656
		c2.64,0.018,4.248,1.667,4.254,4.312c0.006,2.94,0.003,5.882,0,8.822c-0.001,0.93-0.328,1.443-1.002,1.511
		c-0.799,0.081-1.18-0.403-1.368-1.104c-0.297-0.324-0.229-0.73-0.229-1.111c-0.008-2.595,0-5.189-0.006-7.784
		c-0.004-1.594-0.491-2.07-2.107-2.08c-1.66-0.011-3.32-0.027-4.98-0.032c-0.772-0.076-1.273-0.466-1.436-1.246
		c-0.012-0.087-0.012-0.175-0.004-0.263c0.298-0.904,0.658-1.199,1.553-1.249c0.416-0.022,0.832-0.004,1.249-0.01
		c0.86-0.013,0.91-0.058,0.912-0.948c0.006-2.211,0.038-4.423-0.009-6.633c-0.041-1.946,0.666-3.519,2.035-4.879
		c5.093-5.061,10.149-10.156,15.248-15.211c0.722-0.716,1.036-1.471,1.025-2.484c-0.041-3.667-0.017-7.335-0.017-11.003
		c0-0.286,0.017-0.574-0.027-0.857c-0.104-0.68-0.479-1.005-1.175-0.983c-0.982,0.031-1.804,0.446-2.507,1.116
		c-0.817,0.747-1.194,1.675-1.189,2.78c0.008,2.187-0.028,4.374,0.015,6.56c0.022,1.14-0.274,2.063-1.158,2.839
		c-0.917,0.806-1.73,1.729-2.612,2.577c-0.355,0.342-0.479,0.651-0.32,1.164c0.408,1.318,0.158,2.557-0.813,3.547
		c-3.283,3.344-6.604,6.65-9.938,9.943c-0.655,0.646-1.358,0.646-1.943,0.097c-0.59-0.555-0.582-1.303,0.044-2.017
		c0.412-0.469,0.874-0.893,1.315-1.334c2.595-2.597,5.19-5.192,7.786-7.787c0.185-0.185,0.376-0.362,0.544-0.561
		c0.555-0.657,0.514-1.168-0.135-1.755c-1.932-1.747-5.002-1.695-6.882,0.159c-2.613,2.578-5.195,5.187-7.792,7.782
		c-0.773,0.773-1.537,1.556-2.321,2.317c-1.227,1.189-1.837,2.669-1.863,4.337c-0.056,3.487-0.009,6.977-0.025,10.465
		c-0.003,0.57,0.198,0.794,0.773,0.785c1.249-0.02,2.5-0.035,3.748,0.006c1.055,0.034,1.522,0.563,1.528,1.644
		c-0.245,0.837-0.867,1.117-1.669,1.126c-1.458,0.015-2.916-0.002-4.374,0.008c-1.687,0.011-2.146,0.464-2.149,2.128
		c-0.004,2.525,0.001,5.051-0.002,7.576c-0.001,0.415,0.033,0.838-0.219,1.209c-0.268,0.887-0.727,1.275-1.382,1.171
		c-0.662-0.105-0.989-0.604-0.99-1.528c-0.002-2.968,0.011-5.935-0.005-8.902c-0.009-1.523,0.571-2.737,1.845-3.566
		c0.365-0.237,0.369-0.502,0.369-0.842c-0.003-3.592,0.021-7.185-0.009-10.775c-0.023-2.752,0.932-5.053,2.895-6.986
		c3.151-3.105,6.271-6.244,9.386-9.386c1.51-1.521,3.279-2.449,5.443-2.52c0.399-0.013,0.471-0.17,0.464-0.517
		c-0.016-0.884-0.02-1.768,0.211-2.635c0.524-1.975,1.698-3.43,3.529-4.319c0.456-0.222,0.711-0.505,0.921-0.952
		c0.617-1.311,1.596-2.311,2.891-2.955c0.469-0.233,0.765-0.515,1.008-0.983c1.055-2.028,2.748-3.222,5.008-3.553
		c2.132-0.312,3.418,0.538,4.334,2.78C82.5,28.847,82.5,33.639,82.5,38.43z"/>
	<path fill-rule="evenodd" d="M2.5,24.055c1.061-2.584,2.774-3.377,5.465-2.519c1.772,0.565,3.083,1.689,3.902,3.353
		c0.209,0.423,0.479,0.681,0.899,0.884c1.382,0.666,2.384,1.723,3.034,3.114c0.128,0.273,0.219,0.529,0.56,0.688
		c2.764,1.285,4.087,3.499,4.031,6.521c-0.015,0.749,0.053,1.096,0.972,1.148c1.819,0.104,3.384,0.927,4.685,2.215
		c0.979,0.97,1.939,1.958,2.929,2.917c0.591,0.572,0.729,1.169,0.245,1.865c-0.575,0.657-1.323,0.661-2.085-0.049
		c-0.989-0.924-1.928-1.9-2.88-2.862c-1.676-1.692-3.624-2.001-5.806-1.175c-0.454,0.208-0.867,0.476-1.233,0.815
		c-0.728,0.676-0.751,1.135-0.096,1.86c0.175,0.193,0.364,0.373,0.549,0.557c2.854,2.854,5.708,5.708,8.562,8.563
		c0.239,0.239,0.493,0.467,0.676,0.755c0.397,0.628,0.313,1.301-0.216,1.766c-0.526,0.462-1.126,0.479-1.711,0.048
		c-0.21-0.155-0.391-0.345-0.574-0.528c-3.113-3.111-6.215-6.233-9.342-9.33c-1.134-1.124-1.488-2.413-1.004-3.918
		c0.135-0.419,0.019-0.685-0.269-0.966c-0.911-0.893-1.769-1.846-2.722-2.69c-0.861-0.762-1.148-1.667-1.132-2.775
		c0.033-2.239,0.026-4.479,0.004-6.718c-0.019-1.905-1.528-3.549-3.417-3.769c-0.981-0.114-1.458,0.25-1.464,1.234
		c-0.025,4.088-0.015,8.177-0.009,12.265c0.001,0.685,0.364,1.163,0.821,1.619c4.295,4.286,8.584,8.578,12.874,12.868
		c0.939,0.939,1.883,1.874,2.816,2.818c1.171,1.186,1.776,2.604,1.769,4.283c-0.011,2.317-0.006,4.636-0.001,6.953
		c0.002,0.926,0.03,0.953,0.978,0.953c2.396,0,4.792,0.01,7.188-0.008c1.225-0.021,2.448-0.028,3.672-0.001
		c0.651,0.015,0.864-0.247,0.86-0.876c-0.017-3.411,0.021-6.823-0.021-10.233c-0.021-1.731-0.634-3.253-1.901-4.482
		c-0.785-0.762-1.552-1.542-2.32-2.32c-0.294-0.297-0.576-0.605-0.751-0.991c-0.276-0.608-0.157-1.048,0.386-1.477
		c0.701-0.441,1.303-0.329,1.874,0.268c0.846,0.883,1.724,1.733,2.588,2.598c1.821,1.819,2.701,4.021,2.697,6.589
		c-0.005,3.615,0.006,7.229-0.01,10.845c-0.002,0.472,0.089,0.783,0.521,1.079c1.147,0.787,1.693,1.93,1.693,3.326
		c0.001,3.017,0.003,6.033,0,9.05c0,0.913-0.339,1.443-1.007,1.509c-0.793,0.077-1.187-0.39-1.36-1.104
		c-0.306-0.354-0.225-0.787-0.227-1.194c-0.009-2.575,0-5.149-0.006-7.725c-0.004-1.552-0.491-2.033-2.068-2.051
		c-5.201-0.057-10.403-0.019-15.604-0.029c-0.313,0-0.625-0.005-0.918,0.13c-0.851,0.291-1.082,0.942-1.079,1.769
		c0.009,2.613,0.006,5.226,0.002,7.839c0,0.412,0.033,0.833-0.226,1.197c-0.028,0.1-0.055,0.201-0.087,0.3
		c-0.209,0.624-0.646,0.966-1.298,0.86c-0.684-0.11-0.996-0.58-0.994-1.28c0.009-3.172-0.021-6.346,0.018-9.518
		c0.026-2.149,1.79-3.843,4.004-3.832c0.732,0.004,0.875-0.214,0.862-0.895c-0.042-2.288-0.052-4.578-0.002-6.865
		c0.028-1.29-0.429-2.286-1.334-3.186C14.408,51.086,9.386,46.031,4.333,41.007c-0.802-0.798-1.523-1.62-1.833-2.733
		C2.5,33.535,2.5,28.795,2.5,24.055z"/>
	<path fill-rule="evenodd" d="M50.033,25.164c0.25,0.976,0.062,1.392-0.86,1.775c-1.545,0.643-3.149,0.895-4.807,0.59
		c-0.547-0.101-0.73,0.008-0.706,0.594c0.045,1.116,0.013,2.235,0.013,3.344c0.282,0.105,0.334-0.13,0.445-0.24
		c2.586-2.551,5.674-3.445,9.225-2.786c1.279,0.238,2.044,1.002,2.354,2.286c1.615,6.686-4.373,13.136-11.142,11.959
		c-0.701-0.122-0.946-0.009-0.903,0.758c0.068,1.194,0.028,2.395,0.015,3.592c-0.011,0.953-0.417,1.43-1.174,1.427
		c-0.751-0.004-1.153-0.485-1.163-1.438c-0.012-1.249-0.044-2.501,0.014-3.748c0.03-0.66-0.204-0.699-0.758-0.611
		c-5.052,0.8-9.73-2.149-11.14-7.013c-0.472-1.629-0.515-3.274-0.141-4.936c0.291-1.291,1.081-2.041,2.36-2.277
		c3.552-0.656,6.639,0.241,9.221,2.795c0.103,0.102,0.158,0.27,0.439,0.278c0-1.243,0.004-2.478-0.003-3.712
		c-0.002-0.533-0.394-0.295-0.619-0.263c-2.857,0.403-5.383-0.346-7.485-2.296c-2.485-2.304-3.35-5.191-2.705-8.508
		c0.233-1.204,0.989-1.975,2.222-2.226c3.26-0.663,6.054,0.24,8.585,2.674c0-1.112,0.022-2.075-0.011-3.035
		c-0.014-0.393-0.35-0.194-0.547-0.176c-3.462,0.317-6.633-1.855-7.565-5.208c-0.304-1.093-0.37-2.208-0.092-3.317
		c0.278-1.112,0.996-1.829,2.124-2.026c2.776-0.487,5.075,0.404,6.868,2.557c0.335,0.402,0.429,0.461,0.797,0.014
		c1.734-2.117,3.986-3.021,6.707-2.601c1.378,0.212,2.194,1.117,2.4,2.498c0.671,4.496-3.206,8.544-7.752,8.072
		c-0.431-0.045-0.609-0.014-0.589,0.477c0.035,0.852,0.01,1.706,0.01,2.711c0.286-0.246,0.469-0.401,0.65-0.557
		c2.323-1.997,4.984-2.705,7.986-2.073c1.12,0.236,1.846,0.926,2.126,2.036c0.474,1.878,0.285,3.717-0.417,5.507
		c-0.306,0.779-0.928,0.908-1.668,0.736c-0.753-0.31-0.992-0.832-0.697-1.672c0.284-0.814,0.485-1.635,0.479-2.501
		c-0.012-1.47-0.236-1.701-1.703-1.747c-0.182-0.005-0.361,0.014-0.542,0.029c-3.016-0.05-6.097,3.123-5.943,6.24
		c0.091,1.847,0.289,2.1,2.154,1.938c0.208-0.018,0.409-0.068,0.614-0.105c0.639-0.011,1.194-0.313,1.783-0.499
		C49.237,24.245,49.74,24.48,50.033,25.164z"/>
	<path fill-rule="evenodd" fill="#1C95F8" d="M58.094,68.23c0.114,0.644,0.477,1.047,1.132,1.165c0.88,0.12,1.766,0.077,2.644,0.035
		c0.676-0.032,0.953,0.281,1.08,0.854c0.118,0.539,0.156,1.08-0.004,1.618c-0.248,0.412-0.629,0.254-0.977,0.218
		c-2.326-0.24-4.03,1.897-3.268,4.104c0.452,1.308,1.757,2.091,3.267,1.977c0.34-0.025,0.729-0.223,0.981,0.205
		c0.107,0.71,0.28,1.424-0.148,2.095c-5.405,0.007-10.812,0.015-16.217,0.022c-0.01-3.149-0.031-6.3-0.021-9.449
		c0.004-1.056,0.705-1.686,1.827-1.696c1.666-0.015,3.333-0.021,4.999,0.003c0.834,0.012,1.339-0.323,1.482-1.158
		C55.947,67.922,57.021,67.911,58.094,68.23z"/>
	<path fill-rule="evenodd" fill="#1C95F8" d="M18.295,80.522c-0.009-3.17-0.031-6.34-0.019-9.51c0.004-0.771,0.389-1.327,1.192-1.51
		c0.227-0.088,0.463-0.053,0.695-0.053c4.397-0.002,8.795-0.003,13.193-0.001c0.914,0,1.18,0.226,1.36,1.135
		c0.057,0.282,0.065,0.568,0.065,0.854c0.004,2.654,0.006,5.309-0.003,7.963c-0.001,0.382,0.06,0.791-0.262,1.103
		C29.111,80.51,23.703,80.517,18.295,80.522z"/>
	<path fill-rule="evenodd" fill="#FEBB89" d="M18.428,39.983c1.922-0.9,4.197-0.522,5.828,1.019c1.039,0.98,2.024,2.017,3.042,3.021
		c0.695,0.687,1.077,0.722,1.924,0.218c0.733,0.729,1.468,1.458,2.202,2.188c-0.522,0.892-0.482,1.232,0.259,1.98
		c0.86,0.868,1.728,1.731,2.593,2.595c1.319,1.316,1.959,2.913,1.961,4.769c0.005,3.538-0.008,7.076,0.013,10.614
		c0.003,0.494-0.106,0.674-0.636,0.656c-1.402-0.046-2.808-0.031-4.212-0.042c-0.272-0.308-0.2-0.687-0.201-1.043
		c-0.006-2.78-0.022-5.562,0.007-8.342c0.012-1.069-0.076-2.131-0.207-3.184c-0.188-1.516-0.888-2.83-1.953-3.909
		c-3.27-3.309-6.572-6.585-9.858-9.876C18.949,40.406,18.632,40.261,18.428,39.983z"/>
	<path fill-rule="evenodd" fill="#1784F7" d="M34.519,80.504c0.005-3.147,0.018-6.295,0.008-9.442
		c-0.003-1.244-0.324-1.536-1.558-1.538c-4.5-0.006-9-0.014-13.5-0.021c0.277-0.21,0.601-0.128,0.904-0.128
		c5.333-0.005,10.666-0.004,15.998,0c1.487,0.001,2.075,0.591,2.073,2.084c-0.004,3.043-0.015,6.086-0.023,9.129
		C37.121,80.534,35.816,80.695,34.519,80.504z"/>
	<path fill-rule="evenodd" fill="#1784F7" d="M62.801,80.501c0-0.755,0.001-1.511,0.001-2.266c0.036-0.342,0.357-0.416,0.566-0.587
		c1.75-1.424,1.722-3.632-0.067-5.013c-0.199-0.153-0.458-0.256-0.506-0.551c-0.014-0.64,0.091-1.277-0.1-1.919
		c-0.141-0.473-0.367-0.65-0.873-0.657c-0.865-0.013-1.742,0.161-2.597-0.113c1.923-0.007,3.845-0.031,5.767-0.014
		c1.054,0.01,1.732,0.669,1.735,1.697c0.011,3.169-0.009,6.339-0.018,9.508C65.408,80.533,64.101,80.699,62.801,80.501z"/>
	<path fill-rule="evenodd" fill="#A2E340" d="M49.846,16.702c0.596-0.171,1.184-0.009,1.771,0.054
		c0.338,0.036,0.527,0.226,0.601,0.598c0.244,1.231,0.163,2.435-0.302,3.588c-0.305,0.756-0.218,1.354,0.433,1.854
		c-0.61,0.947-1.36,1.757-2.315,2.366c-0.485-0.612-1.063-0.709-1.771-0.387c-0.484,0.221-0.991,0.422-1.548,0.388
		c-0.092-0.332,0.182-0.458,0.365-0.62c2.111-1.843,3.049-4.138,2.72-6.939C49.765,17.311,49.623,16.992,49.846,16.702z"/>
	<path fill-rule="evenodd" fill="#FCD0A6" d="M58.094,68.23c-1.074-0.002-2.147-0.005-3.222-0.008
		c-0.244-0.949-0.542-1.188-1.524-1.191c-1.354-0.006-2.707-0.014-4.06,0.007c-0.395,0.006-0.538-0.089-0.535-0.515
		c0.019-3.722-0.013-7.443,0.031-11.164c0.019-1.528,0.561-2.923,1.646-4.021c3.459-3.496,6.912-7,10.438-10.428
		c1.938-1.883,5.002-1.873,7.058-0.145c0.913,0.768,0.946,1.363,0.1,2.211c-3.126,3.131-6.255,6.258-9.387,9.383
		c-0.299,0.299-0.604,0.598-0.62,1.046c-0.018,0.478,0.194,0.859,0.621,1.09c0.497,0.269,0.971,0.181,1.364-0.198
		c0.786-0.758,1.552-1.539,2.325-2.312c2.466-2.465,4.926-4.937,7.4-7.394c1.169-1.16,1.56-2.493,0.934-4.043
		c-0.16-0.397,0.035-0.567,0.259-0.789c1.069-1.064,2.121-2.148,3.211-3.192c0.471-0.451,0.656-0.953,0.651-1.594
		c-0.02-2.316-0.008-4.632-0.007-6.948c0-1.243,0.31-2.361,1.29-3.21c0.556,0.093,0.378,0.553,0.382,0.862
		c0.027,1.95,0.013,3.9,0.014,5.851c0,1.769-0.038,3.538,0.013,5.305c0.038,1.313-0.411,2.343-1.343,3.268
		c-5.112,5.075-10.181,10.193-15.301,15.259c-1.15,1.138-1.72,2.395-1.668,4.023c0.071,2.233,0.005,4.472,0.024,6.708
		c0.007,0.675-0.073,1.34-0.098,2.011C58.109,68.146,58.11,68.188,58.094,68.23z"/>
	<path fill-rule="evenodd" fill="#FEBB89" d="M58.091,68.104c-0.216-0.249-0.118-0.549-0.118-0.825
		c-0.008-2.836,0.002-5.673-0.008-8.51c-0.005-1.237,0.443-2.266,1.313-3.136c5.303-5.297,10.597-10.603,15.906-15.892
		c0.728-0.724,1.077-1.544,1.072-2.571c-0.019-3.825-0.005-7.651-0.013-11.477c-0.001-0.296,0.119-0.633-0.177-0.876
		c0.71-0.809,1.635-1.165,2.679-1.228c0.947-0.057,1.401,0.379,1.407,1.333c0.011,2.003,0.003,4.005,0.003,6.008
		c0,2.003-0.037,4.007,0.017,6.008c0.025,0.914-0.295,1.563-0.931,2.194C74.11,44.226,69.02,49.359,63.883,54.449
		c-1.376,1.363-2.067,2.925-2.023,4.87c0.053,2.34-0.003,4.682,0.024,7.022c0.006,0.521-0.087,0.759-0.665,0.699
		c-0.516-0.053-1.041,0.013-1.56-0.017C58.844,66.978,58.308,67.299,58.091,68.104z"/>
	<path fill-rule="evenodd" fill="#F1A56F" d="M70.941,36.307c0-1.703-0.039-3.342,0.015-4.979c0.035-1.09,0.5-2.023,1.481-2.905
		c0,1.773-0.095,3.358,0.029,4.925C72.571,34.675,72.096,35.582,70.941,36.307z"/>
	<path fill-rule="evenodd" fill="#D38859" d="M68.523,38.215c-0.057,0.007-0.089,0.021-0.104,0.011
		c-0.471-0.305-1.302-0.322-1.419-0.821c-0.215-0.918-0.145-1.914,0.094-2.853c0.215-0.845,0.657-1.572,1.43-2.184
		C68.523,34.354,68.523,36.273,68.523,38.215z"/>
	<path fill-rule="evenodd" fill="#FCD0A6" d="M18.428,39.983c0.353-0.035,0.573,0.176,0.799,0.403
		c3.359,3.365,6.749,6.7,10.069,10.102c1.198,1.229,1.85,2.752,1.974,4.526c0.277,3.995,0.05,7.991,0.132,11.985
		c-2.602,0.01-5.204,0.008-7.807,0.04c-0.477,0.006-0.472-0.227-0.471-0.57c0.008-2.446-0.019-4.894,0.012-7.34
		c0.021-1.797-0.615-3.274-1.885-4.538c-5.202-5.179-10.38-10.382-15.584-15.558c-0.576-0.573-0.844-1.175-0.837-1.997
		c0.03-3.956,0.013-7.913,0.014-11.869c0.001-1.314,0.564-1.78,1.866-1.548c2.078,0.371,3.481,2.078,3.507,4.337
		c0.026,2.291,0.027,4.582-0.006,6.872c-0.011,0.761,0.214,1.334,0.772,1.858c1.063,0.997,2.063,2.059,3.106,3.078
		c0.271,0.265,0.348,0.467,0.202,0.866c-0.521,1.421-0.252,2.716,0.83,3.8c3.216,3.226,6.44,6.442,9.659,9.666
		c0.344,0.345,0.708,0.633,1.229,0.523c0.433-0.091,0.746-0.338,0.899-0.776c0.192-0.547-0.025-0.96-0.397-1.331
		c-1.932-1.933-3.864-3.865-5.798-5.797c-1.252-1.252-2.507-2.499-3.755-3.754c-0.821-0.827-0.802-1.407,0.076-2.156
		C17.449,40.453,17.879,40.114,18.428,39.983z"/>
	<path fill-rule="evenodd" fill="#F1A56F" d="M12.562,28.427c0.983,0.876,1.445,1.81,1.481,2.899
		c0.055,1.637,0.015,3.276,0.015,5.019c-0.871-0.723-1.63-1.31-1.528-2.604C12.663,32.044,12.562,30.328,12.562,28.427z"/>
	<path fill-rule="evenodd" fill="#D38859" d="M16.443,32.349c0.89,0.705,1.352,1.541,1.527,2.539
		c0.066,0.381,0.091,0.774,0.097,1.162c0.023,1.596,0.019,1.596-1.624,2.174C16.443,36.301,16.443,34.391,16.443,32.349z"/>
	<path fill-rule="evenodd" fill="#BBE973" d="M47.343,40.31c-1.03,0.305-2.056,0.161-3.08-0.035
		c-0.461-0.088-0.408-0.505-0.466-0.805c-0.75-3.902,1.795-7.793,5.673-8.698c0.532-0.124,1.066-0.231,1.618-0.156
		c0.503,0.673,0.472,1.5,0.465,2.244c-0.023,2.574-0.962,4.799-2.839,6.599C48.316,39.841,47.854,40.112,47.343,40.31z"/>
	<path fill-rule="evenodd" fill="#A2E340" d="M37.753,40.328c-2.852-0.244-5.563-2.794-6.183-5.807
		c-0.218-1.059-0.225-2.114-0.009-3.175c0.07-0.348,0.221-0.544,0.591-0.611c1.059-0.191,2.11-0.266,3.16,0.039
		c1.414,0.626,2.06,1.914,2.681,3.192c0.867,1.784,1.046,3.666,0.598,5.597C38.493,39.982,38.394,40.47,37.753,40.328z"/>
	<path fill-rule="evenodd" fill="#BBE973" d="M49.846,16.702c0.749,3.144-0.33,6.255-2.881,8.177
		c-0.1,0.075-0.168,0.189-0.251,0.286c-0.822,0.267-1.64,0.114-2.463-0.01c-0.347-0.052-0.392-0.297-0.454-0.543
		C42.86,20.894,46.037,16.741,49.846,16.702z"/>
	<path fill-rule="evenodd" fill="#A2E340" d="M38.278,25.165c-3.555-0.272-6.488-4.507-5.486-7.891
		c0.113-0.383,0.357-0.487,0.67-0.529c0.72-0.096,1.443-0.162,2.166-0.012c0.959,0.308,1.487,1.081,1.976,1.876
		c1.086,1.77,1.45,3.683,1.053,5.728C38.599,24.637,38.545,24.955,38.278,25.165z"/>
	<path fill-rule="evenodd" fill="#98D43B" d="M37.753,40.328c0.922-0.31,0.759-1.197,0.804-1.82
		c0.221-3.039-0.755-5.632-3.164-7.603c-0.037-0.031-0.054-0.087-0.08-0.132c3.373,0.465,6.088,3.787,5.978,7.45
		c-0.066,2.185,0.069,2.116-2.241,2.238C38.62,40.485,38.166,40.549,37.753,40.328z"/>
	<path fill-rule="evenodd" fill="#98D43B" d="M38.278,25.165c0.486-1.831,0.443-3.627-0.302-5.395
		c-0.517-1.225-1.29-2.238-2.349-3.036c3.678,0.438,6.369,4.203,5.59,7.813c-0.078,0.362-0.21,0.585-0.637,0.64
		C39.807,25.285,39.044,25.416,38.278,25.165z"/>
	<path fill-rule="evenodd" fill="#A2E340" d="M47.343,40.31c1.972-1.406,3.322-3.236,3.826-5.635
		c0.285-1.356,0.146-2.709-0.081-4.058c2.496-0.026,2.45,0.059,2.489,2.287C53.642,36.606,50.721,40.012,47.343,40.31z"/>
	<path fill-rule="evenodd" fill="#BBE972" d="M45.315,11.581c-0.098,0.028-0.195,0.076-0.295,0.081
		c-1.136,0.054-1.338-0.141-1.333-1.271c0.01-2.229,1.5-4.103,3.654-4.594c0.315,0.289,0.375,0.675,0.353,1.065
		c-0.089,1.538-0.603,2.915-1.59,4.11C45.884,11.239,45.569,11.367,45.315,11.581z"/>
	<path fill-rule="evenodd" fill="#98D43B" d="M36.565,5.645c2.892-0.011,5.124,2.582,4.708,5.439
		c-0.052,0.356-0.194,0.473-0.525,0.522c-0.867,0.128-1.696,0.042-2.485-0.352c0.365-2.103-0.119-3.945-1.673-5.461
		C36.557,5.76,36.561,5.699,36.565,5.645z"/>
	<path fill-rule="evenodd" fill="#A2E340" d="M36.565,5.645c1.03,0.524,1.364,1.542,1.738,2.512c0.289,0.75,0.325,1.55,0.291,2.351
		c-0.013,0.296-0.087,0.557-0.332,0.746c-1.986-0.757-3.23-2.865-2.946-4.958C35.43,5.463,36.046,5.663,36.565,5.645z"/>
	<path fill-rule="evenodd" fill="#A2E340" d="M45.315,11.581c0.814-0.963,1.627-1.916,1.924-3.204
		c0.199-0.864,0.367-1.708,0.103-2.581c2.53-0.521,2.614,0.011,2.224,2.106C49.164,10.05,47.359,11.518,45.315,11.581z"/>
	<path fill-rule="evenodd" d="M62.795,72.085c2.765,1.587,2.769,4.499,0.007,6.15c-2.175,0.459-3.803-0.315-4.351-2.08
		c-0.369-1.191-0.135-2.28,0.702-3.191c0.855-0.931,1.929-1.283,3.185-0.979C62.489,72.021,62.643,72.052,62.795,72.085z"/>
	<path fill-rule="evenodd" d="M23.38,78.43c-1.794-0.022-3.244-1.519-3.222-3.324c0.022-1.793,1.528-3.256,3.324-3.228
		c1.794,0.027,3.256,1.535,3.228,3.329C26.682,77.003,25.184,78.453,23.38,78.43z"/>
	<path fill-rule="evenodd" fill="#E6F2FA" d="M62.507,75.144c-0.066,0.563-0.354,0.935-0.942,0.931
		c-0.585-0.004-0.924-0.366-0.918-0.94c0.006-0.538,0.349-0.881,0.886-0.898C62.112,74.216,62.424,74.572,62.507,75.144z"/>
	<path fill-rule="evenodd" fill="#E6F2FA" d="M23.465,76.096c-0.571-0.055-0.945-0.342-0.951-0.927
		c-0.007-0.584,0.351-0.93,0.925-0.934c0.54-0.004,0.886,0.337,0.914,0.87C24.382,75.686,24.029,76.002,23.465,76.096z"/>
</g>
</svg>
