<?xml version="1.0" encoding="utf-8"?>
<!-- Generator: Adobe Illustrator 16.0.0, SVG Export Plug-In . SVG Version: 6.00 Build 0)  -->
<!DOCTYPE svg PUBLIC "-//W3C//DTD SVG 1.1//EN" "http://www.w3.org/Graphics/SVG/1.1/DTD/svg11.dtd">
<svg version="1.1" id="Layer_1" xmlns="http://www.w3.org/2000/svg" xmlns:xlink="http://www.w3.org/1999/xlink" x="0px" y="0px"
	 width="85px" height="85px" viewBox="0 0 85 85" enable-background="new 0 0 85 85" xml:space="preserve">
<g>
	<path fill="#FCE689" d="M14.986,66.477c-0.268,0.053-0.541,0.053-0.818,0H14.986z"/>
	<path fill="#140A0B" d="M14.582,67.537c-0.201,0-0.404-0.021-0.605-0.061c-0.518-0.1-0.871-0.574-0.822-1.098
		c0.051-0.521,0.49-0.92,1.014-0.92h0.818c0.521,0,0.961,0.395,1.012,0.916c0.053,0.521-0.299,0.996-0.811,1.1
		C14.988,67.516,14.785,67.537,14.582,67.537z"/>
	<path fill="#FCE689" d="M71.816,66.24c-0.211,0.117-0.436,0.197-0.658,0.236h-56.99c-0.234-0.041-0.461-0.121-0.67-0.236
		c-1.064-0.605-1.445-1.961-0.842-3.025l0.594-1.062l14.043-24.973h5.088l-13.977,24.85h48.518L52.943,37.178h5.092l13.963,24.851
		l0.672,1.186C73.262,64.279,72.893,65.635,71.816,66.24"/>
	<path fill="#140A0B" d="M71.158,67.496h-56.99c-0.057,0-0.115-0.006-0.174-0.016c-0.348-0.061-0.682-0.178-0.99-0.35
		c-0.004-0.002-0.006-0.004-0.01-0.006c-1.553-0.885-2.102-2.863-1.223-4.412l0.588-1.059l14.045-24.976
		c0.182-0.32,0.52-0.52,0.889-0.52h5.088c0.361,0,0.695,0.191,0.879,0.505c0.184,0.312,0.186,0.697,0.01,1.013L20.145,61.012h45.037
		L52.055,37.676c-0.178-0.314-0.174-0.7,0.01-1.013c0.182-0.313,0.518-0.505,0.879-0.505h5.09c0.369,0,0.707,0.198,0.889,0.521
		l13.963,24.85l0.67,1.184c0.869,1.562,0.312,3.539-1.238,4.414c-0.312,0.176-0.645,0.295-0.984,0.354
		C71.273,67.49,71.215,67.496,71.158,67.496z M14.271,65.459h56.783c0.09-0.021,0.178-0.059,0.264-0.105
		c0.576-0.326,0.785-1.062,0.461-1.643l-0.666-1.18L57.439,38.197h-2.754l13.125,23.334c0.178,0.314,0.174,0.701-0.01,1.014
		c-0.182,0.311-0.516,0.504-0.879,0.504H18.404c-0.361,0-0.695-0.191-0.879-0.504s-0.186-0.697-0.008-1.014l13.123-23.334h-2.752
		L14.137,62.65l-0.59,1.061c-0.328,0.58-0.125,1.312,0.451,1.643C14.084,65.4,14.176,65.436,14.271,65.459z"/>
	<path fill="#FCE689" d="M71.158,66.477c-0.277,0.053-0.553,0.053-0.816,0H71.158z"/>
	<path fill="#140A0B" d="M70.746,67.537c-0.205,0-0.408-0.021-0.605-0.062c-0.514-0.104-0.863-0.58-0.812-1.1
		c0.053-0.521,0.49-0.916,1.014-0.916h0.816c0.525,0,0.965,0.396,1.014,0.92c0.051,0.523-0.305,0.998-0.818,1.098
		C71.15,67.516,70.945,67.537,70.746,67.537z"/>
	<path fill="#8ED0B8" d="M81.482,29.481c0,1.803-1.463,3.266-3.266,3.266H24.482c-1.805,0-3.266-1.463-3.266-3.266
		c0-1.804,1.461-3.264,3.266-3.264h53.734C80.02,26.218,81.482,27.678,81.482,29.481"/>
	<path fill="#140A0B" d="M78.217,33.764H24.482c-2.361,0-4.283-1.921-4.283-4.283c0-2.36,1.92-4.282,4.283-4.282h53.734
		c2.361,0,4.283,1.922,4.283,4.282C82.5,31.844,80.578,33.764,78.217,33.764z M24.482,27.235c-1.24,0-2.246,1.008-2.246,2.246
		c0,1.239,1.006,2.247,2.246,2.247h53.734c1.238,0,2.246-1.008,2.246-2.247c0-1.238-1.008-2.246-2.246-2.246H24.482z"/>
	<path fill="#8ED0B8" d="M20.986,29.481c-0.666,1.676-2.564,2.496-4.238,1.831L5.58,26.884c-1.676-0.665-2.496-2.563-1.832-4.24
		c0.666-1.677,2.564-2.496,4.238-1.831l11.168,4.43C20.832,25.909,21.65,27.805,20.986,29.481"/>
	<path fill="#140A0B" d="M17.949,32.561c-0.541,0-1.072-0.102-1.578-0.303L5.205,27.831c-2.195-0.871-3.273-3.366-2.402-5.562
		c0.652-1.644,2.217-2.706,3.982-2.706c0.541,0,1.072,0.104,1.578,0.304l11.166,4.431c2.193,0.871,3.271,3.364,2.404,5.56
		C21.279,31.5,19.717,32.561,17.949,32.561z M6.785,21.6c-0.928,0-1.748,0.559-2.09,1.42c-0.457,1.151,0.109,2.461,1.26,2.918
		l11.168,4.428c0.268,0.105,0.545,0.159,0.826,0.159c0.928,0,1.748-0.558,2.09-1.42c0.457-1.149-0.109-2.459-1.26-2.916
		l-11.168-4.43C7.344,21.654,7.066,21.6,6.785,21.6z"/>
	<path fill="#E9E7E9" d="M81.482,34.97c0,1.223-0.986,2.209-2.227,2.209H5.74c-1.223,0-2.223-0.986-2.223-2.209
		c0-1.238,1-2.224,2.223-2.224h73.516C80.494,32.747,81.482,33.731,81.482,34.97"/>
	<path fill="#140A0B" d="M79.256,38.197H5.74c-1.787,0-3.24-1.447-3.24-3.228c0-1.787,1.453-3.241,3.24-3.241h73.516
		c1.789,0,3.244,1.454,3.244,3.241C82.5,36.75,81.045,38.197,79.256,38.197z M5.74,33.764c-0.664,0-1.205,0.54-1.205,1.205
		c0,0.656,0.541,1.191,1.205,1.191h73.516c0.678,0,1.207-0.523,1.207-1.191c0-0.676-0.529-1.205-1.207-1.205H5.74z"/>
	<path fill="#FCE689" d="M14.168,66.477h-0.209c-1.234,0-2.223-1-2.223-2.223c0-0.975,0.633-1.803,1.514-2.104l-0.592,1.062
		c-0.605,1.064-0.225,2.42,0.842,3.025C13.707,66.355,13.934,66.436,14.168,66.477"/>
	<path fill="#140A0B" d="M14.17,67.496c0,0,0,0-0.002,0h-0.209c-1.787,0-3.24-1.453-3.24-3.24c0-1.387,0.887-2.619,2.203-3.066
		c0.4-0.137,0.84-0.012,1.111,0.312c0.27,0.322,0.311,0.779,0.105,1.146l-0.592,1.062c-0.328,0.578-0.125,1.312,0.451,1.643
		c0.104,0.057,0.211,0.096,0.324,0.117c0.492,0.072,0.867,0.496,0.867,1.008C15.189,67.041,14.732,67.496,14.17,67.496z"/>
	<path fill="#FCE689" d="M75.168,64.256c0,1.223-0.986,2.223-2.223,2.223h-1.787c0.225-0.039,0.447-0.119,0.658-0.238
		c1.076-0.605,1.445-1.959,0.854-3.023l-0.672-1.186h0.947C74.182,62.029,75.168,63.033,75.168,64.256"/>
	<path fill="#140A0B" d="M72.945,67.496h-1.787c-0.529,0-0.971-0.404-1.016-0.934c-0.045-0.525,0.32-1,0.842-1.09
		c0.111-0.02,0.225-0.059,0.334-0.121c0.576-0.324,0.783-1.061,0.461-1.643l-0.668-1.178c-0.178-0.314-0.176-0.701,0.008-1.016
		c0.182-0.311,0.518-0.504,0.879-0.504h0.947c1.787,0,3.24,1.453,3.24,3.242C76.188,66.043,74.732,67.496,72.945,67.496z
		 M73.859,63.471c0.133,0.51,0.139,1.037,0.025,1.537c0.166-0.207,0.266-0.469,0.266-0.752
		C74.15,63.957,74.041,63.682,73.859,63.471z M75.221,38.203c-0.561,0-1.018-0.456-1.018-1.02V20.887
		c0-2.176-1.77-3.946-3.943-3.946H26.961c-2.176,0-3.945,1.771-3.945,3.946v16.296c0,0.562-0.455,1.02-1.018,1.02
		s-1.018-0.456-1.018-1.02V20.887c0-3.299,2.682-5.982,5.98-5.982H70.26c3.297,0,5.98,2.685,5.98,5.982v16.296
		C76.24,37.747,75.783,38.203,75.221,38.203z"/>
	<path fill="#B6AAB2" d="M19.299,64.256c0,2.664-2.162,4.82-4.822,4.82c-2.664,0-4.824-2.156-4.824-4.82s2.16-4.82,4.824-4.82
		C17.137,59.434,19.299,61.592,19.299,64.256"/>
	<path fill="#140A0B" d="M14.477,70.096c-3.223,0-5.842-2.621-5.842-5.84c0-3.221,2.619-5.84,5.842-5.84
		c3.221,0,5.84,2.619,5.84,5.84C20.316,67.475,17.697,70.096,14.477,70.096z M14.477,60.453c-2.1,0-3.805,1.705-3.805,3.803
		s1.707,3.803,3.805,3.803c2.096,0,3.805-1.705,3.805-3.803S16.574,60.453,14.477,60.453z"/>
	<path fill="#B6AAB2" d="M75.475,64.256c0,2.664-2.158,4.82-4.82,4.82c-2.664,0-4.824-2.156-4.824-4.82s2.16-4.82,4.824-4.82
		C73.314,59.434,75.475,61.592,75.475,64.256"/>
	<path fill="#140A0B" d="M70.652,70.096c-3.223,0-5.842-2.621-5.842-5.84c0-3.221,2.619-5.84,5.842-5.84
		c3.221,0,5.84,2.619,5.84,5.84C76.492,67.475,73.873,70.096,70.652,70.096z M70.652,60.453c-2.1,0-3.807,1.705-3.807,3.803
		s1.707,3.803,3.807,3.803c2.098,0,3.803-1.705,3.803-3.803S72.75,60.453,70.652,60.453z"/>
	<path fill="#140A0B" d="M16.361,64.256c0,1.039-0.844,1.885-1.887,1.885c-1.041,0-1.883-0.846-1.883-1.885
		c0-1.041,0.842-1.887,1.883-1.887C15.518,62.369,16.361,63.215,16.361,64.256 M72.537,64.256c0,1.039-0.844,1.885-1.885,1.885
		c-1.039,0-1.885-0.846-1.885-1.885c0-1.041,0.846-1.887,1.885-1.887C71.693,62.369,72.537,63.215,72.537,64.256"/>
</g>
</svg>
