<?xml version="1.0" encoding="utf-8"?>
<!-- Generator: Adobe Illustrator 16.0.0, SVG Export Plug-In . SVG Version: 6.00 Build 0)  -->
<!DOCTYPE svg PUBLIC "-//W3C//DTD SVG 1.1//EN" "http://www.w3.org/Graphics/SVG/1.1/DTD/svg11.dtd">
<svg version="1.1" id="Layer_1" xmlns="http://www.w3.org/2000/svg" xmlns:xlink="http://www.w3.org/1999/xlink" x="0px" y="0px"
	 width="85px" height="85px" viewBox="0 0 85 85" enable-background="new 0 0 85 85" xml:space="preserve">
<g>
	<path fill="#6398DE" d="M20.953,60.984l-6.154-37.955c-0.242-1.49-1.527-2.584-3.037-2.584H11.73c-1.508,0-2.795,1.096-3.037,2.584
		L2.539,60.984c-0.145,0.891,0.109,1.799,0.693,2.486c0.586,0.688,1.441,1.082,2.345,1.082h12.338c0.901,0,1.759-0.396,2.343-1.082
		C20.842,62.783,21.098,61.875,20.953,60.984z"/>
	<path fill="#D6E5F6" d="M82.461,60.984l-6.154-37.955c-0.242-1.49-1.527-2.584-3.037-2.584H11.762
		c-0.902,0-1.759,0.396-2.343,1.084c-0.585,0.688-0.838,1.596-0.694,2.486l6.154,37.955c0.242,1.49,1.528,2.584,3.037,2.584h61.508
		c0.9,0,1.758-0.396,2.344-1.082C82.352,62.785,82.605,61.875,82.461,60.984z"/>
	<path fill="#BCD6F2" d="M82.461,60.984l-6.154-37.955c-0.242-1.49-1.527-2.584-3.037-2.584H42.082l7.15,44.109h30.191
		c0.9,0,1.758-0.396,2.344-1.084C82.352,62.783,82.605,61.875,82.461,60.984z"/>
	<path fill="#8CB7E8" d="M64.037,45.576H27.115c-1.699,0-3.077-1.377-3.077-3.076s1.377-3.076,3.077-3.076h36.922
		c1.699,0,3.078,1.377,3.078,3.076S65.738,45.576,64.037,45.576z"/>
	<path fill="#6398DE" d="M64.037,39.424H45.158l0.996,6.152h17.883c1.699,0,3.078-1.377,3.078-3.076S65.738,39.424,64.037,39.424z"
		/>
</g>
</svg>
