<?xml version="1.0" encoding="utf-8"?>
<!-- Generator: Adobe Illustrator 16.0.0, SVG Export Plug-In . SVG Version: 6.00 Build 0)  -->
<!DOCTYPE svg PUBLIC "-//W3C//DTD SVG 1.1//EN" "http://www.w3.org/Graphics/SVG/1.1/DTD/svg11.dtd">
<svg version="1.1" id="Layer_1" xmlns="http://www.w3.org/2000/svg" xmlns:xlink="http://www.w3.org/1999/xlink" x="0px" y="0px"
	 width="85px" height="85px" viewBox="0 0 85 85" enable-background="new 0 0 85 85" xml:space="preserve">
<g transform="translate(-1)">
	<path fill="#DAE7EF" d="M61.431,78.361c0,2.285-8.027,4.139-17.932,4.139s-17.932-1.854-17.932-4.139s8.029-4.137,17.932-4.137
		S61.431,76.076,61.431,78.361"/>
	<path fill="#AEBBC1" d="M43.499,79.74c-0.762,0-1.379-0.615-1.379-1.379V48.018c0-0.764,0.617-1.381,1.379-1.381
		s1.381,0.617,1.381,1.381v30.344C44.878,79.125,44.261,79.74,43.499,79.74"/>
	<path fill="#DAE7EF" d="M63.657,22.729L60.052,5.26c0,1.521-7.41,2.758-16.551,2.758c-9.143,0-16.553-1.236-16.553-2.758
		l-3.605,17.463c-0.338,1.482-0.531,3.02-0.531,4.604c0,11.428,9.262,20.691,20.689,20.691c11.426,0,20.689-9.264,20.689-20.691
		C64.19,25.744,63.995,24.211,63.657,22.729"/>
	<path fill="#701C11" d="M23.261,23.189c-0.275,1.34-0.451,2.717-0.451,4.139c0,11.426,9.265,20.689,20.689,20.689
		c11.428,0,20.689-9.264,20.689-20.689c0-1.422-0.176-2.799-0.451-4.139H23.261L23.261,23.189z"/>
	<g>
		<path fill="#99443D" d="M60.052,28.707c0,0.762-0.619,1.379-1.379,1.379c-0.764,0-1.381-0.617-1.381-1.379
			s0.617-1.379,1.381-1.379C59.433,27.326,60.052,27.945,60.052,28.707"/>
		<path fill="#99443D" d="M37.981,39.74c0,0.764-0.617,1.379-1.379,1.379s-1.379-0.617-1.379-1.379c0-0.76,0.619-1.379,1.379-1.379
			C37.364,38.361,37.981,38.98,37.981,39.74"/>
	</g>
	<path fill="#AEBBC1" d="M60.052,5.26c0,1.523-7.412,2.758-16.553,2.758S26.946,6.783,26.946,5.26c0-1.525,7.412-2.76,16.553-2.76
		S60.052,3.734,60.052,5.26"/>
	<g>
		<path fill="#99443D" d="M49.579,28.365l4.215,4.211c0.986,0.988,0.986,2.604,0,3.592l-4.215,4.211
			c-0.986,0.988-2.602,0.988-3.59,0l-4.211-4.211c-0.988-0.988-0.988-2.604,0-3.592l4.211-4.211
			C46.978,27.377,48.593,27.377,49.579,28.365"/>
		<path fill="#99443D" d="M32.233,23.189h5.957c1.398,0,2.539,1.143,2.539,2.539v5.957c0,1.396-1.141,2.539-2.539,2.539h-5.957
			c-1.396,0-2.539-1.143-2.539-2.539v-5.957C29.694,24.33,30.837,23.189,32.233,23.189"/>
	</g>
	<path fill="#FFFFFF" d="M43.267,16.293h5.959c1.395,0,2.539,1.143,2.539,2.537v5.959c0,1.396-1.143,2.537-2.539,2.537h-5.959
		c-1.396,0-2.537-1.141-2.537-2.537V18.83C40.729,17.436,41.87,16.293,43.267,16.293"/>
	<path fill="#99443D" d="M40.729,23.189v1.6c0,1.396,1.141,2.539,2.537,2.539h5.959c1.396,0,2.537-1.143,2.537-2.539v-1.6H40.729z"
		/>
</g>
</svg>
