<?xml version="1.0" encoding="utf-8"?>
<!-- Generator: Adobe Illustrator 16.0.0, SVG Export Plug-In . SVG Version: 6.00 Build 0)  -->
<!DOCTYPE svg PUBLIC "-//W3C//DTD SVG 1.1//EN" "http://www.w3.org/Graphics/SVG/1.1/DTD/svg11.dtd">
<svg version="1.1" id="Layer_1" xmlns="http://www.w3.org/2000/svg" xmlns:xlink="http://www.w3.org/1999/xlink" x="0px" y="0px"
	 width="85px" height="85px" viewBox="0 0 85 85" enable-background="new 0 0 85 85" xml:space="preserve">
<g>
	<path fill="none" d="M55.085,70.711c0.143-0.185,0.195-0.427,0.146-0.699c-0.02,0.185-0.072,0.476-0.213,0.706
		C55.042,70.718,55.065,70.715,55.085,70.711L55.085,70.711z M53.3,67.765c-0.051-0.065-0.102-0.129-0.154-0.192
		c-0.445-0.533-0.918-1.045-1.414-1.531c0.662,0.727,1.357,1.5,1.357,1.5L53.3,67.765z M53.165,70.973
		c0.008-0.004,0.016-0.008,0.023-0.01c-0.016-0.009-0.031-0.019-0.045-0.026C53.149,70.948,53.157,70.961,53.165,70.973
		L53.165,70.973z"/>
	<path fill="#FDD2B4" d="M47.724,67.825c0.078,0.247,0.15,0.495,0.223,0.743c-0.082-0.448-0.127-0.903-0.139-1.359
		c-0.002-0.063-0.004-0.127-0.01-0.189c-0.057,0.255-0.09,0.505-0.115,0.76C47.702,67.787,47.716,67.803,47.724,67.825z
		 M52.515,68.429c0.344,0.473,1.781,2.309,2.504,2.29c0.141-0.231,0.193-0.522,0.213-0.707c-0.006-0.036-0.016-0.073-0.025-0.111
		c-0.006-0.001-0.012-0.004-0.018-0.007c-0.754-0.5-1.32-1.409-1.889-2.129l-0.211-0.225c0,0-0.695-0.773-1.357-1.5
		c-0.238-0.233-0.48-0.461-0.73-0.684c0.062,0.121,0.084,0.264,0.111,0.396C51.321,66.798,51.903,67.588,52.515,68.429
		L52.515,68.429z M42.733,66.689c0.811,0.489,1.678,0.824,2.594,0.926c0.018,0.003,0.033,0.008,0.045,0.015
		c0.008-0.011,0.016-0.021,0.025-0.028c0,0,0,0,0-0.001C44.458,67.474,43.562,67.148,42.733,66.689L42.733,66.689z M49.142,63.976
		c0.01,0.007,0.02,0.014,0.027,0.021c-0.301-0.278-0.564-0.591-0.807-0.923C48.591,63.424,48.851,63.75,49.142,63.976z
		 M47.571,68.157c-0.002-0.014-0.002-0.027-0.002-0.042l-0.051,0.015l0.117,0.272c-0.012-0.068-0.023-0.14-0.033-0.21
		C47.585,68.188,47.573,68.174,47.571,68.157z"/>
	<path fill="#FDD2B4" d="M47.749,66.932c0.004-0.013,0.012-0.019,0.021-0.021c-0.129-0.1-0.252-0.212-0.369-0.331
		c0.135,0.179,0.236,0.388,0.148,0.582c-0.059-0.01-0.117-0.021-0.176-0.032c-0.377,0.548-0.277,1.31-0.115,1.969
		c0.219,0.892,0.506,1.765,0.859,2.612c0.162,0.385,0.363,0.788,0.648,1.081c-0.732-1.49-1.17-3.108-1.289-4.766
		c0.027,0.007,0.057,0.014,0.084,0.021C47.538,67.674,47.618,67.273,47.749,66.932L47.749,66.932z M12.091,33.493
		c0.176,0.299,0.338,0.604,0.484,0.916c0.029-0.009,0.059-0.012,0.088-0.01c-0.096-0.162-0.193-0.324-0.295-0.482
		C12.278,33.774,12.187,33.633,12.091,33.493L12.091,33.493z M49.026,77.029c-0.02,0.082-0.045,0.173-0.084,0.251
		c-0.002,0.011-0.004,0.02-0.004,0.028c-0.006,0.001-0.01,0.001-0.014,0.002c-0.061,0.108-0.148,0.188-0.27,0.181
		c-0.119-0.022-0.217-0.1-0.287-0.199c-0.188-0.054-0.365-0.15-0.516-0.279c0.336,0.366,0.799,0.562,1.301,0.771
		c0.146-1.187,0.35-2.363,0.586-3.533c-0.025-0.099-0.047-0.196-0.064-0.296c-0.02,0.104-0.039,0.209-0.062,0.312
		C49.417,75.188,49.222,76.108,49.026,77.029L49.026,77.029z M49.327,72.332c0.045,0.104,0.092,0.211,0.137,0.315
		c0.062,0.146,0.125,0.291,0.172,0.44c0.008-0.084,0.02-0.169,0.033-0.253c0-0.017-0.002-0.031-0.004-0.047
		C49.548,72.64,49.437,72.487,49.327,72.332L49.327,72.332z M23.919,45.458c1.143,0.799,2.252,1.594,3.271,2.417
		c0.459,0.372,0.912,0.75,1.359,1.135c-1.232-1.096-2.533-2.116-3.891-3.054C24.413,45.788,24.167,45.621,23.919,45.458
		L23.919,45.458z M54.12,73.724c-0.021,0.065-0.082,0.11-0.141,0.148c-0.322,0.215-0.66,0.404-1.012,0.566
		c0.047,0.114,0.096,0.229,0.141,0.345c0.002,0,0.002-0.001,0.004-0.001c0.354-0.033,0.664,0.033,1.012-0.101
		c0.379-0.146,0.689-0.422,0.902-0.765c0.004-0.007,0.01-0.013,0.016-0.017c-0.01-0.006-0.02-0.014-0.025-0.021
		c-0.6-0.643-1.145-1.333-1.635-2.062c0.234,0.562,0.469,1.125,0.703,1.688C54.112,73.575,54.144,73.651,54.12,73.724L54.12,73.724z
		 M49.511,72.255c-0.131-0.26-0.287-0.503-0.443-0.749c0.15,0.275,0.311,0.546,0.475,0.813
		C49.532,72.298,49.522,72.276,49.511,72.255z M46.683,65.72c-0.289-0.369-0.559-0.755-0.77-1.172
		c-0.006,0.085-0.01,0.17-0.014,0.255c-0.018-0.009-0.035-0.016-0.053-0.023l1.018,1.174C46.802,65.873,46.741,65.795,46.683,65.72z
		 M50.06,64.567c-0.002,0.013-0.008,0.022-0.018,0.029c0.1,0.065,0.197,0.13,0.297,0.196C50.245,64.717,50.151,64.642,50.06,64.567
		L50.06,64.567z M46.886,62.484c-0.016,0.048-0.033,0.095-0.055,0.14c0.02-0.002,0.037,0.007,0.047,0.021
		c0.137,0.217,0.268,0.438,0.395,0.659c0.002-0.007,0.004-0.014,0.004-0.021c0.061-0.437,0.008-0.894-0.111-1.349
		C47.159,62.154,47.069,62.371,46.886,62.484L46.886,62.484z"/>
	<path fill="#FDD2B4" d="M8.921,24.849c0.076-0.651,0.152-1.302,0.227-1.953c0-0.021,0.002-0.045,0.008-0.065l0.049-0.423
		c0.053,0.077,0.105,0.156,0.16,0.233c0.068-0.012,0.145,0.007,0.209,0.069c2.545,2.422,4.387,6.259,5.867,9.401
		c0.064,0.139,0.008,0.268-0.088,0.337c0.006,0.009,0.012,0.017,0.018,0.023c0.025,0.029,0.051,0.059,0.076,0.088
		c0.02-0.068,0.092-0.123,0.166-0.096c0.523,0.193,0.895,0.708,1.396,0.979c0.586,0.317,1.283,0.527,1.928,0.693
		c0.031,0.009,0.039,0.068,0,0.074c-0.715,0.1-1.297,0.002-1.955-0.3c-0.076-0.034-0.15-0.07-0.225-0.106
		c0.736,0.553,1.572,0.957,2.48,1.097c-0.588,0.062-1.029,0.628-1.115,1.213c-0.086,0.584,0.113,1.176,0.373,1.706
		c1.248,2.562,3.793,4.174,6.057,5.901c3.467,2.646,6.5,5.854,8.973,9.447l0.107,0.085l-0.102-0.075
		c0.09,0.131,0.178,0.262,0.266,0.394c1.678,1.917,3.395,3.8,5.148,5.646c-0.045,0.001-0.092,0.004-0.137,0.007
		c0.049,0.033,0.061,0.116,0,0.148c-0.244,0.129-0.506,0.277-0.734,0.435c-0.236,0.163-0.393,0.359-0.551,0.583
		c0.012,0.012,0.023,0.025,0.031,0.043c0.055,0.116,0.113,0.233,0.172,0.353c0.098-0.384,0.453-0.678,0.844-0.764
		c0.562-0.124,0.967,0.229,1.213,0.721c0.455,0.906,1.033,1.772,1.586,2.63c0.4,0.616,0.82,1.228,1.334,1.752
		c1.117,1.141,2.678,1.829,4.271,1.904c-1.219-0.363-2.277-1.261-2.811-2.418c0.559-0.141,1.164-0.079,1.686,0.167
		c-0.035-0.041-0.07-0.082-0.107-0.123l0.117-0.176c-0.227-0.256-0.459-0.506-0.699-0.75c0.426,0.434,1.631,0.352,2.008-0.178
		c-0.146-0.281-0.273-0.566-0.375-0.85c-0.381,0.708-1.355,1.062-2.09,0.705c0.053,0.161-0.104,0.33-0.27,0.354
		c-0.168,0.023-0.332-0.053-0.48-0.135c-0.537-0.298-1.016-0.691-1.41-1.162c-0.314-0.373-0.572-0.79-0.828-1.205
		c-0.521-0.845-1.043-1.689-1.564-2.534c-0.053-0.085-0.107-0.183-0.086-0.28c0.016-0.074,0.074-0.134,0.133-0.186
		c0.57-0.508,1.359-0.759,2.119-0.674l-0.318-0.06c1.025,0.003,2.004,0.479,2.787,1.14c0.785,0.658,1.398,1.495,1.988,2.333
		c0.061,0.085,0.119,0.172,0.174,0.261c-0.201-0.522-0.463-1.028-0.709-1.482c-0.162-0.192-0.33-0.382-0.506-0.562l0.047,0.101
		c-0.064-0.086-0.129-0.17-0.197-0.252c-0.119-0.118-0.24-0.232-0.363-0.347c-1.459-1.105-3.445-1.369-5.303-1.532
		c0.457-0.104,0.9-0.267,1.314-0.486c-0.051-0.815-0.256-1.62-0.594-2.365c0.096,0.28,0.189,0.562,0.283,0.842
		c0.1,0.295,0.197,0.621,0.076,0.906c-0.104,0.239-0.35,0.396-0.604,0.458c-0.256,0.062-0.521,0.045-0.783,0.025
		c-0.193-0.998-0.355-2.003-0.484-3.011c0.398-0.034,0.803,0.017,1.184,0.145c-0.055-0.09-0.107-0.178-0.166-0.264
		c-0.318-0.203-0.611-0.507-0.562-0.858c-3.297-5.971-6.963-11.693-10.412-17.572c-0.039-0.066-0.053-0.131-0.049-0.19
		c-0.748-0.655-1.6-1.189-2.523-1.563c0.062,1.917,0.721,3.668,1.602,5.362c1.352,1.994,2.654,4.014,3.844,6.079
		c0.033,0.06-0.051,0.132-0.094,0.074c-0.205-0.265-0.408-0.53-0.609-0.798c0.447,0.805,0.857,1.623,1.191,2.467
		c-0.58-1.104-1.18-2.199-1.797-3.284c-2.945-4.013-5.576-8.331-8.291-12.504c-2.322-3.036-4.799-5.948-7.422-8.728
		c-0.385,0.072-0.842-0.085-1.221-0.255c-0.65-0.292-1.301-0.583-1.949-0.875c-0.295-0.132-0.594-0.267-0.914-0.314
		c-0.051-0.007-0.104-0.013-0.154-0.016c1.529,1.134,3.029,2.307,4.451,3.573c0.834,0.741,1.639,1.516,2.402,2.328
		c0.594,0.631,1.879,1.614,1.268,2.561c-0.605,0.938-1.988,1.704-3.035,1.973c-2.322-3.21-4.459-6.55-6.402-10.002
		c-0.533,0.404-0.934,1.042-1.084,1.703c-0.039,0.17-0.086,0.37-0.25,0.437c-0.088,0.034-0.188,0.019-0.279-0.009
		c-0.688-0.195-1.146-0.833-1.518-1.445c-0.74-1.23-1.348-2.535-1.955-3.836c-0.646-1.391-1.297-2.789-1.875-4.214v1.452
		c1.275,2.828,2.641,5.615,4.098,8.354C7.079,24.243,7.997,25.299,8.921,24.849z M24.983,35.289c1.191,1.47,2.293,3.012,3.332,4.594
		c2.086,3.175,3.916,6.505,5.732,9.837c0.355,0.653,0.707,1.308,1.029,1.978c0.119,0.248,0.205,0.608-0.035,0.744
		c-0.137,0.079-0.312,0.027-0.457-0.04c-0.604-0.285-1.053-0.812-1.502-1.308c-2.152-2.372-4.738-4.3-7.199-6.349
		c-2.461-2.05-4.852-4.277-6.445-7.055c-0.17-0.298-0.336-0.617-0.34-0.96c-0.006-0.728,0.689-1.249,1.338-1.574
		c0.861-0.431,1.773-0.737,2.715-0.935C24.161,34.013,24.362,34.523,24.983,35.289L24.983,35.289z M15.173,22.603
		c-0.039-0.059,0.049-0.123,0.098-0.074c1.719,1.763,3.398,3.646,5.031,5.489c0.061,0.066-0.027,0.15-0.096,0.096
		C18.356,26.577,16.509,24.607,15.173,22.603L15.173,22.603z M19.704,29.011l0.133-0.072c1.602,1.147,2.879,2.739,3.656,4.549
		c-1.045-0.172-2.117-0.107-3.135,0.187c-0.209,0.062-0.422,0.132-0.641,0.104c-0.191-0.023-0.367-0.126-0.535-0.226
		c-0.98-0.58-1.961-1.16-2.941-1.74C17.69,31.349,18.95,30.329,19.704,29.011z M45.327,67.828c-0.1,0.008-0.199,0.011-0.299,0.011
		c0.096,0.018,0.191,0.031,0.289,0.041C45.321,67.862,45.323,67.845,45.327,67.828L45.327,67.828z M53.036,75.193
		c-0.02-0.045-0.039-0.091-0.059-0.136c-0.012,0.271-0.139,0.55-0.334,0.742c-0.342,0.332-0.824,0.465-1.289,0.56
		c-0.037,0.007-0.072,0.015-0.107,0.021c0.248,0.254,0.516,0.492,0.791,0.728c0.133-0.107,0.303-0.171,0.439-0.284
		c0.188-0.156,0.35-0.352,0.482-0.558c0.066-0.103,0.322-0.504,0.355-0.76l-0.113-0.255C53.151,75.279,53.065,75.268,53.036,75.193
		L53.036,75.193z M5.085,4.792c2.574,1.201,4.27,3.873,5.795,6.154c1.4,2.092,2.756,4.222,3.879,6.474
		c0.539,1.079,1.035,2.237,0.969,3.442c-0.02,0.311-0.084,0.642-0.309,0.854c-0.066,0.062-0.145,0.112-0.229,0.146
		c0.836,0.537,1.764,0.929,2.734,1.146c-0.744-2.353-1.65-4.648-2.717-6.872c-0.285-0.492-0.578-0.981-0.877-1.466
		c-1.984-3.206-4.746-6.145-6.455-9.473c-0.002-0.004-0.004-0.01-0.004-0.014C7.624,4.982,7.366,4.792,7.101,4.616
		C7.024,3.911,6.948,3.204,6.854,2.501H6.132c0.074,0.478,0.125,0.957,0.145,1.441c-1.055-0.846-2.428-1.236-3.775-1.17v1.744
		C3.384,4.335,4.403,4.475,5.085,4.792z"/>
	<path fill="#EEBD9C" d="M7.872,5.186C7.868,5.151,7.903,5.11,7.938,5.137c0.629,0.476,1.227,1.028,1.797,1.637
		C9.36,5.29,9.007,3.874,8.528,2.501H6.854c0.094,0.705,0.17,1.412,0.246,2.115C7.366,4.792,7.624,4.983,7.872,5.186z M9.364,22.641
		c-0.053-0.077-0.105-0.156-0.16-0.233L9.155,22.83C9.185,22.731,9.263,22.659,9.364,22.641z M33.528,53.181l-0.227-0.168
		c0.164,0.188,0.33,0.374,0.494,0.562C33.708,53.442,33.618,53.312,33.528,53.181z"/>
	<path fill="#EEBD9C" d="M12.091,33.493c0.096,0.141,0.188,0.28,0.277,0.424c0.102,0.158,0.201,0.32,0.297,0.482
		c0.074,0.007,0.148,0.049,0.184,0.137c1.955,4.813,6.74,7.892,11.07,10.923c0.248,0.164,0.494,0.33,0.74,0.498
		c1.357,0.938,2.658,1.958,3.891,3.055c2.295,1.978,4.496,4.22,6.227,6.739c-0.322-0.521-0.654-1.036-0.986-1.551
		c-0.344-0.529-0.688-1.062-1.031-1.593c0.182,0.136,0.363,0.271,0.545,0.405c-0.014-0.016-0.027-0.031-0.041-0.048l0.262,0.206
		c-2.471-3.594-5.504-6.801-8.973-9.447c-2.262-1.729-4.809-3.341-6.057-5.901c-0.258-0.53-0.459-1.12-0.373-1.706
		c0.084-0.585,0.525-1.149,1.115-1.213c-0.908-0.14-1.744-0.544-2.48-1.097c-0.518-0.255-1.164-0.646-1.312-1.175
		c-0.006-0.023-0.006-0.048,0.002-0.071c-0.025-0.029-0.051-0.059-0.076-0.088c-0.006-0.008-0.012-0.016-0.02-0.023
		c-0.111,0.081-0.271,0.083-0.355-0.075c-0.857-1.628-1.746-3.237-2.729-4.794c-0.973-1.543-2.232-2.965-3.088-4.564
		c-0.02-0.037-0.029-0.077-0.031-0.119L8.921,24.85c-0.926,0.45-1.842-0.605-2.326-1.515c-1.455-2.74-2.82-5.526-4.096-8.355v7.204
		c0.408,0.706,0.85,1.392,1.324,2.056C6.188,27.548,10.024,29.999,12.091,33.493L12.091,33.493z M32.524,46.435
		c-0.334-0.844-0.744-1.663-1.191-2.468c-0.203-0.271-0.406-0.543-0.605-0.817C31.345,44.234,31.944,45.329,32.524,46.435z
		 M15.19,21.864c-0.057,0.024-0.115,0.042-0.178,0.055c2.623,2.778,5.102,5.691,7.424,8.728c-0.287-0.44-0.574-0.881-0.865-1.317
		c-0.047-0.073,0.068-0.141,0.119-0.068c2.119,3.115,4.369,6.203,6.502,9.353c-0.883-1.694-1.539-3.445-1.602-5.362
		c0.922,0.374,1.775,0.908,2.521,1.564c0.002-0.033,0.01-0.063,0.023-0.093c-1.367-2.452-2.504-4.947-4.389-7.115
		c-1.504-1.729-3.324-2.944-5.074-4.335c0.186,0.445,0.365,0.896,0.537,1.346c0.119,0.312-0.396,0.53-0.543,0.229
		c-1.41-2.965-2.816-5.879-4.459-8.707c1.066,2.224,1.975,4.521,2.715,6.872C16.956,22.792,16.026,22.401,15.19,21.864L15.19,21.864
		z M50.646,76.136c0.07,0.088,0.148,0.175,0.254,0.22c0.021,0.009,0.043,0.017,0.064,0.021c-0.336-0.357-0.633-0.766-0.861-1.201
		C50.235,75.521,50.411,75.847,50.646,76.136z M49.288,66.232c-0.816-0.729-1.6-1.686-2.121-2.68
		c-0.377,0.528-1.582,0.609-2.01,0.178c0.24,0.244,0.475,0.494,0.701,0.75l0.012-0.018c-0.043-0.086-0.082-0.174-0.119-0.264
		c-0.014-0.029,0.033-0.044,0.049-0.021c0.398,0.549,0.756,1.12,1.197,1.637c0.357,0.421,0.828,0.77,1.146,1.215
		c0.033,0.048-0.027,0.097-0.072,0.072c-0.09-0.048-0.176-0.103-0.26-0.164c0,0.004,0,0.007,0,0.01
		c-0.006,0.023-0.012,0.047-0.016,0.069c0.008,0.062,0.01,0.126,0.01,0.189c0.012,0.456,0.057,0.911,0.139,1.359
		c0.191,0.674,0.373,1.347,0.658,2c0.141,0.321,0.297,0.633,0.463,0.938c0.156,0.246,0.314,0.488,0.443,0.749
		c0.012,0.021,0.021,0.043,0.031,0.064c0.072,0.116,0.145,0.232,0.217,0.35c0.033,0.003,0.066,0.027,0.07,0.066
		c0,0.018,0.002,0.033,0.004,0.051c0.062,0.098,0.123,0.193,0.188,0.289c0.027,0.046-0.039,0.099-0.074,0.059
		c-0.031-0.034-0.061-0.071-0.088-0.106c0.078,0.812,0.146,1.531,0.568,2.284c0.227,0.402,0.51,0.747,0.82,1.067
		c0.035-0.006,0.072-0.014,0.107-0.021c0.465-0.095,0.949-0.228,1.291-0.56c0.195-0.193,0.32-0.473,0.334-0.743
		c-0.262-0.626-0.52-1.253-0.811-1.866c-0.199-0.421-0.477-0.838-0.619-1.287c-1.324-1.446-2.059-3.658-2.32-5.555
		C49.222,66.295,49.251,66.254,49.288,66.232L49.288,66.232z"/>
	<path fill="#EEBD9C" d="M49.671,72.836c0.002-0.012,0.004-0.021,0.006-0.032l-0.012-0.015
		C49.667,72.805,49.669,72.82,49.671,72.836z M47.149,61.741c0.014,0.062,0.018,0.13,0.016,0.194
		c0.119,0.455,0.172,0.912,0.111,1.349c-0.002,0.008-0.004,0.015-0.004,0.021c0.252,0.439,0.5,0.88,0.803,1.293
		c0.5,0.686,1.086,1.28,1.668,1.895c0.043,0.046-0.021,0.104-0.068,0.066c-0.074-0.061-0.15-0.122-0.225-0.186
		c0.389,2.001,1.197,3.566,2.121,5.329c0.416,0.432,0.645,1.083,0.895,1.613c0.176,0.37,0.344,0.745,0.502,1.123
		c0.352-0.162,0.689-0.353,1.012-0.566c0.059-0.038,0.119-0.083,0.141-0.148c0.023-0.072-0.008-0.147-0.035-0.218
		c-0.236-0.562-0.471-1.125-0.705-1.688c-1.094-1.629-1.914-3.447-2.436-5.333c-0.027-0.103,0.129-0.145,0.16-0.044
		c0.51,1.642,1.186,3.11,2.037,4.494c0.016,0.009,0.031,0.02,0.047,0.027c0.006-0.002,0.01-0.003,0.016-0.003
		c0.176-0.017,0.379,0.083,0.555,0.104c0.246,0.032,0.502,0.032,0.746-0.019c0.256-0.053,0.453-0.171,0.58-0.337
		c-0.02,0.005-0.043,0.007-0.066,0.008c-0.723,0.02-2.16-1.817-2.504-2.29c-0.611-0.84-1.193-1.63-1.402-2.674
		c-0.027-0.136-0.051-0.275-0.111-0.397c-0.217-0.191-0.438-0.38-0.662-0.562c-0.098-0.066-0.197-0.132-0.295-0.196
		c-0.014,0.011-0.031,0.016-0.047,0.007c-0.309-0.174-0.58-0.38-0.826-0.606c-0.01-0.008-0.02-0.015-0.029-0.021
		c-0.289-0.225-0.551-0.552-0.777-0.898c-0.541-0.744-0.969-1.59-1.461-2.377c-0.201-0.321-0.424-0.63-0.666-0.922
		c0.246,0.454,0.508,0.96,0.709,1.482C47.038,61.409,47.114,61.568,47.149,61.741z M49.181,64.737
		c0.279,0.204,0.545,0.428,0.812,0.646c0.293,0.241,0.617,0.464,0.881,0.736c0.061,0.062-0.02,0.176-0.096,0.123
		c-0.287-0.191-0.535-0.442-0.801-0.665c-0.291-0.247-0.586-0.49-0.861-0.755C49.071,64.781,49.13,64.7,49.181,64.737L49.181,64.737
		z M36.989,60.243c-0.01-0.019-0.021-0.036-0.031-0.057c0.018,0.051,0.033,0.101,0.049,0.15c0.004-0.007,0.01-0.013,0.014-0.02
		c0.004-0.013,0.01-0.024,0.016-0.038C37.015,60.276,36.999,60.263,36.989,60.243z M33.63,53.256l-0.107-0.085l-0.262-0.206
		c0.016,0.017,0.029,0.032,0.043,0.048l0.227,0.168L33.63,53.256L33.63,53.256z"/>
	<path fill="#EEBD9C" d="M33.796,53.574c-0.164-0.188-0.33-0.374-0.494-0.562c-0.182-0.136-0.363-0.271-0.545-0.405
		c0.344,0.531,0.688,1.062,1.031,1.593c0.332,0.514,0.664,1.028,0.988,1.551c0.945,1.378,1.75,2.838,2.354,4.384
		c0.373-0.522,0.998-0.917,1.631-0.922c0.016,0,0.031,0.005,0.043,0.014c0.047-0.004,0.094-0.006,0.139-0.007
		C37.19,57.373,35.472,55.491,33.796,53.574L33.796,53.574z M48.942,77.28c-0.006,0.011-0.012,0.021-0.018,0.03
		c0.004-0.001,0.008-0.001,0.014-0.002C48.94,77.299,48.94,77.289,48.942,77.28z M48.249,76.912
		c-0.008-0.256,0.098-0.498,0.191-0.735c0.277-0.708,0.471-1.446,0.576-2.2c0.023-0.177,0.043-0.354,0.014-0.531
		c-0.033-0.203-0.133-0.39-0.225-0.573c-0.014-0.026-0.025-0.055-0.039-0.08c-0.285-0.293-0.486-0.696-0.648-1.081
		c-0.354-0.849-0.641-1.722-0.857-2.613c-0.162-0.658-0.262-1.421,0.113-1.969c-0.135-0.025-0.27-0.06-0.4-0.099
		c-1.594-0.075-3.154-0.765-4.271-1.904c-0.514-0.524-0.934-1.136-1.334-1.752c-0.553-0.856-1.131-1.724-1.586-2.631
		c-0.246-0.489-0.65-0.844-1.213-0.72c-0.391,0.086-0.746,0.38-0.844,0.764c1.059,2.11,2.814,4.577,5.008,5.902
		c0.828,0.459,1.727,0.784,2.664,0.91c0,0.001,0,0.001,0,0.001c0.062-0.053,0.182-0.023,0.209,0.064
		c0.363,1.121,0.35,2.339,0.695,3.481c0.322,1.061,0.895,1.99,1.289,3.004c0.049-0.037,0.102-0.073,0.156-0.105
		c0.109-0.067,0.207,0.062,0.162,0.162c-0.328,0.735-0.742,1.334-0.428,2.185c0.092,0.253,0.219,0.454,0.371,0.62
		c0.15,0.129,0.328,0.227,0.518,0.28C48.294,77.18,48.251,77.048,48.249,76.912z M40.634,54.333c0.338,0.744,0.543,1.55,0.594,2.364
		c-0.414,0.221-0.857,0.385-1.314,0.487c1.857,0.162,3.846,0.426,5.303,1.532c-1.018-0.929-2.178-1.693-3.299-2.542
		c-0.051,0.062-0.145,0.068-0.203-0.013c-0.057-0.078-0.104-0.165-0.146-0.257c-0.021-0.017-0.043-0.033-0.066-0.052
		c-0.029-0.021-0.018-0.059,0.006-0.078c-0.162-0.383-0.256-0.825-0.432-1.185c-0.119-0.238-0.283-0.469-0.428-0.707l-0.166-0.009
		C40.532,54.029,40.583,54.182,40.634,54.333L40.634,54.333z M40.606,53.817c-0.039-0.063-0.074-0.13-0.107-0.195
		c-0.125-0.052-0.246-0.113-0.359-0.187c0.057,0.086,0.111,0.174,0.164,0.263C40.405,53.732,40.507,53.771,40.606,53.817
		L40.606,53.817z M45.731,59.216c-0.051-0.052-0.102-0.104-0.15-0.152c0.066,0.082,0.133,0.167,0.195,0.253L45.731,59.216z"/>
	<path fill="#FEE3CE" d="M46.831,62.623c0.021-0.046,0.039-0.092,0.055-0.14c0.184-0.112,0.273-0.33,0.279-0.55
		c0.002-0.063-0.002-0.13-0.016-0.193c-0.035-0.173-0.111-0.331-0.205-0.48c-0.055-0.089-0.115-0.176-0.174-0.261
		c-0.592-0.838-1.203-1.675-1.986-2.333c-0.785-0.659-1.764-1.137-2.789-1.14l0.318,0.06c-0.76-0.085-1.549,0.167-2.119,0.675
		c-0.059,0.052-0.117,0.109-0.133,0.185c-0.021,0.1,0.033,0.195,0.086,0.28c0.521,0.846,1.043,1.69,1.564,2.535
		c0.256,0.415,0.514,0.832,0.828,1.204c0.395,0.471,0.873,0.865,1.41,1.163c0.148,0.081,0.312,0.158,0.479,0.135
		c0.17-0.023,0.324-0.192,0.271-0.354c0.732,0.356,1.709,0.003,2.09-0.706c-0.002-0.007-0.006-0.013-0.008-0.019
		C46.772,62.648,46.8,62.624,46.831,62.623L46.831,62.623z M45.913,64.548c-0.016-0.028-0.029-0.058-0.043-0.085l-0.012,0.018
		l-0.117,0.176l0.105,0.123c0.018,0.009,0.035,0.016,0.053,0.022C45.903,64.718,45.907,64.633,45.913,64.548z"/>
	<path fill="#FEE3CE" d="M47.552,67.161c0.088-0.194-0.016-0.403-0.15-0.582c-0.193-0.198-0.371-0.417-0.535-0.627l-1.018-1.174
		c-0.521-0.246-1.127-0.308-1.686-0.167c0.533,1.157,1.592,2.055,2.811,2.418c0.133,0.039,0.266,0.071,0.4,0.099
		C47.435,67.14,47.491,67.152,47.552,67.161z M49.327,72.332c-0.809-1.159-1.455-2.562-1.691-3.931l-0.115-0.272l0.049-0.015
		c-0.002-0.022-0.004-0.046-0.006-0.068c-0.027-0.007-0.057-0.015-0.084-0.021c0.117,1.656,0.557,3.274,1.289,4.767
		c0.014,0.025,0.023,0.054,0.037,0.08c0.094,0.185,0.191,0.369,0.227,0.572c0.029,0.178,0.01,0.355-0.016,0.532
		c-0.104,0.753-0.299,1.492-0.576,2.2c-0.094,0.237-0.197,0.479-0.191,0.735c0.004,0.136,0.045,0.268,0.121,0.379
		c0.07,0.101,0.168,0.177,0.287,0.199c0.121,0.008,0.209-0.071,0.27-0.181c0.006-0.01,0.012-0.021,0.018-0.03
		c0.039-0.079,0.064-0.169,0.084-0.251c0.195-0.92,0.393-1.842,0.588-2.763c0.021-0.104,0.043-0.208,0.061-0.312
		c-0.051-0.285-0.064-0.575-0.039-0.864c-0.047-0.149-0.107-0.296-0.172-0.44C49.419,72.543,49.372,72.438,49.327,72.332
		L49.327,72.332z M39.12,53.554c0.131,1.009,0.293,2.013,0.484,3.012c0.262,0.02,0.527,0.036,0.783-0.025
		c0.254-0.062,0.5-0.219,0.604-0.459c0.123-0.285,0.023-0.611-0.074-0.905c-0.096-0.28-0.189-0.562-0.285-0.842l-0.152-0.455
		l0.166,0.009c-0.014-0.023-0.027-0.046-0.041-0.069c-0.1-0.046-0.199-0.085-0.303-0.119C39.923,53.571,39.521,53.52,39.12,53.554
		L39.12,53.554z M23.149,34.223c-0.941,0.196-1.854,0.504-2.713,0.935c-0.65,0.325-1.346,0.848-1.338,1.574
		c0.002,0.343,0.17,0.662,0.34,0.96c1.594,2.776,3.982,5.005,6.445,7.055c2.461,2.049,5.047,3.977,7.199,6.349
		c0.449,0.494,0.896,1.021,1.502,1.308c0.145,0.067,0.318,0.119,0.457,0.04c0.238-0.136,0.154-0.496,0.033-0.744
		c-0.322-0.67-0.674-1.323-1.029-1.978c-1.814-3.332-3.646-6.662-5.73-9.837c-1.041-1.582-2.143-3.124-3.334-4.594
		C24.362,34.523,24.161,34.013,23.149,34.223L23.149,34.223z M19.72,33.777c0.217,0.027,0.432-0.044,0.641-0.104
		c1.018-0.294,2.088-0.357,3.135-0.187c-0.779-1.81-2.057-3.399-3.658-4.549l-0.133,0.072c-0.754,1.318-2.014,2.338-3.461,2.801
		c0.98,0.58,1.961,1.16,2.941,1.74C19.353,33.651,19.526,33.753,19.72,33.777z M9.46,20.891c1.943,3.453,4.08,6.792,6.402,10.003
		c1.047-0.27,2.43-1.036,3.035-1.974c0.611-0.945-0.672-1.93-1.268-2.561c-0.764-0.812-1.568-1.587-2.402-2.329
		c-1.422-1.266-2.922-2.438-4.451-3.571C10.298,20.429,9.845,20.599,9.46,20.891z"/>
	<path fill="#FEE3CE" d="M6.329,21.575c0.371,0.614,0.83,1.252,1.518,1.446c0.092,0.026,0.191,0.044,0.279,0.008
		c0.162-0.063,0.211-0.265,0.25-0.436c0.15-0.66,0.551-1.298,1.084-1.703c0.385-0.292,0.838-0.462,1.316-0.432
		c0.051,0.003,0.104,0.008,0.154,0.016c0.32,0.048,0.619,0.182,0.914,0.314c0.648,0.291,1.299,0.583,1.949,0.874
		c0.379,0.17,0.836,0.326,1.221,0.255c0.061-0.013,0.119-0.029,0.176-0.054c0.084-0.034,0.162-0.086,0.229-0.146
		c0.225-0.214,0.291-0.545,0.309-0.854c0.066-1.204-0.43-2.363-0.969-3.442c-1.125-2.252-2.479-4.383-3.879-6.475
		C9.354,8.667,7.659,5.995,5.085,4.794C4.403,4.476,3.384,4.335,2.501,4.519v9.009c0.578,1.425,1.229,2.823,1.875,4.213
		C4.983,19.041,5.589,20.346,6.329,21.575L6.329,21.575z M6.276,3.942c-0.02-0.482-0.07-0.964-0.145-1.441H2.499v0.272
		C3.849,2.706,5.222,3.098,6.276,3.942z"/>
	<path fill="#AF7B6E" d="M8.528,2.501c0.479,1.371,0.83,2.789,1.207,4.272c0.1,0.107,0.201,0.216,0.299,0.326
		c0.145-1.573-0.111-3.117-0.611-4.601H8.528V2.501z"/>
	<path fill="#AF7B6E" d="M9.735,6.774C9.163,6.167,8.567,5.612,7.938,5.137C7.903,5.11,7.868,5.151,7.874,5.186
		c0,0.004,0,0.009,0.004,0.013c1.707,3.33,4.469,6.267,6.453,9.474c0.301,0.483,0.592,0.974,0.879,1.466
		c1.645,2.828,3.049,5.742,4.459,8.707c0.146,0.303,0.662,0.084,0.543-0.229c-0.172-0.45-0.352-0.898-0.537-1.346
		c-0.287-0.228-0.568-0.459-0.848-0.696c-0.172-0.146,0.01-0.469,0.227-0.388c0.062,0.024,0.127,0.05,0.189,0.074
		c-1.275-2.903-2.818-5.728-4.482-8.396c-1.344-2.152-2.893-4.718-4.727-6.765C9.937,6.991,9.835,6.882,9.735,6.774z"/>
	<path fill="#AF7B6E" d="M18.827,22.574c0.279,0.237,0.561,0.47,0.848,0.696c1.75,1.391,3.57,2.606,5.074,4.335
		c1.885,2.169,3.021,4.664,4.389,7.115c0.092-0.216,0.432-0.313,0.604-0.055c0.035,0.051,0.068,0.102,0.102,0.151
		c-1.793-4.914-5.654-10.578-10.6-12.557c-0.062-0.025-0.125-0.051-0.189-0.075C18.837,22.105,18.655,22.427,18.827,22.574
		L18.827,22.574z"/>
	<path fill="#AF7B6E" d="M29.138,34.721c-0.012,0.029-0.021,0.06-0.023,0.093c-0.004,0.061,0.01,0.124,0.049,0.19
		c3.451,5.879,7.117,11.603,10.414,17.571v-0.002c0.006-0.056,0.088-0.084,0.131-0.054c0.09,0.063,0.156,0.148,0.217,0.235
		c-3.111-6.083-6.297-12.239-10.082-17.938c-0.033-0.051-0.066-0.102-0.102-0.151C29.569,34.407,29.229,34.505,29.138,34.721
		L29.138,34.721z M37.036,60.281c0.002-0.006,0.004-0.012,0.008-0.019c0.027-0.044,0.057-0.087,0.086-0.129
		c-0.604-1.546-1.408-3.006-2.354-4.384c-1.73-2.521-3.932-4.762-6.227-6.739c-0.447-0.386-0.9-0.764-1.359-1.135
		c-1.02-0.824-2.129-1.619-3.271-2.418c-4.332-3.031-9.117-6.108-11.07-10.924c-0.035-0.087-0.109-0.129-0.184-0.136
		c-0.031-0.002-0.061,0.001-0.09,0.01c0.021,0.046,0.045,0.091,0.066,0.137c0.064,0.145,0.012,0.28-0.084,0.363
		c1.832,4.766,6.85,7.645,10.768,10.54c5.672,4.194,10.285,8.469,13.633,14.738c0.01,0.021,0.021,0.038,0.031,0.058
		C37.001,60.265,37.017,60.276,37.036,60.281L37.036,60.281z"/>
	<path fill="#AF7B6E" d="M12.64,34.545c-0.02-0.046-0.043-0.091-0.064-0.136c-0.146-0.312-0.311-0.618-0.484-0.916
		c-2.064-3.494-5.902-5.945-8.266-9.256c-0.475-0.664-0.916-1.35-1.324-2.056v0.642c1.143,1.866,2.514,3.593,3.967,5.224
		c1.973,2.216,4.402,4.042,5.666,6.793c0.092,0.197,0.295,0.183,0.424,0.069C12.653,34.827,12.706,34.689,12.64,34.545z
		 M21.573,29.327c0.289,0.438,0.576,0.878,0.863,1.317c2.715,4.173,5.346,8.491,8.291,12.505c0.199,0.273,0.402,0.546,0.605,0.817
		c0.201,0.267,0.404,0.533,0.609,0.798c0.043,0.057,0.127-0.017,0.094-0.074c-1.189-2.065-2.492-4.086-3.844-6.08
		c-2.131-3.148-4.383-6.236-6.502-9.352C21.642,29.188,21.524,29.255,21.573,29.327L21.573,29.327z M20.302,28.018
		c-1.633-1.843-3.312-3.728-5.031-5.489c-0.049-0.049-0.137,0.017-0.098,0.074c1.336,2.005,3.184,3.976,5.033,5.511
		C20.274,28.168,20.362,28.084,20.302,28.018z M18.935,34.213c0.039-0.005,0.033-0.065,0-0.074c-0.645-0.166-1.34-0.376-1.926-0.693
		c-0.502-0.271-0.875-0.786-1.396-0.979c-0.076-0.027-0.146,0.027-0.166,0.096c-0.008,0.023-0.008,0.048-0.002,0.071
		c0.148,0.529,0.795,0.92,1.312,1.175c0.074,0.036,0.148,0.072,0.225,0.106C17.638,34.215,18.222,34.312,18.935,34.213
		L18.935,34.213z M15.44,32.112c-1.48-3.144-3.32-6.979-5.867-9.401c-0.064-0.062-0.141-0.081-0.209-0.069
		c-0.102,0.02-0.18,0.091-0.209,0.188c-0.006,0.021-0.008,0.044-0.008,0.065c0,0.039,0.01,0.078,0.031,0.119
		c0.855,1.601,2.117,3.021,3.09,4.564c0.98,1.557,1.867,3.166,2.727,4.794c0.082,0.158,0.244,0.156,0.355,0.075
		C15.446,32.379,15.505,32.25,15.44,32.112L15.44,32.112z M40.558,53.645c-0.02-0.007-0.039-0.016-0.061-0.022
		c0.033,0.065,0.07,0.131,0.107,0.195c0.014,0.022,0.027,0.046,0.043,0.069c0.145,0.237,0.309,0.468,0.428,0.706
		c0.174,0.359,0.27,0.802,0.432,1.186c0.016-0.014,0.037-0.019,0.059-0.006c0.129,0.083,0.26,0.167,0.391,0.251
		c0.031-0.512-0.285-1.097-0.5-1.543c-0.227-0.468-0.494-1.093-0.979-1.342c-0.039-0.021-0.088-0.008-0.109,0.031
		c-0.004,0.009-0.008,0.018-0.01,0.026c0.09,0.061,0.184,0.109,0.285,0.149C40.821,53.418,40.747,53.714,40.558,53.645
		L40.558,53.645z M41.917,56.176c-0.117-0.088-0.234-0.178-0.35-0.269c0.043,0.091,0.09,0.178,0.146,0.256
		C41.772,56.243,41.866,56.237,41.917,56.176L41.917,56.176z"/>
	<path fill="#AF7B6E" d="M39.708,52.521c-0.043-0.03-0.125-0.002-0.131,0.054v0.003c-0.049,0.353,0.244,0.654,0.561,0.858
		c0.133,0.084,0.273,0.153,0.42,0.209c0.189,0.069,0.264-0.227,0.084-0.298c-0.102-0.04-0.195-0.09-0.285-0.149
		c-0.105-0.069-0.203-0.154-0.287-0.251c-0.053-0.06-0.098-0.126-0.145-0.189C39.864,52.669,39.798,52.584,39.708,52.521z
		 M41.565,55.772c-0.021-0.013-0.043-0.008-0.061,0.006c-0.023,0.02-0.035,0.057-0.006,0.078c0.023,0.019,0.045,0.034,0.066,0.053
		c0.115,0.09,0.232,0.18,0.35,0.269c1.123,0.848,2.283,1.612,3.299,2.541c0.178,0.16,0.35,0.327,0.516,0.498
		c0.176,0.181,0.344,0.368,0.506,0.562c0.242,0.292,0.465,0.601,0.666,0.922c0.492,0.787,0.92,1.633,1.461,2.377
		c0.24,0.332,0.506,0.644,0.807,0.921c0.248,0.228,0.521,0.434,0.826,0.605c0.018,0.01,0.035,0.005,0.047-0.006
		c0.01-0.008,0.016-0.019,0.018-0.03c-0.127-0.101-0.254-0.2-0.383-0.298c-0.025-0.021-0.029-0.049-0.018-0.07
		c-1.367-1.298-2.012-2.971-3.156-4.47c-1.164-1.523-2.93-2.665-4.549-3.706C41.823,55.939,41.694,55.855,41.565,55.772
		L41.565,55.772z M55.204,69.9c0.012,0.038,0.02,0.075,0.027,0.111c0.049,0.272-0.004,0.516-0.146,0.699
		c-0.129,0.165-0.326,0.284-0.582,0.336c-0.242,0.051-0.498,0.051-0.744,0.019c-0.178-0.021-0.379-0.121-0.557-0.104
		c-0.006,0-0.01,0.002-0.014,0.003c-0.01,0.002-0.018,0.006-0.023,0.01c0.043,0.071,0.086,0.143,0.131,0.213
		c0.176,0.082,0.426,0.092,0.588,0.104c0.312,0.021,0.645-0.007,0.938-0.123c0.238-0.096,0.449-0.255,0.547-0.499
		c0.119-0.307,0.008-0.521-0.111-0.787C55.245,69.896,55.228,69.906,55.204,69.9L55.204,69.9z"/>
	<path fill="#AF7B6E" d="M49.677,64.269c0.225,0.171,0.443,0.346,0.662,0.524c0.225,0.184,0.445,0.372,0.662,0.563
		c0.248,0.223,0.492,0.449,0.73,0.684c0.496,0.486,0.969,0.998,1.414,1.531c0.053,0.063,0.104,0.127,0.154,0.192
		c0.566,0.721,1.133,1.629,1.889,2.129c0.004,0.003,0.01,0.006,0.016,0.007c0.021,0.006,0.041-0.004,0.053-0.021
		c0.016-0.021,0.018-0.051-0.002-0.072c-1.648-1.876-3.166-4.585-5.523-5.631c-0.033-0.014-0.061,0-0.072,0.021
		C49.649,64.218,49.649,64.249,49.677,64.269L49.677,64.269z M49.978,65.577c0.266,0.223,0.514,0.474,0.801,0.665
		c0.076,0.053,0.156-0.062,0.096-0.124c-0.264-0.271-0.588-0.494-0.881-0.735c-0.268-0.219-0.531-0.441-0.812-0.646
		c-0.051-0.037-0.109,0.044-0.064,0.086C49.39,65.087,49.687,65.33,49.978,65.577L49.978,65.577z M53.144,70.936
		c-0.854-1.384-1.527-2.854-2.039-4.494c-0.031-0.101-0.188-0.059-0.158,0.045c0.52,1.885,1.34,3.704,2.436,5.333
		c0.49,0.729,1.035,1.42,1.635,2.062c0.008,0.009,0.018,0.016,0.025,0.021c0.027-0.021,0.062-0.014,0.082,0.01
		c0.068-0.024,0.115-0.118,0.053-0.192c-0.699-0.826-1.324-1.663-1.879-2.533c-0.045-0.069-0.088-0.142-0.131-0.213
		C53.157,70.961,53.149,70.948,53.144,70.936z"/>
	<path fill="#AF7B6E" d="M55.042,73.902c-0.006,0.004-0.012,0.011-0.016,0.017c-0.213,0.343-0.523,0.619-0.902,0.765
		c-0.348,0.134-0.658,0.066-1.012,0.101c-0.002,0-0.002,0.002-0.004,0.002c0.021,0.06,0.045,0.118,0.066,0.179
		c0.314,0.112,0.73,0.014,1.023-0.106c0.416-0.172,0.738-0.472,0.932-0.876c0.014-0.021,0.01-0.051-0.008-0.068
		C55.104,73.889,55.067,73.881,55.042,73.902L55.042,73.902z"/>
	<path fill="#AF7B6E" d="M53.108,74.784c-0.045-0.114-0.094-0.229-0.141-0.345c-0.158-0.378-0.328-0.752-0.502-1.123
		c-0.25-0.53-0.479-1.183-0.895-1.613c0.049,0.095,0.1,0.189,0.148,0.285c0.018,0.034-0.027,0.072-0.057,0.043
		c-0.039-0.041-0.076-0.085-0.115-0.127c0.145,0.448,0.422,0.865,0.621,1.286c0.291,0.613,0.547,1.24,0.809,1.867
		c0.02,0.045,0.037,0.091,0.059,0.136c0.029,0.074,0.115,0.086,0.168,0.058c0.037-0.021,0.059-0.062,0.039-0.114
		c-0.021-0.058-0.045-0.115-0.066-0.173C53.153,74.903,53.132,74.844,53.108,74.784L53.108,74.784z M52.478,76.822
		c-0.137,0.113-0.307,0.177-0.439,0.284c0.018,0.016,0.035,0.03,0.053,0.045c0.053,0.044-0.016,0.129-0.07,0.095
		c-0.014-0.009-0.023-0.017-0.035-0.022c0.012,0.024,0.037,0.04,0.062,0.043c0.475,0.04,0.955-0.655,1.16-1.009
		c0.154-0.266,0.412-0.729,0.102-0.951c-0.021-0.014-0.037,0.016-0.023,0.03c0.033,0.039,0.041,0.099,0.031,0.169
		c-0.031,0.256-0.287,0.657-0.354,0.76C52.827,76.471,52.667,76.665,52.478,76.822L52.478,76.822z M49.827,72.736
		c-0.002-0.039-0.035-0.063-0.068-0.066c0.025,0.039,0.051,0.079,0.074,0.118C49.831,72.77,49.829,72.753,49.827,72.736z"/>
	<path fill="#AF7B6E" d="M52.089,77.151c-0.018-0.015-0.033-0.028-0.051-0.045c-0.275-0.234-0.543-0.474-0.791-0.728
		c-0.312-0.32-0.596-0.665-0.82-1.067c-0.422-0.753-0.49-1.473-0.568-2.284c-0.062-0.072-0.123-0.147-0.182-0.224
		c-0.002,0.011-0.006,0.021-0.006,0.032c-0.016,0.084-0.025,0.169-0.035,0.253c-0.025,0.289-0.01,0.579,0.039,0.865
		c0.02,0.1,0.039,0.197,0.064,0.296c0.018-0.084,0.035-0.167,0.051-0.251c0.004-0.019,0.031-0.015,0.031,0.005
		c-0.002,0.158-0.006,0.315-0.016,0.475c0.078,0.24,0.178,0.475,0.297,0.697c0.229,0.437,0.523,0.844,0.859,1.201
		c0.314,0.332,0.662,0.62,1.021,0.846c0.012,0.008,0.021,0.015,0.035,0.022C52.075,77.28,52.142,77.195,52.089,77.151L52.089,77.151
		z"/>
	<path fill="#AF7B6E" d="M50.019,73.077c-0.062-0.097-0.123-0.192-0.186-0.289c-0.023-0.039-0.051-0.079-0.074-0.118
		c-0.072-0.116-0.146-0.232-0.217-0.35c-0.166-0.268-0.324-0.539-0.475-0.813c-0.168-0.305-0.324-0.616-0.465-0.938
		c-0.285-0.653-0.467-1.325-0.658-2c-0.07-0.248-0.143-0.496-0.223-0.743c-0.006-0.021-0.02-0.036-0.039-0.047
		c-0.014,0.126-0.023,0.253-0.033,0.379c-0.002,0.03-0.027,0.041-0.049,0.035c0.012,0.07,0.023,0.141,0.035,0.21
		c0.234,1.369,0.883,2.771,1.691,3.931c0.107,0.154,0.221,0.308,0.336,0.457l0.012,0.015c0.061,0.076,0.121,0.15,0.182,0.224
		c0.029,0.035,0.059,0.072,0.088,0.106C49.981,73.174,50.046,73.121,50.019,73.077L50.019,73.077z M49.288,66.232
		c-0.037,0.021-0.066,0.062-0.059,0.116c0.262,1.896,0.996,4.107,2.318,5.556c0.039,0.042,0.076,0.086,0.115,0.127
		c0.029,0.029,0.074-0.009,0.057-0.043c-0.051-0.096-0.1-0.19-0.148-0.285c-0.924-1.763-1.732-3.328-2.121-5.329
		C49.397,66.327,49.343,66.279,49.288,66.232z"/>
	<path fill="#AF7B6E" d="M49.288,66.232c0.055,0.047,0.107,0.096,0.162,0.142c0.074,0.063,0.15,0.126,0.225,0.186
		c0.047,0.038,0.111-0.021,0.068-0.066c-0.582-0.613-1.168-1.209-1.668-1.895c-0.303-0.413-0.551-0.854-0.803-1.293
		c-0.127-0.221-0.258-0.442-0.396-0.659c-0.01-0.016-0.025-0.023-0.045-0.021c-0.031,0.001-0.061,0.025-0.049,0.062
		c0.002,0.006,0.006,0.012,0.008,0.019c0.102,0.282,0.229,0.567,0.375,0.85C47.69,64.547,48.472,65.503,49.288,66.232z
		 M45.913,64.548c0.211,0.417,0.479,0.803,0.77,1.172c0.061,0.075,0.119,0.153,0.184,0.232c0.166,0.21,0.344,0.429,0.537,0.627
		c0.117,0.119,0.24,0.231,0.369,0.33c0.02-0.006,0.041,0.007,0.041,0.03c0.084,0.062,0.17,0.117,0.26,0.164
		c0.043,0.022,0.105-0.025,0.072-0.073c-0.32-0.445-0.789-0.794-1.148-1.215c-0.439-0.517-0.799-1.088-1.195-1.637
		c-0.016-0.023-0.062-0.01-0.049,0.021c0.037,0.09,0.076,0.178,0.119,0.264C45.884,64.491,45.899,64.52,45.913,64.548L45.913,64.548
		z"/>
	<path fill="#AF7B6E" d="M47.772,66.909c-0.012,0.004-0.021,0.012-0.023,0.021c-0.129,0.342-0.211,0.742-0.186,1.114
		c0.002,0.022,0.004,0.046,0.006,0.068c0.002,0.015,0.002,0.028,0.004,0.042c0.002,0.018,0.014,0.031,0.029,0.035
		c0.021,0.006,0.045-0.006,0.047-0.035c0.012-0.128,0.021-0.254,0.035-0.379c0.023-0.255,0.057-0.505,0.113-0.76
		c0.004-0.023,0.01-0.046,0.016-0.069c0-0.003,0-0.006,0-0.01C47.813,66.916,47.79,66.904,47.772,66.909L47.772,66.909z
		 M49.821,74.004c0-0.02-0.029-0.022-0.031-0.005c-0.018,0.084-0.033,0.167-0.051,0.251c-0.236,1.17-0.438,2.348-0.584,3.532
		l0.018,0.009c0.113,0.047,0.1,0.205-0.029,0.215c-0.006,0.001-0.012,0-0.016,0.001l-0.004,0.031c-0.021,0.191,0.283,0.192,0.301,0
		c0.117-1.188,0.324-2.368,0.383-3.561C49.815,74.32,49.819,74.162,49.821,74.004z"/>
	<path fill="#AF7B6E" d="M49.173,77.791c-0.006-0.003-0.012-0.005-0.018-0.009c-0.504-0.208-0.965-0.404-1.303-0.771
		c-0.152-0.166-0.279-0.367-0.371-0.62c-0.314-0.851,0.1-1.448,0.43-2.185c0.045-0.102-0.055-0.229-0.164-0.162
		c-0.057,0.033-0.107,0.067-0.156,0.105c0.033,0.086,0.066,0.172,0.098,0.261c0.043,0.118-0.127,0.21-0.209,0.121
		c-0.047-0.048-0.092-0.097-0.135-0.146c-1.02,1.22,0.113,3.734,1.783,3.62c0.004-0.001,0.01,0,0.016-0.001
		C49.272,77.996,49.286,77.838,49.173,77.791L49.173,77.791z"/>
	<path fill="#AF7B6E" d="M47.688,74.411c-0.031-0.088-0.062-0.175-0.098-0.261c-0.395-1.014-0.967-1.943-1.289-3.004
		c-0.346-1.144-0.332-2.36-0.695-3.481c-0.027-0.09-0.146-0.117-0.209-0.064c-0.01,0.008-0.02,0.019-0.023,0.028
		c0.088,0.047,0.074,0.188-0.047,0.198c-0.002,0.018-0.006,0.034-0.008,0.053c-0.303,1.966,0.73,5.017,2.025,6.507
		c0.045,0.05,0.09,0.099,0.135,0.146C47.562,74.621,47.731,74.53,47.688,74.411z"/>
	<path fill="#AF7B6E" d="M45.327,67.828c0.119-0.012,0.133-0.152,0.045-0.199c-0.014-0.007-0.029-0.013-0.045-0.015
		c-0.916-0.102-1.785-0.437-2.596-0.926c-2.191-1.325-3.949-3.792-5.006-5.901c-0.061-0.117-0.117-0.234-0.174-0.354
		c-0.008-0.017-0.018-0.031-0.031-0.043c-0.025,0.034-0.049,0.069-0.074,0.105c-0.049,0.07-0.119,0.102-0.188,0.104
		c0.25,1.911,1.875,3.443,3.232,4.675c1.277,1.161,2.721,2.56,4.537,2.563C45.128,67.839,45.228,67.836,45.327,67.828L45.327,67.828
		L45.327,67.828z"/>
	<path fill="#AF7B6E" d="M37.446,60.497c0.023-0.036,0.049-0.071,0.074-0.105c0.158-0.224,0.314-0.42,0.551-0.583
		c0.229-0.156,0.49-0.306,0.734-0.435c0.061-0.032,0.049-0.115,0-0.148c-0.014-0.009-0.029-0.014-0.045-0.014
		c-0.633,0.005-1.258,0.399-1.631,0.923c-0.029,0.042-0.059,0.084-0.086,0.128c-0.004,0.007-0.006,0.013-0.01,0.019
		c-0.006,0.014-0.012,0.025-0.016,0.038c-0.051,0.157,0.092,0.285,0.238,0.281C37.327,60.599,37.397,60.568,37.446,60.497
		L37.446,60.497z"/>
	<path fill="#333333" d="M82.501,82.501h-80v-80h80V82.501z M3.304,81.697h78.395V3.306H3.304V81.697z"/>
</g>
</svg>
