<?xml version="1.0" encoding="utf-8"?>
<!-- Generator: Adobe Illustrator 16.0.0, SVG Export Plug-In . SVG Version: 6.00 Build 0)  -->
<!DOCTYPE svg PUBLIC "-//W3C//DTD SVG 1.1//EN" "http://www.w3.org/Graphics/SVG/1.1/DTD/svg11.dtd">
<svg version="1.1" id="Layer_1" xmlns="http://www.w3.org/2000/svg" xmlns:xlink="http://www.w3.org/1999/xlink" x="0px" y="0px"
	 width="85px" height="85px" viewBox="0 0 85 85" enable-background="new 0 0 85 85" xml:space="preserve">
<g>
	<g>
		<path fill="#B0CE6F" d="M44.145,48.853c-1.516-1.514-2.1-3.742-1.525-5.814c0.152-0.551,0.584-0.982,1.139-1.137
			c2.07-0.574,4.299,0.012,5.812,1.527c1.516,1.514,2.102,3.742,1.525,5.812c-0.152,0.555-0.584,0.984-1.137,1.139
			C47.887,50.952,45.658,50.368,44.145,48.853z"/>
		<path fill="#B0CE6F" d="M50.512,45.78c1.516-1.514,3.742-2.098,5.812-1.523c0.555,0.152,0.984,0.584,1.139,1.137
			c0.574,2.072-0.012,4.299-1.525,5.814c-1.516,1.516-3.742,2.1-5.812,1.525c-0.555-0.154-0.984-0.586-1.139-1.139
			C48.412,49.524,48.996,47.298,50.512,45.78z"/>
	</g>
	<g>
		<ellipse fill="#F48911" cx="70.84" cy="54.224" rx="5.615" ry="2.809"/>
		<ellipse fill="#F48911" cx="65.223" cy="48.607" rx="2.809" ry="5.616"/>
	</g>
	<g>
		<path fill="#FFAB5F" d="M71.18,52.237c-2.193,2.193-4.859,3.082-5.957,1.986c-0.703-0.705-0.59-2.055,0.162-3.51
			c0.42-0.814,1.037-1.662,1.824-2.447c2.191-2.193,4.859-3.082,5.957-1.986C74.262,47.378,73.373,50.046,71.18,52.237z"/>
		<path fill="#FFAB5F" d="M62.658,51.89c-1.295,0-2.479,0.473-3.391,1.252c-0.945-1.35-2.51-2.232-4.281-2.232
			c-1.344,0-2.568,0.51-3.494,1.342c-0.938-1.398-2.531-2.32-4.344-2.32c-2.885,0-5.225,2.34-5.225,5.225v4.898
			c0,2.885,2.34,5.225,5.225,5.225c1.344,0,2.568-0.508,3.494-1.342c0.938,1.4,2.533,2.32,4.344,2.32
			c1.295,0,2.479-0.473,3.393-1.252c0.943,1.35,2.51,2.232,4.279,2.232c2.887,0,5.227-2.34,5.227-5.225v-4.898
			C67.885,54.228,65.545,51.89,62.658,51.89z"/>
	</g>
	<path opacity="0.1" enable-background="new    " d="M62.658,51.89c-1.295,0-2.479,0.473-3.391,1.252
		c-0.945-1.35-2.51-2.232-4.281-2.232c-1.344,0-2.568,0.51-3.494,1.342c-0.938-1.398-2.531-2.32-4.344-2.32
		c-2.885,0-5.225,2.34-5.225,5.225v3.346c0-2.885,2.34-5.225,5.225-5.225c1.812,0,3.406,0.922,4.344,2.32
		c0.926-0.834,2.15-1.34,3.494-1.34c1.771,0,3.336,0.883,4.281,2.23c0.912-0.781,2.096-1.252,3.391-1.252
		c2.887,0,5.227,2.338,5.227,5.225v-3.348C67.885,54.228,65.545,51.89,62.658,51.89z"/>
	<path fill="#F2FFE9" d="M78.682,61.251H6.312c-1.432,0-2.592,1.16-2.592,2.592s1.16,2.592,2.592,2.592h4.871
		c1.939,3.115,5.392,5.191,9.332,5.191h43.963c3.939,0,7.391-2.076,9.33-5.191h4.873c1.43,0,2.59-1.16,2.59-2.592
		S80.111,61.251,78.682,61.251z"/>
	<path fill="#F48911" d="M10.104,60.071c-1.43-1.43-2.42-3.23-2.789-5.072c-0.082-0.406,0.053-0.826,0.355-1.109
		c0.303-0.285,0.73-0.393,1.133-0.285l6.211,1.664c0.103,0.029,0.213-0.002,0.289-0.076c0.076-0.076,0.105-0.188,0.078-0.291
		l-1.664-6.211c-0.107-0.4,0-0.828,0.283-1.131c0.284-0.303,0.705-0.439,1.111-0.357c1.842,0.369,3.643,1.361,5.072,2.791
		c3.422,3.422,3.946,8.469,1.168,11.246C18.571,64.017,13.525,63.493,10.104,60.071z"/>
	<path fill="#FFAB5F" d="M41.592,65.841c-0.162,0.162-0.354,0.297-0.564,0.396c-7.362,3.436-12.147,3.055-16.516-1.314
		c-4.955-4.953-6.397-12.324-3.676-18.777c0.102-0.24,0.246-0.453,0.426-0.633c0.18-0.182,0.395-0.326,0.633-0.426
		c6.455-2.723,13.826-1.279,18.779,3.674c4.369,4.369,4.75,9.154,1.314,16.516C41.889,65.487,41.756,65.679,41.592,65.841z"/>
	<path opacity="0.1" enable-background="new    " d="M29.734,64.923c-4.955-4.955-6.397-12.326-3.676-18.779
		c0.102-0.238,0.246-0.453,0.426-0.633c0.181-0.18,0.395-0.326,0.634-0.426c1.33-0.562,2.698-0.941,4.077-1.154
		c-3.074-0.48-6.287-0.117-9.299,1.154c-0.239,0.102-0.453,0.246-0.633,0.426c-0.181,0.18-0.326,0.395-0.427,0.633
		c-2.722,6.453-1.278,13.824,3.675,18.779c3.113,3.111,6.438,4.199,10.754,3.324C33.268,67.759,31.467,66.655,29.734,64.923z"/>
	<g>
		<path fill="#FCE9C3" d="M67.889,31.726h-4.082c-0.676,0-1.225-0.547-1.225-1.225s0.549-1.225,1.225-1.225h4.082
			c2.158,0,3.914-1.756,3.914-3.914s-1.756-3.914-3.914-3.914h-3.545c-0.676,0-1.227-0.549-1.227-1.225s0.551-1.225,1.227-1.225
			h3.545c3.508,0,6.363,2.854,6.363,6.363C74.252,28.87,71.396,31.726,67.889,31.726z"/>
		<path fill="#FCE9C3" d="M51.75,38.827c-0.678,0-1.227-0.549-1.227-1.225v-2.795c0-3.051,2.48-5.531,5.531-5.531h3.42
			c0.678,0,1.225,0.549,1.225,1.227c0,0.676-0.547,1.225-1.225,1.225h-3.42c-1.699,0-3.082,1.381-3.082,3.08v2.795
			C52.975,38.278,52.426,38.827,51.75,38.827z"/>
	</g>
	<path fill="#F2D8A0" d="M58.74,25.358h-8.014c-3.641,0-6.602-2.961-6.602-6.602c0-3.643,2.961-6.604,6.602-6.604h2.877
		c0.678,0,1.225,0.547,1.225,1.225c0,0.676-0.547,1.225-1.225,1.225h-2.877c-2.291,0-4.154,1.863-4.154,4.154
		s1.863,4.154,4.154,4.154h8.014c0.678,0,1.227,0.549,1.227,1.225C59.967,24.813,59.418,25.358,58.74,25.358z"/>
	<circle fill="#FFFFFF" cx="34.823" cy="48.188" r="3.592"/>
	<path fill="#F48911" d="M38.064,61.257c-1.59-1.592-2.692-3.596-3.104-5.643c-0.09-0.453,0.059-0.92,0.396-1.234
		c0.336-0.316,0.812-0.438,1.259-0.316l6.909,1.852c0.113,0.029,0.238-0.004,0.322-0.088s0.117-0.207,0.086-0.32l-1.852-6.91
		c-0.119-0.445,0-0.922,0.316-1.258c0.316-0.338,0.783-0.486,1.236-0.396c2.047,0.41,4.051,1.512,5.643,3.104
		c3.807,3.807,4.389,9.42,1.297,12.51C47.484,65.646,41.873,65.063,38.064,61.257z"/>
	<circle fill="#754C24" cx="34.823" cy="48.189" r="1.407"/>
	<ellipse fill="#FFE266" cx="70.867" cy="60.168" rx="4.278" ry="4.278"/>
	<path fill="#DAF7E9" d="M10.135,64.241c1.493,4.297,5.574,7.383,10.379,7.383h43.963c4.807,0,8.887-3.086,10.379-7.383H10.135
		L10.135,64.241z"/>
	<path opacity="0.1" enable-background="new    " d="M15.115,64.241h-4.979c1.492,4.297,5.573,7.383,10.379,7.383h4.979
		C20.689,71.624,16.607,68.538,15.115,64.241z"/>
	<path fill="#F2FFE9" d="M81.271,63.843c0,1.432-1.16,2.592-2.59,2.592H6.312c-1.432,0-2.592-1.16-2.592-2.592l0,0
		c0-1.432,1.16-2.592,2.592-2.592h72.369C80.111,61.251,81.271,62.411,81.271,63.843L81.271,63.843z"/>
	<path opacity="0.1" enable-background="new    " d="M8.7,63.843c0-1.432,1.159-2.592,2.591-2.592h-4.98
		c-1.431,0-2.59,1.16-2.59,2.592s1.159,2.592,2.59,2.592h4.98C9.861,66.433,8.7,65.272,8.7,63.843z"/>
	<circle cx="34.823" cy="48.189" r="1.407"/>
	<path d="M41.461,29.604c0,0.676,0.547,1.223,1.223,1.223s1.225-0.547,1.225-1.223c0-2.055-0.543-4.074-1.57-5.842
		c-0.34-0.584-1.09-0.783-1.676-0.441c-0.584,0.34-0.781,1.088-0.441,1.674C41.031,26.388,41.461,27.981,41.461,29.604z"/>
	<path d="M78.682,60.026h-2.312c-0.025-1.031-0.338-1.992-0.857-2.809c1.348-0.729,2.168-1.781,2.168-2.994
		c0-1.629-1.477-2.973-3.725-3.619c0.256-0.457,0.463-0.918,0.613-1.369c0.529-1.588,0.338-2.945-0.537-3.82
		c-0.543-0.543-1.293-0.828-2.17-0.828c-0.934,0-1.977,0.32-3.021,0.9c-0.646-2.246-1.988-3.721-3.617-3.721
		c-2.299,0-4.033,2.939-4.033,6.84c0,0.771,0.07,1.506,0.195,2.188c-0.67,0.135-1.314,0.375-1.908,0.713
		c-0.438-0.424-0.928-0.779-1.459-1.062c0.887-1.619,1.133-3.549,0.625-5.379c-0.486-1.754-2.285-2.252-3.912-2.252
		c-1.188,0-2.355,0.301-3.395,0.854c-0.262-0.395-0.561-0.766-0.9-1.105c-1.811-1.811-4.541-2.521-7.006-1.84
		c-0.961,0.268-1.725,1.029-1.99,1.99c-0.355,1.283-0.34,2.615,0.006,3.855c-0.207,0.236-0.363,0.502-0.471,0.785
		c-0.635-0.586-1.305-1.121-2.002-1.605c-0.84-1.42-2.385-2.373-4.149-2.373c-0.187,0-0.372,0.012-0.554,0.031
		c-2.992-0.979-6.236-1.166-9.323-0.541c-2.744-2.725-4.446-6.498-4.446-10.66c0-5.135,3.303-9.51,7.895-11.119
		c1.267,1.572,2.025,3.57,2.025,5.742c0,0.676,0.549,1.225,1.225,1.225c0.678,0,1.226-0.547,1.226-1.225
		c0-2.334-0.694-4.508-1.882-6.332c0.425-0.047,0.855-0.072,1.293-0.072c1.898,0,3.721,0.574,5.268,1.662
		c0.555,0.389,1.316,0.254,1.707-0.299c0.389-0.555,0.254-1.316-0.299-1.707c-1.962-1.377-4.27-2.104-6.675-2.104
		c-1.073,0-2.118,0.119-3.123,0.346c-2.078-1.936-4.86-3.123-7.917-3.123c-7.846,0-14.229,6.383-14.229,14.23
		c0,7.904,5.276,14.598,12.492,16.75c-0.172,0.439-0.324,0.887-0.459,1.336c-1.154-0.736-2.412-1.258-3.693-1.516
		c-1.732-0.346-3.275,1.301-2.817,3.006l1.25,4.664l-4.665-1.25c-1.709-0.457-3.352,1.088-3.004,2.818
		c0.34,1.699,1.146,3.361,2.305,4.787H6.314c-2.104,0-3.814,1.711-3.814,3.816c0,2.104,1.713,3.814,3.814,3.814h4.215
		c2.248,3.195,5.949,5.191,9.988,5.191h31.125c0.676,0,1.225-0.549,1.225-1.227c0-0.676-0.549-1.225-1.225-1.225H20.518
		c-2.586,0-4.996-1.023-6.777-2.742h57.52c-1.783,1.719-4.193,2.742-6.779,2.742H57.52c-0.676,0-1.225,0.549-1.225,1.225
		c0,0.678,0.549,1.227,1.225,1.227h6.961c4.041,0,7.74-1.996,9.99-5.191h4.213c2.105,0,3.816-1.713,3.816-3.814
		C82.496,61.737,80.783,60.026,78.682,60.026z M75.23,54.224c0,0.275-0.562,0.797-1.639,1.164c-0.805-0.459-1.732-0.725-2.725-0.725
		c-0.287,0-0.566,0.025-0.842,0.066c0.691-0.436,1.375-0.982,2.02-1.627c0.113-0.113,0.223-0.229,0.33-0.344
		C74.238,53.06,75.23,53.854,75.23,54.224z M73.918,60.026h-6.102c0.076-1.619,1.412-2.914,3.051-2.914S73.844,58.407,73.918,60.026
		z M68.074,49.134c1.447-1.449,2.945-2.098,3.787-2.098c0.207,0,0.367,0.039,0.438,0.111c0.115,0.115,0.195,0.561-0.055,1.312
		c-0.312,0.936-1.016,1.996-1.932,2.91c-0.889,0.891-1.797,1.477-2.559,1.799c-0.424-0.547-0.932-1.021-1.504-1.408
		c0.061-0.154,0.133-0.316,0.221-0.486C66.85,50.546,67.402,49.804,68.074,49.134z M65.223,44.216c0.369,0,1.164,0.99,1.465,2.854
		c-1.125,1.045-2.109,2.309-2.693,3.736c-0.033-0.008-0.068-0.016-0.105-0.021c-0.148-0.605-0.248-1.334-0.248-2.176
		C63.639,45.755,64.764,44.216,65.223,44.216z M51.377,46.647c0.881-0.879,2.102-1.385,3.354-1.385c0.43,0,0.855,0.059,1.27,0.174
		c0.137,0.037,0.246,0.145,0.283,0.283c0.383,1.381,0.115,2.848-0.688,3.994c-0.201-0.02-0.404-0.029-0.607-0.029
		c-0.465,0-0.924,0.053-1.371,0.148l0.416-0.416c0.48-0.479,0.48-1.254,0-1.73c-0.479-0.48-1.254-0.48-1.73,0l-1.832,1.83
		c-0.127-0.137-0.258-0.271-0.391-0.402C50.252,48.194,50.693,47.329,51.377,46.647C52.258,45.769,50.693,47.329,51.377,46.647z
		 M43.799,43.366c0.037-0.139,0.146-0.246,0.283-0.285c0.412-0.113,0.84-0.172,1.27-0.172c1.25,0,2.473,0.504,3.354,1.385
		c0.27,0.27,0.498,0.566,0.691,0.887c-0.285,0.314-0.539,0.652-0.76,1.008l-0.855-0.855c-0.479-0.479-1.254-0.479-1.73,0
		c-0.258,0.26-0.375,0.604-0.355,0.939c-0.598-0.23-1.205-0.408-1.816-0.531c-0.041-0.008-0.082-0.014-0.123-0.02
		C43.574,44.956,43.582,44.147,43.799,43.366z M46.234,56.481l-1.076-1.076c-0.008-0.072-0.021-0.145-0.041-0.217l-1.852-6.91
		c-0.008-0.094,0.035-0.139,0.129-0.137c1.812,0.363,3.596,1.346,5.018,2.768c1.369,1.369,2.309,3.02,2.713,4.768
		c0.152,0.658,0.811,1.068,1.469,0.916c0.66-0.152,1.07-0.812,0.918-1.471c-0.182-0.779-0.447-1.545-0.789-2.279
		c0.664-0.457,1.449-0.707,2.266-0.707c1.182,0,2.299,0.525,3.057,1.424v2.576c0,0.676,0.549,1.225,1.225,1.225
		c0.678,0,1.227-0.549,1.227-1.225v-2.377c0.643-0.416,1.395-0.645,2.166-0.645c2.053,0,3.748,1.553,3.975,3.545
		c-0.764,0.92-1.236,2.09-1.27,3.367H53.432c0.059-0.203,0.113-0.408,0.158-0.619c0.141-0.66-0.281-1.311-0.943-1.451
		s-1.312,0.281-1.453,0.943c-0.084,0.398-0.205,0.773-0.357,1.127h-12.25c-1.234-1.355-2.09-2.99-2.423-4.652
		c-0.002-0.094,0.043-0.137,0.138-0.129l6.908,1.852c0.07,0.02,0.145,0.033,0.219,0.041l1.076,1.076
		c0.508,0.51,1.371,0.461,1.82-0.1C46.711,57.636,46.672,56.919,46.234,56.481z M39.502,49.327c0.104,0.1,0.205,0.197,0.307,0.297
		c0.787,0.789,1.428,1.588,1.93,2.412l0.615,2.295l-5.418-1.451c-0.229-0.062-0.461-0.09-0.69-0.088
		C37.852,52.296,39.102,50.976,39.502,49.327z M34.823,45.823c1.305,0,2.366,1.062,2.366,2.367s-1.062,2.367-2.366,2.367
		c-1.306,0-2.367-1.062-2.367-2.367S33.518,45.823,34.823,45.823z M28.577,44.95c0.851,0,1.688,0.068,2.513,0.199
		c-0.677,0.83-1.082,1.889-1.082,3.041c0,2.654,2.159,4.816,4.815,4.816c0.161,0,0.321-0.01,0.478-0.025
		c-0.283,0.117-0.548,0.285-0.781,0.504c-0.649,0.609-0.934,1.494-0.758,2.369c0.291,1.449,0.889,2.873,1.737,4.172h-13.06
		c-2.1-4.104-2.34-8.988-0.476-13.408c0.077-0.182,0.226-0.33,0.406-0.404C24.355,45.374,26.443,44.95,28.577,44.95z M9.46,29.429
		c0-6.496,5.285-11.779,11.781-11.779c1.915,0,3.692,0.59,5.166,1.596c-4.923,2.24-8.354,7.207-8.354,12.959
		c0,4.355,1.602,8.344,4.245,11.406c-0.294,0.107-0.586,0.223-0.877,0.346c-0.091,0.037-0.179,0.08-0.266,0.127
		C14.467,42.56,9.46,36.571,9.46,29.429z M14.864,56.483l0.938,0.939c0.51,0.51,1.371,0.461,1.821-0.1
		c0.386-0.48,0.347-1.195-0.089-1.633l-0.939-0.938c-0.008-0.059-1.688-6.344-1.688-6.344c1.247,0.258,2.477,0.848,3.551,1.689
		c-0.509,3.381-0.059,6.814,1.279,9.928h-7.831c-0.326-0.252-0.642-0.523-0.938-0.822c-1.252-1.252-2.119-2.814-2.447-4.408
		C8.523,54.798,14.807,56.476,14.864,56.483z M78.682,65.21H6.312c-0.754,0-1.367-0.613-1.367-1.367s0.613-1.367,1.367-1.367h72.369
		c0.752,0,1.365,0.613,1.365,1.367S79.434,65.21,78.682,65.21z"/>
</g>
</svg>
