<?xml version="1.0" encoding="utf-8"?>
<!-- Generator: Adobe Illustrator 16.0.0, SVG Export Plug-In . SVG Version: 6.00 Build 0)  -->
<!DOCTYPE svg PUBLIC "-//W3C//DTD SVG 1.1//EN" "http://www.w3.org/Graphics/SVG/1.1/DTD/svg11.dtd">
<svg version="1.1" id="Layer_1" xmlns="http://www.w3.org/2000/svg" xmlns:xlink="http://www.w3.org/1999/xlink" x="0px" y="0px"
	 width="85px" height="85px" viewBox="0 0 85 85" enable-background="new 0 0 85 85" xml:space="preserve">
<g>
	<path fill="#F16771" d="M39.461,72.551c-4.139-2.709-11.766-5.885-24.354-5.885c-3.482,0.014-6.959,0.244-10.412,0.688L2.5,67.629
		V12.196l1.529-0.354c3.959-0.877,8.002-1.324,12.059-1.333c7.688,0,18.412,1.786,25.922,10.254l0.49,0.49v53.297L39.461,72.551z"/>
	
		<path fill="none" stroke="#241F20" stroke-width="1.7183" stroke-linecap="round" stroke-linejoin="round" stroke-miterlimit="10" d="
		M39.461,72.551c-4.139-2.709-11.766-5.885-24.354-5.885c-3.482,0.014-6.959,0.244-10.412,0.688L2.5,67.629V12.196l1.529-0.354
		c3.959-0.877,8.002-1.324,12.059-1.333c7.688,0,18.412,1.786,25.922,10.254l0.49,0.49v53.297L39.461,72.551z"/>
	<path fill="#F16771" d="M42.5,21.254l0.49-0.548C50.5,12.215,61.244,10.45,68.912,10.45c4.055,0.01,8.098,0.457,12.059,1.332
		l1.529,0.354V67.57l-2.195-0.275c-3.436-0.439-6.893-0.672-10.354-0.688c-12.648,0-20.217,3.236-24.354,5.883l-3.039,1.959
		L42.5,21.254L42.5,21.254z"/>
	
		<path fill="none" stroke="#241F20" stroke-width="1.7183" stroke-linecap="round" stroke-linejoin="round" stroke-miterlimit="10" d="
		M42.5,21.254l0.49-0.548C50.5,12.215,61.244,10.45,68.912,10.45c4.055,0.01,8.098,0.457,12.059,1.332l1.529,0.354V67.57
		l-2.195-0.275c-3.436-0.439-6.893-0.672-10.354-0.688c-12.648,0-20.217,3.236-24.354,5.883l-3.039,1.959L42.5,21.254L42.5,21.254z"
		/>
	<path fill="#8CD1F1" d="M50.377,14.801v21.632c0,0.754,0.918,1.126,1.441,0.583l4.084-4.236c0.303-0.312,0.795-0.344,1.135-0.067
		l4.094,3.339c0.549,0.446,1.369,0.056,1.369-0.65V11.36L50.377,14.801z"/>
	
		<path fill="none" stroke="#221F1F" stroke-width="1.7183" stroke-linecap="round" stroke-linejoin="round" stroke-miterlimit="10" d="
		M50.377,14.801v21.632c0,0.754,0.918,1.126,1.441,0.583l4.084-4.236c0.303-0.312,0.795-0.344,1.135-0.067l4.094,3.339
		c0.549,0.446,1.369,0.056,1.369-0.65V11.36L50.377,14.801z M48.998,59.674c0,0,12.602-7.18,27.002-2.99"/>
</g>
</svg>
