<?xml version="1.0" encoding="utf-8"?>
<!-- Generator: Adobe Illustrator 16.0.0, SVG Export Plug-In . SVG Version: 6.00 Build 0)  -->
<!DOCTYPE svg PUBLIC "-//W3C//DTD SVG 1.1//EN" "http://www.w3.org/Graphics/SVG/1.1/DTD/svg11.dtd">
<svg version="1.1" id="Layer_1" xmlns="http://www.w3.org/2000/svg" xmlns:xlink="http://www.w3.org/1999/xlink" x="0px" y="0px"
	 width="85px" height="85px" viewBox="0 0 85 85" enable-background="new 0 0 85 85" xml:space="preserve">
<g id="Layer_2">
	<g id="Layer_1-2">
		<g id="meat">
			<path fill="#FF6368" d="M13.146,13.795c-5.73,4.11-8.42,11.279-6.811,18.148c2.551,10.949,9.48,25.879,28.229,29.588
				c30.459,6.031,49.268-12.088,45.049-27.117c-2.891-10.209-11.58-12.43-25.09-9.18c-6.109,1.49-12.561,0.061-17.469-3.859
				C29.266,15.125,19.156,8.346,13.146,13.795z"/>
			<path fill="#354251" d="M46.244,65.031c-12.389,0.15-26.178-3.947-33.688-14.146c-4.17-5.432-7.07-11.73-8.51-18.42
				c-1.881-8.25,1.641-16.799,8.799-21.318c5.4-3.899,14.029-1.09,25.67,8.338c4.318,3.511,10.02,4.83,15.438,3.58
				c13.09-3.06,23.828-2.209,27.869,10.791c1.869,6.668-0.17,13.889-5.621,19.777C69.223,61.293,57.135,65.174,46.244,65.031z
				 M18.426,14.096c-1.461-0.011-2.859,0.549-3.92,1.569l0,0c-4.988,3.56-7.328,9.778-5.939,15.749
				c2.541,10.83,9.26,24.43,26.418,27.84c13.77,2.738,28.549,0.85,37.809-8.82c4.32-4.699,5.99-10.33,4.609-15.439
				c-1.58-5.639-5.568-11.578-22.318-7.559c-6.818,1.649-14.02,0.039-19.488-4.359C28.334,17.215,22.326,14.096,18.426,14.096z"/>
			<path fill="#FFFFFF" d="M33.145,34.154c-0.311,10.109-14.979,10.1-15.318,0c0-4.229,3.43-7.659,7.66-7.659
				C29.715,26.495,33.145,29.924,33.145,34.154z"/>
			<path fill="#C6C5C4" d="M24.637,34.154c0.02-2.899,1.68-5.54,4.287-6.811c-3.787-1.85-8.367-0.279-10.219,3.521
				c-1.85,3.8-0.279,8.37,3.521,10.22c2.119,1.029,4.59,1.029,6.709,0C26.275,39.795,24.605,37.104,24.637,34.154z"/>
			<path fill="#354251" d="M25.525,44.113c-5.5-0.01-9.949-4.459-9.959-9.959c0.461-13.189,19.459-13.189,19.918,0
				C35.475,39.654,31.016,44.104,25.525,44.113z M25.525,28.795c-2.939,0-5.33,2.391-5.33,5.33s2.391,5.328,5.33,5.328
				c2.93-0.238,5.121-2.799,4.891-5.738c-0.211-2.609-2.279-4.681-4.891-4.891V28.795z"/>
			<path fill="#354251" d="M32.246,62.223c-1.281-0.01-2.311-1.061-2.301-2.34c0.01-0.939,0.58-1.771,1.439-2.131
				c4.811-1.859,9-5.039,12.1-9.158c1.311-1.701,2.35-3.602,3.08-5.621c0.371-1.229,1.67-1.92,2.891-1.549
				c1.229,0.369,1.92,1.67,1.549,2.889l0,0C47.744,52.793,40.855,59.352,32.246,62.223z"/>
			<path fill="#354251" d="M52.523,63.932c-1.279-0.01-2.311-1.049-2.311-2.33c0-0.789,0.41-1.529,1.08-1.949
				c9.67-6.029,10.67-13.959,10.67-14.027c0.141-1.271,1.289-2.191,2.561-2.051c1.27,0.141,2.189,1.289,2.051,2.561
				c0,0.43-1.281,10.209-12.84,17.447C53.385,63.812,52.955,63.932,52.523,63.932z"/>
			<path fill="#D34A5B" d="M34.545,61.531C14.896,57.973,4.836,38.264,6.115,25.034c-2.318,4.851-1.068,12.239,0.201,17.649
				c2.549,11.029,9.479,25.879,28.229,29.588c28.418,5.619,46.357-14.879,45.217-29.879C76.902,55.023,59.693,66.502,34.545,61.531z
				"/>
			<path fill="#354251" d="M44.074,75.551c-11.68,0.17-24.518-4.439-31.527-13.928c-4.17-5.432-7.068-11.73-8.51-18.42
				c-1.279-5.529-2.689-13.52-0.02-19.169c0.549-1.16,1.93-1.649,3.08-1.101c0.938,0.44,1.469,1.461,1.289,2.48
				c-0.352,1.988-0.289,4.029,0.17,5.988c2.541,10.83,9.26,24.43,26.418,27.84c19.648,3.859,38.248-2.369,42.559-17.369
				c0.289-1.25,1.539-2.021,2.779-1.73c0.979,0.23,1.699,1.07,1.779,2.07C82.672,59.652,66.002,75.441,44.074,75.551z
				 M10.037,47.402c8.959,29.109,49.027,30.148,63.125,9.041c-8.508,6.93-22.297,10.668-39.066,7.35l0,0
				c-9.979-1.789-18.709-7.75-24.01-16.391H10.037L10.037,47.402z"/>
		</g>
	</g>
</g>
</svg>
