<?xml version="1.0" encoding="utf-8"?>
<!-- Generator: Adobe Illustrator 16.0.0, SVG Export Plug-In . SVG Version: 6.00 Build 0)  -->
<!DOCTYPE svg PUBLIC "-//W3C//DTD SVG 1.1//EN" "http://www.w3.org/Graphics/SVG/1.1/DTD/svg11.dtd">
<svg version="1.1" id="Layer_1" xmlns="http://www.w3.org/2000/svg" xmlns:xlink="http://www.w3.org/1999/xlink" x="0px" y="0px"
	 width="85px" height="85px" viewBox="0 0 85 85" enable-background="new 0 0 85 85" xml:space="preserve">
<g>
	<path fill-rule="evenodd" clip-rule="evenodd" fill="#95767B" d="M70.939,34.844c1.021,2.234,2.633,3.971,4.565,5.444
		c2.715,2.069,4.823,4.611,6.017,7.847c0.773,2.096,1.041,4.271,0.967,6.494c-0.112,0.256-0.349,0.235-0.562,0.239
		c-0.626,0.014-1.252,0.005-1.878,0.005c-3.349,0.001-6.697,0.001-10.046,0c-0.247,0-0.496,0.017-0.739-0.033
		c-0.191-0.034-0.232-0.194-0.293-0.345c-0.244-0.609-0.521-1.206-0.769-1.814c-0.136-0.335-0.34-0.596-0.661-0.784
		c-0.503-0.295-0.987-0.623-1.47-0.951c-0.34-0.23-0.355-0.368-0.079-0.665c0.269-0.29,0.505-0.605,0.771-0.896
		c0.29-0.318,0.492-0.65,0.493-1.121c0-0.491,0.292-0.734,0.794-0.842c0.297-0.063,0.613-0.061,0.872-0.255
		c0.245-0.184,0.46-0.406,0.705-0.592c0.096-0.088,0.215-0.151,0.248-0.191c-0.029,0.054-0.172,0.102-0.263,0.204
		c-0.253,0.181-0.462,0.413-0.718,0.59c-0.267,0.179-0.577,0.19-0.88,0.22c-0.641,0.062-0.859,0.239-0.945,0.858
		c-0.054,0.379-0.209,0.678-0.464,0.961c-0.302,0.337-0.608,0.668-0.929,0.987c-0.222,0.221-0.433,0.192-0.656,0.011
		c-0.14-0.114-0.233-0.259-0.316-0.415c-0.123-0.232-0.195-0.488-0.32-0.719c-0.352-0.652-0.476-1.346-0.353-2.072
		c0.04-0.24-0.052-0.35-0.237-0.448c-0.297-0.158-0.62-0.257-0.916-0.416c-0.153-0.082-0.3-0.186-0.464-0.234
		c-0.505-0.147-0.856-0.46-1.073-0.933c-0.188-0.293-0.363-0.594-0.539-0.895c-0.199-0.296-0.359-0.617-0.575-0.903
		c-0.027-0.059-0.05-0.119-0.049-0.119c0.019,0.021,0.018,0.132,0.103,0.188c0.172,0.291,0.354,0.575,0.53,0.862
		c0.173,0.298,0.352,0.591,0.531,0.883c0.225,0.647,0.827,0.817,1.36,1.076c0.22,0.114,0.445,0.216,0.667,0.325
		c0.699,0.345,0.725,0.348,0.628,1.124c-0.054,0.426,0.023,0.799,0.18,1.186c0.728,1.801,0.723,1.803,2.263,2.973
		c0.336,0.255,0.661,0.524,0.991,0.789c0.183,0.146,0.303,0.326,0.261,0.565c-0.076,0.434-0.049,0.871-0.062,1.307
		c-0.006,0.186,0.011,0.391-0.216,0.482c-0.155,0.052-0.315,0.051-0.476,0.051c-2.021-0.001-4.041,0.007-6.061-0.002
		c-1.267-0.047-2.534-0.008-3.802-0.02c-0.631-0.006-0.692-0.039-0.805-0.664c-0.433-2.418-1.206-4.71-2.475-6.824
		c-0.293-0.487-0.615-0.955-0.96-1.406c-0.03-0.032-0.058-0.068-0.083-0.105c-0.098-0.192-0.251-0.339-0.404-0.486
		c-1.269-1.479-2.791-2.49-4.798-2.611c-0.129-0.009-0.264-0.003-0.371-0.099c-0.042-0.248,0.162-0.357,0.292-0.501
		c0.93-1.021,1.591-2.177,1.837-3.552c0.062-0.344,0.021-0.697,0.119-1.038c0.046-0.158,0.092-0.305,0.244-0.394
		c0.885-0.519,1.418-1.266,1.498-2.307c0.294-0.541,0.326-1.141,0.368-1.732c0.114-1.601-0.275-3.089-1.049-4.485
		c-0.028-0.051-0.058-0.102-0.082-0.154c-0.053-0.116-0.167-0.242-0.065-0.36c0.105-0.123,0.241-0.018,0.358,0.028
		c0.068,0.026,0.124,0.076,0.25,0.118c-0.115-0.216-0.227-0.388-0.319-0.568c-0.093-0.182-0.217-0.345-0.33-0.514
		c-0.662-0.935-1.503-1.698-2.351-2.455c-0.154-0.137-0.481-0.257-0.378-0.467c0.104-0.21,0.392-0.007,0.599,0.016
		c0.071,0.007,0.141,0.041,0.251,0.005c-0.072-0.267-0.288-0.412-0.484-0.556c-1.01-0.738-2.133-1.251-3.312-1.647
		c-0.161-0.054-0.354-0.055-0.436-0.249c0.028-0.103,0.111-0.131,0.201-0.152c1.088,0.097,2.091,0.485,3.085,0.905
		c0.118,0.05,0.223,0.131,0.344,0.155c-1.812-0.903-3.748-1.287-5.769-1.281c-3.031,0.009-5.774,0.856-8.131,2.815
		c-0.111,0.093-0.226,0.186-0.364,0.239c-0.075,0.016-0.128-0.012-0.158-0.082c0.108-0.44,0.407-0.769,0.685-1.097
		c1.212-1.436,2.734-2.342,4.608-2.621c0.069-0.01,0.132-0.053,0.164-0.051c-2.365,0.364-4.221,1.553-5.463,3.664
		c-0.21,0.62-0.612,1.122-1.007,1.628c-0.141,0.179-0.33,0.218-0.542,0.228c-1.243,0.058-2.417,0.371-3.501,0.986
		c-0.716,0.406-1.268,0.959-1.525,1.843c0.521-0.202,0.914-0.501,1.334-0.747c0.717-0.419,1.412-0.878,2.2-1.163
		c0.11-0.04,0.216-0.088,0.333-0.105c0.074-0.011,0.156-0.014,0.198,0.055c0.042,0.068,0.001,0.14-0.039,0.202
		c-0.089,0.136-0.21,0.241-0.335,0.342c-2.084,1.688-2.487,2.23-3.371,4.43c0.325-0.946,0.91-2.043,1.727-3.01
		c0.13-0.154,0.232-0.342,0.467-0.361c0.046,0.007,0.082,0.03,0.109,0.068c0.053,0.139-0.012,0.255-0.074,0.371
		c-1.273,2.362-1.456,4.838-0.79,7.407c0.221,0.851,0.588,1.636,1.019,2.397c-0.346-0.652-0.709-1.298-0.889-2.023
		c0.007-0.092,0.03-0.176,0.124-0.218c0.152,0.021,0.211,0.15,0.271,0.26c0.381,0.7,0.924,1.263,1.497,1.803
		c0.252,0.244,0.542,0.439,0.829,0.636c0.117,0.08,0.269,0.128,0.295,0.298c-0.19,0.99,0.441,2.012,1.428,2.286
		c0.254,0.07,0.433,0.181,0.558,0.43c0.449,0.894,1.129,1.582,1.968,2.117c0.371,0.232,0.767,0.405,1.185,0.531
		c0.825,0.255,1.664,0.419,2.532,0.384c0.159-0.007,0.321-0.01,0.472,0.059c0.187,0.209-0.047,0.273-0.132,0.39
		c-1.621,1.372-3.066,2.903-4.218,4.695c-0.512,0.796-0.835,1.656-0.835,2.627c0,0.532,0.154,0.963,0.554,1.319
		c0.099,0.087,0.367,0.167,0.145,0.396c-0.048,0.021-0.097,0.036-0.149,0.046c-0.249,0.032-0.497,0.021-0.745,0.021
		c-9.74,0.001-19.48,0-29.22,0.003c-0.76,0-1.513-0.119-2.274-0.104c-0.179,0.004-0.437,0.018-0.403-0.304
		c0.457-2.323,1.293-4.48,2.779-6.354c0.383-0.483,0.827-0.906,1.291-1.308c1.737-1.5,2.265-3.424,2.034-5.639
		c-0.146-1.396-0.6-2.736-0.708-4.138c-0.2-2.604,0.277-5.011,2.074-7.011c1.273-1.417,2.88-2.279,4.79-2.338
		c2.4-0.074,4.167-1.158,5.494-3.078c1.039-1.502,1.607-3.19,1.978-4.966c0.369-1.769,1.219-3.252,2.804-4.212
		c1.624-0.984,3.376-1.005,5.167-0.588c0.9,0.209,1.766,0.525,2.582,0.953c4.76,2.494,9.564,2.295,14.404,0.266
		c2.192-0.919,4.352-1.926,6.685-2.466c2.484-0.575,4.987-0.883,7.492-0.203c3.502,0.951,7.865,4.104,8.363,9.793
		c0.104,1.197,0.066,2.391,0.021,3.587c-0.07,1.826-0.073,3.649,0.303,5.45c0.029,0.142,0.029,0.294,0.163,0.392
		c0.002,0.135-0.103,0.203-0.187,0.275c-0.389,0.335-0.611,0.761-0.708,1.258c-0.054,0.273-0.193,0.512-0.296,0.763
		c0.265,0.192,0.54,0.071,0.812,0.03C70.271,35.032,70.566,34.713,70.939,34.844z"/>
	<path fill-rule="evenodd" clip-rule="evenodd" fill="#E4E4DC" d="M2.582,54.556c0.059,0.297,0.3,0.175,0.461,0.18
		c3.619,0.126,7.239,0.082,10.859,0.086c7.153,0.008,14.307-0.002,21.46-0.004c0.109,0.128,0.113,0.276,0.086,0.432
		c-0.091,0.462-0.064,0.925-0.009,1.387c0.184,1.554,0.569,3.058,1.099,4.527c0.064,0.177,0.131,0.354,0.15,0.545
		c0.017,0.198-0.051,0.374-0.153,0.538c-0.12,0.191-0.177,0.396-0.182,0.621c-0.01,0.494-0.252,0.852-0.653,1.125
		c-0.342,0.234-0.728,0.374-1.103,0.531c-1.153,0.486-1.011,1.841-0.255,2.437c0.609,0.48,1.319,0.743,2.042,0.979
		c1.034,0.336,2.105,0.479,3.181,0.582c1.25,0.12,2.481,0.379,3.73,0.508c2.209,0.229,4.403,0.229,6.539-0.488
		c1.33-0.447,2.498-1.182,3.364-2.282c1.794-2.279,4.219-3.332,6.99-3.758c0.677-0.104,1.356-0.212,2.046-0.171
		c0.048,0.002,0.096,0.009,0.142,0.02c0.786,0.316,1.568,0.245,2.35-0.021c2.291,0.009,4.493-0.429,6.597-1.339
		c0.579-0.25,1.11-0.581,1.541-1.055c0.408-0.449,0.403-0.858-0.015-1.31c-0.377-0.406-0.849-0.66-1.352-0.868
		c-1.618-0.669-3.318-1.004-5.044-1.228c-2.477-0.32-4.966-0.416-7.46-0.342c-0.607,0.018-1.223,0.037-1.829,0.129
		c-0.201,0.031-0.41,0.052-0.576-0.117c-0.223-0.372-0.167-0.79-0.185-1.192c-0.012-0.259,0.202-0.231,0.378-0.231
		c1.165,0.001,2.33,0.002,3.495,0c0.159,0,0.32,0.019,0.479-0.02c2.254-0.009,4.507-0.019,6.761-0.028
		c0.523-0.21,1.047-0.204,1.572-0.006c3.176-0.001,6.352-0.001,9.527-0.003c1.137,0,2.273-0.004,3.409-0.008
		c0.158-0.001,0.323,0.03,0.463-0.082c-0.05,1.688-0.424,3.311-1.027,4.88c-0.61,1.589-1.652,2.892-2.761,4.159
		c-1.4,1.602-3.023,2.936-4.782,4.114c-2.27,1.521-4.776,2.449-7.444,2.985c-1.792,0.36-3.586,0.682-5.405,0.89
		c-2.221,0.254-4.446,0.304-6.671,0.227c-1.533-0.053-3.069-0.171-4.594-0.396c-1.62-0.24-3.247-0.428-4.872-0.639
		c-1.537-0.199-3.073-0.414-4.613-0.594c-1.239-0.145-2.482-0.245-3.724-0.368c-1.636-0.161-3.276-0.223-4.918-0.276
		c-1.322-0.044-2.645-0.103-3.965-0.175c-1.552-0.084-3.107-0.145-4.656-0.262c-2.761-0.209-5.521-0.449-8.236-1.037
		c-1.683-0.364-3.311-0.887-4.875-1.618c-1.633-0.763-3.175-1.671-4.47-2.925c-1.455-1.409-2.243-3.205-2.699-5.151
		c-0.288-1.227-0.292-2.48-0.263-3.733C2.512,54.658,2.557,54.607,2.582,54.556z"/>
	<path fill-rule="evenodd" clip-rule="evenodd" fill="#BE6438" d="M68.988,35.014c0.162-0.372,0.293-0.751,0.396-1.146
		c0.132-0.508,0.465-0.895,0.912-1.175c0.554-0.309,1.11-0.608,1.781-0.405c0.128,0.242-0.069,0.386-0.187,0.532
		c-0.372,0.465-0.763,0.917-1.209,1.316c-0.029,0.027-0.062,0.051-0.095,0.073c-0.159,0.086-0.279,0.215-0.389,0.355
		c-0.072,0.079-0.159,0.135-0.256,0.178C69.613,34.791,69.374,35.162,68.988,35.014z"/>
	<path fill-rule="evenodd" clip-rule="evenodd" fill="#BE9637" d="M13.163,16.1c0.68-0.168,1.263-0.673,2.004-0.614
		c0.646,0.051,1.19,0.352,1.656,0.794c0.117,0.11,0.225,0.229,0.249,0.398c-0.069,0.097-0.174,0.123-0.283,0.141
		c-0.474,0.009-0.948,0.027-1.421-0.012c-0.513-0.126-1.05-0.153-1.547-0.352C13.58,16.378,13.379,16.224,13.163,16.1z"/>
	<path fill-rule="evenodd" clip-rule="evenodd" fill="#BE6439" d="M69.968,34.667c0.059-0.058,0.117-0.116,0.176-0.174
		c0.161-0.099,0.278-0.253,0.438-0.354l-0.001,0.001c0.542-0.423,0.974-0.951,1.401-1.483c0.069-0.086,0.102-0.219,0.257-0.181
		c0.244,0.778-0.126,1.357-0.635,1.874c-0.191,0.194-0.441,0.331-0.665,0.493c-0.354,0.081-0.668,0.314-1.054,0.265
		c-0.208,0.067-0.413,0.052-0.661-0.006C69.439,34.848,69.724,34.792,69.968,34.667z"/>
	<path fill-rule="evenodd" clip-rule="evenodd" fill="#BE9638" d="M16.982,16.886c-0.385,0.585-0.98,0.701-1.601,0.64
		c-0.881-0.086-1.586-0.517-2.084-1.262c0.197-0.085,0.324,0.103,0.494,0.126c0.461,0.172,0.942,0.26,1.427,0.329
		c0.438,0.077,0.878,0.077,1.32,0.077C16.69,16.795,16.856,16.751,16.982,16.886z"/>
	<path fill-rule="evenodd" clip-rule="evenodd" fill="#AC7F3C" d="M72.239,32.477c-0.426,0.469-0.792,0.99-1.271,1.409
		c-0.118,0.103-0.202,0.254-0.387,0.255c0.392-0.436,0.787-0.868,1.173-1.309c0.14-0.16,0.284-0.322,0.324-0.544
		c0.059-0.054,0.117-0.107,0.176-0.16c0.078-0.012,0.131-0.001,0.087,0.097C72.307,32.309,72.272,32.393,72.239,32.477z"/>
	<path fill-rule="evenodd" clip-rule="evenodd" fill="#757438" d="M16.982,16.886c-0.621,0.007-1.24-0.014-1.855-0.103
		c-0.007-0.165,0.086-0.121,0.176-0.084c0.495,0.003,0.991,0.007,1.486,0.01c0.08,0.087,0.225-0.013,0.295,0.102
		C17.05,16.836,17.016,16.861,16.982,16.886z"/>
	<path fill-rule="evenodd" clip-rule="evenodd" fill="#697446" d="M17.084,16.811c-0.102-0.025-0.222,0.003-0.295-0.102
		c0.094-0.011,0.189-0.021,0.283-0.032c0.306-0.067,0.613-0.134,1.046-0.229C17.758,16.781,17.427,16.813,17.084,16.811z"/>
	<path fill-rule="evenodd" clip-rule="evenodd" fill="#B08C4A" d="M72.341,32.225c-0.029-0.032-0.059-0.064-0.087-0.097
		c0.097-0.265,0.262-0.499,0.365-0.766C72.73,31.714,72.521,31.965,72.341,32.225z"/>
	<path fill-rule="evenodd" clip-rule="evenodd" fill="#99863C" d="M13.722,16.438c-0.142-0.058-0.283-0.116-0.425-0.174
		c-0.045-0.055-0.09-0.11-0.135-0.165c0.242,0.016,0.441,0.143,0.648,0.25C13.803,16.401,13.751,16.408,13.722,16.438z"/>
	<path fill-rule="evenodd" clip-rule="evenodd" fill="#5A3724" d="M33.516,24.495c1.073-1.016,2.328-1.738,3.691-2.283
		c1.283-0.512,2.615-0.717,3.998-0.811c2.05-0.139,4,0.167,5.898,0.903c0.398,0.154,0.805,0.304,1.092,0.666
		c-1.247-0.469-2.458-1.04-3.799-1.193c-0.136-0.078-0.29,0.039-0.427-0.039c-0.183-0.051-0.373-0.057-0.499-0.084
		c0.074-0.007,0.2,0.051,0.335,0.05c0.145,0.036,0.294,0.058,0.413,0.158c1.357,0.385,2.632,0.951,3.775,1.784
		c0.21,0.152,0.382,0.358,0.561,0.55c0.053,0.058,0.11,0.148,0.039,0.235c-0.057,0.067-0.131,0.037-0.203,0.02
		c-0.261-0.063-0.521-0.125-0.885-0.21c1.028,0.825,1.911,1.647,2.672,2.594c0.072,0.091,0.161,0.171,0.177,0.295
		c-0.294,0.045-0.396-0.198-0.533-0.37c-0.567-0.716-1.3-1.179-2.236-1.507c0.495,0.632,0.917,1.203,1.236,1.841
		c0.046,0.091,0.095,0.181,0.132,0.276c0.047,0.124,0.104,0.258-0.009,0.368c-0.123,0.119-0.248,0.025-0.355-0.043
		c-0.247-0.156-0.495-0.307-0.809-0.439c0.441,0.452,0.74,0.95,0.984,1.482c0.087,0.189,0.167,0.398,0.008,0.575
		c-0.151,0.169-0.354,0.073-0.533,0.023c-0.322-0.089-0.642-0.195-1.032-0.154c0.783,0.54,1.364,1.203,1.716,2.056
		c0.106,0.258,0.197,0.518,0.2,0.8c0.001,0.116-0.01,0.246-0.146,0.289c-0.136,0.043-0.224-0.05-0.287-0.149
		c-0.189-0.294-0.392-0.575-0.635-0.832c-0.601-0.636-1.372-0.91-2.193-1.092c-0.318-0.215-0.558-0.171-0.866,0.099
		c-0.563,0.493-1.278,0.735-1.985,0.965c-0.116,0.026-0.235,0.045-0.347,0.09c-0.061,0.022-0.122,0.042-0.22,0.073
		c0.128-0.032,0.216-0.065,0.305-0.095c0.121-0.041,0.248-0.049,0.368-0.093c0.44-0.087,0.808-0.441,1.296-0.354
		c0.069,0.047,0.104,0.103,0.048,0.183c-0.646,0.424-1.386,0.607-2.124,0.734c-1.3,0.224-2.606,0.43-3.936,0.404
		c-0.528-0.01-1.038-0.088-1.539-0.247c-0.199-0.076-0.412-0.116-0.599-0.222c0.156,0.114,0.355,0.128,0.525,0.209
		c0.931,0.281,1.883,0.377,2.851,0.353c0.175-0.005,0.35-0.01,0.524,0.019c0.097,0.027,0.192,0.057,0.211,0.176
		c-0.249,0.29-0.614,0.246-0.929,0.281c-1.247,0.136-2.46-0.014-3.609-0.551c-0.291-0.136-0.558-0.311-0.806-0.512
		c-0.247-0.201-0.353-0.146-0.34,0.167c-0.14,1.231-0.538,2.376-1.168,3.441c-0.06,0.1-0.118,0.202-0.22,0.266
		c-0.141,0.049-0.211-0.024-0.251-0.147c0.06-0.272,0.229-0.495,0.335-0.746c0.091-0.204,0.2-0.4,0.28-0.61
		c0.076-0.233,0.203-0.447,0.261-0.687c0.084-0.163,0.142-0.334,0.171-0.516c0.07-0.151,0.078-0.317,0.102-0.451
		c-0.043,0.106-0.018,0.257-0.085,0.385c-0.046,0.2-0.094,0.399-0.196,0.581c-0.047,0.224-0.167,0.42-0.24,0.634
		c-0.066,0.216-0.194,0.405-0.272,0.615c-0.135,0.23-0.224,0.485-0.373,0.708c-0.202,0.334-0.427,0.652-0.676,0.952
		c-0.091,0.11-0.218,0.26-0.358,0.171c-0.176-0.112-0.009-0.256,0.056-0.368c0.129-0.225,0.288-0.432,0.41-0.662
		c0.324-0.551,0.671-1.09,0.889-1.697c0.067-0.123,0.127-0.248,0.169-0.381c0.09-0.154,0.125-0.327,0.169-0.497
		c0.086-0.102,0.097-0.238,0.159-0.351c0.021-0.055-0.069-0.033-0.012-0.024c-0.037,0.138-0.074,0.275-0.159,0.394
		c-0.186,0.643-0.583,1.17-0.953,1.708c-0.455,0.662-0.972,1.277-1.5,1.882c-0.326,0.374-0.493,0.335-0.651-0.137
		c-0.108-0.321-0.161-0.651-0.18-0.997c-0.134,0.196-0.168,0.419-0.179,0.653c-0.036,0.779,0.023,1.545,0.288,2.288
		c0.051,0.143,0.157,0.293,0.033,0.454c-0.715-0.573-1.27-1.273-1.672-2.096c-0.096-0.043-0.096-0.168-0.212-0.24
		c0.169,0.122,0.036,0.294,0.129,0.406c0.216,0.82,0.668,1.539,1.041,2.362c-0.243-0.064-0.274-0.233-0.343-0.357
		c-1.829-3.292-1.93-6.61-0.144-9.955c0.034-0.064,0.061-0.132,0.091-0.198c-0.034-0.114-0.081-0.01-0.122-0.008
		c-1.014,0.97-1.651,2.169-2.126,3.469c-0.056,0.152-0.054,0.344-0.32,0.511c0.304-1.231,0.844-2.23,1.504-3.187
		c0.667-0.967,1.632-1.606,2.472-2.396c-1.513,0.408-2.72,1.417-4.151,2.129c0.038-0.599,0.304-1.02,0.648-1.394
		c0.838-0.911,1.949-1.301,3.111-1.57c0.48-0.111,0.969-0.208,1.468-0.192c0.194,0.006,0.309-0.075,0.431-0.23
		c0.379-0.482,0.705-0.995,0.992-1.536c0.033,0.02,0.049,0.049,0.05,0.087C33.4,24.467,33.38,24.582,33.516,24.495z"/>
	<path fill-rule="evenodd" clip-rule="evenodd" fill="#F1C1A3" d="M33.25,35.614c0.704-1.126,1.162-2.341,1.333-3.662
		c0.178-0.117,0.313,0.01,0.429,0.103c0.719,0.575,1.583,0.746,2.455,0.807c0.955,0.067,1.921,0.086,2.866-0.158
		c0.084-0.022,0.177-0.029,0.25-0.071c1.034-0.598,2.249-0.692,3.316-1.203c0.381-0.182,0.766-0.353,1.127-0.571
		c0.215-0.129,0.439-0.18,0.659-0.033c0.666,0.448,1.262,0.982,1.834,1.543c0.041,0.041,0.057,0.101,0.069,0.158
		c0.01,0.203-0.13,0.348-0.207,0.517c-0.148,0.328-0.22,0.657-0.087,1.01c0.078,0.205,0.199,0.377,0.425,0.386
		c0.877,0.036,1.276,0.645,1.63,1.318c0.022,0.054-0.011-0.009,0.021,0.037c0.102,0.146,0.031,0.452,0.249,0.45
		c0.218-0.002,0.321-0.261,0.43-0.448c0.206-0.355,0.178-0.724,0.04-1.087c-0.129-0.34-0.466-0.521-0.831-0.472
		c-0.141,0.019-0.28,0.088-0.423,0.009c-0.129-0.136-0.13-0.286-0.052-0.445c0.424-0.54,0.996-0.71,1.521-0.455
		c0.657,0.321,1.057,0.957,0.932,1.485c0.013,1.125-0.562,1.889-1.502,2.417c-0.152,0.085-0.191,0.188-0.202,0.345
		c-0.072,1.038-0.28,2.04-0.778,2.969c-0.416,0.777-0.983,1.436-1.586,2.068c-0.224,0.35-0.56,0.574-0.894,0.799
		c-0.364,0.224-0.727,0.449-1.093,0.669c-1.187,0.593-2.4,1.109-3.712,1.357c-0.254,0.048-0.507,0.103-0.767,0.12
		c-0.267,0.042-0.536,0.151-0.792-0.032c-1.072,0-2.14-0.023-3.151-0.45c-0.125-0.339-0.301-0.575-0.726-0.446
		c-0.13,0.039-0.282-0.018-0.413-0.082c-0.914-0.515-1.576-1.267-2.042-2.196c-0.088-0.176-0.182-0.266-0.377-0.292
		c-0.902-0.124-1.551-1.189-1.67-1.868c-0.037-0.211,0.023-0.4,0.157-0.567c0.128-0.067,0.216-0.004,0.294,0.089
		c0.061,0.104,0.062,0.221,0.068,0.337c0.047,0.771,0.409,1.256,1.162,1.56c0.034,0.048,0.042-0.023,0.04-0.025
		c-0.18-0.083-0.193-0.274-0.258-0.428c-0.16-0.374-0.305-0.753-0.458-1.13c-0.108-0.335-0.307-0.642-0.332-1.005
		c0.088-0.308,0.166-0.608,0.091-0.94c-0.06-0.267,0.104-0.487,0.309-0.639c0.485-0.36,0.651-0.802,0.416-1.373
		C33.028,35.899,33.107,35.741,33.25,35.614z"/>
	<path fill-rule="evenodd" clip-rule="evenodd" fill="#83B1C8" d="M35.438,54.816c-1.083-0.732-1.056-1.77-0.605-3.138
		c0.376-1.143,1.144-2.055,1.888-2.966c0.876-1.071,1.853-2.051,2.937-2.918c0.209,0.095,0.077,0.237,0.028,0.338
		c-0.44,0.905-0.836,1.825-1.023,2.822c-0.037,0.201-0.163,0.342-0.366,0.395c-1.087,0.279-1.916,0.947-2.521,1.635
		c0.583-0.608,1.502-0.955,2.448-1.241c0.369-0.112,0.75-0.17,0.749-0.682c0-0.076,0.068-0.167,0.185-0.1
		c0.101,0.124,0.062,0.292,0.134,0.425c0.21,0.105,0.403-0.021,0.592-0.061c1.15-0.243,2.312-0.267,3.479-0.235
		c0.163,0.004,0.365-0.027,0.427,0.206c-0.005,0.106-0.038,0.226-0.124,0.268c-0.536,0.262-0.649,0.884-1.073,1.235
		c-0.176,0.146,0.011,0.261,0.019,0.39c0.088,0.158,0.169,0.342,0.062,0.496c-0.199,0.285-0.076,0.469,0.14,0.648
		c0.066,0.114,0.096,0.238,0.099,0.369c0.008,0.249-0.137,0.404-0.331,0.526c-0.379,0.238-0.779,0.432-1.038,0.521
		c0.479-0.191,1.146-0.392,1.679-0.86c0.224-0.197,0.437-0.181,0.672-0.021c0.389,0.264,0.798,0.485,1.275,0.54
		c0.501,0.057,0.674-0.053,0.805-0.535c0.042-0.154,0.119-0.227,0.275-0.212c0.356,0.032,0.623-0.097,0.79-0.422
		c0.042-0.081,0.124-0.127,0.212-0.142c0.374-0.063,0.665-0.207,0.706-0.644c0.011-0.118,0.139-0.138,0.238-0.156
		c0.148-0.028,0.28-0.083,0.375-0.204c0.133-0.168,0.293-0.225,0.501-0.147c0.107,0.039,0.238,0.084,0.308-0.058
		c0.068-0.141-0.018-0.256-0.11-0.351c-0.374-0.38-0.84-0.622-1.313-0.85c-0.17-0.082-0.359-0.136-0.419-0.349
		c-0.001-1.287,0.043-2.569,0.501-3.792c0.391-1.041,1.358-1.712,2.351-1.62c0.79,0.073,1.301,0.62,1.77,1.182
		c0.511,0.611,0.629,1.367,0.671,2.133c0.082,1.493-0.213,2.934-0.625,4.356c-0.211,0.728-0.391,1.47-0.873,2.085
		c-0.211,0.167-0.343,0.446-0.654,0.474c-0.268-0.378-0.365-0.836-0.57-1.243c-0.073-0.145-0.036-0.422-0.258-0.394
		c-0.243,0.032-0.18,0.301-0.178,0.478c0.004,0.397-0.155,0.704-0.46,0.944c-0.126,0.101-0.255,0.151-0.378-0.004
		c-0.188-0.239-0.361-0.146-0.493,0.045c-0.226,0.327-0.46,0.414-0.845,0.217c-0.288-0.148-0.616,0.025-0.768,0.271
		c-0.309,0.502-0.747,0.599-1.27,0.556c-1.396,0.015-2.748-0.227-4.057-0.708c-0.327-0.212-0.642-0.17-0.988-0.015
		c-1.057,0.472-2.164,0.785-3.32,0.861C36.522,55.206,35.927,55.224,35.438,54.816z"/>
	<path fill-rule="evenodd" clip-rule="evenodd" fill="#6E9EB6" d="M43.687,49.394c0.072-0.186-0.045-0.182-0.175-0.184
		c-1.339-0.022-2.675-0.002-3.988,0.316c-0.114,0.028-0.298,0.207-0.395-0.05c0.215-0.267,0.528-0.354,0.832-0.45
		c1.938-0.61,3.928-0.801,5.951-0.723c0.608,0.023,0.831-0.118,0.97-0.697c0.161-0.673,0.17-1.36-0.021-2.029
		c-0.166-0.585-0.377-0.654-0.901-0.356c-0.102,0.059-0.199,0.123-0.325,0.079c-0.098-0.075-0.099-0.183-0.052-0.272
		c0.277-0.537,0.399-1.135,0.658-1.68c0.31-0.238,0.619-0.476,0.929-0.714c2.22,0.006,3.915,1.036,5.281,2.708
		c0.08,0.18,0.243,0.293,0.351,0.45l-0.002-0.002c0.624,0.887,0.606,1.889,0.516,2.9c-0.079,0.884-0.261,1.755-0.229,2.651
		c0.04,1.09,0.245,2.091,0.988,2.956c0.529,0.616,1.028,1.269,1.425,1.986c0.626,1.139,0.927,2.353,0.831,3.655
		c-0.122,0.721-0.473,1.335-0.887,1.92c-0.066,0.094-0.146,0.185-0.286,0.158c-0.086-0.106-0.05-0.222-0.018-0.333
		c0.46-1.623,0.022-3.084-0.823-4.461c-0.802-1.307-1.882-2.37-3.026-3.373c-0.045-0.054-0.071-0.114-0.075-0.185
		c0.57-0.771,0.75-1.693,1.001-2.588c0.359-1.28,0.572-2.583,0.487-3.916c-0.059-0.9-0.283-1.735-0.976-2.402
		c-1.106-1.066-2.408-0.957-3.302,0.312c-0.371,0.527-0.534,1.14-0.605,1.756c-0.099,0.849-0.227,1.699-0.194,2.56
		c-0.065,0.09-0.105,0.209-0.249,0.204c-1.139-0.717-2.316-0.387-3.492-0.126C43.811,49.465,43.742,49.447,43.687,49.394z"/>
	<path fill-rule="evenodd" clip-rule="evenodd" fill="#44281A" d="M51.237,34.833c-0.023-0.446-0.241-0.794-0.558-1.088
		c-0.62-0.578-1.242-0.538-1.837,0.116c-0.263,0.001-0.263,0.001-0.517-0.445c-0.095-0.413-0.377-0.723-0.592-1.07
		c-0.444-0.691-0.966-1.315-1.609-1.831c-0.113-0.09-0.241-0.171-0.248-0.34c1.205,0.154,2.138,0.739,2.793,1.763
		c0.047,0.074,0.075,0.16,0.126,0.23c0.031,0.042,0.091,0.092,0.135,0.089c0.093-0.005,0.097-0.094,0.096-0.167
		c-0.007-0.28-0.089-0.541-0.193-0.798c-0.351-0.867-0.954-1.521-1.711-2.048c-0.046-0.032-0.09-0.067-0.183-0.136
		c0.517-0.127,0.951,0.004,1.387,0.136c0.135,0.04,0.288,0.152,0.399,0c0.092-0.125,0.032-0.277-0.031-0.415
		c-0.295-0.639-0.665-1.226-1.27-1.763c0.615,0.087,1.013,0.422,1.479,0.64c-0.267-0.99-0.933-1.735-1.564-2.623
		c1.099,0.288,1.92,0.793,2.554,1.593c0.137,0.172,0.261,0.349,0.462,0.452c0.36,0.391,0.562,0.876,0.776,1.394
		c-0.238-0.133-0.477-0.265-0.809-0.45c0.299,0.62,0.604,1.134,0.817,1.691c0.619,1.615,0.697,3.254,0.262,4.923
		C51.381,34.769,51.418,34.926,51.237,34.833z"/>
	<path fill-rule="evenodd" clip-rule="evenodd" fill="#84B1C8" d="M56.217,59.993c0.144-1.98-0.554-3.692-1.858-5.108
		c-1.437-1.561-1.575-3.365-1.28-5.291c0.198-1.299,0.265-2.569-0.279-3.805c0.574,0.552,0.957,1.241,1.342,1.922
		c1.142,2.021,1.868,4.192,2.243,6.479c0.067,0.41,0.202,0.575,0.657,0.562c1.237-0.033,2.477-0.002,3.715,0.003
		c-0.562,0.111-1.128,0.036-1.692,0.047c-0.741,0.017-1.484,0.01-2.227,0.004c-0.243-0.002-0.383,0.017-0.309,0.337
		c0.082,0.351,0.085,0.719,0.122,1.079c0.256,0.464,0.131,0.967,0.119,1.448c-0.016,0.636-0.104,1.271-0.262,1.892
		C56.465,59.735,56.459,59.949,56.217,59.993z"/>
	<path fill-rule="evenodd" clip-rule="evenodd" fill="#474E56" d="M35.438,54.816c1.522,0.518,2.959,0.09,4.389-0.401
		c0.22-0.076,0.445-0.152,0.646-0.267c0.333-0.188,0.631-0.155,0.926,0.065c0.011,0.043,0.029,0.087,0.01,0.128
		c-0.605,1.312-0.432,2.673-0.259,4.033c0.271,2.122,0.696,4.22,1.036,6.331c0.047,0.294,0.186,0.592,0.032,0.896
		c-0.091,0.072-0.188,0.075-0.29,0.025c-0.081-0.07-0.114-0.168-0.141-0.267c-0.572-2.157-1.251-4.286-1.639-6.49
		c-0.162-0.92-0.308-1.84-0.276-2.78c0.021-0.627,0.006-0.61-0.588-0.483c-1.173,0.25-2.352,0.472-3.545,0.113
		c-0.238-0.071-0.512-0.126-0.393-0.489c0.005-0.138,0.009-0.275,0.014-0.413C35.387,54.824,35.413,54.824,35.438,54.816z"/>
	<path fill-rule="evenodd" clip-rule="evenodd" fill="#CB8064" d="M58.915,37.12c0.758,0,1.515-0.003,2.272,0
		c0.472,0.002,0.625,0.157,0.629,0.628c0.014,1.281,0.093,1.321-1.271,1.302c-1.282-0.017-2.564-0.002-3.846-0.004
		c-0.541-0.001-0.656-0.122-0.661-0.672c-0.012-1.32-0.07-1.268,1.259-1.256C57.837,37.124,58.376,37.12,58.915,37.12z"/>
	<path fill-rule="evenodd" clip-rule="evenodd" fill="#AD7E70" d="M14.815,51.314c-0.744,0-1.487,0-2.23,0
		c-0.102,0-0.218,0.026-0.303-0.012c-0.643-0.292-0.36-0.877-0.388-1.347c-0.021-0.332,0.16-0.573,0.56-0.572
		c1.545,0.007,3.09,0.006,4.635,0.001c0.375-0.001,0.576,0.158,0.573,0.546c-0.003,0.306-0.005,0.612,0,0.918
		c0.005,0.334-0.162,0.47-0.486,0.468C16.39,51.311,15.603,51.314,14.815,51.314z"/>
	<path fill-rule="evenodd" clip-rule="evenodd" fill="#AD7E70" d="M65.192,39.047c-0.743,0-1.487,0.003-2.231-0.001
		c-0.439-0.002-0.605-0.169-0.613-0.603c-0.005-0.248,0-0.496-0.001-0.744c-0.002-0.399,0.201-0.582,0.595-0.581
		c1.531,0.002,3.062,0.002,4.594,0c0.395,0,0.594,0.185,0.594,0.583c-0.001,1.302,0.139,1.384-1.317,1.348
		C66.272,39.036,65.732,39.047,65.192,39.047z"/>
	<path fill-rule="evenodd" clip-rule="evenodd" fill="#CB8164" d="M21.106,51.315c-0.773,0-1.545-0.008-2.318,0.004
		c-0.374,0.005-0.535-0.155-0.52-0.526c0.012-0.305,0.008-0.611,0.001-0.918c-0.007-0.322,0.131-0.488,0.466-0.488
		c1.575,0.003,3.149,0.001,4.723,0.002c0.339,0.001,0.51,0.177,0.511,0.516c0.002,0.306-0.006,0.612,0.002,0.918
		c0.01,0.354-0.158,0.499-0.505,0.496C22.681,51.31,21.894,51.315,21.106,51.315z"/>
	<path fill-rule="evenodd" clip-rule="evenodd" fill="#CB8164" d="M18.101,48.952c-0.788,0-1.575-0.008-2.362,0.004
		c-0.364,0.005-0.548-0.132-0.533-0.512c0.011-0.276,0.013-0.555,0-0.831c-0.019-0.397,0.213-0.578,0.556-0.581
		c1.531-0.015,3.062-0.018,4.593,0c0.49,0.006,0.586,0.162,0.559,0.665c-0.013,0.232-0.004,0.467-0.005,0.7
		c-0.003,0.542-0.015,0.554-0.576,0.555C19.588,48.954,18.845,48.953,18.101,48.952z"/>
	<path fill-rule="evenodd" clip-rule="evenodd" fill="#AD7D70" d="M62.195,36.682c-0.729,0-1.459,0.001-2.188,0
		c-0.589-0.001-0.64-0.055-0.641-0.66c0-0.233,0.017-0.468-0.004-0.7c-0.035-0.401,0.163-0.565,0.535-0.566
		c1.546-0.002,3.093-0.004,4.639,0.001c0.329,0.001,0.513,0.186,0.523,0.516c0.011,0.306-0.005,0.613,0.005,0.919
		c0.011,0.355-0.159,0.497-0.506,0.493C63.771,36.676,62.983,36.682,62.195,36.682z"/>
	<path fill-rule="evenodd" clip-rule="evenodd" fill="#4D4035" d="M69.089,54.722c-0.524,0.002-1.048,0.004-1.572,0.006
		c0.005-0.566-0.041-1.136,0.068-1.698c0.036-0.189-0.03-0.331-0.188-0.453c-0.736-0.57-1.464-1.151-2.199-1.723
		c-0.258-0.2-0.468-0.423-0.574-0.745c-0.109-0.331-0.242-0.657-0.396-0.97c-0.305-0.614-0.504-1.242-0.299-1.928
		c0.1-0.334-0.071-0.464-0.337-0.583c-0.332-0.148-0.65-0.328-0.974-0.495c0.032-0.202,0.153-0.109,0.257-0.078
		c0.057,0.016,0.115,0.022,0.168,0.046c0.344,0.157,0.768,0.242,1.007,0.498c0.253,0.271,0.011,0.709,0.035,1.075
		c0.057,0.874,0.499,1.604,0.886,2.345c0.188,0.357,0.427,0.33,0.715,0.023c0.358-0.382,0.697-0.783,1.068-1.153
		c0.218-0.218,0.154-0.493,0.207-0.738c0.114-0.545,0.411-0.837,0.974-0.864c0.335-0.016,0.667-0.042,0.977-0.186
		c0.086-0.029,0.102,0.012,0.084,0.085c-0.24,0.286-0.597,0.276-0.916,0.348c-0.543,0.12-0.748,0.33-0.729,0.89
		c0.012,0.331-0.086,0.571-0.318,0.81c-0.364,0.372-0.678,0.794-1.027,1.181c-0.157,0.175-0.156,0.272,0.054,0.401
		c0.519,0.318,1.015,0.674,1.54,0.981c0.331,0.194,0.547,0.452,0.689,0.801c0.259,0.631,0.534,1.256,0.808,1.88
		C69.135,54.566,69.14,54.641,69.089,54.722z"/>
	<path fill-rule="evenodd" clip-rule="evenodd" fill="#44281A" d="M32.287,39.061c0.113,0.307,0.226,0.614,0.338,0.921
		c-0.306,0.173-0.496-0.017-0.683-0.217c-0.084-0.04-0.168-0.079-0.252-0.119c-0.396-0.269-0.833-0.481-1.15-0.856
		c-0.354-0.906-0.499-1.842-0.44-2.814c0.021-0.346,0.133-0.644,0.379-0.929c0.052,0.574,0.074,1.147,0.366,1.707
		c1.144-1.163,2.039-2.469,2.851-3.838l0,0c0.071,0.188,0.017,0.354-0.085,0.514c-0.086,0.132-0.167,0.268-0.23,0.413
		c-0.255,0.561-0.593,1.072-0.949,1.571c-0.09,0.132-0.167,0.28-0.285,0.384c-0.555,0.488-0.573,1.062-0.294,1.691
		C31.997,38.012,32.25,38.506,32.287,39.061z"/>
	<path fill-rule="evenodd" clip-rule="evenodd" fill="#6E9EB6" d="M39.127,48.947c-0.019,0.022-0.057,0.046-0.054,0.065
		c0.084,0.644-0.365,0.707-0.832,0.839c-1.019,0.29-1.979,0.717-2.757,1.484c0.255-0.557,0.687-0.957,1.153-1.304
		c0.464-0.345,0.966-0.644,1.552-0.755c0.198-0.038,0.344-0.14,0.378-0.357c0.166-1.048,0.604-1.995,1.074-2.931
		c0.03-0.06,0.091-0.123,0.015-0.194c0.084-0.082,0.169-0.165,0.253-0.248c0.263-0.028,0.526-0.058,0.79-0.087
		c0.289,0.198,0.436,0.477,0.468,0.82c-0.243,0.169-0.476,0.015-0.705-0.034c-0.575-0.125-0.633-0.104-0.8,0.469
		c-0.17,0.587-0.282,1.188-0.391,1.788C39.246,48.656,39.261,48.827,39.127,48.947z"/>
	<path fill-rule="evenodd" clip-rule="evenodd" fill="#FDBC55" d="M53.322,20.833c0.165-0.058,0.332-0.108,0.493-0.174
		c0.961-0.397,1.986-0.152,2.646,0.642c0.089,0.106,0.221,0.211,0.106,0.379c-0.25,0.23-0.547,0.121-0.83,0.118
		c-0.401-0.117-0.833-0.028-1.23-0.178c-0.459-0.14-0.94-0.219-1.359-0.474C52.872,20.855,53.188,20.896,53.322,20.833z"/>
	<path fill-rule="evenodd" clip-rule="evenodd" fill="#8F3837" d="M10.732,37.38c0.157-0.225,0.337-0.437,0.469-0.676
		c0.59-1.073,1.673-1.517,2.863-1.155c-0.107,0.333-0.407,0.488-0.649,0.693c-0.152,0.129-0.333,0.223-0.483,0.357
		c-0.032,0.026-0.066,0.049-0.102,0.07c-0.203,0.102-0.407,0.201-0.606,0.311c-0.319,0.167-0.637,0.34-0.994,0.416
		C11.064,37.432,10.895,37.5,10.732,37.38z"/>
	<path fill-rule="evenodd" clip-rule="evenodd" fill="#FCBC55" d="M56.557,21.815c-0.305,0.59-0.87,0.64-1.417,0.61
		c-0.844-0.046-1.521-0.444-2.001-1.155c-0.035-0.042-0.031-0.079,0.011-0.113c0.438,0.091,0.835,0.321,1.28,0.394
		c0.351,0.074,0.699,0.166,1.063,0.151C55.84,21.812,56.215,21.654,56.557,21.815z"/>
	<path fill-rule="evenodd" clip-rule="evenodd" fill="#8F3838" d="M14.133,35.723c0.017,0.727-0.385,1.213-0.974,1.529
		c-0.736,0.394-1.523,0.542-2.341,0.224c0.494-0.143,0.985-0.295,1.438-0.546c0.186-0.13,0.408-0.195,0.587-0.336l-0.001,0.001
		c0.32-0.212,0.638-0.428,0.93-0.681C13.873,35.826,13.96,35.685,14.133,35.723z"/>
	<path fill-rule="evenodd" clip-rule="evenodd" fill="#5A3624" d="M33.347,24.42c-0.003-0.037-0.007-0.074-0.01-0.111
		c0.544-1.143,1.427-1.971,2.47-2.645c0.919-0.594,1.933-0.942,3.015-1.087c0.146-0.02,0.307-0.05,0.576,0.122
		c-2.652,0.319-4.62,1.537-5.965,3.717C33.407,24.457,33.378,24.457,33.347,24.42z"/>
	<path fill-rule="evenodd" clip-rule="evenodd" fill="#DBAF96" d="M35.621,44.568c0.157-0.008,0.317,0.002,0.469-0.027
		c0.603-0.114,0.671-0.062,0.67,0.556C36.347,44.993,35.966,44.819,35.621,44.568z"/>
	<path fill-rule="evenodd" clip-rule="evenodd" fill="#5A4B42" d="M62.875,46.055c-0.091,0.01-0.193-0.019-0.257,0.078
		c-0.559-0.236-1.134-0.453-1.329-1.12c-0.036-0.095,0.01-0.11,0.09-0.093c0.229,0.463,0.593,0.757,1.091,0.901
		C62.615,45.863,62.741,45.975,62.875,46.055z"/>
	<path fill-rule="evenodd" clip-rule="evenodd" fill="#6C313A" d="M14.133,35.723c-0.43,0.291-0.772,0.712-1.291,0.872
		c0.408-0.348,0.815-0.697,1.222-1.045c0.19-0.222,0.379-0.444,0.615-0.719C14.666,35.29,14.309,35.45,14.133,35.723z"/>
	<path fill-rule="evenodd" clip-rule="evenodd" fill="#67343D" d="M56.557,21.815c-0.374-0.014-0.748-0.028-1.122-0.042
		c0.029-0.209,0.164-0.093,0.264-0.085c0.289-0.003,0.579-0.006,0.869-0.009c0.332-0.058,0.665-0.116,1.075-0.188
		C57.309,21.872,56.903,21.747,56.557,21.815z"/>
	<path fill-rule="evenodd" clip-rule="evenodd" fill="#793237" d="M12.317,36.944c-0.465,0.274-0.947,0.501-1.5,0.531
		c-0.043-0.019-0.167,0.035-0.085-0.095c0.544-0.045,1.024-0.276,1.499-0.521C12.271,36.877,12.299,36.905,12.317,36.944z"/>
	<path fill-rule="evenodd" clip-rule="evenodd" fill="#B37439" d="M69.968,34.667c-0.205,0.126-0.41,0.252-0.718,0.441
		c0.281,0,0.458,0,0.636,0c-0.295,0.165-0.615,0.076-0.92,0.064c-0.157-0.006-0.027-0.107,0.022-0.158
		C69.347,34.988,69.595,34.651,69.968,34.667z"/>
	<path fill-rule="evenodd" clip-rule="evenodd" fill="#756760" d="M26.03,51.353c-0.127-0.024-0.219-0.079-0.214-0.225
		c0.004-0.131,0.065-0.229,0.202-0.235c0.134-0.008,0.22,0.073,0.217,0.211C26.232,51.232,26.145,51.308,26.03,51.353z"/>
	<path fill-rule="evenodd" clip-rule="evenodd" fill="#756760" d="M75.953,51.414c0.137,0.006,0.224,0.074,0.223,0.211
		c-0.001,0.129-0.082,0.232-0.204,0.244c-0.124,0.012-0.219-0.064-0.216-0.211C75.758,51.525,75.82,51.441,75.953,51.414z"/>
	<path fill-rule="evenodd" clip-rule="evenodd" fill="#756760" d="M24.663,52.144c-0.014,0.127-0.079,0.231-0.201,0.249
		c-0.126,0.019-0.22-0.059-0.223-0.201c-0.003-0.129,0.051-0.23,0.189-0.246C24.566,51.929,24.639,52.012,24.663,52.144z"/>
	<path fill-rule="evenodd" clip-rule="evenodd" fill="#766761" d="M70.927,50.991c0.141,0.025,0.18,0.124,0.177,0.248
		c-0.003,0.106-0.041,0.212-0.159,0.214c-0.144,0.002-0.245-0.098-0.241-0.239C70.706,51.096,70.808,51.023,70.927,50.991z"/>
	<path fill-rule="evenodd" clip-rule="evenodd" fill="#746760" d="M63.23,51.758c0.13,0.005,0.227,0.062,0.237,0.198
		s-0.073,0.222-0.206,0.221c-0.135-0.002-0.203-0.096-0.209-0.228C63.048,51.829,63.104,51.76,63.23,51.758z"/>
	<path fill-rule="evenodd" clip-rule="evenodd" fill="#766861" d="M6.594,52.883C6.579,53.01,6.499,53.1,6.385,53.12
		c-0.131,0.023-0.223-0.075-0.233-0.195c-0.008-0.1,0.056-0.193,0.178-0.204C6.453,52.71,6.556,52.743,6.594,52.883z"/>
	<path fill-rule="evenodd" clip-rule="evenodd" fill="#74665F" d="M67.122,45.452c0.114,0.015,0.194,0.07,0.204,0.189
		c0.011,0.141-0.07,0.227-0.204,0.227s-0.216-0.087-0.204-0.228C66.928,45.522,67.009,45.466,67.122,45.452z"/>
	<path fill-rule="evenodd" clip-rule="evenodd" fill="#766761" d="M7.3,50.786c-0.104-0.014-0.206-0.048-0.206-0.171
		c0.001-0.128,0.097-0.219,0.211-0.229c0.142-0.014,0.187,0.103,0.188,0.229C7.493,50.741,7.417,50.788,7.3,50.786z"/>
	<path fill-rule="evenodd" clip-rule="evenodd" fill="#615249" d="M61.379,44.92c-0.03,0.031-0.06,0.062-0.09,0.093
		c-0.174-0.294-0.348-0.588-0.522-0.882c-0.035-0.092,0.006-0.105,0.084-0.084C61.026,44.338,61.203,44.629,61.379,44.92z"/>
	<path fill-rule="evenodd" clip-rule="evenodd" fill="#725E5A" d="M60.851,44.047c-0.027,0.028-0.056,0.057-0.084,0.084
		c-0.175-0.292-0.349-0.585-0.523-0.878c-0.024-0.02-0.032-0.04-0.024-0.06c0.008-0.021,0.017-0.03,0.024-0.03
		C60.516,43.409,60.637,43.761,60.851,44.047z"/>
	<path fill-rule="evenodd" clip-rule="evenodd" fill="#65564E" d="M68.995,47.186c-0.028-0.028-0.057-0.057-0.084-0.085
		c0.196-0.228,0.417-0.42,0.707-0.518l0,0C69.445,46.82,69.254,47.038,68.995,47.186z"/>
	<path fill-rule="evenodd" clip-rule="evenodd" fill="#816B68" d="M69.618,46.583c0.097-0.253,0.326-0.359,0.538-0.483
		C70.016,46.304,69.895,46.529,69.618,46.583L69.618,46.583z"/>
	<path fill-rule="evenodd" clip-rule="evenodd" fill="#DEA85D" d="M53.146,21.168c-0.002,0.034-0.005,0.068-0.008,0.102
		c-0.134-0.092-0.262-0.23-0.199-0.375c0.06-0.138,0.25-0.05,0.383-0.062c-0.022,0.107-0.304,0.024-0.178,0.241
		C53.198,21.104,53.198,21.136,53.146,21.168z"/>
	<path fill-rule="evenodd" clip-rule="evenodd" fill="#876767" d="M43.953,21.689c0.149,0.019,0.312-0.029,0.443,0.088
		c-0.059,0.028-0.118,0.056-0.178,0.084c-0.146-0.028-0.291-0.057-0.437-0.085C43.774,21.621,43.862,21.652,43.953,21.689z"/>
	<path fill-rule="evenodd" clip-rule="evenodd" fill="#7B5B56" d="M28.784,36.86c-0.062-0.171-0.124-0.342-0.186-0.513
		c0.173,0.07,0.218,0.21,0.268,0.346C28.794,36.728,28.793,36.796,28.784,36.86z"/>
	<path fill-rule="evenodd" clip-rule="evenodd" fill="#80A7BD" d="M52.801,45.791c-0.174-0.105-0.342-0.215-0.351-0.45
		C52.601,45.465,52.771,45.574,52.801,45.791z"/>
	<path fill-rule="evenodd" clip-rule="evenodd" fill="#836B6B" d="M60.243,43.163c0,0.03,0,0.061,0,0.09
		c-0.13-0.12-0.196-0.274-0.25-0.504C60.175,42.875,60.22,43.012,60.243,43.163z"/>
	<path fill-rule="evenodd" clip-rule="evenodd" fill="#715147" d="M33.347,24.42c0.028-0.002,0.057-0.003,0.085-0.005
		c0.028,0.026,0.056,0.053,0.083,0.08c-0.033,0.079-0.085,0.183-0.168,0.146C33.258,24.602,33.364,24.498,33.347,24.42z"/>
	<path fill-rule="evenodd" clip-rule="evenodd" fill="#88696A" d="M29.308,28.704c0.064-0.081,0.112-0.233,0.229-0.177
		c0.062,0.03-0.043,0.134-0.108,0.185C29.389,28.709,29.348,28.707,29.308,28.704z"/>
	<path fill-rule="evenodd" clip-rule="evenodd" fill="#C4C1B8" d="M56.217,59.993c0.241-0.443,0.258-0.942,0.341-1.423
		c0.136-0.776,0.086-1.563,0.093-2.348c1.812-0.178,3.633-0.249,5.45-0.164c3.017,0.141,6.032,0.335,8.913,1.376
		c0.728,0.264,1.44,0.552,1.981,1.146c0.42,0.462,0.425,0.938,0.016,1.396c-0.612,0.686-1.409,1.084-2.243,1.389
		c-1.952,0.712-3.963,1.139-6.057,1.074c-0.036-0.135,0.075-0.179,0.154-0.23c0.368-0.243,0.601-0.586,0.745-0.996
		c0.11-0.325,0.441-0.438,0.633-0.653c-0.203,0.138-0.363,0.396-0.681,0.375c-0.197-0.047-0.381-0.138-0.581-0.174
		c-0.858-0.155-1.614-0.003-2.171,0.73c-0.202,0.266-0.429,0.506-0.673,0.726c0.029,0.081,0.161,0.104,0.126,0.219
		c-2.594,0.077-5.04,0.636-7.209,2.148c-0.617,0.431-1.12,0.978-1.585,1.549c-1.283,1.576-2.94,2.48-4.904,2.877
		c-1.306,0.264-2.63,0.323-3.953,0.254c-1.274-0.067-2.536-0.273-3.799-0.461c-1.018-0.15-2.046-0.235-3.059-0.415
		c-1.221-0.216-2.414-0.54-3.437-1.298c-0.632-0.469-0.847-1.202-0.58-1.936c0.12-0.331,0.379-0.498,0.661-0.659
		c0.417-0.239,0.895-0.351,1.292-0.636c0.211-0.151,0.425-0.321,0.454-0.563c0.066-0.55,0.261-1.053,0.447-1.562
		c0.217,0.023,0.205,0.222,0.256,0.356c0.361,0.963,0.698,1.934,0.997,2.918c-0.298,0.471-0.825,0.704-1.173,1.127
		c-0.164,0.199-0.325,0.381-0.133,0.645c0.028,0.024,0.055,0.052,0.081,0.077c0.091,0.089,0.185,0.175,0.3,0.232
		c0.034,0.015,0.067,0.031,0.101,0.047c0.122,0.052,0.249,0.088,0.379,0.11c0.058,0.009,0.116,0.022,0.172,0.038
		c0.117,0.034,0.237,0.048,0.357,0.068c0.104,0.023,0.208,0.053,0.316,0.049c0.485,0.063,0.949-0.114,1.428-0.119
		c0.284,0.373,0.727,0.482,1.121,0.672c0.038,0.012,0.074,0.027,0.109,0.045c0.159,0.127,0.357,0.118,0.543,0.154
		c0.038,0.013,0.074,0.029,0.108,0.051c0.111,0.087,0.228,0.165,0.365,0.21c0.041,0.017,0.08,0.036,0.118,0.058
		c0.169,0.104,0.35,0.156,0.541,0.088c1.157-0.411,2.379-0.529,3.564-0.814c1.434-0.345,1.46-0.386,1.447-1.869
		c-0.023-0.589,0.11-1.168,0.097-1.756c-0.003-0.146,0.05-0.284,0.207-0.346c0.193-0.054,0.373,0.024,0.558,0.06
		c1.159,0.216,2.312,0.235,3.472-0.026c1.128-0.255,2.079-0.82,2.937-1.572c0.097-0.085,0.168-0.204,0.309-0.233
		C55.693,61.426,56.024,60.746,56.217,59.993z"/>
	<path fill-rule="evenodd" clip-rule="evenodd" fill="#57616A" d="M37.835,65.051c-0.172-0.135-0.214-0.339-0.272-0.531
		c-0.287-0.941-0.615-1.868-0.971-2.785c-0.582-1.652-1.093-3.322-1.274-5.074c-0.049-0.477-0.1-0.956,0.03-1.43
		c-0.016,0.281,0.203,0.307,0.396,0.37c0.87,0.29,1.751,0.184,2.627,0.063c0.471-0.065,0.946-0.143,1.39-0.33
		c0.175-0.074,0.245-0.028,0.242,0.155c0,0.043,0.002,0.087,0,0.131c-0.086,1.98,0.356,3.887,0.842,5.783
		c0.327,1.277,0.689,2.546,1.031,3.819c0.033,0.125,0.039,0.257,0.057,0.385c-0.036,0.202-0.207,0.165-0.34,0.193
		c-0.495,0.032-0.983-0.052-1.474-0.092c-0.198-0.016-0.353-0.112-0.515-0.213c-0.456-0.282-0.903-0.611-1.489-0.311
		C38.004,65.243,37.891,65.176,37.835,65.051z"/>
	<path fill-rule="evenodd" clip-rule="evenodd" fill="#B5A3A1" d="M20.371,63.062c-0.205-0.421-0.348-0.862-0.434-1.322
		c0.043-0.026,0.089-0.03,0.137-0.014c1.209,1.175,2.739,1.435,4.333,1.575c1.43,0.127,2.816-0.023,4.18-0.441
		c0.574-0.176,1.117-0.421,1.572-0.83c0.103-0.092,0.213-0.216,0.383-0.123c-0.026,0.509-0.196,0.973-0.437,1.415
		c-0.327,0.069-0.637,0.193-0.958,0.281c-0.207,0.057-0.367,0.181-0.427,0.396c-0.111,0.395-0.391,0.502-0.766,0.487
		c-0.197-0.007-0.404-0.038-0.65,0.096c0.459,0.213,0.83,0.495,1.304,0.556c-0.112,0.456-0.562,0.479-0.872,0.681
		c-1.362,0.474-2.746,0.434-4.138,0.173c-0.186-0.034-0.365-0.123-0.537,0.028c-0.119-0.035-0.619-0.481-0.764-0.683
		c-0.169-0.087-0.338-0.175-0.449-0.34c0.176-0.308,0.492-0.365,0.886-0.439c-0.387-0.212-0.615-0.477-0.819-0.773
		c-0.173-0.251-0.462-0.336-0.742-0.414C20.896,63.292,20.616,63.224,20.371,63.062z"/>
	<path fill-rule="evenodd" clip-rule="evenodd" fill="#C4C1B8" d="M22.298,65.336c0.291,0.177,0.653,0.282,0.704,0.7
		c0.702,0.248,1.429,0.373,2.168,0.395c0.594,0.017,1.183-0.081,1.771-0.161c0.375-0.051,0.652-0.223,0.792-0.585
		c0.327-0.119,0.616-0.301,0.878-0.528c0.056-0.163,0.146-0.283,0.341-0.271c0.501,0.212,1.048,0.155,1.569,0.265
		c0.412,0.087,0.83,0.145,1.23,0.279c0.192,0.064,0.423,0.133,0.436,0.373c0.012,0.239-0.236,0.277-0.399,0.345
		c-0.745,0.305-1.533,0.46-2.322,0.573c-0.904,0.13-1.816,0.218-2.728,0.262c-0.988,0.049-1.972-0.068-2.952-0.206
		c-0.492-0.068-0.974-0.175-1.431-0.37c-0.625-0.269-0.657-0.489-0.154-0.928C22.243,65.441,22.266,65.384,22.298,65.336z"/>
	<path fill-rule="evenodd" clip-rule="evenodd" fill="#FDFDFD" d="M30.542,61.906c-1.034,0.911-2.285,1.297-3.615,1.452
		c-2.02,0.234-4.005,0.141-5.884-0.75c-0.417-0.197-0.759-0.483-1.019-0.865c-0.062-0.076-0.129-0.151-0.087-0.263
		c-0.153-0.607,0.172-1.001,0.62-1.315c0.917-0.644,1.973-0.896,3.061-1.054c0.811-0.117,1.628-0.126,2.439-0.077
		c1.162,0.07,2.311,0.236,3.368,0.783c0.405,0.21,0.788,0.439,1.076,0.803C30.832,61.039,30.629,61.475,30.542,61.906z"/>
	<path fill-rule="evenodd" clip-rule="evenodd" fill="#A28E8E" d="M28.953,64.886c-0.114,0.091-0.228,0.181-0.341,0.271
		c-0.321-0.03-0.7,0.14-0.904-0.294c-0.027-0.058-0.214-0.043-0.328-0.057c-0.128-0.017-0.233-0.066-0.238-0.206
		c-0.006-0.168,0.114-0.225,0.258-0.228c0.247-0.006,0.495-0.015,0.741,0.001c0.249,0.016,0.417-0.102,0.441-0.323
		c0.042-0.383,0.297-0.498,0.605-0.586c0.25-0.07,0.499-0.148,0.743-0.236c0.11-0.04,0.164-0.025,0.174,0.094
		C29.836,63.928,29.411,64.419,28.953,64.886z"/>
	<path fill-rule="evenodd" clip-rule="evenodd" fill="#D6A775" d="M14.405,60.866c1.259-0.63,2.883-0.187,3.513,0.959
		c-0.229,0.195-0.494,0.125-0.745,0.087c-0.285-0.044-0.566-0.113-0.85-0.163C15.663,61.502,14.938,61.392,14.405,60.866z"/>
	<path fill-rule="evenodd" clip-rule="evenodd" fill="#9C938E" d="M20.371,63.062c0.713,0.168,1.493,0.206,1.876,1.002
		c0.094,0.195,0.299,0.261,0.498,0.321c0.087,0.026,0.158,0.086,0.137,0.19c-0.016,0.077-0.089,0.141-0.155,0.128
		c-0.351-0.068-0.588,0.186-0.876,0.293C21.128,64.526,20.7,63.831,20.371,63.062z"/>
	<path fill-rule="evenodd" clip-rule="evenodd" fill="#903938" d="M65.688,61.217c-0.098,0.59-0.519,0.922-0.978,1.224
		c-0.788,0.301-1.575,0.359-2.36-0.011c0.036-0.226,0.231-0.227,0.39-0.26c0.21-0.044,0.419-0.093,0.625-0.151
		c0.675-0.195,1.327-0.441,1.934-0.801c0.112-0.067,0.223-0.143,0.365-0.114C65.709,61.134,65.717,61.171,65.688,61.217z"/>
	<path fill-rule="evenodd" clip-rule="evenodd" fill="#D6A776" d="M14.96,61.647c-0.118-0.176-0.299-0.309-0.36-0.523
		c0.246-0.084,0.393,0.133,0.591,0.195c0.374,0.116,0.736,0.268,1.113,0.378c0.506,0.094,1.011,0.19,1.519,0.275
		c0.06,0.073,0.024,0.137-0.032,0.186C17.05,62.809,15.481,62.525,14.96,61.647z"/>
	<path fill-rule="evenodd" clip-rule="evenodd" fill="#C5C2B8" d="M14.96,61.647c0.452,0.337,0.908,0.661,1.487,0.759
		c0.532,0.089,1-0.012,1.392-0.396c0.062-0.051,0.123-0.052,0.18,0.01c-0.812,0.834-2.455,0.835-3.26,0.015
		C14.391,61.66,14.926,61.793,14.96,61.647z"/>
	<path fill-rule="evenodd" clip-rule="evenodd" fill="#B58F50" d="M18.019,62.02c-0.06-0.003-0.12-0.007-0.18-0.01
		c-0.541-0.007-1.056-0.162-1.578-0.271c-0.022-0.021-0.03-0.041-0.022-0.062c0.007-0.021,0.014-0.031,0.021-0.031
		c0.558,0.017,1.091,0.255,1.658,0.18c0.208,0.067,0.448-0.073,0.749,0.143C18.386,61.99,18.202,62.005,18.019,62.02z"/>
	<path fill-rule="evenodd" clip-rule="evenodd" fill="#C09659" d="M16.26,61.646c0,0.031,0,0.062,0.001,0.093
		c-0.584-0.123-1.104-0.418-1.661-0.614c-0.065-0.086-0.13-0.172-0.194-0.258C14.999,61.186,15.641,61.388,16.26,61.646z"/>
	<path fill-rule="evenodd" clip-rule="evenodd" fill="#9B5E4A" d="M63.398,62.097c-0.316,0.216-0.738,0.1-1.048,0.333l-0.043,0.008
		l-0.044-0.001c-0.089-0.058-0.178-0.114-0.266-0.172c0.421-0.278,0.901-0.278,1.379-0.292
		C63.422,62.008,63.429,62.049,63.398,62.097z"/>
	<path fill-rule="evenodd" clip-rule="evenodd" fill="#7C7068" d="M74.418,58.332c-0.142-0.015-0.208-0.107-0.2-0.234
		s0.085-0.218,0.228-0.208c0.14,0.009,0.206,0.104,0.199,0.233C74.639,58.255,74.561,58.334,74.418,58.332z"/>
	<path fill-rule="evenodd" clip-rule="evenodd" fill="#7B6F67" d="M19.31,55.805c-0.01,0.148-0.072,0.237-0.208,0.247
		c-0.137,0.011-0.22-0.061-0.224-0.199c-0.004-0.131,0.062-0.223,0.197-0.234C19.217,55.605,19.273,55.705,19.31,55.805z"/>
	<path fill-rule="evenodd" clip-rule="evenodd" fill="#796C65" d="M11.49,57.442c0.132,0.021,0.207,0.102,0.196,0.232
		c-0.011,0.128-0.091,0.213-0.228,0.203c-0.134-0.011-0.203-0.1-0.195-0.232C11.271,57.511,11.355,57.445,11.49,57.442z"/>
	<path fill-rule="evenodd" clip-rule="evenodd" fill="#D6CFCB" d="M19.937,61.48c0.029,0.088,0.059,0.175,0.088,0.263
		c-0.029-0.003-0.059-0.004-0.087-0.004C19.829,61.653,19.825,61.567,19.937,61.48z"/>
	<path fill-rule="evenodd" clip-rule="evenodd" fill="#B07A3C" d="M70.582,34.14c-0.107,0.166-0.219,0.327-0.438,0.354
		C70.251,34.328,70.359,34.164,70.582,34.14z"/>
	<path fill-rule="evenodd" clip-rule="evenodd" fill="#857B37" d="M13.722,16.438c0.03-0.029,0.059-0.059,0.089-0.089
		c0.497,0.117,0.995,0.233,1.492,0.35c-0.059,0.028-0.117,0.056-0.176,0.084C14.649,16.707,14.182,16.59,13.722,16.438z"/>
	<path fill-rule="evenodd" clip-rule="evenodd" fill="#E7A282" d="M45.877,30.175c0.764,0.597,1.428,1.283,1.938,2.112
		c0.042,0.15-0.055,0.226-0.159,0.297c-0.041,0.014-0.079,0.007-0.114-0.019c-0.57-0.625-1.24-1.135-1.905-1.651
		c-0.177-0.137-0.348-0.093-0.523,0.019c-0.971,0.614-2.044,0.98-3.144,1.271c-0.339,0.09-0.663,0.187-0.964,0.378
		c-0.481,0.306-1.055,0.363-1.593,0.396c-1.189,0.072-2.382,0.086-3.542-0.31c-0.48-0.164-0.822-0.542-1.286-0.715
		c0-0.196,0-0.393,0-0.679c1.755,1.486,3.686,1.735,5.763,1.28c0.11-0.112,0.261-0.107,0.398-0.141
		c0.061-0.03,0.138-0.004,0.194-0.052c-0.092,0.036-0.193,0.039-0.287,0.07c-0.16,0.057-0.329-0.023-0.489,0.032
		c-1.187,0.068-2.358,0.005-3.481-0.435c-0.018-0.08-0.002-0.124,0.091-0.088c2.651,0.47,5.199,0.035,7.691-0.882
		c0.02-0.027,0.06-0.057,0.014-0.088c-0.032-0.022-0.072-0.011-0.106,0.01c-0.433,0.121-0.865,0.242-1.298,0.364
		c-0.091,0.034-0.107-0.007-0.085-0.085c0.808-0.321,1.621-0.631,2.266-1.249C45.544,29.731,45.663,30.142,45.877,30.175z"/>
	<path fill-rule="evenodd" clip-rule="evenodd" fill="#986A5A" d="M45.023,29.206c-1.147,0.141-2.29,0.263-3.439,0.195
		c-1.458-0.086-2.858-0.383-4.043-1.315c-0.276-0.217-0.556-0.438-0.669-0.801c0.454,0.359,0.866,0.754,1.369,1.045
		c0.812,0.47,1.691,0.688,2.605,0.818c1.475,0.21,2.932-0.004,4.39-0.187c0.106-0.014,0.25-0.13,0.309,0.021
		c0.057,0.146-0.111,0.223-0.211,0.287c-0.683,0.441-1.452,0.681-2.225,0.894c-1.181,0.327-2.382,0.576-3.619,0.472
		c-1.58-0.133-3.103-0.482-4.497-1.275c-0.225-0.127-0.414-0.289-0.591-0.575c2.504,1.537,5.11,2.038,7.905,1.385
		C43.244,29.949,44.188,29.722,45.023,29.206z"/>
	<path fill-rule="evenodd" clip-rule="evenodd" fill="#95767B" d="M26.99,28.827c0.294-1.513,3.038-2.567,5.067-2.552
		c-0.069,0.242-0.28,0.295-0.46,0.339c-1.542,0.37-2.854,1.211-4.185,2.016C27.281,28.709,27.158,28.814,26.99,28.827z"/>
	<path fill-rule="evenodd" clip-rule="evenodd" fill="#D29377" d="M31.756,37.474c-0.284-0.587-0.344-1.138,0.21-1.624
		c0.159-0.14,0.27-0.334,0.402-0.503c0.11,0.018,0.146,0.104,0.178,0.193c-0.186,0.308-0.371,0.616-0.557,0.923
		c0.477-0.244,0.645-0.756,0.994-1.109c0.061,0.013,0.097,0.051,0.112,0.11c0.027,0.075,0.069,0.135,0.154,0.151
		c0.013,0.177-0.115,0.301-0.17,0.453C32.82,36.707,32.401,37.197,31.756,37.474z"/>
	<path fill-rule="evenodd" clip-rule="evenodd" fill="#E29E7E" d="M32.546,35.539c-0.088-0.038-0.144-0.105-0.178-0.193
		c0.327-0.518,0.655-1.037,0.982-1.555c0.04-0.037,0.078-0.037,0.116,0.002C33.234,34.415,32.913,34.989,32.546,35.539z"/>
	<path fill-rule="evenodd" clip-rule="evenodd" fill="#F1C1A3" d="M33.096,35.463c-0.038-0.037-0.075-0.073-0.112-0.11
		c0.125-0.225,0.25-0.45,0.375-0.675c0.034-0.013,0.069-0.024,0.091,0.015c0.009,0.015-0.003,0.039-0.019,0.061
		C33.319,34.99,33.207,35.227,33.096,35.463z"/>
	<path fill-rule="evenodd" clip-rule="evenodd" fill="#B1785D" d="M33.972,33.44c-0.03,0.259-0.145,0.488-0.264,0.715
		c-0.04-0.019-0.066-0.049-0.078-0.091c0.083-0.207,0.165-0.415,0.248-0.622C33.908,33.406,33.939,33.405,33.972,33.44z"/>
	<path fill-rule="evenodd" clip-rule="evenodd" fill="#CC8D6F" d="M33.63,34.064c0.026,0.03,0.052,0.061,0.078,0.091
		c-0.07,0.21-0.133,0.423-0.278,0.599c-0.024-0.025-0.048-0.05-0.072-0.076C33.449,34.474,33.539,34.269,33.63,34.064z"/>
	<path fill-rule="evenodd" clip-rule="evenodd" fill="#44281A" d="M33.695,32.914c-0.01-0.213,0.088-0.382,0.268-0.622
		C33.903,32.58,33.916,32.793,33.695,32.914L33.695,32.914z"/>
	<path fill-rule="evenodd" clip-rule="evenodd" fill="#BF8366" d="M36.773,31.938c-0.03,0.029-0.061,0.059-0.091,0.088
		c-0.159-0.057-0.318-0.114-0.477-0.171C36.421,31.766,36.599,31.841,36.773,31.938z"/>
	<path fill-rule="evenodd" clip-rule="evenodd" fill="#75544D" d="M43.953,21.689c-0.057,0.029-0.114,0.058-0.171,0.087
		c-0.151-0.035-0.302-0.07-0.453-0.105C43.546,21.623,43.757,21.553,43.953,21.689z"/>
	<path fill-rule="evenodd" clip-rule="evenodd" fill="#845640" d="M34.06,32.837c0.085-0.146,0.027-0.348,0.246-0.54
		c-0.1,0.254-0.031,0.456-0.169,0.619C34.101,32.9,34.076,32.873,34.06,32.837z"/>
	<path fill-rule="evenodd" clip-rule="evenodd" fill="#865741" d="M40.164,32.461c0.167-0.106,0.357-0.06,0.536-0.086
		c0.086-0.021,0.111,0.012,0.083,0.093c-0.146,0.029-0.291,0.057-0.437,0.085C40.286,32.523,40.225,32.492,40.164,32.461z"/>
	<path fill-rule="evenodd" clip-rule="evenodd" fill="#9D6951" d="M34.06,32.837c0.025,0.026,0.051,0.053,0.076,0.079
		c-0.012,0.188-0.053,0.367-0.165,0.524c-0.032,0-0.063,0.001-0.094,0.002C33.938,33.241,33.999,33.039,34.06,32.837z"/>
	<path fill-rule="evenodd" clip-rule="evenodd" fill="#AD755B" d="M42.989,31.257c0.028,0.028,0.057,0.057,0.085,0.085
		c-0.097,0.102-0.227,0.081-0.347,0.095c-0.089,0.028-0.109-0.009-0.085-0.089C42.758,31.317,42.874,31.287,42.989,31.257z"/>
	<path fill-rule="evenodd" clip-rule="evenodd" fill="#8E5E46" d="M42.642,31.348c0.028,0.03,0.057,0.059,0.085,0.089
		c-0.107,0.096-0.23,0.087-0.413,0.044C42.453,31.425,42.548,31.386,42.642,31.348z"/>
	<path fill-rule="evenodd" clip-rule="evenodd" fill="#CA8C6E" d="M33.466,33.793c-0.039,0-0.077-0.001-0.116-0.002
		c0.06-0.14,0.092-0.3,0.26-0.364C33.61,33.568,33.55,33.686,33.466,33.793z"/>
	<path fill-rule="evenodd" clip-rule="evenodd" fill="#6C4430" d="M44.372,30.979c0.088-0.079,0.184-0.119,0.305-0.064
		c-0.022,0.123-0.131,0.112-0.212,0.142C44.435,31.03,44.403,31.004,44.372,30.979z"/>
	<path fill-rule="evenodd" clip-rule="evenodd" fill="#D7DDF3" d="M41.149,46.227C41,45.971,40.85,45.716,40.701,45.46
		c0.258-0.033,0.517-0.066,0.775-0.1c0.024,0.016,0.051,0.028,0.074,0.047c1.064,0.877,2.292,0.682,3.081-0.479
		c0.195-0.288,0.269-0.65,0.546-0.887c0.306-0.306,0.706-0.466,1.063-0.694c-0.037,0.702-0.364,1.305-0.658,1.919
		c0.013,0.109-0.037,0.198-0.092,0.285c-0.672,1.059-2.492,1.68-3.66,1.241C41.543,46.686,41.258,46.557,41.149,46.227z"/>
	<path fill-rule="evenodd" clip-rule="evenodd" fill="#3B2414" d="M34.838,41.324c-0.027-0.057-0.055-0.115-0.082-0.172
		c-0.215-0.51-0.126-0.956,0.294-1.322c0.408-0.355,0.811-0.41,1.265-0.183c0.123,0.169-0.276,0.294-0.069,0.416
		c0.16,0.095,0.135-0.256,0.32-0.252c0.621,0.349,0.765,1.074,0.347,1.74c-0.542,0.534-1.15,0.498-1.787,0.204
		C34.916,41.688,34.895,41.495,34.838,41.324z"/>
	<path fill-rule="evenodd" clip-rule="evenodd" fill="#DA9A7C" d="M45.177,44.042c-0.35,1.052-0.991,1.8-2.123,2.039
		c-0.651,0.138-1.235-0.127-1.577-0.721c1.092-0.272,2.159-0.608,3.171-1.117C44.807,44.162,44.944,43.953,45.177,44.042z"/>
	<path fill-rule="evenodd" clip-rule="evenodd" fill="#C19D87" d="M47.541,32.565c0.028-0.001,0.056-0.001,0.083-0.002
		c0.388,0.139,0.531,0.521,0.787,0.791c0.13,0.181,0.174,0.435,0.432,0.506c-0.06,0.125-0.002,0.245,0.015,0.366
		c0.363,0.467,0.583,0.974,0.435,1.582c-0.128-0.193-0.242-0.397-0.386-0.578c-0.246-0.307-0.5-0.604-0.938-0.651
		c-0.705-0.076-1.007-0.547-0.817-1.239C47.229,33.054,47.371,32.804,47.541,32.565z"/>
	<path fill-rule="evenodd" clip-rule="evenodd" fill="#DBAF96" d="M47.719,37.73c0.177-0.025,0.375,0.074,0.526-0.093
		c0.217-0.059,0.313,0.237,0.53,0.179c0.228,0.08,0.2,0.205,0.065,0.354c-0.182,0.203-0.551,0.298-0.4,0.696
		c0.007,0.02-0.045,0.076-0.081,0.095c-0.464,0.243-1.062,0.45-1.44,0.199c-0.288-0.191-0.491-0.215-0.774-0.219
		c-0.117-0.002-0.207-0.11-0.246-0.223c-0.053-0.153,0.062-0.239,0.161-0.326c0.216-0.188,0.529-0.24,0.7-0.494
		c0.302,0.139,0.45,0.455,0.708,0.622c-0.148-0.195-0.444-0.29-0.471-0.6c0.156-0.05,0.328-0.064,0.454-0.188
		c0.03-0.031,0.064-0.035,0.103-0.016c0.129,0.138,0.301,0.229,0.42,0.369c-0.004-0.004,0.015,0.008,0.015,0.008
		s-0.019-0.023-0.022-0.027C47.896,37.942,47.684,37.927,47.719,37.73z"/>
	<path fill-rule="evenodd" clip-rule="evenodd" fill="#FBFBFB" d="M36.846,41.495c0.343-0.729,0.236-1.247-0.343-1.657
		c-0.104,0.044-0.16-0.013-0.201-0.099c-0.599-0.42-1.574,0.188-1.572,0.978c0,0.145,0.017,0.29,0.026,0.435
		c-0.294-0.344-0.286-0.738-0.191-1.146c-0.025-0.167,0.117-0.277,0.149-0.425c0.075-0.115,0.189-0.188,0.292-0.274
		c0.029-0.027,0.059-0.055,0.088-0.083c0.116-0.094,0.256-0.148,0.38-0.228c0.083-0.038,0.172-0.031,0.26-0.041
		c0.136-0.029,0.272-0.023,0.409-0.013c0.304,0.048,0.579,0.18,0.858,0.3c0.524,0.425,0.53,0.998,0.455,1.594
		c-0.078,0.25-0.209,0.473-0.383,0.665C37.026,41.552,36.914,41.734,36.846,41.495z"/>
	<path fill-rule="evenodd" clip-rule="evenodd" fill="#E7A382" d="M49.292,35.809c-0.03-0.559-0.258-1.063-0.435-1.582
		c0.703-0.188,1.128-0.074,1.324,0.399c0.299,0.721,0.083,1.271-0.481,1.775c-0.154,0.138-0.235,0.056-0.281-0.091
		C49.366,36.147,49.333,35.977,49.292,35.809z"/>
	<path fill-rule="evenodd" clip-rule="evenodd" fill="#E2AD95" d="M43.166,38.277c-0.926-0.442-1.17-1.778-0.465-2.593
		c0.118-0.137,0.337-0.191,0.353-0.414c0.071-0.223,0.229-0.239,0.421-0.179c0.116,0.004,0.233,0.011,0.35,0.011
		c1.604,0.008,2.357,1.192,1.688,2.652c-0.023,0.053-0.051,0.104-0.077,0.157c-0.305-0.177-0.043-0.437-0.096-0.651
		c0.01-0.042,0.026-0.081,0.05-0.118c0.033-0.069,0.103-0.014,0.148-0.042c-0.154-0.154-0.083-0.381-0.181-0.554
		c-0.056-0.106-0.119-0.208-0.169-0.317c-0.318-0.802-1.499-1.126-2.155-0.372c-0.392,0.51-0.501,1.062-0.251,1.668
		c0.16,0.22,0.375,0.407,0.417,0.698C43.188,38.243,43.177,38.26,43.166,38.277z"/>
	<path fill-rule="evenodd" clip-rule="evenodd" fill="#DBAF96" d="M31.756,37.474c0.516-0.398,0.946-0.877,1.324-1.406
		c0.302,0.61,0.264,0.898-0.253,1.34c-0.322,0.276-0.56,0.538-0.367,0.999c0.103,0.244-0.13,0.431-0.173,0.654
		C32.063,38.547,31.866,38.025,31.756,37.474z"/>
	<path fill-rule="evenodd" clip-rule="evenodd" fill="#E7A282" d="M31.941,39.764c0.231,0.062,0.433,0.214,0.683,0.217
		c0.231,0.574,0.462,1.147,0.703,1.746C32.443,41.618,31.942,40.882,31.941,39.764z"/>
	<path fill-rule="evenodd" clip-rule="evenodd" fill="#E1E3DE" d="M45.429,37.203c0.08,0.236-0.098,0.474,0.007,0.709
		c0.089,0.085,0.178,0.17,0.267,0.255c-0.014,0.127,0.087,0.279-0.078,0.375c-0.123,0.037-0.193-0.061-0.277-0.111
		c-0.017-0.001-0.026-0.004-0.026-0.004c-0.001,0.001,0.007,0.009,0.022,0.023c0.02,0.018,0.031,0.026,0.036,0.027
		c0.067,0.062,0.133,0.124,0.138,0.222c0.002,0.029,0.003,0.058,0.004,0.087c-0.08,0.121,0.082,0.237,0.007,0.358
		c0,0.026-0.002,0.053-0.004,0.079c-0.394-0.02-0.494-0.149-0.539-0.69c-0.061-0.191-0.177-0.187-0.329-0.104
		c-0.312,0.17-0.639,0.214-0.981,0.107c-0.217,0.059-0.349-0.111-0.515-0.19c-0.001-0.023,0.001-0.046,0.007-0.068l0.001-0.029
		c0.112-0.097,0.244-0.083,0.373-0.056c0.469,0.103,0.893,0.02,1.261-0.299c0.203-0.056,0.262-0.247,0.368-0.395
		C45.246,37.394,45.232,37.205,45.429,37.203z"/>
	<path fill-rule="evenodd" clip-rule="evenodd" fill="#9E5150" d="M40.153,43.257c0.189-1.017,2.279-1.777,3.287-1.152
		c-0.686-0.035-1.269-0.005-1.824,0.219C41.072,42.542,40.58,42.84,40.153,43.257z"/>
	<path fill-rule="evenodd" clip-rule="evenodd" fill="#DFE1DC" d="M36.846,41.495c0.226,0.062,0.2-0.174,0.296-0.263
		c0.1-0.091,0.156-0.229,0.231-0.347c0.146,0.15,0.014,0.28-0.031,0.416c-0.106,0.236-0.285,0.408-0.498,0.548l0.003-0.003
		c-0.191,0.165-0.583,0.18-0.433,0.603c0.016,0.045-0.109,0.065-0.178,0.021c-0.042-0.088-0.083-0.177-0.13-0.273
		c-0.02,0.029-0.035,0.047-0.044,0.067c-0.063,0.148,0.135,0.459-0.18,0.431c-0.241-0.021-0.18-0.286-0.131-0.471
		c0.021-0.077,0.032-0.14-0.05-0.184c-0.192,0.058-0.311-0.062-0.428-0.182c-0.025-0.006-0.051-0.009-0.077-0.009
		c-0.059-0.044-0.152-0.066-0.103-0.174C35.708,41.898,36.309,42,36.846,41.495z"/>
	<path fill-rule="evenodd" clip-rule="evenodd" fill="#CF9685" d="M37.281,41.317c0.031-0.144,0.062-0.288,0.092-0.432
		c0.059-0.583,0-1.134-0.438-1.579c-0.19-0.282-0.56-0.206-0.796-0.398c-0.02-0.039-0.021-0.078-0.002-0.117
		c0.635-0.148,1.425,0.49,1.495,1.23c0.045,0.482-0.002,0.958-0.259,1.39C37.292,41.429,37.246,41.413,37.281,41.317z"/>
	<path fill-rule="evenodd" clip-rule="evenodd" fill="#8A6256" d="M47.201,41.792c-0.078,0.226-0.146,0.458-0.376,0.594
		c-0.157-0.172,0.076-0.264,0.037-0.438c-0.18,0.064-0.348,0.19-0.551,0.164c-0.017-0.426,0.204-0.753,0.534-0.79
		c0.343-0.089,0.343-0.089,0.534-0.359c0.058,0.218-0.026,0.388-0.062,0.561C47.367,41.652,47.239,41.703,47.201,41.792z"/>
	<path fill-rule="evenodd" clip-rule="evenodd" fill="#452C1C" d="M43.475,35.092c-0.14,0.06-0.28,0.119-0.421,0.179
		c-0.26,0.023-0.52,0.056-0.781,0.065c-0.174,0.006-0.335-0.068-0.333-0.267c0.003-0.267,0.21-0.119,0.323-0.119
		c0.351,0.001,0.699,0.004,1.042-0.089C43.544,34.797,43.618,34.868,43.475,35.092z"/>
	<path fill-rule="evenodd" clip-rule="evenodd" fill="#875F54" d="M45.611,32.054c0.231-0.069,0.307,0.184,0.48,0.233
		c0.128,0.037,0.16,0.251,0.383,0.149c0.138-0.062,0.092,0.139,0.09,0.22c-0.006,0.223-0.261,0.184-0.358,0.316
		c-0.145-0.275-0.542-0.127-0.683-0.41C45.558,32.395,45.444,32.2,45.611,32.054z"/>
	<path fill-rule="evenodd" clip-rule="evenodd" fill="#835B51" d="M46.846,41.323c-0.342,0.152-0.368,0.519-0.534,0.79
		c-0.154,0.142-0.308,0.284-0.462,0.427c0.163-0.652,0.648-1.104,0.886-1.7c0.037,0.011,0.073,0.022,0.11,0.033
		C46.846,41.023,46.846,41.173,46.846,41.323z"/>
	<path fill-rule="evenodd" clip-rule="evenodd" fill="#94775D" d="M47.201,41.792c0.039-0.09,0.079-0.18,0.117-0.269
		c0.379-0.161,0.454-0.573,0.722-0.927c0.015,0.441,0.136,0.814-0.221,1.1c-0.113,0.092-0.094,0.085-0.238-0.029
		C47.414,41.536,47.343,41.793,47.201,41.792z"/>
	<path fill-rule="evenodd" clip-rule="evenodd" fill="#3E2617" d="M34.875,38.001c0.104,0.05,0.178,0.124,0.17,0.261
		c-0.015,0.249-0.567,0.943-0.794,0.985c-0.039,0.007-0.089,0.003-0.12-0.017c-0.068-0.044-0.033-0.099,0.007-0.144
		c0.264-0.292,0.482-0.611,0.612-0.985C34.771,38.042,34.797,38,34.875,38.001z"/>
	<path fill-rule="evenodd" clip-rule="evenodd" fill="#896156" d="M45.611,32.054c-0.027,0.17,0.069,0.362-0.088,0.509
		c-0.254-0.05-0.527-0.065-0.458-0.458c0.024-0.138,0.038-0.253,0.175-0.31c0.174-0.072,0.166,0.097,0.23,0.175
		C45.503,32.011,45.563,32.027,45.611,32.054z"/>
	<path fill-rule="evenodd" clip-rule="evenodd" fill="#F5B199" d="M40.267,39.313c-0.232,0.266-0.271,0.713-0.723,0.773
		c-0.073-0.113-0.162-0.221-0.121-0.372c0.153-0.216,0.24-0.512,0.591-0.49C40.108,39.225,40.199,39.236,40.267,39.313z"/>
	<path fill-rule="evenodd" clip-rule="evenodd" fill="#AC7968" d="M48.775,37.817c-0.012,0.159-0.1,0.149-0.197,0.081
		c-0.115-0.081-0.223-0.173-0.333-0.26c-0.107-0.229-0.459-0.26-0.481-0.651C48.187,37.216,48.479,37.52,48.775,37.817z"/>
	<path fill-rule="evenodd" clip-rule="evenodd" fill="#A27262" d="M46.997,37.921c0.235,0.267,0.472,0.535,0.729,0.827
		c-0.458-0.141-0.693-0.518-0.967-0.849C46.852,37.761,46.918,37.91,46.997,37.921z"/>
	<path fill-rule="evenodd" clip-rule="evenodd" fill="#4F3729" d="M36.182,38.857c0.23,0.185,0.675,0.01,0.753,0.449
		c-0.263-0.091-0.526-0.183-0.79-0.274c-0.145-0.048-0.289-0.046-0.433-0.001c-0.083,0.008-0.167,0.016-0.25,0.024
		c-0.093,0.03-0.117-0.013-0.103-0.096c0.086-0.097,0.197-0.115,0.318-0.098C35.846,38.814,36.014,38.812,36.182,38.857z"/>
	<path fill-rule="evenodd" clip-rule="evenodd" fill="#4E3424" d="M39.225,39.658c-0.126-0.148-0.175-0.317-0.026-0.464
		c0.212-0.209,0.466-0.2,0.722-0.071c0.02,0.022,0.029,0.045,0.026,0.071s-0.007,0.038-0.013,0.038
		c-0.187,0.08-0.434,0.05-0.534,0.291C39.361,39.593,39.333,39.678,39.225,39.658z"/>
	<path fill-rule="evenodd" clip-rule="evenodd" fill="#D5806A" d="M34.107,42.674c0.325,0.068,0.655,0.124,0.97,0.479
		C34.638,43.057,34.349,42.914,34.107,42.674z"/>
	<path fill-rule="evenodd" clip-rule="evenodd" fill="#E2A48C" d="M44.984,38.533c0.112,0.283,0.136,0.634,0.539,0.69
		c-0.097,0.216-0.248,0.129-0.346,0.03C44.985,39.057,44.823,38.833,44.984,38.533z"/>
	<path fill-rule="evenodd" clip-rule="evenodd" fill="#E2A991" d="M36.237,42.469c0.039-0.017,0.113-0.041,0.111-0.049
		c-0.093-0.421,0.2-0.5,0.5-0.574c-0.108,0.215-0.507,0.24-0.383,0.624C36.491,42.549,36.32,42.56,36.237,42.469z"/>
	<path fill-rule="evenodd" clip-rule="evenodd" fill="#D8846E" d="M35.357,42.734c-0.275-0.022-0.494-0.147-0.65-0.395
		c0.246,0.102,0.491,0.202,0.736,0.304C35.467,42.723,35.448,42.762,35.357,42.734z"/>
	<path fill-rule="evenodd" clip-rule="evenodd" fill="#775744" d="M40.279,38.966c0-0.215,0-0.431,0-0.646
		c0.176,0.262,0.23,0.537,0.088,0.833C40.281,39.117,40.333,39.017,40.279,38.966z"/>
	<path fill-rule="evenodd" clip-rule="evenodd" fill="#A17061" d="M47.719,37.73c0.115,0.117,0.231,0.235,0.347,0.353
		c0.022,0.082,0.001,0.121-0.09,0.09c-0.181-0.114-0.339-0.252-0.451-0.436c0.035-0.045,0.075-0.051,0.121-0.017
		C47.67,37.723,47.694,37.726,47.719,37.73z"/>
	<path fill-rule="evenodd" clip-rule="evenodd" fill="#E6AC93" d="M45.351,38.328c0.088,0.062,0.177,0.124,0.265,0.186
		c0.06-0.039,0.117-0.048,0.171,0.009c-0.01,0.181-0.143,0.174-0.27,0.177c-0.058-0.057-0.115-0.114-0.173-0.17
		C45.293,38.461,45.296,38.394,45.351,38.328z"/>
	<path fill-rule="evenodd" clip-rule="evenodd" fill="#59392A" d="M39.225,39.658c0.034-0.069,0.068-0.139,0.102-0.208
		c0.179,0.045,0.093,0.208,0.14,0.312c0.026,0.108,0.051,0.216,0.077,0.324C39.315,40.034,39.294,39.828,39.225,39.658z"/>
	<path fill-rule="evenodd" clip-rule="evenodd" fill="#D49A85" d="M35.095,41.675c0.034,0.059,0.068,0.116,0.103,0.174
		c-0.282-0.064-0.445-0.209-0.359-0.525C34.924,41.441,35.009,41.558,35.095,41.675z"/>
	<path fill-rule="evenodd" clip-rule="evenodd" fill="#DA9F8A" d="M37.281,41.317c0.031,0.031,0.062,0.062,0.092,0.095
		c-0.139,0.191-0.262,0.401-0.529,0.438C36.99,41.671,37.136,41.495,37.281,41.317z"/>
	<path fill-rule="evenodd" clip-rule="evenodd" fill="#513525" d="M40.279,38.966c0.029,0.062,0.059,0.125,0.088,0.187
		c-0.033,0.053-0.067,0.107-0.1,0.161c-0.083-0.004-0.167-0.008-0.251-0.012c-0.039-0.023-0.094-0.028-0.099-0.089
		c0.001-0.03,0.003-0.06,0.005-0.09C40.06,39.116,40.248,39.22,40.279,38.966z"/>
	<path fill-rule="evenodd" clip-rule="evenodd" fill="#E5B099" d="M43.159,38.346c0.172,0.063,0.344,0.127,0.515,0.19
		C43.424,38.684,43.293,38.512,43.159,38.346z"/>
	<path fill-rule="evenodd" clip-rule="evenodd" fill="#F3EFF4" d="M45.786,38.522c-0.057-0.003-0.113-0.006-0.171-0.009
		c0.106-0.096-0.068-0.263,0.087-0.346C45.826,38.263,45.861,38.38,45.786,38.522z"/>
	<path fill-rule="evenodd" clip-rule="evenodd" fill="#5A3F2F" d="M35.36,38.958c0.034,0.032,0.068,0.064,0.103,0.096
		c-0.099,0.108-0.221,0.165-0.368,0.168C35.089,39.041,35.226,39,35.36,38.958z"/>
	<path fill-rule="evenodd" clip-rule="evenodd" fill="#97786A" d="M34.761,39.583c-0.065,0.14-0.13,0.281-0.195,0.421
		c-0.132-0.196,0.035-0.309,0.124-0.444C34.722,39.54,34.746,39.547,34.761,39.583z"/>
	<path fill-rule="evenodd" clip-rule="evenodd" fill="#E0AF9A" d="M35.274,41.858c0.143,0.061,0.286,0.121,0.429,0.182
		C35.479,42.17,35.354,42.067,35.274,41.858z"/>
	<path fill-rule="evenodd" clip-rule="evenodd" fill="#F0F4F1" d="M45.527,39.145c-0.038-0.119-0.171-0.235-0.007-0.358
		C45.585,38.905,45.683,39.022,45.527,39.145z"/>
	<path fill-rule="evenodd" clip-rule="evenodd" fill="#6D5242" d="M34.761,39.583c-0.021-0.015-0.045-0.022-0.071-0.022
		c0.059-0.143,0.112-0.294,0.317-0.255C34.965,39.435,34.863,39.509,34.761,39.583z"/>
	<path fill-rule="evenodd" clip-rule="evenodd" fill="#E3A188" d="M35.357,42.734c0.029-0.03,0.058-0.061,0.086-0.091
		c0.062,0.011,0.17,0.013,0.134,0.097C35.523,42.866,35.43,42.805,35.357,42.734z"/>
	<path fill-rule="evenodd" clip-rule="evenodd" fill="#B27F6D" d="M47.646,37.72c-0.04,0.006-0.081,0.011-0.121,0.017
		c-0.024,0-0.049-0.002-0.073-0.004c-0.019-0.064-0.038-0.128-0.057-0.192C47.535,37.52,47.569,37.649,47.646,37.72z"/>
	<path fill-rule="evenodd" clip-rule="evenodd" fill="#5A3F2F" d="M36.182,38.857c-0.168,0.001-0.336,0.002-0.504,0.003
		c0.143-0.092,0.305-0.053,0.459-0.069C36.146,38.818,36.161,38.84,36.182,38.857z"/>
	<path fill-rule="evenodd" clip-rule="evenodd" fill="#57616A" d="M47.976,63.83c-0.207,0.048-0.152,0.221-0.161,0.355
		c-0.041,0.581-0.075,1.162-0.111,1.743c-0.385,0.048-0.746-0.071-1.064-0.245c-0.226-0.123-0.754-0.327-0.922-0.163
		c-0.287,0.282-0.774,0.371-0.859,0.855c-0.007,0.038-0.06,0.061-0.1,0.081c-0.735,0.141-1.444-0.024-2.152-0.189
		c-0.142-0.032-0.267-0.113-0.359-0.234c-0.074-0.137-0.12-0.276-0.054-0.431c-0.185-1.128-0.363-2.256-0.554-3.382
		c-0.25-1.468-0.534-2.93-0.68-4.415c-0.094-0.957-0.17-1.905,0.083-2.854c0.074-0.275,0.207-0.508,0.358-0.738
		c1.334,0.442,2.698,0.712,4.11,0.701c1.64-0.083,3.323,0.14,4.854-0.699c0.105-0.058,0.221-0.065,0.333-0.093
		c0.172-0.152,0.345-0.306,0.517-0.458c0.034,0.03,0.068,0.062,0.103,0.092c0.483,0.545,0.812,1.177,0.979,1.879
		c0.372,1.552,0.297,3.04-0.692,4.381c-0.148,0.201-0.309,0.39-0.503,0.546c-0.49,0.396-0.984,0.286-1.251-0.279
		c-0.119-0.252-0.184-0.521-0.25-0.792c-0.226-0.911-0.533-1.79-1.071-2.571c-0.087-0.127-0.146-0.291-0.383-0.329
		c0.028,0.646,0.269,1.288-0.039,1.925c-0.45-0.988-0.56-2.11-1.276-3.022c0.542,1.331,0.661,2.706,0.823,4.07
		C47.823,60.98,47.881,62.407,47.976,63.83z"/>
	<path fill-rule="evenodd" clip-rule="evenodd" fill="#83B1C8" d="M41.149,46.227c1.101,1.099,2.936,0.533,3.827-0.285
		c0.222-0.203,0.405-0.448,0.606-0.675c0.251,0.011,0.377-0.206,0.549-0.323c0.255-0.175,0.431-0.118,0.601,0.091
		c0.169,0.206,0.265,0.445,0.308,0.71c0.106,0.666,0.124,1.331-0.047,1.985c-0.145,0.555-0.431,0.719-1.002,0.697
		c-2.086-0.079-4.141,0.101-6.134,0.768c-0.247,0.082-0.485,0.188-0.728,0.282c0-0.177,0-0.353-0.001-0.529
		c0.05-0.914,0.278-1.792,0.55-2.66c0.074-0.236,0.229-0.285,0.474-0.24C40.483,46.108,40.793,46.3,41.149,46.227z"/>
	<path fill-rule="evenodd" clip-rule="evenodd" fill="#6F95B8" d="M47.451,49.562c0.003-0.113,0.061-0.173,0.175-0.176
		c0.449,0.264,0.938,0.454,1.364,0.761c0.181,0.13,0.34,0.276,0.482,0.44c0.117,0.134,0.122,0.305,0.025,0.447
		c-0.1,0.146-0.26,0.129-0.393,0.048c-0.224-0.137-0.315,0.026-0.495,0.116c-0.374,0.188-0.513,0.555-0.782,0.776
		c-0.314,0.258-0.767,0.356-1.043,0.712c-0.036,0.048-0.133,0.059-0.204,0.067c-0.274,0.034-0.529-0.025-0.55,0.447
		c-0.015,0.34-0.479,0.35-0.798,0.331c-0.541-0.033-1.001-0.291-1.434-0.594c-0.159-0.11-0.283-0.18-0.457-0.017
		c-0.614,0.579-1.395,0.803-2.219,0.945c0.193-0.098,0.387-0.195,0.58-0.292c0.195-0.099,0.401-0.181,0.583-0.3
		c0.218-0.143,0.547-0.194,0.526-0.563c0.354,0.036,0.399-0.322,0.607-0.474c0.25-0.1,0.415,0.073,0.588,0.196
		c0.297,0.212,0.599,0.414,0.953,0.519c0.153,0.046,0.323,0.109,0.439-0.054c0.109-0.152-0.02-0.271-0.104-0.386
		c-0.06-0.083-0.132-0.157-0.15-0.262c0-0.044,0.019-0.077,0.057-0.1c0.269-0.051,0.454,0.156,0.686,0.222
		c0.152,0.043,0.334,0.125,0.447-0.012c0.132-0.158-0.046-0.287-0.127-0.413c-0.1-0.154-0.284-0.254-0.293-0.466
		c0.015-0.066,0.055-0.109,0.121-0.126c0.338,0.058,0.593,0.301,0.908,0.41c0.122,0.042,0.256,0.126,0.368,0.014
		c0.128-0.129,0.039-0.274-0.024-0.403c-0.143-0.29-0.397-0.502-0.562-0.777c-0.044-0.074-0.114-0.159-0.051-0.238
		c0.083-0.104,0.187-0.039,0.272,0.015c0.271,0.17,0.501,0.402,0.793,0.54c0.117,0.056,0.251,0.134,0.369,0.034
		c0.145-0.122,0.048-0.271-0.009-0.399c-0.095-0.217-0.255-0.388-0.412-0.561C47.581,49.87,47.4,49.778,47.451,49.562z"/>
	<path fill-rule="evenodd" clip-rule="evenodd" fill="#77A1B7" d="M50.698,54.123c-0.705,0.578-1.554,0.742-2.426,0.816
		c-0.921,0.079-1.843,0.121-2.762-0.024c0.478,0.052,0.834-0.067,1.121-0.519c0.263-0.413,0.681-0.436,1.133-0.182
		c0.14,0.078,0.218,0.037,0.299-0.059c0.056-0.066,0.093-0.147,0.146-0.217c0.35-0.45,0.467-0.444,0.78,0.04
		c0.419-0.264,0.636-0.623,0.564-1.131c-0.007-0.043,0.003-0.088-0.001-0.131c-0.024-0.234,0.108-0.374,0.312-0.403
		c0.212-0.03,0.262,0.18,0.284,0.323C50.234,53.172,50.628,53.588,50.698,54.123z"/>
	<path fill-rule="evenodd" clip-rule="evenodd" fill="#8D7875" d="M40.604,52.962c-0.031,0.039-0.05,0.079-0.081,0.103
		c-0.346,0.263-0.693,0.524-1.042,0.783c-0.135,0.101-0.248,0.039-0.342-0.068c-0.343-0.394-0.685-0.789-1.022-1.188
		c-0.124-0.146-0.096-0.255,0.056-0.397c0.271-0.256,0.623-0.373,0.913-0.592c0.088-0.066,0.172-0.06,0.27,0.024
		c0.419,0.361,0.818,0.741,1.151,1.186C40.539,52.857,40.567,52.907,40.604,52.962z"/>
	<path fill-rule="evenodd" clip-rule="evenodd" fill="#77A2B7" d="M48.39,47.549c-0.168-0.018-0.333-0.03-0.283-0.247
		c0.224-0.965,0.683-1.757,1.638-2.167c0.194-0.083,0.413-0.201,0.565,0.077c0.14,0.258,0.212,0.514-0.018,0.764
		c-0.122,0.134-0.271,0.243-0.446,0.255c-0.555,0.039-0.754,0.43-0.89,0.876C48.865,47.406,48.647,47.507,48.39,47.549z"/>
	<path fill-rule="evenodd" clip-rule="evenodd" fill="#6A90A5" d="M35.833,54.63c-0.47-0.005-0.715-0.252-0.736-0.731
		c-0.011-0.251,0.076-0.524-0.211-0.707c-0.102-0.063-0.027-0.186,0.046-0.263c0.092-0.097,0.203-0.189,0.336-0.174
		c0.123,0.014,0.063,0.127,0.063,0.21c0,0.214,0.126,0.194,0.257,0.114c0.16-0.098,0.307-0.217,0.469-0.312
		c0.137-0.08,0.274-0.064,0.403,0.043s0.087,0.222,0.05,0.354c-0.041,0.145-0.129,0.274-0.035,0.454
		C36.762,54.16,36.449,54.637,35.833,54.63z"/>
	<path fill-rule="evenodd" clip-rule="evenodd" fill="#E4A486" d="M43.687,49.394c0.06-0.003,0.119-0.007,0.179-0.011
		c0.059,0.149-0.025,0.256-0.127,0.335c-0.514,0.401-0.795,0.956-1.031,1.543c-0.087,0.021-0.172,0.021-0.249-0.034
		c-0.164-0.288-0.096-0.477,0.21-0.626c0.106-0.051,0.174-0.227,0.215-0.358C43.011,49.82,43.441,49.696,43.687,49.394z"/>
	<path fill-rule="evenodd" clip-rule="evenodd" fill="#AA8F6F" d="M51.063,50.797c-0.018-0.18,0.205-0.333,0.058-0.526
		c-0.09-0.13-0.027-0.259,0.002-0.388c0.064-0.138,0.053-0.311,0.188-0.417c0.191,0.062,0.453,0.04,0.435,0.357
		c-0.102,0.252-0.332,0.467-0.225,0.779c0.006,0.043,0.001,0.084-0.013,0.124C51.38,50.878,51.256,51.054,51.063,50.797z"/>
	<path fill-rule="evenodd" clip-rule="evenodd" fill="#737B8E" d="M43.42,52.295c-0.014,0.17-0.142,0.281-0.229,0.407
		c-0.104,0.146-0.246,0.196-0.377,0.011c0-0.115-0.012-0.227-0.092-0.319c0.021-0.044,0.053-0.078,0.096-0.102
		C43.019,52.249,43.22,52.115,43.42,52.295z"/>
	<path fill-rule="evenodd" clip-rule="evenodd" fill="#AA716E" d="M51.487,50.615c-0.195-0.238-0.115-0.484,0.258-0.792
		c0.008,0.021,0.012,0.042,0.013,0.064c0.083,0.114,0.151,0.231,0.078,0.378l0.001-0.001c-0.072,0.085-0.063,0.212-0.152,0.288
		C51.631,50.611,51.573,50.657,51.487,50.615z"/>
	<path fill-rule="evenodd" clip-rule="evenodd" fill="#E0A78C" d="M42.812,52.363c-0.03,0.01-0.061,0.02-0.09,0.03
		c-0.054-0.201-0.239-0.222-0.42-0.234c0.139-0.334,0.561-0.572,0.157-0.933c0.087,0,0.174,0,0.262,0
		C42.88,51.595,42.862,51.979,42.812,52.363z"/>
	<path fill-rule="evenodd" clip-rule="evenodd" fill="#A6BF79" d="M51.063,50.797c0.183,0.145,0.287-0.034,0.419-0.102
		c0.076,0.09,0.055,0.182,0.005,0.273c-0.064,0.125-0.166,0.203-0.305,0.15C51.038,51.063,51.046,50.926,51.063,50.797z"/>
	<path fill-rule="evenodd" clip-rule="evenodd" fill="#A7BE75" d="M51.311,49.466c-0.002,0.156-0.004,0.312-0.1,0.446
		c-0.034,0.026-0.067,0.025-0.102-0.001c-0.068-0.072,0.029-0.193-0.074-0.256c0.009-0.128-0.01-0.278,0.15-0.326
		C51.281,49.3,51.295,49.396,51.311,49.466z"/>
	<path fill-rule="evenodd" clip-rule="evenodd" fill="#AA8F6F" d="M51.035,49.655c0.368-0.047-0.013,0.204,0.103,0.257
		c0.005,0.177-0.075,0.269-0.258,0.259C50.932,49.999,50.983,49.827,51.035,49.655z"/>
	<path fill-rule="evenodd" clip-rule="evenodd" fill="#A48E7B" d="M51.836,50.266c-0.026-0.126-0.052-0.251-0.078-0.377
		c0.073-0.033,0.146-0.066,0.236-0.107C51.986,49.976,51.944,50.132,51.836,50.266z"/>
	<path fill-rule="evenodd" clip-rule="evenodd" fill="#A48E7B" d="M51.657,50.523c0.06-0.086,0.119-0.173,0.18-0.259
		c-0.025,0.238-0.056,0.474-0.27,0.63C51.47,50.74,51.599,50.641,51.657,50.523z"/>
	<path fill-rule="evenodd" clip-rule="evenodd" fill="#A5BA7B" d="M50.88,50.171c0.115-0.057,0.194-0.149,0.257-0.259
		c0.025,0,0.05,0,0.074,0c-0.03,0.119-0.06,0.238-0.09,0.358C51.032,50.257,50.929,50.28,50.88,50.171z"/>
	<path fill-rule="evenodd" clip-rule="evenodd" fill="#97AD9B" d="M51.657,50.523c-0.03,0.124-0.06,0.248-0.09,0.371
		c-0.026,0.025-0.054,0.05-0.08,0.074c-0.002-0.091-0.004-0.182-0.005-0.273c0.001-0.026,0.003-0.054,0.005-0.08
		C51.544,50.585,51.601,50.555,51.657,50.523z"/>
	<path fill-rule="evenodd" clip-rule="evenodd" fill="#474E56" d="M47.976,63.83c-0.096-0.089-0.181-0.173-0.176-0.328
		c0.034-1.062-0.096-2.118-0.187-3.173c-0.095-1.094-0.212-2.189-0.443-3.27c-0.134-0.622-0.284-1.234-0.53-1.827
		c0.968,0.831,1.106,2.05,1.48,3.229c0.088-0.607,0.007-1.142-0.088-1.673c-0.025-0.143-0.123-0.319,0.03-0.396
		c0.19-0.095,0.315,0.085,0.416,0.226c0.626,0.878,1.011,1.859,1.254,2.903c0.052,0.226,0.112,0.452,0.195,0.669
		c0.217,0.565,0.688,0.677,1.131,0.259c0.713-0.672,1.169-1.51,1.279-2.468c0.14-1.217-0.011-2.409-0.626-3.513
		c-0.132-0.236-0.437-0.381-0.395-0.713c1.557,1.303,2.948,2.737,3.723,4.663c0.475,1.179,0.547,2.373,0.127,3.583
		c-0.374,0.607-0.971,0.962-1.566,1.283C51.809,64.253,49.92,64.37,47.976,63.83z"/>
	<path fill-rule="evenodd" clip-rule="evenodd" fill="#F1C1A3" d="M42.812,52.363c-0.147-0.369-0.117-0.753-0.092-1.137
		c-0.018-0.195,0.005-0.354,0.116-0.551c0.277-0.492,0.672-0.874,1.029-1.293c0.766-0.257,1.552-0.378,2.358-0.346
		c0.472,0.019,0.849,0.278,1.228,0.525c0.273,0.336,0.641,0.6,0.795,1.027c0.059,0.164,0.147,0.339-0.018,0.485
		c-0.146,0.13-0.305,0.041-0.451-0.019c-0.39-0.16-0.677-0.483-1.152-0.757c0.309,0.407,0.554,0.701,0.763,1.02
		c0.105,0.161,0.228,0.366,0.059,0.563c-0.182,0.211-0.384,0.059-0.556-0.021c-0.289-0.135-0.562-0.305-0.842-0.46
		c-0.106-0.047-0.123-0.003-0.092,0.09c0.163,0.204,0.336,0.401,0.486,0.614c0.069,0.099,0.175,0.221,0.072,0.355
		c-0.093,0.121-0.236,0.087-0.366,0.085c-0.196-0.002-0.36-0.104-0.533-0.179c-0.145-0.062-0.267-0.184-0.44-0.171
		c-0.017-0.02-0.035-0.037-0.053-0.056c0.02,0.017,0.038,0.033,0.057,0.051c0.092,0.11,0.189,0.217,0.273,0.333
		c0.093,0.127,0.226,0.267,0.114,0.43c-0.116,0.171-0.297,0.205-0.504,0.149c-0.415-0.111-0.768-0.334-1.112-0.581
		c-0.155-0.111-0.286-0.312-0.531-0.229C43.217,52.317,43.015,52.341,42.812,52.363z"/>
	<path fill-rule="evenodd" clip-rule="evenodd" fill="#B78269" d="M48.411,33.354c-0.353-0.174-0.525-0.526-0.787-0.791
		c0.063-0.092,0.127-0.184,0.19-0.276C48.046,32.625,48.31,32.944,48.411,33.354z"/>
	<path fill-rule="evenodd" clip-rule="evenodd" fill="#CB9276" d="M54.679,53.995c-0.71,0.059-0.697,0.055-0.851-0.619
		c-0.112-0.495-0.197-0.993-0.26-1.497c-0.024-0.202,0.006-0.292,0.223-0.319c0.46-0.056,0.918-0.133,1.376-0.205
		c0.175-0.027,0.234,0.064,0.254,0.217c0.083,0.617,0.177,1.234,0.246,1.854c0.033,0.297-0.076,0.515-0.428,0.523
		C55.052,53.954,54.866,53.979,54.679,53.995z"/>
	<path fill-rule="evenodd" clip-rule="evenodd" fill="#E7A282" d="M42.193,65.603c0.054,0.11,0.089,0.226,0.073,0.351
		c-0.038,0.129-0.149,0.166-0.256,0.21c-0.721,0.294-1.438,0.595-2.03,1.123c-0.063,0.057-0.141,0.104-0.236,0.061
		c-0.521,0.11-1.04,0.234-1.58,0.169c-0.076-0.05-0.158-0.099-0.069-0.204c1.14-0.246,2.163-0.746,3.09-1.445
		c0.12-0.091,0.266-0.11,0.392-0.179c0.117-0.036,0.251,0.011,0.356-0.08C42.02,65.606,42.106,65.604,42.193,65.603z"/>
	<path fill-rule="evenodd" clip-rule="evenodd" fill="#A56B45" d="M53.146,21.168c0-0.031-0.001-0.062-0.002-0.094
		c0.441,0.147,0.884,0.295,1.325,0.442c-0.005,0.056-0.062,0.054-0.092,0.082C53.942,21.526,53.548,21.338,53.146,21.168z"/>
	<path fill-rule="evenodd" clip-rule="evenodd" fill="#975E42" d="M54.378,21.599c0.031-0.027,0.062-0.055,0.092-0.082
		c0.409,0.057,0.818,0.114,1.229,0.171c-0.088,0.03-0.196-0.008-0.264,0.085C55.07,21.788,54.729,21.663,54.378,21.599z"/>
	<path fill-rule="evenodd" clip-rule="evenodd" fill="#6C313A" d="M12.317,36.944c-0.028-0.028-0.057-0.057-0.086-0.085
		c0.206-0.086,0.382-0.238,0.612-0.266C12.732,36.807,12.494,36.83,12.317,36.944z"/>
	<path fill-rule="evenodd" clip-rule="evenodd" fill="#F1C1A3" d="M39.744,67.347c0.72-0.684,1.611-1.056,2.522-1.394
		c0.617,0.407,1.329,0.366,2.018,0.427c0.174,0.015,0.35,0,0.523-0.001c0.271-0.309,0.54-0.619,0.976-0.693
		c0.487-0.082,0.709,0.147,0.588,0.619c-0.024,0.096-0.023,0.171,0.028,0.247c0.246,0.355,0.035,0.572-0.265,0.67
		c-0.719,0.234-1.406,0.576-2.164,0.679c-0.253,0.034-0.475,0.133-0.694,0.252c-0.325,0.176-0.659,0.321-1.042,0.206
		c-0.002-0.215-0.002-0.215,0.283-0.394c-0.314,0.106-0.415,0.413-0.673,0.517c-0.179,0-0.271-0.119-0.351-0.255
		c0.15-0.245,0.37-0.406,0.634-0.513c-0.271,0.099-0.483,0.269-0.636,0.511c-0.211-0.031-0.47,0.101-0.608-0.179
		c0.181-0.195,0.409-0.318,0.646-0.427c-0.237,0.108-0.471,0.223-0.646,0.427C40.333,68.009,39.809,67.687,39.744,67.347z"/>
	<path fill-rule="evenodd" clip-rule="evenodd" fill="#F1C1A3" d="M41.577,65.688c-0.81,0.694-1.723,1.204-2.736,1.541
		c-0.25,0.083-0.5,0.144-0.764,0.119c-0.078-0.337,0.244-0.391,0.365-0.554c-0.236,0.143-0.407,0.38-0.546,0.646
		c-0.122-0.015-0.261,0.031-0.353-0.095c-0.129-0.249-0.129-0.249,0.185-0.565c-0.182,0.135-0.314,0.319-0.35,0.565
		c-0.157-0.034-0.319-0.054-0.44-0.177c0.07-0.243,0.125-0.492,0.354-0.657c-0.216,0.172-0.306,0.404-0.353,0.659
		c-0.177-0.003-0.273-0.12-0.358-0.253c0.001-0.181,0.005-0.36,0.166-0.499c-0.169,0.13-0.121,0.346-0.25,0.488
		c-0.262-0.278-0.225-0.53,0.042-0.788c0.404-0.391,0.791-0.8,1.294-1.068c0.083,0.025,0.204,0.1,0.242,0.069
		c0.62-0.49,1.122-0.039,1.565,0.265c0.406,0.278,0.829,0.185,1.238,0.271C41.105,65.703,41.344,65.679,41.577,65.688z"/>
	<path fill-rule="evenodd" clip-rule="evenodd" fill="#DBAE99" d="M42.196,68.311c0.461,0.003,0.882-0.115,1.257-0.396
		c0.077-0.059,0.189-0.1,0.285-0.1c0.748-0.003,1.381-0.411,2.08-0.59c0.73-0.187,0.743-0.299,0.289-0.874
		c0.114-0.099,0.365-0.117,0.259-0.36c-0.08-0.182-0.244-0.24-0.436-0.22c-0.234,0.025-0.458,0.078-0.627,0.264
		c-0.139,0.151-0.29,0.287-0.496,0.344c0.001-0.326,0.056-0.605,0.471-0.635c0.117-0.009,0.187-0.131,0.243-0.232
		c0.07-0.124,0.167-0.207,0.314-0.182c0.381,0.063,0.856-0.079,1.019,0.547c0.064-0.397,0.212-0.289,0.378-0.175
		c0.144,0.098,0.23,0.325,0.471,0.227c0.004,0.116,0.004,0.232,0.011,0.349c0.065,1.116-0.185,1.222-1.166,1.494
		c-1.339,0.372-2.745,0.456-4.058,0.949c-0.226,0.085-0.425-0.027-0.559-0.231C41.984,68.377,42.041,68.27,42.196,68.311z"/>
	<path fill-rule="evenodd" clip-rule="evenodd" fill="#8F3837" d="M63.399,62.008c-0.467,0.085-0.935,0.171-1.401,0.257
		c0.849-1.156,1.22-1.478,1.943-1.613c0.567-0.107,1.129-0.087,1.648,0.215c0.032,0.035,0.044,0.075,0.036,0.122
		C64.967,61.509,64.234,61.869,63.399,62.008z"/>
	<path fill-rule="evenodd" clip-rule="evenodd" fill="#AD9169" d="M65.595,60.952c-0.002-0.029-0.003-0.058-0.005-0.086
		c0.382-0.033,0.531-0.399,0.887-0.647c-0.097,0.55-0.642,0.618-0.788,0.998c-0.014-0.023-0.021-0.048-0.025-0.074
		C65.604,61.093,65.64,61.008,65.595,60.952z"/>
	<path fill-rule="evenodd" clip-rule="evenodd" fill="#CE987E" d="M37.896,67.44c0.06-0.463,0.403-0.64,0.784-0.779
		c-0.194,0.236-0.554,0.324-0.603,0.687c0.029,0.057,0.058,0.112,0.086,0.169C38.075,67.491,37.986,67.466,37.896,67.44z"/>
	<path fill-rule="evenodd" clip-rule="evenodd" fill="#CC977E" d="M42.196,68.311c-0.088,0.06-0.177,0.119-0.266,0.179
		c-0.029-0.003-0.058-0.006-0.087-0.008c0.211-0.343,0.511-0.56,1.011-0.701C42.607,68.046,42.293,68.051,42.196,68.311z"/>
	<path fill-rule="evenodd" clip-rule="evenodd" fill="#CC957C" d="M37.378,67.346c-0.054-0.441,0.309-0.585,0.585-0.862
		c-0.036,0.387-0.603,0.434-0.42,0.862C37.488,67.346,37.433,67.346,37.378,67.346z"/>
	<path fill-rule="evenodd" clip-rule="evenodd" fill="#D19D82" d="M36.498,66.907c-0.024-0.265,0.078-0.466,0.377-0.668
		c-0.121,0.279-0.207,0.479-0.293,0.679C36.554,66.915,36.526,66.911,36.498,66.907z"/>
	<path fill-rule="evenodd" clip-rule="evenodd" fill="#4A564A" d="M38.16,57.453c0.031,0.471,0.292,0.865,0.481,1.272
		c0.119,0.257,0.173,0.522,0.228,0.779c0.062,0.286-0.204,0.404-0.445,0.484c-0.061,0.024-0.127,0.035-0.177,0.084
		c-0.188,0.128-0.403,0.079-0.609,0.096c-0.027,0.031-0.035,0.084-0.091,0.082c-0.223,0.145-0.387,0.072-0.498-0.146
		c-0.078-0.152-0.139-0.313-0.207-0.471c0.071-0.181-0.135-0.092-0.167-0.172c-0.088-0.232-0.176-0.465-0.264-0.698
		c0.002-0.058-0.054-0.067-0.084-0.099c-0.016-0.056-0.027-0.113-0.048-0.166c-0.272-0.687-0.273-0.687,0.398-0.969
		c0.068-0.007,0.139-0.008,0.173-0.084c0.212-0.091,0.434-0.166,0.635-0.277c0.237-0.131,0.424-0.096,0.593,0.104
		C38.084,57.344,38.089,57.413,38.16,57.453z"/>
	<path fill-rule="evenodd" clip-rule="evenodd" fill="#707465" d="M38.16,57.453c-0.156-0.002-0.129-0.086-0.081-0.18
		C38.201,57.291,38.295,57.319,38.16,57.453z"/>
	<path fill-rule="evenodd" clip-rule="evenodd" fill="#72755F" d="M36.329,58.666c0.05,0.002,0.106-0.073,0.145,0.003
		c0.009,0.018-0.039,0.063-0.061,0.096c-0.047,0.007-0.12,0.035-0.138,0.015C36.23,58.729,36.286,58.693,36.329,58.666z"/>
	<path fill-rule="evenodd" clip-rule="evenodd" fill="#747760" d="M36.852,57.447c0,0.148-0.078,0.135-0.173,0.084
		c0.009-0.063-0.04-0.151,0.044-0.179C36.752,57.343,36.808,57.414,36.852,57.447z"/>
	<path fill-rule="evenodd" clip-rule="evenodd" fill="#6D715B" d="M36.676,59.463c0.104,0.011,0.279-0.049,0.167,0.172
		C36.729,59.634,36.677,59.573,36.676,59.463z"/>
	<path fill-rule="evenodd" clip-rule="evenodd" fill="#6E7364" d="M38.248,60.073c0-0.152,0.081-0.135,0.177-0.084
		C38.408,60.105,38.385,60.208,38.248,60.073z"/>
	<path fill-rule="evenodd" clip-rule="evenodd" fill="#737667" d="M37.548,60.251c0.03-0.027,0.061-0.055,0.091-0.082
		c0.015,0.072,0.121,0.159,0.016,0.212C37.575,60.421,37.562,60.315,37.548,60.251z"/>
	<path fill-rule="evenodd" clip-rule="evenodd" fill="#A57A81" d="M27.734,65.685c0.062,0.35-0.083,0.546-0.431,0.626
		c-1.292,0.298-2.581,0.34-3.87-0.006c-0.168-0.046-0.337-0.098-0.431-0.269c-0.05-0.415,0.179-0.297,0.417-0.235
		C24.867,66.172,26.308,66.171,27.734,65.685z"/>
	<path fill-rule="evenodd" clip-rule="evenodd" fill="#F0F0F0" d="M25.899,63.145c-0.116,0.131-0.274,0.096-0.411,0.081
		c-1.062-0.122-2.141-0.122-3.18-0.431c-0.589-0.176-1.161-0.39-1.658-0.755c-0.735-0.54-0.707-1.314,0.052-1.824
		c0.855-0.574,1.835-0.775,2.83-0.923c0.954-0.141,1.916-0.088,2.875-0.093c0.102-0.001,0.207-0.007,0.28,0.085
		c-0.102,0.111-0.264,0.168-0.225,0.382c0.246,1.326-0.209,2.448-0.999,3.429C25.593,63.001,25.749,63.01,25.899,63.145z"/>
	<path fill-rule="evenodd" clip-rule="evenodd" fill="#E3E3E3" d="M25.899,63.145c-0.174,0-0.347,0-0.542,0
		c0.007-0.195,0.149-0.295,0.232-0.411c0.678-0.952,1.017-1.984,0.732-3.149c-0.107-0.439,0.2-0.256,0.366-0.299
		c1.114,0.084,2.184,0.316,3.128,0.954c0.854,0.576,0.826,1.412-0.072,1.938c-0.878,0.515-1.837,0.783-2.849,0.88
		C26.563,63.09,26.236,63.174,25.899,63.145z"/>
	<path fill-rule="evenodd" clip-rule="evenodd" fill="#A37653" d="M65.595,60.952c0.07,0.046,0.077,0.115,0.068,0.19
		c-0.717,0.409-1.443,0.795-2.265,0.954c0-0.029,0.001-0.06,0.001-0.089C64.19,61.778,64.925,61.432,65.595,60.952z"/>
	<path fill-rule="evenodd" clip-rule="evenodd" fill="#B87E63" d="M40.783,32.468c-0.028-0.031-0.055-0.062-0.083-0.093
		c0.11-0.098,0.234-0.089,0.37-0.049C41.006,32.451,40.898,32.466,40.783,32.468z"/>
	<path fill-rule="evenodd" clip-rule="evenodd" fill="#EFEDEC" d="M36.302,39.739c0.067,0.033,0.134,0.065,0.201,0.099
		c0.003,0.086,0.023,0.176,0.005,0.257c-0.028,0.128-0.125,0.191-0.259,0.182c-0.137-0.009-0.224-0.102-0.233-0.221
		C36,39.868,36.12,39.767,36.302,39.739z"/>
	<path fill-rule="evenodd" clip-rule="evenodd" fill="#B58773" d="M47.976,38.173c0.029-0.03,0.06-0.06,0.09-0.09
		c0.074,0.04,0.19,0.115,0.141,0.174C48.121,38.355,48.041,38.24,47.976,38.173z"/>
	<path fill-rule="evenodd" clip-rule="evenodd" fill="#5A3F2F" d="M35.713,39.031c0.145-0.105,0.289-0.106,0.433,0.001
		C36.001,39.032,35.857,39.031,35.713,39.031z"/>
	<path fill-rule="evenodd" clip-rule="evenodd" fill="#3B2414" d="M44.908,37.905c-0.376,0.456-0.863,0.525-1.405,0.401
		c-0.111-0.025-0.225-0.039-0.336-0.058c-0.131-0.239-0.347-0.427-0.424-0.699c-0.283-0.738,0.384-1.619,1.154-1.544
		c0.318,0.031,0.332,0.257,0.356,0.489c0.521-0.24,0.685-0.131,0.81,0.51c-0.042,0.188-0.05,0.376,0.004,0.564
		C45.071,37.708,45.046,37.833,44.908,37.905z"/>
	<path fill-rule="evenodd" clip-rule="evenodd" fill="#FCFCFB" d="M44.992,37.033c-0.009-0.27-0.174-0.449-0.367-0.643
		c-0.127,0.142-0.175,0.446-0.453,0.289c-0.258-0.146-0.11-0.329,0.007-0.493c-0.889-0.23-1.5,0.357-1.436,1.362
		c-0.236-0.039-0.184-0.247-0.197-0.385c-0.051-0.514,0.036-0.993,0.444-1.363c0.815-0.626,1.836-0.428,2.276,0.443
		c0.05,0.079,0.101,0.157,0.151,0.236c0.024,0.213,0.022,0.428,0.031,0.642c-0.01,0.026-0.016,0.054-0.02,0.082
		c-0.279,0.578-0.287,0.589-0.521,0.702c0.03-0.116,0.059-0.232,0.088-0.348C45.015,37.383,44.935,37.208,44.992,37.033z"/>
	<path fill-rule="evenodd" clip-rule="evenodd" fill="#4B3122" d="M45.266,36.244c-0.619-0.703-1.211-0.959-2.276-0.443
		c0.276-0.475,0.734-0.512,1.199-0.458C44.757,35.409,45.155,35.766,45.266,36.244z"/>
	<path fill-rule="evenodd" clip-rule="evenodd" fill="#CA8E7B" d="M45.448,37.122c-0.146-0.207-0.123-0.422-0.031-0.642
		c0.188,0.199,0.092,0.472,0.167,0.703C45.604,37.243,45.508,37.118,45.448,37.122z"/>
	<path fill-rule="evenodd" clip-rule="evenodd" fill="#ECBDA2" d="M45.351,38.328c-0.003,0.067-0.005,0.134-0.007,0.201
		c-0.158-0.039-0.281-0.161-0.207-0.295C45.205,38.111,45.29,38.261,45.351,38.328z"/>
	<path fill-rule="evenodd" clip-rule="evenodd" fill="#DE8476" d="M39.916,39.212c0.033,0.03,0.066,0.06,0.099,0.089
		c-0.326-0.018-0.311,0.372-0.548,0.46c-0.046-0.104-0.093-0.208-0.14-0.312C39.372,38.996,39.722,39.296,39.916,39.212z"/>
	<path fill-rule="evenodd" clip-rule="evenodd" fill="#404445" d="M44.221,64.81c-0.061-0.007-0.158,0.011-0.2-0.029
		c-0.328-0.318-0.638-0.455-1.111-0.201c-0.208,0.111-0.409-0.208-0.342-0.465c0.051-0.199,0.104-0.381,0.07-0.589
		c-0.027-0.161,0.071-0.283,0.213-0.348c0.173-0.079,0.297,0.034,0.349,0.17c0.061,0.158,0.14,0.157,0.288,0.159
		c0.363,0.005,0.722,0.063,0.696,0.562c-0.009,0.175,0.164,0.183,0.237,0.282c0.08,0.108,0.173,0.207,0.117,0.352
		C44.48,64.85,44.341,64.79,44.221,64.81z"/>
	<path fill-rule="evenodd" clip-rule="evenodd" fill="#A0676D" d="M47.022,63.853c-0.028,0.133-0.084,0.245-0.279,0.307
		c0.146-0.419,0.431-0.757,0.446-1.272c-0.2,0.293-0.355,0.521-0.53,0.774c-0.074-0.548-0.074-0.548,0.739-1.377
		c0.312,0.836-0.055,1.519-0.411,2.316c-0.096-0.327,0.117-0.474,0.117-0.668c0.043-0.253,0.156-0.485,0.219-0.732
		c0.003-0.06-0.107-0.015-0.05-0.011c0.019,0.001,0.027,0.007,0.025,0.017C47.262,63.444,47.207,63.677,47.022,63.853z"/>
	<path fill-rule="evenodd" clip-rule="evenodd" fill="#74636B" d="M47.022,63.853c0.096-0.24,0.191-0.48,0.33-0.828
		c-0.016,0.402-0.101,0.664-0.248,0.908C47.077,63.906,47.05,63.88,47.022,63.853z"/>
	<path fill-rule="evenodd" clip-rule="evenodd" fill="#A8A8AF" d="M45.957,51.492c-0.073-0.041-0.187-0.12-0.137-0.177
		c0.086-0.097,0.164,0.018,0.229,0.087C46.018,51.433,45.987,51.463,45.957,51.492z"/>
	<path fill-rule="evenodd" clip-rule="evenodd" fill="#9B7C62" d="M44.022,50.407c0.266-0.414,0.688-0.152,1.049-0.207
		c-0.195,0.11-0.39,0.22-0.585,0.33c-0.091,0.145-0.219,0.124-0.352,0.078C44.057,50.564,43.971,50.524,44.022,50.407z"/>
	<path fill-rule="evenodd" clip-rule="evenodd" fill="#A6856A" d="M44.218,50.526c0.089,0.068,0.179,0.04,0.269,0.004
		c0.152,0.252-0.153,0.287-0.209,0.44c-0.218-0.03-0.331,0.281-0.572,0.175c-0.001-0.035-0.002-0.07-0.003-0.105
		C43.779,50.773,43.999,50.65,44.218,50.526z"/>
	<path fill-rule="evenodd" clip-rule="evenodd" fill="#886E54" d="M43.705,51.146c0.206-0.008,0.312-0.345,0.572-0.175
		c-0.109,0.13-0.209,0.27-0.329,0.388c-0.073,0.072-0.193,0.077-0.274,0.012C43.586,51.298,43.671,51.219,43.705,51.146z"/>
	<path fill-rule="evenodd" clip-rule="evenodd" fill="#8B7057" d="M44.218,50.526c-0.14,0.203-0.322,0.364-0.516,0.514
		c-0.111-0.123-0.139-0.229,0.023-0.344c0.111-0.079,0.199-0.191,0.297-0.288C44.057,50.498,44.132,50.521,44.218,50.526z"/>
	<path fill-rule="evenodd" clip-rule="evenodd" fill="#C0B0AB" d="M45.18,52.192c-0.117-0.01-0.218-0.041-0.243-0.188
		c0.172-0.024,0.219,0.068,0.239,0.193L45.18,52.192z"/>
	<path fill-rule="evenodd" clip-rule="evenodd" fill="#CF997F" d="M40.882,68.046c0.181-0.377,0.562-0.437,0.929-0.52
		C41.501,67.7,41.192,67.873,40.882,68.046L40.882,68.046z"/>
	<path fill-rule="evenodd" clip-rule="evenodd" fill="#CE997F" d="M41.491,68.225c0.116-0.404,0.448-0.507,0.814-0.562
		c-0.305,0.141-0.561,0.35-0.812,0.564L41.491,68.225z"/>
	<path fill-rule="evenodd" clip-rule="evenodd" fill="#CE987E" d="M41.324,67.201c-0.258,0.207-0.578,0.311-0.841,0.508
		C40.666,67.376,40.988,67.278,41.324,67.201z"/>
	<path fill-rule="evenodd" clip-rule="evenodd" fill="#CE987F" d="M36.94,67.171c-0.03-0.353,0.128-0.597,0.442-0.749
		c-0.179,0.23-0.31,0.49-0.444,0.747L36.94,67.171z"/>
	<path fill-rule="evenodd" clip-rule="evenodd" fill="#301707" d="M44.992,37.033c0.074,0.174,0.084,0.349,0.004,0.524
		C44.865,37.384,44.869,37.209,44.992,37.033z"/>
</g>
</svg>
