<?xml version="1.0" encoding="utf-8"?>
<!-- Generator: Adobe Illustrator 16.0.2, SVG Export Plug-In . SVG Version: 6.00 Build 0)  -->
<!DOCTYPE svg PUBLIC "-//W3C//DTD SVG 1.1 Tiny//EN" "http://www.w3.org/Graphics/SVG/1.1/DTD/svg11-tiny.dtd">
<svg version="1.1" baseProfile="tiny" id="Layer_1" xmlns="http://www.w3.org/2000/svg" xmlns:xlink="http://www.w3.org/1999/xlink"
	 x="0px" y="0px" width="85px" height="85px" viewBox="0 0 85 85" xml:space="preserve">
<g>
	<path fill-rule="evenodd" d="M81.44,29.301c-0.438-0.001-0.527-0.174-0.543-0.561c-0.029-0.715-0.107-1.429-0.17-2.143
		c-0.048-0.55-0.267-1.092-0.864-1.041c-0.705,0.062-0.779-0.308-0.849-0.805c-0.058-0.42-0.13-0.838-0.2-1.257
		c-0.203-1.204-0.532-1.441-1.724-1.228c-8.453,1.508-16.909,3.011-25.358,4.539c-0.561,0.101-0.613-0.083-0.605-0.551
		c0.024-1.46,0.046-2.922-0.008-4.381c-0.025-0.675,0.185-0.842,0.836-0.823c1.565,0.047,3.134,0.044,4.699,0.007
		c1.616-0.04,2.625-1.181,2.422-2.68c-0.126-0.938-0.755-1.46-1.536-1.888c-8.084-4.42-16.168-8.839-24.238-13.285
		c-1.718-0.946-3.336-0.901-5.046,0.042C20.188,7.696,12.1,12.108,4.019,16.533c-1.188,0.651-1.716,1.64-1.453,2.714
		c0.285,1.156,1.181,1.805,2.562,1.817c1.593,0.013,3.187,0.02,4.779-0.006c0.446-0.008,0.58,0.105,0.579,0.564
		c-0.014,6.877-0.017,13.755,0.003,20.632c0.002,0.533-0.189,0.599-0.639,0.587c-1.061-0.029-2.124-0.026-3.186-0.005
		c-1.472,0.028-2.42,0.984-2.453,2.46c-0.017,0.77-0.017,1.54,0,2.31c0.032,1.478,0.966,2.428,2.448,2.471
		c0.955,0.026,1.912-0.002,2.868,0.012c0.186,0.003,0.423-0.12,0.565,0.131c-2.812,2.367-4.661,5.326-5.562,8.88
		c-0.462,1.822-0.575,3.659-0.277,5.523c0.241,1.507,3.241,3.453,4.665,2.893c0.643-0.253,1.076-0.117,1.592,0.159
		c0.909,0.488,1.821,0.976,2.752,1.42c0.827,0.393,1.539,0.906,2.131,1.612c0.279,0.331,0.394,0.559,0.219,1.024
		c-0.654,1.75,0.287,3.54,2.096,4.063c0.416,0.12,0.563,0.229,0.541,0.726c-0.097,2.212,1.854,3.724,3.982,3.116
		c0.397-0.113,0.581-0.038,0.825,0.29c0.85,1.14,2.141,1.563,3.453,1.095c0.483-0.174,0.668-0.039,0.954,0.309
		c1.138,1.384,3.187,1.56,4.448,0.323c0.494-0.483,0.796-0.547,1.423-0.233c1.89,0.939,3.561,0.216,4.285-1.803
		c0.139-0.387,0.364-0.354,0.647-0.395c1.546-0.217,2.518-1.121,2.748-2.648c0.064-0.428,0.216-0.549,0.604-0.646
		c1.348-0.336,2.247-1.396,2.32-2.78c0.023-0.452,0.212-0.544,0.574-0.647c1.26-0.36,2.059-1.197,2.264-2.493
		c0.07-0.442,0.256-0.628,0.621-0.792c1.256-0.562,2.507-1.137,3.746-1.733c0.471-0.229,0.866-0.378,1.369-0.013
		c0.403,0.293,0.919,0.204,1.379,0.013c0.708-0.297,1.412-0.602,2.114-0.908c0.771-0.334,1.185-0.93,1.328-1.751
		c0.345-1.967,0.227-3.909-0.26-5.838c-0.544-2.148-1.512-4.101-2.884-6.014c0.462,0,0.753,0,1.045,0c8.63,0,17.26,0,25.89-0.002
		c1.027,0,1.366-0.287,1.367-1.206c0.005-7.09,0-14.179,0.007-21.269C82.5,29.757,82.195,29.303,81.44,29.301z M38.231,54.044
		c-2.627-0.83-5.084-0.202-7.404,1.106c-0.463,0.263-0.805,0.296-1.279,0.033c-2.047-1.137-4.261-0.895-6.457-0.681
		c-2.23,0.216-4.329-0.158-6.288-1.265c-0.305-0.172-0.548-0.332-0.622-0.743c-0.098-0.55-0.521-0.898-1.007-1.162
		c-0.663-0.359-1.315-0.735-1.944-1.252c0.223,0,0.445,0,0.667,0c7.356,0,14.712,0.011,22.068-0.02
		c0.706-0.003,0.807,0.229,0.796,0.851c-0.036,2.039,0.005,2.057,2.01,2.057c2.061,0,4.123,0,6.378,0
		C42.88,54.521,40.649,54.809,38.231,54.044z"/>
	<path fill-rule="evenodd" fill="#D0D0EF" d="M49.832,19.192c-0.393,0.206-0.555,0.564-0.648,0.969
		c-0.229,0.217-0.521,0.258-0.81,0.243c-0.674-0.036-0.853,0.318-0.848,0.924c0.014,1.684,0.009,3.369,0.003,5.053
		c-0.002,0.393,0.031,0.796-0.238,1.134c-2.208,0.417-4.416,0.836-6.625,1.248c-0.911,0.169-1.825,0.328-2.739,0.48
		c-0.966,0.161-1.175,0.385-1.176,1.349c-0.003,3.82-0.016,7.642,0.013,11.462c0.004,0.616-0.141,0.801-0.778,0.792
		c-2.706-0.037-5.413-0.031-8.12-0.003c-0.565,0.006-0.775-0.098-0.771-0.728c0.029-4.484,0.018-8.969,0.011-13.453
		c0-0.407,0.001-0.693,0.559-0.702c0.553-0.009,0.845-0.402,0.831-0.964c-0.013-0.539-0.354-0.803-0.84-0.907
		c-0.153-0.033-0.317-0.016-0.477-0.016c-3.9,0-7.801,0.002-11.702-0.004c-0.534-0.001-1.023,0.062-1.265,0.614
		c-0.233,0.532,0.054,0.91,0.425,1.249c0.253,0.346,0.238,0.75,0.239,1.147c0.003,4.192,0.003,8.384-0.001,12.576
		c0,0.395,0.036,0.805-0.258,1.136c-2.229,0.182-2.229,0.182-2.229-1.961c0-6.744,0-13.487,0-20.23c0-1.218-0.219-1.44-1.432-1.442
		c-1.912-0.003-3.823,0-5.734-0.003c-0.315,0-0.697,0.054-0.775-0.365c-0.07-0.37,0.292-0.461,0.539-0.596
		c8.15-4.469,16.301-8.934,24.453-13.398c0.089-0.049,0.196-0.068,0.294-0.101c0.718,0.046,1.273,0.487,1.863,0.811
		c4.829,2.654,9.665,5.297,14.497,7.945c2.23,1.223,4.465,2.438,6.687,3.675c0.489,0.272,0.97,0.568,1.149,1.151
		c0.18,0.583-0.004,0.83-0.612,0.851C52.154,19.165,50.99,19.045,49.832,19.192z"/>
	<path fill-rule="evenodd" fill="#E5B07C" d="M39.011,75.932c-0.018,1.371-0.644,1.706-1.868,1.066
		c-0.857-0.447-1.58-1.178-2.614-1.271c-0.189-0.017-0.184-0.239-0.25-0.372c-0.628-1.273-1.642-1.918-3.064-1.829
		c-0.409,0.024-0.587-0.085-0.772-0.455c-0.601-1.205-1.618-1.805-2.962-1.741c-0.444,0.021-0.63-0.097-0.835-0.49
		c-0.639-1.222-1.702-1.798-3.072-1.68c-0.383,0.033-0.499-0.08-0.64-0.375c-0.536-1.123-1.43-1.752-2.683-1.806
		c-1.32-0.057-2.28,0.545-2.938,1.676c-0.472,0.81-0.495,0.814-1.121,0.112c-0.378-0.424-0.814-0.738-1.322-0.991
		c-1.351-0.672-2.675-1.396-4.031-2.058c-0.453-0.222-0.591-0.489-0.555-0.984c0.285-3.883,1.879-7.127,4.706-9.784
		c0.205-0.191,0.387-0.354,0.685-0.167c2.835,1.785,5.95,1.89,9.142,1.509c0.799-0.096,1.587-0.073,2.375,0.079
		c0.017,0.439-0.365,0.556-0.635,0.735c-1.147,0.767-2.326,1.485-3.515,2.184c-2.675,1.57-1.97,4.54,0.063,5.749
		c1.666,0.991,3.353,1.057,5.108,0.354c0.837-0.335,1.657-0.713,2.456-1.134c1.943-1.023,3.864-1,5.756,0.132
		c2.436,1.458,4.936,2.805,7.371,4.265c0.403,0.242,0.858,0.439,1.079,0.906c-0.176,1.028-0.974,1.433-1.898,0.923
		c-1.081-0.597-2.133-1.242-3.207-1.851c-0.748-0.423-1.146-0.3-1.616,0.453c-0.189,0.795,0.169,1.247,0.854,1.64
		c1.018,0.582,2.136,1.015,2.987,1.865c0.149,0.549-0.012,0.995-0.473,1.317c-0.496,0.348-0.988,0.261-1.485-0.03
		c-0.957-0.561-1.927-1.097-2.88-1.663c-0.465-0.277-0.927-0.451-1.384-0.051c-0.456,0.398-0.384,0.884-0.12,1.367
		c0.436,0.839,1.334,1.064,2.048,1.528C38.143,75.348,38.625,75.567,39.011,75.932z"/>
	<path fill-rule="evenodd" fill="#FCD6AC" d="M33.869,61.106c-1.748,0.012-3.01,0.468-4.245,1.042
		c-1.006,0.467-1.977,1.021-3.071,1.281c-0.974,0.232-1.784-0.084-2.469-0.749c-0.416-0.404-0.442-0.842,0.109-1.18
		c2.661-1.642,5.294-3.331,7.998-4.897c1.863-1.079,3.861-1.284,5.979-0.615c2.593,0.819,5.09,0.42,7.395-1.019
		c0.519-0.324,0.825-0.281,1.267,0.149c2.717,2.652,4.229,5.85,4.521,9.636c0.028,0.38-0.058,0.567-0.415,0.727
		c-1.426,0.636-2.839,1.302-4.246,1.976c-0.313,0.149-0.521,0.142-0.74-0.146c-0.141-0.187-0.33-0.357-0.532-0.474
		c-2.982-1.718-5.894-3.562-8.983-5.089C35.522,61.298,34.532,61.097,33.869,61.106z"/>
	<path fill-rule="evenodd" fill="#2DD52D" d="M51.409,49.95c0.284,0,0.567,0,0.851,0c7.646,0,15.293,0,22.938-0.001
		c1.246,0,1.332-0.069,1.583-1.256c0.172-0.809,0.723-1.34,1.588-1.436c0.78-0.088,1.11-0.479,1.106-1.258
		c-0.014-3.239-0.015-6.478,0.001-9.717c0.004-0.769-0.293-1.186-1.076-1.287c-1.006-0.13-1.504-0.625-1.629-1.646
		c-0.093-0.76-0.502-1.053-1.222-1.053c-10.62,0.002-21.239,0.003-31.858,0c-0.722,0-1.122,0.292-1.222,1.053
		c-0.137,1.049-0.614,1.476-1.711,1.658c-0.64,0.106-0.991,0.425-0.989,1.114c0.01,3.345,0.008,6.691,0.002,10.035
		c-0.002,0.647,0.332,0.968,0.935,1.081c1.219,0.229,1.598,0.589,1.777,1.772c0.104,0.692,0.518,0.938,1.156,0.938
		c1.407,0.001,2.814,0,4.222,0.001c0.251,0,0.5,0,0.751,0c-0.793,0.629-1.547,1.163-2.618,1.13c-2.2-0.07-4.406-0.036-6.609-0.011
		c-0.531,0.006-0.736-0.103-0.734-0.689c0.021-6.16,0.02-12.318,0.002-18.478c-0.001-0.544,0.136-0.723,0.705-0.723
		c13.514,0.015,27.027,0.016,40.54,0c0.574,0,0.699,0.185,0.698,0.725c-0.017,6.159-0.019,12.318,0.002,18.478
		c0.002,0.586-0.201,0.688-0.73,0.687c-8.921-0.014-17.841-0.023-26.761,0.013C52.254,51.084,51.965,50.403,51.409,49.95z"/>
	<path fill-rule="evenodd" fill="#95FE95" d="M65.076,34.216c3.311,0,6.406,0.007,9.502-0.01c0.346-0.001,0.45,0.171,0.553,0.43
		c0.378,0.964,1.062,1.646,2.015,2.022c0.336,0.133,0.421,0.303,0.42,0.636c-0.012,2.545-0.014,5.091,0.002,7.637
		c0.002,0.371-0.11,0.549-0.465,0.688c-0.933,0.364-1.596,1.038-1.953,1.973c-0.138,0.359-0.335,0.453-0.7,0.451
		c-3.049-0.014-6.098-0.008-9.341-0.008c2.11-1.891,3.282-4.121,3.294-6.845C68.414,38.435,67.293,36.167,65.076,34.216z"/>
	<path fill-rule="evenodd" fill="#95FE95" d="M54.163,48.036c-3.078,0-5.963-0.023-8.846,0.018c-0.711,0.011-1.142-0.103-1.43-0.846
		c-0.304-0.782-0.992-1.305-1.79-1.604c-0.329-0.124-0.426-0.298-0.424-0.641c0.015-2.548,0.011-5.097,0.004-7.645
		c-0.001-0.314,0.044-0.52,0.398-0.655c0.96-0.37,1.638-1.059,2.028-2.016c0.105-0.259,0.206-0.442,0.553-0.44
		c3.098,0.014,6.196,0.008,9.487,0.008c-2.162,1.911-3.316,4.165-3.313,6.906C50.834,43.848,51.945,46.1,54.163,48.036z"/>
	<path fill-rule="evenodd" fill="#F2F2FE" d="M17.46,35.381c0-2.256,0.012-4.512-0.01-6.769c-0.004-0.468,0.09-0.641,0.605-0.633
		c2.176,0.031,4.353,0.028,6.53,0.002c0.491-0.006,0.627,0.133,0.625,0.623c-0.018,4.539-0.018,9.078,0,13.617
		c0.002,0.485-0.118,0.628-0.615,0.623c-2.176-0.029-4.354-0.028-6.529-0.001c-0.488,0.006-0.624-0.117-0.618-0.613
		C17.476,39.947,17.46,37.664,17.46,35.381z"/>
	<path fill-rule="evenodd" fill="#2DD52D" d="M59.601,48.013c-3.771-0.012-6.889-3.152-6.871-6.92
		c0.018-3.726,3.174-6.877,6.863-6.85c3.808,0.028,6.912,3.119,6.909,6.881C66.5,44.897,63.368,48.023,59.601,48.013z"/>
	<path fill-rule="evenodd" fill="#8F9BD0" d="M6.16,47.255c0.039-0.798-0.279-1.623,0.186-2.387c0.246-0.153,0.518-0.08,0.777-0.081
		c9.551-0.004,19.102-0.003,28.653-0.003c0.905,0,0.905,0.002,0.907,0.895c0.003,1.834,0.003,1.835-1.847,1.835
		c-9.073,0-18.146,0.002-27.22-0.004C7.121,47.51,6.599,47.604,6.16,47.255z"/>
	<path fill-rule="evenodd" fill="#ADADD5" d="M49.832,19.192c0.21-0.234,0.492-0.155,0.748-0.158
		c0.742-0.009,1.486,0.024,2.228-0.015c0.331-0.019,0.831,0.248,0.969-0.24c0.143-0.508-0.163-0.92-0.618-1.175
		c-1.895-1.058-3.788-2.115-5.688-3.163c-4.123-2.275-8.249-4.545-12.376-6.814c-1.785-0.981-3.575-1.956-5.363-2.934
		c0.882-0.542,1.718-0.309,2.546,0.145c4.206,2.303,8.413,4.604,12.62,6.907c3.88,2.125,7.761,4.249,11.637,6.383
		c0.277,0.153,0.741,0.231,0.623,0.696c-0.115,0.456-0.552,0.325-0.876,0.328C54.131,19.173,51.98,19.181,49.832,19.192z"/>
	<path fill-rule="evenodd" fill="#2DD52D" d="M7.922,65.425c-0.418-0.158-0.833-0.328-1.256-0.473
		c-0.344-0.117-0.469-0.34-0.528-0.699c-0.311-1.896-0.099-3.741,0.476-5.56c0.833-2.639,2.285-4.87,4.352-6.713
		c0.419-0.374,0.768-0.451,1.244-0.117c0.453,0.317,0.957,0.563,1.438,0.84c0.059,0.414-0.266,0.613-0.5,0.846
		c-2.781,2.756-4.464,6.052-4.973,9.949C8.091,64.14,8.333,64.827,7.922,65.425z"/>
	<path fill-rule="evenodd" fill="#7885BC" d="M6.16,47.255c9.788-0.002,19.576-0.002,29.364-0.003c1.08,0,1.088,0,1.078-1.061
		c-0.014-1.517,0.201-1.32-1.291-1.321c-9.655-0.006-19.31-0.002-28.965-0.002c0.238-0.257,0.55-0.146,0.828-0.146
		c9.583-0.007,19.167,0,28.75-0.019c0.634-0.001,0.916,0.116,0.852,0.813c-0.065,0.711-0.036,1.433-0.017,2.149
		c0.009,0.375-0.121,0.547-0.503,0.507c-0.105-0.011-0.212-0.001-0.318-0.001c-9.583,0-19.166-0.002-28.75,0.003
		C6.545,48.177,5.957,48.17,6.16,47.255z"/>
	<path fill-rule="evenodd" fill="#5CADFE" d="M50.616,52.005c3.611,3.218,5.338,7.202,4.92,12.063
		c-0.093,1.073-1.052,1.008-1.72,1.328c-0.308-0.404-0.306-0.898-0.346-1.361c-0.345-3.986-1.912-7.394-4.762-10.21
		c-0.313-0.311-0.713-0.563-0.845-1.026c0.417-0.34,0.898-0.566,1.382-0.79C49.702,51.852,50.158,51.729,50.616,52.005z"/>
	<path fill-rule="evenodd" fill="#D09358" d="M44.876,69.563c-2.782-1.631-5.575-3.245-8.343-4.898
		c-1.905-1.139-3.808-1.256-5.792-0.225c-1.195,0.621-2.4,1.237-3.729,1.546c-1.859,0.432-4.28-0.46-5.29-1.956
		c-1.143-1.692-0.805-3.553,0.896-4.679c1.388-0.919,2.813-1.782,4.218-2.676c0.13-0.083,0.238-0.201,0.355-0.304
		c0.334,0.063,0.68,0.093,1.003,0.377c-1.571,0.982-3.075,2.025-4.673,2.896c-2.384,1.297-1.996,3.797-0.035,5.015
		c1.254,0.779,2.551,0.948,3.957,0.516c1.298-0.401,2.476-1.074,3.712-1.612c1.783-0.776,3.509-0.705,5.188,0.25
		c2.58,1.467,5.149,2.95,7.719,4.436C44.56,68.533,44.998,68.882,44.876,69.563z"/>
	<path fill-rule="evenodd" fill="#29B833" d="M60.702,29.136c3.819-0.34,7.639-0.674,11.458-1.021
		c2.028-0.184,4.059-0.362,6.082-0.595c0.724-0.083,0.734,0.352,0.717,0.806c-0.015,0.367,0.351,0.957-0.488,0.954
		c-5.832-0.014-11.663-0.015-17.494-0.021c-0.103,0-0.205-0.025-0.308-0.038C60.68,29.192,60.691,29.164,60.702,29.136z"/>
	<path fill-rule="evenodd" fill="#ABABD2" d="M14.615,42.79c0.007-4.953,0.014-9.905,0.021-14.858
		c0.731-0.052,0.943,0.242,0.935,1.006c-0.046,4.349-0.042,8.698-0.004,13.047C15.574,42.773,15.322,42.98,14.615,42.79z"/>
	<path fill-rule="evenodd" fill="#ADADD5" d="M47.291,27.515c-0.004-2.191,0.016-4.382-0.027-6.573
		c-0.013-0.642,0.197-0.855,0.812-0.789c0.365,0.039,0.739,0.008,1.108,0.008c0.013,2.189,0.019,4.379,0.047,6.569
		c0.005,0.401-0.137,0.571-0.532,0.603C48.228,27.372,47.761,27.453,47.291,27.515z"/>
	<path fill-rule="evenodd" fill="#009714" d="M61.155,27.057c5.075-0.904,10.152-1.794,15.222-2.726
		c0.899-0.165,0.674,0.517,0.806,0.911c0.195,0.581-0.275,0.486-0.6,0.515c-4.113,0.373-8.229,0.743-12.344,1.119
		c-1.024,0.094-2.048,0.208-3.072,0.313C61.163,27.145,61.159,27.101,61.155,27.057z"/>
	<path fill-rule="evenodd" fill="#FBD6AC" d="M21.146,77.823c-0.942-0.295-1.284-0.961-0.83-1.791
		c0.809-1.479,1.647-2.944,2.527-4.382c0.512-0.835,1.333-0.815,2.005-0.031c-1.025,2.015-2.227,3.929-3.357,5.883
		C21.411,77.642,21.262,77.717,21.146,77.823z"/>
	<path fill-rule="evenodd" fill="#FBD6AC" d="M25.087,79.142c-0.754-0.441-0.964-0.964-0.576-1.675
		c0.667-1.221,1.358-2.431,2.085-3.618c0.473-0.771,1.179-0.817,1.914-0.204c0.112,0.38-0.109,0.672-0.276,0.965
		c-0.775,1.36-1.552,2.721-2.345,4.071C25.711,78.984,25.531,79.295,25.087,79.142z"/>
	<path fill-rule="evenodd" fill="#FBD6AC" d="M29.404,80.411c-0.762-0.431-0.974-0.958-0.592-1.678
		c0.484-0.91,0.997-1.808,1.543-2.682c0.501-0.802,1.253-0.847,1.979-0.174c0.084,0.223,0.001,0.416-0.111,0.598
		c-0.704,1.144-1.327,2.335-2.026,3.48C30.02,80.245,29.851,80.578,29.404,80.411z"/>
	<path fill-rule="evenodd" fill="#FBD6AC" d="M18.09,73.878c-0.756-0.425-0.978-0.961-0.601-1.669
		c0.494-0.931,1.015-1.849,1.581-2.736c0.498-0.779,1.284-0.791,1.973-0.092c-0.662,1.521-1.587,2.896-2.417,4.323
		C18.511,73.898,18.327,74.003,18.09,73.878z"/>
	<path fill-rule="evenodd" fill="#2A91F8" d="M47.864,52.799c2.824,2.331,4.627,5.293,5.458,8.852
		c0.288,1.231,0.395,2.488,0.494,3.746c-0.43,0.337-0.504,0.113-0.53-0.305c-0.104-1.693-0.393-3.354-0.971-4.954
		c-0.942-2.609-2.467-4.829-4.509-6.7C47.541,53.194,47.188,52.953,47.864,52.799z"/>
	<path fill-rule="evenodd" fill="#29B832" d="M7.922,65.425c-0.063-4.658,1.703-8.555,4.916-11.854
		c0.276-0.283,0.54-0.577,0.809-0.867c0.575,0.174,0.551,0.388,0.126,0.778c-2.681,2.474-4.417,5.491-5.121,9.085
		C8.49,63.396,8.375,64.231,8.37,65.08C8.368,65.357,8.41,65.751,7.922,65.425z"/>
	<path fill-rule="evenodd" fill="#F0C295" d="M21.146,77.823c1.148-2.009,2.295-4.019,3.45-6.023
		c0.047-0.081,0.167-0.121,0.252-0.181c0.403,0.455,0.276,0.918,0.012,1.377c-0.802,1.394-1.604,2.785-2.411,4.175
		C22.16,77.671,21.756,77.957,21.146,77.823z"/>
	<path fill-rule="evenodd" fill="#F0C395" d="M25.087,79.142c0.257-0.025,0.42-0.157,0.55-0.39c0.95-1.707,1.914-3.406,2.873-5.107
		c0.478,0.466,0.422,0.992,0.13,1.512c-0.645,1.148-1.294,2.294-1.973,3.422C26.311,79.172,25.806,79.493,25.087,79.142z"/>
	<path fill-rule="evenodd" fill="#EFC295" d="M18.09,73.878c0.818-0.599,1.053-1.593,1.605-2.373
		c0.484-0.685,0.719-1.529,1.347-2.124c0.384,0.406,0.354,0.867,0.11,1.309c-0.508,0.922-1.019,1.845-1.583,2.733
		C19.233,73.952,18.73,74.205,18.09,73.878z"/>
	<path fill-rule="evenodd" fill="#EFC295" d="M29.404,80.411c0.511-0.028,0.568-0.491,0.757-0.812
		c0.734-1.234,1.45-2.479,2.173-3.722c0.417,0.422,0.384,0.901,0.125,1.37c-0.493,0.894-0.993,1.786-1.532,2.652
		C30.579,80.461,30.083,80.753,29.404,80.411z"/>
	<path fill-rule="evenodd" fill="#E1AD79" d="M35.784,78.963c0.014,0.507-0.276,0.805-0.726,0.906
		c-0.529,0.118-0.978-0.164-1.407-0.43c-0.184-0.114-0.075-0.279,0.005-0.413c0.177-0.293,0.361-0.581,0.542-0.871
		C34.941,78.004,35.361,78.486,35.784,78.963z"/>
	<path fill-rule="evenodd" fill="#CC9157" d="M41.997,72.593c-1.18-0.651-2.372-1.279-3.533-1.961
		c-0.633-0.371-0.505-0.968-0.308-1.544c-0.054,0.595,0.206,0.98,0.736,1.261c0.813,0.428,1.598,0.909,2.392,1.371
		C41.628,71.921,41.952,72.144,41.997,72.593z"/>
	<path fill-rule="evenodd" fill="#CC9157" d="M39.011,75.932c-1.083-0.409-2.026-1.073-3.013-1.655
		c-0.258-0.152-0.398-0.418-0.342-0.743c0.905,0.529,1.813,1.054,2.712,1.595C38.674,75.312,39.043,75.467,39.011,75.932z"/>
	<path fill-rule="evenodd" fill="#C88E55" d="M35.784,78.963c-0.555-0.218-0.975-0.7-1.585-0.808
		c0.069-0.379,0.207-0.601,0.622-0.312C35.241,78.135,35.809,78.291,35.784,78.963z"/>
	<path fill-rule="evenodd" fill="#2BB938" d="M50.616,52.005c-0.457,0.002-0.914,0.003-1.37,0.005
		C49.702,51.657,50.157,51.28,50.616,52.005z"/>
	<path fill-rule="evenodd" d="M39.076,19.155c1.911,0,3.821-0.005,5.732,0.002c1.005,0.004,1.282,0.275,1.289,1.275
		c0.012,1.592,0.013,3.185,0,4.777c-0.007,0.969-0.329,1.295-1.292,1.296c-3.821,0.007-7.643,0.007-11.464,0.001
		c-1-0.002-1.338-0.34-1.345-1.34c-0.011-1.565-0.011-3.132,0-4.697c0.007-1.009,0.321-1.31,1.348-1.313
		C35.254,19.151,37.165,19.155,39.076,19.155z"/>
	<path fill-rule="evenodd" d="M27.063,10.293c1.771-1.982,3.906-2.516,5.866-1.413c1.621,0.913,2.458,2.348,2.339,4.198
		c-0.121,1.875-1.106,3.237-2.895,3.911c-1.756,0.662-3.327,0.265-4.693-0.994c-0.213-0.195-0.4-0.419-0.6-0.63
		C25.831,13.776,25.824,11.863,27.063,10.293z"/>
	<path fill-rule="evenodd" fill="#A8A8CE" d="M27.063,10.293c-0.944,1.694-0.941,3.385,0.018,5.072
		C25.695,14.607,25.368,11.438,27.063,10.293z"/>
	<path fill-rule="evenodd" fill="#020302" d="M73.046,40.203c0.292,0,0.587-0.025,0.876,0.005c0.53,0.055,0.811,0.389,0.824,0.904
		c0.012,0.477-0.228,0.836-0.713,0.918c-0.682,0.116-1.379,0.112-2.06,0.008c-0.512-0.079-0.792-0.461-0.753-0.97
		c0.038-0.498,0.337-0.833,0.87-0.866c0.317-0.021,0.638-0.004,0.955-0.004C73.046,40.199,73.046,40.201,73.046,40.203z"/>
	<path fill-rule="evenodd" fill="#010201" d="M46.258,40.205c0.315,0,0.634-0.025,0.947,0.006c0.532,0.053,0.8,0.42,0.813,0.907
		c0.011,0.455-0.235,0.83-0.718,0.913c-0.677,0.118-1.368,0.099-2.045,0.015c-0.517-0.064-0.792-0.448-0.774-0.946
		c0.019-0.492,0.296-0.846,0.829-0.892c0.313-0.027,0.631-0.005,0.948-0.005C46.258,40.204,46.258,40.204,46.258,40.205z"/>
	<path fill-rule="evenodd" d="M58.639,43.913c0-0.601-0.002-1.121,0.001-1.643c0.002-0.24-0.08-0.392-0.338-0.457
		c-0.228-0.059-0.446-0.167-0.66-0.27c-1.065-0.512-1.729-1.318-1.731-2.539c-0.002-1.076,0.76-2.036,1.947-2.456
		c0.481-0.169,0.83-0.317,0.854-0.938c0.02-0.496,0.411-0.802,0.938-0.779c0.518,0.023,0.877,0.329,0.875,0.845
		c-0.001,0.521,0.251,0.657,0.687,0.784c0.955,0.279,1.725,0.831,2.094,1.797c0.22,0.575,0.173,1.133-0.476,1.408
		c-0.614,0.261-0.999-0.063-1.263-0.61c-0.09-0.185-0.219-0.365-0.37-0.504c-0.129-0.118-0.306-0.259-0.496-0.188
		c-0.228,0.084-0.135,0.317-0.144,0.49c-0.014,0.238,0.027,0.483-0.01,0.715c-0.102,0.633,0.156,0.937,0.767,1.142
		c1.017,0.344,1.859,0.949,2.069,2.1c0.258,1.417-0.539,2.552-2.088,3.006c-0.418,0.121-0.794,0.169-0.774,0.775
		c0.018,0.521-0.363,0.807-0.887,0.819c-0.53,0.012-0.918-0.28-0.928-0.786c-0.013-0.621-0.365-0.773-0.845-0.947
		c-0.967-0.349-1.684-0.979-2.002-2c-0.18-0.576-0.003-1.002,0.541-1.233c0.574-0.243,0.992,0.014,1.217,0.545
		C57.806,43.435,58.078,43.735,58.639,43.913z"/>
	<path fill-rule="evenodd" fill="#F0F0FC" d="M42.122,24.597c-0.531,0-1.063-0.024-1.591,0.008c-0.43,0.026-0.549-0.143-0.537-0.55
		c0.025-0.822,0.029-1.646-0.001-2.467c-0.016-0.441,0.165-0.536,0.562-0.528c1.034,0.021,2.069,0.024,3.104-0.001
		c0.427-0.011,0.55,0.143,0.537,0.552c-0.025,0.821-0.026,1.645,0.001,2.467c0.014,0.432-0.159,0.549-0.561,0.527
		C43.132,24.576,42.626,24.597,42.122,24.597z"/>
	<path fill-rule="evenodd" fill="#F1F1FD" d="M35.919,24.597c-0.556-0.066-1.44,0.301-1.867-0.133
		c-0.423-0.43-0.118-1.311-0.127-1.993c-0.02-1.404-0.006-1.404,1.407-1.404c0.77,0,1.54,0.015,2.309-0.006
		c0.345-0.009,0.463,0.103,0.455,0.453c-0.021,0.875-0.017,1.751-0.002,2.627c0.005,0.337-0.106,0.476-0.457,0.461
		C37.107,24.581,36.575,24.597,35.919,24.597z"/>
	<path fill-rule="evenodd" fill="#F2F2FE" d="M30.814,10.269c1.417-0.002,2.586,1.166,2.571,2.568
		c-0.014,1.398-1.21,2.565-2.609,2.545c-1.382-0.02-2.498-1.151-2.508-2.544C28.257,11.397,29.374,10.271,30.814,10.269z"/>
	<path fill-rule="evenodd" fill="#29C129" d="M60.776,42.534c0.357,0.18,0.759,0.323,0.723,0.819
		c-0.031,0.417-0.415,0.66-0.703,0.598c-0.535-0.116-0.158-0.635-0.241-0.966C60.519,42.84,60.423,42.544,60.776,42.534z"/>
	<path fill-rule="evenodd" fill="#2BCD2B" d="M58.642,39.805c-0.48-0.047-0.703-0.293-0.799-0.634
		c-0.081-0.286,0.11-0.495,0.325-0.657c0.271-0.207,0.479-0.236,0.475,0.208C58.64,39.076,58.642,39.43,58.642,39.805z"/>
</g>
</svg>
