<?xml version="1.0" encoding="utf-8"?>
<!-- Generator: Adobe Illustrator 16.0.0, SVG Export Plug-In . SVG Version: 6.00 Build 0)  -->
<!DOCTYPE svg PUBLIC "-//W3C//DTD SVG 1.1//EN" "http://www.w3.org/Graphics/SVG/1.1/DTD/svg11.dtd">
<svg version="1.1" id="Layer_1" xmlns="http://www.w3.org/2000/svg" xmlns:xlink="http://www.w3.org/1999/xlink" x="0px" y="0px"
	 width="85px" height="85px" viewBox="0 0 85 85" enable-background="new 0 0 85 85" xml:space="preserve">
<g>
	<path fill="#888071" d="M13.25,30.319c-0.026,0-0.054,0-0.08-0.006c-0.04-0.006-1.037-0.119-2.729-0.424
		c-1.848-0.34-3.062-0.479-3.076-0.479c-0.398-0.047-0.691-0.404-0.645-0.811c0.047-0.398,0.412-0.691,0.811-0.646
		c0.053,0.008,1.275,0.146,3.175,0.492c1.642,0.299,2.624,0.412,2.631,0.412c0.397,0.047,0.69,0.406,0.646,0.812
		C13.935,30.042,13.616,30.319,13.25,30.319L13.25,30.319z"/>
	<path fill="#888071" d="M7.325,33.251c-0.366,0-0.686-0.273-0.725-0.646c-0.047-0.4,0.241-0.762,0.643-0.809
		c0.001,0,0.001,0,0.002,0c0.02,0,1.867-0.221,2.804-0.373c0.97-0.152,3.147-0.498,3.147-0.498l0.227,1.441l-3.143,0.498
		c-0.969,0.16-2.789,0.371-2.869,0.379C7.378,33.243,7.351,33.251,7.325,33.251z"/>
	<path fill="#888071" d="M8.474,36.306c-0.318,0-0.611-0.207-0.703-0.531c-0.113-0.385,0.112-0.791,0.504-0.904l5.235-1.494
		c0.392-0.1,0.79,0.137,0.89,0.527c0.098,0.379-0.119,0.766-0.492,0.881l-5.234,1.494C8.614,36.292,8.54,36.306,8.474,36.306z"/>
	<path fill="#B85C3E" d="M35.563,56.056l-7.201,5.52c0,0,0.279,11.506,0.094,11.973c-0.186,0.465-2.71,3.365-2.432,5.047
		c0.22,1.309,1.217,1.773,3.927,1.873c2.71,0.102,8.231-1.121,8.231-1.121L35.563,56.056z"/>
	<path fill="#B85C3E" d="M56.7,60.446l-5.326,2.988c0,0,0.75,2.246,0.75,5.428c0,3.184-0.277,5.176-0.465,5.832
		c-0.186,0.658-1.748,1.9-1.588,3.707c0.072,0.838,1.123,1.494,2.99,1.402c1.865-0.094,4.582-0.279,4.582-0.279l2.711-17.678
		L56.7,60.446z"/>
	<path fill="#FB8B02" d="M22.258,18.456c0,0-0.87-3.057-0.126-7.918c0.75-4.861,1.993-7.42,3.182-7.547
		c1.184-0.125,3.429,2.119,5.176,4.805c1.746,2.684,3.182,7.42,3.182,7.42L22.258,18.456L22.258,18.456z"/>
	<path fill="#FB8B02" d="M42.579,64.593c0,0,0.061,5.611,0.186,8.104c0.127,2.49,0.008,8.023-0.498,8.635
		c-0.777,0.938-1.561,0.965-3.242,1.029c-1.002,0.041,0.312-6.17,0.312-6.424c0-0.252,0.061-15.152,0.061-15.152L42.579,64.593
		L42.579,64.593z"/>
	<path fill="#FFB800" d="M25.933,45.208c0,0-1.496,4.734-1.123,8.291c0.371,3.553,2.432,8.043,4.49,9.852
		c2.061,1.807,3.926,2.742,4.112,3.182s0.937,6.609,0.685,7.918c-0.253,1.311-2.061,4.678-1.748,5.984
		c0.312,1.311,1.549,2.133,4.736,2.061c4.145-0.094,3.926-0.717,4.238-3.303c0.211-1.74-0.061-13.775-0.061-13.775
		s2.559,0.252,6.172,0c3.613-0.254,8.104-1.873,8.104-1.873s2.559,7.979,1.682,10.408c-0.871,2.432-2.307,3.807-2.061,5.486
		c0.252,1.682,2.432,2.432,5.115,2.18s4.736-1.992,4.861-4.305c0.127-2.305,0.061-15.086,0.438-16.082
		c0.373-0.998,1.748-4.426,1.621-7.859c-0.125-3.434-0.371-4.803-0.371-4.803s3.221-1.229,6.205-3.486
		c2.271-1.723,3.979-3.986,4.889-7.361c1.494-5.547-0.559-11.033-4.678-12.906c-3.959-1.801-7.857-1.123-7.977,1.746
		c-0.121,2.871,2.43,2.246,4.363,2.99c1.934,0.75,4.111,4.178,1.807,7.545c-2.305,3.369-6.357,4.424-7.605,4.551
		s-3.555-1.807-8.355-1.932c-4.805-0.127-11.719,3.367-11.912,2.928c-0.186-0.438,6.855-4.988,7.354-10.908
		c0.467-5.486-0.684-8.043-0.684-8.043s-0.871-9.287-2.119-13.65c-1.25-4.365-2.977-7.607-4.1-7.541
		c-1.123,0.061-4.736,3.992-6.045,5.926c-1.309,1.932-2.742,5.049-2.742,5.049s-5.58-0.207-8.046,0.684
		c-2.245,0.811-4.803,2.18-6.424,4.736s-2.119,4.051-2.87,4.424c-0.75,0.371-4.305,1.123-4.617,1.561
		c-0.312,0.438-1.123,6.238-0.937,7.107c0.187,0.871,0.332,2.904,1.368,4.053c1.183,1.309,4.457,3.521,7.048,5.176
		C23.255,42.81,25.687,44.085,25.933,45.208z"/>
	<path fill="#FF9B31" d="M48.909,51.312c2.307-0.033,2.244-2.803,2.277-6.238c0.027-3.002-0.092-4.77-0.092-4.77
		s-1.322,0.18-2.492,0.625c-1.154,0.438-2.152,0.844-2.152,0.844v4.83C46.446,48.257,46.632,51.345,48.909,51.312L48.909,51.312z"/>
	<path fill="#FF9B31" d="M52.962,39.872c0,0,0,2.896,0.033,5.361c0.033,2.65-0.221,5.521,2.432,5.486
		c2.277-0.025,2.277-2.93,2.305-6.203c0.014-1.715,0.061-4.645,0.061-4.645s-1.123-0.219-2.465-0.186
		C54.271,39.714,52.962,39.872,52.962,39.872L52.962,39.872z"/>
	<path fill="#2C312C" d="M29.931,27.231c-0.484,1.176-1.527,2.855-3.248,2.418c-1.104-0.279-1.184-2.65-0.539-4.059
		c0.765-1.662,1.78-2.412,2.969-2.273C30.422,23.478,30.549,25.724,29.931,27.231L29.931,27.231z"/>
	<path fill="#2C312C" d="M18.545,26.872c-0.032-0.75-1.966-1.275-3.461-1.84c-1.269-0.471-1.966-0.498-2.306-0.186
		c-0.338,0.312-0.75,1.123-0.937,2.373c-0.187,1.248-0.12,3.359,0.187,4.676c0.312,1.342,0.811,3.023,3.021,3.9
		c1.9,0.75,3.021-0.279,3.833-0.846c1.03-0.711,0.584-2.396-0.87-1.527c-1.089,0.658-1.84,0.844-2.684,0.219
		c-1.156-0.857-1.436-3.395-1.342-3.613c0.404-0.951,2.025-1.184,2.684-1.436S18.578,27.53,18.545,26.872L18.545,26.872z"/>
	<path fill="#888071" d="M31.612,33.495H31.56c-0.021,0-2.119-0.152-3.429-0.186l-3.739-0.092c0,0-0.785,0.064-0.785-0.705
		c0-0.816,0.817-0.691,0.817-0.691l3.74,0.094c1.342,0.033,3.407,0.18,3.493,0.186c0.386,0.027,0.672,0.365,0.646,0.744
		C32.276,33.218,31.97,33.495,31.612,33.495L31.612,33.495z"/>
	<path fill="#888071" d="M30.422,38.046c-0.101,0-0.206-0.02-0.299-0.066c-0.013-0.006-1.667-0.797-3.162-1.309
		c-1.554-0.525-3.295-1.09-3.295-1.09c-0.365-0.119-0.571-0.512-0.452-0.877c0.12-0.365,0.512-0.57,0.877-0.451
		c0,0,1.754,0.564,3.314,1.096c1.582,0.539,3.25,1.336,3.322,1.375c0.346,0.166,0.492,0.584,0.326,0.93
		C30.935,37.899,30.681,38.046,30.422,38.046L30.422,38.046z"/>
	<path fill="#888071" d="M27.028,40.638c-0.133,0-0.272-0.041-0.393-0.121c-0.014-0.006-1.183-0.803-1.966-1.289
		c-0.817-0.498-2.285-1.441-2.285-1.441s-0.657-0.385-0.233-0.994c0.426-0.611,0.983-0.188,0.983-0.188s1.462,0.93,2.265,1.428
		c0.817,0.498,1.974,1.295,2.026,1.33c0.319,0.219,0.398,0.65,0.179,0.971C27.466,40.53,27.247,40.638,27.028,40.638L27.028,40.638z
		"/>
	<path fill="#FED0AB" d="M42.911,8.173c-0.318-0.113-2.385,2.293-3.416,4.678c-1.028,2.385-1.4,3.693-1.309,4.111
		c0.041,0.186,1.229,1.217,2.99,2.617c1.826,1.449,2.988,2.34,3.508,2.293c0.512-0.047,0.656-4.02,0.23-7.619
		C44.491,10.651,43.423,8.358,42.911,8.173z"/>
</g>
</svg>
