<?xml version="1.0" encoding="utf-8"?>
<!-- Generator: Adobe Illustrator 16.0.0, SVG Export Plug-In . SVG Version: 6.00 Build 0)  -->
<!DOCTYPE svg PUBLIC "-//W3C//DTD SVG 1.1//EN" "http://www.w3.org/Graphics/SVG/1.1/DTD/svg11.dtd">
<svg version="1.1" id="Layer_1" xmlns="http://www.w3.org/2000/svg" xmlns:xlink="http://www.w3.org/1999/xlink" x="0px" y="0px"
	 width="85px" height="85px" viewBox="0 0 85 85" enable-background="new 0 0 85 85" xml:space="preserve">
<g>
	<path fill="#6DCFF6" d="M2.594,2.547H82.5v79.906H2.594V2.547z"/>
	<circle fill="#ADE1FA" cx="42.547" cy="42.5" r="26.569"/>
	<g>
		<path fill="#D0282E" d="M74.953,50.146l-1.139,1.642l-1.105,1.592l-3.24,4.669l-1.059,1.524l-1.059,1.526
			c-0.402,0.58-1.26,0.58-1.662,0.001l-7.916-11.403c-0.146-0.214-0.199-0.45-0.178-0.676c0.053-0.494,0.469-0.928,1.037-0.911
			c0.586,0.019,1.066-0.467,1.039-1.054c-0.295-6.676-2.348-36.009-15.666-37.397l13.43,1.399c3.633,0.379,6.395,2.833,8.492,6.338
			c0.443,0.738,0.855,1.524,1.242,2.347c0.697,1.489,1.309,3.104,1.836,4.78c0.383,1.21,0.727,2.455,1.029,3.712
			c1.271,5.23,1.906,10.674,2.225,14.773c0.041,0.55,0.078,1.077,0.111,1.575c0.074,1.162,0.123,2.173,0.152,2.983
			c0.021,0.531,0.449,0.956,0.98,0.973l0.645,0.02C74.953,48.583,75.41,49.486,74.953,50.146L74.953,50.146z"/>
		<path fill="#EF3F47" d="M24.453,25.834c14.691,1.53,18.635-16.271,33.67-14.703L44.695,9.731
			c-15.037-1.567-18.98,16.234-33.672,14.703L24.453,25.834z"/>
		<path fill="#D0282E" d="M25.486,25.941l-1.033-0.107l-12.395-1.291c-0.029-0.003-0.059-0.006-0.086-0.01
			c-0.148-0.016-0.301-0.033-0.449-0.055c-3.744-0.51-6.631-2.184-9.023-4.341V6.934c6.631,4.092,9.543,12.328,15.936,16.525
			c1.832,1.203,3.947,2.073,6.52,2.419C25.129,25.902,25.307,25.923,25.486,25.941z"/>
		<ellipse fill="#85A0A5" cx="40.416" cy="70.792" rx="13.213" ry="3.066"/>
		<g>
			<path fill="#412312" d="M47.889,25.887c-0.324,0.839-0.061,2.751-1.568,2.907c-1.508,0.154-2.238-1.399-1.229-2.611
				C46.102,24.97,47.889,25.887,47.889,25.887z"/>
			<path fill="#434C52" d="M34.393,67.347c-0.334-0.014-0.334,0.812-2.35,1.016s-2.582,1.394-2.061,2.975
				c0,0,1.582,1.493,6.758-1.22c0,0,0.193-2.649-0.744-2.651C35.059,67.465,34.393,67.347,34.393,67.347L34.393,67.347z"/>
			<path fill="#2E353C" d="M34.523,66.798c0,0-0.32,1.116-0.16,1.449c0.16,0.334,1.195,0.221,1.451,0c0,0,0.23-0.552,0.26-1.74
				C36.104,65.317,34.523,66.798,34.523,66.798z"/>
			<path fill="#434C52" d="M46.193,67.347c0.334-0.014,0.334,0.812,2.35,1.016s2.582,1.394,2.061,2.975c0,0-1.582,1.493-6.76-1.22
				c0,0-0.191-2.649,0.746-2.651C45.527,67.465,46.193,67.347,46.193,67.347L46.193,67.347z"/>
			<path fill="#2E353C" d="M46.064,66.798c0,0,0.318,1.116,0.158,1.449c-0.158,0.334-1.195,0.221-1.449,0
				c0,0-0.232-0.552-0.262-1.74C44.482,65.317,46.064,66.798,46.064,66.798z"/>
			<path fill="#F3F3F3" d="M36.922,46.245c0,0-1.621-0.541-1.92-0.099c-0.297,0.443,1.258,2.445,1.59,2.33
				C36.922,48.36,36.922,46.245,36.922,46.245z"/>
			<path fill="#F5AB77" d="M35.736,44.886c-0.188-0.377-0.529-0.646-1.023-0.804c-0.145-0.046-0.301-0.002-0.4,0.11
				c-0.07-0.01-0.143,0.01-0.197,0.052c-0.174,0.129-0.381,0.33-0.547,0.579c-0.027,0.017-0.051,0.036-0.072,0.061
				c-1.301,1.604-0.266,2.615-0.256,2.625c0.109,0.104,0.281,0.099,0.385-0.01l0,0c0.08-0.086,0.096-0.214,0.039-0.317
				c0.287,0.331,0.594,0.522,0.615,0.536c0.129,0.078,0.295,0.037,0.373-0.091l0,0c0.078-0.128,0.039-0.295-0.09-0.373
				c-0.004-0.003-0.164-0.104-0.344-0.274c0.334,0.098,0.678,0.037,0.945-0.064c-0.125-0.222-0.174-0.393-0.189-0.51
				c-0.105,0.042-0.244,0.081-0.395,0.079c-0.781-0.431-0.105-1.486,0.41-1.362c0.023,0.029,0.045,0.062,0.062,0.096
				c0.133,0.261,0.035,0.557,0.035,0.56c-0.066,0.196,0.037,0.41,0.23,0.479l0.004,0.002c0.197,0.069,0.412-0.033,0.48-0.229
				C35.826,45.969,36.006,45.43,35.736,44.886L35.736,44.886z"/>
			<path fill="#434C52" d="M37.096,45.445c-0.215,0.896-1.967,9.638-2.15,11.46c-0.188,1.824-1.006,9.827-1.006,9.827
				s0.77,0.968,2.859,0c0,0,0.75-8.301,0.975-9.269c0.223-0.968,1.898-8.228,2.195-8.228c0.299,0,2.275,6.447,2.582,8.824
				c0.342,2.662,1.215,8.634,1.215,8.634s1.713,0.856,3.127-0.335c0,0-1.117-8.747-1.266-9.38s-1.117-6.7-1.043-7.854
				s-0.148-3.325-0.447-4.642C43.84,43.172,37.096,45.445,37.096,45.445L37.096,45.445z"/>
			<path fill="#544841" d="M37.943,45.175c-0.518,0.16-0.85,0.271-0.85,0.271c-0.029,0.125-0.09,0.405-0.172,0.8
				c0.266,0.094,0.541,0.152,0.82,0.195C37.789,46.015,37.857,45.594,37.943,45.175L37.943,45.175z M41.744,44.219
				c-1.156,0.197-2.49,0.562-3.432,0.845c-0.105,0.473-0.188,0.943-0.236,1.422c0.18,0.021,0.361,0.039,0.541,0.059
				c0.781,0.082,1.545,0.084,2.328,0.045c0.379-0.021,0.744-0.06,1.105-0.122C42.055,45.697,41.988,44.899,41.744,44.219z
				 M43.312,44.083c-0.342-0.02-0.766,0.014-1.23,0.082c0.234,0.689,0.305,1.475,0.305,2.234c0.27-0.06,0.535-0.134,0.797-0.222
				c0.219-0.074,0.434-0.142,0.645-0.221C43.752,45.307,43.602,44.676,43.312,44.083L43.312,44.083z M44.137,44.485
				c-0.037-0.175-0.191-0.284-0.428-0.347c0.23,0.536,0.365,1.102,0.439,1.683c0.041-0.02,0.08-0.035,0.121-0.058
				c0.029-0.016,0.061-0.032,0.09-0.049C44.295,45.267,44.219,44.845,44.137,44.485L44.137,44.485z"/>
			<path fill="#B4B4B4" d="M39.002,45.842c0,0-0.213,0.79-0.061,0.915c0.15,0.125,1.879,0.138,2.066,0
				c0.189-0.138,0.105-1.04,0.105-1.04L39.002,45.842L39.002,45.842z"/>
			<path fill="#EBF5F5" d="M36.574,31.803c-0.955,0.982-5.953,7.425-6.092,8.038c-0.141,0.612,1.918,4.646,1.918,4.646l2.031-1.586
				l-1.307-2.903l3.406-2.962C36.533,37.033,37.104,32.906,36.574,31.803z"/>
			<path fill="#FFFFFF" d="M41.664,30.585c-4.301,0.19-5.09,1.218-5.09,1.218s-0.277,3.53,0.139,6.841
				c0.418,3.312-0.109,5.898,0.111,6.426c0.223,0.529,0.557,0.725,0.557,0.725s2.773,1.139,6.781-0.332c0,0,0.98-0.53,0.342-1.448
				c-0.641-0.918,3.145-12.297,3.145-12.297S46.867,30.353,41.664,30.585z M34.441,42.755c0.16,0,0.762,0.915,0.77,1.033
				c0.008,0.116-2.371,2.225-2.543,2.204c-0.174-0.021-0.791-1.199-0.701-1.471C32.059,44.252,34.441,42.755,34.441,42.755z"/>
			<circle fill="#434C52" cx="32.664" cy="45.018" r="0.292"/>
			<path fill="#F3F3F3" d="M43.262,46.399c0,0,0,1.356,1.105,1.829c0,0,2.244-1.227,2.238-1.829S43.262,46.399,43.262,46.399z"/>
			<path fill="#F5AB77" d="M49.189,45.597c-0.016-0.038-0.035-0.074-0.062-0.105c-0.096-0.382-0.264-0.725-0.42-0.96
				c-0.053-0.076-0.133-0.132-0.223-0.149c-0.074-0.186-0.25-0.31-0.447-0.315c-0.682-0.022-1.227,0.158-1.623,0.541
				c-0.574,0.555-0.592,1.303-0.592,1.385c0,0.273,0.221,0.494,0.494,0.497h0.006c0.271,0,0.494-0.221,0.5-0.491
				c0-0.004,0.012-0.413,0.291-0.678c0.037-0.033,0.078-0.063,0.121-0.091c0.691,0.075,1.061,1.683-0.098,1.869
				c-0.354-0.122-0.582-0.393-0.627-0.448c-0.266,0.332-0.504,0.51-0.504,0.51c0.277,0.314,0.771,0.676,1.359,0.711
				c-0.299,0.133-0.539,0.188-0.547,0.188c-0.193,0.041-0.316,0.229-0.277,0.422c0.041,0.193,0.23,0.317,0.422,0.277
				c0.033-0.007,0.498-0.107,1-0.392c-0.117,0.104-0.152,0.27-0.092,0.41c0.08,0.182,0.291,0.264,0.471,0.185
				C48.361,48.953,50.09,48.156,49.189,45.597L49.189,45.597z"/>
			<path fill="#EBF5F5" d="M47.648,31.717c0,0-1.707,0.849-1.467,4.639c0,0,3.941,2.872,4.582,3.123l-2.678,3.312
				c0,0,1.203,1.419,2.232,1.696c0,0,3.311-4.145,3.311-4.729C53.629,39.173,49.789,33.33,47.648,31.717L47.648,31.717z"/>
			<path fill="#FFFFFF" d="M48.008,42.549c-0.277,0-1.078,1.094-1.008,1.44c0.068,0.348,2.379,2.242,2.779,2.154
				c0.398-0.088,0.814-1.252,0.781-1.495C50.525,44.405,48.008,42.549,48.008,42.549L48.008,42.549z"/>
			<circle fill="#434C52" cx="49.949" cy="45.295" r="0.307"/>
			<path fill="#D0282E" d="M40.211,34.972c0,0-1.871,6.83-1.748,7.783s1.158,2.668,1.379,2.661c0.223-0.009,2.389-2.398,2.402-2.965
				c0.014-0.567-0.332-7.479-0.332-7.479H40.211L40.211,34.972z"/>
			<path fill="#D0282E" d="M40.572,32.611c-0.633,0.528-0.887,1.857-0.523,2.359s1.689,0.544,2.012,0.251
				c0.32-0.293,0.475-2.359,0.475-2.359S41.377,31.941,40.572,32.611L40.572,32.611z"/>
			<path fill="#EBF5F5" d="M40.604,30.019c0,0-0.861-0.039-1.416,0.424c0,0-0.578,1.984,0.221,3.577
				c0.883-1.227,2.014-1.615,2.014-1.615L40.604,30.019z"/>
			<path fill="#EBF5F5" d="M41.422,32.404c0,0,1.432,1.116,1.803,1.928c0,0,2.006-1.252,2.006-3.89c0,0-0.654-0.341-1.416-0.298
				S41.422,32.404,41.422,32.404z"/>
			<path fill="#F5AB77" d="M46.25,23.887c0,0,1.57-2.284,2.998-1.713s0.713,4.282-1.428,4.425c-2.143,0.143-1.57-1.142-1.57-1.142
				V23.887z"/>
			<path fill="#E6986C" d="M40.736,29.216c0,0-0.74,2.917,0.928,3.265c1.666,0.348,2.314-2.36,2.406-4.098
				C44.164,26.646,40.736,29.216,40.736,29.216z"/>
			<path fill="#F5AB77" d="M47.107,22.745c0,3.862-2.652,6.994-5.924,6.994c-4.068,0-5.926-3.132-5.926-6.994
				c0-3.863,2.652-6.995,5.926-6.995C44.455,15.75,47.107,18.882,47.107,22.745L47.107,22.745z"/>
			<path fill="#412312" d="M47.105,22.914c0,0-0.273,1.268-0.436,1.329c-0.162,0.061-0.926-0.161-0.967-0.464
				c-0.041-0.302,0.645-3.99,0.102-4.776c0,0-1.936-0.323-2.219-1.977c0,0-2.115,2.399-7.055,2.399s-3.971-4.273-2.377-5.442
				c1.592-1.169,3.305,0.161,3.527,0.524c0,0,0.992-4.434,6.188-3.413s3.777,5,3.777,5s2.166-0.782,2.539,1.803
				c0.375,2.585-1.238,3.427-1.248,4.197C48.939,22.095,48.188,21.978,47.105,22.914L47.105,22.914z"/>
			<path fill="none" stroke="#CD7854" stroke-width="0.2855" stroke-linecap="round" stroke-miterlimit="10" d="M38.787,26.699
				c0,0,3.869-3.03,4.756-0.901"/>
			<path fill="#E6986C" d="M40.643,21.477c-0.439-0.013-1.916,2.207-1.482,2.798c0.436,0.59,1.896,0.295,2.223-0.218
				S41.158,21.492,40.643,21.477z"/>
			<path fill="none" stroke="#CD7854" stroke-width="0.2855" stroke-linecap="round" stroke-miterlimit="10" d="M41.789,21.601
				c0.107,0.365,0.537,0.638,1.051,0.638s0.941-0.272,1.049-0.638 M37.096,21.791c0.107,0.364,0.537,0.637,1.051,0.637
				s0.941-0.272,1.051-0.637"/>
			<path fill="none" stroke="#412312" stroke-width="0.4283" stroke-linecap="round" stroke-miterlimit="10" d="M36.867,20.482
				c0.248,0.15,0.553,0.225,0.871,0.188c0.58-0.065,1.029-0.468,1.15-0.968 M44.404,20.39c-0.248,0.151-0.553,0.225-0.873,0.188
				c-0.578-0.066-1.027-0.469-1.148-0.97"/>
			<path fill="#EBF5F5" d="M44.418,23.337c0.008,0.307-0.145,0.397-0.336,0.402c-0.189,0.006-0.348-0.077-0.354-0.385
				c-0.008-0.307,0.326-0.727,0.326-0.727S44.41,23.029,44.418,23.337L44.418,23.337z"/>
		</g>
		<ellipse fill="#85A0A5" cx="66.234" cy="68.457" rx="5.971" ry="1.09"/>
	</g>
</g>
</svg>
