<?xml version="1.0" encoding="utf-8"?>
<!-- Generator: Adobe Illustrator 16.0.2, SVG Export Plug-In . SVG Version: 6.00 Build 0)  -->
<!DOCTYPE svg PUBLIC "-//W3C//DTD SVG 1.1 Tiny//EN" "http://www.w3.org/Graphics/SVG/1.1/DTD/svg11-tiny.dtd">
<svg version="1.1" baseProfile="tiny" id="Layer_1" xmlns="http://www.w3.org/2000/svg" xmlns:xlink="http://www.w3.org/1999/xlink"
	 x="0px" y="0px" width="85px" height="85px" viewBox="0 0 85 85" xml:space="preserve">
<g>
	<path fill="#FCC7A1" d="M82.395,50.485c0,7.996,0,15.993,0,23.989c-0.379,0.32-0.841,0.237-1.275,0.239
		c-3.631,0.006-7.262,0.02-10.893-0.008c-0.941-0.007-1.78,0.204-2.632,0.606c-4.756,2.247-9.649,4.08-14.934,4.648
		c-0.497,0.054-0.993,0.081-1.492,0.081c-7.956,0-15.91,0-23.864-0.001c-0.416,0-0.832,0.014-1.245-0.055
		c-1.442-0.237-2.481-1.469-2.46-2.911c0.022-1.411,1.057-2.593,2.472-2.817c0.413-0.066,0.829-0.051,1.245-0.051
		c4.129-0.001,8.26,0.001,12.389-0.002c1.068-0.001,1.574-0.847,1.106-1.822c-0.098-0.202-0.26-0.274-0.458-0.303
		c-0.303-0.042-0.609-0.026-0.914-0.026c-5.377,0-10.755-0.024-16.132,0.015c-1.695,0.012-2.997-0.478-3.626-2.16
		c-0.196-0.524-0.699-0.474-1.085-0.648c-0.543-0.516-0.197-1.063-0.026-1.582c0.18-0.548,0.445-1.059,0.998-1.344
		c0.458-0.152,0.933-0.105,1.402-0.105c6.211-0.004,12.422-0.002,18.634-0.003c1.219,0,1.591-0.524,1.25-1.715
		c-0.083-0.291-0.261-0.403-0.532-0.431c-0.276-0.026-0.555-0.018-0.831-0.018c-6.294,0-12.589,0-18.884-0.002
		c-0.415,0-0.832,0.016-1.245-0.058c-1.409-0.25-2.422-1.454-2.416-2.867c0.007-1.415,1.031-2.607,2.441-2.845
		c0.412-0.069,0.829-0.055,1.245-0.055c6.35,0,12.7,0.002,19.05,0c1.109,0,1.568-0.733,1.151-1.795
		c-0.1-0.254-0.285-0.32-0.513-0.349c-0.303-0.034-0.608-0.019-0.914-0.019c-5.907-0.001-11.813-0.005-17.719,0.001
		c-0.912,0.001-1.771-0.118-2.466-0.784c-0.86-0.824-1.159-1.823-0.815-2.958c0.343-1.133,1.143-1.807,2.308-2.028
		c0.438-0.084,0.884-0.057,1.328-0.057c8.651,0,17.303,0,25.954,0c0.36,0,0.723,0.014,1.081-0.027
		c0.475-0.054,0.856-0.25,1.013-0.732c0.154-0.479-0.01-0.883-0.376-1.192c-0.677-0.574-1.378-1.119-2.09-1.646
		c-1.628-1.204-3.22-2.455-4.837-3.671c-0.355-0.268-0.702-0.546-0.982-0.894c-0.676-0.84-0.76-1.779-0.326-2.733
		c0.447-0.984,1.277-1.419,2.349-1.401c0.309,0.006,0.608,0.063,0.892,0.179c3.749,1.528,7.551,2.934,11.201,4.687
		c3.763,1.808,7.261,4.054,10.508,6.68c0.695,0.561,1.418,0.771,2.289,0.766c4.133-0.026,8.265-0.016,12.396-0.01
		C81.552,50.252,82.014,50.167,82.395,50.485z"/>
	<path fill="#FCB582" d="M82.391,29.189c0,6.218,0,12.437,0,18.655c-0.301,0.271-0.673,0.226-1.029,0.226
		c-4.078,0.004-8.155-0.002-12.23,0.008c-0.64,0.002-1.189-0.16-1.692-0.562c-5.013-3.997-10.587-6.987-16.568-9.247
		c-0.465-0.176-0.934-0.352-1.382-0.57c-0.211-0.103-0.561-0.179-0.485-0.471c0.065-0.253,0.402-0.247,0.651-0.265
		c0.36-0.026,0.721-0.03,1.081-0.011c0.615,0.033,0.864-0.255,0.819-0.849c-0.011-0.138-0.012-0.278,0.001-0.416
		c0.064-0.67-0.214-0.955-0.906-0.936c-1.191,0.033-2.385,0.009-3.577,0.009c-2.302,0-4.604-0.01-6.905,0.009
		c-0.403,0.003-0.932-0.189-1.095,0.452c-0.199,0.785-0.002,1.513,0.565,1.768c0.476,0.213,0.36,0.486,0.174,0.79
		c-0.455,0.749-0.721,1.542-0.766,2.43c-0.085,1.724,0.607,3.077,1.933,4.114c1.178,0.925,2.381,1.817,3.562,2.738
		c0.246,0.191,0.672,0.38,0.529,0.743c-0.131,0.343-0.574,0.262-0.896,0.264c-2.219,0.012-4.438,0.008-6.655,0.002
		c-0.304,0-0.614,0.008-0.884-0.176c-0.377-0.874-0.583-1.782-0.52-2.739c1.17-0.691,1.184-0.695,0.876-2.136
		c-0.968-4.539-1.879-9.089-2.845-13.627c-0.104-0.492-0.377-1.007-0.015-1.515c0.72-0.004,1.439-0.009,2.159-0.013
		c0.213,1.142,1.025,1.13,1.955,1.125c6.433-0.03,12.868-0.017,19.301-0.015c1.321,0.001,1.331,0.014,1.795,1.252
		c1.411,3.777,3.652,6.903,7.194,8.958c1.895,1.1,3.964,1.701,6.171,1.777c0.746,0.026,1.486,0.102,2.237,0.009
		c0.438-0.054,0.68-0.178,0.61-0.661c-0.036-0.247-0.024-0.498-0.036-0.747c-0.029-0.585-0.31-0.818-0.913-0.791
		c-5.535,0.259-9.519-2.184-12.125-7.004c-0.65-1.2-1.169-2.455-1.512-3.774c-0.148-0.574-0.449-0.989-0.943-1.306
		c-3.059-1.959-6.082-3.972-9.136-5.938c-0.326-0.21-0.661-0.409-0.945-0.676c-0.857-0.808-1.069-1.929-0.563-2.962
		c0.498-1.015,1.654-1.592,2.777-1.388c0.163,0.029,0.325,0.072,0.479,0.134c4.062,1.64,8.166,3.178,12.195,4.895
		c4.52,1.927,8.615,4.565,12.443,7.624c0.534,0.425,1.081,0.627,1.752,0.605c0.832-0.028,1.664-0.012,2.495-0.004
		C81.829,28.979,82.141,28.958,82.391,29.189z"/>
	<path fill="#4DB5E3" d="M36.189,45.222c0.174,0.861,0.347,1.724,0.52,2.586c-0.357,0.382-0.828,0.256-1.255,0.258
		c-4.738,0.01-9.479-0.012-14.217,0.012c-3.03,0.014-5.326,2.462-5.146,5.433c0.05,0.821,0.307,1.583,0.744,2.268
		c0.364,0.57,0.295,0.982-0.218,1.439c-1.501,1.331-2.186,3.003-1.739,4.995c0.459,2.045,1.779,3.326,3.798,3.895
		c0.288,0.081,0.606,0.113,0.803,0.389c-0.574,0.779-0.983,1.62-0.969,2.614c-0.03,0.049-0.063,0.101-0.112,0.118
		c-1.115,0.404-1.133,0.451-0.701,1.625c0.6,1.626,1.768,2.643,3.393,3.175c0.931,0.308,0.987,0.403,0.648,1.295
		c-0.644,1.697-0.321,3.263,0.61,4.759c0.201,0.321,0.533,0.58,0.536,1.008c-5.156,0.01-10.312,0.014-15.468,0.039
		c-0.622,0.006-0.569-0.267-0.477-0.717c1.544-7.532,3.074-15.068,4.608-22.603c0.026-0.256-0.108-0.497-0.072-0.755
		c0.037-0.394,0.042-0.805,0.402-1.08c0.384-1.82,0.767-3.641,1.151-5.461c0.04-0.04,0.079-0.091,0.129-0.101
		c1.192-0.245,1.192-0.243,1.432-1.44c1.95-9.735,3.895-19.47,5.841-29.205c0.291-1.454,0.295-1.458,1.784-1.46
		c2.052-0.002,4.105-0.006,6.156,0.001c1.167,0.004,1.241,0.07,1.481,1.218c1.685,8.005,3.349,16.015,5.006,24.025
		c0.063,0.298,0.153,0.593,0.196,0.893C35.153,45.136,35.811,44.966,36.189,45.222z"/>
	<path d="M19.48,66.495c-3.173-0.568-5.059-2.662-4.955-5.552c0.058-1.607,0.721-2.957,2.002-3.932
		c0.468-0.355,0.448-0.562,0.158-1.025c-1.083-1.734-1.161-3.558-0.183-5.356c0.995-1.831,2.598-2.774,4.674-2.784
		c4.873-0.027,9.745-0.01,14.618-0.012c0.304,0,0.608-0.017,0.912-0.025c2.744,0,5.487,0,8.416,0
		c-0.746-0.577-1.379-1.069-2.016-1.557c-0.746-0.573-1.5-1.14-2.245-1.716c-2.315-1.79-2.768-4.533-1.156-6.997
		c0.057-0.086,0.107-0.176,0.228-0.37c-1.207,0.282-1.103-0.443-1.092-1.158c0.024-1.486,0.008-1.487,1.46-1.487
		c3.576,0,7.152,0.017,10.729-0.016c0.619-0.005,0.787,0.141,0.775,0.769c-0.037,1.905-0.006,1.906-1.946,1.91
		c-0.221,0-0.442,0-0.71,0.125c0.608,0.248,1.216,0.507,1.83,0.742c6.118,2.331,11.824,5.399,16.923,9.533
		c0.324,0.263,0.654,0.248,1.009,0.248c4.491,0.004,8.981,0.006,13.474,0.01c0.001,0.881,0.003,1.761,0.004,2.642
		c-4.797,0.006-9.593,0.006-14.391,0.017c-0.47,0.002-0.878-0.117-1.229-0.414c-5.475-4.605-11.778-7.716-18.413-10.232
		c-1.164-0.441-2.306-0.936-3.46-1.397c-1.371-0.549-2.559-0.216-3.178,0.88c-0.623,1.101-0.305,2.275,0.886,3.186
		c2.288,1.751,4.582,3.498,6.88,5.235c0.625,0.474,1.204,0.959,0.881,1.852c-0.305,0.835-1.012,0.893-1.777,0.893
		c-9.066-0.01-18.133-0.01-27.2-0.004c-2.088,0.002-3.418,1.811-2.698,3.639c0.419,1.063,1.399,1.684,2.708,1.685
		c5.545,0.003,11.091,0.001,16.637,0.001c0.444,0,0.888-0.021,1.331,0.005c0.573,0.031,1.491-0.253,1.644,0.111
		c0.276,0.662,0.107,1.51,0.125,2.281c0.004,0.227-0.14,0.268-0.324,0.264c-0.194-0.002-0.388,0.002-0.582,0.002
		c-6.738,0-13.476-0.006-20.213,0.004c-2.069,0.003-3.417,1.874-2.633,3.672c0.507,1.163,1.46,1.658,2.727,1.656
		c6.655-0.013,13.309,0.008,19.964-0.024c0.827-0.006,1.134,0.143,1.088,1.047c-0.084,1.632-0.023,1.634-1.641,1.636
		C32.843,66.48,26.161,66.487,19.48,66.495z"/>
	<path d="M36.189,45.222c-0.163,0.03-0.332,0.04-0.487,0.093c-0.576,0.2-0.754-0.075-0.863-0.601
		c-1.605-7.78-3.225-15.557-4.846-23.333c-0.19-0.918-0.124-2.119-0.687-2.664c-0.581-0.563-1.792-0.147-2.728-0.162
		c-1.664-0.025-3.328,0.013-4.992-0.019c-0.516-0.01-0.689,0.137-0.792,0.663c-2.02,10.181-4.064,20.357-6.107,30.536
		c-0.242,1.201-0.094,1.036-1.25,0.807c-0.134-0.025-0.274-0.021-0.411-0.028c-1.129-0.348-1.125-0.348-0.882-1.562
		c2.099-10.498,4.196-20.997,6.292-31.497c0.3-1.501-1.007-2.894-2.743-2.899c-4.076-0.009-8.151-0.021-12.225,0.013
		c-0.711,0.005-1.059-0.11-0.951-0.914c0.077-0.573,0.021-1.162,0.023-1.744c0.285-0.296,0.659-0.261,1.014-0.262
		c4.133-0.004,8.267-0.057,12.397,0.021c2.076,0.039,3.756,0.977,4.714,2.889c0.405,0.808,0.914,1.129,1.814,1.098
		c1.745-0.06,3.494-0.009,5.241-0.021c0.997-0.006,1.105-0.162,0.87-1.151c-1.222-5.166-5.995-8.98-11.308-9.004
		C12.793,5.462,8.3,5.481,3.808,5.474C3.374,5.473,2.909,5.568,2.543,5.213C2.541,4.521,2.552,3.828,2.528,3.136
		c-0.015-0.391,0.042-0.58,0.523-0.578c4.985,0.025,9.975-0.102,14.956,0.057c7.312,0.234,13.396,6.409,13.806,13.744
		c0.126,2.272,0.838,4.447,1.257,6.671c0.306,1.624,0.704,3.23,1.061,4.844c0.509,2.548,1.011,5.096,1.532,7.641
		c0.566,2.763,1.146,5.523,1.727,8.284c0.228,1.077,0.236,1.075-0.796,1.325C36.458,45.156,36.324,45.189,36.189,45.222z"/>
	<path d="M82.391,29.189c-1.25,0.003-2.495-0.002-3.743,0.013c-0.435,0.005-0.822-0.092-1.156-0.373
		c-5.779-4.874-12.482-8.046-19.517-10.617c-1.766-0.645-3.497-1.385-5.25-2.066c-1.353-0.525-2.55-0.127-3.126,1.011
		c-0.589,1.16-0.224,2.318,1.013,3.131c3.059,2.004,6.106,4.022,9.192,5.983c0.806,0.513,1.227,1.143,1.502,2.054
		c1.108,3.693,3.05,6.815,6.503,8.783c2.188,1.246,4.574,1.641,7.055,1.439c0.639-0.052,0.849,0.142,0.847,0.725
		c0,0.249,0.035,0.498,0.055,0.747c0.085,1.162,0.085,1.162-1.047,1.226c-6.67,0.376-12.234-3.204-15.097-9.719
		c-0.224-0.506-0.49-1.011-0.597-1.544c-0.144-0.703-0.523-0.8-1.16-0.798c-6.82,0.023-13.642,0.015-20.463,0.015
		c-1.045,0-1.045,0-1.112-1.335c0.068-1.328,0.068-1.328,1.44-1.328c5.766,0,11.53,0,17.312,0c0.014-0.314-0.264-0.337-0.417-0.438
		c-1.895-1.249-3.811-2.467-5.695-3.732c-1.959-1.315-2.721-3.583-1.987-5.755c0.723-2.137,2.717-3.496,4.988-3.373
		c0.411,0.021,0.841,0.077,1.218,0.229c4.893,1.974,9.893,3.69,14.658,5.973c3.707,1.774,7.158,3.981,10.367,6.55
		c0.511,0.408,1.008,0.644,1.652,0.548c0.026-0.004,0.055-0.002,0.083,0c0.819,0.055,1.979-0.362,2.37,0.159
		C82.691,27.242,82.384,28.334,82.391,29.189z"/>
	<path d="M22.884,81.087c-1.69-1.837-2.232-3.901-1.176-6.246c0.246-0.544-0.157-0.46-0.41-0.528
		c-2.143-0.576-3.488-1.934-3.994-4.099c-0.247-1.058-0.234-1.06,0.875-1.077c0.111-0.002,0.22-0.02,0.331-0.027
		c0.11,0.01,0.224,0.04,0.33,0.023c0.646-0.099,0.998,0.034,1.17,0.803c0.267,1.206,1.34,1.859,2.715,1.861
		c5.546,0.004,11.093,0.002,16.64,0.002c1.777,0,1.746,0,1.792,1.813c0.018,0.669-0.123,0.877-0.84,0.869
		c-4.576-0.036-9.151-0.025-13.728-0.016c-1.471,0.004-2.601,1.007-2.745,2.374c-0.138,1.314,0.711,2.534,2.021,2.86
		c0.317,0.079,0.659,0.083,0.989,0.085c7.932,0.004,15.863,0.016,23.793-0.002c4.597-0.012,8.887-1.383,13.102-3.05
		c0.951-0.374,1.922-0.73,2.809-1.232c1.551-0.879,3.175-1.108,4.936-1.063c3.632,0.086,7.266,0.032,10.898,0.038
		c-0.009,0.854,0.308,1.979-0.117,2.488c-0.44,0.525-1.608,0.149-2.457,0.155c-3.133,0.016-6.267,0.017-9.396-0.004
		c-0.682-0.004-1.287,0.134-1.904,0.429c-4.229,2.023-8.587,3.672-13.229,4.479c-1.614,0.281-3.235,0.432-4.876,0.432
		c-7.708-0.01-15.416-0.024-23.123,0.013C25.644,82.474,24.174,82.124,22.884,81.087z"/>
	<path fill="#DEDEDC" d="M2.543,5.213c4.851,0.006,9.702,0.006,14.552,0.022c5.799,0.02,10.618,3.944,11.832,9.622
		c0.219,1.027,0.219,1.027-0.838,1.028c-2.161,0-4.324-0.01-6.485,0.007c-0.411,0.003-0.615-0.089-0.782-0.513
		c-0.887-2.252-2.722-3.484-5.141-3.485c-4.379-0.003-8.759,0.011-13.139,0.018C2.543,9.678,2.543,7.445,2.543,5.213z"/>
	<path d="M38.463,23.869c-2.214-0.017-4-1.836-3.974-4.049c0.026-2.168,1.83-3.937,4.008-3.929c2.206,0.007,3.994,1.828,3.975,4.048
		C42.452,22.096,40.628,23.885,38.463,23.869z"/>
	<path d="M11.877,55.974c-0.073,0.37-0.248,0.722-0.201,1.114c-0.087,0.194-0.072,0.438-0.277,0.576
		c-1.084,1.739-2.705,2.468-4.485,2.019c-1.713-0.432-2.941-1.891-3.041-3.611c-0.123-2.141,1.482-4.019,3.607-4.224
		c2.125-0.206,4.025,1.308,4.344,3.465C11.857,55.53,11.86,55.754,11.877,55.974z"/>
	<path fill="#98B8C7" d="M11.399,57.664c0.083-0.195,0.084-0.433,0.277-0.576c-0.003,0.247,0.085,0.51-0.128,0.719
		C11.498,57.76,11.449,57.711,11.399,57.664z"/>
	<path d="M51.817,61.153c2.203,0.013,3.988,1.838,3.965,4.057c-0.022,2.159-1.85,3.942-4.016,3.923
		c-2.213-0.021-3.995-1.847-3.964-4.059C47.83,62.908,49.641,61.142,51.817,61.153z"/>
	<path d="M22.768,41.693c-1.487-0.061-1.455-0.059-1.369-1.496c0.272-4.562,0.518-9.126,0.776-13.688
		c0.043-0.774,0.123-1.548,0.131-2.323c0.005-0.456,0.184-0.576,0.6-0.516c0.272,0.04,0.553,0.021,0.829,0.039
		c1.41,0.085,1.292-0.245,1.206,1.312c-0.254,4.646-0.519,9.292-0.782,13.937c-0.037,0.637-0.148,1.275-0.107,1.906
		c0.048,0.766-0.251,0.987-0.952,0.833C22.994,41.673,22.879,41.693,22.768,41.693z"/>
	<path d="M28.322,30.701c0.927-0.401,1.045,0.161,1.107,0.978c0.32,4.281,0.678,8.559,1.04,12.837
		c0.038,0.437-0.105,0.567-0.523,0.622c-2.172,0.279-2.133,0.287-2.288-1.897c-0.269-3.758-0.58-7.511-0.896-11.265
		c-0.103-1.215-0.134-1.213,1.074-1.273C27.972,30.696,28.111,30.701,28.322,30.701z"/>
	<path fill="#4CB3E1" d="M38.473,21.205c-0.719-0.006-1.312-0.593-1.32-1.313c-0.01-0.751,0.624-1.369,1.374-1.342
		c0.717,0.026,1.295,0.638,1.279,1.354C39.791,20.623,39.19,21.21,38.473,21.205z"/>
	<path fill="#4CB3E1" d="M7.858,54.493c0.72,0.002,1.317,0.592,1.327,1.309c0.01,0.75-0.621,1.372-1.371,1.347
		c-0.717-0.022-1.296-0.63-1.284-1.349C6.542,55.081,7.14,54.493,7.858,54.493z"/>
	<path fill="#4CB3E1" d="M53.118,65.155c-0.008,0.72-0.604,1.313-1.319,1.314c-0.752,0.002-1.366-0.636-1.335-1.385
		c0.029-0.72,0.644-1.29,1.363-1.271C52.543,63.833,53.126,64.438,53.118,65.155z"/>
</g>
</svg>
