<?xml version="1.0" encoding="utf-8"?>
<!-- Generator: Adobe Illustrator 16.0.0, SVG Export Plug-In . SVG Version: 6.00 Build 0)  -->
<!DOCTYPE svg PUBLIC "-//W3C//DTD SVG 1.1//EN" "http://www.w3.org/Graphics/SVG/1.1/DTD/svg11.dtd">
<svg version="1.1" id="Layer_1" xmlns="http://www.w3.org/2000/svg" xmlns:xlink="http://www.w3.org/1999/xlink" x="0px" y="0px"
	 width="85px" height="85px" viewBox="0 0 85 85" enable-background="new 0 0 85 85" xml:space="preserve">
<g>
	<path fill="#F0575A" d="M47.115,24.012c-3.064-3.063-7.219-4.784-11.549-4.784c-4.332,0-8.486,1.72-11.549,4.784
		c-0.004,0.003-0.004,0.003-0.008,0.006c-6.379,6.379-6.379,16.727,0,23.108c4.418,4.415,9.453,9.451,13.869,13.869
		c3.066,3.062,7.219,4.783,11.549,4.783c4.332,0,8.486-1.721,11.551-4.783l0.006-0.007c6.381-6.381,6.381-16.727,0-23.107
		C56.566,33.461,51.531,28.43,47.115,24.012"/>
	<path fill="#508ECB" d="M54.053,30.948L30.941,54.057c0,0-3.199-3.2-6.936-6.938c-3.062-3.062-4.785-7.218-4.783-11.55
		c0-4.33,1.719-8.485,4.783-11.549l0.004-0.003c3.064-3.064,7.221-4.787,11.557-4.787c4.332,0,8.488,1.723,11.553,4.787
		C50.854,27.753,54.053,30.948,54.053,30.948"/>
	<path fill="#91D0AF" d="M7.113,59.402c5.1-5.102,13.381-5.102,18.482,0c5.102,5.104,5.102,13.384,0,18.482
		c-5.102,5.103-13.383,5.103-18.482,0C2.01,72.786,2.01,64.506,7.113,59.402"/>
	<path fill="#FDD339" d="M59.4,7.113c5.102-5.103,13.385-5.103,18.484,0c5.104,5.102,5.104,13.385,0,18.486
		c-5.102,5.102-13.385,5.102-18.484,0C54.299,20.498,54.299,12.214,59.4,7.113"/>
	<path fill="#010101" d="M16.354,82.5c-3.703,0-7.182-1.441-9.797-4.06C3.941,75.827,2.5,72.347,2.5,68.646
		c0-3.703,1.441-7.183,4.057-9.798c2.615-2.616,6.096-4.058,9.797-4.058c3.703,0,7.184,1.44,9.799,4.059
		c2.615,2.614,4.055,6.094,4.055,9.797c0,3.701-1.439,7.181-4.055,9.796l0,0l0,0C23.537,81.058,20.057,82.5,16.354,82.5z
		 M7.129,60.533c-1.977,2.241-3.057,5.094-3.057,8.112c0,3.281,1.277,6.365,3.596,8.685s5.402,3.598,8.686,3.598
		c3.02,0,5.871-1.08,8.113-3.059L7.129,60.533z M8.242,59.422l17.336,17.335c1.977-2.241,3.057-5.093,3.057-8.11
		c0-3.283-1.275-6.367-3.594-8.686c-2.32-2.32-5.404-3.599-8.688-3.599C13.334,56.362,10.484,57.443,8.242,59.422z M49.43,66.564
		c-4.568,0-8.867-1.779-12.105-5.014c-2.172-2.174-4.533-4.536-6.918-6.921c-0.006-0.006-0.012-0.013-0.02-0.021
		c-0.008-0.006-0.014-0.013-0.02-0.02c-2.334-2.335-4.691-4.69-6.912-6.91c-0.307-0.307-0.307-0.805,0-1.111
		c0.307-0.308,0.805-0.308,1.111-0.001c2.051,2.052,4.219,4.217,6.377,6.375l21.998-21.995c-2.178-2.178-4.346-4.345-6.383-6.382
		c-2.938-2.936-6.842-4.554-10.992-4.554l0,0c-4.152,0-8.057,1.617-10.992,4.554c-0.01,0.011-0.02,0.02-0.029,0.028
		c-2.291,2.301-3.787,5.205-4.318,8.398c-0.525,3.136-0.094,6.309,1.25,9.174c0.184,0.393,0.014,0.86-0.381,1.045
		c-0.393,0.185-0.859,0.015-1.045-0.378c-1.477-3.156-1.953-6.648-1.377-10.102c0.59-3.527,2.244-6.734,4.781-9.271
		c0.01-0.01,0.021-0.021,0.031-0.029c3.225-3.217,7.516-4.991,12.08-4.991l0,0c4.57,0,8.869,1.78,12.104,5.015
		c2.207,2.207,4.566,4.565,6.93,6.927c0.004,0.003,0.008,0.007,0.012,0.011s0.008,0.007,0.01,0.011
		c0.326,0.325,0.65,0.65,0.975,0.975c2.031,2.03,4.047,4.045,5.947,5.946c0.307,0.307,0.307,0.805,0,1.111
		c-0.307,0.308-0.805,0.308-1.111,0c-1.9-1.9-3.916-3.916-5.947-5.946c-0.143-0.143-0.285-0.285-0.43-0.429L32.057,54.055
		c2.201,2.201,4.371,4.373,6.381,6.385c2.939,2.937,6.846,4.554,10.994,4.554c4.15,0,8.057-1.617,10.992-4.555
		c2.312-2.312,3.812-5.224,4.35-8.429c0.521-3.137,0.09-6.311-1.252-9.176c-0.188-0.395-0.018-0.861,0.377-1.045
		c0.395-0.185,0.859-0.016,1.047,0.378c1.479,3.155,1.955,6.647,1.379,10.102c-0.59,3.529-2.242,6.737-4.781,9.276
		C58.301,64.785,54.002,66.564,49.43,66.564z M68.643,30.211c-3.703,0-7.182-1.441-9.797-4.057
		c-2.617-2.615-4.057-6.096-4.057-9.799c0-3.701,1.439-7.181,4.053-9.797c0.002-0.001,0.002-0.002,0.004-0.003
		c0,0,0-0.001,0.002-0.002C61.463,3.939,64.941,2.5,68.643,2.5c3.703,0,7.184,1.441,9.801,4.057c2.615,2.616,4.057,6.096,4.057,9.8
		c0,3.703-1.439,7.184-4.059,9.799c0.002,0,0.002,0,0.002,0c-0.002,0-0.002,0-0.002,0C75.826,28.77,72.346,30.211,68.643,30.211z
		 M59.418,8.242c-1.977,2.242-3.057,5.095-3.057,8.114c0,3.283,1.273,6.368,3.596,8.688c2.318,2.318,5.402,3.596,8.686,3.596
		c3.02,0,5.873-1.08,8.115-3.058L59.418,8.242z M60.529,7.13l17.34,17.34c1.977-2.242,3.059-5.094,3.059-8.114
		c0-3.283-1.277-6.369-3.598-8.688c-2.318-2.319-5.404-3.596-8.688-3.596C65.623,4.072,62.771,5.152,60.529,7.13z"/>
</g>
</svg>
