<?xml version="1.0" encoding="utf-8"?>
<!-- Generator: Adobe Illustrator 16.0.2, SVG Export Plug-In . SVG Version: 6.00 Build 0)  -->
<!DOCTYPE svg PUBLIC "-//W3C//DTD SVG 1.1 Tiny//EN" "http://www.w3.org/Graphics/SVG/1.1/DTD/svg11-tiny.dtd">
<svg version="1.1" baseProfile="tiny" id="Layer_1" xmlns="http://www.w3.org/2000/svg" xmlns:xlink="http://www.w3.org/1999/xlink"
	 x="0px" y="0px" width="85px" height="85px" viewBox="0 0 85 85" xml:space="preserve">
<g>
	<path fill-rule="evenodd" d="M43.79,43.136c2.039-2.328,4.255-4.083,6.84-5.357c0.309-0.152,0.485-0.242,0.164-0.609
		c-1.131-1.294-1.726-2.827-1.824-4.538c-0.02-0.351-0.13-0.424-0.462-0.458c-4.141-0.415-6.11-5.116-3.624-8.243
		c0.27-0.34,0.128-0.583,0.013-0.876c-2.302-5.869-0.935-12.15,3.644-16.457c2.769-2.605,6.091-3.979,9.893-4.03
		c2.167-0.029,4.351-0.238,6.501,0.263c2.802,0.654,4.969,2.209,6.522,4.615c0.31,0.483,0.655,0.894,1.122,1.226
		c3.237,2.306,4.774,5.456,4.75,9.428c-0.013,1.896-0.126,3.753-0.959,5.493c-0.142,0.298-0.001,0.494,0.135,0.73
		c1.96,3.413,0.06,7.317-3.835,7.841c-0.402,0.055-0.515,0.146-0.542,0.553c-0.108,1.621-0.654,3.1-1.723,4.329
		c-0.43,0.497-0.196,0.585,0.22,0.806c5.932,3.141,9.698,7.983,11.301,14.495c0.471,1.912,0.582,3.868,0.551,5.836
		c-0.026,1.611,0.001,3.224-0.008,4.835c-0.008,1.587-0.709,2.784-2.111,3.525c-0.363,0.191-0.492,0.388-0.475,0.79
		c0.039,0.911,0.021,1.822-0.24,2.713c-0.816,2.798-3.265,4.655-6.215,4.698c-1.271,0.019-1.271,0.019-1.271,1.31
		c0,1.88-0.021,3.76,0.013,5.639c0.011,0.588-0.089,0.806-0.759,0.806c-22.722-0.021-45.443-0.021-68.164-0.001
		c-0.629,0-0.727-0.183-0.726-0.757c0.019-8.701,0.017-17.403,0.004-26.105c-0.001-0.456,0.13-0.819,0.377-1.187
		c1.482-2.201,2.947-4.415,4.433-6.614c0.251-0.37,0.37-0.737,0.365-1.191c-0.021-1.799,0.007-3.599-0.015-5.398
		C7.669,40.023,8.082,39,8.946,38.138c2.853-2.844,5.702-5.693,8.546-8.546c0.861-0.864,1.882-1.27,3.106-1.266
		c6.365,0.012,12.73,0.002,19.096,0.008c2.458,0.002,4.088,1.629,4.094,4.083c0.009,3.411,0.002,6.821,0.002,10.233
		C43.79,42.745,43.79,42.842,43.79,43.136z"/>
	<path fill-rule="evenodd" fill="#E5E8EC" d="M41.212,44.998c0,4.161-0.007,8.322,0.011,12.483c0.002,0.477-0.125,0.77-0.54,1.041
		c-2.801,1.839-5.586,3.703-8.367,5.572c-0.348,0.233-0.691,0.347-1.116,0.345c-3.651-0.013-7.302-0.012-10.953-0.001
		c-0.394,0.001-0.714-0.098-1.042-0.318c-2.801-1.887-5.606-3.768-8.429-5.62c-0.389-0.257-0.519-0.519-0.518-0.969
		c0.015-5.208,0.02-10.417-0.005-15.625c-0.002-0.573,0.148-0.708,0.707-0.697c1.852,0.039,3.705,0.021,5.557,0.013
		c2.407-0.012,4.049-1.641,4.063-4.034c0.011-1.879,0.024-3.759-0.011-5.638c-0.01-0.538,0.152-0.653,0.666-0.652
		c6.121,0.018,12.242,0.01,18.363,0.013c1.154,0.001,1.61,0.454,1.612,1.603C41.214,36.676,41.212,40.837,41.212,44.998z"/>
	<path fill-rule="evenodd" fill="#D29F6C" d="M6.972,79.846c2.591-2.582,5.082-5.063,7.57-7.546c1.597-1.593,3.2-3.181,4.78-4.791
		c0.342-0.349,0.678-0.515,1.185-0.511c3.491,0.024,6.983,0.015,10.474,0.012c0.378-0.002,0.705,0.017,1.015,0.329
		c4.07,4.096,8.157,8.174,12.239,12.258c0.055,0.055,0.094,0.123,0.188,0.249C31.962,79.846,19.555,79.846,6.972,79.846z"/>
	<path fill-rule="evenodd" fill="#656D78" d="M60.672,5.124c1.097,0.031,2.338-0.099,3.556,0.18c1.587,0.362,2.931,1.138,4.08,2.294
		c0.475,0.476,0.556,0.705-0.144,1.051c-2.323,1.149-4.196,2.92-4.59,5.477c-0.396,2.578-2.021,3.895-3.891,5.152
		c-2.581,1.736-5.463,2.557-8.571,2.61c-1.15,0.02-2.314-0.146-3.444,0.183c-0.463,0.135-0.482-0.198-0.572-0.46
		c-1.368-4.013-0.873-7.81,1.574-11.248c2.464-3.46,5.91-5.191,10.178-5.239C59.41,5.118,59.974,5.124,60.672,5.124z"/>
	<path fill-rule="evenodd" fill="#EFCFB3" d="M69.575,27.667c0,1.502,0.015,3.005-0.003,4.507c-0.034,2.91-2.253,5.148-5.153,5.175
		c-2.575,0.025-5.15,0.024-7.727,0c-2.902-0.026-5.135-2.264-5.16-5.165c-0.021-2.361,0.003-4.722-0.013-7.084
		c-0.004-0.429,0.025-0.643,0.572-0.68c4.983-0.339,9.192-2.331,12.574-6.019c0.249-0.271,0.466-0.343,0.835-0.269
		c2.257,0.457,4.011,2.508,4.064,4.865c0.035,1.555,0.006,3.112,0.006,4.669C69.573,27.667,69.574,27.667,69.575,27.667z"/>
	<path fill-rule="evenodd" fill="#959EA9" d="M69.576,73.447c0,1.934-0.018,3.867,0.012,5.802c0.01,0.527-0.14,0.674-0.667,0.667
		c-2.148-0.03-4.297-0.025-6.445-0.003c-0.467,0.005-0.688-0.076-0.646-0.606c0.068-0.854-0.08-1.723,0.088-2.572
		c0.276-1.404,1.055-2.468,2.342-3.087c0.494-0.236,0.568-0.473,0.345-0.911c-0.072-0.142-0.105-0.303-0.156-0.456
		c-0.502-1.509-0.501-1.507-1.893-0.649c-0.646,0.399-1.227,0.879-1.688,1.479c-0.262,0.339-0.394,0.299-0.645-0.012
		c-0.702-0.871-1.592-1.503-2.618-1.958c-0.401-0.179-0.596-0.1-0.69,0.312c-0.029,0.131-0.076,0.257-0.117,0.385
		c-0.147,0.458-0.443,0.93-0.404,1.372c0.045,0.512,0.731,0.507,1.094,0.801c1.188,0.958,1.813,2.175,1.77,3.702
		c-0.021,0.715,0.317,1.665-0.153,2.073c-0.405,0.351-1.329,0.114-2.022,0.116c-2.472,0.006-4.943-0.013-7.415,0.014
		c-0.528,0.006-0.737-0.086-0.732-0.684c0.028-3.867,0.023-7.735,0.003-11.604c-0.002-0.493,0.124-0.629,0.624-0.628
		c6.473,0.018,12.947,0.019,19.42-0.001c0.529-0.002,0.61,0.183,0.605,0.646C69.564,69.578,69.576,71.513,69.576,73.447z"/>
	<path fill-rule="evenodd" fill="#FBD670" d="M63.135,64.433c0.818-1.092,1.53-2.061,2.264-3.011
		c0.241-0.313,0.382-0.613,0.311-1.026c-0.438-2.537-0.861-5.073-1.274-7.614c-0.029-0.182-0.236-0.308-0.054-0.7
		c1.17,1.146,2.3,2.251,3.528,3.454c0.729-5.084,1.438-10.022,2.16-15.052c2.744,1.535,4.898,3.544,6.577,6.057
		c2.128,3.182,3.201,6.701,3.239,10.527c0.02,1.932,0.01,3.865,0.003,5.798c-0.004,1.099-0.468,1.561-1.571,1.564
		c-1.852,0.008-3.704-0.018-5.557,0.015c-0.507,0.009-0.622-0.137-0.617-0.627c0.025-2.575-0.013-5.153,0.021-7.73
		c0.03-2.274,0.934-4.179,2.712-5.595c0.523-0.418,0.462-0.667,0.144-1.131c-1.114-1.63-1.105-1.646-2.497-0.242
		c-1.924,1.937-2.913,4.279-2.94,7.006c-0.024,2.55-0.019,5.102,0.005,7.65c0.006,0.516-0.116,0.681-0.654,0.67
		C67.056,64.41,65.177,64.433,63.135,64.433z"/>
	<path fill-rule="evenodd" fill="#FBD670" d="M51.035,40.472c0.722,5.04,1.428,9.969,2.125,14.844
		c1.067-1.078,2.146-2.166,3.336-3.368c0.26,0.546,0.187,0.827,0.143,1.096c-0.4,2.379-0.798,4.756-1.216,7.132
		c-0.091,0.513,0.011,0.918,0.338,1.33c0.729,0.915,1.415,1.865,2.211,2.927c-0.638,0-1.135,0-1.632,0
		c-2.146,0-4.295-0.053-6.439,0.025c-0.858,0.03-0.984-0.254-0.971-1.018c0.047-2.575,0.008-5.152,0.028-7.729
		c0.003-0.479-0.112-0.873-0.379-1.268c-1.454-2.154-2.881-4.329-4.342-6.479c-0.264-0.388-0.283-0.647-0.021-1.056
		C45.933,44.243,48.151,42.123,51.035,40.472z"/>
	<path fill-rule="evenodd" fill="#DEB18A" d="M5.165,57.853c0.596,0.397,1.125,0.749,1.654,1.102
		c3.302,2.201,6.602,4.405,9.91,6.597c0.365,0.242,0.567,0.367,0.134,0.795c-3.833,3.798-7.64,7.62-11.455,11.434
		c-0.053,0.053-0.122,0.09-0.243,0.178C5.165,71.269,5.165,64.631,5.165,57.853z"/>
	<path fill-rule="evenodd" fill="#DEB18A" d="M46.336,57.844c0,6.764,0,13.401,0,19.954c-3.962-3.965-7.951-7.956-11.969-11.976
		C38.25,63.234,42.236,60.576,46.336,57.844z"/>
	<path fill-rule="evenodd" fill="#656D78" d="M74.724,18.451c0.061,1.097-0.031,2.186-0.366,3.249
		c-0.121,0.385-0.26,0.464-0.73,0.431c-1.194-0.084-1.676-0.634-2.066-1.772c-0.817-2.37-2.599-3.897-5.021-4.595
		c-0.602-0.173-0.747-0.375-0.551-0.995c0.684-2.151,2.21-3.415,4.215-4.238c0.382-0.156,0.607,0.033,0.869,0.22
		C73.718,12.636,74.916,15.21,74.724,18.451z"/>
	<path fill-rule="evenodd" fill="#5CD5B2" d="M63.007,60.055c-0.01,0.047,0.008,0.205-0.063,0.301
		c-0.729,0.995-1.469,1.979-2.209,2.967c-0.186,0.248-0.309,0.084-0.428-0.075c-0.689-0.923-1.37-1.853-2.07-2.768
		c-0.234-0.305-0.131-0.622-0.08-0.926c0.565-3.406,1.144-6.811,1.717-10.216c0.014-0.08,0.021-0.16,0.03-0.24
		c0.045-0.388,0.314-0.735,0.618-0.747c0.373-0.015,0.611,0.358,0.679,0.764c0.244,1.451,0.489,2.902,0.733,4.355
		c0.34,2.032,0.68,4.065,1.019,6.1C62.976,59.701,62.983,59.835,63.007,60.055z"/>
	<path fill-rule="evenodd" fill="#FEC629" d="M67.651,39.115c-0.536,3.764-1.037,7.271-1.564,10.97
		c-1.336-1.336-2.555-2.555-3.773-3.774c-0.226-0.224-0.007-0.393,0.088-0.56c1.044-1.838,2.105-3.666,3.138-5.511
		C65.999,39.417,66.931,39.762,67.651,39.115z"/>
	<path fill-rule="evenodd" fill="#FEC629" d="M55.021,50.114c-0.53-3.702-1.031-7.209-1.543-10.792
		c1.091,0.255,1.999,0.493,2.536,1.64c0.77,1.642,1.77,3.175,2.671,4.755c0.13,0.225,0.306,0.412,0.023,0.689
		C57.513,47.585,56.338,48.786,55.021,50.114z"/>
	<path fill-rule="evenodd" fill="#EFCFB3" d="M74.804,67.012c0.482,0,0.963,0,1.445,0c1.074,0,1.074,0,1.063,1.11
		c-0.022,2.649-2.232,4.489-4.84,4.057c-0.309-0.052-0.318-0.195-0.318-0.424c0.003-1.444,0.014-2.889-0.007-4.332
		c-0.006-0.396,0.186-0.422,0.489-0.417C73.359,67.02,74.081,67.012,74.804,67.012z"/>
	<path fill-rule="evenodd" fill="#5CD5B2" d="M12.252,38.639c1.938-1.941,3.81-3.814,5.737-5.744c0,1.559,0.041,3.099-0.019,4.636
		c-0.026,0.656-0.518,1.082-1.187,1.097C15.289,38.664,13.793,38.639,12.252,38.639z"/>
	<path fill-rule="evenodd" fill="#EFCFB3" d="M48.948,27.089c0,0.696-0.024,1.394,0.009,2.088c0.022,0.454-0.18,0.47-0.529,0.397
		c-1.165-0.241-2.06-1.336-2.057-2.542c0.004-1.209,0.909-2.301,2.07-2.532c0.377-0.075,0.532-0.001,0.516,0.42
		C48.927,25.643,48.948,26.366,48.948,27.089z"/>
	<path fill-rule="evenodd" fill="#EFCFB3" d="M72.155,27.032c0-0.696,0.027-1.394-0.01-2.087c-0.024-0.487,0.179-0.519,0.57-0.427
		c1.17,0.273,2.037,1.367,2.017,2.573c-0.021,1.172-0.896,2.218-2.034,2.48c-0.42,0.096-0.576,0.01-0.553-0.451
		C72.183,28.426,72.155,27.729,72.155,27.032z"/>
	<path fill-rule="evenodd" fill="#EECEB3" d="M60.556,43.784c-0.759-1.328-1.44-2.519-2.169-3.792c1.455,0,2.823,0,4.321,0
		C62.008,41.226,61.323,42.432,60.556,43.784z"/>
	<path fill-rule="evenodd" fill="#CD9D75" d="M7.642,56.396c-0.625-0.415-1.15-0.779-1.691-1.117
		c-0.252-0.158-0.319-0.287-0.129-0.559c0.59-0.849,1.155-1.716,1.82-2.711C7.642,53.538,7.642,54.906,7.642,56.396z"/>
	<path fill-rule="evenodd" fill="#CD9D75" d="M43.812,56.424c0-1.508,0-2.87,0-4.465c0.714,1.076,1.324,1.99,1.93,2.909
		c0.172,0.262-0.088,0.314-0.222,0.407C44.994,55.638,44.46,55.988,43.812,56.424z"/>
	<path fill-rule="evenodd" d="M25.741,46.382c-4.055,0-8.109-0.014-12.164,0.016c-0.598,0.004-0.759-0.133-0.747-0.741
		c0.037-1.854,0.007-1.854,1.873-1.854c7.706,0,15.412,0.01,23.119-0.017c0.665-0.002,0.849,0.145,0.83,0.823
		c-0.052,1.771-0.016,1.772-1.795,1.772C33.152,46.382,29.446,46.382,25.741,46.382z"/>
	<path fill-rule="evenodd" d="M25.739,56.696c-4.055,0-8.109-0.015-12.164,0.016c-0.602,0.004-0.756-0.139-0.745-0.744
		c0.036-1.85,0.007-1.85,1.875-1.85c7.706,0,15.412,0.009,23.118-0.018c0.669-0.003,0.846,0.151,0.827,0.825
		c-0.051,1.77-0.015,1.771-1.796,1.771C33.15,56.696,29.444,56.696,25.739,56.696z"/>
	<path fill-rule="evenodd" d="M23.244,48.961c3.195,0,6.391,0.012,9.585-0.013c0.526-0.005,0.664,0.135,0.66,0.658
		c-0.01,1.932,0.011,1.933-1.954,1.933c-5.987,0-11.974-0.011-17.961,0.015c-0.603,0.002-0.755-0.14-0.743-0.742
		c0.036-1.851,0.007-1.851,1.875-1.851C17.553,48.961,20.399,48.961,23.244,48.961z"/>
	<path fill-rule="evenodd" d="M30.897,33.489c2.362,0,4.725,0.015,7.086-0.013c0.522-0.006,0.667,0.127,0.665,0.657
		c-0.011,1.934,0.01,1.935-1.951,1.935c-4.269,0-8.538-0.014-12.806,0.015c-0.597,0.004-0.759-0.132-0.747-0.74
		c0.037-1.854,0.007-1.854,1.873-1.854C26.977,33.489,28.938,33.489,30.897,33.489z"/>
	<path fill-rule="evenodd" d="M30.979,38.646c2.335,0,4.671,0.017,7.007-0.013c0.525-0.007,0.664,0.133,0.662,0.658
		c-0.011,1.932,0.01,1.933-1.953,1.933c-4.269,0-8.538-0.014-12.806,0.015c-0.602,0.004-0.756-0.139-0.745-0.743
		c0.036-1.851,0.007-1.851,1.875-1.851C27.006,38.646,28.993,38.646,30.979,38.646z"/>
	<path fill-rule="evenodd" d="M25.658,61.854c-2.336,0-4.671-0.018-7.006,0.012c-0.526,0.008-0.664-0.134-0.662-0.659
		c0.011-1.931-0.01-1.931,1.954-1.931c4.268,0,8.536,0.014,12.805-0.016c0.602-0.004,0.756,0.139,0.745,0.742
		c-0.037,1.851-0.008,1.852-1.875,1.852C29.632,61.854,27.645,61.854,25.658,61.854z"/>
	<path fill-rule="evenodd" d="M38.634,50.297c0,1.242,0,1.242-1.256,1.242c-1.323,0-1.323,0-1.323-1.338c0-1.24,0-1.24,1.256-1.24
		C38.634,48.961,38.634,48.961,38.634,50.297z"/>
	<path fill-rule="evenodd" d="M55.425,28.332c0.105,0,0.217,0.015,0.32-0.003c0.656-0.115,0.928,0.085,1.063,0.815
		c0.346,1.848,1.963,3.077,3.803,3.053c1.823-0.023,3.404-1.304,3.714-3.168c0.11-0.662,0.369-0.755,0.911-0.704
		c0.345,0.033,0.702,0.047,1.044-0.002c0.629-0.09,0.773,0.149,0.69,0.749c-0.449,3.261-3.132,5.682-6.358,5.705
		c-3.274,0.023-5.999-2.367-6.471-5.666c-0.073-0.515-0.066-0.911,0.641-0.784C54.989,28.363,55.21,28.332,55.425,28.332z"/>
</g>
</svg>
