<?xml version="1.0" encoding="utf-8"?>
<!-- Generator: Adobe Illustrator 16.0.2, SVG Export Plug-In . SVG Version: 6.00 Build 0)  -->
<!DOCTYPE svg PUBLIC "-//W3C//DTD SVG 1.1//EN" "http://www.w3.org/Graphics/SVG/1.1/DTD/svg11.dtd">
<svg version="1.1" id="Layer_1" xmlns="http://www.w3.org/2000/svg" xmlns:xlink="http://www.w3.org/1999/xlink" x="0px" y="0px"
	 width="85px" height="85px" viewBox="0 0 85 85" enable-background="new 0 0 85 85" xml:space="preserve">
<g>
	<path fill="#77B8E8" d="M79.985,73.127c0,3.113-2.546,5.66-5.657,5.66H62.982c-3.113,0-5.66-2.547-5.66-5.66v-38.4
		c0-3.112,2.546-5.659,5.66-5.659h11.346c3.111,0,5.657,2.547,5.657,5.659V73.127L79.985,73.127z"/>
	<path fill="#009BDE" d="M72.365,29.067H9.431c-3.113,0-5.66,2.547-5.66,5.66v38.4c0,3.111,2.547,5.66,5.66,5.66h62.935
		c3.113,0,5.658-2.549,5.658-5.66v-38.4C78.023,31.614,75.479,29.067,72.365,29.067z"/>
	<rect x="11.589" y="40.833" fill="#FFFFFF" width="22.122" height="23.472"/>
	<g>
		<path fill="#3E4A57" d="M28.07,50.059c0-2.992-2.426-5.418-5.419-5.418c-2.993,0-5.419,2.426-5.419,5.418
			c0,2.994,2.426,5.422,5.419,5.422C25.645,55.48,28.07,53.053,28.07,50.059z"/>
		<path fill="#3E4A57" d="M22.651,57.41c-4.587,0-8.504,2.859-10.07,6.895h20.141C31.155,60.27,27.239,57.41,22.651,57.41z"/>
	</g>
	<g>
		<rect x="38.919" y="40.833" fill="#333E48" width="33.112" height="3.808"/>
		<rect x="38.919" y="48.762" fill="#333E48" width="33.112" height="3.807"/>
	</g>
	<rect x="35.088" y="18.19" fill="#F6C65B" width="11.619" height="14.794"/>
	<path fill="#333E48" d="M39.988,23.508c-4.777,0-8.647-3.872-8.647-8.647s3.871-8.648,8.647-8.648h1.819
		c4.777,0,8.648,3.873,8.648,8.648s-3.871,8.647-8.648,8.647H39.988z"/>
	<path fill="#3E4A57" d="M48.636,14.86c0-4.775-3.872-8.648-8.647-8.648c-4.777,0-8.647,3.873-8.647,8.648s3.871,8.647,8.647,8.647
		C44.764,23.508,48.636,19.636,48.636,14.86z"/>
	<path fill="#A4A9AD" d="M44.811,14.86c0-2.664-2.159-4.823-4.822-4.823c-2.664,0-4.824,2.159-4.824,4.823
		c0,2.664,2.16,4.822,4.824,4.822C42.651,19.682,44.811,17.523,44.811,14.86z"/>
	<rect x="57.322" y="60.184" fill="#FFFFFF" width="14.707" height="4.121"/>
	<path d="M39.988,20.954c3.359,0,6.092-2.734,6.092-6.094c0-3.36-2.732-6.093-6.092-6.093c-3.36,0-6.094,2.733-6.094,6.093
		C33.894,18.22,36.628,20.954,39.988,20.954z M39.988,11.308c1.958,0,3.551,1.593,3.551,3.552c0,1.958-1.593,3.552-3.551,3.552
		c-1.959,0-3.552-1.593-3.552-3.552C36.437,12.901,38.029,11.308,39.988,11.308z M75.57,27.796H47.979v-4.367
		c2.947-1.721,4.934-4.917,4.934-8.569c0-5.469-4.448-9.918-9.918-9.918h-3.006c-5.469,0-9.918,4.449-9.918,9.918
		c0,3.138,1.466,5.938,3.748,7.757v5.179H9.431c-3.821,0-6.931,3.109-6.931,6.931v38.4c0,3.822,3.109,6.932,6.931,6.932h66.14
		c3.821,0,6.93-3.109,6.93-6.932v-38.4C82.5,30.905,79.392,27.796,75.57,27.796z M48.803,10.322c0.98,1.253,1.566,2.828,1.566,4.538
		s-0.586,3.286-1.566,4.539c0.703-1.361,1.104-2.904,1.104-4.539S49.506,11.683,48.803,10.322z M32.612,14.86
		c0-4.068,3.309-7.376,7.376-7.376c4.066,0,7.375,3.308,7.375,7.376c0,4.067-3.309,7.376-7.375,7.376
		C35.92,22.236,32.612,18.927,32.612,14.86z M45.436,24.474v7.241h-9.076v-7.626c1.125,0.444,2.348,0.689,3.628,0.689h3.005
		C43.836,24.778,44.654,24.672,45.436,24.474z M76.754,73.127c0,2.42-1.969,4.389-4.389,4.389H9.431
		c-2.42,0-4.389-1.969-4.389-4.389v-38.4c0-2.419,1.968-4.389,4.389-4.389h24.387v2.647c0,0.702,0.569,1.271,1.271,1.271h11.618
		c0.701,0,1.271-0.568,1.271-1.271v-2.647h24.387c2.42,0,4.389,1.969,4.389,4.389V73.127L76.754,73.127z M79.958,73.127
		c0,1.314-0.581,2.494-1.499,3.299c0.533-0.98,0.837-2.104,0.837-3.299v-38.4c0-1.193-0.304-2.317-0.837-3.299
		c0.918,0.805,1.499,1.985,1.499,3.299V73.127z M72.03,58.914H57.322c-0.703,0-1.271,0.566-1.271,1.27v4.121
		c0,0.703,0.567,1.27,1.271,1.27H72.03c0.701,0,1.271-0.566,1.271-1.27v-4.121C73.302,59.48,72.732,58.914,72.03,58.914z
		 M70.759,63.033H58.593v-1.578h12.166V63.033L70.759,63.033z M72.03,47.49H38.919c-0.702,0-1.271,0.568-1.271,1.271v3.807
		c0,0.701,0.568,1.271,1.271,1.271H72.03c0.702,0,1.271-0.57,1.271-1.271v-3.807C73.302,48.059,72.732,47.49,72.03,47.49z
		 M70.759,51.297H40.19v-1.266h30.569V51.297z M33.712,39.561H11.589c-0.702,0-1.271,0.569-1.271,1.271v23.472
		c0,0.703,0.569,1.27,1.271,1.27h22.123c0.702,0,1.271-0.566,1.271-1.27V40.833C34.983,40.13,34.414,39.561,33.712,39.561z
		 M32.441,63.033H12.861v-20.93h19.581V63.033z M72.03,39.561H38.919c-0.702,0-1.271,0.569-1.271,1.271v3.808
		c0,0.701,0.568,1.271,1.271,1.271H72.03c0.702,0,1.271-0.57,1.271-1.271v-3.808C73.302,40.13,72.732,39.561,72.03,39.561z
		 M70.759,43.369H40.19v-1.267h30.569V43.369z"/>
</g>
</svg>
