<?xml version="1.0" encoding="utf-8"?>
<!-- Generator: Adobe Illustrator 16.0.0, SVG Export Plug-In . SVG Version: 6.00 Build 0)  -->
<!DOCTYPE svg PUBLIC "-//W3C//DTD SVG 1.1//EN" "http://www.w3.org/Graphics/SVG/1.1/DTD/svg11.dtd">
<svg version="1.1" id="Capa_1" xmlns="http://www.w3.org/2000/svg" xmlns:xlink="http://www.w3.org/1999/xlink" x="0px" y="0px"
	 width="85px" height="85px" viewBox="0 0 85 85" enable-background="new 0 0 85 85" xml:space="preserve">
<g>
	<g>
		<polygon points="30.338,37.328 30.338,75.199 24.122,75.199 24.122,82.5 47.605,82.5 47.605,75.199 41.389,75.199 41.389,37.328 
					"/>
		<path d="M41.389,16.949v-5.262h2.072c2.289,0,4.145-2.057,4.145-4.594S45.75,2.5,43.461,2.5H28.266
			c-2.289,0-4.145,2.057-4.145,4.594c0,2.539,1.855,4.594,4.145,4.594h2.072v5.262H41.389z"/>
		<polygon points="49.553,19.23 41.389,19.23 30.338,19.23 11.833,19.23 11.833,35.047 30.338,35.047 41.389,35.047 49.553,35.047 
			49.553,39.803 73.166,26.682 49.553,13.562 		"/>
	</g>
</g>
</svg>
