<?xml version="1.0" encoding="utf-8"?>
<!-- Generator: Adobe Illustrator 16.0.0, SVG Export Plug-In . SVG Version: 6.00 Build 0)  -->
<!DOCTYPE svg PUBLIC "-//W3C//DTD SVG 1.1//EN" "http://www.w3.org/Graphics/SVG/1.1/DTD/svg11.dtd">
<svg version="1.1" id="Layer_1" xmlns="http://www.w3.org/2000/svg" xmlns:xlink="http://www.w3.org/1999/xlink" x="0px" y="0px"
	 width="85px" height="85px" viewBox="0 0 85 85" enable-background="new 0 0 85 85" xml:space="preserve">
<g>
	<g enable-background="new    ">
		<path fill="#FFF200" d="M3.019,55.242l6.829-0.911c0.789,3.876,2.121,6.663,4.009,8.373s4.186,2.564,6.884,2.564
			c3.209,0,5.93-1.11,8.139-3.342c2.21-2.221,3.32-4.986,3.32-8.272c0-3.143-1.021-5.729-3.076-7.762s-4.653-3.054-7.817-3.054
			c-1.288,0-2.898,0.255-4.819,0.755l0.755-5.996c0.455,0.056,0.822,0.078,1.099,0.078c2.909,0,5.53-0.755,7.862-2.276
			c2.332-1.521,3.487-3.853,3.487-7.018c0-2.51-0.844-4.575-2.543-6.229c-1.699-1.644-3.887-2.465-6.562-2.465
			c-2.654,0-4.875,0.833-6.64,2.51c-1.777,1.666-2.909,4.175-3.42,7.518l-6.829-1.21c0.833-4.575,2.731-8.128,5.696-10.649
			s6.64-3.775,11.048-3.775c3.032,0,5.83,0.655,8.384,1.955c2.554,1.299,4.508,3.076,5.863,5.33
			c1.355,2.254,2.032,4.642,2.032,7.173c0,2.41-0.644,4.597-1.932,6.562s-3.198,3.542-5.73,4.708
			c3.287,0.755,5.841,2.332,7.662,4.73c1.821,2.399,2.732,5.386,2.732,8.973c0,4.863-1.777,8.972-5.319,12.358
			c-3.542,3.376-8.017,5.063-13.436,5.063c-4.886,0-8.938-1.454-12.159-4.363C5.317,63.647,3.474,59.872,3.019,55.242z"/>
	</g>
	<g enable-background="new    ">
		<path d="M20.696,71.408c-4.984,0-9.183-1.51-12.478-4.487c-3.3-2.992-5.209-6.906-5.673-11.632L2.5,54.831l7.725-1.03l0.088,0.436
			c0.764,3.755,2.063,6.485,3.862,8.115c1.789,1.62,3.998,2.441,6.565,2.441c3.074,0,5.698-1.077,7.801-3.201
			c2.112-2.122,3.183-4.793,3.183-7.938c0-3-0.988-5.497-2.935-7.424c-1.984-1.962-4.432-2.916-7.483-2.916
			c-1.231,0-2.812,0.249-4.699,0.74l-0.68,0.176l0.902-7.163l0.471,0.058c0.398,0.049,0.758,0.074,1.042,0.074
			c2.808,0,5.365-0.74,7.602-2.199c2.201-1.436,3.271-3.601,3.271-6.619c0-2.391-0.785-4.316-2.399-5.889
			c-1.598-1.546-3.695-2.33-6.23-2.33c-2.527,0-4.65,0.8-6.312,2.378c-1.682,1.577-2.784,4.013-3.277,7.245l-0.074,0.482
			l-7.78-1.379l0.086-0.47c0.85-4.669,2.82-8.345,5.856-10.926c3.035-2.58,6.856-3.889,11.356-3.889c3.089,0,5.983,0.675,8.6,2.006
			c2.623,1.334,4.66,3.188,6.055,5.509c1.393,2.319,2.1,4.814,2.1,7.418c0,2.493-0.676,4.789-2.01,6.823
			c-1.138,1.736-2.749,3.183-4.801,4.312c2.81,0.87,5.064,2.406,6.714,4.579c1.876,2.472,2.828,5.587,2.828,9.26
			c0,4.961-1.839,9.235-5.466,12.703C30.843,69.66,26.212,71.408,20.696,71.408z M3.542,55.652
			c0.516,4.279,2.302,7.831,5.315,10.563c3.114,2.813,7.098,4.24,11.839,4.24c5.264,0,9.674-1.659,13.108-4.932
			c3.431-3.281,5.171-7.323,5.171-12.015c0-3.46-0.887-6.382-2.635-8.685c-1.743-2.296-4.229-3.828-7.389-4.554l-1.36-0.312
			l1.268-0.584c2.431-1.12,4.292-2.646,5.531-4.537c1.23-1.877,1.854-3.998,1.854-6.302c0-2.429-0.661-4.76-1.964-6.928
			c-1.302-2.166-3.209-3.899-5.671-5.151c-2.482-1.262-5.23-1.902-8.168-1.902c-4.269,0-7.882,1.232-10.74,3.662
			c-2.763,2.349-4.593,5.679-5.446,9.902l5.879,1.042c0.562-3.211,1.734-5.669,3.486-7.312c1.843-1.75,4.187-2.638,6.966-2.638
			c2.791,0,5.11,0.874,6.894,2.599c1.784,1.737,2.688,3.948,2.688,6.572c0,3.318-1.246,5.813-3.703,7.416
			c-2.394,1.562-5.126,2.354-8.122,2.354c-0.205,0-0.434-0.011-0.685-0.032l-0.61,4.845c1.671-0.399,3.102-0.601,4.26-0.601
			c3.269,0,6.011,1.074,8.152,3.191c2.135,2.112,3.217,4.837,3.217,8.101c0,3.405-1.164,6.302-3.459,8.608
			c-2.287,2.311-5.14,3.482-8.477,3.482c-2.811,0-5.235-0.904-7.204-2.688c-1.88-1.703-3.246-4.459-4.063-8.195L3.542,55.652z"/>
	</g>
	<g enable-background="new    ">
		<path fill="#FFF200" d="M45.747,42.495c0-6.574,0.677-11.871,2.032-15.879c1.354-4.009,3.364-7.106,6.029-9.283
			c2.665-2.176,6.029-3.265,10.071-3.265c2.987,0,5.607,0.6,7.861,1.799s4.108,2.932,5.574,5.197
			c1.466,2.266,2.621,5.019,3.454,8.272c0.832,3.254,1.254,7.64,1.254,13.147c0,6.529-0.666,11.793-2.01,15.812
			c-1.344,4.009-3.342,7.106-6.019,9.294c-2.664,2.188-6.04,3.287-10.115,3.287c-5.363,0-9.572-1.922-12.637-5.774
			C47.579,60.483,45.747,52.943,45.747,42.495z M52.765,42.495c0,9.138,1.065,15.212,3.209,18.233s4.774,4.53,7.917,4.53
			s5.774-1.521,7.917-4.553c2.144-3.031,3.21-9.105,3.21-18.222c0-9.161-1.066-15.246-3.21-18.255
			c-2.143-3.01-4.797-4.52-7.983-4.52c-3.143,0-5.641,1.333-7.518,3.986C53.941,27.093,52.765,33.356,52.765,42.495z"/>
	</g>
	<g enable-background="new    ">
		<path d="M63.88,71.353c-5.49,0-9.867-2.003-13.009-5.954c-3.716-4.685-5.601-12.391-5.601-22.904
			c0-6.599,0.692-11.992,2.058-16.031c1.379-4.081,3.458-7.277,6.18-9.5c2.739-2.237,6.229-3.372,10.372-3.372
			c3.052,0,5.771,0.625,8.085,1.855c2.311,1.229,4.245,3.032,5.75,5.358c1.495,2.31,2.678,5.141,3.516,8.413
			c0.842,3.292,1.27,7.755,1.27,13.266c0,6.554-0.685,11.925-2.034,15.963c-1.37,4.085-3.445,7.285-6.169,9.512
			C71.553,70.21,68.048,71.353,63.88,71.353z M63.88,14.544c-3.918,0-7.205,1.062-9.771,3.157c-2.58,2.107-4.559,5.158-5.88,9.067
			c-1.332,3.94-2.007,9.232-2.007,15.727c0,10.293,1.814,17.8,5.394,22.312c2.952,3.712,7.078,5.594,12.264,5.594
			c3.942,0,7.244-1.069,9.813-3.179c2.584-2.111,4.559-5.166,5.869-9.077c1.317-3.941,1.985-9.21,1.985-15.661
			c0-5.431-0.417-9.815-1.24-13.029c-0.812-3.172-1.953-5.909-3.392-8.132c-1.416-2.189-3.232-3.883-5.398-5.035
			C69.344,15.13,66.774,14.544,63.88,14.544z M63.891,65.733c-3.283,0-6.077-1.591-8.305-4.73
			c-2.219-3.127-3.297-9.181-3.297-18.508c0-9.326,1.187-15.564,3.627-19.071c1.967-2.781,4.627-4.19,7.908-4.19
			c3.325,0,6.142,1.588,8.371,4.719c2.219,3.116,3.298,9.177,3.298,18.531c0,9.309-1.078,15.358-3.297,18.496
			C69.967,64.135,67.172,65.733,63.891,65.733z M63.824,20.185c-2.996,0-5.328,1.238-7.129,3.786
			c-2.292,3.292-3.455,9.526-3.455,18.524c0,8.997,1.051,15.039,3.121,17.958c2.068,2.913,4.53,4.33,7.529,4.33
			c2.996,0,5.459-1.424,7.529-4.352c2.071-2.931,3.121-8.969,3.121-17.947c0-9.022-1.05-15.071-3.12-17.979
			C69.351,21.598,66.866,20.185,63.824,20.185z"/>
	</g>
</g>
</svg>
