<?xml version="1.0" encoding="utf-8"?>
<!-- Generator: Adobe Illustrator 16.0.0, SVG Export Plug-In . SVG Version: 6.00 Build 0)  -->
<!DOCTYPE svg PUBLIC "-//W3C//DTD SVG 1.1//EN" "http://www.w3.org/Graphics/SVG/1.1/DTD/svg11.dtd">
<svg version="1.1" id="Layer_1" xmlns="http://www.w3.org/2000/svg" xmlns:xlink="http://www.w3.org/1999/xlink" x="0px" y="0px"
	 width="85px" height="85px" viewBox="0 0 85 85" enable-background="new 0 0 85 85" xml:space="preserve">
<g>
	<path fill="#32BCEA" d="M6.121,70.062h60.356c1.598,0,2.895-1.297,2.895-2.896V31.613c0-1.6-1.297-2.896-2.895-2.896H6.121
		c-1.599,0-2.896,1.297-2.896,2.896v35.553C3.225,68.766,4.522,70.062,6.121,70.062"/>
	<path fill="#FFCE5B" d="M18.522,56.281h60.359c1.598,0,2.895-1.299,2.895-2.896V17.834c0-1.6-1.297-2.896-2.895-2.896H18.522
		c-1.6,0-2.895,1.297-2.895,2.896v35.551C15.627,54.984,16.922,56.281,18.522,56.281"/>
	<path fill="#CA8786" d="M15.627,28.719h66.148V17.834c0-1.6-1.297-2.895-2.895-2.895H18.522c-1.6,0-2.895,1.297-2.895,2.895V28.719
		L15.627,28.719z"/>
	<rect x="15.627" y="21.828" fill="#EFF8FA" width="66.148" height="6.891"/>
	<path fill="#EFF8FA" d="M73.365,50.77H62.621c-1.6,0-2.896-1.299-2.896-2.896v-5.234c0-1.598,1.297-2.895,2.896-2.895h10.744
		c1.602,0,2.896,1.297,2.896,2.895v5.234C76.262,49.471,74.965,50.77,73.365,50.77"/>
	<path fill="#010101" d="M3.225,57.393c-0.4,0-0.725-0.324-0.725-0.725v-0.773c0-0.4,0.324-0.725,0.725-0.725
		c0.399,0,0.724,0.324,0.724,0.725v0.773C3.949,57.068,3.625,57.393,3.225,57.393z"/>
	<path fill="#010101" d="M78.881,57.004H18.524c-1.996,0-3.621-1.623-3.621-3.619V17.834c0-1.996,1.625-3.619,3.621-3.619h60.357
		c1.996,0,3.619,1.623,3.619,3.619v35.551C82.5,55.381,80.877,57.004,78.881,57.004z M18.522,15.662c-1.197,0-2.17,0.975-2.17,2.172
		v35.551c0,1.197,0.973,2.174,2.17,2.174h60.359c1.195,0,2.172-0.977,2.172-2.174V17.834c0-1.197-0.977-2.172-2.172-2.172H18.522z"
		/>
	<path fill="#010101" d="M66.615,70.785H5.981c-1.92,0-3.48-1.562-3.48-3.48v-6.199c0-0.4,0.324-0.727,0.725-0.727
		c0.399,0,0.724,0.324,0.724,0.727v6.199c0,1.121,0.911,2.033,2.032,2.033h60.634c1.121,0,2.033-0.912,2.033-2.033V57.004H18.383
		c-1.92,0-3.48-1.561-3.48-3.479V29.443H5.979c-1.119,0-2.031,0.912-2.031,2.033v20.238c0,0.4-0.324,0.725-0.725,0.725
		c-0.399,0-0.724-0.324-0.724-0.725V31.477c0-1.92,1.562-3.48,3.479-3.48h9.646c0.4,0,0.725,0.324,0.725,0.723v24.809
		c0,1.119,0.91,2.031,2.031,2.031h50.988c0.4,0,0.725,0.324,0.725,0.725v11.023C70.096,69.225,68.535,70.785,66.615,70.785z"/>
	<path fill="#010101" d="M72.244,29.443h-0.346c-0.398,0-0.725-0.324-0.725-0.725s0.324-0.725,0.725-0.725h0.346
		c0.398,0,0.725,0.324,0.725,0.725S72.643,29.443,72.244,29.443z"/>
	<path fill="#010101" d="M81.775,29.443h-5.514c-0.4,0-0.725-0.324-0.725-0.725s0.324-0.725,0.725-0.725h4.789v-5.441H16.35v5.441
		h51.644c0.398,0,0.725,0.324,0.725,0.725s-0.324,0.725-0.725,0.725H15.627c-0.4,0-0.725-0.324-0.725-0.725v-6.891
		c0-0.4,0.324-0.725,0.725-0.725h66.146c0.4,0,0.725,0.324,0.725,0.725v6.891C82.5,29.117,82.174,29.443,81.775,29.443z"/>
	<path fill="#010101" d="M73.365,51.492H62.621c-1.996,0-3.619-1.623-3.619-3.619v-5.232c0-1.996,1.623-3.619,3.619-3.619h10.744
		c1.996,0,3.621,1.623,3.621,3.619v5.232c0,0.965-0.377,1.875-1.061,2.559S74.334,51.492,73.365,51.492z M62.621,40.469
		c-1.197,0-2.172,0.975-2.172,2.17v5.234c0,1.197,0.975,2.172,2.172,2.172h10.744c0.58,0,1.125-0.227,1.537-0.637
		c0.41-0.41,0.635-0.957,0.635-1.535v-5.234c0-1.195-0.975-2.17-2.172-2.17H62.621z"/>
</g>
</svg>
