<?xml version="1.0" encoding="utf-8"?>
<!-- Generator: Adobe Illustrator 16.0.0, SVG Export Plug-In . SVG Version: 6.00 Build 0)  -->
<!DOCTYPE svg PUBLIC "-//W3C//DTD SVG 1.1//EN" "http://www.w3.org/Graphics/SVG/1.1/DTD/svg11.dtd">
<svg version="1.1" id="Layer_1" xmlns="http://www.w3.org/2000/svg" xmlns:xlink="http://www.w3.org/1999/xlink" x="0px" y="0px"
	 width="85px" height="85px" viewBox="0 0 85 85" enable-background="new 0 0 85 85" xml:space="preserve">
<g>
	<path fill-rule="evenodd" clip-rule="evenodd" d="M28.316,68.221c-3.332,1.768-6.791,1.722-10.205,1.013
		c-4.541-0.942-7.789-5.154-7.84-9.786c-0.023-1.987,0.114-3.984-0.035-5.961c-0.205-2.724,1.968-5.172,5.187-4.357
		c0-0.493-0.008-0.968,0.002-1.443c0.033-1.522,0.704-2.687,2.039-3.414c1.342-0.731,2.692-0.646,3.958,0.198
		c0.343,0.229,0.533,0.251,0.885,0.009c1.143-0.791,2.387-0.9,3.667-0.346c0.286,0.124,0.503,0.216,0.804-0.008
		c2.543-1.892,5.474-2.904,8.508-3.641c0.751-0.182,1.099-0.527,1.256-1.279c0.342-1.633,0.371-1.609-1.051-2.437
		c-3.091-1.799-5.245-4.385-6.39-7.778c-0.173-0.514-0.377-0.722-0.942-0.687c-0.69,0.042-1.39,0.077-2.082-0.11
		c-1.53-0.415-2.664-1.658-2.89-3.218c-0.216-1.491,0.502-3.079,1.885-3.793c0.604-0.312,0.672-0.68,0.675-1.247
		c0.013-2.276-0.144-4.558,0.448-6.808c1.609-6.122,7.178-10.54,13.496-10.579c2.467-0.016,4.94-0.161,7.404,0.134
		C53.134,3.406,58.388,8.685,59.12,14.73c0.222,1.824,0.104,3.648,0.133,5.472c0.007,0.409,0.08,0.649,0.493,0.862
		c1.624,0.839,2.397,2.558,1.983,4.248c-0.44,1.802-1.919,3.086-3.784,2.969c-1.357-0.085-1.932,0.334-2.425,1.625
		c-1.266,3.311-3.632,5.719-6.823,7.276c-0.513,0.25-0.538,0.494-0.485,1.033c0.153,1.553,0.948,2.198,2.458,2.555
		c6.386,1.505,11.167,5.169,14.164,11.048C66.308,54.709,67,57.803,67,61.05c-0.002,6.018,0.013,12.034-0.02,18.052
		c-0.003,0.688,0.184,0.817,0.836,0.813c4.62-0.031,9.241-0.008,13.861-0.027c0.568-0.002,0.835,0.058,0.815,0.75
		c-0.054,1.839-0.014,1.84-1.89,1.84c-25.707,0-51.415-0.005-77.123,0.022c-0.842,0.002-1.001-0.231-0.971-1.007
		c0.062-1.593,0.019-1.595,1.648-1.595c7.764,0,15.527-0.014,23.29,0.021c0.771,0.004,0.891-0.236,0.884-0.927
		C28.298,75.447,28.316,71.901,28.316,68.221z"/>
	<path fill-rule="evenodd" clip-rule="evenodd" fill="#4FC0E8" d="M28.316,52.198c0-1.385,0-2.694,0-4.004
		c0-0.269,0.07-0.567-0.022-0.8c-0.402-1.008,0.212-1.416,0.952-1.838c1.074-0.613,2.181-1.146,3.333-1.594
		c0.425-0.165,0.663-0.142,0.835,0.347c0.25,0.706,0.548,1.399,0.891,2.064c1.701,3.296,4.425,5.099,8.125,5.128
		c3.736,0.03,6.497-1.762,8.241-5.072c0.349-0.662,0.632-1.361,0.893-2.063c0.174-0.472,0.371-0.604,0.875-0.404
		c6.298,2.483,10.196,7.016,11.652,13.629c0.272,1.234,0.348,2.495,0.34,3.762c-0.002,0.383-0.109,0.505-0.498,0.502
		c-2.257-0.017-4.514-0.012-6.769-0.003c-0.315,0.001-0.488-0.044-0.486-0.429c0.018-2.598-0.209-5.226,0.997-7.666
		c0.146-0.295,0.079-0.433-0.196-0.551c-0.245-0.106-0.481-0.234-0.722-0.354c-1.3-0.649-1.311-0.653-1.813,0.749
		c-0.558,1.554-0.842,3.155-0.841,4.812c0.008,6.875-0.008,13.751,0.021,20.628c0.003,0.697-0.147,0.881-0.866,0.877
		c-7.199-0.03-14.397-0.028-21.596-0.002c-0.649,0.002-0.782-0.187-0.778-0.799c0.027-4.136,0.018-8.272,0.007-12.409
		c-0.001-0.424,0.092-0.762,0.363-1.103c1.455-1.823,2.184-3.919,2.215-6.248c0.023-1.691,0.016-3.385,0.004-5.077
		c-0.013-1.854-1.435-3.021-3.271-2.703C29.569,51.686,28.978,51.927,28.316,52.198z"/>
	<path fill-rule="evenodd" clip-rule="evenodd" fill="#EFCFB3" d="M43.299,13.987c3.191,1.438,6.375,2.902,9.584,4.302
		c0.892,0.388,1.28,0.932,1.232,1.904c-0.113,2.325,0.208,4.669-0.333,6.977c-1.266,5.401-6.302,9.145-11.96,8.875
		c-5.388-0.256-10.072-4.521-10.777-9.891c-0.354-2.695-0.178-5.416-0.11-8.121c0.051-2.027,2.265-3.184,4.167-2.274
		c2.101,1.005,4.181,2.056,6.249,3.125c0.478,0.248,0.644,0.156,0.869-0.302c0.851-1.731,0.867-1.719-0.885-2.603
		c-1.217-0.614-2.43-1.238-3.645-1.857c0.021-0.343,0.303-0.357,0.526-0.366c1.528-0.061,3.057-0.064,4.586,0
		C42.99,13.764,43.171,13.828,43.299,13.987z"/>
	<path fill-rule="evenodd" clip-rule="evenodd" fill="#656D78" d="M43.299,13.987c-1.665,0.007-3.328,0.012-4.992,0.024
		c-0.209,0.002-0.434-0.045-0.617,0.111c-0.876-0.322-1.645-0.892-2.57-1.104c-2.878-0.659-5.526,0.8-6.524,3.596
		c-0.051,0.145-0.111,0.286-0.183,0.467c-0.265-1.612,0.244-4.042,1.331-5.916c2.25-3.883,5.632-5.962,10.134-6.035
		c2.329-0.038,4.666-0.159,6.993,0.128c4.752,0.584,9.071,4.922,9.676,9.679c0.156,1.234,0.108,2.461,0.074,3.757
		c-0.579-2.059-2.364-2.617-4.013-3.346c-2.572-1.139-5.148-2.273-7.714-3.429c-0.418-0.188-0.655-0.217-0.83,0.297
		C43.858,12.824,43.558,13.398,43.299,13.987z"/>
	<path fill-rule="evenodd" clip-rule="evenodd" fill="#EFCFB3" d="M12.844,56.322c0-1.101-0.009-2.202,0.002-3.304
		c0.01-0.927,0.541-1.507,1.326-1.482c0.754,0.024,1.237,0.584,1.248,1.481c0.011,1.021,0.031,2.042-0.009,3.062
		c-0.021,0.498,0.119,0.627,0.619,0.622c3.008-0.024,6.016-0.017,9.023-0.002c0.224,0.001,0.565-0.205,0.677,0.19
		c0.1,0.355-0.156,0.518-0.416,0.686c-0.787,0.511-1.556,1.051-2.351,1.55c-0.376,0.236-0.516,0.397-0.21,0.854
		c1.117,1.669,1.094,1.685,2.756,0.566c0.69-0.463,1.354-0.977,2.082-1.372c0.611-0.331,0.788-0.759,0.742-1.42
		c-0.041-0.581-0.091-1.179,0.087-1.76c0.163-0.53,0.436-0.986,0.876-1.317c0.433-0.325,0.969-0.706,1.459-0.496
		c0.345,0.148,0.141,0.774,0.132,1.181c-0.041,1.742,0.162,3.491-0.127,5.226c-0.572,3.44-3.42,6.128-6.92,6.369
		c-1.755,0.12-3.539,0.236-5.284-0.24c-3.298-0.901-5.626-3.842-5.702-7.251c-0.023-1.046-0.004-2.094-0.004-3.142
		C12.847,56.322,12.845,56.322,12.844,56.322z"/>
	<path fill-rule="evenodd" clip-rule="evenodd" fill="#EFCFB3" d="M56.684,72.163c0-2.361,0.017-4.724-0.012-7.086
		c-0.006-0.52,0.125-0.672,0.658-0.664c2.146,0.031,4.294,0.03,6.441,0c0.526-0.008,0.664,0.136,0.662,0.66
		c-0.021,4.726-0.021,9.449-0.001,14.173c0.002,0.521-0.125,0.673-0.657,0.665c-2.147-0.031-4.296-0.03-6.442,0
		c-0.526,0.008-0.668-0.135-0.661-0.661C56.7,76.889,56.684,74.526,56.684,72.163z"/>
	<path fill-rule="evenodd" clip-rule="evenodd" fill="#EFCFB3" d="M42.698,43.793c-1.726-0.012-3.589-1.3-3.855-2.744
		c-0.161-0.873,0.297-1.772,0.578-2.633c0.066-0.202,0.336-0.063,0.511-0.029c1.707,0.335,3.417,0.352,5.117-0.007
		c0.468-0.099,0.644,0.02,0.689,0.469c0.024,0.238,0.066,0.491,0.174,0.7c0.568,1.112,0.115,1.98-0.587,2.834
		C44.575,43.292,43.641,43.766,42.698,43.793z"/>
	<path fill-rule="evenodd" clip-rule="evenodd" fill="#EFCFB3" d="M20.58,50.65c0,0.967-0.025,1.934,0.011,2.898
		c0.018,0.47-0.145,0.567-0.587,0.572c-2.003,0.026-2.002,0.04-2.002-1.965c0-1.422-0.007-2.845,0.002-4.268
		c0.006-0.943,0.513-1.519,1.298-1.511c0.782,0.008,1.267,0.582,1.276,1.534C20.587,48.825,20.58,49.737,20.58,50.65z"/>
	<path fill-rule="evenodd" clip-rule="evenodd" fill="#EFCFB3" d="M25.737,50.714c0,0.967-0.015,1.933,0.008,2.898
		c0.009,0.375-0.09,0.492-0.486,0.51c-2.101,0.093-2.101,0.105-2.101-1.948c0-1.422-0.006-2.845,0.002-4.269
		c0.006-0.951,0.497-1.523,1.281-1.527c0.785-0.004,1.283,0.57,1.293,1.517C25.745,48.834,25.737,49.774,25.737,50.714z"/>
	<path fill-rule="evenodd" clip-rule="evenodd" fill="#EECEB3" d="M56.683,24.521c0.011-1.366,0.011-1.366,0.963-1.357
		c1.016,0.01,1.598,0.467,1.611,1.268c0.016,0.881-0.616,1.264-1.887,1.327C56.075,25.824,56.933,24.872,56.683,24.521z"/>
	<path fill-rule="evenodd" clip-rule="evenodd" fill="#EECEB3" d="M28.318,24.567c-0.243,0.335,0.588,1.247-0.656,1.191
		c-1.292-0.058-1.912-0.417-1.92-1.295c-0.007-0.828,0.587-1.293,1.661-1.299C28.306,23.158,28.306,23.158,28.318,24.567z"/>
	<path fill-rule="evenodd" clip-rule="evenodd" fill="#3BAED8" d="M41.21,48.779c-1.011-0.163-1.837-0.574-2.602-1.124
		c-0.137-0.099-0.422-0.223-0.257-0.413c0.437-0.502,0.876-1.042,1.426-1.391c0.326-0.206,0.769,0.243,1.184,0.314
		c0.248,0.043,0.251,0.229,0.25,0.426C41.208,47.309,41.21,48.025,41.21,48.779z"/>
	<path fill-rule="evenodd" clip-rule="evenodd" fill="#3BAED8" d="M43.789,48.857c0-0.611,0-1.091,0-1.569
		c0-1.112,0.105-1.212,1.176-1.462c0.41-0.095,0.516,0.215,0.702,0.396c1.3,1.263,1.288,1.324-0.4,2.092
		C44.834,48.51,44.374,48.645,43.789,48.857z"/>
	<path fill-rule="evenodd" clip-rule="evenodd" fill="#3AACD6" d="M36.69,45.423c-0.339-0.78-0.533-1.336-0.813-1.843
		c-0.288-0.521,0.005-0.611,0.403-0.735c0.869-0.273,0.85,0.597,1.234,0.938c0.372,0.333,0.029,0.54-0.174,0.776
		C37.132,44.8,36.956,45.065,36.69,45.423z"/>
	<path fill-rule="evenodd" clip-rule="evenodd" fill="#3AACD6" d="M48.392,45.24c-0.188-0.166-0.289-0.249-0.383-0.34
		c-0.736-0.714-0.703-1.427,0.113-2.026c0.334-0.245,0.66,0.001,0.964,0.11c0.402,0.144,0.093,0.399,0.022,0.579
		C48.897,44.106,48.652,44.637,48.392,45.24z"/>
	<path fill-rule="evenodd" clip-rule="evenodd" d="M42.495,25.743c3.395-0.25,4.077,1.318,3.865,4.151
		c-0.152,2.027-1.892,3.617-3.937,3.583c-2-0.033-3.654-1.655-3.792-3.654C38.431,26.913,39.258,25.502,42.495,25.743z"/>
	<path fill-rule="evenodd" clip-rule="evenodd" fill="#020202" d="M48.942,21.854c0.012,0.692-0.554,1.283-1.246,1.306
		c-0.692,0.021-1.291-0.534-1.324-1.228c-0.034-0.725,0.558-1.344,1.286-1.344C48.354,20.589,48.932,21.159,48.942,21.854z"/>
	<path fill-rule="evenodd" clip-rule="evenodd" fill="#020202" d="M37.305,23.16c-0.695-0.021-1.258-0.608-1.248-1.303
		c0.01-0.728,0.637-1.311,1.361-1.267c0.693,0.043,1.24,0.65,1.208,1.341C38.595,22.623,37.995,23.181,37.305,23.16z"/>
	<path fill-rule="evenodd" clip-rule="evenodd" fill="#ED7284" d="M42.547,28.321c0.537,0.084,1.378-0.376,1.264,0.849
		c-0.104,1.122-0.496,1.747-1.342,1.726c-0.839-0.021-1.26-0.619-1.259-1.788C41.211,28.321,41.211,28.321,42.547,28.321z"/>
</g>
</svg>
