<?xml version="1.0" encoding="utf-8"?>
<!-- Generator: Adobe Illustrator 16.0.0, SVG Export Plug-In . SVG Version: 6.00 Build 0)  -->
<!DOCTYPE svg PUBLIC "-//W3C//DTD SVG 1.1//EN" "http://www.w3.org/Graphics/SVG/1.1/DTD/svg11.dtd">
<svg version="1.1" id="Layer_1" xmlns="http://www.w3.org/2000/svg" xmlns:xlink="http://www.w3.org/1999/xlink" x="0px" y="0px"
	 width="85px" height="85px" viewBox="0 0 85 85" enable-background="new 0 0 85 85" xml:space="preserve">
<g>
	<path fill="#594841" d="M43.448,2.5c0.56,0,1.12,0,1.68,0c0.267,0.125,0.533,0.125,0.8,0c0.08,0,0.16,0,0.24,0
		c1.099,0.087,2.192,0.208,3.271,0.451c2.824,0.636,5.379,1.812,7.494,3.818c1.256,1.19,2.247,2.594,3.07,4.118
		c1.664,3.084,2.602,6.41,3.301,9.816c0.533,2.6,0.896,5.225,1.194,7.86c0.103,0.911,0.167,1.827,0.246,2.741
		c0.019,0.217,0.072,0.455-0.104,0.648c-0.247-0.148-0.244-0.428-0.294-0.652c-0.619-2.807-1.182-5.625-1.759-8.439
		c-0.198-0.879-0.376-1.763-0.661-2.62c-0.037-0.043-0.095,0.043-0.048,0.017c0.014-0.008,0.022-0.01,0.024-0.005
		c0.357,0.861,0.467,1.787,0.7,2.681c0.553,2.699,1.081,5.404,1.682,8.094c0.144,0.646,0.357,1.274,0.471,1.928
		c0.022,0.181,0.095,0.354,0.093,0.54c-0.007,0.058-0.027,0.111-0.052,0.163c-0.028,0.205-0.17,0.419,0.042,0.609
		c0.025,0.034,0.043,0.069,0.055,0.109c0.047,0.341,0.044,0.68-0.005,1.019c-0.095,0.873-0.058,1.746-0.019,2.618
		c0.133,0.786-0.005,1.57-0.066,2.349c-0.105,1.341-0.304,2.672-0.617,3.983c-0.606,2.529-1.581,4.886-3.216,6.94
		c-1.327,1.667-2.967,2.849-5.071,3.329c-0.55,0.126-1.104,0.175-1.666,0.142c-0.113-0.007-0.273,0.01-0.288-0.143
		c-0.012-0.119,0.137-0.145,0.23-0.185c0.672-0.29,1.363-0.541,1.961-0.98c0.948-0.697,1.705-1.562,2.311-2.676
		c-0.861,0.74-1.715,1.352-2.63,1.87c-1.47,0.832-3.019,1.465-4.679,1.806c-0.165,0.033-0.337,0.106-0.499-0.02
		c0.02-0.275,0.261-0.311,0.443-0.393c1.354-0.613,2.551-1.458,3.558-2.542c1.458-1.572,2.424-3.432,3.018-5.486
		c0.484-1.673,0.724-3.381,0.818-5.118c0.053-0.962,0.09-1.914-0.03-2.869c0.034-0.165,0.18-0.221,0.299-0.3
		c1.376-0.912,2.049-2.241,2.282-3.834c0.044-0.299,0.039-0.608,0.167-0.893c0.243-0.533,0.22-1.114,0.288-1.676
		c0.19-1.551,0.12-3.112,0.071-4.664c-0.073-2.344-0.431-4.654-1.13-6.907c-0.025,2.051,0.01,4.101,0.045,6.148
		c0.014,0.797,0.034,1.597,0.054,2.395c0.002,0.106,0.003,0.215-0.021,0.319c-0.062,0.267-0.184,0.314-0.384,0.122
		c-0.356-0.342-0.67-0.725-0.969-1.116c-0.58-0.76-1-1.604-1.292-2.512c-0.204-0.731-0.372-1.471-0.472-2.225
		c-0.014-0.042-0.023-0.085-0.03-0.129c-0.192-2.396-0.465-4.775-1.294-7.055c-0.167-0.461-0.34-0.92-0.554-1.361
		c-0.529-1.254-1.21-2.419-2.06-3.484c-0.055-0.08-0.079-0.185-0.223-0.258c0.164,0.088,0.165,0.241,0.27,0.315
		c0.812,1.05,1.486,2.179,1.998,3.405c0.744,1.679,1.289,3.412,1.427,5.256c-0.006,0.224,0.005,0.447-0.008,0.671
		c-0.007,0.124,0.017,0.307-0.146,0.317c-0.142,0.009-0.124-0.169-0.153-0.277c-0.084-0.317-0.079-0.654-0.209-0.96
		c-0.224-0.753-0.362-1.526-0.577-2.282c-0.492-1.736-1.299-3.317-2.281-4.818c0.374,0.596,0.746,1.191,1.018,1.846
		c0.28,0.677,0.558,1.355,0.786,2.051c0.226,0.683,0.44,1.369,0.573,2.079c0.132,0.707,0.265,1.413,0.351,2.128
		c0.202,1.679,0.388,3.362,0.952,4.973c0.211,0.604,0.443,1.198,0.739,1.767c0.141,0.36,0.4,0.648,0.59,0.98
		c0.019,0.034,0.033,0.071,0.062,0.099c-0.007-0.036-0.037-0.062-0.044-0.099c-0.029-0.101-0.089-0.19-0.108-0.292
		c-0.052-0.266,0.055-0.28,0.244-0.145c0.027,0.025,0.051,0.054,0.072,0.083c0.071,0.131,0.178,0.226,0.306,0.3
		c0.39,0.334,0.75,0.698,1.146,1.025c0.324,0.266,0.365,0.679,0.162,1.103c-0.234-0.019-0.313-0.229-0.444-0.369
		c-0.183-0.194-0.367-0.386-0.573-0.554c-0.247-0.201-0.324-0.182-0.4,0.129c-0.239,0.971-0.572,1.911-0.923,2.845
		c-0.333,0.884-0.709,1.749-1.106,2.605c-0.045,0.097-0.091,0.193-0.148,0.282s-0.119,0.209-0.237,0.181
		c-0.162-0.038-0.113-0.193-0.101-0.302c0.09-0.752,0.182-1.504,0.269-2.256c0.115-1.003,0.258-2.003,0.352-3.008
		c0.006-0.188-0.152-0.237-0.274-0.305c-0.815-0.451-1.591-0.959-2.318-1.541c-0.162-0.13-0.331-0.183-0.552-0.136
		c-0.312,0.066-0.635,0.032-0.953,0.022c-0.1-0.011-0.191-0.046-0.276-0.098c-0.273-0.191-0.591-0.312-0.858-0.513
		c-0.075-0.042-0.155-0.078-0.222-0.137c0.054,0.057,0.123,0.089,0.188,0.129c0.224,0.171,0.518,0.242,0.689,0.488
		c-0.384,0.286-0.825,0.153-1.227,0.116c-1.517-0.141-2.993-0.46-4.39-1.101c-0.792-0.362-1.518-0.825-2.201-1.361
		c-1.185-0.929-2.125-2.077-2.974-3.308c-0.154-0.278-0.259-0.582-0.435-0.849c-0.02-0.024-0.021-0.06-0.045-0.082
		c0.015,0.063,0.058,0.111,0.097,0.16c0.133,0.287,0.266,0.573,0.418,0.85c0.509,1.09,1.171,2.089,1.823,3.093
		c0.434,0.67,0.88,1.333,1.29,2.018c0.176,0.327,0.387,0.635,0.528,0.979c0.059,0.145,0.183,0.326,0.063,0.445
		c-0.136,0.138-0.294-0.033-0.418-0.109c-0.825-0.509-1.608-1.075-2.305-1.753c-0.104-0.102-0.206-0.207-0.321-0.297
		c-1.709-1.655-2.699-3.698-3.237-5.987c-0.324-1.376-0.49-2.769-0.569-4.181c-0.046-0.825-0.043-1.647-0.056-2.472
		c-0.008-0.502,0.115-0.994,0.096-1.356c-2.028,4.353-4.225,8.78-6.737,13.046c-0.166,0.259-0.339,0.521-0.569,0.718
		c-0.432,0.368-0.608,0.842-0.739,1.373c-0.324,1.319-0.605,2.647-0.895,3.974c-0.159,0.728-0.157,1.445-0.031,2.178
		c0.118,0.681,0.263,1.359,0.287,2.054c-0.005,0.146-0.011,0.293,0.035,0.435c0.011,0.042,0.016,0.084,0.017,0.126
		c-0.007,0.108-0.024,0.211-0.152,0.243c-0.194-0.025-0.248-0.189-0.301-0.333c-0.121-0.323-0.254-0.641-0.403-0.999
		c-0.005,0.27,0.011,0.503-0.009,0.734c-0.011,0.131,0.032,0.31-0.181,0.337c0.017-0.05-0.016,0.023-0.022-0.029
		c-0.005-0.041-0.022-0.038-0.009-0.004c0.135,0.346-0.031,0.68-0.044,1.02c-0.006,0.166-0.043,0.337-0.047,0.509
		c-0.007,0.053,0.074,0.009,0.021,0.012c0,0-0.001-0.005-0.002-0.016c-0.011-0.283-0.011-0.283,0.14-0.369
		c0.11,0.178,0.073,0.376,0.081,0.568c-0.041,1.672,0.198,3.315,0.542,4.943c0.364,1.726,0.924,3.39,1.685,4.979
		c0.779,1.629,1.796,3.108,2.939,4.501c0.59,0.719,1.188,1.434,1.918,2.02c0.07,0.247,0.274,0.399,0.426,0.589
		c0.291,0.449,0.274,0.545-0.174,0.816c-1.238,0.748-2.58,1.161-4.021,1.289c-0.479,0.042-0.949,0.075-1.423-0.009
		c-0.388-0.019-0.764-0.097-1.127-0.229c-1.298-0.401-2.131-1.29-2.651-2.517c-0.238-0.562-0.516-1.107-0.693-1.693
		c-0.019-0.09-0.039-0.179-0.069-0.266c-0.018-0.058-0.05-0.11-0.049-0.172c0.001,0.002-0.033,0.006-0.033,0.006
		s0.027,0.021,0.027,0.022c0.021,0.072,0.049,0.142,0.071,0.214c0.035,0.104,0.04,0.217,0.094,0.314
		c0.278,0.904,0.598,1.792,1.008,2.646c0.055,0.113,0.173,0.246,0.042,0.36c-0.125,0.109-0.248-0.013-0.358-0.079
		c-0.325-0.193-0.579-0.465-0.809-0.761c-0.559-0.719-1.03-1.484-1.273-2.373c0.056-0.15,0.052-0.278-0.131-0.337
		c-0.043-0.032,0.007,0.014-0.034-0.02c-0.315-0.256-0.315-0.256-0.497-0.157c-0.262-0.132-0.521-0.27-0.769-0.426
		c-0.147-0.083-0.291-0.172-0.416-0.286c-0.205-0.172-0.488-0.265-0.577-0.557c-0.096-0.393-0.295-0.767-0.219-1.19
		c0.119-0.159,0.168-0.023,0.229,0.055c0.324,0.417,0.614,0.857,0.888,1.221c-0.393-0.659-1.051-1.235-1.307-2.067
		c-0.012-0.039-0.019-0.079-0.023-0.12c-0.103-0.777-0.179-1.558-0.154-2.341c0.014-0.429-0.086-0.782-0.426-1.06
		c-0.176-0.145-0.289-0.347-0.431-0.521c-0.049-0.061-0.09-0.127-0.14-0.188c-0.071-0.086-0.112-0.188-0.167-0.284
		c-0.056-0.092-0.091-0.193-0.126-0.295c-0.093-0.135-0.135-0.294-0.211-0.437c-0.132-0.217-0.23-0.45-0.316-0.688
		c-0.254-0.577-0.31-1.196-0.398-1.81c0-0.666,0-1.333,0-2c0.05-0.053,0.05-0.106,0-0.16c0-0.133,0-0.267,0-0.399
		c0.337-3.229,1.457-6.268,2.321-9.365c1-3.582,1.927-7.182,2.847-10.783c0.556-2.176,1.301-4.283,2.331-6.283
		c0.958-1.86,2.134-3.575,3.633-5.036c1.47-1.433,3.121-2.624,5.066-3.35c0.817-0.305,1.667-0.473,2.539-0.485
		c0.378-0.005,0.745-0.034,1.096-0.18c0.847-0.352,1.752-0.409,2.646-0.518c0.107,0,0.213,0,0.32,0
		C42.968,2.627,43.208,2.627,43.448,2.5z"/>
	<path fill-rule="evenodd" clip-rule="evenodd" fill="#FAAC48" d="M53.048,82.5c-1.6,0-3.2,0-4.8,0
		c-0.349-0.089-0.702-0.019-1.054-0.042c-0.313,0-0.627,0.001-0.94,0c-0.269,0-0.536,0.001-0.805,0c-0.27,0-0.54,0.001-0.811,0
		c-0.768-0.001-1.535-0.064-2.304-0.039c-1.697-0.053-3.391-0.148-5.084-0.265c-0.873-0.06-1.744-0.145-2.617-0.2
		c-0.937-0.061-1.875-0.149-2.808-0.278c-0.405-0.056-0.82-0.046-1.218-0.165c-0.044-0.029-0.067-0.07-0.07-0.122
		c-0.162-1.748-0.409-3.487-0.605-5.231c-0.251-2.233-0.506-4.466-0.703-6.705c-0.14-1.594-0.136-3.187-0.146-4.782
		c-0.001-0.189,0.062-0.406-0.135-0.549c-0.204,0.01-0.184,0.168-0.184,0.294c0.001,1.447-0.025,2.893,0.124,4.339
		c0.082,0.789,0.101,1.587,0.186,2.379c0.078,0.725,0.129,1.452,0.224,2.175c0.017,0.126-0.146,0.298,0.064,0.393
		c0.197,0.294,0.165,0.637,0.199,0.961c0.217,2.062,0.48,4.119,0.705,6.181c0.014,0.132,0.024,0.266,0.096,0.384
		c0.042,0.088,0.208,0.137,0.094,0.277c-0.592,0.14-1.201,0.164-1.8,0.263c-1.018,0.168-2.041,0.304-3.077,0.286
		c-0.214-0.004-0.423-0.02-0.625-0.09c-0.304-0.1-0.627-0.099-0.937-0.172c-0.041-0.007-0.081-0.019-0.12-0.031
		c-0.425-0.127-0.826-0.317-1.248-0.454c-1.19-0.619-1.83-1.599-1.869-2.94c-0.039-1.347,0.3-2.645,0.583-3.944
		c0.436-1.992,0.98-3.957,1.598-5.901c0.415-1.168,0.779-2.354,1.206-3.518c0.74-1.991,1.593-3.927,2.784-5.697
		c0.517-0.767,1.124-1.455,1.867-2.014c0.166-0.125,0.323-0.289,0.565-0.253c0.074,0.039,0.126,0.101,0.16,0.174
		c0.886,1.893,2.417,3.151,4.166,4.173c1.976,1.155,4.135,1.754,6.407,1.965c1.393,0.125,2.786,0.123,4.177,0
		c1.375-0.102,2.706-0.435,4.012-0.853c1.499-0.479,2.926-1.129,4.262-1.977c1.145-0.725,2.165-1.587,3.073-2.588
		c0.115-0.127,0.207-0.285,0.414-0.271c0.865,0.372,1.562,0.958,2.104,1.718c0.733,1.029,1.19,2.179,1.494,3.407
		c0.269,1.085,0.428,2.187,0.577,3.287c0.091,0.665,0.187,1.337,0.229,2.015c0.052,0.844,0.135,1.691,0.253,2.533
		c0.009,0.065,0.037,0.13,0.033,0.195c-0.069,1.068,0.139,2.121,0.194,3.182c0.065,1.229,0.118,2.464,0.261,3.692
		c0.079,0.682,0.137,1.381,0.086,2.066c-0.058,0.789-0.602,1.277-1.253,1.644c-0.491,0.277-1.026,0.433-1.586,0.486
		c-0.279,0.027-0.546,0.118-0.812,0.181c-0.651,0.152-1.322,0.103-1.972,0.26c-0.491,0.118-1.009,0.012-1.512,0.076
		c-0.092,0.012-0.178-0.048-0.243-0.121c-0.093-0.531,0.126-1.021,0.225-1.523c0.86-4.418,1.811-8.818,2.587-13.253
		c0.107-0.616,0.198-1.235,0.271-1.857c0.016-0.132,0.067-0.288-0.012-0.39c-0.098-0.127-0.088,0.049-0.13,0.085
		c-0.132,0.917-0.291,1.829-0.439,2.742c-0.543,2.825-1.151,5.638-1.729,8.457c-0.376,1.826-0.756,3.652-1.12,5.481
		c-0.021,0.105-0.04,0.21-0.105,0.299C53.358,82.471,53.178,82.425,53.048,82.5z"/>
	<path fill-rule="evenodd" clip-rule="evenodd" fill="#EFB15E" d="M56.018,57.606c1.184,0.52,2.011,1.414,2.644,2.514
		c0.771,1.34,1.089,2.821,1.348,4.321c0.313,1.824,0.502,3.664,0.643,5.508c0.24,3.158,0.479,6.316,0.688,9.477
		c0.058,0.872-0.458,1.471-1.163,1.916c-0.658,0.415-1.411,0.543-2.158,0.67c-0.748,0.127-1.5,0.222-2.251,0.331
		c-0.426,0.054-0.855,0.082-1.279,0.157c-0.188,0-0.374,0-0.561,0c-0.023-0.021-0.042-0.047-0.054-0.076
		c-0.005-0.031-0.004-0.062,0.002-0.094c0.012-0.03,0.031-0.054,0.061-0.069c0.579,0.034,1.166,0.056,1.731-0.049
		c0.678-0.126,1.37-0.108,2.041-0.271c0.966-0.231,1.982-0.288,2.79-0.991c0.514-0.447,0.792-0.988,0.69-1.643
		c-0.102-0.66-0.067-1.322-0.122-1.981c-0.119-1.425-0.198-2.854-0.286-4.282c-0.082-1.318-0.132-2.646-0.314-3.954
		c-0.162-1.164-0.214-2.338-0.423-3.5c-0.136-0.762-0.215-1.546-0.374-2.303c-0.337-1.601-0.901-3.12-2.013-4.366
		c-0.461-0.517-1.054-0.88-1.653-1.222C55.981,57.664,55.987,57.634,56.018,57.606z"/>
	<path fill-rule="evenodd" clip-rule="evenodd" fill="#FBB559" d="M47.207,82.42c0.346,0.043,0.705-0.095,1.041,0.08
		c-0.347,0-0.693,0-1.04,0c-0.026-0.018-0.035-0.035-0.026-0.053C47.19,82.429,47.198,82.42,47.207,82.42z"/>
	<path fill-rule="evenodd" clip-rule="evenodd" fill="#FBA781" d="M53.925,82.413c0.001,0.028,0.002,0.058,0.003,0.087
		c-0.187,0-0.373,0-0.56,0c-0.029-0.048-0.021-0.087,0.026-0.116C53.577,82.289,53.755,82.288,53.925,82.413z"/>
	<path fill-rule="evenodd" clip-rule="evenodd" fill="#FDB868" d="M53.374,82.412c-0.002,0.029-0.004,0.058-0.006,0.088
		c-0.106,0-0.214,0-0.32,0c0.106-0.054,0.212-0.106,0.318-0.16c0.01,0.011,0.02,0.022,0.03,0.033
		C53.389,82.386,53.382,82.398,53.374,82.412z"/>
	<path fill-rule="evenodd" clip-rule="evenodd" fill="#FBC2A3" d="M57.192,29.619c-0.165,1.428-0.329,2.854-0.496,4.281
		c-0.05,0.433-0.106,0.864-0.16,1.302c0.158-0.001,0.158-0.135,0.197-0.22c0.875-1.899,1.696-3.819,2.178-5.865
		c0.065-0.279,0.149-0.319,0.384-0.142c0.43,0.325,0.776,0.725,1.097,1.15c0.414,0.339,0.522,0.841,0.677,1.311
		c0.145,0.439,0.158,0.908,0.216,1.366c0.012,0.097-0.012,0.184-0.077,0.257c-0.035,1.19-0.311,2.31-0.969,3.317
		c-0.451,0.691-1.042,1.23-1.757,1.639c-0.65,0.474-1.372,0.614-2.144,0.41c-0.259-0.068-0.383-0.045-0.479,0.221
		c-0.547,1.517-1.354,2.884-2.42,4.097c-0.264,0.29-0.53,0.576-0.84,0.819c-1.574,1.411-3.438,2.253-5.462,2.778
		c-0.297,0.077-0.58,0.198-0.881,0.261c-1.016,0.202-2.035,0.384-3.07,0.409c-1.267,0.03-2.504-0.223-3.736-0.486
		c-1.679-0.49-3.33-1.047-4.818-2.001c-2.166-1.39-3.652-3.314-4.536-5.719c-0.06-0.163-0.112-0.329-0.085-0.508
		c0.082-0.377,0.052-0.751-0.02-1.125c-0.014-0.146-0.009-0.294-0.056-0.437c-0.046-0.165,0.094-0.331,0-0.497
		c0.011-0.021,0.009-0.04-0.006-0.059c-0.092-0.132,0.001-0.294-0.072-0.429c-0.083-0.605-0.121-1.222-0.259-1.815
		c-0.24-1.03-0.123-2.032,0.113-3.038c0.292-1.244,0.583-2.487,0.859-3.734c0.084-0.379,0.251-0.682,0.539-0.947
		c0.271-0.252,0.494-0.556,0.738-0.837c0.389-0.506,0.842-0.965,1.125-1.546c0.096-0.184,0.213-0.351,0.347-0.508
		c0.319-0.398,0.569-0.841,0.814-1.286c1.022-1.718,1.975-3.473,2.859-5.266c0.041-0.083,0.076-0.17,0.125-0.249
		c0.109-0.175,0.214-0.131,0.294,0.018c0.079,0.146,0.05,0.312,0.059,0.472c0.152,2.911,0.838,5.658,2.532,8.085
		c0.366,0.524,0.776,1.017,1.29,1.408c0.277,0.27,0.583,0.504,0.918,0.696c0.064,0.036,0.14,0.105,0.215,0.035
		c0.051-0.048,0.031-0.126,0.015-0.189c-0.044-0.168-0.059-0.341-0.075-0.512c-0.007-0.078-0.052-0.201,0.11-0.191
		c0.902,0.823,1.846,1.59,2.981,2.214c-0.172-0.542-0.454-0.959-0.67-1.406c-0.014-0.128,0.077-0.139,0.168-0.148
		c0.329,0.062,0.623,0.222,0.932,0.34c1.505,0.573,3.034,1.042,4.653,1.153c0.127,0.009,0.271-0.016,0.366,0.108
		c0.031,0.221-0.156,0.217-0.282,0.263c-1.221,0.45-2.027,1.288-2.401,2.538c-0.034,0.112-0.046,0.239-0.162,0.309
		c-0.033,0.008-0.051,0-0.054-0.025c0-0.006-0.005-0.012-0.008-0.017c0.024,0.329-0.074,0.667,0.075,0.987
		c0.011,0.038,0.018,0.076,0.023,0.114c0.049,0.857,0.438,1.45,1.279,1.733c0.363,0.122,0.699,0.281,1.103,0.3
		c0.73,0.035,1.242-0.304,1.601-0.868c0.475-0.749,0.633-1.596,0.58-2.479c-0.009-0.146-0.063-0.313,0.084-0.402
		c0.153-0.093,0.233,0.069,0.326,0.154c0.309,0.278,0.405,0.27,0.759-0.072c0.161-0.21,0.376-0.365,0.569-0.539
		c0.019-0.025,0.068-0.064,0.042-0.08c-0.078-0.046-0.125,0.037-0.185,0.07c-0.092,0.075-0.187,0.145-0.288,0.205
		c-0.141,0.084-0.271,0.095-0.382-0.05c-0.11-0.145-0.189-0.3-0.039-0.458c0.163-0.17,0.335-0.333,0.519-0.481
		c0.051-0.065,0.176-0.108,0.112-0.212c-0.021-0.034-0.097,0.059-0.146,0.098c-0.085,0.085-0.169,0.171-0.257,0.252
		c-0.307,0.285-0.418,0.287-0.656,0.015c-0.256-0.294-0.245-0.414,0.076-0.69c0.152-0.131,0.295-0.27,0.428-0.419
		c0.065-0.077,0.133-0.15,0.233-0.184c0.292,0.018,0.497-0.236,0.777-0.255c0.487,0.126,0.922,0.379,1.382,0.571
		C56.417,29.181,56.857,29.302,57.192,29.619z"/>
	<path fill-rule="evenodd" clip-rule="evenodd" fill="#FBC2A3" d="M48.496,54.987c1.864,0.719,3.773,1.306,5.676,1.914
		c0.399,0.128,0.796,0.266,1.193,0.399c-0.528,0.359-1.077,0.688-1.625,1.016c-0.064,0.043-0.13,0.085-0.197,0.123
		c-1.116,0.617-2.255,1.188-3.434,1.677c-1.338,0.516-2.688,0.995-4.091,1.309c-1.451,0.324-2.915,0.559-4.407,0.541
		c-0.649-0.009-1.29-0.149-1.939-0.168c-1.315-0.27-2.636-0.523-3.885-1.04c-1.763-0.729-3.271-1.819-4.536-3.244
		c-0.128-0.145-0.289-0.283-0.277-0.51c1.898,0.125,3.672-0.285,5.316-1.244c0.507-0.295,0.504-0.301,0.187-0.766
		c0.102-0.142,0.272-0.111,0.408-0.168c0.222-0.037,0.443-0.089,0.666-0.109c0.644-0.061,0.987-0.431,1.159-1.026
		c0.235-0.816,0.459-1.633,0.548-2.48c0.007-0.088,0.015-0.177,0.037-0.263c0.1-0.761,0.175-1.524,0.224-2.291
		c0.008-0.052,0.024-0.103,0.04-0.153c0.049-0.161-0.032-0.411,0.148-0.469c0.214-0.068,0.337,0.169,0.479,0.3
		c0.391,0.362,0.742,0.765,1.13,1.131c0.702,0.664,1.523,0.842,2.44,0.605c0.595-0.153,1.155-0.401,1.691-0.705
		c0.218-0.123,0.409-0.302,0.671-0.34c0.047,0.009,0.081,0.032,0.105,0.072c0.159,0.316,0.137,0.656,0.134,0.995
		c-0.001,0.155-0.012,0.312,0.042,0.464c0.024,0.087,0.03,0.176,0.037,0.265c-0.003,0.372,0.064,0.735,0.122,1.101
		c0.023,0.083,0.03,0.169,0.038,0.255c0.106,0.883,0.299,1.746,0.572,2.593c0.07,0.219,0.18,0.278,0.41,0.248
		C47.881,54.979,48.186,54.788,48.496,54.987z"/>
	<path fill-rule="evenodd" clip-rule="evenodd" fill="#363634" d="M46.318,50.599c-0.051-0.513-0.103-1.024-0.153-1.537
		c-0.052-0.062-0.099-0.132-0.095-0.213c0.026-0.672-0.164-1.336-0.071-2.011c0.041-0.184,0.185-0.263,0.341-0.328
		c0.189-0.133,0.416-0.174,0.632-0.227c2.079-0.513,3.968-1.403,5.601-2.806c0.346-0.173,0.59-0.449,0.784-0.775
		c1.103-1.285,1.941-2.724,2.502-4.322c0.03-0.087,0.038-0.241,0.203-0.16c0.834,0.409,1.606,0.104,2.381-0.197
		c0.012-0.005,0.026-0.005,0.039-0.007c0.142,0.234,0.156,0.506,0.158,0.761c0.023,2.733-0.221,5.435-1.125,8.037
		c-0.562,1.62-1.37,3.106-2.504,4.411c-1.126,1.296-2.464,2.29-4.041,2.969c-0.118,0.051-0.215,0.149-0.322,0.227
		c-0.727,0.154-1.451,0.315-2.151,0.567c-0.362-0.01-0.706,0.106-1.058,0.169c-0.184,0.032-0.263-0.017-0.319-0.188
		c-0.297-0.911-0.539-1.833-0.622-2.791c0.067-0.139,0.013-0.286,0.027-0.373c0.006,0.022,0.026,0.105-0.051,0.164
		c-0.1-0.377-0.153-0.76-0.14-1.15c0.076-0.195,0.011-0.393,0.03-0.505C46.376,50.354,46.4,50.479,46.318,50.599z"/>
	<path fill-rule="evenodd" clip-rule="evenodd" fill="#363634" d="M39.628,48.567c-0.061,0.815-0.074,1.636-0.245,2.44
		c-0.048-0.03-0.07-0.064-0.011-0.106c-0.056,0.009-0.046,0.053-0.045,0.089c0.003,0.076-0.019,0.157,0.032,0.227
		c-0.086,1.028-0.358,2.011-0.73,2.968c-0.112,0.287-0.34,0.474-0.644,0.549c-0.361,0.091-0.725,0.171-1.1,0.17
		c-0.316,0.003-0.523-0.188-0.719-0.4c-0.478-0.258-0.817-0.676-1.167-1.066c-0.938-1.049-1.801-2.159-2.565-3.343
		c-1.586-2.456-2.562-5.145-3.074-8.013c-0.24-1.347-0.415-2.697-0.392-4.068c0.053-0.023,0.099-0.002,0.145,0.021
		c0.134,0.077,0.262,0.026,0.391-0.02c0.448-0.104,0.508-0.069,0.581,0.327c0.562,2.003,1.667,3.664,3.208,5.041
		c1.613,1.44,3.546,2.268,5.594,2.866c0.165,0.048,0.324,0.114,0.486,0.171c0.218,0.143,0.31,0.346,0.293,0.602
		c-0.041,0.493-0.05,0.988-0.051,1.482C39.62,48.525,39.624,48.546,39.628,48.567z"/>
	<path fill-rule="evenodd" clip-rule="evenodd" fill="#9C7166" d="M25.299,22.564c0.051-1.826,0.413-3.605,0.875-5.364
		c0.677-2.579,1.656-5.027,3.276-7.174c0.762-1.01,1.563-1.993,2.752-2.547c0.338-0.158,0.684-0.236,1.01,0.023
		c0.32,0.254,0.328,0.631,0.001,1.016C33,8.772,32.759,9.008,32.507,9.224c-1.652,1.412-2.795,3.185-3.696,5.139
		c-1.245,2.7-1.868,5.581-2.486,8.465c-0.053,0.246-0.129,0.488-0.213,0.726c-0.07,0.199-0.218,0.368-0.435,0.354
		c-0.254-0.017-0.341-0.263-0.368-0.465C25.271,23.154,25.299,22.857,25.299,22.564z"/>
	<path fill-rule="evenodd" clip-rule="evenodd" fill="#363634" d="M61.207,33.06c-0.079-1.031-0.267-2.032-0.815-2.934
		c0.124-0.599-0.075-1.028-0.605-1.358c-0.308-0.191-0.545-0.496-0.814-0.749c-0.076-0.11-0.169-0.208-0.243-0.32l0.001,0.001
		c-0.807-0.904-1.212-1.985-1.391-3.166c-0.043-0.486-0.157-0.963-0.199-1.448c-0.005-0.065-0.03-0.13-0.029-0.195
		c0.002-0.142-0.04-0.343,0.127-0.378c0.217-0.045,0.124,0.213,0.212,0.308h-0.001c0.079,0.764,0.217,1.516,0.481,2.24
		c0.292,0.651,0.527,1.328,0.922,1.933c0.427,0.654,0.943,1.229,1.47,1.808c0.129-0.127,0.083-0.253,0.083-0.365
		c0.008-2.101-0.1-4.2-0.094-6.302c0.003-0.855-0.102-1.711,0.019-2.565c0.01-0.074-0.026-0.162,0.083-0.229
		c0.179,0.176,0.167,0.428,0.229,0.642c0.392,1.322,0.616,2.679,0.811,4.042c0.263,1.835,0.216,3.68,0.248,5.523
		c0.019,1.078-0.18,2.129-0.258,3.193C61.433,32.885,61.397,33.034,61.207,33.06z"/>
	<path fill-rule="evenodd" clip-rule="evenodd" fill="#363634" d="M47.608,25.939c-0.116-0.814,0.47-1.017,1.175-1.162
		c1.37-0.283,2.718-0.149,3.994,0.469c0.24,0.116,0.46,0.265,0.643,0.464c0.089,0.097,0.134,0.202,0.086,0.327
		c-0.053,0.137-0.179,0.159-0.299,0.141c-0.522-0.077-1.043-0.167-1.565-0.246c-0.952-0.145-1.906-0.111-2.852,0.038
		c-0.347,0.055-0.688,0.019-1.03,0.061C47.672,26.062,47.589,26.085,47.608,25.939z"/>
	<path fill-rule="evenodd" clip-rule="evenodd" fill="#373633" d="M57.925,27.142C57.334,26.149,57,25.06,56.73,23.947
		c-0.297-1.226-0.416-2.478-0.569-3.727c-0.231-1.892-0.713-3.719-1.43-5.488c-0.394-0.974-0.88-1.896-1.474-2.854
		c0.229,0.094,0.296,0.233,0.383,0.356c1.475,2.075,2.352,4.392,2.779,6.889c0.006,0.035,0.043,0.064,0.065,0.097
		c0.29,1.438,0.419,2.9,0.662,4.345c0.185,1.099,0.408,2.188,0.902,3.199c0.029,0.061,0.037,0.127,0.036,0.194
		C58.068,27.051,58.061,27.153,57.925,27.142z"/>
	<path fill-rule="evenodd" clip-rule="evenodd" fill="#373533" d="M50.913,12.48c0.444,0.747,0.848,1.504,1.181,2.3
		c0.946,2.263,1.518,4.637,2.145,6.996c0.559,2.104,1.342,4.116,2.538,5.95c0.041,0.063,0.067,0.138,0.12,0.247
		c-0.225-0.062-0.283-0.229-0.381-0.355c-1.221-1.582-2.006-3.369-2.512-5.292c-0.532-2.026-0.953-4.084-1.685-6.055
		c-0.444-1.194-0.901-2.385-1.351-3.577C50.942,12.626,50.932,12.552,50.913,12.48z"/>
	<path fill-rule="evenodd" clip-rule="evenodd" fill="#F9AC4B" d="M30.975,57.004c2.033,2.586,4.756,3.963,7.939,4.536
		c0.234,0.042,0.463,0.104,0.695,0.158c0.025,0.028,0.045,0.061,0.062,0.095c0.125,0.236,0.141,0.48,0.052,0.732
		c-0.077,0.219,0.009,0.329,0.232,0.353c0.119,0.012,0.236,0.038,0.354,0.06c0.267,0.05,0.41-0.041,0.397-0.331
		c-0.011-0.277,0.037-0.533,0.302-0.692c0.058-0.028,0.118-0.021,0.179-0.009c0.124,0.052,0.218,0.126,0.204,0.278
		c-0.029,0.059-0.075,0.098-0.137,0.116c-0.255,0.082-0.166,0.302-0.175,0.47c-0.027,0.509-0.086,0.561-0.6,0.499
		c-0.262-0.032-0.526-0.035-0.788-0.087c-0.297-0.059-0.393-0.216-0.348-0.507c0.035-0.225,0.153-0.463-0.047-0.675
		c-0.277-0.278-0.657-0.242-0.998-0.328c-0.332-0.083-0.661-0.181-1.003-0.209c-0.207,0.03-0.264,0.187-0.315,0.358
		c-0.063,0.213-0.096,0.439-0.239,0.622c-0.176,0.098-0.338,0.015-0.498-0.046c-0.374-0.14-0.748-0.281-1.114-0.441
		c-0.515-0.225-0.565-0.331-0.386-0.853c0.042-0.119,0.122-0.234,0.069-0.385c-0.105,0.125-0.111,0.275-0.158,0.409
		c-0.139,0.399-0.288,0.459-0.655,0.26c-0.387-0.209-0.756-0.447-1.124-0.688c-0.48-0.316-0.462-0.618,0.062-0.938
		c0.104,0.056,0.119,0.16,0.071,0.238c-0.184,0.296,0.004,0.424,0.221,0.561c0.28,0.177,0.549,0.369,0.852,0.509
		c0.153,0.07,0.233,0.042,0.3-0.125c0.216-0.536,0.222-0.533-0.28-0.853c-0.111-0.071-0.241-0.124-0.334-0.213
		c-0.248-0.235-0.5-0.314-0.796-0.098c-0.104-0.087-0.004-0.198-0.043-0.322c-0.191,0.151-0.272,0.366-0.396,0.546
		c-0.146,0.212-0.288,0.228-0.493,0.063c-0.438-0.352-0.833-0.746-1.223-1.147c-0.312-0.322-0.316-0.454-0.056-0.836
		c0.081-0.119,0.194-0.22,0.25-0.45c-0.21,0.147-0.301,0.313-0.408,0.462c-0.154,0.215-0.307,0.248-0.457-0.001
		c-0.219-0.363-0.441-0.726-0.607-1.118c0.079-0.103,0.257-0.064,0.303-0.214C30.219,56.844,30.597,56.924,30.975,57.004z"/>
	<path fill-rule="evenodd" clip-rule="evenodd" fill="#E99D72" d="M33.051,23.859c-0.289,0.595-0.675,1.113-1.203,1.52
		c0.533-0.952,1.076-1.898,1.596-2.857c1.817-3.35,3.529-6.753,5.115-10.219c0.049-0.106,0.103-0.209,0.2-0.405
		c-0.039,0.886-0.097,1.669-0.103,2.452c-0.016,2.083,0.142,4.152,0.646,6.181c0.55,2.213,1.547,4.188,3.177,5.815
		c-0.063,0.275,0.053,0.531,0.082,0.797c0.009,0.088,0.011,0.209-0.039,0.262c-0.072,0.077-0.174-0.008-0.249-0.054
		c-0.359-0.219-0.739-0.412-0.992-0.768c0.088-0.077,0.181-0.05,0.255,0.011c0.249,0.202,0.547,0.345,0.76,0.582
		c0.042-0.398-0.083-0.75-0.379-1.064c-1.299-1.375-2.096-3.028-2.663-4.813c-0.283-0.891-0.48-1.804-0.583-2.723
		c-0.081-0.722-0.235-1.44-0.214-2.179c0.031-1.072,0.008-2.146,0.008-3.251c-1.048,2.25-2.167,4.427-3.271,6.61
		c-0.66,1.305-1.299,2.623-2.094,3.856C33.06,23.674,32.908,23.748,33.051,23.859z"/>
	<path fill-rule="evenodd" clip-rule="evenodd" fill="#383532" d="M45.288,14.02c-0.119-0.584-0.248-1.165-0.353-1.751
		c-0.062-0.346-0.085-0.698-0.076-1.066c1.074,4.692,3.097,8.891,6.397,12.439c-0.479-0.236-0.854-0.578-1.179-0.966
		c-1.361-1.626-2.514-3.392-3.428-5.307c-0.399-0.837-0.741-1.702-1.109-2.555C45.314,14.595,45.192,14.342,45.288,14.02z"/>
	<path fill-rule="evenodd" clip-rule="evenodd" fill="#EC9B6F" d="M30.086,38.342c-0.099-0.416-0.382-0.288-0.645-0.218
		c-0.131,0.007-0.267,0.056-0.39-0.032c-0.027-0.026-0.054-0.053-0.081-0.079c-0.009-0.207-0.019-0.414-0.029-0.621
		c-0.111-0.376-0.02-0.744,0.036-1.114c0.137-0.449,0.042-0.916,0.113-1.486c0.271,0.637,0.501,1.181,0.731,1.725
		c0.149,0.056,0.1,0.222,0.176,0.317c0.029,0.101,0.026,0.211,0.088,0.302C30.189,37.537,30.232,37.939,30.086,38.342z"/>
	<path fill-rule="evenodd" clip-rule="evenodd" fill="#E69C73" d="M44.968,27.065c-0.074-0.001-0.141,0.015-0.179,0.088
		c-0.985-1.57-2.075-3.075-2.942-4.718c-0.067-0.127-0.111-0.266-0.166-0.399c-0.038-0.095-0.057-0.18,0.092-0.179
		c1.086,1.521,2.283,2.933,3.882,3.951c1.58,1.007,3.322,1.517,5.166,1.736c0.436,0.052,0.872,0.09,1.312,0.082
		c0.11-0.002,0.243,0.059,0.325-0.077c0.05-0.058,0.112-0.054,0.178-0.036c0.052,0.047,0.064,0.105,0.047,0.172
		c-0.149,0.201-0.365,0.207-0.578,0.172c-0.708-0.118-1.427-0.043-2.142-0.194c-1.085-0.229-2.146-0.509-3.157-0.962
		c-1.611-0.724-2.919-1.839-4.046-3.182c-0.135-0.161-0.266-0.322-0.317-0.436c0.758,1.239,1.625,2.514,2.47,3.803
		C44.95,26.942,44.996,26.991,44.968,27.065z"/>
	<path fill-rule="evenodd" clip-rule="evenodd" fill="#383532" d="M57.449,22.819c-0.054-0.086-0.108-0.172-0.224-0.356
		c-0.033,0.786,0.192,1.445,0.221,2.119c-0.312-0.237-0.252-0.612-0.307-0.927c-0.224-1.284-0.317-2.582-0.291-3.887
		c0.001-0.078,0.016-0.161-0.04-0.23c-0.069-1.143-0.357-2.24-0.667-3.336c-0.188-0.664-0.469-1.293-0.694-1.942
		c0.026-0.027,0.054-0.028,0.08,0c0.802,1.739,1.384,3.541,1.608,5.452C57.257,20.746,57.431,21.775,57.449,22.819z"/>
	<path fill-rule="evenodd" clip-rule="evenodd" fill="#554843" d="M56.809,19.538c0.126,0.446,0.121,0.909,0.157,1.365
		c0.093,1.173,0.131,2.353,0.401,3.505c0.015,0.061,0.053,0.116,0.079,0.174c0.144,1.057,0.574,1.998,1.162,2.875
		c0.052,0.077,0.12,0.142,0.121,0.242c-0.065-0.038-0.13-0.076-0.233-0.137c0.059,0.179,0.105,0.319,0.151,0.459
		c-0.37-0.167-0.439-0.541-0.592-0.857c-0.025-0.056,0.005-0.132-0.048-0.185c-0.525-1.281-0.873-2.612-1.069-3.981
		c-0.142-0.993-0.256-1.991-0.366-2.989c-0.029-0.263-0.128-0.519-0.087-0.789c0.184,0.399,0.167,0.842,0.323,1.261
		C56.809,20.166,56.809,19.853,56.809,19.538z"/>
	<path fill-rule="evenodd" clip-rule="evenodd" fill="#373533" d="M28.969,24.5c-0.551,0.946-1.321,1.69-2.192,2.328
		c-0.564,0.414-1.135,0.832-1.818,1.046c-0.113,0.034-0.261,0.129-0.331,0.018c-0.093-0.147,0.091-0.229,0.181-0.305
		c0.461-0.386,1.02-0.616,1.528-0.928c0.98-0.601,1.849-1.324,2.552-2.239C28.961,24.401,29,24.416,28.969,24.5z"/>
	<path fill-rule="evenodd" clip-rule="evenodd" fill="#9B7066" d="M36.166,5.238c-0.006,0.118-0.078,0.198-0.168,0.256
		c-0.502,0.32-0.975,0.681-1.446,1.043c-0.124,0.096-0.271,0.176-0.43,0.032c-0.156-0.142-0.092-0.281-0.019-0.43
		c0.22-0.448,1.336-1.114,1.815-1.085C36.043,5.062,36.163,5.068,36.166,5.238z"/>
	<path fill-rule="evenodd" clip-rule="evenodd" fill="#3F3733" d="M64.638,31.938c0.075,0.274-0.036,0.572,0.103,0.84
		c-0.004,0.102,0.124,0.247-0.092,0.279c-0.162-0.761-0.328-1.521-0.486-2.283c-0.427-2.054-0.852-4.108-1.273-6.163
		c-0.117-0.568-0.294-1.125-0.323-1.71c-0.03-0.085,0.01-0.1,0.082-0.081c0.436,2.122,0.869,4.245,1.31,6.366
		c0.14,0.673,0.291,1.343,0.449,2.012C64.466,31.449,64.56,31.691,64.638,31.938z"/>
	<path fill-rule="evenodd" clip-rule="evenodd" fill="#977269" d="M30.646,18.177c0.593-1.803,1.415-3.498,2.407-5.112
		c0.072-0.02,0.11-0.006,0.078,0.078c-0.849,1.71-1.671,3.433-2.406,5.195C30.576,18.345,30.603,18.265,30.646,18.177z"/>
	<path fill-rule="evenodd" clip-rule="evenodd" fill="#967369" d="M39.683,13.145c0.208,1.71,0.661,3.353,1.354,4.929
		c0.085,0.194,0.169,0.389,0.254,0.583c0.033,0.085-0.008,0.099-0.08,0.082c-0.796-1.469-1.33-3.025-1.591-4.675
		c-0.023-0.144-0.013-0.292-0.018-0.438C39.602,13.461,39.453,13.271,39.683,13.145z"/>
	<path fill-rule="evenodd" clip-rule="evenodd" fill="#917168" d="M43.934,19.137c-0.796-1.387-1.309-2.86-1.368-4.472
		c-0.039-0.085-0.074-0.167,0.076-0.161c0.137,1.376,0.471,2.697,1.094,3.939c0.1,0.199,0.185,0.407,0.276,0.611
		C44.046,19.14,44.005,19.153,43.934,19.137z"/>
	<path fill-rule="evenodd" clip-rule="evenodd" fill="#E59E77" d="M57.192,29.619c-0.396-0.186-0.79-0.372-1.186-0.559
		c-0.539-0.399-1.091-0.782-1.641-1.165c-0.269-0.188-0.629-0.168-0.945,0.001c-0.207,0.009-0.387-0.03-0.452-0.265
		c0.371-0.021,0.742-0.034,1.112-0.067c0.161-0.016,0.283,0.037,0.401,0.132c0.79,0.632,1.633,1.185,2.527,1.659
		C57.116,29.412,57.231,29.462,57.192,29.619z"/>
	<path fill-rule="evenodd" clip-rule="evenodd" fill="#FCBE9A" d="M52.969,27.632c0.141,0.117,0.299,0.196,0.479,0.231
		c0.439,0.14,0.923,0.194,1.205,0.634c-0.287,0.032-0.489,0.351-0.818,0.239c-0.013-0.038-0.007-0.072,0.019-0.104
		c0.054-0.042,0.119-0.056,0.203-0.089c-0.344-0.217-0.699-0.379-1.045-0.559c-0.137-0.071-0.305-0.11-0.36-0.286
		c0.002-0.052,0.003-0.104,0.005-0.154c0.022-0.035,0.048-0.038,0.077-0.008C52.811,27.568,52.89,27.601,52.969,27.632z"/>
	<path fill-rule="evenodd" clip-rule="evenodd" fill="#473B36" d="M55.527,14.26c-0.026,0-0.054,0-0.08,0
		c-0.397-0.788-0.788-1.581-1.279-2.317c-0.234-0.352-0.479-0.695-0.72-1.043c-0.022-0.018-0.03-0.036-0.022-0.054
		s0.015-0.027,0.022-0.027c0.473,0.438,0.775,0.997,1.1,1.54C54.914,12.971,55.286,13.582,55.527,14.26z"/>
	<path fill-rule="evenodd" clip-rule="evenodd" fill="#876B63" d="M39.683,13.145c-0.139,0.142-0.044,0.322-0.079,0.481
		c-0.113-0.123-0.071-0.275-0.074-0.416c-0.019-0.986-0.026-1.973,0.162-2.947c0.025-0.029,0.051-0.03,0.078-0.003
		C39.668,11.219,39.669,12.182,39.683,13.145z"/>
	<path fill-rule="evenodd" clip-rule="evenodd" fill="#967066" d="M45.288,14.02c0.085,0.265,0.169,0.529,0.253,0.795
		c-0.016,0.073,0.016,0.176-0.067,0.212c-0.089,0.039-0.143-0.042-0.179-0.112c-0.119-0.232-0.236-0.466-0.351-0.701
		c-0.067-0.138-0.112-0.295,0.049-0.382C45.166,13.737,45.183,13.965,45.288,14.02z"/>
	<path fill-rule="evenodd" clip-rule="evenodd" fill="#967066" d="M33.861,12.749c0.104-0.483,0.339-0.815,0.64-1.11
		c0.068-0.066,0.133-0.077,0.205-0.007c0.052,0.051,0.079,0.106,0.033,0.173C34.507,12.145,34.308,12.517,33.861,12.749z"/>
	<path fill-rule="evenodd" clip-rule="evenodd" fill="#836961" d="M47.608,25.939c0.051,0.03,0.101,0.061,0.151,0.091
		c0.263,0.247,0.596,0.386,0.927,0.576c-0.329-0.011-0.574-0.125-1.342-0.684c-0.406-0.296-0.785-0.629-1.176-0.945
		c-0.024-0.02-0.032-0.04-0.023-0.06c0.008-0.02,0.016-0.029,0.024-0.029c0.415,0.217,0.713,0.589,1.104,0.838
		C47.385,25.798,47.497,25.868,47.608,25.939z"/>
	<path fill-rule="evenodd" clip-rule="evenodd" fill="#464543" d="M21.271,39.056c0.01-0.053,0.021-0.104,0.031-0.156
		c0.142-0.031,0.078,0.12,0.142,0.158c-0.057,0.589-0.113,1.177-0.17,1.765c-0.118,0.105-0.026,0.276-0.114,0.429
		c-0.119-0.606,0.07-1.163,0.042-1.728C21.134,39.354,21.201,39.204,21.271,39.056z"/>
	<path fill-rule="evenodd" clip-rule="evenodd" fill="#453B37" d="M22.562,49.54c-0.08-0.211-0.159-0.422-0.238-0.634
		c-0.033-0.088,0.009-0.103,0.084-0.085c0.335,0.877,0.963,1.566,1.474,2.335C23.338,50.703,23.046,50.041,22.562,49.54z"/>
	<path fill-rule="evenodd" clip-rule="evenodd" fill="#463B36" d="M62.647,22.82c-0.027,0.027-0.055,0.054-0.082,0.081
		c-0.228-0.906-0.455-1.812-0.684-2.72C62.282,21.02,62.416,21.934,62.647,22.82z"/>
	<path fill-rule="evenodd" clip-rule="evenodd" fill="#8A6D64" d="M30.322,15.217c0.218-0.745,0.648-1.378,1.073-2.016
		c-0.317,0.704-0.704,1.376-0.992,2.093C30.331,15.316,30.296,15.299,30.322,15.217z"/>
	<path fill-rule="evenodd" clip-rule="evenodd" fill="#8E6E65" d="M34.332,14.264c-0.216,0.557-0.432,1.114-0.647,1.672
		c-0.071,0.021-0.109,0.008-0.078-0.076c0.162-0.58,0.364-1.144,0.644-1.679C34.323,14.164,34.363,14.178,34.332,14.264z"/>
	<path fill-rule="evenodd" clip-rule="evenodd" fill="#3E3632" d="M58.008,26.979c0.254,0.322,0.318,0.761,0.64,1.042
		c0.05,0.105,0.1,0.21,0.149,0.314c-0.394-0.327-0.683-0.725-0.872-1.194C57.99,27.107,58.006,27.047,58.008,26.979z"/>
	<path fill-rule="evenodd" clip-rule="evenodd" fill="#907168" d="M48.729,16.099c-0.217-0.532-0.435-1.065-0.651-1.598
		c0.029-0.033,0.059-0.035,0.089-0.001c0.233,0.496,0.581,0.944,0.648,1.512C48.845,16.098,48.805,16.115,48.729,16.099z"/>
	<path fill-rule="evenodd" clip-rule="evenodd" fill="#383532" d="M57.93,25.06c-0.343-0.708-0.491-1.457-0.481-2.24
		C57.608,23.565,57.77,24.312,57.93,25.06z"/>
	<path fill-rule="evenodd" clip-rule="evenodd" fill="#5B4135" d="M28.977,36.277c-0.012,0.371-0.024,0.742-0.036,1.113
		c-0.113,0.164-0.009,0.364-0.098,0.604c-0.116-0.736,0.069-1.393,0.054-2.079C29.015,36.039,28.944,36.168,28.977,36.277z"/>
	<path fill-rule="evenodd" clip-rule="evenodd" fill="#4E433D" d="M64.803,35.381c0.041,0.906,0.043,1.812-0.002,2.718
		c-0.127-0.135-0.068-0.301-0.07-0.452c-0.007-0.631-0.005-1.263-0.001-1.894C64.73,35.627,64.688,35.486,64.803,35.381z"/>
	<path fill-rule="evenodd" clip-rule="evenodd" fill="#8B6E65" d="M30.646,18.177c0.004,0.064,0.015,0.126,0.079,0.161
		c-0.161,0.452-0.321,0.904-0.481,1.356c-0.072,0.022-0.108,0.007-0.08-0.076C30.272,19.12,30.434,18.64,30.646,18.177z"/>
	<path fill-rule="evenodd" clip-rule="evenodd" fill="#886C64" d="M42.642,14.504c-0.062,0.036-0.071,0.098-0.076,0.161
		c-0.164-0.461-0.042-0.938-0.075-1.406c-0.014-0.197,0-0.396,0.002-0.594c0.195,0.023,0.101,0.142,0.077,0.236
		C42.538,13.438,42.612,13.97,42.642,14.504z"/>
	<path fill-rule="evenodd" clip-rule="evenodd" fill="#ECE9E4" d="M36.167,54.503c0.24,0.134,0.479,0.267,0.719,0.4
		c-0.114,0.129-0.271,0.062-0.408,0.09C36.356,54.842,36.153,54.741,36.167,54.503z"/>
	<path fill-rule="evenodd" clip-rule="evenodd" fill="#DA9D7B" d="M41.773,21.857c-0.073,0.037-0.083,0.107-0.092,0.179
		c-0.188-0.268-0.306-0.567-0.406-0.876c-0.028-0.052-0.02-0.097,0.025-0.135C41.487,21.286,41.656,21.557,41.773,21.857z"/>
	<path fill-rule="evenodd" clip-rule="evenodd" fill="#D69C7E" d="M52.732,27.537c-0.025,0.006-0.052,0.008-0.077,0.008
		c-0.065,0.002-0.132,0.003-0.197,0.005c-0.26-0.09-0.467-0.265-0.688-0.417c-0.011-0.073,0.002-0.121,0.091-0.082
		C52.151,27.213,52.441,27.375,52.732,27.537z"/>
	<path fill-rule="evenodd" clip-rule="evenodd" fill="#483D38" d="M24.962,52.278c-0.02,0.003-0.038,0-0.056-0.01
		c-0.197,0.054-0.327-0.04-0.43-0.193c0.004-0.019,0.008-0.037,0.012-0.056c0.221-0.192-0.157-0.21-0.078-0.381
		c0.245,0.128,0.44,0.326,0.63,0.53C25.041,52.225,25.014,52.261,24.962,52.278z"/>
	<path fill-rule="evenodd" clip-rule="evenodd" fill="#8C6E66" d="M41.212,18.738c0.026-0.027,0.053-0.055,0.08-0.082
		c0.186,0.321,0.372,0.642,0.557,0.963c0.034,0.084-0.005,0.096-0.075,0.077C41.586,19.377,41.399,19.058,41.212,18.738z"/>
	<path fill-rule="evenodd" clip-rule="evenodd" fill="#785E57" d="M42.57,12.901c-0.008-0.084,0.015-0.18-0.077-0.236
		c-0.04-0.306,0.077-0.589,0.129-0.884C42.61,12.156,42.73,12.535,42.57,12.901z"/>
	<path fill-rule="evenodd" clip-rule="evenodd" fill="#81675E" d="M33.131,13.143c-0.026-0.026-0.052-0.053-0.078-0.078
		c0.208-0.314,0.416-0.629,0.624-0.942c0.028,0.018,0.056,0.036,0.083,0.055C33.551,12.498,33.341,12.82,33.131,13.143z"/>
	<path fill-rule="evenodd" clip-rule="evenodd" fill="#866A62" d="M31.495,14.278c0.109-0.286,0.176-0.592,0.444-0.777
		C31.838,13.789,31.738,14.076,31.495,14.278z"/>
	<path fill-rule="evenodd" clip-rule="evenodd" fill="#886C63" d="M43.934,19.137c0.025-0.027,0.052-0.055,0.078-0.082
		c0.208,0.309,0.416,0.617,0.561,0.963l-0.008,0.007C44.253,19.801,44.143,19.434,43.934,19.137z"/>
	<path fill-rule="evenodd" clip-rule="evenodd" fill="#7F655E" d="M41.773,19.696c0.025-0.025,0.05-0.052,0.075-0.077
		c0.209,0.293,0.418,0.586,0.627,0.878C42.149,20.305,41.972,19.992,41.773,19.696z"/>
	<path fill-rule="evenodd" clip-rule="evenodd" fill="#796159" d="M46.17,24.889c-0.001,0.029-0.001,0.06-0.001,0.089
		c-0.288-0.21-0.521-0.475-0.737-0.757C45.73,24.385,45.953,24.633,46.17,24.889z"/>
	<path fill-rule="evenodd" clip-rule="evenodd" fill="#876B63" d="M48.729,16.099c0.028-0.028,0.057-0.058,0.085-0.087
		c0.124,0.283,0.186,0.582,0.238,0.885c0.031,0.083-0.008,0.098-0.079,0.079C48.893,16.683,48.812,16.391,48.729,16.099z"/>
	<path fill-rule="evenodd" clip-rule="evenodd" fill="#48413E" d="M22.735,50.822c0.025,0.003,0.049,0.002,0.074-0.003
		c0.116,0.242,0.426,0.259,0.561,0.479c-0.013,0.056-0.047,0.092-0.102,0.108c-0.14,0.001-0.21-0.112-0.304-0.186
		C22.92,51.069,22.675,51.032,22.735,50.822z"/>
	<path fill-rule="evenodd" clip-rule="evenodd" fill="#474442" d="M64.648,33.058c0.103-0.069,0.069-0.184,0.092-0.279
		c0.073,0.306,0.146,0.61,0.219,0.916c-0.144,0.072-0.192,0.021-0.165-0.128C64.745,33.397,64.697,33.228,64.648,33.058z"/>
	<path fill-rule="evenodd" clip-rule="evenodd" fill="#765F58" d="M47.762,13.86c-0.185-0.208-0.248-0.477-0.388-0.708
		c0.028-0.017,0.056-0.032,0.084-0.048c0.129,0.252,0.258,0.504,0.388,0.757C47.817,13.899,47.79,13.899,47.762,13.86z"/>
	<path fill-rule="evenodd" clip-rule="evenodd" fill="#483D38" d="M23.768,51.541c0.212,0.202,0.544,0.223,0.721,0.479l0,0
		c-0.356,0.083-0.587-0.132-0.818-0.347C23.663,51.601,23.71,51.566,23.768,51.541z"/>
	<path fill-rule="evenodd" clip-rule="evenodd" fill="#514945" d="M24.962,52.278c0.026-0.036,0.053-0.072,0.079-0.109
		c0.354,0.116,0.362,0.132,0.167,0.331C25.125,52.426,25.044,52.353,24.962,52.278z"/>
	<path fill-rule="evenodd" clip-rule="evenodd" fill="#473C37" d="M28.969,24.5c-0.027-0.026-0.054-0.053-0.081-0.08
		c0.11-0.172,0.219-0.345,0.329-0.518C29.192,24.133,29.122,24.336,28.969,24.5z"/>
	<path fill-rule="evenodd" clip-rule="evenodd" fill="#806760" d="M34.332,14.264c-0.027-0.027-0.055-0.056-0.082-0.083
		c0.092-0.183,0.184-0.365,0.276-0.547c0.029,0.015,0.059,0.028,0.088,0.043C34.521,13.872,34.426,14.068,34.332,14.264z"/>
	<path fill-rule="evenodd" clip-rule="evenodd" fill="#866B63" d="M47.762,13.86c0.028,0.001,0.056,0.001,0.084,0.001
		c0.106,0.213,0.214,0.426,0.321,0.639c-0.03,0-0.06,0.001-0.089,0.001C47.928,14.31,47.827,14.094,47.762,13.86z"/>
	<path fill-rule="evenodd" clip-rule="evenodd" fill="#4D3F3A" d="M53.448,10.818c0,0.027,0,0.055,0,0.081
		c-0.131-0.156-0.262-0.312-0.393-0.468C53.249,10.508,53.421,10.6,53.448,10.818z"/>
	<path fill-rule="evenodd" clip-rule="evenodd" fill="#694A3B" d="M29.947,36.881c-0.042-0.122-0.084-0.243-0.126-0.365
		c0.118-0.06,0.103-0.174,0.116-0.277c0.088,0.151,0.066,0.322,0.088,0.485C30.038,36.795,30.093,36.888,29.947,36.881z"/>
	<path fill-rule="evenodd" clip-rule="evenodd" fill="#CA987D" d="M51.861,27.051c-0.03,0.027-0.061,0.055-0.091,0.082
		c-0.139-0.088-0.277-0.176-0.416-0.263C51.573,26.831,51.715,26.945,51.861,27.051z"/>
	<path fill-rule="evenodd" clip-rule="evenodd" fill="#595A59" d="M22.408,48.821c-0.028,0.028-0.056,0.057-0.084,0.085
		c-0.07-0.167-0.277-0.292-0.156-0.517c0.099,0.093,0.095,0.259,0.229,0.326C22.401,48.751,22.405,48.786,22.408,48.821z"/>
	<path fill-rule="evenodd" clip-rule="evenodd" fill="#735C55" d="M30.322,15.217c0.027,0.025,0.054,0.052,0.081,0.077
		c-0.058,0.115-0.116,0.23-0.197,0.393C30.137,15.461,30.216,15.335,30.322,15.217z"/>
	<path fill-rule="evenodd" clip-rule="evenodd" fill="#A07E6D" d="M50.889,26.574c-0.135-0.09-0.27-0.181-0.404-0.271
		c0.019-0.027,0.037-0.055,0.056-0.083c0.119,0.084,0.237,0.168,0.355,0.252C50.937,26.51,50.934,26.543,50.889,26.574z"/>
	<path fill-rule="evenodd" clip-rule="evenodd" fill="#7A6159" d="M48.974,16.976c0.026-0.026,0.053-0.053,0.079-0.079
		c0.113,0.137,0.094,0.313,0.195,0.56C49.034,17.284,49.049,17.104,48.974,16.976z"/>
	<path fill-rule="evenodd" clip-rule="evenodd" fill="#433834" d="M23.768,51.541c-0.027,0.026-0.053,0.053-0.08,0.079
		c-0.21,0.048-0.328-0.058-0.399-0.241c0.027-0.026,0.054-0.054,0.081-0.08C23.502,51.379,23.635,51.46,23.768,51.541z"/>
	<path fill-rule="evenodd" clip-rule="evenodd" fill="#725B54" d="M39.771,10.26c-0.026,0-0.052,0.001-0.078,0.003
		c-0.013-0.122,0.014-0.233,0.105-0.344C39.875,10.051,39.875,10.158,39.771,10.26z"/>
	<path fill-rule="evenodd" clip-rule="evenodd" fill="#4A3D37" d="M22.313,43.836c0.006-0.179,0.012-0.357,0.018-0.536
		c0.131,0.176,0.081,0.368,0.049,0.559c0,0.003-0.024,0.005-0.036,0.002C22.333,43.856,22.323,43.845,22.313,43.836z"/>
	<path fill-rule="evenodd" clip-rule="evenodd" fill="#312D2B" d="M23.616,28.34c0.029-0.132,0.057-0.264,0.086-0.396
		c0.085,0.066,0.063,0.166,0.079,0.255c0.039,0.081,0.024,0.143-0.064,0.178C23.678,28.379,23.644,28.367,23.616,28.34z"/>
	<path fill-rule="evenodd" clip-rule="evenodd" fill="#725B54" d="M42.81,20.923c-0.173-0.014-0.202-0.134-0.358-0.259
		C42.692,20.696,42.742,20.794,42.81,20.923z"/>
	<path fill-rule="evenodd" clip-rule="evenodd" fill="#C0957E" d="M41.3,21.025c-0.009,0.045-0.017,0.09-0.025,0.135
		c-0.066-0.12-0.132-0.241-0.211-0.387C41.259,20.784,41.264,20.919,41.3,21.025z"/>
	<path fill-rule="evenodd" clip-rule="evenodd" fill="#AF8773" d="M50.889,26.574c0.003-0.034,0.005-0.067,0.007-0.102
		c0.103,0.048,0.224,0.066,0.288,0.207C51.039,26.751,50.98,26.608,50.889,26.574z"/>
	<path fill-rule="evenodd" clip-rule="evenodd" fill="#7B635C" d="M44.811,20.338c0.101,0.058,0.194,0.12,0.223,0.3
		c-0.145-0.079-0.221-0.156-0.228-0.295L44.811,20.338z"/>
	<path fill-rule="evenodd" clip-rule="evenodd" fill="#554843" d="M58.729,27.698c0.128,0.071,0.23,0.162,0.243,0.32
		C58.839,27.951,58.734,27.862,58.729,27.698z"/>
	<path fill-rule="evenodd" clip-rule="evenodd" fill="#8D6F62" d="M40.986,20.403c0.091,0.052,0.158,0.131,0.088,0.2
		c-0.071,0.071-0.094-0.029-0.104-0.086C40.965,20.484,40.979,20.447,40.986,20.403z"/>
	<path fill-rule="evenodd" clip-rule="evenodd" fill="#81685F" d="M44.572,20.018c0.126,0.072,0.226,0.164,0.238,0.32l-0.005,0.004
		c-0.127-0.07-0.229-0.16-0.241-0.317L44.572,20.018z"/>
	<path fill-rule="evenodd" clip-rule="evenodd" fill="#958883" d="M26.312,52.188c-0.047-0.074-0.116-0.167,0.003-0.216
		c0.071-0.028,0.085,0.068,0.088,0.133C26.373,52.134,26.367,52.188,26.312,52.188z"/>
	<path fill-rule="evenodd" clip-rule="evenodd" fill="#775D56" d="M33.607,15.859c0.026,0.025,0.052,0.051,0.078,0.076
		c-0.032,0.063-0.064,0.126-0.107,0.209C33.502,16.016,33.521,15.932,33.607,15.859z"/>
	<path fill-rule="evenodd" clip-rule="evenodd" fill="#735D55" d="M30.165,19.618c0.027,0.025,0.053,0.051,0.08,0.076
		c-0.03,0.066-0.077,0.194-0.113,0.168C30.037,19.792,30.086,19.692,30.165,19.618z"/>
	<path fill-rule="evenodd" clip-rule="evenodd" fill="#694A3B" d="M29.858,35.751c0.081,0.134,0.075,0.281,0.072,0.429
		C29.792,36.057,29.864,35.897,29.858,35.751z"/>
	<path fill-rule="evenodd" clip-rule="evenodd" fill="#6F5B53" d="M45.333,20.921c-0.037,0.015-0.069,0.037-0.077,0.03
		c-0.038-0.031-0.084-0.065-0.099-0.108c-0.015-0.046,0.031-0.063,0.067-0.036C45.264,20.837,45.294,20.879,45.333,20.921z"/>
	<path fill-rule="evenodd" clip-rule="evenodd" fill="#DF6F41" d="M32.965,59.775c-0.032,0.023-0.071,0.041-0.094,0.072
		c-0.365,0.485-0.366,0.489,0.139,0.812c0.369,0.236,0.747,0.457,1.114,0.696c0.226,0.146,0.341,0.059,0.41-0.161
		c0.056-0.177,0.098-0.358,0.159-0.533c0.029-0.08,0.059-0.21,0.172-0.183c0.132,0.031,0.123,0.171,0.096,0.269
		c-0.052,0.191-0.129,0.375-0.194,0.563c-0.06,0.175-0.088,0.346,0.131,0.433c0.602,0.24,1.178,0.55,1.822,0.674
		c0.183-0.267,0.139-0.631,0.364-0.912c0.284,0.329-0.118,0.626,0.018,0.918c0.532,0.224,1.102,0.292,1.658,0.409
		c0.224,0.048,0.26-0.113,0.304-0.275c0.056-0.211,0.002-0.464,0.226-0.613c0.133-0.011,0.243,0.01,0.239,0.179
		c-0.001,0.092,0.003,0.187-0.012,0.276c-0.118,0.7-0.119,0.722,0.592,0.729c0.272,0.002,0.588,0.22,0.795,0.024
		c0.186-0.174,0.041-0.503,0.066-0.762c0.024-0.254,0.097-0.369,0.317-0.128c0.164,0.164,0.094,0.376,0.112,0.569
		c0.011,0.123,0.009,0.262,0.173,0.266c0.438,0.013,0.877,0.038,1.315-0.017c0.056-0.007,0.084-0.061,0.104-0.112
		c-0.016-0.196-0.058-0.388-0.094-0.58c-0.033-0.172-0.038-0.341,0.124-0.463c0.041-0.019,0.083-0.022,0.126-0.011
		c0.296,0.162,0.254,0.476,0.317,0.735c0.106,0.438,0.094,0.428,0.541,0.396c0.86-0.062,1.702-0.232,2.545-0.404
		c0.105-0.022,0.208-0.039,0.289-0.115c0.086-0.261-0.09-0.482-0.106-0.727c-0.009-0.127-0.051-0.301,0.115-0.326
		c0.135-0.021,0.151,0.155,0.191,0.261c0.08,0.206,0.062,0.446,0.225,0.621c0.21,0.082,0.382-0.068,0.573-0.094
		c0.584-0.143,1.14-0.367,1.706-0.562c0.237-0.082,0.26-0.227,0.142-0.432c-0.08-0.139-0.171-0.271-0.226-0.424
		c-0.051-0.145-0.082-0.298,0.096-0.378c0.153-0.069,0.251,0.027,0.328,0.149c0.05,0.079,0.09,0.163,0.133,0.246
		c0.259,0.498,0.262,0.504,0.783,0.25c0.383-0.187,0.738-0.427,1.129-0.602c0.251-0.112,0.229-0.253,0.054-0.422
		c-0.115-0.111-0.219-0.235-0.26-0.396c-0.021-0.08-0.022-0.163,0.043-0.225c0.085-0.079,0.174-0.039,0.254,0.015
		c0.146,0.097,0.263,0.227,0.38,0.354c0.152,0.164,0.301,0.197,0.484,0.046c0.237-0.194,0.495-0.361,0.746-0.537
		c0.202-0.142,0.256-0.284,0.086-0.494c-0.114-0.141-0.244-0.291-0.182-0.503c0.052-0.03,0.104-0.061,0.154-0.091
		c0.217-0.033,0.308,0.135,0.393,0.273c0.159,0.26,0.305,0.23,0.493,0.033c0.283-0.296,0.575-0.583,0.869-0.869
		c0.112-0.109,0.221-0.238,0.409-0.172c0.056,0.028,0.11,0.057,0.166,0.085c-0.005,0.031-0.009,0.062-0.014,0.093
		c-0.228,0.131-0.329,0.376-0.503,0.559c-1.69,1.772-3.719,3.026-5.986,3.915c-1.648,0.646-3.351,1.08-5.11,1.28
		c-0.386-0.106-0.76,0.059-1.141,0.046c-0.966-0.033-1.935,0.072-2.898-0.076c-0.114-0.019-0.239-0.029-0.352,0.028
		c-2.212-0.235-4.319-0.818-6.264-1.923c-1.612-0.915-3.004-2.078-4-3.665c-0.154-0.245-0.253-0.524-0.377-0.788
		c0.056-0.033,0.111-0.065,0.167-0.099c0.34,0.249,0.391,0.687,0.643,0.994c0.065,0.079,0.07,0.205,0.198,0.245
		c0.171-0.213,0.342-0.43,0.519-0.642c0.049-0.059,0.115-0.128,0.204-0.074c0.119,0.071,0.049,0.169,0.004,0.241
		c-0.111,0.181-0.225,0.361-0.356,0.526c-0.146,0.184-0.12,0.332,0.038,0.489c0.441,0.441,0.877,0.889,1.36,1.287
		c0.126,0.105,0.189,0.105,0.272-0.039c0.112-0.194,0.232-0.388,0.373-0.562c0.061-0.075,0.125-0.253,0.273-0.139
		c0.114,0.088-0.014,0.19-0.042,0.285c-0.019,0.063-0.039,0.126-0.059,0.188L32.965,59.775z"/>
	<path fill-rule="evenodd" clip-rule="evenodd" fill="#E16E44" d="M53.937,82.261c-0.005,0.026-0.011,0.053-0.016,0.079
		c-0.179,0.06-0.357,0.066-0.535-0.004l-0.02,0.004c0.185-0.893,0.369-1.785,0.554-2.677c0.495-2.384,0.993-4.767,1.482-7.151
		c0.29-1.412,0.564-2.827,0.849-4.24c0.012-0.062,0.047-0.119,0.072-0.178c0.212-0.814,0.294-1.652,0.441-2.479
		c0.018-0.1,0.028-0.211-0.027-0.311c0.005-0.039-0.001-0.084,0.016-0.117c0.057-0.111,0.075-0.293,0.256-0.244
		c0.141,0.037,0.13,0.188,0.118,0.307c-0.055,0.527-0.094,1.057-0.179,1.578c-0.39,2.378-0.856,4.741-1.336,7.102
		c-0.335,1.647-0.663,3.297-0.994,4.945C54.391,80.003,54.163,81.132,53.937,82.261z"/>
	<path fill-rule="evenodd" clip-rule="evenodd" fill="#E17143" d="M30.25,81.371c-0.181-0.528-0.158-1.087-0.234-1.631
		c-0.149-1.072-0.266-2.149-0.387-3.226c-0.095-0.84-0.175-1.683-0.261-2.523c-0.01-0.104,0.016-0.216-0.077-0.298
		c-0.14-0.809-0.188-1.628-0.269-2.442c-0.193-1.93-0.31-3.864-0.332-5.805c-0.004-0.386,0.051-0.77,0.044-1.156
		c-0.002-0.155,0.008-0.332,0.229-0.357c0.267,0.035,0.242,0.236,0.242,0.424c0,0.812-0.005,1.624,0.001,2.436
		c0.01,1.445,0.184,2.88,0.301,4.318c0.093,1.135,0.238,2.263,0.349,3.396c0.119,1.223,0.3,2.439,0.451,3.66
		c0.115,0.932,0.229,1.863,0.332,2.797c0.015,0.137,0.056,0.294-0.066,0.417C30.467,81.351,30.36,81.302,30.25,81.371z"/>
	<path fill-rule="evenodd" clip-rule="evenodd" fill="#FDAB51" d="M28.964,63.933c-0.116,0.066-0.151,0.169-0.16,0.299
		c-0.098,1.392-0.033,2.779,0.073,4.167c0.045,0.581,0.045,1.166,0.096,1.746c0.082,0.933,0.193,1.862,0.285,2.793
		c0.024,0.251,0.022,0.504,0.033,0.756c-0.002,0.013-0.001,0.029-0.008,0.038c-0.013,0.017-0.032,0.029-0.048,0.044
		c-0.036-0.23-0.094-0.46-0.103-0.691c-0.053-1.414-0.256-2.815-0.354-4.227c-0.103-1.485-0.12-2.967-0.129-4.451
		C28.648,64.036,28.709,63.958,28.964,63.933z"/>
	<path fill-rule="evenodd" clip-rule="evenodd" fill="#DB7238" d="M40.013,63.451c0.15-0.133,0.334-0.082,0.496-0.065
		c1.108,0.115,2.213,0.112,3.321,0.001c0.187-0.019,0.397-0.077,0.574,0.066C42.94,63.591,41.477,63.593,40.013,63.451z"/>
	<path fill-rule="evenodd" clip-rule="evenodd" fill="#FEFEFB" d="M51.132,78.874c-0.207-0.028-0.364-0.125-0.355-0.35
		c0.007-0.192,0.135-0.325,0.333-0.328c0.217-0.003,0.345,0.123,0.348,0.347C51.46,78.757,51.317,78.839,51.132,78.874z"/>
	<path fill-rule="evenodd" clip-rule="evenodd" fill="#FCC19F" d="M40.004,72.254c-0.078-0.148-0.147-0.323,0.03-0.423
		c0.173-0.098,0.39-0.116,0.558,0.034c0.17,0.151,0.074,0.312-0.025,0.461C40.356,72.48,40.163,72.502,40.004,72.254z"/>
	<path fill-rule="evenodd" clip-rule="evenodd" fill="#FAC2A1" d="M44.84,68.735c0.22-0.011,0.374,0.049,0.369,0.305
		c-0.004,0.204-0.144,0.302-0.305,0.305c-0.195,0.004-0.379-0.104-0.396-0.319C44.492,68.818,44.631,68.715,44.84,68.735z"/>
	<path fill-rule="evenodd" clip-rule="evenodd" fill="#FEFAEC" d="M33.463,68.431c-0.166-0.008-0.381-0.013-0.383-0.199
		c-0.002-0.249,0.234-0.282,0.437-0.291c0.164-0.008,0.362,0.019,0.356,0.216C33.866,68.387,33.646,68.411,33.463,68.431z"/>
	<path fill-rule="evenodd" clip-rule="evenodd" fill="#DD723B" d="M56.737,65.305c0.121,0.124,0.086,0.284,0.064,0.418
		c-0.127,0.794-0.271,1.585-0.412,2.377c-0.001,0.007-0.021,0.015-0.032,0.014c-0.012-0.002-0.022-0.013-0.034-0.02
		c0.121-0.799,0.243-1.597,0.363-2.395C56.707,65.568,56.721,65.437,56.737,65.305z"/>
	<path fill-rule="evenodd" clip-rule="evenodd" fill="#FEF7E1" d="M52.921,64.896c-0.175-0.035-0.326-0.124-0.316-0.328
		c0.007-0.148,0.135-0.229,0.281-0.22c0.193,0.014,0.327,0.118,0.319,0.327C53.198,64.835,53.081,64.894,52.921,64.896z"/>
	<path fill-rule="evenodd" clip-rule="evenodd" fill="#FEF7E1" d="M33.092,76.262c-0.169-0.027-0.295-0.108-0.294-0.305
		c0.001-0.157,0.09-0.256,0.246-0.253c0.201,0.004,0.327,0.115,0.322,0.324C33.362,76.188,33.253,76.257,33.092,76.262z"/>
	<path fill-rule="evenodd" clip-rule="evenodd" fill="#FBC2A1" d="M40.475,78.182c0.183,0.009,0.257,0.114,0.255,0.288
		c-0.002,0.18-0.093,0.281-0.273,0.26c-0.161-0.02-0.281-0.119-0.271-0.29C40.196,78.279,40.285,78.164,40.475,78.182z"/>
	<path fill-rule="evenodd" clip-rule="evenodd" fill="#FCC296" d="M25.924,67.402c0.162,0.021,0.281,0.115,0.293,0.274
		c0.012,0.166-0.085,0.273-0.271,0.265c-0.166-0.008-0.299-0.084-0.304-0.251C25.636,67.527,25.759,67.434,25.924,67.402z"/>
	<path fill-rule="evenodd" clip-rule="evenodd" fill="#FBC2A1" d="M58.49,78.624c0,0.165-0.105,0.25-0.247,0.243
		c-0.178-0.009-0.297-0.131-0.286-0.312c0.009-0.138,0.107-0.26,0.259-0.248C58.39,78.32,58.505,78.426,58.49,78.624z"/>
	<path fill-rule="evenodd" clip-rule="evenodd" fill="#DD7440" d="M52.081,72.742c-0.131-0.002-0.242,0.114-0.429,0.046
		c0.056-0.272,0.249-0.365,0.492-0.365c0.183,0,0.35,0.061,0.265,0.311C52.302,72.825,52.192,72.84,52.081,72.742z"/>
	<path fill-rule="evenodd" clip-rule="evenodd" fill="#FDC297" d="M59.613,69.863c0.125,0.011,0.235,0.055,0.316,0.156
		c0.06,0.172,0.082,0.346-0.126,0.423c-0.12,0.045-0.276,0.051-0.35-0.09C59.348,70.146,59.403,69.976,59.613,69.863z"/>
	<path fill-rule="evenodd" clip-rule="evenodd" fill="#DE763C" d="M55.983,60.896c0.154,0.01,0.327,0.004,0.308,0.185
		c-0.016,0.156-0.166,0.224-0.329,0.219c-0.127-0.004-0.253-0.033-0.26-0.182C55.693,60.913,55.856,60.906,55.983,60.896z"/>
	<path fill-rule="evenodd" clip-rule="evenodd" fill="#FEF9E3" d="M25.496,77.369c-0.154-0.021-0.271-0.099-0.282-0.266
		c-0.009-0.145,0.091-0.21,0.226-0.211c0.166,0,0.284,0.084,0.289,0.252C25.733,77.276,25.632,77.349,25.496,77.369z"/>
	<path fill-rule="evenodd" clip-rule="evenodd" fill="#FDC190" d="M45.654,67.943c-0.234,0.038-0.383-0.117-0.406-0.315
		c-0.024-0.198,0.116-0.334,0.347-0.331c0.25,0.003,0.404,0.105,0.411,0.368C46.012,67.895,45.862,67.95,45.654,67.943z"/>
	<path fill-rule="evenodd" clip-rule="evenodd" fill="#FDC290" d="M49.767,80.263c-0.233-0.034-0.289-0.185-0.202-0.372
		c0.092-0.198,0.279-0.241,0.472-0.164c0.163,0.064,0.268,0.21,0.193,0.381c-0.086,0.197-0.235,0.327-0.465,0.154
		c0.026-0.029,0.053-0.059,0.081-0.085c0.059-0.054,0.122-0.105,0.082-0.198c-0.012-0.027-0.041-0.04-0.068-0.028
		c-0.095,0.041-0.075,0.124-0.069,0.201C49.794,80.191,49.791,80.229,49.767,80.263z"/>
	<path fill-rule="evenodd" clip-rule="evenodd" fill="#DE763C" d="M39.903,78.57c-0.021,0.137-0.118,0.176-0.231,0.163
		c-0.147-0.017-0.315-0.059-0.345-0.216c-0.03-0.158,0.122-0.177,0.246-0.178C39.735,78.34,39.847,78.416,39.903,78.57z"/>
	<path fill-rule="evenodd" clip-rule="evenodd" fill="#FDC292" d="M52.216,71.943c-0.219,0.01-0.374-0.047-0.37-0.298
		c0.003-0.218,0.154-0.319,0.33-0.311c0.184,0.009,0.372,0.114,0.376,0.331C52.556,71.869,52.415,71.966,52.216,71.943z"/>
	<path fill-rule="evenodd" clip-rule="evenodd" fill="#FEF7DD" d="M30.106,60.403c-0.023,0.208-0.138,0.279-0.305,0.27
		c-0.188-0.01-0.296-0.113-0.287-0.308c0.009-0.18,0.117-0.269,0.29-0.253C29.987,60.13,30.078,60.253,30.106,60.403z"/>
	<path fill-rule="evenodd" clip-rule="evenodd" fill="#DD733A" d="M52.478,64.795c-0.048,0.123-0.14,0.157-0.254,0.13
		c-0.124-0.031-0.286-0.042-0.28-0.22c0.005-0.154,0.145-0.133,0.243-0.12C52.315,64.601,52.45,64.629,52.478,64.795z"/>
	<path fill-rule="evenodd" clip-rule="evenodd" fill="#FDBF8E" d="M52.081,72.742c0.109-0.003,0.219-0.006,0.328-0.009
		c0.055,0.121,0.131,0.247-0.015,0.356c-0.08,0.06-0.179,0.075-0.259,0.009C52.018,73.001,52.004,72.876,52.081,72.742z"/>
	<path fill-rule="evenodd" clip-rule="evenodd" fill="#DA7A46" d="M40.004,72.254c0.175,0.12,0.368,0.104,0.562,0.072
		c-0.008,0.245-0.178,0.289-0.36,0.242C40.075,72.534,39.863,72.49,40.004,72.254z"/>
	<path fill-rule="evenodd" clip-rule="evenodd" fill="#F7B05D" d="M59.613,69.863c-0.015,0.021-0.025,0.046-0.043,0.064
		c-0.105,0.112-0.171,0.235-0.084,0.385c0.061,0.104,0.165,0.124,0.272,0.094c0.206-0.06,0.163-0.235,0.171-0.387
		c0.132,0.177,0.134,0.362-0.073,0.451c-0.157,0.067-0.395,0.102-0.464-0.133C59.338,70.151,59.287,69.902,59.613,69.863z"/>
	<path fill-rule="evenodd" clip-rule="evenodd" fill="#EFB76B" d="M23.925,81.706c-0.184-0.032-0.369-0.064-0.553-0.098
		c-0.213-0.141-0.492-0.165-0.665-0.378C23.125,81.36,23.534,81.512,23.925,81.706z"/>
	<path fill-rule="evenodd" clip-rule="evenodd" fill="#EFB76B" d="M24.89,81.865c-0.332,0.007-0.663,0.007-0.966-0.16
		C24.253,81.712,24.579,81.744,24.89,81.865z"/>
	<path fill-rule="evenodd" clip-rule="evenodd" fill="#CA6D46" d="M30.577,81.43c-0.038-0.001-0.076-0.002-0.114-0.004
		c-0.071-0.018-0.142-0.036-0.213-0.055c0.111-0.104,0.219-0.1,0.325,0.009C30.571,81.396,30.572,81.413,30.577,81.43z"/>
	<path fill-rule="evenodd" clip-rule="evenodd" fill="#594842" d="M23.289,51.379c0.133,0.08,0.267,0.161,0.399,0.241
		c0.24,0.186,0.508,0.317,0.8,0.399c0.11,0.132,0.278,0.166,0.418,0.249c0.216,1.075,0.654,2.061,1.215,3.001
		c-1.645-0.888-2.577-2.33-3.158-4.048C23.105,51.206,23.177,51.334,23.289,51.379z"/>
	<path fill-rule="evenodd" clip-rule="evenodd" fill="#FAAC4A" d="M55.852,57.521c-0.483,0.254-0.781,0.712-1.17,1.07
		c-0.391,0.36-0.377,0.369-0.707-0.063c-0.078-0.104-0.19-0.183-0.287-0.272c0.562-0.314,1.04-0.775,1.678-0.955
		C55.527,57.374,55.689,57.448,55.852,57.521z"/>
	<path fill-rule="evenodd" clip-rule="evenodd" fill="#2A2A2A" d="M64.966,33.855c0.085,0.089,0.091,0.199,0.087,0.312
		c0.047,0.085-0.001,0.096-0.07,0.09C64.923,34.126,64.873,33.994,64.966,33.855z"/>
	<path fill-rule="evenodd" clip-rule="evenodd" fill="#CC7045" d="M53.386,82.336c0.179,0.001,0.356,0.003,0.535,0.004
		c0.004,0.024,0.006,0.049,0.005,0.073c-0.185-0.001-0.368-0.001-0.552-0.001C53.372,82.386,53.376,82.36,53.386,82.336z"/>
	<path fill-rule="evenodd" clip-rule="evenodd" fill="#EE9C6E" d="M33.051,23.859c-0.066,0.037-0.133,0.074-0.258,0.145
		c2.081-3.662,3.865-7.403,5.694-11.128c0.144,0.071,0.078,0.192,0.079,0.283c0.006,0.894,0.015,1.786,0,2.68
		c-0.018,1.064,0.17,2.104,0.293,3.156c0.154,1.31,0.533,2.549,1.023,3.746c0.496,1.213,1.163,2.353,2.107,3.292
		c0.344,0.341,0.457,0.729,0.406,1.215c-0.456-0.106-0.706-0.523-1.115-0.665c-0.563-0.312-0.924-0.831-1.29-1.328
		c-1.328-1.806-2.024-3.866-2.39-6.055c-0.133-0.8-0.261-1.598-0.236-2.411c0.003-0.104,0.017-0.214-0.071-0.306
		c-0.135,0.033-0.119,0.164-0.159,0.246c-0.874,1.78-1.833,3.515-2.823,5.233c-0.032,0.055-0.091,0.093-0.138,0.138
		c-0.274,0.425-0.542,0.854-0.803,1.286C33.265,23.544,33.158,23.702,33.051,23.859z"/>
	<path fill-rule="evenodd" clip-rule="evenodd" fill="#EE9C6E" d="M39.594,46.984c0.015-0.223-0.162-0.37-0.22-0.564
		c0.718,0.12,1.436,0.234,2.152,0.359c0.991,0.174,1.978,0.124,2.971,0.005c0.617-0.075,1.217-0.262,1.843-0.274
		c-0.038,0.111-0.129,0.173-0.218,0.237c-0.147,0.389-0.077,0.788-0.042,1.182c0.033,0.379,0.09,0.756,0.01,1.135
		c-0.775,0.583-1.644,0.985-2.586,1.175c-1.085,0.218-1.925-0.281-2.641-1.057c-0.357-0.387-0.741-0.748-1.121-1.129
		c-0.119,0.177,0.01,0.372-0.114,0.515l-0.034,0.009C39.553,48.046,39.554,47.515,39.594,46.984z"/>
	<path fill-rule="evenodd" clip-rule="evenodd" fill="#F58970" d="M51.348,39.307c-0.956,0.02-1.639-0.346-2.188-0.979
		c-0.507-0.584-0.327-1.687,0.393-2.184c0.891-0.616,1.873-0.991,2.985-0.927c0.75,0.044,1.344,0.867,1.221,1.755
		c-0.146,1.064-0.768,1.781-1.726,2.225C51.785,39.312,51.519,39.316,51.348,39.307z"/>
	<path fill-rule="evenodd" clip-rule="evenodd" fill="#363634" d="M32.277,28.807c0.084,0.082,0.169,0.164,0.252,0.248
		c0.254,0.255,0.492,0.356,0.825,0.076c0.268-0.226,0.602-0.38,0.974-0.389c0.212,0.021,0.424,0.05,0.637,0.004
		c2.048,0.335,3.436,3.069,2.478,4.892c-0.269,0.511-0.656,0.868-1.277,0.873c-0.414,0.064-0.675-0.194-0.9-0.468
		c-0.343-0.418-0.549-0.9-0.53-1.457c0.063-0.234,0.064-0.47,0.005-0.705c-0.055-0.711,0.31-1.319,1.138-1.899
		c-0.488-0.449-1.36-0.447-2.009-0.017c-0.243,0.161-0.387,0.438-0.669,0.548c-0.153,0.214-0.311,0.426-0.458,0.643
		c-0.113,0.166-0.26,0.303-0.46,0.228c-0.39-0.146-0.775-0.312-1.012-0.689c-0.043-0.159,0.071-0.179,0.181-0.203
		c0.125-0.005,0.197,0.073,0.257,0.168c0.281,0.087,0.349,0.031,0.302-0.246c-0.124-0.237-0.431-0.329-0.489-0.618
		c-0.058-0.147-0.034-0.246,0.15-0.25c0.14,0.279,0.391,0.462,0.589,0.69c0.028-0.013,0.056-0.016,0.066-0.03
		c0.364-0.514,0.363-0.513-0.083-0.946c-0.073-0.071-0.172-0.132-0.167-0.257C32.059,28.849,32.125,28.783,32.277,28.807z"/>
	<path fill-rule="evenodd" clip-rule="evenodd" fill="#363634" d="M54.485,30.649c-0.187,0.162-0.373,0.323-0.56,0.485
		c-0.443,0.439-0.606,0.418-1.013-0.054c-0.174-0.201-0.312-0.429-0.496-0.621c-0.718-0.872-1.722-1.072-2.522-0.501
		c-0.012,0.044,0.003,0.082,0.042,0.101c1.401,0.646,1.45,2.958,0.503,4.066c-0.23,0.27-0.541,0.427-0.906,0.448
		c-0.838-0.151-1.432-0.83-1.483-1.696c-0.004-0.053-0.005-0.104-0.037-0.149c0.015-0.024,0.013-0.048-0.006-0.07
		c-0.078-0.312-0.089-0.622,0.015-0.931c0.36-1.58,1.336-2.583,2.872-3.059c0.189-0.182,0.399-0.084,0.605-0.048
		c0.335,0.09,0.67,0.2,0.943,0.412c0.27,0.208,0.478,0.159,0.7-0.049c0.105-0.099,0.198-0.219,0.358-0.236
		c0.1,0.018,0.23-0.003,0.196,0.169c-0.166,0.183-0.322,0.372-0.542,0.503c-0.287,0.171-0.067,0.316,0.036,0.474
		c0.109,0.167,0.21,0.278,0.398,0.092c0.13-0.13,0.272-0.247,0.409-0.37c0.169-0.011,0.24,0.053,0.168,0.223
		c-0.123,0.119-0.238,0.247-0.37,0.354c-0.179,0.145-0.312,0.296-0.113,0.507c0.205,0.22,0.282-0.099,0.433-0.123
		c0.047-0.007,0.088-0.05,0.131-0.076C54.404,30.428,54.483,30.477,54.485,30.649z"/>
	<path fill-rule="evenodd" clip-rule="evenodd" fill="#F58970" d="M34.769,39.302c-1.114,0.124-2.404-1.075-2.532-2.201
		c-0.059-0.524-0.011-0.999,0.313-1.424c0.386-0.507,0.943-0.521,1.489-0.448c0.88,0.117,1.705,0.41,2.393,0.999
		c0.939,0.803,0.808,2.043-0.274,2.638C35.716,39.108,35.276,39.366,34.769,39.302z"/>
	<path fill-rule="evenodd" clip-rule="evenodd" fill="#EE9C6E" d="M51.532,28.723c-0.213-0.018-0.426-0.035-0.639-0.054
		c-1.057-0.123-2.11-0.261-3.133-0.571c-0.952-0.288-1.896-0.596-2.793-1.032c-0.296-0.171-0.378-0.5-0.55-0.759
		c-0.773-1.167-1.593-2.305-2.188-3.594c0.269,0.32,0.534,0.644,0.807,0.961c0.988,1.146,2.127,2.098,3.493,2.778
		c0.763,0.38,1.556,0.678,2.374,0.875c0.748,0.181,1.505,0.416,2.289,0.363c0.489-0.032,0.973,0.194,1.458,0.009
		c0.541,0.274,1.081,0.55,1.63,0.828c-0.138,0.154-0.303,0.126-0.457,0.139c-0.104,0.075-0.225,0.073-0.344,0.074
		C52.829,28.827,52.181,28.773,51.532,28.723z"/>
	<path fill-rule="evenodd" clip-rule="evenodd" fill="#FEFEFE" d="M34.812,32.579c0.105,0.887,0.41,1.634,1.355,1.932
		c-0.922,0.597-2.06,0.318-2.594-0.646c-0.508-0.919-0.64-1.896-0.421-2.922c0.03-0.141,0.035-0.287,0.051-0.431
		c0.687-1.055,1.901-1.277,2.964-0.515c-0.876,0.322-1.305,0.96-1.359,1.861C34.85,32.1,34.843,32.339,34.812,32.579z"/>
	<path fill-rule="evenodd" clip-rule="evenodd" fill="#EE9C6E" d="M43.206,30.761c0.3,1.018,0.092,1.927,0.038,2.831
		c-0.018,0.298-0.002,0.609-0.105,0.906c-0.068,0.198,0.116,0.281,0.247,0.359c0.275,0.164,0.464,0.393,0.584,0.686
		c0.215,0.524,0.064,1.024-0.411,1.36c-0.367,0.26-0.941,0.192-1.328-0.135c-0.464-0.392-0.588-0.852-0.473-1.456
		C42.051,33.766,42.576,32.301,43.206,30.761z"/>
	<path fill-rule="evenodd" clip-rule="evenodd" fill="#363634" d="M35.609,24.544c0.529-0.009,1.155,0.101,1.751,0.355
		c0.146,0.062,0.286,0.143,0.415,0.234c0.23,0.164,0.329,0.395,0.219,0.664c-0.116,0.282-0.36,0.326-0.634,0.281
		c-0.46-0.075-0.918-0.16-1.38-0.219c-1.126-0.145-2.232,0.01-3.327,0.269c-0.078,0.019-0.155,0.04-0.233,0.054
		c-0.166,0.028-0.33,0.03-0.404-0.159c-0.068-0.175,0.015-0.307,0.148-0.419c0.609-0.513,1.341-0.752,2.097-0.933
		C34.664,24.575,35.076,24.544,35.609,24.544z"/>
	<path fill-rule="evenodd" clip-rule="evenodd" fill="#993527" d="M42.412,40.65c-1.509-0.013-2.921-0.393-4.242-1.117
		c-0.11-0.061-0.275-0.119-0.173-0.294c0.108-0.184,0.235-0.034,0.341,0.018c3.042,1.493,6.08,1.451,9.116-0.017
		c0.123-0.06,0.278-0.208,0.378-0.021c0.096,0.18-0.109,0.25-0.226,0.312c-1.348,0.729-2.784,1.124-4.322,1.118
		C42.994,40.6,42.703,40.599,42.412,40.65z"/>
	<path fill-rule="evenodd" clip-rule="evenodd" fill="#F0C5AD" d="M52.49,30.421c0.161,0.106,0.243,0.277,0.343,0.432
		c0.429,0.661,0.428,0.662,1.093,0.282c-0.255,0.521-0.58,0.512-1.114-0.033c-0.085,0.022-0.09,0.096-0.079,0.158
		c0.136,0.851-0.031,1.655-0.393,2.42c-0.515,1.092-1.416,1.498-2.587,1.085c-0.463-0.164-0.967-0.274-1.291-0.721
		c-0.29-0.398-0.511-0.805-0.449-1.315c0.119,0.417,0.207,0.845,0.49,1.198c0.269,0.336,0.588,0.567,1.033,0.583
		c0.123,0.052,0.258,0.053,0.385,0.094c0.892,0.286,1.688-0.029,2.137-0.854c0.429-0.786,0.555-1.629,0.446-2.516
		C52.472,30.967,52.335,30.693,52.49,30.421z"/>
	<path fill-rule="evenodd" clip-rule="evenodd" fill="#EC9C70" d="M54.652,28.497c-0.354-0.304-0.842-0.349-1.205-0.634
		c-0.048-0.117-0.014-0.157,0.119-0.167c0.466-0.036,0.893,0.026,1.246,0.373c0.343,0.337,0.762,0.57,1.168,0.82
		c0.062,0.038,0.271,0.075,0.026,0.171C55.556,28.873,55.104,28.685,54.652,28.497z"/>
	<path fill-rule="evenodd" clip-rule="evenodd" fill="#E99D72" d="M33.371,23.387c0.188-0.479,0.45-0.911,0.803-1.286
		C33.969,22.568,33.718,23.007,33.371,23.387z"/>
	<path fill-rule="evenodd" clip-rule="evenodd" fill="#3E3229" d="M53.356,42.702c-0.14,0.382-0.373,0.668-0.784,0.775
		C52.834,43.219,53.095,42.96,53.356,42.702z"/>
	<path fill-rule="evenodd" clip-rule="evenodd" fill="#F3CBB2" d="M48.021,31.728c-0.005,0.311-0.01,0.621-0.015,0.931
		c-0.245-0.328-0.062-0.684-0.056-1.027C47.951,31.619,48.005,31.688,48.021,31.728z"/>
	<path fill-rule="evenodd" clip-rule="evenodd" fill="#EEC0A6" d="M32.012,30.412c0.315,0.121,0.076,0.285-0.004,0.364
		c-0.126,0.125-0.233,0.015-0.297-0.118C31.851,30.626,31.994,30.596,32.012,30.412z"/>
	<path fill-rule="evenodd" clip-rule="evenodd" fill="#413830" d="M54.167,29.838c-0.005-0.112-0.067-0.182-0.168-0.223
		c0.041-0.049,0.079-0.101,0.124-0.146c0.054-0.053,0.113-0.124,0.196-0.071c0.106,0.066,0.055,0.159,0.008,0.234
		C54.282,29.706,54.221,29.771,54.167,29.838z"/>
	<path fill-rule="evenodd" clip-rule="evenodd" fill="#423831" d="M31.672,29.544c-0.103,0.052-0.145,0.14-0.15,0.25
		c-0.083-0.114-0.227-0.24-0.089-0.373C31.532,29.325,31.616,29.451,31.672,29.544z"/>
	<path fill-rule="evenodd" clip-rule="evenodd" fill="#423932" d="M54.485,30.649c-0.047-0.101-0.128-0.148-0.238-0.149
		c0.112-0.082,0.231-0.234,0.365-0.077C54.695,30.521,54.597,30.61,54.485,30.649z"/>
	<path fill-rule="evenodd" clip-rule="evenodd" fill="#403831" d="M31.453,30.49c-0.06,0.068-0.121,0.136-0.181,0.203
		c-0.073-0.075-0.172-0.157-0.072-0.265C31.3,30.32,31.387,30.391,31.453,30.49z"/>
	<path fill-rule="evenodd" clip-rule="evenodd" fill="#8D321F" d="M42.412,40.65c0.291-0.113,0.582-0.113,0.872,0
		C42.994,40.65,42.703,40.65,42.412,40.65z"/>
	<path fill-rule="evenodd" clip-rule="evenodd" fill="#413932" d="M32.277,28.807c-0.095,0.035-0.162,0.1-0.2,0.194
		c-0.083-0.093-0.215-0.198-0.076-0.314C32.115,28.593,32.205,28.718,32.277,28.807z"/>
	<path fill-rule="evenodd" clip-rule="evenodd" fill="#322821" d="M34.966,28.746c-0.213,0.112-0.426,0.117-0.637-0.004
		C34.542,28.67,34.754,28.682,34.966,28.746z"/>
	<path fill-rule="evenodd" clip-rule="evenodd" fill="#41372F" d="M53.536,28.662c0.096,0.001,0.191,0.003,0.287,0.004
		c0.001,0.023,0.005,0.047,0.011,0.07c-0.046,0.06-0.091,0.12-0.137,0.181c-0.059-0.108-0.165-0.095-0.262-0.102
		C53.409,28.725,53.482,28.7,53.536,28.662z"/>
	<path fill-rule="evenodd" clip-rule="evenodd" fill="#9F684A" d="M29.947,36.881c0.026-0.053,0.052-0.105,0.078-0.157
		c0.088,0.127,0.067,0.271,0.061,0.411C29.997,37.073,29.966,36.98,29.947,36.881z"/>
	<path fill-rule="evenodd" clip-rule="evenodd" fill="#FAAD48" d="M53.533,58.347c0.061,0.119,0.111,0.244,0.183,0.355
		c0.312,0.489,0.313,0.488-0.166,0.825c-0.033,0.022-0.07,0.038-0.103,0.062c-0.258,0.188-0.501,0.499-0.776,0.53
		c-0.303,0.034-0.453-0.399-0.71-0.582c-0.039-0.028-0.09-0.039-0.168-0.07c-0.036,0.328,0.181,0.485,0.354,0.648
		c0.209,0.196,0.19,0.32-0.071,0.431c-0.54,0.229-1.016,0.58-1.564,0.797c-0.229,0.09-0.343,0.062-0.437-0.152
		c-0.07-0.159-0.149-0.313-0.235-0.464c-0.06-0.106-0.099-0.297-0.277-0.19c-0.164,0.098-0.032,0.243,0.015,0.351
		c0.078,0.182,0.186,0.352,0.286,0.524c0.078,0.136,0.041,0.23-0.095,0.288c-0.625,0.26-1.257,0.5-1.921,0.643
		c-0.025-0.032-0.027-0.066-0.01-0.103c0.371-0.293,0.829-0.389,1.259-0.547c0.543-0.2,0.582-0.261,0.196-0.665
		c-0.215-0.226-0.198-0.39-0.019-0.595c0.26-0.218,0.623-0.218,0.892-0.418C51.293,59.469,52.437,58.954,53.533,58.347z"/>
	<path fill-rule="evenodd" clip-rule="evenodd" fill="#F8AD57" d="M50.166,60.015c-0.068,0.268-0.351,0.163-0.507,0.288
		c-0.105,0.083-0.278,0.069-0.372,0.196c-0.459,0.257-0.975,0.363-1.461,0.547c-0.146,0.032-0.291,0.071-0.426,0.139
		c-0.032,0.014-0.066,0.024-0.101,0.031c-0.147,0.001-0.242,0.098-0.341,0.189c-0.091,0.004-0.182-0.016-0.273-0.001
		c-0.239-0.008-0.463,0.056-0.682,0.146c-0.283,0.157-0.59,0.195-0.907,0.178c-0.101-0.002-0.197,0.013-0.294,0.04
		c-0.152,0.037-0.312,0.026-0.463,0.077c-0.059,0.016-0.118,0.025-0.178,0.031c-0.061,0.006-0.122,0.008-0.183,0.01
		c-0.285,0-0.561,0.148-0.851,0.053c-0.027,0.001-0.054,0.001-0.08,0.001c-0.064,0.04-0.133,0.073-0.205,0.096
		c-0.548,0.012-1.102,0.129-1.635-0.096c-0.053,0-0.107,0-0.16,0c-0.095,0.065-0.199,0.093-0.314,0.073
		c-0.317-0.062-0.642-0.066-0.957-0.137c-0.066-0.016-0.122-0.048-0.169-0.097c0-0.026,0-0.054,0-0.081
		c0.7,0.052,1.399,0.146,2.099,0.149c1.719,0.01,3.398-0.286,5.057-0.726c1.093-0.29,2.154-0.664,3.205-1.076
		C50.03,60.022,50.101,60.024,50.166,60.015z"/>
	<path fill-rule="evenodd" clip-rule="evenodd" fill="#E1A37F" d="M46.09,49.063c0.037-0.646-0.141-1.284-0.081-1.932
		c0.013-0.134-0.067-0.299,0.113-0.385c-0.082,0.63,0.049,1.255,0.054,1.882c0.002,0.145-0.007,0.289-0.011,0.433
		C46.14,49.062,46.114,49.062,46.09,49.063z"/>
	<path fill-rule="evenodd" clip-rule="evenodd" fill="#342B23" d="M46.318,50.599c0.01-0.14,0.02-0.28,0.029-0.42
		c0.038,0.216,0.131,0.434-0.014,0.639C46.329,50.744,46.323,50.671,46.318,50.599z"/>
	<path fill-rule="evenodd" clip-rule="evenodd" fill="#372D26" d="M46.474,51.968c0.012-0.09,0.023-0.181,0.035-0.271
		c0.059,0.164,0.11,0.327-0.012,0.479C46.489,52.107,46.481,52.037,46.474,51.968z"/>
	<path fill-rule="evenodd" clip-rule="evenodd" fill="#362B23" d="M39.36,51.217c-0.085-0.064-0.072-0.157-0.069-0.246
		c0.001-0.029-0.005-0.087,0.049-0.062c0.025,0.012,0.03,0.065,0.044,0.1C39.376,51.078,39.368,51.147,39.36,51.217z"/>
	<path fill-rule="evenodd" clip-rule="evenodd" fill="#3B2C21" d="M39.594,46.984c0.054,0.53,0.037,1.062,0,1.592
		C39.487,48.046,39.487,47.515,39.594,46.984z"/>
	<path fill-rule="evenodd" clip-rule="evenodd" fill="#3C2C20" d="M29.051,38.092c0.13,0.011,0.26,0.021,0.39,0.032
		C29.304,38.202,29.171,38.228,29.051,38.092z"/>
	<path fill-rule="evenodd" clip-rule="evenodd" fill="#484846" d="M21.453,38.021c0.016-0.276,0.051-0.551,0.149-0.812
		c0.088,0.063,0.011,0.178,0.077,0.248c-0.025,0.263-0.051,0.525-0.076,0.788c-0.019,0.037-0.047,0.047-0.084,0.029
		C21.446,38.202,21.526,38.092,21.453,38.021z"/>
	<path fill-rule="evenodd" clip-rule="evenodd" fill="#383836" d="M21.453,38.021c0.097,0.067,0.064,0.18,0.095,0.27
		c0.025,0.124,0.042,0.248-0.012,0.369c-0.024,0.062-0.047,0.124-0.071,0.187c-0.115-0.06-0.051-0.179-0.09-0.265
		C21.344,38.387,21.364,38.199,21.453,38.021z"/>
	<path fill-rule="evenodd" clip-rule="evenodd" fill="#4E4E4D" d="M22.41,33.724c-0.186-0.248,0.024-0.458,0.065-0.685
		c0.078,0.035,0.036,0.123,0.077,0.175C22.527,33.391,22.525,33.572,22.41,33.724z"/>
	<path fill-rule="evenodd" clip-rule="evenodd" fill="#272626" d="M23.061,30.66c0.007-0.224,0.062-0.437,0.152-0.641
		c0.023-0.027,0.047-0.026,0.071-0.001c0.009,0.229-0.058,0.439-0.165,0.639C23.102,30.698,23.082,30.697,23.061,30.66z"/>
	<path fill-rule="evenodd" clip-rule="evenodd" fill="#323230" d="M21.865,35.861c0.077-0.21-0.032-0.486,0.221-0.636
		c-0.029,0.243-0.051,0.487-0.158,0.713C21.896,35.922,21.875,35.896,21.865,35.861z"/>
	<path fill-rule="evenodd" clip-rule="evenodd" fill="#515050" d="M22.743,31.865c0.021-0.173,0.042-0.347,0.133-0.502
		c0.051,0.011,0.056,0.061,0.082,0.093c-0.001,0.204-0.051,0.397-0.138,0.581C22.742,32.003,22.787,31.914,22.743,31.865z"/>
	<path fill-rule="evenodd" clip-rule="evenodd" fill="#575756" d="M22.089,35.158c-0.16-0.243,0.018-0.453,0.068-0.675
		c0.073,0.035,0.035,0.119,0.073,0.17C22.203,34.827,22.211,35.011,22.089,35.158z"/>
	<path fill-rule="evenodd" clip-rule="evenodd" fill="#282726" d="M23.284,30.019c-0.024,0.001-0.048,0.001-0.071,0.001
		c0.001-0.199,0.057-0.386,0.138-0.566c0.031-0.043,0.06-0.04,0.084,0.007C23.417,29.655,23.392,29.848,23.284,30.019z"/>
	<path fill-rule="evenodd" clip-rule="evenodd" fill="#272725" d="M21.678,37.456c-0.086-0.063-0.047-0.167-0.077-0.248
		c0.022-0.135-0.042-0.311,0.171-0.353C21.741,37.056,21.709,37.256,21.678,37.456z"/>
	<path fill-rule="evenodd" clip-rule="evenodd" fill="#2E2F2C" d="M21.865,35.861c0.021,0.026,0.042,0.052,0.063,0.077
		c-0.001,0.165,0.015,0.334-0.094,0.478c-0.017,0.002-0.034,0.003-0.051,0.005C21.728,36.223,21.829,36.047,21.865,35.861z"/>
	<path fill-rule="evenodd" clip-rule="evenodd" fill="#2B2A29" d="M22.743,31.865c0.025,0.058,0.051,0.114,0.076,0.172
		c-0.014,0.106,0.007,0.225-0.099,0.301c-0.021,0.039-0.043,0.04-0.067,0.002C22.625,32.171,22.706,32.022,22.743,31.865z"/>
	<path fill-rule="evenodd" clip-rule="evenodd" fill="#20211F" d="M21.374,38.581c0.091,0.068,0.056,0.179,0.09,0.265
		c-0.007,0.071-0.014,0.142-0.021,0.212c-0.047-0.053-0.094-0.105-0.142-0.158C21.271,38.781,21.286,38.673,21.374,38.581z"/>
	<path fill-rule="evenodd" clip-rule="evenodd" fill="#51514F" d="M21.783,36.421c0.017-0.01,0.034-0.012,0.051-0.005
		c0.033,0.158,0.018,0.309-0.066,0.449C21.7,36.715,21.609,36.563,21.783,36.421z"/>
	<path fill-rule="evenodd" clip-rule="evenodd" fill="#2F2F2E" d="M22.23,34.653c-0.024-0.057-0.048-0.113-0.073-0.17
		c0.009-0.107,0-0.219,0.075-0.31c0.031-0.034,0.059-0.032,0.084,0.006C22.288,34.337,22.259,34.495,22.23,34.653z"/>
	<path fill-rule="evenodd" clip-rule="evenodd" fill="#242522" d="M22.653,32.34c0.022,0.001,0.045,0,0.067-0.002
		c0.04,0.172-0.06,0.319-0.089,0.479c-0.079,0.005-0.108-0.026-0.073-0.103C22.56,32.582,22.565,32.45,22.653,32.34z"/>
	<path fill-rule="evenodd" clip-rule="evenodd" fill="#2C2C2A" d="M22.316,34.18c-0.028-0.002-0.057-0.004-0.084-0.006
		c0.045-0.135-0.074-0.344,0.174-0.389C22.376,33.917,22.346,34.048,22.316,34.18z"/>
	<path fill-rule="evenodd" clip-rule="evenodd" fill="#2A2A28" d="M22.558,32.714c0.024,0.034,0.049,0.068,0.073,0.103
		c-0.027,0.133-0.053,0.265-0.08,0.397c-0.025-0.059-0.051-0.116-0.077-0.175C22.486,32.927,22.482,32.811,22.558,32.714z"/>
	<path fill-rule="evenodd" clip-rule="evenodd" fill="#282727" d="M22.958,31.456c-0.027-0.031-0.054-0.062-0.082-0.093
		c0.011-0.106,0.007-0.218,0.084-0.307c0.027-0.039,0.052-0.038,0.076,0.003C23.083,31.206,22.952,31.317,22.958,31.456z"/>
	<path fill-rule="evenodd" clip-rule="evenodd" fill="#272726" d="M23.036,31.06c-0.025-0.001-0.05-0.001-0.076-0.003
		c-0.004-0.142,0.018-0.276,0.1-0.396c0.02-0.001,0.04-0.002,0.059-0.003C23.15,30.804,23.106,30.935,23.036,31.06z"/>
	<path fill-rule="evenodd" clip-rule="evenodd" fill="#262724" d="M23.435,29.46c-0.028-0.003-0.057-0.005-0.084-0.007
		c0.003-0.112,0.006-0.226,0.08-0.32c0.032-0.043,0.061-0.04,0.086,0.007C23.548,29.261,23.476,29.356,23.435,29.46z"/>
	<path fill-rule="evenodd" clip-rule="evenodd" fill="#252523" d="M23.516,29.14c-0.029-0.002-0.057-0.005-0.086-0.007
		c0.033-0.129-0.052-0.321,0.183-0.343c0.001,0.037,0.002,0.074,0.003,0.111C23.583,28.981,23.549,29.061,23.516,29.14z"/>
	<path fill-rule="evenodd" clip-rule="evenodd" fill="#FAAD48" d="M39.29,61.944c-0.053,0.271-0.122,0.54-0.153,0.813
		c-0.023,0.204-0.13,0.251-0.293,0.211c-0.623-0.153-1.27-0.215-1.868-0.467c0.072-0.381,0.172-0.753,0.31-1.114
		c0.221-0.231,0.371,0.071,0.562,0.091c0.462,0.049,0.914,0.199,1.372,0.297C39.352,61.804,39.307,61.872,39.29,61.944z"/>
	<path fill-rule="evenodd" clip-rule="evenodd" fill="#FAAD48" d="M31.323,57.668c0.045,0.041,0.09,0.071,0.122,0.112
		c0.339,0.431,0.771,0.765,1.175,1.127c0.195,0.175,0.252,0.338,0.021,0.521c-0.01,0.009-0.018,0.021-0.028,0.028
		c-0.156,0.122-0.117,0.463-0.346,0.439c-0.238-0.024-0.425-0.244-0.602-0.421c-0.261-0.261-0.519-0.524-0.779-0.787
		c-0.054-0.054-0.145-0.103-0.095-0.193c0.142-0.255,0.292-0.505,0.443-0.755C31.251,57.709,31.291,57.692,31.323,57.668z"/>
	<path fill-rule="evenodd" clip-rule="evenodd" fill="#FAAC49" d="M35.121,60.524c0.531,0.255,1.076,0.459,1.636,0.618
		c0.112,0.032,0.219,0.071,0.175,0.209c-0.085,0.264-0.187,0.521-0.285,0.781c-0.069,0.183-0.204,0.131-0.33,0.078
		c-0.401-0.171-0.799-0.35-1.202-0.516c-0.24-0.1-0.282-0.268-0.179-0.479C35.042,61,35.077,60.77,35.121,60.524z"/>
	<path fill-rule="evenodd" clip-rule="evenodd" fill="#FAAC48" d="M32.964,59.777c0.24-0.421,0.489-0.3,0.762-0.028
		c0.101,0.101,0.25,0.15,0.371,0.229c0.636,0.419,0.629,0.417,0.334,1.137c-0.063,0.152-0.114,0.173-0.257,0.109
		c-0.465-0.206-0.87-0.509-1.294-0.781c-0.129-0.084-0.129-0.194-0.046-0.307c0.081-0.109,0.158-0.215,0.131-0.361L32.964,59.777z"
		/>
	<path fill-rule="evenodd" clip-rule="evenodd" fill="#FAAD48" d="M41.208,61.939c0.56,0,1.12,0,1.68,0
		c0.077,0.364,0.035,0.751,0.195,1.101c-0.016,0.157-0.136,0.137-0.239,0.138c-0.386,0.002-0.772-0.008-1.158,0.004
		c-0.218,0.007-0.331-0.068-0.315-0.294c0.017-0.236-0.043-0.472-0.003-0.708C41.315,62.1,41.262,62.02,41.208,61.939z"/>
	<path fill-rule="evenodd" clip-rule="evenodd" fill="#FAAD48" d="M39.608,61.779c0.053,0,0.106,0.001,0.16,0.001
		c0.296,0.195,0.647,0.061,0.96,0.159c0.106,0,0.213,0,0.32,0c-0.247,0.217-0.267,0.504-0.238,0.801
		c0.023,0.24-0.072,0.352-0.317,0.319c-0.248-0.033-0.499-0.055-0.744-0.104c-0.16-0.032-0.266-0.129-0.172-0.317
		C39.717,62.357,39.708,62.069,39.608,61.779z"/>
	<path fill-rule="evenodd" clip-rule="evenodd" fill="#FDA852" d="M41.368,62.18c0.027,0.142,0.077,0.284,0.076,0.426
		c-0.005,0.596-0.026,0.529,0.581,0.533c0.252,0.002,0.504,0,0.755,0.001c0.122,0,0.247,0.009,0.268-0.16
		c0.024-0.025,0.048-0.026,0.071,0.001c0.034,0.205-0.079,0.246-0.253,0.243c-0.423-0.005-0.847-0.013-1.269,0.002
		c-0.252,0.01-0.324-0.098-0.31-0.329c0.013-0.211,0.001-0.423,0-0.634C41.314,62.234,41.341,62.207,41.368,62.18z"/>
	<path fill-rule="evenodd" clip-rule="evenodd" fill="#DE733D" d="M37.285,61.388c-0.041,0.389-0.183,0.749-0.31,1.113
		c-0.146-0.175,0.041-0.308,0.058-0.462c0.015-0.14,0.137-0.26,0.063-0.442c-0.214,0.248-0.119,0.619-0.375,0.821
		c0.07-0.266,0.134-0.533,0.212-0.797C36.983,61.454,37.088,61.346,37.285,61.388z"/>
	<path fill-rule="evenodd" clip-rule="evenodd" fill="#F9AC4B" d="M43.129,61.938c0.284-0.099,0.582-0.125,0.879-0.158
		c0.024,0.138-0.085,0.171-0.173,0.221c-0.178,0.048-0.366,0.059-0.319,0.344c0.077,0.474,0.158,0.628,0.473,0.602
		c0.485-0.042,0.968-0.131,1.445-0.221c0.283-0.053,0.574-0.085,0.854-0.173c0.271-0.085,0.393-0.191,0.256-0.476
		c-0.046-0.095-0.048-0.206-0.064-0.311c-0.009-0.135-0.078-0.207-0.218-0.207c-0.094-0.011-0.188-0.019-0.254-0.101
		c0.221-0.135,0.465-0.164,0.717-0.16c-0.009,0.443,0.177,0.851,0.244,1.28c-0.496,0.278-1.062,0.288-1.6,0.395
		c-0.518,0.102-1.049,0.137-1.569,0.229c-0.318,0.057-0.356-0.157-0.409-0.361C43.312,62.538,43.339,62.204,43.129,61.938z"/>
	<path fill-rule="evenodd" clip-rule="evenodd" fill="#FAAD48" d="M46.965,61.386c-0.021-0.252,0.146-0.256,0.323-0.246
		c0.109,0.111,0.072,0.238,0.037,0.365c-0.068,0.254-0.025,0.486,0.142,0.692c0.099,0.038,0.199-0.019,0.298,0.006
		c0.033,0.011,0.062,0.029,0.083,0.057c0,0.027,0,0.055,0,0.082c-0.204,0.086-0.406,0.183-0.638,0.156
		C47.114,62.131,46.923,61.784,46.965,61.386z"/>
	<path fill-rule="evenodd" clip-rule="evenodd" fill="#DE733D" d="M46.965,61.386c0.016,0.386,0.246,0.724,0.245,1.112
		c-0.268-0.265-0.156-0.677-0.379-0.982c-0.098,0.387,0.248,0.696,0.138,1.063c-0.123-0.419-0.365-0.815-0.244-1.28
		C46.805,61.328,46.885,61.356,46.965,61.386z"/>
	<path fill-rule="evenodd" clip-rule="evenodd" fill="#F9AC4B" d="M43.119,62.98c-0.023-0.001-0.047-0.001-0.071-0.001
		c-0.291-0.311-0.108-0.693-0.16-1.04c0.054,0,0.107,0,0.161,0C42.859,62.301,43.099,62.633,43.119,62.98z"/>
	<path fill-rule="evenodd" clip-rule="evenodd" fill="#FBC2A2" d="M45.921,67.637c-0.027,0.19-0.144,0.225-0.287,0.221
		c-0.186-0.005-0.248-0.136-0.249-0.286c0-0.145,0.115-0.196,0.246-0.186C45.795,67.4,45.875,67.513,45.921,67.637z"/>
	<path fill-rule="evenodd" clip-rule="evenodd" fill="#FAC2A3" d="M49.767,80.263c-0.025-0.115-0.22-0.187-0.093-0.341
		c0.067-0.082,0.145-0.16,0.267-0.122c0.1,0.031,0.143,0.109,0.143,0.21c0.001,0.219-0.146,0.251-0.318,0.252L49.767,80.263z"/>
	<path fill-rule="evenodd" clip-rule="evenodd" fill="#FBC1A3" d="M52.447,71.66c-0.067,0.133-0.157,0.203-0.292,0.193
		c-0.14-0.01-0.233-0.078-0.209-0.229c0.021-0.127,0.124-0.165,0.24-0.16C52.321,71.47,52.398,71.551,52.447,71.66z"/>
	<path fill-rule="evenodd" clip-rule="evenodd" fill="#FDFDFB" d="M29.98,60.422c-0.016,0.093-0.074,0.142-0.16,0.144
		c-0.124,0.003-0.2-0.066-0.197-0.188c0.002-0.1,0.089-0.118,0.171-0.111C29.891,60.273,29.969,60.312,29.98,60.422z"/>
	<path fill-rule="evenodd" clip-rule="evenodd" fill="#9E3426" d="M52.342,36.342c0.112-0.005,0.216,0.002,0.227,0.151
		c0.015,0.199-0.389,0.552-0.648,0.563c-0.112,0.006-0.216-0.001-0.227-0.15C51.679,36.708,52.085,36.354,52.342,36.342z"/>
	<path fill-rule="evenodd" clip-rule="evenodd" fill="#9F3526" d="M50.995,36.167c0.094,0,0.237,0.001,0.213,0.172
		c-0.037,0.264-0.248,0.352-0.478,0.388c-0.112,0.018-0.209-0.032-0.229-0.161C50.477,36.401,50.744,36.176,50.995,36.167z"/>
	<path fill-rule="evenodd" clip-rule="evenodd" fill="#FAFAFA" d="M36.342,31.795c-0.249-0.016-0.443-0.169-0.461-0.484
		c-0.019-0.312,0.303-0.594,0.638-0.569c0.309,0.023,0.494,0.196,0.502,0.509C37.028,31.55,36.727,31.803,36.342,31.795z"/>
	<path fill-rule="evenodd" clip-rule="evenodd" fill="#272826" d="M34.812,32.579c-0.061-0.239-0.067-0.479-0.003-0.72
		C34.938,32.099,34.933,32.339,34.812,32.579z"/>
	<path fill-rule="evenodd" clip-rule="evenodd" fill="#FEFEFE" d="M52.49,30.421c0.159,0.865,0.254,1.729-0.006,2.595
		c-0.172,0.571-0.416,1.095-0.911,1.459c-0.639,0.47-1.357,0.479-2.037,0.035c0.764-0.134,1.089-0.694,1.3-1.355
		c0.231-0.725,0.192-1.441-0.104-2.14c-0.213-0.504-0.614-0.811-1.134-0.991C50.539,29.237,51.809,29.424,52.49,30.421z"/>
	<path fill-rule="evenodd" clip-rule="evenodd" fill="#FAFAFA" d="M49.285,30.739c0.308,0.003,0.581,0.262,0.555,0.55
		c-0.027,0.31-0.222,0.471-0.524,0.486c-0.307,0.017-0.577-0.238-0.579-0.529C48.734,30.967,48.983,30.736,49.285,30.739z"/>
	<path fill-rule="evenodd" clip-rule="evenodd" fill="#F6C0A1" d="M53.536,28.662c-0.033,0.051-0.067,0.103-0.101,0.153
		c-0.077,0.064-0.165,0.12-0.229,0.195c-0.256,0.307-0.5,0.426-0.847,0.087c-0.216-0.211-0.539-0.275-0.828-0.375
		c0.505-0.134,1.02-0.029,1.528-0.059C53.219,28.654,53.378,28.662,53.536,28.662z"/>
	<path fill-rule="evenodd" clip-rule="evenodd" fill="#9D3425" d="M33.475,37.338c-0.204-0.051-0.244-0.189-0.137-0.356
		c0.148-0.232,0.378-0.37,0.637-0.452c0.133-0.042,0.203,0.018,0.199,0.159C34.168,36.916,33.704,37.354,33.475,37.338z"/>
	<path fill-rule="evenodd" clip-rule="evenodd" fill="#9F3528" d="M35.416,36.43c-0.101,0.25-0.331,0.322-0.563,0.364
		c-0.115,0.021-0.284-0.035-0.262-0.172c0.042-0.263,0.276-0.331,0.506-0.358C35.226,36.248,35.368,36.246,35.416,36.43z"/>
	<path fill-rule="evenodd" clip-rule="evenodd" fill="#DD764B" d="M42.558,35.616c0.083,0.013,0.224-0.027,0.211,0.101
		c-0.016,0.162-0.195,0.148-0.312,0.188c-0.1,0.033-0.195-0.021-0.177-0.136C42.303,35.618,42.44,35.624,42.558,35.616z"/>
	<path fill-rule="evenodd" clip-rule="evenodd" fill="#FAAD48" d="M47.448,62.34c-0.245-0.241-0.321-0.529-0.211-0.853
		c0.04-0.116,0.05-0.229,0.051-0.348c0.026,0,0.053,0,0.079,0c0.129-0.067,0.275-0.087,0.4-0.16c0.494-0.202,0.989-0.397,1.521-0.48
		c-0.067,0.159-0.215,0.33,0.082,0.424c0.029,0.01,0.027,0.097,0.057,0.136c0.382,0.509,0.381,0.504-0.185,0.699
		c-0.467,0.161-0.93,0.334-1.395,0.502h-0.04h-0.04C47.616,62.106,47.538,62.248,47.448,62.34z"/>
	<path fill-rule="evenodd" clip-rule="evenodd" fill="#FAAD48" d="M46.008,61.459c0.106,0,0.213,0,0.32,0.001
		c0.006,0.278,0.006,0.278,0.239,0.239c0.015,0.078,0.036,0.155,0.04,0.233c0.01,0.211,0.258,0.521,0.14,0.571
		c-0.248,0.106-0.535,0.18-0.81,0.25c-0.51,0.13-1.046,0.078-1.543,0.267c-0.216,0.082-0.446,0.027-0.67,0.036
		c-0.132,0.005-0.183-0.067-0.198-0.193c-0.019-0.144-0.055-0.284-0.089-0.426c-0.117-0.494-0.118-0.494,0.41-0.498
		c0.103-0.062,0.242-0.05,0.32-0.159c0.053-0.001,0.106-0.001,0.16-0.001c0.126-0.076,0.265-0.022,0.396-0.039
		c0.13,0.021,0.242-0.008,0.323-0.12C45.382,61.653,45.701,61.591,46.008,61.459z"/>
	<path fill-rule="evenodd" clip-rule="evenodd" fill="#F9AC4B" d="M40.729,61.939c-0.317-0.072-0.685,0.162-0.96-0.159
		C40.088,61.832,40.419,61.819,40.729,61.939z"/>
	<path fill-rule="evenodd" clip-rule="evenodd" fill="#FAAD48" d="M45.048,61.62c-0.005,0.166-0.015,0.325-0.24,0.159
		c-0.029-0.018-0.039-0.035-0.029-0.054c0.01-0.018,0.02-0.026,0.029-0.026C44.865,61.605,44.96,61.622,45.048,61.62z"/>
	<path fill-rule="evenodd" clip-rule="evenodd" fill="#FAAD48" d="M44.168,61.78c-0.026,0.214-0.194,0.145-0.32,0.159
		c0.054-0.053,0.106-0.106,0.16-0.159C44.062,61.78,44.114,61.78,44.168,61.78z"/>
	<path fill-rule="evenodd" clip-rule="evenodd" fill="#F9AC4B" d="M44.808,61.699c0,0.026,0,0.054,0,0.08c-0.16,0-0.319,0-0.479,0
		C44.468,61.636,44.647,61.726,44.808,61.699z"/>
	<path fill-rule="evenodd" clip-rule="evenodd" fill="#FAAD48" d="M47.768,60.979c-0.104,0.127-0.243,0.165-0.4,0.16
		C47.472,61.013,47.611,60.975,47.768,60.979z"/>
	<path fill-rule="evenodd" clip-rule="evenodd" fill="#FAAD48" d="M46.567,61.699c-0.099,0.101-0.195,0.206-0.369,0.177
		c-0.063-0.169,0.09-0.276,0.13-0.416C46.506,61.441,46.586,61.521,46.567,61.699z"/>
	<path fill-rule="evenodd" clip-rule="evenodd" fill="#FAAD48" d="M47.448,62.34c0.006-0.103-0.011-0.219,0.14-0.233
		c0.112-0.011,0.17,0.043,0.18,0.153C47.661,62.286,47.555,62.312,47.448,62.34z"/>
</g>
</svg>
