<?xml version="1.0" encoding="utf-8"?>
<!-- Generator: Adobe Illustrator 16.0.0, SVG Export Plug-In . SVG Version: 6.00 Build 0)  -->
<!DOCTYPE svg PUBLIC "-//W3C//DTD SVG 1.1//EN" "http://www.w3.org/Graphics/SVG/1.1/DTD/svg11.dtd">
<svg version="1.1" id="Layer_1" xmlns="http://www.w3.org/2000/svg" xmlns:xlink="http://www.w3.org/1999/xlink" x="0px" y="0px"
	 width="85px" height="85px" viewBox="0 0 85 85" enable-background="new 0 0 85 85" xml:space="preserve">
<g>
	<path d="M2.504,58.495c0.406-0.639,1.004-0.785,1.729-0.771c1.847,0.031,3.695,0.016,5.542,0.004
		c0.206-0.002,0.481,0.135,0.601-0.191c0.09-0.252-0.011-0.438-0.15-0.645c-1.352-2.002-1.379-4.021-0.027-6.033
		c0.154-0.23,0.205-0.434,0.182-0.717c-0.193-2.242,0.887-4.135,2.926-5.135c0.297-0.146,0.473-0.334,0.625-0.633
		c1.035-2.025,2.697-3.045,4.984-2.914c0.561,0.033,0.686-0.133,0.867-0.65c0.561-1.588,1.105-3.154,1.305-4.854
		c0.125-1.051,0.875-1.859,1.713-2.523c0.6-0.479,1.373-0.691,1.881-1.322c0.219-0.271,0.621-0.209,0.963-0.162
		c0.555,0.012,0.84,0.318,0.934,0.844c0.131,0.738-0.229,1.662-0.789,1.992c-0.271,0.158-0.58,0.227-0.867,0.352
		c-1.006,0.443-1.703,1.584-1.529,2.652c0.129,0.799,0.133,1.543-0.471,2.312c1.232,0.045,2.213,0.484,3.166,1.039
		c0.457,0.266,1.023,0.082,1.541,0.123c1.82,0.258,3.178,1.188,4.061,2.807c0.584,1.068,1.234,1.072,1.867,0.014
		c0.887-1.479,2.121-2.477,3.85-2.779c0.412-0.072,0.678-0.229,0.709-0.674c0.006-0.104-0.031,0.016,0.014-0.076
		c0.754-1.492,1.135-3.084,1.295-4.74c0.021-0.23,0.141-0.445,0.238-0.658c0.756-1.648-0.492-3.428-2.324-3.312
		c-0.285,0.018-0.562,0.096-0.848,0.121c-0.488,0.043-0.932-0.041-1.289-0.408c-0.26-0.264-0.574-0.445-0.91-0.592
		c-1.035-0.438-1.951-0.244-2.799,0.473c-0.762,0.643-1.625,0.715-2.43,0.227c-0.484-0.295-0.766-0.693-0.49-1.291
		c0.117-0.615,0.494-0.965,1.109-1.018c0.256-0.023,0.43-0.154,0.625-0.281c1.945-1.244,3.9-1.27,5.842-0.004
		c0.279,0.184,0.537,0.244,0.867,0.23c2.338-0.105,4.053,0.877,5.107,2.982c0.088,0.174,0.094,0.43,0.379,0.432
		s0.291-0.252,0.379-0.428c1.055-2.102,2.766-3.098,5.104-2.986c0.367,0.018,0.635-0.086,0.932-0.273
		c1.898-1.197,3.82-1.195,5.711,0.006c0.334,0.213,0.629,0.275,1.006,0.264c2.273-0.076,3.951,0.896,4.984,2.93
		c0.146,0.293,0.32,0.486,0.619,0.631c2.037,0.996,3.1,2.855,2.949,5.125c-0.012,0.178-0.1,0.363,0.027,0.527
		c0.621,0.799,0.977,1.701,1.109,2.703c0.045,0.328,0.336,0.262,0.564,0.246c2.449-0.156,4.191,0.869,5.277,3.076
		c0.27,0.547,1.033,0.836,0.85,1.627c-0.045,0.629-0.367,1.004-1.002,1.088c-0.783,0.105-1.639-0.334-1.936-1.025
		c-0.217-0.502-0.396-1.004-0.785-1.422c-0.629-0.672-1.402-0.945-2.262-0.746c-0.885,0.203-1.578-0.018-2.219-0.602
		c-0.211-0.193-0.473-0.318-0.74-0.426c-1.006-0.326-1.898-0.141-2.666,0.594c-0.492,0.471-1.055,0.586-1.725,0.477
		c-1.688-0.273-2.623,0.285-3.186,1.885c-0.207,0.592-0.596,0.938-1.164,1.164c-1.621,0.646-2.127,1.494-1.863,3.213
		c0.104,0.684-0.066,1.205-0.502,1.717c-0.988,1.168-0.994,2.303-0.053,3.543c0.266,0.354,0.625,0.688,0.59,1.154
		c-0.053,0.701,0.34,0.742,0.867,0.736c1.51-0.018,3.018-0.002,4.527-0.014c4.414-0.02,8.826-0.008,13.24-0.006
		c0.508,0.002,0.951,0.039,0.793-0.719c-0.076-0.363,0.172-0.688,0.396-0.984c1.176-1.559,1.18-2.299,0.029-3.908
		c-0.506-0.711-0.561-1.52-0.105-2.176c0.271-0.393,0.596-0.74,1.158-0.545c0.678,0.158,1.178,0.461,1.182,1.27
		c0.002,0.178,0.184,0.359,0.299,0.533c1.209,1.82,1.211,3.941-0.008,5.783c-0.172,0.26-0.428,0.51-0.23,0.84
		c0.188,0.309,0.525,0.141,0.787,0.143c1.822,0.016,3.646,0.029,5.469-0.002c0.752-0.014,1.293,0.223,1.596,0.928
		c0,0.26,0,0.521,0,0.781c-0.691,1.439-1.729,2.652-2.637,3.947c-1.193,1.705-2.363,3.43-3.631,5.08
		c-1.521,1.986-3.59,2.947-6.061,3.062c-0.986,0.045-1.979,0.037-2.965-0.004c-0.652-0.025-1.066,0.227-1.408,0.768
		c-0.598,0.945-1.252,1.854-1.92,2.752c-1.199,1.615-2.814,2.428-4.826,2.428c-11.033,0.004-22.064,0.002-33.1,0.002
		c-2.02,0-3.621-0.836-4.83-2.426c-0.678-0.891-1.322-1.807-1.922-2.752c-0.342-0.539-0.764-0.791-1.41-0.77
		c-1.016,0.033-2.033,0.057-3.045-0.002c-2.525-0.146-4.621-1.15-6.117-3.246c-0.586-0.82-0.531-1.434,0.127-2.168
		c0.777-0.391,1.158-0.354,1.771,0.174c0.157,0.137,0.304,0.287,0.435,0.449c1.125,1.412,2.623,1.984,4.387,1.99
		c3.619,0.012,7.24,0.014,10.859,0.018c14.531,0.021,29.061,0.01,43.592,0.008c0.287,0,0.572,0.01,0.855-0.023
		c1.611-0.236,2.83-1.057,3.756-2.4c1.236-1.803,2.516-3.576,3.795-5.348c0.129-0.176,0.346-0.346,0.186-0.617
		c-0.277-0.137-0.568-0.072-0.852-0.072c-18.223-0.004-36.443-0.018-54.664,0.006c-5.129,0.006-10.256,0.004-15.385,0.02
		c-0.182,0.002-0.363-0.004-0.546,0.004c-0.339,0.016-0.411,0.17-0.229,0.451c0.227,0.35,0.506,0.662,0.707,1.027
		c0.371,0.67,0.459,1.326-0.104,1.943c-0.781,0.504-1.282,0.562-1.806-0.045c-1.166-1.352-2.287-2.75-3.012-4.41
		C2.504,59.017,2.504,58.757,2.504,58.495z"/>
	<path fill="#C28E85" d="M73.412,49.157c-1.336,0.393-1.721,1.688-0.807,2.709c1.143,1.277,1.146,2.723-0.023,3.975
		c-0.396,0.422-0.568,0.859-0.393,1.412c0.121,0.385-0.012,0.488-0.402,0.486c-4.656-0.02-9.312-0.025-13.971-0.037
		c-0.162-0.742-0.621-1.338-0.957-1.998c-0.766-1.502-0.641-2.98,0.406-4.322c0.299-0.385,0.404-0.734,0.33-1.213
		c-0.271-1.74,0.59-3.412,2.195-4.195c0.619-0.303,1.023-0.689,1.324-1.326c0.402-0.854,1.02-1.574,2.021-1.807
		c0.475,0.055,0.793,0.375,1.107,0.682c0.412,0.398,0.854,0.502,1.424,0.365c1.658-0.396,2.961,0.328,3.438,1.967
		c0.256,0.869,0.881,1.105,1.623,1.211c0.682,0.098,1.035-0.348,1.283-0.904c-0.049,0.359,0.203,0.551,0.41,0.781
		C72.99,47.569,73.387,48.282,73.412,49.157z"/>
	<path d="M42.924,7.532c2.66,0.111,4.852,2.434,4.861,5.146c0.01,2.729-2.195,5.059-4.91,5.189
		c-1.756,0.084-2.811,0.902-3.084,2.396c-0.271,1.484,0.75,2.969,2.232,3.24c0.18,0.031,0.363,0.041,0.543,0.068
		c0.801,0.121,1.24,0.596,1.182,1.271c-0.061,0.678-0.58,1.072-1.385,1.051c-2.266-0.066-4.309-1.74-4.83-3.959
		c-0.533-2.271,0.535-4.668,2.576-5.768c0.742-0.4,1.541-0.604,2.387-0.637c1.678-0.066,2.857-1.168,2.941-2.729
		c0.08-1.523-1.045-2.74-2.719-2.939c-0.857-0.102-1.34-0.564-1.303-1.252C41.457,7.892,42.012,7.493,42.924,7.532z"/>
	<path fill="#B87F7F" d="M28.57,30.37c-0.004,0.604,0.229,1.047,0.828,1.252c0.668,0.229,1.275,0.293,1.863-0.273
		c0.99-0.957,2.023-1.102,3.178-0.541c-0.6,0.4-1.336,0.746-1.625,1.391c-0.508,1.131-1.406,1.729-2.377,2.383
		c-1.205,0.812-1.658,2.084-1.443,3.551c0.037,0.258,0.123,0.539-0.053,0.756c-0.609,0.76-0.924,1.664-1.279,2.549
		c-0.906,0.051-1.764,0.041-2.562-0.566c-0.713-0.543-1.658-0.527-2.775-0.67c1.16-0.719,0.986-1.631,0.848-2.619
		c-0.174-1.242,0.713-2.34,2.037-2.775c0.879-0.291,1.283-0.898,1.232-1.812c-0.027-0.545-0.373-0.82-0.801-1.045
		c0.324-0.014,0.48-0.275,0.674-0.471C26.941,30.849,27.764,30.626,28.57,30.37z"/>
	<path fill="#F9F6F6" d="M78.781,60.417c-1.572,2.223-3.109,4.469-4.73,6.654c-0.746,1.008-1.809,1.611-3.092,1.746
		c-0.275,0.125-0.564,0.062-0.848,0.062c-14.477,0.004-28.951-0.008-43.426,0.023c-0.986,0.004-1.492-0.377-1.807-1.229
		c-0.814-2.197-1.691-4.371-2.479-6.578c-0.303-0.854-0.219-0.959,0.652-0.959c18.328-0.002,36.656-0.002,54.984,0.014
		C78.277,60.153,78.703,59.882,78.781,60.417z"/>
	<path fill="#C28E85" d="M23.756,42.862c1.1,0.924,2.342,1.08,3.764,1.006c1.072-0.057,1.816,0.824,2.133,1.881
		c0.15,0.502,0.324,0.941,0.854,1.115c0.318,0.105,0.215,0.27,0.117,0.461c-0.451,0.908-0.643,1.865-0.498,2.871
		c0.041,0.295-0.1,0.482-0.244,0.703c-1.271,1.939-1.277,3.893-0.039,5.848c0.164,0.262,0.434,0.508,0.236,0.838
		c-0.162,0.271-0.475,0.143-0.719,0.143c-3.691-0.002-7.383-0.016-11.074-0.027c-0.084-0.729-0.488-1.309-0.822-1.941
		c-0.756-1.438-0.705-2.906,0.256-4.266c0.334-0.473,0.455-0.926,0.395-1.516c-0.191-1.818,0.807-3.447,2.51-4.154
		c0.449-0.186,0.699-0.461,0.887-0.895C21.945,43.915,22.588,43.093,23.756,42.862z"/>
	<path fill="#C28E85" d="M43.447,42.851c0.053,0.006,0.123-0.008,0.15,0.021c0.994,1.016,2.203,1.031,3.539,0.979
		c1.125-0.045,1.885,0.793,2.229,1.879c0.154,0.49,0.309,0.949,0.844,1.129c0.289,0.098,0.26,0.238,0.143,0.463
		c-0.475,0.902-0.611,1.871-0.512,2.877c0.025,0.25-0.053,0.441-0.189,0.646c-1.33,1.982-1.338,3.98-0.029,5.977
		c0.146,0.227,0.305,0.441,0.201,0.715c-0.133,0.344-0.449,0.189-0.68,0.189c-3.723,0-7.443-0.016-11.166-0.025
		c-0.049-0.604-0.285-1.109-0.621-1.627c-1.012-1.559-0.912-3.137,0.129-4.658c0.258-0.375,0.424-0.732,0.361-1.221
		c-0.234-1.789,0.633-3.428,2.268-4.221c0.598-0.289,0.982-0.672,1.275-1.268C41.818,43.841,42.41,43.079,43.447,42.851z"/>
	<path fill="#DDDAED" d="M78.781,60.417c-0.205-0.295-0.52-0.193-0.789-0.193c-18.305-0.004-36.605-0.002-54.908-0.014
		c-0.627,0-0.742,0.082-0.488,0.721c0.854,2.146,1.625,4.322,2.432,6.486c0.496,1.328,0.586,1.389,2.039,1.389
		c14.527-0.002,29.055-0.006,43.582-0.008c0.105,0,0.207,0.014,0.312,0.02c-0.361,0.211-0.762,0.139-1.145,0.139
		c-18.215,0.002-36.428-0.004-54.643-0.002c-1.869,0-3.371-0.713-4.506-2.207c-0.644-0.846-0.992-0.914-1.918-0.451
		c-0.383-0.963-1.041-1.73-1.717-2.49c0.68-0.74,0.711-1.168,0.141-1.986c-0.381-0.545-0.768-1.086-1.229-1.742
		c0.381,0,0.606,0,0.831,0c23.816-0.002,47.635-0.006,71.451-0.008c0.207,0,0.441-0.051,0.617,0.025
		C79.08,60.196,78.896,60.325,78.781,60.417z"/>
	<path fill="#C28E85" d="M53,30.825c0.908,0.865,1.941,1.004,3.18,0.842c1.09-0.141,2.09,0.736,2.416,1.852
		c0.213,0.725,0.588,1.129,1.326,1.352c1.439,0.436,2.209,1.783,1.83,3.238c-0.234,0.898,0.168,1.486,0.906,2.156
		c-1.459,0.021-2.615,0.346-3.613,1.129c-0.182,0.143-0.402,0.064-0.605,0.057c-2.354-0.117-4.068,0.879-5.088,3.002
		c-0.217,0.451-0.604,0.646-0.969,0.66c-0.371,0.016-0.781-0.178-0.984-0.631c-0.789-1.754-2.184-2.725-4.057-3.045
		c-0.096-0.049-0.199-0.051-0.303-0.053c-0.986-0.025-1.289-0.371-0.76-1.205c0.701-1.105,0.842-2.244,0.939-3.5
		c0.107-1.367,0.973-2.396,2.26-2.953c0.518-0.223,0.855-0.508,1.055-1.043c0.227-0.617,0.648-1.123,1.174-1.527
		C52.086,30.862,52.496,30.642,53,30.825z"/>
	<path fill="#DDDAED" d="M29.225,71.325c0.182-0.01,0.363-0.027,0.545-0.027c10.959-0.002,21.916-0.002,32.875-0.002
		c0.199,0,0.398,0,0.73,0c-0.688,0.971-1.203,1.9-1.939,2.666c-0.703,0.73-1.607,0.988-2.621,0.984
		c-3.332-0.018-6.664-0.006-9.996-0.006c-5.414,0-10.828,0-16.242-0.002c-0.285,0-0.57-0.025-0.855-0.039
		C30.662,73.868,29.762,72.724,29.225,71.325z"/>
	<path fill="#C28E85" d="M27.662,41.437c-0.055-0.947,0.428-1.684,0.951-2.398c0.154-0.211,0.291-0.369,0.24-0.684
		c-0.352-2.102,0.504-3.717,2.461-4.553c0.484-0.207,0.684-0.508,0.881-0.957c0.436-0.994,1.09-1.809,2.244-2.037
		c0.934,0.859,1.98,1.002,3.248,0.869c1.295-0.137,2.613,1.346,2.648,2.604c0.006,0.207-0.129,0.332-0.221,0.482
		c-0.33,0.537-0.725,1.139-0.648,1.725c0.221,1.738-1.047,3.039-1.221,4.643c-0.035,0.322-0.285,0.305-0.521,0.332
		c-1.902,0.236-3.277,1.236-4.092,2.959c-0.227,0.477-0.621,0.693-1.023,0.689c-0.324-0.004-0.729-0.172-0.918-0.604
		C30.916,42.753,29.525,41.776,27.662,41.437z"/>
	<path fill="#B87F7F" d="M23.756,42.862c-1.055,0.648-2.004,1.379-2.242,2.709c-0.043,0.238-0.305,0.258-0.502,0.314
		c-2.047,0.588-3.131,2.883-2.613,4.58c0.074,0.242-0.004,0.438-0.15,0.646c-1.504,2.158-1.512,3.342,0.021,5.402
		c0.326,0.439-0.041,0.793,0.016,1.184c-1.689,0.012-3.375,0.016-5.062,0.039c-0.377,0.006-0.533-0.082-0.41-0.479
		c0.182-0.582-0.023-1.033-0.438-1.473c-1.104-1.166-1.129-2.678-0.029-3.842c0.492-0.521,0.592-1.033,0.445-1.697
		c-0.33-1.5,0.438-2.855,1.904-3.27c0.695-0.195,1.025-0.586,1.229-1.238c0.457-1.467,1.797-2.256,3.291-1.881
		c0.705,0.176,1.182,0.004,1.684-0.459C21.725,42.64,22.68,42.384,23.756,42.862z"/>
	<path fill="#B87F7F" d="M63.139,42.841c-0.971,0.668-1.85,1.408-2.172,2.617c-0.068,0.25-0.287,0.326-0.518,0.414
		c-1.691,0.645-2.766,1.898-2.689,3.684c0.045,1.023-0.193,1.734-0.705,2.553c-0.844,1.348-0.605,2.756,0.295,3.992
		c0.377,0.52,0.549,0.998,0.465,1.604c-1.715,0.01-3.432,0.01-5.145,0.035c-0.457,0.008-0.537-0.143-0.393-0.551
		c0.178-0.492-0.016-0.895-0.354-1.275c-1.26-1.412-1.25-2.689,0.023-4.137c0.338-0.383,0.445-0.783,0.336-1.289
		c-0.396-1.807,0.281-3.008,2.01-3.549c0.553-0.174,0.859-0.506,1.025-1.055c0.49-1.627,1.797-2.404,3.422-2.004
		c0.639,0.154,1.092,0.002,1.547-0.436C61.102,42.663,62.053,42.397,63.139,42.841z"/>
	<path fill="#B87F7F" d="M43.447,42.851c-1.008,0.672-1.877,1.457-2.219,2.682c-0.088,0.312-0.398,0.297-0.625,0.396
		c-1.574,0.703-2.602,1.881-2.586,3.623c0.008,0.918-0.094,1.619-0.635,2.4c-0.885,1.279-0.658,3.197,0.367,4.344
		c0.412,0.459,0.482,0.883,0.227,1.402c-1.662,0.012-3.324,0.014-4.984,0.039c-0.416,0.008-0.598-0.105-0.443-0.531
		c0.195-0.537-0.02-0.941-0.379-1.334c-1.203-1.307-1.209-2.707-0.014-4.018c0.402-0.441,0.52-0.885,0.381-1.488
		c-0.379-1.662,0.377-2.938,2-3.42c0.594-0.176,0.902-0.527,1.078-1.1c0.488-1.584,1.785-2.363,3.365-1.979
		c0.668,0.162,1.137,0.002,1.617-0.449C41.414,42.651,42.367,42.388,43.447,42.851z"/>
	<path fill="#B87F7F" d="M53,30.825c-1.291,0.193-1.941,1.09-2.389,2.197c-0.125,0.312-0.223,0.578-0.605,0.721
		c-2.021,0.754-2.947,2.348-2.627,4.543c0.051,0.361,0.018,0.584-0.238,0.816c-0.131,0.119-0.211,0.293-0.324,0.434
		c-0.32,0.395-0.543,0.854-0.545,1.35c-0.004,0.797,0.812,0.166,1.07,0.551c-0.887,0.072-1.684-0.023-2.496-0.543
		c-1.186-0.76-2.559-0.746-3.918-0.381c0-0.088-0.02-0.154,0.004-0.178c0.809-0.779,1-1.66,0.809-2.799
		c-0.205-1.225,0.611-2.291,1.83-2.648c0.77-0.225,1.145-0.65,1.379-1.4c0.432-1.387,1.801-2.125,3.213-1.783
		c0.67,0.162,1.182,0.07,1.693-0.432C50.764,30.388,51.877,30.267,53,30.825z"/>
	<path fill="#D1CEE8" d="M29.225,71.325c0.832,1.191,1.666,2.383,2.498,3.574c-2.027,0.008-4.055,0.033-6.082,0.014
		c-0.842-0.008-1.588-0.379-2.121-1.014c-0.658-0.785-1.221-1.648-1.895-2.574C24.256,71.325,26.74,71.325,29.225,71.325z"/>
	<path fill="#020101" d="M68.564,51.638c0.645,0.014,1.154,0.562,1.135,1.223s-0.553,1.15-1.219,1.119
		c-0.617-0.029-1.115-0.551-1.113-1.166C67.369,52.179,67.932,51.624,68.564,51.638z"/>
	<path fill="#020101" d="M66.25,51.171c-0.014,0.658-0.543,1.154-1.209,1.131c-0.627-0.021-1.119-0.523-1.125-1.146
		c-0.004-0.645,0.535-1.188,1.178-1.188C65.732,49.968,66.264,50.521,66.25,51.171z"/>
	<path fill="#010101" d="M66.252,54.663c0.012,0.654-0.512,1.188-1.166,1.186c-0.623-0.002-1.137-0.488-1.168-1.107
		c-0.031-0.645,0.486-1.211,1.129-1.234C65.688,53.483,66.242,54.015,66.252,54.663z"/>
	<path fill="#020101" d="M37.314,35.192c0.672,0.006,1.16,0.516,1.143,1.189c-0.018,0.625-0.521,1.137-1.127,1.15
		c-0.627,0.014-1.195-0.543-1.203-1.176C36.119,35.72,36.664,35.187,37.314,35.192z"/>
	<path fill="#010101" d="M33.816,35.843c-0.646-0.018-1.17-0.576-1.143-1.219c0.029-0.646,0.596-1.16,1.238-1.125
		c0.617,0.037,1.102,0.559,1.096,1.182C35.004,35.337,34.467,35.858,33.816,35.843z"/>
	<path fill="#020101" d="M33.863,37.058c0.662,0.008,1.168,0.535,1.145,1.195c-0.021,0.619-0.531,1.131-1.139,1.145
		c-0.625,0.014-1.193-0.545-1.195-1.178C32.672,37.571,33.205,37.05,33.863,37.058z"/>
</g>
</svg>
