<?xml version="1.0" encoding="utf-8"?>
<!-- Generator: Adobe Illustrator 16.0.0, SVG Export Plug-In . SVG Version: 6.00 Build 0)  -->
<!DOCTYPE svg PUBLIC "-//W3C//DTD SVG 1.1//EN" "http://www.w3.org/Graphics/SVG/1.1/DTD/svg11.dtd">
<svg version="1.1" id="Layer_1" xmlns="http://www.w3.org/2000/svg" xmlns:xlink="http://www.w3.org/1999/xlink" x="0px" y="0px"
	 width="85px" height="85px" viewBox="0 0 85 85" enable-background="new 0 0 85 85" xml:space="preserve">
<g>
	<g>
		<path fill="#FF5684" d="M6.555,55.541v12.475l17.311,2.027c12.477,1.402,24.951,1.402,37.428,0l17.311-2.027V59.75L6.555,55.541z
			 M3.281,38.387V18.738L22.15,15.62c13.566-2.184,27.291-2.184,40.857,0l18.869,3.118v13.101L3.281,38.387L3.281,38.387z"/>
		<path fill="#F2F2F2" d="M42.58,57.879c0,3.273-2.652,5.926-5.926,5.926l0,0c-3.275,0-5.926-2.65-5.926-5.926l0,0v-6.395h12.008
			L42.58,57.879L42.58,57.879z M54.588,57.879c0,3.273-2.65,5.926-5.926,5.926l0,0c-3.275,0-5.926-2.65-5.926-5.926l0,0v-6.395
			h12.008C54.588,51.486,54.588,57.879,54.588,57.879z M30.572,51.486v4.365c0,3.275-2.652,5.926-6.082,5.926
			c-3.275,0-5.926-2.648-5.926-5.926l0,0c0,3.275-2.652,5.926-5.928,5.926c-3.273,0-6.082-2.648-6.082-5.926l0,0v-4.365H30.572z
			 M78.604,51.486v4.365c0,3.275-2.652,5.926-5.928,5.926c-3.273,0-5.926-2.648-5.926-5.926l0,0c0,3.275-2.65,5.926-5.926,5.926
			s-5.926-2.648-5.926-5.926l0,0v-4.365H78.604z M42.58,31.837c-0.156-3.587-3.275-6.395-6.863-6.238
			c-3.43,0.156-6.082,2.807-6.236,6.238v13.098h13.1V31.837z M55.678,31.837c-0.154-3.587-3.273-6.395-6.861-6.238
			c-3.432,0.156-6.082,2.807-6.236,6.238v13.098h13.1V31.837H55.678z M16.379,35.112c0.156-3.587,3.275-6.394,6.863-6.237
			c3.43,0.155,6.082,2.807,6.238,6.237v9.824H3.281v-9.824c0-3.587,2.807-6.55,6.393-6.55c1.715,0,3.432,0.624,4.68,1.872
			C15.756,31.681,16.379,33.396,16.379,35.112z M68.623,35.112c0-3.587,2.963-6.55,6.549-6.55c3.588,0,6.551,2.963,6.551,6.55v9.824
			H55.68v-9.824c0-3.587,2.963-6.55,6.551-6.55C65.814,28.562,68.623,31.525,68.623,35.112z"/>
		<path d="M43.982,71.914h-3.119c-0.467,0-0.779-0.312-0.779-0.779c0-0.469,0.312-0.779,0.779-0.779h3.119
			c0.469,0,0.779,0.312,0.779,0.779C44.762,71.604,44.451,71.914,43.982,71.914z M49.129,71.758c-0.467,0-0.779-0.312-0.779-0.779
			s0.312-0.779,0.779-0.779c4.057-0.154,8.109-0.469,12.164-0.936l16.529-1.871v-7.33c-1.246,1.561-3.117,2.496-5.146,2.496
			c-2.65,0-4.834-1.404-5.926-3.588c-1.092,2.184-3.432,3.588-5.926,3.588c-2.184,0-4.211-1.092-5.459-2.809
			c-0.779,2.809-3.43,4.836-6.549,4.836c-1.715,0-3.432-0.625-4.834-1.873c-0.469-0.467-0.938-1.09-1.248-1.715
			c-1.094,2.184-3.432,3.588-5.928,3.588c-3.117,0-5.77-2.027-6.549-4.836c-1.248,1.717-3.275,2.809-5.459,2.809
			c-2.65,0-4.834-1.404-5.926-3.588c-1.092,2.184-3.43,3.588-5.926,3.588l0,0c-2.027,0-3.898-0.936-5.146-2.496v7.174l16.062,2.027
			c3.744,0.467,7.33,0.779,11.072,0.936c0.469,0,0.779,0.312,0.779,0.779c0,0.469-0.467,0.779-0.779,0.779
			c-3.742-0.154-7.484-0.467-11.229-0.936L6.398,68.795c-0.469,0-0.625-0.312-0.625-0.779V51.486c0-0.469,0.312-0.779,0.779-0.779
			h71.893c0.467,0,0.779,0.311,0.779,0.779v4.365l0,0c0,1.092-0.312,2.186-0.779,3.119l0,0c0.467,0,0.779,0.312,0.779,0.779v8.266
			c0,0.469-0.312,0.779-0.623,0.779l-17.312,2.027C57.238,71.291,53.184,71.604,49.129,71.758L49.129,71.758z M43.359,58.035
			c0,1.402,0.623,2.65,1.559,3.432c0.938,0.936,2.34,1.402,3.744,1.559c2.963,0,5.301-2.34,5.301-5.145v-5.615H43.516v5.615
			C43.359,57.879,43.359,58.035,43.359,58.035z M31.352,52.266v5.613c0,2.963,2.34,5.146,5.146,5.146
			c2.963,0,5.301-2.34,5.301-5.146l0,0v-5.613H31.352z M7.336,52.266v3.586c0,2.809,2.338,5.146,5.146,5.146l0,0
			c2.807,0,5.145-2.34,5.145-5.146v-3.586H7.336z M67.219,55.852c0,2.809,2.338,5.146,5.146,5.146c2.807,0,5.145-2.34,5.303-5.146
			v-3.586H67.219V55.852L67.219,55.852z M55.367,55.852c0,2.809,2.34,5.146,5.145,5.146c2.807,0,5.146-2.34,5.146-5.146v-3.586
			H55.211v3.586H55.367z M19.344,55.852c0,2.809,2.338,5.146,5.146,5.146c2.807,0,5.145-2.34,5.301-5.146v-0.156v-3.43H19.344
			V55.852z M78.447,55.852L78.447,55.852L78.447,55.852z M81.721,45.715H3.281c-0.469,0-0.781-0.312-0.781-0.779v-9.824v-0.155
			v-16.22c0-0.312,0.312-0.778,0.625-0.778l18.869-3.119c13.566-2.339,27.445-2.339,41.014,0l18.869,3.119
			c0.312,0,0.623,0.312,0.623,0.778v13.101c0,0.312-0.156,0.624-0.467,0.624c0.311,0.778,0.467,1.715,0.467,2.65v9.824
			C82.502,45.404,82.189,45.715,81.721,45.715z M69.402,44.156h11.539v-9.044l0,0c0-1.56-0.623-2.963-1.715-4.055
			c-1.092-1.091-2.494-1.715-4.055-1.715s-3.119,0.624-4.211,1.715c-1.092,1.092-1.715,2.495-1.715,4.055l0,0l0,0v9.044H69.402z
			 M56.459,44.156h11.539v-9.044l0,0c0-3.118-2.65-5.77-5.77-5.77s-5.771,2.651-5.771,5.77v9.044H56.459z M43.359,44.156h11.539
			V31.837c-0.154-1.561-0.779-2.963-1.871-3.898c-1.092-1.092-2.65-1.56-4.211-1.56c-2.963,0.156-5.303,2.495-5.457,5.458V44.156z
			 M30.26,44.156h11.539V31.837c-0.154-3.119-2.807-5.614-6.082-5.458c-2.963,0.156-5.301,2.495-5.457,5.458v3.119l0,0V44.156z
			 M17.16,44.156h11.539v-9.044c-0.156-1.56-0.779-2.963-1.871-3.897c-1.092-1.092-2.65-1.561-4.209-1.561
			c-2.963,0.156-5.303,2.495-5.459,5.458V44.156L17.16,44.156z M4.061,44.156h11.541v-9.044l0,0c0-3.118-2.496-5.77-5.771-5.77
			c-1.559,0-3.119,0.624-4.209,1.715c-0.936,0.937-1.561,2.495-1.561,3.899v3.431l0,0V44.156L4.061,44.156z M9.83,27.782
			L9.83,27.782c2.963,0,5.459,1.716,6.549,4.212c1.248-2.185,3.432-3.743,6.082-3.899c2.027-0.156,3.9,0.624,5.303,1.872
			c0.312,0.312,0.623,0.624,0.936,0.936c0.469-3.431,3.432-5.926,6.863-6.237c2.963-0.156,5.613,1.56,6.859,4.054
			c1.092-2.339,3.432-3.898,6.238-4.054c1.871-0.156,3.898,0.624,5.303,1.871c1.248,1.092,2.027,2.494,2.338,4.055
			c1.404-1.872,3.434-2.963,5.928-2.963c2.807,0,5.303,1.56,6.551,4.055c0.311-0.78,0.777-1.404,1.402-1.872
			c1.402-1.403,3.273-2.183,5.303-2.183c2.027,0,3.742,0.779,5.145,2.183c0.156,0.156,0.312,0.468,0.469,0.624V19.362l-18.246-2.963
			c-13.41-2.184-27.135-2.184-40.545,0L4.061,19.362v11.072c0.156-0.156,0.312-0.468,0.625-0.624
			C6.088,28.562,7.959,27.782,9.83,27.782z"/>
	</g>
</g>
</svg>
