<?xml version="1.0" encoding="utf-8"?>
<!-- Generator: Adobe Illustrator 16.0.0, SVG Export Plug-In . SVG Version: 6.00 Build 0)  -->
<!DOCTYPE svg PUBLIC "-//W3C//DTD SVG 1.1//EN" "http://www.w3.org/Graphics/SVG/1.1/DTD/svg11.dtd">
<svg version="1.1" id="Capa_1" xmlns="http://www.w3.org/2000/svg" xmlns:xlink="http://www.w3.org/1999/xlink" x="0px" y="0px"
	 width="85px" height="85px" viewBox="0 0 85 85" enable-background="new 0 0 85 85" xml:space="preserve">
<g>
	<path fill="#B4EBDD" d="M59.836,8.341c-1.574-1.004-3.391-1.535-5.248-1.535c-2.594,0-5.027,1.008-6.834,2.77l16.053,10.24
		C65.266,15.634,63.721,10.819,59.836,8.341z"/>
	<path d="M62.15,4.712c-2.268-1.447-4.883-2.211-7.561-2.211c-4.801,0-9.223,2.4-11.83,6.422c-0.312,0.48-0.42,1.066-0.297,1.627
		s0.463,1.049,0.945,1.357l8.168,5.211l-3.949,6.191h-3.285c-1.078-6.705-6.902-11.842-13.906-11.842
		c-7.768,0-14.086,6.316-14.086,14.084c0,7.326,5.621,13.357,12.774,14.021c-0.11,0.85-0.276,1.629-0.511,2.307
		c-0.113,0.33-0.274,0.75-0.461,1.236c-1.467,3.832-4.246,10.965-0.608,16.326c2.25,3.316,6.478,5.195,12.665,5.607v13.145h-9.057
		c-1.188,0-2.152,0.963-2.152,2.152c0,1.188,0.964,2.152,2.152,2.152h22.6c1.188,0,2.152-0.965,2.152-2.152
		c0-1.189-0.965-2.152-2.152-2.152h-9.236V65.05c6.188-0.412,10.492-2.287,12.734-5.602c3.629-5.354,0.908-12.484-0.562-16.314
		c-0.191-0.494-0.344-0.92-0.459-1.254c-1.5-4.352-0.229-13.012,0.385-15.98c0.131-0.635-0.025-1.293-0.436-1.797
		c-0.408-0.502-1.02-0.793-1.666-0.793h-1.779l2.473-3.875l8.32,5.307c0.35,0.225,0.752,0.34,1.158,0.34
		c0.158,0,0.314-0.018,0.473-0.053c0.561-0.127,1.045-0.471,1.352-0.957C70.604,17.544,68.65,8.858,62.15,4.712z M30.434,15.772
		c4.623,0,8.502,3.223,9.52,7.539h-9.659c-0.649,0-1.263,0.293-1.671,0.797c-0.409,0.504-0.568,1.166-0.436,1.801
		c0.377,1.785,0.996,5.629,1.104,9.357c-4.856-0.568-8.64-4.707-8.64-9.713C20.652,20.159,25.04,15.772,30.434,15.772z
		 M51.391,39.452c0.152,1.615,0.414,2.729,0.779,3.787c0.139,0.404,0.314,0.908,0.52,1.439c0.818,2.129,2.121,5.514,2.09,8.557
		c-0.018,1.385-0.309,2.699-1.049,3.791c-0.941,1.391-2.582,2.406-4.895,3.039c-1.748,0.479-3.877,0.736-6.387,0.771
		c-5.836-0.08-9.639-1.361-11.299-3.809c-0.746-1.098-1.039-2.418-1.055-3.809c-0.037-3.047,1.26-6.436,2.076-8.562
		c0.2-0.521,0.374-1.02,0.512-1.418c0.364-1.061,0.625-2.172,0.775-3.787H51.391L51.391,39.452z M51.453,31.62
		c-0.115,1.244-0.188,2.42-0.217,3.527H33.6c-0.031-1.109-0.106-2.289-0.228-3.535c-0.146-1.516-0.336-2.896-0.509-3.998h19.084
		C51.781,28.718,51.596,30.103,51.453,31.62z M63.807,19.815L47.754,9.575c1.807-1.762,4.24-2.77,6.834-2.77
		c1.857,0,3.672,0.531,5.248,1.535C63.721,10.819,65.266,15.634,63.807,19.815z"/>
	<path fill="#FFB929" d="M29.292,35.265c-0.106-3.727-0.728-7.57-1.104-9.357c-0.133-0.635,0.025-1.295,0.435-1.799
		s1.022-0.797,1.671-0.797h9.658c-1.016-4.316-4.896-7.539-9.518-7.539c-5.394,0-9.781,4.387-9.781,9.781
		C20.652,30.56,24.436,34.698,29.292,35.265z"/>
	<path fill="#FFFFFF" d="M32.865,27.616c0.173,1.102,0.363,2.482,0.509,3.998c0.12,1.246,0.196,2.424,0.228,3.535h17.637
		c0.029-1.107,0.102-2.285,0.217-3.529c0.141-1.518,0.326-2.9,0.494-4.004H32.865L32.865,27.616z"/>
	<path fill="#FFFFFF" d="M42.449,60.829c-5.836-0.076-9.639-1.363-11.299-3.812c-0.742-1.094-1.037-2.41-1.055-3.797
		c0.016,1.391,0.311,2.711,1.055,3.809c1.66,2.449,5.463,3.73,11.299,3.809c2.508-0.033,4.639-0.293,6.387-0.771
		C47.088,60.54,44.957,60.798,42.449,60.829z"/>
	<path fill="#FF8500" d="M33.458,39.452c-0.151,1.615-0.41,2.729-0.776,3.787c-0.137,0.398-0.311,0.896-0.511,1.418
		c-0.815,2.129-2.112,5.516-2.077,8.562c0.018,1.387,0.313,2.703,1.055,3.797c1.662,2.449,5.463,3.736,11.301,3.812
		c2.508-0.033,4.639-0.289,6.385-0.764c2.312-0.633,3.953-1.648,4.896-3.041c0.738-1.09,1.031-2.404,1.047-3.789
		c0.031-3.043-1.27-6.43-2.088-8.557c-0.205-0.531-0.381-1.035-0.521-1.439c-0.365-1.059-0.627-2.172-0.779-3.787H33.458
		L33.458,39.452z"/>
</g>
</svg>
