<?xml version="1.0" encoding="utf-8"?>
<!-- Generator: Adobe Illustrator 16.0.0, SVG Export Plug-In . SVG Version: 6.00 Build 0)  -->
<!DOCTYPE svg PUBLIC "-//W3C//DTD SVG 1.1//EN" "http://www.w3.org/Graphics/SVG/1.1/DTD/svg11.dtd">
<svg version="1.1" id="Layer_1" xmlns="http://www.w3.org/2000/svg" xmlns:xlink="http://www.w3.org/1999/xlink" x="0px" y="0px"
	 width="85px" height="85px" viewBox="0 0 85 85" enable-background="new 0 0 85 85" xml:space="preserve">
<g>
	<path fill="#E69799" d="M82.23,53.008c0,0-13.236,7.943-26.795,7.717c-13.561-0.225-26.891-7.908-26.891-7.908
		s-2.938-7.684,2.711-12.654c5.65-4.971,26.438-9.267,26.438-9.267s16.496,4.747,20.562,7.232
		C82.324,40.612,82.23,53.008,82.23,53.008"/>
	<path fill="#272425" d="M24.82,23.904c-0.002-0.009,0.08-0.02,0.242-0.03c0.162-0.004,0.404-0.035,0.721-0.021
		c0.633,0.016,1.566,0.071,2.754,0.229c2.381,0.291,5.791,0.907,9.971,1.799c4.178,0.897,9.123,2.068,14.568,3.51
		c5.443,1.444,11.4,3.114,17.547,5.195c1.535,0.523,3.082,1.075,4.623,1.696c1.537,0.638,3.09,1.246,4.559,2.265
		c0.363,0.274,0.746,0.642,0.93,1.155c0.225,0.526,0.061,1.127-0.158,1.557c-0.49,0.867-1.213,1.412-1.924,1.917
		c-1.445,0.99-3.006,1.717-4.576,2.404c-3.154,1.346-6.4,2.434-9.639,3.439c-1.619,0.502-3.242,0.979-4.855,1.439l-1.209,0.342
		l-0.602,0.17c-0.211,0.053-0.471,0.084-0.701,0.121c-0.912,0.061-1.76-0.014-2.596-0.123c-3.328-0.457-6.48-1.275-9.551-2.066
		c-3.061-0.812-6.014-1.672-8.842-2.523c-5.656-1.711-10.807-3.405-15.24-4.911c-4.43-1.509-8.387-2.917-11.912-4.248
		c-1.766-0.673-3.416-1.302-4.971-2.011c-0.201-0.088-0.396-0.187-0.59-0.291c-0.174-0.085-0.463-0.261-0.652-0.531
		c-0.211-0.273-0.266-0.713-0.176-0.983c0.064-0.315,0.211-0.505,0.336-0.717c0.559-0.73,1.193-1.193,1.812-1.643
		c2.502-1.698,4.855-2.741,6.9-3.635c1.75-0.75,3.533-1.424,5.346-2.016c3.031-0.982,5.025-1.358,6.238-1.501
		C24.391,23.761,24.818,23.84,24.82,23.904c0.023,0.227-1.686,0.125-7.633,2.231c-1.48,0.538-3.223,1.214-5.229,2.114
		c-1.992,0.912-4.326,1.993-6.68,3.625c-0.568,0.415-1.162,0.886-1.551,1.409c-0.186,0.278-0.209,0.463-0.152,0.502
		c0.055,0.089,0.465,0.312,0.826,0.463c1.49,0.667,3.156,1.296,4.908,1.954c3.516,1.312,7.467,2.711,11.891,4.216
		c4.42,1.502,9.561,3.201,15.195,4.921c2.816,0.855,5.758,1.721,8.801,2.539c3.039,0.799,6.189,1.621,9.406,2.076
		c0.801,0.111,1.615,0.178,2.363,0.133c0.178-0.035,0.336-0.041,0.529-0.088l0.605-0.166l1.207-0.336
		c1.611-0.451,3.229-0.916,4.842-1.408c3.225-0.984,6.455-2.049,9.562-3.355c1.543-0.662,3.078-1.373,4.434-2.288
		c0.664-0.454,1.312-0.984,1.654-1.593c0.357-0.601,0.113-1.183-0.518-1.629c-1.283-0.904-2.848-1.555-4.348-2.184
		c-1.518-0.623-3.049-1.184-4.57-1.716c-6.1-2.118-12.033-3.841-17.453-5.34c-5.422-1.492-10.346-2.724-14.5-3.685
		c-4.156-0.955-7.547-1.64-9.908-2c-1.18-0.192-2.102-0.285-2.727-0.336C25.152,23.926,24.82,23.93,24.82,23.904"/>
	<path fill="#272425" d="M80.07,39.366c0.008-0.006,0.043,0.029,0.109,0.109c0.061,0.084,0.182,0.196,0.271,0.377
		c0.191,0.359,0.428,0.913,0.621,1.655c0.414,1.477,0.773,3.661,1.059,6.368c0.141,1.354,0.27,2.836,0.348,4.436l0.021,0.611
		c0.006,0.273-0.158,0.592-0.32,0.723c-0.316,0.338-0.674,0.584-1.037,0.822c-0.732,0.471-1.52,0.871-2.332,1.264
		c-3.271,1.531-7.018,2.818-11.027,3.838c-2.006,0.504-4.082,0.938-6.209,1.234c-1.062,0.152-2.141,0.27-3.225,0.344
		c-0.537,0.062-1.098,0.016-1.65,0.006c-0.551-0.035-1.121,0.004-1.656-0.094c-4.355-0.531-8.58-1.652-12.627-2.814
		c-8.1-2.332-15.479-5.004-21.061-7.076c-5.574-2.096-9.959-3.875-13.391-5.412c-0.861-0.381-1.643-0.76-2.404-1.16
		c-0.387-0.227-0.771-0.418-1.07-0.797c-0.275-0.346-0.482-0.701-0.627-1.047c-0.605-1.386-0.764-2.593-0.924-3.604
		c-0.262-2.026-0.258-3.31-0.236-4.084c0.027-0.772,0.1-1.04,0.176-1.042c0.078,0,0.15,0.262,0.254,1.021
		c0.111,0.758,0.229,2.021,0.582,3.979c0.197,0.963,0.416,2.148,0.979,3.338c0.133,0.303,0.314,0.576,0.514,0.818
		c0.176,0.232,0.51,0.391,0.832,0.568c0.689,0.342,1.49,0.717,2.342,1.076c3.422,1.471,7.809,3.219,13.365,5.309
		c5.564,2.064,12.918,4.76,20.955,7.131c4.012,1.186,8.215,2.33,12.441,2.883c0.529,0.104,1.049,0.062,1.572,0.104
		c0.523,0.016,1.043,0.068,1.578,0.014c1.059-0.062,2.113-0.164,3.164-0.305c2.096-0.271,4.15-0.676,6.139-1.148
		c3.979-0.959,7.715-2.188,10.951-3.639c0.807-0.371,1.584-0.752,2.287-1.188c0.35-0.217,0.689-0.453,0.941-0.709
		c0.145-0.145,0.176-0.217,0.184-0.35l-0.01-0.594c-0.045-1.586-0.143-3.066-0.246-4.416c-0.219-2.699-0.508-4.879-0.846-6.354
		c-0.158-0.74-0.355-1.291-0.508-1.656C80.178,39.555,80.049,39.384,80.07,39.366"/>
	<path fill="#272425" d="M57.447,60.396c-0.135,0.051-0.689-1.076-1.014-2.559c-0.355-1.477-0.514-3.26-0.521-4.348
		c-0.002-2.182,0.332-2.559,0.625-2.529c0.316,0.027,0.48,0.41,0.482,2.518c0.008,1.053,0.037,2.777,0.186,4.23
		C57.324,59.17,57.6,60.344,57.447,60.396 M30.732,53.805c-0.07,0.018-0.463-1.199-0.857-3.217
		c-0.188-1.012-0.395-2.221-0.457-3.592c-0.025-0.688-0.02-1.416,0.123-2.188l0.164-0.588c0.098-0.189,0.191-0.404,0.311-0.576
		c0.244-0.328,0.516-0.633,0.812-0.908c2.408-2.158,5.543-3.581,8.439-4.881c2.92-1.271,5.701-2.282,7.822-3.02
		c4.252-1.455,6.809-2.139,8.293-2.479c1.486-0.335,1.91-0.302,1.951-0.155c0.041,0.148-0.305,0.384-1.729,0.906
		c-1.422,0.531-3.93,1.328-8.152,2.774c-2.107,0.729-4.881,1.709-7.787,2.91c-2.873,1.224-6.018,2.589-8.307,4.518
		c-0.279,0.244-0.523,0.506-0.744,0.777c-0.098,0.135-0.15,0.27-0.236,0.4l-0.148,0.475c-0.15,0.666-0.189,1.357-0.191,2.018
		c0.002,1.324,0.143,2.529,0.264,3.537C30.562,52.539,30.811,53.783,30.732,53.805"/>
</g>
</svg>
