<?xml version="1.0" encoding="utf-8"?>
<!-- Generator: Adobe Illustrator 16.0.0, SVG Export Plug-In . SVG Version: 6.00 Build 0)  -->
<!DOCTYPE svg PUBLIC "-//W3C//DTD SVG 1.1//EN" "http://www.w3.org/Graphics/SVG/1.1/DTD/svg11.dtd">
<svg version="1.1" id="Layer_1" xmlns="http://www.w3.org/2000/svg" xmlns:xlink="http://www.w3.org/1999/xlink" x="0px" y="0px"
	 width="85px" height="85px" viewBox="0 0 85 85" enable-background="new 0 0 85 85" xml:space="preserve">
<g>
	<path fill-rule="evenodd" clip-rule="evenodd" fill="#7BA5C7" d="M40.961,82.5c-0.038,0-0.077,0-0.116,0
		c-0.144-0.126-0.321-0.114-0.494-0.114c-3.145-0.002-6.289-0.003-9.434,0c-0.136,0-0.269,0.025-0.403,0.038l-0.021-0.035
		l0.02-0.036c-0.143-0.126-0.169-0.299-0.167-0.473c0.012-1.289-0.047-2.575,0.031-3.862c0.16-0.511,0.061-1.036,0.096-1.554
		c0.016-0.24-0.037-0.52,0.275-0.636c3.42,0.019,6.84,0.003,10.259,0.01c0.29,0,0.581-0.028,0.865,0.044
		c0.452,0.27,0.109,0.662,0.155,0.993c-0.007,0.06-0.021,0.119-0.039,0.179c-0.071,0.19-0.074,0.396-0.12,0.593
		c-0.063,0.217-0.059,0.444-0.109,0.664c-0.063,0.188-0.07,0.386-0.115,0.576c-0.066,0.209-0.066,0.432-0.111,0.645
		c-0.054,0.174-0.086,0.353-0.112,0.534c-0.008,0.048-0.022,0.098-0.037,0.146c-0.074,0.187-0.054,0.386-0.088,0.577
		c-0.009,0.048-0.023,0.097-0.037,0.144c-0.068,0.187-0.044,0.388-0.082,0.579c-0.008,0.051-0.021,0.1-0.035,0.149
		c-0.054,0.178-0.034,0.362-0.047,0.544C41.087,82.318,41.043,82.418,40.961,82.5z"/>
	<path fill-rule="evenodd" clip-rule="evenodd" fill="#050506" d="M41.644,78.271c0.008-0.222-0.037-0.449,0.078-0.658
		c0.235-0.146,0.03-0.409,0.155-0.584l-0.008,0.012c0.147-0.255,0.074-0.556,0.183-0.826c0.079-0.195-0.06-0.319-0.28-0.326
		c-0.174-0.004-0.347-0.004-0.52-0.004c-3.451-0.008-6.901,0.017-10.353-0.021c-0.268-0.002-0.327,0.06-0.332,0.304
		c-0.012,0.615,0.057,1.231-0.041,1.844c-0.004,1.447-0.009,2.896-0.013,4.341c-0.414,0.119-0.33-0.194-0.333-0.4
		c-0.013-1.25-0.017-2.499-0.024-3.748c-0.119-0.493-0.129-0.989-0.069-1.492c0.076-0.628-0.001-0.71-0.633-0.711
		c-2.861-0.003-5.722,0-8.583,0c-3.944,0-7.888,0.001-11.832-0.006c-0.258,0-0.546,0.097-0.77-0.133
		c-0.413-0.143-0.51-0.439-0.51-0.856c0.008-12.838,0.007-25.675,0.008-38.511c0-0.247-0.039-0.51,0.223-0.671
		c0.16,0.065,0.23,0.198,0.27,0.355c0.07,0.383,0.043,0.771,0.043,1.157c0.001,12.26,0.001,24.521,0.001,36.781
		c0,1.109,0.001,1.111,1.108,1.111c22.046,0,44.092,0,66.137,0c1.202,0,1.202-0.002,1.202-1.211c0-12.222,0-24.444,0.001-36.666
		c0-0.367-0.023-0.735,0.033-1.1c0.051-0.142,0.072-0.315,0.286-0.301c0.069,0.049,0.138,0.098,0.207,0.146
		c0.129,0.174,0.066,0.375,0.066,0.563c0.003,12.727,0.003,25.454,0,38.18c0,0.188,0.056,0.389-0.06,0.567
		c-0.12,0.261-0.342,0.388-0.606,0.459c-0.169,0.187-0.395,0.13-0.6,0.13c-6.45,0.005-12.901,0.005-19.351,0.003
		c-0.231,0-0.465,0.015-0.678-0.11c-0.194,0.112-0.043,0.322-0.132,0.462c-0.115,0.323,0.024,0.669-0.092,0.991
		c0.058,0.214,0.016,0.425-0.023,0.635c-0.117,0.317,0.024,0.657-0.089,0.975c-0.01,0.179-0.019,0.356-0.027,0.533
		c-0.114,0.276,0.021,0.577-0.091,0.854c-0.008,0.142-0.017,0.283-0.026,0.424c-0.11,0.232,0.022,0.493-0.091,0.724
		c-0.129,0.774-0.135,0.787-0.354,0.889c-0.089-0.014-0.143-0.063-0.166-0.15c-0.005-0.139,0.049-0.264,0.084-0.393
		c0.075-0.24,0.032-0.49,0.054-0.735c0.006-0.088,0.021-0.173,0.041-0.258c0.094-0.291,0.051-0.591,0.062-0.888
		c0.003-0.124,0.02-0.246,0.045-0.366c0.109-0.335,0.056-0.68,0.066-1.021c0.003-0.129,0.021-0.257,0.049-0.383
		c0.121-0.414,0.047-0.841,0.066-1.262c0.004-0.171,0.007-0.342,0.047-0.509c0.08-0.286-0.018-0.449-0.322-0.471
		c-0.152-0.011-0.308-0.007-0.462-0.007c-3.176-0.001-6.352-0.001-9.528,0c-0.211,0-0.424-0.017-0.629,0.032
		c-0.079,0.04-0.133,0.104-0.151,0.191c-0.03,0.22-0.024,0.438,0.047,0.651c0.021,0.082,0.035,0.165,0.042,0.252
		c0.015,0.227-0.004,0.458,0.075,0.678c0.022,0.085,0.037,0.171,0.044,0.259c0.021,0.291-0.025,0.585,0.066,0.869
		c0.018,0.057,0.028,0.114,0.037,0.173c0.032,0.259-0.006,0.527,0.085,0.78c0.022,0.087,0.037,0.173,0.044,0.263
		c0.016,0.262-0.016,0.53,0.075,0.786c0.027,0.116,0.043,0.235,0.047,0.356c0.004,0.3-0.012,0.602,0.032,0.901
		c0.003,0.064-0.013,0.124-0.044,0.181c-0.022,0.023-0.047,0.044-0.069,0.067c-0.271,0.142-0.387,0.003-0.435-0.245
		c-0.04-0.206-0.03-0.417-0.031-0.624c0.011-0.214,0.011-0.427-0.06-0.634c-0.033-0.148-0.047-0.299-0.05-0.452
		c0.003-0.237,0.014-0.478-0.066-0.708c-0.034-0.149-0.047-0.301-0.05-0.452c0.007-0.214-0.003-0.424-0.081-0.627
		c-0.124-0.424-0.176-0.855-0.158-1.297c0.007-0.204,0.02-0.408-0.054-0.604c-0.071-0.234-0.122-0.475-0.21-0.705
		c-0.41-0.104-0.83-0.312-1.173,0.14c-0.377,1.662-0.609,3.349-0.937,5.019c-0.09,0.457-0.03,0.986-0.48,1.317
		c-0.039,0-0.077,0-0.116,0c-0.003-0.114-0.005-0.23-0.008-0.346c0.154-0.177,0-0.412,0.111-0.6l-0.009,0.013
		c0.19-0.208-0.001-0.485,0.128-0.705l-0.008,0.01c0.186-0.21-0.01-0.486,0.125-0.705l-0.005,0.009
		c0.163-0.186,0.009-0.431,0.117-0.628c0.007-0.221-0.036-0.447,0.077-0.657C41.725,78.73,41.522,78.46,41.644,78.271z"/>
	<path fill-rule="evenodd" clip-rule="evenodd" fill="#E8E7EF" d="M44.549,81.522c0.002,0.208,0.009,0.418,0.006,0.628
		c-0.006,0.384,0.203,0.188,0.36,0.136c0.054,0.074,0.062,0.145-0.007,0.214c-1.277,0-2.554,0-3.831,0
		c0.314-0.698,0.338-1.461,0.481-2.198c0.275-1.421,0.539-2.844,0.808-4.267c0.006-0.057,0.039-0.078,0.095-0.07
		c0.41-0.137,0.839-0.039,1.254-0.107c0.054-0.019,0.104-0.011,0.147,0.024c-0.038,0.285,0.061,0.548,0.128,0.816
		c0.101,0.199-0.006,0.429,0.091,0.631c-0.026,0.456,0.036,0.901,0.146,1.343c0.091,0.203-0.007,0.432,0.087,0.634
		c0.01,0.136,0.02,0.273,0.028,0.411c0.103,0.233-0.023,0.497,0.089,0.731c0.01,0.143,0.02,0.286,0.028,0.43
		C44.547,81.084,44.456,81.315,44.549,81.522z"/>
	<path fill-rule="evenodd" clip-rule="evenodd" fill="#E6EAF5" d="M30.515,82.424c0.141-0.179,0.341-0.151,0.532-0.151
		c3.122,0,6.244-0.002,9.366,0.002c0.17,0,0.415-0.09,0.432,0.226c-3.443,0-6.887,0-10.33,0
		C30.515,82.475,30.515,82.449,30.515,82.424z"/>
	<path fill-rule="evenodd" clip-rule="evenodd" fill="#E6EAF5" d="M44.908,82.5c0.003-0.07,0.004-0.143,0.007-0.214v-0.02
		c0.185-0.178,0.419-0.185,0.65-0.185c2.933-0.009,5.864-0.009,8.797-0.001c0.229,0.001,0.468-0.006,0.653,0.171
		c0.037,0.041,0.073,0.082,0.11,0.122c-0.001,0.043-0.003,0.085-0.004,0.126C51.718,82.5,48.313,82.5,44.908,82.5z"/>
	<path fill-rule="evenodd" clip-rule="evenodd" fill="#FEFEFE" d="M48.166,22.027c0.221-0.059,0.314,0.134,0.458,0.231
		c0.142-0.114,0.293-0.068,0.44-0.02c1.985,0.652,4.055,0.991,6.046,1.619c1.052,0.332,2.078,0.723,2.996,1.36
		c0.875,0.606,1.419,1.47,1.894,2.381c1.229,2.357,2.107,4.853,2.89,7.385c0.081,0.263,0.261,0.598-0.07,0.788
		c-0.346,0.198-0.75,0.17-1.118,0.007c-0.188-0.084-0.173-0.281-0.171-0.457c0.018-1.094-0.073-1.193-1.172-1.3
		c-0.096-0.009-0.208,0.003-0.283-0.047c-0.964-0.642-2.133-0.223-3.146-0.617c-0.189-0.074-0.428-0.049-0.632-0.001
		c-0.398,0.094-0.756,0.013-1.128-0.133c-0.672-0.263-1.219,0.007-1.467,0.688c-0.166,0.459-0.172,0.949-0.263,1.422
		c-0.07,0.367-0.264,0.538-0.626,0.549c-0.291,0.009-0.58,0.008-0.87,0.008c-3.189,0-6.378,0-9.568,0
		c-0.212,0-0.425-0.001-0.638-0.01c-0.371-0.015-0.554-0.196-0.586-0.572c-0.144-1.659-0.145-3.316,0.022-4.972
		c0.036-0.364,0.091-0.737,0.286-1.057c0.742-1.219,1.142-2.571,1.552-3.923c0.104-0.343,0.163-0.727,0.522-0.933
		c0.095-0.026,0.183-0.006,0.261,0.05c1.019,0.564,1.626,1.498,2.218,2.5c0.361-0.787,0.699-1.554,0.985-2.342
		c0.251-0.69,0.537-1.367,0.789-2.056C47.862,22.367,47.902,22.114,48.166,22.027z"/>
	<path fill-rule="evenodd" clip-rule="evenodd" fill="#FEDCC0" d="M46.417,16.355c0.035,0.074,0.072,0.148,0.109,0.222
		c-0.255,0.509-0.227,1.062-0.169,1.591c0.071,0.652,0.059,1.311,0.175,1.957c0.085,0.466-0.033,0.862-0.329,1.239
		c-0.67,0.855-1.473,1.582-2.24,2.339c-0.539,0.532-0.895,1.139-1.091,1.871c-0.28,1.043-0.604,2.076-1.142,3.024
		c-0.091,0.16-0.155,0.407-0.377,0.377c-0.216-0.03-0.24-0.279-0.282-0.462c-0.229-0.997-0.486-1.986-0.697-2.986
		c-0.115-0.542-0.315-1.018-0.704-1.428c-0.213-0.226-0.488-0.465-0.403-0.851c0.023-0.057,0.064-0.097,0.121-0.121
		c0.105-0.036,0.222-0.046,0.267-0.184c0.091-0.283,0.322-0.391,0.587-0.359c1.354,0.163,2.183-0.641,2.945-1.575
		c0.182-0.222,0.356-0.451,0.564-0.651c0.62-0.549,1.133-1.179,1.457-1.952c-0.399,0.729-0.966,1.318-1.552,1.894
		c-0.633,0.58-1.348,1.025-2.137,1.366c-0.891,0.385-1.726,0.339-2.519-0.235c-1.702-1.233-2.971-2.757-3.273-4.918
		c-0.18-1.285-0.508-2.536-0.813-3.793c-0.046-0.142-0.094-0.285-0.051-0.438c0.276-0.424,0.705-0.746,0.829-1.275
		c0.025-0.107,0.147-0.168,0.269-0.183c0.27,0.015,0.539,0.046,0.804-0.02c0.027-0.325-0.237-0.2-0.365-0.209
		c-0.663-0.045-0.693-0.063-0.691-0.718c0.001-0.587,0.121-1.139,0.493-1.613c0.133-0.18,0.188-0.44,0.478-0.457
		c0.333,0.11,0.363,0.425,0.442,0.693C37.265,9,37.363,9.513,37.562,9.995c0.367,0.886,0.991,1.499,1.92,1.782
		c0.42,0.128,0.832,0.149,1.235-0.057c0.202-0.059,0.404-0.116,0.618-0.104c0.254,0.051,0.447,0.214,0.647,0.362
		c1.052,0.779,2.198,1.057,3.471,0.647c0.243-0.043,0.461,0.019,0.662,0.154c0.104,0.032,0.208,0.066,0.313,0.097
		c0.236,0.094,0.48,0.048,0.723,0.031c0.368,0.063,0.577,0.275,0.612,0.652c-0.044,0.368-0.05,0.735-0.003,1.103
		c-0.054,0.62-0.448,0.971-0.962,1.242C46.624,15.996,46.306,16.006,46.417,16.355z"/>
	<path fill-rule="evenodd" clip-rule="evenodd" fill="#B07459" d="M36.675,7.851c-0.273,0.037-0.182,0.348-0.349,0.465
		c-0.323-0.069-0.386,0.192-0.472,0.394c-0.16,0.375-0.211,0.775-0.196,1.183c0.016,0.445-0.028,0.881-0.173,1.306
		c-0.166,0.488-0.456,0.84-0.995,0.927c-0.124,0.003-0.236-0.037-0.344-0.094c-0.908-0.797-1.308-1.772-1.036-2.979
		c0.192-0.854,0.5-1.65,1.13-2.291c0.147-0.149,0.281-0.316,0.34-0.526c0.114-0.115,0.229-0.229,0.343-0.344
		c0.005-0.228,0.389-0.095,0.35-0.367c1.287-0.803,2.405-1.867,3.848-2.428c1.336-0.521,2.63-0.521,3.901,0.18
		c0.2,0.11,0.398,0.248,0.651,0.175c0.252,0.082,0.504,0.164,0.758,0.247c0.078,0.137,0.194,0.162,0.345,0.145
		c1.33-0.146,2.202,0.509,2.805,1.622c0.415,0.767,0.711,1.583,0.983,2.409c0.048,0.232-0.059,0.472,0.038,0.702
		c0.04,0.297,0.012,0.604,0.135,0.889c-0.131,1.011-0.172,2.037-0.489,3.02c-0.226,0.695-0.252,0.719-0.892,0.371
		c-0.457-0.248-0.883-0.233-1.288,0.102c-0.133-0.227-0.354-0.226-0.575-0.22c-0.135-0.096-0.304-0.09-0.452-0.145
		c-0.445-0.074-0.889-0.061-1.334-0.004c-0.96-0.037-1.637-0.61-2.303-1.22c-0.105,0.077,0.023,0.222-0.078,0.301
		c-0.182,0.133-0.394,0.128-0.604,0.132c-0.115-0.006-0.228-0.021-0.344-0.021c-1.419,0-2.453-0.773-2.864-2.141
		c-0.133-0.442-0.225-0.896-0.374-1.333c-0.184-0.54-0.436-1.027-0.932-1.347c-0.117-0.308-0.269-0.083-0.405-0.024
		c0.039,0.247,0.274,0.161,0.408,0.242C36.47,7.333,36.794,7.438,36.675,7.851z"/>
	<path fill-rule="evenodd" clip-rule="evenodd" fill="#020101" d="M39.303,23.198c0.017,0.248,0.155,0.451,0.323,0.599
		c0.621,0.546,0.812,1.281,0.981,2.042c0.228,1.028,0.48,2.051,0.742,3.16c0.589-0.947,0.975-1.897,1.2-2.884
		c0.287-1.264,0.929-2.253,1.887-3.092c0.622-0.546,1.164-1.18,1.701-1.814c0.242-0.287,0.326-0.569,0.261-0.947
		c-0.18-1.048-0.192-2.111-0.163-3.173c0.006-0.206-0.085-0.502,0.292-0.51c0.037,0.043,0.075,0.086,0.112,0.13
		c0.123,0.688,0.086,1.377,0.017,2.068c-0.003,0.542-0.031,1.01,0.481,1.476c0.483,0.437,0.696,1.172,1.029,1.775
		c-0.619,1.593-1.237,3.187-1.859,4.778c-0.066,0.169-0.068,0.433-0.302,0.443c-0.238,0.01-0.239-0.264-0.327-0.422
		c-0.457-0.823-0.857-1.693-1.84-2.049c-0.047-0.018-0.062-0.129-0.091-0.197c0.197-0.344,0.456-0.201,0.698-0.077
		c0.496,0.256,0.851,0.658,1.146,1.125c0.109,0.176,0.192,0.375,0.398,0.551c0.497-1.32,1.039-2.596,1.48-3.909
		c0.15-0.449-0.13-0.79-0.385-1.099c-0.188-0.226-0.299,0.035-0.395,0.154c-0.773,0.968-1.618,1.87-2.507,2.732
		c-0.167,0.162-0.324,0.333-0.556,0.406c-0.378,0.351-0.433,0.849-0.566,1.303c-0.365,1.243-0.789,2.46-1.452,3.582
		c-0.214,0.361-0.252,0.768-0.288,1.17c-0.142,1.602-0.09,3.205-0.031,4.808c0.011,0.295,0.092,0.392,0.4,0.391
		c3.73-0.01,7.461-0.01,11.192,0.001c0.318,0,0.374-0.127,0.401-0.402c0.044-0.441,0.116-0.881,0.219-1.312
		c0.231-0.969,0.94-1.312,1.84-0.895c0.276,0.127,0.529,0.193,0.832,0.102c0.399-0.12,0.803-0.104,1.182,0.099
		c0.018,0.009,0.036,0.025,0.053,0.025c1.032,0.003,2.013,0.297,3.015,0.476c1.019,0.182,1.419,0.453,1.274,1.504
		c-0.016,0.114-0.037,0.227-0.054,0.336c0.048,0.022,0.082,0.049,0.117,0.052c1.231,0.093,1.234,0.092,0.858-1.059
		c-0.705-2.165-1.515-4.287-2.438-6.373c-0.961-2.173-2.558-3.499-4.807-4.166c-1.871-0.554-3.783-0.941-5.651-1.497
		c-0.368-0.11-0.733-0.233-1.101-0.35c-0.062-0.24-0.027-0.407,0.273-0.304c2.413,0.827,4.956,1.192,7.358,2.067
		c1.815,0.661,3.129,1.823,3.993,3.565c1.233,2.483,2.141,5.085,2.977,7.718c0.034,0.107,0.088,0.207,0.132,0.31l-0.001-0.002
		c0.165,0.208,0.396,0.092,0.588,0.093c4.12,0.008,8.24,0.005,12.359,0.009c0.273,0,0.59-0.091,0.769,0.236
		c-0.11,0.062-0.132,0.171-0.148,0.283c-0.305,0.092-0.615,0.023-0.923,0.023c-4.468,0.003-8.935,0.002-13.403,0.003
		c-0.23,0-0.465-0.013-0.69,0.06c-0.168,0.055-0.246,0.192-0.255,0.352c-0.01,0.218,0.172,0.226,0.325,0.245
		c0.19,0.022,0.385,0.013,0.579,0.013c3.944,0,7.89-0.004,11.836,0.007c0.338,0.001,0.752-0.134,0.966,0.305
		c-0.177,0.372-0.524,0.265-0.812,0.267c-3.075,0.009-6.151,0.005-9.228,0.005c-1.237,0-2.477,0.005-3.714-0.003
		c-0.265-0.002-0.553,0.042-0.744-0.218c-0.136-0.286-0.033-0.566,0.036-0.844c0.11-0.45,0.223-0.898,0.267-1.359
		c0.041-0.417-0.138-0.694-0.57-0.695c-0.516-0.001-0.99-0.103-1.426-0.382c-0.032-0.021-0.073-0.041-0.109-0.038
		c-0.956,0.085-1.882-0.258-2.831-0.211c-0.376,0.019-0.729,0.006-1.068-0.154c-0.244-0.098-0.483-0.235-0.755-0.079
		c-0.312,0.161-0.365,0.465-0.423,0.768c-0.012,0.085-0.028,0.17-0.052,0.253c-0.132,0.773-0.137,1.563-0.317,2.33
		c-0.13,0.335-0.008,0.938-0.708,0.67c-0.27-0.055-0.54-0.035-0.812-0.035c-7.706-0.001-15.415,0.001-23.123-0.009
		c-0.446-0.001-0.863,0.102-1.291,0.18c-0.359-0.368-0.298-0.855-0.333-1.302c-0.049-0.616-0.116-1.228-0.248-1.83
		c-0.173-0.79-0.479-0.951-1.238-0.692c-0.165,0.055-0.338,0.162-0.5,0.125c-0.782-0.176-1.522,0.12-2.283,0.166
		c-0.593,0.036-1.193,0.044-1.741,0.342c-0.241,0.132-0.524,0.115-0.793,0.122c-0.457,0.011-0.646,0.251-0.658,0.696
		c-0.018,0.628,0.25,1.204,0.301,1.819c-0.041,0.242-0.167,0.39-0.428,0.391c-3.098-0.023-6.195,0-9.292-0.014
		c-0.294-0.001-0.626,0.096-0.858-0.2c0.011-0.079,0.052-0.135,0.124-0.17c0.26-0.103,0.534-0.068,0.803-0.068
		c2.746-0.003,5.491,0,8.236-0.004c0.227,0,0.468,0.058,0.67-0.096c0.112-0.333,0.014-0.593-0.265-0.794
		c-0.148-0.067-0.304-0.055-0.458-0.055c-3.273,0-6.546-0.002-9.818,0c-0.155,0-0.308,0.003-0.459,0.042
		c-0.112,0.014-0.221,0.005-0.317-0.063c-0.044-0.092-0.089-0.184-0.134-0.275c0.209-0.201,0.471-0.107,0.706-0.108
		c3.361-0.007,6.723-0.001,10.084-0.013c0.184,0,0.416,0.136,0.569-0.097c-0.027-0.026-0.037-0.051-0.026-0.076
		c0.01-0.025,0.02-0.038,0.029-0.038c0.008-0.193,0.006-0.387,0.028-0.578c0.039-0.323,0.179-0.728,0.48-0.72
		c1.035,0.027,1.903-0.762,2.945-0.565c0.496,0.094,0.912-0.242,1.341-0.218c0.683,0.037,0.84-0.379,1.079-0.846
		c0.939-1.842,2.067-3.577,3.069-5.381c1.272-2.29,3.215-3.465,5.72-3.88c0.55-0.09,1.093-0.219,1.641-0.33
		c0.054-0.093,0.124-0.075,0.198-0.028c0.675-0.05,1.323-0.234,1.972-0.413c0.502-0.138,0.524-0.67,0.792-1
		c0.082-0.102-0.174-0.215-0.285-0.307c-1.194-0.991-2.168-2.15-2.6-3.667c-0.215-0.756-0.288-1.55-0.455-2.321
		c-0.139-0.639-0.32-1.268-0.483-1.901c-0.14-0.201-0.28-0.412-0.139-0.662c0.091-0.161,0.24-0.144,0.379-0.041
		c0.371,1.415,0.656,2.847,0.938,4.282c0.425,2.169,1.807,3.647,3.683,4.705c0.514,0.29,1.046,0.143,1.57-0.013
		c0.924-0.275,1.645-0.888,2.403-1.439c0.206-0.02,0.296,0.065,0.254,0.274c-0.396,0.435-0.816,0.853-1.187,1.31
		c-0.626,0.77-1.451,1.043-2.401,1.016c-0.278-0.008-0.518-0.08-0.503,0.362c0.009,0.268-0.191,0.234-0.344,0.06
		c-0.227-0.303-0.029-0.654-0.109-0.973c-0.157-0.253-0.314-0.333-0.506-0.024c-0.215,0.347-0.355,0.722-0.442,1.118
		c-0.156,0.711-0.294,1.426-0.409,2.217c0.306-0.252,0.507-0.54,0.791-0.721c0.343-0.221,0.706-0.433,1.077-0.031
		c0.014,0.181-0.081,0.313-0.234,0.363c-0.785,0.256-1.156,0.929-1.592,1.541c-0.171,0.24-0.282,0.674-0.643,0.551
		c-0.427-0.146-0.268-0.583-0.217-0.916c0.142-0.917,0.291-1.833,0.458-2.747c0.048-0.257,0.044-0.43-0.299-0.344
		c-1.37,0.345-2.783,0.47-4.15,0.831c-1.819,0.481-3.233,1.437-4.213,3.106c-1.097,1.867-2.252,3.699-3.235,5.631
		c-0.058,0.115-0.159,0.22-0.122,0.371c0.146,0.041,0.261-0.055,0.389-0.086c0.727-0.177,1.361,0.132,1.655,0.824
		c0.137,0.322,0.221,0.663,0.242,1.012c0.029,0.492,0.284,0.666,0.758,0.65c0.638-0.021,1.277-0.02,1.914,0
		c0.452,0.014,0.632-0.17,0.606-0.617c-0.061-1.042-0.167-2.081-0.12-3.127c0.01-0.212-0.013-0.428,0.033-0.637
		c0.049-0.227,0.101-0.497,0.4-0.479c0.256,0.015,0.312,0.256,0.342,0.474c0.027,0.192,0.02,0.386,0.021,0.579
		c0,1.045-0.005,2.089,0.002,3.133c0.004,0.605,0.062,0.667,0.667,0.667c2.553,0.006,5.105,0.006,7.658,0
		c0.561-0.001,0.615-0.082,0.575-0.595c-0.13-1.642-0.1-3.283,0.096-4.918c0.05-0.415,0.008-0.801-0.079-1.203
		c-0.301-1.377-0.709-2.729-0.945-4.121c-0.626-0.524-1.148-1.11-1.085-2.002c0.021-0.284,0.039-0.602,0.446-0.624
		C39.515,22.426,39.276,22.827,39.303,23.198z"/>
	<path fill-rule="evenodd" clip-rule="evenodd" fill="#0D0806" d="M31.52,8.966c-0.002,0.686-0.089,0.744-0.765,0.553
		c-1.188-0.336-2.393-0.597-3.62-0.735c-0.532-0.06-0.714-0.256-0.613-0.823c0.381-2.125,0.331-1.679,1.903-1.037
		c0.983,0.402,1.9,0.934,2.764,1.553C31.356,8.597,31.574,8.694,31.52,8.966z"/>
	<path fill-rule="evenodd" clip-rule="evenodd" fill="#EEEEF1" d="M77.286,75.407c-0.003-2.05-0.01-4.098-0.01-6.146
		c0-11.056,0.001-22.11,0.003-33.165c0.299,0.097,0.119,0.335,0.12,0.491c0.012,3.962,0.009,7.923,0.009,11.886
		c0,8.831,0,17.663,0,26.495c0,0.173,0,0.348-0.003,0.521c0,0.012-0.022,0.023-0.035,0.033
		C77.343,75.484,77.314,75.445,77.286,75.407z"/>
	<path fill-rule="evenodd" clip-rule="evenodd" fill="#EBEAF2" d="M7.548,75.264c0-12.975,0-25.948,0-38.922c0.02,0,0.039,0,0.058,0
		c0,12.982,0,25.964,0,38.946C7.587,75.279,7.568,75.272,7.548,75.264z"/>
	<path fill-rule="evenodd" clip-rule="evenodd" fill="#080303" d="M43.674,3.451c-0.059,0.305-0.223,0.25-0.417,0.127
		c-1.768-1.122-3.479-0.799-5.165,0.201c-0.976,0.578-1.823,1.352-2.839,1.869c-0.085,0.11-0.222,0.071-0.332,0.108
		c-0.265,0.05-0.529,0.105-0.796,0.149c-0.094,0.015-0.203,0.001-0.234-0.112c-0.04-0.144,0.056-0.228,0.178-0.243
		c1.319-0.166,2.253-1.049,3.285-1.751c1.188-0.809,2.455-1.395,3.941-1.287C42.182,2.578,42.99,2.861,43.674,3.451z"/>
	<path fill-rule="evenodd" clip-rule="evenodd" fill="#090605" d="M46.068,12.956c-0.017-0.454,0.354-0.395,0.611-0.431
		c0.478-0.067,0.854,0.173,1.209,0.533c0.382-1.008,0.544-2.009,0.61-3.032c0.015-0.206-0.114-0.493,0.238-0.562
		c0.205,0.137,0.122,0.349,0.122,0.528c0.003,0.735-0.116,1.457-0.292,2.168c-0.183,0.738-0.407,1.45-0.437,2.237
		c-0.038,1.037-0.787,1.615-1.714,1.959c-0.109-0.05-0.305,0.046-0.321-0.152c-0.013-0.169,0.151-0.191,0.273-0.24
		c0.598-0.246,1.128-0.565,1.303-1.251c-0.015-0.386,0.06-0.771,0-1.156c-0.084-0.291-0.251-0.5-0.561-0.572
		c-0.23-0.004-0.462-0.007-0.692,0.002C46.303,12.976,46.187,12.966,46.068,12.956z"/>
	<path fill-rule="evenodd" clip-rule="evenodd" fill="#211810" d="M31.227,11.112c0.044,0.363-0.208,0.392-0.469,0.432
		c-0.873,0.134-1.786,0.183-2.571,0.587c-0.638,0.327-0.689-0.033-0.793-0.452c-0.319-1.297-0.24-1.399,1.083-1.397
		c0.735,0.001,1.469,0.002,2.197,0.139c0.243,0.045,0.446,0.111,0.523,0.373C31.307,10.891,31.273,11.001,31.227,11.112z"/>
	<path fill-rule="evenodd" clip-rule="evenodd" fill="#090505" d="M34.581,6.235c0.28,0.276-0.013,0.401-0.155,0.551
		c-0.789,0.832-1.167,1.83-1.246,2.963c-0.064,0.918,0.478,1.546,0.994,2.193c0.497,0.356,0.521,0.854,0.415,1.391
		c-0.058,0.117-0.082,0.279-0.258,0.267c-0.109-0.008-0.167-0.102-0.151-0.208c0.126-0.811-0.432-1.324-0.829-1.903
		C32.312,9.968,32.964,7.167,34.581,6.235z"/>
	<path fill-rule="evenodd" clip-rule="evenodd" fill="#090505" d="M48.501,7.981c-0.388-0.792-0.583-1.664-1.021-2.434
		c-0.455-0.798-1.043-1.417-2.004-1.578C45.2,3.923,44.944,3.992,44.68,4.026c-0.261,0.034-0.455-0.001-0.248-0.33
		c0.097-0.034,0.191-0.068,0.288-0.103c0.088-0.129,0.195-0.083,0.303-0.033c1.27,0.002,2.129,0.665,2.741,1.717
		c0.292,0.501,0.502,1.039,0.685,1.586c0.198,0.593,0.446,1.148,0.964,1.54c0.122,0.093,0.271,0.21,0.113,0.369
		c-0.119,0.12-0.248,0.014-0.349-0.081c-0.182-0.169-0.361-0.342-0.542-0.513C48.546,8.143,48.533,8.055,48.501,7.981z"/>
	<path fill-rule="evenodd" clip-rule="evenodd" fill="#F5F4FA" d="M8.27,75.862c0.192-0.011,0.385-0.026,0.577-0.026
		c6.92-0.001,13.839,0.008,20.758-0.016c0.588-0.002,0.722,0.162,0.647,0.708c-0.076,0.553-0.066,1.116-0.094,1.676
		c-0.126-0.088-0.102-0.222-0.107-0.347c-0.125-0.477-0.041-0.96-0.049-1.44c-0.005-0.277-0.104-0.387-0.376-0.362
		c-0.134,0.012-0.27,0.001-0.406,0.001c-6.826,0-13.653,0.002-20.48-0.001c-0.209-0.002-0.426,0.053-0.627-0.054
		C8.165,75.954,8.217,75.907,8.27,75.862z"/>
	<path fill-rule="evenodd" clip-rule="evenodd" fill="#E4E3EB" d="M8.113,76.001c7.084,0,14.167,0.006,21.25-0.013
		c0.565-0.002,0.757,0.158,0.695,0.711c-0.042,0.382-0.008,0.771-0.008,1.158c-0.231-0.294-0.1-0.634-0.108-0.949
		c-0.021-0.791-0.007-0.791-0.777-0.791c-6.778,0-13.557,0-20.335-0.006C8.59,76.111,8.325,76.209,8.113,76.001z"/>
	<path fill-rule="evenodd" clip-rule="evenodd" fill="#F6F5FB" d="M56.052,75.889c0.132-0.017,0.264-0.051,0.394-0.051
		c6.63-0.003,13.26-0.003,19.89-0.002c0.115,0,0.229,0.021,0.345,0.03c0.088,0.044,0.176,0.089,0.265,0.133
		c-0.161,0.1-0.34,0.056-0.51,0.056c-6.585,0.003-13.169,0.003-19.755,0c-0.17,0-0.348,0.041-0.511-0.053
		C56.13,75.965,56.091,75.927,56.052,75.889z"/>
	<path fill-rule="evenodd" clip-rule="evenodd" fill="#E4E3EB" d="M56.169,76.002c6.925-0.001,13.85-0.001,20.775-0.003
		c-0.17,0.191-0.398,0.113-0.601,0.113c-6.523,0.005-13.049,0.005-19.573,0C56.567,76.112,56.342,76.189,56.169,76.002z"/>
	<path fill-rule="evenodd" clip-rule="evenodd" fill="#F2F1F7" d="M63.357,35.615c0.128-0.167,0.313-0.122,0.482-0.123
		c4.21-0.001,8.422-0.001,12.633,0c0.073,0,0.147,0.013,0.22,0.12c-4.446,0-8.892,0-13.336,0L63.357,35.615z"/>
	<path fill-rule="evenodd" clip-rule="evenodd" fill="#F2F1F7" d="M19.352,35.492c0,0.038-0.002,0.077-0.003,0.114
		c-3.667,0-7.332,0-10.999,0c0-0.037,0.001-0.076,0.001-0.114C12.018,35.492,15.685,35.492,19.352,35.492z"/>
	<path fill-rule="evenodd" clip-rule="evenodd" fill="#9A7A6D" d="M34.589,13.333c0.014-0.509-0.176-0.957-0.415-1.391
		c0.103,0.037,0.205,0.073,0.308,0.11c0.129,0.111,0.3,0.14,0.443,0.226c-0.055,0.146,0.071,0.237,0.109,0.355
		c-0.674,0.031-0.066,0.5-0.24,0.702C34.725,13.334,34.657,13.333,34.589,13.333z"/>
	<path fill-rule="evenodd" clip-rule="evenodd" fill="#F6F4FB" d="M46.655,18.775c-0.072-0.689-0.05-1.378-0.017-2.068
		c0.281,0.013,0.121,0.232,0.114,0.321C46.715,17.61,46.895,18.206,46.655,18.775z"/>
	<path fill-rule="evenodd" clip-rule="evenodd" fill="#F4F2FB" d="M32.626,10.175c0-0.217,0-0.434,0-0.652
		c0.017-0.001,0.032-0.003,0.048-0.006c0,0.212,0,0.424,0,0.636C32.659,10.161,32.643,10.168,32.626,10.175z"/>
	<path fill-rule="evenodd" clip-rule="evenodd" fill="#05070C" d="M55.828,77.342c0.028-0.33-0.114-0.677,0.092-0.991
		C55.923,76.684,55.96,77.021,55.828,77.342z"/>
	<path fill-rule="evenodd" clip-rule="evenodd" fill="#05070C" d="M55.716,78.951c0.02-0.326-0.115-0.666,0.089-0.975
		C55.817,78.305,55.829,78.634,55.716,78.951z"/>
	<path fill-rule="evenodd" clip-rule="evenodd" fill="#05070C" d="M55.598,80.338c0.019-0.287-0.104-0.586,0.091-0.854
		C55.701,79.773,55.704,80.062,55.598,80.338z"/>
	<path fill-rule="evenodd" clip-rule="evenodd" fill="#CCB5AE" d="M48.501,7.981c0.076,0.044,0.134,0.101,0.134,0.198
		c-0.011,0.132-0.022,0.264-0.032,0.396C48.493,8.39,48.436,8.196,48.501,7.981z"/>
	<path fill-rule="evenodd" clip-rule="evenodd" fill="#05070C" d="M55.48,81.485c0.016-0.242-0.094-0.502,0.091-0.724
		C55.584,81.008,55.587,81.255,55.48,81.485z"/>
	<path fill-rule="evenodd" clip-rule="evenodd" fill="#A68172" d="M34.922,5.756C35,5.622,35.139,5.671,35.253,5.648
		c-0.008,0.218-0.239,0.136-0.33,0.243C34.923,5.846,34.923,5.801,34.922,5.756z"/>
	<path fill-rule="evenodd" clip-rule="evenodd" fill="#F5F4FA" d="M45.022,3.561c-0.102,0.011-0.202,0.022-0.303,0.033
		c-0.052-0.021-0.129-0.028-0.145-0.064c-0.034-0.077,0.048-0.069,0.09-0.07C44.795,3.454,44.929,3.438,45.022,3.561z"/>
	<path fill-rule="evenodd" clip-rule="evenodd" fill="#F4F3F9" d="M35.853,22.943c-0.066,0.009-0.132,0.019-0.198,0.028
		c-0.088-0.016-0.175-0.031-0.348-0.062C35.554,22.819,35.709,22.797,35.853,22.943z"/>
	<path fill-rule="evenodd" clip-rule="evenodd" fill="#F5F4FA" d="M31.227,11.112c-0.01-0.105-0.02-0.212-0.03-0.318
		c0.011-0.035,0.013-0.074,0.032-0.104c0.038-0.058,0.085-0.051,0.09,0.018C31.33,10.851,31.36,11.001,31.227,11.112z"/>
	<path fill-rule="evenodd" clip-rule="evenodd" fill="#05060A" d="M30.526,78.012c-0.003-0.579,0.008-1.16-0.017-1.74
		c-0.016-0.364,0.091-0.513,0.485-0.512c3.559,0.013,7.118,0.013,10.677,0c0.423-0.001,0.53,0.204,0.429,0.533
		c-0.077,0.248,0,0.548-0.231,0.748c0.042-0.348,0.085-0.693,0.127-1.039c-0.198-0.116-0.416-0.058-0.623-0.058
		c-3.337-0.005-6.673-0.002-10.009-0.008c-0.207,0-0.424,0.062-0.621-0.06c-0.239,0.465-0.074,0.972-0.147,1.453
		C30.562,77.556,30.549,77.785,30.526,78.012z"/>
	<path fill-rule="evenodd" clip-rule="evenodd" fill="#8DADC7" d="M30.743,75.877c0.481-0.013,0.962-0.036,1.443-0.036
		c3.072-0.005,6.145-0.006,9.217,0.007c0.193,0,0.468-0.163,0.593,0.154c-3.533-0.001-7.066,0-10.598-0.006
		C31.178,75.996,30.93,76.084,30.743,75.877z"/>
	<path fill-rule="evenodd" clip-rule="evenodd" fill="#05060A" d="M41.183,80.862c-0.027,0.236,0.123,0.507-0.128,0.705
		C41.063,81.325,41.045,81.079,41.183,80.862z"/>
	<path fill-rule="evenodd" clip-rule="evenodd" fill="#05060A" d="M41.301,80.167c-0.029,0.237,0.117,0.505-0.125,0.705
		C41.181,80.631,41.167,80.386,41.301,80.167z"/>
	<path fill-rule="evenodd" clip-rule="evenodd" fill="#05060A" d="M41.412,79.548c-0.016,0.214,0.105,0.454-0.117,0.628
		C41.295,79.959,41.288,79.742,41.412,79.548z"/>
	<path fill-rule="evenodd" clip-rule="evenodd" fill="#05060A" d="M41.064,81.555c-0.008,0.206,0.093,0.431-0.111,0.6
		C40.952,81.947,40.933,81.737,41.064,81.555z"/>
	<path fill-rule="evenodd" clip-rule="evenodd" fill="#05060A" d="M41.877,77.029c-0.021,0.203,0.124,0.449-0.155,0.584
		C41.792,77.424,41.733,77.2,41.877,77.029z"/>
	<path fill-rule="evenodd" clip-rule="evenodd" fill="#05060A" d="M41.644,78.271c-0.026,0.212,0.132,0.472-0.155,0.619
		C41.557,78.688,41.506,78.455,41.644,78.271z"/>
	<path fill-rule="evenodd" clip-rule="evenodd" fill="#FDFDFD" d="M19.479,36.095c0.089,0.303,0.177,0.605,0.265,0.908
		c-0.099,0.312-0.36,0.162-0.538,0.162c-2.952,0.011-5.902,0.006-8.854,0.011c-0.208,0-0.424-0.053-0.625,0.053
		c-0.034,0.011-0.068,0.022-0.102,0.034c-0.046,0.066-0.059,0.146-0.091,0.217c-0.076,0.163-0.107,0.333-0.097,0.512
		c0.001,3.195,0,6.389,0.002,9.58c-0.003,8.374,0,16.747-0.001,25.121c0,0.252,0.003,0.503,0.004,0.755
		c0.001,0.428,0.212,0.641,0.641,0.642c0.135,0,0.271,0.005,0.406,0.005c21.333,0,42.665,0,63.996-0.002c0.363,0,0.75,0.062,1-0.309
		c0.14-0.183,0.131-0.398,0.131-0.611c0-11.719,0.008-23.437-0.002-35.156c0-0.058-0.006-0.115-0.012-0.172
		c-0.056-0.222-0.223-0.393-0.283-0.612c-0.204-0.168-0.446-0.094-0.671-0.095c-4.236-0.004-8.472-0.003-12.708-0.003
		c-0.209,0-0.417,0-0.635,0c0.214-1.053,0.214-1.053,1.223-1.053c4.585,0.001,9.168,0,13.753,0.002c0.224,0,0.467-0.062,0.643,0.149
		c-0.008,0.231-0.021,0.463-0.021,0.694c-0.001,12.593-0.004,25.187,0.012,37.78c0,0.562-0.101,0.748-0.719,0.747
		c-22.459-0.019-44.918-0.018-67.377-0.003c-0.558,0-0.702-0.146-0.701-0.702c0.014-12.884,0.009-25.767,0.006-38.65
		c0.074-0.014,0.147-0.026,0.221-0.04c0.127-0.065,0.264-0.043,0.398-0.043c3.433-0.001,6.865-0.002,10.297,0.001
		C19.189,36.018,19.353,35.962,19.479,36.095z"/>
	<path fill-rule="evenodd" clip-rule="evenodd" fill="#7BA5C7" d="M55.016,82.252c-3.367,0.005-6.733,0.01-10.101,0.015
		c-0.003-0.038-0.007-0.077-0.012-0.115c-0.135-0.314,0.025-0.657-0.099-0.972c-0.006-0.103-0.013-0.204-0.021-0.307
		c-0.126-0.271,0.027-0.574-0.098-0.845c-0.004-0.066-0.008-0.132-0.014-0.198c-0.132-0.273,0.02-0.581-0.1-0.857
		c0.024-0.024,0.022-0.048-0.006-0.068c-0.164-0.309,0.024-0.657-0.111-0.969c-0.006-0.064-0.012-0.131-0.018-0.196
		c-0.123-0.232,0.018-0.5-0.099-0.732c-0.005-0.065-0.011-0.13-0.016-0.195c-0.081-0.131-0.062-0.261-0.006-0.395
		c0.037-0.062,0.072-0.124,0.107-0.188c0.172-0.269,0.449-0.273,0.72-0.273c3.241-0.006,6.482-0.008,9.723,0.002
		c0.66,0.001,0.675,0.038,0.659,0.93c-0.028,0.439,0.062,0.883-0.056,1.317c-0.004,0.101-0.01,0.2-0.014,0.301
		c-0.126,0.355,0.037,0.737-0.098,1.093c-0.008,0.103-0.012,0.204-0.019,0.307c-0.126,0.312,0.038,0.657-0.101,0.971
		c-0.005,0.064-0.01,0.13-0.015,0.195c-0.124,0.272,0.034,0.578-0.102,0.849C55.089,82.029,55.053,82.142,55.016,82.252z"/>
	<path fill-rule="evenodd" clip-rule="evenodd" fill="#7BA1C0" d="M55.49,76.968c-0.05-0.851-0.05-0.851-0.904-0.851
		c-3.148,0-6.3,0.003-9.448-0.006c-0.312-0.002-0.565,0.032-0.694,0.353c-0.185-0.356-0.078-0.55,0.325-0.575
		c0.077-0.004,0.155-0.004,0.231-0.004c3.358,0,6.718,0,10.076,0.001c0.153,0,0.311-0.011,0.457,0.051
		c0.176,0.158,0.12,0.342,0.061,0.526c-0.007,0.142-0.014,0.283-0.021,0.424C55.562,76.931,55.534,76.957,55.49,76.968z"/>
	<path fill-rule="evenodd" clip-rule="evenodd" fill="#05070C" d="M55.594,76.463c-0.01-0.154-0.02-0.31-0.028-0.464
		c-0.18-0.108-0.378-0.057-0.566-0.057c-3.52,0.006-7.04-0.02-10.559,0.013c-0.08,0-0.153-0.01-0.22-0.054
		c0.133-0.207,0.346-0.132,0.527-0.132c3.472-0.004,6.945-0.004,10.418-0.001C55.75,75.769,55.797,75.852,55.594,76.463z"/>
	<path fill-rule="evenodd" clip-rule="evenodd" fill="#8CABC6" d="M44.221,75.901c0.182-0.092,0.377-0.062,0.568-0.062
		c3.411-0.001,6.824-0.003,10.236,0.008c0.179,0,0.433-0.145,0.54,0.152c-3.518,0.002-7.034,0.003-10.552-0.003
		c-0.335,0-0.642-0.01-0.57,0.468h-0.05h-0.049c-0.132-0.104-0.039-0.273-0.12-0.393C44.224,76.015,44.222,75.96,44.221,75.901z"/>
	<path fill-rule="evenodd" clip-rule="evenodd" fill="#05060A" d="M42.456,75.965c-0.031,0.023-0.061,0.046-0.089,0.07
		c0.005-0.119,0.032-0.251,0.171-0.248c0.443,0.011,0.899-0.135,1.326,0.095c-0.037-0.003-0.075-0.006-0.113-0.009
		C43.327,76.022,42.884,75.888,42.456,75.965z"/>
	<path fill-rule="evenodd" clip-rule="evenodd" fill="#05070C" d="M55.49,76.968c0.027-0.027,0.056-0.055,0.082-0.08
		c-0.023,0.439,0.131,0.894-0.101,1.316C55.478,77.792,55.484,77.38,55.49,76.968z"/>
	<path fill-rule="evenodd" clip-rule="evenodd" fill="#05070C" d="M55.36,79.598c-0.008-0.368-0.031-0.737,0.098-1.093
		C55.433,78.869,55.578,79.25,55.36,79.598z"/>
	<path fill-rule="evenodd" clip-rule="evenodd" fill="#05070C" d="M55.241,80.875c-0.008-0.328-0.024-0.656,0.101-0.971
		C55.317,80.229,55.465,80.571,55.241,80.875z"/>
	<path fill-rule="evenodd" clip-rule="evenodd" fill="#05070C" d="M44.805,81.18c0.126,0.314,0.108,0.644,0.099,0.972
		C44.683,81.847,44.828,81.504,44.805,81.18z"/>
	<path fill-rule="evenodd" clip-rule="evenodd" fill="#05070C" d="M44.456,77.936c0.127,0.312,0.119,0.641,0.111,0.969
		C44.324,78.605,44.485,78.26,44.456,77.936z"/>
	<path fill-rule="evenodd" clip-rule="evenodd" fill="#05070C" d="M44.573,78.973c0.123,0.275,0.109,0.567,0.1,0.857
		C44.456,79.565,44.595,79.261,44.573,78.973z"/>
	<path fill-rule="evenodd" clip-rule="evenodd" fill="#05070C" d="M44.687,80.028c0.121,0.271,0.109,0.559,0.098,0.845
		C44.576,80.612,44.709,80.311,44.687,80.028z"/>
	<path fill-rule="evenodd" clip-rule="evenodd" fill="#05070C" d="M55.125,81.919c-0.005-0.287-0.019-0.575,0.102-0.849
		C55.204,81.355,55.342,81.658,55.125,81.919z"/>
	<path fill-rule="evenodd" clip-rule="evenodd" fill="#05070C" d="M44.34,77.007c0.123,0.232,0.11,0.483,0.099,0.732
		C44.236,77.519,44.356,77.254,44.34,77.007z"/>
	<path fill-rule="evenodd" clip-rule="evenodd" fill="#05070C" d="M44.225,76.071c0.04,0.132,0.079,0.263,0.12,0.393
		c-0.007,0.116-0.014,0.232-0.021,0.348C44.118,76.589,44.24,76.321,44.225,76.071z"/>
	<path fill-rule="evenodd" clip-rule="evenodd" fill="#05070C" d="M44.432,80.448c-0.1-0.235-0.103-0.482-0.089-0.731
		C44.528,79.94,44.419,80.201,44.432,80.448z"/>
	<path fill-rule="evenodd" clip-rule="evenodd" fill="#05070C" d="M44.549,81.522c-0.118-0.203-0.093-0.426-0.089-0.645
		C44.635,81.073,44.536,81.306,44.549,81.522z"/>
	<path fill-rule="evenodd" clip-rule="evenodd" fill="#05070C" d="M44.314,79.306c-0.106-0.201-0.099-0.418-0.087-0.634
		C44.4,78.863,44.307,79.092,44.314,79.306z"/>
	<path fill-rule="evenodd" clip-rule="evenodd" fill="#05070C" d="M44.082,77.329c-0.105-0.2-0.104-0.414-0.091-0.631
		C44.171,76.887,44.074,77.114,44.082,77.329z"/>
	<path fill-rule="evenodd" clip-rule="evenodd" fill="#F7F5FB" d="M42.456,75.965c0.415-0.261,0.86-0.099,1.294-0.092
		C43.331,76.076,42.894,76.03,42.456,75.965z"/>
	<path fill-rule="evenodd" clip-rule="evenodd" fill="#FEFEFE" d="M43.628,24.462c0.423-0.604,0.999-1.062,1.505-1.585
		c0.655-0.677,1.278-1.377,1.862-2.207c0.235,0.411,0.437,0.775,0.653,1.13c0.135,0.22,0.025,0.404-0.049,0.6
		c-0.526,1.364-1.049,2.729-1.601,4.169c-0.376-0.612-0.678-1.224-1.2-1.653c-0.295-0.241-0.581-0.602-1.052-0.336
		C43.707,24.541,43.668,24.501,43.628,24.462z"/>
	<path fill-rule="evenodd" clip-rule="evenodd" fill="#070707" d="M53.571,31.146c0.408-1.723,0.933-3.392,2.183-4.726
		c0.066-0.071,0.138-0.137,0.211-0.198c0.118-0.095,0.247-0.244,0.393-0.071c0.121,0.141-0.014,0.242-0.114,0.334
		c-1.102,1.004-1.617,2.332-2.041,3.709c-0.101,0.332-0.169,0.674-0.251,1.011c-0.032,0.134-0.066,0.292-0.239,0.264
		S53.532,31.294,53.571,31.146z"/>
	<path fill-rule="evenodd" clip-rule="evenodd" fill="#070504" d="M39.103,17.722c0.82,0.045,1.608-0.145,2.383-0.366
		c0.446-0.127,0.507,0.032,0.46,0.411c-0.068,0.559-0.171,1.104-0.488,1.583c-0.521,0.787-1.479,0.988-2.202,0.391
		c-0.603-0.499-1.112-1.096-1.069-1.968C38.483,17.586,38.794,17.675,39.103,17.722z"/>
	<path fill-rule="evenodd" clip-rule="evenodd" fill="#0C0503" d="M36.188,6.832c0.574,0.22,0.854,0.695,1.033,1.237
		c0.174,0.528,0.297,1.073,0.465,1.604c0.401,1.273,1.319,1.944,2.659,1.938c0.177,0,0.298,0.036,0.378,0.19
		c-0.244,0.326-0.597,0.239-0.903,0.193c-1.267-0.19-2.044-0.965-2.476-2.137C37.1,9.195,37.075,8.46,36.675,7.851
		c-0.106-0.396-0.368-0.606-0.773-0.622c-0.254-0.01-0.429-0.053-0.271-0.361C35.806,6.69,35.996,6.749,36.188,6.832z"/>
	<path fill-rule="evenodd" clip-rule="evenodd" fill="#0C0504" d="M34.925,12.277c-0.225,0.076-0.469,0.191-0.443-0.226
		c0.881-0.307,1.005-1.045,1.009-1.826c0.004-0.703,0.026-1.393,0.434-2.002c0.073-0.109,0.154-0.258,0.31-0.21
		c0.134,0.042,0.084,0.194,0.092,0.304c-0.497,0.646-0.487,1.392-0.442,2.182c0.356-0.09,0.697-0.107,1.024,0.035
		c0.149,0.064,0.391,0.092,0.313,0.327c-0.087,0.261-0.291,0.045-0.441,0.05c-0.268,0-0.536-0.017-0.803,0.009
		c-0.292,0.083-0.225,0.376-0.319,0.569C35.491,11.832,35.242,12.083,34.925,12.277z"/>
	<path fill-rule="evenodd" clip-rule="evenodd" fill="#0F0705" d="M45.132,12.476c0.173,0.014,0.364,0.001,0.361,0.26
		c-1.385,0.521-2.596,0.129-3.721-0.707c-0.154-0.114-0.297-0.241-0.445-0.361c-0.033-0.068-0.061-0.14-0.1-0.204
		c-0.08-0.127-0.228-0.266-0.038-0.393c0.191-0.126,0.263,0.084,0.354,0.189c0.562,0.646,1.237,1.09,2.095,1.225
		C44.136,12.515,44.633,12.477,45.132,12.476z"/>
	<path fill-rule="evenodd" clip-rule="evenodd" fill="#0E0907" d="M39.549,15.376c-0.102,0.16-0.179,0.348-0.312,0.476
		c-0.302,0.289-0.315,0.542,0.011,0.811c0.106,0.087,0.209,0.21,0.077,0.34c-0.129,0.125-0.241,0.012-0.346-0.075
		c-0.434-0.356-0.476-0.743-0.131-1.194c0.08-0.104,0.147-0.219,0.221-0.33c0.023-0.229-0.052-0.459,0.013-0.688
		c-0.045-0.391-0.251-0.723-0.389-1.081c-0.064-0.168-0.355-0.396-0.045-0.528c0.273-0.116,0.312,0.228,0.387,0.398
		c0.194,0.439,0.352,0.895,0.525,1.343C39.658,15.026,39.675,15.203,39.549,15.376z"/>
	<path fill-rule="evenodd" clip-rule="evenodd" fill="#0C0806" d="M43.882,20.442c-0.046-0.127-0.129-0.22-0.254-0.274
		c0.574-0.545,1.064-1.152,1.432-1.857c0.068-0.13,0.143-0.322,0.334-0.21c0.188,0.109,0.06,0.265-0.01,0.397
		C44.998,19.236,44.5,19.885,43.882,20.442z"/>
	<path fill-rule="evenodd" clip-rule="evenodd" fill="#0A0806" d="M36.676,14.151c0.155-0.229,0.262-0.556,0.64-0.416
		c0.281,0.104,0.397,0.346,0.398,0.637c0.001,0.267-0.084,0.508-0.367,0.58c-0.4,0.102-0.51-0.237-0.67-0.489
		C36.582,14.359,36.583,14.255,36.676,14.151z"/>
	<path fill-rule="evenodd" clip-rule="evenodd" fill="#080604" d="M42.158,13.705c-0.007,0.333-0.104,0.631-0.462,0.629
		c-0.367-0.002-0.521-0.294-0.531-0.638c-0.009-0.316,0.093-0.609,0.46-0.61C42.009,13.084,42.126,13.384,42.158,13.705z"/>
	<path fill-rule="evenodd" clip-rule="evenodd" fill="#1A130F" d="M46.812,13.916c0.12,0.025,0.229,0.109,0.183,0.19
		c-0.143,0.255-0.242,0.572-0.568,0.658c-0.092,0.024-0.17-0.108-0.136-0.208C46.385,14.275,46.551,14.046,46.812,13.916z"/>
	<path fill-rule="evenodd" clip-rule="evenodd" fill="#CEC5BC" d="M39.342,22.142c0.2,0.333,0.077,0.698,0.104,1.048
		c-0.048,0.003-0.096,0.006-0.143,0.008c-0.252-0.334,0.083-0.714-0.08-1.055C39.263,22.1,39.303,22.1,39.342,22.142z"/>
	<path fill-rule="evenodd" clip-rule="evenodd" fill="#FCE6CF" d="M47.672,13.556c0.193,0.385,0.174,0.77,0,1.156
		C47.521,14.326,47.521,13.941,47.672,13.556z"/>
	<path fill-rule="evenodd" clip-rule="evenodd" fill="#FDE7D2" d="M46.419,12.986c0.23-0.116,0.462-0.145,0.692-0.002
		C46.882,13.143,46.651,13.142,46.419,12.986z"/>
	<path fill-rule="evenodd" clip-rule="evenodd" fill="#FCEBD6" d="M35.977,10.92c0.266-0.151,0.534-0.134,0.803-0.009
		C36.514,11.049,36.246,11.039,35.977,10.92z"/>
	<path fill-rule="evenodd" clip-rule="evenodd" fill="#FEEBD5" d="M39.103,17.722c-0.305,0.017-0.61,0.034-0.916,0.051
		C38.479,17.507,38.789,17.584,39.103,17.722z"/>
	<path fill-rule="evenodd" clip-rule="evenodd" fill="#FDE7D1" d="M39.549,15.376c0.003-0.175,0.006-0.352,0.01-0.528
		c0.004-0.019,0.004-0.04,0.014-0.055c0.019-0.027,0.043-0.049,0.065-0.072c0.08,0.229,0.064,0.458,0.005,0.687
		c-0.001,0.005-0.035,0.008-0.05,0.003C39.577,15.406,39.564,15.389,39.549,15.376z"/>
	<path fill-rule="evenodd" clip-rule="evenodd" fill="#FEEAD4" d="M39.082,14.717c0.082,0.231,0.13,0.461-0.013,0.688
		C38.95,15.173,38.936,14.944,39.082,14.717z"/>
	<path fill-rule="evenodd" clip-rule="evenodd" fill="#FDEAD4" d="M36.676,14.151c0,0.104,0.001,0.208,0.001,0.312
		c-0.187,0.101-0.128-0.078-0.119-0.126C36.572,14.271,36.451,14.088,36.676,14.151z"/>
	<path fill-rule="evenodd" clip-rule="evenodd" fill="#100403" d="M41.263,4.52c-0.026,0.122-0.131,0.164-0.244,0.2
		c-0.86,0.265-1.683,0.579-2.069,1.501c-0.021,0.05-0.124,0.099-0.183,0.094c-0.119-0.011-0.142-0.122-0.129-0.22
		c0.038-0.279,0.194-0.504,0.379-0.7c0.518-0.549,1.178-0.853,1.897-1.037C41.146,4.299,41.271,4.371,41.263,4.52z"/>
	<path fill-rule="evenodd" clip-rule="evenodd" fill="#170A07" d="M39.812,10.612c0.149-0.488,0.723-0.75,1.438-0.661
		c0.231,0.029,0.441,0.113,0.639,0.229c0.101,0.059,0.207,0.133,0.165,0.265c-0.042,0.132-0.174,0.123-0.288,0.123
		c-0.554-0.212-1.093-0.268-1.615,0.099C40.05,10.738,39.901,10.776,39.812,10.612z"/>
	<path fill-rule="evenodd" clip-rule="evenodd" fill="#A67864" d="M39.812,10.612c0.213,0.102,0.367-0.047,0.536-0.129
		c0.49-0.241,0.964-0.249,1.419,0.085c-0.098,0.094-0.212,0.094-0.32,0.034c-0.404-0.223-0.773-0.101-1.148,0.085
		C40.133,10.769,39.917,10.994,39.812,10.612z"/>
	<path fill-rule="evenodd" clip-rule="evenodd" fill="#AD7E6A" d="M45.132,12.476c-0.497,0.14-0.995,0.167-1.494,0.01
		C44.134,12.332,44.633,12.344,45.132,12.476z"/>
	<path fill-rule="evenodd" clip-rule="evenodd" fill="#AC7D69" d="M36.188,6.832c-0.186,0.011-0.371,0.023-0.557,0.036
		c0.143-0.257,0.367-0.156,0.574-0.129c0.006,0,0.015,0.032,0.011,0.046C36.213,6.802,36.197,6.816,36.188,6.832z"/>
	<path fill-rule="evenodd" clip-rule="evenodd" fill="#FEFEFE" d="M39.792,24.699c0.21,0.056,0.205,0.247,0.242,0.403
		c0.339,1.407,0.668,2.816,1.013,4.221c0.094,0.38-0.063,0.726-0.096,1.088c-0.137,1.563-0.133,3.128-0.03,4.691
		c0.031,0.465-0.038,0.626-0.555,0.621c-2.706-0.028-5.412-0.022-8.118-0.003c-0.416,0.003-0.569-0.077-0.57-0.528
		c-0.003-1.332-0.093-2.665-0.041-3.999c0.006-0.176,0.089-0.448-0.2-0.442c-0.224,0.005-0.176,0.263-0.182,0.425
		c-0.055,1.353-0.003,2.706,0.074,4.055c0.021,0.376-0.061,0.502-0.457,0.488c-0.888-0.03-1.778-0.025-2.667-0.001
		c-0.305,0.009-0.402-0.1-0.432-0.377c-0.04-0.364-0.094-0.729-0.177-1.086c-0.233-1.002-0.932-1.341-1.872-0.927
		c-0.137,0.061-0.28,0.111-0.528,0.208c0.104-0.251,0.161-0.422,0.242-0.58c1.159-2.25,2.442-4.427,3.827-6.544
		c0.9-1.376,2.231-2.121,3.775-2.484c1.593-0.375,3.207-0.656,4.842-0.984c-0.195,1.195-0.385,2.364-0.575,3.534
		c-0.019,0.114-0.042,0.229-0.053,0.343c-0.011,0.129-0.066,0.288,0.103,0.354c0.171,0.066,0.228-0.089,0.302-0.197
		c0.285-0.413,0.545-0.846,0.862-1.232c0.274-0.334,0.537-0.722,1.061-0.715c0.224,0.003,0.165-0.215,0.221-0.342L39.792,24.699z"/>
	<path fill-rule="evenodd" clip-rule="evenodd" fill="#070202" d="M9.29,37.698c0.017-0.15,0.054-0.29,0.215-0.351
		c0.106,0.083,0.187,0.182,0.209,0.32c0.017,0.104,0.007,0.206-0.023,0.306c-0.048,3.142-0.009,6.283-0.019,9.423
		c-0.001,0.174-0.003,0.35,0.14,0.483c0.232,0.145,0.49,0.097,0.738,0.097c21.304,0.001,42.609,0.001,63.913-0.002
		c0.245,0,0.509,0.063,0.719-0.13c0.132-0.215,0.086-0.451,0.088-0.68c0.003-2.871,0.004-5.742-0.002-8.613
		c-0.001-0.279,0.083-0.589-0.195-0.804c-0.227-0.153-0.483-0.118-0.731-0.118c-4.128-0.003-8.257-0.004-12.387,0.002
		c-0.271,0.001-0.6-0.1-0.749,0.266c-0.25,0.668-0.492,1.34-0.856,1.958c-0.109,0.185-0.249,0.342-0.427,0.467
		c-0.21,0.131-0.435,0.192-0.682,0.15c-0.23-0.081-0.361,0.006-0.431,0.237c-0.088,0.296-0.173,0.595-0.314,0.873
		c-0.101,0.177-0.239,0.316-0.418,0.415c-0.052,0.027-0.106,0.072-0.157,0.065c-0.718-0.107-1.34,0.174-1.962,0.463
		c-0.06,0.008-0.117,0.005-0.177-0.005c-0.46-0.111-0.741-0.41-0.891-0.848c-0.047-0.449-0.104-0.9,0.04-1.345
		c0.038-0.06,0.091-0.098,0.157-0.118c0.145,0.004,0.258,0.062,0.337,0.183c0.14,0.292,0.068,0.609,0.116,0.913
		c0.031,0.197,0.081,0.398,0.313,0.433c0.222,0.032,0.353-0.124,0.452-0.298c0.126-0.223,0.162-0.475,0.207-0.72
		c0.318-1.729,0.543-3.471,0.757-5.214c0.014-0.115,0.01-0.232,0.037-0.345c0.06-0.254,0.154-0.536,0.466-0.477
		c0.294,0.055,0.241,0.346,0.222,0.579c-0.146,1.654-0.411,3.293-0.662,4.934c-0.056,0.366-0.103,0.728,0.06,1.077
		c0.111,0.213,0.251,0.22,0.411,0.053c0.487-0.879,0.623-1.862,0.852-2.814c0.232-0.976,0.456-1.955,0.644-2.941
		c0.023-0.132,0.06-0.264,0.114-0.388c0.071-0.154,0.179-0.255,0.361-0.212c0.157,0.037,0.201,0.168,0.222,0.306
		c0.028,0.196-0.024,0.384-0.06,0.573c-0.19,1.025-0.43,2.04-0.646,3.059c-0.054,0.254-0.188,0.632,0.086,0.739
		c0.335,0.129,0.455-0.273,0.584-0.512c0.274-0.512,0.427-1.075,0.641-1.612c0.067-0.164,0.053-0.405,0.323-0.414
		c0.041,0.284,0.263,0.235,0.448,0.235c4.507,0.001,9.012,0.001,13.519,0.001c0.152,0,0.313,0.03,0.429-0.115
		c0.161,0.063,0.262,0.192,0.355,0.328c0.092,0.204,0.047,0.419,0.047,0.629c0.003,11.687,0.003,23.374,0,35.06
		c0,0.208,0.054,0.425-0.056,0.625c-0.264,0.364-0.626,0.431-1.059,0.431c-21.394-0.009-42.784-0.009-64.177-0.009
		c-1.057,0-1.168-0.11-1.168-1.149c0-8.316,0-16.634,0.001-24.95c0-0.213,0.014-0.425,0.022-0.637
		c0.062-0.105,0.048-0.224,0.048-0.339c0-3.061,0-6.122,0-9.185C9.333,37.922,9.346,37.805,9.29,37.698z"/>
	<path fill-rule="evenodd" clip-rule="evenodd" fill="#FDDCC0" d="M20.085,37.059c-0.193-0.633-0.391-1.264-0.355-1.94
		c0.024-0.469,0.237-0.737,0.723-0.687c0.463,0.048,0.898-0.009,1.258-0.305c0.255-0.21,0.518-0.091,0.76-0.069
		c0.932,0.083,1.803-0.531,2.754-0.208c0.226,0.077,0.444-0.084,0.656-0.179c0.715-0.322,1.185-0.092,1.358,0.695
		c0.214,0.964,0.273,1.949,0.35,2.93c0.007,0.096,0.022,0.191,0.034,0.287c0.214,0.332,0.166,0.704,0.158,1.066
		c-0.015,0.709,0.075,1.424-0.084,2.127c-0.075,0.331-0.111,0.744-0.581,0.729c-0.456-0.014-0.567-0.393-0.647-0.764
		c-0.016-0.075-0.016-0.152-0.014-0.229c0.017-0.209,0.177-0.358,0.202-0.553c-0.089,0.007-0.003,0.23-0.169,0.19
		c-0.315-0.345-0.249-0.794-0.305-1.202c-0.149-1.07-0.281-2.143-0.378-3.22c-0.011-0.129-0.021-0.261-0.128-0.388
		c-0.152,0.263-0.117,0.52-0.093,0.756c0.159,1.573,0.147,3.157,0.318,4.729c0.038,0.349,0.028,0.696-0.116,1.023
		c-0.253,0.572-0.783,0.641-1.188,0.158c-0.235-0.28-0.292-0.626-0.353-0.968c-0.318-1.766-0.56-3.542-0.751-5.325
		c-0.008-0.074,0-0.152-0.066-0.215c0.095,1.071,0.292,2.126,0.363,3.194c-0.017,0.152-0.076,0.291-0.137,0.431
		c-0.088,0.207,0.102-0.011,0.108,0.064c0.151,0.116,0.146,0.272,0.118,0.435c-0.013,0.052-0.029,0.107-0.063,0.15
		c-0.058,0.075-0.093,0.156-0.098,0.25c0.057-0.041,0.028-0.193,0.168-0.13c0.259,0.476,0.348,0.975,0.194,1.5
		c-0.079,0.268-0.215,0.521-0.533,0.541c-0.3,0.019-0.506-0.17-0.65-0.413c-0.159-0.27-0.234-0.573-0.312-0.872
		c-0.415-1.605-0.814-3.216-1.14-4.843c0.174,1.093,0.428,2.168,0.66,3.249c0.087,0.407,0.25,0.864-0.241,1.138
		c-0.32,0.178-0.717-0.084-0.997-0.673C20.497,38.736,20.12,37.95,20.085,37.059z"/>
	<path fill-rule="evenodd" clip-rule="evenodd" fill="#FDDCC0" d="M60.924,37.111c-0.246,0.645-0.487,1.293-0.745,1.933
		c-0.087,0.213-0.201,0.418-0.332,0.607c-0.132,0.188-0.29,0.375-0.568,0.293c-0.323-0.096-0.251-0.372-0.211-0.579
		c0.235-1.228,0.492-2.452,0.743-3.678c0.007-0.038,0.026-0.075,0.026-0.112c0-0.191,0.193-0.48-0.114-0.532
		c-0.264-0.045-0.219,0.275-0.25,0.439c-0.342,1.779-0.745,3.542-1.229,5.287c-0.079,0.286-0.109,0.619-0.452,0.754
		c-0.156,0.027-0.306-0.053-0.462-0.016c-0.311-0.339-0.261-0.75-0.194-1.141c0.292-1.713,0.505-3.437,0.712-5.161
		c0.02-0.165,0.121-0.405-0.106-0.446c-0.276-0.051-0.25,0.232-0.27,0.405c-0.223,1.957-0.471,3.909-0.838,5.844
		c-0.01,0.057-0.013,0.116-0.026,0.172c-0.1,0.405-0.214,0.86-0.73,0.822c-0.569-0.043-0.488-0.545-0.503-0.943
		c-0.01-0.232-0.014-0.463-0.021-0.694c-0.117-0.139-0.142-0.301-0.107-0.475c0.123-0.485,0.046-0.979,0.061-1.47
		c-0.004-0.164,0.015-0.327,0.047-0.488c0.121-0.373,0.064-0.757,0.069-1.138c-0.004-0.215,0.005-0.43,0.043-0.641
		c0.103-0.32,0.11-0.646,0.065-0.975c-0.018-0.045-0.033-0.092-0.05-0.136c-0.034-0.048-0.069-0.094-0.131-0.025
		c-0.017,0.043-0.033,0.083-0.048,0.126c-0.055,0.229-0.021,0.462-0.055,0.691c-0.006,0.056-0.018,0.11-0.031,0.164
		c-0.093,0.276-0.039,0.565-0.077,0.846c-0.006,0.057-0.017,0.114-0.031,0.17c-0.08,0.22-0.062,0.452-0.067,0.68
		c-0.003,0.117-0.019,0.231-0.046,0.345c-0.091,0.248-0.057,0.51-0.086,0.765c-0.006,0.057-0.019,0.113-0.033,0.168
		c-0.069,0.188-0.066,0.385-0.079,0.582c-0.004,0.086-0.02,0.172-0.041,0.255c-0.092,0.337-0.122,0.69-0.241,1.022
		c-0.075,0.176-0.167,0.337-0.349,0.425c-0.476,0.131-0.647-0.17-0.771-0.541c-0.046-0.16-0.05-0.323-0.057-0.488
		c-0.01-0.231,0-0.46,0.044-0.689c0.129-0.618,0.078-1.238,0.025-1.859c0.081-0.259-0.024-0.538,0.081-0.795
		c0.142-0.818,0.093-1.664,0.344-2.467c0.053,0.026,0.044,0.096,0.088,0.129c-0.041-0.106,0.018-0.23-0.058-0.33
		c0.019-0.338,0.13-0.624,0.453-0.787c0.268-0.056,0.534,0.029,0.801,0.009c0.396,0.192,0.802,0.137,1.228,0.142
		c0.958,0.009,1.935,0.083,2.862,0.301c0.512,0.12,0.979,0.368,1.544,0.343c0.554-0.025,0.659,0.419,0.591,0.852
		C61.233,35.76,61.065,36.434,60.924,37.111z"/>
	<path fill-rule="evenodd" clip-rule="evenodd" fill="#FDFDFD" d="M40.496,36.081c4.039,0,8.078-0.002,12.117,0.006
		c0.234,0.001,0.627-0.184,0.562,0.361c-0.046,0.375,0.058,0.707-0.577,0.705c-8.038-0.028-16.079-0.017-24.118-0.023
		c-0.173,0-0.439,0.126-0.51-0.108c-0.083-0.27-0.116-0.583-0.062-0.855c0.034-0.171,0.307-0.081,0.471-0.081
		c3.401-0.004,6.803-0.004,10.204-0.004C39.221,36.081,39.859,36.081,40.496,36.081z"/>
	<path fill-rule="evenodd" clip-rule="evenodd" fill="#070302" d="M26.584,40.364c0.039,0.225,0.062,0.455,0.123,0.675
		c0.059,0.212,0.187,0.396,0.441,0.375c0.259-0.019,0.332-0.22,0.366-0.443c0.134-0.896,0.101-1.799,0.104-2.701
		c0-0.229,0.003-0.459,0.006-0.688c0.742-0.381,1.543-0.227,2.32-0.228c7.459-0.01,14.917-0.006,22.376-0.002
		c0.242,0,0.504-0.081,0.726,0.101c-0.027,0.027-0.054,0.054-0.081,0.082c-0.312,0.151-0.645,0.092-0.971,0.092
		c-7.634,0.003-15.269,0.001-22.903,0.007c-0.298,0-0.625-0.096-0.884,0.152c-0.177,0.722-0.057,1.455-0.075,2.182
		c-0.009,0.367,0.013,0.733-0.081,1.091c-0.152,0.585-0.375,0.772-1.001,0.848c-0.067-0.002-0.134-0.012-0.199-0.027
		c-0.3-0.08-0.521-0.248-0.604-0.562c-0.034-0.232-0.065-0.466-0.121-0.696c-0.04-0.206-0.003-0.417-0.045-0.624
		c-0.111,0.025-0.01,0.072-0.003,0.099c0.053,0.223-0.007,0.458,0.08,0.674c0.026,0.201,0.07,0.4,0.078,0.603
		c0.027,0.509-0.089,0.979-0.565,1.229c-0.476,0.25-0.933,0.104-1.316-0.252c-0.194-0.18-0.382-0.122-0.581-0.034
		c-0.28,0.081-0.543,0.037-0.793-0.106c-0.284-0.187-0.417-0.48-0.554-0.772c-0.077-0.206-0.14-0.416-0.187-0.63
		c-0.06-0.372-0.288-0.144-0.455-0.126c-0.084,0.014-0.168,0.011-0.251-0.008c-0.422-0.105-0.672-0.398-0.872-0.764
		c-0.33-0.605-0.573-1.244-0.785-1.896c-0.053-0.158-0.142-0.309-0.093-0.486c0.017-0.022,0.034-0.044,0.051-0.066
		c0.184-0.071,0.236-0.225,0.25-0.401c0.261,0.701,0.519,1.404,0.784,2.104c0.062,0.161,0.134,0.322,0.224,0.469
		c0.169,0.275,0.326,0.649,0.731,0.506c0.407-0.143,0.225-0.539,0.173-0.808c-0.212-1.117-0.465-2.226-0.703-3.338
		c-0.024-0.113-0.054-0.227-0.062-0.341c-0.01-0.141-0.109-0.34,0.106-0.388c0.215-0.049,0.226,0.146,0.252,0.3
		c0.03,0.171,0.067,0.34,0.101,0.51c0.332,1.664,0.704,3.318,1.166,4.951c0.111,0.393,0.225,0.889,0.74,0.788
		c0.478-0.094,0.389-0.615,0.386-0.979c-0.002-0.319-0.119-0.638-0.185-0.956c-0.087-0.06-0.074-0.13-0.024-0.206
		c0.012-0.175,0.019-0.35-0.083-0.506c-0.128-0.088-0.08-0.198-0.037-0.307c-0.128-1.072-0.256-2.145-0.385-3.217
		c-0.014-0.115-0.035-0.229-0.047-0.344c-0.015-0.137-0.03-0.309,0.134-0.339c0.229-0.044,0.216,0.169,0.235,0.309
		c0.184,1.358,0.354,2.719,0.546,4.076c0.1,0.707,0.235,1.409,0.36,2.112c0.02,0.113,0.053,0.229,0.103,0.331
		c0.134,0.279,0.333,0.491,0.674,0.436c0.33-0.054,0.416-0.326,0.428-0.606c0.043-1.005-0.059-2.007-0.113-3.01
		c-0.052-0.963-0.11-1.928-0.16-2.893c-0.008-0.154-0.006-0.31,0.017-0.462c0.022-0.148,0.035-0.342,0.231-0.356
		c0.222-0.015,0.204,0.187,0.223,0.333c0.071,0.556,0.135,1.112,0.209,1.667c0.145,1.088,0.184,2.19,0.451,3.261
		C26.64,40.215,26.629,40.288,26.584,40.364z"/>
	<path fill-rule="evenodd" clip-rule="evenodd" fill="#FAFAFA" d="M39.342,22.142c-0.04,0-0.08,0-0.119,0
		c-0.324-0.03-0.307,0.232-0.341,0.424c-0.099,0.549,0.082,1.016,0.421,1.446c0.172,0.221,0.455,0.367,0.49,0.686
		c0,0,0.011-0.012,0.011-0.012c-0.585-0.122-0.99,0.177-1.371,0.563c-0.207,0.21-0.345,0.499-0.697,0.683
		c0.19-0.987,0.358-1.886,0.537-2.782c0.083-0.421,0.266-0.805,0.509-1.157c0.072-0.105,0.139-0.262,0.3-0.224
		C39.262,21.813,39.405,21.914,39.342,22.142z"/>
	<path fill-rule="evenodd" clip-rule="evenodd" fill="#070302" d="M53.488,36.885c0.008,0.271,0.015,0.542,0.023,0.813
		c0.068,0.618,0.072,1.236-0.003,1.854c-0.007,0.233-0.016,0.466-0.022,0.7c-0.207,0.25,0.037,0.5,0,0.753
		c-0.016,0.089-0.054,0.163-0.142,0.201c-0.177-0.037-0.245-0.175-0.304-0.322c-0.079-0.314-0.039-0.634-0.052-0.952
		c0-0.25,0.017-0.502-0.071-0.744c-0.119-0.579,0.05-1.139,0.103-1.707l0.025-0.029c0.194,0.058,0.371,0.1,0.337-0.213
		C53.37,37.113,53.366,36.978,53.488,36.885z"/>
	<path fill-rule="evenodd" clip-rule="evenodd" fill="#050506" d="M19.479,36.095c-3.499-0.004-6.998-0.007-10.498-0.013
		c-0.212,0-0.424-0.015-0.636-0.023c0.159-0.162,0.363-0.101,0.548-0.101c3.334-0.003,6.668-0.004,10.002,0.001
		C19.095,35.959,19.329,35.869,19.479,36.095z"/>
	<path fill-rule="evenodd" clip-rule="evenodd" fill="#070302" d="M9.648,37.592c-0.107-0.046-0.137-0.139-0.143-0.245
		c0.041-0.028,0.081-0.056,0.121-0.084c0.19,0.146,0.411,0.082,0.618,0.083c2.977,0.004,5.954,0.001,8.93,0.007
		c0.222,0,0.468-0.086,0.662,0.107l-0.021,0.028c-0.253,0.202-0.553,0.136-0.835,0.137c-2.715,0.005-5.431,0.004-8.146,0.001
		c-0.328,0-0.654,0.015-0.978,0.056C9.776,37.673,9.708,37.643,9.648,37.592z"/>
	<path fill-rule="evenodd" clip-rule="evenodd" fill="#070302" d="M9.728,37.229c0.203-0.169,0.444-0.09,0.667-0.091
		c2.926-0.005,5.853,0,8.779-0.011c0.188,0,0.428,0.128,0.57-0.125c0.072,0.44-0.274,0.219-0.406,0.22
		c-1.91,0.016-3.821,0.011-5.731,0.011C12.314,37.233,11.021,37.23,9.728,37.229z"/>
	<path fill-rule="evenodd" clip-rule="evenodd" fill="#FBE6D0" d="M55.116,33.439c-0.268,0.117-0.536,0.129-0.801-0.009
		C54.585,33.214,54.852,33.273,55.116,33.439z"/>
	<path fill-rule="evenodd" clip-rule="evenodd" fill="#FDE7D2" d="M53.862,34.216c0.148,0.131,0.089,0.292,0.026,0.46
		c-0.019-0.086-0.038-0.173-0.057-0.259C53.842,34.35,53.853,34.283,53.862,34.216z"/>
	<path fill-rule="evenodd" clip-rule="evenodd" fill="#FABD52" d="M27.386,8.41c-0.099,0.02-0.192,0.014-0.27-0.062
		c-0.134-0.177-0.146-0.387-0.159-0.596c0.156-1.081,0.156-1.081,1.25-0.479c0.379,0.319,0.868,0.438,1.275,0.704
		c0.036,0,0.07,0.006,0.104,0.017c0.246,0.187,0.525,0.322,0.772,0.506c0.09,0.067,0.209,0.146,0.144,0.278
		c-0.058,0.117-0.187,0.13-0.303,0.096c-0.478-0.145-0.965-0.242-1.458-0.316C28.288,8.53,27.852,8.332,27.386,8.41z"/>
	<path fill-rule="evenodd" clip-rule="evenodd" fill="#F2BB5B" d="M28.772,8.447c0.543,0.115,1.087,0.231,1.679,0.356
		c-0.183-0.444-0.739-0.395-0.864-0.81c0.504,0.13,0.895,0.457,1.297,0.762c0.039,0.09,0.164,0.177,0.06,0.277
		c-0.1,0.096-0.237,0.044-0.358,0.016c-0.689-0.159-1.379-0.317-2.069-0.477C28.574,8.473,28.709,8.534,28.772,8.447z"/>
	<path fill-rule="evenodd" clip-rule="evenodd" fill="#F8C977" d="M29.482,7.977c-0.456-0.178-0.961-0.269-1.275-0.704
		C28.664,7.452,29.148,7.578,29.482,7.977z"/>
	<path fill-rule="evenodd" clip-rule="evenodd" fill="#F4C576" d="M28.772,8.447c-0.056,0.102-0.158,0.107-0.254,0.125
		c-0.388,0.02-0.759-0.076-1.132-0.162C27.855,8.16,28.308,8.517,28.772,8.447z"/>
	<path fill-rule="evenodd" clip-rule="evenodd" fill="#D7B786" d="M30.586,9.049c0.179-0.017,0.389-0.002,0.298-0.293
		c0.185,0.064,0.332,0.208,0.195,0.37C30.942,9.285,30.746,9.129,30.586,9.049z"/>
	<path fill-rule="evenodd" clip-rule="evenodd" fill="#F0C88A" d="M26.958,7.752c0.053,0.198,0.106,0.397,0.159,0.596
		C26.662,8.256,26.982,7.958,26.958,7.752z"/>
	<path fill-rule="evenodd" clip-rule="evenodd" fill="#F6BB54" d="M29.261,11.359c-0.383,0.119-0.775,0.214-1.147,0.361
		c-0.346,0.137-0.387-0.105-0.365-0.3c0.027-0.25-0.399-0.684,0.148-0.733c0.838-0.076,1.689-0.057,2.527,0.092
		c0.111,0.02,0.254,0.029,0.233,0.186c-0.042,0.312-0.298,0.225-0.495,0.24C29.838,11.121,29.543,11.205,29.261,11.359z"/>
	<path fill-rule="evenodd" clip-rule="evenodd" fill="#F7C876" d="M29.261,11.359c-0.05-0.027-0.171-0.087-0.119-0.096
		c0.335-0.058,0.669-0.291,1.02-0.058C29.862,11.257,29.561,11.308,29.261,11.359z"/>
	<path fill-rule="evenodd" clip-rule="evenodd" fill="#F8F8F8" d="M10.01,74.507c21.68,0,43.359,0,65.039,0c0,0.02,0,0.04,0,0.059
		c-21.688,0-43.376,0-65.063,0C9.994,74.547,10.002,74.526,10.01,74.507z"/>
	<path fill-rule="evenodd" clip-rule="evenodd" fill="#0F0905" d="M75.666,73.875c0-11.853,0-23.706,0-35.56
		c0-0.251,0.006-0.502,0.009-0.754c0.176,0.178,0.102,0.403,0.102,0.606c0.003,11.704,0.005,23.407-0.001,35.112
		C75.775,73.479,75.867,73.708,75.666,73.875z"/>
	<path fill-rule="evenodd" clip-rule="evenodd" fill="#070302" d="M9.29,37.698c0.145,0.142,0.099,0.325,0.099,0.494
		c0.002,2.959,0.002,5.919,0,8.878c0,0.168,0.047,0.353-0.103,0.491C9.287,44.272,9.288,40.984,9.29,37.698z"/>
	<path fill-rule="evenodd" clip-rule="evenodd" fill="#FCFCFC" d="M38.639,18.162c0.96-0.062,1.917-0.124,2.837-0.412
		c0.119,0.852-0.399,1.781-1.07,1.932C39.714,19.836,38.941,19.182,38.639,18.162z"/>
	<path fill-rule="evenodd" clip-rule="evenodd" fill="#FEC55F" d="M53.173,40.902c0.064,0.104,0.129,0.209,0.193,0.312
		c0.442,0.283,0.852,0.271,1.226-0.129c0.068-0.072,0.164-0.09,0.264-0.056c0.224,0.195-0.038,0.507,0.17,0.707
		c0.162,0.37,0.433,0.611,0.831,0.697c-0.028,0.04-0.053,0.091-0.116,0.048c0.036,0.067,0.099,0.021,0.148,0.031
		c0.035,0.008,0.072,0.002,0.109,0.002c-0.033-0.027-0.085-0.03-0.1-0.081c0.311-0.098,0.632-0.18,0.813-0.489
		c0.119-0.205,0.272-0.174,0.434-0.069c0.291,0.19,0.584,0.128,0.879,0.016c0.236-0.007,0.361-0.126,0.364-0.367
		c0.104-0.322,0.231-0.641,0.302-0.97c0.078-0.36,0.242-0.381,0.509-0.197c0.267,0.135,0.49,0.083,0.673-0.151
		c0.618-0.604,0.778-1.45,1.154-2.183c0.187-0.369,0.486-0.453,0.892-0.452c4.19,0.015,8.381,0.009,12.57,0.01
		c0.251,0,0.506-0.026,0.735,0.108c0.108,0.154,0.094,0.332,0.094,0.503c0.002,3.11,0.005,6.222-0.001,9.331
		c0,0.098-0.007,0.192-0.031,0.287c-0.087,0.195-0.263,0.207-0.439,0.211c-0.213,0.006-0.425,0.003-0.638,0.003
		C53.104,48.027,32,48.027,10.897,48.024c-0.308,0-0.62,0.041-0.923-0.047c-0.232-0.136-0.276-0.363-0.276-0.6
		c-0.009-3.106-0.021-6.215,0.005-9.321c0.001-0.076,0.025-0.151,0.05-0.225c0.124-0.265,0.372-0.248,0.6-0.249
		c2.976-0.005,5.953,0.001,8.93-0.01c0.313-0.001,0.498,0.142,0.674,0.35c0.235,0.566,0.461,1.136,0.707,1.697
		c0.189,0.433,0.463,0.799,0.931,0.969c0.061,0.099,0.138,0.098,0.196,0c0.201-0.011,0.509-0.49,0.565,0.129
		c-0.075,0.253,0.027,0.46,0.171,0.656c0.15,0.224,0.3,0.447,0.45,0.671c0.208,0.31,0.489,0.276,0.787,0.168
		c0.139-0.1,0.277-0.2,0.431-0.311c0.077,0.107,0.147,0.214,0.227,0.314c0.251,0.312,0.578,0.442,0.97,0.361
		c0.416-0.085,0.586-0.401,0.67-0.778c0.029-0.13,0.037-0.265,0.054-0.397c0.059-0.083,0.102-0.199,0.24-0.116
		c0.147,0.157,0.293,0.314,0.439,0.472c0.016,0.032,0.031,0.069,0.06,0.088c0.042,0.026,0.067,0.099,0.137,0.058
		c-0.065-0.011-0.073-0.055-0.062-0.11c0.684-0.038,0.875-0.195,0.968-0.871c0.146-1.064,0.051-2.138,0.095-3.208
		c0.292,0.171,0.108,0.446,0.132,0.668c0.036,0.318-0.003,0.642,0.017,0.962c-0.012-0.441,0.007-0.883-0.008-1.325
		c-0.01-0.29,0.103-0.435,0.397-0.436c0.154-0.001,0.309-0.004,0.463-0.004c7.727,0,15.453,0,23.18,0c0.154,0,0.309,0,0.463,0.006
		c0.261,0.011,0.414,0.155,0.374,0.406c-0.117,0.735,0.055,1.463,0.025,2.192C53.149,40.412,52.98,40.691,53.173,40.902z"/>
	<path fill-rule="evenodd" clip-rule="evenodd" fill="#F9CF7A" d="M9.854,73.926c-0.082-0.082-0.164-0.166-0.245-0.248
		c-0.021-0.073-0.021-0.146,0-0.218c0.016-4.081,0.031-8.159-0.008-12.238c-0.027-0.107-0.066-0.216,0.04-0.305l-0.006,0.019
		c0.167-0.15,0.371-0.078,0.556-0.078c21.52-0.003,43.039-0.003,64.558-0.001c0.19,0,0.387-0.043,0.571,0.048l0.006,0.044
		c0.073,0.125,0.048,0.264,0.048,0.396c0.002,3.978,0.002,7.952,0,11.93c0,0.133,0.024,0.271-0.047,0.396
		c0.018,0.177-0.08,0.246-0.24,0.257c-0.207,0.074-0.423,0.038-0.633,0.038c-21.322,0.001-42.645,0.001-63.968,0
		C10.276,73.966,10.062,74.004,9.854,73.926z"/>
	<path fill-rule="evenodd" clip-rule="evenodd" fill="#FCDEA0" d="M75.426,48.516c-0.005,3.809-0.018,7.618-0.002,11.427
		c0.002,0.466-0.099,0.611-0.594,0.61c-21.558-0.013-43.115-0.01-64.672-0.014c-0.182,0-0.389,0.082-0.545-0.094
		c-0.062-0.106-0.047-0.226-0.047-0.341c0.004-3.808-0.011-7.616,0.007-11.424c0.053-0.147,0.162-0.139,0.281-0.104
		c0.058,0.054,0.099,0.117,0.125,0.192c0.04,0.109,0.056,0.225,0.056,0.341c0.001,3.663,0.035,7.327-0.016,10.99
		c-0.008,0.071-0.022,0.144-0.041,0.211c0.669-0.045,1.337-0.029,2.004-0.029c20.696-0.002,41.393,0,62.089,0
		c1.081-0.002,1.079-0.002,1.082-1.068c0.011-3.481-0.022-6.963,0.016-10.444c0.01-0.076,0.034-0.148,0.071-0.217
		C75.288,48.475,75.351,48.462,75.426,48.516z"/>
	<path fill-rule="evenodd" clip-rule="evenodd" fill="#0F0905" d="M75.426,48.516l-0.053-0.013l-0.051,0.009
		c-0.313,0.223-0.674,0.141-1.014,0.141c-10.072,0.004-20.145,0.004-30.216,0.004c-11.077,0-22.154,0-33.231,0
		c-0.386,0-0.773,0.016-1.145-0.114c-0.035-0.019-0.069-0.036-0.103-0.055c0.173-0.184,0.399-0.111,0.603-0.111
		c21.542-0.003,43.083-0.003,64.625,0.001C75.041,48.377,75.276,48.281,75.426,48.516z"/>
	<path fill-rule="evenodd" clip-rule="evenodd" fill="#0F0905" d="M75.427,48.01c-0.216,0.259-0.508,0.131-0.76,0.131
		c-18.873,0.007-37.747,0.007-56.62,0.007c-2.591,0-5.182,0.002-7.773-0.004c-0.223,0-0.468,0.082-0.663-0.109
		c0.031-0.024,0.062-0.047,0.093-0.071c21.699,0.016,43.399,0.003,65.097,0.008c0.136,0,0.271,0.006,0.406-0.013
		C75.286,47.949,75.358,47.968,75.427,48.01z"/>
	<path fill-rule="evenodd" clip-rule="evenodd" fill="#2B2015" d="M75.32,60.904c-1.199,0.006-2.397,0.016-3.597,0.016
		c-20.464,0-40.928,0-61.393,0.001c-0.231,0-0.464,0.009-0.696,0.015c0.214-0.261,0.507-0.132,0.758-0.132
		c19.893-0.007,39.786-0.006,59.681-0.006c1.546,0,3.092-0.003,4.64,0.003C74.918,60.802,75.144,60.729,75.32,60.904z"/>
	<path fill-rule="evenodd" clip-rule="evenodd" fill="#22190D" d="M9.854,73.926c0.425-0.006,0.85-0.017,1.274-0.017
		c21.088-0.002,42.175-0.002,63.264,0c0.23,0,0.463,0.011,0.694,0.019c-0.182,0.167-0.405,0.096-0.611,0.098
		c-21.336,0.003-42.674,0.003-64.01,0C10.26,74.025,10.036,74.093,9.854,73.926z"/>
	<path fill-rule="evenodd" clip-rule="evenodd" fill="#FBD282" d="M75.197,37.704c-4.462-0.003-8.923,0.006-13.385-0.028
		c-0.374-0.003-0.509,0.275-0.786,0.347c-0.022-0.416,0.155-0.527,0.579-0.525c4.327,0.019,8.654,0.012,12.982,0.012
		c0.21,0,0.425-0.03,0.616,0.096c0.031,0.024,0.041,0.047,0.028,0.067S75.209,37.704,75.197,37.704z"/>
	<path fill-rule="evenodd" clip-rule="evenodd" fill="#F9CF7A" d="M75.197,37.704c0.003-0.033,0.006-0.065,0.007-0.098
		c0.322,0.139,0.201,0.428,0.203,0.656c0.013,3.25,0.014,6.499,0.02,9.748l-0.051,0.016l-0.054-0.007
		c-0.091-0.047-0.053-0.16-0.116-0.221C75.203,44.433,75.2,41.068,75.197,37.704z"/>
	<path fill-rule="evenodd" clip-rule="evenodd" fill="#FBCA6F" d="M9.854,37.812c0,3.122,0,6.244,0.001,9.366
		c0,0.25-0.03,0.505,0.118,0.73c-0.144,0.069-0.285,0.117-0.397-0.053c-0.021-3.254-0.003-6.507-0.009-9.76
		c0-0.097-0.001-0.193,0.045-0.281c0.012-0.074,0.025-0.147,0.037-0.222c0.031,0.001,0.06,0.008,0.087,0.021
		C9.802,37.663,9.809,37.749,9.854,37.812z"/>
	<path fill-rule="evenodd" clip-rule="evenodd" fill="#020101" d="M54.645,39.729c0.007-0.059,0.013-0.118,0.02-0.177
		c0.119-0.197,0-0.431,0.097-0.632l-0.021-0.033l0.026-0.029c0.157-0.273-0.005-0.587,0.11-0.866
		c0.007-0.099,0.016-0.199,0.022-0.298c0.119-0.236-0.01-0.505,0.094-0.744l-0.021-0.035l0.026-0.03
		c0.167-0.311-0.016-0.661,0.11-0.975l-0.021-0.037l0.027-0.033c0.157-0.27-0.012-0.581,0.109-0.855l-0.018-0.041l0.027-0.035
		c0.396,0.096,0.032,0.459,0.195,0.595c0.065-0.144-0.202-0.406,0.172-0.491l-0.005-0.003c0.072,0.371,0.071,0.741,0.002,1.112
		c0.053,0.218,0.016,0.433-0.022,0.648c-0.129,0.399,0.026,0.821-0.097,1.222c0.054,0.136,0.025,0.269-0.015,0.402
		c-0.146,0.509,0.029,1.038-0.101,1.548c-0.004,0.142-0.008,0.283-0.013,0.424c-0.099-0.003-0.186-0.028-0.235-0.125
		c-0.116-0.234-0.117-0.483-0.103-0.732c0.018-0.071-0.068-0.052,0.01-0.049c0.076,0.003,0.078-0.098,0.016-0.051
		c-0.021,0.015-0.028,0.03-0.028,0.044c-0.009,0.089-0.005,0.18-0.006,0.27c-0.043,0.158,0.116,0.338-0.054,0.483
		C54.36,40.363,54.671,39.938,54.645,39.729z"/>
	<path fill-rule="evenodd" clip-rule="evenodd" fill="#0A0806" d="M9.641,60.917c0.004,0.079,0.008,0.159,0.012,0.238
		c0.057,1.234,0.024,2.47,0.022,3.706c-0.006,2.896,0.035,5.794-0.022,8.69c-0.014,0.041-0.029,0.084-0.044,0.126
		c-0.161-0.16-0.101-0.362-0.101-0.55c-0.004-3.875-0.004-7.749,0.001-11.624C9.51,61.304,9.422,61.071,9.641,60.917z"/>
	<path fill-rule="evenodd" clip-rule="evenodd" fill="#FEC55F" d="M75.327,73.671c0-4.24-0.001-8.482-0.001-12.723
		c0.151,0.094,0.084,0.244,0.085,0.367c0.003,3.995,0.003,7.99,0,11.984C75.411,73.426,75.468,73.573,75.327,73.671z"/>
	<path fill-rule="evenodd" clip-rule="evenodd" fill="#0F0905" d="M9.652,48.608c-0.007,3.311-0.013,6.621-0.022,9.932
		c-0.001,0.635-0.011,1.271-0.018,1.905c-0.165-0.157-0.104-0.361-0.104-0.547c-0.004-3.621-0.004-7.242,0-10.863
		c0-0.186-0.06-0.39,0.105-0.548l0.017,0.012c0.032,0.02,0.046,0.041,0.042,0.068C9.668,48.594,9.662,48.608,9.652,48.608z"/>
	<path fill-rule="evenodd" clip-rule="evenodd" fill="#0F0905" d="M9.611,37.814c0.006,3.037,0.012,6.072,0.021,9.108
		c0.001,0.329,0.014,0.656,0.021,0.984c0.029,0.049,0.022,0.088-0.027,0.118l-0.014,0.01c-0.145-0.141-0.104-0.321-0.104-0.492
		c-0.001-3.079-0.002-6.159,0-9.239C9.508,38.135,9.46,37.952,9.611,37.814z"/>
	<path fill-rule="evenodd" clip-rule="evenodd" fill="#DCC5A4" d="M55.025,41.737c-0.276-0.156,0.007-0.538-0.279-0.691
		c-0.171-0.311-0.073-0.567,0.157-0.798c0.028,0.004,0.059,0.008,0.088,0.013C55.003,40.754,55.015,41.246,55.025,41.737z"/>
	<path fill-rule="evenodd" clip-rule="evenodd" fill="#4D443C" d="M55.003,40.133c-0.087-0.144-0.139-0.293-0.112-0.463
		c0.15-0.067-0.073-0.381,0.229-0.347c0,0.306,0,0.611-0.002,0.917c-0.042,0.007-0.085,0.013-0.126,0.02l0.01,0.005
		c-0.036-0.03-0.049-0.059-0.036-0.089C54.978,40.149,54.99,40.133,55.003,40.133z"/>
	<path fill-rule="evenodd" clip-rule="evenodd" fill="#F5CB84" d="M59.872,40.206c-0.124,0.377-0.416,0.285-0.688,0.245
		c-0.007,0-0.017-0.033-0.014-0.047c0.004-0.017,0.02-0.031,0.029-0.047C59.44,40.375,59.66,40.308,59.872,40.206z"/>
	<path fill-rule="evenodd" clip-rule="evenodd" fill="#F6CA7E" d="M58.389,41.524c0.094,0.336-0.03,0.457-0.364,0.367
		C58.146,41.77,58.267,41.646,58.389,41.524z"/>
	<path fill-rule="evenodd" clip-rule="evenodd" fill="#FDEAD5" d="M57.33,41.508c0.158-0.136,0.313-0.144,0.462,0.016
		C57.633,41.68,57.479,41.669,57.33,41.508z"/>
	<path fill-rule="evenodd" clip-rule="evenodd" fill="#FBCE7E" d="M55.898,42.435c0.037,0.01,0.106,0.02,0.106,0.031
		c0.001,0.106-0.001,0.106-0.128,0.106c-0.126,0-0.13,0-0.126-0.107c0-0.012,0.068-0.021,0.105-0.03H55.898z"/>
	<path fill-rule="evenodd" clip-rule="evenodd" fill="#FCE7D0" d="M26.584,40.364c-0.009-0.07-0.018-0.141-0.027-0.21
		c0.014-0.089,0.028-0.179,0.052-0.337C26.711,40.058,26.72,40.218,26.584,40.364z"/>
	<path fill-rule="evenodd" clip-rule="evenodd" fill="#FDE8D1" d="M23.772,39.671c0.008,0.068,0.017,0.136,0.024,0.206
		c-0.013,0.086-0.026,0.173-0.054,0.36C23.647,39.972,23.625,39.814,23.772,39.671z"/>
	<path fill-rule="evenodd" clip-rule="evenodd" fill="#FCE8D2" d="M23.652,38.858c0.012,0.102,0.025,0.205,0.037,0.307
		c-0.021,0.05-0.029,0.127-0.064,0.143c-0.077,0.033-0.068-0.05-0.07-0.092C23.548,39.088,23.533,38.954,23.652,38.858z"/>
	<path fill-rule="evenodd" clip-rule="evenodd" fill="#070202" d="M55.003,40.133c-0.002,0.044-0.002,0.088-0.002,0.133
		c-0.262,0.202-0.186,0.515-0.255,0.78c-0.522,0.678-0.921,0.727-1.38,0.169c0.006-0.09,0.01-0.179,0.016-0.269
		c0.092-0.069,0.021-0.22,0.137-0.276c0.101,0.332,0.212,0.649,0.671,0.499c0.169-0.051,0.233-0.173,0.23-0.342
		c0.075-0.365,0.15-0.731,0.225-1.097C54.676,39.942,54.567,40.279,55.003,40.133z"/>
	<path fill-rule="evenodd" clip-rule="evenodd" fill="#FDE6D2" d="M53.509,39.552c-0.058-0.618-0.054-1.236,0.003-1.854
		C53.674,38.316,53.677,38.934,53.509,39.552z"/>
	<path fill-rule="evenodd" clip-rule="evenodd" fill="#070202" d="M55.603,35.013c-0.186,0.104-0.091,0.312-0.175,0.479
		c-0.161-0.172,0.027-0.45-0.192-0.583c-0.021-0.132,0.02-0.247,0.163-0.234C55.593,34.692,55.624,34.846,55.603,35.013z"/>
	<path fill-rule="evenodd" clip-rule="evenodd" fill="#070202" d="M55.365,39.942c0.03-0.516-0.124-1.044,0.101-1.548
		C55.475,38.913,55.483,39.432,55.365,39.942z"/>
	<path fill-rule="evenodd" clip-rule="evenodd" fill="#070202" d="M55.48,37.992c0.035-0.408-0.126-0.83,0.097-1.222
		C55.582,37.18,55.618,37.593,55.48,37.992z"/>
	<path fill-rule="evenodd" clip-rule="evenodd" fill="#070202" d="M55.6,36.122c-0.002-0.371-0.002-0.741-0.002-1.112
		C55.722,35.381,55.685,35.751,55.6,36.122z"/>
	<path fill-rule="evenodd" clip-rule="evenodd" fill="#070202" d="M55.109,35.91c-0.028,0.326,0.133,0.674-0.11,0.975
		C54.993,36.555,54.983,36.224,55.109,35.91z"/>
	<path fill-rule="evenodd" clip-rule="evenodd" fill="#020101" d="M53.519,40.67c-0.021,0.105-0.032,0.213-0.137,0.276
		c0.069-0.227-0.276-0.516,0.104-0.694C53.498,40.391,53.508,40.531,53.519,40.67z"/>
	<path fill-rule="evenodd" clip-rule="evenodd" fill="#070202" d="M54.877,37.992c-0.025,0.29,0.126,0.603-0.11,0.866
		C54.765,38.564,54.748,38.269,54.877,37.992z"/>
	<path fill-rule="evenodd" clip-rule="evenodd" fill="#070202" d="M55.226,34.985c-0.024,0.287,0.124,0.595-0.109,0.855
		C55.11,35.55,55.097,35.258,55.226,34.985z"/>
	<path fill-rule="evenodd" clip-rule="evenodd" fill="#020101" d="M54.42,40.827c0.104,0.264,0.056,0.336-0.23,0.342
		C54.268,41.056,54.344,40.942,54.42,40.827z"/>
	<path fill-rule="evenodd" clip-rule="evenodd" fill="#070202" d="M54.993,36.95c-0.015,0.25,0.104,0.517-0.094,0.744
		C54.887,37.44,54.881,37.188,54.993,36.95z"/>
	<path fill-rule="evenodd" clip-rule="evenodd" fill="#070202" d="M54.761,38.92c-0.009,0.214,0.092,0.445-0.097,0.632
		C54.654,39.335,54.65,39.119,54.761,38.92z"/>
	<path fill-rule="evenodd" clip-rule="evenodd" fill="#F9D081" d="M53.028,40.367c-0.239-0.655-0.099-1.333-0.096-1.997
		c0.004-0.516-0.119-0.688-0.669-0.687c-7.805,0.019-15.608,0.019-23.412,0c-0.544-0.001-0.716,0.156-0.667,0.684
		c0.042,0.457,0.008,0.92-0.03,1.383c-0.171-0.67,0.05-1.37-0.161-2.036c0.003-0.352,0.276-0.198,0.425-0.199
		c1.18-0.013,2.36-0.007,3.54-0.007c6.809,0,13.617,0,20.425-0.001c0.213,0,0.424-0.017,0.637-0.026
		c0.176,0.558,0.038,1.121,0.031,1.682c0.072,0.233,0.023,0.473,0.038,0.709C53.069,40.037,53.14,40.212,53.028,40.367z"/>
	<path fill-rule="evenodd" clip-rule="evenodd" fill="#FBD283" d="M9.854,37.812c-0.04-0.066-0.079-0.132-0.119-0.198
		c0.229-0.141,0.484-0.102,0.732-0.103c3.116-0.008,6.231-0.015,9.347-0.022c0.047,0.146,0.095,0.291,0.143,0.436
		c-0.003,0.019-0.007,0.038-0.011,0.057c-0.574-0.508-1.269-0.266-1.905-0.273c-2.509-0.028-5.019-0.013-7.527-0.008
		C10.292,37.701,10.046,37.615,9.854,37.812z"/>
	<path fill-rule="evenodd" clip-rule="evenodd" fill="#675F54" d="M26.083,40.726c-0.144-0.264-0.089-0.544-0.08-0.87
		c0.287,0.227,0.2,0.504,0.202,0.757C26.167,40.652,26.16,40.726,26.083,40.726z"/>
	<path fill-rule="evenodd" clip-rule="evenodd" fill="#ECD1A3" d="M26.083,40.726c0.04-0.038,0.081-0.077,0.122-0.113
		c0.05,0.226,0.101,0.45,0.151,0.675c-0.08,0.039-0.16,0.077-0.24,0.116C26.105,41.176,26.094,40.951,26.083,40.726z"/>
	<path fill-rule="evenodd" clip-rule="evenodd" fill="#F2C883" d="M23.764,42.214c-0.362,0.223-0.509,0.189-0.787-0.168
		C23.222,42.187,23.482,42.249,23.764,42.214z"/>
	<path fill-rule="evenodd" clip-rule="evenodd" fill="#F6CD83" d="M22.527,41.375c-0.278-0.16-0.307-0.388-0.171-0.656
		C22.413,40.937,22.47,41.156,22.527,41.375z"/>
	<path fill-rule="evenodd" clip-rule="evenodd" fill="#FCD07C" d="M26.931,41.794c0.117,0.049,0.235,0.095,0.381,0.154
		c-0.371,0.021-0.371,0.021-0.516-0.189C26.841,41.77,26.886,41.783,26.931,41.794z"/>
	<path fill-rule="evenodd" clip-rule="evenodd" fill="#FACD7D" d="M21.791,40.589c0.044,0.021,0.089,0.044,0.134,0.067
		c-0.154,0.096-0.308,0.094-0.461,0.001c0.044-0.023,0.088-0.045,0.132-0.068C21.66,40.589,21.725,40.589,21.791,40.589z"/>
	<path fill-rule="evenodd" clip-rule="evenodd" fill="#F1CA87" d="M53.028,40.367c0.006-0.156,0.012-0.311,0.019-0.465l0.053-0.008
		c0.025,0.337,0.05,0.673,0.073,1.009C52.845,40.801,53.131,40.53,53.028,40.367z"/>
	<path fill-rule="evenodd" clip-rule="evenodd" fill="#FEC55F" d="M53.1,39.894l-0.054,0.008c0.003-0.247,0.004-0.492,0.006-0.739
		C53.145,39.402,53.121,39.647,53.1,39.894z"/>
	<path fill-rule="evenodd" clip-rule="evenodd" fill="#110804" d="M72.05,44.051c-0.108,0.171-0.272,0.187-0.454,0.187
		c-3.944-0.004-7.887-0.004-11.831-0.007c-0.075,0-0.151-0.027-0.227-0.041c-0.12-0.123-0.118-0.279-0.119-0.434
		c-0.003-0.733,0.01-1.466-0.004-2.198c-0.009-0.468,0.198-0.678,0.659-0.658c0.114,0.005,0.23-0.001,0.347-0.001
		c3.548-0.001,7.097-0.003,10.644,0.001c0.302,0.002,0.625-0.066,0.885,0.171l-0.002-0.005c0.068,0.038,0.151,0.088,0.153,0.159
		C72.109,42.167,72.207,43.112,72.05,44.051z"/>
	<path fill-rule="evenodd" clip-rule="evenodd" fill="#F9D186" d="M9.625,48.024c0.009-0.04,0.018-0.078,0.027-0.118
		c0.107,0.002,0.213,0.002,0.32,0.002c21.542,0,43.086,0.001,64.629-0.002c0.204,0,0.43,0.075,0.604-0.11
		c0.09,0.049,0.11,0.132,0.116,0.223c-0.229,0.018-0.458,0.047-0.688,0.047c-21.459,0.001-42.918,0.001-64.377,0
		C10.046,48.065,9.836,48.038,9.625,48.024z"/>
	<path fill-rule="evenodd" clip-rule="evenodd" fill="#22150B" d="M42.358,42.113c-2.474,0-4.949,0-7.422,0
		c-0.154,0-0.31,0.004-0.463-0.009c-0.124-0.01-0.226-0.071-0.215-0.214c0.008-0.121,0.115-0.149,0.21-0.156
		c0.134-0.013,0.27-0.008,0.405-0.008c4.986,0,9.974,0,14.96,0c0.116,0,0.232-0.005,0.349,0.004
		c0.111,0.007,0.254,0.007,0.269,0.156c0.019,0.18-0.12,0.217-0.265,0.222c-0.135,0.006-0.271,0.005-0.405,0.005
		C47.306,42.113,44.833,42.113,42.358,42.113z"/>
	<path fill-rule="evenodd" clip-rule="evenodd" fill="#281B0B" d="M20.385,41.778c0.17,0.139,0.199,0.283,0.02,0.439
		c-0.118,0.094-0.259,0.062-0.391,0.062c-2.623-0.002-5.246,0.007-7.869-0.005c-0.338-0.182-0.333-0.37-0.012-0.565
		c2.623-0.014,5.246-0.003,7.869-0.004C20.131,41.705,20.275,41.662,20.385,41.778z"/>
	<path fill-rule="evenodd" clip-rule="evenodd" fill="#FACC74" d="M71.949,41.07c-0.173-0.013-0.346-0.037-0.52-0.037
		c-3.77-0.002-7.539,0.007-11.31-0.012c-0.481-0.003-0.638,0.132-0.613,0.617c0.043,0.849,0.024,1.7,0.029,2.551
		c0,0.041,0,0.082-0.001,0.123l-0.001,0.002c-0.241-0.111-0.234-0.325-0.234-0.542c0.003-0.734,0.002-1.467,0.002-2.201
		c-0.002-0.303,0.062-0.575,0.349-0.742c0.036,0,0.073,0.001,0.111,0.001c3.992-0.007,7.985,0.018,11.978-0.013
		c0.072-0.022,0.145-0.019,0.214,0.013C71.952,40.91,71.95,40.99,71.949,41.07z"/>
	<path fill-rule="evenodd" clip-rule="evenodd" fill="#150200" d="M12.023,44.184c-0.005-0.04,0.007-0.075,0.035-0.104
		c0.165-0.136,0.363-0.115,0.555-0.115c2.416-0.001,4.833-0.001,7.25,0c0.191,0,0.39-0.02,0.558,0.106
		c0.2,0.238,0.099,0.346-0.167,0.356c-0.289,0.011-0.578,0.003-0.867,0.003c-2.255,0-4.51,0.002-6.765-0.006
		c-0.197,0-0.426,0.104-0.592-0.103c0.196-0.126,0.414-0.062,0.62-0.063c2.373-0.004,4.744-0.002,7.116-0.004
		c0.174,0,0.363,0.039,0.487-0.023c-0.026,0.087-0.165,0.019-0.266,0.019c-2.545,0.003-5.091,0.003-7.636,0.002
		C12.239,44.252,12.119,44.272,12.023,44.184z"/>
	<path fill-rule="evenodd" clip-rule="evenodd" fill="#FAD07C" d="M50.208,41.625c-5.236,0-10.473,0-15.708,0
		c0-0.018,0-0.038,0-0.057c5.245,0,10.489,0,15.733,0C50.224,41.587,50.217,41.607,50.208,41.625z"/>
	<path fill-rule="evenodd" clip-rule="evenodd" fill="#FBD180" d="M59.535,44.312c4.096,0,8.191,0,12.373,0
		c-0.234,0.17-0.41,0.113-0.571,0.113c-3.733,0.005-7.467,0.005-11.199,0c-0.204,0-0.431,0.075-0.604-0.111L59.535,44.312z"/>
	<path fill-rule="evenodd" clip-rule="evenodd" fill="#F8C35E" d="M71.953,40.83c-0.04,0.002-0.079,0.002-0.119,0.002
		c-0.142,0.088-0.301,0.054-0.452,0.054c-3.76,0.001-7.52,0.001-11.279,0c-0.152,0-0.31,0.034-0.452-0.054v-0.003
		c0.171-0.188,0.397-0.112,0.601-0.112c3.7-0.004,7.402-0.004,11.103,0C71.557,40.717,71.783,40.641,71.953,40.83z"/>
	<path fill-rule="evenodd" clip-rule="evenodd" fill="#080000" d="M12.023,44.184c2.756,0,5.513,0,8.27,0c0,0.047,0,0.092,0,0.139
		c-2.754,0-5.507,0-8.261,0C11.943,44.281,11.943,44.234,12.023,44.184z"/>
	<path fill-rule="evenodd" clip-rule="evenodd" fill="#F8CF89" d="M12.067,42.209c2.778,0.003,5.558,0.006,8.337,0.009
		c-0.066,0.25-0.271,0.113-0.396,0.113c-2.649,0.012-5.298,0.007-7.948,0.007c-0.036-0.03-0.047-0.059-0.033-0.088
		C12.042,42.224,12.055,42.209,12.067,42.209z"/>
	<path fill-rule="evenodd" clip-rule="evenodd" fill="#FAD285" d="M20.385,41.778c-2.771,0.007-5.541,0.015-8.311,0.021
		c-0.06-0.047-0.063-0.1-0.012-0.154c2.731-0.002,5.462-0.003,8.193-0.002c0.051,0,0.103,0.024,0.154,0.037
		C20.401,41.713,20.392,41.746,20.385,41.778z"/>
	<path fill-rule="evenodd" clip-rule="evenodd" fill="#FBCE78" d="M12.061,43.971c0.126-0.17,0.312-0.12,0.479-0.122
		c2.465-0.001,4.931-0.001,7.396,0c0.167,0.002,0.352-0.048,0.481,0.119c-0.069,0.04-0.142,0.053-0.221,0.053
		c-2.637,0-5.275,0-7.913,0C12.204,44.021,12.13,44.008,12.061,43.971z"/>
	<path fill-rule="evenodd" clip-rule="evenodd" fill="#C0A16E" d="M12.061,43.971c2.785,0,5.571-0.001,8.356-0.003
		c0.002,0.034,0.004,0.07,0.005,0.104c-2.788,0.003-5.576,0.006-8.364,0.009C12.058,44.045,12.059,44.008,12.061,43.971z"/>
	<path fill-rule="evenodd" clip-rule="evenodd" fill="#FBD081" d="M72.05,44.051c-0.009-0.788-0.018-1.576-0.024-2.364
		c-0.003-0.21,0.017-0.423-0.078-0.621c0.16,0.016,0.237,0.105,0.235,0.267c-0.001,0.9-0.001,1.802-0.004,2.703
		c0,0.013-0.021,0.036-0.031,0.036C72.114,44.068,72.082,44.059,72.05,44.051z"/>
	<path fill-rule="evenodd" clip-rule="evenodd" fill="#F6C875" d="M12.062,41.646c0.004,0.051,0.008,0.104,0.012,0.154
		c-0.141,0.135-0.13,0.271-0.006,0.409c-0.002,0.043-0.004,0.085-0.006,0.129C11.728,42.105,11.725,41.876,12.062,41.646z"/>
	<path fill-rule="evenodd" clip-rule="evenodd" fill="#FEC55F" d="M9.97,73.68c-0.19-0.172-0.113-0.4-0.113-0.603
		c-0.004-3.771,0.009-7.544-0.016-11.315c-0.003-0.549,0.215-0.726,0.698-0.732c0.135-0.002,0.271-0.002,0.406-0.002
		c14.12,0,28.241,0,42.362,0c5.515,0,11.028,0.007,16.543-0.004c1.073-0.003,2.144,0.167,3.222,0.014
		c0.67-0.095,1.345,0.036,2.016,0.105c0.092,0.14,0.055,0.3,0.055,0.45c0.002,3.878,0.002,7.757,0,11.635
		c0,0.151,0.036,0.31-0.055,0.452l0,0c-0.201,0.105-0.418,0.054-0.627,0.054c-21.288,0.003-42.575,0.003-63.864,0
		C10.388,73.733,10.171,73.785,9.97,73.68z"/>
	<path fill-rule="evenodd" clip-rule="evenodd" fill="#F8C35E" d="M9.97,73.68c21.706,0,43.412,0,65.117,0
		c-0.172,0.188-0.398,0.111-0.603,0.111c-21.304,0.003-42.608,0.003-63.913,0C10.369,73.791,10.142,73.868,9.97,73.68z"/>
	<path fill-rule="evenodd" clip-rule="evenodd" fill="#F8C35E" d="M75.087,73.68c0-4.18,0-8.359,0-12.537
		c0.221,0.026,0.11,0.198,0.11,0.296c0.007,3.919,0.006,7.838,0.004,11.756C75.201,73.362,75.25,73.548,75.087,73.68z"/>
	<path fill-rule="evenodd" clip-rule="evenodd" fill="#FEC55F" d="M9.653,73.552c-0.008-2.742-0.02-5.484-0.023-8.228
		c0-1.39,0.014-2.78,0.023-4.171c0.13,0.15,0.083,0.332,0.083,0.501c0.002,3.798,0.002,7.598,0,11.397
		C9.736,73.222,9.784,73.401,9.653,73.552z"/>
	<path fill-rule="evenodd" clip-rule="evenodd" fill="#FED995" d="M9.854,60.214c0-3.829,0-7.66,0-11.491
		c0.203-0.161,0.444-0.113,0.671-0.113c21.311-0.003,42.623-0.003,63.934-0.001c0.726,0,0.741,0.017,0.741,0.757
		c0.003,3.402,0.003,6.807,0,10.21c0,0.736-0.016,0.754-0.742,0.754c-21.312,0.001-42.623,0.001-63.935-0.002
		C10.296,60.327,10.057,60.374,9.854,60.214z"/>
	<path fill-rule="evenodd" clip-rule="evenodd" fill="#F8D794" d="M9.854,60.214c21.465,0,42.931,0,64.396,0
		c0.837,0,0.837,0,0.837-0.843c0-3.307-0.015-6.613,0.014-9.92c0.005-0.582-0.136-0.742-0.734-0.742
		c-21.503,0.017-43.007,0.014-64.511,0.014c0-0.036,0-0.075,0.001-0.113c0.199-0.111,0.417-0.055,0.625-0.057
		c21.364-0.003,42.729-0.003,64.094,0c0.211,0,0.425-0.037,0.632,0.037c0.095,0.183,0.05,0.38,0.05,0.569
		c0.003,3.539,0.003,7.076,0.003,10.614c0,0.612-0.002,0.613-0.638,0.613c-21.399,0-42.8,0-64.199-0.003
		c-0.189,0-0.388,0.053-0.567-0.057C9.855,60.289,9.854,60.252,9.854,60.214z"/>
	<path fill-rule="evenodd" clip-rule="evenodd" fill="#FBE3AC" d="M9.856,60.327c21.57,0.002,43.14,0,64.71,0.015
		c0.512,0,0.652-0.134,0.647-0.647c-0.022-3.695-0.013-7.39-0.014-11.085c0.035-0.05,0.07-0.048,0.107-0.003
		c0.004,3.773,0.002,7.546,0.018,11.317c0.001,0.403-0.119,0.578-0.526,0.522c-0.095-0.013-0.192-0.001-0.29-0.001
		c-21.377,0-42.752,0-64.128-0.002c-0.172,0-0.344-0.011-0.515-0.021c-0.01,0-0.026-0.026-0.027-0.042
		C9.837,60.364,9.85,60.346,9.856,60.327z"/>
	<path fill-rule="evenodd" clip-rule="evenodd" fill="#FAE2B6" d="M75.308,48.606c-0.035,0-0.07,0.002-0.107,0.003
		c-21.782,0-43.563,0-65.344,0c-0.068,0-0.135-0.001-0.204-0.001c-0.019-0.034-0.026-0.069-0.021-0.109
		c0.212-0.007,0.424-0.022,0.635-0.022c21.474-0.002,42.947-0.002,64.422,0c0.211,0.001,0.422,0.022,0.634,0.035
		C75.319,48.545,75.314,48.575,75.308,48.606z"/>
	<path fill-rule="evenodd" clip-rule="evenodd" fill="#070202" d="M55.119,39.323c-0.076,0.115-0.151,0.231-0.229,0.347
		c0.021-0.148-0.001-0.322,0.071-0.436C55.038,39.111,55.188,39.072,55.119,39.323z"/>
	<path fill-rule="evenodd" clip-rule="evenodd" fill="#EDC887" d="M71.605,43.731c-0.114,0.252-0.338,0.122-0.504,0.122
		c-3.559,0.009-7.116,0-10.675,0.016c-0.415,0.003-0.604-0.069-0.549-0.529c0.074-0.626-0.269-1.471,0.135-1.826
		c0.352-0.312,1.177-0.098,1.792-0.1c3.075-0.003,6.149-0.004,9.225,0.006c0.187,0.001,0.422-0.132,0.574,0.107
		c-0.059,0.05-0.121,0.088-0.189,0.119c-0.302,0.097-0.613,0.064-0.921,0.065c-3.109,0.003-6.22-0.003-9.329,0.007
		c-0.311,0-0.729-0.13-0.886,0.241c-0.184,0.43-0.137,0.91-0.019,1.365c0.039,0.149,0.192,0.174,0.328,0.193
		c0.229,0.036,0.462,0.025,0.694,0.025c3.092,0.002,6.183,0,9.272,0.003c0.289,0,0.581-0.028,0.862,0.064
		C71.485,43.643,71.549,43.682,71.605,43.731z"/>
	<path fill-rule="evenodd" clip-rule="evenodd" fill="#F7D085" d="M71.482,41.533c0.04-0.001,0.079-0.004,0.121-0.006
		c0,0.734,0.001,1.47,0.002,2.204c-0.042-0.003-0.085-0.004-0.127-0.007C71.205,42.994,71.2,42.264,71.482,41.533z"/>
	<path fill-rule="evenodd" clip-rule="evenodd" fill="#F9CF7D" d="M59.65,40.832c4.062,0,8.123,0,12.184,0
		c-0.151,0.174-0.357,0.11-0.543,0.11c-3.699,0.004-7.397,0.004-11.097,0C60.009,40.942,59.803,41.006,59.65,40.832z"/>
	<path fill-rule="evenodd" clip-rule="evenodd" fill="#100704" d="M63.465,69.303c-1.079-0.022-1.251-0.133-1.609-1.053
		c-0.36,0.22-0.71,0.452-1.077,0.65c-0.393,0.211-0.81,0.364-1.265,0.393c-0.953,0.058-1.354-0.421-1.146-1.363
		c0.147-0.663,0.533-1.209,0.945-1.708c0.449-0.543,1.005-0.998,1.611-1.376c0.132-0.084,0.289-0.206,0.404-0.032
		c0.12,0.184-0.081,0.269-0.2,0.351c-0.839,0.576-1.589,1.24-2.083,2.144c-0.248,0.449-0.609,0.983-0.19,1.439
		c0.391,0.426,0.945,0.144,1.412-0.032c0.565-0.214,1.055-0.564,1.52-0.945c0.154-0.128,0.293-0.351,0.532-0.123
		c0.041,0.044,0.053,0.098,0.056,0.155c0.05,0.955,0.675,1.306,1.538,0.88c0.215-0.105,0.243-0.209,0.099-0.384
		c-0.004-0.147-0.029-0.298,0.03-0.44c0.473-0.412,0.78-0.392,1.163,0.079c-0.001,0.097,0.037,0.22-0.01,0.283
		c-0.433,0.608,0.041,0.643,0.442,0.69c0.446,0.053,0.911,0.047,1.297-0.195c0.473-0.299,0.884-0.266,1.305,0.06
		c1.004,0.065,2,0.044,2.977-0.226c0.248-0.051,0.483-0.147,0.731-0.2c0.181-0.064,0.362-0.132,0.548-0.181
		c0.176-0.047,0.357-0.062,0.436,0.149c0.085,0.23-0.097,0.31-0.255,0.379c-0.622,0.271-1.284,0.412-1.943,0.534
		c-0.698,0.131-1.457,0.339-2.113,0.109c-0.799-0.279-1.495-0.194-2.264,0.014c-0.494,0.134-1.041,0.071-1.515-0.202
		c-0.23-0.134-0.434-0.121-0.644,0.021C63.958,69.252,63.731,69.384,63.465,69.303z"/>
	<path fill-rule="evenodd" clip-rule="evenodd" fill="#23160C" d="M27.016,68.349c0.182,0.147,0.197,0.297,0.009,0.451
		c-0.14,0.099-0.299,0.06-0.45,0.06c-4.847-0.002-9.694,0.007-14.542-0.003c-0.348-0.183-0.334-0.374-0.012-0.571
		c0.243-0.086,0.496-0.061,0.745-0.061c4.492-0.002,8.983-0.003,13.475,0.003C26.5,68.229,26.784,68.143,27.016,68.349z"/>
	<path fill-rule="evenodd" clip-rule="evenodd" fill="#2D2012" d="M19.556,66.523c-2.337,0-4.674,0-7.011,0
		c-0.154,0-0.309,0-0.462-0.009c-0.102-0.007-0.199-0.054-0.204-0.165c-0.006-0.137,0.084-0.207,0.214-0.216
		c0.116-0.009,0.232-0.007,0.348-0.007c4.711,0,9.424,0,14.136,0c0.135,0,0.27,0.003,0.404,0.016c0.11,0.01,0.177,0.086,0.178,0.191
		c0.001,0.114-0.087,0.168-0.188,0.177c-0.154,0.012-0.309,0.013-0.463,0.013C24.19,66.523,21.873,66.523,19.556,66.523z"/>
	<path fill-rule="evenodd" clip-rule="evenodd" fill="#F3C573" d="M64.145,69.137c0.205-0.146,0.381-0.269,0.67-0.11
		c0.789,0.434,1.607,0.346,2.396-0.014c0.251-0.115,0.43-0.159,0.673,0.017c0.342,0.247,0.759,0.257,1.17,0.26
		c1.194,0.008,2.34-0.248,3.461-0.63c0.145-0.05,0.411-0.07,0.325-0.312c-0.085-0.236-0.289-0.085-0.446-0.041
		c-0.147,0.042-0.296,0.079-0.444,0.119c-0.055-0.01-0.094-0.041-0.116-0.091c0.397-0.122,0.919-0.665,1.162-0.012
		c0.204,0.552-0.512,0.559-0.854,0.652c-1.256,0.347-2.539,0.772-3.844,0.39c-0.573-0.169-1.049-0.19-1.595,0.014
		c-0.618,0.231-1.253,0.185-1.85-0.121c-0.182-0.094-0.367-0.112-0.562-0.101C64.233,69.209,64.186,69.202,64.145,69.137z"/>
	<path fill-rule="evenodd" clip-rule="evenodd" fill="#FAD183" d="M27.016,68.349c-4.73,0.006-9.46,0.011-14.191,0.016
		c-0.289,0-0.578,0.013-0.868,0.019c-0.058-0.048-0.062-0.101-0.012-0.155c0.039-0.002,0.077-0.003,0.115-0.006
		c0.162-0.094,0.34-0.053,0.51-0.053c4.69-0.003,9.38-0.003,14.07,0c0.17,0,0.349-0.045,0.508,0.059
		C27.104,68.267,27.061,68.308,27.016,68.349z"/>
	<path fill-rule="evenodd" clip-rule="evenodd" fill="#F8CE83" d="M11.954,68.774c4.637,0.004,9.274,0.008,13.911,0.014
		c0.387,0,0.773,0.008,1.159,0.012c-0.068,0.257-0.276,0.11-0.4,0.112c-4.893,0.008-9.786,0.005-14.679,0.005
		C11.893,68.866,11.895,68.818,11.954,68.774z"/>
	<path fill-rule="evenodd" clip-rule="evenodd" fill="#FCD17D" d="M26.879,66.699c-4.926,0-9.853,0-14.779,0
		c0-0.019,0-0.038,0-0.057c4.933,0,9.867,0,14.801,0C26.893,66.661,26.886,66.681,26.879,66.699z"/>
	<path fill-rule="evenodd" clip-rule="evenodd" fill="#F7C35F" d="M27.148,68.228c-5.029-0.003-10.058-0.005-15.088-0.006
		c0.172-0.188,0.398-0.11,0.602-0.11c4.629-0.005,9.259-0.005,13.888,0C26.752,68.111,26.979,68.033,27.148,68.228z"/>
	<path fill-rule="evenodd" clip-rule="evenodd" fill="#F2CA81" d="M71.291,68.587c-1.005,0.263-2.011,0.506-3.053,0.188
		c0.248-0.166,0.526-0.087,0.785-0.078c0.674,0.022,1.337-0.051,2.001-0.129C71.12,68.505,71.209,68.498,71.291,68.587z"/>
	<path fill-rule="evenodd" clip-rule="evenodd" fill="#F2C87F" d="M64.079,68.303c0.054,0.126,0.333,0.259,0.014,0.381
		c-0.476,0.182-0.962,0.401-1.47,0.102c-0.468-0.274-0.312-0.729-0.305-1.139c0.126-0.057,0.111,0.044,0.116,0.11
		c0.09,0.997,0.736,1.276,1.623,0.7C64.004,68.396,64.011,68.345,64.079,68.303z"/>
	<path fill-rule="evenodd" clip-rule="evenodd" fill="#FCCD78" d="M64.145,69.137c0.049,0.008,0.098,0.015,0.146,0.021
		c-0.44,0.281-0.799,0.361-1.402,0.308c0.166-0.175,0.424,0.014,0.576-0.162C63.692,69.248,63.919,69.192,64.145,69.137z"/>
	<path fill-rule="evenodd" clip-rule="evenodd" fill="#F0C67B" d="M65.204,67.937c-0.367-0.302-0.741-0.452-1.132-0.037
		c-0.064-0.039-0.068-0.085-0.015-0.136C64.525,67.362,64.986,67.432,65.204,67.937z"/>
	<path fill-rule="evenodd" clip-rule="evenodd" fill="#F8CD7E" d="M71.291,68.587c-0.089-0.006-0.177-0.013-0.267-0.02
		c0.248-0.15,0.524-0.201,0.809-0.232c0.038,0.029,0.077,0.061,0.116,0.091C71.729,68.479,71.511,68.533,71.291,68.587z"/>
	<path fill-rule="evenodd" clip-rule="evenodd" fill="#F3C675" d="M11.954,68.774c-0.003,0.047-0.006,0.095-0.009,0.143
		c-0.335-0.23-0.335-0.46,0-0.689c0.004,0.051,0.008,0.104,0.012,0.155C11.837,68.512,11.852,68.643,11.954,68.774z"/>
	<path fill-rule="evenodd" clip-rule="evenodd" fill="#F6CB81" d="M64.058,67.764c0.004,0.045,0.01,0.091,0.015,0.136
		c0.002,0.134,0.004,0.269,0.007,0.403c-0.007,0.051-0.015,0.103-0.021,0.154C63.888,68.225,63.879,67.995,64.058,67.764z"/>
	<path fill-rule="evenodd" clip-rule="evenodd" fill="#010101" d="M67.653,57.566c-0.193,0.354,0.12,0.87-0.368,1.126
		c-0.099,0.098-0.196,0.098-0.291-0.003c-0.071-0.09-0.214-0.191-0.201-0.267c0.172-1.033-0.709-1.123-1.298-1.472
		c-0.196-0.062-0.332-0.183-0.375-0.391c-0.139-0.271-0.243-0.553,0.053-0.781c0.301-0.23,0.498,0.035,0.706,0.191
		c0.242,0.182,0.468,0.389,0.839,0.512c0-0.612-0.007-1.165,0.004-1.718c0.005-0.207-0.08-0.311-0.264-0.391
		c-0.228-0.101-0.457-0.215-0.661-0.356c-0.514-0.356-0.922-0.795-0.801-1.488c0.116-0.673,0.544-1.129,1.179-1.299
		c0.441-0.118,0.593-0.302,0.562-0.741c-0.02-0.305,0.015-0.682,0.441-0.682c0.437,0.001,0.462,0.413,0.428,0.689
		c-0.066,0.536,0.213,0.689,0.644,0.798c0.358,0.091,0.669,0.291,0.901,0.593c0.101,0.095,0.102,0.188-0.005,0.28
		c-0.353,0.488-0.754,0.175-1.144,0.069c-0.177-0.008-0.296,0.052-0.287,0.253c0.022,0.487-0.059,0.978,0.052,1.463
		c0.278,0.129,0.564,0.242,0.831,0.39c0.566,0.315,0.992,0.73,0.956,1.452c-0.035,0.722-0.435,1.171-1.06,1.451
		c-0.244,0.109-0.502,0.186-0.753,0.278C67.734,57.582,67.704,57.597,67.653,57.566z"/>
	<path fill-rule="evenodd" clip-rule="evenodd" fill="#020101" d="M50.135,52.211c0.45-0.584,0.914-1.143,1.734-1.208
		c0.967-0.077,1.781,0.349,2.244,1.204c1.012,1.864,0.343,4.435-1.447,5.561c-0.835,0.479-2.245,0.106-2.775-1.04
		c-0.679-1.468-0.591-2.955,0.11-4.407C50.027,52.268,50.084,52.24,50.135,52.211z"/>
	<path fill-rule="evenodd" clip-rule="evenodd" fill="#010101" d="M57.133,57.87c-1.188-0.405-1.684-1.324-1.812-2.492
		c-0.168-1.541,0.124-2.944,1.325-4.043c0.578-0.562,1.249-0.483,1.938-0.28c2.301,0.921,2.151,4.97,0.244,6.437
		c-0.251,0.193-0.553,0.261-0.831,0.388C57.708,57.986,57.421,57.999,57.133,57.87z"/>
	<path fill-rule="evenodd" clip-rule="evenodd" fill="#020201" d="M36.014,57.754c-1.357-0.878-1.858-2.45-1.384-4.346
		c0.133-0.53,0.334-1.028,0.663-1.47c1.02-1.372,2.91-1.25,3.745,0.24c0.844,1.505,0.473,3.914-0.773,5.111
		c-0.303,0.292-0.67,0.442-1.048,0.586C36.803,57.965,36.386,58.077,36.014,57.754z"/>
	<path fill-rule="evenodd" clip-rule="evenodd" fill="#020101" d="M32.438,57.415c-0.184,0.116-0.368,0.233-0.552,0.35
		c-0.375,0.287-0.811,0.16-1.225,0.176c-1.609-0.614-2.374-2.28-1.886-4.109c0.188-0.586,0.315-1.189,0.663-1.72
		c0.539-0.818,1.266-1.248,2.253-1.098c0.905,0.139,1.494,0.711,1.788,1.552c0.556,1.591,0.308,3.081-0.657,4.455
		C32.777,57.233,32.644,57.358,32.438,57.415z"/>
	<path fill-rule="evenodd" clip-rule="evenodd" fill="#020101" d="M47.343,51.163c1.276,0.875,1.825,2.6,1.335,4.215
		c-0.299,0.988-0.792,1.84-1.712,2.382c-0.387,0.273-0.805,0.229-1.229,0.124c-1.317-0.413-1.801-1.426-1.896-2.688
		c-0.115-1.511,0.199-2.88,1.414-3.917C45.822,50.83,46.736,50.781,47.343,51.163z"/>
	<path fill-rule="evenodd" clip-rule="evenodd" fill="#020101" d="M24.87,57.867c-1.217-0.423-1.684-1.375-1.813-2.565
		c-0.123-1.125,0.046-2.193,0.642-3.169c0.507-0.829,1.243-1.266,2.231-1.122c0.902,0.129,1.48,0.688,1.805,1.521
		c0.754,1.936,0.108,4.105-1.552,5.226C25.767,58.044,25.322,57.999,24.87,57.867z"/>
	<path fill-rule="evenodd" clip-rule="evenodd" fill="#050402" d="M17.276,56.736c0.212,0.139,0.448,0.277,0.349,0.585
		c-0.102,0.312-0.372,0.346-0.658,0.34c-0.422-0.007-0.846-0.014-1.268,0.003c-0.255,0.011-0.443-0.088-0.607-0.262
		c-0.228-0.383,0-0.619,0.316-0.697c0.298-0.074,0.369-0.207,0.368-0.474c-0.004-1.121-0.016-2.242,0.007-3.361
		c0.007-0.281-0.131-0.366-0.335-0.443c-0.401-0.43-0.4-0.643,0.087-0.943c0.365-0.224,0.717-0.762,1.224-0.198
		c0.218,0.134,0.108,0.348,0.109,0.521c0.01,1.463,0.019,2.925-0.004,4.387C16.86,56.525,16.964,56.687,17.276,56.736z"/>
	<path fill-rule="evenodd" clip-rule="evenodd" fill="#F2DAA9" d="M50.135,52.211c-0.645,1.332-0.823,2.711-0.317,4.117
		c0.465,1.292,1.333,1.705,2.849,1.439c-0.245,0.284-1.068,0.339-1.589,0.138c-0.948-0.365-1.392-1.134-1.598-2.051
		c-0.242-1.087-0.168-2.168,0.263-3.211C49.859,52.358,49.878,52.343,50.135,52.211z"/>
	<path fill-rule="evenodd" clip-rule="evenodd" fill="#FCDFA5" d="M15.448,52.427c0.245-0.044,0.46-0.135,0.449,0.3
		c-0.032,1.216-0.012,2.435-0.011,3.654c0,0.189,0.047,0.391-0.27,0.378c-0.439-0.019-0.558,0.258-0.524,0.644
		c-0.276-0.213-0.22-0.614,0.175-0.729c0.387-0.112,0.398-0.323,0.395-0.631c-0.01-0.945-0.012-1.891,0-2.836
		C15.667,52.918,15.655,52.648,15.448,52.427z"/>
	<path fill-rule="evenodd" clip-rule="evenodd" fill="#F1D9A9" d="M28.775,53.831c0.014,0.629-0.061,1.258,0.068,1.889
		c0.215,1.061,0.76,1.818,1.815,2.16c-0.082,0.085-0.169,0.084-0.26,0.014c-1.082-0.356-1.711-1.279-1.743-2.555
		c-0.086-0.426-0.086-0.851,0-1.275C28.659,53.967,28.68,53.881,28.775,53.831z"/>
	<path fill-rule="evenodd" clip-rule="evenodd" fill="#FDE3B4" d="M17.276,56.736c-0.364,0.079-0.495-0.033-0.491-0.436
		c0.014-1.672-0.013-3.343-0.025-5.016c0.266,0.121,0.169,0.363,0.171,0.558c0.008,1.367,0.018,2.733-0.006,4.1
		C16.919,56.287,16.994,56.543,17.276,56.736z"/>
	<path fill-rule="evenodd" clip-rule="evenodd" fill="#F4DDAA" d="M47.343,51.163c-0.712-0.253-1.409-0.237-2.088,0.115
		c-0.114-0.166,0.046-0.192,0.131-0.238c0.513-0.276,1.068-0.271,1.619-0.194C47.142,50.866,47.405,50.876,47.343,51.163z"/>
	<path fill-rule="evenodd" clip-rule="evenodd" fill="#F1DBA9" d="M58.584,51.055c-0.675-0.105-1.335-0.109-1.938,0.28
		C57.062,50.738,58.188,50.575,58.584,51.055z"/>
	<path fill-rule="evenodd" clip-rule="evenodd" fill="#F8E1B1" d="M67.768,53.953c-0.324-0.564-0.124-1.174-0.114-1.758
		c0.004-0.224,0.227,0.022,0.35,0.042c-0.432,0.479-0.228,1.025-0.14,1.545C67.887,53.926,67.861,53.929,67.768,53.953z"/>
	<path fill-rule="evenodd" clip-rule="evenodd" fill="#F6DCAA" d="M30.399,57.894c0.086-0.004,0.173-0.008,0.26-0.014
		c0.415,0.019,0.822-0.034,1.228-0.115c0.086,0.222-0.135,0.215-0.209,0.216C31.25,57.984,30.811,58.124,30.399,57.894z"/>
	<path fill-rule="evenodd" clip-rule="evenodd" fill="#F8DEAB" d="M24.87,57.867c0.443,0.026,0.884,0.019,1.313-0.11
		c0.123,0.122,0.005,0.161-0.077,0.184c-0.422,0.113-0.848,0.094-1.274,0.019c-0.003,0-0.004-0.034,0.002-0.048
		C24.841,57.894,24.858,57.881,24.87,57.867z"/>
	<path fill-rule="evenodd" clip-rule="evenodd" fill="#F9DEAC" d="M45.737,57.884c0.412-0.007,0.827,0.009,1.229-0.124
		c0.127,0.181-0.072,0.195-0.136,0.201c-0.396,0.026-0.793,0.031-1.188,0.042c-0.008,0-0.019-0.025-0.026-0.039
		C45.656,57.938,45.696,57.911,45.737,57.884z"/>
	<path fill-rule="evenodd" clip-rule="evenodd" fill="#F9DEAC" d="M36.014,57.754c0.389,0.164,0.799,0.113,1.203,0.122
		c0.045,0.025,0.089,0.052,0.134,0.077c-0.472,0.056-0.949,0.187-1.392-0.11c-0.005-0.004,0.004-0.037,0.013-0.051
		C35.981,57.776,35.999,57.767,36.014,57.754z"/>
	<path fill-rule="evenodd" clip-rule="evenodd" fill="#FDE1A9" d="M28.656,54.063c0,0.425,0,0.85,0,1.275
		C28.471,54.913,28.471,54.488,28.656,54.063z"/>
	<path fill-rule="evenodd" clip-rule="evenodd" fill="#F9DEAC" d="M57.133,57.87c0.288,0.003,0.577,0.006,0.864,0.009
		c0.053,0.026,0.168,0.101,0.112,0.104c-0.334,0.022-0.672-0.006-1.009-0.019c-0.002,0-0.007-0.034-0.002-0.05
		C57.104,57.898,57.122,57.886,57.133,57.87z"/>
	<path fill-rule="evenodd" clip-rule="evenodd" fill="#FEE6AF" d="M37.591,50.896c-0.299,0-0.597,0-0.896,0
		c0-0.016-0.001-0.031-0.002-0.045c0.299,0,0.598,0,0.897,0C37.591,50.864,37.591,50.88,37.591,50.896z"/>
	<path fill-rule="evenodd" clip-rule="evenodd" fill="#FBE2AE" d="M30.875,50.841c0.299,0,0.598,0,0.897,0
		C31.475,50.951,31.175,50.934,30.875,50.841z"/>
	<path fill-rule="evenodd" clip-rule="evenodd" fill="#FDE5AE" d="M25.188,50.841c0.298,0,0.598,0,0.896,0
		C25.786,50.949,25.487,50.933,25.188,50.841z"/>
	<path fill-rule="evenodd" clip-rule="evenodd" fill="#FDE5B0" d="M67.653,57.566c0.016-0.042,0.045-0.057,0.088-0.042
		c0.241,0.268-0.112,0.534-0.088,0.808C67.653,58.077,67.653,57.821,67.653,57.566z"/>
	<path fill-rule="evenodd" clip-rule="evenodd" fill="#FEE5B0" d="M51.76,50.841c0.26,0,0.518,0,0.777,0
		c0.001,0.016,0.001,0.03,0.003,0.045c-0.26,0-0.52,0-0.778,0C51.762,50.871,51.762,50.856,51.76,50.841z"/>
	<path fill-rule="evenodd" clip-rule="evenodd" fill="#FDE2AC" d="M69.146,52.168c0.002-0.093,0.003-0.187,0.005-0.28
		c0.241-0.091,0.107,0.113,0.125,0.177C69.287,52.113,69.328,52.308,69.146,52.168z"/>
	<path fill-rule="evenodd" clip-rule="evenodd" fill="#F5DDAD" d="M65.12,56.561c0.125,0.13,0.25,0.261,0.375,0.391
		C65.221,56.963,65.103,56.827,65.12,56.561z"/>
	<path fill-rule="evenodd" clip-rule="evenodd" fill="#F7DDAD" d="M32.438,57.415c0.128-0.132,0.256-0.263,0.384-0.395
		C32.839,57.295,32.717,57.431,32.438,57.415z"/>
	<path fill-rule="evenodd" clip-rule="evenodd" fill="#FCE2AE" d="M66.994,58.689c0.097,0,0.192,0.001,0.291,0.003
		c0.08,0.236-0.116,0.105-0.182,0.121C67.057,58.825,66.865,58.872,66.994,58.689z"/>
	<path fill-rule="evenodd" clip-rule="evenodd" fill="#FEC55F" d="M71.482,41.533c-0.001,0.731-0.003,1.461-0.004,2.191
		c-3.617,0.003-7.232-0.003-10.848,0.014c-0.478,0.002-0.646-0.147-0.64-0.632c0.027-1.9-0.135-1.567,1.57-1.574
		C64.868,41.518,68.176,41.532,71.482,41.533z"/>
	<path fill-rule="evenodd" clip-rule="evenodd" fill="#CFBC99" d="M64.796,68.226c-0.044,0.031-0.097,0.098-0.157,0.106
		c-0.117,0.016-0.147-0.091-0.159-0.179c-0.01-0.088,0.056-0.132,0.141-0.116C64.707,68.053,64.798,68.081,64.796,68.226z"/>
	<path fill-rule="evenodd" clip-rule="evenodd" fill="#F5D699" d="M67.779,54.988c0.115,0.062,0.239,0.112,0.343,0.188
		c0.241,0.179,0.55,0.326,0.492,0.7c-0.062,0.401-0.374,0.537-0.728,0.608C67.574,56.006,67.68,55.497,67.779,54.988z"/>
	<path fill-rule="evenodd" clip-rule="evenodd" fill="#EED199" d="M66.332,53.267c-0.544-0.472-0.556-0.644-0.062-1.043
		C66.732,52.488,66.763,53.015,66.332,53.267z"/>
	<path fill-rule="evenodd" clip-rule="evenodd" fill="#F6DDAD" d="M66.332,53.267c0.27-0.365,0.275-0.714-0.062-1.043
		c0.301-0.22,0.483-0.223,0.451,0.229c-0.017,0.229,0.004,0.461-0.007,0.69c-0.006,0.104,0.072,0.255-0.062,0.305
		C66.505,53.503,66.42,53.363,66.332,53.267z"/>
	<path fill-rule="evenodd" clip-rule="evenodd" fill="#FCE7B4" d="M67.779,54.988c0.037,0.499-0.115,1.013,0.107,1.497
		c-0.096,0.047-0.267,0.146-0.271-0.013c-0.021-0.508,0.014-1.017,0.029-1.525c0-0.007,0.035-0.022,0.047-0.019
		C67.723,54.944,67.75,54.969,67.779,54.988z"/>
	<path fill-rule="evenodd" clip-rule="evenodd" fill="#FED996" d="M53.514,53.339c0.265,0.849,0.167,1.677-0.178,2.478
		c-0.327,0.764-1.033,1.237-1.643,1.146c-0.691-0.105-1.115-0.68-1.2-1.625c0.078-0.424,0.068-0.847,0.004-1.272
		c0.132-0.867,0.315-1.703,1.261-2.079c0.271-0.031,0.539,0.053,0.811,0.009c0.553,0.182,0.808,0.603,0.912,1.143
		c-0.045,0.067-0.047,0.145-0.041,0.221c0.003,0.04-0.019,0.072-0.017,0.109C53.468,53.434,53.458,53.364,53.514,53.339z"/>
	<path fill-rule="evenodd" clip-rule="evenodd" fill="#FCE3B2" d="M50.497,54.064c0.155,0.426,0.162,0.849-0.004,1.272
		C50.406,54.913,50.408,54.488,50.497,54.064z"/>
	<path fill-rule="evenodd" clip-rule="evenodd" fill="#FCE4B2" d="M52.568,51.994c-0.272,0.143-0.542,0.153-0.811-0.009
		C52.028,51.844,52.299,51.853,52.568,51.994z"/>
	<path fill-rule="evenodd" clip-rule="evenodd" fill="#FCE3B0" d="M53.514,53.339c-0.015,0.087-0.027,0.175-0.054,0.357
		c-0.1-0.26-0.119-0.414,0.021-0.56C53.49,53.204,53.502,53.271,53.514,53.339z"/>
	<path fill-rule="evenodd" clip-rule="evenodd" fill="#FDD996" d="M56.149,54.827c0.022-0.892,0.157-1.624,0.593-2.271
		c0.297-0.443,0.708-0.725,1.263-0.66c0.544,0.061,0.92,0.394,1.11,0.896c0.404,1.057,0.396,2.113-0.103,3.14
		c-0.328,0.673-0.981,1.096-1.54,1.036c-0.643-0.069-1.062-0.537-1.236-1.409C56.179,55.277,56.166,54.987,56.149,54.827z"/>
	<path fill-rule="evenodd" clip-rule="evenodd" fill="#FED996" d="M35.528,53.6c0.049-0.435,0.236-0.813,0.501-1.149
		c0.658-0.827,1.792-0.748,2.227,0.211c0.54,1.193,0.506,2.411-0.204,3.546c-0.312,0.499-0.789,0.821-1.407,0.747
		c-0.661-0.078-0.992-0.551-1.143-1.154c-0.166-0.662-0.216-1.33-0.008-1.996c0.099,0.095,0.084,0.203,0.069,0.236
		C35.548,53.944,35.6,53.771,35.528,53.6z"/>
	<path fill-rule="evenodd" clip-rule="evenodd" fill="#FCE0AC" d="M35.528,53.6c0.145,0.186,0.115,0.382,0.019,0.675
		c-0.025-0.217-0.04-0.343-0.054-0.471C35.504,53.735,35.516,53.668,35.528,53.6z"/>
	<path fill-rule="evenodd" clip-rule="evenodd" fill="#FED996" d="M32.698,55.339c-0.126,0.615-0.432,1.112-0.981,1.433
		c-0.584,0.34-1.218,0.229-1.613-0.271c-0.864-1.094-0.487-3.903,0.635-4.426c0.349-0.05,0.697-0.115,1.052-0.078
		c0.526,0.153,0.765,0.575,0.897,1.046c0.193,0.688,0.275,1.395,0.051,2.101c-0.05-0.024-0.067-0.067-0.069-0.119
		C32.655,55.132,32.65,55.236,32.698,55.339z"/>
	<path fill-rule="evenodd" clip-rule="evenodd" fill="#F9E1B1" d="M31.791,51.997c-0.344,0.107-0.691,0.189-1.052,0.078
		C31.076,51.876,31.423,51.807,31.791,51.997z"/>
	<path fill-rule="evenodd" clip-rule="evenodd" fill="#FBE1AE" d="M32.698,55.339c-0.125-0.139-0.114-0.292-0.056-0.467
		c0.13,0.065,0.056,0.188,0.097,0.271C32.725,55.208,32.712,55.273,32.698,55.339z"/>
	<path fill-rule="evenodd" clip-rule="evenodd" fill="#FED996" d="M46.878,52.004c0.261,0.062,0.434,0.241,0.584,0.445
		c0.72,0.979,0.588,3.081-0.245,3.973c-0.841,0.898-1.971,0.673-2.345-0.495c-0.353-1.1-0.228-2.177,0.301-3.198
		c0.167-0.328,0.402-0.614,0.784-0.726C46.264,51.998,46.571,51.995,46.878,52.004z"/>
	<path fill-rule="evenodd" clip-rule="evenodd" fill="#FAE2B2" d="M46.878,52.004c-0.308,0.135-0.614,0.138-0.921-0.001
		C46.264,51.847,46.571,51.847,46.878,52.004z"/>
	<path fill-rule="evenodd" clip-rule="evenodd" fill="#FDD996" d="M26.1,52.01c1.073,0.563,1.058,1.59,1.01,2.566
		c-0.046,0.97-0.338,1.877-1.362,2.3c-0.534,0.222-0.997,0.065-1.355-0.353c-0.839-0.978-0.576-3.53,0.436-4.335
		c0.102-0.082,0.232-0.126,0.35-0.188C25.486,52.005,25.793,51.985,26.1,52.01z"/>
	<path fill-rule="evenodd" clip-rule="evenodd" fill="#FAE1B2" d="M26.1,52.01c-0.309,0.122-0.616,0.138-0.921-0.01
		C25.487,51.843,25.795,51.848,26.1,52.01z"/>
</g>
</svg>
