<?xml version="1.0" encoding="utf-8"?>
<!-- Generator: Adobe Illustrator 16.0.0, SVG Export Plug-In . SVG Version: 6.00 Build 0)  -->
<!DOCTYPE svg PUBLIC "-//W3C//DTD SVG 1.1//EN" "http://www.w3.org/Graphics/SVG/1.1/DTD/svg11.dtd">
<svg version="1.1" id="Layer_1" xmlns="http://www.w3.org/2000/svg" xmlns:xlink="http://www.w3.org/1999/xlink" x="0px" y="0px"
	 width="85px" height="85px" viewBox="0 0 85 85" enable-background="new 0 0 85 85" xml:space="preserve">
<g>
	<path d="M79.531,82.5c-23.386,0-46.771,0-70.156,0c-1.223-0.296-1.794-0.9-1.885-2.299c-0.118-1.814-0.097-3.638-0.002-5.455
		c0.05-0.965,0.447-1.761,1.36-2.212c0.405-0.2,0.372-0.424,0.088-0.715c-0.454-0.465-0.965-0.866-1.393-1.362
		c-1.209-1.402-1.767-3.038-1.818-4.864c-0.017-0.571-0.014-1.144,0.005-1.716c0.022-0.674,0.277-1.208,0.919-1.507
		c1.29-0.164,1.805,0.262,1.836,1.53c0.015,0.57-0.019,1.143,0.011,1.712c0.066,1.288,0.471,2.43,1.444,3.336
		c1.008,0.938,1.982,1.908,2.568,3.186c0.187,0.19,0.43,0.162,0.66,0.162c2.831,0.003,5.663,0.003,8.494,0.001
		c0.377,0,0.734-0.01,0.872-0.468c0.474-1.577,1.479-2.8,2.71-3.824c1.359-1.133,2.565-2.424,3.856-3.626
		c1.594-1.485,3.209-2.954,4.729-4.521c0.204-0.21,0.553-0.397,0.38-0.771c-0.145-0.315-0.485-0.364-0.795-0.414
		c-0.34-0.056-0.673-0.011-0.998,0.099c-0.646,0.213-1.067,0.718-1.528,1.17c-0.37,0.363-0.732,0.734-1.101,1.099
		c-1.538,1.52-3.239,1.371-4.544-0.394c-0.342-0.536-0.328-1.137-0.328-1.736c-0.001-4.651,0-9.303-0.001-13.955
		c0-0.415,0.031-0.837-0.098-1.239c-0.183-0.568-0.504-0.969-1.186-0.85c-0.706,0.311-0.737,0.932-0.737,1.574
		c0.001,3.399,0.001,6.8,0,10.199c0,0.312,0.01,0.624-0.02,0.935c-0.085,0.881-0.584,1.453-1.303,1.5
		c-0.739,0.049-1.255-0.405-1.475-1.297c-0.065-4.703-0.012-9.408-0.029-14.112c-0.002-0.363,0.021-0.729-0.046-1.089
		c-0.141-0.745-0.554-0.995-1.347-0.827c-0.647,0.389-0.616,1.036-0.617,1.658c-0.008,3.813-0.003,7.628-0.004,11.442
		c-0.001,0.856,0.015,1.713-0.007,2.568c-0.027,1.067-0.433,1.592-1.254,1.659c-0.811,0.066-1.272-0.364-1.528-1.418
		c-0.083-3.607-0.015-7.217-0.037-10.826c-0.003-0.337,0.019-0.677-0.027-1.012c-0.099-0.735-0.407-0.97-1.218-0.94
		c-0.626,0.319-0.618,0.905-0.618,1.48c-0.005,3.423-0.002,6.846-0.003,10.269c-0.001,0.362,0.015,0.728-0.057,1.086
		c-0.144,0.723-0.63,1.222-1.265,1.306c-0.619,0.082-1.109-0.269-1.448-1.035c-0.101-2.471-0.02-4.942-0.047-7.415
		c-0.004-0.363,0.044-0.742-0.114-1.078c-0.231-0.492-0.54-0.907-1.194-0.712c-0.671,0.343-0.715,0.964-0.716,1.604
		c-0.003,2.883,0,5.765-0.001,8.647c0,0.26,0.005,0.52-0.005,0.779c-0.045,1.217-0.468,1.615-1.686,1.592
		c-0.756-0.229-1.086-0.795-1.093-1.532c-0.029-3.463-0.086-6.928,0.019-10.389c0.065-2.154,1.889-3.711,4.032-3.584
		c0.533,0.031,0.728-0.093,0.803-0.636c0.277-2.002,1.979-3.395,3.998-3.278c0.499,0.028,0.735-0.091,0.917-0.579
		c0.641-1.725,1.896-2.601,3.596-2.591c1.674,0.009,2.95,0.93,3.59,2.621c0.144,0.382,0.298,0.64,0.773,0.572
		c1.939-0.278,4.155,1.292,4.236,4c0.055,1.822,0.008,3.646,0.017,5.469c0.004,1.026,0.052,1.055,0.999,0.711
		c1.396-0.507,2.771-1.065,4.172-1.557c0.58-0.203,0.929-0.583,1.241-1.103c0.787-1.312,0.86-2.385-0.284-3.664
		c-1.296-1.449-1.897-3.344-2.146-5.287c-0.086-0.669-0.354-0.905-0.998-0.866c-2.443,0.15-5.268-1.785-5.991-4.508
		c-0.688-2.584-0.177-4.928,1.914-6.738c0.618-0.535,0.833-1.1,0.827-1.891c-0.028-4.166-0.016-8.333-0.013-12.499
		c0.004-3.965,2.482-7.604,6.151-9.098c0.762-0.31,1.567-0.307,2.347-0.479c4.479,0,8.958,0,13.437,0
		c1.622,0.077,3.091,0.583,4.411,1.534c0.404,0.291,0.8,0.591,1.117,0.97c0.477,0.568,1.062,0.76,1.793,0.731
		c1.722-0.066,3.437-0.024,5.06,0.68c3.951,1.715,5.949,4.788,6.26,9.023c0.044,0.595,0.042,1.197-0.014,1.794
		c-0.076,0.813-0.461,1.212-1.307,1.409c-1.066-0.121-1.414-0.476-1.436-1.546c-0.02-0.988-0.013-1.973-0.205-2.951
		c-0.633-3.209-3.624-5.683-6.852-5.644c-0.773,0.01-0.808,0.045-0.578,0.806c0.396,1.314,0.434,2.661,0.41,4.019
		c-0.017,0.988,0.014,1.978-0.009,2.965c-0.014,0.581,0.181,0.822,0.803,0.85c2.73,0.117,4.931,2.41,4.981,5.136
		c0.012,0.624,0.004,1.249,0.005,1.873c0.001,0.474,0.248,0.629,0.689,0.634c0.467,0.007,0.752-0.134,0.744-0.656
		c-0.006-0.39-0.012-0.781,0.011-1.171c0.057-0.965,0.386-1.303,1.385-1.438c0.878,0.171,1.288,0.589,1.355,1.439
		c0.053,0.674,0.032,1.353,0.014,2.028c-0.016,0.567,0.203,0.96,0.634,1.339c1.907,1.68,2.732,3.793,2.183,6.299
		c-0.575,2.628-2.269,4.255-4.854,4.964c-0.406,0.111-0.825,0.158-1.238,0.113c-0.7-0.076-0.974,0.243-1.052,0.909
		c-0.168,1.438-0.678,2.771-1.345,4.051c-0.437,0.838-0.954,1.615-1.615,2.285c-0.369,0.374-0.424,0.729-0.179,1.185
		c0.296,0.55,0.587,1.104,0.833,1.678c0.222,0.516,0.688,0.686,1.152,0.854c3.645,1.318,7.264,2.706,10.892,4.07
		c1.216,0.457,2.461,0.842,3.629,1.427c2.699,1.353,4.369,3.547,5.187,6.411c0.213,0.748,0.191,1.543,0.18,2.324
		c0,5.164-0.001,10.326,0.004,15.488c0,0.279-0.076,0.571,0.077,0.839c0,0.052,0,0.104,0,0.156
		c-0.175,0.635-0.239,1.298-0.706,1.838C81.184,81.92,80.494,82.439,79.531,82.5z"/>
	<path fill-rule="evenodd" clip-rule="evenodd" fill="#E3E3E3" d="M2.628,22.348l-0.063,0.006L2.5,22.344c0-0.364,0-0.729,0-1.094
		c0.043-0.008,0.087-0.009,0.131-0.003C2.948,21.614,2.95,21.981,2.628,22.348z"/>
	<path fill-rule="evenodd" clip-rule="evenodd" fill="#FECDBE" d="M51.872,46.431c-3.374,0.04-6.774,0.394-10.112-0.189
		c-4.172-0.729-7.363-4.355-7.545-8.586c-0.167-3.895-0.065-7.801-0.079-11.702c-0.004-1.171-0.032-2.343,0.014-3.512
		c0.066-1.669,1.167-2.799,2.831-2.806c6.424-0.026,12.85-0.008,19.274-0.005c0.05,0,0.101,0.024,0.15,0.038
		c0.872,0.516,1.109,1.388,1.256,2.294c0.097,0.599-0.366,0.724-0.803,0.847c-1.771,0.43-3.585,0.631-5.369,0.988
		c-0.333,0.067-0.671,0.11-0.946,0.331c-0.279,0.226-0.468,0.503-0.372,0.879c0.091,0.357,0.337,0.582,0.696,0.663
		c0.389,0.087,0.776,0.034,1.162-0.033c1.46-0.258,2.918-0.523,4.383-0.755c0.334-0.052,0.667-0.132,0.998,0.018
		c0.333,0.227,0.31,0.582,0.31,0.915c0.009,3.873,0.121,7.751-0.031,11.619c-0.14,3.552-1.79,6.4-4.693,8.5
		C52.646,46.188,52.221,46.209,51.872,46.431z"/>
	<path fill-rule="evenodd" clip-rule="evenodd" fill="#FECDBE" d="M6.737,62.477c0.311-0.164,0.486-0.374,0.453-0.773
		c-0.046-0.559-0.046-1.127,0-1.687c0.033-0.398-0.142-0.609-0.452-0.773c1.162,0.056,1.553-0.307,1.554-1.471
		c0.003-3.274,0-6.548,0-9.822c0-0.669,0.139-1.247,0.92-1.406C9.8,46.945,9.744,47.58,9.754,48.16
		c0.029,1.768,0.024,3.536,0.004,5.304c-0.01,0.805-0.002,1.569,0.796,2.053c0.139,0.085,0.139,0.272,0.2,0.413
		c0.235,0.631,0.667,1.026,1.359,0.892c0.768-0.149,0.989-0.733,0.988-1.461c-0.008-3.766-0.003-7.531-0.004-11.297
		c-0.001-0.625,0.067-1.204,0.809-1.398c0.613,0.46,0.525,1.155,0.538,1.778c0.04,1.919,0.014,3.84,0.015,5.76
		c0.001,1.09,0.047,2.182-0.014,3.268c-0.053,0.938,0.156,1.688,1.025,2.157c0.054,0.2,0.082,0.412,0.167,0.599
		c0.229,0.508,0.64,0.737,1.192,0.676c0.557-0.062,0.904-0.378,0.994-0.931c0.045-0.279,0.033-0.57,0.033-0.855
		c0.002-4.704,0-9.408,0.002-14.112c0-0.604-0.006-1.216,0.688-1.506c0.416-0.029,0.509,0.289,0.608,0.582
		c0.161,0.475,0.149,0.971,0.149,1.464c0.001,3.993,0.023,7.986-0.016,11.979c-0.01,0.949,0.138,1.738,0.998,2.26
		c0.266,0.891,0.698,1.231,1.409,1.112c0.645-0.108,0.957-0.578,0.958-1.471c0.002-3.799,0.001-7.598,0-11.396
		c0-0.673,0.143-1.248,0.933-1.39c0.553,0.485,0.518,1.168,0.55,1.8c0.057,1.114,0.018,2.231,0.019,3.348
		c0.001,3.529,0.002,7.059-0.002,10.588c0,0.412,0.044,0.834-0.153,1.222c-0.124,0.172-0.296,0.192-0.483,0.132
		c-2.305-0.743-5.336,1.009-6.449,3.153c-0.475,0.912-0.812,1.853-0.771,2.9c0.03,0.782,0.286,1.146,0.847,1.173
		c0.584,0.028,0.993-0.356,1.061-1.104c0.087-0.953,0.338-1.824,0.933-2.596c0.77-0.998,1.749-1.594,3.006-1.751
		c0.608-0.076,1.273-0.079,1.6-0.766c0.157-0.589,0.458-0.756,0.997-0.374c0.229,0.161,0.526,0.218,0.751,0.402
		c1.44,1.498,2.803,1.511,4.285,0.039c0.608-0.604,1.212-1.212,1.83-1.806c0.203-0.194,0.429-0.379,0.734-0.398
		c0.393,0.642,0.047,1.146-0.336,1.615c-0.512,0.628-1.184,1.093-1.769,1.646c-0.982,0.931-1.967,1.861-2.933,2.805
		c-1.787,1.746-3.672,3.39-5.401,5.195c-0.563,0.589-1.105,1.176-1.343,1.979c-0.117,0.394-0.361,0.586-0.804,0.583
		c-2.396-0.016-4.79-0.005-7.186-0.008c-0.081,0-0.151-0.026-0.217-0.071c-0.561-1.249-1.415-2.252-2.462-3.136
		c-1.083-0.913-1.568-2.155-1.595-3.569c-0.01-0.57,0.001-1.14-0.002-1.709C8.286,62.779,7.899,62.419,6.737,62.477z"/>
	<path fill-rule="evenodd" clip-rule="evenodd" fill="#554E56" d="M42.667,17.314c-3.955,0-7.91-0.015-11.865,0.015
		c-0.655,0.005-0.843-0.184-0.823-0.831c0.047-1.508,0.004-3.018,0.02-4.527c0.041-3.866,3.256-7.092,7.13-7.119
		c3.721-0.025,7.442-0.024,11.163,0c3.912,0.024,7.132,3.258,7.173,7.171c0.016,1.509-0.027,3.02,0.02,4.527
		c0.02,0.633-0.19,0.781-0.794,0.777C50.682,17.303,46.675,17.314,42.667,17.314z"/>
	<path fill-rule="evenodd" clip-rule="evenodd" fill="#0055A2" d="M77.023,80.133c-6.922,0.002-13.844,0.004-20.766,0.006
		c-0.025,0-0.05-0.012-0.089-0.021c-0.074-0.332,0.203-0.512,0.354-0.727c2.745-3.889,5.503-7.768,8.253-11.652
		c0.956-1.351,0.729-2.477-0.661-3.345c-0.768-0.48-1.534-0.964-2.28-1.614c0.911,0,1.821-0.005,2.731,0.001
		c0.526,0.004,1.045-0.038,1.513-0.298c0.881-0.487,1.207-1.584,0.755-2.581c-0.719-1.585-1.457-3.161-2.188-4.742
		c0.319-0.268,0.647-0.112,0.957,0.006c2.117,0.804,4.282,1.493,6.346,2.424c3.285,1.481,5.148,4.102,5.268,7.683
		c0.154,4.655,0.039,9.319,0.036,13.98C77.253,79.562,77.271,79.883,77.023,80.133z"/>
	<path fill-rule="evenodd" clip-rule="evenodd" fill="#004280" d="M77.023,80.133c0.002-4.966,0.09-9.933-0.022-14.896
		c-0.076-3.368-2.095-6.166-5.144-7.438c-2.08-0.866-4.202-1.632-6.31-2.432c-0.286-0.109-0.576-0.249-0.901-0.208
		c-0.545-1.116-1.089-2.231-1.634-3.349c0.305-0.168,0.54-0.069,0.784,0.023c3.885,1.465,7.78,2.902,11.653,4.398
		c2.718,1.05,4.541,3.749,4.552,6.673c0.018,5.277,0.008,10.555,0.005,15.833c0,0.99-0.422,1.404-1.425,1.415
		C78.063,80.16,77.543,80.141,77.023,80.133z"/>
	<path fill-rule="evenodd" clip-rule="evenodd" fill="#0055A2" d="M39.306,80.157c-0.631,0-1.219,0-1.807,0
		c-3.099,0-6.197-0.014-9.296,0.012c-0.566,0.005-0.773-0.126-0.755-0.73c0.044-1.457,0.026-2.916,0.011-4.374
		c-0.018-1.609-0.531-2.242-2.103-2.566c-0.314-0.065-0.319-0.171-0.216-0.406c0.201-0.458,0.459-0.88,0.819-1.226
		c1.238-1.19,2.487-2.37,3.729-3.559c0.225-0.215,0.389-0.391,0.659-0.006c2.947,4.193,5.91,8.376,8.865,12.563
		C39.253,79.922,39.259,80.003,39.306,80.157z"/>
	<path fill-rule="evenodd" clip-rule="evenodd" fill="#FEAF9D" d="M56.879,22.617c0.518-0.142,0.707-0.38,0.537-0.981
		c-0.21-0.739-0.566-1.366-1.011-1.967c0.777-0.091,1.559-0.081,2.334-0.012c1.385,0.124,2.498,1.248,2.504,2.633
		c0.022,5.124,0.113,10.251-0.034,15.371c-0.139,4.797-4.714,8.965-9.337,8.77c1.31-0.886,2.563-1.825,3.509-3.129
		c1.332-1.838,2.079-3.884,2.106-6.143c0.045-3.767,0.015-7.533,0.007-11.3c0-0.297,0.117-0.632-0.173-0.878
		c0.005-0.265,0.237-0.314,0.405-0.414c0.378-0.222,0.537-0.547,0.477-0.974c-0.064-0.451-0.373-0.647-0.79-0.728
		C57.218,22.828,56.992,22.838,56.879,22.617z"/>
	<path fill-rule="evenodd" clip-rule="evenodd" fill="#433F43" d="M66.76,18.47c-0.286,1.072-0.286,2.145,0.001,3.217
		c-1.04,0.093-1.294,0.369-1.304,1.423c-0.001,0.234,0,0.469,0,0.703c0,1.218-0.308,1.447-1.521,1.194
		c-0.328-0.067-0.337-0.264-0.337-0.505c-0.002-0.702,0.002-1.405-0.004-2.108c-0.024-2.781-2.208-5.027-4.968-5.051
		c-0.64-0.006-0.827-0.175-0.834-0.829c-0.021-1.999,0.169-4.004-0.128-5.998c-0.107-0.723-0.321-1.41-0.63-2.166
		c1.76-0.23,3.347,0.073,4.807,0.95c2.412,1.449,3.52,3.656,3.612,6.42c0.015,0.442-0.001,0.885,0.003,1.327
		C65.466,18.105,65.717,18.378,66.76,18.47z"/>
	<path fill-rule="evenodd" clip-rule="evenodd" fill="#0573CD" d="M17.58,80.157c-2.288,0-4.578-0.015-6.866,0.011
		c-0.502,0.005-0.682-0.121-0.669-0.646c0.033-1.352,0.024-2.705,0.004-4.058c-0.007-0.439,0.073-0.65,0.59-0.648
		c4.63,0.018,9.26,0.019,13.89,0c0.52-0.002,0.593,0.214,0.587,0.651c-0.021,1.353-0.03,2.705,0.004,4.058
		c0.014,0.53-0.176,0.647-0.672,0.642C22.158,80.144,19.869,80.157,17.58,80.157z"/>
	<path fill-rule="evenodd" clip-rule="evenodd" fill="#0573CD" d="M43.898,80.13c-0.051,0.007-0.103,0.012-0.154,0.022
		c-1.044,0.208-1.672-0.236-2.275-1.114C38.685,74.991,35.83,70.992,32.966,67c-0.385-0.536-0.289-0.756,0.23-1.042
		c0.817-0.449,1.604-0.955,2.402-1.438c0.933-0.337,1.899-0.246,2.848-0.158c0.809,0.075,1.378,0.546,1.607,1.373
		c1.054,3.8,2.159,7.585,3.197,11.39c0.185,0.676,0.431,1.334,0.585,2.018C43.909,79.467,44.051,79.79,43.898,80.13z"/>
	<path fill-rule="evenodd" clip-rule="evenodd" fill="#0573CD" d="M50.311,80.13c-0.311,0-0.62,0-1.045,0
		c0.352-1.247,0.691-2.454,1.032-3.661c1.198-4.252,2.396-8.504,3.597-12.755c0.041-0.147,0.109-0.288,0.165-0.433
		c0.245-0.192,0.447-0.025,0.637,0.096c1.163,0.738,2.36,1.426,3.488,2.219c1.204,0.847,1.366,1.626,0.541,2.83
		c-2.573,3.753-5.269,7.421-7.86,11.162C50.715,79.806,50.521,79.976,50.311,80.13z"/>
	<path fill-rule="evenodd" clip-rule="evenodd" fill="#0067C4" d="M50.311,80.13c1.124-1.831,2.437-3.531,3.672-5.285
		c1.61-2.288,3.227-4.574,4.818-6.876c0.521-0.753,0.309-1.519-0.581-2.124c-0.943-0.643-1.907-1.256-2.89-1.836
		c-0.419-0.247-0.764-0.633-1.271-0.728c-0.038-0.434,0.215-0.489,0.58-0.518c1.541-0.119,2.949,0.083,4.238,1.09
		c1.06,0.827,2.27,1.466,3.428,2.162c0.399,0.24,0.548,0.402,0.214,0.868c-3.054,4.273-6.08,8.567-9.108,12.858
		c-0.194,0.275-0.396,0.438-0.762,0.423C51.871,80.13,51.09,80.139,50.311,80.13z"/>
	<path fill-rule="evenodd" clip-rule="evenodd" fill="#D7A95E" d="M50.016,68.632c-0.743,2.723-1.486,5.444-2.23,8.167
		c-0.044,0.004-0.087,0.009-0.131,0.013c-0.321-1.141-0.642-2.281-0.964-3.422c-0.788-2.793-1.574-5.587-2.369-8.378
		c-0.086-0.304-0.187-0.597-0.066-0.91c0.721-1.887,1.442-3.772,2.163-5.659c0.355,0.009,0.379,0.318,0.46,0.543
		c1.021,2.862,2.093,5.708,3.087,8.58C50.087,67.918,50.127,68.271,50.016,68.632z"/>
	<path fill-rule="evenodd" clip-rule="evenodd" fill="#0067C4" d="M43.898,80.13c-0.881-3.103-1.768-6.204-2.643-9.309
		c-0.49-1.739-0.944-3.488-1.452-5.222c-0.218-0.743-0.84-1.031-1.56-1.06c-0.881-0.036-1.764-0.016-2.646-0.02
		c0.805-0.521,1.57-1.121,2.425-1.541c0.963-0.474,2.041-0.152,3.066-0.176c0.229-0.005,0.257,0.289,0.312,0.488
		c1.524,5.419,3.042,10.84,4.584,16.254c0.141,0.496,0.077,0.658-0.452,0.618C44.991,80.123,44.444,80.139,43.898,80.13z"/>
	<path fill-rule="evenodd" clip-rule="evenodd" fill="#0572CD" d="M54.989,59.978c0.796-2.858,1.592-5.717,2.389-8.575
		c0.488-0.395,0.568,0.134,0.67,0.354c0.446,0.969,0.936,1.916,1.374,2.888c0.704,1.563,1.478,3.096,2.189,4.656
		c0.097,0.213,0.21,0.419,0.271,0.646c0.078,0.284,0.012,0.444-0.324,0.443c-2.079-0.004-4.159-0.001-6.239-0.003
		C55.045,60.387,54.835,60.327,54.989,59.978z"/>
	<path fill-rule="evenodd" clip-rule="evenodd" fill="#F7947F" d="M63.604,31.265c0-1.116,0-2.232,0-3.349
		c0-0.282-0.051-0.53,0.401-0.573c2.08-0.197,3.986,1.2,4.385,3.263c0.374,1.932-0.848,3.881-2.791,4.454
		c-0.024,0.007-0.048,0.019-0.073,0.025c-1.646,0.449-1.922,0.248-1.922-1.406C63.604,32.874,63.604,32.069,63.604,31.265z"/>
	<path fill-rule="evenodd" clip-rule="evenodd" fill="#FEAF9D" d="M12.353,72.348c2.369-0.002,4.737-0.019,7.105,0.006
		c0.523,0.006,0.831-0.126,0.951-0.663c0.141-0.626,0.506-1.137,0.96-1.576c2.972-2.87,5.946-5.738,8.925-8.602
		c0.43-0.412,0.88-0.806,1.337-1.188c0.544-0.454,0.765-1.028,0.709-1.723c0.433-0.281,0.904-0.208,1.357-0.107
		c0.382,0.084,0.817,0.237,0.955,0.606c0.158,0.426-0.341,0.586-0.58,0.815c-3.103,2.968-6.213,5.928-9.34,8.869
		c-0.972,0.914-1.709,1.956-2.044,3.252c-0.076,0.295-0.157,0.449-0.495,0.448c-3.227-0.009-6.453-0.004-9.68-0.011
		C12.46,72.476,12.406,72.393,12.353,72.348z"/>
	<path fill-rule="evenodd" clip-rule="evenodd" fill="#FEAF9D" d="M31.79,31.315c0,1.118-0.014,2.237,0.007,3.355
		c0.007,0.394-0.103,0.529-0.52,0.547c-2.414,0.104-4.304-1.602-4.305-3.924c-0.002-2.314,1.891-4.039,4.295-3.949
		c0.41,0.016,0.537,0.136,0.529,0.537C31.776,29.026,31.79,30.171,31.79,31.315z"/>
	<path fill-rule="evenodd" clip-rule="evenodd" fill="#0067C4" d="M54.989,59.978c0.039,0.316,0.265,0.333,0.514,0.332
		c1.867-0.002,3.734-0.001,5.602-0.001c0.205,0,0.411,0,0.713,0c-0.409-0.909-0.775-1.754-1.167-2.587
		c-0.923-1.968-1.853-3.934-2.797-5.892c-0.088-0.181-0.053-0.586-0.476-0.428c0.327-1.189,0.655-2.38,0.983-3.573
		c0.299,0.074,0.317,0.277,0.388,0.427c1.812,3.827,3.612,7.659,5.434,11.48c0.255,0.533,0.213,0.708-0.43,0.702
		c-2.783-0.022-5.566-0.005-8.349-0.009C55.129,60.43,54.672,60.545,54.989,59.978z"/>
	<path fill-rule="evenodd" clip-rule="evenodd" fill="#C89B56" d="M50.016,68.632c-0.074-0.917-0.507-1.727-0.8-2.574
		c-0.858-2.486-1.771-4.955-2.666-7.429c-0.024-0.069-0.087-0.125-0.132-0.187c0.096-0.294,0.221-0.582,0.28-0.883
		c0.137-0.685,0.521-0.888,1.211-0.847c0.491,0.028,0.667,0.222,0.813,0.633c0.771,2.177,1.562,4.347,2.354,6.516
		c0.128,0.352,0.162,0.674,0.043,1.05C50.728,66.144,50.38,67.391,50.016,68.632z"/>
	<path fill-rule="evenodd" clip-rule="evenodd" fill="#FCAE9D" d="M25.49,60.768c-0.505,0.015-0.93-0.181-1.315-0.527
		c-0.083,0.193-0.157,0.366-0.23,0.538c-0.326-0.308-0.297-0.686-0.216-1.074c0.272-0.221,0.169-0.529,0.169-0.802
		c0.007-4.785,0.002-9.57,0.008-14.355c0.001-0.657-0.178-1.277-0.317-1.907c0.786-0.14,1.287,0.138,1.453,0.849
		c0.069,0.298,0.066,0.617,0.067,0.927c0.003,4.8,0.008,9.599-0.004,14.398C25.103,59.498,25.17,60.153,25.49,60.768z"/>
	<path fill-rule="evenodd" clip-rule="evenodd" fill="#0067C4" d="M35.646,50.314c0.395-0.867,0.788-1.735,1.286-2.831
		c0.41,1.444,0.759,2.663,1.103,3.882c0.782,2.768,1.55,5.54,2.352,8.302c0.166,0.571,0.1,0.831-0.558,0.766
		c-0.967-0.097-1.95,0.165-2.911-0.122c0.178-0.188,0.414-0.183,0.646-0.205c0.787-0.074,0.824-0.119,0.603-0.91
		c-0.491-1.742-0.999-3.48-1.476-5.227C36.358,52.746,36.002,51.531,35.646,50.314z"/>
	<path fill-rule="evenodd" clip-rule="evenodd" fill="#0572CD" d="M35.646,50.314c0.549,0.223,0.43,0.78,0.549,1.188
		c0.779,2.669,1.494,5.356,2.282,8.023c0.203,0.688-0.012,0.837-0.629,0.787c-0.309-0.024-0.62-0.003-0.931-0.003
		c0.608-2.08-0.508-3.911-3.994-4.324C33.841,54.076,34.744,52.195,35.646,50.314z"/>
	<path fill-rule="evenodd" clip-rule="evenodd" fill="#FEAF9D" d="M20.288,55.783c-0.979-0.195-1.228-0.483-1.228-1.447
		c-0.002-4.407,0.005-8.814-0.008-13.222c-0.002-0.577,0.055-1.2-0.505-1.615c1.017-0.341,1.753,0.095,1.755,1.115
		C20.313,45.67,20.296,50.727,20.288,55.783z"/>
	<path fill-rule="evenodd" clip-rule="evenodd" fill="#0055A2" d="M32.436,51.553c-1.009,2.133-1.894,4.07-2.841,5.978
		c-0.374,0.752-1.116,1.221-1.688,1.821c-0.238,0.249-0.43,0.183-0.431-0.175c-0.008-1.821-0.004-3.644-0.005-5.465
		c0-0.199,0.067-0.345,0.272-0.42C29.246,52.738,30.746,52.18,32.436,51.553z"/>
	<path fill-rule="evenodd" clip-rule="evenodd" fill="#FEAF9D" d="M15.471,55.628c-0.885-0.072-1.252-0.449-1.253-1.321
		c-0.005-3.273-0.005-6.547,0-9.82c0.001-0.628-0.101-1.232-0.312-1.821c0.981-0.26,1.593,0.199,1.602,1.261
		c0.019,2.107,0.012,4.215,0.005,6.321C15.507,52.041,15.485,53.834,15.471,55.628z"/>
	<path fill-rule="evenodd" clip-rule="evenodd" fill="#FDFDFD" d="M43.069,60.568c-0.516-1.821-0.938-3.457-1.451-5.063
		c-0.214-0.668-0.143-1.043,0.478-1.454c0.578-0.384,0.814-0.355,1.363,0.129c1.261,1.115,1.485,2.227,0.647,3.688
		C43.664,58.641,43.452,59.546,43.069,60.568z"/>
	<path fill-rule="evenodd" clip-rule="evenodd" fill="#FDFDFD" d="M52.261,60.268c-0.493-1.361-0.988-2.722-1.479-4.084
		c-0.042-0.116-0.119-0.297-0.069-0.357c0.588-0.726,1.157-1.474,1.822-2.123c0.221-0.216,0.492,0.252,0.758,0.375
		c0.613,0.282,0.73,0.677,0.507,1.357c-0.521,1.589-0.924,3.217-1.375,4.829C52.37,60.266,52.315,60.267,52.261,60.268z"/>
	<path fill-rule="evenodd" clip-rule="evenodd" fill="#FCAE9C" d="M10.754,55.93c-0.141-0.104-0.232-0.248-0.412-0.33
		c-0.561-0.255-0.838-0.675-0.826-1.343c0.035-1.992,0.004-3.985,0.019-5.979c0.004-0.604-0.098-1.178-0.322-1.734
		c0.973-0.188,1.533,0.285,1.539,1.362C10.764,50.58,10.754,53.255,10.754,55.93z"/>
	<path fill-rule="evenodd" clip-rule="evenodd" fill="#F7F1EF" d="M55.869,48.046c-0.422,1.483-0.793,2.791-1.179,4.149
		c-1.553-1.099-3.03-2.144-4.711-3.332C52.058,48.832,53.938,48.844,55.869,48.046z"/>
	<path fill-rule="evenodd" clip-rule="evenodd" fill="#F7F1EF" d="M39.539,48.053c1.917,0.773,3.795,0.801,5.915,0.794
		c-1.691,1.197-3.177,2.248-4.74,3.354C40.322,50.819,39.954,49.521,39.539,48.053z"/>
	<path fill-rule="evenodd" clip-rule="evenodd" fill="#685E68" d="M29.992,22.306c0-0.703,0.015-1.406-0.006-2.108
		c-0.012-0.394,0.112-0.574,0.53-0.554c0.52,0.024,1.041,0.006,1.562,0.007c0.266,0,0.504,0.03,0.313,0.39
		c-0.716,1.351-0.672,2.82-0.615,4.271c0.038,0.985-0.632,0.623-1.097,0.703c-0.553,0.094-0.733-0.131-0.698-0.68
		C30.024,23.661,29.991,22.982,29.992,22.306z"/>
	<path fill-rule="evenodd" clip-rule="evenodd" fill="#D7A95D" d="M46.862,50.776c0.524-0.658,1.041-0.649,1.669-0.088
		c0.519,0.465,1.123,0.836,1.709,1.22c0.328,0.216,0.428,0.392,0.099,0.696c-0.245,0.229-0.505,0.477-0.653,0.769
		c-0.611,1.208-1.696,1.06-2.755,1.022c-0.241-0.009-0.377-0.142-0.478-0.337c0.123-0.286,0.334-0.512,0.527-0.749
		c0.653-0.805,0.666-1.326,0.047-2.195C46.952,51.01,46.876,50.909,46.862,50.776z"/>
	<path fill-rule="evenodd" clip-rule="evenodd" fill="#E7B564" d="M46.862,50.776c1.016,0.793,1.125,1.689,0.28,2.613
		c-0.214,0.232-0.271,0.646-0.689,0.669c-0.447-0.495-0.884-1.001-1.346-1.481c-0.24-0.251-0.32-0.422,0.036-0.645
		C45.729,51.566,46.29,51.163,46.862,50.776z"/>
	<path fill-rule="evenodd" clip-rule="evenodd" d="M2.628,22.348c0.001-0.367,0.002-0.733,0.003-1.101
		c0.581-5.624,4.12-9.54,9.533-10.55c5.941-1.109,12.102,3.279,12.995,9.258c0.865,5.781-2.129,10.75-7.676,12.721
		c-0.312,0.111-0.524,0.28-0.685,0.575c-0.37,0.686-0.758,1.362-1.169,2.023c-0.885,1.422-2.605,1.413-3.5-0.008
		c-0.056-0.088-0.114-0.175-0.156-0.269c-0.643-1.438-1.551-2.514-3.159-3.034C7.601,31.571,7.48,31.058,7.819,30
		c0.251-0.708,0.822-0.779,1.388-0.562c0.937,0.36,1.859,0.762,2.797,1.128c0.349,0.137,0.572,0.43,0.774,0.734
		c0.294,0.46,0.54,0.947,0.813,1.42c0.207,0.356,0.416,0.43,0.568,0.018c0.601-1.622,1.945-2.197,3.43-2.853
		c5.533-2.444,6.875-9.511,2.919-13.852c-1.734-1.901-3.859-2.95-6.48-2.856c-5.707-0.334-10.784,5.893-8.09,12.27
		c0.121,0.287,0.271,0.563,0.354,0.866c0.185,0.68,0,1.088-0.658,1.465c-1.009,0.24-1.351,0.085-1.806-0.814
		C3.095,25.512,2.735,23.963,2.628,22.348z"/>
	<path fill-rule="evenodd" clip-rule="evenodd" fill="#FD7C43" d="M5.635,27.778c0.707-0.603,0.588-1.253,0.226-2.016
		c-2.797-5.895,1.417-12.736,7.891-12.841c0.103-0.001,0.205,0.021,0.308,0.032c1.502,0.785,2.375,2.141,3.198,3.539
		c0.092,0.156,0.101,0.343,0.068,0.525c-0.78,1.218-1.912,2.105-2.937,3.092c-0.354,0.341-0.729,0.123-1.032-0.17
		c-0.748-0.723-1.474-1.469-2.212-2.201c-0.167-0.164-0.324-0.339-0.513-0.479c-0.411-0.308-0.836-0.29-1.217,0.029
		c-0.369,0.31-0.372,0.722-0.191,1.14c0.116,0.268,0.329,0.465,0.531,0.668c0.679,0.683,1.365,1.356,2.039,2.044
		c0.694,0.708,0.698,0.913,0.018,1.607c-0.691,0.706-1.396,1.398-2.094,2.099c-0.146,0.146-0.303,0.287-0.422,0.459
		c-0.275,0.397-0.234,0.788,0.065,1.146c0.285,0.342,0.646,0.407,1.054,0.228c0.341-0.15,0.609-0.394,0.868-0.651
		c0.72-0.715,1.429-1.44,2.156-2.147c0.284-0.276,0.591-0.467,0.945-0.124c0.953,0.922,1.919,1.831,2.795,2.828
		c0.068,0.079,0.094,0.185,0.107,0.289c-0.493,1.317-1.389,2.341-2.42,3.252c-0.442,0.391-0.896,0.784-1.42,1.072
		c-0.245,0.134-0.48,0.322-0.793,0.21c-0.308-0.479-0.733-0.776-1.294-0.906c-0.583-0.136-1.138-0.371-1.646-0.681
		C9.021,29.399,8.4,29.405,7.819,30C6.98,29.368,6.29,28.591,5.635,27.778z"/>
	<path fill-rule="evenodd" clip-rule="evenodd" d="M47.651,44.999c-1.066,0-2.133,0.019-3.198-0.004
		c-1.938-0.041-3.469-1.582-3.489-3.482c-0.021-1.921,1.538-3.516,3.51-3.537c2.158-0.024,4.317-0.025,6.476,0.001
		c1.953,0.023,3.452,1.555,3.466,3.479c0.013,1.961-1.495,3.503-3.486,3.54C49.837,45.016,48.744,44.999,47.651,44.999z"/>
	<path fill-rule="evenodd" clip-rule="evenodd" d="M48.887,29.606c-0.002,1.464-0.276,1.887-1.596,2.407
		c-0.664,0.262-1,0.735-0.933,1.443c0.068,0.714,0.511,1.104,1.204,1.226c0.968,0.17,1.438,0.676,1.293,1.39
		c-0.147,0.726-0.79,1.076-1.708,0.931c-1.525-0.241-2.811-1.459-3.083-2.922c-0.306-1.644,0.399-3.229,1.876-4.013
		c0.452-0.24,0.639-0.467,0.617-0.987c-0.034-0.849,0.441-1.371,1.135-1.378c0.688-0.008,1.161,0.53,1.192,1.358
		C48.892,29.243,48.887,29.425,48.887,29.606z"/>
	<path fill-rule="evenodd" clip-rule="evenodd" d="M44.102,25.994c-1.998-0.357-4.119-0.716-6.23-1.125
		c-0.685-0.133-1.01-0.697-0.895-1.326s0.612-1.034,1.309-0.923c2.098,0.334,4.191,0.698,6.279,1.094
		c0.727,0.138,1.066,0.706,0.92,1.376C45.339,25.758,44.872,26.009,44.102,25.994z"/>
	<path fill-rule="evenodd" clip-rule="evenodd" d="M56.879,22.617c1.123-0.017,1.705,0.487,1.556,1.347
		c-0.108,0.628-0.597,0.838-1.113,1.018c-1.789,0.3-3.581,0.589-5.367,0.903c-1.264,0.223-1.932-0.042-2.073-0.865
		c-0.133-0.773,0.398-1.228,1.637-1.442C53.307,23.267,55.092,22.938,56.879,22.617z"/>
	<path fill-rule="evenodd" clip-rule="evenodd" fill="#010101" d="M55.325,28.567c-0.001,0.391,0.015,0.781-0.005,1.17
		c-0.034,0.674-0.425,1.046-1.072,1.124c-0.605,0.074-1.191-0.387-1.236-1.04c-0.057-0.828-0.053-1.664-0.006-2.493
		c0.038-0.674,0.562-1.102,1.194-1.084c0.633,0.017,1.083,0.468,1.121,1.154C55.343,27.787,55.325,28.178,55.325,28.567z"/>
	<path fill-rule="evenodd" clip-rule="evenodd" fill="#010101" d="M42.386,28.542c0,0.415,0.024,0.833-0.005,1.246
		c-0.049,0.678-0.471,1.048-1.115,1.07c-0.61,0.021-1.07-0.312-1.152-0.938c-0.118-0.901-0.119-1.817-0.002-2.718
		c0.086-0.658,0.549-0.995,1.212-0.949c0.625,0.043,0.999,0.415,1.054,1.043c0.035,0.413,0.006,0.83,0.006,1.246
		C42.384,28.542,42.385,28.542,42.386,28.542z"/>
	<path fill-rule="evenodd" clip-rule="evenodd" d="M23.729,59.704c0.203,0.331,0.235,0.698,0.215,1.074
		c-0.219,0.585-0.665,0.795-1.264,0.864c-2.641,0.305-3.981,1.663-4.29,4.301c-0.103,0.876-0.54,1.312-1.271,1.269
		c-0.72-0.044-1.088-0.54-1.062-1.436c0.099-3.503,3.013-6.384,6.54-6.481C23.042,59.282,23.403,59.422,23.729,59.704z"/>
	<path fill-rule="evenodd" clip-rule="evenodd" d="M69.952,76.866c-1.482,0-2.966,0.007-4.448-0.003
		c-0.895-0.006-1.442-0.471-1.436-1.187c0.007-0.717,0.546-1.151,1.458-1.153c2.991-0.004,5.982-0.004,8.974,0
		c0.897,0.002,1.438,0.453,1.434,1.172c-0.006,0.716-0.55,1.163-1.455,1.168C72.97,76.872,71.461,76.866,69.952,76.866z"/>
	<path fill-rule="evenodd" clip-rule="evenodd" fill="#FC6930" d="M17.186,17.012c-0.208-1.087-0.989-1.825-1.647-2.623
		c-0.435-0.526-0.982-0.96-1.479-1.435c4.518-0.162,8.685,3.723,8.903,8.302c0.213,4.475-2.396,8.126-6.706,9.35
		c-0.513,0.146-0.877,0.4-1.131,0.867c-0.372,0.682-0.777,1.345-1.22,2.104c-0.499-0.738-0.913-1.43-1.251-2.168
		c2.033-1.022,3.497-2.609,4.559-4.595c0.167-0.106,0.347-0.068,0.523-0.043c0.469,0.068,0.801-0.127,1.003-0.54
		c0.208-0.427,0.066-0.785-0.232-1.123c-0.262-0.295-0.669-0.52-0.581-1.02c0.401-1.467,0.341-2.944,0.113-4.426
		c-0.033-0.349,0.196-0.569,0.4-0.798c0.349-0.391,0.564-0.829,0.3-1.332c-0.27-0.511-0.746-0.574-1.268-0.456
		C17.371,17.1,17.269,17.091,17.186,17.012z"/>
	<path fill-rule="evenodd" clip-rule="evenodd" d="M17.998,24.212c0.172,0.189,0.332,0.393,0.519,0.567
		c0.498,0.467,0.779,0.999,0.386,1.645c-0.412,0.678-1.025,0.694-1.689,0.39c-0.951-0.958-1.918-1.902-2.847-2.883
		c-0.314-0.333-0.487-0.295-0.781,0.015c-0.788,0.829-1.608,1.626-2.421,2.431c-0.756,0.748-1.406,0.832-1.954,0.265
		c-0.509-0.528-0.414-1.2,0.276-1.897c0.769-0.774,1.515-1.576,2.325-2.304c0.483-0.434,0.403-0.692-0.025-1.089
		c-0.818-0.76-1.593-1.567-2.377-2.364c-0.625-0.636-0.69-1.348-0.187-1.847c0.51-0.507,1.197-0.439,1.846,0.199
		c0.852,0.839,1.701,1.681,2.533,2.539c0.268,0.276,0.444,0.334,0.742,0.021c0.931-0.979,1.893-1.928,2.842-2.888
		c0.65-0.309,1.271-0.333,1.7,0.334c0.406,0.628,0.156,1.175-0.335,1.652c-0.164,0.16-0.309,0.342-0.462,0.513
		c-0.294,0.787-1.026,1.195-1.555,1.778c-0.624,0.686-0.634,0.652,0.012,1.336C17.037,23.146,17.647,23.562,17.998,24.212z"/>
	<path fill-rule="evenodd" clip-rule="evenodd" fill="#FD7C43" d="M49.69,42.631c-1.71,0.008-3.42,0.03-5.13,0.018
		c-0.756-0.006-1.272-0.54-1.247-1.204c0.025-0.639,0.521-1.119,1.248-1.124c1.71-0.012,3.42,0.01,5.129,0.018
		C50.389,41.016,50.389,41.956,49.69,42.631z"/>
	<path fill-rule="evenodd" clip-rule="evenodd" fill="#FC6830" d="M49.69,42.631c0.412-0.764,0.411-1.528,0-2.293
		c0.438-0.006,0.879-0.055,1.311-0.007c0.639,0.07,1.028,0.446,1.06,1.115c0.029,0.631-0.404,1.138-1.061,1.193
		C50.567,42.678,50.127,42.637,49.69,42.631z"/>
	<path fill-rule="evenodd" clip-rule="evenodd" fill="#FC7C42" d="M17.998,24.212c-0.683-0.664-1.356-1.337-2.051-1.988
		c-0.24-0.225-0.269-0.382-0.018-0.618c0.729-0.688,1.44-1.395,2.159-2.095c0.483,1.107,0.432,2.271,0.257,3.413
		C18.28,23.345,18.514,23.898,17.998,24.212z"/>
</g>
</svg>
