<?xml version="1.0" encoding="utf-8"?>
<!-- Generator: Adobe Illustrator 16.0.0, SVG Export Plug-In . SVG Version: 6.00 Build 0)  -->
<!DOCTYPE svg PUBLIC "-//W3C//DTD SVG 1.1//EN" "http://www.w3.org/Graphics/SVG/1.1/DTD/svg11.dtd">
<svg version="1.1" id="Capa_1" xmlns="http://www.w3.org/2000/svg" xmlns:xlink="http://www.w3.org/1999/xlink" x="0px" y="0px"
	 width="85px" height="85px" viewBox="0 0 85 85" enable-background="new 0 0 85 85" xml:space="preserve">
<g>
	<path fill="#FFFFFF" d="M27.584,55.097l-8.512,0.016l-2.926-2.909c-1.662-1.662-4.355-1.662-6.018,0
		c-1.662,1.661-1.662,4.354,0,6.019l1.982,1.979l15.473,3.405V55.097z"/>
	<path fill="#FD7555" d="M44.266,35.011c-11.046,0-20.083,9.038-20.083,20.086v5.105l31.851,3.404V35.009L44.266,35.011z"/>
	<path fill="#FDFA7B" d="M56.033,35.011l-5.107,28.596l24.529-3.405c0.432-1.632,0.662-3.343,0.662-5.104
		C76.117,44.048,67.08,35.011,56.033,35.011z"/>
	<path fill="#FEFDCA" d="M35.948,55.095c0,1.764,0.23,3.475,0.662,5.105c0,0.002,19.423,3.406,19.423,3.406V35.009
		C44.986,35.011,35.948,44.048,35.948,55.095z"/>
	<path fill="#FE9F88" d="M56.033,40.116v23.49l14.08-3.405c0.58-1.595,0.896-3.313,0.896-5.104
		C71.012,46.837,64.291,40.116,56.033,40.116z"/>
	<path fill="#FEC8BB" d="M65.904,55.095c0,1.793-0.209,3.512-0.59,5.105l-9.281,3.404l-14.082-3.402
		c-0.581-1.598-0.896-3.314-0.896-5.107c0-8.259,6.718-14.979,14.978-14.979C61.477,40.116,65.904,46.837,65.904,55.095z"/>
	<path fill="#FFFFFF" d="M56.033,49.989c-2.816,0-5.107,2.289-5.107,5.105c0,2.815,2.291,5.105,5.107,5.105
		c2.814,0,5.105-2.29,5.105-5.105C61.139,52.278,58.848,49.989,56.033,49.989z"/>
	<path fill="#FDCE6E" d="M71.861,62.755l-8.793,11.062h5.105c2.809,0,5.834-2.18,6.721-4.844l2.074-6.22L71.861,62.755
		L71.861,62.755z"/>
	<path fill="#FDFA7B" d="M8.033,62.755l2.073,6.221c0.888,2.664,3.912,4.844,6.721,4.844h46.24c2.811,0,5.834-2.18,6.723-4.844
		l2.072-6.221H8.033z"/>
	<path fill="#FEFDCA" d="M78.67,60.201H6.331c-1.41,0-2.553,1.144-2.553,2.554s1.144,2.553,2.553,2.553H78.67
		c1.41,0,2.555-1.143,2.555-2.553S80.08,60.201,78.67,60.201z"/>
	<path d="M78.67,58.925h-1.625c0.229-1.26,0.35-2.542,0.35-3.828c0-11.779-9.584-21.363-21.361-21.363H44.266
		c-11.352,0-20.662,8.902-21.324,20.091l-3.344,0.01l-2.548-2.532c-1.045-1.047-2.434-1.621-3.911-1.621
		c-1.479,0-2.867,0.574-3.912,1.621c-1.045,1.043-1.621,2.434-1.621,3.91c0,1.387,0.506,2.693,1.432,3.713H6.33
		c-2.11,0-3.83,1.719-3.83,3.83s1.718,3.83,3.83,3.83h1.633l0.931,2.793c1.068,3.206,4.553,5.719,7.933,5.719h51.348
		c3.379,0,6.863-2.513,7.932-5.719l0.932-2.793h1.633c2.113,0,3.83-1.719,3.83-3.83S80.783,58.925,78.67,58.925z M74.842,55.095
		c0,1.291-0.137,2.574-0.398,3.829h-2.615c0.305-1.247,0.461-2.528,0.461-3.829c0-8.964-7.293-16.256-16.256-16.256
		c-3.373,0-6.611,1.029-9.363,2.975c-0.576,0.408-0.713,1.205-0.307,1.781c0.406,0.574,1.203,0.711,1.779,0.305
		c2.318-1.641,5.047-2.506,7.889-2.506c7.557,0,13.703,6.146,13.703,13.703c0,1.305-0.186,2.59-0.547,3.828H42.878
		c-0.362-1.238-0.548-2.523-0.548-3.828c0-2.844,0.867-5.572,2.505-7.892c0.408-0.575,0.271-1.372-0.305-1.778
		c-0.576-0.408-1.371-0.271-1.78,0.305c-1.946,2.752-2.976,5.99-2.976,9.365c0,1.299,0.158,2.58,0.459,3.828h-2.614
		c-0.263-1.255-0.397-2.539-0.397-3.828c0-10.371,8.439-18.81,18.808-18.81C66.402,36.287,74.842,44.724,74.842,55.095z
		 M44.266,36.287h1.646c-6.687,3.612-11.242,10.688-11.242,18.81c0,1.286,0.119,2.568,0.35,3.828h-9.563v-3.828
		C25.457,44.724,33.895,36.287,44.266,36.287z M11.033,57.317c-0.562-0.562-0.872-1.311-0.872-2.105s0.311-1.544,0.873-2.105
		c0.562-0.562,1.311-0.873,2.105-0.873c0.797,0,1.543,0.311,2.109,0.875l2.926,2.91c0.24,0.238,0.564,0.377,0.904,0.371l3.826-0.013
		v2.548H12.641L11.033,57.317z M78.67,64.031h-2.525c-0.004,0-57.048,0-57.048,0c-0.705,0-1.277,0.571-1.277,1.276
		s0.572,1.276,1.277,1.276h55.25l-0.662,1.985c-0.717,2.152-3.24,3.972-5.51,3.972H16.827c-2.27,0-4.792-1.817-5.51-3.972
		l-0.662-1.985h3.335c0.704,0,1.276-0.571,1.276-1.276s-0.572-1.276-1.276-1.276H8.862c-0.004,0-2.531,0-2.531,0
		c-0.704,0-1.275-0.572-1.275-1.276c0-0.703,0.572-1.275,1.275-1.275H78.67c0.705,0,1.275,0.572,1.275,1.275
		C79.945,63.459,79.375,64.031,78.67,64.031z"/>
	<path d="M50.926,56.372c0.705,0,1.277-0.572,1.277-1.275c0-2.113,1.717-3.83,3.828-3.83s3.83,1.717,3.83,3.83
		c0,0.703,0.57,1.275,1.277,1.275c0.705,0,1.275-0.572,1.275-1.275c0-3.521-2.863-6.385-6.383-6.385
		c-3.521,0-6.385,2.863-6.385,6.385C49.648,55.8,50.221,56.372,50.926,56.372z"/>
	<path fill="#FEC8BB" d="M38.246,25.224c0-2.016,0.521-2.968,1.121-4.07c0.671-1.231,1.432-2.627,1.432-5.293
		c0-2.66-0.758-4.055-1.429-5.283c-0.215-0.4-0.639-0.674-1.125-0.674c-0.705,0-1.275,0.572-1.275,1.277
		c0,0.223,0.057,0.432,0.156,0.613c0.602,1.102,1.12,2.055,1.12,4.066c0,2.016-0.519,2.968-1.121,4.07
		c-0.671,1.231-1.433,2.627-1.433,5.293s0.762,4.061,1.433,5.291c0.231,0.426,0.67,0.666,1.122,0.666
		c0.206,0,0.416-0.05,0.609-0.156c0.619-0.336,0.848-1.112,0.51-1.731C38.764,28.19,38.246,27.237,38.246,25.224z"/>
	<path fill="#FEC8BB" d="M46.756,25.224c0-2.016,0.52-2.968,1.121-4.07c0.672-1.231,1.432-2.627,1.432-5.293
		c0-2.66-0.758-4.055-1.428-5.283c-0.217-0.4-0.639-0.674-1.125-0.674c-0.705,0-1.277,0.572-1.277,1.277
		c0,0.223,0.059,0.432,0.158,0.613c0.6,1.102,1.119,2.055,1.119,4.066c0,2.016-0.52,2.968-1.121,4.07
		c-0.672,1.231-1.432,2.627-1.432,5.293s0.76,4.061,1.432,5.291c0.232,0.426,0.67,0.666,1.123,0.666c0.205,0,0.416-0.05,0.609-0.156
		c0.617-0.336,0.848-1.112,0.51-1.731C47.275,28.19,46.756,27.237,46.756,25.224z"/>
</g>
</svg>
