<?xml version="1.0" encoding="utf-8"?>
<!-- Generator: Adobe Illustrator 16.0.2, SVG Export Plug-In . SVG Version: 6.00 Build 0)  -->
<!DOCTYPE svg PUBLIC "-//W3C//DTD SVG 1.1 Tiny//EN" "http://www.w3.org/Graphics/SVG/1.1/DTD/svg11-tiny.dtd">
<svg version="1.1" baseProfile="tiny" id="Layer_1" xmlns="http://www.w3.org/2000/svg" xmlns:xlink="http://www.w3.org/1999/xlink"
	 x="0px" y="0px" width="85px" height="85px" viewBox="0 0 85 85" xml:space="preserve">
<g>
	<path d="M62.603,82.5c-2.864,0-5.729,0-8.595,0c-0.45-0.135-0.748-0.409-0.81-0.896c-0.009-1.229,0.382-1.653,1.613-1.665
		c2.186-0.022,4.372,0.006,6.559-0.009c3.796-0.028,6.938-3.121,6.916-6.92c-0.012-1.94-0.752-3.723-1.758-5.357
		c-1.767-2.876-4.311-4.747-7.56-5.67c-0.613-0.175-1.156-0.222-1.637,0.323c-0.308,0.35-0.768,0.414-1.222,0.414
		c-2.917,0.01-5.831,0.008-8.746,0.002c-0.641-0.002-1.18-0.22-1.543-0.757c-0.269-0.396-0.634-0.491-1.076-0.491
		c-3.982,0.002-7.964,0.002-11.945,0.002c-0.407,0-0.774,0.055-1.025,0.433c-0.436,0.654-1.083,0.827-1.832,0.821
		c-1.848-0.016-3.696-0.002-5.544-0.004c-0.937-0.034-1.875-0.014-2.811-0.012c-0.597,0.002-1.139-0.109-1.556-0.577
		c-0.271-0.304-0.606-0.37-0.994-0.279c-5.112,1.184-9.449,5.53-9.75,11.066c-0.221,4.044,3.126,6.831,6.486,6.996
		c2.13,0.104,4.27,0.053,6.406-0.004c8.702-0.02,17.403-0.01,26.104-0.008c1.299,0,1.72,0.282,2.02,1.266
		c0.049,0.719-0.305,1.144-0.981,1.326c-11.512,0-23.022,0-34.534,0c-4.152-0.588-6.735-3-7.955-6.933
		c-0.728-2.347-0.313-4.634,0.563-6.863c1.187-3.021,3.13-5.439,5.803-7.271c0.435-0.299,0.598-0.664,0.597-1.179
		C13.787,54.504,13.787,48.752,13.798,43c0-0.599-0.232-0.955-0.762-1.224c-4.185-2.129-6.527-5.588-7.292-10.174
		c-0.073-0.44-0.079-0.88-0.079-1.323c0-3.539-0.042-7.08,0.012-10.617c0.077-5.137,2.546-8.903,6.875-11.493
		c1.788-1.069,3.733-1.838,5.701-2.533c0.927-0.327,1.418-0.142,1.957,0.722c0.176,1.104-0.069,1.518-1.179,1.943
		c-1.847,0.708-3.714,1.382-5.398,2.441c-3.386,2.127-5.186,5.17-5.196,9.209c-0.008,3.228,0.007,6.456-0.003,9.685
		c-0.014,4.347,1.972,7.556,5.708,9.614c3.323,1.831,6.929,2.971,10.623,3.826c0.075,0.017,0.153,0.033,0.269-0.026
		c-0.467-0.772-0.951-1.534-1.391-2.321c-0.205-0.367-0.599-0.387-0.953-0.444c-2.26-0.366-3.858-1.601-4.813-3.67
		c-0.517-1.122-0.551-2.324-0.466-3.526c0.315-4.397,1.602-8.471,4.096-12.137c2.788-3.959,6.461-6.739,11.06-8.271
		c2.066-0.688,4.207-0.997,6.377-1.012c4.14-0.03,8.28-0.035,12.421,0.002c2.076,0.019,3.744,0.85,4.707,2.782
		c0.804,1.614,0.736,3.232-0.221,4.759c-0.381,0.605-0.329,1.028,0.073,1.606c2.309,3.31,3.68,6.977,4.103,11.002
		c0.125,1.196,0.238,2.385,0.012,3.574c-0.467,2.442-2.317,4.342-4.763,4.789c-0.875,0.16-1.483,0.481-1.813,1.341
		c-0.209,0.544-0.642,0.986-1,1.637c1.849-0.43,3.532-0.871,5.171-1.455c2.206-0.786,4.438-1.555,6.42-2.829
		c3.252-2.089,5.022-5.067,5.051-8.98c0.022-3.281-0.004-6.562,0.005-9.843c0.015-4.523-2.12-7.767-6.052-9.798
		c-4.193-2.167-8.703-3.444-13.342-4.267c-4.449-0.789-8.939-1.056-13.449-0.91c-1.033,0.033-2.078,0.078-3.107,0.244
		c-2.651,0.205-5.273,0.602-7.868,1.184c-1.347,0.302-1.869,0.105-2.37-0.848c-0.062-1.03,0.247-1.493,1.334-1.761
		c2.22-0.549,4.473-0.93,6.75-1.163c1.155-0.118,2.322-0.055,3.474-0.235c0.208,0,0.417,0,0.625,0
		c0.101,0.109,0.236,0.072,0.36,0.08c0.098,0,0.195,0,0.292,0c0.13,0,0.26,0,0.389,0c0.125-0.009,0.262,0.03,0.365-0.08
		c0.208,0,0.417,0,0.625,0c0.313,0.128,0.625,0.128,0.938,0c0.833,0,1.666,0,2.5,0c0.105,0.114,0.246,0.071,0.375,0.08
		c0.135,0,0.268,0,0.405,0c0.102,0,0.204,0,0.306,0s0.205,0,0.307,0c0.16-0.021,0.34,0.057,0.481-0.08c0.157,0,0.313,0,0.469,0
		c1.179,0.192,2.375,0.101,3.558,0.238c6.466,0.748,12.738,2.238,18.462,5.417c4.442,2.468,6.852,6.36,6.938,11.521
		c0.059,3.487,0.012,6.976,0.012,10.463c-0.002,3.067-1.095,5.735-2.958,8.129c-1.19,1.53-2.685,2.683-4.407,3.533
		c-0.583,0.288-0.771,0.67-0.77,1.286c0.014,5.675,0.018,11.35-0.004,17.022c-0.002,0.683,0.271,1.082,0.806,1.471
		c3.514,2.535,5.815,5.885,6.396,10.226c0.532,3.986-1.067,7.09-4.336,9.378C65.402,82.023,64.048,82.392,62.603,82.5z"/>
	<path fill="#FA8697" d="M53.342,81.648c-0.159-0.232-0.381-0.289-0.657-0.281c-0.843,0.021-1.688,0.017-2.534,0.022
		c-0.182-0.971-0.503-1.231-1.55-1.231c-8.563-0.002-17.127-0.002-25.691-0.002c-0.311,0-0.623-0.017-0.935-0.026
		c-1.236-0.667-1.914-1.815-2.483-3.016c-0.938-1.973-1.097-4.059-0.608-6.174c0.724-3.125,2.267-5.79,4.614-7.987
		c0.239-0.224,0.517-0.339,0.817-0.427c1.978-0.01,3.956-0.026,5.932-0.02c0.666,0.002,1.203-0.183,1.398-0.863
		c0.106-0.369,0.347-0.327,0.601-0.327c4.346-0.002,8.693-0.002,13.04-0.002c0.289,0,0.522-0.017,0.639,0.38
		c0.159,0.557,0.616,0.806,1.199,0.806c3.072-0.002,6.145-0.002,9.215-0.002c0.48,0,0.898-0.172,1.089-0.614
		c0.172-0.401,0.432-0.361,0.754-0.313c5.13,0.773,9.916,5.887,10.321,11.035c0.306,3.894-2.943,7.471-6.898,7.539
		c-2.264,0.042-4.529,0.008-6.794,0.015C53.688,80.16,53.313,80.546,53.342,81.648z"/>
	<path fill="#EFECFE" d="M33.217,5.125c0.865-0.221,1.756-0.188,2.634-0.223c8.246-0.319,16.295,0.677,24.031,3.691
		c1.307,0.51,2.603,1.054,3.814,1.756c3.53,2.042,5.515,5.098,5.632,9.197c0.102,3.538,0.096,7.083,0,10.621
		c-0.104,3.938-1.933,7.011-5.316,8.978c-3.661,2.128-7.686,3.375-11.813,4.281c-0.048,0.01-0.102-0.014-0.206-0.028
		c0.693-0.965,1.333-1.939,1.796-3.015c0.106-0.252,0.303-0.226,0.51-0.247c3.56-0.376,5.718-2.759,5.636-6.311
		c-0.111-4.891-1.591-9.339-4.483-13.301c-0.224-0.307-0.47-0.516-0.096-0.977c1.188-1.455,1.403-3.125,0.64-4.829
		c-0.779-1.736-2.217-2.761-4.102-2.779c-4.894-0.046-9.796-0.259-14.678,0.083c-6.314,0.442-11.269,3.484-15.093,8.457
		c-0.157,0.206-0.317,0.409-0.478,0.612c-0.379-0.05-0.316-0.365-0.332-0.601c-0.338-5.528,2.321-10.89,7.444-13.409
		C30.215,6.366,31.628,5.542,33.217,5.125z"/>
	<path fill="#DBDAFE" d="M33.217,5.125c-0.335,0.412-0.864,0.438-1.3,0.644c-2.563,1.208-5.185,2.317-7.081,4.566
		c-1.751,2.077-2.826,4.438-3.19,7.142c-0.13,0.96-0.134,1.914-0.136,2.872c0,0.251-0.083,0.527,0.135,0.741
		c-2.025,3.085-3.349,6.437-3.817,10.107c-0.165,1.29-0.362,2.592-0.167,3.889c0.424,2.801,2.606,4.812,5.454,5.03
		c0.44,0.034,0.626,0.191,0.791,0.561c0.422,0.952,0.996,1.817,1.684,2.741c-1.034-0.101-1.931-0.383-2.83-0.629
		c-2.934-0.808-5.799-1.815-8.497-3.235c-3.844-2.023-5.94-5.21-6.047-9.569C8.131,26.55,8.129,23.11,8.218,19.676
		c0.112-4.327,2.205-7.486,6.007-9.517c1.513-0.807,3.096-1.459,4.71-2.041c1.073-0.387,1.22-0.607,1.166-1.712
		c0.989-0.261,1.978-0.523,2.969-0.784c0.562,0.872,0.842,0.967,1.954,0.722C27.728,5.747,30.443,5.246,33.217,5.125z"/>
	<path fill="#FEDCCE" d="M36.87,23.883c1.726,0.707,3.425,1.472,5.29,1.798c2.412,0.423,4.813,0.452,7.218,0.013
		c0.353-0.065,0.554-0.021,0.775,0.287c3.814,5.304,3.592,13.049-1.492,17.532c-2.879,2.538-6.295,3.65-10.12,3.529
		c-1.764-0.745-2.963-2.145-4.037-3.633c-1.368-1.898-2.198-4.041-2.525-6.368c-0.044-0.31-0.07-0.619,0.049-0.92
		c0.339-0.488,0.946-0.622,1.352-1.026c0.364-0.363,0.531-0.782,0.356-1.271c-0.145-0.403-0.471-0.607-0.908-0.605
		c-0.206,0-0.413,0.072-0.618-0.015c-0.337-0.239-0.303-0.597-0.246-0.924c0.475-2.701,1.272-5.274,3.211-7.323
		C35.63,24.477,36.036,23.811,36.87,23.883z"/>
	<path fill="#FA6276" d="M24.315,62.525c-2.845,2.385-4.68,5.371-5.314,9.05c-0.548,3.197,0.337,5.939,2.671,8.204
		c0.109,0.106,0.202,0.233,0.304,0.351c-2.338-0.004-4.699,0.26-7.011-0.112c-4.156-0.669-6.737-4.703-5.665-8.768
		c1.338-5.07,4.615-8.235,9.667-9.587c0.518-0.139,0.971-0.272,1.284,0.395c0.186,0.397,0.661,0.447,1.099,0.447
		C22.338,62.5,23.327,62.516,24.315,62.525z"/>
	<path fill="#BC7558" d="M52.161,14.358c1.804,0.429,2.481,2.284,1.365,3.745c-1.109,1.453-1.121,2.24-0.039,3.698
		c1.456,1.961,2.532,4.11,3.227,6.451c0.07,0.24,0.129,0.484,0.219,0.829c-0.891-0.355-1.68-0.673-2.549-0.67
		c-0.384,0.001-0.424-0.33-0.532-0.581c-0.615-1.445-1.421-2.772-2.393-4.004c-0.452-0.572-0.949-0.757-1.697-0.6
		c-3.933,0.825-7.75,0.528-11.393-1.293c-1.222-0.611-2.536-0.916-3.896-1.025c-0.675-0.182-0.363-0.579-0.153-0.879
		c0.806-1.154,1.715-2.226,2.767-3.163c0.893-0.796,1.833-1.535,2.845-2.179c0.36-0.229,0.731-0.388,1.163-0.388
		c3.614,0.001,7.227-0.003,10.843,0.002C52.018,14.3,52.087,14.326,52.161,14.358z"/>
	<path fill="#FECABD" d="M32.132,36.119c0.163,3.177,1.377,5.926,3.43,8.319c0.866,1.009,1.904,1.829,2.977,2.604
		c-5.255-0.1-9.592-2.029-12.169-6.759c-2.475-4.541-2.188-9.196,0.623-13.527c2.09-3.223,6.528-4.393,9.877-2.875
		c-1.166,0.553-1.942,1.528-2.619,2.56c-1.171,1.782-1.721,3.811-2.102,5.885c-0.049,0.261-0.119,0.576,0.145,0.803
		c-0.405,0.988-1.56,1.332-2.591,0.769c-0.208-0.113-0.383-0.27-0.566-0.414c-0.438-0.344-0.867-0.332-1.252,0.07
		c-0.413,0.429-0.407,0.908-0.012,1.324c0.87,0.913,1.931,1.367,3.215,1.234C31.437,36.079,31.788,35.843,32.132,36.119z"/>
	<path fill="#5A6CD8" d="M45.815,49.194c2.681,1.506,4.692,3.537,6.196,6.236c-0.933,0.025-1.763,0.134-2.55,0.475
		c-1.21,0.522-2.177,1.326-2.811,2.484c-0.225,0.41-0.473,0.587-0.964,0.585c-4.606-0.02-9.214-0.012-13.82-0.012
		c-0.338,0-0.63,0.021-0.846-0.371c-1.158-2.1-2.977-3.116-5.468-3.159c1.462-2.688,3.497-4.714,6.187-6.245
		c0.318,1.876,1.11,3.432,2.546,4.615c1.429,1.178,3.082,1.751,4.917,1.617C42.63,55.175,45.063,52.877,45.815,49.194z"/>
	<path fill="#C6C6F8" d="M30.229,47.335c-2.856,1.728-5.034,3.949-6.625,6.739c-0.014,0.022-0.032,0.044-0.039,0.068
		c-0.549,1.876-2.162,3.062-3.06,4.711c-0.126,0.232-0.333,0.21-0.531,0.244c-1.025,0.174-2.054,0.337-3.026,0.725
		c-0.486,0.193-0.552-0.019-0.547-0.449c0.02-1.613,0.008-3.229,0.008-4.844c0-3.568,0.012-7.134-0.013-10.701
		c-0.003-0.6,0.109-0.695,0.676-0.467c3.608,1.449,7.363,2.365,11.188,3.016c0.204,0.036,0.43,0.03,0.604,0.123
		C29.295,46.732,29.703,47.01,30.229,47.335z"/>
	<path fill="#C6C6F8" d="M47.42,47.345c0.778-0.735,1.7-0.965,2.684-1.133c3.563-0.609,7.052-1.508,10.421-2.837
		c0.167-0.066,0.336-0.123,0.524-0.192c0.172,0.223,0.099,0.461,0.099,0.677c0.005,5.123-0.009,10.247,0.019,15.371
		c0.004,0.699-0.183,0.814-0.761,0.501c-0.111-0.061-0.247-0.076-0.374-0.106c-0.976-0.23-2.17-0.192-2.865-0.762
		c-0.725-0.593-1.131-1.639-1.95-2.273c-0.111-0.087-0.18-0.252-0.236-0.394c-1.516-3.671-3.965-6.552-7.325-8.661
		C47.572,47.482,47.504,47.413,47.42,47.345z"/>
	<path fill="#A56040" d="M52.161,14.358c-3.479,0.006-6.956,0.024-10.433,0.007c-0.626-0.003-1.147,0.142-1.671,0.486
		c-2.121,1.391-3.962,3.071-5.447,5.128c-0.168,0.234-0.72,0.532-0.138,0.927c-2.928-0.104-5.534,0.733-7.773,2.656
		c-1.353,1.163-2.315,2.601-2.967,4.241c-0.185,0.466-0.423,0.636-0.907,0.641c-0.737,0.007-1.408,0.313-2.144,0.625
		c0.021-0.71,0.285-1.302,0.511-1.888c2.552-6.586,7.091-10.961,14.084-12.571c1.97-0.454,3.98-0.376,5.981-0.38
		c3.383-0.008,6.767-0.004,10.151,0C51.664,14.23,51.935,14.174,52.161,14.358z"/>
	<path fill="#F8BAAE" d="M38.813,53.103c-2.133,0.021-4.163-1.563-4.62-3.598c-0.097-0.432-0.12-0.674,0.495-0.529
		c2.721,0.641,5.458,0.62,8.177,0.009c0.631-0.142,0.583,0.108,0.489,0.524C42.91,51.516,40.929,53.081,38.813,53.103z"/>
	<path fill="#FECABD" d="M54.777,30.853c1.736,0.356,2.869,1.798,2.825,3.528c-0.04,1.617-1.238,3.028-2.865,3.279
		C55.197,35.386,55.248,33.127,54.777,30.853z"/>
	<path fill="#F8BAAE" d="M22.748,30.871c-0.178,1.135-0.325,2.259-0.313,3.4c0.011,1.116,0.171,2.212,0.373,3.31
		c-1.366,0.02-2.701-1.399-2.849-2.975C19.789,32.82,20.989,31.193,22.748,30.871z"/>
	<path fill="#FEDCCE" d="M22.569,60.109c0.547-1.446,1.778-2.302,3.243-2.308c1.496-0.005,2.718,0.838,3.292,2.308
		C26.933,60.109,24.781,60.109,22.569,60.109z"/>
	<path fill="#FEDCCE" d="M48.388,60.157c0.624-1.436,1.609-2.223,3.055-2.334c1.486-0.115,2.604,0.533,3.369,1.81
		c0.223,0.371,0.217,0.535-0.294,0.531C52.515,60.144,50.512,60.157,48.388,60.157z"/>
	<path d="M75.394,10.751c0.886,0,1.76-0.009,2.636,0.002c0.834,0.011,1.292,0.407,1.315,1.108c0.023,0.725-0.46,1.214-1.304,1.226
		c-1.665,0.022-3.329,0.011-4.993,0.002c-0.531-0.001-0.979-0.205-1.207-0.708c-0.211-0.469-0.083-0.909,0.222-1.313
		c1.078-1.433,2.152-2.868,3.227-4.303c0.151-0.201,0.299-0.404,0.55-0.746c-1.044,0-1.939,0.026-2.832-0.006
		c-0.923-0.034-1.442-0.699-1.214-1.489c0.168-0.583,0.589-0.836,1.167-0.839c1.716-0.008,3.433-0.006,5.149-0.002
		c0.505,0.001,0.923,0.191,1.135,0.676c0.204,0.47,0.103,0.904-0.205,1.311c-1.095,1.452-2.186,2.907-3.27,4.368
		C75.624,10.238,75.39,10.398,75.394,10.751z"/>
	<path d="M62.313,17.786c-0.524,0-0.891,0.03-1.25-0.006c-0.66-0.067-1.119-0.588-1.103-1.197c0.017-0.613,0.491-1.104,1.165-1.121
		c1.145-0.027,2.289-0.007,3.435-0.012c0.513-0.003,0.912,0.19,1.145,0.659c0.234,0.472,0.117,0.911-0.182,1.313
		c-0.646,0.872-1.299,1.74-2.043,2.735c0.498,0,0.872-0.024,1.245,0.005c0.658,0.053,1.157,0.572,1.108,1.18
		c-0.051,0.646-0.416,1.107-1.074,1.132c-1.222,0.049-2.447,0.057-3.668,0.001c-0.988-0.045-1.438-1.042-0.858-1.88
		C60.862,19.68,61.553,18.807,62.313,17.786z"/>
	<path fill="#010101" d="M46.89,36.35c-1.174-0.039-2.141-0.422-2.931-1.214c-0.549-0.552-0.606-1.246-0.16-1.735
		c0.476-0.523,1.089-0.525,1.727-0.008c1.014,0.822,1.633,0.815,2.681-0.031c0.593-0.48,1.203-0.473,1.672,0.018
		c0.456,0.479,0.439,1.127-0.063,1.674C49.012,35.923,47.993,36.309,46.89,36.35z"/>
	<path d="M32.132,36.119c-1.559,0.446-2.986,0.24-4.212-0.883c-0.667-0.612-0.753-1.307-0.256-1.844
		c0.492-0.532,1.096-0.51,1.787,0.066c0.976,0.814,1.729,0.728,2.845-0.328c0.653-0.23,1.247-0.163,1.601,0.482
		c0.374,0.679,0.061,1.224-0.465,1.691C33.042,35.647,32.585,35.877,32.132,36.119z"/>
	<path fill="#010000" d="M38.813,39.031c-0.895,0.032-1.731-0.821-1.774-1.81c-0.042-0.952,0.75-1.859,1.663-1.906
		c0.933-0.047,1.817,0.843,1.826,1.834C40.535,38.104,39.719,39,38.813,39.031z"/>
</g>
</svg>
