<?xml version="1.0" encoding="utf-8"?>
<!-- Generator: Adobe Illustrator 16.0.0, SVG Export Plug-In . SVG Version: 6.00 Build 0)  -->
<!DOCTYPE svg PUBLIC "-//W3C//DTD SVG 1.1//EN" "http://www.w3.org/Graphics/SVG/1.1/DTD/svg11.dtd">
<svg version="1.1" id="Layer_1" xmlns="http://www.w3.org/2000/svg" xmlns:xlink="http://www.w3.org/1999/xlink" x="0px" y="0px"
	 width="85px" height="85px" viewBox="0 0 85 85" enable-background="new 0 0 85 85" xml:space="preserve">
<g>
	<path d="M72.954,78.582c1.115,0.055,1.117,0.055,1.115,1.227c-0.002,0.896-0.008,1.795-0.012,2.691c-21.041,0-42.082,0-63.125,0
		c0-6.023,0-12.051,0-18.076c0-1.121,0-1.121,1.109-1.17c1.051-0.432,1.473-0.15,1.479,1.045c0.016,4.648,0.004,9.297,0.008,13.943
		c0,1.789-0.082,1.652,1.641,1.664c0.545,0.004,1.09-0.025,1.633,0.021c1.041-0.023,2.082-0.004,3.123-0.012
		c1.047-0.006,1.074-0.031,1.078-1.111c0.006-1.301-0.008-2.602,0.006-3.902c0.006-0.488-0.059-1.072,0.531-1.266
		c0.646-0.213,1.346-0.252,1.98,0.059c0.342,0.168,0.297,0.582,0.301,0.916c0.016,1.432,0,2.861,0.01,4.295
		c0.006,0.939,0.068,1.008,1.033,1.01c11.762,0.004,23.523,0.002,35.287,0c0.955,0,1.01-0.055,1.008-1.023
		c-0.006-2.18,0.188-1.928-1.918-1.93c-7.078-0.008-14.158,0.021-21.236-0.014c-3.32-0.016-6.584-0.467-9.729-1.615
		c-4.449-1.625-8.209-4.23-11.264-7.85c-1.893-2.311-3.441-4.82-4.512-7.621c-0.215-0.564-0.342-1.143-0.436-1.73
		c-0.678-2.52-1.131-5.07-1.145-7.691c-0.004-0.523,0.148-0.818,0.607-1.109c3.076-1.939,6.121-3.934,9.191-5.883
		c0.426-0.271,0.572-0.559,0.574-1.062c0.01-6.17,0.027-12.342,0.078-18.512c0.074-9.096,5.301-16.689,13.723-19.984
		c1.605-0.627,3.268-1.027,4.979-1.232c0.139-0.018,0.322,0.053,0.391-0.156c1.094,0,2.188,0,3.281,0c0.104,0.1,0.209,0.1,0.311,0
		c0.209,0,0.418,0,0.625,0c1.182,0.346,2.412,0.436,3.604,0.76c8.406,2.299,14.672,9.73,15.5,18.398
		c0.111,1.172,0.113,2.34,0.111,3.51c-0.014,5.729-0.025,11.457-0.062,17.184c-0.002,0.533,0.162,0.832,0.611,1.121
		c3.02,1.934,6.01,3.914,9.029,5.846c0.457,0.291,0.605,0.592,0.605,1.117c-0.018,8.332-0.012,16.664-0.012,24.994
		c0,1.189,0,1.189-1.125,1.271c-0.344,0.326-0.775,0.256-1.184,0.258c-2.232,0.008-4.467-0.002-6.699,0.006
		c-0.994,0.002-1.072,0.074-1.068,1.059c0.008,2.143-0.217,1.869,1.854,1.885c1.584,0.012,3.168,0.004,4.752,0.002
		c0.441,0,0.791-0.037,0.887-0.617C71.644,78.334,72.022,78.178,72.954,78.582z"/>
	<path fill="#434343" d="M44.06,2.5c-0.105,0.199-0.209,0.158-0.312,0C43.851,2.5,43.954,2.5,44.06,2.5z"/>
	<path fill="#923EC4" d="M12.067,58.131c0.941,2.723,2.148,5.309,3.869,7.635c0.354,0.477,0.713,0.945,1.07,1.42
		c0.1,0.484,0.119,0.977,0.119,1.471c-0.006,3.406,0,6.811-0.008,10.217c0,0.432,0.084,0.895-0.25,1.264
		c-0.961,0.008-1.924-0.023-2.881,0.035c-0.598,0.037-0.727-0.16-0.723-0.732c0.023-4.959,0.014-9.92,0.014-14.879
		c0-1.25,0-1.25-1.234-1.305C12.052,61.547,12.06,59.84,12.067,58.131z"/>
	<path fill="#B77ED8" d="M72.954,78.582c-0.129,0.008-0.262,0.041-0.387,0.021c-0.672-0.113-0.98,0.123-0.846,0.83
		c0.107,0.559-0.086,0.752-0.695,0.74c-2.188-0.043-4.373-0.031-6.561-0.006c-0.496,0.006-0.695-0.105-0.666-0.639
		c0.045-0.752,0.029-1.51,0.006-2.266c-0.012-0.41,0.074-0.609,0.553-0.604c2.861,0.029,5.725,0.031,8.586,0.043
		C72.948,77.33,72.95,77.957,72.954,78.582z"/>
	<path fill="#FEF4CB" d="M23.292,46.24c2.307,2.287,4.615,4.574,6.92,6.863c1.125,1.117,2.256,2.23,3.361,3.371
		c0.299,0.309,0.457,0.334,0.779,0.016c1.285-1.271,1.299-1.258,0.021-2.541c-2.971-2.986-5.939-5.973-8.91-8.961
		c-0.184-0.508,0.266-0.658,0.543-0.795c0.793-0.395,0.977-1,0.973-1.844c-0.029-6.01-0.012-12.021-0.018-18.031
		c-0.004-4.932,1.375-9.406,4.512-13.244c1.994-2.439,4.342-4.48,7.324-5.672c0.24-0.096,0.51-0.1,0.732-0.246
		c2.76-0.586,5.492-0.365,8.176,0.391c8.246,2.326,13.826,9.689,13.844,18.275c0.014,6.586-0.023,13.172-0.064,19.758
		c-0.002,0.566,0.176,0.881,0.646,1.182c3.02,1.936,6.014,3.91,9.029,5.848c0.42,0.27,0.58,0.545,0.58,1.055
		c-0.021,7.314-0.021,14.629,0,21.943c0.002,0.588-0.145,0.73-0.73,0.73c-11.191-0.02-22.387-0.006-33.58-0.021
		c-1.66-0.002-3.324-0.08-4.943-0.527c-3.449-1.227-6.363-3.289-8.857-5.912c-3.805-4.004-6.09-8.77-6.824-14.266
		c-0.117-0.883-0.133-1.762-0.133-2.646c0-0.477,0.15-0.857,0.572-1.123c1.742-1.09,3.445-2.242,5.191-3.328
		C22.694,46.354,22.942,46.125,23.292,46.24z"/>
	<path fill="#B77FD8" d="M16.866,80.135c-0.002-4.098-0.004-8.195-0.004-12.295c0-0.225-0.066-0.473,0.145-0.654
		c3.012,3.488,6.619,6.141,10.947,7.777c3.125,1.186,6.365,1.707,9.699,1.707c7.652-0.002,15.307,0.008,22.959-0.016
		c0.658-0.002,0.945,0.113,0.873,0.842c-0.07,0.721-0.033,1.457-0.01,2.186c0.014,0.381-0.127,0.521-0.494,0.479
		c-0.129-0.016-0.262-0.002-0.391-0.002c-12.025,0-24.053-0.008-36.08,0.02c-0.77,0.002-0.947-0.201-0.92-0.941
		c0.062-1.586,0.006-3.174,0.027-4.764c0.008-0.471-0.07-0.686-0.625-0.686c-1.727-0.002-1.727-0.029-1.727,1.693
		c0,1.354-0.016,2.707,0.01,4.061c0.008,0.445-0.066,0.648-0.584,0.629C19.419,80.123,18.144,80.145,16.866,80.135z"/>
	<path fill="#FED9A9" d="M39.53,5.156c-0.926,0.514-1.875,0.988-2.771,1.547c-3.771,2.35-6.516,5.578-8.152,9.721
		c-0.992,2.512-1.426,5.125-1.424,7.818c0.006,6.139-0.01,12.279,0.014,18.418c0.002,0.713-0.084,1.234-0.822,1.553
		c-0.346,0.148-0.787,0.312-0.912,0.777c-0.52-0.504-1.031-1.021-1.566-1.508c-0.242-0.223-0.275-0.473-0.273-0.768
		c0.041-6.637-0.006-13.275,0.133-19.91c0.176-8.449,6.965-16.184,15.311-17.627C39.216,5.152,39.374,5.162,39.53,5.156z"/>
	<path fill="#FED9A9" d="M23.292,46.24c-2.016,1.271-4.033,2.547-6.051,3.816c-0.334,0.211-0.367,0.52-0.379,0.877
		c-0.066,1.906,0.229,3.77,0.709,5.604c0.996,3.822,2.756,7.242,5.354,10.244c2.49,2.877,5.453,5.07,8.934,6.584
		c0.229,0.098,0.506,0.152,0.629,0.422c-3.553-0.619-6.734-2.1-9.586-4.264c-5.33-4.047-8.451-9.418-9.43-16.035
		c-0.352-2.373-0.354-2.375,1.676-3.684c2.117-1.365,4.262-2.695,6.348-4.111c0.65-0.441,1.07-0.438,1.502,0.191
		C23.085,46.012,23.194,46.123,23.292,46.24z"/>
	<path d="M58.874,46.938c-0.012,0.154-0.029,0.311-0.031,0.465c-0.016,1.75-0.016,1.75-1.73,1.75c-5.57,0-11.145-0.002-16.715,0.004
		c-0.271,0.002-0.559-0.08-0.807,0.064c3.391,3.385,6.771,6.76,10.115,10.1c-0.068,0.15-0.072,0.18-0.09,0.195
		c-0.512,0.516-0.975,1.355-1.557,1.447c-0.521,0.082-1.01-0.836-1.498-1.324c-5.693-5.686-11.375-11.381-17.074-17.059
		c-0.381-0.379-0.539-0.752-0.537-1.291c0.018-6.17,0.01-12.342,0.016-18.512c0-0.248-0.105-0.521,0.1-0.744
		c1.613-0.33,3.248-0.271,4.879-0.254c6.943,0.07,13.891,0.01,20.836,0.035c0.412,0,0.834-0.062,1.232,0.107
		c0.348,0.256,0.307,0.643,0.307,0.998c0.01,6.113,0.004,12.227,0.01,18.34c0.002,0.674-0.23,1.197-0.709,1.66
		c-0.986,0.963-1.957,1.943-2.924,2.926c-0.191,0.193-0.463,0.342-0.504,0.754c1.01,0.045,2.008,0.109,3.002,0.184
		c1.035,0.076,2.08,0.01,3.121,0.023C58.501,46.809,58.737,46.689,58.874,46.938z"/>
	<path fill="#FED9A9" d="M58.874,46.938c-0.262-0.174-0.555-0.115-0.836-0.115c-1.9-0.008-3.801-0.006-5.699-0.02
		c-0.248,0-0.514,0.086-0.83-0.129c1.318-1.314,2.596-2.639,3.932-3.896c0.52-0.488,0.695-0.99,0.691-1.695
		c-0.025-6.062-0.014-12.125-0.018-18.188c0-0.285-0.033-0.568-0.051-0.852c-0.395-0.219-0.832,0.006-1.234-0.131
		c-0.328-0.559-0.383-1.178-0.398-1.805c0.016-0.049,0.033-0.105,0.072-0.131c0.879-0.604,0.887-0.605,0.473-1.615
		c-1.047-2.557-2.805-4.5-5.121-5.971c-0.359-0.229-0.83-0.33-1.004-0.799c1.09,0.049,2.123,0.389,3.184,0.592
		c0.461-0.115,0.727,0.209,1.004,0.471c2.613,2.471,4.141,5.498,4.684,9.049c0.207,1.35,0.146,2.701,0.154,4.053
		c0.012,2.707,0.006,5.416,0,8.125c0,0.385,0.062,0.789-0.221,1.121c0.449,0.311,0.955,0.127,1.434,0.143
		c0.422,0.012,0.605,0.129,0.602,0.58c-0.018,1.793-0.018,3.586,0,5.379c0.004,0.395-0.23,0.611-0.469,0.85
		c-1.359,1.359-2.721,2.719-4.078,4.08c-0.178,0.178-0.344,0.367-0.625,0.672c1.303,0,2.459-0.01,3.611,0.008
		C58.386,46.715,58.72,46.557,58.874,46.938z"/>
	<path d="M48.851,11.592c2.918,1.545,5.135,3.742,6.369,6.852c0.02,0.049,0.049,0.094,0.066,0.141
		c0.432,1.109,0.432,1.109-0.738,1.455c-0.865,0.645-1.223,0.533-1.654-0.527c-1.443-3.533-4.055-5.668-7.783-6.396
		c-1.307-0.256-2.648-0.053-3.975-0.092c-2.254,0.018-4.197,0.896-5.895,2.291c-1.396,1.146-2.484,2.557-3.105,4.297
		c-0.359,1.008-0.764,1.078-1.674,0.395c-1.061-0.328-1.061-0.328-0.652-1.383c1.93-4.986,6.514-8.115,11.961-8.229
		C44.216,10.34,46.595,10.576,48.851,11.592z"/>
	<path fill="#FEFEFE" d="M57.653,35c-0.002-3.895,0.084-7.791-0.029-11.684c-0.123-4.268-1.844-7.867-5.006-10.754
		c-0.17-0.156-0.389-0.254-0.586-0.379c-0.508-0.605-1.162-1.029-1.855-1.375c-0.445-0.225-0.557-0.43-0.305-0.895
		c1.029-1.895,0.555-1.764,2.287-0.623c4.273,2.816,6.773,6.836,7.643,11.861c0.148,0.855,0.213,1.74,0.205,2.627
		c-0.029,3.482-0.027,6.965-0.002,10.449c0.004,0.617-0.172,0.842-0.793,0.781C58.698,34.959,58.173,35,57.653,35z"/>
	<path fill="#57565C" d="M30.462,20.004c1.188,0.324,1.188,0.324,1.686-0.898c1.459-3.582,5.346-6.316,8.941-6.291
		c-0.014,0.426-0.396,0.51-0.664,0.682c-2.658,1.725-4.373,4.113-5.09,7.205c-0.203,0.877-0.145,0.945,0.752,0.947
		c5.83,0.002,11.658,0,17.488,0.004c0.436,0,0.891-0.084,1.281,0.211c0.387,0.166,0.834-0.078,1.207,0.18
		c-8.273-0.01-16.545-0.021-24.818-0.031c-0.727,0-1.455,0.016-2.18,0.023c1.043,0.086,1.307-0.557,1.34-1.424
		C30.415,20.408,30.442,20.207,30.462,20.004z"/>
	<path fill="#FEFEFE" d="M70.153,65.938c0,1.664-0.012,3.326,0.008,4.99c0.004,0.455-0.119,0.637-0.611,0.648
		c-1.74,0.047-1.74,0.064-1.74-1.697c0-2.912,0.018-5.824-0.014-8.734c-0.006-0.627,0.141-0.863,0.812-0.85
		c1.545,0.037,1.545,0.004,1.545,1.586C70.153,63.232,70.153,64.584,70.153,65.938z"/>
	<path fill="#FEFEFE" d="M69.007,54.844c-1.355-0.016-1.191,0.152-1.193-1.205c0-1.311-0.145-1.135,1.262-1.137
		c1.262-0.002,1.064-0.135,1.078,1.32C70.161,54.844,70.153,54.844,69.007,54.844z"/>
	<path fill="#FEFEFE" d="M70.153,57.615c-0.014,1.305,0.141,1.129-1.27,1.131c-1.258,0.002-1.064,0.133-1.07-1.322
		c-0.004-1.197-0.107-1.008,1.303-1.016C70.317,56.402,70.14,56.32,70.153,57.615z"/>
	<path fill="#FEFEFE" d="M42.651,7.564c0.051-0.527-0.273-1.326,0.777-1.148c0.576,0.098,1.521-0.193,1.604,0.506
		c0.07,0.594,0.289,1.799-0.646,1.92C42.78,9.051,42.651,8.82,42.651,7.564z"/>
	<path fill="#FEFEFE" d="M49.136,7.775c-0.279,0.678-0.521,1.275-0.779,1.867c-0.059,0.133-0.201,0.133-0.338,0.082
		c-0.121-0.045-0.246-0.074-0.369-0.113c-1.504-0.486-1.605-0.752-0.975-2.242c0.158-0.375,0.406-0.4,0.672-0.299
		C47.944,7.295,48.618,7.359,49.136,7.775z"/>
	<path fill="#FED9A9" d="M34.839,24.375c0.781-0.012,1.561-0.035,2.34-0.037c5.26-0.002,10.52,0.016,15.779-0.02
		c0.721-0.006,0.834,0.209,0.83,0.863c-0.027,5.076-0.023,10.154-0.004,15.232c0.002,0.514-0.156,0.865-0.521,1.217
		c-1.736,1.682-3.447,3.389-5.17,5.084c-0.188,0.135-0.402,0.078-0.605,0.078c-2.338,0.004-4.676-0.012-7.016,0.012
		c-0.564,0.006-0.992-0.176-1.383-0.57c-1.275-1.295-2.562-2.58-3.855-3.857c-0.436-0.43-0.635-0.918-0.635-1.529
		c0.006-5.17,0.004-10.34,0.006-15.512C34.606,24.998,34.593,24.654,34.839,24.375z"/>
	<path fill="#FBB984" d="M34.839,24.375c0,5.492,0.008,10.984-0.012,16.475c-0.002,0.57,0.166,0.971,0.572,1.361
		c1.346,1.303,2.67,2.629,3.975,3.977c0.375,0.389,0.766,0.533,1.301,0.527c2.473-0.02,4.945-0.002,7.418,0
		c-0.227,0.199-0.498,0.104-0.748,0.104c-3.223,0.002-6.447-0.014-9.672,0.002c-0.453,0.002-0.773-0.131-1.09-0.453
		c-1.604-1.631-3.221-3.25-4.854-4.854c-0.328-0.32-0.438-0.65-0.436-1.096c0.012-5.096,0.021-10.191-0.008-15.289
		c-0.004-0.662,0.186-0.848,0.826-0.805C33.021,24.387,33.931,24.363,34.839,24.375z"/>
	<path fill="#77767F" d="M54.858,21.863c-6.449,0.002-12.896,0-19.346,0.021c-0.531,0.002-0.596-0.176-0.521-0.621
		c0.385-2.283,1.373-4.266,2.922-5.982c0.916-1.016,2.037-1.752,3.178-2.467c3.162-0.27,6.164,0.094,8.742,2.18
		c1.441,1.168,2.525,2.592,3.211,4.318c0.404,1.018,0.408,1.016,1.504,0.727C54.651,20.648,54.755,21.254,54.858,21.863z"/>
	<path fill="#FEFEFE" d="M52.192,37.795c0.533,2.055-0.424,3.467-1.943,4.695c-0.744,0.602-1.387,1.334-2.045,2.035
		c-0.311,0.33-0.506,0.291-0.82-0.008c-1.326-1.266-1.332-1.252-0.033-2.561c0.824-0.83,1.938-1.543,2.365-2.547
		c0.414-0.973,0.117-2.248,0.133-3.391c0.018-1.322-0.152-1.154,1.16-1.17c0.131,0,0.264,0.016,0.391-0.002
		c0.588-0.078,0.857,0.109,0.807,0.762C52.147,36.334,52.192,37.066,52.192,37.795z"/>
	<path fill="#FEFEFD" d="M52.192,28.254c-0.016,1.305,0.145,1.123-1.275,1.125c-1.252,0.002-1.061,0.145-1.064-1.332
		c-0.004-1.188-0.121-1,1.311-1.006C52.358,27.035,52.175,26.939,52.192,28.254z"/>
	<path fill="#FEFEFD" d="M50.985,33.287c-1.309-0.016-1.133,0.158-1.135-1.262c-0.002-1.268-0.148-1.074,1.316-1.078
		c1.203-0.004,1.014-0.119,1.021,1.299C52.194,33.449,52.29,33.273,50.985,33.287z"/>
	<path fill="#FEFEFE" d="M43.829,14.301c3.045,0.314,5.254,1.604,6.887,3.9c0.234,0.332,0.215,0.525-0.162,0.717
		c-0.484,0.248-0.926,0.709-1.422,0.771c-0.537,0.064-0.668-0.666-1.02-1.01c-1.158-1.125-2.492-1.869-4.123-1.977
		c-0.465-0.031-0.652-0.189-0.607-0.66c0.031-0.361,0.031-0.73,0-1.092C43.333,14.412,43.567,14.238,43.829,14.301z"/>
</g>
</svg>
