<?xml version="1.0" encoding="utf-8"?>
<!-- Generator: Adobe Illustrator 16.0.0, SVG Export Plug-In . SVG Version: 6.00 Build 0)  -->
<!DOCTYPE svg PUBLIC "-//W3C//DTD SVG 1.1//EN" "http://www.w3.org/Graphics/SVG/1.1/DTD/svg11.dtd">
<svg version="1.1" id="Layer_1" xmlns="http://www.w3.org/2000/svg" xmlns:xlink="http://www.w3.org/1999/xlink" x="0px" y="0px"
	 width="85px" height="85px" viewBox="0 0 85 85" enable-background="new 0 0 85 85" xml:space="preserve">
<g>
	<path fill="#BDBDBD" d="M77.998,11.589c0.08-3.301-1.391-6.402-3.961-7.889c-3.859-2.229-8.279-1.104-10.455,2.664l-1.02,1.725
		l2.289,1.297l0.887-1.551c1.479-2.562,4.379-3.314,6.941-1.836c1.656,0.957,2.742,2.895,2.684,5.537v40.988l2.643-0.014V11.589
		H77.998z"/>
	
		<radialGradient id="SVGID_1_" cx="-346.6416" cy="-401.6636" r="0.5964" gradientTransform="matrix(6.1712 0.5744 -0.5744 6.1712 1951.7205 2725.9736)" gradientUnits="userSpaceOnUse">
		<stop  offset="0.22" style="stop-color:#80DEEA;stop-opacity:0"/>
		<stop  offset="1" style="stop-color:#80DEEA;stop-opacity:0.8"/>
	</radialGradient>
	<circle fill="url(#SVGID_1_)" cx="43.135" cy="48.037" r="3.327"/>
	
		<radialGradient id="SVGID_2_" cx="-351.814" cy="-376.6982" r="0.6751" gradientTransform="matrix(5.2812 3.2431 -3.2431 5.2812 711.1702 3179.3618)" gradientUnits="userSpaceOnUse">
		<stop  offset="0.261" style="stop-color:#80DEEA;stop-opacity:0"/>
		<stop  offset="1" style="stop-color:#80DEEA;stop-opacity:0.8"/>
	</radialGradient>
	<circle fill="url(#SVGID_2_)" cx="74.758" cy="48.836" r="3.767"/>
	
		<radialGradient id="SVGID_3_" cx="-345.543" cy="-401.604" r="0.9412" gradientTransform="matrix(6.1712 0.5744 -0.5744 6.1712 1951.7205 2725.9736)" gradientUnits="userSpaceOnUse">
		<stop  offset="0.304" style="stop-color:#80DEEA;stop-opacity:0"/>
		<stop  offset="1" style="stop-color:#80DEEA;stop-opacity:0.8"/>
	</radialGradient>
	<circle fill="url(#SVGID_3_)" cx="49.91" cy="48.656" r="5.251"/>
	
		<radialGradient id="SVGID_4_" cx="-344.2979" cy="-402.1099" r="1.1272" gradientTransform="matrix(6.1712 0.5744 -0.5744 6.1712 1951.7205 2725.9736)" gradientUnits="userSpaceOnUse">
		<stop  offset="0.261" style="stop-color:#80DEEA;stop-opacity:0"/>
		<stop  offset="1" style="stop-color:#80DEEA;stop-opacity:0.8"/>
	</radialGradient>
	<circle fill="url(#SVGID_4_)" cx="57.771" cy="46.573" r="6.297"/>
	
		<radialGradient id="SVGID_5_" cx="-342.7329" cy="-401.7412" r="1.1605" gradientTransform="matrix(6.1712 0.5744 -0.5744 6.1712 1951.7205 2725.9736)" gradientUnits="userSpaceOnUse">
		<stop  offset="0.261" style="stop-color:#80DEEA;stop-opacity:0"/>
		<stop  offset="1" style="stop-color:#80DEEA;stop-opacity:0.8"/>
	</radialGradient>
	<circle fill="url(#SVGID_5_)" cx="67.201" cy="49.741" r="6.482"/>
	
		<radialGradient id="SVGID_6_" cx="-360.5566" cy="-478.6348" r="1.0271" gradientTransform="matrix(5.3481 3.1319 -3.1594 5.3956 481.311 3751.7061)" gradientUnits="userSpaceOnUse">
		<stop  offset="0.376" style="stop-color:#80DEEA;stop-opacity:0"/>
		<stop  offset="1" style="stop-color:#80DEEA;stop-opacity:0.8"/>
	</radialGradient>
	<circle fill="url(#SVGID_6_)" cx="65.086" cy="39.63" r="5.371"/>
	<path fill="#78909C" d="M66.811,6.483c-0.4-0.812-1.537-1.438-2.289-1.438c-0.527,0-0.787,0.332-1.139,0.938
		c-0.348,0.6-0.141,1.371,0.459,1.717l1.092,0.625c0.6,0.346,1.371,0.141,1.717-0.459C66.996,7.269,67.029,6.929,66.811,6.483z"/>
	<path fill="#BDBDBD" d="M65.166,6.956c-2.877-1.656-6.775-0.285-8.447,2.562c0,0,1.686,2.203,4.826,3.959
		c3.141,1.758,5.623,2.07,5.623,2.07C68.801,12.681,68.041,8.62,65.166,6.956L65.166,6.956z"/>
	<path fill="#78909C" d="M65.824,16.952c0,0-2.4-0.393-5.43-2.262c-3.029-1.871-4.467-3.449-4.467-3.449
		c-0.492-0.512-0.812-1.117-0.459-1.723c0.346-0.605,1.291-0.918,1.723-0.459c0,0,1.293,1.689,4.48,3.455
		c3.439,1.902,5.418,2.256,5.418,2.256c0.777,0.18,0.812,1.117,0.459,1.723C67.201,17.101,66.283,17.112,65.824,16.952z"/>
	<path fill="#DFECF5" d="M59.115,8.673c0.287-1.004,1.865-1.703,2.949-1.836c1.051-0.135,1.691,0.191,1.684,0.746
		c-0.006,0.523-0.617,0.691-1.059,0.686c-1.551-0.033-2.148,0.305-2.416,0.459C59.115,9.38,59.09,8.778,59.115,8.673L59.115,8.673z"
		/>
	
		<radialGradient id="SVGID_7_" cx="-344.8335" cy="-404.2637" r="0.6675" gradientTransform="matrix(6.1712 0.5744 -0.5744 6.1712 1951.7205 2725.9736)" gradientUnits="userSpaceOnUse">
		<stop  offset="0.376" style="stop-color:#80DEEA;stop-opacity:0"/>
		<stop  offset="1" style="stop-color:#80DEEA;stop-opacity:0.8"/>
	</radialGradient>
	<circle fill="url(#SVGID_7_)" cx="55.322" cy="32.481" r="4"/>
	<path opacity="0.8" fill="#FFFFFF" enable-background="new    " d="M52.467,31.989c0.332-0.014,0.611-0.514,1.211-0.973
		c0.547-0.412,1.338-0.611,1.816-0.639c0.268-0.014,0.646-0.1,0.799-0.379c0.088-0.16-0.053-0.945-1.172-0.791
		c-1.316,0.18-2.477,1.045-2.77,1.83C52.166,31.558,52.146,31.995,52.467,31.989L52.467,31.989z"/>
	<path fill="#EEEEEE" d="M8.589,50.433c3.541,13.533,3.255,24.527,15.39,24.527l44.062,0.32
		c13.918-0.168,9.705-18.266,12.986-24.748c-11.104,1.18-21.166,1.365-33.414,0.553c-8.699-0.572-16.221-6.156-24.582-8.033
		c-5.771-0.873-12.16-2.23-17.797-0.334C6.646,45.155,7.771,47.745,8.589,50.433L8.589,50.433z"/>
	<path fill="#B7D5E5" d="M75.93,54.675c-1.771,1.023-1.885,5.012-1.691,7.135c0.533,5.977-0.027,9.584-2.836,10.863
		c-0.006-0.221-0.047-0.467-0.158-0.746c-0.373-0.934-1.227-1.758-2.23-1.766c-1.943-0.012-2.588,0.754-3.699,1.592
		c-0.799,0.605-1.812,1.346-3.262,1.512l-32.369-0.232c-1.312-0.08-2.437-0.818-3.236-1.426c-1.25-0.951-1.67-1.27-3.295-1.604
		c-0.984-0.199-1.856,0.434-2.223,1.363c-0.207,0.514-0.232,0.934-0.127,1.271c-7.927-1.072-7.535-18.479-11.808-26.816
		c-1.384-2.703-3.349-2.371-3.208-2.123c1.158,2.148,2.104,4.412,2.816,6.748c3.541,13.531,3.254,24.527,15.389,24.527l44.062,0.32
		c9.951-0.119,11.223-9.498,11.906-21.027C80.01,53.302,76.754,54.194,75.93,54.675L75.93,54.675z"/>
	<path fill="#69A1BA" d="M6.826,45.847c3.295-0.686,6.695-0.072,7.714,0.146c9.95,2.15,16.487,6.33,28.302,8.939
		c13.119,2.895,28.102,2.035,37.061,0.066c0,0,0.346-2.385,0.646-3.297c0,0-18.457,2.396-30.639,0.898
		c-12.727-1.564-27.329-8.666-35.829-9.705c-6.431-0.785-8.533,0.52-8.533,0.52L6.826,45.847L6.826,45.847z"/>
	<path fill="#BDBDBD" d="M21.861,70.015c-1.604-0.199-1.891,1.865-1.891,1.865s-0.965-1.213-2.562-0.826
		c-0.979,0.24-1.323,1.465-0.897,1.783c0.759,0.572,3.296,1.852,2.536,3.662c-0.293,0.703-1.1,0.91-1.871,1.258
		c-1.771,0.799-2.462,2.117-2.636,2.961c-0.04,0.201-0.054,0.514,0.399,0.752c0.453,0.24,1.285,0.467,3.408,0.467
		s3.613-0.393,3.848-0.705c0.771-1.053-0.666-3.123,0.938-5.172c0.652-0.84,1.171-0.693,2.809-1.078
		c0.399-0.094,0.326-1.111-0.226-1.771c-0.426-0.514-1.75-0.766-2.597-0.307C23.119,72.903,23.845,70.263,21.861,70.015z"/>
	<path fill="#78909C" d="M26.261,73.116c-1.024-1.117-2.481-0.545-2.741-0.404c0.192-0.105,0.092-1.1,0.065-1.266
		c-0.12-0.785-0.817-1.352-1.63-1.418c1.63,0.84,0.639,3.143,0.639,3.143s0.479-0.152,1.172-0.285
		c0.793-0.146,1.791,0.086,1.897,1.131c0.053,0.5-0.812,0.68-1.118,0.771c-2.25,0.666-2.438,1.816-2.669,2.676
		c-0.226,0.832,0.366,2.23-0.08,3.068c-0.586,1.105-2.89,1.15-4.593,0.918c-1.318-0.18-2.663-0.73-2.663-0.73
		s-0.08,0.666,0.399,0.938c2.256,1.277,6.33,0.76,7.541,0.055c0.181-0.107,0.299-0.254,0.34-0.461
		c0.06-0.346,0.105-0.973-0.141-1.963c-0.253-1.025-0.119-2.137,0.586-2.982c0.618-0.738,1.164-0.844,2.762-1.023
		C27.054,75.169,26.84,73.743,26.261,73.116z"/>
	<path fill="#DFECF5" d="M17.521,78.05c0.933-0.312,2.098-0.293,1.957,0.418c-0.08,0.406-0.565,0.619-1.092,0.779
		c-0.552,0.158-1.631,0.227-1.717-0.16C16.562,78.603,16.949,78.235,17.521,78.05L17.521,78.05z"/>
	<path fill="#B7D5E5" d="M58.463,53.882c-4.686,0-14.443,0-25.958-4.439c-6.849-2.637-18.138-7.449-27.597-5.357
		c-1.071,0.232-2.122-0.439-2.362-1.512c-0.233-1.064,0.438-2.123,1.511-2.361c10.67-2.352,22.611,2.936,29.953,5.562
		c11.242,4.027,20.334,4.127,24.662,4.143c7.273-0.021,14.389-0.154,21.443-1.619c1.072-0.227,2.117,0.467,2.344,1.539
		c0.221,1.07-0.467,2.115-1.537,2.342c-7.414,1.537-14.75,1.684-22.238,1.697C58.604,53.882,58.535,53.882,58.463,53.882
		L58.463,53.882z"/>
	<path fill="#FFFFFF" d="M20.663,51.778c0.825,1.551,0.911,3.389,0.786,5.139c-0.127,1.75-0.439,3.502-0.326,5.258
		c0.1,1.559,1.438,4.152,1.531,5.092c0.066,0.633-0.514,1.205-1.151,1.266c-0.632,0.061-1.245-0.254-1.765-0.625
		c-2.155-1.564-3.293-4.188-3.914-6.783c-0.838-3.527-1.729-6.883-2.176-8.039c-1.291-3.344,0.846-4.84,3.388-4.188
		C18.566,49.296,19.918,50.386,20.663,51.778L20.663,51.778z"/>
	<path fill="#BDBDBD" d="M69.791,70.015c1.605-0.199,1.891,1.865,1.891,1.865s0.967-1.213,2.562-0.826
		c0.979,0.24,1.158,1.531,0.818,1.83c-0.805,0.691-3.215,1.805-2.455,3.615c0.293,0.703,1.098,0.91,1.869,1.258
		c1.771,0.799,2.463,2.117,2.637,2.961c0.039,0.201,0.053,0.514-0.398,0.752c-0.453,0.24-1.285,0.467-3.408,0.467
		s-3.615-0.393-3.848-0.705c-0.771-1.053,0.664-3.123-0.938-5.172c-0.652-0.84-1.172-0.693-2.809-1.078
		c-0.4-0.094-0.326-1.111,0.225-1.771c0.426-0.514,1.752-0.766,2.596-0.307C68.533,72.903,67.809,70.263,69.791,70.015
		L69.791,70.015z"/>
	<path fill="#78909C" d="M65.393,73.116c1.023-1.117,2.482-0.545,2.742-0.404c-0.193-0.105-0.094-1.1-0.066-1.266
		c0.119-0.785,0.818-1.352,1.631-1.418c-1.631,0.84-0.639,3.143-0.639,3.143s-0.48-0.152-1.172-0.285
		c-0.793-0.146-1.791,0.086-1.896,1.131c-0.055,0.5,0.812,0.68,1.117,0.771c2.25,0.666,2.438,1.816,2.67,2.676
		c0.227,0.832-0.367,2.23,0.08,3.068c0.586,1.105,2.889,1.15,4.592,0.918c1.318-0.18,2.662-0.73,2.662-0.73s0.08,0.666-0.398,0.938
		c-2.256,1.277-6.33,0.76-7.541,0.055c-0.18-0.107-0.301-0.254-0.34-0.461c-0.061-0.346-0.105-0.973,0.141-1.963
		c0.252-1.025,0.119-2.137-0.586-2.982c-0.619-0.738-1.164-0.844-2.762-1.023C64.6,75.169,64.812,73.743,65.393,73.116
		L65.393,73.116z"/>
	<path fill="#DFECF5" d="M71.668,78.009c-0.553,0.467-1.07,1.385-0.639,1.896c0.18,0.213,0.766-0.279,0.904-0.398
		c0.367-0.326,0.68-0.561,1.059-0.871c0.168-0.141,0.309-0.334,0.26-0.547C73.146,77.61,72.127,77.624,71.668,78.009z"/>
	<path opacity="0.8" fill="#FFFFFF" enable-background="new    " d="M54.57,45.202c-0.201,0.141-0.406,0.279-0.646,0.326
		s-0.514-0.008-0.666-0.193c-1.186-1.443,2.471-4.354,3.859-3.787c0.92,0.373,1.053,1.639,0.182,2.057
		C56.285,44.077,55.5,44.536,54.57,45.202z"/>
	<path fill="#FFFFFF" d="M62.164,39.271c-0.293-0.045-0.561-0.285-0.674-0.564c-0.139-0.359-0.078-0.766,0.047-1.125
		c0.309-0.871,1.025-1.604,1.904-1.891c0.24-0.08,0.492-0.127,0.746-0.086c0.406,0.066,0.752,0.385,0.857,0.785
		c0.279,1.059-0.824,1.145-1.41,1.65c-0.42,0.359-0.641,1.111-1.244,1.23C62.316,39.284,62.238,39.284,62.164,39.271z"/>
	<path fill="#FFFFFF" d="M8.783,41.601c-0.221,0.906,0.732,1.059,3.894,1.045c3.808-0.012,6.478,1.219,6.11,0.395
		c-0.266-0.6-2.969-2.031-5.238-2.244C12.164,40.661,9.062,40.489,8.783,41.601L8.783,41.601z"/>
</g>
</svg>
