<?xml version="1.0" encoding="utf-8"?>
<!-- Generator: Adobe Illustrator 16.0.0, SVG Export Plug-In . SVG Version: 6.00 Build 0)  -->
<!DOCTYPE svg PUBLIC "-//W3C//DTD SVG 1.1//EN" "http://www.w3.org/Graphics/SVG/1.1/DTD/svg11.dtd">
<svg version="1.1" id="Capa_1" xmlns="http://www.w3.org/2000/svg" xmlns:xlink="http://www.w3.org/1999/xlink" x="0px" y="0px"
	 width="85px" height="85px" viewBox="0 0 85 85" enable-background="new 0 0 85 85" xml:space="preserve">
<g>
	<rect x="36.759" y="4.391" fill="#8EB6CA" width="4.797" height="1.713"/>
	<path fill="#CBE8DE" d="M36.759,8.144c0,0.522-0.424,0.944-0.945,0.944s-0.945-0.422-0.945-0.944v-0.15h-2.635
		c-0.148,2.49-0.896,4.382-2.234,5.625c-1.021,0.95-2.162,1.296-2.945,1.418c-0.119,2-0.238,4.333-0.354,7.056l1.301,58.521H38.7
		l1.297-46.08c0.01-0.261,0.258-6.02,1.559-8.812V7.993h-4.797V8.144L36.759,8.144z"/>
	<path fill="#A9D8C8" d="M30.341,7.993h-2.76c-0.125,1.304-0.264,2.972-0.404,5.091c0.465-0.125,1.035-0.375,1.561-0.873
		C29.675,11.324,30.212,9.906,30.341,7.993z"/>
	<path fill="#A9D8C8" d="M56.337,12.233c0.521,0.483,1.088,0.729,1.547,0.853c-0.121-2.277-0.227-3.898-0.324-5.093h-2.854
		C54.837,9.924,55.382,11.348,56.337,12.233z"/>
	<path fill="#8EB6CA" d="M34.868,4.391h-6.855c-0.061,0.377-0.139,0.932-0.23,1.713h7.088V4.391H34.868z"/>
	<path fill="#8EB6CA" d="M43.946,5.914c-0.176-0.176-0.277-0.416-0.277-0.666s0.104-0.494,0.277-0.67
		c0.08-0.08,0.176-0.142,0.275-0.188h-0.775v1.713h0.775C44.12,6.057,44.026,5.995,43.946,5.914z"/>
	<path fill="#8EB6CA" d="M57.046,4.391h-6.914v1.713h7.236C57.263,5.299,57.161,4.832,57.046,4.391z"/>
	<path fill="#CBE8DE" d="M55.048,13.617c-1.338-1.244-2.086-3.134-2.234-5.625h-2.682v0.151c0,0.522-0.424,0.944-0.943,0.944
		c-0.523,0-0.945-0.422-0.945-0.944V7.992h-1.961v8.896c0,1.892-0.48,3.322-1.432,4.25c-0.477,0.465-0.98,0.718-1.404,0.854v3.726
		c1.301,2.793,1.549,8.551,1.559,8.801l1.297,46.09h10.699l1.303-58.521c-0.119-2.799-0.225-5.121-0.318-7.057
		C57.202,14.91,56.069,14.564,55.048,13.617z"/>
	<path fill="#8EB6CA" d="M45.56,5.248c0,0.25-0.102,0.49-0.277,0.666c-0.078,0.081-0.174,0.143-0.275,0.189h3.236V4.391h-3.236
		c0.104,0.045,0.197,0.107,0.275,0.188C45.458,4.754,45.56,4.998,45.56,5.248z"/>
	<path fill="#A9D8C8" d="M44.394,16.889V7.993h-0.947v11.874C43.921,19.45,44.394,18.605,44.394,16.889z"/>
	<path fill="#3F352F" d="M57.771,2.5H27.231c-0.43,0-0.805,0.291-0.914,0.705c-0.035,0.131-0.854,3.396-1.508,18.836
		c0,0.02,1.322,59.535,1.322,59.535c0.012,0.514,0.432,0.924,0.945,0.924h12.541c0.512,0,0.93-0.406,0.945-0.918l1.32-46.984
		c0.043-1.059,0.225-3.389,0.617-5.424c0.393,2.035,0.572,4.361,0.615,5.412l1.322,46.996c0.016,0.512,0.434,0.918,0.945,0.918
		h12.541c0.514,0,0.934-0.41,0.943-0.924c0,0,1.322-59.516,1.322-59.535C60.007,6.262,58.714,3.33,58.683,3.205
		C58.575,2.791,58.2,2.5,57.771,2.5z M28.013,4.391h6.855v1.713H27.78C27.872,5.322,27.952,4.768,28.013,4.391z M27.581,7.993h2.76
		c-0.129,1.913-0.666,3.331-1.604,4.218c-0.525,0.498-1.096,0.748-1.561,0.873C27.317,10.965,27.456,9.297,27.581,7.993z
		 M41.556,25.721c-1.303,2.793-1.549,8.551-1.561,8.812l-1.297,46.08H27.999l-1.301-58.521c0.115-2.723,0.236-5.056,0.354-7.056
		c0.785-0.122,1.924-0.468,2.945-1.418c1.338-1.243,2.086-3.135,2.234-5.625h2.635v0.15c0,0.522,0.424,0.944,0.945,0.944
		s0.945-0.422,0.945-0.944v-0.15h4.799V25.721L41.556,25.721z M41.556,6.104h-4.797V4.391h4.797V6.104z M57.884,13.086
		c-0.461-0.125-1.027-0.369-1.549-0.854c-0.953-0.887-1.498-2.311-1.629-4.24h2.854C57.659,9.187,57.763,10.809,57.884,13.086z
		 M50.132,4.391h6.912c0.115,0.441,0.219,0.908,0.322,1.713h-7.234V4.391z M48.243,4.391v1.713h-3.236
		c0.104-0.047,0.197-0.108,0.275-0.189c0.176-0.176,0.277-0.416,0.277-0.666s-0.102-0.494-0.277-0.67
		c-0.078-0.08-0.174-0.142-0.275-0.188H48.243L48.243,4.391z M43.446,4.391h0.775c-0.102,0.046-0.195,0.107-0.275,0.188
		c-0.176,0.176-0.277,0.42-0.277,0.67s0.104,0.49,0.277,0.666c0.08,0.081,0.174,0.143,0.275,0.189h-0.775V4.391L43.446,4.391z
		 M43.446,7.993h0.947v8.896c0,1.717-0.475,2.562-0.947,2.978V7.993z M57.001,80.611H46.302l-1.297-46.09
		c-0.01-0.25-0.258-6.008-1.559-8.801v-3.726c0.424-0.138,0.93-0.39,1.404-0.854c0.949-0.928,1.432-2.358,1.432-4.25V7.994h1.961
		v0.151c0,0.522,0.422,0.944,0.945,0.944c0.52,0,0.943-0.422,0.943-0.944V7.994h2.682c0.148,2.491,0.896,4.381,2.234,5.625
		c1.021,0.947,2.152,1.292,2.936,1.416c0.096,1.938,0.201,4.258,0.318,7.059L57.001,80.611z"/>
</g>
</svg>
