<?xml version="1.0" encoding="utf-8"?>
<!-- Generator: Adobe Illustrator 16.0.0, SVG Export Plug-In . SVG Version: 6.00 Build 0)  -->
<!DOCTYPE svg PUBLIC "-//W3C//DTD SVG 1.1//EN" "http://www.w3.org/Graphics/SVG/1.1/DTD/svg11.dtd">
<svg version="1.1" id="Layer_1" xmlns="http://www.w3.org/2000/svg" xmlns:xlink="http://www.w3.org/1999/xlink" x="0px" y="0px"
	 width="85px" height="85px" viewBox="0 0 85 85" enable-background="new 0 0 85 85" xml:space="preserve">
<g>
	<g>
		<path fill="#FFD994" d="M73.825,49.965c-0.502-0.307-0.996-0.611-1.5-0.907c0.957,0.276,1.727-1.007,0.82-1.697
			c-0.543-0.415-1.088-0.818-1.631-1.225c0.109-0.354,0.041-0.76-0.354-1.046c-0.197-0.138-0.404-0.286-0.604-0.424
			c0.93,0.167,1.689-1.076,0.75-1.698c-8.674-5.754-17.932-10.906-25.914-17.617c7.836,4.925,15.207,10.601,22.943,15.682
			c1.037,0.682,2.062-0.849,1.076-1.589c-4.135-3.068-8.389-5.971-12.604-8.94c4.361,2.989,8.637,6.129,13.373,8.517
			c1.096,0.553,2.033-0.78,1.074-1.579c0.998,0.494,1.916-0.946,0.959-1.647c-0.029-0.021-0.061-0.039-0.09-0.069
			c0.643-0.267,0.967-1.165,0.207-1.628c-0.305-0.188-0.602-0.365-0.908-0.553c0.643-0.268,0.969-1.155,0.207-1.628
			c-0.375-0.237-0.75-0.464-1.135-0.691c0.494-0.345,0.672-1.085,0-1.52c-0.088-0.061-0.178-0.109-0.275-0.168
			c0.426-0.386,0.543-1.175-0.039-1.56c-0.979-0.65-1.953-1.303-2.932-1.964c0.098-0.138,0.158-0.296,0.178-0.464
			c0.562,0.237,1.125,0.474,1.697,0.701c1.086,0.414,1.629-1.037,0.85-1.698c-0.691-0.583-1.361-1.135-2.062-1.628
			c-0.078-0.385-0.336-0.74-0.818-0.829c-0.326-0.059-0.65-0.158-0.979-0.267c-0.533-0.276-1.086-0.523-1.688-0.73
			c-0.504-0.168-0.967,0.128-1.176,0.542c-0.592-0.256-1.191-0.503-1.795-0.74c-1.086-0.415-1.629,1.036-0.85,1.697
			c0.02,0.02,0.051,0.04,0.068,0.059c-0.068,0.128-0.117,0.268-0.129,0.405c-0.57-0.237-1.152-0.454-1.756-0.642
			c-0.059-0.021-0.129-0.029-0.188-0.04c-1.273-0.721-2.576-1.381-3.947-1.944c-0.711-0.296-1.441,0.513-1.264,1.165
			c-0.346,0.01-0.65,0.237-0.818,0.533c-0.73-0.385-1.471-0.771-2.221-1.125c-0.859-0.415-1.648,0.839-1.066,1.5
			c-0.236,0.257-0.365,0.622-0.277,0.948c-1.371-0.722-2.781-1.383-4.232-1.965c-0.582-0.227-1.006,0.09-1.154,0.533
			c-1.461-0.869-2.939-1.717-4.451-2.517c-0.896-0.484-2.053,0.572-1.254,1.421c0.584,0.622,1.186,1.244,1.797,1.846
			c-1.727-1.076-3.465-2.132-5.23-3.147c-0.67-0.386-1.52,0.168-1.539,0.81c-0.623-0.346-1.234-0.701-1.855-1.037
			c-0.65-0.354-1.234-0.01-1.4,0.494c-0.109-0.059-0.219-0.119-0.326-0.178c-0.889-0.494-2.104,0.632-1.254,1.421
			c0.316,0.296,0.643,0.592,0.957,0.878c-1.855-1.066-3.73-2.112-5.615-3.129c-1.105-0.592-1.994,0.78-1.076,1.589
			c0.061,0.049,0.119,0.099,0.178,0.148c-1.115-0.672-2.23-1.353-3.346-2.023c-1.076-0.642-2.004,0.799-1.076,1.589
			c0.029,0.021,0.049,0.04,0.078,0.061c-0.197,0.385-0.168,0.888,0.268,1.232c1.529,1.225,3.059,2.428,4.6,3.622
			c-1.926-1.214-3.85-2.438-5.764-3.652c-0.762-0.482-1.49,0.179-1.473,0.859c-0.77-0.513-1.549-1.026-2.328-1.54
			c-1.047-0.69-2.014,0.819-1.076,1.589c2.773,2.26,5.518,4.561,8.271,6.879c-0.811-0.178-1.57,0.839-0.928,1.56
			c0.928,1.037,1.875,2.053,2.842,3.04c-2.615-1.561-5.27-3.051-7.984-4.461c-0.879-0.454-2.111,0.611-1.254,1.421
			c0.73,0.701,1.48,1.382,2.223,2.072c-0.514,0.247-0.82,0.908-0.326,1.46c0.848,0.959,1.736,1.886,2.635,2.783
			c-0.781-0.119-1.352,0.997-0.791,1.609c0.061,0.069,0.119,0.128,0.178,0.197c-0.502-0.316-1.016-0.633-1.529-0.938
			c-0.918-0.543-2.002,0.582-1.252,1.421c0.877,0.997,1.766,1.984,2.664,2.961c-0.75-0.395-1.51-0.77-2.279-1.125
			c-0.898-0.415-1.639,0.858-1.037,1.53c0.998,1.125,2.014,2.24,3.049,3.335c-0.068-0.02-0.137-0.039-0.207-0.06
			c-0.896-0.228-1.697,0.771-1.035,1.54c1.352,1.578,2.783,3.068,4.244,4.521c-1.293-0.632-2.596-1.254-3.918-1.836
			c-0.938-0.415-1.59,0.839-1.037,1.529c0.779,0.986,1.619,1.904,2.506,2.772c-0.256,0-0.482,0.128-0.631,0.326
			c-0.779-0.316-1.568-0.622-2.369-0.898c-0.887-0.314-1.697,0.819-1.035,1.529c1.145,1.226,2.328,2.398,3.553,3.533
			c-0.375-0.099-0.75-0.197-1.135-0.286c-0.859-0.197-1.758,0.771-1.037,1.53c0.188,0.197,0.385,0.385,0.584,0.582
			c-0.584-0.197-1.176-0.396-1.787-0.562c-0.869-0.247-1.748,0.799-1.037,1.529c0.227,0.237,0.465,0.464,0.701,0.691
			c-0.307-0.069-0.602-0.148-0.908-0.208c-1.025-0.197-1.252,1.225-0.602,1.747c0.188,0.147,0.375,0.285,0.562,0.425
			c-0.602,0.188-0.988,1.046-0.465,1.56c0.711,0.7,1.451,1.353,2.221,1.975c-0.592-0.209-1.193-0.405-1.807-0.562
			c-1.076-0.286-1.688,1.007-0.848,1.697c0,0,0,0,0.01,0c-0.533,0.296-0.711,1.243-0.119,1.696c0.178,0.14,0.346,0.268,0.521,0.396
			c-0.789-0.078-1.52,0.879-0.848,1.56c0.217,0.229,0.434,0.436,0.66,0.651c-0.256,0.435-0.166,1.066,0.475,1.382
			c0.553,0.268,1.008,0.375,1.461,0.404c0.207,0.06,0.414,0.119,0.631,0.168c0.375,0.079,0.73-0.049,0.977-0.286
			c0.07-0.01,0.139-0.02,0.199-0.029c0.729,0.315,1.459,0.632,2.189,0.957c0.375,0.168,0.682,0.089,0.889-0.107
			c0.049,0.028,0.107,0.049,0.158,0.079c0.672,0.335,1.342-0.108,1.49-0.651c0.701,0.346,1.41,0.681,2.121,0.986
			c1.008,0.435,1.758-1.125,0.85-1.697c-0.236-0.147-0.482-0.306-0.721-0.454c1.629,0.889,3.268,1.757,4.965,2.487
			c0.77,0.336,1.371-0.483,1.234-1.146c0.512,0.276,1.025,0.543,1.539,0.81c0,0,0.01,0,0.01,0.01l0,0
			c0.07,0.04,0.148,0.079,0.217,0.108c0.898,0.443,1.512-0.729,1.086-1.44c1.135,0.671,2.27,1.343,3.395,2.033
			c0.523,0.336,1.047,0.671,1.58,0.986c1.055,0.631,2.121-0.918,1.076-1.589c-0.543-0.346-1.096-0.69-1.648-1.025
			c-0.75-0.484-1.49-0.987-2.23-1.491c0.65,0.376,1.303,0.74,1.953,1.116c2.508,1.646,5.084,3.178,7.809,4.41
			c0.984,0.444,1.785-1.154,0.848-1.696c-2.684-1.561-5.438-3.079-8.182-4.619c-1.904-1.253-3.779-2.576-5.654-3.889
			c5.033,3.257,10.293,6.218,15.504,9.148c1.283,0.789,2.598,1.529,3.93,2.21c0.02,0.01,0.049,0.03,0.068,0.04l0,0
			c0.068,0.039,0.146,0.079,0.217,0.118c0.928,0.464,1.717-1.017,0.957-1.618c1.371,0.542,2.764,1.065,4.164,1.529
			c0.555,0.178,1.047-0.197,1.225-0.661c1.648,0.858,3.326,1.647,5.053,2.358c1.047,0.425,1.688-1.065,0.85-1.697
			c-0.521-0.396-1.057-0.771-1.588-1.135c0.363,0.207,0.721,0.414,1.084,0.632c0.83,0.482,1.668-0.375,1.48-1.076
			c1.551,0.701,3.1,1.372,4.658,2.004c1.018,0.414,1.748-1.105,0.85-1.698c-0.01,0-0.02-0.01-0.02-0.01
			c0.561-0.286,0.75-1.214,0.137-1.688c-2.92-2.261-5.949-4.354-9.039-6.375c1.213,0.71,2.438,1.421,3.662,2.132
			c1.084,0.621,2.002-0.79,1.074-1.591c-1.303-1.113-2.645-2.171-4.018-3.188c1.51,0.74,3.051,1.421,4.639,2.004
			c1.008,0.365,1.807-1.155,0.85-1.697c-2.615-1.479-5.15-3.08-7.639-4.748c2.566,1.394,5.172,2.716,7.807,3.948
			c1.018,0.475,1.697-1.086,0.85-1.697c-1.758-1.264-3.523-2.525-5.291-3.79c1.451,0.957,2.912,1.904,4.383,2.832
			c1.047,0.651,2.104-0.896,1.076-1.589c-0.791-0.521-1.58-1.046-2.369-1.568c1.025,0.532,2.062,1.057,3.109,1.568l0,0
			c0.078,0.04,0.146,0.079,0.217,0.108c1.025,0.494,1.668-1.075,0.85-1.697c-0.789-0.592-1.59-1.174-2.379-1.767
			c0.809-0.021,1.242-1.243,0.482-1.776c-2.764-1.935-5.516-3.879-8.26-5.822c3.434,1.983,6.938,3.858,10.52,5.597
			c0.604,0.296,1.146-0.229,1.256-0.79c0.027,0.01,0.049,0.021,0.076,0.03c1.027,0.354,1.768-1.097,0.852-1.698
			c-0.979-0.643-1.955-1.282-2.934-1.924c0.75,0.354,1.5,0.72,2.25,1.074c0.988,0.454,1.709-1.056,0.898-1.657
			c0.811-0.078,1.352-1.146,0.494-1.707c-1.816-1.186-3.643-2.358-5.469-3.533c1.926,1.046,3.859,2.072,5.805,3.079
			C73.825,52.107,74.901,50.617,73.825,49.965L73.825,49.965z M42.915,39.938c0.908,0.661,1.816,1.322,2.734,1.983
			c0.977,0.711,1.943,1.432,2.912,2.161c-2.398-1.529-4.799-3.089-7.176-4.658c-1.807-1.273-3.602-2.566-5.379-3.879
			C38.306,37.017,40.606,38.478,42.915,39.938z M34.466,38.222c-0.363-0.296-0.719-0.583-1.084-0.878
			c1.48,1.036,2.971,2.072,4.451,3.119C36.708,39.712,35.583,38.962,34.466,38.222L34.466,38.222z M27.521,35.932
			c0.689,0.454,1.381,0.908,2.072,1.362c1.361,1.224,2.732,2.428,4.125,3.622c-0.77-0.523-1.549-1.037-2.318-1.551
			C30.075,38.251,28.782,37.105,27.521,35.932L27.521,35.932z M32.798,42.969c-3.453-2.221-6.928-4.412-10.432-6.543
			c-0.592-0.513-1.184-1.036-1.768-1.549c3.277,1.924,6.494,3.947,9.674,6.04C31.112,41.617,31.95,42.297,32.798,42.969
			L32.798,42.969z M19.091,45.604c0.986,0.582,1.953,1.193,2.91,1.835c0.445,0.454,0.889,0.898,1.342,1.354
			c-0.75-0.425-1.52-0.811-2.309-1.165C20.384,46.955,19.733,46.274,19.091,45.604z M39.638,63.042
			c2.004,1.528,4.047,3.01,6.129,4.432c-6.346-4.057-12.395-8.605-18.029-13.57c3.621,2.664,7.045,5.694,10.549,8.211
			C38.741,62.42,39.194,62.727,39.638,63.042L39.638,63.042z M59.071,73.237c-6.287-3.938-12.604-7.847-18.703-12.041
			c-0.334-0.257-0.67-0.521-1.006-0.778c0.305,0.217,0.611,0.443,0.918,0.65c6.326,4.411,13.016,8.28,19.461,12.515
			C59.515,73.464,59.288,73.355,59.071,73.237L59.071,73.237z M19.624,49.087c0.109,0.05,0.217,0.099,0.336,0.147
			c2.309,2.3,4.717,4.529,7.193,6.691c-0.148-0.079-0.295-0.168-0.443-0.247C24.233,53.607,21.854,51.426,19.624,49.087
			L19.624,49.087z M34.841,68.539c-2.012-1.44-4.045-2.843-6.127-4.136c-1.787-1.303-3.514-2.685-5.162-4.146
			c6.938,3.859,13.322,8.764,19.916,13.294c-2.508-1.322-4.965-2.754-7.373-4.234C35.671,69.062,35.257,68.796,34.841,68.539
			L34.841,68.539z M35.603,64.621c-5.32-3.218-11.094-6.219-15.723-10.402c1.916,0.947,3.811,1.944,5.676,2.979
			C28.753,59.854,32.128,62.302,35.603,64.621z M20.087,65.114c-0.75-0.375-1.5-0.739-2.27-1.064
			c-0.109-0.089-0.217-0.178-0.316-0.268c0.771,0.337,1.531,0.701,2.281,1.087C19.88,64.957,19.979,65.035,20.087,65.114
			L20.087,65.114z M20.817,63.27c-0.602-0.504-1.203-1.017-1.785-1.54c0.621,0.228,1.242,0.464,1.854,0.722
			c1.619,1.321,3.287,2.585,4.984,3.799C24.222,65.184,22.546,64.177,20.817,63.27z M44.228,70.246
			c-1.008-0.682-2.004-1.353-3.01-2.022c2.182,1.342,4.393,2.654,6.613,3.947C46.616,71.529,45.413,70.888,44.228,70.246z
			 M23.403,46.126c-0.77-0.779-1.539-1.569-2.299-2.368c1.322,0.928,2.625,1.885,3.928,2.853c1.717,1.568,3.473,3.1,5.27,4.579
			C28.032,49.442,25.753,47.725,23.403,46.126L23.403,46.126z M40.517,55.719c-4.846-3.257-9.404-6.898-14.062-10.401
			c-1.303-1.185-2.576-2.409-3.83-3.642c0.248,0.138,0.494,0.267,0.74,0.405c4.965,4.175,10.312,7.904,15.523,11.754
			c2.408,1.775,4.807,3.642,7.234,5.478C44.237,58.146,42.353,56.963,40.517,55.719L40.517,55.719z M34.013,46.027
			c6.869,4.472,13.648,9.09,20.369,13.797C47.317,55.689,40.517,51.041,34.013,46.027z M40.981,31.964
			c-2.221-1.393-4.451-2.773-6.682-4.155c-0.898-0.691-1.787-1.382-2.676-2.092c1.984,1.174,3.959,2.369,5.922,3.573
			C38.681,30.197,39.825,31.086,40.981,31.964z"/>
		<path fill="#F9A261" d="M47.771,24.602c0.314-1.915,0.475-3.839,0.553-5.764c0.168-0.188,0.275-0.444,0.287-0.771
			c0.027-1.638,0.146-3.276,0.256-4.905c0.611-2.418,0.947-4.963,0.553-7.322c-0.039-0.258-0.197-0.465-0.414-0.622
			C48.837,5,48.601,4.843,48.362,4.793c-0.957-0.207-1.666-0.068-2.209,0.277c-0.348-0.178-0.572-0.514-0.691-1.007
			c-0.336-0.681-1.383-0.78-1.875-0.247c-0.049,0.049-0.09,0.1-0.129,0.148c-1.154-0.503-2.211-0.375-3.602,0.188
			c-0.248,0.1-0.426,0.247-0.562,0.424c-0.09-0.295-0.188-0.582-0.307-0.858V3.707l0,0c-0.039-0.099-0.068-0.188-0.117-0.285
			c-0.613-1.312-2.408-0.326-2.182,0.918c0.148,0.799,0.236,1.599,0.316,2.398c-0.08,0.147-0.129,0.305-0.148,0.473
			c-0.1,0.869-0.158,1.738-0.207,2.605c-0.119,0.178-0.197,0.375-0.219,0.592c-0.117,1.076-0.236,2.143-0.346,3.208
			c-0.146,1.372-0.285,2.734-0.365,4.097c-0.127,1.815-0.188,3.622-0.137,5.448c0.01,0.275,0.088,0.493,0.217,0.671
			c0.01,0.089,0.029,0.167,0.059,0.247c-0.039,0.049-0.078,0.107-0.107,0.167c-0.287,0.621-0.455,1.086-0.336,1.776
			c0.158,0.868,1.215,1.066,1.855,0.631c1.035,0.405,1.943-0.049,2.783-0.818c0.346,0.059,0.701-0.021,0.986-0.347
			c0.08-0.089,0.139-0.178,0.207-0.256c0.189-0.217,0.395-0.385,0.613-0.533c0.02,0.079,0.049,0.158,0.068,0.237
			c0.078,0.503,0.178,1.007,0.307,1.51c0.068,0.268,0.207,0.465,0.404,0.603c0.494,0.701,1.52,0.562,1.982-0.168
			c0.396,0.513,0.959,0.888,1.846,1.036c0.779,0.138,1.49-0.326,1.512-1.154c0.02-0.592-0.051-0.987-0.229-1.382
			c0-0.04,0.01-0.069,0.01-0.109C47.751,25.065,47.761,24.829,47.771,24.602L47.771,24.602z"/>
	</g>
	<g>
		<path fill="#4361AD" d="M11.55,76.237c-0.068,0.258,0.041,0.554,0.387,0.554c1.588-0.011,3.188,0.138,4.807,0.335
			c-1.334,0.157-2.547,0.139-3.908,0.06c-0.475-0.029-0.533,0.7-0.061,0.74c1.273,0.099,2.486,0.128,3.721,0.029
			c0.049,0.04,0.109,0.068,0.189,0.078c3.779,0.465,7.578,0.612,11.379,0.722c-0.18,0.217-0.051,0.622,0.275,0.642
			c1.568,0.079,3.139,0.039,4.697,0.039c0.039,0.188,0.197,0.365,0.445,0.346c0.592,0.011,1.174-0.089,1.736-0.275
			c0.582-0.108,1.164-0.217,1.746-0.296c-0.01,0.196,0.109,0.414,0.346,0.414c1.154,0.02,2.734,0.188,3.77-0.396
			c-0.355,0.197-0.176,0.722,0.217,0.671c0.879-0.107,3.564-1.125,1.955,0.257c-0.266,0.228-0.049,0.651,0.287,0.603
			c0.719-0.118,1.43-0.246,2.141-0.424c-0.02,0.188,0.189,0.395,0.396,0.375c1.271-0.089,2.506-0.257,3.77-0.425
			c0.229-0.029,1.076-0.355,1.48-0.465c0.068,0.011,0.129,0.011,0.188,0.021c-0.039,0.04-0.139,0.119-0.324,0.228
			c-0.238,0.147-0.219,0.554,0.107,0.572c0.268,0.021,0.572,0.05,0.867,0.061c0.02,0.168,0.139,0.314,0.346,0.256
			c0.238-0.068,0.475-0.128,0.711-0.188c0.021,0,0.039-0.01,0.068-0.02c0.859-0.207,1.719-0.365,2.596-0.454
			c4.305,0.435,8.598,0.779,12.9,0.74c0.188,0.196,0.592,0.139,0.621-0.207c0.672-7.668,0.857-15.356,1.115-23.046
			c0.129-4.025,0.197-8.111,0.867-12.089c0.594-3.494,1.807-6.898,1.865-10.462c0-0.02-0.01-0.028-0.02-0.049
			c0-0.01,0-0.029,0-0.039c-0.029-0.06-0.061-0.108-0.088-0.158c-1.059-2.388-1.57-4.895-2.766-7.233
			c-1.439-2.823-2.842-5.616-3.453-8.754c-0.029-0.168-0.207-0.188-0.316-0.109c-5.377-0.839-10.943-1.125-16.371-1.174
			c-0.396,0-0.791,0-1.195,0.01c0.039-0.533,0.08-1.056,0.129-1.589c0.316-3.554,0.811-7.185,0.721-10.757
			c0.1-0.049,0.148-0.188,0.02-0.268c-0.01-0.01-0.02-0.01-0.029-0.02c0-0.02,0-0.049,0-0.069c0-0.028-0.02-0.049-0.049-0.049
			c-0.02,0-0.049,0.021-0.049,0.04c0,0.01,0,0.02,0,0.02c-0.928-0.572-2.033-1.244-3.119-1.322
			c-1.018-0.069-1.373,0.257-1.777-0.809c-0.049-0.139-0.234-0.148-0.334-0.07c-0.986,0.73-1.137,0.938-1.965-0.178
			c-0.098-0.127-0.295-0.099-0.385,0.021c-0.158,0.207-0.553,0.997-0.512,0.849c0.059-0.217-0.158-0.474-0.387-0.345
			c-1.469,0.819-0.996,0.582-1.992-0.276c-0.582-0.513-1.58-0.424-2.281-0.315c-0.246,0.04-0.275,0.345-0.127,0.483
			c-0.959,4.647-1.422,9.416-1.738,14.182c-3.107-0.158-6.246-0.118-9.326-0.435c-2.871-0.296-5.496-1.086-8.348-0.286
			c-0.041,0.011-0.08,0.04-0.109,0.069c-0.107-0.04-0.248-0.01-0.266,0.148c-1.689,18.573-3.594,37.118-5.113,55.711
			c0.041-2.951,0.229-5.854,0.533-8.862c0.494-4.905,0-9.987,1.234-14.794c0.039-0.138-0.178-0.227-0.217-0.079
			c-1.441,4.816-1.066,9.869-1.668,14.823c-0.475,3.897-1.639,8.725-0.404,12.562C11.501,76.178,11.532,76.207,11.55,76.237
			L11.55,76.237z M36.026,18.314c0.967,0.021,1.934,0.03,2.912,0.04c0.059,0.069,0.117,0.128,0.168,0.197
			c0.395,0.503,0.68,1.046,0.828,1.668c0.059,0.247,0.395,0.168,0.385-0.069c-0.039-0.65-0.285-1.243-0.65-1.775
			c0.168,0,0.334,0,0.512,0.01c0.129,0.227,0.238,0.474,0.287,0.74c0.059,0.267,0.463,0.188,0.414-0.079
			c-0.039-0.217-0.098-0.444-0.188-0.651c0.1,0,0.197,0,0.297,0c0.02,0.04,0.039,0.069,0.059,0.108
			c0.09,0.158,0.326,0.049,0.277-0.1c2.338,0.021,4.668,0.05,6.996,0.079c-0.039,0.355-0.078,0.721-0.117,1.076
			c-0.02,0.01-0.051,0.021-0.061,0.04c-0.068,0.079-0.127,0.197-0.061,0.296c0.021,0.04,0.051,0.069,0.08,0.1
			c-0.029,0.236-0.059,0.474-0.08,0.721c-0.029,0.029-0.049,0.059-0.059,0.099c-0.01,0.06,0.01,0.118,0.02,0.177
			c-0.02,0.198-0.049,0.396-0.068,0.593c-0.068-0.021-0.139-0.021-0.207,0.04c-0.158,0.138-0.02,0.385,0.139,0.592
			c-0.039,0.335-0.068,0.661-0.098,0.997c-0.012,0-0.012-0.01-0.031-0.01c-0.107-0.021-0.188,0.049-0.188,0.157
			c0.01,0.128,0.078,0.258,0.158,0.375c-0.129,1.402-0.217,2.804-0.217,4.195v0.01c-1.719-0.188-3.396-0.522-5.113-0.711
			c-0.326-0.661-0.65-1.312-0.662-2.062c0-0.1-0.059-0.167-0.156-0.179c-0.021-0.039-0.041-0.078-0.061-0.107
			c-0.02-0.138-0.238-0.188-0.307-0.069c-0.482,0.858-1.234,1.392-2.014,1.954c-1.252-0.188-2.516-0.474-3.77-0.543
			C35.661,23.576,35.849,20.939,36.026,18.314L36.026,18.314z M48.403,17.742c-2.408,0.06-4.848,0.237-7.273,0.267
			c-0.158-0.296-0.326-0.582-0.523-0.858c-0.207-0.286-0.482-0.72-0.85-0.799c-0.098-0.02-0.188,0.059-0.146,0.158
			c0.137,0.326,0.512,0.573,0.719,0.869c0.148,0.207,0.287,0.415,0.416,0.631c-0.08,0-0.158,0-0.248,0
			c-0.088-0.158-0.188-0.306-0.295-0.444c-0.297-0.335-0.76-0.869-1.244-0.829c-0.09,0.011-0.119,0.108-0.09,0.179
			c0.08,0.196,0.238,0.296,0.395,0.424c0.209,0.168,0.396,0.345,0.562,0.543c0.031,0.039,0.049,0.079,0.08,0.118
			c-0.178,0-0.355-0.011-0.533-0.011c-0.297-0.375-0.662-0.75-1.105-0.849c-0.068-0.02-0.158,0.079-0.129,0.148
			c0.08,0.247,0.248,0.464,0.426,0.671c-0.582-0.029-1.156-0.069-1.738-0.128c0.02-0.228-0.107-0.465-0.414-0.494
			c-0.109-0.01-0.217-0.01-0.326-0.021C36.401,12.6,36.706,7.883,37.2,3.154c0.908,0.041,2.043,0.09,2.17,1.373
			c0.029,0.295,0.395,0.344,0.592,0.207c0.623-0.435,1.254-0.652,1.215-1.027c0.01,0.1,0.117,0.179,0.207,0.188
			c0.148,0.021,0.307,0.04,0.453,0.05c0.119,0.01,0.197-0.06,0.248-0.158c0.443-0.869,0.887,0.049,1.174,0.434
			c0.1,0.139,0.297,0.089,0.387-0.02c0.582-1.047,0.984-1.037,1.193,0.028c0.039,0.128,0.166,0.218,0.295,0.148
			c1.383-0.75,3.396,0.395,4.58,1.006l0,0c-0.73,3.907-0.898,7.983-1.293,11.942C48.431,17.467,48.413,17.604,48.403,17.742
			L48.403,17.742z M71.526,32.447c-0.396-0.522-0.801-1.025-1.225-1.52c0.01-0.02,0.02-0.04,0.02-0.069c0-0.01,0-0.01,0-0.02
			c0-0.029-0.01-0.049-0.02-0.069c0-0.01-0.01-0.02-0.01-0.03c-0.01-0.01-0.01-0.02-0.02-0.029
			c-0.131-0.108-0.277-0.217-0.436-0.315c-0.465-0.533-0.928-1.056-1.383-1.568c-1.361-1.54-3.375-4.176-5.457-4.787
			c1.273-1.48,2.576-2.912,3.611-4.579c0.523,3.079,2.072,5.645,3.316,8.497C70.569,29.438,71.042,30.947,71.526,32.447
			L71.526,32.447z M52.479,79.938c0.285,0.029,0.561,0.06,0.838,0.089c-1.283,0.197-1.609,0.425-0.889-0.05
			C52.448,79.968,52.46,79.948,52.479,79.938z M47.366,79.81c0.146-0.089,0.178-0.276,0.107-0.404
			c0.555,0.06,1.105,0.108,1.648,0.168C48.263,79.632,47.544,79.701,47.366,79.81z M45.185,79.405c0.068-0.06,0.1-0.128,0.107-0.218
			c0.553,0.05,1.096,0.101,1.648,0.158C45.827,79.73,43.507,80.855,45.185,79.405z M17.759,77.264
			c0.682,0.089,1.361,0.188,2.033,0.286c-0.672-0.061-1.342-0.139-2.004-0.207C17.778,77.303,17.769,77.283,17.759,77.264
			L17.759,77.264z M29.946,78.389c1.955,0.079,3.918,0.158,5.873,0.236c-0.158,0.029-0.307,0.06-0.455,0.079
			c-0.02,0-0.029-0.011-0.049-0.011c-1.816-0.089-3.643-0.02-5.457-0.049C29.907,78.566,29.938,78.478,29.946,78.389z
			 M39.845,78.793c0.1,0,0.197,0.01,0.287,0.02c-0.336,0.011-0.682,0.021-1.018,0.03c0.01-0.03,0.02-0.05,0.031-0.079
			C39.372,78.773,39.61,78.783,39.845,78.793z M42.304,79.05c-0.01-0.039-0.02-0.069-0.041-0.099
			c0.168,0.01,0.346,0.028,0.514,0.038C42.62,79.011,42.462,79.03,42.304,79.05L42.304,79.05z M12.034,75.872
			c0-0.168,0-0.336,0-0.515c0.287,0.179,0.75,0.079,0.781-0.354c0.738-9.613,1.391-19.227,2.367-28.828
			c0.979-9.672,2.182-19.403,2.35-29.134c0.029,0,0.049,0.01,0.088,0c3.1-0.75,6.238,0.395,9.346,0.661
			c2.508,0.207,5.023,0.306,7.541,0.453c0.061,0.079,0.139,0.129,0.256,0.129c0.129,0,0.248,0,0.375,0.01
			c-0.168,2.645-0.305,5.29-0.473,7.904c-0.02,0.247,0.158,0.386,0.344,0.405c0.041,0.079,0.109,0.158,0.238,0.168
			c1.303,0.179,2.635,0.435,3.957,0.503c0.109,0.088,0.258,0.118,0.385-0.01c0.691-0.681,1.334-1.243,1.807-2.062
			c0.02,0.01,0.029,0.02,0.049,0.029c-0.039,0.73,0.168,1.362,0.514,1.975c-0.197,0.138-0.168,0.522,0.137,0.553
			c2.062,0.197,4.156,0.79,6.229,0.602c0.217-0.02,0.188-0.364-0.02-0.385c-0.061,0-0.107-0.01-0.168-0.02
			c0-0.011,0.01-0.021,0.01-0.029c0.08-0.454,0.139-0.908,0.197-1.362c0.029,0.04,0.051,0.089,0.068,0.128
			c0.129,0.296,0.582,0.079,0.455-0.217c-0.109-0.247-0.268-0.444-0.436-0.641c0.02-0.148,0.029-0.287,0.051-0.436
			c0.178,0.148,0.354,0.286,0.521,0.454c0.207,0.208,0.523-0.059,0.346-0.296c-0.236-0.306-0.514-0.573-0.789-0.839
			c0.01-0.06,0.01-0.109,0.02-0.168c0.109,0.108,0.207,0.217,0.316,0.326c0.156,0.158,0.395-0.049,0.266-0.228
			c-0.168-0.227-0.346-0.464-0.523-0.69c0.021-0.267,0.051-0.533,0.07-0.79c0.098,0.119,0.188,0.236,0.285,0.346
			c0.168,0.188,0.445-0.049,0.297-0.247c-0.188-0.247-0.354-0.514-0.521-0.78c0.01-0.157,0.027-0.306,0.037-0.464
			c0.09,0.118,0.168,0.247,0.268,0.355c0.188,0.208,0.494-0.06,0.326-0.286c-0.207-0.267-0.365-0.553-0.543-0.829
			c0.01-0.148,0.02-0.296,0.029-0.444c0.246,0.276,0.482,0.543,0.682,0.858c0.139,0.217,0.482,0.06,0.354-0.177
			C49.655,21,49.28,20.564,48.925,20.11c0.012-0.178,0.021-0.346,0.039-0.522c0.514,0.562,1.105,1.065,1.521,1.717
			c0.156,0.257,0.57,0.069,0.424-0.207c-0.453-0.829-1.154-1.53-1.807-2.201c-0.029-0.03-0.059-0.03-0.09-0.05
			c0.012-0.108,0.021-0.217,0.021-0.325c0.207,0.385,0.652,0.71,0.947,1.017c0.365,0.375,0.711,0.76,1.064,1.145
			c0.178,0.197,0.494-0.059,0.316-0.276c-0.355-0.443-0.711-0.907-1.115-1.321c-0.197-0.208-0.414-0.454-0.65-0.651
			c0.275,0,0.543,0.01,0.818,0.01c-0.039,0.021-0.068,0.029-0.1,0.069c-0.029,0.04-0.049,0.089-0.049,0.138
			c-0.02,0.139,0.068,0.228,0.188,0.286c0.691,0.336,1.312,0.721,1.758,1.372c0.146,0.217,0.482-0.02,0.375-0.247
			c-0.385-0.77-1.027-1.362-1.846-1.619c0.197,0,0.402,0.011,0.602,0.011c0.256,0.267,0.562,0.482,0.828,0.7
			c0.475,0.386,0.979,0.721,1.512,1.026c0.197,0.109,0.395-0.158,0.197-0.286c-0.504-0.335-0.979-0.729-1.441-1.115
			c-0.117-0.099-0.227-0.207-0.346-0.306c0.287,0.01,0.582,0.01,0.869,0.02c0.256,0.257,0.572,0.465,0.848,0.691
			c0.426,0.335,0.859,0.671,1.234,1.066c0.119,0.128,0.326-0.04,0.207-0.179c-0.326-0.395-0.701-0.739-1.104-1.065
			c-0.209-0.158-0.406-0.335-0.613-0.494c0.326,0.01,0.662,0.02,0.988,0.02c0,0.011,0,0.011,0.01,0.021
			c0.631,0.622,1.52,0.997,2.24,1.52c0.02,0.011,0.027-0.01,0.02-0.029c-0.592-0.493-1.166-1.165-1.875-1.5
			c3.809,0.099,7.609,0.267,11.418,0.543c-1.115,1.786-2.537,3.434-4.096,4.846c-0.346,0.315,0.158,0.79,0.475,0.454c0,0,0,0,0,0.01
			c0.305,0.424,0.67,0.829,1.064,1.214c-0.385-0.119-0.799-0.147-1.193-0.06c-0.455,0.099-1.215,0.306-1.352,0.818
			c-0.031,0.108,0.049,0.179,0.146,0.179c0.365-0.021,0.691-0.355,1.035-0.483c0.396-0.158,0.801-0.217,1.186-0.147
			c-0.207,0.138-0.424,0.267-0.66,0.346c-0.268,0.099-0.582,0.138-0.811,0.306c-0.146,0.1-0.039,0.316,0.109,0.336
			c0.314,0.039,0.709-0.128,0.984-0.267c0.307-0.148,0.572-0.335,0.83-0.562l0,0c0.01,0,0.01,0,0.02,0
			c0.068,0.04,0.129,0.011,0.178-0.02c0.238,0.217,0.475,0.424,0.721,0.622c-0.838-0.168-1.973-0.188-2.406,0.454
			c-0.051,0.068-0.029,0.198,0.068,0.217c0.404,0.099,0.721-0.099,1.115-0.197c0.443-0.108,0.857-0.157,1.281-0.099
			c-0.246,0.118-0.502,0.217-0.77,0.286c-0.287,0.068-0.621,0.089-0.809,0.326c-0.061,0.068-0.012,0.178,0.068,0.217
			c0.314,0.128,0.809-0.088,1.104-0.228c0.316-0.138,0.613-0.306,0.879-0.532h0.01c0.316,0.247,0.621,0.493,0.939,0.739
			c-0.682-0.157-1.451-0.128-1.885,0.355c-0.08,0.089,0.027,0.207,0.127,0.197c0.375-0.05,0.682-0.286,1.057-0.335
			c0.307-0.05,0.604-0.021,0.879,0.068c-0.188,0.04-0.375,0.119-0.553,0.208c-0.258,0.148-0.672,0.365-0.684,0.691
			c-0.01,0.079,0.051,0.147,0.131,0.158c0.275,0.029,0.502-0.258,0.709-0.415c0.275-0.207,0.562-0.346,0.898-0.365
			c0.314,0.257,0.621,0.522,0.908,0.78c0.236,0.217,0.453,0.454,0.68,0.681c-0.482-0.079-0.945,0-1.311,0.414
			c-0.07,0.089,0.027,0.208,0.117,0.188c0.514-0.099,0.947-0.395,1.5-0.217c0.041,0.01,0.068,0.029,0.109,0.04
			c0.088,0.1,0.188,0.188,0.275,0.276c-0.168,0-0.336,0-0.504,0.049c-0.275,0.069-0.643,0.158-0.682,0.483
			c-0.01,0.078,0.051,0.138,0.119,0.138c0.178,0.02,0.217-0.049,0.385-0.119c0.148-0.069,0.316-0.108,0.475-0.138
			c0.168-0.021,0.346-0.04,0.521-0.05c0.238,0.267,0.475,0.543,0.713,0.818c-0.07-0.04-0.141-0.068-0.219-0.079
			c-0.385-0.079-0.889,0-1.115,0.355c-0.049,0.068-0.01,0.188,0.09,0.188c0.494,0.011,1.113-0.434,1.391,0.148
			c-0.285,0.119-0.848,0.138-0.857,0.464c0,0.049,0.02,0.099,0.068,0.109c0.189,0.059,0.365-0.079,0.553-0.119
			c0.207-0.049,0.387-0.108,0.562-0.228c0.068-0.049,0.08-0.117,0.059-0.178c0.375,0.474,0.73,0.958,1.076,1.461
			c0.168,0.483,0.336,0.957,0.523,1.431c0.068,0.158,0.197,0.218,0.336,0.198c-0.414,3.829-1.707,7.461-2.223,11.271
			c-0.482,3.622-0.877,7.233-1.035,10.886c-0.324,7.609-0.375,15.209-0.889,22.808c-10.066-0.661-20.055-2.181-30.141-2.645
			c-4.875-0.217-9.771-0.326-14.646-0.701C20.009,76.879,15.952,75.862,12.034,75.872L12.034,75.872z"/>
		<path fill="#4361AD" d="M67.45,75.605c-0.336-0.138-0.828-0.602-0.789-0.986c0.01-0.068,0.078-0.129,0.146-0.1
			c0.443,0.188,0.771,1.194,1.332,0.651c-0.275-0.424-0.857-0.682-0.986-1.174c-0.029-0.1,0.08-0.188,0.168-0.148
			c0.275,0.108,0.475,0.375,0.672,0.592c0.178,0.198,0.336,0.405,0.434,0.643c0.07,0.05,0.109,0.139,0.039,0.218
			C68.2,75.635,67.864,75.773,67.45,75.605L67.45,75.605z M67.608,76.839c0.178,0.147-0.021,0.454-0.207,0.296
			c-0.336-0.266-0.613-0.582-0.859-0.928s-0.533-0.739-0.592-1.164c-0.021-0.079,0.088-0.168,0.158-0.108
			c0.266,0.228,0.424,0.562,0.611,0.858C66.966,76.188,67.253,76.543,67.608,76.839L67.608,76.839z"/>
		<path fill="#4361AD" d="M65.407,75.744c-0.061-0.119,0.059-0.219,0.178-0.198c0.404,0.099,0.721,0.483,0.996,0.771
			c0.375,0.386,0.701,0.799,1.047,1.214c0.188,0.228-0.146,0.514-0.346,0.296c-0.316-0.364-0.643-0.721-0.967-1.065
			C66.009,76.435,65.595,76.139,65.407,75.744L65.407,75.744z M64.864,76.593c-0.02-0.089,0.059-0.168,0.146-0.168
			c0.426-0.01,0.781,0.493,1.037,0.779c0.336,0.375,0.611,0.8,0.838,1.243c0.141,0.257-0.246,0.425-0.395,0.197
			c-0.246-0.385-0.533-0.75-0.838-1.096C65.397,77.254,64.944,76.978,64.864,76.593L64.864,76.593z M64.173,76.76
			c0-0.059,0.029-0.138,0.1-0.147c0.404-0.05,0.738,0.475,0.947,0.761c0.266,0.375,0.424,0.818,0.521,1.264
			c0.061,0.276-0.355,0.345-0.434,0.089c-0.119-0.405-0.307-0.78-0.543-1.126C64.597,77.343,64.204,77.076,64.173,76.76
			L64.173,76.76z M63.286,76.997c0.346-0.168,0.66,0.425,0.809,0.642c0.287,0.424,0.504,0.908,0.631,1.401
			c0.041,0.157-0.168,0.227-0.256,0.128C64.253,78.951,62.821,77.214,63.286,76.997L63.286,76.997z M62.614,78.093
			c0.314,0.118,0.494,0.395,0.85,0.454c0.246,0.039,0.227,0.414-0.031,0.395c-0.424-0.028-0.896-0.247-0.994-0.701
			C62.417,78.142,62.515,78.053,62.614,78.093z M30.618,75.586c-0.078-0.108,0.01-0.268,0.148-0.217
			c0.533,0.177,0.967,0.592,1.393,0.946c0.375,0.307,0.76,0.542,1.184,0.7c-0.316-0.276-0.623-0.553-0.908-0.839
			c-0.068-0.079,0-0.188,0.1-0.188c0.74,0.04,1.271,0.682,1.658,1.265c0.107,0.168-0.029,0.325-0.18,0.296
			C32.771,77.401,31.349,76.593,30.618,75.586z M29.247,75.211c-0.041-0.079,0.029-0.207,0.127-0.188
			c0.385,0.069,0.682,0.396,0.947,0.671c0.297,0.315,0.514,0.711,0.682,1.105c0.068,0.178-0.168,0.354-0.297,0.188
			c-0.227-0.306-0.453-0.611-0.701-0.897C29.759,75.832,29.396,75.556,29.247,75.211L29.247,75.211z M28.298,74.747
			c0.613,0.346,0.908,1.145,1.332,1.678c0.148,0.188-0.127,0.424-0.285,0.246c-0.455-0.503-0.986-1.135-1.205-1.786
			C28.091,74.776,28.2,74.688,28.298,74.747L28.298,74.747z M27.313,74.855c0.324,0.049,0.502,0.396,0.67,0.643
			c0.217,0.346,0.395,0.721,0.533,1.096c0.1,0.256-0.266,0.443-0.385,0.188c-0.148-0.307-0.316-0.583-0.494-0.868
			c-0.168-0.276-0.482-0.593-0.482-0.929C27.165,74.904,27.233,74.846,27.313,74.855L27.313,74.855z M26.571,76.02
			c0.168,0.139,0.256,0.316,0.365,0.494c0.068-0.108,0.107-0.228,0.129-0.375c0.029-0.188,0.295-0.168,0.285,0.02
			c-0.01,0.325-0.078,0.562-0.307,0.801c-0.068,0.067-0.207,0.059-0.256-0.021c-0.178-0.246-0.236-0.521-0.346-0.809
			C26.413,76.05,26.493,75.961,26.571,76.02L26.571,76.02z M23.493,74.154c0.365,0.229,0.592,0.622,0.828,0.987
			c0.068,0.099,0.119,0.217,0.188,0.315c0.109-0.197,0.336-0.307,0.555-0.425c-0.109-0.217-0.219-0.435-0.307-0.66
			c-0.029-0.079,0.068-0.148,0.117-0.079c0.148,0.188,0.297,0.375,0.445,0.562c0.02-0.02,0.039-0.028,0.059-0.05
			c0.039-0.059,0.148-0.078,0.178,0c0.078,0.188,0.107,0.375,0.148,0.553c0.197,0.268,0.375,0.533,0.523,0.829
			c0.107,0.218-0.189,0.396-0.346,0.229c-0.168-0.179-0.297-0.375-0.375-0.594c-0.119-0.196-0.236-0.395-0.346-0.592
			c-0.07,0.049-0.139,0.1-0.217,0.14c-0.109,0.059-0.229,0.117-0.277,0.235c-0.02,0.039-0.01,0.089,0,0.14
			c0.119,0.207,0.248,0.403,0.355,0.61c0.09,0.179-0.178,0.307-0.275,0.14c-0.217-0.365-0.416-0.73-0.643-1.086
			c-0.236-0.375-0.572-0.722-0.74-1.136C23.325,74.185,23.413,74.105,23.493,74.154L23.493,74.154z M22.604,74.046
			c0.611,0.415,0.77,1.54,0.879,2.211c0.039,0.217-0.307,0.346-0.387,0.128C22.97,76,22.86,75.596,22.712,75.211
			c-0.127-0.347-0.326-0.691-0.326-1.066C22.378,74.036,22.526,73.987,22.604,74.046L22.604,74.046z M21.026,73.464
			c0.324,0.227,0.463,0.642,0.631,0.987c0.227,0.482,0.434,0.967,0.68,1.431c0.129,0.247-0.256,0.425-0.385,0.188
			c-0.236-0.415-0.443-0.839-0.65-1.264c-0.188-0.385-0.465-0.799-0.484-1.233C20.817,73.464,20.956,73.414,21.026,73.464
			L21.026,73.464z M20.532,73.889c0.375,0.335,0.512,0.986,0.701,1.44c0.098,0.257-0.277,0.443-0.387,0.188
			c-0.107-0.276-0.227-0.553-0.334-0.829c-0.09-0.227-0.197-0.454-0.178-0.7C20.335,73.898,20.464,73.829,20.532,73.889z
			 M18.923,73.503c0.533,0.168,0.799,1.007,0.967,1.479c0.1,0.276-0.297,0.484-0.424,0.208c-0.119-0.257-0.227-0.514-0.365-0.761
			c-0.129-0.246-0.355-0.483-0.385-0.76C18.716,73.553,18.804,73.474,18.923,73.503L18.923,73.503z M17.128,73.711
			c0.068,0.267,0.088,0.621,0.305,0.809c0.17,0.148,0.396,0.197,0.623,0.218c-0.02-0.178-0.068-0.354-0.129-0.532
			c-0.059-0.148-0.127-0.268-0.127-0.426c0-0.099,0.1-0.138,0.178-0.117c0.482,0.107,0.562,0.938,0.553,1.321
			c-0.01,0.158-0.137,0.218-0.256,0.197c-0.404-0.039-0.869-0.099-1.166-0.404c-0.285-0.306-0.346-0.711-0.188-1.096
			C16.96,73.592,17.097,73.602,17.128,73.711L17.128,73.711z M44.583,6.058c-0.059-0.089,0.061-0.188,0.148-0.157
			c0.672,0.196,1.361,0.711,1.924,1.164c0.158-0.158,0.275-0.316,0.326-0.542c-0.129-0.138-0.258-0.276-0.404-0.395
			c-0.178-0.148-0.436-0.197-0.572-0.375c-0.039-0.05-0.049-0.148,0.01-0.188c0.475-0.326,1.076,0.424,1.344,0.74
			c0.066,0.089,0.059,0.188,0.01,0.256c-0.08,0.385-0.268,0.643-0.572,0.908c-0.068,0.059-0.168,0.059-0.238,0.01
			C45.935,7.035,45.007,6.719,44.583,6.058L44.583,6.058z M43.755,6.205c0.395,0.011,0.75,0.346,1.057,0.562
			c0.314,0.217,0.611,0.454,0.867,0.75c0.207,0.258-0.156,0.562-0.385,0.326c-0.266-0.275-0.592-0.464-0.928-0.661
			c-0.326-0.196-0.691-0.375-0.811-0.76C43.517,6.313,43.646,6.205,43.755,6.205z M37.794,18.917
			c-0.049-0.119,0.049-0.228,0.178-0.197c0.465,0.118,0.857,0.681,1.145,1.036c0.355,0.443,0.633,0.938,0.85,1.471
			c0.078,0.207-0.227,0.365-0.314,0.158c-0.219-0.494-0.504-0.928-0.859-1.342C38.493,19.687,37.96,19.351,37.794,18.917
			L37.794,18.917z M37.22,20.486c-0.029-0.06-0.01-0.147,0.061-0.178c0.424-0.168,0.896,0.268,1.164,0.562
			c0.307,0.345,0.482,0.799,0.582,1.243c0.068,0.276-0.355,0.355-0.424,0.09c-0.107-0.375-0.266-0.712-0.523-1.008
			C37.833,20.911,37.388,20.802,37.22,20.486L37.22,20.486z M37.192,21.897c0.227-0.049,0.354,0.069,0.531,0.207
			c0.238,0.178,0.465,0.355,0.713,0.515c0.246,0.157-0.012,0.532-0.258,0.375c-0.217-0.139-0.424-0.297-0.633-0.454
			c-0.188-0.148-0.402-0.247-0.463-0.484C37.063,21.986,37.112,21.907,37.192,21.897L37.192,21.897z M36.728,24.878
			c0.246-0.069,0.504-0.069,0.74-0.168c0.207-0.079,0.346-0.256,0.453-0.444c-0.305-0.267-0.789-0.434-0.947-0.799
			c-0.049-0.109,0.041-0.197,0.139-0.208c0.434-0.029,0.986,0.454,1.264,0.76c0.119,0.128,0.061,0.267-0.049,0.345
			c-0.316,0.572-0.939,1.026-1.619,0.73C36.599,25.056,36.618,24.907,36.728,24.878L36.728,24.878z M67.036,28.815
			c0.365-0.01,0.68,0.286,0.928,0.542c0.01,0,0.029,0,0.039,0c0.197,0.021,0.168,0.296-0.02,0.296
			c-0.277,0.011-0.523,0.079-0.771,0.197c-0.146,0.069-0.236,0.188-0.402,0.158c-0.07-0.01-0.131-0.069-0.119-0.148
			c0.029-0.395,0.631-0.503,1.057-0.513c-0.178-0.168-0.365-0.306-0.623-0.326c-0.354-0.03-0.602,0.316-0.908,0.424
			c-0.088,0.03-0.178-0.059-0.127-0.138C66.276,28.992,66.671,28.826,67.036,28.815L67.036,28.815z M17.837,48.189
			c-0.078,0.721-0.295,1.49-0.719,2.072c-0.061,0.089-0.229,0.039-0.209-0.069c0.119-0.7,0.465-1.321,0.533-2.032
			C17.462,47.912,17.858,47.942,17.837,48.189L17.837,48.189z"/>
	</g>
	<g enable-background="new    ">
		<path fill="#ED1C24" d="M25.368,50.242l1.766-0.157c0.08,0.71,0.277,1.282,0.582,1.735c0.307,0.454,0.781,0.819,1.422,1.097
			c0.641,0.276,1.361,0.415,2.17,0.415c0.713,0,1.344-0.108,1.887-0.316c0.543-0.207,0.957-0.503,1.223-0.868
			c0.268-0.365,0.406-0.77,0.406-1.214s-0.129-0.829-0.385-1.165c-0.258-0.335-0.682-0.611-1.273-0.828
			c-0.375-0.147-1.215-0.375-2.518-0.69s-2.209-0.603-2.725-0.878c-0.67-0.355-1.174-0.79-1.51-1.313
			c-0.334-0.521-0.492-1.104-0.492-1.756c0-0.711,0.207-1.382,0.611-2.004c0.406-0.622,0.998-1.095,1.775-1.411
			c0.781-0.326,1.639-0.483,2.598-0.483c1.045,0,1.973,0.167,2.771,0.503c0.801,0.337,1.412,0.829,1.848,1.491
			c0.434,0.651,0.66,1.401,0.689,2.23l-1.795,0.139c-0.1-0.889-0.424-1.569-0.977-2.022c-0.555-0.454-1.373-0.682-2.469-0.682
			c-1.135,0-1.953,0.208-2.467,0.622c-0.512,0.414-0.777,0.917-0.777,1.5c0,0.504,0.188,0.928,0.551,1.254
			c0.355,0.325,1.303,0.661,2.824,1.007c1.52,0.346,2.564,0.643,3.127,0.897c0.818,0.375,1.432,0.859,1.826,1.441
			c0.395,0.581,0.592,1.253,0.592,2.013c0,0.751-0.217,1.461-0.643,2.122c-0.434,0.661-1.045,1.185-1.854,1.55
			c-0.811,0.365-1.719,0.553-2.725,0.553c-1.283,0-2.35-0.188-3.217-0.562c-0.869-0.374-1.541-0.938-2.033-1.679
			C25.653,52.028,25.388,51.18,25.368,50.242z"/>
	</g>
	<g enable-background="new    ">
		<path fill="#ED1C24" d="M36.608,54.781l5.428-14.132h2.014l5.783,14.132H47.7l-1.646-4.282h-5.912l-1.549,4.282H36.608z
			 M40.685,48.979h4.785l-1.469-3.908c-0.455-1.185-0.781-2.161-1.008-2.931c-0.178,0.908-0.434,1.806-0.76,2.694L40.685,48.979z"/>
	</g>
	<g enable-background="new    ">
		<path fill="#ED1C24" d="M53.081,54.781V42.317h-4.658v-1.668h11.201v1.668h-4.678v12.464H53.081z"/>
	</g>
</g>
</svg>
