<?xml version="1.0" encoding="utf-8"?>
<!-- Generator: Adobe Illustrator 16.0.0, SVG Export Plug-In . SVG Version: 6.00 Build 0)  -->
<!DOCTYPE svg PUBLIC "-//W3C//DTD SVG 1.1//EN" "http://www.w3.org/Graphics/SVG/1.1/DTD/svg11.dtd">
<svg version="1.1" id="Layer_1" xmlns="http://www.w3.org/2000/svg" xmlns:xlink="http://www.w3.org/1999/xlink" x="0px" y="0px"
	 width="85px" height="85px" viewBox="0 0 85 85" enable-background="new 0 0 85 85" xml:space="preserve">
<g>
	<path fill="#8F5DAF" d="M42.501,81.275c-9.818,0-18.979-5.691-25.792-16.023c-6.551-9.938-10.228-23.135-10.351-37.16
		c-0.002-0.385,0.076-0.768,0.229-1.121c0.345-0.791,0.767-1.07,1.896-1.818c6.338-4.207,17.123-12.273,18.137-19.035
		c0.206-1.375,1.414-2.393,2.837-2.393h24.375c1.424,0,2.631,1.018,2.836,2.393c0.809,5.385,8.082,12.375,19.955,19.18
		c0.854,0.486,1.414,0.811,1.793,1.676c0.154,0.354,0.232,0.736,0.229,1.121c-0.123,14.025-3.799,27.223-10.35,37.158
		C61.48,75.586,52.32,81.275,42.501,81.275z"/>
	<g>
		<circle fill="#E28883" cx="33.333" cy="35.517" r="3.767"/>
		<circle fill="#E28883" cx="51.887" cy="35.517" r="3.767"/>
	</g>
	<path opacity="0.1" enable-background="new    " d="M21.831,65.252c-6.552-9.938-10.228-23.135-10.351-37.16
		c-0.002-0.385,0.076-0.766,0.229-1.119c0.345-0.791,0.767-1.072,1.896-1.82c6.338-4.207,17.123-12.271,18.137-19.035
		c0.205-1.373,1.414-2.393,2.837-2.393h-5.123c-1.423,0-2.632,1.02-2.837,2.393c-1.014,6.764-11.799,14.83-18.137,19.035
		c-1.129,0.75-1.551,1.029-1.896,1.82c-0.153,0.354-0.231,0.734-0.229,1.119c0.123,14.025,3.799,27.225,10.351,37.16
		C23.521,75.586,32.681,81.275,42.5,81.275c0.86,0,1.713-0.047,2.561-0.133C36.219,80.24,28.048,74.68,21.831,65.252z"/>
	<path fill="#53E7D3" d="M44.318,51.469c-0.553,0.199-1.15,0.311-1.774,0.311c-0.623,0-1.221-0.109-1.773-0.311
		c-4.504,3.617-7.209,8.799-7.137,13.818l0,0c0.008,0.25,0.082,1.605,0.24,2.305c0.006,0.039,0.01,0.062,0.016,0.084
		c0.008,0.039,0.018,0.078,0.03,0.115c1.024,4.08,4.56,6.922,8.626,6.922c4.092,0,7.647-2.881,8.645-7.006h-0.004
		c0.01-0.033,0.02-0.07,0.027-0.107c0.156-0.693,0.234-2.064,0.24-2.312l0,0C51.527,60.266,48.822,55.086,44.318,51.469z"/>
	<path opacity="0.1" enable-background="new    " d="M37.238,67.791c-0.012-0.037-0.022-0.076-0.03-0.115
		c-0.004-0.021-0.009-0.045-0.015-0.084c-0.157-0.699-0.233-2.055-0.24-2.305l0,0c-0.072-5.062,2.68-10.289,7.252-13.912
		c-0.348-0.273-0.701-0.539-1.068-0.795c-0.176-0.123-0.383-0.184-0.59-0.184s-0.416,0.061-0.592,0.184
		c-5.209,3.625-8.396,9.26-8.319,14.707l0,0c0.007,0.25,0.082,1.605,0.24,2.305c0.006,0.039,0.032,0.162,0.046,0.199
		c1.025,4.078,4.561,6.922,8.625,6.922c0.565,0,1.12-0.059,1.661-0.162C40.865,73.896,38.121,71.303,37.238,67.791z"/>
	<circle fill="#FFFFFF" cx="42.542" cy="65.554" r="5.2"/>
	<path opacity="0.1" enable-background="new    " d="M40.753,65.555c0-2.275,1.461-4.207,3.495-4.912
		c-0.533-0.188-1.105-0.289-1.704-0.289c-2.873,0-5.201,2.328-5.201,5.201s2.328,5.201,5.201,5.201c0.596,0,1.17-0.104,1.704-0.289
		C42.216,69.762,40.753,67.83,40.753,65.555z"/>
	<g>
		<circle fill="#EFBA50" cx="60.229" cy="26.204" r="3.767"/>
		<circle fill="#EFBA50" cx="24.861" cy="26.204" r="3.767"/>
	</g>
	<circle fill="#FDF276" cx="42.542" cy="46.578" r="5.201"/>
	<path opacity="0.1" enable-background="new    " d="M40.753,46.578c0-2.275,1.461-4.207,3.495-4.914
		c-0.533-0.186-1.105-0.285-1.704-0.285c-2.873,0-5.201,2.326-5.201,5.199c0,2.871,2.328,5.199,5.201,5.199
		c0.596,0,1.17-0.102,1.704-0.287C42.216,50.785,40.753,48.852,40.753,46.578z"/>
	<path d="M79.535,26.482c-0.539-1.236-1.396-1.727-2.305-2.248c-11.377-6.52-18.611-13.359-19.354-18.299
		C57.582,3.979,55.844,2.5,53.828,2.5h-9.205c-0.678,0-1.225,0.549-1.225,1.225c0,0.678,0.547,1.225,1.225,1.225h9.205
		c0.812,0,1.512,0.582,1.627,1.352c0.537,3.586,3.5,7.658,8.572,11.908c-0.631,1.131-1.299,2.244-2.004,3.34
		c-0.557-0.215-1.164-0.336-1.797-0.336c-2.752,0-4.992,2.238-4.992,4.992c0,1.131,0.379,2.172,1.014,3.01
		c-0.596,0.68-1.207,1.348-1.832,2.004c-0.742-0.439-1.607-0.691-2.529-0.691c-2.754,0-4.992,2.238-4.992,4.992
		c0,0.764,0.174,1.49,0.48,2.139c-1.145,0.91-2.32,1.787-3.527,2.629c-0.422-0.086-0.858-0.133-1.305-0.133
		c-0.445,0-0.881,0.047-1.303,0.133c-1.176-0.818-2.32-1.672-3.437-2.555c0.332-0.668,0.519-1.418,0.519-2.213
		c0-0.85-0.217-1.691-0.631-2.43c-0.33-0.59-1.074-0.803-1.666-0.473c-0.59,0.33-0.801,1.074-0.473,1.666
		c0.209,0.375,0.32,0.803,0.32,1.236c0,1.402-1.141,2.543-2.543,2.543s-2.543-1.141-2.543-2.543s1.141-2.543,2.543-2.543
		c0.676,0,1.225-0.547,1.225-1.225s-0.548-1.225-1.225-1.225c-0.959,0-1.855,0.271-2.617,0.742
		c-0.641-0.672-1.266-1.357-1.875-2.053c0.637-0.838,1.014-1.881,1.014-3.012c0-2.752-2.238-4.992-4.992-4.992
		c-0.635,0-1.244,0.121-1.803,0.338c-0.89-1.383-1.718-2.799-2.488-4.238c4.338-4.104,6.781-7.807,7.262-11.014
		c0.115-0.77,0.814-1.35,1.626-1.35h10.269c0.676,0,1.225-0.549,1.225-1.225c0-0.678-0.547-1.225-1.223-1.225H29.456
		c-2.015,0-3.754,1.477-4.048,3.436c-0.689,4.598-7.105,11.229-17.604,18.197c-1.193,0.791-1.851,1.229-2.34,2.35
		c-0.225,0.516-0.336,1.061-0.331,1.621c0.125,14.26,3.873,27.691,10.552,37.822C22.734,76.613,32.257,82.5,42.501,82.5
		c10.245,0,19.766-5.887,26.815-16.574c2.799-4.244,5.1-9.086,6.836-14.393c0.211-0.643-0.141-1.334-0.783-1.545
		c-0.643-0.209-1.334,0.143-1.545,0.783c-1.668,5.098-3.873,9.742-6.553,13.805c-6.58,9.98-15.377,15.475-24.77,15.475
		c-9.395,0-18.191-5.496-24.771-15.475C11.308,54.836,7.705,41.873,7.583,28.08c-0.002-0.213,0.041-0.422,0.127-0.619
		c0.189-0.436,0.342-0.555,1.45-1.289c2.608-1.732,6.214-4.283,9.536-7.168c0.738,1.346,1.527,2.67,2.363,3.969
		c-0.742,0.871-1.19,2-1.19,3.23c0,2.752,2.239,4.992,4.991,4.992c0.736,0,1.436-0.162,2.065-0.449
		c0.675,0.773,1.37,1.533,2.083,2.279c-0.425,0.734-0.669,1.584-0.669,2.492c0,2.752,2.239,4.992,4.992,4.992
		c1.071,0,2.065-0.342,2.88-0.918c0.805,0.637,1.623,1.26,2.457,1.865c-1.547,1.176-2.549,3.033-2.549,5.121
		c0,2.082,0.997,3.938,2.537,5.111c-3.979,3.758-6.317,8.748-6.248,13.615c0.006,0.428,0.047,0.857,0.087,1.283
		c0.048,0.51,0.094,1.047,0.245,1.537c1.173,4.602,5.199,7.812,9.803,7.812c4.659,0,8.704-3.266,9.836-7.941
		c0.135-0.547,0.188-1.111,0.234-1.672c0.029-0.338,0.064-0.682,0.064-1.02c0.021-1.607-0.215-3.248-0.707-4.873
		c-0.195-0.648-0.879-1.016-1.525-0.818c-0.646,0.195-1.014,0.879-0.816,1.527c0.418,1.385,0.619,2.771,0.602,4.113
		c-0.021,0.758-0.125,1.5-0.252,2.244c-0.891,3.531-3.938,5.988-7.436,5.988c-3.492,0-6.55-2.465-7.438-5.996
		c-0.183-0.727-0.229-1.508-0.25-2.254c-0.053-4.457,2.281-9.062,6.193-12.412c0.479,0.115,0.979,0.178,1.492,0.178
		c0.516,0,1.014-0.062,1.493-0.178c1.584,1.359,2.938,2.945,3.969,4.67c0.348,0.58,1.1,0.77,1.68,0.422
		c0.58-0.346,0.77-1.098,0.422-1.68c-0.984-1.648-2.234-3.186-3.676-4.547c1.541-1.174,2.539-3.029,2.539-5.113
		c0-2.088-1.002-3.945-2.549-5.121c0.854-0.621,1.695-1.258,2.52-1.914c0.826,0.607,1.846,0.967,2.947,0.967
		c2.752,0,4.99-2.238,4.99-4.992c0-0.943-0.262-1.826-0.719-2.578c0.686-0.719,1.354-1.451,2.002-2.193
		c0.631,0.287,1.33,0.449,2.066,0.449c2.754,0,4.992-2.24,4.992-4.992c0-1.232-0.451-2.361-1.193-3.234
		c0.678-1.053,1.324-2.123,1.939-3.207c2.828,2.176,6.189,4.387,10.047,6.598c0.824,0.473,1.072,0.629,1.279,1.104
		c0.086,0.197,0.129,0.406,0.127,0.619c-0.055,6.221-0.812,12.289-2.256,18.039c-0.164,0.654,0.234,1.32,0.893,1.484
		c0.1,0.025,0.199,0.037,0.299,0.037c0.547,0,1.047-0.371,1.186-0.926c1.488-5.938,2.271-12.199,2.328-18.613
		C79.873,27.545,79.762,26.998,79.535,26.482C78.996,25.246,79.762,26.998,79.535,26.482C78.996,25.246,79.762,26.998,79.535,26.482
		z M24.861,28.746c-1.402,0-2.543-1.141-2.543-2.543c0-1.4,1.142-2.543,2.543-2.543c1.402,0,2.543,1.143,2.543,2.543
		C27.404,27.605,26.263,28.746,24.861,28.746z M46.521,46.578c0,2.191-1.783,3.977-3.977,3.977c-2.191,0-3.977-1.783-3.977-3.977
		s1.785-3.977,3.977-3.977C44.736,42.602,46.521,44.385,46.521,46.578z M51.887,38.061c-1.402,0-2.543-1.141-2.543-2.543
		s1.141-2.543,2.543-2.543s2.543,1.141,2.543,2.543S53.289,38.061,51.887,38.061z M60.229,28.746c-1.402,0-2.543-1.141-2.543-2.543
		c0-1.4,1.141-2.543,2.543-2.543s2.543,1.143,2.543,2.543C62.771,27.605,61.631,28.746,60.229,28.746z"/>
	<path d="M42.544,59.131c-3.541,0-6.425,2.881-6.425,6.424s2.882,6.426,6.425,6.426c3.543,0,6.426-2.883,6.426-6.426
		S46.088,59.131,42.544,59.131z M42.544,69.531c-2.191,0-3.977-1.785-3.977-3.977c0-2.193,1.785-3.977,3.977-3.977
		c2.192,0,3.977,1.783,3.977,3.977C46.521,67.746,44.736,69.531,42.544,69.531z"/>
</g>
</svg>
