<?xml version="1.0" encoding="utf-8"?>
<!-- Generator: Adobe Illustrator 16.0.0, SVG Export Plug-In . SVG Version: 6.00 Build 0)  -->
<!DOCTYPE svg PUBLIC "-//W3C//DTD SVG 1.1//EN" "http://www.w3.org/Graphics/SVG/1.1/DTD/svg11.dtd">
<svg version="1.1" id="Layer_1" xmlns="http://www.w3.org/2000/svg" xmlns:xlink="http://www.w3.org/1999/xlink" x="0px" y="0px"
	 width="85px" height="85px" viewBox="0 0 85 85" enable-background="new 0 0 85 85" xml:space="preserve">
<g>
	<path fill="#FED2A1" d="M81.107,67.581l-0.027-0.013l-7.744-2.64c-0.24-0.102-0.41-0.291-0.5-0.521
		c-0.088-0.223-0.092-0.479,0.012-0.717l0.006-0.018c0.205-0.479,0.236-0.907,0.717-0.701c1.254,0.641,6.562,2.334,8.068,2.813
		c0.773,0.222,0.908,0.838,0.713,1.282l-0.006,0.018C82.141,67.566,81.588,67.786,81.107,67.581z"/>
	<path fill="#FED2A1" d="M82.393,69.965c-0.232,0.466-0.799,0.654-1.266,0.421l-6.842-3.417c-0.465-0.232-0.654-0.798-0.424-1.262
		l0.01-0.019c0.232-0.465,0.797-0.653,1.262-0.422l6.846,3.418c0.467,0.232,0.654,0.797,0.422,1.263L82.393,69.965L82.393,69.965z"
		/>
	<path fill="#FED2A1" d="M73.043,67.335l0.01-0.018c0.248-0.456,0.82-0.624,1.277-0.377l6.086,3.315
		c0.455,0.249,0.623,0.82,0.375,1.276l-0.008,0.017c-0.25,0.457-0.82,0.625-1.277,0.377l-6.086-3.314
		C72.963,68.363,72.795,67.792,73.043,67.335z"/>
	<path fill="#F3C899" d="M67.85,67.299l-3.789-1.34l1.377-4.448l3.246,1.329c0.525-0.84,5.227-0.207,5.227-0.207
		c0.785,0.226,1.553,0.851,2.656,1.487c-0.465,2.643-1.83,4.9-3.137,6.458c0,0-1.799-0.573-2.389-0.791
		C68.893,68.995,68.213,68.062,67.85,67.299L67.85,67.299z"/>
	<path fill="#FED2A1" d="M78.322,61.807v0.021c-0.002,0.55-0.443,0.821-0.992,0.877c-0.697,0.068-2.334-0.025-3.17-0.082
		c0.016,0.028-1.369,3.617-3.92,3.331c-0.004-0.001-0.006-0.003-0.01-0.005l-5.912-1.288l1.432-3.608l3.521,1.105
		c0.891-1.361,3.266-1.599,3.67-1.606c0.799-0.018,2.455,0.412,4.092,0.283C78.18,60.744,78.324,61.26,78.322,61.807L78.322,61.807z
		"/>
	<path fill="#065C6B" d="M50.631,57.771c-0.742-3.575-1.662-13.644-2.627-16.593c-0.715-2.183-0.781-2.472-2.314-4.186
		c-0.686-0.771-5.811-3.473-8.254-5.241c-5.215,5.423-2.736,14.184-0.65,21.066c0.094,0.327,0.195,0.646,0.301,0.97
		c0.014,0.035,0.021,0.07,0.035,0.105c0.064,0.21,0.135,0.419,0.203,0.633c0.9,2.789,1.965,5.669,2.881,8.619
		c0.58,1.86,1.504,2.671,3.049,3.367l7.463-8.727C50.689,57.781,50.656,57.774,50.631,57.771z"/>
	<path fill="#EDEDED" d="M64.021,68.605l0.879-7.713l4.336,0.388l-0.768,7.832L64.021,68.605z"/>
	<path fill="#065C6B" d="M66.096,69.372c-0.037,0.018-0.162,0.011-0.365,0.006c-2.17-0.126-16.615-2.745-21.527-3.556
		c-1.258-0.207-2.113-0.371-2.318-0.451c-0.367-0.156-0.707-0.303-1.02-0.457l5.094-5.698l2.557-2.862
		c3.15,0.651,15.125,4.076,18.701,4.437C66.914,64.335,66.463,66.975,66.096,69.372L66.096,69.372z"/>
	<path fill="#FFFFFF" d="M64.604,67.585c-0.125,0.32-0.49,0.479-0.812,0.354s-0.48-0.491-0.354-0.812c0,0,0,0,0-0.001
		c0.125-0.322,0.49-0.48,0.812-0.354S64.732,67.262,64.604,67.585L64.604,67.585z M62.422,67.398
		c-0.127,0.322-0.492,0.48-0.814,0.354c-0.322-0.127-0.48-0.492-0.354-0.813s0.492-0.479,0.812-0.354
		C62.391,66.712,62.549,67.076,62.422,67.398z"/>
	<polygon opacity="0.3" fill="#231F20" enable-background="new    " points="43.852,43.699 44.061,65.793 65.637,69.382 
		47.607,62.785 	"/>
	<path fill="#EDEDED" d="M10.426,81.274h37.809c-0.498-5.811-9.869-47.159-9.869-47.159l-4.111-0.653l-12.367-1.988
		C21.889,31.474,10.342,76.013,10.426,81.274L10.426,81.274z"/>
	<path fill="#065C6B" d="M21.889,31.474l-10.443,4.96c-0.299,3.327-0.479,6.69-0.777,10.302C9.369,62.612,8.703,76.012,8.785,81.273
		h19.797c-0.219-20.659-0.9-40.286-6.145-49.713L21.889,31.474z M43.301,37.13l-0.633-0.385l-4.303-2.628l-0.588-0.094v47.252
		h10.457C47.736,75.465,43.371,40.083,43.301,37.13L43.301,37.13z"/>
	<path opacity="0.3" fill="#231F20" enable-background="new    " d="M9.467,49.006L8.928,81.188c0,0,3.861-7.002,19.57-14.497
		l-1.525-12.028l-8.527,1.841l0.225-9.472L9.467,49.006z"/>
	<path fill="#FED2A1" d="M72.309,68.834l0.01-0.015c0.256-0.385,0.771-0.49,1.158-0.235l4.186,2.771
		c0.383,0.255,0.49,0.772,0.234,1.156c0,0.001,0,0.002,0,0.002l-0.01,0.015c-0.256,0.386-0.773,0.49-1.158,0.235l-4.186-2.77
		C72.158,69.736,72.053,69.219,72.309,68.834L72.309,68.834z"/>
	<path fill="#F3C899" d="M24.463,29.635l1.02-10.305c4.396,0.519,10.291,1.111,11.336,1.034c0,0-0.656,7.01-0.666,10.253
		C36.842,39.057,27.062,39.229,24.463,29.635z"/>
	<path fill="#E75025" d="M31.221,41.095l2.662-0.275l0.559-5.296c-2.076,0.329-3.223,0.294-4.146,0.172L31.221,41.095L31.221,41.095
		z"/>
	<path fill="#DBDADA" d="M32.227,35.647l4.396,4.531c0.561-2.558,1.887-5.059,1.596-6.616l-2.055-3.801
		C36.381,31.537,34.104,35.06,32.227,35.647z"/>
	<path fill="#DBDADA" d="M32.227,35.647l-3.219,5.172c-3.096-3.041-6.312-6.417-7.121-9.345l2.686-2.945
		C24.57,31.166,28.719,35.79,32.227,35.647L32.227,35.647z"/>
	<path fill="#CF4827" d="M31.221,41.095l2.662-0.275l2.031,24.434l-2.715,4.267l-2.904-3.442L31.221,41.095z"/>
	<path fill="#077082" d="M28.104,62.229c-2.266-8.071-7.855-22.949-7.855-22.949s3.559-1.849,3.307-2.131l-3.908,0.139l0.707-5.084
		l3.588-2.982C26.77,38.566,28.34,51.91,28.104,62.229z M37.777,61.979c2.264-8.07,4.471-23.187,4.471-23.187
		s-3.361-1.238-3.111-1.521l2.836-0.344l-2.766-3.828l-3.043-3.337C37.123,39.087,37.539,51.66,37.777,61.979z"/>
	<path fill="#065C6B" d="M14.139,61.992c0,0,4.619-14.087,4.822-16.75c0.201-2.664-0.891-5.255-2.645-7.183
		c-1.756-1.927-4.107-2.546-6.109-0.911c-1.521,1.243-2.838,3.359-3.273,5.339C5.424,49.36,3.01,58.663,2.535,65.464
		C2.012,72.948,7.49,72.8,7.748,73.348l7.398-8.784C15.092,64.532,14.139,61.992,14.139,61.992L14.139,61.992z"/>
	<g>
		<path fill="#F3C899" d="M29.42,54.624c-0.006-0.005-0.012-0.011-0.02-0.015c-0.572-0.335-0.691-1.078-0.311-1.653
			c1.447-2.231,2.604-4.539,3.479-6.864c0.234-0.604,0.896-0.918,1.516-0.717c0.008,0.003,0.018,0.005,0.023,0.008
			c0.619,0.2,0.949,0.871,0.703,1.512c-0.908,2.447-2.105,4.875-3.602,7.222C30.812,54.728,29.992,54.959,29.42,54.624L29.42,54.624
			z"/>
		<path fill="#3D3D3C" d="M40.076,36.586c-0.109,2.122-1.918,3.754-4.039,3.645c-2.121-0.107-3.752-1.917-3.645-4.038
			c0.109-2.121,1.918-3.753,4.037-3.645C38.553,32.656,40.186,34.465,40.076,36.586L40.076,36.586z"/>
		<path fill="#C7C6C6" d="M38.475,40.094l-0.143,1.738l-0.115,1.229L36.953,58.1l-3.648-0.188l0.277-15.088l0.01-1.235l0.037-1.743
			L38.475,40.094z"/>
		<path fill="#585857" d="M38.221,41.821l-4.518-0.231c-0.217-0.011-0.383-0.196-0.373-0.413c0,0,0,0,0-0.001l0.107-2.095
			l5.305,0.271l-0.107,2.094C38.625,41.665,38.439,41.832,38.221,41.821L38.221,41.821z"/>
		<path fill="#C7C6C6" d="M38.768,39.951l-5.414-0.277l-0.344-1.211l6.219,0.318L38.768,39.951z"/>
		<path fill="#3D3D3C" d="M38.332,41.831l-0.115,1.229l-4.635-0.236l0.012-1.235L38.332,41.831z"/>
		<path fill="#FED2A1" d="M29.906,61.698l-4.182-4.813l4.395-3.818l4.182,4.814L29.906,61.698z"/>
		<path fill="#F3C899" d="M30.871,52.435l-0.014-0.016c-0.395-0.454-0.348-1.144,0.107-1.535l6.646-5.774
			c0.453-0.395,1.141-0.347,1.535,0.108l0.016,0.016c0.393,0.454,0.346,1.143-0.109,1.535l-6.645,5.774
			C31.953,52.938,31.266,52.889,30.871,52.435L30.871,52.435z"/>
		<path fill="#F3C899" d="M34.582,52.065l-0.014-0.016c-0.395-0.454-0.346-1.142,0.107-1.536l3.062-2.659
			c0.455-0.395,1.141-0.347,1.535,0.108l0.016,0.016c0.395,0.454,0.346,1.143-0.107,1.536l-3.062,2.659
			C35.664,52.568,34.977,52.521,34.582,52.065L34.582,52.065z"/>
		<path fill="#F3C899" d="M35.525,54.094l-0.016-0.016c-0.395-0.454-0.346-1.143,0.107-1.536l2.566-2.229
			c0.453-0.395,1.141-0.347,1.535,0.106l0.016,0.018c0.395,0.454,0.346,1.142-0.107,1.535l-2.566,2.229
			C36.605,54.597,35.918,54.549,35.525,54.094L35.525,54.094z"/>
		<path fill="#F3C899" d="M36.334,56.1l-0.014-0.015c-0.35-0.403-0.307-1.015,0.096-1.364l2.279-1.98
			c0.404-0.35,1.014-0.307,1.365,0.098l0.012,0.014c0.35,0.403,0.307,1.014-0.096,1.364l-1.912,2.001
			C37.66,56.565,36.684,56.504,36.334,56.1L36.334,56.1z"/>
		<path fill="#FED2A1" d="M30.939,58.074l-1.406-1.617c-1.16-1.336-1.02-3.358,0.316-4.52l1.979-1.719l5.607,6.454l-1.979,1.718
			C34.123,59.552,32.1,59.41,30.939,58.074z"/>
		<path fill="#FED2A1" d="M37.135,56.934l1.471-1.277c0.402-0.35,0.445-0.96,0.096-1.362l-0.014-0.017
			c-0.35-0.401-0.959-0.443-1.363-0.095l0.268-0.231c0.453-0.396,0.502-1.082,0.107-1.535l-0.014-0.019
			c-0.396-0.453-1.082-0.501-1.537-0.106l0.248-0.215c0.455-0.396,0.502-1.082,0.107-1.535l-0.014-0.019
			c-0.395-0.453-1.082-0.501-1.537-0.106c0.455-0.395,0.502-1.081,0.109-1.536l-0.016-0.017c-0.395-0.453-1.082-0.502-1.537-0.107
			l-1.984,1.725L37.135,56.934z"/>
		<g>
			<path fill="#EDEDED" d="M29.127,62.843l-4.252-6.493l3.582-2.473l4.418,6.513L29.127,62.843z"/>
		</g>
		<path fill="#065C6B" d="M10.742,60.029L7.748,73.348c4.75,1.129,16.688-5.354,24.277-11.207l-4.965-7.302
			C19.262,58.11,11.627,59.69,10.742,60.029z"/>
		<path fill="#FFFFFF" d="M29.787,61.978c0.107,0.329-0.072,0.686-0.4,0.793c-0.33,0.108-0.684-0.071-0.793-0.399
			c-0.107-0.328,0.07-0.684,0.4-0.791c0-0.001,0-0.001,0-0.001C29.322,61.471,29.678,61.648,29.787,61.978z M27.99,63.23
			c0.107,0.329-0.072,0.685-0.4,0.792c-0.33,0.107-0.684-0.071-0.793-0.399l0,0c-0.107-0.329,0.072-0.685,0.4-0.792
			C27.527,62.723,27.881,62.9,27.99,63.23L27.99,63.23z"/>
	</g>
	<g>
		<path fill="#FED2A1" d="M30.307,4.811c-5.322,0.145-9.457,3.777-8.867,10.072c0.068,0.729,0.174,1.428,0.34,2.159
			c-1.205-0.635-2.207,0.569-1.734,2.351c0.334,1.255,1.002,2.935,1.711,3.167c0.85,0.281,1.088-0.25,1.137-0.269
			c0.432,1.811,0.635,3.434,1.312,4.381c0.805,1.121,1.424,1.963,1.996,2.594c1.297,1.431,2.348,1.763,4.736,1.704h0.014
			c0.006,0,0.01,0,0.014-0.001c2.391-0.058,3.422-0.442,4.646-1.934c0.541-0.659,1.119-1.531,1.867-2.689
			c0.631-0.979,0.754-2.61,1.096-4.441c0.049,0.016,0.312,0.534,1.148,0.213c0.695-0.27,1.281-1.979,1.551-3.249
			c0.385-1.803-0.676-2.955-1.848-2.263c0.129-0.736,0.199-1.439,0.232-2.172C39.939,8.117,35.629,4.691,30.307,4.811z"/>
		<path fill="#3D3D3C" d="M22.699,6.879c-1.971,2.445-2.533,5.117-1.582,9.993c0.812,0.425,1.254,1.009,1.635,3.433
			c0.586,0.146,0.838,0.177,1.373,0.341C20.543,7.759,25.566,7.375,26.939,7.062c1.117-0.254,5.713-0.367,6.84-0.168
			c1.387,0.243,6.424,0.379,3.48,13.427c0.525-0.19,0.777-0.233,1.355-0.407c0.26-2.44,0.672-3.045,1.465-3.512
			c0.707-4.916-0.238-7.354-2.072-9.901C35.461,2.962,26.221,2.509,22.699,6.879z"/>
		<path fill="#3D3D3C" d="M33.48,4.734c0.676-0.014,1.449,0.012,1.887,0.527c0.541,0.641,0.236,1.622-0.18,2.35
			c-1.684,2.955-4.365,5.726-8.238,5.955c0.416-0.341,1.125-1.018,1.25-1.641c-2.064,0.99-4.467,1.257-6.699,0.747
			c0.633-1.918,1.314-3.912,2.744-5.337c1.164-1.157,2.736-1.836,4.34-2.182S31.84,4.771,33.48,4.734z"/>
	</g>
</g>
</svg>
