<?xml version="1.0" encoding="utf-8"?>
<!-- Generator: Adobe Illustrator 16.0.0, SVG Export Plug-In . SVG Version: 6.00 Build 0)  -->
<!DOCTYPE svg PUBLIC "-//W3C//DTD SVG 1.1//EN" "http://www.w3.org/Graphics/SVG/1.1/DTD/svg11.dtd">
<svg version="1.1" id="Layer_1" xmlns="http://www.w3.org/2000/svg" xmlns:xlink="http://www.w3.org/1999/xlink" x="0px" y="0px"
	 width="85px" height="85px" viewBox="0 0 85 85" enable-background="new 0 0 85 85" xml:space="preserve">
<g>
	<path fill-rule="evenodd" clip-rule="evenodd" fill="#E5D9D4" d="M7.849,57.599h12.417v-2.631H7.849V57.599L7.849,57.599z
		 M29.028,70.214H39.87V67.17H29.028V70.214z"/>
	<path fill-rule="evenodd" clip-rule="evenodd" fill="#E5D9D4" d="M59.072,32.334c3.733,2.155,7.464,4.31,11.197,6.465
		c3.73,2.154,7.464,4.308,11.199,6.465c1.484,0.857,1.35,2.346-0.302,3.299c-6.415,3.703-12.833,7.409-19.24,11.108
		c-6.409,3.7-12.827,7.406-19.237,11.107c-1.651,0.952-4.216,1.027-5.698,0.171c-3.735-2.157-7.472-4.313-11.205-6.469
		c-3.735-2.156-7.469-4.312-11.202-6.468c-1.484-0.856-1.346-2.328,0.304-3.28c6.41-3.701,12.83-7.407,19.243-11.11
		c6.41-3.702,12.831-7.407,19.244-11.11C55.024,31.56,57.586,31.476,59.072,32.334z"/>
	<g>
		<path fill-rule="evenodd" clip-rule="evenodd" fill="#B24D26" d="M41.999,14.69h6.268L47.01,34.96
			c-0.088,1.412-3.668,1.404-3.755,0L41.999,14.69z"/>
		<path fill-rule="evenodd" clip-rule="evenodd" fill="#89381D" d="M42.719,26.318c0.105-2.389,4.494-0.048,4.633,3.116l0.54-8.705
			l-5.501,0.295L42.719,26.318z"/>
	</g>
	<g>
		<path fill-rule="evenodd" clip-rule="evenodd" fill="#B24D26" d="M63.052,27.311h6.269l-1.257,20.271
			c-0.087,1.411-3.668,1.403-3.755,0L63.052,27.311z"/>
		<path fill-rule="evenodd" clip-rule="evenodd" fill="#89381D" d="M63.772,38.938c0.105-2.389,4.495-0.048,4.634,3.116l0.54-8.705
			l-5.502,0.295L63.772,38.938z"/>
	</g>
	<g>
		<path fill-rule="evenodd" clip-rule="evenodd" fill="#B24D26" d="M23.965,25.102h6.269l-1.257,20.271
			c-0.087,1.411-3.668,1.403-3.755,0L23.965,25.102z"/>
		<path fill-rule="evenodd" clip-rule="evenodd" fill="#89381D" d="M24.686,36.729c0.105-2.389,4.494-0.048,4.633,3.116l0.54-8.706
			l-5.501,0.295L24.686,36.729z"/>
	</g>
	<g>
		<path fill-rule="evenodd" clip-rule="evenodd" fill="#B24D26" d="M45.019,37.722h6.269l-1.257,20.27
			c-0.087,1.412-3.668,1.404-3.755,0L45.019,37.722z"/>
		<path fill-rule="evenodd" clip-rule="evenodd" fill="#89381D" d="M45.739,49.351c0.105-2.39,4.495-0.048,4.634,3.115l0.54-8.705
			l-5.502,0.295L45.739,49.351z"/>
	</g>
	<g>
		<path fill-rule="evenodd" clip-rule="evenodd" fill="#B24D26" d="M4.612,36.274h6.269L9.625,56.545
			c-0.087,1.411-3.668,1.403-3.755,0L4.612,36.274z"/>
		<path fill-rule="evenodd" clip-rule="evenodd" fill="#89381D" d="M5.333,47.902c0.105-2.389,4.494-0.048,4.634,3.116l0.54-8.706
			l-5.501,0.295L5.333,47.902z"/>
	</g>
	<g>
		<path fill-rule="evenodd" clip-rule="evenodd" fill="#B24D26" d="M25.667,48.896h6.269l-1.257,20.27
			c-0.087,1.412-3.667,1.404-3.755,0L25.667,48.896z"/>
		<path fill-rule="evenodd" clip-rule="evenodd" fill="#89381D" d="M26.388,60.523c0.105-2.389,4.494-0.048,4.633,3.116l0.54-8.706
			l-5.502,0.295L26.388,60.523z"/>
	</g>
	<path fill-rule="evenodd" clip-rule="evenodd" fill="#CC622C" d="M48.018,18.229c3.733,2.155,7.464,4.31,11.196,6.465l8.709,5.027
		l3.503-1.029v3.734c0.117,0.703-0.327,1.463-1.313,2.032c-6.415,3.703-12.833,7.409-19.24,11.108
		c-6.41,3.7-12.827,7.406-19.237,11.107c-1.651,0.953-4.216,1.027-5.698,0.171c-3.735-2.157-7.472-4.312-11.205-6.469
		c-3.736-2.156-7.469-4.312-11.202-6.468c-0.656-0.378-0.995-0.877-1.026-1.398H2.5v-0.074c0-0.009,0-0.018,0-0.027v-4.187
		l3.761,1.003c5.602-3.234,11.21-6.472,16.814-9.708c6.41-3.701,12.831-7.407,19.244-11.11
		C43.969,17.455,46.531,17.371,48.018,18.229z"/>
	<path fill-rule="evenodd" clip-rule="evenodd" fill="#F8AD87" d="M48.018,14.596c3.733,2.155,7.464,4.31,11.196,6.465
		c3.73,2.154,7.464,4.309,11.2,6.466c1.484,0.857,1.35,2.346-0.302,3.298c-6.415,3.703-12.833,7.409-19.24,11.108
		c-6.41,3.701-12.827,7.407-19.238,11.108c-1.65,0.953-4.216,1.026-5.698,0.171c-3.735-2.157-7.472-4.313-11.205-6.469
		c-3.736-2.157-7.469-4.313-11.203-6.468c-1.484-0.857-1.345-2.328,0.304-3.281c6.409-3.701,12.829-7.407,19.243-11.11
		c6.41-3.701,12.831-7.407,19.244-11.11C43.969,13.821,46.531,13.738,48.018,14.596z"/>
	<path fill-rule="evenodd" clip-rule="evenodd" fill="#F18653" d="M48.018,14.047c3.733,2.155,7.464,4.31,11.196,6.465
		c3.73,2.154,7.464,4.309,11.2,6.466c1.484,0.857,1.35,2.346-0.302,3.299c-6.415,3.703-12.833,7.409-19.24,11.108
		c-6.41,3.7-12.827,7.407-19.238,11.107c-1.65,0.953-4.216,1.027-5.698,0.171c-3.735-2.157-7.472-4.312-11.205-6.468
		c-3.736-2.157-7.469-4.313-11.203-6.468c-1.484-0.857-1.345-2.328,0.304-3.281c6.409-3.701,12.829-7.407,19.243-11.11
		c6.41-3.701,12.831-7.407,19.244-11.11C43.969,13.273,46.531,13.189,48.018,14.047z"/>
	<path fill-rule="evenodd" clip-rule="evenodd" fill="#B85327" d="M46.438,16.949l9.475,5.471c3.155,1.822,6.317,3.648,9.478,5.475
		c0.893-0.516,2.26-0.555,3.062-0.092s0.729,1.251-0.163,1.766c-0.893,0.515-2.261,0.559-3.062,0.096
		c-5.239,3.025-10.477,6.05-15.711,9.072c0.801,0.463,0.73,1.249-0.161,1.763s-2.262,0.562-3.063,0.099
		c-5.237,3.023-10.476,6.05-15.712,9.074h0c0.803,0.463,0.722,1.253-0.17,1.769c-0.892,0.515-2.254,0.557-3.056,0.094
		c-0.802-0.463-0.732-1.253,0.159-1.768l-9.486-5.476c-3.16-1.824-6.323-3.65-9.482-5.472h0c-0.892,0.514-2.259,0.555-3.061,0.092
		c-0.802-0.463-0.731-1.25,0.161-1.766c0.892-0.515,2.261-0.559,3.063-0.096h0c5.238-3.024,10.481-6.049,15.721-9.075l-0.001,0
		c-0.802-0.463-0.724-1.256,0.168-1.771c0.892-0.515,2.256-0.554,3.058-0.091l0,0c5.237-3.023,10.478-6.048,15.719-9.073
		c-0.8-0.463-0.728-1.253,0.164-1.768c0.892-0.515,2.259-0.557,3.061-0.093C47.398,15.645,47.329,16.434,46.438,16.949
		L46.438,16.949z"/>
	<path fill-rule="evenodd" clip-rule="evenodd" fill="#983D21" d="M8.707,38.916l-0.163-0.094h0
		c-0.892,0.514-2.259,0.555-3.061,0.092c-0.802-0.463-0.731-1.25,0.161-1.766c0.892-0.515,2.261-0.559,3.063-0.096h0V38.916z"/>
	<path fill-rule="evenodd" clip-rule="evenodd" fill="#983D21" d="M65.39,27.896c0.893-0.516,2.26-0.555,3.062-0.092
		s0.729,1.251-0.163,1.766c-0.834,0.481-2.084,0.551-2.898,0.181V27.896z"/>
	<path fill-rule="evenodd" clip-rule="evenodd" fill="#983D21" d="M43.372,17.043c-0.8-0.463-0.728-1.253,0.164-1.768
		c0.892-0.515,2.259-0.557,3.061-0.093c0.802,0.463,0.732,1.252-0.159,1.768l0,0v0.344l-3.064,0.279L43.372,17.043z"/>
	<path fill-rule="evenodd" clip-rule="evenodd" fill="#983D21" d="M24.428,27.978L24.428,27.978
		c-0.803-0.463-0.725-1.256,0.167-1.771c0.892-0.515,2.256-0.554,3.058-0.091l0,0l0,2.193l-3.225,0.197V27.978z"/>
	<path fill-rule="evenodd" clip-rule="evenodd" fill="#305D2D" d="M67.864,29.768c-0.646,0.239-1.421,0.284-2.057,0.126
		C66.451,29.653,67.228,29.609,67.864,29.768L67.864,29.768z M64.941,29.83c-5.145,2.971-10.287,5.941-15.427,8.909v1.661
		c-0.05,0.035-0.104,0.069-0.161,0.103c-0.892,0.515-2.262,0.562-3.063,0.099c-5.237,3.023-10.476,6.05-15.712,9.074h0v1.66
		c-0.053,0.037-0.109,0.073-0.17,0.108c-0.835,0.481-2.083,0.549-2.897,0.176v-1.85l-9.486-5.476
		c-3.01-1.737-6.023-3.477-9.033-5.213c5.143-2.969,10.29-5.939,15.435-8.909l-0.001,0h0.001v-1.665
		c0.052-0.037,0.108-0.072,0.167-0.106c0.892-0.515,2.256-0.554,3.058-0.091h0c5.237-3.023,10.478-6.048,15.719-9.073h0.001v-1.665
		c0.051-0.036,0.104-0.07,0.163-0.104c0.835-0.482,2.087-0.549,2.901-0.175v1.85l9.475,5.472
		C58.919,26.35,61.931,28.089,64.941,29.83L64.941,29.83z M8.122,39.018c-0.643,0.238-1.417,0.283-2.052,0.126
		C6.713,38.906,7.487,38.861,8.122,39.018z"/>
	<path fill-rule="evenodd" clip-rule="evenodd" fill="#254A23" d="M67.864,29.768c-0.646,0.239-1.421,0.284-2.057,0.126
		C66.451,29.653,67.228,29.609,67.864,29.768L67.864,29.768z M35.876,33.44l14.722,4.672l1.223-0.706l-16.008-4.52L35.876,33.44
		L35.876,33.44z M27.684,35.86l-5.155,11.033l-1.458-0.842l6.037-10.559L27.684,35.86L27.684,35.86z M11.444,40.496l-2.452-1.415
		c5.143-2.969,10.29-5.939,15.435-8.909l-0.001,0h0.001v-1.665c0.052-0.037,0.108-0.072,0.167-0.106
		c0.892-0.515,2.256-0.554,3.058-0.091h0c5.237-3.023,10.478-6.048,15.719-9.073h0.001v-1.665c0.051-0.036,0.104-0.07,0.163-0.104
		c0.835-0.482,2.087-0.549,2.901-0.175v1.85l9.475,5.472c3.007,1.736,6.019,3.475,9.029,5.215l-2.271,1.312l-17.513-10.11
		L11.444,40.496L11.444,40.496z M8.122,39.018c-0.643,0.238-1.417,0.283-2.052,0.126C6.713,38.906,7.487,38.861,8.122,39.018z"/>
	<path fill-rule="evenodd" clip-rule="evenodd" fill="#1B2C19" d="M27.937,51.766c0.643-0.238,1.417-0.283,2.053-0.127
		C29.346,51.879,28.572,51.924,27.937,51.766z"/>
	<path fill-rule="evenodd" clip-rule="evenodd" fill="#1B2C19" d="M46.438,19.143c-0.892,0.515-2.265,0.558-3.064,0.094v-1.665
		c0.051-0.036,0.104-0.07,0.163-0.104c0.835-0.482,2.087-0.549,2.901-0.175V19.143z"/>
	<path fill-rule="evenodd" clip-rule="evenodd" fill="#1B2C19" d="M27.652,28.31c0.802,0.463,0.734,1.25-0.158,1.765
		c-0.892,0.515-2.265,0.56-3.066,0.097l0,0v-1.665c0.052-0.037,0.108-0.072,0.167-0.106C25.487,27.885,26.851,27.846,27.652,28.31z"
		/>
	<path fill-rule="evenodd" clip-rule="evenodd" fill="#1B2C19" d="M6.07,39.144c0.643-0.238,1.417-0.283,2.052-0.126
		C7.479,39.256,6.706,39.301,6.07,39.144z"/>
	<path fill-rule="evenodd" clip-rule="evenodd" fill="#1B2C19" d="M46.869,40.827c0.644-0.24,1.418-0.284,2.055-0.125
		C48.279,40.939,47.505,40.985,46.869,40.827z"/>
	<path fill-rule="evenodd" clip-rule="evenodd" fill="#1B2C19" d="M67.864,29.768c-0.646,0.239-1.421,0.284-2.057,0.126
		C66.451,29.653,67.228,29.609,67.864,29.768z"/>
	<g>
		<ellipse fill-rule="evenodd" clip-rule="evenodd" fill="#254A23" cx="34.857" cy="31.609" rx="1.474" ry="0.823"/>
		<circle fill-rule="evenodd" clip-rule="evenodd" fill="#FFFFFF" cx="34.463" cy="30.375" r="1.474"/>
	</g>
	<g>
		<ellipse fill-rule="evenodd" clip-rule="evenodd" fill="#254A23" cx="50.897" cy="31.609" rx="1.474" ry="0.823"/>
		<circle fill-rule="evenodd" clip-rule="evenodd" fill="#FFFFFF" cx="50.503" cy="30.375" r="1.474"/>
	</g>
	<g>
		<ellipse fill-rule="evenodd" clip-rule="evenodd" fill="#254A23" cx="36.434" cy="39.63" rx="1.474" ry="0.823"/>
		<circle fill-rule="evenodd" clip-rule="evenodd" fill="#FFFFFF" cx="36.04" cy="38.396" r="1.474"/>
	</g>
	<g>
		<ellipse fill-rule="evenodd" clip-rule="evenodd" fill="#254A23" cx="47.889" cy="23.306" rx="1.474" ry="0.823"/>
		<circle fill-rule="evenodd" clip-rule="evenodd" fill="#FFFFFF" cx="47.494" cy="22.073" r="1.474"/>
	</g>
	<g>
		<ellipse fill-rule="evenodd" clip-rule="evenodd" fill="#254A23" cx="19.202" cy="37.745" rx="1.474" ry="0.823"/>
		<circle fill-rule="evenodd" clip-rule="evenodd" fill="#FFFFFF" cx="18.808" cy="36.51" r="1.474"/>
	</g>
	<g>
		<ellipse fill-rule="evenodd" clip-rule="evenodd" fill="#254A23" cx="54.693" cy="31.575" rx="1.474" ry="0.823"/>
		<circle fill-rule="evenodd" clip-rule="evenodd" fill="#FFFFFF" cx="54.299" cy="30.341" r="1.474"/>
	</g>
	<path fill-rule="evenodd" clip-rule="evenodd" fill="#F3CBB8" d="M14.335,51.541l12.773-16.048
		c0.142-0.178,0.705,0.181,0.575,0.368L16.058,52.564C15.555,53.286,13.802,52.211,14.335,51.541z"/>
	<path fill-rule="evenodd" clip-rule="evenodd" fill="#F3CBB8" d="M70.37,34.243L35.876,33.44c-0.383-0.009-0.446-0.55-0.063-0.553
		l34.263-0.264C71.556,32.612,71.811,34.276,70.37,34.243z"/>
</g>
</svg>
