<?xml version="1.0" encoding="utf-8"?>
<!-- Generator: Adobe Illustrator 16.0.0, SVG Export Plug-In . SVG Version: 6.00 Build 0)  -->
<!DOCTYPE svg PUBLIC "-//W3C//DTD SVG 1.1//EN" "http://www.w3.org/Graphics/SVG/1.1/DTD/svg11.dtd">
<svg version="1.1" id="Layer_1" xmlns="http://www.w3.org/2000/svg" xmlns:xlink="http://www.w3.org/1999/xlink" x="0px" y="0px"
	 width="85px" height="85px" viewBox="0 0 85 85" enable-background="new 0 0 85 85" xml:space="preserve">
<g>
	<g>
		
			<path fill="none" stroke="#DBBDA8" stroke-width="0.8446" stroke-linecap="round" stroke-linejoin="round" stroke-miterlimit="10" d="
			M18.232,82.423h47.709 M67.885,82.423h1.23 M15.885,82.423h1.23"/>
	</g>
	<path fill="#3F332F" d="M35.689,79.53c-0.199,0.038-0.385,0.132-0.584,0.193c-0.447,0.139-0.91,0.229-1.365,0.339
		c-1.238,0.299-2.436,0.749-3.562,1.338c-0.09,0.047-0.182,0.098-0.244,0.175c-0.066,0.082-0.098,0.188-0.105,0.294
		c-0.014,0.158,0.021,0.327,0.123,0.451c0.176,0.211,0.529,0.178,0.775,0.177c0.359,0,0.723,0,1.086-0.001
		c0.727-0.003,1.453-0.013,2.182-0.037c1.457-0.052,2.914-0.169,4.346-0.447c0.432-0.084,0.857-0.183,1.281-0.297
		c0.84-0.229,1.24-0.748,0.807-2.199h-3.592c-0.338,0-0.68-0.017-1.018,0C35.773,79.518,35.73,79.522,35.689,79.53L35.689,79.53z"/>
	<path fill="#2F2623" d="M35.176,79.7h0.002c1.49,1.008,3.57,0.72,5.291-0.024l-0.02-0.08c-0.006-0.026-0.016-0.053-0.021-0.08
		h-4.611L35.176,79.7z"/>
	<path fill="#40332F" d="M35.043,40.002l0.643,39.513h4.723l2.113-29.58l0.254-8.409L35.043,40.002z"/>
	<path fill="#352825" d="M38.094,43.382c0-0.936-0.098-1.869-0.129-2.804l-0.348-0.069c-0.846,12.963-0.432,26.017-0.928,39.005
		h0.508c0.008-3.828-0.018-7.64,0.072-11.509C37.406,59.752,38.094,51.636,38.094,43.382L38.094,43.382z"/>
	<path fill="#3F332F" d="M49.881,79.53c0.199,0.038,0.385,0.132,0.582,0.193c0.449,0.139,0.912,0.229,1.367,0.339
		c1.238,0.299,2.434,0.749,3.562,1.338c0.09,0.047,0.182,0.098,0.244,0.175c0.066,0.082,0.098,0.188,0.105,0.294
		c0.014,0.158-0.021,0.327-0.123,0.451c-0.176,0.211-0.527,0.178-0.775,0.177c-0.359,0-0.723,0-1.084-0.001
		c-0.729-0.003-1.457-0.013-2.184-0.037c-1.455-0.052-2.914-0.169-4.346-0.447c-0.432-0.084-0.857-0.183-1.281-0.297
		c-0.84-0.229-1.24-0.748-0.807-2.199h3.594c0.338,0,0.68-0.017,1.016,0C49.797,79.518,49.838,79.522,49.881,79.53L49.881,79.53z"/>
	<path fill="#2F2623" d="M49.754,79.515h-4.611c-0.008,0.027-0.016,0.054-0.021,0.08l-0.021,0.08
		c1.723,0.744,3.801,1.032,5.293,0.023h0.002L49.754,79.515L49.754,79.515z"/>
	<path fill="#40332F" d="M50.506,40.002l-0.643,39.513h-4.723l-2.113-29.58l-0.254-8.409L50.506,40.002z"/>
	<path fill="#352825" d="M47.455,43.382c0-0.936,0.098-1.869,0.127-2.804l0.352-0.069c0.844,12.963,0.43,26.017,0.928,39.005h-0.51
		c-0.008-3.828,0.018-7.64-0.07-11.509C48.143,59.752,47.455,51.636,47.455,43.382L47.455,43.382z"/>
	<path fill="#40332F" d="M40.42,41.473l0.152,4.205l3.486,1.879l1.305-6.972L40.42,41.473z"/>
	<path fill="#FFBB81" d="M33.891,42.608c0.012,0.032,0.021,0.065,0.029,0.101c0.102,0.395,0.189,0.804,0.131,1.195
		c-0.062,0.435,0.021,0.721-0.041,1.152c-0.025,0.177-0.396,0.471-0.508,0.609c-0.109,0.14-0.328,0.209-0.469,0.1
		c0.072,0.056-0.328,0.274-0.383,0.276c-0.17,0.005-0.277-0.159-0.447-0.167c-0.057-0.003-0.111,0.017-0.166,0.026
		c-0.197,0.041-0.416-0.021-0.561-0.164c-0.057-0.054-0.105-0.118-0.178-0.146c-0.064-0.024-0.137-0.012-0.207-0.011
		c-0.207,0.002-0.406-0.104-0.545-0.26c-0.141-0.153-0.225-0.352-0.273-0.553c-0.184-0.736,0.064-1.507,0.309-2.226
		c0.227-0.663,0.352-1.39,1.217-1.235c0.357,0.064,0.701,0.189,1.023,0.353c0.246,0.124,0.645,0.271,0.811,0.488
		c0.041,0.058,0.084,0.113,0.121,0.172C33.811,42.412,33.857,42.509,33.891,42.608L33.891,42.608z"/>
	<path fill="#FFFFFF" d="M30.389,41.926c0,0-0.242,0.258-0.16,0.562c0.082,0.306,1.73,1.268,3.889,0.802l0.158-0.873L30.389,41.926z
		"/>
	<path fill="#453936" d="M33.58,19.932c0,0-0.754,1.171-1.016,3.403c-0.352,2.982-0.91,5.881-1.225,8.86
		c-0.33,3.143-0.465,6.243-1.111,9.344c-0.029,0.137-0.059,0.277-0.035,0.417c0.035,0.2,0.178,0.365,0.326,0.507
		c0.873,0.84,2.342,0.689,3.545,0.544c0.055-0.006,0.111-0.017,0.15-0.053c0.035-0.033,0.049-0.083,0.061-0.129
		c0.271-1.037,0.119-1.524,0.264-2.592l0.783-5.689c0.344-2.502,0.688-5.004,1.033-7.506L33.58,19.932L33.58,19.932z"/>
	<path fill="#3E322E" d="M33.514,20.175c0,0-0.012,0.016-0.029,0.042c-0.291,4.596,1.281,14.164,0.85,22.199
		c0.439-2.114,1.031-12.852,1.469-14.964L33.514,20.175z"/>
	<path fill="#FFBB81" d="M51.521,42.608c-0.014,0.032-0.021,0.065-0.031,0.101c-0.102,0.395-0.188,0.804-0.131,1.195
		c0.064,0.435-0.021,0.721,0.043,1.152c0.025,0.177,0.396,0.471,0.506,0.609c0.111,0.14,0.33,0.209,0.469,0.1
		c-0.07,0.056,0.328,0.274,0.383,0.276c0.17,0.005,0.277-0.159,0.447-0.167c0.057-0.003,0.111,0.017,0.166,0.026
		c0.199,0.041,0.416-0.021,0.562-0.164c0.057-0.054,0.104-0.118,0.176-0.146c0.064-0.024,0.139-0.012,0.207-0.011
		c0.209,0.002,0.408-0.104,0.547-0.26c0.139-0.154,0.223-0.352,0.271-0.553c0.184-0.736-0.062-1.507-0.309-2.226
		c-0.225-0.663-0.35-1.39-1.217-1.235c-0.355,0.064-0.699,0.189-1.021,0.353c-0.246,0.124-0.646,0.271-0.811,0.488
		c-0.043,0.058-0.084,0.113-0.121,0.172C51.602,42.412,51.555,42.509,51.521,42.608L51.521,42.608z"/>
	<path fill="#FFFFFF" d="M55.023,41.926c0,0,0.24,0.258,0.16,0.562c-0.082,0.306-1.73,1.268-3.891,0.802l-0.156-0.873L55.023,41.926
		L55.023,41.926z"/>
	<path fill="#453936" d="M51.83,19.932c0,0,0.752,1.171,1.016,3.403c0.352,2.982,0.91,5.881,1.225,8.86
		c0.33,3.143,0.465,6.243,1.111,9.344c0.027,0.137,0.059,0.277,0.033,0.417c-0.035,0.2-0.178,0.365-0.322,0.507
		c-0.873,0.84-2.344,0.689-3.547,0.544c-0.055-0.006-0.111-0.017-0.15-0.053c-0.035-0.033-0.049-0.083-0.061-0.129
		c-0.271-1.037-0.119-1.524-0.266-2.592c-0.26-1.896-0.521-3.793-0.781-5.689c-0.344-2.502-0.688-5.004-1.033-7.506L51.83,19.932z"
		/>
	<path fill="#3E322E" d="M51.898,20.175c0,0,0.012,0.016,0.027,0.042c0.293,4.596-1.279,14.164-0.85,22.199
		c-0.439-2.114-1.029-12.852-1.467-14.964L51.898,20.175z"/>
	<path fill="#FFFFFF" d="M40.156,17.662l-2.75,2.691v12.298h9.217V20.753l-2.031-2.907L40.156,17.662z"/>
	<path fill="#E4E4E6" d="M41.258,20.821c0.963,0.688,0.963-1.237,1.65-1.101c0.551,0,1.102,1.376,1.514,1.101
		c0.543-0.31,1.053-0.651,1.547-1.006l-1.377-1.969l-4.436-0.185l-0.781,0.766C40.242,18.985,40.545,20.108,41.258,20.821z"/>
	<path fill="#FFBB81" d="M44.693,19.087h-3.744l0.336-4.042h3.074L44.693,19.087z"/>
	<path fill="#F8A974" d="M41.285,15.044l-0.105,1.247c0.963,0.71,2.168,1.232,3.395,1.359l-0.215-2.606H41.285L41.285,15.044z"/>
	<path fill="#FFBB81" d="M38.373,10.149c0,0.381-0.197,0.709-0.484,0.857c-0.104,0.056-0.223,0.085-0.342,0.085
		c-0.455,0-0.826-0.422-0.826-0.942c0-0.521,0.371-0.943,0.826-0.943c0.123,0,0.238,0.029,0.342,0.084
		C38.176,9.438,38.373,9.767,38.373,10.149z"/>
	<path fill="#F8A974" d="M38.373,10.149c0,0.381-0.197,0.709-0.484,0.857c-0.281-0.148-0.48-0.477-0.48-0.857
		c0-0.382,0.199-0.709,0.48-0.859C38.176,9.438,38.373,9.767,38.373,10.149z"/>
	<path fill="#FFBB81" d="M47.271,10.149c0,0.381,0.197,0.709,0.482,0.857c0.105,0.056,0.225,0.085,0.342,0.085
		c0.457,0,0.828-0.422,0.828-0.942c0-0.521-0.371-0.943-0.828-0.943c-0.117,0-0.236,0.029-0.342,0.084
		C47.469,9.438,47.271,9.767,47.271,10.149z"/>
	<path fill="#F8A974" d="M47.271,10.149c0,0.381,0.197,0.709,0.482,0.857c0.283-0.148,0.48-0.477,0.48-0.857
		c0-0.382-0.197-0.709-0.48-0.859C47.469,9.438,47.271,9.767,47.271,10.149z"/>
	<path fill="#FFBB81" d="M47.92,10.669c0,3.243-2.568,5.201-5.098,5.201s-5.098-1.958-5.098-5.201s1.654-5.872,5.098-5.872
		C46.264,4.797,47.92,7.426,47.92,10.669z"/>
	<ellipse fill="#453936" cx="40.604" cy="9.767" rx="0.572" ry="0.562"/>
	<ellipse fill="#453936" cx="45.041" cy="9.767" rx="0.574" ry="0.562"/>
	<path fill="#FC8240" d="M42.662,11.821c-0.33-0.138-0.553-0.379-0.596-0.646c-0.035-0.208,0.043-0.407,0.219-0.56
		c0.357-0.313,0.523-1.045,0.525-1.054l0.135,0.03c-0.008,0.031-0.178,0.784-0.57,1.126c-0.137,0.121-0.199,0.274-0.174,0.435
		c0.037,0.219,0.229,0.42,0.514,0.539L42.662,11.821z"/>
	<path fill="#8A6341" d="M44.756,12.526c0,0-1.877,3.474-3.867,0c0,0,0.07,0.047,0.203,0.111v0.001
		c0.463,0.226,1.664,0.666,3.178,0.101C44.436,12.678,44.596,12.606,44.756,12.526z"/>
	<g>
		<path fill="#FF8D86" d="M41.004,11.213c0,0.245-0.379,0.444-0.848,0.444s-0.85-0.199-0.85-0.444s0.381-0.444,0.85-0.444
			S41.004,10.968,41.004,11.213z M46.336,11.213c0,0.245-0.379,0.444-0.848,0.444c-0.471,0-0.85-0.199-0.85-0.444
			s0.379-0.444,0.85-0.444C45.957,10.769,46.336,10.968,46.336,11.213z"/>
	</g>
	<g>
		<path fill="#B24D1A" d="M41.379,8.872c0.014-0.006,0.023-0.014,0.033-0.024c0.053-0.058,0.07-0.203,0.027-0.269
			c-0.082-0.118-0.354-0.062-0.473-0.055c-0.391,0.027-0.771,0.12-1.133,0.274c-0.014,0.006-0.029,0.013-0.037,0.026
			c-0.012,0.021,0.002,0.049,0.023,0.062s0.047,0.013,0.068,0.013l1.268,0.002C41.223,8.901,41.316,8.907,41.379,8.872z
			 M44.291,8.872c-0.012-0.006-0.021-0.014-0.033-0.024c-0.051-0.058-0.07-0.203-0.025-0.269c0.08-0.118,0.352-0.062,0.471-0.055
			c0.391,0.027,0.773,0.12,1.133,0.274c0.016,0.006,0.029,0.013,0.037,0.026c0.012,0.021-0.002,0.049-0.023,0.062
			s-0.045,0.013-0.068,0.013l-1.266,0.002C44.447,8.901,44.355,8.907,44.291,8.872L44.291,8.872z"/>
	</g>
	<path fill="#E82D2D" d="M41.586,20.047l0.604,1.324h1.264l0.605-1.324l-1.451-1.814L41.586,20.047z"/>
	<g>
		<path fill="#FFFFFF" d="M41.129,16.748l2.064,1.607l-1.9,1.998l-1.809-2.799L41.129,16.748z"/>
		<path fill="#FFFFFF" d="M44.516,16.748l-2.064,1.607l1.898,1.998l1.811-2.799L44.516,16.748z"/>
	</g>
	<path fill="#E82D2D" d="M42.762,34.288l2.717-2.6l-2.035-10.317l-0.682-0.324v-0.004l-0.004,0.001l-0.002-0.001v0.004l-0.564,0.324
		l-2.035,10.317l2.6,2.6v0.006l0.004-0.003l0.002,0.003V34.288L42.762,34.288z"/>
	<g>
		<path fill="#453936" d="M38.373,17.846c0,0-4.768,1.337-4.859,2.329s1.555,11.497,1.463,14.12
			c-0.092,2.622-0.643,9.438-0.643,9.438l8.482,1.816l0.061-14.456C42.879,31.093,38.561,20.236,38.373,17.846L38.373,17.846z"/>
		<path fill="#826B63" d="M40.482,17.064c0,0,0.211,8.25,2.396,14.028c0,0-3.105-6.007-3.395-7.658l0.193-0.596l-0.576-0.321
			l-1.057-4.855C38.047,17.662,39.842,16.932,40.482,17.064L40.482,17.064z"/>
		<g>
			<path fill="#453936" d="M47.092,17.846c0,0,4.77,1.337,4.859,2.329c0.092,0.992-1.555,11.497-1.463,14.12
				c0.092,2.622,0.643,9.438,0.643,9.438l-8.482,1.816l-0.062-14.456C42.586,31.093,46.904,20.236,47.092,17.846L47.092,17.846z"/>
			<path fill="#826B63" d="M44.984,17.064c0,0-0.213,8.25-2.398,14.028c0,0,3.105-6.007,3.395-7.658l-0.193-0.596l0.576-0.321
				l1.055-4.855C47.418,17.662,45.623,16.932,44.984,17.064L44.984,17.064z"/>
		</g>
	</g>
	<g>
		<circle fill="#322824" cx="40.174" cy="33.426" r="0.397"/>
		<circle fill="#322824" cx="45.08" cy="33.426" r="0.397"/>
		<g>
			<circle fill="#322824" cx="40.174" cy="37.1" r="0.397"/>
			<circle fill="#322824" cx="45.08" cy="37.1" r="0.396"/>
		</g>
	</g>
	<path fill="#F8A974" d="M41.275,40.806c0.039-0.013,0.08-0.026,0.121-0.038C41.355,40.778,41.314,40.792,41.275,40.806z"/>
	<path fill="#FF4040" d="M46.297,26.29l1.76-1.754l0.596,0.759l0.621-0.208v1.62L46.297,26.29z"/>
	<path fill="#E82D2D" d="M48.652,25.295l-2.029,0.67l-0.326,0.325l3.146,0.416L49.271,26l-1.854-0.123L48.652,25.295z"/>
	<path fill="#826B63" d="M46.16,26.151h3.283v0.833H46.16V26.151z"/>
	<path fill="#FFBB81" d="M42.58,38.914c-0.027,0.017-0.059,0.031-0.088,0.044C42.537,38.935,42.568,38.92,42.58,38.914z"/>
	<path fill="#FFFFFF" d="M40.889,12.526h3.867C44.756,12.526,42.818,13.688,40.889,12.526z"/>
	<path fill="#B24D1A" d="M40.156,6.842c0,0-0.516,1.255-1.328,1.755C38.33,8.901,37.891,9.29,37.891,9.29s-0.717-0.118-0.9,0.164
		c0,0-0.258-5.069,1.848-5.457C38.838,3.997,40.412,5.612,40.156,6.842z"/>
	<path fill="#B24D1A" d="M39.043,6.594c0.09,0.286,0.215,0.597,0.492,0.703c0.139,0.054,0.293,0.045,0.441,0.036
		c1.086-0.071,2.184-0.143,3.227-0.455c0.76-0.229,1.494-0.592,2.082-1.131c0.467-0.428,1.336-1.312,1.051-2.008
		c-0.453-1.107-4.998-2.104-7.582-0.037c-0.719,0.576,0.082,2.222,0.277,2.855C39.035,6.569,39.039,6.581,39.043,6.594L39.043,6.594
		z M37.627,9.267c0,0,0.146,0.061,0.121,0.73c0,0,0.574-0.504,0.484-1.185C38.146,8.134,37.627,9.267,37.627,9.267z"/>
	<path fill="#B24D1A" d="M45.387,5.575c0,0,0.605,2.097,1.309,2.67c0.701,0.572,0.889,1.361,1.199,1.752
		c0,0-0.059-0.662,0.201-0.791c0.207,0.031,0.344,0.084,0.344,0.084s0.287-1.526,0-2.19c-0.285-0.665-1.043-3.675-2.725-3.379
		C44.035,4.016,45.389,5.575,45.387,5.575L45.387,5.575z"/>
</g>
</svg>
