<?xml version="1.0" encoding="utf-8"?>
<!-- Generator: Adobe Illustrator 16.0.0, SVG Export Plug-In . SVG Version: 6.00 Build 0)  -->
<!DOCTYPE svg PUBLIC "-//W3C//DTD SVG 1.1//EN" "http://www.w3.org/Graphics/SVG/1.1/DTD/svg11.dtd">
<svg version="1.1" id="Layer_1" xmlns="http://www.w3.org/2000/svg" xmlns:xlink="http://www.w3.org/1999/xlink" x="0px" y="0px"
	 width="85px" height="85px" viewBox="0 0 85 85" enable-background="new 0 0 85 85" xml:space="preserve">
<g>
	<g>
		<path d="M81.667,70.774c-0.932-1.021-2.118-1.392-3.428-1.436c-0.589-0.021-0.77-0.202-0.706-0.788
			c0.105-0.965-0.042-1.916-0.262-2.861c-0.873-3.751-1.791-7.491-2.664-11.242c-0.684-2.94-1.303-5.907-3.099-8.442
			c-0.285-0.402-0.058-0.606,0.326-0.744c1.275-0.453,2.524-0.973,3.773-1.495c1.463-0.612,1.521-0.683,0.517-1.926
			c-2.625-3.25-4.007-6.944-4.188-11.117c-0.179-4.152-0.439-8.302-0.787-12.443c-0.59-7.026-4.186-11.914-10.61-14.765
			c-1.47-0.651-3.021-0.889-4.604-1.015c-2.864,0-5.729,0-8.594,0c-0.43,0.271-0.936,0.211-1.403,0.298
			c-6.992,1.308-12.678,7.281-13.442,14.301c-0.414,3.801-0.624,7.624-0.938,11.437c-0.198,2.407-0.252,4.832-0.979,7.172
			c-0.795,2.557-2.243,4.729-3.893,6.786c-0.325,0.407-0.33,0.572,0.191,0.8c1.902,0.83,3.846,1.55,5.792,2.229
			c0.03,0.231-0.119,0.361-0.214,0.512c-2.765,4.41-1.8,9.767,2.341,12.941c1.135,0.871,2.279,1.729,3.435,2.573
			c0.281,0.206,0.396,0.42,0.393,0.771c-0.016,2.239-0.02,4.479,0.003,6.718c0.004,0.449-0.134,0.566-0.569,0.557
			c-1.196-0.027-2.396-0.045-3.592,0c-2.639,0.101-4.23,2.4-3.309,4.846c1.565,4.146,4.522,6.748,8.851,7.781
			c0.311,0.074,0.676,0.006,0.93,0.279c4.375,0,8.749,0,13.124,0c0.965-0.165,1.953-0.145,2.896-0.499
			c2.021-0.762,3.75-1.938,5.125-3.585c0.548-0.654,1.137-0.864,1.953-0.86c4.788,0.025,9.577,0.022,14.366,0.009
			c2.276-0.007,3.682-1.173,4.099-3.346c0-0.469,0-0.937,0-1.405C82.381,72.069,82.208,71.367,81.667,70.774z M67.966,64.826
			c-0.8,1.366-1.175,2.821-0.833,4.402c0.065,0.307-0.064,0.369-0.317,0.355c-0.053-0.003-0.104,0.003-0.156,0
			c-0.72-0.046-1.644,0.302-2.104-0.141c-0.428-0.411-0.124-1.332-0.126-2.027c-0.01-4.752-0.005-9.503-0.005-14.255
			c0.613,0.733,0.918,1.581,1.179,2.442c0.818,2.703,1.612,5.413,2.437,8.114C68.16,64.116,68.183,64.456,67.966,64.826z"/>
	</g>
	<path fill-rule="evenodd" clip-rule="evenodd" d="M2.5,68.75c0.216-0.433,0.386-0.897,0.658-1.292
		c0.773-1.122,1.85-1.718,3.235-1.716c2.369,0.003,4.739,0.002,7.108-0.001c0.26,0,0.524,0.006,0.778-0.039
		c0.696-0.125,1.132-0.646,1.116-1.296c-0.016-0.673-0.522-1.222-1.249-1.255c-0.858-0.04-1.719-0.005-2.578-0.017
		c-2.729-0.036-4.993-2.08-5.168-4.655c-0.192-2.847,1.621-5.138,4.413-5.616c0.58-0.1,0.833,0.026,0.733,0.646
		c-0.032,0.203-0.023,0.418-0.001,0.624c0.082,0.768,0.03,1.297-0.972,1.514c-1.093,0.236-1.739,1.479-1.621,2.556
		c0.13,1.184,0.948,2.102,2.106,2.297c1.085,0.183,2.185,0.02,3.275,0.089c1.794,0.114,3.243,1.383,3.589,3.147
		c0.324,1.653-0.547,3.386-2.094,4.161c-0.594,0.297-1.223,0.404-1.886,0.4c-2.448-0.011-4.896-0.013-7.344,0
		c-1.072,0.006-1.697,0.713-1.457,1.624c0.2,0.76,0.78,0.978,1.493,0.978c1.979-0.001,3.958-0.001,5.937-0.001
		c2.526,0,5.053,0.004,7.578-0.001c1.258-0.002,1.704-0.446,1.71-1.683c0.004-0.99,0.022-1.98-0.009-2.969
		c-0.014-0.424,0.133-0.513,0.53-0.512c4.375,0.014,8.749,0.015,13.124-0.001c0.453-0.002,0.557,0.146,0.564,0.578
		c0.034,1.982,0.048,1.982-1.956,1.982c-2.969,0-5.938,0.021-8.905-0.017c-0.66-0.008-0.812,0.182-0.803,0.82
		c0.03,2.294-1.043,3.807-2.979,4.259c-0.424,0.099-0.877,0.097-1.317,0.097c-4.297,0.007-8.594,0.004-12.89,0.004
		c-2.754,0-3.714-0.639-4.723-3.145C2.5,69.792,2.5,69.271,2.5,68.75z"/>
	<path fill-rule="evenodd" clip-rule="evenodd" d="M28.977,63.138c-1.301,0-2.603-0.021-3.902,0.011
		c-0.492,0.012-0.704-0.095-0.661-0.635c0.049-0.621,0.023-1.248,0.007-1.872c-0.044-1.621-1.089-2.64-2.729-2.665
		c-0.65-0.01-1.302-0.021-1.951,0.005c-0.376,0.016-0.493-0.11-0.486-0.486c0.021-1.093,0.022-2.186,0.004-3.278
		c-0.039-2.332-1.575-3.883-3.914-3.97c-0.208-0.008-0.416-0.002-0.624-0.002c-2.068-0.001-2.205-0.168-1.908-2.26
		c0.03-0.214,0.064-0.338,0.308-0.33c1.347,0.048,2.703-0.127,4.032,0.257c2.831,0.817,4.705,3.285,4.691,6.336
		c-0.003,0.81,0.076,1.163,1.042,1.298c2.174,0.305,3.752,2.101,4.081,4.429c0.075,0.531,0.255,0.613,0.717,0.607
		c1.717-0.021,3.435,0.014,5.15-0.021c0.524-0.011,0.674,0.151,0.631,0.65c-0.052,0.615,0.186,1.429-0.126,1.801
		c-0.331,0.396-1.17,0.104-1.786,0.12C30.694,63.153,29.835,63.138,28.977,63.138z"/>
	<path fill-rule="evenodd" clip-rule="evenodd" fill="#EFCFB3" d="M64.451,20.399c-0.153,4.147,0.364,8.258-0.237,12.3
		c-0.727,4.879-4.83,8.33-9.759,8.496c-2.233,0.075-4.479,0.166-6.709-0.078c-5.076-0.556-9-4.824-9.112-9.966
		c-0.067-3.096-0.043-6.195-0.006-9.293c0.026-2.199,1.682-3.809,3.873-3.883c0.939-0.032,1.83,0.049,2.72,0.457
		c1.741,0.8,3.612,0.929,5.501,0.792c0.893-0.064,1.652-0.476,2.249-1.126c0.293-0.319,0.486-0.323,0.827-0.082
		c2.786,1.975,5.928,2.686,9.295,2.552C63.507,20.552,63.918,20.468,64.451,20.399z"/>
	<path fill-rule="evenodd" clip-rule="evenodd" fill="#B17946" d="M63.481,39.751c1.523-1.689,2.603-3.562,3.136-5.729
		c0.244-0.99,0.401-1.989,0.402-3.009c0.004-4.713-0.01-9.426,0.009-14.14c0.008-2.195-1.574-4.37-4.811-4.059
		c-0.272,0.026-0.36,0.14-0.354,0.389c0.007,0.261,0,0.521,0,0.781c0,1.334,0,1.334,1.339,1.45c0.741,0.064,1.209,0.559,1.201,1.27
		c-0.008,0.708-0.481,1.219-1.219,1.264c-3.063,0.184-5.891-0.475-8.371-2.369c-0.445-0.339-0.734-0.727-0.912-1.288
		c-0.771-2.428-2.774-3.07-4.642-2.691c-0.789,0.161-0.158,1.271-0.318,1.929c-0.074,0.305,0.011,0.574,0.432,0.549
		c0.26-0.016,0.522-0.016,0.781,0.003c0.818,0.061,1.389,0.606,1.383,1.31c-0.006,0.704-0.588,1.276-1.396,1.292
		c-3.916,0.074-6.904-1.501-8.728-5.034c-0.275-0.532-0.516-0.633-0.988-0.339c-0.065,0.04-0.145,0.058-0.217,0.086
		c-1.618,0.641-1.622,0.643-0.689,2.184c0.215,0.355,0.464,0.69,0.694,1.036c0.214,0.319,0.56,0.543,0.69,0.948
		c-0.639,0.247-1.284,0.459-1.85,0.839c-1.877,1.259-2.948,2.995-2.976,5.277c-0.036,3.072-0.02,6.146-0.01,9.218
		c0.011,3.622,1.356,6.682,3.923,9.219c0.13,0.128,0.256,0.258,0.382,0.389c0.016,0.017,0.018,0.047,0.04,0.109
		c-1.116,0.521-2.236,1.041-3.356,1.563c-0.071,0.033-0.148,0.062-0.205,0.111c-1.464,1.292-3.021,1.145-4.644,0.334
		c-0.555-0.277-1.445-0.325-1.651-0.74c-0.239-0.484,0.505-1.044,0.805-1.576c1.534-2.726,2.33-5.648,2.555-8.759
		c0.341-4.723,0.627-9.452,1.125-14.159c0.698-6.61,6.598-12.043,13.24-12.26c2.804-0.092,5.626-0.259,8.421,0.165
		c5.948,0.903,11.021,6.204,11.573,12.2c0.354,3.858,0.545,7.733,0.786,11.603c0.188,3.014,0.344,6.027,1.544,8.866
		c0.478,1.128,0.985,2.242,1.685,3.248c0.362,0.521,0.438,0.793-0.302,0.996c-0.949,0.261-1.861,0.875-2.801,0.9
		c-0.945,0.026-1.499-1.059-2.299-1.56C65.815,40.891,64.704,40.29,63.481,39.751z"/>
	<path fill-rule="evenodd" clip-rule="evenodd" fill="#B3DC7E" d="M61.863,55.774c0,4.348-0.013,8.695,0.014,13.043
		c0.004,0.608-0.147,0.806-0.771,0.778c-1.169-0.051-2.343-0.033-3.514-0.005c-0.44,0.012-0.701-0.144-0.962-0.495
		c-2.045-2.759-4.107-5.506-6.182-8.242c-0.242-0.319-0.306-0.617-0.27-1.004c0.288-3.11-1.877-5.588-5.005-5.741
		c-0.338-0.017-0.684-0.049-1.014,0.001c-0.831,0.126-1.374-0.262-1.971-0.8c-0.769-0.692-1.022-1.431-0.991-2.447
		c0.074-2.367,0.037-4.737,0.013-7.106c-0.005-0.468,0.141-0.678,0.587-0.829c1.832-0.624,2.036-0.86,1.988,1.315
		c-0.049,2.186,0.007,4.374-0.023,6.561c-0.008,0.557,0.101,0.76,0.717,0.756c4.686-0.027,9.372-0.026,14.058-0.001
		c0.588,0.003,0.744-0.15,0.736-0.736c-0.033-2.499-0.003-4.999-0.025-7.498c-0.004-0.455,0.125-0.718,0.554-0.885
		c0.336-0.131,0.636-0.351,0.957-0.52c0.656-0.347,1.101-0.086,1.102,0.656C61.865,46.975,61.863,51.375,61.863,55.774z"/>
	<path fill-rule="evenodd" clip-rule="evenodd" fill="#A9B1BC" d="M47.673,72.183c4.266,0,8.531-0.001,12.798,0
		c1.299,0.001,1.654,0.504,1.139,1.707c-1.565,3.651-4.328,5.784-8.304,5.959c-3.765,0.165-7.548,0.173-11.312-0.003
		c-4.044-0.188-6.812-2.395-8.354-6.12c-0.416-1.004-0.022-1.54,1.079-1.542C39.036,72.18,43.354,72.183,47.673,72.183z"/>
	<path fill-rule="evenodd" clip-rule="evenodd" fill="#EFCFB3" d="M67.862,54.102c1.139,0,2.229,0.01,3.321-0.006
		c0.345-0.004,0.487,0.102,0.571,0.459c0.962,4.098,1.952,8.188,2.918,12.283c0.138,0.584,0.112,1.192,0.044,1.79
		c-0.145,1.268-1.203,2.228-2.484,2.267c-1.223,0.037-2.324-0.857-2.573-2.077c-0.186-0.913-0.04-1.777,0.474-2.54
		c0.771-1.146,0.783-2.263,0.332-3.573c-0.928-2.699-1.682-5.458-2.505-8.193C67.924,54.392,67.901,54.268,67.862,54.102z"/>
	<path fill-rule="evenodd" clip-rule="evenodd" fill="#EFCFB3" d="M37.146,54.102c1.578-0.475,2.944,0.349,4.027,1.81
		c0.501,0.677,1.14,0.884,1.954,0.809c0.646-0.061,1.301-0.022,1.951-0.01c1.473,0.028,2.582,1.142,2.577,2.573
		c-0.005,1.418-1.142,2.571-2.593,2.571c-1.334,0.001-2.578-0.374-3.657-1.163c-1.807-1.32-3.591-2.671-5.372-4.025
		c-0.691-0.525-1.209-1.212-1.653-1.956c-0.252-0.422-0.273-0.648,0.337-0.617C35.419,54.13,36.124,54.102,37.146,54.102z"/>
	<path fill-rule="evenodd" clip-rule="evenodd" fill="#EFCFB3" d="M51.536,48.935c-1.511,0-3.021-0.013-4.53,0.009
		c-0.436,0.006-0.651-0.047-0.637-0.576c0.04-1.431,0.029-2.863,0.004-4.295c-0.008-0.434,0.13-0.504,0.535-0.467
		c3.09,0.279,6.182,0.283,9.271-0.004c0.416-0.039,0.54,0.052,0.533,0.478c-0.024,1.432-0.025,2.864,0,4.296
		c0.008,0.442-0.125,0.576-0.568,0.569C54.608,48.92,53.072,48.935,51.536,48.935z"/>
	<path fill-rule="evenodd" clip-rule="evenodd" fill="#CBD0D8" d="M64.094,74.755c0.258-0.772,0.402-1.479,0.276-2.205
		c-0.062-0.362,0.136-0.37,0.396-0.369c1.247,0.005,2.495,0.012,3.743-0.005c0.296-0.004,0.474,0.166,0.684,0.311
		c1.91,1.312,4.061,1.317,5.963-0.007c0.292-0.203,0.566-0.314,0.925-0.304c0.779,0.022,1.56,0,2.339,0.009
		c0.912,0.011,1.457,0.477,1.479,1.245c0.022,0.801-0.523,1.31-1.481,1.319c-1.611,0.018-3.223,0.006-4.835,0.006
		c-2.859,0-5.719,0-8.578,0C64.722,74.755,64.44,74.755,64.094,74.755z"/>
	<path fill-rule="evenodd" clip-rule="evenodd" fill="#FBD66F" d="M64.424,43.117c1.548,0.847,2.758,1.918,3.812,3.173
		c1.146,1.366,1.979,2.91,2.562,4.598c0.161,0.468,0.199,0.697-0.435,0.669c-1.063-0.048-2.131-0.027-3.196-0.005
		c-0.356,0.008-0.574-0.104-0.748-0.416c-0.47-0.842-1.052-1.606-1.688-2.33c-0.154-0.176-0.31-0.345-0.309-0.607
		C64.427,46.545,64.424,44.891,64.424,43.117z"/>
	<path fill-rule="evenodd" clip-rule="evenodd" fill="#FBD66F" d="M38.616,44.328c0,2.331-0.012,4.537,0.009,6.742
		c0.005,0.469-0.229,0.48-0.577,0.479c-1.323-0.012-2.648-0.031-3.972,0.008c-0.543,0.016-0.66-0.182-0.616-0.673
		c0.184-2.035,0.997-3.742,2.582-5.053C36.783,45.218,37.64,44.797,38.616,44.328z"/>
	<path fill-rule="evenodd" clip-rule="evenodd" fill="#B3DC7E" d="M47.32,69.581c-2.021,0-3.841-0.007-5.66,0.006
		c-0.348,0.002-0.444-0.131-0.442-0.46c0.011-1.819,0.006-3.64,0.006-5.487c1.303,0.285,2.385,0.723,3.132,1.922
		C45.199,66.917,46.248,68.146,47.32,69.581z"/>
	<path fill-rule="evenodd" clip-rule="evenodd" fill="#CBD0D8" d="M53.635,69.578c-0.968,0-1.918-0.001-2.868,0.001
		c-0.286,0.002-0.388-0.229-0.523-0.409c-1.124-1.494-2.237-2.996-3.369-4.484c-0.247-0.325-0.386-0.536,0.164-0.673
		c0.294-0.073,0.565-0.258,0.828-0.422c0.967-0.604,0.962-0.607,1.672,0.339c1.23,1.642,2.467,3.278,3.691,4.925
		C53.377,69.054,53.604,69.217,53.635,69.578z"/>
	<path fill-rule="evenodd" clip-rule="evenodd" d="M47.712,33.457c0.208,0,0.419,0.021,0.624-0.004
		c0.395-0.049,0.583,0.068,0.687,0.496c0.321,1.331,1.32,2.129,2.538,2.107c1.23-0.022,2.19-0.85,2.506-2.161
		c0.035-0.146-0.01-0.39,0.165-0.396c0.777-0.028,1.558-0.039,2.333,0.005c0.218,0.013,0.12,0.307,0.106,0.473
		c-0.216,2.495-2.382,4.548-4.879,4.63c-2.688,0.089-4.981-1.772-5.368-4.343c-0.082-0.542-0.058-0.938,0.664-0.812
		C47.29,33.487,47.503,33.457,47.712,33.457z"/>
	<path fill-rule="evenodd" clip-rule="evenodd" d="M61.797,28.294c-0.234,0-0.472-0.025-0.701,0.005
		c-0.397,0.053-0.521-0.124-0.609-0.496c-0.313-1.326-1.271-2.077-2.551-2.059c-1.232,0.018-2.181,0.811-2.477,2.07
		c-0.043,0.187,0.03,0.463-0.279,0.469c-0.701,0.013-1.403,0.009-2.104,0.005c-0.347-0.002-0.245-0.264-0.236-0.45
		c0.122-2.491,2.456-4.656,5.062-4.698c2.637-0.042,5.037,2.084,5.22,4.611c0.025,0.362,0.004,0.611-0.467,0.549
		C62.372,28.264,62.083,28.294,61.797,28.294z"/>
	<path fill-rule="evenodd" clip-rule="evenodd" d="M48.854,28.294c-0.183,0-0.367-0.021-0.546,0.004
		c-0.465,0.064-0.633-0.103-0.74-0.59c-0.266-1.212-1.272-1.959-2.475-1.964c-1.21-0.005-2.213,0.727-2.492,1.94
		c-0.117,0.513-0.301,0.685-0.804,0.617c-0.332-0.044-0.681-0.049-1.012,0c-0.747,0.111-0.91-0.182-0.796-0.889
		c0.382-2.36,2.588-4.253,5.047-4.273c2.492-0.021,4.74,1.866,5.13,4.263c0.108,0.671,0.016,1.039-0.769,0.896
		C49.222,28.267,49.035,28.294,48.854,28.294z"/>
</g>
</svg>
