<?xml version="1.0" encoding="utf-8"?>
<!-- Generator: Adobe Illustrator 16.0.0, SVG Export Plug-In . SVG Version: 6.00 Build 0)  -->
<!DOCTYPE svg PUBLIC "-//W3C//DTD SVG 1.1//EN" "http://www.w3.org/Graphics/SVG/1.1/DTD/svg11.dtd">
<svg version="1.1" id="Layer_1" xmlns="http://www.w3.org/2000/svg" xmlns:xlink="http://www.w3.org/1999/xlink" x="0px" y="0px"
	 width="85px" height="85px" viewBox="0 0 85 85" enable-background="new 0 0 85 85" xml:space="preserve">
<g id="Layer_2">
	<g id="Layer_1-2">
		<path fill="#FB637B" d="M16.55,49.171v32.536h51.9V49.171H16.55z"/>
		<path fill="#638A99" d="M36.073,62.186H23.058v19.521h13.016V62.186z"/>
		<path fill="#EDF9FF" d="M61.942,55.678H42.579v13.015h19.523V55.678H61.942z"/>
		<path fill="#F9DC51" d="M16.55,36.314h-6.506v9.682c0,1.746,1.428,3.175,3.332,3.175c1.746,0,3.174-1.429,3.174-3.175V36.314z
			 M23.058,36.314H16.55v9.682c0,1.746,1.43,3.175,3.176,3.175c1.744,0,3.174-1.429,3.174-3.175v-9.682H23.058z M29.565,36.314
			H23.06v9.682c0,1.746,1.428,3.175,3.174,3.175s3.174-1.429,3.174-3.175v-9.682H29.565z M36.073,36.314h-6.508v9.682
			c0,1.746,1.428,3.175,3.174,3.175s3.174-1.429,3.174-3.175L36.073,36.314L36.073,36.314z M42.579,36.314h-6.506v9.682
			c0,1.746,1.428,3.333,3.174,3.333s3.332-1.429,3.332-3.333l0,0V36.314L42.579,36.314z"/>
		<path fill="#F9DC51" d="M48.927,36.314h-6.506v9.682c0,1.746,1.43,3.175,3.174,3.175s3.176-1.429,3.176-3.175v-9.682H48.927z
			 M55.437,36.314h-6.51v9.682c0,1.746,1.43,3.175,3.176,3.175c1.744,0,3.174-1.429,3.174-3.175v-9.682H55.437z"/>
		<path fill="#F9DC51" d="M61.942,36.314h-6.506v9.682c0,1.746,1.428,3.175,3.174,3.175s3.174-1.429,3.174-3.175v-9.682H61.942z"/>
		<path fill="#F9DC51" d="M68.45,36.314h-6.508v9.682c0,1.746,1.43,3.333,3.176,3.333s3.332-1.429,3.332-3.175l0,0V36.314z"/>
		<path fill="#F9DC51" d="M74.958,36.314H68.45v9.682c0,1.746,1.428,3.175,3.174,3.175s3.176-1.429,3.176-3.175v-9.682H74.958z"/>
		<path fill="#638A99" d="M61.942,23.301h6.508v13.014h-51.9V23.301h6.508C22.741,12.509,31.153,3.462,41.944,3.303
			c10.793-0.159,19.682,8.094,19.998,18.887C61.942,22.508,61.942,22.824,61.942,23.301z"/>
		<path fill="#EDF9FF" d="M36.073,10.285l-6.508,6.508l13.014,13.015l13.016-13.015l-6.508-6.508
			C48.927,10.285,36.073,10.285,36.073,10.285z"/>
		<path d="M81.462,82.5H3.536c-0.477,0-0.793-0.317-0.793-0.793c0-0.478,0.316-0.794,0.793-0.794h12.221V68.691
			c0-0.477,0.316-0.794,0.793-0.794s0.793,0.317,0.793,0.794v12.222h4.92V62.185c0-0.477,0.318-0.794,0.795-0.794h13.014
			c0.477,0,0.793,0.317,0.793,0.794v18.729h30.791V68.691c0-0.477,0.316-0.794,0.793-0.794s0.793,0.317,0.793,0.794v12.222h12.221
			c0.479,0,0.795,0.316,0.795,0.794C82.257,82.183,81.94,82.5,81.462,82.5z M23.853,80.913h11.426V62.978H23.853V80.913z
			 M61.942,69.486H42.579c-0.475,0-0.793-0.316-0.793-0.794V55.678c0-0.477,0.318-0.793,0.793-0.793h19.523
			c0.475,0,0.793,0.316,0.793,0.793c0,0.159,0,0.159,0,0.317v12.696C62.737,69.169,62.419,69.486,61.942,69.486z M43.374,67.898
			h17.934V56.472H43.374V67.898z M68.45,62.979c-0.479,0-0.793-0.316-0.793-0.793V49.171c-0.635,0.476-1.43,0.793-2.381,0.793l0,0
			c-1.43,0-2.539-0.635-3.334-1.745c-0.793,0.952-1.904,1.745-3.332,1.745c-1.271,0-2.539-0.635-3.174-1.587
			c-0.797,0.952-1.904,1.587-3.176,1.587c-1.27,0-2.541-0.635-3.176-1.587c-0.793,0.952-1.904,1.587-3.174,1.587
			s-2.539-0.635-3.174-1.587c-0.793,0.952-1.904,1.587-3.174,1.587c-1.43,0-2.539-0.635-3.332-1.745
			c-0.793,0.952-1.906,1.745-3.334,1.745c-1.27,0-2.539-0.635-3.174-1.587c-0.793,0.952-1.904,1.587-3.174,1.587
			s-2.539-0.635-3.174-1.587c-0.793,0.952-1.904,1.587-3.174,1.587c-0.953,0-1.746-0.317-2.381-0.793l0,0v13.015
			c0,0.477-0.316,0.793-0.793,0.793s-0.793-0.316-0.793-0.793V49.171l0,0c-0.637,0.476-1.588,0.793-2.539,0.793
			c-2.223,0-3.969-1.745-4.127-3.968v-9.682c0-0.476,0.316-0.793,0.793-0.793h5.713V23.301c0-0.477,0.318-0.793,0.795-0.793h5.713
			c0-5.079,2.062-9.999,5.555-13.648c3.65-3.969,8.729-6.19,14.125-6.35s10.635,1.746,14.443,5.555
			c3.967,3.65,6.188,8.729,6.348,14.125c0,0.159,0,0.159,0,0.317h5.555c0.477,0,0.795,0.316,0.795,0.793v12.221h5.871
			c0.477,0,0.795,0.317,0.795,0.793c0,0.159,0,0.159,0,0.317v9.364c0,2.223-1.746,3.968-3.969,3.968
			c-0.951,0-1.746-0.317-2.381-0.793l0,0v13.015C69.243,62.661,68.925,62.979,68.45,62.979z M62.896,37.108v8.888
			c0,1.429,1.109,2.54,2.381,2.54l0,0c1.27,0,2.223-0.795,2.381-2.063c0-0.158,0-0.317,0-0.477v-8.888H62.896L62.896,37.108z
			 M68.45,48.377C68.45,48.377,68.608,48.536,68.45,48.377C68.608,48.377,68.608,48.377,68.45,48.377L68.45,48.377z M16.55,48.377
			L16.55,48.377L16.55,48.377L16.55,48.377L16.55,48.377z M36.866,37.108v8.888c0,1.429,1.111,2.381,2.381,2.381
			s2.221-0.793,2.379-2.062c0-0.159,0-0.317,0-0.477v-8.889h-4.76V37.108L36.866,37.108z M10.837,37.108v8.888
			c0,1.429,1.111,2.381,2.539,2.381s2.381-1.11,2.381-2.381v-8.888H10.837z M69.403,46.473c0.158,1.111,1.27,2.063,2.381,2.063
			c1.428,0,2.379-1.111,2.379-2.382v-8.888h-4.76v8.888C69.403,46.155,69.403,46.314,69.403,46.473z M56.229,45.996
			c0,1.429,1.109,2.381,2.381,2.381c1.27,0,2.381-1.11,2.381-2.381v-8.888h-4.92v8.888H56.229z M49.88,45.996
			c0,1.429,1.109,2.381,2.381,2.381s2.381-1.11,2.381-2.381v-8.888H49.72v8.888H49.88z M43.374,46.473
			c0.158,1.111,1.27,2.063,2.381,2.063c1.428,0,2.381-1.111,2.381-2.382v-8.888h-4.92v8.888
			C43.374,46.155,43.374,46.314,43.374,46.473z M30.358,45.996c0,1.429,1.111,2.381,2.381,2.381s2.381-1.11,2.381-2.381v-8.888H30.2
			v8.888H30.358z M23.853,45.996c0,1.429,1.109,2.381,2.381,2.381c1.27,0,2.381-1.11,2.381-2.381v-8.888h-4.92v8.888H23.853z
			 M17.345,45.996c0,1.429,1.111,2.381,2.381,2.381s2.381-1.11,2.381-2.381v-8.888h-4.762V45.996L17.345,45.996z M17.345,35.521
			h50.312V24.095h-5.715c-0.477,0-0.793-0.317-0.793-0.793c0-0.159,0-0.317,0.156-0.317c0-0.158,0-0.476,0-0.635
			c-0.156-4.92-2.221-9.682-5.869-13.016c-3.65-3.491-8.412-5.236-13.334-5.078c-10.316,0.316-18.41,8.888-18.094,19.204
			c0,0.159,0,0.476-0.158,0.635s-0.316,0.317-0.635,0.317h-5.873v11.109H17.345z M42.579,30.602
			C42.421,30.602,42.421,30.602,42.579,30.602c-0.158,0-0.316,0-0.316,0c-0.316-0.159-0.477-0.316-0.477-0.476L29.249,17.587
			c-0.318-0.159-0.477-0.477-0.477-0.793c0-0.317,0.158-0.636,0.477-0.793l6.348-6.349c0.16-0.16,0.318-0.16,0.637-0.16h6.348l0,0
			l0,0h6.666c0.158,0,0.475,0.16,0.635,0.16l6.506,6.506l0,0l0,0l0,0l0.16,0.159c0,0.159,0,0.159,0,0.317s0,0.159,0,0.316
			c0,0.158-0.16,0.159-0.16,0.159l0,0l0,0l0,0L43.374,30.126C43.054,30.442,42.737,30.602,42.579,30.602L42.579,30.602z
			 M38.771,17.587l3.65,9.84l3.811-9.84H38.771z M47.976,17.587l-3.65,9.206l9.207-9.206H47.976z M31.47,17.587l8.889,8.888
			l-3.334-8.888H31.47z M47.817,16h5.873l-4.92-4.92h-4.764L47.817,16z M39.247,16h6.506l-3.332-4.444L39.247,16z M31.47,16h5.713
			l3.65-4.92h-4.445L31.47,16z"/>
	</g>
</g>
</svg>
