<?xml version="1.0" encoding="utf-8"?>
<!-- Generator: Adobe Illustrator 16.0.0, SVG Export Plug-In . SVG Version: 6.00 Build 0)  -->
<!DOCTYPE svg PUBLIC "-//W3C//DTD SVG 1.1//EN" "http://www.w3.org/Graphics/SVG/1.1/DTD/svg11.dtd">
<svg version="1.1" id="Layer_1" xmlns="http://www.w3.org/2000/svg" xmlns:xlink="http://www.w3.org/1999/xlink" x="0px" y="0px"
	 width="85px" height="85px" viewBox="0 0 85 85" enable-background="new 0 0 85 85" xml:space="preserve">
<g>
	<path fill="#4B5159" d="M2.606,45.996c-0.805-12.34,2.957-23.015,11.588-31.765C20.932,7.402,29.245,3.504,38.843,2.681
		c12.445-1.068,23.254,2.855,32.038,11.645c8.26,8.266,12.159,18.511,11.56,30.199c-0.559,10.884-4.944,20.141-13.032,27.534
		c-8.125,7.429-17.784,10.875-28.717,10.387c-9.957-0.444-18.634-4.172-25.872-11.126C7.588,64.37,3.67,55.854,2.606,45.996z"/>
	<path fill="#F26A69" d="M43.451,4.411c4.464,0.161,8.788,0.985,12.947,2.65c1.33,0.533,2.605,1.166,3.894,1.783
		c0.422,0.202,0.305,0.385,0.187,0.596c-0.66,1.168-1.359,2.313-2.013,3.484c-0.293,0.523-0.404,1.098,0.2,1.497
		c0.478,0.314,1.167,0.051,1.517-0.558c0.677-1.181,1.359-2.359,1.977-3.571c0.159-0.313,0.317-0.248,0.462-0.144
		c1.502,1.084,3.059,2.088,4.474,3.299c1.245,1.065,2.388,2.23,3.519,3.405c1.612,1.676,2.92,3.598,4.228,5.514
		c0.099,0.146,0.18,0.309-0.145,0.462c-1.229,0.582-2.336,1.392-3.562,1.994c-0.374,0.185-0.79,0.538-0.688,1.076
		c0.153,0.812,0.695,1.067,1.472,0.661c1.185-0.62,2.359-1.266,3.501-1.961c0.434-0.265,0.581-0.216,0.806,0.224
		c1.652,3.233,2.9,6.599,3.567,10.182c0.29,1.556,0.6,3.095,0.644,4.684c0.017,0.604,0.442,1.425,0.026,1.754
		c-0.396,0.312-1.214,0.092-1.846,0.095c-0.876,0.006-1.755,0.041-2.628-0.011c-0.733-0.044-0.971,0.459-1.127,0.969
		c-0.118,0.386,0.597,0.953,1.112,0.954c1.381,0.005,2.762,0.019,4.143-0.009c0.39-0.008,0.512,0.093,0.467,0.478
		c-0.163,1.396-0.277,2.795-0.457,4.191c-0.318,2.469-0.993,4.829-1.778,7.173c-0.589,1.756-1.406,3.41-2.212,5.071
		c-0.179,0.37-0.396,0.236-0.578,0.132c-1.188-0.677-2.351-1.4-3.551-2.056c-0.485-0.265-1.043-0.352-1.438,0.224
		c-0.347,0.502-0.089,1.123,0.621,1.535c1.095,0.636,2.177,1.295,3.287,1.901c0.391,0.213,0.458,0.338,0.202,0.746
		c-1.899,3.022-4.228,5.685-6.852,8.08c-1.556,1.42-3.272,2.653-5.041,3.807c-0.344,0.224-0.524,0.124-0.691-0.162
		c-0.636-1.094-1.275-2.185-1.891-3.289c-0.286-0.515-0.622-0.982-1.27-0.814c-0.686,0.178-0.879,0.755-0.506,1.463
		c0.624,1.183,1.269,2.357,1.963,3.5c0.263,0.432,0.215,0.581-0.227,0.807c-3.233,1.65-6.599,2.899-10.183,3.565
		c-1.555,0.289-3.097,0.577-4.683,0.656c-0.611,0.03-1.229,0.126-1.849,0.131c0-0.104,0-0.209,0-0.313
		c-0.001-10.663,0-21.326-0.002-31.988c0-0.129,0.046-0.265-0.038-0.383c-0.024-0.343,0.249-0.255,0.436-0.307
		c2.41-0.656,4.235-2.946,3.888-5.763c-0.279-2.261-1.914-3.883-3.871-4.423c-0.187-0.051-0.455,0.039-0.458-0.296
		c0.117-0.31,0.041-0.628,0.041-0.939C43.452,25.582,43.451,14.996,43.451,4.411z"/>
	<path fill="#F7F5FA" d="M43.451,47.594c0,10.942,0,21.884,0,32.825c-0.696,0.137-1.126-0.396-1.568-0.729
		c-2.473-1.869-4.933-3.75-7.211-5.869c-2.698-2.509-5.278-5.115-7.637-7.951c-2.098-2.522-4.044-5.146-5.814-7.903
		c-2.318-3.609-4.373-7.358-6.06-11.31c-0.896-2.099-1.746-4.213-2.463-6.376c-1.14-3.438-2.083-6.929-2.732-10.499
		c-0.269-1.478-0.475-2.965-0.757-4.44c-0.049-0.255-0.19-0.619,0.142-0.853c1.23,0.694,2.45,1.408,3.696,2.074
		c0.726,0.389,1.303,0.117,1.485-0.644c0.134-0.561-0.302-0.87-0.656-1.083c-1.266-0.762-2.575-1.453-3.893-2.186
		c3.25-5.204,7.463-9.427,12.694-12.65c0.714,1.296,1.418,2.598,2.149,3.885c0.316,0.558,1.125,0.843,1.515,0.521
		c0.507-0.418,0.487-0.959,0.178-1.503c-0.638-1.12-1.223-2.275-1.943-3.339c-0.324-0.479-0.192-0.544,0.205-0.758
		c2.508-1.35,5.145-2.377,7.889-3.11c1.698-0.454,3.421-0.783,5.178-0.995c1.869-0.226,3.731-0.303,5.605-0.29
		c0,10.995,0,21.99,0,32.984c-0.764-0.361-1.544-0.178-2.278,0.034c-2.722,0.786-4.14,3.091-3.897,5.459
		c0.245,2.388,1.488,3.991,4.049,4.699C42.022,47.781,42.742,47.913,43.451,47.594z"/>
	<path fill="#E4E4E8" d="M9.35,24.489c-0.488,0.709-0.01,1.437,0.046,2.125c0.111,1.366,0.512,2.707,0.745,4.067
		c0.353,2.067,0.9,4.089,1.453,6.104c0.854,3.114,1.944,6.162,3.212,9.128c1.478,3.453,3.188,6.795,5.149,10.013
		c1.622,2.663,3.35,5.25,5.246,7.714c1.163,1.511,2.411,2.965,3.682,4.396c1.369,1.543,2.842,2.978,4.31,4.416
		c2.194,2.15,4.542,4.125,7.015,5.955c0.815,0.603,1.634,1.198,2.447,1.804c0.273,0.204,0.517,0.199,0.797,0.208
		c0,0.054,0,0.106,0,0.16c-1.627,0.023-3.257,0.032-4.874-0.166c-3.402-0.418-6.726-1.172-9.921-2.441
		c-1.352-0.538-2.653-1.184-3.958-1.825c-0.419-0.206-0.306-0.386-0.188-0.596c0.585-1.037,1.196-2.062,1.8-3.089
		c0.286-0.484,0.589-0.988,0.344-1.559c-0.129-0.299-0.473-0.534-0.805-0.504c-0.478,0.043-0.812,0.373-1.05,0.797
		c-0.656,1.166-1.359,2.308-1.965,3.498c-0.201,0.395-0.378,0.193-0.524,0.102c-3.109-1.952-5.855-4.347-8.322-7.05
		c-1.403-1.537-2.6-3.246-3.75-4.984c-0.239-0.362-0.142-0.499,0.175-0.675c1.125-0.625,2.241-1.267,3.362-1.9
		c0.719-0.406,0.965-0.929,0.676-1.442c-0.327-0.58-0.809-0.67-1.582-0.24c-1.127,0.625-2.262,1.243-3.348,1.936
		c-0.366,0.233-0.446,0.26-0.664-0.139c-1.611-2.947-2.75-6.068-3.487-9.337c-0.414-1.833-0.765-3.677-0.826-5.569
		C4.53,44.892,4.424,44.381,4.4,43.865c-0.018-0.369,0.114-0.427,0.447-0.422c1.354,0.019,2.708,0,4.062,0.011
		c0.645,0.006,1.063-0.219,1.079-0.927c0.015-0.659-0.348-0.987-1.093-0.988c-1.328-0.001-2.656-0.021-3.982,0.012
		c-0.429,0.011-0.545-0.111-0.506-0.52c0.166-1.728,0.331-3.448,0.606-5.169c0.463-2.892,1.396-5.626,2.435-8.334
		c0.386-1.008,0.931-1.956,1.429-2.918C8.944,24.478,9.089,24.108,9.35,24.489z"/>
	<path fill="#F5D367" d="M43.451,47.594c-1.398,0.477-2.644-0.037-3.792-0.714c-1.907-1.123-2.73-3.481-2.399-5.012
		c0.539-2.489,1.653-3.828,4.171-4.477c0.681-0.176,1.347-0.276,2.02,0.004c1.577,0.011,3.582,1.602,4.126,3.627
		c0.782,2.917-0.785,5.577-3.518,6.508C43.872,47.595,43.654,47.575,43.451,47.594z"/>
	<path fill="#4B5159" d="M54.765,60.601c0,1.356,0.018,2.417-0.003,3.478c-0.058,2.885-2.196,5.182-5.209,4.853
		c-2.025-0.222-3.821-1.837-4.052-4.031c-0.252-2.396-0.162-4.789-0.109-7.177c0.066-2.97,1.74-4.973,4.789-4.998
		c2.039-0.017,4.049,1.441,4.447,3.855C54.867,58.026,54.634,59.461,54.765,60.601z"/>
	<path fill="#4C5159" d="M57.474,52.771c0,0.767-0.009,1.534,0.003,2.302c0.01,0.604-0.246,0.916-0.869,0.975
		c-0.681,0.063-1.012-0.374-1.033-0.885c-0.064-1.584-0.056-3.174-0.002-4.758c0.019-0.57,0.456-1.043,1.025-1.026
		c0.565,0.017,0.945,0.391,0.89,1.092C57.427,51.232,57.474,52.004,57.474,52.771z"/>
	<path fill="#4B5159" d="M39.174,54.605c-1.693,0-3.312-0.006-4.93,0.003c-0.589,0.003-0.953-0.19-1-0.849
		c-0.052-0.712,0.366-1.038,0.946-1.049c2.176-0.041,4.353-0.033,6.528-0.006c0.834,0.01,1.236,0.755,0.823,1.503
		c-0.754,1.368-1.538,2.721-2.326,4.07c-0.27,0.461-0.303,0.686,0.3,0.974c1.802,0.859,2.691,2.462,2.783,4.365
		c0.092,1.9-1.042,3.895-3.358,4.862c-2.29,0.956-4.329,0.477-6.107-1.05c-0.84-0.721-1.455-1.723-1.506-2.953
		c-0.025-0.596,0.386-0.782,0.765-0.926c0.419-0.159,0.757,0.109,0.958,0.5c0.079,0.153,0.158,0.311,0.202,0.476
		c0.475,1.799,2.175,2.702,4.15,2.508c1.413-0.14,2.872-1.534,3.001-3.098c0.119-1.438-0.962-3.118-2.897-3.428
		c-1.053-0.168-1.311-0.771-0.749-1.694C37.581,57.459,38.34,56.064,39.174,54.605z"/>
	<path fill="#F26A69" d="M52.853,61.089c-0.126,1.11,0.175,2.475-0.15,3.83c-0.321,1.336-1.357,2.138-2.843,2.117
		c-1.041-0.014-2.312-1.099-2.45-2.286c-0.282-2.447-0.185-4.898-0.086-7.333c0.075-1.885,1.02-2.623,2.512-2.772
		c1.681-0.168,2.909,0.975,3.007,2.861C52.9,58.616,52.853,59.732,52.853,61.089z"/>
</g>
</svg>
