<?xml version="1.0" encoding="utf-8"?>
<!-- Generator: Adobe Illustrator 16.0.0, SVG Export Plug-In . SVG Version: 6.00 Build 0)  -->
<!DOCTYPE svg PUBLIC "-//W3C//DTD SVG 1.1//EN" "http://www.w3.org/Graphics/SVG/1.1/DTD/svg11.dtd">
<svg version="1.1" id="Layer_1" xmlns="http://www.w3.org/2000/svg" xmlns:xlink="http://www.w3.org/1999/xlink" x="0px" y="0px"
	 width="85px" height="85px" viewBox="0 0 85 85" enable-background="new 0 0 85 85" xml:space="preserve">
<g>
	<path fill="#0097FA" d="M81.33,55.035H52.941v-33.97h23.881c2.488,0,4.508,2.019,4.508,4.509V55.035L81.33,55.035z"/>
	<path fill="#006AC3" d="M74.129,31.346h2.693c2.488,0,4.508-2.019,4.508-4.508v29.187c0,2.49-2.02,4.51-4.508,4.51h-2.693V31.346z"
		/>
	<path fill="#0097FA" d="M3.672,70.643h28.389V36.675H8.18c-2.488,0-4.508,2.018-4.508,4.508V70.643z"/>
	<path fill="#006AC3" d="M10.875,46.955H8.182c-2.49,0-4.508-2.02-4.508-4.508v29.188c0,2.49,2.018,4.508,4.508,4.508h2.693V46.955
		L10.875,46.955z"/>
	<circle fill="#FFBC8A" cx="57.418" cy="29.209" r="3.393"/>
	<circle fill="#FFBC8A" cx="27.584" cy="29.209" r="3.393"/>
	<path fill="#BDEB73" d="M65.262,53.404V78.74c0,0.809-0.656,1.467-1.467,1.467l0,0H21.207c-0.811,0-1.467-0.658-1.467-1.467l0,0
		V53.406c0-4.986,3.004-9.271,7.299-11.144c1.484-0.647,3.127-1.006,4.85-1.006h21.227c0.662,0,1.314,0.052,1.949,0.156
		c1,0.161,1.973,0.445,2.898,0.85c0.006,0.001,0.01,0.003,0.014,0.006C62.264,44.143,65.262,48.424,65.262,53.404z"/>
	<path fill="#9AD63B" d="M65.262,53.404V78.74c0,0.809-0.656,1.467-1.467,1.467h-3.379c0.809,0,1.465-0.658,1.465-1.467V53.406
		c0-4.984-3.002-9.271-7.299-11.143c-0.926-0.405-1.9-0.689-2.898-0.851c-0.645-0.105-1.299-0.158-1.951-0.157h3.381
		c0.664,0,1.316,0.053,1.951,0.157c0.998,0.159,1.973,0.445,2.898,0.851C62.258,44.135,65.262,48.42,65.262,53.404z"/>
	<path fill="#FFF5F5" d="M57.975,42.267v37.938H27.037V42.261c1.486-0.648,3.127-1.006,4.852-1.006h21.225
		c0.664,0,1.314,0.052,1.951,0.156c0.998,0.16,1.973,0.445,2.898,0.85C57.967,42.263,57.971,42.265,57.975,42.267L57.975,42.267z"/>
	<path fill="#E0D3CE" d="M57.975,42.268v37.939h-2.846V41.422c0.977,0.162,1.928,0.444,2.834,0.839
		C57.967,42.263,57.971,42.265,57.975,42.268L57.975,42.268z"/>
	<path fill="#BDEB73" d="M34.316,45.23h16.371v14.887H34.316V45.23z"/>
	<path fill="#FDD1A7" d="M42.5,47.938c-6.902,0-12.596-5.404-12.957-12.297l-0.494-9.441c-0.209-4.008,2.984-7.371,6.996-7.371
		h12.912c4.014,0,7.205,3.363,6.996,7.371l-0.494,9.441C55.098,42.534,49.404,47.938,42.5,47.938L42.5,47.938z"/>
	<path fill="#FFF5F5" d="M58.576,24.891h-32.15v-4.054c0-8.012,6.494-14.506,14.506-14.506h3.139
		c8.012,0,14.506,6.494,14.506,14.506V24.891L58.576,24.891z"/>
	<path fill="#E0D3CE" d="M58.576,20.837v4.054h-3.381v-4.054c0-7.971-6.428-14.438-14.383-14.503
		c0.041-0.001,0.078-0.001,0.119-0.001h3.139C52.082,6.332,58.576,12.826,58.576,20.837L58.576,20.837z"/>
	<path fill="#CDBFBB" d="M58.738,26.964H26.264c-1.145,0-2.072-0.928-2.072-2.073c0-1.145,0.928-2.073,2.072-2.073h32.475
		c1.145,0,2.072,0.929,2.072,2.073C60.811,26.037,59.881,26.964,58.738,26.964z"/>
	<path fill="#9E9797" d="M60.811,24.891c0,0.55-0.219,1.078-0.607,1.467c-0.389,0.39-0.916,0.607-1.465,0.605h-3.396
		c0.551,0.001,1.078-0.217,1.469-0.605c0.389-0.388,0.607-0.917,0.605-1.467c0-1.144-0.928-2.072-2.074-2.072h3.396
		C59.883,22.819,60.811,23.748,60.811,24.891z"/>
	<path fill="#E0D3CE" d="M43.963,17.901h-2.922c-0.828,0-1.5-0.671-1.5-1.499V6.289c0-0.827,0.672-1.5,1.5-1.5h2.922
		c0.828,0,1.498,0.672,1.498,1.5v10.113C45.461,17.23,44.789,17.901,43.963,17.901z"/>
	<g>
		<path fill="#CDBFBB" d="M57.363,60.117h-6.396c-0.799,0-1.445-0.648-1.445-1.447l0,0v-2.867c0-0.799,0.646-1.445,1.445-1.445l0,0
			h6.396c0.799,0,1.447,0.646,1.447,1.445l0,0v2.867C58.811,59.469,58.162,60.117,57.363,60.117z"/>
		<path fill="#9E9797" d="M58.809,55.803v2.869c0,0.797-0.646,1.445-1.445,1.445h-3.1c0.803,0,1.447-0.648,1.447-1.445v-2.869
			c0-0.799-0.645-1.445-1.447-1.445h3.1C58.162,54.357,58.809,55.004,58.809,55.803z"/>
		<g>
			<path fill="#CDBFBB" d="M34.033,60.117h-6.395c-0.799,0-1.445-0.648-1.445-1.447l0,0v-2.867c0-0.799,0.646-1.445,1.445-1.445l0,0
				h6.395c0.799,0,1.447,0.646,1.447,1.445l0,0v2.867C35.48,59.469,34.832,60.117,34.033,60.117L34.033,60.117z"/>
		</g>
	</g>
	<g>
		<path d="M76.822,19.894H59.717c-0.438-7.354-5.953-13.436-13.26-14.55c-0.383-1.007-1.354-1.726-2.494-1.726h-2.922
			c-1.139,0-2.111,0.718-2.494,1.723c-2.824,0.432-5.463,1.624-7.668,3.468c-0.498,0.416-0.562,1.155-0.146,1.651
			s1.152,0.562,1.65,0.146c1.734-1.451,3.789-2.428,5.986-2.855v8.65c0,1.474,1.199,2.673,2.672,2.673h2.922
			c1.473,0,2.67-1.199,2.67-2.673V7.753c6.207,1.203,10.771,6.656,10.771,13.084v0.81H27.598v-0.81c0-2.164,0.531-4.313,1.535-6.215
			c0.307-0.57,0.094-1.281-0.479-1.588c-0.57-0.305-1.281-0.092-1.586,0.479c-0.002,0.004-0.006,0.009-0.008,0.014
			c-1.182,2.238-1.807,4.766-1.807,7.31v0.973c-1.295,0.426-2.232,1.646-2.232,3.082c0,0.734,0.248,1.409,0.658,1.954
			c-0.432,0.712-0.66,1.531-0.658,2.365c0,2.517,2.047,4.564,4.562,4.564c0.23,0,0.459-0.02,0.688-0.054l0.092,1.783H8.18
			c-3.131,0-5.68,2.548-5.68,5.68v30.454c0,3.133,2.549,5.68,5.68,5.68h2.695c0.646,0,1.172-0.523,1.172-1.172v-4.328h6.521v6.926
			c0,1.453,1.182,2.637,2.637,2.637c0.648,0,1.172-0.523,1.172-1.172c0-0.646-0.523-1.172-1.172-1.172
			c-0.162,0-0.293-0.131-0.295-0.293V53.41c0-3.803,1.967-7.193,4.955-9.17v9.646c-0.52,0.479-0.846,1.16-0.846,1.92v2.869
			c0,0.758,0.326,1.441,0.846,1.92v19.613c0,0.646,0.525,1.172,1.172,1.172s1.172-0.523,1.172-1.172V61.293h11.967
			c0.646,0,1.172-0.525,1.172-1.172s-0.525-1.172-1.172-1.172h-3.539c0.01-0.092,0.016-0.184,0.016-0.273v-2.869
			c0-0.906-0.463-1.705-1.166-2.176v-6.377c2.07,1.182,4.467,1.857,7.014,1.857s4.941-0.676,7.012-1.857v6.377
			c-0.699,0.471-1.164,1.27-1.164,2.176v2.869c0,0.092,0.006,0.184,0.016,0.273h-2.602c-0.646,0-1.172,0.523-1.172,1.172
			c0,0.646,0.523,1.172,1.172,1.172h11.029v18.918c0,0.645,0.523,1.17,1.172,1.17s1.172-0.523,1.172-1.17V60.592
			c0.52-0.479,0.846-1.162,0.846-1.922v-2.867c0-0.76-0.326-1.441-0.846-1.922v-9.652c0.76,0.498,1.455,1.09,2.07,1.76
			c1.859,2.027,2.885,4.662,2.885,7.418V78.74c0,0.162-0.133,0.295-0.295,0.295c-0.646,0-1.172,0.523-1.172,1.172
			c0,0.646,0.523,1.172,1.172,1.172c1.455,0,2.639-1.186,2.639-2.639V56.207h6.521v4.328c0,0.646,0.523,1.172,1.172,1.172l0,0h2.693
			c3.131,0,5.68-2.547,5.68-5.68V42.426c0-0.647-0.525-1.172-1.172-1.172c-0.648,0-1.172,0.524-1.172,1.172v13.601
			c0,1.84-1.496,3.336-3.336,3.336h-1.521V32.518h1.521c1.197,0.001,2.367-0.379,3.336-1.085v5.407c0,0.647,0.523,1.172,1.172,1.172
			c0.646,0,1.172-0.524,1.172-1.172V25.575C82.502,22.442,79.953,19.894,76.822,19.894L76.822,19.894z M44.289,16.402
			c0,0.182-0.146,0.328-0.328,0.328h-2.92c-0.182,0-0.328-0.146-0.328-0.328V6.289c0-0.18,0.146-0.327,0.328-0.327h2.92
			c0.182,0,0.328,0.147,0.328,0.327V16.402z M59.637,29.21c0,1.225-0.996,2.221-2.221,2.221c-0.191,0-0.379-0.026-0.561-0.073
			l0.168-3.221h1.713c0.199,0,0.396-0.02,0.59-0.056C59.531,28.421,59.639,28.812,59.637,29.21z M26.264,25.792
			c-0.496,0-0.9-0.404-0.9-0.901s0.404-0.901,0.9-0.901h32.475c0.496,0,0.898,0.404,0.898,0.901s-0.402,0.901-0.898,0.901H26.264
			L26.264,25.792z M27.584,31.43c-1.225,0-2.221-0.996-2.221-2.221c0-0.404,0.109-0.791,0.312-1.13
			c0.191,0.035,0.389,0.057,0.59,0.057h1.713l0.168,3.222C27.965,31.406,27.777,31.43,27.584,31.43z M9.703,74.973H8.18
			c-1.838,0-3.334-1.498-3.334-3.336V47.041c0.969,0.707,2.137,1.088,3.334,1.086h1.523V74.973L9.703,74.973z M18.568,53.406v0.932
			H16.18c-0.646,0-1.172,0.523-1.172,1.172c0,0.646,0.523,1.172,1.172,1.172h2.389v5.832H16.18c-0.646,0-1.172,0.523-1.172,1.172
			s0.523,1.172,1.172,1.172h2.389v4.615h-6.521V46.955c0-0.646-0.523-1.172-1.172-1.172l0,0H8.182c-1.84,0-3.336-1.496-3.336-3.334
			v-1.266c0-1.84,1.496-3.336,3.336-3.336h20.471c0.174,0.846,0.426,1.673,0.752,2.473C23.217,41.494,18.568,46.967,18.568,53.406
			L18.568,53.406z M30.875,57.549c0.648,0,1.172-0.525,1.172-1.172l0,0v-0.85h1.988c0.15,0,0.273,0.123,0.273,0.275v2.867
			c0,0.15-0.123,0.273-0.273,0.273h-6.396c-0.15,0-0.273-0.123-0.273-0.273v-2.867c0-0.152,0.123-0.275,0.273-0.275h2.064v0.85
			C29.703,57.023,30.229,57.549,30.875,57.549z M33.145,53.186h-4.934V43.064c0.752-0.27,1.533-0.457,2.326-0.554
			c0.721,1.138,1.598,2.169,2.607,3.06V53.186z M30.713,35.58l-0.389-7.443h24.354l-0.391,7.443
			c-0.328,6.271-5.506,11.186-11.787,11.186S31.043,41.851,30.713,35.58z M54.127,57.549c0.646,0,1.172-0.525,1.172-1.172l0,0v-0.85
			h2.064c0.15,0,0.273,0.123,0.273,0.275v2.867c0,0.15-0.123,0.273-0.273,0.273h-6.396c-0.15,0-0.273-0.123-0.273-0.273v-2.867
			c0-0.152,0.123-0.275,0.273-0.275h1.986v0.85C52.955,57.023,53.48,57.549,54.127,57.549z M56.793,53.186h-4.936V45.57
			c1.01-0.891,1.887-1.92,2.605-3.058c0.795,0.097,1.574,0.282,2.328,0.55v10.123H56.793z M76.822,30.174h-2.693
			c-0.646,0-1.172,0.524-1.172,1.172v22.515h-6.521v-0.455c0-1.697-0.324-3.381-0.955-4.957h2.141c0.648,0,1.172-0.523,1.172-1.172
			c0-0.646-0.523-1.172-1.172-1.172h-3.365c-0.381-0.58-0.805-1.131-1.271-1.645h4.637c0.648,0,1.172-0.523,1.172-1.172
			c0-0.647-0.523-1.171-1.172-1.171h-7.432c-1.402-0.884-2.961-1.494-4.59-1.803c0.6-1.469,0.947-3.028,1.029-4.613l0.104-1.981
			c0.227,0.034,0.455,0.054,0.686,0.054c2.518,0,4.564-2.048,4.564-4.564c0-0.849-0.23-1.659-0.66-2.366
			c0.412-0.544,0.66-1.219,0.66-1.953c0-1.097-0.549-2.066-1.385-2.654h16.225c1.838,0,3.336,1.497,3.336,3.336v1.266
			C80.158,28.677,78.66,30.174,76.822,30.174L76.822,30.174z"/>
		<path d="M68.449,33.396c-0.457-0.458-1.199-0.458-1.656,0h-0.002l-0.434,0.436l-0.436-0.436c-0.457-0.458-1.199-0.458-1.656,0
			h-0.002c-0.457,0.458-0.457,1.2,0,1.657l0.438,0.435l-0.438,0.436c-0.457,0.458-0.457,1.2,0.002,1.657
			c0.221,0.22,0.518,0.343,0.828,0.343s0.609-0.124,0.828-0.343l0.436-0.436l0.436,0.436c0.219,0.22,0.518,0.343,0.828,0.343
			c0.646,0,1.172-0.525,1.172-1.172c0-0.312-0.123-0.609-0.344-0.829l-0.436-0.436l0.436-0.435
			C68.906,34.595,68.906,33.853,68.449,33.396L68.449,33.396z M66.357,30.374c0.646,0,1.172-0.525,1.172-1.172v-2.176
			c0-0.646-0.525-1.172-1.172-1.172s-1.172,0.525-1.172,1.172v2.176C65.186,29.848,65.711,30.374,66.357,30.374z M36.453,32.412
			c-0.648,0-1.172,0.531-1.172,1.18c0,0.646,0.523,1.172,1.172,1.172c0.646,0,1.172-0.525,1.172-1.172v-0.015
			C37.625,32.928,37.1,32.412,36.453,32.412L36.453,32.412z M48.549,32.412c-0.646,0-1.172,0.531-1.172,1.18
			c0,0.646,0.523,1.172,1.172,1.172s1.172-0.525,1.172-1.172v-0.015C49.721,32.928,49.197,32.412,48.549,32.412L48.549,32.412z
			 M46.205,37.403c-0.623-0.179-1.271,0.182-1.451,0.803c-0.287,1-1.213,1.697-2.252,1.697s-1.967-0.697-2.254-1.697
			c-0.178-0.622-0.828-0.981-1.449-0.803c-0.623,0.18-0.98,0.828-0.803,1.45c0.576,1.998,2.428,3.395,4.506,3.395
			s3.934-1.396,4.506-3.395C47.186,38.231,46.826,37.583,46.205,37.403L46.205,37.403z M51.553,71.475H33.449
			c-0.648,0-1.172,0.523-1.172,1.172v3.182c0,0.646,0.523,1.172,1.172,1.172c0.646,0,1.172-0.523,1.172-1.172v-2.01h15.762v2.01
			c0,0.646,0.523,1.172,1.172,1.172s1.172-0.523,1.172-1.172v-3.182C52.727,71.998,52.201,71.475,51.553,71.475L51.553,71.475z
			 M17.898,40.504h-4.146c-0.646,0-1.172,0.523-1.172,1.172c0,0.647,0.523,1.172,1.172,1.172h4.146c0.646,0,1.172-0.524,1.172-1.172
			S18.545,40.504,17.898,40.504z"/>
	</g>
</g>
</svg>
