<?xml version="1.0" encoding="utf-8"?>
<!-- Generator: Adobe Illustrator 16.0.0, SVG Export Plug-In . SVG Version: 6.00 Build 0)  -->
<!DOCTYPE svg PUBLIC "-//W3C//DTD SVG 1.1//EN" "http://www.w3.org/Graphics/SVG/1.1/DTD/svg11.dtd">
<svg version="1.1" id="Layer_1" xmlns="http://www.w3.org/2000/svg" xmlns:xlink="http://www.w3.org/1999/xlink" x="0px" y="0px"
	 width="85px" height="85px" viewBox="0 0 85 85" enable-background="new 0 0 85 85" xml:space="preserve">
<g>
	<path fill="#EAFFFF" d="M71.131,77.867H13.868c-3.721,0-6.737-3.016-6.737-6.734V13.869c0-3.721,3.017-6.736,6.737-6.736h57.263
		c3.721,0,6.734,3.016,6.734,6.736v57.264C77.865,74.852,74.852,77.867,71.131,77.867z"/>
	<path fill="#A9D5BB" d="M81.234,77.867c0,1.861-1.508,3.369-3.367,3.369H7.13c-1.86,0-3.368-1.508-3.368-3.369V59.342h77.472
		V77.867L81.234,77.867z"/>
	<path fill="#FFFF81" d="M28.813,62.711c-0.408-1.332-0.629-2.746-0.629-4.211c0-7.906,6.408-14.314,14.316-14.314
		c7.904,0,14.314,6.408,14.314,14.314c0,1.467-0.221,2.879-0.631,4.211H28.813z"/>
	<path fill="#FFF145" d="M36.196,62.711c-0.805-1.205-1.276-2.652-1.276-4.211c0-4.186,3.394-7.578,7.579-7.578
		c4.185,0,7.578,3.393,7.578,7.578c0,1.559-0.471,3.006-1.275,4.211H36.196z"/>
	<path fill="#A03D07" d="M23.973,6.289v53.053h-5.054V6.289c0-1.395,1.132-2.525,2.526-2.525S23.973,4.895,23.973,6.289z
		 M63.551,3.764c-1.396,0-2.525,1.131-2.525,2.525v53.053h5.053V6.289C66.076,4.895,64.945,3.764,63.551,3.764z"/>
	<path fill="#FF7039" d="M81.234,35.764v1.684c0,0.93-0.754,1.686-1.684,1.686H5.446c-0.93,0-1.684-0.754-1.684-1.686v-1.684
		c0-0.93,0.754-1.686,1.684-1.686h74.105C80.48,34.078,81.234,34.834,81.234,35.764z"/>
	<path fill="#727C7C" d="M30.709,61.025c0,0.93-0.754,1.686-1.684,1.686H5.446c-0.93,0-1.684-0.756-1.684-1.686v-3.367
		c0-0.932,0.754-1.686,1.684-1.686h20.211C28.446,55.973,30.709,58.236,30.709,61.025z M79.551,55.973H59.34
		c-2.789,0-5.053,2.264-5.053,5.053c0,0.932,0.754,1.686,1.686,1.686h23.578c0.93,0,1.684-0.754,1.684-1.686v-3.367
		C81.234,56.727,80.48,55.973,79.551,55.973z"/>
	<path d="M17.235,70.148c-0.697,0-1.262-0.564-1.262-1.264c0-0.697,0.565-1.264,1.262-1.264h50.527c0.697,0,1.264,0.566,1.264,1.264
		s-0.564,1.264-1.264,1.264H17.235L17.235,70.148z M50.92,79.973H34.078c-0.698,0-1.263,0.564-1.263,1.264
		c0,0.697,0.564,1.264,1.263,1.264H50.92c0.695,0,1.262-0.564,1.262-1.264C52.182,80.539,51.615,79.973,50.92,79.973z
		 M20.604,73.799H10.499c-0.697,0-1.264,0.564-1.264,1.264c0,0.697,0.566,1.262,1.264,1.262h10.105c0.697,0,1.263-0.564,1.263-1.262
		C21.868,74.363,21.301,73.799,20.604,73.799z M74.498,73.799H64.393c-0.697,0-1.262,0.564-1.262,1.264
		c0,0.697,0.564,1.262,1.262,1.262h10.105c0.697,0,1.264-0.564,1.264-1.262C75.762,74.363,75.195,73.799,74.498,73.799z
		 M67.34,40.395v14.316h12.211c1.625,0,2.947,1.32,2.947,2.945v3.369c0,1.625-1.322,2.947-2.947,2.947h-3.424
		c-0.697,0-1.264-0.566-1.264-1.264s0.564-1.264,1.264-1.264h3.424c0.232,0,0.422-0.188,0.422-0.422v-3.367
		c0-0.232-0.189-0.422-0.422-0.422H59.34c-2.09,0-3.789,1.699-3.789,3.789c0,0.232,0.188,0.422,0.422,0.422h15.213
		c0.697,0,1.264,0.564,1.264,1.264c0,0.697-0.564,1.264-1.264,1.264H13.868c-0.698,0-1.264-0.566-1.264-1.264
		s0.565-1.264,1.264-1.264h15.158c0.231,0,0.42-0.188,0.42-0.422c0-2.09-1.699-3.789-3.789-3.789H5.446
		c-0.231,0-0.42,0.189-0.42,0.422v3.367c0,0.232,0.188,0.422,0.42,0.422H8.59c0.698,0,1.264,0.564,1.264,1.264
		c0,0.697-0.566,1.264-1.264,1.264H5.446c-1.625,0-2.946-1.322-2.946-2.947v-3.369c0-1.625,1.321-2.945,2.946-2.945h12.211V40.395
		H5.446c-1.625,0-2.946-1.322-2.946-2.947v-1.684c0-1.352,0.912-2.492,2.151-2.838l13.007-22.762V6.289
		c0-2.088,1.7-3.789,3.79-3.789s3.789,1.699,3.789,3.789v3.875l12.945,22.652h8.638l12.943-22.652V6.289
		c0-2.088,1.699-3.789,3.789-3.789s3.789,1.699,3.789,3.789v3.875l13.006,22.762c1.24,0.348,2.152,1.488,2.152,2.838v1.684
		c0,1.625-1.322,2.947-2.947,2.947H67.34L67.34,40.395z M67.34,32.816h10.035L67.34,15.256V32.816z M49.729,32.816h10.033V15.256
		L49.729,32.816z M25.235,32.816H35.27L25.235,15.256V32.816z M7.623,32.816h10.034V15.256L7.623,32.816z M22.709,40.395h-2.525
		v14.316h2.525V40.395z M48.814,58.5c0-3.482-2.834-6.314-6.314-6.314c-3.484,0-6.316,2.832-6.316,6.314
		c0,1.035,0.25,2.043,0.729,2.947h11.173C48.564,60.543,48.814,59.535,48.814,58.5z M59.762,40.395H25.235v14.316h0.422
		c3.482,0,6.316,2.832,6.316,6.314c0,0.143-0.011,0.283-0.031,0.42h2.219c-0.332-0.938-0.504-1.934-0.504-2.945
		c0-4.875,3.967-8.844,8.842-8.844c4.876,0,8.841,3.969,8.841,8.844c0,1.014-0.17,2.008-0.504,2.945h2.219
		c-0.021-0.137-0.029-0.277-0.029-0.42c0-3.482,2.832-6.314,6.314-6.314h0.422V40.395z M64.814,40.395h-2.527v14.316h2.527V40.395z
		 M79.551,37.867c0.232,0,0.422-0.188,0.422-0.42v-1.684c0-0.229-0.184-0.416-0.41-0.422c-0.01,0-0.021,0-0.033,0H66.078
		c-0.697,0-1.264-0.564-1.264-1.264V10.523c0-0.016,0-0.031,0-0.047V6.289c0-0.697-0.566-1.264-1.264-1.264
		s-1.264,0.566-1.264,1.264v4.188c0,0.016,0,0.031,0,0.047v22.291h0.084c0.697,0,1.264,0.566,1.264,1.264s-0.564,1.264-1.264,1.264
		H47.572c-0.016,0-0.029,0-0.047,0H37.471c-0.017,0-0.031,0-0.048,0H24.121c-0.024,0-0.05,0-0.074-0.002
		c-0.024,0.002-0.049,0.002-0.073,0.002c-0.699,0-1.264-0.566-1.264-1.264V10.523c0-0.016,0-0.031,0-0.047V6.289
		c0-0.697-0.566-1.264-1.264-1.264c-0.695,0-1.262,0.566-1.262,1.264v4.188c0,0.016,0,0.031,0,0.047v22.291
		c0.67,0.029,1.207,0.584,1.207,1.262c0,0.699-0.566,1.264-1.264,1.264H5.469c-0.013,0-0.023,0-0.035,0
		c-0.228,0.006-0.41,0.193-0.41,0.422v1.684c0,0.232,0.189,0.422,0.422,0.422H79.551L79.551,37.867z M57.656,73.799H27.34
		c-0.697,0-1.263,0.564-1.263,1.264c0,0.697,0.565,1.262,1.263,1.262h30.316c0.697,0,1.264-0.564,1.264-1.262
		C58.92,74.363,58.354,73.799,57.656,73.799z M28.928,53.756c0.637,0.289,1.385,0.006,1.672-0.629
		c2.109-4.664,6.78-7.68,11.898-7.68c5.117,0,9.787,3.016,11.898,7.68c0.211,0.467,0.67,0.742,1.152,0.742
		c0.174,0,0.35-0.035,0.52-0.113c0.635-0.287,0.918-1.035,0.629-1.67c-2.518-5.568-8.092-9.164-14.199-9.164
		c-6.107,0-11.682,3.596-14.201,9.164C28.01,52.721,28.292,53.469,28.928,53.756z"/>
</g>
</svg>
