<?xml version="1.0" encoding="utf-8"?>
<!-- Generator: Adobe Illustrator 16.0.0, SVG Export Plug-In . SVG Version: 6.00 Build 0)  -->
<!DOCTYPE svg PUBLIC "-//W3C//DTD SVG 1.1//EN" "http://www.w3.org/Graphics/SVG/1.1/DTD/svg11.dtd">
<svg version="1.1" id="Layer_1" xmlns="http://www.w3.org/2000/svg" xmlns:xlink="http://www.w3.org/1999/xlink" x="0px" y="0px"
	 width="85px" height="85px" viewBox="0 0 85 85" enable-background="new 0 0 85 85" xml:space="preserve">
<g>
	<circle fill="#5559A7" cx="41.387" cy="44.212" r="36.087"/>
	<path fill="#DE5E26" d="M76.373,58.443c0.432,0.357,0.898,0.636,1.279,1.118c-0.676,0.693-0.914,1.156-1.838,1.482
		c-0.656,0.23-1.35,0.229-2.027,0.203c-0.857-0.033-1.619-0.308-2.482,0.193c-0.812,0.474-1.078,1.472-1.992,1.95
		c-1.17,0.614-2.361,0.396-3.359,0.265c-0.492-0.064-0.889-0.22-1.547,0.15c-0.457,0.257-0.748,0.776-1.154,1.192
		c-1.023,1.048-2.25,1.57-3.662,1.097c0.086-0.509,0.32-0.956,0.445-1.445c2.041,0.245,2.248-2.02,4.26-2.657
		c1.475-0.469,2.99,0.538,4.223-0.127c0.461-0.248,0.771-0.843,1.07-1.155c0.367-0.389,0.779-0.786,1.33-1.017
		c1.428-0.597,3.168,0.316,4.484-0.338C75.84,59.14,75.982,58.798,76.373,58.443L76.373,58.443z"/>
	<circle fill="#FFFFFF" cx="59.926" cy="71.575" r="1.228"/>
	<circle fill="#DE5E26" cx="67.697" cy="19.464" r="1.228"/>
	<circle fill="#F0C82C" cx="12.857" cy="65.83" r="1.228"/>
	<path fill="#8FBA42" d="M54.387,72.607c1.256,3.156-0.293,6.746-3.449,8c-3.156,1.255-6.746-0.293-8.002-3.45
		c-1.256-3.155,0.295-6.744,3.449-8C49.543,67.902,53.131,69.451,54.387,72.607z M44.543,76.52c0.902,2.271,3.484,3.385,5.754,2.481
		c2.271-0.902,3.385-3.484,2.482-5.755c-0.902-2.271-3.484-3.386-5.756-2.482C44.754,71.668,43.641,74.249,44.543,76.52
		L44.543,76.52z"/>
	<path fill="#BEC8E6" d="M14.086,21.613l2.709-0.472l-0.945,2.584l-0.945,2.583l-1.766-2.111l-1.764-2.11L14.086,21.613z"/>
	<g>
		<g>
			<path fill="#222221" d="M80.055,40.826l-2.377-3.047L26.41,77.336l2.596,3.325c1.623,2.081,4.625,2.451,6.707,0.827
				l43.516-33.955C81.309,45.908,81.678,42.906,80.055,40.826L80.055,40.826z"/>
			<path fill="#BEC8E6" d="M77.881,38.041L64.227,20.54c-1.889-2.419-5.381-2.852-7.801-0.962L14.137,52.574
				c-2.418,1.89-2.85,5.382-0.961,7.801l13.656,17.502c1.889,2.42,5.381,2.851,7.801,0.962L76.92,45.841
				C79.34,43.952,79.771,40.461,77.881,38.041L77.881,38.041z"/>
			<g>
				<path fill="#222221" d="M67.104,28.002c-0.252,0.2-0.293,0.564-0.094,0.814c0,0,0,0,0,0.001l4.625,5.805
					c0.201,0.251,0.566,0.292,0.818,0.092c0.25-0.2,0.291-0.565,0.092-0.816c0,0,0,0,0-0.001l-4.625-5.804
					C67.719,27.843,67.354,27.802,67.104,28.002z M66.033,26.63c-0.252,0.2-0.293,0.564-0.094,0.816
					c0.201,0.251,0.566,0.292,0.816,0.093c0.252-0.2,0.293-0.566,0.094-0.817S66.285,26.43,66.033,26.63L66.033,26.63z"/>
			</g>
		</g>
		<path fill="#8889C3" d="M16.66,53.891c-0.344,0.458-0.355,1.105,0.014,1.58L32.35,75.637c0.441,0.567,1.258,0.67,1.824,0.229
			l13.098-10.181l1.164-2.101l3.283-1.356l1.484-1.154l1.092-1.454l1.762-0.764l5.947-4.624l8.393-13.639L57.371,23.836
			c-0.439-0.566-1.258-0.668-1.824-0.229l-10.531,8.187l-6.096,7.19l-8.982,4.529l-4.682,3.639l-0.65,1.551l-2.156,0.632
			l-1.396,1.085l-1.455,2.205c0,0-2.723,1.115-2.926,1.258C16.666,53.885,16.662,53.888,16.66,53.891L16.66,53.891z"/>
		<g>
			<path fill="#FFFFFF" d="M47.271,65.686c-9.387-3.608-24.514-9.44-30.607-11.791c0.068-0.091,0.145-0.176,0.238-0.249l4.15-3.227
				c10.188,3.909,20.432,7.862,30.666,11.81L47.271,65.686L47.271,65.686z M70.396,40.595l2.648,3.408
				c0.441,0.566,0.34,1.385-0.229,1.825l-10.812,8.404c-10.688-3.572-21.377-7.146-32.068-10.719L44.352,32.31l0.664-0.517
				C52.363,34.324,63.896,38.333,70.396,40.595L70.396,40.595z M53.203,61.074c-10.24-3.924-20.479-7.844-30.754-11.739l2.807-2.183
				c10.24,3.898,20.521,7.808,30.801,11.703L53.203,61.074z"/>
		</g>
		<g>
			<path fill="#FFFFFF" d="M54.133,22.407c0.799-0.562,1.594-0.82,2.48-0.766c0.828,0.051,1.34,0.458,1.387,1.056
				c0.049,0.609-0.373,1.023-1.229,1.146c-0.715,0.102-1.441,0.093-2.105,0.439c-0.396,0.209-0.852,0.179-1.162-0.211
				c-0.355-0.446-0.168-0.866,0.154-1.233C53.82,22.651,54.025,22.502,54.133,22.407z M59.408,22.087
				c0.43-0.233,1.232,0.036,1.502,0.487c0.203,0.344,0.133,0.646-0.213,0.844c-0.426,0.24-1.205-0.029-1.461-0.494
				C59.049,22.582,59.104,22.289,59.408,22.087z"/>
		</g>
		<g>
			<path fill="#FFFFFF" d="M14.754,58.849c-0.422-0.756-0.574-1.479-0.441-2.255c0.123-0.724,0.527-1.135,1.059-1.121
				c0.541,0.015,0.865,0.424,0.893,1.189c0.023,0.637-0.053,1.275,0.189,1.893c0.146,0.369,0.078,0.766-0.295,1.002
				c-0.426,0.272-0.777,0.067-1.07-0.25C14.939,59.146,14.826,58.951,14.754,58.849L14.754,58.849z M14.965,54.177
				c-0.164-0.399,0.148-1.081,0.57-1.274c0.322-0.146,0.58-0.058,0.721,0.268c0.172,0.396-0.137,1.058-0.57,1.238
				C15.369,54.54,15.115,54.465,14.965,54.177L14.965,54.177z"/>
		</g>
		<g>
			<path fill="#222221" d="M30.988,31.889c-0.369-0.235-0.869-0.133-1.115,0.249c-0.91,1.43-2.324,3.607-3.148,4.781
				c-0.445-0.625-1.133-1.543-2.08-2.773c-1.135-1.471-2.277-2.919-2.543-3.256l-0.061-0.077c-0.189-0.238-0.498-0.349-0.797-0.286
				c-0.293,0.062-0.539,0.293-0.615,0.581l-1.574,5.836L8.141,31.022c-0.316-0.171-0.713-0.111-0.98,0.162
				c-0.24,0.26-0.283,0.647-0.104,0.954l6.334,10.902L4.543,45.27c-0.33,0.083-0.586,0.388-0.607,0.735
				c-0.023,0.353,0.186,0.678,0.516,0.803l8.082,3.092c0.406,0.155,0.885-0.056,1.041-0.467c0.078-0.2,0.072-0.423-0.016-0.619
				c-0.088-0.194-0.25-0.348-0.449-0.423l-5.693-2.179l7.41-1.866c0.246-0.062,0.449-0.237,0.547-0.472
				c0.096-0.233,0.08-0.498-0.047-0.719L9.9,33.813l9.281,5.036c0.217,0.118,0.471,0.131,0.711,0.031
				c0.221-0.098,0.393-0.297,0.455-0.53l1.424-5.271c2.148,2.74,3.867,5.023,4.074,5.419c0.078,0.288,0.307,0.512,0.596,0.585
				c0.43,0.107,0.701-0.104,0.928-0.352l0,0c0.262-0.286,0.703-0.876,1.992-2.831c0.543-0.821,1.197-1.832,1.844-2.844l0.035-0.056
				c0.055-0.085,0.092-0.181,0.111-0.278C31.414,32.398,31.271,32.066,30.988,31.889L30.988,31.889z"/>
			<path fill="#8FBA42" d="M60.818,2.5H48.631c-1.715,0-3.104,1.389-3.104,3.103v4.525c0,1.712,1.389,3.099,3.102,3.097l1.215-0.001
				l-0.104,7.983l5.227-7.983h5.854c1.713,0,3.102-1.388,3.102-3.103v-4.52C63.922,3.889,62.533,2.5,60.818,2.5L60.818,2.5z"/>
			<g>
				<path fill="#FFFFFF" d="M60.699,7H48.75c-0.316,0-0.574-0.258-0.574-0.575s0.258-0.574,0.574-0.574l0,0h11.951
					c0.316,0,0.572,0.256,0.572,0.573c0,0,0,0,0,0.001C61.275,6.742,61.02,7,60.699,7C60.701,7,60.701,7,60.699,7z M60.701,9.674
					H48.75c-0.314,0-0.574-0.256-0.574-0.572V9.101c0-0.317,0.258-0.573,0.574-0.573l0,0h11.949
					c0.316-0.002,0.574,0.254,0.574,0.571V9.1C61.273,9.416,61.018,9.673,60.701,9.674z"/>
			</g>
			<g>
				<path fill="#F0C82C" d="M28.346,10.322l11.328-0.134c2.973-0.009,5.389,2.392,5.4,5.364l0.023,7.97
					c0.012,2.974-2.391,5.391-5.363,5.4l-0.393,0.001l0.174,10.879l-7.027-10.856l-4.082,0.109c-2.971,0.01-5.391-2.392-5.398-5.365
					l-0.025-7.97C22.975,12.748,25.375,10.332,28.346,10.322L28.346,10.322z"/>
				<path fill="#FFFFFF" d="M39.621,22.748l-1.664-1.663c-0.148-0.15-0.387-0.328-0.674-0.328c-0.172,0-0.432,0.057-0.703,0.327
					l-1.041,1.04c-0.125,0.125-0.229,0.125-0.312,0.095l-0.037-0.026c-0.076-0.051-0.15-0.087-0.238-0.126l-0.203-0.096
					c-0.082-0.039-0.168-0.08-0.25-0.14c-0.963-0.614-1.816-1.392-2.598-2.368c-0.428-0.569-0.715-0.995-0.9-1.44l-0.02-0.08
					c-0.039-0.119-0.057-0.191,0.109-0.356l1.01-1.011c0.215-0.214,0.328-0.456,0.328-0.703c0-0.279-0.178-0.554-0.326-0.703
					l-0.877-0.87c-0.059-0.044-0.105-0.101-0.15-0.15l-0.639-0.645c-0.152-0.152-0.369-0.327-0.703-0.327
					c-0.246,0-0.49,0.112-0.703,0.327l-0.992,0.994c-0.324,0.287-0.51,0.667-0.551,1.123c-0.064,0.615,0.055,1.245,0.383,2.031
					c0.51,1.307,1.219,2.484,2.236,3.71c1.271,1.516,2.807,2.72,4.557,3.58c0.584,0.292,1.477,0.688,2.5,0.755h0.148
					c0.541,0,0.973-0.179,1.357-0.562l0.213-0.221c0.119-0.125,0.232-0.245,0.381-0.375l0.371-0.372
					C40.047,23.712,40.041,23.168,39.621,22.748L39.621,22.748z"/>
			</g>
		</g>
	</g>
</g>
</svg>
