<?xml version="1.0" encoding="utf-8"?>
<!-- Generator: Adobe Illustrator 16.0.0, SVG Export Plug-In . SVG Version: 6.00 Build 0)  -->
<!DOCTYPE svg PUBLIC "-//W3C//DTD SVG 1.1//EN" "http://www.w3.org/Graphics/SVG/1.1/DTD/svg11.dtd">
<svg version="1.1" id="Layer_1" xmlns="http://www.w3.org/2000/svg" xmlns:xlink="http://www.w3.org/1999/xlink" x="0px" y="0px"
	 width="85px" height="85px" viewBox="0 0 85 85" enable-background="new 0 0 85 85" xml:space="preserve">
<g>
	<path fill="#FFFFFF" d="M54.214,45.611L54.214,45.611c-0.801,0-2,0.101-2.898,0.101c0,0.199,0,0.301,0,0.301
		c0,0.6,0,1.599,0.1,2.197c0,0.5,0.102,1.101,0.201,1.601c0.1,0.3,0.199,0.5,0.398,0.6c0.1,0,0.199,0.101,0.301,0
		c0.1,0,0.299-0.1,0.398-0.2c0.199-0.3,0.199-0.6,0.199-0.998l0,0c0,0.1,0.1,0.198,0.1,0.198c0.201,0.7,0.5,1.399,0.9,2.101
		c0.1,0.199,0.301,0.5,0.4,0.6c0.199,0.199,0.5,0.199,0.699,0.199c0.398-0.1,0.498-0.398,0.498-0.799
		c0.102-0.801-0.197-1.899-0.498-2.799C54.714,47.61,54.513,46.611,54.214,45.611z"/>
	<path fill="#7A7473" d="M46.118,79.495c-0.1-0.102-0.199-0.102-0.4-0.102c-0.5-0.199-0.898-0.5-1.398-0.799
		c-0.299-0.199-0.799-0.801-0.898-1.1c-0.201-0.5-0.1-1.199,0.1-1.6c0.199-0.301,0.199-0.4,0.602-0.5c0.199,0,0.398,0,0.498,0.1
		c0.4,0.201,0.801,0.4,1.201,0.5c0.6,0.201,1.199,0.102,2.197-0.299c0.5-0.201,1.199,0.6,1.6,1c0.801,0.697,1.6,1.396,2.299,2.197
		c0.201,0.199,0.301,0.4,0.4,0.699c0.1,0.199,0.1,0.5,0.1,0.699c0,0.5-0.1,1.1-0.398,1.398c-0.201,0.201-0.5,0.301-0.801,0.4
		c-0.6,0.199-1.199,0.199-1.799,0c-1.1-0.301-2-1.199-2.799-1.998c-0.1-0.102-0.199-0.201-0.398-0.301
		C46.218,79.595,46.118,79.495,46.118,79.495z"/>
	<path fill="#7A7473" d="M39.421,79.495c0.1-0.102,0.199-0.102,0.4-0.102c0.5-0.199,0.898-0.5,1.398-0.799
		c0.301-0.199,0.799-0.801,0.898-1.1c0.201-0.5,0.1-1.199-0.1-1.6c-0.199-0.301-0.199-0.4-0.6-0.5c-0.201,0-0.398,0-0.5,0.1
		c-0.4,0.201-0.801,0.4-1.201,0.5c-0.6,0.201-1.197,0.102-2.197-0.299c-0.5-0.201-1.199,0.6-1.6,1
		c-0.801,0.697-1.6,1.396-2.299,2.197c-0.201,0.199-0.301,0.4-0.4,0.699c-0.1,0.199-0.1,0.5-0.1,0.699c0,0.5,0.1,1.1,0.4,1.398
		c0.199,0.201,0.5,0.301,0.799,0.4c0.6,0.199,1.199,0.199,1.799,0c1.1-0.301,2-1.199,2.799-1.998c0.102-0.102,0.201-0.201,0.4-0.301
		C39.222,79.595,39.321,79.495,39.421,79.495z"/>
	<path fill="#211715" d="M39.522,79.894c0.398-0.199,0.898-0.398,1.299-0.6c0.299-0.199,0.699-0.5,1-0.799
		c0.299-0.301,0.5-0.602,0.6-0.9c0.1-0.398,0.199-0.898,0.1-1.398c-0.1-0.4-0.199-0.801-0.5-1c-0.301-0.301-0.799-0.301-1.199-0.1
		c-0.699,0.299-1.299,0.699-2.098,0.5c-0.201,0-0.4-0.102-0.602-0.102c-0.199-0.1-0.5-0.199-0.699-0.199
		c-0.398-0.1-0.799,0.199-1.1,0.4c-0.299,0.299-0.6,0.6-0.9,0.898c-0.398,0.299-0.799,0.699-1.197,1
		c-0.4,0.299-0.701,0.699-1.102,1.098c-0.299,0.4-0.5,0.9-0.5,1.4s0,0.898,0.201,1.299c0.199,0.4,0.6,0.699,1,0.9
		c1.1,0.398,2.299,0.199,3.297-0.4c0.5-0.299,0.9-0.6,1.299-1c0.201-0.199,0.4-0.398,0.5-0.5
		C39.122,80.194,39.321,79.995,39.522,79.894c0.299-0.1,0.299-0.398,0.199-0.6c-0.1-0.199-0.301-0.199-0.5-0.102
		c-0.4,0.201-0.699,0.5-0.898,0.801c-0.301,0.301-0.6,0.6-0.9,0.801c-0.6,0.5-1.398,0.799-2.199,0.898
		c-0.398,0-0.799-0.1-1.199-0.199c-0.299-0.201-0.5-0.5-0.5-0.801c-0.1-0.398,0-0.799,0.1-1.199c0.201-0.398,0.5-0.699,0.801-0.998
		c0.6-0.602,1.299-1.199,1.898-1.801c0.201-0.301,0.5-0.5,0.799-0.699s0.602,0.102,0.9,0.102c0.6,0.199,1.299,0.299,2,0.1
		c0.398-0.1,0.699-0.301,1.1-0.5c0.199-0.1,0.4-0.199,0.6,0c0.199,0.301,0.301,0.699,0.199,1.1c0,0.301-0.1,0.699-0.398,0.898
		c-0.201,0.301-0.5,0.5-0.801,0.701c-0.398,0.199-0.799,0.398-1.199,0.6c-0.199,0.1-0.299,0.301-0.299,0.5
		C39.022,79.794,39.321,79.894,39.522,79.894z"/>
	<path fill="#211715" d="M46.218,79.095c-0.398-0.1-0.699-0.301-1.1-0.5c-0.301-0.199-0.5-0.398-0.801-0.6
		c-0.199-0.201-0.398-0.4-0.498-0.699c-0.102-0.301-0.102-0.701,0-1c0-0.199,0.1-0.5,0.398-0.6c0.1,0,0.301,0,0.398,0.1
		c0.102,0.1,0.301,0.1,0.4,0.199c0.301,0.201,0.699,0.301,1.1,0.398c0.301,0,0.699,0,1,0c0.199,0,0.398-0.1,0.5-0.1
		c0.199-0.1,0.398-0.199,0.6-0.199s0.5,0.199,0.6,0.299c0.301,0.201,0.5,0.5,0.801,0.801c0.299,0.301,0.699,0.6,0.998,0.898
		c0.6,0.6,1.301,1.201,1.398,2c0,0.4,0,0.699-0.199,1.1c-0.199,0.301-0.6,0.5-0.898,0.5c-1,0.199-1.898-0.1-2.699-0.6
		c-0.398-0.301-0.699-0.6-1-0.9C47.019,79.794,46.718,79.394,46.218,79.095c-0.1-0.1-0.301,0-0.398,0.199
		c-0.102,0.199,0,0.4,0.1,0.5c0.398,0.199,0.699,0.699,0.998,1c0.301,0.299,0.701,0.6,1.102,0.898
		c0.799,0.6,1.799,0.801,2.799,0.699c0.5,0,0.998-0.199,1.398-0.5c0.301-0.299,0.5-0.699,0.6-1.1c0.1-0.5,0-1-0.1-1.498
		c-0.199-0.5-0.5-0.9-0.9-1.201c-0.699-0.699-1.498-1.299-2.197-1.998c-0.301-0.301-0.6-0.6-1-0.799c-0.4-0.201-0.799,0-1.199,0.1
		c-0.398,0.1-0.699,0.199-1.1,0.199s-0.801-0.199-1.102-0.299c-0.398-0.201-0.697-0.4-1.098-0.4c-0.4,0.102-0.701,0.301-0.9,0.699
		c-0.199,0.4-0.299,0.9-0.199,1.4c0,0.498,0.199,0.898,0.5,1.199c0.301,0.398,0.6,0.697,1,0.898c0.398,0.299,0.898,0.5,1.398,0.699
		c0.199,0.1,0.398-0.1,0.5-0.301C46.519,79.394,46.419,79.194,46.218,79.095z"/>
	<path fill="#FFFFFF" d="M36.024,71.298c-0.301-8.096-0.5-15.992-0.9-24.487c1.199,0.101,3.697,0.101,4.297,0.101
		c0.701,0,1.4-0.199,2-0.699c0.5-0.399,0.699-1.1,0.898-1.699c0.1-0.399,0.201-1.199,0.301-1.699c0.1,0.4,0.199,1.299,0.299,1.699
		c0.201,0.601,0.4,1.3,0.9,1.699c0.6,0.399,1.299,0.699,1.998,0.699c0.602,0,3.1,0,4.398-0.101c-0.4,9.796-0.6,18.69-1,28.187
		c-1,0.301-2,0.398-2.998,0.5c-1.1,0-2.799-0.102-3.598-0.301c-0.801,0.199-2.5,0.301-3.598,0.301c-1,0-2-0.199-3-0.5
		C36.122,73.698,36.122,72.497,36.024,71.298z"/>
	<path fill="#211715" d="M49.917,46.511c-0.201,3.799-0.301,7.496-0.4,11.295c-0.1,3.598-0.199,7.295-0.398,10.895
		c-0.1,2.1-0.201,4.197-0.201,6.195l0.301-0.398c-1.1,0.301-2.197,0.5-3.299,0.398c-1,0-1.998,0-2.998-0.299
		c-0.5-0.1-0.701,0.6-0.201,0.799c1,0.301,2.199,0.301,3.199,0.301c1.199,0,2.398-0.1,3.498-0.5c0.201-0.1,0.301-0.199,0.301-0.398
		c0.1-3.699,0.301-7.297,0.398-10.994c0.102-3.699,0.201-7.297,0.4-10.996c0.1-2.098,0.199-4.297,0.199-6.395
		C50.716,46.011,49.917,46.011,49.917,46.511L49.917,46.511z"/>
	<path fill="#211715" d="M34.724,46.511c0.199,3.799,0.301,7.496,0.398,11.295c0.1,3.598,0.201,7.295,0.4,10.895
		c0.1,2.1,0.199,4.197,0.199,6.195c0,0.201,0.102,0.301,0.301,0.4c1.1,0.301,2.299,0.5,3.498,0.5c1.1,0,2.199-0.1,3.197-0.301
		c0.5-0.1,0.301-0.898-0.199-0.799c-1,0.199-1.998,0.301-2.998,0.301c-1.102,0-2.301-0.102-3.299-0.4l0.301,0.4
		c-0.102-3.699-0.301-7.297-0.4-10.996c-0.1-3.697-0.201-7.295-0.4-10.994c-0.1-2.099-0.199-4.297-0.199-6.396
		C35.524,46.011,34.724,46.011,34.724,46.511L34.724,46.511z"/>
	<path fill="#211715" d="M42.319,48.91v26.087c0,0.5,0.801,0.5,0.801,0V48.91C43.12,48.41,42.319,48.41,42.319,48.91z"/>
	<path fill="#3D8DCC" d="M54.214,45.611c0.1,0,0.1,0,0.199,0c0.199,0,0.5-0.101,0.699-0.3c0.1-0.199,0.201-0.398,0.201-0.6
		c-0.102-2.199-0.801-12.994-1.102-15.992c-0.199-1.899-0.5-3.1-1.199-4.098c-0.898-1.199-2.697-2-4.797-2.898
		c-0.5-0.5-1.1-1-1.699-1.299c-0.6,2.498-1.301,5.197-2.1,7.596c-0.6,1.898-0.799,2.499-1.6,4.498c-0.799-2.1-1-2.699-1.6-4.498
		c-0.799-2.398-1.498-5.098-2.098-7.596c-0.5,0.299-0.9,0.6-1.299,1l-0.701,0.299c-0.699,0.301-1.598,0.4-2.297,0.801
		c-0.4,0.199-0.801,0.5-1.201,0.799c-0.398,0.4-0.699,1-0.898,1.6c-1.1,2.699-1.998,5.498-2.6,8.396
		c-0.199,1-0.398,1.899-0.299,2.897c0.1,1,0.6,1.899,1.498,2.399c0.701,0.399,1.6,0.3,2.398,0.101l1.301-0.5
		c-0.102,3.397-0.201,6.795-0.201,8.595c0.799,0.101,4.098,0.2,4.896,0.101c0.701,0,1.4-0.199,2-0.699
		c0.5-0.399,0.699-1.1,0.9-1.699c0.1-0.399,0.199-1.199,0.299-1.699c0.102,0.4,0.201,1.299,0.299,1.699
		c0.201,0.601,0.4,1.3,0.9,1.699c0.6,0.399,1.299,0.699,2,0.699c0.799,0,4.496,0,5.096-0.199c0-0.301,0-0.5,0-0.801h0.301
		C52.214,45.712,53.415,45.611,54.214,45.611z"/>
	<path fill="#FFFFFF" d="M48.317,11.929c0.199-0.2,0.398-0.2,0.6-0.2c0.299,0,0.6,0.1,0.699,0.399c0.199,0.4,0.199,1.2,0.1,1.699
		c-0.1,0.5-0.398,0.898-0.799,1.299c-0.199,0.2-0.5,0.301-0.699,0.2h-0.1c-0.102,0.2-0.201,0.5-0.301,0.699
		c-0.199,0.5-1.299,2.399-2.699,3.099v0.4c-0.1,0.1-2.299,1.799-2.398,1.898h-0.398c-0.201-0.1-2.299-1.799-2.4-1.898v-0.5
		c-0.6-0.301-1.1-0.799-1.5-1.299c-0.6-0.699-1-1.499-1.299-2.398c-0.299,0.1-0.6,0-0.799-0.199c-0.4-0.301-0.6-0.8-0.799-1.3
		c-0.201-0.5-0.201-1.299,0.1-1.698c0.199-0.301,0.4-0.4,0.699-0.4c0.201,0,0.5,0.1,0.6,0.199c0,0-0.5-4.697,5.299-4.697
		C48.019,7.231,48.317,11.929,48.317,11.929z"/>
	<path fill="#85807F" d="M41.421,3.033c-1,0.2-1.898,0.601-2.699,1.199c-1.697,1.2-2.697,3.198-2.799,5.297
		c0,0.8,0.102,1.5,0.301,2.199c0.1,0,0.199,0,0.301,0c0.199,0,0.5,0.101,0.6,0.2l0.9-0.801c0.699-0.799,1.898-1.898,2.697-2.299
		c0.1-0.1,0.199,0,0.301,0.2c0,0.101,0,0.3,0,0.399c0,0.101,0.1,0.201,0.199,0.201h0.1c0.6-0.301,1.699-1,2.398-1.299
		c0.4,0,0.801,0,1.1,0.1c0.398,0.199,0.699,0.398,1,0.6c0.699,0.6,1.299,1.398,1.6,2.1l0.898,0.699c0.201-0.199,0.4-0.199,0.6-0.199
		c0.102,0,0.201,0,0.301,0c0.199-0.701,0.301-1.5,0.301-2.199c-0.102-2.699-1.5-4.299-2.799-5.297c-1.199-0.9-2.6-1.299-4.098-1.299
		C42.22,2.933,41.819,2.933,41.421,3.033z"/>
	<path fill="#FFFFFF" d="M42.521,32.318c-0.701-1.799-0.9-2.499-1.5-4.298c-0.699-2.199-1.398-4.698-1.898-6.997
		c0-0.2,0-0.5,0.199-0.7c0.201-0.3,0.5-0.699,0.799-0.999c0.1,0.101,2.299,1.8,2.4,1.897h0.398c0.201-0.1,2.299-1.799,2.4-1.897
		c0.199,0.3,0.6,0.699,0.799,0.999c0.199,0.2,0.199,0.4,0.199,0.7c-0.5,2.299-1.199,4.698-1.898,6.997
		c-0.6,1.799-0.799,2.398-1.5,4.298H42.521z"/>
	<path fill="#FEBE69" d="M41.819,30.619c0.201,0.5,0.4,1,0.701,1.699h0.199c0.699-1.699,0.9-2.399,1.4-3.798
		c-0.201-1.999-0.5-4.396-0.5-4.498s0-0.301,0.1-0.4c0-0.1,0-0.1,0-0.199c0.102-0.301,0.102-0.4,0.102-0.701l0,0
		c-0.301-0.5-0.801-1-1-1.299h-0.4c-0.301,0.301-0.701,0.801-1,1.299c0,0.101,0,0.101,0,0.101c0.1,0.2,0.1,0.399,0.199,0.601
		c0.102,0.199,0.102,0.399,0.102,0.699c0,0.1-0.301,2.399-0.602,4.498C41.421,29.319,41.62,29.919,41.819,30.619z"/>
	<path fill="#211715" d="M36.923,22.823c0.199-0.4,0.6-0.8,1-1.1c0.4-0.301,0.799-0.6,1.199-0.899l-0.6-0.2
		c0.699,3.199,1.598,6.397,2.697,9.596c0.301,0.8,0.602,1.5,0.9,2.299c0.1,0.199,0.299,0.3,0.5,0.3c0.199-0.101,0.299-0.3,0.299-0.5
		c-1.199-2.897-2.098-5.897-2.898-8.896c-0.301-1-0.5-1.899-0.699-2.898c-0.1-0.2-0.299-0.301-0.5-0.301h-0.1
		c-0.5,0.301-0.9,0.701-1.398,1c-0.4,0.3-0.801,0.8-1.102,1.3C36.024,22.823,36.722,23.222,36.923,22.823L36.923,22.823z"/>
	<path fill="#211715" d="M41.021,32.118c-0.199-0.398-0.5-0.799-0.699-1.299c-0.102-0.2-0.301-0.2-0.5-0.1
		c-0.201,0.1-0.201,0.3-0.102,0.5c0.201,0.399,0.5,0.8,0.701,1.299c0.1,0.199,0.299,0.199,0.5,0.1
		C41.021,32.618,41.12,32.318,41.021,32.118z"/>
	<path fill="#211715" d="M43.519,23.322c-0.6,0-1.1,0-1.699,0c-0.199,0-0.4,0.2-0.4,0.399c0,0.201,0.201,0.4,0.4,0.4
		c0.6,0,1.1,0,1.699,0c0.199,0,0.4-0.199,0.4-0.4C43.919,23.522,43.718,23.322,43.519,23.322z"/>
	<path fill="#211715" d="M43.419,22.523c-0.1,0.3-0.1,0.601-0.199,0.899c0,0.199-0.1,0.299-0.1,0.5c0,0.299,0.1,0.6,0.1,0.899
		c0.102,1.199,0.301,2.397,0.4,3.599c0,0.199,0.199,0.399,0.398,0.399s0.4-0.2,0.4-0.399c-0.102-1.201-0.301-2.3-0.4-3.5
		c0-0.299-0.1-0.6-0.1-0.898c0-0.1,0-0.2,0-0.4c0.1-0.3,0.1-0.6,0.199-0.898C44.319,22.323,43.519,22.023,43.419,22.523
		L43.419,22.523z"/>
	<path fill="#211715" d="M41.521,28.52c0.199-1.199,0.301-2.397,0.5-3.599c0-0.299,0.1-0.6,0.1-0.898c0-0.2,0-0.4-0.1-0.6
		c-0.1-0.301-0.199-0.601-0.301-0.899c-0.1-0.2-0.299-0.2-0.5-0.101c-0.199,0.101-0.199,0.301-0.1,0.5
		c0.1,0.301,0.201,0.5,0.201,0.801c0,0.1,0,0.199,0,0.3c0,0.3-0.102,0.601-0.102,0.899c-0.199,1.1-0.299,2.299-0.5,3.397
		c-0.1,0.2,0.102,0.399,0.301,0.5C41.22,28.82,41.421,28.72,41.521,28.52L41.521,28.52z"/>
	<path fill="#211715" d="M39.72,19.124c-0.199,0.2-0.398,0.5-0.6,0.7c-0.199,0.2-0.398,0.5-0.5,0.8c-0.1,0.399,0.1,0.699,0.301,1
		c0.199,0.399,0.5,0.699,0.799,1.1s0.6,0.699,0.9,0.898c0.199,0.1,0.4,0,0.5-0.1c0.5-0.7,1-1.299,1.5-1.999
		c0.199-0.2,0.1-0.399,0-0.601c0,0,0,0-0.1-0.1l-0.102-0.1c0.102,0.1-0.1,0-0.1-0.1l-0.1-0.101c-0.301-0.2-0.5-0.399-0.801-0.601
		c-0.398-0.299-0.799-0.6-1.199-0.898C40.12,19.024,39.921,19.024,39.72,19.124c-0.199,0.2-0.199,0.4,0,0.6
		c0.801,0.701,1.602,1.3,2.5,2l-0.1-0.6c-0.6,0.699-1.1,1.398-1.6,2.098l0.5-0.1c-0.1-0.1-0.199-0.199-0.301-0.3
		c-0.1-0.101-0.299-0.3-0.398-0.399c-0.199-0.301-0.5-0.601-0.699-0.899c-0.1-0.101-0.1-0.2-0.201-0.3c0,0,0-0.1-0.1-0.1l0,0
		c0,0.1,0,0,0,0c0-0.101,0.1-0.201,0.1-0.201c0.102-0.1,0.201-0.199,0.201-0.299c0.199-0.201,0.299-0.4,0.5-0.601
		C40.62,19.325,40.021,18.825,39.72,19.124z"/>
	<path fill="#211715" d="M44.919,32.518c0.898-1.599,1.898-3.198,2.799-4.897c0.398-0.799,0.898-1.599,1.301-2.398
		c0.1-0.2,0.197-0.399,0.197-0.6c0-0.201-0.1-0.4-0.299-0.5c-0.301-0.4-0.699-0.701-1-1l-0.1,0.6l0.699-0.4
		c0.199-0.1,0.5-0.3,0.5-0.6c0-0.4-0.4-0.799-0.6-1c-0.602-0.6-1.201-1.1-1.898-1.6c-0.201-0.1-0.4,0-0.5,0.1v0.101
		c-0.699,3.199-1.6,6.397-2.699,9.595c-0.299,0.801-0.6,1.5-0.9,2.299c-0.1,0.201,0.102,0.4,0.301,0.5
		c0.199,0.101,0.4-0.1,0.5-0.299c1.199-2.899,2.1-5.897,2.898-8.896c0.301-1,0.5-1.898,0.699-2.898l-0.6,0.2
		c0.398,0.3,0.801,0.601,1.199,0.899c0.199,0.199,0.398,0.4,0.6,0.6c0.102,0.1,0.102,0.2,0.199,0.301l0.102,0.1
		c0,0,0.1,0.199,0.1,0.1l0.102-0.199v0.1l0.1-0.1c-0.301,0.199-0.699,0.398-1,0.598c-0.199,0.102-0.199,0.4-0.1,0.5
		c0,0,0,0.101,0.1,0.101c0.301,0.3,0.6,0.601,0.9,0.899l0.1,0.1c0,0.1,0.1,0.1,0,0c0,0.1-0.1,0.2-0.1,0.2
		c-0.102,0.2-0.201,0.399-0.301,0.601c-0.398,0.799-0.801,1.5-1.199,2.299c-0.801,1.5-1.699,2.998-2.498,4.498
		C44.019,32.618,44.618,33.018,44.919,32.518L44.919,32.518z"/>
	<path fill="#211715" d="M44.919,19.724c0.199,0.201,0.4,0.4,0.5,0.601c0.1,0.101,0.299,0.3,0.299,0.5v0.101l0,0c0,0,0,0.1-0.1,0.1
		c-0.1,0.1-0.1,0.2-0.199,0.3c-0.201,0.3-0.398,0.601-0.699,0.899c-0.102,0.201-0.301,0.301-0.4,0.4s-0.1,0.1-0.199,0.199l-0.1,0.1
		c0.1,0-0.102,0-0.102,0l0.5,0.101c-0.5-0.7-1-1.499-1.6-2.099l-0.1,0.6c0.9-0.6,1.699-1.299,2.498-1.999
		c0.201-0.2,0.201-0.399,0-0.601c-0.197-0.1-0.398-0.1-0.6,0c-0.398,0.3-0.799,0.601-1.199,0.899c-0.299,0.2-0.5,0.399-0.799,0.601
		l-0.1,0.1c0,0-0.199,0.1-0.1,0.1l-0.1,0.101c-0.201,0.1-0.201,0.399-0.102,0.5c0,0,0,0,0.102,0.1c0.5,0.601,1,1.3,1.498,1.999
		c0.102,0.2,0.301,0.2,0.5,0.1c0.4-0.299,0.701-0.6,0.898-0.898c0.301-0.4,0.5-0.7,0.801-1.1c0.199-0.301,0.398-0.601,0.301-1
		c-0.102-0.301-0.301-0.5-0.5-0.799c-0.199-0.201-0.4-0.5-0.602-0.701C45.118,18.825,44.618,19.325,44.919,19.724z"/>
	<path fill="#211715" d="M41.62,16.726c0.4,0.199,0.799,0.3,1.199,0.3c0.398,0,0.801-0.101,1.199-0.399
		c0.199-0.201,0.199-0.4,0-0.601c-0.199-0.101-0.398-0.101-0.6,0c0.1-0.101,0,0-0.1,0c0,0-0.102,0,0,0h-0.102h-0.1h-0.1
		c0,0,0.1,0,0,0h-0.102c-0.1,0-0.1,0-0.199,0s-0.1,0-0.199,0h-0.102l0,0l0,0h-0.1h-0.1h-0.1c-0.102,0,0.1,0,0,0
		c0,0-0.102,0-0.102-0.101c-0.199-0.1-0.398,0-0.5,0.101C41.321,16.427,41.421,16.626,41.62,16.726L41.62,16.726L41.62,16.726z"/>
	<path fill="#211715" d="M42.521,14.027c0.1,0.2,0.1,0.399,0.1,0.601v-0.101v0.101v-0.101l0,0v-0.101l0,0l0.1-0.1l0,0l0.1-0.1l0,0
		h0.1c0,0,0,0-0.1,0h0.1c0,0,0,0-0.1,0h0.1h-0.1c-0.1,0-0.1,0-0.199,0s-0.1,0-0.1,0c-0.201,0.1-0.201,0.3-0.102,0.5l0,0
		c0.102,0.1,0.102,0.199,0.201,0.199s0.1,0,0.199,0s0.201,0,0.301-0.1s0.199-0.199,0.299-0.3c0-0.101,0-0.2,0-0.3
		c0-0.2-0.1-0.4-0.1-0.5c-0.102-0.2-0.299-0.301-0.5-0.301l0,0c-0.1,0-0.199,0.101-0.199,0.201
		C42.521,13.827,42.521,13.927,42.521,14.027L42.521,14.027z"/>
	<path fill="#211715" d="M39.622,12.429c-0.1,0.3,0,1,0.5,1.1c0.799,0,0.799-0.799,0.5-1.199
		C40.521,11.929,39.921,11.828,39.622,12.429z"/>
	<path fill="#211715" d="M45.718,12.429c0.102,0.3,0,1-0.5,1.1c-0.799,0-0.799-0.799-0.5-1.199
		C44.819,11.929,45.519,11.828,45.718,12.429z"/>
	<path fill="#211715" d="M37.323,11.628c-0.4-0.399-1-0.399-1.5-0.199c-0.301,0.199-0.602,0.5-0.701,0.899
		c-0.199,0.899,0,1.8,0.5,2.499c0.301,0.5,0.9,0.898,1.5,0.898c0.199,0,0.4-0.199,0.4-0.398s-0.201-0.4-0.4-0.4
		c-0.4,0.101-0.701-0.299-0.9-0.699c-0.199-0.301-0.299-0.6-0.299-1c-0.1-0.4,0-0.7,0.199-1c-0.1,0.1,0.102-0.1,0,0
		c0.102,0,0.102-0.1,0.201-0.1c0.199,0,0.299,0,0.5,0.1C37.122,12.528,37.722,11.929,37.323,11.628z"/>
	<path fill="#211715" d="M48.616,12.128c0.102-0.1,0.301-0.1,0.5-0.1c0.1,0,0.201,0,0.201,0.1c-0.102,0,0.1,0.101,0,0
		c0.1,0.101,0.1,0.301,0.199,0.4c0,0.2,0,0.4,0,0.6c0,0.301-0.102,0.701-0.301,1c-0.199,0.4-0.5,0.701-0.898,0.701
		c-0.199,0-0.4,0.199-0.4,0.399s0.201,0.399,0.4,0.399c1,0.101,1.699-1,1.898-1.799c0.199-0.699,0.199-1.898-0.5-2.398
		c-0.5-0.301-1.199-0.2-1.6,0.1C47.618,11.929,48.216,12.528,48.616,12.128L48.616,12.128z"/>
	<path fill="#211715" d="M47.917,14.728c-0.1,0.3-0.1,0.6-0.299,0.898c0,0.101-0.102,0.2-0.102,0.301c0,0.1,0-0.101,0,0v0.1
		c-0.199,0.4-0.398,0.7-0.6,1c-0.5,0.799-1.299,1.6-2.299,1.799c-0.5,0.1-0.301,0.898,0.199,0.799c1.1-0.299,2-1.199,2.699-2.099
		c0.301-0.399,0.5-0.7,0.699-1.101c0-0.1,0.1-0.199,0.1-0.299c0-0.101,0,0.1,0,0c0-0.101,0.102-0.101,0.102-0.201
		c0.1-0.299,0.199-0.6,0.299-0.899C48.716,14.427,48.017,14.228,47.917,14.728L47.917,14.728z"/>
	<path fill="#211715" d="M36.722,14.927c0.5,2.1,2.1,4.498,4.398,4.797c0.199,0.101,0.4-0.1,0.5-0.299c0.1-0.201-0.1-0.4-0.301-0.5
		c-1.998-0.301-3.398-2.399-3.797-4.299C37.323,14.228,36.622,14.427,36.722,14.927L36.722,14.927z"/>
	<path fill="#211715" d="M46.618,3.632c-2.1-1.299-4.697-1.498-6.996-0.5c-1.799,0.801-3.199,2.399-3.799,4.299
		c-0.4,1.398-0.5,2.898-0.1,4.298c0.1,0.5,0.898,0.3,0.799-0.2c-0.5-1.999-0.1-4.298,1.199-5.896c2.1-2.5,5.797-3,8.496-1.199
		C46.618,4.632,47.019,3.933,46.618,3.632L46.618,3.632z"/>
	<path fill="#211715" d="M49.616,11.729c0.4-1.399,0.301-2.998-0.1-4.397c-0.4-1.1-1-2.099-1.898-2.898
		c-0.4-0.299-0.9,0.201-0.6,0.601c0.799,0.7,1.398,1.599,1.697,2.599c0.4,1.299,0.5,2.699,0.102,3.998
		C48.716,12.028,49.517,12.229,49.616,11.729z"/>
	<path fill="#211715" d="M44.618,8.73c0.5,0.2,1,0.601,1.4,0.999c0.199,0.199,0.398,0.5,0.6,0.699c0.1,0.101,0.199,0.301,0.299,0.4
		c0,0.1,0.102,0.1,0.102,0.2c0,0,0,0.101,0.1,0.101c0,0,0,0,0,0.1c0.1,0.199,0.301,0.3,0.5,0.3c0.201-0.101,0.301-0.3,0.301-0.5
		c-0.301-0.7-0.701-1.299-1.199-1.799c-0.5-0.5-1-0.899-1.6-1.199c-0.201-0.101-0.4,0-0.5,0.101
		C44.319,8.431,44.419,8.63,44.618,8.73L44.618,8.73z"/>
	<path fill="#211715" d="M38.222,11.429c0.4-0.5,0.898-1,1.398-1.399c0.201-0.2,0.5-0.399,0.701-0.601
		c0.1-0.1,0.299-0.199,0.398-0.199c0.1-0.1,0.1-0.1-0.199-0.1v0.1c0,0.1,0,0.1,0,0.199c0,0.301,0.199,0.601,0.6,0.601h0.1
		c0.301,0,0.6-0.3,0.799-0.399c0.6-0.4,1.199-0.701,1.801-1c0.199-0.101,0.199-0.301,0.1-0.5c-0.1-0.201-0.301-0.201-0.5-0.101
		c-0.6,0.3-1.199,0.601-1.799,1c-0.1,0.101-0.301,0.2-0.4,0.2l-0.1,0.1c-0.1,0.1-0.1,0.1,0.199,0.2c0-0.101,0-0.101,0-0.2
		c0-0.4-0.199-0.8-0.6-0.8c-0.301,0-0.6,0.2-0.799,0.399c-0.301,0.201-0.6,0.4-0.801,0.701c-0.5,0.399-1,0.898-1.398,1.398
		C37.323,11.229,37.921,11.828,38.222,11.429L38.222,11.429z"/>
	<path fill="#211715" d="M50.216,28.021c0,2.299,0.1,4.498,0.199,6.796c0.102,2.698,0.102,5.498,0.199,8.196
		c0,1.199,0,2.299,0.102,3.498c0,0.5,0.799,0.5,0.799,0c0-2.299-0.1-4.697-0.1-6.996c-0.1-2.699-0.1-5.397-0.201-8.196
		c0-1.101-0.1-2.199-0.1-3.298C51.017,27.521,50.216,27.521,50.216,28.021L50.216,28.021z"/>
	<path fill="#211715" d="M34.724,47.11c1.299,0.2,2.498,0.102,3.799,0.102c0.6,0,1.197,0,1.799-0.102
		c0.898-0.199,1.699-0.799,1.998-1.6c0.4-0.799,0.5-1.698,0.6-2.498H42.12c0.1,0.8,0.299,1.6,0.6,2.299
		c0.199,0.5,0.4,0.898,0.799,1.199c0.4,0.3,0.801,0.5,1.301,0.6c0.6,0.102,1.299,0.2,1.898,0.102c0.699,0,1.398,0,2.1,0
		c0.699,0,1.299-0.102,1.998-0.102c0.201-0.1,0.301-0.3,0.301-0.499c-0.1-0.2-0.301-0.3-0.5-0.3c0.1,0,0,0-0.1,0h-0.102
		c-0.1,0-0.301,0-0.398,0c-0.301,0-0.602,0-0.9,0c-0.699,0-1.398,0-2.098,0.1c-0.5,0-1,0-1.5,0c-0.4,0-0.9-0.1-1.199-0.398
		c-0.4-0.2-0.602-0.5-0.801-0.899c-0.398-0.8-0.498-1.601-0.6-2.499c-0.1-0.4-0.699-0.4-0.799,0c-0.1,0.699-0.301,1.398-0.5,2.1
		c-0.1,0.399-0.301,0.699-0.6,1c-0.301,0.299-0.701,0.498-1.102,0.6c-0.5,0.1-1.1,0.1-1.598,0.1c-0.602,0-1.299,0-1.9,0
		c-0.6,0-1.299,0-1.898-0.1c-0.199,0-0.4,0.2-0.4,0.398C34.323,46.911,34.524,47.11,34.724,47.11L34.724,47.11z"/>
	<path fill="#211715" d="M47.917,22.124c1.199,0.5,2.5,1,3.6,1.799c0.799,0.6,1.398,1.398,1.697,2.398c0.201,1,0.4,1.898,0.4,2.898
		c0.1,0.699,0.1,1.398,0.199,2.099c0.102,1.899,0.301,3.897,0.4,5.797c0.1,1.8,0.199,3.599,0.398,5.397
		c0,0.599,0.102,1.199,0.102,1.699c0,0.101,0,0.199,0,0.399c0,0.3-0.301,0.3-0.5,0.399c-0.6,0.101-1.301,0.101-2,0.199
		c-0.299,0-0.699,0-1,0.101c-0.498,0-0.498,0.8,0,0.8c0.701,0,1.4-0.1,2.102-0.1c0.6-0.102,1.398,0,1.896-0.5
		c0.4-0.5,0.201-1.399,0.201-2c-0.1-1.799-0.201-3.498-0.398-5.297c-0.102-1.998-0.301-4.098-0.4-6.097
		c-0.1-0.799-0.1-1.599-0.201-2.397c-0.1-1-0.199-1.899-0.398-2.898c-0.199-1.1-0.699-2.1-1.498-2.898c-1-0.899-2.199-1.5-3.398-2
		c-0.4-0.199-0.699-0.299-1.1-0.5c-0.201-0.1-0.4,0.101-0.5,0.301C47.618,21.923,47.716,22.124,47.917,22.124L47.917,22.124z"/>
	<path fill="#211715" d="M34.423,35.816c-0.1,2.999-0.199,5.897-0.199,8.896c0,0.601,0,1.199,0,1.799c0,0.5,0.801,0.5,0.801,0
		c0-2.697,0.1-5.297,0.199-7.996c0-0.898,0-1.799,0.1-2.698C35.224,35.316,34.524,35.316,34.423,35.816L34.423,35.816z"/>
	<path fill="#211715" d="M33.425,38.216c-0.699,0.199-1.398,0.299-2,0c-0.5-0.301-0.898-0.701-1.1-1.199
		c-0.6-1.299-0.199-2.899,0.1-4.198c0.301-1.399,0.699-2.897,1.199-4.298c0.201-0.7,0.5-1.499,0.801-2.199
		c0.199-0.699,0.5-1.299,0.799-1.999c0.199-0.3,0.4-0.7,0.699-0.899c0.301-0.199,0.602-0.399,0.9-0.6c0.699-0.4,1.5-0.5,2.199-0.8
		c0.199-0.101,0.299-0.3,0.299-0.5c-0.1-0.2-0.299-0.3-0.5-0.3c-0.699,0.3-1.498,0.4-2.199,0.699
		c-0.699,0.301-1.299,0.799-1.799,1.399c-0.398,0.601-0.699,1.399-1,2.099c-0.299,0.799-0.6,1.6-0.898,2.299
		c-0.5,1.6-1,3.099-1.398,4.798c-0.4,1.5-0.699,3.198-0.102,4.698c0.301,0.699,0.801,1.299,1.5,1.599
		c0.801,0.399,1.699,0.3,2.6,0.101C34.124,38.814,33.923,38.015,33.425,38.216L33.425,38.216z"/>
	<path fill="#7A7473" d="M35.423,22.224L35.423,22.224c0.199,0.6,0.4,1.099,0.6,1.699c0.4,1.5,0.4,2.398,0.6,3.498
		c0,1,0.102,2.299,0.102,3c0,1-0.102,2.599-0.201,3.197v0.1c0.4,0,0.701,0.101,1.1,0.201c0.4,0.1,0.602,0.399,0.701,0.799v0.101
		c0.199-1,0.299-1.899,0.4-2.897c0.1-1.699,0-3.398-0.301-4.998c-0.1-0.899-0.301-1.699-0.6-3.099c-0.1-0.601-0.4-1.5-0.799-2.099
		c-0.102-0.2-0.301-0.2-0.5-0.2c-0.301,0.101-0.602,0.2-0.9,0.3C35.423,21.923,35.323,22.124,35.423,22.224z"/>
	<path fill="#211715" d="M36.923,27.421c-0.201-1.699-0.4-3.398-1-4.897c0-0.101-0.1-0.2-0.1-0.3s0,0,0,0
		c0.199-0.1,0.398-0.2,0.6-0.301c0.199,0,0.199-0.1,0.299,0.101c0.102,0.2,0.201,0.399,0.301,0.601c0.301,0.799,0.5,1.598,0.6,2.397
		c0.201,0.8,0.301,1.5,0.4,2.299c0.1,0.2,0.301,0.3,0.5,0.3c0.199-0.1,0.301-0.3,0.301-0.5c-0.102-0.8-0.301-1.6-0.4-2.299
		c-0.201-0.9-0.398-1.898-0.799-2.799c-0.201-0.4-0.4-0.898-1-0.898c-0.201,0-0.5,0.1-0.701,0.199c-0.199,0.1-0.5,0.2-0.699,0.299
		c-0.4,0.4-0.1,0.9,0.1,1.301c0.201,0.5,0.301,0.998,0.398,1.498c0.201,1,0.301,2,0.5,3c0,0.199,0.201,0.398,0.4,0.398
		C36.722,27.82,36.923,27.62,36.923,27.421L36.923,27.421z"/>
	<path fill="#211715" d="M38.222,31.818c-0.1,1-0.199,2.099-0.4,3.099c-0.1,0.2,0.1,0.4,0.301,0.5c0.199,0.101,0.4-0.1,0.5-0.3
		c0.199-1.1,0.4-2.198,0.4-3.299c0-0.2-0.201-0.399-0.4-0.399C38.421,31.419,38.222,31.618,38.222,31.818L38.222,31.818z"/>
	<path fill="#7A7473" d="M32.325,47.311c-0.301,0-0.6-0.3-0.801-0.601c-0.299-0.5-0.1-1.1-0.1-1.299c0.6-2.699,1-4.298,1.498-6.597
		c0.201-0.8,0.602-2.699,1-4.198c0.201-0.5,0.801-0.898,1.301-0.898c1,0,1.697,0.1,2.098,0.199c0.398,0.101,0.6,0.4,0.701,0.801
		c0.1,0.6,0.1,1.099,0.1,1.799c-0.201,3.298-0.6,8.096-0.701,9.895c0,0.5-0.299,0.899-0.697,1c-0.4,0.199-0.5,0.299-1.201,0.1
		C34.423,47.311,33.823,47.311,32.325,47.311z"/>
	<path fill="#211715" d="M32.425,46.911c-0.6-0.101-0.699-0.699-0.6-1.199c0.1-0.6,0.299-1.199,0.4-1.799
		c0.299-1.199,0.5-2.299,0.799-3.498c0.201-1,0.5-2,0.701-2.998c0.1-0.601,0.299-1.201,0.5-1.899c0.1-0.5,0.199-1.101,0.699-1.399
		c0.301-0.1,0.5-0.1,0.801-0.1c0.299,0,0.6,0,0.898,0.1c0.4,0,0.898,0.1,1.098,0.5c0.102,0.301,0.102,0.6,0.102,0.801
		c0,0.398,0,0.698,0,1.099c0,0.5-0.102,1.1-0.102,1.599c-0.1,2.299-0.299,4.598-0.5,6.896c0,0.398-0.1,0.8-0.1,1.199
		c0,0.5-0.398,0.799-0.898,0.799c-0.301,0-0.6,0-0.898,0s-0.701,0-1-0.1c-0.701,0-1.4-0.101-2.1-0.199c-0.199,0-0.4,0.199-0.4,0.398
		c0,0.2,0.201,0.4,0.4,0.4c0.699,0.1,1.299,0.1,2,0.199c0.6,0.101,1.299,0.101,1.898,0.101c0.5,0,1.1-0.3,1.398-0.7
		c0.301-0.398,0.301-0.898,0.4-1.398c0.199-2.398,0.4-4.797,0.5-7.097c0-0.601,0.1-1.299,0.1-1.899c0-0.699,0.1-1.398,0-2.099
		c-0.301-1.399-1.998-1.399-3.1-1.399c-0.699,0-1.299,0.301-1.598,0.899c-0.201,0.3-0.301,0.601-0.301,0.9
		c-0.1,0.3-0.199,0.7-0.299,1c-0.301,1.099-0.5,2.299-0.801,3.397c-0.299,1.2-0.6,2.5-0.898,3.698c-0.201,0.7-0.301,1.399-0.5,2.101
		c-0.102,0.6-0.102,1.299,0.299,1.799c0.201,0.3,0.5,0.4,0.799,0.5c0.201,0.1,0.4-0.1,0.5-0.301
		C32.726,47.11,32.624,46.911,32.425,46.911z"/>
	<path fill="#211715" d="M34.124,40.015l2.6,0.3c0.199,0,0.398-0.2,0.398-0.399c0-0.201-0.199-0.4-0.398-0.4l-2.6-0.301
		c-0.199,0-0.398,0.201-0.398,0.4C33.726,39.814,33.923,40.015,34.124,40.015z"/>
	<path fill="#211715" d="M35.823,35.417c-0.102,0.6-0.201,1.198-0.301,1.698c-0.1,0.399-0.1,0.7-0.199,1.101
		c0,0.199-0.102,0.399-0.102,0.5c0,0.199,0,0.299-0.1,0.5l0.201-0.201l0,0l0.5,0.101l0,0l-0.102,0.5l0,0c0.4-0.3,0-1-0.398-0.7l0,0
		c-0.201,0.1-0.201,0.301-0.102,0.5l0,0c0.102,0.2,0.301,0.2,0.5,0.1c0.201-0.1,0.201-0.299,0.201-0.5c0-0.199,0.1-0.399,0.1-0.6
		c0.1-0.398,0.1-0.799,0.201-1.199c0.1-0.6,0.199-1.199,0.299-1.898c0.1-0.2-0.1-0.4-0.299-0.5
		C36.122,35.117,35.923,35.216,35.823,35.417L35.823,35.417z"/>
	<path fill="#FFFFFF" d="M39.522,27.22c-0.201-0.1-0.301-0.1-0.5-0.1c-0.801,0.2-1.5,0.399-2.5,0.799c-0.199-0.5-0.6-0.3-0.898-0.1
		c-0.898,0.6-1.5,1.3-2.199,1.6c0,0.101,0,0.101,0,0.2c0.1,1.3,0.398,2.499,0.799,3.898l0.199-0.101c0.201-0.1,0.801-0.3,1.1-0.399
		c0.201-0.101,0.4-0.101,0.6-0.101c0.4,0,0.801,0,1.201-0.1c0.699-0.2,1.098-0.4,1.898-0.898c0.199-0.101,0.301-0.201,0.5-0.4
		c0.1-0.1,0.1-0.301,0.1-0.398c-0.1-0.201-0.199-0.301-0.4-0.4c0.102,0,0.201-0.1,0.201-0.1c0.199-0.101,0.299-0.301,0.299-0.4
		c0.102-0.4,0-0.6-0.398-0.799c0.299-0.101,0.398-0.301,0.398-0.601c0-0.101-0.1-0.2-0.1-0.3c-0.1-0.1-0.199-0.1-0.4-0.2
		c0.301-0.101,0.5-0.399,0.5-0.7l0,0C39.821,27.421,39.72,27.32,39.522,27.22z"/>
	<path fill="#211715" d="M33.823,29.819c0.4-0.2,0.801-0.5,1.201-0.898c0.199-0.201,0.398-0.4,0.699-0.601
		c0.1-0.101,0.199-0.2,0.301-0.2l0.1-0.1c0,0,0.1,0,0,0c0.1,0,0,0,0,0c0.199,0.1,0.4,0,0.5-0.1c0.1-0.201,0-0.4-0.1-0.5
		c-0.4-0.201-0.701-0.101-1.102,0.199c-0.299,0.2-0.6,0.4-0.799,0.7c-0.199,0.2-0.398,0.399-0.6,0.601c0,0-0.1,0.1,0,0l0,0
		c0,0-0.1,0.1-0.199,0.1c-0.1,0.1-0.201,0.1-0.4,0.199c-0.199,0.101-0.199,0.301-0.1,0.5C33.325,29.819,33.624,29.919,33.823,29.819
		L33.823,29.819z"/>
	<path fill="#211715" d="M36.522,28.421c0.6-0.201,1.1-0.4,1.699-0.5c0.199-0.101,0.5-0.101,0.699-0.201c0.102,0,0.102,0,0.201-0.1
		h0.1l0,0c0.1,0,0.1,0,0.199,0c0,0,0.102,0,0,0l0,0l0,0c0,0,0,0,0,0.1v0.101v0.101c0-0.101-0.1,0.1,0,0c0,0-0.1,0.1-0.199,0.1
		c-0.4,0.199-0.898,0.3-1.299,0.5c-0.5,0.1-0.301,0.9,0.199,0.8c0.4-0.101,0.799-0.3,1.199-0.399c0.201-0.101,0.4-0.201,0.6-0.301
		c0.201-0.199,0.201-0.4,0.301-0.6c0-0.5-0.301-0.898-0.699-0.898c-0.5-0.101-1,0.1-1.5,0.299c-0.6,0.201-1.199,0.399-1.799,0.601
		c-0.199,0.101-0.301,0.3-0.301,0.5C36.024,28.32,36.323,28.421,36.522,28.421L36.522,28.421z"/>
	<path fill="#211715" d="M39.321,28.72C39.321,28.72,39.421,28.72,39.321,28.72c0.1,0,0.1,0,0.1,0.101c-0.1,0-0.1,0,0,0
		c0,0,0,0,0.102,0c-0.102,0-0.102-0.101,0,0l0,0c0-0.101,0-0.101,0,0l0,0l0,0l0,0v0.101l0,0c0-0.101,0-0.101,0,0l0,0l0,0v0.1l0,0
		l0,0l0,0c0,0,0-0.1,0,0c0,0,0,0,0,0.1c-0.102,0.1,0.1,0,0,0c0,0-0.102,0-0.102,0.1c0,0-0.1,0-0.1,0.101c0,0-0.199,0.101,0,0
		c-0.1,0-0.199,0.101-0.299,0.101c-0.201,0.1-0.4,0.1-0.602,0.199c-0.1,0-0.199,0.1-0.199,0.2c-0.1,0.101-0.1,0.2,0,0.3
		c0.1,0.2,0.301,0.301,0.5,0.301c0.398-0.101,0.799-0.301,1.1-0.4c0.199-0.1,0.398-0.2,0.5-0.4c0.199-0.199,0.199-0.5,0.1-0.799
		c0-0.199-0.1-0.3-0.301-0.4c-0.1-0.1-0.299-0.199-0.4-0.199c-0.199-0.1-0.398,0.1-0.5,0.3C39.022,28.421,39.122,28.62,39.321,28.72
		L39.321,28.72z"/>
	<path fill="#211715" d="M39.321,29.819c0,0,0.1,0,0.1,0.1c0.102,0,0,0,0,0l0,0l0,0c0,0-0.1-0.1,0,0l0,0c-0.1-0.1,0-0.1,0,0l0,0
		c0-0.1,0-0.1,0,0c0,0,0,0,0,0.101c0,0,0,0.101,0,0s0,0,0,0s0,0,0,0.101v0.1c0,0.1,0-0.1,0,0c0,0,0,0,0,0.1l0,0l0,0l0,0
		c0,0.1,0.102,0,0,0c0,0,0,0-0.1,0c0,0-0.1,0-0.1,0.1c-0.199,0.101-0.4,0.201-0.6,0.301c-0.1,0.1-0.201,0.1-0.201,0.199
		c0,0.101,0,0.201,0,0.301c0.102,0.1,0.102,0.199,0.201,0.199s0.199,0,0.299,0c0.201-0.1,0.5-0.199,0.701-0.299
		c0.299-0.101,0.5-0.4,0.5-0.601c0.1-0.2,0.1-0.5,0-0.7c-0.1-0.3-0.301-0.5-0.5-0.6c-0.201-0.1-0.4,0-0.5,0.1
		C39.122,29.419,39.122,29.72,39.321,29.819z"/>
	<path fill="#211715" d="M39.122,31.119c0.1,0,0.1,0.101,0.199,0.2c0,0.1-0.1,0.1-0.199,0.2c-0.201,0.2-0.5,0.3-0.799,0.399
		c-0.4,0.201-0.801,0.4-1.299,0.601c-0.201,0.101-0.5,0.101-0.701,0.101c-0.299,0-0.5,0-0.799,0c-0.5,0.1-0.9,0.299-1.4,0.6
		c-0.199,0.1-0.199,0.3-0.1,0.5c0.1,0.199,0.301,0.199,0.5,0.1c0.201-0.1,0.5-0.199,0.701-0.3c0.1-0.101,0.299-0.101,0.398-0.101
		c0.201,0,0.301,0,0.5,0c0.602,0,1.201-0.1,1.699-0.399c0.6-0.2,1.1-0.5,1.6-0.899c0.299-0.199,0.5-0.5,0.5-0.9
		c0-0.299-0.201-0.698-0.5-0.799C39.122,30.22,38.722,30.919,39.122,31.119L39.122,31.119z"/>
	<path fill="#211715" d="M33.524,28.62c-0.699,0.6-0.5,1.6-0.4,2.399c0.201,1,0.4,1.999,0.701,2.897c0.1,0.5,0.9,0.301,0.799-0.199
		c-0.199-0.9-0.5-1.699-0.6-2.6c-0.1-0.4-0.1-0.8-0.199-1.199c0-0.301,0.1-0.601,0.299-0.8c0.201-0.2,0.201-0.399,0-0.6
		C33.923,28.421,33.726,28.421,33.524,28.62L33.524,28.62z"/>
	<path fill="#211715" d="M52.415,48.11c0,0.398,0,0.8,0,1.299c0,0.2,0,0.301,0,0.5v0.102c0,0-0.1,0.199,0,0.1
		c-0.199,0.1-0.301,0-0.398-0.1c-0.102-0.2-0.102-0.301-0.102-0.5c-0.1-1.101-0.1-2.199-0.1-3.299c0-0.5-0.801-0.5-0.801,0
		c0,1.1,0,2.1,0.102,3.197c0,0.5,0.1,1,0.5,1.301c0.398,0.398,1.299,0.398,1.598-0.201c0.201-0.299,0.201-0.698,0.201-1.1
		c0-0.398,0-0.898,0-1.299C53.214,47.61,52.415,47.61,52.415,48.11L52.415,48.11z"/>
	<path fill="#211715" d="M53.813,45.812c0.301,0.898,0.5,1.699,0.699,2.599c0.201,0.9,0.5,1.8,0.602,2.698
		c0,0.199,0.1,0.699-0.201,0.9c-0.299,0.199-0.6-0.201-0.699-0.4c-0.398-0.699-0.699-1.398-0.898-2.199
		c-0.199-0.499-0.9-0.299-0.799,0.2c0.199,0.7,0.498,1.399,0.898,1.999c0.199,0.4,0.398,0.699,0.699,1
		c0.299,0.199,0.699,0.301,1.1,0.199c0.699-0.301,0.699-1.1,0.699-1.799c-0.1-0.899-0.299-1.699-0.5-2.6
		c-0.199-0.9-0.5-1.898-0.799-2.799C54.413,45.112,53.614,45.312,53.813,45.812L53.813,45.812z"/>
</g>
</svg>
