<?xml version="1.0" encoding="utf-8"?>
<!-- Generator: Adobe Illustrator 16.0.0, SVG Export Plug-In . SVG Version: 6.00 Build 0)  -->
<!DOCTYPE svg PUBLIC "-//W3C//DTD SVG 1.1//EN" "http://www.w3.org/Graphics/SVG/1.1/DTD/svg11.dtd">
<svg version="1.1" id="emoji" xmlns="http://www.w3.org/2000/svg" xmlns:xlink="http://www.w3.org/1999/xlink" x="0px" y="0px"
	 width="85px" height="85px" viewBox="0 0 85 85" enable-background="new 0 0 85 85" xml:space="preserve">
<g id="hair">
</g>
<g id="skin">
</g>
<g id="skin-shadow">
</g>
<g>
	<g id="color">
		<path fill="#FFFFFF" d="M18.947,24.078l-0.279-0.156l-3.605-2.043l-4.457,1.34c0,0-4.408,5.871-4.5,6.018
			c-0.094,0.146-3.373,5.779-3.373,5.779l1.037,3.629c0,0,6.396,2.346,13.265,0c0,0,6.167,4.061,5.673,9.84
			c0,0,7.391-1.275,7.391,4.424c0,0.283-0.457,10.113-0.457,10.113l0.851,3.943h3.885l3.435-16.334l4.889,0.926l16.902-0.928
			l4.785-2l2.027,4.279l-2.426,10.561l3.045,3.01l4.109-3.998c0,0-1.135,4.844,3.119,4.262c3.66-0.502,3.791-2.291,3.791-2.291
			l0.41-8.84l-0.41-3.617l-3.812-4.096l2.027-12.883c0,0-1.352-11.283-3.887-13.137L38.42,21.066l-11.759,1.381L18.947,24.078z"/>
		<path fill="#A57939" d="M25.854,21.066l-8.168,2.783c0,0-7.371,2.453-7.385,9.277s4.818,6.719,4.818,6.719h3.914
			c0,0,3.043,3.328,3.449,7.576c0.408,4.248,5.445,4.57,5.445,4.57l2.27,2.381l-0.328,7.496l-0.688,3.447l2.153,1.16l3.368-0.951
			l3.718-15.48l0.798-6.273c0,0-1.578-10.223-1.689-11.072c-0.112-0.85-1.135-8.367-2.596-11.254L25.854,21.066z"/>
		<path fill="#A57939" d="M48.564,21.066c0,0,6.758,5.604,6.646,16.863C55.098,49.191,64.555,49,64.555,49l1.301,5.193l-1.811,7.781
			l1.49,3.342l3.232-0.611l4.742-12.713c0,0,2.68-8.506,2.104-8.801c-0.576-0.297,0.654-8.641,0.654-8.641s0.008-9.645-4.613-12.648
			L48.564,21.066z"/>
	</g>
	<g id="line">
		<path fill="none" stroke="#000000" stroke-width="2" stroke-linecap="round" stroke-linejoin="round" stroke-miterlimit="10" d="
			M75.275,35.014c0.74,2.943,0.268,7.684-1.41,11.334l-1.1,6.975l-3.387,10.359c-0.359,1.102-1.361,1.844-2.49,1.844h-0.35
			c-1.785,0-3.051-1.797-2.496-3.549l2.197-9.443c0,0-5.586-10.354-4.053-15.15"/>
		<path fill="none" stroke="#000000" stroke-width="2" stroke-linecap="round" stroke-linejoin="round" stroke-miterlimit="10" d="
			M36.352,33.129l2.069,11.023l-3.427,20.441c-0.168,1.33-1.252,2.332-2.553,2.359l-0.414,0.01
			c-1.801,0.037-3.105-1.754-2.557-3.523c1.116-3.602,1.327-9.422-0.326-13.395c-1.888-4.537-1.018-6.699-1.018-6.699"/>
		<path fill="none" stroke="#000000" stroke-width="2" stroke-linecap="round" stroke-linejoin="round" stroke-miterlimit="10" d="
			M42.699,50.207c0,0,16.348,1.771,20.781-1.947"/>
		<path fill="none" stroke="#000000" stroke-width="2" stroke-linecap="round" stroke-linejoin="round" stroke-miterlimit="10" d="
			M82.5,50.047c0,0-2.93-4.955-1.676-12.496c2.324-13.957-8.711-15.471-8.711-15.471l-0.461-0.178L38.42,21.066l-12.566,1.369"/>
		<path fill="none" stroke="#000000" stroke-width="2" stroke-linecap="round" stroke-linejoin="round" stroke-miterlimit="10" d="
			M73.791,46.809l4.262,5.184l-0.086,11.281c0,1.244-0.98,2.252-2.186,2.252H73.51"/>
		<path fill="none" stroke="#000000" stroke-width="2" stroke-linecap="round" stroke-linejoin="round" stroke-miterlimit="10" d="
			M4.919,20.164c2.69,3.43,5.381,3.43,5.381,3.43"/>
		<path fill="none" stroke="#000000" stroke-width="2" stroke-linecap="round" stroke-linejoin="round" stroke-miterlimit="10" d="
			M20.034,18.035c1.916,3.844-2.349,5.814-2.349,5.814s-3.672-5.105-7.386-0.256l-2.786,3.377c0,0-2.853,4.689-4.851,7.381
			c-0.556,0.75,0.446,3.277,0.927,4.08c0.893,1.492,7.232,2.414,13.139,0.287c0,0,4.926,0.439,5.854,9.541
			c0.176,1.73,3.699,4.076,6.6,3.689"/>
		<path fill="none" stroke="#000000" stroke-width="2" stroke-linecap="round" stroke-linejoin="round" stroke-miterlimit="10" d="
			M19.6,32.645c6.428,2.098,6.75-3.322,6.75-3.322v-0.35c-3.125-3.729-6.021-1.049-6.021-1.049"/>
	</g>
</g>
</svg>
