<?xml version="1.0" encoding="utf-8"?>
<!-- Generator: Adobe Illustrator 16.0.0, SVG Export Plug-In . SVG Version: 6.00 Build 0)  -->
<!DOCTYPE svg PUBLIC "-//W3C//DTD SVG 1.1//EN" "http://www.w3.org/Graphics/SVG/1.1/DTD/svg11.dtd">
<svg version="1.1" id="Layer_1" xmlns="http://www.w3.org/2000/svg" xmlns:xlink="http://www.w3.org/1999/xlink" x="0px" y="0px"
	 width="85px" height="85px" viewBox="0 0 85 85" enable-background="new 0 0 85 85" xml:space="preserve">
<g>
	<g>
		<g>
			<rect x="4.031" y="2.5" fill="#81D2F6" width="76.942" height="80"/>
			<path fill="#FFFFFF" d="M73.18,11.984H40.95c0,0-0.283-4.536,4.88-3.07c2.652-5.372,13.5-6.237,15.473-0.292
				c4.205-1.73,5.182,2.035,5.182,2.035S70.805,8.284,73.18,11.984z"/>
			<g>
				<circle fill="#FFFFFF" cx="17.805" cy="16.558" r="9.819"/>
				<circle fill="#FEB300" cx="17.805" cy="16.558" r="6.468"/>
				<circle fill="#FFCF0B" cx="17.805" cy="16.558" r="4.573"/>
			</g>
			<polygon fill="#113F7A" points="80.973,62.703 4.028,62.703 4.028,39.357 16.771,30.443 18.986,32.236 35.873,19.69 
				38.305,21.349 41.533,19.124 48.258,24.302 58.229,14.597 74.074,31.717 76.729,29.453 80.973,33.414 			"/>
			<polyline opacity="0.3" fill="#333E63" points="47.969,66.356 47.969,52.809 55.814,63.066 54.924,67.542 64.211,67.542 
				59.562,58.714 57.27,43.617 74.637,69.855 			"/>
			<polygon opacity="0.3" fill="#333E63" points="76.729,29.453 74.074,31.717 71.961,36.958 74.225,38.649 71.107,48.743 
				77.158,41.741 79.711,32.236 			"/>
			<polyline opacity="0.3" fill="#333E63" points="6.354,63.066 14.788,52.215 25.798,40.146 15.649,62.383 18.986,62.703 
				22.415,54.117 25.736,62.247 			"/>
			<path fill="#60A78E" d="M80.973,82.499H4.028V57.108c30.576,5.595,48.554-2.373,76.945,0.578V82.499z"/>
			<rect x="4.028" y="71.752" fill="#589882" width="76.945" height="10.747"/>
			<path fill="#589882" d="M76.729,77.144c0,0-15.324-14.586-34.229-14.586c-18.903,0-34.228,14.586-34.228,14.586
				c0,6.638,15.286,3.68,34.189,3.68C61.365,80.823,76.729,83.781,76.729,77.144z"/>
			<polygon opacity="0.3" fill="#333E63" points="18.986,32.236 16.199,35.618 14.788,46.35 30.545,27.515 32.12,30.443 
				40.013,24.239 38.305,21.349 35.873,19.69 			"/>
			<polygon opacity="0.3" fill="#333E63" points="58.229,14.597 48.258,24.302 44.879,35.076 50.262,28.161 58.604,31.001 
				58.604,26.734 54.881,24.382 			"/>
			<polygon fill="#FFFFFF" points="58.229,14.597 52.996,19.69 56.279,20.292 61.455,24.149 61.572,20.4 64.211,21.06 			"/>
			<polygon fill="#FFFFFF" points="35.873,19.69 31.774,22.735 34.513,23.836 37.435,20.755 			"/>
			<polygon fill="#FFFFFF" points="16.771,30.443 9.222,35.724 11.686,36.958 15.103,34.498 16.199,35.618 18.986,32.236 			"/>
			<ellipse opacity="0.3" fill="#333E63" cx="42.718" cy="66.356" rx="6.936" ry="1.633"/>
			<g>
				<g>
					<path fill="#A43548" d="M51.4,37.131c-0.393,0-0.568,0-0.643,0c0,0,0.279,6.315-6.607,6.119l-0.242-0.795l0.541-1.442
						l-0.541-0.901l-0.746,1.352l-1.583-6.388h-0.63v7.199l-1.817-3.965l-0.721,0.533l2.461,5.256h0.003
						c0,0.007-0.078,2.296-0.245,4.607c-1.139-0.077-1.981-0.931-2.563-1.827l0.345-1.354l-0.265-0.366l-0.481,1.03
						c-0.404-0.787-0.599-1.453-0.599-1.453s0.652,0-0.75-0.027c-0.232,3.899,4.04,6.284,4.04,6.284l-0.218,14.191l-0.014,0.843
						c2.357,1.241,5.464,0.084,5.464,0.084l-0.398-7.598l-0.713-13.375C46.225,45.008,51.422,44.037,51.4,37.131z"/>
					<path opacity="0.3" fill="#333E63" d="M40.785,57.697c-0.001,0.218,0.001,0.444,0.087,0.644
						c0.086,0.202,0.275,0.374,0.494,0.373c0.332-0.003,0.531-0.366,0.628-0.685c0.271-0.89,0.322-1.839,0.207-2.762
						c-0.074-0.596-0.623-1.78-1.153-0.734C40.644,55.329,40.789,56.82,40.785,57.697z"/>
					<path opacity="0.3" fill="#333E63" d="M42.955,52.819c0.021,0.217,0.049,0.444,0.178,0.619c0.062,0.084,0.15,0.155,0.256,0.163
						c0.146,0.014,0.279-0.102,0.334-0.237c0.057-0.136,0.055-0.288,0.051-0.436c-0.049-1.595-0.133-3.188-0.25-4.78
						c-0.049-0.646-0.092-1.422-0.498-1.955c-0.417,0.799-0.302,1.811-0.259,2.678C42.832,50.19,42.828,51.503,42.955,52.819z"/>
					<path opacity="0.3" fill="#333E63" d="M44.035,54.903c-0.414-0.701-1.347,0.999-0.477,1.25c0.17,0.049,0.355-0.057,0.449-0.206
						c0.096-0.149,0.117-0.332,0.125-0.509C44.139,55.255,44.127,55.062,44.035,54.903z"/>
					<path opacity="0.3" fill="#333E63" d="M45.588,66.111c0,0-3.107,1.157-5.464-0.084l0.014-0.843
						c0.499,0.464,1.193,0.716,1.859,0.632c0.196-0.028,0.4-0.077,0.546-0.211c0.127-0.119,0.204-0.28,0.268-0.441
						c0.343-0.82,0.554-1.69,0.625-2.574c0.062-0.765,0.027-1.558,0.33-2.253c0.168-0.392,0.428-0.729,0.701-1.045
						c0.23-0.272,0.477-0.533,0.723-0.778L45.588,66.111z"/>
				</g>
				<path fill="#60A78E" d="M36.703,45.719c0,0-2.239,0.412-1.898-2.275C37.039,43.75,36.703,45.719,36.703,45.719z"/>
				<path fill="#60A78E" d="M37.096,45.088c0,0-1.217-1.32,0.719-2.222C38.601,44.796,37.096,45.088,37.096,45.088z"/>
				<path fill="#60A78E" d="M41.439,35.671c0,0-2.217-0.513-0.834-2.842C42.532,34,41.439,35.671,41.439,35.671z"/>
				<path fill="#60A78E" d="M50.467,39.812c0,0-2.195,0.605-2.088-2.102C50.631,37.821,50.467,39.812,50.467,39.812z"/>
				<path fill="#60A78E" d="M50.322,41.024c0,0,0.496-2.222,2.836-0.857C52.004,42.103,50.322,41.024,50.322,41.024z"/>
				<path fill="#60A78E" d="M41.766,37.69c0,0-0.59-1.695,1.545-1.751C43.262,38.022,41.766,37.69,41.766,37.69z"/>
				<path fill="#60A78E" d="M51.082,37.93c0,0-1.512-0.963,0.127-2.332C52.463,37.263,51.082,37.93,51.082,37.93z"/>
				<path fill="#60A78E" d="M43.828,41.018c0,0-1.394-1.131,0.391-2.303C45.275,40.513,43.828,41.018,43.828,41.018z"/>
				<path fill="#60A78E" d="M41.392,38.077c0,0-1.517,0.96-2.057-1.105C41.374,36.544,41.392,38.077,41.392,38.077z"/>
			</g>
		</g>
	</g>
	<path fill="#589882" d="M9.87,67.41c0,0-0.622-1.412,0-1.695c0.622-0.282,0.848,1.243,0.848,1.243s0.225-2.267,0.959-2.234
		c0.734,0.031,0.284,2.404,0.284,2.404s0.621-1.388,1.186-1.062c0.565,0.327,0.283,1.683,0.283,1.683"/>
	<path fill="#589882" d="M59.756,61.139c0,0-0.734-1.638-0.283-1.807c0.453-0.17,1.131,0.903,1.131,0.903s-0.34-1.519,0.453-1.521
		c0.789-0.004,0.734,1.86,0.734,1.86s0.451-1.242,0.959-1.017c0.51,0.227,0.283,1.864,0.283,1.864"/>
	<path opacity="0.3" fill="#333E63" d="M52.164,72.824c0,0-0.734-1.638-0.281-1.808c0.451-0.17,1.131,0.904,1.131,0.904
		s-0.34-1.52,0.451-1.522c0.791-0.004,0.734,1.86,0.734,1.86s0.451-1.242,0.961-1.017c0.508,0.227,0.281,1.864,0.281,1.864"/>
	<path fill="#589882" d="M72.297,67.989c0,0-0.621-1.236,0-1.388c0.623-0.152,0.904,0.979,0.904,0.979s0-1.808,0.621-1.808
		c0.623,0,0.508,1.977,0.508,1.977"/>
	<path opacity="0.3" fill="#333E63" d="M30.632,69.967c0,0-0.622-1.236,0-1.388c0.622-0.151,0.904,0.978,0.904,0.978
		s0-1.808,0.621-1.808c0.622,0,0.508,1.978,0.508,1.978"/>
</g>
</svg>
