<?xml version="1.0" encoding="utf-8"?>
<!-- Generator: Adobe Illustrator 16.0.0, SVG Export Plug-In . SVG Version: 6.00 Build 0)  -->
<!DOCTYPE svg PUBLIC "-//W3C//DTD SVG 1.1//EN" "http://www.w3.org/Graphics/SVG/1.1/DTD/svg11.dtd">
<svg version="1.1" id="Layer_1" xmlns="http://www.w3.org/2000/svg" xmlns:xlink="http://www.w3.org/1999/xlink" x="0px" y="0px"
	 width="85px" height="85px" viewBox="0 0 85 85" enable-background="new 0 0 85 85" xml:space="preserve">
<g>
	<path fill="#8CA0BA" d="M42.977,81.332l1.334,1.038l3.012,0.13l1.039-0.648l0.146-0.821l-5.287-0.907L42.977,81.332z"/>
	<path fill="#CDBBB2" d="M47.047,78.851c-0.178-0.238-0.354-0.609-0.596-0.8c-0.086-0.067-0.15-0.109-0.207-0.131
		c-0.232-0.092-0.268,0.162-0.684,0.265c-0.748,0.188-1.473-1.011-2.182-0.24c-0.324,0.354-0.129,1.069-0.107,1.489l-0.098,1.341
		l1.334,0.862l2.619,0.256c0,0,1.234-0.779,1.383-0.866s-0.596-0.992-0.596-0.992C47.605,79.654,47.336,79.242,47.047,78.851z"/>
	<path fill="#A8948E" d="M44.408,77.617L45,79.776c0,0,0.742-0.129,1.037-0.086c0,0,0-1.34-0.098-1.944
		C45.84,77.141,44.408,77.617,44.408,77.617L44.408,77.617z"/>
	<path fill="#BCA79F" d="M45.742,78.739c0.344,0.39,1.826,1.384,1.826,1.384c0-0.691-1.186-2.074-1.186-2.074
		S46.086,78.178,45.742,78.739z M43.221,78.354l0.396,1.898l1.48-1.557l-0.986-0.993L43.221,78.354z"/>
	<path fill="#7E8287" d="M44.244,78.953l0.127,0.175c0.652-0.355,1.5-0.415,2.209-0.153l0.092-0.191
		C45.893,78.495,44.963,78.561,44.244,78.953L44.244,78.953z"/>
	<path fill="#7E8287" d="M44.336,79.321l0.117,0.182c0.639-0.32,1.436-0.384,2.131-0.17l0.078-0.196
		C45.904,78.901,45.033,78.971,44.336,79.321z M46.857,77.035c-0.244-0.124-0.6-0.096-0.85,0.064
		c-0.264,0.171-0.383,0.43-0.436,0.617c-0.062,0.229-0.064,0.462-0.066,0.688l-0.002,0.178l1.217-0.576
		c0.117-0.057,0.266-0.126,0.357-0.248c0.08-0.105,0.105-0.237,0.068-0.372C47.107,77.239,47,77.107,46.857,77.035L46.857,77.035z
		 M46.881,77.644c-0.059,0.078-0.172,0.132-0.271,0.18l-0.861,0.407c0.004-0.157,0.016-0.313,0.059-0.463
		c0.061-0.219,0.184-0.396,0.346-0.499c0.105-0.067,0.229-0.104,0.355-0.104c0.086,0,0.166,0.018,0.23,0.052
		c0.088,0.045,0.152,0.124,0.178,0.219C46.938,77.511,46.924,77.586,46.881,77.644L46.881,77.644z"/>
	<path fill="#7E8287" d="M44.58,76.967c-0.256-0.162-0.582-0.166-0.699,0.013c-0.107,0.165,0.021,0.353,0.062,0.412
		c0.354,0.52,0.934,0.927,1.588,1.12l0.207,0.062l-0.055-0.186C45.52,77.826,45.117,77.308,44.58,76.967L44.58,76.967z
		 M44.146,77.286c-0.064-0.096-0.084-0.165-0.059-0.204c0.008-0.012,0.021-0.035,0.086-0.035c0.076,0,0.184,0.035,0.266,0.088
		c0.43,0.271,0.764,0.666,0.943,1.104C44.873,78.041,44.432,77.702,44.146,77.286z"/>
	<path fill="#7E8287" d="M44.393,78.529l0.139,0.169c0.316-0.198,0.76-0.253,1.127-0.135l0.082-0.194
		C45.293,78.225,44.777,78.287,44.393,78.529L44.393,78.529z"/>
	<path fill="#8CA0BA" d="M34.684,80.885l0.146,0.821l1.037,0.647l3.014-0.129l1.334-1.038l-0.246-1.21L34.684,80.885z"/>
	<path fill="#CDBBB2" d="M39.811,77.799c-0.707-0.771-1.432,0.427-2.182,0.241c-0.416-0.104-0.451-0.356-0.684-0.266
		c-0.055,0.021-0.121,0.062-0.207,0.13c-0.24,0.191-0.418,0.562-0.594,0.801c-0.291,0.393-0.561,0.804-0.869,1.183
		c0,0-0.742,0.907-0.594,0.994c0.146,0.086,1.381,0.866,1.381,0.866l2.619-0.257l1.334-0.862l-0.098-1.34
		C39.939,78.869,40.135,78.151,39.811,77.799L39.811,77.799z"/>
	<path fill="#A8948E" d="M37.252,77.601c-0.1,0.604-0.1,1.944-0.1,1.944c0.297-0.043,1.037,0.087,1.037,0.087l0.594-2.161
		C38.783,77.471,37.352,76.995,37.252,77.601L37.252,77.601z"/>
	<path fill="#BCA79F" d="M36.809,77.903c0,0-1.188,1.384-1.188,2.074c0,0,1.482-0.994,1.828-1.383
		C37.104,78.032,36.809,77.903,36.809,77.903z M38.092,78.551l1.482,1.556l0.395-1.896l-0.891-0.652L38.092,78.551z"/>
	<path fill="#7E8287" d="M36.52,78.638l0.092,0.191c0.709-0.262,1.557-0.202,2.209,0.153l0.127-0.177
		C38.229,78.415,37.299,78.351,36.52,78.638L36.52,78.638z"/>
	<path fill="#7E8287" d="M36.529,78.992l0.078,0.194c0.693-0.214,1.49-0.149,2.129,0.169l0.119-0.18
		C38.156,78.826,37.287,78.756,36.529,78.992L36.529,78.992z M37.615,77.573c-0.051-0.188-0.17-0.446-0.436-0.617
		c-0.248-0.16-0.604-0.189-0.848-0.064c-0.143,0.072-0.25,0.203-0.289,0.351c-0.037,0.135-0.014,0.267,0.066,0.371
		c0.094,0.123,0.24,0.192,0.357,0.248l1.217,0.576l-0.002-0.176C37.684,78.033,37.68,77.801,37.615,77.573z M36.582,77.678
		c-0.1-0.048-0.213-0.102-0.271-0.18c-0.043-0.059-0.057-0.133-0.035-0.21c0.025-0.095,0.092-0.174,0.178-0.219
		c0.066-0.033,0.146-0.052,0.23-0.052c0.125,0,0.254,0.038,0.355,0.104c0.164,0.104,0.285,0.281,0.346,0.5
		c0.043,0.148,0.055,0.306,0.061,0.464L36.582,77.678L36.582,77.678z"/>
	<path fill="#7E8287" d="M38.611,76.821c-0.537,0.343-0.939,0.858-1.104,1.423l-0.055,0.185l0.207-0.062
		c0.654-0.193,1.232-0.602,1.588-1.119c0.041-0.062,0.168-0.247,0.061-0.413C39.193,76.656,38.867,76.66,38.611,76.821
		L38.611,76.821z M39.045,77.141c-0.285,0.416-0.729,0.755-1.236,0.952c0.18-0.438,0.516-0.831,0.941-1.104
		c0.084-0.052,0.189-0.087,0.266-0.087c0.064,0,0.08,0.023,0.088,0.034C39.129,76.977,39.107,77.047,39.045,77.141z"/>
	<g>
		<path fill="#7E8287" d="M37.451,78.223l0.082,0.195c0.367-0.117,0.811-0.064,1.129,0.135l0.137-0.168
			C38.414,78.143,37.898,78.08,37.451,78.223z"/>
	</g>
	<path fill="#28778C" d="M41.789,42.151l-7.869-0.486l0.299,4.733l0.697,9.83l0.596,4.53l-0.338,4.128l0.439,7.971l0.396,2.188
		l-0.299,2.062c0,0-0.012,0.603,0.488,1.45c1.693-0.729,3.76,0.977,3.76,0.977l0.529-2.301l0.096-1.91l0.209-2.1l-0.467-10.79
		l0.914-12.529l0.111-0.688l0.43-2.695l0.705,5.339l0.797,11.167l-0.031,0.613l-0.465,9.584l0.016,0.156l0.191,1.838l-0.107,1.525
		l0.154,1.964c0,0,0.043-0.01,0.125-0.023c0.512-0.088,2.545-0.382,4.014,0.25c0.498-0.849,0.688-1.827,0.688-1.827l-0.301-2.062
		l0.398-2.188l0.699-8.495l-0.51-4.548l0.51-3.586l0.697-9.83l0.299-4.734l-7.277,0.451L41.789,42.151L41.789,42.151z"/>
	<path fill="#2D8296" d="M41.781,46.516c0,0,1.537-3.652,1.537-4.556c-0.953-0.853-1.455-0.853-1.455-0.853L41.781,46.516z"/>
	<path fill="#EFEFEF" d="M41.211,48.076c0,0,0.053,0.428,0.143,1.141l0.43-2.695l-0.369-0.049L41.211,48.076z"/>
	<path fill="#EFEFEF" d="M43.918,60.611l-1.4-13.338l1.201-0.499l-1.936-0.253l0.703,5.339l0.799,11.167l-0.031,0.613
		c0.023,0.136,0.045,0.229,0.062,0.279c0.162,0.486-0.17,5.217-0.514,9.461l0.191,1.838l-0.107,1.525l0.154,1.964
		c0,0,0.043-0.01,0.125-0.023c0.312-0.665,0.521-1.385,0.252-1.829l0.301-1.306c0,0-0.199-3.81-0.199-4.211
		c0-0.4,0.6-7.821,0.6-7.821L43.918,60.611L43.918,60.611z"/>
	<path fill="#EFEFEF" d="M41.789,42.152l-7.871-0.486l0.299,4.733l0.697,9.83l0.596,4.53l-0.336,4.127l0.439,7.972l0.395,2.188
		l-0.297,2.062c0,0-0.012,0.604,0.486,1.45l0.076-1.271L36.1,64.723l0.197-4.312l-1.402-17.446l13.436-0.301
		c0,0-2.717-0.255-5.947-0.547L41.789,42.152L41.789,42.152z"/>
	<g>
		<path fill="#E5B28F" d="M46.611,15.546l-1.285-0.502l-0.287-2.271l-2.572,0.351l-2.574-0.351l-0.016,0.109l-0.266,2.161
			l-0.77,0.298c-0.16,0.062-0.307,0.1-0.475,0.131c-0.08,0.018-0.158,0.047-0.23,0.089c-0.117,0.058-0.232,0.142-0.344,0.208
			c-0.072,0.048-0.15,0.095-0.199,0.168c-0.125,0.184,0.062,0.459,0.162,0.615c0.727,1.196,1.906,2.125,3.273,2.585
			c1.363,0.459,2.896,0.438,4.244-0.058c0.805-0.292,1.566-0.772,1.975-1.493C47.656,16.864,47.229,16.114,46.611,15.546z"/>
	</g>
	<path fill="#D6A483" d="M39.611,15.044l-0.77,0.298c-0.162,0.062-0.307,0.1-0.475,0.131c-0.08,0.018-0.158,0.048-0.23,0.089
		c0.482,0.868,1.021,1.107,1.301,1.19c0.959,0.281,1.936-0.396,3.523-1.522c0.621-0.442,1.217-0.923,1.781-1.438l-4.867-0.909
		L39.611,15.044z"/>
	<g>
		<path fill="#E5B28F" d="M38.473,8.576l-0.031-0.021c-0.146-0.092-0.336-0.081-0.475,0.026L37.859,8.67
			c-0.137,0.107-0.189,0.291-0.131,0.455c0.129,0.384,0.24,0.77,0.377,1.152c0.092,0.262,0.184,0.528,0.307,0.783
			c0.041,0.085,0.078,0.236,0.146,0.303c0.111,0.11,0.338,0.062,0.443,0.151l0.227,0.187c-0.227-0.985-0.33-1.873-0.57-2.873
			C38.629,8.724,38.564,8.633,38.473,8.576z"/>
		<path fill="#EDB996" d="M45.521,4.68c-0.4-0.004-1.016,0.385-1.402,0.531c-0.486-0.061-0.973-0.119-1.459-0.178
			c-0.801-0.099-1.74-0.377-2.529-0.373c-1.459,0.006-1.73,2.437-1.498,3.484l0.039,0.174l-0.057-0.043
			c0.271,1.324,0.373,2.479,0.613,3.771l0.379,1.137l2.266,1.677l0.762,0.047l0.762-0.047l2.039-1.646l0.398-1.126
			c0.189-1.337,0.607-2.675,0.576-4.011C46.393,7.275,46.893,4.69,45.521,4.68L45.521,4.68z"/>
		<path fill="#E5B28F" d="M46.6,8.474c-0.002,0-0.166,0.07-0.166,0.07L46.41,8.502c0.031,1.076-0.387,2.156-0.574,3.232
			c0.01-0.062,0.262-0.098,0.311-0.106c0.422-0.095,0.385-0.315,0.488-0.612c0.109-0.312,0.219-0.623,0.326-0.936
			c0.098-0.276,0.283-0.618,0.297-0.908c0.01-0.184-0.072-0.346-0.213-0.461C46.99,8.664,46.654,8.449,46.6,8.474L46.6,8.474z"/>
	</g>
	<g>
		<path fill="#D6A483" d="M42.291,11.654l-0.451-0.352L42,11.916l0.967,0.164l0.438-0.512l-0.232,0.26L42.291,11.654z"/>
	</g>
	<g>
		<path fill="#FFFFFF" d="M41.152,12.582l0.428,0.492c0.123,0.138,0.283,0.232,0.463,0.264c0.336,0.055,0.676,0.057,1.012,0.007
			c0.213-0.031,0.4-0.142,0.527-0.312c0.094-0.127,0.094-0.449,0.285-0.463C42.809,12.64,41.152,12.582,41.152,12.582z"/>
	</g>
	<g>
		<path fill="#FFFFFF" d="M43.408,9.848c0,0,0.953,0.611,1.453,0l0.021-0.092c-0.047-0.049-0.305-0.294-0.705-0.292
			C43.715,9.468,43.441,9.803,43.408,9.848z"/>
		<path fill="#6D4D46" d="M44.146,9.484c-0.184,0-0.332,0.143-0.332,0.317s0.148,0.317,0.332,0.317c0.186,0,0.334-0.144,0.334-0.317
			C44.48,9.625,44.33,9.484,44.146,9.484z"/>
		<g>
			<path fill="#5E413A" d="M43.357,9.724l0.051,0.124c0,0,0.592-0.564,1.559-0.092C45.074,9.412,43.971,9.217,43.357,9.724z"/>
		</g>
	</g>
	<path fill="#51372E" d="M44.146,9.648c-0.084,0-0.15,0.067-0.15,0.15s0.066,0.15,0.15,0.15c0.082,0,0.148-0.067,0.148-0.15
		S44.229,9.648,44.146,9.648z"/>
	<g>
		<path fill="#FFFFFF" d="M40.975,9.383c-0.4-0.003-0.658,0.242-0.705,0.291l0.023,0.091c0.5,0.613,1.451,0,1.451,0
			C41.711,9.721,41.438,9.386,40.975,9.383z"/>
		<path fill="#6D4D46" d="M41.006,9.402c-0.184,0-0.332,0.144-0.332,0.317c0,0.176,0.148,0.317,0.332,0.317
			c0.186,0,0.334-0.143,0.334-0.317S41.189,9.402,41.006,9.402z"/>
		<g>
			<path fill="#5E413A" d="M40.188,9.674c0.967-0.475,1.559,0.091,1.559,0.091l0.051-0.123C41.184,9.136,40.078,9.33,40.188,9.674z"
				/>
		</g>
	</g>
	<path fill="#51372E" d="M40.986,9.549c-0.082-0.002-0.152,0.062-0.154,0.146c-0.002,0.082,0.064,0.15,0.146,0.152
		c0.004,0,0.006,0,0.008,0c0.084,0.002,0.15-0.062,0.154-0.146c0.002-0.082-0.062-0.15-0.146-0.152
		C40.992,9.549,40.99,9.549,40.986,9.549z"/>
	<g>
		<path fill="#5E413A" d="M43.508,8.674c-0.025,0.129-0.064,0.256-0.111,0.379l1.336-0.186l1.014,0.141l-1-0.479L43.508,8.674z"/>
	</g>
	<g>
		<path fill="#5E413A" d="M41.627,8.671l-1.318-0.164l-0.926,0.479l1.07-0.08l1.475,0.205c0.006-0.053-0.025-0.102-0.062-0.147
			C41.77,8.873,41.686,8.775,41.627,8.671L41.627,8.671z"/>
	</g>
	<path fill="#878BA0" d="M53.588,22.951l-1.045-3.301l-1.955-3.233l-5.062-1.178l-0.301,1.955c-2.008,2.707-3.762,2.257-5.363,0.051
		l-0.902-2.041l-4.865,1.263c0,0-1.98,2.884-2.08,3.185c-0.1,0.302-0.602,3.911-0.602,3.911l3.232,0.452l0.15,1.001l-0.145,2.801
		l-0.711,13.741l-0.047,0.905l0.361,0.006l0.172,0.003l15.512,0.292c-0.264-12.772-0.025-9.761-0.861-16.223l0.369-2.604
		C50.779,23.203,52.379,23.264,53.588,22.951z"/>
	<path fill="#EFEFEF" d="M34.65,27.815l-0.711,13.741l0.314,0.911l0.141,0.395l0.031-0.392l1.674-9.635c0,0,2.807-0.603,5.611-0.804
		c2.811-0.198,7.623-0.7,7.623-0.7L35.797,27.22L34.65,27.815L34.65,27.815z"/>
	<g>
		<path fill="#D6A483" d="M49.334,23.729l-0.848,3.302l-12.094,4.954c0,0.146,4.275,0.887,4.434,0.887
			c0.16,0,5.664,0.115,5.664,0.115l4.697-0.848c0.674-0.122,1.225-0.715,1.404-1.514l0.93-4.125l-0.229-3.616L49.334,23.729z"/>
		<path fill="#E5B28F" d="M53.273,26.255l-1.48-0.502l-1.344,0.629l0.021-0.203l1.188-0.787l1.367,0.257
			c0.213,0.041,0.404-0.169,0.393-0.433c-0.01-0.204-0.115-0.298-0.281-0.318l-1.584-0.262l-1.521,0.707l0.439-0.358l0.812-0.439
			l1.707,0.196c0.164,0.02,0.293-0.169,0.244-0.36c-0.047-0.188-0.182-0.325-0.34-0.349l-1.633-0.24l-2.494,0.989l-2.592,2.736
			c0,0-4.297,0.17-4.535,0.17s-2.949-0.323-2.949-0.323l-2.838-0.64l-0.207-2.996l-4.086-0.231l-0.143,3.525l0.77,4.327
			c0.096,0.525,0.449,0.924,0.887,1.002l1.176,0.207l3.986-0.146l7.273-1.682l2.551-0.264l2.363-1.469l0.371-0.379l1.094-0.712
			l0.971-0.01c0.143-0.002,0.262-0.135,0.273-0.308c0.014-0.189-0.104-0.355-0.26-0.366c-0.301-0.021-0.932-0.058-1.035-0.058
			c-0.158,0-0.902,0.29-1.102,0.338c-0.199,0.049-0.025-0.25-0.025-0.25l1.158-0.744l1.283,0.33c0.146,0.038,0.289-0.09,0.301-0.271
			C53.465,26.426,53.389,26.293,53.273,26.255z"/>
		<path fill="#D6A483" d="M36.115,23.476l-0.625,0.288l-0.113,0.149c-0.141,0.186-0.15,0.467-0.023,0.667l0.643,1.023l-0.645-0.636
			c-0.152-0.151-0.383-0.081-0.459,0.139c-0.051,0.146-0.018,0.313,0.082,0.415l0.971,1.191l1.836,0.402l-0.713-1.692L36.115,23.476
			L36.115,23.476z"/>
	</g>
	<g>
		<path fill="#51372E" d="M42.629,3.016c-1.975-0.162-3.947,1.346-3.947,1.346L38.23,6.998l0.562,3.228l0.338-1.668
			c0.229-0.106,0.51-2.421,0.51-2.421l2.424,0.161l3.047-0.216l0.615,2.037l0.23,0.6l0.111,1.454l0.508-1.562l0.227-2.744
			l-0.508-1.613C46.295,4.253,44.604,3.178,42.629,3.016z"/>
		<path fill="#5E3F37" d="M45.436,3.033c-0.4-0.022-0.812,0.073-1.166,0.277c0.217-0.259,0.432-0.52,0.648-0.777
			c-1.078,0.006-2.104-0.039-3.127,0.248c-0.148,0.043-0.299,0.092-0.443,0.148c-0.049,0.02-0.096,0.038-0.145,0.059
			c0.172-0.162,0.344-0.326,0.516-0.488c-0.926,0.056-2.168,0.63-2.609,1.558c-0.234,0.49,0.064,1.743,0.529,2.078
			c0.607,0.437,1.385,0.165,1.848-0.126c0.08-0.049,0.156-0.104,0.229-0.164c0.014-0.01,0.025-0.021,0.037-0.032
			c0.561,0.7,1.172,0.539,3.359,0.271c-0.609-0.184-0.953-0.986-0.83-1.606C44.369,4.018,44.881,3.046,45.436,3.033z"/>
		<path fill="#5E3F37" d="M44.818,4.693c-0.033,0.146-0.053,0.297-0.053,0.448C44.762,5.423,44.84,5.953,45,6.183
			c0.062,0.086,0.125,0.169,0.189,0.253c-0.023-0.156-0.025-0.314,0.01-0.474c0.006-0.021,0.014-0.038,0.023-0.054
			c0.182-0.287,0.119-0.733,0.154-1.061c0.033-0.302,0.139-1.062,0.488-1.154C45.387,3.824,44.939,4.177,44.818,4.693z
			 M38.867,3.971c-0.689,1.049-0.535,2.26,0.152,2.824l0.346,0.402l0.189-0.361C39.557,6.834,38.586,5.06,38.867,3.971L38.867,3.971
			z"/>
		<path fill="#51372E" d="M41.791,2.781c-0.148,0.043-0.299,0.092-0.443,0.148c-1.447,1.686-0.33,2.711,0.139,3.079
			c0.094,0.073,0.166,0.122,0.178,0.142c0,0,0,0.12,0.266,0c-0.082-0.1-0.154-0.203-0.213-0.306
			C41.115,4.869,41.373,3.811,41.791,2.781z"/>
	</g>
</g>
</svg>
