<?xml version="1.0" encoding="utf-8"?>
<!-- Generator: Adobe Illustrator 16.0.2, SVG Export Plug-In . SVG Version: 6.00 Build 0)  -->
<!DOCTYPE svg PUBLIC "-//W3C//DTD SVG 1.1 Tiny//EN" "http://www.w3.org/Graphics/SVG/1.1/DTD/svg11-tiny.dtd">
<svg version="1.1" baseProfile="tiny" id="Layer_1" xmlns="http://www.w3.org/2000/svg" xmlns:xlink="http://www.w3.org/1999/xlink"
	 x="0px" y="0px" width="85px" height="85px" viewBox="0 0 85 85" xml:space="preserve">
<g>
	<path d="M21.837,17.059c-0.285,0.994-0.492,1.144-1.595,1.146c-1.875,0.003-3.749,0.016-5.623-0.007
		c-0.533-0.007-0.759-0.005-0.605,0.69c1.862,8.472,3.686,16.952,5.505,25.434c0.077,0.362,0.252,0.585,0.532,0.805
		c2,1.569,2.896,3.625,2.608,6.156c-0.058,0.503,0.019,0.868,0.371,1.256c0.92,1.019,1.529,2.223,1.855,3.555
		c0.1,0.406,0.236,0.593,0.714,0.585c1.899-0.035,3.799-0.034,5.7-0.002c0.501,0.01,0.595-0.146,0.59-0.611
		c-0.026-2.108-0.003-4.217-0.015-6.326c-0.005-0.794,0.33-1.284,1.129-1.425c0.7-0.086,1.129,0.18,1.35,0.836
		c0.117,0.353,0.111,0.719,0.111,1.08c0.004,1.639,0,3.273,0.002,4.91c0.003,1.231,0.005,1.233,1.27,1.235c4.806,0,9.61,0,14.415,0
		c0.313,0,0.624-0.006,0.935,0.018c0.55-0.034,1.095-0.013,1.641-0.018c1.215-0.008,1.238-0.022,1.239-1.206
		c0.004-1.849,0.002-3.698,0.002-5.547c0-2.423,0.004-4.842-0.002-7.266c-0.003-1.009-0.082-1.094-1.042-1.104
		c-5.861-0.065-11.718-0.021-17.577-0.032c-0.259,0-0.526-0.022-0.729,0.188c-0.321,0.587-0.119,1.221-0.164,1.832
		c-0.031,0.41,0.042,0.841-0.135,1.227c-0.235,0.508-0.523,0.983-1.226,0.768c-1.009-0.285-1.314-0.555-1.191-1.59
		c0.291-2.429-0.379-4.505-1.858-6.434c-0.943-1.231-1.682-2.622-2.502-3.946c-0.503-0.812-0.437-1.436,0.177-1.847
		c0.636-0.425,1.294-0.216,1.809,0.602c1.288,2.044,2.574,4.087,3.839,6.146c0.23,0.375,0.473,0.52,0.92,0.519
		c6.612-0.016,13.222-0.016,19.833,0c0.425,0.001,0.651-0.139,0.865-0.488c1.282-2.079,2.594-4.138,3.878-6.213
		c0.298-0.478,0.662-0.821,1.249-0.766c0.943,0.085,1.332,1.051,0.77,1.96c-1.34,2.165-2.688,4.323-4.056,6.47
		c-0.234,0.37-0.343,0.729-0.343,1.164c0.009,5.049,0.017,10.099-0.011,15.147c-0.004,0.607,0.178,0.73,0.742,0.715
		c1.509-0.037,3.021-0.063,4.526,0.008c0.741,0.036,0.822-0.233,0.821-0.869c-0.026-5.127-0.017-10.256-0.015-15.383
		c0-1.412,0.342-1.755,1.747-1.756c5.492,0,10.983,0.009,16.476-0.01c0.722-0.003,1.32,0.136,1.729,0.772c0,0.261,0,0.521,0,0.781
		c-0.176,0.657-0.587,1.01-1.283,1c-0.442,0.043-0.887,0.024-1.326,0.027c-1.155,0.01-1.2,0.048-1.207,1.171
		c-0.005,1.144,0.009,2.291-0.003,3.436c-0.016,1.608-0.502,2.098-2.107,2.109c-1.225,0.009-2.445,0.018-3.67-0.004
		c-1.313-0.021-1.84-0.533-1.887-1.854c-0.045-1.302-0.002-2.603-0.02-3.905c-0.01-0.87-0.081-0.945-0.93-0.951
		c-1.354-0.01-2.708-0.018-4.06,0.004c-0.79,0.011-0.908,0.119-0.912,0.919c-0.018,4.451-0.013,8.902-0.002,13.353
		c0.002,0.774,0.106,0.849,1.038,0.849c4.53,0.009,9.057,0.002,13.585,0.006c0.445,0,0.888-0.014,1.328,0.019
		c0.646,0.098,1.237,0.282,1.452,1.009c0,0.261,0,0.521,0,0.781c-0.175,0.584-0.507,0.982-1.172,0.996
		c-0.52,0.057-1.04,0.037-1.562,0.037c-17.472,0.002-34.944,0.002-52.415,0.002c-0.338,0-0.678,0.012-1.015,0.003
		c-0.589-0.016-0.944,0.182-0.923,0.848c0.022,0.672,0.135,0.796,0.921,0.826c0.312,0.009,0.624,0.003,0.937,0.003
		c17.394,0,34.788,0,52.181,0c0.521,0,1.042-0.017,1.561,0.021c0.659,0.098,1.266,0.269,1.486,1.014c0,0.262,0,0.521,0,0.781
		c-0.155,0.513-0.422,0.913-1.012,0.975c-0.741,0.06-1.492-0.021-2.31,0.063c1.322,2.384,1.459,4.714-0.02,7.035
		c0.669,0.015,1.339-0.061,2.003,0.051c0.574,0.13,1.15,0.26,1.34,0.94c0,0.313,0,0.624,0,0.937
		c-0.237,0.483-0.574,0.824-1.155,0.836c-4.65,0.075-9.298,0.027-13.946,0.025c-0.781-0.002-1.259-0.41-1.467-1.149
		c0.031-0.893,0.378-1.317,1.221-1.556c0.426-0.121,0.877-0.026,1.395-0.175c-0.227-0.481-0.464-0.935-0.628-1.414
		c-0.587-1.704-0.369-3.341,0.414-4.915c0.262-0.526,0.185-0.663-0.396-0.661c-2.494,0.019-4.991,0.013-7.487,0.004
		c-0.494,0-0.693,0.113-0.419,0.627c1.089,2.017,1.002,4.033-0.042,6.042c-0.035,0.067-0.063,0.141-0.062,0.22
		c0,0.024,0.011,0.049,0.028,0.13c0.515,0.106,1.063,0.008,1.599,0.077c1.104,0.142,1.543,0.585,1.603,1.627
		c-0.167,0.786-0.692,1.119-1.458,1.147c-0.362,0.016-0.728,0.011-1.092,0.011c-11.117,0.001-22.232,0.001-33.348,0.001
		c-0.313,0-0.626,0.012-0.938,0.002c-0.601-0.021-0.933,0.202-0.908,0.859c0.024,0.665,0.141,0.79,0.93,0.816
		c0.312,0.012,0.624,0.005,0.937,0.005c17.39,0,34.778-0.001,52.167,0.001c0.521,0,1.043-0.021,1.56,0.03
		c0.646,0.11,1.249,0.289,1.495,1.002c0,0.313,0,0.625,0,0.939c-0.201,0.652-0.691,0.863-1.32,0.868
		c-0.287,0.004-0.573,0.009-0.861,0.009c-18.431,0-36.861,0-55.292,0c-0.234,0-0.469,0.004-0.703-0.005
		c-1.042-0.031-1.344-0.263-1.689-1.275c-0.148-1.911-0.031-3.828-0.067-5.741c-0.007-0.388,0.002-0.778-0.001-1.166
		c-0.007-1.176-0.025-1.191-1.235-1.194c-0.286-0.001-0.57,0.005-0.854-0.017c-0.699,0.033-1.399,0.003-2.098,0.017
		c-0.864,0.015-0.938,0.076-0.943,0.931c-0.012,2.021-0.003,4.042-0.003,6.063c0,0.414,0.001,0.828-0.052,1.243
		c-0.289,0.821-0.708,1.136-1.444,1.091c-0.686-0.041-1.033-0.42-1.295-1.397c-0.098-1.584,0-3.167-0.052-4.752
		c-0.035-1.004,0.438-2.296-0.206-2.939c-0.674-0.676-1.979-0.166-3.006-0.235c-0.335-0.022-0.674-0.01-1.011-0.002
		c-0.808,0.021-0.892,0.09-0.897,0.902c-0.014,2.053-0.006,4.105-0.005,6.158c0,0.415-0.003,0.83-0.059,1.243
		c-0.176,0.717-0.677,1.024-1.371,1.044c-1.43,0.038-2.86,0.019-4.291,0.011c-0.615-0.004-1.048-0.256-1.247-0.855
		c0-0.313,0-0.625,0-0.938c0.224-0.661,0.766-0.867,1.378-0.976c0.698-0.066,1.396-0.045,2.092-0.032
		c0.648,0.01,0.678-0.386,0.68-0.867c0.002-0.489-0.046-0.875-0.685-0.867c-0.8,0.011-1.603,0.025-2.403-0.02
		c-0.554-0.021-0.875-0.34-1.062-0.832c0-0.312,0-0.623,0-0.938c0.231-0.676,0.792-0.876,1.417-0.982
		c0.647-0.063,1.296-0.039,1.944-0.035c0.501,0.004,0.774-0.168,0.774-0.715c-0.001-1.864-0.002-3.73,0.001-5.596
		c0.001-0.546-0.271-0.72-0.773-0.716c-0.752,0.004-1.504,0.026-2.253-0.026c-0.641-0.028-0.938-0.439-1.109-0.991
		c0-0.262,0-0.52,0-0.78c0.198-0.687,0.744-0.892,1.368-0.989c0.697-0.044,1.396-0.032,2.093-0.02
		c0.64,0.014,0.694-0.368,0.689-0.859c-0.004-0.479-0.029-0.881-0.675-0.875c-0.801,0.01-1.604,0.026-2.404-0.021
		C2.948,59.137,2.668,58.725,2.5,58.19c0-0.262,0-0.521,0-0.781c0.223-0.754,0.823-0.949,1.505-0.983
		c0.753-0.037,1.509-0.021,2.263-0.01c0.462,0.007,0.721-0.177,0.835-0.634c0.292-1.183,0.894-2.216,1.649-3.156
		c0.379-0.471,0.55-0.944,0.457-1.578c-0.183-1.219,0.125-2.388,0.648-3.479c0.276-0.577,0.323-1.123,0.189-1.735
		c-0.518-2.337-1.028-4.676-1.517-7.019c-0.196-0.928,0.077-1.446,0.96-1.871c1.019-0.043,1.541,0.353,1.771,1.438
		c0.348,1.625,0.714,3.246,1.059,4.871c0.26,1.231,0.218,1.39,1.385,0.766c0.25-0.134,0.533-0.204,0.817-0.253
		c0.458-0.099,0.919-0.163,1.39-0.169c0.782-0.013,0.83-0.085,0.649-0.896c-0.417-1.852-0.796-3.713-1.204-5.566
		c-1.184-5.384-2.322-10.779-3.509-16.163c-0.206-0.941-0.209-0.953-1.123-0.749c-0.898,0.2-1.794,0.312-2.703,0.088
		c-0.517-0.127-0.669,0.047-0.536,0.56c0.142,0.553,0.221,1.122,0.359,1.679c0.705,3.245,1.409,6.489,2.107,9.735
		c0.227,1.053-0.005,1.485-1.021,1.958c-1.044,0.011-1.446-0.302-1.698-1.419c-0.565-2.512-1.105-5.03-1.645-7.547
		c-0.461-2.163-0.95-4.318-1.396-6.483c-0.063-0.309-0.137-0.614-0.335-0.865c-0.775-0.981-1.243-2.083-1.357-3.333
		c0-0.729,0-1.458,0-2.187c0.253-0.2,0.202-0.517,0.279-0.777c1.382-4.586,6.999-6.284,10.652-3.198
		c0.345,0.291,0.672,0.408,1.114,0.405c4.764-0.014,9.53,0,14.295-0.015c0.979-0.003,1.817,0.201,2.268,1.167
		c0.134,0.284,0.356,0.255,0.589,0.255c2.578,0,5.157-0.005,7.734,0.006c0.319,0.001,0.512-0.121,0.726-0.346
		c2.197-2.324,5.668-2.413,7.864-0.215c2.2,2.202,2.116,5.661-0.213,7.862c-0.259,0.242-0.347,0.472-0.343,0.805
		c0.014,1.249,0.02,2.5-0.004,3.75c-0.005,0.377,0.125,0.621,0.399,0.863c1.255,1.098,2.494,2.21,3.732,3.326
		c0.737,0.663,0.822,1.046,0.421,1.916c-0.989,2.145-1.98,4.287-2.981,6.425c-0.386,0.822-1.018,1.119-1.676,0.815
		c-0.668-0.311-0.845-0.967-0.459-1.805c0.837-1.816,1.669-3.632,2.535-5.433c0.177-0.368,0.164-0.577-0.152-0.85
		c-1.063-0.918-2.106-1.86-3.14-2.814c-0.235-0.216-0.483-0.233-0.768-0.276c-1.932-0.279-3.552,0.192-4.818,1.769
		c-0.514,0.64-1.591,1.004-1.699,1.729c-0.1,0.667,0.556,1.452,0.891,2.182c0.575,1.248,1.168,2.49,1.738,3.741
		c0.354,0.777,0.176,1.431-0.445,1.739c-0.66,0.329-1.291,0.048-1.678-0.777c-1.014-2.161-2.001-4.335-3.032-6.488
		c-0.35-0.726-0.238-1.273,0.36-1.797c1.272-1.115,2.514-2.266,3.787-3.381c0.319-0.279,0.468-0.562,0.458-0.997
		c-0.032-1.17-0.009-2.343-0.012-3.514c-0.002-0.78-0.882-1.687-1.645-1.688c-2.5-0.004-5,0.003-7.5-0.007
		c-0.336,0-0.552,0.053-0.732,0.404c-0.36,0.705-0.991,1.026-1.792,1.018c-0.99-0.012-1.98-0.012-2.969,0
		c-0.694,0.009-1.142-0.284-1.312-0.968c-0.25-0.884,0.074-1.321,1.193-1.604c0.616-0.058,1.233-0.01,1.851-0.036
		c0.293-0.012,0.615-0.039,0.618-0.422c0.009-1.203,0.167-2.41-0.098-3.602c-0.22-0.263-0.522-0.201-0.802-0.2
		c-3.669,0.004-7.338-0.022-11.007,0.018c-0.874,0.01-0.9,0.05-0.787,0.877c0.117,0.854,0.155,1.72-0.011,2.564
		c-0.125,0.628,0.104,0.8,0.676,0.775c0.44-0.021,0.884-0.021,1.326,0.007c0.827-0.011,1.655-0.026,2.481,0.01
		c0.538,0.023,1.024,0.194,1.338,0.663C21.902,16.517,22.089,16.773,21.837,17.059z"/>
	<path fill="#FEDF7D" d="M33.092,45.236c0.855-0.188,1.175-0.733,1.141-1.589c-0.035-0.829,0.014-1.661,0.027-2.492
		c0.243-0.137,0.51-0.071,0.764-0.071c5.096-0.004,10.193-0.003,15.289-0.003c0.916,0,1.024,0.069,1.025,0.938
		c0.019,4.575,0.015,9.15,0.005,13.729c-0.002,0.312-0.02,0.626-0.254,0.877c-1.56,0.015-3.117,0.036-4.678,0.039
		c-3.85,0.006-7.697-0.008-11.547,0.012c-0.497,0.003-0.663-0.108-0.655-0.637c0.031-2.08,0.016-4.161,0.01-6.24
		c-0.002-0.978-0.269-1.291-1.217-1.482C33.207,47.293,33.057,46.263,33.092,45.236z"/>
	<path fill="#8DB9C4" d="M26.091,15.834c-0.738,0.179-1.174,0.597-1.118,1.407c-0.713-0.341-1.472-0.092-2.207-0.16
		c-0.308-0.029-0.619-0.017-0.929-0.022c-0.238-0.922-0.542-1.177-1.447-1.195c-0.806-0.017-1.612-0.023-2.419-0.034
		c-0.225-0.279-0.15-0.599-0.091-0.898c0.183-0.931,0.177-1.854,0.017-2.79c-0.141-0.829-0.052-0.904,0.762-0.904
		c2.264-0.002,4.526-0.002,6.788,0.001c0.23,0,0.47-0.051,0.688,0.07c0.196,0.237,0.2,0.523,0.204,0.806
		c0.013,0.95,0.011,1.901,0.001,2.852C26.336,15.276,26.325,15.588,26.091,15.834z"/>
	<path fill="#FEDF7C" d="M81.375,41.042c-0.034,0.256-0.092,0.512-0.092,0.767c-0.004,4.937-0.002,9.873,0,14.813
		c-0.417,0.015-0.83,0.039-1.248,0.039c-4.815,0.003-9.629-0.006-14.446,0.012c-0.523,0.003-0.713-0.109-0.711-0.678
		c0.021-4.765,0.02-9.529,0.002-14.293c-0.004-0.547,0.145-0.707,0.695-0.697c1.689,0.035,3.385,0.034,5.075,0
		c0.527-0.01,0.656,0.156,0.644,0.661c-0.029,1.483-0.013,2.966-0.01,4.452c0.004,1.216,0.384,1.601,1.573,1.604
		c1.382,0.004,2.76,0.01,4.141-0.002c1-0.006,1.423-0.425,1.429-1.426c0.01-1.562,0.021-3.124-0.009-4.685
		c-0.01-0.493,0.139-0.627,0.617-0.6C79.812,41.054,80.594,41.035,81.375,41.042z"/>
	<path fill="#A69AA6" d="M81.572,73.376c-0.44,0.306-0.259,0.77-0.286,1.174c-0.024,0.326-0.024,0.654-0.035,0.98
		c-0.257,0.021-0.514,0.061-0.77,0.061c-18.124,0.003-36.25,0.003-54.374-0.006c-0.298,0-0.797,0.219-0.867-0.237
		c-0.09-0.6-0.185-1.255,0.069-1.834c0.1-0.23,0.481-0.104,0.734-0.104c5.338-0.005,10.677-0.004,16.015-0.004
		c6.432,0,12.862,0.001,19.294-0.001c1.12-0.001,1.363-0.178,1.64-1.148c1.024-0.393,2.051-0.388,3.079-0.002
		c0.141,0.784,0.598,1.157,1.403,1.154C72.177,73.39,76.875,73.384,81.572,73.376z"/>
	<path fill="#A69AA6" d="M81.568,58.988c-0.46,0.32-0.242,0.802-0.28,1.221c-0.03,0.311-0.022,0.622-0.03,0.933
		c-0.283,0.019-0.567,0.05-0.852,0.05c-18.1,0.002-36.198,0.003-54.294-0.008c-0.299,0-0.798,0.223-0.872-0.224
		c-0.097-0.6-0.14-1.239,0.054-1.845c0.021-0.065,0.224-0.094,0.345-0.103c0.208-0.019,0.416-0.006,0.624-0.006
		c17.968,0,35.935,0,53.901,0C80.634,59.005,81.103,58.993,81.568,58.988z"/>
	<path fill="#EDF4F5" d="M9.363,57.688c-0.028-0.371,0.017-0.725,0.186-1.06c0.38-0.109,0.644,0.134,0.923,0.315
		c2.669,1.719,5.484,2.113,8.489,0.97c1.193-0.455,1.717-0.089,1.736,1.213c0.031,2.004,0.023,4.008,0.002,6.012
		c-0.01,0.865-0.1,0.936-0.939,0.936c-3.253,0.002-6.507,0-9.761,0.002c-0.36,0-0.72,0.086-0.712-0.514
		c0.028-2.575,0.002-5.154,0.019-7.729C9.308,57.783,9.34,57.735,9.363,57.688z"/>
	<path fill="#908190" d="M66.074,72.253c-1.028,0-2.055,0.002-3.079,0.002c-0.106-0.859-0.647-1.192-1.454-1.198
		c-0.69-0.003-1.383,0-2.189,0c1.619-2.531,1.655-4.972-0.005-7.464c3.252,0,6.42,0,9.674,0c-1.618,2.468-1.631,4.931-0.039,7.382
		C67.918,71.284,66.426,70.487,66.074,72.253z"/>
	<path fill="#DDEBF0" d="M7.668,22.562c-0.204-0.854-0.409-1.708-0.641-2.673c1.179,0.275,2.292,0.426,3.428,0.189
		c0.445-0.093,0.973-0.524,1.298-0.244c0.286,0.247,0.267,0.858,0.365,1.312c1.63,7.531,3.254,15.061,4.903,22.688
		c-0.861-0.062-1.681-0.043-2.491,0.111c-0.415-0.744-0.444-1.594-0.619-2.397c-1.278-5.87-2.545-11.74-3.813-17.611
		c-0.23-1.066-0.308-1.13-1.389-1.155C8.35,22.774,7.974,22.836,7.668,22.562z"/>
	<path fill="#908190" d="M49.527,71.029c-3.207,0-6.325,0-9.441,0c-0.094-0.268,0.104-0.406,0.199-0.578
		c1.165-2.107,1.187-4.221-0.037-6.304c-0.306-0.522-0.253-0.628,0.347-0.623c2.786,0.02,5.572,0.006,8.36,0.01
		c0.314,0.002,0.77-0.122,0.398,0.497c-1.345,2.242-1.302,4.482,0.075,6.702C49.468,70.795,49.477,70.871,49.527,71.029z"/>
	<path fill="#EDF4F5" d="M7.668,22.562c2.286-0.001,2.331-0.012,2.819,2.204c1.217,5.525,2.389,11.059,3.583,16.59
		c0.185,0.857,0.489,1.693,0.459,2.588c-0.411,0.152-0.83,0.288-1.229,0.463c-0.879,0.387-0.877,0.396-1.083-0.578
		c-0.389-1.818-0.77-3.639-1.163-5.456c-0.214-0.994-0.52-1.243-1.525-1.29c-0.21-0.995-0.421-1.99-0.632-2.985
		c0.915-0.493,1.04-0.77,0.82-1.812C9.034,29.046,8.352,25.804,7.668,22.562z"/>
	<path fill="#FDCF63" d="M51.091,56.623c0-4.812,0-9.622,0-14.436c0-1.03,0-1.03-1.068-1.03c-5.254-0.001-10.508-0.002-15.761-0.002
		c0.156-0.28,0.42-0.132,0.625-0.132c6.17-0.008,12.342,0.006,18.512-0.021c0.646-0.002,0.764,0.208,0.76,0.792
		c-0.022,4.713-0.022,9.427,0.002,14.139c0.002,0.571-0.126,0.792-0.729,0.743C52.652,56.61,51.87,56.637,51.091,56.623z"/>
	<path fill="#DDEBF0" d="M9.363,57.688c0.007,2.498,0.034,4.998,0.005,7.498c-0.008,0.652,0.186,0.834,0.834,0.827
		c3.149-0.032,6.301-0.033,9.451,0c0.653,0.007,0.842-0.187,0.83-0.834c-0.038-2.082-0.006-4.166-0.019-6.248
		c-0.006-0.99-0.356-1.24-1.259-0.871c-3.315,1.354-6.383,0.873-9.245-1.21c-0.125-0.09-0.273-0.148-0.411-0.221
		c0.098-0.659,0.43-1.212,0.737-1.784c0.237-0.438,0.381-0.479,0.748-0.064c2.047,2.318,5.076,2.975,7.786,1.742
		c0.524-0.238,1.011-0.537,1.449-0.904c0.438-0.367,0.846-0.765,1.287-1.168c0.701,0.896,1.2,1.973,1.236,3.152
		c0.081,2.705,0.047,5.411,0.073,8.117c0.003,0.344-0.118,0.438-0.45,0.437c-4.241-0.008-8.482-0.002-12.724-0.002
		c-0.205,0-0.444,0.031-0.438-0.288C9.315,63.142,9.113,60.41,9.363,57.688z"/>
	<path fill="#EDF4F5" d="M14.85,76.781c-1.599,0-3.196,0.006-4.794-0.006c-0.324-0.002-0.615,0.016-0.809,0.314
		c0.003-2.652,0.02-5.309-0.002-7.963c-0.004-0.516,0.136-0.657,0.65-0.646c1.483,0.034,2.967,0.015,4.451,0.012
		c0.285,0,0.557-0.063,0.551,0.404C14.864,71.527,14.861,74.153,14.85,76.781z"/>
	<path fill="#7BA0B0" d="M6.835,17.116c-1.472-0.902-2.257-2.675-1.924-4.346c0.364-1.812,1.746-3.203,3.458-3.484
		c1.859-0.305,3.558,0.467,4.445,2.021c0.266,0.554,0.152,1.112,0.023,1.672c-0.493,2.149-2.311,3.885-4.476,4.268
		C7.842,17.339,7.329,17.327,6.835,17.116z"/>
	<path fill="#8DB9C4" d="M12.939,53.357c-1.665-1.659-1.587-4.371,0.175-6.044c1.755-1.664,4.514-1.556,6.106,0.247
		c0.183,0.301,0.216,0.632,0.183,0.974c-0.256,2.625-2.691,4.917-5.33,5.02C13.681,53.567,13.295,53.554,12.939,53.357z"/>
	<path fill="#796D78" d="M72.449,70.714c-1.477-0.535-2.388-2.004-2.289-3.694c0.09-1.551,1.29-2.974,2.831-3.35
		c1.737-0.426,3.479,0.386,4.221,1.972C78.128,68.01,74.61,71.359,72.449,70.714z"/>
	<path fill="#796D78" d="M52.953,70.696c-1.562-0.651-2.396-2.173-2.176-3.979c0.189-1.555,1.52-2.841,3.233-3.123
		c1.536-0.254,3.1,0.602,3.806,2.084C58.678,68.008,55.254,71.391,52.953,70.696z"/>
	<path fill="#796D78" d="M33.563,70.704c-1.467-0.592-2.458-2.226-2.264-3.73c0.247-1.898,1.567-3.188,3.499-3.418
		c1.467-0.174,3.069,0.821,3.649,2.267c0.294,1.526-0.444,2.697-1.458,3.651C36.067,70.347,34.972,71.044,33.563,70.704z"/>
	<path fill="#908190" d="M30.214,63.532c-1.647,2.534-1.679,4.976-0.021,7.521c-1.615,0-3.11-0.002-4.603,0.001
		c-0.314,0-0.394-0.174-0.393-0.449c0.003-2.21,0.004-4.423-0.002-6.635c-0.002-0.419,0.253-0.44,0.566-0.44
		C27.192,63.536,28.622,63.532,30.214,63.532z"/>
	<path fill="#EDF4F5" d="M20.47,76.777c-0.818,0.001-1.635,0.014-2.453-0.002c-0.322-0.006-0.609,0.019-0.801,0.314
		c0.003-2.642,0.024-5.284-0.001-7.927c-0.006-0.55,0.147-0.713,0.688-0.68c0.852,0.051,1.708,0.029,2.563,0.04
		c0.264,0.267,0.246,0.613,0.248,0.945c0.009,2.12,0.008,4.237,0,6.358C20.716,76.161,20.719,76.505,20.47,76.777z"/>
	<path fill="#908190" d="M3.743,70.991c-0.014-2.189-0.027-4.38-0.042-6.568c-0.001-0.328,0.083-0.684-0.269-0.907
		c0.957,0.007,1.915,0.026,2.872,0.013c0.401-0.006,0.618,0.063,0.613,0.542c-0.02,2.151-0.012,4.301-0.006,6.452
		c0.001,0.327-0.048,0.555-0.458,0.534C5.552,71.014,4.643,71.129,3.743,70.991z"/>
	<path fill="#DDEBF0" d="M20.47,76.777c0-2.752-0.002-5.503-0.002-8.254c0.773-0.026,1.741-0.322,2.259,0.104
		c0.447,0.366,0.124,1.363,0.126,2.081c0.005,2.023-0.02,4.048-0.031,6.071C22.037,76.778,21.254,76.778,20.47,76.777z"/>
	<path fill="#7BA0B0" d="M12.939,53.357c1.496,0.083,2.906-0.195,4.11-1.127c1.521-1.173,2.215-2.757,2.171-4.671
		c1.657,1.752,1.53,4.506-0.28,6.122C17.174,55.259,14.465,55.114,12.939,53.357z"/>
	<path fill="#8DB9C4" d="M41.877,15.531c-1.114-1.34-1.035-3.083,0.193-4.242c1.198-1.133,2.95-1.13,4.187,0.009
		c0.406,0.79,0.002,1.465-0.342,2.122c-0.207,0.394-0.491,0.293-0.697-0.06c-0.1-0.149-0.177-0.318-0.306-0.445
		c-0.424-0.418-1.076-0.412-1.45,0.008c-0.379,0.425-0.294,0.919,0.189,1.352c0.24,0.217,0.659,0.203,0.76,0.594
		C43.781,15.661,42.82,15.912,41.877,15.531z"/>
	<path fill="#7BA0B0" d="M26.078,11.321c-2.466-0.002-4.932,0-7.397-0.009c-0.437-0.002-0.752-0.028-0.577,0.613
		c0.354,1.303,0.131,2.61-0.134,3.905c-0.822,0-1.645,0-2.519,0c0.436-1.455,0.499-2.855,0.082-4.268
		c-0.183-0.623,0.349-0.376,0.564-0.377c3.403-0.018,6.806-0.027,10.207-0.001c0.862,0.007,1.736-0.172,2.585,0.127
		C27.954,11.698,27.017,11.683,26.078,11.321z"/>
	<path fill="#7BA0B0" d="M26.078,11.321c0.937-0.003,1.875-0.006,2.812-0.009c0.019,1.368,0.029,2.739,0.058,4.107
		c0.007,0.337-0.12,0.457-0.452,0.447c-0.8-0.023-1.604-0.023-2.405-0.033C26.087,14.33,26.083,12.825,26.078,11.321z"/>
	<path fill="#908190" d="M81.568,63.514c-0.323,0.203-0.271,0.525-0.271,0.833c0,1.943,0.004,3.886-0.002,5.83
		c-0.002,0.28-0.045,0.563-0.067,0.845c-0.775,0-1.553,0-2.433,0c1.612-2.492,1.629-4.958-0.073-7.508
		C79.771,63.514,80.671,63.514,81.568,63.514z"/>
	<path fill="#FDCE63" d="M73.627,43.19c0-0.13,0-0.259,0-0.388c0-2.023,0-2.016,2.065-1.792c0.303,0.032,0.398,0.129,0.395,0.42
		c-0.009,1.192-0.007,2.385,0,3.578c0.002,0.253-0.063,0.4-0.346,0.373c-0.049-0.005-0.103-0.001-0.154,0.001
		C73.627,45.472,73.627,45.472,73.627,43.19z"/>
	<path fill="#7BA0B0" d="M41.877,15.531c0.924,0.024,1.833-0.01,2.495-0.802c0.407-0.459,0.726-0.973,0.955-1.543
		c0.16,0.295,0.313,0.584,0.516,0.025c0.226-0.621,0.478-1.232,0.414-1.913c1.318,1.231,1.359,3.169,0.095,4.424
		C45.064,16.999,43.107,16.916,41.877,15.531z"/>
	<path fill="#668C97" d="M6.835,17.116c2.532,0.102,4.38-0.953,5.482-3.252c0.384-0.803,0.512-1.669,0.498-2.556
		c1.095,1.677,0.826,3.882-0.647,5.321C10.692,18.067,8.482,18.271,6.835,17.116z"/>
	<path fill="#ECF2F3" d="M36.404,14.419c-1.532,0.01-3.065,0.008-4.597,0.04c-0.41,0.007-0.574-0.122-0.517-0.531
		c0.056-0.403-0.104-0.825,0.09-1.22c1.556-0.148,3.118-0.02,4.676-0.066c0.368-0.011,0.521,0.192,0.558,0.511
		C36.663,13.593,36.73,14.04,36.404,14.419z"/>
	<path fill="#A599A5" d="M3.741,61.142c-0.007-0.467-0.029-0.935-0.019-1.401c0.006-0.299-0.019-0.568-0.291-0.752
		c0.981,0.005,1.963,0.026,2.942,0.009c0.396-0.007,0.528,0.118,0.548,0.526C7,61.193,7.015,61.197,5.364,61.19
		C4.822,61.188,4.282,61.159,3.741,61.142z"/>
	<path fill="#A599A5" d="M3.749,75.529c-0.012-0.478-0.041-0.955-0.026-1.433c0.009-0.297-0.047-0.542-0.295-0.721
		c0.98,0.01,1.959,0.032,2.939,0.021c0.385-0.004,0.537,0.102,0.556,0.52c0.079,1.677,0.095,1.685-1.556,1.672
		C4.827,75.585,4.283,75.664,3.749,75.529z"/>
	<path fill="#675D67" d="M72.449,70.714c2.677-0.131,4.96-2.439,4.763-5.072c0.768,1.416,0.518,3.098-0.615,4.296
		C75.64,70.952,73.733,71.424,72.449,70.714z"/>
	<path fill="#675D67" d="M52.953,70.696c2.677-0.048,4.993-2.292,4.863-5.018c0.738,1.48,0.474,3.131-0.69,4.295
		C56.036,71.063,54.348,71.356,52.953,70.696z"/>
	<path fill="#675D67" d="M33.563,70.704c2.738-0.138,4.646-2.044,4.885-4.882c0.666,1.424,0.378,3.015-0.746,4.138
		C36.582,71.079,34.989,71.365,33.563,70.704z"/>
	<path fill="#ECF2F3" d="M45.128,20.446c0,0.181-0.025,0.368,0.004,0.543c0.129,0.758-0.13,0.993-0.937,0.989
		c-0.792-0.003-1.05-0.208-0.941-0.978c0.061-0.406,0.05-0.831,0.002-1.241c-0.067-0.635,0.061-0.898,0.808-0.82
		c1.057,0.111,1.064,0.041,1.064,1.117C45.128,20.188,45.128,20.317,45.128,20.446z"/>
	<path fill="#DCE9EE" d="M36.404,14.419c0.004-1.696,0.004-1.694-1.701-1.696c-1.108-0.002-2.215-0.011-3.324-0.016
		c0.182-0.229,0.435-0.116,0.651-0.117c2.025-0.008,4.051,0.016,6.075-0.014c0.537-0.008,0.704,0.108,0.667,0.678
		c-0.078,1.192-0.04,1.197-1.28,1.193C37.129,14.448,36.768,14.43,36.404,14.419z"/>
	<path fill="#010100" d="M44.225,54.306c-0.805,0-1.611,0.019-2.415-0.005c-0.712-0.02-1.159-0.443-1.196-1.073
		c-0.04-0.671,0.394-1.225,1.114-1.243c1.638-0.039,3.276-0.035,4.91,0c0.665,0.014,1.141,0.561,1.143,1.161
		c0,0.641-0.497,1.134-1.215,1.155C45.786,54.324,45.006,54.306,44.225,54.306z"/>
	<path fill="#010100" d="M74.85,54.307c-0.779,0-1.56,0.016-2.339-0.005c-0.731-0.021-1.225-0.484-1.243-1.125
		c-0.019-0.638,0.467-1.183,1.182-1.197c1.612-0.03,3.224-0.032,4.835,0.001c0.727,0.018,1.18,0.554,1.154,1.214
		c-0.023,0.65-0.5,1.093-1.249,1.109C76.411,54.322,75.63,54.308,74.85,54.307z"/>
	<path fill="#010202" d="M9.27,12.386c0.627,0.049,1.086,0.577,1.051,1.214c-0.034,0.653-0.622,1.168-1.258,1.102
		c-0.608-0.064-1.105-0.637-1.069-1.232C8.031,12.822,8.606,12.335,9.27,12.386z"/>
	<path fill="#020202" d="M16.083,51.623c-0.647,0.008-1.203-0.549-1.189-1.188c0.014-0.609,0.545-1.138,1.157-1.146
		c0.654-0.01,1.182,0.527,1.17,1.191C17.208,51.111,16.709,51.615,16.083,51.623z"/>
	<path fill="#010101" d="M75.039,67.339c-0.009,0.618-0.521,1.141-1.125,1.146c-0.636,0.006-1.162-0.546-1.144-1.204
		c0.016-0.657,0.478-1.123,1.125-1.126C74.569,66.151,75.055,66.649,75.039,67.339z"/>
	<path fill="#010101" d="M54.456,68.487c-0.642-0.011-1.181-0.59-1.151-1.232c0.026-0.607,0.566-1.104,1.193-1.102
		c0.622,0.005,1.132,0.515,1.136,1.143C55.638,67.953,55.098,68.501,54.456,68.487z"/>
	<path fill="#010101" d="M35.064,66.155c0.654,0.009,1.195,0.565,1.168,1.207c-0.026,0.609-0.57,1.129-1.177,1.125
		c-0.648-0.004-1.172-0.557-1.154-1.218C33.917,66.646,34.439,66.146,35.064,66.155z"/>
	<path fill="#020202" d="M45.327,13.186c0.089,0.765-0.223,1.285-0.955,1.543c-0.992-0.148-1.503-0.683-1.33-1.417
		c0.114-0.49,0.41-0.83,0.934-0.913C44.633,12.293,45.055,12.618,45.327,13.186z"/>
</g>
</svg>
