<?xml version="1.0" encoding="utf-8"?>
<!-- Generator: Adobe Illustrator 16.0.2, SVG Export Plug-In . SVG Version: 6.00 Build 0)  -->
<!DOCTYPE svg PUBLIC "-//W3C//DTD SVG 1.1 Tiny//EN" "http://www.w3.org/Graphics/SVG/1.1/DTD/svg11-tiny.dtd">
<svg version="1.1" baseProfile="tiny" id="Layer_1" xmlns="http://www.w3.org/2000/svg" xmlns:xlink="http://www.w3.org/1999/xlink"
	 x="0px" y="0px" width="85px" height="85px" viewBox="0 0 85 85" xml:space="preserve">
<g>
	<path fill-rule="evenodd" d="M5.264,82.463c-0.305,0.008-0.608,0.022-0.913,0.022c-1.785,0.002-1.813,0-1.712-1.749
		c0.273-4.773,1.285-9.32,4.317-13.184c3.834-4.884,8.876-7.431,15.081-7.662c0.457-0.017,0.742-0.019,0.76-0.627
		c0.024-0.755,0.34-1.461,0.875-2.016c0.345-0.355,0.218-0.484-0.137-0.709c-3.038-1.92-4.995-4.64-5.904-8.11
		c-0.083-0.32-0.136-0.503-0.549-0.538c-2.532-0.223-4.351-1.654-4.962-3.845c-0.632-2.265,0.19-4.428,2.256-5.94
		c0.085-0.063,0.16-0.138,0.272-0.234c-2.104-1.939-2.864-4.356-2.736-7.126c0.058-1.24,0.532-2.202,1.644-2.772
		c1.114-0.572,2.216-0.456,3.185,0.326c0.432,0.348,0.675,0.286,1.026-0.078c1.02-1.056,2.067-2.085,3.108-3.12
		c5.425-5.391,13.99-4.986,18.877,0.899c0.226,0.272,0.5,0.599,0.529,0.92c0.077,0.845,0.512,1.023,1.293,1.151
		c2.975,0.49,4.897,2.846,4.922,5.876c0.01,1.136,0.018,2.271-0.006,3.407c-0.01,0.422,0.103,0.683,0.466,0.951
		c1.877,1.377,2.628,3.651,1.979,5.811c-0.646,2.152-2.5,3.604-4.846,3.779c-0.32,0.023-0.523,0.025-0.629,0.442
		c-0.953,3.789-3.157,6.646-6.593,8.622c0.75,0.646,1.623,1.166,2.159,1.922c0.641,0.904,1.423,1.07,2.411,1.223
		c8.317,1.263,14.646,7.304,16.344,15.531c0.426,2.063,0.67,4.149,0.696,6.261c0.005,0.461-0.105,0.632-0.587,0.599
		c-0.689-0.046-1.383-0.025-2.074-0.033c-0.308-0.32-0.217-0.726-0.237-1.104c-0.166-3.145-0.606-6.23-1.959-9.114
		c-1.163-2.478-2.858-4.53-5.06-6.161c-0.109-0.081-0.221-0.171-0.388-0.131c-0.2,0.264-0.108,0.577-0.112,0.868
		c-0.01,1.553,0.013,3.103-0.01,4.652c-0.023,1.617-0.971,2.255-2.476,1.678c-1.033-0.399-2.065-0.801-3.082-1.236
		c-0.523-0.225-0.818-0.156-0.961,0.446c-0.715,3.018-1.378,6.043-1.456,9.164c-0.008,0.328,0.033,0.671-0.235,0.938
		c-0.877,0.004-1.754,0.008-2.632,0.013c-0.454-0.811-0.22-1.667-0.156-2.507c0.391-5.141,1.967-10.045,3.015-15.055
		c0.124-0.595,0.298-1.179,0.357-1.772c-0.141-0.125-0.231-0.027-0.282,0.054c-1.684,2.679-3.728,5.095-5.594,7.639
		c-0.407,0.555-0.504,1.004-0.197,1.658c0.7,1.49,0.398,2.913-0.514,4.239c-0.974,1.415-1.987,2.801-2.962,4.217
		c-0.846,1.226-0.969,1.236-2.228,0.363c-1.162-0.914-1.17-0.919-0.325-2.113c0.911-1.288,1.815-2.581,2.73-3.865
		c0.87-1.22,0.766-1.693-0.503-2.446c-2.238-1.325-4.528-2.562-6.757-3.902c-0.529-0.319-0.873-0.276-1.244,0.252
		c-2.254,3.221-4.499,6.445-6.759,9.66c-0.08,0.112-0.154,0.229-0.232,0.343c-1.143,1.673-1.256,1.689-2.871,0.46
		c-0.645-0.49-0.693-0.765-0.211-1.457c1.153-1.658,2.315-3.313,3.472-4.969c0.073-0.105,0.163-0.201,0.225-0.351
		c-0.35,0.037-0.611,0.201-0.894,0.299c-1.24,0.424-2.191-0.191-2.227-1.502c-0.046-1.659-0.009-3.321-0.015-4.981
		c-0.001-0.274,0.024-0.551-0.043-0.877c-0.345,0.011-0.544,0.256-0.769,0.43c-3.761,2.899-5.702,6.82-6.391,11.438
		c-0.191,1.285-0.353,2.573-0.357,3.878C5.479,81.906,5.519,82.224,5.264,82.463z"/>
	<path fill-rule="evenodd" d="M64.726,33.272c-2.345,0.132-5.001-0.1-7.524-1.187c-0.258-0.111-0.484-0.037-0.727,0.003
		c-2.236,0.37-4.477,0.728-6.712,1.111c-1.48,0.253-2.223-0.583-1.751-2.025c0.55-1.68,1.099-3.359,1.684-5.026
		c0.133-0.379,0.104-0.668-0.072-1.014c-4.758-9.398,0.486-20.356,10.835-22.138c4.432-0.763,9.003-0.845,13.277,1.198
		c6.072,2.903,9.475,9.388,8.49,16.185c-0.923,6.377-6.231,11.706-12.659,12.711C68.081,33.322,66.586,33.283,64.726,33.272z"/>
	<path fill-rule="evenodd" fill="#396794" d="M5.264,82.463c0.026-3.572,0.462-7.067,1.998-10.343
		c1.224-2.612,3.038-4.742,5.384-6.417c0.151-0.107,0.319-0.193,0.605-0.363c0,1.872,0.083,3.635-0.021,5.384
		c-0.132,2.247,0.749,3.034,2.876,1.951c0.142-0.07,0.302-0.105,0.682-0.238c-1.06,1.521-1.992,2.861-2.928,4.201
		c-0.459,0.657-0.913,1.322-1.393,1.964c-0.259,0.348-0.192,0.543,0.148,0.8c1.684,1.278,1.669,1.284,2.89-0.465
		c2.344-3.36,4.707-6.708,7.033-10.081c0.333-0.481,0.578-0.503,1.056-0.222c2.436,1.423,4.895,2.81,7.339,4.22
		c1.04,0.601,1.206,1.276,0.528,2.259c-1.036,1.505-2.066,3.016-3.175,4.466c-0.479,0.628-0.548,1.013,0.225,1.357
		c0.089,0.039,0.143,0.158,0.213,0.241c0.104,0.689-0.39,0.986-0.854,1.303C20.335,82.476,12.8,82.469,5.264,82.463z"/>
	<path fill-rule="evenodd" fill="#396794" d="M39.842,82.463c-0.043-3.6,0.728-7.078,1.548-10.553
		c0.125-0.527,0.325-0.575,0.787-0.378c1.194,0.514,2.402,0.989,3.611,1.461c1.203,0.47,2.029-0.096,2.037-1.398
		c0.014-2.045,0.004-4.088,0.004-6.278c1.522,0.93,2.71,2.056,3.771,3.319c2.552,3.038,3.643,6.646,4.047,10.515
		c0.115,1.102,0.181,2.205,0.171,3.313C50.491,82.463,45.166,82.463,39.842,82.463z"/>
	<path fill-rule="evenodd" fill="#C3D3DF" d="M27.872,82.479c0.276-0.438,0.679-0.796,0.854-1.303
		c1.251,0.652,1.251,0.652,2.103-0.553c0.925-1.31,1.842-2.625,2.777-3.928c1.073-1.492,1.26-3.053,0.283-4.643
		c-0.28-0.455-0.014-0.658,0.184-0.925c1.687-2.259,3.382-4.514,5.077-6.768c0.299-0.397,0.598-0.799,0.757-1.276
		c0.107-0.32,0.246-0.563,0.642-0.411c0.433,0.166,0.139,0.486,0.093,0.686c-0.886,3.932-1.823,7.853-2.691,11.789
		c-0.531,2.408-0.795,4.854-0.741,7.327C34.098,82.478,30.984,82.479,27.872,82.479z"/>
	<path fill-rule="evenodd" fill="#F3CDAE" d="M23.76,39.774c3.838-0.322,7.203-1.808,10.182-4.198
		c0.428-0.344,0.661-0.399,1.051,0.027c0.748,0.815,1.551,1.579,2.339,2.357c0.926,0.916,2.019,1.533,3.298,1.805
		c0.266,0.057,0.57,0.036,0.552,0.452c-0.107,2.536,0.298,5.103-0.338,7.607c-0.809,3.186-2.734,5.498-5.651,6.996
		c-0.384,0.195-0.717,0.245-1.157,0.05c-1.704-0.758-3.545-0.284-4.708,1.14c-0.52,0.638-1.084,0.675-1.547-0.015
		c-0.325-0.482-0.762-0.688-1.24-0.902c-4.225-1.887-6.43-5.159-6.627-9.765c-0.068-1.604,0.006-3.212-0.023-4.817
		c-0.009-0.473,0.131-0.627,0.6-0.593c0.467,0.035,0.939-0.007,1.409-0.015c0.444,0.178,0.045,0.34-0.032,0.456
		c-0.731,1.095-0.42,1.828,0.871,2.017c0.76,0.111,0.771,0.14,0.322,0.819c-0.376,0.569-0.331,1.191,0.138,1.56
		c0.445,0.349,0.921,0.349,1.371,0.008c0.477-0.359,0.528-0.975,0.158-1.554c-0.456-0.713-0.456-0.713,0.39-0.838
		c0.795-0.118,1.193-0.491,1.188-1.116c-0.006-0.655-0.469-1.054-1.286-1.108C24.028,40.082,24.028,40.082,23.76,39.774z"/>
	<path fill-rule="evenodd" fill="#AC7D4D" d="M43.839,35.21c0,0.055,0,0.11,0,0.166c0,1.972,0,1.975-1.963,1.885
		c-1.042-0.047-1.927-0.458-2.663-1.192c-1.138-1.134-2.271-2.272-3.411-3.406c-0.977-0.972-1.532-0.973-2.535-0.022
		c-3.891,3.691-8.598,5.02-13.823,4.572c-2.945-0.252-5.229-2.795-4.855-6.491c0.043-0.427,0.279-0.539,0.614-0.251
		c1.586,1.366,3.393,0.826,4.688-0.585c1.197-1.304,2.428-2.604,3.801-3.713c4.237-3.425,10.296-2.776,13.875,1.375
		c0.282,0.328,0.289,0.545-0.019,0.832c-0.404,0.377-0.793,0.773-1.174,1.175c-0.632,0.668-0.675,1.432-0.129,1.99
		c0.548,0.561,1.4,0.594,1.975-0.102c0.992-1.202,2.218-0.942,3.405-0.633c1.23,0.32,1.946,1.258,2.158,2.495
		c0.107,0.618,0.019,1.27,0.019,1.906C43.814,35.21,43.827,35.21,43.839,35.21z"/>
	<path fill-rule="evenodd" fill="#F3CDAE" d="M26.585,58.573c0.467,0.038,0.841,0.391,1.252,0.661
		c1.494,0.985,1.903,0.91,2.879-0.553c1.283-1.918,1.637-1.974,3.4-0.52c0.917,0.759,1.836,1.515,2.738,2.288
		c0.825,0.709,0.91,1.307,0.281,2.155c-1.749,2.352-3.523,4.686-5.267,7.042c-0.269,0.363-0.463,0.422-0.863,0.188
		c-2.001-1.173-4.015-2.326-6.042-3.454c-0.434-0.241-0.456-0.428-0.181-0.807c0.455-0.625,0.83-1.309,1.301-1.92
		c0.547-0.711,0.562-1.393,0.122-2.146c-0.263-0.453-0.5-0.927-0.69-1.413C25.225,59.351,25.757,58.576,26.585,58.573z"/>
	<path fill-rule="evenodd" fill="#010000" d="M23.76,39.774c0.358,0.306,0.783,0.13,1.175,0.146c0.996,0.04,1.584,0.493,1.61,1.296
		c0.027,0.83-0.578,1.346-1.61,1.372c-0.138,0.004-0.275,0.001-0.538,0.001c0.411,0.371,0.761,0.678,0.811,1.165
		c0.049,0.479-0.114,0.875-0.476,1.181c-0.54,0.457-1.318,0.405-1.802-0.106c-0.588-0.621-0.463-1.397,0.352-2.141
		c-0.077-0.169-0.235-0.098-0.347-0.092c-0.723,0.034-1.34-0.143-1.609-0.888c-0.252-0.698,0.005-1.238,0.622-1.624
		c0.018-0.011,0.041-0.046,0.035-0.058c-0.022-0.043-0.055-0.081-0.083-0.121C22.508,39.696,23.154,40.018,23.76,39.774z"/>
	<path fill-rule="evenodd" fill="#265079" d="M15.912,66.755c0-0.777,0.019-1.553-0.008-2.325c-0.015-0.431,0.146-0.63,0.553-0.779
		c1.198-0.445,1.195-0.468,1.491,0.789c0.291,1.237,0.558,2.478,0.867,3.71c0.089,0.355,0.07,0.567-0.311,0.706
		c-0.727,0.267-1.445,0.555-2.157,0.858c-0.346,0.147-0.44,0.037-0.437-0.304C15.918,68.525,15.912,67.64,15.912,66.755z"/>
	<path fill-rule="evenodd" fill="#265079" d="M45.169,69.865c-0.956-0.374-1.823-0.712-2.688-1.053
		c-0.299-0.119-0.296-0.331-0.229-0.609c0.359-1.476,0.726-2.948,1.026-4.435c0.1-0.492,0.297-0.472,0.667-0.363
		c1.223,0.361,1.225,0.354,1.225,1.625C45.169,66.605,45.169,68.181,45.169,69.865z"/>
	<path fill-rule="evenodd" fill="#F1C093" d="M17.241,42.592c0,0.717-0.031,1.437,0.011,2.152c0.029,0.507-0.178,0.54-0.584,0.447
		c-1.208-0.281-2.103-1.405-2.084-2.65c0.019-1.205,0.922-2.294,2.092-2.562c0.421-0.096,0.602-0.027,0.576,0.459
		C17.212,41.155,17.241,41.875,17.241,42.592z"/>
	<path fill-rule="evenodd" fill="#F0C093" d="M43.839,42.557c0-0.718,0.021-1.437-0.008-2.153c-0.018-0.427,0.134-0.514,0.527-0.437
		c1.189,0.233,2.134,1.371,2.138,2.609c0.004,1.245-0.917,2.365-2.116,2.626c-0.471,0.104-0.565-0.064-0.549-0.492
		C43.859,43.994,43.839,43.275,43.839,42.557z"/>
	<path fill-rule="evenodd" fill="#C2D1DD" d="M22.763,63.756c-0.515,0.805-1.03,1.606-1.644,2.563
		c-0.278-1.214-0.505-2.246-0.754-3.272c-0.078-0.32,0.038-0.403,0.326-0.364C22.097,62.524,22.54,62.753,22.763,63.756z"/>
	<path fill-rule="evenodd" fill="#A4AFB9" d="M22.763,63.756c-0.45-0.822-1.145-1.172-2.072-1.074
		c0.918-0.282,1.852-0.068,2.961-0.181C23.288,63.017,23.025,63.387,22.763,63.756z"/>
	<path fill-rule="evenodd" fill="#EDDB99" d="M51.125,30.262c0.456-1.365,0.856-2.646,1.318-3.906
		c0.26-0.708,0.191-1.304-0.187-1.963c-4.938-8.597,1.068-19.005,10.994-19.032c2.398-0.007,4.811-0.218,7.182,0.441
		c5.809,1.615,9.712,7.064,9.291,13.036c-0.421,5.984-4.933,10.911-10.88,11.613c-3.042,0.358-6.21,0.675-9.132-0.388
		c-2.152-0.783-4.125-0.614-6.212-0.188C52.75,30.029,51.987,30.124,51.125,30.262z"/>
	<path fill-rule="evenodd" fill="#010000" d="M36.686,42.584c-0.374,0-0.622,0.019-0.868-0.003
		c-0.773-0.067-1.299-0.632-1.283-1.354c0.018-0.725,0.549-1.264,1.343-1.291c0.882-0.028,1.767-0.031,2.648,0.002
		c0.785,0.028,1.315,0.589,1.318,1.314c0.003,0.723-0.527,1.267-1.309,1.33c-0.241,0.02-0.485,0.003-0.771,0.003
		c0.878,0.93,0.973,1.713,0.317,2.311c-0.54,0.493-1.366,0.458-1.862-0.076C35.643,44.195,35.77,43.426,36.686,42.584z"/>
	<path fill-rule="evenodd" fill="#010000" d="M30.652,41.263c0.517,0.037,0.951,0.346,1.15,0.922c0.46,1.33,0.916,2.664,1.331,4.005
		c0.226,0.729-0.174,1.424-0.868,1.652c-0.649,0.214-1.355-0.085-1.614-0.792c-0.502-1.371-0.978-2.758-1.392-4.158
		C29.011,42.054,29.698,41.255,30.652,41.263z"/>
	<path fill-rule="evenodd" fill="#010000" d="M30.552,50.575c0.469,0,0.94-0.031,1.405,0.006c0.727,0.061,1.233,0.62,1.237,1.308
		c0.005,0.686-0.5,1.286-1.221,1.319c-0.962,0.046-1.931,0.05-2.893-0.002c-0.717-0.037-1.212-0.654-1.195-1.343
		c0.018-0.689,0.529-1.211,1.261-1.288c0.055-0.006,0.11-0.006,0.165-0.006c0.414,0,0.827,0,1.241,0
		C30.552,50.571,30.552,50.573,30.552,50.575z"/>
	<path fill-rule="evenodd" d="M71.135,13.145c0.003,1.826-0.589,3.218-1.699,4.394c-0.514,0.543-1.06,1.056-1.576,1.595
		c-0.877,0.916-1.333,2.017-1.407,3.281c-0.057,0.999-0.555,1.563-1.356,1.548c-0.837-0.015-1.344-0.645-1.295-1.675
		c0.09-1.865,0.763-3.499,2.027-4.875c0.542-0.591,1.136-1.136,1.685-1.722c1.318-1.406,1.294-3.467-0.044-4.774
		c-1.335-1.305-3.401-1.274-4.772,0.074c-0.217,0.214-0.437,0.428-0.627,0.664c-0.39,0.484-0.379,0.989,0.072,1.41
		c0.418,0.391,0.905,0.385,1.352,0.014c0.298-0.247,0.549-0.553,0.859-0.781c0.568-0.418,1.156-0.366,1.662,0.105
		c0.478,0.444,0.575,1,0.261,1.588c-1.289,2.414-4.752,2.721-6.376,0.554c-0.891-1.189-1.077-2.534-0.361-3.826
		c1.017-1.833,3.127-3.659,6.185-3.391c2.287,0.201,4.381,1.855,5.127,4.133C71.049,12.073,71.153,12.697,71.135,13.145z"/>
	<path fill-rule="evenodd" fill="#020202" d="M65.079,27.954c-0.716-0.021-1.296-0.627-1.286-1.344
		c0.01-0.75,0.657-1.353,1.403-1.307c0.716,0.044,1.28,0.67,1.247,1.383C66.41,27.401,65.792,27.976,65.079,27.954z"/>
</g>
</svg>
