<?xml version="1.0" encoding="utf-8"?>
<!-- Generator: Adobe Illustrator 16.0.0, SVG Export Plug-In . SVG Version: 6.00 Build 0)  -->
<!DOCTYPE svg PUBLIC "-//W3C//DTD SVG 1.1//EN" "http://www.w3.org/Graphics/SVG/1.1/DTD/svg11.dtd">
<svg version="1.1" id="Layer_1" xmlns="http://www.w3.org/2000/svg" xmlns:xlink="http://www.w3.org/1999/xlink" x="0px" y="0px"
	 width="85px" height="85px" viewBox="0 0 85 85" enable-background="new 0 0 85 85" xml:space="preserve">
<g>
	<path fill="#E75025" d="M23.543,26.414l-0.352-1.543l24.836-5.664l5.557,3.286l8.047-12.219l1.322,0.87l-8.875,13.479l-6.312-3.733
		L23.543,26.414z"/>
	<path fill="#E75025" d="M60.066,10.745l5.309-4.719l-2.236,6.742L60.066,10.745z"/>
	<path fill="#F3C899" d="M65.982,27.925l-0.064,2.344c-1.488-0.017-2.975-0.075-4.465-0.078l0.062-2.271l-0.383-0.184
		c-0.645-0.368-1.115-0.962-1.273-1.663c-0.041-0.185-0.346-2.548-0.361-2.657v-0.002l1.145,0.062l0.068-2.577
		c2.434-0.032,4.105,0.092,6.33,0.243l0.162,2.936C67.289,26.284,66.898,27.181,65.982,27.925z"/>
	<path fill="#F3C899" d="M61.988,23.512c-0.004,0.499-0.447,0.958-0.947,0.954l-0.166-0.001c-0.24-0.002-0.469-0.101-0.637-0.271
		s-0.26-0.4-0.258-0.641l0.561-8.34c0.006-0.465,0.387-0.839,0.852-0.835l0.117-0.002c0.438,0.004,0.785,0.359,0.781,0.795l0,0
		L61.988,23.512z"/>
	<path fill="#FED2A1" d="M63.758,22.247c0,0.241-0.088,0.474-0.242,0.646c-0.156,0.171-0.367,0.267-0.588,0.266h-0.148
		c-0.449-0.003-0.809-0.4-0.809-0.894l-0.004-2.305c0-0.227,0.082-0.443,0.229-0.604s0.344-0.25,0.549-0.248l0.309,0.002
		c0.391,0.002,0.703,0.35,0.703,0.779L63.758,22.247L63.758,22.247z"/>
	<path fill="#FED2A1" d="M65.5,22.464c-0.006,0.499-0.379,0.9-0.832,0.897l-0.15-0.001c-0.221-0.001-0.426-0.097-0.578-0.268
		s-0.236-0.4-0.232-0.641l0.023-1.826c0.006-0.465,0.354-0.842,0.777-0.838l0.311,0.002c0.189,0.001,0.371,0.085,0.504,0.232
		c0.133,0.148,0.205,0.351,0.203,0.559L65.5,22.464L65.5,22.464z"/>
	<path fill="#FED2A1" d="M67.025,22.455c-0.004,0.383-0.324,0.69-0.719,0.688l-0.131-0.001c-0.393-0.003-0.707-0.316-0.703-0.699
		l0.016-1.402c0.004-0.357,0.305-0.646,0.672-0.643l0.27,0.002c0.342,0.003,0.615,0.275,0.613,0.609L67.025,22.455L67.025,22.455z
		 M62.408,22.956l-0.631,0.689c-0.104,0.113-0.152,0.269-0.131,0.42l0.047,0.312c0,0,2.574,0.56,2.193,3.369l2.096,0.177
		l0.266,2.345c-1.621-0.009-3.238-0.079-4.859-0.079l0.09-1.326l0.039-0.943l-0.385-0.184c-0.643-0.366-1.113-0.962-1.271-1.663
		c-0.043-0.185-0.348-2.548-0.363-2.656v-0.003c0.002-0.159,0.062-0.312,0.17-0.428l1.018-1.103l0.686-0.741
		c0.213-0.234,0.578-0.252,0.812-0.041l0.141,0.127c0.242,0.216,0.387,0.521,0.402,0.844C62.74,22.399,62.629,22.717,62.408,22.956
		L62.408,22.956z"/>
	<path fill="#065C6B" d="M65.303,46.572c-0.395,1.085-12.676,5.729-15.555,6.806c-0.373,0.144-0.594,0.229-0.602,0.229
		c-0.088,0.017-0.223,0.017-0.389,0.008c-0.547-0.039-1.416-0.188-2.041-0.236c-0.459-0.039-0.91-0.104-1.361-0.197
		c-1.646-0.341-3.236-1.092-4.779-2.413c-0.055-0.665-0.016-1.337,0.127-1.986c0.094-0.411,0.229-0.822,0.396-1.202
		c0-0.009,0.006-0.023,0.016-0.031c0.309-0.738,0.76-1.408,1.328-1.971c0.373-0.389,0.641-1.448,0.895-1.661
		c0.604-0.499,15.002-3.165,15.002-3.182l0.049,0.04l4.93,4.138l0.695,0.586L65.303,46.572L65.303,46.572z"/>
	<path fill="#EDEDED" d="M66.758,31.889l-6.008-0.526l0.213-3.375l6.1,0.436L66.758,31.889z"/>
	<path fill="#065C6B" d="M67.219,30.265c-0.047,0.499-0.104,1.045-0.158,1.623c-0.355,3.837-0.84,9.068-1.281,12.295
		c-0.135,0.981-0.15,1.733-0.477,2.39l-1.336-0.861l-0.482-0.316l-2.871-2.437l-2.279-1.924c0.016-0.078,0.031-0.165,0.055-0.261
		c0.072-0.412,0.176-0.91,0.293-1.464c0.643-3.046,1.678-7.09,1.844-9.369C63.285,30.099,65.352,30.036,67.219,30.265L67.219,30.265
		z"/>
	<path fill="#FFFFFF" d="M65.939,30.999c0.254,0.093,0.383,0.372,0.291,0.625s-0.371,0.383-0.625,0.292s-0.387-0.369-0.295-0.623
		c0.09-0.254,0.367-0.388,0.623-0.296C65.936,30.997,65.939,30.998,65.939,30.999z M65.84,32.696
		c0.254,0.094,0.385,0.373,0.291,0.625c-0.092,0.252-0.371,0.384-0.623,0.291c-0.254-0.091-0.385-0.371-0.293-0.624l0,0
		C65.309,32.735,65.588,32.605,65.84,32.696z M23.912,82.479h22.613c-0.389-4.514-0.908-36.637-0.908-36.637l-3.193-0.509
		l-9.605-1.545C32.816,43.79,23.848,78.393,23.912,82.479z"/>
	<path fill="#F3C899" d="M34.818,42.36l0.789-8.005c3.418,0.403,7.996,0.863,8.809,0.803c0,0-0.529,5.825-0.537,8.348
		C44.416,50.061,36.836,49.814,34.818,42.36z"/>
	<path fill="#065C6B" d="M32.816,43.79l-8.113,3.854c-0.232,2.585-0.371,5.198-0.604,8.004c-1.01,12.336-1.527,22.746-1.463,26.834
		h15.381c-0.172-16.052-0.699-31.299-4.773-38.623L32.816,43.79z M52.113,82.401l-5.99,0.078l-0.719-27.565l-0.049-1.733
		l-0.189-7.406l0.451,0.07l3.348,2.042l0.49,0.302c0.008,0.458,0.094,1.93,0.221,4.026c0.023,0.372,0.049,0.76,0.072,1.163
		c0.023,0.372,0.047,0.76,0.07,1.163c0.023,0.381,0.047,0.775,0.08,1.18c0.213,3.402,0.488,7.524,0.752,11.521v0.023
		c0.055,0.696,0.102,1.393,0.141,2.09c0.041,0.585,0.088,1.179,0.135,1.756C51.338,76.206,51.98,80.835,52.113,82.401L52.113,82.401
		z"/>
	<path fill="#E75025" d="M40.588,51.264l2.068-0.215l0.684-4.112l-3.471,0.133L40.588,51.264z"/>
	<path fill="#DBDADA" d="M41.873,46.973l2.852,3.271c0.436-1.987,1.006-3.622,0.779-4.83l-1.645-1.786
		C44.027,45.008,43.33,46.515,41.873,46.973z M41.873,46.973l-3.523,4.076c-2.406-2.361-4.904-4.985-5.533-7.26l2.086-2.288
		C34.9,43.551,39.148,47.084,41.873,46.973z"/>
	<path fill="#CF4827" d="M40.588,51.264l2.068-0.215l1.057,18.982l-2.107,3.314l-2.256-2.675L40.588,51.264z"/>
	<path fill="#077082" d="M37.646,67.683c-1.762-6.271-6.105-17.829-6.105-17.829s2.768-1.436,2.572-1.655l-3.037,0.107l0.547-3.949
		l2.787-2.316C36.609,49.301,37.828,59.667,37.646,67.683z M45.756,67.489c1.76-6.27,2.582-18.978,2.582-18.978
		s-2.609-0.963-2.416-1.182l2.203-0.27l-2.391-3.812l-1.969-0.521C44.51,49.973,45.572,59.473,45.756,67.489z"/>
	<g>
		<path fill="#FED2A1" d="M32.715,38.174c-1.002-1.375-1.158-2.046-1.627-3.704c-1.664-7.667,2.963-7.696,5.783-8.401
			c3.33-0.681,7.004,0.767,8.447,5.784c-0.043,0.538-0.141,0.996-0.141,0.996l1.793,2.557c0.297,0.422,0.148,1.007-0.311,1.237
			l-0.678,0.381c0.111,0.515,0.723,2.686,0.723,2.686c0.275,1.3,0.221,3.445-1.535,3.72c-5.059,0.781-7.518-1.057-8.258-5.496
			C35.674,38.092,33.449,39.183,32.715,38.174z"/>
		<path fill="#3D3D3C" d="M34.412,41.396c4.178,0.077,1.057-5.321,1.057-5.321s1.363,0.901,1.91,1.314
			c0.832-0.219,0.941-0.132,1.684-0.38c-0.988-5.062-3.156-8.554,4.348-8.835c1.344-0.594-1.098-4.814-7.521-2.826
			c-3.75,1.161-6.416,3.912-5.967,7.812C30.205,35.609,30.846,38.797,34.412,41.396L34.412,41.396z"/>
		<path fill="#FED2A1" d="M34.617,36.373c0.303,1.189,1.656,2.31,2.436,2.111c0.779-0.197,0.59-1.215,0.299-2.407
			c-0.191-0.79-0.418-1.888-1.336-1.92C35.213,34.131,34.174,34.626,34.617,36.373L34.617,36.373z"/>
	</g>
	<path fill="#065C6B" d="M55.018,13.185c0.012-1.798-1.33-2.771-2.631-3.715c-0.086-0.062-0.168-0.124-0.252-0.186l0.027-4.266
		c0.865,0.191,1.062,0.887,1.059,1.484l-0.002,0.234l1.814,0.012l0.002-0.109c0.014-2.104-1.445-2.745-2.865-2.872l0.008-1.26
		l-1.146-0.009l-0.008,1.263c-1.408,0.119-2.846,0.752-2.857,2.833c-0.012,1.798,1.33,2.771,2.629,3.714
		c0.062,0.045,0.123,0.09,0.186,0.136l-0.027,4.294c-0.881-0.191-1.086-0.875-1.082-1.463l0.004-0.612l-1.814-0.012l-0.002,0.487
		c-0.016,2.096,1.451,2.74,2.889,2.871l-0.006,0.974l1.146,0.007l0.006-0.974C53.527,15.906,55.004,15.28,55.018,13.185
		L55.018,13.185z M50.119,6.482c0.004-0.552,0.186-1.18,0.895-1.415l-0.02,3.275C50.475,7.823,50.115,7.239,50.119,6.482z
		 M52.1,14.709l0.021-3.341c0.557,0.537,0.947,1.14,0.941,1.93C53.061,13.853,52.865,14.486,52.1,14.709z"/>
	<polygon fill="#00414C" points="23.096,57.409 22.648,82.501 48.842,82.501 32.797,80.558 27.867,69.162 30.312,55.911 	"/>
	<path fill="#00414C" d="M66.988,31.934l-1.381,13.25c0,0-0.119,1.499-1.459,2.209c-1.342,0.71-11.83,5.166-14.355,5.994
		l1.186,17.981L48.73,52.677l15.143-6.665L66.988,31.934z"/>
	<g>
		<path fill="#065C6B" d="M17.781,70.197c0.91-5.219,2.246-12.511,3.418-17.851c0.338-1.539,1.359-3.182,2.543-4.147
			c1.555-1.271,3.381-0.79,4.746,0.706c1.363,1.498,2.211,3.512,2.055,5.581c-0.146,1.928-3.848,13.979-4.275,15.292l4.994,12.702
			h-9.148C22.051,82.224,17.738,70.441,17.781,70.197z"/>
	</g>
</g>
</svg>
