<?xml version="1.0" encoding="utf-8"?>
<!-- Generator: Adobe Illustrator 16.0.0, SVG Export Plug-In . SVG Version: 6.00 Build 0)  -->
<!DOCTYPE svg PUBLIC "-//W3C//DTD SVG 1.1//EN" "http://www.w3.org/Graphics/SVG/1.1/DTD/svg11.dtd">
<svg version="1.1" id="Layer_1" xmlns="http://www.w3.org/2000/svg" xmlns:xlink="http://www.w3.org/1999/xlink" x="0px" y="0px"
	 width="85px" height="85px" viewBox="0 0 85 85" enable-background="new 0 0 85 85" xml:space="preserve">
<g>
	<path fill="#FDD2B4" d="M52.92,3.069H35.07c0.346,1.81,0.625,3.103,0.625,3.103L37.66,15.5l-0.656,3.518c0,0,0,2.617,0.738,4.664
		c0.736,2.046,1.881,7.282,1.881,7.282s-1.637,3.518-1.719,5.399c-0.082,1.883,0.166,4.745,0.166,4.745l0.898,5.563l0.736,3.765
		l0.41,6.136c0,0,1.062,5.811,0.246,7.692c-0.818,1.881-0.818,3.109-0.818,3.109l0.408,2.045l0.41,1.062l-0.41,2.21
		c0,0,0.246,1.146,0.41,1.801c0.164,0.653,0.816,3.026,0.816,3.026l1.229,0.408l3.6,0.165l3.191-0.409l1.309-0.492
		c0,0,0.818,0,0.246-0.816c-0.572-0.818-2.537-3.026-2.537-3.026l-1.799-3.274l-0.41-1.799c0,0-0.082-4.827,0.736-7.607
		c0.818-2.784,1.963-7.529,1.963-7.773c0-0.247,2.047-8.92,2.047-8.92s0.654-3.437,0.572-6.628c-0.082-3.19-0.49-5.891-0.49-5.891
		l-1.475-4.338c0,0,1.064-2.291,0.982-5.645c-0.082-3.355-0.246-5.155-0.246-5.155s1.557-4.501,2.373-9.409
		C52.676,5.663,52.82,4.345,52.92,3.069L52.92,3.069z"/>
	<path fill="#EEBD9C" d="M35.953,3.069c0.402,2.076,0.867,4.143,1.359,6.2c0.176,0.739,0.355,1.479,0.533,2.218
		c0.5-2.775,0.672-5.596,0.807-8.418H35.953L35.953,3.069z M46.607,18.768c0.43-0.061,0.854,0.211,1.088,0.575
		c0.232,0.365,0.311,0.807,0.354,1.238c0.125,1.27-0.021,2.594-0.623,3.719c-0.6,1.124-1.697,2.021-2.965,2.184
		c0.746-0.046,1.49-0.069,2.236-0.075c0.414,1.289-0.254,2.651-0.904,3.841c0.656-0.518,1.164-1.196,1.475-1.973
		c0.176-0.439,0.289-0.917,0.586-1.285c0.295-0.367,0.857-0.587,1.248-0.319c0.275,0.188,0.371,0.547,0.447,0.873
		c0.178,0.761,0.354,1.521,0.531,2.279c-0.229-0.815-0.461-1.652-0.387-2.495c0.055-0.621,0.271-1.214,0.443-1.813
		c0.826-2.884,0.592-5.976-0.021-8.913c-0.326,1.544-2.191,2.552-3.66,1.979L46.607,18.768L46.607,18.768z M44.07,20.623
		c-0.693,0.79-1.387,1.577-2.08,2.367c-0.285,0.324-0.59,0.719-0.506,1.142c0.049,0.248,0.225,0.448,0.398,0.63
		c0.719,0.742,1.539,1.377,2.439,1.884c-0.672-0.378-1.912-0.594-2.539-0.021c-0.895,0.82-0.209,2.791-0.107,3.794
		c0.332,3.271,0.416,6.611-0.33,9.838c-0.084-4.309-0.572-8.598-1.463-12.812c-0.684-3.241-1.607-6.546-1.098-9.82
		c0.186,1.482,0.512,2.945,0.975,4.367c0.062,0.188,0.137,0.39,0.297,0.5c0.225,0.151,0.521,0.084,0.781,0.013
		c1.266-0.354,2.693-0.849,3.186-2.065L44.07,20.623L44.07,20.623z M40.021,32.629c0.383,2.326,0.766,4.65,1.15,6.979
		c0.672,4.082,1.348,8.263,0.619,12.336c-0.004-2.45-0.406-4.884-1.189-7.205c-0.059-0.169-0.143-0.359-0.316-0.4
		c-0.279-0.062-0.443,0.304-0.484,0.586c-0.174,1.145-0.252,2.301-0.234,3.458c-1.506-5.373-0.738-11.104,0.32-16.582
		c-0.006,0.655,0.1,1.306,0.309,1.927L40.021,32.629z M49.848,33.093c0.82,9.761-1.783,19.446-4.256,28.923
		c-0.301,1.147-0.6,2.312-0.6,3.495c0.002,1.187,0.338,2.417,1.158,3.271c-0.811-10.507,5.279-20.479,5.316-31.019
		c0.01-2.819-0.418-5.624-1.266-8.313c0.016,1.175,0.031,2.35,0.049,3.522L49.848,33.093L49.848,33.093z"/>
	<path fill="#EEBD9C" d="M41.295,72.396c0.105,0.789,0.268,1.595,0.691,2.27c0.424,0.676,1.164,1.2,1.959,1.172
		c-1.057-0.068-2.086,0.79-2.211,1.841c-0.471-1.469-0.941-2.937-1.412-4.404c-0.182-0.563-0.365-1.151-0.293-1.741
		c0.066-0.554,0.354-1.061,0.428-1.613c0.096-0.711-0.166-1.421-0.197-2.14c-0.039-0.925,0.311-1.814,0.506-2.718
		c0.74-3.396-0.658-6.921-0.342-10.385c0.531,2.412,1.066,4.829,1.865,7.164c0.213,0.616,0.477,1.271,1.033,1.608
		s1.469,0.116,1.564-0.527c-0.238,1.611-0.539,3.102,0.162,4.683c0.184,0.413,0.438,0.834,0.365,1.279
		c-0.582-0.447-1.35-0.646-2.074-0.533C41.16,68.686,41.062,70.627,41.295,72.396L41.295,72.396z M49.602,75.321
		c0.141,0.117,0.273,0.258,0.32,0.435c0.07,0.264-0.068,0.547-0.281,0.718s-0.48,0.251-0.746,0.315
		c-1.15,0.281-2.342,0.364-3.521,0.243c-0.104-0.011-0.213-0.022-0.316-0.003c-0.105,0.021-0.201,0.073-0.295,0.125
		c-0.34,0.191-0.682,0.382-1.023,0.572c2.191,0.041,4.434,0.075,6.518-0.609c0.279-0.091,0.604-0.259,0.611-0.552
		c0.008-0.202-0.143-0.371-0.283-0.516c-0.559-0.566-1.133-1.117-1.723-1.651L49.602,75.321L49.602,75.321z"/>
	<path fill="#FEE3CE" d="M45.303,69.541c1.174,1.407,2.092,3.01,2.715,4.733c-0.832,0.135-1.635,0.451-2.334,0.918
		c-0.27,0.178-0.545,0.387-0.865,0.387c-0.412,0-0.764-0.346-1.174-0.355c-0.135-0.004-0.273,0.028-0.396-0.024
		c-0.102-0.04-0.174-0.131-0.238-0.218c-0.549-0.739-0.943-1.58-1.164-2.474c-0.098-0.396-0.158-0.812-0.086-1.212
		c0.076-0.409,0.289-0.783,0.561-1.102c0.447-0.52,1.076-0.902,1.758-0.959c0.682-0.055,1.404,0.257,1.756,0.846L45.303,69.541
		L45.303,69.541z M40.867,3.069c-0.443,5.245-0.205,10.586,0.463,15.807c1.904-1.58,3.809-3.16,5.715-4.74
		c0.859-0.711,1.734-1.441,2.32-2.393c0.621-1.014,0.873-2.205,1.086-3.373c0.318-1.758,0.557-3.526,0.75-5.301H40.867L40.867,3.069
		z M46.576,19.331c0.613-0.042,0.975,0.7,0.982,1.314c0.02,1.575-1.08,2.914-2.121,4.095c-0.186,0.21-0.391,0.434-0.664,0.481
		c-0.205,0.036-0.416-0.033-0.611-0.111c-0.449-0.183-0.877-0.416-1.273-0.696c-0.217-0.157-0.443-0.361-0.451-0.63
		c-0.008-0.348,0.34-0.574,0.611-0.79c0.729-0.583,1.094-1.495,1.582-2.288c0.49-0.795,1.271-1.56,2.203-1.494L46.576,19.331
		L46.576,19.331z M45.523,27.223c0.289-0.28,0.744-0.371,1.119-0.224c-0.182,0.823-0.605,1.596-1.201,2.188
		c-0.242,0.241-0.529,0.46-0.867,0.512c-0.789,0.122-1.385-0.672-1.785-1.363c-0.234-0.408-0.461-0.945-0.164-1.309
		c0.295-0.357,0.861-0.249,1.297-0.089c0.424,0.154,0.859,0.329,1.311,0.293s0.916-0.357,0.938-0.811L45.523,27.223z M45.334,59.858
		c-0.209,0.854-0.832,1.943-1.648,1.619c0.553-4.687,0.766-9.406,0.635-14.124c-0.021-0.783-0.07-1.618-0.535-2.25
		c-0.246,0.497-0.49,0.994-0.736,1.49c-0.527-5.283-0.436-10.609,0.271-15.871c-0.021,0.158,2.922-0.762,3.178-0.906
		c0.852-0.479,1.467-1.191,2.357-0.47c0.857,0.695,0.666,2.671,0.607,3.626c-0.166,2.729-0.219,5.478-0.486,8.203
		C48.355,47.502,46.846,53.698,45.334,59.858z"/>
	<g>
		<path fill="#AF7B6E" d="M52.74,3.069c-0.203,2.49-0.561,4.969-1.135,7.4c-0.387,1.636-0.859,3.249-1.42,4.833
			c-0.895,2.521-0.91,3.312-3.76,3.271c-0.092-0.001-0.09,0.141,0,0.144c0.664,0.024,2.062,0.155,2.666-0.236
			c0.91-0.589,1.623-3.76,1.932-4.681c1.154-3.458,1.768-7.104,2.068-10.729H52.74V3.069z M38.17,24.633
			c-1.43-2.553-1.387-5.227-0.83-8.021c0.844-4.219,0.598-8.549,1.092-12.812c0.012-0.093,0.146-0.099,0.15,0
			c0.076,3.431,0.004,7.059-0.395,10.471c-0.188,1.6-0.746,3.125-0.896,4.728c-0.188,1.978,0.281,3.777,0.922,5.617
			C38.225,24.641,38.186,24.656,38.17,24.633z"/>
		<path fill="#AF7B6E" d="M34.93,3.069c0.795,4.225,1.934,8.416,2.697,12.611c0.006,0.037,0.072,0.028,0.066-0.01
			c-0.557-4.239-1.65-8.408-2.451-12.602H34.93L34.93,3.069z M49.104,18.297c-0.33,3.18-0.584,6.63-3.98,8.084
			c-0.123,0.053-0.234-0.124-0.107-0.188c3.27-1.613,3.504-4.729,4.012-7.906C49.033,18.243,49.107,18.253,49.104,18.297z
			 M44.268,26.409c-0.855-0.268-1.674-0.393-2.301-1.092c-0.621-0.695-1.031-1.642-1.078-2.572
			c-0.002-0.038,0.061-0.048,0.066-0.011c0.197,0.946,0.492,1.87,1.18,2.586c0.59,0.613,1.387,0.744,2.146,1.039
			C44.311,26.373,44.299,26.42,44.268,26.409L44.268,26.409z M50.152,16.371c0.602,3.724,0.928,7.477-0.43,11.068
			c-0.105,0.283-0.564,0.166-0.461-0.127c1.307-3.705,0.717-7.098,0.648-10.909C49.908,16.27,50.129,16.232,50.152,16.371z
			 M40.334,70.83c-0.355-1.266-0.938-2.775-0.801-4.104c0.137-1.307,0.895-2.42,1.021-3.775c0.131-1.385-0.092-2.788-0.271-4.155
			c-0.629-4.731-1.062-9.567-0.525-14.33c0.012-0.087,0.141-0.091,0.139,0c-0.098,5.145,0.127,10,0.705,15.112
			c0.158,1.4,0.303,2.819,0.039,4.221c-0.309,1.642-1.045,2.519-0.783,4.366c0.125,0.879,0.398,1.757,0.52,2.655
			C40.381,70.846,40.342,70.859,40.334,70.83z"/>
		<path fill="#AF7B6E" d="M39.668,51.541c-0.881-6.681-3.752-14.468-0.068-20.812c0.078-0.134,0.27-0.018,0.203,0.119
			c-1.727,3.672-2.014,7.54-1.4,11.518c0.471,3.053,1.293,6.076,1.334,9.177C39.734,51.585,39.674,51.582,39.668,51.541z"/>
		<path fill="#AF7B6E" d="M40.262,33.324c-1.078-3.398-2.078-6.896-2.816-10.386c-0.031-0.148,0.184-0.209,0.227-0.062
			c1.061,3.407,1.889,6.947,2.605,10.444L40.262,33.324z M50.598,76.341c-2.254-2.146-4.16-4.604-4.691-7.764
			c-0.66-3.929,0.76-8.603,1.695-12.389c2.338-9.44,5.531-19.242,1.674-28.752c-0.098-0.237,0.312-0.411,0.414-0.175
			c3.193,7.434,1.797,15.558-0.125,23.134c-1.074,4.236-2.316,8.444-2.963,12.775c-0.375,2.506-0.627,4.95,0.273,7.372
			c0.809,2.175,2.293,3.979,3.861,5.656C50.824,76.294,50.689,76.429,50.598,76.341L50.598,76.341z M42.578,78.174
			c-1.318,0.369-1.645-0.648-1.85-1.752c-0.232-1.249-1.008-2.429-1.105-3.687c-0.088-1.14,0.576-2.229,0.674-3.364
			c0.014-0.147,0.256-0.21,0.281-0.037c0.076,0.508,0.066,0.793-0.066,1.302c-0.371,1.423-0.527,2.218,0.07,3.692
			c0.438,1.079,0.424,3.564,1.969,3.646C42.664,77.98,42.693,78.142,42.578,78.174z"/>
		<path fill="#AF7B6E" d="M50.787,76.148c1.006,0.823-0.443,1.49-1.148,1.658c-2.334,0.557-5.232,0.865-7.539,0.116
			c-0.182-0.061-0.152-0.333,0.045-0.336c1.295-0.02,2.584,0.199,3.887,0.178c0.281-0.005,5.176-0.274,4.488-1.409
			C50.414,76.181,50.646,76.032,50.787,76.148z"/>
		<path fill="#AF7B6E" d="M44.381,75.927c0.477,0.042,0.924,0.353,1.123,0.79c0.186,0.401,0.189,1.188-0.27,1.415
			c-0.092,0.046-0.246-0.006-0.23-0.133c0.047-0.377,0.281-0.643,0.191-1.053c-0.102-0.438-0.428-0.703-0.84-0.836
			C44.26,76.08,44.271,75.918,44.381,75.927z M42.191,76.388c-0.25,0.405-0.199,0.982-0.027,1.41
			c-0.145-0.02-0.291-0.037-0.436-0.058c0.07-0.136,0.146-0.227,0.289-0.288c0.07-0.033,0.17-0.012,0.189,0.075
			c0.039,0.171,0.008,0.295-0.068,0.453c-0.1,0.208-0.365,0.111-0.436-0.057c-0.254-0.606-0.023-1.156,0.449-1.567
			C42.172,76.341,42.205,76.361,42.191,76.388z M46.943,76.268c0.186,0.429,0.346,1.229,0.027,1.628
			c-0.039,0.051-0.133,0.022-0.145-0.037c-0.049-0.24,0.045-0.489,0.053-0.737c0.01-0.274-0.021-0.55-0.057-0.821
			C46.814,76.237,46.918,76.211,46.943,76.268L46.943,76.268z"/>
		<path fill="#AF7B6E" d="M46.908,76.364c-0.275-0.075-0.553-0.108-0.836-0.061c-0.23,0.041-0.43,0.172-0.656,0.213
			c-0.062,0.013-0.102-0.055-0.062-0.104c0.34-0.411,1.15-0.368,1.6-0.209C47.053,76.239,47.014,76.395,46.908,76.364z
			 M48.191,76.017c0.348,0.315,0.559,0.927,0.469,1.393c-0.055,0.295-0.533,0.469-0.549,0.08c-0.004-0.08,0.094-0.131,0.162-0.092
			c0.133,0.078,0.02-0.721,0.02-0.721c-0.055-0.204-0.141-0.398-0.213-0.596C48.057,76.016,48.146,75.976,48.191,76.017
			L48.191,76.017z"/>
		<path fill="#AF7B6E" d="M48.273,76.176c-0.16-0.029-0.322-0.062-0.488-0.064c-0.125-0.003-0.238,0.022-0.361-0.013
			c-0.053-0.014-0.061-0.086-0.016-0.114c0.252-0.152,0.67-0.05,0.922,0.06C48.412,76.077,48.352,76.189,48.273,76.176
			L48.273,76.176z M49.367,75.722c0.525,0.411,0.688,1.105,0.5,1.733c-0.031,0.104-0.16,0.199-0.271,0.152
			c-0.125-0.052-0.176-0.088-0.254-0.198c-0.039-0.054-0.039-0.148,0-0.203c0.012-0.018,0.021-0.031,0.033-0.047
			c0.031-0.045,0.094-0.084,0.15-0.062s0.135,0.072,0.188,0.085l-0.271,0.155c0.17-0.523,0.07-1.047-0.217-1.508
			C49.168,75.734,49.291,75.662,49.367,75.722L49.367,75.722z M44.902,64.249c-0.025,0.427-0.113,0.845-0.146,1.271
			c-0.035,0.428-0.002,0.863-0.057,1.287c-0.004,0.045-0.076,0.067-0.088,0.013c-0.148-0.77-0.025-1.842,0.244-2.577
			C44.865,64.218,44.904,64.22,44.902,64.249L44.902,64.249z"/>
		<path fill="#AF7B6E" d="M44.791,66.668c0.574,0.661,0.934,1.473,1.289,2.27c0.316,0.701,0.723,1.441,0.777,2.216
			c0.008,0.108-0.135,0.12-0.188,0.051c-0.504-0.683-0.729-1.589-1.076-2.357c-0.314-0.703-0.686-1.382-0.889-2.13
			C44.693,66.669,44.756,66.629,44.791,66.668L44.791,66.668z M41.83,46.514c-0.316-5.229-1.07-10.261-2.375-15.331
			c-0.066-0.262,0.342-0.373,0.404-0.111c1.195,5.042,1.9,10.263,2.01,15.442C41.869,46.539,41.832,46.539,41.83,46.514
			L41.83,46.514z M49.861,33.176c0.057-0.957,0.084-1.924-0.016-2.88s-0.482-1.878-0.504-2.834
			c-0.004-0.141,0.193-0.192,0.262-0.072c0.873,1.578,0.66,4.086,0.387,5.804C49.98,33.265,49.857,33.25,49.861,33.176z
			 M44.004,20.377c-0.541,0.68-1.07,1.238-1.818,1.703c-0.602,0.37-1.402,0.829-2.123,0.84c-0.117,0.004-0.166-0.166-0.061-0.223
			c0.65-0.349,1.389-0.482,2.037-0.864c0.68-0.399,1.379-0.933,1.906-1.517C43.982,20.275,44.037,20.336,44.004,20.377z
			 M45.953,29.645c0.324-0.286,0.572-0.617,0.834-0.959c0.082-0.105,0.58-0.81,0.494-0.595c-0.127,0.312-0.156,0.294-0.123-0.053
			c0.051-0.545,0.324-1.095,0.383-1.665c0.115-1.132,0.312-2.19,0.562-3.305c0.014-0.059,0.107-0.047,0.105,0.016
			c-0.051,1.034-0.303,2.053-0.4,3.087c-0.08,0.842-0.207,1.59-0.666,2.311c-0.064,0.101-0.246,0.037-0.201-0.083
			c0.064-0.182,0.133-0.361,0.197-0.543c0.047-0.125,0.246-0.073,0.203,0.058c-0.256,0.778-0.65,1.345-1.318,1.82
			C45.971,29.771,45.904,29.687,45.953,29.645L45.953,29.645z"/>
	</g>
	<path fill="#333333" d="M82.5,82.403h-80V2.597h80V82.403z M3.301,81.601h78.396V3.401H3.301V81.601L3.301,81.601z"/>
</g>
</svg>
