<?xml version="1.0" encoding="utf-8"?>
<!-- Generator: Adobe Illustrator 16.0.0, SVG Export Plug-In . SVG Version: 6.00 Build 0)  -->
<!DOCTYPE svg PUBLIC "-//W3C//DTD SVG 1.1//EN" "http://www.w3.org/Graphics/SVG/1.1/DTD/svg11.dtd">
<svg version="1.1" id="Layer_1" xmlns="http://www.w3.org/2000/svg" xmlns:xlink="http://www.w3.org/1999/xlink" x="0px" y="0px"
	 width="85px" height="85px" viewBox="0 0 85 85" enable-background="new 0 0 85 85" xml:space="preserve">
<g>
	<path fill="#FBB275" d="M37.101,49.89c-2.316-0.81-4.42-2.131-6.154-3.865c-3.062-3.064-4.783-7.221-4.783-11.554V16.359h32.676
		v18.111c0,4.333-1.723,8.49-4.783,11.554c-1.734,1.734-3.838,3.057-6.152,3.865h1.133v5.68c14.436,0,26.141,11.704,26.141,26.141
		H9.827c0-14.437,11.703-26.141,26.139-26.141v-5.68H37.101L37.101,49.89z M26.161,33.452c-0.389,0.089-0.787,0.134-1.188,0.134
		c-2.951,0-5.346-2.396-5.346-5.347s2.395-5.346,5.346-5.346c0.408,0,0.807,0.046,1.188,0.134V33.452z M58.837,33.452
		c0.393,0.089,0.791,0.134,1.191,0.134c2.949,0,5.344-2.396,5.344-5.347s-2.395-5.346-5.344-5.346c-0.41,0-0.811,0.046-1.191,0.134
		V33.452z"/>
	<path fill="#EF4B6C" d="M58.89,19.776c0-4.373-1.736-8.565-4.828-11.659c-3.096-3.09-7.287-4.83-11.658-4.83h-0.01
		c-4.373,0-8.566,1.738-11.658,4.83c-3.096,3.092-4.83,7.287-4.83,11.659v3.118c0,0,0.053-0.094,0.145-0.265
		c1.041-1.935,8.648,0.216,16.348,0.265c7.689,0.049,15.475-2.006,16.49-0.003L58.89,19.776L58.89,19.776z"/>
	<path fill="#51C9F1" d="M40.13,27.972H31.8v4.607c0,0.511,0.201,1.004,0.564,1.362c0.361,0.362,0.854,0.565,1.365,0.564H38.2
		c0.512,0,1.004-0.203,1.365-0.564c0.361-0.358,0.564-0.853,0.564-1.362V27.972L40.13,27.972z M53.202,27.972h-8.334v4.607
		c0,0.511,0.203,1.004,0.566,1.362c0.361,0.362,0.854,0.565,1.363,0.564h4.471c0.514,0,1.004-0.202,1.365-0.564
		c0.363-0.358,0.566-0.853,0.566-1.362v-4.607H53.202z"/>
	<path fill="#010101" d="M75.175,82.5H9.825c-0.438,0-0.789-0.354-0.789-0.79c0-4.729,1.246-9.383,3.604-13.464
		c0.219-0.378,0.701-0.508,1.078-0.289s0.508,0.7,0.289,1.079c-2.09,3.614-3.252,7.708-3.381,11.885h11.48v-5.745
		c0-0.438,0.354-0.79,0.789-0.79s0.789,0.354,0.789,0.79v5.745h37.631v-5.745c0-0.438,0.354-0.79,0.789-0.79
		c0.438,0,0.791,0.354,0.791,0.79v5.745h11.479c-0.131-4.177-1.293-8.271-3.383-11.885c-0.217-0.378-0.088-0.86,0.289-1.079
		s0.861-0.089,1.078,0.289c2.359,4.083,3.605,8.737,3.605,13.461C75.966,82.143,75.612,82.5,75.175,82.5z M68.642,65.205
		c-0.219,0-0.438-0.091-0.594-0.269c-0.346-0.394-0.711-0.781-1.084-1.151c-2.367-2.367-5.133-4.217-8.225-5.496
		c-3.09-1.28-6.354-1.931-9.697-1.931c-0.002,0-0.004,0-0.006,0c-0.438,0-0.791-0.354-0.791-0.789v-4.953
		c-1.818,0.646-3.756,0.982-5.744,0.982c-1.99,0-3.928-0.337-5.748-0.982v4.953c0,0.437-0.354,0.789-0.789,0.789h-0.006
		c-3.344,0-6.607,0.649-9.699,1.932c-3.09,1.279-5.855,3.129-8.219,5.493c-0.377,0.371-0.74,0.759-1.086,1.152
		c-0.289,0.328-0.787,0.36-1.115,0.073c-0.328-0.288-0.359-0.786-0.072-1.114c0.369-0.422,0.762-0.836,1.158-1.23
		c2.51-2.51,5.447-4.474,8.73-5.833c3.041-1.262,6.24-1.945,9.52-2.039v-4.827c-1.756-0.831-3.373-1.967-4.789-3.381
		c-1.596-1.601-2.844-3.47-3.709-5.559s-1.305-4.294-1.305-6.555v-0.108c-0.133,0.01-0.262,0.014-0.4,0.014
		c-3.381,0-6.135-2.752-6.135-6.136c0-3.383,2.754-6.135,6.137-6.135c0.047,0,0.096,0,0.143,0.001v-2.33
		c0-2.28,0.441-4.505,1.312-6.61c0.873-2.108,2.135-3.994,3.748-5.606C33.44,4.297,37.778,2.5,42.394,2.5
		c4.617,0,8.957,1.797,12.225,5.06c3.264,3.265,5.061,7.603,5.062,12.217l0,0v2.338c0.115-0.006,0.232-0.01,0.35-0.01
		c3.381,0,6.133,2.752,6.133,6.135c0,3.384-2.752,6.136-6.133,6.136c-0.002,0-0.004,0-0.006,0c-0.131,0-0.264-0.004-0.396-0.014
		v0.108c0,4.575-1.781,8.876-5.014,12.111c-1.414,1.415-3.031,2.551-4.787,3.382v4.827c3.281,0.095,6.479,0.778,9.52,2.038
		c3.283,1.359,6.223,3.323,8.734,5.837c0.396,0.395,0.785,0.808,1.154,1.228c0.287,0.327,0.256,0.825-0.07,1.114
		C69.013,65.14,68.827,65.205,68.642,65.205z M26.952,23.684v10.787c0,4.092,1.658,8.1,4.551,10.996
		c2.938,2.936,6.842,4.553,10.998,4.553c4.154,0,8.061-1.617,10.994-4.554c2.936-2.938,4.553-6.842,4.553-10.995V23.684H26.952
		L26.952,23.684z M59.626,32.779c0.133,0.013,0.266,0.019,0.398,0.019h0.002c2.514,0,4.557-2.044,4.557-4.558
		c0-2.512-2.043-4.556-4.555-4.556c-0.135,0-0.27,0.006-0.402,0.019V32.779z M24.974,23.684c-2.514,0-4.557,2.044-4.557,4.556
		c0,2.514,2.043,4.558,4.557,4.558c0.137,0.001,0.268-0.006,0.398-0.019v-9.077C25.239,23.689,25.108,23.684,24.974,23.684z
		 M27.282,22.104h30.232c-2.055-3.086-5.498-4.956-9.271-4.956H36.552C32.8,17.149,29.337,19.023,27.282,22.104z M42.401,4.078
		c-4.203,0-8.145,1.633-11.109,4.598c-2.965,2.962-4.598,6.904-4.598,11.101v0.472c2.389-2.933,5.99-4.679,9.857-4.679h11.691
		c2.35,0,4.652,0.65,6.656,1.88c1.221,0.75,2.301,1.696,3.199,2.797v-0.471c0-4.192-1.635-8.135-4.598-11.101
		C50.532,5.712,46.591,4.078,42.401,4.078z M51.274,35.297c-0.002,0-0.004,0-0.006,0H46.8c-0.002,0-0.002,0-0.004,0
		c-0.725,0-1.406-0.283-1.92-0.796c-0.504-0.499-0.797-1.2-0.797-1.921v-3.817h-3.16v3.817c0,0.72-0.289,1.421-0.797,1.924
		c-0.512,0.511-1.195,0.793-1.92,0.793c-0.002,0-0.002,0-0.004,0h-4.469c-0.002,0-0.002,0-0.004,0c-0.725,0-1.406-0.283-1.922-0.795
		c-0.504-0.501-0.795-1.202-0.795-1.922v-4.607c0-0.436,0.354-0.79,0.789-0.79H53.2c0.436,0,0.789,0.354,0.789,0.79v4.607
		c0,0.719-0.291,1.42-0.799,1.924C52.681,35.014,51.999,35.297,51.274,35.297z M46.798,33.718h4.473h0.002
		c0.305,0,0.592-0.118,0.807-0.333c0.213-0.211,0.334-0.504,0.334-0.805v-3.817h-6.754v3.817c0,0.302,0.121,0.594,0.332,0.801
		C46.208,33.599,46.493,33.718,46.798,33.718L46.798,33.718z M32.589,28.762v3.817c0,0.302,0.121,0.594,0.33,0.803
		c0.219,0.217,0.504,0.335,0.809,0.335h0.002H38.2c0.002,0,0.002,0,0.002,0c0.305,0,0.592-0.119,0.807-0.334
		c0.213-0.21,0.334-0.502,0.334-0.804v-3.817H32.589z"/>
	<path fill="#010101" d="M31.065,71.907c0.9,0,1.633,0.731,1.633,1.634c0,0.901-0.732,1.635-1.633,1.635
		c-0.902,0-1.637-0.732-1.637-1.635S30.161,71.907,31.065,71.907z M54.542,71.907c0.9,0,1.633,0.731,1.633,1.634
		c0,0.901-0.732,1.635-1.633,1.635c-0.902,0-1.635-0.732-1.635-1.635S53.64,71.907,54.542,71.907z"/>
	<path fill="#010101" d="M53.253,28.762c-0.332,0-0.643-0.213-0.75-0.548c-0.135-0.415,0.094-0.86,0.51-0.993l5.637-1.81
		c0.414-0.134,0.859,0.095,0.992,0.51c0.135,0.415-0.096,0.858-0.51,0.993l-5.637,1.81C53.415,28.75,53.333,28.762,53.253,28.762z
		 M31.8,28.762c-0.08,0-0.162-0.012-0.24-0.038l-5.639-1.81c-0.416-0.134-0.645-0.578-0.51-0.993
		c0.133-0.415,0.576-0.645,0.992-0.51l5.637,1.81c0.416,0.133,0.645,0.578,0.512,0.993C32.442,28.549,32.134,28.762,31.8,28.762z"/>
</g>
</svg>
