<?xml version="1.0" encoding="utf-8"?>
<!-- Generator: Adobe Illustrator 16.0.0, SVG Export Plug-In . SVG Version: 6.00 Build 0)  -->
<!DOCTYPE svg PUBLIC "-//W3C//DTD SVG 1.1//EN" "http://www.w3.org/Graphics/SVG/1.1/DTD/svg11.dtd">
<svg version="1.1" id="Layer_1" xmlns="http://www.w3.org/2000/svg" xmlns:xlink="http://www.w3.org/1999/xlink" x="0px" y="0px"
	 width="85px" height="85px" viewBox="0 0 85 85" enable-background="new 0 0 85 85" xml:space="preserve">
<g>
	<path fill="#D9A785" d="M53.866,44.026l-0.9,0.736l0.139,1.091l1.957-1.406l-0.703-1.963L53.866,44.026z"/>
	<path fill="#EDB996" d="M54.31,38.827l-1.018,1.672l-0.896,1.617l-0.189,1.737c-0.037,0.336,0.305,0.606,0.645,0.507l0.238-0.068
		l0.35-1.51l0.92-0.297l0.041,1.922l-1.828,1.613c0.207,0.388,0.729,0.512,1.084,0.259l1.283-0.906l1.115-2.257l0.098-2.185
		l0.738-2.78l-1.699-1.575L54.31,38.827L54.31,38.827z"/>
	<path fill="#75615A" d="M53.485,39.963c0.158,0.025,2.875,0.629,2.875,0.629l0.25-1.097l-3.102-0.589
		C53.511,38.907,53.327,39.937,53.485,39.963z"/>
	<g>
		<path fill="#465B65" d="M30.079,38.772h1.461v42.275h-1.461V38.772z"/>
		<path fill="#2D3F50" d="M29.837,78.644h1.947v2.681h-1.947V78.644z"/>
		<path fill="#364A5E" d="M29.485,37.848h2.648v3.451h-2.648V37.848z"/>
		<path fill="#EDB996" d="M31.825,36.138l0.111-1.511l-2.553,0.326l-1.332,2.598c0,0-0.48,1.854-0.219,2.497
			c0.088,0.213,1.539,1.811,1.709,1.995c0.373,0.403,0.625,0.762,1.172,0.23c-0.137-0.212-0.775-1.241-0.545-2.562
			c0.162-0.937,0.674-1.521,0.891-1.742c0.555,0.339,0.77,0.758,0.906,1.388c0.107,0.496,0.266,1.108,0.855,0.546
			c-0.102-0.575-0.16-1.169-0.234-1.751L31.825,36.138z"/>
		<path fill="#F0EFEF" d="M49.79,71.569c0,0.014,0.006,0.037,0.016,0.071C49.796,71.577,49.79,71.552,49.79,71.569z"/>
		<path fill="#303030" d="M46.751,80.305c-0.572-0.226-0.873-0.867-1.109-1.387c-0.164-0.361-0.154-0.765-0.604-0.589
			c-0.229,0.089-0.391,0.179-0.41,0.396c-0.037,0.373,0.135,0.992,0.273,1.341c0.158,0.397,0.154,0.738,0.275,1.057
			c0.057,0.15,0.143,0.289,0.254,0.404c0.234,0.252,0.529,0.466,0.789,0.692l2.434-0.226l0.924-0.649
			c0.043-0.274,0.086-0.549,0.131-0.823c-0.557-0.066-1.111-0.152-1.674-0.156C47.62,80.364,47.149,80.464,46.751,80.305
			L46.751,80.305z"/>
		<path fill="#505152" d="M45.229,80.354l-0.018,0.268l1.188,0.864l2.082-0.099c0,0,1.098-0.781,1.229-0.868
			c0.049-0.031-0.043-0.229-0.191-0.488C48.095,79.423,46.46,79.391,45.229,80.354z"/>
		<path fill="#3D3F40" d="M48.128,77.893c-0.076-0.065-0.135-0.107-0.186-0.131c-0.205-0.092-0.236,0.162-0.607,0.266
			c-0.666,0.188-1.598-0.984-2.227-0.214c-0.289,0.354-0.141,0.771-0.121,1.19l0.24,1.351c1.232-0.964,2.867-0.933,4.287-0.323
			c-0.26-0.45-0.693-1.087-0.857-1.337C48.499,78.456,48.343,78.085,48.128,77.893L48.128,77.893z"/>
		<path fill="#303030" d="M40.899,78.032c-0.449-0.175-0.543,0.803-0.709,1.164c-0.236,0.52-0.537,1.161-1.109,1.388
			c-0.398,0.156-0.869,0.059-1.285,0.061c-0.562,0.003-1.117,0.089-1.674,0.157c0.045,0.274,0.088,0.549,0.133,0.823l0.922,0.648
			L39.61,82.5c0.26-0.229,0.555-0.441,0.791-0.692c0.109-0.117,0.195-0.255,0.252-0.405c0.121-0.316,0.119-0.658,0.275-1.056
			c0.139-0.348,0.225-0.714,0.252-1.086C41.22,78.766,41.128,78.122,40.899,78.032L40.899,78.032z"/>
		<path fill="#505152" d="M36.315,80.31c-0.148,0.257-0.242,0.456-0.193,0.488c0.131,0.086,1.23,0.867,1.23,0.867l2.08,0.099
			l1.188-0.864l-0.016-0.268C39.372,79.669,37.735,79.699,36.315,80.31z"/>
		<path fill="#3D3F40" d="M38.497,78.305c-0.371-0.103-0.402-0.356-0.609-0.265c-0.049,0.021-0.107,0.062-0.184,0.131
			c-0.215,0.19-0.371,0.562-0.529,0.801c-0.164,0.251-0.598,0.886-0.857,1.338c1.42-0.61,3.055-0.642,4.289,0.322l0.238-1.351
			c0.02-0.421,0.168-0.838-0.119-1.189C40.093,77.319,39.163,78.492,38.497,78.305L38.497,78.305z"/>
		<path fill="#1D3D51" d="M45.54,36.075c-0.98-0.052-1.539-0.17-2.193-0.316c-1.16-0.263-2.619-0.622-7.273-0.888
			c-0.033,0.326-0.383,2.49-0.732,4.616c-0.035,0.231-0.07,0.461-0.107,0.687c-0.029,0.17-0.057,0.333-0.082,0.497
			c-0.057,0.33-0.109,0.66-0.16,0.991c-0.186,1.122-0.32,1.986-0.346,2.183c0.045,0.679,0.094,1.346,0.135,1.997
			c1.404,20.802,1.441,26.474,1.535,28.482c0.066,1.391,0.279,2.735,0.449,4.051c0.141,0.041,0.305,0.087,0.479,0.128
			c0.279,0.066,0.561,0.118,0.846,0.15c0.271,0.038,0.564,0.062,0.875,0.066c0.643,0.007,1.518-0.083,2.227-0.195
			c0.432-0.066,0.805-0.141,1.02-0.208c0.66-3.976-0.08-18.836,0.643-26.451c0.732,4.384,1.742,26.704,1.742,26.704
			c0.182,0.056,0.383,0.104,0.605,0.154c0.059,0.01,0.115,0.022,0.178,0.035c0.006,0,0.01,0.003,0.016,0.003
			c0.475,0.094,1.033,0.157,1.658,0.154c0.975-0.004,1.779-0.181,2.348-0.348c0.336-0.691-0.219-4.097,0.676-14.088
			c0.086-7.336,0.451-8.916,0.668-17.87c0.045-1.922,0.082-4.181,0.111-6.906c0.014-1.223,0.021-2.536,0.027-3.957
			C47.716,35.927,46.694,36.136,45.54,36.075L45.54,36.075z"/>
		<path fill="#F0EFEF" d="M34.991,41.659c-0.188,1.124-0.322,1.987-0.346,2.185c0.043,0.679,0.092,1.346,0.133,1.997
			c1.404,20.802,1.443,26.474,1.537,28.482c0.066,1.392,0.277,2.736,0.447,4.053c0.143,0.04,0.307,0.085,0.479,0.126
			c0.279,0.066,0.562,0.118,0.848,0.151l-1.303-12.602l-0.99-21.883l11.461-1.082L34.991,41.659L34.991,41.659z"/>
		<path fill="#122935" d="M35.151,40.668c-0.262,1.579-0.477,2.923-0.506,3.174c0.045,0.679,0.092,1.346,0.135,1.997
			c0.824-0.981,1.977-2.486,2.512-3.785C36.692,41.354,35.915,40.926,35.151,40.668z M47.794,40.231
			c-0.172,0.182,0.922,4.064,2.945,6.377c0.045-1.921,0.084-4.178,0.113-6.905C49.511,39.671,48.2,39.792,47.794,40.231z"/>
		<path fill="#E5B28F" d="M47.552,13.71l-1.299-0.513l-0.291-2.319l-2.604,0.356l-2.605-0.356l-0.016,0.112l-0.27,2.207
			l-0.775,0.305c-0.164,0.063-0.312,0.102-0.482,0.133c-0.078,0.016-0.158,0.048-0.23,0.091c-0.123,0.06-0.238,0.145-0.35,0.213
			c-0.074,0.048-0.152,0.097-0.201,0.17c-0.127,0.188,0.062,0.47,0.164,0.63c0.734,1.222,1.928,2.171,3.312,2.641
			c1.379,0.47,2.93,0.448,4.293-0.06c0.814-0.299,1.586-0.79,1.998-1.524C48.608,15.06,48.175,14.292,47.552,13.71L47.552,13.71z"/>
		<path fill="#D6A584" d="M40.468,13.198l-0.775,0.305c-0.164,0.063-0.312,0.102-0.48,0.133c-0.08,0.016-0.158,0.048-0.232,0.091
			c0.486,0.886,1.031,1.132,1.314,1.216c0.969,0.287,1.957-0.402,3.564-1.556c0.777-0.56,1.826-1.524,2.182-2.052l-5.301-0.346
			L40.468,13.198L40.468,13.198z"/>
		<path fill="#E8DFD1" d="M46.56,12.758c-0.482,1.031-1.469,1.438-2.133,2.37c-0.135,0.187-1.055,0.221-1.316,0.108l-0.004-0.002
			c-0.09-0.039-0.18-0.081-0.268-0.126c-0.916-0.44-2.027-1.231-2.525-2.127c-0.826,0.489-1.828,0.622-2.717,1.006
			c-0.055,0.024-0.252,0.129-0.518,0.275v22.045h12.826V14c-0.943-0.325-1.746-0.592-1.875-0.616
			C47.851,13.348,46.56,12.864,46.56,12.758z"/>
		<path fill="#CEC1AF" d="M42.823,21.62h0.283v-6.386c-0.092-0.039-0.182-0.081-0.268-0.126L42.823,21.62z"/>
		<path fill="#DED4C4" d="M40.819,15.148l1.203-0.212l0.865,0.287l-0.225-0.75L40.819,15.148z M43.89,15.283l0.75-0.055l1.23-0.278
			l-1.803-0.436L43.89,15.283z"/>
		<path fill="#CFCFCE" d="M43.06,46.85c0.006-0.029,0.01-0.06,0.016-0.09h-0.006L43.06,46.85z"/>
		<path fill="#75615A" d="M42.948,41.702l-0.611-0.004l-5.424-0.027l-1.381-0.006l-0.537-0.003H34.89l-0.014,0.083l-0.098,0.646
			l-0.129,0.857h16.191c0,0,0.145-1.023,0.08-1.591L42.948,41.702L42.948,41.702z"/>
		<path fill="#A28B81" d="M51.192,14.266c-0.855-0.51-2.119-0.73-3.072-1.074l-1.201-0.436l-3.344,9.019l-3.945-8.968l-1.426,0.491
			c-1.318,0.449-2.15,0.667-3.209,1.581c-0.984,0.853-1.982,1.712-2.709,2.802c-0.738,1.1-1.473,2.203-2.209,3.302
			c-0.771,1.157-1.613,2.388-2.09,3.084c-0.27,0.393-0.451,0.837-0.531,1.306c-0.225,1.32-0.582,3.921-0.41,5.567
			c0.188,1.771,0.354,2.617,0.773,3.731l0.922,0.962l3.238,0.062l0.508-1l0.344-7.224l1.18-1.548l1.312-1.084
			c-0.658,4.523-0.848,8.99-0.697,16.899l0.25,0.003l0.102,0.004h0.002l0.559,0.006l0.291,0.003l1.195,0.019l5.316,0.077
			l0.604,0.006l7.762,0.112h0.119l0.336,0.006c0.354-3.636,0.023-13.201-0.055-16.59l0.264,1.742l0.752,3.334l0.693,7.268
			l0.695,1.388l0.32-0.104l2.779,0.694l1.014-1.409l0.375-10.294c-0.305-2.257-3.211-8.574-3.979-9.789
			C53.173,16.876,52.622,15.12,51.192,14.266L51.192,14.266z"/>
		<path fill="#75615A" d="M43.573,21.774l-3.943-8.966l-1.428,0.489l5.342,10.583l4.574-10.687l-1.201-0.436L43.573,21.774z"/>
		<g>
			<path fill="#F1EADC" d="M44.065,14.514c1.395,1.393,1.99,2.386,1.99,2.196c0-0.19,1.949-3.613,1.949-3.613l-1.885-1.073
				C46.12,12.214,46.413,13.249,44.065,14.514z M40.597,12.218l-1.619,0.745c0,0,1.752,3.72,1.789,3.72
				c0.188,0,0.504-0.817,1.896-2.209C40.315,13.208,40.597,12.409,40.597,12.218z"/>
		</g>
		<path fill="#CEC1AF" d="M43.704,15.853c-0.182,0-0.33,0.147-0.33,0.328s0.148,0.327,0.33,0.327c0.184,0,0.33-0.146,0.33-0.327
			S43.888,15.853,43.704,15.853z M43.704,17.997c-0.182,0-0.33,0.146-0.33,0.326c0,0.182,0.148,0.328,0.33,0.328
			c0.184,0,0.33-0.146,0.33-0.328C44.034,18.143,43.888,17.997,43.704,17.997z M43.704,20.059c-0.182,0-0.33,0.146-0.33,0.327
			s0.148,0.328,0.33,0.328c0.184,0,0.33-0.147,0.33-0.328S43.888,20.059,43.704,20.059z"/>
		<path fill="#E5B28F" d="M39.122,7.659l-0.031-0.021c-0.148-0.1-0.342-0.087-0.479,0.029l-0.111,0.095
			c-0.137,0.117-0.188,0.313-0.131,0.489c0.131,0.414,0.244,0.83,0.379,1.24c0.094,0.284,0.189,0.57,0.312,0.847
			c0.043,0.091,0.08,0.254,0.146,0.325c0.113,0.119,0.342,0.067,0.451,0.164l0.229,0.201c-0.23-1.063-0.334-2.02-0.578-3.096
			C39.282,7.819,39.214,7.72,39.122,7.659L39.122,7.659z"/>
		<path fill="#EDB996" d="M44.86,2.683c-0.68-0.155-1.361-0.211-1.857-0.171c-2.488,0.201-4.414,2.13-3.832,4.7l0.041,0.178
			l-0.057-0.044c0.281,1.354,0.387,2.531,0.635,3.852l0.139,0.535c0.217,0.838,0.906,1.473,1.76,1.618l0.76,0.602
			c0.168,0.109,0.512,0.167,0.711,0.179c0.453,0.023,0.357,0.004,0.76-0.031c0.246-0.021,0.551-0.121,0.734-0.288l0.52-0.542
			l0.211-0.098c0.67-0.314,1.137-0.943,1.244-1.676l0.037-0.258c0.195-1.367,0.631-2.731,0.6-4.099
			c-0.023-0.989,0.363-1.851-0.1-2.772C46.704,3.454,45.835,2.907,44.86,2.683L44.86,2.683z"/>
		<path fill="#D8AA89" d="M41.546,12.069c0.004-0.132,0.18-0.322,0.271-0.44c0.008-0.011,0.016-0.021,0.023-0.031
			c0.141-0.198,0.271-0.422,0.436-0.603c0.043-0.047,0.281-0.314,0.338-0.317C42.347,10.69,41.571,11.25,41.546,12.069
			L41.546,12.069z M44.108,10.591c0.223,0.149,0.537,0.554,0.537,0.555c0.336,0.363,0.602,0.88,0.602,0.88
			C45.22,11.268,44.437,10.684,44.108,10.591z"/>
		<path fill="#E5B28F" d="M47.345,7.548l-0.168,0.077l-0.023-0.045c0.031,1.16-0.393,2.32-0.582,3.48
			c0.012-0.068,0.266-0.104,0.312-0.115c0.43-0.103,0.393-0.341,0.496-0.66c0.111-0.336,0.221-0.672,0.33-1.008
			c0.098-0.297,0.287-0.666,0.301-0.977c0.01-0.198-0.074-0.371-0.215-0.497C47.741,7.755,47.401,7.522,47.345,7.548z"/>
		<path fill="#D6A584" d="M43.046,10.917l-0.457-0.358l0.238,0.627l0.963,0.119l0.467-0.476l-0.482,0.218L43.046,10.917z"/>
		<path fill="#FFFFFF" d="M44.147,8.967c0,0,0.799,0.708,1.689,0l0.027-0.107c-0.055-0.056-0.355-0.347-0.822-0.343
			C44.503,8.521,44.187,8.915,44.147,8.967z"/>
		<path fill="#A0817C" d="M45.005,8.54c-0.215,0-0.389,0.168-0.389,0.373c0,0.207,0.174,0.375,0.389,0.375s0.389-0.168,0.389-0.375
			S45.22,8.54,45.005,8.54z"/>
		<path fill="#D8AA89" d="M44.087,8.823l0.061,0.145c0,0,0.672-0.611,1.797-0.053C45.915,8.532,44.802,8.226,44.087,8.823z"/>
		<path fill="#744F43" d="M45.003,8.733c-0.096,0-0.174,0.079-0.174,0.178c0,0.097,0.078,0.176,0.174,0.176
			c0.1,0,0.176-0.079,0.176-0.176l0,0C45.179,8.813,45.103,8.733,45.003,8.733L45.003,8.733z"/>
		<g>
			<path fill="#FFFFFF" d="M41.54,8.421c-0.467-0.005-0.766,0.286-0.822,0.343l0.027,0.107c0.947,0.761,1.691,0,1.691,0
				C42.396,8.819,42.079,8.425,41.54,8.421z"/>
			<path fill="#A0817C" d="M41.577,8.444c-0.215,0-0.389,0.166-0.389,0.373c0,0.206,0.174,0.373,0.389,0.373
				c0.213,0,0.387-0.167,0.387-0.373C41.964,8.612,41.79,8.444,41.577,8.444z"/>
			<g>
				<path fill="#D8AA89" d="M40.642,8.884c0.936-0.649,1.795-0.015,1.795-0.015l0.059-0.145C41.72,8.077,40.54,8.638,40.642,8.884z"
					/>
			</g>
			<path fill="#744F43" d="M41.554,8.616c-0.098,0-0.176,0.08-0.176,0.176c0,0.098,0.08,0.178,0.176,0.178
				c0.098,0,0.176-0.079,0.176-0.178C41.729,8.696,41.651,8.616,41.554,8.616L41.554,8.616z"/>
		</g>
		<g>
			<path fill="#9A9A9B" d="M45.239,7.581l-1.197,0.166c-0.031,0.22-0.074,0.44-0.131,0.651l1.547-0.319l1.172,0.242l-0.746-0.57
				C45.7,7.61,45.468,7.548,45.239,7.581z"/>
		</g>
		<g>
			<path fill="#9A9A9B" d="M42.571,7.7l-1.08-0.133c-0.195-0.023-0.393,0.02-0.561,0.122l-0.893,0.55l1.209-0.138l1.662,0.353
				c0.004-0.09-0.029-0.172-0.072-0.254C42.731,8.047,42.638,7.877,42.571,7.7z"/>
		</g>
		<g>
			<path fill="#9A9A9B" d="M39.149,4.337c-0.102,0.247-0.09,0.522-0.16,0.78c-0.057,0.217-0.168,0.416-0.229,0.631
				c-0.258,0.912,0.357,1.679,0.77,2.435c0.135-0.655-0.219-1.438-0.145-2.149c0.074-0.68,0.334-1.227,0.607-1.801
				c0.061-0.128,0.121-0.257,0.18-0.389C39.819,3.645,39.282,4.006,39.149,4.337L39.149,4.337z M47.593,4.459
				c-0.006-0.016-0.012-0.031-0.018-0.047c-0.17-0.418-0.535-0.67-0.961-0.756c0.893,1.428,0.484,3.094,0.482,4.674
				c0-0.367,0.484-0.799,0.639-1.119c0.219-0.458,0.404-1,0.379-1.514c-0.016-0.31-0.182-0.369-0.301-0.601
				C47.722,4.915,47.681,4.702,47.593,4.459L47.593,4.459z"/>
		</g>
		<path fill="#D6A584" d="M42.413,12.184c0.086,0.075,0.391,0.325,0.891,0.375c0.688,0.069,1.164-0.303,1.225-0.352
			C43.821,12.214,43.118,12.206,42.413,12.184z"/>
		<path fill="#9A9A9B" d="M45.136,11.958c-0.338-0.191-0.727-0.438-0.822-0.471c-0.135-0.043-0.295-0.084-0.438-0.088
			c-0.023,0-0.4,0.066-0.348,0.09c-0.896-0.404-1.475,0.555-2.287,0.586c-0.004,0,0.248,0.301,0.334,0.326
			c0.158,0.043,0.348-0.023,0.518,0.002c0.535,0.079,0.994-0.381,1.479-0.272c0.354,0.079,0.6,0.288,0.967,0.317
			c0.416,0.031,0.801,0.025,1.137-0.267C45.628,12.221,45.399,12.105,45.136,11.958z"/>
		<g>
			<path fill="#75615A" d="M42.228,8.004l-0.07-0.012c-0.275-0.051-0.545-0.059-0.793-0.059l-0.41,0.002c-0.08,0-0.16,0-0.24-0.003
				c-0.543-0.019-0.902,0.099-1.076,0.358c-0.174,0.264-0.15,0.646,0.072,1.171c0.199,0.467,0.537,0.805,0.951,0.952
				c0.289,0.104,0.566,0.154,0.826,0.154c0.41,0,0.77-0.127,1.072-0.38c0.195-0.163,0.365-0.401,0.469-0.649
				c0.18-0.424,0.166-0.844-0.041-1.176C42.835,8.105,42.47,8.044,42.228,8.004z M42.731,9.417
				c-0.082,0.203-0.221,0.396-0.377,0.527c-0.406,0.338-0.951,0.395-1.586,0.17c-0.328-0.117-0.6-0.394-0.762-0.776
				c-0.172-0.405-0.207-0.706-0.1-0.867c0.094-0.146,0.33-0.218,0.697-0.218c0.033,0,0.066,0,0.102,0.002
				c0.082,0.002,0.166,0.003,0.248,0.003l0.41-0.002c0.234,0,0.486,0.006,0.736,0.052l0.076,0.014
				c0.16,0.025,0.459,0.075,0.537,0.207C42.907,8.843,42.829,9.184,42.731,9.417z"/>
		</g>
		<g>
			<path fill="#75615A" d="M45.911,7.894c-0.08,0.002-0.158,0.003-0.238,0.003l-0.41-0.002c-0.248,0-0.518,0.008-0.793,0.059
				l-0.07,0.012c-0.242,0.041-0.607,0.101-0.762,0.359c-0.205,0.332-0.219,0.752-0.039,1.176c0.102,0.248,0.271,0.486,0.471,0.65
				c0.301,0.252,0.662,0.381,1.07,0.381c0.26,0,0.537-0.052,0.826-0.154c0.412-0.147,0.75-0.485,0.949-0.953
				c0.223-0.523,0.246-0.907,0.072-1.17C46.815,7.993,46.456,7.875,45.911,7.894z M46.62,9.298
				c-0.162,0.384-0.434,0.659-0.762,0.776c-0.637,0.225-1.182,0.168-1.586-0.17c-0.158-0.132-0.295-0.324-0.379-0.527
				c-0.1-0.233-0.176-0.574,0.02-0.889c0.078-0.132,0.377-0.182,0.537-0.207l0.076-0.014c0.25-0.046,0.502-0.052,0.734-0.052
				l0.41,0.002c0.084,0,0.166-0.001,0.25-0.004c0.033-0.001,0.066-0.001,0.102-0.001c0.365,0,0.602,0.072,0.697,0.218
				C46.827,8.592,46.792,8.892,46.62,9.298L46.62,9.298z"/>
		</g>
		<g>
			<path fill="#75615A" d="M28.542,36.364l3.537,0.123l0.012-0.955l-3.549-0.098V36.364z"/>
		</g>
		<path fill="#75615A" d="M42.989,8.882h0.643l0.08-0.401l-0.803,0.021L42.989,8.882z M38.979,7.427
			c-0.014,0.077-0.029,0.153-0.043,0.229l0.768,0.965l0.141-0.28l-0.781-0.94L38.979,7.427L38.979,7.427z M47.458,7.319
			l-0.781,0.942l0.143,0.28l0.781-0.982l0.004,0.001c-0.037-0.073-0.07-0.149-0.102-0.228L47.458,7.319L47.458,7.319z"/>
		<path fill="#DEDEDD" d="M43.071,50.824c-0.27-0.011-0.531-0.065-0.783-0.161l-0.801,5.931L41.19,78.524
			c0.432-0.066,0.805-0.141,1.02-0.208c0.66-3.976-0.08-18.836,0.643-26.451c0.732,4.384,1.742,26.704,1.742,26.704
			c0.182,0.056,0.383,0.104,0.605,0.154c0.059,0.01,0.115,0.022,0.178,0.035c0.006,0,0.01,0.003,0.016,0.003l0.744-7.259
			c-0.693-6.946-1.391-13.895-2.084-20.84C43.739,50.782,43.405,50.838,43.071,50.824L43.071,50.824z"/>
	</g>
</g>
</svg>
