<?xml version="1.0" encoding="utf-8"?>
<!-- Generator: Adobe Illustrator 16.0.0, SVG Export Plug-In . SVG Version: 6.00 Build 0)  -->
<!DOCTYPE svg PUBLIC "-//W3C//DTD SVG 1.1//EN" "http://www.w3.org/Graphics/SVG/1.1/DTD/svg11.dtd">
<svg version="1.1" id="Layer_1" xmlns="http://www.w3.org/2000/svg" xmlns:xlink="http://www.w3.org/1999/xlink" x="0px" y="0px"
	 width="85px" height="85px" viewBox="0 0 85 85" enable-background="new 0 0 85 85" xml:space="preserve">
<g>
	<g>
		<path fill="#010101" d="M45.426,10.286c19.699,0,35.666,15.969,35.666,35.667c0,11.807-5.736,22.27-14.574,28.762H24.334
			C15.498,68.223,9.76,57.76,9.76,45.953c0-8.329,2.854-15.99,7.639-22.061l-0.027,0.223c4.393-1.842,4.824,1.389,8.607,0.332
			c1.52-0.425,2.332-2.462,3.893-2.694c1.646-0.246,3.137,1.559,4.793,1.396c1.34-0.131,3.807-0.914,3.395-2.195
			c-0.441-1.377-2.994,0.031-4.293-0.601c-1.229-0.596-1.572-2.559-2.896-2.895c-1.174-0.298-2.201,1.511-3.393,1.298
			c-1.027-0.185-1.359-1.59-2.158-2.266C31.043,12.577,37.967,10.286,45.426,10.286z"/>
		<path fill="#88BADC" d="M28.881,29.73c11.342,0,20.537,9.195,20.537,20.538c0,1.176-0.1,2.326-0.289,3.445v0.002
			c-0.023,0.148-0.053,0.297-0.08,0.443l-0.002,0.016c-0.027,0.145-0.059,0.289-0.09,0.434l-0.004,0.021
			c-0.254,1.176-0.611,2.326-1.068,3.439l-0.004,0.01c-0.055,0.135-0.111,0.268-0.17,0.4l-0.008,0.016
			c-0.059,0.133-0.117,0.266-0.178,0.396l-0.004,0.01c-0.436,0.934-0.938,1.832-1.504,2.689l-0.021,0.031
			c-0.072,0.107-0.146,0.219-0.223,0.326L45.738,62c-0.072,0.104-0.146,0.207-0.221,0.311l-0.047,0.062
			c-0.074,0.102-0.148,0.203-0.227,0.305l-0.037,0.049c-0.08,0.104-0.16,0.207-0.242,0.311l-0.023,0.029
			c-0.439,0.553-0.908,1.08-1.402,1.582l-0.059,0.062c-0.08,0.082-0.162,0.162-0.244,0.244l-0.086,0.082
			c-0.078,0.076-0.158,0.15-0.238,0.227l-0.094,0.088c-0.08,0.074-0.16,0.146-0.242,0.221l-0.104,0.094
			c-0.08,0.068-0.16,0.139-0.24,0.207l-0.105,0.09c-0.082,0.068-0.164,0.139-0.248,0.207l-0.092,0.074
			c-0.312,0.254-0.637,0.5-0.965,0.736l-0.014,0.01c-0.082,0.059-0.166,0.115-0.248,0.174c-0.047,0.031-0.094,0.062-0.141,0.096
			c-0.072,0.051-0.148,0.1-0.223,0.148c-0.057,0.037-0.113,0.074-0.17,0.111c-0.074,0.049-0.148,0.094-0.223,0.143
			c-0.059,0.035-0.117,0.072-0.176,0.109c-0.072,0.043-0.145,0.088-0.219,0.131c-0.061,0.037-0.123,0.074-0.184,0.109
			c-0.076,0.045-0.152,0.088-0.229,0.131l-0.172,0.096c-0.078,0.045-0.158,0.09-0.238,0.133c-0.061,0.031-0.121,0.062-0.182,0.096
			c-0.076,0.039-0.152,0.08-0.229,0.119c-0.074,0.037-0.148,0.072-0.225,0.109c-0.064,0.033-0.131,0.066-0.195,0.098l-0.416,0.193
			c-0.057,0.025-0.111,0.051-0.168,0.074c-0.088,0.039-0.176,0.078-0.264,0.115c-0.066,0.029-0.135,0.057-0.201,0.084
			c-0.08,0.033-0.162,0.064-0.242,0.1l-0.199,0.078c-0.082,0.031-0.166,0.062-0.248,0.092c-0.068,0.027-0.139,0.053-0.207,0.076
			c-0.08,0.029-0.162,0.059-0.242,0.086l-0.209,0.07c-0.084,0.027-0.17,0.055-0.256,0.082l-0.201,0.062
			c-0.088,0.027-0.178,0.055-0.268,0.08c-0.064,0.02-0.131,0.037-0.195,0.057c-0.092,0.025-0.184,0.051-0.275,0.076
			c-0.062,0.016-0.129,0.033-0.193,0.051c-0.111,0.027-0.225,0.055-0.336,0.082c-0.043,0.01-0.088,0.021-0.131,0.031
			c-0.156,0.035-0.314,0.07-0.473,0.104l-0.131,0.025c-0.115,0.021-0.232,0.045-0.352,0.064c-0.061,0.012-0.121,0.021-0.182,0.033
			c-0.1,0.016-0.197,0.033-0.295,0.049l-0.207,0.029c-0.26,0.039-0.521,0.072-0.783,0.1l-0.205,0.021
			c-0.094,0.01-0.188,0.018-0.283,0.023c-0.07,0.008-0.145,0.014-0.219,0.02c-0.102,0.006-0.203,0.014-0.307,0.02
			c-0.061,0.004-0.121,0.006-0.182,0.01c-0.119,0.006-0.238,0.01-0.355,0.014l-0.15,0.006c-0.338,0.008-0.676,0.008-1.012,0
			c-0.051-0.002-0.1-0.004-0.15-0.006c-0.117-0.002-0.236-0.008-0.355-0.014l-0.092-0.004c-0.365,0.02-0.736,0.029-1.107,0.029
			c-11.344,0-20.537-9.195-20.537-20.539c0-11.342,9.193-20.538,20.537-20.538c0.371,0,0.74,0.011,1.105,0.03
			C28.143,29.741,28.51,29.73,28.881,29.73l0.025,0.122h0.002L28.881,29.73L28.881,29.73z"/>
		<path fill="#2F4557" d="M10.307,70.807h70.24c1.074,0,1.953,0.879,1.953,1.953s-0.879,1.955-1.953,1.955h-70.24
			c-1.074,0-1.953-0.881-1.953-1.955S9.232,70.807,10.307,70.807z"/>
		<path fill="#32354C" d="M25.248,70.807c11.312,0,20.539-9.227,20.539-20.539c0-11.311-9.227-20.538-20.539-20.538
			c-11.311,0-20.537,9.228-20.537,20.538C4.711,61.58,13.938,70.807,25.248,70.807z"/>
		<path fill="#32354C" d="M45.498,53.715c-1.639,9.701-10.08,17.092-20.25,17.092C15.08,70.807,6.641,63.416,5,53.715H45.498z"/>
		<path fill="#3F4665" d="M23.037,70.807c11.312,0,20.539-9.227,20.539-20.539c0-11.311-9.227-20.538-20.539-20.538
			C11.727,29.73,2.5,38.958,2.5,50.268C2.5,61.58,11.727,70.807,23.037,70.807L23.037,70.807z"/>
		<path fill="#E79542" d="M23.037,68.705c10.154,0,18.438-8.281,18.438-18.438c0-10.153-8.281-18.434-18.438-18.434
			c-10.154,0-18.436,8.28-18.436,18.434C4.604,60.424,12.883,68.705,23.037,68.705L23.037,68.705z"/>
		<path fill="#F4DB96" d="M24.186,31.871c9.646,0.593,17.289,8.603,17.289,18.397c0,9.795-7.643,17.807-17.289,18.398
			c-9.646-0.594-17.287-8.604-17.287-18.398C6.898,40.473,14.539,32.463,24.186,31.871L24.186,31.871z"/>
		<path fill="#3F4665" d="M23.037,35.4c0.465,0,0.842-0.378,0.842-0.842c0-0.463-0.377-0.841-0.842-0.841
			c-0.463,0-0.84,0.378-0.84,0.841C22.197,35.022,22.574,35.4,23.037,35.4z M14.762,35.935c0.402-0.231,0.918-0.095,1.15,0.309
			c0.23,0.401,0.094,0.917-0.309,1.147c-0.402,0.232-0.918,0.095-1.148-0.307C14.223,36.681,14.359,36.168,14.762,35.935
			L14.762,35.935z M8.705,41.993c0.23-0.401,0.746-0.539,1.148-0.308c0.4,0.232,0.539,0.746,0.309,1.148
			c-0.232,0.401-0.748,0.542-1.15,0.309C8.611,42.911,8.473,42.396,8.705,41.993L8.705,41.993L8.705,41.993z M6.486,50.268
			c0-0.465,0.377-0.842,0.842-0.842s0.842,0.377,0.842,0.842s-0.377,0.842-0.842,0.842S6.486,50.732,6.486,50.268z M8.705,58.545
			c-0.234-0.402-0.096-0.918,0.307-1.148c0.402-0.232,0.918-0.096,1.148,0.307c0.002,0,0.002,0.002,0.002,0.002
			c0.23,0.4,0.094,0.916-0.309,1.146C9.451,59.084,8.938,58.945,8.705,58.545L8.705,58.545z M14.762,64.602
			c-0.4-0.23-0.539-0.746-0.307-1.148c0.23-0.402,0.746-0.539,1.148-0.309c0.4,0.232,0.539,0.746,0.309,1.148
			C15.68,64.695,15.164,64.834,14.762,64.602L14.762,64.602z M23.037,66.818c-0.463,0-0.84-0.375-0.84-0.84c0,0,0,0,0-0.002
			c0-0.463,0.375-0.84,0.84-0.84l0,0c0.465,0,0.842,0.375,0.842,0.84l0,0C23.879,66.441,23.502,66.818,23.037,66.818L23.037,66.818z
			 M31.312,64.602c-0.4,0.232-0.916,0.094-1.148-0.309l0,0c-0.23-0.402-0.094-0.916,0.309-1.148c0.402-0.23,0.916-0.096,1.148,0.309
			l0,0C31.854,63.854,31.715,64.371,31.312,64.602z M37.371,58.545c-0.232,0.4-0.746,0.539-1.148,0.307
			c-0.402-0.23-0.539-0.746-0.309-1.146c0.232-0.402,0.746-0.541,1.148-0.309C37.465,57.627,37.604,58.141,37.371,58.545
			L37.371,58.545z M39.588,50.268c0,0.465-0.377,0.842-0.84,0.842c-0.465,0-0.842-0.377-0.842-0.842s0.377-0.842,0.842-0.842
			C39.211,49.428,39.588,49.805,39.588,50.268z M37.371,41.993c0.232,0.402,0.094,0.916-0.309,1.148c0,0,0,0,0,0.002
			c-0.402,0.232-0.916,0.094-1.148-0.309c-0.227-0.405-0.082-0.918,0.324-1.146C36.635,41.468,37.137,41.602,37.371,41.993z
			 M31.312,35.935c0.402,0.231,0.541,0.746,0.309,1.148c0,0,0,0,0,0.001c-0.232,0.4-0.746,0.539-1.148,0.307
			c-0.402-0.23-0.539-0.746-0.309-1.147C30.396,35.841,30.91,35.704,31.312,35.935L31.312,35.935z M23.037,51.689
			c0.783,0,1.422-0.639,1.422-1.422c0-0.781-0.639-1.42-1.422-1.42c-0.781,0-1.42,0.639-1.42,1.42
			C21.617,51.051,22.256,51.689,23.037,51.689z"/>
		<path fill="#3F4665" d="M22.729,50.268h0.619l4.059-7.014l-0.473-0.246L22.729,50.268z"/>
		<path fill="#3F4665" d="M23.258,50.051l-0.439,0.438l9.295,9.393l0.439-0.438L23.258,50.051z"/>
		<g>
			<path fill="#2F4557" d="M48.506,65.807h18.52v5h-18.52c-1.375,0-2.498-1.125-2.498-2.5l0,0
				C46.008,66.932,47.131,65.807,48.506,65.807L48.506,65.807z"/>
			<path fill="#FFFFFF" d="M67.025,69.828v-3.041h-18.52c-0.834,0-1.52,0.686-1.52,1.52s0.686,1.521,1.52,1.521H67.025
				L67.025,69.828z"/>
			<path fill="#23323E" d="M67.025,65.807h9.553v0.98h-9.553V65.807z M67.025,69.826h9.553v0.979h-9.553V69.826z"/>
			<path fill="#CBD1D5" d="M67.025,66.787h8.295v3.041h-8.295V66.787z"/>
		</g>
		<g>
			<path fill="#2F4557" d="M45.893,60.809h18.52v4.998h-18.52c-1.373,0-2.498-1.125-2.498-2.498
				C43.395,61.934,44.52,60.809,45.893,60.809L45.893,60.809z"/>
			<path fill="#FFFFFF" d="M64.41,64.828v-3.039H45.893c-0.834,0-1.52,0.686-1.52,1.52s0.686,1.52,1.52,1.52H64.41L64.41,64.828z"/>
			<path fill="#23323E" d="M64.41,60.809h9.555v0.979H64.41V60.809z M64.41,64.828h9.555v0.979H64.41V64.828z"/>
			<path fill="#CBD1D5" d="M64.41,61.789h8.295v3.039H64.41V61.789z"/>
		</g>
		<g>
			<path fill="#2F4557" d="M48.506,55.811h18.52v4.998h-18.52c-1.375,0-2.498-1.125-2.498-2.5l0,0
				C46.008,56.934,47.131,55.811,48.506,55.811L48.506,55.811z"/>
			<path fill="#FFFFFF" d="M67.025,59.83v-3.039h-18.52c-0.834,0-1.52,0.686-1.52,1.52c0,0.832,0.686,1.52,1.52,1.52H67.025
				L67.025,59.83z"/>
			<path fill="#23323E" d="M67.025,55.809h9.553v0.98h-9.553V55.809z M67.025,59.83h9.553v0.979h-9.553V59.83z"/>
			<path fill="#CBD1D5" d="M67.025,56.791h8.295v3.039h-8.295V56.791z"/>
		</g>
	</g>
	<path fill="#FFFFFF" d="M48.91,14.025c-0.598-0.253-1.211-0.407-1.824-0.485c2.354,1.882,3.275,5.159,2.043,8.069
		s-4.229,4.528-7.219,4.148c0.482,0.386,1.021,0.718,1.619,0.971c3.508,1.485,7.555-0.153,9.041-3.661S52.416,15.511,48.91,14.025
		L48.91,14.025z"/>
	<g>
		<path fill="#E4E4E4" d="M44.055,30.99h35.039c1.57,0,2.994,1.292,2.854,2.854l-1.205,13.294c-0.141,1.562-1.285,2.855-2.854,2.855
			H42.85c-1.568,0-2.994-1.291-2.854-2.855l1.205-13.294C41.342,32.28,42.484,30.99,44.055,30.99L44.055,30.99z"/>
		<path fill="#FFFFFF" d="M43.283,31.43h35.039c1.57,0,2.996,1.292,2.854,2.854L79.971,47.58c-0.141,1.561-1.283,2.854-2.854,2.854
			H42.08c-0.219,0-0.436-0.025-0.646-0.074L37.1,51.871l2.344-6.701l0.986-10.885C40.57,32.721,41.713,31.43,43.283,31.43
			L43.283,31.43z"/>
	</g>
	<g enable-background="new    ">
		<path fill="#EC008C" d="M42.402,45.322c1.396-2.343,2.516-4.169,3.531-5.418c-1.059,0.077-2.01,0.174-2.896,0.365l-0.402-1.902
			c1.162-0.211,2.389-0.308,3.615-0.308c0.592,0,1.203,0.021,1.775,0.058l0.338,1.77c-1.396,1.768-2.686,3.708-3.678,5.342h1.014
			c0.973,0,1.945,0.059,2.705,0.135l-0.273,1.768c-0.654-0.059-1.502-0.115-2.432-0.115c-0.57,0-1.5,0.076-2.916,0.289
			L42.402,45.322z"/>
	</g>
	<g enable-background="new    ">
		<path fill="#EC008C" d="M49.674,40.903c1.396-2.344,2.518-4.17,3.531-5.419c-1.059,0.077-2.01,0.174-2.896,0.365l-0.4-1.902
			c1.162-0.211,2.389-0.307,3.613-0.307c0.592,0,1.205,0.019,1.775,0.058l0.338,1.769c-1.395,1.768-2.684,3.708-3.678,5.342h1.016
			c0.973,0,1.943,0.058,2.705,0.135l-0.273,1.769c-0.656-0.059-1.502-0.115-2.432-0.115c-0.57,0-1.502,0.077-2.918,0.288
			L49.674,40.903z"/>
	</g>
	<g enable-background="new    ">
		<path fill="#EC008C" d="M56.945,44.17c1.395-2.343,2.516-4.168,3.529-5.417c-1.057,0.076-2.008,0.173-2.896,0.364l-0.4-1.902
			c1.162-0.211,2.389-0.308,3.613-0.308c0.592,0,1.205,0.02,1.775,0.059l0.34,1.768c-1.396,1.769-2.686,3.709-3.68,5.341h1.016
			c0.973,0,1.945,0.059,2.705,0.137l-0.273,1.768c-0.654-0.059-1.502-0.115-2.432-0.115c-0.57,0-1.5,0.076-2.918,0.287L56.945,44.17
			z"/>
	</g>
	<g enable-background="new    ">
		<path fill="#EC008C" d="M67.26,41.384c0.148,0.423,0.232,0.923,0.232,1.422c0,0.75-0.062,1.499-0.295,2.038l-2.855-0.211
			c0.086-0.654,0.191-1.326,0.191-2.038c0-0.48,0-0.98-0.021-1.441L67.26,41.384z"/>
	</g>
	<g enable-background="new    ">
		<path fill="#EC008C" d="M72.756,43.305c0.148,0.424,0.232,0.924,0.232,1.422c0,0.75-0.062,1.5-0.295,2.037l-2.855-0.211
			c0.084-0.654,0.191-1.326,0.191-2.037c0-0.48,0-0.98-0.021-1.441L72.756,43.305z"/>
	</g>
	<g enable-background="new    ">
		<path fill="#EC008C" d="M78.252,44.17c0.148,0.424,0.232,0.924,0.232,1.424c0,0.748-0.062,1.498-0.295,2.035l-2.855-0.211
			c0.086-0.652,0.191-1.326,0.191-2.037c0-0.48,0-0.979-0.021-1.441L78.252,44.17z"/>
	</g>
</g>
</svg>
