<?xml version="1.0" encoding="utf-8"?>
<!-- Generator: Adobe Illustrator 16.0.0, SVG Export Plug-In . SVG Version: 6.00 Build 0)  -->
<!DOCTYPE svg PUBLIC "-//W3C//DTD SVG 1.1//EN" "http://www.w3.org/Graphics/SVG/1.1/DTD/svg11.dtd">
<svg version="1.1" id="Layer_1" xmlns="http://www.w3.org/2000/svg" xmlns:xlink="http://www.w3.org/1999/xlink" x="0px" y="0px"
	 width="85px" height="85px" viewBox="0 0 85 85" enable-background="new 0 0 85 85" xml:space="preserve">
<g>
	<path fill-rule="evenodd" clip-rule="evenodd" d="M59.834,39.852c0.739,0.684,0.809,0.992,0.375,1.904
		c-1.869,3.938-3.749,7.872-5.616,11.811c-0.69,1.458-1.779,2.401-3.38,2.725c-0.247,0.05-0.515,0.055-0.514,0.442
		c0.01,2.647,0.005,5.294,0.005,7.999c0.458-0.103,0.678-0.408,0.944-0.632c2.307-1.935,5.256-1.942,7.556-0.014
		c0.677,0.568,1.333,1.146,2.283,1.248c1.222,0.132,2.156-0.371,3.026-1.15c1.496-1.338,3.237-1.823,5.21-1.366
		c0.956,0.222,1.779,0.699,2.518,1.344c0.627,0.548,1.263,1.077,2.153,1.166c1.047,0.105,1.945-0.174,2.734-0.87
		c0.783-0.691,1.614-1.315,2.646-1.603c1.4-0.39,1.989-0.162,2.726,1.05c0,4.583,0,9.167,0,13.75c-0.156,2.347-2.48,4.772-5,4.844
		c-18.334,0-36.667,0-55,0c-0.641-0.222-0.99-0.643-0.922-1.35c0.22-0.858,0.796-1.239,1.657-1.241c0.183,0,0.364-0.006,0.547-0.006
		c16.807,0,33.614-0.002,50.422,0.001c0.234,0,0.469-0.002,0.7,0.007c0.593,0.05,1.189,0.057,1.784,0.027
		c1.587-0.078,2.882-1.15,3.173-2.717c0.208-1.119,0.062-2.26,0.086-3.594c-1.247,0.848-2.189,1.871-3.554,2.143
		c-1.994,0.559-3.748,0.041-5.341-1.191c-0.206-0.159-0.409-0.322-0.613-0.484c-1.357-1.077-2.863-1.067-4.196,0.067
		c-0.842,0.717-1.729,1.339-2.812,1.627c-1.864,0.496-3.554,0.095-5.091-1.034c-0.293-0.215-0.567-0.456-0.859-0.675
		c-1.409-1.056-2.729-1.042-4.136,0.048c-0.493,0.382-0.959,0.802-1.505,1.112c-2.177,1.239-4.774,0.964-6.763-0.734
		c-0.832-0.711-1.693-1.29-2.868-1.172c-0.561,0.057-1.07,0.189-1.507,0.56c-0.337,0.286-0.685,0.561-1.036,0.829
		c-2.311,1.769-5.334,1.684-7.55-0.207c-0.278-0.237-0.555-0.474-0.855-0.68c-0.995-0.685-2.384-0.693-3.381-0.019
		c-0.323,0.22-0.627,0.464-0.933,0.708c-2.499,1.99-5.389,1.963-7.854-0.074c-0.141-0.116-0.271-0.243-0.414-0.356
		c-1.296-1.038-2.774-1.06-4.078-0.029c-0.881,0.695-1.745,1.392-2.863,1.696c-1.832,0.499-3.5,0.168-5.041-0.903
		c-0.406-0.282-0.777-0.611-1.173-0.908c-0.29-0.219-0.477-0.201-0.471,0.221c0.015,0.938-0.063,1.878,0.036,2.81
		c0.188,1.767,1.546,2.94,3.436,2.957c2.681,0.024,5.361,0.006,8.041,0.008c0.287,0,0.573-0.011,0.858,0.01
		c0.911,0.065,1.31,0.435,1.503,1.381c-0.033,0.624-0.372,0.997-0.96,1.164c-3.542,0-7.084,0-10.625,0
		C4.95,82.319,2.681,80.05,2.5,77.656c0-4.583,0-9.167,0-13.75c0.73-1.211,1.325-1.44,2.726-1.049
		c0.923,0.258,1.678,0.802,2.407,1.399c1.884,1.542,3.216,1.526,5.071-0.038c2.5-2.108,5.356-2.104,7.845,0.013
		c1.812,1.541,3.185,1.557,5.008,0.059c2.69-2.212,5.377-2.204,8.026,0.021c0.174,0.146,0.36,0.279,0.542,0.419
		c0.283-0.187,0.163-0.443,0.164-0.65c0.01-2.344-0.003-4.687,0.015-7.03c0.004-0.475-0.076-0.708-0.622-0.846
		c-1.478-0.371-2.443-1.371-3.092-2.743c-2.84-6.006-5.704-12-8.559-17.999c-0.268-0.562-0.54-1.123-0.799-1.689
		c-0.883-1.93-0.199-3.98,1.607-4.831c1.802-0.849,3.834-0.08,4.754,1.843c2.373,4.963,4.728,9.936,7.09,14.904
		c0.4,0.844,0.803,1.688,1.205,2.53c0.088,0.184,0.135,0.43,0.393,0.434c0.807,0.013,1.614,0.005,2.421,0.005
		c0.151,0,0.246-0.073,0.271-0.221c0.047-0.269-0.112-0.432-0.298-0.59c-0.938-0.801-1.623-1.793-1.835-3.005
		c-0.333-1.908-0.421-3.848,0.119-5.727c0.778-2.707,3.318-4.251,6.309-3.953c2.669,0.267,4.772,2.419,5.027,5.148
		c0.106,1.143,0.083,2.288,0.033,3.433c-0.07,1.619-0.744,2.954-1.924,4.044c-0.213,0.195-0.491,0.366-0.352,0.701
		c0.136,0.325,0.458,0.122,0.693,0.173c1.854,0.397,2.722-0.447,3.479-2.151c2.349-5.286,4.921-10.474,7.417-15.695
		c0.908-1.9,2.772-2.675,4.582-1.937c1.813,0.74,2.68,2.76,1.917,4.585c-0.43,1.029-0.953,2.018-1.424,3.029
		c-0.337,0.723-0.917,0.852-1.625,0.7c-0.77-0.305-1.017-0.904-0.651-1.751c0.319-0.739,0.617-1.49,0.998-2.202
		c0.122-0.229,0.243-0.461,0.312-0.714c0.145-0.541,0.032-0.997-0.506-1.245c-0.564-0.26-0.975,0.013-1.221,0.502
		c-0.525,1.045-1.062,2.085-1.55,3.149c-1.223,2.67-2.516,5.308-3.771,7.962c-1.144,2.42-2.282,4.843-3.455,7.25
		c-0.492,1.011-0.223,2.099-0.234,3.152c-0.003,0.313,0.261,0.26,0.462,0.144c0.401-0.232,0.629-0.613,0.83-1.01
		c0.835-1.646,1.608-3.323,2.395-4.992c1.063-2.257,2.158-4.499,3.207-6.763C58.347,39.729,58.99,39.483,59.834,39.852z"/>
	<path fill-rule="evenodd" clip-rule="evenodd" d="M48.75,2.5c0.458,0.144,0.927,0.261,1.372,0.435
		c2.861,1.119,4.505,3.212,4.737,6.271c0.175,2.308,0.145,4.633,0.007,6.945c-0.218,3.695-3.284,6.58-6.975,6.674
		c-0.797,0.021-1.746-0.303-2.348,0.143c-0.565,0.419-0.776,1.315-1.142,2.003c-0.194,0.367-0.364,0.748-0.578,1.103
		c-0.664,1.104-2.006,1.112-2.646-0.003c-0.517-0.9-0.994-1.824-1.443-2.759c-0.187-0.387-0.412-0.503-0.832-0.501
		c-0.985,0.004-1.974,0.08-2.957-0.114c-3.22-0.636-5.627-3.288-5.815-6.546c-0.133-2.286-0.128-4.582-0.005-6.868
		c0.182-3.372,2.547-6,5.875-6.647c0.102-0.02,0.205-0.019,0.249-0.137C40.416,2.5,44.583,2.5,48.75,2.5z"/>
	<path fill-rule="evenodd" clip-rule="evenodd" fill="#FEAF9D" d="M59.834,39.852c-1.066-0.133-1.295-0.013-1.762,0.967
		c-1.845,3.865-3.69,7.73-5.523,11.6c-0.287,0.605-0.639,1.127-1.268,1.417c-0.357,0.165-0.57,0.166-0.582-0.336
		c-0.037-1.537,0.09-2.979,0.812-4.437c2.748-5.562,5.36-11.189,8.023-16.792c0.045-0.094,0.092-0.186,0.138-0.28
		c0.454-0.939,1.061-1.254,1.746-0.907c0.676,0.343,0.809,0.98,0.383,1.885c-0.365,0.775-0.742,1.543-1.106,2.319
		c-0.419,0.894-0.344,1.237,0.397,1.903C60.673,38.079,60.253,38.965,59.834,39.852z"/>
	<path fill-rule="evenodd" clip-rule="evenodd" fill="#6BD8E6" d="M21.731,81.396c-0.991-0.003-1.982-0.007-2.974-0.01
		c-0.252-1.021-0.51-1.228-1.565-1.229c-2.837-0.003-5.675,0.002-8.512-0.002c-2.396-0.004-3.831-1.441-3.837-3.839
		c-0.002-0.979,0-1.958,0-3.021c0.656,0.26,1.084,0.678,1.534,1.053c2.319,1.929,5.225,1.925,7.553-0.021
		c0.68-0.567,1.338-1.136,2.292-1.23c1.225-0.12,2.143,0.408,3.02,1.176c1.679,1.47,3.604,1.891,5.738,1.176
		c0.748-0.25,1.417-0.656,1.984-1.206c1.635-1.584,3.559-1.479,5.205,0c2.344,2.104,5.356,2.109,7.704,0.009
		c1.704-1.526,3.564-1.516,5.275,0.02c2.304,2.067,5.355,2.068,7.643,0.001c1.67-1.509,3.524-1.57,5.278-0.023
		c2.384,2.104,5.347,2.106,7.698-0.009c1.647-1.481,3.598-1.523,5.15-0.05c1.555,1.476,3.427,1.868,5.498,1.417
		c0.113-0.004,0.209,0.04,0.244,0.146c0.452,1.345-0.241,3.787-1.508,4.377c-0.312,0.009-0.623,0.025-0.936,0.025
		c-16.921,0.001-33.843,0.001-50.765,0.001C22.246,80.156,22.027,80.316,21.731,81.396z"/>
	<path fill-rule="evenodd" clip-rule="evenodd" fill="#A5E6EF" d="M76.706,72.777c-0.964,0.825-2.425,0.911-3.545,0.175
		c-0.433-0.285-0.817-0.642-1.225-0.964c-2.143-1.693-5.094-1.665-7.196,0.07c-0.181,0.149-0.353,0.31-0.534,0.456
		c-1.587,1.28-3.089,1.283-4.64-0.057c-1.094-0.944-2.278-1.619-3.756-1.703c-1.587-0.09-2.967,0.396-4.16,1.434
		c-0.472,0.409-0.936,0.849-1.534,1.054c-1.297,0.443-2.429,0.131-3.477-0.745c-2.857-2.392-5.416-2.386-8.26-0.029
		c-1.604,1.329-3.159,1.412-4.689-0.022c-2.298-2.152-5.769-2.326-8.302,0.029c-1.575,1.465-3.108,1.326-4.926-0.24
		c-1.577-1.358-3.364-1.798-5.374-1.288c-0.897,0.228-1.656,0.72-2.361,1.317c-1.892,1.603-3.205,1.614-5.123,0.049
		c-0.731-0.597-1.483-1.149-2.417-1.371c-0.309-0.072-0.348-0.24-0.347-0.5c0.006-1.588,0.009-3.176-0.002-4.764
		c-0.002-0.392,0.122-0.485,0.44-0.252c0.356,0.261,0.712,0.523,1.049,0.809c2.323,1.962,5.29,1.978,7.615,0.008
		c0.766-0.648,1.527-1.229,2.605-1.25c1.142-0.023,1.955,0.574,2.76,1.261c1.731,1.479,3.689,1.816,5.827,1.063
		c0.769-0.271,1.405-0.771,2.023-1.298c1.63-1.39,3.173-1.478,4.744-0.018c2.399,2.229,5.872,2.202,8.243,0.005
		c1.578-1.463,3.136-1.445,4.732,0.021c2.448,2.25,5.894,2.119,8.182,0.002c1.616-1.494,3.108-1.404,4.807,0.009
		c2.709,2.255,5.355,2.253,8.09-0.006c1.635-1.349,3.171-1.466,4.633-0.153c1.747,1.568,3.686,2.157,5.968,1.611
		c0.358,0.04,0.372,0.338,0.382,0.581c0.053,1.353,0.039,2.706,0.01,4.06C76.944,72.371,76.853,72.586,76.706,72.777z"/>
	<path fill-rule="evenodd" clip-rule="evenodd" fill="#FD646F" d="M44.842,63.117c-2.459-0.922-4.627-0.445-6.548,1.328
		c-0.434,0.4-0.99,0.964-1.527,0.729c-0.345-0.151-0.109-0.96-0.111-1.472c-0.011-3.978,0.007-7.956-0.021-11.933
		c-0.004-0.618,0.171-0.866,0.784-0.773c0.127,0.02,0.262,0.018,0.39,0.001c0.762-0.097,1.2,0.046,1.483,0.951
		c0.589,1.875,2.854,2.679,4.707,1.837c0.235-0.106,0.459-0.237,0.688-0.357c0.425,0.089,0.388,0.453,0.391,0.74
		c0.032,2.745,0.027,5.49,0.006,8.235C45.082,62.662,45.059,62.926,44.842,63.117z"/>
	<path fill-rule="evenodd" clip-rule="evenodd" fill="#FEAF9D" d="M34.293,51.938c0,0.577-0.017,1.047,0.005,1.515
		c0.024,0.539-0.218,0.484-0.553,0.279c-0.436-0.268-0.733-0.646-0.952-1.105c-3.132-6.592-6.27-13.18-9.399-19.772
		c-0.391-0.822-0.206-1.474,0.464-1.783c0.665-0.308,1.252-0.03,1.657,0.82c2.86,6.001,5.71,12.008,8.578,18.006
		C34.432,50.604,34.207,51.332,34.293,51.938z"/>
	<path fill-rule="evenodd" clip-rule="evenodd" fill="#FB4754" d="M44.842,63.117c0.001-2.96,0.004-5.92-0.003-8.88
		c0-0.273,0.1-0.578-0.151-0.809c0.59-0.566,1.075-1.204,1.227-2.026c0.062-0.343,0.246-0.388,0.536-0.41
		c1.898-0.14,1.897-0.145,1.897,1.754c0,3.923,0.001,7.847,0,11.771c0,0.865-0.092,0.932-0.849,0.492
		C46.556,64.463,45.822,63.615,44.842,63.117z"/>
	<path fill-rule="evenodd" clip-rule="evenodd" fill="#FEAF9D" d="M41.051,37.783c2.281-1.001,4.673,0.354,4.914,2.808
		c0.104,1.057,0.104,2.125,0,3.184c-0.24,2.456-2.629,3.814-4.907,2.813C42.833,43.841,42.83,40.501,41.051,37.783z"/>
	<path fill-rule="evenodd" clip-rule="evenodd" fill="#FECDBE" d="M41.051,37.783c0.251,0.033,0.394,0.188,0.546,0.388
		c0.521,0.685,0.844,1.481,0.869,2.298c0.044,1.393,0.234,2.813-0.154,4.184c-0.213,0.751-0.397,1.575-1.254,1.935
		c-1.193-0.445-1.821-1.364-1.989-2.569c-0.17-1.212-0.168-2.447-0.001-3.66C39.232,39.151,39.864,38.236,41.051,37.783z"/>
	<path fill-rule="evenodd" clip-rule="evenodd" fill="#2ED0E1" d="M75.153,80.13c1.026-1.146,1.596-2.452,1.419-4.024
		c-0.021-0.18-0.001-0.363-0.155-0.498c1.415-0.425,2.414-1.539,3.713-2.377c0,1.393,0.09,2.639-0.021,3.866
		c-0.152,1.694-1.623,2.981-3.319,3.051C76.245,80.169,75.698,80.137,75.153,80.13z"/>
	<path fill-rule="evenodd" clip-rule="evenodd" fill="#6BD8E6" d="M76.706,72.777c0.002-1.52,0.007-3.04,0.002-4.561
		c0-0.249,0.074-0.521-0.15-0.728c1.137-0.424,2.049-1.19,2.975-1.939c0.147-0.119,0.323-0.331,0.541-0.206
		c0.177,0.103,0.077,0.331,0.078,0.501c0.008,1.48-0.007,2.961,0.012,4.44c0.005,0.39-0.063,0.598-0.503,0.695
		C78.483,71.243,77.702,72.193,76.706,72.777z"/>
	<path fill-rule="evenodd" clip-rule="evenodd" fill="#FDAE9C" d="M42.659,49.299c0.328,0.077,1.105-0.502,1.035,0.655
		c-0.078,1.282-0.347,1.805-1.186,1.811c-0.815,0.007-1.091-0.501-1.208-1.634C41.179,48.943,41.914,49.261,42.659,49.299z"/>
	<path fill-rule="evenodd" clip-rule="evenodd" fill="#EAEAEA" d="M47.969,20.445c-0.883,0.012-1.767,0.05-2.648,0.028
		c-0.855-0.022-1.427,0.325-1.787,1.104c-0.291,0.628-0.643,1.228-1.033,1.963c-0.35-0.662-0.683-1.207-0.934-1.787
		c-0.402-0.926-1.052-1.353-2.075-1.283c-0.751,0.052-1.508,0.02-2.262,0.007c-2.529-0.045-4.605-1.924-4.754-4.447
		c-0.134-2.282-0.149-4.577,0.013-6.859c0.165-2.324,2.167-4.257,4.484-4.301c3.248-0.062,6.499-0.005,9.748,0
		c1.14,0.737,1.991,1.667,2.076,3.108c-1.257,0.555-2.162,1.555-3.121,2.485c-0.427,0.414-0.42,0.9-0.052,1.321
		c0.765,0.875,1.595,1.692,2.464,2.467c0.241,0.216,0.577,0.213,0.864,0.33c0.234,0.13,0.298,0.357,0.311,0.595
		c0.082,1.52-0.043,3.014-0.632,4.438C48.492,19.948,48.339,20.287,47.969,20.445z"/>
	<path fill-rule="evenodd" clip-rule="evenodd" fill="#E1E1E1" d="M47.969,20.445c0.996-1.625,1.126-3.43,1.096-5.269
		c-0.005-0.257-0.047-0.461-0.346-0.504c-0.004-0.054-0.001-0.11,0.033-0.145c0.954-0.956,0.955-0.955,0.19-2.166
		c-0.07-0.11-0.117-0.227-0.123-0.359c0.045-0.494,0.05-0.988,0-1.482c-0.003-0.222,0.126-0.383,0.25-0.551
		c0.594-0.803,0.578-1.009-0.117-1.701c-0.093-0.092-0.185-0.181-0.203-0.318c-0.267-1.297-1.177-2.169-2.028-3.08
		c2.991-0.16,5.016,1.133,5.686,3.636c0.053,0.199,0.102,0.406,0.11,0.611c0.102,2.366,0.161,4.737-0.014,7.098
		C52.33,18.547,50.262,20.406,47.969,20.445z"/>
	<path fill-rule="evenodd" clip-rule="evenodd" d="M47.204,16.837c-0.008,0.881-0.673,1.433-1.437,1.25
		c-2.03-0.486-4.053-0.499-6.083-0.006c-0.667,0.162-1.226-0.158-1.425-0.758c-0.208-0.631,0.079-1.244,0.764-1.486
		c1.143-0.403,2.345-0.426,3.536-0.433c1.218-0.007,2.438,0.024,3.625,0.366C46.793,15.946,47.19,16.291,47.204,16.837z"/>
	<path fill-rule="evenodd" clip-rule="evenodd" d="M36.843,14.645c-0.477-0.049-0.85-0.25-1.059-0.69
		c-0.21-0.444-0.148-0.871,0.17-1.231c0.36-0.408,0.738-0.803,1.14-1.169c0.291-0.267,0.259-0.436-0.038-0.665
		c-0.349-0.268-0.681-0.563-0.988-0.878c-0.515-0.526-0.532-1.182-0.077-1.668c0.433-0.463,1.064-0.52,1.604-0.072
		c0.779,0.645,1.535,1.318,2.273,2.009c0.505,0.473,0.595,1.079,0.131,1.598c-0.775,0.869-1.621,1.677-2.446,2.501
		C37.362,14.57,37.096,14.61,36.843,14.645z"/>
	<path fill-rule="evenodd" clip-rule="evenodd" d="M48.749,7.95c1.267,0.606,1.309,1.303,0.15,2.516
		c-0.48,0.519-0.449,1.045-0.022,1.578c0.098,0.117,0.19,0.24,0.295,0.351c0.896,0.952,0.742,1.724-0.453,2.277
		c-0.489-0.035-0.876-0.25-1.213-0.611c-0.637-0.682-1.312-1.327-1.951-2.007c-0.595-0.633-0.581-1.235,0.05-1.831
		c0.679-0.64,1.39-1.246,2.082-1.872C47.99,8.077,48.346,7.955,48.749,7.95z"/>
	<path fill-rule="evenodd" clip-rule="evenodd" fill="#E7E7E7" d="M48.877,12.044c-0.023-0.01-0.053-0.014-0.069-0.03
		c-0.953-0.968-0.959-0.673,0.092-1.547C49.145,10.996,49.178,11.522,48.877,12.044z"/>
</g>
</svg>
