<?xml version="1.0" encoding="utf-8"?>
<!-- Generator: Adobe Illustrator 16.0.0, SVG Export Plug-In . SVG Version: 6.00 Build 0)  -->
<!DOCTYPE svg PUBLIC "-//W3C//DTD SVG 1.1//EN" "http://www.w3.org/Graphics/SVG/1.1/DTD/svg11.dtd">
<svg version="1.1" id="Layer_1" xmlns="http://www.w3.org/2000/svg" xmlns:xlink="http://www.w3.org/1999/xlink" x="0px" y="0px"
	 width="85px" height="85px" viewBox="0 0 85 85" enable-background="new 0 0 85 85" xml:space="preserve">
<g>
	<path fill-rule="evenodd" clip-rule="evenodd" d="M31.956,82.5c-0.839-0.509-1.074-1.265-1.063-2.222
		c0.038-3.41,0.015-6.821,0.015-10.231c0-0.253,0-0.507,0-1.001c-0.592,0.784-1.054,1.388-1.507,1.998
		c-0.358,0.483-0.793,0.846-1.425,0.813c-0.328-0.017-0.452,0.179-0.605,0.391c-0.809,1.116-1.62,2.23-2.436,3.341
		c-1.455,1.979-3.516,2.356-5.598,1.014c-2.206-1.423-4.431-2.817-6.595-4.302c-2.156-1.479-4.448-2.655-6.896-3.563
		c-2.065-0.766-2.656-2.061-2.004-4.178c0.229-0.743,0.45-1.49,0.698-2.229c0.67-1.996,2.821-2.648,4.439-1.319
		c0.498,0.409,0.764,0.61,1.116-0.162c0.371-0.813,1.308-1.053,2.144-0.704c1.086,0.454,1.74,1.568,1.552,2.864
		c-0.346,2.381,0.028,2.093,1.67,2.903c1.349,0.666,2.716,1.298,4.083,1.925c0.233,0.107,0.531,0.465,0.743,0.179
		c0.305-0.41,0.9-0.76,0.694-1.383c-0.215-0.65-0.027-1.156,0.316-1.679c1.483-2.26,2.936-4.54,4.439-6.785
		c1.252-1.87,3.022-3.042,5.188-3.626c0.426-0.115,0.851-0.244,1.285-0.318c1.699-0.29,3.214-0.87,4.253-2.369
		c0.319-0.46,0.758-0.834,1.39-0.927c0.368-0.055,0.375-1.023-0.009-1.282c-2.058-1.388-3.387-3.266-3.869-5.713
		c-0.062-0.317-0.253-0.314-0.492-0.365c-3.343-0.711-4.618-4.062-2.554-6.75c0.237-0.309,0.249-0.6,0.256-0.935
		c0.032-1.559-0.141-3.129,0.22-4.668c0.926-3.955,4.087-6.701,8.131-7.054c1.245-0.108,2.496-0.126,3.742,0.018
		c1.206,0.138,2.24,0.656,3.078,1.526c0.284,0.295,0.493,0.383,0.923,0.256c3.469-1.029,6.78,1.362,6.904,4.993
		c0.059,1.716,0.021,3.436,0.014,5.154c-0.001,0.374,0.068,0.694,0.282,1.022c1.685,2.598,0.368,5.79-2.651,6.406
		c-0.414,0.084-0.584,0.184-0.685,0.631c-0.502,2.252-1.728,4.051-3.644,5.333c-0.45,0.301-0.406,0.647-0.438,1.055
		c-0.042,0.533,0.409,0.348,0.639,0.474c0.865,0.475,1.47,1.236,2.09,1.96c0.272,0.316,0.529,0.529,0.921,0.629
		c1.156,0.295,2.309,0.608,3.464,0.909c2.314,0.604,4.133,1.895,5.438,3.905c1.401,2.158,2.808,4.312,4.22,6.463
		c0.356,0.541,0.585,1.065,0.346,1.747c-0.208,0.594,0.378,0.921,0.65,1.327c0.258,0.384,0.56-0.019,0.803-0.131
		c1.672-0.773,3.324-1.589,4.999-2.356c0.661-0.304,0.957-0.751,0.858-1.475c-0.063-0.463-0.132-0.931-0.137-1.396
		c-0.012-0.983,0.404-1.764,1.238-2.291c0.984-0.621,2.057-0.368,2.568,0.669c0.266,0.538,0.458,0.484,0.854,0.165
		c1.901-1.531,3.973-0.903,4.689,1.406c0.269,0.867,0.561,1.729,0.789,2.607c0.37,1.422-0.268,2.724-1.603,3.344
		c-0.376,0.175-0.759,0.34-1.152,0.471c-3.862,1.284-6.96,3.894-10.36,5.979c-0.93,0.57-1.822,1.202-2.752,1.772
		c-1.91,1.171-3.973,0.769-5.309-1.027c-0.838-1.126-1.651-2.271-2.483-3.402c-0.132-0.178-0.202-0.46-0.494-0.438
		c-0.891,0.064-1.359-0.507-1.809-1.143c-0.356-0.506-0.747-0.986-1.153-1.517c-0.204,0.26-0.114,0.524-0.114,0.76
		c-0.007,3.437-0.027,6.874,0.01,10.31c0.01,0.956-0.225,1.713-1.063,2.223C46.122,82.5,39.039,82.5,31.956,82.5z"/>
	<path fill-rule="evenodd" clip-rule="evenodd" fill="#010101" d="M21.018,2.5c0.438,0.469,0.67,2.138,0.372,2.688
		c-0.146,0.271-0.369,0.432-0.685,0.432c-0.315,0-0.539-0.162-0.685-0.432c-0.298-0.551-0.063-2.223,0.373-2.688
		C20.602,2.5,20.81,2.5,21.018,2.5z"/>
	<path fill-rule="evenodd" clip-rule="evenodd" fill="#010101" d="M27.268,2.5c0.438,0.469,0.67,2.138,0.372,2.688
		c-0.146,0.271-0.369,0.432-0.685,0.432s-0.538-0.162-0.685-0.432c-0.298-0.551-0.063-2.223,0.373-2.688
		C26.852,2.5,27.06,2.5,27.268,2.5z"/>
	<path fill-rule="evenodd" clip-rule="evenodd" fill="#010101" d="M24.143,2.5c0.438,0.469,0.67,2.138,0.372,2.688
		c-0.146,0.271-0.369,0.432-0.685,0.432s-0.539-0.162-0.685-0.432c-0.298-0.551-0.063-2.223,0.373-2.688
		C23.727,2.5,23.935,2.5,24.143,2.5z"/>
	<path fill-rule="evenodd" clip-rule="evenodd" d="M14.314,45.87c-2.994,0-5.988,0.002-8.981-0.001
		c-1.46-0.001-1.924-0.462-1.925-1.911c-0.003-3.566-0.003-7.133,0-10.699c0.001-1.461,0.44-1.904,1.925-1.883
		c0.548,0.008,0.991-0.015,1.195-0.656c0.103-0.324,0.473-0.454,0.791-0.588c2.055-0.867,4.143-0.942,6.235-0.192
		c0.569,0.203,1.039,0.227,1.614,0.015c2.088-0.77,4.176-0.69,6.234,0.165c0.318,0.132,0.721,0.254,0.799,0.572
		c0.196,0.806,0.782,0.674,1.34,0.677c1.321,0.006,1.799,0.467,1.802,1.779c0.007,3.645,0.007,7.289,0,10.934
		c-0.002,1.285-0.512,1.784-1.813,1.787C20.458,45.874,17.386,45.87,14.314,45.87z"/>
	<path fill-rule="evenodd" clip-rule="evenodd" d="M68.175,6.887c0.028,0.758-0.072,1.501-0.263,2.236
		c-0.518,1.989-1.782,3.322-3.745,3.786c-1.098,0.259-1.842,0.838-2.574,1.587c-0.316,0.323-0.366,0.488-0.022,0.838
		c1.113,1.132,2.195,2.295,3.263,3.47c0.568,0.625,0.74,1.367,0.405,2.171c-0.317,0.76-0.898,1.193-1.72,1.282
		c-0.698,0.075-1.26-0.215-1.755-0.682c-1.153-1.092-2.339-2.15-3.454-3.279c-0.446-0.452-0.685-0.374-1.088,0.021
		c-1.113,1.094-2.267,2.148-3.411,3.211c-1.017,0.943-2.201,0.995-3.06,0.146c-0.871-0.86-0.834-2.023,0.114-3.051
		c1.042-1.128,2.089-2.252,3.151-3.36c0.243-0.254,0.303-0.397,0.011-0.67c-0.771-0.718-1.461-1.404-2.609-1.683
		c-2.801-0.678-4.211-3.021-4.096-6.363c0.059-1.708,0.704-2.212,2.385-1.848c0.516,0.112,1.035,0.13,1.554,0.087
		c2.51-0.206,4.058,0.705,4.878,3.766C56.39,9.49,56.9,10.097,57.536,10.7c0.1,0.094,0.214,0.286,0.37,0.099
		c0.485-0.583,1.263-0.938,1.365-1.823c0.085-0.73,0.373-1.4,0.726-2.043c0.798-1.452,1.985-2.227,3.678-2.159
		c0.908,0.037,1.805,0.036,2.708-0.206c0.866-0.232,1.655,0.393,1.784,1.306C68.214,6.205,68.175,6.549,68.175,6.887z"/>
	<path fill-rule="evenodd" clip-rule="evenodd" d="M28.57,15.893c1.622,0.182,2.22,1.142,1.609,2.661
		c-0.512,1.271-1.487,2.024-2.866,2.054c-2.316,0.051-4.635,0.035-6.952,0.007c-1.343-0.017-2.521-0.938-2.931-2.193
		c-0.486-1.491,0.085-2.37,1.725-2.526c-1.361-1.183-2.318-2.566-2.738-4.286c-0.212-0.868-0.296-1.745-0.216-2.632
		c0.105-1.169,0.77-1.784,1.942-1.786c3.802-0.007,7.604,0,11.406-0.005c0.705-0.001,1.3,0.223,1.626,0.864
		c0.176,0.346,0.398,0.403,0.733,0.394c0.389-0.011,0.788-0.025,1.167,0.045c1.792,0.335,2.803,2.146,2.182,3.87
		c-0.609,1.689-2.236,2.881-4.041,2.947c-0.494,0.019-0.991,0.035-1.483-0.001C29.212,15.266,28.835,15.442,28.57,15.893z"/>
	<path fill-rule="evenodd" clip-rule="evenodd" d="M74.728,39.033c0-1.547,0-3.049,0-4.604c-2.497,0.53-4.957,1.06-7.422,1.571
		c-0.418,0.087-0.345,0.373-0.345,0.65c0,2.368,0.012,4.737-0.003,7.105c-0.01,1.652-1.227,2.996-2.787,3.124
		c-1.681,0.137-3.058-0.904-3.389-2.562c-0.402-2.019,1.454-3.945,3.486-3.607c0.355,0.06,0.7,0.179,1.063,0.273
		c0.137-0.235,0.062-0.495,0.062-0.74c0.007-2.707,0.018-5.414-0.004-8.12c-0.006-0.694,0.263-1.043,0.946-1.185
		c2.848-0.592,5.689-1.214,8.533-1.826c1.117-0.24,1.442,0.012,1.444,1.139c0.006,3.799,0.017,7.6,0.011,11.398
		c-0.002,1.707-1.204,3.075-2.787,3.217c-1.649,0.147-3.052-0.859-3.405-2.445c-0.335-1.505,0.572-3.079,2.068-3.583
		C73.057,38.549,73.889,38.686,74.728,39.033z"/>
	<path fill-rule="evenodd" clip-rule="evenodd" fill="#87D047" d="M65.194,59.421c-0.538-0.035-0.93-0.367-0.899-1.024
		c0.025-0.557-0.184-0.72-0.716-0.702c-0.606,0.021-0.996-0.309-1.002-0.938c-0.007-0.667,0.395-1.022,1.035-0.99
		c0.574,0.028,0.699-0.204,0.683-0.722c-0.021-0.611,0.318-0.977,0.946-0.996c0.64-0.02,1.004,0.382,1.009,0.953
		c0.005,0.63,0.239,0.784,0.82,0.776c0.593-0.007,0.902,0.418,0.896,0.97c-0.006,0.556-0.333,0.971-0.924,0.938
		c-0.636-0.035-0.779,0.229-0.792,0.805C66.237,59.039,65.908,59.403,65.194,59.421z"/>
	<path fill-rule="evenodd" clip-rule="evenodd" fill="#F4C74C" d="M8.916,16.582c1.414-0.45,2.314-1.34,2.745-2.948
		c0.465,1.591,1.364,2.497,2.937,2.939c-1.55,0.466-2.482,1.318-2.897,2.877C11.185,17.983,10.365,16.983,8.916,16.582z"/>
	<path fill-rule="evenodd" clip-rule="evenodd" fill="#71D6F8" d="M60.317,31.127c-0.409-1.001-0.943-1.674-2.082-1.969
		c1.056-0.391,1.739-0.929,2.003-2.07c0.402,1.075,0.996,1.703,2.031,2.027C61.273,29.477,60.575,30.01,60.317,31.127z"/>
	<path fill-rule="evenodd" clip-rule="evenodd" fill="#F4C84D" d="M69.201,50.487c-0.604-0.003-1.018-0.414-1.024-1.02
		c-0.008-0.639,0.432-1.068,1.072-1.047c0.592,0.02,1.009,0.462,0.995,1.056C70.231,50.072,69.801,50.489,69.201,50.487z"/>
	<path fill-rule="evenodd" clip-rule="evenodd" fill="#FB667F" d="M16.496,24.771c-0.003,0.594-0.433,1.024-1.026,1.03
		c-0.635,0.007-1.065-0.438-1.044-1.08c0.021-0.6,0.449-1.002,1.055-0.989C16.074,23.743,16.5,24.179,16.496,24.771z"/>
	<path fill-rule="evenodd" clip-rule="evenodd" fill="#70D5F8" d="M42.562,80.943c-3.124,0-6.248-0.016-9.371,0.015
		c-0.579,0.005-0.742-0.131-0.738-0.727c0.027-4.373,0.015-8.747,0.013-13.12c0-0.36,0.064-0.759-0.282-1.007
		c-0.525-0.376-0.918-0.138-1.256,0.312c-0.859,1.144-1.736,2.275-2.578,3.432c-0.249,0.341-0.403,0.413-0.771,0.124
		c-1.555-1.221-3.131-2.415-4.72-3.591c-0.359-0.266-0.354-0.448-0.123-0.798c1.437-2.166,2.833-4.359,4.279-6.521
		c0.991-1.48,2.379-2.46,4.092-2.947c1.373-0.391,2.762-0.726,4.135-1.117c0.341-0.098,0.525,0.025,0.74,0.243
		c0.839,0.854,1.688,1.7,2.54,2.541c0.836,0.825,1.515,0.829,2.356,0.02c0.394-0.378,0.806-0.745,1.151-1.166
		c0.415-0.504,0.73-0.437,1.125,0.021c0.39,0.453,0.827,0.866,1.267,1.272c0.69,0.638,1.395,0.646,2.073-0.007
		c0.901-0.865,1.777-1.757,2.652-2.648c0.233-0.238,0.433-0.377,0.806-0.269c1.321,0.384,2.655,0.723,3.983,1.081
		c1.809,0.488,3.241,1.513,4.273,3.069c1.409,2.123,2.785,4.268,4.194,6.391c0.243,0.366,0.269,0.563-0.132,0.856
		c-1.572,1.154-3.123,2.34-4.655,3.548c-0.393,0.311-0.558,0.242-0.829-0.136c-0.804-1.12-1.653-2.206-2.482-3.308
		c-0.275-0.367-0.57-0.718-1.095-0.539c-0.532,0.181-0.52,0.648-0.52,1.102c0.004,4.373-0.009,8.747,0.022,13.12
		c0.005,0.631-0.182,0.766-0.779,0.76c-3.124-0.029-6.248-0.013-9.372-0.013C42.562,80.939,42.562,80.941,42.562,80.943z"/>
	<path fill-rule="evenodd" clip-rule="evenodd" fill="#F8CFB3" d="M49.798,39.627c-0.075,1.207,0.148,2.671-0.158,4.113
		c-0.749,3.517-4.059,6.034-7.508,5.715c-3.847-0.354-6.661-3.246-6.752-6.991c-0.046-1.873,0-3.747-0.026-5.62
		c-0.006-0.466,0.071-0.629,0.595-0.568c3.038,0.348,5.719-0.42,7.897-2.65c0.205-0.211,0.339-0.306,0.634-0.078
		c1.401,1.08,3.037,1.573,4.771,1.723c0.522,0.045,0.562,0.261,0.556,0.677C49.785,37.092,49.798,38.236,49.798,39.627z"/>
	<path fill-rule="evenodd" clip-rule="evenodd" fill="#754E34" d="M52.607,32.87c0.001,0.677,0.017,1.354-0.008,2.03
		c-0.009,0.223,0.165,0.653-0.196,0.627c-0.354-0.025-0.872,0.069-1.05-0.466c-0.407-1.231-0.448-1.226-1.729-1.321
		c-1.635-0.122-3.156-0.573-4.46-1.641c-0.976-0.799-1.447-0.693-2.29,0.266c-1.692,1.925-3.892,2.606-6.38,2.427
		c-0.964-0.07-1.871-0.432-2.727,0.484c-0.515,0.552-1,0.217-1.03-0.556c-0.082-2.089,0.107-4.104,1.388-5.872
		c1.533-2.117,3.653-3.1,6.209-3.189c0.931-0.033,1.866-0.071,2.802,0.081c1.067,0.174,1.918,0.68,2.517,1.546
		c0.419,0.606,0.838,0.734,1.506,0.416c2.969-1.415,5.675,1.043,5.456,3.451C52.563,31.722,52.607,32.298,52.607,32.87z"/>
	<path fill-rule="evenodd" clip-rule="evenodd" fill="#F8CFB3" d="M21.569,75.813c-0.508,0.035-0.977-0.247-1.438-0.547
		c-2.07-1.346-4.168-2.65-6.202-4.05c-2.368-1.63-4.862-2.984-7.571-3.954c-1.226-0.438-1.43-0.933-1.051-2.152
		c0.223-0.719,0.448-1.438,0.68-2.153c0.375-1.157,1.191-1.399,2.135-0.638c0.081,0.064,0.156,0.138,0.237,0.202
		c1.04,0.815,2.301,0.609,2.897-0.556c0.337-0.659,0.553-0.33,0.806-0.014c0.225,0.28,0.217,0.627,0.176,0.972
		c-0.049,0.413-0.106,0.826-0.128,1.241c-0.063,1.188,0.444,2.073,1.507,2.592c2.029,0.99,4.07,1.959,6.115,2.916
		c0.762,0.356,1.206,0.18,1.772-0.611c0.822-1.149,0.822-1.148,1.926-0.304c0.827,0.632,1.645,1.274,2.488,1.884
		c0.333,0.24,0.426,0.402,0.138,0.776c-0.856,1.113-1.666,2.262-2.491,3.397C23.091,75.47,22.466,75.831,21.569,75.813z"/>
	<path fill-rule="evenodd" clip-rule="evenodd" fill="#F8CFB3" d="M73.05,63.941c-0.029-0.243-0.08-0.683-0.135-1.121
		c-0.044-0.351,0.003-0.687,0.246-0.95c0.24-0.26,0.431-0.504,0.719,0.052c0.646,1.243,1.896,1.434,3.003,0.536
		c1.165-0.944,1.919-0.733,2.359,0.668c0.242,0.768,0.482,1.536,0.7,2.311c0.229,0.814-0.029,1.361-0.799,1.702
		c-0.474,0.21-0.958,0.401-1.448,0.57c-3.369,1.159-6.125,3.38-9.089,5.239c-1.233,0.773-2.438,1.592-3.664,2.375
		c-1.344,0.857-2.504,0.634-3.453-0.655c-0.801-1.089-1.578-2.196-2.396-3.272c-0.25-0.329-0.203-0.487,0.112-0.719
		c1.089-0.802,2.166-1.621,3.228-2.458c0.312-0.245,0.464-0.248,0.717,0.092c1.348,1.812,1.36,1.807,3.365,0.859
		c1.619-0.765,3.233-1.539,4.851-2.309C72.514,66.316,73.117,65.435,73.05,63.941z"/>
	<path fill-rule="evenodd" clip-rule="evenodd" fill="#F7CFB3" d="M42.67,54.704c-0.267,0.01-0.449-0.021-0.616-0.191
		c-0.78-0.798-1.584-1.572-2.359-2.375c-0.452-0.467,0.003-0.966,0.027-1.448c0.007-0.141,0.271-0.051,0.411-0.01
		c1.636,0.479,3.273,0.483,4.907-0.01c0.319-0.097,0.418-0.022,0.506,0.329c0.169,0.672,0.044,1.148-0.51,1.605
		c-0.637,0.526-1.186,1.16-1.773,1.747C43.08,54.532,42.935,54.779,42.67,54.704z"/>
	<path fill-rule="evenodd" clip-rule="evenodd" fill="#F6CDB2" d="M51.36,39.51c-0.001-0.676,0.027-1.354-0.01-2.027
		c-0.028-0.533,0.215-0.547,0.609-0.42c1.006,0.321,1.757,1.432,1.708,2.538c-0.048,1.085-0.849,2.075-1.857,2.351
		c-0.348,0.095-0.467,0.037-0.456-0.335C51.374,40.914,51.36,40.212,51.36,39.51z"/>
	<path fill-rule="evenodd" clip-rule="evenodd" fill="#F6CEB2" d="M33.801,39.577c0,0.676-0.012,1.353,0.005,2.028
		c0.009,0.353-0.08,0.448-0.447,0.351c-1.004-0.269-1.816-1.261-1.868-2.344c-0.053-1.105,0.695-2.21,1.699-2.549
		c0.488-0.165,0.647-0.025,0.62,0.485C33.774,38.224,33.802,38.901,33.801,39.577z"/>
	<path fill-rule="evenodd" clip-rule="evenodd" fill="#9AE4F8" d="M45.349,56.82c-0.308-0.364-0.642-0.724-0.933-1.114
		c-0.252-0.339,0.156-0.433,0.3-0.583c0.697-0.733,1.44-1.423,2.132-2.162c0.306-0.327,0.514-0.35,0.788,0.003
		c0.159,0.203,0.356,0.378,0.549,0.552c0.188,0.171,0.224,0.307,0.019,0.507c-0.854,0.836-1.691,1.686-2.537,2.529
		C45.611,56.606,45.548,56.652,45.349,56.82z"/>
	<path fill-rule="evenodd" clip-rule="evenodd" fill="#9AE4F8" d="M40.907,55.644c-0.358,0.328-0.692,0.7-1.092,0.979
		c-0.311,0.217-0.42-0.193-0.579-0.345c-0.714-0.679-1.382-1.409-2.107-2.076c-0.358-0.329-0.385-0.551,0.004-0.845
		c0.205-0.155,0.376-0.357,0.553-0.547c0.149-0.159,0.273-0.196,0.449-0.019c0.857,0.868,1.724,1.727,2.586,2.59
		C40.773,55.434,40.807,55.502,40.907,55.644z"/>
	<path fill-rule="evenodd" clip-rule="evenodd" fill="#6FD4F7" d="M14.339,44.31c-2.862,0-5.724-0.014-8.586,0.012
		c-0.581,0.005-0.808-0.104-0.801-0.76c0.037-3.304,0.025-6.607,0.008-9.912c-0.003-0.497,0.061-0.734,0.657-0.743
		c0.64-0.01,0.629,0.303,0.627,0.762c-0.013,2.419-0.012,4.839-0.004,7.259c0.005,1.71,0.705,2.212,2.316,1.696
		c1.732-0.555,3.435-0.467,5.08,0.313c0.515,0.245,0.964,0.248,1.479,0.003c1.671-0.798,3.399-0.866,5.155-0.297
		c1.506,0.488,2.234-0.028,2.243-1.635c0.012-2.445,0.01-4.891-0.002-7.337c-0.002-0.454-0.022-0.775,0.623-0.765
		c0.591,0.011,0.664,0.239,0.661,0.74c-0.019,3.305-0.029,6.608,0.007,9.912c0.007,0.65-0.211,0.769-0.798,0.763
		C20.115,44.295,17.227,44.31,14.339,44.31z"/>
	<path fill-rule="evenodd" clip-rule="evenodd" fill="#EBF2FA" d="M20.95,36.407c0,1.38-0.013,2.759,0.008,4.139
		c0.007,0.463-0.047,0.671-0.598,0.503c-1.528-0.466-3.079-0.464-4.608-0.005c-0.532,0.159-0.606-0.013-0.603-0.49
		c0.017-2.784,0.02-5.569-0.003-8.354c-0.004-0.482,0.169-0.673,0.61-0.815c1.51-0.487,3.004-0.499,4.521-0.03
		c0.489,0.15,0.71,0.355,0.691,0.916C20.918,33.647,20.951,35.028,20.95,36.407z"/>
	<path fill-rule="evenodd" clip-rule="evenodd" fill="#ECF3FB" d="M13.594,36.381c0,1.404-0.014,2.809,0.008,4.213
		c0.007,0.465-0.103,0.588-0.576,0.448c-1.558-0.458-3.128-0.45-4.685,0.015c-0.41,0.122-0.549,0.043-0.546-0.406
		c0.015-2.86,0.017-5.722,0-8.582c-0.002-0.396,0.177-0.546,0.503-0.656c1.608-0.544,3.208-0.535,4.816,0.002
		c0.397,0.133,0.493,0.366,0.488,0.753C13.583,33.571,13.594,34.977,13.594,36.381z"/>
	<path fill-rule="evenodd" clip-rule="evenodd" fill="#F4C74C" d="M66.597,6.118c0.107,1.004,0.051,1.953-0.261,2.877
		c-0.511,1.511-1.646,2.276-3.145,2.565c-0.704,0.137-2.491-1.825-2.348-2.529c0.127-0.619,0.396-1.172,0.747-1.694
		c0.437-0.651,1.018-0.993,1.821-0.991C64.471,6.35,65.538,6.459,66.597,6.118z"/>
	<path fill-rule="evenodd" clip-rule="evenodd" fill="#F4C74C" d="M48.875,6.911c-0.107-0.554,0.061-0.872,0.809-0.644
		c0.551,0.168,1.135,0.095,1.706,0.081c1.858-0.044,2.497,0.415,3.148,2.137c0.269,0.708,0.286,1.283-0.396,1.757
		c-0.21,0.146-0.37,0.362-0.554,0.546c-0.958,0.956-1.179,0.998-2.419,0.41C49.4,10.357,48.929,8.799,48.875,6.911z"/>
	<path fill-rule="evenodd" clip-rule="evenodd" fill="#CF946C" d="M57.004,14.949c1.003-1.166,0.996-1.16,2.02-0.063
		c1.456,1.561,2.928,3.106,4.384,4.666c0.254,0.272,0.671,0.571,0.264,0.98c-0.393,0.394-0.706,0.029-0.989-0.237
		C60.787,18.515,58.896,16.73,57.004,14.949z"/>
	<path fill-rule="evenodd" clip-rule="evenodd" fill="#CF936C" d="M55.763,15.736c0.255,0.32,0.529,0.604,0.727,0.933
		c0.149,0.249-0.165,0.342-0.295,0.466c-1.124,1.074-2.261,2.133-3.392,3.199c-0.271,0.257-0.568,0.556-0.929,0.221
		c-0.375-0.348-0.075-0.647,0.181-0.921c1.081-1.152,2.159-2.308,3.24-3.461C55.397,16.063,55.515,15.967,55.763,15.736z"/>
	<path fill-rule="evenodd" clip-rule="evenodd" fill="#E9F0F8" d="M55.731,10.889c0.189,0.27,0.338,0.548,0.549,0.767
		c0.862,0.896,0.845,0.867,0.008,1.77c-0.447,0.483-0.73,0.595-1.235,0.031c-0.911-1.017-0.952-0.981,0.011-1.939
		C55.227,11.354,55.398,11.201,55.731,10.889z"/>
	<path fill-rule="evenodd" clip-rule="evenodd" fill="#EBF2FA" d="M61.337,12.467c0.004,0.124-1.1,1.25-1.216,1.241
		c-0.153-0.011-1.308-1.334-1.299-1.487c0.011-0.167,0.95-1.134,1.105-1.138C60.051,11.081,61.333,12.34,61.337,12.467z"/>
	<path fill-rule="evenodd" clip-rule="evenodd" fill="#ECF3FB" d="M23.884,8.75c1.768,0,3.537,0.018,5.305-0.011
		c0.519-0.008,0.724,0.117,0.743,0.679c0.125,3.538-2.658,6.523-6.115,6.518c-3.45-0.006-6.243-3.025-6.084-6.547
		c0.023-0.505,0.18-0.659,0.691-0.65C20.243,8.77,22.064,8.75,23.884,8.75z"/>
	<path fill-rule="evenodd" clip-rule="evenodd" fill="#ECF3FB" d="M23.91,17.5c1.482,0,2.964,0.016,4.446-0.009
		c0.482-0.007,0.52,0.15,0.344,0.537c-0.299,0.659-0.803,1.022-1.518,1.026c-2.235,0.015-4.472,0.015-6.708,0
		c-0.715-0.004-1.214-0.372-1.516-1.029c-0.182-0.396-0.122-0.54,0.349-0.533C20.842,17.514,22.376,17.5,23.91,17.5z"/>
	<path fill-rule="evenodd" clip-rule="evenodd" fill="#FDFDFD" d="M30.405,13.721c0.583-1.098,0.97-2.237,1.064-3.462
		c0.008-0.104,0.009-0.239,0.131-0.24c0.638-0.007,1.314-0.168,1.851,0.338c0.471,0.442,0.526,0.984,0.298,1.566
		C33.258,13.176,32.103,13.807,30.405,13.721z"/>
	<path fill-rule="evenodd" clip-rule="evenodd" fill="#FB647D" d="M66.998,34.473c-0.115-2.067-0.113-2.059,1.711-2.436
		c1.827-0.378,3.653-0.759,5.472-1.177c0.462-0.106,0.574-0.023,0.582,0.448c0.026,1.512,0.043,1.507-1.422,1.815
		C71.237,33.567,69.137,34.018,66.998,34.473z"/>
	<path fill-rule="evenodd" clip-rule="evenodd" fill="#FA647D" d="M63.818,42.232c0.823-0.019,1.549,0.676,1.573,1.506
		c0.024,0.854-0.626,1.554-1.476,1.586c-0.879,0.032-1.619-0.662-1.625-1.527C62.285,42.977,62.993,42.25,63.818,42.232z"/>
	<path fill-rule="evenodd" clip-rule="evenodd" fill="#FA647D" d="M73.166,43.316c-0.857-0.009-1.523-0.678-1.524-1.528
		c0-0.878,0.714-1.561,1.602-1.532c0.857,0.028,1.49,0.698,1.486,1.572C74.725,42.667,74.033,43.325,73.166,43.316z"/>
	<path fill-rule="evenodd" clip-rule="evenodd" fill="#010101" d="M42.43,46.093c-0.831-0.027-1.786-0.36-2.566-1.124
		c-0.378-0.37-0.536-0.8-0.122-1.223c0.375-0.382,0.77-0.279,1.167,0.051c1.205,1.003,2.402,1.01,3.562,0.021
		c0.419-0.357,0.829-0.468,1.217-0.032c0.361,0.404,0.213,0.801-0.134,1.165C44.884,45.653,43.783,46.099,42.43,46.093z"/>
	<path fill-rule="evenodd" clip-rule="evenodd" fill="#030202" d="M40.528,39.588c-0.015,0.609-0.55,1.111-1.168,1.098
		c-0.617-0.014-1.133-0.545-1.116-1.15c0.018-0.613,0.548-1.113,1.167-1.1C40.026,38.45,40.543,38.982,40.528,39.588z"/>
	<path fill-rule="evenodd" clip-rule="evenodd" fill="#030202" d="M44.633,39.567c-0.002-0.606,0.521-1.129,1.136-1.132
		c0.616-0.004,1.143,0.51,1.147,1.12c0.006,0.605-0.521,1.13-1.136,1.133C45.162,40.691,44.636,40.177,44.633,39.567z"/>
	<path fill-rule="evenodd" clip-rule="evenodd" fill="#020202" d="M17.915,39.381c-0.31,0-0.619,0.003-0.929-0.001
		c-0.456-0.005-0.738-0.249-0.793-0.687c-0.058-0.454,0.21-0.771,0.63-0.84c0.766-0.123,1.549-0.125,2.315,0.006
		c0.387,0.066,0.64,0.369,0.61,0.783c-0.031,0.436-0.291,0.712-0.749,0.732c-0.361,0.017-0.723,0.003-1.084,0.003
		C17.915,39.379,17.915,39.38,17.915,39.381z"/>
	<path fill-rule="evenodd" clip-rule="evenodd" fill="#020202" d="M17.964,33.98c-0.335,0.023-0.672,0.076-1.005,0.063
		c-0.443-0.019-0.733-0.278-0.768-0.722c-0.035-0.448,0.219-0.745,0.659-0.814c0.744-0.117,1.497-0.116,2.241,0
		c0.44,0.069,0.694,0.375,0.654,0.819c-0.039,0.437-0.329,0.702-0.776,0.715C18.635,34.052,18.299,34.003,17.964,33.98z"/>
	<path fill-rule="evenodd" clip-rule="evenodd" fill="#020202" d="M17.982,36.662c-0.298,0.017-0.634,0.05-0.969,0.05
		c-0.487,0.001-0.792-0.26-0.822-0.74c-0.028-0.45,0.249-0.739,0.682-0.799c0.719-0.102,1.446-0.1,2.166-0.004
		c0.473,0.062,0.756,0.37,0.703,0.853c-0.047,0.432-0.338,0.69-0.793,0.691C18.639,36.713,18.329,36.682,17.982,36.662z"/>
	<path fill-rule="evenodd" clip-rule="evenodd" fill="#020202" d="M10.614,39.379c-0.31,0-0.62-0.004-0.929,0.001
		c-0.492,0.006-0.796-0.238-0.841-0.718c-0.042-0.454,0.237-0.756,0.661-0.817c0.742-0.107,1.499-0.11,2.24,0.003
		c0.425,0.064,0.698,0.379,0.653,0.826c-0.043,0.43-0.318,0.695-0.777,0.706c-0.335,0.008-0.671,0.001-1.006,0.001
		C10.614,39.381,10.614,39.38,10.614,39.379z"/>
	<path fill-rule="evenodd" clip-rule="evenodd" fill="#020202" d="M10.61,36.664c-0.349,0.019-0.659,0.055-0.968,0.048
		c-0.486-0.012-0.783-0.278-0.799-0.763c-0.015-0.452,0.266-0.726,0.701-0.781c0.72-0.092,1.446-0.095,2.166,0.004
		c0.436,0.06,0.713,0.353,0.688,0.796c-0.028,0.473-0.33,0.746-0.82,0.745C11.242,36.712,10.907,36.68,10.61,36.664z"/>
	<path fill-rule="evenodd" clip-rule="evenodd" fill="#020202" d="M10.622,33.979c-0.309,0.023-0.618,0.062-0.928,0.065
		c-0.482,0.006-0.808-0.238-0.848-0.719c-0.041-0.485,0.244-0.771,0.727-0.831c0.669-0.083,1.339-0.084,2.011-0.011
		c0.518,0.056,0.85,0.32,0.811,0.838c-0.04,0.512-0.402,0.755-0.921,0.724C11.189,34.029,10.906,34.001,10.622,33.979z"/>
</g>
</svg>
