<?xml version="1.0" encoding="utf-8"?>
<!-- Generator: Adobe Illustrator 16.0.0, SVG Export Plug-In . SVG Version: 6.00 Build 0)  -->
<!DOCTYPE svg PUBLIC "-//W3C//DTD SVG 1.1//EN" "http://www.w3.org/Graphics/SVG/1.1/DTD/svg11.dtd">
<svg version="1.1" id="Layer_1" xmlns="http://www.w3.org/2000/svg" xmlns:xlink="http://www.w3.org/1999/xlink" x="0px" y="0px"
	 width="85px" height="85px" viewBox="0 0 85 85" enable-background="new 0 0 85 85" xml:space="preserve">
<g>
	<path fill="#C3CCE0" d="M38.751,81.249c4.141,0,7.5-3.357,7.5-7.5c0,4.143,3.357,7.5,7.5,7.5H57.5H35"/>
	<path fill="#E4EAF6" d="M46.25,58.749L15.236,18.227c-0.594-0.826-0.002-1.979,1.017-1.979h59.996c1.018,0,1.609,1.152,1.016,1.979
		L46.25,58.749z"/>
	<polygon fill="#7DD2F0" points="46.25,58.749 56.057,45.937 36.445,45.937 	"/>
	<polygon fill="#82F0C8" points="31.181,39.061 36.445,45.937 56.057,45.937 61.318,39.061 57.656,39.061 	"/>
	<polygon fill="#FFE6AF" points="57.656,34.999 28.072,34.999 31.181,39.061 57.656,39.061 61.318,39.061 64.428,34.999 
		64.174,34.999 	"/>
	<path fill="#E4EAF6" d="M76.248,16.249H16.252c-1.019,0-1.608,1.152-1.017,1.979l12.836,16.771h29.583h6.52h0.254l12.836-16.771
		C77.857,17.401,77.266,16.249,76.248,16.249z"/>
	<path fill="#FFAA64" d="M17.5,21.249l-2.497,6.461C10.586,25.782,7.5,21.375,7.5,16.249c0-6.904,5.597-12.5,12.5-12.5
		s12.5,5.596,12.5,12.5c0,4.627-4.192,10.596-9.219,12.5C22.595,27.864,17.5,21.249,17.5,21.249"/>
	<path fill="#FFD77D" d="M17.812,20.624L16.25,24.53c-3.147-1.375-5.155-4.58-5.155-8.23c0-4.92,3.986-8.906,8.905-8.906
		s8.905,3.986,8.905,8.906c0,3.295-3.328,7.705-7.188,9.324C21.548,25.512,17.812,20.624,17.812,20.624"/>
	<path fill="#D7DEED" d="M16.252,16.249c-1.019,0-1.608,1.152-1.017,1.979L46.25,58.749l0.678-0.883L27.32,16.249H16.252z"/>
	<path fill="#2D2B29" d="M78.473,16.358C78.041,15.52,77.189,15,76.248,15H47.5v-3.102c0-0.559,0.377-1.055,0.916-1.203l20.67-5.742
		c0.664-0.186,1.055-0.875,0.867-1.539C69.77,2.75,69.08,2.36,68.416,2.545l-20.67,5.74C46.131,8.735,45,10.221,45,11.899V15H33.693
		C33.058,8.002,27.161,2.5,20,2.5c-7.582,0-13.75,6.168-13.75,13.75c0,5.469,3.239,10.418,8.253,12.605
		c0.16,0.07,0.33,0.105,0.5,0.105c0.164,0,0.328-0.033,0.48-0.098c0.314-0.131,0.562-0.385,0.686-0.703l1.709-4.424L45,59.175
		v14.576c0,3.445-2.803,6.25-6.25,6.25H35c-0.689,0-1.25,0.559-1.25,1.25c0,0.689,0.561,1.25,1.25,1.25h22.5
		c0.689,0,1.25-0.561,1.25-1.25c0-0.691-0.561-1.25-1.25-1.25h-3.75c-3.445,0-6.25-2.805-6.25-6.25V59.175l30.756-40.186
		c0.008-0.01,0.016-0.02,0.021-0.029C78.828,18.192,78.902,17.196,78.473,16.358z M28.693,33.752L16.253,17.499h14.926
		c-0.396,3.52-2.449,6.699-5.555,8.496c-0.598,0.346-0.803,1.109-0.456,1.707c0.347,0.6,1.11,0.803,1.708,0.457
		c3.876-2.242,6.409-6.25,6.814-10.66H45v16.25H28.75C28.73,33.749,28.711,33.75,28.693,33.752z M14.335,25.971
		c-3.43-2-5.585-5.688-5.585-9.723c0-6.203,5.047-11.25,11.25-11.25c5.781,0,10.556,4.383,11.179,10H16.253
		c-0.941,0-1.794,0.521-2.225,1.359c-0.43,0.838-0.355,1.834,0.193,2.6c0.008,0.01,0.016,0.021,0.023,0.029l1.854,2.422
		L14.335,25.971z M47.635,79.999h-2.77c0.531-0.521,0.998-1.107,1.385-1.748C46.637,78.892,47.104,79.478,47.635,79.999z
		 M63.809,33.752c-0.02-0.002-0.039-0.004-0.059-0.004H60c-0.689,0-1.25,0.561-1.25,1.25s0.561,1.25,1.25,1.25h1.896L46.25,56.692
		L30.603,36.249H45v15c0,0.689,0.561,1.25,1.25,1.25s1.25-0.561,1.25-1.25v-15H55c0.689,0,1.25-0.561,1.25-1.25
		s-0.561-1.25-1.25-1.25h-7.5v-16.25h28.746L63.809,33.752z"/>
</g>
</svg>
