<?xml version="1.0" encoding="utf-8"?>
<!-- Generator: Adobe Illustrator 16.0.0, SVG Export Plug-In . SVG Version: 6.00 Build 0)  -->
<!DOCTYPE svg PUBLIC "-//W3C//DTD SVG 1.1//EN" "http://www.w3.org/Graphics/SVG/1.1/DTD/svg11.dtd">
<svg version="1.1" id="Layer_1" xmlns="http://www.w3.org/2000/svg" xmlns:xlink="http://www.w3.org/1999/xlink" x="0px" y="0px"
	 width="85px" height="85px" viewBox="0 0 85 85" enable-background="new 0 0 85 85" xml:space="preserve">
<g>
	<path fill="#FDD2B4" d="M67.16,81.723c-0.246-2.998-0.566-6.072-0.99-9.123c-2.389-17.285-8.412-40.053-8.412-40.053
		s-3.967-8.884-10.014-14.472c-6.047-5.589-15.918-1.18-15.918-1.18l-6.293,11.098c-0.811,1.297-0.67,4.357-0.896,5.837
		c-0.539,3.501-1.408,7.103-1.314,10.635c0.209,7.84-0.533,15.791-0.916,23.67c-0.215,4.449,0.191,9.035,0.668,13.588H67.16
		L67.16,81.723z"/>
	<path fill="#FEE3CE" d="M52.527,45.541c0.338-1.449,0.445-2.964,0.389-4.454c-0.105-2.812-0.768-5.567-1.424-8.303
		c-1.465-6.083-2.398-12.51-8.459-15.8c-3.9-2.118-7.35,0.128-10.125,2.848c-0.869,0.854-1.479,1.934-1.998,3.035
		c-3.207,6.827-4.285,14.311-3.738,21.787c0.213,2.924,0.631,6.178,2.902,8.029c2.756-3.123,5.443-4.545,9.701-4.117
		c3.186,0.32,6.324,1.096,9.537,1.428c0.355,0.037,0.736,0.072,1.059-0.086c0.301-0.145,0.506-0.434,0.684-0.717
		C51.752,48.066,52.23,46.83,52.527,45.541L52.527,45.541z M27.604,64.742c1.574,1.025,3.375,1.703,5.234,1.971
		c-1.459,0.725-2.918,1.447-4.379,2.17c0.643,0.434,1.283,0.867,1.926,1.301c-1.6-1.08-2.389,0.619-2.754,3.119
		c-0.396,2.715-0.295,6.361-0.188,8.422h28.195c-0.855-3.189-1.863-6.338-3.027-9.428c-0.301-0.799-0.637-1.627-1.285-2.182
		c-0.934-0.799-2.275-0.842-3.506-0.826c-4.863,0.062-9.357,0.086-14.08-0.188c2.066-1.859,5.045-2.141,7.758-2.748
		c2.113-0.475,4.162-1.193,6.105-2.146c0.789-0.387,1.668-1.354,1.051-1.979c-0.91,0.098-1.939,0.07-2.59-0.57
		c-0.654-0.641-0.439-2.055,0.473-2.131c-5.771-0.992-11.766-0.676-17.402,0.92c-1.438,0.406-3.182,1.459-2.777,2.896
		C26.529,63.959,27.07,64.393,27.604,64.742L27.604,64.742z"/>
	<path fill="#EEBD9C" d="M23.154,70.043c1.963-1.451,4.232-2.486,6.613-3.023c-1.734,0.205-4.021,0.076-4.531-1.594
		c-0.186-0.602-0.059-1.252,0.127-1.852c0.916-2.955,3.33-5.404,6.275-6.361c3.586-1.164,7.535-0.17,11.24-0.877
		c1.85-0.354,3.518-1.053,5.188-1.896c1.572-0.791,3.002-1.27,4.143-2.736c0.803-1.033,1.375-2.221,1.941-3.398
		c0.389-0.809,0.775-1.615,1.166-2.424c0.098,0.932,0.07,1.867,0.039,2.801c-0.041,1.311-0.084,2.631-0.391,3.904
		c-0.598,2.49-2.506,3.984-4.619,5.26c2.32-0.934,5.16,0.889,5.684,3.334c0.52,2.445-0.965,5.039-3.146,6.26
		c-2.184,1.221-4.889,1.227-7.285,0.514c3.117,1.508,6.711,2.016,10.125,1.432c0.758-0.131,1.6-0.297,2.244,0.121
		c0.502,0.326,0.744,0.924,0.951,1.484c1.287,3.5,2.33,7.09,3.131,10.732h3.283c0.027-2.652,0.041-5.305,0.008-7.957
		c-0.088-6.789-1.709-13.582-2.783-20.309c-0.23-1.441-0.461-2.887-0.691-4.33c-0.531-3.318-1.061-6.636-1.59-9.955
		c-0.213-1.331-0.547-2.592-0.955-3.834l0.107-0.004c-0.496-1.346-1.035-2.672-1.611-3.98c-0.963-2.366-1.92-4.819-3.285-7.005
		c-0.701-1.128-1.494-2.197-2.367-3.199c-0.68-0.778-2.258-1.747-2.68-2.634c1.645,3.455,2.699,7.155,3.666,10.857
		c1.115,4.271,2.133,8.71,1.395,13.062c-0.617,3.627-2.797,7.469-6.271,9.032c-0.873,0.393-1.637,0.334-2.533,0.529
		c-1.102,0.24-2.152,0.797-3.25,1.09c-2.258,0.604-4.619,0.84-6.951,0.662c-1.988-0.148-3.994-0.602-5.688-1.65
		c-3.025-1.873-4.045-5.926-4.65-9.229c-0.502-2.738-0.443-5.543-0.383-8.325c-0.062,2.812-1.193,5.734-1.342,8.605
		c-0.133,2.541,0.305,4.898,0.188,7.445C23.369,57.08,23.096,63.547,23.154,70.043L23.154,70.043z"/>
	<path fill="#AF7B6E" d="M29.254,68.736c-2.332-0.201-4.947,0.547-6.908,1.824c-0.566,0.369-0.436,1.164,0.182,1.385
		c0.34,0.121,0.502,0.146,0.854,0.195c0.254,0.033,0.496-0.299,0.404-0.531c-0.133-0.334-0.197-0.477-0.402-0.777
		c-0.09,0.346-0.18,0.691-0.271,1.037c2.02-1.201,3.969-2.041,6.186-2.822C29.469,68.986,29.434,68.75,29.254,68.736L29.254,68.736z
		 M36.299,69.074c4.414,1.516,6.979-1.254,11.469-0.436c3.393,0.617,6.318,1.365,9.57-0.246c0.195-0.098,0.053-0.369-0.139-0.332
		c-2.584,0.51-4.734,0.912-7.361,0.439c-1.283-0.229-2.564-0.844-3.889-0.83c-1.852,0.016-0.705,0.059-2.486,0.516
		c-2.787,0.717-4.199,1.188-7.1,0.654C36.211,68.812,36.15,69.023,36.299,69.074L36.299,69.074z"/>
	<path fill="#C8A59A" d="M55.145,43.938c0.736-8.606-2.5-25.101-13.23-27.783C29.775,13.119,26.41,29.629,25.416,37.828
		c-1.031,8.522-0.893,16.383,9.432,17.079c9.045,0.611,18.643-1.162,20.324-10.949c0.018-0.094-0.131-0.139-0.15-0.041
		c-1.848,8.5-8.98,10.271-16.9,10.502c-2.625,0.076-7.158,0.338-9.191-1.482c-4.682-4.197-3.438-13.608-2.396-18.783
		c1.648-8.192,7.289-22.246,18.045-15.753c8.223,4.965,10.82,16.852,10.473,25.538C55.049,43.996,55.141,43.994,55.145,43.938
		L55.145,43.938z"/>
	<path fill="#E8A77C" d="M23.975,81.723c-0.434-11.719-0.166-23.479,0.738-35.166c0.658-8.493,0.551-24.906,9.482-29.998
		c6.879-3.922,14.514,3.082,18.605,8.072c6.021,7.344,5.906,15.172,7.385,24.023c1.869,11.199,4.189,21.789,4.91,33.068h1.787
		c-0.006-0.129-0.008-0.256-0.014-0.385c-0.592-14.252-3.914-27.814-5.873-41.857c-1.346-9.641-7.492-20.07-16.611-24.354
		C25.375,6.201,23.576,37.215,22.773,48.07c-0.83,11.242-0.898,22.438-0.5,33.652H23.975L23.975,81.723z"/>
	<path fill="#333333" d="M82.5,82.404h-80V2.596h80V82.404L82.5,82.404z M3.303,81.602h78.396V3.4H3.303V81.602z"/>
</g>
</svg>
