<?xml version="1.0" encoding="utf-8"?>
<!-- Generator: Adobe Illustrator 16.0.0, SVG Export Plug-In . SVG Version: 6.00 Build 0)  -->
<!DOCTYPE svg PUBLIC "-//W3C//DTD SVG 1.1//EN" "http://www.w3.org/Graphics/SVG/1.1/DTD/svg11.dtd">
<svg version="1.1" id="Layer_1" xmlns="http://www.w3.org/2000/svg" xmlns:xlink="http://www.w3.org/1999/xlink" x="0px" y="0px"
	 width="85px" height="85px" viewBox="0 0 85 85" enable-background="new 0 0 85 85" xml:space="preserve">
<g>
	<path fill="#F16771" d="M13.57,34.382h-3.496C9.471,34.384,8.955,34.811,8.84,35.4L3.33,63.682
		c-0.264,1.363,0.627,2.683,1.99,2.947c0.16,0.03,0.324,0.047,0.488,0.047h27.135c0,1.384,2.816,2.516,6.291,2.516
		c3.473,0,6.289-1.132,6.289-2.516H72.66c0.752,0.003,1.467-0.332,1.945-0.912c0.48-0.579,0.676-1.343,0.533-2.082L69.627,35.4
		c-0.115-0.59-0.631-1.016-1.232-1.019H13.57z"/>
	<path fill="#241F20" d="M39.234,69.975c-3.064,0-6.16-0.861-6.906-2.517H5.809c-0.221,0-0.432-0.021-0.639-0.061
		c-0.865-0.168-1.611-0.663-2.105-1.394c-0.492-0.73-0.672-1.608-0.504-2.475l5.51-28.28c0.186-0.956,1.027-1.65,2.002-1.653h58.322
		c0.975,0.004,1.816,0.698,2.004,1.652l5.51,28.28c0.188,0.976-0.066,1.972-0.699,2.733c-0.627,0.759-1.553,1.194-2.539,1.194
		H46.139C45.395,69.113,42.297,69.975,39.234,69.975z M32.945,65.891c0.432,0,0.783,0.351,0.783,0.784c0,0.609,2.09,1.73,5.506,1.73
		s5.506-1.121,5.506-1.73c0-0.435,0.352-0.784,0.785-0.784H72.67c0.518,0,1.002-0.229,1.332-0.627
		c0.334-0.401,0.467-0.924,0.369-1.435L68.859,35.55c-0.043-0.222-0.238-0.384-0.465-0.385h-58.32
		c-0.223,0.001-0.42,0.161-0.463,0.384L4.102,63.83c-0.088,0.452,0.006,0.915,0.264,1.298c0.26,0.383,0.652,0.643,1.105,0.729
		c0.107,0.021,0.219,0.032,0.33,0.032L32.945,65.891L32.945,65.891z"/>
	<path fill="#8CD3F4" d="M45.523,66.676c0,1.384-2.816,2.514-6.289,2.514s-6.291-1.13-6.291-2.514l0.566-6.845
		c1.965,0.405,3.885,1.013,5.725,1.812c1.842-0.799,3.76-1.405,5.723-1.812L45.523,66.676z"/>
	<path fill="#241F20" d="M39.236,69.973c-1.777,0-3.459-0.282-4.74-0.794c-2.031-0.813-2.334-1.918-2.334-2.504
		c0-0.021,0-0.044,0.002-0.065l0.566-6.844c0.018-0.224,0.131-0.429,0.311-0.562c0.18-0.135,0.41-0.186,0.629-0.141
		c1.902,0.394,3.773,0.975,5.566,1.728c1.791-0.753,3.662-1.334,5.564-1.728c0.221-0.045,0.447,0.006,0.627,0.141
		c0.182,0.135,0.293,0.34,0.312,0.562l0.566,6.844c0.002,0.021,0.002,0.044,0.002,0.065c0,0.586-0.303,1.689-2.334,2.504
		C42.693,69.69,41.01,69.973,39.236,69.973z M33.73,66.696c0.049,0.614,2.131,1.708,5.506,1.708s5.455-1.094,5.504-1.708
		l-0.488-5.904c-1.609,0.386-3.188,0.912-4.705,1.569c-0.199,0.086-0.424,0.086-0.625,0c-1.516-0.657-3.096-1.185-4.705-1.569
		L33.73,66.696z"/>
	<path fill="#FFFFFF" d="M69.086,59.567l-4.188-25.187l-0.354-2.127c-0.092-0.537-0.516-0.959-1.057-1.043
		c-0.334-0.055-0.668-0.1-1.002-0.144v-0.001l-0.031-0.004c-0.373-0.05-0.75-0.095-1.133-0.143c0,0-13.463-1.526-22.09,0.968
		c0,0-8.232-2.367-21.627-1.012c-0.002-0.007-0.008-0.014-0.01-0.02c-0.297,0.034-0.594,0.074-0.891,0.113
		c-0.025,0.003-0.049,0.004-0.074,0.007v0.002c-0.551,0.073-1.102,0.149-1.65,0.23c-0.543,0.084-0.969,0.506-1.059,1.043
		l-0.352,2.127L9.381,59.565c-0.066,0.432,0.092,0.867,0.422,1.153c0.328,0.285,0.781,0.382,1.199,0.255
		c7.27-2.373,15.037-2.769,22.506-1.146c1.967,0.404,3.885,1.013,5.725,1.812c1.842-0.8,3.76-1.407,5.727-1.812
		c7.469-1.623,15.236-1.229,22.504,1.146c0.418,0.126,0.871,0.031,1.201-0.255C68.996,60.435,69.154,59.999,69.086,59.567"/>
	<path fill="#221F1F" d="M39.234,62.427c-0.107,0-0.213-0.021-0.312-0.064c-1.789-0.775-3.662-1.368-5.57-1.763
		c-2.951-0.642-5.971-0.966-8.982-0.966c-4.463,0-8.879,0.702-13.123,2.089c-0.006,0.001-0.01,0.003-0.016,0.005
		c-0.193,0.06-0.395,0.088-0.596,0.088c-0.494,0-0.973-0.178-1.346-0.502c-0.539-0.466-0.793-1.164-0.682-1.868l4.189-25.19
		l0.354-2.127c0.145-0.875,0.832-1.556,1.709-1.689c0.541-0.08,1.084-0.156,1.621-0.227c0.018-0.004,0.035-0.007,0.053-0.01
		c0.021-0.003,0.043-0.005,0.064-0.007l0.111-0.015c0.26-0.034,0.529-0.069,0.797-0.101c0.064-0.009,0.127-0.008,0.189,0.001
		c2.717-0.271,5.424-0.406,8.053-0.406c7.625,0,12.408,1.122,13.479,1.4c3.326-0.93,7.668-1.399,12.912-1.399
		c5.092,0,9.23,0.462,9.271,0.467l0.277,0.034c0.287,0.036,0.572,0.071,0.857,0.109l0.02,0.002c0.023,0.002,0.049,0.006,0.072,0.011
		c0.357,0.047,0.664,0.089,0.975,0.139c0.869,0.135,1.557,0.812,1.705,1.688l0.354,2.13l4.189,25.186
		c0.111,0.71-0.145,1.408-0.684,1.875c-0.371,0.322-0.85,0.501-1.346,0.501l0,0c-0.201,0-0.4-0.028-0.594-0.088
		c-0.006-0.002-0.014-0.004-0.02-0.006c-4.242-1.386-8.656-2.088-13.119-2.088c-3.012,0-6.031,0.324-8.975,0.964
		c-1.918,0.396-3.793,0.988-5.58,1.765C39.447,62.404,39.34,62.427,39.234,62.427z M24.369,58.064c3.123,0,6.254,0.337,9.307,1
		c1.896,0.392,3.766,0.972,5.559,1.726c1.791-0.754,3.664-1.334,5.566-1.728c3.043-0.661,6.176-0.998,9.299-0.998
		c4.625,0,9.199,0.729,13.596,2.162c0.158,0.046,0.334,0.008,0.455-0.098c0.127-0.111,0.188-0.275,0.162-0.44L64.125,34.51
		l-0.354-2.128c-0.035-0.204-0.197-0.364-0.404-0.396c-0.309-0.051-0.615-0.093-0.982-0.141c-0.01-0.001-0.02-0.002-0.027-0.004
		c-0.002,0-0.004-0.001-0.006-0.001c-0.283-0.038-0.568-0.073-0.855-0.108l-0.27-0.033c-0.031-0.004-4.09-0.455-9.086-0.455
		c-5.209,0-9.479,0.471-12.689,1.397c-0.141,0.041-0.291,0.041-0.434,0.001c-0.049-0.015-4.99-1.399-13.268-1.399
		c-2.631,0-5.344,0.14-8.064,0.415c-0.055,0.006-0.109,0.005-0.164-0.002c-0.203,0.025-0.408,0.053-0.607,0.078l-0.104,0.016
		c-0.004,0-0.008,0.001-0.012,0.001c-0.012,0.001-0.025,0.003-0.039,0.004c-0.008,0.002-0.016,0.003-0.023,0.004
		c-0.545,0.072-1.098,0.149-1.643,0.229c-0.199,0.031-0.361,0.19-0.396,0.396l-0.354,2.128l-4.188,25.186
		c-0.025,0.159,0.035,0.323,0.162,0.433c0.123,0.106,0.297,0.146,0.453,0.101C15.168,58.793,19.742,58.064,24.369,58.064z"/>
	<path fill="#FFFFFF" d="M39.234,31.889v29.754"/>
	<path fill="#221F1F" d="M39.234,62.427c-0.434,0-0.783-0.352-0.783-0.783V31.89c0-0.433,0.35-0.784,0.783-0.784
		s0.785,0.353,0.785,0.784v29.754C40.02,62.075,39.668,62.427,39.234,62.427z"/>
	<path fill="#40301C" d="M62.777,52.236c0.645-0.754,1.488-1.229,2.387-1.42l-3.705-3.161c-0.477,0.728-0.996,1.432-1.572,2.109
		c-0.58,0.678-1.195,1.306-1.844,1.892l3.711,3.162C61.801,53.899,62.135,52.989,62.777,52.236"/>
	<path fill="#40301C" d="M61.754,55.603c-0.184,0-0.365-0.063-0.51-0.188l-3.709-3.162c-0.172-0.146-0.271-0.36-0.275-0.585
		c-0.004-0.227,0.092-0.442,0.26-0.595c0.637-0.577,1.232-1.188,1.77-1.818c0.531-0.625,1.041-1.31,1.514-2.029
		c0.123-0.188,0.322-0.313,0.545-0.346c0.225-0.032,0.447,0.033,0.619,0.18l3.705,3.16c0.229,0.193,0.324,0.5,0.252,0.789
		s-0.305,0.512-0.598,0.574c-0.768,0.164-1.443,0.565-1.951,1.162c-0.508,0.594-0.797,1.324-0.84,2.113
		c-0.016,0.298-0.197,0.562-0.473,0.68C61.963,55.582,61.857,55.603,61.754,55.603z M59.219,51.627l2.027,1.729
		c0.205-0.592,0.521-1.142,0.938-1.629c0.414-0.486,0.906-0.884,1.457-1.18l-2.027-1.729c-0.361,0.508-0.738,0.994-1.129,1.453
		C60.088,50.735,59.664,51.188,59.219,51.627z"/>
	<path fill="#FFD98D" d="M25.146,28.67c4.266-10.533,16.262-15.614,26.793-11.352c10.533,4.265,15.613,16.262,11.352,26.793
		c-4.266,10.533-16.262,15.615-26.793,11.351C25.963,51.197,20.883,39.203,25.146,28.67"/>
	<path fill="#241F20" d="M44.211,57.756c-2.746,0-5.441-0.527-8.008-1.566c-5.289-2.141-9.426-6.213-11.652-11.467
		c-2.225-5.253-2.271-11.059-0.131-16.347c1.629-4.021,4.396-7.407,8-9.791c3.52-2.328,7.602-3.56,11.807-3.56
		c2.746,0,5.439,0.527,8.008,1.566c5.289,2.141,9.426,6.213,11.65,11.467c2.227,5.253,2.273,11.06,0.133,16.348
		c-1.629,4.021-4.395,7.405-7.998,9.79C52.498,56.524,48.416,57.756,44.211,57.756z M44.225,16.595
		c-3.895,0-7.678,1.141-10.939,3.298c-3.34,2.209-5.902,5.346-7.412,9.071c-1.982,4.899-1.939,10.28,0.123,15.146
		c2.062,4.868,5.896,8.642,10.795,10.624c2.381,0.964,4.877,1.452,7.422,1.452c3.896,0,7.68-1.141,10.941-3.298
		c3.338-2.209,5.9-5.346,7.408-9.071c1.982-4.899,1.939-10.279-0.121-15.146c-2.062-4.868-5.896-8.642-10.797-10.624
		C49.264,17.083,46.77,16.595,44.225,16.595z"/>
	<path fill="#FFFFFF" d="M29.561,30.626c3.188-8.11,12.346-12.104,20.457-8.916c8.111,3.188,12.104,12.348,8.916,20.459
		c-3.188,8.11-12.346,12.104-20.457,8.915C30.365,47.896,26.373,38.736,29.561,30.626"/>
	<path fill="#221F1F" d="M44.242,52.966c-2.072,0-4.107-0.388-6.053-1.152c-4.119-1.618-7.359-4.742-9.127-8.799
		c-1.768-4.056-1.852-8.558-0.232-12.675c1.242-3.159,3.383-5.822,6.195-7.703c2.746-1.837,5.936-2.809,9.227-2.809
		c2.072,0,4.107,0.388,6.051,1.15c8.502,3.342,12.701,12.977,9.361,21.478c-1.242,3.157-3.385,5.82-6.195,7.701
		C50.725,51.995,47.533,52.966,44.242,52.966z M44.252,21.396c-2.979,0-5.869,0.88-8.355,2.544
		c-2.543,1.702-4.482,4.113-5.605,6.974c-1.465,3.728-1.391,7.803,0.209,11.476c1.602,3.672,4.535,6.501,8.264,7.966
		c1.762,0.692,3.605,1.043,5.48,1.043c2.979,0,5.867-0.879,8.354-2.543c2.545-1.702,4.482-4.111,5.605-6.972
		c3.023-7.696-0.777-16.419-8.473-19.443C47.969,21.747,46.127,21.396,44.252,21.396z"/>
	<path fill="#FFD98D" d="M80.197,61.394l-11.311-9.643c-1.82-1.555-4.557-1.336-6.107,0.484c-1.555,1.82-1.336,4.557,0.484,6.108
		l11.309,9.644c1.82,1.554,4.559,1.336,6.111-0.482C82.234,65.681,82.018,62.946,80.197,61.394"/>
	<path fill="#241F20" d="M77.383,69.809L77.383,69.809c-1.215,0-2.395-0.435-3.318-1.224L62.756,58.94
		c-1.041-0.887-1.674-2.126-1.781-3.488c-0.107-1.361,0.32-2.687,1.209-3.727c0.973-1.142,2.393-1.796,3.895-1.796
		c1.215,0,2.393,0.435,3.318,1.224l11.311,9.645c2.146,1.829,2.402,5.064,0.574,7.215C80.305,69.154,78.885,69.809,77.383,69.809z
		 M66.078,51.499c-1.043,0-2.027,0.455-2.703,1.246c-0.615,0.722-0.912,1.64-0.838,2.585c0.076,0.943,0.514,1.804,1.236,2.419
		l11.309,9.644c0.643,0.548,1.459,0.849,2.301,0.849c1.043,0,2.027-0.452,2.703-1.244c1.27-1.49,1.09-3.735-0.396-5.006
		l-11.311-9.644C67.736,51.801,66.92,51.499,66.078,51.499z"/>
	<path fill="#8CD3F4" d="M35.482,32.205c-0.092-1.003,0.137-2.044,0.686-3.131c0.547-1.087,1.408-2.021,2.58-2.811
		c1.172-0.785,2.578-1.256,4.223-1.405c1.527-0.14,2.902,0.021,4.123,0.477c1.223,0.458,2.193,1.142,2.92,2.055
		c0.727,0.911,1.143,1.934,1.246,3.072c0.08,0.895-0.027,1.697-0.33,2.403c-0.303,0.707-0.682,1.329-1.137,1.865
		c-0.457,0.534-1.279,1.442-2.471,2.72c-0.328,0.358-0.588,0.673-0.783,0.94c-0.191,0.267-0.332,0.508-0.42,0.723
		c-0.086,0.217-0.148,0.428-0.188,0.64c-0.039,0.211-0.094,0.579-0.16,1.104c-0.102,1.115-0.68,1.72-1.732,1.815
		c-0.547,0.05-1.023-0.086-1.43-0.411c-0.408-0.324-0.645-0.839-0.709-1.545c-0.08-0.886-0.012-1.663,0.201-2.337
		c0.215-0.674,0.527-1.276,0.936-1.81c0.408-0.529,0.967-1.167,1.674-1.911c0.621-0.651,1.068-1.143,1.34-1.471
		c0.271-0.324,0.496-0.685,0.668-1.071c0.174-0.387,0.238-0.799,0.199-1.23c-0.078-0.842-0.455-1.524-1.135-2.047
		c-0.682-0.521-1.516-0.737-2.508-0.647c-1.158,0.105-1.984,0.479-2.48,1.11c-0.494,0.636-0.877,1.539-1.15,2.712
		c-0.252,1.223-0.877,1.881-1.877,1.972c-0.592,0.056-1.107-0.106-1.551-0.486C35.768,33.122,35.525,32.688,35.482,32.205
		 M44.773,48.822c-0.643,0.061-1.223-0.098-1.74-0.47c-0.516-0.372-0.809-0.935-0.877-1.682c-0.061-0.663,0.121-1.244,0.543-1.738
		c0.422-0.496,0.967-0.773,1.645-0.835c0.662-0.061,1.242,0.115,1.736,0.525c0.494,0.411,0.771,0.948,0.834,1.613
		c0.066,0.736-0.117,1.339-0.555,1.804C45.924,48.507,45.395,48.766,44.773,48.822"/>
	<path fill="#241F20" d="M44.512,49.62c-0.703,0-1.354-0.213-1.936-0.631c-0.707-0.508-1.111-1.264-1.201-2.246
		c-0.08-0.881,0.166-1.66,0.729-2.318c0.398-0.469,0.887-0.793,1.457-0.969c-0.533-0.049-1.018-0.242-1.441-0.58
		c-0.578-0.461-0.916-1.163-1-2.087c-0.088-0.984-0.01-1.873,0.234-2.646c0.242-0.759,0.6-1.448,1.062-2.051
		c0.426-0.553,0.99-1.198,1.727-1.973c0.605-0.64,1.047-1.12,1.307-1.433c0.225-0.27,0.41-0.567,0.553-0.889
		c0.119-0.268,0.162-0.542,0.135-0.84c-0.057-0.622-0.328-1.111-0.832-1.498c-0.521-0.401-1.164-0.562-1.957-0.488
		c-0.928,0.084-1.578,0.357-1.934,0.812c-0.42,0.538-0.758,1.347-1.004,2.396c-0.434,2.085-1.797,2.515-2.574,2.584
		c-0.096,0.01-0.193,0.014-0.291,0.014c-0.689,0-1.309-0.229-1.838-0.687c-0.602-0.509-0.941-1.122-1.004-1.819
		c-0.104-1.145,0.154-2.341,0.77-3.555c0.604-1.198,1.559-2.244,2.842-3.106c1.277-0.857,2.822-1.375,4.588-1.534
		c1.637-0.149,3.143,0.025,4.469,0.521c1.35,0.507,2.445,1.28,3.258,2.3c0.82,1.029,1.295,2.202,1.414,3.488
		c0.092,1.028-0.041,1.964-0.391,2.785c-0.332,0.775-0.756,1.471-1.26,2.063c-0.49,0.574-1.354,1.523-2.494,2.748
		c-0.297,0.323-0.541,0.617-0.723,0.866c-0.148,0.205-0.264,0.397-0.328,0.556c-0.066,0.171-0.113,0.331-0.145,0.489
		c-0.037,0.202-0.092,0.574-0.152,1.047c-0.113,1.222-0.719,2.04-1.721,2.367c0.65,0.045,1.24,0.283,1.752,0.71
		c0.658,0.549,1.033,1.271,1.113,2.146c0.088,0.97-0.168,1.779-0.764,2.411c-0.564,0.605-1.268,0.951-2.086,1.026
		C44.734,49.613,44.621,49.62,44.512,49.62z M44.596,44.871c-0.059,0-0.119,0.003-0.182,0.009c-0.475,0.043-0.83,0.222-1.119,0.562
		c-0.287,0.335-0.4,0.703-0.359,1.159c0.062,0.688,0.348,0.966,0.555,1.115c0.365,0.263,0.758,0.368,1.211,0.326
		c0.43-0.039,0.783-0.215,1.084-0.537c0.285-0.302,0.395-0.682,0.346-1.196c-0.041-0.459-0.217-0.803-0.553-1.083
		C45.289,44.986,44.969,44.871,44.596,44.871z M43.703,27.389c0.977,0,1.836,0.278,2.555,0.829c0.857,0.659,1.342,1.533,1.439,2.598
		c0.053,0.563-0.037,1.109-0.264,1.622c-0.203,0.452-0.467,0.874-0.781,1.255c-0.285,0.343-0.736,0.836-1.375,1.508
		c-0.689,0.726-1.234,1.348-1.619,1.85c-0.354,0.458-0.625,0.986-0.812,1.569c-0.18,0.569-0.234,1.253-0.166,2.027
		c0.045,0.48,0.184,0.817,0.414,1.002c0.25,0.199,0.525,0.275,0.873,0.243c0.773-0.07,0.965-0.475,1.021-1.104
		c0.002-0.011,0.002-0.021,0.004-0.029c0.066-0.521,0.123-0.907,0.166-1.148c0.051-0.263,0.125-0.519,0.23-0.784
		c0.002-0.004,0.004-0.007,0.004-0.01c0.113-0.274,0.285-0.572,0.512-0.885c0.215-0.297,0.498-0.637,0.838-1.01
		c1.133-1.214,1.979-2.146,2.453-2.699c0.4-0.473,0.742-1.033,1.012-1.665c0.248-0.581,0.34-1.263,0.271-2.026
		c-0.092-0.987-0.445-1.856-1.078-2.652c-0.643-0.807-1.488-1.397-2.584-1.81c-1.104-0.412-2.373-0.557-3.775-0.429
		c-1.5,0.136-2.799,0.565-3.855,1.275s-1.836,1.555-2.316,2.512c-0.48,0.948-0.684,1.858-0.607,2.706
		c0.018,0.177,0.082,0.447,0.459,0.768c0.289,0.247,0.592,0.342,0.971,0.306c0.459-0.041,0.955-0.233,1.184-1.35
		c0-0.007,0.002-0.014,0.004-0.021c0.303-1.295,0.727-2.281,1.297-3.015c0.635-0.812,1.652-1.284,3.027-1.409
		C43.371,27.396,43.539,27.389,43.703,27.389z"/>
</g>
</svg>
