<?xml version="1.0" encoding="utf-8"?>
<!-- Generator: Adobe Illustrator 16.0.0, SVG Export Plug-In . SVG Version: 6.00 Build 0)  -->
<!DOCTYPE svg PUBLIC "-//W3C//DTD SVG 1.1//EN" "http://www.w3.org/Graphics/SVG/1.1/DTD/svg11.dtd">
<svg version="1.1" id="Layer_1" xmlns="http://www.w3.org/2000/svg" xmlns:xlink="http://www.w3.org/1999/xlink" x="0px" y="0px"
	 width="85px" height="85px" viewBox="0 0 85 85" enable-background="new 0 0 85 85" xml:space="preserve">
<g>
	<path fill-rule="evenodd" clip-rule="evenodd" d="M35.095,18.673c1.787-1.892,3.549-3.809,5.37-5.668
		c1.319-1.347,2.719-1.311,4.087-0.003c5.636,5.387,11.031,11.015,16.555,16.514c0.206,0.205,0.374,0.446,0.561,0.671
		c0.063-0.027,0.127-0.054,0.19-0.082c0-1.352-0.011-2.704,0.009-4.056c0.004-0.315-0.193-0.317-0.389-0.389
		c-0.633-0.232-0.916-0.698-0.912-1.366c0.007-1.209-0.013-2.419,0.008-3.628c0.015-0.895,0.51-1.383,1.419-1.387
		c3.359-0.011,6.72-0.012,10.079,0.001c0.896,0.004,1.383,0.508,1.396,1.412c0.018,1.209,0.003,2.419,0.005,3.629
		c0.002,0.63-0.254,1.136-0.865,1.302c-0.438,0.12-0.429,0.362-0.429,0.695c0.005,4.596,0.011,9.193-0.008,13.789
		c-0.002,0.426,0.162,0.69,0.438,0.966c1.923,1.917,3.825,3.853,5.755,5.763c0.9,0.892,1.339,1.892,0.817,3.118
		c-0.521,1.222-1.539,1.623-2.81,1.589c-1.182-0.032-2.366,0.027-3.547-0.022c-0.535-0.022-0.657,0.123-0.654,0.645
		c0.02,4.812,0.012,9.623,0.012,14.435c0,3.709,0.029,7.419-0.023,11.127c-0.012,0.813,0.229,0.982,0.973,0.926
		c0.908-0.069,1.826-0.025,2.74-0.014c0.893,0.012,1.451,0.504,1.467,1.262c0.017,0.789-0.56,1.312-1.498,1.313
		c-4.65,0.007-9.3,0.003-13.95,0.003c-19.085,0-38.169,0-57.253,0c-0.215,0-0.431,0.004-0.646-0.001
		c-0.936-0.021-1.51-0.531-1.49-1.321c0.019-0.758,0.577-1.252,1.472-1.255c2.688-0.01,5.376-0.021,8.063,0.01
		c0.596,0.007,0.802-0.103,0.801-0.765c-0.027-8.548-0.025-17.096-0.002-25.643c0.002-0.608-0.139-0.756-0.743-0.724
		c-1.153,0.061-2.312-0.008-3.466,0.024c-1.272,0.035-2.287-0.372-2.808-1.593c-0.523-1.227-0.075-2.219,0.822-3.114
		c3.805-3.798,7.59-7.615,11.392-11.416c0.183-0.184,0.452-0.282,0.602-0.497C9.268,34.193,3.258,26.329,3.816,18.24
		c0.54-7.828,6.949-14.102,14.624-14.444c8.311-0.371,15.703,5.765,16.334,14.629C34.882,18.508,34.988,18.59,35.095,18.673z"/>
	<path fill-rule="evenodd" clip-rule="evenodd" fill="#010101" d="M80.573,81.217c-1.321,0-1.918-0.391-1.935-1.268
		c-0.018-0.899,0.604-1.314,1.966-1.313c0.188,0,0.375-0.008,0.562,0.003c0.806,0.045,1.344,0.572,1.334,1.303
		c-0.009,0.729-0.548,1.234-1.366,1.273C80.947,81.224,80.76,81.216,80.573,81.217z"/>
	<path fill-rule="evenodd" clip-rule="evenodd" fill="#DFDFE1" d="M15.4,63.952c0-4.598,0.006-9.194-0.01-13.791
		c-0.002-0.465,0.126-0.788,0.461-1.12c8.716-8.657,17.424-17.324,26.117-26.005c0.426-0.426,0.635-0.43,1.065-0.001
		c8.692,8.681,17.4,17.347,26.117,26.005c0.334,0.332,0.46,0.656,0.46,1.12c-0.013,9.248-0.017,18.496,0.005,27.744
		c0.001,0.597-0.131,0.751-0.74,0.748c-5.538-0.026-11.076-0.026-16.614,0c-0.607,0.003-0.743-0.149-0.741-0.747
		c0.021-7.742,0.015-15.485,0.014-23.228c0-1.48-0.371-1.85-1.855-1.851c-4.812,0-9.625,0-14.436,0.001
		c-1.378,0-1.774,0.395-1.774,1.768c-0.001,7.743-0.01,15.485,0.016,23.228c0.002,0.664-0.146,0.835-0.823,0.831
		c-5.511-0.031-11.022-0.028-16.533-0.002c-0.607,0.003-0.746-0.147-0.743-0.747C15.413,73.254,15.4,68.603,15.4,63.952z"/>
	<path fill-rule="evenodd" clip-rule="evenodd" fill="#90CB04" d="M32.173,19.345c-0.008,7.088-5.844,12.853-12.992,12.833
		C12.165,32.16,6.369,26.345,6.368,19.324c0-7.147,5.782-12.965,12.872-12.951C26.432,6.388,32.182,12.155,32.173,19.345z"/>
	<path fill-rule="evenodd" clip-rule="evenodd" fill="#9F805C" d="M36.048,67.003c0-3.627,0.011-7.254-0.012-10.88
		c-0.003-0.546,0.115-0.733,0.7-0.729c3.841,0.026,7.684,0.026,11.526,0c0.58-0.004,0.704,0.176,0.703,0.726
		c-0.018,7.28-0.017,14.562-0.002,21.842c0.001,0.506-0.108,0.69-0.657,0.688c-3.869-0.023-7.738-0.023-11.606,0
		c-0.544,0.003-0.665-0.173-0.662-0.684C36.057,74.311,36.048,70.657,36.048,67.003z"/>
	<path fill-rule="evenodd" clip-rule="evenodd" fill="#FE9711" d="M76.614,48.955c-1.201,0-2.401-0.012-3.602,0.006
		c-0.427,0.006-0.602-0.321-0.837-0.555c-9.417-9.362-18.828-18.731-28.243-28.096c-0.265-0.263-0.529-0.552-0.85-0.728
		c-0.718-0.394-1.262-0.034-1.777,0.48c-3.154,3.157-6.318,6.303-9.481,9.451c-6.308,6.276-12.622,12.545-18.913,18.837
		c-0.46,0.46-0.91,0.65-1.548,0.618c-0.987-0.049-1.977-0.013-2.976-0.013c-0.026-0.304,0.204-0.396,0.339-0.532
		c4.506-4.541,9.021-9.075,13.525-13.618c0.295-0.298,0.62-0.466,1.022-0.586c5.671-1.694,9.338-5.389,10.977-11.079
		c0.101-0.351,0.247-0.635,0.505-0.89c2.373-2.341,4.754-4.673,7.094-7.046c0.529-0.537,0.824-0.469,1.329,0.026
		c7.653,7.515,15.139,15.198,22.742,22.763c3.602,3.583,7.247,7.121,10.872,10.68C76.734,48.766,76.674,48.86,76.614,48.955z"/>
	<path fill-rule="evenodd" clip-rule="evenodd" fill="#9F805C" d="M69.502,37.865c-1.633-1.613-3.268-3.229-4.906-4.842
		c-0.203-0.2-0.154-0.446-0.155-0.682c-0.003-1.989,0.01-3.979-0.011-5.968c-0.004-0.458,0.07-0.674,0.606-0.658
		c1.343,0.039,2.688,0.021,4.031,0.008c0.348-0.003,0.542,0.048,0.54,0.473c-0.02,3.871-0.021,7.741-0.03,11.611
		C69.577,37.821,69.541,37.835,69.502,37.865z"/>
	<path fill-rule="evenodd" clip-rule="evenodd" fill="#FE9711" d="M66.958,23.146c-1.099,0-2.197-0.029-3.294,0.012
		c-0.541,0.021-0.539-0.261-0.519-0.639c0.018-0.333-0.105-0.683,0.481-0.675c2.249,0.029,4.499,0.033,6.748-0.002
		c0.636-0.01,0.486,0.367,0.521,0.72c0.044,0.441-0.092,0.609-0.564,0.595C69.208,23.124,68.082,23.146,66.958,23.146z"/>
	<path fill-rule="evenodd" clip-rule="evenodd" d="M60.537,72.184c-2.042,0-4.084,0.005-6.126-0.002
		c-1.112-0.004-1.576-0.46-1.585-1.553c-0.009-1.128,0.008-2.257-0.006-3.386c-0.008-0.652,0.191-1.209,0.844-1.398
		c0.466-0.135,0.456-0.397,0.455-0.761c-0.008-3.493-0.005-6.986-0.004-10.479c0.001-1.379,0.396-1.777,1.764-1.777
		c3.09-0.002,6.18-0.001,9.271-0.001c1.493,0.001,1.869,0.37,1.87,1.835c0.001,3.466,0.006,6.933-0.008,10.399
		c-0.002,0.409,0.042,0.669,0.51,0.808c0.543,0.161,0.78,0.632,0.784,1.191c0.008,1.263,0.022,2.526-0.005,3.789
		c-0.019,0.866-0.542,1.327-1.476,1.331C64.729,72.19,62.633,72.184,60.537,72.184z"/>
	<path fill-rule="evenodd" clip-rule="evenodd" d="M24.433,72.184c-2.042,0-4.084,0.004-6.127-0.002
		c-1.158-0.003-1.607-0.453-1.614-1.604c-0.006-1.129,0.004-2.257-0.003-3.386c-0.004-0.622,0.201-1.155,0.816-1.335
		c0.496-0.145,0.48-0.442,0.48-0.824c-0.006-3.493-0.005-6.986-0.003-10.479c0-1.317,0.411-1.725,1.734-1.726
		c3.171-0.002,6.342-0.003,9.513,0c1.214,0.002,1.655,0.438,1.656,1.644c0.003,3.493,0.006,6.986-0.005,10.48
		c-0.001,0.444-0.012,0.784,0.553,0.943c0.542,0.153,0.741,0.66,0.742,1.217c0.001,1.209,0.014,2.419-0.002,3.628
		c-0.013,0.944-0.502,1.434-1.452,1.44C28.624,72.192,26.528,72.184,24.433,72.184z"/>
	<path fill-rule="evenodd" clip-rule="evenodd" d="M42.497,46.374c-1.639,0-3.276,0.007-4.914-0.003
		c-1.052-0.006-1.53-0.475-1.532-1.52c-0.008-3.275-0.007-6.551-0.001-9.827c0.002-1.096,0.468-1.551,1.579-1.553
		c3.249-0.005,6.498-0.005,9.747,0c1.105,0.002,1.572,0.462,1.574,1.56c0.007,3.275,0.008,6.551,0,9.826
		c-0.003,1.04-0.485,1.508-1.54,1.514C45.772,46.381,44.135,46.374,42.497,46.374z"/>
	<path fill-rule="evenodd" clip-rule="evenodd" d="M17.996,25.724c-0.343,0.013-0.623-0.142-0.894-0.323
		c-1.183-0.791-2.372-1.573-3.549-2.373c-0.752-0.512-0.942-1.208-0.538-1.856c0.419-0.673,1.177-0.791,1.969-0.281
		c0.812,0.524,1.625,1.047,2.407,1.614c0.377,0.274,0.605,0.231,0.952-0.069c2.515-2.184,5.054-4.339,7.579-6.511
		c0.451-0.388,0.916-0.667,1.532-0.436c1.042,0.391,1.131,1.561,0.17,2.386c-2.322,1.996-4.651,3.983-6.977,5.975
		c-0.551,0.472-1.102,0.942-1.649,1.418C18.708,25.521,18.395,25.716,17.996,25.724z"/>
	<path fill-rule="evenodd" clip-rule="evenodd" d="M47.66,68.413c0.001,0.804,0.019,1.608-0.005,2.411
		c-0.023,0.82-0.552,1.354-1.285,1.354c-0.734-0.001-1.271-0.535-1.281-1.356c-0.02-1.688-0.021-3.376,0.002-5.062
		c0.011-0.773,0.539-1.291,1.242-1.312c0.733-0.022,1.295,0.51,1.32,1.315C47.682,66.645,47.66,67.529,47.66,68.413z"/>
	<path fill-rule="evenodd" clip-rule="evenodd" fill="#82D7F3" d="M64.438,60.65c0,1.504-0.017,3.008,0.011,4.511
		c0.008,0.456-0.124,0.585-0.58,0.58c-2.201-0.022-4.403-0.022-6.605,0c-0.457,0.005-0.581-0.127-0.578-0.581
		c0.02-3.061,0.02-6.122,0-9.184c-0.003-0.454,0.123-0.584,0.579-0.579c2.202,0.022,4.404,0.022,6.605,0
		c0.457-0.005,0.587,0.127,0.579,0.581C64.422,57.535,64.438,59.093,64.438,60.65z"/>
	<path fill-rule="evenodd" clip-rule="evenodd" fill="#FE9711" d="M60.654,68.312c1.501,0,3.003,0.028,4.503-0.015
		c0.562-0.017,0.577,0.237,0.585,0.666c0.008,0.452-0.059,0.657-0.599,0.652c-3.056-0.028-6.111-0.029-9.167,0.001
		c-0.561,0.005-0.576-0.238-0.584-0.667c-0.008-0.451,0.058-0.666,0.599-0.652C57.545,68.338,59.1,68.312,60.654,68.312z"/>
	<path fill-rule="evenodd" clip-rule="evenodd" fill="#82D7F3" d="M28.305,60.581c0,1.504-0.015,3.008,0.008,4.512
		c0.007,0.447-0.042,0.662-0.589,0.653c-2.202-0.036-4.404-0.029-6.605-0.004c-0.476,0.006-0.568-0.157-0.565-0.594
		c0.017-3.061,0.019-6.122-0.002-9.184c-0.003-0.472,0.153-0.571,0.592-0.566c2.202,0.02,4.404,0.023,6.605-0.002
		c0.475-0.006,0.573,0.156,0.565,0.593C28.29,57.521,28.305,59.051,28.305,60.581z"/>
	<path fill-rule="evenodd" clip-rule="evenodd" fill="#FE9711" d="M24.427,68.312c1.528,0,3.056,0.025,4.583-0.015
		c0.542-0.014,0.605,0.203,0.598,0.653c-0.007,0.43-0.025,0.671-0.585,0.666c-3.055-0.03-6.111-0.029-9.167-0.001
		c-0.54,0.005-0.604-0.202-0.597-0.653c0.007-0.429,0.024-0.681,0.585-0.665C21.371,68.34,22.899,68.312,24.427,68.312z"/>
	<path fill-rule="evenodd" clip-rule="evenodd" fill="#82D7F3" d="M45.049,43.793c-1.258,0-1.258,0-1.258-1.243
		c0-1.338,0-1.338,1.323-1.338c1.258,0,1.258,0,1.258,1.244C46.372,43.793,46.372,43.793,45.049,43.793z"/>
	<path fill-rule="evenodd" clip-rule="evenodd" fill="#82D7F3" d="M41.209,42.53c0,1.263,0,1.263-1.237,1.263
		c-1.344,0-1.344,0-1.344-1.317c0-1.264,0-1.264,1.237-1.264C41.209,41.212,41.209,41.212,41.209,42.53z"/>
	<path fill-rule="evenodd" clip-rule="evenodd" fill="#82D7F3" d="M45.135,38.632c-1.344,0-1.344,0-1.344-1.317
		c0-1.264,0-1.264,1.237-1.264c1.344,0,1.344,0,1.344,1.317C46.372,38.632,46.372,38.632,45.135,38.632z"/>
	<path fill-rule="evenodd" clip-rule="evenodd" fill="#82D7F3" d="M39.931,36.051c1.278,0,1.278,0,1.278,1.302
		c0,1.279,0,1.279-1.302,1.279c-1.278,0-1.278,0-1.278-1.302C38.629,36.051,38.629,36.051,39.931,36.051z"/>
</g>
</svg>
