<?xml version="1.0" encoding="utf-8"?>
<!-- Generator: Adobe Illustrator 16.0.0, SVG Export Plug-In . SVG Version: 6.00 Build 0)  -->
<!DOCTYPE svg PUBLIC "-//W3C//DTD SVG 1.1//EN" "http://www.w3.org/Graphics/SVG/1.1/DTD/svg11.dtd">
<svg version="1.1" id="Layer_1" xmlns="http://www.w3.org/2000/svg" xmlns:xlink="http://www.w3.org/1999/xlink" x="0px" y="0px"
	 width="85px" height="85px" viewBox="0 0 85 85" enable-background="new 0 0 85 85" xml:space="preserve">
<g>
	<path fill="#3E5266" d="M2.5,3.087h79.551v78.956H2.5V3.087z"/>
	<path fill="#FDD2B4" d="M81.695,37.366c0,5.527-0.553,19.347-0.553,19.347s-4.975-20.451-3.869-31.505
		c0.812-8.135,0.727-14.776,0.186-22.12H2.5v78.956h75.219l0.109-0.459c0,0,0.219,0.186,0.588,0.459h3.635v-46.81
		C81.83,35.921,81.695,36.633,81.695,37.366z"/>
	<path fill="#2D3F50" d="M82.051,34.06V3.087h-4.834c1.861,12.377,2.465,24.94,1.721,37.435
		C79.811,38.293,80.857,36.135,82.051,34.06L82.051,34.06z"/>
	<path fill="#EEBD9C" d="M60.053,41.046c-4.932,5.379-11.254,9.471-18.182,11.765c-4.908,1.626-10.383,2.327-15.191,0.422
		c-4.807-1.903-8.596-6.994-7.689-12.085c-2.254,0.425-4.305,1.838-5.502,3.794c2.318,0.226,3.668,2.732,4.217,4.997
		s0.818,4.803,2.512,6.402c1.057,0.997,2.5,1.451,3.898,1.836c11.773,3.241,29.146,5.408,40.947,1.281
		c0.686,7.511,0.729,15.068,0.18,22.585h13.377c0.18-0.026,0.363-0.026,0.543,0h2.889V38.088c-0.854,4.178-1.178,8.473-1.43,12.757
		c-3.758-15.822-3.482-31.606-3.947-47.757H46.971c0.297,5.438,0.104,10.901-0.605,16.301c0.518-3.94,22.762,3.95,6.357,8.009
		c-7.305,1.809-14.934,1.861-22.318,3.305c-7.387,1.441-14.941,4.636-19.055,10.938C26.215,33.643,44.996,33.415,60.053,41.046z
		 M15.838,82.043c0.85-1.273,1.588-2.619,2.174-4.033c-4.031,2.103-8.441,3.454-12.949,4.033H15.838z"/>
	<path fill="#EEBD9C" d="M9.096,29.685l0.34-1.322c-4.471,11.871-5.23,25.11-2.146,37.414c0.385,1.541,0.83,3.174,0.344,4.687
		c-0.689,2.14-2.967,3.27-5.133,3.946v4.804c2.939,0.054,5.881-0.076,8.803-0.413c1.963-0.227,4.221-0.756,5.057-2.549
		c0.908-1.945-0.393-4.139-1.463-5.998c-7.699-13.384-3.818-32.245,8.541-41.5c4.75-3.559,10.615-5.915,14.047-10.756
		C27.504,20.43,17.896,24.385,9.096,29.685L9.096,29.685z"/>
	<path fill="#FFEDDD" d="M41.559,35.94c-6.451-0.693-22.375-1.845-20.199,8.729c0.699,3.404,3.566,6.263,6.662,7.628
		c3.619,1.597,7.797,1.55,11.633,0.586c3.836-0.963,7.396-2.786,10.871-4.674c1.207-0.654,2.438-1.347,3.295-2.419
		c1.578-1.979,1.424-5.124-0.342-6.938c-1.689-1.738-4.307-2.093-6.717-2.353C45.027,36.313,43.293,36.127,41.559,35.94
		L41.559,35.94z"/>
	<path fill="#5B2711" d="M45.684,39.895c0,0,1.604,1.947,0.801,5.842c-0.801,3.896-2.635,5.271-2.635,5.271l-2.863,1.488
		l-6.416-0.802c0,0-2.75-1.833-3.779-4.238c-1.031-2.405-0.574-6.187-0.574-6.187l2.406-4.467L40.297,36
		C40.297,36,45.109,37.03,45.684,39.895z"/>
	<path fill="#803E25" d="M41.182,52.001c1.504-0.737,3.414-2.118,4.15-3.449c0.697-1.257,1.615-3.179,0.229-4.297
		c-0.66-0.531-1.631-0.641-2.391-0.269c-0.979,0.479-1.463,1.573-2.17,2.404c-0.785,0.924-2.002,1.571-3.195,1.359
		c-0.729-0.132-1.43-0.566-2.156-0.435c-0.736,0.134-1.266,0.854-1.357,1.597c-0.359,2.946,4.293,4.189,6.395,3.312
		C40.854,52.155,41.02,52.081,41.182,52.001z"/>
	<path fill="#49200F" d="M30.422,42.45c0.352-1.316,1.246-3.223,3.281-4.734c1.992-1.509,5.309-2.365,8.539-1.208
		c1.609,0.552,3.115,1.605,4.184,3.046c1.09,1.354,1.662,3.373,1.689,4.977c-0.041,1.922-0.594,3.646-1.693,5.099
		c-1.066,1.438-2.578,2.486-4.18,3.042c-1.646,0.565-3.234,0.655-4.748,0.4c-1.486-0.266-2.781-0.863-3.789-1.605
		c-2.035-1.508-2.932-3.414-3.281-4.732c-0.348-1.345-0.279-2.141-0.279-2.141S30.076,43.796,30.422,42.45L30.422,42.45z
		 M30.486,46.717c0.355,1.301,1.436,3.149,3.525,4.309c1.039,0.561,2.287,0.929,3.605,0.981c1.281,0.045,2.744-0.242,3.914-0.867
		c1.213-0.637,2.238-1.601,2.971-2.734c0.693-1.13,1.119-2.524,1.1-3.752c0.006-1.542-0.4-2.645-1.105-3.871
		c-0.729-1.133-1.76-2.092-2.969-2.729c-2.463-1.294-5.479-1.041-7.512,0.109c-2.092,1.154-3.174,3.006-3.529,4.306
		c-0.383,1.324-0.342,2.124-0.342,2.124S30.104,45.394,30.486,46.717L30.486,46.717z"/>
	<path fill="#231F20" d="M34.154,44.56c0.193,2.399,2.295,4.189,4.695,3.997c2.4-0.193,4.189-2.295,3.996-4.695
		c-0.191-2.399-2.293-4.188-4.693-3.996S33.961,42.159,34.154,44.56L34.154,44.56z"/>
	<path fill="#FFFFFF" d="M29.08,39.881c0,1.701,1.771,3.079,3.957,3.079c2.188,0,3.959-1.378,3.959-3.079
		c0-1.7-1.771-3.079-3.959-3.079C30.852,36.802,29.08,38.181,29.08,39.881z M31.094,44.731c0,0.759,0.912,1.374,2.037,1.374
		c1.123,0,2.035-0.615,2.035-1.374c0-0.758-0.912-1.373-2.035-1.373C32.006,43.358,31.094,43.974,31.094,44.731z"/>
	<path fill="#A75337" d="M40.211,49.038c0,0.381,0.457,0.689,1.023,0.689c0.564,0,1.023-0.31,1.023-0.689
		c0-0.383-0.459-0.69-1.023-0.69C40.668,48.348,40.211,48.655,40.211,49.038z"/>
	<path fill="#FEE3CE" d="M10.064,69.039c-0.365-1.093-1.051-2.041-1.652-3.021c-2.34-3.809-3.479-8.342-3.215-12.803l-0.76-2.604
		c0.334,5.066,0.438,10.146,0.307,15.221c-0.02,0.729-0.045,1.471-0.283,2.159c-0.35,1.016-1.066,1.746-1.959,2.313v4.85
		c1.805-0.371,3.578-0.896,5.279-1.6c0.709-0.292,1.432-0.633,1.912-1.229C10.414,71.431,10.428,70.13,10.064,69.039L10.064,69.039z
		 M38.438,20.339c-1.971,0.062-3.67,1.328-5.229,2.537l-3.246,2.521c-0.285,0.223-0.574,0.447-0.793,0.736
		c-0.266,0.351-0.41,0.774-0.551,1.191c-0.445,1.312-0.891,2.623-1.336,3.935c2.518-1.024,5.273-1.267,7.98-1.497
		c1.936-0.166,3.869-0.33,5.805-0.495c0.699-0.059,1.451-0.141,1.977-0.606c0.547-0.483,0.709-1.258,0.838-1.976l0.914-5.021
		c0.041-0.221,0.07-0.479-0.088-0.64c-0.096-0.097-0.234-0.129-0.369-0.157c-3.861-0.78-8.016-0.006-11.336,2.115L38.438,20.339
		L38.438,20.339z"/>
	<path fill="#BB9584" d="M82.051,72.39v-36.65c-0.174,0.596-0.324,1.194-0.451,1.799c-0.902,4.369-0.738,8.879-0.57,13.337
		c-1.668-6.754-2.693-13.65-3.064-20.598l-1.217,3.692c1.102,13.194,1.262,26.45,0.484,39.667
		C78.768,72.987,80.396,72.57,82.051,72.39z"/>
	<path fill="#FEE3CE" d="M59.141,82.043h5.584c0.998-7.616,1.25-15.263,0.09-22.776c-2.17,0.449-4.809,2.775-6.848,0.932
		c0.062,2.939,0.24,5.908,0.441,8.895C58.699,73.386,59.021,77.715,59.141,82.043L59.141,82.043z M44.627,3.087h-2.729
		c-1.6,3.812-4.973,6.99-8.656,9.08c-5.102,2.896-10.908,4.308-16.191,6.856C12.354,21.29,7.49,24.525,2.5,24.52v1.679
		c4.107-0.259,8.193-0.762,12.051-2.147c3.438-1.234,6.609-3.144,10.084-4.27c6.412-2.079,13.828-1.517,19.324-5.418
		c0.514-0.363,1.016-0.778,1.311-1.333c0.312-0.594,0.357-1.287,0.375-1.959C45.705,8.379,45.352,5.681,44.627,3.087z"/>
	<path fill="#AF7B6E" d="M77.834,82.043c-0.566-1.058-1.256-2.058-1.67-3.183c-0.186,1.065-0.391,2.122-0.59,3.183H77.834
		L77.834,82.043z M67.629,27.327c0,0-0.818-0.607-2.146-1.479c-1.252-0.837-3.283-2.004-5.791-3.119
		c-5.012-2.271-12.41-4.131-19.945-3.76c-7.559,0.271-14.906,2.814-20.258,4.978c-5.359,2.191-8.869,3.837-8.869,3.837
		s3.346-1.934,8.527-4.591c5.152-2.61,12.43-5.885,20.371-6.861c7.926-1.077,16.061,0.207,21.793,2.231
		c2.891,1.002,5.172,2.057,6.818,2.962c1.578,0.857,2.357,1.34,2.357,1.34l0.123,0.076c1.244,0.773,1.627,2.408,0.854,3.653
		c-0.771,1.245-2.408,1.628-3.652,0.854C67.748,27.411,67.689,27.37,67.629,27.327L67.629,27.327z"/>
	<path fill="#BA967C" d="M17.814,79.019C12.689,80.49,7.605,81.459,2.5,81.552v0.49h10.766c1.738-0.434,3.438-1.017,5.074-1.775
		C19.049,79.938,18.545,78.809,17.814,79.019L17.814,79.019z"/>
	<path fill="#162332" d="M75.805,3.087c0.729,7.633,0.758,15.576,0.193,24.049c-0.021,0.35,0.527,0.42,0.609,0.082
		c1.881-7.775,2.514-15.943,2.057-24.131H75.805z"/>
	<path fill="#AF7B6E" d="M69.225,37.388c-2.947,0.968-6.021,1.68-8.855,2.986c-0.139,0.063-0.037,0.271,0.102,0.237
		c3.029-0.711,5.873-2.042,8.787-3.092C69.342,37.488,69.309,37.358,69.225,37.388z"/>
	<path fill="#BA967C" d="M57.273,44.449c-11.521,8.419-27.471,13.89-38.119,1.113c-0.18-0.216-0.551,0.017-0.467,0.271
		c5.072,15.6,31.303,7.561,38.717-1.215C57.479,44.532,57.381,44.371,57.273,44.449L57.273,44.449z"/>
	<path fill="#BA967C" d="M19.635,47.638c-2.123-1.561-4.146-3.425-6.65-4.346c-0.445-0.164-0.775,0.47-0.453,0.777
		c1.922,1.839,4.494,2.835,6.822,4.052C19.678,48.29,19.92,47.848,19.635,47.638z"/>
	<path fill="#AF7B6E" d="M60.289,35.746c-1.908,0.865-3.889,1.396-5.791,2.209c-0.285,0.122-0.145,0.623,0.158,0.59
		c2.074-0.225,4.123-1.377,5.691-2.722C60.396,35.786,60.336,35.726,60.289,35.746z M53.551,33.579
		c-2.254,1.434-4.404,1.964-6.936,2.629c-0.365,0.096-0.27,0.61,0.086,0.634c2.564,0.165,5.332-1.146,7-3.069
		C53.789,33.674,53.678,33.499,53.551,33.579L53.551,33.579z M44.916,32.625c-1.523,0.692-3.049,1.085-4.594,1.664
		c-0.375,0.141-0.324,0.684,0.096,0.708c1.84,0.101,3.516-0.792,4.6-2.27C45.066,32.659,44.977,32.598,44.916,32.625z"/>
	<path fill="#162332" d="M81.709,59.908c0.023-8.472-2.037-16.901-2.812-25.342c-0.678-7.356-0.461-14.81-1.752-22.087
		c-0.154-0.88-1.396-0.583-1.463,0.198c-0.715,8.424,0.85,17.147,1.875,25.526c0.895,7.284,1.52,14.817,4.062,21.718
		C81.635,59.969,81.709,59.965,81.709,59.908L81.709,59.908z"/>
	<path fill="#162332" d="M82.051,34.652c-2.141,6.992-1.139,15.033-0.801,22.137c0.016,0.302,0.443,0.299,0.465,0
		c0.264-3.616,0.242-7.214,0.336-10.821V34.652z"/>
	<path fill="#BA967C" d="M12.793,68.768c1.166,2.024,2.42,3.958,3.234,6.163c0.643,1.746,0.865,3.624,1.598,5.322
		c0.199,0.462,0.838,0.174,0.867-0.235c0.275-3.904-2.695-8.887-5.504-11.399C12.885,68.524,12.721,68.642,12.793,68.768z"/>
	<path fill="#AF7B6E" d="M79.498,82.043c-0.641-0.786-1.301-1.815-1.979-3.162c-0.352-0.698-1.631-0.4-1.533,0.415
		c0.125,1.042,0.354,1.95,0.658,2.747H79.498L79.498,82.043z M82.051,33.689c-0.348,1.643-0.652,3.297-0.789,4.957
		c-0.1,1.229-0.105,2.46,0.033,3.69c0.107-0.423,0.375-1.481,0.756-2.818V33.689L82.051,33.689z M60.775,39.986
		c-14.441-6.624-35.869-10.921-48.617,1.701c-1.85,1.83,1.051,4.729,2.854,2.854c12.887-13.417,29.824-7.23,45.215-3.249
		C60.98,41.485,61.535,40.334,60.775,39.986z"/>
	<path fill="#333333" d="M82.5,82.4H2.504V2.6H82.5V82.4L82.5,82.4z M3.307,81.599h78.391V3.403H3.307V81.599L3.307,81.599z"/>
</g>
</svg>
