<?xml version="1.0" encoding="utf-8"?>
<!-- Generator: Adobe Illustrator 16.0.0, SVG Export Plug-In . SVG Version: 6.00 Build 0)  -->
<!DOCTYPE svg PUBLIC "-//W3C//DTD SVG 1.1//EN" "http://www.w3.org/Graphics/SVG/1.1/DTD/svg11.dtd">
<svg version="1.1" id="Layer_1" xmlns="http://www.w3.org/2000/svg" xmlns:xlink="http://www.w3.org/1999/xlink" x="0px" y="0px"
	 width="85px" height="85px" viewBox="0 0 85 85" enable-background="new 0 0 85 85" xml:space="preserve">
<g>
	<path fill="#55B2E6" d="M70.784,32.288c-15.621-9.02-40.947-9.02-56.568,0c-15.622,9.019-15.622,23.642,0,32.662
		c15.621,9.019,40.947,9.019,56.568,0C86.405,55.93,86.405,41.306,70.784,32.288z"/>
	<path opacity="0.3" fill="#FFFFFF" d="M70.784,32.288c15.621,9.019,15.621,23.642,0,32.662c-15.621,9.019-40.947,9.019-56.568,0
		c-15.621-9.02-15.621-23.643,0-32.662C29.837,23.268,55.163,23.268,70.784,32.288z"/>
	<g opacity="0.5">
		<path fill="#55B2E6" d="M22.369,46.419c2.955,1.705,2.955,4.472,0,6.178c-2.955,1.706-7.745,1.706-10.7,0s-2.955-4.473,0-6.178
			C14.624,44.713,19.414,44.713,22.369,46.419z"/>
	</g>
	<g opacity="0.5">
		<path fill="#55B2E6" d="M45.063,42.305c2.389,1.379,2.389,3.615,0,4.995c-2.388,1.378-6.26,1.378-8.648,0
			c-2.389-1.38-2.389-3.615,0-4.995C38.803,40.926,42.676,40.926,45.063,42.305z"/>
	</g>
	<polygon opacity="0.5" fill="#55B2E6" points="10.988,54.863 21.274,60.801 39.76,50.117 29.474,44.176 	"/>
	<g>
		<g>
			<g>
				<polygon fill="#FFFFFF" points="56.112,42.741 74.05,53.098 48.487,67.857 30.549,57.5 				"/>
				<polygon fill="#1D1D1B" points="35.823,57.423 48.788,64.909 48.013,65.357 35.047,57.871 				"/>
				<polygon fill="#1D1D1B" points="37.945,56.197 50.911,63.684 50.435,63.959 37.468,56.473 				"/>
				<polygon fill="#1D1D1B" points="39.228,55.457 52.192,62.943 51.716,63.219 38.75,55.732 				"/>
				<polygon fill="#1D1D1B" points="40.509,54.717 53.476,62.203 52.997,62.479 40.032,54.992 				"/>
				<polygon fill="#1D1D1B" points="43.073,53.236 56.038,60.723 55.562,60.998 42.596,53.513 				"/>
				<polygon fill="#1D1D1B" points="44.355,52.496 57.321,59.982 56.844,60.259 43.878,52.772 				"/>
				<polygon fill="#1D1D1B" points="53.638,56.376 58.603,59.243 58.126,59.518 53.161,56.652 				"/>
				<polygon fill="#1D1D1B" points="46.919,51.017 59.885,58.503 59.407,58.777 46.441,51.291 				"/>
				<polygon fill="#1D1D1B" points="48.2,50.276 61.167,57.762 60.689,58.038 47.724,50.552 				"/>
				<polygon fill="#1D1D1B" points="52.52,51.29 62.448,57.021 61.972,57.298 52.042,51.564 				"/>
				<polygon fill="#1D1D1B" points="60.513,51.463 66.294,54.802 65.817,55.077 60.035,51.738 				"/>
				<polygon fill="#1D1D1B" points="61.794,50.723 67.576,54.062 67.1,54.337 61.317,50.999 				"/>
			</g>
			<path opacity="0.5" fill="#55B2E6" d="M80.172,32.926c-0.042-1.345-1.364-2.912-2.954-3.502
				c-0.787-0.292-1.491-0.288-1.998-0.049c-0.004-0.005-0.141,0.078-0.141,0.078c-0.021,0.014-0.045,0.025-0.066,0.04l-0.91,0.552
				l-0.023-0.023l-0.902,0.583l-4.735,2.867c0.11-0.053,0.232-0.093,0.363-0.119c-0.131,0.026-0.253,0.066-0.363,0.119
				c-0.188,0.091-0.344,0.222-0.46,0.385l-1.117,0.621c-0.104,0.069-0.158,0.163-0.178,0.271c-0.854,0.023-1.801,0.209-2.796,0.479
				c0,0-6.327,1.839-6.341,1.84c-0.617,0.048-1.131,0.399-1.271,0.852l-0.106,0.346l-0.541,1.163l-0.021,0.048
				c-0.109,0.235-0.092,0.488,0.049,0.704l0.062,0.095c-0.076,0.257,0.016,0.441,0.196,0.586c-0.128,0.388,0.061,0.702,0.454,0.969
				l1.709,1.103c0.229,0.148,0.525,0.227,0.836,0.224l0.33-0.004l0.668,0.05c-0.137,0.244-0.303,0.475-0.512,0.691
				c-0.991,0.047-1.723,0.266-1.852,0.593c-0.062,0.057-0.105,0.119-0.123,0.185l-0.201,0.796c-0.121,0.495,1.206,1.04,2.964,1.216
				c1.72,0.173,3.212-0.071,3.389-0.547c0.003,0.001,0.009-0.021,0.009-0.021c0.005-0.02,0.205-0.805,0.205-0.805
				c0.027-0.111-0.021-0.226-0.129-0.337c-0.075-0.214-0.387-0.427-0.857-0.607c0.143-0.02,0.311-0.062,0.506-0.144
				c0.336-0.138,0.75-0.384,1.254-0.803c1.239-1.032,1.496-1.404,1.496-1.404l1.469-1.286l1.205-1.055
				c0.535-0.487,0.621-1.094,0.756-1.479c0.374,0.135,0.767,0.169,1.156,0.022l0.517-0.268c0.372,0.026,0.702-0.034,0.963-0.175
				l7.001-3.348c0.17-0.051,0.324-0.124,0.457-0.218C79.97,33.937,80.19,33.499,80.172,32.926z"/>
			<g>
				<path fill="#1D71B8" d="M59.382,49.773c-1.387,0.801-3.644,0.801-5.03,0c-1.387-0.8-1.387-2.104,0-2.904s3.644-0.801,5.03,0
					S60.769,48.974,59.382,49.773z M54.521,46.968c-1.293,0.746-1.293,1.962,0,2.708c1.294,0.747,3.398,0.747,4.691,0
					c1.294-0.746,1.294-1.962,0-2.708C57.919,46.221,55.814,46.221,54.521,46.968z"/>
				<path fill="#1D71B8" d="M59.015,49.562c-1.185,0.684-3.111,0.684-4.296,0s-1.185-1.796,0-2.48c1.185-0.684,3.111-0.684,4.296,0
					C60.198,47.766,60.198,48.878,59.015,49.562z M54.832,47.146c-1.122,0.648-1.122,1.702,0,2.35c1.122,0.648,2.947,0.648,4.069,0
					c1.122-0.647,1.122-1.701,0-2.35C57.779,46.499,55.954,46.499,54.832,47.146z"/>
				<path fill="#1D71B8" d="M58.146,49.061c-0.705,0.407-1.853,0.407-2.559,0c-0.705-0.407-0.705-1.069,0-1.478
					c0.706-0.407,1.854-0.407,2.559,0S58.851,48.653,58.146,49.061z M55.7,47.648c-0.643,0.371-0.643,0.976,0,1.347
					s1.689,0.371,2.332,0c0.644-0.371,0.644-0.976,0-1.347C57.39,47.277,56.344,47.277,55.7,47.648z"/>
				<g>
					<path fill="#1D71B8" d="M55.917,47.275c-0.007,0.003-0.015,0.003-0.023,0.002c-0.008-0.001-0.017-0.004-0.025-0.006
						l-0.436-0.151l0.244,0.227c-0.047,0.017-0.347-0.263-0.347-0.263c0.021-0.021,0.03-0.021,0.04-0.02
						c0.01,0.001,0.02,0.004,0.029,0.008l0.426,0.149l-0.243-0.228c0.047-0.017,0.347,0.263,0.347,0.263
						C55.927,47.271,55.923,47.273,55.917,47.275z"/>
					<path fill="#1D71B8" d="M56.183,47.215c-0.023,0.005-0.047,0.008-0.068,0.008c-0.021,0.001-0.043-0.001-0.062-0.006
						s-0.037-0.013-0.053-0.023s-0.029-0.024-0.041-0.042l-0.086-0.142c-0.012-0.017-0.016-0.033-0.016-0.047
						s0.006-0.026,0.016-0.037s0.024-0.021,0.042-0.027c0.018-0.008,0.038-0.014,0.062-0.019s0.045-0.008,0.067-0.008
						c0.022-0.001,0.043,0.001,0.063,0.006c0.019,0.005,0.036,0.013,0.053,0.022c0.016,0.011,0.029,0.024,0.039,0.043l0.088,0.141
						c0.011,0.018,0.016,0.034,0.016,0.047c-0.001,0.015-0.007,0.027-0.017,0.038s-0.024,0.02-0.042,0.027
						S56.205,47.21,56.183,47.215z M56.147,46.953c-0.016-0.023-0.035-0.039-0.062-0.046s-0.057-0.007-0.093,0
						c-0.035,0.007-0.059,0.019-0.071,0.034S55.909,46.976,55.923,47l0.088,0.141c0.014,0.024,0.035,0.039,0.062,0.047
						c0.025,0.007,0.057,0.007,0.092,0c0.035-0.008,0.059-0.019,0.072-0.034c0.013-0.016,0.012-0.035-0.004-0.059L56.147,46.953z"/>
					<path fill="#1D71B8" d="M56.624,46.795c0.008,0.029-0.13,0.041-0.13,0.041l0.083,0.308c-0.055,0.005-0.138-0.302-0.138-0.302
						l-0.139,0.012C56.293,46.824,56.624,46.795,56.624,46.795z"/>
					<path fill="#1D71B8" d="M56.726,47.142c-0.008,0-0.016-0.001-0.021-0.003c-0.01-0.014,0.175-0.34,0.175-0.34
						c0.041-0.011,0.048-0.01,0.054-0.008c0.012,0.009,0.176,0.338,0.176,0.338c-0.018,0.016-0.024,0.017-0.033,0.017
						c-0.01,0-0.017-0.003-0.02-0.008l-0.036-0.075l-0.231-0.002l-0.041,0.074C56.734,47.142,56.729,47.142,56.726,47.142z
						 M57.006,47.034l-0.096-0.195l-0.107,0.194L57.006,47.034z"/>
					<path fill="#1D71B8" d="M57.279,46.817c0.003-0.006,0.011-0.009,0.024-0.008l0.145,0.019c0.024,0.003,0.047,0.007,0.066,0.013
						s0.037,0.013,0.05,0.022c0.014,0.009,0.022,0.021,0.028,0.033c0.004,0.014,0.003,0.028-0.004,0.047
						c-0.006,0.015-0.014,0.026-0.023,0.036c-0.011,0.01-0.023,0.018-0.037,0.023c-0.015,0.006-0.03,0.01-0.048,0.012
						c-0.017,0.003-0.034,0.003-0.054,0.003l0.072,0.156c-0.021,0.019-0.028,0.019-0.036,0.019
						c-0.022-0.021-0.094-0.178-0.094-0.178l-0.104-0.014l-0.056,0.145C57.156,47.139,57.279,46.817,57.279,46.817z M57.327,46.842
						l-0.051,0.132l0.11,0.015c0.036,0.005,0.067,0.004,0.095-0.004c0.026-0.008,0.044-0.022,0.053-0.047
						c0.01-0.023,0.005-0.041-0.014-0.055c-0.02-0.013-0.047-0.021-0.082-0.026L57.327,46.842z"/>
					<path fill="#1D71B8" d="M57.763,47.114c0.002-0.004-0.021-0.22-0.021-0.22c0.025-0.016,0.033-0.016,0.039-0.014
						c0.014,0.014,0.03,0.211,0.03,0.211l0.265-0.125c0.01-0.005,0.019-0.006,0.027-0.004c0.008,0.027-0.285,0.161-0.285,0.161
						c-0.004,0.003-0.091,0.115-0.091,0.115C57.676,47.227,57.763,47.114,57.763,47.114z"/>
					<path fill="#1D71B8" d="M58.42,47.092c0.008-0.006,0.019-0.006,0.03,0l0.119,0.056c0.02,0.009,0.034,0.019,0.047,0.029
						c0.012,0.011,0.02,0.021,0.022,0.033c0.003,0.013,0.001,0.024-0.007,0.038s-0.021,0.027-0.041,0.042
						c-0.026,0.018-0.047,0.028-0.068,0.035s-0.043,0.011-0.063,0.011c-0.021,0.001-0.042-0.001-0.062-0.006
						c-0.021-0.005-0.041-0.012-0.061-0.021l-0.092-0.044l-0.144,0.102C58.059,47.346,58.42,47.092,58.42,47.092z M58.442,47.125
						l-0.168,0.119l0.094,0.044c0.028,0.013,0.059,0.02,0.088,0.018c0.029-0.001,0.057-0.012,0.084-0.031
						c0.035-0.023,0.047-0.042,0.044-0.059c-0.003-0.018-0.019-0.032-0.048-0.046L58.442,47.125z"/>
					<path fill="#1D71B8" d="M59.005,47.432c0.033,0.025-0.293,0.175-0.293,0.175c-0.025,0.012-0.051,0.02-0.074,0.023
						c-0.022,0.004-0.045,0.005-0.066,0.003s-0.04-0.007-0.059-0.014c-0.018-0.007-0.035-0.017-0.051-0.027
						c-0.014-0.012-0.025-0.022-0.035-0.035c-0.008-0.012-0.012-0.023-0.01-0.036c0.001-0.013,0.008-0.024,0.02-0.037
						c0.013-0.012,0.031-0.023,0.057-0.035l0.326-0.15c0.035,0.024-0.291,0.175-0.291,0.175c-0.034,0.016-0.053,0.032-0.057,0.049
						c-0.003,0.018,0.008,0.034,0.031,0.052c0.023,0.017,0.05,0.026,0.08,0.028c0.029,0.003,0.061-0.005,0.095-0.02L59.005,47.432z"
						/>
					<path fill="#1D71B8" d="M59.146,47.557c0.031,0.008,0.092,0.078,0.092,0.078c0.011,0.012,0.02,0.024,0.025,0.036
						c0.006,0.011,0.008,0.022,0.006,0.033c-0.003,0.011-0.01,0.021-0.023,0.03c-0.012,0.01-0.031,0.018-0.058,0.025
						c-0.031,0.01-0.061,0.014-0.087,0.013c-0.027,0-0.051-0.005-0.068-0.014c0.001,0.008,0.001,0.016-0.002,0.022
						c-0.002,0.008-0.006,0.016-0.013,0.021c-0.007,0.008-0.016,0.014-0.028,0.021c-0.012,0.006-0.027,0.012-0.047,0.018
						c-0.041,0.013-0.067,0.017-0.091,0.019c-0.024,0.001-0.045,0-0.063-0.005c-0.019-0.004-0.035-0.011-0.049-0.02
						c-0.016-0.008-0.027-0.019-0.038-0.03l-0.071-0.082C58.638,47.704,59.146,47.557,59.146,47.557z M58.743,47.787
						c0.017,0.019,0.039,0.031,0.064,0.037c0.027,0.006,0.061,0.003,0.099-0.009c0.052-0.015,0.075-0.028,0.081-0.043
						c0.007-0.016,0.002-0.033-0.015-0.052l-0.055-0.062l-0.229,0.066L58.743,47.787z M58.96,47.646l0.05,0.057
						c0.017,0.021,0.037,0.032,0.06,0.038c0.023,0.005,0.053,0.004,0.088-0.007c0.018-0.006,0.029-0.011,0.039-0.018
						c0.008-0.006,0.014-0.013,0.016-0.021c0.002-0.007,0.001-0.015-0.003-0.022c-0.005-0.008-0.01-0.017-0.018-0.025l-0.048-0.055
						L58.96,47.646z"/>
					<path fill="#1D71B8" d="M58.802,47.941c0.014-0.018,0.562-0.107,0.562-0.107c0.015,0.031-0.505,0.116-0.505,0.116l0.066,0.132
						C58.875,48.091,58.802,47.941,58.802,47.941z"/>
					<path fill="#1D71B8" d="M59.466,48.079c0.008,0.031-0.555,0.08-0.555,0.08C58.902,48.128,59.466,48.079,59.466,48.079z"/>
					<path fill="#1D71B8" d="M59.368,48.382c0.009,0,0.02-0.001,0.031-0.003c0.012-0.001,0.021-0.004,0.033-0.01
						c0.01-0.005,0.018-0.012,0.025-0.021c0.007-0.009,0.01-0.02,0.01-0.035c0-0.022-0.011-0.039-0.031-0.051
						c-0.021-0.012-0.053-0.018-0.097-0.018l-0.259,0.002c-0.045,0-0.076,0.006-0.098,0.019c-0.02,0.012-0.03,0.03-0.029,0.053
						c0,0.016,0.004,0.026,0.011,0.035c0.007,0.008,0.017,0.015,0.026,0.019c0.011,0.004,0.021,0.007,0.033,0.009
						c0.012,0.001,0.023,0.003,0.033,0.003c0.015,0.001,0.022,0.006,0.022,0.017c-0.011,0.014-0.021,0.016-0.034,0.016
						c-0.02,0-0.037-0.002-0.054-0.007c-0.018-0.004-0.032-0.011-0.046-0.02s-0.023-0.019-0.031-0.031s-0.012-0.026-0.012-0.043
						c-0.001-0.013,0.002-0.025,0.008-0.038c0.007-0.013,0.018-0.022,0.031-0.032c0.014-0.009,0.032-0.017,0.055-0.022
						c0.022-0.005,0.05-0.008,0.083-0.008l0.259-0.001c0.033-0.001,0.061,0.002,0.083,0.008c0.022,0.005,0.041,0.012,0.056,0.021
						c0.014,0.01,0.024,0.021,0.031,0.032c0.007,0.013,0.01,0.025,0.01,0.039c0.001,0.016-0.003,0.03-0.01,0.043
						c-0.008,0.012-0.018,0.022-0.029,0.031c-0.014,0.008-0.028,0.015-0.045,0.019c-0.017,0.005-0.035,0.008-0.053,0.008
						c-0.015,0-0.023-0.002-0.027-0.004C59.356,48.384,59.362,48.383,59.368,48.382z"/>
				</g>
				<g>
					<path fill="#1D71B8" d="M57.931,49.331c0.006-0.003,0.014-0.004,0.021-0.003c0.009,0.001,0.018,0.003,0.025,0.006l0.441,0.141
						l-0.258-0.223c0.045-0.019,0.361,0.255,0.361,0.255c-0.019,0.022-0.027,0.023-0.037,0.022s-0.02-0.004-0.03-0.007l-0.431-0.14
						l0.258,0.224c-0.045,0.019-0.362-0.256-0.362-0.256C57.921,49.336,57.925,49.333,57.931,49.331z"/>
					<path fill="#1D71B8" d="M57.676,49.4c0.022-0.006,0.044-0.01,0.065-0.011s0.042,0,0.061,0.005
						c0.02,0.004,0.037,0.011,0.054,0.021s0.03,0.024,0.042,0.043l0.092,0.142c0.012,0.018,0.018,0.034,0.018,0.048
						c0,0.015-0.006,0.027-0.014,0.039c-0.01,0.011-0.023,0.021-0.039,0.028c-0.018,0.009-0.037,0.016-0.059,0.021
						c-0.023,0.006-0.045,0.009-0.066,0.01c-0.021,0.002-0.041,0-0.061-0.004s-0.037-0.012-0.053-0.022
						c-0.018-0.01-0.031-0.024-0.042-0.042l-0.092-0.142c-0.012-0.018-0.019-0.034-0.018-0.049
						c-0.001-0.015,0.005-0.026,0.013-0.038c0.01-0.012,0.023-0.021,0.039-0.029C57.634,49.412,57.653,49.405,57.676,49.4z
						 M57.724,49.666c0.016,0.024,0.036,0.039,0.062,0.046s0.057,0.006,0.09-0.003c0.035-0.008,0.058-0.021,0.068-0.037
						c0.012-0.016,0.01-0.035-0.005-0.059l-0.093-0.143c-0.016-0.023-0.036-0.039-0.062-0.046c-0.026-0.006-0.057-0.006-0.09,0.003
						c-0.035,0.009-0.058,0.021-0.068,0.037c-0.012,0.016-0.01,0.036,0.006,0.06L57.724,49.666z"/>
					<path fill="#1D71B8" d="M57.262,49.848c-0.009-0.03,0.125-0.048,0.125-0.048l-0.091-0.313c0.053-0.007,0.144,0.307,0.144,0.307
						l0.134-0.018C57.582,49.806,57.262,49.848,57.262,49.848z"/>
					<path fill="#1D71B8" d="M57.148,49.493c0.03,0.017-0.141,0.361-0.141,0.361c-0.063,0.001-0.23-0.331-0.23-0.331
						c0.017-0.017,0.024-0.019,0.032-0.02c0.01,0,0.017,0.003,0.02,0.009l0.037,0.075l0.224-0.008l0.038-0.078
						C57.14,49.494,57.144,49.493,57.148,49.493z M56.88,49.616l0.097,0.197l0.1-0.204L56.88,49.616z"/>
					<path fill="#1D71B8" d="M56.618,49.852c-0.002,0.007-0.01,0.01-0.023,0.01l-0.141-0.011c-0.022-0.002-0.045-0.006-0.064-0.01
						c-0.02-0.005-0.035-0.012-0.049-0.021c-0.013-0.009-0.021-0.02-0.027-0.033c-0.004-0.014-0.004-0.029,0.002-0.048
						c0.006-0.016,0.014-0.028,0.023-0.039s0.021-0.019,0.035-0.026c0.014-0.007,0.029-0.012,0.045-0.015
						c0.018-0.003,0.034-0.005,0.053-0.006l-0.074-0.156c0.021-0.021,0.027-0.021,0.035-0.021c0.021,0.02,0.095,0.178,0.095,0.178
						l0.101,0.008l0.051-0.152C56.731,49.515,56.618,49.852,56.618,49.852z M56.573,49.829l0.045-0.139l-0.107-0.009
						c-0.035-0.003-0.066,0-0.092,0.009c-0.025,0.01-0.042,0.026-0.051,0.052c-0.008,0.024-0.004,0.043,0.016,0.056
						c0.018,0.013,0.045,0.02,0.081,0.022L56.573,49.829z"/>
					<path fill="#1D71B8" d="M56.142,49.575c-0.002,0.004,0.027,0.223,0.027,0.223c-0.051,0.005-0.072-0.195-0.072-0.195
						l-0.256,0.146c-0.009,0.005-0.018,0.007-0.025,0.006c-0.01-0.027,0.272-0.185,0.272-0.185c0.004-0.003,0.085-0.124,0.085-0.124
						C56.223,49.455,56.142,49.575,56.142,49.575z"/>
					<path fill="#1D71B8" d="M55.492,49.646c-0.008,0.006-0.018,0.007-0.03,0.003l-0.121-0.047
						c-0.019-0.007-0.034-0.016-0.047-0.024c-0.013-0.011-0.021-0.021-0.024-0.032c-0.003-0.012-0.002-0.025,0.005-0.039
						c0.006-0.014,0.02-0.029,0.039-0.046c0.025-0.02,0.045-0.032,0.066-0.041c0.02-0.009,0.041-0.015,0.062-0.017
						c0.021-0.003,0.042-0.002,0.062,0.001c0.021,0.004,0.041,0.008,0.06,0.016l0.095,0.037l0.137-0.114
						C55.837,49.358,55.492,49.646,55.492,49.646z M55.468,49.613l0.16-0.134l-0.094-0.036c-0.029-0.012-0.059-0.016-0.088-0.011
						c-0.029,0.004-0.057,0.017-0.083,0.039c-0.032,0.027-0.044,0.046-0.04,0.062s0.021,0.031,0.051,0.043L55.468,49.613z"/>
					<path fill="#1D71B8" d="M54.904,49.369c-0.036-0.021,0.275-0.203,0.275-0.203c0.024-0.015,0.048-0.024,0.071-0.03
						c0.023-0.007,0.045-0.01,0.066-0.011c0.021,0,0.041,0.003,0.061,0.009c0.019,0.005,0.036,0.013,0.052,0.021
						c0.017,0.01,0.029,0.02,0.038,0.031c0.01,0.011,0.015,0.022,0.015,0.035s-0.005,0.024-0.017,0.038
						c-0.011,0.014-0.029,0.027-0.053,0.042l-0.312,0.181c-0.036-0.021,0.275-0.202,0.275-0.202c0.033-0.019,0.05-0.037,0.051-0.055
						c0.002-0.018-0.01-0.033-0.035-0.048s-0.053-0.021-0.082-0.021s-0.061,0.012-0.094,0.03L54.904,49.369z"/>
					<path fill="#1D71B8" d="M54.74,49.257c-0.031-0.004-0.103-0.065-0.103-0.065c-0.013-0.011-0.022-0.021-0.029-0.032
						c-0.009-0.011-0.012-0.021-0.011-0.032s0.007-0.021,0.019-0.032c0.011-0.011,0.029-0.021,0.055-0.031
						c0.03-0.013,0.059-0.021,0.086-0.022c0.028-0.002,0.051-0.001,0.07,0.006c-0.002-0.008-0.002-0.015-0.002-0.022
						c0.002-0.008,0.006-0.015,0.011-0.022c0.006-0.008,0.015-0.015,0.026-0.022s0.026-0.016,0.045-0.022
						c0.04-0.017,0.065-0.024,0.09-0.027c0.023-0.005,0.044-0.005,0.063-0.003c0.021,0.002,0.037,0.006,0.053,0.014
						c0.016,0.006,0.03,0.015,0.042,0.026l0.082,0.07C55.232,49.057,54.74,49.257,54.74,49.257z M54.915,49.149l-0.058-0.05
						c-0.02-0.018-0.041-0.027-0.065-0.03c-0.023-0.003-0.053,0.003-0.088,0.017c-0.016,0.007-0.027,0.015-0.035,0.021
						c-0.008,0.008-0.013,0.016-0.014,0.022s0.001,0.015,0.006,0.021c0.005,0.008,0.012,0.016,0.021,0.023l0.055,0.048
						L54.915,49.149z M55.114,48.987c-0.019-0.017-0.042-0.026-0.07-0.029c-0.027-0.002-0.061,0.005-0.098,0.02
						c-0.049,0.021-0.07,0.036-0.076,0.052c-0.004,0.016,0.004,0.032,0.023,0.049l0.062,0.055l0.223-0.09L55.114,48.987z"/>
					<path fill="#1D71B8" d="M55.03,48.843c-0.011,0.019-0.549,0.17-0.549,0.17c-0.021-0.027,0.49-0.171,0.49-0.171l-0.09-0.12
						C54.93,48.708,55.03,48.843,55.03,48.843z"/>
					<path fill="#1D71B8" d="M54.333,48.79c-0.015-0.029,0.547-0.143,0.547-0.143C54.896,48.677,54.333,48.79,54.333,48.79z"/>
					<path fill="#1D71B8" d="M54.364,48.491c-0.009,0.001-0.02,0.003-0.031,0.006s-0.021,0.008-0.03,0.014s-0.017,0.014-0.021,0.022
						c-0.006,0.01-0.007,0.021-0.003,0.034c0.006,0.022,0.021,0.037,0.045,0.046c0.023,0.009,0.058,0.011,0.102,0.006l0.264-0.033
						c0.045-0.005,0.076-0.015,0.094-0.029c0.018-0.014,0.023-0.032,0.019-0.055c-0.003-0.014-0.011-0.024-0.021-0.031
						c-0.008-0.007-0.019-0.012-0.029-0.015c-0.012-0.003-0.023-0.005-0.037-0.005c-0.012,0-0.023,0.001-0.034,0.001
						c-0.015,0.001-0.023-0.003-0.026-0.013c0.008-0.015,0.018-0.018,0.031-0.02c0.02-0.002,0.037-0.002,0.057,0
						c0.018,0.003,0.035,0.007,0.051,0.014c0.016,0.006,0.028,0.016,0.039,0.026s0.019,0.023,0.022,0.039
						c0.003,0.013,0.003,0.025-0.001,0.038c-0.003,0.013-0.011,0.023-0.022,0.034c-0.013,0.011-0.03,0.019-0.052,0.027
						c-0.021,0.008-0.049,0.014-0.082,0.018l-0.264,0.032c-0.032,0.004-0.061,0.005-0.086,0.003
						c-0.023-0.003-0.045-0.007-0.061-0.015c-0.017-0.007-0.03-0.016-0.039-0.026c-0.01-0.011-0.018-0.023-0.02-0.036
						c-0.004-0.015-0.004-0.029,0-0.042s0.012-0.023,0.023-0.033c0.011-0.009,0.024-0.018,0.039-0.024
						c0.018-0.006,0.034-0.011,0.054-0.013c0.015-0.001,0.024-0.001,0.028,0.001C54.376,48.488,54.37,48.49,54.364,48.491z"/>
				</g>
				<path fill="#1D71B8" d="M57.92,48.93c-0.581,0.335-1.526,0.335-2.106,0s-0.58-0.881,0-1.216s1.525-0.335,2.106,0
					S58.501,48.595,57.92,48.93z M55.927,47.778c-0.519,0.3-0.519,0.787,0,1.086c0.518,0.3,1.361,0.3,1.88,0
					c0.519-0.299,0.519-0.786,0-1.086C57.288,47.48,56.444,47.48,55.927,47.778z"/>
				<g>
					<path fill="#1D71B8" d="M55.128,47.697c0.008,0,0.016,0.003,0.023,0.007c0.012,0.007,0.016,0.014,0.015,0.022
						c-0.002,0.01-0.007,0.017-0.017,0.021c-0.021,0.008-0.029,0.008-0.039,0.008l-0.248-0.028l0.049,0.145
						c0.004,0.008,0,0.015-0.01,0.02c-0.008,0.005-0.02,0.009-0.036,0.011s-0.03,0-0.042-0.007c-0.007-0.004-0.012-0.01-0.014-0.017
						l-0.033-0.142l-0.218,0.067c-0.01,0.004-0.02,0.005-0.029,0.003s-0.019-0.004-0.024-0.008c-0.01-0.006-0.016-0.013-0.018-0.021
						c-0.001-0.008,0.004-0.016,0.016-0.022c0.011-0.004,0.234-0.066,0.234-0.066l-0.178-0.096c-0.01-0.007-0.016-0.014-0.014-0.021
						s0.007-0.014,0.017-0.019c0.009-0.006,0.021-0.009,0.032-0.01s0.023,0.002,0.036,0.008l0.166,0.104l0.107-0.13
						c0.02-0.013,0.032-0.016,0.046-0.015c0.016,0.002,0.027,0.005,0.037,0.011c0.017,0.01,0.02,0.02,0.008,0.03l-0.117,0.123
						L55.128,47.697z"/>
				</g>
				<g>
					<path fill="#1D71B8" d="M59.24,48.945c0.008,0,0.016,0.003,0.024,0.008c0.01,0.006,0.015,0.013,0.014,0.021
						c-0.002,0.01-0.007,0.017-0.017,0.022c-0.022,0.007-0.03,0.008-0.038,0.007l-0.248-0.027l0.049,0.144
						c0.002,0.008-0.001,0.015-0.011,0.021c-0.008,0.004-0.021,0.007-0.036,0.01c-0.017,0.002-0.031,0-0.043-0.007
						c-0.006-0.003-0.01-0.01-0.012-0.017l-0.035-0.142l-0.217,0.068c-0.01,0.003-0.02,0.004-0.029,0.003
						c-0.01-0.002-0.018-0.005-0.025-0.009c-0.01-0.006-0.016-0.013-0.016-0.021c-0.002-0.008,0.003-0.015,0.015-0.022
						c0.011-0.004,0.234-0.066,0.234-0.066l-0.179-0.096c-0.01-0.007-0.015-0.014-0.013-0.021c0.001-0.007,0.007-0.013,0.017-0.019
						s0.02-0.009,0.031-0.01s0.024,0.002,0.037,0.008l0.166,0.104l0.107-0.131c0.02-0.014,0.031-0.016,0.047-0.014
						c0.014,0.001,0.025,0.005,0.035,0.01c0.018,0.01,0.02,0.021,0.008,0.03l-0.117,0.123L59.24,48.945z"/>
				</g>
			</g>
			<g>
				<path fill="#575756" d="M70.14,33.844c0-1.632-1.145-3.616-2.559-4.433c-0.703-0.405-1.34-0.445-1.803-0.183
					c-0.467,0.266-0.756,0.841-0.756,1.661c0,1.632,1.145,3.616,2.559,4.433c0.731,0.422,1.391,0.447,1.856,0.149
					C69.872,35.193,70.14,34.632,70.14,33.844z"/>
				<path fill="#DADADA" d="M67.901,35.978c-1.039,0.446-2.061-0.729-2.742-1.751c-0.626-1.431-1.695-3.179-1.035-3.717
					c0.749-0.534,2.762,0.027,4.119,0.565C68.466,32.848,69.239,35.116,67.901,35.978z"/>
				<path fill="#FCAF75" d="M75.804,30.915l-6.62,3.274l-2.151,1.185c-0.479,0.119-0.296,1.529-1.146,2.484l-1.273,1.377
					l-0.45-0.117l-2.747-0.712c0.006-0.023,0.013-0.048,0.018-0.072c0.019-0.074,0.033-0.148,0.043-0.223
					c-0.478-0.769-2.2-0.546-3.837-0.391l-0.252,0.689c0.553-0.03,0.974,0.24,1.286,0.758l-0.316,0.547l-1.267,2.19l-0.145,0.249
					l-0.938-0.161l-0.34-0.019c-0.318-0.018-0.621-0.149-0.853-0.371l-1.725-1.655c-0.396-0.397-0.58-0.848-0.437-1.378
					c-0.182-0.214-0.27-0.476-0.184-0.827l-0.061-0.136c-0.139-0.31-0.148-0.662-0.028-0.98l0.024-0.064
					c0-0.001,0.593-1.575,0.593-1.575l0.12-0.473c0.158-0.616,0.699-1.067,1.335-1.089c0.015,0,6.585-2.091,6.585-2.091
					c1.068-0.313,2.082-0.507,2.986-0.459l7.664-6.025L75.804,30.915z"/>
				<path opacity="0.5" fill="#FCAF75" d="M61.435,38.333c0.018-0.074,0.032-0.148,0.042-0.223c-0.478-0.769-2.2-0.546-3.837-0.391
					l-0.252,0.689c0.553-0.03,0.974,0.24,1.286,0.758l-0.316,0.547l-1.781-0.606c0.544-0.699,0.696-1.604,0.892-2.628
					c1.436,0.506,2.975,0.716,4.152,0.12C61.729,37.129,61.653,37.711,61.435,38.333z"/>
				<path opacity="0.5" fill="#FCAF75" d="M57.18,40.477l-0.089,1.428l-0.145,0.249l-0.938-0.161l-0.34-0.019
					c-0.318-0.018-0.621-0.149-0.853-0.371l-1.725-1.655c-0.396-0.397-0.58-0.848-0.437-1.378c-0.182-0.214-0.27-0.476-0.184-0.827
					l-0.061-0.136c-0.139-0.31-0.148-0.662-0.028-0.98l0.024-0.064l0.156,0.4l0.734-1.769l-0.573,2.229l0.229,0.459
					c0.418-1.022,0.684-1.973,0.95-3.228c0.119-0.466,0.478-0.65,0.887-0.775c-0.441,0.293-0.579,0.568-0.624,0.941
					c-0.217,1.293-0.497,2.316-0.949,3.379c-0.201,0.469-0.109,1.019,0.244,1.387c0.405,0.425,0.997,0.688,1.37,0.254
					c-0.261-0.317-0.435-0.813-0.19-1.258c0.482-0.913,0.806-1.886,0.862-2.877c0.12-0.947,0.611-1.1,1.257-1.103
					c-0.59,0.187-0.947,0.413-1.085,1.103c-0.009,1.051-0.235,2.043-0.7,2.969c-0.208,0.414-0.081,0.927,0.309,1.178
					C55.816,40.334,56.464,40.494,57.18,40.477z"/>
				<g>
					
						<ellipse transform="matrix(0.9793 0.2024 -0.2024 0.9793 10.4383 -10.6147)" fill="#1D1D1B" cx="57.123" cy="45.733" rx="3.334" ry="1.254"/>
					<polygon fill="#1D1D1B" points="60.621,45.319 54.091,43.969 53.857,45.059 60.378,46.451 					"/>
					
						<ellipse transform="matrix(0.9793 0.2025 -0.2025 0.9793 10.2306 -10.6912)" fill="#292928" cx="57.356" cy="44.644" rx="3.334" ry="1.255"/>
					
						<ellipse transform="matrix(0.9793 0.2025 -0.2025 0.9793 10.1823 -10.693)" fill="#3C3C3B" cx="57.355" cy="44.422" rx="3.217" ry="1.254"/>
					
						<ellipse transform="matrix(0.9773 0.2121 -0.2121 0.9773 10.7148 -11.1635)" fill="#1D1D1B" cx="57.395" cy="44.364" rx="2.084" ry="0.856"/>
					<path fill="#1D1D1B" d="M59.14,41.328l-2.017-0.529c-0.276,1.179-0.704,2.157-1.653,2.928l3.892,0.751
						C58.892,43.517,58.858,42.596,59.14,41.328z"/>
					<path fill="#3C3C3B" d="M60.19,40.606c-0.129,0.63-0.912,0.985-2.116,0.752c-1.041-0.203-1.757-0.802-1.646-1.529
						c0.119-0.77,1.075-0.952,2.117-0.752C59.69,39.297,60.321,39.976,60.19,40.606z"/>
					
						<ellipse transform="matrix(0.9772 0.2121 -0.2121 0.9772 9.7519 -11.4821)" fill="#525250" cx="58.397" cy="39.715" rx="1.561" ry="0.573"/>
				</g>
				<path fill="#FCAF75" d="M64.613,39.235l-1.552,1.679c0,0-0.277,0.497-1.585,1.838c-0.532,0.545-0.966,0.857-1.315,1.024
					c-0.873,0.418-1.213-0.067-1.213-0.067c-1.633-1.457,1.392-3.514,1.392-3.514c0.509-0.59,0.913-1.184,1.076-1.788
					c0.948-0.188,1.896-0.014,2.844,0.587C64.378,39.066,64.495,39.148,64.613,39.235z"/>
				<path opacity="0.5" fill="#FCAF75" d="M69.184,34.189l-2.151,1.185c-0.479,0.119-0.296,1.529-1.146,2.484l-1.273,1.377
					l-1.552,1.679c0,0-0.277,0.497-1.585,1.838c-0.532,0.545-0.966,0.857-1.315,1.024l-0.305,0.077
					c0.828-0.462,0.881-0.813,0.531-1.295c-0.289-0.398-0.824-0.352-1.323-0.22c0.46-0.297,0.939-0.363,1.391-0.115
					c0.292,0.161,0.372,0.404,0.401,0.635c0.934-0.79,1.689-1.573,1.952-2.334c0.481-0.339,0.913-0.839,1.354-1.405
					c0.031-0.041,0.064-0.083,0.097-0.125c0.347-0.449,0.704-0.935,1.099-1.41c0.564-0.607,0.873-1.472,1.057-2.458
					c0.129-0.402,0.086-0.932,0-1.492c0.205,0.324,0.331,0.702,0.355,1.147c0.707-0.014,1.758-0.78,2.24-1.826L69.184,34.189z"/>
				<path fill="#EDEDED" d="M64.124,30.51c2.25-0.95,5.191,4.112,3.777,5.468l2.577-1.594c0.849-1.875-1.009-5.48-3.531-5.761
					L64.124,30.51z"/>
				<path fill="#1D1D1B" d="M77.87,29.325c0,1.868-1.312,2.626-2.931,1.691c-1.618-0.934-2.931-3.206-2.93-5.074
					c0-1.868,1.312-2.626,2.93-1.691C76.558,25.184,77.87,27.457,77.87,29.325z"/>
				<path fill="#1D1D1B" d="M77.232,31.062l-4.351-7.032l-7.104,5.199c0.463-0.263,1.1-0.223,1.803,0.183
					c1.414,0.816,2.559,2.801,2.559,4.433c0,0.788-0.268,1.349-0.702,1.628L77.232,31.062z"/>
			</g>
		</g>
		<g>
			<g>
				<path d="M43.049,47.284c-1.066-0.065-0.831-1.877-0.542-2.862c0.104-0.355,0.531-0.528,0.884-0.413
					c0.353,0.116,0.568,0.785,0.558,1.156C43.938,45.511,44.309,47.362,43.049,47.284z"/>
				<path fill="#FCAF75" d="M42.466,45.401c-0.18-1.527,1.489-1.653,1.263,0.01c-0.061,0.442-0.339,0.765-0.618,0.777
					C42.674,46.208,42.503,45.721,42.466,45.401z"/>
				<g>
					<g>
						<path fill="#FCAF75" d="M37.514,44.8c-0.464,0.371-1.052,0.57-1.636,0.554c-0.08-0.002-0.169-0.013-0.221-0.076
							c-0.079-0.097-0.023-0.244,0.042-0.352c0.538-0.877,1.548-1.624,1.991-2.558c0.051-0.106,0.097-0.223,0.188-0.296
							c0.139-0.111,0.334-0.086,0.504-0.13c0.157-0.04,0.324-0.142,0.468-0.063c0.13,0.071,0.157,0.249,0.196,0.396
							c0.042,0.158,0.114,0.554,0.166,0.709c0.052,0.156,0.082,0.326,0.037,0.483c-0.057,0.196-0.221,0.338-0.395,0.432
							c-0.174,0.094-0.365,0.15-0.538,0.246C38.015,44.312,37.784,44.584,37.514,44.8z"/>
						<path d="M35.657,45.278c0.052,0.062,0.141,0.071,0.22,0.075c0.584,0.017,1.174-0.182,1.637-0.553
							c0.27-0.216,0.502-0.49,0.802-0.656c0.173-0.094,0.364-0.153,0.537-0.245c0.173-0.095,0.337-0.238,0.394-0.434
							c0.047-0.156,0.015-0.326-0.035-0.483c-0.044-0.134-0.104-0.511-0.146-0.646c-0.008-0.02-0.015-0.04-0.02-0.062
							c-0.04-0.146-0.067-0.324-0.198-0.396c-0.141-0.079-0.31,0.022-0.465,0.064c-0.171,0.042-0.367,0.017-0.505,0.129
							c-0.091,0.074-0.136,0.19-0.188,0.297c-0.173,0.369-0.438,0.668-0.726,0.954c-0.44,0.434-0.941,1.074-1.265,1.604
							C35.634,45.033,35.578,45.182,35.657,45.278z"/>
						<path fill="#FCAF75" d="M36.649,43.832c-0.007,0.06,0.012,0.124,0.062,0.159c0.042,0.024,0.094,0.024,0.144,0.021
							c0.52-0.039,0.978-0.352,1.382-0.683c0.208-0.171,0.411-0.352,0.577-0.565c0.102-0.132,0.19-0.275,0.253-0.429
							c-0.008-0.02-0.015-0.04-0.02-0.062c-0.04-0.146-0.045-0.458-0.176-0.529c-0.141-0.079-0.331,0.005-0.487,0.047
							c-0.171,0.042-0.426-0.055-0.565,0.057c-0.091,0.074-0.051,0.322-0.104,0.429c-0.173,0.369-0.463,0.759-0.75,1.044
							c-0.089,0.121-0.173,0.237-0.243,0.35C36.689,43.721,36.659,43.773,36.649,43.832z"/>
					</g>
					<path fill="#FCAF75" d="M37.138,33.251c0.015,0.238,0.034,0.514,0.052,0.817c0.019,0.287,0.039,0.599,0.06,0.929
						c0.017,0.267,0.034,0.542,0.052,0.827c0.183,2.858,0.41,6.446,0.41,6.452c0.004,0.01,0.008,0.015,0.011,0.021
						c0.259,0.482,1.234,0.591,1.323-0.021c0.104-1.89,0.44-3.537,0.677-5.049c0.08-0.516,0.149-1.016,0.192-1.504
						c0.039-0.417,0.058-0.825,0.05-1.228v-0.061c-0.006-0.35-0.034-0.694-0.087-1.036c-0.017-0.103-0.038-0.203-0.058-0.304
						l-2.201-1.429C37.619,31.728,37.138,33.186,37.138,33.251z"/>
				</g>
				<g>
					<g>
						<path fill="#FCAF75" d="M39.723,30.098c0.365,1.871,0.574,3.351,0.795,4.483c0.017,0.086,0.034,0.17,0.051,0.252
							c0.089,0.435,0.186,0.814,0.298,1.141c0.024,0.074,0.049,0.146,0.077,0.211l0.183,0.876l0.08,0.382l1.413,6.773l0.05,0.24
							l0.047,0.222c0,0.533,0.815,0.353,0.864-0.097c0.004-0.033,0.008-0.069,0.012-0.103c0.011-0.101,0.021-0.199,0.031-0.298
							c0.438-4.091,0.316-5.739,0.041-7.286c-0.033-0.198-0.071-0.396-0.11-0.595c-0.056-0.287-0.115-0.58-0.175-0.893
							c0.015-0.101,0.024-0.201,0.035-0.302c0.004-0.026,0.006-0.053,0.008-0.079c0.004-0.015,0.004-0.027,0.006-0.043
							c0.24-2.128,0.179-3.761,0.124-4.886H39.723z"/>
					</g>
					<g>
						<path fill="#FFBB7D" d="M39.723,30.098c0.365,1.871,0.574,3.351,0.795,4.483c0.017,0.086,0.034,0.17,0.051,0.252
							c0.089,0.435,0.186,0.814,0.298,1.141c0.024,0.074,0.049,0.146,0.077,0.211l0.183,0.876l0.08,0.382l1.413,6.773l0.05,0.24
							l0.047,0.222c0,0.533,0.815,0.353,0.864-0.097c0.004-0.033,0.008-0.069,0.012-0.103c0.011-0.101,0.021-0.199,0.031-0.298
							c0.438-4.091,0.316-5.739,0.041-7.286c-0.033-0.198-0.071-0.396-0.11-0.595c-0.056-0.287-0.115-0.58-0.175-0.893
							c0.015-0.101,0.024-0.201,0.035-0.302c0.004-0.026,0.006-0.053,0.008-0.079c0.004-0.015,0.004-0.027,0.006-0.043
							c0.24-2.128,0.179-3.761,0.124-4.886H39.723z"/>
					</g>
				</g>
			</g>
			<path opacity="0.3" fill="#FCAF75" d="M40.518,34.582c0.017,0.086,0.034,0.17,0.051,0.252c0.089,0.435,0.186,0.814,0.298,1.141
				c0.024,0.074,0.049,0.146,0.077,0.211l0.183,0.876l0.08,0.382c0.816,0.011,1.661-0.151,2.458-0.548
				c-0.033-0.198-0.071-0.396-0.11-0.595c-0.056-0.287-0.115-0.58-0.175-0.893c0.015-0.101,0.024-0.201,0.035-0.302
				c0.004-0.026,0.006-0.053,0.008-0.079L40.518,34.582z"/>
			<path opacity="0.3" fill="#FCAF75" d="M37.19,34.069c0.019,0.287,0.039,0.599,0.06,0.929c0.017,0.267,0.034,0.542,0.052,0.827
				c0.555,0.615,1.422,1.13,2.421,1.403c0.08-0.516,0.149-1.016,0.192-1.504c0.039-0.417,0.058-0.825,0.05-1.228L37.19,34.069z"/>
			<path fill="#3F76AB" d="M34.882,25.06l3.436-0.683c0,0,1.313-4.327,1.262-4.396c-0.051-0.07-1.315-2.667-1.315-2.667
				l-0.988,5.424l-2.966,1.49L34.882,25.06z"/>
			<path fill="#EDEDED" d="M34.882,25.06l3.436-0.683c0,0,1.313-4.327,1.262-4.396c-0.051-0.07-1.315-2.667-1.315-2.667
				l-0.988,5.424l-2.966,1.49L34.882,25.06z"/>
			<path fill="#1D1D1B" d="M41.578,14.679c2.187,0.711,1.72,2.774,1.13,4.392l-1.543-1.451L41.578,14.679z"/>
			<path fill="#E6332A" d="M37.238,34.821c0.333,0.908,4.853,2.73,6.284,1.315l0.419-6.245c0.388-2.05,0.049-3.106-1.015-4.099
				c-0.129-0.119-0.267-0.236-0.416-0.355l-3.174-0.129l-1.243-0.051C37.015,28.698,36.985,32.445,37.238,34.821z"/>
			<path fill="#FFFFFF" d="M36.75,22.142c-0.004,0.632,0.598,1.205,1.342,1.104c0.004,0.605,0.188,1.454,0,2.011
				c0.304,0.728,0.708,1.288,1.51,1.493c0.803,0.203,2.406,0.034,3.325-0.958c-0.153-1.125,0.227-2.568,0.625-3.777
				c0.307-0.936,0.419-2.115,0.505-2.517c-0.734-0.922-1.415-1.306-2.355-1.96c-0.939-0.656-1.659-1.409-2.732-1.007
				c-1.075,0.402-0.913,2.458-1.309,3.303C37.266,20.677,36.752,21.264,36.75,22.142z"/>
			<path opacity="0.75" fill="#E6332A" d="M38.092,25.257c0.304,0.728,0.708,1.288,1.51,1.493c0.803,0.203,2.406,0.034,3.325-0.958
				c1.064,0.992,1.403,2.049,1.015,4.099l-0.419,6.245c-0.13,0.124-0.348,0.28-0.699,0.403c0.291-2.18-0.041-7.2-0.503-8.913
				c-2.629,0.103-3.742-0.515-4.355-1.964L38.092,25.257z"/>
			<path opacity="0.2" fill="#1D1D1B" d="M38.092,25.257c0.304,0.728,0.708,1.288,1.51,1.493c0.803,0.203,2.406,0.034,3.325-0.958
				c-0.153-1.125,0.227-2.568,0.625-3.777l-0.791-0.66l-1.237,2.101c-0.822,1.383-2.952,1.11-3.042-0.304l-0.39,0.108
				C38.096,23.852,38.28,24.701,38.092,25.257z"/>
			<path fill="#FCAF75" d="M40.726,24.464c-0.107,0.208-0.325,0.372-0.642,0.494l-0.445,0.097c-0.043,0.131-0.242,0.156-0.445,0.178
				c-0.148-0.021-0.216-0.092-0.202-0.21c-0.118-0.082-0.188-0.175-0.138-0.291c-0.11-0.08-0.158-0.178-0.097-0.308
				c-0.095-0.103-0.133-0.213-0.064-0.34l-1.093,0.129c-0.235,0.028-0.315-0.194,0-0.267l2.031-0.372c0.281-0.071,0.57-0.07,0.866,0
				l0.696,0.178l-0.041,0.842L40.726,24.464z"/>
			<path fill="#EDEDED" d="M44.057,19.5c1.154,1.411,2.365,5.376,1.533,5.964c-0.956,0.828-3.008-0.086-4.914-0.864
				c0.1-0.45,0.113-0.785-0.18-1.024l3.524,0.398l-1.4-2.221C42.074,19.896,43.004,18.814,44.057,19.5z"/>
			<path fill="#FCAF75" d="M41.289,16.088c0.139,0.478,0.513,1.216,0.604,1.672c0.104,0.562-0.931,1.435-1.625,1.384
				c-0.491-0.096-0.616-0.727-0.688-1.306L41.289,16.088z"/>
			<path opacity="0.15" fill="#1D1D1B" d="M40.933,16.453c0,0,0.408,3.359-1.206,3.082c-1.053-0.181-0.832-1.917-0.832-1.917
				L40.933,16.453z"/>
			<path fill="#1D1D1B" d="M39.073,14.366c-1.388,0.212-2.945,1.908-0.616,2.854C38.396,16.453,38.261,15.872,39.073,14.366z"/>
			<path fill="#FCAF75" d="M39.915,13.377c-1.618,0.224-2.117,1.173-1.956,2.46c0.019,1.08,0.917,2.509,1.544,2.482
				c0.895,0.049,1.334-0.994,2.098-2.111C42.192,14.373,41.421,13.168,39.915,13.377z"/>
			<path fill="#1D1D1B" d="M37.981,15.874c0.336,0.36,0.875,0.563,1.547,0.719c0.567,0.233,1.117,0.211,1.336,0.528l0.657-0.272
				c0.66-0.76,0.726-2.932-0.407-3.392C39.297,12.72,37.137,14.544,37.981,15.874z"/>
			<path fill="#FCAF75" d="M40.889,16.788c0.1-0.396,0.375-0.656,0.61-0.429c0.109,0.106,0.102,0.302,0,0.55
				c-0.08,0.193-0.202,0.283-0.353,0.307C40.923,17.249,40.812,17.092,40.889,16.788z"/>
			<path fill="#FFFFFF" d="M35.86,21.645c1.026,0.963,1.716,2.413,2.232,4.527l-3.555,0.115c0.052-1.644-1.025-3.179-2.385-4.643
				H35.86z"/>
			<path fill="#FCAF75" d="M34.653,24.327c0.367,0.038,0.367,0.324,0.094,0.352c0.417-0.008,0.485,0.36,0.134,0.382
				c0.24,0.014,0.285,0.288-0.062,0.32c0.26,0.081,0.28,0.245-0.013,0.285l-0.396,0.021c-0.16,0.016-0.377-0.08-0.331-0.276
				c-0.135-0.001-0.239-0.326-0.172-0.351c-0.122-0.052-0.208-0.289-0.119-0.366c-0.168-0.091-0.191-0.339,0.052-0.608l0.116-0.119
				l0.173,0.336L34.653,24.327z"/>
		</g>
		<g>
			<g>
				<g>
					<g>
						<circle fill="#030403" cx="21.038" cy="46.814" r="0.409"/>
						<circle fill="#030403" cx="22" cy="50.95" r="0.409"/>
						<circle fill="#030403" cx="15.42" cy="52.85" r="0.409"/>
						<circle fill="#030403" cx="10.485" cy="49.916" r="0.409"/>
						<circle fill="#030403" cx="13.514" cy="45.939" r="0.409"/>
						<g>
							<polygon fill="#030403" points="13.077,45.621 13.077,45.059 13.834,45.398 16.681,48.05 20.808,46.036 21.409,45.821 
								21.409,46.383 17.921,48.766 22.513,49.848 22.513,50.409 22.127,50.847 17.125,49.668 15.836,52.697 14.997,52.621 
								14.997,52.059 15.393,49.51 10.004,49.738 9.872,49.254 9.872,48.691 15.119,48.51 							"/>
							<polygon fill="#878787" points="13.077,45.059 13.834,44.836 16.681,47.487 20.808,45.475 21.409,45.821 17.921,48.203 
								22.513,49.848 22.127,50.284 17.125,49.105 15.836,52.135 14.997,52.059 15.393,48.947 10.004,49.176 9.872,48.691 
								15.119,47.947 							"/>
						</g>
						<path fill="#030403" d="M15.897,48.008c-0.308,0.178-0.308,0.466,0,0.644s0.808,0.178,1.116,0s0.308-0.466,0-0.644
							C16.705,47.829,16.206,47.829,15.897,48.008z"/>
						<rect x="15.666" y="43.249" fill="#030403" width="1.579" height="5.08"/>
					</g>
					<g>
						<path fill="#4A4A49" d="M16.514,38.474l6.241,3.604c0.288,0.166,0.521,0.031,0.521-0.302c0-0.787-0.539-1.721-1.203-2.104
							l-5.559-3.21c-0.288-0.166-0.521-0.031-0.521,0.301v0.809C15.993,37.904,16.227,38.308,16.514,38.474z"/>
						<path fill="#4A4A49" d="M14.335,25.15l0.319,2.124l1.272,8.445c0.013,0.084,0.041,0.17,0.079,0.251
							c0.079,0.166,0.205,0.315,0.344,0.396l0.863,0.499c0.113,0.065,0.214,0.074,0.29,0.038c0.111-0.064,0.161-0.199,0.133-0.385
							l-0.146-0.947l-1.402-9.096l-0.108-0.707c-0.044-0.287-0.259-0.586-0.487-0.677l-0.801-0.32
							c-0.1-0.039-0.186-0.034-0.249,0.011C14.353,24.84,14.309,24.972,14.335,25.15z"/>
					</g>
					<polygon fill="#4A4A49" points="17.452,45.391 23.172,42.077 16.167,36.416 10.425,39.736 					"/>
					<polygon fill="#4A4A49" points="8.806,28.044 14.442,24.781 17.519,36.895 11.854,40.167 					"/>
					<path fill="#1D1D1B" d="M10.823,41.764l6.241,3.604c0.288,0.166,0.521,0.031,0.521-0.302c0-0.787-0.539-1.721-1.203-2.105
						l-5.559-3.209c-0.288-0.166-0.521-0.032-0.521,0.301v0.808C10.302,41.194,10.535,41.598,10.823,41.764z"/>
					<path fill="#1D1D1B" d="M11.944,39.808l-1.657-10.75c-0.044-0.287-0.259-0.585-0.487-0.677L9,28.062
						c-0.24-0.096-0.402,0.075-0.356,0.377l1.592,10.57c0.039,0.257,0.216,0.528,0.422,0.647l0.865,0.499
						C11.792,40.312,11.996,40.144,11.944,39.808z"/>
				</g>
			</g>
			<path fill="#FFFFFF" d="M24.016,32.832l-1.17-4.182c-0.286-1.389-0.703-1.983-1.979-1.793l-0.858,0.652l0.49,0.907l0.86,2.982
				l0.689,2.392c0.104,0.161,0.225,0.322,0.359,0.484l2.063-1.023C24.319,33.103,24.168,32.96,24.016,32.832z"/>
			<path d="M18.761,51.597v0.663c0.145,0.299,0.498,0.675,0.794,0.806c0.543,1.053,1.296,1.596,2.232,1.688
				c0.831,0.074,1.348-0.211,1.408-0.724c-0.08-1.137-1.589-1.509-1.77-2.434H18.761z"/>
			<path d="M22.904,49.454v0.573c0.354,0.332,0.704,0.642,0.985,0.624c0.489,1.081,1.174,1.659,2.021,1.82
				c0.914,0.027,1.277-0.342,1.277-0.875c-0.07-0.825-1.308-1.438-1.519-2.333L22.904,49.454z"/>
			<path fill="#4A4A49" d="M24.092,50.25c-0.28-0.062-0.523-0.146-0.728-0.263c-0.484-0.265-0.768-0.684-0.863-1.267
				c-0.327-2.857-0.378-4.056,0.031-5.682c-1.931-1.786-5.337-1.713-5.98-4.25c-0.013-0.066-0.023-0.129-0.031-0.188
				c-0.043-0.333-0.008-0.564,0.076-0.875c0.061-0.231,0.149-0.509,0.252-0.906l2.586-0.092l0.656-0.022
				c1.252,0.509,1.939,0.956,4.758,3.775c0.144,0.142,0.292,0.291,0.446,0.447c0.43,0.542,0.312,0.979,0.296,1.345
				c0,0-0.079,2.631-0.001,4.091c0.078,1.461,0.196,2.84,0.196,2.84C25.894,50.089,25.033,50.264,24.092,50.25z"/>
			<path opacity="0.3" fill="#3F668A" d="M23.364,49.987c-0.484-0.265-0.768-0.684-0.863-1.267
				c-0.327-2.857-0.378-4.056,0.031-5.682c-1.931-1.786-5.337-1.713-5.98-4.25c-0.013-0.066-0.023-0.129-0.031-0.188
				c-0.043-0.333-0.008-0.564,0.076-0.875c0.225,0.35,0.808,0.892,1.576,1.478c0.17,0.129,1.147,0.023,1.572-0.706
				c-0.061,0.817-0.084,1.389,0.232,1.591c1.366,0.869,2.568,1.774,3.764,1.992C22.644,44.013,22.75,47.036,23.364,49.987z"/>
			<path fill="#4A4A49" d="M20.24,52.662c-0.2-0.039-0.393-0.104-0.571-0.19c-0.094-0.043-0.184-0.092-0.269-0.146
				c-0.466-0.292-0.808-0.735-0.896-1.274c-0.326-2.858-0.484-5.062-0.076-6.688c-1.931-1.786-4.426-2.399-5.069-4.935
				c-0.105-0.545-0.018-1.235,0.145-1.986c0.053-0.243,0.113-0.489,0.177-0.737l0.592,0.023l3.267,0.122l0.071,0.005l0.503,0.422
				l-0.078,1.319l1.36,1.584l1.815,2.374c0.195,0.312,0.292,0.675,0.275,1.043c0,0-0.078,2.63,0,4.09
				c0.076,1.46,0.374,3.729,0.374,3.729C21.969,52.3,21.182,52.676,20.24,52.662z"/>
			<path opacity="0.3" fill="#3F668A" d="M19.51,52.325H19.4c-0.466-0.292-0.808-0.735-0.896-1.274
				c-0.326-2.858-0.484-5.062-0.076-6.688c-1.931-1.786-4.426-2.399-5.069-4.935c-0.105-0.545-0.018-1.235,0.145-1.986
				c0.053-0.243,0.113-0.489,0.177-0.737l0.592,0.023c-0.259,1.18-0.099,2.272,0.6,3.26c0.897,1.596,2.777,2.847,4.488,3.952
				C19.038,46.535,18.918,49.334,19.51,52.325z"/>
			<path fill="#FFFFFF" d="M22.009,29.179c-0.009,3.254-1.844,6.477-1.917,7.525c-1.715,1.33-4.373,2.634-5.812,1.727
				c-0.328-0.206-0.595-0.527-0.771-0.991c-0.018-2.726,0.51-5.496,0.977-6.499c0.381-0.824,0.727-1.241,0.998-1.824
				c1.123-0.795,2.468-1.241,3.648-1.673c1.527-0.325,1.15-0.434,2.025-0.325C21.708,27.617,22.013,28.322,22.009,29.179z"/>
			<g>
				<g>
					<g>
						<path fill="#3C3C3B" d="M20.496,60.203L12.8,55.76c-0.648-0.375-1.157-1.254-1.157-2.003l0-10.244
							c0-0.586,0.326-0.98,0.812-0.98c0.187,0,0.383,0.059,0.582,0.174l7.696,4.444c0.649,0.374,1.157,1.255,1.157,2.004v10.243
							c0,0.585-0.327,0.979-0.812,0.979C20.891,60.376,20.695,60.318,20.496,60.203z M12.12,43.513v10.244
							c0,0.574,0.42,1.304,0.918,1.591l7.696,4.442c0.125,0.072,0.244,0.11,0.344,0.11c0.304,0,0.336-0.352,0.336-0.503V49.154
							c0-0.575-0.42-1.305-0.918-1.592L12.8,43.119c-0.125-0.072-0.244-0.109-0.344-0.109C12.152,43.01,12.12,43.361,12.12,43.513z"
							/>
						<path fill="#3C3C3B" d="M38.128,49.999l-7.696-4.442c-0.648-0.375-1.157-1.255-1.157-2.004l0-10.245
							c0-0.586,0.326-0.979,0.812-0.979c0.187,0,0.383,0.058,0.583,0.173l7.696,4.443c0.649,0.375,1.157,1.255,1.157,2.004v10.245
							c0,0.585-0.327,0.979-0.812,0.979C38.523,50.173,38.328,50.114,38.128,49.999z M29.752,33.308l0,10.245
							c0,0.575,0.42,1.304,0.919,1.591l7.696,4.443c0.125,0.071,0.244,0.109,0.344,0.109c0.303,0,0.336-0.352,0.336-0.502l0-10.245
							c0-0.575-0.421-1.304-0.918-1.591l-7.696-4.443c-0.125-0.072-0.244-0.11-0.345-0.11
							C29.785,32.805,29.752,33.157,29.752,33.308z"/>
					</g>
					<g>
						<polygon fill="#575756" points="10.988,43.007 21.274,48.944 39.76,38.26 39.76,37.735 29.474,32.319 10.988,42.481 						"/>
						<polygon fill="#C6C6C6" points="10.988,42.481 21.274,48.419 39.76,37.735 29.474,31.793 						"/>
					</g>
				</g>
			</g>
			<path opacity="0.15" fill="#1D1D1B" d="M14.279,38.431c-0.328-0.206-0.595-0.527-0.771-0.991
				c-0.018-2.726,0.51-5.496,0.977-6.499h1.873c-0.347,0.424,0.546,0.412,0.888,0.946c0.513,0.804,1.496,4.244,2.847,4.818
				C19.405,37.938,15.199,39.423,14.279,38.431z"/>
			<path fill="#FFFFFF" d="M15.482,29.117c-0.861,0.715-1.093,1.432-0.935,2.951c0.362,3.478,1.785,5.714,1.785,5.714
				c1.49,0.816,3.229,1.572,5.462,1.899c-0.028-0.442,0.024-1.384,0.419-1.518c-2.003-0.959-3.225-2.133-4.26-2.324
				c-0.196-1.753-0.446-2.903-0.838-4.478C16.829,30.247,16.199,29.465,15.482,29.117z"/>
			<g>
				<path fill="#DADADA" d="M19.45,27.373c-0.485-0.024-0.819,0.171-1.342,0.422c-0.699,0.641-0.011,3.378,1.674,3.378l0.66-0.853
					L21,30.723C21.347,29.378,20.808,28.291,19.45,27.373z"/>
				<path fill="#FFBB7D" d="M19.57,27.232c-0.044,0-0.721,0.507-0.721,0.507c-0.991,0.562,0.143,3.258,1.594,2.581l1.352-0.939
					L19.57,27.232z"/>
				<path opacity="0.15" fill="#1D1D1B" d="M22.133,29.41c0,0.997,0.014,2.146-1.118,2.194c-1.397-0.387-1.521-2.757-1.372-3.528
					L22.133,29.41z"/>
				<path fill="#FFBB7D" d="M21.246,24.455c-1.213,0.012-1.906,0.584-1.953,1.851c0.035,1.331,0.102,2.134,0.744,3.043
					c0.4,0.503,0.944,0.865,1.564,0.833c0.738-0.037,1.829-1.807,1.934-3.088C23.714,25.8,22.611,24.808,21.246,24.455z"/>
				<path d="M23.383,28.028c-0.274,0.646-1.884,0.53-2.591-0.263l-0.079,0.475l-0.65-0.54l-0.566,0.735l-0.205-0.291
					c-0.515-1.034-0.489-2.734,0.979-3.589C22.233,23.767,24.666,26.05,23.383,28.028z"/>
				<path fill="#FFBB7D" d="M19.882,28.255c-0.078-0.131-0.145-0.272-0.161-0.423c-0.015-0.15,0.028-0.312,0.142-0.411
					c0.114-0.099,0.304-0.119,0.424-0.021c0.083,0.067,0.12,0.177,0.122,0.281c0.001,0.104-0.028,0.206-0.057,0.306
					c-0.026,0.091-0.053,0.182-0.08,0.271c-0.018,0.062-0.042,0.132-0.101,0.162c-0.054,0.027-0.124,0.012-0.174-0.024
					C19.947,28.361,19.913,28.308,19.882,28.255z"/>
			</g>
			<g>
				<g>
					<g>
						<polygon fill="#FFFFFF" points="21.994,39.984 25.936,37.708 31.552,40.951 27.611,43.227 						"/>
						<polygon fill="#1D1D1B" points="27.581,42.557 30.43,40.913 30.6,41.011 27.751,42.656 						"/>
						<polygon fill="#1D1D1B" points="27.115,42.289 29.963,40.643 30.068,40.704 27.22,42.348 						"/>
						<polygon fill="#1D1D1B" points="26.833,42.125 29.682,40.481 29.787,40.542 26.938,42.186 						"/>
						<polygon fill="#1D1D1B" points="26.551,41.962 29.4,40.318 29.505,40.378 26.656,42.023 						"/>
						<polygon fill="#1D1D1B" points="25.988,41.637 28.837,39.993 28.942,40.053 26.093,41.698 						"/>
						<polygon fill="#1D1D1B" points="25.707,41.475 28.555,39.831 28.66,39.891 25.812,41.536 						"/>
						<polygon fill="#1D1D1B" points="27.183,40.297 28.273,39.667 28.378,39.728 27.288,40.358 						"/>
						<polygon fill="#1D1D1B" points="25.144,41.15 27.992,39.505 28.097,39.566 25.248,41.21 						"/>
						<polygon fill="#1D1D1B" points="24.862,40.987 27.71,39.342 27.815,39.403 24.966,41.047 						"/>
						<polygon fill="#1D1D1B" points="25.247,40.439 27.429,39.18 27.533,39.24 25.352,40.5 						"/>
						<polygon fill="#1D1D1B" points="25.313,39.425 26.583,38.692 26.688,38.752 25.418,39.486 						"/>
						<polygon fill="#1D1D1B" points="25.032,39.263 26.302,38.529 26.407,38.589 25.137,39.324 						"/>
					</g>
					<g>
						<path fill="#1D71B8" d="M25.311,39.789c-0.005,0.019-0.007,0.038-0.007,0.058c0.001,0.052,0.022,0.103,0.047,0.151
							c0.02,0.039,0.039,0.103,0.112,0.119c0.025-0.029,0.016-0.054,0.003-0.079c-0.02-0.04-0.039-0.079-0.059-0.119
							c-0.022-0.045-0.048-0.089-0.079-0.132c0.019-0.07,0.08-0.138,0.187-0.177c0.01-0.004,0.001-0.014-0.009-0.01
							c-0.105,0.038-0.166,0.102-0.19,0.169c-0.015-0.02-0.032-0.04-0.05-0.061c-0.123-0.137-0.289-0.264-0.335-0.42
							c-0.021-0.068-0.011-0.141,0.036-0.205c0.043-0.06,0.143-0.127,0.267-0.111c0.144,0.018,0.15,0.136,0.127,0.2
							c-0.024,0.067-0.086,0.128-0.151,0.185c-0.007,0.006,0.01,0.011,0.017,0.005c0.114-0.099,0.243-0.245,0.11-0.359
							c-0.054-0.047-0.15-0.053-0.232-0.029c-0.091,0.026-0.145,0.083-0.175,0.137c-0.079,0.138,0.015,0.283,0.126,0.405
							c0.067,0.073,0.144,0.144,0.209,0.217C25.283,39.75,25.297,39.769,25.311,39.789z M25.419,39.981
							c0.019,0.037,0.055,0.083,0.041,0.122c-0.04-0.012-0.051-0.042-0.065-0.064c-0.012-0.021-0.023-0.041-0.033-0.061
							c-0.021-0.043-0.035-0.087-0.038-0.132c-0.001-0.013,0-0.024,0.001-0.037C25.362,39.865,25.391,39.922,25.419,39.981z"/>
						<path fill="#1D71B8" d="M24.215,40.308c0.199-0.045,0.306-0.166,0.248-0.285c-0.002-0.004-0.008-0.004-0.014-0.003
							c-0.018,0.004-0.036,0.006-0.054,0.006c0.021-0.018,0.017-0.034,0.015-0.052c-0.002-0.024-0.005-0.048-0.008-0.071
							c0.038,0.02,0.076,0.041,0.12,0.055c0.03,0.009,0.055,0,0.066-0.016c0.013-0.021-0.002-0.054-0.016-0.078
							c0.038,0.019,0.093,0.043,0.133,0.016c0.039-0.025,0.021-0.074,0.009-0.104c0.097,0.094,0.223,0.192,0.37,0.279
							c0.005,0.003,0.017,0.001,0.016-0.004c-0.011-0.052-0.053-0.096-0.095-0.141c-0.054-0.057-0.101-0.116-0.14-0.178
							c-0.018-0.028-0.033-0.057-0.048-0.085c-0.016-0.031-0.036-0.066-0.013-0.097c0.004,0.038,0.031,0.08,0.049,0.106
							c0.024,0.033,0.054,0.064,0.091,0.094c0.027,0.021,0.057,0.046,0.101,0.055c0.09,0.019,0.058-0.094,0.049-0.114
							c-0.025-0.061-0.091-0.119-0.165-0.164c-0.034-0.021-0.072-0.02-0.102-0.008c0.006-0.016,0.02-0.029,0.043-0.038
							c0.038-0.015,0.076,0.002,0.099,0.019c0.039,0.024,0.065,0.059,0.092,0.089c0.024,0.027,0.088,0.083,0.045,0.112
							c-0.008,0.005,0.005,0.013,0.013,0.008c0.027-0.019,0.021-0.039,0.009-0.061c-0.022-0.038-0.059-0.076-0.094-0.111
							c-0.041-0.04-0.11-0.102-0.196-0.055c-0.024,0.013-0.034,0.03-0.036,0.051c-0.015,0.01-0.025,0.023-0.028,0.036
							c-0.007,0.03,0.014,0.062,0.028,0.09c0.021,0.042,0.046,0.082,0.074,0.122c0.03,0.044,0.065,0.086,0.104,0.127
							c0.037,0.041,0.078,0.081,0.094,0.126c-0.162-0.099-0.297-0.21-0.402-0.331c-0.015-0.021-0.032-0.042-0.051-0.062
							c-0.006-0.006-0.021,0-0.016,0.006c0.017,0.021,0.034,0.043,0.052,0.063c0.025,0.036,0.042,0.073,0.047,0.11
							c0.002,0.014,0,0.027-0.006,0.041c-0.02,0.046-0.107-0.001-0.127-0.01c-0.005-0.003-0.01-0.006-0.016-0.01
							c-0.019-0.029-0.048-0.057-0.083-0.081c-0.006-0.004-0.019,0-0.016,0.006c0.018,0.03,0.045,0.056,0.081,0.079
							c0.01,0.015,0.018,0.03,0.023,0.046c0.004,0.012,0.005,0.022,0.007,0.034c0.003,0.029-0.04,0.024-0.066,0.013
							c-0.037-0.017-0.071-0.035-0.107-0.052c-0.006-0.003-0.017-0.002-0.017,0.004c0.004,0.037,0.019,0.079,0.01,0.116
							c-0.009,0.038-0.066,0.001-0.081-0.003c-0.008-0.003-0.016-0.001-0.024,0.001c0.044,0.032,0.103,0.038,0.16,0.027
							c0.049,0.11-0.05,0.224-0.236,0.266C24.2,40.299,24.204,40.31,24.215,40.308z M24.829,39.541
							c0.072-0.052,0.184,0.062,0.211,0.094c0.021,0.023,0.036,0.049,0.045,0.075c0.006,0.016,0.007,0.03,0.006,0.046
							c0,0.008-0.001,0.016-0.004,0.022c-0.009,0.031-0.051,0.014-0.068,0.005c-0.078-0.038-0.131-0.102-0.162-0.156
							C24.842,39.599,24.831,39.569,24.829,39.541z"/>
					</g>
				</g>
				<g>
					<path fill="#FCAF75" d="M23.633,38.351c-0.077,0.188-0.096,0.393-0.033,0.62l-0.069,0.177l-0.062,0.16l-0.067,0.283
						c-0.065,0.066-0.145,0.09-0.229,0.099l-0.126,0.197c-0.029,0.05-0.096,0.062-0.194,0.043l-0.155,0.159
						c-0.099,0.081-0.354,0.03-0.653,0.014c-0.007-0.001-0.014-0.001-0.021-0.002l-0.507-0.245c0,0-0.158-0.069-0.19-0.183
						c-0.045-0.16,0.014-0.191-0.012-0.266c-0.027-0.076-0.142-0.131-0.142-0.311c0-0.216,0.142-0.218,0.154-0.311
						c0.011-0.082-0.072-0.102-0.006-0.323c0.05-0.171,0.245-0.173,0.297-0.265c0.045-0.079,0.053-0.282,0.197-0.43
						c0.135-0.138,0.456,0,0.456,0l0.354,0.199l0.762-0.088l0.08,0.037C23.629,37.992,23.702,38.184,23.633,38.351z"/>
					<path opacity="0.5" fill="#FCAF75" d="M22.712,38.026l0.57,0.068c0,0,0.003,0.606,0,0.558c-0.002-0.03-0.212-0.255-0.376-0.426
						C22.799,38.115,22.712,38.026,22.712,38.026z"/>
					<path fill="#1D1D1B" d="M23.967,39.95l-2.213-2.841c-0.054-0.068-0.041-0.167,0.027-0.221c0.069-0.054,0.167-0.041,0.221,0.027
						l2.213,2.841c0.053,0.068,0.189,0.361,0.121,0.415C24.268,40.224,24.021,40.019,23.967,39.95z"/>
					<path opacity="0.5" fill="#FCAF75" d="M23.531,39.148l-0.062,0.16l-0.067,0.283c-0.065,0.066-0.145,0.09-0.229,0.099
						l-0.126,0.197c-0.029,0.05-0.096,0.062-0.194,0.043l-0.155,0.159c-0.099,0.081-0.354,0.03-0.653,0.014
						c0.222-0.342,0.347-0.718,0.372-1.132l-0.314-0.48l1.264,0.43L23.531,39.148z"/>
					<path fill="#FCAF75" d="M21.922,38.341l0.562,0.471l0.756,0.235c0.292,0.095,0.413-0.261,0.129-0.405
						c-0.034-0.018-0.603-0.253-0.603-0.253l-0.464-0.576C21.976,37.75,21.826,38.092,21.922,38.341z"/>
					<polygon opacity="0.5" fill="#FCAF75" points="22.497,37.976 22.167,37.938 22.767,38.389 22.603,37.976 					"/>
					<path fill="#B2B2B2" d="M24.366,40.232c-0.007,0-0.013-0.003-0.017-0.008l-0.042-0.055c-0.012-0.013,0.023-0.046,0.036-0.027
						l0.042,0.054c0.008,0.01,0.006,0.024-0.004,0.032C24.376,40.231,24.371,40.233,24.366,40.232z"/>
				</g>
			</g>
			<path fill="#FCAF75" d="M28.119,37.792c0.115,0.19-0.092,0.407-0.246,0.266l-0.069-0.036c0.069,0.135-0.131,0.371-0.289,0.224
				l-0.187-0.174c-0.017,0.19-0.082,0.285-0.269,0.161l-0.545-0.667l-0.646-0.482v0.371l0.204,0.361
				c0.115,0.235-0.092,0.43-0.247,0.22l-0.18-0.253l-0.105-0.145l-0.138-0.42c0.017-0.243,0.04-0.611,0.158-0.942l-0.22-0.181
				l0.65-0.456l0.332,0.189c0.354,0.033,1.103,0.552,1.208,0.729l0.516,0.765c0.164,0.21,0.174,0.414-0.013,0.345L28.119,37.792z"/>
			<path fill="#FFFFFF" d="M24.47,33.251c-0.852-0.045-1.53,0.32-2.063,1.023c1.23,1.477,3.037,2.485,3.037,2.485
				c-0.047-0.392,0.586-1.085,0.946-0.914C25.61,34.529,25.289,34.061,24.47,33.251z"/>
			<g>
				<g>
					
						<rect x="33.349" y="39.704" transform="matrix(-0.5007 -0.8656 0.8656 -0.5007 15.4142 89.6914)" fill="#333332" width="0.454" height="1.391"/>
					<path fill="#333332" d="M28.524,38.054l4.659,2.677c0,0.21-0.145,0.293-0.324,0.19l-4.011-2.303
						c-0.179-0.104-0.324-0.354-0.324-0.561V38.054z"/>
					<polygon fill="#575756" points="39.132,37.267 34.486,34.612 28.524,38.054 33.183,40.731 					"/>
					<g>
						<polygon fill="#DADADA" points="32.595,39.64 32.86,39.793 32.532,39.983 32.268,39.83 						"/>
						<polygon fill="#DADADA" points="33.645,39.34 33.317,39.53 33.052,39.376 33.379,39.188 						"/>
						<polygon fill="#DADADA" points="33.772,38.96 34.037,39.114 33.709,39.303 33.444,39.151 						"/>
						<polygon fill="#DADADA" points="34.164,38.735 34.429,38.887 34.101,39.077 33.836,38.923 						"/>
						<polygon fill="#DADADA" points="34.556,38.508 34.821,38.661 34.494,38.85 34.229,38.697 						"/>
						<polygon fill="#DADADA" points="35.606,38.208 35.278,38.397 35.013,38.245 35.341,38.055 						"/>
						<polygon fill="#DADADA" points="35.733,37.829 35.998,37.982 35.67,38.171 35.405,38.018 						"/>
						<polygon fill="#DADADA" points="36.125,37.602 36.39,37.755 36.062,37.945 35.798,37.792 						"/>
						<polygon fill="#DADADA" points="35.049,36.454 34.784,36.3 35.111,36.111 35.376,36.264 						"/>
						<polygon fill="#DADADA" points="35.441,36.227 35.176,36.074 35.504,35.885 35.769,36.038 						"/>
						<polygon fill="#DADADA" points="35.568,35.847 35.896,35.659 36.161,35.811 35.833,36 						"/>
						<polygon fill="#DADADA" points="30.874,38.962 30.609,38.809 30.937,38.621 31.201,38.773 						"/>
						<polygon fill="#DADADA" points="31.266,38.736 31.001,38.583 31.329,38.394 31.594,38.547 						"/>
						<polygon fill="#DADADA" points="33.555,37.415 32.96,37.757 32.835,37.83 32.77,37.868 32.606,37.962 32.378,38.094 
							32.05,38.284 31.658,38.509 31.393,38.357 32.467,37.736 32.505,37.714 33.29,37.261 						"/>
						<polygon fill="#DADADA" points="33.619,37.377 33.354,37.224 33.682,37.036 33.947,37.188 						"/>
						<polygon fill="#DADADA" points="34.011,37.151 33.747,36.998 34.074,36.808 34.339,36.961 						"/>
						<polygon fill="#DADADA" points="34.139,36.772 34.466,36.583 34.731,36.735 34.404,36.924 						"/>
						<polygon fill="#DADADA" points="35.113,36.491 35.441,36.301 35.706,36.455 35.378,36.644 						"/>
						<polygon fill="#DADADA" points="35.505,36.264 35.833,36.075 36.098,36.228 35.771,36.417 						"/>
						<polygon fill="#DADADA" points="35.898,36.038 36.226,35.848 36.49,36.001 36.163,36.191 						"/>
						<polygon fill="#DADADA" points="30.938,39 31.266,38.811 31.531,38.963 31.203,39.153 						"/>
						<polygon fill="#DADADA" points="31.923,38.737 31.595,38.926 31.331,38.773 31.658,38.584 						"/>
						<polygon fill="#DADADA" points="32.315,38.511 31.987,38.7 31.723,38.547 32.05,38.358 						"/>
						<polygon fill="#DADADA" points="32.708,38.284 32.38,38.473 32.115,38.321 32.442,38.131 						"/>
						<polygon fill="#DADADA" points="33.1,38.057 32.772,38.247 32.507,38.094 32.835,37.905 						"/>
						<polygon fill="#DADADA" points="33.492,37.832 33.164,38.02 32.899,37.868 33.227,37.678 						"/>
						<polygon fill="#DADADA" points="33.884,37.605 33.557,37.793 33.292,37.641 33.619,37.452 						"/>
						<polygon fill="#DADADA" points="34.276,37.378 33.949,37.568 33.684,37.415 34.011,37.225 						"/>
						<polygon fill="#DADADA" points="34.668,37.152 34.341,37.341 34.076,37.188 34.404,37 						"/>
						<polygon fill="#DADADA" points="35.443,36.681 35.771,36.492 36.035,36.644 35.708,36.833 						"/>
						<polygon fill="#DADADA" points="36.428,36.418 36.1,36.607 35.835,36.455 36.163,36.265 						"/>
						<polygon fill="#DADADA" points="36.227,36.228 36.555,36.039 36.82,36.192 36.492,36.38 						"/>
						<polygon fill="#DADADA" points="31.268,39.19 31.595,39 31.86,39.154 31.533,39.343 						"/>
						<polygon fill="#DADADA" points="32.252,38.927 31.925,39.117 31.66,38.963 31.987,38.775 						"/>
						<polygon fill="#DADADA" points="32.052,38.737 32.38,38.548 32.645,38.701 32.317,38.89 						"/>
						<polygon fill="#DADADA" points="32.444,38.511 32.772,38.321 33.037,38.474 32.709,38.664 						"/>
						<polygon fill="#DADADA" points="32.836,38.284 33.164,38.095 33.429,38.248 33.102,38.437 						"/>
						<polygon fill="#DADADA" points="33.229,38.057 33.557,37.869 33.821,38.021 33.494,38.21 						"/>
						<polygon fill="#DADADA" points="34.214,37.795 33.886,37.984 33.621,37.832 33.949,37.642 						"/>
						<polygon fill="#DADADA" points="34.013,37.605 34.341,37.416 34.606,37.569 34.278,37.757 						"/>
						<polygon fill="#DADADA" points="35.063,37.305 34.67,37.532 34.406,37.378 34.798,37.152 34.468,36.961 34.796,36.772 
							35.125,36.962 35.233,37.025 35.39,37.116 35.171,37.242 						"/>
						<polygon fill="#DADADA" points="36.037,37.024 35.772,36.871 36.1,36.682 36.365,36.834 						"/>
						<polygon fill="#DADADA" points="36.492,36.456 36.757,36.608 36.43,36.797 36.165,36.644 						"/>
						<polygon fill="#DADADA" points="36.557,36.418 36.884,36.229 37.149,36.382 36.822,36.571 						"/>
						<polygon fill="#DADADA" points="31.597,39.38 31.925,39.191 32.19,39.344 31.862,39.534 						"/>
						<polygon fill="#DADADA" points="32.254,39.306 31.989,39.154 32.317,38.964 32.582,39.118 						"/>
						<polygon fill="#DADADA" points="32.382,38.927 32.709,38.738 32.974,38.891 32.646,39.081 						"/>
						<polygon fill="#DADADA" points="33.102,38.511 33.366,38.665 33.039,38.854 32.774,38.701 						"/>
						<polygon fill="#DADADA" points="33.166,38.474 33.494,38.285 33.759,38.438 33.431,38.627 						"/>
						<polygon fill="#DADADA" points="33.558,38.248 33.886,38.059 34.151,38.211 33.823,38.401 						"/>
						<polygon fill="#DADADA" points="34.215,38.174 33.951,38.021 34.278,37.833 34.543,37.985 						"/>
						<polygon fill="#DADADA" points="34.343,37.795 34.67,37.606 34.936,37.759 34.608,37.948 						"/>
						<polygon fill="#DADADA" points="35.127,37.342 35.247,37.273 35.455,37.153 35.72,37.306 35.512,37.426 35.392,37.495 
							35,37.721 34.735,37.569 						"/>
						<polygon fill="#DADADA" points="37.024,37.215 36.696,37.405 36.431,37.251 36.759,37.062 						"/>
						<polygon fill="#DADADA" points="37.151,36.835 37.416,36.989 37.088,37.178 36.823,37.025 						"/>
						<polygon fill="#DADADA" points="37.543,36.61 37.808,36.762 37.48,36.952 37.216,36.798 						"/>
					</g>
					<path fill="#878787" d="M31.361,36.822l0.786,0.454c0.036,0.021,0.094,0.021,0.129,0l1.186-0.685
						c0.036-0.021,0.036-0.055,0-0.075l-0.786-0.454c-0.036-0.021-0.094-0.021-0.129,0l-1.186,0.686
						C31.325,36.767,31.325,36.801,31.361,36.822z"/>
				</g>
				<g>
					<g>
						<path fill="#4A4A49" d="M39.149,37.345l1.283-4.688c0.176,0.157,0.277,0.421,0.229,0.593l-1.111,4.066
							c-0.047,0.172-0.226,0.186-0.398,0.032L39.149,37.345z"/>
						<polygon fill="#4A4A49" points="34.474,36.097 33.5,40.878 39.458,37.438 40.432,32.657 						"/>
						<path fill="#333332" d="M33.187,40.788l1.283-4.688c0.175,0.157,0.276,0.421,0.229,0.593l-1.111,4.066
							c-0.047,0.172-0.226,0.186-0.397,0.032L33.187,40.788z"/>
					</g>
					<path fill="#DADADA" d="M36.985,36.963c-0.034,0.202,0.092,0.285,0.281,0.184s0.368-0.348,0.401-0.55
						c0.034-0.202-0.092-0.285-0.28-0.184C37.198,36.515,37.018,36.761,36.985,36.963z"/>
				</g>
			</g>
			<g>
				<g>
					<polygon fill="#FFFFFF" points="24.284,43.585 20.915,46.085 15.429,43.708 18.798,41.208 					"/>
					<polygon fill="#1D1D1B" points="18.896,41.817 16.46,43.625 16.293,43.553 18.729,41.745 					"/>
					<polygon fill="#1D1D1B" points="19.351,42.014 16.916,43.822 16.813,43.778 19.249,41.97 					"/>
					<polygon fill="#1D1D1B" points="19.626,42.134 17.19,43.941 17.088,43.897 19.524,42.089 					"/>
					<polygon fill="#1D1D1B" points="19.901,42.252 17.466,44.061 17.363,44.016 19.799,42.208 					"/>
					<polygon fill="#1D1D1B" points="20.452,42.492 18.016,44.299 17.914,44.255 20.349,42.447 					"/>
					<polygon fill="#1D1D1B" points="20.727,42.611 18.291,44.418 18.189,44.374 20.624,42.566 					"/>
					<polygon fill="#1D1D1B" points="19.499,43.846 18.566,44.537 18.464,44.493 19.396,43.801 					"/>
					<polygon fill="#1D1D1B" points="21.277,42.849 18.841,44.656 18.739,44.612 21.174,42.804 					"/>
					<polygon fill="#1D1D1B" points="21.552,42.968 19.117,44.775 19.014,44.731 21.45,42.924 					"/>
					<polygon fill="#1D1D1B" points="21.257,43.511 19.392,44.896 19.289,44.851 21.154,43.467 					"/>
					<polygon fill="#1D1D1B" points="21.303,44.446 20.217,45.253 20.115,45.208 21.201,44.402 					"/>
					<polygon fill="#1D1D1B" points="21.578,44.566 20.492,45.372 20.39,45.327 21.476,44.521 					"/>
				</g>
				<g>
					<path fill="#1D71B8" d="M23.153,44.044c-0.291,0.216-0.796,0.273-1.128,0.13c-0.332-0.144-0.366-0.436-0.075-0.65
						c0.29-0.216,0.796-0.274,1.128-0.131C23.41,43.537,23.444,43.829,23.153,44.044z M21.991,43.54
						c-0.271,0.201-0.24,0.474,0.07,0.607c0.31,0.135,0.781,0.08,1.052-0.121s0.239-0.473-0.07-0.607
						C22.733,43.285,22.261,43.34,21.991,43.54z"/>
					<path fill="#1D71B8" d="M23.065,44.006c-0.248,0.185-0.68,0.234-0.963,0.111c-0.283-0.122-0.312-0.373-0.064-0.556
						c0.248-0.185,0.68-0.234,0.963-0.111C23.285,43.572,23.313,43.822,23.065,44.006z M22.065,43.572
						c-0.235,0.175-0.208,0.411,0.061,0.527c0.269,0.116,0.678,0.069,0.913-0.105c0.235-0.174,0.208-0.41-0.061-0.527
						C22.709,43.351,22.3,43.398,22.065,43.572z"/>
					<path fill="#1D71B8" d="M22.857,43.916c-0.147,0.109-0.405,0.14-0.574,0.066c-0.168-0.073-0.186-0.222-0.038-0.332
						c0.147-0.109,0.405-0.139,0.574-0.065C22.988,43.658,23.005,43.807,22.857,43.916z M22.273,43.663
						c-0.135,0.1-0.119,0.234,0.035,0.302c0.154,0.066,0.389,0.039,0.523-0.061c0.135-0.1,0.119-0.235-0.035-0.303
						C22.642,43.535,22.407,43.562,22.273,43.663z"/>
					<g>
						<path fill="#1D71B8" d="M22.311,43.574c-0.011,0-0.112-0.022-0.112-0.022l0.06,0.044c-0.01,0.006-0.084-0.05-0.084-0.05
							c0.016-0.005,0.115,0.019,0.115,0.019l-0.06-0.045c0.01-0.005,0.084,0.05,0.084,0.05
							C22.313,43.573,22.312,43.573,22.311,43.574z"/>
						<path fill="#1D71B8" d="M22.37,43.553c-0.005,0.002-0.01,0.003-0.015,0.004c-0.037-0.012-0.06-0.041-0.06-0.041
							c0.025-0.034,0.03-0.035,0.035-0.036c0.037,0.012,0.06,0.041,0.06,0.041C22.379,43.549,22.375,43.551,22.37,43.553z
							 M22.355,43.495c-0.004-0.005-0.009-0.008-0.015-0.009c-0.006-0.001-0.013,0-0.021,0.003
							c-0.008,0.002-0.013,0.005-0.016,0.009c0.002,0.013,0.025,0.043,0.025,0.043c0.004,0.005,0.009,0.008,0.015,0.009
							c0.006,0.001,0.013,0,0.021-0.002c0.008-0.003,0.013-0.007,0.015-0.01C22.378,43.524,22.355,43.495,22.355,43.495z"/>
						<path fill="#1D71B8" d="M22.456,43.447c0.003,0.007-0.028,0.014-0.028,0.014l0.027,0.066
							c-0.012,0.002-0.039-0.064-0.039-0.064l-0.031,0.007C22.383,43.463,22.456,43.447,22.456,43.447z"/>
						<path fill="#1D71B8" d="M22.487,43.523c-0.007-0.003,0.025-0.081,0.025-0.081c0.015-0.002,0.061,0.067,0.061,0.067
							c-0.012,0.004-0.022-0.013-0.022-0.013l-0.052,0.006l-0.007,0.018C22.489,43.523,22.488,43.523,22.487,43.523z M22.547,43.491
							l-0.027-0.041l-0.019,0.046L22.547,43.491z"/>
						<path fill="#1D71B8" d="M22.603,43.436c0.005-0.002,0.039-0.002,0.039-0.002c0,0.043,0.021,0.076,0.021,0.076
							c-0.013,0.001-0.034-0.032-0.034-0.032h-0.023l-0.009,0.033C22.584,43.511,22.603,43.436,22.603,43.436z M22.614,43.44
							l-0.007,0.03l0.025,0.001c0.009,0,0.016-0.002,0.021-0.004s0.009-0.007,0.011-0.012c-0.01-0.015-0.016-0.016-0.024-0.016
							H22.614z"/>
						<path fill="#1D71B8" d="M22.718,43.489c0-0.001-0.011-0.049-0.011-0.049c0.012-0.001,0.021,0.042,0.021,0.042l0.056-0.035
							c0.008,0.005-0.053,0.043-0.053,0.043c-0.001,0.001-0.017,0.028-0.017,0.028C22.702,43.517,22.718,43.489,22.718,43.489z"/>
						<path fill="#1D71B8" d="M22.864,43.467c0.007-0.001,0.035,0.009,0.035,0.009c0.004,0.035,0,0.038-0.005,0.041
							c-0.042,0.001-0.064-0.006-0.064-0.006l-0.029,0.026C22.791,43.534,22.864,43.467,22.864,43.467z M22.87,43.474l-0.034,0.031
							l0.022,0.008c0.007,0.002,0.014,0.003,0.02,0.001c0.007-0.001,0.013-0.004,0.019-0.009c0.007-0.007,0.009-0.011,0.008-0.015
							c-0.001-0.004-0.005-0.007-0.012-0.01L22.87,43.474z"/>
						<path fill="#1D71B8" d="M23.002,43.526c0.009,0.005-0.061,0.047-0.061,0.047c-0.005,0.003-0.01,0.006-0.016,0.007
							c-0.038-0.037,0.031-0.079,0.031-0.079c0.008,0.005-0.061,0.047-0.061,0.047c-0.007,0.005-0.011,0.009-0.011,0.013
							c0.014,0.014,0.021,0.016,0.027,0.015c0.006,0,0.014-0.002,0.021-0.007L23.002,43.526z"/>
						<path fill="#1D71B8" d="M23.039,43.55c0.007,0.001,0.023,0.016,0.023,0.016c-0.015,0.032-0.021,0.033-0.027,0.034
							c-0.006,0.001-0.011,0-0.016-0.001c-0.027,0.024-0.032,0.026-0.038,0.027c-0.035-0.009-0.054-0.025-0.054-0.025
							C22.929,43.597,23.039,43.55,23.039,43.55z M22.955,43.612c0.004,0.004,0.009,0.007,0.016,0.007s0.014-0.001,0.022-0.005
							c0.011-0.005,0.016-0.008,0.017-0.012c-0.005-0.011-0.019-0.023-0.019-0.023l-0.05,0.021L22.955,43.612z M23,43.575
							l0.013,0.011c0.004,0.004,0.009,0.007,0.015,0.007c0.005,0.001,0.012,0,0.02-0.004c0.005-0.021-0.007-0.03-0.007-0.03
							L23,43.575z"/>
						<path fill="#1D71B8" d="M22.973,43.646c0.002-0.005,0.123-0.04,0.123-0.04c0.004,0.007-0.109,0.04-0.109,0.04l0.019,0.027
							C22.994,43.678,22.973,43.646,22.973,43.646z"/>
						<path fill="#1D71B8" d="M23.126,43.658c0.002,0.006-0.122,0.033-0.122,0.033C23.001,43.684,23.126,43.658,23.126,43.658z"/>
						<path fill="#1D71B8" d="M23.113,43.728c0.006-0.03-0.001-0.031-0.011-0.029l-0.058,0.007c-0.01,0.002-0.017,0.004-0.021,0.008
							c0.006-0.013,0.013-0.014,0.02-0.015l0.058-0.007c0.007-0.002,0.013-0.002,0.019-0.001
							C23.111,43.729,23.112,43.728,23.113,43.728z"/>
					</g>
					<g>
						<path fill="#1D71B8" d="M22.814,43.982c0.011-0.001,0.113,0.02,0.113,0.02l-0.063-0.043c0.01-0.005,0.087,0.048,0.087,0.048
							c-0.015,0.005-0.115-0.015-0.115-0.015l0.063,0.043c-0.01,0.005-0.088-0.048-0.088-0.048
							C22.812,43.984,22.813,43.982,22.814,43.982z"/>
						<path fill="#1D71B8" d="M22.761,44.004c0.051,0.008,0.076,0.036,0.076,0.036c-0.069,0.026-0.093-0.003-0.093-0.003
							C22.752,44.008,22.756,44.006,22.761,44.004z M22.779,44.062c0.004,0.005,0.009,0.008,0.015,0.008
							c0.006,0.002,0.013,0,0.02-0.003c0.007-0.002,0.012-0.006,0.015-0.01c-0.003-0.013-0.028-0.042-0.028-0.042
							c-0.004-0.006-0.009-0.009-0.015-0.009c-0.006-0.001-0.013,0-0.02,0.003s-0.012,0.006-0.014,0.01
							C22.755,44.032,22.779,44.062,22.779,44.062z"/>
						<path fill="#1D71B8" d="M22.683,44.114c-0.003-0.006,0.026-0.014,0.026-0.014l-0.028-0.068c0.011-0.003,0.04,0.065,0.04,0.065
							l0.03-0.008C22.753,44.097,22.683,44.114,22.683,44.114z"/>
						<path fill="#1D71B8" d="M22.647,44.038c0.007,0.003-0.021,0.084-0.021,0.084c-0.014,0.003-0.061-0.067-0.061-0.067
							c0.012-0.004,0.022,0.012,0.022,0.012l0.05-0.007l0.006-0.02C22.645,44.039,22.646,44.038,22.647,44.038z M22.59,44.072
							l0.027,0.042l0.017-0.048L22.59,44.072z"/>
						<path fill="#1D71B8" d="M22.54,44.133c-0.005,0.003-0.037,0.004-0.037,0.004c-0.001-0.045-0.022-0.078-0.022-0.078
							c0.013-0.002,0.033,0.031,0.033,0.031h0.023l0.007-0.036C22.555,44.054,22.54,44.133,22.54,44.133z M22.528,44.128
							l0.007-0.031H22.51c-0.008,0.001-0.015,0.002-0.02,0.005s-0.009,0.007-0.01,0.013c0.01,0.015,0.016,0.016,0.024,0.016
							L22.528,44.128z"/>
						<path fill="#1D71B8" d="M22.424,44.083c0,0.001,0.012,0.05,0.012,0.05c-0.011,0.002-0.022-0.043-0.022-0.043l-0.053,0.04
							c-0.009-0.004,0.05-0.047,0.05-0.047c0.001,0,0.016-0.029,0.016-0.029C22.438,44.054,22.424,44.083,22.424,44.083z"/>
						<path fill="#1D71B8" d="M22.281,44.116c-0.006,0.002-0.035-0.006-0.035-0.006c-0.005-0.036-0.001-0.039,0.003-0.041
							c0.041-0.005,0.063,0,0.063,0l0.028-0.029C22.351,44.043,22.281,44.116,22.281,44.116z M22.275,44.11l0.032-0.034
							l-0.022-0.006c-0.007-0.002-0.014-0.002-0.02,0s-0.012,0.005-0.018,0.011c-0.006,0.007-0.008,0.012-0.007,0.016
							c0.001,0.003,0.005,0.006,0.012,0.007L22.275,44.11z"/>
						<path fill="#1D71B8" d="M22.142,44.07c-0.009-0.004,0.056-0.053,0.056-0.053c0.005-0.004,0.01-0.007,0.015-0.01
							c0.05,0.026,0.046,0.029,0.042,0.034l-0.065,0.048c-0.009-0.003,0.056-0.053,0.056-0.053c0.007-0.005,0.01-0.009,0.01-0.013
							c-0.016-0.013-0.022-0.014-0.028-0.013c-0.007,0.001-0.014,0.004-0.02,0.01L22.142,44.07z"/>
						<path fill="#1D71B8" d="M22.104,44.051c-0.007,0-0.025-0.012-0.025-0.012c0.01-0.034,0.017-0.036,0.022-0.037
							s0.011-0.002,0.016-0.001c0.023-0.027,0.029-0.029,0.034-0.03c0.037,0.003,0.057,0.018,0.057,0.018
							C22.208,43.992,22.104,44.051,22.104,44.051z M22.14,44.021l-0.014-0.01c-0.005-0.003-0.01-0.005-0.016-0.005
							s-0.012,0.002-0.02,0.006c-0.002,0.021,0.012,0.03,0.012,0.03L22.14,44.021z M22.18,43.979
							c-0.005-0.003-0.011-0.005-0.017-0.004c-0.006,0-0.014,0.003-0.021,0.007c-0.011,0.006-0.015,0.01-0.016,0.014
							c0.006,0.01,0.022,0.021,0.022,0.021l0.047-0.026L22.18,43.979z"/>
						<path fill="#1D71B8" d="M22.157,43.951c-0.002,0.004-0.118,0.053-0.118,0.053c-0.005-0.006,0.104-0.052,0.104-0.052
							l-0.023-0.024C22.13,43.923,22.157,43.951,22.157,43.951z"/>
						<path fill="#1D71B8" d="M21.999,43.957c-0.004-0.006,0.118-0.047,0.118-0.047C22.121,43.916,21.999,43.957,21.999,43.957z"/>
						<path fill="#1D71B8" d="M22.006,43.889c0,0.029,0.008,0.028,0.017,0.026l0.059-0.015c0.01-0.003,0.016-0.006,0.02-0.009
							c-0.004,0.012-0.01,0.014-0.018,0.016l-0.058,0.015c-0.007,0.002-0.014,0.002-0.019,0.003
							C22.008,43.887,22.007,43.888,22.006,43.889z"/>
					</g>
					<path fill="#1D71B8" d="M22.804,43.893c-0.122,0.09-0.333,0.114-0.473,0.055c-0.139-0.061-0.153-0.183-0.031-0.272
						c0.122-0.091,0.333-0.115,0.472-0.055C22.911,43.68,22.925,43.802,22.804,43.893z M22.327,43.686
						c-0.108,0.081-0.096,0.19,0.028,0.244s0.313,0.031,0.421-0.049c0.109-0.08,0.096-0.189-0.028-0.243
						S22.436,43.605,22.327,43.686z"/>
					<g>
						<path fill="#1D71B8" d="M22.146,43.688c-0.002,0.014-0.059,0.014-0.059,0.014l0.015,0.031
							c-0.022,0.004-0.034-0.026-0.034-0.026l-0.047,0.021c-0.012-0.012,0.037-0.031,0.037-0.031l-0.042-0.017
							c0.015-0.011,0.055,0.008,0.055,0.008l0.021-0.032c0.021,0.004-0.002,0.034-0.002,0.034L22.146,43.688z"/>
					</g>
					<g>
						<path fill="#1D71B8" d="M23.1,43.861c-0.002,0.014-0.059,0.015-0.059,0.015l0.015,0.03c-0.023,0.005-0.034-0.026-0.034-0.026
							L22.975,43.9c-0.012-0.01,0.037-0.03,0.037-0.03l-0.042-0.017c0.015-0.011,0.055,0.008,0.055,0.008l0.02-0.032
							c0.021,0.004-0.001,0.034-0.001,0.034L23.1,43.861z"/>
					</g>
				</g>
			</g>
			<g>
				<g>
					<polygon fill="#FFFFFF" points="25.831,44.408 22.197,46.506 17.019,43.517 20.652,41.417 					"/>
					<polygon fill="#1D1D1B" points="20.68,42.035 18.053,43.552 17.896,43.461 20.522,41.944 					"/>
					<polygon fill="#1D1D1B" points="21.109,42.283 18.483,43.8 18.387,43.744 21.013,42.227 					"/>
					<polygon fill="#1D1D1B" points="21.369,42.433 18.743,43.949 18.646,43.894 21.272,42.376 					"/>
					<polygon fill="#1D1D1B" points="21.629,42.583 19.002,44.1 18.906,44.044 21.532,42.527 					"/>
					<polygon fill="#1D1D1B" points="22.148,42.882 19.522,44.399 19.425,44.344 22.052,42.827 					"/>
					<polygon fill="#1D1D1B" points="22.408,43.033 19.782,44.55 19.685,44.493 22.312,42.977 					"/>
					<polygon fill="#1D1D1B" points="21.047,44.119 20.041,44.699 19.944,44.644 20.95,44.062 					"/>
					<polygon fill="#1D1D1B" points="22.927,43.333 20.301,44.85 20.204,44.794 22.831,43.277 					"/>
					<polygon fill="#1D1D1B" points="23.187,43.482 20.561,44.999 20.464,44.943 23.09,43.427 					"/>
					<polygon fill="#1D1D1B" points="22.832,43.988 20.82,45.148 20.724,45.094 22.735,43.933 					"/>
					<polygon fill="#1D1D1B" points="22.771,44.923 21.599,45.599 21.502,45.543 22.674,44.866 					"/>
					<polygon fill="#1D1D1B" points="23.03,45.072 21.859,45.749 21.762,45.692 22.934,45.017 					"/>
				</g>
				<g>
					<path fill="#1D71B8" d="M24.654,44.734c-0.313,0.181-0.822,0.181-1.135,0c-0.313-0.181-0.313-0.475,0-0.655
						c0.313-0.182,0.822-0.182,1.135,0C24.968,44.26,24.968,44.554,24.654,44.734z M23.557,44.101c-0.292,0.169-0.292,0.443,0,0.611
						c0.292,0.169,0.767,0.169,1.059,0c0.292-0.168,0.292-0.442,0-0.611C24.324,43.933,23.849,43.933,23.557,44.101z"/>
					<path fill="#1D71B8" d="M24.572,44.687c-0.268,0.154-0.703,0.154-0.97,0c-0.267-0.154-0.267-0.405,0-0.56
						c0.268-0.155,0.703-0.155,0.97,0C24.839,44.281,24.839,44.532,24.572,44.687z M23.627,44.142c-0.253,0.146-0.253,0.384,0,0.53
						c0.253,0.146,0.666,0.146,0.918,0c0.253-0.146,0.253-0.385,0-0.53C24.293,43.995,23.88,43.995,23.627,44.142z"/>
					<path fill="#1D71B8" d="M24.375,44.573c-0.159,0.092-0.418,0.092-0.578,0s-0.159-0.241,0-0.333
						c0.159-0.093,0.418-0.093,0.578,0C24.535,44.332,24.535,44.481,24.375,44.573z M23.823,44.255c-0.145,0.084-0.145,0.22,0,0.304
						c0.146,0.084,0.381,0.084,0.527,0c0.145-0.084,0.145-0.22,0-0.304C24.205,44.171,23.969,44.171,23.823,44.255z"/>
					<g>
						<path fill="#1D71B8" d="M23.871,44.171c-0.011,0-0.109-0.035-0.109-0.035l0.055,0.052c-0.011,0.003-0.078-0.06-0.078-0.06
							c0.016-0.003,0.112,0.03,0.112,0.03l-0.055-0.051c0.011-0.004,0.078,0.06,0.078,0.06
							C23.874,44.17,23.873,44.171,23.871,44.171z"/>
						<path fill="#1D71B8" d="M23.933,44.157c-0.005,0.001-0.01,0.001-0.015,0.001c-0.036-0.016-0.055-0.047-0.055-0.047
							c0.028-0.031,0.034-0.031,0.039-0.031c0.035,0.016,0.055,0.047,0.055,0.047C23.942,44.154,23.938,44.155,23.933,44.157z
							 M23.924,44.098c-0.003-0.005-0.008-0.009-0.014-0.011c-0.006-0.001-0.013-0.001-0.021,0
							c-0.008,0.002-0.013,0.005-0.017,0.008c0.001,0.014,0.021,0.046,0.021,0.046c0.003,0.005,0.008,0.009,0.014,0.01
							c0.006,0.002,0.013,0.002,0.021,0c0.008-0.001,0.013-0.004,0.016-0.007C23.944,44.13,23.924,44.098,23.924,44.098z"/>
						<path fill="#1D71B8" d="M24.031,44.062c0.002,0.007-0.029,0.01-0.029,0.01l0.019,0.068c-0.012,0.001-0.031-0.067-0.031-0.067
							l-0.031,0.002C23.956,44.069,24.031,44.062,24.031,44.062z"/>
						<path fill="#1D71B8" d="M24.053,44.141c-0.007-0.004,0.034-0.078,0.034-0.078c0.015,0.001,0.052,0.075,0.052,0.075
							c-0.012,0.002-0.02-0.016-0.02-0.016h-0.052l-0.009,0.017C24.055,44.141,24.054,44.141,24.053,44.141z M24.116,44.116
							l-0.021-0.044l-0.024,0.044H24.116z"/>
						<path fill="#1D71B8" d="M24.178,44.067c0.005-0.002,0.038,0.002,0.038,0.002c-0.004,0.043,0.012,0.078,0.012,0.078
							c-0.013,0-0.03-0.036-0.03-0.036l-0.023-0.003l-0.012,0.033C24.151,44.141,24.178,44.067,24.178,44.067z M24.189,44.073
							l-0.011,0.029l0.025,0.003c0.008,0.002,0.016,0.001,0.021,0c0.006-0.002,0.01-0.006,0.012-0.011
							c-0.008-0.016-0.014-0.018-0.022-0.019L24.189,44.073z"/>
						<path fill="#1D71B8" d="M24.286,44.134c0-0.001-0.005-0.05-0.005-0.05c0.012,0,0.016,0.044,0.016,0.044l0.06-0.028
							c0.008,0.006-0.058,0.036-0.058,0.036c-0.001,0.001-0.02,0.025-0.02,0.025C24.267,44.159,24.286,44.134,24.286,44.134z"/>
						<path fill="#1D71B8" d="M24.433,44.128c0.007,0,0.034,0.013,0.034,0.013c0,0.036-0.005,0.038-0.01,0.04
							c-0.042-0.004-0.063-0.013-0.063-0.013l-0.032,0.022C24.353,44.186,24.433,44.128,24.433,44.128z M24.438,44.136l-0.037,0.027
							l0.021,0.009c0.006,0.003,0.013,0.005,0.02,0.005c0.006-0.001,0.013-0.003,0.019-0.008c0.007-0.006,0.01-0.01,0.009-0.014
							c0-0.003-0.004-0.007-0.011-0.01L24.438,44.136z"/>
						<path fill="#1D71B8" d="M24.564,44.202c0.008,0.007-0.065,0.04-0.065,0.04c-0.005,0.003-0.011,0.005-0.017,0.006
							c-0.033-0.041,0.04-0.075,0.04-0.075c0.008,0.005-0.065,0.04-0.065,0.04c-0.007,0.003-0.012,0.007-0.012,0.011
							c0.012,0.015,0.019,0.018,0.025,0.019c0.007,0,0.014-0.002,0.021-0.005L24.564,44.202z"/>
						<path fill="#1D71B8" d="M24.597,44.23c0.007,0.002,0.021,0.018,0.021,0.018c-0.018,0.03-0.024,0.031-0.031,0.031
							c-0.006,0-0.011-0.001-0.015-0.003c-0.029,0.021-0.035,0.022-0.041,0.022c-0.034-0.012-0.05-0.03-0.05-0.03
							C24.483,44.265,24.597,44.23,24.597,44.23z M24.507,44.283c0.004,0.004,0.009,0.007,0.015,0.008
							c0.006,0.001,0.013,0.001,0.022-0.002c0.012-0.003,0.017-0.006,0.018-0.01c-0.003-0.012-0.016-0.025-0.016-0.025l-0.051,0.016
							L24.507,44.283z M24.556,44.251l0.011,0.013c0.004,0.004,0.009,0.007,0.014,0.009c0.005,0.001,0.012,0,0.02-0.002
							c0.008-0.02-0.003-0.032-0.003-0.032L24.556,44.251z"/>
						<path fill="#1D71B8" d="M24.521,44.318c0.003-0.004,0.126-0.025,0.126-0.025c0.003,0.007-0.113,0.027-0.113,0.027l0.015,0.029
							C24.539,44.352,24.521,44.318,24.521,44.318z"/>
						<path fill="#1D71B8" d="M24.671,44.348c0.002,0.007-0.125,0.02-0.125,0.02C24.544,44.36,24.671,44.348,24.671,44.348z"/>
						<path fill="#1D71B8" d="M24.651,44.416c0.01-0.03,0.003-0.031-0.007-0.031l-0.059,0.001c-0.01,0-0.017,0.002-0.022,0.005
							c0.008-0.011,0.014-0.013,0.021-0.013h0.059c0.007,0,0.014,0,0.019,0.002C24.648,44.416,24.649,44.416,24.651,44.416z"/>
					</g>
					<g>
						<path fill="#1D71B8" d="M24.325,44.635c0.011,0,0.11,0.032,0.11,0.032l-0.058-0.051c0.01-0.004,0.082,0.058,0.082,0.058
							c-0.015,0.004-0.113-0.027-0.113-0.027l0.059,0.05c-0.01,0.005-0.082-0.058-0.082-0.058
							C24.323,44.636,24.324,44.635,24.325,44.635z"/>
						<path fill="#1D71B8" d="M24.27,44.649c0.05,0.014,0.071,0.046,0.071,0.046c-0.071,0.018-0.092-0.015-0.092-0.015
							C24.26,44.652,24.265,44.651,24.27,44.649z M24.281,44.71c0.004,0.005,0.008,0.009,0.014,0.01
							c0.006,0.002,0.013,0.001,0.021,0c0.008-0.002,0.013-0.005,0.016-0.009c-0.001-0.014-0.022-0.046-0.022-0.046
							c-0.003-0.005-0.009-0.008-0.014-0.01c-0.006-0.001-0.013-0.001-0.021,0c-0.008,0.002-0.013,0.005-0.016,0.009
							C24.26,44.678,24.281,44.71,24.281,44.71z"/>
						<path fill="#1D71B8" d="M24.179,44.751c-0.002-0.007,0.028-0.012,0.028-0.012l-0.021-0.07
							c0.012-0.001,0.033,0.069,0.033,0.069l0.03-0.004C24.251,44.74,24.179,44.751,24.179,44.751z"/>
						<path fill="#1D71B8" d="M24.153,44.671c0.006,0.003-0.031,0.081-0.031,0.081c-0.015,0.001-0.053-0.074-0.053-0.074
							c0.012-0.003,0.02,0.015,0.02,0.015l0.05-0.002l0.009-0.019C24.15,44.671,24.151,44.671,24.153,44.671z M24.092,44.698
							l0.022,0.045l0.022-0.047L24.092,44.698z"/>
						<path fill="#1D71B8" d="M24.035,44.752c-0.005,0.002-0.037,0-0.037,0c0.003-0.045-0.013-0.08-0.013-0.08
							c0.013,0,0.029,0.035,0.029,0.035l0.023,0.002l0.011-0.034C24.06,44.676,24.035,44.752,24.035,44.752z M24.024,44.747
							l0.01-0.031l-0.024-0.003c-0.008,0-0.015,0.001-0.021,0.003c-0.005,0.002-0.009,0.006-0.011,0.011
							c0.008,0.016,0.014,0.018,0.022,0.019L24.024,44.747z"/>
						<path fill="#1D71B8" d="M23.926,44.689c0,0.001,0.006,0.051,0.006,0.051c-0.011,0.001-0.017-0.045-0.017-0.045l-0.058,0.033
							c-0.008-0.005,0.056-0.04,0.056-0.04c0-0.001,0.019-0.028,0.019-0.028C23.943,44.662,23.926,44.689,23.926,44.689z"/>
						<path fill="#1D71B8" d="M23.78,44.707c-0.007,0-0.034-0.011-0.034-0.011c-0.001-0.036,0.003-0.039,0.008-0.041
							c0.042,0,0.062,0.008,0.062,0.008l0.031-0.025C23.857,44.642,23.78,44.707,23.78,44.707z M23.775,44.699l0.036-0.03
							l-0.021-0.008c-0.007-0.003-0.013-0.004-0.02-0.003c-0.006,0.001-0.013,0.004-0.019,0.01c-0.007,0.006-0.01,0.01-0.009,0.014
							s0.004,0.007,0.011,0.01L23.775,44.699z"/>
						<path fill="#1D71B8" d="M23.646,44.645c-0.008-0.005,0.062-0.046,0.062-0.046c0.006-0.004,0.011-0.006,0.016-0.007
							c0.037,0.037-0.033,0.078-0.033,0.078c-0.008-0.005,0.062-0.046,0.062-0.046c0.007-0.005,0.011-0.009,0.012-0.013
							c-0.014-0.014-0.021-0.015-0.027-0.015c-0.007,0-0.014,0.002-0.021,0.007L23.646,44.645z"/>
						<path fill="#1D71B8" d="M23.611,44.621c-0.007-0.002-0.023-0.016-0.023-0.016c0.014-0.031,0.021-0.033,0.027-0.033
							c0.006-0.001,0.011-0.001,0.016,0.001c0.027-0.024,0.032-0.026,0.038-0.026c0.036,0.007,0.055,0.023,0.055,0.023
							C23.722,44.574,23.611,44.621,23.611,44.621z M23.65,44.597l-0.013-0.012c-0.005-0.004-0.01-0.007-0.015-0.007
							c-0.005-0.001-0.012,0-0.02,0.004c-0.005,0.02,0.008,0.03,0.008,0.03L23.65,44.597z M23.694,44.559
							c-0.004-0.003-0.01-0.005-0.016-0.006c-0.006,0-0.014,0.001-0.022,0.004c-0.011,0.005-0.016,0.009-0.017,0.013
							c0.005,0.011,0.02,0.022,0.02,0.022l0.05-0.021L23.694,44.559z"/>
						<path fill="#1D71B8" d="M23.676,44.527c-0.002,0.004-0.124,0.039-0.124,0.039c-0.005-0.006,0.11-0.039,0.11-0.039L23.641,44.5
							C23.652,44.497,23.676,44.527,23.676,44.527z"/>
						<path fill="#1D71B8" d="M23.518,44.517c-0.003-0.007,0.123-0.034,0.123-0.034C23.644,44.489,23.518,44.517,23.518,44.517z"/>
						<path fill="#1D71B8" d="M23.533,44.448c-0.003,0.029,0.004,0.03,0.014,0.028l0.059-0.008c0.01-0.001,0.017-0.003,0.021-0.007
							c-0.006,0.012-0.012,0.014-0.02,0.014l-0.059,0.008c-0.007,0.001-0.014,0.001-0.02,0.001
							C23.535,44.447,23.534,44.448,23.533,44.448z"/>
					</g>
					<path fill="#1D71B8" d="M24.324,44.544c-0.131,0.075-0.344,0.075-0.475,0c-0.131-0.076-0.131-0.199,0-0.274
						c0.131-0.076,0.344-0.076,0.475,0C24.456,44.345,24.456,44.468,24.324,44.544z M23.875,44.284
						c-0.117,0.067-0.117,0.178,0,0.245s0.307,0.067,0.424,0s0.117-0.178,0-0.245S23.992,44.217,23.875,44.284z"/>
					<g>
						<path fill="#1D71B8" d="M23.694,44.266c-0.004,0.013-0.06,0.007-0.06,0.007l0.011,0.033c-0.023,0.001-0.031-0.031-0.031-0.031
							l-0.049,0.016c-0.01-0.012,0.041-0.026,0.041-0.026l-0.04-0.021c0.016-0.01,0.053,0.015,0.053,0.015l0.024-0.03
							c0.021,0.006-0.006,0.034-0.006,0.034L23.694,44.266z"/>
					</g>
					<g>
						<path fill="#1D71B8" d="M24.623,44.548c-0.004,0.013-0.06,0.006-0.06,0.006l0.011,0.033c-0.023,0.002-0.031-0.03-0.031-0.03
							l-0.049,0.016c-0.01-0.013,0.04-0.026,0.04-0.026l-0.04-0.022c0.016-0.009,0.054,0.015,0.054,0.015l0.024-0.029
							c0.021,0.006-0.006,0.033-0.006,0.033L24.623,44.548z"/>
					</g>
				</g>
			</g>
		</g>
	</g>
</g>
</svg>
