<?xml version="1.0" encoding="utf-8"?>
<!-- Generator: Adobe Illustrator 16.0.0, SVG Export Plug-In . SVG Version: 6.00 Build 0)  -->
<!DOCTYPE svg PUBLIC "-//W3C//DTD SVG 1.1//EN" "http://www.w3.org/Graphics/SVG/1.1/DTD/svg11.dtd">
<svg version="1.1" id="Layer_1" xmlns="http://www.w3.org/2000/svg" xmlns:xlink="http://www.w3.org/1999/xlink" x="0px" y="0px"
	 width="85px" height="85px" viewBox="0 0 85 85" enable-background="new 0 0 85 85" xml:space="preserve">
<g>
	<path fill="#981700" d="M8.89,37.633h35.366v44.78H8.89V37.633L8.89,37.633z"/>
	<path fill="#5B7F81" d="M42.519,37.633h33.627v44.78H42.519V37.633L42.519,37.633z"/>
	<path fill="#234848" d="M51.326,54.917h16.012v18.84H51.326V54.917L51.326,54.917z"/>
	<path fill="#C13421" d="M59.332,37.633c-4.902,0-8.912-4.006-8.912-8.902v-2.604c0-0.172,0.006-0.342,0.014-0.512H68.23
		c0.008,0.168,0.016,0.338,0.016,0.512v2.604C68.244,33.627,64.234,37.633,59.332,37.633L59.332,37.633L59.332,37.633z"/>
	<path fill="#FF4328" d="M50.42,26.125c0-0.172,0.006-0.342,0.014-0.51h9.424c0.008,0.168,0.014,0.338,0.014,0.51v2.605
		c0,3.387-1.92,6.346-4.725,7.85c-2.807-1.504-4.727-4.463-4.727-7.85V26.125L50.42,26.125z"/>
	<path fill="#415E5C" d="M21.54,19.905v1.461c0,2.139-1.752,3.887-3.892,3.887h-0.002c-2.14,0-3.892-1.748-3.892-3.887v-1.461
		c0-2.139,1.751-3.887,3.892-3.887h0.002C19.788,16.018,21.54,17.766,21.54,19.905z"/>
	<path fill="#B76700" d="M37.654,19.905v5.348H29.87v-5.348c0-2.139,1.752-3.887,3.892-3.887h0.002
		C35.902,16.018,37.654,17.766,37.654,19.905z"/>
	<path d="M31.917,47.228c0,0.764-0.623,1.383-1.391,1.383h-9.646c-0.769,0-1.39-0.619-1.39-1.383c0-0.766,0.621-1.385,1.39-1.385
		h9.646C31.294,45.843,31.917,46.464,31.917,47.228z M68.729,54.917v18.84c0,0.768-0.623,1.391-1.391,1.391H51.326
		c-0.768,0-1.391-0.623-1.391-1.391v-18.84c0-0.768,0.623-1.391,1.391-1.391h16.012C68.105,53.526,68.729,54.149,68.729,54.917z
		 M65.947,56.306h-13.23v16.061h13.23V56.306z M51.326,48.61h0.32c0.768,0,1.389-0.619,1.389-1.383c0-0.766-0.621-1.385-1.389-1.385
		h-0.32c-0.768,0-1.391,0.619-1.391,1.385C49.938,47.991,50.559,48.61,51.326,48.61z M67.018,48.61h0.32
		c0.768,0,1.391-0.619,1.391-1.383c0-0.766-0.623-1.385-1.391-1.385h-0.32c-0.768,0-1.391,0.619-1.391,1.385
		C65.627,47.991,66.248,48.61,67.018,48.61z M59.012,48.61h0.32c0.768,0,1.391-0.619,1.391-1.383c0-0.766-0.623-1.385-1.391-1.385
		h-0.32c-0.768,0-1.391,0.619-1.391,1.385C57.621,47.991,58.242,48.61,59.012,48.61z M7.468,4.245c0-0.764,0.622-1.383,1.391-1.383
		h8.789l0,0h16.115l0,0h8.787c0.768,0,1.391,0.619,1.391,1.383c0,0.766-0.623,1.385-1.391,1.385h-7.398v9.186
		c2.24,0.611,3.893,2.66,3.893,5.09v5.348c0,0.768-0.622,1.391-1.391,1.391H29.87c-0.769,0-1.39-0.623-1.39-1.391v-5.348
		c0-2.43,1.651-4.479,3.893-5.09V5.629H19.038v9.186c2.239,0.611,3.892,2.66,3.892,5.09v1.461c0,2.91-2.369,5.277-5.281,5.277l0,0
		c-2.914,0-5.283-2.367-5.283-5.277v-1.461c0-2.43,1.652-4.479,3.894-5.09V5.629H8.859C8.09,5.629,7.468,5.01,7.468,4.245z
		 M17.648,17.407c-1.381,0-2.504,1.121-2.504,2.498v1.461c0,1.377,1.123,2.498,2.502,2.498h0.002c1.379,0,2.502-1.121,2.502-2.498
		v-1.461C20.15,18.528,19.027,17.407,17.648,17.407z M33.761,17.407c-1.38,0-2.503,1.121-2.503,2.498v3.959h5.005v-3.959
		C36.265,18.528,35.142,17.407,33.761,17.407z M62.168,16.122c-0.512,0.57-0.463,1.443,0.109,1.953
		c0.266,0.236,0.596,0.354,0.926,0.354c0.383,0,0.764-0.156,1.037-0.463c2.781-3.1,1.037-6.229-0.236-8.516
		c-1.311-2.35-1.789-3.51-0.879-4.75c0.453-0.615,0.318-1.48-0.301-1.934c-0.621-0.451-1.488-0.316-1.941,0.299
		c-2.059,2.799-0.533,5.531,0.689,7.727C63.037,13.418,63.5,14.637,62.168,16.122z M54.576,16.122
		c-0.512,0.568-0.463,1.443,0.109,1.953c0.266,0.236,0.596,0.354,0.926,0.354c0.381,0,0.762-0.156,1.037-0.463
		c2.781-3.1,1.037-6.23-0.238-8.516C55.1,7.1,54.621,5.94,55.531,4.7c0.453-0.615,0.318-1.48-0.301-1.932s-1.488-0.318-1.941,0.299
		c-2.057,2.797-0.531,5.529,0.691,7.727C55.445,13.418,55.908,14.635,54.576,16.122z M81.24,81.03c0,0.766-0.623,1.383-1.391,1.383
		h-3.225c-0.148,0.057-0.311,0.088-0.479,0.088H8.892c-0.17,0-0.332-0.031-0.48-0.088H5.148c-0.768,0-1.39-0.617-1.39-1.383
		c0-0.764,0.623-1.385,1.39-1.385h2.354V40.217H5.148c-0.768,0-1.39-0.621-1.39-1.383c0-0.766,0.623-1.385,1.39-1.385h3.453
		c0.094-0.02,0.19-0.031,0.291-0.031H53.82c-2.877-1.828-4.791-5.037-4.791-8.688v-2.605c0-0.182,0.006-0.373,0.018-0.582
		c0.039-0.738,0.648-1.318,1.389-1.318H68.23c0.74,0,1.35,0.58,1.389,1.318c0.012,0.223,0.018,0.408,0.018,0.582v2.604
		c0,3.65-1.914,6.861-4.791,8.689h11.303c0.1,0,0.197,0.01,0.291,0.029h3.412c0.768,0,1.391,0.621,1.391,1.385
		s-0.623,1.383-1.391,1.383h-2.312v39.43h2.312C80.617,79.646,81.24,80.267,81.24,81.03z M59.332,36.243
		c4.148,0,7.523-3.371,7.523-7.512v-1.725H51.811v1.725C51.811,32.872,55.184,36.243,59.332,36.243z M10.281,79.646h64.475V40.217
		H10.281V79.646z"/>
</g>
</svg>
