<?xml version="1.0" encoding="utf-8"?>
<!-- Generator: Adobe Illustrator 16.0.2, SVG Export Plug-In . SVG Version: 6.00 Build 0)  -->
<!DOCTYPE svg PUBLIC "-//W3C//DTD SVG 1.1 Tiny//EN" "http://www.w3.org/Graphics/SVG/1.1/DTD/svg11-tiny.dtd">
<svg version="1.1" baseProfile="tiny" id="Layer_1" xmlns="http://www.w3.org/2000/svg" xmlns:xlink="http://www.w3.org/1999/xlink"
	 x="0px" y="0px" width="85px" height="85px" viewBox="0 0 85 85" xml:space="preserve">
<g>
	<path fill-rule="evenodd" d="M41.406,2.5c0.729,0,1.458,0,2.188,0c0.828,0.133,1.672,0.199,2.44,0.592
		c0.211,0.108,0.464,0.136,0.674,0.02c0.783-0.437,1.653-0.493,2.511-0.611c0.677,0,1.354,0,2.031,0
		c1.755,0.114,3.254,0.784,4.482,2.054c0.333,0.343,0.772,0.398,1.228,0.394c5.073-0.053,9.207,5.365,7.092,10.83
		c-0.242,0.626-0.248,1.141-0.017,1.781c1.142,3.158,0.646,6.038-1.649,8.546c-0.314,0.344-0.518,0.661-0.436,1.172
		c0.482,2.996-1.227,5.603-4.164,6.271c-0.687,0.156-0.868,0.436-0.872,1.091c-0.015,1.954-0.444,3.822-1.394,5.544
		c-0.325,0.591-0.271,0.991,0.119,1.599c0.919,1.434,1.719,2.928,2.858,4.229c0.603,0.688,0.887,1.646,0.928,2.611
		c0.017,0.377,0.179,0.639,0.518,0.803c2.537,1.23,4.324,3.199,5.601,5.676c0.102,0.197,0.178,0.437,0.429,0.534
		c0.259-0.144,0.276-0.428,0.368-0.657c0.799-1.979,1.563-3.973,2.393-5.938c0.425-1.005,0.649-2.01,0.602-3.104
		c-0.047-1.051,0.125-2.072,0.702-2.994c0.766-1.221,1.859-1.877,3.296-1.893c2.16-0.025,4.32-0.02,6.48-0.002
		c1.503,0.012,2.328,0.668,2.687,2.078c0,0.885,0,1.771,0,2.656c-0.125,1.397-0.902,2.343-2.108,2.959
		c-0.498,0.255-0.575,0.694-0.668,1.157c-1.136,5.667-2.264,11.335-3.402,17c-0.263,1.309-0.666,2.561-1.386,3.708
		c-3.436,5.472-11.388,5.832-15.291,0.681c-0.864-1.141-1.707-2.297-2.603-3.455c-0.184,0.188-0.107,0.4-0.108,0.585
		c-0.006,2.004,0.021,4.009-0.017,6.013c-0.013,0.739,0.201,1.31,0.759,1.785c0.335,0.286,0.644,0.608,0.933,0.944
		c1.199,1.396,1.095,3.388-0.203,4.66c-0.439,0.431-0.984,0.536-1.53,0.682c-9.584,0-19.167,0-28.75,0
		c-2.611-0.332-3.446-3.824-1.603-5.428c1.333-1.16,1.684-2.467,1.572-4.129c-0.113-1.68-0.024-3.373-0.025-5.243
		c-0.998,1.267-1.84,2.438-2.714,3.586c-1.437,1.886-3.34,3.069-5.648,3.488c-5.101,0.926-9.258-2.125-10.596-6.216
		c-0.406-1.243-0.604-2.53-0.86-3.806c-0.999-4.95-1.988-9.902-2.969-14.856c-0.112-0.572-0.324-0.981-0.876-1.275
		c-1.118-0.598-1.793-1.543-1.906-2.84c0-0.886,0-1.771,0-2.656c0.361-1.419,1.174-2.067,2.684-2.083
		c1.978-0.021,3.96,0.071,5.934-0.024c2.415-0.119,4.502,1.455,4.481,4.133c-0.017,2.243,0.792,4.154,1.582,6.126
		c0.588,1.468,1.158,2.942,1.804,4.479c0.342-0.35,0.504-0.702,0.683-1.038c1.195-2.248,2.897-3.991,5.16-5.165
		c0.493-0.256,0.698-0.589,0.772-1.145c0.174-1.292,0.686-2.456,1.647-3.371c0.576-0.548,1.039-1.144,1.274-1.925
		c0.181-0.602,0.566-1.115,0.998-1.569c0.3-0.317,0.328-0.626,0.128-0.988c-1.085-1.956-1.598-4.057-1.582-6.288
		c0.003-0.546-0.384-0.582-0.774-0.682c-2.374-0.602-3.848-2.074-4.304-4.511c-0.106-0.569-0.113-1.142,0.031-1.704
		c0.113-0.444,0.026-0.8-0.293-1.142c-2.482-2.653-2.976-5.683-1.628-9.021c0.229-0.567,0.077-1.014-0.182-1.474
		c-0.202-0.358-0.086-0.94-0.501-1.089c-0.393-0.14-0.743,0.293-1.127,0.44c-1.11,0.429-1.104,0.444-1.106,1.617
		c-0.002,1.067,0.018,2.135-0.008,3.201c-0.019,0.764-0.166,0.893-0.933,0.931c-1.966,0.099-1.985,0.08-1.986-1.844
		c0-1.666-0.002-3.332,0.001-4.999c0.003-1.313,0.052-1.361,1.35-1.394c1.818-0.045,3.236-1.132,3.615-2.771
		c0.463-2.008-0.828-4.117-2.706-4.42c-2.316-0.373-4.263,1.082-4.473,3.345c-0.017,0.182-0.013,0.364-0.017,0.546
		c-0.021,1.134-0.108,1.217-1.277,1.228c-1.633,0.015-1.656-0.005-1.648-1.643c0.014-2.679,1.289-4.587,3.585-5.88
		c0.658-0.371,1.396-0.341,2.097-0.503c0.625,0,1.25,0,1.875,0c2.502,0.237,4.097,1.699,5.147,3.859
		c0.205,0.42,0.362,0.387,0.69,0.157c1.435-1.007,2.979-1.699,4.792-1.569c0.379,0.026,0.725-0.111,0.989-0.386
		c1.224-1.272,2.723-1.94,4.475-2.062c0.677,0,1.354,0,2.031,0c0.857,0.118,1.728,0.175,2.511,0.611
		c0.209,0.116,0.463,0.089,0.674-0.02C39.733,2.699,40.577,2.633,41.406,2.5z"/>
	<path fill-rule="evenodd" d="M74.375,2.5c1.62,0.39,3.061,1.075,4.123,2.423c2.823,3.582,1.231,8.808-3.139,10.179
		c-0.521,0.163-0.674,0.382-0.607,0.86c0.004,0.026,0.001,0.053,0.001,0.078c-0.006,2.178-0.015,2.175-2.215,1.946
		c-0.343-0.036-0.36-0.177-0.359-0.439c0.007-1.432,0.013-2.864-0.004-4.296c-0.004-0.339,0.095-0.448,0.439-0.442
		c0.569,0.011,1.142,0.053,1.709-0.088c1.93-0.481,3.211-2.253,3-4.173c-0.216-1.971-1.896-3.469-3.877-3.457
		c-1.973,0.012-3.559,1.436-3.813,3.425c-0.017,0.129-0.032,0.259-0.04,0.389c-0.08,1.34-0.079,1.34-1.436,1.34
		c-0.208,0-0.419-0.021-0.624,0.004c-0.421,0.052-0.508-0.133-0.521-0.529c-0.13-3.646,1.628-6.07,5.162-7.082
		c0.063-0.019,0.112-0.09,0.169-0.137C73.021,2.5,73.698,2.5,74.375,2.5z"/>
	<path fill-rule="evenodd" fill="#515151" d="M2.5,27.344c0.213,0.24,0.189,0.521,0.136,0.807c-0.047,0-0.092-0.009-0.136-0.025
		C2.5,27.864,2.5,27.604,2.5,27.344z"/>
	<path fill-rule="evenodd" fill="#404040" d="M82.5,26.25c-0.229-0.242-0.191-0.527-0.132-0.815
		c0.053-0.022,0.097-0.011,0.132,0.034C82.5,25.729,82.5,25.989,82.5,26.25z"/>
	<path fill-rule="evenodd" fill="#3E3E3E" d="M2.632,25.433C2.69,25.722,2.729,26.008,2.5,26.25c0-0.261,0-0.521,0-0.781
		C2.533,25.419,2.577,25.407,2.632,25.433z"/>
	<path fill-rule="evenodd" fill="#535353" d="M82.363,28.148c-0.053-0.285-0.076-0.564,0.137-0.805c0,0.261,0,0.521,0,0.781
		C82.455,28.136,82.409,28.144,82.363,28.148z"/>
	<path fill-rule="evenodd" fill="#656D78" d="M57.822,17.974c-0.746-0.227-1.098,0.135-1.366,1.003
		c-0.446,1.439-2.325,2.011-3.631,1.229c-0.266-0.16-0.543-0.34-0.734-0.575c-0.404-0.499-0.747-0.397-1.134,0.005
		c-0.346,0.36-0.748,0.65-1.231,0.802c-1.1,0.345-2.073,0.014-2.9-0.978c-0.687-0.823-0.687-0.823-1.452-0.162
		c-1.991,1.72-3.757,1.716-5.762-0.013c-0.751-0.647-0.751-0.647-1.4,0.13c-1.197,1.432-2.656,1.57-4.056,0.3
		c-0.541-0.492-0.844-0.466-1.383,0.025c-1.675,1.528-3.775,0.894-4.405-1.298c-0.111-0.387-0.275-0.491-0.639-0.474
		c-0.467,0.023-0.939,0.038-1.404-0.003c-0.542-0.047-0.61,0.227-0.551,0.659c0.204,1.47,0.917,2.638,2.092,3.523
		c0.263,0.198,0.503,0.373,0.419,0.748c-0.086,0.385-0.419,0.228-0.643,0.273c-0.851,0.174-1.672,0.424-2.355,0.975
		c-0.368,0.298-0.571,0.161-0.83-0.133c-1.596-1.813-1.786-4.427-0.34-6.408c0.492-0.676,0.544-1.083,0.021-1.782
		c-1.316-1.761-1.323-3.975-0.17-5.783c1.137-1.781,3.202-2.674,5.332-2.259c0.559,0.108,0.892-0.02,1.241-0.491
		c1.829-2.476,4.973-2.924,7.44-1.062c0.467,0.353,0.748,0.414,1.252,0.039c2.163-1.611,4.37-1.606,6.544,0.004
		c0.462,0.343,0.732,0.344,1.188-0.002c2.546-1.93,5.632-1.481,7.544,1.096c0.324,0.436,0.647,0.508,1.125,0.424
		c2.253-0.398,4.321,0.495,5.444,2.33c1.153,1.887,1.05,4.081-0.355,5.912c-0.389,0.507-0.384,0.819-0.008,1.33
		c1.594,2.163,1.51,4.653-0.133,6.606c-0.307,0.365-0.539,0.457-0.95,0.127c-0.685-0.55-1.517-0.78-2.371-0.935
		c-0.203-0.036-0.501,0.084-0.549-0.279c-0.038-0.288,0.063-0.479,0.31-0.651c0.991-0.693,1.684-1.619,2.029-2.783
		C59.469,18.037,59.413,17.974,57.822,17.974z"/>
	<path fill-rule="evenodd" fill="#FE816E" d="M41.224,72.053c0,2.37-0.017,4.739,0.012,7.109c0.007,0.561-0.109,0.765-0.723,0.76
		c-3.749-0.029-7.499-0.013-11.249-0.018c-0.328,0-0.713,0.082-0.89-0.314c-0.197-0.442,0.146-0.707,0.425-0.905
		c1.808-1.283,2.223-2.998,2.156-5.177c-0.165-5.333-0.066-10.675-0.038-16.014c0.004-0.667-0.193-0.816-0.827-0.803
		c-1.793,0.038-1.794,0.01-1.794,1.765c0,0.443-0.055,0.894,0.01,1.327c0.305,2.066-0.342,3.759-1.738,5.311
		c-1.179,1.31-2.144,2.813-3.213,4.223c-1.732,2.285-4.021,3.317-6.838,2.675c-2.771-0.631-4.445-2.473-5.009-5.271
		c-1.156-5.732-2.292-11.47-3.456-17.202c-0.091-0.446-0.051-0.603,0.443-0.594c1.405,0.025,2.813,0.021,4.218,0.001
		c0.358-0.005,0.565,0.087,0.704,0.439c1.361,3.457,2.765,6.896,4.099,10.363c0.789,2.05,0.608,4.101-0.374,6.048
		c-0.293,0.578-0.154,0.756,0.366,1.008c1.799,0.872,1.799,0.895,2.463-1.036c0.623-1.81,0.784-3.658,0.356-5.533
		c-0.111-0.485-0.068-0.886,0.188-1.32c0.688-1.163,1.31-2.366,2.002-3.526c0.918-1.538,2.227-2.661,3.823-3.465
		c0.388-0.196,0.69-0.173,1.076,0.054c3.561,2.101,7.134,4.182,10.714,6.25c0.362,0.209,0.527,0.431,0.494,0.855
		c-0.038,0.491-0.024,0.989-0.004,1.483c0.063,1.522,0.728,2.708,2.087,3.419c0.424,0.221,0.526,0.467,0.523,0.9
		C41.215,67.261,41.224,69.657,41.224,72.053z"/>
	<path fill-rule="evenodd" fill="#FE816E" d="M54.099,66.693c0,3.073,0.008,6.146-0.009,9.219c-0.003,0.45,0.106,0.785,0.442,1.098
		c0.648,0.603,1.261,1.243,1.882,1.874c0.186,0.188,0.351,0.395,0.223,0.69c-0.125,0.29-0.38,0.33-0.648,0.33
		c-3.906,0.002-7.813-0.006-11.719,0.011c-0.612,0.002-0.491-0.39-0.491-0.735c-0.003-4.036-0.002-8.072-0.002-12.108
		c0-0.781,0.015-1.563-0.007-2.344c-0.01-0.357,0.107-0.537,0.44-0.711c1.476-0.771,2.289-2.043,2.138-3.684
		c-0.133-1.435,0.422-2.146,1.641-2.809c3.219-1.752,6.357-3.651,9.512-5.52c0.461-0.272,0.82-0.284,1.285-0.04
		c1.536,0.804,2.799,1.902,3.688,3.39c0.747,1.249,1.413,2.546,2.155,3.798c0.223,0.376,0.104,0.7,0.033,1.044
		c-0.489,2.383-0.154,4.646,0.906,6.828c0.224,0.46,0.425,0.562,0.868,0.299c0.513-0.304,1.261-0.426,1.535-0.86
		c0.306-0.484-0.346-1.045-0.525-1.594c-0.601-1.832-0.581-3.639,0.122-5.423c1.314-3.335,2.663-6.657,3.983-9.99
		c0.14-0.352,0.29-0.542,0.718-0.533c1.405,0.029,2.813,0.024,4.218,0.003c0.459-0.007,0.564,0.097,0.467,0.576
		c-1.183,5.808-2.314,11.625-3.516,17.429c-0.552,2.666-2.234,4.403-4.861,5.044c-2.602,0.635-4.878-0.145-6.563-2.232
		c-1.764-2.186-3.396-4.478-5.097-6.715c-0.211-0.277-0.216-0.568-0.216-0.881c0.003-1.614-0.018-3.229,0.014-4.843
		c0.01-0.491-0.145-0.604-0.616-0.609c-2.001-0.021-2.001-0.037-2.001,1.953C54.099,61.329,54.099,64.012,54.099,66.693z"/>
	<path fill-rule="evenodd" fill="#EFCFB3" d="M54.1,29.571c0,1.511-0.059,3.023,0.011,4.53c0.22,4.762-3.106,9.119-8.304,9.749
		c-0.634,0.076-0.734,0.312-0.735,0.87c-0.005,2.058,0.643,3.83,2.17,5.239c0.249,0.229,0.257,0.372,0.034,0.622
		c-1.04,1.165-2.066,2.343-3.088,3.524c-0.175,0.2-0.322,0.257-0.6,0.174c-0.495-0.148-1.033-0.299-1.535-0.122
		c-0.779,0.274-1.258,0.024-1.747-0.611c-0.776-1.009-1.659-1.937-2.51-2.888c-0.235-0.264-0.339-0.426-0.003-0.737
		c1.547-1.432,2.167-3.248,2.135-5.331c-0.008-0.479-0.115-0.659-0.631-0.724c-3.261-0.408-5.746-2.014-7.333-4.922
		c-0.724-1.326-1.064-2.756-1.063-4.269c0.003-3.646,0.007-7.291-0.011-10.936c-0.002-0.451,0.142-0.524,0.576-0.663
		c1.336-0.427,2.579-0.444,3.944-0.016c1.077,0.339,2.224-0.02,3.212-0.62c0.328-0.199,0.558-0.217,0.906-0.04
		c1.963,0.999,3.949,0.999,5.917,0.015c0.338-0.169,0.565-0.189,0.908,0.009c1.518,0.878,3.104,0.959,4.708,0.242
		c0.341-0.152,0.605-0.154,0.946,0c0.42,0.191,0.882,0.385,1.332,0.398c0.654,0.02,0.791,0.261,0.775,0.882
		C54.07,25.821,54.1,27.697,54.1,29.571z"/>
	<path fill-rule="evenodd" fill="#FB6E51" d="M46.669,55.183c1.843-2.109,3.583-4.143,5.378-6.126
		c0.442-0.489,0.35-0.74-0.114-1.055c-0.192-0.131-0.358-0.301-0.534-0.455c-0.842-0.743-0.842-0.743-1.602,0.137
		c-0.612,0.707-0.633,0.707-1.229-0.05c-0.08-0.102-0.159-0.206-0.23-0.313c-0.694-1.051-0.672-1.121,0.5-1.535
		c1.414-0.5,2.701-1.226,3.8-2.245c0.404-0.375,0.645-0.296,0.938,0.077c0.298,0.379,0.553,0.798,0.498,1.277
		c-0.088,0.77,0.259,1.141,0.924,1.467c1.03,0.505,1.523,1.447,1.686,2.565c0.046,0.32,0.032,0.577-0.32,0.78
		c-3.105,1.792-6.199,3.605-9.298,5.408C47.003,55.15,46.917,55.143,46.669,55.183z"/>
	<path fill-rule="evenodd" fill="#FB6E51" d="M37.605,54.874c-2.99-1.728-5.978-3.462-8.977-5.177
		c-0.354-0.202-0.356-0.468-0.31-0.786c0.183-1.246,0.811-2.188,1.964-2.719c0.46-0.212,0.701-0.467,0.629-1
		c-0.04-0.304,0.01-0.617,0.127-0.918c0.411-1.056,0.762-1.156,1.621-0.46c1.204,0.977,2.539,1.719,4.037,2.134
		c0.438,0.121,0.544,0.31,0.326,0.698c-0.076,0.136-0.131,0.283-0.207,0.419c-0.747,1.336-0.953,1.376-1.922,0.244
		c-0.346-0.404-0.574-0.489-0.964-0.07c-0.424,0.454-1.243,0.821-1.278,1.275c-0.035,0.442,0.694,0.951,1.1,1.422
		c1.356,1.576,2.719,3.148,4.078,4.722C37.863,54.843,37.789,54.915,37.605,54.874z"/>
	<path fill-rule="evenodd" fill="#EECEB3" d="M9.303,46.386c-0.936-0.001-1.871,0.025-2.805-0.008
		c-1.133-0.039-1.901-1.416-1.389-2.424c0.113-0.222,0.297-0.174,0.467-0.174c1.947-0.004,3.895-0.025,5.842,0.007
		c1.138,0.019,1.886,1.385,1.385,2.433c-0.128,0.268-0.356,0.159-0.54,0.161C11.276,46.393,10.289,46.387,9.303,46.386z"/>
	<path fill-rule="evenodd" fill="#EECEB3" d="M75.562,46.387c-0.961,0-1.922-0.012-2.883,0.006c-0.35,0.007-0.488-0.071-0.509-0.464
		c-0.089-1.687,0.328-2.15,2.014-2.151c1.688,0,3.376,0.014,5.063-0.009c0.474-0.006,0.687,0.075,0.686,0.63
		c-0.005,1.589-0.364,1.987-1.957,1.988C77.171,46.388,76.366,46.387,75.562,46.387z"/>
	<path fill-rule="evenodd" fill="#A9B1BC" d="M43.771,59.261c0,0.44,0.021,0.883-0.004,1.322c-0.042,0.759-0.594,1.289-1.292,1.273
		c-0.673-0.016-1.213-0.525-1.237-1.246c-0.03-0.906-0.034-1.815,0.005-2.721c0.03-0.721,0.585-1.191,1.282-1.179
		c0.666,0.012,1.179,0.467,1.233,1.151c0.036,0.463,0.007,0.932,0.007,1.398C43.767,59.261,43.769,59.261,43.771,59.261z"/>
	<path fill-rule="evenodd" fill="#EFCFB3" d="M56.704,28.265c0-0.703,0.018-1.406-0.008-2.107c-0.014-0.38,0.151-0.422,0.469-0.385
		c1.164,0.137,2.125,1.335,2.089,2.626c-0.035,1.249-1.055,2.365-2.196,2.466c-0.399,0.035-0.353-0.184-0.354-0.414
		C56.702,29.722,56.704,28.993,56.704,28.265z"/>
	<path fill-rule="evenodd" fill="#EFCFB3" d="M28.296,28.35c0,0.65-0.038,1.305,0.012,1.951c0.047,0.607-0.218,0.617-0.68,0.492
		c-1.106-0.3-1.882-1.302-1.885-2.479c-0.003-1.165,0.779-2.208,1.868-2.497c0.443-0.118,0.748-0.127,0.697,0.504
		C28.254,26.993,28.296,27.673,28.296,28.35z"/>
	<path fill-rule="evenodd" fill="#DB6046" d="M37.605,54.874c0.075-0.071,0.15-0.144,0.225-0.216
		c0.153,0.113,0.412,0.251,0.235,0.436C37.928,55.238,37.738,55.008,37.605,54.874z"/>
	<path fill-rule="evenodd" fill="#010101" d="M73.473,20.584c0.724,0.002,1.27,0.553,1.266,1.278c-0.004,0.72-0.563,1.274-1.28,1.27
		c-0.716-0.005-1.274-0.568-1.271-1.283C72.188,21.133,72.748,20.583,73.473,20.584z"/>
	<path fill-rule="evenodd" fill="#020202" d="M16.676,23.142c0.694-0.011,1.288,0.572,1.297,1.274
		c0.01,0.703-0.562,1.297-1.262,1.31c-0.699,0.013-1.283-0.563-1.291-1.274C15.412,23.736,15.973,23.152,16.676,23.142z"/>
	<path fill-rule="evenodd" d="M22.463,38.6c-1.977,0.033-3.955,0.031-5.933,0.005c-1.579-0.021-3.026-1.125-3.37-2.543
		c1.179,0,2.349,0.034,3.516-0.007c2.342-0.083,4.099-1.999,3.872-4.178c-0.244-2.353-2.253-3.885-4.624-3.521
		c-2.69,0.413-4.492,1.917-5.374,4.481c-0.157,0.46-0.316,0.476-0.711,0.343c-2.568-0.863-4.191-2.616-4.642-5.267
		c-0.46-2.716,0.513-4.941,2.73-6.623c0.489-0.371,1.428-0.378,1.447-1.031c0.017-0.572-0.511-1.161-0.799-1.742
		c-0.022-0.046-0.058-0.088-0.073-0.137c-0.08-0.246-0.221-0.206-0.41-0.116c-3.044,1.459-4.964,3.771-5.461,7.168
		C2.493,25.69,2.685,26,2.5,26.25c0,0.364,0,0.729,0,1.094c0.187,0.245-0.011,0.555,0.136,0.807
		c0.358,3.526,3.345,6.812,6.968,7.625c0.501,0.112,0.751,0.274,0.93,0.824c0.826,2.537,2.569,4.112,5.239,4.514
		c1.807,0.271,3.637,0.078,5.456,0.102c1.928,0.027,1.905,0.006,1.922-1.931C23.155,38.736,23.01,38.59,22.463,38.6z M16.652,30.904
		c0.77,0.023,1.3,0.519,1.319,1.234c0.021,0.719-0.481,1.285-1.241,1.305c-1.187,0.03-2.374,0.008-3.628,0.008
		C13.726,31.84,15.139,30.858,16.652,30.904z"/>
	<path fill-rule="evenodd" d="M82.5,26.25c-0.185-0.249,0.008-0.56-0.132-0.815c-0.416-2.952-1.967-5.146-4.494-6.667
		c-1.203-0.726-1.215-0.706-1.828,0.52c-0.093,0.186-0.161,0.391-0.284,0.553c-0.341,0.45-0.219,0.71,0.288,0.888
		c0.242,0.085,0.47,0.225,0.686,0.366c2.406,1.584,3.491,3.832,3.085,6.668c-0.383,2.672-1.98,4.437-4.512,5.38
		c-0.536,0.2-0.733,0.102-0.92-0.452c-0.882-2.607-3.263-4.34-5.939-4.389c-2.479-0.046-4.334,2.075-3.945,4.511
		c0.305,1.914,1.885,3.216,3.978,3.25c1.124,0.019,2.249,0.004,3.479,0.004c-0.752,1.601-1.854,2.481-3.492,2.534
		c-1.533,0.051-3.07,0.014-4.605,0.014c-2.081,0-2.071,0-2.009,2.077c0.012,0.386,0.082,0.546,0.514,0.54
		c2.029-0.023,4.061,0.031,6.089-0.026c2.822-0.081,5.185-1.877,5.986-4.531c0.165-0.546,0.391-0.779,0.953-0.904
		c3.628-0.802,6.606-4.088,6.968-7.62c0.148-0.251-0.05-0.561,0.137-0.805C82.5,26.979,82.5,26.614,82.5,26.25z M68.386,33.451
		c-0.86-0.015-1.4-0.572-1.357-1.35c0.04-0.737,0.6-1.204,1.433-1.195c1.519,0.016,2.921,1.041,3.407,2.55
		C70.662,33.456,69.524,33.471,68.386,33.451z"/>
	<path fill-rule="evenodd" d="M39.129,26.134c2.026,1.394,2.632,3.497,1.577,5.357c-0.984,1.737-3.096,2.433-4.923,1.646
		c-1.52-0.653-3-2.657-1.969-5.183c-0.038-0.023-0.083-0.074-0.113-0.066c-1.138,0.295-1.138,0.295-1.517-0.854
		c-0.407-1.237-0.407-1.238,0.8-1.643c1.919-0.644,3.851-1.253,5.752-1.946c0.671-0.244,0.943-0.078,1.05,0.567
		c0.018,0.102,0.054,0.201,0.086,0.3C40.293,25.583,40.293,25.583,39.129,26.134z"/>
	<path fill-rule="evenodd" d="M45.827,26.129c-1.111-0.589-1.111-0.589-0.671-1.923c0.328-0.996,0.328-0.995,1.348-0.655
		c2.041,0.682,4.076,1.377,6.126,2.03c0.485,0.154,0.647,0.341,0.401,0.809c-0.083,0.159-0.121,0.341-0.18,0.513
		c-0.426,1.272-0.426,1.272-1.708,0.973c0.524,1.209,0.54,2.386-0.067,3.529c-0.443,0.832-1.107,1.431-1.987,1.782
		c-1.79,0.714-3.822,0.004-4.782-1.673C43.25,29.67,43.803,27.715,45.827,26.129z"/>
	<path fill-rule="evenodd" d="M41.932,36.064c3.312,0.008,5.72,1.638,6.74,4.132c0.188,0.46,0.171,0.724-0.369,0.806
		c-0.101,0.016-0.197,0.063-0.296,0.094c-0.468,0.153-0.956,0.471-1.397,0.416c-0.502-0.063-0.486-0.762-0.762-1.15
		c-1.817-2.563-5.726-2.228-7.039,0.654c-0.229,0.506-0.428,0.621-0.896,0.393c-0.207-0.103-0.44-0.152-0.661-0.227
		c-1.254-0.42-1.279-0.435-0.638-1.58C37.901,37.301,39.883,36.13,41.932,36.064z"/>
	<path fill-rule="evenodd" fill="#949DA8" d="M37.371,30.891c-0.694,0.021-1.285-0.553-1.301-1.263
		c-0.015-0.721,0.528-1.304,1.234-1.324c0.697-0.021,1.288,0.549,1.305,1.258C38.625,30.266,38.062,30.87,37.371,30.891z"/>
	<path fill-rule="evenodd" fill="#949DA8" d="M48.93,29.613c-0.009,0.709-0.594,1.29-1.288,1.277
		c-0.695-0.012-1.261-0.604-1.252-1.313c0.01-0.713,0.589-1.286,1.288-1.273C48.383,28.315,48.938,28.896,48.93,29.613z"/>
</g>
</svg>
