<?xml version="1.0" encoding="utf-8"?>
<!-- Generator: Adobe Illustrator 16.0.0, SVG Export Plug-In . SVG Version: 6.00 Build 0)  -->
<!DOCTYPE svg PUBLIC "-//W3C//DTD SVG 1.1//EN" "http://www.w3.org/Graphics/SVG/1.1/DTD/svg11.dtd">
<svg version="1.1" id="Layer_1" xmlns="http://www.w3.org/2000/svg" xmlns:xlink="http://www.w3.org/1999/xlink" x="0px" y="0px"
	 width="85px" height="85px" viewBox="0 0 85 85" enable-background="new 0 0 85 85" xml:space="preserve">
<g>
	<g>
		<polyline fill="#3D9AE2" points="71.072,44.623 81.275,44.623 81.275,39.725 71.072,39.725 		"/>
		<polyline fill="#3D9AE2" points="13.93,44.623 3.725,44.623 3.725,39.725 13.93,39.725 		"/>
	</g>
	<path fill="#B3D8F4" d="M67.807,71.072H17.193c-1.803,0-3.264-1.463-3.264-3.266V17.193c0-1.803,1.461-3.264,3.264-3.264h50.613
		c1.803,0,3.266,1.461,3.266,3.264v50.613C71.072,69.609,69.609,71.072,67.807,71.072z"/>
	<g>
		<circle fill="#FFFFFF" cx="20.566" cy="20.564" r="2.449"/>
		<circle fill="#FFFFFF" cx="64.436" cy="64.436" r="2.449"/>
		<circle fill="#FFFFFF" cx="20.566" cy="64.436" r="2.449"/>
		<circle fill="#FFFFFF" cx="64.436" cy="20.564" r="2.449"/>
		<circle fill="#FFFFFF" cx="42.5" cy="42.5" r="22.857"/>
	</g>
	<circle fill="#3D9AE2" cx="42.5" cy="42.5" r="6.367"/>
	<path d="M82.5,38.5H72.297V17.193c0-2.475-2.016-4.49-4.49-4.49H17.193c-2.476,0-4.489,2.016-4.489,4.49V38.5H2.5v7.348h10.204
		v21.959c0,2.475,2.015,4.49,4.489,4.49h50.613c2.475,0,4.49-2.016,4.49-4.49V45.848H82.5V38.5z M4.949,43.398v-2.449h7.755v2.449
		H4.949z M69.848,67.807c0,1.125-0.916,2.041-2.041,2.041H17.193c-1.125,0-2.041-0.916-2.041-2.041V17.193
		c0-1.125,0.916-2.041,2.041-2.041h50.613c1.125,0,2.041,0.916,2.041,2.041V67.807z M80.051,43.398h-7.754v-2.449h7.754V43.398z"/>
	<path d="M64.436,60.762c-0.982,0-1.904,0.383-2.598,1.076c-0.693,0.691-1.076,1.615-1.076,2.598c0,0.98,0.383,1.902,1.076,2.598
		c0.717,0.715,1.656,1.072,2.598,1.072s1.881-0.357,2.598-1.074c1.434-1.432,1.434-3.762,0-5.193
		C66.34,61.143,65.416,60.762,64.436,60.762z M65.301,65.301c-0.479,0.479-1.254,0.479-1.73,0c-0.23-0.23-0.359-0.539-0.359-0.865
		s0.129-0.635,0.359-0.865s0.537-0.357,0.865-0.357c0.326,0,0.635,0.127,0.865,0.357C65.779,64.047,65.777,64.822,65.301,65.301z"/>
	<path d="M20.564,24.238c0.981,0,1.904-0.381,2.599-1.076c0.694-0.693,1.075-1.615,1.075-2.598c0-0.98-0.381-1.902-1.075-2.596
		c-1.433-1.434-3.763-1.434-5.195,0c-1.432,1.432-1.432,3.762,0,5.193C18.662,23.857,19.584,24.238,20.564,24.238z M19.699,19.699
		c0.238-0.238,0.552-0.357,0.865-0.357s0.627,0.121,0.867,0.357c0.23,0.232,0.358,0.539,0.358,0.867
		c0,0.326-0.127,0.633-0.358,0.865c-0.232,0.232-0.539,0.357-0.867,0.357c-0.326,0-0.635-0.127-0.865-0.357
		C19.223,20.953,19.223,20.178,19.699,19.699z"/>
	<path d="M64.436,24.238c0.98,0,1.904-0.381,2.598-1.076c1.434-1.432,1.434-3.762,0-5.193c-1.434-1.434-3.764-1.434-5.195,0
		c-0.693,0.693-1.074,1.615-1.074,2.598s0.381,1.904,1.074,2.598S63.453,24.238,64.436,24.238z M63.57,19.699
		c0.238-0.238,0.551-0.357,0.865-0.357c0.312,0,0.627,0.121,0.865,0.357c0.479,0.479,0.479,1.254,0,1.732
		c-0.23,0.23-0.539,0.357-0.865,0.357c-0.328,0-0.635-0.127-0.867-0.357c-0.229-0.23-0.357-0.539-0.357-0.865
		C63.211,20.238,63.338,19.932,63.57,19.699z"/>
	<path d="M20.564,60.762c-0.98,0-1.902,0.381-2.596,1.076c-1.433,1.432-1.433,3.762,0,5.193c0.715,0.717,1.656,1.074,2.596,1.074
		c0.941,0,1.881-0.357,2.599-1.074c0.694-0.693,1.075-1.615,1.075-2.598s-0.381-1.904-1.075-2.598S21.547,60.762,20.564,60.762z
		 M21.432,65.301c-0.479,0.479-1.254,0.479-1.731,0s-0.478-1.254,0-1.73c0.231-0.23,0.538-0.357,0.866-0.357
		c0.326,0,0.635,0.127,0.865,0.357c0.231,0.23,0.359,0.539,0.359,0.865C21.791,64.764,21.662,65.07,21.432,65.301z"/>
	<path d="M42.5,18.42c-13.279,0-24.082,10.803-24.082,24.082c0,13.277,10.803,24.082,24.082,24.082
		c13.277,0,24.082-10.805,24.082-24.082C66.582,29.223,55.779,18.42,42.5,18.42z M60.035,29.848h-14.27v2.449H61.57
		c1.451,2.701,2.346,5.746,2.527,8.979H49.99c-0.521-3.207-3.059-5.746-6.266-6.268V20.902
		C50.43,21.279,56.326,24.721,60.035,29.848z M20.902,43.725h11.965v-2.449H20.902c0.182-3.23,1.076-6.277,2.527-8.979h17.846v2.711
		c-3.606,0.588-6.367,3.723-6.367,7.492s2.761,6.904,6.367,7.492v2.713H23.43C21.979,50.002,21.084,46.957,20.902,43.725z
		 M42.5,47.643c-2.836,0-5.143-2.307-5.143-5.143s2.307-5.143,5.143-5.143s5.143,2.307,5.143,5.143S45.336,47.643,42.5,47.643z
		 M41.275,20.902v8.945H24.965C28.674,24.721,34.572,21.279,41.275,20.902z M24.965,55.152h16.311v8.945
		C34.572,63.721,28.674,60.279,24.965,55.152z M43.725,64.098V49.992c3.207-0.521,5.746-3.061,6.268-6.268h14.105
		c-0.182,3.23-1.076,6.277-2.527,8.979H45.766v2.449h14.27C56.326,60.279,50.43,63.721,43.725,64.098z"/>
</g>
</svg>
