<?xml version="1.0" encoding="utf-8"?>
<!-- Generator: Adobe Illustrator 16.0.0, SVG Export Plug-In . SVG Version: 6.00 Build 0)  -->
<!DOCTYPE svg PUBLIC "-//W3C//DTD SVG 1.1//EN" "http://www.w3.org/Graphics/SVG/1.1/DTD/svg11.dtd">
<svg version="1.1" id="Layer_1" xmlns="http://www.w3.org/2000/svg" xmlns:xlink="http://www.w3.org/1999/xlink" x="0px" y="0px"
	 width="85px" height="85px" viewBox="0 0 85 85" enable-background="new 0 0 85 85" xml:space="preserve">
<g>
	<path fill="#FFFFFF" d="M81.166,49.169H3.834v-1.336c0-2.943,2.389-5.332,5.333-5.332h66.667c2.945,0,5.334,2.389,5.334,5.332
		v1.336H81.166z"/>
	<path fill="#F7C76A" d="M47.832,10.501H37.166V9.169c0-2.945,2.389-5.334,5.332-5.334l0,0c2.945,0,5.334,2.389,5.334,5.334V10.501
		L47.832,10.501z"/>
	<polygon fill="#E88F97" points="16.5,49.169 22.443,54.335 25.473,69.862 42.92,80.61 66.5,78.169 66.5,61.073 61.916,57.638 
		61.055,53.331 63.416,49.169 54.945,49.169 52.057,53.61 51.996,62.647 46.473,66.835 35.781,63.321 28.611,49.169 	"/>
	<path fill="#FFFFFF" d="M79.832,78.501c0,1.475-1.191,2.668-2.664,2.668h-8c-1.475,0-2.668-1.193-2.668-2.668V59.835
		c0-1.475,1.193-2.666,2.668-2.666h8c1.473,0,2.664,1.191,2.664,2.666V78.501z"/>
	<circle cx="74.375" cy="75.021" r="2.191"/>
	<path fill="#F5B945" d="M75.832,42.501H9.166V21.169c0-5.893,4.775-10.668,10.667-10.668h45.333
		c5.891,0,10.666,4.775,10.666,10.668V42.501L75.832,42.501z"/>
	<path d="M77.166,41.302V21.167c0-6.615-5.385-12-12-12h-16c0-3.676-2.99-6.668-6.666-6.668s-6.667,2.992-6.667,6.668h-16
		c-6.616,0-12,5.385-12,12v20.135C4.794,41.923,2.5,44.616,2.5,47.835v1.334c0,0.734,0.598,1.332,1.333,1.332h12.168l5.224,4.539
		l2.939,15.076c0.07,0.365,0.292,0.688,0.609,0.881l17.447,10.748c0.211,0.131,0.455,0.197,0.699,0.197
		c0.045,0,0.092-0.002,0.139-0.006l22.289-2.311c0.492,1.654,2.008,2.875,3.82,2.875h8c2.203,0,4-1.797,4-4V59.833
		c0-2.205-1.797-4-4-4h-8c-1.764,0-3.246,1.152-3.777,2.74l-2.268-1.697l-0.664-3.318l1.734-3.057h16.975
		c0.734,0,1.332-0.6,1.332-1.334v-1.334C82.5,44.616,80.205,41.923,77.166,41.302z M67.832,78.169V61.073v-1.24
		c0-0.732,0.6-1.332,1.336-1.332h8c0.732,0,1.332,0.6,1.332,1.332v18.668c0,0.734-0.6,1.334-1.332,1.334h-8
		c-0.736,0-1.336-0.6-1.336-1.334V78.169z M42.5,5.167c2.205,0,4,1.795,4,4h-8C38.5,6.962,40.295,5.167,42.5,5.167z M10.5,21.167
		c0-5.146,4.188-9.334,9.333-9.334h17.333h10.666h17.334c5.146,0,9.334,4.188,9.334,9.334v20h-64V21.167z M59.748,53.593
		l0.861,4.307c0.062,0.322,0.244,0.609,0.508,0.807l4.049,3.033v15.227l-21.934,2.273L26.669,69.034l-2.916-14.953
		c-0.056-0.293-0.209-0.557-0.435-0.752l-3.252-2.828h7.727l6.8,13.424c0.16,0.312,0.438,0.555,0.773,0.664l10.69,3.514
		c0.412,0.135,0.871,0.061,1.221-0.203l5.523-4.188c0.332-0.25,0.525-0.639,0.527-1.055l0.059-8.645l2.281-3.512h5.461l-1.232,2.174
		C59.738,52.952,59.684,53.278,59.748,53.593z M30.781,50.501h21.707l-1.551,2.387c-0.139,0.213-0.215,0.461-0.217,0.717
		l-0.057,8.379l-4.441,3.367l-9.502-3.123L30.781,50.501z M63.416,47.835h-8.471H28.611H16.5H5.167c0-2.205,1.795-4,4-4h66.667
		c2.205,0,4,1.795,4,4H63.416z"/>
	<g>
		<path fill="#FFFFFF" d="M27.834,22.501h-8c-0.736,0-1.333-0.598-1.333-1.332c0-0.736,0.597-1.334,1.333-1.334h8
			c0.736,0,1.333,0.598,1.333,1.334C29.167,21.903,28.57,22.501,27.834,22.501z"/>
		<path fill="#FFFFFF" d="M34.5,22.501h-1.333c-0.735,0-1.333-0.598-1.333-1.332c0-0.736,0.598-1.334,1.333-1.334H34.5
			c0.736,0,1.333,0.598,1.333,1.334C35.834,21.903,35.236,22.501,34.5,22.501z"/>
	</g>
</g>
</svg>
