<?xml version="1.0" encoding="utf-8"?>
<!-- Generator: Adobe Illustrator 16.0.0, SVG Export Plug-In . SVG Version: 6.00 Build 0)  -->
<!DOCTYPE svg PUBLIC "-//W3C//DTD SVG 1.1//EN" "http://www.w3.org/Graphics/SVG/1.1/DTD/svg11.dtd">
<svg version="1.1" id="Layer_1" xmlns="http://www.w3.org/2000/svg" xmlns:xlink="http://www.w3.org/1999/xlink" x="0px" y="0px"
	 width="85px" height="85px" viewBox="0 0 85 85" enable-background="new 0 0 85 85" xml:space="preserve">
<g>
	<path fill="#EFEAF7" d="M40.938,2.5c1.094,0,2.187,0,3.28,0c0.472,0.195,0.969,0.06,1.454,0.113
		c4.963,0.548,9.085,2.764,12.239,6.562c1.832,2.207,3.987,2.902,6.676,2.491c1.4,1.336,1.963,4.211,1.161,5.936
		c-0.12,0.26-0.278,0.502-0.377,0.771c-0.104,0.282-0.153,0.581,0.139,0.774c0.315,0.209,0.602,0.064,0.835-0.177
		c0.293-0.305,0.486-0.673,0.636-1.065c0.531-1.391,0.569-2.786,0.082-4.201c-0.147-0.432-0.416-0.854-0.248-1.351
		c0.265-0.27,0.575-0.18,0.877-0.101c5.624,1.467,9.747,4.842,12.536,9.896c0.565,1.025,1.037,2.096,1.411,3.209
		c0.525,1.564,0.84,3.159,0.781,4.817c0,1.048,0,2.094,0,3.139c0.065,2.196-0.41,4.286-1.397,6.233
		c-0.994,1.961-0.989,3.832,0.015,5.802c0.927,1.815,1.422,3.778,1.384,5.846c-0.002,0.127-0.02,0.26,0.079,0.367
		c0,1.146,0,2.291,0,3.438c-0.114,1.762-0.373,3.49-1.021,5.152c-0.482,1.24-1.08,2.419-1.725,3.576
		c-0.186,0.332-0.384,0.694-0.84,0.744c-0.415-0.077-0.515-0.396-0.558-0.747c-0.045-0.362-0.027-0.728-0.027-1.092
		c-0.001-9.244-0.03-18.487,0.016-27.73c0.016-3.178-2.287-5.729-5.161-6.241c-3.401-0.606-6.868,2.119-6.972,5.59
		c-0.051,1.691-0.012,3.385-0.012,5.077c-0.001,7.785-0.013,15.57,0.015,23.355c0.004,0.987-0.292,1.727-0.999,2.417
		c-1.933,1.891-2.9,4.219-2.924,6.931c-0.003,0.312,0.01,0.626-0.096,0.927c-0.11,0.287-0.368,0.338-0.627,0.387
		c-1.314,0.249-2.349,0.939-3.153,1.995c-0.315,0.414-0.686,0.782-1.021,1.179c-0.181,0.215-0.366,0.542-0.749,0.287
		c0.671-6.85,0.128-13.717,0.291-20.574c0.03-1.242,0.131-2.475,0.061-3.733c-0.273-4.928-3.759-9.937-9.392-11.393
		c-1.267-0.327-1.298-0.354-0.986-1.579c0.268-1.058-0.059-1.941-0.605-2.805c-0.685-1.081-0.692-1.125,0.054-2.14
		c0.802-1.089,1.199-2.306,1.183-3.646c-0.008-0.675,0.238-1.184,0.701-1.663c6.521-6.747,5.528-17.394-2.119-22.905
		c-1.942-1.4-4.044-2.452-6.379-3.029c-0.323-0.08-0.826-0.002-0.846-0.573C39.362,2.476,40.173,2.693,40.938,2.5z"/>
	<path fill-rule="evenodd" clip-rule="evenodd" fill="#333333" d="M38.552,2.833c2.328,0.59,4.572,1.381,6.574,2.747
		c4.886,3.334,7.57,7.864,7.36,13.875c-0.139,3.966-1.751,7.342-4.501,10.175c-0.354,0.365-0.519,0.716-0.501,1.224
		c0.053,1.628-0.439,3.087-1.552,4.285c-0.348,0.375-0.321,0.604-0.036,0.974c1.039,1.349,1.494,2.798,0.575,4.464
		c1.048,0.279,2.07,0.473,3.009,0.916c5.052,2.384,7.73,6.372,7.775,11.955c0.058,7.16-0.039,14.32-0.056,21.48
		c-0.001,0.701-0.242,1.318-0.493,1.944c-0.083,0.825-0.789,1.078-1.351,1.457c-0.233,0.157-0.492,0.282-0.779,0.33
		c-0.524,0.179-1.062,0.22-1.612,0.22c-7.063-0.002-14.126-0.004-21.189,0.001c-0.416,0.001-0.827-0.087-1.243-0.042
		c-4.677,0.052-9.354,0.077-14.03-0.007c-2.323-0.042-3.815-1.677-3.94-4.102c-0.064-1.271-0.026-2.546-0.014-3.818
		c0.049-1.533,0.015-3.068,0.017-4.603c0.006-4.034,0.004-8.067,0.001-12.102c-0.001-2.182,0.279-4.312,1.23-6.304
		c1.977-4.14,5.224-6.646,9.733-7.51c1.03-0.197,2.071-0.167,3.112-0.174c0.844-0.005,0.9-0.069,0.924-0.871
		c0.049-1.635-0.58-2.389-2.316-2.703c-1.466-0.266-2.632-0.93-3.335-2.297c-0.565-1.099-0.62-2.212-0.035-3.293
		c0.371-0.685,0.268-1.141-0.271-1.706c-4.318-4.54-5.44-11.652-2.747-17.13c0.54-1.131,1.198-2.193,1.971-3.179
		c1.457-1.856,3.342-2.68,5.696-2.241c0.528,0.099,0.751-0.089,0.931-0.55c0.608-1.559,1.749-2.609,3.237-3.329
		c0.727-0.352,1.528-0.21,2.272-0.421c0.469,0,0.938,0,1.406,0c0.364,0.127,0.729,0.127,1.094,0c0.417,0,0.833,0,1.25,0
		C37.312,2.711,37.989,2.458,38.552,2.833z"/>
	<path fill-rule="evenodd" clip-rule="evenodd" fill="#EFEAF7" d="M19.074,12.192c-0.798,1.961-1.381,3.971-1.415,6.109
		c-0.068,4.386,1.469,8.136,4.493,11.281c0.361,0.376,0.48,0.611,0.161,1.092c-1.685,2.545,0.354,5.492,3.016,5.715
		c0.971,0.081,1.618,0.774,2.39,1.222c0.314,0.183,0.146,0.635,0.133,0.957c-0.023,0.613,0.291,1.424-0.138,1.781
		c-0.36,0.3-1.14,0.109-1.734,0.111c-6.589,0.021-11.736,4.277-12.93,10.733c-0.15,0.813-0.184,1.657-0.186,2.486
		c-0.016,5.415-0.008,10.83-0.01,16.246c0,0.285-0.023,0.569-0.037,0.854c-0.287,0.122-0.507-0.059-0.717-0.19
		C7.002,67.378,3.824,62.84,2.701,56.9c-0.12-0.633-0.156-1.286-0.122-1.938c0-1.093,0-2.185,0-3.276
		c-0.049-2.202,0.415-4.301,1.407-6.259c0.982-1.94,0.974-3.797-0.011-5.753c-0.918-1.825-1.441-3.791-1.397-5.868
		c0.003-0.128,0.021-0.262-0.078-0.369c0-1.094,0-2.188,0-3.281c0.154-0.735,0.063-1.492,0.196-2.231
		c0.536-3.004,1.775-5.708,3.569-8.151c2.973-4.051,6.938-6.599,11.854-7.66C18.44,12.045,18.778,11.894,19.074,12.192z"/>
	<path fill-rule="evenodd" clip-rule="evenodd" fill="#333333" d="M62.007,73.127c-0.18-3.515,0.954-6.49,3.644-8.816
		c0.318-0.276,0.237-0.611,0.237-0.936c0.004-9.425,0.016-18.85-0.007-28.274c-0.005-1.979,0.54-3.714,2.019-5.05
		c1.997-1.803,4.326-2.275,6.805-1.216c2.499,1.066,3.871,3.065,3.882,5.801c0.038,9.581,0.016,19.162,0.017,28.743
		c0,0.408-0.098,0.858,0.437,1.043c0.48,0.021,0.707,0.403,0.969,0.711c1.393,1.632,2.342,3.466,2.492,5.648
		c0,0.938,0,1.875,0,2.812c-0.443,3.945-2.699,6.531-6.144,8.249c-0.88,0.439-1.829,0.494-2.764,0.657c-0.312,0-0.624,0-0.937,0
		c-0.365-0.127-0.729-0.127-1.094,0c-0.261,0-0.521,0-0.782,0c-4.207-0.593-6.93-3.019-8.421-6.904
		C62.062,74.823,61.676,74.012,62.007,73.127z"/>
	<path fill-rule="evenodd" clip-rule="evenodd" fill="#EFEAF7" d="M54.831,78.404c-0.478,0.604-1.153,0.953-1.799,1.313
		c-2.634,1.473-5.424,2.468-8.47,2.636c-0.117,0.007-0.229,0.096-0.345,0.146c-1.094,0-2.187,0-3.28,0
		c-0.961-0.155-1.934-0.259-2.88-0.478c-2.749-0.637-5.366-1.589-7.588-3.408c1.608-0.011,3.218-0.029,4.826-0.03
		c5.687-0.004,11.372-0.004,17.059,0.001C53.186,78.586,54.015,78.591,54.831,78.404z"/>
	<path fill-rule="evenodd" clip-rule="evenodd" fill="#333333" d="M2.5,7.656c0.365-0.679,0.461-1.461,0.849-2.136
		c0.308-0.535,0.689-0.933,1.304-0.623c0.615,0.31,0.55,0.824,0.24,1.394c-0.974,1.786-0.882,3.597,0.021,5.376
		c0.702,1.384,1.262,2.793,1.179,4.383c-0.056,1.088-0.37,2.09-0.979,2.998c-0.337,0.502-0.788,0.736-1.317,0.365
		c-0.494-0.346-0.442-0.816-0.118-1.3c0.886-1.319,0.914-2.751,0.368-4.177c-0.485-1.271-1.129-2.479-1.547-3.78
		C2.5,9.323,2.5,8.49,2.5,7.656z"/>
	<path fill-rule="evenodd" clip-rule="evenodd" fill="#FEFEFE" d="M2.5,33.438c0.306,1.009,0.3,2.075,0.609,3.087
		c0.333,1.09,0.6,2.206,1.142,3.21c1.038,1.92,0.951,3.79-0.01,5.715c-0.956,1.916-1.462,3.97-1.586,6.112
		c-0.052,0.074-0.104,0.079-0.155,0.002C2.5,45.521,2.5,39.479,2.5,33.438z"/>
	<path fill-rule="evenodd" clip-rule="evenodd" fill="#F9F9FA" d="M38.552,2.833c-0.619-0.068-1.251-0.062-1.833-0.333
		c1.406,0,2.812,0,4.219,0C40.162,2.753,39.35,2.742,38.552,2.833z"/>
	<path fill-rule="evenodd" clip-rule="evenodd" fill="#F6F3FA" d="M2.5,51.563c0.052-0.001,0.104-0.001,0.155-0.002
		c0,1.198,0,2.397,0,3.596c-0.052,0-0.104,0-0.155,0C2.5,53.959,2.5,52.761,2.5,51.563z"/>
	<path fill-rule="evenodd" clip-rule="evenodd" fill="#F5F3FA" d="M82.5,33.438c-0.052,0-0.104,0.001-0.155,0.002
		c0-1.147,0-2.294,0-3.44C82.396,30,82.448,30,82.5,30C82.5,31.146,82.5,32.292,82.5,33.438z"/>
	<path fill-rule="evenodd" clip-rule="evenodd" fill="#4D4D4D" d="M35.469,2.5c-0.365,0.244-0.729,0.244-1.094,0
		C34.739,2.5,35.104,2.5,35.469,2.5z"/>
	<path fill-rule="evenodd" clip-rule="evenodd" fill="#414141" d="M71.562,82.5c0.364-0.245,0.729-0.242,1.094,0
		C72.291,82.5,71.927,82.5,71.562,82.5z"/>
	<path fill-rule="evenodd" clip-rule="evenodd" fill="#333333" d="M58.975,36.694c-0.609-0.007-1.08-0.706-0.733-1.224
		c1.346-2.007,0.891-3.934-0.124-5.881c-1.123-2.154-1.252-4.362-0.251-6.602c0.126-0.282,0.281-0.562,0.478-0.799
		c0.278-0.337,0.654-0.429,1.044-0.185c0.4,0.25,0.603,0.634,0.351,1.062c-1.311,2.229-0.87,4.34,0.242,6.508
		c1.092,2.13,1.205,4.328-0.105,6.462C59.662,36.384,59.413,36.664,58.975,36.694z"/>
	<path fill-rule="evenodd" clip-rule="evenodd" fill="#333333" d="M64.539,11.703c-0.643-1.941-0.729-3.869,0.149-5.771
		c0.065-0.142,0.139-0.279,0.206-0.419c0.271-0.559,0.694-0.928,1.304-0.61c0.615,0.319,0.518,0.842,0.222,1.403
		c-1.102,2.094-0.79,4.108,0.414,6.054c0.693,1.688,1.123,3.399,0.521,5.218c-0.198,0.597-0.452,1.161-0.849,1.65
		c-0.328,0.403-0.754,0.478-1.175,0.193c-0.397-0.269-0.498-0.717-0.235-1.101c1.305-1.911,0.915-3.781-0.068-5.654
		C64.86,12.348,64.702,12.024,64.539,11.703z"/>
	<path fill-rule="evenodd" clip-rule="evenodd" fill="#F8B1B0" d="M60.36,14.761c-1.318,0.269-2.152,0.922-2.3,2.338
		c-0.164-1.435-1.056-2.056-2.339-2.334c1.369-0.195,2.175-0.896,2.299-2.348C58.282,13.764,58.953,14.602,60.36,14.761z"/>
	<path fill-rule="evenodd" clip-rule="evenodd" fill="#F7F4FB" d="M76.261,23.594c0.677,0.003,1.198,0.491,1.214,1.137
		c0.013,0.506-0.72,1.21-1.244,1.197c-0.528-0.013-1.217-0.71-1.221-1.234C75.006,24.105,75.592,23.591,76.261,23.594z"/>
	<path fill-rule="evenodd" clip-rule="evenodd" fill="#F7F4FB" d="M60.155,45.69c0.005,0.644-0.478,1.172-1.081,1.184
		c-0.667,0.013-1.233-0.496-1.258-1.131c-0.024-0.63,0.523-1.206,1.153-1.211C59.645,44.526,60.15,45.021,60.155,45.69z"/>
	<path fill-rule="evenodd" clip-rule="evenodd" fill="#88DBBC" d="M55.472,66.418c0.001,2.882,0.019,5.764-0.007,8.646
		c-0.009,0.969-0.746,1.74-1.726,1.78c-1.427,0.059-2.856,0.012-4.285,0.03c-0.516,0.006-0.418-0.346-0.418-0.64
		c-0.005-2.467-0.003-4.934-0.003-7.401c0-0.182-0.002-0.363,0-0.545c0.006-0.519-0.167-0.951-0.714-1.06
		c-0.558-0.11-0.865,0.231-1.021,0.734c-0.236,0.33-0.606,0.375-0.961,0.455c-4.545,1.022-9.151,1.406-13.797,1.195
		c-2.859-0.129-5.697-0.527-8.495-1.153c-0.445-0.1-0.947-0.132-1.191-0.63c-0.212-0.438-0.528-0.729-1.045-0.591
		c-0.554,0.146-0.662,0.603-0.662,1.1c-0.002,2.566-0.028,5.133,0.016,7.699c0.013,0.702-0.194,0.888-0.869,0.846
		c-1.032-0.063-2.071-0.031-3.108-0.041c-0.295-0.29-0.254-0.669-0.255-1.027c-0.005-7.781-0.057-15.563,0.025-23.344
		c0.029-2.736,1.109-5.165,2.967-7.211c0.298-0.326,0.625-0.625,0.935-0.941c0.907-0.927,1.945-1.638,3.213-1.976
		c1.128-0.304,2.279-0.116,3.419-0.163c0.533-0.021,0.371,0.423,0.392,0.678c0.173,2.127,0.946,4.003,2.688,5.248
		c0.951,0.68,1.131,1.404,1.12,2.454c-0.047,4.426-0.021,8.852-0.02,13.278c0.001,1.211,0.148,1.36,1.34,1.362
		c1.38,0.003,2.76,0.003,4.14,0c1.162-0.003,1.321-0.156,1.321-1.301c0.002-4.738,0.008-9.477-0.009-14.215
		c-0.002-0.52,0.137-0.826,0.598-1.127c1.767-1.154,2.859-2.801,3.126-4.902c0.104-0.823,0.356-1.062,1.226-1.209
		c1.371-0.231,2.664-0.245,3.989,0.132c4.743,1.348,8.048,5.562,8.158,10.629c0.086,3.93,0.012,7.861,0.005,11.792
		c0,0.101-0.041,0.201-0.062,0.302c-0.363-0.29-0.281-0.707-0.284-1.085c-0.014-2.005,0.006-4.01-0.016-6.014
		c-0.003-0.357,0.152-0.865-0.386-0.977c-0.476-0.099-0.846,0.181-1.115,0.57c-0.28,0.407-0.315,0.873-0.315,1.347
		c-0.002,1.718-0.012,3.437,0.003,5.155c0.013,1.426,0.355,1.798,1.794,2.012C55.285,66.326,55.381,66.366,55.472,66.418z"/>
	<path fill-rule="evenodd" clip-rule="evenodd" fill="#FEDDCE" d="M24.39,27.978c0-2.095,0.015-4.021-0.011-5.944
		c-0.006-0.426,0.171-0.519,0.531-0.567c4.495-0.602,9.008-0.837,13.54-0.622c2.208,0.104,4.406,0.331,6.602,0.587
		c0.569,0.067,0.752,0.26,0.744,0.854c-0.035,2.914-0.02,5.827-0.015,8.741c0.002,1.054-0.322,1.984-0.96,2.821
		c-0.273,0.359-0.466,0.445-0.84,0.069c-0.822-0.828-1.068-0.802-1.918,0.031c-0.97,0.949-1.743,2.046-2.525,3.155
		c-0.733,1.038-1.969,1.482-3.188,1.776c-1.45,0.351-2.854,0.122-4.144-0.614c-1.42-0.811-2.809-1.678-4.208-2.52
		c0.051-0.283,0.294-0.371,0.446-0.531c1.179-1.242,1.42-2.798,0.618-4.305c-0.704-1.324-1.706-2.416-2.791-3.436
		c-0.428-0.402-0.875-0.405-1.313,0.002C24.812,27.612,24.658,27.742,24.39,27.978z"/>
	<path fill-rule="evenodd" clip-rule="evenodd" fill="#5EC1CC" d="M22.854,67.83c1.587,0.606,3.269,0.801,4.927,1.042
		c2.33,0.34,4.68,0.5,7.045,0.522c4.223,0.039,8.361-0.553,12.473-1.432c0.008,2.784,0.008,5.569,0.033,8.354
		c0.005,0.463-0.174,0.561-0.596,0.561c-7.756-0.01-15.513-0.013-23.269,0.005c-0.565,0.002-0.625-0.236-0.622-0.697
		C22.859,73.4,22.853,70.615,22.854,67.83z"/>
	<path fill-rule="evenodd" clip-rule="evenodd" fill="#616161" d="M26.253,8.738c0.493,0.01,0.871,0.318,1.296,0.503
		c0.765,0.333,1.274,0.048,1.358-0.784c0.231-2.273,1.725-3.888,4.195-4.118c4.776-0.445,9.001,0.801,12.667,3.86
		c3.665,3.057,5.346,7.025,4.983,11.772c-0.212,2.775-1.253,5.278-3.067,7.405c-0.178-0.015-0.186-0.116-0.186-0.221
		c-0.001-2.056-0.249-4.15,0.071-6.154c0.297-1.864,0.381-3.7,0.377-5.561c-0.003-1.554-0.689-2.537-1.891-2.755
		c-0.788-0.144-1.586-0.252-2.384-0.329c-3.566-0.345-7.142-0.603-10.726-0.462c-2.949,0.115-5.896,0.327-8.817,0.786
		c-0.519,0.081-0.988,0.312-1.32,0.753c-0.43-0.091-0.245-0.391-0.166-0.594c0.574-1.47,1.416-2.773,2.526-3.895
		C25.463,8.651,25.851,8.596,26.253,8.738z"/>
	<path fill-rule="evenodd" clip-rule="evenodd" fill="#5EC1CC" d="M24.069,42.344c-1.188,0.736-2.362,1.467-3.374,2.472
		c-2.382,2.365-3.519,5.196-3.515,8.531c0.01,7.832,0.004,15.664,0.005,23.496c-1.899,0.101-2.625-0.583-2.625-2.481
		c-0.001-6.999-0.015-13.997,0.004-20.996c0.015-5.319,3.572-9.749,8.736-10.931C23.551,42.377,23.813,42.372,24.069,42.344z"/>
	<path fill-rule="evenodd" clip-rule="evenodd" fill="#FEDDCE" d="M31.725,39.992c2.534,1.028,5.012,0.992,7.449-0.421
		c0.301,0.761,0.648,1.485,1.283,2.021c0.158,0.134,0.147,0.318,0.151,0.503c0.042,2.328-0.85,4.171-2.931,5.289
		c-0.717,0.386-0.925,0.856-0.921,1.611c0.021,4.478,0.017,8.955,0.006,13.432c-0.003,1.181,0.234,1.063-1.07,1.073
		c-0.129,0.001-0.258-0.026-0.386-0.04c-0.316-0.377-0.254-0.833-0.255-1.271c-0.005-4.294-0.025-8.588,0.013-12.882
		c0.011-1.197-0.369-2.054-1.35-2.789c-1.925-1.443-2.576-3.521-2.545-5.847C31.174,40.361,31.13,39.882,31.725,39.992z"/>
	<path fill-rule="evenodd" clip-rule="evenodd" fill="#FEFEFE" d="M25.938,14.22c1.97-0.377,3.969-0.446,5.963-0.544
		c4.526-0.223,9.032,0.021,13.518,0.662c0.3,0.043,0.654,0.011,0.699,0.451c0.112,0.697,0.008,1.4,0.059,2.098
		c0.034,0.475-0.194,0.658-0.625,0.696c-0.394,0.035-0.776-0.055-1.164-0.083c-2.174-0.155-4.344-0.39-6.529-0.358
		c-2.6,0.037-5.188,0.223-7.767,0.544c-0.622,0.078-1.243,0.112-1.866,0.062c-1.457-0.116-2.634-1.513-2.516-2.962
		C25.727,14.571,25.79,14.38,25.938,14.22z"/>
	<path fill-rule="evenodd" clip-rule="evenodd" fill="#E9E9E9" d="M25.938,14.22c-0.012,1.311,0.227,2.502,1.57,3.124
		c0.692,0.32,1.451,0.224,2.151,0.129c3.266-0.444,6.544-0.677,9.834-0.577c1.804,0.056,3.616,0.137,5.406,0.426
		c1.057,0.172,1.172,0.07,1.179-0.975c0.004-0.52,0.025-1.038,0.039-1.558c0.2,1.474,0.049,2.952,0.048,4.429
		c-0.001,0.563-0.416,0.606-0.896,0.54c-3.923-0.543-7.863-0.775-11.823-0.69c-2.836,0.062-5.658,0.301-8.471,0.667
		c-0.857,0.111-1.02-0.015-1.026-0.876c-0.009-1.118,0.046-2.24-0.018-3.354c-0.048-0.831,0.245-1.226,1.077-1.227
		C25.317,14.276,25.627,14.24,25.938,14.22z"/>
	<path fill-rule="evenodd" clip-rule="evenodd" fill="#FEC6B2" d="M31.725,39.992c-0.628,0.511-0.313,1.191-0.255,1.778
		c0.213,2.159,1.198,3.869,3.061,5.063c0.642,0.412,0.78,1.131,0.78,1.864c-0.003,4.921-0.003,9.842-0.004,14.763
		c-1.938,0.157-1.938,0.157-1.938-1.739c0-4.239-0.015-8.479,0.012-12.718c0.005-0.792-0.23-1.276-0.965-1.666
		c-1.589-0.844-2.517-2.22-2.759-4.014c-0.201-1.49-0.046-2.988-0.098-4.636C30.366,39.174,31.045,39.583,31.725,39.992z"/>
	<path fill-rule="evenodd" clip-rule="evenodd" fill="#474747" d="M26.253,8.738c-0.484-0.037-0.799,0.195-1.124,0.553
		c-1.008,1.109-1.771,2.359-2.346,3.734c-0.062,0.146-0.146,0.283,0.027,0.409c-0.349,0.477-0.48,1.005-0.475,1.599
		c0.018,1.553,0.002,3.106-0.001,4.66c-0.5-0.137-0.377-0.57-0.388-0.897c-0.036-1.049-0.015-2.099,0.121-3.146
		c-0.411,2.581-0.306,5.131,0.406,7.399c-0.008-0.651-0.312-1.564,0.187-2.428c0.323,0.881,0.185,1.802,0.121,2.685
		c-0.096,1.345-0.121,2.688-0.125,4.227c-0.684-0.673-1.071-1.359-1.458-2.028c-1.385-2.397-2.048-4.996-1.805-7.752
		c0.272-3.097,1.305-5.923,3.591-8.136C23.87,8.76,24.979,8.341,26.253,8.738z"/>
	<path fill-rule="evenodd" clip-rule="evenodd" fill="#FEFEFE" d="M55.472,66.418c-1.335,0.411-2.312-0.253-2.329-1.633
		c-0.023-2.029-0.013-4.06,0.004-6.09c0.008-0.974,0.562-1.658,1.412-1.793c0.578-0.092,0.929,0.027,0.916,0.756
		c-0.04,2.264-0.023,4.528-0.023,6.792c0,0.284,0.032,0.568,0.049,0.853C55.491,65.674,55.481,66.046,55.472,66.418z"/>
	<path fill-rule="evenodd" clip-rule="evenodd" fill="#CCDAE4" d="M43.92,36.396c0.349,0.281,0.557,0.674,0.814,1.027
		c0.55,0.753,0.756,1.545,0.199,2.374c-0.582,0.866-1.403,1.187-2.43,0.946c-0.488-0.449-0.609-1.021-0.496-1.641
		c0.179-0.979,0.736-1.767,1.359-2.51C43.501,36.434,43.686,36.321,43.92,36.396z"/>
	<path fill-rule="evenodd" clip-rule="evenodd" fill="#CCDAE4" d="M26.553,30.312c0.384,0.356,0.661,0.795,0.923,1.24
		c0.499,0.85,0.448,1.596-0.126,2.301c-0.592,0.728-1.434,0.973-2.352,0.687c-0.352-0.301-0.385-0.706-0.393-1.129
		c-0.022-1.2,0.597-2.109,1.334-2.963C26.093,30.271,26.301,30.142,26.553,30.312z"/>
	<path fill-rule="evenodd" clip-rule="evenodd" fill="#ABD1DD" d="M26.553,30.312c-0.953,0.438-2.074,2.435-1.649,3.854
		c0.036,0.122,0.063,0.249,0.095,0.374c-1.425-0.413-1.972-1.696-1.254-2.963c0.397-0.703,0.936-1.3,1.455-1.913
		c0.313-0.37,0.53-0.43,0.818-0.007C26.176,29.89,26.373,30.095,26.553,30.312z"/>
	<path fill-rule="evenodd" clip-rule="evenodd" fill="#ABD1DD" d="M43.92,36.396c-1.476,1.168-1.959,2.654-1.416,4.348
		c-1.576-0.517-2.076-1.824-1.218-3.201c0.357-0.571,0.817-1.065,1.227-1.598c0.421-0.549,0.729-0.525,1.082,0.023
		C43.691,36.119,43.811,36.255,43.92,36.396z"/>
	<path fill-rule="evenodd" clip-rule="evenodd" fill="#606060" d="M22.661,20.621c-0.007,1.066-0.015,2.133-0.023,3.199
		c0,0.018-0.02,0.035-0.078,0.134c-1.118-2.967-1.31-5.909-0.373-8.913c0,1.252-0.006,2.504,0.005,3.756
		c0.003,0.302-0.101,0.63,0.144,0.896C22.316,20.047,22.519,20.324,22.661,20.621z"/>
	<path fill-rule="evenodd" clip-rule="evenodd" fill="#333333" d="M10.29,35.85c-0.003-0.187,0.038-0.356,0.146-0.515
		c1.18-1.73,0.948-3.492,0.056-5.232c-0.762-1.483-1.269-3.008-1.124-4.701c0.09-1.052,0.395-2.033,0.921-2.945
		c0.277-0.481,0.666-0.766,1.219-0.458c0.536,0.3,0.559,0.76,0.279,1.267c-1.044,1.892-0.937,3.778,0.041,5.654
		c0.952,1.826,1.477,3.711,0.827,5.766c-0.189,0.599-0.455,1.162-0.854,1.649c-0.246,0.3-0.566,0.456-0.967,0.291
		C10.49,36.483,10.299,36.229,10.29,35.85z"/>
	<path fill-rule="evenodd" clip-rule="evenodd" fill="#C7BCE5" d="M7.809,46.901c0.249,1.298,0.883,2.082,2.259,2.223
		c-1.157,0.352-2.157,0.793-2.226,2.28c-0.19-1.391-1.061-1.984-2.304-2.254C6.879,48.971,7.59,48.233,7.809,46.901z"/>
	<path fill-rule="evenodd" clip-rule="evenodd" fill="#F8EC98" d="M72.484,49.399c0.42-0.229,0.725-0.537,0.569-1.06
		c-0.162-0.548-0.609-0.646-1.112-0.648c-0.753-0.001-1.506-0.021-2.259-0.033c-0.482-0.703-0.234-1.499-0.261-2.253
		c-0.02-0.549-0.157-1.143,0.265-1.63c0.231-0.01,0.464-0.01,0.693-0.032c0.513-0.05,0.827-0.354,0.827-0.851
		c0-0.497-0.315-0.8-0.827-0.85c-0.23-0.021-0.463-0.022-0.694-0.032c-0.137-0.13-0.235-0.292-0.23-0.475
		c0.025-1.141-0.306-2.307,0.228-3.413c0.779-0.012,1.558-0.031,2.337-0.033c0.522-0.002,0.954-0.172,1.054-0.72
		c0.101-0.552-0.23-0.87-0.749-1.007c-0.748-0.082-1.498-0.032-2.247-0.029c-0.395,0.001-0.577-0.176-0.609-0.538
		c-0.168-1.845,0.1-3.556,1.45-4.968c0.585-0.611,1.231-0.917,2.075-0.695c2.044,0.247,3.778,2.045,3.868,4.127
		c0.064,1.497,0.002,3-0.003,4.501c-0.064,0.044-0.13,0.089-0.208,0.101c-1.632,0.247-1.867,0.514-1.87,2.139
		c-0.003,1.711-0.005,3.423,0,5.134c0.005,1.49,0.249,1.757,1.714,1.895c0.131,0.013,0.256,0.04,0.367,0.111
		c0.01,5.151,0.039,10.302,0.01,15.453c-0.005,0.905,0.23,1.521,0.946,2.132c2.829,2.413,3.711,6.256,2.337,9.718
		c-1.312,3.305-4.588,5.444-8.231,5.329c-1.419-0.044-2.77-0.394-3.959-1.222c-1.607-1.415-2.251-3.29-2.406-5.336
		c-0.244-3.211,0.845-5.937,3.245-8.102c0.469-0.423,0.667-0.879,0.647-1.499c-0.031-0.962-0.019-1.927-0.005-2.89
		c0.015-0.986,0.053-1.011,1.007-1.021c0.677-0.008,1.354,0.04,2.028-0.029c0.839-0.585,0.839-1.078-0.002-1.659
		c-0.779-0.07-1.561-0.017-2.341-0.029c-0.271-0.004-0.584,0.001-0.617-0.329c-0.116-1.179-0.335-2.368,0.159-3.521
		c0.154-0.014,0.308-0.039,0.461-0.04c0.477-0.005,0.887-0.129,1.033-0.64c0.148-0.519-0.139-0.83-0.567-1.053
		c-1.173-0.109-1.187-0.119-1.191-1.35c-0.003-0.644-0.025-1.289,0.022-1.933c0.033-0.452,0.226-0.685,0.734-0.677
		C70.941,49.455,71.716,49.523,72.484,49.399z"/>
	<path fill-rule="evenodd" clip-rule="evenodd" fill="#FEC37F" d="M72.48,60.674c-0.628,0.243-1.286,0.136-1.919,0.095
		c-0.758-0.049-0.92,0.251-0.891,0.936c0.049,1.142,0.013,2.286,0.014,3.43c0,0.312-0.011,0.579-0.314,0.816
		c-3.99,3.116-4.864,8.965-1.701,13.145c0.108,0.144,0.197,0.303,0.295,0.455c-4.394-2.22-5.64-8.546-2.484-12.606
		c0.416-0.536,0.86-1.053,1.42-1.437c0.559-0.383,0.737-0.881,0.71-1.533c-0.036-0.83,0.036-1.666-0.022-2.493
		c-0.048-0.678,0.21-0.828,0.84-0.809C69.776,60.713,71.129,60.678,72.48,60.674z"/>
	<path fill-rule="evenodd" clip-rule="evenodd" fill="#FEFEFE" d="M76.861,48.14c-1.461,0.459-2.333-0.17-2.336-1.695
		c-0.004-1.967-0.002-3.936,0.004-5.902c0.004-1.478,0.908-2.165,2.329-1.781C76.859,41.887,76.86,45.014,76.861,48.14z"/>
	<path fill-rule="evenodd" clip-rule="evenodd" fill="#FEC37F" d="M72.993,30.133c-1.372-0.164-1.967,0.859-2.584,1.765
		c-0.819,1.202-0.771,2.602-0.717,3.982c0.015,0.381,0.295,0.351,0.558,0.372c0.69,0.057,1.395-0.134,2.074,0.111
		c-1.398,0.006-2.797,0.013-4.195,0.015c-0.228,0.001-0.498,0.043-0.519-0.304c-0.104-1.775,0.003-3.497,1.464-4.787
		C70.194,30.299,71.472,29.788,72.993,30.133z"/>
	<path fill-rule="evenodd" clip-rule="evenodd" fill="#FDC37F" d="M72.484,49.399c-0.699,0.291-1.429,0.102-2.143,0.117
		c-0.509,0.012-0.692,0.176-0.666,0.681c0.033,0.621,0.053,1.248-0.003,1.865c-0.068,0.743,0.01,1.318,0.934,1.341
		c-0.805-0.005-1.61-0.026-2.414-0.006c-0.423,0.011-0.613-0.105-0.601-0.566c0.027-0.96,0.028-1.922,0-2.882
		c-0.014-0.471,0.196-0.559,0.608-0.555C69.628,49.412,71.057,49.4,72.484,49.399z"/>
	<path fill-rule="evenodd" clip-rule="evenodd" fill="#FDC37F" d="M69.68,55.135c0.002,1.034,0.023,2.068-0.005,3.101
		c-0.014,0.502,0.152,0.671,0.662,0.678c0.714,0.01,1.44-0.153,2.142,0.102c-1.402-0.004-2.805-0.022-4.207-0.003
		c-0.479,0.006-0.71-0.097-0.684-0.645c0.045-0.907,0.026-1.818,0.007-2.727c-0.009-0.395,0.113-0.575,0.53-0.548
		C68.643,55.126,69.161,55.123,69.68,55.135z"/>
	<path fill-rule="evenodd" clip-rule="evenodd" fill="#FEC380" d="M69.687,43.775c-0.001,1.294-0.002,2.589-0.003,3.883
		c-2.083,0.146-2.083,0.146-2.083-1.904C67.601,43.672,67.601,43.672,69.687,43.775z"/>
	<path fill-rule="evenodd" clip-rule="evenodd" fill="#FEC380" d="M69.683,38.123c0.001,1.296,0.002,2.592,0.003,3.888
		c-2.085,0.111-2.085,0.111-2.085-1.981C67.601,37.978,67.601,37.978,69.683,38.123z"/>
	<path fill-rule="evenodd" clip-rule="evenodd" fill="#333333" d="M35.003,32.396c1.229,0.048,2.204,0.459,2.973,1.321
		c0.373,0.418,0.505,0.88,0.067,1.311c-0.439,0.431-0.875,0.292-1.295-0.104c-1.171-1.106-2.161-1.099-3.382,0.023
		c-0.398,0.366-0.816,0.499-1.238,0.11c-0.448-0.413-0.353-0.87,0.008-1.31C32.799,32.94,33.995,32.389,35.003,32.396z"/>
	<path fill-rule="evenodd" clip-rule="evenodd" fill="#343433" d="M39.864,27.463c-0.767-0.053-1.431-0.311-1.938-0.894
		c-0.333-0.383-0.4-0.807-0.036-1.191c0.357-0.379,0.814-0.397,1.185-0.049c0.572,0.539,1.064,0.512,1.625-0.016
		c0.345-0.323,0.78-0.31,1.123,0.031c0.372,0.369,0.345,0.8,0.021,1.191C41.332,27.155,40.644,27.422,39.864,27.463z"/>
	<path fill-rule="evenodd" clip-rule="evenodd" fill="#343434" d="M30.319,27.462c-0.789-0.04-1.476-0.31-1.989-0.927
		c-0.326-0.392-0.349-0.825,0.023-1.191c0.342-0.338,0.778-0.354,1.124-0.03c0.561,0.526,1.056,0.555,1.628,0.017
		c0.371-0.35,0.828-0.334,1.183,0.048c0.356,0.384,0.295,0.811-0.039,1.193C31.74,27.153,31.077,27.411,30.319,27.462z"/>
	<path fill-rule="evenodd" clip-rule="evenodd" fill="#333333" d="M77.08,72.228c-0.019,2.648-2.196,4.795-4.854,4.783
		c-2.642-0.013-4.85-2.205-4.847-4.814c0.002-2.647,2.265-4.865,4.917-4.822C74.971,67.417,77.098,69.575,77.08,72.228z"/>
	<path fill-rule="evenodd" clip-rule="evenodd" fill="#ECECEC" d="M72.847,69.194c1.464,0.268,2.474,1.422,2.527,2.891
		c0.055,1.492-0.896,2.716-2.392,3.08c-0.423,0.149-0.694-0.115-0.929-0.383c-1.285-1.461-1.277-3.742,0.003-5.194
		C72.26,69.357,72.488,69.135,72.847,69.194z"/>
	<path fill-rule="evenodd" clip-rule="evenodd" fill="#CDCDCD" d="M72.847,69.194c-1.889,1.189-1.974,4.169-0.511,5.573
		c0.189,0.182,0.366,0.369,0.646,0.397c-1.267,0.341-2.568-0.14-3.333-1.23c-0.722-1.03-0.736-2.392-0.038-3.435
		C70.334,69.421,71.604,68.909,72.847,69.194z"/>
</g>
</svg>
