<?xml version="1.0" encoding="utf-8"?>
<!-- Generator: Adobe Illustrator 16.0.0, SVG Export Plug-In . SVG Version: 6.00 Build 0)  -->
<!DOCTYPE svg PUBLIC "-//W3C//DTD SVG 1.1//EN" "http://www.w3.org/Graphics/SVG/1.1/DTD/svg11.dtd">
<svg version="1.1" id="Layer_1" xmlns="http://www.w3.org/2000/svg" xmlns:xlink="http://www.w3.org/1999/xlink" x="0px" y="0px"
	 width="85px" height="85px" viewBox="0 0 85 85" enable-background="new 0 0 85 85" xml:space="preserve">
<g>
	<path d="M33.836,2.5c5.678,0,11.353,0,17.031,0c3.703,0.096,6.867,1.904,10.186,3.225c0.893,0.355,1.779,0.732,2.666,1.109
		c3.578,1.525,5.338,4.305,5.652,8.107c0.24,2.9,0.492,5.801,0.73,8.703c0.229,2.797,0.457,5.594,0.688,8.391
		s0.467,5.594,0.707,8.391c0.188,2.176,0.355,4.352,0.539,6.525c0.186,2.201,0.367,4.402,0.557,6.604
		c0.182,2.123,0.354,4.246,0.527,6.369c0.186,2.229,0.359,4.455,0.562,6.682c0.223,2.432-0.533,4.477-2.48,5.986
		c-1.48,1.148-3.09,2.121-4.654,3.148c-0.547,0.359-0.824,0.752-0.65,1.418c0.076,0.299,0.068,0.619,0.113,0.928
		c0.326,2.27-0.889,3.988-3.111,4.414c-13.645,0-27.291,0-40.937,0c-2.141-0.516-3.262-2.184-2.986-4.398
		c0.273-2.211,0.451-1.67-1.289-2.865c-1.158-0.795-2.352-1.543-3.502-2.348c-2.207-1.545-3.108-3.688-2.865-6.35
		c0.211-2.33,0.391-4.662,0.584-6.994c0.186-2.201,0.367-4.402,0.559-6.604c0.184-2.123,0.354-4.248,0.527-6.373
		c0.184-2.229,0.371-4.457,0.559-6.686c0.174-2.072,0.357-4.145,0.535-6.217c0.244-2.9,0.465-5.805,0.725-8.705
		c0.195-2.174,0.357-4.352,0.525-6.529c0.109-1.428,0.188-2.857,0.381-4.273c0.48-3.555,2.404-6.025,5.719-7.4
		c1.973-0.816,3.945-1.631,5.912-2.463C29.43,3.416,31.528,2.58,33.836,2.5z"/>
	<path fill="#A3CBFE" d="M63.352,66.379c-1.088,0.111-1.424,0.557-1.281,1.656c0.391,2.986,0.773,5.975,1.158,8.961
		c0.16,0.428-0.021,0.645-0.441,0.705c-0.336,0.049-0.676,0.035-1.014,0.035c-11.041,0-22.082-0.029-33.123,0.027
		c-2.102,0.01-3.467-1.133-3.145-3.568c0.301-2.27,0.602-4.543,0.906-6.812c0.787-5.855,1.469-11.729,2.357-17.57
		c0.879-5.762,5.096-9.875,10.855-10.756c0.439-0.066,0.881-0.072,1.324-0.072c3.462,0,6.925-0.01,10.39,0.002
		c1.992,0.008,3.949-0.172,5.82-0.928c0.303-0.123,0.713-0.373,0.863,0.223c1.059,7.814,2.117,15.629,3.176,23.445
		c0.035,0.258,0.082,0.514,0.121,0.77c0.135,0.881,0.447,1.15,1.404,1.209c0.352,0.223,0.352,0.596,0.393,0.945
		C63.188,65.229,63.35,65.793,63.352,66.379z"/>
	<path fill="#C2DCFE" d="M22.276,9.236c2.174-0.918,4.348-1.83,6.516-2.76c0.34-0.146,0.457-0.043,0.545,0.279
		c0.08,0.299,0.234,0.576,0.346,0.867c0.262,0.693,0.742,1.043,1.5,0.963c0.137-0.1,0.352-0.123,0.432-0.039
		c0.584,0.607,1.389,1.035,1.613,1.939c-0.33,0.945-0.221,1.303,0.592,1.844c1.936,1.295,4.082,2.027,6.453,2.393
		c-0.721,1.396-1.211,2.834-1.363,4.361c-0.318,3.229,0.291,6.217,2.387,8.787c0.871,1.068,1.568,1.092,2.4-0.01
		c2.947-3.895,3.164-8.102,1.324-12.514c-0.068-0.168-0.156-0.326-0.232-0.492c-0.01-0.021,0-0.051,0.006-0.139
		c1.385-0.238,2.766-0.564,4.068-1.146c3.135-1.4,5.57-3.51,6.789-6.818c0.141-0.379,0.281-0.396,0.619-0.254
		c2.293,0.977,4.592,1.932,6.891,2.896c0.096,0.039,0.188,0.09,0.277,0.139c1.766,0.939,1.811,1.111,0.703,2.742
		c-1.186,1.742-2.344,3.5-3.555,5.223c-1.455,2.07-1.838,4.307-1.213,6.746c0.305,1.182,0.666,2.355,0.791,3.574
		c0.191,1.877-0.221,3.609-1.35,5.146c-0.312,0.234-0.68,0.234-1.045,0.234c-8.305,0-16.609,0.002-24.914-0.002
		c-0.68,0-1.355-0.094-2.01-0.254c-2.172-0.529-4.266-2.582-3.516-5.797c0.35-1.498,0.67-2.982,0.666-4.541
		c-0.004-2.688-0.73-5.137-2.166-7.385c-1.051-1.646-2.098-3.293-3.166-4.928C22.458,9.977,22.159,9.68,22.276,9.236z"/>
	<path fill="#DAE9FE" d="M63.352,66.379c-0.514-0.439-0.285-1.09-0.428-1.633c-0.086-0.332-0.119-0.695-0.199-1.041
		c0.838-0.375,1.029-0.732,0.906-1.635c-1.031-7.625-2.062-15.252-3.094-22.879c-0.148-1.107-0.293-2.217-0.461-3.322
		c-0.059-0.387,0.033-0.676,0.277-0.994c2.045-2.662,2.66-5.633,1.867-8.898c-0.281-1.16-0.65-2.303-0.775-3.496
		c-0.096-0.926,0.018-1.838,0.486-2.645c1.346-2.309,2.979-4.428,4.465-6.738c0.479,1.135,0.42,2.238,0.512,3.309
		c0.562,6.559,1.086,13.119,1.631,19.68c0.545,6.533,1.104,13.066,1.652,19.598c0.223,2.645,0.43,5.291,0.67,7.934
		c0.045,0.502-0.084,0.791-0.529,1.062c-1.934,1.166-3.842,2.375-5.836,3.615C64.316,67.506,64.371,66.592,63.352,66.379z"/>
	<path fill="#DAE9FE" d="M20.532,68.318c-2.1-1.312-4.098-2.572-6.111-3.803c-0.359-0.223-0.299-0.504-0.273-0.807
		c0.227-2.803,0.453-5.604,0.688-8.404c0.395-4.721,0.791-9.439,1.188-14.16c0.451-5.369,0.9-10.738,1.348-16.107
		c0.283-3.371,0.562-6.744,0.836-10.115c0.049-0.594,0.105-1.182,0.396-1.812c1.479,2.207,2.959,4.342,4.354,6.529
		c0.688,1.072,0.752,2.311,0.49,3.547c-0.271,1.27-0.639,2.521-0.859,3.799c-0.504,2.902,0.232,5.518,2.014,7.84
		c0.277,0.361,0.375,0.695,0.314,1.137c-0.977,7.111-1.945,14.225-2.91,21.338C21.512,60.936,21.032,64.57,20.532,68.318z"/>
	<path fill="#8AB2E9" d="M58.025,38.281c-0.16-0.268-0.354-0.195-0.588-0.092c-1.939,0.859-3.99,1.045-6.082,1.035
		c-3.488-0.021-6.977-0.01-10.464-0.004c-4.689,0.004-9.428,3.322-11.125,7.715c-0.654,1.689-0.859,3.453-1.09,5.223
		c-0.328,2.51-0.678,5.018-1.01,7.527c-0.293,2.201-0.574,4.404-0.863,6.605c-0.275,2.102-0.555,4.201-0.836,6.301
		c-0.119,0.896-0.289,1.787-0.262,2.701c0.037,1.234,1,2.207,2.252,2.209c11.508,0.004,23.013,0.002,34.521,0.006
		c0.377,0,0.756,0.039,0.75-0.51c0.092,0.586,0.229,1.17,0.268,1.76c0.047,0.73-0.479,1.303-1.199,1.387
		c-0.232,0.027-0.469,0.014-0.703,0.014c-12.729,0-25.455,0-38.181,0c-1.648,0-2.053-0.512-1.826-2.16
		c0.766-5.59,1.504-11.184,2.26-16.773c0.809-5.977,1.625-11.953,2.436-17.93c0.234-1.727,0.457-3.455,0.689-5.18
		c0.041-0.303,0.1-0.602,0.152-0.918c2.035,0.914,2.613,0.744,2.781-0.777c0.199-0.178,0.439-0.156,0.666-0.107
		c1.055,0.227,2.123,0.154,3.188,0.156c6.084,0.004,12.167,0.002,18.25,0.002c0.779,0,1.561,0.018,2.332-0.145
		c0.25-0.051,0.516-0.096,0.75,0.084c0.135,1.494,0.67,1.65,2.795,0.799C57.932,37.57,57.979,37.926,58.025,38.281z"/>
	<path fill="#A3CBFE" d="M55.09,36.408c-0.807,0.197-1.613,0.322-2.453,0.32c-6.654-0.016-13.31-0.018-19.964,0
		c-0.941,0.002-1.857-0.096-2.768-0.312c-0.199-0.439-0.527-0.729-0.957-0.963c-3.299-1.811-4.775-5.166-3.906-8.82
		c0.199-0.834,0.391-1.668,0.598-2.496c0.588-2.352,0.221-4.521-1.16-6.527c-1.428-2.072-2.812-4.176-4.254-6.24
		c-0.311-0.441-0.287-0.691,0.125-1.006c0.598-0.457,1.186-0.92,1.928-1.127c1.404,2.207,2.857,4.389,4.201,6.633
		c1.078,1.801,1.643,3.793,1.734,5.902c0.072,1.721-0.086,3.408-0.584,5.068c-1.018,3.396,1.406,5.859,4.055,6.012
		c0.641,0.037,1.287,0.113,1.932,0.113c8.402,0.004,16.8,0.004,25.201,0.002c-0.645,1.098-1.6,1.867-2.701,2.455
		C55.666,35.66,55.285,35.928,55.09,36.408z"/>
	<path fill="#8AB2E9" d="M33.227,10.486c-0.439-0.648-1.131-1.072-1.543-1.748c-0.111-0.182-0.328-0.119-0.502-0.152
		c0.93-0.561,1.041-0.949,0.619-1.982c-0.533-1.309-0.535-1.043,0.668-1.363c0.494-0.131,1-0.273,1.525-0.225
		c0.484,0.51,0.68,1.205,1.158,1.736c1.42,1.582,3.215,2.424,5.266,2.773c2.383,0.408,4.697,0.189,6.9-0.865
		c1.422-0.682,2.555-1.672,3.275-3.096c0.107-0.211,0.238-0.4,0.428-0.547c0.346-0.064,0.672,0.053,0.998,0.129
		c1.721,0.41,1.979-0.035,0.898,1.967c-1.553,2.875-4.184,4.357-7.264,5.041c-3.732,0.832-7.291,0.322-10.542-1.791
		C34.42,9.912,33.819,9.898,33.227,10.486z"/>
	<path fill="#A3CBFE" d="M51.021,5.018c-0.689,2.059-2.215,3.324-4.143,4.057c-3.613,1.373-7.169,1.221-10.468-0.936
		c-1.125-0.736-2.115-1.695-2.418-3.125c0.635-0.17,1.285-0.166,1.934-0.166c4.387-0.004,8.773-0.004,13.162,0
		C49.736,4.848,50.387,4.85,51.021,5.018z"/>
	<path fill="#8AB2E9" d="M42.499,15.699c1.773,2.521,1.777,7.207,0.008,9.758C40.729,23.08,40.725,18.164,42.499,15.699z"/>
	<path fill="#DAE9FE" d="M13.858,66.92c2.096,1.309,4.07,2.539,6.045,3.768c0.203,0.127,0.258,0.285,0.225,0.52
		c-0.09,0.617-0.164,1.236-0.227,1.855c-0.047,0.475-0.244,0.406-0.545,0.199c-1.289-0.873-2.6-1.715-3.875-2.605
		C14.249,69.795,13.76,68.566,13.858,66.92z"/>
	<path fill="#DAE9FE" d="M71.133,66.922c0.104,1.512-0.279,2.709-1.371,3.529c-1.35,1.012-2.787,1.902-4.182,2.855
		c-0.32,0.221-0.467,0.16-0.48-0.227c-0.002-0.053,0.004-0.107-0.014-0.154c-0.537-1.551,0.008-2.482,1.484-3.203
		C68.119,68.965,69.529,67.922,71.133,66.922z"/>
</g>
</svg>
