<?xml version="1.0" encoding="utf-8"?>
<!-- Generator: Adobe Illustrator 16.0.0, SVG Export Plug-In . SVG Version: 6.00 Build 0)  -->
<!DOCTYPE svg PUBLIC "-//W3C//DTD SVG 1.1//EN" "http://www.w3.org/Graphics/SVG/1.1/DTD/svg11.dtd">
<svg version="1.1" id="Layer_1" xmlns="http://www.w3.org/2000/svg" xmlns:xlink="http://www.w3.org/1999/xlink" x="0px" y="0px"
	 width="85px" height="85px" viewBox="0 0 85 85" enable-background="new 0 0 85 85" xml:space="preserve">
<g>
	<polygon fill="#FAE393" points="10.63,29.049 9.899,29.973 5.794,27.048 6.052,26.676 	"/>
	<polygon fill="#FAE393" points="9.464,30.522 8.718,31.465 5.024,28.161 5.396,27.624 	"/>
	<path fill="#FAE393" d="M14.632,31.622l0.41,2.507l-2.79,2.937L7.842,35.23l-4.445-4.719l0.335-0.484l3.957,3.908l0.491-0.499
		l-4.043-3.993l0.487-0.703l3.659,3.274l-0.438,0.554l2.759,0.708l0.255-0.312c0.257,1.334,1.692,2.474,1.757,2.525l0.432-0.55
		c-0.406-0.318-1.47-1.351-1.527-2.296c-0.015-0.263,0.048-0.501,0.189-0.725l0.512-0.628l-0.542-0.441l-0.259,0.319
		c-0.111,0.112-0.206,0.229-0.286,0.35l-0.79,0.972l-1.283-0.329l2.402-3.035L14.632,31.622z"/>
	<path fill="#769CC1" d="M39.619,15.803v1.185h-3.644h-0.131c-0.353-0.515-1.516-2.004-3.143-2.004h-5.539l0.047-0.335
		c0.225-1.569,1.589-2.752,3.173-2.752h5.33C37.867,11.897,39.619,13.649,39.619,15.803z"/>
	<path fill="#4270A4" d="M34.962,16.988h-4.625c-0.402,0-0.788-0.154-1.085-0.426c-0.292-0.269-0.695-0.593-1.191-0.878h4.641
		C33.691,15.684,34.507,16.447,34.962,16.988z"/>
	<path fill="#FAE393" d="M40.246,17.996c0.533,0.327,0.708,1.195,0.435,2.161c-0.568,2.008-3.005,2.02-3.005,2.02l0.097,2.249
		l-4.582,4.065h-2.363l-3.062-2.089v-8.714v-1.049c0,0,0.479,0.17,0.938,0.618c0.287,0.281,0.675,0.431,1.076,0.431h5.566
		c0.264,1.673,1.339,2.73,1.388,2.778l0.364,0.352l0.909-2.106C38.866,17.93,39.7,17.663,40.246,17.996z"/>
	<path fill="#769CC1" d="M35.526,29.584l1.867,1.217c-1.09,0.939-1.127,2.239-1.032,2.996c-1.192-0.591-1.945-1.557-2.418-2.481
		c-0.182-0.356-0.323-0.706-0.432-1.026c-0.15-0.445-0.238-0.833-0.287-1.099h0.232l0.62-0.55l0.591,0.385L35.526,29.584z"/>
	<path fill="#FAE393" d="M40.502,23.556l0.329,0.25c-0.04,0.316-0.09,0.617-0.145,0.909c-0.349,1.839-0.978,3.201-1.563,4.143
		c-0.232,0.372-0.458,0.679-0.657,0.923c-0.233,0.288-0.432,0.49-0.561,0.613l-1.955-1.274l-0.858-0.559l-0.535-0.349l3.952-3.505
		l-0.244-2.065c0.267-0.004,0.567-0.041,0.876-0.122L40.502,23.556z"/>
	<path fill="#769CC1" d="M43.059,22.753c1.442,3.16,0.099,6.431-0.304,7.281c-1.089-0.247-2.168-0.189-3.039-0.047
		c-0.263,0.044-0.506,0.094-0.726,0.146c0.148-0.182,0.306-0.393,0.469-0.634c0.375-0.555,0.775-1.27,1.127-2.163
		c0.352-0.892,0.654-1.962,0.831-3.226c0.02-0.134,0.036-0.27,0.053-0.408l0.021-0.176l-0.496-0.377l-1.168-0.89
		c0.329-0.168,0.645-0.403,0.912-0.722l1.512,0.573l0.603,0.228C42.927,22.475,42.995,22.614,43.059,22.753z"/>
	<polygon fill="#BAB8B9" points="66.128,29.884 67.309,31.152 65.25,33.543 65.91,35.745 64.46,37.431 63.017,37.209 64.527,35.456 
		63.933,33.754 62.162,33.419 60.652,35.173 60.219,33.78 61.669,32.095 63.945,32.42 	"/>
	<polygon fill="#BAB8B9" points="75.674,22.508 76.106,23.901 74.655,25.586 72.381,25.261 71.086,26.765 69.702,25.732 
		71.076,24.138 70.415,21.936 71.866,20.25 73.309,20.472 71.798,22.226 72.393,23.927 74.164,24.262 	"/>
	<polygon fill="#FAE393" points="71.944,28.278 68.853,33.058 67.11,32.455 67.788,31.667 68.248,32.162 68.761,31.685 
		68.248,31.134 67.769,30.619 66.588,29.351 66.108,28.836 65.697,28.396 65.187,28.872 65.648,29.369 64.845,30.303 63.993,27.171 
		66.675,24.349 68.683,25.845 69.245,26.264 70.628,27.296 71.19,27.715 	"/>
	<path fill="#769CC1" d="M65.779,23.824l-2.302,2.422l-9.41-6.066l-5.237,5.722l-0.689,0.753l0.646,0.791l7.431,9.102
		c-0.446,1.11-0.989,2.062-1.573,2.877c-0.203,0.283-0.41,0.55-0.619,0.799c-0.923,1.101-1.894,1.894-2.712,2.444
		c-1.38,0.929-2.58,1.351-3.015,1.486L37.47,38.632l-0.981-0.5l-3.403-1.735l2.555,2.437l-10.704,8.853L13.224,37.51l2.302-2.422
		l9.411,6.067l8.555-9.348c0.746,1.349,1.836,2.311,3.185,2.799c0,0-0.224-2.325,1.264-3.447l0.01,0.006l0.14-0.108
		c0.104-0.04,0.43-0.16,0.9-0.278c0.294-0.076,0.646-0.149,1.033-0.205c0.363-0.051,0.758-0.084,1.169-0.084
		c0.534,0,1.095,0.057,1.648,0.206l0.234,0.064l0.118-0.213c0.025-0.046,0.624-1.137,0.946-2.742
		c0.396-1.969,0.191-3.845-0.588-5.459l10.515-8.697L65.779,23.824z"/>
	<path fill="#B98357" d="M65.357,65.449l-2.401,7.343h-2.317l1.183-0.822l-0.262-5.767l-16.063-7.302l5.549-12.062l0.424-0.92
		l0.966-2.102l-1.851,1.606l-1.112-0.622c0.496-0.204,1.126-0.504,1.824-0.926c0.174-0.104,0.351-0.217,0.532-0.338
		c0.003-0.002,0.007-0.004,0.011-0.007c0.906-0.606,1.985-1.485,3.004-2.712c0.209-0.251,0.415-0.519,0.617-0.8
		c0.548-0.765,1.062-1.641,1.504-2.644l4.283,4.579l-0.996,1.547l-0.548,0.852l-2.922,4.537l-0.549,0.852l-4.971,7.72L65.357,65.449
		z"/>
	<polygon fill="#B98357" points="81.45,37.746 81.326,39.931 80.565,38.833 74.793,38.769 66.602,54.384 57.664,49.386 
		60.521,44.948 65.484,48.556 74.256,34.935 	"/>
	<polygon fill="#4270A4" points="14.149,36.049 24.926,44.659 33.086,36.396 36.273,38.847 24.978,48.329 12.698,37.431 	"/>
	<path fill="#4270A4" d="M35.153,11.703L35.153,11.703c1.126,0,2.04,0.914,2.04,2.041v3.653h2.662l-0.077-2.954l-1.982-2.292
		C37.795,12.15,35.949,11.645,35.153,11.703z"/>
	<path fill="#4270A4" d="M36.83,33.912l1.619,0.673c0,0-0.699-1.295-0.22-2.396c0.479-1.101,1.502-1.632,1.502-1.632h-1.645
		l-1.257,1.463V33.912z"/>
	<path fill="#4270A4" d="M37.128,31.412l-2.5-1.749c0,0-1.023,0.246-1.062,1.153s-0.674-1.891-0.674-1.891l1.295-0.583l3.507,2.325
		L37.128,31.412z"/>
	<polygon fill="#745753" points="55.755,38.873 58.683,42.085 49.071,58.019 62.231,65.272 63.268,63.666 51.559,57.396 
		56.999,49.469 58.604,46.93 66.015,51.386 74.253,38.173 72.336,36.93 65.357,47.914 60.219,43.873 61.869,42.111 56.856,36.671 	
		"/>
	<path fill="#EBA663" d="M27.478,18.523h6.81v7.933l-1.396,1.315h-2.009l-3.117-1.37l1.81,1.37l1.516,1.127l2.132-0.123l0.964-0.434
		l0.775,0.557l3.085-2.72l1.807,1.904l1.264-3.537v-0.835l-1.827-1.457c0,0,1.788-1.088,1.827-2.604
		c0.038-1.516-1.264-2.254-1.264-2.254l-2.462,0.816l-1.599-0.816h-5.946l-2.37-1.205V18.523z"/>
	<polygon fill="#4270A4" points="54.067,20.18 45.496,27.292 55.427,39.469 56.856,36.671 48.449,26.765 	"/>
	<path fill="#4270A4" d="M54.045,13.044l-10.334,8.493l0,0l-0.779,0.522l-2.358-0.829l-1.071,0.933l1.046,1.036l0.942,0.327
		c0,0,1.233,0.684,1.337,2.309c0.104,1.625-0.933,4.298-0.933,4.298l1.166,0.139l0.312-0.505c0.388,0.052,1.321,0.367,1.321,0.367
		c1.677-2.75,1.413-5.282,0.856-6.978l8.547-7.21l11.261,9.067l1.175-1.243L54.045,13.044z"/>
	<polygon fill="#EBA663" points="65.187,28.872 64.395,29.824 64.791,30.822 66.027,29.365 	"/>
	<polygon fill="#EBA663" points="65.366,25.207 70.263,28.872 68.761,31.685 67.814,31.347 66.668,32.474 68.786,33.484 
		72.361,28.141 66.532,24.002 	"/>
	<polygon fill="#EBA663" points="5.794,26.791 10.486,29.589 9.767,30.278 5.561,27.16 	"/>
	<polygon fill="#EBA663" points="5.024,27.762 9.398,31.075 8.611,31.823 4.628,28.258 	"/>
	<polygon fill="#EBA663" points="4.123,28.74 8.611,32.903 8.18,33.436 7.523,33.271 3.851,29.544 	"/>
	<polygon fill="#EBA663" points="3.397,30.045 7.426,34.165 7.842,35.23 6.552,34.203 3.151,30.57 	"/>
	<path fill="#EBA663" d="M9.628,32.474l2.06-2.565l1.536,1.283c0,0-1.538,1.885-0.177,3.747l-0.349,0.191l-1.088-1.813l-0.492-1.179
		l-0.631,0.5H9.628V32.474z"/>
	<path fill="#0F173E" d="M39.649,18.489c-0.714,0.113-1.348,1.54-1.348,1.54h0.368c0.253,0,0.458,0.205,0.458,0.458l0,0
		c0,0.253-0.205,0.458-0.458,0.458h-0.447v0.317h0.708c0.429,0,0.775-0.347,0.775-0.774l0,0c0-0.428-0.347-0.775-0.775-0.775h-0.04
		c0,0,0.306-0.771,0.713-0.828c0.408-0.057,0.431,0.679,0.431,0.679S40.362,18.376,39.649,18.489z"/>
	<rect x="27.342" y="18.348" fill="#0F173E" width="2.558" height="0.758"/>
	<rect x="31.403" y="18.348" fill="#0F173E" width="3.264" height="0.758"/>
	<g>
		<ellipse fill="#0F173E" cx="33.526" cy="20.466" rx="0.709" ry="0.933"/>
		<circle fill="#FFFFFF" cx="33.798" cy="20.146" r="0.228"/>
	</g>
	<g>
		<ellipse fill="#0F173E" cx="29.053" cy="20.466" rx="0.581" ry="0.764"/>
		<circle fill="#FFFFFF" cx="29.276" cy="20.204" r="0.187"/>
	</g>
	<g>
		<polygon fill="#0F173E" points="33.141,25.415 28.903,25.415 28.229,24.073 28.715,23.829 29.238,24.871 32.818,24.871 
			33.395,23.82 33.872,24.082 		"/>
	</g>
	<polygon fill="#999597" points="72.393,23.927 71.759,23.927 71.118,21.982 72.847,20.097 73.722,20.25 72.089,22.195 	"/>
	<polygon fill="#999597" points="60.334,34.767 61.966,32.901 63.764,33.212 63.933,33.754 62.287,33.834 60.587,35.631 	"/>
	<polygon fill="#F2F0F1" points="60.219,34.326 61.83,32.371 64.148,32.707 65.966,30.617 65.693,30.255 63.933,32.034 
		61.377,31.749 59.913,33.658 	"/>
	<polygon fill="#F2F0F1" points="71.076,24.138 71.325,23.847 70.769,22.012 72.283,20.168 71.727,20.097 70.068,21.885 
		70.716,24.249 	"/>
	<polygon fill="#F2F0F1" points="70.794,23.808 71.325,23.847 71.455,24.249 70.664,25.227 70.095,24.961 	"/>
	<path fill="#999597" d="M70.107,24.78l1.341,0.816l0.913-0.816l2.118,0.272l1.204-1.302l-0.369-1.146l0.506-0.719l0.602,2.118
		c0,0-1.496,1.865-1.554,1.885c-0.059,0.02-2.352-0.155-2.352-0.155l-1.224,1.496l-2.021-1.477L70.107,24.78z"/>
	<polygon fill="#999597" points="65.464,30.123 66.532,31.328 64.693,33.484 65.366,35.635 63.604,37.707 64.395,37.707 
		66.273,35.79 65.779,33.484 67.595,31.127 66.027,29.365 	"/>
	<path fill="#0F173E" d="M73.853,33.693L65.214,47.11l-4.145-3.013l1.454-2.257l-5.349-5.716l-7.699-9.431l4.762-5.202l9.078,5.852
		l0.979,3.6l-0.63,0.731l-2.275-0.326l-1.954,2.27l0.923,2.969l2.07-2.405l0.977,0.185l0.328,0.938l-2.07,2.405l3.074,0.471
		l1.953-2.27l-0.66-2.202l0.589-0.685l2.522,0.873l3.746-5.79l-1.24-0.925l1.013-1.176l2.276,0.326l1.954-2.27l-0.924-2.969
		l-2.07,2.404l-0.978-0.185l-0.327-0.938l2.07-2.405L71.589,19.5l-1.954,2.27l0.661,2.202l-1.156,1.342l-1.979-1.476L54.082,12.323
		l-11.28,9.331l-1.709-0.646c0.104-0.198,0.192-0.416,0.262-0.659c0.365-1.292,0.073-2.449-0.744-2.949
		c-0.094-0.058-0.19-0.104-0.292-0.14v-1.456c0-2.543-2.062-4.605-4.605-4.605h-5.33c-1.93,0-3.592,1.441-3.866,3.353l-0.062,0.434
		h-1.144v0.009c-1.353,0.083-2.665,0.79-3.901,2.105c-0.21,0.223-0.051,0.589,0.255,0.589h5.401v9.084l3.545,2.419h1.979
		c0.058,0.347,0.183,0.94,0.442,1.621l-8.266,9.031l-9.034-5.823l-0.456-2.779l-3.929-3.098l-0.276,0.348l-5.246-2.718L2.5,30.578
		l4.935,5.242l4.417,1.838l13.069,11.354l11.701-9.677l11.385,5.807l2.153,1.205L44.366,58.94l-0.212,0.462l16.425,7.465
		l0.203,4.493l-3.162,2.441h6.069l2.885-8.823L52.69,57.11l4.426-6.874l9.898,5.535L75.4,39.785l4.497,0.05l2.272,3.08l0.33-5.844
		L73.853,33.693z M65.25,33.543l0.66,2.202l-1.45,1.686l-1.443-0.222l1.511-1.754l-0.595-1.702l-1.771-0.335l-1.51,1.754
		l-0.434-1.394l1.45-1.685l2.276,0.326l2.183-2.536l1.181,1.268L65.25,33.543z M71.076,24.138l-0.661-2.202l1.451-1.686l1.442,0.222
		l-1.511,1.754l0.595,1.701l1.771,0.335l1.51-1.754l0.433,1.394l-1.451,1.685l-2.274-0.326l-1.295,1.504l-1.384-1.032L71.076,24.138
		z M68.683,25.845l0.562,0.419l1.383,1.032l0.562,0.419l0.754,0.562l-3.092,4.78l-1.742-0.603l0.678-0.787l0.46,0.494l0.513-0.477
		l-0.513-0.551l-0.479-0.516l-1.181-1.268l-0.479-0.515l-0.411-0.44l-0.511,0.476l0.462,0.498l-0.804,0.934l-0.852-3.131
		l2.682-2.823L68.683,25.845z M42.25,22.11l0.603,0.228c0.074,0.137,0.143,0.276,0.206,0.415c1.442,3.16,0.099,6.431-0.304,7.281
		c-1.089-0.247-2.168-0.189-3.039-0.047c-0.263,0.044-0.506,0.094-0.726,0.146c0.148-0.182,0.306-0.393,0.469-0.634
		c0.375-0.555,0.775-1.27,1.127-2.163c0.352-0.892,0.654-1.962,0.831-3.226c0.02-0.134,0.036-0.27,0.053-0.408l0.021-0.176
		l-0.496-0.377l-1.168-0.89c0.329-0.168,0.645-0.403,0.912-0.722L42.25,22.11z M36.36,33.797c-1.192-0.591-1.945-1.557-2.418-2.481
		c-0.182-0.356-0.323-0.706-0.432-1.026c-0.15-0.445-0.238-0.833-0.287-1.099h0.232l0.62-0.55l0.591,0.385l0.858,0.559l1.867,1.217
		C36.302,31.74,36.266,33.04,36.36,33.797z M35.951,29.12l-0.858-0.559l-0.535-0.349l3.952-3.505l-0.244-2.065
		c0.267-0.004,0.567-0.041,0.876-0.122l1.36,1.036l0.329,0.25c-0.04,0.316-0.09,0.617-0.145,0.909
		c-0.349,1.839-0.978,3.201-1.563,4.143c-0.232,0.372-0.458,0.679-0.657,0.923c-0.233,0.288-0.432,0.49-0.561,0.613L35.951,29.12z
		 M27.209,14.649c0.225-1.569,1.589-2.752,3.173-2.752h5.33c2.153,0,3.906,1.752,3.906,3.906v1.185h-3.644h-0.131
		c-0.353-0.515-1.516-2.004-3.143-2.004h-5.539L27.209,14.649z M34.962,16.988h-4.625c-0.402,0-0.788-0.154-1.085-0.426
		c-0.292-0.269-0.695-0.593-1.191-0.878h4.641C33.691,15.684,34.507,16.447,34.962,16.988z M30.828,28.491l-3.062-2.089v-8.714
		v-1.049c0,0,0.479,0.17,0.938,0.618c0.287,0.281,0.675,0.431,1.076,0.431h5.566c0.1,0.631,0.314,1.174,0.546,1.608v2.589h1.206
		v-1.068c0,0,1.223-3.524,3.149-2.821c0.588,0.215,0.708,1.195,0.435,2.161c-0.568,2.008-3.005,2.02-3.005,2.02l0.097,2.249
		l-4.582,4.065H30.828z M6.052,26.676l4.579,2.373l-0.731,0.924l-4.105-2.925L6.052,26.676z M5.396,27.624l4.068,2.899l-0.747,0.943
		l-3.693-3.305L5.396,27.624z M7.842,35.23l-4.445-4.719l0.335-0.484l3.957,3.908l0.491-0.499l-4.043-3.993l0.487-0.703l3.659,3.274
		l-0.438,0.554l2.759,0.708l0.255-0.312c0.257,1.334,1.692,2.474,1.757,2.525l0.432-0.55c-0.406-0.318-1.47-1.351-1.527-2.296
		c-0.015-0.263,0.048-0.501,0.189-0.725l0.512-0.628l-0.542-0.441l-0.259,0.319c-0.11,0.112-0.206,0.229-0.286,0.35l-0.79,0.972
		l-1.283-0.329l2.402-3.035l3.169,2.498l0.41,2.507l-2.79,2.937L7.842,35.23z M37.47,38.632l-0.981-0.5l-3.403-1.735l2.555,2.437
		l-10.704,8.853L13.224,37.51l2.302-2.422l9.411,6.067l8.555-9.348c0.746,1.349,1.719,2.624,3.559,2.896c0,0-0.598-2.421,0.89-3.543
		l0.149-0.103c0.104-0.04,0.43-0.16,0.9-0.278c0.294-0.076,0.646-0.149,1.033-0.205c0.363-0.051,0.758-0.084,1.169-0.084
		c0.534,0,1.095,0.057,1.648,0.206l0.234,0.064l0.118-0.213c0.025-0.046,0.624-1.137,0.946-2.742
		c0.396-1.969,0.191-3.845-0.588-5.459l10.515-8.697l11.713,10.176l-2.302,2.422l-9.41-6.066l-5.237,5.722l-0.689,0.753l0.646,0.791
		l7.431,9.102c-0.446,1.11-0.989,2.062-1.573,2.877c-0.203,0.283-0.41,0.55-0.619,0.799c-0.923,1.101-1.894,1.894-2.712,2.444
		c-1.38,0.929-2.58,1.351-3.015,1.486L37.47,38.632z M56.781,48.891l-0.549,0.852l-4.971,7.72l10.937,6.197l-1.695,2.063
		l-15.007-6.821l5.549-12.062l0.424-0.92l0.966-2.102l-1.851,1.606l-1.112-0.622c0.496-0.204,1.126-0.504,1.824-0.926
		c0.174-0.104,0.351-0.217,0.532-0.338c0.003-0.002,0.007-0.004,0.011-0.007c0.906-0.606,1.985-1.485,3.004-2.712
		c0.209-0.251,0.415-0.519,0.617-0.8c0.548-0.765,1.062-1.641,1.504-2.644l4.283,4.579l-0.996,1.547l-0.548,0.852L56.781,48.891z
		 M66.602,54.384l-8.938-4.998l2.857-4.438l4.963,3.607l6.896-10.708l2.167,1.391L66.602,54.384z"/>
</g>
</svg>
