<?xml version="1.0" encoding="utf-8"?>
<!-- Generator: Adobe Illustrator 16.0.0, SVG Export Plug-In . SVG Version: 6.00 Build 0)  -->
<!DOCTYPE svg PUBLIC "-//W3C//DTD SVG 1.1//EN" "http://www.w3.org/Graphics/SVG/1.1/DTD/svg11.dtd">
<svg version="1.1" id="Layer_1" xmlns="http://www.w3.org/2000/svg" xmlns:xlink="http://www.w3.org/1999/xlink" x="0px" y="0px"
	 width="85px" height="85px" viewBox="0 0 85 85" enable-background="new 0 0 85 85" xml:space="preserve">
<g>
	<path fill="#29AAE1" d="M2.5,2.5h80v80h-80V2.5z"/>
	<circle fill="#46C2EE" cx="42.5" cy="42.5" r="26.6"/>
	<g>
		
			<linearGradient id="SVGID_1_" gradientUnits="userSpaceOnUse" x1="-107.3765" y1="50.8555" x2="-77.2729" y2="50.8555" gradientTransform="matrix(1 0 0 -1 119.1948 114.8047)">
			<stop  offset="0" style="stop-color:#FFFFFF;stop-opacity:0"/>
			<stop  offset="1" style="stop-color:#F4EC3F"/>
		</linearGradient>
		<polyline fill="url(#SVGID_1_)" points="12.756,67.471 41.922,60.427 11.818,62.793 		"/>
		
			<linearGradient id="SVGID_2_" gradientUnits="userSpaceOnUse" x1="-42.8926" y1="-429.9648" x2="-12.8027" y2="-429.9648" gradientTransform="matrix(0.8191 0.5737 0.5737 -0.8191 297.3174 -281.8838)">
			<stop  offset="0" style="stop-color:#FFFFFF;stop-opacity:0"/>
			<stop  offset="1" style="stop-color:#F4EC3F"/>
		</linearGradient>
		<polyline fill="url(#SVGID_2_)" points="14.57,48.926 41.988,60.344 16.332,44.523 		"/>
		
			<linearGradient id="SVGID_3_" gradientUnits="userSpaceOnUse" x1="-42.3447" y1="-422.876" x2="-12.8672" y2="-422.876" gradientTransform="matrix(0.8191 0.5737 0.5737 -0.8191 297.3174 -281.8838)">
			<stop  offset="0" style="stop-color:#FFFFFF;stop-opacity:0"/>
			<stop  offset="1" style="stop-color:#F4EC3F"/>
		</linearGradient>
		<polyline fill="url(#SVGID_3_)" points="19.469,41.001 41.988,60.233 22.551,37.314 		"/>
		
			<linearGradient id="SVGID_4_" gradientUnits="userSpaceOnUse" x1="-40.6846" y1="-418.3198" x2="-12.9922" y2="-418.3198" gradientTransform="matrix(0.8191 0.5737 0.5737 -0.8191 297.3174 -281.8838)">
			<stop  offset="0" style="stop-color:#FFFFFF;stop-opacity:0"/>
			<stop  offset="1" style="stop-color:#F4EC3F"/>
		</linearGradient>
		<polyline fill="url(#SVGID_4_)" points="26.236,34.232 41.988,60.014 30.42,31.921 		"/>
		
			<linearGradient id="SVGID_5_" gradientUnits="userSpaceOnUse" x1="-35.416" y1="-414.7324" x2="-12.7617" y2="-414.7324" gradientTransform="matrix(0.8191 0.5737 0.5737 -0.8191 297.3174 -281.8838)">
			<stop  offset="0" style="stop-color:#FFFFFF;stop-opacity:0"/>
			<stop  offset="1" style="stop-color:#F4EC3F"/>
		</linearGradient>
		<polyline fill="url(#SVGID_5_)" points="35.098,30.766 42.154,60.179 39.775,29.665 		"/>
		
			<linearGradient id="SVGID_6_" gradientUnits="userSpaceOnUse" x1="-95.3965" y1="-294.2788" x2="-66.4199" y2="-294.2788" gradientTransform="matrix(0.9094 0.4159 0.4159 -0.9094 222.3856 -175.0217)">
			<stop  offset="0" style="stop-color:#FFFFFF;stop-opacity:0"/>
			<stop  offset="1" style="stop-color:#F4EC3F"/>
		</linearGradient>
		<polyline fill="url(#SVGID_6_)" points="12.094,58.006 41.715,60.33 13.029,53.383 		"/>
		
			<linearGradient id="SVGID_7_" gradientUnits="userSpaceOnUse" x1="1721.1953" y1="50.8555" x2="1751.2969" y2="50.8555" gradientTransform="matrix(-1 0 0 -1 1793.7266 114.8047)">
			<stop  offset="0" style="stop-color:#FFFFFF;stop-opacity:0"/>
			<stop  offset="1" style="stop-color:#F4EC3F"/>
		</linearGradient>
		<polyline fill="url(#SVGID_7_)" points="71.596,67.471 42.43,60.427 72.531,62.793 		"/>
		
			<linearGradient id="SVGID_8_" gradientUnits="userSpaceOnUse" x1="1454.8545" y1="619.0254" x2="1484.9434" y2="619.0254" gradientTransform="matrix(-0.8191 0.5737 -0.5737 -0.8191 1615.6025 -281.8838)">
			<stop  offset="0" style="stop-color:#FFFFFF;stop-opacity:0"/>
			<stop  offset="1" style="stop-color:#F4EC3F"/>
		</linearGradient>
		<polyline fill="url(#SVGID_8_)" points="69.779,48.926 42.361,60.344 68.018,44.523 		"/>
		
			<linearGradient id="SVGID_9_" gradientUnits="userSpaceOnUse" x1="1455.4014" y1="626.1152" x2="1484.8818" y2="626.1152" gradientTransform="matrix(-0.8191 0.5737 -0.5737 -0.8191 1615.6025 -281.8838)">
			<stop  offset="0" style="stop-color:#FFFFFF;stop-opacity:0"/>
			<stop  offset="1" style="stop-color:#F4EC3F"/>
		</linearGradient>
		<polyline fill="url(#SVGID_9_)" points="64.883,41.001 42.361,60.233 61.801,37.314 		"/>
		
			<linearGradient id="SVGID_10_" gradientUnits="userSpaceOnUse" x1="1457.0625" y1="630.6709" x2="1484.7539" y2="630.6709" gradientTransform="matrix(-0.8191 0.5737 -0.5737 -0.8191 1615.6025 -281.8838)">
			<stop  offset="0" style="stop-color:#FFFFFF;stop-opacity:0"/>
			<stop  offset="1" style="stop-color:#F4EC3F"/>
		</linearGradient>
		<polyline fill="url(#SVGID_10_)" points="58.113,34.232 42.361,60.014 53.93,31.921 		"/>
		
			<linearGradient id="SVGID_11_" gradientUnits="userSpaceOnUse" x1="1462.3301" y1="634.2578" x2="1484.9854" y2="634.2578" gradientTransform="matrix(-0.8191 0.5737 -0.5737 -0.8191 1615.6025 -281.8838)">
			<stop  offset="0" style="stop-color:#FFFFFF;stop-opacity:0"/>
			<stop  offset="1" style="stop-color:#F4EC3F"/>
		</linearGradient>
		<polyline fill="url(#SVGID_11_)" points="49.254,30.766 42.195,60.179 44.574,29.665 		"/>
		
			<linearGradient id="SVGID_12_" gradientUnits="userSpaceOnUse" x1="1567.5361" y1="466.2383" x2="1596.5127" y2="466.2383" gradientTransform="matrix(-0.9094 0.4159 -0.4159 -0.9094 1690.5344 -175.0217)">
			<stop  offset="0" style="stop-color:#FFFFFF;stop-opacity:0"/>
			<stop  offset="1" style="stop-color:#F4EC3F"/>
		</linearGradient>
		<polyline fill="url(#SVGID_12_)" points="72.256,58.006 42.635,60.33 71.32,53.383 		"/>
	</g>
	<path fill="#F1A120" d="M15.451,55.409h17.863v14.459H15.451V55.409z"/>
	<path fill="#FAA625" d="M33.314,52.493h17.861v17.375H33.314V52.493z"/>
	<path fill="#DF9526" d="M51.176,57.839h17.863v12.029H51.176V57.839z"/>
	<path fill="#FEE606" d="M42.244,55.409c-2.391,0-4.338,2.109-4.338,4.709c0,2.598,1.947,4.698,4.338,4.698
		c2.395,0,4.34-2.102,4.34-4.698C46.584,57.52,44.639,55.409,42.244,55.409z M41.34,63.212l0.34-4.534l-1.068,0.739l-0.459-0.242
		l1.645-1.731h1.41l0.225,5.77L41.34,63.212L41.34,63.212z M25.018,57.936c-2.393,0-4.338,2.11-4.338,4.707
		c0,2.599,1.945,4.7,4.338,4.7s4.338-2.103,4.338-4.7C29.355,60.047,27.41,57.936,25.018,57.936L25.018,57.936z M26.633,64.365
		v0.904l-3.461-0.099l0.115-1.106c0,0,2.666-1.08,2.695-2.229c0.047-1.401-1.75-1.323-1.85-0.438l-0.961-0.021
		c-0.078-1.966,3.666-2.461,3.695,0.243c0.02,1.762-2.314,2.499-2.314,2.499L26.633,64.365z M60.107,59.15
		c-2.393,0-4.34,2.11-4.34,4.708s1.947,4.698,4.34,4.698s4.338-2.102,4.338-4.698S62.5,59.15,60.107,59.15z M60.293,66.534
		c-0.992,0-1.77-0.332-1.945-1.439l0.934-0.06c0,0,0.01,0.332,0.32,0.488c0.506,0.262,1.461,0.115,1.471-0.73
		c0.01-1.021-0.76-0.837-0.924-0.837l-0.061-0.749c0,0,0.65-0.01,0.65-0.914c0-0.896-1.264-0.77-1.42-0.195l-0.777-0.028
		c0,0,0.088-1.089,1.559-1.089c1.195,0,1.906,1.421,1.02,2.305c0,0,0.994,0.458,0.975,1.479
		C62.074,65.775,61.285,66.534,60.293,66.534L60.293,66.534z"/>
	<path fill="#F48A9F" d="M27.209,25.441c-0.057,0.924,0.555,0.928,1.146,1.423c0.84,0.701-0.811,1.123-0.744,1.87
		c0.043,0.484,0.539,0.675,0.943,0.804c0.189,0.062,1.574,0.272,1.371,0.518c-0.35,0.429,0.514,0.475,0.734,0.203
		c0.861-1.047-1.277-1.113-1.84-1.36c-0.451-0.199-0.314-0.513,0.07-0.699c0.346-0.167,0.484-0.468,0.566-0.821
		c0.268-1.149-1.406-1.057-1.346-2.029C28.139,24.931,27.232,25.092,27.209,25.441L27.209,25.441z"/>
	<path fill="#02A0C6" d="M50.953,23.829c-0.457-0.005-1.215,0.012-1.535,0.408c-0.295,0.362,0.314,0.98,0.504,1.264
		c0.152,0.232,0.283,0.477,0.326,0.755c0.041,0.271,0.062,0.284-0.15,0.274c-0.172-0.007-0.359,0.021-0.525,0.065
		c-0.883,0.236-0.779,0.967-0.494,1.701c0.082,0.216,1.027-0.092,0.963-0.258c-0.115-0.295-0.188-0.588-0.219-0.904
		c0.016-0.103,0.029-0.205,0.043-0.307c-0.264,0.083-0.26,0.112,0.014,0.086c0.141,0,0.281-0.033,0.418-0.057
		c0.346-0.062,0.84-0.269,0.9-0.664c0.066-0.438-0.225-0.826-0.459-1.168c-0.131-0.193-0.264-0.383-0.371-0.59
		c-0.039-0.076-0.057-0.153-0.066-0.237c-0.016-0.125-0.516-0.002,0.023,0.005C50.514,24.205,51.418,23.835,50.953,23.829
		L50.953,23.829z"/>
	<path fill="#CBDB2A" d="M38.006,17.76c0.086,0.062,0.148,0.158,0.174,0.229c0.104,0.286,0.457,0.321,0.713,0.253
		c0.217-0.059,0.596-0.292,0.492-0.575c-0.09-0.25-0.234-0.448-0.449-0.604c-0.248-0.177-0.639-0.099-0.865,0.073
		C37.861,17.291,37.762,17.585,38.006,17.76z"/>
	<path fill="#F1A120" d="M44.85,24.964c-0.576,0.511-0.449,1.344-0.121,1.964c0.209,0.396,1.375-0.003,1.203-0.321
		c-0.186-0.352-0.492-1.139-0.121-1.467c0.186-0.166,0.143-0.357-0.107-0.403C45.426,24.685,45.064,24.776,44.85,24.964
		L44.85,24.964z"/>
	<path fill="#CBDB2A" d="M54.826,29.574c0.098-0.086-0.014,0.01-0.033,0.023c-0.062,0.04-0.119,0.084-0.176,0.131
		c-0.193,0.171-0.129,0.385,0.117,0.438c0.285,0.061,0.633-0.038,0.854-0.229c-0.1,0.085,0.012-0.011,0.031-0.022
		c0.062-0.041,0.119-0.085,0.176-0.133c0.193-0.169,0.131-0.383-0.117-0.437C55.391,29.284,55.043,29.382,54.826,29.574
		L54.826,29.574z M49.102,33.657c-0.393,0.397-0.742,0.899-0.578,1.482c0.131,0.473,1.336,0.146,1.203-0.322
		c-0.104-0.37,0.107-0.653,0.355-0.906c0.184-0.188,0.131-0.416-0.129-0.483C49.676,33.355,49.305,33.449,49.102,33.657z"/>
	<path fill="#F48A9F" d="M57.201,22.875c0.074,0.643,0.48,1.616-0.273,1.974c-0.186,0.087-0.49,0.332-0.303,0.56
		c0.184,0.221,0.588,0.161,0.811,0.055c0.551-0.258,1.014-0.623,1.137-1.244c0.105-0.537-0.104-1.136-0.164-1.667
		C58.35,22.064,57.143,22.349,57.201,22.875z"/>
	<path fill="#F1A120" d="M47.943,18.488c-0.053,0.421-0.109,0.842-0.27,1.238c-0.078,0.188,0.271,0.217,0.365,0.205
		c0.193-0.021,0.395-0.11,0.471-0.298c0.16-0.396,0.217-0.815,0.268-1.24C48.824,18.034,47.98,18.18,47.943,18.488L47.943,18.488z
		 M38.777,26.825c0.074,0.365,0.16,0.726,0.232,1.091c0.057,0.284,1.27-0.006,1.205-0.322c-0.074-0.365-0.16-0.728-0.234-1.092
		C39.926,26.217,38.713,26.507,38.777,26.825L38.777,26.825z M35.934,35.816c-0.148,0.477,0.045,0.816,0.41,1.12
		c0.348,0.289,0.711,0.518,0.486,1.01c-0.102,0.224,0.746,0.132,0.861-0.124c0.461-1.016-1.199-1.148-0.896-2.132
		C36.875,35.43,36.014,35.552,35.934,35.816L35.934,35.816z"/>
	<path fill="#EF4723" d="M29.029,35.375c0.646,0.429,1.092,1.08,1.688,1.572c0.199,0.165,1.006-0.186,0.844-0.316
		c-0.594-0.492-1.039-1.142-1.688-1.572c-0.154-0.103-0.428-0.019-0.582,0.039C29.244,35.114,28.881,35.277,29.029,35.375
		L29.029,35.375z"/>
	<path fill="#F1A120" d="M23.342,32.983c0.164,0.345,0.236,0.719,0.311,1.092c0.068,0.343,1.279,0.048,1.205-0.324
		c-0.074-0.371-0.146-0.746-0.311-1.091C24.373,32.298,23.203,32.697,23.342,32.983z M23.541,26.829
		c0.156,0.233,0.312,0.468,0.469,0.702c0.148,0.226,0.613,0.118,0.803,0.035c0.195-0.085,0.467-0.29,0.311-0.523
		c-0.154-0.234-0.311-0.469-0.467-0.703c-0.15-0.226-0.613-0.119-0.805-0.034C23.656,26.392,23.387,26.595,23.541,26.829z"/>
	<path fill="#02A0C6" d="M22.758,39.521c0.73,0.647,1.432,1.361,2.447,1.484c0.291,0.034,0.625-0.039,0.854-0.229
		c0.184-0.152,0.146-0.361-0.105-0.393c-0.857-0.101-1.459-0.777-2.072-1.323C23.578,38.795,22.457,39.256,22.758,39.521
		L22.758,39.521z"/>
	<path fill="#CBDB2A" d="M24.311,20.084c0.297,0.228,0.521,0.518,0.746,0.815c0.125,0.167,0.488,0.062,0.65,0.019
		c0.047-0.013,0.654-0.21,0.555-0.342c-0.244-0.325-0.49-0.651-0.814-0.9c-0.074-0.057-0.225-0.04-0.307-0.034
		c-0.16,0.016-0.318,0.055-0.469,0.106C24.607,19.771,24.141,19.954,24.311,20.084L24.311,20.084z M20.66,28.169
		c0.402,0.392,0.863,0.62,1.434,0.628c0.289,0.005,0.643-0.077,0.787-0.361c0.127-0.252-0.113-0.473-0.361-0.479
		c-0.309-0.005-0.502-0.064-0.75-0.307c-0.217-0.213-0.551-0.2-0.816-0.076C20.781,27.656,20.443,27.957,20.66,28.169L20.66,28.169z
		"/>
	<path fill="#F1A120" d="M35.189,16.083c-1.514,0.688,0.186,1.83,0.107,2.883c-0.012,0.143,0.943,0.032,0.965-0.259
		c0.035-0.466-0.256-0.892-0.473-1.282c-0.184-0.337-0.551-0.978-0.043-1.209c0.08-0.037,0.332-0.204,0.117-0.255
		C35.646,15.908,35.385,15.994,35.189,16.083z"/>
	<path fill="#EF4723" d="M41.896,13.023c0.074,0.407,0.221,0.812,0.229,1.228c0.008,0.284,0.295,0.343,0.537,0.32
		c0.197-0.021,0.684-0.17,0.678-0.445c-0.014-0.491-0.152-0.944-0.238-1.424C43.014,12.223,41.805,12.521,41.896,13.023z"/>
	<path fill="#F1A120" d="M28.719,19.557c-0.08,0.48,0.121,0.869,0.357,1.271c0.139,0.231,0.623,0.118,0.807,0.036
		c0.207-0.09,0.451-0.285,0.309-0.525c-0.168-0.283-0.32-0.576-0.264-0.913C30.012,18.907,28.791,19.106,28.719,19.557z
		 M44.43,34.136c0.021,0.028,0.033,0.079,0.045,0.114c0.023,0.072,0.061,0.138,0.109,0.197c0.062,0.077,0.234,0.079,0.318,0.077
		c0.16-0.005,0.322-0.041,0.469-0.1c0.139-0.055,0.498-0.228,0.34-0.424c-0.021-0.027-0.033-0.079-0.045-0.114
		c-0.025-0.071-0.062-0.139-0.111-0.197c-0.062-0.077-0.232-0.078-0.316-0.077c-0.16,0.004-0.322,0.041-0.471,0.099
		C44.631,33.767,44.271,33.941,44.43,34.136L44.43,34.136z M41.463,36.769c0.096,0.089,0.217,0.146,0.312,0.234
		c0.066,0.06,0.23,0.043,0.305,0.037c0.16-0.012,0.32-0.051,0.471-0.105c0.078-0.028,0.52-0.195,0.359-0.342
		c-0.098-0.088-0.215-0.146-0.312-0.233c-0.064-0.061-0.23-0.043-0.307-0.037c-0.158,0.013-0.318,0.051-0.469,0.105
		C41.742,36.456,41.303,36.624,41.463,36.769L41.463,36.769z M40.908,21.71c0.084,0.044,0.227,0.136,0.34,0.219
		c0.143,0.104,0.275,0.218,0.398,0.341c0.217,0.214,0.662,0.101,0.867-0.062c0.236-0.188,0.27-0.453,0.055-0.662
		c-0.289-0.285-0.617-0.503-0.977-0.688C41.066,20.587,40.219,21.355,40.908,21.71L40.908,21.71z"/>
	<path fill="#02A0C6" d="M35.754,28.055c-0.584,0.299-1.072,0.678-1.488,1.186c-0.193,0.233,0.162,0.39,0.338,0.397
		c0.305,0.017,0.6-0.104,0.793-0.34c0.234-0.284,0.523-0.518,0.85-0.686c0.158-0.081,0.504-0.304,0.311-0.522
		C36.379,27.887,35.963,27.947,35.754,28.055L35.754,28.055z"/>
	<path fill="#F1A120" d="M53.426,34.5v0.078c0,0.307,0.287,0.436,0.562,0.418c0.246-0.016,0.658-0.196,0.658-0.5v-0.078
		c0-0.306-0.287-0.438-0.562-0.418C53.838,34.016,53.426,34.194,53.426,34.5L53.426,34.5z"/>
	<path fill="#EF4723" d="M45.473,40.451c0.004,0.583,0.127,1.203,0.773,1.371c0.223,0.057,0.479,0.015,0.633-0.17
		c0.125-0.149,0.09-0.388-0.119-0.441c-0.365-0.096-0.379-0.504-0.381-0.825C46.375,39.911,45.471,40.041,45.473,40.451
		L45.473,40.451z"/>
	<path fill="#CBDB2A" d="M35.336,42.093c0.301,0.005,0.557,0.078,0.76,0.333c0.293,0.37,1.449-0.072,1.111-0.497
		c-0.342-0.43-0.893-0.594-1.424-0.604c-0.281-0.004-0.639,0.085-0.791,0.347C34.848,41.919,35.113,42.089,35.336,42.093z
		 M54.33,18.681c0.373,0,1.311-0.562,0.502-0.562C54.461,18.117,53.523,18.681,54.33,18.681z M63.459,34.282
		c-0.611,0.188-1.572,0.719-1.217,1.508c0.115,0.251,0.467,0.229,0.691,0.17c0.154-0.042,0.627-0.247,0.514-0.494
		c-0.061-0.138-0.084-0.263-0.02-0.374c0.029-0.045,0.037-0.054,0.014-0.024c0.004-0.005,0.127-0.104,0.055-0.053
		c0.141-0.1-0.094,0.037,0.066-0.041c0.17-0.081-0.113,0.028,0.074-0.027c0.188-0.059,0.586-0.227,0.514-0.493
		C64.08,34.193,63.645,34.226,63.459,34.282L63.459,34.282z"/>
	<path fill="#F1A120" d="M57.256,39.999c0.01,0.108,0.066,0.204,0.076,0.312c0.023,0.255,0.549,0.175,0.682,0.139
		c0.207-0.056,0.549-0.199,0.523-0.461c-0.012-0.107-0.068-0.204-0.078-0.312c-0.023-0.254-0.547-0.174-0.682-0.137
		C57.57,39.594,57.229,39.737,57.256,39.999L57.256,39.999z"/>
	<path fill="#EF4723" d="M60.412,31.5c-0.316,0.167-0.938,0.511-0.74,0.97c0.154,0.366,0.652,0.505,0.99,0.642
		c0.076,0.032,0.154,0.066,0.229,0.103c0.055,0.022,0.156,0.14,0.119,0.055c0.08,0.185-0.166,0.194-0.338,0.265
		c-0.467,0.188-0.969,0.445-1.117,0.964c-0.156,0.536,0.789,0.534,0.91,0.118c0.209-0.717,1.846-0.549,1.494-1.602
		c-0.104-0.311-0.479-0.44-0.754-0.555c-0.174-0.072-0.354-0.135-0.518-0.23c0.021,0.013-0.086-0.052-0.088-0.059
		c-0.037,0.083-0.031,0.096,0.018,0.036c0.07-0.051,0.143-0.094,0.219-0.128C61.41,31.773,60.895,31.244,60.412,31.5L60.412,31.5z"
		/>
	<path fill="#CBDB2A" d="M61.502,42.631c-0.059,0.013-0.111,0.025-0.172,0.022c0.051,0.005,0.055,0.006,0.014,0.001
		c0.037,0.018,0.047,0.021,0.031,0.01c0.086,0.043,0.148,0.118,0.203,0.194c0.051,0.071,0.246,0.061,0.312,0.058
		c0.16-0.01,0.32-0.046,0.473-0.103c0.131-0.052,0.48-0.193,0.348-0.384c-0.301-0.422-0.889-0.337-1.326-0.238
		c-0.121,0.027-0.598,0.178-0.543,0.381C60.896,42.782,61.379,42.658,61.502,42.631L61.502,42.631z"/>
	<g>
		<path fill="#CBDB2A" d="M46.732,24.105l0.197,9.452h-9.9l0.404-9.716l-1.732-0.613l0.205-3.434l1.398,0.026l0.58-0.153
			l1.539-0.405h5.07l1.766,0.358l2.043,0.047l0.529,3.708L46.732,24.105z"/>
		<path fill="#29465D" d="M37.41,33.558l-0.215,2.24v6.071h3.746l0.66-3.945l0.459-0.021l0.533,3.967h3.828l0.33-5.98l-0.43-2.331
			H37.41z"/>
		<path fill="#F2AF86" d="M44.33,19.588c0,0.059-0.008,0.116-0.014,0.171c-0.125,0.722-1.023,1.283-2.115,1.283
			c-0.834,0-1.561-0.332-1.906-0.816c-0.143-0.191-0.219-0.408-0.219-0.638c0-0.007,0-0.018,0.004-0.026v-0.003l0.283-0.232v-0.062
			l0.004-0.744l-0.127-0.013l-0.299-0.552l-0.27-4.054l0.699-0.609l2.355-0.2l1.283,0.656l-0.1,3.792l-0.068,0.692l-0.133,0.138
			l0.107,0.893l0.006,0.051l0.504,0.24C44.33,19.565,44.33,19.578,44.33,19.588L44.33,19.588z M42.742,41.869l1.02,8.502l0.35,0.418
			l1.574-0.418l0.637-6.719l-0.117-1.783H42.742L42.742,41.869z"/>
		<path fill="#614C3C" d="M39.637,15.441l0.455-0.123l0.227-1.188l2.984-0.169l0.414,1.529h0.416l-0.014-1.943l-1.451-0.95
			l-2.258,0.174l-0.826,0.978L39.637,15.441z"/>
		<path fill="#F2AF86" d="M40.711,15.917c0,0.362-0.293,0.656-0.654,0.656c-0.363,0-0.656-0.293-0.656-0.656
			c0-0.361,0.293-0.656,0.656-0.656C40.416,15.261,40.711,15.554,40.711,15.917z M44.393,15.917c0,0.362-0.293,0.656-0.656,0.656
			c-0.361,0-0.654-0.294-0.654-0.656s0.293-0.655,0.654-0.656C44.1,15.261,44.393,15.555,44.393,15.917z M54.264,13.84l-0.889,0.035
			l-0.803,0.932l-0.328-0.833l-0.434,0.062v1.657L51.75,15.76l-2.189,3.984l-1.215,0.183l0.455,3.356l2.404-0.981l0.23-0.048
			l0.549-0.557l1.496-4.973l1.291-1.929L54.264,13.84z M30.043,13.771l0.891,0.035l0.803,0.933l0.328-0.833l0.434,0.06v1.657
			l0.059,0.069l2.062,4.081l1.289,0.076l-0.168,3.268l-2.639-0.883l-0.229-0.05l-0.551-0.556l-1.494-4.972l-1.293-1.932
			L30.043,13.771z"/>
		<path fill="#E5E5E5" d="M43.783,50.326h-0.338l-0.127,1.762l0.08,0.382h3.791l0.078-0.558l-0.686-0.955l-0.652-0.223l-0.031-0.408
			l-0.35-0.214h-0.797l-0.605,0.652L43.783,50.326z"/>
		<path fill="#F2AF86" d="M40.773,41.869l-1.018,8.502l-0.35,0.418l-1.576-0.418l-0.635-6.719l0.115-1.783H40.773L40.773,41.869z"/>
		<path fill="#E5E5E5" d="M39.734,50.326h0.336l0.127,1.762l-0.08,0.382h-3.791l-0.078-0.558l0.686-0.955l0.652-0.223l0.031-0.408
			l0.35-0.214h0.797l0.605,0.652L39.734,50.326z"/>
	</g>
</g>
</svg>
