<?xml version="1.0" encoding="utf-8"?>
<!-- Generator: Adobe Illustrator 16.0.0, SVG Export Plug-In . SVG Version: 6.00 Build 0)  -->
<!DOCTYPE svg PUBLIC "-//W3C//DTD SVG 1.1//EN" "http://www.w3.org/Graphics/SVG/1.1/DTD/svg11.dtd">
<svg version="1.1" id="Layer_1" xmlns="http://www.w3.org/2000/svg" xmlns:xlink="http://www.w3.org/1999/xlink" x="0px" y="0px"
	 width="85px" height="85px" viewBox="0 0 85 85" enable-background="new 0 0 85 85" xml:space="preserve">
<g>
	<path fill-rule="evenodd" clip-rule="evenodd" d="M65.164,69.151c0.773,0.154,1.056,0.674,1.056,1.41
		c-0.002,2.731,0.018,5.463-0.008,8.195c-0.019,1.976-1.118,3.149-2.93,3.743c-14.011,0-28.021,0-42.031,0
		c-2.035-0.388-3.104-1.645-3.175-3.79c-0.041-1.223,0.015-2.447-0.019-3.669c-0.022-0.771,0.333-1.725-0.179-2.269
		c-0.524-0.556-1.486-0.134-2.252-0.207c-0.258-0.024-0.521-0.003-0.78-0.01c-0.314-0.007-0.622-0.06-0.924-0.144
		c-1.371-0.384-1.87-1.781-1.055-2.966c0.307-0.445,0.69-0.836,0.985-1.257c-0.056-0.208-0.207-0.199-0.322-0.237
		c-0.561-0.181-0.863-0.569-0.894-1.149c-0.03-0.565,0.17-1.062,0.706-1.281c0.531-0.218,0.458-0.438,0.146-0.78
		c-0.227-0.25-0.439-0.516-0.625-0.799c-0.816-1.249-0.282-2.602,1.169-2.973c0.487-0.125,0.984-0.066,1.476-0.098
		c0.798-0.052,1.807,0.348,2.341-0.18c0.566-0.559,0.189-1.586,0.204-2.406c0.032-1.795,0.009-3.592,0.01-5.387
		c0.005-4.783,2.658-8.461,7.178-9.952c0.81-0.268,0.81-0.268,0.47-1.067c-0.527-1.239-0.753-2.542-0.768-3.88
		c-0.02-1.795-0.012-3.591-0.001-5.387c0.003-0.513-0.141-0.948-0.411-1.39c-1.339-2.194-1.382-4.427-0.052-6.638
		c0.31-0.515,0.456-1.022,0.466-1.613c0.028-1.767-0.089-3.535,0.127-5.302c0.143-1.173,0.396-2.308,0.813-3.405
		c0.194-0.511,0.096-0.88-0.288-1.256c-1.153-1.129-2.295-2.269-3.425-3.421c-1.718-1.753-1.648-4.44,0.114-6.157
		c0.638-0.622,1.418-0.808,2.243-0.93c0.469,0,0.938,0,1.406,0c0.921,0.105,1.767,0.378,2.386,1.12
		c0.264,0.316,0.426,0.025,0.564-0.106c0.623-0.595,1.358-0.921,2.206-1.014c0.469,0,0.938,0,1.406,0
		c1.471,0.399,2.63,1.17,3.17,2.672c0.12,0.332,0.346,0.196,0.57,0.157c3.688-0.645,7.397-0.549,11.092-0.167
		c2.311,0.239,4.365,1.259,6.22,2.657c0.767,0.578,0.857,0.95,0.483,1.873c-0.479,0.692-1.017,0.821-1.782,0.314
		c-0.805-0.531-1.622-1.028-2.492-1.443c-1.356-0.646-2.772-1.01-4.285-1c-2.104,0.013-4.208,0.008-6.312,0.003
		c-2.88-0.044-5.307,1.073-7.421,2.944c-2.852,2.524-4.061,5.758-4.037,9.509c0.003,0.546-0.011,1.091,0.007,1.637
		c0.008,0.229-0.005,0.507,0.323,0.527c0.271,0.017,0.517-0.066,0.63-0.355c0.038-0.097,0.062-0.199,0.083-0.3
		c0.358-1.745,1.401-2.976,2.896-3.87c0.57-0.359,1.2-0.503,1.864-0.52c0.296,0.003,0.592,0.017,0.889,0.029
		c0.104,0.004-0.033-0.009,0.071-0.021c0.029-0.003,0.005-0.01-0.071-0.002c-1.038-0.882-1.479-2.078-1.773-3.353
		c-0.04-0.36-0.116-0.715-0.146-1.074c-0.112-1.362,0.797-2.073,2.101-1.652c0.547,0.32,0.585,0.873,0.666,1.42
		c0.358,2.433,1.647,3.947,3.775,4.456c0.101,0.024,0.202,0.053,0.401,0c-0.43-0.664-0.858-1.303-1.13-2.029
		c-0.278-0.741-0.421-1.506-0.497-2.282c-0.074-0.756,0.28-1.361,0.862-1.606c0.835-0.352,1.652,0.083,1.833,0.984
		c0.057,0.28,0.077,0.567,0.13,0.849c0.495,2.623,2.332,4.204,5.011,4.267c1.562,0.036,3.125,0.006,4.688,0.008
		c2.589,0.004,4.527,1.421,5.321,3.89c0.064,0.199,0.127,0.398,0.168,0.602c0.072,0.355,0.285,0.568,0.646,0.552
		c0.434-0.02,0.35-0.386,0.36-0.652c0.11-2.605-0.148-5.144-1.293-7.541c-0.478-1-0.269-1.575,0.555-1.897
		c1.018-0.179,1.294-0.046,1.742,0.847c0.96,1.91,1.443,3.942,1.52,6.071c0.032,0.909,0.035,1.821,0.01,2.731
		c-0.036,1.245,0.13,2.356,0.779,3.526c1.111,2.002,0.893,4.118-0.449,6.028c-0.243,0.346-0.333,0.667-0.33,1.069
		c0.013,1.769-0.003,3.538,0.008,5.307c0.01,1.662-0.277,3.255-1.034,4.748c-0.129,0.255-0.313,0.442,0.196,0.573
		c4.91,1.263,7.697,4.893,7.701,9.979c0.003,3.823-0.005,7.648,0.005,11.473c0.002,0.78-0.194,1.391-1.061,1.565
		c-0.886,0.121-1.337-0.211-1.444-1.075c-0.039-0.31-0.022-0.624-0.022-0.936c-0.001-3.748,0.026-7.496-0.01-11.243
		c-0.024-2.512-0.956-4.612-3.052-6.106c-0.618-0.441-1.3-0.769-2.019-1.009c-1.143-0.383-2.217-0.428-3.21,0.468
		c-0.657,0.594-1.473,0.988-2.322,1.256c-0.601,0.188-0.93,0.549-1.152,1.143c-1.43,3.812-4.187,6.052-8.189,6.736
		c-3.824,0.653-8.018-1.259-10.094-4.554c-0.447-0.708-0.827-1.447-1.077-2.245c-0.16-0.512-0.438-0.854-0.97-1.017
		c-1.214-0.371-2.227-1.114-3.251-1.831c-0.612-0.366-1.259-0.238-1.887-0.097c-3.256,0.733-5.539,3.548-5.609,6.995
		c-0.054,2.676-0.013,5.354-0.011,8.03c0,0.316,0.027,0.626,0.257,0.874c0.917,0.991,1.704,2.092,2.698,3.201
		c0.085-0.64,0.042-1.171,0.047-1.697c0.009-1.04-0.002-2.079,0.006-3.119c0.005-0.696,0.229-1.273,0.875-1.624
		c1.196-0.191,1.851,0.312,1.893,1.53c0.052,1.535,0.006,3.073,0.019,4.609c0.007,0.872,0.07,0.934,0.929,0.944
		c0.677,0.008,1.354,0.01,2.031-0.001c0.776-0.013,0.812-0.063,0.649-0.812c-0.736-3.394,1.366-6.776,4.729-7.488
		c2.227-0.47,4.241,0.015,5.899,1.662c1.213,1.204,1.067,1.242,2.283,0.03c2.205-2.196,5.687-2.495,8.146-0.706
		c2.578,1.876,3.392,5.251,1.95,8.083c-0.274,0.539-0.644,1.006-1.07,1.433c-2.708,2.706-5.41,5.418-8.123,8.118
		c-1.466,1.46-2.601,1.45-4.089-0.03c-2.216-2.203-4.433-4.405-6.623-6.635c-0.591-0.602-1.229-0.893-2.076-0.861
		c-1.223,0.044-2.448,0.004-3.671,0.014c-0.899,0.007-0.963,0.071-0.965,0.995c-0.005,3.307-0.005,6.614,0,9.921
		c0.001,0.903,0.064,0.964,0.99,0.966c3.542,0.005,7.083,0.002,10.625,0.002c6.171,0,12.343,0.001,18.515-0.001
		c1.1,0,1.128-0.029,1.129-1.146c0.002-6.093,0-12.187,0.001-18.28c0-0.391-0.023-0.783,0.046-1.17
		c0.14-0.77,0.683-1.258,1.373-1.249c0.686,0.008,1.215,0.51,1.342,1.284c0.06,0.361,0.039,0.728,0.039,1.092
		c0.001,6.016,0.001,12.031,0.001,18.047c0,0.234,0.007,0.469,0.003,0.703c-0.01,0.478,0.194,0.732,0.695,0.719
		c0.286-0.008,0.573,0.011,0.859-0.006c0.932-0.056,1.376-0.485,1.41-1.423c0.038-1.066,0.009-2.135,0.013-3.202
		c0.006-1.615-0.033-3.23,0.017-4.844C63.728,69.407,64.208,69.014,65.164,69.151z"/>
	<path fill-rule="evenodd" clip-rule="evenodd" d="M61.876,2.5c0.808,0.559,0.77,1.401,0.7,2.223
		c-0.051,0.595,0.15,0.799,0.736,0.727c0.358-0.045,0.729-0.024,1.092,0.005c0.667,0.055,1.048,0.433,1.081,1.102
		c0.034,0.682-0.354,1.088-0.99,1.194c-0.457,0.076-0.937,0.057-1.402,0.025c-0.427-0.029-0.539,0.14-0.513,0.535
		c0.027,0.415,0.024,0.835-0.013,1.249c-0.065,0.708-0.513,1.125-1.157,1.125c-0.646,0-1.081-0.421-1.156-1.126
		c-0.062-0.566,0.232-1.299-0.125-1.658s-1.09-0.066-1.654-0.123c-0.728-0.073-1.171-0.555-1.146-1.226
		c0.023-0.641,0.464-1.048,1.168-1.109c0.56-0.049,1.271,0.245,1.641-0.141c0.337-0.352,0.101-1.046,0.1-1.587
		c-0.002-0.563,0.381-0.861,0.701-1.214C61.251,2.5,61.563,2.5,61.876,2.5z"/>
	<path fill-rule="evenodd" clip-rule="evenodd" fill="#A1E52E" d="M65.164,69.151c-1,0.118-1.283,0.431-1.286,1.468
		c-0.005,2.604,0.001,5.208-0.003,7.812c-0.002,1.312-0.418,1.721-1.733,1.725c-1.677,0.005-1.677,0.005-1.677-1.703
		c0-6.146,0.001-12.291,0-18.436c0-0.26,0.029-0.53-0.027-0.778c-0.144-0.633-0.539-1.006-1.219-0.968
		c-0.639,0.036-0.985,0.421-1.083,1.03c-0.036,0.229-0.014,0.468-0.014,0.702c-0.001,6.432-0.009,12.863,0.013,19.295
		c0.002,0.632-0.076,0.881-0.819,0.878c-10.051-0.03-20.102-0.026-30.153-0.007c-0.61,0.001-0.774-0.149-0.769-0.765
		c0.031-3.594,0.032-7.188,0-10.78c-0.006-0.635,0.187-0.779,0.785-0.765c1.587,0.04,3.176,0.028,4.765,0.004
		c0.455-0.006,0.777,0.139,1.096,0.46c2.364,2.386,4.742,4.758,7.12,7.131c1.331,1.327,2.417,1.324,3.755-0.014
		c2.69-2.687,5.399-5.354,8.055-8.075c1.658-1.698,2.191-3.759,1.498-6.047c-0.681-2.248-2.215-3.69-4.507-4.196
		c-2.186-0.482-4.118,0.099-5.727,1.688c-0.385,0.382-0.762,0.998-1.194,1.047c-0.465,0.052-0.798-0.649-1.186-1.023
		c-2.134-2.058-5.07-2.464-7.531-1.024c-2.465,1.442-3.529,4.235-2.692,7.153c0.127,0.445,0.089,0.589-0.407,0.575
		c-1.041-0.03-2.084-0.037-3.124,0.002c-0.533,0.021-0.716-0.12-0.704-0.682c0.037-1.692,0.017-3.385,0.012-5.078
		c-0.004-1.226-0.472-1.618-1.706-1.446c-0.206-0.166-0.23-0.405-0.226-0.637c0.043-2.201-0.169-4.408,0.151-6.603
		c0.317-2.179,1.404-3.929,3.03-5.37c0.237-0.21,0.495-0.387,0.842-0.288c1.108,0.825,2.256,1.582,3.619,1.923
		c0.388,0.098,0.435,0.396,0.529,0.688c1.447,4.512,5.592,7.365,10.3,7.092c4.029-0.234,7.659-3.061,8.895-6.981
		c0.162-0.512,0.396-0.752,0.902-0.903c1.156-0.347,2.202-0.936,3.105-1.739c0.363-0.322,0.727-0.416,1.199-0.392
		c3.829,0.206,6.801,3.463,6.823,7.55c0.021,3.955,0.002,7.91,0.007,11.864c0.001,1.033,0.29,1.349,1.286,1.465
		C64.927,67.054,64.925,68.103,65.164,69.151z"/>
	<path fill-rule="evenodd" clip-rule="evenodd" fill="#FEE077" d="M39.066,7.338c3.13,0.003,6.281-0.416,9.366,0.468
		c1.361,0.39,2.601,1.035,3.717,1.901c0.65,0.505,1.262,0.536,1.887-0.015c0.68,0.798,1.36,1.596,2.04,2.394
		c-0.639,0.471-0.802,1.061-0.418,1.765c1.415,2.604,1.405,5.437,1.356,8.28c-0.006,0.323-0.115,0.382-0.421,0.341
		c-0.584-0.08-0.938-0.194-1.07-0.951c-0.44-2.511-2.508-4.164-5.069-4.2c-1.56-0.021-3.12,0-4.681-0.006
		c-3.089-0.014-5.138-1.893-5.423-4.962c-0.083-0.883-0.503-1.317-1.238-1.278c-0.738,0.039-1.151,0.596-1.092,1.498
		c0.096,1.486,0.554,2.844,1.45,4.045c0.152,0.204,0.298,0.414,0.468,0.651c-2.763-0.192-4.638-2.041-4.884-4.798
		c-0.043-0.489-0.138-0.919-0.523-1.247C34.36,11,34.5,10.823,34.638,10.671c1.106-1.219,2.292-2.342,3.776-3.104
		C38.621,7.46,38.874,7.487,39.066,7.338z"/>
	<path fill-rule="evenodd" clip-rule="evenodd" d="M61.718,36.027c0.082-1.608,0.96-3.1,2.738-3.937
		c1.774-0.835,3.489-0.595,5.054,0.604c0.185,0.142,0.378,0.291,0.512,0.478c0.388,0.543,0.673,0.461,1.125,0.005
		c2.016-2.031,4.982-2.079,6.898-0.163c1.888,1.887,1.873,4.85-0.084,6.858c-1.926,1.974-3.888,3.913-5.848,5.853
		c-1.022,1.013-2.048,1.001-3.065-0.011c-1.954-1.945-3.904-3.895-5.85-5.851C62.177,38.836,61.713,37.72,61.718,36.027z"/>
	<path fill-rule="evenodd" clip-rule="evenodd" d="M62.014,21.674c-0.012-0.505,0.202-0.904,0.584-1.218
		c0.1-0.082,0.208-0.164,0.327-0.208c1.671-0.625,2.712-1.833,3.467-3.429c0.615-1.301,2.099-1.262,2.842-0.028
		c0.026,0.044,0.061,0.087,0.078,0.135c0.596,1.556,1.656,2.633,3.221,3.243c0.644,0.25,1.054,0.75,1.066,1.491
		c0.014,0.78-0.45,1.235-1.082,1.572c-0.046,0.024-0.093,0.049-0.141,0.068c-1.431,0.546-2.41,1.533-2.975,2.96
		c-0.285,0.72-0.785,1.242-1.631,1.227c-0.808-0.014-1.291-0.519-1.559-1.214c-0.576-1.494-1.651-2.433-3.1-3.056
		C62.271,22.855,62.01,22.372,62.014,21.674z"/>
	<path fill-rule="evenodd" clip-rule="evenodd" fill="#FECDBE" d="M35.782,19.694c4.084-0.012,8.167-0.024,12.251-0.034
		c0.885-0.002,1.771-0.024,2.654,0.017c1.301,0.061,2.548,1.121,2.565,2.399c0.042,3.091,0.317,6.202-0.145,9.273
		c-0.789,5.241-5.941,9.362-11.165,9.052c-0.18-0.011-0.357-0.056-0.536-0.084c-2.28-0.775-3.809-2.437-5.063-4.381
		c-1.267-1.962-1.917-4.129-1.863-6.479c0.029-1.267-0.121-2.538,0.095-3.8c1.08-1.205,2.038-1.343,3.329-0.48
		c0.596,0.398,1.106,0.384,1.459-0.041c0.35-0.421,0.264-0.905-0.259-1.437c-0.944-0.96-2.132-1.077-3.383-0.977
		c-0.257,0.021-0.507,0.112-0.771,0.081c-0.351-0.065-0.467-0.329-0.446-0.627C34.576,21.173,34.805,20.238,35.782,19.694z"/>
	<path fill-rule="evenodd" clip-rule="evenodd" fill="#FD646F" d="M37.527,59.512c0.679,0.102,1.18,0.512,1.646,0.968
		c0.65,0.636,1.275,1.297,1.933,1.924c0.627,0.598,1.221,0.596,1.851-0.006c0.676-0.645,1.316-1.328,1.99-1.978
		c1.524-1.471,3.857-1.479,5.33-0.033c1.484,1.459,1.532,3.791,0.036,5.321c-1.942,1.985-3.937,3.918-5.909,5.874
		c-0.286,0.155-0.5-0.002-0.688-0.184c-0.964-0.929-1.907-1.882-2.844-2.839c-0.142-0.146-0.331-0.32-0.25-0.529
		c0.094-0.245,0.36-0.119,0.551-0.134c0.384-0.029,0.772,0.034,1.155-0.037c0.642-0.254,0.955-0.715,0.814-1.405
		c-0.147-0.724-0.703-0.908-1.349-0.919c-1.271-0.022-2.543-0.035-3.815-0.052c-1.51-1.154-2.14-3.841-1.299-5.528
		C36.856,59.6,37.075,59.335,37.527,59.512z"/>
	<path fill-rule="evenodd" clip-rule="evenodd" fill="#96D629" d="M28.499,45.438c-2.08,1.339-3.275,3.267-3.643,5.682
		c-0.364,2.393-0.11,4.81-0.155,7.216c-0.505,0.374-0.657,0.876-0.647,1.496c0.029,1.737,0.01,3.475,0.01,5.426
		c-0.932-1.114-1.67-2.147-2.564-3.02c-0.728-0.709-0.887-1.466-0.866-2.418c0.052-2.446-0.013-4.896,0.026-7.342
		c0.063-4.003,3.13-7.223,6.946-7.35C27.947,45.116,28.292,45.069,28.499,45.438z"/>
	<path fill-rule="evenodd" clip-rule="evenodd" fill="#FEE077" d="M57.01,36.251c-0.039,0.831,0.058,1.819-0.088,2.806
		c-0.538,3.665-3.428,6.264-7.149,6.371c-0.796,0.022-1.833,0.346-2.319-0.151c-0.384-0.392-0.108-1.43-0.123-2.181
		c-0.005-0.234,0.029-0.473-0.007-0.701c-0.078-0.499,0.155-0.712,0.593-0.92c3.189-1.515,5.475-3.91,6.776-7.198
		c0.234-0.594,0.461-0.898,1.179-0.903c1.139-0.008,1.139-0.083,1.139,1.082C57.01,35.001,57.01,35.548,57.01,36.251z"/>
	<path fill-rule="evenodd" clip-rule="evenodd" fill="#FEAF9D" d="M34.69,25.68c-0.001,1.142-0.003,2.283-0.003,3.424
		c-0.001,4.945,2.172,8.612,6.483,11.021c0.087,0.049,0.158,0.127,0.237,0.192c-3.747,0-7.761-2.882-9.351-6.731
		c-0.51-1.234-0.818-2.518-0.822-3.861c-0.006-2.393-0.021-4.786-0.001-7.178c0.014-1.708,1.192-2.857,2.914-2.883
		c0.545-0.008,1.09,0.02,1.635,0.031c-0.511,0.57-0.896,1.22-1.034,1.972c-0.06,0.328-0.315,0.785,0.245,0.994
		c0.04,0.359-0.301,0.364-0.486,0.5c-0.271,0.197-0.529,0.404-0.768,0.639c-0.315,0.309-0.504,0.656-0.332,1.103
		c0.165,0.427,0.488,0.643,0.947,0.658C34.476,25.563,34.613,25.541,34.69,25.68z"/>
	<path fill-rule="evenodd" clip-rule="evenodd" fill="#FED05B" d="M39.066,7.338c-1.482,0.904-2.915,1.871-4.06,3.202
		c-0.182,0.211-0.457,0.358-0.476,0.684c-1.235-0.384-1.923,0.159-1.818,1.441c0.034,0.412,0.078,0.823,0.118,1.235
		c-0.364,1.307-0.71,2.62-1.109,3.917c-1.591,0.977-2.611,2.314-2.843,4.229c-0.069,0.567-0.734,0.267-1.104,0.426
		c-0.259,0.112-0.25-0.166-0.252-0.34c-0.037-2.629-0.068-5.245,1.068-7.727C30.494,10.249,34.912,7.236,39.066,7.338z"/>
	<path fill-rule="evenodd" clip-rule="evenodd" fill="#FED05B" d="M37.157,45.315c-5.406,0.947-9.367-2.277-9.616-6.967
		c-0.082-1.529-0.006-3.066-0.03-4.599c-0.007-0.424,0.115-0.474,0.53-0.472c1.073,0.005,1.705,0.378,2.012,1.498
		c0.292,1.07,1.04,1.957,1.666,2.878c0.064,2.014,0.531,3.903,1.817,5.506c0.827,1.03,1.658,2.095,3.208,1.973
		C36.899,45.12,37.046,45.194,37.157,45.315z"/>
	<path fill-rule="evenodd" clip-rule="evenodd" fill="#D0F09D" d="M35.119,47.785c0.87,0,1.722,0.014,2.574-0.007
		c0.329-0.009,0.437,0.218,0.6,0.414c2.174,2.612,5.782,2.603,7.955-0.037c0.224-0.271,0.436-0.39,0.779-0.378
		c0.649,0.023,1.3,0.021,1.949,0.001c0.395-0.012,0.5,0.065,0.337,0.479c-1.041,2.618-4.099,4.58-7.147,4.556
		c-3.005-0.024-6.019-2.06-7.014-4.739C35.127,48.004,35.134,47.923,35.119,47.785z"/>
	<path fill-rule="evenodd" clip-rule="evenodd" fill="#96D629" d="M24.064,68.204c0,2.494,0,4.801,0,7.109
		c0,1.404-0.024,2.811,0.013,4.215c0.014,0.525-0.158,0.683-0.658,0.636c-0.413-0.038-0.832-0.003-1.249-0.009
		c-1.017-0.016-1.506-0.468-1.515-1.468c-0.017-2.056-0.006-4.111-0.003-6.166c0-0.176-0.039-0.359,0.116-0.511
		C21.924,70.88,22.837,69.54,24.064,68.204z"/>
	<path fill-rule="evenodd" clip-rule="evenodd" fill="#FC4755" d="M42.328,67.859c-0.495,0.27-1.059,0.003-1.711,0.198
		c1.362,1.175,2.326,2.607,3.788,3.524c-0.688,0.707-1.373,1.415-2.063,2.119c-0.142,0.145-0.281,0.335-0.512,0.104
		c-1.921-1.925-3.844-3.848-5.941-5.946C38.191,67.859,40.26,67.859,42.328,67.859z"/>
	<path fill-rule="evenodd" clip-rule="evenodd" fill="#FC4755" d="M37.527,59.512c-0.993,0.204-0.855,1.09-0.937,1.736
		c-0.173,1.358,0.149,2.628,1.075,3.698c0.133,0.154,0.21,0.357,0.312,0.537c-1.351,0.015-2.702,0.023-4.053,0.05
		c-0.338,0.006-0.508-0.176-0.674-0.431c-0.849-1.301-0.781-3.041,0.182-4.314C34.389,59.521,36.011,59.015,37.527,59.512z"/>
	<path fill-rule="evenodd" clip-rule="evenodd" fill="#FEE076" d="M37.157,45.315c-1.773,0.296-2.818-0.771-3.778-2.012
		c-1.071-1.384-1.649-2.959-1.803-4.69c-0.028-0.314-0.135-0.675,0.141-0.96c1.437,1.677,3.094,3.067,5.145,3.942
		c0.244,0.104,0.351,0.249,0.343,0.528C37.177,43.187,37.171,44.251,37.157,45.315z"/>
	<path fill-rule="evenodd" clip-rule="evenodd" fill="#FD636E" d="M25.786,4.992c0.764,0.191,1.144,0.865,1.667,1.35
		c0.848,0.785,1.366,0.797,2.197-0.017c0.372-0.364,0.717-0.76,1.121-1.085c0.884-0.711,2.198-0.404,2.653,0.582
		c0.126,0.273,0.146,0.455-0.187,0.612c-1.667,0.788-3.06,1.95-4.35,3.247c-0.025,0.005-0.061,0.025-0.074,0.015
		c-1.386-1.063-2.847-2.071-3.296-3.914C25.448,5.505,25.254,5.1,25.786,4.992z"/>
	<path fill-rule="evenodd" clip-rule="evenodd" fill="#FC4755" d="M25.786,4.992c-0.348,0.829,0.012,1.55,0.508,2.119
		c0.798,0.914,1.722,1.719,2.592,2.57c-0.239,0.304-0.48,0.606-0.715,0.913c-0.618,0.806-0.617,0.808-1.364,0.061
		c-0.951-0.952-1.92-1.888-2.846-2.864c-0.606-0.639-0.645-1.445-0.193-2.141C24.212,4.966,24.938,4.729,25.786,4.992z"/>
	<path fill-rule="evenodd" clip-rule="evenodd" fill="#F6947F" d="M28.927,27.905c0,0.908-0.014,1.816,0.007,2.724
		c0.008,0.349-0.066,0.441-0.437,0.379c-1.373-0.231-2.368-1.47-2.387-3.03c-0.021-1.682,0.932-3.008,2.316-3.253
		c0.335-0.059,0.47,0.013,0.462,0.378c-0.018,0.934-0.006,1.868-0.006,2.802C28.897,27.905,28.913,27.905,28.927,27.905z"/>
	<path fill-rule="evenodd" clip-rule="evenodd" fill="#FDAF9D" d="M55.646,27.892c0-0.909,0.02-1.817-0.009-2.725
		c-0.014-0.452,0.141-0.518,0.547-0.417c1.375,0.341,2.244,1.551,2.234,3.161c-0.009,1.566-0.881,2.733-2.25,3.062
		c-0.419,0.1-0.606,0.1-0.575-0.434c0.052-0.879,0.014-1.764,0.014-2.646C55.619,27.892,55.633,27.892,55.646,27.892z"/>
	<path fill-rule="evenodd" clip-rule="evenodd" fill="#F7947F" d="M43.321,47.528c-1.755,0.721-3.591-0.344-3.755-2.219
		c-0.071-0.8-0.01-1.611-0.026-2.417c-0.006-0.306,0.083-0.409,0.405-0.364c0.797,0.109,1.598,0.184,2.397,0.272
		c0.247,0.275,0.239,0.619,0.222,0.949C42.497,45.075,42.589,46.365,43.321,47.528z"/>
	<path fill-rule="evenodd" clip-rule="evenodd" fill="#FDAF9D" d="M43.321,47.528c-0.789-0.514-0.911-1.346-0.965-2.169
		c-0.056-0.85-0.014-1.705-0.014-2.559c0.744-0.088,1.489-0.173,2.232-0.267c0.22-0.027,0.425-0.064,0.411,0.264
		c-0.042,0.955,0.118,1.921-0.092,2.865C44.698,46.545,44.211,47.214,43.321,47.528z"/>
	<path fill-rule="evenodd" clip-rule="evenodd" fill="#FED96A" d="M31.721,17.817c0.054-1.395,0.416-2.703,1.109-3.917
		c0.309,1.229,0.955,2.284,1.695,3.291c-0.291,0.169-0.625-0.009-0.922,0.117C32.958,17.411,32.317,17.532,31.721,17.817z"/>
	<path fill-rule="evenodd" clip-rule="evenodd" fill="#B0BEC8" d="M19.537,69.846c-1.177,0.236-2.358,0.023-3.657,0.104
		c0.435-0.801,1.024-1.335,1.512-1.943c0.056-0.07,0.183-0.124,0.275-0.119c1.13,0.046,2.266-0.155,3.391,0.085
		c-0.146,0.116-0.321,0.209-0.498,0.182c-1.204-0.187-1.936,0.461-2.509,1.444C18.517,69.765,19.096,69.462,19.537,69.846z"/>
	<path fill-rule="evenodd" clip-rule="evenodd" fill="#BFCDD7" d="M19.537,69.846c-0.632,0-1.264,0-1.915,0
		c0.747-1.477,1.828-2.179,3.435-1.874C20.678,68.7,20.116,69.279,19.537,69.846z"/>
	<path fill-rule="evenodd" clip-rule="evenodd" fill="#C2D0D9" d="M19.543,63.589c0.523,0.588,1.047,1.175,1.651,1.854
		c-0.789,0.152-1.459,0.112-2.129,0.045c-0.576-0.325-0.953-0.853-1.315-1.375c-0.25-0.358-0.186-0.639,0.348-0.595
		C18.578,63.558,19.067,63.438,19.543,63.589z"/>
	<path fill-rule="evenodd" clip-rule="evenodd" fill="#B3C0CB" d="M19.543,63.589c-0.569,0-1.138,0-1.843,0
		c0.334,0.803,1.032,1.229,1.364,1.898c-1.738,0.52-2.33-0.841-3.272-2.021C17.151,63.562,18.347,63.332,19.543,63.589z"/>
	<path fill-rule="evenodd" clip-rule="evenodd" fill="#FED05B" d="M33.604,17.309c0.284-0.223,0.614-0.084,0.922-0.117
		C34.247,17.456,33.912,17.281,33.604,17.309z"/>
	<path fill-rule="evenodd" clip-rule="evenodd" d="M18.439,22.977c0.495,0.878,0.459,1.212-0.241,1.922
		c-0.768,0.778-1.536,1.556-2.322,2.315c-0.92,0.889-1.994,0.91-2.896,0.019c-2.037-2.011-4.075-4.021-6.066-6.077
		c-1.831-1.891-1.795-4.859,0.014-6.686c1.853-1.871,4.816-1.933,6.727-0.061c0.591,0.579,0.888,0.69,1.524,0.027
		c1.295-1.349,2.947-1.71,4.734-1.165c1.792,0.547,2.877,1.8,3.282,3.621c0.266,1.194,0.033,2.325-0.581,3.375
		c-0.503,0.861-0.932,1-1.877,0.645c-0.391-0.085-0.539-0.364-0.592-0.726c-0.064-0.435,0.08-0.809,0.27-1.193
		c0.565-1.14,0.333-2.285-0.567-2.947c-0.923-0.68-2.117-0.55-3.054,0.338c-0.416,0.395-0.8,0.82-1.223,1.207
		c-0.81,0.743-1.439,0.737-2.252-0.016c-0.381-0.354-0.731-0.742-1.112-1.096c-0.402-0.375-0.825-0.722-1.395-0.812
		c-1.085-0.156-1.947,0.175-2.392,1.043c-0.447,0.871-0.377,1.749,0.218,2.564c0.494,0.676,1.122,1.223,1.704,1.812
		c1.167,1.181,2.355,2.342,3.515,3.529c0.371,0.379,0.662,0.414,1.03,0.008c0.417-0.461,0.879-0.881,1.307-1.335
		c0.294-0.29,0.574-0.611,0.985-0.727C17.679,22.42,18.153,22.432,18.439,22.977z"/>
	<path fill-rule="evenodd" clip-rule="evenodd" d="M16.874,41.743c-0.632,0.014-1.166-0.241-1.401-0.809
		c-0.711-1.709-1.907-2.85-3.597-3.625c-1.196-0.548-1.117-2.073,0.026-2.764c0.022-0.013,0.046-0.025,0.07-0.034
		c1.627-0.631,2.693-1.771,3.42-3.372c0.629-1.385,2.141-1.33,2.917-0.003c0.026,0.045,0.064,0.084,0.083,0.132
		c0.572,1.509,1.611,2.538,3.117,3.132c0.666,0.263,1.126,0.769,1.13,1.537c0.004,0.802-0.469,1.314-1.171,1.587
		c-1.515,0.588-2.508,1.656-3.107,3.149C18.104,41.314,17.618,41.732,16.874,41.743z"/>
	<path fill-rule="evenodd" clip-rule="evenodd" fill="#FD92D2" d="M18.439,22.977c-0.911-0.665-1.55-0.116-2.177,0.486
		c-1.906-1.588-3.687-3.313-5.223-5.257c-0.604-0.765-0.645-1.772-0.252-2.727c0.564,0.003,0.969,0.328,1.346,0.688
		c0.45,0.43,0.876,0.886,1.326,1.316c0.701,0.67,1.244,0.665,1.952-0.018c0.449-0.432,0.873-0.889,1.325-1.316
		c0.969-0.915,2.277-1.013,3.256-0.26c0.997,0.767,1.254,2.041,0.577,3.206c-0.396,0.68-0.396,1.258,0.168,1.816
		C19.803,21.413,19.277,22.369,18.439,22.977z"/>
	<path fill-rule="evenodd" clip-rule="evenodd" d="M14.087,48.348c-0.013,0.661-0.475,1.094-1.224,1.154
		c-0.54,0.043-1.236-0.235-1.578,0.114c-0.336,0.346-0.062,1.039-0.11,1.578c-0.068,0.761-0.496,1.205-1.165,1.209
		c-0.673,0.004-1.103-0.439-1.169-1.196c-0.047-0.541,0.228-1.232-0.112-1.585c-0.342-0.355-1.037-0.077-1.575-0.12
		c-0.783-0.061-1.253-0.523-1.231-1.223c0.02-0.669,0.476-1.07,1.237-1.122c0.536-0.037,1.209,0.238,1.569-0.127
		c0.331-0.334,0.075-0.994,0.107-1.509c0.052-0.813,0.474-1.293,1.158-1.298c0.683-0.006,1.121,0.477,1.187,1.277
		c0.044,0.534-0.248,1.239,0.147,1.555c0.325,0.258,0.994,0.082,1.51,0.104C13.634,47.195,14.102,47.643,14.087,48.348z"/>
	<path fill-rule="evenodd" clip-rule="evenodd" fill="#FD92D2" d="M66.879,34.055c0.601-0.022,1.025,0.318,1.421,0.703
		c0.467,0.453,0.909,0.932,1.385,1.375c0.612,0.569,1.175,0.567,1.786-0.004c0.494-0.461,0.95-0.963,1.443-1.426
		c1.05-0.985,2.542-0.978,3.497,0.002c0.92,0.944,0.925,2.445-0.051,3.441c-1.309,1.336-2.659,2.632-3.992,3.945
		c-0.208-0.058-0.362-0.197-0.51-0.345c-1.434-1.434-2.9-2.835-4.288-4.313C66.674,36.478,66.426,35.32,66.879,34.055z"/>
	<path fill-rule="evenodd" clip-rule="evenodd" fill="#FD73C4" d="M66.879,34.055c-0.236,1.714,0.412,3.012,1.689,4.169
		c1.336,1.21,2.648,2.465,3.8,3.867c-0.501,0.522-1.017,1.032-1.499,1.569c-0.249,0.278-0.393,0.186-0.609-0.034
		c-1.826-1.84-3.674-3.66-5.491-5.508c-0.81-0.824-0.932-1.978-0.385-2.936C64.894,34.288,65.849,33.857,66.879,34.055z"/>
	<path fill-rule="evenodd" clip-rule="evenodd" fill="#FCA513" d="M70.438,21.741c-1.32,0.449-2.122,1.283-2.639,2.707
		c-0.488-1.458-1.378-2.234-2.585-2.732c0.608-0.384,1.183-0.629,1.594-1.039c0.405-0.404,0.645-0.974,0.996-1.534
		c0.346,0.554,0.584,1.125,0.988,1.529C69.204,21.083,69.78,21.328,70.438,21.741z"/>
	<path fill-rule="evenodd" clip-rule="evenodd" d="M42.284,37.382c-3.333,0.009-6.107-2.198-6.866-5.464
		c-0.216-0.929,0.084-1.562,0.822-1.73c0.682-0.156,1.215,0.279,1.437,1.171c0.5,2.016,2.078,3.46,3.984,3.648
		c2.114,0.208,3.945-0.767,4.808-2.591c0.187-0.394,0.29-0.829,0.411-1.25c0.211-0.73,0.806-1.135,1.445-0.966
		c0.656,0.174,0.989,0.781,0.84,1.531C48.505,35.038,45.663,37.372,42.284,37.382z"/>
	<path fill-rule="evenodd" clip-rule="evenodd" d="M43.438,26.167c-0.043,0.669-0.545,1.097-0.954,1.544
		c-0.432,0.473-0.49,0.784,0.131,1.087c0.16,0.078,0.303,0.206,0.428,0.335c0.46,0.472,0.554,1.009,0.147,1.544
		c-0.399,0.527-0.967,0.651-1.518,0.296c-0.74-0.479-1.454-1.007-2.125-1.577c-0.503-0.427-0.534-1.022-0.146-1.543
		c0.637-0.853,1.32-1.672,2.005-2.488c0.336-0.401,0.803-0.485,1.278-0.303C43.161,25.245,43.408,25.63,43.438,26.167z"/>
	<path fill-rule="evenodd" clip-rule="evenodd" fill="#010000" d="M48.427,22.443c0.797,0,1.775,0.415,2.577,1.227
		c0.516,0.522,0.553,1.187,0.126,1.672c-0.44,0.499-1.069,0.531-1.67,0.084c-1.166-0.867-1.612-0.864-2.813,0.018
		c-0.57,0.419-1.174,0.394-1.614-0.066c-0.463-0.482-0.452-1.13,0.062-1.666C45.903,22.867,46.901,22.438,48.427,22.443z"/>
	<path fill-rule="evenodd" clip-rule="evenodd" d="M34.69,25.68c-0.656,0.166-1.183-0.012-1.474-0.638
		c-0.28-0.604-0.014-1.079,0.434-1.502c0.397-0.376,0.888-0.597,1.342-0.879c1.604-0.432,3.08-0.261,4.329,0.935
		c0.614,0.587,0.673,1.254,0.178,1.778c-0.471,0.5-1.081,0.49-1.73-0.025c-0.959-0.761-1.67-0.754-2.636,0.02
		C34.992,25.48,34.838,25.576,34.69,25.68z"/>
	<path fill-rule="evenodd" clip-rule="evenodd" fill="#FD72C4" d="M10.787,15.479c-0.234,1.689,0.388,2.975,1.654,4.116
		c1.343,1.21,2.644,2.483,3.821,3.868c-0.025,0.044-0.043,0.096-0.078,0.131c-0.572,0.566-1.108,1.524-1.731,1.584
		c-0.642,0.062-1.167-0.968-1.735-1.525c-1.392-1.365-2.775-2.741-4.131-4.141c-0.762-0.786-0.882-1.977-0.372-2.887
		C8.733,15.7,9.699,15.269,10.787,15.479z"/>
	<path fill-rule="evenodd" clip-rule="evenodd" fill="#FCA513" d="M16.856,38.52c-0.537-1.212-1.311-2.067-2.737-2.526
		c1.33-0.58,2.249-1.327,2.685-2.789c0.564,1.357,1.326,2.261,2.778,2.731C18.199,36.489,17.296,37.244,16.856,38.52z"/>
</g>
</svg>
