<?xml version="1.0" encoding="utf-8"?>
<!-- Generator: Adobe Illustrator 16.0.2, SVG Export Plug-In . SVG Version: 6.00 Build 0)  -->
<!DOCTYPE svg PUBLIC "-//W3C//DTD SVG 1.1//EN" "http://www.w3.org/Graphics/SVG/1.1/DTD/svg11.dtd">
<svg version="1.1" id="Layer_1" xmlns="http://www.w3.org/2000/svg" xmlns:xlink="http://www.w3.org/1999/xlink" x="0px" y="0px"
	 width="85px" height="85px" viewBox="0 0 85 85" enable-background="new 0 0 85 85" xml:space="preserve">
<g>
	<path fill="#9866FE" d="M82.501,70.463c-0.182,0.066-0.17,0.246-0.219,0.387c-1.074,3.129-3.313,4.73-6.654,4.732
		c-9.941,0.006-19.887,0.002-29.83,0.002c-0.313,0-0.623,0.012-0.936,0.018c-0.053-0.059-0.135-0.1-0.145-0.18
		C44.558,73.91,44.423,72.4,44.8,70.9c0.443-0.313,0.953-0.217,1.439-0.217c9.479-0.008,18.959-0.006,28.438-0.006
		c0.494,0,0.99,0.02,1.48-0.08c0.916-0.188,1.297-0.609,1.383-1.531c0.021-0.207,0.02-0.416,0.02-0.625c0-11.979,0-23.957,0-35.937
		c0-0.234,0.004-0.47-0.023-0.703c-0.094-0.78-0.578-1.269-1.365-1.37c-0.361-0.046-0.729-0.027-1.092-0.027
		c-9.609-0.002-19.219,0-28.828-0.006c-0.486,0-0.996,0.094-1.441-0.21c-0.205-0.263-0.211-0.577-0.215-0.887
		c-0.012-0.981-0.014-1.964,0.002-2.946c0.006-0.33-0.021-0.682,0.277-0.929c10.191,0.001,20.381,0.002,30.572,0.003
		c3.777,0,5.719,1.415,6.91,5.025c0.02,0.063,0.094,0.109,0.143,0.166C82.501,43.9,82.501,57.182,82.501,70.463z"/>
	<path fill="#80BEFE" d="M14.38,73.281c-0.246,1.533-1.098,2.314-2.625,2.309c-1.215-0.006-2.434,0.094-3.65-0.09
		c-2.711-0.406-4.443-1.945-5.342-4.498c-0.064-0.186-0.045-0.426-0.264-0.539c0-1.146,0-2.293,0-3.438
		c0.211-1.191,1.004-1.736,2.125-1.918c1.744,0.02,2.746,1.012,2.783,2.748c0.006,0.338-0.006,0.676,0.004,1.014
		c0.037,1.193,0.563,1.754,1.766,1.822c0.984,0.057,1.973-0.008,2.957,0.025c1.098,0.039,1.988,0.701,2.299,1.676
		C14.53,72.695,14.608,72.998,14.38,73.281z"/>
	<path fill="#80BEFE" d="M2.501,30.462c0.506-0.863,0.717-1.872,1.396-2.657c1.234-1.428,2.746-2.282,4.648-2.35
		c1.066-0.037,2.133-0.016,3.199-0.012c1.637,0.004,2.418,0.688,2.656,2.322c0.205,0.962-0.455,1.991-1.523,2.38
		c-0.674,0.246-1.375,0.226-2.074,0.226c-0.648,0-1.297-0.034-1.943,0.017c-0.842,0.065-1.371,0.61-1.439,1.454
		c-0.035,0.439-0.002,0.881-0.016,1.32c-0.053,1.707-1.035,2.652-2.762,2.666c-1.102-0.123-1.857-0.664-2.143-1.772
		C2.501,32.857,2.501,31.66,2.501,30.462z"/>
	<path fill="#80BEFE" d="M2.501,46.4c0-1.719,0-3.439,0-5.158c0.223-1.191,1.045-1.711,2.148-1.92
		c1.697,0.047,2.727,1.047,2.758,2.717c0.021,1.193,0.021,2.389,0,3.582c-0.035,1.688-1.045,2.664-2.756,2.703
		C3.499,48.172,2.708,47.611,2.501,46.4z"/>
	<path fill="#80BEFE" d="M2.501,59.838c0-1.771,0-3.543,0-5.313c0.301-1.111,1.063-1.699,2.162-1.904
		c1.627,0.066,2.684,1.09,2.738,2.699c0.039,1.197,0.027,2.396,0.004,3.594c-0.033,1.729-1.012,2.676-2.746,2.699
		C3.552,61.492,2.788,60.955,2.501,59.838z"/>
	<path fill="#98DCFE" d="M4.532,65.307c-0.006-1.299-0.012-2.598-0.018-3.895c1.891-0.041,2.672-0.838,2.674-2.725
		c0-1.088,0.004-2.178-0.002-3.268c-0.008-1.607-1.01-2.596-2.635-2.604c-0.008-1.564-0.016-3.131-0.023-4.693
		c1.785-0.02,2.66-0.9,2.66-2.688c0-1.092-0.053-2.188,0.014-3.275c0.092-1.516-1.129-2.791-2.664-2.633
		c-0.01-1.298-0.02-2.596-0.029-3.893c1.936-0.059,2.68-0.836,2.68-2.799c0-0.363-0.012-0.727,0.004-1.09
		c0.033-0.866,0.725-1.573,1.59-1.594c0.932-0.021,1.867-0.002,2.799-0.006c1.668-0.008,2.508-0.719,2.82-2.38
		c1.547,0.003,3.094,0.007,4.643,0.011c0.195,0.116,0.256,0.32,0.326,0.514c0.395,1.092,1.223,1.591,2.33,1.627
		c1.4,0.048,2.805,0.048,4.205,0c1.063-0.034,1.908-0.471,2.297-1.547c0.08-0.221,0.18-0.435,0.391-0.565
		c1.557-0.009,3.113-0.019,4.668-0.026c0.193,0.114,0.262,0.313,0.334,0.506c0.426,1.148,1.309,1.612,2.471,1.637
		c1.033,0.021,2.066,0.002,3.102,0.008c0.309,0.001,0.621-0.021,0.916,0.111c0.23,0.138,0.262,0.373,0.262,0.603
		c-0.002,1.322,0.705,2.081,1.918,2.449c0.1,0.03,0.188,0.082,0.271,0.146c0.061,0.07,0.104,0.149,0.133,0.237
		c0.082,1.47,0.193,2.938-0.063,4.403c-0.168,0.263-0.461,0.324-0.727,0.423c-1.035,0.389-1.49,1.165-1.496,2.233
		c-0.01,1.691-0.01,3.383,0,5.072c0.006,1.082,0.496,1.832,1.533,2.203c0.244,0.086,0.506,0.141,0.672,0.369
		c0.291,1.471,0.156,2.949,0.082,4.428c-0.027,0.088-0.07,0.168-0.129,0.24c-0.197,0.18-0.457,0.23-0.693,0.34
		c-0.926,0.43-1.473,1.115-1.473,2.178c0.002,1.662-0.01,3.322,0.004,4.982c0.014,1.365,0.469,1.969,1.768,2.4
		c0.148,0.049,0.299,0.092,0.416,0.203c0.057,0.078,0.096,0.162,0.119,0.252c0.082,1.434,0.133,2.865-0.025,4.297
		c-0.117,0.301-0.391,0.396-0.662,0.488c-1.033,0.346-1.545,1.08-1.623,2.146c-0.021,0.307,0.025,0.635-0.238,0.875
		c-0.676,0.271-1.383,0.113-2.074,0.141c-0.75,0.025-1.502,0.02-2.254,0.002c-1.066-0.027-1.775,0.441-2.135,1.451
		c-0.086,0.24-0.154,0.5-0.383,0.66c-1.348-0.002-2.697,0.004-4.047-0.006c-0.324-0.004-0.623,0.008-0.781,0.354
		c-0.23-0.195-0.164-0.479-0.209-0.727c-0.18-0.98-0.848-1.664-1.846-1.707c-1.762-0.074-3.527-0.063-5.291-0.002
		c-0.736,0.025-1.238,0.469-1.549,1.135c-0.152,0.322-0.189,0.709-0.496,0.953c-1.563,0.006-3.125,0.012-4.688,0.018
		c-0.121-1.564-0.957-2.352-2.502-2.354c-0.91,0-1.82,0.016-2.729-0.004c-1.289-0.025-1.955-0.717-1.961-1.998
		c-0.004-0.311,0-0.623,0-0.934C7.187,66.203,6.31,65.314,4.532,65.307z"/>
	<path fill="#FE4D87" d="M42.487,6.537c5.525-0.107,10.916,0.748,16.211,2.27c2.65,0.762,5.223,1.739,7.928,2.975
		c-0.465-1.009-0.855-1.856-1.25-2.705c-0.209-0.453-0.359-0.916-0.295-1.426c0.143-1.08,0.871-1.885,1.854-2.047
		c1.162-0.191,2.092,0.266,2.621,1.365c0.883,1.824,1.732,3.666,2.594,5.501c0.561,1.2,1.127,2.397,1.676,3.604
		c0.736,1.614-0.063,3.176-1.797,3.461c-3.33,0.547-6.666,1.074-10.002,1.592c-1.4,0.217-2.537-0.623-2.762-2
		c-0.191-1.17,0.689-2.346,1.961-2.582c0.996-0.186,1.998-0.336,3.006-0.504c-0.189-0.326-0.535-0.434-0.859-0.57
		c-5.529-2.331-11.279-3.725-17.275-4.111c-1.195-0.078-2.391-0.074-3.584-0.144c-0.096-0.091-0.18-0.196-0.191-0.327
		c-0.117-1.336-0.111-2.673-0.004-4.009C42.327,6.748,42.415,6.643,42.487,6.537z"/>
	<path fill="#FE80A9" d="M42.487,6.537c0.008,1.56,0.016,3.119,0.023,4.679c-4.613,0.041-9.16,0.601-13.627,1.782
		c-5.004,1.328-9.717,3.342-14.125,6.06c-1.047,0.646-2.146,0.662-2.912,0.058c-1.344-1.061-1.268-2.957,0.199-3.884
		c3.504-2.215,7.225-3.995,11.129-5.393c3.604-1.289,7.301-2.21,11.082-2.765C36.981,6.674,39.728,6.451,42.487,6.537z"/>
	<path fill="#80BEFE" d="M28.593,27.805c-0.506,1.807-1.201,2.342-3.047,2.343c-1.221,0-2.439,0.003-3.662,0
		c-1.631-0.005-2.541-0.765-2.84-2.368c0.406-1.826,1.037-2.334,2.893-2.336c1.35,0,2.697-0.005,4.047,0.002
		c1.535,0.006,2.238,0.629,2.48,2.174C28.476,27.687,28.548,27.744,28.593,27.805z"/>
	<path fill="#80BEFE" d="M40.134,30.152c-1.348-0.002-2.693,0-4.041-0.006c-1.625-0.005-2.531-0.768-2.832-2.369
		c0.408-1.824,1.037-2.332,2.896-2.334c1.324-0.002,2.646-0.005,3.969-0.008C40.53,26.144,40.536,29.427,40.134,30.152z"/>
	<path fill="#3E3373" d="M44.874,25.425c-0.002,1.573-0.006,3.149-0.008,4.723c0.527,1.343-0.33,2.966-1.713,3.247
		c-0.236,0.049-0.459,0.051-0.662-0.102l0.018-0.037c-0.285-0.292-0.258-0.666-0.26-1.025c-0.006-3.212-0.006-6.423,0-9.635
		c0.002-0.359-0.021-0.732,0.254-1.027c1.336,0,2.307,0.922,2.34,2.231C44.858,24.342,44.864,24.883,44.874,25.425z"/>
	<path fill="#574D8B" d="M42.503,21.568c0.002,3.896,0.004,7.791,0.006,11.688c-1.418-0.081-2.32-1.006-2.354-2.412
		c-0.004-0.23-0.014-0.461-0.023-0.691c-0.002-1.572-0.004-3.144-0.006-4.716c0.012-0.539,0.01-1.079,0.035-1.618
		C40.22,22.502,41.157,21.607,42.503,21.568z"/>
	<path fill="#80BEFE" d="M19.067,73.266c0.172-1.346,0.871-2.459,2.695-2.354c1.373,0.082,2.754,0.016,4.131,0.018
		c1.83,0.002,2.668,0.879,2.563,2.682c-0.266,1.232-1.068,1.949-2.336,1.979c-1.529,0.037-3.063,0.039-4.592,0
		C20.149,75.555,19.325,74.738,19.067,73.266z"/>
	<path fill="#80BEFE" d="M33.286,73.266c0.174-1.342,0.865-2.459,2.703-2.354c1.375,0.082,2.76,0.014,4.139,0.012
		c0.398,0.707,0.404,3.955,0.01,4.688c-1.367-0.004-2.734-0.004-4.102-0.012C34.437,75.59,33.562,74.842,33.286,73.266z"/>
	<path fill="#574D8B" d="M40.138,75.609c-0.004-1.563-0.006-3.123-0.01-4.686c0.018-0.412-0.016-0.834,0.063-1.232
		c0.242-1.26,1.119-1.842,2.311-2.055c0.234-0.084,0.488-0.213,0.471,0.227c-0.197,0.379-0.23,0.789-0.229,1.207
		c0.002,3.006,0.004,6.012-0.004,9.018c0,0.449,0.072,0.875,0.242,1.285c-1.348,0.34-2.715-0.686-2.814-2.127
		C40.128,76.703,40.146,76.154,40.138,75.609z"/>
	<path fill="#3E3373" d="M42.981,79.373c-0.365,0.01-0.486-0.164-0.486-0.525c0.01-3.516,0.01-7.029,0-10.545
		c0-0.379,0.168-0.514,0.508-0.521c0.285-0.195,0.541-0.059,0.791,0.078c1.039,0.568,1.514,1.92,1.08,3.063
		c-0.004,1.561-0.008,3.119-0.012,4.68c-0.006,0.518-0.008,1.033-0.02,1.551C44.819,78.291,44.126,79.117,42.981,79.373z"/>
	<path fill="#A998FE" d="M44.872,70.92c-0.02-0.459,0.043-0.938-0.072-1.371c-0.246-0.918-0.793-1.594-1.799-1.768
		c-0.137-0.154-0.328-0.121-0.5-0.145c0.006-1.521,0.012-3.043,0.02-4.563c0.176-0.303,0.512-0.334,0.789-0.467
		c0.822-0.393,1.307-1.018,1.313-1.953c0.012-1.797,0.014-3.594,0-5.389c-0.01-1.021-0.492-1.727-1.447-2.105
		c-0.236-0.094-0.508-0.137-0.676-0.363c0.002-1.541,0.006-3.08,0.008-4.619c0.027-0.086,0.08-0.146,0.16-0.188
		c1.57-0.531,1.961-1.072,1.965-2.75c0.004-1.432,0.002-2.865,0-4.297c-0.002-1.785-0.311-2.23-1.951-2.834
		c-0.076-0.041-0.135-0.102-0.174-0.18c-0.004-1.545-0.008-3.091-0.014-4.637c1.523-0.151,2.338-1.025,2.354-2.525
		c0.002-0.207,0.016-0.413,0.021-0.619c10.361-0.001,20.721-0.003,31.082-0.002c1.225,0,1.863,0.646,1.863,1.885
		c0.002,12.285,0.002,24.572,0,36.859c0,1.27-0.492,1.822-1.781,2.02c-0.152,0.023-0.313,0.016-0.467,0.016
		C65.333,70.924,55.103,70.922,44.872,70.92z"/>
	<path fill="#3E3373" d="M42.497,52.797c1.57,0.191,2.344,1.057,2.346,2.627c0.002,1.582,0.002,3.162,0.002,4.742
		c-0.002,1.824-0.535,2.494-2.326,2.908c-0.006-0.033-0.016-0.064-0.025-0.096c-0.252-0.305-0.244-0.674-0.244-1.035
		c-0.004-2.695-0.006-5.391,0.002-8.084c0-0.359-0.033-0.734,0.264-1.021L42.497,52.797z"/>
	<path fill="#574D8B" d="M42.505,48.178c-1.689-0.305-2.348-1.094-2.35-2.824c0-1.559,0-3.117,0-4.678
		c0.002-1.654,0.705-2.475,2.348-2.745l-0.006,0.063c0.291,0.291,0.25,0.672,0.25,1.029c0.008,2.682,0.008,5.363,0.002,8.045
		c-0.002,0.359,0.031,0.736-0.252,1.033L42.505,48.178z"/>
	<path fill="#574D8C" d="M42.513,52.838c-0.006,3.379-0.014,6.762-0.02,10.141c-1.416-0.074-2.318-0.977-2.332-2.377
		c-0.018-1.74-0.01-3.48-0.002-5.219C40.165,53.889,41.005,52.986,42.513,52.838z"/>
	<path fill="#3E3373" d="M42.499,48.102c0-3.369-0.002-6.738-0.002-10.107c1.344,0,2.328,0.926,2.342,2.256
		c0.02,1.867,0.02,3.734,0,5.604C44.823,47.188,43.837,48.113,42.499,48.102z"/>
</g>
</svg>
