<?xml version="1.0" encoding="utf-8"?>
<!-- Generator: Adobe Illustrator 16.0.0, SVG Export Plug-In . SVG Version: 6.00 Build 0)  -->
<!DOCTYPE svg PUBLIC "-//W3C//DTD SVG 1.1//EN" "http://www.w3.org/Graphics/SVG/1.1/DTD/svg11.dtd">
<svg version="1.1" id="Layer_1" xmlns="http://www.w3.org/2000/svg" xmlns:xlink="http://www.w3.org/1999/xlink" x="0px" y="0px"
	 width="85px" height="85px" viewBox="0 0 85 85" enable-background="new 0 0 85 85" xml:space="preserve">
<g>
	<path fill="#FFFFFF" stroke="#000000" stroke-width="0.0959" stroke-miterlimit="10" d="M71.407,40.532
		c0.037-0.019,0.074-0.037,0.111-0.058c5.955-3.147,9.781-12.647,3.395-17.345c-4.568-3.357-9.592-0.284-14.324,0.812
		c-6.055,1.404-3.254-6.248-3.531-9.425c-0.15-1.729-0.877-3.491-2.295-4.494c-6.061-4.293-6.572,7.819-11.221,7.449
		c-0.371-0.029-0.648-0.338-0.885-0.624c-4.26-5.135-8.209-10.391-15.744-7.191c-3.889,1.651-5.811,5.666-4.098,9.596
		c0.828,1.901,1.381,4.064-0.023,5.835c-2.738,3.453-7.965,3.325-11.791,4.621c-2.145,0.727-4.168,1.99-5.654,3.714
		c-2.75,3.187-3.412,7.54-2.396,11.552c0.52,2.062,1.459,4.036,2.705,5.759c1.363,1.889,3.137,3.871,2.391,6.38
		c-0.4,1.343-1.297,2.468-1.965,3.684c-0.664,1.207-1.229,2.469-1.498,3.825c-0.52,2.611,0.322,5.376,2.018,7.404
		c3.104,3.716,8.766,5.07,13.355,3.862c2.43-0.64,4.584-1.938,6.658-3.319c1.982-1.316,4.002-2.892,6.299-3.615
		c1.258-0.397,2.611-0.532,3.924-0.39c1.422,0.156,2.678,0.799,3.893,1.519c1.25,0.739,2.447,1.567,3.736,2.243
		c1.328,0.693,2.734,1.252,4.189,1.613c2.506,0.624,5.117,0.781,7.582-0.074c2.094-0.729,3.996-2.193,4.912-4.249
		c0.68-1.531,0.48-3.146,0.166-4.735c-0.271-1.364-1.244-3.712-0.5-5.003c1.219-2.112,5.141-1.032,7.068-1.559
		c2.389-0.648,3.529-1.562,4.17-3.876C73.435,49.466,64.769,43.938,71.407,40.532L71.407,40.532z"/>
	<path fill="#D1D3D4" d="M71.407,40.533c0.037-0.019,0.074-0.037,0.111-0.058c5.955-3.146,9.781-12.646,3.395-17.345
		c-4.568-3.358-9.592-0.285-14.324,0.812c-6.055,1.404-3.254-6.248-3.531-9.425c-0.15-1.729-0.877-3.49-2.295-4.494
		c-6.061-4.293-6.572,7.819-11.221,7.449c-0.371-0.029-0.648-0.338-0.885-0.624c-4.26-5.135-8.209-10.39-15.744-7.192
		c-2.879,1.224-4.674,3.74-4.721,6.56c0.184-0.444,0.395-0.877,0.645-1.291c1.197-1.97,3.086-3.536,5.291-4.239
		c1.957-0.624,4.291-0.562,5.967,0.739c1.566,1.218,2.373,3.177,3.086,4.965c0.42,1.054,1.041,2.058,2.025,2.67
		c0.795,0.495,1.734,0.661,2.66,0.554c2.016-0.23,3.883-1.587,5.104-3.154c1.172-1.505,2.133-3.231,3.637-4.447
		c0.641-0.52,1.408-0.95,2.256-0.938c0.799,0.012,1.549,0.427,2.105,0.979c0.861,0.852,1.088,2.066,1.01,3.234
		c-0.092,1.379-0.506,2.721-0.896,4.038c-0.367,1.235-0.807,2.512-0.871,3.811c-0.051,1.022,0.252,1.966,1.242,2.411
		c0.213,0.096,0.439,0.16,0.668,0.212c0.482,0.016,0.971-0.029,1.439-0.103c2.266-0.354,4.408-1.291,6.533-2.109
		c0.898-0.346,1.814-0.719,2.764-0.912c1.383-0.281,2.826-0.287,4.207,0.025c1.299,0.293,2.537,0.883,3.529,1.775
		c1.033,0.93,1.742,2.173,2.049,3.525c0.336,1.472,0.273,3.086-0.246,4.508c-0.467,1.267-1.297,2.354-2.32,3.222
		c-1.07,0.905-2.309,1.587-3.58,2.161c-0.654,0.296-1.318,0.564-1.988,0.819c-0.723,0.274-1.473,0.501-2.166,0.847
		c-1.227,0.613-2.27,1.62-2.473,3.028c-0.211,1.469,0.459,2.938,1.256,4.13c0.807,1.209,1.914,2.175,2.893,3.24
		c0.93,1.013,1.842,2.176,2.092,3.562c0.211,1.176-0.023,2.689-0.965,3.52c-0.789,0.693-1.887,0.708-2.867,0.519
		c-0.674-0.131-1.33-0.353-1.973-0.615c-1.654-0.251-3.154-1.246-4.846-1.33c-1.775-0.09-3.07,1.434-3.477,3.079
		c0.043,0.857,0.377,1.703,0.744,2.464c0.521,1.07,1.164,2.074,1.758,3.105c0.674,1.176,1.266,2.409,1.197,3.802
		c-0.143,2.94-2.982,5.03-5.674,5.537c-2.828,0.532-5.674-0.519-7.959-2.149c-1.561-1.118-2.951-2.527-4.059-4.12
		c-1.043-1.266-2.129-2.603-3.65-3.229c-2.207-0.911-4.797,0.037-6.781,1.093c-2.227,1.183-4.158,2.822-6.135,4.366
		c-1.959,1.529-3.994,3.002-6.324,3.911c-2.023,0.789-4.314,1.109-6.477,0.89c-2.059-0.209-4.119-0.97-5.523-2.548
		c-1.51-1.694-2.369-4.165-1.891-6.414c0.467-2.188,1.986-3.985,3.396-5.646c0.791-0.931,1.611-1.85,2.309-2.854
		c0.717-1.028,1.291-2.24,1.18-3.525c-0.094-1.081-0.688-2.041-1.381-2.846c-0.809-0.938-1.764-1.741-2.709-2.538
		c-0.979-0.826-1.924-1.656-2.709-2.676c-0.721-0.93-1.307-1.954-1.73-3.051c-0.455-1.181-0.697-2.428-0.746-3.685
		c-0.467,2.093-0.406,4.313,0.133,6.439c0.52,2.062,1.461,4.035,2.705,5.758c1.363,1.889,3.139,3.871,2.391,6.381
		c-0.4,1.342-1.297,2.468-1.963,3.683c-0.664,1.208-1.23,2.47-1.5,3.825c-0.52,2.611,0.324,5.376,2.018,7.404
		c3.104,3.716,8.766,5.07,13.355,3.862c2.43-0.639,4.586-1.938,6.66-3.317c1.98-1.318,4-2.894,6.297-3.617
		c1.26-0.397,2.613-0.531,3.926-0.389c1.422,0.155,2.678,0.799,3.891,1.519c1.25,0.739,2.449,1.566,3.738,2.242
		c1.328,0.694,2.734,1.252,4.189,1.613c2.506,0.624,5.115,0.781,7.582-0.073c2.094-0.729,3.996-2.194,4.91-4.25
		c0.682-1.53,0.48-3.146,0.166-4.735c-0.271-1.363-1.242-3.711-0.498-5.002c1.219-2.112,5.139-1.033,7.066-1.558
		c2.391-0.65,3.529-1.563,4.17-3.877C73.435,49.466,64.769,43.938,71.407,40.533L71.407,40.533z"/>
	<path fill="#FFFFFF" stroke="#000000" stroke-width="0.0959" stroke-miterlimit="10" d="M69.833,12.655
		c-0.264-1.404-1.283-2.564-3.156-2.89c-2.643-0.458-4.76,1.556-5.861,3.762c-0.449,0.896-0.65,1.96-0.33,2.91
		c0.648,1.911,3.051,2.694,4.883,2.381c1.41-0.239,2.596-1.111,3.432-2.246C69.7,15.351,70.067,13.906,69.833,12.655z
		 M77.884,43.369c-0.568-0.409-1.303-0.649-2.092-0.674c-2.623-0.087-3.965,2.944-2.258,4.951c1.664,1.958,4.736,1.163,5.383-1.244
		C79.271,45.085,78.782,44.016,77.884,43.369z M82.403,38.233c0.131-0.354,0.146-0.702-0.062-0.956
		c-0.084-0.104-0.217-0.15-0.346-0.186c-1.164-0.313-3.779,0.936-2.336,2.35c0.398,0.392,1.053,0.449,1.562,0.218
		C81.587,39.495,82.175,38.855,82.403,38.233z"/>
	<path fill="#E6E7E8" d="M25.175,25.853c-0.834,0.164-1.535,0.879-2.1,1.468c-0.244,0.254-0.467,0.522-0.688,0.796
		c-1.477,0.941-3.129,1.609-4.797,2.119c-2.166,0.662-4.41,1.134-6.506,2c-1.895,0.783-3.768,1.896-5.033,3.543
		c-1.227,1.601-1.572,3.688-0.74,5.551c0.648,1.452,2.734,4.184,4.402,2.259c0.564-0.651,0.67-1.584,0.809-2.401
		c0.062-0.368,0.109-0.751,0.242-1.104c0.027-0.069,0.115-0.229,0.223-0.388c0.193-0.293,0.422-0.559,0.67-0.809
		c1.76-1.769,4.43-2.274,6.611-3.324c1.289-0.622,2.531-1.348,3.721-2.145c1.021-0.685,2.072-1.408,2.873-2.355
		c0.869-1.028,1.416-2.245,1.57-3.587C26.536,26.598,26.261,25.64,25.175,25.853L25.175,25.853z M28.188,22.846
		c-0.004-0.095-0.014-0.196-0.035-0.291c0.004-0.128-0.006-0.255-0.043-0.376c-0.039-0.122-0.096-0.251-0.186-0.346
		c-0.092-0.102-0.199-0.208-0.322-0.274c-0.18-0.095-0.307-0.133-0.508-0.153c-0.188-0.019-0.375,0.036-0.549,0.1
		c-0.324,0.117-0.57,0.362-0.77,0.634c-0.078,0.104-0.131,0.229-0.186,0.346c-0.029,0.07-0.055,0.145-0.07,0.219
		c-0.059,0.25-0.09,0.5-0.018,0.752c0.062,0.223,0.203,0.446,0.408,0.563c0.027,0.017,0.053,0.027,0.078,0.039
		c0.164,0.166,0.389,0.267,0.627,0.253c0.305-0.018,0.594-0.141,0.828-0.334c0.15-0.083,0.287-0.185,0.396-0.307
		C28.042,23.449,28.2,23.152,28.188,22.846L28.188,22.846z"/>
</g>
</svg>
