<?xml version="1.0" encoding="utf-8"?>
<!-- Generator: Adobe Illustrator 16.0.0, SVG Export Plug-In . SVG Version: 6.00 Build 0)  -->
<!DOCTYPE svg PUBLIC "-//W3C//DTD SVG 1.1//EN" "http://www.w3.org/Graphics/SVG/1.1/DTD/svg11.dtd">
<svg version="1.1" id="Layer_1" xmlns="http://www.w3.org/2000/svg" xmlns:xlink="http://www.w3.org/1999/xlink" x="0px" y="0px"
	 width="85px" height="85px" viewBox="0 0 85 85" enable-background="new 0 0 85 85" xml:space="preserve">
<g>
	<g>
		<rect x="4.031" y="2.503" fill="#113F7A" width="76.939" height="79.997"/>
		<path opacity="0.4" fill="#FFFFFF" d="M80.97,11.461v28.48L4.031,44.865v-26.6C19.261,16.841,56.158,13.614,80.97,11.461z"/>
		<path opacity="0.4" fill="#FFFFFF" d="M80.97,21.281v20.062L4.031,54.687V28.086C19.261,26.662,56.158,23.435,80.97,21.281z"/>
		<polygon fill="#113F7A" points="80.971,62.704 4.029,62.704 4.029,39.359 16.772,30.445 18.986,32.237 35.873,19.692 
			38.305,21.351 41.531,19.126 48.256,24.304 58.228,14.599 74.073,31.718 76.727,29.455 80.971,33.417 		"/>
		<polyline opacity="0.3" fill="#333E63" points="27.35,61.329 49.045,33.021 47.969,61.329 		"/>
		<polyline opacity="0.3" fill="#333E63" points="47.969,66.357 52.582,53.604 62.831,61.108 54.923,67.543 64.209,67.543 
			66.185,52.27 67.848,43.619 74.634,69.856 		"/>
		<polygon opacity="0.3" fill="#333E63" points="76.727,29.455 74.073,31.718 71.958,36.96 74.222,38.651 72.304,44.865 
			72.841,50.84 79.709,32.238 		"/>
		<polyline opacity="0.3" fill="#333E63" points="6.356,63.067 22.945,44.865 20.485,55.352 15.65,62.384 18.986,62.704 
			25.797,52.27 25.736,62.247 		"/>
		<path fill="#A4B5CC" d="M80.971,82.499H4.029v-25.39c30.575,5.595,48.553-2.373,76.941,0.578V82.499z"/>
		<rect x="4.029" y="71.752" fill="#FFFFFF" width="76.941" height="10.747"/>
		<path fill="#FFFFFF" d="M76.727,77.144c0,0-15.323-14.585-34.227-14.585c-18.903,0-34.228,14.585-34.228,14.585
			c0,6.638,15.895,4.254,34.798,4.254S76.727,83.781,76.727,77.144z"/>
		<polygon opacity="0.3" fill="#333E63" points="18.986,32.237 16.199,35.619 14.787,46.35 30.546,27.517 30.546,35.774 
			36.961,26.817 38.305,21.351 35.873,19.692 		"/>
		<polygon opacity="0.3" fill="#333E63" points="58.228,14.599 48.256,24.304 44.879,35.078 50.262,28.163 64.112,37.718 
			58.602,26.736 54.88,24.384 		"/>
		<polygon fill="#FFFFFF" points="58.228,14.599 52.993,19.692 56.279,20.294 61.454,24.151 61.571,20.402 64.209,21.062 		"/>
		<polygon fill="#FFFFFF" points="35.873,19.692 31.773,22.737 34.514,23.838 37.434,20.757 		"/>
		<polygon fill="#FFFFFF" points="16.772,30.445 9.223,35.726 11.686,36.96 15.104,34.5 16.199,35.619 18.986,32.237 		"/>
		<ellipse opacity="0.3" fill="#333E63" cx="42.718" cy="66.357" rx="6.937" ry="1.632"/>
		<g>
			<path fill="#A43548" d="M51.4,37.132c-0.394,0-0.569,0-0.645,0c0,0,0.281,6.315-6.605,6.12l-0.242-0.795l0.54-1.442l-0.54-0.901
				l-0.748,1.352l-1.581-6.387h-0.631v7.198l-1.816-3.965l-0.722,0.533l2.462,5.255h0.002c-0.001,0.008-0.078,2.297-0.246,4.608
				c-1.137-0.078-1.981-0.933-2.563-1.827l0.345-1.354l-0.264-0.366l-0.481,1.029c-0.404-0.785-0.6-1.453-0.6-1.453
				s0.653,0-0.75-0.027c-0.232,3.9,4.04,6.285,4.04,6.285l-0.217,14.191l-0.014,0.842c2.356,1.242,5.463,0.084,5.463,0.084
				l-0.399-7.597l-0.712-13.374C46.224,45.009,51.421,44.038,51.4,37.132z"/>
			<path opacity="0.3" fill="#333E63" d="M40.783,57.698c-0.001,0.218,0.003,0.443,0.088,0.644c0.086,0.201,0.276,0.374,0.494,0.373
				c0.333-0.003,0.531-0.366,0.627-0.685c0.272-0.89,0.323-1.839,0.208-2.762c-0.074-0.596-0.623-1.78-1.155-0.734
				C40.644,55.33,40.789,56.821,40.783,57.698z"/>
			<path opacity="0.3" fill="#333E63" d="M42.955,52.82c0.021,0.217,0.048,0.444,0.177,0.619c0.062,0.084,0.152,0.155,0.255,0.163
				c0.146,0.014,0.28-0.102,0.337-0.237c0.056-0.136,0.054-0.288,0.048-0.435c-0.048-1.596-0.131-3.188-0.249-4.78
				c-0.048-0.646-0.091-1.423-0.498-1.955c-0.418,0.799-0.302,1.81-0.259,2.678C42.832,50.191,42.826,51.504,42.955,52.82z"/>
			<path opacity="0.3" fill="#333E63" d="M44.034,54.904c-0.413-0.701-1.347,0.999-0.477,1.25c0.17,0.048,0.354-0.057,0.449-0.206
				s0.117-0.332,0.124-0.509C44.138,55.256,44.128,55.062,44.034,54.904z"/>
			<path opacity="0.3" fill="#333E63" d="M45.588,66.111c0,0-3.107,1.158-5.463-0.084l0.014-0.842
				c0.497,0.463,1.192,0.716,1.859,0.632c0.196-0.028,0.399-0.078,0.547-0.211c0.126-0.119,0.203-0.28,0.267-0.441
				c0.344-0.82,0.554-1.69,0.624-2.574c0.062-0.765,0.028-1.558,0.33-2.253c0.169-0.393,0.428-0.729,0.701-1.045
				c0.231-0.272,0.477-0.533,0.723-0.778L45.588,66.111z"/>
		</g>
	</g>
	<path fill="#FFFFFF" d="M4.031,2.503v21.335c0,0,6.887,1.813,10.074-3.203c3.769,3.266,13.1-1.05,10.184-8.165
		c2.799,2.449,7.231,0.117,6.882-3.382c3.499,1.75,12.262,0.703,11.088-6.588C33.503,2.5,4.031,2.503,4.031,2.503z"/>
	<path fill="#FFFFFF" d="M51.4,2.503c0,0,2.281,5.302,9.396,3.786c1.737,2.224,3.413,0.272,3.413,0.272s-0.265,7.874,7.317,7.825
		c0.432,3.146,7.781,5.431,9.444,0c0-4.599-0.001-11.884-0.001-11.884H51.4z"/>
	<path opacity="0.3" fill="#333ED0" d="M4.031,2.503v14.056c0,0,9.805,0.248,10.074-7.792c4.227,0.124,3.237-2.969,3.237-2.969
		S21.757,7.49,23.198,2.5C18.579,2.5,4.031,2.503,4.031,2.503z"/>
	<path opacity="0.3" fill="#333ED0" d="M80.97,2.503v8.119c0,0-12.046,1.074-13.406-8.122C73.747,2.5,80.97,2.503,80.97,2.503z"/>
	<g>
		<circle fill="#FFFFFF" cx="12.129" cy="28.682" r="0.772"/>
		<circle fill="#FFFFFF" cx="15.432" cy="25.981" r="0.645"/>
		<circle fill="#FFFFFF" cx="20.406" cy="28.296" r="0.386"/>
		<circle fill="#FFFFFF" cx="31.2" cy="15.389" r="0.573"/>
		<circle fill="#FFFFFF" cx="27.803" cy="19.828" r="0.453"/>
		<circle fill="#FFFFFF" cx="45.624" cy="8.784" r="0.745"/>
		<circle fill="#FFFFFF" cx="9.781" cy="45.424" r="0.558"/>
		<circle fill="#FFFFFF" cx="69.799" cy="19.828" r="0.454"/>
		<circle fill="#FFFFFF" cx="65.225" cy="16.261" r="0.299"/>
		<circle fill="#FFFFFF" cx="72.281" cy="26.303" r="0.323"/>
		<circle fill="#FFFFFF" cx="77.227" cy="20.781" r="0.5"/>
		<circle fill="#FFFFFF" cx="76.28" cy="24.598" r="0.447"/>
		<circle fill="#FFFFFF" cx="60.428" cy="9.805" r="0.275"/>
		<circle fill="#FFFFFF" cx="42.752" cy="11.247" r="0.494"/>
		<circle fill="#FFFFFF" cx="66.742" cy="31.002" r="0.558"/>
		<circle fill="#FFFFFF" cx="63.84" cy="27.13" r="0.505"/>
	</g>
</g>
</svg>
