<?xml version="1.0" encoding="utf-8"?>
<!-- Generator: Adobe Illustrator 16.0.0, SVG Export Plug-In . SVG Version: 6.00 Build 0)  -->
<!DOCTYPE svg PUBLIC "-//W3C//DTD SVG 1.1//EN" "http://www.w3.org/Graphics/SVG/1.1/DTD/svg11.dtd">
<svg version="1.1" id="Layer_1" xmlns="http://www.w3.org/2000/svg" xmlns:xlink="http://www.w3.org/1999/xlink" x="0px" y="0px"
	 width="85px" height="85px" viewBox="0 0 85 85" enable-background="new 0 0 85 85" xml:space="preserve">
<g>
	<path fill="#EF6C00" d="M40.689,26.981c0.688,0,1.248-0.561,1.248-1.248l-1.248-1.25c-0.688,0-1.25,0.562-1.25,1.25
		S40.002,26.981,40.689,26.981z M36.318,44.405c0,0.688,0.562,1.25,1.248,1.25c0.688,0,1.25-0.562,1.25-1.25l-1.25-1.248
		C36.88,43.157,36.318,43.72,36.318,44.405z M26.887,33.163c0.688,0,1.25-0.561,1.25-1.248l-1.25-1.25
		c-0.687,0-1.248,0.562-1.248,1.25C25.639,32.665,26.2,33.163,26.887,33.163z M42.5,17.552c3.061-0.188,6.059-1.248,8.617-3.248
		l0.25,0.062c14.678,3.936,25.48,17.299,25.48,33.162c0,18.984-15.363,34.348-34.35,34.348c-18.984,0-34.348-15.361-34.348-34.348
		s15.363-34.348,34.348-34.348c0.312,0,0.562,0,0.875,0C42.875,14.616,42.562,16.054,42.5,17.552z"/>
	<path fill="#7CB342" d="M46.934,7.622c-1.623,1.623-2.811,3.561-3.561,5.559c-0.5,1.436-0.811,2.873-0.873,4.371
		c3.061-0.188,6.059-1.248,8.617-3.248c0.439-0.375,0.875-0.75,1.312-1.188c2.748-2.748,4.248-6.307,4.434-9.93
		C53.24,3.374,49.682,4.874,46.934,7.622z"/>
	<g>
		<path fill="#FB8C00" d="M40.689,26.981c-0.688,0-1.25-0.561-1.25-1.248s0.562-1.25,1.25-1.25l1.248,1.25
			C41.938,26.421,41.377,26.981,40.689,26.981z"/>
		<path fill="#FB8C00" d="M37.566,45.655c-0.687,0-1.248-0.562-1.248-1.25s0.562-1.248,1.248-1.248l1.25,1.248
			C38.816,45.093,38.254,45.655,37.566,45.655z"/>
		<path fill="#FB8C00" d="M28.137,31.915c0,0.688-0.562,1.248-1.25,1.248c-0.687,0-1.248-0.561-1.248-1.248s0.562-1.25,1.248-1.25
			L28.137,31.915z"/>
	</g>
	<path d="M42.5,82.501c-19.297,0-34.973-15.676-34.973-34.973S23.202,12.556,42.5,12.556c0.312,0,0.623,0,0.873,0
		c0.375,0,0.625,0.311,0.625,0.625c0,0.375-0.311,0.625-0.625,0.625c-0.311,0-0.561,0-0.873,0
		c-18.609,0-33.725,15.113-33.725,33.723c0,18.611,15.115,33.725,33.725,33.725S76.225,66.14,76.225,47.528
		c0-15.238-10.305-28.666-24.98-32.6c-0.312-0.062-0.562-0.438-0.438-0.75c0.061-0.312,0.438-0.5,0.75-0.438
		c15.299,4.061,25.916,17.986,25.916,33.785C77.473,66.825,61.797,82.501,42.5,82.501z"/>
	<path d="M42.5,18.177c-0.188,0-0.312-0.062-0.438-0.189c-0.125-0.125-0.188-0.311-0.188-0.5c0.062-1.561,0.375-3.059,0.938-4.559
		c0.811-2.186,1.998-4.121,3.684-5.809c2.748-2.748,6.434-4.371,10.367-4.621c0.188,0,0.375,0.062,0.5,0.188
		c0.125,0.127,0.188,0.312,0.188,0.5c-0.188,3.936-1.812,7.557-4.621,10.367c-0.438,0.438-0.875,0.875-1.373,1.25
		C48.934,16.802,45.811,17.989,42.5,18.177L42.5,18.177z M56.178,3.874c-3.311,0.312-6.434,1.812-8.807,4.186
		c-1.5,1.498-2.686,3.309-3.373,5.371c-0.375,1.123-0.688,2.311-0.811,3.496c2.748-0.25,5.371-1.312,7.557-3.061
		c0.438-0.311,0.875-0.686,1.248-1.123C54.365,10.308,55.803,7.247,56.178,3.874z"/>
	<path d="M40.002,18.302c-0.312,0-0.625-0.25-0.625-0.562c0-0.375,0.25-0.625,0.562-0.688c0.875-0.062,1.748-0.125,2.561-0.125
		c0.375,0,0.623,0.25,0.623,0.625s-0.25,0.625-0.623,0.625C41.688,18.177,40.877,18.239,40.002,18.302
		C40.064,18.302,40.002,18.302,40.002,18.302z"/>
	<path d="M35.818,77.38c-0.062,0-0.062,0-0.125,0c-6.621-1.498-12.615-5.246-16.862-10.492c-0.188-0.248-0.188-0.688,0.062-0.873
		c0.25-0.189,0.688-0.189,0.875,0.061c4.121,5.061,9.867,8.619,16.174,10.117c0.312,0.062,0.562,0.439,0.5,0.75
		C36.318,77.192,36.068,77.38,35.818,77.38z"/>
	<path d="M72.477,48.153c-0.375,0-0.625-0.25-0.625-0.625c0-4.809-1.188-9.619-3.496-13.865c-0.189-0.311-0.062-0.686,0.25-0.873
		c0.311-0.188,0.686-0.062,0.873,0.25c2.373,4.434,3.623,9.43,3.623,14.426C73.102,47.841,72.789,48.153,72.477,48.153z"/>
	<path d="M66.42,30.104c-0.189,0-0.375-0.062-0.5-0.25c-1.625-2.123-3.498-3.998-5.621-5.621c-0.25-0.188-0.312-0.625-0.125-0.875
		s0.625-0.311,0.875-0.125c2.186,1.688,4.184,3.686,5.807,5.871c0.189,0.25,0.125,0.686-0.123,0.875
		C66.67,30.042,66.545,30.104,66.42,30.104z"/>
	<path d="M45.498,18.302h-0.062c-0.938-0.125-1.938-0.125-2.936-0.125c-0.375,0-0.625-0.25-0.625-0.625s0.25-0.625,0.625-0.625
		c1.062,0,2.123,0.061,3.061,0.188c0.312,0.062,0.562,0.375,0.562,0.688C46.121,18.114,45.811,18.302,45.498,18.302z"/>
	<path d="M26.887,33.788c-1.062,0-1.873-0.811-1.873-1.873s0.812-1.875,1.873-1.875c0.375,0,0.625,0.25,0.625,0.625
		s-0.25,0.625-0.625,0.625s-0.625,0.25-0.625,0.625s0.25,0.625,0.625,0.625s0.625-0.25,0.625-0.625s0.25-0.625,0.625-0.625
		s0.625,0.25,0.625,0.625C28.762,32.978,27.949,33.788,26.887,33.788z"/>
	<path d="M40.689,27.606c-1.062,0-1.875-0.812-1.875-1.875c0-1.061,0.812-1.873,1.875-1.873c0.375,0,0.625,0.25,0.625,0.625
		s-0.25,0.625-0.625,0.625s-0.625,0.25-0.625,0.625s0.25,0.625,0.625,0.625s0.625-0.25,0.625-0.625s0.25-0.625,0.625-0.625
		s0.625,0.25,0.625,0.625C42.562,26.731,41.752,27.606,40.689,27.606z"/>
	<path d="M37.566,46.278c-1.062,0-1.873-0.811-1.873-1.873s0.812-1.873,1.873-1.873c0.375,0,0.625,0.25,0.625,0.625
		c0,0.373-0.25,0.623-0.625,0.623s-0.625,0.25-0.625,0.625s0.25,0.625,0.625,0.625s0.625-0.25,0.625-0.625s0.25-0.625,0.625-0.625
		s0.625,0.25,0.625,0.625C39.439,45.468,38.566,46.278,37.566,46.278z"/>
</g>
</svg>
