<?xml version="1.0" encoding="utf-8"?>
<!-- Generator: Adobe Illustrator 16.0.2, SVG Export Plug-In . SVG Version: 6.00 Build 0)  -->
<!DOCTYPE svg PUBLIC "-//W3C//DTD SVG 1.1 Tiny//EN" "http://www.w3.org/Graphics/SVG/1.1/DTD/svg11-tiny.dtd">
<svg version="1.1" baseProfile="tiny" id="Layer_1" xmlns="http://www.w3.org/2000/svg" xmlns:xlink="http://www.w3.org/1999/xlink"
	 x="0px" y="0px" width="85px" height="85px" viewBox="0 0 85 85" xml:space="preserve">
<g>
	<path fill-rule="evenodd" d="M21.55,82.5c-0.856-0.446-1.133-1.145-1.116-2.106c0.049-2.811,0.033-5.622,0.008-8.433
		c-0.008-0.899,0.238-1.598,1.148-1.895c0.54-0.176,0.264-0.569,0.223-0.835c-0.309-2.031-0.839-4.016-1.422-5.981
		c-0.983-3.316-1.454-6.678-1.396-10.148c0.074-4.396,0.066-8.795-0.093-13.192c-0.103-2.817,1.683-5.119,4.297-5.759
		c0.35-0.086,0.726-0.157,1.078-0.123c0.611,0.06,0.652-0.2,0.552-0.699c-0.871-4.355-1.71-8.717-2.592-13.069
		c-0.637-3.145,0.454-5.895,2.934-7.249c3.403-1.857,7.573-0.035,8.703,3.932c1.137,3.992,2.106,8.032,3.149,12.052
		c0.059,0.226,0.117,0.452,0.175,0.679c0.048,0.055,0.083,0.166,0.117,0.173c0.109,0.021,0.041-0.09,0.062-0.14
		c0.066-0.157,0.004-0.34,0.084-0.498c0.175-6.527,0.35-13.055,0.524-19.582c0.028-1.068,0.084-2.133,0.484-3.142
		c0.874-2.2,2.524-3.469,4.799-3.983c0.521,0,1.042,0,1.563,0c2.44,0.547,4.124,1.954,4.927,4.351
		c0.309,0.923,0.335,1.889,0.361,2.852c0.172,6.449,0.346,12.899,0.519,19.35c0.101,0.208,0.007,0.441,0.087,0.648
		c0.01,0.023-0.061,0.196,0.088,0.087c0.036-0.026,0.057-0.079,0.09-0.114c1.051-4.072,2.095-8.146,3.152-12.217
		c0.852-3.272,3.341-5.281,6.352-5.146c3.543,0.159,6.271,3.567,5.594,7.107c-1.32,6.915-2.664,13.827-4.085,20.723
		c-0.322,1.566-0.346,2.758,0.865,4.099c1.65,1.828,2.744,4.09,3.197,6.581c0.238,1.309,0.12,2.585-0.328,3.839
		c-1.101,3.086-2.822,5.775-5.125,8.102c-0.769,0.775-1.552,1.54-2.222,2.409c-0.983,1.275-1.447,2.741-1.604,4.322
		c-0.026,0.26-0.068,0.475,0.3,0.586c0.88,0.268,1.145,0.938,1.138,1.814c-0.021,2.864-0.034,5.728,0.007,8.591
		c0.014,0.937-0.283,1.604-1.125,2.018C45.195,82.5,33.373,82.5,21.55,82.5z"/>
	<path fill-rule="evenodd" fill="#9F9F9F" d="M50.901,29.673c0.059,0.221-0.099,0.355-0.265,0.516c0-0.379,0-0.758,0-1.137
		C50.822,29.218,50.638,29.54,50.901,29.673z"/>
	<path fill-rule="evenodd" fill="#9A9A9A" d="M37.46,29.207c0.014,0.322,0.028,0.646,0.046,1.04
		c-0.268-0.166-0.337-0.345-0.309-0.575C37.42,29.593,37.312,29.327,37.46,29.207z"/>
	<path fill-rule="evenodd" fill="#FEDBD4" d="M33.813,71.357c-0.328-1.017-0.764-1.353-1.809-1.355
		c-2.135-0.006-4.27-0.001-6.405-0.003c-0.277,0-0.562,0.074-0.605-0.38c-0.272-2.89-1.146-5.648-1.928-8.42
		c-0.839-2.971-1.055-5.98-0.88-9.094c0.704,0.211,1.377,0.508,2.116,0.604c3.191,0.419,6.21-2.021,6.294-5.246
		c0.074-2.836-0.138-5.674-0.329-8.504c-0.079-1.166-0.614-2.205-1.443-3.043c-0.316-0.319-0.457-0.673-0.538-1.086
		c-1.011-5.178-2.022-10.355-3.038-15.532c-0.351-1.787,0.495-3.387,2.018-3.796c1.511-0.406,3.11,0.571,3.627,2.316
		c0.48,1.617,0.86,3.265,1.282,4.899c1.161,4.501,2.322,9.003,3.479,13.505c0.188,0.733,0.522,1.356,1.209,1.737
		c1.604,0.892,3.436-0.11,3.529-1.985c0.107-2.157,0.136-4.319,0.193-6.479c0.177-6.663,0.35-13.326,0.531-19.988
		c0.012-0.468,0.04-0.94,0.127-1.397c0.27-1.418,1.497-2.485,2.811-2.482c1.32,0.004,2.532,1.069,2.801,2.494
		c0.082,0.433,0.113,0.879,0.125,1.319c0.233,8.563,0.46,17.126,0.688,25.688c0.007,0.234,0.01,0.469,0.022,0.702
		c0.075,1.425,0.796,2.276,2.051,2.43c1.249,0.152,2.296-0.575,2.649-1.904c0.674-2.535,1.319-5.077,1.974-7.617
		c0.896-3.47,1.788-6.941,2.683-10.411c0.351-1.362,1.025-2.486,2.48-2.837c2.017-0.487,3.799,1.418,3.375,3.592
		c-1.192,6.122-2.406,12.24-3.613,18.359c-0.226,1.146-0.46,2.293-0.688,3.44c-0.044,0.225-0.013,0.476-0.382,0.449
		c-1.581-0.114-3.092,0.359-4.63,0.595c-1.895,0.289-3.782,0.331-5.676,0.055c-3.544-0.518-5.698,1.758-5.059,5.347
		c0.205,1.149,0.642,2.196,1.413,3.077c0.264,0.301,0.229,0.423-0.094,0.634c-3.481,2.271-5.484,5.525-6.293,9.556
		c-0.097,0.481-0.123,0.982-0.129,1.475c-0.012,0.934,0.558,1.592,1.4,1.671c0.86,0.08,1.619-0.514,1.677-1.471
		c0.112-1.891,0.693-3.613,1.683-5.206c1.022-1.646,2.347-2.972,4.112-3.829c0.51-0.248,0.966-0.335,1.551-0.148
		c1.47,0.469,3.024,0.485,4.545,0.669c0.824,0.099,1.473-0.486,1.613-1.273c0.135-0.754-0.324-1.493-1.123-1.731
		c-1.004-0.3-2.054-0.317-3.086-0.427c-1.491-0.158-2.646-0.875-3.548-2.033c-0.479-0.615-0.688-1.331-0.656-2.115
		c0.043-1.064,0.284-1.318,1.31-1.142c3.057,0.527,6.081,0.263,9.063-0.434c1.827-0.427,3.146,0.1,4.164,1.613
		c1.003,1.493,1.932,3.021,2.377,4.788c0.229,0.908,0.174,1.8-0.153,2.682c-0.88,2.367-2.127,4.507-3.877,6.341
		c-0.719,0.753-1.436,1.509-2.155,2.261c-1.896,1.982-2.85,4.378-3.062,7.082c-0.039,0.494-0.173,0.653-0.686,0.646
		c-2.108-0.03-4.218-0.017-6.327-0.011c-1.046,0.003-1.491,0.349-1.8,1.359c-0.112,0.38-0.434,0.414-0.744,0.418
		c-0.978,0.014-1.957,0.062-2.934-0.028c-0.284-0.053-0.435-0.244-0.53-0.501c-0.21-0.568-0.55-1.008-1.211-1.02
		c-0.669-0.013-1.1,0.362-1.367,0.95c-0.042,0.094-0.099,0.181-0.161,0.266c-0.171,0.221-0.409,0.312-0.673,0.323
		c-0.924,0.041-1.849,0.05-2.772-0.006C34.125,71.749,33.862,71.688,33.813,71.357z"/>
	<path fill-rule="evenodd" fill="#FE9246" d="M33.813,71.357c0.136,0.185,0.323,0.211,0.541,0.209c0.93-0.01,1.86-0.009,2.79,0
		c0.243,0.002,0.462-0.011,0.604-0.24c0.269,0.118,0.219,0.39,0.279,0.602c0.171,0.602,0.59,0.902,1.183,0.974
		c0.558,0.066,0.938-0.222,1.22-0.675c0.135-0.216,0.171-0.499,0.425-0.635c1.049-0.01,2.099-0.019,3.147-0.029
		c0.273-0.003,0.566,0.063,0.771-0.203c0.077,1.263,0.598,1.762,1.868,1.764c2.576,0.006,5.152,0.017,7.729-0.01
		c0.517-0.006,0.652,0.145,0.643,0.65c-0.03,1.664-0.025,3.33-0.002,4.995c0.006,0.447-0.07,0.629-0.585,0.629
		c-10.096-0.017-20.191-0.018-30.288,0c-0.533,0.001-0.575-0.211-0.57-0.639c0.019-1.666,0.029-3.331-0.005-4.996
		c-0.011-0.521,0.152-0.644,0.652-0.639c2.576,0.023,5.152,0.014,7.728,0.009C33.208,73.121,33.721,72.63,33.813,71.357z"/>
	<path fill-rule="evenodd" fill="#FEDBD4" d="M22.009,43.332c0-1.17-0.001-2.34,0-3.51c0.002-1.498,1.009-2.644,2.359-2.687
		c1.563-0.05,2.756,1.031,2.829,2.589c0.109,2.339,0.219,4.679,0.295,7.019c0.054,1.659-0.963,2.864-2.387,2.903
		c-1.569,0.042-2.727-1.12-2.8-2.805c-0.052-1.17-0.112-2.339-0.168-3.509C22.094,43.333,22.051,43.332,22.009,43.332z"/>
	<path fill-rule="evenodd" fill="#010100" d="M40.856,71.592c-0.222,1.05-0.837,1.604-1.698,1.524
		c-0.881-0.081-1.364-0.695-1.41-1.791c0.303-0.924,0.863-1.372,1.646-1.318C40.202,70.063,40.681,70.582,40.856,71.592z"/>
</g>
</svg>
