<?xml version="1.0" encoding="utf-8"?>
<!-- Generator: Adobe Illustrator 16.0.0, SVG Export Plug-In . SVG Version: 6.00 Build 0)  -->
<!DOCTYPE svg PUBLIC "-//W3C//DTD SVG 1.1//EN" "http://www.w3.org/Graphics/SVG/1.1/DTD/svg11.dtd">
<svg version="1.1" id="Layer_1" xmlns="http://www.w3.org/2000/svg" xmlns:xlink="http://www.w3.org/1999/xlink" x="0px" y="0px"
	 width="85px" height="85px" viewBox="0 0 85 85" enable-background="new 0 0 85 85" xml:space="preserve">
<g>
	<path fill="#F44336" d="M50.371,13c5.812-0.625,12.125-1.125,18.75,1.875c14.438,6.688,18.125,25.938,3.312,47.938
		C60.994,79.752,49.744,81.875,42.559,81.875c-7.188,0-18.438-2.062-29.875-19.062c-14.812-22-11.188-41.311,3.312-47.938
		c6.375-2.938,12.438-2.562,18.062-1.938l0,0c2.938,0.312,5.812,0.688,8.438,0.688C44.996,13.625,47.621,13.312,50.371,13z"/>
	<path fill="#7CB342" d="M45.621,7.625c1.938-2.188,3.812-3.312,4.938-2.688c1.5,0.75,1.312,4.062-0.188,8l-16.25-0.062l0,0
		c-1.5-3.875-1.625-7.188-0.188-7.938c1.25-0.688,3.375,0.688,5.438,3.25c0.688-3.062,1.875-5.125,3.25-5.125
		C43.809,3.125,44.996,4.938,45.621,7.625z"/>
	<path d="M42.559,82.5c-11.688,0-21.625-6.312-30.375-19.312C3.872,50.812,0.809,38.562,3.559,28.627
		c1.812-6.562,6-11.5,12.125-14.312c6.5-3,12.625-2.625,18.375-2h0.062c0.562,0.062,1.125,0.125,1.625,0.188
		c2.375,0.25,4.625,0.5,6.75,0.5c2.188,0,4.438-0.25,6.875-0.562l0.875-0.125c6.312-0.688,12.5-1.061,19.062,1.939
		c6.125,2.811,10.311,7.75,12.125,14.311c2.75,9.939-0.25,22.189-8.625,34.562C64.184,76.188,54.246,82.5,42.559,82.5z
		 M27.621,13.125c-3.688,0-7.438,0.562-11.312,2.312c-5.75,2.688-9.75,7.312-11.438,13.5C2.184,38.5,5.184,50.438,13.309,62.5
		c12.625,18.75,25.188,18.75,29.312,18.75c4.123,0,16.688,0,29.312-18.75c8.125-12.062,11.125-23.939,8.438-33.562
		c-1.75-6.188-5.688-10.812-11.438-13.5c-6.25-2.875-12.312-2.5-18.439-1.812l-0.875,0.125c-2.438,0.25-4.75,0.562-7,0.562
		c-2.188,0-4.499-0.25-6.874-0.5c-0.5-0.062-1.062-0.125-1.625-0.188h-0.062C31.934,13.312,29.809,13.125,27.621,13.125z"/>
	<path d="M50.371,13.625c-0.062,0-0.125,0-0.25-0.062c-0.312-0.125-0.5-0.5-0.375-0.811c1.562-4.062,1.438-6.75,0.5-7.25
		c-0.688-0.375-2.25,0.311-4.188,2.561c-0.125,0.189-0.375,0.25-0.625,0.189c-0.25-0.062-0.375-0.25-0.439-0.439
		c-0.688-2.811-1.75-4.061-2.5-4.061c-0.811,0-1.938,1.438-2.625,4.625c-0.061,0.25-0.25,0.438-0.438,0.5
		c-0.25,0.061-0.5,0-0.625-0.189c-2.188-2.688-3.938-3.5-4.688-3.125c-0.938,0.5-1.062,3.189,0.5,7.189
		c0.125,0.311-0.062,0.688-0.375,0.811c-0.312,0.125-0.688-0.061-0.812-0.375c-1.312-3.5-2-7.625,0.125-8.75
		c1.375-0.75,3.312,0.189,5.438,2.5C39.807,4.127,41.057,2.5,42.557,2.5c1.375,0,2.562,1.438,3.375,3.938
		c1.938-1.938,3.688-2.688,4.938-2c2.125,1.125,1.439,5.25,0.062,8.812C50.871,13.438,50.621,13.625,50.371,13.625z"/>
	<path d="M31.184,75.438c-0.125,0-0.188,0-0.312-0.062c-4.812-2.5-9.5-6.812-13.812-12.875c-0.375-0.562-0.812-1.125-1.25-1.75
		c-0.188-0.312-0.125-0.688,0.188-0.875s0.688-0.125,0.875,0.188c0.375,0.625,0.812,1.189,1.188,1.75
		c4.188,5.875,8.75,10.062,13.375,12.5c0.312,0.189,0.438,0.562,0.25,0.812C31.621,75.312,31.371,75.438,31.184,75.438z"/>
	<path d="M74.934,49.5c-0.062,0-0.125,0-0.25-0.062c-0.312-0.125-0.5-0.5-0.375-0.811c2.188-5.562,3-10.689,2.438-15.375
		c-0.061-0.312,0.189-0.625,0.562-0.689c0.375-0.062,0.625,0.189,0.688,0.562c0.562,4.875-0.25,10.25-2.5,15.938
		C75.371,49.375,75.184,49.5,74.934,49.5z"/>
	<path d="M74.746,26c-0.188,0-0.438-0.125-0.562-0.312c-1.688-2.75-4.125-4.875-7.188-6.311c-0.312-0.125-0.438-0.5-0.312-0.812
		c0.127-0.312,0.5-0.438,0.812-0.312c3.312,1.562,5.938,3.812,7.75,6.812c0.188,0.312,0.062,0.688-0.188,0.875
		C74.996,26,74.871,26,74.746,26z"/>
</g>
</svg>
