<?xml version="1.0" encoding="utf-8"?>
<!-- Generator: Adobe Illustrator 16.0.0, SVG Export Plug-In . SVG Version: 6.00 Build 0)  -->
<!DOCTYPE svg PUBLIC "-//W3C//DTD SVG 1.1//EN" "http://www.w3.org/Graphics/SVG/1.1/DTD/svg11.dtd">
<svg version="1.1" id="Layer_1" xmlns="http://www.w3.org/2000/svg" xmlns:xlink="http://www.w3.org/1999/xlink" x="0px" y="0px"
	 width="85px" height="85px" viewBox="0 0 85 85" enable-background="new 0 0 85 85" xml:space="preserve">
<g>
	<path fill="#D4D4D4" d="M43.044,18.721C24.078,18.84,2.849,27.213,2.505,46.312c-0.133,7.143,2.879,13.842,10.254,19.732
		c6.963,5.555,15.762,8.334,28.955,8.439c19.924,0.152,31.199-7.068,36.58-14.676c3.668-5.184,4.324-10.334,4.189-14.279
		C81.962,30.338,62.911,18.588,43.044,18.721z"/>
	<path fill="#F6F6F6" d="M43.011,19.17C23.669,18.84,4.71,25.922,4.45,44.232C4.364,50.078,6.171,54.68,9.257,58.387
		c7.01,8.438,17.489,13.186,33.76,13.111c12.855-0.053,23.355-3.793,29.861-10.127c4.859-4.732,8.131-10.414,7.66-17.396
		C79.493,28.393,65.729,19.561,43.011,19.17L43.011,19.17z"/>
	<path fill="#AF5711" d="M46.599,37.145l20.951-0.293c0,0,3.523,2.807,3.305,9.281c-0.197,5.818-4.951,17.973-29.318,17.543
		c-24.514-0.438-27.672-18.455-27.672-18.455s3.555-7.064,7.123-7.064S46.599,37.145,46.599,37.145z"/>
	<path fill="#CF701D" d="M25.257,38.049l-9.069-1.416c0,0-3.118,3.277-3.277,8.439c-0.146,4.727,2.384,12.035,15.947,16.754
		c6.692,2.324,15.112,1.961,16.356,1.795c1.676-0.219,1.82-2.768-1.02-2.693c-2.258,0.061-7.712,0.363-14.332-1.82
		c-5.885-1.939-13.637-6.064-14.537-12.082C14.302,40.149,25.257,38.049,25.257,38.049L25.257,38.049z"/>
	<path fill="#F5B03E" d="M26.011,18.225l-6.606,2.092c0,0-0.589,1.615-1.06,3.945c-0.258,1.289,1.41,11.133,1.41,11.133
		l30.477,21.607l2.762,0.906c0,0,6.35-1.463,10.938-6.131c3.998-4.07,4.162-8.168,4.275-9.478c0.158-1.979-0.557-8.48-1.238-11.783
		c-0.873-4.217-2.258-10.691-3.422-12.293c-1.166-1.602-20.734-3.35-20.734-3.35L26.011,18.225z"/>
	<path fill="#F7C876" d="M43.687,37.506c0.219-0.51,3.729-2.256,3.729-2.256s1.727-0.152,2.674-0.299
		c0.947-0.145,2.416-0.535,2.416-0.535l1.072,23.353c0,0-1.74,0.471-2.912,0.623c-0.881,0.111-2.773,0.311-3.502,0.311
		s-3.039-6.639-3.039-6.639L43.687,37.506L43.687,37.506z"/>
	<path fill="#FBDF96" d="M15.532,44.781c0,2.172,1.311,5.893,8.877,10.189c9.956,5.645,23.508,3.699,23.508,3.699
		s-0.299-14.318-0.299-16.285c0-1.967-0.125-7.162-0.125-7.162s-13.34,1.178-22.654-3.621c-8.201-4.23-6.149-8.871-6.149-8.871
		s-1.615,6.037-2.211,11.352C15.937,38.963,15.532,42.307,15.532,44.781L15.532,44.781z"/>
	<path fill="#E07F14" d="M41.938,10.52c-12.657-0.219-22.567,4.732-22.771,11.418c-0.219,7.275,11.279,10.943,23.863,11.273
		c13.604,0.365,22.184-6.66,21.463-12.365C63.69,14.518,54.741,10.737,41.938,10.52z"/>
	<path fill="#FFFFFF" d="M56.185,15.502c-1.457,1.51,1.312,1.9,1.006,5.283c-0.371,4.098-5.375,5.713-5.229,7.215
		c0.219,2.205,8.99-0.965,9.697-6.971C62.269,15.915,57.079,14.571,56.185,15.502z"/>
	<path fill="#FFBA02" d="M50.438,28.26c0.588,1.047-2.809,2.641-9.428,2.602c-9.162-0.053-17.23-3.854-17.078-4.838
		c0.152-0.986,5.051,2.238,16.191,2.395C48.05,28.524,49.976,27.426,50.438,28.26z"/>
</g>
</svg>
