<?xml version="1.0" encoding="utf-8"?>
<!-- Generator: Adobe Illustrator 16.0.0, SVG Export Plug-In . SVG Version: 6.00 Build 0)  -->
<!DOCTYPE svg PUBLIC "-//W3C//DTD SVG 1.1//EN" "http://www.w3.org/Graphics/SVG/1.1/DTD/svg11.dtd">
<svg version="1.1" id="Layer_1" xmlns="http://www.w3.org/2000/svg" xmlns:xlink="http://www.w3.org/1999/xlink" x="0px" y="0px"
	 width="85px" height="85px" viewBox="0 0 85 85" enable-background="new 0 0 85 85" xml:space="preserve">
<g>
	<path fill="#010101" d="M71.679,31.794c-0.613,0-1.113-0.499-1.113-1.113V3.614c0-0.615,0.5-1.113,1.113-1.113
		c0.615,0,1.113,0.498,1.113,1.113v27.066C72.792,31.295,72.294,31.794,71.679,31.794z M61.968,31.794
		c-0.615,0-1.113-0.499-1.113-1.113V3.614c0-0.615,0.498-1.113,1.113-1.113s1.113,0.498,1.113,1.113v27.066
		C63.081,31.295,62.583,31.794,61.968,31.794z M57.22,31.794c-0.615,0-1.113-0.499-1.113-1.113V3.614
		c0-0.615,0.498-1.113,1.113-1.113s1.113,0.498,1.113,1.113v27.066C58.333,31.295,57.835,31.794,57.22,31.794z M76.536,26.249
		c-0.615,0-1.113-0.499-1.113-1.113V3.614c0-0.615,0.498-1.113,1.113-1.113c0.613,0,1.113,0.498,1.113,1.113v21.521
		C77.649,25.751,77.149,26.249,76.536,26.249z M66.823,26.249c-0.615,0-1.113-0.499-1.113-1.113V3.614
		c0-0.615,0.498-1.113,1.113-1.113s1.113,0.498,1.113,1.113v21.521C67.937,25.751,67.438,26.249,66.823,26.249z"/>
	<g>
		<path fill="#FCE2D1" d="M32.144,30.681c0,3.062-2.484,5.544-5.545,5.544h-1.045c-3.062,0-5.545-2.483-5.545-5.544l0,0
			c0-3.062,2.482-5.544,5.545-5.544h1.045C29.659,25.136,32.144,27.618,32.144,30.681L32.144,30.681z M64.763,30.681
			c0,3.062-2.48,5.544-5.543,5.544h-1.047c-3.062,0-5.545-2.483-5.545-5.544l0,0c0-3.062,2.482-5.544,5.545-5.544h1.047
			C62.282,25.136,64.763,27.618,64.763,30.681L64.763,30.681z"/>
		<path fill="#010101" d="M59.22,37.338h-1.047c-3.67,0-6.658-2.987-6.658-6.658s2.988-6.658,6.658-6.658h1.047
			c1.779,0,3.451,0.693,4.707,1.951c1.258,1.257,1.949,2.929,1.949,4.707C65.876,34.351,62.89,37.338,59.22,37.338z M59.22,26.249
			h-1.047c-2.443,0-4.432,1.987-4.432,4.431s1.988,4.431,4.432,4.431h1.047c2.443,0,4.43-1.987,4.43-4.431
			c0-1.184-0.461-2.296-1.297-3.133S60.403,26.249,59.22,26.249z M26.599,37.338h-1.045c-3.672,0-6.656-2.987-6.656-6.658
			s2.984-6.658,6.656-6.658h1.045c1.777,0,3.449,0.693,4.707,1.95c1.258,1.258,1.951,2.93,1.951,4.708
			C33.255,34.351,30.271,37.338,26.599,37.338z M26.599,26.249h-1.045c-2.443,0-4.432,1.987-4.432,4.431s1.988,4.431,4.432,4.431
			h1.045c2.443,0,4.432-1.987,4.432-4.431c0-1.183-0.461-2.296-1.299-3.133C28.896,26.71,27.782,26.249,26.599,26.249z"/>
	</g>
	<g>
		<path fill="#FEE167" d="M81.378,78.954v2.428H3.62v-2.428c0-13.089,10.609-23.717,23.715-23.717h30.328
			C70.769,55.237,81.378,65.865,81.378,78.954z"/>
		<path fill="#010101" d="M81.378,82.495H3.62c-0.615,0-1.113-0.499-1.113-1.113v-2.428c0-6.63,2.582-12.862,7.27-17.554
			c4.689-4.691,10.926-7.275,17.559-7.275h30.328c6.633,0,12.869,2.584,17.561,7.275c4.688,4.69,7.27,10.924,7.27,17.554v2.428
			C82.491,81.996,81.993,82.495,81.378,82.495z M4.733,80.268h75.531v-1.313c0-6.035-2.35-11.709-6.617-15.979
			c-4.27-4.271-9.945-6.624-15.984-6.624H27.335c-6.039,0-11.715,2.354-15.984,6.624c-4.268,4.271-6.617,9.943-6.617,15.979V80.268
			L4.733,80.268z"/>
	</g>
	<g>
		<path fill="#FCE2D1" d="M50.448,57.587c0,0-3.205,4.699-7.951,4.699c-5.02,0-7.949-4.699-7.949-4.699V40.592h15.898v16.995H50.448
			z"/>
		<path fill="#010101" d="M42.499,63.398c-5.576,0-8.762-5.011-8.895-5.224c-0.111-0.177-0.168-0.381-0.168-0.589V40.591
			c0-0.615,0.498-1.113,1.111-1.113h15.9c0.615,0,1.113,0.499,1.113,1.113v16.995c0,0.224-0.066,0.441-0.193,0.627
			C51.224,58.426,47.771,63.398,42.499,63.398z M35.661,57.24c0.648,0.893,3.129,3.933,6.836,3.933c1.699,0,3.395-0.702,5.039-2.088
			c0.885-0.746,1.506-1.485,1.799-1.864V41.706H35.661V57.24z"/>
	</g>
	<g>
		<path fill="#FCE2D1" d="M58.7,22.098v12.235c0,8.937-7.264,16.201-16.203,16.201c-4.467,0-8.518-1.808-11.447-4.753
			c-2.943-2.93-4.752-6.979-4.752-11.448V22.098c0-8.954,7.264-16.2,16.199-16.2c4.469,0,8.52,1.809,11.449,4.737
			c2.945,2.944,4.752,6.994,4.752,11.463H58.7z"/>
		<path fill="#010101" d="M42.499,51.647c-4.635,0-8.979-1.805-12.238-5.082c-3.271-3.255-5.076-7.601-5.076-12.232V22.098
			c0-9.546,7.768-17.313,17.312-17.313c4.625,0,8.971,1.799,12.236,5.063c3.273,3.272,5.078,7.624,5.078,12.25v12.235
			C59.812,43.881,52.046,51.647,42.499,51.647z M42.499,7.012c-8.32,0-15.088,6.768-15.088,15.086v12.235
			c0,4.035,1.572,7.82,4.426,10.659c2.84,2.857,6.625,4.43,10.662,4.43c8.318,0,15.088-6.77,15.088-15.088V22.099
			c0-4.031-1.572-7.822-4.428-10.675C50.315,8.577,46.528,7.012,42.499,7.012z"/>
	</g>
	<g>
		<path fill="#848C9E" d="M21.888,25.771c0,0,0.051-3.562,0-4.75c-0.16-3.869,0.018-11.229,4.412-14.228
			c2.252-1.535,5.318,0.664,5.318,0.664s0.279-3.844,10.879-3.844c10.604,0,20.084,4.856,20.084,14.2v8.467
			c0,0-3.887-0.369-3.887,3.842c0,0-2.809-6.76-4.062-7.388c0,0-12.971,3.128-21.131-1.363c0,0-1.986,2.199-5.02,2.199L26.3,30.123
			C26.3,30.122,23.919,26.408,21.888,25.771L21.888,25.771z"/>
		<path fill="#010101" d="M26.302,31.235c-0.059,0-0.119-0.005-0.18-0.015c-0.324-0.053-0.598-0.243-0.764-0.505
			c-0.838-1.305-2.609-3.508-3.805-3.882c-0.469-0.147-0.785-0.585-0.779-1.078c0-0.036,0.049-3.546,0.002-4.688
			c-0.123-2.924,0.053-5.521,0.52-7.719c0.742-3.484,2.213-6,4.377-7.477c0.719-0.488,1.551-0.737,2.471-0.737
			c1.133,0,2.207,0.387,2.975,0.757c0.289-0.402,0.711-0.844,1.334-1.273c2.039-1.406,5.42-2.119,10.045-2.119
			c5.654,0,10.844,1.341,14.621,3.774c4.303,2.773,6.578,6.765,6.578,11.54v8.467c0,0.313-0.133,0.612-0.365,0.823
			c-0.23,0.211-0.541,0.314-0.854,0.285l0,0c-0.002,0-0.053-0.003-0.129-0.003c-2.1,0-2.539,1.488-2.539,2.736
			c0,0.53-0.375,0.987-0.896,1.092c-0.52,0.104-1.043-0.174-1.246-0.665c-1.092-2.625-2.592-5.667-3.346-6.605
			c-1.377,0.288-5.064,0.964-9.367,0.964c-4.5,0-8.287-0.735-11.271-2.189c-0.812,0.672-2.35,1.695-4.385,1.921l-1.941,5.834
			C27.204,30.935,26.774,31.235,26.302,31.235z M23.011,25.057c0.836,0.468,1.74,1.276,2.697,2.411
			c0.074,0.088,0.146,0.176,0.217,0.262l1.5-4.51c0.152-0.455,0.578-0.762,1.057-0.762c2.479,0,4.182-1.818,4.197-1.837
			c0.348-0.384,0.908-0.475,1.361-0.226c2.754,1.518,6.428,2.286,10.916,2.286c5.076,0,9.373-1.019,9.416-1.029
			c0.256-0.062,0.525-0.03,0.76,0.086c0.582,0.292,1.352,1.031,3.006,4.438c0.125,0.26,0.248,0.518,0.365,0.769
			c0.344-0.466,0.74-0.798,1.107-1.031c0.633-0.403,1.303-0.597,1.859-0.686v-7.416c0-5.03-3.021-8.034-5.557-9.668
			c-3.42-2.205-8.186-3.419-13.416-3.419c-4.861,0-7.297,0.834-8.482,1.535c-1.027,0.605-1.246,1.173-1.285,1.309
			c0.006,0.41-0.219,0.734-0.584,0.932c-0.375,0.201-0.83,0.109-1.176-0.139c-0.012-0.008-1.43-1-2.826-1
			c-0.473,0-0.869,0.114-1.217,0.351c-2.85,1.942-4.207,6.528-3.926,13.263C23.038,21.855,23.022,23.94,23.011,25.057z"/>
	</g>
	<path fill="#010101" d="M67.325,82.501c-0.615,0-1.113-0.499-1.113-1.113V70.789c0-0.615,0.498-1.113,1.113-1.113
		s1.113,0.498,1.113,1.113v10.599C68.438,82.002,67.94,82.501,67.325,82.501z M17.673,82.501c-0.613,0-1.111-0.499-1.111-1.113
		V70.789c0-0.615,0.498-1.113,1.111-1.113c0.615,0,1.113,0.498,1.113,1.113v10.599C18.786,82.002,18.288,82.501,17.673,82.501z
		 M33.507,22.486c-0.314,0-0.627-0.132-0.848-0.389c-0.1-0.115-2.43-2.89-2.43-8.604c0-0.615,0.5-1.113,1.113-1.113
		s1.113,0.498,1.113,1.113c0,3.86,1.24,6.371,1.896,7.159c0.4,0.466,0.344,1.166-0.121,1.566
		C34.022,22.398,33.765,22.486,33.507,22.486z"/>
	<g>
		<path fill="#A7DEF2" d="M51.78,25.581c0-3.003,5.438-11.206,5.438-11.206s5.439,8.203,5.439,11.206
			c0,3.005-2.436,5.439-5.439,5.439C54.216,31.021,51.78,28.586,51.78,25.581L51.78,25.581z"/>
		<path fill="#010101" d="M57.22,32.134c-3.613,0-6.553-2.939-6.553-6.553c0-1.458,0.938-3.839,2.861-7.273
			c1.365-2.434,2.707-4.462,2.764-4.548c0.205-0.312,0.555-0.498,0.928-0.498s0.721,0.187,0.928,0.498
			c0.057,0.085,1.398,2.113,2.764,4.548c1.926,3.436,2.861,5.815,2.861,7.273C63.772,29.194,60.833,32.134,57.22,32.134z
			 M57.22,16.435c-1.957,3.136-4.326,7.48-4.326,9.146c0,2.386,1.941,4.326,4.326,4.326s4.326-1.94,4.326-4.326
			C61.546,23.916,59.177,19.571,57.22,16.435z"/>
	</g>
	<g>
		<path fill="#E6829E" d="M40.651,37.684c0,1.364-1.104,2.47-2.467,2.47c-1.365,0-2.471-1.105-2.471-2.47
			c0-1.362,1.105-2.47,2.471-2.47C39.546,35.215,40.651,36.321,40.651,37.684z M49.194,37.684c0,1.364-1.105,2.47-2.471,2.47
			c-1.363,0-2.471-1.105-2.471-2.47c0-1.362,1.105-2.47,2.471-2.47C48.089,35.215,49.194,36.321,49.194,37.684z"/>
		<path fill="#010101" d="M46.724,41.267c-1.975,0-3.582-1.607-3.582-3.583s1.607-3.583,3.582-3.583
			c1.977,0,3.582,1.607,3.582,3.583S48.7,41.267,46.724,41.267z M46.724,36.327c-0.748,0-1.355,0.608-1.355,1.356
			s0.607,1.357,1.355,1.357s1.357-0.609,1.357-1.357S47.472,36.327,46.724,36.327z M38.185,41.267c-1.977,0-3.582-1.607-3.582-3.583
			s1.605-3.583,3.582-3.583c1.975,0,3.582,1.607,3.582,3.583S40.159,41.267,38.185,41.267z M38.185,36.327
			c-0.748,0-1.357,0.608-1.357,1.356s0.609,1.357,1.357,1.357s1.354-0.609,1.354-1.357S38.931,36.327,38.185,36.327z"/>
	</g>
	<g>
		<path fill="#E6829E" d="M44.966,31.848v6.081c0,1.103-0.895,1.999-1.998,1.999h-0.939c-1.104,0-2-0.896-2-1.999v-4.199"/>
		<path fill="#010101" d="M42.968,41.04h-0.939c-1.717,0-3.113-1.396-3.113-3.112v-4.199c0-0.615,0.498-1.113,1.113-1.113
			s1.113,0.499,1.113,1.113v4.199c0,0.488,0.396,0.886,0.887,0.886h0.939c0.488,0,0.885-0.396,0.885-0.886v-6.081
			c0-0.615,0.5-1.113,1.111-1.113c0.615,0,1.113,0.499,1.113,1.113v6.081C46.079,39.644,44.685,41.04,42.968,41.04z"/>
	</g>
</g>
</svg>
