<?xml version="1.0" encoding="utf-8"?>
<!-- Generator: Adobe Illustrator 16.0.0, SVG Export Plug-In . SVG Version: 6.00 Build 0)  -->
<!DOCTYPE svg PUBLIC "-//W3C//DTD SVG 1.1//EN" "http://www.w3.org/Graphics/SVG/1.1/DTD/svg11.dtd">
<svg version="1.1" id="Layer_1" xmlns="http://www.w3.org/2000/svg" xmlns:xlink="http://www.w3.org/1999/xlink" x="0px" y="0px"
	 width="85px" height="85px" viewBox="0 0 85 85" enable-background="new 0 0 85 85" xml:space="preserve">
<g>
	<path fill="#FC4C59" d="M9.56,17.896c0,0-5.59,23.359-5.625,35.301C3.898,65.312,3.898,76.495,3.898,76.495H38.74l2.799-24.506
		c0.336-1.492,2.456-1.516,2.823-0.029l3.096,24.535h33.646V58.136c0-4.344-0.324-8.682-0.969-12.979
		c-0.746-4.969-1.984-13.439-3.926-27.262H9.56L9.56,17.896z"/>
	<g>
		<path fill="#E83A64" d="M32.158,63.685l-2.799,12.811h9.381l2.799-24.506C37.982,53.757,33.17,60.087,32.158,63.685z"/>
		<path fill="#E83A64" d="M80.135,45.157c-0.746-4.969-1.984-13.439-3.928-27.262h-9.381c1.941,13.822,3.182,22.293,3.928,27.262
			c0.645,4.295,0.969,8.633,0.969,12.977v18.361h9.381V58.134C81.104,53.792,80.779,49.454,80.135,45.157z"/>
	</g>
	<path fill="#7C54B8" d="M76.207,8.224H9.56c-1.539,0-2.787,1.248-2.787,2.787v4.377c0,1.541,1.248,2.789,2.787,2.789h66.647
		c1.541,0,2.789-1.248,2.789-2.789v-4.377C78.996,9.472,77.748,8.224,76.207,8.224z"/>
	<path fill="#674799" d="M76.207,8.224H65.459c1.539,0,2.787,1.248,2.787,2.787v4.377c0,1.541-1.248,2.789-2.787,2.789h10.748
		c1.541,0,2.789-1.248,2.789-2.789v-4.377C78.996,9.472,77.748,8.224,76.207,8.224z"/>
	<g>
		<circle fill="#FFDB6C" cx="12.039" cy="13.199" r="1.397"/>
		<circle fill="#FFDB6C" cx="17.658" cy="13.199" r="1.397"/>
		<circle fill="#FFDB6C" cx="23.279" cy="13.199" r="1.397"/>
		<circle fill="#FFDB6C" cx="28.898" cy="13.199" r="1.397"/>
		<circle fill="#FFDB6C" cx="34.517" cy="13.199" r="1.397"/>
		<circle fill="#FFDB6C" cx="40.138" cy="13.199" r="1.397"/>
		<circle fill="#FFDB6C" cx="51.377" cy="13.199" r="1.397"/>
		<circle fill="#FFDB6C" cx="45.758" cy="13.199" r="1.397"/>
		<circle fill="#FFDB6C" cx="56.996" cy="13.199" r="1.397"/>
		<circle fill="#FFDB6C" cx="67.762" cy="13.199" r="1.397"/>
		<circle fill="#FFDB6C" cx="62.143" cy="13.199" r="1.397"/>
		<circle fill="#FFDB6C" cx="73.383" cy="13.199" r="1.397"/>
		<circle fill="#FFDB6C" cx="34.517" cy="38.38" r="2.949"/>
		<circle fill="#FFDB6C" cx="49.98" cy="33.781" r="2.95"/>
		<path fill="#FFDB6C" d="M80.135,45.247c-0.145-0.951-0.305-2.029-0.484-3.25L52.93,76.585h11.77l16.326-21.98
			C80.895,51.472,80.6,48.349,80.135,45.247z"/>
	</g>
	<path fill="#FFB966" d="M79.65,41.972l-8.119,10.51c0.125,1.902,0.191,3.809,0.191,5.715v8.908l9.303-12.525
		C80.887,51.267,79.785,42.88,79.65,41.972z"/>
	<path fill="#FFDB6C" d="M3.933,53.284c0,0.303,0,0.602-0.002,0.9l16.293,22.4h11.77L11.611,49.647l-6.539-8.639
		C4.412,45.493,3.945,49.858,3.933,53.284z"/>
	<circle cx="12.039" cy="13.199" r="1.397"/>
	<circle cx="17.658" cy="13.199" r="1.397"/>
	<circle cx="23.279" cy="13.199" r="1.397"/>
	<circle cx="28.898" cy="13.199" r="1.397"/>
	<circle cx="34.517" cy="13.199" r="1.397"/>
	<circle cx="40.138" cy="13.199" r="1.397"/>
	<circle cx="51.377" cy="13.199" r="1.397"/>
	<circle cx="45.758" cy="13.199" r="1.397"/>
	<circle cx="56.996" cy="13.199" r="1.397"/>
	<circle cx="67.762" cy="13.199" r="1.397"/>
	<circle cx="62.143" cy="13.199" r="1.397"/>
	<circle cx="73.383" cy="13.199" r="1.397"/>
	<path d="M82.422,54.745c0-0.004,0-0.006,0-0.008c-0.062-4.631-2.836-22.586-4.648-35.469c1.535-0.621,2.621-2.125,2.621-3.881
		v-4.375c0-2.311-1.877-4.188-4.188-4.188H9.56c-2.309,0-4.186,1.877-4.186,4.188v4.375c0,1.711,1.031,3.184,2.506,3.834
		c-1.134,4.922-5.344,25.309-5.344,34.25C2.537,65.45,2.5,76.663,2.5,76.776c0,0.771,0.626,1.398,1.397,1.398h16.326h11.77h6.746
		c0.709,0,1.309-0.533,1.389-1.24l2.785-24.393c0.023-0.01,0.064-0.01,0.076-0.006l3.083,24.414
		c0.088,0.699,0.684,1.225,1.387,1.225h5.473h11.77h16.402c0.771,0,1.396-0.627,1.396-1.398V58.415
		C82.5,57.192,82.473,55.97,82.422,54.745z M5.318,58.661l12.16,16.717H5.296C5.297,72.626,5.302,66.12,5.318,58.661z M55.777,75.38
		l17.379-22.498c0.473-0.611,0.359-1.488-0.252-1.961c-0.609-0.473-1.488-0.359-1.961,0.252L52.244,75.38h-3.553l-2.943-23.314
		c-0.006-0.055-0.016-0.107-0.027-0.162c-0.322-1.297-1.432-2.162-2.764-2.162c-0.012,0-0.021,0-0.033,0
		c-1.35,0.016-2.453,0.908-2.748,2.225c-0.012,0.049-0.021,0.098-0.025,0.146L37.493,75.38h-4.804L12.838,49.147
		c-0.466-0.615-1.343-0.738-1.958-0.271s-0.736,1.344-0.271,1.959l18.574,24.547h-8.246L5.333,53.927c0,0,0.319-6.037,0.327-6.115
		c1.015-10.418,4.107-24.309,5.012-28.234h4.137c0.772,0,1.398-0.625,1.398-1.398c0-0.771-0.626-1.398-1.398-1.398H9.562
		c-0.768,0-1.391-0.623-1.391-1.389v-4.377c0-0.766,0.624-1.389,1.391-1.389h66.647c0.768,0,1.391,0.623,1.391,1.389v4.377
		c0,0.766-0.623,1.389-1.391,1.389H43.27c-0.002,0-0.004,0-0.006,0H25.37c-0.772,0-1.397,0.627-1.397,1.398s0.625,1.398,1.397,1.398
		h12.308c-0.289,0.555-0.602,1.203-0.919,1.947c-2.473,5.805-3.142,9.85-3.17,10.018c-0.003,0.018-0.005,0.035-0.007,0.053
		l-0.324,2.627c-1.785,0.541-3.088,2.201-3.088,4.16c0,2.396,1.951,4.348,4.348,4.348c2.397,0,4.348-1.951,4.348-4.348
		c0-1.854-1.165-3.438-2.801-4.062l0.289-2.354c0.056-0.318,0.729-4.066,2.979-9.348c0.605-1.42,1.193-2.453,1.559-3.041h1.781
		c1.577,1.672,2.762,3.486,3.518,5.4c0.637,1.605,1.195,3.807,1.502,5.113c-1.234,0.768-2.059,2.135-2.059,3.693
		c0,2.396,1.951,4.348,4.348,4.348c2.398,0,4.348-1.951,4.348-4.348c0-2.25-1.719-4.107-3.91-4.326
		c-0.324-1.387-0.922-3.727-1.627-5.51c-0.604-1.523-1.43-2.986-2.467-4.373h28.67c1.506,10.699,2.566,18.018,3.275,22.816v0.002
		c0.947,4.98,1.332,11.889,1.336,11.971L63.998,75.382h-8.221V75.38z M34.517,36.827c0,0,0,0,0.002,0l0,0
		c0.854,0.002,1.549,0.697,1.549,1.553s-0.695,1.551-1.551,1.551c-0.856,0-1.553-0.695-1.553-1.551
		C32.965,37.522,33.662,36.827,34.517,36.827z M49.98,32.229c0.855,0,1.551,0.697,1.551,1.553s-0.695,1.553-1.551,1.553
		c-0.857,0-1.553-0.697-1.553-1.553S49.123,32.229,49.98,32.229z M67.479,75.38l12.227-16.461V75.38H67.479z"/>
</g>
</svg>
