<?xml version="1.0" encoding="utf-8"?>
<!-- Generator: Adobe Illustrator 16.0.2, SVG Export Plug-In . SVG Version: 6.00 Build 0)  -->
<!DOCTYPE svg PUBLIC "-//W3C//DTD SVG 1.1 Tiny//EN" "http://www.w3.org/Graphics/SVG/1.1/DTD/svg11-tiny.dtd">
<svg version="1.1" baseProfile="tiny" id="Layer_1" xmlns="http://www.w3.org/2000/svg" xmlns:xlink="http://www.w3.org/1999/xlink"
	 x="0px" y="0px" width="85px" height="85px" viewBox="0 0 85 85" xml:space="preserve">
<g>
	<path fill-rule="evenodd" d="M70.847,74.462c-0.007-1.467-0.258-2.896-0.717-4.288c-1.942-5.892-7.282-9.859-13.499-10.001
		c-0.505-0.011-0.671-0.132-0.636-0.644c0.046-0.674,0.017-1.354,0.01-2.03c-0.014-1.339-0.688-2.004-2.01-2.035
		c-0.615-0.015-1.455,0.277-1.783-0.123c-0.31-0.379-0.05-1.192-0.121-1.806c-0.097-0.825,0.085-1.373,1.011-1.545
		c0.42-0.078,0.81-0.342,1.201-0.544c4.461-2.304,7.506-5.825,9.11-10.589c0.082-0.242,0.024-0.646,0.573-0.473
		c2.371,0.75,4.403-0.494,5.453-2.606c1.118-2.248,1.368-4.625,0.873-7.063c-0.389-1.914-1.266-3.528-3.201-4.309
		c-0.424-0.171-0.26-0.417-0.209-0.688c0.631-3.317,0.9-6.648,0.358-10.007c-0.474-2.938-1.514-5.612-3.667-7.754
		c-2.588-2.574-5.78-4.001-9.278-4.823c-1.092-0.256-2.204-0.424-3.308-0.633c-1.197,0-2.396,0-3.594,0
		c-0.156,0.117-0.313,0.117-0.469,0c-0.26,0-0.521,0-0.781,0c-0.043,0.172-0.187,0.141-0.31,0.154
		c-2.637,0.274-5.17,0.885-7.462,2.282c-0.304,0.185-0.631,0.207-0.971,0.236c-2.214,0.189-4.373,0.626-6.415,1.529
		c-3.185,1.408-5.501,3.596-5.986,7.203c-0.527,3.922-0.411,7.844,0.456,11.72c0.11,0.494,0.073,0.761-0.441,0.934
		c-0.445,0.15-0.78,0.502-1.156,0.781c-0.551,0.41-0.686,1.503-1.293,1.413c-0.56-0.083-0.995-0.92-1.512-1.396
		c-0.983-0.904-2.335-0.897-3.307,0.02c-0.605,0.572-1.211,1.15-1.755,1.779c-1.834,2.116-2.319,4.524-1.482,7.2
		c0.486,1.553,1.559,2.682,2.706,3.751c0.379,0.353,0.518,0.62,0.226,1.165c-0.684,1.273-1.005,2.667-1.003,4.125
		c0.001,1.822-0.001,3.645-0.005,5.468c-0.002,0.734-0.213,1.347-0.545,2.054c-0.77,1.64-0.743,3.558-0.022,5.19
		c0.347,0.785,0.557,1.475,0.565,2.282c0.006,0.599,0.025,1.199-0.004,1.796c-0.041,0.827,0.281,1.353,1.124,1.502
		c0.837,0.06,1.334-0.345,1.447-1.223c0.086-0.67,0.031-1.347,0.037-2.02c0.01-1.126,0.021-1.141,1.113-1.147
		c0.726-0.004,1.451,0.011,2.175-0.006c0.831,0.049,1.663,0.017,2.495,0.02c0.517,0.002,0.773,0.216,0.761,0.743
		c-0.006,0.26,0.004,0.521,0.004,0.78c0,5.589,0,11.179,0,16.769c0,0.52-0.007,1.04-0.003,1.56c0.005,0.525-0.235,0.745-0.756,0.746
		c-0.857,0.002-1.716-0.025-2.573,0.018c-0.702-0.033-1.404-0.008-2.106-0.014c-1.06-0.01-1.096-0.037-1.097-1.098
		c-0.004-3.459,0-6.919-0.003-10.378c0-0.441,0.019-0.887-0.133-1.313c-0.239-0.673-0.63-0.931-1.333-0.883
		c-0.861,0.169-1.163,0.701-1.158,1.563c0.024,4.388,0.023,8.775-0.001,13.164c-0.004,0.703,0.215,1.198,0.819,1.533
		c13.542,0,27.083,0,40.625,0c0.658-0.192,0.989-0.625,0.96-1.317c-0.289-0.896-0.652-1.194-1.552-1.259
		c-0.364-0.026-0.729-0.014-1.094-0.014c-8.853,0-17.705,0.001-26.558-0.002c-1.161,0-1.195-0.035-1.196-1.169
		c-0.002-4.062,0.01-8.124-0.012-12.186c-0.004-0.729,0.249-1.216,0.849-1.624c2.085-1.418,4.37-2.178,6.893-2.181
		c6.718-0.01,13.436,0.004,20.154-0.01c0.603-0.066,1.189,0.024,1.784,0.115c5.078,0.779,9.111,4.711,9.987,9.766
		c0.386,2.225,0.119,4.469,0.186,6.703c0.015,0.483-0.268,0.62-0.699,0.617c-0.911-0.005-1.823-0.003-2.733-0.003
		c-0.693-0.019-1.389-0.022-2.082,0.001c-0.99,0.034-1.354,0.349-1.596,1.328c0.017,0.632,0.296,1.065,0.928,1.233
		c2.656,0,5.313,0,7.969,0c0.621-0.373,0.808-0.917,0.795-1.635C70.827,78.73,70.857,76.596,70.847,74.462z M40.39,55.042
		c0.015,0.351-0.107,0.448-0.443,0.434c-0.545-0.024-1.094-0.019-1.64-0.004c-1.09,0.029-1.791,0.72-1.823,1.818
		c-0.023,0.806-0.007,1.614-0.005,2.421c0.001,0.239,0.037,0.452-0.338,0.452c-2.845,0.004-5.47,0.789-7.968,2.37
		c0-1.24,0-2.374-0.001-3.507c0-0.136,0.023-0.257,0.139-0.345c0.786-0.597,0.826-1.444,0.803-2.325
		c-0.02-0.755-0.002-1.51-0.005-2.266c-0.001-0.537-0.084-1.118-0.527-1.412c-0.636-0.422-0.566-0.975-0.524-1.687
		c0.348,0.317,0.637,0.584,0.929,0.848c2.632,2.369,6.549,2.541,9.3,0.31c0.743-0.603,1.187,0.014,1.76,0.127
		c0.555,0.109,0.309,0.575,0.326,0.892C40.406,53.791,40.363,54.418,40.39,55.042z"/>
	<path fill-rule="evenodd" fill="#4D4D4D" d="M47.414,2.5c-0.156,0.181-0.313,0.241-0.469,0C47.102,2.5,47.258,2.5,47.414,2.5z"/>
	<path fill-rule="evenodd" fill="#F3511E" d="M17.57,63.687c0.941-0.22,1.215-0.546,1.225-1.5c0.009-0.858,0.026-1.718-0.007-2.576
		c-0.018-0.457,0.15-0.576,0.582-0.561c0.961,0.034,1.925,0.025,2.887,0.034c0.285,0.295,0.252,0.672,0.252,1.032
		c0.006,6.328,0.006,12.655,0,18.983c0,0.359,0.035,0.737-0.252,1.031c-0.934,0.009-1.87-0.017-2.801,0.038
		c-0.577,0.034-0.671-0.193-0.669-0.71c0.02-3.866,0.013-7.733,0.009-11.601c-0.001-1.035-0.213-1.312-1.197-1.618
		C17.589,65.389,17.58,64.537,17.57,63.687z"/>
	<path fill-rule="evenodd" fill="#FE5722" d="M61.316,81.346c-0.88,0-1.76,0.001-2.64,0.001c-0.284-0.988-0.551-1.189-1.613-1.189
		c-9.347-0.001-18.693-0.008-28.041,0.014c-0.652,0.001-0.877-0.107-0.871-0.832c0.041-4.399,0.029-8.8,0.008-13.2
		c-0.002-0.498,0.148-0.813,0.54-1.109c1.987-1.501,4.216-2.465,6.694-2.489c7.028-0.069,14.058-0.019,21.086-0.015
		c1.688-0.006,2.924,0.923,4.099,1.978c2.408,2.164,3.933,4.816,4.456,8.031c0.094,0.571,0.091,1.141,0.092,1.712
		c0.003,1.641,0.005,3.281-0.001,4.922c-0.002,0.334,0.049,0.686-0.214,0.964c-0.669,0.008-1.337,0.019-2.005,0.024
		C61.866,80.164,61.623,80.345,61.316,81.346z"/>
	<path fill-rule="evenodd" fill="#F4BFB4" d="M50.375,27.035c-0.261,1.098-0.12,1.387,0.875,1.916
		c2.188,1.164,4.527,1.87,6.95,2.331c0.44,0.062,0.511,0.382,0.51,0.743c-0.015,3.596-0.062,7.179-1.677,10.528
		c-1.61,3.339-3.996,5.928-7.232,7.732c-0.408,0.227-0.871,0.318-1.294,0.509c-2.676,0.479-5.264,0.129-7.888-0.806
		c1.082-1.635,0.383-2.824-0.833-3.955c-1.256-1.168-2.434-2.42-3.652-3.629c-1.054-1.046-2.027-1.189-3.29-0.431
		c-0.304,0.182-0.438,0.12-0.639-0.095c-0.25-0.267-0.475-0.528-0.606-0.887c-0.62-1.695-1.03-3.432-1.05-5.242
		c-0.02-1.743-0.005-3.485-0.012-5.228c-0.001-0.317,0.033-0.586,0.265-0.854c3.69-4.263,6.841-8.875,9.088-14.226
		c0.296,0.686,0.543,1.27,0.8,1.85c1.364,3.073,3.197,5.823,5.646,8.143c0.691,0.655,1.046,0.683,1.856,0.176
		C49.128,25.766,49.733,26.427,50.375,27.035z"/>
	<path fill-rule="evenodd" fill="#7D4D3D" d="M50.375,27.035c-0.827-0.324-1.403-1.031-2.184-1.425
		c0.498-0.69,0.378-1.285-0.226-1.861c-2.643-2.525-4.5-5.557-5.772-8.97c-0.639-1.714-2.195-2.284-3.608-1.384
		c-0.447,0.285-0.682,0.707-0.872,1.166c-1.858,4.486-4.538,8.463-7.533,12.252c-0.467,0.59-0.76,0.676-1.372,0.152
		c-0.548-0.469-0.862-0.965-1.015-1.652c-0.811-3.642-0.928-7.324-0.482-11.005c0.333-2.754,2.184-4.386,4.605-5.453
		c1.851-0.816,3.807-1.202,5.813-1.349c0.662-0.049,1.282-0.205,1.847-0.55c1.905-1.162,4.018-1.671,6.196-1.941
		c2.282-0.282,4.563-0.242,6.832,0.158c0.099,0.018,0.19,0.073,0.285,0.111c1.718,0.514,3.172,1.483,4.539,2.61
		c1.87,1.54,3.032,3.525,3.702,5.825c0.813,2.788,0.845,5.632,0.611,8.496c-0.117,1.428-0.394,2.827-0.689,4.226
		c-0.242,1.138-1.15,1.744-1.899,2.48c-0.091,0.089-0.244,0.07-0.367,0.002c-2.281-0.238-4.405-0.992-6.423-2.038
		C51.622,26.5,51,26.466,50.375,27.035z"/>
	<path fill-rule="evenodd" fill="#704537" d="M58.787,28.923c0.864-0.743,1.79-1.391,2.085-2.637
		c0.661-2.797,0.913-5.628,0.743-8.48c-0.2-3.381-1.076-6.563-3.531-9.06c-1.313-1.335-2.896-2.344-4.618-3.108
		c-0.211-0.094-0.455-0.12-0.575-0.355c4.656,0.894,8.796,2.633,10.991,7.214c1.261,2.63,1.455,5.481,1.255,8.368
		c-0.117,1.683-0.303,3.353-0.67,5.002c-0.101,0.453-0.29,0.793-0.628,1.116c-0.39,0.373-0.809,0.791-1.005,1.273
		c-0.379,0.936-0.976,1.153-1.913,0.991C60.214,29.125,59.484,29.129,58.787,28.923z"/>
	<path fill-rule="evenodd" fill="#E54A19" d="M22.256,80.131c0-7.016,0-14.031,0-21.047c0.936-0.009,1.874,0.018,2.806-0.039
		c0.611-0.037,0.784,0.146,0.781,0.77c-0.025,5.307-0.015,10.612-0.015,15.919c0,1.274-0.021,2.549,0.011,3.823
		c0.012,0.487-0.148,0.627-0.62,0.608C24.233,80.127,23.244,80.14,22.256,80.131z"/>
	<path fill-rule="evenodd" fill="#ECB1AA" d="M48.507,50.794c0.906-0.646,1.942-1.068,2.846-1.733
		c3.819-2.813,6.159-6.515,6.841-11.223c0.279-1.926,0.33-3.87,0.32-5.816c-0.001-0.308-0.047-0.562-0.313-0.74
		c1.059,0.108,2.118,0.214,3.177,0.324c0.272,0.028,0.573-0.029,0.575,0.429c0.012,3.044,0.133,6.096-1.088,8.994
		c-2.212,5.252-6.103,8.482-11.661,9.708C48.978,50.787,48.739,50.776,48.507,50.794z"/>
	<path fill-rule="evenodd" fill="#F3511E" d="M64.913,80.132c0-1.977,0.039-3.952-0.006-5.928c-0.114-5.004-2.59-8.598-6.741-11.187
		c-0.535-0.334-1.144-0.264-1.685-0.492c5.265-0.204,10.521,4.019,11.713,9.386c0.509,2.288,0.254,4.604,0.308,6.908
		c0.031,1.336,0.006,1.34-1.331,1.336C66.418,80.153,65.665,80.14,64.913,80.132z"/>
	<path fill-rule="evenodd" fill="#F4BFB4" d="M18.833,51.874c-0.002-2.386-0.026-4.773,0.007-7.159
		c0.012-0.834,0.277-1.643,0.692-2.369c1.072-1.876,2.43-3.536,3.953-5.064c2.059,0.771,2.788,3.558,1.409,5.432
		c-0.508,0.69-1.046,1.359-1.606,2.008c-0.683,0.79-0.956,1.708-0.962,2.729c-0.008,1.221-0.007,2.441-0.001,3.662
		c0.003,0.602-0.181,0.917-0.861,0.849C20.591,51.873,19.706,52.049,18.833,51.874z"/>
	<path fill-rule="evenodd" fill="#ECB1AA" d="M18.833,51.874c0.883,0,1.768-0.02,2.65,0.009c0.479,0.016,0.641-0.159,0.627-0.632
		c-0.027-0.935,0.076-1.88-0.025-2.805c-0.216-1.968,0.547-3.507,1.84-4.901c0.57-0.615,1.151-1.234,1.345-2.136
		c0.282-1.308,0.038-2.409-0.947-3.329c-0.282-0.264-0.56-0.532-0.839-0.798c0.856-0.59,1.799-0.641,2.599-0.064
		c0.715,0.516,1.409,1.069,2.067,1.655c0.92,0.819,1.019,2.058,0.255,3.089c-0.587,0.792-1.217,1.555-1.844,2.317
		c-0.602,0.734-0.892,1.557-0.878,2.512c0.024,1.559,0.007,3.119,0.006,4.679c0,0.279,0.07,0.567-0.398,0.563
		c-2.105-0.019-4.21-0.01-6.315-0.019C18.929,52.014,18.881,51.923,18.833,51.874z"/>
	<path fill-rule="evenodd" fill="#FEC928" d="M31.335,50.634c-1.277-0.749-2.194-1.901-3.157-2.972
		c-0.373-0.414-0.302-1.203,0.101-1.747c0.571-0.772,1.201-1.5,1.785-2.263c0.222-0.289,0.386-0.269,0.604-0.016
		c0.628,0.733,1.446,0.968,2.38,0.885c1.012,0.082,2.477,1.81,2.358,2.773c-0.033,0.27-0.139,0.5-0.324,0.691
		c-0.723,0.743-1.422,1.515-2.218,2.181C32.438,50.523,31.985,50.945,31.335,50.634z"/>
	<path fill-rule="evenodd" fill="#E5A9A2" d="M68.199,32.978c-0.059,1.524-0.278,3.008-1.191,4.292
		c-0.633,0.889-1.436,1.149-2.375,0.873c-0.395-0.116-0.55-0.299-0.491-0.719c0.285-2.074,0.126-4.16,0.134-6.24
		c0.004-1.063,0.528-1.812,1.201-2.527c0.221-0.235,0.436-0.194,0.702-0.095c0.77,0.286,1.22,0.878,1.516,1.591
		C68.067,31.051,68.207,32.002,68.199,32.978z"/>
	<path fill-rule="evenodd" fill="#FEC928" d="M21.345,35.951c-0.639,0.817-1.279,1.635-1.917,2.452
		c-0.136,0.174-0.249,0.322-0.491,0.101c-1.355-1.238-2.517-2.574-2.458-4.571c0.048-1.64,0.768-2.932,2.03-3.946
		c0.956,0.029,2.308,1.635,2.128,2.532c-0.052,0.258-0.182,0.48-0.319,0.703c-0.436,0.708-0.395,1.042,0.148,1.664
		C20.769,35.232,21.203,35.472,21.345,35.951z"/>
	<path fill-rule="evenodd" fill="#E5A9A2" d="M42.727,53.036c2.367,0.41,4.667,0.406,7.03-0.005c0,0.276-0.022,0.509,0.004,0.736
		c0.131,1.118,0.073,2.005-1.377,2.285c-0.912,0.176-1.558,0.993-2.138,1.804c-0.838-1.149-1.883-1.927-3.241-2.221
		c-0.24-0.052-0.279-0.185-0.278-0.383C42.728,54.529,42.727,53.805,42.727,53.036z"/>
	<path fill-rule="evenodd" fill="#FEAA00" d="M31.335,50.634c0.665,0.049,1.134-0.353,1.569-0.749
		c0.691-0.63,1.327-1.32,1.999-1.973c0.448-0.434,0.482-0.98,0.183-1.419c-0.537-0.784-1.168-1.513-2.039-1.972
		c0.472-0.104,0.857-0.68,1.288-0.527c0.422,0.148,0.725,0.645,1.075,0.993c1.014,1.011,2.029,2.019,3.032,3.039
		c0.133,0.136,0.485,0.255,0.203,0.544c-1.214,1.247-2.354,2.614-4.274,2.772C33.284,51.433,32.253,51.274,31.335,50.634z"/>
	<path fill-rule="evenodd" fill="#E5A9A2" d="M28.194,35.868c-0.642-0.502-1.177-0.906-1.813-1.131
		c-0.182-0.064-0.237-0.167-0.176-0.352c0.412-1.248-0.119-2.185-1.044-2.938c-0.564-0.459-0.645-0.894-0.281-1.524
		c0.487-0.845,1.375-1.569,1.954-1.476c0.563,0.09,1.357,1.079,1.359,1.718C28.198,32.007,28.194,33.851,28.194,35.868z"/>
	<path fill-rule="evenodd" fill="#FEAA00" d="M21.345,35.951c-0.396-0.368-0.823-0.707-1.179-1.109
		c-0.454-0.513-0.546-1.066-0.075-1.668c0.603-0.769,0.57-1.277-0.139-1.946c-0.46-0.435-0.785-1.036-1.444-1.24
		c0.865-0.996,0.867-0.998,1.799-0.076c1.037,1.025,2.072,2.053,3.105,3.081c0.576,0.573,0.442,1.445-0.333,1.792
		C22.425,35.077,21.887,35.508,21.345,35.951z"/>
	<path fill-rule="evenodd" fill="#FEF6E5" d="M44.784,60.156c-1.884,0-3.678-0.007-5.472,0.007
		c-0.344,0.002-0.487-0.052-0.504-0.455c-0.081-1.896-0.097-1.896,1.789-1.895c0.468,0,0.94-0.03,1.403,0.023
		C43.372,57.993,44.253,58.778,44.784,60.156z"/>
	<path fill-rule="evenodd" fill="#FEF6E5" d="M47.733,60.156c0.599-1.581,1.598-2.312,3.133-2.34c0.779-0.014,1.56-0.009,2.34,0
		c0.16,0.002,0.428-0.095,0.439,0.17c0.028,0.675,0.035,1.353-0.007,2.026c-0.015,0.23-0.298,0.14-0.463,0.14
		C51.382,60.158,49.589,60.156,47.733,60.156z"/>
	<path fill-rule="evenodd" fill="#FEF6E5" d="M17.892,56.562c-0.011-0.567-0.007-1.137-0.039-1.703
		c-0.019-0.348,0.049-0.507,0.456-0.498c1.628,0.031,3.256,0.026,4.885,0.035c0.405,0.594,0.258,1.241,0.171,1.877
		c-0.031,0.226-0.184,0.366-0.433,0.361C21.252,56.598,19.569,56.731,17.892,56.562z"/>
	<path fill-rule="evenodd" fill="#E9E2D3" d="M17.892,56.562c1.558,0.001,3.116-0.011,4.674,0.01
		c0.461,0.006,0.669-0.128,0.639-0.618c-0.033-0.517-0.009-1.038-0.01-1.558c1.009-0.009,2.019-0.018,3.028-0.026
		c0.052,0,0.104,0.004,0.155,0c0.544-0.035,0.428,0.394,0.372,0.641c-0.129,0.564,0.427,1.603-0.332,1.642
		c-2.815,0.146-5.643,0.05-8.465,0.038C17.932,56.689,17.912,56.606,17.892,56.562z"/>
	<path fill-rule="evenodd" d="M42.729,70.516c0.002-1.944,1.582-3.504,3.538-3.495c1.945,0.008,3.51,1.599,3.488,3.546
		c-0.021,1.898-1.6,3.467-3.5,3.477C44.329,74.053,42.726,72.448,42.729,70.516z"/>
	<path fill-rule="evenodd" d="M46.199,44.875c-0.859,0.008-1.71-0.063-2.535-0.317c-0.693-0.214-1.059-0.794-0.907-1.405
		c0.157-0.629,0.722-0.989,1.442-0.84c1.366,0.284,2.721,0.285,4.087-0.001c0.715-0.15,1.282,0.215,1.438,0.845
		c0.151,0.607-0.219,1.189-0.913,1.402C47.961,44.82,47.083,44.883,46.199,44.875z"/>
	<path fill-rule="evenodd" fill="#FCC727" d="M47.41,70.543c-0.014,0.645-0.595,1.188-1.229,1.151
		c-0.617-0.037-1.117-0.575-1.106-1.193c0.01-0.656,0.56-1.165,1.226-1.135C46.924,69.395,47.423,69.924,47.41,70.543z"/>
</g>
</svg>
