<?xml version="1.0" encoding="utf-8"?>
<!-- Generator: Adobe Illustrator 16.0.2, SVG Export Plug-In . SVG Version: 6.00 Build 0)  -->
<!DOCTYPE svg PUBLIC "-//W3C//DTD SVG 1.1//EN" "http://www.w3.org/Graphics/SVG/1.1/DTD/svg11.dtd">
<svg version="1.1" id="Layer_1" xmlns="http://www.w3.org/2000/svg" xmlns:xlink="http://www.w3.org/1999/xlink" x="0px" y="0px"
	 width="85px" height="85px" viewBox="0 0 85 85" enable-background="new 0 0 85 85" xml:space="preserve">
<g>
	<path d="M21.531,65.296c6.627,2.406,13.156,2.117,19.598-0.705c0.357-0.156,0.551-0.418,0.734-0.73
		c4.615-7.998,9.232-15.992,13.855-23.984c0.201-0.348,0.277-0.682,0.236-1.092c-0.441-4.476-1.965-8.545-4.518-12.238
		c-0.109-0.159-0.23-0.311-0.33-0.475c-0.383-0.637-0.279-1.338,0.283-1.664c0.617-0.36,1.174-0.213,1.594,0.353
		c1,1.351,1.861,2.786,2.6,4.296c1.078,2.209,1.824,4.529,2.326,7.016c0.98-1.053,2.117-1.594,3.494-1.469
		c1.521,0.139,2.551,0.992,3.301,2.301c3.006,5.246,6.043,10.473,9.066,15.709c2.709,4.688,5.426,9.369,8.115,14.066
		c1.375,2.396,0.352,5.178-2.172,5.949c-0.439,0.135-0.92,0.197-1.381,0.197c-11.516,0.01-23.031,0.025-34.545-0.008
		c-2.359-0.006-3.982-1.551-4.142-3.746c-0.031-0.43,0.037-0.869,0.064-1.383c-7.037,2.322-13.928,2.029-20.875-0.975
		c0.383,0.699,0.691,1.246,0.982,1.803c0.412,0.787,0.262,1.436-0.395,1.771c-0.605,0.309-1.209,0.078-1.627-0.668
		c-0.953-1.701-1.902-3.406-2.828-5.123c-0.568-1.057-0.074-1.873,1.125-1.863c1.957,0.016,3.912,0.063,5.867,0.098
		c0.682,0.014,1.209,0.281,1.307,1c0.09,0.656-0.246,1.102-0.902,1.275c-0.283,0.102-0.588-0.012-0.869,0.082
		C21.117,65.218,21.625,65.208,21.531,65.296z"/>
	<path d="M13.509,37.364c1.426,0,1.42-0.002,1.922-1.367c0.303-0.825,0.623-1.647,1.1-2.391c0.225-0.351,0.158-0.566-0.133-0.832
		c-0.506-0.465-0.99-0.957-1.459-1.46c-0.537-0.579-0.557-1.194-0.012-1.754c1.248-1.284,2.514-2.551,3.795-3.8
		c0.574-0.561,1.162-0.545,1.752,0.001c0.504,0.468,0.994,0.954,1.459,1.461c0.266,0.291,0.482,0.345,0.838,0.133
		c1.02-0.604,2.115-1.054,3.26-1.358c0.42-0.11,0.51-0.309,0.498-0.689c-0.021-0.66-0.025-1.322-0.002-1.982
		c0.033-0.893,0.453-1.311,1.344-1.317c1.734-0.015,3.471-0.017,5.205,0c0.879,0.008,1.297,0.44,1.322,1.334
		c0.018,0.688,0.014,1.377-0.002,2.065c-0.006,0.326,0.094,0.481,0.434,0.57c1.172,0.309,2.291,0.77,3.336,1.387
		c0.363,0.213,0.574,0.131,0.834-0.148c0.447-0.486,0.92-0.95,1.398-1.405c0.627-0.595,1.213-0.627,1.813-0.043
		c1.281,1.249,2.546,2.517,3.794,3.8c0.535,0.549,0.508,1.184-0.027,1.756c-0.49,0.522-0.994,1.033-1.521,1.518
		c-0.254,0.232-0.256,0.42-0.094,0.697c0.631,1.072,1.094,2.218,1.41,3.416c0.092,0.342,0.244,0.426,0.564,0.418
		c0.688-0.021,1.377-0.019,2.066-0.004c0.865,0.019,1.309,0.396,1.324,1.24c0.031,1.791,0.023,3.582,0.002,5.371
		c-0.01,0.789-0.469,1.211-1.254,1.234c-0.689,0.021-1.379,0.033-2.066,0.006c-0.404-0.016-0.582,0.141-0.682,0.521
		c-0.303,1.145-0.752,2.24-1.365,3.254c-0.229,0.377-0.113,0.578,0.158,0.832c0.482,0.449,0.953,0.918,1.404,1.398
		c0.605,0.643,0.605,1.236-0.02,1.875c-1.197,1.219-2.406,2.424-3.625,3.621c-0.717,0.705-1.246,0.688-1.988-0.027
		c-0.436-0.422-0.891-0.828-1.277-1.291c-0.32-0.383-0.586-0.359-0.979-0.129c-0.975,0.57-2.014,1.012-3.113,1.281
		c-0.42,0.104-0.574,0.299-0.549,0.738c0.039,0.658,0.031,1.322,0.002,1.982c-0.035,0.85-0.439,1.258-1.295,1.268
		c-1.764,0.02-3.525,0.021-5.289,0c-0.848-0.01-1.254-0.432-1.283-1.277c-0.029-0.824,0.266-1.854-0.125-2.418
		c-0.379-0.553-1.443-0.633-2.207-0.926c-0.205-0.078-0.404-0.17-0.604-0.264c-1.326-0.615-1.324-0.617-2.334,0.396
		c-0.234,0.234-0.461,0.475-0.703,0.699c-0.674,0.629-1.23,0.648-1.873,0.021c-1.258-1.234-2.504-2.48-3.738-3.742
		c-0.547-0.559-0.545-1.178-0.014-1.75c0.467-0.504,0.957-0.99,1.457-1.461c0.273-0.256,0.383-0.457,0.154-0.828
		c-0.619-1.012-1.061-2.111-1.367-3.256c-0.107-0.396-0.283-0.533-0.68-0.52c-0.633,0.027-1.268,0.023-1.9,0.004
		c-1.014-0.033-1.396-0.412-1.408-1.426c-0.016-1.625-0.01-3.252-0.002-4.877c0.006-1.201,0.375-1.551,1.598-1.557
		C13.013,37.362,13.261,37.364,13.509,37.364z"/>
	<path d="M42.082,15.878c-0.393-0.743-0.732-1.34-1.033-1.957c-0.324-0.67-0.131-1.36,0.465-1.622
		c0.643-0.281,1.203-0.132,1.552,0.497c1.004,1.8,2.014,3.597,2.971,5.42c0.461,0.879-0.041,1.73-1.033,1.73
		c-2.091,0-4.185-0.058-6.275-0.133c-0.664-0.023-1.055-0.458-1.09-1.128c-0.033-0.627,0.463-1.11,1.148-1.155
		c0.301-0.021,0.605-0.004,0.941-0.004c-0.1-0.287-0.357-0.271-0.549-0.34C24.191,11.796,7.992,21.126,5.214,36.842
		c-1.223,6.917,0.24,13.333,4.232,19.144c0.699,1.02,0.748,1.711,0.119,2.168c-0.648,0.469-1.275,0.217-2-0.809
		c-11.541-16.342-2.344-39.491,17.268-43.41c5.711-1.143,11.275-0.577,16.646,1.719C41.626,15.715,41.779,15.765,42.082,15.878z"/>
	<path fill="#A5A5A5" d="M21.531,65.296c-0.18-0.066-0.361-0.133-0.543-0.199c0.012-0.029,0.023-0.061,0.037-0.09
		c0.447,0,0.895,0,1.342,0C22.16,65.313,21.724,64.952,21.531,65.296z"/>
	<path fill="#FECC05" d="M61.032,70.524c-5.479,0-10.959,0-16.439,0c-0.248,0-0.496,0.008-0.742-0.004
		c-1.691-0.074-2.388-1.314-1.546-2.781c1.931-3.361,3.875-6.715,5.814-10.07c3.754-6.5,7.508-13,11.264-19.498
		c0.979-1.695,2.408-1.709,3.385-0.02c5.68,9.834,11.354,19.668,17.025,29.504c0.924,1.604,0.207,2.859-1.656,2.865
		C72.435,70.532,66.733,70.524,61.032,70.524z"/>
	<path fill="#FECC05" d="M41.361,54.583c-0.307-0.361-0.455-0.563-0.629-0.738c-1.846-1.846-1.588-1.898-3.832-0.576
		c-1.098,0.645-2.301,1.037-3.543,1.309c-1.027,0.225-1.25,0.531-1.275,1.592c-0.016,0.654,0.283,1.504-0.117,1.914
		c-0.438,0.449-1.303,0.137-1.98,0.145c-1.33,0.01-1.145,0.176-1.145-1.117c0-2.256,0.1-2.189-2.051-2.709
		c-1.322-0.318-2.52-0.936-3.67-1.648c-0.908-0.564-1.293-0.521-2.035,0.195c-0.49,0.473-1,1.314-1.48,1.301
		c-0.51-0.014-0.998-0.844-1.488-1.326c-0.785-0.771-0.783-0.775,0.014-1.576c0.117-0.117,0.234-0.234,0.352-0.352
		c1.178-1.176,1.182-1.244,0.34-2.662c-0.75-1.26-1.309-2.598-1.619-4.037c-0.252-1.168-0.51-1.371-1.67-1.379
		c-2.049-0.016-2.049-0.016-2.049-2.055c0-0.191,0.02-0.387-0.002-0.578c-0.055-0.453,0.102-0.646,0.588-0.613
		c0.576,0.039,1.154,0.01,1.734,0.01c0.707,0,1.137-0.344,1.275-1.039c0.348-1.749,1.029-3.361,2.008-4.845
		c0.436-0.657,0.379-1.233-0.182-1.772c-0.039-0.039-0.08-0.076-0.115-0.119c-0.438-0.519-1.469-1.078-1.289-1.459
		c0.387-0.822,1.242-1.428,1.922-2.104c0.246-0.244,0.391,0.044,0.531,0.181c0.436,0.422,0.861,0.854,1.291,1.282
		c0.498,0.496,1.035,0.569,1.635,0.172c1.506-0.998,3.148-1.674,4.92-2.036c0.689-0.14,1.045-0.568,1.025-1.285
		c-0.002-0.027-0.002-0.055,0-0.082c0.059-0.731-0.313-1.904,0.146-2.104c0.813-0.354,1.877-0.131,2.836-0.15
		c0.352-0.007,0.299,0.25,0.301,0.463c0.004,0.605,0.01,1.211,0,1.817c-0.014,0.749,0.348,1.194,1.074,1.335
		c1.725,0.335,3.311,1.005,4.77,1.975c0.725,0.48,1.316,0.36,1.906-0.242c0.477-0.485,0.91-1.338,1.484-1.323
		c0.625,0.017,1.002,0.935,1.568,1.358c0.72,0.543,0.583,0.926-0.02,1.498c-1.6,1.515-1.576,1.547-0.496,3.488
		c0.673,1.211,1.142,2.5,1.427,3.852c0.17,0.811,0.643,1.168,1.455,1.141c0.496-0.016,0.996,0.039,1.486-0.014
		c0.611-0.066,0.746,0.189,0.707,0.744c-0.053,0.795,0.248,1.795-0.131,2.334c-0.381,0.541-1.439,0.145-2.197,0.176
		c-0.748,0.033-1.164,0.357-1.314,1.098c-0.348,1.717-1.005,3.313-1.978,4.768c-0.465,0.693-0.354,1.264,0.221,1.838
		c0.498,0.498,1.41,0.957,1.341,1.545c-0.063,0.564-0.91,1.031-1.392,1.557C41.796,53.966,41.619,54.243,41.361,54.583z"/>
	<path d="M64.583,48.159c-0.092,3.389-0.564,6.74-0.949,10.1c-0.17,1.498-1.146,2.295-2.635,2.266
		c-1.418-0.029-2.268-0.881-2.451-2.363c-0.482-3.902-0.957-7.805-0.969-11.746c-0.006-1.531,0.545-2.295,2.006-2.695
		c1.199-0.328,2.396-0.305,3.553,0.195c0.949,0.41,1.467,1.117,1.447,2.184C64.571,46.784,64.583,47.474,64.583,48.159z"/>
	<path d="M61.142,61.987c0.387,0,0.771-0.021,1.156,0.004c1.074,0.074,1.924,0.846,2.07,1.908c0.121,0.902,0.117,1.816,0.008,2.721
		c-0.139,1.143-1.01,1.934-2.174,1.988c-0.715,0.033-1.434,0.029-2.148,0.004c-1.295-0.047-2.203-0.939-2.287-2.248
		c-0.039-0.576-0.018-1.156-0.014-1.734c0.016-1.75,0.902-2.639,2.645-2.652c0.248-0.002,0.496,0,0.744,0
		C61.142,61.981,61.142,61.983,61.142,61.987z"/>
	<path d="M21.644,41.253c0.02-4.877,3.98-8.832,8.834-8.825c4.877,0.008,8.918,4.083,8.842,8.921
		c-0.076,4.898-4.02,8.783-8.898,8.762C25.541,50.089,21.625,46.136,21.644,41.253z"/>
	<path fill="#E5E5E5" d="M59.884,48.774c0-0.799,0.018-1.598-0.01-2.393c-0.012-0.352,0.102-0.506,0.447-0.508
		c0.107,0,0.217-0.041,0.326-0.053c1.418-0.156,1.592,0.006,1.586,1.395c-0.016,3.529-0.498,7.018-0.881,10.514
		c-0.021,0.184,0.014,0.439-0.238,0.461c-0.365,0.029-0.244-0.301-0.27-0.48C60.437,54.741,60.087,51.767,59.884,48.774z"/>
	<path fill="#E4E4E4" d="M62.044,65.356c0.354,1.156-0.477,0.855-1.092,0.957c-1.066,0.174-0.811-0.521-0.906-1.123
		c-0.17-1.061,0.494-0.85,1.119-0.918C62.104,64.165,62.233,64.616,62.044,65.356z"/>
	<path fill="#CB3737" d="M23.96,41.208c0.037-3.598,2.994-6.51,6.563-6.463c3.586,0.049,6.492,3.004,6.471,6.584
		c-0.02,3.631-2.965,6.502-6.631,6.471C26.753,47.767,23.923,44.853,23.96,41.208z"/>
</g>
</svg>
