<?xml version="1.0" encoding="utf-8"?>
<!-- Generator: Adobe Illustrator 16.0.0, SVG Export Plug-In . SVG Version: 6.00 Build 0)  -->
<!DOCTYPE svg PUBLIC "-//W3C//DTD SVG 1.1//EN" "http://www.w3.org/Graphics/SVG/1.1/DTD/svg11.dtd">
<svg version="1.1" id="Layer_1" xmlns="http://www.w3.org/2000/svg" xmlns:xlink="http://www.w3.org/1999/xlink" x="0px" y="0px"
	 width="85px" height="85px" viewBox="0 0 85 85" enable-background="new 0 0 85 85" xml:space="preserve">
<g>
	<path fill-rule="evenodd" clip-rule="evenodd" fill="#5C8FE5" d="M64.88,39.532c0.103,0.087,0.167,0.216,0.308,0.255
		c0.235,0.077,0.396,0.243,0.533,0.439c0.627,0.68,1.312,1.303,1.881,2.04c0.896,1.163,1.583,2.435,2.128,3.794
		c0.431,1.068,0.754,2.168,0.974,3.294c0.146,0.734,0.259,1.477,0.285,2.232c0.032,0.875,0.027,1.744-0.082,2.613
		c-0.246,1.963-0.911,3.731-2.388,5.121c-0.135,0.127-0.271,0.252-0.374,0.408c-0.25,0.322-0.623,0.478-0.961,0.675
		c-0.259,0.152-0.351,0.329-0.28,0.637c0.197,0.852,0.354,1.712,0.559,2.562c0.015,0.059,0.025,0.118,0.03,0.18
		c-0.005,0.139,0.051,0.267,0.068,0.4c0.015,0.121,0.051,0.252-0.109,0.314c-0.171,0.047-0.345,0.03-0.516,0.03
		c-6.472,0.001-12.942,0.001-19.412-0.001c-0.207,0-0.424,0.044-0.614-0.079c-0.115-0.136-0.094-0.302-0.094-0.46
		c-0.002-4.518-0.002-9.035,0-13.553c0-0.135-0.011-0.271,0.043-0.401c0.147-0.202,0.289-0.057,0.41,0.026
		c0.63,0.426,1.032,1.015,1.23,1.747c0.052,0.19,0.086,0.386,0.122,0.579c0.235,1.254,1.017,2.017,2.181,2.439
		c0.201,0.073,0.408,0.086,0.62,0.076c0.233,0.029,0.488-0.08,0.695,0.108c-0.034,0.191-0.197,0.152-0.314,0.155
		c-0.242,0.009-0.246,0.104-0.126,0.271c0.537,0.751,1.236,1.246,2.176,1.317c1.822,0.139,3.245-1.083,3.32-2.907
		c0.047-1.123-0.543-2.225-1.669-2.754c-0.135-0.064-0.27-0.123-0.402-0.193c-0.25-0.198-0.316-0.478-0.351-0.777
		c-0.021-0.181-0.066-0.359-0.113-0.537c-0.056-0.348-0.122-0.693-0.221-1.032c-0.188-0.666-0.376-1.333-0.541-2.006
		c-0.032-0.126-0.077-0.249-0.12-0.372c-0.471-1.799-1.756-2.726-3.44-3.231c-0.083-0.025-0.169-0.038-0.25-0.07
		c-0.869-0.243-1.755-0.242-2.645-0.231c-0.559,0.005-0.604-0.048-0.605-0.617c-0.011-1.691,0.015-3.383-0.015-5.074
		c-0.026-0.079-0.054-0.159-0.066-0.241c-0.007-0.04-0.002-0.078,0.011-0.116c0.194-0.237,0.462-0.361,0.749-0.45
		c0.104-0.022,0.211-0.059,0.322-0.047c0.454,0.215,0.909,0.425,1.412,0.502c0.037,0.007,0.071,0.017,0.105,0.027
		c0.139,0.049,0.286,0.026,0.43,0.056c0.239,0.075,0.488,0.057,0.731,0.047c0.309-0.013,0.522,0.092,0.722,0.343
		c0.304,0.383,0.622,0.759,0.986,1.091c0.108,0.099,0.225,0.196,0.252,0.354c0.009,0.16-0.096,0.275-0.16,0.407
		c-0.359,0.753-0.188,1.638,0.794,1.904c1.2,0.325,2.246,0.037,3.196-0.711c1.108-0.871,1.902-2.001,2.61-3.199
		c0.068-0.117,0.113-0.25,0.235-0.326c0.036-0.019,0.072-0.015,0.106,0.009c1.423,0.506,2.81,1.096,4.091,1.904
		c0.479,0.303,0.974,0.587,1.389,0.98c-0.006,0.102-0.083,0.146-0.162,0.183c-1.155,0.549-1.836,1.521-2.348,2.644
		c-0.293,0.642-0.44,1.321-0.507,2.019C62.019,42.242,62.774,40.438,64.88,39.532z"/>
	<path fill-rule="evenodd" clip-rule="evenodd" fill="#F8E3C4" d="M59.237,36.601c-0.021,0.012-0.042,0.016-0.066,0.012
		c-0.22,0.061-0.415-0.034-0.616-0.095c-0.635-0.253-1.298-0.415-1.946-0.622c-0.503-0.149-0.959-0.395-1.394-0.678
		c-0.232-0.154-0.235-0.301-0.011-0.416c0.651-0.332,0.905-0.875,0.896-1.575c0-0.062,0.014-0.123,0.028-0.183
		c0.225-0.668,0.559-1.291,0.811-1.946c0.127-0.326,0.208-0.654,0.197-1.009c-0.011-0.315-0.107-0.58-0.354-0.782
		c-0.128-0.105-0.237-0.222-0.218-0.403c0.068-0.627-0.302-1.018-0.749-1.354c-0.559-0.422-1.193-0.711-1.872-0.855
		c-0.721-0.152-1.436-0.324-2.138-0.542c-0.25-0.047-0.205-0.279-0.275-0.437c-0.156-0.203-0.291-0.054-0.402,0.041
		c-0.336,0.285-0.695,0.539-0.956,0.907c-0.133,0.189-0.305,0.352-0.522,0.454c-0.616,0.659-1.112,1.369-1.153,2.324
		c-0.025,0.567-0.218,1.111-0.325,1.667c-0.154,0.786-0.426,1.547-0.518,2.344c-0.09,0.757-0.178,1.521-0.09,2.286
		c0.023,0.194,0.051,0.375-0.178,0.465c-0.612,0.419-1.297,0.446-2.011,0.441c-2.234-0.016-4.468-0.027-6.697,0.005
		c-0.036,0.014-0.068,0.035-0.092,0.065c-0.015,0.034-0.028,0.069-0.039,0.105c-0.085,0.27-0.098,0.561-0.246,0.811
		c-0.265,0.455-0.618,0.798-1.148,0.92c-0.37,0.095-0.747,0.092-1.123,0.082c-0.11-0.004-0.212-0.034-0.302-0.102
		c-0.167-0.123-0.27-0.283-0.259-0.498c0.027-0.515-0.058-1.021-0.088-1.531c-0.013-0.037-0.021-0.074-0.03-0.111
		c-0.023-0.123-0.017-0.253-0.085-0.367c-0.023-0.043-0.051-0.087-0.059-0.136c-0.143-0.885-0.708-1.402-1.491-1.744
		c-0.141-0.061-0.314-0.088-0.394-0.251c-0.017-0.176-0.184-0.146-0.282-0.175c-1.077-0.323-2.135-0.333-3.151,0.23
		c-0.176,0.097-0.345,0.196-0.428,0.391c-0.201,0.294-0.383,0.605-0.668,0.834c-0.19,0.306-0.234,0.644-0.247,0.994
		c-0.014,0.377-0.091,0.448-0.465,0.466c-0.075,0.003-0.149,0.002-0.223,0.002c-5.032,0-10.064,0-15.097-0.002
		c-0.192,0-0.399,0.048-0.567-0.102c-0.443-0.083-0.778-0.373-1.099-0.645c-1.133-0.966-1.893-2.157-2.096-3.667
		c-0.31-2.31,0.486-4.165,2.305-5.581c0.841-0.655,1.812-1.001,2.891-1.101c1.551-0.142,2.933,0.241,4.142,1.198
		c1.184,0.936,1.954,2.14,2.17,3.66c0.051,0.36,0.101,0.384,0.409,0.201c0.182-0.107,0.369-0.199,0.556-0.296
		c0.228-0.087,0.44-0.208,0.668-0.298c1.896-0.782,3.868-1.194,5.923-1.192c0.05,0.09-0.021,0.137-0.07,0.184
		c-0.84,0.784-1.477,1.74-2.218,2.609c-0.525,0.616-0.988,1.285-1.541,1.874c-0.025,0.037-0.047-0.025-0.017,0.014
		c0.024,0.03,0.036-0.022,0.061-0.022c1.5-0.737,2.959-1.553,4.494-2.208c0.997-0.425,2.052-0.628,3.145-0.615
		c0.977,0.013,1.953-0.001,2.93,0.004c0.46,0.002,0.515,0.059,0.519,0.513c0.007,0.69-0.003,1.381,0.006,2.066
		c0.154,0.038,0.201-0.07,0.266-0.133c1.506-1.501,3.008-3.004,4.512-4.509c0.276-0.277,0.274-0.305-0.015-0.594
		c-1.329-1.331-2.657-2.657-3.984-3.989c-0.126-0.126-0.304-0.227-0.295-0.446c0.751-0.718,1.568-1.344,2.465-1.872
		c1.353-0.799,2.81-1.319,4.344-1.612c1.319-0.252,2.661-0.39,4.003-0.297c2.766,0.189,5.289,1.071,7.516,2.758
		c1.678,1.272,3.002,2.84,3.956,4.707c0.764,1.49,1.241,3.073,1.399,4.75c0.142,1.481,0.104,2.948-0.229,4.403
		C59.291,36.463,59.261,36.531,59.237,36.601z"/>
	<path fill-rule="evenodd" clip-rule="evenodd" fill="#E5C8AA" d="M67.394,63.606c-0.253-0.732-0.357-1.499-0.514-2.253
		c-0.162-0.77-0.144-0.773,0.535-1.193c0.229-0.143,0.479-0.256,0.652-0.474c1.089-0.936,1.9-2.06,2.337-3.44
		c0.036-0.116,0.094-0.226,0.139-0.339c0.056-0.114,0.142-0.204,0.229-0.292c0.986-0.957,2.01-1.874,3.149-2.647
		c0.217-0.146,0.354-0.371,0.569-0.511c0.163,0.03,0.28-0.062,0.406-0.139c0.395-0.24,0.781-0.498,1.252-0.579
		c1.157-0.584,2.366-1.009,3.68-0.955c0.95,0.04,1.793,0.364,2.328,1.218c0.411,0.657,0.396,1.393,0.25,2.11
		c-0.267,1.324-0.958,2.452-1.784,3.493c-1.771,2.231-3.988,3.911-6.527,5.179c-0.086,0.044-0.167,0.103-0.25,0.153
		c-0.745,0.526-1.613,0.775-2.461,1.071c-0.37,0.13-0.755,0.223-1.13,0.343c-0.106,0.025-0.214,0.025-0.318,0.027
		c-0.657,0-1.312,0.006-1.967-0.002c-0.184-0.002-0.385,0.001-0.421-0.255c-0.032-0.229,0.119-0.37,0.265-0.499
		c0.889-0.788,1.771-1.578,2.643-2.38c0.573-0.526,1.166-1.033,1.703-1.598c0.355-0.373,0.774-0.641,1.256-0.83
		c1.243-0.488,2.467-1.021,3.697-1.538c0.077-0.031,0.167-0.046,0.229-0.15c-0.137-0.052-0.239,0.028-0.342,0.068
		c-1.01,0.402-2.007,0.838-3.013,1.251c-0.111,0.045-0.257,0.153-0.338,0.038c-0.099-0.14,0.066-0.245,0.158-0.333
		c0.257-0.248,0.539-0.471,0.811-0.703c1.742-1.498,3.524-2.951,5.315-4.389c0.074-0.059,0.16-0.11,0.198-0.216
		c-0.143-0.044-0.212,0.062-0.291,0.125c-2.239,1.788-4.461,3.601-6.604,5.504c-0.866,0.771-1.694,1.586-2.546,2.374
		c-0.969,0.896-1.945,1.788-2.946,2.649C67.646,63.578,67.556,63.717,67.394,63.606z"/>
	<path fill-rule="evenodd" clip-rule="evenodd" fill="#C5A485" d="M74.519,52.482c-0.289,0.499-0.819,0.717-1.245,1.051
		c-0.858,0.673-1.654,1.415-2.465,2.141c-0.129-0.126-0.084-0.271-0.05-0.416c0.212-0.877,0.311-1.775,0.302-2.668
		c-0.017-1.55-0.205-3.087-0.659-4.583c-0.104-0.352-0.192-0.711-0.304-1.062c-0.036-0.198,0.099-0.287,0.237-0.377
		c1.017-0.658,2.026-1.327,3.047-1.978c0.111-0.071,0.244-0.121,0.304-0.291c-0.158-0.014-0.252,0.086-0.354,0.153
		c-0.997,0.667-2.01,1.308-3.017,1.959c-0.122,0.078-0.235,0.188-0.402,0.152c-0.061-0.071-0.093-0.152-0.097-0.245
		c0.629-1.134,1.326-2.228,2.014-3.326c0.687-1.101,1.439-2.156,2.18-3.221c0.056-0.079,0.131-0.151,0.131-0.317
		c-0.146,0.094-0.216,0.214-0.293,0.321c-1.396,1.935-2.675,3.945-3.89,5.998c-0.056,0.095-0.088,0.205-0.19,0.268
		c-0.208-0.181-0.255-0.453-0.359-0.687c-0.677-1.488-1.53-2.856-2.668-4.037c-0.026-0.027-0.043-0.061-0.054-0.097
		c0.113-0.361,0.342-0.623,0.695-0.769c1.136-1.135,2.381-2.111,3.906-2.679c1.106-0.412,2.238-0.526,3.372-0.159
		c1.399,0.455,2.097,1.542,2.445,2.891c0.398,1.533,0.307,3.079,0.05,4.623c-0.291,1.75-0.843,3.423-1.523,5.056
		c-0.163,0.787-0.597,1.455-0.952,2.158C74.646,52.409,74.596,52.463,74.519,52.482z"/>
	<path fill-rule="evenodd" clip-rule="evenodd" fill="#C5A485" d="M5.226,57.599c-1.334-2.127-2.31-4.396-2.642-6.899
		c-0.136-1.014-0.135-2.039,0.217-3.035c0.527-1.495,1.77-2.006,3.259-1.739c1.105,0.197,2.001,0.814,2.841,1.521
		c0.086,0.072,0.169,0.145,0.254,0.217c0.409,0.236,0.692,0.608,1.006,0.945c0.082,0.089,0.15,0.191,0.238,0.277
		c0.068,0.071,0.133,0.146,0.165,0.241c0.021,0.063,0.026,0.128,0.029,0.193c-0.004,1.215,0.026,2.43-0.015,3.645
		c-0.093,0.533-0.086,1.068-0.007,1.603c0.037,0.552,0.039,1.103,0.004,1.653c-0.115,0.246-0.202,0.097-0.259-0.031
		c-0.149-0.325-0.298-0.651-0.444-0.978c-0.787-1.764-1.759-3.427-2.775-5.064c-0.561-0.901-1.161-1.774-1.799-2.623
		c0.09,0.184,0.21,0.348,0.326,0.515c0.856,1.227,1.666,2.482,2.415,3.776c0.055,0.096,0.123,0.187,0.135,0.302
		c-0.001,0.079-0.025,0.144-0.104,0.176c-0.192,0.026-0.324-0.099-0.465-0.194c-0.648-0.441-1.321-0.844-1.986-1.26
		c0.696,0.458,1.356,0.972,2.087,1.371c0.703,0.388,1.155,0.953,1.487,1.675c0.485,1.051,1.001,2.09,1.393,3.184
		c0.015,1.42,0.028,2.839-0.007,4.258c-0.086,0.247-0.22,0.144-0.321,0.026c-0.179-0.204-0.354-0.413-0.537-0.612
		c-1.165-1.269-2.447-2.371-4.154-2.848C5.401,57.846,5.272,57.775,5.226,57.599z"/>
	<path fill-rule="evenodd" clip-rule="evenodd" fill="#C5A485" d="M35.854,23.556c1.387,1.393,2.771,2.788,4.159,4.178
		c0.562,0.566,0.567,0.562,0.009,1.118c-1.47,1.468-2.938,2.935-4.411,4.401c-0.08,0.08-0.146,0.245-0.283,0.185
		c-0.109-0.049-0.049-0.202-0.049-0.307c-0.006-0.693-0.011-1.385,0.002-2.077c0.004-0.241-0.073-0.322-0.316-0.32
		c-1.212,0.012-2.427-0.032-3.636,0.024c-1.078,0.048-2.111,0.353-3.087,0.831c-1.342,0.658-2.681,1.322-4.022,1.983
		c-0.07,0.013-0.099-0.015-0.081-0.085c1.057-1.309,2.107-2.621,3.173-3.923c0.224-0.273,0.501-0.503,0.752-0.754
		c1.433-1.246,3.099-1.949,4.984-2.146c0.558-0.067,1.115-0.138,1.682-0.122c0.387,0.011,0.417-0.033,0.424-0.423
		c0.005-0.418,0.004-0.837,0-1.256c-0.004-0.225,0.021-0.442,0.116-0.646c0-0.355,0-0.71,0-1.104
		C35.56,23.203,35.65,23.456,35.854,23.556z"/>
	<path fill-rule="evenodd" clip-rule="evenodd" fill="#523D3C" d="M10.481,53.004c0.007-1.261,0.015-2.522,0.021-3.783
		c0.054-0.014,0.095,0.005,0.119,0.056c0.077,0.19,0.048,0.39,0.048,0.585c0.002,4.641,0,9.28,0.003,13.921
		c0,0.181-0.047,0.372,0.078,0.536c0.118,0.095,0.258,0.073,0.392,0.073c7.589,0.002,15.179,0.002,22.768,0.001
		c0.085,0,0.173,0.001,0.257-0.019c0.038-0.018,0.073-0.042,0.103-0.074c0.036-0.054,0.074-0.104,0.137-0.132
		c0.066-0.018,0.128-0.004,0.188,0.031c0.126,0.089,0.271,0.111,0.422,0.11c1.124-0.008,2.248,0.025,3.369-0.02
		c0.117,0.045,0.218-0.02,0.323-0.054c2.636,0.01,5.27,0.025,7.901-0.01c0.207-0.127,0.126-0.334,0.126-0.506
		C46.74,59.36,46.738,55,46.74,50.64c0-0.197-0.008-0.396,0.011-0.593c0.007-0.047,0.021-0.091,0.045-0.132
		c0.084-0.077,0.154-0.098,0.197,0.037c-0.137,0.082-0.09,0.219-0.09,0.336c-0.005,4.611-0.002,9.224-0.002,13.835
		c0,0.099,0.013,0.197,0.017,0.297c0.14,0.084,0.291,0.04,0.435,0.04c6.551,0.002,13.103,0.002,19.653,0.002
		c0.15,0,0.298-0.004,0.445,0.006c3.227,0,6.453,0,9.678,0c0.149,0,0.297-0.009,0.444,0.011c0.208,0.025,0.354,0.134,0.357,0.354
		c0.002,0.229-0.149,0.32-0.363,0.33c-0.111,0.004-0.223,0.003-0.334,0.003c-23.165,0-46.33,0-69.494-0.003
		c-0.225,0-0.481,0.077-0.639-0.181c-0.06-0.219-0.034-0.43,0.232-0.436c0.979-0.023,1.957-0.008,2.937-0.012
		c-0.585-0.001-1.17,0.008-1.756-0.003c-0.453-0.008-0.907,0.045-1.358-0.033c0.027-0.026,0.053-0.051,0.08-0.076
		c0.228-0.073,0.462-0.038,0.691-0.03c0.698,0.022,1.393-0.057,2.089-0.079c0.338-0.011,0.368-0.211,0.368-0.461
		c0.002-0.069,0-0.138,0.002-0.207c-0.02-0.577-0.011-1.154-0.009-1.732c0-0.157-0.015-0.322,0.103-0.456
		c0.002-1.51,0.005-3.02,0.007-4.53c-0.05-0.195-0.147-0.392-0.004-0.587c0.002-0.596,0.002-1.19,0.002-1.787
		C10.437,54.037,10.441,53.521,10.481,53.004z"/>
	<path fill-rule="evenodd" clip-rule="evenodd" fill="#E5C8AA" d="M10.479,61.457c0.002,0.742,0.005,1.483,0.007,2.225
		c-0.146,0.021-0.221-0.092-0.309-0.173c-0.898-0.824-1.78-1.668-2.7-2.472c-0.87-0.763-1.779-1.48-2.676-2.213
		c0.811,0.667,1.623,1.33,2.43,2.003c0.134,0.11,0.261,0.228,0.385,0.348c0.075,0.073,0.192,0.162,0.107,0.277
		c-0.07,0.098-0.186,0.022-0.271-0.015c-0.385-0.167-0.776-0.314-1.168-0.468c0.526,0.196,1.026,0.46,1.562,0.631
		c0.422,0.134,0.728,0.417,1.025,0.707c0.528,0.518,1.112,0.977,1.615,1.522c0.004,0.062,0.002,0.122,0.013,0.183
		c0.056,0.318-0.06,0.419-0.394,0.411c-0.957-0.022-1.913-0.003-2.87-0.001c0.264-0.154,0.553-0.052,0.829-0.066
		c0.381-0.02,0.764-0.004,1.151-0.025c-0.569-0.201-1.127-0.427-1.663-0.706c-1.284-0.668-2.409-1.529-3.271-2.707
		c-0.32-0.439-0.586-0.912-0.719-1.446c-0.258-1.047,0.305-1.761,1.377-1.75c0.118,0.001,0.256,0.069,0.285-0.123
		c0.086,0.091,0.183,0.157,0.307,0.19c1.808,0.491,3.157,1.643,4.355,3.016C10.079,61.026,10.28,61.24,10.479,61.457z"/>
	<path fill-rule="evenodd" clip-rule="evenodd" fill="#463434" d="M7.152,64.943c0.056,0.118,0.153,0.152,0.274,0.149
		c0.099-0.004,0.197-0.001,0.297-0.001c23.184,0,46.366,0,69.551,0c0.124,0,0.245,0.003,0.37-0.005
		c0.153-0.011,0.209-0.11,0.209-0.252s-0.049-0.244-0.205-0.256c-0.111-0.009-0.223-0.007-0.334-0.007
		c-3.141,0-6.279,0.001-9.42-0.002c-0.144,0-0.3,0.056-0.424-0.069c0.16-0.116,0.349-0.107,0.532-0.108
		c3.147-0.021,6.293,0.052,9.44,0.032c0.135-0.001,0.271-0.01,0.392,0.076c0.031,0.027,0.062,0.057,0.094,0.084
		c0.09,0.17,0.081,0.338,0,0.506c-0.146,0.219-0.372,0.154-0.573,0.154c-6.155,0.003-12.312,0.003-18.465,0.003
		c-17.079,0-34.159,0-51.238-0.002c-0.238,0-0.504,0.057-0.643-0.229C7.04,64.96,7.071,64.901,7.152,64.943z"/>
	<path fill-rule="evenodd" clip-rule="evenodd" fill="#E4C8AC" d="M66.439,33.219c0,0.736-0.285,1.348-0.862,1.794
		c-0.458,0.354-1.143,0.335-1.635,0.007c-0.58-0.383-0.723-0.948-0.614-1.586c0.082-0.466,0.278-0.888,0.629-1.229
		c0.46-0.45,1.034-0.57,1.626-0.322C66.152,32.122,66.438,32.566,66.439,33.219z"/>
	<path fill-rule="evenodd" clip-rule="evenodd" fill="#E4C8AB" d="M60.414,29.309c0.064-0.614,0.323-1.323,1.11-1.712
		c0.86-0.425,1.986,0.271,2.018,1.23c0.021,0.666-0.184,1.239-0.65,1.713c-0.471,0.475-1.008,0.562-1.662,0.288
		C60.669,30.593,60.412,30.176,60.414,29.309z"/>
	<path fill-rule="evenodd" clip-rule="evenodd" fill="#E3C8AC" d="M60.558,33.55c-0.104,0.003-0.169-0.048-0.196-0.14
		c-0.034-0.122,0.013-0.212,0.115-0.284c0.437-0.302,0.866-0.607,1.303-0.907c1.351-0.925,2.7-1.852,4.057-2.769
		c0.173-0.116,0.392-0.417,0.584-0.135c0.195,0.284-0.167,0.373-0.336,0.489c-1.732,1.197-3.47,2.384-5.205,3.576
		C60.776,33.45,60.68,33.527,60.558,33.55z"/>
	<path fill-rule="evenodd" clip-rule="evenodd" fill="#F8E3C4" d="M10.341,48.927c-0.396-0.421-0.792-0.843-1.187-1.265
		c0.282-0.615,0.315-1.298,0.523-1.934c0.048-0.148,0.037-0.316,0.146-0.445c0.14-0.309,0.187-0.646,0.297-0.966
		c0.003-0.163,0.045-0.315,0.146-0.447c0.194,0.027,0.176,0.188,0.176,0.313c0.012,1.479,0.01,2.96,0.003,4.439
		C10.443,48.734,10.435,48.847,10.341,48.927z"/>
	<path fill-rule="evenodd" clip-rule="evenodd" fill="#FDEAD2" d="M12.195,36.531c5.253,0,10.508-0.001,15.76-0.002
		c0.485,0,0.48,0,0.492-0.472c0.008-0.349,0.075-0.682,0.277-0.978c0.035-0.051,0.067-0.068,0.105-0.008
		c0.075,0.104,0.048,0.213,0.016,0.32c-0.092,0.308-0.161,0.618-0.154,0.944c0.007,0.283-0.145,0.433-0.43,0.442
		c-0.062,0.002-0.124,0.004-0.187,0.004c-5.763-0.001-11.525,0.004-17.29-0.002c-0.098-0.004-0.194-0.013-0.273-0.081
		c0.098-0.171,0.261-0.079,0.394-0.094C11.333,36.556,11.773,36.69,12.195,36.531z"/>
	<path fill-rule="evenodd" clip-rule="evenodd" fill="#F8E3C4" d="M35.27,24.216c0.002,0.704-0.006,1.409,0.012,2.113
		c0.007,0.268-0.089,0.338-0.343,0.333c-0.63-0.013-1.261,0-1.891,0.002c0.008-0.01,0.017-0.027,0.025-0.025
		c0.51,0.042,0.688-0.327,0.896-0.692C34.329,25.316,34.764,24.738,35.27,24.216z"/>
	<path fill-rule="evenodd" clip-rule="evenodd" fill="#57443E" d="M77.835,64.501c-3.456,0-6.909,0-10.364,0
		c-6.699,0-13.397-0.001-20.097-0.006c-0.152,0-0.323,0.066-0.456-0.075c6.687-0.001,13.37-0.001,20.054-0.003
		c0.185,0,0.37-0.015,0.555-0.023c0.514-0.098,1.029-0.023,1.545-0.041c0.306-0.011,0.616-0.003,0.924-0.003
		c0.736-0.048,1.479-0.065,2.215-0.023c1.806,0.108,3.613,0.037,5.421,0.062c0.05,0,0.099,0.006,0.144,0.025
		C77.796,64.443,77.815,64.472,77.835,64.501z"/>
	<path fill-rule="evenodd" clip-rule="evenodd" fill="#F8E3C5" d="M70.286,64.274c0.438-0.221,0.922-0.304,1.385-0.457
		c0.744-0.248,1.443-0.602,2.174-0.88c-0.291,0.467-0.576,0.938-0.959,1.339c-0.068,0.061-0.154,0.07-0.239,0.071
		c-0.709,0.004-1.417,0.004-2.125,0C70.436,64.347,70.351,64.345,70.286,64.274z"/>
	<path fill-rule="evenodd" clip-rule="evenodd" fill="#F8E3C4" d="M74.519,52.482c0.37-0.767,0.74-1.532,1.112-2.298
		c-0.034,0.476,0.194,0.904,0.248,1.365c0.018,0.14,0.124,0.204,0.27,0.189c-0.494,0.245-0.984,0.502-1.45,0.797
		C74.632,52.578,74.533,52.646,74.519,52.482z"/>
	<path fill-rule="evenodd" clip-rule="evenodd" fill="#F4E3CA" d="M67.381,40.454c-0.242,0.224-0.462,0.468-0.65,0.737
		c-0.163,0.068-0.206-0.09-0.28-0.16c-0.282-0.265-0.546-0.547-0.828-0.811c-0.146-0.145-0.289-0.289-0.435-0.434
		c0.451-0.041,0.824,0.201,1.229,0.333C66.741,40.224,67.015,40.472,67.381,40.454z"/>
	<path fill-rule="evenodd" clip-rule="evenodd" fill="#2F3D73" d="M64.88,39.532c-0.023,0.058-0.052,0.106-0.113,0.134
		c-1.706,0.764-2.463,2.219-2.865,3.929c-0.043,0.179-0.056,0.364-0.081,0.546c-0.028,0.175-0.056,0.35-0.097,0.605
		c-0.32-1.146,0.772-4.368,2.995-5.261C64.772,39.5,64.826,39.516,64.88,39.532z"/>
	<path fill-rule="evenodd" clip-rule="evenodd" fill="#745B50" d="M10.512,36.699c0.069-0.005,0.139-0.011,0.209-0.016
		c0.02,0.047,0.018,0.094-0.001,0.14c-0.073,0.191-0.048,0.392-0.048,0.588c-0.002,3.733,0,7.466-0.004,11.2
		c0,0.203,0.061,0.425-0.104,0.602c-0.021,0.002-0.041,0.004-0.061,0.008c-0.006-0.054-0.013-0.107-0.019-0.16
		c-0.093-0.159-0.064-0.336-0.065-0.506c-0.018-1.587,0.026-3.174-0.021-4.762c-0.008-0.217,0.058-0.435,0.081-0.654
		c0.005-1.999,0.008-3.999,0.013-5.997C10.492,36.995,10.505,36.847,10.512,36.699z"/>
	<path fill-rule="evenodd" clip-rule="evenodd" fill="#FBE8CE" d="M10.479,43.139c0.001,1.974,0.002,3.948,0.005,5.922
		c-0.071-0.019-0.118-0.064-0.144-0.134c0-1.57,0.002-3.142,0.002-4.713c0-0.118,0.038-0.249-0.077-0.344
		C10.336,43.627,10.409,43.383,10.479,43.139z"/>
	<path fill-rule="evenodd" clip-rule="evenodd" fill="#FEEDD4" d="M70.286,64.274c0.866,0.001,1.733,0.001,2.6,0.002
		c0.111,0.117,0.255,0.068,0.385,0.069c1.374,0.003,2.745,0,4.117,0.004c0.13,0,0.273-0.05,0.387,0.064
		c-2.593-0.006-5.184-0.013-7.777-0.021c-0.045-0.037-0.049-0.075-0.004-0.115C70.092,64.276,70.188,64.275,70.286,64.274z"/>
	<path fill-rule="evenodd" clip-rule="evenodd" fill="#4B3835" d="M7.152,64.943c-0.047,0.025-0.096,0.05-0.143,0.074
		c-0.164-0.233-0.064-0.392,0.146-0.519c1.084,0,2.169,0,3.252,0c0,0.024,0.001,0.049,0.001,0.073c-0.646,0-1.29,0-1.936,0
		c-0.321,0-0.643,0.013-0.963-0.003C7.228,64.556,7.125,64.679,7.152,64.943z"/>
	<path fill-rule="evenodd" clip-rule="evenodd" fill="#FBE8CE" d="M10.12,44.317c-0.037,0.342-0.101,0.674-0.297,0.966
		C9.881,44.948,9.942,44.616,10.12,44.317z"/>
	<path fill-rule="evenodd" clip-rule="evenodd" fill="#FBF4E6" d="M22.141,30.001c-0.197,0.156-0.409,0.279-0.668,0.298
		C21.668,30.14,21.88,30.018,22.141,30.001z"/>
	<path fill-rule="evenodd" clip-rule="evenodd" fill="#523D3C" d="M77.929,65.091c0-0.168,0-0.336,0-0.506
		C78.132,64.753,78.1,64.923,77.929,65.091z"/>
	<path fill-rule="evenodd" clip-rule="evenodd" fill="#F9FAFC" d="M55.153,50.853c1.283,0.366,2.208,1.653,2.114,3.043
		c-0.107,1.602-1.227,2.791-2.669,2.955c-1.393,0.16-2.813-0.618-3.191-1.755c0.218-0.021,0.437-0.041,0.654-0.062
		c0.129-0.059,0.212,0.038,0.295,0.098c0.903,0.63,2.188,0.519,2.987-0.591c0.233-0.321,0.422-0.666,0.464-1.07
		c0.005-0.037,0.013-0.073,0.021-0.108c0.058-0.192,0.066-0.385-0.009-0.575c-0.053-0.138-0.094-0.278-0.096-0.427
		c-0.043-0.522-0.368-0.919-0.607-1.354C55.104,50.949,55.108,50.896,55.153,50.853z"/>
	<path fill-rule="evenodd" clip-rule="evenodd" fill="#FAE4C5" d="M67.394,63.606c0.282-0.063,0.449-0.302,0.642-0.474
		c0.986-0.875,1.943-1.785,2.919-2.671c1.504-1.364,2.982-2.759,4.546-4.057c1.43-1.186,2.876-2.351,4.308-3.536
		c0.055-0.047,0.121-0.083,0.182-0.126c0.09-0.063,0.184-0.165,0.275-0.02c0.079,0.122-0.004,0.195-0.101,0.273
		c-1.369,1.104-2.738,2.206-4.097,3.323c-0.713,0.586-1.403,1.199-2.107,1.796c-0.111,0.095-0.24,0.166-0.361,0.248
		c0.031,0.036,0.062,0.071,0.092,0.106c0.847-0.354,1.694-0.708,2.542-1.062c0.318-0.133,0.637-0.267,0.958-0.393
		c0.113-0.045,0.261-0.096,0.311,0.068c0.038,0.132-0.095,0.175-0.199,0.218c-1.32,0.545-2.641,1.097-3.963,1.636
		c-0.335,0.138-0.642,0.319-0.904,0.563c-0.867,0.806-1.721,1.627-2.589,2.43c-0.697,0.643-1.412,1.267-2.116,1.899
		c-0.045,0.041-0.077,0.097-0.113,0.145c-0.255,0.109-0.14-0.148-0.216-0.215C67.397,63.709,67.396,63.658,67.394,63.606z"/>
	<path fill-rule="evenodd" clip-rule="evenodd" fill="#FBFBFD" d="M58.562,36.453c0.21,0.026,0.417,0.067,0.609,0.159
		c-0.635,1.167-1.375,2.26-2.349,3.174c-0.837,0.782-1.773,1.353-2.979,1.262c-0.259-0.018-0.52-0.057-0.766-0.127
		c-0.993-0.288-1.346-1.152-0.856-2.07c0.059-0.109,0.118-0.216,0.18-0.324c0.032-0.024,0.066-0.029,0.105-0.015
		c0.16,0.092,0.203,0.228,0.169,0.406c-0.178,0.901,0.327,1.422,1.272,1.319c0.054-0.01,0.107-0.015,0.163-0.016
		c0.122-0.005,0.246,0,0.363-0.044c1.062-0.324,1.909-0.958,2.626-1.791c0.437-0.508,0.814-1.053,1.157-1.626
		C58.333,36.637,58.396,36.494,58.562,36.453z"/>
	<path fill-rule="evenodd" clip-rule="evenodd" fill="#7D93BE" d="M65.622,40.22c0.325,0.176,0.535,0.479,0.807,0.719
		c0.099,0.085,0.165,0.21,0.302,0.252c0.728,0.798,1.399,1.639,1.93,2.583c0.406,0.725,0.811,1.452,1.08,2.244
		c0.144,0.067,0.138,0.19,0.12,0.318c0.028,0.066,0.054,0.132,0.081,0.198c0.144,0.088,0.129,0.246,0.172,0.38
		c0.295,0.851,0.516,1.717,0.683,2.604c0.184,0.984,0.297,1.972,0.304,2.97c0.006,1.037-0.127,2.061-0.354,3.073
		c-0.027,0.127-0.099,0.225-0.151,0.334c-0.441,1.368-1.111,2.596-2.202,3.563c-0.099,0.089-0.178,0.208-0.325,0.229
		c0.311-0.463,0.785-0.775,1.112-1.228c0.63-0.866,1.092-1.796,1.349-2.842c0.216-0.876,0.325-1.752,0.365-2.652
		c0.088-1.99-0.265-3.901-0.873-5.784c-0.534-1.663-1.277-3.215-2.319-4.621c-0.536-0.725-1.157-1.374-1.803-2.003
		C65.795,40.457,65.66,40.377,65.622,40.22z"/>
	<path fill-rule="evenodd" clip-rule="evenodd" fill="#F7E3CA" d="M47.438,36.158c0.147-0.189,0.002-0.38,0-0.569
		c-0.005-0.823,0.04-1.637,0.19-2.454c0.214-1.159,0.597-2.283,0.735-3.447c0.075-0.617,0.182-1.187,0.497-1.71
		c0.177-0.293,0.389-0.567,0.597-0.841c0.04-0.053,0.092-0.205,0.216-0.074c-0.212,0.424-0.492,0.807-0.71,1.228
		c-0.201,0.386-0.357,0.777-0.27,1.225c-0.077,0.435-0.24,0.848-0.296,1.287c-0.047,0.127-0.045,0.263-0.066,0.395
		c-0.087,0.488-0.257,0.956-0.374,1.436c-0.047,0.12-0.054,0.247-0.068,0.374c-0.005,0.035-0.013,0.07-0.023,0.104
		c-0.023,0.069-0.054,0.134-0.075,0.201c-0.052,0.141-0.027,0.288-0.034,0.432c0,0.1-0.007,0.198-0.03,0.294
		c-0.077,0.567-0.029,1.136-0.025,1.705c0.03,0.104,0.075,0.202,0.122,0.302c0.011,0.035,0.007,0.069-0.015,0.101
		c-0.099,0.028-0.199,0.055-0.298,0.083C47.479,36.211,47.455,36.189,47.438,36.158z"/>
	<path fill-rule="evenodd" clip-rule="evenodd" fill="#2F3C71" d="M63.087,50.257c-0.023,0.827,0.379,1.261,1.186,1.452
		c0.491,0.116,0.94,0.41,1.409,0.625c0.309,0.061,0.535,0.245,0.74,0.467c0.546,0.455,1.117,0.884,1.349,1.603
		c0.019,0.089,0.104,0.199-0.075,0.225c-0.284-0.909-0.98-1.456-1.741-1.93c-0.989-0.616-2.062-1.041-3.185-1.354
		c-0.117-0.033-0.23-0.082-0.346-0.123c-0.016-0.076,0.004-0.115,0.09-0.087c0.526,0.066,0.526,0.066,0.496-0.493
		c-0.002-0.049,0-0.097,0-0.147C62.999,50.403,62.907,50.285,63.087,50.257z"/>
	<path fill-rule="evenodd" clip-rule="evenodd" fill="#4C2A3F" d="M46.993,49.952c-0.034-0.056-0.088-0.067-0.146-0.069
		c-0.023-0.038-0.02-0.07,0.013-0.1c0.18-0.086,0.304,0.036,0.437,0.119c0.868,0.547,1.299,1.375,1.455,2.352
		c0.227,1.396,1.127,2.132,2.39,2.54c0.09,0.051,0.242,0.039,0.221,0.206c-1.171,0.027-2.583-1.146-2.788-2.413
		C48.393,51.478,47.954,50.569,46.993,49.952z"/>
	<path fill-rule="evenodd" clip-rule="evenodd" fill="#543146" d="M46.854,36.814c0.08,0.125,0.045,0.266,0.045,0.398
		c0.003,1.655,0.009,3.311-0.004,4.964c-0.002,0.301,0.086,0.372,0.379,0.36c0.986-0.039,1.973-0.045,2.923,0.293
		c-0.073,0.1-0.183,0.122-0.296,0.133c-0.9-0.138-1.808-0.192-2.719-0.168c-0.122,0.004-0.246-0.011-0.352-0.09
		c-0.032-0.036-0.053-0.079-0.068-0.125c-0.051-0.96-0.013-1.92-0.021-2.879c-0.006-0.812-0.004-1.626,0-2.438
		C46.743,37.107,46.711,36.938,46.854,36.814z"/>
	<path fill-rule="evenodd" clip-rule="evenodd" fill="#602E2E" d="M51.362,55c-0.071-0.048-0.144-0.095-0.214-0.145
		c0.406-0.102,0.845-0.184,1.191,0.082c1.226,0.931,2.807,0.232,3.252-1.223c0.045-0.148,0.028-0.327,0.18-0.432
		c0.12-0.006,0.064,0.121,0.124,0.16c-0.12,0.917-0.627,1.568-1.434,1.962c-0.785,0.384-1.551,0.262-2.248-0.266
		c-0.05-0.038-0.101-0.07-0.152-0.105C51.828,55.022,51.595,55.012,51.362,55z"/>
	<path fill-rule="evenodd" clip-rule="evenodd" fill="#4E2B41" d="M49.961,42.903c0.06-0.082,0.153-0.062,0.235-0.073
		c1.782,0.484,3.16,1.409,3.631,3.325c0.031,0.077,0.045,0.148-0.054,0.188c-0.147-0.031-0.188-0.155-0.221-0.271
		c-0.453-1.681-1.72-2.472-3.25-2.978C50.177,43.051,50.033,43.04,49.961,42.903z"/>
	<path fill-rule="evenodd" clip-rule="evenodd" fill="#FCEAD1" d="M47.438,36.158c0.023,0.023,0.047,0.046,0.072,0.07
		c-0.25,0.122-0.498,0.244-0.749,0.366c-0.126,0.134-0.291,0.114-0.449,0.114c-2.478,0.002-4.953,0.002-7.429,0
		c-0.146,0-0.297,0.011-0.421-0.096c0.117-0.14,0.278-0.078,0.417-0.079c2.148-0.004,4.299-0.021,6.446,0.006
		C46.064,36.549,46.771,36.492,47.438,36.158z"/>
	<path fill-rule="evenodd" clip-rule="evenodd" fill="#CBB7AA" d="M38.463,36.611c2.593-0.003,5.188-0.005,7.781-0.007
		c0.171-0.001,0.345-0.007,0.518-0.011c0.007,0.016,0.011,0.033,0.011,0.051c-0.034,0.078-0.101,0.107-0.175,0.123
		c-1.605,0.035-3.212,0.009-4.816,0.015c-0.939,0.004-1.877,0.002-2.815-0.001c-0.172,0-0.349,0.031-0.499-0.093
		C38.467,36.663,38.465,36.637,38.463,36.611z"/>
	<path fill-rule="evenodd" clip-rule="evenodd" fill="#4F2A3E" d="M52.483,38.535c-0.028-0.002-0.056-0.005-0.082-0.007
		c-0.466-0.537-0.988-1.024-1.416-1.595c-0.086-0.114-0.205-0.11-0.332-0.113c-0.306-0.005-0.613,0.039-0.913-0.06
		c-0.137-0.108-0.312,0.008-0.453-0.076v0.004c-0.021-0.045-0.016-0.083,0.023-0.116c0.205-0.115,0.423-0.064,0.635-0.03
		c0.253,0.042,0.508,0.018,0.76,0.034c0.062,0.004,0.122,0.015,0.182,0.032c0.109,0.038,0.208,0.096,0.289,0.183
		c0.338,0.432,0.697,0.844,1.096,1.224c0.13,0.125,0.273,0.247,0.312,0.44C52.575,38.514,52.554,38.557,52.483,38.535z"/>
	<path fill-rule="evenodd" clip-rule="evenodd" fill="#33437A" d="M62.514,51.135c-0.03,0.029-0.061,0.059-0.09,0.087
		c-1.031-0.225-2.067-0.417-3.115-0.522c0.119-0.22,0.302-0.08,0.46-0.081C60.707,50.664,61.623,50.836,62.514,51.135z"/>
	<path fill-rule="evenodd" clip-rule="evenodd" fill="#3D2340" d="M46.621,36.688c0.051-0.014,0.101-0.029,0.151-0.044
		c0.052,0.045,0.09,0.096,0.081,0.17c-0.004,1.935-0.006,3.869-0.01,5.802c-0.242-0.083-0.174-0.296-0.174-0.462
		c-0.009-1.549-0.004-3.099-0.004-4.648c0-0.171,0.004-0.343-0.009-0.515c-0.009-0.064-0.032-0.124-0.056-0.184
		C46.591,36.766,46.598,36.726,46.621,36.688z"/>
	<path fill-rule="evenodd" clip-rule="evenodd" fill="#E9D0BC" d="M67.4,63.761c0.092,0.053,0.053,0.232,0.216,0.216
		c-0.036,0.253,0.094,0.308,0.32,0.303c0.686-0.01,1.372-0.002,2.057-0.001c0.002,0.038,0.002,0.077,0.004,0.115
		c-0.823,0-1.647,0-2.471,0C67.469,64.187,67.381,63.984,67.4,63.761z"/>
	<path fill-rule="evenodd" clip-rule="evenodd" fill="#344780" d="M59.769,50.618c-0.152,0.038-0.325-0.057-0.46,0.081
		c-1.004-0.011-2.005-0.041-3.011,0.038c0.318-0.194,0.661-0.194,1.008-0.186c0.593,0.051,1.186,0.043,1.778,0.002
		C59.312,50.558,59.548,50.507,59.769,50.618z"/>
	<path fill-rule="evenodd" clip-rule="evenodd" fill="#35447B" d="M63.087,50.257c-0.088,0.059-0.062,0.155-0.077,0.237
		c-0.197-0.7-0.306-1.422-0.494-2.126C62.864,48.952,62.978,49.604,63.087,50.257z"/>
	<path fill-rule="evenodd" clip-rule="evenodd" fill="#4B2E46" d="M53.944,46.479c0.208,0.679,0.398,1.36,0.546,2.055
		c0.029,0.098,0.081,0.2-0.064,0.252c-0.07-0.037-0.111-0.103-0.128-0.175c-0.15-0.634-0.366-1.251-0.495-1.893
		C53.818,46.621,53.801,46.502,53.944,46.479z"/>
	<path fill-rule="evenodd" clip-rule="evenodd" fill="#313E74" d="M66.668,52.397c0.535,0.123,0.984,0.376,1.312,0.83
		c-0.406-0.169-0.706-0.54-1.164-0.606c-0.132-0.058-0.312-0.014-0.399-0.176C66.479,52.327,66.576,52.37,66.668,52.397z"/>
	<path fill-rule="evenodd" clip-rule="evenodd" fill="#522F43" d="M55.153,50.853c0.006,0.046,0.013,0.092,0.017,0.139
		c-0.031,0.029-0.068,0.042-0.113,0.04c-0.09-0.021-0.16-0.078-0.201-0.152c-0.267-0.493-0.408-1.015-0.318-1.58
		c0.25-0.027,0.049,0.238,0.187,0.284c0.07,0.315,0.132,0.633,0.214,0.946C54.972,50.655,55.046,50.769,55.153,50.853z"/>
	<path fill-rule="evenodd" clip-rule="evenodd" fill="#4F2D42" d="M49.295,36.593c-0.002,0.031-0.006,0.062-0.008,0.094
		c-0.542-0.048-1.032-0.239-1.479-0.542c-0.003-0.019-0.007-0.039-0.014-0.057c-0.008-0.073,0.035-0.102,0.097-0.116
		c0.417,0.169,0.832,0.348,1.267,0.474C49.227,36.466,49.3,36.499,49.295,36.593z"/>
	<path fill-rule="evenodd" clip-rule="evenodd" fill="#6988CC" d="M66.435,52.471c0.129,0.05,0.255,0.101,0.381,0.15
		c-0.16,0.046-0.306-0.055-0.46-0.055c-0.047,0.106,0.077,0.148,0.066,0.234c-0.246-0.155-0.494-0.312-0.74-0.467
		c0.058-0.023,0.116-0.046,0.174-0.069C66.026,52.391,66.29,52.27,66.435,52.471z"/>
	<path fill-rule="evenodd" clip-rule="evenodd" fill="#233065" d="M59.084,50.554c-0.593,0.112-1.186,0.116-1.778-0.002
		C57.898,50.499,58.491,50.509,59.084,50.554z"/>
	<path fill-rule="evenodd" clip-rule="evenodd" fill="#4F3048" d="M54.724,49.583c-0.142-0.048-0.041-0.236-0.17-0.291
		c-0.232-0.126-0.22-0.314-0.137-0.521c0.084-0.062,0.064-0.153,0.073-0.237C54.631,48.87,54.679,49.227,54.724,49.583z"/>
	<path fill-rule="evenodd" clip-rule="evenodd" fill="#35467D" d="M66.435,52.471c-0.188-0.084-0.446,0.034-0.579-0.206
		c0.284-0.045,0.556,0.01,0.812,0.133C66.589,52.411,66.495,52.387,66.435,52.471z"/>
	<path fill-rule="evenodd" clip-rule="evenodd" fill="#593346" d="M53.944,46.479c-0.068,0.06-0.047,0.143-0.056,0.216
		c-0.216-0.061-0.187-0.214-0.139-0.374c0.063-0.038,0.068-0.104,0.077-0.167C53.91,46.247,53.921,46.365,53.944,46.479z"/>
	<path fill-rule="evenodd" clip-rule="evenodd" fill="#374D89" d="M67.695,54.628c0.088-0.055,0.064-0.146,0.075-0.225
		c0.079,0.073,0.076,0.172,0.079,0.267c0.002,0.067,0.011,0.17-0.095,0.146C67.678,54.798,67.693,54.699,67.695,54.628z"/>
	<path fill-rule="evenodd" clip-rule="evenodd" fill="#4F2D42" d="M49.287,36.683c0.151,0.017,0.32-0.068,0.453,0.076
		C49.584,36.758,49.426,36.784,49.287,36.683z"/>
	<path fill-rule="evenodd" clip-rule="evenodd" fill="#9C4338" d="M49.295,36.593c-0.469-0.194-0.999-0.244-1.403-0.59
		c-0.176-0.106-0.184-0.282-0.184-0.456c-0.003-0.74-0.032-1.481,0.094-2.216c0.081-0.174,0.086-0.363,0.092-0.55
		c0.113-0.358,0.187-0.729,0.316-1.083c0.048-0.129,0.088-0.313,0.298-0.163c0.171,0.131,0.349,0.243,0.578,0.227
		c0.092,0.003,0.182,0.01,0.263,0.058c0.028,0.023,0.041,0.056,0.043,0.092c-0.12,0.136-0.225,0.279-0.377,0.387
		c-0.397,0.278-0.392,0.429,0.018,0.72c0.248,0.06,0.498,0.105,0.751,0.121c0.027-0.015,0.051-0.032,0.072-0.054
		c0.032-0.07,0-0.129-0.058-0.15c-0.372-0.131-0.464-0.457-0.552-0.785c0.013-0.095,0.079-0.149,0.154-0.2
		c0.13-0.205,0.265-0.409,0.349-0.639c0.062-0.168,0.07-0.269-0.172-0.325c-0.327-0.077-0.633-0.207-0.906,0.099
		c-0.073,0.059-0.14,0.133-0.246,0.117c-0.219-0.22,0.019-0.44,0-0.66c0.034-0.075,0.094-0.116,0.171-0.136
		c0.308-0.039,0.62-0.056,0.958-0.069c-0.293-0.358-0.426-0.38-0.87-0.168c-0.064-0.01-0.099-0.051-0.118-0.108
		c-0.038-0.228,0.122-0.416,0.133-0.633c0.007-0.165,0.086-0.306,0.144-0.456c0.124-0.333,0.329-0.479,0.708-0.426
		c0.338,0.049,0.688,0.037,1.031-0.027c0.099-0.018,0.21-0.037,0.291,0.015c0.599,0.385,1.269,0.226,1.91,0.244
		c0.542,0.016,0.537-0.001,0.569,0.547c0.013,0.203-0.04,0.391-0.083,0.582c-0.113,0.519-0.007,0.958,0.471,1.25
		c0.252,0.154,0.327,0.385,0.329,0.66c0.002,0.234-0.002,0.468-0.043,0.7c-0.019,0.109-0.049,0.239,0.048,0.313
		c0.104,0.081,0.211-0.006,0.304-0.062c0.361-0.219,0.748-0.318,1.168-0.265c0.329,0.042,0.588,0.177,0.654,0.543
		c0.045,0.877-0.225,1.577-1.185,1.929c0.543,0.369,1.046,0.655,1.617,0.813c0.397,0.285,0.879,0.36,1.328,0.506
		c0.49,0.16,0.503,0.139,0.249,0.566c-0.664,1.114-1.444,2.123-2.57,2.812c-0.518,0.315-1.057,0.591-1.692,0.566
		c-0.44,0.037-0.847-0.027-1.17-0.375c-0.225-0.242-0.302-0.517-0.152-0.805c0.113-0.216,0.077-0.387-0.027-0.573
		c-0.058-0.215,0.099-0.347,0.205-0.488c0.546-0.729,0.828-1.542,0.854-2.481c-0.146,0.136-0.25,0.273-0.404,0.352
		c-0.588,0.489-1.236,0.831-2.023,0.831c-0.152,0.016-0.291-0.105-0.447-0.033C50.281,36.73,49.792,36.597,49.295,36.593z"/>
	<path fill-rule="evenodd" clip-rule="evenodd" fill="#451D26" d="M56.199,33.049c-0.447-0.551-1.076-0.62-1.77-0.196
		c-0.139,0.084-0.27,0.272-0.453,0.138c-0.169-0.122-0.099-0.327-0.058-0.483c0.062-0.247,0.038-0.491,0.045-0.737
		c0.006-0.248-0.058-0.423-0.327-0.547c-0.447-0.204-0.65-0.797-0.454-1.382c0.101-0.299-0.017-0.582,0.064-0.867
		c0.038-0.139-0.077-0.105-0.165-0.104c-0.471,0.01-0.939,0.013-1.407,0.017c-0.264,0.002-0.522-0.015-0.72-0.222
		c-0.09-0.095-0.203-0.087-0.31-0.061c-0.441,0.105-0.884,0.091-1.322,0.026c-0.169-0.024-0.223,0.044-0.282,0.162
		c-0.111,0.22-0.219,0.442-0.271,0.687c-0.049,0.044-0.098,0.046-0.147,0.001c-0.128-0.288-0.036-0.567,0.075-0.824
		c0.25-0.577,0.541-1.131,0.976-1.595c0.473-0.487,0.903-1.018,1.455-1.421c0.141-0.105,0.302-0.262,0.462-0.013
		c0.075,0.107,0.023,0.229,0.039,0.342c0.015,0.123,0.065,0.172,0.186,0.102c0.169-0.013,0.351-0.037,0.492,0.08
		c0.271,0.225,0.604,0.232,0.924,0.287c0.896,0.15,1.762,0.403,2.508,0.938c0.535,0.384,1.065,0.8,0.895,1.594
		c-0.02,0.089,0.047,0.134,0.109,0.176c0.573,0.397,0.605,0.956,0.434,1.55C56.939,31.517,56.529,32.267,56.199,33.049z"/>
	<path fill-rule="evenodd" clip-rule="evenodd" fill="#632D26" d="M10.716,36.75c-0.001-0.022,0.001-0.045,0.005-0.067
		c3.235-0.005,6.471-0.013,9.708-0.016c2.58-0.003,5.162-0.006,7.743,0.006c0.32,0.001,0.447-0.076,0.42-0.412
		c-0.033-0.413,0.11-0.802,0.238-1.19c0.176-0.272,0.381-0.522,0.603-0.757c0.273-0.407,0.723-0.522,1.142-0.677
		c0.481-0.178,0.986-0.164,1.489-0.143c0.103,0.004,0.188,0.048,0.25,0.133c0.005,0.15-0.115,0.151-0.214,0.176
		c-0.458-0.005-0.911,0.036-1.358,0.144c-1.197,0.288-1.88,1.139-1.897,2.365c-0.003,0.209,0.008,0.42-0.003,0.63
		c-0.037,0.116,0.005,0.305-0.224,0.245c-0.16-0.265-0.416-0.259-0.682-0.259c-5.513,0.003-11.026,0.003-16.539,0.001
		c-0.209,0-0.422,0.037-0.621-0.056C10.73,36.846,10.71,36.804,10.716,36.75z"/>
	<path fill-rule="evenodd" clip-rule="evenodd" fill="#E4C8AA" d="M16.477,28.222c0.907-0.109,1.446,0.862,1.327,1.62
		c-0.062,0.39-0.124,0.762-0.445,1.059c-0.6,0.554-1.505,0.46-1.942-0.234c-0.36-0.571-0.3-1.534,0.135-2.047
		C15.797,28.329,16.104,28.173,16.477,28.222z"/>
	<path fill-rule="evenodd" clip-rule="evenodd" fill="#E4C8AA" d="M12.637,33.489c-0.691,0.124-1.437-0.676-1.288-1.593
		c0.077-0.487,0.146-0.946,0.604-1.239c0.759-0.487,1.746-0.081,1.952,0.795c0.096,0.411,0.066,0.8-0.074,1.192
		C13.618,33.234,13.262,33.49,12.637,33.489z"/>
	<path fill-rule="evenodd" clip-rule="evenodd" fill="#E4C8AA" d="M16.049,33.622c-0.093-0.021-0.156-0.109-0.214-0.207
		c-0.961-1.648-1.921-3.298-2.88-4.948c-0.066-0.116-0.156-0.254,0.011-0.355c0.16-0.097,0.257,0.034,0.325,0.15
		c0.623,1.062,1.241,2.127,1.859,3.191c0.341,0.585,0.683,1.169,1.021,1.756c0.059,0.103,0.149,0.209,0.064,0.339
		C16.2,33.604,16.146,33.633,16.049,33.622z"/>
	<path fill-rule="evenodd" clip-rule="evenodd" fill="#5C2A29" d="M53.968,40.175c0.954-0.038,1.705-0.524,2.39-1.118
		c0.76-0.658,1.34-1.467,1.861-2.325c0.15-0.25,0.043-0.29-0.149-0.331c-0.447-0.096-0.866-0.274-1.292-0.432
		c-0.081-0.03-0.219-0.021-0.146-0.179c0.573,0.176,1.146,0.353,1.72,0.528c0.084,0.026,0.167,0.048,0.21,0.134
		c-0.53,0.888-1.096,1.752-1.849,2.472c-0.638,0.608-1.331,1.127-2.219,1.319c-0.115,0.077-0.266-0.02-0.379,0.068
		c-0.049,0.002-0.101,0.004-0.149,0.006C53.921,40.27,53.923,40.222,53.968,40.175z"/>
	<path fill-rule="evenodd" clip-rule="evenodd" fill="#642E26" d="M32.072,33.715c0.083-0.007,0.175,0.009,0.23-0.077
		c0.386-0.111,0.715,0.019,1.03,0.225c0.315,0.16,0.638,0.308,0.943,0.484c0.564,0.324,0.896,0.814,0.99,1.463
		c0.009,0.069,0.051,0.133,0.076,0.199c0.088,0.114-0.007,0.263,0.07,0.381l-0.006-0.007c0.107,0.271,0.01,0.559,0.079,0.832
		c-0.047,0.262-0.066,0.524-0.005,0.788c0.009,0.104,0.024,0.208-0.042,0.301c-0.098,0.052-0.156-0.005-0.212-0.074
		c-0.081-0.175-0.056-0.364-0.058-0.548c-0.009-0.494-0.021-0.984-0.07-1.478c-0.111-1.082-0.768-1.668-1.705-2.032
		c-0.335-0.13-0.688-0.202-1.038-0.281C32.245,33.868,32.097,33.888,32.072,33.715z"/>
	<path fill-rule="evenodd" clip-rule="evenodd" fill="#F7E3C9" d="M33.333,33.863c-0.352-0.039-0.666-0.242-1.03-0.225
		c-1.059-0.207-2.014,0.021-2.87,0.676c0.027-0.179,0.078-0.266,0.246-0.365c1.251-0.728,2.528-0.694,3.927-0.12
		C33.447,33.849,33.391,33.855,33.333,33.863z"/>
	<path fill-rule="evenodd" clip-rule="evenodd" fill="#613C3A" d="M46.621,36.688c0.002,0.021,0.002,0.044,0,0.065
		c-0.105,0.112-0.246,0.102-0.379,0.102c-2.478,0.003-4.955,0.004-7.433,0c-0.075,0-0.15-0.004-0.221-0.025
		c-0.047-0.018-0.09-0.044-0.126-0.077c-0.007-0.021-0.007-0.044,0.004-0.065C41.187,36.688,43.903,36.688,46.621,36.688z"/>
	<path fill-rule="evenodd" clip-rule="evenodd" fill="#61262B" d="M38.463,36.754c0.025,0.001,0.049,0.002,0.074,0.002
		c0.026,0.029,0.046,0.061,0.062,0.095c0.013,0.035,0.02,0.073,0.023,0.111c-0.011,0.83-0.509,1.325-1.179,1.698
		c-0.131,0.072-0.271,0.12-0.413,0.164c-0.215,0.019-0.42,0.125-0.643,0.067c-0.038-0.015-0.069-0.04-0.094-0.073
		c-0.046-0.179,0.077-0.196,0.202-0.208c0.119-0.011,0.239,0.01,0.354-0.024c0.109-0.088,0.248-0.08,0.372-0.12
		C38.005,38.164,38.332,37.53,38.463,36.754z"/>
	<path fill-rule="evenodd" clip-rule="evenodd" fill="#F4E1C8" d="M35.431,37.268c-0.008-0.294-0.015-0.589-0.023-0.884
		c0.159,0.486,0.175,0.989,0.154,1.492c-0.009,0.245,0.041,0.447,0.217,0.616c-0.14,0.064-0.255,0.015-0.36-0.079
		c-0.024-0.033-0.025-0.067-0.004-0.103c0.004-0.098,0.009-0.197,0.013-0.294C35.358,37.767,35.351,37.518,35.431,37.268z"/>
	<path fill-rule="evenodd" clip-rule="evenodd" fill="#503831" d="M35.429,38.367c0.115,0.042,0.233,0.083,0.35,0.125
		c0.058,0.059,0.13,0.054,0.202,0.049c0.304,0.085,0.621-0.03,0.923,0.065c-0.156,0.195-0.454-0.064-0.594,0.183
		c0.035,0.04,0.026,0.064-0.025,0.075c-0.037,0.006-0.074,0.005-0.112-0.003c-0.28-0.071-0.578-0.105-0.786-0.344
		C35.372,38.46,35.38,38.408,35.429,38.367z"/>
	<path fill-rule="evenodd" clip-rule="evenodd" fill="#F4E1C8" d="M36.903,38.606c-0.309,0.004-0.623,0.074-0.923-0.065
		c0.417-0.003,0.83-0.01,1.243-0.075C37.117,38.514,37.01,38.56,36.903,38.606z"/>
	<path fill-rule="evenodd" clip-rule="evenodd" fill="#543231" d="M51.815,26.072c-0.124,0.113-0.201,0.074-0.218-0.078
		c-0.016-0.121-0.007-0.244-0.007-0.366C51.767,25.726,51.567,26.011,51.815,26.072z"/>
	<path fill-rule="evenodd" clip-rule="evenodd" fill="#DFC8A9" d="M24.139,33.487c0.027,0.029,0.055,0.057,0.081,0.085
		c-0.052,0.061-0.103,0.183-0.191,0.076C23.979,33.588,24.072,33.523,24.139,33.487z"/>
	<path fill-rule="evenodd" clip-rule="evenodd" fill="#F4E1C8" d="M35.413,36.391c-0.074-0.118-0.07-0.25-0.07-0.381
		C35.47,36.118,35.404,36.261,35.413,36.391z"/>
	<path fill-rule="evenodd" clip-rule="evenodd" fill="#B6A59B" d="M70.595,55.895c0.404-1.408,0.518-2.852,0.423-4.303
		c-0.098-1.531-0.394-3.036-0.894-4.493c-0.028-0.08-0.039-0.165-0.059-0.249c0.021-0.027,0.045-0.032,0.075-0.013
		c0.304,0.8,0.499,1.63,0.676,2.468c0.193,0.913,0.264,1.838,0.347,2.763c0.064,0.698-0.04,1.395-0.117,2.088
		c-0.058,0.508-0.156,1.012-0.237,1.519C70.759,55.77,70.687,55.841,70.595,55.895z"/>
	<path fill-rule="evenodd" clip-rule="evenodd" fill="#FBE4C5" d="M69.86,46.336c-0.041-0.105-0.079-0.213-0.12-0.318
		c0.882-1.613,1.886-3.151,2.906-4.678c0.404-0.604,0.827-1.194,1.258-1.782c0.072-0.099,0.126-0.352,0.308-0.224
		c0.208,0.146,0.005,0.307-0.085,0.437c-0.634,0.926-1.295,1.833-1.902,2.775c-0.76,1.18-1.474,2.39-2.21,3.587
		C69.97,46.206,69.912,46.269,69.86,46.336z"/>
	<path fill-rule="evenodd" clip-rule="evenodd" fill="#FAE3C5" d="M70.141,46.837c-0.025,0.004-0.049,0.009-0.075,0.013
		c-0.083-0.088-0.103-0.202-0.124-0.315c1.139-0.734,2.272-1.472,3.415-2.197c0.135-0.086,0.316-0.332,0.456-0.118
		c0.135,0.208-0.147,0.294-0.289,0.386c-1.083,0.705-2.17,1.402-3.254,2.104C70.22,46.74,70.182,46.793,70.141,46.837z"/>
	<path fill-rule="evenodd" clip-rule="evenodd" fill="#FCE4C6" d="M10.482,56.34c0.002,0.194,0.003,0.392,0.004,0.587
		c-0.268-0.594-0.534-1.187-0.801-1.78c-0.322-0.72-0.646-1.443-1.073-2.106c-0.301-0.466-0.852-0.651-1.295-0.954
		c-0.568-0.391-1.155-0.753-1.733-1.129c-0.085-0.056-0.248-0.099-0.16-0.235c0.086-0.134,0.204-0.013,0.287,0.041
		c0.778,0.495,1.554,0.999,2.33,1.501c0.169,0.021,0.119-0.067,0.074-0.151c-0.911-1.553-1.87-3.07-2.927-4.528
		c-0.059-0.082-0.15-0.164-0.032-0.247s0.169,0.035,0.226,0.113c0.978,1.331,1.863,2.725,2.701,4.146
		C8.986,53.125,9.784,54.707,10.482,56.34z"/>
	<path fill-rule="evenodd" clip-rule="evenodd" fill="#C6A99A" d="M10.481,53.004c0.041,0.517,0.02,1.033,0.003,1.549
		C10.374,54.037,10.377,53.521,10.481,53.004z"/>
	<path fill-rule="evenodd" clip-rule="evenodd" fill="#DBC3A5" d="M8.115,52.112c0.079,0.061,0.172,0.158,0.109,0.236
		c-0.081,0.102-0.135-0.023-0.184-0.085C8.103,52.23,8.115,52.174,8.115,52.112z"/>
	<path fill-rule="evenodd" clip-rule="evenodd" fill="#F7E2C4" d="M38.454,64.346c-0.079,0.078-0.178,0.069-0.278,0.069
		c-1.121,0-2.242-0.001-3.363,0.001c-0.158,0-0.305,0.007-0.293-0.215c-0.111-0.368,0.067-0.668,0.227-0.975
		c0.087-0.125,0.173-0.251,0.28-0.361c0.476-0.413,1.016-0.648,1.658-0.607c0.972,0.182,1.613,0.712,1.814,1.713
		C38.527,64.102,38.576,64.233,38.454,64.346z"/>
	<path fill-rule="evenodd" clip-rule="evenodd" fill="#E8566D" d="M37.049,38.751c0.516-0.201,0.958-0.489,1.253-0.975
		c0.163-0.27,0.271-0.55,0.253-0.87c0.099-0.1,0.227-0.078,0.349-0.078c2.493-0.002,4.985-0.002,7.478-0.001
		c0.097,0,0.197-0.008,0.289,0.042c0.097,0.074,0.06,0.181,0.06,0.275c0.003,1.704,0.003,3.407,0.003,5.112
		c0,0.098,0.034,0.221-0.037,0.287c-0.268,0.255-0.119,0.482,0.009,0.73c0.167,0.324,0.088,0.676,0.077,1.019
		c-0.036,0.146-0.146,0.219-0.273,0.273c-0.172,0.074-0.328,0.175-0.469,0.292c-0.24,0.198-0.352,0.439-0.235,0.75
		c0.066,0.177,0.083,0.354,0.032,0.542c-0.105,0.381,0.027,0.699,0.28,0.979c0.158,0.172,0.333,0.327,0.492,0.5
		c0.162,0.177,0.23,0.374,0.119,0.607c-0.032,0.034-0.068,0.052-0.113,0.056c-0.561-0.014-0.702,0.214-0.438,0.719
		c0.056,0.108,0.113,0.227,0.21,0.302c0.342,0.261,0.392,0.607,0.392,1.015c-0.011,4.471-0.007,8.94-0.009,13.411
		c0,0.16,0.011,0.32-0.011,0.481c-0.011,0.047-0.036,0.084-0.077,0.113c-2.582,0.003-5.167,0.004-7.749,0.009
		c-0.114,0-0.223-0.002-0.321-0.067c-0.158-0.277-0.167-0.603-0.304-0.891c-0.295-0.615-0.839-0.885-1.426-1.111
		c-0.017-0.038-0.02-0.079-0.01-0.121c0.019-0.04,0.049-0.068,0.091-0.084c0.452-0.04,0.763,0.241,1.077,0.493
		c0.37,0.297,0.591,0.698,0.717,1.146c0.081,0.288,0.244,0.389,0.537,0.387c2.251-0.007,4.499-0.003,6.748-0.005
		c0.437-0.001,0.467-0.031,0.469-0.462c0.002-1.348,0-2.694,0-4.043c0-3.016-0.005-6.031,0.006-9.048
		c0-0.404-0.068-0.755-0.381-1.036c-0.09-0.082-0.151-0.194-0.218-0.299c-0.383-0.622-0.268-1.021,0.413-1.334
		c-0.099-0.204-0.27-0.348-0.42-0.505c-0.323-0.345-0.483-0.74-0.424-1.217c0.024-0.173,0.021-0.347-0.006-0.518
		c-0.09-0.552,0.162-0.921,0.612-1.199c0.453-0.28,0.543-0.57,0.288-1.053c-0.198-0.378-0.32-0.72,0.047-1.071
		c0.109-0.104,0.082-0.28,0.082-0.429c0.002-1.434,0.002-2.866,0-4.3c-0.002-0.447-0.041-0.488-0.49-0.488
		c-2.251-0.003-4.499,0.002-6.75-0.006c-0.307-0.001-0.467,0.112-0.573,0.4c-0.219,0.589-0.619,1.034-1.19,1.313
		c-0.132,0.065-0.27,0.131-0.423,0.068C37.038,38.835,37.027,38.798,37.049,38.751z"/>
	<path fill-rule="evenodd" clip-rule="evenodd" fill="#35211E" d="M10.716,36.75c0.001,0.024,0.001,0.05,0.001,0.075
		c0.006,0.025,0.011,0.048,0.016,0.072c0.019,0.136,0.013,0.272,0.013,0.408c0,8.826,0,17.652,0,26.479
		c0,0.148,0.004,0.298-0.011,0.445c-0.007,0.049-0.021,0.096-0.045,0.14c-0.018,0.019-0.034,0.035-0.052,0.054
		c-0.124-0.139-0.063-0.309-0.063-0.462c-0.007-4.916-0.009-9.831-0.011-14.748c0.002-4.024,0.002-8.048,0.012-12.074
		C10.576,37.007,10.456,36.801,10.716,36.75z"/>
	<path fill-rule="evenodd" clip-rule="evenodd" fill="#FAE3C4" d="M10.486,63.83c-0.407-0.196-0.663-0.573-1.013-0.841
		c-0.242-0.188-0.462-0.409-0.669-0.637c-0.614-0.666-1.494-0.821-2.264-1.185c-0.187-0.088-0.383-0.151-0.528-0.327
		c0.579,0.124,1.115,0.375,1.73,0.632c-0.267-0.404-0.615-0.616-0.913-0.87c-0.7-0.599-1.426-1.168-2.14-1.75
		c-0.056-0.045-0.148-0.092-0.085-0.169c0.074-0.089,0.155-0.013,0.222,0.043c0.667,0.542,1.339,1.078,1.999,1.63
		c1.266,1.059,2.444,2.213,3.66,3.325C10.486,63.73,10.486,63.78,10.486,63.83z"/>
	<path fill-rule="evenodd" clip-rule="evenodd" fill="#B3998A" d="M34.396,64.201c-0.009,0.043-0.018,0.086-0.024,0.128
		c-0.104,0.126-0.248,0.094-0.38,0.094c-7.642,0.002-15.283,0.002-22.923,0.001c-0.111,0-0.225,0.012-0.329-0.041
		c-0.048-0.034-0.055-0.075-0.022-0.125c0.201-0.138,0.432-0.084,0.648-0.084c7.414-0.004,14.825-0.004,22.238,0
		c0.266,0,0.517-0.011,0.724-0.202C34.477,64.011,34.427,64.109,34.396,64.201z"/>
	<path fill-rule="evenodd" clip-rule="evenodd" fill="#48302F" d="M34.381,64.422c-0.107,0.125-0.254,0.075-0.384,0.075
		c-7.658,0.002-15.316,0.002-22.975,0c-0.13,0-0.275,0.048-0.385-0.074v0.001c0.129-0.068,0.268-0.033,0.4-0.033
		c7.646-0.002,15.293-0.002,22.941-0.001C34.113,64.391,34.251,64.358,34.381,64.422z"/>
	<path fill-rule="evenodd" clip-rule="evenodd" fill="#5E4640" d="M34.381,64.422c-7.915,0.001-15.829,0.002-23.743,0.002
		c0.002-0.025,0.005-0.05,0.006-0.075c0.024-0.035,0.05-0.035,0.076-0.002c7.809,0.002,15.62,0.003,23.43,0.003
		c0.075,0,0.147-0.014,0.222-0.021C34.374,64.359,34.377,64.391,34.381,64.422z"/>
	<path fill-rule="evenodd" clip-rule="evenodd" fill="#761E25" d="M46.706,64.268c-0.004-4.351-0.006-8.7-0.008-13.051
		c0-0.198-0.011-0.396,0.002-0.593c0.032-0.503,0.038-0.985-0.452-1.316c-0.103-0.069-0.162-0.217-0.214-0.34
		c-0.098-0.232-0.192-0.503-0.011-0.703c0.172-0.188,0.433-0.106,0.659-0.028c0.052,0.038,0.058,0.09,0.041,0.147
		c-0.052,0.07-0.126,0.061-0.201,0.063c-0.314,0.007-0.379,0.105-0.266,0.405c0.086,0.228,0.27,0.38,0.424,0.555
		c0.099,0.11,0.27,0.203,0.163,0.401c0,0.024,0.002,0.049,0.004,0.074c-0.004,0.024-0.009,0.05-0.013,0.075
		c-0.056,0.145-0.028,0.295-0.028,0.441c-0.002,4.497,0,8.994-0.006,13.492C46.801,64.013,46.909,64.188,46.706,64.268z"/>
	<path fill-rule="evenodd" clip-rule="evenodd" fill="#3D2340" d="M46.706,64.268c0.116-0.128,0.061-0.283,0.061-0.426
		c0.002-4.485,0.002-8.972,0.004-13.458c0-0.142-0.052-0.298,0.064-0.426c0.004,3.413,0.006,6.824,0.009,10.237
		c0,1.298,0.002,2.595-0.007,3.894c-0.002,0.078,0.156,0.334-0.156,0.244C46.685,64.31,46.693,64.288,46.706,64.268z"/>
	<path fill-rule="evenodd" clip-rule="evenodd" fill="#5D2229" d="M36.913,62.27c0.914,0.094,1.652,0.967,1.697,2.005
		c0.002,0.141-0.077,0.108-0.156,0.071c-0.113-1.148-0.612-1.712-1.772-1.998c-0.026-0.038-0.022-0.072,0.012-0.102
		C36.772,62.203,36.845,62.216,36.913,62.27z"/>
	<path fill-rule="evenodd" clip-rule="evenodd" fill="#49342F" d="M34.628,64.51c1.244,0,2.489,0,3.734,0c0,0.013,0,0.024,0,0.036
		c-1.25,0-2.499,0-3.749,0C34.618,64.534,34.623,64.522,34.628,64.51z"/>
	<path fill-rule="evenodd" clip-rule="evenodd" fill="#543D34" d="M34.396,64.201c-0.007-0.074-0.014-0.149-0.021-0.225
		c-0.105-0.212,0.054-0.383,0.091-0.572c0.057-0.115,0.108-0.236,0.256-0.266c0.06,0.009,0.098,0.043,0.113,0.102
		c-0.16,0.302-0.27,0.621-0.314,0.961C34.478,64.201,34.437,64.201,34.396,64.201z"/>
	<path fill-rule="evenodd" clip-rule="evenodd" fill="#FEFEFE" d="M65.981,33.297c-0.041,0.432-0.221,0.878-0.569,1.226
		c-0.289,0.287-0.648,0.384-1.05,0.192c-0.352-0.166-0.63-0.558-0.591-0.947c0.047-0.484,0.184-0.943,0.577-1.278
		c0.294-0.251,0.623-0.352,0.993-0.208C65.735,32.438,65.983,32.821,65.981,33.297z"/>
	<path fill-rule="evenodd" clip-rule="evenodd" fill="#FEFEFD" d="M61.889,30.521c-0.614-0.012-1.065-0.497-1.015-1.074
		c0.037-0.399,0.169-0.774,0.424-1.086c0.25-0.31,0.557-0.518,0.997-0.396c0.458,0.127,0.708,0.433,0.783,0.884
		c0.086,0.516-0.372,1.357-0.841,1.582C62.113,30.491,61.989,30.541,61.889,30.521z"/>
	<path fill-rule="evenodd" clip-rule="evenodd" fill="#643434" d="M55.067,51.003c0.034-0.005,0.068-0.008,0.103-0.012
		c0.334,0.39,0.551,0.837,0.648,1.341c-0.032,0.044-0.051,0.103-0.122,0.089C55.459,51.96,55.153,51.53,55.067,51.003z"/>
	<path fill-rule="evenodd" clip-rule="evenodd" fill="#5D2624" d="M55.741,52.41c0.026-0.026,0.052-0.052,0.077-0.078
		c0.028,0.144,0.056,0.286,0.086,0.428c0.045,0.209,0.043,0.419,0,0.627c0.011,0.021,0.009,0.041-0.009,0.057
		c-0.062-0.033-0.072-0.09-0.077-0.151C55.684,53.007,55.568,52.722,55.741,52.41z"/>
	<path fill-rule="evenodd" clip-rule="evenodd" fill="#6B4344" d="M55.904,53.387c0-0.208,0-0.418,0-0.627
		C55.973,52.969,55.981,53.179,55.904,53.387z"/>
	<path fill-rule="evenodd" clip-rule="evenodd" fill="#623232" d="M53.968,40.175c0,0.048-0.002,0.096-0.002,0.144
		c-0.501,0.132-0.907-0.07-1.256-0.394c-0.311-0.288-0.321-0.661-0.118-1.015c0.114-0.196-0.042-0.26-0.108-0.376
		c0.023-0.024,0.047-0.049,0.072-0.074c0.023-0.027,0.05-0.028,0.075-0.002c0.186,0.18,0.212,0.351,0.081,0.604
		c-0.25,0.486,0.163,1.021,0.815,1.097C53.673,40.177,53.82,40.17,53.968,40.175z"/>
	<path fill-rule="evenodd" clip-rule="evenodd" fill="#754947" d="M54.115,40.313c0.109-0.114,0.248-0.073,0.379-0.068
		C54.379,40.324,54.248,40.33,54.115,40.313z"/>
	<path fill-rule="evenodd" clip-rule="evenodd" fill="#68332D" d="M48.623,29.481c0.05,0,0.099-0.001,0.147-0.001
		c-0.074,0.191-0.155,0.383-0.147,0.596c0.003,0.167-0.025,0.323-0.143,0.452c0.056,0.22-0.195,0.439-0.005,0.66
		c0.12,0.146,0.124,0.292,0.005,0.44c-0.08-0.064-0.133-0.128-0.18,0.045c-0.097,0.365-0.223,0.722-0.336,1.083
		c-0.032-0.007-0.059-0.023-0.08-0.049c-0.004-0.015-0.008-0.03-0.013-0.045c0.061-0.508,0.283-0.973,0.377-1.472
		c0.097-0.119,0-0.272,0.07-0.395C48.319,30.334,48.488,29.912,48.623,29.481z"/>
	<path fill-rule="evenodd" clip-rule="evenodd" fill="#67322A" d="M47.888,33.271c-0.097,0.729-0.079,1.461-0.082,2.193
		c0,0.186,0.02,0.365,0.086,0.538c-0.032,0.029-0.064,0.057-0.097,0.085c-0.096-0.045-0.106-0.144-0.141-0.228
		c-0.066-0.425-0.013-0.854-0.03-1.279c0.043-0.274,0.062-0.55,0.075-0.827c0-0.062-0.005-0.124,0.009-0.185
		c0.038-0.158,0.045-0.322,0.092-0.478c-0.013-0.017-0.013-0.033,0.006-0.048c0.034-0.028,0.069-0.025,0.099,0.008
		C47.922,33.126,47.935,33.201,47.888,33.271z"/>
	<path fill-rule="evenodd" clip-rule="evenodd" fill="#F8E3C4" d="M47.663,34.526c-0.066,0.444-0.011,0.889-0.009,1.334
		c-0.113-0.617-0.111-1.235,0-1.853C47.727,34.179,47.708,34.352,47.663,34.526z"/>
	<path fill-rule="evenodd" clip-rule="evenodd" fill="#68322A" d="M47.663,34.526c-0.003-0.173-0.007-0.346-0.009-0.519
		c0.004-0.088,0.011-0.177,0.017-0.265c0.005-0.032,0.023-0.048,0.054-0.051C47.71,33.97,47.806,34.257,47.663,34.526z"/>
	<path fill-rule="evenodd" clip-rule="evenodd" fill="#68322A" d="M47.8,33.091c-0.011,0.159,0.068,0.33-0.062,0.472
		c-0.06-0.097-0.053-0.197-0.006-0.296C47.755,33.208,47.778,33.149,47.8,33.091z"/>
	<path fill-rule="evenodd" clip-rule="evenodd" fill="#F8E3C4" d="M47.731,33.266c0.002,0.1,0.004,0.198,0.006,0.296
		c-0.004,0.043-0.008,0.087-0.013,0.129c-0.017,0.017-0.036,0.034-0.054,0.05C47.68,33.583,47.601,33.411,47.731,33.266z"/>
	<path fill-rule="evenodd" clip-rule="evenodd" fill="#6B342D" d="M48.319,30.795c-0.009,0.134,0.062,0.283-0.07,0.395
		C48.249,31.054,48.251,30.918,48.319,30.795z"/>
	<path fill-rule="evenodd" clip-rule="evenodd" fill="#68332D" d="M47.883,33.042c-0.025,0-0.051,0-0.077,0
		c-0.006-0.131,0.003-0.261,0.066-0.381l0.018,0.021C47.93,32.803,47.943,32.924,47.883,33.042z"/>
	<path fill-rule="evenodd" clip-rule="evenodd" fill="#9C4338" d="M55.741,52.41c0.026,0.294,0.052,0.588,0.077,0.882
		c-0.153,0.502-0.316,0.98-0.667,1.409c-0.591,0.722-1.782,1.029-2.521,0.501c-0.478-0.339-0.978-0.286-1.482-0.347
		c-1.261-0.267-2.247-1.203-2.443-2.36c-0.172-1.004-0.514-1.895-1.404-2.481c-0.141-0.092-0.261-0.238-0.457-0.205
		c-0.007-0.201-0.19-0.272-0.296-0.401c-0.099-0.124-0.216-0.234-0.304-0.364c-0.133-0.2-0.239-0.449-0.094-0.651
		c0.132-0.186,0.359-0.015,0.545,0.008c0.268-0.05,0.441,0.163,0.666,0.232c0.062,0.031,0.124,0.062,0.182,0.098
		c0.377,0.202,0.772,0.372,1.11,0.643c-0.308-0.25-0.665-0.418-1.012-0.603c-0.077-0.041-0.127-0.112-0.18-0.177
		c-0.185-0.216-0.398-0.401-0.593-0.608c-0.047-0.052-0.086-0.112-0.113-0.179c-0.165-0.199-0.352-0.381-0.542-0.553
		c-0.378-0.337-0.502-0.74-0.367-1.225c0.211-0.291,0.479-0.035,0.69-0.074c-0.214-0.081-0.511,0.007-0.706-0.228
		c-0.164-0.523-0.092-0.712,0.375-1.016c0.22-0.143,0.473-0.206,0.71-0.308c0.242-0.069,0.492-0.097,0.738-0.15
		c0.094-0.023,0.192-0.028,0.289-0.034c0.038-0.004,0.077-0.003,0.115-0.001c0.871-0.003,1.735,0.042,2.576,0.315
		c0.237,0.078,0.455,0.2,0.661,0.267c-0.873-0.461-1.864-0.536-2.853-0.614c-0.038-0.004-0.074-0.012-0.111-0.023
		c-0.552-0.18-1.132-0.308-1.544-0.77c-0.095-0.116-0.183-0.233-0.235-0.374c-0.104-0.267-0.03-0.348,0.288-0.328
		c1.044-0.01,2.093-0.06,3.12,0.212c0.931,0.239,1.784,0.63,2.533,1.242c0.526,0.43,0.821,1.005,1.05,1.625
		c0.068,0.184,0.138,0.368,0.206,0.552c0.077,0.114,0.032,0.273,0.141,0.374c0.176,0.692,0.352,1.384,0.526,2.076
		c0.061,0.169,0.034,0.361,0.137,0.521c0.107,0.59,0.073,1.222,0.514,1.711C55.32,51.459,55.551,51.925,55.741,52.41z"/>
	<path fill-rule="evenodd" clip-rule="evenodd" fill="#7B2028" d="M46.841,42.691c-0.286,0.026-0.322,0.164-0.173,0.385
		c0.06,0.092,0.117,0.185,0.178,0.276c0.025,0.34,0.077,0.681-0.039,1.016c-0.029,0.038-0.068,0.047-0.113,0.024
		c0.005-0.489,0.07-0.985-0.255-1.418c-0.07-0.093-0.11-0.284,0.011-0.336c0.319-0.131,0.246-0.386,0.246-0.619
		c-0.002-1.704-0.006-3.408-0.011-5.112c-0.006-0.015-0.013-0.029-0.019-0.044c0.008-0.013,0.017-0.026,0.027-0.039
		c0.126,0.122,0.073,0.279,0.073,0.42c0.004,1.65,0,3.302,0.004,4.953c0,0.141-0.054,0.299,0.073,0.419
		C46.844,42.642,46.844,42.667,46.841,42.691z"/>
	<path fill-rule="evenodd" clip-rule="evenodd" fill="#93362C" d="M52.631,38.459c-0.025,0-0.05,0.001-0.075,0.002
		c-0.379-0.471-0.862-0.843-1.22-1.333c-0.072-0.098-0.188-0.166-0.192-0.305c0.084-0.133,0.223-0.125,0.357-0.146
		c0.668-0.11,1.277-0.337,1.721-0.886c0.198-0.108,0.314-0.304,0.491-0.508c0.095,0.628-0.062,1.172-0.241,1.715
		c-0.154,0.464-0.449,0.846-0.729,1.236C52.69,38.304,52.631,38.365,52.631,38.459z"/>
	<path fill-rule="evenodd" clip-rule="evenodd" fill="#661F1C" d="M53.222,35.791c-0.082,0.342-0.388,0.457-0.643,0.613
		c-0.438,0.269-0.945,0.319-1.436,0.419c-0.072-0.048-0.144-0.096-0.214-0.145c0.084-0.08,0.208,0.005,0.293-0.07
		c0.645-0.029,1.232-0.205,1.729-0.638C53.031,35.902,53.091,35.789,53.222,35.791z"/>
	<path fill-rule="evenodd" clip-rule="evenodd" fill="#93362C" d="M51.223,36.608c-0.079,0.098-0.192,0.059-0.295,0.07
		c-0.049-0.003-0.099-0.006-0.147-0.01C50.915,36.551,51.075,36.622,51.223,36.608z"/>
	<path fill-rule="evenodd" clip-rule="evenodd" fill="#671821" d="M38.546,36.846c-0.002-0.03-0.006-0.06-0.009-0.09
		c2.694,0,5.39-0.002,8.084-0.002c0.023,0.023,0.049,0.047,0.072,0.07l-0.004,0.013c-0.081,0.038-0.169,0.025-0.255,0.025
		c-2.557,0.001-5.111,0.001-7.668,0.001C38.693,36.863,38.619,36.868,38.546,36.846z"/>
	<path fill-rule="evenodd" clip-rule="evenodd" fill="#93362C" d="M51.294,33.703c-0.268-0.896,0.162-1.255,0.687-1.38
		c0.704-0.168,1.387,0.216,1.513,0.876c0.133,0.689-0.535,1.264-1.313,1.088c-0.266-0.06-0.521-0.161-0.661-0.427
		C51.465,33.775,51.359,33.767,51.294,33.703z"/>
	<path fill-rule="evenodd" clip-rule="evenodd" fill="#491C23" d="M51.844,29.935c0.447,0.01,0.937,0.468,0.976,0.897
		c0.004,0.045,0,0.104-0.028,0.135c-0.054,0.063-0.109,0.013-0.156-0.026c-0.471-0.385-1.024-0.458-1.606-0.421
		c-0.079,0.004-0.197,0.033-0.214-0.081c-0.007-0.05,0.064-0.133,0.122-0.17C51.217,30.083,51.526,29.966,51.844,29.935z"/>
	<path fill-rule="evenodd" clip-rule="evenodd" fill="#93362C" d="M48.258,33.863c-0.007-0.27,0.143-0.427,0.392-0.443
		c0.823-0.054,1.637,0.023,2.426,0.286c-0.103,0.172-0.276,0.171-0.445,0.179c-0.203,0.009-0.41-0.019-0.609,0.053
		c-0.404,0.04-0.811,0.03-1.218,0.01c-0.146-0.034-0.288-0.082-0.442-0.05C48.321,33.897,48.287,33.886,48.258,33.863z"/>
	<path fill-rule="evenodd" clip-rule="evenodd" fill="#602E2D" d="M50.029,33.857c0.331-0.17,0.714,0.017,1.046-0.151
		c0.073-0.001,0.146-0.002,0.219-0.003c0.166-0.081,0.243-0.03,0.225,0.157c-0.445,0.28-0.873,0.588-1.336,0.833
		c-0.417,0.219-0.849,0.476-1.36,0.281c-0.045-0.016-0.079-0.052-0.12-0.079c-0.004-0.126-0.045-0.27,0.14-0.309
		c0.149,0.185,0.327,0.211,0.559,0.158c0.554-0.128,0.997-0.468,1.472-0.74c-0.079-0.064-0.139,0.028-0.21,0.02
		c-0.697,0.159-1.405,0.069-2.107,0.095c-0.085,0.011-0.156-0.009-0.201-0.092c-0.021-0.054-0.023-0.111-0.025-0.168
		c0.124-0.111,0.248-0.103,0.374-0.002C49.146,33.923,49.588,33.925,50.029,33.857z"/>
	<path fill-rule="evenodd" clip-rule="evenodd" fill="#91372D" d="M49.293,32.158c0.16,0.282,0.225,0.628,0.614,0.741
		c0.151,0.044,0.154,0.204-0.021,0.292c-0.054-0.045-0.09-0.111-0.174-0.134c0.071,0.039,0.125,0.083,0.174,0.134
		c-0.311,0.118-0.593-0.074-0.893-0.076c-0.013-0.02-0.021-0.043-0.036-0.063C48.591,32.569,48.668,32.366,49.293,32.158z"/>
	<path fill-rule="evenodd" clip-rule="evenodd" fill="#68221E" d="M54.854,33.642c0.242,0.456,0.223,0.613-0.128,0.781
		c0.096-0.249,0.282-0.541-0.054-0.672c-0.516-0.201-0.426,0.401-0.67,0.598c-0.025-0.716,0.663-1.395,1.303-1.304
		c0.136,0.018,0.276,0.052,0.336,0.19c0.037,0.083-0.053,0.089-0.11,0.099c-0.233-0.13-0.454-0.065-0.672,0.041
		C54.691,33.457,54.715,33.55,54.854,33.642z"/>
	<path fill-rule="evenodd" clip-rule="evenodd" fill="#491F26" d="M51.373,32.079c-0.262,0.107-0.447-0.003-0.591-0.211
		c-0.169-0.249-0.025-0.433,0.142-0.607c0.07-0.032,0.139-0.022,0.209,0c0.131,0.044,0.233,0.122,0.314,0.232
		C51.544,31.703,51.612,31.912,51.373,32.079z"/>
	<path fill-rule="evenodd" clip-rule="evenodd" fill="#4C1C22" d="M48.694,30.143c0.25-0.321,0.838-0.242,0.994,0.131
		c0.032,0.081,0.034,0.17-0.063,0.164c-0.334-0.021-0.668,0.076-1.002,0.009C48.546,30.323,48.63,30.235,48.694,30.143z"/>
	<path fill-rule="evenodd" clip-rule="evenodd" fill="#F6F2F2" d="M51.373,32.079c0.094-0.197,0.087-0.393-0.009-0.587
		c-0.079-0.175,0.038-0.184,0.154-0.17c0.18,0.021,0.347,0.091,0.513,0.155c0.073,0.035,0.124,0.089,0.148,0.167
		c0.021,0.081,0.156,0.17,0.011,0.245C51.936,32.02,51.685,32.19,51.373,32.079z"/>
	<path fill-rule="evenodd" clip-rule="evenodd" fill="#622F31" d="M48.617,31.03c0.207-0.283,0.479-0.293,0.783-0.194
		c0.115,0.036,0.203,0.165,0.365,0.047c0.127-0.091,0.118,0.068,0.12,0.141c0.004,0.395-0.205,0.693-0.445,0.979
		c-0.032-0.025-0.077-0.032-0.085-0.079c0.004-0.021,0.004-0.043,0.006-0.064c-0.047-0.177,0.135-0.261,0.167-0.406
		c0.092-0.292-0.097-0.356-0.318-0.39c-0.135-0.02-0.259,0.02-0.379,0.083C48.729,31.165,48.651,31.136,48.617,31.03z"/>
	<path fill-rule="evenodd" clip-rule="evenodd" fill="#491D24" d="M48.617,31.03c0.077,0.039,0.147,0.095,0.241,0.067
		c0.018,0.006,0.034,0.013,0.052,0.02c0.106,0.076,0.194,0.167,0.231,0.297c0.029,0.154,0.042,0.306-0.064,0.439
		c-0.242,0.039-0.424-0.081-0.597-0.227c0-0.146-0.003-0.293-0.005-0.44C48.522,31.135,48.57,31.083,48.617,31.03z"/>
	<path fill-rule="evenodd" clip-rule="evenodd" fill="#4D2329" d="M48.837,34.602c-0.045,0.097-0.09,0.195-0.135,0.293
		c-0.265-0.171-0.372-0.426-0.378-0.732c-0.018-0.09-0.107-0.204,0.074-0.229c0.007,0.066,0.021,0.125,0.099,0.139
		c0.176-0.003,0.319,0.067,0.419,0.201C49.013,34.402,49.011,34.527,48.837,34.602z"/>
	<path fill-rule="evenodd" clip-rule="evenodd" fill="#F4F0F1" d="M49.077,31.854c0.04-0.174-0.005-0.345-0.016-0.518
		c-0.029-0.058-0.051-0.117-0.025-0.182c0.354-0.159,0.573-0.024,0.559,0.338c-0.043,0.145-0.133,0.26-0.233,0.367
		C49.266,31.857,49.171,31.855,49.077,31.854z"/>
	<path fill-rule="evenodd" clip-rule="evenodd" fill="#641F1D" d="M49.355,31.924c0.027,0.026,0.056,0.052,0.085,0.079
		c-0.049,0.051-0.099,0.103-0.147,0.155c-0.086,0.065-0.165,0.14-0.259,0.192c-0.293,0.167-0.357,0.351-0.06,0.574
		c0.081,0.06,0.047,0.123,0.019,0.19c-0.46-0.272-0.518-0.654-0.04-0.892C49.101,32.149,49.223,32.025,49.355,31.924z"/>
	<path fill-rule="evenodd" clip-rule="evenodd" fill="#683233" d="M52.18,31.644c-0.043-0.031-0.088-0.062-0.131-0.093
		c-0.295-0.175-0.586-0.375-0.959-0.223c-0.056-0.022-0.11-0.045-0.166-0.067c0.2-0.274,0.48-0.28,0.751-0.169
		C51.914,31.191,52.211,31.277,52.18,31.644z"/>
	<path fill-rule="evenodd" clip-rule="evenodd" fill="#8D3A33" d="M54.854,33.642c-0.104-0.023-0.241-0.042-0.244-0.16
		c-0.002-0.061,0.118-0.145,0.199-0.184c0.244-0.119,0.494-0.216,0.722,0.037c-0.208-0.013-0.402,0.043-0.596,0.116
		C54.832,33.489,54.811,33.547,54.854,33.642z"/>
	<path fill-rule="evenodd" clip-rule="evenodd" fill="#953A30" d="M48.51,35.567c0.264,0.036,0.499,0.068,0.742,0.103
		C49.011,35.951,48.799,35.927,48.51,35.567z"/>
	<path fill-rule="evenodd" clip-rule="evenodd" fill="#6B342D" d="M48.694,30.143c-0.023,0.102-0.048,0.203-0.071,0.305
		c-0.047,0.027-0.096,0.054-0.143,0.081c0.045-0.152,0.038-0.319,0.143-0.452C48.646,30.099,48.671,30.121,48.694,30.143z"/>
	<path fill-rule="evenodd" clip-rule="evenodd" fill="#68322A" d="M47.883,33.042c0.002-0.12,0.005-0.239,0.007-0.36
		c0.025,0.024,0.049,0.049,0.075,0.074c-0.03,0.171,0.051,0.359-0.077,0.516C47.885,33.196,47.883,33.12,47.883,33.042z"/>
	<path fill-rule="evenodd" clip-rule="evenodd" fill="#5A1E1D" d="M48.398,33.934c-0.085,0.057-0.066,0.148-0.074,0.229
		c-0.095-0.083-0.064-0.196-0.066-0.299c0.023-0.002,0.047-0.003,0.07-0.004C48.352,33.883,48.375,33.909,48.398,33.934z"/>
	<path fill-rule="evenodd" clip-rule="evenodd" fill="#E5C8AA" d="M34.736,63.136c-0.064,0.089-0.131,0.178-0.197,0.267
		c-0.173,0.179-0.208,0.418-0.258,0.642c-0.037,0.16-0.104,0.203-0.247,0.195c-0.075-0.006-0.15-0.002-0.223-0.002
		c-7.538,0-15.076,0-22.615,0c-0.479,0-0.481,0-0.481-0.49c0-8.762,0-17.522,0.002-26.283c0-0.175-0.066-0.379,0.138-0.505
		c0.121-0.035,0.246-0.019,0.369-0.019c5.586-0.001,11.171-0.001,16.758,0.001c0.115,0,0.232-0.027,0.28-0.004
		c-5.788,0.002-11.64-0.002-17.491,0.003c-0.058-0.017-0.075-0.053-0.049-0.107l-0.005-0.008c1.892,0.003,3.783,0.009,5.675,0.01
		c3.905,0.001,7.812,0.003,11.718-0.006c0.299-0.001,0.519,0.023,0.562,0.368c0.127,0.119,0.14,0.281,0.173,0.438
		c0.073,0.352,0.218,0.678,0.386,0.995c0.102,0.269,0.258,0.505,0.443,0.721c0.286,0.336,0.492,0.292,0.646-0.131
		c0.079-0.146-0.039-0.413,0.259-0.421c0.163,0.095,0.199,0.274,0.283,0.424c0.312,0.555,0.624,1.104,1.38,1.121
		c0.143,0.003,0.22,0.141,0.312,0.241c0.287,0.319,0.523,0.289,0.698-0.096c0.222-0.488,0.303-1.012,0.363-1.539
		c0.009-0.073-0.003-0.148,0.007-0.222c0.015-0.118-0.003-0.276,0.161-0.288c0.142-0.011,0.16,0.132,0.187,0.236
		c0.074,0.288,0.162,0.568,0.282,0.841c0.045,0.101,0.091,0.2,0.166,0.284c0.249,0.281,0.444,0.263,0.621-0.077
		c0.129-0.242,0.166-0.514,0.223-0.778c0.03-0.141,0.038-0.296,0.161-0.403c0.278,0.091,0.558,0.182,0.837,0.273
		c-0.05,0.221,0.01,0.442,0.01,0.662c-0.004,7.331-0.004,14.661-0.002,21.993c0,0.332,0.008,0.653-0.385,0.786
		c-0.233,0.271-0.627,0.326-0.848,0.618C34.933,62.957,34.87,63.088,34.736,63.136z"/>
	<path fill-rule="evenodd" clip-rule="evenodd" fill="#9C4338" d="M32.072,33.715c0.309,0.074,0.623,0.128,0.924,0.225
		c0.911,0.291,1.79,0.643,2.077,1.69c0.118,0.426,0.2,0.863,0.199,1.31c-0.002,0.433,0.002,0.865,0.005,1.299
		c0.137,0.567-0.037,1.088-0.28,1.578c-0.144,0.284-0.424,0.26-0.614-0.017c-0.176-0.257-0.265-0.553-0.353-0.845
		c-0.078-0.257-0.145-0.517-0.234-0.771c-0.031-0.156-0.072-0.31-0.081-0.47c0.003-0.109-0.013-0.219-0.002-0.28
		c0.051,0.885-0.072,1.799-0.305,2.7c-0.036,0.143-0.08,0.283-0.151,0.415c-0.18,0.338-0.473,0.389-0.69,0.075
		c-0.161-0.232-0.34-0.309-0.605-0.317c-0.42-0.013-0.627-0.352-0.857-0.635c-0.218-0.27-0.341-0.596-0.486-0.909
		c-0.035-0.043-0.066-0.092-0.095-0.141c-0.113-0.184-0.087-0.4-0.143-0.597c-0.007-0.12-0.003-0.24-0.01-0.408
		c0.004,0.228-0.004,0.409,0.028,0.588c0.003,0.176,0.005,0.353,0.003,0.529c-0.04,0.145-0.003,0.298-0.043,0.438
		c-0.042,0.15-0.071,0.324-0.257,0.376c-0.193,0.053-0.33-0.055-0.445-0.191c-0.184-0.216-0.323-0.462-0.444-0.718
		c-0.292-0.544-0.443-1.127-0.467-1.744c0.02-0.356-0.004-0.709,0.037-1.068c0.132-1.16,1.194-1.875,2.188-2.043
		C31.336,33.724,31.703,33.697,32.072,33.715z"/>
	<path fill-rule="evenodd" clip-rule="evenodd" fill="#6C342C" d="M28.745,36.898c0.156,0.575,0.25,1.167,0.516,1.709
		c-0.027,0.036-0.034,0.09-0.09,0.101c-0.28-0.466-0.435-0.975-0.499-1.511C28.777,37.116,28.729,37,28.745,36.898z"/>
	<path fill-rule="evenodd" clip-rule="evenodd" fill="#F8E3C4" d="M17.389,29.654c-0.002,0.763-0.345,1.168-0.966,1.168
		c-0.354,0-0.581-0.171-0.711-0.481c-0.176-0.42-0.134-0.846,0.031-1.255c0.15-0.375,0.534-0.56,0.937-0.489
		c0.357,0.062,0.655,0.395,0.706,0.799C17.396,29.48,17.389,29.567,17.389,29.654z"/>
	<path fill-rule="evenodd" clip-rule="evenodd" fill="#F8E3C4" d="M13.528,31.949c0.002,0.709-0.39,1.193-0.944,1.167
		c-0.289-0.014-0.514-0.133-0.671-0.389c-0.329-0.541-0.191-1.356,0.306-1.745c0.503-0.394,1.209-0.014,1.31,0.706
		C13.539,31.775,13.528,31.863,13.528,31.949z"/>
	<path fill-rule="evenodd" clip-rule="evenodd" fill="#632A24" d="M33.865,38.157c0.196,0.489,0.261,1.022,0.516,1.489
		c0.069,0.127,0.107,0.291,0.296,0.292c0.198,0.003,0.277-0.149,0.335-0.298c0.174-0.449,0.252-0.92,0.266-1.401
		c0.046,0.023,0.092,0.047,0.137,0.071c0.015,0.017,0.019,0.037,0.015,0.057c-0.002,0.059-0.004,0.118-0.006,0.177
		c-0.056,0.353-0.095,0.71-0.224,1.046c-0.089,0.23-0.176,0.502-0.462,0.523c-0.312,0.024-0.421-0.26-0.539-0.485
		c-0.186-0.355-0.257-0.754-0.416-1.127c-0.073,0.45-0.109,0.898-0.213,1.337c-0.062,0.265-0.128,0.528-0.261,0.768
		c-0.229,0.407-0.514,0.437-0.804,0.062c-0.127-0.164-0.227-0.277-0.472-0.249c-0.27,0.031-0.49-0.14-0.676-0.33
		c-0.35-0.357-0.614-0.768-0.766-1.247c-0.036-0.084-0.061-0.163,0.079-0.159c0.163,0.429,0.363,0.833,0.679,1.177
		c0.221,0.241,0.451,0.421,0.795,0.382c0.188-0.021,0.295,0.076,0.389,0.225c0.091,0.146,0.191,0.313,0.396,0.285
		c0.216-0.03,0.28-0.224,0.337-0.401c0.295-0.938,0.395-1.9,0.375-2.879c-0.003-0.149-0.043-0.31,0.079-0.527
		c0.108,0.301,0.051,0.542,0.066,0.775C33.743,37.877,33.756,38.026,33.865,38.157z"/>
	<path fill-rule="evenodd" clip-rule="evenodd" fill="#632A24" d="M35.431,37.268c0.034,0.25,0.037,0.499-0.004,0.748
		C35.301,37.767,35.295,37.518,35.431,37.268z"/>
	<path fill-rule="evenodd" clip-rule="evenodd" fill="#DD4F60" d="M36.903,62.124c-0.005,0.031-0.007,0.061-0.009,0.092
		c-0.176,0.008-0.349,0.104-0.524,0c-0.032-0.036-0.054-0.078-0.068-0.125c-0.034-0.171-0.022-0.345-0.022-0.517
		c-0.001-7.368-0.001-14.735,0.001-22.102c0-0.216-0.058-0.449,0.109-0.641c0.221-0.025,0.439-0.053,0.659-0.08
		c0.001,0.027,0.002,0.052,0.002,0.079c-0.476,0.178-0.479,0.565-0.479,0.991c0.008,7.184,0.007,14.368,0.003,21.551
		C36.575,61.677,36.569,61.971,36.903,62.124z"/>
	<path fill-rule="evenodd" clip-rule="evenodd" fill="#E48381" d="M36.39,38.831c-0.002,5.015-0.005,10.027-0.006,15.042
		c-0.001,2.767,0.001,5.531,0.003,8.298c-0.038,0.045-0.075,0.044-0.111-0.001c-0.042-0.064-0.04-0.136-0.04-0.206
		c0-7.522,0-15.044,0-22.565c0-0.147-0.006-0.296,0.011-0.443c0.012-0.049,0.032-0.092,0.062-0.132l-0.01-0.018
		c0,0,0.01-0.016,0.011-0.016C36.336,38.803,36.362,38.817,36.39,38.831z"/>
	<path fill-rule="evenodd" clip-rule="evenodd" fill="#C2475A" d="M38.546,36.846c0.779-0.006,1.556-0.018,2.332-0.018
		c1.937,0,3.875,0.005,5.812,0.009c0.004,0.024,0.002,0.046-0.005,0.07c-2.71,0-5.421,0-8.13,0
		C38.546,36.887,38.544,36.867,38.546,36.846z"/>
	<path fill-rule="evenodd" clip-rule="evenodd" fill="#F2C8AF" d="M36.306,62.049c-0.001,0.044-0.002,0.087-0.002,0.13
		c-0.149,0.123-0.305,0.218-0.503,0.1c-0.197-0.063-0.042-0.114,0.015-0.122c0.325-0.049,0.352-0.259,0.351-0.536
		c-0.006-7.437-0.005-14.872-0.009-22.307c0-0.135,0.076-0.299-0.093-0.404c-0.033-0.021,0.038-0.069,0.195-0.092
		c0.019-0.009,0.033-0.007,0.049,0.007c-0.002,0.027-0.003,0.054-0.003,0.081c-0.064,0.129-0.033,0.268-0.033,0.4
		c-0.001,7.449-0.001,14.896,0,22.343C36.272,61.781,36.242,61.921,36.306,62.049z"/>
	<path fill-rule="evenodd" clip-rule="evenodd" fill="#533A33" d="M35.801,62.278c0.168-0.033,0.336-0.066,0.503-0.1
		c0.028-0.002,0.055-0.005,0.083-0.008v0.033c0.085,0.075,0.208-0.011,0.294,0.069c0,0.023,0,0.05,0.001,0.074
		c-0.619-0.017-1.16,0.188-1.623,0.598c-0.078,0.021-0.104-0.01-0.088-0.085C35.172,62.559,35.504,62.441,35.801,62.278z"/>
	<path fill-rule="evenodd" clip-rule="evenodd" fill="#523B33" d="M34.971,62.86c0.03,0.028,0.06,0.057,0.088,0.085
		c-0.075,0.099-0.149,0.197-0.225,0.295c-0.032-0.035-0.064-0.07-0.098-0.104C34.786,63.02,34.857,62.923,34.971,62.86z"/>
	<path fill-rule="evenodd" clip-rule="evenodd" fill="#F14C64" d="M36.903,62.124c-0.355,0.061-0.454-0.085-0.454-0.442
		c0.011-7.388,0.009-14.775,0.009-22.163c0-0.594,0-0.594,0.593-0.689c0.86-0.186,1.346-0.779,1.608-1.562
		c0.086-0.252,0.195-0.296,0.415-0.295c2.388,0.003,4.771,0.005,7.157-0.002c0.284-0.001,0.396,0.084,0.394,0.382
		c-0.009,1.582-0.004,3.165-0.004,4.746c0,0.136,0.019,0.281-0.133,0.357c-0.336,0.166-0.233,0.416-0.124,0.66
		c0.049,0.112,0.133,0.207,0.184,0.319c0.214,0.471,0.092,0.817-0.357,1.064c-0.402,0.221-0.693,0.513-0.607,1.027
		c0.041,0.254,0.039,0.505,0.004,0.762c-0.053,0.396,0.125,0.719,0.398,0.993c0.216,0.215,0.43,0.432,0.597,0.703
		c-0.862,0.148-1.008,0.51-0.521,1.231c0.074,0.112,0.151,0.229,0.252,0.315c0.231,0.202,0.314,0.443,0.314,0.754
		c-0.009,4.498-0.011,8.997,0.002,13.497c0,0.351-0.106,0.429-0.438,0.427c-2.336-0.013-4.673-0.014-7.009,0.001
		c-0.329,0.003-0.437-0.107-0.512-0.413C38.454,62.906,37.658,62.178,36.903,62.124z"/>
	<path fill-rule="evenodd" clip-rule="evenodd" fill="#761E25" d="M46.693,44.393c0.023,0,0.047,0,0.07,0
		c0.069-0.002,0.127,0.016,0.161,0.082c-0.227,0.098-0.46,0.177-0.674,0.296c-0.409,0.229-0.469,0.405-0.368,0.953
		c0.068,0.103,0.066,0.205,0,0.309c-0.081,0.531,0.085,0.956,0.509,1.298c0.169,0.134,0.345,0.278,0.443,0.484
		c-0.03,0.08,0.025,0.158,0.002,0.238c-0.021,0.062-0.032,0.135-0.126,0.115c0.013-0.223-0.064-0.399-0.24-0.546
		c-0.16-0.134-0.297-0.292-0.442-0.443c-0.146-0.152-0.274-0.33-0.296-0.54c-0.049-0.462,0.024-0.926-0.051-1.396
		c-0.045-0.291,0.268-0.474,0.516-0.614C46.355,44.537,46.528,44.47,46.693,44.393z"/>
	<path fill-rule="evenodd" clip-rule="evenodd" fill="#522738" d="M46.711,48.168c0.019-0.049,0.04-0.096,0.062-0.144
		c0.043-0.044,0.09-0.074,0.152-0.078c0.22,0.178,0.426,0.368,0.584,0.604c-0.015,0.083-0.066,0.132-0.147,0.15
		c-0.244-0.052-0.443-0.204-0.666-0.302c-0.004-0.054-0.008-0.108-0.013-0.163C46.689,48.213,46.698,48.189,46.711,48.168z"/>
	<path fill-rule="evenodd" clip-rule="evenodd" fill="#671F2A" d="M36.681,62.273c-0.101-0.012-0.215,0.033-0.294-0.069
		c0.169,0.003,0.339,0.008,0.508,0.012c0.003,0.019,0.009,0.035,0.019,0.054C36.835,62.271,36.758,62.271,36.681,62.273z"/>
	<path fill-rule="evenodd" clip-rule="evenodd" fill="#745B50" d="M10.722,36.833c-0.002,0.022-0.001,0.046,0.002,0.068
		c0.025,0.044,0.038,0.091,0.035,0.141c-0.016,0.147-0.008,0.296-0.008,0.444c-0.001,8.783,0,17.567-0.002,26.352
		c0,0.146,0.036,0.296-0.034,0.438c-0.002,0.024-0.002,0.048,0.005,0.071c-0.026,0-0.052,0.001-0.076,0.002
		c-0.004-2.757-0.01-5.514-0.011-8.271c-0.001-6.268-0.001-12.535,0.004-18.802C10.638,37.128,10.555,36.953,10.722,36.833z"/>
	<path fill-rule="evenodd" clip-rule="evenodd" fill="#EDD1B8" d="M10.715,64.275c-0.003-2.519-0.009-5.038-0.01-7.556
		c-0.001-6.459-0.001-12.918,0-19.375c0-0.123,0.008-0.247,0.01-0.37c0.05-0.045,0.099-0.041,0.147,0
		c-0.083,0.134-0.074,0.282-0.074,0.431c0.001,8.799,0.003,17.599-0.007,26.397c0,0.34,0.109,0.405,0.423,0.404
		C18.742,64.2,26.281,64.2,33.82,64.209c0.286,0,0.418-0.06,0.455-0.362c0.021-0.159-0.035-0.426,0.264-0.444
		c-0.055,0.191-0.109,0.383-0.165,0.574c-0.063,0.22-0.177,0.309-0.436,0.309C26.196,64.274,18.456,64.275,10.715,64.275z"/>
	<path fill-rule="evenodd" clip-rule="evenodd" fill="#672220" d="M48.403,44.098c1.129,0.11,2.278,0.154,3.229,0.906
		c-1.13-0.596-2.343-0.746-3.597-0.687c-0.02-0.069,0.023-0.103,0.075-0.13c0.155-0.056,0.297,0.016,0.408,0.032
		c0.081,0.031,0.049-0.07,0.043-0.021c0,0.008-0.011,0.006-0.03,0.005C48.463,44.199,48.38,44.213,48.403,44.098z"/>
	<path fill-rule="evenodd" clip-rule="evenodd" fill="#66201D" d="M50.072,47.528c-0.817-0.548-1.682-1.003-2.603-1.355
		C48.463,46.386,49.332,46.836,50.072,47.528z"/>
	<path fill-rule="evenodd" clip-rule="evenodd" fill="#54283D" d="M46.925,44.475c-0.064-0.009-0.124-0.021-0.161-0.082
		c0.043-0.345-0.079-0.704,0.082-1.04c0.417,0.404,0.971,0.529,1.484,0.739c-0.051,0.07-0.128,0.074-0.205,0.073
		c-0.131-0.011-0.255-0.049-0.386-0.054c-0.053-0.005-0.106-0.017-0.16-0.033c-0.156-0.079-0.338-0.104-0.483-0.206
		c-0.212-0.127-0.152,0.072-0.154,0.145c-0.002,0.091-0.051,0.235,0.129,0.233c0.072,0,0.141-0.022,0.214-0.026
		c0.137,0.002,0.28-0.021,0.385,0.101C47.432,44.426,47.175,44.435,46.925,44.475z"/>
	<path fill-rule="evenodd" clip-rule="evenodd" fill="#67221F" d="M47.656,48.7c0.454,0.209,0.89,0.445,1.209,0.864
		c-0.454-0.263-0.905-0.526-1.358-0.79C47.539,48.71,47.613,48.739,47.656,48.7z"/>
	<path fill-rule="evenodd" clip-rule="evenodd" fill="#6E2723" d="M45.883,46.032c0-0.104,0-0.206,0-0.309
		c0.22,0.123,0.477,0.081,0.71,0.15c0.097,0.029,0.276-0.023,0.266,0.113c-0.018,0.179-0.174,0.034-0.264,0.05
		C46.355,46.078,46.12,45.876,45.883,46.032z"/>
	<path fill-rule="evenodd" clip-rule="evenodd" fill="#55364C" d="M47.733,44.023c0.131-0.013,0.257,0.003,0.372,0.072
		c0.043,0.049,0.045,0.099,0.005,0.15c-0.026,0.023-0.052,0.047-0.075,0.071c-0.028-0.001-0.054-0.002-0.081-0.003
		c-0.09-0.07-0.208-0.002-0.302-0.057C47.604,44.154,47.671,44.09,47.733,44.023z"/>
	<path fill-rule="evenodd" clip-rule="evenodd" fill="#581C1D" d="M48.11,44.246c-0.003-0.051-0.005-0.1-0.005-0.15
		c0.075-0.001,0.149-0.002,0.225-0.004c0.023,0.001,0.05,0.003,0.073,0.006c0.042,0.091,0.151,0.05,0.265,0.148
		C48.448,44.246,48.279,44.246,48.11,44.246z"/>
	<path fill-rule="evenodd" clip-rule="evenodd" fill="#482E49" d="M47.642,44.234c0.104,0.025,0.229-0.024,0.312,0.08
		c-0.095,0.003-0.19,0.006-0.285,0.01c-0.156-0.005-0.314-0.009-0.471-0.013c-0.002-0.019-0.004-0.037-0.004-0.055
		c0.02-0.031,0.047-0.054,0.081-0.069C47.404,44.154,47.53,44.138,47.642,44.234z"/>
	<path fill-rule="evenodd" clip-rule="evenodd" fill="#52181B" d="M47.656,48.7c-0.032,0.061-0.09,0.068-0.149,0.074
		c-0.05-0.024-0.097-0.05-0.146-0.073c0.027-0.071,0.074-0.123,0.147-0.15C47.558,48.601,47.607,48.65,47.656,48.7z"/>
	<path fill-rule="evenodd" clip-rule="evenodd" fill="#4F1922" d="M46.925,47.946c-0.032,0.062-0.086,0.081-0.152,0.078
		c0.002-0.076-0.017-0.157,0.062-0.21C46.864,47.858,46.895,47.902,46.925,47.946z"/>
	<path fill-rule="evenodd" clip-rule="evenodd" fill="#5A1E1D" d="M50.029,33.857c0.047,0.005,0.096,0.011,0.144,0.016
		c0,0.018,0,0.037,0,0.057c-0.506,0-1.008,0-1.513-0.001c-0.009,0-0.018-0.012-0.026-0.018c0.023-0.018,0.045-0.035,0.068-0.053
		C49.146,33.857,49.588,33.857,50.029,33.857z"/>
	<path fill-rule="evenodd" clip-rule="evenodd" fill="#F9F7F8" d="M48.837,34.602c0.107-0.125,0.163-0.241-0.036-0.338
		c-0.106-0.053-0.201-0.126-0.304-0.19c0.064-0.152,0.19-0.075,0.289-0.073c0.663,0.018,1.326,0.011,1.985-0.074
		c0.094-0.017,0.214-0.099,0.233,0.087c-0.544,0.36-1.083,0.741-1.748,0.842C49.081,34.88,48.799,34.98,48.837,34.602z"/>
	<path fill-rule="evenodd" clip-rule="evenodd" fill="#B49B9F" d="M51.005,34.013c-0.043-0.12-0.161-0.046-0.233-0.087
		c0.079-0.068,0.176-0.059,0.27-0.064c0.056-0.003,0.101,0.024,0.075,0.079C51.099,33.976,51.043,33.991,51.005,34.013z"/>
	<path fill-rule="evenodd" clip-rule="evenodd" fill="#6D231F" d="M49.886,33.191c-0.023-0.003-0.054,0.002-0.07-0.011
		c-0.107-0.073-0.276-0.007-0.341-0.154c-0.008-0.02,0.054-0.1,0.084-0.1C49.731,32.929,49.864,32.995,49.886,33.191L49.886,33.191z
		"/>
	<path fill-rule="evenodd" clip-rule="evenodd" fill="#BAB0B9" d="M51.09,31.328c0.321-0.236,0.625-0.166,0.959,0.223
		c-0.169-0.048-0.34-0.093-0.509-0.146c-0.095-0.03-0.165-0.038-0.176,0.087C51.272,31.439,51.217,31.324,51.09,31.328z"/>
	<path fill-rule="evenodd" clip-rule="evenodd" fill="#C4BBC3" d="M49.595,31.493c-0.038-0.363-0.276-0.347-0.539-0.287
		c-0.088,0.003-0.147-0.045-0.203-0.104l0.006-0.004c0.197-0.301,0.431-0.129,0.643-0.04C49.712,31.149,49.744,31.309,49.595,31.493
		z"/>
	<path fill-rule="evenodd" clip-rule="evenodd" fill="#44232A" d="M48.853,31.102c0.094-0.015,0.133,0.077,0.203,0.104
		c0.002,0.043,0.004,0.087,0.006,0.13C48.968,31.28,48.885,31.213,48.853,31.102z"/>
	<path fill-rule="evenodd" clip-rule="evenodd" fill="#D56B4B" d="M14.94,55.674c-0.146-0.087-0.273-0.188-0.295-0.374
		c0.002-2.952,0.001-5.905,0.002-8.857c0-0.198-0.007-0.394,0.077-0.582c0.115-0.264,0.306-0.412,0.595-0.425
		c0.135-0.008,0.271-0.003,0.406-0.003c5.561,0,11.119,0.004,16.68-0.007c0.467-0.001,0.9,0.011,1.232,0.39
		c0.132,0.117,0.086,0.275,0.086,0.417c0.003,2.903,0.003,5.805,0,8.708c0,0.142,0.045,0.3-0.086,0.418
		c-0.331,0.385-0.768,0.393-1.234,0.392c-5.602-0.01-11.202-0.006-16.804-0.005C15.376,55.746,15.156,55.738,14.94,55.674z"/>
	<path fill-rule="evenodd" clip-rule="evenodd" fill="#CA6949" d="M14.94,55.674c0.188-0.106,0.377,0.003,0.565,0.003
		c5.757-0.008,11.517-0.008,17.274-0.004c0.334,0.001,0.615-0.049,0.761-0.393c0.014-0.032,0.033-0.111,0.086-0.03
		c0.02,0.026,0.009,0.072,0.011,0.108c-0.203,0.332-0.487,0.476-0.888,0.475c-5.74-0.008-11.48-0.005-17.221-0.006
		C15.32,55.827,15.104,55.851,14.94,55.674z"/>
	<path fill-rule="evenodd" clip-rule="evenodd" fill="#CF6748" d="M33.638,45.815c-0.002,0.036,0.008,0.081-0.008,0.109
		c-0.052,0.082-0.074,0.006-0.088-0.027c-0.152-0.363-0.454-0.395-0.796-0.395c-5.722,0.004-11.44,0.003-17.161,0.003
		c-0.691,0-0.862,0.175-0.863,0.885c-0.001,2.83,0.001,5.659-0.004,8.487c0,0.142,0.056,0.3-0.072,0.422l0,0
		c-0.057-0.091-0.034-0.192-0.034-0.29c-0.001-2.949,0-5.897,0-8.847c0-0.098-0.021-0.199,0.033-0.29
		c0.054-0.238,0.214-0.372,0.437-0.445c0.117-0.058,0.242-0.029,0.364-0.029c5.815-0.003,11.631-0.003,17.445,0
		c0.12,0,0.247-0.032,0.362,0.034C33.411,45.529,33.547,45.649,33.638,45.815z"/>
	<path fill-rule="evenodd" clip-rule="evenodd" fill="#D56B4B" d="M33.253,45.433c-6.057-0.001-12.114-0.004-18.171-0.005
		c0.124-0.115,0.279-0.079,0.424-0.079c5.764-0.002,11.527-0.002,17.291,0.001C32.95,45.35,33.12,45.298,33.253,45.433z"/>
	<path fill-rule="evenodd" clip-rule="evenodd" fill="#F0D3BC" d="M10.862,36.975c-0.049,0-0.098,0-0.147,0
		c0.003-0.024,0.007-0.049,0.009-0.074c5.915,0,11.829,0,17.744,0c0,0.024,0,0.049,0,0.074
		C22.601,36.975,16.731,36.975,10.862,36.975z"/>
	<path fill-rule="evenodd" clip-rule="evenodd" fill="#D56B4B" d="M14.645,45.873c0.001,3.142,0.001,6.284,0.001,9.427
		c-0.118-0.124-0.075-0.28-0.075-0.423c-0.003-2.86-0.003-5.72-0.001-8.58C14.57,46.153,14.532,45.999,14.645,45.873z"/>
	<path fill-rule="evenodd" clip-rule="evenodd" fill="#622D25" d="M29.171,38.708c0.029-0.033,0.06-0.067,0.09-0.101
		c0.151,0.249,0.268,0.519,0.475,0.731c0.097,0.098,0.196,0.199,0.348,0.145c0.145-0.053,0.186-0.19,0.204-0.322
		c0.021-0.132,0.012-0.268,0.017-0.401c0.2,0.153,0.089,0.354,0.082,0.539c-0.149,0.434-0.37,0.504-0.688,0.201
		C29.466,39.277,29.277,39.018,29.171,38.708z"/>
	<path fill-rule="evenodd" clip-rule="evenodd" fill="#743934" d="M30.386,39.298c-0.05-0.176,0.062-0.376-0.082-0.539
		c-0.001-0.2-0.001-0.399-0.001-0.599c0.033-0.021,0.063-0.02,0.095,0.004c0.104,0.131-0.028,0.37,0.203,0.442
		c0.023,0.025,0.046,0.05,0.07,0.075c-0.066,0.033-0.069,0.098-0.079,0.159C30.325,38.904,30.536,39.183,30.386,39.298z"/>
	<path fill-rule="evenodd" clip-rule="evenodd" fill="#6B2623" d="M32.305,39.306c-0.196-0.697-0.22-1.416-0.246-2.133
		C32.28,37.867,32.303,38.586,32.305,39.306z"/>
	<path fill-rule="evenodd" clip-rule="evenodd" fill="#6E2724" d="M30.372,38.165c-0.022-0.001-0.046-0.002-0.069-0.004
		c-0.011-0.168-0.018-0.337-0.038-0.504c-0.009-0.075-0.038-0.162,0.055-0.178c0.121-0.021,0.12,0.092,0.127,0.172
		c0.007,0.12,0.002,0.241,0.003,0.361C30.405,38.055,30.436,38.133,30.372,38.165z"/>
	<path fill-rule="evenodd" clip-rule="evenodd" fill="#5A1B1B" d="M30.372,38.165c0.004-0.062,0.016-0.119,0.077-0.152
		c0.121,0.18,0.021,0.417,0.151,0.594C30.238,38.606,30.421,38.325,30.372,38.165z"/>
	<path fill-rule="evenodd" clip-rule="evenodd" fill="#5B1C1C" d="M33.865,38.157c-0.297-0.099-0.146-0.276-0.079-0.439
		C33.812,37.864,33.839,38.011,33.865,38.157z"/>
	<path fill-rule="evenodd" clip-rule="evenodd" fill="#F5B8A7" d="M36.306,62.049c-0.115-0.111-0.068-0.256-0.068-0.386
		c-0.002-7.458-0.002-14.915,0-22.372c0-0.131-0.048-0.275,0.068-0.387C36.306,46.62,36.306,54.335,36.306,62.049z"/>
	<path fill-rule="evenodd" clip-rule="evenodd" fill="#FDFAFB" d="M39.802,40.457c-0.063-0.491-0.063-0.492,0.398-0.492
		c1.024-0.001,2.05-0.004,3.076,0.003c0.142,0.001,0.347-0.082,0.386,0.165c0.032,0.203,0.002,0.372-0.21,0.499
		c-0.911,0.548-1.789,1.148-2.722,1.659c-0.051,0.028-0.096,0.065-0.23,0.154c0.453,0,0.812,0,1.172,0
		c0.544,0,1.087-0.003,1.631,0.002c0.16,0.002,0.361-0.063,0.367,0.225c0.007,0.286-0.186,0.237-0.353,0.237
		c-1.173,0.003-2.347,0.004-3.521,0.005c-0.013-0.014-0.028-0.028-0.043-0.042c-0.077-0.173-0.062-0.35-0.015-0.525
		c0.286-0.354,0.714-0.517,1.078-0.758c0.552-0.365,1.105-0.734,1.696-1.036c-0.828-0.029-1.651-0.011-2.476-0.017
		C39.949,40.535,39.864,40.531,39.802,40.457z"/>
	<path fill-rule="evenodd" clip-rule="evenodd" fill="#F7DDE2" d="M42.406,51.434c-0.135-0.09-0.289-0.055-0.435-0.056
		c-0.655-0.004-1.31-0.005-1.964,0c-0.188,0.001-0.27-0.071-0.27-0.262c0-0.181,0.06-0.275,0.256-0.272
		c0.779,0.008,1.561-0.025,2.337,0.02c1.001,0.057,1.554,0.798,1.389,1.787c-0.099,0.6-0.573,1.036-1.288,1.073
		c-0.813,0.045-1.633,0.018-2.447,0.022c-0.122,0-0.226-0.025-0.238-0.171c-0.017-0.165-0.029-0.33,0.188-0.38
		c0.638-0.104,1.281-0.026,1.922-0.044c0.248-0.006,0.491-0.019,0.733-0.079c0.424-0.104,0.616-0.332,0.618-0.752
		c0.007-0.439-0.18-0.686-0.607-0.8C42.53,51.501,42.453,51.503,42.406,51.434z"/>
	<path fill-rule="evenodd" clip-rule="evenodd" fill="#FDFBFB" d="M39.924,50.006c-0.072-0.052-0.126-0.11-0.137-0.207
		c-0.049-0.429-0.094-0.855,0-1.285c0.117-0.543,0.462-0.882,0.958-0.929c0.591-0.056,1.06,0.219,1.263,0.75
		c0.107,0.277,0.178,0.572,0.133,0.867c-0.038,0.254,0.066,0.296,0.28,0.29c0.332-0.011,0.663,0.001,0.997-0.005
		c0.162-0.003,0.248,0.045,0.252,0.229c0.005,0.191-0.068,0.268-0.259,0.261c-0.133-0.005-0.268,0.019-0.402,0.029
		c-0.5,0.101-1.005,0.01-1.508,0.025c-0.483-0.002-0.965,0.003-1.446-0.002C40.01,50.025,39.967,50.019,39.924,50.006z"/>
	<path fill-rule="evenodd" clip-rule="evenodd" fill="#DD5367" d="M39.568,59.08c-0.034-0.183,0.046-0.421,0.082-0.663
		c0.04-0.277,0.237-0.333,0.464-0.29c0.225,0.042,0.293,0.218,0.242,0.421c-0.077,0.306-0.03,0.612-0.037,0.92
		c-0.004,0.232,0.127,0.416,0.268,0.593c0.494,0.612,2.138,0.666,2.472-0.341c0.124-0.376,0.113-0.752,0.015-1.118
		c-0.066-0.243-0.004-0.398,0.21-0.465c0.259-0.08,0.471,0.069,0.503,0.306c0.079,0.603,0.18,1.208-0.127,1.798
		c-0.261,0.503-0.654,0.806-1.172,0.997c-0.753,0.275-1.448,0.104-2.073-0.303C39.794,60.529,39.561,59.882,39.568,59.08z"/>
	<path fill-rule="evenodd" clip-rule="evenodd" fill="#DB5468" d="M41.693,43.426c0.839,0.035,1.583,0.273,1.979,1.092
		c0.577,1.191-0.116,2.557-1.525,2.702c-0.643,0.066-1.239,0.029-1.783-0.35c-0.644-0.448-0.859-1.098-0.776-1.833
		c0.084-0.72,0.507-1.215,1.198-1.455C41.077,43.481,41.375,43.394,41.693,43.426z"/>
	<path fill-rule="evenodd" clip-rule="evenodd" fill="#DD566A" d="M41.756,58.047c-0.876,0.004-1.613-0.234-2.01-1.117
		c-0.419-0.934-0.058-2.191,1.083-2.533c0.963-0.287,1.851-0.217,2.582,0.551c0.734,0.77,0.587,2.469-0.642,2.943
		C42.438,58.02,42.108,58.076,41.756,58.047z"/>
	<path fill-rule="evenodd" clip-rule="evenodd" fill="#D84E61" d="M42.406,51.434c0.562,0.057,0.862,0.328,0.886,0.804
		c0.025,0.519-0.233,0.843-0.805,0.922c-0.848,0.118-1.701,0.058-2.553,0.036c-0.043-0.023-0.086-0.047-0.223-0.123
		c0.21,0,0.327,0.005,0.445,0c0.787-0.029,1.581,0.084,2.362-0.062c0.509-0.095,0.638-0.292,0.616-0.796
		c-0.018-0.371-0.228-0.545-0.674-0.634c-0.625-0.126-1.254-0.035-1.881-0.062c-0.257-0.012-0.516-0.003-0.772-0.085
		C40.675,51.434,41.539,51.434,42.406,51.434z"/>
	<path fill-rule="evenodd" clip-rule="evenodd" fill="#DF4A60" d="M42.547,40.616c-0.95,0.518-1.84,1.13-2.753,1.703
		c-0.059,0.196-0.056,0.394-0.003,0.59l0.005,0.005c0.002,0.024,0.002,0.048,0.002,0.071c0.025,0.017,0.034,0.033,0.025,0.049
		c-0.011,0.016-0.02,0.023-0.027,0.023c-0.334-0.349-0.312-0.68,0.083-0.937c0.636-0.413,1.279-0.81,1.922-1.216
		c0.108-0.068,0.214-0.149,0.308-0.295c-0.631,0-1.263,0.004-1.892-0.003c-0.141-0.001-0.299,0.06-0.417-0.074
		c0.877-0.074,1.757-0.015,2.636-0.029C42.509,40.501,42.547,40.542,42.547,40.616z"/>
	<path fill-rule="evenodd" clip-rule="evenodd" fill="#D25265" d="M39.924,50.006c0.039-0.001,0.077-0.001,0.115-0.001
		c0.508-0.015,1.013-0.015,1.518-0.002c0.485,0.002,0.969,0.002,1.452,0.003c0.185,0.074,0.39-0.032,0.645,0.103
		c-1.292,0-2.51,0.003-3.728-0.005C39.78,50.103,39.898,50.04,39.924,50.006z"/>
	<path fill-rule="evenodd" clip-rule="evenodd" fill="#E0495E" d="M39.796,43.058c0-0.024,0.002-0.05,0.002-0.073
		c1.256,0,2.512,0,3.766,0c0,0.023,0,0.048,0.002,0.073C42.308,43.058,41.052,43.058,39.796,43.058z"/>
	<path fill-rule="evenodd" clip-rule="evenodd" fill="#BF6C77" d="M42.547,40.616c-0.106-0.126-0.252-0.078-0.381-0.079
		c-0.789-0.005-1.579-0.004-2.366-0.004c0-0.025,0.002-0.051,0.002-0.076c1.008-0.023,2.018,0.044,3.056-0.061
		C42.793,40.561,42.671,40.59,42.547,40.616z"/>
	<path fill-rule="evenodd" clip-rule="evenodd" fill="#7072A0" d="M47.259,48.481c-0.233-0.052-0.368-0.082-0.398-0.257
		c-0.004-0.027,0.03-0.088,0.043-0.087C47.068,48.152,47.128,48.286,47.259,48.481z"/>
	<path fill-rule="evenodd" clip-rule="evenodd" fill="#618FE0" d="M47.137,43.801c0.13,0.118,0.336,0.075,0.455,0.213
		c0.021,0.31-0.277,0.114-0.374,0.237l0.004-0.001c-0.113,0.035-0.259,0.105-0.316-0.045c-0.054-0.141-0.068-0.319,0.015-0.456
		C46.976,43.658,47.063,43.771,47.137,43.801z"/>
	<path fill-rule="evenodd" clip-rule="evenodd" fill="#6882C2" d="M47.137,43.801c-0.14-0.037-0.217-0.031-0.223,0.16
		c-0.007,0.241,0.101,0.304,0.308,0.289c-0.004,0.022-0.013,0.043-0.023,0.062c-0.109-0.032-0.271,0.207-0.32-0.032
		c-0.041-0.193-0.09-0.428,0.042-0.599C46.984,43.6,47.092,43.706,47.137,43.801z"/>
	<path fill-rule="evenodd" clip-rule="evenodd" fill="#6882C2" d="M47.218,44.251c0.088-0.137,0.325-0.038,0.374-0.237
		c0.048,0.003,0.095,0.007,0.142,0.01c0.021,0.093-0.025,0.156-0.092,0.211C47.5,44.239,47.359,44.246,47.218,44.251z"/>
	<path fill-rule="evenodd" clip-rule="evenodd" fill="#FEFDFD" d="M24.823,50.545c0.015,0.687-0.062,1.356-0.364,1.985
		c-0.327,0.686-0.854,1.068-1.629,1.077c-0.759,0.009-1.285-0.379-1.565-1.041c-0.568-1.337-0.589-2.695,0.054-4.015
		c0.331-0.676,0.909-1.022,1.688-0.985c0.741,0.036,1.201,0.454,1.494,1.097C24.774,49.26,24.84,49.896,24.823,50.545z"/>
	<path fill-rule="evenodd" clip-rule="evenodd" fill="#FDFDFC" d="M18.421,47.656c0.382,0,0.767,0.013,1.147-0.004
		c0.271-0.011,0.26,0.149,0.258,0.333s0.008,0.346-0.26,0.341c-0.567-0.012-1.136,0.004-1.704-0.007
		c-0.218-0.004-0.31,0.072-0.328,0.291c-0.029,0.308-0.084,0.612-0.139,0.916c-0.037,0.207,0.019,0.295,0.247,0.278
		c0.296-0.023,0.591-0.011,0.882,0.071c0.815,0.231,1.326,0.781,1.39,1.501c0.078,0.895-0.324,1.651-1.1,2.005
		c-0.75,0.342-1.511,0.284-2.271,0.009c-0.307-0.111-0.196-0.299-0.139-0.505c0.07-0.26,0.214-0.161,0.365-0.105
		c0.447,0.166,0.902,0.255,1.378,0.141c0.544-0.13,0.938-0.588,0.965-1.128c0.032-0.619-0.25-1.054-0.825-1.255
		c-0.443-0.155-0.898-0.169-1.354-0.094c-0.252,0.04-0.304-0.047-0.271-0.276c0.105-0.733,0.208-1.467,0.298-2.202
		c0.03-0.249,0.141-0.328,0.386-0.314C17.703,47.671,18.062,47.656,18.421,47.656z"/>
	<path fill-rule="evenodd" clip-rule="evenodd" fill="#FDFDFC" d="M28.223,49.198c-0.025,0.555-0.087,1.016-0.376,1.416
		c-0.552,0.762-1.69,0.715-2.137-0.11c-0.39-0.721-0.388-1.474-0.029-2.209c0.262-0.536,0.751-0.781,1.342-0.723
		c0.52,0.05,0.931,0.41,1.085,0.978C28.172,48.786,28.195,49.033,28.223,49.198z"/>
	<path fill-rule="evenodd" clip-rule="evenodd" fill="#FDFDFB" d="M32.014,51.73c0.011,0.466-0.072,0.909-0.348,1.298
		c-0.538,0.762-1.644,0.748-2.108-0.058c-0.454-0.788-0.428-1.612,0.037-2.394c0.259-0.438,0.688-0.634,1.195-0.592
		c0.532,0.043,0.881,0.348,1.077,0.836C31.984,51.115,32.022,51.418,32.014,51.73z"/>
	<path fill-rule="evenodd" clip-rule="evenodd" fill="#FDFCF9" d="M30.673,47.6c-0.383,0.679-0.751,1.332-1.122,1.984
		c-0.702,1.235-1.405,2.472-2.108,3.706c-0.05,0.085-0.093,0.181-0.161,0.247c-0.121,0.117-0.297,0.114-0.413,0.038
		c-0.121-0.08,0.016-0.198,0.062-0.282c1.04-1.839,2.09-3.674,3.126-5.516C30.204,47.514,30.398,47.554,30.673,47.6z"/>
	<path fill-rule="evenodd" clip-rule="evenodd" fill="#C9694B" d="M17.118,47.52c0.876,0,1.748,0,2.622,0
		c0,0.013,0,0.024,0.002,0.037c-0.88,0-1.759,0-2.638,0C17.11,47.544,17.114,47.532,17.118,47.52z"/>
	<path fill-rule="evenodd" clip-rule="evenodd" fill="#F14C64" d="M39.791,42.909c-0.104-0.196-0.108-0.394,0.003-0.59
		C39.791,42.515,39.791,42.712,39.791,42.909z"/>
	<path fill-rule="evenodd" clip-rule="evenodd" fill="#ED4F66" d="M40.919,49.49c-0.036,0-0.077,0.01-0.111-0.001
		c-0.218-0.078-0.584,0.197-0.65-0.245c-0.09-0.578,0.104-0.996,0.492-1.118c0.392-0.124,0.807,0.044,0.976,0.396
		c0.115,0.243,0.113,0.502,0.097,0.763c-0.009,0.161-0.105,0.207-0.249,0.205C41.289,49.487,41.103,49.489,40.919,49.49z"/>
	<path fill-rule="evenodd" clip-rule="evenodd" fill="#F14C64" d="M41.557,50.003c-0.505,0.045-1.012,0.045-1.518,0
		C40.547,49.953,41.052,49.954,41.557,50.003z"/>
	<path fill-rule="evenodd" clip-rule="evenodd" fill="#FDFBFC" d="M42.055,61.181c-1.735,0.003-2.652-1.199-2.289-2.618
		c0.038-0.147,0.043-0.342,0.291-0.284c0.25,0.057,0.16,0.214,0.128,0.373c-0.126,0.653-0.087,1.28,0.512,1.698
		c0.612,0.424,1.284,0.425,1.932,0.083c0.571-0.302,0.788-0.965,0.625-1.753c-0.034-0.162-0.147-0.355,0.133-0.402
		c0.248-0.043,0.235,0.17,0.266,0.313c0.133,0.621,0.122,1.229-0.233,1.787C43.03,60.982,42.444,61.177,42.055,61.181z"/>
	<path fill-rule="evenodd" clip-rule="evenodd" fill="#FBF0F2" d="M41.702,43.567c1.262,0.011,2.064,0.758,2.028,1.895
		c-0.016,0.528-0.246,0.949-0.659,1.269c-0.742,0.576-2.046,0.537-2.76-0.073c-0.557-0.474-0.76-1.258-0.508-1.952
		C40.065,43.982,40.77,43.562,41.702,43.567z"/>
	<path fill-rule="evenodd" clip-rule="evenodd" fill="#FBEDEF" d="M41.702,54.39c1.153,0.007,1.962,0.659,2.026,1.634
		c0.079,1.209-0.896,2.067-2.193,1.93c-1.356-0.146-2.136-1.216-1.741-2.392C40.044,54.817,40.75,54.384,41.702,54.39z"/>
	<path fill-rule="evenodd" clip-rule="evenodd" fill="#D46B4B" d="M24.042,50.596c-0.038,0.719-0.07,1.212-0.271,1.676
		c-0.179,0.413-0.443,0.726-0.933,0.722c-0.476-0.003-0.749-0.314-0.896-0.715c-0.413-1.121-0.403-2.255,0.006-3.371
		c0.151-0.408,0.433-0.739,0.929-0.729c0.488,0.011,0.747,0.327,0.914,0.745C24.036,49.536,24.029,50.179,24.042,50.596z"/>
	<path fill-rule="evenodd" clip-rule="evenodd" fill="#D26C4D" d="M27.569,49.36c0.006,0.312-0.027,0.615-0.162,0.902
		c-0.114,0.244-0.3,0.396-0.57,0.406c-0.26,0.011-0.459-0.13-0.565-0.354c-0.308-0.64-0.289-1.291,0.014-1.928
		c0.106-0.22,0.306-0.358,0.568-0.35c0.261,0.009,0.43,0.163,0.544,0.387C27.547,48.719,27.579,49.036,27.569,49.36z"/>
	<path fill-rule="evenodd" clip-rule="evenodd" fill="#D46B4C" d="M31.405,51.81c-0.014,0.281-0.044,0.588-0.173,0.874
		c-0.11,0.241-0.288,0.396-0.569,0.406c-0.268,0.01-0.457-0.131-0.566-0.349c-0.329-0.65-0.32-1.32,0.028-1.951
		c0.263-0.474,0.85-0.429,1.095,0.056C31.368,51.137,31.402,51.457,31.405,51.81z"/>
	<path fill-rule="evenodd" clip-rule="evenodd" fill="#F14C64" d="M41.7,44.102c0.372,0.017,0.721,0.079,1.035,0.268
		c0.738,0.438,0.772,1.421,0.068,1.908c-0.597,0.413-1.619,0.406-2.203-0.014c-0.651-0.469-0.638-1.398,0.023-1.852
		C40.951,44.189,41.321,44.115,41.7,44.102z"/>
	<path fill-rule="evenodd" clip-rule="evenodd" fill="#F04C64" d="M42.938,55.364c0.645,0.629,0.409,1.615-0.466,1.916
		c-0.506,0.173-1.023,0.168-1.526-0.011c-0.462-0.166-0.771-0.491-0.812-1.001c-0.03-0.398,0.079-0.755,0.451-0.979
		C41.383,54.866,42.171,54.843,42.938,55.364z"/>
	<path fill-rule="evenodd" clip-rule="evenodd" fill="#D96475" d="M42.938,55.364c-0.32-0.061-0.564-0.303-0.931-0.308
		c-0.449-0.005-0.875-0.006-1.277,0.213c-0.04,0.021-0.096,0.015-0.146,0.02C41.229,54.762,42.351,54.798,42.938,55.364z"/>
</g>
</svg>
