<?xml version="1.0" encoding="utf-8"?>
<!-- Generator: Adobe Illustrator 16.0.2, SVG Export Plug-In . SVG Version: 6.00 Build 0)  -->
<!DOCTYPE svg PUBLIC "-//W3C//DTD SVG 1.1//EN" "http://www.w3.org/Graphics/SVG/1.1/DTD/svg11.dtd">
<svg version="1.1" id="Layer_1" xmlns="http://www.w3.org/2000/svg" xmlns:xlink="http://www.w3.org/1999/xlink" x="0px" y="0px"
	 width="85px" height="85px" viewBox="0 0 85 85" enable-background="new 0 0 85 85" xml:space="preserve">
<g>
	<path d="M2.5,74.524c0-16.355,0-32.709,0-49.063c0.508-2.105,1.674-3.071,3.887-3.217c0.801-0.053,0.859-0.108,0.861-1.035
		c0.008-3.463,0.002-6.926,0.004-10.387c0-0.365-0.01-0.729,0.033-1.093c0.16-1.329,1.117-2.288,2.447-2.452
		c0.389-0.048,0.779-0.033,1.17-0.033c20.646,0,41.291,0,61.936,0c0.338,0,0.678-0.008,1.016,0.019
		c1.48,0.118,2.496,1.127,2.625,2.614c0.033,0.39,0.02,0.781,0.02,1.171C76.5,22.009,76.5,32.969,76.5,43.931
		c0,0.232-0.002,0.469,0,0.701c0.002,1.361,0.002,1.361,1.398,1.363c0.65,0.002,1.301-0.014,1.951,0.008
		c1.52,0.053,2.289,0.672,2.65,2.115c0,9.533,0,19.064,0,28.596c-0.17,0.734-0.693,0.986-1.381,1.02
		c-0.287,0.014-0.572,0.014-0.859,0.014c-24.441,0-48.887-0.004-73.328,0.01c-1.396,0-2.607-0.301-3.607-1.344
		C2.801,75.866,2.652,75.206,2.5,74.524z"/>
	<path fill="#F7F3DE" d="M24.996,69.966c-4.842,0.01-9.686,0.016-14.527,0.035c-0.379,0.002-0.523-0.107-0.473-0.48
		C10.016,69.394,10,69.259,10,69.13c0-12.76,0.006-25.52-0.018-38.277c-0.002-0.714,0.18-0.986,0.881-0.861
		c0.076,0.015,0.156,0.002,0.234,0.002c1.301,0,1.301,0,1.404,1.258c0.061,0.738,0.508,1.186,1.25,1.238
		c0.232,0.016,0.469,0.004,0.703,0.004c6.742,0.008,13.486,0.016,20.23,0.023c0.295,0.326,0.256,0.729,0.209,1.105
		c-0.199,1.642-0.328,3.291-0.582,4.927c-0.053,0.331-0.07,0.677-0.379,0.899c-0.338,0.182-0.705,0.152-1.066,0.152
		c-1.504,0.006-3.01,0.002-4.514,0.002c-0.262,0-0.521-0.01-0.779,0.023c-0.668,0.084-1.08,0.484-1.037,1.037
		c0.051,0.629,0.471,0.916,1.047,0.939c1.607,0.068,3.217,0.014,4.826,0.031c0.385,0.004,0.781-0.049,1.145,0.148
		c0.254,0.23,0.182,0.52,0.135,0.797c-0.352,2.064-0.775,4.115-1.26,6.152c-0.064,0.277-0.129,0.559-0.395,0.729
		c-1.02,0.273-2.059,0.08-3.086,0.133c-0.492,0.025-0.986-0.035-1.475,0.039c-0.611,0.094-0.984,0.5-0.945,1.033
		c0.041,0.586,0.412,0.885,0.959,0.938c0.902,0.084,1.811,0.018,2.717,0.037c0.385,0.008,0.779-0.049,1.146,0.131
		c0.252,0.193,0.207,0.459,0.139,0.709c-0.598,2.17-1.221,4.334-1.941,6.469c-0.059,0.172-0.143,0.332-0.275,0.461
		c-0.432,0.258-0.91,0.148-1.371,0.166c-0.912,0.035-1.379,0.361-1.404,1.008c-0.023,0.627,0.361,0.963,1.248,1.078
		c0.182,0.023,0.363,0.033,0.521,0.141c0.217,0.244,0.08,0.49-0.006,0.729c-0.824,2.264-1.75,4.486-2.729,6.688
		C25.406,69.503,25.268,69.784,24.996,69.966z"/>
	<path fill="#FE7F31" d="M56.25,28.083c0-5.78,0.01-11.561-0.016-17.34c-0.002-0.615,0.158-0.791,0.77-0.765
		c1.17,0.05,2.346,0.06,3.514-0.002c0.656-0.034,0.752,0.216,0.744,0.789c-0.027,2.499-0.014,4.999-0.012,7.498
		c0.002,1.583,0.855,2.187,2.174,1.379c1.145-0.698,2.07-0.653,3.191,0.021c1.25,0.752,2.131,0.164,2.133-1.289
		c0.006-2.578,0.014-5.155-0.008-7.732c-0.004-0.488,0.098-0.679,0.633-0.661c1.221,0.042,2.447,0.05,3.67-0.002
		c0.598-0.024,0.723,0.158,0.721,0.733c-0.02,9.269-0.014,18.537-0.014,27.806c0,2.317-0.029,4.636,0.02,6.95
		c0.014,0.68-0.201,0.793-0.824,0.791c-5.313-0.025-10.623-0.023-15.936-0.002c-0.594,0.002-0.777-0.127-0.775-0.756
		C56.262,39.694,56.25,33.889,56.25,28.083z"/>
	<path fill="#FEA200" d="M53.725,12.491c0.01,1.119,0.023,2.237,0.023,3.356c0.004,9.864-0.004,19.729,0.018,29.593
		c0.002,0.627-0.115,0.838-0.791,0.82c-2.004-0.051-4.01-0.043-6.012-0.004c-0.584,0.012-0.729-0.139-0.727-0.725
		c0.021-6.273,0.014-12.545,0.014-18.817c0-2.747-1.488-4.222-4.258-4.222c-1.719,0-3.436-0.021-5.152,0.012
		c-0.492,0.009-0.602-0.139-0.602-0.61c-0.002-1.622-0.313-2.007-1.908-1.872c-1.598,0.135-2.604-0.484-3.361-1.83
		c-0.609-1.084-1.314-2.123-2.287-2.941c-2.705-2.278-6.949-1.971-9.303,0.675c-0.748,0.84-1.328,1.799-1.926,2.743
		c-0.594,0.938-1.352,1.494-2.516,1.328c-0.18-0.025-0.363-0.004-0.547-0.004c-1.563,0-1.891,0.304-1.881,1.854
		c0.004,0.486-0.094,0.664-0.629,0.662C9.998,22.503,9.996,22.526,10,20.61c0.006-2.705,0.018-5.412,0.025-8.117
		c0.424-0.366,0.939-0.25,1.422-0.25c11.119-0.008,22.236-0.006,33.354-0.006c2.578,0,5.156-0.004,7.734,0.004
		C52.943,12.243,53.379,12.171,53.725,12.491z"/>
	<path fill="#5749A5" d="M62.5,61.786c0-4.059,0.021-8.119-0.02-12.18c-0.008-0.744,0.225-0.91,0.912-0.877
		c1.168,0.053,2.342,0.037,3.512,0.002c0.498-0.016,0.609,0.16,0.604,0.625c-0.02,2.578-0.012,5.152-0.008,7.729
		c0.002,1.512,0.875,2.104,2.166,1.311c1.145-0.703,2.074-0.652,3.195,0.02c1.252,0.75,2.133,0.168,2.137-1.285
		c0.006-2.576,0.012-5.152-0.01-7.729c-0.004-0.492,0.107-0.688,0.641-0.67c1.248,0.039,2.498,0.029,3.748,0.004
		c0.453-0.01,0.635,0.088,0.633,0.596c-0.016,8.354-0.016,16.709,0,25.063c0,0.486-0.146,0.611-0.619,0.609
		c-5.412-0.016-10.826-0.02-16.24,0.004c-0.59,0.002-0.662-0.225-0.66-0.727C62.508,70.114,62.5,65.952,62.5,61.786z"/>
	<path fill="#D8C69D" d="M5,49.993c0-7.732,0-15.467,0-23.201c0-1.439,0.357-1.799,1.791-1.799c1.717,0,3.438,0.014,5.154-0.01
		c0.439-0.007,0.559,0.12,0.564,0.562c0.031,1.948,0.047,1.948-1.902,1.948c-0.572,0-1.146-0.012-1.719,0.002
		c-0.916,0.023-1.361,0.486-1.389,1.416c-0.006,0.156-0.002,0.313-0.002,0.469c0,13.748,0,27.496,0,41.246
		c0,1.537,0.332,1.865,1.881,1.865c10.025,0,20.051,0,30.074,0c1.436,0,1.795-0.359,1.795-1.797c0-13.801,0-27.602,0-41.402
		c0-1.44-0.355-1.799-1.789-1.801c-0.912,0-1.824-0.017-2.732,0.008c-0.375,0.01-0.473-0.108-0.488-0.481
		c-0.088-2.026-0.102-2.026,1.902-2.026c1.354,0,2.709-0.006,4.063,0.002c1.082,0.004,1.545,0.443,1.545,1.496
		c0.002,15.676,0.004,31.352-0.002,47.027c0,1.014-0.467,1.473-1.488,1.473c-11.926,0.004-23.852,0.004-35.777,0
		c-1.064,0-1.479-0.473-1.479-1.641C4.998,65.565,5,57.78,5,49.993z"/>
	<path fill="#EEE3B1" d="M29.215,59.341c0.771-2.471,1.578-4.93,2.189-7.445c0.229-0.287,0.561-0.229,0.863-0.24
		c0.492-0.021,0.988,0.029,1.48-0.033c0.619-0.078,0.994-0.471,0.994-1.004c0-0.535-0.375-0.922-0.99-1.006
		c-0.311-0.043-0.623-0.012-0.936-0.029c-0.279-0.016-0.58,0.025-0.787-0.238c0.586-2.182,1.006-4.396,1.406-6.617
		c0.051-0.277,0.102-0.555,0.152-0.83c1.717-0.879,1.463-1.584,0.316-2.545c0.309-0.861,0.33-1.777,0.414-2.665
		c0.133-1.387,0.434-2.764,0.367-4.169c1.229-0.104,1.598-0.472,1.545-1.736c-0.027-0.648,0.143-0.824,0.799-0.806
		c1.717,0.05,1.719,0.015,1.719,1.744c0,12.472-0.008,24.942,0.018,37.415c0.002,0.717-0.186,0.883-0.885,0.877
		c-4.295-0.045-8.592-0.035-12.887-0.045c1.148-2.668,2.314-5.33,3.281-8.072c0.279-0.322,0.666-0.25,1.02-0.254
		c1.25-0.014,2.498-0.004,3.748-0.006c0.26-0.002,0.521,0.01,0.777-0.043c0.551-0.111,0.902-0.43,0.887-1.014
		c-0.014-0.551-0.369-0.838-0.885-0.932c-0.412-0.076-0.832-0.043-1.248-0.045c-0.807-0.004-1.613,0.01-2.42-0.006
		C29.826,59.591,29.469,59.646,29.215,59.341z"/>
	<path fill="#8774D0" d="M59.975,51.239c0.01,4.607,0.02,9.215,0.025,13.82c0.004,3.1,0,6.195,0,9.295
		c0,0.334,0.08,0.65-0.477,0.648c-4.398-0.02-8.799-0.014-13.197-0.018c-0.072,0-0.145-0.039-0.242-0.064
		c0.258-0.979,0.182-1.973,0.15-2.955c-0.018-0.57,0.119-0.748,0.721-0.738c2.551,0.037,5.104,0.018,7.652,0.016
		c1.229-0.002,1.639-0.412,1.641-1.637c0.004-2.266,0.006-4.529,0-6.795c-0.002-1.129-0.434-1.564-1.551-1.566
		c-2.605-0.006-5.207-0.008-7.811,0.004c-0.418,0.002-0.656-0.018-0.65-0.563c0.037-3.148,0.031-6.299,0.039-9.447
		c0.297-0.285,0.674-0.246,1.033-0.246c3.877-0.006,7.756-0.006,11.633,0C59.301,50.993,59.678,50.954,59.975,51.239z"/>
	<path fill="#FCD06F" d="M53.725,12.491c-14.566,0-29.133,0-43.697,0c0.004-0.801-0.285-1.824,0.1-2.344
		c0.367-0.494,1.457-0.146,2.227-0.148c13.51-0.008,27.02,0,40.529-0.022c0.699-0.001,0.971,0.156,0.881,0.878
		C53.695,11.395,53.732,11.946,53.725,12.491z"/>
	<path fill="#00BAB5" d="M33.725,24.991c0.01,1.43-0.014,2.859,0.041,4.289c0.02,0.588-0.148,0.73-0.73,0.728
		c-4.654-0.024-9.311-0.015-13.965-0.015c-1.17,0-2.34-0.019-3.51,0.01c-0.443,0.011-0.58-0.121-0.568-0.567
		c0.033-1.481,0.025-2.963,0.033-4.444c0.297-0.287,0.674-0.248,1.033-0.248c5.545-0.008,11.09-0.008,16.633,0
		C33.051,24.743,33.43,24.706,33.725,24.991z"/>
	<path fill="#75D9D4" d="M33.725,24.991c-6.232,0-12.467,0-18.699,0c0.008-0.803-0.283-1.824,0.104-2.342
		c0.367-0.494,1.455-0.146,2.225-0.148c5.229-0.014,10.457,0.002,15.686-0.021c0.574-0.002,0.787,0.123,0.725,0.721
		C33.699,23.792,33.732,24.394,33.725,24.991z"/>
	<path fill="#D7E9EB" d="M49.986,68.743c-1.041,0-2.082-0.02-3.123,0.01c-0.438,0.012-0.646-0.045-0.627-0.572
		c0.043-1.301,0.035-2.604,0.002-3.902c-0.012-0.467,0.156-0.547,0.576-0.543c2.133,0.02,4.268,0.021,6.398-0.002
		c0.465-0.006,0.555,0.152,0.545,0.574c-0.023,1.301-0.029,2.602,0.002,3.9c0.014,0.467-0.154,0.557-0.574,0.545
		C52.119,68.726,51.053,68.743,49.986,68.743z"/>
	<path fill="#A2A2DF" d="M59.975,51.239c-4.566,0-9.133,0-13.697,0c0.006-0.801-0.283-1.822,0.104-2.34
		c0.367-0.494,1.453-0.146,2.223-0.148c3.561-0.018,7.123,0.006,10.684-0.021c0.574-0.004,0.789,0.121,0.727,0.721
		C59.949,50.04,59.982,50.642,59.975,51.239z"/>
	<path fill="#FEA200" d="M29.113,19.965c-3.209,0-6.293,0-9.488,0c1.104-1.795,2.047-3.589,4.459-3.726
		C26.781,16.086,27.939,17.932,29.113,19.965z"/>
	<path fill="#FCD06F" d="M66.25,16.751c-0.85-0.627-1.65-0.625-2.5,0c0-2.215,0.006-4.288-0.006-6.361
		c0-0.301,0.1-0.378,0.398-0.404c2.107-0.19,2.105-0.199,2.105,1.887C66.25,13.45,66.25,15.03,66.25,16.751z"/>
	<path fill="#FCD06F" d="M72.5,55.495c-0.854-0.621-1.658-0.621-2.5,0.014c0-2.221,0.006-4.295-0.006-6.369
		c0-0.301,0.102-0.377,0.398-0.404c2.107-0.189,2.105-0.197,2.105,1.889C72.5,52.2,72.5,53.778,72.5,55.495z"/>
	<path d="M22.496,38.651c0.008,0.48-0.188,0.805-0.473,1.09c-1.178,1.176-2.344,2.361-3.531,3.523
		c-0.631,0.617-1.166,0.645-1.873,0.129c-0.756-0.553-1.502-1.113-2.242-1.686c-0.684-0.529-0.816-1.227-0.375-1.826
		c0.443-0.604,1.135-0.66,1.859-0.186c0.531,0.348,0.994,1.104,1.572,0.984c0.512-0.104,0.904-0.801,1.348-1.238
		c0.535-0.531,1.055-1.078,1.605-1.591c0.391-0.362,0.852-0.474,1.365-0.237C22.229,37.833,22.447,38.211,22.496,38.651z"/>
	<path d="M14.99,49.364c0.697,0.023,1.17,0.518,1.639,0.938c0.57,0.514,0.936,0.465,1.428-0.107
		c0.658-0.768,1.412-1.451,2.137-2.162c0.662-0.648,1.375-0.709,1.922-0.182c0.549,0.527,0.514,1.27-0.125,1.92
		c-1.148,1.168-2.305,2.324-3.473,3.473c-0.656,0.645-1.191,0.67-1.936,0.123c-0.773-0.568-1.545-1.143-2.301-1.734
		c-0.473-0.369-0.666-0.857-0.439-1.447C14.037,49.673,14.432,49.415,14.99,49.364z"/>
	<path d="M17.563,63.743c-0.115-0.006-0.207,0.014-0.27-0.02c-1.262-0.674-2.432-1.484-3.377-2.559
		c-0.359-0.408-0.205-0.953,0.15-1.357c0.379-0.428,0.871-0.588,1.402-0.324c0.346,0.172,0.654,0.418,0.967,0.648
		c0.951,0.703,0.949,0.707,1.809-0.152c0.643-0.645,1.281-1.293,1.93-1.93c0.691-0.68,1.438-0.732,1.979-0.162
		c0.52,0.547,0.457,1.262-0.197,1.922c-1.133,1.146-2.279,2.277-3.416,3.42C18.256,63.515,17.939,63.724,17.563,63.743z"/>
	<path d="M33.906,39.353c0.686,0.207,1.152,0.621,1.074,1.383c-0.082,0.797-0.646,1.111-1.393,1.16
		c-1.918-0.008-3.836-0.018-5.756-0.027c-0.996-0.004-1.555-0.438-1.578-1.213c-0.023-0.805,0.561-1.281,1.584-1.285
		C29.861,39.36,31.885,39.356,33.906,39.353z"/>
	<path d="M32.031,49.343c0.566,0.01,1.135,0.004,1.701,0.031c0.738,0.037,1.242,0.533,1.262,1.209
		c0.021,0.703-0.496,1.246-1.268,1.277c-0.773,0.033-1.549,0.023-2.322,0.033c-1.217-0.01-2.436-0.016-3.65-0.025
		c-0.926-0.01-1.477-0.461-1.5-1.215c-0.021-0.783,0.547-1.275,1.504-1.283C29.184,49.356,30.607,49.353,32.031,49.343z"/>
	<path d="M29.215,59.341c1.426,0.01,2.852,0.016,4.277,0.029c0.928,0.008,1.479,0.457,1.502,1.211
		c0.025,0.781-0.551,1.279-1.508,1.285c-1.736,0.014-3.473,0.02-5.209,0.027c-0.283-0.01-0.566-0.006-0.848-0.033
		c-0.713-0.072-1.199-0.613-1.176-1.287c0.023-0.645,0.5-1.148,1.186-1.193C28.029,59.341,28.623,59.353,29.215,59.341z"/>
</g>
</svg>
