<?xml version="1.0" encoding="utf-8"?>
<!-- Generator: Adobe Illustrator 16.0.0, SVG Export Plug-In . SVG Version: 6.00 Build 0)  -->
<!DOCTYPE svg PUBLIC "-//W3C//DTD SVG 1.1//EN" "http://www.w3.org/Graphics/SVG/1.1/DTD/svg11.dtd">
<svg version="1.1" id="Layer_1" xmlns="http://www.w3.org/2000/svg" xmlns:xlink="http://www.w3.org/1999/xlink" x="0px" y="0px"
	 width="85px" height="85px" viewBox="0 0 85 85" enable-background="new 0 0 85 85" xml:space="preserve">
<g>
	<g>
		<path fill="#E65039" d="M23.844,61.158l16.396-2.344c1.5-0.215,3.023-0.215,4.523,0l16.396,2.344L49.415,78.773
			c-0.988,1.482-2.652,2.373-4.438,2.373h-4.955c-1.783,0-3.446-0.891-4.436-2.373L23.844,61.158z"/>
		<path fill="#E65039" d="M69.319,39.836c0,0,0.002-12.578-10.662-21.322c0,0-12.602,4.998-13.49,21.322
			C45.165,39.836,57.823,44.334,69.319,39.836z"/>
		<path fill="#E65039" d="M15.853,39.836c0,0-0.5-13.494,10.662-21.322c0,0,12.6,4.998,13.49,21.322
			C40.005,39.836,27.347,44.334,15.853,39.836z"/>
	</g>
	<path d="M64.735,58.561l-3.697,1.232l-16.086-2.299c-1.625-0.23-3.271-0.23-4.898,0l-16.086,2.299l-3.697-1.232
		c-0.701-0.234-1.453,0.145-1.686,0.842c-0.232,0.699,0.145,1.455,0.842,1.688l1.952,0.652l-1.14,1.139
		c-0.52,0.521-0.52,1.363,0,1.885c0.258,0.26,0.599,0.391,0.939,0.391c0.342,0,0.682-0.131,0.942-0.391l1.517-1.516l10.844,16.264
		c1.237,1.857,3.31,2.967,5.543,2.967h4.955c2.234,0,4.305-1.109,5.545-2.967L61.366,63.25l1.518,1.516
		c0.26,0.26,0.6,0.391,0.939,0.391s0.684-0.131,0.943-0.391c0.52-0.521,0.52-1.363,0-1.885l-1.141-1.139l1.951-0.652
		c0.697-0.232,1.076-0.986,0.844-1.688C66.188,58.705,65.438,58.326,64.735,58.561z M48.306,78.035
		c-0.742,1.113-1.986,1.779-3.328,1.779h-4.955c-1.34,0-2.584-0.666-3.326-1.779L26.125,62.18l14.301-2.043
		c1.377-0.195,2.771-0.195,4.146,0l14.303,2.043L48.306,78.035z"/>
	<path d="M37.562,64.213l-0.392,0.391l-0.39-0.391c-0.521-0.521-1.363-0.521-1.885,0c-0.521,0.521-0.521,1.363,0,1.885l1.334,1.332
		c0.26,0.262,0.601,0.391,0.941,0.391c0.342,0,0.684-0.129,0.943-0.391l1.332-1.332c0.521-0.521,0.521-1.363,0-1.885
		S38.083,63.691,37.562,64.213z"/>
	<path d="M46.89,67.43c0.26,0.26,0.6,0.391,0.941,0.391c0.316,0,0.633-0.109,0.885-0.336l1.502-1.332
		c0.551-0.49,0.6-1.332,0.111-1.881c-0.49-0.553-1.334-0.602-1.883-0.113l-0.561,0.498l-0.445-0.443
		c-0.52-0.521-1.363-0.521-1.885,0s-0.521,1.363,0,1.885L46.89,67.43z"/>
	<path d="M43.06,73.543l-0.39,0.391l-0.391-0.391c-0.521-0.521-1.363-0.521-1.885,0c-0.521,0.52-0.521,1.361,0,1.885l1.334,1.332
		c0.26,0.26,0.6,0.391,0.941,0.391c0.341,0,0.683-0.131,0.941-0.391l1.334-1.332c0.521-0.521,0.521-1.363,0-1.885
		S43.579,73.021,43.06,73.543z"/>
	<path d="M52.22,32.23l-0.391,0.389l-0.391-0.389c-0.521-0.521-1.363-0.521-1.885,0s-0.521,1.363,0,1.883l1.332,1.334
		c0.262,0.26,0.602,0.391,0.943,0.391s0.682-0.129,0.941-0.391l1.332-1.334c0.521-0.52,0.521-1.361,0-1.883
		C53.583,31.709,52.741,31.709,52.22,32.23z"/>
	<path d="M60.769,26.898c-0.521-0.52-1.363-0.52-1.885,0l-0.393,0.391l-0.391-0.391c-0.521-0.52-1.361-0.52-1.883,0
		c-0.523,0.521-0.521,1.365,0,1.885l1.332,1.332c0.26,0.262,0.602,0.393,0.941,0.393c0.342,0,0.684-0.131,0.941-0.393l1.334-1.332
		C61.288,28.262,61.288,27.42,60.769,26.898z"/>
	<path d="M62.882,34.895l-0.391,0.391l-0.391-0.391c-0.521-0.521-1.363-0.521-1.885,0c-0.523,0.521-0.521,1.363,0,1.885l1.332,1.332
		c0.26,0.26,0.602,0.391,0.941,0.391c0.342,0,0.684-0.131,0.941-0.391l1.334-1.332c0.52-0.521,0.52-1.363,0-1.885
		C64.243,34.373,63.403,34.373,62.882,34.895z"/>
	<path d="M33.732,32.23l-0.392,0.389l-0.39-0.389c-0.521-0.521-1.364-0.521-1.885,0c-0.521,0.521-0.521,1.363,0,1.883l1.332,1.334
		c0.261,0.26,0.602,0.391,0.942,0.391s0.683-0.129,0.942-0.391l1.332-1.334c0.521-0.52,0.521-1.361,0-1.883
		C35.094,31.709,34.252,31.709,33.732,32.23z"/>
	<path d="M27.068,26.898l-0.39,0.391l-0.391-0.391c-0.521-0.52-1.363-0.52-1.884,0c-0.521,0.521-0.521,1.365,0,1.885l1.332,1.332
		c0.261,0.262,0.602,0.393,0.942,0.393s0.683-0.131,0.942-0.393l1.333-1.332c0.521-0.521,0.521-1.363,0-1.885
		C28.431,26.379,27.589,26.379,27.068,26.898z"/>
	<path d="M23.07,34.895l-0.391,0.391l-0.39-0.391c-0.521-0.521-1.363-0.521-1.884,0c-0.521,0.521-0.521,1.363,0,1.885l1.332,1.332
		c0.261,0.26,0.602,0.391,0.943,0.391s0.682-0.131,0.941-0.391l1.333-1.332c0.521-0.521,0.521-1.363,0-1.885
		C24.433,34.373,23.591,34.373,23.07,34.895z"/>
	<path d="M81.19,34.604c-1.707-0.045-2.525,1.082-3.096,1.814c-0.518,0.666-0.664,0.795-0.947,0.783
		c-0.281-0.004-0.426-0.135-0.92-0.814c-0.545-0.75-1.367-1.889-3.033-1.916c-1.51,0.027-2.359,0.924-2.928,1.658
		c-0.785-4.52-3.195-12.291-10.521-18.432C58.747,15.646,51.979,2.52,42.503,2.52c-9.396,0-15.982,12.885-17.059,15.125
		C17.668,23.27,15.41,31.406,14.767,36.127c-0.562-0.711-1.396-1.623-2.896-1.623c-0.021,0-0.04,0-0.061,0
		c-1.666,0-2.49,1.135-3.035,1.887c-0.492,0.68-0.637,0.781-0.918,0.785c-0.272,0.002-0.432-0.145-0.948-0.811
		c-0.563-0.723-1.411-1.861-3.036-1.861c-0.02,0-0.04,0-0.061,0c-0.738,0-1.322,0.617-1.312,1.354
		c0.015,0.73,0.606,1.311,1.333,1.311c0.008,0,0.016,0,0.023,0c0.277,0,0.43,0.152,0.945,0.816c0.562,0.727,1.409,1.848,3.033,1.848
		c0.021,0,0.041,0,0.062,0c1.666,0,2.49-1.135,3.035-1.887c0.492-0.682,0.637-0.781,0.918-0.787
		c0.221,0.018,0.428,0.146,0.943,0.811c0.385,0.496,0.909,1.178,1.719,1.564c0,0.182,0.004,0.307,0.004,0.35
		c0.021,0.529,0.353,1,0.848,1.193c4.029,1.578,8.166,2.102,11.89,2.102c7.192,0,12.841-1.963,13.192-2.086
		c0.533-0.189,0.875-0.695,0.875-1.256h2.519c0,0.561,0.344,1.066,0.877,1.256c0.354,0.125,5.998,2.086,13.191,2.086
		c3.723,0,7.859-0.525,11.891-2.102c0.512-0.201,0.848-0.693,0.848-1.242c0-0.041-0.002-0.178-0.01-0.357
		c0.744-0.398,1.23-1.045,1.594-1.535c0.5-0.678,0.648-0.793,0.914-0.812c0.281,0.004,0.426,0.125,0.92,0.805
		c0.547,0.752,1.371,1.9,3.037,1.9c0.02,0,0.041,0,0.061,0c1.627,0,2.473-1.123,3.035-1.848c0.508-0.652,0.66-0.816,0.932-0.816
		c0.014,0,0.025,0,0.037,0c0.727,0,1.318-0.533,1.332-1.262C82.513,35.174,81.927,34.617,81.19,34.604z M42.501,5.186
		c6.912,0,12.558,9.379,14.349,12.721c-3.184,1.701-11.115,7.115-12.752,19.264h-3.025c-1.641-12.166-9.592-17.578-12.768-19.271
		C30.058,14.564,35.594,5.186,42.501,5.186z M17.199,38.912c0.133-2.943,1.205-12.646,9.468-18.863
		c2.407,1.193,10.569,6.133,11.866,18.307c-0.006,0.051-0.029,0.094-0.029,0.146c0,0.135,0.04,0.258,0.078,0.381
		C35.56,39.754,26.06,42.006,17.199,38.912z M46.571,38.877c1.1-12.471,9.363-17.539,11.873-18.801
		c7.332,6.395,9.029,14.77,9.422,18.195c-0.012,0.072-0.043,0.135-0.045,0.209c-0.002,0.16,0.035,0.312,0.084,0.453
		C59.046,41.998,49.562,39.74,46.571,38.877z"/>
</g>
</svg>
