<?xml version="1.0" encoding="utf-8"?>
<!-- Generator: Adobe Illustrator 16.0.0, SVG Export Plug-In . SVG Version: 6.00 Build 0)  -->
<!DOCTYPE svg PUBLIC "-//W3C//DTD SVG 1.1//EN" "http://www.w3.org/Graphics/SVG/1.1/DTD/svg11.dtd">
<svg version="1.1" id="Layer_1" xmlns="http://www.w3.org/2000/svg" xmlns:xlink="http://www.w3.org/1999/xlink" x="0px" y="0px"
	 width="85px" height="85px" viewBox="0 0 85 85" enable-background="new 0 0 85 85" xml:space="preserve">
<g>
	<path fill="#333333" d="M77.98,37.809c1.521,1.346,2.445,3.307,2.445,5.416c0,2.158-0.968,4.18-2.59,5.539
		c0.226,0.738,0.348,1.521,0.348,2.334c0,3.885-2.786,7.127-6.466,7.84v6.418c0,3.33-1.367,6.599-3.751,8.968
		c-2.345,2.331-5.416,3.613-8.65,3.613c-0.025,0-0.05,0-0.072,0c-2.142-0.014-4.193-0.562-6.021-1.6
		c-2.196,3.796-6.229,6.163-10.72,6.163c-4.491,0-8.524-2.367-10.721-6.163c-1.827,1.038-3.877,1.586-6.019,1.6
		c-3.255,0.017-6.36-1.265-8.725-3.613c-2.384-2.369-3.751-5.638-3.751-8.968v-6.418c-3.68-0.713-6.466-3.955-6.466-7.84
		c0-0.809,0.122-1.59,0.346-2.328c-1.623-1.357-2.595-3.383-2.595-5.545c0-2.11,0.924-4.069,2.445-5.416
		c-1.425-1.335-2.269-3.219-2.269-5.265c0-2.153,0.941-4.144,2.534-5.498c-0.536-1.025-0.823-2.172-0.823-3.345
		c0-3.086,1.931-5.731,4.672-6.762c-0.258-0.753-0.394-1.548-0.394-2.364c0-3.984,3.242-7.226,7.227-7.226
		c0.355,0,0.709,0.027,1.057,0.076c1.24-2.311,3.646-3.784,6.357-3.784c1.377,0,2.723,0.399,3.873,1.128
		c1.349-1.428,3.242-2.269,5.255-2.269c1.376,0,2.707,0.39,3.854,1.114c1.225-0.774,2.664-1.171,4.136-1.109
		c0.093-0.004,0.186-0.005,0.281-0.005c1.376,0,2.709,0.39,3.856,1.114c1.146-0.725,2.478-1.114,3.853-1.114
		c2.01,0,3.903,0.838,5.252,2.265c1.146-0.732,2.476-1.124,3.875-1.124c2.714,0,5.119,1.474,6.359,3.784
		c0.348-0.051,0.701-0.076,1.057-0.076c3.984,0,7.227,3.242,7.227,7.226c0,0.816-0.133,1.611-0.394,2.362
		c2.742,1.033,4.672,3.678,4.672,6.764c0,1.173-0.285,2.32-0.821,3.347c1.592,1.354,2.533,3.343,2.533,5.496
		C80.249,34.59,79.406,36.473,77.98,37.809z M76.333,45.993c0.666-0.753,1.05-1.733,1.05-2.769c0-1.765-1.116-3.349-2.78-3.942
		c-0.595-0.213-0.998-0.772-1.01-1.407c-0.009-0.633,0.373-1.208,0.963-1.439c1.61-0.635,2.65-2.164,2.65-3.893
		c0-1.581-0.879-3.01-2.293-3.731c-0.419-0.213-0.715-0.607-0.803-1.069c-0.09-0.46,0.04-0.936,0.348-1.289
		c0.67-0.765,1.037-1.742,1.037-2.754c0-2.234-1.748-4.069-3.979-4.178c-0.562-0.026-1.063-0.363-1.303-0.873
		c-0.239-0.512-0.177-1.112,0.162-1.561c0.549-0.73,0.84-1.6,0.84-2.514c0-2.307-1.877-4.184-4.184-4.184
		c-0.492,0-0.975,0.084-1.432,0.251c-0.394,0.145-0.827,0.12-1.201-0.066c-0.375-0.188-0.656-0.521-0.778-0.92
		c-0.536-1.778-2.146-2.972-4.005-2.972c-1.159,0-2.238,0.466-3.036,1.311c-0.333,0.352-0.814,0.526-1.295,0.466
		c-0.481-0.061-0.903-0.346-1.14-0.769c-0.739-1.325-2.141-2.148-3.656-2.148c-1.046,0-2.05,0.392-2.824,1.101
		c-0.582,0.535-1.476,0.535-2.058,0c-0.773-0.709-1.777-1.101-2.827-1.101c-0.063,0-0.126,0-0.188,0.003
		c-0.062,0.004-0.123,0.004-0.185,0c-0.062-0.003-0.125-0.003-0.188-0.003c-1.049,0-2.055,0.392-2.829,1.101
		c-0.582,0.535-1.476,0.535-2.058,0c-0.771-0.709-1.776-1.101-2.823-1.101c-1.514,0-2.914,0.823-3.653,2.148
		c-0.235,0.422-0.66,0.708-1.141,0.769c-0.481,0.061-0.961-0.112-1.293-0.466c-0.799-0.845-1.879-1.311-3.041-1.311
		c-1.827,0-3.475,1.223-4.003,2.972c-0.122,0.399-0.401,0.732-0.775,0.918c-0.375,0.188-0.809,0.213-1.202,0.07
		c-0.458-0.167-0.941-0.253-1.434-0.253c-2.307,0-4.184,1.877-4.184,4.184c0,0.917,0.291,1.784,0.841,2.512
		c0.338,0.451,0.4,1.051,0.163,1.561c-0.239,0.512-0.741,0.848-1.305,0.875c-2.23,0.108-3.978,1.944-3.978,4.178
		c0,1.012,0.368,1.989,1.036,2.754c0.31,0.354,0.438,0.829,0.35,1.291c-0.089,0.46-0.386,0.854-0.804,1.067
		c-1.415,0.719-2.294,2.148-2.294,3.731c0,1.729,1.04,3.257,2.651,3.893c0.589,0.232,0.974,0.806,0.962,1.439
		c-0.01,0.635-0.413,1.196-1.01,1.409c-1.662,0.591-2.78,2.175-2.78,3.94c0,1.037,0.386,2.02,1.054,2.774
		c1.283-1.546,3.14-2.598,5.238-2.835c0.495-5.326,1.284-10.628,2.366-15.857l0.008-0.03c0.235-1.143,1.169-2.029,2.319-2.204
		c0.032-0.005,0.062-0.009,0.094-0.015c1.201-0.211,2.394,0.394,2.968,1.504c0.723,1.397,2.147,2.267,3.72,2.267
		c1.16,0,2.238-0.466,3.039-1.31c0.332-0.352,0.812-0.525,1.293-0.466c0.48,0.061,0.903,0.346,1.139,0.769
		c0.741,1.325,2.142,2.148,3.655,2.148c1.047,0,2.05-0.392,2.825-1.101c0.582-0.535,1.476-0.535,2.058,0
		c0.772,0.709,1.778,1.101,2.827,1.101c0.069,0,0.14-0.001,0.208-0.005c0.049-0.002,0.097-0.002,0.146,0
		c0.069,0.004,0.138,0.005,0.208,0.005c1.05,0,2.054-0.392,2.827-1.101c0.582-0.535,1.476-0.535,2.058,0
		c0.774,0.709,1.778,1.101,2.826,1.101c1.514,0,2.913-0.823,3.652-2.148c0.238-0.422,0.66-0.708,1.142-0.769
		c0.48-0.059,0.96,0.114,1.293,0.466c0.799,0.844,1.879,1.31,3.038,1.31c1.573,0,2.997-0.869,3.72-2.267
		c0.574-1.111,1.767-1.717,2.967-1.504c0.032,0.006,0.064,0.01,0.097,0.015c1.148,0.175,2.082,1.06,2.318,2.2
		c1.088,5.241,1.88,10.554,2.377,15.892C73.193,43.399,75.048,44.451,76.333,45.993z M71.714,55.804
		c1.985-0.643,3.427-2.508,3.427-4.706c0-2.328-1.618-4.284-3.789-4.806C71.577,49.458,71.699,52.632,71.714,55.804z M68.676,65.355
		V56.5c0-9.439-0.957-18.915-2.847-28.165c-1.299,2.191-3.642,3.535-6.213,3.535c-1.375,0-2.721-0.399-3.871-1.127
		c-1.349,1.428-3.242,2.269-5.254,2.269c-1.377,0-2.708-0.39-3.854-1.114c-1.147,0.724-2.479,1.114-3.856,1.114
		c-0.094,0-0.188-0.002-0.281-0.006c-0.094,0.004-0.187,0.006-0.28,0.006c-1.378,0-2.711-0.39-3.857-1.114
		c-1.146,0.724-2.477,1.114-3.853,1.114c-2.013,0-3.906-0.841-5.257-2.269c-1.148,0.728-2.494,1.127-3.869,1.127
		c-2.571,0-4.914-1.344-6.213-3.535c-1.884,9.24-2.839,18.7-2.839,28.128v8.892c0,2.525,1.04,5.007,2.854,6.812
		c1.783,1.772,4.105,2.738,6.561,2.727c2.088-0.013,4.06-0.699,5.704-1.987c0.271-0.211,0.602-0.323,0.938-0.323
		c0.134,0,0.267,0.018,0.397,0.054c0.464,0.125,0.841,0.462,1.018,0.907c1.425,3.594,4.84,5.913,8.701,5.913
		c3.86,0,7.277-2.319,8.7-5.913c0.177-0.445,0.554-0.782,1.018-0.907c0.462-0.126,0.956-0.025,1.335,0.27
		c1.645,1.288,3.616,1.975,5.704,1.987c2.447,0.012,4.777-0.954,6.561-2.727C67.636,70.362,68.676,67.881,68.676,65.355z
		 M13.293,55.804c0.015-3.172,0.135-6.344,0.359-9.512c-2.17,0.523-3.786,2.478-3.786,4.806
		C9.866,53.296,11.308,55.161,13.293,55.804z"/>
	<path fill="#D6D6D6" d="M77.383,43.225c0,1.035-0.384,2.016-1.05,2.769c-1.285-1.542-3.14-2.594-5.238-2.829
		c-0.497-5.338-1.289-10.651-2.377-15.892c-0.236-1.141-1.17-2.025-2.318-2.2c-0.032-0.005-0.064-0.009-0.097-0.015
		c-1.2-0.213-2.393,0.394-2.967,1.504c-0.723,1.397-2.146,2.267-3.72,2.267c-1.159,0-2.239-0.466-3.038-1.31
		c-0.333-0.352-0.812-0.525-1.293-0.466c-0.481,0.061-0.903,0.346-1.142,0.769c-0.739,1.325-2.139,2.148-3.652,2.148
		c-1.048,0-2.052-0.392-2.826-1.101c-0.582-0.535-1.476-0.535-2.058,0c-0.773,0.709-1.777,1.101-2.827,1.101
		c-0.07,0-0.139-0.001-0.208-0.005c-0.049-0.002-0.097-0.002-0.146,0c-0.068,0.004-0.139,0.005-0.208,0.005
		c-1.049,0-2.055-0.392-2.827-1.101c-0.582-0.535-1.476-0.535-2.058,0c-0.775,0.709-1.778,1.101-2.825,1.101
		c-1.514,0-2.914-0.823-3.655-2.148c-0.235-0.422-0.658-0.708-1.139-0.769c-0.481-0.059-0.961,0.114-1.293,0.466
		c-0.801,0.844-1.879,1.31-3.039,1.31c-1.572,0-2.997-0.869-3.72-2.267c-0.574-1.111-1.767-1.715-2.968-1.504
		c-0.031,0.006-0.062,0.01-0.094,0.015c-1.15,0.175-2.084,1.061-2.319,2.204l-0.008,0.03c-1.082,5.229-1.871,10.531-2.366,15.857
		c-2.099,0.237-3.955,1.289-5.238,2.835c-0.668-0.755-1.054-1.737-1.054-2.774c0-1.765,1.118-3.349,2.78-3.94
		c0.597-0.213,1-0.774,1.01-1.409c0.012-0.633-0.373-1.208-0.962-1.44c-1.611-0.635-2.651-2.164-2.651-3.892
		c0-1.583,0.879-3.012,2.294-3.731c0.418-0.213,0.715-0.607,0.804-1.067c0.088-0.462-0.04-0.938-0.35-1.291
		c-0.668-0.765-1.036-1.742-1.036-2.754c0-2.234,1.747-4.069,3.978-4.178c0.563-0.026,1.065-0.363,1.305-0.875
		c0.237-0.51,0.175-1.11-0.163-1.561c-0.55-0.729-0.841-1.596-0.841-2.512c0-2.307,1.877-4.184,4.184-4.184
		c0.492,0,0.976,0.086,1.434,0.253c0.394,0.143,0.827,0.118,1.202-0.07c0.374-0.186,0.653-0.519,0.775-0.918
		c0.528-1.75,2.176-2.972,4.003-2.972c1.162,0,2.242,0.466,3.041,1.31c0.332,0.354,0.812,0.527,1.293,0.466
		c0.48-0.061,0.905-0.346,1.141-0.769c0.739-1.325,2.14-2.148,3.653-2.148c1.047,0,2.052,0.392,2.823,1.101
		c0.582,0.535,1.476,0.535,2.058,0c0.774-0.709,1.78-1.101,2.83-1.101c0.062,0,0.125,0,0.188,0.003c0.062,0.004,0.122,0.004,0.185,0
		c0.062-0.003,0.125-0.003,0.188-0.003c1.05,0,2.054,0.392,2.827,1.101c0.582,0.535,1.476,0.535,2.058,0
		c0.774-0.709,1.778-1.101,2.824-1.101c1.516,0,2.917,0.823,3.656,2.148c0.236,0.422,0.658,0.708,1.14,0.769
		c0.48,0.061,0.962-0.114,1.295-0.466c0.798-0.844,1.877-1.31,3.036-1.31c1.858,0,3.469,1.194,4.005,2.972
		c0.122,0.399,0.403,0.732,0.778,0.92c0.374,0.187,0.808,0.211,1.201,0.066c0.457-0.167,0.939-0.251,1.432-0.251
		c2.307,0,4.184,1.877,4.184,4.184c0,0.915-0.291,1.784-0.84,2.514c-0.339,0.449-0.401,1.049-0.162,1.561
		c0.24,0.51,0.74,0.846,1.303,0.873c2.23,0.108,3.979,1.943,3.979,4.178c0,1.012-0.367,1.989-1.037,2.754
		c-0.308,0.354-0.438,0.829-0.348,1.289c0.088,0.462,0.384,0.855,0.803,1.069c1.414,0.721,2.293,2.15,2.293,3.731
		c0,1.729-1.04,3.257-2.65,3.892c-0.59,0.232-0.972,0.807-0.963,1.44c0.012,0.635,0.415,1.194,1.01,1.407
		C76.267,39.876,77.383,41.46,77.383,43.225z"/>
	<path fill="#F7F1DA" d="M75.141,51.098c0,2.198-1.441,4.063-3.427,4.706c-0.015-3.172-0.137-6.346-0.362-9.512
		C73.522,46.813,75.141,48.77,75.141,51.098z"/>
	<path fill="#F7F1DA" d="M68.676,56.5v8.855c0,2.525-1.04,5.007-2.854,6.812c-1.783,1.772-4.113,2.738-6.561,2.727
		c-2.088-0.013-4.06-0.699-5.704-1.987c-0.379-0.295-0.873-0.396-1.335-0.27c-0.464,0.125-0.841,0.462-1.018,0.907
		c-1.423,3.594-4.84,5.913-8.7,5.913c-3.861,0-7.276-2.319-8.701-5.913c-0.177-0.445-0.554-0.782-1.018-0.907
		c-0.131-0.036-0.264-0.054-0.397-0.054c-0.336,0-0.667,0.112-0.938,0.323c-1.645,1.288-3.616,1.975-5.704,1.987
		c-2.455,0.012-4.777-0.954-6.561-2.727c-1.814-1.805-2.854-4.286-2.854-6.812v-8.892c0-9.429,0.955-18.889,2.839-28.128
		c1.299,2.191,3.642,3.535,6.213,3.535c1.375,0,2.721-0.399,3.869-1.127c1.351,1.428,3.244,2.269,5.257,2.269
		c1.376,0,2.707-0.39,3.853-1.114c1.146,0.724,2.479,1.114,3.857,1.114c0.094,0,0.187-0.002,0.28-0.006
		c0.093,0.004,0.188,0.006,0.281,0.006c1.378,0,2.709-0.39,3.856-1.114c1.146,0.724,2.478,1.114,3.854,1.114
		c2.012,0,3.905-0.841,5.254-2.269c1.15,0.728,2.496,1.127,3.871,1.127c2.571,0,4.914-1.344,6.213-3.535
		C67.719,37.585,68.676,47.061,68.676,56.5z M61.969,59.923c0.596-0.596,0.596-1.558,0-2.153c-0.593-0.593-1.558-0.593-2.15,0
		c-1.429,1.429-3.75,1.429-5.177,0c-0.595-0.593-1.557-0.593-2.152,0c-0.593,0.596-0.593,1.558,0,2.153
		c1.309,1.306,3.023,1.958,4.741,1.958C58.945,61.881,60.662,61.229,61.969,59.923z M60.935,46.017c0-0.841-0.681-1.521-1.521-1.521
		c-2.018,0-3.66-1.643-3.66-3.661c0-0.84-0.682-1.521-1.521-1.521c-0.841,0-1.521,0.681-1.521,1.521
		c0,3.697,3.007,6.704,6.703,6.704C60.254,47.538,60.935,46.857,60.935,46.017z M59.893,53.557c0-1.471-1.192-2.663-2.662-2.663
		c-1.471,0-2.663,1.192-2.663,2.663c0,1.47,1.192,2.662,2.663,2.662C58.7,56.219,59.893,55.026,59.893,53.557z M47.155,67.445
		c0.594-0.594,0.594-1.558,0-2.15c-0.595-0.596-1.558-0.596-2.15,0c-0.692,0.689-1.61,1.07-2.59,1.07
		c-0.978,0-1.896-0.381-2.588-1.07c-0.594-0.596-1.558-0.596-2.15,0c-0.594,0.593-0.596,1.557,0,2.15
		c1.266,1.267,2.949,1.962,4.738,1.962C44.206,69.407,45.889,68.712,47.155,67.445z M32.518,59.923c0.593-0.596,0.593-1.558,0-2.153
		c-0.596-0.593-1.558-0.593-2.152,0c-1.427,1.429-3.748,1.429-5.177,0c-0.593-0.593-1.557-0.593-2.15,0
		c-0.596,0.596-0.596,1.558,0,2.153c1.307,1.306,3.021,1.958,4.738,1.958C29.494,61.881,31.211,61.229,32.518,59.923z
		 M32.297,40.834c0-0.84-0.681-1.521-1.521-1.521c-0.84,0-1.521,0.681-1.521,1.521c0,2.018-1.643,3.661-3.66,3.661
		c-0.841,0-1.521,0.681-1.521,1.521c0,0.84,0.681,1.521,1.521,1.521C29.29,47.538,32.297,44.531,32.297,40.834z M30.439,53.557
		c0-1.471-1.192-2.663-2.663-2.663c-1.47,0-2.662,1.192-2.662,2.663c0,1.47,1.192,2.662,2.662,2.662
		C29.247,56.219,30.439,55.026,30.439,53.557z"/>
	<path fill="#DBCFA9" d="M61.969,57.77c0.596,0.596,0.596,1.558,0,2.153c-1.307,1.306-3.023,1.958-4.738,1.958
		c-1.718,0-3.433-0.652-4.741-1.958c-0.593-0.596-0.593-1.558,0-2.153c0.596-0.593,1.558-0.593,2.152,0
		c1.427,1.429,3.748,1.429,5.177,0C60.411,57.177,61.376,57.177,61.969,57.77z"/>
	<path fill="#A3A29F" d="M59.413,44.495c0.841,0,1.521,0.681,1.521,1.521c0,0.84-0.681,1.521-1.521,1.521
		c-3.696,0-6.703-3.007-6.703-6.704c0-0.84,0.681-1.521,1.521-1.521c0.84,0,1.521,0.681,1.521,1.521
		C55.753,42.853,57.396,44.495,59.413,44.495z"/>
	<circle fill="#3F7C8E" cx="57.23" cy="53.556" r="2.663"/>
	<path fill="#333333" d="M47.155,65.295c0.594,0.593,0.594,1.557,0,2.15c-1.267,1.267-2.949,1.962-4.74,1.962
		c-1.789,0-3.473-0.695-4.738-1.962c-0.596-0.594-0.594-1.558,0-2.15c0.593-0.596,1.557-0.596,2.15,0
		c0.692,0.689,1.61,1.07,2.588,1.07c0.979,0,1.897-0.381,2.59-1.07C45.598,64.699,46.561,64.699,47.155,65.295z"/>
	<path fill="#DBCFA9" d="M32.518,57.77c0.593,0.596,0.593,1.558,0,2.153c-1.307,1.306-3.023,1.958-4.741,1.958
		c-1.717,0-3.432-0.652-4.738-1.958c-0.595-0.596-0.595-1.558,0-2.153c0.594-0.593,1.558-0.593,2.15,0
		c1.429,1.429,3.75,1.429,5.177,0C30.96,57.177,31.922,57.177,32.518,57.77z"/>
	<path fill="#A3A29F" d="M30.775,39.313c0.841,0,1.521,0.681,1.521,1.521c0,3.697-3.007,6.704-6.703,6.704
		c-0.841,0-1.521-0.682-1.521-1.521c0-0.841,0.681-1.521,1.521-1.521c2.018,0,3.66-1.643,3.66-3.661
		C29.254,39.994,29.936,39.313,30.775,39.313z"/>
	<circle fill="#3F7C8E" cx="27.776" cy="53.556" r="2.663"/>
	<path fill="#F7F1DA" d="M13.652,46.292c-0.225,3.168-0.345,6.34-0.359,9.512c-1.985-0.643-3.427-2.508-3.427-4.706
		C9.866,48.77,11.482,46.815,13.652,46.292z"/>
</g>
</svg>
