<?xml version="1.0" encoding="utf-8"?>
<!-- Generator: Adobe Illustrator 16.0.0, SVG Export Plug-In . SVG Version: 6.00 Build 0)  -->
<!DOCTYPE svg PUBLIC "-//W3C//DTD SVG 1.1//EN" "http://www.w3.org/Graphics/SVG/1.1/DTD/svg11.dtd">
<svg version="1.1" id="Layer_1" xmlns="http://www.w3.org/2000/svg" xmlns:xlink="http://www.w3.org/1999/xlink" x="0px" y="0px"
	 width="85px" height="85px" viewBox="0 0 85 85" enable-background="new 0 0 85 85" xml:space="preserve">
<g>
	<path fill="#F4F4F4" d="M35.807,45.442v5.969c0,3.869-1.572,7.367-4.107,9.902c-2.535,2.539-6.035,4.107-9.906,4.107
		c-7.742,0-14.012-6.27-14.012-14.012v-5.967c0-3.873,1.569-7.373,4.106-9.908c1.133-1.133,2.45-2.061,3.903-2.754
		c1.809-0.863,3.855-1.354,6.002-1.354c2.197,0,4.277,0.508,6.119,1.402c0.02,0.02,0,0.02,0,0.02
		C32.594,35.112,35.807,39.897,35.807,45.442"/>
	<path fill="#010101" d="M21.793,66.147c-8.127,0-14.737-6.611-14.737-14.736v-5.967c0-3.936,1.534-7.635,4.319-10.42
		c1.189-1.189,2.572-2.164,4.105-2.896c1.951-0.93,4.133-1.422,6.311-1.422c2.256,0,4.422,0.496,6.438,1.475
		c0.047,0.021,0.09,0.051,0.131,0.082c2.396,1.189,4.424,3.006,5.865,5.264c1.508,2.359,2.305,5.098,2.305,7.918v5.969
		c0,3.93-1.533,7.629-4.318,10.414C29.428,64.612,25.729,66.147,21.793,66.147z M21.793,32.153c-1.965,0-3.932,0.443-5.689,1.281
		c-1.385,0.66-2.629,1.541-3.703,2.613c-2.513,2.512-3.896,5.848-3.896,9.396v5.967c0,7.326,5.96,13.287,13.288,13.287
		c3.549,0,6.885-1.383,9.395-3.896c2.512-2.512,3.895-5.846,3.895-9.391v-5.967c0-2.543-0.719-5.012-2.076-7.139
		c-1.324-2.072-3.193-3.734-5.408-4.805c-0.047-0.021-0.088-0.049-0.127-0.078C25.689,32.581,23.781,32.153,21.793,32.153z"/>
	<rect x="5.678" y="48.425" fill="#5B5D67" width="73.645" height="33.352"/>
	<path fill="#010101" d="M79.322,82.501H5.677c-0.399,0-0.724-0.324-0.724-0.725V48.425c0-0.398,0.324-0.725,0.724-0.725h73.646
		c0.398,0,0.725,0.324,0.725,0.725v33.352C80.047,82.177,79.723,82.501,79.322,82.501z M6.402,81.052h72.195V49.149H6.402V81.052z"
		/>
	<path fill="#FDDFD9" d="M17.428,20.583c0,1.758-1.426,3.182-3.182,3.182H13c-1.758,0-3.18-1.424-3.18-3.182
		c0-1.756,1.422-3.18,3.18-3.18h1.246C16.002,17.403,17.428,18.827,17.428,20.583"/>
	<path fill="#010101" d="M14.246,24.489H13c-2.152,0-3.904-1.752-3.904-3.906c0-2.152,1.752-3.904,3.904-3.904h1.246
		c2.152,0,3.904,1.752,3.904,3.904C18.15,22.737,16.398,24.489,14.246,24.489z M13,18.128c-1.354,0-2.455,1.102-2.455,2.457
		s1.102,2.457,2.455,2.457h1.246c1.354,0,2.457-1.102,2.457-2.457c0-1.354-1.104-2.457-2.457-2.457H13z"/>
	<path fill="#FDDFD9" d="M33.625,20.583c0,1.758-1.424,3.182-3.182,3.182h-1.244c-1.756,0-3.18-1.424-3.18-3.182
		c0-1.756,1.424-3.18,3.18-3.18h1.244C32.201,17.403,33.625,18.827,33.625,20.583"/>
	<path fill="#010101" d="M30.443,24.489h-1.244c-2.152,0-3.904-1.752-3.904-3.906c0-2.152,1.752-3.904,3.904-3.904h1.244
		c2.154,0,3.906,1.752,3.906,3.904C34.352,22.737,32.6,24.489,30.443,24.489z M29.199,18.128c-1.355,0-2.457,1.102-2.457,2.457
		s1.102,2.457,2.457,2.457h1.244c1.355,0,2.459-1.102,2.459-2.457c0-1.354-1.104-2.457-2.459-2.457H29.199z"/>
	<path fill="#F0536D" d="M27.928,32.866v15.568h-12.15V32.815c0,0,0-0.018,0.016-0.033c1.809-0.861,3.855-1.354,6-1.354
		c2.197,0,4.277,0.508,6.119,1.404c0.018,0.016,0,0.016,0,0.016L27.928,32.866z"/>
	<path fill="#010101" d="M27.928,49.157h-12.15c-0.4,0-0.727-0.324-0.727-0.725V32.813c0-0.195,0.08-0.391,0.219-0.535
		c0.061-0.062,0.133-0.115,0.211-0.152c1.955-0.93,4.139-1.424,6.312-1.424c2.258,0,4.422,0.498,6.438,1.479
		c0.062,0.031,0.121,0.07,0.174,0.119c0.088,0.082,0.154,0.182,0.193,0.287c0.035,0.088,0.057,0.184,0.057,0.279v15.568
		C28.652,48.833,28.328,49.157,27.928,49.157z M16.5,47.71h10.705V33.3c-1.703-0.762-3.521-1.148-5.412-1.148
		c-1.814,0-3.635,0.381-5.293,1.102V47.71z"/>
	<path fill="#F1DA6B" d="M23.762,8.851c0,0-0.701-5.625-6.828-5.625c-6.129,0-6.045,6.312-9.15,6.523
		C7.783,9.749,19.605,15.769,23.762,8.851"/>
	<path fill="#010101" d="M17.094,12.901L17.094,12.901c-4.646,0-9.438-2.404-9.639-2.506c-0.291-0.146-0.446-0.471-0.383-0.791
		c0.065-0.318,0.336-0.557,0.662-0.578c0.871-0.061,1.443-0.859,2.305-2.16c1.221-1.842,2.891-4.365,6.895-4.365
		c3.484,0,5.357,1.703,6.314,3.133c1.023,1.531,1.227,3.061,1.232,3.125c0.02,0.16-0.016,0.324-0.098,0.463
		C22.916,11.663,20.463,12.901,17.094,12.901z M9.57,9.749c1.717,0.695,4.689,1.703,7.523,1.703c2.719,0,4.703-0.926,5.906-2.754
		c-0.207-1.006-1.299-4.748-6.066-4.748c-3.227,0-4.479,1.889-5.688,3.715C10.742,8.429,10.228,9.206,9.57,9.749z"/>
	<path fill="#FDDFD9" d="M24.752,34.153c0,1.459-1.184,2.643-2.643,2.643s-2.643-1.184-2.643-2.643v-8.451
		c0-1.459,1.184-2.641,2.643-2.641s2.643,1.182,2.643,2.641V34.153z"/>
	<path fill="#010101" d="M22.109,37.521c-1.855,0-3.365-1.512-3.365-3.367v-8.451c0-1.855,1.51-3.365,3.365-3.365
		s3.365,1.508,3.365,3.365v8.451C25.477,36.009,23.965,37.521,22.109,37.521z M22.109,23.786c-1.059,0-1.916,0.859-1.916,1.916
		v8.453c0,1.057,0.857,1.916,1.916,1.916c1.057,0,1.918-0.859,1.918-1.916v-8.453C24.027,24.646,23.166,23.786,22.109,23.786z"/>
	<path fill="#F0536D" d="M13.764,54.069H5.619c-1.32,0-2.396-1.072-2.396-2.395v-0.652c0-1.32,1.074-2.395,2.396-2.395h73.762
		c1.322,0,2.396,1.072,2.396,2.395v0.652c0,1.322-1.074,2.395-2.396,2.395H21.512"/>
	<path fill="#010101" d="M79.381,54.794H21.512c-0.4,0-0.725-0.324-0.725-0.725s0.324-0.725,0.725-0.725h57.869
		c0.92,0,1.67-0.75,1.67-1.67v-0.652c0-0.92-0.75-1.67-1.67-1.67H5.619c-0.92,0-1.67,0.75-1.67,1.67v0.652
		c0,0.92,0.75,1.67,1.67,1.67h8.145c0.398,0,0.725,0.324,0.725,0.725s-0.324,0.725-0.725,0.725H5.619
		c-1.719,0-3.119-1.398-3.119-3.117v-0.652c0-1.721,1.4-3.119,3.119-3.119h73.762c1.721,0,3.119,1.398,3.119,3.119v0.652
		C82.5,53.396,81.102,54.794,79.381,54.794z"/>
	<path fill="#FDDFD9" d="M29.822,16.626v5.273c0,4.428-3.602,8.029-8.029,8.029c-2.215,0-4.227-0.896-5.68-2.35
		c-1.453-1.455-2.352-3.465-2.352-5.68v-5.273c0-4.43,3.602-8.027,8.029-8.027c2.215,0,4.229,0.895,5.682,2.348
		S29.822,14.411,29.822,16.626"/>
	<path fill="#010101" d="M21.793,30.653c-2.34,0-4.539-0.91-6.191-2.562c-1.652-1.654-2.562-3.854-2.562-6.193v-5.273
		c0-4.826,3.928-8.752,8.754-8.752c2.342,0,4.541,0.908,6.193,2.561c1.65,1.652,2.561,3.854,2.561,6.191v5.273
		C30.545,26.726,26.619,30.653,21.793,30.653z M21.793,9.321c-4.027,0-7.307,3.277-7.307,7.303v5.273
		c0,1.953,0.76,3.789,2.139,5.168s3.215,2.137,5.168,2.137c4.027,0,7.305-3.277,7.305-7.305v-5.273c0-1.953-0.76-3.789-2.137-5.168
		C25.582,10.079,23.746,9.321,21.793,9.321z"/>
	<path fill="#F1DA6B" d="M29.822,16.626v0.777c-2.959,0-4.367-4.404-4.367-4.404c-3.381,5.072-11.691,4.371-11.691,4.371v-0.744
		c0-4.43,3.6-8.029,8.029-8.029c2.215,0,4.227,0.896,5.682,2.348C28.926,12.399,29.822,14.411,29.822,16.626"/>
	<path fill="#010101" d="M29.822,18.128c-2.387,0-3.859-2.254-4.562-3.709c-3.047,3.324-8.232,3.709-10.463,3.709
		c-0.668,0-1.078-0.035-1.096-0.037c-0.375-0.031-0.662-0.344-0.662-0.721v-0.746c0-4.826,3.926-8.752,8.754-8.752
		c2.34,0,4.539,0.91,6.191,2.561c1.65,1.652,2.561,3.852,2.561,6.191v0.779C30.545,17.804,30.221,18.128,29.822,18.128z
		 M14.486,16.675c0.096,0.002,0.199,0.004,0.311,0.004c2.205,0,7.602-0.398,10.057-4.08c0.154-0.232,0.428-0.355,0.703-0.316
		c0.275,0.037,0.506,0.23,0.59,0.496c0.012,0.035,1.027,3.123,2.951,3.779c-0.018-1.93-0.773-3.738-2.137-5.102
		c-1.379-1.377-3.215-2.135-5.168-2.135c-4.027,0-7.307,3.277-7.307,7.305V16.675z"/>
	<path fill="#FDDFD9" d="M18.273,25.034c0,0,3.66,1.547,6.479,0"/>
	<path fill="#010101" d="M21.814,26.446c-2.025,0-3.719-0.701-3.824-0.746c-0.369-0.156-0.541-0.582-0.387-0.949
		c0.156-0.369,0.58-0.541,0.949-0.385c0.043,0.018,3.385,1.387,5.85,0.031c0.352-0.191,0.791-0.064,0.982,0.287
		c0.193,0.35,0.064,0.791-0.285,0.982C24.035,26.253,22.879,26.446,21.814,26.446z"/>
	<path fill="#50B4E6" d="M81.775,41.491c0,1.324-1.072,2.395-2.396,2.395H40.387c-1.32,0-2.395-1.07-2.395-2.395V5.62
		c0-1.322,1.074-2.395,2.395-2.395h38.992c1.322,0,2.396,1.072,2.396,2.395V41.491L81.775,41.491z"/>
	<path fill="#010101" d="M79.381,44.61H40.389c-1.721,0-3.119-1.398-3.119-3.119V5.62c0-1.721,1.398-3.121,3.119-3.121h38.992
		c1.721,0,3.119,1.4,3.119,3.121v35.871C82.5,43.212,81.102,44.61,79.381,44.61z M40.389,3.95c-0.922,0-1.672,0.75-1.672,1.672
		v35.869c0,0.922,0.75,1.672,1.672,1.672h38.992c0.92,0,1.67-0.75,1.67-1.672V5.622c0-0.922-0.75-1.672-1.67-1.672H40.389z"/>
	<g>
		<path fill="#F0536D" d="M54.951,21.394l2.951,1.541c0.818-0.539,1.645-1.08,2.451-1.609l-3.838-0.92L54.951,21.394z"/>
		<path fill="#010101" d="M57.902,22.935l-2.951-1.541l1.564-0.988l3.838,0.918c0.562-0.371,1.121-0.736,1.662-1.09l-5.459-1.309
			c-0.189-0.045-0.393-0.012-0.557,0.092l-2.887,1.822c-0.219,0.141-0.348,0.385-0.336,0.645c0.01,0.258,0.158,0.492,0.389,0.611
			l3.352,1.75C56.977,23.544,57.439,23.239,57.902,22.935z"/>
		<path fill="#F4F4F4" d="M51.068,31.284c0.328-0.23,0.777-0.15,1.008,0.178c0.125,0.18,0.158,0.396,0.109,0.592
			c1.949-0.385,4.051-1.025,5.746-2.1c0.809-0.512,1.773-1.123,2.83-1.789l-0.006-2.391c0-0.248,0.127-0.48,0.336-0.613l5.428-3.432
			c0.242-0.154,0.553-0.148,0.791,0.012s0.359,0.447,0.309,0.729l-0.279,1.543c2.777-1.754,5.305-3.354,6.695-4.246l0.059-0.037
			c1.385-0.889,1.799-1.484,1.436-2.061c-0.146-0.23-0.344-0.445-0.58-0.635l-2.701,1.707c-0.264,0.168-0.572,0.258-0.889,0.258
			c-0.572,0-1.094-0.287-1.398-0.766c-0.244-0.391-0.307-0.842-0.213-1.258c-0.201,0.104-0.4,0.217-0.6,0.342
			C66.051,19.276,49.352,30.3,48.646,30.767l-1.395,1.07c-0.031,0.023-0.043,0.033-0.074,0.051
			c-0.049,0.031-0.357,0.248-0.596,0.732c0.514-0.004,1.527-0.031,2.795-0.158L51.068,31.284z"/>
		<path fill="#010101" d="M40.67,29.688c-0.008-0.016-0.016-0.031-0.021-0.045C40.654,29.657,40.662,29.673,40.67,29.688z"/>
		<path fill="#010101" d="M40.633,29.612c-0.004-0.01-0.008-0.021-0.012-0.031C40.625,29.591,40.629,29.603,40.633,29.612z"/>
		<path fill="#010101" d="M40.779,28.825c0.039-0.041,0.084-0.076,0.133-0.107C40.863,28.749,40.818,28.784,40.779,28.825z"/>
		<path fill="#010101" d="M48.945,30.099c0.027,0.252-0.078,0.5-0.279,0.654l-0.02,0.016c0.705-0.467,17.404-11.49,20.502-13.449
			c0.199-0.125,0.398-0.24,0.6-0.342c0.096-0.414,0.346-0.791,0.73-1.033l1.605-1.018c0.111-0.07,0.242-0.109,0.375-0.111
			c-1.352,0.002-2.764,0.443-4.086,1.279c-1.014,0.643-3.477,2.248-6.357,4.139c-0.541,0.354-1.098,0.721-1.662,1.09
			c-0.809,0.531-1.631,1.072-2.451,1.611c-0.463,0.305-0.926,0.609-1.385,0.91c-3.809,2.506-7.285,4.801-8.355,5.508l-4.42-2.035
			l4.785,2.205C48.758,29.626,48.916,29.845,48.945,30.099z"/>
		<path fill="#010101" d="M75.689,16.163c0.002,0.25-0.125,0.486-0.338,0.619l-0.402,0.254c0.236,0.189,0.434,0.402,0.58,0.635
			c0.363,0.576-0.051,1.172-1.436,2.061l-0.059,0.037c-1.393,0.893-3.918,2.49-6.695,4.248l-0.352,1.934
			c3.211-2.027,6.248-3.949,7.83-4.963l0.057-0.037c0.422-0.271,1.127-0.723,1.629-1.336c0.715-0.875,0.805-1.84,0.25-2.715
			c-0.34-0.539-0.816-0.994-1.416-1.35c-0.822-0.496-1.812-0.752-2.871-0.734h-0.002c1.055-0.016,2.051,0.238,2.873,0.734
			C75.553,15.679,75.686,15.911,75.689,16.163z"/>
		<path fill="#010101" d="M40.58,29.251c0,0.01-0.002,0.02-0.004,0.029c-0.002,0.029-0.002,0.059,0,0.086
			c-0.002-0.027-0.002-0.057,0-0.084C40.578,29.271,40.58,29.261,40.58,29.251z"/>
		<path fill="#010101" d="M40.605,29.532c-0.002-0.008-0.004-0.016-0.006-0.025C40.602,29.517,40.604,29.524,40.605,29.532z"/>
		<path fill="#010101" d="M49.377,32.466c-1.268,0.125-2.281,0.152-2.795,0.158c-0.078,0.158-0.148,0.346-0.199,0.564
			c-0.059,0.246-0.238,0.443-0.479,0.521c-0.074,0.025-0.15,0.037-0.229,0.037c-0.168,0-0.334-0.059-0.467-0.17l-4.377-3.695
			c-0.064-0.053-0.117-0.117-0.158-0.188c0.041,0.07,0.094,0.135,0.156,0.188l4.756,4.016c0.125,0.104,0.283,0.166,0.445,0.17
			c0,0,0.139,0.004,0.389,0.004c0.182,0,0.406-0.002,0.668-0.008L49.377,32.466z"/>
		<path fill="#010101" d="M60.762,28.167c-1.055,0.666-2.02,1.277-2.83,1.789c-1.695,1.072-3.795,1.715-5.746,2.102
			c-0.041,0.162-0.139,0.311-0.287,0.416l-2.008,1.402c2.65-0.291,6.133-0.998,8.814-2.695c0.607-0.385,1.305-0.824,2.061-1.301
			L60.762,28.167z"/>
		<polygon fill="#F0536D" points="65.898,23.837 62.207,26.173 62.223,33.495 64.396,32.122 		"/>
		<path fill="#010101" d="M67.34,24.017l0.279-1.543c0.051-0.283-0.07-0.57-0.309-0.73c-0.238-0.162-0.549-0.166-0.791-0.012
			l-5.428,3.432c-0.209,0.133-0.336,0.365-0.336,0.615l0.006,2.391l0.004,1.711l0.012,4.934c0,0.264,0.143,0.506,0.375,0.633
			c0.107,0.059,0.229,0.088,0.348,0.088c0.135,0,0.271-0.037,0.389-0.111l3.551-2.246c0.172-0.107,0.289-0.283,0.326-0.482
			l1.223-6.742L67.34,24.017z M62.223,33.495l-0.016-7.322l3.691-2.336l-1.502,8.285L62.223,33.495z"/>
		<path fill="#50B4E6" d="M72.682,16.265l-1.43,0.904c-0.1,0.062-0.129,0.193-0.064,0.293c0.053,0.084,0.146,0.09,0.172,0.09
			c0.041,0,0.08-0.01,0.113-0.031l1.879-1.189C73.135,16.294,72.91,16.271,72.682,16.265z"/>
		<path fill="#010101" d="M70.48,15.944c-0.387,0.242-0.637,0.619-0.73,1.031c-0.096,0.418-0.033,0.869,0.213,1.26
			c0.303,0.479,0.826,0.766,1.396,0.766c0.314,0,0.625-0.09,0.889-0.258l2.701-1.707l0.402-0.254
			c0.213-0.133,0.34-0.369,0.338-0.619c-0.004-0.252-0.137-0.482-0.352-0.613c-0.822-0.496-1.818-0.75-2.873-0.734
			c-0.002,0-0.002,0-0.004,0l0,0c-0.135,0.002-0.264,0.041-0.377,0.111L70.48,15.944z M71.473,17.521
			c-0.033,0.021-0.072,0.033-0.113,0.033c-0.025,0-0.119-0.006-0.172-0.092c-0.062-0.1-0.033-0.23,0.064-0.293l1.43-0.904
			c0.229,0.006,0.453,0.029,0.67,0.068L71.473,17.521z"/>
		<path fill="#F0536D" d="M45.369,31.815c0.381-0.689,0.859-1.039,1.027-1.146l0.436-0.334l-3.338-1.537l-0.973,0.617L45.369,31.815
			z"/>
		<path fill="#010101" d="M40.6,29.507c0.002,0.01,0.004,0.018,0.006,0.025c0.004,0.018,0.012,0.033,0.018,0.049
			c0.004,0.01,0.006,0.021,0.01,0.031c0.006,0.01,0.012,0.02,0.016,0.031c0.008,0.014,0.016,0.029,0.021,0.045
			c0.002,0.002,0.004,0.004,0.006,0.006c0.041,0.07,0.094,0.135,0.158,0.188l4.377,3.695c0.133,0.111,0.299,0.17,0.467,0.17
			c0.076,0,0.154-0.012,0.229-0.037c0.24-0.08,0.42-0.277,0.479-0.521c0.051-0.221,0.121-0.406,0.199-0.566
			c0.238-0.484,0.547-0.701,0.596-0.732c0.031-0.018,0.045-0.027,0.074-0.051l1.395-1.07l0.02-0.016
			c0.201-0.154,0.309-0.402,0.279-0.654c-0.027-0.252-0.188-0.471-0.416-0.576l-4.785-2.205c-0.223-0.104-0.482-0.084-0.689,0.047
			l-2.143,1.354c-0.049,0.031-0.092,0.066-0.131,0.107c-0.111,0.115-0.182,0.264-0.199,0.426c-0.002,0.01-0.004,0.02-0.004,0.029
			c-0.002,0.029-0.002,0.057-0.002,0.086C40.578,29.415,40.586,29.462,40.6,29.507z M46.832,30.335l-0.436,0.334
			c-0.168,0.107-0.646,0.457-1.027,1.146l-2.848-2.402l0.973-0.617L46.832,30.335z"/>
		<path fill="#010101" d="M75.992,23.837l-5.961,3.91c-0.336,0.219-0.428,0.668-0.209,1.004c0.139,0.211,0.371,0.326,0.605,0.326
			c0.137,0,0.273-0.039,0.396-0.119l5.961-3.91c0.334-0.219,0.428-0.668,0.209-1.002S76.326,23.618,75.992,23.837z"/>
		<path fill="#010101" d="M48.299,27.372c0.141,0.209,0.369,0.322,0.604,0.322c0.139,0,0.279-0.039,0.402-0.123l3.775-2.525
			c0.332-0.223,0.422-0.674,0.199-1.006s-0.672-0.422-1.006-0.199l-3.775,2.527C48.166,26.591,48.076,27.04,48.299,27.372z"/>
		<path fill="#010101" d="M58.428,32.755l-3.65,2.557c-0.328,0.229-0.406,0.682-0.178,1.01c0.141,0.201,0.365,0.309,0.594,0.309
			c0.145,0,0.289-0.043,0.416-0.131l3.65-2.557c0.326-0.23,0.406-0.682,0.178-1.01S58.756,32.526,58.428,32.755z"/>
		<path fill="#010101" d="M51.898,32.472c0.148-0.104,0.246-0.254,0.287-0.416c0.049-0.197,0.018-0.412-0.107-0.592
			c-0.229-0.328-0.682-0.408-1.01-0.18l-1.691,1.182l-2.287,1.6l-1.424,0.996c-0.328,0.229-0.408,0.68-0.18,1.008
			c0.143,0.203,0.367,0.311,0.596,0.311c0.145,0,0.287-0.043,0.414-0.131l3.395-2.371L51.898,32.472z"/>
		<path fill="#F4F4F4" d="M48.727,9.86c0.049,0.52,0.252,1.02,0.584,1.43c0.254,0.311,0.207,0.768-0.104,1.02
			c-0.135,0.107-0.297,0.162-0.457,0.162c-0.211,0-0.42-0.092-0.562-0.268c-0.463-0.57-0.766-1.256-0.873-1.977
			c-0.422-0.283-0.912-0.434-1.439-0.434c-1.461,0-2.648,1.184-2.648,2.635c0,1.461,1.188,2.648,2.648,2.648h10.199
			c1.453,0,2.635-1.188,2.635-2.648c0-1.451-1.182-2.635-2.635-2.635c-0.369,0-0.742,0.082-1.076,0.232
			c-0.217,0.098-0.467,0.084-0.67-0.037c-0.205-0.121-0.336-0.334-0.352-0.57c-0.1-1.371-1.25-2.443-2.625-2.443
			c-1.453,0-2.637,1.182-2.637,2.635c0,0.002,0,0.006,0,0.008c0,0.041,0.002,0.08,0.004,0.121
			C48.727,9.778,48.729,9.819,48.727,9.86z"/>
		<path fill="#010101" d="M60.156,12.429c0-2.252-1.832-4.084-4.084-4.084c-0.273,0-0.547,0.029-0.816,0.084
			c-0.51-1.684-2.082-2.902-3.904-2.902c-1.918,0-3.529,1.326-3.969,3.107c-0.475-0.188-0.986-0.289-1.508-0.289
			c-2.26,0-4.1,1.832-4.1,4.082c0,2.26,1.84,4.098,4.1,4.098h10.197C58.324,16.526,60.156,14.688,60.156,12.429z M47.99,8.894
			c0.4,0,0.725,0.324,0.725,0.725l0,0c0-0.004,0-0.006,0-0.01c0-1.453,1.184-2.633,2.637-2.633c1.375,0,2.525,1.072,2.625,2.441
			c0.016,0.236,0.146,0.451,0.352,0.572s0.453,0.135,0.67,0.037c0.334-0.152,0.707-0.232,1.076-0.232
			c1.453,0,2.635,1.182,2.635,2.635c0,1.461-1.182,2.648-2.635,2.648H45.875c-1.461,0-2.648-1.188-2.648-2.648
			c0-1.453,1.188-2.635,2.648-2.635c0.525,0,1.016,0.148,1.438,0.432c-0.029-0.201-0.047-0.404-0.047-0.609
			C47.266,9.218,47.59,8.894,47.99,8.894z"/>
		<path fill="#010101" d="M48.719,9.737c0.004,0.041,0.004,0.082,0.008,0.123C48.729,9.819,48.727,9.778,48.719,9.737z"/>
		<path fill="#010101" d="M47.266,9.618c0,0.205,0.018,0.408,0.047,0.609c0.109,0.721,0.41,1.406,0.875,1.977
			c0.143,0.176,0.352,0.268,0.561,0.268c0.162,0,0.322-0.053,0.457-0.162c0.312-0.252,0.357-0.709,0.105-1.02
			c-0.334-0.41-0.535-0.91-0.584-1.43c-0.006-0.041-0.006-0.082-0.008-0.123c-0.002-0.039-0.006-0.08-0.006-0.119l0,0
			c0-0.4-0.322-0.725-0.725-0.725C47.588,8.894,47.266,9.218,47.266,9.618z"/>
		<path fill="#F4F4F4" d="M72.906,38.063c-0.16,0-0.322-0.055-0.457-0.162c-0.311-0.252-0.357-0.709-0.105-1.02
			c0.229-0.277,0.365-0.619,0.398-0.973c0-0.027,0.004-0.053,0.006-0.082s0.004-0.059,0.004-0.09c0-0.002,0-0.004,0-0.008
			c0-0.994-0.809-1.803-1.803-1.803c-0.943,0-1.732,0.734-1.797,1.672c-0.018,0.234-0.146,0.447-0.352,0.57
			c-0.201,0.121-0.451,0.137-0.668,0.039c-0.232-0.104-0.488-0.16-0.738-0.16c-0.994,0-1.803,0.811-1.803,1.805
			c0,1,0.809,1.812,1.803,1.812h7.674c1,0,1.814-0.812,1.814-1.812c0-0.994-0.814-1.805-1.814-1.805
			c-0.332,0-0.646,0.09-0.918,0.256c-0.098,0.543-0.33,1.059-0.684,1.492C73.326,37.97,73.117,38.063,72.906,38.063z"/>
		<path fill="#010101" d="M75.068,34.599c-0.35,0-0.689,0.057-1.016,0.162c-0.412-1.32-1.648-2.283-3.104-2.283
			c-1.4,0-2.611,0.898-3.062,2.158c-0.162-0.023-0.328-0.037-0.492-0.037c-1.791,0-3.25,1.459-3.25,3.252
			c0,1.797,1.459,3.26,3.25,3.26h7.674c1.801,0,3.264-1.463,3.264-3.26C78.332,36.06,76.867,34.599,75.068,34.599z M74.201,35.735
			c0,0.191-0.018,0.381-0.051,0.566c0.271-0.166,0.586-0.254,0.918-0.254c1,0,1.814,0.809,1.814,1.805c0,1-0.814,1.811-1.814,1.811
			h-7.674c-0.994,0-1.803-0.812-1.803-1.811c0-0.996,0.809-1.805,1.803-1.805c0.25,0,0.506,0.057,0.738,0.16
			c0.217,0.096,0.467,0.082,0.67-0.041c0.201-0.121,0.332-0.334,0.35-0.57c0.064-0.938,0.854-1.67,1.797-1.67
			c0.994,0,1.803,0.809,1.803,1.803c0,0.002,0,0.004,0,0.008v-0.002c0-0.4,0.324-0.725,0.727-0.725
			C73.877,35.011,74.201,35.335,74.201,35.735z"/>
		<path fill="#010101" d="M72.742,35.909c0.004-0.027,0.004-0.055,0.006-0.082C72.746,35.854,72.742,35.882,72.742,35.909z"/>
		<path fill="#010101" d="M72.752,35.735v0.002c0,0.029-0.002,0.059-0.004,0.09c-0.002,0.027-0.002,0.053-0.006,0.082
			c-0.033,0.354-0.172,0.693-0.398,0.971c-0.252,0.312-0.203,0.768,0.105,1.02c0.135,0.109,0.297,0.162,0.457,0.162
			c0.211,0,0.42-0.092,0.561-0.268c0.354-0.434,0.586-0.949,0.684-1.492c0.033-0.188,0.051-0.377,0.051-0.566
			c0-0.4-0.324-0.725-0.725-0.725S72.752,35.335,72.752,35.735z"/>
	</g>
	<path fill="#010101" d="M71.236,64.585H13.762c-0.398,0-0.725-0.324-0.725-0.725s0.324-0.727,0.725-0.727h57.475
		c0.4,0,0.725,0.326,0.725,0.727S71.637,64.585,71.236,64.585z"/>
	<path fill="#010101" d="M79.381,44.61H40.389c-1.721,0-3.119-1.398-3.119-3.119V5.62c0-1.721,1.398-3.121,3.119-3.121h38.992
		c1.721,0,3.119,1.4,3.119,3.121v35.871C82.5,43.212,81.102,44.61,79.381,44.61z M40.389,3.95c-0.922,0-1.672,0.75-1.672,1.672
		v35.869c0,0.922,0.75,1.672,1.672,1.672h38.992c0.92,0,1.67-0.75,1.67-1.672V5.622c0-0.922-0.75-1.672-1.67-1.672H40.389z"/>
</g>
</svg>
