<?xml version="1.0" encoding="utf-8"?>
<!-- Generator: Adobe Illustrator 16.0.0, SVG Export Plug-In . SVG Version: 6.00 Build 0)  -->
<!DOCTYPE svg PUBLIC "-//W3C//DTD SVG 1.1//EN" "http://www.w3.org/Graphics/SVG/1.1/DTD/svg11.dtd">
<svg version="1.1" id="Layer_1" xmlns="http://www.w3.org/2000/svg" xmlns:xlink="http://www.w3.org/1999/xlink" x="0px" y="0px"
	 width="85px" height="85px" viewBox="0 0 85 85" enable-background="new 0 0 85 85" xml:space="preserve">
<g>
	<path fill-rule="evenodd" clip-rule="evenodd" d="M28.555,9.004c3.433-2.521,7.132-4.327,11.187-5.383
		C44.665,2.338,49.695,2.3,54.69,2.793c5.954,0.589,10.282,6.473,9.494,12.438c-0.249,1.882-0.773,3.663-1.681,5.327
		c-0.213,0.392-0.204,0.602,0.193,0.905c1.397,1.065,1.888,2.725,1.352,4.296c-0.538,1.578-2.021,2.695-3.769,2.585
		c-1.26-0.079-1.95,0.22-2.505,1.473c-1.003,2.268-2.804,3.88-5.007,5.044c-0.323,0.17-1.052,0.048-0.815,0.892
		c0.33,1.182,0.608,1.603,1.449,1.634c0.965,0.035,1.929,0.031,2.894,0.123c3.55,0.336,6.854,1.414,9.942,3.18
		c0.323,0.185,0.664,0.356,1.019,0.461c1.263,0.374,2.128-0.273,2.15-1.581c0.004-0.242-0.01-0.484,0.002-0.725
		c0.102-2.068-0.031-4.014-1.229-5.89c-1.069-1.677-1.317-3.714-1.349-5.726c-0.017-1.01,0.281-1.912,0.966-2.649
		c0.267-0.288,0.329-0.574,0.326-0.936c-0.012-1.396-0.015-2.792-0.002-4.187c0.02-2.259,1.707-3.975,3.883-3.966
		c2.136,0.009,3.814,1.717,3.843,3.927c0.014,1.046,0.026,2.094-0.008,3.14c-0.017,0.497,0.078,0.721,0.641,0.675
		c0.666-0.055,1.341-0.025,2.012-0.008c1.807,0.044,3.267,1.242,3.694,3.014c0.398,1.654-0.359,3.385-1.929,4.202
		c-0.468,0.244-0.555,0.516-0.552,0.987c0.02,3.194,0.015,6.389,0.009,9.583C79.703,47.074,75.2,51.56,69.121,51.568
		c-1.852,0.003-3.704,0.021-5.556-0.013c-0.509-0.01-0.616,0.136-0.612,0.624c0.023,3.113,0.024,6.227-0.001,9.341
		c-0.004,0.508,0.162,0.66,0.644,0.758c1.39,0.282,2.793,0.548,4.14,0.979c4.565,1.462,7.46,6.07,6.741,10.618
		c-0.799,5.058-4.788,8.603-9.773,8.611c-10.576,0.02-21.151,0.015-31.728,0.003c-5.142-0.007-9.261-3.698-9.912-8.837
		c-0.609-4.801,2.64-9.393,7.535-10.623c1.117-0.28,2.251-0.486,3.371-0.755c0.264-0.063,0.659,0.03,0.666-0.499
		c0.006-0.472-0.146-0.686-0.583-0.873c-4.416-1.89-7.207-6.153-7.162-10.89c0.054-5.741,4.187-10.546,9.879-11.491
		c1.586-0.264,3.172-0.53,4.757-0.8c0.908-0.154,1.803-1.484,1.606-2.358c-0.056-0.245-0.273-0.243-0.426-0.315
		c-2.792-1.321-4.771-3.412-5.921-6.273c-0.137-0.341-0.31-0.419-0.646-0.422c-0.801-0.007-1.607,0.116-2.404-0.097
		c-1.539-0.411-2.525-1.379-2.877-2.928c-0.348-1.53,0.147-2.828,1.358-3.788c0.458-0.362,0.511-0.595,0.241-1.09
		c-0.615-1.126-1.142-2.301-1.744-3.435c-0.199-0.375-0.169-0.595,0.138-0.888c0.912-0.871,1.775-1.793,2.688-2.663
		c0.349-0.332,0.323-0.494-0.06-0.774C31.839,11.491,30.222,10.257,28.555,9.004z"/>
	<path fill-rule="evenodd" clip-rule="evenodd" d="M4.982,30.15c0.009-5.642,4.261-9.692,9.47-9.498
		c4.973,0.186,8.934,4.647,8.54,9.683c-0.199,2.548-1.318,4.662-3.288,6.31c-0.124,0.103-0.238,0.228-0.379,0.297
		c-1.234,0.603-1.578,1.562-1.494,2.922c0.117,1.901-1.111,3.383-2.89,3.843c-2.346,0.607-4.832-1.124-4.749-3.543
		c0.056-1.612-0.486-2.544-1.758-3.468C6.106,35.003,5.068,32.54,4.982,30.15z"/>
	<path fill-rule="evenodd" clip-rule="evenodd" d="M15.29,14.24c0,1.1-0.019,2.201,0.01,3.3c0.011,0.418-0.108,0.53-0.532,0.539
		c-2.055,0.043-2.055,0.058-2.055-1.984c0-1.745,0.013-3.489-0.009-5.232c-0.005-0.418,0.108-0.53,0.532-0.539
		c2.055-0.043,2.055-0.058,2.055,1.984C15.29,12.952,15.29,13.596,15.29,14.24z"/>
	<path fill-rule="evenodd" clip-rule="evenodd" d="M21.474,21.277c-0.698-0.422-1.347-0.795-1.973-1.205
		c-0.232-0.152-0.006-0.33,0.079-0.471c1.127-1.882,2.266-3.757,3.382-5.646c0.192-0.325,0.335-0.392,0.661-0.166
		c0.547,0.38,1.408,0.598,1.615,1.099c0.215,0.521-0.52,1.123-0.845,1.683c-0.833,1.435-1.698,2.851-2.556,4.271
		C21.736,21.007,21.669,21.224,21.474,21.277z"/>
	<path fill-rule="evenodd" clip-rule="evenodd" d="M8.634,19.927c-0.059,0.064-0.113,0.156-0.193,0.206
		c-0.571,0.349-1.158,0.672-1.719,1.037c-0.311,0.203-0.364-0.04-0.466-0.209c-1.146-1.904-2.282-3.814-3.439-5.711
		c-0.183-0.3-0.137-0.411,0.153-0.608c1.769-1.202,1.762-1.212,2.835,0.57c0.843,1.399,1.687,2.798,2.529,4.197
		C8.431,19.569,8.522,19.733,8.634,19.927z"/>
	<path fill-rule="evenodd" clip-rule="evenodd" fill="#D29F6C" d="M58.438,79.909c1.242-2.695,0.693-4.943-1.589-6.87
		c0.896-0.404,1.754-0.795,2.614-1.179c1.566-0.698,3.127-1.407,4.703-2.079c0.448-0.191,0.667-0.372,0.366-0.862
		c-0.334-0.544-0.362-1.459-0.885-1.63c-0.44-0.145-1.108,0.395-1.671,0.644c-2.938,1.302-5.884,2.59-8.81,3.919
		c-1.349,0.613-2.749,0.21-4.122,0.326c-0.217,0.019-0.286-0.141-0.248-0.314c0.154-0.707-0.354-0.762-0.829-0.891
		c-4.523-1.229-9.048-2.455-13.563-3.712c-0.609-0.17-0.808-0.046-0.957,0.575c-0.414,1.727-0.451,1.727,1.235,2.189
		c3.616,0.992,7.231,1.987,10.856,2.947c0.545,0.145,0.703,0.366,0.69,0.923c-0.041,1.771-0.037,3.543-0.002,5.313
		c0.011,0.546-0.11,0.726-0.694,0.722c-4.161-0.026-8.321-0.003-12.481-0.018c-3.935-0.015-7.06-2.811-7.431-6.617
		c-0.363-3.725,2.111-7.004,5.92-7.85c0.732-0.162,1.497-0.238,2.191-0.5c2.196-0.825,4.279-0.014,6.383,0.374
		c2.766,0.51,5.517,1.105,8.275,1.659c0.879,0.176,1.696-0.19,2.527-0.35c3.342-0.639,6.676-1.319,10.006-2.016
		c0.66-0.138,1.264-0.021,1.891,0.128c1.251,0.296,2.518,0.529,3.762,0.851c3.466,0.896,5.792,4.281,5.377,7.776
		c-0.434,3.661-3.404,6.453-7.015,6.532C62.798,79.947,60.655,79.909,58.438,79.909z"/>
	<path fill-rule="evenodd" clip-rule="evenodd" fill="#B3DC7F" d="M66.74,48.992c-1.02,0-2.042-0.045-3.058,0.017
		c-0.639,0.039-0.815-0.194-0.718-0.766c0.004-0.025,0.001-0.054,0-0.08c-0.014-0.642,0.218-1.521-0.109-1.86
		c-0.345-0.355-1.181,0.097-1.793,0.233c-0.386,0.087-0.521-0.096-0.664-0.387c-0.565-1.154-1.201-2.277-1.699-3.46
		c-0.325-0.769-0.607-0.663-1.168-0.254c-2.708,1.974-5.453,3.897-8.161,5.872c-0.452,0.33-0.73,0.304-1.169-0.015
		c-2.776-2.017-5.583-3.991-8.362-6.004c-0.436-0.315-0.62-0.312-0.854,0.202c-0.486,1.073-1.074,2.099-1.552,3.175
		c-0.251,0.566-0.552,0.791-1.199,0.769c-1.616-0.055-1.617-0.017-1.617,1.6c0,0.725-0.007,1.449,0.002,2.173
		c0.029,2.254,1.668,3.9,3.915,3.939c0.214,0.003,0.432,0.021,0.644-0.004c0.427-0.048,0.617,0.064,0.605,0.554
		c-0.033,1.368-0.023,2.737-0.004,4.105c0.005,0.373-0.096,0.488-0.489,0.511c-4.971,0.279-9.195-3.283-9.789-8.279
		c-0.56-4.707,2.812-9.097,7.649-9.95c1.398-0.247,2.803-0.461,4.198-0.723c0.375-0.071,0.56,0.007,0.771,0.338
		c2.779,4.345,8.38,4.184,10.936-0.321c0.226-0.398,0.489-0.408,0.844-0.407c3.975,0.003,7.681,1,11.116,3
		c1.22,0.71,2.501,1.096,3.92,0.731c1.771-0.455,2.997-1.967,3.042-3.792c0.027-1.099,0.021-2.2,0.001-3.3
		c-0.006-0.371,0.085-0.518,0.486-0.511c1.396,0.022,2.791,0.013,4.186,0.005c0.303-0.002,0.511,0.019,0.495,0.416
		c-0.082,2.035,0.179,4.082-0.152,6.105c-0.58,3.539-3.688,6.241-7.274,6.354c-0.991,0.031-1.985,0.005-2.978,0.005
		C66.74,48.986,66.74,48.989,66.74,48.992z"/>
	<path fill-rule="evenodd" clip-rule="evenodd" fill="#656D78" d="M49.915,5.173c1.429,0.091,2.984-0.103,4.537,0.141
		c4.638,0.728,7.883,5.237,7.149,9.873c-0.285,1.811-0.96,3.449-1.807,5.041c-0.098,0.184-0.157,0.436-0.438,0.391
		c-0.321-0.052-0.208-0.328-0.217-0.52c-0.119-2.394-0.573-2.958-2.891-3.696c-2.037-0.648-3.223-2.077-3.543-4.165
		c-0.086-0.558-0.291-0.666-0.755-0.614c-0.105,0.012-0.214,0.001-0.321,0.001c-1.741,0-1.744,0-1.357,1.695
		c0.065,0.286,0.205,0.557,0.257,0.845c0.048,0.266,0.415,0.56,0.088,0.793c-0.262,0.186-0.563-0.076-0.816-0.204
		c-1.658-0.836-2.836-2.124-3.383-3.9c-0.203-0.657-0.477-0.807-1.081-0.591c-0.274,0.098-0.576,0.144-0.868,0.155
		c-0.796,0.031-0.775,0.444-0.593,1.053c0.156,0.521,0.701,1.074,0.417,1.535c-0.241,0.391-0.902,0.525-1.381,0.767
		c-1.651,0.835-3.292,1.694-4.959,2.494c-1.402,0.673-2,1.791-2.009,3.291c-0.001,0.215,0.005,0.43-0.006,0.644
		c-0.009,0.177,0.04,0.396-0.239,0.428c-0.182,0.021-0.315-0.058-0.394-0.215c-0.53-1.054-1.058-2.11-1.583-3.167
		c-0.153-0.308,0.123-0.436,0.279-0.594c1.096-1.106,2.169-2.237,3.313-3.292c0.551-0.508,0.419-0.733-0.114-1.109
		c-1.227-0.865-2.403-1.803-3.616-2.689c-0.396-0.29-0.53-0.453,0.015-0.747c3.56-1.92,7.333-3.111,11.369-3.501
		C46.577,5.162,48.185,5.214,49.915,5.173z"/>
	<path fill-rule="evenodd" clip-rule="evenodd" fill="#EFCFB3" d="M56.571,22.591c-0.03,1.604,0.064,3.212-0.479,4.775
		c-1.396,4.023-5.478,6.665-9.515,6.119c-4.575-0.619-7.811-4.061-8.031-8.641c-0.086-1.794-0.001-3.595-0.012-5.393
		c-0.003-0.438,0.192-0.687,0.567-0.874c2.156-1.075,4.312-2.15,6.453-3.253c0.362-0.187,0.562-0.11,0.829,0.144
		c1.88,1.782,4.125,2.666,6.713,2.585c0.819-0.025,1.389,0.507,2.095,0.726c1.396,0.433,1.386,0.463,1.379,1.961
		C56.569,21.357,56.571,21.974,56.571,22.591z"/>
	<path fill-rule="evenodd" clip-rule="evenodd" fill="#E5E8EC" d="M60.389,49.276c0,1.074,0,2.089,0,3.104
		c0,3.006-0.018,6.013,0.015,9.018c0.006,0.574-0.15,0.758-0.721,0.865c-3.183,0.602-6.354,1.26-9.603,1.913
		c0-0.861,0-1.663,0-2.464c0-3.221,0.016-6.442-0.015-9.663c-0.006-0.571,0.146-0.754,0.72-0.862
		C53.968,50.588,57.14,49.93,60.389,49.276z"/>
	<path fill-rule="evenodd" clip-rule="evenodd" fill="#EFCFB3" d="M51.695,74.763c0.749,0.001,1.499-0.015,2.248,0.004
		c1.447,0.036,2.561,1.145,2.576,2.541c0.017,1.428-1.111,2.58-2.594,2.603c-1.526,0.023-3.053-0.013-4.578,0.018
		c-0.472,0.01-0.574-0.151-0.565-0.589c0.026-1.339,0.029-2.679-0.002-4.017c-0.011-0.465,0.141-0.589,0.586-0.569
		C50.141,74.787,50.918,74.763,51.695,74.763z"/>
	<path fill-rule="evenodd" clip-rule="evenodd" fill="#EFCFB3" d="M74.222,33.529c-0.589,0-1.189-0.072-1.765,0.017
		c-0.91,0.142-1.331-0.315-1.7-1.047c-0.822-1.627-1.305-3.332-1.341-5.155c-0.02-0.966,0.527-1.578,1.337-1.541
		c0.808,0.038,1.304,0.707,1.217,1.655c-0.07,0.761-0.329,1.475-0.747,2.097c-0.456,0.679-0.268,1.019,0.444,1.244
		c0.252,0.08,0.48,0.233,0.722,0.348c0.355,0.168,0.726,0.56,1.023-0.093c0.074-0.163,0.288-0.1,0.443-0.1
		c0.938-0.004,1.875,0.007,2.812-0.007c0.317-0.005,0.456,0.051,0.482,0.426c0.157,2.157,0.17,2.156-1.964,2.156
		C74.865,33.529,74.544,33.529,74.222,33.529z"/>
	<path fill-rule="evenodd" clip-rule="evenodd" fill="#EFCFB3" d="M47.521,41.268c-1.297-0.058-2.329-0.581-3.06-1.659
		c-0.135-0.199-0.285-0.388-0.042-0.634c0.693-0.702,0.911-1.626,1.104-2.542c0.09-0.424,0.258-0.516,0.651-0.44
		c0.877,0.167,1.763,0.165,2.64,0.015c0.38-0.064,0.582-0.032,0.664,0.417c0.164,0.906,0.491,1.757,1.187,2.407
		c0.255,0.239,0.099,0.43-0.022,0.627C49.928,40.627,48.863,41.192,47.521,41.268z"/>
	<path fill-rule="evenodd" clip-rule="evenodd" fill="#EFCFB3" d="M43.906,59.3c-1.558,0-1.558,0-1.558-1.581
		c0-1.018,0.021-2.035-0.01-3.051c-0.013-0.429,0.128-0.549,0.542-0.53c0.694,0.031,1.392-0.009,2.087,0.015
		c1.433,0.046,2.537,1.181,2.533,2.579c-0.004,1.395-1.112,2.514-2.551,2.565C44.603,59.31,44.254,59.299,43.906,59.3z"/>
	<path fill-rule="evenodd" clip-rule="evenodd" fill="#E5E8EC" d="M47.503,61.213c0,0.895-0.012,1.721,0.006,2.546
		c0.008,0.338-0.108,0.4-0.422,0.338c-3.17-0.642-6.343-1.272-9.514-1.908c-0.146-0.029-0.368-0.005-0.345-0.231
		c0.025-0.257,0.24-0.124,0.378-0.124c2.41,0.013,4.821,0.02,7.231,0.049C45.766,61.893,46.608,61.58,47.503,61.213z"/>
	<path fill-rule="evenodd" clip-rule="evenodd" fill="#E5E7EB" d="M47.483,52.177c-1.183-0.596-2.403-0.631-3.644-0.613
		c-1.663,0.023-3.325,0.009-4.987,0.005c-1.275-0.003-1.84-0.694-1.67-1.958c0.045-0.338,0.196-0.312,0.42-0.267
		c3.174,0.638,6.346,1.284,9.523,1.904C47.781,51.376,47.35,51.845,47.483,52.177z"/>
	<path fill-rule="evenodd" clip-rule="evenodd" fill="#EFCFB3" d="M76.612,25.798c0.562,0,1.123-0.012,1.685,0.003
		c0.866,0.022,1.425,0.547,1.414,1.303c-0.012,0.728-0.551,1.25-1.371,1.264c-1.149,0.021-2.299-0.009-3.448,0.014
		c-0.422,0.009-0.463-0.127-0.394-0.509c0.074-0.415,0.146-0.893,0.012-1.269c-0.303-0.847,0.132-0.853,0.74-0.813
		C75.702,25.822,76.158,25.798,76.612,25.798z"/>
	<path fill-rule="evenodd" clip-rule="evenodd" fill="#EFCFB3" d="M73.273,21.081c0,0.054,0,0.107,0,0.161
		c0,2.126,0.001,2.115-2.134,1.99c-0.352-0.021-0.456-0.112-0.45-0.46c0.02-1.126-0.012-2.253,0.016-3.379
		c0.019-0.803,0.59-1.344,1.318-1.32c0.699,0.022,1.196,0.548,1.247,1.319c0.004,0.054,0.003,0.107,0.003,0.161
		C73.273,20.061,73.273,20.571,73.273,21.081z"/>
	<path fill-rule="evenodd" clip-rule="evenodd" fill="#EECEB2" d="M35.943,24.645c-0.26,0.308,0.657,1.184-0.573,1.161
		c-1.376-0.025-2.004-0.364-2.036-1.253c-0.028-0.806,0.566-1.317,1.548-1.332C35.914,23.205,35.914,23.205,35.943,24.645z"/>
	<path fill-rule="evenodd" clip-rule="evenodd" fill="#EDCDB2" d="M59.129,24.578c0.021-1.37,0.021-1.37,0.977-1.357
		c0.99,0.013,1.578,0.503,1.566,1.307c-0.014,0.88-0.636,1.254-1.92,1.276C58.521,25.825,59.388,24.915,59.129,24.578z"/>
	<path fill-rule="evenodd" clip-rule="evenodd" fill="#E9CAAF" d="M42.783,47.78c-0.876-0.184-1.748-0.404-2.632-0.534
		c-0.498-0.073-0.566-0.195-0.342-0.638c0.435-0.858,0.415-0.872,1.177-0.327c0.636,0.456,1.267,0.919,1.9,1.379
		C42.852,47.7,42.817,47.74,42.783,47.78z"/>
	<path fill-rule="evenodd" clip-rule="evenodd" fill="#E9CAAF" d="M54.802,47.575c0.728-0.521,1.454-1.044,2.187-1.56
		c0.114-0.081,0.264-0.289,0.391-0.093c0.214,0.331,0.419,0.686,0.528,1.06c0.08,0.272-0.24,0.206-0.396,0.239
		c-0.881,0.183-1.764,0.353-2.646,0.526C54.844,47.69,54.822,47.633,54.802,47.575z"/>
	<path fill-rule="evenodd" clip-rule="evenodd" fill="#FEE9A6" d="M15.29,34.488c-0.153-0.693,0.073-1.243,0.93-1.742
		c1.463-0.852,1.982-2.712,1.449-4.31c-0.537-1.61-2.112-2.694-3.83-2.634c-1.667,0.058-3.124,1.231-3.562,2.87
		c-0.441,1.65,0.203,3.368,1.701,4.218c0.598,0.34,0.834,0.706,0.745,1.367c-0.054,0.395-0.007,0.804-0.011,1.206
		c-0.005,0.627-0.296,0.828-0.879,0.611c-2.197-0.818-4.225-3.801-4.271-6.282c-0.055-2.97,1.928-5.593,4.809-6.361
		c2.812-0.75,5.853,0.558,7.268,3.125c1.434,2.603,0.905,5.856-1.308,7.856c-0.555,0.501-1.198,0.905-1.767,1.392
		c-0.342,0.292-0.739,0.417-1.107,0.27c-0.351-0.14-0.115-0.561-0.162-0.854C15.266,35.038,15.29,34.846,15.29,34.488z"/>
	<path fill-rule="evenodd" clip-rule="evenodd" fill="#A9B1BB" d="M13.995,38.664c0.497,0.172,1.414-0.455,1.314,0.822
		c-0.089,1.153-0.452,1.76-1.294,1.77c-0.845,0.01-1.22-0.607-1.323-1.742C12.577,38.254,13.466,38.811,13.995,38.664z"/>
	<path fill-rule="evenodd" clip-rule="evenodd" fill="#F8D46E" d="M15.285,29.69c-0.016,0.693-0.6,1.262-1.292,1.258
		c-0.725-0.004-1.315-0.63-1.276-1.352c0.038-0.693,0.64-1.244,1.33-1.217C14.74,28.406,15.3,29,15.285,29.69z"/>
	<path fill-rule="evenodd" clip-rule="evenodd" d="M47.143,30.95c-1.754-0.086-3.346-1-4.416-2.806
		c-0.198-0.334-0.238-0.575,0.205-0.712c0.152-0.047,0.292-0.131,0.436-0.203c0.407-0.202,0.797-0.523,1.223-0.582
		c0.547-0.074,0.56,0.603,0.871,0.899c1.304,1.24,3.424,1.082,4.402-0.448c0.342-0.534,0.595-0.562,1.051-0.247
		c0.195,0.136,0.427,0.221,0.642,0.329c1.066,0.535,1.066,0.535,0.386,1.488C50.911,30.112,49.252,30.959,47.143,30.95z"/>
	<path fill-rule="evenodd" clip-rule="evenodd" fill="#010101" d="M43.688,21.933c-0.001,0.713-0.565,1.286-1.269,1.285
		c-0.696,0-1.277-0.586-1.277-1.287s0.582-1.284,1.279-1.284C43.124,20.648,43.688,21.22,43.688,21.933z"/>
	<path fill-rule="evenodd" clip-rule="evenodd" fill="#010101" d="M53.995,21.906c0.013,0.714-0.538,1.297-1.24,1.312
		c-0.696,0.014-1.289-0.558-1.304-1.26c-0.016-0.701,0.552-1.294,1.251-1.309C53.409,20.634,53.982,21.191,53.995,21.906z"/>
</g>
</svg>
