<svg width="40" height="40" viewBox="0 0 40 40" fill="none" xmlns="http://www.w3.org/2000/svg">
<g clip-path="url(#clip0_153_5608)">
<circle cx="20" cy="20" r="20" fill="#E8233D"/>
<path d="M9.75824 10.6412L9.75826 10.6412C12.387 8.69616 16.0004 7.5 20.001 7.5C24.0015 7.5 27.613 8.69624 30.2418 10.6412C32.8703 12.5862 34.5 15.2891 34.5 18.2547C34.5 21.2205 32.8703 23.9234 30.2419 25.868L30.2419 25.8681C27.6131 27.8132 24.0016 29.0094 20.0011 29.0094C18.5534 29.0094 17.1563 28.851 15.8362 28.5582L15.6164 28.5094L15.4342 28.6417L10.5898 32.1576L11.2459 27.1858L11.2893 26.8573L11.0036 26.6894C10.5671 26.4328 10.1513 26.159 9.75828 25.8682L9.75826 25.8682C7.12971 23.9233 5.5 21.2204 5.5 18.2547C5.5 15.2891 7.1296 12.586 9.75824 10.6412ZM21.9481 22.3583V22.3582C21.9481 21.2714 21.0676 20.3913 19.9811 20.3913C18.8953 20.3913 18.0121 21.2707 18.0121 22.3582C18.0121 23.4448 18.8944 24.3272 19.9811 24.3272C21.0686 24.3272 21.9479 23.4439 21.9481 22.3583ZM15.7648 22.3582C15.7648 21.2705 14.8815 20.3913 13.7958 20.3913C12.7093 20.3913 11.8288 21.2715 11.8288 22.3582C11.8288 23.444 12.7084 24.3272 13.7958 24.3272C14.8825 24.3272 15.7648 23.4448 15.7648 22.3582ZM28.3248 22.3582C28.3248 21.2714 27.4445 20.3913 26.3579 20.3913C25.2722 20.3913 24.3889 21.2707 24.3889 22.3582C24.3889 23.4448 25.2711 24.3272 26.3578 24.3272C27.4454 24.3272 28.3248 23.444 28.3248 22.3582Z" stroke="white"/>
</g>
<defs>
<clipPath id="clip0_153_5608">
<rect width="40" height="40" fill="white"/>
</clipPath>
</defs>
</svg>
