<svg width="40" height="40" viewBox="0 0 40 40" fill="none" xmlns="http://www.w3.org/2000/svg">
<g clip-path="url(#clip0_153_5607)">
<circle cx="20" cy="20" r="20" fill="#E8233D"/>
<path d="M19.4375 5C19.6914 5 19.9111 5.09277 20.0967 5.27832C20.2822 5.46387 20.375 5.68359 20.375 5.9375V16.25C20.375 16.7676 20.2773 17.251 20.082 17.7002C19.8867 18.1494 19.6182 18.5449 19.2764 18.8867C18.9346 19.2285 18.5342 19.4971 18.0752 19.6924C17.6162 19.8877 17.1328 19.9902 16.625 20V34.0625C16.625 34.3164 16.5322 34.5361 16.3467 34.7217C16.1611 34.9072 15.9414 35 15.6875 35C15.4336 35 15.2139 34.9072 15.0283 34.7217C14.8428 34.5361 14.75 34.3164 14.75 34.0625V20C14.2324 20 13.749 19.9023 13.2998 19.707C12.8506 19.5117 12.4551 19.2432 12.1133 18.9014C11.7715 18.5596 11.5029 18.1641 11.3076 17.7148C11.1123 17.2656 11.0098 16.7773 11 16.25V5.9375C11 5.68359 11.0928 5.46387 11.2783 5.27832C11.4639 5.09277 11.6836 5 11.9375 5C12.1914 5 12.4111 5.09277 12.5967 5.27832C12.7822 5.46387 12.875 5.68359 12.875 5.9375V16.25C12.875 16.5137 12.9238 16.7578 13.0215 16.9824C13.1191 17.207 13.251 17.4023 13.417 17.5684C13.583 17.7344 13.7832 17.8711 14.0176 17.9785C14.252 18.0859 14.4961 18.1348 14.75 18.125V5.9375C14.75 5.68359 14.8428 5.46387 15.0283 5.27832C15.2139 5.09277 15.4336 5 15.6875 5C15.9414 5 16.1611 5.09277 16.3467 5.27832C16.5322 5.46387 16.625 5.68359 16.625 5.9375V18.125C16.8887 18.125 17.1328 18.0762 17.3574 17.9785C17.582 17.8809 17.7773 17.749 17.9434 17.583C18.1094 17.417 18.2461 17.2168 18.3535 16.9824C18.4609 16.748 18.5098 16.5039 18.5 16.25V5.9375C18.5 5.68359 18.5928 5.46387 18.7783 5.27832C18.9639 5.09277 19.1836 5 19.4375 5ZM29.75 5V34.0625C29.75 34.3164 29.6572 34.5361 29.4717 34.7217C29.2861 34.9072 29.0664 35 28.8125 35C28.5586 35 28.3389 34.9072 28.1533 34.7217C27.9678 34.5361 27.875 34.3164 27.875 34.0625V25.625C27.5137 25.625 27.123 25.6299 26.7031 25.6396C26.2832 25.6494 25.8682 25.6445 25.458 25.625C25.0479 25.6055 24.6475 25.5469 24.2568 25.4492C23.8662 25.3516 23.5244 25.2002 23.2314 24.9951C22.9385 24.79 22.6992 24.5117 22.5137 24.1602C22.3281 23.8086 22.2402 23.3594 22.25 22.8125V11.5625C22.25 10.6543 22.4209 9.80469 22.7627 9.01367C23.1045 8.22266 23.5732 7.5293 24.1689 6.93359C24.7646 6.33789 25.458 5.86914 26.249 5.52734C27.04 5.18555 27.8945 5.00977 28.8125 5H29.75ZM27.875 6.96289C27.3281 7.07031 26.8301 7.26562 26.3809 7.54883C25.9316 7.83203 25.5361 8.18359 25.1943 8.60352C24.8525 9.02344 24.5889 9.47754 24.4033 9.96582C24.2178 10.4541 24.125 10.9863 24.125 11.5625V22.8125C24.125 23.0664 24.2178 23.2861 24.4033 23.4717C24.5889 23.6572 24.8086 23.75 25.0625 23.75H27.875V6.96289Z" fill="white"/>
</g>
<defs>
<clipPath id="clip0_153_5607">
<rect width="40" height="40" fill="white"/>
</clipPath>
</defs>
</svg>
